<?xml version="1.0" encoding="UTF-8"?><svg id="a" xmlns="http://www.w3.org/2000/svg" viewBox="0 0 400 121.89"><g style="fill: currentColor"><path d="m10.65,37.15v.65H.44v-.65h.84c.98,0,1.7-.29,2.14-.86.28-.38.42-1.28.42-2.71v-15.4c0-1.21-.08-2-.23-2.39-.12-.29-.36-.54-.72-.76-.52-.28-1.05-.42-1.62-.42H.44v-.65h10.21v.65h-.86c-.97,0-1.68.29-2.13.86-.29.38-.44,1.28-.44,2.71v15.4c0,1.21.08,2,.23,2.39.12.29.36.54.74.76.5.28,1.04.42,1.6.42h.86Z"/><path d="m17.35,24.63c1.89-2.27,3.69-3.41,5.4-3.41.88,0,1.63.22,2.27.66s1.14,1.16,1.51,2.17c.26.7.39,1.78.39,3.23v6.87c0,1.02.08,1.71.25,2.07.13.29.34.52.62.69s.82.25,1.59.25v.63h-7.96v-.63h.33c.75,0,1.27-.11,1.57-.34s.51-.57.62-1.01c.05-.18.07-.73.07-1.65v-6.59c0-1.46-.19-2.53-.57-3.19s-1.02-.99-1.92-.99c-1.39,0-2.78.76-4.17,2.29v8.49c0,1.09.06,1.76.19,2.02.16.34.39.59.68.75s.87.24,1.75.24v.63h-7.96v-.63h.35c.82,0,1.37-.21,1.66-.62s.43-1.21.43-2.38v-5.98c0-1.93-.04-3.11-.13-3.53s-.22-.71-.4-.86-.42-.23-.73-.23c-.33,0-.72.09-1.18.26l-.26-.63,4.85-1.97h.76v3.41Z"/><path d="m34.57,34.37c.55,0,1.02.19,1.4.58s.57.85.57,1.39-.19,1-.58,1.38-.85.57-1.39.57-1-.19-1.38-.57-.57-.84-.57-1.38.19-1,.57-1.39.84-.58,1.38-.58Zm.04-13.17c.54,0,1,.19,1.38.57s.57.84.57,1.38-.19,1-.57,1.38-.84.57-1.38.57-1-.19-1.38-.57-.57-.84-.57-1.38.19-1,.57-1.38.84-.57,1.38-.57Z"/><path d="m82.55,11.41c.25-.5.94-.83,1.84-.79,1.15,0,3.56,1.37,3.56,2.34,0,.36-.29.4-.68.65-.29.14-.58.61-.79,1.04-1.15,2.3-2.66,5.08-4.36,7.49.68.4,1.3,1.15,1.3,1.87,0,.54-.29.97-.4,1.44-.14.83-.14,6.77-.14,8.57v1.37c0,.68.14,1.98.14,2.66,0,1.62-.47,2.74-1.15,2.74-1.12,0-1.4-2.02-1.51-3.56.36-.68.5-1.76.54-3.06.07-1.73.14-5.08.14-7.49,0-1.58,0-2.3-.14-2.88-2.05,2.63-4.75,5.33-7.92,7.63l-.61-.72c8.6-8.03,11.81-16.85,11.81-18.11,0-.97-1.33-1.12-1.58-1.12l-.04-.07Z"/><path d="m103.72,26.6c-.83-.04-1.62-.04-2.74-.04-2.48,0-4.9.04-6.37.22-.47.07-.72.25-.9.36-.14.11-.4.32-.68.32-.97,0-2.74-2.2-2.74-3.2,0-.72.25-1.26.65-1.44l.11.04c.11.79.9,1.76,2.7,1.76l8.31-.04c1.01,0,1.33-.14,1.84-.14,1.3,0,2.63.65,2.63,1.37s-.72.79-1.51.79h-1.3Z"/><path d="m110.09,15.8c.32-.72,1.08-1.04,1.94-1.04.94,0,3.38,1.19,3.38,2.41,0,.83-.65.5-.83,2.3-.58,5.69-2.09,13.17-5.4,18.47l-.9-.4c2.16-4.46,3.67-12.13,3.92-16.52.07-.97.22-2.05.22-2.92,0-.76,0-2.27-2.3-2.27l-.04-.04Zm8.96,1.08c3.74,5.62,5.58,13.32,5.58,18,0,1.4-.47,2.92-1.44,2.92-.76,0-1.12-.86-1.19-2.84-.18-4.97-1.37-12.06-3.85-17.64l.9-.43Z"/><path d="m129.06,11.85c.29-.61.9-1.12,1.58-1.12,1.44,0,3.92,1.15,3.92,2.52,0,.32-.36.58-.58.94-.11.18-.18.54-.18,1.04-.07,1.55-.14,4.32-.18,7.34,1.87.43,5,1.48,6.19,2.3,1.4.9,2.38,1.94,2.38,2.99,0,.72-.54,1.37-1.15,1.37-.65,0-1.51-.9-2.12-1.69-.86-1.01-3.46-2.81-5.33-3.67,0,1.8-.04,3.53-.04,5.11,0,1.33.11,7.88.11,9.36s-.22,2.52-1.15,2.52c-1.26,0-1.58-2.34-1.8-3.56.61-.94.72-2.05.83-5.22.07-1.87.14-6.73.14-10.98,0-2.27-.04-4.36-.07-5.76-.11-2.63-.32-3.42-2.48-3.42l-.07-.07Z"/><path d="m157.72,26.6c-.83-.04-1.62-.04-2.74-.04-2.48,0-4.9.04-6.37.22-.47.07-.72.25-.9.36-.14.11-.4.32-.68.32-.97,0-2.74-2.2-2.74-3.2,0-.72.25-1.26.65-1.44l.11.04c.11.79.9,1.76,2.7,1.76l8.31-.04c1.01,0,1.33-.14,1.84-.14,1.3,0,2.63.65,2.63,1.37s-.72.79-1.51.79h-1.3Z"/><path d="m167.01,11.56c.07-.61.58-1.08,1.51-1.08,1.69,0,3.56.9,3.56,1.73,0,.43-.36.65-.47.86-.14.22-.18.68-.22,1.15,0,.36-.11,2.59-.14,3.56.65,0,1.76-.11,2.27-.18.5-.07.72-.4,1.04-.68.29-.29.61-.68.9-.68.54,0,2.66,2.02,2.66,2.52,0,.47-.58.58-.83.76-.14.11-.36.29-.4.79-.68,9.4-2.88,16.27-10.26,20.7l-.47-.65c6.23-5.04,8.03-11.45,8.39-20.81v-.22c0-.4-.11-.43-.29-.43-1.08.04-4.61.4-5.58.61-.72.11-1.51.36-1.98.36-.14,0-.5-.14-.61-.18.04,2.05.25,5.72.32,6.73.04.22.04.4.04.58,0,.9-.25,1.55-.86,1.55-.76,0-1.4-1.19-1.48-2.59.29-.43.32-1.58.32-2.63,0-1.58-.14-3.46-.29-4.54-.18-1.66-.65-2.09-1.51-2.34l-.04-.14c.29-.22.86-.32,1.26-.32,1.19,0,2.05,1.15,2.23,2.12.07.04.29.04.4.04.36,0,1.55-.11,3.02-.22,0-.94-.04-2.84-.11-4.32-.04-1.8-1.3-2.02-1.8-2.02-.18,0-.36.04-.54.07l-.07-.11Z"/><path d="m181.3,10.26c1.33,1.08,3.13,3.28,3.13,4.82,0,.76-.47,1.22-.94,1.22-.54,0-.9-.36-.97-.86-.14-1.26-.83-3.46-1.69-4.79l.47-.4Zm2.99-1.04c1.69,1.22,3.28,3.13,3.28,4.61,0,.76-.22,1.4-.94,1.4-.43,0-.83-.32-.94-.94-.14-1.33-.83-3.24-1.87-4.68l.47-.4Z"/><path d="m207.54,24.12c.5-.11.94-.14,1.33-.25.32-.11.86-.5,1.01-.83,1.01.11,2.66.76,2.66,1.48,0,.43-.43.72-1.12.72-.54,0-1.48-.07-2.2-.07-.43,0-1.33.11-1.69.18.07,7.63.11,8.89.18,11.09,0,.86.14,1.26.14,1.62,0,1.15-.61,2.66-1.58,2.66-.43,0-.61-.36-.65-.68-.22-1.01-2.41-2.27-3.53-2.88l.25-.65c.47.22,2.84,1.04,3.17,1.04.29,0,.43-.07.43-.5.04-.54.11-1.26.11-2.02,0-1.4,0-4-.07-6.44-1.04,2.56-3.6,5.87-6.88,8.28l-.61-.5c2.81-2.66,5.54-7.02,6.55-10.69-.76.14-1.55.25-2.12.4-.58.14-1.12.65-1.55.65-.65,0-2.27-1.33-2.27-2.16,0-.5.29-1.15.65-1.22l.04.04c.14.76,1.15,1.48,1.94,1.48.25,0,2.34-.22,4.21-.47-.04-1.08-.07-1.91-.07-2.38-.07-2.34-.07-3.17-2.27-3.17l-.04-.04c.25-.5,1.01-.94,1.69-.94,1.19,0,2.81,1.01,2.81,1.66,0,.61-.54.58-.54,1.73v2.88Z"/><path d="m12.68,76.42c3.09,0,5.77,1.17,8.04,3.52s3.4,5.28,3.4,8.8-1.14,6.63-3.43,9.02-5.05,3.59-8.3,3.59-6.04-1.17-8.27-3.5-3.35-5.35-3.35-9.05,1.29-6.87,3.87-9.26c2.24-2.07,4.92-3.11,8.03-3.11Zm-.33,1.28c-2.13,0-3.84.79-5.13,2.37-1.61,1.97-2.41,4.85-2.41,8.65s.83,6.88,2.5,8.98c1.28,1.59,2.96,2.39,5.06,2.39,2.24,0,4.09-.87,5.55-2.62s2.19-4.5,2.19-8.26c0-4.08-.8-7.12-2.41-9.12-1.29-1.59-3.07-2.39-5.34-2.39Z"/><path d="m40.75,84.7v9.76c0,1.86.04,3,.13,3.42s.23.71.42.87.42.25.68.25c.36,0,.77-.1,1.23-.3l.25.62-4.82,1.99h-.79v-3.41c-1.38,1.5-2.44,2.44-3.16,2.83s-1.49.58-2.3.58c-.9,0-1.68-.26-2.35-.78s-1.12-1.19-1.38-2.01-.39-1.98-.39-3.48v-7.19c0-.76-.08-1.29-.25-1.58s-.41-.52-.73-.68-.91-.23-1.75-.22v-.65h5.64v10.78c0,1.5.26,2.48.78,2.95s1.15.7,1.89.7c.5,0,1.08-.16,1.71-.47s1.4-.92,2.28-1.81v-9.12c0-.91-.17-1.53-.5-1.85s-1.03-.5-2.08-.52v-.65h5.48Z"/><path d="m49.31,79.41v5.29h3.76v1.23h-3.76v10.44c0,1.04.15,1.75.45,2.11s.68.54,1.15.54c.39,0,.76-.12,1.12-.36s.64-.59.84-1.06h.69c-.41,1.15-.99,2.01-1.74,2.59s-1.52.87-2.32.87c-.54,0-1.07-.15-1.58-.45s-.9-.73-1.14-1.28-.37-1.42-.37-2.58v-10.83h-2.55v-.58c.64-.26,1.3-.69,1.98-1.31s1.27-1.34,1.8-2.19c.27-.45.64-1.26,1.12-2.44h.54Z"/><path d="m58.56,97.37c.55,0,1.02.19,1.4.58s.57.85.57,1.39-.19,1-.58,1.38-.85.57-1.39.57-1-.19-1.38-.57-.57-.84-.57-1.38.19-1,.57-1.39.84-.58,1.38-.58Zm.04-13.17c.54,0,1,.19,1.38.57s.57.84.57,1.38-.19,1-.57,1.38-.84.57-1.38.57-1-.19-1.38-.57-.57-.84-.57-1.38.19-1,.57-1.38.84-.57,1.38-.57Z"/><path d="m73.7,93.96c13.5-6.88,24.37-16.23,24.37-18.21,0-.68-1.01-1.4-2.02-1.37,0-.36.79-.9,1.73-.9,1.87,0,4.57,1.62,4.57,3.17,0,.4-.4.47-.94.65-.5.18-.76.43-1.15.79-2.41,2.3-6.48,5.44-8.82,7.13.72.4,1.37,1.22,1.37,1.73,0,.43-.22.68-.25,1.22-.11.97-.11,3.28-.11,4.64,0,2.12,0,4.64.04,5.8,0,1.26.14,2.3.14,3.1,0,1.66-.54,2.38-1.44,2.38s-1.51-1.73-1.84-3.74c.47-.83.61-1.51.68-2.7.11-1.4.22-4.43.22-6.77,0-1.55,0-3.85-.54-4.46-3.24,2.27-8.78,5.51-15.62,8.28l-.4-.72Z"/><path d="m132.62,87.48c2.38,0,3.78-.29,4.36-.29,1.73,0,3.96.61,3.96,1.51,0,.61-.65.94-2.05.94-.65,0-1.4,0-2.12-.04-1.55-.07-4.36-.07-6.55-.07-4.25,0-13.82,0-15.59.65-.47.18-.94.54-1.55.54-1.3,0-3.71-2.23-3.71-3.67,0-.86.22-1.37.68-1.8l.25-.04c.4,1.91,1.8,2.27,5.47,2.27h16.85Z"/><path d="m151.6,80.96c.4-.83,1.04-1.01,1.66-1.01,1.84,0,4.5,1.66,4.5,2.74,0,.83-.65.43-1.26,2.23-1.84,5.15-5.62,11.05-10.58,14.72l-.68-.68c6.19-6.08,8.78-14.61,8.78-16.09,0-1.19-.97-1.87-2.38-1.87l-.04-.04Zm13.75,0c6.7,4.03,12.13,11.48,12.13,15.66,0,1.19-.36,2.3-1.48,2.3-.9,0-1.37-.65-1.66-1.91-1.22-4.68-4.21-10.94-9.68-15.3l.68-.76Z"/><path d="m189.9,74.77c.18-.58,1.01-1.19,1.84-1.19,1.73,0,4.57,1.19,4.57,2.56,0,.32-.32.54-.58.9-.11.18-.18.54-.22,1.04-.11,1.48-.14,4.5-.22,7.24,4.21.54,8.06,1.55,10.19,2.74,2.02,1.19,3.02,2.02,3.02,3.31,0,.79-.58,1.3-1.19,1.3-.94,0-1.91-.86-2.81-1.69-1.51-1.44-5.11-3.46-9.21-4.61-.04,2.59-.04,5.29-.04,7.49,0,1.19.14,6.98.14,8.28,0,1.58-.65,2.2-1.4,2.2-1.37,0-1.84-3.2-2.12-4.43.25-.36.58-.9.65-1.55.29-1.69.43-4.07.43-11.91,0-3.24-.04-6.48-.14-8.13-.04-1.76-.32-3.49-2.88-3.49l-.04-.04Z"/><path d="m240.62,87.48c2.38,0,3.78-.29,4.36-.29,1.73,0,3.96.61,3.96,1.51,0,.61-.65.94-2.05.94-.65,0-1.4,0-2.12-.04-1.55-.07-4.36-.07-6.55-.07-4.25,0-13.82,0-15.59.65-.47.18-.94.54-1.55.54-1.3,0-3.71-2.23-3.71-3.67,0-.86.22-1.37.68-1.8l.25-.04c.4,1.91,1.8,2.27,5.47,2.27h16.85Z"/><path d="m270.15,80.96c1.69-.07,4.79-.18,6.12-.29,1.01-.07,1.4-.14,1.73-.4.36-.29.76-.79,1.01-.79.79,0,3.2,2.02,3.2,2.52,0,.43-.47.58-.9.79-.29.07-.65.32-.76.79-1.84,8.17-5.8,16.59-17.93,20.41l-.4-.76c10.33-4.1,14.58-12.99,15.69-20.66.04-.14.04-.25.04-.36,0-.22-.11-.29-.47-.29-2.95.07-10.83.65-12.89.94-1.37.18-1.87.29-2.77.29-.58,0-.97-.11-1.37-.29.04,2.12.36,5.9.47,7.02.04.36.07.65.07.94,0,.86-.25,1.37-1.08,1.37-.94,0-1.58-1.37-1.8-3.28.32-.32.4-.79.4-1.51,0-1.19-.22-3.56-.47-4.9-.18-1.15-.76-2.09-1.94-2.48l.04-.25c.36-.18.97-.25,1.48-.25.83,0,2.27.9,2.63,1.76.36.07.72.11,1.04.11.68,0,3.6-.07,6.62-.29-.04-.97-.07-2.74-.14-4.14-.07-1.22-.29-1.55-.97-1.8-.43-.22-.94-.29-1.62-.22l-.11-.18c.4-.54.86-1.04,1.98-1.04,1.48,0,4.03.79,4.03,1.87,0,.4-.36.61-.54.94-.14.22-.25.54-.25,1.01l-.14,3.42Zm7.09-8.5c2.63.97,5,3.02,5,4.79,0,.9-.58,1.26-1.08,1.26s-.76-.18-1.08-1.01c-.43-1.22-1.44-3.02-3.38-4.28l.54-.76Zm4.93-1.51c2.84,1.04,5,3.35,5,4.82,0,.9-.58,1.26-1.04,1.26-.5,0-.79-.18-1.12-1.04-.43-1.19-1.44-3.17-3.38-4.43l.54-.61Z"/><path d="m294.41,85.25c.4,1.12,1.62,1.76,2.88,1.76,1.55,0,6.08-.29,9.25-.54-.14-5.94-.18-6.52-2.59-6.52.07-.54.79-1.15,1.4-1.15,1.76,0,3.82,1.04,3.82,2.05,0,.83-.68.4-.72,2.56v2.88c1.51-.07,4.64-.36,5.47-1.3,1.98.32,3.46,1.01,3.46,1.91,0,.5-.43.65-.94.65-.22,0-3.24-.25-3.85-.25-1.01,0-2.45.07-4.1.18.07,3.49.11,7.99.14,9.43.04.86.07,1.8.18,2.88.04.54.25,1.15.25,1.76,0,1.3-1.19,3.2-2.2,3.2-.32,0-.61-.4-.79-.83-.14-.36-.47-.79-.94-1.15-.65-.5-3.06-2.12-4.18-2.81l.36-.58c.5.25,4.07,1.84,4.97,1.84.4,0,.43-.18.47-.76v-2.38c0-1.33,0-4.82-.07-8.24-3.56,4.64-8.17,8.24-13.57,10.8l-.58-.72c4.28-2.38,10.22-7.74,12.85-12.27-2.05.25-4.72.54-6.77.9-1.22.22-1.48.72-2.05.72-1.12,0-2.74-1.76-2.74-2.92,0-.5.04-.86.54-1.15l.04.04Z"/></g></svg>