<?xml version="1.0" encoding="UTF-8"?><svg id="a" xmlns="http://www.w3.org/2000/svg" viewBox="0 0 400 121.53"><path d="m11.86,36.58v.65H1.65v-.65h.84c.98,0,1.7-.29,2.14-.86.28-.38.42-1.28.42-2.71v-15.4c0-1.21-.08-2-.23-2.39-.12-.29-.36-.54-.72-.76-.52-.28-1.05-.42-1.62-.42h-.84v-.65h10.21v.65h-.86c-.97,0-1.68.29-2.13.86-.29.38-.44,1.28-.44,2.71v15.4c0,1.21.08,2,.23,2.39.12.29.36.54.74.76.5.28,1.04.42,1.6.42h.86Z"/><path d="m18.56,24.07c1.89-2.27,3.69-3.41,5.4-3.41.88,0,1.63.22,2.27.66s1.14,1.16,1.51,2.17c.26.7.39,1.78.39,3.23v6.87c0,1.02.08,1.71.25,2.07.13.29.34.52.62.69s.82.25,1.59.25v.63h-7.96v-.63h.33c.75,0,1.27-.11,1.57-.34s.51-.57.62-1.01c.05-.18.07-.73.07-1.65v-6.59c0-1.46-.19-2.53-.57-3.19s-1.02-.99-1.92-.99c-1.39,0-2.78.76-4.17,2.29v8.49c0,1.09.06,1.76.19,2.02.16.34.39.59.68.75s.87.24,1.75.24v.63h-7.96v-.63h.35c.82,0,1.37-.21,1.66-.62s.43-1.21.43-2.38v-5.98c0-1.93-.04-3.11-.13-3.53s-.22-.71-.4-.86-.42-.23-.73-.23c-.33,0-.72.09-1.18.26l-.26-.63,4.85-1.97h.76v3.41Z"/><path d="m35.78,33.8c.55,0,1.02.19,1.4.58s.57.85.57,1.39-.19,1-.58,1.38-.85.57-1.39.57-1-.19-1.38-.57-.57-.84-.57-1.38.19-1,.57-1.39.84-.58,1.38-.58Zm.04-13.17c.54,0,1,.19,1.38.57s.57.84.57,1.38-.19,1-.57,1.38-.84.57-1.38.57-1-.19-1.38-.57-.57-.84-.57-1.38.19-1,.57-1.38.84-.57,1.38-.57Z"/><path d="m83.35,27.51c-.25.25-.79.54-1.76.68v7.13c2.52,2.95,5.29,3.38,11.48,3.38,4.25,0,9.93,0,14.25-.14v.5c-1.04.22-1.66.86-1.8,1.98h-12.42c-6.59,0-9.5-.79-12.06-5.04-1.51,1.62-3.92,3.85-5.44,5.08.07.4-.07.68-.43.86l-1.73-3.06c1.48-.61,3.78-1.8,5.9-2.99v-8.24h-5.54l-.18-.9h5.18l1.4-1.84,3.13,2.59Zm-8.71-10.51c4.93.54,6.55,2.59,6.55,4,0,.79-.5,1.33-1.19,1.33-.25,0-.54-.07-.83-.25-.79-1.66-2.92-3.67-4.72-4.68l.18-.4Zm1.58-7.6c4.64.9,6.16,2.95,6.16,4.32,0,.83-.5,1.4-1.19,1.4-.29,0-.58-.11-.9-.32-.65-1.73-2.59-3.89-4.28-5.04l.22-.36Zm7.23,11.34l-.22-.86h10.08v-11.27l3.85.32c-.07.5-.4.79-1.51.9v10.04h6.05l1.73-2.27,3.28,2.38c-.29.54-.68.76-1.69.76h-9.36v15.48c0,.07-.36.9-2.34.9v-16.38h-9.86Z"/><path d="m122.66,25.32c0-2.02,1.66-3.67,3.67-3.67s3.67,1.66,3.67,3.67-1.66,3.67-3.67,3.67-3.67-1.73-3.67-3.67Z"/><path d="m175.47,9.51l3.1,2.3c-.25.29-.86.58-1.58.72v28.18c-.04.11-.65.9-2.3.9v-1.98h-24.73v1.4s-.18.94-2.27.94V9.84l2.52,1.19h24.12l1.15-1.51Zm-25.52,29.26h24.73V11.89h-24.73v26.89Zm1.04-6.3c2.16-.29,6.95-1.15,11.81-2.12l.14.58c-2.2.83-5.36,1.94-9.65,3.31-.18.43-.43.68-.76.79l-1.55-2.56Zm22.68-14.65c-.29.58-.72.79-1.66.79h-6.95c.22,3.1.68,6.16,1.58,8.82,1.15-2.02,2.12-4.25,2.88-6.73l3.17,1.19c-.18.43-.5.61-1.4.54-1.01,2.74-2.3,5.11-3.78,7.16,1.3,2.95,3.13,4.5,3.31,4.5.4,0,1.26-2.7,1.58-3.89l.4.07-.54,4.57c.65.86.94,1.4.94,1.76,0,.43-.47.79-1.01.79-1.94,0-4.61-3.1-6.08-6.05-2.3,2.63-4.97,4.57-7.88,5.87l-.4-.5c2.74-1.55,5.33-3.96,7.49-7.13-1.3-3.2-2.02-6.91-2.34-10.98h-11.55l-.25-.86h11.73c-.11-1.66-.18-3.35-.18-5.08l3.49.4c-.04.43-.32.61-1.3.72,0,1.3,0,2.63.07,3.96h4.57l1.37-1.76c-.11.04-.18.04-.29.04-.25,0-.5-.07-.76-.25-.47-.86-1.51-1.87-2.56-2.41l.18-.4c3.06.07,4.07,1.19,4.07,2.05,0,.43-.25.79-.65.94l2.74,1.87Zm-12.63,10.65c-.04.25-1.01.76-1.66.76h-.29v-1.4h-4.28v1.51s-.32.65-1.91.65v-9.14l2.09.97h3.82l.86-1.12,2.56,1.76c-.18.25-.65.5-1.19.58v5.44Zm-6.23-1.51h4.28v-4.28h-4.28v4.28Z"/><path d="m194.66,25.32c0-2.02,1.66-3.67,3.67-3.67s3.67,1.66,3.67,3.67-1.66,3.67-3.67,3.67-3.67-1.73-3.67-3.67Z"/><path d="m224.9,18.04v5.08c3.49,1.55,4.61,3.42,4.61,4.68,0,.83-.5,1.4-1.15,1.4-.29,0-.65-.14-.97-.47-.29-1.48-1.4-3.53-2.48-4.97v17.31c0,.14-.32.83-2.27.83v-16.77c-1.15,3.06-2.74,5.87-4.75,8.35l-.54-.5c2.52-4.25,4.03-9.57,4.82-14.94h-4.18l-.25-.86h4.9v-8.49l3.82.32c-.04.54-.36.79-1.55.9v7.27h.97l1.48-2.02,2.88,2.12c-.32.54-.72.76-1.69.76h-3.64Zm3.1,2.23c4.1-2.63,8.13-7.59,9.61-11.63l4.03.86c-.07.36-.43.58-1.3.61,2.52,3.31,6.77,6.26,11.16,7.88l-.04.47c-.97.32-1.51,1.15-1.73,2.09-4.1-2.38-7.88-5.94-9.93-10.04-2.3,4.1-6.7,7.99-11.48,10.33l-.32-.58Zm17.42.32l.94-1.22,2.74,1.94c-.18.22-.65.47-1.19.58v6.52c0,.07-.68.72-2.2.72v-1.04h-12.6v.43c0,.22-.72.79-1.84.79h-.32v-9.86l2.59,1.15h11.88Zm-.9,9.97l1.04-1.33,2.95,2.09c-.22.29-.79.54-1.44.68v8.85c0,.07-.65.72-2.23.72v-1.51h-10.8v1.15c0,.14-.76.76-1.87.76h-.32v-12.53l2.63,1.12h10.04Zm-11.41-9.11v5.76h5.4v-5.76h-5.4Zm11.73,9.97h-10.8v3.38h10.8v-3.38Zm-10.8,7.77h10.8v-3.53h-10.8v3.53Zm.58-16.77c1.94,1.01,2.59,2.16,2.59,2.99,0,.65-.4,1.12-.9,1.12-.22,0-.47-.11-.72-.36-.07-1.08-.68-2.63-1.33-3.49l.36-.25Zm7.13-6.69l2.63,1.73c-.29.5-.68.72-1.58.72h-7.85l-.22-.86h5.69l1.33-1.58Zm-1.22,11.48h5.18v-5.76h-5.18v5.76Zm1.12-.83c.43-1.19.97-3.02,1.15-4l2.34.79c-.04.22-.25.36-.72.36-.54.79-1.48,2.12-2.3,3.06l-.47-.22Z"/><path d="m13.66,75.85c3.09,0,5.77,1.17,8.04,3.52s3.4,5.28,3.4,8.8-1.14,6.63-3.43,9.02-5.05,3.59-8.3,3.59-6.04-1.17-8.27-3.5-3.35-5.35-3.35-9.05,1.29-6.87,3.87-9.26c2.24-2.07,4.92-3.11,8.03-3.11Zm-.33,1.28c-2.13,0-3.84.79-5.13,2.37-1.61,1.97-2.41,4.85-2.41,8.65s.83,6.88,2.5,8.98c1.28,1.59,2.96,2.39,5.06,2.39,2.24,0,4.09-.87,5.55-2.62s2.19-4.5,2.19-8.26c0-4.08-.8-7.12-2.41-9.12-1.29-1.59-3.07-2.39-5.34-2.39Z"/><path d="m41.73,84.13v9.76c0,1.86.04,3,.13,3.42s.23.71.42.87.42.25.68.25c.36,0,.77-.1,1.23-.3l.25.62-4.82,1.99h-.79v-3.41c-1.38,1.5-2.44,2.44-3.16,2.83s-1.49.58-2.3.58c-.9,0-1.68-.26-2.35-.78s-1.12-1.19-1.38-2.01-.39-1.98-.39-3.48v-7.19c0-.76-.08-1.29-.25-1.58s-.41-.52-.73-.68-.91-.23-1.75-.22v-.65h5.64v10.78c0,1.5.26,2.48.78,2.95s1.15.7,1.89.7c.5,0,1.08-.16,1.71-.47s1.4-.92,2.28-1.81v-9.12c0-.91-.17-1.53-.5-1.85s-1.03-.5-2.08-.52v-.65h5.48Z"/><path d="m50.29,78.84v5.29h3.76v1.23h-3.76v10.44c0,1.04.15,1.75.45,2.11s.68.54,1.15.54c.39,0,.76-.12,1.12-.36s.64-.59.84-1.06h.69c-.41,1.15-.99,2.01-1.74,2.59s-1.52.87-2.32.87c-.54,0-1.07-.15-1.58-.45s-.9-.73-1.14-1.28-.37-1.42-.37-2.58v-10.83h-2.55v-.58c.64-.26,1.3-.69,1.98-1.31s1.27-1.34,1.8-2.19c.27-.45.64-1.26,1.12-2.44h.54Z"/><path d="m59.54,96.8c.55,0,1.02.19,1.4.58s.57.85.57,1.39-.19,1-.58,1.38-.85.57-1.39.57-1-.19-1.38-.57-.57-.84-.57-1.38.19-1,.57-1.39.84-.58,1.38-.58Zm.04-13.17c.54,0,1,.19,1.38.57s.57.84.57,1.38-.19,1-.57,1.38-.84.57-1.38.57-1-.19-1.38-.57-.57-.84-.57-1.38.19-1,.57-1.38.84-.57,1.38-.57Z"/><path d="m83.21,87.92c-.22.25-.76.54-1.76.68v9.83c2.52,2.88,5.29,3.31,11.52,3.31,4.25,0,9.97,0,14.33-.14v.5c-1.04.22-1.66.86-1.8,2.02h-12.49c-6.59,0-9.5-.86-12.06-5.04-1.51,1.66-3.89,3.82-5.36,5,.07.47-.11.72-.43.9l-1.69-3.06c1.44-.61,3.67-1.76,5.76-2.92v-10.91h-5.44l-.18-.94h5.08l1.44-1.84,3.1,2.59Zm-8.35-15.15c5.15,1.58,6.73,4.03,6.73,5.65,0,.97-.54,1.62-1.3,1.62-.32,0-.68-.14-1.04-.43-.58-2.2-2.74-4.97-4.64-6.52l.25-.32Zm8.21,11.16l-.25-.86h10.44v-11.37l3.92.32c-.07.5-.43.79-1.55.9v10.15h6.12l1.8-2.27,3.38,2.38c-.29.54-.72.76-1.73.76h-9.57v15.48c0,.11-.29.9-2.38.9v-16.38h-10.19Z"/><path d="m122.66,88.32c0-2.02,1.66-3.67,3.67-3.67s3.67,1.66,3.67,3.67-1.66,3.67-3.67,3.67-3.67-1.73-3.67-3.67Z"/><path d="m175.15,72.87l3.13,2.34c-.25.29-.86.58-1.58.72v27.79c0,.11-.68.94-2.34.94v-2.41h-24.08v1.76c0,.07-.14.97-2.3.97v-31.78l2.56,1.22h23.47l1.15-1.55Zm-24.87,28.51h24.08v-26.1h-24.08v26.1Zm20.05-7.13l2.88,2.05c-.29.54-.68.76-1.66.76h-19.62l-.22-.86h9.32v-8.1h-6.91l-.22-.86h7.13v-6.66h-8.21l-.25-.86h15.12l1.51-1.94,2.88,2.05c-.25.54-.68.76-1.66.76h-7.16v6.66h3.46l1.44-1.87,2.77,1.98c-.29.54-.68.76-1.66.76h-6.01v8.1h5.54l1.51-1.94Zm-4.79-5.25c3.17,1.33,4.14,2.99,4.14,4.14,0,.79-.47,1.33-1.04,1.33-.29,0-.58-.14-.86-.43-.25-1.51-1.44-3.6-2.59-4.75l.36-.29Z"/><path d="m194.66,88.32c0-2.02,1.66-3.67,3.67-3.67s3.67,1.66,3.67,3.67-1.66,3.67-3.67,3.67-3.67-1.73-3.67-3.67Z"/><path d="m245.78,91.02l1.58-2.12,3.02,2.2c-.32.54-.72.79-1.73.79h-9.68l.9.25c-.14.4-.5.58-1.37.5-1.08,2.41-2.84,5.58-4.64,8.21,3.2-.14,7.27-.4,11.48-.65-.97-1.33-2.09-2.59-3.13-3.49l.29-.32c5.62,2.23,7.31,5.08,7.31,6.8,0,.97-.5,1.62-1.19,1.62-.32,0-.68-.14-1.04-.47-.29-1.04-.9-2.23-1.69-3.38-3.46.68-8.21,1.55-14.72,2.59-.22.43-.54.65-.9.76l-1.62-3.28c1.01,0,2.45-.07,4.14-.14,1.12-2.74,2.23-6.16,2.95-9h-5.58l-.04-.11c-.18.29-.5.47-.83.47s-.65-.14-.94-.43c-.43-1.51-1.69-3.6-2.84-5v17.28c0,.18-.32.86-2.3.86v-16.95c-1.33,3.2-3.1,6.12-5.4,8.68l-.54-.54c2.84-4.21,4.57-9.57,5.51-15.05h-4.93l-.22-.86h5.58v-8.49l3.85.32c-.04.54-.4.79-1.55.9v7.27h1.19l1.58-2.09,2.88,2.2c-.25.54-.68.76-1.66.76h-4v5c3.85,1.66,4.97,3.67,4.86,4.93h15.41Zm-17.53-6.41c4.1-2.99,8.1-8.67,9.58-13.1l4.03.9c-.07.36-.4.54-1.26.61,2.48,3.78,6.7,7.31,11.16,9.29l-.07.5c-.94.29-1.51,1.12-1.76,2.05-4.14-2.77-7.88-6.84-9.9-11.45-2.27,4.57-6.62,9.04-11.48,11.73l-.29-.54Zm15.87-1.98l2.99,1.98c-.25.54-.68.76-1.66.76h-12.89l-.25-.86h10.22l1.58-1.87Z"/></svg>