<?xml version="1.0" encoding="UTF-8"?><svg id="a" xmlns="http://www.w3.org/2000/svg" viewBox="0 0 400 121.08"><path d="m11.8,37.15v.65H1.59v-.65h.84c.98,0,1.7-.29,2.14-.86.28-.38.42-1.28.42-2.71v-15.4c0-1.21-.08-2-.23-2.39-.12-.29-.36-.54-.72-.76-.52-.28-1.05-.42-1.62-.42h-.84v-.65h10.21v.65h-.86c-.97,0-1.68.29-2.13.86-.29.38-.44,1.28-.44,2.71v15.4c0,1.21.08,2,.23,2.39.12.29.36.54.74.76.5.28,1.04.42,1.6.42h.86Z"/><path d="m18.5,24.63c1.89-2.27,3.69-3.41,5.4-3.41.88,0,1.63.22,2.27.66s1.14,1.16,1.51,2.17c.26.7.39,1.78.39,3.23v6.87c0,1.02.08,1.71.25,2.07.13.29.34.52.62.69s.82.25,1.59.25v.63h-7.96v-.63h.33c.75,0,1.27-.11,1.57-.34s.51-.57.62-1.01c.05-.18.07-.73.07-1.65v-6.59c0-1.46-.19-2.53-.57-3.19s-1.02-.99-1.92-.99c-1.39,0-2.78.76-4.17,2.29v8.49c0,1.09.06,1.76.19,2.02.16.34.39.59.68.75s.87.24,1.75.24v.63h-7.96v-.63h.35c.82,0,1.37-.21,1.66-.62s.43-1.21.43-2.38v-5.98c0-1.93-.04-3.11-.13-3.53s-.22-.71-.4-.86-.42-.23-.73-.23c-.33,0-.72.09-1.18.26l-.26-.63,4.85-1.97h.76v3.41Z"/><path d="m35.73,34.37c.55,0,1.02.19,1.4.58s.57.85.57,1.39-.19,1-.58,1.38-.85.57-1.39.57-1-.19-1.38-.57-.57-.84-.57-1.38.19-1,.57-1.39.84-.58,1.38-.58Zm.04-13.17c.54,0,1,.19,1.38.57s.57.84.57,1.38-.19,1-.57,1.38-.84.57-1.38.57-1-.19-1.38-.57-.57-.84-.57-1.38.19-1,.57-1.38.84-.57,1.38-.57Z"/><path d="m86.89,30.24l-1.33,9.32h-1.73l1.33-9.32h-4.54l-1.33,9.32h-1.73l1.33-9.32h-4.61l.18-1.44h4.61l.72-4.97h-4.61l.18-1.44h4.61l1.3-8.93h1.73l-1.3,8.93h4.57l1.26-8.93h1.69l-1.22,8.93h4.54l-.22,1.44h-4.54l-.72,4.97h4.57l-.18,1.44h-4.57Zm-1.55-1.44l.72-4.97h-4.54l-.72,4.97h4.54Z"/><path d="m105.97,14.22c3.64,0,6.59,2.27,6.59,4.43,0,.94-.4,1.51-1.08,1.51-.76,0-1.22-.47-1.62-1.66-.79-2.16-2.45-2.99-3.89-2.99v9.47c2.92,1.37,7.13,3.31,7.13,7.81s-4.14,6.33-7.13,6.41v2.99h-1.44v-2.99c-4.25,0-7.02-2.56-7.02-4.72,0-1.01.4-1.55,1.15-1.55.65,0,1.04.5,1.26,1.08,1.01,2.63,2.38,3.82,4.61,3.89v-10.69c-.54-.36-1.26-.72-1.98-1.12-1.76-1.04-4.5-2.81-4.5-6.44s3.42-5.44,6.48-5.44v-2.45h1.44v2.45Zm-1.44,1.33c-1.4,0-4.14.9-4.14,3.64,0,2.3,1.58,3.53,4.14,5.08v-8.71Zm1.44,22.35c2.84-.25,4.54-2.23,4.54-4.5,0-2.45-1.51-3.92-4.54-5.44v9.93Z"/><path d="m117.5,19.94c0-3.1.97-6.88,5.4-6.88,3.42,0,5.36,2.23,5.36,6.84,0,6.23-3.71,6.88-5.4,6.88-1.48,0-5.36-.32-5.36-6.84Zm3.38-4.93c-.76.86-1.15,2.3-1.15,4.9s.32,5.79,3.13,5.79,3.1-3.56,3.1-5.79-.18-5.8-3.1-5.8c-.54,0-1.3.11-1.98.9Zm17.1-1.94l-15.51,26.92h-1.69l15.51-26.92h1.69Zm-7.38,20.12c0-3.64,1.22-6.88,5.36-6.88,3.56,0,5.36,2.45,5.36,6.8,0,4.9-2.23,6.88-5.36,6.88-2.7,0-5.36-1.37-5.36-6.8Zm3.35-4.93c-.76.86-1.15,2.3-1.15,4.9s.4,5.8,3.17,5.8,3.1-3.24,3.1-5.8c0-2.16-.22-5.8-3.13-5.8-.43,0-1.19,0-1.98.9Z"/><path d="m143.7,31.71c.36-2.09,1.91-3.67,4.32-3.67.79,0,1.8.14,3.06.65l2.3,1.01c1.08.47,1.8.65,2.63.65,2.34,0,2.88-1.91,2.92-2.05l1.3.14c-.4,2.09-1.94,3.64-4.36,3.64-.86,0-2.05-.22-3.06-.65l-2.41-1.08c-.94-.36-1.66-.58-2.52-.58-2.27,0-2.84,1.8-2.92,2.05l-1.26-.11Z"/><path d="m171.17,27.79l-5.72-10.62c-1.04-2.05-1.51-2.48-2.99-2.48v-1.15h7.74v1.15c-1.4,0-2.05.14-2.05.79,0,.36.18.83.54,1.48l4.64,9.11h.11l4.64-8.96c.4-.76.61-1.3.61-1.66,0-.61-.58-.76-1.87-.76v-1.15h5.83v1.15c-1.44,0-1.91.54-2.88,2.41l-5.65,10.73v.61h6.91v1.26h-6.91v2.52h6.91v1.3h-6.91v2.23c0,2.41.36,2.66,3.28,2.66v1.15h-9.5v-1.15c2.95,0,3.28-.25,3.28-2.7v-2.2h-6.98v-1.3h6.98v-2.52h-6.98v-1.26h6.98v-.65Z"/><path d="m13.6,76.42c3.09,0,5.77,1.17,8.04,3.52s3.4,5.28,3.4,8.8-1.14,6.63-3.43,9.02-5.05,3.59-8.3,3.59-6.04-1.17-8.27-3.5-3.35-5.35-3.35-9.05,1.29-6.87,3.87-9.26c2.24-2.07,4.92-3.11,8.03-3.11Zm-.33,1.28c-2.13,0-3.84.79-5.13,2.37-1.61,1.97-2.41,4.85-2.41,8.65s.83,6.88,2.5,8.98c1.28,1.59,2.96,2.39,5.06,2.39,2.24,0,4.09-.87,5.55-2.62s2.19-4.5,2.19-8.26c0-4.08-.8-7.12-2.41-9.12-1.29-1.59-3.07-2.39-5.34-2.39Z"/><path d="m41.67,84.7v9.76c0,1.86.04,3,.13,3.42s.23.71.42.87.42.25.68.25c.36,0,.77-.1,1.23-.3l.25.62-4.82,1.99h-.79v-3.41c-1.38,1.5-2.44,2.44-3.16,2.83s-1.49.58-2.3.58c-.9,0-1.68-.26-2.35-.78s-1.12-1.19-1.38-2.01-.39-1.98-.39-3.48v-7.19c0-.76-.08-1.29-.25-1.58s-.41-.52-.73-.68-.91-.23-1.75-.22v-.65h5.64v10.78c0,1.5.26,2.48.78,2.95s1.15.7,1.89.7c.5,0,1.08-.16,1.71-.47s1.4-.92,2.28-1.81v-9.12c0-.91-.17-1.53-.5-1.85s-1.03-.5-2.08-.52v-.65h5.48Z"/><path d="m50.23,79.41v5.29h3.76v1.23h-3.76v10.44c0,1.04.15,1.75.45,2.11s.68.54,1.15.54c.39,0,.76-.12,1.12-.36s.64-.59.84-1.06h.69c-.41,1.15-.99,2.01-1.74,2.59s-1.52.87-2.32.87c-.54,0-1.07-.15-1.58-.45s-.9-.73-1.14-1.28-.37-1.42-.37-2.58v-10.83h-2.55v-.58c.64-.26,1.3-.69,1.98-1.31s1.27-1.34,1.8-2.19c.27-.45.64-1.26,1.12-2.44h.54Z"/><path d="m59.48,97.37c.55,0,1.02.19,1.4.58s.57.85.57,1.39-.19,1-.58,1.38-.85.57-1.39.57-1-.19-1.38-.57-.57-.84-.57-1.38.19-1,.57-1.39.84-.58,1.38-.58Zm.04-13.17c.54,0,1,.19,1.38.57s.57.84.57,1.38-.19,1-.57,1.38-.84.57-1.38.57-1-.19-1.38-.57-.57-.84-.57-1.38.19-1,.57-1.38.84-.57,1.38-.57Z"/><path d="m93.12,102.67h-1.37l1.08-7.63h-6.84l-1.08,7.63h-1.4l1.12-7.63h-5.22l.32-2.34h5.18l.97-6.66h-5.22l.32-2.34h5.22l1.08-7.27h1.37l-1.04,7.27h6.8l1.08-7.27h1.37l-1.04,7.27h5.26l-.32,2.34h-5.29l-.94,6.66h5.29l-.32,2.34h-5.29l-1.08,7.63Zm.97-16.63h-6.84l-.94,6.66h6.84l.94-6.66Z"/><path d="m126.85,105.22h-1.37v-2.99c-5.72-.14-8.35-3.2-8.35-4.9,0-.83.36-1.37,1.15-1.37.61,0,1.08.54,1.33,1.04.94,1.62,2.3,3.92,5.87,3.92v-10.87c-4.57-1.73-7.7-3.6-7.7-7.31s4.07-5.54,7.7-5.54v-2.45h1.37v2.45c4.68,0,7.85,2.48,7.85,4.57,0,.83-.4,1.33-1.04,1.33-.83,0-1.26-.43-1.76-1.58-1.26-2.74-4.03-3.02-5.04-3.02v9.25c3.92,1.48,8.57,3.38,8.57,7.85,0,4.82-5.22,6.59-8.57,6.62v2.99Zm-1.37-26.71c-1.62,0-5.29.94-5.29,3.74,0,2.52,1.8,3.64,5.29,5v-8.75Zm1.37,22.43c3.24-.07,5.98-2.05,5.98-4.72s-2.02-4.1-5.98-5.58v10.29Z"/><path d="m149.36,82.94c0-3.82,1.66-6.88,5.9-6.88,3.49,0,5.9,2.12,5.9,6.84,0,4.46-2.27,6.88-5.94,6.88-1.3,0-5.87-.25-5.87-6.84Zm2.27,0c0,5.11,2.27,5.8,3.67,5.8,1.69,0,3.6-1.12,3.6-5.8s-1.91-5.83-3.64-5.83c-2.05,0-3.64,1.58-3.64,5.83Zm3.02,20.05h-1.73l17.49-26.92h1.69l-17.46,26.92Zm9.32-6.84c0-3.2,1.22-6.88,5.94-6.88,3.17,0,5.9,1.8,5.9,6.84,0,4.64-2.48,6.88-5.94,6.88-1.98,0-5.9-.79-5.9-6.84Zm2.3,0c0,4.21,1.48,5.8,3.64,5.8,1.66,0,3.6-1.15,3.6-5.8s-1.87-5.8-3.6-5.8c-3.13,0-3.64,3.24-3.64,5.8Z"/><path d="m214.48,87.23c-2.2,3.24-5.58,5.11-9,5.11-2.88,0-5.04-.86-7.74-2.52-2.84-1.73-4.72-2.56-7.34-2.56-3.28,0-5.76,1.55-7.77,3.67l-.54-.47c2.2-3.24,5.58-5.11,9-5.11,2.88,0,5.04.86,7.74,2.52,2.84,1.73,4.72,2.56,7.34,2.56,3.28,0,5.76-1.55,7.77-3.67l.54.47Z"/><path d="m226.94,80.1c-1.08-2.02-1.48-2.45-3.02-2.45v-1.12h7.49v1.12c-1.44,0-2.09.14-2.09.83,0,.32.18.79.5,1.44l4.93,9.32h.11l4.97-9.21c.43-.76.65-1.3.65-1.66,0-.58-.58-.72-1.91-.72v-1.12h5.87v1.12c-1.51,0-2.02.58-2.95,2.41l-5.9,10.76v.4h7.09v1.3h-7.09v2.66h7.09v1.33h-7.09v2.27c0,2.45.32,2.7,3.28,2.7v1.08h-9.29v-1.08c2.99,0,3.35-.25,3.35-2.7v-2.27h-7.23v-1.33h7.23v-2.66h-7.23v-1.3h7.23v-.43l-5.98-10.69Z"/></svg>