<svg height="18.1875" viewBox="0 0 24 18.1875" width="24" xmlns="http://www.w3.org/2000/svg">
<path d="M6.578125,-0.359375 C9.890625,-0.359375 12.078125,1.4375 12.078125,4.21875 C12.078125,6.453125 10.84375,7.984375 7.84375,9.390625 C10.4375,10.609375 11.359375,12.1875 11.359375,13.828125 C11.359375,16.125 9.671875,17.828125 6.75,17.828125 C4.03125,17.828125 1.875,16.15625 1.875,13.515625 C1.875,11.46875 2.90625,9.765625 5.375,8.5625 C2.734375,7.421875 1.375,5.953125 1.375,3.84375 C1.375,1.3125 3.21875,-0.359375 6.578125,-0.359375 Z M7.296875,9.640625 C4.421875,10.921875 3.640625,12.390625 3.640625,13.984375 C3.640625,15.90625 5.09375,17.0625 6.71875,17.0625 C8.640625,17.0625 9.671875,15.59375 9.671875,13.875 C9.671875,12.046875 8.96875,10.796875 7.296875,9.640625 Z M5.953125,8.296875 C9.21875,6.859375 10.203125,5.453125 10.203125,3.703125 C10.203125,1.703125 8.90625,0.390625 6.671875,0.390625 C4.4375,0.390625 3.125,1.78125 3.125,4.0625 C3.125,5.875 3.9375,7.078125 5.953125,8.296875 Z" transform="translate(5.2734375, 17.828125) scale(1, -1)"/>
</svg>