<svg height="17.828125" viewBox="0 0 24 17.828125" width="24" xmlns="http://www.w3.org/2000/svg">
<path d="M5.90625,-0.359375 C9.640625,-0.359375 12.046875,1.875 12.046875,5.28125 C12.046875,8.6875 9.84375,10.515625 6.40625,10.515625 C5.328125,10.515625 4.34375,10.375 3.390625,9.953125 L3.765625,15.796875 L11.59375,15.796875 L11.59375,17.46875 L3,17.46875 L2.453125,9.21875 L3.046875,8.96875 C3.890625,9.359375 4.828125,9.546875 5.859375,9.546875 C8.328125,9.546875 9.9375,8.15625 9.9375,5.1875 C9.9375,2.109375 8.375,0.390625 5.609375,0.390625 C4.84375,0.390625 4.296875,0.5 3.75,0.75 L3.171875,2.59375 C2.96875,3.484375 2.65625,3.765625 2.0625,3.765625 C1.609375,3.765625 1.21875,3.53125 1.0625,3.078125 C1.484375,0.859375 3.3125,-0.359375 5.90625,-0.359375 Z" transform="translate(5.4453125, 17.46875) scale(1, -1)"/>
</svg>