<svg height="20.875" viewBox="0 0 24 20.875" width="24" xmlns="http://www.w3.org/2000/svg">
<path d="M1.3125,16.75 L4.125,16.53125 C4.21875,9.59375 4.21875,6.84375 4.21875,3.671875 C4.21875,0.5 3.859375,-1.3125 3.046875,-2.5 L2.6875,-2.109375 C2.015625,-1.53125 1.609375,-1.375 0.953125,-1.375 C0.28125,-1.375 -0.234375,-1.625 -0.359375,-2.296875 C-0.265625,-3.09375 0.546875,-3.40625 1.625,-3.40625 C2.8125,-3.40625 3.90625,-2.953125 4.828125,-1.828125 C5.78125,-0.640625 6.234375,0.75 6.234375,4.3125 L6.234375,9.390625 C6.234375,11.828125 6.234375,14.234375 6.28125,16.5625 L8.78125,16.75 L8.78125,17.46875 L1.3125,17.46875 Z" transform="translate(7.7890625, 17.46875) scale(1, -1)"/>
</svg>