<svg height="24" viewBox="0 0 24 24" width="24" xmlns="http://www.w3.org/2000/svg">
<path d="M13.21875,13.15625 L14.234375,13.15625 L14.09375,17.46875 L1.265625,17.46875 L1.265625,16.75 L3.75,16.5625 C3.765625,14.1875 3.765625,11.78125 3.765625,9.390625 L3.765625,8.09375 C3.765625,5.65625 3.765625,3.28125 3.75,0.9375 L1.265625,0.71875 L1.265625,0 L8.65625,0 L8.65625,0.71875 L5.921875,0.953125 C5.90625,3.28125 5.90625,5.6875 5.90625,8.46875 L10.171875,8.46875 L10.515625,5.90625 L11.359375,5.90625 L11.359375,11.78125 L10.515625,11.78125 L10.171875,9.265625 L5.90625,9.265625 C5.90625,11.875 5.90625,14.296875 5.921875,16.625 L12.546875,16.625 Z" transform="translate(4.25, 17.46875) scale(1, -1)"/>
</svg>