<svg height="24" viewBox="0 0 24 24" width="24" xmlns="http://www.w3.org/2000/svg">
<path d="M17.46875,0 L22.171875,0 L22.171875,0.71875 L19.65625,0.9375 C19.625,3.28125 19.625,5.65625 19.625,8.09375 L19.625,9.390625 C19.625,11.78125 19.625,14.203125 19.65625,16.5625 L22.125,16.75 L22.125,17.46875 L17.421875,17.46875 L11.5625,2.8125 L5.59375,17.46875 L1.015625,17.46875 L1.015625,16.75 L3.4375,16.53125 L3.390625,0.984375 L0.984375,0.71875 L0.984375,0 L6.859375,0 L6.859375,0.71875 L4.3125,0.984375 L4.3125,9.28125 L4.203125,15.59375 L10.578125,0 L11.375,0 L17.59375,15.59375 L17.515625,7.796875 C17.515625,5.65625 17.515625,3.28125 17.5,0.9375 L15.046875,0.71875 L15.046875,0 Z" transform="translate(0.421875, 17.46875) scale(1, -1)"/>
</svg>