<svg height="24" viewBox="0 0 24 24" width="24" xmlns="http://www.w3.org/2000/svg">
<path d="M12.09375,16.75 L14.546875,16.5625 C14.609375,14.203125 14.609375,11.828125 14.609375,9.453125 L5.90625,9.453125 C5.90625,11.859375 5.90625,14.234375 5.921875,16.5625 L8.40625,16.75 L8.40625,17.46875 L1.265625,17.46875 L1.265625,16.75 L3.75,16.5625 C3.765625,14.1875 3.765625,11.78125 3.765625,9.390625 L3.765625,8.09375 C3.765625,5.65625 3.765625,3.28125 3.75,0.9375 L1.265625,0.71875 L1.265625,0 L8.40625,0 L8.40625,0.71875 L5.921875,0.9375 C5.90625,3.265625 5.90625,5.6875 5.90625,8.65625 L14.609375,8.65625 C14.609375,5.6875 14.609375,3.265625 14.546875,0.9375 L12.09375,0.71875 L12.09375,0 L19.21875,0 L19.21875,0.71875 L16.75,0.9375 C16.703125,3.28125 16.703125,5.6875 16.703125,8.09375 L16.703125,9.390625 C16.703125,11.8125 16.703125,14.203125 16.75,16.5625 L19.21875,16.75 L19.21875,17.46875 L12.09375,17.46875 Z" transform="translate(1.7578125, 17.46875) scale(1, -1)"/>
</svg>