<svg height="24" viewBox="0 0 24 24" width="24" xmlns="http://www.w3.org/2000/svg">
<path d="M13.75,0 L17.5625,0 L17.5625,0.71875 L15.5,0.90625 L9.90625,10.875 L14.640625,16.515625 L16.875,16.75 L16.875,17.46875 L10.921875,17.46875 L10.921875,16.75 L13.484375,16.484375 L5.828125,7.125 L5.828125,9.390625 C5.828125,11.8125 5.828125,14.203125 5.859375,16.5625 L8.40625,16.75 L8.40625,17.46875 L1.265625,17.46875 L1.265625,16.75 L3.75,16.5625 C3.765625,14.1875 3.765625,11.78125 3.765625,9.390625 L3.765625,8.09375 C3.765625,5.65625 3.765625,3.28125 3.75,0.9375 L1.265625,0.71875 L1.265625,0 L8.328125,0 L8.328125,0.71875 L5.859375,0.9375 L5.828125,5.96875 L8.59375,9.28125 L13.25,0.90625 L11.046875,0.71875 L11.046875,0 Z" transform="translate(2.5859375, 17.46875) scale(1, -1)"/>
</svg>