<svg height="24" viewBox="0 0 24 24" width="24" xmlns="http://www.w3.org/2000/svg">
<path d="M1.265625,16.75 L3.75,16.5625 C3.765625,14.1875 3.765625,11.765625 3.765625,9.234375 L3.765625,8.59375 C3.765625,5.734375 3.765625,3.28125 3.75,0.9375 L1.265625,0.71875 L1.265625,0 L8.109375,0 C13.703125,0 17.109375,3.359375 17.109375,8.734375 C17.109375,14.296875 13.84375,17.46875 8.453125,17.46875 L1.265625,17.46875 Z M5.921875,0.796875 C5.90625,3.21875 5.90625,5.6875 5.90625,8.59375 L5.90625,9.234375 C5.90625,11.828125 5.90625,14.28125 5.921875,16.6875 L8.15625,16.6875 C12.484375,16.6875 14.859375,13.921875 14.859375,8.734375 C14.859375,3.8125 12.484375,0.796875 7.890625,0.796875 Z" transform="translate(2.8125, 17.46875) scale(1, -1)"/>
</svg>