<svg height="18.265625" viewBox="0 0 24 18.265625" width="24" xmlns="http://www.w3.org/2000/svg">
<path d="M10.125,-0.390625 C12.078125,-0.390625 13.703125,0 15.3125,0.953125 L15.359375,4.78125 L14.28125,4.78125 L13.5625,1.171875 C12.546875,0.640625 11.5,0.4375 10.34375,0.4375 C6.484375,0.4375 3.625,3.359375 3.625,8.734375 C3.625,14.046875 6.484375,17.015625 10.4375,17.015625 C11.546875,17.015625 12.453125,16.828125 13.375,16.34375 L14.09375,12.703125 L15.171875,12.703125 L15.09375,16.53125 C13.5625,17.453125 12.09375,17.875 10.125,17.875 C5.109375,17.875 1.34375,14.328125 1.34375,8.6875 C1.34375,3.046875 4.96875,-0.390625 10.125,-0.390625 Z" transform="translate(3.6484375, 17.875) scale(1, -1)"/>
</svg>