<svg height="24" viewBox="0 0 24 24" width="24" xmlns="http://www.w3.org/2000/svg">
<path d="M10.171875,16.75 L12.640625,16.515625 L8.8125,10.125 L5.015625,16.53125 L7.5625,16.75 L7.5625,17.46875 L0.640625,17.46875 L0.640625,16.75 L2.6875,16.5625 L7.46875,8.515625 L2.609375,0.953125 L0.390625,0.71875 L0.390625,0 L6.21875,0 L6.21875,0.71875 L3.703125,0.984375 L7.890625,7.796875 L11.96875,0.9375 L9.453125,0.71875 L9.453125,0 L16.421875,0 L16.421875,0.71875 L14.28125,0.90625 L9.21875,9.484375 L13.703125,16.515625 L16.015625,16.75 L16.015625,17.46875 L10.171875,17.46875 Z" transform="translate(3.59375, 17.46875) scale(1, -1)"/>
</svg>