<svg height="23.171875" viewBox="0 0 24 23.171875" width="24" xmlns="http://www.w3.org/2000/svg">
<path d="M9.1875,0.4375 C5.546875,0.4375 3.625,4.203125 3.625,8.734375 C3.625,13.25 5.546875,17.015625 9.1875,17.015625 C12.859375,17.015625 14.765625,13.25 14.765625,8.734375 C14.765625,4.203125 12.859375,0.4375 9.1875,0.4375 Z M12.90625,-5.296875 C13.9375,-5.296875 15.078125,-5.0625 15.953125,-4.515625 L15.75,-3.984375 C15,-4.25 14.359375,-4.390625 13.53125,-4.390625 C11.421875,-4.390625 10.078125,-2.859375 10.078125,-0.34375 C13.9375,0.125 17.046875,3.4375 17.046875,8.734375 C17.046875,14.515625 13.46875,17.875 9.1875,17.875 C4.9375,17.875 1.34375,14.421875 1.34375,8.734375 C1.34375,3.453125 4.34375,0.21875 8.09375,-0.3125 C8.109375,-2.875 9.59375,-5.296875 12.90625,-5.296875 Z" transform="translate(2.8046875, 17.875) scale(1, -1)"/>
</svg>