<svg height="24" viewBox="0 0 24 24" width="24" xmlns="http://www.w3.org/2000/svg">
<path d="M0.53125,12.90625 L1.5625,12.90625 L2.25,16.625 L6.8125,16.625 C6.859375,14.234375 6.859375,11.8125 6.859375,9.390625 L6.859375,8.09375 C6.859375,5.65625 6.859375,3.28125 6.8125,0.9375 L4.078125,0.71875 L4.078125,0 L11.765625,0 L11.765625,0.71875 L9,0.9375 C8.96875,3.3125 8.96875,5.6875 8.96875,8.09375 L8.96875,9.390625 C8.96875,11.828125 8.96875,14.25 9,16.625 L13.578125,16.625 L14.28125,12.90625 L15.3125,12.90625 L15.09375,17.46875 L0.71875,17.46875 Z" transform="translate(4.078125, 17.46875) scale(1, -1)"/>
</svg>