<svg height="24" viewBox="0 0 24 24" width="24" xmlns="http://www.w3.org/2000/svg">
<path d="M1.265625,16.75 L3.75,16.5625 C3.765625,14.1875 3.765625,11.78125 3.765625,9.390625 L3.765625,8.09375 C3.765625,5.65625 3.765625,3.28125 3.75,0.9375 L1.265625,0.71875 L1.265625,0 L8.65625,0 L8.65625,0.71875 L5.921875,0.953125 L5.90625,7.15625 L7.34375,7.15625 C12.390625,7.15625 14.5,9.4375 14.5,12.390625 C14.5,15.53125 12.453125,17.46875 8.0625,17.46875 L1.265625,17.46875 Z M5.90625,7.9375 L5.90625,9.390625 C5.90625,11.859375 5.90625,14.28125 5.921875,16.6875 L7.890625,16.6875 C11.015625,16.6875 12.4375,15.1875 12.4375,12.40625 C12.4375,9.765625 10.9375,7.9375 7.296875,7.9375 Z" transform="translate(4.1171875, 17.46875) scale(1, -1)"/>
</svg>