<svg height="24" viewBox="0 0 24 24" width="24" xmlns="http://www.w3.org/2000/svg">
<path d="M18.671875,0 L22.578125,0 L22.578125,0.671875 L20.765625,0.859375 L20.71875,5.5 L20.71875,8.234375 C20.71875,11.453125 19.515625,12.75 17.296875,12.75 C15.640625,12.75 14.109375,11.921875 12.640625,10.15625 C12.234375,11.96875 11.1875,12.75 9.578125,12.75 C7.9375,12.75 6.453125,11.859375 4.984375,10.15625 L4.875,12.484375 L4.5625,12.671875 L0.859375,11.71875 L0.859375,11.109375 L2.96875,10.984375 C3.03125,9.796875 3.046875,8.59375 3.046875,6.953125 L3.046875,5.5 L3,0.859375 L1.015625,0.671875 L1.015625,0 L6.890625,0 L6.890625,0.671875 L5.0625,0.859375 L5.015625,5.5 L5.015625,9.34375 C6.484375,10.875 7.734375,11.453125 8.828125,11.453125 C10.125,11.453125 10.921875,10.5625 10.921875,8.203125 L10.921875,5.5 L10.875,0.859375 L8.875,0.671875 L8.875,0 L14.734375,0 L14.734375,0.671875 L12.890625,0.859375 L12.84375,5.5 L12.84375,8.203125 C12.84375,8.640625 12.8125,9.046875 12.765625,9.4375 C14.203125,10.9375 15.5,11.453125 16.578125,11.453125 C17.953125,11.453125 18.765625,10.65625 18.765625,8.203125 L18.765625,5.5 C18.765625,4.15625 18.75,2.203125 18.71875,0.859375 L16.75,0.671875 L16.75,0 Z" transform="translate(0.28125, 12.75) scale(1, -1)"/>
</svg>