<svg height="13.109375" viewBox="0 0 24 13.109375" width="24" xmlns="http://www.w3.org/2000/svg">
<path d="M10.96875,-0.34375 C11.90625,-0.34375 12.625,0.046875 13.125,0.890625 L12.75,1.25 C12.359375,0.8125 12.078125,0.671875 11.65625,0.671875 C11.015625,0.671875 10.65625,1.078125 10.65625,2.59375 L10.65625,8.515625 C10.65625,11.5 9.3125,12.75 6.53125,12.75 C3.8125,12.75 2.046875,11.5625 1.5625,9.59375 C1.703125,9.046875 2.0625,8.734375 2.609375,8.734375 C3.21875,8.734375 3.625,9.046875 3.765625,9.90625 L4.125,11.640625 C4.78125,11.875 5.375,12 6,12 C7.890625,12 8.734375,11.28125 8.734375,8.609375 L8.734375,7.625 C7.6875,7.390625 6.546875,7.078125 5.546875,6.765625 C2.375,5.859375 1.25,4.625 1.25,2.765625 C1.25,0.765625 2.65625,-0.359375 4.5625,-0.359375 C6.28125,-0.359375 7.375,0.4375 8.78125,1.96875 C8.96875,0.53125 9.640625,-0.34375 10.96875,-0.34375 Z M8.734375,2.71875 C7.21875,1.265625 6.359375,0.8125 5.40625,0.8125 C4.0625,0.8125 3.171875,1.578125 3.171875,3.078125 C3.171875,4.390625 3.953125,5.421875 5.96875,6.171875 C6.796875,6.484375 7.75,6.75 8.734375,7.015625 Z" transform="translate(4.8125, 12.75) scale(1, -1)"/>
</svg>