<svg height="19.671875" viewBox="0 0 24 19.671875" width="24" xmlns="http://www.w3.org/2000/svg">
<path d="M8.875,-0.359375 C12.03125,-0.359375 14.15625,2.40625 14.15625,6.3125 C14.15625,10.25 12.046875,12.75 9.140625,12.75 C7.703125,12.75 6.21875,12.171875 4.984375,10.78125 L4.984375,15.390625 L5.0625,19.109375 L4.703125,19.3125 L0.953125,18.59375 L0.953125,17.953125 L3.078125,17.828125 L3.078125,5.5 C3.078125,4.171875 3.046875,2.1875 3.03125,0.84375 L1.015625,0.671875 L1.015625,0 L4.75,-0.21875 L4.984375,1.578125 C6.140625,0.1875 7.53125,-0.359375 8.875,-0.359375 Z M5.046875,10.078125 C6.3125,11.296875 7.3125,11.640625 8.328125,11.640625 C10.484375,11.640625 12.046875,9.890625 12.046875,6.28125 C12.046875,2.25 10.265625,0.796875 8.28125,0.796875 C7.125,0.796875 6.125,1.21875 5.046875,2.28125 Z" transform="translate(4.4453125, 19.3125) scale(1, -1)"/>
</svg>