<svg height="24" viewBox="0 0 24 24" width="24" xmlns="http://www.w3.org/2000/svg">
<path d="M7.984375,11.6875 L10.296875,11.421875 L7.6875,8.8125 L5.046875,6.140625 L5.046875,15.390625 L5.109375,19.109375 L4.75,19.3125 L0.953125,18.59375 L0.953125,17.953125 L3.078125,17.859375 L3.078125,5.5 L3.03125,0.890625 L0.984375,0.671875 L0.984375,0 L7.015625,0 L7.015625,0.671875 L5.09375,0.859375 L5.046875,5.15625 L6.859375,6.953125 L10.9375,0 L14.5,0 L14.5,0.671875 L12.625,0.84375 L8.25,8.296875 L11.515625,11.5 L13.890625,11.6875 L13.890625,12.390625 L7.984375,12.390625 Z" transform="translate(4.2734375, 19.3125) scale(1, -1)"/>
</svg>