<svg height="24" viewBox="0 0 24 24" width="24" xmlns="http://www.w3.org/2000/svg">
<path d="M11.15625,0 L15.09375,0 L15.09375,0.671875 L13.25,0.859375 C13.21875,2.1875 13.203125,4.15625 13.203125,5.5 L13.203125,8.1875 C13.203125,11.46875 11.921875,12.75 9.84375,12.75 C8.203125,12.75 6.59375,11.953125 4.984375,10.109375 L4.984375,15.390625 L5.0625,19.109375 L4.703125,19.3125 L0.953125,18.59375 L0.953125,17.953125 L3.078125,17.859375 L3.078125,5.5 L3.03125,0.859375 L1.015625,0.671875 L1.015625,0 L6.890625,0 L6.890625,0.671875 L5.09375,0.859375 L5.046875,5.5 L5.046875,9.390625 C6.625,10.96875 7.96875,11.453125 9,11.453125 C10.390625,11.453125 11.234375,10.625 11.234375,8.25 L11.234375,5.5 L11.1875,0.859375 L9.21875,0.671875 L9.21875,0 Z" transform="translate(3.9765625, 19.3125) scale(1, -1)"/>
</svg>