<svg height="24.9375" viewBox="0 0 24 24.9375" width="24" xmlns="http://www.w3.org/2000/svg">
<path d="M3.84375,15.71875 C4.578125,15.71875 5.203125,16.265625 5.203125,17.0625 C5.203125,17.859375 4.578125,18.4375 3.84375,18.4375 C3.078125,18.4375 2.421875,17.859375 2.421875,17.0625 C2.421875,16.265625 3.078125,15.71875 3.84375,15.71875 Z M0.1875,-6.5 C1.421875,-6.5 2.359375,-6.125 3.28125,-5.1875 C4.75,-3.75 4.9375,-1.875 4.9375,2.5 L4.9375,9.125 L5.046875,12.453125 L4.6875,12.671875 L0.8125,11.734375 L0.8125,11.109375 L2.921875,11.015625 C2.96875,9.8125 3,8.515625 3,6.90625 L3,2.296875 C3,-0.953125 2.96875,-3.4375 2.359375,-4.65625 C2.140625,-5.09375 1.84375,-5.375 1.515625,-5.609375 L1.03125,-5.15625 C0.484375,-4.625 0,-4.421875 -0.578125,-4.421875 C-1.265625,-4.421875 -1.75,-4.75 -1.890625,-5.40625 C-1.78125,-6 -1.109375,-6.5 0.1875,-6.5 Z" transform="translate(10.34375, 18.4375) scale(1, -1)"/>
</svg>