<svg height="12.90625" viewBox="0 0 24 12.90625" width="24" xmlns="http://www.w3.org/2000/svg">
<path d="M10.9375,-0.21875 L14.640625,0 L14.640625,0.640625 L12.8125,0.84375 L12.8125,9.125 L12.90625,12.265625 L12.671875,12.546875 L8.953125,12.140625 L8.953125,11.515625 L10.890625,11.296875 L10.875,3.046875 C9.765625,1.75 8.46875,0.984375 7.109375,0.984375 C5.546875,0.984375 4.703125,1.875 4.703125,4.4375 L4.703125,9.125 L4.796875,12.265625 L4.5625,12.546875 L0.796875,12.171875 L0.796875,11.546875 L2.78125,11.28125 L2.71875,4.46875 C2.6875,0.890625 3.984375,-0.359375 6.265625,-0.359375 C8.15625,-0.359375 9.671875,0.671875 10.890625,2.203125 Z" transform="translate(4.28125, 12.546875) scale(1, -1)"/>
</svg>