<svg height="24" viewBox="0 0 24 24" width="24" xmlns="http://www.w3.org/2000/svg">
<path d="M8.421875,11.6875 L10.296875,11.46875 L8.8125,9.359375 L7.296875,7.203125 L4.265625,11.5 L6.125,11.6875 L6.125,12.390625 L0.4375,12.390625 L0.4375,11.6875 L2.0625,11.515625 L5.859375,5.96875 L1.984375,0.859375 L0.265625,0.671875 L0.265625,0 L4.96875,0 L4.96875,0.671875 L3.09375,0.890625 L4.6875,3.171875 L6.265625,5.375 L9.359375,0.84375 L7.390625,0.671875 L7.390625,0 L13.296875,0 L13.296875,0.671875 L11.65625,0.84375 L7.703125,6.59375 L11.375,11.5 L12.984375,11.6875 L12.984375,12.390625 L8.421875,12.390625 Z" transform="translate(5.21875, 12.390625) scale(1, -1)"/>
</svg>