<svg height="24" viewBox="0 0 24 24" width="24" xmlns="http://www.w3.org/2000/svg">
<path d="M2.96875,0 L7.34375,0 L7.34375,0.671875 L5.0625,0.90625 L5.015625,5.5 L5.015625,7.734375 C5.734375,9.671875 6.625,10.828125 7.890625,11.421875 L8.109375,11.203125 C8.65625,10.625 9.078125,10.296875 9.703125,10.296875 C10.53125,10.296875 10.921875,10.828125 10.9375,11.65625 C10.703125,12.359375 9.9375,12.75 9.03125,12.75 C7.421875,12.75 5.8125,11.359375 5.015625,9.171875 L4.875,12.484375 L4.5625,12.671875 L0.859375,11.71875 L0.859375,11.09375 L2.96875,10.984375 C3.03125,9.796875 3.046875,8.59375 3.046875,6.9375 L3.046875,5.5 L3,0.890625 L0.984375,0.671875 L0.984375,0 Z" transform="translate(6.1015625, 12.75) scale(1, -1)"/>
</svg>