<svg height="18.984375" viewBox="0 0 24 18.984375" width="24" xmlns="http://www.w3.org/2000/svg">
<path d="M8.8125,-0.359375 C11.90625,-0.359375 14.140625,2.203125 14.140625,6.3125 C14.140625,10.25 12.046875,12.75 9.125,12.75 C7.65625,12.75 6.1875,12.140625 4.984375,10.703125 L4.875,12.484375 L4.5625,12.671875 L0.859375,11.71875 L0.859375,11.09375 L3,10.984375 C3.046875,9.796875 3.078125,8.515625 3.078125,6.890625 L3.078125,-0.640625 L3.03125,-5.375 L0.984375,-5.5625 L0.984375,-6.234375 L7.390625,-6.234375 L7.390625,-5.5625 L5.0625,-5.375 L5.015625,-0.640625 L5.015625,1.390625 C6.171875,0.078125 7.515625,-0.359375 8.8125,-0.359375 Z M5.0625,10.078125 C6.265625,11.28125 7.296875,11.640625 8.359375,11.640625 C10.53125,11.640625 12.03125,9.90625 12.03125,6.265625 C12.03125,2.28125 10.3125,0.796875 8.234375,0.796875 C7.0625,0.796875 6.09375,1.109375 5.0625,2.109375 Z" transform="translate(4.5, 12.75) scale(1, -1)"/>
</svg>