<svg height="24" viewBox="0 0 24 24" width="24" xmlns="http://www.w3.org/2000/svg">
<path d="M1.265625,16.75 L3.75,16.5625 C3.765625,14.1875 3.765625,11.78125 3.765625,9.390625 L3.765625,8.25 C3.765625,5.59375 3.765625,3.265625 3.75,0.9375 L1.265625,0.71875 L1.265625,0 L8.40625,0 L8.40625,0.71875 L5.921875,0.9375 C5.90625,3.265625 5.90625,5.609375 5.90625,8.25 L5.90625,9.390625 C5.90625,11.828125 5.90625,14.25 5.921875,16.625 L14.15625,16.625 C14.203125,14.234375 14.203125,11.8125 14.203125,9.390625 L14.203125,8.25 C14.203125,5.59375 14.203125,3.265625 14.15625,0.9375 L11.71875,0.71875 L11.71875,0 L18.84375,0 L18.84375,0.71875 L16.34375,0.9375 C16.3125,3.28125 16.3125,5.609375 16.3125,8.25 L16.3125,9.390625 C16.3125,11.8125 16.3125,14.203125 16.34375,16.5625 L18.84375,16.75 L18.84375,17.46875 L1.265625,17.46875 Z" transform="translate(1.9453125, 17.46875) scale(1, -1)"/>
</svg>