<svg height="17.71875" viewBox="0 0 24 17.71875" width="24" xmlns="http://www.w3.org/2000/svg">
<path d="M5.328125,-4.828125 L5.546875,-4.96875 L7.375,-4.5625 L7.25,0.40625 C9.453125,4.203125 11.71875,8.65625 11.71875,11.28125 C11.71875,11.71875 11.6875,12.03125 11.609375,12.390625 C11.40625,12.625 11.203125,12.75 10.796875,12.75 C10.078125,12.75 9.640625,12.21875 9.640625,11.09375 C9.640625,10.46875 9.71875,9.890625 10.015625,8.328125 C9.265625,5.828125 8.359375,3.953125 7.015625,1.375 C6.265625,4.625 5.453125,7.171875 4.828125,9.046875 C3.859375,12.03125 3.09375,12.59375 1.96875,12.59375 C1.125,12.59375 0.484375,12.21875 0,11.5625 L0.1875,11.109375 C0.4375,11.203125 0.703125,11.25 0.953125,11.25 C1.84375,11.25 2.15625,10.890625 3.03125,8.5625 C3.765625,6.484375 4.796875,3.75 5.765625,0.125 Z" transform="translate(6.140625, 12.75) scale(1, -1)"/>
</svg>