<svg height="12.765625" viewBox="0 0 24 12.765625" width="24" xmlns="http://www.w3.org/2000/svg">
<path d="M12.1875,-0.359375 C13.21875,-0.359375 13.96875,0.140625 14.421875,1.015625 L14.203125,1.4375 C13.828125,1.203125 13.46875,1.0625 12.859375,1.0625 C11.953125,1.0625 11.421875,1.53125 11.375,3.171875 L11.234375,10.875 L15,10.78125 L14.921875,12.40625 L5.65625,12.40625 C3.390625,12.40625 1.84375,12.046875 0.4375,11.234375 L0.59375,10.515625 L4.703125,10.875 C4.65625,8.09375 4.5625,5.0625 4.109375,1.984375 C3.234375,1.96875 2.515625,1.921875 1.84375,1.84375 C1.484375,1.609375 1.3125,1.296875 1.3125,0.8125 C1.3125,0.140625 1.796875,-0.3125 2.59375,-0.3125 C4.015625,-0.3125 4.9375,0.578125 5.09375,2.453125 C5.375,5.09375 5.421875,8.09375 5.421875,10.890625 L9.984375,10.890625 C9.859375,7.875 9.71875,4.921875 9.71875,2.734375 C9.71875,0.5 10.65625,-0.359375 12.1875,-0.359375 Z" transform="translate(4.28125, 12.40625) scale(1, -1)"/>
</svg>