<svg height="24" viewBox="0 0 24 24" width="24" xmlns="http://www.w3.org/2000/svg">
<path d="M8.3125,17.546875 C8.09375,17.640625 7.765625,17.734375 7.421875,17.828125 C7.078125,17.90625 6.734375,17.96875 6.453125,18 L6.078125,17.453125 C6.734375,17.25 7.171875,17.0625 7.421875,16.828125 C7.65625,16.578125 7.71875,16.265625 7.609375,15.796875 C7.5625,15.609375 7.5,15.390625 7.4375,15.125 C7.390625,14.84375 7.3125,14.578125 7.234375,14.296875 C7.078125,13.71875 6.90625,13.125 6.71875,12.671875 C6.5,12.609375 6.25,12.53125 5.984375,12.453125 C5.421875,12.265625 4.828125,12.078125 4.234375,11.890625 C3.9375,11.78125 3.65625,11.703125 3.390625,11.609375 C2.59375,11.375 2.046875,11.703125 1.65625,12.453125 L1.171875,12.125 C1.28125,11.703125 1.453125,11.3125 1.671875,10.953125 C1.90625,10.609375 2.140625,10.296875 2.421875,10.15625 C2.90625,9.875 3.4375,10.015625 4.328125,10.5625 C4.625,10.75 5,10.953125 5.375,11.140625 C5.75,11.328125 6.125,11.484375 6.40625,11.59375 L5.828125,10.046875 C5.59375,9.4375 5.328125,8.765625 5.09375,8.1875 C4.859375,7.625 4.65625,7.140625 4.515625,6.875 C4.15625,6.21875 4.015625,5.59375 4.125,5.1875 C4.171875,5 4.25,4.8125 4.390625,4.65625 C4.515625,4.5 4.65625,4.375 4.828125,4.375 C5.1875,4.375 5.359375,4.578125 5.5,5.109375 L5.984375,6.84375 C6.125,7.4375 6.4375,8.40625 6.75,9.390625 C7.0625,10.375 7.421875,11.375 7.703125,12.03125 C8,12.171875 8.328125,12.328125 8.65625,12.4375 C8.96875,12.546875 9.25,12.609375 9.4375,12.640625 C10.1875,12.75 10.578125,12.21875 10.578125,10.765625 C10.578125,9.90625 10.484375,8.984375 10.328125,8.140625 C10.171875,7.296875 9.9375,6.484375 9.6875,5.84375 C9.09375,4.28125 8.296875,3.03125 7.4375,2.234375 C6.9375,1.765625 6.484375,1.609375 6.125,1.609375 C5.734375,1.609375 5.5625,2.046875 5.453125,2.46875 C5.375,2.765625 5.328125,3.21875 5.359375,3.484375 L4.8125,3.4375 C4.71875,3.078125 4.671875,2.5 4.703125,2.09375 C4.734375,1.625 4.875,1.1875 5.0625,0.875 C5.359375,0.390625 5.734375,0.296875 6.125,0.296875 C6.78125,0.296875 7.59375,0.5625 8.5625,1.53125 C9.359375,2.328125 10.046875,3.265625 10.703125,4.625 C11.140625,5.5625 11.46875,6.609375 11.65625,7.671875 C11.859375,8.75 11.953125,9.78125 11.953125,10.765625 C11.953125,11.75 11.5625,12.625 10.953125,13.0625 C10.53125,13.34375 10.109375,13.4375 9.671875,13.4375 C9.265625,13.4375 8.734375,13.328125 8.140625,13.078125 C8.21875,13.4375 8.40625,14.015625 8.640625,14.546875 C8.8125,14.9375 8.984375,15.359375 9.171875,15.6875 C9.546875,16.4375 9.390625,17.0625 8.3125,17.546875 Z M14.546875,12.296875 C14.609375,12.1875 14.6875,12.09375 14.75,12.015625 C14.859375,11.828125 14.9375,11.609375 15,11.328125 C15.0625,11.046875 15.09375,10.640625 15.125,10.1875 L15.15625,9.5 C15.171875,9.0625 15.21875,8.65625 15.265625,8.375 C15.375,7.921875 15.515625,7.65625 15.671875,7.484375 C15.828125,7.328125 16.015625,7.28125 16.25,7.28125 C16.609375,7.28125 16.921875,7.46875 16.921875,8.046875 C16.921875,8.359375 17.015625,8.8125 17.359375,9.265625 C17.65625,9.65625 18.03125,10.125 18.4375,10.5 C18.828125,10.859375 19.234375,11.140625 19.609375,11.140625 C20.3125,11.140625 20.734375,10.421875 20.734375,9.296875 C20.734375,8.375 20.5625,7.5625 19.90625,6.625 C19.0625,5.453125 17.90625,4.328125 16.4375,3.4375 L16.90625,2.953125 C17.65625,3.359375 18.421875,3.875 19.125,4.4375 C19.828125,5 20.453125,5.59375 20.90625,6.140625 C21.84375,7.28125 22.296875,8.203125 22.296875,9.3125 C22.296875,10.015625 22.15625,10.703125 21.640625,11.203125 C21.171875,11.6875 20.640625,11.984375 19.96875,11.984375 C19.34375,11.984375 18.8125,11.84375 18.21875,11.421875 C17.65625,11.046875 17.0625,10.609375 16.484375,9.9375 C16.40625,10.421875 16.234375,11.140625 15.9375,11.65625 C15.703125,12.09375 15.265625,12.453125 14.890625,12.625 Z" transform="translate(0.265625, 18) scale(1, -1)"/>
</svg>