<svg height="24" viewBox="0 0 24 24" width="24" xmlns="http://www.w3.org/2000/svg">
<path d="M17.59375,18.265625 C16.875,18.265625 16.0625,18.0625 15.28125,17.703125 C14.5,17.328125 13.75,16.8125 13.109375,16.203125 C11.78125,14.921875 10.921875,13.625 10.484375,12.359375 L10.921875,12.078125 C11.734375,13.34375 12.71875,14.5 13.859375,15.625 C14.84375,16.609375 16.125,17.1875 17.5,17.1875 C18.203125,17.1875 18.5625,16.921875 18.765625,16.5625 C18.96875,16.203125 18.984375,15.765625 18.984375,15.390625 C18.984375,14.453125 18.6875,13.53125 18.34375,13.015625 C17.765625,12.125 16.953125,11.578125 16.109375,11.40625 L16.109375,12.046875 C16.109375,12.328125 15.96875,12.484375 15.828125,12.53125 C15.6875,12.5625 15.5,12.5 15.359375,12.34375 C15.265625,12.21875 15.140625,12.078125 14.984375,11.9375 L14.5,11.453125 C14.359375,11.3125 14.375,11.140625 14.484375,11 C14.59375,10.859375 14.796875,10.71875 15.03125,10.625 C15.03125,10.40625 15.03125,10.15625 15.03125,9.921875 L15.03125,9.1875 C15.015625,8.703125 14.984375,8.265625 14.984375,7.96875 C14.84375,7.875 14.640625,7.765625 14.40625,7.671875 C14.078125,7.578125 13.609375,7.390625 13.125,7.15625 C12.640625,6.921875 12.171875,6.640625 11.84375,6.390625 C11,5.734375 11.046875,5.234375 11.984375,4.625 C12.359375,4.390625 12.859375,4.09375 13.109375,3.875 C12.96875,3.71875 12.734375,3.5 12.484375,3.296875 C12.21875,3.078125 11.9375,2.859375 11.703125,2.6875 C11.203125,2.328125 11,1.90625 11.046875,1.5 C11.09375,1.109375 11.421875,0.734375 11.984375,0.5 C12.453125,0.3125 13.03125,0.21875 13.65625,0.171875 C14.28125,0.109375 14.9375,0.078125 15.5,0.078125 C17.015625,0.03125 18.125,0.171875 18.875,0.296875 C19.296875,0.375 19.578125,0.40625 19.828125,0.546875 C20,0.65625 20.109375,0.84375 20.125,1.03125 C20.125,1.21875 20.046875,1.4375 19.828125,1.578125 C19.65625,1.71875 19.4375,1.78125 19.203125,1.8125 C18.875,1.84375 18.546875,1.71875 18.21875,1.625 C17.609375,1.453125 16.625,1.34375 15.546875,1.34375 C14.90625,1.34375 14.28125,1.359375 13.71875,1.390625 C13.15625,1.4375 12.6875,1.484375 12.40625,1.578125 C11.890625,1.765625 11.8125,2.015625 12.1875,2.265625 C12.4375,2.421875 12.765625,2.625 13.078125,2.84375 C13.390625,3.078125 13.703125,3.28125 13.90625,3.453125 C14,3.390625 14.09375,3.3125 14.203125,3.25 L14.5,3.046875 C14.765625,2.859375 15.046875,2.84375 15.3125,3 C15.46875,3.09375 15.640625,3.265625 15.78125,3.484375 C15.921875,3.6875 16.015625,3.9375 16.015625,4.171875 L16.015625,5.640625 C16.234375,5.96875 16.40625,6.28125 16.5625,6.578125 C16.6875,6.8125 16.796875,7.03125 16.8125,7.234375 C16.8125,7.4375 16.734375,7.625 16.484375,7.828125 C16.34375,7.953125 16.1875,8 16.015625,8.046875 C16.015625,8.203125 16.015625,8.375 16.03125,8.5625 C16.03125,8.921875 16.046875,9.34375 16.0625,9.859375 C16.0625,10.109375 16.0625,10.40625 16.078125,10.71875 C16.953125,10.90625 17.5625,11.125 18.078125,11.40625 C18.578125,11.671875 18.953125,12 19.375,12.453125 C20.1875,13.34375 20.65625,14.5 20.65625,15.578125 C20.65625,16.40625 20.359375,17.078125 19.8125,17.546875 C19.28125,18.015625 18.5,18.265625 17.59375,18.265625 Z M6.078125,16.875 C5.21875,16.265625 4.4375,15.96875 4.078125,16.0625 C3.765625,16.140625 3.484375,16.28125 3.171875,16.78125 L2.765625,16.34375 C3,15.6875 3.375,15.203125 3.6875,14.890625 C3.828125,14.75 4.046875,14.703125 4.25,14.71875 C4.46875,14.71875 4.671875,14.78125 4.859375,14.84375 C5.171875,14.96875 5.515625,15.171875 5.953125,15.453125 C5.921875,15.03125 5.90625,14.328125 5.890625,13.59375 C5.875,13.234375 5.859375,12.875 5.84375,12.5 L5.8125,11.515625 C5.5,11.390625 5.046875,11.140625 4.5625,10.8125 C4.0625,10.484375 3.53125,10.0625 3.09375,9.59375 C2.75,9.234375 2.640625,8.9375 2.703125,8.65625 C2.75,8.375 2.96875,8.109375 3.296875,7.875 C3.53125,7.703125 3.796875,7.53125 4.046875,7.390625 C4.296875,7.234375 4.53125,7.109375 4.671875,7.0625 C4.609375,6.828125 4.5,6.59375 4.375,6.3125 C4.109375,5.734375 3.78125,5.140625 3.5,4.625 C3.21875,4.109375 3,3.75 2.765625,3.46875 C2.53125,3.1875 2.21875,2.890625 2.328125,2.609375 C2.421875,2.328125 2.875,1.65625 3.34375,1.703125 C3.65625,1.734375 3.921875,1.875 4.421875,2.359375 C5.125,3.03125 6.125,4.1875 7.171875,5.515625 C8.203125,6.828125 9.28125,8.359375 10.125,9.78125 L9.796875,10.109375 C9.03125,9.078125 8.09375,7.859375 7.03125,6.703125 C5.984375,5.53125 4.8125,4.40625 3.640625,3.546875 C3.9375,3.96875 4.375,4.609375 4.765625,5.21875 C5.140625,5.828125 5.515625,6.40625 5.65625,6.734375 C5.90625,6.65625 6.359375,6.640625 6.59375,6.71875 C6.9375,6.828125 7.125,7.203125 7.078125,7.8125 C7.03125,8.375 7.015625,9.21875 7.015625,9.875 C7.109375,10.1875 7.203125,10.4375 7.28125,10.625 C7.34375,10.8125 7.40625,11 7.46875,11.234375 C7.546875,11.515625 7.375,11.75 7.03125,11.890625 L7.0625,13.015625 C7.0625,13.359375 7.078125,13.6875 7.09375,14 C7.125,14.625 7.171875,15.171875 7.34375,15.59375 C7.453125,15.921875 7.515625,16.078125 7.515625,16.21875 C7.515625,16.28125 7.5,16.34375 7.484375,16.390625 C7.484375,16.421875 7.453125,16.46875 7.4375,16.515625 C7.359375,16.6875 7.15625,16.875 7.015625,17.015625 C6.78125,17.265625 6.484375,17.15625 6.078125,16.875 Z M5.765625,9.03125 C5.609375,8.640625 5.3125,8.234375 5.015625,7.875 C4.703125,7.953125 4.4375,8.09375 4.25,8.265625 C4.046875,8.4375 3.96875,8.5625 4,8.703125 C4.015625,8.828125 4.125,8.953125 4.28125,9.140625 C4.484375,9.390625 4.75,9.640625 5.03125,9.828125 C5.296875,10.03125 5.578125,10.203125 5.765625,10.296875 Z M14.984375,5.859375 C14.84375,5.671875 14.65625,5.40625 14.421875,5.15625 C14.1875,4.90625 13.9375,4.671875 13.703125,4.515625 C13.53125,4.5625 13.34375,4.640625 13.140625,4.75 C12.734375,4.953125 12.1875,5.171875 12.546875,5.5 C12.96875,5.859375 13.859375,6.359375 14.984375,6.734375 Z" transform="translate(0.5625, 18.265625) scale(1, -1)"/>
</svg>