<svg height="19.5625" viewBox="0 0 24 19.5625" width="24" xmlns="http://www.w3.org/2000/svg">
<path d="M9.265625,18.6875 C9.828125,18.40625 10.203125,18.203125 10.421875,17.890625 C10.625,17.5625 10.6875,17.140625 10.65625,16.484375 L10.515625,13.21875 C9.21875,13.09375 8.328125,13.390625 7.421875,13.96875 L7.15625,13.4375 C8,12.546875 9,12.078125 10.46875,12.171875 L10.375,7.8125 C10.046875,7.453125 9.71875,7.109375 9.390625,6.765625 C9.046875,6.421875 8.703125,6.0625 8.359375,5.6875 C8.203125,5.515625 8.0625,5.40625 7.953125,5.328125 C7.84375,5.25 7.75,5.21875 7.671875,5.21875 C7.53125,5.203125 7.46875,5.3125 7.46875,5.5 L7.46875,5.859375 C7.453125,5.984375 7.46875,6.171875 7.484375,6.390625 L6.9375,6.3125 C6.796875,5.609375 6.765625,4.953125 6.796875,4.328125 C6.8125,3.8125 6.921875,3.484375 7.046875,3.296875 C7.171875,3.09375 7.34375,3.03125 7.484375,3.03125 C7.71875,3.03125 8,3.265625 8.265625,3.578125 C8.390625,3.390625 8.546875,3.1875 8.703125,2.984375 C8.84375,2.765625 8.984375,2.546875 9.140625,2.3125 C9.421875,1.84375 9.6875,1.34375 9.84375,0.828125 C9.96875,0.40625 10.078125,0.171875 10.171875,-0.046875 C10.296875,-0.34375 10.578125,-0.3125 10.8125,-0.1875 C11.078125,-0.046875 11.375,0.234375 11.5,0.5 C11.671875,0.875 11.625,1.328125 11.5625,2.3125 C11.46875,4.0625 11.4375,5.671875 11.46875,7.375 C13.953125,10.265625 16.265625,12.875 18.546875,15.125 C18.828125,15.40625 19.109375,15.453125 19.296875,15.375 C19.484375,15.28125 19.578125,15.046875 19.484375,14.734375 C19.390625,14.359375 19.140625,13.765625 18.828125,13.109375 C18.5,12.453125 18.09375,11.734375 17.65625,11.109375 C17.4375,10.796875 17.1875,10.421875 17.1875,10.0625 C17.1875,9.578125 17.296875,9.390625 17.46875,9.046875 C17.546875,8.90625 17.609375,8.78125 17.65625,8.65625 C17.703125,8.515625 17.75,8.390625 17.8125,8.265625 C16.671875,8.015625 15.5625,7.578125 14.765625,6.984375 C14.453125,6.75 14.234375,6.546875 14.109375,6.3125 C13.96875,6.09375 13.921875,5.84375 13.921875,5.515625 C13.921875,5.09375 14.09375,4.625 14.46875,3.921875 C14.890625,3.171875 15.40625,2.109375 16.15625,0.578125 C16.46875,-0.078125 16.71875,-0.234375 17.09375,-0.234375 C17.59375,-0.234375 18.21875,0.125 18.734375,0.96875 C19.34375,1.9375 19.65625,3.296875 19.65625,5.015625 C19.65625,5.84375 19.546875,6.625 19.328125,7.328125 C19.625,7.328125 19.90625,7.296875 20.171875,7.25 C20.6875,7.15625 21.265625,6.9375 21.546875,6.828125 C21.703125,6.765625 21.859375,6.703125 22.03125,6.671875 C22.515625,6.5625 22.734375,6.890625 22.609375,7.296875 C22.484375,7.71875 22.171875,7.9375 21.671875,8.140625 C20.8125,8.46875 19.890625,8.5625 18.890625,8.421875 C18.765625,8.65625 18.609375,8.921875 18.390625,9.234375 C18.171875,9.546875 17.9375,9.859375 17.9375,10.078125 C17.9375,10.3125 18.015625,10.53125 18.1875,10.71875 C18.75,11.375 19.28125,12.03125 19.75,12.671875 C20.21875,13.296875 20.609375,13.890625 20.9375,14.359375 C21.390625,15.0625 21.078125,15.671875 20.015625,16.171875 C19.25,16.53125 18.640625,16.171875 18,15.546875 C15.90625,13.53125 13.828125,11.390625 11.46875,8.953125 C11.515625,10.078125 11.546875,11.15625 11.59375,12.234375 C12.390625,12.390625 13.015625,12.625 13.765625,13.078125 C14.1875,13.34375 14.3125,13.796875 14.09375,14.09375 C13.890625,14.359375 13.484375,14.5 13.21875,14.3125 C12.9375,14.109375 12.78125,13.984375 12.359375,13.765625 C12.140625,13.625 11.90625,13.546875 11.640625,13.46875 L11.765625,15.546875 C11.796875,15.9375 11.890625,16.390625 11.984375,16.671875 C12.265625,17.46875 12.15625,17.984375 11.40625,18.53125 C11.015625,18.828125 10.296875,19.125 9.59375,19.21875 Z M3.1875,17.5625 C3.640625,17.234375 3.9375,16.921875 4.21875,16.328125 C4.375,16 4.4375,15.640625 4.40625,15.171875 C4.375,14.703125 4.25,14.109375 4.015625,13.34375 C3.546875,11.796875 3.171875,10.21875 2.890625,8.75 C2.609375,7.265625 2.46875,5.890625 2.46875,4.765625 C2.46875,3.34375 2.609375,2.140625 2.90625,1.25 C3.171875,0.453125 3.53125,0.15625 3.890625,0.1875 C4.078125,0.203125 4.265625,0.34375 4.40625,0.53125 C4.53125,0.71875 4.625,0.953125 4.578125,1.15625 C4.53125,1.625 4.484375,1.96875 4.5,2.296875 C4.5,2.609375 4.53125,2.890625 4.609375,3.21875 C4.796875,4.046875 4.96875,4.6875 5.171875,5.34375 C5.375,6 5.625,6.671875 6,7.5625 L5.515625,7.953125 C5.15625,7.203125 4.84375,6.5 4.53125,5.71875 C4.234375,4.953125 3.953125,4.109375 3.71875,3.171875 C3.546875,3.875 3.53125,4.578125 3.53125,5.234375 C3.53125,6.625 3.765625,8.046875 4.109375,9.359375 C4.4375,10.6875 4.875,11.9375 5.265625,13.015625 C5.671875,14.140625 5.9375,14.890625 5.9375,15.40625 C5.9375,15.96875 5.75,16.359375 5.265625,16.828125 C4.703125,17.390625 4.125,17.78125 3.546875,18.046875 Z M18.140625,7.171875 C18.3125,6.453125 18.40625,5.734375 18.40625,5 C18.40625,3.53125 18.125,2.46875 17.5625,1.71875 C17.234375,1.265625 17.046875,1.328125 16.78125,1.703125 C16.4375,2.1875 16.015625,2.8125 15.640625,3.40625 C15.265625,3.984375 14.96875,4.515625 14.90625,4.8125 C14.734375,5.46875 14.9375,5.890625 15.53125,6.265625 C16.25,6.734375 17.15625,7 18.140625,7.171875 Z M10.34375,6.046875 C10.34375,5.375 10.328125,4.734375 10.328125,4.09375 C10.328125,3.453125 10.3125,2.796875 10.296875,2.140625 C9.9375,2.609375 9.671875,2.953125 9.40625,3.25 C9.15625,3.53125 8.921875,3.765625 8.640625,4.03125 C9.21875,4.734375 9.796875,5.453125 10.34375,6.046875 Z" transform="translate(-0.6015625, 19.21875) scale(1, -1)"/>
</svg>