<svg height="20.421875" viewBox="0 0 24 20.421875" width="24" xmlns="http://www.w3.org/2000/svg">
<path d="M8.3125,19.296875 C8.8125,19.03125 8.953125,18.5 8.609375,18.078125 C8.34375,17.75 7.9375,17.25 7.484375,16.78125 C7.046875,16.3125 6.546875,15.875 6.171875,15.59375 C5.890625,15.40625 5.734375,15.265625 5.609375,15.125 C5.5,14.984375 5.421875,14.8125 5.375,14.609375 C5.328125,14.390625 5.375,13.890625 5.453125,13.515625 C5.546875,13.03125 5.90625,13.0625 6.3125,13.375 C6.828125,13.75 7.40625,14.171875 7.9375,14.546875 C8.46875,14.921875 8.953125,15.25 9.234375,15.4375 C9.46875,15.59375 9.640625,15.671875 9.671875,15.609375 C9.734375,15.53125 9.703125,15.484375 9.625,15.296875 C9.46875,14.953125 9.203125,14.46875 8.90625,13.96875 C8.609375,13.453125 8.28125,12.921875 7.953125,12.4375 C7.640625,11.953125 7.34375,11.53125 7.15625,11.28125 C6.921875,11.015625 6.78125,10.8125 6.34375,10.46875 C6.125,10.296875 5.84375,10.09375 5.5625,9.921875 C5.109375,9.640625 4.96875,9.515625 4.96875,9.09375 C4.96875,8.859375 5.03125,8.46875 5.203125,8.28125 C5.5,7.96875 5.6875,7.953125 5.953125,8.1875 C6.078125,8.28125 6.21875,8.421875 6.421875,8.59375 C6.609375,8.75 6.78125,8.921875 6.9375,9.078125 C7.21875,9.359375 7.625,9.6875 8.0625,10.015625 C9.34375,10.953125 10.5625,11.65625 11.84375,12.359375 C11.28125,11.1875 10.703125,10.0625 10.15625,9.078125 C9.59375,8.078125 9.09375,7.1875 8.65625,6.484375 C8.390625,6.046875 7.96875,5.4375 7.484375,4.796875 C6.984375,4.140625 6.421875,3.453125 5.90625,2.84375 C5.390625,2.234375 4.90625,1.71875 4.5625,1.390625 C4.46875,1.78125 4.4375,2.171875 4.46875,2.765625 L3.921875,2.59375 C3.875,2.25 3.796875,1.84375 3.703125,1.46875 C3.59375,1.09375 3.46875,0.734375 3.3125,0.5 C3.140625,0.234375 3.15625,-0.015625 3.265625,-0.203125 C3.359375,-0.390625 3.578125,-0.5 3.828125,-0.5 C4.015625,-0.5 4.203125,-0.46875 4.421875,-0.359375 C4.640625,-0.234375 4.90625,-0.03125 5.265625,0.359375 C6.484375,1.671875 7.390625,2.75 8.140625,3.734375 C8.875,4.703125 9.453125,5.578125 10.03125,6.4375 C10.59375,7.28125 11.046875,8.0625 11.515625,9 C11.796875,8.65625 12.1875,8.328125 12.65625,8.09375 C13.109375,7.84375 13.640625,7.671875 14.15625,7.671875 C15.328125,7.671875 16.40625,8.015625 17.109375,8.515625 C18.234375,9.3125 18.921875,10.421875 18.921875,11.6875 C18.921875,12.390625 18.71875,13.0625 18.140625,13.65625 C17.703125,14.109375 16.96875,14.453125 15.796875,14.453125 C15.1875,14.453125 14.609375,14.328125 14.09375,14.140625 C14.359375,14.71875 14.5625,15.21875 14.734375,15.640625 L15.046875,16.46875 C15.40625,17.359375 15.203125,17.8125 14.5,18.140625 C14.09375,18.34375 13.390625,18.5 12.734375,18.578125 L12.453125,18.078125 C12.9375,17.890625 13.265625,17.734375 13.4375,17.5625 C13.625,17.375 13.671875,17.1875 13.625,17 C13.546875,16.65625 13.34375,16.03125 13.109375,15.359375 C12.859375,14.703125 12.578125,13.96875 12.34375,13.390625 C10.6875,12.640625 9.09375,11.75 7.34375,10.484375 C7.625,10.765625 8.015625,11.25 8.46875,11.828125 C8.9375,12.40625 9.4375,13.0625 9.90625,13.671875 C10.375,14.296875 10.796875,14.875 11.09375,15.296875 C11.453125,15.796875 11.609375,16.125 11.375,16.421875 C11.28125,16.5625 11.078125,16.71875 10.875,16.828125 C10.671875,16.953125 10.46875,17.015625 10.328125,17.015625 C10.203125,17.015625 10.078125,16.984375 9.90625,16.890625 C9.71875,16.78125 9.484375,16.625 9.140625,16.34375 C8.6875,15.984375 8,15.4375 7.0625,15.078125 C7.4375,15.40625 7.90625,15.859375 8.328125,16.34375 C8.75,16.8125 9.171875,17.328125 9.5,17.84375 C9.796875,18.265625 9.8125,18.65625 9.640625,18.96875 C9.484375,19.296875 9.140625,19.53125 8.765625,19.671875 Z M15.453125,13.671875 C16.578125,13.671875 17.328125,13.125 17.328125,11.6875 C17.328125,10.96875 17.1875,10.390625 16.765625,9.921875 C16.015625,9.078125 15.140625,8.59375 14.109375,8.59375 C13.21875,8.59375 12.4375,8.9375 11.859375,9.59375 C12.125,10.140625 12.40625,10.71875 12.703125,11.328125 C13,11.9375 13.3125,12.59375 13.671875,13.296875 C14.421875,13.578125 14.953125,13.671875 15.453125,13.671875 Z M9.734375,4.125 C10.0625,4.328125 10.328125,4.4375 10.5,4.453125 C10.671875,4.46875 10.765625,4.34375 10.78125,4.109375 C10.796875,3.90625 10.828125,3.671875 10.859375,3.40625 C10.9375,2.859375 11.015625,2.28125 11.09375,1.8125 C11.125,1.5625 11.140625,1.375 11.15625,1.21875 C11.21875,0.671875 11.390625,0.3125 11.625,0.046875 C11.859375,-0.21875 12.15625,-0.359375 12.484375,-0.4375 C13.4375,-0.65625 14.765625,-0.75 16.125,-0.734375 C17.484375,-0.734375 18.859375,-0.609375 19.921875,-0.390625 C20.546875,-0.265625 20.8125,0.046875 20.8125,0.34375 C20.8125,0.71875 20.5625,0.875 20.203125,1.015625 C19.84375,1.140625 19.4375,1.03125 19.015625,0.9375 C18.265625,0.765625 17.375,0.640625 16.484375,0.59375 C15.59375,0.546875 14.671875,0.546875 13.875,0.625 C13.421875,0.671875 13.140625,0.734375 12.9375,0.875 C12.734375,1.015625 12.625,1.234375 12.53125,1.609375 C12.359375,2.28125 12.265625,3.21875 12.1875,3.96875 C12.125,4.5625 11.953125,4.921875 11.734375,5.140625 C11.5,5.34375 11.1875,5.390625 10.90625,5.359375 C10.46875,5.3125 9.96875,5 9.53125,4.53125 Z" transform="translate(0.0234375, 19.671875) scale(1, -1)"/>
</svg>