<svg height="21.640625" viewBox="0 0 24 21.640625" width="24" xmlns="http://www.w3.org/2000/svg">
<path d="M8.984375,19.90625 C8.609375,19.46875 8.28125,18.84375 8.046875,18.09375 C7.859375,17.515625 7.71875,16.796875 7.640625,16.09375 C7.546875,15.390625 7.515625,14.6875 7.515625,14.15625 C7.3125,14.21875 6.96875,14.390625 6.625,14.609375 C6.28125,14.84375 5.9375,15.078125 5.734375,15.3125 C6.125,15.6875 6.59375,16.078125 7.296875,16.578125 L7.125,17.015625 C6.921875,16.90625 6.71875,16.765625 6.5,16.625 L5.796875,16.203125 C5.3125,15.921875 4.828125,15.609375 4.4375,15.359375 C4.3125,15.890625 4.421875,16.609375 4.703125,17.265625 L4.328125,17.453125 C4.109375,17.234375 3.875,16.921875 3.6875,16.609375 C3.5,16.296875 3.359375,15.96875 3.296875,15.71875 C3.125,15.125 3.109375,14.640625 3.1875,14.15625 C3.296875,13.5 3.5,13.296875 3.984375,13.296875 C4.21875,13.296875 4.5,13.484375 4.578125,13.953125 C4.640625,14.28125 4.96875,14.59375 5.375,14.984375 C5.5625,14.84375 5.84375,14.515625 6.125,14.1875 C6.40625,13.859375 6.640625,13.53125 6.734375,13.296875 C6.890625,12.96875 6.984375,12.828125 7.171875,12.828125 C7.046875,12.703125 6.875,12.578125 6.65625,12.421875 C6.234375,12.125 5.75,11.796875 5.28125,11.515625 C4.8125,11.234375 4.40625,11 4.015625,10.796875 L3.484375,10.515625 C3.09375,10.296875 3,10.109375 2.953125,9.890625 C2.859375,9.5 2.84375,9.25 2.9375,8.890625 C2.984375,8.703125 3.140625,8.59375 3.3125,8.578125 C3.5,8.5625 3.6875,8.625 3.796875,8.734375 C3.921875,8.859375 4.046875,8.984375 4.171875,9.125 L4.5625,9.53125 C4.84375,9.8125 5.1875,10.15625 5.640625,10.53125 C7.015625,11.71875 8.0625,12.484375 8.734375,12.890625 C9.09375,13.109375 9.5,13.21875 9.828125,13.25 C10.171875,13.296875 10.484375,13.234375 10.65625,13.125 C10.421875,12.984375 10.03125,12.6875 9.59375,12.328125 C9.171875,11.96875 8.6875,11.515625 8.265625,11.09375 C7.28125,10.0625 6.640625,9.21875 6.640625,8.453125 C6.640625,8.015625 6.796875,7.765625 7.09375,7.625 C7.390625,7.46875 7.84375,7.421875 8.453125,7.421875 C8.9375,7.421875 9.390625,7.53125 9.78125,7.671875 C10.15625,7.796875 10.484375,7.953125 10.703125,8.09375 C11.546875,8.5625 12.109375,9.125 12.4375,9.6875 C12.8125,10.34375 12.96875,10.8125 12.96875,11.421875 C12.96875,12.40625 12.546875,13.0625 12.078125,13.375 L12.890625,14.09375 C13.203125,14.359375 13.5,14.625 13.8125,14.890625 C14.4375,15.4375 15.046875,15.921875 15.5,16.25 C15.984375,16.578125 16.609375,16.875 17.0625,16.875 C17.40625,16.875 17.546875,16.703125 17.546875,16.21875 C17.546875,15.734375 17.46875,15.09375 17.375,14.65625 C17.25,14.109375 17.328125,13.921875 17.9375,13.828125 C18.390625,13.75 18.828125,13.625 19.015625,13.53125 C19.34375,13.34375 19.515625,13.078125 19.515625,12.59375 C19.515625,12.09375 19.265625,11.546875 18.40625,10.875 C17.5625,10.203125 16.734375,9.703125 15.984375,9.34375 L16.296875,8.9375 C17.375,9.359375 18.171875,9.78125 18.96875,10.21875 C19.765625,10.65625 20.28125,11.078125 20.609375,11.46875 C20.9375,11.84375 21.078125,12.21875 21.078125,12.59375 C21.078125,13.0625 20.984375,13.375 20.46875,13.78125 C20.109375,14.0625 19.421875,14.25 18.875,14.328125 C18.640625,14.375 18.53125,14.421875 18.5,14.515625 C18.421875,14.6875 18.53125,14.921875 18.625,15.171875 C18.671875,15.296875 18.71875,15.421875 18.78125,15.5625 C18.875,15.828125 18.96875,16.109375 19.015625,16.34375 C19.09375,16.765625 18.9375,17.125 18.625,17.40625 C18.265625,17.71875 17.9375,17.765625 17.46875,17.765625 C16.953125,17.765625 16.109375,17.453125 15.296875,16.859375 C14.8125,16.484375 14.125,15.96875 13.421875,15.421875 C12.703125,14.859375 11.953125,14.265625 11.359375,13.78125 C10.9375,13.890625 10.5,13.953125 10.03125,13.90625 C9.5625,13.859375 9.046875,13.703125 8.46875,13.375 C9,13.859375 9.828125,14.46875 11,15.359375 C11.5625,15.796875 11.9375,16.109375 12.140625,16.40625 C12.359375,16.6875 12.40625,16.953125 12.40625,17.3125 C12.40625,17.765625 12.21875,18.03125 11.9375,18.21875 C11.640625,18.40625 11.375,18.453125 10.953125,18.359375 C10.578125,18.28125 10.125,18.046875 9.71875,17.734375 L9.96875,17.375 C10.203125,17.46875 10.390625,17.546875 10.546875,17.578125 C10.703125,17.609375 10.8125,17.625 10.890625,17.609375 C11.03125,17.59375 11.0625,17.453125 11.0625,17.265625 C11.0625,16.859375 10.859375,16.53125 10.609375,16.203125 C10.453125,15.96875 10.140625,15.65625 9.78125,15.3125 C9.40625,14.953125 8.984375,14.578125 8.609375,14.265625 C8.609375,14.59375 8.640625,15.125 8.6875,15.6875 C8.734375,16.25 8.796875,16.890625 8.890625,17.40625 C9.078125,18.625 9.234375,19.296875 9.4375,19.703125 Z M11.1875,12.625 C11.421875,12.40625 11.546875,11.84375 11.546875,11.28125 C11.546875,10.4375 11.3125,9.828125 10.703125,9.09375 C10.46875,8.8125 10.09375,8.5625 9.6875,8.375 C9.296875,8.1875 8.84375,8.09375 8.46875,8.09375 C8.0625,8.09375 7.953125,8.234375 7.953125,8.65625 C7.953125,8.984375 8.046875,9.28125 8.234375,9.625 C8.421875,9.953125 8.734375,10.328125 9.140625,10.78125 C9.375,11.046875 9.765625,11.421875 10.15625,11.796875 C10.53125,12.15625 10.9375,12.484375 11.1875,12.625 Z M7.15625,6.234375 C6.453125,6 6.0625,5.703125 5.859375,5.375 C5.640625,5.046875 5.578125,4.828125 5.65625,4.484375 C5.75,4.109375 6.203125,3.8125 6.625,3.71875 C7.0625,3.625 7.671875,3.5625 8.265625,3.59375 C7.859375,3.09375 7.078125,2.140625 6.09375,0.78125 C5.703125,0.25 5.546875,-0.234375 5.546875,-0.6875 C5.546875,-1.34375 5.6875,-1.578125 6.09375,-1.65625 C6.546875,-1.734375 6.734375,-1.484375 7.03125,-0.875 C7.484375,0.125 7.8125,0.671875 8.140625,1.171875 C8.40625,1.609375 8.703125,2.078125 8.984375,2.5 C9.265625,2.921875 9.515625,3.3125 9.6875,3.546875 C10.0625,3.5625 10.546875,3.609375 11.0625,3.671875 C11.578125,3.71875 12.125,3.8125 12.625,3.921875 C13.25,4.046875 13.8125,4.203125 14.296875,4.375 C14.78125,4.546875 15.203125,4.703125 15.578125,4.828125 C16.421875,5.125 17.09375,5.421875 17.359375,5.65625 C17.65625,5.9375 17.734375,6.1875 17.734375,6.40625 C17.734375,6.640625 17.578125,6.78125 17.265625,6.875 C16.75,7 16.1875,7.3125 15.875,7.625 L15.40625,7.203125 C15.734375,6.921875 15.90625,6.6875 16.078125,6.40625 C15.65625,6.171875 15.03125,5.890625 14.328125,5.65625 C13.625,5.421875 12.859375,5.1875 12.140625,5.03125 C11.421875,4.875 10.765625,4.796875 10.296875,4.8125 C11.421875,6.21875 12.484375,7.390625 13.421875,7.96875 C13.578125,8.0625 13.859375,8.0625 14.140625,8 C14.421875,7.953125 14.6875,7.8125 14.859375,7.671875 L15.265625,8.09375 C14.953125,8.375 14.625,8.6875 14.359375,8.890625 C14.015625,9.125 13.46875,9.15625 13.03125,8.9375 C12.84375,8.84375 12.546875,8.65625 12.203125,8.390625 C11.859375,8.140625 11.46875,7.78125 11.140625,7.390625 L10.578125,6.765625 C10.34375,6.515625 10.109375,6.265625 9.890625,6 C9.4375,5.46875 9.015625,4.96875 8.84375,4.71875 C8.703125,4.71875 8.5625,4.71875 8.421875,4.71875 C8.265625,4.71875 8.109375,4.71875 7.953125,4.734375 C7.671875,4.765625 7.390625,4.78125 7.203125,4.828125 C6.875,4.90625 6.796875,5.0625 6.796875,5.203125 C6.796875,5.3125 6.875,5.453125 7,5.5625 C7.109375,5.65625 7.25,5.765625 7.375,5.8125 Z M14.1875,2.6875 C14.703125,2.71875 15,2.6875 15.34375,2.5 C16.015625,2.109375 16.484375,1.53125 17.046875,0.59375 C17.359375,0.078125 17.65625,-0.484375 17.84375,-1.015625 C17.875,-1.125 17.9375,-1.21875 18.03125,-1.296875 C18.203125,-1.46875 18.40625,-1.5625 18.640625,-1.5625 C18.734375,-1.5625 18.84375,-1.53125 18.9375,-1.484375 C19.328125,-1.296875 19.484375,-0.734375 19.28125,-0.171875 C19.234375,-0.03125 19.171875,0.09375 19.09375,0.234375 C18.9375,0.515625 18.78125,0.78125 18.59375,1.015625 C18.421875,1.234375 18.3125,1.359375 18.09375,1.609375 C17.984375,1.71875 17.875,1.84375 17.75,1.96875 C17.5,2.21875 17.21875,2.46875 16.96875,2.65625 C16.3125,3.140625 15.796875,3.375 15.296875,3.40625 C14.9375,3.453125 14.375,3.34375 13.875,3.125 Z" transform="translate(0.0390625, 19.90625) scale(1, -1)"/>
</svg>