<svg height="19.453125" viewBox="0 0 24 19.453125" width="24" xmlns="http://www.w3.org/2000/svg">
<path d="M3.921875,17.15625 C4.0625,16.9375 4.296875,16.6875 4.578125,16.46875 C4.84375,16.234375 5.140625,16.03125 5.421875,15.9375 C5.84375,15.796875 6.4375,15.71875 7,15.703125 C7.5625,15.6875 8.109375,15.734375 8.46875,15.828125 C8.0625,14.890625 7.75,13.875 7.484375,12.84375 C7.234375,11.8125 7.015625,10.765625 6.875,9.734375 C5.984375,9.078125 5.09375,8.40625 4.4375,7.703125 C4.125,7.375 3.703125,6.890625 3.328125,6.421875 C2.953125,5.9375 2.609375,5.46875 2.46875,5.15625 C2.34375,4.890625 2.203125,4.578125 2.203125,4.21875 C2.203125,3.953125 2.25,3.671875 2.375,3.484375 C2.65625,3.03125 2.9375,2.546875 3.21875,2.0625 C3.484375,1.578125 3.71875,1.109375 3.890625,0.6875 C4.109375,0.171875 4.703125,0.03125 5.40625,0.3125 C5.71875,0.453125 6.09375,0.671875 6.453125,0.921875 C6.828125,1.15625 7.171875,1.453125 7.4375,1.703125 C7.578125,1.421875 7.859375,1.0625 8,0.921875 C8.328125,0.578125 8.734375,0.546875 9.03125,0.671875 C9.390625,0.828125 9.53125,1.25 9.21875,1.65625 C8.984375,1.96875 8.765625,2.328125 8.640625,2.640625 C10.015625,3.765625 11.28125,5.1875 12.265625,6.6875 C12.78125,7.453125 13.171875,8.328125 13.421875,9.171875 C13.671875,10.015625 13.765625,10.859375 13.703125,11.5625 C14.046875,11.625 14.46875,11.6875 14.90625,11.703125 C15.34375,11.703125 15.78125,11.671875 16.125,11.59375 C16.625,11.46875 16.953125,11.328125 17.109375,11.078125 C17.28125,10.828125 17.28125,10.453125 17.234375,9.890625 C17.1875,9.484375 17.09375,8.859375 16.96875,8.125 C16.84375,7.375 16.671875,6.5 16.46875,5.5625 C16.390625,5.234375 16.34375,5.015625 16.359375,4.84375 C16.375,4.671875 16.4375,4.5625 16.5625,4.46875 C16.625,4.40625 16.703125,4.359375 16.765625,4.296875 C16.890625,4.1875 17.046875,4.109375 17.265625,4.109375 C17.375,4.109375 17.484375,4.125 17.640625,4.171875 C17.859375,4.25 18.265625,4.28125 18.578125,4.28125 C19.46875,4.28125 19.8125,3.96875 19.8125,3.40625 C19.8125,2.75 19.390625,2.09375 18.359375,1.53125 C16.859375,0.703125 15.1875,0.21875 13.078125,-0.125 L13.4375,-0.828125 C15.734375,-0.53125 17.609375,-0.03125 19.03125,0.640625 C19.359375,0.796875 19.640625,0.953125 19.875,1.09375 C20.328125,1.359375 20.6875,1.640625 20.9375,1.96875 C21.171875,2.28125 21.546875,2.796875 21.546875,3.40625 C21.546875,4.34375 20.953125,4.8125 19.921875,5.046875 C19.328125,5.171875 18.6875,5.171875 17.796875,5.09375 C17.421875,5.046875 17.375,5.1875 17.46875,5.609375 C17.546875,5.921875 17.609375,6.21875 17.703125,6.484375 C17.84375,7.03125 18.015625,7.53125 18.15625,7.90625 C18.21875,8.09375 18.265625,8.265625 18.3125,8.40625 C18.375,8.609375 18.4375,8.796875 18.5,8.96875 C18.546875,9.125 18.609375,9.3125 18.6875,9.546875 C18.828125,9.921875 18.875,10.25 18.875,10.609375 C18.875,11.15625 18.4375,11.828125 17.453125,12.21875 C17.015625,12.390625 16.328125,12.5 15.53125,12.5 C15.265625,12.5 14.921875,12.5 14.5625,12.46875 C14.21875,12.453125 13.859375,12.421875 13.578125,12.390625 C13.34375,12.890625 12.875,13.34375 12.296875,13.578125 L11.703125,13.203125 C12.21875,12.921875 12.328125,12.625 12.40625,12.140625 C11.703125,12.015625 10.875,11.75 10.09375,11.40625 C9.296875,11.0625 8.546875,10.640625 8.015625,10.21875 C8.203125,11.0625 8.5,12.171875 8.84375,13.265625 C9.171875,14.34375 9.546875,15.390625 9.921875,16.125 C10.390625,16.171875 10.828125,16.296875 11.28125,16.46875 C11.609375,16.59375 11.859375,16.703125 12.140625,17.015625 C12.40625,17.3125 12.34375,17.609375 12,17.8125 C11.78125,17.9375 11.453125,18.21875 11.203125,18.453125 C11.09375,18.5625 10.984375,18.625 10.875,18.625 C10.765625,18.625 10.640625,18.59375 10.515625,18.546875 C10.15625,18.40625 9.78125,18.109375 9.53125,17.890625 C9.21875,17.609375 9.078125,17.40625 8.8125,17.0625 C8.625,17.015625 8.421875,16.984375 8.203125,16.953125 C7.765625,16.90625 7.28125,16.875 6.828125,16.875 C6.609375,16.875 6.40625,16.890625 6.21875,16.90625 C5.84375,16.9375 5.46875,17.015625 5.140625,17.15625 C4.8125,17.28125 4.53125,17.453125 4.375,17.640625 Z M12.453125,11.359375 C12.453125,10.90625 12.40625,10.265625 12.21875,9.515625 C12.03125,8.765625 11.703125,7.921875 11.1875,7.078125 C10.765625,6.40625 10.234375,5.75 9.71875,5.140625 C9.1875,4.546875 8.640625,4.015625 8.15625,3.625 C7.9375,4.203125 7.8125,5.09375 7.765625,6.046875 C7.71875,7.015625 7.75,8.03125 7.859375,8.90625 C9.5,10.296875 11.109375,11.015625 12.453125,11.359375 Z M6.578125,8.234375 C6.546875,7.765625 6.546875,7.28125 6.546875,6.78125 C6.546875,6.296875 6.546875,5.8125 6.59375,5.328125 C6.640625,4.390625 6.796875,3.5 7.03125,2.796875 L6.75,2.515625 C6.640625,2.421875 6.515625,2.328125 6.390625,2.21875 C6.109375,2.015625 5.796875,1.828125 5.375,1.71875 C4.640625,1.53125 4.234375,1.78125 3.875,2.453125 C3.59375,2.9375 3.5,3.390625 3.5625,3.875 C3.609375,4.375 3.84375,4.90625 4.21875,5.5625 C4.5,6.078125 4.921875,6.59375 5.34375,7.0625 C5.765625,7.53125 6.21875,7.953125 6.578125,8.234375 Z" transform="translate(0.125, 18.625) scale(1, -1)"/>
</svg>