<svg height="20.015625" viewBox="0 0 24 20.015625" width="24" xmlns="http://www.w3.org/2000/svg">
<path d="M9.671875,18.734375 C10.15625,18.640625 10.546875,18.453125 10.828125,18.171875 C11.390625,17.65625 11.3125,16.625 11.3125,15.796875 L11.3125,14.46875 C10.375,14.484375 9.59375,14.5625 8.921875,14.75 C8.234375,14.921875 7.640625,15.171875 7.078125,15.546875 L6.6875,14.984375 C7.359375,14.421875 8.046875,14 8.796875,13.71875 C9.546875,13.4375 10.359375,13.296875 11.328125,13.28125 L11.328125,9.140625 C11.328125,8.796875 11.1875,8.703125 10.921875,8.8125 C10.515625,9 9.96875,9.21875 9.3125,9.375 C8.65625,9.546875 7.859375,9.640625 6.9375,9.640625 C5.515625,9.640625 4.375,9.078125 3.578125,8.234375 C2.78125,7.390625 2.328125,6.234375 2.328125,5.0625 C2.328125,3.8125 2.703125,2.8125 3.21875,2.015625 C3.734375,1.21875 4.390625,0.625 5.015625,0.171875 C5.90625,-0.5 6.59375,-0.671875 7.15625,-0.671875 C7.5625,-0.671875 7.796875,-0.4375 7.875,0.125 C7.90625,0.359375 7.984375,0.671875 8.15625,1.0625 C8.390625,1.578125 8.71875,2.15625 9.109375,2.6875 C9.484375,3.203125 9.90625,3.703125 10.328125,4.125 L9.84375,4.625 C9.65625,4.484375 9.453125,4.296875 9.21875,4.0625 C8.734375,3.59375 8.234375,3.078125 7.765625,2.5625 L7.171875,1.875 C6.9375,1.609375 6.78125,1.4375 6.59375,1.390625 C6.40625,1.34375 6.203125,1.359375 5.859375,1.484375 C5.265625,1.6875 4.640625,2.171875 4.15625,2.8125 C3.6875,3.453125 3.34375,4.25 3.34375,5.140625 C3.34375,5.9375 3.640625,6.875 4.234375,7.578125 C4.828125,8.28125 5.703125,8.796875 6.875,8.796875 C8.046875,8.796875 8.84375,8.5 9.640625,8.015625 C9.84375,7.90625 10.03125,7.796875 10.203125,7.703125 C10.390625,7.609375 10.484375,7.53125 10.53125,7.484375 C10.78125,7.25 11.046875,7.15625 11.265625,7.15625 C11.578125,7.15625 11.828125,7.296875 12.140625,7.65625 C12.375,7.921875 12.515625,8.15625 12.59375,8.640625 C12.640625,8.953125 12.640625,9.40625 12.59375,9.71875 C12.46875,11.09375 12.46875,12.21875 12.5,13.296875 C13.765625,13.390625 15.03125,13.671875 15.96875,14.09375 C16.25,14.21875 16.484375,14.328125 16.609375,14.421875 C16.734375,14.515625 16.828125,14.59375 16.875,14.65625 C17,14.859375 17.015625,15.125 16.875,15.3125 C16.75,15.5 16.4375,15.609375 16.109375,15.640625 C15.828125,15.6875 15.484375,15.546875 15.171875,15.359375 C14.375,14.9375 13.484375,14.609375 12.546875,14.515625 C12.5625,14.75 12.578125,14.953125 12.59375,15.171875 L12.625,15.78125 C12.640625,16.015625 12.65625,16.203125 12.671875,16.390625 C12.6875,16.71875 12.75,16.953125 12.828125,17.234375 C12.859375,17.375 12.875,17.5625 12.875,17.796875 C12.875,17.984375 12.734375,18.234375 12.546875,18.4375 C12.34375,18.625 12.0625,18.8125 11.765625,18.921875 C11.0625,19.1875 10.515625,19.296875 9.9375,19.34375 Z M16.625,7.671875 C17.53125,7.4375 18.359375,7.015625 18.9375,6.40625 C19.53125,5.796875 19.875,5 19.875,3.96875 C19.875,3.703125 19.828125,3.53125 19.71875,3.453125 C19.53125,3.265625 19.109375,3.265625 18.65625,3.21875 L17.921875,3.109375 C17.390625,3.015625 16.8125,2.890625 16.375,2.734375 L16.5625,2.0625 C17.40625,2.265625 18.265625,2.328125 19.03125,2.140625 C19.328125,2.046875 19.578125,1.984375 19.765625,1.765625 C20,1.46875 20.46875,1.4375 20.90625,1.96875 C21.296875,2.453125 21.5625,3.25 21.4375,4.328125 C21.296875,5.59375 20.625,6.53125 19.765625,7.15625 C18.921875,7.796875 17.84375,8.140625 16.859375,8.234375 Z" transform="translate(0.0546875, 19.34375) scale(1, -1)"/>
</svg>