<svg height="18.84375" viewBox="0 0 24 18.84375" width="24" xmlns="http://www.w3.org/2000/svg">
<path d="M7.109375,18.09375 C7.5625,17.6875 7.578125,17.046875 7.203125,16.25 C7,15.828125 6.59375,15.21875 6.109375,14.53125 C5.625,13.828125 5.0625,13.0625 4.5625,12.421875 C4.046875,11.765625 3.578125,11.203125 3.296875,10.921875 C2.90625,10.53125 2.6875,10.28125 2.5625,10.09375 C2.421875,9.90625 2.375,9.765625 2.359375,9.625 C2.34375,9.546875 2.328125,9.390625 2.34375,9.21875 C2.359375,9.125 2.359375,9.03125 2.375,8.953125 L2.40625,8.703125 C2.53125,8.109375 2.640625,7.984375 2.984375,8.0625 C3.203125,8.109375 3.34375,8.296875 3.4375,8.421875 C3.796875,8.890625 4.015625,8.90625 4.25,8.546875 C4.390625,8.328125 4.484375,8.140625 4.578125,7.90625 C4.65625,7.671875 4.703125,7.390625 4.78125,7.015625 C4.828125,6.734375 4.859375,6.140625 4.875,5.40625 C4.875,4.671875 4.859375,3.78125 4.8125,2.984375 C4.765625,2.1875 4.6875,1.421875 4.578125,0.9375 C4.453125,0.390625 4.703125,-0.125 5.234375,-0.234375 C5.609375,-0.3125 5.90625,0.03125 6.09375,0.78125 C6.1875,1.109375 6.53125,1.703125 6.921875,2.3125 C7.296875,2.90625 7.765625,3.53125 8.109375,3.984375 L7.78125,4.46875 C7.515625,4.140625 7.203125,3.78125 6.890625,3.4375 C6.578125,3.078125 6.265625,2.75 5.984375,2.5 C6.0625,3.265625 6.0625,4.15625 6.015625,5 C5.96875,5.84375 5.875,6.640625 5.734375,7.25 C5.640625,7.671875 5.546875,7.984375 5.4375,8.234375 C5.328125,8.5 5.1875,8.6875 5,8.90625 C4.71875,9.171875 4.515625,9.3125 4.21875,9.34375 C4.015625,9.359375 3.90625,9.40625 3.90625,9.5 C3.90625,9.59375 3.96875,9.703125 4.125,9.875 C4.4375,10.234375 4.875,10.796875 5.359375,11.453125 C5.84375,12.09375 6.359375,12.828125 6.828125,13.515625 C7.296875,14.1875 7.71875,14.8125 8,15.265625 C8.359375,15.875 8.515625,16.296875 8.515625,17 C8.515625,17.359375 8.40625,17.640625 8.21875,17.890625 C8.03125,18.125 7.765625,18.328125 7.484375,18.53125 Z M12.3125,11.453125 C13.109375,11.90625 14.09375,12.234375 14.984375,12.5 C15.578125,12.6875 16.296875,12.734375 16.90625,12.734375 C17.421875,12.734375 17.5625,12.625 17.28125,12.1875 C17.1875,12.046875 16.953125,11.765625 16.671875,11.484375 C16.375,11.1875 16.046875,10.890625 15.796875,10.703125 L16.15625,10.34375 C16.421875,10.484375 16.78125,10.671875 17.1875,10.90625 C17.578125,11.140625 17.984375,11.421875 18.359375,11.703125 C18.984375,12.171875 19.21875,12.46875 19.21875,13.03125 C19.21875,13.265625 19.015625,13.484375 18.734375,13.671875 C18.4375,13.859375 18.03125,13.96875 17.59375,13.96875 C16.46875,13.96875 15.09375,13.671875 13.875,13.15625 C13.03125,12.78125 12.359375,12.296875 11.984375,11.890625 Z M10.765625,5.546875 C10.859375,4.796875 11.109375,4.265625 11.703125,3.625 C12.09375,3.203125 12.609375,2.90625 13.203125,2.71875 C13.78125,2.515625 14.421875,2.421875 15.125,2.359375 C16.71875,2.21875 18.296875,2.296875 19.375,2.46875 C19.75,2.53125 20.03125,2.59375 20.25,2.65625 C20.46875,2.734375 20.640625,2.796875 20.8125,2.9375 C21.234375,3.21875 21.15625,3.6875 20.84375,3.96875 C20.59375,4.1875 20.109375,4.296875 19.78125,4.125 C19.4375,3.953125 18.84375,3.828125 17.953125,3.734375 C17.453125,3.703125 17.046875,3.6875 16.59375,3.6875 C16.15625,3.6875 15.6875,3.6875 15.125,3.71875 C13.703125,3.796875 12.671875,4.109375 12.234375,4.4375 C11.703125,4.859375 11.5,5.234375 11.359375,5.796875 Z" transform="translate(0.21875, 18.53125) scale(1, -1)"/>
</svg>