<svg height="20.34375" viewBox="0 0 24 20.34375" width="24" xmlns="http://www.w3.org/2000/svg">
<path d="M6.34375,18.359375 C7.328125,18.21875 7.90625,17.734375 7.953125,16.78125 C8,15.84375 7.984375,14.65625 7.953125,13.203125 C7.515625,13.109375 7.015625,13.078125 6.4375,13.078125 C5.15625,13.078125 4.21875,13.578125 3.625,14.5625 L3.125,14.109375 C3.875,12.65625 4.859375,11.984375 6.40625,11.890625 C6.890625,11.84375 7.421875,11.890625 7.921875,11.984375 C7.90625,11.75 7.90625,11.53125 7.90625,11.3125 C7.90625,11.09375 7.890625,10.859375 7.875,10.625 C6.5625,8.09375 5.28125,5.96875 3.875,3.9375 C3.6875,3.6875 3.578125,3.515625 3.5,3.40625 L3.296875,3.078125 C3.125,2.796875 2.9375,2.5 2.9375,2.046875 C2.9375,1.796875 2.984375,1.609375 3.078125,1.484375 C3.265625,1.21875 3.484375,1.15625 3.6875,1.34375 C3.796875,1.4375 3.921875,1.625 4.109375,1.90625 L4.8125,3.046875 C5.703125,2.21875 6.25,1.625 6.625,1.109375 C6.984375,0.578125 7.140625,0.125 7.21875,-0.4375 C7.265625,-0.75 7.34375,-1.0625 7.625,-1.203125 C8.015625,-1.375 8.390625,-1.09375 8.671875,-0.6875 C8.9375,-0.265625 9.015625,0.109375 9.015625,0.625 C9.015625,0.875 9,1.171875 8.984375,1.515625 C8.890625,2.84375 8.875,4.203125 8.875,5.5 C8.875,6.140625 8.890625,6.765625 8.890625,7.359375 C8.90625,7.953125 8.90625,8.515625 8.90625,9.046875 C8.90625,10.21875 8.921875,11.265625 8.953125,12.171875 C9.890625,12.40625 10.78125,12.765625 11.453125,13.125 C11.9375,13.390625 12.078125,13.65625 12.078125,13.953125 C12.078125,14.1875 11.953125,14.4375 11.546875,14.46875 C11.25,14.515625 11.015625,14.453125 10.53125,14.15625 C10.03125,13.859375 9.546875,13.640625 9.03125,13.46875 C9.109375,14.734375 9.203125,15.765625 9.34375,16.609375 C9.46875,17.359375 9.484375,17.765625 9.1875,18.140625 C8.765625,18.703125 7.765625,18.921875 6.59375,18.96875 Z M15.296875,13.953125 C16.375,14.234375 17.484375,14.125 18.140625,13.8125 C18.546875,13.59375 18.65625,13.390625 18.453125,13.21875 C18.09375,12.890625 17.40625,12.390625 16.765625,11.953125 L17.203125,11.515625 C17.90625,11.9375 18.625,12.125 19.015625,12.234375 C19.15625,12.28125 19.359375,12.28125 19.53125,12.265625 C19.71875,12.265625 19.859375,12.21875 19.953125,12.171875 C20.140625,12.03125 20.4375,11.890625 20.65625,11.984375 C20.859375,12.0625 21.046875,12.265625 21.09375,12.5 C21.140625,12.734375 21.078125,13.109375 20.90625,13.375 C20.703125,13.6875 20.28125,14.09375 19.90625,14.3125 C19.15625,14.71875 18.328125,14.953125 17.484375,15 C16.640625,15.03125 15.78125,14.890625 15.078125,14.46875 Z M7.828125,8.59375 C7.8125,7.9375 7.796875,7.28125 7.78125,6.609375 C7.75,5.28125 7.71875,4.0625 7.6875,2.984375 L7.65625,1.578125 L5.15625,3.671875 C6.171875,5.390625 6.984375,6.90625 7.828125,8.59375 Z M14.1875,5.453125 C13.953125,4.859375 13.90625,4.328125 14.046875,3.625 C14.140625,3.046875 14.609375,2.359375 15.3125,1.953125 C15.796875,1.671875 16.46875,1.453125 17.21875,1.328125 C17.953125,1.1875 18.765625,1.140625 19.515625,1.171875 C20.09375,1.203125 20.515625,1.421875 20.515625,1.859375 C20.515625,2.09375 20.390625,2.296875 20.203125,2.4375 C20,2.5625 19.734375,2.640625 19.484375,2.640625 C18.171875,2.640625 16.859375,2.734375 15.96875,3.078125 C15.484375,3.265625 15,3.625 14.90625,3.984375 C14.75,4.53125 14.734375,4.90625 14.859375,5.234375 Z" transform="translate(-0.0390625, 18.96875) scale(1, -1)"/>
</svg>