<svg height="21.25" viewBox="0 0 24 21.25" width="24" xmlns="http://www.w3.org/2000/svg">
<path d="M12.265625,19.96875 C11.890625,19.0625 11.640625,18.0625 11.546875,17 C10.515625,16.625 9.40625,16.265625 8.234375,15.984375 C7.4375,15.78125 7.203125,15.921875 7.203125,16.375 C7.203125,16.609375 7.25,17.109375 7.4375,17.546875 L6.9375,17.796875 C6.390625,17.1875 6.125,16.234375 6.125,15.4375 C6.125,14.9375 6.296875,14.484375 6.671875,14.28125 C7.03125,14.0625 7.578125,14.09375 8.328125,14.515625 L8.796875,14.796875 C9.453125,14.46875 10.0625,14.140625 10.625,13.78125 C9.796875,13.296875 8.96875,12.8125 8.140625,12.359375 L5.734375,11.015625 C5.203125,10.71875 4.90625,10.21875 4.953125,9.359375 C4.953125,9.234375 4.984375,9.125 5.03125,9.03125 C5.109375,8.84375 5.296875,8.796875 5.59375,8.9375 C5.75,9.015625 5.921875,9.15625 6.140625,9.359375 C7.421875,10.578125 8.96875,11.515625 10.8125,12.359375 C11.703125,12.78125 12.734375,13.15625 13.71875,13.4375 C14.6875,13.703125 15.59375,13.875 16.203125,13.875 C16.484375,13.875 16.703125,13.859375 16.859375,13.8125 C17.1875,13.734375 17.25,13.625 17.03125,13.4375 C16.90625,13.34375 16.71875,13.25 16.4375,13.15625 C16.109375,13.015625 15.5625,12.8125 14.953125,12.546875 C14.328125,12.265625 13.625,11.953125 13.015625,11.65625 C12.390625,11.34375 11.8125,11.03125 11.46875,10.78125 C10.8125,10.296875 10.578125,9.96875 10.578125,9.484375 C10.578125,9.078125 11.03125,8.671875 11.5,8.546875 C12,8.40625 12.59375,8.34375 13.296875,8.3125 C11.859375,7.09375 10.453125,5.921875 9.09375,4.859375 C7.734375,3.78125 6.40625,2.84375 5.1875,2.109375 C4.90625,1.953125 4.625,1.65625 4.40625,1.28125 C4.171875,0.90625 4.015625,0.484375 4.015625,0.09375 C4.015625,0 4.03125,-0.09375 4.078125,-0.1875 C4.171875,-0.375 4.390625,-0.421875 4.75,-0.265625 C4.921875,-0.1875 5.140625,-0.03125 5.375,0.21875 C5.953125,0.78125 6.59375,1.390625 7.15625,1.90625 C7.71875,2.4375 8.234375,2.890625 8.609375,3.125 C9.28125,3.546875 9.796875,3.765625 10.171875,3.78125 C10.546875,3.78125 10.765625,3.59375 10.859375,3.171875 C10.90625,2.890625 10.90625,2.375 10.90625,1.828125 C10.890625,1.265625 10.84375,0.6875 10.78125,0.296875 C10.71875,-0.09375 10.765625,-0.5 10.90625,-0.78125 C11.03125,-1.078125 11.25,-1.28125 11.546875,-1.28125 C11.90625,-1.28125 12.09375,-1.109375 12.359375,-0.546875 C12.828125,0.34375 13.3125,0.96875 14.15625,1.578125 C14.875,2.109375 15.5,2.453125 16.0625,2.65625 C16.625,2.84375 17.140625,2.9375 17.59375,2.9375 C18.171875,2.9375 18.640625,2.59375 18.59375,1.921875 C18.578125,1.5 18.3125,1.109375 17.84375,0.765625 C17.34375,0.40625 16.578125,0.0625 15.546875,-0.296875 L15.9375,-0.890625 C17.375,-0.578125 18.453125,-0.171875 19.171875,0.359375 C19.90625,0.859375 20.265625,1.40625 20.265625,2 C20.265625,3.125 19.421875,3.734375 17.765625,3.734375 C17.109375,3.734375 16.234375,3.640625 15.140625,3.1875 C14.5625,2.953125 14.0625,2.671875 13.578125,2.34375 C13.109375,2 12.609375,1.625 12.046875,1.15625 L12.046875,2.03125 C12.046875,2.328125 12.03125,2.609375 12.03125,2.890625 C11.984375,3.453125 11.921875,3.90625 11.765625,4.125 C11.5625,4.40625 11.375,4.59375 11.109375,4.6875 C10.828125,4.765625 10.484375,4.734375 9.96875,4.578125 C10.671875,5.1875 11.40625,5.734375 12.15625,6.265625 C12.890625,6.78125 13.671875,7.328125 14.46875,7.90625 C15.046875,8.3125 15.1875,8.703125 15.09375,9 C15,9.296875 14.671875,9.46875 14.265625,9.5 C13.078125,9.5625 12.40625,9.59375 11.9375,9.71875 C11.796875,9.75 11.6875,9.78125 11.625,9.828125 C11.5625,9.859375 11.53125,9.890625 11.546875,9.953125 C11.5625,10.015625 11.625,10.078125 11.734375,10.15625 C11.84375,10.25 11.984375,10.34375 12.1875,10.46875 C12.5,10.671875 13.046875,10.90625 13.65625,11.140625 C14.265625,11.359375 14.953125,11.59375 15.578125,11.796875 C16.203125,11.984375 16.765625,12.125 17.140625,12.21875 C17.703125,12.34375 18.390625,12.453125 18.71875,12.5 C19.40625,12.59375 19.609375,12.9375 19.609375,13.375 C19.609375,13.703125 19.359375,14.015625 18.90625,14.25 C18.4375,14.484375 17.78125,14.640625 16.96875,14.640625 C15.890625,14.640625 14.5,14.5 12.625,13.921875 L12.625,14.15625 C14.453125,15.1875 15.59375,15.734375 16.4375,16.109375 C16.953125,16.34375 17.296875,16.515625 17.46875,16.71875 C17.65625,16.90625 17.640625,17.140625 17.453125,17.46875 C17.359375,17.65625 17.1875,17.875 17.015625,18.046875 C16.71875,18.34375 16.484375,18.390625 16.0625,18.390625 C15.734375,18.390625 15.21875,18.265625 14.609375,18.078125 C14,17.890625 13.28125,17.625 12.53125,17.359375 C12.5625,18.296875 12.640625,19.109375 12.828125,19.8125 Z M14.703125,17.515625 C15,17.625 15.203125,17.671875 15.328125,17.671875 C15.453125,17.65625 15.546875,17.609375 15.640625,17.5 C15.828125,17.3125 15.828125,17.015625 15.34375,16.671875 C14.6875,16.21875 13.703125,15.59375 12.578125,14.9375 C12.53125,15.5 12.53125,16.078125 12.53125,16.609375 C13.515625,17.046875 14.296875,17.375 14.703125,17.515625 Z M11.46875,16.109375 C11.46875,15.78125 11.453125,15.5 11.453125,15.21875 C11.453125,14.921875 11.46875,14.59375 11.5,14.140625 C10.84375,14.5 10.140625,14.84375 9.484375,15.125 C10.140625,15.484375 10.8125,15.828125 11.46875,16.109375 Z" transform="translate(-0.140625, 19.96875) scale(1, -1)"/>
</svg>