<svg height="21.546875" viewBox="0 0 24 21.546875" width="24" xmlns="http://www.w3.org/2000/svg">
<path d="M6.09375,19.15625 C6.84375,18.96875 7.296875,18.578125 7.421875,17.6875 C7.5,17.1875 7.5,16.5625 7.46875,15.96875 C6.828125,15.796875 6.265625,15.71875 5.84375,15.71875 C5.3125,15.71875 4.9375,15.78125 4.625,15.90625 C4.296875,16.015625 4.0625,16.203125 3.828125,16.4375 L3.53125,16.03125 C4.109375,15.09375 4.875,14.6875 6.140625,14.6875 C6.484375,14.6875 6.921875,14.734375 7.390625,14.84375 L7.390625,12.03125 C6.984375,11.796875 6.359375,11.4375 5.703125,11.03125 C5.046875,10.625 4.421875,10.203125 4.03125,9.890625 C3.5,9.453125 3.34375,9.234375 3.34375,8.90625 C3.34375,8.609375 3.671875,8.328125 4.0625,8.15625 C4.4375,7.984375 4.84375,7.8125 5.15625,7.609375 C5.53125,7.375 5.9375,7.0625 6.3125,6.734375 C6.671875,6.40625 6.96875,6.078125 7.15625,5.84375 C7.390625,5.5 7.53125,5.359375 7.765625,5.359375 C8.046875,5.359375 8.265625,5.515625 8.421875,5.84375 C8.609375,6.15625 8.6875,6.625 8.640625,7.515625 C8.59375,8.359375 8.578125,9.53125 8.546875,11.453125 C9.25,11.9375 10.0625,12.484375 10.921875,13.015625 C11.765625,13.5625 12.65625,14.109375 13.484375,14.609375 C13.90625,13.4375 14.296875,12.34375 14.703125,11.40625 C14.484375,11.234375 14.21875,11 13.90625,10.765625 C13.578125,10.5 13.25,10.234375 12.921875,9.96875 C12.234375,9.40625 11.546875,8.84375 11.09375,8.40625 C10.484375,7.828125 10.375,7.25 11,6.546875 C11.09375,6.453125 11.25,6.28125 11.4375,6.125 C11.625,5.984375 11.84375,5.8125 12.03125,5.6875 C12.125,5.609375 12.171875,5.46875 12.125,5.21875 C12.09375,4.96875 11.984375,4.671875 11.796875,4.34375 C11.640625,4.078125 11.375,3.59375 11.109375,3.0625 C10.859375,2.515625 10.59375,1.9375 10.484375,1.515625 C10.390625,1.125 10.34375,0.671875 10.34375,0.390625 C10.34375,-0.046875 10.515625,-0.546875 11.203125,-0.96875 C11.75,-1.28125 12.65625,-1.4375 13.484375,-1.46875 C14.1875,-1.5 14.84375,-1.4375 15.21875,-1.25 C15.546875,-1.0625 15.65625,-0.734375 15.453125,-0.453125 C15.28125,-0.21875 15.125,-0.078125 14.9375,-0.03125 C14.75,0.015625 14.59375,-0.015625 14.453125,-0.03125 C13.90625,-0.109375 13.453125,-0.125 13.078125,-0.09375 C12.328125,-0.03125 11.921875,0.09375 11.59375,0.390625 C11.453125,0.5 11.390625,0.78125 11.390625,1.125 C11.390625,1.46875 11.46875,1.859375 11.640625,2.1875 C11.78125,2.46875 12.125,2.984375 12.484375,3.5 C12.84375,4.015625 13.21875,4.53125 13.46875,4.859375 C13.8125,5.28125 13.921875,5.609375 13.875,5.90625 C13.8125,6.234375 13.515625,6.5 13.21875,6.59375 C12.8125,6.734375 12.359375,6.953125 12.03125,7.21875 C11.5625,7.578125 11.65625,7.890625 11.890625,8.109375 C12.171875,8.40625 12.640625,8.796875 13.203125,9.21875 C13.765625,9.640625 14.421875,10.078125 15.09375,10.53125 C15.96875,8.75 16.71875,7.578125 17.359375,6.71875 C17.5625,6.4375 17.890625,6.265625 18.21875,6.21875 C18.53125,6.171875 18.828125,6.265625 18.96875,6.484375 C19.109375,6.703125 19.0625,7.109375 19.015625,7.765625 C18.96875,8.140625 19.03125,8.953125 19.1875,9.90625 C19.328125,10.84375 19.578125,11.9375 19.953125,12.875 C20.09375,13.265625 20.1875,13.59375 20.234375,13.84375 C20.265625,14.09375 20.1875,14.25 20.015625,14.359375 C19.78125,14.5 19.53125,14.484375 19.296875,14.4375 C19.046875,14.375 18.8125,14.265625 18.671875,14.1875 C18.296875,13.953125 17.8125,13.671875 17.296875,13.3125 C16.78125,12.96875 16.234375,12.546875 15.71875,12.171875 C15.546875,12.59375 15.328125,13.15625 15.125,13.71875 C14.90625,14.28125 14.703125,14.84375 14.59375,15.265625 C15.625,15.875 16.4375,16.3125 16.90625,16.515625 C17.984375,16.984375 18.046875,17.65625 17.0625,18.03125 C16.171875,18.359375 15.265625,18.890625 14.515625,19.34375 C13.40625,20.046875 12.84375,19.53125 12.796875,18.21875 C12.765625,17.46875 12.96875,16.4375 13.25,15.453125 L10.859375,14.046875 C10.03125,13.5625 9.265625,13.09375 8.515625,12.640625 L8.515625,15.125 C9.359375,15.359375 10.203125,15.6875 10.8125,16.0625 C11.125,16.25 11.234375,16.421875 11.234375,16.609375 C11.1875,16.734375 11.140625,16.921875 10.96875,17.015625 C10.78125,17.15625 10.421875,17.1875 10.21875,17.1875 C9.953125,17.140625 9.796875,17.125 9.40625,16.859375 C9.1875,16.703125 8.90625,16.484375 8.59375,16.34375 C8.640625,16.765625 8.703125,17.15625 8.796875,17.515625 C8.9375,18.1875 8.9375,18.59375 8.515625,18.9375 C8.328125,19.09375 8.046875,19.25 7.671875,19.390625 C7.296875,19.53125 6.875,19.640625 6.4375,19.671875 Z M14.703125,18.484375 L15.015625,18.28125 C15.125,18.203125 15.234375,18.125 15.359375,18.0625 C15.59375,17.921875 15.8125,17.796875 15.984375,17.703125 C16.328125,17.5625 16.28125,17.21875 15.984375,17.046875 L15.234375,16.625 C14.96875,16.46875 14.671875,16.296875 14.375,16.125 C14.28125,16.5625 14.1875,17.046875 14.109375,17.59375 C13.984375,18.4375 14.203125,18.84375 14.703125,18.484375 Z M18.53125,12.734375 C18.9375,12.984375 19.109375,12.84375 18.96875,12.453125 C18.828125,12.125 18.625,11.421875 18.421875,10.625 C18.21875,9.828125 18.03125,8.953125 17.9375,8.28125 L17.84375,8.28125 C17.265625,9.171875 16.703125,10.015625 16.125,11.234375 C16.59375,11.5625 17.046875,11.84375 17.46875,12.09375 Z M7.390625,7.296875 C7.15625,7.4375 6.765625,7.640625 6.359375,7.828125 C5.96875,8.015625 5.546875,8.21875 5.234375,8.359375 C4.8125,8.53125 4.859375,8.78125 5.140625,9.046875 C5.375,9.296875 5.796875,9.640625 6.234375,9.984375 C6.65625,10.328125 7.109375,10.65625 7.390625,10.859375 Z" transform="translate(0.1953125, 20.046875) scale(1, -1)"/>
</svg>