<svg height="19.453125" viewBox="0 0 24 19.453125" width="24" xmlns="http://www.w3.org/2000/svg">
<path d="M11.328125,18.578125 C11.09375,18.640625 10.71875,18.65625 10.34375,18.640625 C9.96875,18.640625 9.546875,18.59375 9.171875,18.546875 L9,17.984375 C9.515625,17.96875 9.921875,17.921875 10.25,17.75 C10.5625,17.5625 10.765625,17.234375 10.90625,16.671875 C10.96875,16.34375 11.0625,15.921875 11.1875,15.390625 C11.296875,14.859375 11.421875,14.28125 11.5625,13.609375 C9.21875,12.890625 7.46875,12.890625 6.046875,13.921875 L5.65625,13.4375 C6.03125,13.078125 6.359375,12.8125 6.6875,12.625 C7.03125,12.421875 7.390625,12.265625 7.828125,12.171875 C8.578125,11.984375 9.359375,12.015625 10.4375,12.140625 C10.859375,12.1875 11.328125,12.3125 11.84375,12.453125 C12.203125,10.8125 12.59375,8.9375 12.96875,7.109375 C13.34375,5.28125 13.703125,3.484375 13.96875,2 C13.578125,2.21875 13.015625,2.5625 12.421875,2.9375 C11.828125,3.3125 11.203125,3.703125 10.71875,4.03125 L10.5625,3.453125 C11.046875,3.046875 11.609375,2.578125 12.109375,2.140625 C12.609375,1.6875 13.046875,1.28125 13.28125,1.03125 C13.71875,0.5625 13.84375,0.09375 13.96875,-0.265625 C14.125,-0.734375 14.5,-0.796875 14.734375,-0.796875 C15,-0.796875 15.21875,-0.5625 15.375,-0.28125 C15.515625,0 15.59375,0.328125 15.59375,0.546875 C15.59375,1.296875 15.59375,1.8125 15.359375,2.46875 C15.171875,3.078125 14.90625,4.015625 14.640625,5.140625 C14.375,6.265625 14.078125,7.578125 13.796875,8.9375 C13.515625,10.28125 13.25,11.640625 13.015625,12.875 C13.4375,13.015625 13.84375,13.171875 14.234375,13.34375 C15.03125,13.703125 15.8125,14.046875 16.25,14.359375 C16.46875,14.515625 16.609375,14.625 16.671875,14.703125 C17,15.09375 16.828125,15.453125 16.484375,15.625 C16.21875,15.78125 15.90625,15.796875 15.546875,15.71875 C15.3125,15.65625 15.046875,15.453125 14.765625,15.21875 C14.5,14.984375 14.25,14.796875 13.953125,14.609375 C13.671875,14.421875 13.296875,14.234375 12.828125,14.046875 C12.546875,15.40625 12.40625,16.4375 12.359375,16.921875 C12.3125,17.515625 12.203125,17.890625 12.03125,18.140625 C11.84375,18.390625 11.625,18.5 11.328125,18.578125 Z M19.03125,16.015625 C19.6875,15.78125 20.140625,15.390625 20.140625,14.984375 C20.140625,14.5625 20.0625,14.171875 19.890625,13.71875 C19.71875,13.25 19.4375,12.734375 19.015625,12.078125 C18.828125,11.796875 18.5,11.375 18.078125,10.890625 C17.65625,10.40625 17.140625,9.875 16.578125,9.40625 L17,9.046875 C18.125,9.796875 19.125,10.515625 20.0625,11.59375 C20.625,12.25 21.015625,12.828125 21.265625,13.296875 C21.5,13.765625 21.625,14.140625 21.671875,14.40625 C21.75,14.84375 21.671875,15.171875 21.53125,15.40625 C21.375,15.640625 21.15625,15.8125 20.953125,15.9375 C20.59375,16.15625 20.046875,16.390625 19.390625,16.46875 Z M4.03125,7.859375 C3.734375,7.421875 3.625,6.84375 3.625,6.3125 C3.625,5.75 3.6875,5 3.828125,4.25 C3.96875,3.5 4.21875,2.71875 4.5625,2.0625 C5,1.21875 5.375,0.875 5.84375,0.875 C6.21875,0.875 6.453125,1.0625 6.625,1.859375 C6.671875,2.078125 6.78125,2.375 6.9375,2.734375 C7.25,3.453125 7.5625,4.140625 7.953125,4.84375 C8.140625,5.1875 8.34375,5.578125 8.5625,6.03125 L8.265625,6.453125 C7.609375,5.609375 7.15625,4.96875 6.828125,4.484375 C6.546875,4.09375 6.328125,3.78125 6.171875,3.59375 C6.03125,3.375 5.90625,3.265625 5.84375,3.265625 C5.640625,3.265625 5.484375,3.46875 5.359375,3.671875 C5.21875,3.890625 5.03125,4.3125 4.859375,4.796875 C4.671875,5.265625 4.5,5.796875 4.4375,6.265625 C4.359375,6.78125 4.40625,7.28125 4.484375,7.65625 Z" transform="translate(-0.6875, 18.65625) scale(1, -1)"/>
</svg>