<svg height="18.53125" viewBox="0 0 24 18.53125" width="24" xmlns="http://www.w3.org/2000/svg">
<path d="M13.015625,17.640625 C13.109375,17.015625 13.265625,16.46875 13.515625,16.03125 C13.796875,15.53125 14.140625,15.5 14.421875,15.5 C14.890625,15.5 15.21875,15.5625 15.625,15.734375 C16.0625,15.921875 16.578125,16.171875 17.1875,16.46875 C16.609375,15.046875 15.96875,13.75 15.390625,12.578125 C15.203125,12.1875 15.203125,12.015625 15.21875,11.84375 C15.25,11.640625 15.359375,11.53125 15.484375,11.46875 C15.625,11.390625 15.828125,11.453125 16.015625,11.546875 C16.34375,11.71875 16.90625,11.703125 17.3125,11.515625 C17.625,11.375 17.84375,11 17.84375,10.328125 C17.84375,9.65625 17.703125,9.03125 17.46875,8.375 C17.21875,7.703125 16.859375,7.015625 16.375,6.21875 C15.34375,4.515625 14.1875,3.09375 12.96875,1.921875 C12.53125,1.515625 12.4375,1.375 12.4375,1.109375 C12.4375,0.828125 12.75,0.390625 13.375,0.09375 C14.03125,-0.21875 15.140625,-0.359375 16.328125,-0.359375 C16.90625,-0.359375 17.515625,-0.359375 18.0625,-0.3125 C18.59375,-0.265625 19.0625,-0.234375 19.375,-0.1875 C19.921875,-0.109375 20.34375,0 20.46875,0.3125 C20.5625,0.5 20.53125,0.734375 20.3125,0.96875 C20.09375,1.1875 19.703125,1.328125 19.375,1.375 C18.890625,1.453125 18.359375,1.34375 17.796875,1.25 C17,1.109375 16.296875,1.0625 15.6875,1.0625 C15.09375,1.0625 14.453125,1.140625 14.109375,1.21875 C13.53125,1.34375 13.484375,1.484375 13.859375,1.828125 C15.125,3 16.25,4.25 17.453125,5.953125 C17.984375,6.703125 18.46875,7.453125 18.828125,8.1875 C19.203125,8.90625 19.421875,9.625 19.421875,10.328125 C19.421875,11.796875 18.71875,12.546875 17.640625,12.546875 C17.140625,12.546875 16.71875,12.5 16.25,12.359375 C16.4375,12.703125 16.640625,13.015625 16.828125,13.34375 C17,13.65625 17.1875,13.953125 17.375,14.25 C17.734375,14.84375 18.078125,15.4375 18.5,16.0625 C18.75,16.421875 18.921875,16.625 19.203125,16.953125 C19.390625,17.171875 19.421875,17.453125 19.21875,17.6875 C19.09375,17.84375 18.9375,17.921875 18.671875,18.046875 C18.390625,18.171875 18.109375,18.125 17.84375,17.953125 C17.734375,17.890625 17.609375,17.828125 17.5,17.765625 C17.375,17.703125 17.234375,17.625 17.0625,17.546875 C16.84375,17.4375 16.53125,17.296875 16.1875,17.1875 C15.828125,17.0625 15.4375,16.953125 15.078125,16.921875 C14.1875,16.84375 13.8125,17.109375 13.515625,17.859375 Z M3.03125,16.859375 C3.203125,16.375 3.3125,16.0625 3.53125,15.71875 C3.78125,15.34375 4.125,15.078125 4.34375,14.9375 C4.875,14.5625 5.328125,14.546875 6.078125,14.765625 C6.625,14.9375 7.078125,15.09375 7.625,15.359375 C7.0625,14.390625 6.375,13.234375 5.703125,12.0625 L3.71875,8.625 C3.125,7.578125 2.625,6.671875 2.3125,6.078125 C2.0625,5.609375 1.875,5.328125 1.703125,5.0625 C1.484375,4.71875 1.421875,4.296875 1.421875,3.9375 C1.421875,3.625 1.453125,3.234375 1.625,2.703125 C1.71875,2.421875 1.90625,2.3125 2.09375,2.3125 C2.171875,2.3125 2.28125,2.375 2.390625,2.5 C2.5,2.609375 2.609375,2.796875 2.6875,3.046875 C2.984375,3.9375 3.25,4.609375 3.625,5.3125 C4.078125,6.15625 4.34375,6.171875 4.53125,5.375 C4.671875,4.8125 4.796875,4.109375 4.828125,3.5 C4.859375,2.703125 4.953125,2.375 5.234375,2.1875 C5.546875,1.953125 5.796875,1.890625 6.03125,2.046875 C6.34375,2.265625 6.34375,2.734375 6.34375,3.34375 C6.34375,4.015625 6.484375,4.890625 6.625,5.6875 C6.71875,6.21875 6.875,6.6875 7.0625,7.203125 C7.125,7.390625 7.203125,7.484375 7.296875,7.484375 C7.390625,7.484375 7.46875,7.40625 7.53125,7.25 C7.8125,6.59375 8.125,5.65625 8.3125,4.859375 C8.453125,4.234375 8.640625,3.828125 9,3.640625 C9.140625,3.578125 9.25,3.53125 9.328125,3.5 C9.46875,3.453125 9.78125,3.4375 9.96875,3.75 C10.15625,4.0625 10.25,4.953125 10.390625,5.796875 C10.4375,6.234375 10.53125,6.703125 10.65625,7.21875 L10.90625,8.375 C11,8.734375 11.0625,9.078125 11.140625,9.421875 C11.296875,10.109375 11.484375,10.765625 11.734375,11.546875 L11.28125,11.703125 C10.90625,10.828125 10.5625,9.96875 10.25,9.03125 C9.921875,8.09375 9.640625,7.09375 9.3125,5.984375 C9.21875,6.34375 9.109375,6.609375 8.984375,6.875 C8.875,7.125 8.734375,7.359375 8.546875,7.671875 C8.25,8.1875 7.90625,8.40625 7.421875,8.40625 C7.015625,8.40625 6.65625,8.09375 6.34375,7.4375 C6.078125,6.921875 5.890625,6.4375 5.703125,5.640625 C5.578125,6.15625 5.421875,6.5 5.25,6.703125 C5.078125,6.890625 4.875,6.984375 4.65625,6.984375 C4.53125,6.984375 4.375,6.9375 4.203125,6.828125 C4.046875,6.734375 3.84375,6.53125 3.625,6.234375 C4.109375,7.3125 4.53125,8.171875 4.9375,8.9375 C5.34375,9.71875 5.71875,10.390625 6.140625,11.09375 C6.796875,12.203125 7.296875,12.953125 7.71875,13.5625 C8.15625,14.15625 8.5625,14.59375 9.03125,15.09375 C9.359375,15.453125 9.59375,15.6875 10.015625,16.0625 C10.46875,16.453125 10.546875,16.765625 10.28125,17 C10.109375,17.140625 9.96875,17.234375 9.734375,17.3125 C9.328125,17.453125 9.046875,17.328125 8.765625,17.15625 C8.375,16.921875 8.015625,16.734375 7.46875,16.515625 C6.71875,16.21875 6.1875,16.0625 5.5625,16.0625 C5.046875,16.0625 4.5625,16.15625 4.15625,16.4375 C3.875,16.625 3.6875,16.859375 3.453125,17.265625 Z" transform="translate(1.0078125, 18.171875) scale(1, -1)"/>
</svg>