<svg height="20.484375" viewBox="0 0 24 20.484375" width="24" xmlns="http://www.w3.org/2000/svg">
<path d="M14.6875,19.328125 C14.3125,19.5 14.015625,19.4375 13.671875,19.25 C13.34375,19.0625 13.15625,18.953125 12.875,18.828125 C12.21875,18.546875 11.65625,18.359375 11.109375,18.21875 C10.546875,18.0625 10.015625,17.9375 9.4375,17.84375 C8.90625,17.734375 8.40625,17.71875 8.0625,17.90625 C7.625,18.140625 7.328125,18.46875 7.15625,18.890625 L6.59375,18.5 C6.78125,17.9375 7.0625,17.359375 7.484375,16.90625 C7.96875,16.375 8.59375,16.296875 9.671875,16.671875 C10.953125,17.140625 12.34375,17.703125 13.5625,18.3125 C13.859375,18.453125 13.984375,18.25 13.90625,17.90625 C13.71875,17.15625 13.53125,16.515625 13.34375,16.109375 C13.15625,15.640625 13.234375,15.296875 13.828125,15.125 C14.3125,14.984375 14.75,14.84375 15.390625,14.40625 C16.0625,13.953125 16.25,13.203125 16.25,12.171875 C16.25,11.421875 15.953125,10.734375 15.453125,10.1875 C14.96875,9.625 14.28125,9.203125 13.53125,9 C14.328125,9.84375 14.6875,10.796875 14.6875,11.546875 C14.6875,12.625 13.953125,13.375 12.53125,13.46875 C12.71875,15.296875 12.078125,15.96875 10.765625,15.96875 C10.109375,15.96875 9.328125,15.578125 8.703125,14.890625 C8.0625,14.21875 7.578125,13.25 7.515625,12.125 C5.390625,11.09375 4.359375,9.96875 4.4375,8.9375 C4.453125,8.5625 4.578125,8.265625 4.828125,8.03125 C5.078125,7.796875 5.46875,7.671875 6.03125,7.671875 C7.34375,7.71875 8.515625,8.09375 9.546875,8.796875 C10.015625,8.515625 10.53125,8.328125 11.109375,8.203125 C9.59375,7.03125 7.96875,6.078125 6,5.046875 C5.1875,4.609375 4.578125,4.5 3.875,4.53125 C3.296875,4.578125 2.765625,4.703125 2.46875,5 L2.0625,4.484375 C2.5,4.015625 3,3.640625 3.515625,3.359375 C4.015625,3.078125 4.515625,2.9375 4.96875,2.9375 C5.640625,2.9375 6.25,3.03125 6.96875,3.453125 C7.71875,3.921875 8.421875,4.328125 9.140625,4.65625 C10.140625,5.125 11.375,5.59375 12.609375,6.015625 C13.859375,6.421875 15.109375,6.78125 16.203125,7.046875 C17.28125,7.296875 18.1875,7.4375 18.734375,7.4375 C19.046875,7.4375 19.28125,7.421875 19.4375,7.359375 C19.765625,7.25 20.078125,6.890625 20,6.734375 C19.9375,6.5625 19.75,6.421875 19.390625,6.3125 C19.21875,6.25 19.03125,6.171875 18.84375,6.125 C18.25,5.9375 17.609375,5.75 16.9375,5.5625 C16.25,5.359375 15.5625,5.15625 14.875,4.953125 C13.5,4.53125 12.171875,4.046875 11.140625,3.4375 C10.71875,3.1875 10.34375,2.90625 10.0625,2.578125 C9.78125,2.234375 9.609375,1.84375 9.625,1.375 C9.65625,0.625 10.03125,0 10.96875,-0.4375 C11.90625,-0.875 12.96875,-0.984375 13.90625,-0.984375 C14.609375,-0.984375 15.296875,-0.9375 15.71875,-0.796875 C16.078125,-0.671875 16.25,-0.4375 16.25,-0.21875 C16.25,0.21875 15.90625,0.40625 15.671875,0.453125 C15.4375,0.484375 15.125,0.421875 14.625,0.359375 C14.375,0.328125 14.078125,0.328125 13.71875,0.34375 C12.6875,0.390625 11.953125,0.484375 11.328125,0.78125 C10.921875,0.96875 10.671875,1.21875 10.625,1.609375 C10.578125,2.1875 10.984375,2.546875 11.640625,2.890625 C12.734375,3.453125 14,3.890625 15.3125,4.265625 C16.640625,4.640625 18.046875,4.9375 19.4375,5.1875 C20.234375,5.328125 20.703125,5.46875 21.078125,5.65625 C21.453125,5.890625 21.671875,6.234375 21.671875,6.546875 C21.671875,6.921875 21.5,7.296875 20.8125,7.8125 C20.296875,8.1875 19.578125,8.328125 18.671875,8.265625 C17.9375,8.203125 16.90625,8 15.75,7.71875 C14.609375,7.4375 13.34375,7.09375 12.171875,6.71875 C10.984375,6.34375 9.875,5.953125 9.03125,5.609375 C8.1875,5.28125 7.546875,5.0625 6.890625,4.921875 C8.59375,5.78125 10.578125,6.734375 12.453125,8.09375 C13.8125,8.09375 15.171875,8.515625 16.15625,9.21875 C17.15625,9.921875 17.8125,10.9375 17.8125,12.171875 C17.8125,12.765625 17.671875,13.34375 17.40625,13.84375 C17.140625,14.34375 16.71875,14.765625 16.203125,15.046875 C15.59375,15.359375 14.8125,15.546875 14.3125,15.625 C14,15.65625 13.9375,15.8125 14.09375,16.0625 C14.421875,16.609375 14.859375,17.140625 15.265625,17.609375 C15.734375,18.171875 15.734375,18.40625 15.484375,18.78125 C15.265625,19.09375 15,19.1875 14.6875,19.328125 Z M10.375,15.046875 C11.140625,15.046875 11.265625,14.5 11.15625,13.375 C10.28125,13.21875 9.359375,12.9375 8.375,12.5 C8.46875,13.203125 8.734375,13.859375 9.109375,14.3125 C9.46875,14.765625 9.921875,15.046875 10.375,15.046875 Z M12.359375,12.59375 C12.9375,12.515625 13.25,12.21875 13.25,11.453125 C13.25,11.09375 13.109375,10.65625 12.875,10.203125 C12.640625,9.765625 12.328125,9.296875 11.953125,8.90625 C11.296875,8.984375 10.765625,9.125 10.28125,9.359375 C11.3125,10.25 12.03125,11.375 12.359375,12.59375 Z M11.015625,12.546875 C10.71875,11.46875 10.1875,10.53125 9.484375,9.875 C8.859375,10.375 8.46875,11.015625 8.375,11.734375 C9.359375,12.171875 10.171875,12.421875 11.015625,12.546875 Z M7.5625,11.375 C7.703125,10.625 8.140625,9.890625 8.84375,9.296875 C8.046875,8.703125 7.125,8.40625 6.1875,8.359375 C5.53125,8.328125 5.328125,8.59375 5.328125,9.140625 C5.328125,9.84375 6.046875,10.578125 7.5625,11.375 Z" transform="translate(0.1328125, 19.5) scale(1, -1)"/>
</svg>