<svg height="18.40625" viewBox="0 0 24 18.40625" width="24" xmlns="http://www.w3.org/2000/svg">
<path d="M9.6875,16.625 C9.984375,16.8125 10.25,16.875 10.484375,16.8125 C10.953125,16.71875 11.015625,16.125 11.140625,15.671875 C11.203125,15.4375 11.28125,15.25 11.359375,15.125 C11.515625,14.84375 11.796875,14.75 12.140625,14.8125 C12.46875,14.890625 12.859375,15.09375 13.203125,15.453125 C14,16.3125 14.96875,16.796875 16.078125,16.90625 C16.34375,16.921875 16.5625,16.921875 16.75,16.890625 C17.109375,16.828125 17.1875,16.609375 16.90625,16.15625 C16.765625,15.9375 16.484375,15.640625 16.109375,15.296875 C14.75,14.0625 13.15625,12.75 11.515625,11.453125 C9.875,10.15625 8.1875,8.890625 6.59375,7.71875 C6.328125,7.53125 6.140625,7.390625 6.015625,7.3125 C5.765625,7.140625 5.515625,7.03125 5.328125,6.9375 C5.21875,6.890625 5.125,6.828125 5.046875,6.78125 C4.8125,6.59375 4.671875,6.4375 4.5625,6.078125 C4.46875,5.734375 4.421875,5.359375 4.46875,5.0625 C4.546875,4.5625 4.96875,4.484375 5.546875,4.96875 C5.8125,5.1875 6.125,5.40625 6.453125,5.625 C6.796875,5.84375 7.125,6.046875 7.46875,6.265625 C10.296875,8.09375 12.640625,8.796875 14.65625,8.796875 C15.984375,8.78125 16.875,8.40625 17.4375,7.828125 C18,7.25 18.234375,6.46875 18.234375,5.65625 C18.234375,4.671875 17.9375,3.703125 17.390625,2.90625 C16.84375,2.09375 16.046875,1.4375 15.046875,1.03125 C14.53125,2.15625 13.75,3 12.859375,3.578125 C11.96875,4.15625 10.984375,4.4375 10.0625,4.4375 C9.265625,4.4375 8.6875,4.1875 8.28125,3.78125 C7.859375,3.390625 7.671875,2.84375 7.671875,2.265625 C7.6875,1.453125 8.09375,0.765625 8.78125,0.28125 C9.453125,-0.203125 10.421875,-0.484375 11.59375,-0.484375 C12.75,-0.484375 13.734375,-0.359375 14.609375,-0.15625 C15.46875,0.0625 16.234375,0.375 16.953125,0.796875 C18.734375,1.84375 19.828125,3.359375 19.875,5.609375 C19.890625,6.734375 19.453125,7.71875 18.640625,8.46875 C17.84375,9.203125 16.65625,9.65625 15.1875,9.671875 C12.703125,9.703125 10.171875,8.984375 7.578125,7.25 L7.53125,7.328125 C8.234375,7.875 8.921875,8.4375 9.640625,8.984375 C11.046875,10.109375 12.390625,11.140625 13.578125,12.046875 C14.1875,12.5 14.703125,12.921875 15.1875,13.28125 C16.4375,14.234375 17.546875,14.9375 18.09375,15.265625 C18.75,15.640625 19.171875,16.03125 19.171875,16.515625 C19.171875,16.875 19.03125,17.234375 18.40625,17.546875 C17.84375,17.828125 17.015625,17.84375 16.171875,17.65625 C14.875,17.375 13.96875,16.859375 13.28125,16.4375 C13.0625,16.3125 12.859375,16.234375 12.6875,16.25 C12.5,16.25 12.328125,16.390625 12.1875,16.703125 C11.625,17.921875 10.6875,17.890625 9.390625,17 Z M4.484375,17.265625 C4.359375,15.84375 4.46875,14.5625 5.0625,13.671875 C5.421875,13.15625 5.765625,13.109375 6.046875,13.109375 C6.34375,13.109375 6.453125,13.28125 6.59375,13.5625 C6.6875,13.765625 6.921875,14.1875 7.15625,14.453125 C7.5625,14.953125 7.96875,15.34375 8.515625,15.828125 L8.1875,16.171875 C7.609375,15.796875 7.03125,15.40625 6.53125,15.03125 C6.078125,14.65625 5.890625,14.609375 5.640625,15.125 C5.3125,15.78125 5.171875,16.390625 5.09375,17.359375 Z M13.65625,0.578125 C12.71875,0.359375 11.875,0.265625 11.140625,0.34375 C9.4375,0.5 8.5,1.203125 8.5,2.234375 C8.5,3.03125 8.890625,3.59375 10.015625,3.546875 C10.671875,3.515625 11.421875,3.25 12.0625,2.75 C12.703125,2.234375 13.28125,1.5 13.65625,0.578125 Z" transform="translate(-0.125, 17.921875) scale(1, -1)"/>
</svg>