<svg height="18.578125" viewBox="0 0 24 18.578125" width="24" xmlns="http://www.w3.org/2000/svg">
<path d="M13.25,18.265625 C12.78125,18.265625 12.40625,17.96875 12.078125,17.421875 C11.75,16.890625 11.46875,16.125 11.265625,15.234375 C10.65625,15.25 10.015625,15.296875 9.40625,15.40625 C8.78125,15.5 8.1875,15.6875 7.703125,15.96875 L7.4375,15.390625 C8.515625,14.46875 9.71875,14.1875 11.046875,14.140625 C10.859375,13.109375 10.859375,12.125 10.859375,11.28125 C10.859375,10.765625 10.90625,10.015625 11.015625,9.234375 C11.109375,8.4375 11.25,7.625 11.40625,6.96875 C11.65625,5.9375 11.734375,5.0625 11.734375,3.984375 C11.0625,4.109375 10.421875,4.15625 9.671875,4.15625 C8.5625,4.15625 7.5625,3.96875 6.859375,3.625 C6.140625,3.265625 5.703125,2.734375 5.703125,2.0625 C5.703125,1.46875 6,0.96875 6.515625,0.59375 C7.03125,0.234375 7.765625,0.03125 8.65625,0.03125 C9.703125,0.03125 10.625,0.265625 11.375,0.703125 C12.109375,1.140625 12.65625,1.75 12.9375,2.5 C14.15625,2 15.3125,1.328125 15.984375,0.578125 C16.4375,0.078125 16.671875,-0.078125 16.921875,-0.171875 C17.40625,-0.3125 17.734375,-0.03125 17.765625,0.296875 C17.796875,0.625 17.703125,0.921875 17.515625,1.15625 C17.328125,1.421875 17.015625,1.71875 16.5625,2.046875 C15.578125,2.703125 14.453125,3.265625 13.171875,3.640625 C13.25,4.8125 13.078125,6.1875 12.71875,7.375 C12.546875,7.9375 12.390625,8.703125 12.265625,9.453125 C12.125,10.203125 12.046875,10.96875 12.046875,11.546875 C12.046875,12.203125 12.078125,13.15625 12.234375,14.1875 C12.71875,14.265625 13.25,14.390625 13.75,14.59375 C14.234375,14.78125 14.6875,15.03125 15.046875,15.34375 C15.40625,15.65625 15.609375,16.0625 15.640625,16.390625 C15.6875,16.71875 15.53125,16.921875 15.125,17.109375 C14.65625,17.328125 14.3125,17.5625 13.96875,17.90625 C13.75,18.125 13.484375,18.265625 13.25,18.265625 Z M13.78125,17.15625 C13.921875,17.078125 14.140625,16.953125 14.3125,16.78125 C14.53125,16.546875 14.453125,16.296875 14.0625,16.015625 C13.609375,15.671875 13.140625,15.453125 12.484375,15.3125 C12.65625,16.078125 12.78125,16.53125 13.015625,16.90625 C13.25,17.3125 13.484375,17.3125 13.78125,17.15625 Z M9.734375,3.234375 C10.296875,3.234375 10.9375,3.125 11.640625,2.953125 C11.453125,2.25 11.046875,1.734375 10.515625,1.390625 C9.984375,1.0625 9.328125,0.875 8.65625,0.921875 C8.140625,0.921875 7.65625,1.03125 7.296875,1.21875 C6.953125,1.40625 6.71875,1.6875 6.71875,2.0625 C6.71875,2.40625 6.921875,2.703125 7.390625,2.921875 C7.859375,3.125 8.609375,3.234375 9.734375,3.234375 Z" transform="translate(0.25, 18.265625) scale(1, -1)"/>
</svg>