<svg height="21.03125" viewBox="0 0 24 21.03125" width="24" xmlns="http://www.w3.org/2000/svg">
<path d="M6.171875,16.375 C6.96875,15.59375 8.15625,15.171875 9.6875,15.125 C9.375,14.328125 8.984375,13.4375 8.65625,12.84375 C8.578125,12.71875 8.515625,12.59375 8.46875,12.453125 C8.40625,12.328125 8.328125,12.203125 8.234375,12.046875 C8,11.671875 7.953125,11.453125 8.046875,11.203125 C8.125,10.9375 8.1875,10.8125 8.328125,10.578125 C8.609375,10.203125 8.84375,10.28125 9.359375,10.65625 C9.796875,10.96875 10.625,11.46875 11.65625,11.984375 C12.078125,12.171875 12.640625,12.359375 13.203125,12.5 C13.765625,12.625 14.328125,12.6875 14.796875,12.6875 C15.265625,12.6875 15.828125,12.640625 16.40625,12.421875 C16.96875,12.203125 17.53125,11.796875 18,11.140625 C18.203125,10.8125 18.4375,10.4375 18.59375,9.875 C18.765625,9.3125 18.875,8.578125 18.875,7.578125 C18.875,6.21875 18.6875,4.875 18.140625,3.6875 C17.765625,2.859375 17.234375,2.15625 16.625,1.640625 C16,1.125 15.25,0.828125 14.453125,0.828125 C13.75,0.828125 13.015625,0.953125 12.328125,1.1875 C11.65625,1.421875 11.015625,1.765625 10.578125,2.1875 L10.625,2.640625 C11.375,2.765625 12.265625,3 12.984375,3.234375 C13.484375,3.40625 14.140625,3.6875 14.609375,4.03125 C14.890625,4.234375 15.015625,4.4375 15.015625,4.625 C15.015625,4.8125 14.90625,4.96875 14.765625,5.0625 C14.609375,5.15625 14.328125,5.234375 14,5.203125 C13.625,5.171875 13.375,5.046875 13.078125,4.859375 C12.859375,4.703125 12.609375,4.5625 12.296875,4.421875 C11.8125,4.203125 11.234375,4.046875 10.671875,3.921875 L10.78125,6.046875 C11.5,6.359375 12.328125,6.71875 12.984375,7.125 C13.4375,7.421875 13.671875,7.828125 13.671875,8.203125 C13.671875,8.546875 13.4375,8.78125 13.015625,9.046875 C12.734375,9.21875 12.3125,9.296875 11.796875,9.34375 C11.46875,9.375 11.09375,9.34375 10.828125,9.296875 C10.796875,9.71875 10.765625,10.109375 10.625,10.34375 C10.578125,10.4375 10.515625,10.484375 10.40625,10.484375 C10.203125,10.484375 10.046875,10.34375 9.953125,10.21875 C9.890625,10.15625 9.828125,10.0625 9.71875,9.96875 C9.546875,9.78125 9.46875,9.4375 9.4375,9.03125 C8.328125,8.5625 7.4375,7.90625 6.546875,6.890625 L6.921875,6.5 C7.71875,7.296875 8.65625,7.84375 9.453125,7.96875 L9.40625,6.296875 C9.125,6.203125 8.734375,6.03125 8.28125,5.796875 C7.84375,5.5625 7.359375,5.3125 6.9375,5.046875 C6.140625,4.53125 5.8125,4.109375 5.8125,3.640625 C5.8125,3.21875 6.140625,2.796875 6.9375,2.59375 C7.828125,2.375 8.640625,2.328125 9.34375,2.421875 C9.34375,1.203125 9.21875,-0.1875 9.09375,-1.703125 L9.546875,-1.8125 C9.6875,-1.53125 9.78125,-1.28125 9.875,-1.03125 C10.046875,-0.5625 10.15625,-0.0625 10.296875,0.515625 C10.34375,0.8125 10.4375,1.140625 10.515625,1.515625 C10.828125,1.21875 11.1875,0.921875 11.890625,0.53125 C12.640625,0.125 13.484375,-0.140625 14.421875,-0.140625 C16.5,-0.140625 17.984375,0.828125 19.203125,2.515625 C19.625,3.125 19.953125,3.890625 20.1875,4.765625 C20.421875,5.65625 20.546875,6.609375 20.546875,7.5625 C20.546875,8.4375 20.375,9.234375 20.125,9.921875 C19.875,10.625 19.53125,11.1875 19.203125,11.59375 C18.125,12.890625 16.515625,13.421875 14.8125,13.421875 C13.828125,13.421875 12.78125,13.25 12.03125,13.015625 C11.515625,12.859375 11.15625,12.71875 10.75,12.546875 C10.34375,12.390625 9.890625,12.1875 9.265625,11.90625 C9.921875,13.03125 10.53125,14.0625 11.046875,15.09375 C12.21875,15.125 13.078125,15.265625 13.78125,15.390625 C14.484375,15.515625 15.140625,15.6875 15.453125,15.84375 C15.875,16.03125 15.984375,16.21875 15.984375,16.515625 C15.984375,16.734375 15.703125,16.921875 15.390625,17.015625 C15.125,17.09375 14.765625,17.09375 14.3125,16.90625 C13.5625,16.578125 12.59375,16.34375 11.703125,16.296875 C11.890625,16.71875 12.140625,17.3125 12.34375,17.734375 C12.609375,18.328125 12.40625,18.765625 12.078125,18.984375 C11.796875,19.15625 11.40625,19.21875 10.96875,19.21875 C10.4375,19.21875 9.984375,19.15625 9.71875,19.125 L9.53125,18.59375 C9.84375,18.59375 10.265625,18.515625 10.46875,18.40625 C10.734375,18.265625 10.734375,18.078125 10.65625,17.515625 C10.625,17.34375 10.546875,17.09375 10.46875,16.859375 C10.375,16.609375 10.265625,16.34375 10.171875,16.203125 C8.65625,16.15625 7.484375,16.28125 6.453125,16.765625 Z M10.859375,8.265625 C11.21875,8.265625 11.59375,8.234375 11.90625,8.140625 C12.265625,8 12.296875,7.71875 11.859375,7.390625 C11.5625,7.171875 11.21875,6.953125 10.8125,6.78125 Z M9.34375,3.6875 C8.796875,3.609375 8.1875,3.65625 7.53125,3.734375 C7.359375,3.765625 7.203125,3.796875 7.109375,3.828125 C6.875,3.921875 6.828125,4.046875 6.984375,4.25 C7.0625,4.34375 7.21875,4.484375 7.4375,4.625 C8.15625,5.140625 8.8125,5.375 9.40625,5.609375 Z" transform="translate(-1.1796875, 19.21875) scale(1, -1)"/>
</svg>