<svg height="24" viewBox="0 0 24 24" width="24" xmlns="http://www.w3.org/2000/svg">
<path d="M6.453125,17.734375 L7.015625,17.140625 C7.375,16.71875 7.90625,16.390625 8.625,16.140625 C9.328125,15.875 10.0625,15.84375 10.859375,16.03125 C11.65625,16.21875 12.828125,16.625 13.859375,16.984375 C14.375,17.15625 14.875,17.328125 15.359375,17.46875 C15.078125,17.1875 14.65625,16.859375 14.1875,16.5625 C13.71875,16.25 13.25,15.953125 12.84375,15.71875 L13.21875,15.265625 C13.4375,15.390625 13.671875,15.515625 13.921875,15.65625 C14.171875,15.796875 14.421875,15.9375 14.703125,16.078125 C15.21875,16.34375 15.734375,16.625 16.25,16.8125 C17.140625,17.140625 17.828125,17.515625 17.265625,18.171875 C17.015625,18.4375 16.71875,18.640625 16.421875,18.71875 C15.984375,18.828125 15.625,18.75 14.9375,18.5 C12.765625,17.75 11.265625,17.328125 10.171875,17.28125 C9.3125,17.25 8.75,17.296875 8.140625,17.46875 C7.609375,17.609375 7.25,17.796875 6.84375,18.125 Z M6.546875,12.984375 C6.09375,12.765625 5.5625,12.390625 5.234375,11.984375 C4.953125,11.640625 4.8125,11.28125 4.875,10.828125 C4.96875,9.984375 5.84375,9.515625 7.390625,9.453125 C7.78125,9.453125 8.265625,9.4375 8.71875,9.453125 C9.171875,9.453125 9.609375,9.484375 9.9375,9.53125 C9.546875,8.359375 8.984375,6.953125 8.1875,5.765625 C7.8125,5.234375 7.390625,4.6875 6.96875,4.203125 C6.53125,3.734375 6.09375,3.3125 5.765625,3.03125 C5.5,2.796875 5.171875,2.53125 4.8125,2.3125 C4.53125,2.140625 4.328125,1.96875 4.171875,1.71875 C3.953125,1.359375 3.875,0.9375 3.921875,0.640625 C3.921875,0.359375 4.109375,0.21875 4.375,0.21875 C4.625,0.21875 4.953125,0.359375 5.328125,0.6875 C5.75,1.0625 6.25,1.53125 6.78125,2.09375 C7.4375,2.796875 8.234375,3.671875 8.953125,4.609375 C9.40625,5.203125 9.984375,5.578125 10.578125,5.8125 C11.203125,6.0625 11.90625,6.15625 12.578125,6.09375 C13.4375,6.015625 14.3125,5.65625 15.625,4.90625 C16.953125,4.109375 17.890625,3.265625 18.5,2.65625 C19.015625,2.1875 19.671875,1.375 20.265625,0.53125 C20.484375,0.21875 20.703125,0.125 20.984375,0.125 C21.3125,0.125 21.5,0.375 21.578125,0.890625 C21.625,1.21875 21.53125,1.671875 21.1875,2.1875 C20.703125,2.890625 20.21875,3.34375 19.515625,3.84375 C19.015625,4.203125 18.546875,4.515625 18.03125,4.84375 C17.515625,5.15625 16.953125,5.46875 16.296875,5.8125 C15.171875,6.40625 13.953125,6.875 12.53125,6.875 C11.453125,6.875 10.625,6.640625 9.875,6.3125 C10.53125,7.53125 10.96875,8.53125 11.46875,9.640625 C14.09375,9.984375 16.34375,10.46875 18.5,11.0625 C18.828125,11.140625 19.03125,11.25 19.15625,11.375 C19.40625,11.625 19.34375,11.984375 19.171875,12.171875 C18.984375,12.359375 18.390625,12.546875 17.875,12.5 C17.359375,12.453125 16.953125,12.265625 16.46875,12.0625 C16.21875,11.953125 15.9375,11.859375 15.625,11.765625 C14.984375,11.578125 14.328125,11.390625 13.671875,11.234375 C13.015625,11.09375 12.390625,10.953125 11.859375,10.90625 L12.03125,11.375 C12.078125,11.5625 12.15625,11.75 12.21875,11.9375 C12.34375,12.328125 12.453125,12.75 12.53125,13.125 C12.640625,13.65625 12.640625,14 12.5,14.25 C12.375,14.5 12.125,14.640625 11.703125,14.734375 C11.109375,14.875 10.390625,14.859375 9.640625,14.734375 L9.640625,14.234375 C9.890625,14.234375 10.21875,14.1875 10.421875,14.140625 C10.8125,14.046875 11.078125,13.703125 11,13.203125 C10.9375,12.828125 10.859375,12.4375 10.71875,11.984375 C10.59375,11.515625 10.484375,11.09375 10.375,10.703125 C9.9375,10.640625 9.421875,10.59375 8.9375,10.5625 C8.4375,10.53125 7.96875,10.515625 7.625,10.515625 C6.984375,10.515625 6.59375,10.609375 6.359375,10.765625 C6.109375,10.90625 6.03125,11.09375 6.03125,11.3125 C6.03125,11.578125 6.125,11.765625 6.296875,11.953125 C6.5625,12.25 6.765625,12.484375 7.03125,12.671875 Z" transform="translate(-0.75, 18.828125) scale(1, -1)"/>
</svg>