<svg height="19.46875" viewBox="0 0 24 19.46875" width="24" xmlns="http://www.w3.org/2000/svg">
<path d="M12.9375,18.453125 C13.53125,18.359375 13.921875,18.21875 14.140625,18.078125 C14.375,17.9375 14.421875,17.703125 14.28125,17.375 C14.1875,17.140625 14.03125,16.75 13.84375,16.34375 C13.65625,15.953125 13.453125,15.546875 13.296875,15.265625 C12.921875,15.1875 12.1875,14.90625 11.609375,14.609375 C10.90625,14.25 10.25,13.859375 9.578125,13.390625 C9.875,13.953125 9.984375,14.5 9.984375,14.890625 C9.984375,15.5 9.640625,15.78125 9.3125,15.9375 C9.046875,16.0625 8.640625,16.0625 8.3125,15.890625 C8.015625,15.734375 7.8125,15.53125 7.515625,15.234375 L7.859375,14.890625 C8.125,15.203125 8.34375,15.3125 8.5625,15.3125 C8.65625,15.3125 8.71875,15.25 8.765625,15.109375 C8.8125,14.96875 8.796875,14.75 8.734375,14.453125 C8.609375,13.921875 8.421875,13.421875 8.203125,12.921875 C8.109375,12.6875 8.015625,12.578125 7.875,12.4375 C7.609375,12.171875 7.625,11.9375 7.765625,11.59375 C7.984375,11.078125 8.265625,11.109375 8.546875,11.28125 C8.859375,11.484375 9.21875,11.859375 9.640625,12.296875 C10.0625,12.703125 10.65625,13.171875 11.3125,13.578125 C11.53125,13.71875 11.828125,13.90625 12.125,14.0625 C12.40625,14.234375 12.734375,14.375 12.96875,14.46875 C12.59375,13.6875 11.984375,12.6875 11.28125,11.65625 C10.59375,10.625 9.828125,9.578125 9.21875,8.734375 C8.515625,7.8125 7.765625,6.84375 7.0625,5.953125 C6.359375,5.0625 5.65625,4.234375 5.09375,3.5625 C4.515625,2.890625 4.046875,2.390625 3.796875,2.15625 L3.125,1.515625 C2.875,1.296875 2.65625,0.96875 2.734375,0.625 C2.78125,0.40625 2.875,0.125 3.046875,-0.125 C3.1875,-0.3125 3.34375,-0.359375 3.53125,-0.359375 C3.828125,-0.359375 4.0625,-0.125 4.390625,0.359375 C4.953125,1.15625 5.578125,2.046875 6.234375,2.953125 C6.875,3.859375 7.515625,4.75 8.0625,5.5 C8.484375,5.890625 8.84375,6.171875 9.125,6.296875 C9.421875,6.421875 9.640625,6.484375 9.796875,6.484375 C10.015625,6.484375 10.203125,6.390625 10.390625,6.203125 C10.765625,5.828125 11.078125,5.1875 11.375,4.53125 C11.65625,3.875 11.953125,3.15625 12.21875,2.515625 L12.53125,1.71875 C13.078125,0.359375 13.96875,-0.265625 15.390625,-0.40625 C15.671875,-0.453125 16.015625,-0.453125 16.390625,-0.46875 C17.171875,-0.484375 18.03125,-0.453125 18.828125,-0.359375 C19.625,-0.265625 20.421875,-0.09375 20.78125,0.109375 C20.953125,0.203125 21.046875,0.359375 21.046875,0.546875 C21.046875,0.96875 20.8125,1.171875 20.3125,1.390625 C20,1.53125 19.578125,1.484375 19.03125,1.28125 C18.65625,1.140625 18.078125,1.015625 17.46875,0.953125 C16.859375,0.875 16.203125,0.828125 15.640625,0.875 C14.703125,0.921875 14.21875,1.34375 13.78125,2.359375 C13.671875,2.609375 13.546875,2.890625 13.40625,3.234375 L12.953125,4.234375 C12.640625,4.90625 12.328125,5.5625 12.09375,5.984375 C11.640625,6.78125 11.046875,7.390625 10.296875,7.390625 C10.0625,7.390625 9.703125,7.34375 9.296875,7.171875 C9.796875,7.875 10.21875,8.421875 10.515625,8.796875 C10.703125,9.03125 10.984375,9.375 11.28125,9.796875 C11.5625,10.203125 11.890625,10.65625 12.171875,11.109375 C12.734375,10.828125 13.640625,10.578125 14.5,10.578125 C15.71875,10.578125 16.6875,10.890625 17.265625,11.1875 C18.203125,11.65625 18.84375,12.4375 18.84375,13.515625 C18.84375,14.265625 18.59375,14.828125 17.984375,15.234375 C17.5625,15.515625 17,15.671875 16.4375,15.734375 C15.875,15.78125 15.296875,15.734375 14.8125,15.59375 C14.90625,15.703125 15.078125,15.953125 15.234375,16.234375 C15.40625,16.515625 15.59375,16.859375 15.734375,17.140625 C16.0625,17.703125 16.046875,18.109375 15.796875,18.390625 C15.625,18.59375 15.3125,18.75 14.90625,18.84375 C14.453125,18.9375 13.765625,18.984375 13.25,18.984375 Z M4.765625,15.40625 C4.625,15.21875 4.4375,14.90625 4.25,14.578125 C4.0625,14.234375 3.875,13.859375 3.78125,13.515625 C3.5625,12.875 3.453125,12.234375 3.453125,11.609375 C3.453125,11.234375 3.578125,10.9375 3.734375,10.71875 C3.90625,10.484375 4.109375,10.34375 4.296875,10.34375 C4.765625,10.34375 5.015625,10.578125 5.15625,11.234375 C5.1875,11.40625 5.28125,11.609375 5.421875,11.84375 C5.671875,12.28125 6,12.734375 6.296875,13.15625 C6.453125,13.359375 6.5625,13.546875 6.640625,13.703125 L6.359375,14.0625 L5.546875,13.1875 C5.28125,12.890625 4.984375,12.59375 4.671875,12.296875 C4.546875,12.671875 4.546875,12.96875 4.625,13.5625 C4.671875,13.765625 4.765625,14.09375 4.875,14.421875 C5,14.734375 5.125,15.046875 5.265625,15.234375 Z M15.796875,15 C16.171875,15 16.53125,14.875 16.8125,14.625 C17.09375,14.375 17.265625,14 17.265625,13.484375 C17.265625,12.796875 17.046875,12.359375 16.4375,11.90625 C16.0625,11.609375 15.4375,11.359375 14.453125,11.359375 C14.171875,11.359375 13.8125,11.375 13.484375,11.4375 C13.15625,11.484375 12.8125,11.578125 12.578125,11.703125 C12.921875,12.234375 13.28125,12.8125 13.609375,13.34375 C13.9375,13.890625 14.234375,14.375 14.421875,14.796875 C14.859375,14.9375 15.3125,15 15.796875,15 Z" transform="translate(0.1484375, 18.984375) scale(1, -1)"/>
</svg>