<svg height="19.34375" viewBox="0 0 24 19.34375" width="24" xmlns="http://www.w3.org/2000/svg">
<path d="M6.828125,18.453125 C7.203125,18.265625 7.578125,17.984375 7.78125,17.609375 C8,17.21875 8.046875,16.734375 7.90625,16.171875 C7.53125,14.84375 6.6875,13.09375 5.703125,10.90625 C5.53125,10.53125 5.375,10.21875 5.1875,9.9375 C5,9.65625 4.796875,9.40625 4.515625,9.125 C4.03125,8.640625 3.4375,7.96875 3.03125,7.4375 L2.75,7.0625 C2.59375,6.8125 2.46875,6.59375 2.421875,6.375 C2.359375,6.15625 2.28125,5.84375 2.28125,5.578125 C2.28125,5.453125 2.296875,5.3125 2.328125,5.15625 C2.421875,4.765625 2.6875,4.671875 3.078125,5.0625 C3.53125,5.515625 3.9375,6.046875 4.34375,6.796875 L5,8 C5.234375,8.390625 5.453125,8.796875 5.765625,9.296875 C6.203125,9.984375 6.625,10.484375 7.21875,11.046875 C8.25,11.984375 9.375,12.765625 10.515625,13.296875 C11.640625,13.8125 12.78125,14.109375 13.859375,14.109375 C15.6875,14.109375 16.75,13.015625 17,10.90625 C17.1875,9.296875 17.109375,7.609375 16.71875,6.234375 C15.734375,6.640625 14.5,6.953125 13.46875,7.125 C13.859375,8.734375 13.78125,9.921875 13.4375,10.71875 C13.078125,11.5625 12.453125,11.9375 11.65625,11.9375 C10.859375,11.9375 10.046875,11.40625 9.34375,10.515625 C8.640625,9.625 8.09375,8.40625 7.828125,7.03125 C6.984375,6.734375 6.25,6.328125 5.71875,5.828125 C5.1875,5.3125 4.875,4.71875 4.875,4.015625 C4.875,3.40625 5.15625,2.953125 5.625,2.671875 C6.09375,2.390625 6.75,2.28125 7.53125,2.375 C7.625,1.53125 7.90625,0.828125 8.375,0.328125 C8.859375,-0.171875 9.5625,-0.453125 10.484375,-0.453125 C11.859375,-0.453125 13.125,-0.109375 14.40625,0.6875 C15.734375,1.53125 16.859375,2.703125 17.65625,4.4375 C18.03125,4.265625 18.390625,4.0625 18.71875,3.796875 C19.375,3.265625 19.953125,2.71875 20.34375,2.265625 C20.53125,2.03125 20.703125,1.8125 20.890625,1.609375 C20.984375,1.484375 21.09375,1.375 21.1875,1.3125 C21.359375,1.171875 21.734375,0.96875 21.96875,1.34375 C22.109375,1.578125 22.109375,1.796875 22.015625,2.203125 C21.921875,2.609375 21.65625,3.125 20.90625,3.796875 C20.015625,4.59375 19.171875,5.15625 18.140625,5.65625 C18.375,6.5 18.53125,7.4375 18.59375,8.375 C18.640625,9.3125 18.59375,10.25 18.4375,11.09375 C17.984375,13.578125 16.46875,14.84375 13.90625,14.84375 C12.734375,14.84375 11.53125,14.53125 10.359375,14.015625 C9.1875,13.5 8.046875,12.78125 7.109375,11.9375 C7.578125,12.734375 7.984375,13.390625 8.3125,14.015625 C8.640625,14.640625 8.921875,15.21875 9.171875,15.84375 C9.546875,16.78125 9.453125,17.546875 8.703125,18.09375 C8.328125,18.375 7.671875,18.6875 7.078125,18.890625 Z M12.1875,7.390625 C10.828125,7.53125 9.640625,7.5 8.640625,7.28125 C9.03125,8.609375 9.484375,9.515625 9.96875,10.171875 C10.46875,10.84375 11,11.109375 11.546875,11.109375 C11.90625,11.109375 12.21875,10.859375 12.359375,10.203125 C12.5,9.59375 12.5,8.65625 12.1875,7.390625 Z M11.859375,6.40625 C11.609375,5.765625 11.15625,5.15625 10.546875,4.640625 C9.921875,4.109375 9.15625,3.671875 8.265625,3.390625 C8.15625,4.375 8.265625,5.375 8.453125,6.359375 C9.484375,6.59375 10.734375,6.59375 11.859375,6.40625 Z M7.625,6.1875 C7.484375,5.328125 7.421875,4.25 7.46875,3.171875 C6.296875,2.984375 5.546875,3.265625 5.59375,4.203125 C5.640625,5.09375 6.40625,5.703125 7.625,6.1875 Z M16.328125,5.109375 C15.71875,3.5 14.75,2.359375 13.671875,1.5625 C12.59375,0.765625 11.515625,0.359375 10.53125,0.359375 C9.078125,0.359375 8.40625,1.109375 8.3125,2.515625 C9.453125,2.796875 10.46875,3.265625 11.28125,3.890625 C12.109375,4.5 12.734375,5.265625 13.125,6.078125 C13.5625,5.984375 14.125,5.890625 14.6875,5.71875 C15.25,5.5625 15.828125,5.34375 16.328125,5.109375 Z" transform="translate(-0.1953125, 18.890625) scale(1, -1)"/>
</svg>