<svg height="19.921875" viewBox="0 0 24 19.921875" width="24" xmlns="http://www.w3.org/2000/svg">
<path d="M6.1875,18.5 C6.78125,18.359375 7.140625,18.203125 7.34375,17.90625 C7.53125,17.609375 7.578125,17.1875 7.5625,16.515625 C7.53125,15.921875 7.484375,15.125 7.390625,14.1875 C6.546875,14 5.796875,14.0625 5.140625,14.296875 C4.46875,14.515625 3.890625,14.890625 3.34375,15.359375 L2.890625,14.84375 C3.40625,14.140625 3.984375,13.6875 4.6875,13.40625 C5.390625,13.125 6.21875,13.015625 7.296875,13.0625 L7.203125,11.75 C7.15625,11.28125 7.125,10.84375 7.078125,10.390625 C5.515625,9.9375 4.21875,9.046875 3.1875,7.53125 C2.703125,6.828125 2.5625,6.265625 3.046875,5.6875 C3.453125,5.203125 3.765625,4.796875 4.0625,4.203125 C4.34375,3.59375 4.65625,3.453125 5.40625,3.6875 C5.71875,3.796875 5.96875,3.9375 6.1875,4.078125 C5.875,3.5 5.734375,2.9375 5.734375,2.234375 C5.734375,1.703125 5.890625,1.1875 6.21875,0.734375 C6.546875,0.296875 7.015625,-0.078125 7.671875,-0.3125 C8.953125,-0.78125 10.28125,-0.84375 11.796875,-0.84375 C14.140625,-0.84375 16.0625,-0.453125 17.421875,0.140625 C18.3125,0.53125 18.84375,0.921875 19.21875,1.421875 C19.65625,2 19.6875,2.40625 19.296875,2.765625 C19.015625,3.03125 18.84375,3.234375 18.578125,3.734375 C17.921875,4.96875 17.578125,6.203125 17.265625,7.46875 L16.515625,7.296875 C16.78125,5.84375 17.109375,4.390625 17.5,3.140625 C17.609375,2.78125 17.671875,2.5625 17.640625,2.375 C17.59375,2.203125 17.46875,2.0625 17.234375,1.875 C16.671875,1.4375 15.78125,1.09375 14.796875,0.859375 C13.8125,0.609375 12.703125,0.484375 11.703125,0.484375 C10.34375,0.484375 9.078125,0.59375 8.09375,0.890625 C7.203125,1.15625 6.671875,1.71875 6.671875,2.421875 C6.671875,3.078125 6.796875,3.546875 7.078125,3.984375 C7.359375,4.40625 7.796875,4.78125 8.40625,5.203125 C9.203125,5.75 10.046875,6.3125 10.703125,6.921875 C11.359375,7.53125 11.8125,8.1875 11.8125,8.890625 C11.8125,9.640625 11.46875,10.15625 10.859375,10.4375 C10.234375,10.71875 9.359375,10.765625 8.28125,10.625 C8.296875,10.828125 8.328125,11.046875 8.34375,11.265625 C8.359375,11.484375 8.375,11.71875 8.390625,11.9375 C8.40625,12.171875 8.421875,12.375 8.453125,12.59375 C8.46875,12.796875 8.484375,13 8.5,13.171875 C9.875,13.375 10.96875,13.78125 11.859375,14.109375 C12.171875,14.21875 12.390625,14.3125 12.546875,14.390625 C12.6875,14.46875 12.8125,14.53125 12.921875,14.609375 C13.234375,14.859375 13.34375,15.1875 13.078125,15.453125 C12.859375,15.6875 12.578125,15.734375 12.21875,15.734375 C11.890625,15.734375 11.703125,15.71875 11.484375,15.640625 C11.265625,15.578125 11.046875,15.4375 10.671875,15.234375 C10.171875,14.953125 9.4375,14.703125 8.640625,14.46875 C8.765625,15.3125 8.890625,16.015625 9.078125,16.8125 C9.171875,17.328125 9.171875,17.703125 9.03125,18.015625 C8.890625,18.3125 8.609375,18.546875 8.15625,18.734375 C7.671875,18.96875 7.109375,19.03125 6.5,19.078125 Z M16.71875,15.53125 C17.671875,14.921875 18.453125,14.203125 19.0625,13.453125 C19.671875,12.703125 20.09375,11.90625 20.328125,11.15625 C20.46875,10.671875 20.375,10.53125 20,10.609375 C19.109375,10.78125 18,10.859375 16.875,10.78125 L16.828125,10.109375 C17.09375,10.109375 17.375,10.109375 17.65625,10.078125 C18.21875,10.03125 18.78125,9.921875 19.265625,9.734375 C19.75,9.546875 20.140625,9.21875 20.375,8.984375 C20.5,8.84375 20.59375,8.75 20.65625,8.6875 C20.9375,8.390625 21.375,8.375 21.640625,8.640625 C21.96875,8.9375 22.078125,9.34375 22.078125,9.875 C22.078125,10.328125 21.9375,11.234375 21.3125,12.359375 C20.609375,13.625 19.28125,14.9375 17.1875,16.109375 Z M8.203125,9.9375 C9.671875,10.203125 10.21875,9.84375 10.21875,8.8125 C10.21875,8.4375 10.109375,8.078125 9.921875,7.734375 C9.5,7.046875 8.84375,6.40625 8.046875,5.796875 C7.65625,5.484375 7.25,5.1875 6.875,4.875 C7.0625,5.21875 7.265625,5.703125 7.46875,6.3125 C7.734375,7.15625 8.015625,8.328125 8.203125,9.9375 Z M6.96875,9.546875 C6.78125,8.421875 6.546875,7.296875 6.265625,6.3125 C5.9375,5.140625 5.40625,4.75 4.875,4.96875 C4.578125,5.09375 4.296875,5.390625 4.15625,5.78125 C4.015625,6.15625 4.03125,6.625 4.328125,7.125 C5.046875,8.359375 5.9375,9.125 6.96875,9.546875 Z" transform="translate(-0.3203125, 19.078125) scale(1, -1)"/>
</svg>