<svg height="20.796875" viewBox="0 0 24 20.796875" width="24" xmlns="http://www.w3.org/2000/svg">
<path d="M9.875,19.109375 C10.90625,18.875 11.5625,18.453125 11.5625,17.515625 L11.5625,16.125 C11.171875,16.078125 10.8125,16.0625 10.484375,16.0625 C10.15625,16.0625 9.84375,16.09375 9.5625,16.15625 C8.984375,16.265625 8.46875,16.5 7.953125,16.875 L7.578125,16.375 C8.09375,15.8125 8.671875,15.453125 9.328125,15.25 C9.96875,15.046875 10.703125,14.984375 11.546875,15.03125 L11.546875,13.96875 C11.546875,13.609375 11.53125,13.25 11.515625,12.890625 C10.625,12.53125 9.75,12.171875 8.859375,11.75 C7.953125,11.328125 7.015625,10.84375 5.984375,10.25 C5.78125,10.140625 5.578125,10.015625 5.375,9.90625 C5.171875,9.78125 5,9.6875 4.859375,9.625 C4.625,9.53125 4.484375,9.5 4.4375,9.84375 C4.40625,10.21875 4.46875,10.65625 4.578125,11.109375 C4.703125,11.5625 4.875,12.015625 5.109375,12.390625 L4.625,12.71875 C3.734375,11.5 3.234375,10.390625 3.234375,9.265625 C3.234375,8.9375 3.265625,8.6875 3.328125,8.484375 C3.453125,8.09375 3.828125,7.578125 4.203125,7.578125 C4.421875,7.578125 4.609375,7.65625 4.875,7.96875 C5.09375,8.234375 5.375,8.546875 5.734375,8.859375 C6.234375,9.296875 6.6875,9.59375 7.078125,9.828125 C8.6875,9.03125 9.96875,8.171875 10.90625,7.375 C11.078125,7.21875 11.21875,7.0625 11.359375,6.84375 C11.484375,6.640625 11.6875,6.46875 12.03125,6.59375 C11.28125,5.84375 11,5.28125 11,4.71875 C11,4.203125 11.109375,3.84375 11.328125,3.578125 C11.609375,3.265625 11.875,3.046875 12.140625,2.90625 C11.890625,2.75 11.609375,2.515625 11.375,2.28125 C11.125,2.046875 10.90625,1.765625 10.78125,1.53125 C10.59375,1.203125 10.484375,0.921875 10.484375,0.59375 C10.484375,0.078125 10.765625,-0.40625 11.65625,-0.78125 C12.265625,-1.015625 13.078125,-1.171875 14.0625,-1.171875 C14.59375,-1.171875 14.984375,-1.140625 15.359375,-1.0625 C15.640625,-1.015625 15.875,-0.84375 15.875,-0.5 C15.875,-0.265625 15.78125,-0.046875 15.390625,0.140625 C15.046875,0.3125 14.703125,0.265625 14.046875,0.21875 C13.625,0.1875 13.25,0.1875 12.9375,0.21875 C12.3125,0.28125 11.234375,0.53125 11.6875,1.21875 C11.984375,1.6875 12.40625,2.03125 12.9375,2.234375 C13.515625,2.453125 13.703125,2.734375 13.703125,3.09375 C13.703125,3.40625 13.484375,3.6875 12.9375,3.921875 C12.59375,4.046875 12.359375,4.21875 12.21875,4.421875 C11.9375,4.8125 11.9375,5.375 12.515625,6.0625 C13.078125,6.734375 14.28125,7.28125 15.078125,7.71875 C15.5,7.921875 15.875,8.140625 16.25,8.34375 C17,8.75 17.65625,9.140625 18.3125,9.59375 C18.9375,10.03125 19.484375,10.4375 19.859375,10.875 C20.21875,11.296875 20.421875,11.75 20.421875,12.296875 C20.421875,12.953125 20.0625,13.4375 19.46875,13.765625 C18.859375,14.09375 18.015625,14.265625 17.046875,14.265625 C15.640625,14.265625 14.28125,13.90625 12.625,13.328125 C12.625,13.65625 12.625,13.96875 12.640625,14.265625 C12.640625,14.5625 12.640625,14.84375 12.640625,15.140625 C13.859375,15.34375 15.09375,15.640625 15.984375,16.015625 C16.203125,16.09375 16.390625,16.203125 16.53125,16.34375 C16.8125,16.625 16.703125,17.03125 16.453125,17.234375 C16.203125,17.421875 15.9375,17.46875 15.65625,17.328125 L15.03125,17.015625 C14.5,16.765625 13.609375,16.515625 12.71875,16.328125 C12.71875,16.90625 12.78125,17.46875 12.875,17.984375 C12.90625,18.15625 12.921875,18.3125 12.921875,18.453125 C12.921875,18.578125 12.890625,18.703125 12.84375,18.8125 C12.734375,19.03125 12.515625,19.203125 12.09375,19.34375 C11.5625,19.53125 10.828125,19.59375 10.078125,19.625 Z M16.859375,13.609375 C18.03125,13.609375 18.671875,13.078125 18.671875,12.1875 C18.671875,11.640625 18.1875,11 17.0625,10.0625 C16.03125,9.21875 14.890625,8.453125 13.375,7.5625 C13.203125,7.453125 13.046875,7.359375 12.90625,7.265625 L12.484375,6.984375 C12.609375,7.15625 12.6875,7.34375 12.640625,7.5625 C12.609375,7.828125 12.59375,8.15625 12.59375,8.703125 L12.59375,12.53125 C14.34375,13.1875 15.78125,13.609375 16.859375,13.609375 Z M11.515625,12.09375 C11.515625,11.5625 11.5,11 11.5,10.390625 L11.5,8.46875 C10.375,9.046875 9.078125,9.640625 7.65625,10.171875 C8.375,10.609375 8.984375,10.953125 9.59375,11.25 C10.203125,11.5625 10.8125,11.8125 11.515625,12.09375 Z" transform="translate(0.171875, 19.625) scale(1, -1)"/>
</svg>