<svg height="18.6875" viewBox="0 0 24 18.6875" width="24" xmlns="http://www.w3.org/2000/svg">
<path d="M4.390625,17.9375 C4.390625,17.78125 4.375,17.578125 4.390625,17.359375 C4.390625,16.890625 4.421875,16.21875 4.78125,15.578125 C4.953125,15.25 5.359375,15.046875 5.6875,15.046875 C5.984375,15.046875 6.21875,15.171875 6.671875,15.453125 C7.515625,15.984375 8.1875,16.375 8.734375,16.609375 C9.171875,16.796875 9.359375,16.71875 9.453125,16.4375 C9.5625,16.15625 9.671875,15.734375 9.734375,15.3125 C9.8125,14.875 9.859375,14.40625 9.890625,14.015625 C9.375,13.65625 8.890625,13.3125 8.4375,12.96875 L7.15625,12.03125 C6.828125,12.6875 6.4375,13.375 5.6875,14 L5.3125,13.671875 C5.796875,13.078125 6.078125,12.4375 6.296875,11.453125 C5.453125,10.703125 4.46875,9.8125 3.671875,9.046875 C3.078125,8.484375 2.71875,7.953125 2.515625,7.5 C2.328125,7.03125 2.265625,6.640625 2.265625,6.34375 C2.265625,5.734375 2.4375,5.171875 2.703125,4.765625 C2.984375,4.34375 3.359375,3.71875 3.796875,3.296875 C4.203125,2.890625 4.625,2.609375 4.921875,2.640625 C5.1875,2.65625 5.515625,2.859375 5.796875,3.140625 C6.078125,3.40625 6.359375,3.765625 6.53125,4.125 C7.03125,5.109375 7.34375,6.109375 7.484375,7.28125 C7.625,8.453125 7.625,9.625 7.4375,10.953125 C8.234375,11.703125 9.078125,12.421875 10.015625,13.078125 C10.15625,11.421875 10.0625,9.5 9.78125,7.34375 C9.640625,6.328125 9.421875,5.21875 9.15625,4.15625 C8.875,3.078125 8.515625,2.09375 8.140625,1.328125 C7.890625,0.84375 7.609375,0.78125 7.171875,1.03125 C6.703125,1.296875 6.28125,1.71875 5.90625,2.265625 L5.453125,1.90625 C5.890625,1.109375 6.3125,0.59375 6.875,0.046875 C7.375,-0.453125 7.65625,-0.546875 8.015625,-0.5 C8.59375,-0.453125 8.9375,-0.15625 9.34375,0.640625 C9.703125,1.34375 10.078125,2.484375 10.40625,3.71875 C10.734375,4.9375 11,6.28125 11.140625,7.375 C11.40625,9.578125 11.546875,11.75 11.3125,14 C12.34375,14.84375 13.25,15.421875 14.09375,15.9375 C14.65625,16.296875 15.125,16.453125 15.453125,16.5 C15.796875,16.546875 16.046875,16.46875 16.21875,16.328125 C16.515625,16.09375 16.625,15.640625 16.5625,15.046875 C16.484375,14.203125 16.15625,13.390625 15.796875,12.6875 C15.6875,12.46875 15.609375,12.34375 15.515625,12.21875 C15.421875,12.109375 15.328125,12.015625 15.1875,11.890625 C15.09375,11.796875 15.03125,11.640625 15.03125,11.453125 C15.03125,11.265625 15.046875,11.0625 15.09375,10.921875 C15.15625,10.75 15.359375,10.75 15.625,10.90625 C15.96875,11.09375 16.390625,11.296875 16.859375,11.46875 C17.328125,11.625 17.84375,11.734375 18.359375,11.734375 C18.6875,11.734375 18.984375,11.609375 19.203125,11.34375 C19.4375,11.0625 19.5625,10.625 19.5625,9.984375 C19.5625,9 19.21875,7.828125 18.671875,6.796875 C18.109375,5.71875 17.359375,4.71875 16.515625,3.6875 C15.9375,3 15.453125,2.46875 14.859375,1.875 L14.515625,1.53125 C14.328125,1.34375 14.140625,0.921875 14.375,0.578125 C14.5625,0.296875 14.90625,0.078125 15.40625,-0.078125 C15.578125,-0.125 15.765625,-0.171875 15.984375,-0.203125 C16.421875,-0.296875 16.9375,-0.359375 17.46875,-0.390625 C17.984375,-0.421875 18.59375,-0.390625 18.890625,-0.28125 C19.1875,-0.1875 19.46875,-0.046875 19.484375,0.265625 C19.515625,0.59375 19.234375,0.78125 19.03125,0.875 C18.828125,0.96875 18.59375,1 18.3125,0.984375 C18.171875,0.96875 18.015625,0.96875 17.84375,0.96875 C17,0.921875 16.375,0.921875 15.78125,1.109375 C15.265625,1.25 15.265625,1.390625 15.734375,1.828125 C16.25,2.265625 16.90625,2.9375 17.578125,3.6875 C18.234375,4.4375 18.921875,5.234375 19.4375,5.953125 C20.515625,7.421875 21.1875,8.703125 21.1875,9.984375 C21.1875,10.71875 20.9375,11.34375 20.5,11.78125 C20.0625,12.203125 19.4375,12.453125 18.734375,12.453125 C17.796875,12.453125 16.90625,12.296875 16.078125,11.953125 C16.53125,12.5 16.90625,13.03125 17.203125,13.5625 C17.796875,14.609375 18.15625,15.375 18.078125,16.015625 C18.015625,16.671875 17.734375,17.109375 17.1875,17.296875 C16.625,17.484375 15.796875,17.40625 15,17.0625 C14.1875,16.71875 13.375,16.328125 12.515625,15.734375 C12.078125,15.453125 11.65625,15.15625 11.203125,14.859375 C11.109375,15.53125 10.984375,16.328125 10.765625,16.90625 C10.625,17.234375 10.5625,17.46875 10.28125,17.6875 C10.03125,17.875 9.828125,17.90625 9.625,17.90625 C9.40625,17.90625 9.046875,17.859375 8.6875,17.65625 C8.359375,17.484375 7.953125,17.3125 7.578125,17.140625 C7.1875,16.953125 6.796875,16.8125 6.5,16.703125 C5.890625,16.484375 5.5,16.53125 5.234375,17.109375 C5.125,17.328125 5.046875,17.765625 5.015625,18.140625 Z M6.40625,10.109375 C6.4375,9.5625 6.4375,9.03125 6.40625,8.53125 C6.34375,7.5 6.171875,5.953125 5.375,4.625 C4.90625,3.828125 4.515625,3.671875 3.96875,4.15625 C3.734375,4.34375 3.546875,4.703125 3.359375,5.09375 C3.125,5.65625 3.171875,6.109375 3.53125,6.796875 C3.828125,7.359375 4.3125,7.96875 4.84375,8.546875 C5.359375,9.109375 5.9375,9.640625 6.40625,10.109375 Z" transform="translate(0.2734375, 18.140625) scale(1, -1)"/>
</svg>