<svg height="18.984375" viewBox="0 0 24 18.984375" width="24" xmlns="http://www.w3.org/2000/svg">
<path d="M6.921875,17.9375 C7.109375,17.421875 7.28125,17.09375 7.4375,16.8125 C7.609375,16.53125 7.765625,16.34375 8,16.109375 C8.234375,15.859375 8.46875,15.71875 8.765625,15.6875 C9.0625,15.640625 9.4375,15.734375 9.984375,15.9375 C10.703125,16.203125 11.46875,16.46875 12.15625,16.671875 C12.828125,16.859375 13.4375,17 13.875,17.09375 C13.234375,16.484375 12.40625,15.703125 11.5625,14.921875 C10.734375,14.125 9.9375,13.34375 9.40625,12.828125 L9.21875,12.640625 C9.078125,12.515625 8.9375,12.40625 8.75,12.265625 L8.421875,12.03125 C8.015625,11.84375 7.734375,11.59375 7.671875,11.140625 C7.625,10.71875 7.609375,10.296875 7.8125,10.171875 C8,10.046875 8.25,10.109375 8.5,10.28125 C9.25,10.8125 10.328125,11.21875 11.359375,11.5 C12.375,11.78125 13.34375,11.9375 13.8125,11.9375 C14.09375,11.9375 14.359375,11.890625 14.515625,11.734375 C14.6875,11.5625 14.765625,11.28125 14.765625,10.8125 C14.765625,10.328125 14.625,9.796875 14.265625,9.1875 C13.890625,8.578125 13.296875,7.890625 12.40625,7.0625 C12.171875,6.828125 11.90625,6.59375 11.609375,6.3125 L10.671875,5.421875 C10.015625,4.8125 9.34375,4.171875 8.75,3.609375 C8.140625,3.03125 7.640625,2.546875 7.34375,2.234375 C6.921875,1.765625 6.75,1.4375 6.71875,1.109375 C6.6875,0.78125 6.890625,0.4375 7.34375,0.21875 C8.421875,-0.296875 10.15625,-0.53125 12.3125,-0.53125 C13.015625,-0.53125 13.859375,-0.5 14.65625,-0.4375 C15.453125,-0.375 16.203125,-0.296875 16.703125,-0.171875 C17.046875,-0.078125 17.234375,0.109375 17.3125,0.3125 C17.375,0.53125 17.328125,0.75 17.1875,0.9375 C17,1.171875 16.5625,1.296875 15.9375,1.15625 C15.421875,1.015625 14.890625,0.921875 14.25,0.875 C13.59375,0.8125 12.828125,0.78125 11.84375,0.78125 C10.015625,0.78125 8.890625,0.84375 8.1875,1.078125 C8,1.140625 7.890625,1.21875 7.859375,1.34375 C7.8125,1.453125 7.890625,1.625 8.109375,1.859375 C8.359375,2.140625 8.71875,2.484375 9.171875,2.890625 C10.109375,3.734375 11.28125,4.75 12.640625,5.890625 C13.328125,6.453125 14.015625,7.03125 14.703125,7.625 C15.359375,8.1875 15.796875,8.75 16.078125,9.3125 C16.34375,9.859375 16.4375,10.375 16.4375,10.859375 C16.4375,12.171875 15.546875,12.78125 14.109375,12.78125 C13.609375,12.78125 12.84375,12.671875 12.03125,12.5 C11.203125,12.34375 10.328125,12.125 9.625,11.890625 C10.65625,12.828125 11.703125,13.71875 12.640625,14.484375 C13.578125,15.25 14.390625,15.875 14.953125,16.296875 C15.125,16.4375 15.265625,16.515625 15.40625,16.5625 C15.515625,16.609375 15.640625,16.671875 15.78125,16.71875 C16.109375,16.875 16.203125,17.140625 15.984375,17.515625 C15.8125,17.8125 15.5,18.09375 15.234375,18.265625 C15.015625,18.40625 14.84375,18.453125 14.625,18.453125 C14.421875,18.4375 14.171875,18.34375 13.828125,18.234375 C13.3125,18.046875 12.546875,17.859375 11.796875,17.6875 C11.046875,17.515625 10.296875,17.375 9.78125,17.3125 C9.078125,17.234375 8.71875,17.234375 8.359375,17.375 C8,17.515625 7.78125,17.734375 7.390625,18.296875 Z" transform="translate(-0.03125, 18.453125) scale(1, -1)"/>
</svg>