<svg height="17.234375" viewBox="0 0 24 17.234375" width="24" xmlns="http://www.w3.org/2000/svg">
<path d="M6.296875,16.78125 C6.015625,16.796875 5.734375,16.640625 5.59375,16.328125 C5.4375,16.015625 5.421875,15.5625 5.6875,15 C5.9375,14.484375 6.171875,13.96875 6.40625,13.453125 C6.625,12.9375 6.875,12.375 7.15625,11.765625 C6.640625,11.546875 6.140625,11.3125 5.609375,11.0625 C4.640625,10.609375 4,10.4375 3.515625,10.53125 C3.03125,10.609375 2.703125,10.953125 2.375,11.546875 L1.875,10.96875 C1.984375,10.640625 2.21875,10.265625 2.46875,9.953125 C2.703125,9.625 2.984375,9.34375 3.21875,9.1875 C3.53125,8.953125 3.78125,8.8125 4.0625,8.8125 C4.203125,8.8125 4.390625,8.8125 4.625,8.875 C4.859375,8.9375 5.15625,9.078125 5.546875,9.3125 C6.078125,9.65625 6.921875,10.125 7.671875,10.53125 C7.78125,10.296875 7.90625,10.046875 8,9.796875 C8.109375,9.546875 8.21875,9.265625 8.328125,9 C8.578125,8.40625 8.890625,7.578125 9.21875,6.625 C9.53125,5.671875 9.875,4.609375 10.203125,3.546875 C10.53125,2.46875 10.859375,1.390625 11.140625,0.453125 C11.25,0.078125 11.375,-0.171875 11.515625,-0.296875 C11.65625,-0.390625 11.8125,-0.4375 11.984375,-0.4375 C12.21875,-0.4375 12.453125,-0.265625 12.546875,-0.09375 C12.703125,0.171875 12.734375,0.453125 12.734375,0.78125 C12.734375,0.921875 12.703125,1.171875 12.65625,1.4375 C12.609375,1.6875 12.546875,1.953125 12.453125,2.140625 C11.09375,5.328125 9.78125,8.28125 8.703125,11.09375 C9.609375,11.5625 10.390625,11.9375 11.046875,12.21875 C11.703125,12.5 12.296875,12.734375 12.796875,12.96875 C14.40625,13.625 15.71875,13.90625 16.90625,13.90625 C17.84375,13.90625 18.671875,13.6875 19.46875,13.03125 C20.171875,12.453125 20.46875,11.640625 20.46875,10.828125 C20.46875,9.703125 19.90625,8.671875 18.6875,8.015625 C17.09375,7.15625 15.328125,7.390625 13.34375,8.5625 L12.9375,7.96875 C14.109375,6.9375 15.65625,6.40625 17.265625,6.40625 C18.59375,6.40625 19.765625,6.875 20.609375,7.625 C21.140625,8.09375 21.5,8.625 21.734375,9.1875 C21.953125,9.734375 22.03125,10.296875 22.03125,10.828125 C22.03125,11.3125 21.921875,11.84375 21.671875,12.359375 C21.421875,12.875 21.046875,13.34375 20.515625,13.765625 C19.4375,14.5625 18.28125,14.84375 17.15625,14.84375 C16.171875,14.84375 14.46875,14.609375 12.21875,13.90625 C11,13.515625 9.734375,12.9375 8.265625,12.265625 C7.953125,13.109375 7.671875,13.921875 7.390625,14.6875 C7.0625,15.625 7.109375,15.890625 7.90625,15.53125 C8.21875,15.390625 8.609375,15.265625 8.984375,15.1875 L9.21875,15.84375 C8.734375,16.015625 8.265625,16.171875 7.765625,16.421875 C7.375,16.609375 6.828125,16.75 6.296875,16.78125 Z" transform="translate(0.046875, 16.796875) scale(1, -1)"/>
</svg>