<svg height="24" viewBox="0 0 24 24" width="24" xmlns="http://www.w3.org/2000/svg">
<path d="M4.703125,18.1875 C5.09375,17.859375 5.421875,17.421875 5.65625,16.953125 C5.875,16.484375 5.984375,15.96875 5.9375,15.484375 C5.875,14.875 5.609375,14.359375 5.1875,13.84375 C4.765625,13.328125 4.15625,12.8125 3.453125,12.21875 C3.171875,11.96875 3.09375,11.671875 3.390625,11.359375 C3.609375,11.109375 3.78125,10.828125 3.890625,10.515625 C4.109375,9.875 3.953125,8.984375 3.875,8.328125 C3.78125,7.65625 3.71875,6.984375 3.671875,6.296875 C3.609375,5.59375 3.578125,4.859375 3.578125,4.15625 C3.578125,3.796875 3.59375,3.453125 3.609375,3.109375 C3.640625,2.40625 3.703125,1.765625 3.796875,1.25 C3.921875,0.53125 4.25,0 4.703125,0 C4.828125,0 4.953125,0.03125 5.078125,0.125 C5.296875,0.265625 5.5,0.78125 5.5625,1.109375 L5.65625,1.671875 C5.75,2.203125 6.078125,3.078125 6.625,4.15625 C7.703125,6.25 8.9375,7.96875 10.1875,9.34375 C11.421875,10.703125 12.671875,11.71875 13.78125,12.390625 C14.890625,13.0625 15.84375,13.390625 16.515625,13.390625 C16.953125,13.390625 17.28125,13.34375 17.46875,13.15625 C17.65625,12.96875 17.75,12.671875 17.703125,12.171875 C17.625,11.078125 17.09375,9.8125 16.265625,8.421875 C15.453125,7.015625 14.359375,5.484375 13.21875,3.890625 C13.09375,3.71875 13.046875,3.640625 12.828125,3.453125 C12.671875,3.328125 12.578125,3.234375 12.515625,3.125 C12.453125,3.03125 12.421875,2.890625 12.40625,2.6875 C12.375,2.421875 12.390625,2.234375 12.4375,2.046875 C12.484375,1.8125 12.734375,1.8125 13.109375,1.90625 C14.28125,2.21875 15.34375,2.28125 16.28125,2.28125 C16.828125,2.28125 17.28125,2.25 17.71875,2.1875 C18.15625,2.140625 18.546875,2 19.015625,1.859375 C19.328125,1.71875 19.578125,1.671875 19.90625,1.765625 C20.234375,1.859375 20.375,2.296875 20.1875,2.640625 C20,2.984375 19.6875,3.15625 18.9375,3.34375 C18.140625,3.53125 17.34375,3.5625 16.21875,3.484375 C15.5,3.4375 14.546875,3.3125 13.609375,3.171875 C14.53125,4.25 15.5,5.390625 16.34375,6.515625 C17.203125,7.640625 17.984375,8.75 18.546875,9.78125 C19.109375,10.796875 19.4375,11.734375 19.4375,12.53125 C19.4375,13.03125 19.34375,13.46875 19.0625,13.78125 C18.765625,14.09375 18.265625,14.28125 17.515625,14.28125 C15.734375,14.28125 13.59375,13.484375 11.390625,11.703125 C9.1875,9.921875 6.9375,7.171875 4.921875,3.265625 C4.828125,4.109375 4.8125,5.109375 4.859375,6.125 C4.90625,7.125 5.015625,8.15625 5.15625,9.09375 C5.25,9.71875 5.140625,10.390625 4.765625,10.78125 C4.625,10.90625 4.53125,11.03125 4.4375,11.140625 C4.234375,11.34375 4,11.609375 4,11.734375 C4,11.796875 4.078125,11.875 4.25,11.953125 C4.625,12.15625 5.1875,12.59375 5.765625,13.03125 C6.296875,13.4375 6.734375,13.8125 7.171875,14.359375 C7.359375,14.59375 7.5,14.9375 7.546875,15.3125 C7.59375,15.6875 7.546875,16.109375 7.328125,16.46875 C7.0625,16.90625 6.796875,17.25 6.46875,17.59375 C6.140625,17.921875 5.734375,18.234375 5.203125,18.578125 Z" transform="translate(0.265625, 18.578125) scale(1, -1)"/>
</svg>