<svg height="19.859375" viewBox="0 0 24 19.859375" width="24" xmlns="http://www.w3.org/2000/svg">
<path d="M5.375,18.53125 C5.765625,18.40625 6.15625,18.234375 6.453125,17.984375 C6.734375,17.71875 6.921875,17.359375 6.96875,16.875 C7.015625,15.84375 7,14.6875 6.96875,13.21875 C6.125,12.984375 5.421875,12.921875 4.859375,12.921875 C3.6875,12.921875 3.09375,13.203125 2.59375,13.703125 L2.3125,13.34375 C2.90625,12.265625 3.75,11.84375 5.15625,11.84375 C5.640625,11.84375 6.21875,11.90625 6.921875,12.046875 C6.921875,11.484375 6.890625,10.65625 6.875,9.875 C6.875,9.109375 6.828125,8.375 6.828125,8.046875 C5.734375,7.296875 4.71875,6.6875 3.875,6.3125 C3.078125,5.953125 2.59375,6.296875 2.359375,6.78125 L1.953125,6.296875 C2.234375,5.734375 2.515625,5.234375 2.875,4.953125 C3.21875,4.671875 3.625,4.625 4.171875,4.90625 C4.703125,5.1875 5.671875,5.875 6.796875,6.71875 C6.765625,5.796875 6.75,4.90625 6.734375,4.0625 C6.734375,3.21875 6.703125,2.4375 6.6875,1.71875 L4.46875,3.796875 L4.171875,3.4375 C4.875,2.65625 5.34375,2.125 5.671875,1.640625 C5.984375,1.15625 6.15625,0.71875 6.234375,0.140625 C6.28125,-0.171875 6.359375,-0.5 6.640625,-0.625 C7.03125,-0.796875 7.40625,-0.515625 7.6875,-0.109375 C7.953125,0.3125 8.03125,0.6875 8.03125,1.203125 C8.03125,1.453125 8.015625,1.75 8,2.09375 C7.859375,3.96875 7.859375,5.859375 7.90625,7.5625 C8.421875,7.96875 8.9375,8.390625 9.46875,8.828125 C10.515625,9.6875 11.453125,10.484375 12.1875,11.140625 C12.921875,11.796875 13.34375,12.25 13.90625,12.8125 C14.46875,13.359375 14.984375,13.84375 15.453125,14.1875 C15.921875,14.546875 16.375,14.71875 16.703125,14.828125 C17.015625,14.9375 17.234375,14.984375 17.421875,14.984375 L17.6875,14.984375 C18,14.984375 18.34375,14.84375 18.609375,14.53125 C18.875,14.21875 19.0625,13.71875 19.0625,12.984375 C19.0625,12.09375 18.890625,11.296875 18.5,10.625 C18.09375,9.921875 17.640625,9.65625 17.1875,9.625 C16.5625,9.59375 16.1875,9.875 15.96875,10.203125 L15.59375,9.734375 C15.96875,9.125 16.484375,8.828125 17.109375,8.796875 C17.484375,8.78125 17.859375,8.796875 18.234375,8.9375 C18.609375,9.0625 18.984375,9.3125 19.390625,9.734375 C19.765625,10.15625 20.03125,10.578125 20.203125,11.125 C20.375,11.65625 20.46875,12.296875 20.5,13.125 C20.53125,13.96875 20.234375,14.84375 19.625,15.390625 C19.25,15.734375 18.96875,15.90625 18.703125,15.96875 C18.4375,16.046875 18.171875,16.03125 17.84375,16.03125 C17.46875,16.03125 16.984375,15.953125 16.34375,15.640625 C15.6875,15.3125 14.921875,14.796875 14.015625,13.90625 C13.15625,13.0625 12.15625,12.171875 11.109375,11.28125 C10.0625,10.40625 8.96875,9.546875 7.921875,8.796875 L7.921875,9.6875 C7.921875,10 7.921875,10.328125 7.9375,10.65625 C7.9375,11.296875 7.953125,11.90625 7.96875,12.296875 C8.90625,12.5625 9.8125,12.890625 10.46875,13.28125 C10.703125,13.421875 10.78125,13.609375 10.78125,13.8125 C10.78125,13.984375 10.6875,14.171875 10.46875,14.265625 C10.3125,14.34375 10,14.421875 9.78125,14.375 C9.4375,14.328125 9.265625,14.28125 8.953125,14.0625 C8.65625,13.859375 8.359375,13.71875 8.015625,13.578125 C8.09375,14.84375 8.203125,15.796875 8.359375,16.703125 C8.484375,17.453125 8.515625,17.875 8.203125,18.234375 C7.75,18.78125 6.78125,18.96875 5.59375,19.0625 Z M13.15625,10.46875 C13.625,10.8125 13.828125,10.765625 13.828125,10.328125 C13.828125,9.4375 13.6875,8.09375 13.375,6.078125 C13.203125,5 13,4.015625 12.78125,3.171875 C12.578125,2.34375 12.34375,1.703125 12.125,1.328125 L11.3125,2.046875 L11.0625,1.609375 C11.40625,1.28125 11.609375,0.703125 11.5625,0.296875 C11.515625,-0.3125 11.65625,-0.5 12.078125,-0.5 C12.25,-0.5 12.4375,-0.46875 12.640625,-0.3125 C12.828125,-0.140625 13.046875,0.125 13.28125,0.640625 C13.453125,1.015625 13.671875,1.703125 13.921875,2.609375 C14.15625,3.53125 14.40625,4.671875 14.59375,5.984375 C14.75,7.046875 14.890625,8.046875 14.984375,8.90625 C15.078125,9.765625 15.140625,10.46875 15.140625,10.90625 C15.140625,11.65625 14.90625,11.859375 14.46875,11.859375 C14.28125,11.859375 14.125,11.796875 13.90625,11.65625 C13.671875,11.5 13.390625,11.234375 13.015625,10.859375 Z M15.4375,4.609375 C15.6875,4.484375 15.9375,4.34375 16.1875,4.171875 C16.671875,3.828125 17.125,3.4375 17.5625,3.015625 L18.21875,2.375 C18.5,2.09375 18.796875,1.75 19.03125,1.390625 C19.265625,1.015625 19.453125,0.6875 19.578125,0.40625 C19.90625,-0.296875 20.15625,-0.65625 20.6875,-0.546875 C21.171875,-0.453125 21.453125,-0.0625 21.296875,0.640625 C21.15625,1.3125 20.59375,2.1875 19.28125,3.21875 C18.5625,3.765625 17.359375,4.5625 15.71875,5.15625 Z" transform="translate(0.296875, 19.0625) scale(1, -1)"/>
</svg>