<svg height="20.25" viewBox="0 0 24 20.25" width="24" xmlns="http://www.w3.org/2000/svg">
<path d="M10.078125,19.203125 C10.4375,18.96875 10.65625,18.734375 10.953125,18.359375 C11.1875,18.046875 11.453125,17.46875 11.546875,16.578125 C11.5625,16.4375 11.578125,16.28125 11.59375,16.140625 C11.609375,15.859375 11.625,15.578125 11.625,15.265625 C11.625,15.109375 11.625,14.9375 11.609375,14.734375 C11.5,14.671875 11.359375,14.59375 11.1875,14.484375 C10.859375,14.28125 10.484375,14.046875 10.109375,13.78125 C9.734375,13.515625 9.3125,13.203125 8.9375,12.828125 C8.5625,12.453125 8.1875,12.015625 8.046875,11.578125 C7.890625,11.140625 7.90625,10.828125 8.09375,10.46875 C8.28125,10.109375 8.8125,9.9375 9.140625,9.8125 C9.296875,9.734375 9.453125,9.671875 9.609375,9.609375 C9.921875,9.46875 10.15625,9.328125 10.25,9.234375 C9.453125,8.546875 8.515625,7.765625 7.578125,6.96875 C6.625,6.171875 5.625,5.359375 4.71875,4.65625 C4.40625,4.40625 4.109375,4.203125 3.84375,4.015625 C3.34375,3.640625 3.3125,3.21875 3.328125,2.890625 C3.359375,2.5625 3.359375,2.171875 3.5625,1.984375 C3.78125,1.78125 4.25,1.953125 4.625,2.265625 C5,2.578125 5.390625,2.859375 5.65625,3.046875 C5.90625,3.234375 6.234375,3.453125 6.6875,3.75 C6.90625,3.90625 7.15625,4.078125 7.46875,4.28125 C8.6875,5.078125 9.875,5.703125 11.375,6.265625 C13.21875,6.96875 14.953125,7.53125 16.609375,7.53125 C17.421875,7.53125 17.9375,7.46875 18.25,7.328125 C18.5625,7.171875 18.671875,6.953125 18.671875,6.671875 C18.671875,6.03125 18.109375,5.421875 16.96875,4.828125 C16.328125,4.484375 15.40625,4.046875 14.375,3.5625 C13.34375,3.078125 12.203125,2.546875 11.109375,2.0625 C10.625,1.84375 10.34375,1.46875 10.390625,1.0625 C10.484375,0.40625 11.140625,-0.03125 11.9375,-0.3125 C12.21875,-0.421875 12.71875,-0.53125 13.15625,-0.59375 C13.609375,-0.671875 14.03125,-0.71875 14.234375,-0.71875 C14.734375,-0.71875 15.125,-0.703125 15.40625,-0.6875 C15.671875,-0.65625 15.875,-0.59375 16.015625,-0.484375 C16.25,-0.28125 16.234375,-0.078125 16.109375,0.234375 C16,0.5 15.671875,0.671875 15.4375,0.71875 C15,0.796875 14.515625,0.8125 14,0.78125 C13.71875,0.765625 13.296875,0.8125 12.875,0.890625 C12.453125,0.96875 12.03125,1.09375 11.765625,1.21875 C11.5,1.34375 11.515625,1.5625 11.84375,1.703125 C12.265625,1.90625 12.734375,2.09375 13.25,2.328125 L16.25,3.59375 C16.703125,3.78125 17.09375,3.9375 17.40625,4.078125 C18.484375,4.5625 19.34375,4.96875 19.765625,5.3125 C20.265625,5.71875 20.546875,6.125 20.546875,6.625 C20.546875,7.03125 20.1875,7.484375 19.671875,7.71875 C19.015625,8.046875 18.046875,8.234375 16.71875,8.1875 C14.84375,8.09375 12.84375,7.625 10.65625,6.78125 C9.890625,6.484375 9,6.078125 8.109375,5.625 C7.21875,5.1875 6.328125,4.6875 5.546875,4.21875 C6.328125,4.875 7.21875,5.65625 8.140625,6.46875 C9.078125,7.296875 10.015625,8.140625 10.90625,8.953125 C11,8.921875 11.09375,8.890625 11.171875,8.84375 C11.234375,8.8125 11.296875,8.765625 11.375,8.734375 C11.5625,8.640625 11.78125,8.546875 12,8.546875 C12.296875,8.546875 12.515625,8.90625 12.625,9.234375 C12.703125,9.484375 12.734375,9.96875 12.78125,10.328125 C13.109375,10.65625 13.53125,11.0625 14,11.5 C14.453125,11.921875 14.9375,12.359375 15.390625,12.78125 C15.921875,13.25 16.078125,13.765625 16.078125,14.28125 C16.078125,14.671875 15.875,14.984375 15.59375,15.1875 C15.296875,15.390625 14.859375,15.46875 14.421875,15.453125 C13.921875,15.421875 13.421875,15.34375 12.96875,15.140625 C12.953125,15.25 12.953125,15.390625 12.9375,15.546875 L12.90625,16.0625 C12.875,16.421875 12.828125,16.78125 12.78125,17.015625 C12.59375,17.71875 12.171875,18.3125 11.703125,18.734375 C11.28125,19.15625 10.875,19.40625 10.34375,19.53125 Z M12.9375,14.3125 C13.28125,14.578125 13.765625,14.671875 14.09375,14.703125 C14.65625,14.75 14.75,14.453125 14.421875,13.78125 C14.046875,12.9375 13.421875,12.125 12.796875,11.375 C12.828125,11.765625 12.859375,12.3125 12.875,12.859375 L12.921875,13.640625 C12.921875,13.890625 12.921875,14.109375 12.9375,14.3125 Z M11.640625,13.421875 C11.625,12.953125 11.609375,12.453125 11.609375,11.9375 L11.5625,10.4375 L10.90625,9.875 C10.578125,9.96875 10.265625,10.140625 10.015625,10.328125 C9.75,10.515625 9.578125,10.75 9.578125,11 C9.578125,11.40625 9.78125,11.875 10.28125,12.34375 C10.765625,12.78125 11.3125,13.25 11.640625,13.421875 Z" transform="translate(0.0703125, 19.53125) scale(1, -1)"/>
</svg>