<svg height="20.234375" viewBox="0 0 24 20.234375" width="24" xmlns="http://www.w3.org/2000/svg">
<path d="M4.421875,16.375 C4.90625,15.578125 5.4375,15.15625 6.140625,14.859375 C6.890625,14.546875 7.8125,14.46875 8.609375,14.5625 C8.484375,14.328125 8.234375,13.953125 7.953125,13.609375 C7.6875,13.265625 7.421875,12.953125 7.25,12.84375 C6.8125,12.5625 6.703125,12.4375 6.734375,12.1875 C6.78125,11.859375 6.96875,11.765625 7.328125,11.6875 C7.59375,11.625 7.765625,11.546875 8.046875,11.3125 C8.3125,11.0625 8.46875,10.734375 8.46875,10.078125 C8.46875,9.515625 8.328125,8.84375 8.109375,8.1875 C7.890625,7.53125 7.625,6.875 7.34375,6.34375 C7.25,6.140625 7.109375,5.9375 6.96875,5.703125 C6.828125,5.484375 6.6875,5.265625 6.59375,5.015625 C6.5,4.75 6.625,4.46875 6.828125,4.21875 C6.90625,4.125 7.0625,4 7.25,3.875 C7.4375,3.765625 7.640625,3.671875 7.78125,3.671875 C8.0625,3.671875 8.3125,3.765625 8.453125,3.9375 C8.59375,4.109375 8.765625,4.296875 8.953125,4.484375 C9.1875,4.71875 9.671875,5.109375 10.203125,5.515625 C10.71875,5.90625 11.296875,6.3125 11.703125,6.546875 C12.640625,7.125 13.359375,7.484375 14.03125,7.71875 C14.703125,7.9375 15.328125,8.015625 16.125,8.015625 C17.59375,8.015625 18.421875,7.203125 18.5,5.890625 C18.546875,5.265625 18.3125,4.609375 17.796875,3.9375 C17.265625,3.265625 16.390625,2.5625 15.171875,1.859375 C14.125,1.25 13.046875,0.78125 11.984375,0.421875 C10.90625,0.046875 9.859375,-0.234375 8.859375,-0.484375 L9.1875,-1.109375 C10.21875,-0.875 11.375,-0.59375 12.546875,-0.21875 C13.703125,0.140625 14.875,0.578125 15.984375,1.109375 C17.546875,1.859375 18.59375,2.640625 19.25,3.4375 C19.90625,4.234375 20.140625,5.046875 20.140625,5.84375 C20.09375,7.671875 18.6875,8.75 16.203125,8.84375 C15.59375,8.84375 14.890625,8.765625 14.234375,8.609375 C13.5625,8.46875 12.90625,8.234375 12.34375,8 C11.640625,7.671875 10.9375,7.296875 10.28125,6.890625 C9.609375,6.5 9,6.078125 8.515625,5.734375 C8.28125,5.5625 8.140625,5.5625 8.125,5.640625 C8.09375,5.6875 8.140625,5.78125 8.203125,5.90625 C8.375,6.1875 8.609375,6.6875 9.03125,7.53125 C9.34375,8.15625 9.546875,8.640625 9.671875,9.046875 C9.796875,9.453125 9.84375,9.796875 9.84375,10.125 C9.84375,10.4375 9.796875,10.6875 9.71875,10.859375 C9.53125,11.21875 9.09375,11.71875 8.640625,11.921875 C8.421875,12.015625 8.21875,12.09375 8.0625,12.171875 C7.84375,12.265625 7.765625,12.375 8,12.5 C8.28125,12.65625 8.6875,13.03125 9.078125,13.453125 C9.453125,13.859375 9.8125,14.3125 9.984375,14.59375 C10.15625,14.59375 10.34375,14.609375 10.578125,14.609375 C11.046875,14.65625 11.5625,14.703125 12.046875,14.78125 C12.546875,14.859375 13.046875,14.984375 13.390625,15.109375 C13.546875,15.171875 13.671875,15.21875 13.71875,15.265625 C14.09375,15.5625 14.0625,15.921875 13.71875,16.15625 C13.34375,16.390625 13.015625,16.4375 12.796875,16.296875 C12.578125,16.171875 12.34375,16.09375 12.046875,16.015625 C11.609375,15.875 11,15.78125 10.625,15.828125 C10.78125,15.96875 10.984375,16.234375 11.1875,16.515625 C11.375,16.796875 11.5625,17.09375 11.703125,17.359375 C11.9375,17.796875 11.859375,18.40625 11.375,18.640625 C11.140625,18.78125 10.796875,18.875 10.4375,18.96875 C10.0625,19.046875 9.6875,19.09375 9.3125,19.125 L9,18.640625 C9.984375,18.28125 10.328125,17.9375 10.15625,17.375 C10.0625,17.140625 9.921875,16.828125 9.75,16.53125 C9.5625,16.25 9.34375,15.9375 9.140625,15.734375 C8.484375,15.640625 7.8125,15.59375 6.875,15.734375 C5.984375,15.875 5.234375,16.21875 4.765625,16.71875 Z" transform="translate(-0.28125, 19.125) scale(1, -1)"/>
</svg>