<svg height="19.65625" viewBox="0 0 24 19.65625" width="24" xmlns="http://www.w3.org/2000/svg">
<path d="M5.640625,18.5 C6.3125,18.265625 6.53125,17.890625 6.3125,17.359375 C5.859375,16.234375 5.234375,15.359375 4.5625,14.8125 C4.40625,14.6875 4.296875,14.578125 4.234375,14.5 C4.078125,14.328125 4.03125,14.046875 4.109375,13.78125 C4.203125,13.53125 4.390625,13.25 4.765625,13.375 C4.953125,13.4375 5.203125,13.53125 5.515625,13.65625 C5.796875,13.78125 6.125,13.921875 6.484375,14.078125 C6.84375,14.234375 7.296875,14.4375 7.859375,14.6875 C6.53125,13.171875 5.515625,11.984375 4.71875,11.046875 C4.4375,10.6875 4.21875,10.40625 4.109375,10.203125 C4,9.984375 3.9375,9.796875 3.9375,9.625 C3.9375,9.125 4.296875,8.953125 4.875,9 C5.625,9.0625 6.171875,9.21875 6.921875,9.484375 C6.03125,7.78125 5.03125,5.828125 4.28125,3.9375 C4.015625,3.28125 3.78125,2.75 3.453125,2.28125 C3.265625,1.96875 3.09375,1.71875 2.984375,1.484375 C2.859375,1.234375 2.796875,0.96875 2.796875,0.625 C2.796875,0.140625 2.890625,-0.234375 3.078125,-0.53125 C3.171875,-0.71875 3.3125,-0.734375 3.453125,-0.671875 C3.59375,-0.59375 3.75,-0.4375 3.890625,-0.234375 C3.984375,-0.09375 4.078125,0.09375 4.15625,0.3125 L4.4375,1.078125 C5,2.59375 5.515625,3.875 6.03125,4.671875 C6.96875,6.09375 8,6.65625 8.953125,6.6875 C8.203125,5.4375 7.625,4.34375 7.03125,3.03125 C6.796875,2.5 6.5625,1.921875 6.484375,1.515625 C6.359375,0.875 6.59375,0.46875 7.203125,0.265625 C7.625,0.125 8.1875,0.078125 8.890625,0.234375 C10.25,0.515625 11.15625,1.53125 11.359375,3.40625 C11.46875,4.4375 11.375,5.234375 11.140625,5.84375 C10.890625,6.4375 10.5,6.84375 10.03125,7.125 C10.390625,7.828125 10.828125,8.5 11.328125,9.171875 L10.828125,9.453125 C10.296875,8.796875 9.84375,8.109375 9.34375,7.34375 C8.40625,7.4375 7.34375,7.125 6.3125,6.09375 C6.609375,6.71875 6.890625,7.34375 7.171875,7.953125 C7.4375,8.578125 7.71875,9.171875 8.015625,9.78125 C9.28125,10.15625 10.328125,10.609375 11.1875,11.09375 C11.6875,11.375 11.8125,11.859375 11.453125,12.359375 C11.140625,12.796875 10.796875,13.0625 10.25,13.34375 C9.78125,13.578125 9.3125,13.53125 8.984375,13.125 C8.375,12.375 7.96875,11.609375 7.515625,10.671875 C6.859375,10.484375 6.234375,10.3125 5.65625,10.28125 C5.234375,10.25 5.140625,10.46875 5.40625,10.78125 C5.9375,11.40625 6.703125,12.171875 7.515625,12.96875 C8.328125,13.765625 9.203125,14.546875 9.96875,15.171875 C10.375,15.5 10.421875,15.859375 10.109375,16.21875 C9.875,16.484375 9.59375,16.4375 9.234375,16.203125 C9.09375,16.109375 8.84375,15.9375 8.453125,15.796875 C7.796875,15.546875 6.875,15.1875 5.984375,14.953125 C6.78125,15.703125 7.296875,16.34375 7.765625,17.265625 C8.09375,17.96875 7.40625,18.59375 6.09375,18.921875 Z M15.921875,18.40625 C15.640625,18.453125 15.171875,18.5 14.765625,18.40625 L14.46875,17.890625 C15.171875,17.84375 15.546875,17.515625 15.4375,17.015625 C15.3125,16.453125 14.9375,15.59375 14.484375,14.75 C14.046875,13.90625 13.53125,13.109375 13.25,12.6875 C13.125,12.53125 13.03125,12.40625 12.96875,12.296875 C12.921875,12.1875 12.84375,12.078125 12.78125,11.984375 C12.703125,11.875 12.671875,11.765625 12.671875,11.65625 C12.671875,11.40625 12.921875,10.953125 13.328125,10.90625 C13.515625,10.859375 13.765625,11.015625 14.09375,11.203125 C14.40625,11.375 14.71875,11.578125 15.03125,11.78125 C15.359375,11.984375 15.625,12.125 15.84375,12.21875 C16.09375,12.3125 16.4375,12.5 16.765625,12.65625 C17.09375,12.828125 17.390625,12.96875 17.609375,13.109375 C17.609375,12.921875 17.609375,12.6875 17.59375,12.453125 L17.5625,11.640625 C17.546875,11.0625 17.515625,10.4375 17.515625,9.875 C17.28125,9.828125 16.90625,9.6875 16.53125,9.484375 C16.15625,9.28125 15.734375,9.03125 15.453125,8.84375 C15.1875,8.65625 14.890625,8.40625 14.640625,8.1875 C14.375,7.953125 14.140625,7.71875 14.015625,7.578125 C13.765625,7.296875 13.671875,7.015625 13.671875,6.765625 C13.703125,6.234375 14.078125,5.9375 14.328125,5.65625 C14.59375,5.390625 14.875,5.109375 15.15625,4.859375 C15.28125,4.734375 15.40625,4.625 15.5,4.53125 C15.3125,4.296875 14.984375,3.890625 14.65625,3.515625 C14.328125,3.125 13.984375,2.75 13.765625,2.5625 C13.390625,2.234375 13.203125,1.859375 13.25,1.484375 C13.28125,1.09375 13.53125,0.734375 14,0.453125 C14.375,0.234375 15.015625,0.109375 15.6875,0.03125 C16.34375,-0.078125 17.015625,-0.09375 17.46875,-0.09375 C17.984375,-0.09375 18.5625,-0.078125 19.09375,-0.03125 C19.625,0.03125 20.125,0.078125 20.453125,0.171875 C21.03125,0.296875 21.3125,0.53125 21.265625,0.875 C21.234375,1.1875 21.09375,1.375 20.859375,1.515625 C20.5625,1.6875 20.21875,1.6875 19.828125,1.515625 C19.609375,1.421875 19.203125,1.34375 18.734375,1.296875 C18.265625,1.234375 17.71875,1.203125 17.28125,1.203125 C16.71875,1.203125 16.234375,1.234375 15.796875,1.296875 C14.9375,1.4375 13.890625,1.671875 14.453125,2.328125 L15.265625,3.234375 C15.546875,3.546875 15.84375,3.859375 16.078125,4.078125 C16.515625,3.8125 16.921875,3.484375 17.375,3.03125 C17.65625,2.75 18,2.71875 18.234375,2.859375 C18.53125,3.03125 18.75,3.3125 18.71875,3.734375 C18.640625,4.921875 18.59375,5.953125 18.59375,6.578125 C18.796875,6.828125 19.015625,7.125 19.15625,7.453125 C19.3125,7.765625 19.421875,8.125 19.421875,8.453125 C19.421875,8.828125 19.3125,9.078125 19.171875,9.296875 C19.015625,9.5 18.828125,9.640625 18.640625,9.78125 C18.640625,11.046875 18.671875,12.359375 18.78125,13.625 L19.390625,13.96875 C19.53125,14.046875 19.640625,14.125 19.765625,14.21875 C20,14.40625 20.140625,14.625 20.140625,14.828125 C20.140625,14.9375 20.09375,15.03125 19.96875,15.125 C19.84375,15.21875 19.71875,15.34375 19.578125,15.46875 C19.453125,15.59375 19.3125,15.734375 19.171875,15.875 C19,16.015625 18.8125,16.109375 18.59375,16.046875 C18.390625,15.96875 18.171875,15.75 17.984375,15.3125 C17.796875,14.9375 17.671875,14.515625 17.546875,14.140625 C16.5625,13.609375 15.625,13.25 14.59375,12.875 C15.296875,13.859375 15.921875,15.078125 16.421875,16.296875 C16.578125,16.65625 16.671875,16.953125 16.71875,17.171875 C16.78125,17.390625 16.8125,17.5625 16.8125,17.6875 C16.8125,18.03125 16.4375,18.3125 15.921875,18.40625 Z M8.515625,10.90625 C8.65625,11.140625 8.796875,11.421875 8.953125,11.703125 C9.265625,12.265625 9.59375,12.921875 9.96875,12.640625 C10.5625,12.21875 10.484375,11.703125 9.890625,11.421875 C9.4375,11.203125 9.03125,11.046875 8.515625,10.90625 Z M17.515625,7.03125 C17.328125,6.703125 17,6.265625 16.6875,5.890625 C16.359375,5.5 16.046875,5.15625 15.890625,5.015625 C15.734375,5.140625 15.515625,5.328125 15.3125,5.515625 L14.984375,5.796875 C14.796875,5.96875 14.46875,6.21875 14.53125,6.5 C14.578125,6.78125 14.890625,7.078125 15.265625,7.375 C15.640625,7.65625 16.046875,7.9375 16.40625,8.140625 C16.765625,8.359375 17.078125,8.515625 17.28125,8.515625 C17.375,8.515625 17.46875,8.5 17.515625,8.46875 Z M9.640625,6.484375 C10.4375,6.09375 10.578125,5 10.25,3.390625 C10.015625,2.203125 9.453125,1.484375 8.421875,1.390625 C7.53125,1.3125 7.390625,1.671875 7.8125,2.65625 C8.328125,3.9375 8.9375,5.15625 9.640625,6.484375 Z M17.515625,4.171875 C17.234375,4.25 16.90625,4.40625 16.5625,4.578125 C16.625,4.671875 16.8125,4.875 17,5.078125 C17.203125,5.28125 17.421875,5.484375 17.515625,5.609375 Z" transform="translate(-0.0546875, 18.921875) scale(1, -1)"/>
</svg>