<svg height="19.953125" viewBox="0 0 24 19.953125" width="24" xmlns="http://www.w3.org/2000/svg">
<path d="M9.390625,18.546875 C9.921875,18.328125 10.359375,17.953125 10.53125,17.46875 C10.671875,17.09375 10.6875,16.515625 10.65625,16.0625 C9.921875,15.734375 9.171875,15.359375 8.515625,14.9375 C7.859375,14.515625 7.25,14.09375 6.828125,13.703125 C6.453125,14.6875 6.15625,16.140625 6.125,17.796875 L5.609375,17.640625 C5.34375,15.59375 5.5,13.96875 5.890625,12.9375 C5.609375,12.703125 5.203125,12.28125 4.796875,11.828125 C4.390625,11.359375 3.96875,10.875 3.6875,10.515625 C3.453125,10.21875 3.25,9.875 3.078125,9.5625 C2.890625,9.25 2.765625,8.96875 2.703125,8.8125 C2.390625,7.984375 2.625,7.578125 3.265625,7.25 C3.734375,7.015625 4,6.640625 4.25,6.234375 C4.53125,5.75 4.953125,5.65625 5.5,5.9375 C6.1875,6.265625 6.953125,6.828125 7.609375,7.34375 C8.265625,7.859375 8.828125,8.359375 9.078125,8.640625 C9.3125,8.453125 9.671875,8.265625 10.0625,8.140625 C10.28125,8.046875 10.65625,8.09375 10.875,8.234375 C11.015625,8.3125 11.125,8.46875 11.15625,8.640625 C11.1875,8.796875 11.125,8.96875 10.921875,9.046875 C10.71875,9.125 10.5,9.25 10.328125,9.359375 C10.15625,9.484375 10.015625,9.578125 9.96875,9.625 C10.296875,10.03125 10.625,10.625 10.90625,11.1875 C11.171875,11.765625 11.375,12.359375 11.5,12.734375 C11.734375,13.5 11.96875,14.59375 12.03125,15.671875 C12.96875,16.046875 14.125,16.28125 15.078125,16.28125 C16.0625,16.28125 16.875,15.921875 17.5,15.296875 C18.15625,14.640625 18.5,13.765625 18.53125,12.6875 C18.578125,10.859375 18,9.53125 17.15625,8.640625 C16.984375,8.890625 16.671875,9.15625 16.15625,9.390625 C15.78125,9.5625 15.1875,9.6875 14.421875,9.640625 C13.90625,9.640625 13.3125,9.453125 12.84375,9.171875 C12.359375,8.890625 12.03125,8.46875 12.03125,8.046875 C12.03125,7.578125 12.265625,7.171875 12.640625,6.9375 C13.03125,6.6875 13.609375,6.484375 14.3125,6.53125 C13.859375,6.296875 13.171875,6.015625 12.34375,5.734375 C11.515625,5.4375 10.546875,5.125 9.53125,4.8125 C8.703125,4.53125 7.71875,4.109375 6.734375,3.625 C5.75,3.125 4.765625,2.5625 3.921875,2.09375 C3.296875,1.71875 2.859375,1.4375 2.453125,1.125 C2.109375,0.859375 2.015625,0.640625 2.015625,0.1875 C2.015625,-0.078125 2.09375,-0.40625 2.328125,-0.640625 C2.609375,-0.921875 2.90625,-0.828125 3.390625,-0.34375 C3.75,0.03125 4.03125,0.3125 4.53125,0.6875 C4.90625,0.96875 5.3125,1.25 5.734375,1.515625 C6.5625,2.0625 7.5,2.546875 8.328125,2.546875 C8.53125,2.546875 8.75,2.515625 8.96875,2.40625 C9.1875,2.296875 9.421875,2.09375 9.6875,1.765625 C10.578125,0.671875 11.234375,0 11.765625,-0.4375 C12.109375,-0.71875 12.3125,-0.78125 12.484375,-0.78125 C12.828125,-0.78125 13.234375,-0.625 13.328125,-0.125 C13.421875,0.34375 13.65625,0.890625 13.96875,1.4375 C14.453125,2.28125 15.03125,2.703125 15.5,3.03125 C15.875,3.265625 16.28125,3.34375 16.609375,3.34375 C17,3.34375 17.390625,3.3125 18.046875,2.90625 C18.84375,2.40625 19.453125,1.5625 20.15625,0.234375 C20.265625,0.03125 20.359375,-0.15625 20.4375,-0.3125 C20.515625,-0.453125 20.625,-0.5625 20.796875,-0.640625 C20.984375,-0.734375 21.3125,-0.796875 21.578125,-0.578125 C21.890625,-0.328125 21.984375,-0.078125 21.984375,0.3125 C21.984375,0.59375 21.875,0.9375 21.484375,1.46875 C20.984375,2.171875 20.34375,2.78125 19.59375,3.234375 C18.84375,3.6875 17.96875,3.96875 17.015625,3.96875 C16.359375,3.96875 15.609375,3.828125 14.84375,3.4375 C14.09375,3.046875 13.296875,2.421875 12.53125,1.421875 C12.4375,1.296875 12.359375,1.203125 12.3125,1.15625 C12.25,1.09375 12.1875,1.0625 12.125,1.0625 C12.03125,1.046875 11.90625,1.140625 11.703125,1.328125 C10.90625,2.078125 10.296875,2.5625 9.8125,2.84375 C9.3125,3.125 8.921875,3.21875 8.546875,3.21875 C7.828125,3.21875 6.921875,2.9375 5.6875,2.328125 C7.09375,3.3125 8.703125,3.875 10.8125,4.421875 C11.546875,4.609375 12.328125,4.828125 13.015625,5.03125 C13.6875,5.234375 14.28125,5.4375 14.640625,5.59375 C15.484375,5.953125 16.109375,6.21875 16.515625,6.53125 C17.109375,6.984375 17.28125,7.421875 17.375,7.8125 C17.75,8.078125 18.078125,8.3125 18.390625,8.609375 C18.6875,8.921875 18.984375,9.265625 19.328125,9.796875 C19.578125,10.1875 19.78125,10.71875 19.9375,11.25 C20.078125,11.796875 20.15625,12.34375 20.15625,12.828125 C20.15625,13.953125 19.828125,14.875 19.078125,15.625 C18.171875,16.515625 16.9375,17.015625 15.09375,17.015625 C14.609375,17.015625 14.046875,16.953125 13.484375,16.875 C12.9375,16.78125 12.4375,16.65625 12.078125,16.515625 C12.078125,16.734375 12.0625,17.046875 12,17.375 C11.921875,17.859375 11.640625,18.1875 11.109375,18.5 C10.96875,18.59375 10.75,18.6875 10.484375,18.78125 C10.234375,18.875 9.953125,18.96875 9.71875,19.03125 Z M10.671875,15.3125 C10.671875,14.90625 10.625,14.40625 10.53125,13.890625 C10.421875,13.375 10.296875,12.84375 10.15625,12.4375 C9.828125,11.5 9.53125,10.78125 9.078125,10.171875 C8.75,10.4375 8.375,10.84375 8.046875,11.28125 C7.71875,11.734375 7.421875,12.234375 7.25,12.734375 C7.65625,13.203125 8.203125,13.703125 8.8125,14.171875 C9.40625,14.640625 10.0625,15.046875 10.671875,15.3125 Z M6.265625,11.9375 C6.734375,10.859375 7.484375,9.890625 8.328125,9.1875 C8.140625,8.921875 7.71875,8.515625 7.234375,8.109375 C6.734375,7.703125 6.171875,7.296875 5.703125,7.015625 C5.25,6.734375 5.09375,6.6875 4.875,6.96875 C4.703125,7.1875 4.4375,7.390625 4.21875,7.5625 C3.890625,7.828125 3.78125,7.96875 3.984375,8.46875 C4.125,8.84375 4.421875,9.453125 4.828125,10.15625 C5,10.4375 5.234375,10.78125 5.515625,11.09375 C5.78125,11.421875 6.046875,11.703125 6.265625,11.9375 Z M16.125,7.953125 C15.59375,7.28125 15.015625,7.15625 14.3125,7.15625 C13.25,7.15625 12.890625,7.5625 12.890625,8 C12.890625,8.28125 13.109375,8.546875 13.390625,8.703125 C13.6875,8.875 14.09375,8.953125 14.453125,8.953125 C15.328125,8.953125 15.953125,8.5 16.125,7.953125 Z" transform="translate(0, 19.03125) scale(1, -1)"/>
</svg>