<svg height="20.78125" viewBox="0 0 24 20.78125" width="24" xmlns="http://www.w3.org/2000/svg">
<path d="M5.765625,15.921875 C6.390625,14.984375 7.46875,14.328125 8.6875,14.203125 C8.25,13.5625 7.703125,12.78125 7.109375,11.9375 C6.5,11.09375 5.890625,10.203125 5.328125,9.390625 C5.03125,8.984375 4.765625,8.578125 4.5,8.21875 L3.828125,7.25 C3.59375,6.921875 3.453125,6.71875 3.375,6.5625 C3.296875,6.40625 3.265625,6.3125 3.265625,6.171875 C3.265625,5.796875 3.40625,5.421875 3.53125,5.234375 C3.640625,5.046875 3.78125,4.953125 3.953125,4.984375 C4.125,5.015625 4.3125,5.1875 4.53125,5.5625 C5.328125,6.9375 6.3125,8.5625 7.296875,10.078125 C8.28125,11.609375 9.265625,13.046875 10.0625,14.09375 C10.671875,14.09375 11.40625,14.140625 12.109375,14.21875 C12.796875,14.28125 13.421875,14.375 13.78125,14.46875 C14.46875,14.65625 15.125,14.921875 15.6875,15.203125 C16.234375,15.484375 16.65625,15.78125 16.859375,16.0625 C17.3125,16.671875 17.140625,17.265625 16.484375,17.453125 C16.109375,17.5625 15.6875,17.8125 15.328125,18.09375 C14.96875,18.375 14.65625,18.6875 14.453125,18.96875 C14.046875,19.484375 13.390625,19.5625 12.546875,18.890625 C11.9375,18.40625 11.3125,17.75 10.75,17.09375 C10.1875,16.4375 9.6875,15.8125 9.359375,15.390625 C8.8125,15.390625 8.203125,15.453125 7.625,15.59375 C7.03125,15.734375 6.5,15.96875 6.125,16.328125 Z M10.78125,15.3125 C11.015625,15.640625 11.453125,16.171875 11.921875,16.703125 C12.375,17.234375 12.859375,17.75 13.21875,18.078125 C13.375,18.203125 13.5,18.3125 13.609375,18.375 C13.8125,18.515625 13.953125,18.546875 14.09375,18.46875 C14.21875,18.390625 14.359375,18.21875 14.5625,18 L14.875,17.65625 C15.09375,17.421875 15.3125,17.1875 15.453125,17.0625 C15.78125,16.765625 15.84375,16.625 15.59375,16.4375 C15.078125,16.03125 14.265625,15.734375 13.28125,15.5 C12.375,15.3125 11.390625,15.28125 10.78125,15.3125 Z M14.265625,12.71875 C13.953125,12.71875 13.484375,12.6875 13.0625,12.640625 C12.640625,12.59375 12.203125,12.5 11.953125,12.359375 L12.125,11.859375 C13.71875,12.015625 15.046875,11.890625 15.890625,11.1875 C15.71875,11.09375 15.46875,11 15.15625,10.859375 C14.53125,10.578125 13.8125,10.21875 13.15625,9.875 C12.5,9.546875 11.28125,8.96875 11.28125,8.234375 C11.28125,7.90625 11.40625,7.59375 11.796875,7.328125 C12,7.171875 12.171875,7.0625 12.265625,6.953125 C12.375,6.84375 12.453125,6.765625 12.5,6.6875 C12.5625,6.546875 12.5,6.4375 12.359375,6.34375 C12.171875,6.203125 11.984375,6.078125 11.765625,5.796875 C11.46875,5.40625 11.546875,5.140625 11.734375,4.71875 C11.96875,4.203125 12.125,3.5 12.1875,2.796875 C12.234375,2.109375 12.171875,1.421875 11.984375,0.984375 C11.828125,0.671875 11.65625,0.59375 11.328125,0.671875 C10.828125,0.78125 10.265625,0.96875 9.765625,1.1875 C9.25,1.390625 8.796875,1.625 8.5625,1.828125 C8.703125,1.9375 8.9375,2.140625 9.21875,2.375 C9.484375,2.609375 9.796875,2.921875 10.078125,3.21875 L9.84375,3.59375 C9.296875,3.21875 8.546875,2.78125 7.796875,2.375 C7.046875,1.953125 6.296875,1.59375 5.765625,1.390625 C5.25,1.203125 5.140625,1.390625 5.140625,1.828125 C5.140625,2.078125 5.21875,2.328125 5.375,2.609375 C5.515625,2.84375 5.796875,3.125 6.171875,3.390625 L5.90625,3.84375 C5.625,3.6875 5.3125,3.46875 5.015625,3.25 C4.71875,3.03125 4.453125,2.796875 4.296875,2.640625 C3.9375,2.265625 3.640625,1.703125 3.640625,1.21875 C3.640625,0.859375 3.765625,0.359375 4.03125,0.046875 C4.203125,-0.140625 4.46875,-0.359375 5,-0.359375 C5.328125,-0.359375 5.84375,-0.171875 6.640625,0.359375 C7.015625,0.59375 7.390625,0.890625 8.15625,1.484375 C8.40625,1.25 8.828125,0.953125 9.3125,0.640625 C9.78125,0.34375 10.328125,0.015625 10.828125,-0.234375 C11.09375,-0.359375 11.25,-0.546875 11.328125,-0.734375 C11.46875,-1.0625 11.640625,-1.21875 11.984375,-1.21875 C12.21875,-1.21875 12.46875,-1.0625 12.6875,-0.828125 C12.921875,-0.59375 13.109375,-0.265625 13.21875,0.03125 C13.546875,0.921875 13.578125,1.953125 13.40625,2.890625 C13.25,3.828125 12.890625,4.65625 12.5,5.15625 C12.328125,5.375 12.359375,5.5625 12.5,5.703125 C12.640625,5.84375 12.890625,5.9375 13.21875,5.984375 C13.484375,6.015625 13.6875,6.0625 13.828125,6.125 C14.09375,6.21875 14.265625,6.359375 14.328125,6.640625 C14.40625,6.90625 14.265625,7.203125 14.078125,7.359375 C13.875,7.53125 13.59375,7.640625 13.1875,7.828125 C12.984375,7.921875 12.75,8.046875 12.5,8.1875 C12.21875,8.359375 12.171875,8.65625 12.578125,8.890625 C12.828125,9.015625 13.28125,9.21875 13.75,9.421875 C14.21875,9.609375 14.71875,9.796875 15.046875,9.890625 C15.53125,10.03125 15.921875,10.125 16.265625,10.15625 C16.625,10.171875 16.9375,10.140625 17.3125,10.03125 C17.671875,9.921875 17.9375,9.828125 18.21875,9.828125 C18.546875,9.828125 18.921875,9.96875 19.0625,10.203125 C19.203125,10.46875 19.171875,10.90625 18.6875,11.375 C18.546875,11.515625 18.265625,11.703125 17.953125,11.859375 C17.640625,12.03125 17.296875,12.171875 17.015625,12.265625 C16.765625,12.359375 16.296875,12.46875 15.78125,12.5625 C15.265625,12.65625 14.6875,12.71875 14.265625,12.71875 Z M16.203125,3.34375 C17.09375,3.375 17.640625,3.09375 18.1875,2.640625 C18.5,2.375 18.734375,2.125 18.921875,1.84375 C19.109375,1.546875 19.28125,1.21875 19.46875,0.796875 C19.640625,0.4375 20.015625,0.390625 20.3125,0.484375 C20.765625,0.625 20.90625,1.03125 20.90625,1.53125 C20.90625,1.859375 20.828125,2.171875 20.65625,2.4375 C20.296875,2.984375 19.859375,3.265625 19.28125,3.5625 C18.703125,3.84375 18.140625,3.96875 17.328125,3.96875 C16.921875,3.96875 16.53125,3.921875 16.125,3.828125 Z" transform="translate(-0.0859375, 19.5625) scale(1, -1)"/>
</svg>