<svg height="19.890625" viewBox="0 0 24 19.890625" width="24" xmlns="http://www.w3.org/2000/svg">
<path d="M5.203125,18 C5.640625,17.875 5.96875,17.734375 6.203125,17.484375 C6.421875,17.234375 6.546875,16.875 6.59375,16.34375 C6.640625,15.828125 6.65625,15.078125 6.625,14.1875 C6.234375,13.96875 5.890625,13.796875 5.5625,13.640625 C4.921875,13.34375 4.515625,13.15625 4.28125,13.15625 C4.15625,13.15625 4.109375,13.21875 4.125,13.375 C4.171875,13.65625 4.328125,13.90625 4.46875,14.046875 L4.078125,14.15625 C3.625,13.84375 3.234375,13.390625 3.234375,13.03125 C3.234375,12.6875 3.28125,12.390625 3.59375,12.1875 C3.875,12.015625 4.125,12.015625 4.53125,12.140625 C5.0625,12.296875 5.796875,12.640625 6.59375,13.078125 C6.59375,12.609375 6.59375,11.96875 6.578125,11.28125 L6.546875,10.265625 C6.53125,9.921875 6.53125,9.625 6.515625,9.34375 C6.5,9.046875 6.5,8.796875 6.5,8.609375 C6.484375,8.390625 6.484375,8.25 6.484375,8.1875 C6.125,7.859375 5.734375,7.5 5.328125,7.140625 C4.90625,6.765625 4.484375,6.359375 4.03125,5.90625 C4.515625,6.71875 4.9375,7.5 5.265625,8.203125 C5.59375,8.890625 5.8125,9.5 5.90625,9.921875 C6.015625,10.484375 5.953125,10.734375 5.8125,11.0625 C5.71875,11.28125 5.5,11.421875 5.359375,11.5 L5,11.140625 C5.171875,10.9375 5.296875,10.4375 5.109375,9.875 C4.9375,9.390625 4.5625,8.5625 4.109375,7.71875 C3.640625,6.875 3.140625,6.046875 2.734375,5.5625 C2.375,5.140625 2.234375,4.96875 2.046875,4.609375 C1.953125,4.4375 1.96875,4.15625 2.0625,3.9375 C2.328125,3.34375 2.65625,3.140625 3.09375,3.40625 C3.484375,3.640625 3.75,3.96875 4.078125,4.34375 C4.59375,4.953125 5.359375,5.6875 6.4375,6.71875 C6.40625,5.65625 6.40625,4.671875 6.390625,3.734375 C6.375,2.796875 6.359375,1.953125 6.34375,1.203125 L4.671875,3.1875 L4.34375,2.703125 C5.09375,1.671875 5.609375,0.6875 5.890625,-0.390625 C5.921875,-0.546875 5.96875,-0.6875 6.015625,-0.828125 C6.09375,-1.125 6.46875,-1.34375 6.890625,-1.078125 C7.203125,-0.890625 7.5,-0.421875 7.578125,-0.046875 C7.6875,0.390625 7.71875,0.890625 7.625,1.5625 C7.59375,1.8125 7.578125,2.0625 7.578125,2.3125 L7.53125,3.046875 C8.9375,2.953125 10.046875,2.84375 10.9375,2.703125 C11.828125,2.578125 12.484375,2.46875 13.03125,2.359375 C13.734375,2.21875 14.796875,1.90625 15.796875,1.5625 C16.8125,1.21875 17.75,0.84375 18.3125,0.578125 C19.390625,0.078125 20.1875,-0.328125 20.65625,-0.59375 C21.03125,-0.78125 21.359375,-0.859375 21.609375,-0.8125 C21.84375,-0.765625 22.015625,-0.609375 22.015625,-0.34375 C22.015625,0.171875 21.84375,0.546875 21.046875,0.96875 C20.25,1.375 19.46875,1.71875 18.578125,2 C18.078125,2.140625 17.390625,2.375 16.640625,2.5625 C15.890625,2.765625 15.0625,2.984375 14.265625,3.125 C13.421875,3.265625 11.984375,3.5 10.203125,3.546875 C10.671875,3.75 11.359375,4.0625 12.0625,4.40625 C12.765625,4.75 13.46875,5.109375 14.015625,5.421875 C14.859375,5.609375 15.4375,5.765625 15.953125,5.953125 C16.453125,6.140625 16.875,6.34375 17.421875,6.625 C17.9375,6.890625 18.3125,7.109375 18.625,7.390625 C18.9375,7.65625 19.1875,7.953125 19.46875,8.328125 C19.765625,8.75 20.046875,9.3125 20.046875,10.28125 C20.046875,10.984375 19.859375,11.578125 19.390625,12.1875 C18.796875,12.9375 17.84375,13.21875 16.46875,13.21875 C15.59375,13.21875 14.640625,13.015625 13.28125,12.53125 C12.453125,12.21875 11.421875,11.6875 10.390625,11.0625 C9.359375,10.4375 8.328125,9.734375 7.4375,9.078125 C7.4375,10.90625 7.515625,12.390625 7.609375,13.65625 C8.421875,14.140625 9.21875,14.65625 9.875,15.09375 C10.53125,15.515625 11.015625,15.875 11.203125,16.0625 C11.703125,16.53125 11.859375,16.75 11.859375,17.15625 C11.859375,17.453125 11.625,17.78125 11.359375,17.953125 C10.984375,18.1875 10.5625,18.375 10.078125,18.546875 L9.578125,18.125 C10.140625,17.875 10.421875,17.421875 10.078125,17 C9.40625,16.15625 8.5625,15.453125 7.71875,14.890625 C7.765625,15.125 7.8125,15.375 7.84375,15.609375 L7.953125,16.28125 C8,16.703125 8.046875,16.953125 8.015625,17.140625 C7.96875,17.34375 7.875,17.5 7.671875,17.734375 C7.359375,18.140625 6.53125,18.46875 5.40625,18.546875 Z M16.421875,12.484375 C17.21875,12.484375 17.6875,12.21875 18.09375,11.765625 C18.390625,11.421875 18.5,10.828125 18.453125,10.28125 C18.40625,9.34375 18.125,8.5625 17.5,7.90625 C16.921875,7.296875 16.109375,6.78125 15.4375,6.546875 C16.328125,7.078125 16.703125,7.765625 16.703125,8.1875 C16.703125,8.640625 16.515625,8.9375 16.21875,9.125 C15.921875,9.296875 15.53125,9.359375 15.140625,9.34375 C14.734375,9.328125 14.3125,9.234375 13.90625,9.09375 C13.484375,8.953125 13.109375,8.78125 12.828125,8.59375 C11.796875,7.921875 11.421875,7.375 11.421875,6.71875 C11.421875,6.3125 11.5625,6.0625 11.953125,5.890625 C12.234375,5.75 12.546875,5.65625 12.984375,5.734375 C12.5,5.421875 11.71875,5.015625 10.984375,4.671875 C10.25,4.3125 9.5625,4.015625 9.3125,3.9375 C8.859375,3.796875 8.390625,3.8125 7.515625,3.875 C7.46875,5.234375 7.4375,6.5 7.4375,7.671875 C8.375,8.5625 9.5,9.4375 10.578125,10.1875 C11.671875,10.921875 12.75,11.515625 13.609375,11.890625 C14.203125,12.125 14.65625,12.28125 15.078125,12.375 C15.5,12.453125 15.90625,12.484375 16.421875,12.484375 Z M13.96875,6.359375 C13.53125,6.28125 13.25,6.28125 13.0625,6.359375 C12.71875,6.5 12.703125,6.765625 12.90625,7.203125 C13,7.4375 13.171875,7.65625 13.4375,7.90625 C13.96875,8.375 14.546875,8.703125 14.90625,8.703125 C15.4375,8.703125 15.59375,8.28125 15.359375,7.765625 C15.3125,7.609375 15.125,7.359375 14.890625,7.109375 C14.640625,6.875 14.3125,6.59375 13.96875,6.359375 Z" transform="translate(0.015625, 18.546875) scale(1, -1)"/>
</svg>