<svg height="19.40625" viewBox="0 0 24 19.40625" width="24" xmlns="http://www.w3.org/2000/svg">
<path d="M2.59375,16.5625 C2.6875,16.21875 2.765625,15.90625 2.890625,15.609375 C3,15.3125 3.15625,15.046875 3.4375,14.765625 C3.71875,14.484375 4.046875,14.328125 4.375,14.28125 C4.703125,14.234375 5.015625,14.265625 5.265625,14.359375 C6.09375,14.65625 6.578125,14.859375 7.171875,15.234375 C7.375,15.359375 7.515625,15.390625 7.375,15.046875 C6.828125,13.796875 6.3125,12.640625 5.703125,11.28125 C5.09375,9.9375 4.390625,8.421875 3.453125,6.484375 C3.078125,5.6875 2.765625,5.109375 2.453125,4.578125 L2.015625,3.875 C1.890625,3.671875 1.828125,3.453125 1.828125,3.234375 C1.828125,2.921875 1.84375,2.59375 1.953125,2.234375 C2.09375,1.71875 2.296875,1.625 2.515625,1.625 C2.625,1.625 2.75,1.703125 2.875,1.859375 C2.984375,2 3.109375,2.28125 3.234375,2.6875 C3.40625,3.28125 3.546875,3.78125 3.828125,4.609375 C4.0625,5.3125 4.203125,5.828125 4.4375,6.234375 C4.90625,7.03125 5.421875,7.0625 5.734375,6.546875 C6,6.140625 6.3125,5.453125 6.546875,4.5625 C6.6875,4.03125 6.84375,3.6875 7.03125,3.59375 C7.328125,3.453125 7.578125,3.40625 7.765625,3.453125 C8.1875,3.546875 8.25,4.078125 8.328125,4.78125 C8.421875,5.5 8.515625,5.984375 8.640625,6.5 C9.140625,8.703125 9.75,10.28125 10.703125,11.453125 C11.453125,12.390625 11.71875,12.265625 11.6875,11.375 C11.65625,10.71875 11.609375,10.078125 11.46875,9.359375 C11.25,8.28125 11.078125,7.46875 10.875,6.671875 C10.640625,5.6875 10.390625,4.71875 10.125,4.015625 C10.046875,3.796875 9.984375,3.625 9.921875,3.484375 C9.875,3.328125 9.828125,3.203125 9.796875,3.09375 C9.734375,2.859375 9.703125,2.671875 9.71875,2.46875 C9.734375,2.296875 9.828125,2.09375 9.96875,1.921875 C10.109375,1.75 10.28125,1.625 10.421875,1.625 C10.8125,1.625 11.046875,2.15625 11.1875,2.90625 C11.40625,4.078125 11.609375,5.1875 11.8125,6.359375 C11.90625,6.921875 12,7.4375 12.078125,7.90625 C12.171875,8.375 12.265625,8.84375 12.34375,9.3125 C12.484375,10.109375 12.6875,10.609375 13.015625,11.203125 C13.34375,11.796875 13.671875,12.265625 14.046875,12.6875 C14.40625,13.109375 14.796875,13.46875 15.234375,13.875 C15.234375,13.265625 15.1875,12.546875 15.140625,11.875 C15.078125,11.1875 14.984375,10.53125 14.9375,10.03125 C14.84375,9.484375 14.953125,9.25 15.265625,9.125 C16.03125,8.828125 16.5625,8.40625 16.921875,7.65625 C17.265625,6.9375 17.375,6 17.234375,4.625 C16.375,4.828125 15.359375,4.875 14.375,4.5625 C13.0625,4.140625 12.21875,3.390625 12.171875,2.3125 C12.125,1.84375 12.359375,1.453125 12.78125,1.171875 C13.203125,0.890625 13.8125,0.734375 14.546875,0.734375 C15.390625,0.734375 16.171875,0.96875 16.828125,1.359375 C17.46875,1.765625 17.984375,2.3125 18.296875,3 C19.140625,2.453125 19.921875,1.578125 20.453125,0.59375 C20.75,0.078125 21.140625,-0.125 21.390625,-0.125 C21.703125,-0.125 21.90625,0.234375 21.875,0.671875 C21.828125,1.15625 21.578125,1.5625 21.09375,2.140625 C20.34375,3.03125 19.5625,3.671875 18.578125,4.171875 C18.796875,5.953125 18.578125,7.109375 18.125,7.953125 C17.65625,8.796875 16.96875,9.21875 16.078125,9.546875 C15.75,9.6875 15.6875,9.8125 15.734375,10.171875 C15.84375,10.921875 15.9375,11.5625 15.984375,12.1875 C16.484375,11.828125 17.109375,11.609375 17.8125,11.609375 C18.59375,11.609375 19.328125,11.828125 19.859375,12.234375 C20.40625,12.640625 20.734375,13.21875 20.734375,13.96875 C20.734375,15.296875 19.828125,16.03125 18.453125,16.078125 C17.65625,16.109375 17.015625,15.9375 16.296875,15.453125 C16.34375,16.0625 16.40625,16.703125 16.484375,17.40625 C16.578125,18.265625 16.375,18.609375 15.78125,18.84375 C15.125,19.09375 14.5,19.21875 13.703125,19.28125 L13.53125,18.734375 C14.140625,18.59375 14.515625,18.4375 14.75,18.21875 C15,17.984375 15.109375,17.703125 15.171875,17.328125 C15.296875,16.53125 15.296875,15.640625 15.234375,14.84375 C14.203125,13.953125 13.3125,12.9375 12.71875,11.859375 C12.78125,12.609375 12.53125,13.015625 12.171875,13.0625 C11.609375,13.109375 11.09375,12.828125 10.390625,12.03125 C9.3125,10.8125 8.234375,8.75 7.484375,5.734375 C7.34375,6.296875 7.15625,6.75 6.921875,7.09375 C6.484375,7.765625 5.78125,8.203125 4.90625,7.5625 C5.46875,8.84375 6.078125,10.046875 6.6875,11.1875 C7.296875,12.34375 7.921875,13.453125 8.5625,14.59375 C8.796875,14.984375 8.9375,15.25 9.125,15.53125 C9.453125,16.015625 9.3125,16.34375 9.046875,16.484375 C8.875,16.578125 8.671875,16.640625 8.5,16.671875 C8.140625,16.734375 7.875,16.703125 7.515625,16.515625 C7.09375,16.296875 6.703125,16.109375 6.359375,15.984375 C5.65625,15.71875 4.84375,15.578125 4.28125,15.65625 C3.703125,15.734375 3.28125,16.1875 3,16.859375 Z M16.171875,14.5625 C16.875,15.078125 17.46875,15.265625 18.046875,15.265625 C18.71875,15.265625 19.21875,14.859375 19.21875,13.96875 C19.21875,13.453125 19.03125,13.03125 18.765625,12.75 C18.484375,12.453125 18.125,12.296875 17.796875,12.296875 C17,12.296875 16.484375,12.4375 16.03125,12.78125 L16.0625,13.15625 C16.09375,13.4375 16.109375,13.765625 16.140625,14.09375 Z M17.046875,3.546875 C16.90625,2.953125 16.53125,2.4375 16.0625,2.0625 C15.59375,1.671875 15,1.4375 14.46875,1.4375 C13.34375,1.4375 12.78125,1.734375 12.78125,2.328125 C12.78125,2.703125 12.96875,3.015625 13.25,3.25 C13.53125,3.46875 13.953125,3.640625 14.375,3.734375 C15.234375,3.96875 16.203125,3.890625 17.046875,3.546875 Z" transform="translate(0.1328125, 19.28125) scale(1, -1)"/>
</svg>