<svg height="20.25" viewBox="0 0 24 20.25" width="24" xmlns="http://www.w3.org/2000/svg">
<path d="M13.78125,18.546875 C14.40625,18.359375 14.96875,17.90625 15.046875,17.28125 C15.125,16.6875 15.125,16.0625 15.09375,15.578125 C13.84375,15.125 12.59375,14.515625 11.390625,13.828125 C10.203125,13.15625 9.03125,12.390625 8.046875,11.6875 C7.53125,11.328125 7.03125,10.921875 6.546875,10.515625 C6.40625,11.5 6.4375,12.875 6.625,14.328125 C6.828125,15.796875 7.1875,17.296875 7.78125,18.625 L7.28125,18.875 C6.53125,17.65625 5.984375,16.171875 5.640625,14.5625 C5.3125,12.96875 5.234375,11.28125 5.5,9.53125 C5.09375,9.125 4.71875,8.71875 4.390625,8.3125 C3.6875,7.46875 3.09375,6.640625 2.65625,5.84375 C2.234375,5.046875 1.953125,4.390625 1.859375,3.96875 C1.75,3.5625 1.703125,3.28125 1.703125,3.09375 L1.703125,2.84375 C1.703125,2.453125 1.953125,2.09375 2.421875,1.78125 C3.234375,1.234375 3.796875,0.6875 4.34375,-0.078125 C4.625,-0.4375 4.90625,-0.75 5.09375,-0.890625 C5.46875,-1.1875 6.078125,-1.03125 6.453125,-0.359375 C6.6875,0.015625 6.828125,0.5 6.9375,1.203125 C7.03125,1.890625 7.078125,2.765625 7.078125,3.890625 C7.078125,4.34375 7.046875,5.234375 6.96875,6.21875 C6.875,7.203125 6.765625,8.296875 6.625,9.1875 C7.203125,9.78125 7.8125,10.3125 8.515625,10.875 C9.125,11.34375 9.875,11.875 10.671875,12.40625 C11.46875,12.921875 12.3125,13.4375 13.078125,13.859375 C13.84375,14.28125 14.515625,14.640625 15.03125,14.84375 C15.015625,14.65625 15,14.484375 14.984375,14.296875 L14.953125,13.71875 C14.546875,13.125 14,12.4375 13.53125,11.84375 C13.0625,11.234375 12.625,10.75 12.4375,10.5625 C12.078125,10.203125 11.71875,9.84375 11.453125,9.546875 C11.1875,9.265625 10.953125,8.953125 11.09375,8.546875 C11.234375,8.046875 11.46875,7.90625 11.984375,8.265625 C12.578125,8.6875 13.515625,9.171875 14.546875,9.625 C14.5,9.171875 14.453125,8.765625 14.40625,8.453125 C14.34375,8.09375 14.5,7.8125 14.6875,7.671875 C14.90625,7.53125 15.21875,7.453125 15.671875,7.71875 C16.21875,8.046875 17.0625,8.28125 17.859375,8.28125 C18.40625,8.28125 18.921875,8.03125 19.296875,7.515625 C19.671875,7 19.90625,6.21875 19.921875,5.234375 C19.953125,3.546875 19.359375,2.328125 18.640625,1.484375 C18.328125,1.125 17.984375,0.84375 17.515625,0.59375 C16.921875,1.625 16.171875,2.25 15.40625,2.65625 C14.9375,2.90625 14.4375,3.046875 13.96875,3.09375 C13.5,3.125 13.078125,3.078125 12.796875,2.953125 C12.296875,2.71875 11.9375,2.28125 11.9375,1.671875 C11.9375,0.890625 12.375,0.328125 13.015625,-0.046875 C13.671875,-0.421875 14.515625,-0.59375 15.34375,-0.59375 C17.375,-0.59375 18.875,0.078125 19.890625,1.15625 C20.890625,2.21875 21.390625,3.671875 21.390625,5.265625 C21.390625,6.453125 21.015625,7.421875 20.40625,8.09375 C19.78125,8.75 18.921875,9.125 17.953125,9.125 C17.640625,9.125 17.234375,9.078125 16.859375,9.03125 C16.46875,8.984375 16.0625,8.890625 15.78125,8.84375 L15.671875,9.046875 L15.734375,10.109375 C17.0625,10.609375 18.390625,11 19.328125,11.140625 C19.78125,11.1875 20.109375,11.296875 20.3125,11.453125 C20.515625,11.59375 20.609375,11.75 20.609375,11.9375 C20.609375,12.0625 20.609375,12.171875 20.53125,12.296875 C20.453125,12.40625 20.28125,12.515625 20,12.625 L18.890625,13.015625 C18.546875,13.125 18.25,13.296875 17.953125,13.484375 L17.609375,12.984375 C17.8125,12.828125 18.046875,12.6875 18.296875,12.515625 C18.546875,12.34375 18.765625,12.203125 18.9375,12.078125 C18.265625,11.9375 17.09375,11.59375 15.828125,11.140625 C15.90625,11.984375 15.96875,12.875 16.015625,13.578125 L16.609375,14.328125 C16.875,14.65625 17,14.9375 17,15.140625 C17,15.359375 16.921875,15.515625 16.765625,15.625 C16.609375,15.71875 16.421875,15.734375 16.21875,15.78125 C16.25,15.953125 16.28125,16.15625 16.3125,16.34375 C16.34375,16.546875 16.390625,16.71875 16.421875,16.875 C16.484375,17.109375 16.53125,17.375 16.484375,17.625 C16.4375,17.890625 16.3125,18.125 16.03125,18.359375 C15.84375,18.515625 15.546875,18.65625 15.1875,18.78125 C14.84375,18.921875 14.421875,19.015625 14.09375,19.0625 Z M14.6875,10.71875 C14.03125,10.4375 13.4375,10.171875 12.9375,9.890625 L12.875,9.984375 C13.21875,10.359375 13.5625,10.734375 13.890625,11.125 L14.84375,12.21875 Z M5.59375,8.09375 C5.703125,6.53125 5.78125,5.046875 5.796875,3.828125 C5.796875,2.59375 5.75,1.609375 5.609375,1.078125 C5.484375,0.578125 5.328125,0.453125 4.96875,0.6875 L4.21875,1.234375 C3.96875,1.421875 3.734375,1.59375 3.640625,1.671875 C3.171875,2.046875 3.09375,2.453125 3.09375,2.953125 C3.09375,3.125 3.140625,3.375 3.21875,3.71875 C3.3125,4.046875 3.453125,4.484375 3.640625,5.015625 C4.015625,6 4.65625,7.015625 5.59375,8.09375 Z M14.0625,1.921875 C14.390625,1.90625 14.859375,1.75 15.359375,1.484375 C15.84375,1.203125 16.34375,0.8125 16.765625,0.34375 C16.390625,0.234375 15.921875,0.1875 15.34375,0.1875 C15.09375,0.1875 14.765625,0.21875 14.4375,0.296875 C14.09375,0.375 13.765625,0.5 13.46875,0.71875 C13.140625,0.953125 13.0625,1.265625 13.1875,1.515625 C13.296875,1.765625 13.59375,1.9375 14.0625,1.921875 Z" transform="translate(0.453125, 19.0625) scale(1, -1)"/>
</svg>