<svg height="17.953125" viewBox="0 0 24 17.953125" width="24" xmlns="http://www.w3.org/2000/svg">
<path d="M5.265625,17.28125 C5.6875,16.5 6.046875,15.5 6.328125,14.515625 C6.609375,13.53125 6.8125,12.578125 6.875,11.90625 C6.953125,10.96875 6.984375,10.078125 6.984375,9.140625 C5.46875,8.109375 4.1875,7.0625 2.890625,5.765625 C2.1875,5.0625 1.875,4.421875 1.875,3.796875 C1.875,3.578125 2,3.328125 2.140625,3.078125 C2.296875,2.84375 2.5,2.59375 2.6875,2.40625 C3.140625,1.9375 3.546875,1.25 3.984375,0.546875 C4.390625,-0.109375 4.765625,-0.3125 5.328125,-0.3125 C5.65625,-0.3125 6.046875,-0.09375 6.40625,0.28125 C6.75,0.640625 7.0625,1.15625 7.296875,1.71875 C7.59375,2.421875 7.84375,3.53125 8.015625,4.765625 C8.1875,6.015625 8.28125,7.390625 8.265625,8.65625 C10.40625,10.078125 12.6875,11.40625 14.984375,12.484375 C14.9375,11.09375 14.890625,9.890625 14.890625,8.828125 C14.890625,7.75 14.921875,6.8125 14.984375,5.9375 C15.015625,5.359375 15.109375,4.71875 15.265625,4.109375 C15.40625,3.5 15.625,2.9375 15.9375,2.515625 C16.765625,1.40625 18.078125,0.828125 19.828125,0.78125 C20.8125,0.734375 21.703125,0.890625 22.296875,1.125 L22.171875,1.859375 C21.5,1.75 20.890625,1.703125 20.390625,1.703125 C19.875,1.703125 19.421875,1.75 19.03125,1.859375 C18.25,2.046875 17.6875,2.4375 17.203125,3 C16.5625,3.765625 16.359375,5.09375 16.296875,7.296875 C16.265625,8.140625 16.25,9.140625 16.25,10.15625 C16.25,11.15625 16.25,12.171875 16.28125,13.0625 C17.03125,13.390625 17.734375,13.671875 18.390625,13.921875 C18.875,14.109375 19.203125,14.234375 19.40625,14.375 C19.59375,14.5 19.671875,14.625 19.671875,14.859375 C19.671875,15.03125 19.609375,15.3125 19.25,15.53125 C18.78125,15.796875 18.25,16.171875 17.796875,16.5625 C17.40625,16.890625 17.0625,17.09375 16.65625,17.09375 C15.796875,17.09375 15.171875,16.15625 15.078125,14.640625 C15.03125,14.234375 15.03125,13.859375 15.03125,13.484375 C13.953125,12.984375 12.71875,12.359375 11.515625,11.75 C10.296875,11.125 9.125,10.484375 8.203125,9.921875 C8.125,11.46875 7.90625,12.796875 7.53125,13.96875 C7.265625,14.8125 7.046875,15.46875 6.78125,16.046875 C6.5,16.625 6.203125,17.125 5.796875,17.640625 Z M17.140625,16.015625 C17.421875,15.78125 17.5625,15.578125 17.734375,15.296875 C17.78125,15.21875 17.8125,15.140625 17.84375,15.078125 C17.890625,14.96875 17.84375,14.859375 17.6875,14.765625 C17.53125,14.65625 17.1875,14.515625 16.84375,14.359375 L16.328125,14.109375 C16.34375,14.328125 16.359375,14.546875 16.375,14.75 C16.40625,15.125 16.4375,15.546875 16.53125,15.828125 C16.578125,15.96875 16.640625,16.0625 16.703125,16.109375 C16.828125,16.203125 16.953125,16.15625 17.140625,16.015625 Z M6.96875,7.8125 C6.921875,6.78125 6.828125,5.765625 6.6875,4.671875 C6.640625,4.171875 6.5,3.65625 6.359375,3.203125 C6.21875,2.734375 6.0625,2.328125 5.953125,2.09375 C5.640625,1.375 5.28125,1.25 4.78125,1.5625 C4.421875,1.78125 4.078125,2.0625 3.8125,2.40625 C3.546875,2.734375 3.359375,3.125 3.359375,3.546875 C3.359375,4.03125 3.5,4.484375 3.78125,4.9375 C4.0625,5.375 4.5,5.84375 5.109375,6.359375 C5.65625,6.84375 6.296875,7.328125 6.96875,7.8125 Z" transform="translate(-0.0859375, 17.640625) scale(1, -1)"/>
</svg>