<svg height="20.234375" viewBox="0 0 24 20.234375" width="24" xmlns="http://www.w3.org/2000/svg">
<path d="M7.390625,18.296875 C7.671875,18.265625 8.046875,18.171875 8.265625,18.078125 C8.734375,17.84375 8.859375,17.328125 8.734375,16.765625 C8.65625,16.390625 8.515625,15.734375 8.421875,15.234375 C8.140625,15.125 7.859375,15 7.546875,14.859375 C7.25,14.703125 6.984375,14.59375 6.78125,14.5 C6.5,14.375 6.28125,14.28125 6.109375,14.1875 C5.9375,14.109375 5.78125,14.046875 5.65625,14 C5.421875,13.90625 5.28125,13.875 5.15625,13.875 C4.828125,13.875 4.71875,14.21875 4.71875,14.765625 C4.71875,15.359375 4.875,16.0625 5.015625,16.46875 L4.46875,16.765625 C4.3125,16.484375 4.125,16.09375 3.984375,15.625 C3.84375,15.15625 3.734375,14.59375 3.734375,14.015625 C3.734375,13.3125 3.984375,12.78125 4.46875,12.40625 C4.65625,12.265625 4.90625,12.171875 5.1875,12.171875 C5.3125,12.171875 5.4375,12.203125 5.5625,12.265625 C5.78125,12.40625 5.90625,12.546875 6.0625,12.734375 C6.140625,12.8125 6.234375,12.90625 6.34375,12.984375 C6.671875,13.25 7.40625,13.65625 8.203125,14.046875 C7.921875,12.625 7.65625,10.921875 7.609375,9.09375 C6.859375,8.609375 6.171875,8.0625 5.5625,7.578125 C4.90625,7.0625 4.375,6.484375 3.96875,5.984375 C3.546875,5.46875 3.265625,5.046875 3.125,4.8125 C2.921875,4.46875 2.890625,4.09375 2.890625,3.875 C2.890625,3.484375 3,3.171875 3.1875,2.953125 C3.34375,2.765625 3.53125,2.5 3.703125,2.234375 C3.875,1.984375 4.015625,1.71875 4.109375,1.578125 C4.34375,1.171875 4.625,0.828125 4.96875,0.6875 C5.234375,0.59375 5.625,0.640625 6.125,0.84375 C6.40625,0.953125 6.8125,1.203125 7.265625,1.546875 C7.71875,1.875 8.203125,2.28125 8.59375,2.6875 C8.890625,2.265625 9.21875,1.875 9.484375,1.65625 C9.8125,1.390625 10.171875,1.203125 10.515625,1.078125 C10.859375,0.953125 11.171875,0.890625 11.40625,0.890625 C11.734375,0.890625 11.921875,0.984375 12.09375,1.125 C12.453125,1.4375 12.5625,1.90625 12.53125,2.1875 C12.46875,2.84375 12.453125,3.578125 12.484375,4.328125 C12.5,5.171875 12.546875,5.90625 12.625,6.828125 C12.703125,7.734375 12.828125,8.828125 13.03125,10.421875 C13.625,10.515625 14.234375,10.5625 14.84375,10.5625 C16.15625,10.5625 17.25,10.1875 18.09375,9.4375 C18.4375,9.125 18.734375,8.78125 18.96875,8.328125 C19.203125,7.859375 19.328125,7.3125 19.328125,6.578125 C19.328125,5.640625 19.140625,4.765625 18.71875,3.96875 C18.28125,3.171875 17.609375,2.421875 16.609375,1.71875 C15.359375,0.84375 13.921875,0 11.859375,-0.6875 L12.265625,-1.34375 C13.296875,-1.0625 14.1875,-0.765625 15.03125,-0.40625 C15.859375,-0.03125 16.65625,0.359375 17.5,0.921875 C18.546875,1.578125 19.40625,2.40625 20.015625,3.359375 C20.609375,4.296875 20.953125,5.390625 20.953125,6.59375 C20.953125,7.390625 20.828125,8.078125 20.546875,8.65625 C20.265625,9.21875 19.84375,9.71875 19.25,10.171875 C18.125,11.046875 16.671875,11.359375 14.890625,11.359375 C14.5625,11.359375 13.953125,11.3125 13.203125,11.203125 C13.21875,11.3125 13.25,11.390625 13.28125,11.46875 L13.34375,11.703125 L12.796875,12.03125 C12.671875,11.6875 12.5625,11.375 12.4375,11.0625 C12.140625,11.015625 11.890625,10.953125 11.609375,10.875 C11.09375,10.734375 10.65625,10.59375 10.21875,10.421875 C9.78125,10.25 9.328125,10.03125 8.734375,9.71875 C8.78125,10.703125 8.84375,11.46875 8.984375,12.21875 C9.109375,12.96875 9.28125,13.71875 9.546875,14.640625 C10.03125,14.890625 10.40625,15.078125 10.796875,15.25 C11.171875,15.40625 11.5625,15.546875 12.078125,15.734375 C12.625,15.9375 13.3125,16.171875 13.984375,16.34375 C14.65625,16.5 15.3125,16.609375 15.78125,16.609375 C16.71875,16.609375 17.140625,16.125 17.140625,15.40625 C17.140625,15.078125 17.015625,14.796875 16.78125,14.609375 C16.171875,14.109375 15.359375,13.90625 14.515625,13.90625 C13.96875,13.90625 13.625,14.015625 13.203125,14.28125 L12.921875,13.71875 C13.1875,13.5 13.53125,13.34375 13.890625,13.234375 C14.25,13.125 14.609375,13.078125 14.90625,13.078125 C15.796875,13.078125 16.421875,13.203125 17.15625,13.484375 C18.140625,13.875 18.734375,14.6875 18.734375,15.484375 C18.734375,15.96875 18.59375,16.390625 18.265625,16.671875 C17.71875,17.1875 16.953125,17.421875 16.0625,17.421875 C14.9375,17.421875 13.53125,17.09375 12.21875,16.625 C11.453125,16.359375 10.703125,16.078125 9.890625,15.71875 C10.03125,16.171875 10.1875,16.53125 10.25,16.65625 C10.4375,17.109375 10.53125,17.359375 10.53125,17.640625 C10.53125,17.84375 10.40625,18.03125 10.15625,18.265625 C9.921875,18.46875 9.484375,18.640625 8.859375,18.78125 C8.6875,18.8125 8.484375,18.84375 8.28125,18.859375 L7.703125,18.890625 Z M12.046875,10.203125 C11.0625,7.90625 10.0625,6.265625 9.03125,4.90625 C8.9375,5.421875 8.84375,6.125 8.796875,6.8125 C8.734375,7.5 8.671875,8.1875 8.65625,8.703125 C9.734375,9.40625 10.875,9.875 12.046875,10.203125 Z M12.140625,8.3125 C12.078125,7.859375 12.03125,7.390625 11.96875,6.90625 L11.796875,5.515625 C11.734375,5.046875 11.671875,4.609375 11.625,4.203125 L11.46875,3.078125 C11.4375,2.84375 11.421875,2.671875 11.375,2.5625 C11.34375,2.421875 11.296875,2.34375 11.234375,2.3125 C11.125,2.21875 10.953125,2.28125 10.671875,2.40625 C10.25,2.59375 9.71875,3.09375 9.4375,3.640625 C10.421875,4.828125 11.34375,6.46875 12.140625,8.3125 Z M7.625,8.015625 C7.625,7.375 7.671875,6.59375 7.75,5.84375 C7.828125,5.09375 7.9375,4.34375 8.109375,3.796875 C7.578125,3.296875 6.96875,2.734375 6.453125,2.453125 C6.125,2.265625 5.703125,2.15625 5.328125,2.15625 C4.765625,2.15625 4.34375,2.59375 4.34375,3.296875 C4.34375,3.75 4.390625,4.15625 4.625,4.671875 C4.859375,5.1875 5.265625,5.78125 5.984375,6.578125 C6.40625,7.0625 7.0625,7.625 7.625,8.015625 Z" transform="translate(0.078125, 18.890625) scale(1, -1)"/>
</svg>