<svg height="19.84375" viewBox="0 0 24 19.84375" width="24" xmlns="http://www.w3.org/2000/svg">
<path d="M5.765625,18.53125 C6.28125,18.3125 6.65625,18.09375 6.890625,17.78125 C7.125,17.453125 7.25,17.03125 7.25,16.421875 L7.25,15.09375 C7.25,14.65625 7.234375,14.21875 7.21875,13.765625 C6.5625,13.609375 6,13.53125 5.453125,13.484375 C4.515625,13.4375 3.75,13.609375 2.90625,14.109375 L2.546875,13.484375 C3.34375,12.78125 4.21875,12.390625 5.359375,12.4375 C6.0625,12.46875 6.671875,12.5 7.21875,12.59375 C7.203125,12.375 7.203125,12.171875 7.203125,11.96875 L7.203125,11.328125 C6.21875,9.40625 5.234375,7.578125 4.015625,5.734375 C3.875,5.5625 3.78125,5.390625 3.671875,5.265625 C3.5625,5.140625 3.453125,4.984375 3.34375,4.828125 C3,4.390625 2.90625,4.109375 3,3.71875 C3.109375,3.296875 3.296875,2.890625 3.53125,2.640625 C3.921875,2.234375 4.296875,2.71875 4.484375,2.921875 C4.5625,3.015625 4.640625,3.09375 4.703125,3.171875 C5.5,2.3125 6.171875,1.265625 6.484375,0.3125 C6.609375,-0.046875 6.671875,-0.21875 6.828125,-0.40625 C7.046875,-0.6875 7.421875,-0.78125 7.65625,-0.578125 C8.140625,-0.1875 8.3125,0.234375 8.3125,0.984375 C8.3125,1.109375 8.296875,1.28125 8.28125,1.484375 C8.265625,1.671875 8.234375,1.890625 8.234375,2.15625 C8.140625,3.765625 8.140625,5.3125 8.140625,6.828125 C9.21875,8.09375 10.109375,9.15625 10.875,10.078125 C11.640625,11 12.265625,11.796875 12.828125,12.53125 C13.34375,13.25 13.875,13.859375 14.328125,14.34375 C14.765625,14.8125 15.125,15.15625 15.34375,15.34375 C16,15.890625 16.46875,16.015625 16.859375,16.015625 C17.28125,16.015625 17.5625,15.734375 17.75,15.28125 C17.921875,14.8125 17.984375,14.15625 17.984375,13.375 C17.984375,12.046875 17.640625,10.90625 17.203125,10.0625 C17.046875,9.765625 16.90625,9.5625 16.796875,9.484375 C16.671875,9.40625 16.546875,9.390625 16.390625,9.453125 C16.125,9.59375 15.84375,9.71875 15.4375,9.828125 C15.1875,9.875 14.890625,9.921875 14.578125,9.84375 C14.25,9.78125 13.90625,9.578125 13.5625,9.234375 C12.484375,8.15625 12,6.671875 12,4.515625 C12,3.625 12.171875,2.84375 12.40625,2.234375 C12.625,1.625 12.90625,1.171875 13.171875,0.9375 C13.9375,0.25 14.328125,0.484375 14.546875,1.375 C14.703125,2 14.953125,2.453125 15.390625,2.984375 C16.25,4.046875 16.953125,4.421875 17.703125,4.421875 C18.125,4.421875 18.546875,4.15625 18.921875,3.703125 C19.296875,3.25 19.625,2.578125 19.765625,1.78125 C19.796875,1.5625 19.875,1.390625 20,1.28125 C20.234375,1.0625 20.640625,0.796875 21,1.296875 C21.125,1.484375 21.265625,1.71875 21.1875,2.203125 C21.109375,2.703125 20.921875,3.328125 20.265625,4.078125 C19.640625,4.78125 18.796875,5.28125 17.65625,5.28125 C16.921875,5.28125 16.21875,5.015625 15.609375,4.609375 C14.984375,4.1875 14.421875,3.625 14,3.046875 C13.84375,2.84375 13.75,2.765625 13.671875,2.796875 C13.609375,2.84375 13.5625,2.984375 13.515625,3.234375 C13.328125,4.234375 13.296875,5.28125 13.453125,6.21875 C13.609375,7.171875 13.953125,8.0625 14.46875,8.765625 C14.796875,9.171875 15.03125,9.21875 15.4375,8.984375 C15.765625,8.78125 16.078125,8.578125 16.296875,8.359375 C16.484375,8.171875 16.828125,8.0625 17.203125,8.171875 C17.578125,8.28125 18,8.59375 18.359375,9.21875 C18.921875,10.15625 19.359375,11.625 19.390625,13.46875 C19.40625,14.75 19.171875,15.625 18.765625,16.1875 C18.359375,16.75 17.796875,16.984375 17.203125,17.015625 C16.4375,17.046875 15.71875,16.65625 14.953125,16.078125 C14.359375,15.625 13.53125,14.65625 12.5,13.375 C10.90625,11.40625 9.53125,9.78125 8.15625,8.265625 C8.1875,9.96875 8.25,11.515625 8.328125,12.84375 C8.765625,12.96875 9.203125,13.125 9.640625,13.296875 C10.25,13.546875 10.78125,13.90625 10.78125,14.359375 C10.78125,14.640625 10.53125,14.984375 10.125,14.984375 C9.90625,14.984375 9.546875,14.890625 9.171875,14.609375 C8.9375,14.46875 8.703125,14.328125 8.421875,14.1875 C8.46875,15.078125 8.53125,15.859375 8.703125,16.65625 C8.75,16.890625 8.78125,17.09375 8.78125,17.28125 C8.78125,17.453125 8.75,17.609375 8.6875,17.765625 C8.5625,18.046875 8.296875,18.28125 7.875,18.5 C7.6875,18.59375 7.390625,18.71875 7.0625,18.828125 C6.734375,18.921875 6.375,19.015625 6.09375,19.0625 Z M7.15625,9.4375 C7.15625,8.640625 7.140625,7.90625 7.109375,7.109375 C6.265625,6.21875 5.375,5.421875 4.390625,4.625 C5.375,6.1875 6.21875,7.703125 7.15625,9.4375 Z M7.078125,5.640625 C7.0625,5.03125 7.0625,4.40625 7.046875,3.765625 L7.015625,1.71875 C6.390625,2.46875 5.8125,3.03125 5.15625,3.625 C5.515625,4 5.84375,4.34375 6.140625,4.65625 C6.453125,4.96875 6.765625,5.296875 7.078125,5.640625 Z" transform="translate(0.09375, 19.0625) scale(1, -1)"/>
</svg>