<svg height="19.28125" viewBox="0 0 24 19.28125" width="24" xmlns="http://www.w3.org/2000/svg">
<path d="M13.671875,18.59375 C13.15625,18.375 12.484375,18.171875 11.546875,18.078125 C11.015625,18.015625 10.4375,17.984375 9.890625,17.984375 C9.34375,18 8.828125,18.078125 8.40625,18.21875 L8.1875,17.609375 C9.5,17.015625 11.046875,16.8125 12.9375,17.234375 C12.4375,16.859375 11.953125,16.484375 11.484375,16.0625 C10.53125,15.25 9.65625,14.40625 8.90625,13.578125 C8.140625,12.734375 7.515625,11.984375 7.359375,11.609375 C7.28125,11.421875 7.25,11.265625 7.25,11.15625 C7.25,10.984375 7.296875,10.8125 7.421875,10.6875 C7.65625,10.40625 8.078125,10.015625 8.796875,10.015625 C9.171875,10.015625 9.625,10.125 10.28125,10.296875 C11.03125,10.5 12,10.8125 13.03125,11.1875 L13.03125,9.84375 C11.765625,9.1875 10.53125,8.234375 9.625,7.203125 C9.296875,6.828125 9.171875,6.484375 9.171875,6.1875 C9.171875,5.90625 9.390625,5.625 9.71875,5.3125 C10.59375,4.46875 11.28125,3.828125 11.9375,3.03125 C12.0625,2.875 12.171875,2.71875 12.28125,2.578125 C12.390625,2.4375 12.484375,2.3125 12.59375,2.203125 C12.78125,1.984375 13.015625,1.859375 13.296875,1.859375 C14.015625,1.859375 14.328125,2.46875 14.3125,3.3125 L14.28125,5.375 C14.984375,5.34375 15.78125,5.375 16.34375,5.40625 C16.90625,5.421875 17.28125,5.46875 17.484375,5.5625 C17.703125,5.65625 17.765625,5.796875 17.765625,6 C17.765625,6.171875 17.71875,6.328125 17.625,6.4375 C17.421875,6.640625 17,6.78125 16.640625,6.734375 L16.078125,6.671875 C15.5,6.59375 14.796875,6.5625 14.234375,6.59375 L14.234375,8.0625 C14.328125,8.171875 14.421875,8.28125 14.546875,8.375 C14.65625,8.46875 14.84375,8.609375 15.078125,8.8125 C15.5,9.171875 15.640625,9.53125 15.640625,9.84375 C15.640625,10 15.484375,10.140625 15.21875,10.21875 C14.9375,10.296875 14.59375,10.34375 14.203125,10.28125 L14.203125,11.640625 C15.421875,12.09375 16.40625,12.546875 16.71875,12.796875 C17.234375,13.171875 17.171875,13.640625 16.8125,13.875 C16.53125,14.046875 16.265625,14.25 15.96875,14.46875 C15.6875,14.703125 15.375,14.9375 15.046875,15.1875 C14.546875,15.578125 14.046875,15.53125 13.671875,14.9375 C13.25,14.234375 13.125,13.328125 13.03125,12.296875 C12.421875,12.0625 11.875,11.890625 11.3125,11.734375 C10.75,11.578125 10.15625,11.453125 9.5,11.3125 C8.28125,11.046875 8.0625,11.5 8.90625,12.4375 C9.4375,13.015625 10.296875,13.8125 11.203125,14.609375 C12.109375,15.390625 13.078125,16.125 13.828125,16.578125 C14.484375,17 15.03125,17.234375 15.265625,17.3125 C15.640625,17.421875 15.828125,17.640625 15.828125,17.859375 C15.828125,18.140625 15.625,18.40625 15.34375,18.546875 C15.03125,18.703125 14.75,18.78125 14.5,18.78125 C14.25,18.78125 13.96875,18.734375 13.671875,18.59375 Z M14.90625,14.40625 C15.0625,14.328125 15.21875,14.25 15.359375,14.140625 C15.625,13.9375 15.796875,13.640625 15.671875,13.46875 C15.609375,13.390625 15.40625,13.265625 15.09375,13.125 C14.953125,13.0625 14.8125,13 14.671875,12.9375 C14.53125,12.875 14.390625,12.828125 14.265625,12.78125 C14.28125,12.953125 14.296875,13.125 14.3125,13.296875 C14.34375,13.640625 14.34375,14.65625 14.90625,14.40625 Z M13.03125,7.90625 C12.71875,7.53125 12.453125,7.203125 12.265625,6.890625 C12.125,6.640625 12.046875,6.390625 12.15625,6.15625 C12.25,5.921875 12.515625,5.71875 13.03125,5.546875 L13.03125,3.78125 C13.03125,3.546875 12.921875,3.484375 12.71875,3.671875 C12.46875,3.921875 12.125,4.21875 11.734375,4.53125 C11.34375,4.859375 10.921875,5.1875 10.53125,5.46875 C10.34375,5.609375 10.203125,5.796875 10.203125,6.03125 C10.203125,6.25 10.25,6.484375 10.4375,6.71875 C11.09375,7.515625 11.953125,8.140625 13.03125,8.6875 Z M5.984375,5.359375 C4.953125,5.046875 4.046875,4.34375 3.578125,3.546875 C3.375,3.21875 3.3125,2.859375 3.3125,2.546875 C3.3125,2.21875 3.375,1.953125 3.5,1.734375 C3.75,1.296875 4.421875,0.765625 5.46875,0.375 C6.5,-0.015625 7.953125,-0.25 9.875,-0.375 C11.78125,-0.5 13.8125,-0.5 15.140625,-0.453125 C16.46875,-0.40625 17.65625,-0.3125 18.59375,-0.1875 C19.53125,-0.078125 20.296875,0.046875 20.625,0.265625 C20.78125,0.375 20.859375,0.5 20.859375,0.640625 C20.859375,0.921875 20.671875,1.203125 20.359375,1.375 C19.875,1.640625 19.25,1.625 18.5,1.390625 C17.890625,1.203125 16.984375,1.0625 16,0.96875 C15.015625,0.875 13.953125,0.828125 13.109375,0.828125 C9.390625,0.828125 6.984375,1.09375 5.46875,1.78125 C4.859375,2.046875 4.5625,2.40625 4.5625,2.84375 C4.5625,3.078125 4.625,3.390625 4.921875,3.796875 C5.203125,4.203125 5.5625,4.53125 6.21875,4.875 Z" transform="translate(-0.0859375, 18.78125) scale(1, -1)"/>
</svg>