<svg height="18.671875" viewBox="0 0 24 18.671875" width="24" xmlns="http://www.w3.org/2000/svg">
<path d="M3.828125,18.03125 C4.328125,17.5625 4.53125,16.96875 4.53125,16.21875 C4.53125,15.953125 4.515625,15.6875 4.453125,15.34375 C4.390625,15 4.3125,14.5625 4.171875,14 C3.953125,13.015625 3.75,12.171875 3.578125,11.421875 C3.40625,10.6875 3.265625,10.015625 3.15625,9.421875 C2.921875,8.234375 2.8125,7.296875 2.8125,6.3125 C2.8125,4.859375 2.921875,3.625 3.1875,2.359375 C3.40625,1.328125 3.671875,0.640625 3.890625,0.21875 C4.03125,-0.078125 4.34375,-0.21875 4.484375,-0.21875 C4.921875,-0.21875 5.234375,0.078125 5.234375,0.78125 C5.234375,1.671875 5.296875,2.390625 5.515625,3.265625 C5.75,4.15625 6.125,5.171875 6.71875,6.671875 L6.234375,7.0625 L5.203125,4.953125 C4.84375,4.21875 4.515625,3.53125 4.21875,2.859375 C3.84375,4.359375 3.78125,5.9375 4.015625,7.921875 C4.109375,8.890625 4.4375,10.203125 4.796875,11.515625 C5.15625,12.828125 5.546875,14.09375 5.859375,14.953125 C6.015625,15.421875 6.125,15.734375 6.15625,16.015625 C6.171875,16.296875 6.109375,16.5 5.953125,16.78125 C5.6875,17.234375 5.234375,17.8125 4.28125,18.4375 Z M16.859375,17.890625 C16.203125,18.453125 15.625,18.328125 14.796875,17.59375 C14.421875,17.265625 14,16.71875 13.625,16.109375 C13.265625,15.484375 12.96875,14.796875 12.828125,14.203125 C12.3125,14.171875 11.6875,14.21875 11.0625,14.328125 C10.4375,14.421875 9.8125,14.578125 9.34375,14.8125 L9.046875,14.234375 C9.578125,13.8125 10.21875,13.546875 10.859375,13.375 C11.484375,13.203125 12.109375,13.109375 12.625,13.109375 C12.53125,12.8125 12.40625,12.3125 12.328125,11.796875 C12.234375,11.28125 12.171875,10.734375 12.171875,10.328125 C12.171875,9.9375 12.203125,9.640625 12.34375,9.453125 C12.65625,9.03125 13.0625,8.859375 13.375,9 C13.859375,9.21875 14.46875,9.390625 14.953125,9.390625 C15.390625,9.390625 15.703125,9.171875 15.9375,8.65625 C16.15625,8.140625 16.265625,7.296875 16.296875,6.046875 C16.34375,4.25 15.828125,2.71875 14.984375,1.828125 C14.515625,1.359375 14.015625,1.140625 13.546875,1.078125 C13.078125,1.015625 12.640625,1.109375 12.359375,1.25 C11.5625,1.625 11.0625,2.28125 10.65625,2.890625 C10.84375,2.984375 11.171875,3.1875 11.53125,3.421875 C11.890625,3.65625 12.28125,3.921875 12.578125,4.15625 L12.359375,4.625 C11.84375,4.296875 11.21875,4.015625 10.65625,3.78125 C10.09375,3.5625 9.59375,3.4375 9.296875,3.4375 C8.796875,3.4375 8.65625,3.578125 8.65625,3.9375 C8.65625,4.25 8.984375,4.8125 9.4375,5.234375 L9.078125,5.5 C8.65625,5.28125 8.21875,4.90625 7.859375,4.484375 C7.484375,4.0625 7.25,3.59375 7.25,3.171875 C7.25,2.6875 7.359375,2.375 7.546875,2.203125 C7.734375,2.015625 8,1.953125 8.3125,2 C8.734375,2.03125 9.328125,2.203125 10.078125,2.59375 C10.609375,1.65625 11.21875,0.96875 11.90625,0.53125 C12.5625,0.109375 13.296875,-0.015625 13.96875,0.046875 C14.625,0.09375 15.25,0.34375 15.671875,0.671875 C16.40625,1.234375 16.9375,2.0625 17.28125,3.015625 C17.609375,3.96875 17.765625,5.046875 17.765625,6.125 C17.765625,7.484375 17.53125,8.421875 17.15625,9.03125 C16.765625,9.65625 16.25,9.96875 15.671875,10.109375 C15.046875,10.25 14.453125,10.140625 14.015625,10.0625 C13.515625,9.96875 13.390625,10.125 13.421875,10.5625 C13.4375,10.84375 13.484375,11.3125 13.578125,11.796875 C13.65625,12.265625 13.75,12.765625 13.875,13.109375 C14.171875,13.109375 14.546875,13.171875 14.921875,13.234375 C15.296875,13.28125 15.6875,13.359375 16.03125,13.4375 C16.484375,13.546875 17.046875,13.75 17.546875,13.953125 C18.03125,14.140625 18.453125,14.34375 18.59375,14.46875 C19.4375,15.125 19.46875,15.8125 18.875,16.21875 C18.421875,16.53125 18.03125,16.828125 17.703125,17.140625 Z M16.625,17.1875 C16.859375,17.078125 17.09375,16.859375 17.3125,16.640625 C17.515625,16.40625 17.703125,16.15625 17.8125,16.015625 C18.03125,15.6875 18.03125,15.53125 17.703125,15.21875 C17.515625,15.03125 17.1875,14.84375 16.8125,14.703125 C16.4375,14.5625 15.984375,14.46875 15.59375,14.40625 C15.421875,14.375 15.171875,14.34375 14.90625,14.3125 C14.625,14.28125 14.375,14.265625 14.1875,14.265625 C14.359375,14.9375 14.609375,15.53125 14.859375,16 C15.125,16.453125 15.375,16.796875 15.578125,16.953125 C15.9375,17.234375 16.171875,17.40625 16.625,17.1875 Z M19.109375,6.34375 C19.625,6.015625 20.03125,5.515625 20.328125,5.015625 C20.609375,4.5 20.765625,4 20.8125,3.625 L20.921875,3 C20.984375,2.609375 21.21875,2.15625 21.640625,2.15625 C21.984375,2.15625 22.21875,2.34375 22.34375,2.5625 C22.484375,2.84375 22.546875,3.171875 22.46875,3.640625 C22.390625,4.171875 22.125,4.75 21.640625,5.28125 C21.171875,5.828125 20.4375,6.34375 19.4375,6.796875 Z" transform="translate(-0.6796875, 18.453125) scale(1, -1)"/>
</svg>