<svg height="20.4375" viewBox="0 0 24 20.4375" width="24" xmlns="http://www.w3.org/2000/svg">
<path d="M6.625,18.71875 C7.03125,18.59375 7.34375,18.453125 7.578125,18.15625 C7.8125,17.84375 7.921875,17.390625 7.921875,16.65625 L7.921875,14.421875 C7.4375,14.328125 7.015625,14.28125 6.671875,14.28125 C6.203125,14.28125 5.875,14.34375 5.59375,14.453125 C5.3125,14.5625 5.09375,14.75 4.859375,14.984375 L4.53125,14.5625 C5.0625,13.671875 5.765625,13.21875 6.890625,13.21875 C7.046875,13.21875 7.21875,13.234375 7.390625,13.25 C7.578125,13.28125 7.75,13.296875 7.921875,13.328125 L7.921875,11.671875 C7.921875,11.125 7.90625,10.578125 7.90625,10.015625 C7.5,9.6875 7.109375,9.375 6.6875,9.0625 C6.28125,8.75 5.84375,8.390625 5.40625,8.015625 C4.84375,7.5625 4.40625,7.78125 4.34375,9 L3.71875,8.765625 C3.734375,8.109375 3.765625,7.578125 3.984375,6.796875 C4.296875,5.703125 4.84375,5.515625 5.6875,6.359375 C6.03125,5.796875 6.3125,5.265625 6.59375,4.71875 C6.859375,4.1875 7.078125,3.625 7.28125,2.984375 C7.453125,2.453125 7.625,2.015625 7.953125,2.015625 C8.75,2.015625 9.125,2.65625 9.078125,4.21875 C9.03125,5.96875 9,7.78125 9,9.578125 C9.578125,10.109375 10.15625,10.625 10.8125,11.140625 L12.15625,12.21875 C12.625,12.59375 13.109375,12.984375 13.625,13.375 C14.625,14.15625 15.6875,14.921875 16.671875,15.53125 C17.109375,15.796875 17.4375,15.828125 17.625,15.71875 C17.8125,15.59375 17.84375,15.328125 17.703125,15 C17.53125,14.609375 17.234375,14.0625 16.90625,13.515625 C16.578125,12.953125 16.203125,12.375 15.921875,11.953125 C15.4375,11.234375 15.453125,10.859375 15.796875,10.421875 C15.96875,10.203125 16.078125,9.921875 16.171875,9.59375 C15.859375,9.515625 15.59375,9.453125 15.359375,9.359375 C14.046875,8.9375 12.78125,8.359375 11.84375,7.28125 C11.09375,6.4375 11.09375,5.875 12.125,5.265625 C12.640625,4.953125 13.203125,4.59375 13.71875,4.234375 C14.21875,3.875 14.671875,3.484375 14.953125,3.140625 C15.3125,2.6875 15.59375,2.390625 15.875,2.359375 C16.234375,2.328125 16.671875,2.59375 17.046875,3.1875 C17.5625,4.078125 17.8125,5.328125 17.8125,6.796875 C17.8125,7.421875 17.6875,8.09375 17.5,8.703125 C18.515625,8.796875 19.578125,8.734375 20.234375,8.6875 C20.625,8.65625 20.90625,8.671875 21.078125,8.734375 C21.21875,8.796875 21.328125,8.90625 21.359375,9.09375 C21.453125,9.53125 21.078125,9.828125 20.375,9.921875 C19.953125,9.96875 19.40625,9.96875 18.84375,9.9375 C18.265625,9.90625 17.671875,9.859375 17.109375,9.78125 C16.921875,10.15625 16.734375,10.484375 16.515625,10.71875 C16.34375,10.921875 16.296875,11.28125 16.515625,11.5625 C16.9375,12.125 17.421875,12.703125 17.84375,13.1875 C18.265625,13.671875 18.640625,14.0625 18.890625,14.28125 C19.515625,14.84375 19.515625,15.359375 19.25,15.6875 C19.015625,15.96875 18.6875,16.296875 18.3125,16.515625 C17.84375,16.796875 17.328125,16.640625 16.34375,16.078125 C14.9375,15.25 13.34375,14.046875 11.28125,12.53125 L9.03125,10.875 C9.03125,11.8125 9.046875,12.6875 9.09375,13.578125 C9.890625,13.8125 10.625,14.09375 11.0625,14.328125 C11.453125,14.5625 11.515625,14.75 11.515625,14.9375 C11.515625,15.09375 11.421875,15.234375 11.234375,15.359375 C11.09375,15.453125 10.78125,15.5 10.609375,15.5 C10.296875,15.5 10.15625,15.40625 9.84375,15.21875 C9.640625,15.078125 9.40625,14.96875 9.140625,14.84375 L9.21875,15.609375 C9.21875,15.859375 9.25,16.109375 9.265625,16.34375 C9.328125,17.0625 9.359375,17.515625 9.296875,17.84375 C9.234375,18.15625 9.078125,18.359375 8.796875,18.578125 C8.46875,18.828125 7.71875,19.09375 6.984375,19.28125 Z M16.375,8.546875 C16.46875,8 16.484375,7.390625 16.515625,6.78125 C16.53125,6.453125 16.484375,6 16.421875,5.5625 C16.34375,5.140625 16.25,4.6875 16.15625,4.390625 C16.015625,3.96875 15.890625,3.828125 15.40625,4.15625 C15.046875,4.390625 14.59375,4.640625 14.140625,4.890625 C13.671875,5.140625 13.203125,5.375 12.828125,5.5625 C12.21875,5.890625 12.234375,6.1875 12.890625,6.796875 C13.359375,7.234375 13.84375,7.578125 14.40625,7.859375 C14.953125,8.140625 15.59375,8.359375 16.375,8.546875 Z M7.90625,4.171875 C7.375,5.0625 6.796875,5.8125 6,6.671875 C6.625,7.328125 7.28125,7.921875 7.90625,8.515625 Z M4.28125,3.984375 C3.8125,3.421875 3.578125,2.8125 3.578125,2.15625 C3.578125,1.734375 3.703125,1.265625 4.046875,0.84375 C4.375,0.40625 4.90625,0 5.734375,-0.3125 C6.46875,-0.59375 7.46875,-0.8125 8.5625,-0.9375 C9.671875,-1.078125 10.890625,-1.15625 12.078125,-1.15625 C12.59375,-1.15625 13.15625,-1.140625 13.765625,-1.109375 C15,-1.0625 16.265625,-0.96875 17.4375,-0.859375 C18.59375,-0.734375 19.625,-0.625 20,-0.359375 C20.171875,-0.21875 20.265625,-0.0625 20.265625,0.125 C20.265625,0.296875 20.21875,0.453125 20.109375,0.578125 C19.90625,0.828125 19.515625,0.953125 19,0.953125 C18.734375,0.953125 18.453125,0.921875 18.140625,0.84375 C17.375,0.671875 16.359375,0.515625 15.28125,0.390625 C14.203125,0.265625 13.046875,0.1875 12,0.1875 C9.25,0.1875 7.171875,0.421875 5.90625,0.890625 C5.0625,1.203125 4.46875,1.671875 4.46875,2.28125 C4.46875,2.859375 4.578125,3.3125 4.765625,3.671875 Z" transform="translate(-0.515625, 19.28125) scale(1, -1)"/>
</svg>