<svg height="21.5" viewBox="0 0 24 21.5" width="24" xmlns="http://www.w3.org/2000/svg">
<path d="M4.921875,18.625 C5.453125,18.34375 5.53125,17.90625 5.3125,17.328125 C5.140625,16.90625 4.71875,16.15625 4.25,15.40625 C3.78125,14.65625 3.265625,13.90625 2.984375,13.484375 C2.65625,13.03125 2.46875,12.796875 2.59375,12.53125 C2.71875,12.25 2.859375,11.984375 3,11.796875 C3.21875,11.5 3.546875,11.4375 3.921875,11.6875 C5.421875,12.71875 6.625,13.390625 7.28125,13.671875 C7.09375,13.15625 6.96875,12.453125 6.875,11.65625 C6.796875,10.859375 6.78125,10.015625 6.796875,9.265625 C6.453125,9.734375 6.03125,9.84375 5.6875,9.84375 C5.5,9.84375 5.21875,9.765625 4.9375,9.625 C4.640625,9.484375 4.328125,9.28125 4.0625,9.046875 C3.640625,8.6875 3.21875,8.109375 2.953125,7.625 C2.734375,7.25 2.453125,6.625 2.453125,6 C2.453125,5.40625 2.59375,5 2.8125,4.671875 C2.984375,4.4375 3.234375,4.171875 3.53125,3.9375 C3.34375,3.546875 3.125,3.265625 2.9375,3 C2.609375,2.59375 2.453125,2.328125 2.453125,2.015625 C2.453125,1.71875 2.609375,1.484375 2.90625,1.21875 C3.265625,0.90625 3.578125,1.125 3.890625,1.71875 C4.109375,2.15625 4.390625,2.703125 4.609375,3.078125 C4.953125,2.828125 5.34375,2.515625 5.703125,2.203125 C6.046875,1.890625 6.359375,1.578125 6.5,1.34375 C6.828125,0.84375 6.984375,0.671875 7.296875,0.671875 C7.53125,0.671875 7.765625,0.828125 7.90625,1.0625 C8.0625,1.296875 8.15625,1.578125 8.15625,1.859375 C8.15625,2.1875 8.109375,2.59375 8.015625,3.4375 C7.984375,3.734375 7.96875,4.328125 7.96875,5.03125 C7.96875,5.375 7.96875,5.75 7.96875,6.125 L7.96875,7.28125 C8.390625,7.8125 9.03125,8.5625 9.734375,9.234375 C10.4375,9.90625 11.171875,10.515625 11.8125,10.78125 C12.296875,10.984375 12.5,10.765625 12.40625,10.015625 C12.40625,9.875 12.375,9.71875 12.359375,9.5 L12.28125,8.78125 C12.21875,8.28125 12.15625,7.75 12.09375,7.421875 C12.03125,7.109375 12.015625,6.90625 12.0625,6.734375 C12.09375,6.578125 12.203125,6.453125 12.390625,6.3125 C12.609375,6.15625 12.796875,6.078125 12.9375,6.078125 C13.0625,6.078125 13.234375,6.140625 13.421875,6.265625 C13.9375,6.640625 14.5,7.015625 15.015625,7.328125 C15.515625,7.640625 15.953125,7.890625 16.21875,8.015625 C16.34375,3.921875 16.0625,0.71875 15.484375,-1.78125 L16.03125,-1.875 C17.21875,0.59375 17.671875,3.984375 17.5625,8.546875 C18,8.78125 18.625,9.0625 19.234375,9.3125 C19.828125,9.578125 20.40625,9.796875 20.765625,9.9375 C21.34375,10.171875 21.625,10.453125 21.6875,10.703125 C21.734375,10.953125 21.59375,11.1875 21.34375,11.3125 C21.046875,11.453125 20.890625,11.65625 20.703125,12.03125 C20.5625,12.3125 20.390625,12.734375 20.21875,13.15625 C20.03125,13.59375 19.859375,14.0625 19.671875,14.515625 L19.25,14.359375 L19.671875,12.859375 C19.796875,12.40625 19.90625,12.03125 20.015625,11.765625 C20.140625,11.46875 20.171875,11.28125 20.09375,11.140625 C20.03125,10.984375 19.859375,10.859375 19.578125,10.71875 C19.34375,10.59375 18.96875,10.390625 18.5625,10.203125 C18.171875,10 17.78125,9.8125 17.546875,9.71875 C17.515625,11.6875 17.484375,14.359375 17.3125,17.859375 C17.296875,18.15625 17.375,18.296875 17.578125,18.3125 C17.765625,18.3125 18.03125,18.125 18.34375,17.765625 L18.6875,18.046875 C18.5625,18.390625 18.296875,18.875 18,19.203125 C17.734375,19.484375 17.234375,19.625 16.96875,19.5625 C16.375,19.4375 15.921875,18.921875 15.96875,18.21875 C16,17.375 16.015625,16.578125 16.0625,15.8125 C16.09375,15.03125 16.109375,14.28125 16.140625,13.546875 C16.171875,12.078125 16.203125,10.65625 16.203125,9.234375 C15.171875,8.703125 14.3125,8.265625 13.328125,7.859375 C13.5,8.46875 13.671875,9.390625 13.765625,10.109375 C13.8125,10.4375 13.859375,10.859375 13.78125,11.140625 C13.5625,11.890625 12.96875,11.984375 12.171875,11.734375 C11.546875,11.546875 10.71875,11 9.921875,10.390625 C9.125,9.78125 8.40625,9.125 7.953125,8.65625 C7.953125,11 7.953125,12.59375 8.375,13.53125 C8.5625,13.90625 8.75,14.109375 9.125,14.359375 C9.5,14.625 9.453125,14.796875 9.359375,14.953125 C9.234375,15.140625 8.890625,15.4375 8.640625,15.53125 C8.296875,15.671875 7.90625,15.484375 7.296875,15.03125 C6.921875,14.734375 6.296875,14.328125 5.6875,14 C5.0625,13.65625 4.4375,13.34375 4.0625,13.203125 C5.1875,14.703125 6.0625,16.109375 6.625,17.234375 C7.046875,18.078125 6.546875,18.625 5.375,19.078125 Z M3.9375,4.4375 C3.59375,4.78125 3.453125,5.359375 3.484375,5.8125 C3.5,6.015625 3.578125,6.3125 3.6875,6.59375 C3.78125,6.875 3.921875,7.171875 4.0625,7.390625 C4.515625,8.09375 4.8125,8.515625 5.046875,8.703125 C5.234375,8.890625 5.359375,8.96875 5.46875,9.015625 C5.5625,9.0625 5.65625,9.078125 5.796875,9.078125 C6.125,9.078125 6.484375,8.859375 6.484375,8.453125 C6.484375,8.09375 6.359375,7.78125 6.09375,7.375 C5.859375,7.015625 5.484375,6.5 5.09375,5.96875 C4.71875,5.4375 4.28125,4.875 3.9375,4.4375 Z M6.890625,2.609375 C6.234375,2.796875 5.53125,3.234375 4.875,3.6875 C5.09375,4.078125 5.4375,4.609375 5.8125,5.09375 C6.171875,5.59375 6.546875,6.03125 6.796875,6.265625 Z" transform="translate(-0.09375, 19.625) scale(1, -1)"/>
</svg>