<svg height="19.9375" viewBox="0 0 24 19.9375" width="24" xmlns="http://www.w3.org/2000/svg">
<path d="M5.8125,18.296875 C6.25,18.171875 6.640625,18 6.9375,17.734375 C7.21875,17.46875 7.40625,17.109375 7.4375,16.625 C7.5,15.59375 7.484375,14.453125 7.4375,12.984375 C6.59375,12.734375 5.90625,12.671875 5.328125,12.671875 C4.171875,12.671875 3.578125,12.96875 3.078125,13.46875 L2.796875,13.109375 C3.390625,12.03125 4.234375,11.59375 5.640625,11.59375 C6.09375,11.59375 6.6875,11.65625 7.390625,11.8125 C7.359375,11.15625 7.34375,10.546875 7.34375,9.84375 C7.34375,9.625 7.34375,9.390625 7.34375,9.171875 C7.328125,8.9375 7.328125,8.703125 7.328125,8.46875 C6.453125,7.59375 5.65625,6.828125 5.015625,6.1875 C4.6875,5.875 4.40625,5.59375 4.171875,5.359375 C3.6875,4.890625 3.28125,4.453125 3.046875,4.390625 C2.9375,4.359375 2.84375,4.453125 2.8125,4.671875 C2.78125,4.859375 2.8125,5.15625 2.90625,5.375 L2.421875,5.515625 C2.109375,5 1.875,4.25 1.875,3.671875 C1.875,3.078125 2.015625,2.796875 2.15625,2.5625 C2.28125,2.375 2.515625,2.140625 2.796875,2.140625 C3.015625,2.140625 3.21875,2.28125 3.390625,2.546875 C3.5625,2.84375 3.828125,3.265625 4.15625,3.6875 C4.953125,2.796875 5.453125,2.109375 5.796875,1.546875 C6.125,0.96875 6.3125,0.515625 6.5,0.09375 C6.734375,-0.453125 6.953125,-0.78125 7.125,-0.875 C7.28125,-0.953125 7.53125,-0.921875 7.71875,-0.796875 C7.875,-0.6875 8.03125,-0.546875 8.15625,-0.34375 C8.421875,0.078125 8.515625,0.4375 8.515625,0.953125 C8.515625,1.203125 8.5,1.5 8.46875,1.859375 C8.390625,2.984375 8.375,4.171875 8.375,5.3125 C8.375,6.4375 8.390625,7.53125 8.40625,8.5 C9,9.203125 9.625,9.9375 10.328125,10.703125 L10.0625,11.15625 C9.78125,10.890625 9.5,10.625 9.21875,10.34375 C8.9375,10.078125 8.671875,9.828125 8.40625,9.546875 C8.40625,10.484375 8.421875,11.328125 8.453125,12.046875 C9.390625,12.3125 10.296875,12.640625 10.953125,13.03125 C11.1875,13.1875 11.3125,13.359375 11.3125,13.5625 C11.3125,13.734375 11.234375,13.890625 11.015625,14.015625 C10.828125,14.125 10.46875,14.1875 10.25,14.1875 C9.921875,14.1875 9.734375,14.09375 9.359375,13.859375 C9.09375,13.671875 8.8125,13.5 8.5,13.34375 C8.578125,14.609375 8.6875,15.53125 8.84375,16.46875 C8.96875,17.21875 8.9375,17.703125 8.59375,18.046875 C8.109375,18.53125 7.125,18.8125 6,18.84375 Z M13.71875,16.90625 C14.046875,17.171875 14.421875,17.34375 14.796875,17.421875 C15.359375,17.5625 15.6875,17.359375 15.453125,16.78125 C15.359375,16.515625 15.140625,16.046875 14.875,15.546875 C14.609375,15.03125 14.296875,14.5 14.015625,14.109375 C13.75,13.75 13.4375,13.34375 13.078125,12.984375 C13,12.90625 12.921875,12.828125 12.828125,12.78125 C12.6875,12.65625 12.546875,12.53125 12.453125,12.421875 C12.375,12.3125 12.28125,12.15625 12.28125,11.984375 C12.265625,11.828125 12.28125,11.703125 12.453125,11.609375 C12.53125,11.578125 12.671875,11.578125 12.890625,11.609375 C13.125,11.65625 13.390625,11.703125 13.703125,11.75 C14,11.8125 14.328125,11.859375 14.65625,11.921875 C15.34375,12.03125 16.078125,12.109375 16.828125,12.140625 C18.296875,12.1875 19.5625,12.1875 20.234375,12.09375 C20.5625,12.046875 20.90625,12 21.1875,12 C21.625,12 21.984375,12.1875 21.984375,12.53125 C21.984375,12.78125 21.84375,12.96875 21.640625,13.109375 C21.453125,13.234375 21.21875,13.359375 20.9375,13.46875 C20.6875,13.5625 20.3125,13.625 20,13.65625 C19.484375,13.703125 19.078125,13.65625 18.546875,13.515625 C17.609375,13.265625 16.671875,13.09375 15.78125,12.9375 C15.34375,12.859375 14.609375,12.75 13.953125,12.671875 C13.75,12.640625 13.71875,12.703125 13.859375,12.84375 C14.078125,13.0625 14.375,13.390625 14.71875,13.78125 C15.046875,14.171875 15.40625,14.609375 15.734375,15.03125 C16.34375,15.828125 16.8125,16.609375 17,17.109375 C17.140625,17.5 17.15625,17.890625 17.015625,18.125 C16.75,18.546875 16.4375,18.671875 15.875,18.671875 C15.4375,18.671875 14.8125,18.484375 14.3125,18.09375 C14,17.859375 13.734375,17.671875 13.421875,17.3125 Z M15.4375,9.21875 C15.15625,9.078125 14.890625,8.8125 14.703125,8.515625 C14.515625,8.234375 14.40625,7.890625 14.40625,7.609375 C14.40625,7.15625 14.5625,6.796875 14.8125,6.625 C15.125,6.40625 15.5,6.21875 15.828125,6.125 C16.09375,6.03125 16.109375,5.90625 15.78125,5.640625 C15.59375,5.5 15.3125,5.234375 15,4.90625 C14.703125,4.59375 14.390625,4.265625 14.203125,4.03125 C13.9375,3.6875 13.78125,3.484375 13.78125,3.125 C13.78125,2.796875 14.046875,2.59375 14.5,2.359375 C15.09375,2.046875 15.734375,1.640625 16.34375,1.234375 C16.9375,0.828125 17.46875,0.40625 17.84375,0.078125 C18.03125,-0.125 18.21875,-0.296875 18.390625,-0.453125 C18.546875,-0.59375 18.6875,-0.734375 18.796875,-0.84375 C18.921875,-0.96875 19.046875,-1.03125 19.1875,-1.046875 C19.46875,-1.09375 19.765625,-1.015625 19.859375,-0.625 C19.96875,-0.234375 19.90625,0.296875 19.15625,1.015625 C18.78125,1.34375 18.171875,1.703125 17.328125,2.109375 C17.0625,2.234375 16.625,2.453125 16.15625,2.65625 C15.6875,2.875 15.203125,3.078125 14.84375,3.234375 C14.5,3.390625 14.46875,3.484375 14.796875,3.796875 C15.0625,4.0625 15.453125,4.390625 15.859375,4.71875 C16.265625,5.046875 16.6875,5.34375 17.015625,5.546875 C17.5,5.84375 17.640625,6.078125 17.640625,6.390625 C17.640625,6.671875 17.421875,7 17.046875,7.171875 C16.90625,7.234375 16.6875,7.296875 16.453125,7.359375 C16.203125,7.421875 15.921875,7.5 15.6875,7.578125 C15.453125,7.671875 15.390625,7.8125 15.390625,8.140625 C15.390625,8.421875 15.59375,8.703125 15.796875,8.90625 Z M7.28125,7.25 C7.25,6.15625 7.234375,5.125 7.21875,4.15625 C7.203125,3.171875 7.1875,2.296875 7.171875,1.484375 L6,2.703125 C5.609375,3.109375 5.140625,3.5625 4.53125,4.171875 C4.8125,4.53125 5.046875,4.828125 5.265625,5.0625 C5.671875,5.515625 6.390625,6.296875 7.28125,7.25 Z" transform="translate(0.0703125, 18.84375) scale(1, -1)"/>
</svg>