<svg height="18.46875" viewBox="0 0 24 18.46875" width="24" xmlns="http://www.w3.org/2000/svg">
<path d="M7.0625,17.203125 C7.0625,16.984375 7.0625,16.71875 7.0625,16.453125 C7.0625,15.90625 7.125,15.421875 7.625,14.734375 C8.015625,14.234375 8.609375,14.3125 9.1875,14.765625 C9.625,15.109375 9.984375,15.328125 10.515625,15.640625 C10.71875,15.75 10.90625,15.875 11.078125,15.984375 C11.4375,16.203125 12.140625,16.703125 12.09375,15.875 C11.96875,13.90625 11.890625,12.203125 11.84375,10.53125 C11.796875,8.84375 11.78125,7.203125 11.765625,5.40625 C11.28125,5.453125 10.625,5.375 9.96875,5.234375 C9.734375,5.1875 9.34375,5.078125 8.9375,4.9375 C8.515625,4.78125 8.0625,4.59375 7.71875,4.375 C6.921875,3.875 6.53125,3.375 6.53125,2.90625 C6.53125,2.5 6.671875,2.09375 7.25,1.71875 C7.5625,1.53125 7.984375,1.203125 8.390625,0.859375 C8.796875,0.515625 9.171875,0.15625 9.390625,-0.09375 C9.90625,-0.703125 10.15625,-0.9375 10.5625,-0.9375 C10.875,-0.9375 11.40625,-0.65625 11.765625,-0.296875 C12.296875,0.21875 12.765625,0.828125 12.9375,1.625 C13.0625,2.234375 13.109375,3.046875 13.109375,3.890625 C13.8125,3.734375 14.625,3.375 15.1875,3 C15.75,2.625 16.4375,2.140625 16.859375,1.71875 C17.1875,1.390625 17.34375,1.296875 17.65625,1.296875 C17.953125,1.296875 18.203125,1.515625 18.171875,1.953125 C18.125,2.3125 17.9375,2.609375 17.65625,2.9375 C17.328125,3.3125 16.8125,3.765625 16.015625,4.203125 C15.109375,4.703125 13.953125,5.125 13.0625,5.3125 C13.0625,7.171875 13.109375,8.78125 13.171875,10.203125 C13.21875,11.640625 13.296875,12.875 13.375,14.046875 C13.421875,14.84375 13.5,15.4375 13.578125,15.796875 C13.671875,16.140625 13.765625,16.40625 13.515625,16.71875 C13.28125,17.015625 12.875,17.296875 12.59375,17.40625 C12.28125,17.53125 11.953125,17.359375 11.546875,17.140625 C10.890625,16.796875 10.203125,16.4375 9.34375,16.109375 C8.984375,15.96875 8.71875,15.90625 8.515625,15.953125 C8.296875,16 8.125,16.15625 7.96875,16.390625 C7.796875,16.671875 7.671875,16.96875 7.625,17.40625 Z M11.765625,4.03125 C11.765625,3.1875 11.765625,2.59375 11.609375,2 C11.390625,1.109375 11.0625,0.671875 10.515625,0.671875 C10.25,0.671875 9.96875,0.71875 9.40625,1.109375 C8.84375,1.515625 8.265625,1.921875 7.96875,2.265625 C7.609375,2.671875 7.65625,2.921875 8.15625,3.234375 C8.46875,3.4375 8.796875,3.59375 9.1875,3.734375 C9.9375,4 10.671875,4.0625 11.109375,4.0625 C11.328125,4.0625 11.546875,4.0625 11.765625,4.03125 Z" transform="translate(-0.3671875, 17.53125) scale(1, -1)"/>
</svg>