<svg height="21.0625" viewBox="0 0 24 21.0625" width="24" xmlns="http://www.w3.org/2000/svg">
<path d="M9.40625,19.328125 C10.125,18.4375 11.0625,17.984375 12.09375,17.8125 C11.875,17.703125 11.515625,17.5625 11.140625,17.40625 C10.75,17.25 10.328125,17.09375 9.96875,17 L10.328125,16.578125 L11.609375,16.921875 C12.515625,17.140625 13.4375,17.265625 13.828125,17.265625 C14.328125,17.265625 14.5,17.546875 14.5,17.90625 C14.5,18.1875 14.15625,18.484375 13.828125,18.625 C13.421875,18.796875 12.9375,18.875 12.390625,18.921875 C11.5,18.96875 10.578125,19.15625 9.78125,19.671875 Z M11.265625,10.203125 C11.671875,10.34375 12.140625,10.546875 12.609375,10.734375 C13.0625,10.921875 13.53125,11.125 13.90625,11.3125 C14.03125,11.375 14.234375,11.46875 14.46875,11.578125 L15.265625,11.953125 C15.828125,12.21875 16.390625,12.5 16.671875,12.640625 C16.859375,12.734375 17.171875,12.921875 17.515625,13.140625 C17.84375,13.34375 18.203125,13.578125 18.484375,13.78125 C18.96875,14.140625 19.203125,14.515625 19.203125,14.9375 C19.203125,15.25 19.015625,15.53125 18.625,15.75 C18.234375,15.96875 17.625,16.109375 16.78125,16.109375 C16.34375,16.109375 15.875,16.09375 15.3125,16.015625 C14.75,15.953125 14.09375,15.828125 13.28125,15.640625 C12.875,15.546875 12.078125,15.28125 11.1875,14.953125 C10.3125,14.609375 9.359375,14.21875 8.703125,13.875 C8,13.515625 7.296875,13.15625 6.6875,12.859375 C6.09375,12.5625 5.609375,12.3125 5.359375,12.21875 C5.1875,12.140625 5.09375,12.125 5.046875,12.171875 C5.03125,12.21875 5.03125,12.3125 5.046875,12.4375 C5.046875,12.703125 5.140625,13.078125 5.25,13.421875 C5.34375,13.75 5.46875,14.046875 5.546875,14.15625 L5.140625,14.421875 C4.953125,14.296875 4.78125,14.078125 4.609375,13.8125 C4.421875,13.53125 4.25,13.234375 4.15625,12.96875 C3.921875,12.359375 3.84375,11.796875 3.84375,11.203125 C3.84375,10.90625 3.9375,10.625 4.09375,10.421875 C4.234375,10.21875 4.4375,10.078125 4.671875,10.078125 C4.8125,10.078125 4.953125,10.109375 5.140625,10.203125 C5.296875,10.28125 5.53125,10.453125 5.84375,10.71875 C6.03125,10.90625 6.28125,11.109375 6.5625,11.3125 C6.828125,11.515625 7.078125,11.6875 7.28125,11.84375 C7.640625,12.125 8.125,12.453125 8.625,12.78125 C9.125,13.109375 9.625,13.390625 9.984375,13.578125 C10.78125,14 11.8125,14.453125 12.890625,14.796875 C13.953125,15.125 15.046875,15.359375 15.9375,15.359375 C16.359375,15.359375 16.6875,15.328125 16.9375,15.25 C17.171875,15.171875 17.28125,15.03125 17.28125,14.84375 C17.28125,14.609375 17.140625,14.375 16.859375,14.078125 C16.578125,13.78125 16.15625,13.4375 15.546875,13.0625 C15.140625,12.78125 14.375,12.359375 13.515625,11.90625 C12.65625,11.453125 11.703125,10.96875 10.953125,10.609375 C10.671875,10.53125 10.484375,10.4375 10.359375,10.328125 C10.25,10.21875 10.171875,10.078125 10.125,9.890625 C10.078125,9.6875 10.234375,9.5 10.46875,9.359375 C10.6875,9.25 10.90625,9.140625 11.09375,9.03125 L11.59375,8.765625 C11.8125,8.640625 11.875,8.453125 11.84375,7.96875 C11.796875,7.515625 11.796875,6.90625 11.796875,6.28125 L11.765625,4.578125 C11.3125,4.546875 10.8125,4.484375 10.3125,4.375 C9.8125,4.265625 9.328125,4.109375 8.90625,3.96875 C7.671875,3.5 6.84375,2.875 6.84375,2.359375 C6.84375,2.015625 7,1.640625 7.78125,1.34375 C8.328125,1.15625 9.09375,0.75 9.765625,0.359375 C10.4375,-0.046875 11,-0.453125 11.15625,-0.6875 C11.5,-1.21875 11.734375,-1.390625 12.046875,-1.390625 C12.3125,-1.390625 12.484375,-1.25 12.625,-1.015625 C12.84375,-0.640625 13.015625,-0.109375 12.96875,0.734375 C12.921875,1.53125 12.875,2.359375 12.921875,3.34375 C13.390625,3.3125 14.046875,3.21875 14.65625,3.125 C15.28125,3.015625 15.921875,2.859375 16.34375,2.703125 C16.953125,2.484375 17.46875,2.609375 17.515625,3.03125 C17.5625,3.265625 17.46875,3.515625 17.28125,3.703125 C17.109375,3.890625 16.875,4.046875 16.625,4.125 C16.15625,4.296875 15.4375,4.40625 14.765625,4.484375 C14.171875,4.578125 13.53125,4.625 12.921875,4.625 C12.875,5.953125 12.875,7.15625 12.96875,7.953125 C12.96875,8.09375 13,8.21875 13.015625,8.34375 C13.015625,8.46875 13.03125,8.59375 13.0625,8.703125 C13.109375,8.9375 13.0625,9.125 12.96875,9.265625 C12.734375,9.578125 12.40625,9.65625 12.03125,9.828125 C11.84375,9.921875 11.578125,10.046875 11.265625,10.203125 Z M11.703125,3.296875 L11.703125,2.328125 C11.703125,1.796875 11.703125,1.40625 11.6875,1.046875 C11.671875,0.859375 11.671875,0.640625 11.65625,0.40625 C11.234375,0.59375 10.84375,0.734375 10.515625,0.875 C9.84375,1.15625 9.359375,1.359375 9.03125,1.515625 C8.6875,1.671875 8.28125,1.875 8.1875,2.03125 C8.140625,2.09375 8.109375,2.171875 8.109375,2.234375 C8.109375,2.265625 8.125,2.3125 8.15625,2.375 C8.1875,2.421875 8.25,2.46875 8.359375,2.53125 C8.546875,2.65625 8.890625,2.796875 9.453125,2.953125 C9.59375,2.984375 9.765625,3.03125 9.9375,3.078125 C10.109375,3.125 10.296875,3.171875 10.5,3.203125 C10.90625,3.265625 11.328125,3.3125 11.703125,3.296875 Z" transform="translate(0.4765625, 19.671875) scale(1, -1)"/>
</svg>