<svg height="21.25" viewBox="0 0 24 21.25" width="24" xmlns="http://www.w3.org/2000/svg">
<path d="M13.578125,19.15625 C12.3125,18.671875 11.1875,18.203125 10.015625,17.640625 C9.71875,17.5 9.484375,17.40625 9.3125,17.375 C9.125,17.328125 8.984375,17.34375 8.875,17.421875 C8.65625,17.578125 8.578125,17.984375 8.5625,18.640625 L8,18.71875 C7.515625,17.546875 7.46875,16.421875 8.203125,15.625 C8.5625,15.234375 8.984375,15.328125 9.5,16.03125 C9.890625,16.53125 10.46875,16.96875 11.359375,17.46875 C12.234375,17.984375 12.984375,18.265625 13.96875,18.484375 C13.265625,17.265625 12.59375,16.21875 11.84375,15.234375 C11,15.0625 9.890625,14.8125 8.8125,14.5625 C7.71875,14.328125 6.640625,14.0625 5.84375,13.875 C5.03125,13.6875 4.5,13.640625 4.09375,13.75 C3.671875,13.859375 3.375,14.109375 3.046875,14.515625 L2.609375,14.203125 C2.84375,13.53125 3.125,13.0625 3.375,12.75 C3.640625,12.421875 3.890625,12.25 4.125,12.1875 C4.484375,12.09375 4.703125,12.125 5.15625,12.3125 C5.828125,12.59375 6.84375,13 7.9375,13.390625 C9.03125,13.765625 10.1875,14.15625 11.15625,14.40625 C10.125,13.171875 9.125,12.09375 7.953125,10.921875 C7.625,10.59375 7.453125,10.390625 7.421875,10.125 C7.375,9.875 7.46875,9.578125 7.65625,9.125 C7.90625,8.546875 8.0625,8.015625 8.15625,7.4375 C7.109375,6.625 6.078125,5.703125 5.109375,4.671875 C4.421875,3.96875 4.015625,3.296875 3.75,2.6875 C3.5,2.0625 3.40625,1.484375 3.40625,1.015625 C3.40625,0.59375 3.53125,0.21875 3.78125,-0.0625 C4.015625,-0.34375 4.390625,-0.53125 4.953125,-0.53125 C6.359375,-0.53125 7.5,0.109375 8.296875,1.109375 C9.09375,2.09375 9.546875,3.453125 9.578125,4.90625 C9.609375,5.796875 9.5,6.59375 9.3125,7.34375 C11.15625,8.765625 13.171875,10.078125 15.453125,11.0625 C15.453125,10.65625 15.453125,10.25 15.40625,9.84375 C15.046875,9.390625 14.5625,8.890625 14.09375,8.46875 C13.625,8.03125 13.15625,7.640625 12.828125,7.4375 C12.40625,7.203125 12.109375,6.796875 12.140625,6.265625 C12.171875,5.859375 12.421875,5.65625 13.296875,5.609375 C13.8125,5.578125 14.5,5.703125 15.34375,5.90625 C15.3125,3.90625 15.328125,1.984375 15.40625,0.171875 C15.125,0.5 14.859375,0.78125 14.578125,1.0625 C14.296875,1.34375 14,1.609375 13.625,1.921875 L13.25,1.390625 C14.078125,0.5625 14.5625,-0.234375 15,-1.34375 C15.140625,-1.71875 15.453125,-1.953125 15.6875,-1.953125 C15.96875,-1.953125 16.234375,-1.703125 16.4375,-1.34375 C16.625,-1 16.765625,-0.546875 16.71875,-0.125 C16.59375,2 16.546875,3.984375 16.515625,6.234375 C17.546875,6.578125 18.53125,7.015625 19.328125,7.515625 C20.125,8.015625 20.453125,8.46875 20.453125,8.984375 C20.453125,9.484375 20.125,10.125 19.375,10.703125 L18.96875,10.375 C19.53125,9.5625 19.484375,9.09375 18.78125,8.5625 C18.265625,8.203125 17.453125,7.8125 16.515625,7.46875 C16.53125,7.84375 16.53125,8.21875 16.53125,8.609375 C16.53125,8.984375 16.546875,9.375 16.5625,9.78125 C16.6875,9.953125 16.765625,10.046875 16.90625,10.171875 C17.28125,10.5625 17.453125,10.90625 17.453125,11.3125 C17.453125,11.6875 17.09375,11.890625 16.609375,11.9375 C16.609375,12.03125 16.609375,12.140625 16.625,12.25 C16.625,12.34375 16.625,12.453125 16.625,12.546875 C16.625,13.21875 16.859375,13.296875 17.40625,12.796875 L17.65625,13.171875 C17.46875,13.515625 17.203125,13.78125 16.953125,13.953125 C16.6875,14.140625 16.4375,14.234375 16.25,14.234375 C16.046875,14.234375 15.890625,14.15625 15.796875,14.015625 C15.609375,13.734375 15.546875,13.0625 15.546875,12.546875 L15.5,11.734375 C15.28125,11.65625 15.078125,11.578125 14.8125,11.453125 C14.0625,11.109375 13.15625,10.671875 12.171875,10.109375 C11.1875,9.5625 10.140625,8.921875 9.078125,8.140625 C8.890625,8.640625 8.671875,9.125 8.421875,9.546875 C8.234375,9.890625 8.359375,10.28125 8.859375,10.875 C9.171875,11.25 9.6875,11.8125 10.328125,12.484375 C10.953125,13.140625 11.671875,13.90625 12.40625,14.65625 C14,14.9375 15.59375,15.09375 16.90625,15.15625 C18.21875,15.203125 19.25,15.1875 19.765625,15.140625 C20.25,15.09375 20.625,15.109375 20.890625,15.171875 C21.109375,15.25 21.296875,15.421875 21.296875,15.640625 C21.296875,15.890625 21.046875,16.21875 20.6875,16.4375 C20.234375,16.71875 19.765625,16.6875 19.203125,16.5625 C18.546875,16.421875 17.546875,16.25 16.46875,16.109375 C15.53125,15.96875 14.515625,15.796875 13.296875,15.546875 C14,16.296875 14.65625,16.953125 15.265625,17.546875 C15.921875,18.171875 15.828125,18.515625 14.984375,18.984375 C14.640625,19.171875 14.40625,19.265625 14.203125,19.28125 C14,19.296875 13.8125,19.25 13.578125,19.15625 Z M15.390625,8.609375 C15.375,8.375 15.359375,8.109375 15.359375,7.859375 C15.359375,7.625 15.359375,7.375 15.34375,7.125 C14.59375,6.9375 13.90625,6.828125 13.296875,6.875 C14.046875,7.421875 14.734375,8 15.390625,8.609375 Z M8.28125,6.5 C8.375,5.90625 8.34375,5.3125 8.28125,4.5625 C8.1875,3.3125 7.796875,2.25 7.25,1.5 C6.71875,0.734375 6.03125,0.296875 5.421875,0.296875 C4.875,0.296875 4.703125,0.71875 4.703125,1.15625 C4.703125,1.609375 4.765625,2.109375 4.9375,2.625 C5.109375,3.125 5.359375,3.625 5.765625,4.078125 C6.46875,4.875 7.296875,5.65625 8.28125,6.5 Z M18.359375,5.9375 C18.984375,5.5 19.4375,5 19.75,4.4375 C20.046875,3.875 20.234375,3.25 20.328125,2.546875 C20.375,2.234375 20.5625,2 20.8125,2 C21.09375,2 21.296875,2.140625 21.4375,2.328125 C21.5625,2.515625 21.640625,2.765625 21.640625,3 C21.6875,3.515625 21.4375,4.15625 20.953125,4.78125 C20.46875,5.40625 19.71875,6 18.78125,6.40625 Z" transform="translate(-0.1484375, 19.296875) scale(1, -1)"/>
</svg>