<svg height="21" viewBox="0 0 24 21" width="24" xmlns="http://www.w3.org/2000/svg">
<path d="M11.953125,19.109375 C12.75,18.90625 13.234375,18.65625 13.4375,18.390625 C13.65625,18.125 13.59375,17.84375 13.34375,17.515625 C13.203125,17.328125 12.9375,17.0625 12.65625,16.78125 L11.765625,15.890625 C11.0625,15.1875 10.828125,14.640625 11.265625,13.953125 C11.40625,13.71875 11.53125,13.4375 11.65625,13.15625 C10.859375,12.875 10.0625,12.578125 9.21875,12.234375 C7.4375,11.515625 6.15625,10.6875 5.3125,9.859375 C4.453125,9.015625 4.015625,8.1875 4.015625,7.4375 C3.96875,6.59375 4.359375,5.84375 5.203125,4.859375 C5.703125,4.25 6.390625,3.375 7.078125,2.4375 C7.765625,1.5 8.46875,0.515625 8.984375,-0.296875 C9.40625,-0.96875 9.875,-1.375 10.421875,-1.375 C11.40625,-1.375 12.375,-0.734375 13.21875,0.21875 C14.015625,1.109375 14.453125,2.15625 14.640625,3.1875 C15.390625,2.90625 16.109375,2.765625 16.5625,2.6875 C17.234375,2.578125 17.640625,2.796875 17.6875,3.171875 C17.71875,3.40625 17.65625,3.65625 17.375,3.890625 C17.09375,4.140625 16.78125,4.1875 16.296875,4.21875 C15.875,4.25 15.234375,4.328125 14.765625,4.46875 C14.796875,5.234375 14.703125,6.21875 14.5625,7.25 C15.46875,8.234375 16.25,9.265625 16.90625,10.296875 C17.046875,10.53125 17.1875,10.859375 17.328125,11.1875 C17.46875,11.53125 17.546875,11.90625 17.546875,12.234375 C17.546875,12.75 17.21875,13.109375 16.71875,13.34375 C16.203125,13.578125 15.515625,13.671875 14.8125,13.671875 C14.109375,13.671875 13.328125,13.5625 12.53125,13.375 C12.359375,13.6875 12.1875,13.953125 12.046875,14.1875 C11.703125,14.6875 11.859375,15.078125 12.359375,15.5 C12.640625,15.734375 12.953125,15.984375 13.28125,16.203125 C13.59375,16.40625 13.890625,16.59375 14.109375,16.703125 C15,17.15625 15.546875,17.6875 15.546875,18.078125 C15.546875,18.4375 15.40625,18.765625 14.65625,19.0625 C13.953125,19.34375 13.0625,19.59375 12.21875,19.625 Z M14.703125,12.53125 C15.9375,12.53125 16.328125,12.046875 15.875,10.875 C15.5,9.9375 14.984375,9.125 14.40625,8.328125 C14.28125,8.953125 14.140625,9.546875 13.96875,10.0625 C13.78125,10.609375 13.421875,11.5 13.03125,12.34375 C13.578125,12.46875 14.140625,12.53125 14.703125,12.53125 Z M12.09375,12.09375 C12.390625,11.328125 12.59375,10.515625 12.734375,9.796875 C12.921875,8.90625 13.078125,8 13.171875,6.875 C12.6875,6.21875 12.453125,5.71875 12.453125,5.359375 C12.453125,4.921875 12.84375,4.4375 13.28125,4.0625 C13.234375,3.390625 13,2.671875 12.671875,2.0625 C12.328125,1.4375 11.890625,0.921875 11.421875,0.59375 C11.046875,0.359375 10.8125,0.234375 10.59375,0.265625 C10.375,0.3125 10.203125,0.453125 9.921875,0.78125 L8.984375,1.796875 C8.59375,2.1875 8.203125,2.609375 7.796875,3.0625 C6.984375,3.953125 6.140625,4.890625 5.5625,5.640625 C5.15625,6.171875 5,6.578125 5,7.328125 C5,7.859375 5.40625,8.5625 6.21875,9.28125 C7.015625,10 8.234375,10.75 9.875,11.359375 C10.625,11.640625 11.375,11.90625 12.09375,12.09375 Z" transform="translate(1.15625, 19.625) scale(1, -1)"/>
</svg>