<svg height="19.3125" viewBox="0 0 24 19.3125" width="24" xmlns="http://www.w3.org/2000/svg">
<path d="M8.8125,18.546875 C9.390625,18.359375 9.734375,18.078125 9.890625,17.75 C10.1875,17.0625 9.828125,16.234375 9.5,15.453125 C9.171875,14.65625 8.796875,13.796875 8.40625,12.96875 C8,12.15625 7.671875,11.546875 7.390625,11.078125 C7.109375,10.609375 6.796875,10.171875 6.4375,9.703125 L5.796875,8.859375 C5.5625,8.5625 5.40625,8.34375 5.1875,8.109375 C4.984375,7.875 4.734375,7.625 4.390625,7.28125 C4.203125,7.078125 4.109375,7 3.875,6.78125 C3.578125,6.5 3.453125,6.296875 3.453125,5.90625 C3.453125,5.421875 3.46875,5.015625 3.71875,4.71875 C3.84375,4.578125 4.203125,4.578125 4.421875,4.78125 C4.671875,5 4.859375,5.234375 5.046875,5.515625 L5.640625,6.484375 C5.875,6.859375 6.15625,7.25 6.453125,7.625 C6.734375,8 7.03125,8.328125 7.28125,8.609375 C9.171875,10.71875 10.71875,12.046875 12.046875,12.84375 C13.359375,13.640625 14.28125,14.015625 15.078125,14.015625 C15.59375,14.015625 16.203125,13.8125 16.53125,13.515625 C17.046875,13.078125 17.15625,12.59375 17.15625,12.125 C17.15625,11.546875 16.90625,10.625 16.109375,9.5 C15.828125,9.125 15.359375,8.515625 14.84375,7.859375 C14.3125,7.203125 13.71875,6.5 13.203125,5.953125 C12.859375,5.59375 12.421875,5.140625 12.1875,5 C11.8125,4.765625 11.59375,4.546875 11.59375,4.28125 C11.59375,4.0625 11.671875,3.71875 11.765625,3.484375 C11.859375,3.265625 12.078125,3.203125 12.359375,3.390625 C12.65625,3.578125 12.96875,3.75 13.328125,3.890625 C13.5625,3.984375 14,4.109375 14.46875,4.203125 C14.921875,4.28125 15.375,4.34375 15.6875,4.34375 C16.296875,4.34375 16.65625,4.15625 16.65625,3.625 C16.65625,3.125 16.296875,2.609375 15.546875,2.078125 C14.8125,1.53125 13.640625,0.984375 12.046875,0.453125 L12.5,-0.1875 C14.09375,0.25 15.546875,0.796875 16.625,1.4375 C17.703125,2.0625 18.359375,2.765625 18.359375,3.546875 C18.359375,4.0625 18.109375,4.515625 17.65625,4.828125 C17.1875,5.140625 16.53125,5.328125 15.734375,5.328125 C14.890625,5.328125 14.109375,5.1875 13.625,5.0625 C14.375,5.859375 15.171875,6.71875 15.890625,7.484375 C16.59375,8.265625 17.21875,8.953125 17.640625,9.4375 C18.578125,10.53125 18.921875,11.40625 18.921875,12.125 C18.921875,12.78125 18.609375,13.5 17.8125,14.0625 C17.28125,14.453125 16.390625,14.859375 15.34375,14.859375 C14.546875,14.859375 13.765625,14.609375 12.6875,14.15625 C12.171875,13.9375 11.609375,13.640625 10.96875,13.234375 C10.34375,12.828125 9.625,12.296875 8.796875,11.59375 C9.265625,12.234375 9.640625,12.875 10.015625,13.546875 C10.375,14.234375 10.71875,14.9375 11.09375,15.734375 C11.15625,15.890625 11.234375,16.0625 11.328125,16.203125 C11.40625,16.359375 11.46875,16.53125 11.546875,16.671875 C11.796875,17.203125 11.515625,17.75 11.015625,18.21875 C10.5625,18.625 9.9375,18.890625 9.234375,19.125 Z" transform="translate(0.8125, 19.125) scale(1, -1)"/>
</svg>