<svg height="18.15625" viewBox="0 0 24 18.15625" width="24" xmlns="http://www.w3.org/2000/svg">
<path d="M15.40625,17.765625 C13.671875,17.765625 11.984375,17.25 10.015625,16.46875 C9.40625,16.234375 8.65625,15.96875 7.953125,15.734375 C7.234375,15.515625 6.5625,15.34375 6.1875,15.296875 C5.484375,15.203125 4.90625,15.59375 4.5625,16.15625 L4.109375,15.734375 C4.203125,15.328125 4.5,14.8125 4.71875,14.515625 C5.234375,13.8125 5.796875,13.578125 6.5,13.8125 C6.9375,13.953125 7.484375,14.15625 8.046875,14.421875 L9.296875,15 C9.78125,15.21875 10.328125,15.484375 10.96875,15.78125 C12.671875,16.578125 14.203125,17 15.296875,17 C16.46875,17 17.09375,16.34375 17.09375,15.171875 C17.09375,13.90625 16.46875,12.890625 15.484375,12.046875 C14.6875,11.375 13.6875,10.90625 12.84375,10.78125 C12.859375,10.9375 12.875,11.140625 12.890625,11.375 C12.90625,11.625 12.921875,11.84375 12.9375,12.03125 C12.953125,12.359375 12.859375,12.59375 12.6875,12.78125 C12.53125,12.953125 12.3125,13.03125 12.171875,13.03125 C11.84375,13.03125 11.203125,12.796875 10.625,12.359375 C10.25,12.078125 9.84375,11.65625 9.625,11.375 C9.265625,10.921875 9.4375,10.34375 10.0625,10.125 C10.203125,10.078125 10.453125,10.046875 10.734375,10.015625 C11.015625,9.96875 11.328125,9.96875 11.59375,9.984375 C11.59375,9.25 11.5625,8.40625 11.515625,7.46875 C11.109375,7.328125 10.546875,7.140625 9.890625,6.828125 C9.4375,6.59375 8.75,6.265625 8.15625,5.84375 C7.875,5.640625 7.75,5.328125 7.796875,5.046875 C7.84375,4.765625 8.0625,4.484375 8.515625,4.34375 C8.984375,4.203125 9.5,3.984375 10.015625,3.671875 C9.828125,3.515625 9.46875,3.21875 9.0625,2.90625 C8.65625,2.59375 8.1875,2.28125 7.828125,2.046875 C7.375,1.765625 7.234375,1.34375 7.328125,0.9375 C7.421875,0.546875 7.765625,0.171875 8.328125,-0.03125 C9.046875,-0.265625 10.171875,-0.390625 11.453125,-0.390625 C12.40625,-0.390625 13.34375,-0.34375 14.171875,-0.25 C15,-0.171875 15.71875,-0.03125 16.21875,0.171875 C16.8125,0.390625 17.171875,0.75 16.90625,1.21875 C16.8125,1.390625 16.59375,1.5 16.34375,1.5625 C16.109375,1.609375 15.796875,1.59375 15.546875,1.53125 C14.28125,1.171875 12.921875,0.921875 11.453125,0.921875 C10.375,0.921875 9.296875,1.015625 8.640625,1.203125 C8.46875,1.25 8.34375,1.34375 8.328125,1.484375 C8.296875,1.625 8.34375,1.75 8.5625,1.875 C8.84375,2.03125 9.234375,2.28125 9.625,2.546875 C10.015625,2.796875 10.390625,3.078125 10.671875,3.296875 C10.96875,3.140625 11.28125,2.96875 11.46875,2.796875 C11.6875,2.59375 11.921875,2.59375 12.171875,2.765625 C12.265625,2.828125 12.40625,2.96875 12.515625,3.125 C12.609375,3.296875 12.6875,3.5 12.671875,3.71875 C12.640625,4.25 12.625,4.671875 12.625,4.96875 C12.6875,5.015625 12.75,5.09375 12.84375,5.1875 C13.015625,5.359375 13.234375,5.578125 13.4375,5.796875 C13.625,6.03125 13.796875,6.203125 13.9375,6.5 C14.0625,6.8125 13.984375,7.046875 13.8125,7.265625 C13.65625,7.484375 13.46875,7.671875 13.171875,7.671875 C13.015625,7.671875 12.875,7.65625 12.71875,7.625 C12.75,8.09375 12.765625,8.53125 12.78125,8.921875 C12.78125,9.3125 12.796875,9.703125 12.828125,10.109375 C13.296875,10.15625 13.90625,10.296875 14.515625,10.53125 C15.140625,10.765625 15.796875,11.078125 16.421875,11.5 C16.953125,11.859375 17.53125,12.328125 17.984375,12.9375 C18.421875,13.546875 18.734375,14.296875 18.734375,15.1875 C18.734375,15.9375 18.390625,16.578125 17.796875,17.046875 C17.1875,17.5 16.359375,17.765625 15.40625,17.765625 Z M11.203125,11.796875 C11.609375,12.34375 11.75,12.296875 11.6875,11.640625 C11.6875,11.515625 11.671875,11.328125 11.65625,11.15625 C11.65625,10.984375 11.625,10.8125 11.609375,10.703125 C11.515625,10.6875 11.375,10.671875 11.25,10.6875 C10.96875,10.703125 10.6875,10.765625 10.765625,11.046875 C10.796875,11.1875 10.9375,11.4375 11.203125,11.796875 Z M11.5,6.359375 C11.484375,6.171875 11.46875,5.953125 11.46875,5.75 L11.46875,5.09375 C11.25,4.765625 10.859375,4.421875 10.5625,4.203125 C10.109375,4.328125 9.625,4.484375 9.1875,4.71875 C8.859375,4.90625 8.984375,5.09375 9.4375,5.375 C9.71875,5.5625 10.0625,5.765625 10.4375,5.9375 C10.796875,6.125 11.171875,6.265625 11.5,6.359375 Z" transform="translate(0.578125, 17.765625) scale(1, -1)"/>
</svg>