<svg height="21.453125" viewBox="0 0 24 21.453125" width="24" xmlns="http://www.w3.org/2000/svg">
<path d="M10.078125,19.171875 C10.828125,18.984375 11.328125,18.546875 11.515625,17.65625 C11.609375,17.234375 11.609375,16.71875 11.609375,16.296875 C11.234375,16.21875 10.859375,16.203125 10.4375,16.21875 C9.359375,16.296875 8.765625,16.5625 8.359375,17.09375 L8.09375,16.765625 C8.609375,15.71875 9.359375,15.140625 10.671875,15.140625 C10.953125,15.140625 11.265625,15.140625 11.59375,15.1875 L11.59375,14.015625 C11.265625,13.9375 10.859375,13.78125 10.484375,13.625 C10.09375,13.484375 9.734375,13.296875 9.546875,13.171875 C8.703125,12.625 8.375,12.265625 8.375,11.734375 C8.375,11.28125 8.640625,10.875 9.140625,10.625 C9.546875,10.4375 9.9375,10.25 10.375,10.015625 C10.109375,9.765625 9.65625,9.375 9.109375,8.953125 C8.5625,8.515625 7.9375,8.046875 7.359375,7.640625 C6.78125,7.234375 6.234375,6.875 5.859375,6.671875 C5.625,6.546875 5.28125,6.375 4.953125,6.21875 C4.625,6.078125 4.3125,5.9375 4.078125,5.84375 C3.734375,5.703125 3.578125,5.546875 3.53125,5.1875 C3.5,4.953125 3.5,4.484375 3.59375,4.15625 C3.6875,3.875 3.9375,3.75 4.421875,4.03125 C4.5625,4.125 4.859375,4.28125 5.1875,4.453125 L5.703125,4.71875 C5.875,4.8125 6.03125,4.90625 6.1875,4.96875 C7.890625,5.78125 9.078125,6.3125 10.015625,6.6875 C10.96875,7.0625 11.703125,7.3125 12.5,7.5625 C14.1875,8.09375 15.375,8.390625 16.109375,8.46875 C15.3125,7.828125 14.640625,7.125 13.78125,6.09375 C13.65625,6.078125 13.5,6.078125 13.34375,6.03125 C13.015625,5.984375 12.671875,5.90625 12.3125,5.828125 C12.125,5.78125 11.953125,5.75 11.796875,5.703125 C11.1875,5.578125 10.375,5.3125 9.609375,4.984375 C8.84375,4.640625 8.140625,4.25 7.703125,3.921875 C7.34375,3.640625 7.15625,3.296875 7.15625,2.984375 C7.140625,2.65625 7.28125,2.375 7.5625,2.234375 C8.1875,1.890625 8.46875,1.375 8.796875,0.890625 C9.078125,0.4375 9.390625,0.4375 10.03125,0.796875 C10.46875,1.03125 11.109375,1.5625 12,2.359375 C12.40625,2.71875 12.875,3.234375 13.34375,3.765625 C13.8125,4.296875 14.234375,4.859375 14.5625,5.3125 C15.078125,5.28125 15.640625,5.046875 15.96875,4.703125 C16.296875,4.34375 16.421875,3.921875 16.421875,3.125 C16.421875,2.703125 16.25,2.25 15.921875,1.796875 C15.59375,1.328125 15.09375,0.859375 14.40625,0.484375 C13.453125,-0.046875 12.46875,-0.40625 11.53125,-0.6875 C10.578125,-0.96875 9.640625,-1.140625 8.765625,-1.28125 L9.03125,-1.828125 C9.8125,-1.765625 10.90625,-1.578125 12.03125,-1.3125 C13.140625,-1.0625 14.21875,-0.734375 14.953125,-0.40625 C16.046875,0.09375 16.796875,0.671875 17.265625,1.28125 C17.71875,1.890625 17.90625,2.53125 17.90625,3.1875 C17.90625,3.9375 17.609375,4.609375 17.140625,5.046875 C16.578125,5.546875 15.828125,5.859375 14.859375,6 C15.265625,6.453125 15.921875,7.046875 16.484375,7.515625 C16.59375,7.609375 16.703125,7.6875 16.8125,7.75 C17,7.875 17.234375,7.984375 17.46875,8.09375 C17.609375,8.140625 17.75,8.1875 17.90625,8.265625 C18.234375,8.40625 18.796875,8.421875 19.21875,8.421875 C19.65625,8.421875 20.015625,8.640625 20.0625,8.9375 C20.125,9.265625 20.046875,9.40625 19.484375,9.671875 C19.34375,9.75 19.109375,9.796875 18.875,9.84375 C18.65625,9.875 18.4375,9.90625 18.296875,9.921875 C17.8125,9.96875 17.453125,9.921875 17.046875,9.734375 C16.015625,9.3125 14.703125,8.90625 13.28125,8.5 C12,8.125 10.5625,7.65625 9.15625,7.1875 C7.734375,6.703125 6.328125,6.21875 5.109375,5.84375 C6.40625,6.5 7.671875,7.25 8.75,7.90625 C9.828125,8.578125 10.6875,9.203125 11.15625,9.578125 C11.421875,9.4375 11.546875,9.34375 11.8125,9.078125 C12.03125,8.84375 12.40625,9 12.59375,9.390625 C12.65625,9.53125 12.703125,9.765625 12.71875,10 C12.734375,10.234375 12.734375,10.453125 12.734375,10.5625 C12.875,10.6875 13.09375,10.859375 13.328125,11.0625 C13.5625,11.25 13.8125,11.5 14.015625,11.765625 C14.359375,12.25 14.453125,12.5 14.453125,12.921875 C14.453125,13.375 14.234375,13.671875 13.90625,13.859375 C13.578125,14.046875 13.140625,14.09375 12.71875,14.09375 L12.71875,15.390625 C13.796875,15.625 14.890625,15.984375 15.59375,16.390625 C15.875,16.546875 16.015625,16.734375 16.015625,16.953125 C16.015625,17.09375 15.921875,17.25 15.78125,17.375 C15.625,17.515625 15.296875,17.59375 15.09375,17.59375 C14.765625,17.59375 14.59375,17.515625 14.265625,17.28125 C13.859375,17 13.296875,16.71875 12.734375,16.53125 C12.78125,16.921875 12.828125,17.375 12.875,17.65625 C12.96875,18.234375 12.96875,18.640625 12.640625,18.890625 C12.078125,19.34375 11.21875,19.578125 10.375,19.625 Z M12.734375,12.921875 C13.015625,13.015625 13.328125,12.921875 13.328125,12.6875 C13.328125,12.546875 13.25,12.375 13.140625,12.203125 C13.03125,12.015625 12.875,11.859375 12.734375,11.765625 Z M11.59375,10.921875 C11.421875,10.75 11.21875,10.578125 10.953125,10.4375 C10.53125,10.53125 10.25,10.671875 9.875,10.828125 C9.4375,11 9.28125,11.3125 9.546875,11.640625 C9.734375,11.890625 10.015625,12.21875 10.46875,12.4375 C10.78125,12.59375 11.15625,12.765625 11.59375,12.796875 Z M13.390625,5.375 C13.203125,4.96875 12.765625,4.390625 12.296875,3.828125 C11.8125,3.265625 11.265625,2.71875 10.8125,2.359375 C10.34375,2 10.046875,1.8125 9.8125,1.75 C9.578125,1.671875 9.40625,1.71875 9.21875,1.828125 C8.984375,1.96875 8.75,2.203125 8.515625,2.40625 C8.234375,2.671875 8.265625,2.8125 8.6875,3.234375 C9.15625,3.703125 9.859375,4.125 10.78125,4.515625 C11.09375,4.640625 11.375,4.75 11.609375,4.859375 C11.859375,4.953125 12.078125,5.046875 12.296875,5.125 C12.703125,5.265625 13.0625,5.34375 13.390625,5.375 Z" transform="translate(0.1875, 19.625) scale(1, -1)"/>
</svg>