<svg height="20.546875" viewBox="0 0 24 20.546875" width="24" xmlns="http://www.w3.org/2000/svg">
<path d="M8.109375,19.390625 C8.34375,18.828125 8.65625,18.3125 9.125,17.90625 C9.578125,17.484375 10.140625,17.1875 10.875,17.0625 C10.34375,16.671875 9.90625,16.296875 9.484375,15.90625 C9.0625,15.5 8.65625,15.078125 8.234375,14.609375 C7.90625,14.234375 7.671875,13.984375 7.625,13.71875 C7.578125,13.4375 7.671875,13.15625 8.046875,12.828125 C8.328125,12.546875 8.546875,12.375 8.796875,12.375 C9.03125,12.375 9.28125,12.53125 9.640625,12.890625 C10.109375,13.34375 10.625,13.703125 11.15625,13.953125 C11.671875,14.1875 12.203125,14.3125 12.625,14.3125 C13.375,14.3125 13.765625,13.65625 13.765625,12.484375 C13.765625,11.6875 13.5625,10.953125 13.140625,10.421875 C12.71875,9.875 12.078125,9.53125 11.234375,9.53125 C10.15625,9.53125 9.09375,9.78125 8.375,10.0625 C7.4375,10.390625 6.796875,10.15625 6.484375,9.21875 C6.28125,8.609375 6.078125,7.765625 5.9375,6.90625 C5.796875,6.03125 5.703125,5.140625 5.703125,4.421875 C5.703125,3.5625 5.75,2.71875 5.828125,2.015625 C5.90625,1.3125 6.015625,0.734375 6.171875,0.390625 C6.5,-0.359375 6.9375,-0.84375 7.484375,-0.84375 C8.09375,-0.84375 8.390625,-0.453125 8.65625,0.390625 C8.953125,1.359375 9.484375,2.25 10.09375,3.046875 C10.6875,3.828125 11.375,4.515625 12,5.0625 C12.578125,5.5625 13.21875,6.125 13.875,6.640625 C14.53125,7.140625 15.21875,7.5625 15.921875,7.78125 C16.015625,7.8125 16.125,7.828125 16.234375,7.84375 C16.4375,7.859375 16.578125,7.796875 16.59375,7.625 C16.609375,7.546875 16.578125,7.4375 16.484375,7.28125 C16.15625,6.703125 15.828125,5.890625 15.59375,5.09375 C15.34375,4.296875 15.171875,3.484375 15.171875,2.90625 C15.171875,1.875 15.40625,1.25 16.109375,0.796875 C16.578125,0.484375 17.25,0.234375 17.9375,0.0625 C18.640625,-0.125 19.328125,-0.21875 19.8125,-0.21875 C20.1875,-0.21875 20.4375,-0.171875 20.578125,-0.109375 C20.71875,-0.03125 20.75,0.0625 20.796875,0.234375 C20.828125,0.484375 20.6875,0.71875 20.46875,0.90625 C20.234375,1.078125 19.921875,1.203125 19.625,1.203125 C19.296875,1.203125 18.875,1.234375 18.453125,1.28125 C18.03125,1.328125 17.609375,1.40625 17.265625,1.515625 C16.828125,1.65625 16.53125,1.765625 16.34375,1.953125 C16.15625,2.140625 16.078125,2.40625 16.078125,2.796875 C16.078125,3.6875 16.4375,4.734375 17.5,6.09375 C17.9375,6.640625 18.125,6.890625 18.046875,7.296875 C18,7.578125 17.75,7.96875 17.328125,8.328125 C16.96875,8.65625 16.65625,8.703125 16.078125,8.5625 C15.6875,8.46875 14.9375,8.109375 14.09375,7.59375 C13.25,7.078125 12.3125,6.421875 11.515625,5.734375 C10.90625,5.1875 10.125,4.484375 9.4375,3.765625 C8.734375,3.03125 8.109375,2.28125 7.78125,1.671875 C7.546875,1.25 7.28125,1.3125 7.203125,1.671875 C7.0625,2.375 7.0625,3.5 7.125,4.71875 C7.203125,5.9375 7.359375,7.25 7.609375,8.328125 C7.828125,9.265625 8.203125,9.453125 8.859375,9.140625 C9.65625,8.765625 10.640625,8.546875 11.359375,8.546875 C12.796875,8.546875 13.765625,9.046875 14.375,9.796875 C14.96875,10.53125 15.21875,11.515625 15.21875,12.453125 C15.21875,13.296875 14.953125,13.9375 14.515625,14.375 C14.09375,14.796875 13.46875,15.03125 12.71875,15.03125 C12.265625,15.03125 11.640625,14.921875 11,14.75 C10.34375,14.5625 9.6875,14.328125 9.21875,14.0625 C9.09375,14 9,13.96875 8.9375,13.984375 C8.78125,13.984375 8.734375,14.09375 8.828125,14.296875 C8.875,14.390625 8.96875,14.5 9.09375,14.609375 C9.765625,15.21875 10.484375,15.75 11.1875,16.15625 C11.890625,16.546875 12.59375,16.796875 13.296875,16.875 C13.71875,16.921875 13.953125,17 14.09375,17.109375 C14.234375,17.21875 14.28125,17.34375 14.28125,17.515625 C14.28125,17.984375 13.8125,18.375 13.109375,18.296875 C11.984375,18.171875 11.140625,18.171875 10.46875,18.34375 C9.734375,18.53125 9.203125,18.890625 8.546875,19.703125 Z" transform="translate(-1.265625, 19.703125) scale(1, -1)"/>
</svg>