<svg height="19.609375" viewBox="0 0 24 19.609375" width="24" xmlns="http://www.w3.org/2000/svg">
<path d="M6.046875,17.84375 C6.15625,17.046875 6.40625,16.40625 6.71875,15.953125 C7.03125,15.5 7.40625,15.234375 7.78125,15.234375 C8.0625,15.234375 8.296875,15.28125 8.53125,15.390625 C8.765625,15.5 9,15.671875 9.3125,15.921875 C10.171875,16.609375 11.0625,17.140625 11.875,17.484375 C12.6875,17.84375 13.4375,18 14,18 C15.21875,18 15.828125,17.359375 15.828125,16.0625 C15.828125,15.3125 15.484375,14.578125 14.921875,13.96875 C14.359375,13.34375 13.546875,12.84375 12.640625,12.578125 C12.6875,13.5625 12.265625,14.03125 11.609375,13.46875 C11.546875,13.40625 11.4375,13.328125 11.3125,13.234375 C11.171875,13.125 11.03125,13.015625 10.90625,12.921875 C10.625,12.6875 10.390625,12.453125 10.390625,12.234375 C10.390625,12.078125 10.453125,11.953125 10.5625,11.890625 C10.671875,11.828125 10.90625,11.78125 11.265625,11.765625 C10.921875,10.96875 10.796875,10.53125 10.828125,10.15625 C10.859375,9.734375 11.234375,9.296875 12.03125,8.9375 C12.546875,8.703125 13.109375,8.25 13.53125,7.609375 C13.953125,6.96875 14.234375,6.125 14.234375,5.140625 C14.234375,3.875 13.90625,2.703125 13.28125,1.8125 C12.640625,0.9375 11.703125,0.390625 10.484375,0.390625 C9.40625,0.390625 8.328125,1.03125 7.53125,2.265625 L7.03125,1.8125 C7.46875,1.015625 7.9375,0.359375 8.515625,-0.078125 C9.078125,-0.53125 9.75,-0.78125 10.625,-0.796875 C11.9375,-0.828125 13.21875,-0.28125 14.1875,0.75 C15.140625,1.78125 15.78125,3.3125 15.78125,5.234375 C15.78125,6.265625 15.421875,7.140625 14.828125,7.859375 C14.234375,8.59375 13.359375,9.203125 12.359375,9.71875 C12,9.90625 11.796875,10.109375 11.796875,10.390625 C11.78125,10.671875 11.9375,11.078125 12.34375,11.6875 C15.796875,12.484375 17.421875,14.046875 17.421875,16.15625 C17.421875,16.90625 17.15625,17.5625 16.59375,18.03125 C16.015625,18.5 15.15625,18.78125 13.953125,18.78125 C12.625,18.78125 10.890625,18.265625 8.9375,17.328125 C8.421875,17.09375 8.09375,16.953125 7.5625,17 C7.15625,17.03125 6.84375,17.328125 6.578125,18.125 Z M17.515625,6.234375 C17.953125,6.015625 18.28125,5.8125 18.546875,5.59375 C18.796875,5.375 19,5.140625 19.21875,4.875 C19.6875,4.296875 20.09375,3.453125 20.28125,2.65625 C20.34375,2.375 20.5625,2.1875 20.796875,2.140625 C21.046875,2.09375 21.34375,2.203125 21.578125,2.546875 C21.859375,2.953125 21.890625,3.59375 21.390625,4.34375 C20.734375,5.328125 19.5625,6.296875 17.90625,6.828125 Z M3.6875,6.03125 C3.125,5.46875 2.75,4.859375 2.53125,4.296875 C2.3125,3.71875 2.25,3.1875 2.28125,2.765625 C2.328125,2.15625 2.515625,1.65625 2.75,1.3125 C2.984375,0.96875 3.265625,0.78125 3.5,0.78125 C3.828125,0.78125 4.03125,0.90625 4.15625,1.15625 C4.25,1.34375 4.3125,1.5625 4.5625,1.859375 C5,2.375 5.921875,2.984375 7.046875,3.59375 C8.171875,4.203125 9.5,4.765625 10.8125,5.234375 L10.625,5.890625 C8.15625,5.140625 5.984375,4.34375 4.28125,3.390625 C4.125,3.3125 4.015625,3.25 3.9375,3.21875 C3.859375,3.171875 3.78125,3.15625 3.734375,3.171875 C3.640625,3.171875 3.59375,3.265625 3.546875,3.4375 C3.46875,3.671875 3.515625,4.046875 3.625,4.46875 C3.734375,4.890625 3.921875,5.328125 4.171875,5.703125 Z" transform="translate(-0.0703125, 18.78125) scale(1, -1)"/>
</svg>