<svg height="20.296875" viewBox="0 0 24 20.296875" width="24" xmlns="http://www.w3.org/2000/svg">
<path d="M4.15625,13.953125 C4.53125,13.484375 4.921875,13.140625 5.5,12.828125 C6.15625,12.453125 7.203125,12.203125 8.8125,12.234375 C10.078125,12.265625 11.0625,12.3125 11.640625,12.40625 L11.546875,5.5625 C10.96875,5.578125 10.234375,5.5 9.453125,5.328125 C8.65625,5.171875 7.859375,4.9375 7.109375,4.65625 C7.65625,5.171875 8.34375,5.9375 8.96875,6.703125 C9.578125,7.46875 10.15625,8.234375 10.4375,8.734375 C10.765625,9.265625 10.828125,9.671875 10.703125,10.109375 C10.625,10.375 10.296875,10.65625 9.84375,10.78125 C9.5,10.875 9,10.9375 8.5625,10.90625 L8.3125,10.46875 C8.4375,10.4375 8.578125,10.375 8.703125,10.3125 C8.96875,10.1875 9.15625,9.953125 9.203125,9.6875 C9.25,9.40625 9.0625,9.03125 8.84375,8.609375 C8.609375,8.171875 8.28125,7.671875 7.90625,7.109375 C7.53125,6.5625 7.171875,6.09375 6.734375,5.59375 C6.28125,5.09375 5.796875,4.609375 5.375,4.203125 C4.9375,3.78125 4.609375,3.515625 4.15625,3.203125 C3.921875,3.03125 3.703125,2.890625 3.5,2.734375 C3.140625,2.46875 2.890625,2.203125 2.796875,1.828125 C2.703125,1.46875 2.609375,1.03125 2.6875,0.59375 C2.765625,0.171875 3.09375,0.046875 3.59375,0.59375 C4.390625,1.484375 5.203125,2.4375 6,3.140625 C6.390625,3.46875 6.828125,3.734375 7.296875,3.890625 C7.625,3.609375 7.96875,3.234375 8.296875,2.84375 C8.625,2.4375 8.9375,2 9.21875,1.609375 C9.453125,1.265625 9.609375,1.015625 9.75,0.78125 C9.828125,0.65625 9.890625,0.546875 9.96875,0.4375 L10.203125,0.046875 C10.328125,-0.171875 10.4375,-0.34375 10.53125,-0.453125 C10.703125,-0.703125 10.9375,-1.140625 11.28125,-1.140625 C11.453125,-1.140625 11.65625,-1.015625 11.9375,-0.78125 C12.21875,-0.5 12.453125,-0.140625 12.6875,0.453125 C12.75,0.609375 12.8125,0.875 12.828125,1.171875 C12.859375,1.453125 12.859375,1.765625 12.84375,2 C12.765625,2.984375 12.734375,3.890625 12.6875,4.78125 C12.96875,4.75 13.25,4.703125 13.578125,4.625 C14.1875,4.46875 14.84375,4.25 15.484375,4.015625 C16.125,3.78125 16.71875,3.53125 17.421875,3.15625 C18.125,2.765625 18.796875,2.34375 19.34375,1.96875 C19.90625,1.578125 20.203125,1.34375 20.46875,1.109375 C20.609375,1 20.734375,0.890625 20.859375,0.796875 C21.21875,0.5 21.5625,0.6875 21.6875,1.15625 C21.796875,1.53125 21.71875,1.96875 21.4375,2.328125 C21.21875,2.609375 20.859375,2.90625 20.328125,3.1875 C19.859375,3.453125 19.265625,3.734375 18.703125,3.96875 C18.140625,4.21875 17.59375,4.453125 17.1875,4.609375 C16.0625,5.046875 14.53125,5.515625 12.6875,5.640625 L12.828125,12.578125 C13.71875,12.703125 14.5625,12.84375 15.453125,13.03125 C16.34375,13.21875 17.375,13.4375 18.140625,13.703125 C18.625,13.875 19.015625,14.046875 19.34375,14.328125 C19.78125,14.703125 19.671875,15.140625 19.25,15.296875 C18.953125,15.390625 18.59375,15.34375 18.140625,15.171875 C17.296875,14.828125 16.359375,14.5625 15.234375,14.3125 C14.90625,14.234375 14.46875,14.15625 14.046875,14.078125 C13.625,14 13.171875,13.921875 12.84375,13.875 L12.96875,16.609375 C12.96875,16.78125 13,16.96875 13.03125,17.140625 L13.125,17.609375 C13.203125,18 13.140625,18.265625 12.828125,18.5 C12.59375,18.6875 12.140625,18.875 11.640625,19.015625 C11.203125,19.109375 10.625,19.15625 10.0625,19.125 L9.796875,18.625 C10.28125,18.5 10.703125,18.3125 11.0625,18.046875 C11.40625,17.796875 11.640625,17.546875 11.640625,16.921875 L11.640625,13.625 C11.34375,13.578125 10.90625,13.53125 10.390625,13.484375 C9.890625,13.4375 9.34375,13.40625 8.859375,13.390625 C8.1875,13.359375 7.6875,13.375 7.265625,13.40625 C6.828125,13.4375 6.453125,13.515625 6.078125,13.609375 C5.375,13.78125 4.90625,14.046875 4.484375,14.375 Z M11.515625,4.765625 L11.515625,3.21875 C11.515625,2.390625 11.484375,1.859375 11.453125,1.578125 C11.421875,1.296875 11.390625,0.96875 11.21875,0.96875 C11.140625,0.96875 10.984375,1.078125 10.78125,1.328125 C10.453125,1.703125 9.921875,2.25 9.359375,2.78125 C8.796875,3.296875 8.234375,3.796875 7.859375,4.125 C8.421875,4.328125 9.15625,4.5 9.828125,4.609375 C10.484375,4.71875 11.109375,4.765625 11.515625,4.765625 Z" transform="translate(-0.203125, 19.15625) scale(1, -1)"/>
</svg>