<svg height="24" viewBox="0 0 24 24" width="24" xmlns="http://www.w3.org/2000/svg">
<path d="M2.5625,13.203125 C2.5625,12.640625 2.65625,11.8125 2.75,11.046875 C2.84375,10.296875 3,9.546875 3.140625,9.171875 C3.375,8.515625 3.703125,8.125 3.984375,7.90625 C4.25,7.671875 4.5625,7.625 4.875,7.625 C5.203125,7.625 5.4375,7.875 5.515625,8.546875 C5.5625,8.84375 5.671875,9.125 5.859375,9.375 C6.21875,9.875 6.5,10.1875 6.828125,10.515625 C7.15625,10.828125 7.5625,11.15625 7.90625,11.4375 C8.234375,11.703125 8.75,12.03125 9.109375,12.078125 C9.28125,12.078125 9.421875,12.015625 9.53125,11.84375 C9.78125,11.453125 10.0625,11 10.34375,10.625 C10.625,10.25 10.890625,9.921875 11.09375,9.734375 C11.453125,9.40625 11.765625,9.140625 12.140625,9.140625 C12.453125,9.140625 12.828125,9.21875 13.203125,9.734375 C14.046875,10.90625 15,11.640625 15.796875,12.125 C16.421875,12.5 17.0625,12.828125 17.765625,12.828125 C18.28125,12.828125 18.71875,12.65625 19.046875,12.25 C19.359375,11.84375 19.53125,11.1875 19.53125,10.25 C19.53125,9.3125 19.265625,8.28125 18.796875,7.265625 C18.328125,6.265625 17.65625,5.296875 16.828125,4.5625 C16.078125,3.90625 15.359375,3.3125 14.5625,2.78125 C13.78125,2.234375 12.953125,1.71875 11.984375,1.25 L12.359375,0.734375 C14.25,1.53125 16.1875,2.59375 17.9375,4.0625 C18.671875,4.671875 19.46875,5.515625 20.078125,6.546875 C20.6875,7.59375 21.125,8.859375 21.125,10.296875 C21.125,11.375 20.6875,12.265625 20.0625,12.828125 C19.46875,13.34375 18.75,13.5625 17.8125,13.5625 C17.609375,13.5625 17.421875,13.53125 17.1875,13.484375 C16.75,13.390625 16.296875,13.203125 15.875,13.015625 C15.4375,12.8125 15.125,12.640625 14.75,12.390625 C14.390625,12.140625 14.046875,11.84375 13.6875,11.5625 C13.515625,11.421875 13.34375,11.296875 13.171875,11.1875 C12.796875,10.90625 12.546875,10.796875 12.359375,10.796875 C12.171875,10.78125 12.015625,10.875 11.84375,11.015625 C11.5,11.28125 11.015625,11.78125 10.625,12.234375 C10.171875,12.78125 9.71875,12.875 9.4375,12.875 C9.296875,12.875 9.171875,12.859375 9.0625,12.84375 C8.828125,12.796875 8.609375,12.734375 8.328125,12.59375 C8.203125,12.5 8.046875,12.421875 7.859375,12.3125 C7.484375,12.09375 7.015625,11.796875 6.578125,11.4375 C6.125,11.09375 5.6875,10.703125 5.359375,10.375 C5.1875,10.203125 5.046875,10.0625 4.921875,9.984375 C4.6875,9.8125 4.53125,9.796875 4.40625,9.90625 C4.265625,10 4.140625,10.171875 4.03125,10.390625 C3.921875,10.625 3.828125,10.859375 3.734375,11.109375 C3.6875,11.234375 3.640625,11.34375 3.59375,11.453125 C3.328125,12.171875 3.21875,12.890625 3.125,13.375 Z" transform="translate(0.15625, 13.5625) scale(1, -1)"/>
</svg>