<svg height="20.390625" viewBox="0 0 24 20.390625" width="24" xmlns="http://www.w3.org/2000/svg">
<path d="M6.84375,17.609375 C6.90625,17.375 7.03125,17.078125 7.171875,16.796875 C7.3125,16.515625 7.46875,16.265625 7.609375,16.078125 C7.859375,15.75 8.078125,15.546875 8.28125,15.4375 C8.5,15.328125 8.703125,15.296875 8.9375,15.296875 C9.359375,15.296875 9.765625,15.328125 10.25,15.640625 C10.515625,15.828125 10.78125,15.984375 11.078125,16.15625 C11.375,16.3125 11.640625,16.484375 11.90625,16.65625 C12.046875,16.75 12.21875,16.859375 12.4375,16.984375 C12.640625,17.109375 12.859375,17.234375 13.078125,17.375 C13.296875,17.515625 13.515625,17.640625 13.734375,17.765625 L14.28125,18.09375 C14.65625,18.3125 14.84375,18.140625 14.703125,17.765625 C14.578125,17.359375 14.375,16.90625 13.859375,16.125 C13.0625,14.90625 12.21875,13.78125 11.5,12.890625 C11.046875,13.125 10.34375,13.15625 9.5,13.109375 C9.03125,13.0625 8.515625,12.96875 7.96875,12.78125 C7.4375,12.59375 6.890625,12.3125 6.4375,11.9375 C5.546875,11.1875 4.96875,10.5 4.96875,9.53125 C4.96875,9.078125 5.1875,8.71875 5.53125,8.46875 C5.859375,8.234375 6.3125,8.09375 6.78125,8.109375 C7.8125,8.140625 8.609375,8.5625 9.453125,9.21875 C10.296875,9.875 10.953125,10.546875 11.5,11.203125 C11.671875,10.921875 11.703125,10.484375 11.703125,9.9375 C11.703125,9.53125 11.6875,9.140625 11.640625,8.90625 C11.59375,8.609375 11.546875,8.359375 11.453125,8.140625 C11.390625,8.015625 11.375,7.921875 11.375,7.859375 C11.359375,7.703125 11.390625,7.546875 11.4375,7.375 C11.46875,7.296875 11.5,7.1875 11.546875,7.0625 C11.625,6.828125 11.875,6.78125 12.234375,7.015625 C12.796875,7.34375 13.25,7.625 13.765625,7.859375 C14.328125,8.125 15.046875,8.359375 15.671875,8.359375 C16.84375,8.359375 17.359375,7.875 17.359375,6.84375 C17.359375,6.1875 16.84375,5.5625 16.25,5.09375 C16.09375,4.96875 15.921875,4.859375 15.75,4.765625 C15.375,4.546875 14.984375,4.359375 14.578125,4.1875 C14.375,4.109375 14.1875,4.015625 14.015625,3.9375 L12.875,3.40625 C12.453125,3.21875 12.046875,3.015625 11.765625,2.890625 C10.6875,2.375 10.296875,1.765625 10.296875,1.25 C10.296875,0.578125 10.53125,-0.03125 11.46875,-0.53125 C11.796875,-0.703125 12.25,-0.828125 12.71875,-0.90625 C13.1875,-1 13.65625,-1.03125 14.015625,-1.03125 C14.265625,-1.03125 14.515625,-1.015625 14.796875,-1 C15.3125,-0.953125 16.109375,-0.84375 16.109375,-0.359375 C16.109375,-0.09375 15.96875,0.09375 15.640625,0.296875 C15.359375,0.46875 15.078125,0.5625 14.609375,0.53125 C14.453125,0.515625 14.296875,0.5 14.171875,0.5 L13.765625,0.453125 C13.609375,0.4375 13.484375,0.421875 13.359375,0.421875 C13.234375,0.421875 13.109375,0.4375 13.015625,0.453125 C12.78125,0.46875 12.5625,0.5 12.296875,0.546875 C11.546875,0.6875 11.265625,0.96875 11.265625,1.328125 C11.265625,1.515625 11.40625,1.703125 11.640625,1.890625 C11.875,2.078125 12.1875,2.25 12.53125,2.40625 C13.015625,2.625 13.921875,2.984375 15.140625,3.34375 C15.84375,3.546875 16.390625,3.796875 17.1875,4.171875 C18.453125,4.78125 19.078125,5.65625 19.078125,6.6875 C19.078125,7.484375 18.703125,8.046875 18.109375,8.421875 C17.5,8.796875 16.65625,8.984375 15.71875,8.984375 C14.640625,8.984375 13.78125,8.734375 12.84375,8.40625 C12.984375,9.09375 13.03125,9.828125 12.984375,10.625 C12.9375,11.328125 12.671875,12 12.34375,12.3125 C12.5,12.515625 12.6875,12.75 12.90625,13 C13.109375,13.25 13.3125,13.5 13.53125,13.75 C13.9375,14.25 14.328125,14.703125 14.59375,15.03125 C15.25,15.828125 15.78125,16.375 16.109375,16.703125 C16.34375,16.953125 16.515625,17.1875 16.59375,17.453125 C16.765625,17.953125 16.390625,18.40625 16.0625,18.734375 C15.734375,19.046875 15.265625,19.359375 14.84375,19.34375 C14.421875,19.34375 14.0625,19.09375 13.671875,18.859375 C13.46875,18.734375 13.25,18.609375 13.0625,18.5 C12.265625,18.078125 11.71875,17.8125 11.296875,17.625 C10.859375,17.4375 10.53125,17.328125 10.171875,17.234375 C9.765625,17.125 9.5,17.0625 9.265625,17.03125 C9.03125,17 8.890625,17 8.703125,17 C8.1875,17 7.671875,17.359375 7.296875,17.984375 Z M10.78125,11.84375 C10.515625,11.46875 10.21875,11.109375 9.921875,10.796875 C9.296875,10.15625 8.515625,9.515625 7.859375,9.125 C7.1875,8.71875 5.734375,8.4375 5.734375,9.59375 C5.734375,10.296875 6.265625,10.859375 6.9375,11.3125 C7.609375,11.765625 8.453125,12.03125 9.21875,12.078125 C9.875,12.125 10.375,12.078125 10.78125,11.84375 Z" transform="translate(-0.0234375, 19.359375) scale(1, -1)"/>
</svg>