<svg height="21.421875" viewBox="0 0 24 21.421875" width="24" xmlns="http://www.w3.org/2000/svg">
<path d="M9.1875,19.296875 C9.21875,18.78125 9.375,18.296875 9.71875,17.984375 C10.109375,17.640625 10.78125,17.375 11.59375,17.375 C12.125,17.375 12.265625,17.234375 11.984375,16.8125 C11.828125,16.578125 11.5625,16.1875 11.296875,15.71875 C11.015625,15.25 10.75,14.703125 10.5625,14.1875 C10.421875,13.765625 10.40625,13.578125 10.625,13.25 C10.8125,12.96875 11,12.890625 11.375,12.9375 C11.765625,12.984375 12.296875,13.015625 12.96875,12.984375 C13.859375,12.953125 14.734375,12.796875 15.390625,12.34375 C15.765625,12.078125 16.0625,11.65625 16.28125,11.15625 C16.484375,10.65625 16.609375,10.078125 16.609375,9.5 C16.609375,8.859375 16.5,8.328125 16.296875,7.859375 C15.859375,6.953125 14.921875,5.84375 13.15625,5.15625 C13.140625,5.71875 13.109375,6.390625 13.109375,7.0625 C13.09375,7.75 13.0625,8.453125 13.015625,9.09375 C12.921875,10.015625 12.640625,10.40625 12.09375,10.625 C11.90625,10.71875 11.609375,10.71875 11.296875,10.640625 C10.984375,10.546875 10.65625,10.375 10.421875,10.078125 C9.75,9.234375 9.15625,8.65625 8.53125,8.140625 C7.90625,7.625 7.28125,7.171875 6.53125,6.640625 C6.125,6.359375 5.921875,6.078125 5.921875,5.8125 C5.921875,5.546875 6.171875,5.234375 6.640625,4.875 C7.390625,4.328125 8.40625,4.015625 9.484375,3.890625 C10.203125,3.8125 10.90625,3.828125 11.890625,3.921875 C11.796875,2.65625 11.65625,1.78125 11.46875,1.28125 C11.1875,0.484375 10.8125,-0.140625 10.34375,-0.53125 C9.796875,-0.984375 9.1875,-1.3125 8.59375,-1.53125 L8.9375,-2 C9.21875,-1.90625 9.59375,-1.765625 9.96875,-1.609375 C10.359375,-1.4375 10.75,-1.25 11.109375,-0.984375 C11.640625,-0.609375 12.21875,-0.015625 12.5,0.6875 C12.65625,1.0625 12.8125,1.515625 12.921875,2.078125 C13.046875,2.625 13.109375,3.28125 13.15625,4.125 C14.3125,4.4375 15.25,4.875 16.21875,5.65625 C16.8125,6.140625 17.296875,6.6875 17.625,7.34375 C17.953125,8 18.125,8.75 18.125,9.671875 C18.09375,10.578125 17.84375,11.375 17.359375,12.09375 C16.703125,13.0625 15.78125,13.515625 14.40625,13.765625 C14.078125,13.8125 13.625,13.890625 13.140625,13.9375 C12.640625,13.984375 12.125,14.015625 11.6875,14.015625 C11.375,14.015625 11.296875,14.0625 11.421875,14.3125 C11.890625,15.21875 12.640625,16 13.25,16.65625 C13.53125,16.96875 13.796875,17.140625 14.046875,17.3125 C14.140625,17.375 14.25,17.46875 14.296875,17.609375 C14.34375,17.75 14.328125,17.9375 14.1875,18.1875 C14,18.53125 13.65625,18.734375 13.15625,18.640625 C12.765625,18.59375 12.234375,18.5625 11.703125,18.59375 C11.15625,18.640625 10.625,18.71875 10.25,18.828125 C9.921875,18.921875 9.6875,19.171875 9.546875,19.421875 Z M10.703125,9.40625 C11.359375,10.125 11.625,10.046875 11.703125,9.34375 C11.75,8.90625 11.796875,8.46875 11.828125,8.046875 C11.890625,7.1875 11.921875,6.390625 11.921875,5.71875 C11.921875,5.375 11.921875,5.09375 11.90625,4.828125 C11.015625,4.703125 10.28125,4.671875 9.671875,4.703125 C9.21875,4.71875 8.875,4.78125 8.5625,4.890625 C8.234375,4.984375 7.953125,5.140625 7.625,5.359375 C7.125,5.6875 7.15625,5.84375 7.625,6.1875 C7.890625,6.359375 8.140625,6.59375 8.40625,6.84375 C8.921875,7.359375 9.4375,7.953125 9.953125,8.5625 C10.203125,8.84375 10.453125,9.140625 10.703125,9.40625 Z" transform="translate(-0.0234375, 19.421875) scale(1, -1)"/>
</svg>