<svg height="20.109375" viewBox="0 0 24 20.109375" width="24" xmlns="http://www.w3.org/2000/svg">
<path d="M12.84375,18.828125 C13.296875,18.6875 13.671875,18.578125 13.90625,18.4375 C14.09375,18.296875 14.21875,18.21875 14.28125,18.078125 C14.328125,17.9375 14.34375,17.78125 14.375,17.5 C14.390625,17.171875 14.421875,16.8125 14.421875,16.4375 C14.421875,16.078125 14.421875,15.734375 14.40625,15.5 C13.921875,15.40625 13.46875,15.25 12.96875,15.046875 C12.484375,14.84375 11.9375,14.609375 11.28125,14.28125 C10.921875,14.109375 10.46875,13.859375 9.96875,13.5625 C9.484375,13.25 8.984375,12.90625 8.609375,12.578125 L8.984375,12.046875 C9.921875,12.75 10.953125,13.203125 11.796875,13.5625 C12.21875,13.75 12.6875,13.921875 13.15625,14.0625 C13.625,14.203125 14.078125,14.296875 14.453125,14.328125 L14.375,10.28125 C14.09375,10.171875 13.75,10.015625 13.34375,9.8125 C12.953125,9.59375 12.53125,9.359375 12.140625,9.078125 C11.484375,8.609375 11.03125,8.203125 10.765625,7.859375 C10.5,7.53125 10.375,7.203125 10.375,6.9375 C10.375,6.40625 10.625,6 11.28125,5.734375 C11.84375,5.5 12.390625,5.21875 12.84375,4.859375 C12.4375,4.484375 12.078125,4.125 11.46875,3.484375 C10.859375,2.8125 10.515625,2.203125 10.515625,1.625 C10.515625,0.96875 10.859375,0.359375 11.5625,-0.046875 C11.90625,-0.25 12.421875,-0.421875 13,-0.546875 C13.578125,-0.65625 14.21875,-0.734375 14.859375,-0.734375 C15.9375,-0.734375 17.1875,-0.65625 18.265625,-0.296875 C19.15625,0 19.703125,0.453125 19.703125,0.84375 C19.703125,1.015625 19.640625,1.28125 19.34375,1.515625 C19.03125,1.765625 18.90625,2.0625 18.71875,2.546875 C18.53125,3.03125 18.34375,3.625 18.171875,4.21875 C17.984375,4.8125 17.84375,5.40625 17.734375,5.890625 L17.1875,5.8125 C17.265625,5.328125 17.359375,4.71875 17.421875,4.109375 C17.5,3.515625 17.5625,2.953125 17.59375,2.609375 C17.640625,1.96875 17.640625,1.578125 17.546875,1.296875 C17.453125,1.015625 17.28125,0.875 16.953125,0.78125 C16.484375,0.625 15.78125,0.484375 14.796875,0.484375 C13.71875,0.484375 12.6875,0.640625 12.140625,0.921875 C11.296875,1.328125 11.234375,1.8125 11.84375,2.609375 C12.125,2.984375 12.484375,3.328125 12.828125,3.625 C13.1875,3.921875 13.5,4.15625 13.71875,4.296875 C14.0625,4.109375 14.203125,4.015625 14.421875,3.875 C14.515625,3.8125 14.625,3.78125 14.75,3.796875 C15,3.828125 15.40625,4.25 15.359375,4.859375 C15.328125,5.140625 15.328125,5.46875 15.328125,5.828125 C15.328125,6 15.328125,6.171875 15.34375,6.359375 L15.34375,6.84375 C15.421875,7.03125 15.53125,7.25 15.640625,7.453125 C15.765625,7.65625 15.859375,7.84375 15.9375,7.953125 C16.21875,8.359375 16.375,8.6875 16.375,9.046875 C16.375,9.171875 16.34375,9.296875 16.3125,9.40625 C16.21875,9.640625 16.078125,9.8125 15.796875,10.015625 C15.65625,10.125 15.53125,10.21875 15.40625,10.328125 L15.578125,14.453125 C15.96875,14.484375 16.4375,14.5 16.96875,14.5 C17.21875,14.5 17.5625,14.46875 17.890625,14.421875 C18.21875,14.375 18.515625,14.328125 18.671875,14.3125 C18.984375,14.265625 19.28125,14.234375 19.65625,14.265625 C20.15625,14.296875 20.40625,14.515625 20.40625,14.734375 C20.40625,14.984375 20.265625,15.1875 19.96875,15.359375 C19.71875,15.5 19.28125,15.640625 18.71875,15.71875 C18.34375,15.765625 17.796875,15.78125 17.234375,15.78125 C16.671875,15.78125 16.078125,15.75 15.625,15.71875 C15.59375,16.09375 15.671875,16.875 15.796875,17.6875 C15.921875,18.4375 15.578125,18.8125 15.046875,19.015625 C14.828125,19.09375 14.46875,19.171875 14.109375,19.234375 C13.734375,19.296875 13.34375,19.34375 13.0625,19.375 Z M5.40625,18.34375 C5.4375,17.796875 5.390625,17.296875 5.25,16.75 C5.109375,16.203125 4.875,15.625 4.53125,14.953125 C3.96875,13.8125 3.109375,12.78125 2.265625,11.84375 C1.8125,11.328125 1.65625,10.921875 1.65625,10.578125 C1.65625,10.21875 1.875,9.921875 2.203125,9.640625 C2.328125,9.546875 2.5625,9.3125 2.65625,9.1875 C2.9375,8.859375 3.078125,8.59375 3.125,8.1875 C3.203125,7.578125 3.21875,6.78125 3.21875,5.9375 C3.21875,5.09375 3.203125,4.171875 3.15625,3.328125 C3.109375,2.46875 3.03125,1.671875 2.984375,1.109375 C2.9375,0.65625 3.015625,0.265625 3.21875,-0.078125 C3.390625,-0.34375 3.59375,-0.546875 3.9375,-0.546875 C4.265625,-0.546875 4.625,-0.3125 4.578125,0.296875 C4.546875,0.703125 4.765625,1.34375 5,2.09375 C5.140625,2.640625 5.390625,3.390625 5.65625,4.15625 C5.90625,4.90625 6.1875,5.703125 6.453125,6.34375 L6,6.671875 C5.765625,6.234375 5.46875,5.609375 5.1875,4.921875 C4.90625,4.234375 4.578125,3.453125 4.296875,2.703125 C4.3125,3.09375 4.34375,3.578125 4.375,4.015625 C4.390625,4.234375 4.390625,4.4375 4.390625,4.625 C4.40625,4.828125 4.40625,4.984375 4.421875,5.109375 C4.4375,5.625 4.4375,6.359375 4.375,7.015625 C4.3125,7.671875 4.171875,8.296875 3.9375,8.609375 C3.6875,8.953125 3.390625,9.28125 3.09375,9.5 C2.703125,9.796875 2.75,10.125 2.984375,10.421875 C4.390625,12.3125 5.5,13.90625 5.890625,15.234375 C6.25,16.453125 6.203125,17.5625 5.84375,18.453125 Z M18.53125,11.359375 C18.828125,11.140625 19.15625,10.828125 19.4375,10.546875 C19.71875,10.25 19.953125,9.96875 20.046875,9.828125 C20.328125,9.34375 20.515625,8.859375 20.515625,8.453125 C20.515625,8.046875 20.359375,7.859375 20.015625,7.859375 C19.703125,7.859375 19.234375,7.859375 18.53125,7.90625 L18.640625,7.28125 C19.53125,7.203125 19.9375,7.015625 20.203125,6.84375 C20.421875,6.703125 20.71875,6.453125 20.765625,6.125 C20.796875,5.890625 20.9375,5.75 21.265625,5.703125 C21.546875,5.703125 21.78125,5.953125 21.984375,6.390625 C22.109375,6.640625 22.171875,7.03125 22.171875,7.5625 C22.171875,8.09375 21.890625,9.03125 21.1875,9.921875 C20.484375,10.8125 19.609375,11.359375 18.890625,11.796875 Z M14.3125,6.96875 C14.203125,6.71875 14,6.40625 13.8125,6.125 C13.625,5.828125 13.390625,5.5625 13.25,5.40625 C13.0625,5.578125 12.734375,5.75 12.5,5.890625 C12.109375,6.109375 11.828125,6.28125 11.671875,6.421875 C11.515625,6.5625 11.421875,6.6875 11.421875,6.828125 C11.421875,6.96875 11.46875,7.125 11.65625,7.328125 C11.828125,7.53125 12.125,7.78125 12.59375,8.15625 C12.921875,8.40625 13.296875,8.640625 13.625,8.796875 C13.9375,8.9375 14.21875,9.0625 14.359375,9.078125 Z" transform="translate(0.0859375, 19.375) scale(1, -1)"/>
</svg>