<svg height="21.5625" viewBox="0 0 24 21.5625" width="24" xmlns="http://www.w3.org/2000/svg">
<path d="M10.109375,19.078125 C10.484375,18.96875 10.78125,18.796875 11.03125,18.546875 C11.5,18.078125 11.625,17.3125 11.625,16.78125 C11.609375,16.515625 11.609375,16.25 11.609375,16.015625 C10.96875,15.921875 10.4375,15.875 10.015625,15.921875 C8.84375,16 8.21875,16.28125 7.78125,16.828125 L7.46875,16.484375 C8.03125,15.40625 8.859375,14.96875 10.296875,14.84375 C10.625,14.796875 11.09375,14.828125 11.5625,14.90625 L11.5625,13.484375 C11.015625,13.34375 10.375,13.109375 9.734375,12.8125 C9.109375,12.5 8.515625,12.15625 8.09375,11.796875 C7.578125,11.359375 7.390625,11 7.609375,10.53125 C7.703125,10.34375 7.9375,10.125 8.25,9.890625 C8.5625,9.65625 8.9375,9.40625 9.296875,9.171875 C8.96875,8.890625 8.21875,8.4375 7.375,7.953125 C6.53125,7.453125 5.609375,6.953125 4.90625,6.625 C4.78125,6.5625 4.65625,6.5 4.515625,6.453125 C4.375,6.390625 4.234375,6.3125 4.078125,6.25 C3.78125,6.109375 3.453125,5.96875 3.21875,5.84375 C2.796875,5.609375 2.6875,5.328125 2.6875,4.921875 C2.6875,4.625 2.90625,4.328125 3.09375,4.03125 C3.1875,3.890625 3.296875,3.796875 3.453125,3.78125 C3.59375,3.75 3.796875,3.796875 4.125,3.9375 C4.453125,4.078125 4.921875,4.25 5.390625,4.40625 C5.859375,4.5625 6.34375,4.71875 6.671875,4.8125 C8.9375,5.421875 10.78125,5.6875 12,5.8125 C11.78125,5.578125 11.453125,5.21875 11.09375,4.796875 C10.71875,4.359375 10.328125,3.875 9.96875,3.390625 C9.390625,2.609375 9,2.234375 8.6875,1.953125 C8.40625,1.671875 8.390625,1.46875 8.46875,1.28125 C8.5625,1.03125 8.765625,0.796875 8.90625,0.671875 C9.015625,0.578125 9.125,0.5 9.3125,0.5 C9.484375,0.5 9.6875,0.578125 9.96875,0.796875 C10.296875,1.0625 10.828125,1.328125 11.203125,1.515625 C12.4375,2.109375 13.71875,2.375 14.890625,2.375 C15.921875,2.375 16.515625,1.953125 16.515625,1.15625 C16.515625,0.578125 16.15625,0.03125 15.3125,-0.4375 C14.421875,-0.9375 13.46875,-1.171875 12.34375,-1.421875 L12.640625,-1.953125 C13.109375,-1.890625 13.671875,-1.78125 14.28125,-1.640625 C14.875,-1.5 15.484375,-1.328125 16.03125,-1.125 C16.796875,-0.84375 17.3125,-0.5 17.609375,-0.109375 C17.921875,0.265625 18.03125,0.6875 18.03125,1.109375 C18.03125,1.5625 17.828125,1.984375 17.421875,2.375 C16.859375,2.953125 15.9375,3.125 15,3.125 C14.3125,3.125 13.4375,3.015625 12.546875,2.875 C11.65625,2.71875 10.75,2.515625 9.984375,2.28125 C10.59375,2.953125 11.265625,3.671875 11.890625,4.328125 C12.5,4.96875 13.078125,5.546875 13.515625,5.953125 C13.953125,6.03125 14.3125,6.078125 14.6875,6.09375 C15.046875,6.125 15.40625,6.125 15.875,6.125 C16.015625,6.125 16.203125,6.125 16.4375,6.125 L17.203125,6.125 C17.75,6.125 18.34375,6.109375 18.84375,6.078125 C19.46875,6.03125 20.03125,6.125 20.1875,6.5 C20.3125,6.828125 20.234375,7.296875 19.71875,7.53125 C19.546875,7.625 19.25,7.78125 18.921875,7.953125 C18.609375,8.109375 18.3125,8.296875 18.125,8.453125 C17.640625,8.859375 17.375,9.046875 17.1875,9.3125 C16.71875,9.9375 16.203125,9.984375 15.59375,9.59375 C15.265625,9.375 14.703125,8.90625 14.140625,8.359375 C13.5625,7.8125 12.953125,7.203125 12.53125,6.734375 C11.71875,6.640625 10.390625,6.46875 8.90625,6.234375 C7.421875,6 5.796875,5.71875 4.375,5.421875 C4.875,5.71875 5.390625,6.03125 5.9375,6.375 C7.015625,7.03125 8.015625,7.671875 8.84375,8.1875 L9.84375,8.8125 C10.25,8.640625 10.75,8.359375 11.234375,8 C11.5,7.796875 11.890625,7.6875 12.09375,7.828125 C12.421875,8.046875 12.734375,8.421875 12.640625,9.125 C12.640625,9.203125 12.640625,9.296875 12.625,9.40625 C12.609375,9.609375 12.59375,9.84375 12.59375,10.078125 L12.59375,10.390625 C13.109375,10.671875 13.71875,11.09375 14.1875,11.5 C14.546875,11.828125 14.8125,12.140625 14.8125,12.578125 C14.8125,13.0625 14.359375,13.3125 13.921875,13.421875 C13.421875,13.546875 13.03125,13.5625 12.640625,13.515625 L12.671875,15.078125 C13.796875,15.296875 14.9375,15.640625 15.734375,16.03125 C16,16.15625 16.125,16.3125 16.125,16.515625 C16.125,16.703125 16.046875,16.859375 15.875,16.96875 C15.6875,17.09375 15.34375,17.140625 15.125,17.1875 C14.75,17.234375 14.609375,17.140625 14.203125,16.90625 C13.765625,16.625 13.28125,16.375 12.71875,16.21875 C12.75,16.390625 12.78125,16.59375 12.796875,16.796875 C12.828125,17 12.859375,17.1875 12.890625,17.375 C13.03125,18.078125 13.015625,18.421875 12.671875,18.71875 C12.265625,19.078125 11.453125,19.515625 10.328125,19.609375 Z M12.625,12.78125 C12.9375,12.828125 13.234375,12.78125 13.375,12.640625 C13.609375,12.421875 13.625,12.09375 13.390625,11.8125 C13.25,11.609375 12.890625,11.328125 12.625,11.15625 Z M11.515625,10.609375 L9.796875,9.578125 C9.5625,9.703125 9.3125,9.859375 9.125,10.015625 C8.921875,10.15625 8.765625,10.296875 8.765625,10.390625 C8.765625,10.78125 8.984375,11.09375 9.453125,11.453125 C10.0625,11.90625 10.703125,12.359375 11.546875,12.546875 Z M11.46875,9.046875 C11.15625,9.09375 10.78125,9.21875 10.4375,9.359375 L11.46875,10.015625 Z M14.046875,6.828125 C14.84375,7.625 15.53125,8.296875 16.0625,8.5625 C16.3125,8.703125 16.53125,8.75 16.671875,8.71875 C16.984375,8.65625 17.390625,8.203125 17.875,7.734375 C18.125,7.5 18.359375,7.28125 18.578125,7.0625 C18.140625,7.0625 17.734375,7.078125 17.375,7.0625 C16.625,7.046875 15.921875,7 15.203125,6.921875 Z" transform="translate(0.5, 19.609375) scale(1, -1)"/>
</svg>