<svg height="17.921875" viewBox="0 0 24 17.921875" width="24" xmlns="http://www.w3.org/2000/svg">
<path d="M3.078125,15.984375 C3.484375,15.09375 4.078125,14.3125 4.96875,13.78125 C5.359375,13.546875 5.671875,13.390625 6.03125,13.390625 C6.40625,13.375 6.796875,13.484375 7.375,13.71875 C8.421875,14.1875 9.65625,14.65625 10.84375,15.078125 C12.03125,15.484375 13.171875,15.796875 14.015625,15.890625 C13.125,15.046875 12.484375,13.96875 12.078125,13.03125 C11.796875,12.4375 11.734375,11.984375 11.734375,11.65625 C11.734375,11.203125 11.9375,10.859375 12.234375,10.5625 C12.53125,10.265625 12.8125,9.984375 13.0625,9.796875 C13.25,9.640625 13.34375,9.359375 13.34375,9.140625 C13.34375,8.703125 13.203125,8.40625 12.984375,8 C12.703125,7.4375 12.359375,6.71875 12.03125,5.984375 C11.703125,5.265625 11.421875,4.515625 11.234375,3.984375 C11.03125,3.40625 10.953125,2.953125 10.953125,2.546875 C10.953125,2.34375 11,2.140625 11.09375,1.921875 C11.28125,1.484375 11.59375,1.109375 12.015625,0.828125 C12.421875,0.53125 12.96875,0.28125 13.625,0.109375 C14.28125,-0.078125 15.3125,-0.203125 15.890625,0.046875 C16.125,0.140625 16.25,0.390625 16.171875,0.71875 C16.0625,1.15625 15.75,1.4375 15.296875,1.4375 L14.828125,1.4375 C14.640625,1.4375 14.421875,1.453125 14.1875,1.515625 C13.390625,1.6875 12.71875,1.90625 12.21875,2.40625 C11.84375,2.796875 11.78125,3.21875 12.140625,4.0625 C12.25,4.328125 12.59375,5.03125 13,5.78125 C13.390625,6.53125 13.875,7.328125 14.265625,7.765625 C14.796875,8.375 14.984375,9.046875 14.984375,9.34375 C14.984375,9.796875 14.765625,10.234375 14.359375,10.46875 C13.96875,10.6875 13.5625,10.953125 13.171875,11.234375 C12.546875,11.703125 12.578125,12.265625 13.015625,13.109375 C13.609375,14.28125 14.5,15.21875 15.671875,15.6875 C15.828125,15.765625 16.015625,15.828125 16.1875,15.875 C16.53125,15.96875 16.953125,16.03125 17.453125,16.046875 C17.953125,16.0625 18.625,16.015625 19.0625,15.984375 C19.28125,15.96875 19.484375,15.96875 19.65625,15.96875 C19.96875,15.96875 20.28125,16.125 20.28125,16.46875 C20.28125,16.765625 20.109375,17.109375 19.625,17.375 C19.3125,17.5625 19.046875,17.65625 18.75,17.6875 C18.453125,17.71875 18.125,17.671875 17.703125,17.546875 C17.515625,17.484375 17.28125,17.421875 16.953125,17.359375 C16.34375,17.21875 15.5625,17.046875 14.765625,16.90625 L13.625,16.671875 C13.375,16.625 13.015625,16.5625 12.5625,16.453125 C11.65625,16.25 10.578125,15.984375 9.546875,15.734375 C9.03125,15.59375 8.59375,15.484375 8.203125,15.390625 C7.28125,15.15625 6.671875,15.078125 6.203125,15.078125 C5.71875,15.078125 5.375,15.1875 5,15.34375 C4.4375,15.5625 3.96875,15.90625 3.578125,16.375 Z" transform="translate(0.3203125, 17.71875) scale(1, -1)"/>
</svg>