<svg height="19.21875" viewBox="0 0 24 19.21875" width="24" xmlns="http://www.w3.org/2000/svg">
<path d="M3.5,16.578125 C3.640625,16.03125 3.9375,15.5 4.515625,15 C4.96875,14.609375 5.40625,14.375 6,14.375 C6.21875,14.375 6.4375,14.40625 6.640625,14.46875 C7.0625,14.5625 7.484375,14.734375 7.921875,14.953125 C8.375,15.171875 8.828125,15.375 9.453125,15.65625 C9.765625,15.796875 10.109375,15.953125 10.484375,16.109375 C11.21875,16.40625 12.0625,16.71875 12.921875,16.96875 C14.796875,17.515625 16.03125,17.640625 16.921875,17.640625 C17.734375,17.640625 18,17.328125 18,16.953125 C18,16.71875 17.9375,16.453125 17.75,16.171875 C17.5625,15.890625 17.234375,15.578125 16.671875,15.234375 C16.21875,14.953125 15.515625,14.65625 14.671875,14.328125 C13.8125,14 12.796875,13.703125 11.703125,13.421875 L12,12.921875 C13.09375,13.109375 14.1875,13.34375 15.125,13.625 C16.078125,13.90625 16.90625,14.203125 17.5,14.515625 C18.375,14.984375 18.953125,15.40625 19.328125,15.828125 C19.6875,16.25 19.828125,16.65625 19.828125,17 C19.828125,17.421875 19.65625,17.78125 19.171875,18.09375 C18.765625,18.359375 18.03125,18.53125 17.265625,18.53125 C16.46875,18.53125 14.796875,18.265625 12.71875,17.703125 L10.0625,16.953125 C9.1875,16.71875 8.390625,16.46875 7.828125,16.28125 C7.125,16.046875 6.296875,15.875 5.765625,15.921875 C5.375,15.953125 4.921875,16.03125 4.65625,16.21875 C4.421875,16.375 4.125,16.703125 3.9375,16.96875 Z M8.40625,11.890625 C7.921875,11.703125 7.34375,11.21875 6.984375,10.65625 C6.640625,10.125 6.421875,9.40625 6.296875,8.796875 C6.140625,8.046875 6.1875,7.34375 6.3125,6.796875 C5.9375,6.5625 5.515625,6.21875 5.0625,5.84375 C4.625,5.46875 4.1875,5.046875 3.828125,4.65625 C3.3125,4.125 2.953125,3.59375 2.734375,3.1875 C2.671875,3.078125 2.65625,2.984375 2.640625,2.859375 C2.609375,2.625 2.65625,2.421875 2.796875,2.234375 C2.9375,2.0625 3.3125,1.9375 3.5625,1.828125 C3.6875,1.765625 3.8125,1.71875 3.921875,1.65625 C4.1875,1.515625 4.484375,1.328125 4.78125,1.109375 C5.0625,0.90625 5.328125,0.671875 5.515625,0.4375 C5.703125,0.21875 5.84375,-0.046875 5.953125,-0.3125 C6.078125,-0.640625 6.359375,-0.6875 6.59375,-0.6875 C6.734375,-0.6875 6.875,-0.65625 7.015625,-0.578125 C7.296875,-0.4375 7.53125,-0.1875 7.71875,0.109375 C7.90625,0.390625 8.078125,0.734375 8.1875,1.328125 C8.28125,1.90625 8.328125,2.546875 8.296875,3.1875 C8.28125,3.828125 8.21875,4.578125 7.984375,5.34375 C7.859375,5.734375 7.71875,6.15625 7.578125,6.625 C7.8125,6.859375 8.015625,7.09375 8.234375,7.3125 C8.65625,7.765625 9.125,8.203125 9.640625,8.6875 C10.140625,9.15625 10.8125,9.75 11.4375,10.21875 C12.078125,10.6875 12.625,11.03125 13.0625,11.265625 C13.484375,11.484375 13.9375,11.6875 14.078125,11.5625 C14.203125,11.453125 14.078125,11 13.9375,10.578125 C13.78125,10.15625 13.609375,9.71875 13.421875,9.3125 C13.234375,8.921875 13.109375,8.671875 12.875,8.375 C12.640625,8.0625 12.453125,7.8125 12.265625,7.53125 C12.09375,7.265625 12.265625,6.921875 12.546875,6.625 C12.796875,6.375 12.96875,6.453125 13.28125,6.59375 C13.890625,6.875 14.5,7.1875 14.984375,7.4375 C15.484375,7.703125 15.875,7.90625 16.078125,8.046875 L16.078125,5.953125 C15.59375,5.859375 14.984375,5.609375 14.375,5.328125 C13.875,5.09375 13.65625,4.859375 13.65625,4.484375 C13.65625,4.203125 13.75,3.9375 14.09375,3.734375 C14.40625,3.5625 14.71875,3.3125 15.03125,2.984375 C14.9375,2.875 14.75,2.703125 14.515625,2.53125 C14.28125,2.34375 14,2.15625 13.765625,2.015625 C13.015625,1.578125 12.78125,1.21875 12.78125,0.84375 C12.78125,0.40625 13.0625,0.125 13.578125,-0.09375 C13.90625,-0.234375 14.421875,-0.328125 14.96875,-0.390625 C15.5,-0.453125 16.0625,-0.484375 16.46875,-0.484375 C16.921875,-0.484375 17.28125,-0.46875 17.609375,-0.453125 C17.921875,-0.453125 18.21875,-0.421875 18.546875,-0.390625 C18.984375,-0.34375 19.4375,-0.25 19.78125,-0.125 C20.109375,0.015625 20.234375,0.265625 20.234375,0.5 C20.234375,0.78125 20.078125,0.984375 19.78125,1.109375 C19.4375,1.234375 19.171875,1.15625 18.796875,1.03125 C18.1875,0.828125 17.359375,0.734375 16.515625,0.6875 C16.375,0.6875 16.203125,0.6875 15.984375,0.703125 C15.546875,0.703125 15.078125,0.734375 14.640625,0.796875 C14.203125,0.859375 13.78125,0.984375 13.78125,1.109375 C13.765625,1.21875 14.109375,1.40625 14.375,1.5625 C14.625,1.71875 14.953125,1.90625 15.3125,2.109375 L15.796875,2.40625 C15.96875,2.3125 16.109375,2.21875 16.25,2.0625 C16.34375,1.9375 16.53125,1.84375 16.78125,1.90625 C17.109375,1.984375 17.265625,2.140625 17.265625,2.65625 L17.265625,3.640625 C17.59375,3.984375 17.890625,4.390625 18.03125,4.578125 C18.203125,4.8125 18.265625,5.109375 18.265625,5.3125 C18.265625,5.546875 18.125,5.703125 17.9375,5.8125 C17.734375,5.921875 17.46875,5.984375 17.234375,5.984375 C17.234375,6.3125 17.234375,6.6875 17.25,7.140625 C17.265625,7.578125 17.265625,8.015625 17.265625,8.453125 C17.546875,8.578125 17.84375,8.828125 18.03125,9 C18.25,9.21875 18.359375,9.390625 18.359375,9.578125 C18.359375,9.9375 18.078125,10.046875 17.640625,10.125 C17.515625,10.15625 17.375,10.1875 17.234375,10.234375 L16.90625,10.328125 C16.515625,10.421875 16.375,10.21875 16.25,10.03125 C16.109375,9.84375 16.09375,9.484375 16.0625,9.140625 C15.78125,8.921875 15.265625,8.640625 14.75,8.375 C14.234375,8.125 13.703125,7.890625 13.328125,7.78125 C13.625,8.15625 14.015625,8.796875 14.359375,9.40625 C14.6875,10 14.96875,10.546875 15.046875,10.78125 C15.21875,11.3125 15.234375,11.59375 14.953125,11.890625 C14.765625,12.078125 14.5,12.140625 14.109375,12.140625 C13.9375,12.140625 13.578125,12.03125 13.1875,11.890625 C12.78125,11.75 12.34375,11.53125 11.984375,11.3125 C11.21875,10.84375 10.34375,10.171875 9.546875,9.515625 C8.734375,8.84375 7.953125,8.15625 7.375,7.625 C7.296875,7.828125 7.28125,8.15625 7.28125,8.5625 C7.28125,9.203125 7.46875,9.84375 7.859375,10.515625 C8.078125,10.90625 8.40625,11.265625 8.6875,11.453125 Z M6.625,5.84375 C6.71875,5.59375 6.8125,5.15625 6.875,4.671875 C6.921875,4.203125 6.96875,3.640625 6.96875,3.171875 C6.96875,2.3125 6.90625,1.875 6.78125,1.46875 C6.640625,1.015625 6.453125,0.921875 6.125,1.15625 C5.75,1.390625 5.015625,1.765625 4.21875,2.140625 C3.75,2.359375 3.6875,2.515625 4.0625,3 C4.484375,3.546875 4.9375,4.09375 5.375,4.59375 C5.828125,5.09375 6.25,5.515625 6.625,5.84375 Z M16.078125,3.890625 C15.9375,3.71875 15.828125,3.640625 15.578125,3.5 C15.234375,3.640625 14.890625,3.859375 14.765625,4.03125 C14.609375,4.25 14.65625,4.359375 14.890625,4.515625 C15.296875,4.796875 15.765625,4.90625 16.078125,5 Z" transform="translate(0.578125, 18.53125) scale(1, -1)"/>
</svg>