<svg height="20.296875" viewBox="0 0 24 20.296875" width="24" xmlns="http://www.w3.org/2000/svg">
<path d="M9.6875,18.875 C10.34375,18.640625 10.75,18.40625 10.96875,18.09375 C11.1875,17.765625 11.203125,17.359375 11.0625,16.828125 C10.875,16.109375 10.6875,15.40625 10.5,14.65625 C10.109375,13.1875 9.78125,11.484375 10.15625,10.828125 C10.203125,10.734375 10.28125,10.65625 10.375,10.59375 C10.5625,10.453125 10.828125,10.359375 11.203125,10.25 C11.375,10.203125 11.59375,10.140625 11.84375,10.0625 C12.453125,9.859375 12.921875,9.5625 13.28125,9.140625 C13.625,8.71875 13.859375,8.140625 13.96875,7.390625 C11,7.03125 8.328125,6.546875 5.984375,6 C5.375,5.859375 4.90625,5.90625 4.421875,6.296875 C4.0625,6.578125 3.671875,6.984375 3.390625,7.515625 L2.84375,7.15625 C3.03125,6.5 3.3125,5.90625 3.71875,5.359375 C4.171875,4.75 4.578125,4.484375 5.046875,4.484375 C5.3125,4.484375 5.625,4.5625 5.96875,4.6875 C6.3125,4.8125 6.6875,4.953125 7.109375,5.109375 C7.0625,4.75 7.015625,4.328125 7.015625,3.828125 C7.015625,3.15625 7.15625,2.40625 7.4375,1.71875 C7.71875,1.015625 8.140625,0.375 8.65625,-0.09375 C9.1875,-0.578125 9.84375,-0.875 10.609375,-0.875 C11.921875,-0.875 13.15625,0.078125 14.09375,1.484375 C15.078125,3.046875 15.5625,4.78125 15.53125,6.484375 C16.171875,6.5 16.8125,6.515625 17.46875,6.515625 C18.109375,6.515625 18.75,6.5 19.421875,6.453125 C19.890625,6.421875 20.21875,6.421875 20.484375,6.4375 C20.75,6.453125 20.953125,6.46875 21.1875,6.5 C21.421875,6.546875 21.546875,6.671875 21.59375,6.8125 C21.640625,6.953125 21.640625,7.109375 21.578125,7.203125 C21.40625,7.46875 21,7.6875 20.6875,7.78125 C20.03125,7.96875 19.421875,7.875 18.671875,7.828125 C17.546875,7.75 16.46875,7.671875 15.390625,7.53125 C15.015625,9.046875 14.046875,10.234375 12.140625,10.765625 C11.640625,10.90625 11.34375,11.03125 11.1875,11.203125 C11.015625,11.375 10.984375,11.59375 11.0625,11.90625 C11.25,12.65625 11.390625,13.234375 11.53125,13.71875 C11.671875,14.21875 11.796875,14.609375 11.984375,15.078125 C12.96875,14.5 14.140625,14.234375 15.171875,14.234375 C16.15625,14.234375 16.875,14.421875 17.375,14.734375 C17.703125,14.9375 17.90625,15.21875 17.90625,15.5 C17.90625,15.734375 17.640625,15.90625 17.1875,15.9375 C16.859375,15.96875 16.625,15.890625 16.203125,15.671875 C15.875,15.5 15.4375,15.359375 14.8125,15.359375 C13.96875,15.359375 13.09375,15.5 12.296875,15.828125 C12.40625,16.0625 12.5,16.296875 12.59375,16.484375 C12.671875,16.6875 12.734375,16.859375 12.828125,17.015625 C12.921875,17.25 12.984375,17.515625 12.90625,17.796875 C12.828125,18.0625 12.625,18.328125 12.234375,18.59375 C11.859375,18.84375 11.53125,19.015625 11.1875,19.140625 C10.828125,19.25 10.46875,19.328125 10.03125,19.421875 Z M14.046875,6.390625 C14.046875,5.734375 13.953125,5.046875 13.78125,4.34375 C13.59375,3.65625 13.34375,2.984375 13.015625,2.40625 C12.34375,1.21875 11.453125,0.4375 10.5625,0.4375 C9.8125,0.4375 9.15625,0.859375 8.6875,1.515625 C8.203125,2.15625 7.890625,3.015625 7.828125,3.875 C7.78125,4.4375 7.75,4.953125 7.828125,5.359375 C9.296875,5.796875 11.46875,6.1875 14.046875,6.390625 Z" transform="translate(-0.2421875, 19.421875) scale(1, -1)"/>
</svg>