<svg height="21.8125" viewBox="0 0 24 21.8125" width="24" xmlns="http://www.w3.org/2000/svg">
<path d="M13.328125,17.203125 C13.703125,17.640625 14.375,18.125 15.171875,18.59375 C15.390625,18.734375 15.53125,18.78125 15.59375,18.765625 C15.71875,18.71875 15.484375,18.234375 15.34375,17.921875 C15.203125,17.609375 15.03125,17.265625 14.859375,16.9375 C14.671875,16.609375 14.5625,16.453125 14.421875,16.265625 C14.34375,16.171875 14.28125,16.078125 14.234375,15.984375 C14.140625,15.796875 14.0625,15.625 14.15625,15.484375 C14.359375,15.1875 14.46875,15.140625 14.703125,15.296875 C14.828125,15.359375 14.953125,15.421875 15.109375,15.484375 C15.40625,15.609375 15.71875,15.734375 16.015625,15.828125 L16.421875,15.96875 C16.625,16.015625 16.765625,16.0625 16.796875,16.015625 C16.859375,15.96875 16.71875,15.84375 16.421875,15.578125 C15.90625,15.125 15.078125,14.46875 14.109375,13.765625 C13.125,13.046875 12,12.265625 10.875,11.546875 L11.3125,11.046875 C12.453125,11.75 13.765625,12.59375 14.984375,13.390625 C16.1875,14.1875 17.25,14.921875 17.859375,15.390625 C18.171875,15.625 18.390625,16.015625 18.390625,16.28125 C18.390625,16.515625 18.234375,16.75 18.046875,16.875 C17.828125,17.015625 17.53125,17.09375 17.359375,17.140625 C17.09375,17.1875 16.859375,17.15625 16.578125,16.921875 C16.34375,16.703125 15.890625,16.421875 15.40625,16.171875 L15.34375,16.296875 C15.625,16.765625 16.03125,17.234375 16.4375,17.640625 C16.71875,17.90625 16.890625,18.125 16.96875,18.265625 C17.046875,18.421875 17.09375,18.578125 17.09375,18.71875 C17.09375,18.984375 16.859375,19.34375 16.609375,19.578125 C16.390625,19.8125 16.15625,19.953125 15.796875,19.953125 C15.640625,19.953125 15.453125,19.90625 15.21875,19.765625 C14.984375,19.609375 14.703125,19.359375 14.28125,18.984375 C13.71875,18.453125 13.203125,17.953125 12.890625,17.640625 Z M7.203125,18.96875 C7.484375,18.78125 7.609375,18.546875 7.625,18.21875 C7.625,17.90625 7.53125,17.5625 7.390625,17.1875 C7.21875,16.75 6.953125,16.25 6.671875,15.828125 C6.390625,15.40625 6.109375,15.046875 5.953125,14.90625 C5.703125,14.6875 5.5625,14.578125 5.375,14.5 C5.109375,14.375 5.015625,14.15625 5.015625,13.875 C5.015625,13.671875 5.046875,13.34375 5.140625,13.15625 C5.234375,12.96875 5.59375,12.96875 5.9375,13.25 C6.578125,13.75 7.4375,14.28125 8.109375,14.5625 C7.8125,14.046875 7.34375,13.390625 6.875,12.765625 C6.40625,12.125 5.9375,11.515625 5.5625,11.109375 C5.25,10.75 5.1875,10.515625 5.1875,10.28125 C5.1875,10.15625 5.28125,9.984375 5.390625,9.84375 C5.515625,9.703125 5.640625,9.578125 5.765625,9.53125 C6.078125,9.390625 6.328125,9.359375 6.640625,9.671875 C6.84375,9.875 7.078125,10.109375 7.359375,10.390625 C7.625,10.671875 7.9375,10.984375 8.28125,11.328125 C8.9375,11.984375 9.6875,12.703125 10.4375,13.328125 L10.078125,13.859375 C9.34375,13.25 8.8125,12.8125 8.296875,12.40625 C8.046875,12.1875 7.78125,11.984375 7.53125,11.78125 C7.265625,11.5625 6.984375,11.328125 6.671875,11.09375 L6.59375,11.15625 C7.125,11.859375 7.828125,12.671875 8.453125,13.375 C9.078125,14.078125 9.640625,14.65625 9.921875,14.9375 C10.46875,15.4375 9.96875,15.8125 9.640625,16.03125 C9.46875,16.15625 9.34375,16.140625 9.125,15.984375 C8.515625,15.578125 8.046875,15.265625 7.328125,15 C7.53125,15.25 7.734375,15.546875 7.9375,15.90625 C8.328125,16.609375 8.9375,17.75 8.515625,18.453125 C8.4375,18.59375 8.3125,18.75 8.15625,18.921875 C8,19.109375 7.828125,19.265625 7.65625,19.375 Z M14.59375,11.90625 C14.421875,12.03125 14.171875,11.984375 14.046875,11.796875 C13.90625,11.5625 13.796875,11.328125 13.71875,11.09375 L13.53125,10.390625 C13.375,10.28125 13.109375,10.125 12.71875,9.9375 C11.9375,9.5625 10.859375,9.125 9.640625,8.671875 C8.421875,8.234375 6.921875,7.71875 6.03125,7.578125 C5.578125,7.53125 5.234375,7.484375 5,7.484375 C4.765625,7.484375 4.546875,7.515625 4.3125,7.5625 C3.84375,7.65625 3.46875,7.875 3.296875,8.328125 L2.796875,7.921875 C2.875,7.65625 2.984375,7.4375 3.125,7.25 C3.40625,6.875 3.703125,6.578125 4.046875,6.40625 C4.375,6.25 4.71875,6.171875 5.0625,6.171875 C5.234375,6.171875 5.375,6.1875 5.515625,6.21875 C6.234375,6.34375 7.296875,6.671875 8.609375,7.171875 C8.25,6.546875 7.75,5.90625 7.03125,5.109375 C6.8125,4.875 6.53125,4.71875 6.125,4.5625 C5.84375,4.46875 5.703125,4.375 5.65625,4.03125 C5.625,3.71875 5.703125,3.28125 5.859375,3.046875 C6,2.828125 6.234375,2.75 6.546875,3.03125 C7.0625,3.46875 7.53125,3.828125 7.9375,4.109375 C8.328125,4.375 8.609375,4.5625 8.765625,4.65625 C9.5625,5.140625 9.125,4.484375 8.890625,4.078125 C8.65625,3.6875 8.359375,3.265625 8.0625,2.875 C7.765625,2.46875 7.5,2.109375 7.015625,1.625 L6.234375,0.84375 C5.984375,0.59375 5.9375,0.265625 6.03125,0.03125 C6.125,-0.296875 6.4375,-0.5625 6.625,-0.6875 C7.03125,-0.96875 7.21875,-0.828125 7.421875,-0.640625 C7.703125,-0.40625 8.09375,-0.03125 8.5,0.359375 C9,0.84375 9.5,1.296875 9.984375,1.71875 C10.375,1.3125 10.78125,0.890625 11.15625,0.546875 C11.671875,0.09375 12.09375,-0.359375 12.390625,-0.890625 C12.59375,-1.265625 12.765625,-1.53125 12.921875,-1.65625 C13.0625,-1.78125 13.21875,-1.859375 13.390625,-1.859375 C13.78125,-1.859375 14.046875,-1.625 14.40625,-0.921875 C14.65625,-0.4375 14.796875,0.359375 14.796875,1.203125 C14.796875,2.75 14.78125,4.328125 14.75,5.78125 C14.734375,7.234375 14.71875,8.578125 14.734375,9.71875 C15.140625,9.921875 15.4375,10.125 15.625,10.296875 C15.828125,10.484375 15.953125,10.578125 16.03125,10.78125 C16.140625,11.0625 16.125,11.234375 15.734375,11.375 C15.546875,11.46875 15.296875,11.5625 15.09375,11.640625 C14.890625,11.71875 14.71875,11.796875 14.59375,11.90625 Z M13.5625,9.3125 C13.578125,8.796875 13.578125,8.234375 13.578125,7.609375 L13.578125,5.65625 C11.375,4.0625 9.390625,2.46875 7.90625,1.25 L7.8125,1.328125 C8.234375,1.96875 8.8125,2.71875 9.34375,3.375 C9.875,4.03125 10.375,4.578125 10.65625,4.859375 C10.78125,4.984375 10.859375,5.109375 10.859375,5.25 C10.875,5.53125 10.71875,5.703125 10.5,5.859375 C10.28125,6 10.015625,6.078125 9.765625,6.078125 C9.640625,6.078125 9.5,6.03125 9.390625,5.953125 C9.21875,5.84375 9,5.671875 8.734375,5.46875 C8.46875,5.28125 8.15625,5.078125 7.828125,4.90625 C8.625,5.84375 9.09375,6.625 9.484375,7.515625 C10.75,8.046875 12.234375,8.703125 13.5625,9.3125 Z M17.59375,5.609375 C18.25,5.4375 18.765625,5.0625 19.21875,4.578125 C19.828125,3.921875 20.1875,3.140625 20.359375,2.109375 C20.484375,1.359375 20.796875,1.15625 21.125,1.15625 C21.3125,1.15625 21.546875,1.296875 21.71875,1.53125 C21.875,1.75 21.984375,2.0625 21.984375,2.421875 C21.984375,2.953125 21.828125,3.546875 21.171875,4.34375 C20.984375,4.578125 20.6875,4.859375 20.375,5.09375 C20.078125,5.328125 19.765625,5.546875 19.484375,5.6875 C19.125,5.890625 18.484375,6.09375 17.984375,6.1875 Z M13.578125,4.859375 L13.546875,2.484375 C13.53125,1.765625 13.515625,1.21875 13.484375,0.84375 C13.453125,0.359375 13.390625,0.296875 12.921875,0.484375 C12.640625,0.59375 12.21875,0.8125 11.796875,1.09375 C11.359375,1.375 10.875,1.71875 10.421875,2.109375 C11.5,3.078125 12.546875,3.984375 13.578125,4.859375 Z" transform="translate(-0.390625, 19.953125) scale(1, -1)"/>
</svg>