<svg height="18.53125" viewBox="0 0 24 18.53125" width="24" xmlns="http://www.w3.org/2000/svg">
<path d="M7.96875,17.796875 C8.5,17.09375 9.484375,16.34375 10.765625,15.84375 C12.03125,15.34375 13.390625,15.234375 14.8125,15.234375 C15.796875,15.234375 16.34375,15.546875 16.34375,16.03125 C16.34375,16.328125 16.171875,16.5625 15.890625,16.703125 C15.59375,16.84375 15.203125,16.890625 14.765625,16.8125 C13.734375,16.625 12.4375,16.671875 11.203125,16.953125 C9.9375,17.234375 9.03125,17.6875 8.359375,18.34375 Z M6.671875,12.640625 C6.984375,11.703125 7.5625,10.96875 8.359375,10.390625 C9.015625,9.921875 9.78125,9.6875 10.8125,9.5 L10.859375,9.359375 C9.53125,8.9375 8.421875,8.15625 7.625,7.265625 C6.828125,6.375 6.390625,5.375 6.390625,4.4375 C6.390625,2.65625 7.546875,1.296875 9.734375,0.59375 C10.640625,0.3125 11.75,0.109375 12.828125,-0.015625 C13.90625,-0.125 14.96875,-0.1875 15.84375,-0.1875 C16.3125,-0.1875 16.75,-0.140625 17.078125,-0.015625 C17.390625,0.125 17.59375,0.34375 17.59375,0.671875 C17.59375,1.203125 17.109375,1.5 16.125,1.421875 C14.65625,1.296875 13.265625,1.34375 12.046875,1.484375 C10.828125,1.640625 9.78125,1.921875 9.03125,2.28125 C8.453125,2.5625 8.03125,2.828125 7.765625,3.171875 C7.484375,3.5 7.34375,3.890625 7.34375,4.4375 C7.34375,5.328125 7.875,6.234375 8.765625,7 C9.640625,7.765625 10.859375,8.375 12.234375,8.65625 C12.84375,8.796875 13.25,9.125 13.25,9.640625 C13.25,9.875 13.109375,10.109375 12.890625,10.3125 C12.65625,10.515625 12.3125,10.671875 11.9375,10.703125 C10.8125,10.78125 9.75,10.875 8.953125,11.359375 C8.578125,11.59375 8.28125,11.796875 8.015625,12.046875 C7.734375,12.3125 7.484375,12.625 7.21875,13.109375 Z" transform="translate(0.0078125, 18.34375) scale(1, -1)"/>
</svg>