<svg height="19.90625" viewBox="0 0 24 19.90625" width="24" xmlns="http://www.w3.org/2000/svg">
<path d="M10.21875,15.09375 C11,14.03125 12.078125,13.734375 13.625,13.703125 C13.53125,13.28125 13.265625,12.609375 12.984375,11.9375 C12.703125,11.25 12.40625,10.546875 12.171875,10.078125 C11.984375,9.6875 11.671875,9.234375 11.46875,9 C11.234375,8.734375 11.203125,8.5625 11.359375,8 C11.53125,7.34375 12.015625,7.328125 12.671875,7.703125 C13.328125,8.09375 14.046875,8.40625 15.03125,8.8125 C15.21875,8.890625 15.40625,8.96875 15.640625,9.03125 C16.0625,9.171875 16.53125,9.3125 16.921875,9.421875 C17.125,9.46875 17.28125,9.515625 17.421875,9.546875 C17.09375,9.09375 16.765625,8.515625 16.46875,7.90625 C16.15625,7.296875 15.890625,6.671875 15.71875,6.140625 C15.421875,5.25 15.234375,4.203125 15.265625,3.453125 C15.28125,2.609375 15.453125,1.921875 15.71875,1.359375 C15.984375,0.796875 16.34375,0.359375 16.78125,-0.03125 C16.96875,-0.171875 17.21875,-0.359375 17.5,-0.484375 C17.765625,-0.625 18.046875,-0.734375 18.296875,-0.734375 C18.828125,-0.78125 19.078125,-0.578125 19.078125,-0.09375 C19.078125,0.265625 18.9375,0.5625 18.453125,0.734375 C17.09375,1.25 16.25,2.28125 16.203125,3.546875 C16.15625,4.25 16.3125,5.046875 16.65625,6.03125 C17.1875,7.53125 17.703125,8.40625 18.3125,8.953125 C18.78125,9.359375 19.0625,9.5625 19.4375,9.734375 C19.765625,9.875 19.921875,10.015625 19.96875,10.140625 C20.015625,10.25 19.953125,10.375 19.90625,10.515625 C19.8125,10.703125 19.5,10.90625 19.28125,11.046875 C18.828125,11.28125 18.53125,11.265625 18.140625,10.90625 C17.96875,10.71875 17.828125,10.609375 17.65625,10.515625 C17.46875,10.421875 17.234375,10.34375 16.90625,10.25 C16.4375,10.109375 15.859375,9.96875 15.171875,9.796875 C14.5,9.640625 13.734375,9.453125 12.984375,9.296875 L12.921875,9.40625 C13.25,10.078125 13.640625,10.90625 14.015625,11.71875 C14.375,12.515625 14.71875,13.296875 14.953125,13.90625 C15.421875,14 16,14.171875 16.5625,14.359375 C17.125,14.546875 17.671875,14.765625 18.140625,15 C18.546875,15.21875 18.78125,15.453125 18.78125,15.796875 C18.78125,16.125 18.546875,16.328125 18.09375,16.390625 C17.765625,16.453125 17.453125,16.34375 17.203125,16.171875 C16.75,15.84375 16.140625,15.5 15.4375,15.234375 C15.5,15.453125 15.609375,15.796875 15.734375,16.15625 C15.84375,16.53125 15.953125,16.890625 16.03125,17.15625 C16.25,17.90625 16.0625,18.375 15.359375,18.671875 C14.90625,18.859375 14.453125,18.984375 13.515625,19.125 L13.296875,18.546875 C13.8125,18.375 14.109375,18.203125 14.296875,18 C14.484375,17.796875 14.53125,17.5625 14.515625,17.28125 C14.484375,17 14.421875,16.5625 14.328125,16.109375 C14.234375,15.671875 14.125,15.21875 14.015625,14.9375 C13.421875,14.796875 12.765625,14.796875 12.15625,14.890625 C11.53125,14.984375 10.953125,15.1875 10.53125,15.5 Z M4.5625,17.890625 C5.03125,17.421875 5.265625,16.8125 5.265625,16.0625 C5.265625,15.78125 5.234375,15.515625 5.1875,15.171875 C5.125,14.84375 5.03125,14.40625 4.90625,13.828125 C4.4375,11.875 4.203125,10.5 4.078125,9.375 C3.9375,8.25 3.921875,7.375 3.921875,6.390625 C3.921875,4.921875 4.046875,3.6875 4.375,2.421875 C4.640625,1.390625 4.90625,0.796875 5.234375,0.3125 C5.46875,-0.046875 5.703125,-0.140625 5.90625,-0.140625 C6.34375,-0.140625 6.609375,0.140625 6.640625,0.84375 C6.65625,1.671875 6.796875,2.65625 7.03125,3.6875 C7.265625,4.71875 7.609375,5.796875 8.0625,6.828125 L7.515625,7.203125 C6.671875,5.5 6.03125,4.03125 5.5625,2.5625 C5.375,2.890625 5.234375,3.59375 5.140625,4.3125 C5.046875,5.046875 5,5.796875 5,6.265625 C5,8.890625 5.4375,11.53125 6.5,14.40625 C6.734375,15.0625 6.875,15.46875 6.890625,15.796875 C6.921875,16.109375 6.828125,16.328125 6.671875,16.609375 C6.40625,17.0625 5.96875,17.625 5,18.265625 Z" transform="translate(0.03125, 19.125) scale(1, -1)"/>
</svg>