<svg height="20.4375" viewBox="0 0 24 20.4375" width="24" xmlns="http://www.w3.org/2000/svg">
<path d="M16.109375,19.125 C15.640625,19.21875 15.15625,19.1875 14.6875,19.0625 C14.21875,18.921875 13.765625,18.71875 13.390625,18.484375 L13.625,18.03125 C14.4375,18.359375 15.203125,18.5 15.53125,18.21875 C15.609375,18.125 15.6875,18.078125 15.734375,18.015625 C15.8125,17.890625 15.765625,17.765625 15.5625,17.59375 C15.453125,17.515625 15.3125,17.390625 15.125,17.265625 C14.75,17.015625 14.046875,16.578125 13.25,16.09375 C12.4375,15.59375 11.5,15.03125 10.671875,14.5625 C9.828125,14.078125 9.078125,13.671875 8.65625,13.4375 C8.15625,13.171875 7.90625,12.96875 7.765625,12.75 C7.640625,12.53125 7.65625,12.3125 7.703125,12.03125 C7.75,11.75 7.796875,11.609375 7.984375,11.609375 C8.0625,11.59375 8.203125,11.609375 8.375,11.671875 C8.5625,11.71875 8.796875,11.796875 9.09375,11.90625 C9.703125,12.125 10.484375,12.34375 11.265625,12.546875 C12.046875,12.734375 12.828125,12.890625 13.484375,13.015625 C14.140625,13.125 14.640625,13.203125 14.84375,13.203125 L14.90625,13.109375 C14.0625,12.734375 13.046875,12.171875 12.078125,11.5625 C11.09375,10.9375 10.1875,10.28125 9.578125,9.71875 C9,9.1875 8.6875,8.703125 8.6875,8.046875 C8.6875,7.5625 9.015625,7.15625 9.671875,7.0625 C10.21875,6.96875 10.765625,7.03125 11.265625,7.125 L11.265625,5.0625 C8.953125,4.34375 7.15625,3.46875 5.640625,2.6875 C4.921875,2.3125 4.71875,2.453125 4.671875,3 C4.640625,3.53125 4.71875,3.890625 4.859375,4.46875 L4.390625,4.703125 C3.921875,3.953125 3.625,3.046875 3.625,2.0625 C3.625,1.390625 3.765625,1.015625 4.171875,0.578125 C4.578125,0.140625 5.1875,0.25 5.609375,0.84375 C5.890625,1.234375 6.453125,1.734375 7.078125,2.15625 C7.578125,2.5 8.140625,2.859375 8.796875,3.203125 C9.453125,3.546875 10.25,3.890625 11.234375,4.21875 C11.1875,2.953125 11.15625,1.703125 11.0625,0.578125 C11.03125,0.171875 11.09375,-0.265625 11.234375,-0.59375 C11.375,-0.921875 11.578125,-1.15625 11.859375,-1.15625 C12.0625,-1.15625 12.234375,-1.03125 12.375,-0.796875 C12.5,-0.5625 12.5625,-0.171875 12.53125,0.390625 C12.453125,2 12.4375,3.265625 12.4375,4.578125 C14,5.015625 15.484375,5.203125 16.703125,5.203125 C17.359375,5.203125 17.921875,5.0625 18.328125,4.765625 C18.734375,4.453125 18.984375,3.984375 18.984375,3.359375 C18.984375,2.625 18.671875,1.859375 18.03125,1.15625 C17.375,0.453125 16.40625,-0.1875 15.09375,-0.640625 L15.453125,-1.21875 C18.984375,-0.140625 20.5625,1.453125 20.5625,3.5 C20.5625,4.296875 20.21875,4.90625 19.578125,5.34375 C18.921875,5.765625 18.015625,6 16.921875,6 C15.546875,6 13.953125,5.796875 12.4375,5.40625 L12.453125,7.328125 C12.796875,7.375 13.0625,7.484375 13.390625,7.71875 C13.828125,8.046875 13.6875,8.40625 13.328125,8.59375 C13.15625,8.671875 13.015625,8.765625 12.9375,8.84375 C12.84375,8.9375 12.75,9 12.640625,9.078125 C12.171875,9.4375 11.984375,9.40625 11.703125,9.078125 C11.515625,8.84375 11.390625,8.5 11.265625,8.15625 C11,8.015625 10.46875,7.9375 10.03125,8.015625 C9.75,8.0625 9.59375,8.25 9.640625,8.515625 C9.6875,8.765625 9.890625,9.078125 10.34375,9.40625 C11.046875,9.921875 12.078125,10.53125 13.078125,11.046875 C14.09375,11.578125 15.109375,12.03125 15.828125,12.265625 C16.296875,12.421875 16.5625,12.578125 16.671875,12.75 C16.765625,12.921875 16.71875,13.109375 16.578125,13.328125 C16.4375,13.5625 16.15625,13.921875 16.015625,14.0625 C15.78125,14.3125 15.359375,14.5 14.703125,14.265625 C14.203125,14.078125 13.28125,13.859375 12.265625,13.625 C11.265625,13.390625 10.171875,13.1875 9.34375,13.03125 C12.296875,14.6875 14.53125,15.75 16.390625,16.46875 C17.515625,16.90625 17.796875,17.34375 17.46875,18.046875 C17.375,18.265625 17.171875,18.5 16.921875,18.703125 C16.671875,18.90625 16.390625,19.0625 16.109375,19.125 Z M7.203125,18.796875 C6.625,17.953125 6.421875,17.109375 6.59375,15.890625 C6.6875,15.359375 6.9375,14.984375 7.421875,14.84375 C7.75,14.734375 8.234375,14.84375 8.796875,15.359375 C9.734375,16.203125 10.6875,16.859375 11.859375,17.515625 L11.609375,18.046875 C11.09375,17.828125 10.578125,17.578125 10.078125,17.328125 L8.5625,16.609375 C7.90625,16.296875 7.6875,16.390625 7.609375,16.828125 C7.484375,17.5 7.5,18.125 7.71875,18.625 Z" transform="translate(-0.09375, 19.21875) scale(1, -1)"/>
</svg>