<svg height="20.390625" viewBox="0 0 24 20.390625" width="24" xmlns="http://www.w3.org/2000/svg">
<path d="M8.59375,18.4375 C9.171875,18.25 9.59375,17.984375 9.828125,17.609375 C10.046875,17.234375 10.078125,16.703125 9.890625,15.96875 C9.78125,15.5 9.640625,15.015625 9.515625,14.484375 C9.25,13.40625 8.96875,12.265625 8.734375,11.140625 C8.484375,10 8.28125,8.9375 8.25,8.421875 C8.234375,8.171875 8.265625,7.96875 8.359375,7.828125 C8.53125,7.5625 8.796875,7.28125 8.984375,7.15625 C9.25,6.96875 9.765625,7.1875 10.375,7.515625 C11.359375,8.046875 12.359375,8.359375 13.4375,8.546875 C13.96875,8.640625 14.515625,8.6875 15.03125,8.6875 C15.59375,8.6875 16.0625,8.609375 16.46875,8.421875 C16.90625,8.234375 17.25,8.015625 17.484375,7.671875 C17.71875,7.3125 17.84375,6.828125 17.84375,6.171875 C17.84375,5.421875 17.453125,4.53125 16.46875,3.546875 C15.484375,2.5625 14.046875,1.75 12.296875,0.9375 C11.46875,0.546875 10.5625,0.21875 9.671875,-0.09375 C8.78125,-0.40625 7.90625,-0.65625 7.15625,-0.84375 L7.53125,-1.46875 C9.140625,-1.125 11.03125,-0.640625 12.875,0.078125 C14.65625,0.78125 16.25,1.65625 17.515625,2.640625 C18.734375,3.578125 19.515625,4.765625 19.515625,6.1875 C19.515625,7.5 18.953125,8.328125 17.59375,8.984375 C16.65625,9.4375 15.546875,9.53125 14.46875,9.53125 C13.78125,9.53125 12.96875,9.4375 12.140625,9.3125 C11.328125,9.171875 10.53125,8.984375 9.921875,8.8125 C9.4375,8.671875 9.328125,8.75 9.40625,9.171875 C9.59375,10.25 9.90625,11.5 10.234375,12.640625 C10.5625,13.796875 10.9375,14.859375 11.265625,15.640625 C11.671875,16.625 11.859375,17.140625 11.734375,17.5625 C11.609375,18 11.328125,18.234375 10.71875,18.453125 C10.109375,18.6875 9.53125,18.828125 8.90625,18.921875 Z" transform="translate(-1.3359375, 18.921875) scale(1, -1)"/>
</svg>