<svg height="20.03125" viewBox="0 0 24 20.03125" width="24" xmlns="http://www.w3.org/2000/svg">
<path d="M7.109375,18.171875 C7.625,18.078125 7.859375,18.03125 8.1875,17.84375 C8.375,17.703125 8.59375,17.609375 8.59375,17.328125 C8.59375,17.09375 8.15625,16.703125 7.578125,16.25 L7.96875,15.921875 C8.21875,16.015625 8.53125,16.140625 8.828125,16.28125 C9.109375,16.40625 9.375,16.53125 9.546875,16.625 C10.203125,17 10.328125,17.265625 10.328125,17.59375 C10.328125,17.90625 10.125,18.1875 9.8125,18.40625 C9.5,18.609375 9.078125,18.734375 8.65625,18.78125 C8.578125,18.78125 8.484375,18.78125 8.40625,18.78125 C8.3125,18.78125 8.203125,18.78125 8.09375,18.78125 C7.859375,18.765625 7.578125,18.71875 7.203125,18.625 Z M5.515625,14.140625 C4.96875,13.8125 4.703125,13.25 4.703125,12.875 C4.703125,12.453125 4.859375,12.171875 5.140625,11.859375 C5.421875,11.546875 5.59375,11.40625 5.9375,11.140625 C6.265625,10.859375 6.59375,10.484375 6.78125,10.171875 C6.40625,9.890625 5.9375,9.453125 5.453125,8.953125 C4.96875,8.453125 4.46875,7.875 4.078125,7.34375 C3.265625,6.265625 2.6875,5.015625 2.6875,3.84375 C2.6875,3.125 3.03125,2.5625 4.109375,2.5625 C5.09375,2.5625 6.265625,3.046875 7.34375,4.078125 C8.375,5.0625 9.046875,6.390625 9.046875,7.65625 C9.046875,8.84375 8.6875,9.71875 8.265625,10.25 C8.640625,10.65625 9.265625,11.3125 9.953125,12 C10.625,12.6875 11.34375,13.40625 11.90625,13.921875 C12.390625,14.359375 12.9375,14.84375 13.484375,15.21875 C14.015625,15.59375 14.546875,15.921875 15.046875,16.078125 C16.078125,16.390625 16.34375,16.0625 16.34375,15.296875 C16.34375,14.171875 16.015625,12.9375 15.546875,12.046875 C15.484375,11.921875 15.421875,11.796875 15.359375,11.671875 C15.3125,11.546875 15.234375,11.4375 15.171875,11.359375 C15.015625,11.15625 14.953125,10.953125 15,10.71875 C15.140625,10.0625 15.359375,9.828125 15.71875,9.96875 C16.28125,10.15625 17.046875,10.34375 17.5625,10.34375 C18.140625,10.34375 18.546875,9.96875 18.546875,9.03125 C18.546875,8.359375 18.453125,7.8125 17.953125,7.15625 C17.625,6.734375 17.15625,6.25 16.6875,5.796875 C16.203125,5.359375 15.734375,4.953125 15.40625,4.71875 C14.75,4.265625 14.328125,3.796875 14.328125,3.390625 C14.328125,3.09375 14.46875,2.859375 14.953125,2.5 C15.265625,2.265625 15.71875,1.859375 16.171875,1.359375 C16.625,0.875 17.078125,0.296875 17.40625,-0.234375 C17.859375,-0.984375 18.1875,-1.25 18.625,-1.109375 C18.984375,-0.96875 19.140625,-0.671875 19.109375,-0.296875 C19.0625,0.171875 18.640625,0.6875 18.234375,1.15625 C17.984375,1.4375 17.5625,1.796875 17.09375,2.15625 C16.609375,2.515625 16.0625,2.890625 15.578125,3.125 C15.046875,3.390625 14.9375,3.546875 15.359375,3.875 C15.65625,4.078125 15.953125,4.296875 16.25,4.5 C16.5625,4.703125 16.859375,4.90625 17.140625,5.109375 C17.71875,5.515625 18.234375,5.875 18.59375,6.234375 C19.078125,6.71875 19.46875,7.109375 19.75,7.53125 C20.015625,7.953125 20.15625,8.421875 20.15625,9.03125 C20.15625,9.8125 19.71875,10.296875 19.296875,10.609375 C18.796875,10.96875 18.390625,11 17.890625,11.0625 C17.1875,11.140625 16.375,10.96875 15.71875,10.828125 C16.203125,11.46875 16.859375,12.40625 17.359375,13.34375 C17.71875,14.015625 17.9375,14.609375 17.9375,15.234375 C17.9375,15.890625 17.703125,16.328125 17.421875,16.515625 C16.921875,16.875 16.53125,16.96875 15.890625,16.96875 C15.265625,16.96875 14.59375,16.671875 14.046875,16.390625 C13.015625,15.875 12.1875,15.078125 11.109375,14.15625 C10.59375,13.71875 9.984375,13.1875 9.375,12.625 C8.765625,12.0625 8.15625,11.484375 7.625,10.96875 C7.21875,11.375 6.78125,11.75 6.359375,12.078125 C5.84375,12.484375 5.546875,12.640625 5.546875,12.984375 C5.546875,13.28125 5.640625,13.578125 5.9375,13.859375 Z M7.328125,9.4375 C7.515625,9.046875 7.578125,8.375 7.578125,7.671875 C7.578125,7.296875 7.484375,6.78125 7.328125,6.265625 C7.15625,5.75 6.921875,5.234375 6.640625,4.859375 C6.125,4.15625 5.5,3.65625 4.953125,3.484375 C4.328125,3.296875 4.0625,3.4375 4.0625,3.890625 C4.0625,4.734375 4.359375,5.84375 5.109375,6.9375 C5.40625,7.375 5.796875,7.859375 6.171875,8.296875 C6.546875,8.734375 6.96875,9.140625 7.328125,9.4375 Z" transform="translate(0.578125, 18.78125) scale(1, -1)"/>
</svg>