<svg height="21.15625" viewBox="0 0 24 21.15625" width="24" xmlns="http://www.w3.org/2000/svg">
<path d="M7.46875,19.171875 C7.015625,18.546875 6.796875,17.9375 6.796875,17.1875 C6.796875,16.65625 6.96875,16.21875 7.15625,15.984375 C7.421875,15.671875 7.671875,15.546875 7.90625,15.546875 C8.40625,15.546875 8.84375,15.90625 9.359375,16.265625 C9.625,16.4375 9.90625,16.625 10.21875,16.828125 C10.59375,17.0625 10.921875,17.25 11.234375,17.4375 L12.171875,17.984375 C13.0625,18.5 13.625,18.734375 14.1875,18.828125 C14.359375,18.84375 14.5,18.828125 14.609375,18.75 C14.828125,18.59375 14.859375,18.3125 14.84375,18.09375 C14.8125,17.890625 14.6875,17.671875 14.453125,17.453125 C14.203125,17.234375 13.890625,17.03125 13.375,16.71875 C12.84375,16.421875 12.140625,16.015625 11.328125,15.578125 C10.5,15.140625 9.625,14.6875 8.78125,14.28125 C7.921875,13.859375 7.15625,13.375 6.1875,13.515625 C5.96875,13.546875 5.65625,13.65625 5.328125,13.84375 C5,14.015625 4.625,14.265625 4.296875,14.59375 L3.875,14.234375 C4.15625,13.609375 4.625,13.171875 5.15625,12.71875 C5.78125,12.1875 6.65625,12.03125 8.0625,12.21875 C7.21875,11.609375 6.734375,10.921875 6.359375,9.796875 C6.046875,8.859375 6.015625,7.765625 6.046875,6.625 C5.875,6.453125 5.65625,6.25 5.390625,6 C5.140625,5.75 4.859375,5.46875 4.59375,5.1875 C4.03125,4.578125 3.453125,3.890625 3.078125,3.1875 C2.75,2.640625 2.84375,2.25 3.40625,1.828125 C3.65625,1.640625 4.0625,1.296875 4.46875,0.921875 C4.875,0.546875 5.28125,0.15625 5.515625,-0.09375 C6.125,-0.6875 6.40625,-0.734375 6.828125,-0.171875 C7.1875,0.34375 7.328125,0.78125 7.28125,1.34375 C7.234375,1.921875 7.203125,2.71875 7.1875,3.546875 C7.15625,4.359375 7.15625,5.203125 7.15625,5.90625 C8.1875,7.078125 9.078125,7.96875 10.109375,8.8125 C11.359375,9.828125 12.484375,10.59375 13.390625,11.109375 C14.3125,11.625 15,11.90625 15.390625,11.953125 C16.109375,12.03125 16.296875,11.796875 16.296875,11.09375 C16.296875,10.84375 16.3125,10.59375 16.328125,10.34375 C16.34375,10.109375 16.328125,9.796875 16.296875,9.453125 C15.84375,9.3125 15.265625,9.0625 14.734375,8.78125 C14.1875,8.5 13.6875,8.1875 13.375,8 C12.40625,7.34375 11.75,6.703125 11.328125,6.0625 C10.921875,5.421875 10.765625,4.796875 10.765625,4.21875 C10.765625,3.859375 10.8125,3.59375 10.953125,3.3125 C11.09375,3.03125 11.328125,2.796875 11.6875,2.5 C12.03125,2.234375 12.484375,1.859375 13.0625,1.421875 C13.625,0.96875 14.3125,0.359375 15.078125,-0.40625 L15.671875,-1.015625 C15.9375,-1.28125 16.109375,-1.390625 16.390625,-1.421875 C16.71875,-1.453125 16.984375,-1.078125 17.203125,-0.6875 C17.5,-0.171875 17.625,0.4375 17.59375,0.84375 C17.546875,1.46875 17.5,2.015625 17.5,2.5625 C18.4375,2.09375 19.3125,1.609375 20.0625,0.984375 C20.328125,0.765625 20.59375,0.671875 20.859375,0.6875 C21.140625,0.734375 21.421875,1.03125 21.34375,1.46875 C21.265625,1.953125 21.03125,2.234375 20.5,2.5 C19.796875,2.859375 18.671875,3.296875 17.5,3.671875 L17.5,6.671875 C17.859375,7.03125 18.078125,7.265625 18.3125,7.5625 C18.625,7.9375 18.78125,8.28125 18.78125,8.59375 C18.78125,9 18.59375,9.328125 18.1875,9.53125 C17.90625,9.671875 17.703125,9.6875 17.421875,9.6875 C17.421875,10.34375 17.421875,10.8125 17.375,11.28125 C17.28125,12.3125 16.8125,12.796875 15.578125,12.625 C14.859375,12.53125 14.140625,12.234375 13.203125,11.734375 C12.25,11.21875 11.09375,10.484375 10.015625,9.703125 C8.921875,8.921875 7.875,8.078125 7.125,7.328125 C7.125,7.921875 7.125,8.75 7.28125,9.59375 C7.375,10.171875 7.609375,10.578125 8,11.15625 C8.1875,11.453125 8.375,11.6875 8.6875,11.9375 C8.984375,12.171875 9.453125,12.515625 9.875,12.578125 C10.0625,12.59375 10.3125,12.640625 10.625,12.6875 C11.234375,12.796875 12.03125,12.96875 12.921875,13.15625 C13.34375,13.234375 13.8125,13.328125 14.265625,13.421875 C14.71875,13.515625 15.1875,13.609375 15.65625,13.71875 C16.109375,13.8125 16.578125,13.90625 17,14 C17.4375,14.09375 17.859375,14.1875 18.25,14.28125 C18.640625,14.375 18.96875,14.453125 19.28125,14.515625 C20.046875,14.703125 20.265625,15.046875 20.265625,15.390625 C20.265625,15.484375 20.1875,15.59375 20,15.71875 C19.828125,15.828125 19.59375,15.921875 19.28125,15.984375 C18.828125,16.078125 18.484375,15.96875 17.796875,15.625 C17.328125,15.40625 16.5,15.125 15.625,14.890625 C14.734375,14.640625 13.796875,14.40625 13.171875,14.265625 C11.8125,13.984375 10.765625,13.765625 9.9375,13.625 C9.109375,13.46875 8.5,13.390625 8,13.34375 C10.296875,14.328125 12.375,15.265625 14.5,16.34375 C15.109375,16.671875 15.5,16.875 15.78125,17.09375 C16.0625,17.328125 16.21875,17.53125 16.375,17.8125 C16.640625,18.296875 16.53125,18.84375 16.296875,19.171875 C16.0625,19.53125 15.625,19.703125 15.078125,19.703125 C14.546875,19.703125 13.953125,19.484375 12.96875,19.078125 C12.59375,18.9375 11.984375,18.65625 11.328125,18.359375 C11.015625,18.203125 10.703125,18.046875 10.390625,17.90625 C10.09375,17.75 9.84375,17.640625 9.640625,17.546875 C9.125,17.28125 8.640625,17.171875 8.3125,17.203125 C7.953125,17.234375 7.671875,17.421875 7.671875,18 C7.671875,18.3125 7.75,18.625 7.90625,18.9375 Z M16.328125,7.296875 C15.953125,7.03125 15.53125,6.6875 15.15625,6.359375 C14.765625,6.015625 14.40625,5.671875 14.15625,5.421875 C13.828125,5.09375 13.71875,4.921875 13.71875,4.625 C13.71875,4.25 13.90625,4.015625 14.609375,3.78125 C14.890625,3.671875 15.25,3.53125 15.546875,3.390625 C15.859375,3.25 16.125,3.125 16.296875,3.03125 L16.328125,1.46875 C16.34375,0.578125 16.1875,0.515625 15.578125,0.890625 L14.75,1.390625 C14.4375,1.578125 14.140625,1.765625 13.8125,1.96875 C13.1875,2.375 12.578125,2.796875 12.234375,3.125 C11.8125,3.5 11.765625,3.890625 11.765625,4.4375 C11.765625,5.28125 12.265625,6.03125 13.296875,6.875 C13.71875,7.203125 14.296875,7.578125 14.859375,7.90625 C15.421875,8.234375 15.96875,8.484375 16.328125,8.609375 Z M16.28125,4.0625 C16.171875,4.09375 16,4.15625 15.78125,4.234375 C15.546875,4.296875 15.3125,4.390625 15.09375,4.46875 C14.65625,4.640625 14.546875,4.765625 15.03125,5.109375 C15.359375,5.359375 15.84375,5.703125 16.328125,6.078125 Z M6.078125,1.625 C6.078125,0.84375 5.859375,0.78125 5.46875,1.0625 L4.53125,1.703125 C4.25,1.890625 4.15625,2.046875 4.15625,2.234375 C4.15625,2.40625 4.265625,2.59375 4.4375,2.90625 C4.578125,3.140625 4.859375,3.546875 5.171875,3.9375 C5.484375,4.328125 5.8125,4.71875 6.046875,4.921875 Z" transform="translate(-0.0859375, 19.703125) scale(1, -1)"/>
</svg>