<svg height="20.203125" viewBox="0 0 24 20.203125" width="24" xmlns="http://www.w3.org/2000/svg">
<path d="M13.46875,18.984375 C13.0625,18.984375 12.765625,18.875 12.234375,18.71875 C11.546875,18.53125 10.8125,18.4375 10.125,18.484375 C9.4375,18.515625 8.796875,18.671875 8.3125,18.96875 L8.015625,18.578125 C8.953125,17.640625 10.3125,17.28125 11.734375,17.5 C11.578125,17.359375 11.328125,17.1875 11.0625,17.046875 C10.796875,16.890625 10.484375,16.734375 10.25,16.609375 L10.625,16.203125 C12.046875,16.890625 13.234375,17.328125 13.78125,17.40625 C14.125,17.453125 14.65625,17.578125 14.65625,18.046875 C14.65625,18.3125 14.5625,18.453125 14.328125,18.671875 C14.234375,18.765625 14.09375,18.828125 13.921875,18.890625 C13.765625,18.953125 13.578125,18.984375 13.46875,18.984375 Z M8.28125,15.4375 C8.9375,15.15625 9.453125,14.796875 9.390625,14.265625 L9.359375,13.90625 C9.34375,13.765625 9.3125,13.59375 9.265625,13.421875 C8.5625,13.28125 8,13.25 7.46875,13.25 C6.53125,13.25 5.890625,13.5625 5.359375,14.265625 L4.96875,13.921875 C5.46875,12.546875 6.5,12.03125 7.96875,12.1875 C8.234375,12.21875 8.65625,12.265625 9.046875,12.359375 C8.875,11.53125 8.703125,10.671875 8.5625,9.828125 C8.421875,8.984375 8.328125,8.1875 8.3125,7.4375 C7.8125,7.25 7.203125,6.953125 6.65625,6.6875 C6.09375,6.40625 5.59375,6.125 5.3125,5.953125 C4.5625,5.5 3.8125,5 3.390625,4.421875 C3.078125,3.984375 3.140625,3.609375 3.4375,3.3125 C3.6875,3.078125 3.875,2.796875 3.984375,2.46875 C4.140625,2.09375 4.296875,1.65625 4.34375,1.328125 C4.4375,0.625 4.71875,0.4375 5.203125,0.4375 C5.5625,0.4375 6.046875,0.546875 6.546875,0.703125 C7.03125,0.875 7.546875,1.078125 7.96875,1.296875 C8.390625,1.53125 8.78125,1.765625 9.140625,2.046875 C9.5,2.328125 9.8125,2.5625 10.078125,2.765625 C10.296875,2.5625 10.625,2.375 10.90625,2.234375 C11.40625,1.953125 12.234375,1.828125 12.984375,1.828125 C13.65625,1.828125 14.328125,2.046875 14.609375,2.3125 C14.796875,2.484375 14.859375,2.6875 14.859375,2.84375 C14.859375,2.984375 14.796875,3.078125 14.640625,3.171875 C14.515625,3.25 14.421875,3.3125 14.3125,3.546875 C14.21875,3.75 14.09375,4.328125 13.953125,5.046875 C13.828125,5.78125 13.71875,6.671875 13.625,7.515625 C13.671875,7.640625 13.796875,7.9375 13.828125,8.203125 C14.171875,8.234375 14.515625,8.265625 14.90625,8.265625 C15.296875,8.265625 15.65625,8.234375 16.015625,8.1875 C16.890625,8.046875 17.65625,7.703125 18.1875,7.15625 C18.734375,6.625 19.03125,5.890625 19.03125,5.0625 C19.03125,4.578125 18.96875,4.078125 18.78125,3.578125 C18.59375,3.0625 18.296875,2.5625 17.796875,2.09375 C17.328125,1.65625 16.859375,1.3125 16.34375,1.015625 C15.828125,0.734375 15.265625,0.46875 14.59375,0.1875 C13.875,-0.109375 12.9375,-0.40625 11.609375,-0.625 L11.984375,-1.21875 C12.59375,-1.109375 13.09375,-1.015625 13.578125,-0.890625 C14.046875,-0.78125 14.5,-0.65625 15.046875,-0.484375 C16.46875,-0.046875 17.796875,0.453125 18.828125,1.34375 C20.09375,2.421875 20.65625,3.546875 20.65625,5.046875 C20.65625,6.078125 20.234375,6.828125 19.46875,7.578125 C18.671875,8.34375 17.515625,8.828125 16.15625,8.953125 C15.125,9.046875 14.328125,8.984375 13.8125,8.9375 C13.71875,9.203125 13.578125,9.453125 13.34375,9.6875 L12.796875,9.53125 C12.984375,9.3125 13.0625,9.0625 13.015625,8.8125 C12.546875,8.734375 11.890625,8.59375 11.234375,8.421875 C10.578125,8.234375 9.921875,8.015625 9.453125,7.828125 C9.46875,8.71875 9.59375,9.640625 9.78125,10.4375 C9.953125,11.25 10.15625,11.984375 10.328125,12.53125 C10.640625,12.65625 11.09375,12.859375 11.59375,13.09375 C11.84375,13.203125 12.078125,13.328125 12.359375,13.4375 C12.609375,13.5625 12.859375,13.671875 13.109375,13.78125 C13.8125,14.078125 14.640625,14.28125 15.140625,14.28125 C15.796875,14.28125 16.03125,14 16.03125,13.515625 C16.03125,13.109375 15.75,12.6875 14.953125,12.40625 C14.0625,12.125 13.21875,11.984375 12.359375,11.890625 L12.546875,11.375 C13.296875,11.375 14.0625,11.421875 14.765625,11.515625 C15.53125,11.625 16.296875,11.828125 16.71875,12.09375 C17.203125,12.390625 17.59375,12.921875 17.59375,13.484375 C17.59375,13.953125 17.328125,14.34375 16.828125,14.640625 C16.46875,14.859375 15.796875,14.96875 15.09375,14.9375 C14.390625,14.890625 13.578125,14.71875 12.96875,14.546875 C12.84375,14.515625 12.6875,14.46875 12.46875,14.390625 C12.03125,14.234375 11.5625,14.0625 11.09375,13.890625 L10.53125,13.671875 C10.71875,14 10.8125,14.3125 10.8125,14.609375 C10.8125,14.890625 10.71875,15.125 10.515625,15.265625 C10.125,15.59375 9.40625,15.765625 8.609375,15.84375 Z M12.984375,8.046875 C12.765625,7.515625 12.359375,6.8125 11.875,6.140625 C11.390625,5.46875 10.828125,4.8125 10.34375,4.375 C10.109375,4.609375 9.890625,5 9.734375,5.46875 C9.5625,5.921875 9.453125,6.421875 9.4375,6.890625 C9.984375,7.171875 10.65625,7.4375 11.28125,7.625 C11.921875,7.828125 12.53125,7.984375 12.984375,8.046875 Z M13.171875,6.828125 C13.1875,6.40625 13.203125,5.75 13.21875,5.109375 C13.21875,4.484375 13.203125,3.875 13.203125,3.546875 C13.15625,3.21875 13.109375,3.125 12.84375,3.09375 C12.609375,3.0625 12.265625,3.109375 11.90625,3.203125 C11.5625,3.296875 11.203125,3.4375 10.96875,3.625 C11.5,4.1875 11.96875,4.796875 12.34375,5.375 C12.71875,5.9375 13,6.453125 13.171875,6.828125 Z M8.3125,6.4375 C8.34375,5.96875 8.46875,5.40625 8.65625,4.875 C8.859375,4.34375 9.125,3.859375 9.4375,3.53125 C9.203125,3.328125 8.84375,3.09375 8.484375,2.875 C8.125,2.65625 7.75,2.453125 7.421875,2.3125 C7.109375,2.171875 6.734375,2.046875 6.390625,1.96875 C6.046875,1.875 5.71875,1.828125 5.515625,1.828125 C5.1875,1.828125 5.0625,1.921875 4.828125,2.265625 C4.65625,2.5 4.5,2.84375 4.421875,3.296875 C4.375,3.578125 4.421875,3.78125 4.578125,4 C4.75,4.21875 5.015625,4.4375 5.46875,4.8125 C5.8125,5.09375 6.328125,5.40625 6.84375,5.703125 C7.359375,5.984375 7.90625,6.265625 8.3125,6.4375 Z" transform="translate(0.1328125, 18.984375) scale(1, -1)"/>
</svg>