<svg height="19.734375" viewBox="0 0 24 19.734375" width="24" xmlns="http://www.w3.org/2000/svg">
<path d="M15.96875,19.015625 C15.546875,19.015625 15.09375,18.796875 14.734375,18.625 C14.5625,18.546875 14.3125,18.40625 14.078125,18.25 C13.953125,18.171875 13.828125,18.078125 13.71875,18 L13.421875,17.796875 C13.0625,17.515625 12.96875,17.546875 12.875,17.765625 C12.734375,18.03125 12.578125,18.234375 12.296875,18.53125 C12.03125,18.796875 11.8125,18.875 11.46875,18.875 C11.171875,18.875 10.78125,18.59375 10.296875,18.046875 L10.609375,17.6875 C10.953125,17.984375 11.21875,18.03125 11.453125,17.703125 C11.578125,17.53125 11.75,17.234375 11.796875,16.90625 C11.84375,16.5625 11.890625,16.234375 12.03125,16.015625 C12.203125,15.71875 12.40625,15.625 12.71875,15.625 C13.03125,15.625 13.265625,15.96875 13.375,16.28125 C13.4375,16.46875 13.484375,16.609375 13.59375,16.765625 C13.703125,16.90625 13.84375,17.0625 14.0625,17.28125 C14.609375,17.84375 15.078125,18.125 15.4375,18.125 C15.71875,18.125 15.8125,17.765625 15.78125,17.453125 C15.734375,17.125 15.65625,16.671875 15.53125,16.1875 C15.40625,15.6875 15.25,15.171875 15.078125,14.6875 C13.34375,14.453125 11.46875,14.1875 9.765625,13.921875 C8.046875,13.671875 6.515625,13.40625 5.515625,13.21875 C4.484375,13.03125 3.890625,13 3.5,13.109375 C3.09375,13.203125 2.890625,13.46875 2.6875,13.859375 L2.1875,13.484375 C2.515625,12.265625 3.046875,11.6875 3.53125,11.5 C3.90625,11.34375 4.15625,11.375 4.65625,11.546875 C5.21875,11.734375 6.21875,12.046875 7.390625,12.375 C8.5625,12.703125 9.921875,13.0625 11.234375,13.359375 C12.546875,13.640625 13.8125,13.859375 14.796875,13.921875 C14.5625,13.3125 14.234375,12.59375 13.90625,11.9375 C13.578125,11.28125 13.21875,10.671875 12.9375,10.28125 C12.578125,11.015625 11.953125,11.203125 11.3125,11.203125 C10.421875,11.203125 9.359375,10.90625 8.375,10.0625 C7.5,9.3125 7.15625,8.46875 7.15625,7.90625 C7.15625,7.109375 7.515625,6.640625 8.640625,6.640625 C9.359375,6.640625 10.0625,6.859375 10.625,7.109375 C11.1875,7.375 11.609375,7.65625 11.796875,7.828125 C11.6875,7.34375 11.453125,6.75 11.234375,6.390625 C11.09375,6.140625 11.03125,6.046875 10.859375,5.859375 C10.6875,5.671875 10.609375,5.5 10.609375,5.328125 C10.609375,4.96875 10.828125,4.890625 11.265625,4.765625 C11.8125,4.609375 12,4.46875 12,4.109375 C12,3.78125 11.890625,3.453125 11.40625,3.09375 C11.203125,2.9375 10.96875,2.75 10.765625,2.578125 C10.546875,2.40625 10.34375,2.234375 10.25,2.109375 C9.921875,1.734375 9.78125,1.4375 9.78125,0.984375 C9.78125,0.328125 10.390625,-0.140625 11.09375,-0.390625 C11.421875,-0.515625 11.84375,-0.59375 12.25,-0.640625 C12.65625,-0.6875 13.03125,-0.71875 13.34375,-0.71875 C14,-0.71875 14.65625,-0.6875 15.171875,-0.578125 C15.53125,-0.5 15.734375,-0.390625 15.9375,-0.1875 C16.03125,-0.09375 16.0625,0.078125 16.0625,0.21875 C16.046875,0.375 15.984375,0.546875 15.890625,0.625 C15.546875,0.9375 15.140625,0.953125 14.8125,0.828125 C14.546875,0.71875 13.953125,0.625 13.25,0.625 C12.921875,0.625 12.578125,0.640625 12.21875,0.6875 C11.515625,0.765625 10.78125,0.984375 10.78125,1.3125 C10.765625,1.640625 11.109375,1.90625 11.375,2.09375 C11.65625,2.28125 11.96875,2.484375 12.3125,2.6875 L12.796875,2.984375 C13.171875,3.203125 13.375,3.40625 13.5,3.59375 C13.625,3.78125 13.65625,3.96875 13.65625,4.203125 C13.65625,4.71875 13.296875,5.015625 12.78125,5.28125 C12.578125,5.375 12.171875,5.46875 11.84375,5.546875 C11.546875,5.625 11.609375,5.765625 11.859375,6 C12.265625,6.40625 12.75,6.96875 13.078125,7.625 C13.328125,8.109375 13.390625,8.6875 13.34375,9.296875 C13.5625,9.578125 13.78125,9.90625 14,10.296875 C14.46875,11.046875 14.9375,11.890625 15.375,12.75 L16.015625,13.96875 C16.1875,13.984375 16.359375,14 16.53125,14 L17.140625,14 C17.46875,14 18.046875,13.984375 18.671875,13.953125 C19.296875,13.90625 19.984375,13.828125 20.546875,13.71875 C21.046875,13.625 21.421875,13.625 21.640625,13.703125 C21.921875,13.8125 22.078125,13.96875 22.078125,14.28125 C22.078125,14.5625 21.921875,14.828125 21.59375,15.046875 C21.140625,15.359375 20.6875,15.40625 20.15625,15.3125 C19.84375,15.265625 19.46875,15.234375 19.03125,15.203125 C18.59375,15.171875 18.15625,15.109375 17.703125,15.03125 C17.484375,14.984375 17.265625,14.953125 17.0625,14.9375 L16.46875,14.859375 C16.765625,15.515625 16.984375,16.171875 17.109375,16.53125 C17.328125,17.1875 17.328125,17.75 17.203125,18.125 C17.03125,18.640625 16.625,19.015625 15.96875,19.015625 Z M7.78125,18.390625 C7.40625,18.015625 7.15625,17.59375 6.96875,17.203125 C6.78125,16.8125 6.71875,16.453125 6.71875,16.21875 C6.71875,15.734375 6.8125,15.265625 7.03125,14.984375 C7.328125,14.59375 7.53125,14.5 7.765625,14.5 C8,14.5 8.203125,14.59375 8.28125,14.953125 C8.328125,15.078125 8.40625,15.234375 8.5,15.390625 C8.84375,15.890625 9.390625,16.578125 9.84375,17.109375 L9.546875,17.5 C9.421875,17.359375 9.21875,17.140625 8.984375,16.9375 C8.75,16.71875 8.5,16.515625 8.3125,16.375 C8.125,16.21875 8.015625,16.1875 7.953125,16.234375 C7.90625,16.265625 7.90625,16.375 7.90625,16.515625 C7.90625,16.703125 7.90625,16.984375 7.953125,17.296875 C8,17.609375 8.046875,17.953125 8.1875,18.234375 Z M12.03125,9.5 C11.90625,9.234375 11.703125,8.96875 11.421875,8.671875 C10.828125,8.09375 9.734375,7.484375 9,7.484375 C8.65625,7.484375 8.546875,7.703125 8.546875,7.96875 C8.546875,8.46875 8.90625,9 9.3125,9.40625 C9.609375,9.703125 9.96875,9.984375 10.3125,10.1875 C10.65625,10.375 11,10.484375 11.28125,10.484375 C11.75,10.484375 11.984375,10.0625 12.03125,9.5 Z" transform="translate(-0.1328125, 19.015625) scale(1, -1)"/>
</svg>