<svg height="20.25" viewBox="0 0 24 20.25" width="24" xmlns="http://www.w3.org/2000/svg">
<path d="M12.640625,18.171875 C13.078125,17.375 13.734375,16.625 14.578125,16.015625 C15.40625,15.40625 16.4375,14.953125 17.59375,14.765625 C18.171875,14.671875 18.5,14.65625 18.828125,14.734375 C19.1875,14.828125 19.375,15.078125 19.375,15.453125 C19.375,15.640625 19.25,15.875 18.96875,16.0625 C18.734375,16.1875 18.40625,16.1875 17.90625,16.21875 C15.953125,16.328125 14.28125,17.046875 13.203125,18.59375 Z M3.453125,17.515625 C3.734375,16.765625 4.109375,16.15625 4.703125,15.796875 C5.15625,15.515625 5.5625,15.453125 6.296875,15.578125 C6.078125,15 5.875,14.453125 5.703125,13.90625 C5.328125,12.828125 5.03125,11.703125 4.765625,10.4375 C4.515625,9.171875 4.296875,7.71875 4.203125,6.75 C4.109375,5.765625 4.078125,4.90625 4.078125,4.078125 L4.078125,2.84375 C4.078125,2.046875 4.296875,1.21875 4.625,0.890625 C4.921875,0.59375 5.28125,0.671875 5.453125,0.890625 C5.65625,1.15625 5.703125,1.625 5.609375,2.234375 C5.328125,4.578125 5.296875,6.46875 5.515625,8.265625 C5.703125,9.640625 5.9375,10.8125 6.21875,11.84375 C6.515625,12.859375 6.890625,13.734375 7.328125,14.546875 C7.578125,15 7.765625,15.28125 7.953125,15.53125 C8.28125,15.96875 8.375,16.296875 8.09375,16.578125 C7.90625,16.765625 7.78125,16.859375 7.5625,17 C7.25,17.171875 6.96875,17.046875 6.53125,16.828125 C6.140625,16.625 5.65625,16.625 5.203125,16.765625 C4.671875,16.90625 4.21875,17.375 3.9375,17.953125 Z M15.625,10.421875 C13.21875,10.421875 11.453125,9.84375 10.125,8.953125 C9.625,8.609375 9.4375,8.234375 9.4375,7.96875 C9.4375,7.703125 9.515625,7.390625 9.71875,7.15625 C9.8125,7.03125 9.890625,6.921875 9.96875,6.8125 C10.09375,6.578125 10.234375,6.25 10.421875,5.84375 C10.5,5.640625 10.578125,5.421875 10.65625,5.234375 C10.796875,4.859375 11.046875,4.625 11.3125,4.578125 C11.625,4.53125 12.03125,4.5625 12.734375,5.015625 C13.078125,5.234375 13.484375,5.5625 13.828125,5.953125 C14.1875,6.328125 14.5,6.765625 14.734375,7.21875 C15.078125,7.875 15.390625,8.765625 15.484375,9.625 C17.953125,9.59375 19.25,8.5625 19.25,6.390625 C19.25,5.171875 18.78125,3.90625 17.578125,2.65625 C16.359375,1.390625 14.390625,0.171875 11.375,-0.96875 L11.859375,-1.65625 C15.1875,-0.515625 17.421875,0.78125 18.84375,2.140625 C20.25,3.5 20.84375,4.9375 20.84375,6.34375 C20.84375,7.71875 20.234375,8.75 19.296875,9.40625 C18.34375,10.078125 17.03125,10.421875 15.625,10.421875 Z M14.5625,9.578125 C14.421875,8.875 14.15625,8.1875 13.78125,7.578125 C13.5,7.15625 13.140625,6.734375 12.796875,6.4375 C12.453125,6.125 12.109375,5.9375 11.859375,5.9375 C11.46875,5.9375 11.203125,6.15625 11.03125,6.453125 C10.84375,6.734375 10.765625,7.109375 10.765625,7.390625 C10.765625,7.78125 11.21875,8.265625 11.9375,8.6875 C12.640625,9.109375 13.578125,9.453125 14.5625,9.578125 Z" transform="translate(-0.1484375, 18.59375) scale(1, -1)"/>
</svg>