<svg height="21.015625" viewBox="0 0 24 21.015625" width="24" xmlns="http://www.w3.org/2000/svg">
<path d="M9.4375,19.390625 C9.703125,18.984375 9.984375,18.640625 10.34375,18.34375 C10.6875,18.046875 11.109375,17.796875 11.65625,17.59375 C12.046875,17.453125 12,17.375 11.65625,17.28125 C11.34375,17.21875 11,17.109375 10.625,16.96875 C10.25,16.828125 9.78125,16.671875 9.21875,16.484375 L9.484375,16.03125 C10.46875,16.3125 11.140625,16.40625 11.9375,16.46875 C12.203125,16.484375 12.484375,16.515625 12.78125,16.546875 C13.078125,16.578125 13.34375,16.578125 13.5625,16.578125 C14.359375,16.578125 14.734375,16.90625 14.734375,17.375 C14.734375,17.5625 14.65625,17.734375 14.5,17.90625 C14.171875,18.25 13.453125,18.359375 12.890625,18.40625 C12.59375,18.4375 12.3125,18.46875 12.03125,18.5 C11.046875,18.640625 10.375,19.015625 9.875,19.71875 Z M2.8125,13.375 C3.03125,12.890625 3.453125,12.40625 4.078125,12.046875 C4.96875,11.546875 5.703125,11.515625 6.640625,11.84375 C7.296875,12.0625 8.046875,12.34375 8.890625,12.78125 C7.90625,11.703125 6.953125,10.65625 6.015625,9.46875 C5.0625,8.28125 4.140625,6.96875 3.234375,5.421875 C2.859375,4.765625 2.59375,4.296875 2.40625,3.90625 C2.203125,3.5 2.078125,3.171875 1.953125,2.84375 C1.765625,2.28125 1.578125,1.71875 1.578125,0.875 C1.578125,0.484375 1.671875,0.0625 1.8125,-0.171875 C2.03125,-0.578125 2.375,-0.578125 2.546875,-0.125 C2.65625,0.15625 2.71875,0.4375 2.78125,0.734375 C2.875,1.34375 3.015625,1.9375 3.125,2.375 C3.25,2.796875 3.390625,3.21875 3.578125,3.671875 C3.765625,4.109375 4.0625,4.78125 4.484375,5.5 C4.890625,6.203125 5.328125,6.890625 5.765625,7.5625 C5.984375,7.90625 6.21875,8.234375 6.4375,8.59375 C6.875,7.703125 7.53125,7.359375 8.09375,7.390625 C8.265625,7.40625 8.421875,7.421875 8.578125,7.453125 C8.890625,7.515625 9.1875,7.625 9.5,7.765625 C9.640625,7.8125 9.8125,7.890625 9.984375,7.96875 C9.984375,7.640625 9.96875,7.234375 9.96875,6.828125 C9.953125,6.4375 9.921875,6.03125 9.921875,5.703125 L8.21875,4.578125 C7.609375,4.171875 7,3.78125 6.484375,3.453125 C6.171875,3.265625 5.9375,3.15625 5.65625,3.03125 C5.484375,2.9375 5.34375,2.828125 5.234375,2.6875 C5.03125,2.390625 4.828125,1.90625 4.875,1.421875 C4.921875,0.828125 5.3125,0.78125 5.890625,1.15625 C6.171875,1.328125 6.46875,1.5 6.78125,1.671875 C7.390625,2.015625 8.1875,2.421875 8.890625,2.765625 C9.21875,2.9375 9.53125,3.078125 9.78125,3.1875 C9.734375,2.703125 9.71875,2.234375 9.6875,1.828125 L9.625,0.71875 C9.578125,0.09375 9.625,-0.265625 9.796875,-0.484375 C10.03125,-0.796875 10.34375,-0.796875 10.671875,-0.40625 C10.875,-0.1875 10.921875,0.140625 10.96875,0.5 C11,0.734375 10.96875,1.109375 10.921875,1.578125 C10.875,2.109375 10.859375,2.78125 10.859375,3.484375 C11.03125,3.3125 11.21875,3.125 11.390625,2.9375 L12.546875,1.671875 C12.78125,1.4375 13.015625,1.171875 13.28125,0.890625 L13.765625,0.359375 C13.890625,0.234375 14,0.109375 14.09375,-0.03125 C14.359375,-0.40625 14.515625,-0.625 14.734375,-0.875 C15.046875,-1.203125 15.390625,-1.296875 15.625,-1.25 C15.890625,-1.203125 16.21875,-0.96875 16.46875,-0.53125 C16.65625,-0.1875 16.765625,0.40625 16.671875,1.125 C16.546875,2.25 16.515625,3.296875 16.515625,4.28125 C17.8125,4.109375 18.828125,3.59375 20,2.765625 C20.1875,2.609375 20.375,2.484375 20.515625,2.375 C20.65625,2.234375 20.796875,2.109375 20.984375,1.96875 C21.296875,1.703125 21.59375,1.671875 21.828125,1.78125 C22.09375,1.90625 22.296875,2.28125 22.078125,2.6875 C21.78125,3.234375 21.453125,3.5 20.9375,3.828125 C19.515625,4.671875 18.125,5.109375 16.515625,5.265625 C16.484375,5.734375 16.46875,6.296875 16.453125,6.875 C16.4375,7.46875 16.453125,8.0625 16.46875,8.59375 C16.953125,8.84375 17.421875,9.109375 17.90625,9.40625 C18.875,9.96875 19.78125,10.53125 19.953125,10.96875 C20.046875,11.1875 20.046875,11.390625 19.953125,11.5625 C19.8125,11.796875 19.625,11.953125 19.484375,12.046875 C19.125,12.296875 18.671875,12.203125 18.140625,12.03125 C17.609375,11.84375 17.0625,11.671875 16.578125,11.5 C16.625,12.203125 16.671875,12.84375 16.578125,13.390625 C16.5,13.953125 16.328125,14.203125 15.921875,14.203125 C15.375,14.203125 14.796875,13.859375 14.15625,13.171875 L14.3125,12.796875 C15.171875,13.515625 15.453125,13.390625 15.5,12.6875 C15.546875,12.234375 15.53125,11.78125 15.484375,11.1875 C14.015625,10.625 12.40625,9.984375 11.046875,9.40625 C11.09375,11.09375 10.609375,11.984375 9.578125,12.359375 C10.109375,13.015625 10.609375,13.375 11.3125,13.65625 C11.9375,13.90625 12.6875,14.140625 13.5,14.375 C14.3125,14.609375 15.171875,14.84375 15.984375,15.03125 C16.75,15.203125 17.5625,15.28125 18.546875,15.359375 C18.890625,15.40625 19.125,15.453125 19.25,15.53125 C19.359375,15.59375 19.421875,15.71875 19.421875,15.875 C19.421875,16.109375 19.109375,16.34375 18.796875,16.46875 C18.484375,16.59375 18.171875,16.609375 17.859375,16.609375 C17.359375,16.609375 16.8125,16.46875 16.25,16.25 C15.390625,15.921875 14.359375,15.546875 13.25,15.140625 C12.15625,14.75 11,14.34375 9.90625,13.984375 C8.8125,13.625 7.796875,13.296875 6.96875,13.078125 C6.34375,12.90625 5.890625,12.828125 5.53125,12.8125 C5.171875,12.78125 4.875,12.828125 4.578125,12.921875 C4.078125,13.0625 3.578125,13.296875 3.1875,13.71875 Z M9.21875,11.984375 C9.453125,11.890625 9.640625,11.75 9.78125,11.53125 C9.90625,11.3125 9.984375,11 10.03125,10.515625 C10.078125,10.078125 10.09375,9.53125 10.0625,9.09375 C9.078125,8.75 8.421875,8.609375 7.90625,8.609375 C7.40625,8.609375 7.078125,8.796875 6.796875,9.078125 C7.640625,10.203125 8.328125,11.09375 9.21875,11.984375 Z M16.484375,9.5 C16.484375,9.828125 16.484375,10.15625 16.53125,10.53125 C16.828125,10.625 17.140625,10.71875 17.46875,10.8125 C17.796875,10.921875 18.09375,11 18.359375,11.046875 C18.5,11.0625 18.59375,11.046875 18.609375,10.984375 C18.640625,10.90625 18.59375,10.8125 18.4375,10.703125 C17.90625,10.3125 17.109375,9.84375 16.484375,9.5 Z M15.484375,10.28125 C15.484375,9.78125 15.46875,9.453125 15.4375,8.984375 C15.078125,8.765625 14.703125,8.546875 14.28125,8.3125 C13.484375,7.84375 12.671875,7.359375 11.9375,6.921875 C11.5625,6.703125 11.234375,6.515625 10.953125,6.34375 L10.984375,7.296875 C10.984375,7.625 11,8 11.015625,8.40625 C11.71875,8.75 12.53125,9.109375 13.328125,9.4375 C14.109375,9.765625 14.875,10.0625 15.484375,10.28125 Z M10.921875,5.5625 C11.546875,5.953125 12.390625,6.453125 13.203125,6.90625 C14,7.359375 14.8125,7.796875 15.40625,8.109375 C15.40625,7.640625 15.390625,7.15625 15.375,6.65625 L15.34375,5.3125 C13.828125,5.234375 12.25,5.046875 10.875,4.578125 C10.875,4.90625 10.890625,5.234375 10.921875,5.5625 Z M9.828125,4.25 C9.078125,3.96875 8.1875,3.578125 7.28125,3.171875 C7.625,3.4375 8.078125,3.734375 8.546875,4.0625 C9,4.375 9.484375,4.671875 9.875,4.90625 Z M15.359375,4.421875 C15.328125,3.296875 15.34375,2.203125 15.390625,1.171875 C15.421875,0.59375 15.265625,0.40625 14.890625,0.6875 C14.703125,0.828125 14.515625,0.96875 14.328125,1.125 C14.109375,1.28125 13.875,1.46875 13.609375,1.671875 C13.109375,2.09375 12.6875,2.453125 12.328125,2.796875 C11.953125,3.125 11.625,3.453125 11.265625,3.828125 C12.609375,4.296875 13.859375,4.453125 15.359375,4.421875 Z" transform="translate(0.0625, 19.71875) scale(1, -1)"/>
</svg>