<svg height="19.671875" viewBox="0 0 24 19.671875" width="24" xmlns="http://www.w3.org/2000/svg">
<path d="M10.25,18.59375 C10.953125,18.265625 11.171875,17.9375 11.015625,17.375 C10.90625,16.96875 10.625,16.265625 10.328125,15.5625 C10.015625,14.84375 9.65625,14.109375 9.40625,13.671875 C9.3125,13.5 9.203125,13.34375 9.078125,13.203125 C8.984375,13.0625 8.828125,12.84375 8.90625,12.546875 C8.953125,12.359375 9.09375,12.078125 9.3125,11.8125 C9.734375,11.296875 10.234375,12.03125 10.5,12.3125 C10.625,12.453125 10.765625,12.578125 10.90625,12.6875 C11.09375,12.875 11.328125,13.0625 11.53125,13.25 C11.75,13.4375 11.921875,13.609375 12.046875,13.703125 C11.765625,13.15625 11.515625,12.34375 11.515625,11.359375 C11.515625,6.5625 11.515625,3.390625 11.5625,1.78125 C11.28125,1.90625 10.75,2.171875 10.1875,2.46875 C9.625,2.75 9.03125,3.078125 8.5625,3.34375 L8.328125,2.8125 C9.046875,2.328125 9.6875,1.921875 10.15625,1.46875 C10.34375,1.265625 10.578125,1 10.78125,0.734375 C10.96875,0.453125 11.125,0.171875 11.203125,-0.03125 C11.359375,-0.453125 11.515625,-0.640625 11.84375,-0.640625 C12.15625,-0.640625 12.546875,-0.40625 12.71875,0.03125 C12.875,0.390625 12.859375,0.921875 12.828125,1.8125 C12.78125,2.984375 12.75,4.3125 12.734375,5.875 C12.734375,7.421875 12.71875,9.21875 12.71875,11.328125 C12.71875,11.765625 12.8125,12.3125 12.953125,12.78125 C13.09375,13.25 13.265625,13.671875 13.4375,13.90625 C13.671875,14.1875 13.78125,14.453125 13.625,14.6875 C13.5,14.890625 13.296875,15.078125 13.078125,15.171875 C12.671875,15.34375 12.453125,15.25 12.265625,15.078125 C12.03125,14.84375 11.734375,14.5625 11.421875,14.296875 C11.125,14.046875 10.8125,13.78125 10.53125,13.625 C10.703125,13.921875 10.859375,14.234375 11,14.546875 C11.28125,15.1875 11.546875,15.84375 11.765625,16.46875 C11.875,16.78125 11.984375,17.0625 12.078125,17.328125 C12.25,17.84375 12.21875,18.1875 11.859375,18.484375 C11.59375,18.703125 11.109375,18.90625 10.65625,19.03125 Z M17.140625,6.53125 C17.546875,6.671875 17.984375,6.703125 18.359375,6.546875 C19.03125,6.265625 19.4375,5.40625 19.53125,4.375 C19.546875,4.28125 19.546875,4.15625 19.546875,4.015625 C19.546875,3.734375 19.546875,3.453125 19.53125,3.171875 L19.484375,2.796875 C19.453125,2.5625 19.546875,2.40625 19.671875,2.28125 C19.8125,2.140625 19.953125,2.09375 20.0625,2.09375 C20.421875,2.09375 20.78125,2.3125 20.90625,2.765625 C21.03125,3.234375 21.078125,3.84375 21,4.421875 C20.890625,5.234375 20.609375,6.03125 20.234375,6.484375 C19.71875,7.140625 19.0625,7.390625 18.5,7.390625 C18.078125,7.390625 17.421875,7.296875 16.875,6.96875 Z M3.9375,6.125 C3.625,5.9375 3.3125,5.59375 3.03125,5.09375 C2.703125,4.515625 2.609375,3.984375 2.609375,3.1875 C2.609375,2.46875 2.9375,2.015625 3.171875,1.71875 C3.546875,1.265625 4.0625,1.25 4.296875,1.703125 C4.40625,1.90625 4.5,2.046875 4.640625,2.1875 C4.765625,2.3125 4.9375,2.4375 5.1875,2.609375 C5.40625,2.78125 5.703125,2.984375 6.046875,3.234375 C6.390625,3.484375 6.765625,3.734375 7.15625,4.03125 C7.921875,4.59375 8.734375,5.203125 9.34375,5.703125 L9.046875,6.1875 C8.328125,5.734375 7.484375,5.234375 6.6875,4.765625 C5.890625,4.3125 5.15625,3.90625 4.65625,3.671875 C4.109375,3.40625 3.875,3.390625 3.875,3.796875 C3.875,4.390625 3.984375,5.234375 4.328125,5.890625 Z" transform="translate(0.15625, 19.03125) scale(1, -1)"/>
</svg>