<svg height="21.875" viewBox="0 0 24 21.875" width="24" xmlns="http://www.w3.org/2000/svg">
<path d="M10.953125,19.421875 C11.703125,19.125 12.015625,18.796875 11.84375,18.296875 C11.78125,18.125 11.65625,17.859375 11.515625,17.578125 C11.375,17.296875 11.1875,17 11.046875,16.8125 C10.484375,16.84375 9.90625,16.78125 9.359375,16.703125 C8.796875,16.609375 8.28125,16.484375 7.90625,16.34375 C6.96875,16.015625 6.171875,15.5625 5.609375,15.046875 C5.046875,14.515625 4.71875,13.9375 4.71875,13.375 C4.71875,12.4375 5.140625,12.03125 6.03125,11.859375 C6.453125,11.78125 7.03125,11.890625 7.59375,12.09375 C8.15625,12.28125 8.703125,12.59375 9.125,12.875 C10.34375,13.71875 11.140625,14.640625 11.703125,15.484375 C12.078125,15.359375 12.265625,15.125 12.265625,14.640625 C12.265625,13.9375 11.46875,12.546875 10.015625,10.953125 C9.171875,10.015625 8.25,9.046875 7.46875,8.28125 C6.6875,7.5 6.0625,6.921875 5.796875,6.734375 C5.421875,6.5 5.21875,6.34375 5.109375,6.21875 C5,6.078125 5,5.96875 5,5.84375 C5,5.515625 5.0625,5.0625 5.15625,4.875 C5.328125,4.53125 5.546875,4.34375 5.796875,4.34375 C5.9375,4.34375 6.125,4.390625 6.34375,4.65625 C6.53125,4.90625 6.78125,5.203125 7.0625,5.5 C7.578125,6.015625 8.484375,6.6875 9.453125,7.296875 C10.40625,7.90625 11.421875,8.4375 12.140625,8.6875 C12.15625,7.90625 12.140625,6.78125 12.09375,5.5625 C12.03125,4.328125 11.921875,2.953125 11.75,1.671875 C11.5625,0.40625 11.3125,-0.828125 10.96875,-1.765625 L11.453125,-1.96875 C12.390625,-0.546875 12.90625,1.234375 13.078125,2.9375 C13.484375,2.609375 14.171875,2.40625 14.765625,2.40625 C15.140625,2.40625 15.59375,2.4375 16.0625,2.546875 C16.53125,2.640625 17.015625,2.84375 17.46875,3.171875 C17.890625,3.453125 18.265625,3.90625 18.546875,4.453125 C18.8125,5 18.984375,5.671875 18.984375,6.4375 C18.984375,7.28125 18.765625,8.140625 18.140625,8.890625 C17.46875,9.6875 16.328125,10.125 15.140625,10.125 C14.546875,10.125 13.859375,10.015625 13.375,9.875 C13.203125,10.9375 12.71875,11.375 11.859375,11.640625 C12.4375,12.296875 12.921875,12.875 13.25,13.296875 C13.65625,13.828125 13.828125,14.28125 13.828125,14.84375 C13.828125,15.265625 13.625,15.6875 13.34375,15.96875 C13.0625,16.265625 12.6875,16.484375 12.34375,16.5625 C12.453125,16.734375 12.59375,16.90625 12.734375,17.109375 L13.125,17.703125 C13.5,18.3125 13.484375,18.734375 13.15625,19.078125 C12.8125,19.40625 12.171875,19.671875 11.3125,19.90625 Z M10.484375,15.796875 C10.3125,15.5 10.03125,15.109375 9.65625,14.703125 C9.28125,14.28125 8.84375,13.859375 8.359375,13.53125 C7.8125,13.15625 7.453125,12.921875 7.140625,12.78125 C6.8125,12.640625 6.546875,12.59375 6.171875,12.59375 C5.75,12.59375 5.5,12.9375 5.5,13.375 C5.5,13.90625 5.859375,14.359375 6.390625,14.734375 C6.90625,15.109375 7.609375,15.390625 8.3125,15.578125 C9.21875,15.8125 10.015625,15.875 10.484375,15.796875 Z M11.46875,11.1875 C11.703125,11 11.84375,10.8125 11.9375,10.546875 C12.03125,10.296875 12.078125,9.953125 12.125,9.53125 C11.515625,9.3125 11.09375,9.125 10.71875,8.953125 C10.34375,8.78125 10.03125,8.625 9.734375,8.46875 C9.546875,8.375 9.078125,8.09375 8.515625,7.765625 C7.9375,7.4375 7.265625,7.0625 6.6875,6.71875 C7.78125,7.703125 8.6875,8.515625 9.453125,9.234375 C10.234375,9.953125 10.875,10.578125 11.46875,11.1875 Z M13.421875,9.046875 C13.90625,9.21875 14.515625,9.359375 15.140625,9.359375 C15.640625,9.359375 16.25,9.203125 16.671875,8.734375 C17.234375,8.140625 17.46875,7.34375 17.46875,6.453125 C17.46875,5.328125 17.078125,4.484375 16.375,3.890625 C15.78125,3.390625 15.265625,3.296875 14.703125,3.296875 C14.109375,3.296875 13.578125,3.421875 13.25,3.734375 C13.296875,4.34375 13.359375,5.15625 13.40625,6.078125 C13.4375,6.984375 13.453125,7.984375 13.421875,9.046875 Z" transform="translate(0.1484375, 19.90625) scale(1, -1)"/>
</svg>