<svg height="19.78125" viewBox="0 0 24 19.78125" width="24" xmlns="http://www.w3.org/2000/svg">
<path d="M12.640625,18.6875 C12.5,18.6875 12.296875,18.59375 12.109375,18.421875 C11.921875,18.265625 11.75,18.03125 11.65625,17.796875 C11.484375,17.28125 11.421875,16.578125 11.5,15.875 C11.546875,15.453125 11.65625,14.890625 11.78125,14.34375 C11.890625,13.796875 12.03125,13.25 12.140625,12.84375 C11.359375,12.4375 10.4375,11.796875 9.59375,11.046875 C8.734375,10.296875 7.921875,9.4375 7.34375,8.59375 C6.65625,7.59375 6.1875,6.78125 5.859375,6.03125 C5.515625,5.296875 5.296875,4.671875 5.109375,4.0625 C5.171875,4.671875 5.234375,5.1875 5.25,5.75 C5.28125,6.3125 5.28125,6.921875 5.28125,7.671875 C5.28125,8.515625 5.28125,8.984375 5.09375,9.4375 C4.859375,9.96875 4.4375,10.078125 4.0625,10.078125 C4.625,10.734375 5.328125,11.640625 5.96875,12.53125 C6.609375,13.421875 7.203125,14.28125 7.5625,14.84375 C7.984375,15.484375 8.078125,15.953125 7.984375,16.3125 C7.875,16.671875 7.578125,16.90625 7.25,17.0625 C7.0625,17.140625 6.859375,17.234375 6.640625,17.34375 C6.4375,17.4375 6.203125,17.515625 5.953125,17.546875 L5.546875,17.0625 C6.296875,16.71875 6.640625,16.203125 6.3125,15.546875 C5.9375,14.75 5.3125,13.71875 4.671875,12.765625 C4.046875,11.8125 3.390625,10.921875 2.953125,10.4375 C2.78125,10.25 2.65625,10.109375 2.5625,10.03125 L2.328125,9.796875 C2.25,9.71875 2.234375,9.5625 2.265625,9.390625 C2.28125,9.203125 2.34375,9 2.46875,8.859375 C2.703125,8.65625 2.984375,8.59375 3.34375,8.953125 C3.515625,9.125 3.6875,9.25 3.8125,9.28125 C3.9375,9.3125 4.015625,9.25 4.03125,9.078125 C4.046875,8.796875 4.0625,8.515625 4.0625,8.1875 C4.046875,7.546875 4.015625,6.90625 3.984375,6.3125 C3.96875,6 3.953125,5.75 3.9375,5.515625 C3.890625,4.59375 3.84375,3.921875 3.78125,3.375 C3.734375,2.84375 3.65625,2.453125 3.578125,2.140625 C3.4375,1.5625 3.640625,1.046875 4.203125,0.71875 C4.671875,0.421875 5.15625,0.84375 5.28125,1.703125 C5.375,2.203125 5.53125,2.828125 5.71875,3.4375 C5.90625,4.046875 6.125,4.640625 6.296875,5.109375 C6.703125,6.28125 7.25,7.15625 7.90625,8.046875 C8.703125,9.125 9.5625,9.921875 10.359375,10.53125 C11.15625,11.140625 11.890625,11.5625 12.4375,11.84375 C12.984375,10.09375 13.734375,7.984375 14.765625,5.546875 C15.25,4.390625 15.890625,3.21875 16.515625,2.234375 C17.125,1.25 17.75,0.40625 18.21875,-0.078125 C18.453125,-0.34375 18.78125,-0.578125 19.09375,-0.75 C19.390625,-0.9375 19.671875,-1.0625 19.90625,-1.0625 C20.375,-1.0625 20.65625,-0.90625 20.734375,-0.59375 C20.8125,-0.328125 20.65625,0.078125 20.375,0.390625 C20.25,0.546875 20.140625,0.8125 20.078125,1.203125 C20,1.578125 19.9375,2.09375 19.859375,2.765625 C19.71875,3.84375 19.640625,5.09375 19.5625,6.21875 L18.96875,6.3125 C18.96875,5.984375 18.96875,5.609375 18.96875,5.203125 L18.96875,3.90625 C18.96875,2.984375 18.96875,2.015625 18.984375,1.125 C18.578125,1.546875 18.078125,2.25 17.5625,3.0625 C17.046875,3.859375 16.53125,4.765625 16.15625,5.609375 C14.96875,8.1875 14.203125,10.40625 13.65625,12.40625 L14.359375,12.875 C14.859375,13.1875 15.421875,13.515625 15.984375,13.8125 C16.546875,14.09375 17,14.296875 17.328125,14.421875 C17.46875,14.46875 17.625,14.53125 17.75,14.59375 C18.015625,14.703125 18.21875,14.828125 18.359375,15.046875 C18.5,15.234375 18.5625,15.359375 18.578125,15.453125 C18.578125,15.546875 18.546875,15.640625 18.484375,15.78125 C18.34375,16.0625 18.1875,16.21875 17.984375,16.328125 C17.765625,16.421875 17.515625,16.484375 17.1875,16.53125 C16.484375,16.671875 15.765625,16.953125 15.109375,17.28125 C14.453125,17.625 13.859375,18.046875 13.484375,18.4375 C13.21875,18.71875 12.921875,18.6875 12.640625,18.6875 Z M19.671875,17.59375 C20.234375,17.40625 20.40625,17.046875 20.40625,16.5625 C20.40625,16.109375 20.390625,15.734375 20.3125,15.34375 C20.21875,14.953125 20.0625,14.5625 19.78125,14.09375 L20.1875,13.828125 C21.3125,14.71875 21.96875,15.578125 21.96875,16.703125 C21.96875,17.09375 21.734375,17.59375 21.265625,17.8125 C20.90625,17.984375 20.421875,18.0625 19.953125,18.03125 Z M13.390625,13.53125 C13.265625,13.859375 13.109375,14.375 12.921875,15.359375 C12.78125,15.984375 12.734375,16.65625 12.734375,17.09375 C12.734375,17.984375 12.9375,18.078125 13.421875,17.703125 C13.75,17.46875 14.1875,17.125 14.71875,16.796875 C15.25,16.453125 15.875,16.109375 16.53125,15.828125 C16.71875,15.75 16.8125,15.6875 16.84375,15.625 C16.875,15.546875 16.765625,15.453125 16.484375,15.296875 C16.125,15.09375 15.53125,14.75 14.9375,14.421875 C14.328125,14.09375 13.734375,13.765625 13.390625,13.53125 Z" transform="translate(-0.1015625, 18.71875) scale(1, -1)"/>
</svg>