<svg height="20.359375" viewBox="0 0 24 20.359375" width="24" xmlns="http://www.w3.org/2000/svg">
<path d="M10.375,18.84375 C11.109375,18.6875 11.578125,18.5 11.78125,18.1875 C11.96875,17.875 11.890625,17.421875 11.5625,16.71875 C11.296875,16.15625 11.015625,15.59375 10.703125,15.046875 C10.046875,15.03125 9.328125,15.0625 8.65625,15.171875 C7.96875,15.265625 7.328125,15.4375 6.84375,15.71875 L6.453125,15.140625 C7.21875,14.484375 8.515625,14.046875 10.171875,13.953125 C9,11.796875 7.859375,10 6.875,8.640625 C6.453125,8.09375 6.21875,7.71875 6.0625,7.40625 C5.890625,7.09375 5.84375,6.859375 5.84375,6.578125 C5.84375,5.984375 5.90625,5.515625 6.390625,5.515625 C6.796875,5.515625 6.984375,5.890625 7.375,6.546875 C7.5625,6.875 7.71875,7.125 7.890625,7.359375 C8.046875,7.578125 8.21875,7.78125 8.453125,8.015625 C8.828125,8.390625 9.171875,8.484375 9.375,8.34375 C9.59375,8.203125 9.6875,7.859375 9.59375,7.34375 C9.5,6.65625 9.375,5.890625 9.296875,5.140625 C9.203125,4.390625 9.140625,3.65625 9.140625,3.09375 C9.140625,2.4375 9.1875,1.921875 9.421875,1.484375 C9.640625,1.03125 10.03125,0.671875 10.71875,0.34375 C11.1875,0.125 11.90625,-0.125 12.734375,-0.328125 C13.546875,-0.546875 14.46875,-0.734375 15.34375,-0.828125 C15.8125,-0.875 16.4375,-0.90625 17.015625,-0.90625 C17.609375,-0.921875 18.140625,-0.90625 18.5,-0.84375 C18.96875,-0.765625 19.21875,-0.609375 19.34375,-0.421875 C19.484375,-0.25 19.453125,-0.046875 19.34375,0.140625 C19.109375,0.546875 18.5625,0.6875 18.1875,0.625 C17.875,0.578125 17.59375,0.53125 17.3125,0.53125 C16.34375,0.53125 15.234375,0.640625 14.21875,0.78125 C13.203125,0.9375 12.296875,1.15625 11.765625,1.375 C11.265625,1.578125 10.953125,1.78125 10.765625,2.046875 C10.578125,2.328125 10.515625,2.65625 10.515625,3.140625 C10.515625,4.609375 10.71875,6.0625 10.90625,7.28125 C10.984375,7.859375 10.9375,8.28125 10.796875,8.59375 C10.65625,8.890625 10.4375,9.078125 10.15625,9.21875 C9.6875,9.4375 9.03125,9.25 8.515625,8.9375 C9.5,10.671875 10.390625,12.265625 11.375,13.921875 C12.078125,13.9375 12.8125,14 13.46875,14.09375 C14.125,14.1875 14.734375,14.3125 15.171875,14.453125 C15.828125,14.65625 16.28125,14.8125 16.28125,15.265625 C16.28125,15.546875 16.0625,15.71875 15.71875,15.796875 C15.25,15.90625 14.9375,15.84375 14.40625,15.640625 C13.703125,15.375 13.109375,15.234375 12.125,15.140625 L13.34375,17.0625 C13.90625,17.953125 13.765625,18.5 13.15625,18.84375 C12.40625,19.25 11.640625,19.390625 10.65625,19.4375 Z" transform="translate(-0.6640625, 19.4375) scale(1, -1)"/>
</svg>