<svg height="24" viewBox="0 0 24 24" width="24" xmlns="http://www.w3.org/2000/svg">
<path d="M12.125,17.515625 C12.6875,17.421875 13.078125,17.328125 13.3125,17.09375 C13.53125,16.875 13.625,16.5625 13.578125,16.0625 C13.5625,15.703125 13.53125,15.203125 13.515625,14.546875 L13.421875,12.078125 C12.453125,11.359375 11.328125,10.34375 10.0625,9.046875 C9.34375,8.3125 8.546875,7.4375 7.75,6.5 C6.953125,5.546875 6.171875,4.546875 5.421875,3.578125 C5.40625,3.9375 5.390625,4.359375 5.390625,4.859375 C5.390625,5.359375 5.40625,5.890625 5.421875,6.453125 C5.453125,7.578125 5.515625,8.796875 5.59375,9.9375 C6.296875,10.078125 6.921875,10.296875 7.71875,10.625 C8.015625,10.765625 8.421875,11 8.796875,11.28125 C9.15625,11.578125 9.453125,11.953125 9.546875,12.34375 C9.6875,12.9375 9.484375,13.40625 8.9375,13.765625 C8.46875,14.046875 7.875,14.453125 7.4375,14.890625 C7.296875,15.03125 7.109375,15.203125 6.921875,15.34375 C6.75,15.46875 6.578125,15.546875 6.4375,15.546875 C5.90625,15.546875 5.421875,15.171875 5.15625,14.65625 C4.765625,13.90625 4.484375,12.71875 4.390625,10.96875 C4.21875,10.9375 4.015625,10.90625 3.828125,10.90625 C3.609375,10.90625 3.421875,10.9375 3.265625,10.96875 C2.84375,11.078125 2.546875,11.1875 2.15625,11.59375 L1.78125,11.234375 C2.140625,10.578125 2.46875,10.296875 2.90625,10.0625 C3.03125,9.96875 3.3125,9.921875 3.609375,9.875 C3.90625,9.8125 4.203125,9.78125 4.34375,9.796875 C4.25,8.546875 4.15625,7.0625 4.109375,5.6875 C4.078125,4.296875 4.109375,3.015625 4.21875,2.15625 C4.234375,2.015625 4.296875,1.765625 4.34375,1.546875 C4.40625,1.3125 4.484375,1.109375 4.5625,1.015625 C4.796875,0.640625 4.9375,0.59375 5.15625,0.59375 C5.5,0.59375 5.796875,0.890625 5.890625,1.4375 C5.96875,1.921875 6.125,2.5 6.53125,3.21875 C6.859375,3.78125 7.4375,4.625 8.1875,5.578125 C8.9375,6.53125 9.828125,7.59375 10.765625,8.640625 C11.09375,9.03125 11.53125,9.5 11.984375,9.9375 C12.453125,10.375 12.921875,10.796875 13.328125,11.046875 C13.25,10.15625 13.21875,8.828125 13.21875,7.53125 C13.21875,6.21875 13.25,4.96875 13.28125,4.21875 C13.328125,3.4375 13.421875,2.796875 13.6875,2.296875 C13.953125,1.796875 14.390625,1.4375 15.09375,1.21875 C15.625,1.046875 16.34375,0.96875 17.140625,0.921875 C17.921875,0.875 18.75,0.90625 19.53125,0.96875 C20.046875,1 20.46875,1.0625 20.796875,1.1875 C21.109375,1.296875 21.296875,1.46875 21.296875,1.703125 C21.296875,1.90625 21.234375,2.078125 21.125,2.203125 C20.90625,2.46875 20.546875,2.703125 19.96875,2.515625 C19.859375,2.484375 19.765625,2.453125 19.65625,2.4375 C19.4375,2.390625 19.078125,2.328125 18.625,2.28125 C18.15625,2.234375 17.65625,2.203125 17.15625,2.203125 C16.90625,2.203125 16.671875,2.21875 16.46875,2.234375 C15.734375,2.28125 15.296875,2.40625 15.03125,2.6875 C14.75,2.96875 14.65625,3.421875 14.59375,4.171875 C14.5625,4.59375 14.53125,5.171875 14.515625,5.78125 C14.484375,6.390625 14.46875,7.015625 14.46875,7.5625 C14.984375,7.421875 15.578125,7.375 15.890625,7.375 C16.625,7.375 17.234375,7.5 17.75,7.6875 C18.265625,7.875 18.6875,8.140625 19.0625,8.40625 C20.1875,9.25 20.84375,10.296875 20.84375,11.765625 C20.84375,12.53125 20.53125,13.1875 20.046875,13.640625 C19.546875,14.09375 18.859375,14.359375 18.140625,14.359375 C17.34375,14.359375 16.625,14.109375 16.015625,13.78125 C15.546875,13.53125 15.046875,13.21875 14.703125,12.9375 C14.75,13.40625 14.78125,14 14.84375,14.5625 C14.890625,15.140625 14.9375,15.734375 15.03125,16.203125 C15.125,16.75 15.09375,17.09375 14.953125,17.328125 C14.8125,17.578125 14.5625,17.71875 14.203125,17.859375 C14.03125,17.921875 13.71875,17.984375 13.375,18.015625 C13.03125,18.046875 12.671875,18.0625 12.390625,18.046875 Z M7.0625,14.46875 C7.421875,14.046875 7.71875,13.6875 8.046875,13.375 C8.328125,13.078125 8.484375,12.78125 8.359375,12.453125 C8.234375,12.140625 7.96875,11.9375 7.484375,11.6875 C7.296875,11.59375 6.96875,11.46875 6.640625,11.34375 C6.296875,11.234375 5.90625,11.109375 5.609375,11.0625 C5.65625,12.4375 5.890625,13.4375 6.1875,14.09375 C6.296875,14.328125 6.421875,14.53125 6.5625,14.625 C6.703125,14.71875 6.875,14.703125 7.0625,14.46875 Z M17.640625,13.390625 C18.125,13.390625 18.5625,13.234375 18.875,12.9375 C19.171875,12.640625 19.34375,12.21875 19.34375,11.6875 C19.34375,11.28125 19.25,10.8125 19.0625,10.34375 C18.875,9.890625 18.609375,9.46875 18.296875,9.1875 C17.875,8.8125 17.515625,8.59375 17.140625,8.421875 C16.765625,8.265625 16.359375,8.1875 15.890625,8.140625 C15.453125,8.09375 14.90625,8.09375 14.5,8.234375 C14.484375,8.5625 14.5,9.3125 14.53125,10.0625 C14.5625,10.796875 14.609375,11.546875 14.640625,11.90625 C15.875,12.96875 17.015625,13.390625 17.640625,13.390625 Z" transform="translate(0.4609375, 18.0625) scale(1, -1)"/>
</svg>