<svg height="18.40625" viewBox="0 0 24 18.40625" width="24" xmlns="http://www.w3.org/2000/svg">
<path d="M8.375,18.171875 C7.921875,17.703125 7.859375,17.234375 7.96875,16.609375 C8.09375,15.890625 8.546875,14.609375 9.125,13.25 C8.40625,13.0625 7.390625,12.953125 6.3125,12.921875 C5.765625,12.90625 5.171875,12.921875 4.59375,13.03125 C4.015625,13.125 3.46875,13.296875 3.046875,13.578125 L2.734375,12.9375 C3.265625,12.484375 3.84375,12.21875 4.453125,12.0625 C5.0625,11.90625 5.703125,11.84375 6.3125,11.84375 C6.875,11.828125 7.515625,11.859375 8.09375,11.9375 C8.65625,12 9.171875,12.09375 9.546875,12.1875 C9.875,11.4375 10.203125,10.75 10.53125,10.0625 C10.859375,9.359375 11.203125,8.65625 11.609375,7.90625 C9.921875,6.484375 8.765625,5.25 8.0625,4.125 C7.71875,3.578125 7.578125,3.03125 7.578125,2.5 C7.578125,1.953125 7.71875,1.4375 8.1875,1.015625 C8.640625,0.59375 9.34375,0.21875 10.375,0.078125 C11,-0.03125 11.75,-0.0625 12.46875,-0.0625 C13.1875,-0.0625 13.859375,-0.03125 14.328125,0 C14.984375,0.046875 15.421875,0.140625 15.6875,0.28125 C15.9375,0.40625 16.03125,0.59375 16.03125,0.78125 C16.03125,1.015625 15.875,1.3125 15.296875,1.484375 C14.953125,1.59375 14.609375,1.640625 14.15625,1.46875 C13.984375,1.40625 13.609375,1.34375 13.171875,1.296875 C12.734375,1.234375 12.234375,1.203125 11.765625,1.203125 C11.3125,1.203125 10.828125,1.25 10.40625,1.34375 C9.96875,1.4375 9.609375,1.546875 9.40625,1.671875 C8.90625,2 8.6875,2.234375 8.6875,2.734375 C8.6875,3.171875 8.890625,3.703125 9.546875,4.46875 C10.25,5.28125 11.125,6.109375 12.140625,6.9375 L12.53125,6.3125 C12.640625,6.125 12.734375,5.96875 12.828125,5.859375 C13.046875,5.578125 13.375,5.375 13.828125,5.234375 C13.953125,5.1875 14.09375,5.1875 14.25,5.234375 C14.5625,5.296875 14.734375,5.515625 14.640625,5.828125 C14.59375,5.984375 14.46875,6.171875 14.265625,6.40625 C14.015625,6.6875 13.625,7.15625 13.21875,7.765625 C14.484375,8.65625 15.75,9.484375 16.890625,10.15625 C18.03125,10.84375 19.015625,11.375 19.765625,11.6875 L20.421875,11.96875 C20.578125,12.03125 20.734375,12.09375 20.859375,12.140625 C21.28125,12.296875 21.453125,12.578125 21.3125,12.984375 C21.21875,13.296875 20.890625,13.640625 20.421875,13.953125 C19.953125,14.25 19.359375,14.515625 18.734375,14.65625 L18.3125,14.1875 C19.34375,13.765625 19.53125,13.1875 18.78125,12.71875 C16.390625,11.234375 14.375,9.96875 12.671875,8.703125 C11.859375,10.265625 11.3125,11.4375 10.8125,12.53125 C11.65625,12.78125 12.5,13.09375 13.21875,13.390625 C13.9375,13.671875 14.546875,13.953125 14.953125,14.1875 C15.796875,14.65625 16.28125,15.09375 16.28125,15.453125 C16.28125,15.65625 16.203125,15.828125 16.03125,15.96875 C15.859375,16.109375 15.546875,16.21875 15.078125,16.296875 C14.140625,16.453125 13.09375,16.78125 12.171875,17.109375 C11.234375,17.4375 10.4375,17.765625 10.109375,17.953125 C9.65625,18.1875 9.296875,18.3125 9,18.328125 C8.703125,18.34375 8.5,18.296875 8.375,18.171875 Z M10.171875,17.0625 C11.4375,16.46875 12.53125,15.96875 13.703125,15.59375 C14.25,15.421875 14.28125,15.203125 13.765625,14.9375 C12.96875,14.515625 11.75,14 10.375,13.578125 C9.796875,14.953125 9.453125,15.921875 9.3125,16.671875 C9.1875,17.328125 9.3125,17.46875 10.171875,17.0625 Z" transform="translate(-0.09375, 18.34375) scale(1, -1)"/>
</svg>