<svg height="21.84375" viewBox="0 0 24 21.84375" width="24" xmlns="http://www.w3.org/2000/svg">
<path d="M8.90625,19.484375 C9.625,18.828125 10.875,18.21875 12.53125,18.046875 C11.40625,17.8125 9.921875,17.5 8.359375,17.109375 L8.515625,16.5625 C9.234375,16.71875 9.921875,16.859375 10.640625,16.953125 C11.359375,17.046875 12.109375,17.140625 12.984375,17.234375 C13.28125,17.265625 13.609375,17.265625 13.90625,17.265625 C14.234375,17.265625 14.46875,17.28125 14.765625,17.515625 C14.9375,17.65625 15.046875,17.875 15,18.140625 C14.953125,18.390625 14.75,18.640625 14.515625,18.78125 C14.203125,18.96875 13.953125,18.96875 13.484375,18.9375 C12.640625,18.875 11.84375,18.9375 11.234375,19.078125 C10.515625,19.25 9.84375,19.46875 9.1875,19.828125 Z M2.859375,15.296875 C3.390625,14.25 4.34375,13.328125 5.46875,13.203125 C6.171875,13.109375 6.71875,13.3125 7.46875,13.609375 C8.09375,13.859375 9.109375,14.1875 10.15625,14.515625 C11.21875,14.84375 12.328125,15.171875 13.21875,15.359375 C14.78125,15.734375 16.15625,16.0625 17.515625,16.28125 C16.578125,15.796875 15.671875,15.390625 14.734375,15 C14.46875,14.890625 14.234375,14.765625 14.0625,14.65625 C13.71875,14.40625 13.734375,14.15625 13.828125,13.984375 C13.90625,13.796875 14.203125,13.734375 14.4375,13.671875 C14.671875,13.625 15.109375,13.546875 14.84375,13.078125 L14.609375,12.640625 C14.515625,12.5 14.421875,12.359375 14.3125,12.234375 C13.984375,11.828125 14.1875,11.421875 14.453125,11.15625 C14.625,10.984375 14.890625,11.03125 15.171875,11.15625 C15.5,11.296875 15.765625,11.375 16.078125,11.40625 C16.53125,11.453125 17,11.328125 17.46875,11.0625 C17.765625,10.890625 18.046875,10.65625 18.25,10.28125 C18.4375,9.90625 18.546875,9.40625 18.546875,8.703125 C18.546875,7.53125 18.234375,6.53125 17.734375,5.765625 C17.296875,5.109375 16.828125,4.578125 16.078125,4.109375 C16.078125,4.953125 15.875,5.78125 15.453125,6.4375 C14.90625,7.328125 14,7.828125 12.96875,7.921875 C12.921875,8.546875 12.75,9.21875 12.34375,9.78125 C11.953125,10.28125 11.40625,10.515625 10.671875,10.484375 C9.78125,10.453125 9.0625,10.078125 8.359375,9.140625 C7.8125,8.421875 7.578125,7.5625 7.4375,6.578125 C6.78125,6.140625 5.953125,5.5625 5.421875,4.96875 C4.765625,4.21875 4.359375,3.5625 4.328125,2.765625 C4.296875,2.0625 4.578125,1.53125 5.046875,1.171875 C5.5,0.8125 6.15625,0.640625 6.875,0.59375 C8,0.546875 8.90625,0.828125 9.71875,1.203125 C10.421875,1.515625 11,1.921875 11.453125,2.359375 C12.390625,2.3125 13.390625,2.40625 14.375,2.59375 C14.234375,1.9375 13.71875,1.296875 12.828125,0.5 C11.9375,-0.296875 10.90625,-0.921875 9.3125,-1.484375 L9.734375,-2.015625 C11.421875,-1.515625 12.6875,-0.828125 13.859375,0.078125 C14.890625,0.875 15.578125,1.875 15.9375,3 C16.875,3.390625 17.90625,3.96875 18.796875,5 C19.21875,5.46875 19.546875,6.078125 19.78125,6.734375 C20.015625,7.375 20.140625,8.046875 20.140625,8.65625 C20.140625,9.609375 19.875,10.3125 19.46875,10.828125 C19.046875,11.34375 18.484375,11.6875 17.890625,11.890625 C17.1875,12.125 16.421875,12.15625 15.796875,12 C15.578125,11.9375 15.546875,12.03125 15.71875,12.296875 C15.9375,12.609375 16.109375,13.015625 16.25,13.296875 C16.375,13.578125 16.203125,13.8125 15.734375,13.953125 C15.5,14 15.3125,14.078125 15.171875,14.140625 C14.890625,14.25 14.84375,14.4375 15.078125,14.546875 C15.203125,14.609375 15.359375,14.65625 15.546875,14.734375 C15.984375,14.890625 16.625,15.078125 17.234375,15.265625 C17.859375,15.453125 18.484375,15.625 18.921875,15.71875 C19.328125,15.8125 19.578125,15.921875 19.78125,16.109375 C20.046875,16.375 19.953125,16.671875 19.578125,16.953125 C19.3125,17.140625 19.203125,17.203125 18.96875,17.3125 C18.6875,17.421875 18.453125,17.46875 18.1875,17.46875 C17.921875,17.46875 17.609375,17.421875 17.234375,17.28125 C17,17.203125 16.796875,17.140625 16.609375,17.09375 L16.0625,16.90625 C15.734375,16.8125 15.40625,16.71875 15.03125,16.625 C14.21875,16.453125 13.53125,16.296875 12.953125,16.15625 C11.796875,15.875 10.90625,15.65625 10.140625,15.46875 C9.75,15.359375 9.34375,15.265625 8.9375,15.171875 C8.09375,14.96875 7.46875,14.84375 6.984375,14.765625 C6.5,14.703125 6.15625,14.65625 5.859375,14.640625 C5.109375,14.609375 4.515625,14.796875 4.125,14.984375 C3.84375,15.125 3.453125,15.328125 3.1875,15.640625 Z M8.265625,6.9375 C8.28125,7.6875 8.546875,8.328125 8.9375,8.796875 C9.34375,9.25 9.84375,9.515625 10.390625,9.546875 C11.15625,9.59375 11.59375,9.09375 11.640625,7.875 C10.515625,7.796875 9.34375,7.484375 8.265625,6.9375 Z M11.609375,6.84375 C11.53125,5.578125 11.1875,4.25 10.671875,3.359375 C10.015625,3.5625 9.46875,3.828125 9.0625,4.203125 C8.640625,4.59375 8.359375,5.125 8.234375,5.90625 C9.359375,6.46875 10.625,6.84375 11.609375,6.84375 Z M12.96875,6.78125 C13.515625,6.71875 14.015625,6.296875 14.375,5.546875 C14.4375,5.421875 14.484375,5.28125 14.515625,5.140625 C14.59375,4.8125 14.625,4.4375 14.625,4.078125 C14.625,3.890625 14.609375,3.71875 14.59375,3.546875 C14.203125,3.421875 13.734375,3.328125 13.265625,3.265625 C12.796875,3.1875 12.328125,3.15625 11.953125,3.1875 C12.21875,3.625 12.453125,4.234375 12.640625,4.875 C12.828125,5.515625 12.921875,6.203125 12.96875,6.78125 Z M7.53125,5.5625 C7.6875,4.6875 8.046875,4.0625 8.515625,3.59375 C8.984375,3.109375 9.578125,2.796875 10.171875,2.609375 C9.796875,2.234375 9.359375,1.96875 8.65625,1.703125 C8.15625,1.515625 7.625,1.375 6.78125,1.421875 C5.546875,1.5 5,1.921875 5.09375,2.8125 C5.140625,3.34375 5.40625,3.828125 5.9375,4.375 C6.453125,4.921875 7.125,5.328125 7.53125,5.5625 Z" transform="translate(0.5, 19.828125) scale(1, -1)"/>
</svg>