<svg height="19.796875" viewBox="0 0 24 19.796875" width="24" xmlns="http://www.w3.org/2000/svg">
<path d="M8.09375,18.046875 C8.546875,17.6875 9.453125,17.21875 10.578125,17.0625 C11,17 11.609375,16.984375 12.25,17 C12.875,17 13.53125,17.046875 14.046875,17.140625 C13.484375,16.890625 12.96875,16.671875 12.515625,16.484375 C12.0625,16.296875 11.65625,16.109375 11.328125,15.9375 L11.6875,15.5 C12.828125,15.984375 13.75,16.296875 14.796875,16.421875 C15.453125,16.5 15.890625,16.65625 16.125,16.8125 C16.4375,17 16.484375,17.28125 16.484375,17.46875 C16.484375,17.765625 16.328125,18.046875 15.671875,18.3125 C15.40625,18.421875 15.21875,18.5 14.984375,18.546875 C14.765625,18.59375 14.546875,18.5625 14.234375,18.453125 C13.90625,18.359375 13.515625,18.265625 13.109375,18.21875 C12.71875,18.15625 12.3125,18.109375 12,18.09375 C10.671875,18.03125 9.40625,18.125 8.328125,18.5 Z M3.875,13.875 C3.453125,13.375 3.203125,13.015625 3.046875,12.6875 C2.890625,12.34375 2.84375,12.03125 2.84375,11.609375 C2.84375,11.28125 2.921875,11.09375 3.09375,10.875 C3.296875,10.609375 3.828125,10.484375 4.25,10.484375 C4.46875,10.484375 4.765625,10.546875 5.140625,10.65625 C5.5,10.765625 5.984375,10.984375 6.59375,11.3125 C7.96875,12.0625 9.265625,12.578125 10.390625,13.03125 C10.40625,12.8125 10.390625,12.578125 10.375,12.3125 C10.3125,11.78125 10.21875,11.203125 10.09375,10.640625 C10.03125,10.359375 9.96875,10.09375 9.921875,9.84375 C9.875,9.671875 9.828125,9.515625 9.78125,9.390625 C9.71875,9.265625 9.671875,9.125 9.625,9 C9.609375,8.953125 9.59375,8.890625 9.59375,8.8125 C9.59375,8.734375 9.609375,8.640625 9.625,8.546875 C9.65625,8.359375 9.703125,8.15625 9.796875,8.015625 C9.921875,7.828125 10.265625,7.8125 10.53125,8 C10.90625,8.234375 11.15625,8.359375 11.6875,8.546875 C12.3125,8.765625 12.734375,8.8125 13.171875,8.8125 C14.046875,8.8125 14.5,8.25 14.5,7.125 C14.5,6.484375 14.375,5.921875 14.1875,5.453125 C14,4.984375 13.765625,4.59375 13.515625,4.296875 C13.21875,4.359375 12.921875,4.4375 12.59375,4.515625 C12.265625,4.59375 11.90625,4.671875 11.515625,4.734375 C10.765625,4.875 9.859375,5 8.8125,5 C8.328125,5 7.71875,4.953125 7.15625,4.90625 C6.59375,4.859375 6.03125,4.765625 5.640625,4.65625 C4.078125,4.21875 3.375,3.53125 3.453125,2.453125 C3.5,2 3.625,1.515625 4.125,1.109375 C4.375,0.90625 4.75,0.6875 5.265625,0.515625 C5.765625,0.359375 6.40625,0.234375 7.203125,0.234375 C8.515625,0.234375 9.984375,0.5625 11.5,1.21875 C12.25,1.53125 12.8125,1.859375 13.234375,2.171875 C13.65625,2.46875 13.9375,2.734375 14.15625,2.953125 C15.71875,2.296875 16.703125,1.765625 17.234375,1.390625 C17.609375,1.125 17.921875,0.921875 18.25,0.6875 C18.5625,0.453125 18.890625,0.171875 19.328125,-0.21875 C19.578125,-0.4375 19.8125,-0.625 19.984375,-0.75 C20.34375,-1.015625 21.078125,-1.203125 21.34375,-0.546875 C21.4375,-0.3125 21.4375,0.03125 21.140625,0.359375 C20.90625,0.640625 20.453125,1.015625 19.9375,1.390625 C19.40625,1.765625 18.8125,2.140625 18.296875,2.421875 C17.828125,2.671875 17.1875,2.96875 16.578125,3.21875 C15.953125,3.484375 15.34375,3.6875 14.953125,3.828125 C15.1875,4.1875 15.4375,4.671875 15.625,5.203125 C15.8125,5.71875 15.9375,6.265625 15.9375,6.78125 C15.9375,7.4375 15.796875,8 15.40625,8.59375 C15.09375,9.078125 14.5625,9.328125 14.203125,9.484375 C13.75,9.671875 13.328125,9.734375 12.625,9.6875 C12.1875,9.65625 11.65625,9.53125 11.203125,9.390625 C11.34375,10.25 11.4375,10.890625 11.5,11.5 C11.546875,12.109375 11.5625,12.6875 11.5625,13.4375 C12,13.625 12.84375,13.859375 13.78125,14.046875 C14.71875,14.234375 15.765625,14.375 16.65625,14.421875 C17.6875,14.46875 18.546875,14.4375 19.34375,14.015625 C20.140625,13.578125 20.375,13 20.375,12.53125 C20.421875,11.609375 19.90625,10.96875 18.546875,10.875 C17.46875,10.796875 16.703125,10.9375 15.921875,11.09375 L15.796875,10.5625 C16.59375,10.171875 17.609375,9.96875 18.796875,9.96875 C19.59375,9.96875 20.40625,10.203125 21.03125,10.625 C21.640625,11.0625 22.0625,11.6875 22.0625,12.484375 C22.0625,12.984375 21.96875,13.484375 21.5,14 C21.265625,14.28125 20.984375,14.515625 20.578125,14.734375 C20.1875,14.9375 19.671875,15.09375 18.984375,15.1875 C17.765625,15.359375 16.296875,15.34375 14.546875,15 C13.421875,14.78125 12.484375,14.5 11.5,14.15625 C11.359375,14.859375 10.859375,15.34375 9.78125,15.78125 L9.4375,15.359375 C10.109375,15.046875 10.40625,14.4375 10.375,13.78125 C10.0625,13.671875 9.6875,13.546875 9.28125,13.40625 L8,12.96875 C7.09375,12.6875 6.140625,12.375 5.328125,12.140625 C4.3125,11.84375 3.984375,11.984375 3.984375,12.59375 C3.984375,12.890625 4.109375,13.21875 4.34375,13.578125 Z M12.6875,3.390625 C12.21875,2.859375 11.28125,2.3125 10.0625,1.78125 C9.34375,1.46875 8.71875,1.3125 8.15625,1.234375 C7.578125,1.140625 7.0625,1.125 6.53125,1.125 C5.65625,1.125 5.09375,1.25 4.75,1.484375 C4.40625,1.71875 4.28125,2.046875 4.28125,2.453125 C4.28125,2.75 4.484375,3.125 4.875,3.40625 C5.28125,3.703125 5.859375,3.953125 6.6875,4.015625 C7.34375,4.0625 7.859375,4.078125 8.375,4.078125 C8.890625,4.0625 9.375,4.015625 9.9375,3.96875 C10.921875,3.828125 11.984375,3.609375 12.6875,3.390625 Z" transform="translate(-0.453125, 18.59375) scale(1, -1)"/>
</svg>