<svg height="20.3125" viewBox="0 0 24 20.3125" width="24" xmlns="http://www.w3.org/2000/svg">
<path d="M10.28125,18.9375 C11.015625,18.59375 11.140625,17.953125 10.90625,17.375 C10.765625,17.046875 10.265625,16.484375 9.671875,15.875 C9.0625,15.265625 8.359375,14.609375 7.78125,14.09375 C7.640625,13.953125 7.4375,13.8125 7.25,13.6875 C7.046875,13.546875 6.859375,13.4375 6.71875,13.375 C6.453125,13.25 6.09375,12.96875 6,12.640625 C5.90625,12.328125 5.90625,12.109375 5.90625,11.796875 C5.90625,11.640625 6,11.5 6.171875,11.453125 C6.328125,11.390625 6.546875,11.421875 6.875,11.5625 C7.109375,11.703125 7.421875,11.84375 7.765625,11.984375 C8.125,12.140625 8.53125,12.3125 9,12.53125 C9.875,12.921875 10.921875,13.328125 11.90625,13.6875 C12.875,14.046875 13.765625,14.359375 14.328125,14.546875 C14.515625,14.609375 14.625,14.65625 14.671875,14.625 C14.71875,14.609375 14.671875,14.53125 14.5625,14.40625 C13.90625,13.578125 12.984375,12.5 12.109375,11.5 C11.21875,10.5 10.390625,9.5625 9.875,9 C9.078125,9.59375 8.09375,9.734375 6.875,9.3125 L6.96875,8.84375 C7.8125,9.015625 8.609375,8.703125 9.078125,8.046875 C8.421875,7.203125 7.578125,6.265625 6.6875,5.328125 C5.796875,4.390625 4.8125,3.46875 3.921875,2.6875 L4.296875,4.71875 L3.875,4.953125 C3.78125,4.671875 3.65625,4.3125 3.515625,3.9375 C3.375,3.5625 3.21875,3.171875 3.078125,2.890625 C2.84375,2.40625 2.6875,2.109375 2.5,1.921875 C2.234375,1.65625 2.203125,1.390625 2.28125,1.203125 C2.421875,0.828125 2.703125,0.78125 2.953125,0.734375 C3.40625,0.6875 3.8125,0.875 4.125,1.203125 C5.140625,2.21875 6.203125,3.359375 7.15625,4.453125 C8.09375,5.53125 8.984375,6.546875 9.640625,7.34375 C9.78125,7.0625 9.90625,6.65625 10,6.21875 C10.078125,5.765625 10.140625,5.28125 10.171875,4.90625 C10.203125,4.484375 10.25,4.265625 10.34375,4.09375 C10.421875,3.921875 10.515625,3.828125 10.65625,3.71875 C10.765625,3.640625 10.890625,3.578125 11.046875,3.5 C11.34375,3.34375 11.6875,3.21875 12.015625,3.40625 C12.328125,3.59375 12.59375,3.859375 12.796875,4.046875 L13.171875,4.375 C14.296875,5.3125 15.453125,5.953125 16.78125,5.953125 C17.8125,5.953125 18.359375,5.328125 18.359375,4.0625 C18.359375,3.171875 17.828125,2.375 16.921875,1.625 C15.984375,0.828125 14.703125,0.171875 13.0625,-0.484375 L13.4375,-1.03125 C15.234375,-0.40625 16.875,0.265625 18.09375,1.109375 C19.3125,1.953125 20.0625,2.90625 20.0625,4.078125 C20.0625,4.96875 19.734375,5.640625 19.1875,6.078125 C18.625,6.5 17.84375,6.71875 16.953125,6.71875 C16.109375,6.71875 15.265625,6.546875 14.46875,6.28125 C13.671875,6 12.921875,5.625 12.265625,5.203125 C11.796875,4.890625 11.671875,4.921875 11.5625,5.421875 C11.46875,5.953125 11.328125,6.5 11.171875,7.015625 C11,7.515625 10.796875,7.96875 10.515625,8.328125 C11.3125,9.234375 12.34375,10.328125 13.390625,11.34375 C14.421875,12.359375 15.46875,13.328125 16.34375,14.015625 C16.8125,14.375 17.078125,14.71875 16.953125,15.09375 C16.8125,15.453125 16.53125,15.734375 16.203125,15.890625 C15.765625,16.078125 15.453125,16 15.21875,15.875 C15.015625,15.765625 14.84375,15.6875 14.671875,15.609375 C14.578125,15.578125 14.46875,15.53125 14.375,15.5 C14.265625,15.453125 14.125,15.40625 13.96875,15.34375 C13.125,15.03125 12.203125,14.703125 11.296875,14.40625 C10.390625,14.109375 9.546875,13.859375 8.84375,13.671875 C9.484375,14.25 10.015625,14.75 10.5,15.234375 C10.96875,15.703125 11.390625,16.15625 11.8125,16.625 C12.1875,17.0625 12.359375,17.421875 12.375,17.734375 C12.40625,18.03125 12.28125,18.296875 12.09375,18.53125 C11.828125,18.875 11.375,19.109375 10.765625,19.28125 Z" transform="translate(0.8671875, 19.28125) scale(1, -1)"/>
</svg>