<svg height="20.234375" viewBox="0 0 24 20.234375" width="24" xmlns="http://www.w3.org/2000/svg">
<path d="M6.359375,18.84375 C6.59375,18.3125 6.890625,17.796875 7.34375,17.34375 C7.8125,16.875 8.40625,16.484375 9.171875,16.203125 C8.5625,16.0625 7.625,15.875 6.640625,15.625 L6.890625,15.21875 C7.546875,15.296875 8.078125,15.328125 8.546875,15.328125 C9.015625,15.328125 9.40625,15.28125 9.828125,15.1875 C10.015625,15.140625 10.21875,15.078125 10.578125,15.078125 C10.8125,15.078125 10.953125,15.140625 11.140625,15.34375 C11.359375,15.5625 11.421875,15.875 11.328125,16.15625 C11.1875,16.671875 10.828125,16.90625 10.484375,17 C10.15625,17.046875 9.734375,17.203125 9.3125,17.359375 C8.90625,17.515625 8.53125,17.6875 8.328125,17.8125 C7.53125,18.3125 7.03125,18.734375 6.734375,19.203125 Z M4.4375,13.828125 C4.15625,13.6875 3.921875,13.453125 3.75,13.1875 C3.5625,12.90625 3.453125,12.59375 3.453125,12.3125 C3.453125,12 3.59375,11.5625 3.84375,11.328125 C4.234375,10.96875 4.625,10.875 5.28125,10.875 C5.46875,10.875 5.75,10.90625 6.03125,10.953125 C6.3125,10.984375 6.59375,11.03125 6.796875,11.109375 L7.515625,11.359375 C7.828125,11.46875 8,11.375 8,11.109375 L8,8.734375 C7.0625,7.96875 6.09375,7.03125 5.0625,5.90625 C4.765625,5.578125 4.484375,5.265625 4.203125,4.96875 C3.9375,4.671875 3.703125,4.421875 3.53125,4.203125 C3.21875,3.828125 3.171875,3.546875 3.171875,3.359375 C3.171875,3.265625 3.21875,3.171875 3.3125,3.078125 C3.421875,3 3.59375,2.890625 3.84375,2.796875 C4.046875,2.703125 4.296875,2.59375 4.578125,2.453125 C4.859375,2.296875 5.140625,2.171875 5.375,2.046875 C5.609375,1.9375 5.921875,1.78125 6.25,1.609375 C6.578125,1.421875 6.90625,1.21875 7.171875,1.03125 C7.421875,0.859375 7.703125,0.828125 7.921875,0.828125 C8.28125,0.828125 8.671875,1.15625 9.046875,1.90625 C9.3125,2.421875 9.390625,3.125 9.34375,3.578125 C9.3125,3.875 9.296875,4.28125 9.265625,4.671875 C9.25,5.078125 9.234375,5.46875 9.234375,5.796875 C9.234375,6.171875 9.21875,6.640625 9.21875,7.125 C9.203125,7.359375 9.203125,7.59375 9.203125,7.828125 C9.203125,8.046875 9.203125,8.28125 9.21875,8.46875 C10.375,9.875 11.546875,11.0625 12.9375,12.40625 C14.109375,13.53125 14.984375,14.34375 15.828125,14.953125 C15.96875,15.0625 16.125,15.171875 16.296875,15.296875 C16.640625,15.53125 17.109375,15.59375 17.296875,15.359375 C17.46875,15.140625 17.46875,14.828125 17.46875,14.65625 C17.46875,14.5625 17.46875,14.46875 17.453125,14.390625 C17.4375,14.203125 17.40625,14 17.359375,13.703125 C17.328125,13.46875 17.234375,13.0625 17.09375,12.625 C16.96875,12.1875 16.828125,11.75 16.703125,11.421875 C16.515625,10.953125 16.609375,10.6875 16.953125,10.578125 C17.046875,10.546875 17.140625,10.515625 17.265625,10.484375 C17.375,10.4375 17.5,10.390625 17.609375,10.34375 C17.84375,10.25 18.078125,10.15625 18.234375,10.0625 C18.703125,9.765625 19.0625,9.40625 19.3125,8.9375 C19.546875,8.46875 19.671875,7.890625 19.671875,7.125 C19.671875,6.140625 19.28125,5 18.4375,3.96875 C18.03125,3.453125 17.453125,2.921875 16.796875,2.40625 C16.125,1.890625 15.375,1.390625 14.65625,0.984375 C14.328125,0.796875 13.859375,0.546875 13.328125,0.296875 C12.796875,0.03125 12.203125,-0.25 11.640625,-0.484375 L12.078125,-1.03125 C12.546875,-0.875 13.171875,-0.640625 13.78125,-0.359375 C14.390625,-0.078125 15.015625,0.21875 15.53125,0.5 C16.265625,0.890625 17.046875,1.390625 17.75,1.90625 C18.453125,2.40625 19.109375,2.9375 19.609375,3.4375 C20.6875,4.515625 21.296875,5.84375 21.296875,7.171875 C21.296875,8.390625 20.921875,9.40625 19.859375,10.109375 C19.109375,10.609375 18.3125,10.90625 17.703125,11.046875 C17.484375,11.09375 17.4375,11.21875 17.609375,11.5 C17.84375,11.859375 18.0625,12.328125 18.28125,12.8125 C18.5,13.28125 18.71875,13.765625 18.875,14.15625 C19.15625,14.859375 19.078125,15.265625 18.9375,15.546875 C18.796875,15.84375 18.40625,16.171875 18.21875,16.328125 C17.9375,16.546875 17.640625,16.5625 17.3125,16.5625 C17.09375,16.5625 16.796875,16.46875 16.4375,16.296875 C16.078125,16.109375 15.625,15.78125 15.046875,15.296875 C14.109375,14.5 13.125,13.578125 12.046875,12.546875 C11.109375,11.65625 10.125,10.671875 9.1875,9.734375 L9.234375,10.703125 C9.25,10.84375 9.25,10.953125 9.265625,11.046875 C9.265625,11.234375 9.3125,11.34375 9.359375,11.453125 C9.359375,11.5 9.390625,11.5625 9.40625,11.609375 C9.59375,12.078125 9.59375,12.265625 9.359375,12.484375 C9.1875,12.65625 9.046875,12.78125 8.859375,12.875 C8.53125,13.015625 8.28125,13.046875 8.109375,12.921875 C7.765625,12.6875 7.46875,12.5625 7.171875,12.4375 C6.46875,12.140625 5.984375,11.984375 5.375,12.03125 C4.625,12.078125 4.421875,12.21875 4.46875,12.78125 C4.5,13.109375 4.609375,13.34375 4.859375,13.609375 Z M8,3 C8,2.421875 7.71875,2.25 7.21875,2.375 C6.453125,2.5625 5.828125,2.703125 5.234375,2.953125 C4.703125,3.171875 4.65625,3.484375 4.96875,3.9375 C5.1875,4.265625 5.4375,4.59375 5.703125,4.90625 C6.21875,5.546875 6.78125,6.125 7.296875,6.671875 C7.53125,6.9375 7.765625,7.1875 8,7.421875 Z" transform="translate(-0.234375, 19.203125) scale(1, -1)"/>
</svg>