<svg height="24" viewBox="0 0 24 24" width="24" xmlns="http://www.w3.org/2000/svg">
<path d="M12.484375,17.40625 C13.03125,17.265625 13.390625,17.109375 13.625,16.875 C13.859375,16.640625 13.921875,16.3125 13.875,15.796875 C13.828125,15.25 13.765625,14.515625 13.71875,13.671875 C13.671875,13.234375 13.65625,12.78125 13.625,12.3125 L13.515625,10.90625 C12.140625,10.109375 10.609375,9.03125 9.1875,7.8125 C8.421875,7.140625 7.65625,6.40625 6.859375,5.609375 C6.0625,4.8125 5.375,4 4.71875,3.140625 C4.671875,3.578125 4.609375,4.15625 4.5625,4.78125 C4.515625,5.390625 4.484375,6.078125 4.484375,6.6875 L4.484375,7.578125 C4.484375,7.90625 4.5,8.265625 4.515625,8.625 C4.53125,9.359375 4.546875,10.125 4.625,10.71875 C4.6875,11.28125 4.8125,12.171875 5,13.203125 C5.1875,14.234375 5.421875,15.4375 5.796875,16.65625 L5.1875,16.875 C4.984375,16.4375 4.796875,15.96875 4.609375,15.4375 C4.234375,14.375 3.90625,13.1875 3.640625,11.90625 C3.390625,10.625 3.28125,9.453125 3.234375,8.75 C3.171875,8.046875 3.140625,7.375 3.140625,6.625 C3.140625,6.25 3.15625,5.8125 3.171875,5.328125 C3.171875,4.578125 3.21875,3.78125 3.3125,3.078125 C3.40625,2.375 3.5625,1.71875 3.796875,1.203125 C4.03125,0.671875 4.34375,0.40625 4.671875,0.40625 C4.921875,0.40625 5.234375,0.59375 5.3125,0.984375 C5.359375,1.25 5.390625,1.421875 5.515625,1.65625 C5.65625,1.9375 5.890625,2.328125 6.125,2.71875 C6.375,3.125 6.65625,3.53125 6.9375,3.921875 C7.1875,4.25 7.578125,4.75 8.0625,5.3125 C8.546875,5.859375 9.125,6.453125 9.734375,7.03125 C10.8125,8.03125 11.9375,8.953125 13.4375,9.84375 C13.390625,8.921875 13.359375,8 13.34375,7.203125 C13.3125,6.40625 13.296875,5.703125 13.328125,5.1875 C13.375,4.203125 13.484375,3.5 13.65625,2.96875 C13.828125,2.421875 14.09375,2.046875 14.453125,1.71875 C15.15625,1.125 16.296875,0.90625 17.65625,0.828125 C17.90625,0.8125 18.1875,0.796875 18.5,0.8125 C19.109375,0.828125 19.703125,0.875 20.21875,0.921875 C20.734375,0.984375 21.359375,1.125 21.78125,1.375 C21.96875,1.5 22.078125,1.65625 22.078125,1.859375 C22.078125,2.265625 21.859375,2.46875 21.5,2.5625 C21.15625,2.65625 20.6875,2.609375 20.234375,2.46875 C19.671875,2.328125 19.0625,2.234375 18.421875,2.1875 C17.796875,2.140625 17.15625,2.140625 16.625,2.234375 C15.921875,2.328125 15.4375,2.515625 15.125,2.984375 C14.796875,3.453125 14.65625,4.203125 14.65625,5.375 C14.65625,5.984375 14.671875,6.78125 14.71875,7.671875 C14.75,8.5625 14.796875,9.5625 14.859375,10.5625 C15.40625,10.875 15.96875,11.140625 16.515625,11.359375 C16.65625,11.421875 16.8125,11.46875 16.984375,11.53125 C17.15625,11.59375 17.328125,11.640625 17.484375,11.703125 C17.640625,11.75 17.796875,11.796875 17.9375,11.84375 C18.0625,11.875 18.171875,11.90625 18.234375,11.9375 C18.671875,12.0625 19.03125,12.171875 19.28125,12.296875 C19.53125,12.421875 19.65625,12.59375 19.65625,12.828125 C19.65625,12.984375 19.5625,13.125 19.359375,13.25 C18.96875,13.46875 18.515625,13.5625 18.15625,13.53125 C17.78125,13.484375 17.515625,13.203125 17.296875,13.03125 C17.1875,12.953125 17.078125,12.875 16.96875,12.796875 C16.859375,12.734375 16.71875,12.640625 16.5625,12.546875 C16.390625,12.4375 16.21875,12.328125 16.046875,12.21875 C15.6875,11.984375 15.28125,11.75 14.90625,11.5625 C15.03125,13.3125 15.171875,14.859375 15.3125,15.84375 C15.375,16.328125 15.40625,16.671875 15.328125,16.953125 C15.234375,17.234375 15.046875,17.421875 14.6875,17.59375 C14.234375,17.8125 13.609375,17.890625 12.796875,17.9375 Z M5.59375,12.390625 C5.78125,12.078125 6.125,11.796875 6.53125,11.609375 C6.9375,11.40625 7.40625,11.28125 7.875,11.28125 C8.71875,11.28125 9.5,11.328125 10.34375,11.796875 C11.046875,12.171875 11.265625,12.53125 11.265625,13.015625 C11.265625,13.390625 10.796875,13.703125 9.875,13.921875 L9.546875,13.5625 C10.078125,13.328125 10.0625,13.15625 9.6875,12.875 C9.515625,12.734375 9.21875,12.625 8.890625,12.546875 C8.5625,12.453125 8.203125,12.40625 7.875,12.40625 C7.046875,12.40625 6.359375,12.546875 5.859375,12.828125 Z" transform="translate(-0.609375, 17.9375) scale(1, -1)"/>
</svg>