<svg height="19.875" viewBox="0 0 24 19.875" width="24" xmlns="http://www.w3.org/2000/svg">
<path d="M9.140625,14.328125 C9.9375,13.671875 11.265625,13.296875 12.921875,13.21875 C12.90625,12.75 12.890625,12.21875 12.859375,11.59375 C12.78125,10.359375 12.6875,9.03125 12.59375,7.765625 C12.546875,7.125 12.5,6.546875 12.453125,6.046875 C12.421875,5.734375 12.390625,5.421875 12.34375,5.1875 C12.3125,5.046875 12.296875,4.71875 12.296875,4.390625 C12.296875,4.203125 12.359375,4 12.46875,3.78125 C12.578125,3.578125 12.703125,3.375 12.84375,3.234375 C13.265625,2.796875 13.875,3.3125 13.921875,4.015625 C13.9375,4.109375 13.9375,4.234375 13.953125,4.34375 C13.953125,4.4375 13.953125,4.578125 13.96875,4.703125 C14,4.953125 14.03125,5.28125 14.140625,5.703125 C14.234375,6.125 14.453125,6.484375 14.703125,6.796875 C14.96875,7.109375 15.234375,7.375 15.5,7.5625 C16.15625,8.015625 16.859375,8.359375 17.703125,8.359375 C18.3125,8.359375 18.8125,8.1875 19.21875,7.71875 C19.625,7.265625 19.90625,6.59375 19.90625,5.46875 C19.90625,3.96875 19.109375,2.859375 17.640625,1.828125 C17.046875,1.40625 16.171875,0.921875 15.234375,0.5 C14.296875,0.078125 13.296875,-0.3125 12.40625,-0.546875 L12.734375,-1.078125 C13.6875,-0.890625 14.734375,-0.59375 15.6875,-0.265625 C16.625,0.078125 17.515625,0.453125 18.1875,0.828125 C20.359375,2 21.390625,3.46875 21.390625,5.46875 C21.390625,6.59375 20.9375,7.46875 20.40625,8.046875 C19.65625,8.84375 18.796875,9.171875 17.859375,9.171875 C17.015625,9.171875 15.984375,8.9375 15.140625,8.421875 C15.03125,8.375 14.921875,8.296875 14.796875,8.21875 C14.65625,8.140625 14.515625,8.046875 14.390625,7.953125 C14.109375,7.75 13.84375,7.484375 13.65625,7.203125 C13.75,8.234375 13.84375,9.421875 13.9375,10.515625 C14.015625,11.609375 14.09375,12.609375 14.140625,13.28125 C14.578125,13.296875 15.03125,13.34375 15.453125,13.390625 C16.34375,13.46875 16.875,13.578125 17.40625,13.71875 C17.921875,13.859375 18.375,14.03125 18.71875,14.1875 C19.046875,14.328125 19.34375,14.5 19.40625,14.734375 C19.46875,14.953125 19.4375,15.15625 19.25,15.296875 C19.0625,15.4375 18.8125,15.453125 18.453125,15.5 C18.078125,15.53125 17.84375,15.375 17.546875,15.25 L17.0625,15.03125 C16.71875,14.890625 16.359375,14.75 16.03125,14.65625 C15.375,14.46875 14.796875,14.390625 14.234375,14.359375 C14.265625,14.625 14.28125,14.828125 14.3125,15.0625 C14.328125,15.28125 14.375,15.515625 14.421875,15.84375 C14.515625,16.21875 14.546875,16.421875 14.640625,16.765625 C14.75,17.125 14.65625,17.46875 14.46875,17.6875 C14.15625,18.078125 13.78125,18.375 13.03125,18.59375 C12.6875,18.6875 12.140625,18.796875 11.765625,18.796875 L11.515625,18.359375 C11.8125,18.28125 12.234375,18.09375 12.5,17.90625 C12.734375,17.75 12.859375,17.609375 12.921875,17.4375 C13,17.25 13.015625,17.0625 13.03125,16.78125 C13.078125,15.796875 13.0625,14.890625 12.984375,14.234375 C11.34375,14.1875 10.296875,14.40625 9.390625,14.84375 Z M3.671875,17.796875 C4.28125,17.359375 4.578125,16.8125 4.578125,16.015625 C4.578125,15.8125 4.5625,15.59375 4.515625,15.265625 C4.46875,14.9375 4.390625,14.515625 4.28125,13.921875 C3.921875,12.125 3.703125,10.734375 3.578125,9.5625 C3.4375,8.390625 3.390625,7.4375 3.390625,6.5 C3.390625,5.140625 3.515625,3.984375 3.734375,2.859375 C3.96875,1.78125 4.265625,1.15625 4.4375,0.84375 C4.625,0.484375 4.921875,0.390625 5.0625,0.390625 C5.46875,0.390625 5.796875,0.640625 5.765625,1.296875 C5.75,1.734375 5.765625,2.15625 5.84375,2.59375 C5.96875,3.453125 6.296875,4.484375 6.78125,5.890625 C7.015625,6.59375 7.296875,7.4375 7.625,8.421875 L7.171875,8.84375 C6.5625,7.34375 6.09375,6.265625 5.71875,5.390625 C5.34375,4.53125 5.046875,3.875 4.765625,3.296875 C4.375,4.703125 4.296875,6.171875 4.484375,8.046875 C4.671875,9.921875 5.234375,12.078125 6,14.765625 C6.25,15.609375 6.203125,16.203125 5.984375,16.703125 C5.75,17.203125 5.234375,17.640625 4.078125,18.21875 Z" transform="translate(-0.390625, 18.796875) scale(1, -1)"/>
</svg>