<svg height="20.296875" viewBox="0 0 24 20.296875" width="24" xmlns="http://www.w3.org/2000/svg">
<path d="M11.015625,19.21875 C11.765625,18.8125 12.1875,18.453125 12.359375,18.125 C12.515625,17.8125 12.4375,17.5625 12.21875,17.375 C11.65625,16.90625 11.015625,16.515625 10.171875,16.15625 C9.3125,15.78125 8.9375,15.3125 8.984375,14.90625 C9.015625,14.515625 9.21875,14.234375 9.546875,13.78125 C9.890625,13.328125 10.109375,12.890625 10.15625,12.140625 C10.1875,11.59375 10.078125,10.953125 9.890625,10.25 C9.8125,10.328125 9.71875,10.40625 9.59375,10.484375 C9.34375,10.625 9.0625,10.765625 8.75,10.90625 C8.578125,10.953125 8.40625,11.03125 8.234375,11.109375 C7.765625,11.296875 7.484375,11.5625 7.296875,11.84375 C7.15625,12.078125 7.125,12.265625 7.203125,12.5 C7.265625,12.734375 7.4375,12.984375 7.71875,13.328125 L7.34375,13.609375 C6.5625,13.015625 6.3125,12.46875 6.34375,11.734375 C6.359375,11.3125 6.625,10.859375 7.015625,10.453125 C7.390625,10.0625 7.953125,9.71875 8.515625,9.53125 C8.09375,9.359375 7.640625,9.09375 7.296875,8.75 C6.96875,8.390625 6.71875,7.953125 6.71875,7.484375 C6.71875,6.96875 6.859375,6.484375 7.203125,6.015625 C7.5625,5.546875 8.09375,5.109375 8.9375,4.71875 C8.875,4.109375 8.84375,3.5625 8.890625,3.0625 C8.921875,2.546875 8.984375,2.0625 9.125,1.5625 C9.296875,0.90625 9.6875,0.34375 10.25,-0.0625 C10.8125,-0.453125 11.578125,-0.6875 12.5,-0.6875 C13.671875,-0.6875 14.96875,-0.453125 16.015625,0.078125 C16.484375,0.3125 17.015625,0.640625 17.515625,1.03125 C18.03125,1.4375 18.484375,1.875 18.84375,2.375 C19.46875,3.234375 19.875,4.265625 19.875,5.6875 C19.875,7.78125 18.421875,9.75 15.546875,11.5 L15.140625,11.046875 C17.5,9.296875 18.59375,7.59375 18.59375,5.703125 C18.59375,4.953125 18.40625,4.375 18.046875,3.71875 C17.8125,3.296875 17.421875,2.8125 17,2.390625 C16.578125,1.96875 16.109375,1.578125 15.71875,1.34375 C14.78125,0.78125 13.625,0.34375 12.6875,0.34375 C11.875,0.34375 11.265625,0.5 10.859375,0.78125 C10.046875,1.375 9.90625,2.34375 9.90625,3.125 C9.90625,3.515625 9.9375,3.953125 10.015625,4.421875 C11.046875,4.171875 12.09375,4.15625 13.21875,4.296875 C13.78125,4.390625 14.109375,4.46875 14.359375,4.703125 C14.671875,5.015625 14.65625,5.40625 14.15625,5.59375 C13.890625,5.703125 13.53125,5.75 13.078125,5.65625 C12.65625,5.578125 12.15625,5.53125 11.640625,5.53125 C11.125,5.53125 10.609375,5.5625 10.171875,5.65625 C10.375,6.875 10.609375,8.09375 11.046875,9.59375 C11.1875,10.109375 11.34375,10.5625 11.46875,10.828125 C11.84375,11.640625 11.609375,12.4375 11.140625,13.203125 C10.8125,13.703125 10.34375,14.15625 9.84375,14.5625 C9.53125,14.84375 9.59375,15.09375 9.890625,15.265625 C10.4375,15.59375 11.25,15.828125 12.59375,16.21875 C13.671875,16.53125 14.15625,16.921875 14.15625,17.40625 C14.15625,17.796875 13.90625,18.171875 13.4375,18.53125 C12.78125,19.03125 12.09375,19.375 11.46875,19.609375 Z M9.578125,8.5625 C9.53125,8.234375 9.46875,7.859375 9.390625,7.390625 C9.3125,6.9375 9.21875,6.453125 9.140625,5.90625 C8.71875,6.03125 8.390625,6.1875 8.140625,6.359375 C7.65625,6.703125 7.46875,7.125 7.53125,7.515625 C7.609375,7.890625 7.890625,8.078125 8.140625,8.234375 C8.40625,8.375 8.84375,8.484375 9.140625,8.515625 C9.296875,8.53125 9.4375,8.5625 9.578125,8.5625 Z" transform="translate(-1.09375, 19.609375) scale(1, -1)"/>
</svg>