<svg height="19.953125" viewBox="0 0 24 19.953125" width="24" xmlns="http://www.w3.org/2000/svg">
<path d="M12.4375,18.453125 C13.421875,18.359375 13.765625,18.125 13.671875,17.421875 C13.640625,17.15625 13.53125,16.65625 13.390625,16.109375 C13.234375,15.546875 13.046875,14.953125 12.890625,14.5625 C12.84375,14.453125 12.796875,14.359375 12.765625,14.28125 C12.671875,14.140625 12.5625,14.015625 12.4375,13.90625 L12.21875,13.671875 C11.9375,13.40625 11.90625,13.203125 12,13.015625 C12.109375,12.78125 12.25,12.609375 12.40625,12.484375 C12.703125,12.234375 13.1875,12.5625 13.59375,12.8125 C14,13.046875 14.5625,13.4375 15.125,13.8125 C15.390625,14 15.671875,14.1875 15.9375,14.359375 C16.484375,14.71875 17,15.046875 17.421875,15.265625 C17.1875,14.765625 17.03125,14.046875 16.90625,13.1875 C16.796875,12.3125 16.71875,11.296875 16.671875,10.21875 C16.546875,10.703125 16.0625,10.859375 15.484375,10.859375 C15.078125,10.859375 14.515625,10.703125 13.8125,10.203125 C13.28125,9.828125 12.734375,9.3125 12.328125,8.609375 C11.90625,7.90625 11.640625,7.015625 11.640625,5.9375 C11.640625,5.046875 11.890625,4.171875 12.3125,3.359375 C12.734375,2.5625 13.328125,1.828125 14,1.28125 C14.234375,1.09375 14.53125,0.859375 14.828125,0.640625 C15.125,0.4375 15.40625,0.21875 15.578125,0.125 C15.78125,-0.015625 15.921875,-0.140625 16.25,-0.453125 C16.53125,-0.734375 16.84375,-0.875 17.140625,-0.875 C17.3125,-0.875 17.53125,-0.765625 17.71875,-0.5 C17.90625,-0.21875 18.03125,0.1875 18.03125,0.796875 C18.015625,1.15625 18,1.546875 17.984375,1.953125 L17.953125,3.171875 C17.9375,3.5625 17.9375,3.9375 17.9375,4.296875 C17.9375,4.65625 17.9375,4.953125 17.953125,5.203125 C18.109375,5.21875 18.265625,5.234375 18.4375,5.25 L18.953125,5.28125 C19.296875,5.3125 19.609375,5.328125 19.8125,5.359375 C20.46875,5.4375 20.953125,5.46875 21.359375,5.65625 C21.640625,5.796875 21.734375,6.03125 21.734375,6.21875 C21.734375,6.3125 21.71875,6.40625 21.65625,6.515625 C21.546875,6.703125 21.09375,6.921875 20.6875,6.921875 C20.484375,6.921875 20.265625,6.875 20.015625,6.796875 C19.78125,6.71875 19.421875,6.640625 19.03125,6.59375 C18.640625,6.546875 18.234375,6.5 17.90625,6.484375 C17.890625,6.953125 17.890625,7.640625 17.890625,8.40625 C17.890625,8.796875 17.890625,9.171875 17.90625,9.59375 C17.90625,10 17.921875,10.390625 17.9375,10.765625 C17.953125,11.53125 17.984375,12.234375 18.03125,12.71875 C18.078125,13.328125 18.109375,13.765625 18.171875,14.109375 C18.21875,14.453125 18.28125,14.703125 18.40625,14.9375 C18.640625,15.3125 18.65625,15.625 18.453125,15.796875 C18.328125,15.890625 18.0625,16.0625 17.84375,16.203125 C17.515625,16.375 17.234375,16.4375 16.90625,16.15625 C16.625,15.921875 16.390625,15.75 16.015625,15.484375 C15.78125,15.3125 15.40625,15.078125 15.03125,14.890625 C14.671875,14.6875 14.296875,14.515625 14.0625,14.453125 L14.59375,15.6875 C14.78125,16.15625 14.984375,16.65625 15.125,17.109375 C15.265625,17.578125 15.3125,17.890625 15.265625,18.140625 C15.203125,18.375 15.03125,18.53125 14.796875,18.671875 C14.609375,18.78125 14.40625,18.859375 14.0625,18.9375 C13.703125,19.015625 13.25,19.078125 12.734375,19.03125 Z M5.703125,18.625 C6.359375,18.34375 6.484375,17.84375 6.234375,17.28125 C6.078125,16.90625 5.71875,16.25 5.296875,15.5 C4.875,14.75 4.375,13.90625 3.90625,13.203125 C3.4375,12.484375 3.015625,11.890625 2.734375,11.609375 C2.46875,11.34375 2.28125,11.140625 2.171875,10.96875 C1.96875,10.625 2.140625,10.34375 2.390625,10.109375 C2.65625,9.859375 2.9375,9.6875 3.171875,9.75 C3.40625,9.796875 3.671875,10.015625 3.828125,10.125 C3.921875,10.1875 3.984375,10.234375 4.0625,10.28125 C4.203125,10.375 4.34375,10.453125 4.515625,10.53125 L5.25,10.859375 C5.8125,11.09375 6.390625,11.296875 6.875,11.453125 C7.34375,11.609375 7.71875,11.640625 8.140625,11.6875 C8.34375,11.703125 8.515625,11.734375 8.609375,11.765625 C9.078125,11.921875 9.21875,12.171875 9.09375,12.5 C8.90625,12.984375 8.359375,13.109375 7.953125,13.109375 C7.765625,13.109375 7.546875,13.0625 7.34375,12.9375 C7.015625,12.75 6.4375,12.484375 5.84375,12.25 C5.234375,12.015625 4.59375,11.796875 4.171875,11.6875 C4.96875,12.78125 5.6875,13.828125 6.265625,14.765625 C6.828125,15.6875 7.296875,16.5 7.53125,17.109375 C7.8125,17.765625 7.640625,18.125 7.21875,18.4375 C6.859375,18.703125 6.546875,18.875 6.171875,19.015625 Z M5.28125,9.78125 C5.46875,9.34375 5.5,8.75 5.453125,8.140625 C5.40625,7.609375 5.359375,7.0625 5.1875,6.40625 C5.125,6.171875 5.078125,5.890625 5.046875,5.609375 C5,5.3125 4.953125,5.03125 4.921875,4.78125 C4.828125,4.125 4.796875,3.078125 4.953125,2 C5.078125,1.109375 5.25,0.484375 5.453125,0.21875 C5.765625,-0.203125 5.9375,-0.265625 6.21875,-0.265625 C6.40625,-0.265625 6.5625,-0.1875 6.671875,-0.03125 C6.78125,0.125 6.828125,0.4375 6.828125,0.875 C6.828125,1.140625 6.890625,1.484375 7.03125,1.90625 C7.3125,2.75 7.765625,3.859375 8.390625,5.375 L9.484375,8.09375 L9,8.5 C8.46875,7.28125 7.890625,5.984375 7.34375,4.875 C6.8125,3.75 6.328125,2.828125 6.046875,2.359375 C5.875,3.25 5.84375,4.328125 6.09375,5.359375 C6.15625,5.609375 6.234375,5.921875 6.328125,6.25 C6.40625,6.5625 6.5,6.875 6.578125,7.109375 C6.84375,7.890625 6.9375,8.28125 6.796875,8.6875 C6.578125,9.34375 6.171875,9.78125 5.796875,10.0625 Z M16.625,6.4375 L16,6.4375 C15.75,6.421875 15.5,6.46875 15.21875,6.546875 C14.890625,6.65625 14.859375,6.90625 15.09375,7.171875 C15.5,7.625 15.890625,8.09375 16.1875,8.5625 C16.484375,9.015625 16.671875,9.46875 16.703125,9.9375 C16.65625,8.375 16.625,7.28125 16.625,6.4375 Z M15.046875,9.59375 C15.3125,9.59375 15.421875,9.34375 15.296875,8.9375 C15.1875,8.609375 15,8.203125 14.78125,7.828125 C14.5625,7.4375 14.328125,7.078125 14.140625,6.84375 C13.859375,6.5 13.875,6.203125 14.015625,5.984375 C14.046875,5.9375 14.09375,5.875 14.15625,5.8125 C14.28125,5.671875 14.46875,5.546875 14.765625,5.4375 C15.0625,5.328125 15.40625,5.296875 15.6875,5.265625 C15.953125,5.234375 16.203125,5.21875 16.4375,5.21875 C16.53125,5.21875 16.625,5.21875 16.703125,5.234375 L16.703125,1.828125 C16.703125,1.375 16.5625,1.25 16.15625,1.375 C15.734375,1.5 15.34375,1.671875 14.9375,1.921875 C14.1875,2.390625 13.578125,3.015625 13.140625,3.734375 C12.703125,4.4375 12.453125,5.21875 12.453125,6 C12.453125,6.703125 12.640625,7.34375 12.921875,7.859375 C13.203125,8.390625 13.578125,8.84375 13.953125,9.171875 C14.328125,9.5 14.6875,9.59375 15.046875,9.59375 Z" transform="translate(0.1484375, 19.078125) scale(1, -1)"/>
</svg>