<svg height="24" viewBox="0 0 24 24" width="24" xmlns="http://www.w3.org/2000/svg">
<path d="M5.796875,15.96875 C6.21875,15.359375 6.484375,14.28125 6.53125,12.5 C6.546875,12.21875 6.546875,11.875 6.546875,11.515625 C6.53125,10.765625 6.515625,9.984375 6.484375,9.203125 C6.453125,8.40625 6.40625,7.6875 6.359375,7.109375 C6.3125,6.546875 6.265625,6.125 6.1875,5.65625 C6.125,5.1875 6.0625,4.765625 6.0625,4.296875 C6.0625,4.0625 6.078125,3.828125 6.125,3.546875 C6.203125,2.953125 6.375,2.28125 6.640625,1.859375 C6.9375,1.390625 7.109375,1.296875 7.390625,1.296875 C7.546875,1.296875 7.671875,1.390625 7.78125,1.578125 C7.96875,1.953125 7.859375,2.921875 7.703125,4.125 C7.625,4.75 7.625,5.421875 7.625,5.734375 C7.625,6.03125 7.78125,6.5 8,6.984375 C8.203125,7.484375 8.46875,8 8.703125,8.453125 C9.03125,9.03125 9.546875,9.96875 10.203125,11 C10.859375,12.015625 11.625,13.109375 12.453125,14.015625 C13.484375,15.125 14.234375,15.53125 14.84375,15.53125 C15.125,15.53125 15.3125,15.5 15.5,15.328125 C15.6875,15.171875 15.828125,14.859375 15.984375,14.375 C16.125,13.921875 16.234375,13.03125 16.296875,12 C16.34375,10.96875 16.375,9.796875 16.375,8.8125 C16.375,8.046875 16.3125,7.140625 16.203125,6.265625 C16.078125,5.40625 15.921875,4.578125 15.6875,4.015625 C15.421875,3.3125 15.125,2.84375 14.78125,2.5625 C14.4375,2.28125 14.046875,2.1875 13.609375,2.1875 C13.015625,2.1875 12.421875,2.328125 11.765625,2.796875 C11.5625,2.9375 11.328125,3.15625 11.125,3.40625 C10.921875,3.671875 10.75,3.953125 10.703125,4.21875 C10.609375,4.78125 10.671875,5.140625 11.15625,5.515625 C11.40625,5.703125 11.9375,5.796875 12.34375,5.796875 C12.625,5.796875 13.078125,5.609375 13.421875,5.328125 C13.6875,5.109375 14.046875,4.90625 14.375,5 C14.609375,5.046875 14.84375,5.28125 14.84375,5.46875 C14.84375,5.859375 14.765625,6.140625 14.40625,6.453125 C13.890625,6.921875 13.25,7.078125 12.59375,7.078125 C12.234375,7.078125 11.859375,7.046875 11.5,6.921875 C11.046875,6.765625 10.671875,6.53125 10.390625,6.296875 C10.015625,5.953125 9.828125,5.328125 9.828125,4.859375 C9.828125,4.421875 9.859375,4.171875 10.03125,3.796875 C10.234375,3.34375 10.578125,2.75 11,2.359375 C11.328125,2.03125 11.703125,1.71875 12.140625,1.484375 C12.578125,1.25 13.0625,1.078125 13.625,1.078125 C14.140625,1.078125 14.765625,1.203125 15.375,1.546875 C15.96875,1.890625 16.5625,2.46875 17.015625,3.359375 C17.28125,3.890625 17.515625,4.75 17.6875,5.734375 C17.84375,6.71875 17.9375,7.859375 17.953125,8.984375 C17.96875,9.875 17.9375,10.90625 17.84375,11.84375 C17.765625,12.78125 17.625,13.640625 17.46875,14.203125 C17.28125,14.8125 16.953125,15.34375 16.484375,15.71875 C16.015625,16.078125 15.453125,16.296875 14.890625,16.28125 C14.453125,16.265625 14.0625,16.1875 13.59375,15.921875 C13.125,15.640625 12.59375,15.203125 11.84375,14.453125 C11.09375,13.71875 10.296875,12.734375 9.546875,11.703125 C8.78125,10.671875 8.09375,9.640625 7.609375,8.796875 C7.625,8.984375 7.640625,9.234375 7.65625,9.53125 C7.6875,10.109375 7.71875,10.78125 7.71875,11.453125 C7.71875,11.78125 7.71875,12.078125 7.703125,12.359375 C7.671875,13.015625 7.625,13.484375 7.53125,13.890625 C7.453125,14.28125 7.34375,14.59375 7.203125,14.890625 C6.921875,15.4375 6.59375,15.921875 6.234375,16.328125 Z" transform="translate(0.1171875, 16.328125) scale(1, -1)"/>
</svg>