<svg height="20.109375" viewBox="0 0 24 20.109375" width="24" xmlns="http://www.w3.org/2000/svg">
<path d="M7.328125,15.390625 C7.515625,15.125 7.796875,14.859375 8.125,14.65625 C8.4375,14.4375 8.796875,14.28125 9.125,14.234375 C9.40625,14.1875 9.75,14.171875 10.125,14.171875 C10.484375,14.171875 10.859375,14.203125 11.203125,14.265625 C11.1875,13.859375 11.1875,13.4375 11.171875,12.96875 L11.140625,11.609375 C10.84375,11.53125 10.515625,11.46875 10.171875,11.375 C9.46875,11.21875 8.703125,11.046875 7.921875,10.859375 C7.53125,10.78125 7.15625,10.6875 6.78125,10.609375 C6.125,10.453125 5.421875,10.421875 4.8125,10.609375 C4.15625,10.8125 3.671875,11.15625 3.1875,11.59375 L2.84375,11.203125 C3.078125,10.78125 3.359375,10.328125 3.828125,9.890625 C4.484375,9.25 4.90625,9.078125 5.453125,9.078125 C5.640625,9.078125 5.921875,9.109375 6.25,9.171875 C6.578125,9.21875 6.921875,9.3125 7.21875,9.40625 C8.203125,9.78125 9.421875,10.125 10.71875,10.46875 C12,10.8125 13.34375,11.109375 14.609375,11.375 C13.390625,10.015625 11.890625,8.5 10.40625,7.015625 C8.90625,5.546875 7.40625,4.140625 6.140625,3.03125 C5.9375,2.84375 5.75,2.703125 5.5625,2.5625 C5.359375,2.4375 5.140625,2.28125 4.90625,2.109375 C4.625,1.90625 4.390625,1.75 4.203125,1.625 C4,1.484375 3.875,1.328125 3.796875,1.125 C3.671875,0.796875 3.640625,0.5 3.671875,0.1875 C3.71875,-0.28125 4.203125,-0.265625 4.671875,0.03125 C5.140625,0.3125 5.6875,0.734375 6.4375,1.578125 C7.484375,2.75 8.34375,3.640625 9.140625,4.34375 C9.578125,4.734375 10.015625,4.90625 10.390625,4.765625 C10.71875,4.625 10.84375,4.28125 10.875,3.78125 C10.90625,3.265625 10.890625,2.5625 10.8125,1.953125 C10.671875,1.015625 10.703125,0.3125 10.875,-0.234375 C11.0625,-0.828125 11.265625,-1.03125 11.59375,-1.03125 C11.984375,-1.03125 12.15625,-0.84375 12.21875,-0.453125 L12.34375,0.484375 C12.40625,0.890625 12.484375,1.421875 12.890625,2.140625 C13.390625,3.03125 14.0625,3.9375 15.046875,4.921875 L14.640625,5.375 C14.140625,4.953125 13.71875,4.515625 13.296875,4.046875 C12.890625,3.5625 12.5,3.03125 12.078125,2.421875 C12.09375,2.703125 12.109375,2.984375 12.109375,3.3125 C12.109375,3.9375 12.1875,5 11.421875,5.46875 C11.046875,5.703125 10.578125,5.65625 10.015625,5.46875 C11.046875,6.546875 12.0625,7.5625 13.03125,8.53125 C14,9.5 14.921875,10.40625 15.796875,11.28125 C16.078125,11.5625 16.25,11.640625 16.4375,11.6875 C16.875,11.78125 17.328125,11.890625 17.734375,12.078125 C17.984375,12.171875 18.125,12.375 18.15625,12.5625 C18.1875,12.75 18.125,12.921875 17.9375,13.015625 C17.75,13.09375 17.5625,13.15625 17.359375,13.21875 C17.140625,13.28125 16.921875,13.359375 16.703125,13.4375 C16.4375,13.53125 16.203125,13.40625 16.03125,13.28125 C15.8125,13.109375 15.671875,12.9375 15.484375,12.734375 C15.3125,12.5625 15.1875,12.515625 14.953125,12.4375 C14.5625,12.3125 14.140625,12.1875 13.6875,12.109375 C13.25,12.015625 12.8125,11.921875 12.390625,11.84375 L12.421875,12.453125 C12.4375,12.65625 12.453125,12.875 12.46875,13.109375 C12.5,13.546875 12.546875,14 12.59375,14.375 C13.4375,14.5625 14.1875,14.71875 14.984375,14.953125 C15.453125,15.09375 15.734375,15.1875 15.875,15.53125 C15.96875,15.828125 15.796875,16.078125 15.34375,16.296875 C15,16.484375 14.65625,16.421875 14.28125,16.25 C13.90625,16.0625 13.25,15.828125 12.71875,15.734375 C12.734375,15.875 12.75,16.015625 12.765625,16.171875 C12.78125,16.328125 12.796875,16.46875 12.828125,16.625 C12.859375,16.90625 12.890625,17.203125 12.9375,17.40625 C13.0625,17.90625 12.828125,18.234375 12.171875,18.53125 C11.59375,18.796875 10.921875,18.953125 10.21875,19.078125 L9.96875,18.546875 C10.203125,18.453125 10.40625,18.375 10.578125,18.296875 C10.921875,18.140625 11.25,17.9375 11.34375,17.6875 C11.421875,17.421875 11.375,16.984375 11.359375,16.6875 L11.328125,16.25 C11.3125,16.109375 11.3125,15.96875 11.296875,15.828125 L11.265625,15.484375 C10.5625,15.3125 9.75,15.234375 9.265625,15.265625 C8.5625,15.3125 8.109375,15.484375 7.53125,15.828125 Z M16.671875,5.65625 C17.234375,5.609375 17.765625,5.5 18.34375,5.1875 C19.046875,4.8125 19.484375,4.171875 19.65625,3.40625 C19.78125,2.890625 19.6875,2.65625 19.296875,2.40625 C18.828125,2.09375 18.171875,1.78125 17.1875,1.34375 L17.5,0.84375 C17.796875,0.96875 18.078125,1.0625 18.359375,1.140625 C18.921875,1.296875 19.78125,1.53125 20.203125,1.25 C20.453125,1.0625 20.515625,0.984375 20.765625,0.984375 C21.015625,0.984375 21.21875,1.109375 21.359375,1.34375 C21.5,1.578125 21.5625,2 21.53125,2.453125 C21.46875,3.390625 21.125,4.1875 20.375,4.859375 C19.96875,5.21875 19.46875,5.546875 18.8125,5.8125 C18.171875,6.078125 17.5,6.234375 16.765625,6.265625 Z" transform="translate(-0.203125, 19.078125) scale(1, -1)"/>
</svg>