<svg height="21.5" viewBox="0 0 24 21.5" width="24" xmlns="http://www.w3.org/2000/svg">
<path d="M15.21875,19.828125 C14.59375,19.828125 13.90625,19.609375 13.0625,19.03125 L13.25,18.671875 C13.671875,18.84375 14.09375,19.015625 14.359375,18.984375 C14.734375,18.953125 14.84375,18.828125 14.84375,18.4375 C14.84375,17.984375 14.75,17.671875 14.609375,17.453125 C12.421875,17.28125 10.40625,17.015625 8.609375,16.65625 C8.5625,16.859375 8.546875,17.25 8.546875,17.609375 C8.546875,18.1875 8.59375,18.890625 8.765625,19.34375 L8.328125,19.515625 C7.96875,19.109375 7.765625,18.484375 7.578125,17.6875 C7.484375,17.234375 7.453125,16.703125 7.421875,16.328125 C7.203125,16.25 6.78125,16.140625 6.359375,16.046875 C5.921875,15.953125 5.46875,15.875 5.140625,15.875 C4.71875,15.875 4.421875,15.890625 4.140625,15.9375 C3.84375,15.984375 3.546875,16.078125 3.1875,16.21875 L2.953125,15.875 C3.390625,15.359375 3.84375,15.078125 4.421875,14.765625 C5.125,14.375 5.78125,14.421875 6.484375,14.8125 C6.828125,15 7.15625,15.1875 7.53125,15.34375 C7.578125,15.1875 7.625,15.046875 7.65625,14.9375 C7.734375,14.703125 7.859375,14.375 8.171875,14.140625 C8.484375,13.90625 8.890625,13.90625 9.21875,14.375 C9.453125,14.75 9.40625,15.09375 9.21875,15.3125 C9.078125,15.453125 8.984375,15.625 8.9375,15.828125 C9.6875,16.015625 10.625,16.203125 11.53125,16.328125 C12.453125,16.453125 13.359375,16.53125 14.15625,16.5625 C13.65625,15.796875 12.828125,15 11.640625,14.203125 C11.21875,14.40625 10.71875,14.515625 10.171875,14.5625 L9.96875,14.203125 C10.390625,14.03125 10.609375,13.859375 10.671875,13.703125 C10.75,13.53125 10.671875,13.359375 10.515625,13.21875 C9.96875,12.71875 9.40625,12.28125 8.421875,11.6875 L8.84375,11.359375 C9.015625,11.4375 9.171875,11.515625 9.296875,11.578125 C9.5625,11.703125 9.8125,11.8125 10.109375,11.953125 C10.390625,12.078125 10.859375,12.265625 11.15625,12.359375 C11.3125,12.390625 11.484375,12.453125 11.6875,12.5 C11.90625,12.5625 12.140625,12.671875 12.328125,12.78125 C12.515625,12.875 12.640625,13.015625 12.640625,13.171875 C12.640625,13.515625 12.484375,13.828125 12.1875,13.96875 C13.03125,14.40625 13.703125,14.84375 14.1875,15.171875 C14.84375,15.59375 15.390625,16.03125 15.78125,16.515625 C16.859375,16.484375 17.546875,16.375 18.296875,16.203125 L18.90625,16.0625 C19.109375,16.015625 19.3125,15.984375 19.53125,15.984375 C20.046875,15.984375 20.1875,16.125 20.1875,16.421875 C20.1875,16.8125 19.90625,17.09375 19.46875,17.3125 C19.109375,17.5 18.640625,17.609375 18.265625,17.5625 C17.5625,17.515625 16.8125,17.5 16.25,17.5 C16.390625,17.828125 16.46875,18.21875 16.46875,18.671875 C16.46875,19.375 16.015625,19.828125 15.21875,19.828125 Z M15.03125,12.390625 C15.40625,12.328125 15.703125,12.234375 15.828125,12.0625 C15.9375,11.890625 15.890625,11.65625 15.640625,11.28125 C15.375,10.90625 14.984375,10.46875 14.546875,10.046875 C14.09375,9.609375 13.59375,9.1875 13.125,8.859375 L13.5625,8.5 L15.078125,9.484375 C15.328125,9.65625 15.578125,9.828125 15.828125,9.96875 C16.296875,10.28125 16.65625,10.484375 17.046875,10.71875 C17.234375,10.828125 17.390625,10.9375 17.515625,11.015625 C18,11.328125 17.953125,11.78125 17.59375,12.140625 C17.40625,12.34375 16.96875,12.546875 16.515625,12.671875 C16.03125,12.796875 15.671875,12.875 15.125,12.875 Z M12.21875,11.65625 C11.9375,11.65625 11.609375,11.40625 11.46875,11.09375 C11.421875,10.9375 11.375,10.78125 11.328125,10.59375 C11.296875,10.390625 11.28125,10.125 11.28125,9.734375 L11.28125,6.9375 C10.484375,6.84375 9.71875,6.8125 8.8125,6.9375 C8.109375,7.03125 7.609375,7.203125 6.875,7.578125 L6.6875,7.078125 C7.3125,6.46875 8.09375,6.078125 9.078125,5.890625 C8.984375,5.40625 8.65625,4.96875 8.09375,4.375 C7.375,3.625 6.65625,2.90625 5.90625,2.3125 C5.5625,2.046875 5.359375,1.9375 5.0625,1.78125 C4.859375,1.671875 4.6875,1.484375 4.578125,1.171875 C4.5,0.9375 4.4375,0.59375 4.4375,0.265625 C4.4375,-0.078125 4.625,-0.171875 4.921875,-0.078125 C5.234375,0.03125 5.75,0.34375 6.140625,0.625 C6.59375,0.96875 7.03125,1.296875 7.515625,1.578125 C8.40625,1.15625 9.09375,0.546875 9.71875,0.03125 C9.890625,-0.125 10.015625,-0.234375 10.15625,-0.375 C10.296875,-0.515625 10.453125,-0.6875 10.671875,-0.96875 C11,-1.34375 11.15625,-1.59375 11.5,-1.625 C11.796875,-1.671875 12.171875,-1.46875 12.390625,-0.84375 C12.453125,-0.65625 12.53125,-0.359375 12.59375,-0.03125 C12.640625,0.296875 12.65625,0.65625 12.640625,0.984375 C12.609375,1.53125 12.59375,2.203125 12.546875,2.90625 C13.53125,2.90625 14.46875,2.703125 15.40625,2.3125 C16.25,1.953125 17.328125,1.25 18.234375,0.34375 C18.453125,0.125 18.765625,0.03125 19.125,0.078125 C19.4375,0.125 19.609375,0.359375 19.609375,0.640625 C19.609375,0.890625 19.46875,1.21875 19.171875,1.484375 C18.765625,1.859375 18.25,2.203125 17.71875,2.484375 C17.1875,2.765625 16.640625,2.984375 16.171875,3.171875 C15.046875,3.578125 13.765625,3.796875 12.5,3.796875 L12.484375,5.8125 C13.46875,5.9375 14.40625,6.140625 15.34375,6.5 C16,6.75 16.375,6.96875 16.65625,7.15625 C16.859375,7.28125 16.96875,7.53125 16.921875,7.71875 C16.890625,8 16.765625,8.140625 16.390625,8.234375 C16.0625,8.3125 15.734375,8.203125 15.125,7.921875 C14.40625,7.578125 13.4375,7.296875 12.453125,7.109375 C12.453125,8.046875 12.46875,9.03125 12.546875,10.015625 C12.59375,10.671875 12.859375,10.71875 13.5625,10.25 L13.8125,10.65625 C13.53125,10.96875 13.234375,11.25 12.875,11.453125 C12.6875,11.546875 12.546875,11.65625 12.21875,11.65625 Z M7.203125,10.921875 C6.921875,10.734375 6.65625,10.53125 6.46875,10.28125 C6.265625,10.03125 6.140625,9.765625 6.140625,9.484375 C6.140625,9.046875 6.234375,8.796875 6.484375,8.5625 C6.84375,8.25 7.375,8.28125 7.875,8.546875 C8.640625,8.953125 9.484375,9.5 10.0625,9.9375 L9.84375,10.375 C9.140625,9.984375 8.421875,9.703125 7.71875,9.59375 C7.203125,9.515625 7.0625,9.71875 7.15625,10.03125 C7.21875,10.25 7.359375,10.453125 7.578125,10.65625 Z M9.734375,5.765625 C10.21875,5.703125 10.71875,5.671875 11.28125,5.703125 L11.28125,3.671875 C10.71875,3.59375 10.03125,3.4375 9.34375,3.21875 C8.640625,2.984375 7.921875,2.71875 7.296875,2.421875 C7.921875,3 8.609375,3.640625 9.125,4.25 C9.578125,4.796875 9.734375,5.21875 9.734375,5.765625 Z M11.28125,0.734375 C11.28125,0.3125 11.109375,0.265625 10.875,0.40625 C9.9375,0.96875 9.140625,1.4375 8.109375,1.953125 C8.5,2.1875 9.03125,2.375 9.59375,2.53125 C10.15625,2.6875 10.734375,2.796875 11.28125,2.84375 Z" transform="translate(0.4296875, 19.828125) scale(1, -1)"/>
</svg>