<svg height="19.265625" viewBox="0 0 24 19.265625" width="24" xmlns="http://www.w3.org/2000/svg">
<path d="M1.859375,16.203125 C1.890625,15.578125 2,14.859375 2.265625,14.46875 C2.640625,13.921875 3.03125,13.625 3.546875,13.625 C3.734375,13.625 3.890625,13.671875 4.046875,13.765625 C4.359375,13.953125 4.640625,14.265625 5,14.640625 C5.375,15 5.578125,15.15625 5.859375,15.390625 C6.140625,15.609375 6.453125,15.84375 6.75,16.046875 C7.046875,16.25 8.125,17.09375 7.65625,15.890625 C7.578125,15.6875 7.390625,15.328125 7.203125,14.9375 C7.015625,14.5625 6.78125,14.140625 6.59375,13.859375 C6.234375,13.25 5.65625,12.53125 5.140625,12 C4.859375,11.734375 4.765625,11.28125 5.046875,10.921875 C5.234375,10.640625 5.484375,10.296875 5.703125,9.96875 C5.90625,9.640625 6.078125,9.328125 6.171875,9.140625 C5.75,8.6875 5.234375,8.015625 4.71875,7.296875 C4.203125,6.5625 3.703125,5.78125 3.3125,5.109375 C3.03125,4.609375 2.71875,4.046875 2.5,3.453125 C2.265625,2.875 2.109375,2.25 2.109375,1.671875 C2.109375,1.015625 2.296875,0.4375 2.671875,0.03125 C3.046875,-0.390625 3.625,-0.625 4.421875,-0.625 C4.921875,-0.625 5.53125,-0.46875 6.125,-0.203125 C6.703125,0.078125 7.25,0.453125 7.671875,0.96875 C8,1.34375 8.3125,1.84375 8.5625,2.4375 C8.796875,3.03125 8.953125,3.703125 8.953125,4.390625 C8.953125,5.328125 8.796875,6.359375 8.453125,7.21875 C8.15625,7.96875 7.90625,8.5625 7.46875,9.234375 C7.9375,9.890625 8.578125,10.6875 9.234375,11.4375 C9.875,12.1875 10.53125,12.890625 11.015625,13.390625 C11.6875,14.09375 12.5,14.84375 13.25,15.515625 C14,16.171875 14.703125,16.75 15.1875,17.0625 C15.9375,17.546875 16.765625,17.84375 17.328125,17.84375 C17.953125,17.84375 18.234375,17.5 18.234375,16.515625 C18.234375,15.796875 18.09375,15.140625 17.8125,14.734375 C17.40625,14.15625 16.9375,13.78125 16.28125,13.609375 C16.328125,13.828125 16.28125,14.140625 16.21875,14.375 C16.15625,14.71875 15.96875,14.890625 15.6875,14.890625 C15.5,14.890625 15.3125,14.78125 15.15625,14.609375 C14.984375,14.421875 14.84375,14.1875 14.765625,13.953125 C14.625,13.53125 14.71875,13.328125 15.265625,13.078125 C15.234375,12.8125 15.078125,12.359375 14.734375,12.046875 C14.234375,11.5625 14.109375,11.1875 14.421875,10.953125 C14.703125,10.75 15.03125,10.375 15.34375,9.953125 C15.65625,9.53125 15.9375,9.046875 16.078125,8.65625 C15.65625,8.140625 15.359375,7.734375 15.046875,7.296875 C14.75,6.875 14.453125,6.390625 14.046875,5.734375 C14.140625,6.140625 14.109375,6.546875 13.96875,6.71875 C13.796875,6.921875 13.53125,7 13.171875,6.96875 C13.25,7.140625 13.34375,7.328125 13.40625,7.5 C13.546875,7.859375 13.703125,8.515625 13.703125,8.890625 C13.703125,9.078125 13.671875,9.265625 13.609375,9.484375 C13.484375,9.9375 13.203125,10.078125 12.796875,10.078125 C12.625,10.078125 12.40625,10 12.140625,9.828125 C11.890625,9.65625 11.609375,9.328125 11.28125,8.84375 C11.046875,8.453125 10.6875,7.671875 10.328125,6.921875 L10.765625,6.59375 C11.046875,7.21875 11.515625,7.921875 11.890625,8.3125 C12.109375,8.546875 12.265625,8.65625 12.359375,8.640625 C12.4375,8.609375 12.453125,8.46875 12.40625,8.203125 C12.265625,7.4375 12.15625,6.71875 11.890625,6.1875 C11.703125,5.859375 11.640625,5.65625 11.765625,5.46875 C11.921875,5.234375 12.03125,5.15625 12.21875,5.15625 C12.3125,5.15625 12.421875,5.21875 12.578125,5.40625 C12.796875,5.671875 13.015625,5.5625 12.96875,5.265625 C12.8125,4.546875 12.53125,3.921875 12.140625,3.359375 C11.765625,2.8125 11.40625,2.3125 11.0625,2.046875 C10.890625,1.90625 10.765625,1.765625 10.71875,1.625 C10.609375,1.34375 10.640625,0.921875 10.765625,0.609375 C10.90625,0.296875 11,0.015625 11.296875,0.03125 C11.578125,0.03125 11.890625,0.640625 12.078125,0.921875 C12.15625,1.078125 12.265625,1.21875 12.359375,1.375 C12.6875,0.90625 12.890625,0.625 13.34375,0.171875 C13.875,-0.359375 14.34375,-0.671875 15.09375,-0.671875 C16.03125,-0.671875 16.96875,0.265625 17.609375,1.78125 C17.796875,2.234375 17.9375,2.890625 18.03125,3.59375 C18.125,4.28125 18.15625,4.984375 18.140625,5.546875 C18.609375,5.140625 19.078125,4.625 19.5,4.0625 C19.90625,3.515625 20.265625,2.984375 20.5,2.515625 C20.71875,2.109375 20.96875,1.515625 21.140625,1.109375 C21.25,0.875 21.578125,0.625 21.875,0.625 C22.1875,0.625 22.46875,0.984375 22.46875,1.578125 C22.46875,2.15625 22.296875,2.5625 21.828125,3.21875 C21.546875,3.59375 20.96875,4.203125 20.328125,4.8125 C19.671875,5.40625 18.953125,6 18.390625,6.40625 C18.984375,6.84375 19.890625,7.53125 20.6875,8.46875 C21.34375,9.234375 21.640625,10.125 21.671875,10.703125 C21.703125,11.453125 21.390625,11.859375 20.84375,12.09375 C20.5,12.25 20.046875,12.21875 19.65625,12.09375 C19.0625,11.90625 18.5,11.59375 17.90625,11 C17.5,10.578125 17.046875,10.0625 16.71875,9.671875 C16.40625,10.125 15.875,10.609375 15.40625,10.96875 C15.125,11.203125 15.09375,11.28125 15.34375,11.59375 C15.75,12.125 16.125,12.6875 16.28125,12.984375 C17,12.984375 17.71875,13.3125 18.265625,13.65625 C18.78125,13.96875 19.15625,14.359375 19.421875,14.90625 C19.6875,15.4375 19.828125,15.921875 19.828125,16.578125 C19.828125,17.1875 19.59375,17.703125 19.203125,18.0625 C18.796875,18.40625 18.265625,18.59375 17.65625,18.59375 C16.859375,18.59375 16.03125,18.3125 14.90625,17.65625 C13.921875,17.09375 12.40625,15.75 10.328125,13.71875 C9.84375,13.25 9.234375,12.625 8.625,11.96875 C8.015625,11.296875 7.390625,10.578125 6.921875,9.96875 C6.671875,10.34375 6.265625,10.796875 6,11.0625 C5.90625,11.171875 5.859375,11.265625 5.859375,11.359375 C5.859375,11.4375 5.90625,11.546875 6,11.65625 C6.359375,12.125 6.96875,12.84375 7.53125,13.546875 C8.109375,14.25 8.65625,14.90625 8.984375,15.265625 C9.15625,15.46875 9.359375,15.703125 9.484375,15.9375 C9.609375,16.15625 9.671875,16.390625 9.578125,16.625 C9.5,16.8125 9.390625,17.0625 9.1875,17.28125 C9,17.515625 8.765625,17.6875 8.515625,17.6875 C8.28125,17.6875 8.046875,17.640625 7.796875,17.53125 C7.296875,17.328125 6.734375,17 6.359375,16.765625 C5.96875,16.53125 5.609375,16.296875 5.34375,16.109375 C5.21875,16.015625 5.125,15.953125 5.0625,15.921875 C4.71875,15.6875 4.390625,15.53125 4.109375,15.453125 C3.53125,15.265625 3.171875,15.359375 2.84375,15.734375 C2.59375,16.015625 2.484375,16.21875 2.359375,16.53125 Z M17.09375,9.09375 C17.375,9.484375 17.796875,9.9375 18.21875,10.328125 C18.765625,10.828125 19.25,11.1875 19.703125,11.234375 C20.09375,11.28125 20.3125,11.046875 20.234375,10.5625 C20.09375,9.671875 19.75,9.046875 19.28125,8.421875 C18.921875,7.953125 18.453125,7.484375 18.03125,7.125 C17.796875,7.78125 17.46875,8.5625 17.09375,9.09375 Z M6.6875,8.328125 C6.921875,7.96875 7.109375,7.421875 7.25,6.734375 C7.390625,6.0625 7.46875,5.265625 7.46875,4.421875 C7.46875,3.703125 7.390625,3.125 7.21875,2.65625 C7.0625,2.1875 6.828125,1.78125 6.5,1.390625 C6.21875,1.03125 5.859375,0.734375 5.5,0.53125 C5.125,0.3125 4.765625,0.1875 4.46875,0.1875 C3.625,0.1875 3.359375,0.671875 3.359375,1.46875 C3.359375,2.078125 3.4375,2.5625 3.59375,3.109375 C3.765625,3.640625 4.015625,4.203125 4.421875,4.953125 C5.234375,6.453125 5.984375,7.453125 6.6875,8.328125 Z M16.421875,8.046875 C16.609375,7.515625 16.78125,6.953125 16.78125,5.953125 C16.78125,5.6875 16.78125,5.390625 16.765625,5.0625 C16.75,4.390625 16.65625,3.6875 16.484375,2.984375 C16.328125,2.296875 15.9375,1.46875 15.5,1.109375 C15.265625,0.921875 15.0625,0.828125 14.890625,0.828125 C14.453125,0.828125 13.953125,0.921875 13.609375,1.15625 C13.453125,1.25 13.265625,1.4375 13.109375,1.59375 C12.96875,1.765625 12.828125,1.921875 12.734375,2.0625 C13.5,3.4375 14.140625,4.609375 14.75,5.59375 C15.34375,6.578125 15.875,7.390625 16.421875,8.046875 Z" transform="translate(-0.1640625, 18.59375) scale(1, -1)"/>
</svg>