<svg height="20.25" viewBox="0 0 24 20.25" width="24" xmlns="http://www.w3.org/2000/svg">
<path d="M9.875,18.265625 C10.328125,18.03125 10.734375,17.75 10.875,17.5625 C11.1875,17.1875 11.265625,16.953125 11.265625,16.65625 C11.265625,16.078125 11.203125,15.71875 10.96875,15.140625 C10.65625,14.390625 10.171875,13.546875 9.5,12.578125 C9.171875,12.453125 8.84375,12.3125 8.484375,12.140625 C7.765625,11.796875 6.59375,11.375 6.3125,10.25 C6.21875,9.828125 6.25,9.5 6.296875,9.234375 C6.34375,8.953125 6.640625,8.828125 7.125,9.09375 C7.34375,9.21875 7.640625,9.453125 7.921875,9.6875 C8.203125,9.921875 8.46875,10.1875 8.65625,10.375 C9.234375,10.96875 9.84375,11.609375 10.125,12 C11.1875,12.578125 12.21875,12.875 13.171875,12.875 C14.390625,12.875 15.265625,12.609375 15.796875,12.140625 C16.3125,11.6875 16.65625,11.234375 16.859375,10.6875 C17.046875,10.140625 17.140625,9.5 17.140625,8.65625 C17.140625,7.953125 17.015625,7.15625 16.734375,6.359375 C16.453125,5.5625 16.015625,4.765625 15.390625,4.015625 C14.4375,2.875 13.296875,1.90625 11.984375,1.109375 C10.671875,0.296875 9.21875,-0.390625 7.625,-0.984375 L7.96875,-1.5625 C11.125,-0.625 13.84375,0.8125 16.203125,2.9375 C17.140625,3.78125 17.796875,4.75 18.25,5.75 C18.6875,6.765625 18.890625,7.796875 18.890625,8.765625 C18.890625,9.703125 18.703125,10.453125 18.421875,11.0625 C18.140625,11.671875 17.765625,12.140625 17.359375,12.5 C16.90625,12.921875 16.34375,13.203125 15.75,13.390625 C15.171875,13.578125 14.5625,13.671875 14.0625,13.671875 C12.984375,13.671875 11.765625,13.515625 10.71875,12.96875 C10.90625,13.25 11.09375,13.578125 11.328125,13.90625 C11.5625,14.234375 11.75,14.515625 11.9375,14.765625 L12.109375,15.03125 C12.171875,15.125 12.234375,15.21875 12.296875,15.3125 C12.359375,15.40625 12.421875,15.5 12.484375,15.59375 L12.640625,15.84375 C12.828125,16.125 12.984375,16.4375 12.984375,16.78125 C12.984375,17.3125 12.578125,17.890625 11.765625,18.265625 C11.359375,18.453125 10.90625,18.59375 10.296875,18.6875 Z" transform="translate(-0.5546875, 18.6875) scale(1, -1)"/>
</svg>