<svg height="20.734375" viewBox="0 0 24 20.734375" width="24" xmlns="http://www.w3.org/2000/svg">
<path d="M11.890625,19.03125 C12.125,18.9375 12.40625,18.828125 12.65625,18.71875 C12.890625,18.59375 13.09375,18.484375 13.21875,18.390625 C13.65625,18.046875 13.8125,17.890625 13.8125,17.59375 C13.8125,17.453125 13.71875,17.296875 13.578125,17.140625 C13.40625,16.96875 13.09375,16.8125 12.625,16.65625 C12.4375,16.59375 12.28125,16.53125 12.15625,16.484375 C11.890625,16.359375 11.765625,16.21875 11.765625,16.015625 C11.765625,15.90625 11.796875,15.78125 11.859375,15.625 C12.03125,15.21875 12.140625,14.640625 12.234375,13.921875 C11.8125,13.796875 11.09375,13.5625 10.390625,13.328125 L8.59375,12.734375 C7.875,12.515625 7.34375,12.71875 7.03125,12.9375 C6.625,13.21875 6.3125,13.5625 6.21875,13.78125 L5.796875,13.46875 C6.015625,12.734375 6.265625,12.265625 6.671875,11.765625 C6.875,11.515625 7.203125,11.28125 7.515625,11.1875 C7.859375,11.09375 8.046875,11.0625 8.359375,11.328125 C8.625,11.5625 9.078125,11.796875 9.53125,12.03125 C10.46875,12.484375 11.328125,12.8125 12.234375,13.078125 L12.234375,12.546875 C11.125,11.765625 9.96875,10.9375 8.875,10.140625 C7.765625,9.328125 6.734375,8.546875 5.84375,7.875 L4.171875,6.625 C3.859375,6.390625 3.34375,6.046875 2.9375,5.859375 C2.515625,5.65625 2.265625,5.515625 2.15625,5.15625 C2.03125,4.75 1.984375,4.296875 2.015625,3.796875 C2.046875,3.40625 2.359375,3.265625 2.765625,3.578125 C3.078125,3.828125 3.59375,4.203125 4.125,4.53125 C4.828125,4.96875 5.796875,5.5 6.84375,6 C7.8125,6.46875 8.921875,6.921875 10.1875,7.3125 C11.453125,7.703125 12.875,8 14.5,8.1875 C14,7.9375 13.46875,7.65625 12.9375,7.359375 C11.875,6.765625 10.875,6.171875 10.046875,5.609375 C9.21875,5.0625 8.578125,4.578125 7.984375,4.109375 C7.671875,3.875 7.421875,3.6875 7.203125,3.53125 L6.78125,3.25 C6.515625,3.09375 6.265625,2.953125 6.09375,2.734375 C5.9375,2.515625 5.859375,2.15625 5.859375,1.875 C5.859375,1.59375 5.828125,1.0625 6.265625,1.0625 C6.484375,1.0625 6.765625,1.21875 7.125,1.5625 C7.421875,1.84375 7.796875,2.15625 8.1875,2.46875 C8.5625,2.796875 8.953125,3.09375 9.3125,3.34375 C10.0625,3.859375 10.875,4.328125 11.59375,4.609375 C11.890625,4.734375 12.328125,4.890625 12.796875,5.03125 C13.265625,5.15625 13.765625,5.265625 14.234375,5.265625 C14.703125,5.265625 15.171875,5.140625 15.515625,4.859375 C15.84375,4.578125 16.078125,4.140625 16.125,3.53125 C16.203125,2.59375 15.984375,1.90625 15.671875,1.515625 C15.1875,2 14.8125,2.328125 14.203125,2.59375 C13.78125,2.78125 13.1875,2.9375 12.484375,2.9375 C11.40625,2.9375 10.53125,2.5 10.03125,1.90625 C9.640625,1.4375 9.5,1.03125 9.5,0.546875 C9.5,-0.796875 10.890625,-1.15625 11.828125,-1.203125 C12.75,-1.25 13.765625,-1.140625 14.671875,-0.75 C15.578125,-0.375 16.359375,0.203125 16.859375,0.875 C17.34375,1.53125 17.5625,2.046875 17.671875,2.640625 C17.796875,3.21875 17.71875,3.921875 17.46875,4.5 C17.203125,5.0625 16.5625,5.546875 15.734375,5.8125 C14.890625,6.078125 13.640625,6.015625 12.65625,5.734375 C11.65625,5.4375 10.765625,5.046875 9.921875,4.5625 C9.5,4.3125 9.0625,4.0625 8.609375,3.828125 C10.171875,5.046875 11.9375,6.15625 13.578125,6.96875 C13.96875,7.15625 14.34375,7.34375 14.734375,7.484375 C15.125,7.640625 15.546875,7.796875 16.078125,7.90625 C16.65625,8.03125 17.46875,8.015625 18.140625,7.96875 C18.984375,7.90625 19.53125,7.71875 20.15625,7.4375 C20.6875,7.21875 21.265625,6.890625 21.78125,6.578125 C22.234375,6.296875 22.59375,6.40625 22.671875,6.71875 C22.71875,6.921875 22.703125,7.125 22.5625,7.375 C22.484375,7.515625 22.28125,7.71875 22.015625,7.90625 C21.765625,8.09375 21.453125,8.3125 21.21875,8.453125 C20.65625,8.75 19.828125,8.96875 19.078125,9.09375 C18.484375,9.1875 17.5625,9.21875 16.765625,9.1875 C16.203125,9.15625 15.546875,9.109375 14.921875,9.046875 C14.28125,8.984375 13.65625,8.90625 13.109375,8.8125 C13.171875,8.9375 13.25,9.078125 13.296875,9.265625 C13.421875,9.640625 13.484375,10.34375 13.484375,11.0625 C13.484375,11.421875 13.5,11.75 13.515625,12.078125 C13.8125,12.359375 14.015625,12.59375 14.3125,12.9375 C14.671875,13.375 14.765625,13.671875 14.640625,13.90625 C14.546875,14.078125 14.40625,14.234375 14.1875,14.3125 C13.953125,14.390625 13.625,14.328125 13.296875,14.234375 C13.15625,14.703125 12.921875,15.140625 12.71875,15.40625 C12.484375,15.734375 12.484375,15.875 12.875,16.03125 C13.015625,16.09375 13.296875,16.171875 13.609375,16.25 C13.90625,16.3125 14.234375,16.375 14.515625,16.421875 C15.40625,16.5625 15.609375,16.78125 15.578125,17.203125 C15.53125,17.859375 15.265625,18.265625 14.515625,18.640625 C14.015625,18.921875 13.3125,19.171875 12.1875,19.484375 Z M12.1875,11.328125 C12.1875,10.765625 12.125,10.125 12.046875,9.796875 C11.65625,10.125 11.265625,10.390625 10.96875,10.53125 Z M10.484375,10.25 C10.921875,10.015625 11.28125,9.578125 11.5,9.1875 C11.65625,8.921875 11.796875,8.765625 11.9375,8.640625 C10.1875,8.234375 8.640625,7.765625 7.125,7.0625 C5.90625,6.5 4.703125,5.921875 3.9375,5.546875 C4.46875,5.96875 4.921875,6.3125 5.3125,6.609375 C6.078125,7.1875 6.671875,7.625 7.1875,7.96875 C7.703125,8.328125 8.390625,8.78125 9.21875,9.390625 C9.625,9.6875 10.046875,9.96875 10.484375,10.25 Z M15.1875,0.921875 C14.90625,0.546875 14.40625,0.203125 13.8125,-0.078125 C13.203125,-0.34375 12.640625,-0.453125 12.21875,-0.453125 C11.140625,-0.453125 10.8125,-0.03125 10.8125,0.671875 C10.8125,1.0625 11,1.390625 11.40625,1.625 C11.75,1.859375 12.21875,1.953125 12.828125,1.953125 C13.578125,1.953125 14.34375,1.625 15.1875,0.921875 Z" transform="translate(-0.3515625, 19.484375) scale(1, -1)"/>
</svg>