<svg height="19.515625" viewBox="0 0 24 19.515625" width="24" xmlns="http://www.w3.org/2000/svg">
<path d="M4.171875,18.59375 C4.84375,17.9375 5.015625,17.3125 4.96875,16.515625 C4.953125,16.28125 4.90625,16.03125 4.859375,15.6875 C4.796875,15.328125 4.6875,14.875 4.53125,14.265625 C4.0625,12.375 3.765625,10.921875 3.546875,9.703125 C3.34375,8.484375 3.234375,7.484375 3.1875,6.5 C3.109375,5.046875 3.21875,3.796875 3.453125,2.515625 C3.65625,1.484375 3.859375,0.796875 4.03125,0.390625 C4.171875,0.046875 4.390625,-0.09375 4.625,-0.09375 C5.09375,-0.09375 5.390625,0.171875 5.421875,0.875 C5.46875,1.71875 5.609375,2.796875 5.84375,3.84375 C6.078125,4.90625 6.4375,5.984375 6.875,6.921875 L6.390625,7.25 C6,6.53125 5.65625,5.890625 5.359375,5.203125 C5.0625,4.53125 4.796875,3.828125 4.5625,2.984375 C4.421875,3.734375 4.34375,4.59375 4.328125,5.46875 C4.3125,6.359375 4.359375,7.25 4.46875,8.046875 C4.59375,9.015625 4.8125,10.1875 5.09375,11.375 C5.359375,12.578125 5.703125,13.796875 6.125,14.890625 C6.3125,15.40625 6.453125,15.828125 6.5,16.171875 C6.53125,16.515625 6.484375,16.8125 6.34375,17.140625 C6.125,17.609375 5.515625,18.359375 4.5625,18.96875 Z M10.109375,15.71875 C10.390625,15.421875 10.71875,15.171875 11.421875,14.859375 C11.796875,14.703125 12.0625,14.609375 12.359375,14.5625 C12.640625,14.5 12.96875,14.46875 13.421875,14.453125 C13.984375,14.4375 14.53125,14.46875 15.0625,14.5625 C16.109375,14.75 17.046875,15 17.859375,15.234375 C18.265625,15.34375 18.59375,15.4375 18.890625,15.5 C17.234375,13.734375 15.578125,11.875 14.078125,10.078125 C12.5625,8.28125 11.203125,6.546875 10.125,5.09375 C9.921875,4.8125 9.734375,4.609375 9.5625,4.4375 C9.203125,4.109375 8.796875,3.734375 8.65625,3.453125 C8.515625,3.171875 8.4375,2.71875 8.4375,2.375 C8.4375,2.203125 8.453125,2.0625 8.46875,1.953125 C8.5625,1.515625 8.890625,1.359375 9.359375,1.71875 C9.828125,2.0625 10.171875,2.453125 10.578125,2.953125 C11.234375,3.765625 11.984375,4.515625 12.578125,5.0625 C12.828125,5.296875 13.015625,5.421875 13.1875,5.421875 C13.359375,5.421875 13.5,5.3125 13.671875,5.046875 C13.953125,4.65625 14.25,4.03125 14.515625,3.265625 C14.75,2.671875 15.046875,2.453125 15.390625,2.453125 C15.75,2.453125 16.015625,2.5625 16.328125,2.9375 C16.90625,3.625 17.40625,4.15625 17.796875,4.546875 C18.203125,4.9375 18.5,5.1875 18.6875,5.328125 C18.96875,5.53125 19.328125,5.609375 19.65625,5.609375 C20.109375,5.609375 20.375,5.265625 20.375,4.65625 C20.375,4.328125 20.328125,4.015625 20.1875,3.65625 C20.03125,3.3125 19.765625,2.90625 19.34375,2.421875 C18.5,1.4375 17.3125,0.578125 16.078125,-0.140625 L16.484375,-0.546875 C17.0625,-0.3125 17.71875,0.03125 18.359375,0.421875 C19.015625,0.8125 19.640625,1.25 20.15625,1.703125 C20.734375,2.21875 21.1875,2.65625 21.5,3.125 C21.796875,3.578125 21.96875,4.046875 21.96875,4.609375 C21.96875,5.09375 21.71875,5.515625 21.34375,5.828125 C20.96875,6.125 20.453125,6.296875 19.921875,6.296875 C19.390625,6.296875 18.78125,6.09375 18.296875,5.8125 C18.0625,5.671875 17.703125,5.421875 17.34375,5.15625 C16.984375,4.875 16.625,4.578125 16.34375,4.296875 C16.203125,4.15625 16.0625,4.078125 15.96875,4.109375 C15.765625,4.15625 15.578125,4.53125 15.46875,4.734375 L15.3125,5.046875 C15.203125,5.234375 15.09375,5.40625 14.90625,5.640625 C14.546875,6.09375 14.234375,6.3125 13.671875,6.3125 C13.40625,6.3125 13.0625,6.25 12.59375,5.9375 C12,5.515625 11.234375,4.828125 10.421875,4.03125 C11.71875,5.8125 13.015625,7.53125 14.46875,9.21875 C15.921875,10.890625 17.53125,12.546875 19.4375,14.234375 C19.875,14.609375 20.1875,14.765625 20.46875,14.859375 C20.703125,14.9375 21,15.046875 21.140625,15.1875 C21.34375,15.390625 21.328125,15.625 21.046875,15.9375 C20.859375,16.15625 20.5625,16.46875 20.328125,16.609375 C20.046875,16.78125 19.671875,16.8125 19.34375,16.671875 C18.875,16.484375 18.53125,16.34375 18.03125,16.21875 C16.625,15.875 15.40625,15.703125 14.328125,15.640625 C13.25,15.59375 12.34375,15.640625 11.640625,15.734375 C11.15625,15.828125 10.78125,15.96875 10.390625,16.203125 Z" transform="translate(-0.5390625, 18.96875) scale(1, -1)"/>
</svg>