<svg height="19.6875" viewBox="0 0 24 19.6875" width="24" xmlns="http://www.w3.org/2000/svg">
<path d="M13.859375,16.859375 C14.1875,17.21875 14.75,17.515625 15.3125,17.703125 C15.546875,17.796875 15.6875,17.796875 15.734375,17.75 C15.8125,17.6875 15.78125,17.546875 15.6875,17.3125 C15.125,15.84375 14.40625,14.515625 13.515625,13.203125 C13.15625,12.671875 12.890625,12.4375 12.546875,12.1875 C12.234375,11.96875 12.03125,11.578125 12.078125,11.3125 C12.109375,10.953125 12.15625,10.6875 12.234375,10.515625 C12.4375,10.125 12.671875,10.125 13.015625,10.53125 C13.421875,11.015625 13.921875,11.515625 14.453125,12 C15.25,12.71875 16.03125,13.328125 16.96875,13.8125 C17.671875,14.171875 18.1875,14.375 18.84375,14.328125 C19.609375,14.296875 19.921875,13.8125 19.921875,13.015625 C19.921875,12.3125 19.78125,11.703125 19.34375,11.28125 C19.03125,10.96875 18.703125,10.734375 18.53125,10.65625 C18.171875,10.484375 17.703125,10.390625 17.328125,10.34375 C17.28125,10.671875 17.140625,10.921875 16.875,11.09375 C16.609375,11.265625 16.421875,11.265625 16.125,11.234375 C15.875,11.1875 15.703125,11.1875 15.53125,11.140625 C15.34375,11.078125 15.15625,10.984375 14.890625,10.828125 L15,10.375 C15.109375,10.390625 15.21875,10.421875 15.296875,10.4375 C15.46875,10.484375 15.6875,10.46875 15.78125,10.234375 C15.8125,10.109375 15.828125,9.890625 15.796875,9.546875 C15.75,8.859375 15.59375,8.046875 15.34375,7.21875 C15.09375,6.375 14.75,5.515625 14.359375,4.8125 C13.953125,4.0625 13.65625,3.578125 13.390625,3.21875 C13.140625,2.84375 12.890625,2.625 12.59375,2.375 C12.140625,2 11.8125,1.75 11.40625,1.46875 C10.6875,0.984375 10.609375,0.40625 10.65625,-0.078125 C10.671875,-0.265625 10.796875,-0.390625 10.984375,-0.40625 C11.15625,-0.4375 11.375,-0.359375 11.609375,-0.140625 C11.8125,0.0625 12.03125,0.25 12.234375,0.453125 C12.4375,0.640625 12.671875,0.859375 12.921875,1.109375 C13.515625,1.703125 14.015625,2.234375 14.5,2.546875 C15.09375,2.9375 15.53125,3.078125 16.0625,3.078125 C16.65625,3.078125 17.3125,2.765625 17.9375,2.3125 C18.828125,1.65625 19.515625,0.96875 20.109375,0.265625 C20.546875,-0.234375 20.8125,-0.46875 21.1875,-0.546875 C21.65625,-0.640625 21.890625,-0.40625 21.890625,0.1875 C21.890625,0.59375 21.734375,1.015625 21.359375,1.328125 C21,1.640625 20.6875,1.859375 20.3125,2.140625 C19.671875,2.5625 19.078125,2.890625 18.265625,3.265625 C17.75,3.515625 17.046875,3.734375 16.25,3.734375 C15.59375,3.734375 15.140625,3.578125 14.6875,3.390625 C15.09375,3.953125 15.5,4.625 15.859375,5.296875 C16.203125,5.984375 16.53125,6.6875 16.765625,7.34375 C17.09375,8.28125 17.25,9.1875 17.28125,9.6875 C18.09375,9.6875 19.15625,9.890625 20.09375,10.53125 C21.015625,11.171875 21.484375,11.984375 21.484375,12.96875 C21.484375,13.71875 21.21875,14.1875 20.5625,14.59375 C20.140625,14.859375 19.59375,14.953125 18.796875,14.953125 C18.40625,14.953125 17.921875,14.84375 17.4375,14.6875 C16.953125,14.515625 16.46875,14.296875 16.0625,14.0625 C15.6875,13.859375 15.421875,13.71875 15.140625,13.53125 C14.84375,13.34375 14.546875,13.125 14.109375,12.796875 C14.4375,13.203125 14.796875,13.65625 15.15625,14.15625 C15.515625,14.65625 15.90625,15.171875 16.296875,15.71875 C16.53125,16.03125 16.78125,16.359375 17,16.671875 C17.109375,16.828125 17.21875,16.984375 17.328125,17.125 C17.515625,17.390625 17.734375,17.609375 17.734375,18 C17.734375,18.1875 17.671875,18.359375 17.5625,18.484375 C17.328125,18.796875 17,19.046875 16.53125,19.015625 C16.171875,18.96875 15.90625,18.921875 15.59375,18.796875 C15.265625,18.671875 14.9375,18.484375 14.46875,18.171875 C14.140625,17.9375 13.78125,17.640625 13.421875,17.234375 Z M6.140625,14.453125 C6.796875,13.921875 7.640625,13.671875 8.859375,13.765625 C9.21875,13.765625 9.609375,13.859375 9.953125,13.953125 C10.296875,14.03125 10.59375,14.140625 10.78125,14.234375 C11.1875,14.453125 11.453125,14.6875 11.453125,15.1875 C11.453125,15.578125 11.375,15.828125 11.15625,16.25 C10.984375,16.5625 10.640625,16.96875 10.375,17.265625 C10.03125,17.625 9.578125,17.96875 9.125,18.234375 C8.5625,18.546875 8.015625,18.59375 7.609375,18.4375 C7.3125,18.328125 6.9375,18.125 6.546875,17.75 C6.171875,17.359375 5.75,16.75 5.328125,15.84375 C5.046875,15.1875 4.828125,14.484375 4.671875,13.828125 C4.53125,13.15625 4.4375,12.546875 4.390625,12.078125 C4.34375,11.421875 4.3125,10.96875 4.28125,10.578125 C4.234375,10.203125 4.21875,9.859375 4.21875,9.484375 C4.21875,8.859375 4.5625,8.703125 5.046875,8.703125 C5.75,8.703125 6.234375,8.6875 6.59375,8.640625 C6.9375,8.59375 7.15625,8.515625 7.375,8.40625 C7.015625,8 6.40625,7.296875 5.796875,6.59375 C5.1875,5.875 4.546875,5.140625 4.125,4.65625 C3.765625,4.25 3.359375,3.78125 3,3.5 C2.5625,3.1875 2.359375,3.265625 2.359375,3.625 C2.359375,4.015625 2.46875,4.46875 2.609375,4.8125 L2.109375,5 C1.828125,4.53125 1.65625,4.15625 1.5625,3.75 C1.453125,3.359375 1.421875,2.921875 1.421875,2.359375 C1.421875,1.953125 1.5625,1.609375 1.8125,1.28125 C1.984375,1.03125 2.234375,0.96875 2.421875,0.96875 C2.546875,0.96875 2.671875,1.015625 2.8125,1.15625 C2.953125,1.28125 3.140625,1.53125 3.390625,1.90625 C3.515625,2.09375 3.734375,2.390625 3.96875,2.65625 C4.203125,2.15625 4.375,1.75 4.828125,1.203125 C5.453125,0.453125 5.96875,0.09375 6.671875,0.09375 C7.5625,0.09375 8.234375,0.453125 9.03125,1.421875 C9.484375,1.96875 9.78125,2.640625 9.96875,3.296875 C10.15625,3.953125 10.25,4.578125 10.25,5.09375 C10.25,5.1875 10.25,5.3125 10.25,5.421875 C10.25,5.515625 10.25,5.625 10.25,5.75 C10.234375,5.984375 10.203125,6.265625 10.109375,6.640625 C9.96875,7.15625 9.859375,7.5 9.640625,7.8125 C9.4375,8.140625 9.140625,8.40625 8.703125,8.734375 C9.546875,9.71875 10.375,10.859375 11,11.84375 L10.5625,12.1875 C10.28125,11.78125 9.859375,11.296875 9.390625,10.796875 C8.90625,10.28125 8.375,9.734375 7.875,9.234375 C7.234375,9.421875 6.78125,9.5 6,9.546875 C5.640625,9.59375 5.53125,9.6875 5.5625,10.0625 C5.609375,10.765625 5.703125,11.65625 5.796875,12.453125 C5.890625,13.25 6.015625,14 6.140625,14.453125 Z M6.3125,15.21875 C6.375,15.59375 6.453125,15.875 6.546875,16.140625 C6.640625,16.390625 6.765625,16.625 6.9375,16.90625 C7.296875,17.5 7.703125,17.859375 8.359375,17.859375 C8.71875,17.859375 9.109375,17.609375 9.53125,17.09375 C9.75,16.8125 10,16.4375 10.125,15.96875 C10.265625,15.40625 10.15625,15.21875 9.625,15.046875 C9.140625,14.890625 8.421875,14.796875 7.671875,14.84375 C6.96875,14.890625 6.546875,15.03125 6.3125,15.21875 Z M8.203125,8.015625 C8.5,7.703125 8.609375,7.296875 8.703125,6.6875 C8.796875,6.140625 8.84375,5.5625 8.84375,5.140625 C8.84375,4.15625 8.65625,3.359375 8.328125,2.703125 C7.921875,1.859375 7.375,1.4375 6.53125,1.4375 C6.125,1.4375 5.8125,1.625 5.328125,2.15625 C5.09375,2.421875 4.765625,2.953125 4.578125,3.34375 C5.09375,4.109375 5.71875,4.984375 6.359375,5.796875 C7.015625,6.625 7.65625,7.40625 8.203125,8.015625 Z" transform="translate(0.34375, 19.046875) scale(1, -1)"/>
</svg>