<svg height="18.703125" viewBox="0 0 24 18.703125" width="24" xmlns="http://www.w3.org/2000/svg">
<path d="M18,18.078125 C17.640625,18.03125 17.171875,18 16.5,17.9375 C15.828125,17.859375 14.96875,17.765625 13.828125,17.65625 C13.265625,17.609375 12.671875,17.546875 12.03125,17.484375 C11.375,17.421875 10.75,17.34375 10.109375,17.28125 C9.453125,17.21875 8.828125,17.140625 8.203125,17.09375 L6.5,16.90625 C5.65625,16.8125 5.015625,16.78125 4.546875,16.921875 C4.0625,17.0625 3.734375,17.359375 3.453125,17.90625 L2.953125,17.609375 C3.0625,17.234375 3.21875,16.796875 3.421875,16.390625 C3.640625,15.96875 3.921875,15.59375 4.296875,15.3125 C4.59375,15.09375 4.984375,15.171875 5.6875,15.359375 C6.734375,15.640625 7.8125,15.875 8.84375,16.0625 C9.859375,16.25 10.8125,16.390625 11.59375,16.484375 C14.90625,16.90625 17.421875,16.921875 19.421875,16.53125 C19.578125,16.5 19.71875,16.484375 19.859375,16.484375 C20.09375,16.484375 20.296875,16.53125 20.40625,16.578125 C20.46875,16.59375 20.5,16.625 20.515625,16.625 C20.671875,16.71875 20.765625,16.921875 20.765625,17.109375 C20.765625,17.40625 20.5,17.6875 20.15625,17.84375 C19.796875,17.984375 19.484375,18.0625 19.140625,18.09375 C18.796875,18.125 18.4375,18.109375 18,18.078125 Z M10.125,13.0625 C10.5625,11.890625 11.15625,11.140625 11.703125,11.0625 C12.40625,10.96875 13.40625,11.15625 14.953125,11.65625 C14.515625,10.953125 14.1875,10.265625 13.96875,9.6875 C13.734375,9.078125 13.875,8.75 14.640625,8.5625 C15.53125,8.375 16.265625,8.03125 16.78125,7.375 C17.203125,6.828125 17.375,5.984375 17.375,4.90625 C17.375,3.734375 16.703125,2.609375 15.625,1.71875 C15.109375,1.296875 14.484375,0.96875 13.8125,0.703125 C13.15625,0.453125 12.4375,0.296875 11.765625,0.296875 L11.34375,0.296875 C11.21875,0.296875 11.09375,0.3125 10.96875,0.3125 C10.9375,1.71875 10.578125,2.71875 10.0625,3.390625 C9.546875,4.0625 8.84375,4.375 8.15625,4.375 C7.65625,4.375 7.15625,4.171875 6.796875,3.828125 C6.4375,3.46875 6.21875,2.953125 6.265625,2.375 C6.328125,1.625 6.71875,0.890625 7.578125,0.34375 C8.421875,-0.21875 9.765625,-0.578125 11.734375,-0.578125 C12.75,-0.578125 13.71875,-0.40625 14.5625,-0.109375 C15.421875,0.1875 16.203125,0.59375 16.859375,1.0625 C18.265625,2.046875 19.03125,3.390625 19.03125,4.90625 C19.03125,5.59375 18.953125,6.09375 18.8125,6.515625 C18.65625,6.9375 18.453125,7.25 18.171875,7.578125 C17.828125,8 17.46875,8.28125 17.03125,8.515625 C16.59375,8.734375 16.0625,8.890625 15.40625,9.078125 C15.21875,9.125 15.078125,9.171875 14.96875,9.21875 C14.859375,9.265625 14.796875,9.328125 14.75,9.390625 C14.6875,9.515625 14.75,9.65625 14.90625,9.890625 C15.046875,10.109375 15.3125,10.4375 15.625,10.765625 C15.9375,11.09375 16.296875,11.421875 16.671875,11.65625 C17.28125,12.03125 17.28125,12.453125 16.578125,12.984375 C16.078125,13.375 15.71875,13.375 15.140625,13.03125 C14.375,12.578125 13.4375,12.3125 12.40625,12.3125 C11.5625,12.3125 11.09375,12.640625 10.703125,13.34375 Z M8.28125,3.234375 C8.65625,3.234375 9.03125,3.046875 9.359375,2.609375 C9.671875,2.15625 9.921875,1.4375 10.078125,0.40625 C9.109375,0.546875 8.46875,0.828125 8.09375,1.203125 C7.71875,1.5625 7.546875,1.984375 7.53125,2.40625 C7.5,2.90625 7.78125,3.234375 8.28125,3.234375 Z" transform="translate(0.140625, 18.125) scale(1, -1)"/>
</svg>