<svg height="20.90625" viewBox="0 0 24 20.90625" width="24" xmlns="http://www.w3.org/2000/svg">
<path d="M13.34375,18.03125 C14.234375,18.390625 14.765625,18.5 15.234375,18.5 C15.59375,18.5 15.6875,18.3125 15.453125,17.796875 C14.9375,16.515625 14.234375,14.96875 13.375,13.078125 C12.75,13.171875 12.015625,13.0625 10.90625,12.40625 C10.28125,12.046875 9.6875,11.640625 9.078125,11.015625 C8.609375,10.5625 8.328125,10.125 8.328125,9.734375 C8.328125,9.359375 8.5,9 8.9375,8.640625 C9.484375,8.1875 9.9375,7.921875 10.484375,7.71875 C10.3125,7.5625 10.109375,7.390625 9.875,7.203125 C9.40625,6.84375 8.875,6.46875 8.34375,6.109375 L7.578125,5.5625 L6.53125,4.828125 C6.078125,4.515625 5.796875,4.40625 5.515625,4.328125 C5.15625,4.21875 4.953125,4.015625 4.953125,3.5 C4.953125,3.359375 4.953125,3.234375 4.984375,3.140625 C5.015625,2.953125 5.0625,2.609375 5.421875,2.609375 C5.59375,2.609375 5.890625,2.703125 6.296875,2.890625 C6.828125,3.109375 7.5,3.359375 8.28125,3.640625 C9.609375,4.125 10.859375,4.484375 11.9375,4.671875 C11.375,4.15625 10.578125,3.4375 9.640625,2.6875 C8.890625,2.0625 8.328125,1.734375 7.90625,1.46875 C7.765625,1.390625 7.625,1.296875 7.453125,1.234375 L6.9375,0.984375 C6.65625,0.84375 6.453125,0.75 6.296875,0.609375 C6.125,0.46875 6,0.3125 5.859375,0.03125 C5.65625,-0.40625 5.609375,-0.734375 5.703125,-0.96875 C5.75,-1.078125 5.859375,-1.140625 6.015625,-1.140625 C6.3125,-1.15625 6.671875,-0.96875 7.109375,-0.578125 L7.859375,0.046875 C8.40625,0.515625 9.125,1.015625 9.828125,1.421875 C10.28125,1.6875 10.671875,1.8125 11.265625,1.859375 C11.828125,1.859375 12.265625,1.84375 12.671875,1.765625 C13.078125,1.671875 13.453125,1.5625 13.921875,1.421875 C14.6875,1.1875 15.625,0.59375 16.515625,-0.125 C16.75,-0.3125 16.90625,-0.4375 17.046875,-0.5625 C17.1875,-0.703125 17.328125,-0.828125 17.5,-0.96875 C17.9375,-1.328125 18.234375,-1.3125 18.5,-1.21875 C18.96875,-1.03125 19.125,-0.40625 18.546875,0.171875 C18.125,0.59375 17.71875,0.9375 17.203125,1.21875 C16.734375,1.484375 15.9375,1.859375 15.046875,2.140625 C14.171875,2.40625 13.4375,2.53125 12.734375,2.578125 C12.03125,2.625 11.34375,2.578125 10.625,2.453125 C11.09375,2.828125 11.609375,3.234375 12.078125,3.625 C12.5625,4 13.03125,4.359375 13.375,4.609375 C14.046875,5.109375 14.5,5.34375 14.984375,5.421875 C15.6875,5.53125 16.296875,5.65625 16.96875,5.84375 C17.546875,5.984375 17.71875,6.265625 17.5,6.53125 C17.296875,6.765625 17,7.046875 16.53125,7.21875 C16.109375,7.390625 15.765625,7.328125 15.140625,6.96875 C14.734375,6.734375 14.328125,6.484375 13.828125,6.171875 C13.484375,5.9375 13.15625,5.796875 12.578125,5.65625 C12.171875,5.578125 11.734375,5.484375 11.28125,5.390625 L9.921875,5.109375 C9.015625,4.921875 8.09375,4.734375 7.296875,4.5625 L8.421875,5.328125 C8.796875,5.578125 9.171875,5.84375 9.53125,6.078125 C10.234375,6.578125 10.875,7.03125 11.359375,7.421875 C11.984375,7.296875 12.21875,7.4375 12.359375,7.875 C12.4375,8.078125 12.5,8.265625 12.5625,8.4375 L12.734375,8.953125 C12.796875,9.140625 12.875,9.265625 12.96875,9.4375 C13.078125,9.59375 13.25,9.78125 13.484375,10.0625 C13.953125,10.578125 14.21875,10.953125 14.359375,11.5 C14.5,12.09375 14.46875,12.5 14.09375,12.84375 C14.296875,13.265625 14.515625,13.6875 14.75,14.09375 C15.1875,14.921875 15.609375,15.640625 16,16.296875 C16.1875,16.625 16.34375,16.90625 16.484375,17.15625 C16.671875,17.5 16.953125,17.84375 17.203125,18.171875 C17.484375,18.53125 17.46875,19.015625 17,19.328125 C16.703125,19.515625 16.109375,19.578125 15.59375,19.484375 C14.890625,19.390625 14.046875,19.078125 13.109375,18.5 Z M7.765625,18.6875 C7.46875,18.3125 7.25,17.796875 7.203125,17.1875 C7.15625,16.671875 7.296875,16.171875 7.53125,15.890625 C7.96875,15.359375 8.515625,15.28125 9.3125,15.9375 C9.765625,16.3125 10.1875,16.640625 10.59375,16.9375 C11,17.234375 11.34375,17.484375 11.640625,17.703125 L11.359375,18.140625 C10.75,17.75 9.96875,17.265625 9.171875,16.953125 C8.5625,16.703125 8.28125,16.8125 8.15625,17.234375 C8.03125,17.640625 8.140625,18.140625 8.265625,18.59375 Z M13.0625,12.265625 L12.4375,10.78125 C12.234375,10.296875 12.046875,9.859375 11.890625,9.4375 C11.703125,9.015625 11.515625,8.71875 11.265625,8.5625 C10.765625,8.25 9.734375,8.875 9.734375,9.4375 C9.734375,9.734375 9.875,10.046875 10.125,10.375 C10.5625,10.921875 11,11.375 11.65625,11.84375 C12.21875,12.21875 12.71875,12.359375 13.0625,12.265625 Z" transform="translate(-0.0390625, 19.578125) scale(1, -1)"/>
</svg>