<svg height="21.03125" viewBox="0 0 24 21.03125" width="24" xmlns="http://www.w3.org/2000/svg">
<path d="M10.203125,19.71875 C10.65625,19.453125 10.90625,19.15625 11,18.921875 C11.125,18.546875 11.03125,18.09375 10.78125,17.703125 C10.5,17.28125 10.015625,16.625 9.5,15.96875 C8.984375,15.328125 8.40625,14.71875 7.953125,14.359375 C7.609375,14.09375 7.4375,13.703125 7.578125,13.21875 C7.71875,12.765625 7.953125,12.546875 8.515625,12.890625 C8.9375,13.140625 9.5,13.4375 10.109375,13.71875 C10.703125,13.984375 11.328125,14.234375 11.875,14.4375 C12.421875,14.640625 12.890625,14.78125 13.171875,14.8125 L11.28125,13.34375 C10.65625,12.875 10.078125,12.421875 9.546875,12.015625 C8.46875,11.171875 7.53125,10.453125 6.875,9.890625 C6.640625,9.6875 6.421875,9.546875 6.203125,9.40625 L5.546875,9.03125 C5.3125,8.890625 5.046875,8.65625 4.875,8.140625 C4.78125,7.859375 4.671875,7.5 4.671875,7.28125 C4.671875,6.890625 4.90625,6.71875 5.1875,6.71875 C5.265625,6.71875 5.375,6.75 5.484375,6.8125 C5.609375,6.875 5.75,6.984375 5.90625,7.171875 C6.15625,7.453125 6.6875,7.8125 7.359375,8.15625 C8.015625,8.515625 8.796875,8.84375 9.546875,9.171875 C10.5,9.546875 11.28125,9.8125 11.9375,9.96875 C12.59375,10.109375 13.140625,10.15625 13.65625,10.15625 C14.734375,10.15625 15.515625,9.734375 16.015625,9.046875 C16.53125,8.359375 16.765625,7.40625 16.765625,6.34375 C16.765625,5.53125 16.625,4.765625 16.34375,4.03125 C15.265625,4.484375 14.1875,4.78125 13.15625,4.921875 C13.296875,5.375 13.390625,5.8125 13.390625,6.265625 C13.390625,7.484375 12.78125,8.140625 11.640625,8.140625 C10.8125,8.140625 10,7.71875 9.3125,7.0625 C8.609375,6.421875 8.0625,5.53125 7.78125,4.625 C7.234375,4.484375 6.828125,4.34375 6.453125,4.171875 C5.28125,3.625 4.640625,3.125 4.28125,2.765625 C3.84375,2.328125 3.71875,1.90625 3.71875,1.625 C3.71875,1.15625 3.9375,0.640625 4.34375,0.3125 C4.859375,-0.09375 5.421875,-0.1875 6.140625,-0.1875 C6.890625,-0.1875 7.765625,0.03125 8.609375,0.40625 C9.546875,-0.578125 10.53125,-0.921875 11.46875,-0.921875 C11.78125,-0.921875 12.109375,-0.90625 12.46875,-0.875 C13.171875,-0.8125 13.984375,-0.5625 14.84375,-0.046875 C15.6875,0.453125 16.578125,1.359375 17.140625,2.203125 C18.5,1.453125 19.78125,0.484375 20.859375,-0.5 C21.3125,-0.921875 21.796875,-0.84375 22.03125,-0.34375 C22.3125,0.28125 21.921875,0.84375 21.21875,1.328125 C20.1875,2.03125 19.078125,2.6875 17.703125,3.390625 C18.046875,4.25 18.21875,5.171875 18.21875,6.140625 C18.21875,7.5625 17.859375,8.796875 17.15625,9.65625 C16.453125,10.53125 15.40625,11.046875 14,11.046875 C12.15625,11.046875 10.046875,10.53125 7.921875,9.5 C8.4375,9.9375 8.984375,10.390625 9.53125,10.8125 C10.625,11.703125 11.65625,12.484375 12.5,13.09375 C13.34375,13.703125 14.109375,14.21875 14.6875,14.53125 C14.984375,14.6875 15.1875,14.796875 15.34375,14.859375 C15.78125,15.046875 15.828125,15.359375 15.625,15.625 C15.4375,15.890625 15.203125,16.09375 14.984375,16.21875 C14.59375,16.4375 14.15625,16.5625 13.484375,16.171875 C13.109375,15.953125 12.5,15.671875 11.796875,15.390625 C11.109375,15.09375 10.359375,14.8125 9.734375,14.59375 C10.484375,15.46875 11.046875,16.234375 11.6875,17.203125 C11.984375,17.65625 12.09375,18.0625 12.09375,18.40625 C12.09375,18.734375 11.984375,19.015625 11.84375,19.21875 C11.59375,19.5625 11.21875,19.890625 10.5625,20.109375 Z M11.203125,7.296875 C11.484375,7.296875 11.65625,7.25 11.765625,7.109375 C11.875,6.953125 11.90625,6.671875 11.90625,6.234375 C11.90625,5.859375 11.84375,5.453125 11.6875,5.0625 C10.515625,5.0625 9.578125,5 8.6875,4.828125 C8.953125,5.5625 9.4375,6.1875 9.921875,6.625 C10.421875,7.046875 10.90625,7.296875 11.203125,7.296875 Z M8.46875,3.796875 C9.5,4.03125 10.34375,4.140625 11.203125,4.109375 C10.578125,3.125 9.796875,2.3125 8.953125,1.703125 C8.75,2.078125 8.640625,2.40625 8.5625,2.734375 C8.5,3.0625 8.46875,3.390625 8.46875,3.796875 Z M12.671875,3.96875 C13.84375,3.734375 14.796875,3.359375 15.828125,2.90625 C15.53125,2.359375 15.171875,1.90625 14.796875,1.53125 C14.1875,0.921875 13.6875,0.578125 13.171875,0.375 C12.640625,0.171875 12.09375,0.125 11.375,0.125 C10.71875,0.125 10.078125,0.390625 9.578125,0.890625 C10.4375,1.453125 11.09375,2.015625 11.59375,2.53125 C12.078125,3.046875 12.421875,3.546875 12.671875,3.96875 Z M7.578125,3.53125 C7.546875,2.546875 7.71875,1.8125 8.0625,1.15625 C7.34375,0.78125 6.65625,0.609375 5.953125,0.578125 C5.28125,0.546875 4.90625,0.84375 4.90625,1.421875 C4.90625,1.625 5.03125,1.859375 5.28125,2.1875 C5.515625,2.484375 5.9375,2.78125 6.5,3.078125 C6.84375,3.25 7.203125,3.390625 7.578125,3.53125 Z" transform="translate(-1.015625, 20.109375) scale(1, -1)"/>
</svg>