<svg height="20.015625" viewBox="0 0 24 20.015625" width="24" xmlns="http://www.w3.org/2000/svg">
<path d="M3.96875,15.1875 C4.109375,14.65625 4.34375,14.140625 4.765625,13.609375 C5.03125,13.265625 5.203125,13.140625 5.5625,13.03125 C5.90625,12.9375 6.21875,12.96875 6.78125,13.109375 C7.296875,13.25 7.859375,13.515625 8.421875,13.8125 C8.828125,14 9.203125,14.203125 9.546875,14.375 C9.90625,14.5625 10.21875,14.703125 10.515625,14.859375 C10.390625,14.359375 10.203125,13.640625 9.953125,12.859375 C9.703125,12.0625 9.40625,11.1875 9.09375,10.390625 C9.03125,10.25 9,10.125 9,10.046875 L9,9.734375 C9,9.421875 9.140625,9.15625 9.578125,9.078125 C9.65625,9.0625 9.75,9.046875 9.859375,9.03125 L10.171875,9 C10.671875,8.921875 11.09375,8.84375 11.453125,8.59375 C11.9375,8.265625 12.34375,7.890625 12.625,7.28125 C12.90625,6.671875 13.0625,5.828125 13.0625,4.5625 C13.0625,3.890625 12.953125,3.171875 12.734375,2.546875 C12.5,1.90625 12.1875,1.359375 11.765625,1.03125 C11.359375,0.71875 11.046875,0.59375 10.734375,0.59375 C10.4375,0.59375 10.15625,0.765625 9.828125,1.015625 C8.9375,1.71875 8.265625,2.40625 7.765625,3.34375 C8.65625,4.328125 9.6875,5.109375 10.828125,5.953125 L10.578125,6.5 C9.40625,5.703125 8.375,4.90625 7.34375,4.015625 C7.15625,4.296875 6.96875,4.578125 6.671875,4.953125 C6.40625,5.28125 6.1875,5.46875 5.984375,5.578125 C5.765625,5.6875 5.5625,5.703125 5.28125,5.703125 C4.8125,5.703125 4.234375,5.515625 3.53125,4.703125 C2.875,3.9375 2.46875,2.84375 2.46875,1.515625 C2.46875,0.484375 2.890625,-0.078125 3.34375,-0.078125 C3.578125,-0.078125 3.78125,-0.03125 4.015625,0.109375 C4.25,0.234375 4.515625,0.453125 4.90625,0.828125 C5.84375,1.71875 6.6875,2.453125 7.21875,2.84375 C7.40625,2.46875 7.75,1.90625 8.125,1.359375 C8.5,0.8125 8.90625,0.28125 9.234375,0 C9.625,-0.328125 10.0625,-0.640625 10.609375,-0.640625 C11.546875,-0.640625 12.359375,-0.3125 13.28125,0.640625 C13.671875,1.0625 14.015625,1.640625 14.265625,2.34375 C14.5,3.03125 14.640625,3.8125 14.640625,4.609375 C14.640625,5.703125 14.515625,6.53125 14.046875,7.421875 C13.578125,8.265625 13.015625,8.84375 12.359375,9.21875 C11.796875,9.53125 11.015625,9.734375 10.421875,9.828125 C10.015625,9.875 9.921875,9.984375 10.109375,10.390625 C10.25,10.71875 10.40625,11.078125 10.578125,11.5 C10.921875,12.328125 11.28125,13.265625 11.65625,14.21875 C11.828125,14.6875 12,15.125 12.171875,15.546875 C12.546875,15.828125 13.265625,16.15625 13.921875,16.421875 C14.640625,16.71875 15.46875,16.859375 16.21875,16.859375 C17.40625,16.859375 17.890625,16.484375 17.890625,15.6875 C17.890625,15.171875 17.609375,14.90625 17,14.609375 C16.421875,14.34375 15.84375,14.265625 15.234375,14.265625 C14.640625,14.265625 14.15625,14.328125 13.53125,14.546875 L13.421875,14.0625 C13.828125,13.78125 14.453125,13.5625 15.21875,13.515625 C15.921875,13.46875 16.5625,13.53125 17.40625,13.78125 C18.671875,14.140625 19.4375,14.84375 19.4375,15.59375 C19.4375,16.109375 19.296875,16.53125 18.546875,17 C18.03125,17.328125 17.203125,17.5 16.484375,17.5 C16.078125,17.5 15.734375,17.46875 15.390625,17.421875 C15.03125,17.375 14.65625,17.28125 14.203125,17.15625 C13.5,16.96875 12.984375,16.71875 12.3125,16.34375 C12.359375,16.53125 12.40625,16.71875 12.4375,16.875 C12.46875,17.046875 12.5,17.203125 12.546875,17.375 C12.640625,17.65625 12.671875,17.9375 12.671875,18.171875 C12.671875,18.640625 12.1875,19.0625 11.46875,19.25 C11,19.375 10.421875,19.375 9.796875,19.15625 C9.296875,18.96875 9.046875,18.796875 8.765625,18.578125 L9.078125,18.125 C9.4375,18.3125 9.640625,18.375 9.9375,18.40625 C10.5625,18.46875 11,18.390625 11,17.84375 C11,17.265625 10.90625,16.484375 10.703125,15.734375 C10.125,15.453125 9.3125,15.078125 8.46875,14.84375 C7.484375,14.5625 6.875,14.421875 6.40625,14.375 C5.9375,14.328125 5.671875,14.421875 5.40625,14.609375 C5.125,14.8125 4.921875,14.96875 4.78125,15.125 C4.625,15.265625 4.515625,15.421875 4.421875,15.640625 Z M15.984375,8.515625 C16.203125,8.75 16.515625,8.96875 16.921875,9.1875 C17.578125,9.546875 17.84375,9.484375 17.84375,8.984375 C17.84375,8.375 17.71875,7.859375 17.46875,7.0625 C17.1875,6.125 16.984375,5.421875 16.8125,4.765625 C16.578125,3.875 16.703125,3.296875 17.0625,2.953125 C17.3125,2.71875 17.75,2.484375 18.21875,2.296875 C18.671875,2.109375 19.15625,1.953125 19.5625,1.90625 C19.953125,1.8125 20.46875,1.765625 20.734375,1.765625 C21.09375,1.765625 21.359375,1.796875 21.546875,1.875 C21.78125,1.96875 22.015625,2.140625 22.015625,2.46875 C22.015625,2.65625 21.84375,2.984375 21.59375,3.125 C21.265625,3.3125 21.03125,3.328125 20.59375,3.296875 C20.015625,3.265625 19.296875,3.3125 18.828125,3.4375 C18.546875,3.515625 18.234375,3.59375 18,3.78125 C17.5625,4.0625 17.546875,4.328125 17.765625,4.96875 C18.09375,5.953125 18.484375,6.78125 18.828125,7.484375 C19.203125,8.28125 19.515625,9.09375 19.46875,9.671875 C19.421875,10.25 19.0625,10.46875 18.359375,10.46875 C17.84375,10.46875 17.3125,10.28125 16.515625,9.71875 L16.28125,9.546875 C16.203125,9.5 16.140625,9.453125 16.078125,9.390625 C15.9375,9.28125 15.8125,9.171875 15.625,8.984375 Z M6.671875,3.453125 C6.46875,3.3125 6.125,3.046875 5.75,2.75 C5.359375,2.4375 4.953125,2.09375 4.65625,1.859375 C4.453125,1.6875 4.296875,1.578125 4.1875,1.53125 C4.0625,1.46875 3.96875,1.46875 3.90625,1.515625 C3.78125,1.59375 3.734375,1.859375 3.734375,2.234375 C3.734375,2.515625 3.828125,2.9375 3.921875,3.34375 C4.03125,3.734375 4.171875,4.109375 4.296875,4.34375 C4.71875,5.140625 5.1875,5.15625 5.5625,4.875 C6.078125,4.5 6.4375,3.96875 6.671875,3.453125 Z" transform="translate(-0.2421875, 19.375) scale(1, -1)"/>
</svg>