<svg height="24" viewBox="0 0 24 24" width="24" xmlns="http://www.w3.org/2000/svg">
<path d="M8.1875,17.453125 C8.796875,17.390625 9.15625,17.25 9.359375,17.03125 C9.578125,16.796875 9.625,16.46875 9.625,16.03125 C9.625,15.6875 9.609375,15.1875 9.59375,14.6875 C9.5625,14.1875 9.53125,13.703125 9.484375,13.375 C9.09375,13.203125 8.59375,12.984375 8.046875,12.734375 C7.515625,12.46875 6.9375,12.171875 6.40625,11.890625 C4.0625,10.5625 2.796875,8.9375 2.359375,7.203125 L2.8125,7.0625 C3.40625,8.359375 4.3125,9.21875 5.515625,10.109375 C6.046875,10.484375 6.6875,10.890625 7.359375,11.234375 C8.015625,11.59375 8.703125,11.90625 9.296875,12.140625 C9.09375,10.625 8.59375,8.84375 7.609375,7.15625 C7.125,6.3125 6.453125,5.421875 5.75,4.65625 C5.046875,3.875 4.28125,3.21875 3.578125,2.796875 L3.1875,4.78125 L2.734375,4.609375 C2.796875,3.671875 2.734375,2.90625 2.546875,2.46875 C2.453125,2.25 2.375,2.03125 2.5,1.859375 C2.65625,1.625 2.875,1.484375 3.234375,1.484375 C3.71875,1.484375 4.28125,1.765625 5.203125,2.5 C5.578125,2.796875 6.140625,3.296875 6.796875,4.015625 C7.4375,4.71875 8.15625,5.640625 8.859375,6.796875 C9.84375,8.40625 10.46875,10.453125 10.828125,12.671875 C11.328125,12.875 11.984375,13.0625 12.578125,13.171875 C13.15625,13.296875 13.671875,13.34375 13.921875,13.34375 C14.421875,13.34375 14.703125,13.0625 14.46875,12.34375 C13.96875,10.6875 13.484375,9 13.203125,7.484375 C12.921875,6.078125 12.828125,5.015625 12.828125,4.171875 C12.828125,3.703125 12.921875,3.21875 13.125,2.796875 C13.34375,2.375 13.671875,2 14.203125,1.765625 C14.53125,1.625 15.03125,1.453125 15.640625,1.328125 C16.234375,1.203125 16.90625,1.09375 17.59375,1.078125 C18.46875,1.0625 19.21875,1.078125 19.84375,1.15625 C21.078125,1.28125 22.0625,1.453125 22.0625,2.203125 C22.0625,2.453125 21.84375,2.75 21.4375,2.859375 C21.078125,2.9375 20.765625,2.859375 20.453125,2.734375 C19.78125,2.46875 18.734375,2.390625 17.609375,2.421875 C17.15625,2.4375 16.578125,2.515625 16.0625,2.609375 C15.546875,2.703125 15.078125,2.796875 14.890625,2.9375 C14.375,3.21875 14.15625,3.578125 14.15625,4.375 C14.15625,4.953125 14.203125,5.578125 14.28125,6.15625 C14.34375,6.71875 14.4375,7.265625 14.546875,7.703125 C14.859375,8.96875 15.265625,10.34375 15.96875,12.046875 C16.15625,12.5 16.1875,12.859375 16.109375,13.15625 C16.015625,13.4375 15.828125,13.71875 15.59375,14 C15.265625,14.40625 14.953125,14.5625 14.5,14.5625 C14.15625,14.5625 13.546875,14.5 12.890625,14.40625 C12.703125,14.375 12.328125,14.3125 11.953125,14.234375 C11.578125,14.171875 11.1875,14.078125 11,14.015625 C11.03125,14.3125 11.046875,14.75 11.078125,15.1875 C11.09375,15.609375 11.109375,16.0625 11.109375,16.375 C11.109375,17.015625 10.890625,17.421875 10.4375,17.671875 C10,17.90625 9.34375,18.015625 8.5,18.03125 Z" transform="translate(-0.2109375, 18.03125) scale(1, -1)"/>
</svg>