<svg height="20.28125" viewBox="0 0 24 20.28125" width="24" xmlns="http://www.w3.org/2000/svg">
<path d="M7.25,18.96875 C7.0625,18.546875 6.9375,18.171875 6.859375,17.78125 C6.78125,17.375 6.734375,16.953125 6.734375,16.46875 C6.734375,15.921875 6.96875,15.4375 7.375,15.171875 C7.65625,14.984375 8.09375,14.984375 8.546875,15.296875 C9.390625,15.875 10.296875,16.4375 11.28125,16.921875 C12.265625,17.40625 13.234375,17.75 14.359375,17.9375 L14.421875,17.796875 C13.5,17.078125 12.25,16.09375 10.90625,15.0625 C9.546875,14.03125 8.140625,12.96875 6.921875,12.078125 C6.453125,11.75 5.859375,11.4375 5.453125,11.265625 C5.046875,11.09375 4.875,10.859375 4.703125,10.375 C4.609375,10.109375 4.53125,9.78125 4.53125,9.4375 C4.53125,9.25 4.65625,9.0625 4.84375,8.984375 C5.015625,8.890625 5.265625,8.921875 5.5,9.140625 C6.03125,9.625 6.875,10.25 7.765625,10.828125 C8.65625,11.421875 9.59375,11.953125 10.296875,12.296875 C12,13.109375 13.46875,13.390625 14.84375,13.421875 C15.875,13.4375 16.53125,13.328125 16.953125,13.09375 C17.359375,12.859375 17.5,12.5 17.5,12.046875 C17.5,11.296875 17.015625,10.65625 16.078125,10.0625 C15.078125,9.4375 13.71875,8.953125 11.953125,8.640625 C11.984375,8.8125 12.03125,9.09375 12.03125,9.296875 C12.03125,9.625 11.703125,9.78125 11.375,9.546875 C11.09375,9.359375 10.78125,9.1875 10.34375,8.953125 C9.78125,8.640625 9.765625,8.359375 10.03125,8.140625 C10.171875,8 10.34375,7.921875 10.484375,7.875 C10.3125,7.140625 10,6.03125 9.59375,4.90625 C9.203125,3.765625 8.75,2.578125 8.328125,1.703125 C8.25,1.53125 8.1875,1.359375 8.140625,1.234375 C8.03125,0.953125 8.109375,0.578125 8.171875,0.171875 C8.21875,-0.25 8.296875,-0.703125 8.6875,-0.890625 C8.78125,-0.921875 8.9375,-0.921875 9.078125,-0.828125 C9.21875,-0.734375 9.375,-0.546875 9.453125,-0.21875 C9.53125,0.0625 9.59375,0.375 9.671875,0.734375 C9.734375,1.078125 9.828125,1.4375 9.921875,1.8125 C10.09375,2.5625 10.328125,3.296875 10.65625,3.84375 C11.25,4.84375 12.1875,5.421875 13.078125,5.421875 C13.734375,5.421875 14.25,5.078125 14.59375,4.484375 C14.921875,3.90625 15.09375,3.078125 15.09375,2.140625 C15.09375,1.390625 14.9375,0.78125 14.65625,0.375 C14.375,-0.046875 13.96875,-0.265625 13.53125,-0.265625 C13.21875,-0.265625 12.921875,-0.109375 12.6875,0.125 C12.453125,0.34375 12.296875,0.59375 12.296875,0.828125 C12.296875,1.09375 12.34375,1.328125 12.515625,1.484375 C12.6875,1.65625 12.96875,1.734375 13.4375,1.71875 C13.734375,1.71875 13.921875,1.734375 14.03125,1.8125 C14.140625,1.90625 14.171875,2 14.15625,2.140625 C14.125,2.453125 13.90625,2.734375 13.53125,2.8125 C12.6875,2.984375 12.046875,2.765625 11.609375,2.40625 C11.28125,2.125 11.09375,1.71875 11.046875,1.3125 C11,0.890625 11.09375,0.4375 11.328125,0.046875 C11.5625,-0.359375 11.9375,-0.640625 12.34375,-0.828125 C12.734375,-1.03125 13.15625,-1.125 13.484375,-1.125 C14.484375,-1.125 15.25,-0.71875 15.75,-0.078125 C16.25,0.578125 16.5,1.4375 16.484375,2.3125 C16.453125,3.84375 16.046875,4.859375 15.4375,5.515625 C14.8125,6.15625 13.984375,6.40625 13.125,6.40625 C12.3125,6.40625 11.421875,6.015625 10.859375,5.3125 C10.90625,5.484375 10.96875,5.703125 11.046875,5.9375 C11.140625,6.171875 11.203125,6.40625 11.28125,6.65625 C11.4375,7.140625 11.59375,7.59375 11.6875,7.875 C14.296875,8.203125 16.125,8.703125 17.40625,9.453125 C18.671875,10.203125 19.296875,11.109375 19.296875,12.09375 C19.296875,12.75 18.9375,13.296875 18.28125,13.6875 C17.609375,14.078125 16.65625,14.3125 15.4375,14.3125 C14.546875,14.3125 13.359375,14.140625 12.140625,13.8125 C10.921875,13.5 9.65625,13.046875 8.609375,12.484375 C9.828125,13.34375 11.03125,14.109375 12.265625,14.859375 C13.484375,15.609375 14.796875,16.34375 16.203125,17.09375 C16.375,17.1875 16.53125,17.3125 16.625,17.4375 C16.84375,17.703125 16.6875,18.09375 16.375,18.484375 C16.0625,18.875 15.78125,19.15625 15.296875,19.140625 C15.046875,19.125 14.6875,19.046875 14.203125,18.875 L13.015625,18.453125 C12.640625,18.3125 12.28125,18.171875 11.921875,18.046875 C11.1875,17.78125 10.4375,17.5 9.40625,17.109375 C8.5625,16.78125 8.171875,16.859375 7.953125,17.203125 C7.859375,17.34375 7.8125,17.59375 7.78125,17.890625 C7.765625,18.171875 7.765625,18.5 7.859375,18.828125 Z" transform="translate(0.0859375, 19.15625) scale(1, -1)"/>
</svg>