<svg height="21.6875" viewBox="0 0 24 21.6875" width="24" xmlns="http://www.w3.org/2000/svg">
<path d="M9.640625,19.578125 C9.09375,19.578125 8.34375,19.40625 7.78125,19.125 L7.921875,18.625 C8.34375,18.71875 8.703125,18.734375 8.984375,18.65625 C9.53125,18.5 9.90625,17.71875 10.1875,17.265625 C10.3125,17.03125 10.453125,16.8125 10.578125,16.578125 C9.875,16.359375 9.3125,16.25 8.703125,16.203125 C8.046875,16.140625 7.53125,16.15625 7.109375,16.265625 C6.671875,16.375 6.328125,16.546875 6,16.78125 L5.765625,16.296875 C6.171875,15.828125 6.640625,15.515625 7.203125,15.328125 C7.765625,15.140625 8.421875,15.078125 9.265625,15.171875 C9.796875,15.21875 10.484375,15.359375 11.203125,15.578125 C11.609375,14.984375 12.046875,14.40625 12.546875,13.828125 C12.359375,13.640625 12.109375,13.390625 11.796875,13.046875 C11.140625,12.359375 10.28125,11.46875 9.296875,10.390625 C8.796875,9.859375 8.28125,9.3125 7.75,8.734375 C6.671875,7.578125 5.5625,6.359375 4.515625,5.234375 C4.203125,4.890625 4.15625,4.640625 4.203125,4.421875 C4.203125,4.15625 4.3125,3.890625 4.453125,3.703125 C4.578125,3.515625 4.734375,3.390625 4.875,3.390625 C5.109375,3.390625 5.375,3.453125 5.703125,3.84375 C6.03125,4.21875 6.546875,4.6875 7.109375,5.140625 C7.65625,5.578125 8.21875,6.015625 8.640625,6.296875 C10.203125,7.359375 11.296875,7.953125 12.046875,8.1875 C12.09375,7.375 12.109375,6.234375 12.078125,5 C12.03125,3.75 11.9375,2.390625 11.8125,1.171875 C11.671875,-0.046875 11.5,-1.15625 11.265625,-1.90625 L11.84375,-2.109375 C12.171875,-1.5 12.453125,-0.609375 12.6875,0.375 C12.921875,1.359375 13.09375,2.46875 13.171875,3.5 C13.625,3.1875 14.3125,2.984375 15.296875,2.984375 C16.28125,2.984375 17.28125,3.359375 18.046875,4.125 C18.3125,4.390625 18.546875,4.78125 18.6875,5.234375 C18.84375,5.703125 18.9375,6.1875 18.9375,6.640625 C18.9375,7.625 18.6875,8.328125 17.9375,8.9375 C17.515625,9.25 17.078125,9.421875 16.625,9.53125 C16.1875,9.625 15.75,9.640625 15.390625,9.640625 C14.6875,9.640625 14,9.484375 13.484375,9.34375 C13.40625,9.9375 13.1875,10.296875 12.828125,10.609375 C12.453125,10.921875 12.03125,11.046875 11.1875,11.140625 C11.984375,11.890625 12.6875,12.53125 13.296875,12.984375 C13.484375,12.78125 13.671875,12.59375 13.890625,12.375 C14.328125,11.9375 14.796875,11.546875 15.265625,11.234375 C15.734375,10.9375 16.375,10.578125 16.859375,11.046875 C17.078125,11.265625 17.140625,11.609375 16.859375,12.140625 C16.765625,12.296875 16.703125,12.484375 16.65625,12.6875 C16.59375,12.875 16.546875,13.0625 16.515625,13.203125 C16.4375,13.4375 16.390625,13.71875 16.359375,13.984375 C16.328125,14.25 16.28125,14.5625 16.21875,14.890625 C16.171875,15.21875 16.015625,15.46875 15.828125,15.59375 C15.4375,15.84375 15.25,15.890625 14.84375,15.671875 C14.421875,15.453125 13.953125,15.125 13.484375,14.65625 C13.171875,15.03125 12.828125,15.453125 12.4375,15.96875 C13.46875,16.34375 14.4375,16.8125 15.140625,17.3125 C15.40625,17.5 15.5,17.65625 15.5,17.859375 C15.5,18.0625 15.390625,18.203125 15.140625,18.296875 C14.921875,18.390625 14.5,18.40625 14.234375,18.40625 C13.90625,18.40625 13.671875,18.21875 13.34375,17.953125 C12.96875,17.640625 12.34375,17.265625 11.734375,17 C11.421875,17.5 11.140625,18.03125 10.859375,18.6875 C10.671875,19.078125 10.5,19.296875 10.296875,19.4375 C10.078125,19.5625 9.875,19.578125 9.640625,19.578125 Z M15.640625,14.328125 C15.6875,13.96875 15.765625,13.421875 15.875,12.984375 C16,12.453125 15.875,12.421875 15.484375,12.734375 C15.171875,12.984375 14.796875,13.390625 14.453125,13.8125 C14.640625,14.03125 14.96875,14.296875 15.140625,14.421875 C15.5,14.703125 15.59375,14.703125 15.640625,14.328125 Z M10.78125,10.71875 C11.234375,10.59375 11.5625,10.453125 11.75,10.1875 C11.953125,9.921875 12.03125,9.53125 12.03125,8.953125 C11.328125,8.703125 10.4375,8.3125 9.40625,7.796875 C8.375,7.265625 7.25,6.609375 6.125,5.8125 C6.828125,6.609375 7.59375,7.453125 8.390625,8.296875 C9.1875,9.140625 10,9.96875 10.78125,10.71875 Z M15.296875,8.9375 C16.0625,8.9375 16.515625,8.671875 16.78125,8.40625 C17.203125,7.96875 17.375,7.515625 17.375,6.71875 C17.375,5.875 17.15625,5.109375 16.703125,4.625 C16.21875,4.125 15.6875,3.796875 15.09375,3.796875 C14.390625,3.796875 13.78125,3.953125 13.328125,4.21875 C13.359375,4.53125 13.390625,4.859375 13.40625,5.25 C13.453125,6 13.484375,6.78125 13.484375,7.53125 C13.484375,7.90625 13.484375,8.25 13.46875,8.546875 C13.625,8.671875 13.90625,8.765625 14.234375,8.84375 C14.5625,8.90625 14.9375,8.9375 15.296875,8.9375 Z" transform="translate(0.453125, 19.578125) scale(1, -1)"/>
</svg>