<svg height="20.28125" viewBox="0 0 24 20.28125" width="24" xmlns="http://www.w3.org/2000/svg">
<path d="M11.234375,18.5 C10.859375,18.5 10.484375,18.359375 10.15625,18.078125 C9.8125,17.8125 9.5,17.453125 9.3125,17.015625 C9,16.3125 8.78125,15.53125 8.734375,14.59375 C8.6875,13.828125 8.703125,13.203125 8.765625,12.640625 C8.265625,12.421875 7.53125,12.125 6.734375,11.828125 C5.9375,11.515625 5.109375,11.203125 4.4375,10.96875 C3.921875,10.796875 3.5625,10.71875 3.265625,10.71875 C2.984375,10.71875 2.75,10.8125 2.515625,10.953125 C2.203125,11.140625 1.96875,11.375 1.8125,11.65625 L1.296875,11.234375 C1.53125,10.703125 1.84375,10.109375 2.15625,9.6875 C2.46875,9.28125 2.9375,9.078125 3.265625,9.078125 C3.453125,9.078125 3.640625,9.09375 3.890625,9.171875 C4.125,9.265625 4.4375,9.375 4.875,9.59375 L8.90625,11.59375 C9.03125,10.703125 9.484375,9.59375 10.28125,8.765625 C11.0625,7.984375 12.09375,7.5625 13.21875,7.328125 C13.109375,5.921875 12.90625,4.296875 12.640625,2.734375 C12.359375,1.171875 12,-0.359375 11.59375,-1.53125 L12.3125,-1.78125 C12.828125,-0.65625 13.3125,0.78125 13.703125,2.328125 C14.09375,3.875 14.390625,5.546875 14.546875,7.125 C14.9375,7.109375 15.3125,7.125 15.71875,7.171875 C16.109375,7.21875 16.546875,7.3125 17.0625,7.4375 C17.59375,7.578125 18.171875,7.8125 18.703125,8.09375 C19.21875,8.375 19.671875,8.6875 19.921875,8.9375 C20.640625,9.640625 21.0625,10.328125 21.3125,10.953125 C21.546875,11.59375 21.59375,12.1875 21.59375,12.796875 C21.59375,13.609375 21.234375,14.421875 20.703125,14.953125 C20,15.65625 19.109375,15.984375 17.734375,16.03125 C17.296875,16.046875 16.703125,15.9375 16.109375,15.78125 C15.5,15.640625 14.890625,15.421875 14.40625,15.234375 C14.234375,15.890625 13.953125,16.53125 13.703125,16.921875 C13.484375,17.265625 13.125,17.703125 12.625,18.03125 C12.078125,18.390625 11.609375,18.5 11.234375,18.5 Z M11.203125,17.703125 C11.609375,17.703125 12.09375,17.359375 12.4375,16.859375 C12.578125,16.625 12.734375,16.296875 12.875,15.890625 C13,15.5 13.109375,15.0625 13.15625,14.6875 C12.671875,14.46875 12.078125,14.203125 11.484375,13.921875 C10.875,13.640625 10.25,13.34375 9.734375,13.109375 C9.640625,13.609375 9.609375,14.203125 9.6875,14.953125 C9.734375,15.3125 9.828125,15.71875 9.9375,16.09375 C10.0625,16.453125 10.171875,16.78125 10.28125,16.96875 C10.53125,17.40625 10.828125,17.703125 11.203125,17.703125 Z M17.734375,15.140625 C18.375,15.140625 18.953125,14.890625 19.375,14.46875 C19.78125,14.046875 20.046875,13.46875 20.046875,12.78125 C20.046875,12.171875 20,11.625 19.859375,11.140625 C19.703125,10.640625 19.4375,10.171875 19.0625,9.734375 C18.59375,9.21875 17.9375,8.796875 17.15625,8.515625 C16.390625,8.234375 15.515625,8.078125 14.65625,8.109375 C14.75,8.984375 14.796875,10.046875 14.796875,11.125 C14.796875,12.203125 14.734375,13.296875 14.59375,14.265625 C15.046875,14.484375 15.59375,14.703125 16.15625,14.875 C16.703125,15.03125 17.265625,15.140625 17.734375,15.140625 Z M13.28125,13.671875 C13.359375,12.796875 13.390625,11.8125 13.390625,10.859375 C13.390625,9.921875 13.34375,9 13.28125,8.3125 C12.375,8.546875 11.578125,8.953125 10.984375,9.578125 C10.390625,10.1875 9.96875,11.015625 9.875,12.09375 C10.296875,12.3125 10.890625,12.59375 11.515625,12.890625 C12.125,13.171875 12.78125,13.453125 13.28125,13.671875 Z" transform="translate(0.5546875, 18.5) scale(1, -1)"/>
</svg>