<svg height="20.234375" viewBox="0 0 24 20.234375" width="24" xmlns="http://www.w3.org/2000/svg">
<path d="M6.34375,18.546875 C7.40625,18.234375 7.859375,17.71875 7.578125,16.703125 C7.453125,16.203125 7.25,15.34375 7.015625,14.3125 L6.5,14.234375 C6.3125,14.21875 6.15625,14.1875 5.984375,14.1875 C4.71875,14.078125 4.03125,14.359375 3.484375,14.859375 L3.1875,14.453125 C3.546875,13.921875 3.96875,13.578125 4.53125,13.375 C5.09375,13.15625 5.78125,13.09375 6.71875,13.125 C6.390625,11.71875 5.984375,10.109375 5.5625,8.5625 C5.140625,7.015625 4.671875,5.515625 4.21875,4.34375 C3.96875,3.6875 3.75,3.21875 3.390625,2.59375 C3.3125,2.46875 3.1875,2.203125 3.09375,1.953125 C2.984375,1.71875 2.90625,1.453125 2.90625,1.328125 C2.90625,0.890625 3.09375,0.53125 3.40625,0.078125 C3.546875,-0.125 3.734375,-0.171875 3.921875,-0.125 C4.109375,-0.078125 4.28125,0.03125 4.375,0.21875 C4.71875,0.78125 4.96875,1.859375 5.21875,2.890625 L5.703125,4.78125 C6.359375,5.765625 6.984375,6.59375 7.53125,7.234375 C8.0625,7.875 8.484375,8.3125 8.765625,8.5 C9.28125,8.859375 9.625,9.046875 10.03125,9.046875 C10.421875,9.046875 10.703125,8.765625 10.90625,8.59375 C10.296875,8.140625 9.6875,7.578125 9.140625,6.984375 C8.609375,6.40625 8.140625,5.796875 7.8125,5.28125 C7.0625,4.109375 6.5,3.03125 6.53125,1.90625 C6.546875,1.296875 6.6875,0.71875 6.96875,0.3125 C7.265625,-0.109375 7.71875,-0.359375 8.359375,-0.359375 C9.34375,-0.359375 10.109375,0 11,0.84375 C11.5625,1.375 12.078125,2.046875 12.46875,2.859375 C12.859375,3.671875 13.109375,4.625 13.109375,5.6875 C13.109375,6.3125 13,6.9375 12.859375,7.484375 C12.703125,8.015625 12.5,8.46875 12.296875,8.734375 C12.703125,9.1875 13.4375,9.71875 14.15625,10.171875 C14.65625,10.484375 15.078125,10.703125 15.453125,10.703125 C15.6875,10.703125 15.84375,10.671875 15.953125,10.515625 C16.046875,10.34375 16.09375,10.0625 16.109375,9.578125 C16.140625,8.25 16.015625,7.0625 15.9375,5.984375 C15.90625,5.5625 16.078125,5.390625 16.46875,5.265625 C16.53125,5.25 16.578125,5.234375 16.625,5.21875 C16.6875,5.1875 16.75,5.1875 16.8125,5.1875 C16.953125,5.1875 17.109375,5.234375 17.328125,5.421875 C17.71875,5.75 18.3125,6.046875 18.78125,6.046875 C19.0625,6.046875 19.296875,5.96875 19.484375,5.703125 C19.671875,5.421875 19.765625,5 19.765625,4.296875 C19.765625,3.84375 19.71875,3.421875 19.53125,3 C19.34375,2.5625 19.015625,2.140625 18.5,1.703125 C17.328125,0.71875 15.890625,0.03125 13.921875,-0.53125 L14.3125,-1.125 C15.25,-0.890625 16.078125,-0.625 16.875,-0.28125 C17.671875,0.046875 18.421875,0.453125 19.21875,0.96875 C20.59375,1.859375 21.3125,3 21.3125,4.375 C21.3125,5.03125 21.171875,5.546875 20.859375,5.90625 C20.359375,6.484375 19.71875,6.734375 18.875,6.734375 C18.34375,6.734375 17.609375,6.640625 17.046875,6.453125 C17.09375,6.734375 17.140625,7.046875 17.203125,7.375 C17.265625,7.6875 17.3125,8 17.375,8.3125 C17.421875,8.609375 17.46875,8.890625 17.515625,9.15625 L17.609375,9.78125 C17.71875,10.4375 17.515625,10.90625 17.328125,11.140625 C17,11.609375 16.53125,11.6875 16.109375,11.6875 C15.453125,11.6875 14.9375,11.421875 14.328125,11.140625 C14,10.984375 13.578125,10.703125 13.125,10.390625 C12.6875,10.0625 12.21875,9.734375 11.890625,9.453125 C11.609375,9.6875 11.3125,10.015625 10.78125,10.109375 C10.125,10.203125 9.625,9.984375 8.890625,9.53125 C8.59375,9.34375 8.09375,8.875 7.578125,8.296875 C7.046875,7.71875 6.453125,7.03125 5.984375,6.40625 C6.171875,7.15625 6.4375,8.203125 6.765625,9.40625 C7.078125,10.625 7.4375,11.953125 7.859375,13.296875 C8.171875,13.390625 8.515625,13.484375 8.890625,13.609375 C9.625,13.84375 10.359375,14.15625 11.046875,14.5 C11.75,14.828125 12.40625,15.171875 12.34375,15.578125 C12.3125,15.78125 12.21875,15.96875 12,16.0625 C11.78125,16.15625 11.40625,16.1875 11.203125,16.15625 C11,16.109375 10.875,16.09375 10.75,16.015625 C10.625,15.953125 10.5,15.859375 10.34375,15.71875 C9.875,15.3125 9.3125,15.046875 8.28125,14.65625 C8.5625,15.59375 8.875,16.40625 9.171875,17.15625 C9.453125,17.90625 9.3125,18.265625 8.65625,18.59375 C8.1875,18.84375 7.390625,19.0625 6.640625,19.109375 Z M11.265625,8.015625 C11.53125,7.3125 11.734375,6.484375 11.734375,5.40625 C11.734375,4.640625 11.5625,3.84375 11.296875,3.140625 C11.015625,2.4375 10.640625,1.8125 10.21875,1.390625 C9.640625,0.828125 9.140625,0.5 8.59375,0.5 C8.0625,0.5 7.875,1.015625 7.875,2.046875 C7.875,2.5625 8,3.078125 8.171875,3.5625 C8.34375,4.046875 8.5625,4.484375 8.765625,4.859375 C9.0625,5.375 9.46875,5.984375 9.90625,6.546875 C10.34375,7.09375 10.8125,7.609375 11.265625,8.015625 Z" transform="translate(-0.109375, 19.109375) scale(1, -1)"/>
</svg>