<svg height="19.828125" viewBox="0 0 24 19.828125" width="24" xmlns="http://www.w3.org/2000/svg">
<path d="M7.8125,18.171875 C8.359375,18.125 8.734375,18.078125 9.046875,17.90625 C9.296875,17.765625 9.5,17.625 9.71875,17.359375 C9.921875,17.09375 10.125,16.6875 10.4375,16.03125 C10.578125,15.75 10.765625,15.3125 10.984375,14.796875 C11.203125,14.265625 11.46875,13.640625 11.703125,13.03125 C11.28125,12.921875 10.734375,12.8125 10.140625,12.734375 C9.53125,12.640625 8.890625,12.578125 8.265625,12.578125 C6.71875,12.578125 5.75,12.875 5.046875,13.34375 L4.65625,12.671875 C5.546875,12.015625 6.578125,11.609375 8.09375,11.515625 C9.484375,11.453125 10.828125,11.59375 12.140625,11.953125 C12.28125,11.609375 12.4375,11.25 12.59375,10.859375 C12.734375,10.484375 12.90625,10.109375 13.0625,9.734375 C13.375,8.96875 13.65625,8.25 13.875,7.703125 C13.03125,7 12.1875,6.3125 11.5625,5.8125 C10.109375,4.625 8.984375,3.734375 8.140625,3.09375 C7.296875,2.4375 6.703125,2.015625 6.296875,1.78125 C6.125,1.671875 5.9375,1.578125 5.796875,1.46875 C5.625,1.359375 5.46875,1.28125 5.328125,1.21875 C5.09375,1.109375 4.859375,0.84375 4.71875,0.640625 C4.59375,0.421875 4.46875,0.046875 4.46875,-0.234375 C4.46875,-0.6875 4.671875,-0.8125 4.953125,-0.78125 C5.140625,-0.765625 5.328125,-0.6875 5.546875,-0.53125 C5.765625,-0.390625 6.03125,-0.171875 6.4375,0.171875 C7.0625,0.671875 7.71875,1.203125 8.40625,1.78125 L10.484375,3.5 C11.875,4.65625 13.21875,5.75 14.3125,6.59375 C14.65625,5.796875 15.015625,4.953125 15.34375,4.203125 C15.65625,3.453125 15.9375,2.8125 16.125,2.40625 C16.203125,2.25 16.28125,2.015625 16.34375,1.796875 C16.390625,1.5625 16.4375,1.34375 16.484375,1.203125 C16.59375,0.875 16.75,0.5 16.921875,0.234375 C17.125,-0.078125 17.40625,-0.46875 17.90625,-0.734375 C18.09375,-0.84375 18.359375,-0.953125 18.546875,-0.875 C18.734375,-0.78125 18.828125,-0.53125 18.828125,-0.296875 C18.828125,-0.0625 18.671875,0.421875 18.40625,1.03125 C18.15625,1.640625 17.78125,2.375 17.359375,3.09375 C17.109375,3.5 16.796875,4.140625 16.4375,4.890625 C16.09375,5.640625 15.6875,6.5 15.3125,7.390625 C15.78125,7.765625 16.203125,8.09375 16.609375,8.4375 C17.015625,8.765625 17.34375,9.03125 17.609375,9.234375 C17.890625,9.453125 18.109375,9.65625 18.265625,9.859375 C18.59375,10.234375 18.9375,10.859375 18.234375,11.46875 C18.125,11.5625 18,11.65625 17.859375,11.734375 C17.578125,11.875 17.234375,12.03125 16.90625,12.125 C16.71875,12.171875 16.546875,12.21875 16.375,12.265625 L16.109375,11.6875 C16.296875,11.625 16.4375,11.5625 16.546875,11.515625 C16.65625,11.453125 16.75,11.390625 16.875,11.3125 C17.046875,11.1875 17.09375,11 17.0625,10.765625 C17.015625,10.515625 16.8125,10.21875 16.421875,9.875 C16.0625,9.53125 15.5,9.046875 14.84375,8.515625 C14.1875,10.03125 13.640625,11.375 13.328125,12.265625 C13.484375,12.328125 13.65625,12.390625 13.828125,12.453125 L14.328125,12.625 C15,12.875 15.640625,13.203125 16.1875,13.484375 C16.734375,13.78125 17.1875,14.078125 17.46875,14.265625 C18.21875,14.734375 18.59375,15.171875 18.4375,15.546875 C18.34375,15.78125 18.109375,15.890625 17.859375,15.9375 C17.609375,15.984375 17.34375,15.96875 17.15625,15.9375 C16.90625,15.890625 16.703125,15.765625 16.53125,15.546875 C16.296875,15.234375 15.984375,14.984375 15.546875,14.65625 C15.28125,14.46875 14.84375,14.234375 14.375,14 C13.890625,13.765625 13.359375,13.546875 12.890625,13.390625 C12.796875,13.640625 12.703125,13.90625 12.59375,14.1875 L12.296875,14.953125 C12.109375,15.453125 11.9375,15.875 11.890625,16.15625 C11.84375,16.359375 11.78125,16.59375 11.703125,16.84375 C11.609375,17.09375 11.546875,17.296875 11.5,17.46875 C11.375,17.9375 11.046875,18.21875 10.65625,18.4375 C10.296875,18.640625 9.890625,18.71875 9.296875,18.796875 C8.84375,18.859375 8.5,18.875 8.09375,18.84375 Z" transform="translate(0.296875, 18.875) scale(1, -1)"/>
</svg>