<svg height="19.71875" viewBox="0 0 24 19.71875" width="24" xmlns="http://www.w3.org/2000/svg">
<path d="M11.734375,18.40625 C12.0625,18.28125 12.359375,18.15625 12.59375,17.9375 C12.8125,17.703125 12.9375,17.421875 12.9375,17 C12.9375,16.421875 12.921875,15.828125 12.84375,15.234375 C12.53125,15.1875 12.25,15.1875 11.984375,15.1875 C11.40625,15.1875 10.96875,15.265625 10.609375,15.390625 C10.25,15.515625 9.96875,15.71875 9.71875,15.96875 L9.4375,15.59375 C9.734375,15.078125 10.09375,14.703125 10.609375,14.4375 C11.109375,14.1875 11.75,14.046875 12.640625,14.09375 C12.515625,13.25 12.453125,12.546875 12.40625,12.046875 C12.375,11.703125 12.359375,11.359375 12.40625,11.140625 C12.453125,10.90625 12.640625,10.5625 13.03125,10.421875 C13.125,10.390625 13.28125,10.4375 13.4375,10.515625 C13.578125,10.59375 13.71875,10.71875 13.8125,10.8125 C14.140625,11.140625 14.5625,11.421875 14.9375,11.625 C15.328125,11.84375 15.703125,11.953125 15.9375,11.953125 C16.375,11.953125 16.5625,11.75 16.5625,11.421875 C16.5625,11.203125 16.4375,10.984375 16.203125,10.78125 C15.953125,10.578125 15.59375,10.328125 15.09375,10.0625 C14.4375,9.6875 13.953125,9.46875 13.203125,9.1875 L13.515625,8.703125 C15.171875,9.21875 16.375,9.671875 17.265625,10.328125 C17.96875,10.828125 18.21875,11.15625 18.21875,11.6875 C18.21875,12.03125 18,12.296875 17.671875,12.484375 C17.34375,12.65625 16.90625,12.734375 16.46875,12.734375 C15.984375,12.734375 15.4375,12.671875 15.046875,12.578125 C14.5625,12.453125 14.140625,12.3125 13.671875,12.140625 C13.640625,12.53125 13.671875,13.171875 13.8125,14.265625 C14.46875,14.375 15.125,14.5625 15.765625,14.78125 C16.390625,15 16.96875,15.25 17.46875,15.484375 C17.671875,15.578125 17.796875,15.671875 17.875,15.78125 C18.015625,15.96875 17.9375,16.15625 17.890625,16.296875 C17.828125,16.453125 17.625,16.578125 17.328125,16.671875 C17.015625,16.75 16.828125,16.6875 16.703125,16.671875 C16.625,16.65625 16.5625,16.625 16.5,16.609375 C16.359375,16.5625 16.203125,16.484375 16.015625,16.34375 C15.578125,16.0625 15.03125,15.78125 13.96875,15.4375 C14.015625,15.65625 14.078125,15.90625 14.140625,16.15625 L14.3125,16.828125 C14.453125,17.453125 14.5,17.796875 14.140625,18.125 C13.609375,18.578125 12.84375,18.796875 12.140625,18.890625 Z M5.859375,18 C6.359375,17.421875 6.359375,16.421875 5.90625,15.4375 C5.5625,14.6875 4.984375,13.71875 4.390625,12.828125 C3.78125,11.9375 3.203125,11.171875 2.84375,10.8125 C2.515625,10.484375 2.28125,10.25 2.15625,10.03125 C2.015625,9.828125 1.984375,9.625 2.015625,9.390625 C2.0625,9.03125 2.140625,8.796875 2.21875,8.65625 C2.296875,8.5 2.421875,8.421875 2.546875,8.421875 C2.65625,8.421875 2.796875,8.453125 2.9375,8.5625 C3.09375,8.6875 3.296875,8.875 3.53125,9.234375 C3.875,9.734375 4.1875,9.875 4.421875,9.484375 C4.546875,9.28125 4.625,9.109375 4.671875,8.90625 C4.71875,8.703125 4.75,8.46875 4.765625,8.1875 C4.765625,7.8125 4.78125,7.390625 4.78125,6.9375 C4.78125,6.484375 4.765625,6 4.765625,5.515625 C4.71875,4.546875 4.671875,3.546875 4.578125,2.703125 C4.5,1.859375 4.4375,1.171875 4.34375,0.796875 C4.203125,0.15625 4.234375,-0.1875 4.65625,-0.546875 C5,-0.828125 5.296875,-0.6875 5.46875,-0.40625 C5.609375,-0.21875 5.703125,0.140625 5.796875,0.625 C5.875,1.234375 5.921875,2.109375 5.953125,3.0625 C5.984375,4 6,5 6,5.890625 C5.984375,6.78125 5.96875,7.53125 5.9375,8 C5.890625,8.375 5.859375,8.640625 5.796875,8.84375 C5.71875,9.03125 5.640625,9.1875 5.546875,9.359375 C5.203125,9.96875 4.8125,10.25 4.203125,10.21875 C4.984375,11.375 5.703125,12.453125 6.234375,13.46875 C6.78125,14.46875 7.125,15.40625 7.21875,16.28125 C7.234375,16.484375 7.234375,16.8125 7.109375,17.1875 C6.96875,17.546875 6.734375,17.953125 6.3125,18.3125 Z M7.34375,7.34375 C7.4375,6.828125 7.625,6.3125 7.71875,6.09375 C7.859375,5.828125 8.0625,5.515625 8.28125,5.328125 C8.65625,5.046875 9.140625,5.203125 9.796875,5.46875 C10.0625,5.578125 10.703125,5.8125 11.375,6.046875 C11.703125,6.171875 12.03125,6.28125 12.359375,6.40625 L13.15625,6.671875 C13.765625,6.890625 14.703125,7.203125 15.640625,7.484375 C16.578125,7.765625 17.515625,8 18.140625,8.046875 C18.640625,8.078125 19.109375,8.046875 19.4375,8 C19.765625,7.9375 19.96875,7.8125 19.96875,7.65625 C19.96875,7.296875 19.75,7.140625 19.203125,6.875 C18.96875,6.765625 18.46875,6.59375 17.859375,6.40625 C17.234375,6.234375 16.5,6.03125 15.796875,5.890625 L16.109375,5.40625 C16.765625,5.515625 17.5,5.671875 18.171875,5.828125 C18.828125,5.96875 19.421875,6.125 19.765625,6.234375 C20.515625,6.484375 21.015625,6.734375 21.3125,7.015625 C21.625,7.296875 21.734375,7.609375 21.734375,7.953125 C21.734375,8.1875 21.578125,8.5625 21.078125,8.8125 C20.609375,9.03125 19.953125,9.078125 19.421875,9.078125 C18.984375,9.078125 18.4375,9 17.84375,8.890625 C17.265625,8.765625 16.640625,8.609375 16.078125,8.421875 C15.671875,8.296875 14.953125,8.09375 14.125,7.875 C13.296875,7.640625 12.359375,7.40625 11.5625,7.203125 C10.765625,7.015625 10.0625,6.828125 9.734375,6.78125 C9.21875,6.671875 8.84375,6.59375 8.421875,6.890625 C8.234375,7.03125 8.03125,7.265625 7.859375,7.625 Z M11.5,4.421875 C11.25,4.3125 10.921875,4.109375 10.59375,3.84375 C10.265625,3.59375 9.953125,3.25 9.71875,2.90625 C9.34375,2.359375 9.15625,1.9375 9.0625,1.578125 C8.96875,1.203125 8.96875,0.921875 9,0.671875 C9.09375,-0.03125 9.4375,-0.296875 9.890625,-0.296875 C10.25,-0.296875 10.546875,0.046875 10.703125,0.390625 C10.859375,0.75 11.109375,0.984375 11.765625,1.390625 C12.40625,1.796875 13.390625,2.34375 14.703125,3.046875 L14.546875,3.546875 L13.390625,3.0625 C13.015625,2.890625 12.640625,2.75 12.28125,2.59375 L11.3125,2.171875 C11,2.046875 10.75,1.921875 10.53125,1.828125 C10.578125,2.328125 10.765625,2.8125 11.046875,3.265625 C11.21875,3.546875 11.421875,3.765625 11.703125,3.984375 Z M16.4375,3.390625 C16.953125,3.515625 17.421875,3.5 17.6875,3.40625 C18.1875,3.265625 18.484375,3.03125 18.484375,2.640625 C18.484375,2.03125 18.171875,1.53125 17.15625,0.921875 C16.765625,0.6875 16.234375,0.4375 15.65625,0.21875 C15.078125,0.015625 14.453125,-0.171875 13.875,-0.234375 L14.359375,-0.828125 C15.484375,-0.640625 16.765625,-0.28125 17.796875,0.140625 C18.359375,0.375 18.75,0.59375 19.0625,0.8125 C19.359375,1.03125 19.5625,1.25 19.78125,1.53125 C20.09375,1.953125 20.140625,2.203125 20.140625,2.59375 C20.140625,3.03125 19.875,3.546875 19.125,3.890625 C18.8125,4.03125 18.109375,4.15625 17.453125,4.15625 C17.015625,4.15625 16.515625,4.03125 16.125,3.890625 Z" transform="translate(0.140625, 18.890625) scale(1, -1)"/>
</svg>