<svg height="21.953125" viewBox="0 0 24 21.953125" width="24" xmlns="http://www.w3.org/2000/svg">
<path d="M7.671875,19.28125 C8.25,19.046875 8.578125,18.78125 8.703125,18.546875 C8.8125,18.3125 8.75,18.046875 8.609375,17.8125 C8.34375,17.390625 7.765625,16.75 7.140625,16.109375 C6.5,15.453125 5.8125,14.796875 5.328125,14.375 C4.828125,13.953125 4.578125,13.578125 4.765625,13.203125 C4.953125,12.765625 5.109375,12.484375 5.328125,12.390625 C5.546875,12.296875 5.84375,12.359375 6.21875,12.59375 C7.015625,13.109375 8.0625,13.65625 9.15625,14.171875 C10.25,14.6875 11.40625,15.171875 12.453125,15.578125 C13.484375,15.96875 14.421875,16.296875 15.09375,16.46875 C15.546875,16.59375 16.109375,16.46875 16.328125,16.171875 C16.453125,16 16.484375,15.875 16.375,15.75 C16.265625,15.609375 16.015625,15.46875 15.578125,15.234375 C14.78125,14.8125 13.8125,14.359375 12.640625,13.859375 C12.265625,14.234375 11.796875,14.515625 11.328125,14.609375 L11,14.28125 C11.3125,14.0625 11.5,13.8125 11.59375,13.390625 C11.234375,13.25 10.890625,13.109375 10.53125,12.96875 L9.4375,12.5 C8.71875,12.21875 8.296875,11.84375 8.265625,11.359375 C8.234375,10.984375 8.40625,10.625 8.8125,10.390625 C9.21875,10.140625 9.84375,10 10.71875,10.078125 C10.125,9.84375 9.421875,9.484375 8.8125,9.15625 C8.203125,8.8125 7.6875,8.46875 7.46875,8.28125 C6.96875,7.875 6.625,7.46875 6.625,6.890625 C6.625,6.046875 7.421875,5.5625 9.125,5.5 C9.921875,5.46875 10.8125,5.515625 11.703125,5.59375 C11.703125,4.65625 11.65625,3.828125 11.609375,3.03125 C11.5625,2.234375 11.484375,1.46875 11.34375,0.671875 C11.203125,-0.125 11,-0.96875 10.671875,-1.90625 L11.328125,-2.234375 C11.859375,-1.1875 12.25,-0.21875 12.515625,0.828125 C12.78125,1.84375 12.9375,2.890625 12.984375,4.109375 C13,4.34375 13.015625,4.625 13.015625,4.890625 L13.015625,5.734375 C14.375,5.9375 15.625,6.1875 16.46875,6.484375 C16.921875,6.640625 17.234375,6.78125 17.421875,6.921875 C17.609375,7.078125 17.6875,7.265625 17.6875,7.53125 C17.6875,7.765625 17.484375,7.953125 17.15625,8.015625 C16.8125,8.09375 16.34375,8.03125 15.828125,7.78125 C15.125,7.453125 14.15625,7.171875 13.03125,6.984375 L13.03125,10.125 L13.828125,10.390625 C14.640625,10.671875 14.875,10.96875 14.59375,11.421875 C14.390625,11.75 14,11.9375 13.390625,11.703125 L13.03125,11.5625 L13.03125,12.265625 C13.03125,12.453125 13.03125,12.59375 13.015625,12.734375 C13.015625,12.96875 13,13.109375 12.96875,13.25 C13.671875,13.515625 14.421875,13.765625 15.078125,14 C15.734375,14.234375 16.296875,14.421875 16.71875,14.546875 C17.328125,14.734375 17.703125,14.921875 17.9375,15.140625 C18.171875,15.359375 18.234375,15.578125 18.234375,15.84375 C18.234375,16.125 17.953125,16.4375 17.53125,16.703125 C17.109375,16.96875 16.5625,17.1875 16.03125,17.328125 C15.453125,17.484375 15.03125,17.328125 14.421875,17.09375 C13.53125,16.71875 12.1875,16.234375 10.703125,15.6875 C9.21875,15.15625 7.578125,14.578125 6.171875,14.109375 C6.953125,14.71875 7.75,15.359375 8.453125,15.96875 C9.15625,16.578125 9.75,17.109375 10.125,17.5 C10.328125,17.703125 10.46875,18.015625 10.453125,18.3125 C10.4375,18.59375 10.28125,18.90625 9.921875,19.109375 C9.40625,19.390625 8.734375,19.59375 8.015625,19.71875 Z M11.6875,12.78125 C11.703125,12.6875 11.703125,12.59375 11.703125,12.453125 C11.71875,12.1875 11.734375,11.890625 11.734375,11.609375 L11.734375,11.265625 C11.515625,11.234375 11.296875,11.203125 11.0625,11.1875 C10.578125,11.15625 9.96875,11.171875 9.65625,11.28125 C9.34375,11.375 9.3125,11.5625 9.5,11.75 C9.59375,11.84375 9.765625,11.9375 9.984375,12.046875 C10.46875,12.265625 11.03125,12.5 11.6875,12.78125 Z M11.765625,9.671875 C11.765625,8.6875 11.765625,7.734375 11.734375,6.796875 C10.515625,6.640625 9.3125,6.609375 8.375,6.734375 C8.109375,6.78125 7.90625,6.828125 7.78125,6.90625 C7.65625,6.984375 7.59375,7.078125 7.578125,7.1875 C7.5625,7.390625 7.75,7.625 8.109375,7.90625 C9.09375,8.609375 10.34375,9.140625 11.765625,9.671875 Z" transform="translate(0.59375, 19.71875) scale(1, -1)"/>
</svg>