<svg height="20.953125" viewBox="0 0 24 20.953125" width="24" xmlns="http://www.w3.org/2000/svg">
<path d="M13.609375,19.171875 C14.09375,18.953125 14.3125,18.671875 14.140625,18.125 C14.046875,17.796875 13.8125,17.28125 13.5625,16.734375 C13.296875,16.203125 12.984375,15.640625 12.71875,15.21875 C12.65625,15.125 12.59375,15.03125 12.515625,14.953125 C12.359375,14.796875 11.96875,14.546875 12.1875,14.09375 C12.265625,13.90625 12.453125,13.6875 12.671875,13.46875 C12.984375,13.15625 13.296875,13.203125 13.53125,13.4375 C13.71875,13.625 14.140625,13.953125 14.578125,14.28125 C15,14.59375 15.453125,14.90625 15.734375,15.09375 C15.9375,15.21875 16.078125,15.3125 16.421875,15.453125 C16.109375,15.046875 15.859375,14.546875 15.84375,14.046875 L15.71875,7.28125 C15.328125,7.21875 14.96875,7.15625 14.609375,7.09375 C13.90625,6.953125 13.109375,6.734375 12.46875,6.453125 C11.8125,6.171875 11.15625,5.8125 10.9375,5.53125 C10.8125,5.375 10.765625,5.234375 10.765625,5.09375 C10.765625,4.953125 10.828125,4.8125 10.953125,4.625 C11.09375,4.453125 11.296875,4.234375 11.609375,3.96875 C11.890625,3.734375 12.296875,3.3125 12.734375,2.796875 C13.1875,2.296875 13.671875,1.703125 14.09375,1.125 C14.515625,0.546875 14.890625,-0.03125 15.09375,-0.484375 C15.265625,-0.84375 15.40625,-1.078125 15.5625,-1.1875 C15.703125,-1.296875 15.859375,-1.34375 16.015625,-1.34375 C16.28125,-1.34375 16.484375,-1.25 16.765625,-0.78125 C16.984375,-0.359375 17.078125,0.125 17.046875,0.4375 C17,0.78125 16.984375,1.09375 16.953125,1.390625 C16.90625,2 16.875,2.625 16.859375,3.3125 C16.859375,3.640625 16.859375,3.96875 16.84375,4.3125 C16.828125,4.640625 16.828125,4.953125 16.828125,5.265625 L16.828125,6.09375 C17.5,6.0625 18.1875,5.984375 18.890625,5.734375 C19.59375,5.5 20.015625,5.25 20.46875,5.015625 C20.625,4.9375 20.828125,4.9375 20.984375,5 C21.125,5.046875 21.265625,5.15625 21.3125,5.328125 C21.453125,5.8125 21.203125,6.171875 20.5,6.578125 C20.09375,6.828125 19.375,7.046875 18.4375,7.203125 C17.953125,7.28125 17.328125,7.3125 16.8125,7.34375 L16.90625,13.625 C16.90625,14.234375 17.046875,14.5625 17.359375,14.953125 C17.609375,15.265625 17.828125,15.484375 18.09375,15.71875 C18.34375,15.9375 18.5,16.015625 18.640625,16.109375 C18.921875,16.25 19.015625,16.359375 19.015625,16.671875 C19.015625,16.859375 18.875,17.03125 18.6875,17.15625 C18.484375,17.28125 18.234375,17.359375 18,17.359375 C17.765625,17.359375 17.578125,17.328125 17.375,17.234375 C17.1875,17.140625 16.953125,17 16.625,16.765625 C16.390625,16.578125 15.921875,16.28125 15.453125,16.015625 C14.984375,15.734375 14.46875,15.46875 14.09375,15.359375 C14.59375,16.296875 14.921875,17.15625 15.21875,18.046875 C15.4375,18.71875 14.953125,19.25 13.96875,19.609375 Z M4.03125,17.796875 C4.625,17.359375 4.953125,16.8125 4.953125,16.015625 C4.953125,15.90625 4.953125,15.796875 4.9375,15.6875 C4.90625,15.453125 4.859375,15.125 4.78125,14.703125 L4.625,13.921875 C4.265625,12.125 4.0625,10.734375 3.921875,9.5625 C3.78125,8.390625 3.734375,7.4375 3.734375,6.5 C3.734375,5.140625 3.875,3.984375 4.109375,2.859375 C4.328125,1.78125 4.625,1.15625 4.8125,0.84375 C5,0.484375 5.28125,0.390625 5.421875,0.390625 C5.84375,0.390625 6.15625,0.640625 6.125,1.296875 C6.109375,1.734375 6.125,2.171875 6.203125,2.609375 C6.34375,3.453125 6.640625,4.484375 7.15625,5.890625 C7.390625,6.59375 7.703125,7.4375 8.046875,8.40625 L7.609375,8.9375 C6.96875,7.390625 6.5,6.28125 6.09375,5.40625 C5.703125,4.515625 5.390625,3.875 5.109375,3.296875 C4.71875,4.703125 4.671875,6.171875 4.859375,8.046875 C5.046875,9.921875 5.578125,12.078125 6.359375,14.765625 C6.609375,15.609375 6.5625,16.203125 6.34375,16.703125 C6.125,17.203125 5.609375,17.640625 4.4375,18.21875 Z M15.671875,6.09375 C15.6875,5.203125 15.703125,4.1875 15.71875,3.21875 C15.71875,2.234375 15.703125,1.296875 15.6875,0.578125 L13.828125,2.546875 C13.203125,3.1875 12.578125,3.828125 11.90625,4.4375 C11.453125,4.875 11.5,5.109375 12.046875,5.375 C12.46875,5.578125 13.0625,5.75 13.703125,5.890625 C14.34375,6.015625 15.03125,6.09375 15.671875,6.09375 Z" transform="translate(-0.59375, 19.609375) scale(1, -1)"/>
</svg>