<svg height="20.921875" viewBox="0 0 24 20.921875" width="24" xmlns="http://www.w3.org/2000/svg">
<path d="M5.15625,19.53125 C5.4375,18.46875 5.703125,17.65625 6.453125,17.046875 C6.78125,16.765625 6.765625,16.71875 6.4375,16.5625 C5.734375,16.25 4.953125,15.796875 4.15625,15.140625 L4.625,14.796875 C5.5625,15.5 6.640625,15.90625 7.671875,15.828125 C8.578125,15.734375 9.125,15.96875 9.125,16.625 C9.125,17.015625 8.859375,17.328125 8.265625,17.515625 C7.609375,17.71875 7.109375,17.96875 6.71875,18.3125 C6.3125,18.640625 6.015625,19.109375 5.765625,19.71875 Z M2.859375,13.828125 C2.484375,13.53125 2.234375,13.265625 2.09375,12.984375 C1.9375,12.703125 1.84375,12.390625 1.828125,12 C1.796875,11.515625 1.859375,11.125 2.140625,10.8125 C2.546875,10.328125 3.1875,10.25 3.984375,10.671875 C4.125,10.765625 4.28125,10.84375 4.453125,10.921875 C4.625,11 4.796875,11.09375 4.953125,11.1875 C5.28125,11.34375 5.578125,11.46875 5.765625,11.546875 C5.828125,11.5625 5.890625,11.59375 5.9375,11.609375 C6.046875,11.640625 6.125,11.609375 6.15625,11.484375 C6.171875,11.421875 6.171875,11.328125 6.171875,11.203125 C6.078125,9.9375 6.015625,8.515625 5.984375,6.78125 C5.875,6.625 5.734375,6.46875 5.578125,6.296875 C5.25,5.9375 4.859375,5.546875 4.4375,5.125 C4.21875,4.90625 4.015625,4.703125 3.796875,4.484375 C4.0625,5.09375 4.296875,5.734375 4.46875,6.34375 C4.625,6.953125 4.71875,7.515625 4.703125,7.96875 C4.6875,8.453125 4.578125,8.8125 4.390625,9.0625 C4.203125,9.3125 3.953125,9.46875 3.671875,9.578125 L3.390625,9.171875 C3.71875,8.984375 3.921875,8.609375 3.921875,7.90625 C3.921875,7.484375 3.75,6.828125 3.484375,6.125 C3.203125,5.40625 2.84375,4.578125 2.46875,3.828125 C2.234375,3.34375 2.03125,3.109375 1.8125,2.890625 C1.671875,2.75 1.59375,2.5 1.625,2.359375 C1.671875,2.234375 1.703125,2.0625 1.765625,1.875 C1.859375,1.5 1.96875,1.125 2.328125,1.125 C2.5,1.125 2.65625,1.25 2.84375,1.484375 C2.875,1.546875 2.9375,1.625 3.015625,1.71875 L3.265625,2.046875 C3.453125,2.28125 3.640625,2.53125 3.828125,2.703125 C4.375,1.90625 4.859375,1.109375 5.1875,0.5 C5.421875,0.078125 5.546875,-0.296875 5.59375,-0.671875 C5.640625,-1.03125 5.78125,-1.203125 6.03125,-1.171875 C6.3125,-1.15625 6.546875,-1.015625 6.71875,-0.78125 C6.875,-0.5625 6.953125,-0.265625 6.9375,0.03125 C6.921875,0.25 6.921875,0.4375 6.921875,0.59375 C6.921875,0.734375 6.921875,0.921875 6.921875,1.171875 L6.921875,2.5 C6.90625,2.90625 6.90625,3.296875 6.90625,3.6875 C6.90625,4.4375 6.90625,5.1875 6.9375,6.046875 C7.609375,7.015625 8.546875,8.0625 9.609375,9.078125 C10.671875,10.078125 11.859375,11.046875 13.03125,11.84375 C14.203125,12.65625 15.359375,13.296875 16.375,13.671875 C15.53125,12.21875 14.46875,10.65625 13.296875,9.390625 C12.984375,9.046875 12.59375,8.765625 12.265625,8.5625 C12.03125,8.421875 11.84375,8.25 11.703125,7.96875 C11.59375,7.703125 11.546875,7.46875 11.5625,7.25 C11.625,6.828125 11.953125,6.734375 12.453125,7.109375 C13.15625,7.578125 14,8.109375 14.875,8.578125 C15.75,9.046875 16.65625,9.453125 17.453125,9.671875 C18.015625,9.828125 18.40625,9.796875 18.59375,9.640625 C18.78125,9.5 18.734375,9.1875 18.40625,8.765625 C17.796875,7.96875 17,7.390625 16.015625,6.578125 C15.359375,6.046875 15.015625,5.71875 14.984375,5.359375 C14.9375,5.015625 15.1875,4.8125 15.546875,4.703125 C15.96875,4.578125 15.984375,4.484375 15.546875,4.203125 C15.046875,3.875 14.71875,3.53125 14.53125,3.1875 C14.328125,2.84375 14.265625,2.46875 14.265625,2.09375 C14.265625,1.578125 14.421875,1.234375 14.671875,0.921875 C14.9375,0.625 15.28125,0.390625 15.734375,0.171875 C16.0625,-0.015625 16.515625,-0.125 16.953125,-0.203125 C17.375,-0.28125 17.8125,-0.3125 18.140625,-0.3125 C18.34375,-0.3125 18.546875,-0.296875 18.75,-0.25 C19.15625,-0.15625 19.890625,0.1875 19.46875,0.796875 C19.28125,1.0625 19.015625,1.15625 18.359375,1.125 C17.984375,1.109375 17.65625,1.109375 17.328125,1.15625 C16.71875,1.203125 15.234375,1.390625 15.234375,2.3125 C15.234375,3.1875 15.890625,3.78125 17.328125,4.484375 C17.578125,4.625 17.6875,4.8125 17.6875,5 C17.671875,5.1875 17.5625,5.375 17.40625,5.453125 C17.234375,5.53125 17.078125,5.609375 16.9375,5.65625 C16.65625,5.75 15.890625,5.8125 16.625,6.3125 C16.8125,6.4375 17.015625,6.578125 17.25,6.734375 L17.984375,7.25 C18.484375,7.59375 19.015625,7.953125 19.515625,8.28125 C19.9375,8.5625 20.234375,8.796875 20.40625,9 C20.578125,9.203125 20.65625,9.375 20.65625,9.53125 C20.65625,10.21875 20.078125,10.5625 18.890625,10.5625 C18.1875,10.5625 17.328125,10.390625 16.453125,10.109375 C15.5625,9.828125 14.671875,9.4375 13.875,9 C15.140625,10.375 16.515625,12.125 17.734375,14.015625 C18.21875,14.09375 18.734375,14.140625 19.203125,14.15625 C19.671875,14.171875 20.09375,14.15625 20.40625,14.109375 C20.734375,14.0625 20.96875,14.046875 21.171875,14.046875 C21.359375,14.046875 21.546875,14.09375 21.71875,14.1875 C21.828125,14.234375 21.875,14.390625 21.875,14.5625 C21.875,14.71875 21.796875,14.90625 21.625,15.046875 C21.3125,15.3125 20.890625,15.390625 20.1875,15.390625 C19.671875,15.390625 19.03125,15.3125 18.484375,15.21875 C18.828125,15.828125 19.15625,16.484375 19.421875,17.203125 C19.6875,17.90625 19.578125,18.40625 19.25,18.6875 C18.9375,18.96875 18.453125,19.0625 17.984375,18.984375 C17.28125,18.859375 16.53125,18.53125 15.828125,18.09375 C15.125,17.65625 14.421875,17.09375 13.859375,16.515625 C13.53125,16.203125 13.296875,16.0625 13.109375,16.109375 C12.765625,16.21875 12.859375,16.953125 12.953125,17.390625 L13.125,18.234375 L12.625,18.359375 C12.34375,17.75 12.140625,17.28125 12.015625,16.859375 C11.875,16.4375 11.8125,16.078125 11.8125,15.71875 C11.8125,15.25 11.9375,14.921875 12.140625,14.703125 C12.328125,14.5 12.578125,14.421875 12.84375,14.421875 C13.34375,14.46875 13.625,14.703125 14.09375,15.296875 C14.6875,16.0625 15.46875,17.046875 16.515625,17.796875 C16.984375,18.125 17.328125,18.1875 17.5625,18.078125 C17.796875,17.984375 17.875,17.703125 17.8125,17.328125 C17.609375,16.25 17.234375,15.34375 16.875,14.734375 C15.53125,14.203125 14.1875,13.453125 12.90625,12.609375 C11.625,11.765625 10.421875,10.859375 9.40625,9.984375 C8.375,9.125 7.515625,8.3125 6.9375,7.703125 C6.9375,8.140625 6.953125,8.640625 6.984375,9.171875 C7.046875,10.25 7.15625,11.125 7.25,11.734375 C7.296875,12.03125 7.328125,12.265625 7.34375,12.4375 C7.390625,12.65625 7.234375,12.875 7.015625,13.015625 C6.78125,13.140625 6.484375,13.171875 6.234375,13.03125 C5.609375,12.65625 5.125,12.40625 4.703125,12.21875 C4.265625,12.03125 3.875,11.921875 3.4375,11.90625 C3.046875,11.875 2.890625,12.078125 2.859375,12.390625 C2.828125,12.75 2.9375,13.109375 3.171875,13.4375 Z M5.984375,5.1875 C5.96875,4.875 5.96875,4.546875 5.953125,4.203125 C5.9375,3.5 5.921875,2.78125 5.921875,2.109375 C5.921875,1.765625 5.921875,1.46875 5.9375,1.203125 C5.375,1.8125 4.765625,2.5 4.203125,3.21875 C4.34375,3.390625 4.5,3.5625 4.671875,3.765625 L5.171875,4.328125 C5.484375,4.6875 5.796875,5 5.984375,5.1875 Z" transform="translate(0.265625, 19.71875) scale(1, -1)"/>
</svg>