<svg height="20.015625" viewBox="0 0 24 20.015625" width="24" xmlns="http://www.w3.org/2000/svg">
<path d="M12.1875,19.34375 C11.296875,18.796875 10.625,18.09375 10.078125,17.0625 C9.765625,16.484375 9.578125,15.828125 9.578125,14.984375 C9.578125,13.90625 10.015625,12.40625 11.203125,10.765625 C11.734375,10.015625 12.3125,9.265625 12.828125,8.578125 C13.09375,8.234375 13.34375,7.90625 13.578125,7.578125 L14.203125,6.734375 C14.59375,6.21875 14.84375,5.859375 15.03125,5.53125 C15.21875,5.1875 15.359375,4.890625 15.53125,4.515625 C15.078125,4.71875 14.40625,4.96875 13.765625,5.1875 C13.109375,5.390625 12.53125,5.5625 12.234375,5.609375 C11.28125,5.8125 10.4375,5.984375 9.59375,5.984375 C8.984375,5.984375 8.421875,5.859375 8,5.6875 C7.5625,5.515625 7.203125,5.28125 7.015625,5.09375 C6.6875,4.765625 6.390625,4.21875 6.390625,3.640625 C6.390625,2.984375 6.65625,2.34375 7.109375,1.765625 C7.546875,1.171875 8.171875,0.640625 8.890625,0.265625 C10.25,-0.453125 11.6875,-0.671875 12.78125,-0.671875 C13.15625,-0.671875 13.578125,-0.65625 13.953125,-0.640625 C14.328125,-0.609375 14.6875,-0.578125 14.90625,-0.53125 C15.3125,-0.4375 15.453125,-0.171875 15.453125,0.078125 C15.453125,0.328125 15.3125,0.546875 15.046875,0.734375 C14.6875,1.015625 14.3125,0.9375 13.5625,0.84375 C13.359375,0.828125 13.15625,0.8125 12.90625,0.8125 C12.65625,0.8125 12.40625,0.828125 12.140625,0.84375 C11.609375,0.875 11.09375,0.953125 10.65625,1.03125 C10.109375,1.140625 9.578125,1.34375 9.125,1.5625 C8.6875,1.78125 8.328125,2 8.15625,2.1875 C7.859375,2.46875 7.640625,2.703125 7.5,2.9375 C7.34375,3.171875 7.28125,3.390625 7.28125,3.671875 C7.28125,4.125 7.4375,4.515625 7.90625,4.78125 C8.140625,4.921875 8.375,5.015625 8.65625,5.0625 C8.9375,5.109375 9.265625,5.140625 9.71875,5.140625 C10.984375,5.140625 12.546875,4.6875 14.015625,3.9375 C14.328125,3.78125 14.59375,3.65625 14.796875,3.578125 C14.984375,3.484375 15.140625,3.40625 15.265625,3.34375 C15.734375,3.09375 16.109375,3.109375 16.390625,3.234375 C16.671875,3.359375 16.828125,3.6875 16.921875,3.984375 C17.09375,4.515625 17.078125,4.921875 16.8125,5.515625 C16.5625,6.078125 16.28125,6.546875 15.671875,7.296875 C15.109375,8 14.546875,8.6875 13.96875,9.375 C13.390625,10.0625 12.828125,10.78125 12.234375,11.515625 C11.375,12.59375 10.78125,13.765625 10.609375,15.09375 C10.53125,15.71875 10.5625,16.515625 10.921875,17.140625 C11.34375,17.890625 11.84375,18.5 12.4375,18.984375 Z" transform="translate(0.2578125, 19.34375) scale(1, -1)"/>
</svg>