<svg height="20.28125" viewBox="0 0 24 20.28125" width="24" xmlns="http://www.w3.org/2000/svg">
<path d="M5.421875,18.9375 C5.84375,18.71875 5.96875,18.5 6.09375,18.1875 C6.1875,17.953125 6.21875,17.5625 5.953125,16.90625 C5.828125,16.578125 5.59375,16.078125 5.28125,15.5 C4.984375,14.90625 4.609375,14.234375 4.203125,13.609375 C3.8125,12.984375 3.390625,12.390625 2.984375,11.953125 C2.75,11.703125 2.6875,11.34375 3.09375,11.15625 C3.453125,10.984375 3.734375,10.75 3.984375,10.375 C4.25,9.96875 4.328125,9.3125 4.28125,8.328125 C4.21875,7.0625 4.15625,5.765625 4.078125,4.625 C4.015625,3.5 3.953125,2.5 3.921875,1.828125 C3.875,0.890625 4.109375,0.171875 4.390625,-0.296875 C4.71875,-0.828125 4.953125,-0.890625 5.234375,-0.890625 C5.546875,-0.890625 5.890625,-0.59375 5.890625,-0.140625 C5.890625,-0.03125 5.890625,0.15625 5.921875,0.390625 C5.9375,0.625 6.015625,0.953125 6.140625,1.375 C6.296875,1.90625 6.59375,2.640625 6.984375,3.515625 C7.359375,4.390625 7.828125,5.390625 8.328125,6.453125 L7.78125,6.921875 C7.5625,6.453125 7.34375,6.03125 7.140625,5.609375 C6.71875,4.796875 6.328125,4.015625 5.921875,3.234375 L5.28125,2 C5.328125,2.578125 5.34375,3.203125 5.375,3.84375 C5.421875,5.140625 5.46875,6.40625 5.46875,7.546875 C5.46875,8.109375 5.453125,8.609375 5.421875,9.03125 C5.34375,10.34375 4.859375,11.234375 3.671875,11.65625 C5.328125,13.453125 6.578125,15.03125 7.46875,16.484375 C7.609375,16.71875 7.671875,17.0625 7.671875,17.390625 C7.671875,17.71875 7.578125,18.03125 7.421875,18.234375 C7.109375,18.625 6.671875,19.03125 5.859375,19.390625 Z M15.9375,18.640625 C15.484375,18.640625 15.078125,18.546875 14.75,18.171875 C14.421875,17.796875 14.234375,17.1875 14.234375,16.15625 C14.234375,15.53125 14.234375,15.078125 14.265625,14.59375 C13.1875,14.53125 12.359375,14.546875 11.65625,14.65625 C10.9375,14.75 10.3125,14.953125 9.640625,15.265625 L9.3125,14.640625 C10.015625,14.21875 10.703125,13.90625 11.5,13.71875 C12.28125,13.53125 13.171875,13.484375 14.328125,13.53125 L14.40625,12.890625 C14.421875,12.671875 14.46875,12.40625 14.5,12.140625 C14.59375,11.421875 14.953125,10.890625 15.53125,10.765625 C15.765625,10.71875 16.015625,10.65625 16.25,10.578125 C16.484375,10.515625 16.703125,10.4375 16.8125,10.375 C16.28125,10.125 15.875,9.921875 15.5,9.6875 C15.125,9.453125 14.78125,9.171875 14.359375,8.796875 L14.6875,8.375 C15.8125,9.140625 16.65625,9.578125 17.40625,9.671875 C17.953125,9.75 18.296875,9.859375 18.5,10 C18.6875,10.140625 18.734375,10.3125 18.734375,10.515625 C18.734375,10.6875 18.71875,10.8125 18.65625,10.921875 C18.546875,11.109375 18.1875,11.28125 17.90625,11.375 C17.609375,11.46875 17.28125,11.5625 16.9375,11.625 C16.578125,11.703125 16.109375,11.75 15.890625,12.03125 C15.65625,12.3125 15.671875,12.78125 15.65625,13.109375 L15.625,13.609375 C16.203125,13.65625 16.75,13.734375 17.40625,13.828125 C18.390625,13.96875 19.671875,14.15625 20.859375,14.515625 C21.34375,14.65625 21.5,14.890625 21.5,15.21875 C21.5,15.453125 21.21875,15.671875 20.890625,15.78125 C20.40625,15.921875 20.046875,15.84375 19.390625,15.546875 C19.03125,15.375 18.34375,15.171875 17.3125,14.984375 C16.796875,14.890625 16.203125,14.796875 15.53125,14.703125 L15.53125,15.484375 C15.53125,15.734375 15.546875,16 15.546875,16.25 C15.640625,17.375 15.875,17.765625 16.4375,17.765625 C16.78125,17.765625 17.1875,17.53125 17.421875,17.265625 L17.8125,17.84375 C17.328125,18.3125 16.5625,18.640625 15.9375,18.640625 Z M13.484375,7.765625 C13.0625,7.4375 12.890625,6.875 12.890625,6.390625 C12.890625,6.109375 12.984375,5.75 13.265625,5.46875 C13.53125,5.1875 13.96875,4.9375 14.640625,4.875 C14.015625,4.28125 13.71875,3.40625 13.71875,2.703125 C13.71875,1.859375 14.140625,1.171875 14.890625,0.671875 C15.640625,0.171875 16.71875,-0.125 18.046875,-0.078125 C18.890625,-0.03125 19.625,0.0625 19.90625,0.234375 C20.1875,0.40625 20.28125,0.6875 20.140625,0.984375 C20.046875,1.125 19.828125,1.328125 19.53125,1.421875 C19.21875,1.515625 18.890625,1.5 18.359375,1.421875 C17.8125,1.34375 17.28125,1.328125 16.8125,1.359375 C16.34375,1.390625 15.921875,1.484375 15.640625,1.609375 C14.890625,1.921875 14.59375,2.234375 14.59375,2.796875 C14.59375,3.171875 14.765625,3.546875 15.046875,3.875 C15.328125,4.203125 15.734375,4.5 16.15625,4.71875 C16.4375,4.875 16.671875,5.140625 16.671875,5.421875 C16.671875,5.796875 16.421875,6.09375 15.875,6.09375 C14.890625,6.09375 14.328125,6.171875 13.96875,6.359375 C13.578125,6.5625 13.609375,7.03125 13.96875,7.421875 Z" transform="translate(-0.09375, 19.390625) scale(1, -1)"/>
</svg>