<svg height="20.375" viewBox="0 0 24 20.375" width="24" xmlns="http://www.w3.org/2000/svg">
<path d="M8.6875,19.34375 C8.203125,17.65625 7.90625,15.625 7.578125,12.984375 C7.359375,11.09375 7.1875,8.984375 7.0625,6.59375 C6.40625,5.703125 5.78125,4.828125 5.140625,3.890625 C5.015625,3.71875 4.921875,3.578125 4.859375,3.5 C4.703125,3.3125 4.625,3.359375 4.609375,3.640625 C4.59375,3.78125 4.578125,4 4.578125,4.28125 C4.578125,4.828125 4.640625,5.890625 4.796875,7.09375 C4.953125,8.28125 5.203125,9.640625 5.609375,10.765625 L5.09375,11.046875 C4.578125,10.296875 4.109375,9.234375 3.78125,8.03125 C3.4375,6.8125 3.21875,5.453125 3.21875,4.171875 C3.21875,3.1875 3.390625,2.40625 3.671875,1.875 C3.953125,1.34375 4.359375,1.0625 4.828125,1.0625 C5.28125,1.0625 5.75,1.515625 6.078125,2.59375 C6.25,3.140625 6.546875,3.734375 6.96875,4.4375 C6.921875,3.078125 6.921875,1.734375 6.96875,0.40625 C7,-0.390625 7.296875,-1.03125 7.8125,-1.03125 C8.03125,-1.03125 8.203125,-0.96875 8.3125,-0.734375 C8.421875,-0.5 8.46875,-0.09375 8.453125,0.546875 C8.375,2.75 8.328125,4.734375 8.359375,6.625 C8.984375,7.578125 9.71875,8.578125 10.421875,9.46875 C11.125,10.359375 11.8125,11.15625 12.390625,11.734375 C13.625,12.96875 13.953125,12.84375 13.671875,11.15625 C13.53125,10.140625 13.359375,9.0625 13.234375,7.984375 C13.09375,6.890625 13.015625,5.796875 13.015625,4.78125 C13.015625,3.640625 13.25,2.703125 13.765625,2.046875 C14.28125,1.390625 15.078125,1.015625 16.25,1.015625 C16.953125,1.015625 17.703125,1.171875 18.390625,1.578125 C19.078125,2 19.6875,2.625 20.140625,3.53125 C20.609375,4.4375 20.890625,5.640625 20.890625,7.171875 C20.890625,8.265625 20.59375,9.28125 20.15625,10.125 C20.90625,11.015625 21.234375,11.84375 21.234375,12.546875 C21.234375,13.078125 21,13.46875 20.6875,13.765625 C20.359375,14.046875 19.9375,14.234375 19.5625,14.328125 C19.125,14.46875 19.078125,14.703125 19.328125,15.171875 C19.625,15.734375 19.890625,16.21875 20.078125,16.65625 C20.25,17.09375 20.34375,17.484375 20.328125,17.859375 C20.296875,18.515625 20.046875,18.78125 19.34375,18.78125 C18.875,18.78125 18.359375,18.59375 17.875,18.265625 C17.375,17.953125 16.90625,17.515625 16.515625,17 L16.953125,16.578125 C17.28125,16.953125 17.640625,17.265625 17.984375,17.46875 C18.3125,17.65625 18.640625,17.75 18.828125,17.65625 C19.015625,17.5625 19.09375,17.25 19.0625,16.796875 C19.015625,16.34375 18.875,15.734375 18.6875,15.046875 C18.5,14.375 18.59375,14 19.03125,13.765625 C19.53125,13.484375 19.8125,13.109375 19.8125,12.5 C19.8125,11.8125 19.453125,11.015625 18.765625,10.171875 C18.078125,9.328125 17.046875,8.453125 15.671875,7.609375 L16.109375,7.078125 C17.609375,7.875 18.78125,8.703125 19.625,9.546875 C19.828125,8.9375 19.921875,8.140625 19.921875,7.203125 C19.921875,5.984375 19.578125,4.796875 18.953125,3.90625 C18.328125,3.015625 17.421875,2.421875 16.28125,2.375 C15.625,2.34375 15.15625,2.609375 14.859375,3.03125 C14.5625,3.46875 14.421875,4.09375 14.421875,4.8125 C14.421875,5.890625 14.515625,7.140625 14.671875,8.40625 C14.8125,9.65625 15.015625,10.890625 15.234375,11.953125 C15.484375,13.125 15.109375,13.78125 14.3125,13.78125 C13.828125,13.78125 13.25,13.453125 12.65625,12.984375 C12.046875,12.5 11.453125,11.890625 10.921875,11.28125 C10.078125,10.34375 9.21875,9.34375 8.359375,8.265625 C8.375,8.78125 8.390625,9.265625 8.40625,9.71875 C8.421875,10.171875 8.421875,10.625 8.453125,11.0625 C8.609375,14.171875 8.90625,16.765625 9.390625,19.109375 Z" transform="translate(-0.2265625, 19.34375) scale(1, -1)"/>
</svg>