<svg height="20.296875" viewBox="0 0 24 20.296875" width="24" xmlns="http://www.w3.org/2000/svg">
<path d="M10.625,18.21875 C10.921875,18.171875 11.171875,18.140625 11.375,18.09375 C11.78125,18 12.03125,17.796875 12.171875,17.390625 C12.3125,16.984375 12.34375,16.34375 12.359375,15.828125 L12.390625,15.046875 C11.15625,14.765625 9.9375,14.3125 8.8125,13.5625 C7.34375,12.578125 5.890625,11.375 4.765625,9.875 C4.796875,10.4375 4.859375,11.25 5.09375,12.09375 C5.265625,12.75 5.40625,13.5 5.40625,14.15625 C5.40625,14.578125 5.140625,15.015625 4.671875,15.390625 C4.203125,15.765625 3.546875,16.0625 2.734375,16.25 L2.515625,15.71875 C3.125,15.4375 3.5,15.078125 3.734375,14.578125 C3.953125,14.09375 4.015625,13.46875 3.984375,12.671875 C3.9375,11.734375 3.828125,10.5625 3.6875,9.5 C3.546875,8.421875 3.390625,7.484375 3.296875,6.96875 C3.171875,6.3125 3.078125,5.5 3.078125,4.953125 C3.078125,4.515625 3.21875,4.125 3.40625,3.859375 C3.59375,3.578125 3.828125,3.40625 4.015625,3.40625 C4.578125,3.40625 4.796875,3.734375 4.765625,4.625 C4.71875,5.375 4.765625,6.171875 4.859375,6.90625 C4.953125,7.640625 5.140625,8.3125 5.40625,8.8125 C5.875,9.703125 6.375,10.4375 6.984375,11.0625 C7.59375,11.703125 8.328125,12.25 9.21875,12.84375 C10.203125,13.5 11.328125,13.921875 12.40625,14.203125 C12.453125,12.234375 12.359375,10.25 12.265625,8.359375 C10.90625,8.171875 9.625,7.90625 8.8125,7.484375 C7.84375,6.96875 7.234375,6.328125 7.09375,5.578125 C6.9375,4.828125 7.234375,3.96875 8.109375,3.046875 C8.859375,2.25 10.03125,1.734375 11.40625,1.609375 C11.15625,0.671875 10.875,-0.234375 10.515625,-1.125 L11.203125,-1.421875 C11.734375,-0.484375 12.171875,0.53125 12.5,1.5625 C14.671875,1.65625 16.578125,2.5 18.09375,4.0625 C19.046875,5.03125 19.6875,6.046875 20.09375,7.109375 C20.515625,8.15625 20.6875,9.21875 20.6875,10.296875 C20.6875,11.890625 20.328125,13.1875 19.515625,14.09375 C18.703125,14.984375 17.4375,15.484375 15.640625,15.484375 C15.109375,15.484375 14.515625,15.4375 13.859375,15.34375 C13.859375,15.71875 13.84375,16.078125 13.828125,16.4375 C13.796875,17.046875 13.75,17.46875 13.640625,17.765625 C13.53125,18.078125 13.34375,18.265625 13.0625,18.40625 C12.40625,18.75 11.734375,18.828125 10.78125,18.875 Z M15.671875,14.6875 C16.6875,14.6875 17.53125,14.390625 18.125,13.71875 C18.734375,13.03125 19.0625,11.9375 19.0625,10.375 C19.0625,8.671875 18.5,6.765625 17.1875,5.0625 C16.71875,4.46875 16.109375,3.875 15.390625,3.40625 C14.65625,2.921875 13.796875,2.5625 12.796875,2.453125 C12.96875,3.03125 13.15625,3.875 13.296875,4.765625 C13.4375,5.640625 13.5625,6.53125 13.609375,7.203125 C14.40625,7.203125 15.125,7.1875 15.6875,7.15625 C16.09375,7.140625 16.375,7.15625 16.53125,7.25 C16.703125,7.328125 16.78125,7.4375 16.78125,7.609375 C16.78125,8.15625 16.21875,8.40625 15.59375,8.453125 C15.046875,8.5 14.40625,8.515625 13.703125,8.46875 C13.828125,10.53125 13.90625,12.546875 13.875,14.5 C14.59375,14.640625 15.21875,14.6875 15.671875,14.6875 Z M12.1875,7.125 C12.15625,6.578125 12.078125,5.734375 11.984375,4.859375 C11.875,4 11.734375,3.09375 11.59375,2.453125 C11.046875,2.46875 10.59375,2.53125 10.171875,2.6875 C9.75,2.84375 9.359375,3.078125 8.9375,3.4375 C8.359375,3.90625 8.03125,4.46875 8.046875,5 C8.046875,5.546875 8.375,6.046875 9.171875,6.4375 C9.96875,6.84375 11.0625,7.03125 12.1875,7.125 Z" transform="translate(0.3984375, 18.875) scale(1, -1)"/>
</svg>