<svg height="21.234375" viewBox="0 0 24 21.234375" width="24" xmlns="http://www.w3.org/2000/svg">
<path d="M9.4375,18.921875 C10.421875,18.734375 11.140625,18.359375 11.203125,17.515625 C11.25,16.71875 11.265625,15.984375 11.203125,15.140625 C10.265625,14.796875 9.1875,14.171875 8.140625,13.390625 C7.078125,12.625 6.03125,11.671875 5.15625,10.71875 L5.59375,10.328125 C6.453125,11.140625 7.4375,11.921875 8.390625,12.578125 C9.359375,13.234375 10.3125,13.765625 11.203125,14.140625 L11.171875,12.96875 C11.15625,12.59375 11.140625,12.171875 11.109375,11.734375 C10.5625,11.359375 9.875,10.828125 9.203125,10.265625 C8.515625,9.6875 7.828125,9.0625 7.28125,8.5 C6.140625,7.328125 5.453125,6.234375 5.453125,5.421875 C5.453125,4.921875 5.65625,4.546875 6.046875,4.296875 C6.390625,4.078125 6.78125,3.96875 7.25,3.890625 C7.671875,3.390625 8.140625,2.796875 8.625,2.171875 C9.09375,1.53125 9.59375,0.875 10.0625,0.265625 C10.421875,-0.21875 10.75,-0.734375 11,-1.15625 C11.28125,-1.625 11.609375,-1.8125 12.03125,-1.328125 C12.34375,-0.96875 12.546875,-0.265625 12.484375,0.78125 L12.453125,1.578125 C12.4375,2.1875 12.40625,2.84375 12.40625,3.453125 C12.40625,3.765625 12.40625,4.03125 12.390625,4.28125 C13.515625,4.5 14.640625,4.875 15.578125,5.328125 C16.078125,5.578125 16.46875,5.84375 16.953125,6.21875 C17.421875,6.59375 17.640625,7.109375 17.234375,7.859375 C17.046875,8.171875 16.875,8.546875 16.71875,8.90625 C16.484375,9.484375 16.171875,10.328125 16.078125,11.3125 L15.578125,11.203125 C15.65625,10.125 15.828125,9.078125 15.96875,8.09375 C16.015625,7.65625 15.984375,7.34375 15.8125,7.09375 C15.640625,6.828125 15.34375,6.625 14.890625,6.390625 C14.140625,6 13.25,5.65625 12.34375,5.515625 C12.296875,6.3125 12.265625,7.328125 12.25,8.40625 C12.234375,9.46875 12.234375,10.578125 12.265625,11.5625 C12.484375,11.75 12.703125,11.953125 12.953125,12.171875 C13.203125,12.359375 13.4375,12.5625 13.65625,12.765625 C14.09375,13.15625 14.484375,13.5 14.6875,13.703125 C15.171875,14.1875 15.46875,14.515625 15.3125,15 C15.21875,15.296875 14.953125,15.640625 14.8125,15.78125 C14.59375,15.953125 14.359375,15.984375 14,15.984375 C13.75,15.984375 13.484375,15.953125 13.25,15.875 C12.984375,15.796875 12.75,15.734375 12.53125,15.671875 C12.546875,15.921875 12.5625,16.203125 12.59375,16.53125 C12.640625,16.875 12.65625,17.234375 12.671875,17.609375 C12.6875,18 12.640625,18.296875 12.5,18.53125 C12.359375,18.75 12.125,18.921875 11.734375,19.078125 C11.515625,19.171875 11.171875,19.265625 10.8125,19.328125 C10.4375,19.375 10.046875,19.421875 9.71875,19.421875 Z M12.4375,14.640625 C12.609375,14.71875 12.828125,14.796875 13.046875,14.859375 C13.265625,14.90625 13.46875,14.953125 13.609375,14.953125 C13.765625,14.953125 13.859375,14.921875 13.890625,14.84375 C13.96875,14.6875 13.703125,14.25 13.4375,13.875 C13.15625,13.5 12.875,13.15625 12.625,12.859375 C12.5,12.703125 12.375,12.59375 12.296875,12.484375 C12.296875,13.171875 12.34375,13.890625 12.4375,14.640625 Z M17.5625,13.71875 C18.609375,12.875 19.4375,11.828125 20.140625,10.171875 C20.546875,9.1875 20.6875,8.046875 20.765625,6.671875 C20.796875,6.046875 21.078125,5.734375 21.34375,5.734375 C21.578125,5.734375 21.84375,6.03125 21.984375,6.453125 C22.125,6.890625 22.171875,7.390625 22.171875,7.953125 C22.171875,8.796875 21.78125,10.140625 20.9375,11.453125 C20.28125,12.4375 19.25,13.390625 17.84375,14.109375 Z M11.140625,10.828125 L11.140625,9.59375 C11.125,9.125 11.125,8.640625 11.125,8.140625 L11.125,6.65625 C11.109375,6.171875 11.109375,5.703125 11.109375,5.28125 C10.90625,5.234375 10.65625,5.1875 10.359375,5.15625 C9.78125,5.09375 9.15625,5.046875 8.609375,5.046875 C8.046875,5.046875 7.25,5.03125 6.796875,5.28125 C6.578125,5.40625 6.453125,5.5625 6.453125,5.734375 C6.453125,6.1875 6.671875,6.59375 6.96875,7.015625 C7.28125,7.421875 7.6875,7.828125 8.109375,8.265625 C8.546875,8.71875 9.09375,9.21875 9.640625,9.65625 C10.203125,10.109375 10.71875,10.515625 11.140625,10.828125 Z M11.140625,4.015625 C11.140625,3.546875 11.171875,2.953125 11.1875,2.40625 C11.1875,1.84375 11.171875,1.328125 11.15625,1.015625 C11.125,0.59375 11.046875,0.578125 10.859375,0.84375 C10.53125,1.265625 10.046875,1.828125 9.53125,2.390625 C9,2.953125 8.453125,3.5 8.0625,3.890625 C8.3125,3.875 8.5625,3.875 8.84375,3.875 C9.390625,3.875 9.921875,3.921875 10.4375,3.96875 C10.6875,3.96875 10.921875,4 11.140625,4.015625 Z" transform="translate(-1.6640625, 19.421875) scale(1, -1)"/>
</svg>