<svg height="21.34375" viewBox="0 0 24 21.34375" width="24" xmlns="http://www.w3.org/2000/svg">
<path d="M8.203125,19.765625 C7.625,19.71875 7.078125,19.703125 6.453125,19.515625 L6.53125,18.875 C7.6875,19.015625 8.28125,18.8125 8.796875,17.9375 L9.34375,16.96875 C8.546875,16.53125 7.71875,16.03125 6.96875,15.578125 C6.640625,15.390625 6.296875,15.4375 6.09375,15.671875 C5.875,15.9375 5.734375,16.328125 5.734375,16.78125 L5.15625,16.65625 C5.078125,15.671875 5.1875,14.8125 5.5625,14.28125 C5.890625,13.859375 6.234375,13.765625 6.484375,13.765625 C6.921875,13.765625 7.171875,13.953125 7.65625,14.421875 C8.421875,15.171875 9.125,15.765625 9.734375,16.21875 C9.921875,15.90625 10.109375,15.59375 10.28125,15.28125 L10.8125,14.328125 C10.359375,13.921875 9.890625,13.484375 9.40625,13.03125 L7.9375,11.671875 C6.953125,10.765625 5.984375,9.828125 5.15625,9 C4.828125,8.65625 4.515625,8.484375 4.109375,8.265625 C3.6875,8.046875 3.40625,7.828125 3.21875,7.46875 C3.078125,7.203125 2.953125,6.828125 2.953125,6.4375 C2.953125,6.046875 3.046875,5.765625 3.34375,5.734375 C3.625,5.703125 3.84375,5.875 4.171875,6.171875 C4.609375,6.546875 5,6.875 5.5,7.203125 C6.71875,8 7.984375,8.734375 9.21875,9.359375 C10.4375,9.96875 11.640625,10.484375 12.71875,10.90625 C13.03125,10.375 13.34375,9.84375 13.65625,9.34375 C12.6875,8.84375 11.609375,8.15625 10.515625,7.28125 C9.40625,6.40625 8.28125,5.328125 7.21875,4.078125 C6.984375,5.21875 6.59375,6.078125 6.03125,6.6875 L5.546875,6.3125 C5.9375,5.65625 6.171875,4.859375 6.234375,3.625 C6.265625,3.03125 6.265625,2.65625 6.21875,2.28125 C6.171875,1.859375 6.453125,1.484375 6.671875,1.390625 C6.890625,1.296875 7.0625,1.3125 7.296875,1.53125 C7.578125,1.765625 7.71875,2.015625 7.8125,2.328125 C8.03125,3.046875 8.328125,3.578125 8.65625,4.015625 C9.546875,5.140625 10.484375,6.09375 11.421875,6.890625 C12.34375,7.671875 13.234375,8.28125 14,8.703125 L14.65625,7.625 C14.859375,7.25 15.078125,6.890625 15.296875,6.53125 C14.296875,5.515625 13.1875,4.484375 11.796875,3.359375 C10.390625,2.25 8.703125,1.09375 6.5,-0.21875 L7.015625,-0.890625 C9.15625,0.34375 10.8125,1.4375 12.234375,2.515625 C13.265625,2.140625 14.375,1.71875 15.4375,1.265625 C16.484375,0.796875 17.484375,0.328125 18.296875,-0.140625 C18.796875,-0.4375 19.125,-0.734375 19.34375,-1.015625 C19.71875,-1.4375 19.9375,-1.578125 20.15625,-1.578125 C20.3125,-1.578125 20.515625,-1.453125 20.65625,-1.25 C20.796875,-1.0625 20.90625,-0.796875 20.90625,-0.53125 C20.90625,-0.171875 20.59375,0.3125 20.1875,0.84375 L20,1.09375 C19.921875,1.171875 19.84375,1.28125 19.765625,1.390625 C19.578125,1.609375 19.375,1.90625 19.078125,2.328125 C18.625,3 18.203125,3.640625 17.796875,4.296875 L16.609375,6.1875 C17.546875,7.171875 18.21875,8.09375 18.21875,8.890625 C18.21875,9.734375 17.65625,10.203125 16.390625,10.203125 C15.921875,10.203125 15.265625,10.03125 14.515625,9.734375 C14.234375,10.25 13.953125,10.765625 13.703125,11.234375 C14.78125,11.5625 15.921875,11.796875 17.1875,11.796875 C17.9375,11.796875 18.671875,11.84375 19.171875,12.078125 C19.46875,12.203125 19.71875,12.4375 19.71875,12.71875 C19.71875,13.125 19.25,13.3125 18.71875,13.34375 C18.5,13.359375 18.28125,13.390625 18.03125,13.4375 C17.5625,13.53125 17.234375,13.734375 16.953125,13.90625 C16.671875,14.0625 16.4375,14.21875 16.1875,14.40625 C16.0625,14.5 15.921875,14.609375 15.78125,14.703125 L15.3125,14.3125 C15.65625,13.984375 15.9375,13.75 16.203125,13.53125 C16.453125,13.328125 16.703125,13.125 17.015625,12.890625 C16.25,12.75 15.625,12.59375 15.03125,12.453125 C14.453125,12.296875 13.90625,12.109375 13.328125,11.90625 C13.125,12.296875 12.921875,12.671875 12.71875,13.046875 C12.515625,13.40625 12.3125,13.78125 12.125,14.15625 C12.6875,14.609375 13.25,15.046875 13.765625,15.484375 C14.375,16.015625 14.796875,16.375 15.03125,16.703125 C15.265625,17.015625 15.359375,17.296875 15.34375,17.6875 C15.3125,18.34375 14.6875,18.796875 13.609375,18.796875 C13.234375,18.796875 12.890625,18.734375 12.5625,18.625 C12.21875,18.5 11.890625,18.3125 11.46875,18.125 C11.1875,17.984375 10.828125,17.796875 10.421875,17.5625 L10.25,17.953125 C10.1875,18.078125 10.109375,18.234375 10.015625,18.40625 C9.734375,18.890625 9.515625,19.25 9.25,19.46875 C8.96875,19.6875 8.640625,19.765625 8.203125,19.765625 Z M13.0625,18.03125 C13.40625,18.03125 13.578125,17.859375 13.578125,17.515625 C13.578125,17.296875 13.53125,17.09375 13.34375,16.8125 C13.171875,16.53125 12.890625,16.21875 12.4375,15.796875 C12.203125,15.578125 11.9375,15.34375 11.640625,15.09375 L10.765625,16.921875 C11.171875,17.1875 11.5,17.40625 11.734375,17.546875 C12.21875,17.84375 12.640625,18.03125 13.0625,18.03125 Z M11.28125,13.484375 C11.46875,13.15625 11.65625,12.84375 11.828125,12.53125 C12,12.21875 12.171875,11.890625 12.34375,11.5625 C10.265625,10.859375 8.046875,9.875 5.703125,8.640625 C7.8125,10.609375 9.640625,12.125 11.28125,13.484375 Z M16.015625,9.453125 C16.4375,9.453125 16.65625,9.3125 16.65625,8.859375 C16.65625,8.453125 16.328125,7.828125 15.9375,7.296875 C15.546875,7.921875 15.203125,8.53125 14.859375,9.140625 C15.359375,9.359375 15.734375,9.453125 16.015625,9.453125 Z M15.890625,5.5 C16.734375,4.078125 17.640625,2.59375 18.625,0.984375 C18.140625,1.15625 17.671875,1.34375 17.21875,1.53125 C16.765625,1.703125 16.296875,1.859375 15.84375,2.046875 C14.9375,2.375 13.984375,2.71875 12.9375,3.046875 C14.15625,3.984375 15.09375,4.78125 15.890625,5.5 Z" transform="translate(0.0703125, 19.765625) scale(1, -1)"/>
</svg>