<svg height="21.1875" viewBox="0 0 24 21.1875" width="24" xmlns="http://www.w3.org/2000/svg">
<path d="M4.828125,18.890625 C5.484375,17.859375 6.640625,16.921875 8.109375,16.484375 C8.515625,16.375 8.859375,16.296875 9.171875,16.28125 C9.78125,16.234375 10.875,16.25 10.46875,17.234375 C10.328125,17.59375 9.875,17.71875 9.453125,17.6875 C9.09375,17.65625 8.640625,17.65625 8.203125,17.734375 C7.6875,17.828125 7.21875,17.984375 6.765625,18.21875 C6.296875,18.453125 5.84375,18.8125 5.3125,19.328125 Z M18.40625,16.953125 C17.765625,16.953125 17,16.734375 16.171875,16.390625 C15.34375,16.0625 14.46875,15.578125 13.578125,15.03125 C11.9375,14 10.078125,12.5 8.421875,10.90625 C8.375,11.5 8.40625,11.9375 8.5,12.453125 C8.625,13.109375 8.59375,13.65625 8.046875,13.859375 C7.703125,13.984375 7.28125,14.0625 6.84375,14.15625 C6.390625,14.265625 6.078125,14.390625 5.734375,14.609375 C5.421875,14.8125 5.265625,15.046875 5.3125,15.546875 L4.71875,15.671875 C4.53125,15.015625 4.609375,14.5 5.09375,14.0625 C5.453125,13.75 6.03125,13.390625 6.546875,13.21875 C7.109375,13.046875 7.34375,12.875 7.375,12.296875 C7.40625,11.546875 7.46875,10.859375 7.609375,10.109375 C6.40625,8.84375 5.34375,7.578125 4.578125,6.375 C3.796875,5.171875 3.3125,4.03125 3.296875,3.09375 C3.265625,1.765625 3.890625,0.96875 5.15625,0.9375 C6.109375,0.90625 7.109375,1.328125 8.15625,2.234375 C9.09375,3.03125 9.609375,3.9375 9.640625,5.265625 C9.6875,6.703125 9.234375,8.234375 8.734375,9.6875 C10.4375,11.53125 12.3125,13.1875 13.96875,14.40625 C14.71875,14.96875 15.53125,15.40625 16.25,15.71875 C16.984375,16.03125 17.609375,16.203125 18.078125,16.203125 C18.921875,16.203125 19.203125,15.796875 19.203125,15.046875 C19.203125,14.578125 19.03125,13.984375 18.765625,13.34375 C18.5,12.6875 18.125,12 17.6875,11.375 C17.375,10.921875 17.421875,10.375 17.90625,9.9375 C18.984375,8.953125 19.390625,7.625 19.390625,6.03125 C19.390625,5.3125 19.25,4.625 18.953125,4.109375 C18.640625,3.59375 18.171875,3.265625 17.515625,3.265625 C17.140625,3.265625 16.671875,3.328125 16.21875,3.5 C16.265625,4.90625 16.296875,6.15625 16.296875,7.34375 C16.28125,8.515625 16.21875,9.625 16.125,10.78125 C16.046875,11.640625 15.453125,12.21875 14.609375,12.171875 C13.90625,12.109375 13.078125,11.546875 12.421875,10.75 C11.765625,9.9375 11.28125,8.875 11.28125,7.8125 C11.28125,6.875 11.734375,5.90625 12.40625,5.0625 C13.09375,4.203125 14,3.4375 14.953125,2.90625 C14.921875,2.015625 14.84375,1.25 14.71875,0.515625 C14.59375,-0.21875 14.421875,-0.875 14.1875,-1.578125 L14.734375,-1.859375 C15.609375,-0.5 16.015625,0.8125 16.15625,2.359375 C16.671875,2.140625 17.1875,2.046875 17.640625,2.046875 C18.546875,2.046875 19.359375,2.453125 19.9375,3.15625 C20.515625,3.84375 20.859375,4.828125 20.859375,5.953125 C20.859375,6.953125 20.609375,7.765625 20.1875,8.484375 C19.75,9.203125 19.15625,9.8125 18.484375,10.375 C18.046875,10.734375 18.078125,10.953125 18.453125,11.359375 C19.96875,12.921875 20.703125,14.109375 20.703125,15.34375 C20.703125,15.796875 20.484375,16.203125 20.09375,16.484375 C19.71875,16.765625 19.125,16.953125 18.40625,16.953125 Z M14.09375,11.359375 C14.5625,11.640625 14.84375,11.375 14.890625,10.78125 C15.015625,8.453125 15.015625,6.34375 14.984375,4.109375 C14.234375,4.53125 13.515625,5.140625 13,5.796875 C12.46875,6.46875 12.140625,7.203125 12.140625,7.953125 C12.140625,8.875 12.453125,9.625 12.859375,10.203125 C13.25,10.765625 13.71875,11.15625 14.09375,11.359375 Z M7.921875,8.796875 C8.078125,8.140625 8.203125,7.546875 8.28125,6.984375 C8.34375,6.40625 8.375,5.84375 8.375,5.234375 C8.375,4.375 8.140625,3.4375 7.578125,2.734375 C7.25,2.3125 6.875,2.046875 6.515625,1.90625 C6.15625,1.75 5.8125,1.703125 5.546875,1.703125 C5.296875,1.703125 5.09375,1.828125 4.96875,2.078125 C4.828125,2.328125 4.765625,2.71875 4.765625,3.265625 C4.765625,3.96875 5.09375,4.828125 5.65625,5.78125 C6.21875,6.71875 7,7.765625 7.921875,8.796875 Z" transform="translate(-0.0625, 19.328125) scale(1, -1)"/>
</svg>