<svg height="19.296875" viewBox="0 0 24 19.296875" width="24" xmlns="http://www.w3.org/2000/svg">
<path d="M3.21875,16.21875 C3.390625,15.84375 3.6875,15.34375 3.921875,15.03125 C4.515625,14.140625 5.140625,13.8125 5.84375,13.8125 C5.984375,13.8125 6.125,13.8125 6.265625,13.828125 C6.515625,13.859375 6.78125,13.953125 7.125,14.09375 C7.453125,14.25 7.84375,14.46875 8.1875,14.65625 C8.34375,14.75 8.546875,14.859375 8.765625,14.984375 C9.21875,15.234375 9.796875,15.515625 10.5625,15.84375 C12.28125,16.5625 13.4375,17 14.328125,17.28125 C15.21875,17.5625 15.84375,17.625 16.46875,17.65625 C17.640625,17.71875 18.34375,17.3125 18.34375,16.65625 C18.34375,16.171875 18.125,15.796875 17.40625,15.296875 C16.78125,14.859375 15.734375,14.40625 14.609375,14.015625 L14.890625,13.609375 C15.40625,13.703125 16.015625,13.859375 16.578125,14.046875 C17.125,14.234375 17.625,14.4375 18,14.609375 C18.796875,14.984375 19.328125,15.359375 19.671875,15.71875 C20,16.078125 20.140625,16.421875 20.140625,16.703125 C20.140625,17.1875 19.921875,17.5625 19.484375,17.84375 C18.78125,18.265625 17.765625,18.40625 16.53125,18.359375 C16.171875,18.359375 15.671875,18.28125 15.125,18.1875 C14.5625,18.078125 13.96875,17.9375 13.46875,17.796875 C13.171875,17.703125 12.859375,17.59375 12.5,17.484375 C12.125,17.375 11.765625,17.25 11.390625,17.125 C10.640625,16.875 9.890625,16.625 9.3125,16.375 C8.375,15.96875 7.671875,15.703125 7.140625,15.546875 C6.59375,15.40625 6.203125,15.34375 5.859375,15.34375 C5.3125,15.34375 4.859375,15.46875 4.484375,15.734375 C4.3125,15.875 4.15625,16.015625 4.03125,16.15625 L3.640625,16.578125 Z M6.875,9.9375 C7.09375,9.484375 7.46875,8.953125 8.0625,8.59375 C8.90625,8.09375 9.859375,7.9375 11.1875,8.015625 C11.171875,7.609375 11.171875,7.125 11.171875,6.546875 C11.171875,5.984375 11.1875,5.375 11.1875,4.765625 C11.21875,3.546875 11.234375,2.328125 11.265625,1.53125 C10.953125,1.671875 10.4375,1.9375 9.875,2.234375 C9.3125,2.515625 8.71875,2.828125 8.265625,3.09375 L8.015625,2.5625 C8.734375,2.09375 9.390625,1.671875 9.84375,1.21875 C10.046875,1.015625 10.28125,0.75 10.46875,0.484375 C10.65625,0.21875 10.8125,-0.078125 10.90625,-0.265625 C11.046875,-0.6875 11.203125,-0.890625 11.515625,-0.890625 C11.84375,-0.890625 12.234375,-0.640625 12.40625,-0.21875 C12.546875,0.15625 12.546875,0.671875 12.5,1.5625 L12.46875,3.40625 C12.453125,4.671875 12.4375,5.890625 12.4375,6.890625 L12.4375,8.109375 C12.703125,8.15625 13.03125,8.25 13.375,8.359375 C13.703125,8.46875 14.0625,8.609375 14.359375,8.765625 C14.765625,8.984375 15.203125,9.265625 15.546875,9.5625 C15.90625,9.84375 16.15625,10.125 16.25,10.34375 C16.53125,11.140625 16.40625,11.65625 15.5,11.703125 C15.21875,11.71875 14.78125,11.890625 14.296875,12.140625 C13.8125,12.375 13.28125,12.6875 12.796875,12.96875 C12.546875,13.109375 12.171875,13.1875 12,13.109375 C11.640625,12.953125 11.484375,12.625 11.40625,12.171875 C11.34375,11.796875 11.296875,11.3125 11.28125,10.8125 C11.25,10.296875 11.21875,9.78125 11.203125,9.3125 C10.90625,9.234375 10.359375,9.21875 9.8125,9.21875 C9.265625,9.234375 8.71875,9.3125 8.40625,9.40625 C8.203125,9.46875 7.96875,9.640625 7.765625,9.796875 C7.578125,9.96875 7.390625,10.15625 7.28125,10.328125 Z M12.4375,9.4375 C12.421875,9.734375 12.421875,10.15625 12.453125,10.578125 C12.5,10.984375 12.515625,11.375 12.546875,11.65625 C12.59375,12.21875 12.875,12.296875 13.28125,12.046875 C13.515625,11.90625 13.71875,11.796875 13.90625,11.6875 C14,11.625 14.109375,11.5625 14.21875,11.515625 C14.328125,11.4375 14.453125,11.375 14.59375,11.28125 C15.125,10.96875 15.171875,10.765625 14.890625,10.4375 C14.703125,10.25 14.28125,10.015625 13.828125,9.828125 C13.359375,9.640625 12.84375,9.5 12.4375,9.4375 Z M15.546875,4.875 C16.53125,4.484375 17.515625,3.796875 18.171875,2.703125 C18.59375,2 18.78125,1.484375 18.890625,1.078125 C19.03125,0.484375 19.328125,0.390625 19.65625,0.390625 C20,0.390625 20.375,0.734375 20.375,1.390625 C20.375,1.875 20.1875,2.453125 19.90625,2.90625 C19.25,3.9375 18.484375,4.5 17.59375,4.875 C17.140625,5.078125 16.515625,5.25 15.84375,5.375 Z M4.8125,4.78125 C4.203125,4.171875 3.875,3.546875 3.828125,2.5625 C3.78125,2.015625 3.921875,1.625 4.15625,1.25 C4.328125,0.921875 4.703125,0.6875 5.0625,0.6875 C5.515625,0.6875 5.75,0.890625 5.84375,1.421875 C5.9375,2.078125 6.625,2.5 7.140625,2.875 C7.640625,3.234375 8.1875,3.640625 8.75,4.015625 L9.53125,4.53125 L9.359375,5.046875 C8.90625,4.765625 8.28125,4.421875 7.640625,4.0625 C7,3.71875 6.3125,3.359375 5.796875,3.078125 C5.421875,2.890625 5.21875,2.84375 5.09375,3.171875 C4.953125,3.546875 5.015625,4.125 5.203125,4.578125 Z" transform="translate(0.203125, 18.40625) scale(1, -1)"/>
</svg>