<svg height="21.40625" viewBox="0 0 24 21.40625" width="24" xmlns="http://www.w3.org/2000/svg">
<path d="M9.234375,19.4375 C9.828125,18.84375 10.578125,18.390625 11.515625,18.140625 C11.890625,18.046875 11.90625,17.984375 11.5625,17.9375 C10.90625,17.84375 10.078125,17.546875 9.1875,17.1875 L9.40625,16.71875 C9.96875,16.953125 10.640625,17.109375 11.28125,17.203125 C11.9375,17.296875 12.546875,17.34375 13.015625,17.3125 C13.609375,17.265625 14,17.265625 14.328125,17.265625 C14.703125,17.265625 14.90625,17.453125 15,17.65625 C15.078125,17.875 15.03125,18.125 14.890625,18.265625 C14.546875,18.59375 14.109375,18.640625 13.421875,18.71875 C12.515625,18.8125 11.796875,18.921875 11.1875,19.09375 C10.5625,19.25 10.046875,19.46875 9.578125,19.78125 Z M17.453125,16.484375 C15.796875,16.453125 14.125,16.171875 12.078125,15.6875 C9.6875,15.140625 7.75,14.5625 6,13.96875 C5.5,13.796875 5.171875,13.765625 4.859375,13.765625 C4.484375,13.765625 4.171875,13.84375 4.125,14.109375 C4.078125,14.40625 4.171875,14.6875 4.34375,15 L3.875,15.171875 C3.4375,14.6875 3.171875,14.015625 3.140625,13.390625 C3.109375,12.796875 3.4375,12.453125 3.890625,12.359375 C4.34375,12.265625 4.90625,12.359375 5.546875,12.625 C6.765625,13.140625 8.0625,13.625 9.234375,14.046875 C10.40625,14.46875 11.46875,14.796875 12.234375,14.984375 C13.984375,15.40625 15.59375,15.828125 16.96875,15.828125 C18.015625,15.828125 18.671875,15.734375 19.0625,15.5625 C19.4375,15.375 19.53125,15.109375 19.515625,14.734375 C19.484375,14.328125 19.171875,14 18.6875,13.71875 C18.21875,13.4375 17.5625,13.21875 16.875,13.03125 C16.71875,13.203125 16.578125,13.3125 16.390625,13.390625 C16.015625,13.578125 15.59375,13.390625 15,12.875 C14.296875,12.265625 13.40625,11.453125 12.5625,10.671875 C11.703125,9.875 10.875,9.09375 10.28125,8.5625 C10.359375,8.8125 10.484375,9.171875 10.5625,9.359375 C10.875,9.734375 11,10.015625 11,10.28125 C11,10.453125 10.765625,10.65625 10.421875,10.703125 L10.453125,11.3125 C10.46875,11.75 10.46875,12.1875 10.046875,12.4375 C9.625,12.6875 9.0625,12.515625 8.75,12.421875 C8.59375,12.359375 8.421875,12.3125 8.265625,12.265625 C7.59375,12.078125 7.21875,12.171875 7.15625,12.546875 L6.6875,12.34375 C6.78125,11.859375 6.953125,11.46875 7.296875,11.28125 C7.625,11.09375 8.125,11.078125 8.859375,11.359375 C9.046875,11.421875 9.171875,11.4375 9.265625,11.40625 C9.328125,11.375 9.375,11.3125 9.390625,11.234375 C9.421875,11.09375 9.4375,10.921875 9.390625,10.71875 C9.078125,10.640625 8.65625,10.484375 8.25,10.296875 C7.828125,10.109375 7.4375,9.875 7.15625,9.640625 C6.65625,9.25 6.390625,8.921875 6.359375,8.671875 C6.3125,8.421875 6.46875,8.234375 6.84375,8.140625 C7.140625,8.046875 7.578125,7.953125 7.984375,7.859375 C8.375,7.765625 8.75,7.671875 8.9375,7.65625 C8.375,7.1875 7.609375,6.78125 7.125,6.5 C6.921875,6.40625 6.765625,6.296875 6.609375,6.21875 C6.453125,6.125 6.3125,6.0625 6.1875,6.03125 C5.921875,5.9375 5.75,5.765625 5.6875,5.46875 C5.609375,5.1875 5.578125,4.828125 5.546875,4.53125 C5.515625,4.265625 5.671875,4.171875 5.9375,4.21875 C6.21875,4.25 6.5625,4.4375 6.9375,4.71875 C7.15625,4.90625 7.578125,5.25 8.109375,5.6875 C8.625,6.125 9.234375,6.640625 9.84375,7.15625 C10.4375,7.671875 11.03125,8.1875 11.5,8.609375 C12.25,9.3125 13.015625,10.015625 13.65625,10.640625 C14.28125,11.25 14.796875,11.765625 15.078125,12.046875 C15.203125,12.1875 15.3125,12.28125 15.40625,12.34375 C15.5625,12.4375 15.625,12.40625 15.625,12.265625 C15.625,12.1875 15.609375,12.109375 15.578125,12 C15.34375,11.25 15.21875,10.53125 15.140625,9.828125 C15.078125,9.3125 15.296875,8.890625 15.84375,8.859375 C16.28125,8.828125 16.578125,8.796875 16.875,8.703125 C17.078125,8.65625 17.1875,8.578125 17.1875,8.5 C17.171875,8.40625 17,8.28125 16.65625,8.109375 C15.796875,7.703125 14.5,7.203125 13.21875,6.6875 C13.015625,6.609375 12.796875,6.53125 12.53125,6.421875 L11.703125,6.109375 C11.125,5.875 10.515625,5.625 10.078125,5.421875 C9.25,5.046875 8.75,4.734375 8.453125,4.453125 C8.15625,4.171875 8.0625,3.921875 8.0625,3.640625 C8.0625,2.9375 8.6875,2.4375 10.0625,2.359375 C9.8125,2.078125 9.390625,1.703125 8.734375,1.25 C8.28125,0.921875 7.875,0.6875 7.296875,0.5 C6.9375,0.375 6.625,0.265625 6.21875,0.140625 C6,0.078125 5.8125,-0.015625 5.65625,-0.125 C5.328125,-0.34375 5.203125,-0.640625 5.125,-0.96875 C5.046875,-1.296875 5.15625,-1.625 5.5,-1.625 C5.65625,-1.625 5.84375,-1.578125 6.046875,-1.515625 C6.546875,-1.34375 7.0625,-1.078125 7.65625,-0.71875 L8.234375,-0.375 C8.4375,-0.265625 8.625,-0.140625 8.828125,-0.03125 C9.21875,0.1875 9.578125,0.390625 9.84375,0.53125 C10.671875,0.953125 11.421875,1.015625 12.453125,0.875 C13.171875,0.734375 13.8125,0.578125 14.390625,0.375 C14.984375,0.171875 15.53125,-0.078125 16.125,-0.359375 C16.78125,-0.6875 17.25,-1.015625 17.515625,-1.25 C17.9375,-1.578125 18.421875,-1.609375 18.734375,-1.609375 C19.03125,-1.609375 19.265625,-1.484375 19.375,-1.3125 C19.46875,-1.140625 19.46875,-0.921875 19.328125,-0.734375 C19.109375,-0.453125 18.65625,-0.109375 18.296875,0.078125 C18.203125,0.125 18.09375,0.171875 17.96875,0.234375 C17.84375,0.296875 17.703125,0.359375 17.5625,0.4375 C17.265625,0.578125 16.953125,0.71875 16.65625,0.828125 C16.234375,0.96875 15.734375,1.125 15.21875,1.25 C14.703125,1.390625 14.15625,1.5 13.71875,1.578125 C12.328125,1.828125 11.4375,1.78125 10.609375,1.625 C10.875,1.8125 11.203125,2.09375 11.453125,2.3125 C12.578125,2.390625 13.71875,2.46875 14.984375,2.890625 C15.578125,3.078125 15.890625,3.359375 15.984375,3.640625 C16.0625,3.90625 15.921875,4.1875 15.59375,4.375 C15.1875,4.609375 14.71875,4.953125 14.40625,5.1875 C13.75,5.6875 13.171875,5.546875 12.5,5.046875 C11.890625,4.5625 11.359375,3.96875 10.8125,3.390625 C10.21875,3.359375 9.78125,3.40625 9.453125,3.515625 C9.140625,3.625 8.984375,3.734375 8.984375,3.875 C8.984375,4.015625 9.0625,4.125 9.265625,4.28125 C9.453125,4.421875 9.8125,4.609375 10.328125,4.875 C10.734375,5.078125 11.28125,5.3125 11.890625,5.515625 C12.5,5.734375 13.125,5.921875 13.671875,6.09375 C14,6.1875 14.328125,6.296875 14.671875,6.40625 L16.6875,7.0625 C17.328125,7.265625 18.3125,7.578125 18.78125,7.859375 C19.015625,8.015625 19.125,8.1875 19.125,8.40625 C19.125,8.734375 18.84375,9.015625 18.09375,9.234375 C17.828125,9.3125 17.3125,9.453125 16.875,9.53125 C16.609375,9.578125 16.453125,9.6875 16.53125,10.203125 C16.625,10.859375 16.765625,11.484375 17.046875,12.140625 C17.09375,12.265625 17.109375,12.390625 17.09375,12.5 C17.609375,12.609375 18.171875,12.734375 18.65625,12.859375 C19.125,12.96875 19.53125,13.09375 19.8125,13.203125 C20.875,13.625 21.328125,14.0625 21.359375,14.765625 C21.375,15.25 21.09375,15.6875 20.453125,16.015625 C19.8125,16.34375 18.828125,16.5 17.453125,16.484375 Z M9.4375,9.84375 C9.4375,9.390625 9.390625,8.9375 9.34375,8.6875 C9.265625,8.328125 9.125,8.1875 8.796875,8.28125 C8.515625,8.375 8.265625,8.4375 7.921875,8.609375 C7.8125,8.65625 7.78125,8.75 7.8125,8.84375 C7.8125,8.953125 7.90625,9.078125 8.0625,9.21875 C8.25,9.390625 8.515625,9.546875 8.78125,9.640625 C9.03125,9.75 9.28125,9.828125 9.4375,9.84375 Z M12.1875,3.4375 C12.34375,3.640625 12.515625,3.828125 12.734375,4.03125 C13.140625,4.40625 13.609375,4.890625 13.90625,4.703125 C14.015625,4.640625 14.109375,4.578125 14.1875,4.515625 C14.328125,4.375 14.90625,4.015625 14.265625,3.796875 C13.6875,3.59375 12.84375,3.46875 12.1875,3.4375 Z" transform="translate(-0.2421875, 19.78125) scale(1, -1)"/>
</svg>