<svg height="21.890625" viewBox="0 0 24 21.890625" width="24" xmlns="http://www.w3.org/2000/svg">
<path d="M15.734375,19.421875 C15.5,19.546875 15.3125,19.625 15.03125,19.609375 C14.734375,19.59375 14.328125,19.484375 13.671875,19.25 C13.203125,19.0625 12.5,18.859375 11.75,18.65625 C11,18.453125 10.1875,18.25 9.484375,18.09375 C8.703125,17.921875 8.15625,17.953125 7.75,18.109375 C7.328125,18.25 7.0625,18.5 6.828125,18.828125 L6.296875,18.3125 C6.484375,18.03125 6.671875,17.75 6.859375,17.484375 C7.21875,16.953125 7.546875,16.640625 7.84375,16.5 C8.140625,16.359375 8.34375,16.296875 8.9375,16.453125 C9.515625,16.609375 10.375,17 11.109375,17.296875 C11.46875,17.453125 11.84375,17.59375 12.21875,17.734375 C12.953125,18.015625 13.65625,18.265625 14.15625,18.390625 L14.234375,18.296875 C13.71875,17.4375 13.109375,16.40625 12.4375,15.375 C11.765625,14.34375 11.046875,13.296875 10.375,12.40625 L9.921875,11.796875 C9.796875,11.65625 9.65625,11.484375 9.5,11.328125 C9.171875,11 9.015625,10.578125 8.84375,10.15625 C8.640625,9.640625 8.5625,9.3125 8.5625,8.9375 C8.5625,8.515625 8.609375,8.203125 8.6875,8.015625 C8.765625,7.8125 8.890625,7.71875 9.078125,7.703125 C9.15625,7.6875 9.21875,7.703125 9.296875,7.71875 C9.421875,7.75 9.546875,7.859375 9.65625,8.09375 C9.78125,8.3125 9.953125,8.8125 10.109375,9.34375 C10.203125,9.609375 10.296875,9.875 10.390625,10.171875 C10.625,10.734375 10.90625,11.234375 11.453125,12.078125 C11.890625,12.734375 12.234375,13.09375 12.515625,13.296875 C12.796875,13.484375 13.015625,13.515625 13.15625,13.515625 C13.265625,13.515625 13.390625,13.4375 13.484375,13.296875 C13.59375,13.15625 13.703125,12.921875 13.78125,12.59375 C13.953125,11.9375 14.046875,10.90625 14.046875,9.390625 C14.046875,6 13.5625,3.484375 13.0625,1.96875 C12.90625,1.5 12.640625,0.875 12.328125,0.21875 C12.015625,-0.453125 11.609375,-1.171875 11.1875,-1.78125 L11.6875,-2.265625 C13,-0.890625 13.765625,0.453125 14.359375,1.953125 C15.15625,3.96875 15.578125,6.546875 15.578125,9.5 C15.578125,11.15625 15.296875,12.359375 14.90625,13.140625 C14.515625,13.921875 14,14.28125 13.53125,14.28125 C13.296875,14.28125 13.0625,14.265625 12.796875,14.109375 C13.28125,14.8125 13.8125,15.515625 14.375,16.140625 C14.921875,16.765625 15.453125,17.3125 15.9375,17.6875 C16.609375,18.203125 16.671875,18.453125 16.34375,18.875 C16.203125,19.0625 15.921875,19.328125 15.734375,19.421875 Z" transform="translate(0.515625, 19.625) scale(1, -1)"/>
</svg>