<svg height="20.828125" viewBox="0 0 24 20.828125" width="24" xmlns="http://www.w3.org/2000/svg">
<path d="M8.734375,11.140625 C10.015625,12.109375 11.3125,12.875 12.4375,13.4375 C13.546875,13.984375 14.46875,14.328125 15,14.46875 C14.796875,14.0625 14.4375,13.53125 14.03125,12.96875 C13.625,12.390625 13.15625,11.796875 12.734375,11.3125 C12.5,11.015625 12.390625,10.90625 12.1875,10.765625 C11.96875,10.578125 11.96875,10.34375 12.046875,10.078125 C12.15625,9.6875 12.34375,9.40625 12.671875,9.40625 C12.921875,9.40625 13.0625,9.515625 13.28125,9.734375 C13.421875,9.875 13.671875,10.09375 14.015625,10.3125 C14.34375,10.53125 14.765625,10.78125 15.1875,11.015625 C14.40625,9.84375 13.453125,8.46875 12.53125,7.203125 C11.609375,5.9375 10.71875,4.78125 10.109375,4.078125 C9.921875,3.875 9.765625,3.71875 9.625,3.609375 L9.21875,3.265625 C8.984375,3.078125 8.9375,2.484375 9.046875,2.015625 C9.125,1.609375 9.515625,1.484375 9.9375,1.8125 C10.203125,2 10.46875,2.453125 10.78125,2.953125 C11.03125,3.375 11.40625,3.921875 11.796875,4.46875 C12.171875,5 12.546875,5.515625 12.828125,5.859375 C12.921875,5.984375 13.0625,6.03125 13.203125,5.953125 C13.5,5.8125 13.515625,5.359375 13.515625,4.84375 C13.515625,4.578125 13.515625,4.296875 13.5,4 C13.484375,3.390625 13.4375,2.71875 13.375,2.28125 C13.328125,1.921875 13.3125,1.6875 13.34375,1.515625 C13.359375,1.328125 13.40625,1.203125 13.484375,1.0625 C13.71875,0.671875 13.921875,0.53125 14.15625,0.53125 C14.5625,0.53125 14.75,0.828125 14.9375,1.375 C15.03125,1.703125 15.375,2.078125 15.796875,2.4375 C16.21875,2.796875 16.71875,3.125 17.234375,3.40625 C17.65625,3.640625 18.21875,3.875 18.828125,3.875 C19.484375,3.875 20.015625,3.453125 20.015625,2.609375 C20.015625,2 19.5625,1.28125 18.4375,0.625 C17.546875,0.109375 16.484375,-0.359375 14.984375,-0.734375 L15.3125,-1.328125 C16.640625,-1.0625 17.953125,-0.734375 19.21875,-0.078125 C20.078125,0.390625 20.671875,0.8125 21.046875,1.25 C21.421875,1.671875 21.578125,2.140625 21.578125,2.65625 C21.578125,3.140625 21.390625,3.625 20.9375,4.03125 C20.40625,4.515625 19.78125,4.625 19.125,4.625 C18.5,4.625 17.703125,4.40625 16.859375,4.03125 C16.203125,3.734375 15.4375,3.34375 14.6875,2.859375 C14.703125,3.15625 14.71875,3.59375 14.734375,4.015625 C14.75,4.4375 14.75,4.859375 14.703125,5.1875 C14.671875,5.5 14.65625,5.703125 14.609375,5.859375 C14.5625,6.03125 14.515625,6.15625 14.40625,6.296875 C14.140625,6.65625 13.78125,6.796875 13.34375,6.71875 C14.0625,7.703125 14.953125,8.78125 16.125,10.15625 C16.390625,10.46875 16.609375,10.65625 16.875,10.859375 C16.96875,10.921875 17.0625,11.015625 17.15625,11.140625 C17.34375,11.375 17.234375,11.75 16.96875,11.9375 C16.6875,12.140625 16.296875,12.40625 15.96875,12.21875 C15.875,12.171875 15.78125,12.125 15.703125,12.0625 C15.609375,12 15.5,11.9375 15.359375,11.890625 C15.171875,11.796875 14.859375,11.65625 14.53125,11.515625 C14.1875,11.375 13.8125,11.234375 13.4375,11.109375 C13.90625,11.5625 14.46875,12.125 14.984375,12.734375 C15.515625,13.34375 16.046875,14.015625 16.46875,14.703125 C16.890625,14.796875 17.359375,14.875 17.828125,14.9375 C18.28125,15.015625 18.71875,15.046875 19.0625,15.046875 C19.375,15.046875 19.671875,15.046875 19.953125,15 C20.234375,14.953125 20.484375,14.9375 20.703125,14.9375 C21.125,14.9375 21.4375,15.140625 21.4375,15.40625 C21.4375,15.6875 21.34375,15.875 20.859375,16.078125 C20.453125,16.25 19.78125,16.296875 19.28125,16.203125 L18.046875,15.96875 C17.59375,15.890625 17.140625,15.828125 16.859375,15.734375 C16.953125,15.890625 17.046875,16.046875 17.171875,16.21875 L17.84375,17.171875 C17.953125,17.296875 18.03125,17.421875 18.09375,17.5 C18.28125,17.765625 18.5,18.1875 18.40625,18.546875 C18.28125,19.171875 17.90625,19.34375 17.40625,19.421875 C16.875,19.5 16.171875,19.203125 15.453125,18.640625 L15.671875,18.265625 C15.921875,18.40625 16.203125,18.4375 16.46875,18.390625 C16.59375,18.359375 16.6875,18.3125 16.734375,18.21875 C16.828125,18.03125 16.65625,17.609375 16.296875,16.90625 C16.125,16.546875 15.875,16.109375 15.53125,15.59375 C14.40625,15.265625 13.265625,14.84375 12.078125,14.234375 C10.875,13.625 9.640625,12.796875 8.328125,11.65625 Z M3.625,18.3125 C4.328125,17.8125 4.671875,17.1875 4.671875,16.109375 C4.671875,15.5 4.59375,14.84375 4.453125,14 C4.296875,13.15625 4.0625,12.140625 3.78125,10.828125 C3.546875,9.8125 3.390625,8.96875 3.296875,8.09375 C3.203125,7.203125 3.171875,6.3125 3.171875,5.1875 C3.171875,4.46875 3.234375,3.6875 3.34375,2.9375 C3.453125,2.203125 3.59375,1.53125 3.78125,1.015625 C4.09375,0.03125 4.46875,-0.453125 5.046875,-0.453125 C5.609375,-0.453125 5.75,0.140625 5.796875,1.03125 C5.84375,3.09375 6.203125,4.90625 6.9375,6.734375 L6.484375,7.125 C6.09375,6.328125 5.796875,5.5625 5.53125,4.765625 C5.28125,3.953125 5.046875,3.09375 4.828125,2.109375 C4.578125,2.90625 4.4375,3.609375 4.34375,4.359375 C4.265625,5.109375 4.25,5.890625 4.25,6.84375 C4.25,7.8125 4.4375,9.078125 4.71875,10.34375 C5,11.59375 5.390625,12.828125 5.8125,13.78125 C6.171875,14.59375 6.34375,15.390625 6.34375,16.015625 C6.34375,16.484375 6.09375,17.109375 5.6875,17.546875 C5.203125,18.078125 4.6875,18.453125 3.984375,18.796875 Z M11.8125,18.59375 C11.515625,18.140625 11.1875,17.59375 11.0625,17.0625 C10.9375,16.5625 10.890625,16.0625 11.046875,15.71875 C11.28125,15.1875 11.546875,15.046875 11.953125,15.046875 C12.34375,15.046875 12.78125,15.4375 13.25,15.984375 C13.4375,16.21875 13.6875,16.53125 13.90625,16.859375 C14.109375,17.171875 14.296875,17.46875 14.40625,17.640625 L14.140625,18.125 C13.953125,17.890625 13.765625,17.671875 13.578125,17.46875 C13.203125,17.046875 12.484375,16.390625 12.234375,16.421875 C12.109375,16.4375 12.03125,16.53125 12,16.765625 C11.96875,16.953125 11.984375,17.265625 12.03125,17.5625 C12.0625,17.875 12.125,18.171875 12.234375,18.390625 Z" transform="translate(-0.375, 19.5) scale(1, -1)"/>
</svg>