<svg height="18.671875" viewBox="0 0 24 18.671875" width="24" xmlns="http://www.w3.org/2000/svg">
<path d="M14.234375,18.3125 C13.671875,18.3125 13.015625,18.1875 12.375,18 C11.734375,17.8125 11.0625,17.5625 10.484375,17.3125 C9.6875,16.96875 9.125,16.765625 8.703125,16.65625 C8.28125,16.546875 8,16.53125 7.765625,16.578125 C7.25,16.6875 6.96875,17.015625 6.59375,17.5625 L6.078125,17.234375 C6.21875,16.65625 6.5,15.984375 6.78125,15.578125 C7.046875,15.171875 7.421875,14.9375 7.953125,14.9375 C8.109375,14.9375 8.28125,14.953125 8.421875,14.984375 C8.734375,15.078125 9.0625,15.21875 9.453125,15.453125 C9.640625,15.546875 9.875,15.6875 10.125,15.828125 C10.796875,16.203125 11.53125,16.625 12.234375,16.953125 C12.921875,17.28125 13.578125,17.515625 14.09375,17.515625 C14.546875,17.515625 14.96875,17.46875 15.265625,17.09375 C15.546875,16.71875 15.734375,16.0625 15.734375,14.84375 C15.734375,14.328125 15.640625,13.734375 15.5,13.15625 C15.34375,12.59375 15.125,12.015625 14.890625,11.59375 C14.234375,10.375 13.390625,9.59375 12.546875,9.453125 C12.09375,9.375 11.65625,9.453125 11.203125,9.640625 C11.375,9.921875 11.515625,10.15625 11.640625,10.34375 C11.875,10.765625 12.21875,11.25 12.21875,11.75 C12.21875,12.265625 11.9375,12.546875 11.609375,12.71875 C11.28125,12.875 11.046875,12.96875 10.578125,13.0625 C10.359375,13.09375 10.140625,13.140625 9.9375,13.171875 L9.671875,12.625 C9.96875,12.546875 10.28125,12.40625 10.484375,12.1875 C10.671875,11.984375 10.765625,11.703125 10.625,11.421875 C10.453125,11.015625 10.0625,10.25 9.625,9.453125 C9.171875,8.640625 8.65625,7.796875 8.28125,7.25 C8.109375,7 7.734375,6.453125 7.265625,5.8125 C6.796875,5.171875 6.265625,4.4375 5.78125,3.828125 C5.296875,3.203125 4.859375,2.671875 4.625,2.46875 C3.9375,1.859375 3.59375,1.53125 3.5,1.03125 C3.453125,0.75 3.40625,0.3125 3.546875,0.03125 C3.640625,-0.171875 3.8125,-0.28125 4,-0.28125 C4.1875,-0.296875 4.390625,-0.21875 4.578125,0.03125 C4.859375,0.359375 5.140625,0.765625 5.484375,1.25 C5.828125,1.71875 6.21875,2.234375 6.6875,2.8125 C7.0625,3.25 7.625,3.828125 8.515625,4.4375 C9.40625,5.0625 10.328125,5.421875 10.8125,5.46875 C11.46875,5.53125 11.703125,4.84375 11.796875,4.390625 C11.90625,3.953125 11.984375,3.46875 12.03125,2.984375 L12.09375,2.28125 C12.15625,1.640625 12.359375,1.0625 12.796875,0.609375 C13.234375,0.140625 13.90625,-0.171875 14.90625,-0.265625 C15.5625,-0.328125 16.453125,-0.359375 17.296875,-0.328125 C18.125,-0.3125 18.921875,-0.265625 19.375,-0.171875 C19.8125,-0.078125 20.09375,0 20.25,0.125 C20.421875,0.234375 20.46875,0.375 20.46875,0.59375 C20.46875,0.921875 20.234375,1.15625 19.90625,1.28125 C19.578125,1.390625 19.1875,1.40625 18.875,1.328125 C18.59375,1.25 18.21875,1.15625 17.796875,1.125 C17.453125,1.09375 16.859375,1.0625 16.296875,1.0625 C16,1.0625 15.734375,1.078125 15.453125,1.09375 C14.9375,1.109375 14.515625,1.171875 14.203125,1.359375 C13.875,1.546875 13.671875,1.828125 13.578125,2.234375 C13.46875,2.65625 13.34375,3.359375 13.25,3.96875 C13.203125,4.28125 13.140625,4.59375 13.0625,4.921875 C12.921875,5.40625 12.65625,5.78125 12.328125,6.03125 C11.984375,6.265625 11.5625,6.390625 11.1875,6.390625 C10.765625,6.390625 10.328125,6.328125 9.625,6.046875 C9.25,5.890625 8.515625,5.5 7.765625,4.921875 C8.984375,6.484375 10.015625,7.921875 10.8125,9.046875 C11.359375,8.65625 11.9375,8.515625 12.453125,8.515625 C13.578125,8.515625 14.59375,9.078125 15.4375,10.015625 C15.9375,10.5625 16.421875,11.328125 16.765625,12.171875 C17.125,13.015625 17.328125,13.953125 17.328125,14.84375 C17.328125,15.734375 17.1875,16.5 16.625,17.203125 C16.25,17.6875 15.8125,17.984375 15.390625,18.125 C14.96875,18.28125 14.5625,18.3125 14.234375,18.3125 Z" transform="translate(0.0625, 18.3125) scale(1, -1)"/>
</svg>