<svg height="21.109375" viewBox="0 0 24 21.109375" width="24" xmlns="http://www.w3.org/2000/svg">
<path d="M12.140625,18.34375 C12.59375,18.515625 12.90625,18.5625 13.171875,18.59375 C13.734375,18.65625 13.828125,18.453125 13.46875,18.046875 C13.078125,17.609375 12.5,17.015625 11.921875,16.453125 C11.328125,15.875 10.734375,15.34375 10.328125,15.03125 C9.828125,14.640625 9.453125,14.40625 8.9375,14.140625 C8.59375,13.953125 8.15625,13.84375 7.78125,13.765625 C7.21875,13.625 6.9375,13.515625 6.796875,13.109375 C6.6875,12.828125 6.640625,12.578125 6.640625,12.234375 C6.640625,12.015625 6.75,11.890625 6.953125,11.875 C7.15625,11.859375 7.4375,11.9375 7.78125,12.125 C8.484375,12.484375 9.34375,12.921875 10.28125,13.328125 C10.78125,13.546875 11.390625,13.828125 11.9375,14.09375 L12.671875,14.4375 C13.109375,14.65625 13.578125,14.859375 13.71875,14.765625 C13.78125,14.703125 13.796875,14.609375 13.765625,14.453125 C13.625,13.953125 13.484375,13.46875 13.28125,12.96875 C13.015625,13 12.6875,13.015625 12.34375,12.984375 C12,12.96875 11.65625,12.921875 11.359375,12.828125 C10.515625,12.546875 9.6875,12.171875 9.21875,11.640625 C8.984375,11.40625 8.890625,11.15625 8.890625,10.78125 C8.890625,10.65625 8.921875,10.53125 8.984375,10.375 C9.109375,10.0625 9.40625,9.953125 9.640625,9.828125 C9.765625,9.78125 9.96875,9.703125 10.28125,9.640625 C10.109375,9.46875 9.78125,9.203125 9.453125,8.921875 C9.109375,8.640625 8.71875,8.359375 8.421875,8.203125 C7.828125,7.875 7.390625,7.6875 6.9375,7.578125 C6.15625,7.40625 5.71875,7.421875 5.3125,7.421875 C5.046875,7.421875 4.53125,7.53125 4.171875,7.765625 L3.875,7.25 C4.015625,7.109375 4.25,6.9375 4.515625,6.796875 C4.765625,6.640625 5.03125,6.515625 5.234375,6.4375 C6.265625,6.015625 7.15625,6.03125 7.703125,6.3125 C7.984375,6.453125 8.390625,6.640625 8.828125,6.828125 C9.03125,6.921875 9.25,7.015625 9.46875,7.125 C9.90625,7.3125 10.265625,7.46875 10.859375,7.703125 C11.4375,7.9375 12.140625,8.203125 12.9375,8.484375 C13.71875,8.75 14.640625,9.015625 15.4375,9.15625 C16.21875,9.296875 17.390625,9.28125 17.828125,9 C18.03125,8.84375 18.140625,8.671875 18.140625,8.453125 C18.140625,8.296875 18.078125,8.140625 17.9375,7.96875 C17.796875,7.8125 17.53125,7.625 17.15625,7.4375 C16.71875,7.21875 16.03125,6.953125 15.40625,6.875 C14.703125,6.765625 14,6.640625 13.15625,6.59375 L13.328125,6.09375 C13.5,6.078125 13.703125,6.078125 13.921875,6.078125 C14.34375,6.078125 14.796875,6.125 15.21875,6.171875 C15.421875,6.171875 15.625,6.203125 15.796875,6.21875 C16.21875,6.265625 16.578125,6.3125 17,6.421875 C17.421875,6.515625 17.859375,6.671875 18.4375,6.875 C19.109375,7.109375 19.53125,7.34375 19.796875,7.59375 C20.046875,7.828125 20.140625,8.0625 20.140625,8.265625 C20.140625,8.765625 19.921875,9.078125 19.484375,9.390625 C18.984375,9.75 18.046875,10.03125 16.875,10.03125 C16.078125,10.03125 15.09375,9.9375 13.875,9.578125 C12.59375,9.203125 11.46875,8.78125 10.8125,8.5 C10.15625,8.234375 9.6875,8.125 9.234375,8.046875 L11.109375,9.3125 C11.46875,9.5625 11.9375,9.8125 12.53125,9.984375 C13.25,10.1875 13.8125,10.46875 14.265625,10.96875 C14.484375,11.203125 14.609375,11.5625 14.609375,11.796875 C14.609375,12.125 14.40625,12.453125 14.203125,12.59375 C14.328125,12.828125 14.515625,13.078125 14.703125,13.359375 C14.90625,13.625 15.125,13.90625 15.34375,14.140625 C15.640625,14.453125 15.875,14.890625 15.71875,15.21875 C15.625,15.4375 15.484375,15.671875 15.171875,15.828125 C14.75,16.015625 14.1875,15.828125 13.765625,15.640625 C13.296875,15.421875 12.84375,15.265625 12.328125,15.078125 C11.8125,14.890625 11.234375,14.703125 10.484375,14.46875 C10.8125,14.703125 11.140625,14.9375 11.515625,15.171875 L12.59375,15.90625 C13.296875,16.390625 13.96875,16.859375 14.5,17.234375 C14.90625,17.515625 15.171875,17.703125 15.484375,18.078125 C15.734375,18.359375 15.78125,18.625 15.734375,18.890625 C15.6875,19.203125 15.546875,19.421875 15.265625,19.53125 C15.046875,19.625 14.859375,19.6875 14.515625,19.625 C14.0625,19.546875 13.671875,19.453125 13.296875,19.328125 C13.015625,19.21875 12.40625,18.9375 12.03125,18.734375 Z M7.078125,19.328125 C6.671875,18.625 6.40625,17.8125 6.40625,16.875 C6.40625,16.515625 6.546875,16.171875 6.734375,15.9375 C6.875,15.78125 7.109375,15.671875 7.390625,15.671875 C7.484375,15.671875 7.59375,15.703125 7.71875,15.765625 C7.953125,15.875 8.21875,16.0625 8.5,16.28125 C8.625,16.390625 8.765625,16.5 8.90625,16.609375 L10.5625,17.890625 L10.421875,18.3125 C10.25,18.171875 10.015625,18.015625 9.78125,17.875 C9.546875,17.71875 9.328125,17.578125 9.1875,17.515625 C8.796875,17.328125 8.515625,17.234375 8.328125,17.203125 C8.140625,17.171875 8,17.1875 7.875,17.234375 C7.703125,17.28125 7.59375,17.34375 7.515625,17.484375 C7.4375,17.609375 7.390625,17.828125 7.390625,18.1875 C7.390625,18.53125 7.40625,18.734375 7.53125,19.21875 Z M12.84375,12.078125 C12.5,11.359375 11.9375,10.78125 11.28125,10.421875 C11.15625,10.421875 11,10.4375 10.859375,10.484375 C10.53125,10.5625 10.125,10.75 10.296875,11.15625 C10.453125,11.515625 10.84375,11.78125 11.46875,11.953125 C11.984375,12.09375 12.4375,12.125 12.84375,12.078125 Z M7.828125,3.875 C8.0625,3.96875 8.375,4.109375 8.703125,4.203125 C9.03125,4.3125 9.359375,4.40625 9.625,4.4375 C10.203125,4.53125 10.46875,4.390625 10.46875,3.84375 C10.46875,3.578125 10.4375,3.21875 10.375,2.78125 C10.296875,2.328125 10.234375,1.859375 10.171875,1.375 C10.015625,0.296875 10.171875,-0.34375 10.828125,-0.78125 C11.1875,-1.015625 11.609375,-1.203125 12.390625,-1.328125 C12.890625,-1.40625 13.453125,-1.421875 14.203125,-1.421875 C15.140625,-1.421875 16.109375,-1.296875 16.71875,-1.078125 C17.375,-0.859375 17.546875,-0.59375 17.546875,-0.265625 C17.546875,-0.09375 17.328125,0.171875 17.015625,0.296875 C16.53125,0.484375 16.109375,0.59375 15.734375,0.453125 C15.21875,0.28125 14.515625,0.046875 14,0 C13.671875,-0.03125 13.234375,-0.03125 12.8125,-0.03125 C12.390625,-0.015625 11.953125,0.03125 11.65625,0.078125 C11.203125,0.140625 10.96875,0.390625 10.96875,0.796875 C10.96875,1.171875 11.140625,1.6875 11.46875,2.359375 C11.65625,2.734375 11.84375,3.03125 12.171875,3.40625 C12.3125,3.59375 12.484375,3.921875 12.484375,4.25 C12.484375,4.515625 12.296875,4.765625 12.03125,4.953125 C11.75,5.140625 11.421875,5.28125 11.140625,5.3125 C10.484375,5.375 9.828125,5.328125 9.265625,5.140625 C8.765625,4.953125 8.046875,4.6875 7.484375,4.375 Z" transform="translate(-0.0078125, 19.6875) scale(1, -1)"/>
</svg>