<svg height="19.640625" viewBox="0 0 24 19.640625" width="24" xmlns="http://www.w3.org/2000/svg">
<path d="M6.234375,18.34375 C7.03125,17.6875 7.34375,16.90625 6.984375,15.875 C6.671875,14.96875 6.296875,14.1875 5.765625,13.390625 C5.234375,12.59375 4.578125,11.75 3.6875,10.71875 C3.40625,10.390625 3.1875,10.203125 2.859375,9.921875 C2.5,9.59375 2.375,9.453125 2.375,9.140625 C2.375,9.015625 2.421875,8.890625 2.53125,8.796875 C2.625,8.6875 2.828125,8.5625 3.125,8.421875 C3.359375,8.328125 3.578125,8.171875 3.75,7.90625 C3.921875,7.65625 4.03125,7.296875 4.03125,6.796875 L4.03125,5.84375 C4.015625,5.125 4,4.375 3.96875,3.6875 C3.953125,2.984375 3.921875,2.453125 3.90625,2 C3.890625,1.765625 3.859375,1.53125 3.828125,1.296875 C3.734375,0.734375 3.734375,0.34375 3.78125,0 C3.828125,-0.359375 3.921875,-0.5625 4.03125,-0.6875 C4.15625,-0.828125 4.3125,-0.84375 4.515625,-0.84375 C4.734375,-0.84375 4.9375,-0.734375 5.109375,-0.484375 C5.28125,-0.234375 5.46875,0.171875 5.609375,0.78125 C5.8125,1.5625 6.078125,2.28125 6.34375,2.90625 C6.609375,3.53125 6.875,4.0625 7.109375,4.46875 L6.640625,4.875 C6.40625,4.515625 6.15625,4.0625 5.921875,3.625 C5.6875,3.171875 5.46875,2.71875 5.3125,2.375 C5.171875,2.09375 5.140625,2.015625 5.0625,2.0625 C5,2.109375 5.046875,2.28125 5.0625,2.546875 C5.109375,3.203125 5.140625,4.015625 5.140625,4.8125 C5.140625,5.609375 5.09375,6.40625 5.046875,7.015625 C4.953125,7.8125 4.71875,8.234375 4.34375,8.609375 C4.0625,8.90625 3.6875,9.0625 3.40625,9.140625 C3.109375,9.21875 3.125,9.40625 3.453125,9.671875 C4.265625,10.328125 5.09375,11.125 5.875,11.984375 C6.640625,12.828125 7.359375,13.734375 7.96875,14.609375 C8.625,15.546875 8.796875,16.609375 8.28125,17.5 C7.921875,18.125 7.25,18.546875 6.625,18.796875 Z M18.296875,17.765625 C17.453125,17.734375 16.8125,17.40625 16.109375,16.90625 L16.390625,16.46875 C17.09375,16.796875 17.515625,16.890625 17.765625,16.84375 C18.03125,16.78125 18.09375,16.578125 18.09375,16.328125 C18.09375,15.828125 17.84375,15.21875 17.140625,14.5625 C16.796875,14.234375 16.203125,13.71875 15.484375,13.078125 C14.765625,12.453125 13.9375,11.734375 13.109375,11.046875 C12.296875,10.375 11.5,9.71875 10.859375,9.234375 C10.015625,8.609375 9.78125,8.109375 9.78125,7.65625 C9.78125,7.4375 9.890625,7.25 10.109375,7.09375 C10.5625,6.78125 11.421875,6.765625 12.078125,6.765625 C12.40625,6.765625 12.734375,6.78125 13.0625,6.78125 C13.71875,6.828125 14.375,6.875 14.890625,6.96875 C14.890625,6.21875 14.921875,5.28125 14.890625,4.296875 C14.875,3.328125 14.828125,2.328125 14.734375,1.484375 C14.6875,1.078125 14.609375,0.984375 14.140625,1.390625 C13.90625,1.59375 13.578125,1.875 13.234375,2.140625 C12.890625,2.390625 12.515625,2.65625 12.1875,2.84375 C12.578125,3.21875 12.984375,3.59375 13.390625,3.921875 L13.109375,4.421875 C12.734375,4.09375 12.25,3.703125 11.78125,3.359375 C11.296875,3.03125 10.828125,2.71875 10.53125,2.546875 C9.921875,2.203125 9.71875,2.46875 9.71875,3.03125 C9.71875,3.484375 9.890625,4.078125 10.125,4.390625 L9.71875,4.71875 C9.21875,4.109375 8.734375,3.296875 8.734375,2.40625 C8.734375,1.90625 8.953125,1.34375 9.265625,1.03125 C9.6875,0.625 10.25,0.828125 11,1.578125 C11.28125,1.875 11.546875,2.140625 11.796875,2.421875 C12.34375,2.0625 12.875,1.4375 13.421875,0.78125 C13.78125,0.34375 14.078125,-0.046875 14.265625,-0.4375 C14.375,-0.671875 14.5625,-0.78125 14.8125,-0.78125 C15.0625,-0.78125 15.3125,-0.609375 15.59375,-0.265625 C15.921875,0.125 16.109375,0.84375 16.15625,1.875 C16.15625,2.6875 16.1875,3.671875 16.1875,4.625 C16.1875,5.59375 16.1875,6.5 16.15625,7.25 C17.1875,7.484375 18.09375,7.71875 19.078125,8.046875 C19.65625,8.234375 20.0625,8.46875 20.15625,8.65625 C20.28125,8.9375 20.28125,9.140625 20,9.359375 C19.703125,9.59375 19.34375,9.6875 18.734375,9.40625 C18.03125,9.078125 17.015625,8.765625 16.078125,8.5625 C15.9375,9.546875 15.3125,10.53125 14.421875,11.109375 C15.9375,12.28125 17.5,13.53125 18.71875,14.703125 C19.46875,15.453125 19.859375,15.9375 19.859375,16.5625 C19.859375,17.359375 19.1875,17.796875 18.296875,17.765625 Z M12.046875,17.40625 C11.28125,16.328125 10.875,15.453125 10.875,14.375 C10.875,13.671875 10.953125,13.109375 11.28125,12.78125 C11.84375,12.21875 12.40625,12.421875 13.25,13.578125 C13.765625,14.34375 14.34375,15.09375 14.703125,15.5 L14.40625,15.984375 C13.953125,15.5 13.375,14.890625 12.71875,14.375 C12.203125,13.96875 11.875,14.15625 11.90625,14.8125 C11.9375,15.671875 12.125,16.390625 12.53125,17.109375 Z M14,10.78125 C14.546875,10.125 14.890625,9.171875 14.859375,8.265625 C14.359375,8.125 13.6875,8.046875 13.046875,8 C12.390625,7.953125 11.78125,7.96875 11.40625,8.015625 C10.703125,8.109375 10.78125,8.40625 11.359375,8.8125 C12.109375,9.34375 13.015625,10.03125 14,10.78125 Z M17.90625,4.859375 C18.609375,4.8125 19.109375,4.65625 19.625,4.203125 C20.1875,3.734375 20.5,3.171875 20.8125,2.359375 C21.0625,1.71875 21.21875,1.515625 21.59375,1.515625 C21.921875,1.515625 22.25,1.859375 22.203125,2.515625 C22.109375,3.5 21.625,4.15625 20.59375,4.8125 C19.84375,5.28125 18.921875,5.453125 18.03125,5.40625 Z" transform="translate(-0.3125, 18.796875) scale(1, -1)"/>
</svg>