<svg height="19.09375" viewBox="0 0 24 19.09375" width="24" xmlns="http://www.w3.org/2000/svg">
<path d="M4.15625,17.203125 C4.203125,16.71875 4.28125,16.328125 4.390625,16.015625 C4.53125,15.6875 4.671875,15.3125 5,15.046875 C5.28125,14.8125 5.640625,14.671875 6,14.703125 C6.359375,14.75 6.9375,14.84375 7.296875,15.09375 C7.578125,15.28125 7.609375,15.21875 7.5625,14.890625 C7.421875,13.90625 7.296875,12.9375 7.1875,11.875 C7.0625,10.8125 6.96875,9.65625 6.890625,8.328125 C6.34375,8.1875 5.78125,7.953125 4.953125,7.296875 C3.921875,6.5 3.40625,5.703125 3.40625,5.09375 C3.40625,4.609375 3.59375,4.296875 4.15625,3.875 C4.703125,3.4375 5,3.171875 5.3125,2.90625 C5.140625,2.6875 4.984375,2.5 4.859375,2.328125 C4.71875,2.140625 4.578125,2 4.4375,1.875 C3.890625,1.390625 3.78125,1.078125 3.875,0.71875 L3.96875,0.359375 C4,0.171875 4.15625,-0.171875 4.453125,-0.125 C4.609375,-0.09375 4.796875,0.078125 5.015625,0.359375 C5.453125,0.921875 5.84375,1.53125 6.21875,2.15625 C6.484375,1.890625 6.6875,1.578125 6.78125,1.4375 C6.921875,1.21875 7.03125,1.09375 7.125,1.0625 C7.203125,1.015625 7.3125,1.015625 7.421875,1.03125 C7.65625,1.078125 7.84375,1.296875 7.96875,1.65625 C8.046875,1.875 8.03125,2.0625 8,2.359375 C7.90625,3.203125 7.890625,4.078125 7.859375,5.265625 L8.3125,6 C8.453125,6.25 8.578125,6.46875 8.703125,6.671875 C8.984375,7.109375 8.921875,7.34375 8.84375,7.53125 C9.734375,9.375 10.765625,11.125 11.890625,12.828125 C13.109375,14.65625 14.328125,16.296875 15.640625,17.609375 C15.78125,17.75 15.921875,17.828125 15.984375,17.796875 C16.0625,17.75 16.109375,17.578125 16.0625,17.265625 C15.96875,16.703125 15.890625,16.0625 15.84375,15.421875 C15.78125,14.78125 15.734375,14.140625 15.734375,13.578125 C15.734375,12.59375 16.125,12.234375 17.015625,12.234375 C17.59375,12.234375 18.125,12.21875 18.4375,12.1875 C18.890625,12.140625 19.109375,11.90625 19.109375,11.5625 C19.109375,11.1875 18.78125,10.515625 18.046875,9.96875 C16.578125,8.890625 15.09375,7.65625 13.875,6.625 C12.265625,5.25 11.046875,4.03125 10.390625,3.046875 C10.0625,2.546875 9.9375,2.15625 9.9375,1.828125 C9.9375,1.171875 10.171875,0.859375 10.96875,0.984375 C11.484375,1.0625 12.125,1.15625 12.78125,1.21875 C13.4375,1.28125 14.15625,1.3125 14.8125,1.296875 C15.65625,1.265625 16.53125,1.15625 17.296875,0.96875 C18.078125,0.78125 18.765625,0.515625 19.328125,0.234375 C19.578125,0.109375 19.78125,0.015625 19.953125,-0.078125 C20.328125,-0.234375 20.578125,-0.3125 20.78125,-0.3125 C20.875,-0.3125 20.953125,-0.3125 21.03125,-0.265625 C21.34375,-0.140625 21.40625,0.09375 21.40625,0.359375 C21.40625,0.984375 20.765625,1.359375 20.109375,1.65625 C19.4375,1.9375 18.53125,2.078125 17.828125,2.1875 C17.125,2.28125 16.4375,2.375 15.6875,2.375 C14.921875,2.390625 13.75,2.375 12.765625,2.28125 C12.265625,2.21875 11.828125,2.171875 11.421875,2.140625 C10.828125,2.078125 10.859375,2.328125 11.140625,2.734375 C11.3125,2.984375 11.5,3.21875 11.71875,3.5 C12.140625,4.015625 12.6875,4.625 13.40625,5.28125 C14.109375,5.9375 14.890625,6.5625 15.640625,7.109375 C16.390625,7.671875 17.15625,8.1875 17.90625,8.703125 C18.28125,8.9375 18.640625,9.1875 18.96875,9.40625 C19.5625,9.828125 20.046875,10.15625 20.40625,10.53125 C20.765625,10.921875 20.890625,11.328125 20.890625,11.703125 C20.890625,11.84375 20.84375,11.984375 20.796875,12.09375 C20.65625,12.3125 20.46875,12.5 20.1875,12.640625 C19.90625,12.78125 19.640625,12.875 19.28125,12.9375 C18.90625,13.015625 18.5,13.0625 18.125,13.109375 C17.9375,13.109375 17.78125,13.140625 17.640625,13.15625 C17.109375,13.203125 17,13.34375 17,13.8125 C17,14.609375 17.28125,15.890625 17.65625,17.359375 C17.796875,17.890625 17.65625,18.125 17.375,18.390625 C17.1875,18.578125 16.828125,18.78125 16.4375,18.78125 C15.96875,18.78125 15.625,18.53125 15,17.859375 C13.3125,16.03125 12.15625,14.421875 11.203125,13.0625 C10.640625,12.25 10.140625,11.46875 9.65625,10.6875 C9.171875,9.890625 8.6875,9.109375 8.15625,8.265625 L7.96875,8.375 C8.0625,9.640625 8.203125,10.859375 8.359375,11.890625 C8.515625,12.921875 8.671875,13.8125 8.8125,14.359375 C8.953125,14.90625 9.09375,15.21875 9.265625,15.53125 C9.421875,15.828125 9.515625,16.171875 9.40625,16.421875 C9.328125,16.59375 9.21875,16.734375 8.984375,16.828125 C8.703125,16.921875 8.375,16.84375 8.0625,16.65625 C7.734375,16.453125 7.34375,16.28125 6.796875,16.125 C6.390625,16.015625 6.09375,15.96875 5.859375,16.015625 C5.625,16.0625 5.421875,16.203125 5.203125,16.390625 C4.96875,16.625 4.765625,16.953125 4.625,17.453125 Z M6.84375,7.25 C6.84375,6.59375 6.828125,6.09375 6.78125,5.5 C6.4375,4.703125 6.078125,4.125 5.703125,3.71875 C5.65625,3.75 5.609375,3.78125 5.5625,3.828125 L5.40625,3.9375 C5.296875,4.015625 5.15625,4.140625 4.96875,4.328125 C4.71875,4.5625 4.609375,4.71875 4.609375,5 C4.609375,5.5 4.90625,6 5.609375,6.53125 C6.09375,6.890625 6.40625,7.0625 6.84375,7.25 Z" transform="translate(-0.40625, 18.78125) scale(1, -1)"/>
</svg>