<svg height="24" viewBox="0 0 24 24" width="24" xmlns="http://www.w3.org/2000/svg">
<path d="M1.859375,9.578125 C2.046875,8.78125 2.421875,8.046875 2.8125,7.515625 C3.21875,6.984375 3.65625,6.640625 4.078125,6.640625 C4.328125,6.640625 4.578125,6.703125 4.8125,6.875 C5.046875,7.0625 5.28125,7.328125 5.546875,7.765625 C6.53125,9.359375 7.671875,10.859375 9.078125,12.5 C9.625,13.15625 10.015625,13.484375 10.46875,13.484375 C10.640625,13.484375 10.78125,13.4375 10.9375,13.25 C11.09375,13.0625 11.28125,12.765625 11.515625,12.296875 C12.265625,10.921875 13.015625,9.234375 13.953125,7.03125 C14.046875,6.78125 14.171875,6.578125 14.328125,6.40625 C14.609375,6.03125 15.03125,5.828125 15.59375,5.828125 C15.875,5.828125 16.21875,5.890625 16.609375,6.03125 C17.265625,6.25 17.796875,6.421875 18.296875,6.53125 C18.796875,6.640625 19.25,6.6875 19.765625,6.6875 C20.609375,6.6875 20.953125,6.3125 20.953125,5.5625 C20.953125,5.203125 20.71875,4.796875 20.265625,4.328125 C19.796875,3.859375 19.09375,3.40625 18.140625,2.953125 L18.625,2.40625 C19.8125,2.8125 20.765625,3.34375 21.421875,3.921875 C22.078125,4.484375 22.4375,5.09375 22.4375,5.640625 C22.4375,6.3125 22.125,6.78125 21.625,7.109375 C21.125,7.421875 20.4375,7.5625 19.71875,7.5625 C18.640625,7.5625 17.75,7.46875 16.8125,7.328125 C16.296875,7.25 15.96875,7.25 15.703125,7.390625 C15.421875,7.53125 15.21875,7.8125 14.984375,8.3125 L14.34375,9.640625 C14.125,10.109375 13.890625,10.578125 13.671875,11.046875 C13.203125,11.953125 12.734375,12.8125 12.34375,13.421875 C11.796875,14.265625 11.265625,14.59375 10.5625,14.59375 C10.0625,14.59375 9.640625,14.421875 9.03125,13.921875 C8.421875,13.421875 7.75,12.765625 7.078125,12.046875 C6.40625,11.328125 5.71875,10.53125 5.0625,9.78125 C4.65625,9.3125 4.375,9.03125 4.140625,8.890625 C3.90625,8.734375 3.734375,8.6875 3.578125,8.6875 C3.328125,8.6875 3.09375,8.859375 2.890625,9.125 C2.671875,9.375 2.484375,9.71875 2.359375,10.0625 Z" transform="translate(-0.1484375, 14.59375) scale(1, -1)"/>
</svg>