<svg height="19.390625" viewBox="0 0 24 19.390625" width="24" xmlns="http://www.w3.org/2000/svg">
<path d="M9.6875,17.984375 C10.265625,17.921875 10.671875,17.78125 10.90625,17.5 C11.15625,17.21875 11.28125,16.796875 11.28125,16.171875 C11.296875,15.328125 11.3125,14.5625 11.3125,13.78125 C11.3125,13 11.296875,12.1875 11.28125,11.28125 C9.640625,11.046875 8.140625,10.78125 6.921875,10.53125 C6.875,11.25 6.859375,11.921875 6.890625,12.578125 C6.921875,13.234375 7,13.875 7.125,14.609375 L6.484375,14.765625 C6.03125,13.40625 5.84375,12.03125 5.8125,10.328125 C4.921875,10.15625 4.1875,10.109375 3.78125,10.15625 C3.078125,10.234375 2.546875,10.578125 2.046875,11.015625 L1.578125,10.515625 C1.953125,9.921875 2.328125,9.40625 2.890625,9.03125 C3.265625,8.75 3.640625,8.65625 4.109375,8.703125 C4.578125,8.734375 5.125,8.921875 5.84375,9.21875 C5.96875,7.890625 6.46875,6.734375 7.078125,5.984375 C7.3125,5.703125 7.484375,5.515625 7.625,5.421875 C7.765625,5.3125 7.890625,5.265625 8.0625,5.265625 C8.453125,5.234375 8.703125,5.59375 8.65625,6.09375 C8.65625,6.296875 8.65625,6.5 8.703125,6.6875 C8.734375,6.890625 8.78125,7.078125 8.8125,7.28125 C8.875,7.609375 9.09375,8.140625 9.3125,8.515625 L8.8125,9.046875 C8.609375,8.5 8.359375,8.015625 8.140625,7.65625 C7.859375,7.171875 7.78125,7.21875 7.609375,7.53125 C7.25,8.1875 7.078125,8.796875 6.984375,9.59375 C7.578125,9.78125 8.28125,9.90625 9.03125,10.03125 C9.78125,10.15625 10.546875,10.25 11.265625,10.34375 C11.203125,9.6875 11.171875,9 11.140625,8.203125 C11.09375,7.5625 11.078125,7.109375 11.109375,6.75 C11.140625,6.390625 11.203125,6.140625 11.375,5.90625 C11.625,5.5625 12.09375,5.640625 12.34375,6.1875 C12.5,6.5 12.53125,6.890625 12.453125,7.375 C12.421875,7.546875 12.40625,7.71875 12.40625,7.90625 C12.40625,8.078125 12.40625,8.28125 12.40625,8.5 L12.40625,9.5 C12.40625,9.828125 12.421875,10.15625 12.4375,10.484375 C13.609375,10.625 14.796875,10.765625 16.0625,10.859375 C15.921875,10.296875 15.78125,9.765625 15.578125,9.21875 C15.078125,7.796875 14.453125,6.640625 13.609375,5.65625 C12.796875,4.71875 11.859375,4 11.015625,3.34375 C10.484375,2.9375 10.109375,2.65625 9.875,2.375 C9.640625,2.09375 9.53125,1.828125 9.53125,1.484375 C9.53125,0.59375 10.03125,-0.09375 11.203125,-0.484375 C11.90625,-0.703125 12.625,-0.796875 13.46875,-0.796875 C13.828125,-0.796875 14.28125,-0.78125 14.71875,-0.75 C15.15625,-0.734375 15.5625,-0.703125 15.84375,-0.671875 C16.4375,-0.59375 16.859375,-0.5 17.0625,-0.359375 C17.28125,-0.21875 17.40625,-0.046875 17.421875,0.171875 C17.4375,0.578125 16.921875,0.828125 16.5625,0.875 C16.1875,0.9375 15.796875,0.828125 15.5,0.765625 C15.34375,0.734375 15.15625,0.6875 14.953125,0.671875 C14.3125,0.59375 13.75,0.546875 13.21875,0.546875 C12.6875,0.546875 12.171875,0.609375 11.609375,0.71875 C10.859375,0.875 10.4375,1.171875 10.4375,1.5625 C10.4375,1.78125 10.578125,2 10.765625,2.21875 C10.953125,2.421875 11.203125,2.609375 11.453125,2.765625 C12.4375,3.375 13.515625,4.078125 14.453125,5.109375 C15.03125,5.734375 15.453125,6.28125 15.828125,6.875 C16.203125,7.453125 16.53125,8.078125 16.859375,8.90625 C17.125,9.578125 17.359375,10.265625 17.5,10.921875 C17.9375,10.953125 18.359375,10.96875 18.828125,10.96875 C19.296875,10.96875 19.703125,10.96875 20.046875,10.984375 C20.75,10.984375 21.421875,10.921875 21.90625,10.890625 C22.140625,10.859375 22.34375,10.875 22.515625,10.921875 C22.8125,11 22.890625,11.40625 22.609375,11.765625 C22.484375,11.921875 22.296875,12.0625 21.890625,12.234375 C21.453125,12.40625 21.078125,12.421875 20.265625,12.265625 L19.609375,12.171875 C19.140625,12.09375 18.671875,12.046875 18.296875,12.03125 L17.734375,12 C17.984375,13.375 18.03125,14.609375 18.078125,15.6875 C18.078125,16.25 17.90625,16.640625 17.65625,16.90625 C17.421875,17.1875 17.09375,17.3125 16.828125,17.3125 C16.296875,17.3125 15.671875,17.109375 15.03125,16.375 L15.40625,15.890625 C16.15625,16.484375 16.546875,16.46875 16.578125,15.625 C16.625,14.546875 16.515625,13.25 16.28125,11.890625 C15.609375,11.828125 14.96875,11.75 14.34375,11.671875 C13.71875,11.59375 13.09375,11.515625 12.453125,11.453125 C12.5,12.875 12.5625,14.3125 12.6875,16.015625 C12.75,16.84375 12.71875,17.328125 12.578125,17.65625 C12.4375,17.984375 12.171875,18.140625 11.796875,18.3125 C11.359375,18.515625 10.859375,18.59375 9.96875,18.59375 Z" transform="translate(-0.234375, 18.59375) scale(1, -1)"/>
</svg>