<svg height="20.140625" viewBox="0 0 24 20.140625" width="24" xmlns="http://www.w3.org/2000/svg">
<path d="M9.453125,18.671875 C10.296875,18.546875 10.765625,18.171875 10.765625,17.421875 C10.765625,17.15625 10.734375,16.5 10.703125,15.796875 C9.6875,15.703125 8.875,15.734375 8.203125,15.875 C7.53125,16.015625 7,16.265625 6.53125,16.625 L6.125,16.078125 C6.59375,15.546875 7.15625,15.140625 7.890625,14.90625 C8.609375,14.65625 9.5,14.5625 10.671875,14.640625 C10.671875,14.4375 10.65625,14.25 10.65625,14.078125 L10.65625,13.65625 C10.65625,12.640625 10.921875,12.1875 11.59375,11.90625 C12.03125,11.71875 12.359375,11.609375 12.84375,11.609375 C12.359375,11.390625 11.734375,11.078125 11.078125,10.734375 C10.421875,10.390625 9.734375,10.015625 9.171875,9.6875 C8.640625,10.296875 7.921875,10.34375 7.421875,9.796875 C7.046875,9.390625 6.6875,8.921875 6.40625,8.3125 C6.109375,7.703125 5.859375,6.96875 5.6875,6.03125 C5.09375,5.890625 4.515625,5.84375 4.0625,5.84375 C3.484375,5.84375 3.40625,6.21875 3.828125,6.984375 L3.3125,7.171875 C2.765625,6.671875 2.640625,6.171875 2.640625,5.6875 C2.640625,4.9375 3.1875,4.609375 4.078125,4.609375 C4.484375,4.609375 5,4.65625 5.515625,4.78125 C5.46875,4.21875 5.453125,3.625 5.453125,3 C5.453125,1.234375 5.796875,0.25 6.3125,-0.40625 C6.640625,-0.828125 6.875,-0.890625 7.109375,-0.890625 C7.484375,-0.890625 7.671875,-0.6875 7.953125,-0.1875 C8.3125,0.484375 8.640625,1.015625 9.09375,1.515625 C10.140625,2.65625 11.625,3.90625 13.28125,5 C13.296875,4.671875 13.3125,4.359375 13.328125,4.015625 C13.34375,3.6875 13.359375,3.390625 13.390625,3.125 C13.578125,1.953125 13.953125,1.171875 14.890625,0.578125 C15.21875,0.359375 15.71875,0.203125 16.25,0.109375 C16.765625,0 17.375,-0.046875 17.9375,-0.046875 C19.015625,-0.046875 20.046875,0.015625 20.796875,0.1875 C21.34375,0.3125 21.6875,0.546875 21.6875,0.875 C21.6875,1.390625 21,1.90625 20.328125,1.625 C20.015625,1.5 19.765625,1.4375 19.203125,1.375 C18.625,1.296875 17.9375,1.265625 17.28125,1.3125 C16.640625,1.359375 16.03125,1.484375 15.640625,1.703125 C15.171875,1.96875 14.921875,2.40625 14.796875,2.9375 C14.5625,3.875 14.515625,4.953125 14.5625,5.84375 C15.796875,6.59375 16.96875,7.171875 18,7.53125 C18.25,7.625 18.484375,7.703125 18.703125,7.78125 C19.15625,7.9375 19.8125,8.03125 19.8125,8.59375 C19.8125,8.765625 19.75,8.890625 19.625,8.984375 C19.359375,9.140625 18.875,9.21875 18.46875,9.3125 C18.265625,9.34375 18.0625,9.40625 17.859375,9.453125 C17.34375,9.609375 16.65625,9.8125 16.21875,10.03125 C15.859375,10.203125 15.5,10.296875 15.125,10.296875 C14.65625,10.296875 14.1875,9.875 13.953125,9.359375 C13.71875,8.90625 13.5625,8.328125 13.46875,7.734375 C13.359375,7.140625 13.296875,6.53125 13.28125,6 C11.125,4.671875 9.234375,3.21875 7.484375,1.703125 C7.15625,1.40625 7,1.484375 6.921875,1.765625 C6.78125,2.21875 6.734375,2.609375 6.734375,3.3125 C6.734375,3.921875 6.78125,4.515625 6.84375,5.09375 C8.0625,5.46875 9.265625,5.984375 10.015625,6.53125 C11,7.234375 11.140625,7.953125 10.5625,8.453125 C10.3125,8.671875 9.96875,8.96875 9.671875,9.234375 C11.140625,9.984375 12.484375,10.625 14,11.09375 C14.40625,11.21875 14.734375,11.28125 15.171875,11.359375 C15.53125,11.421875 15.8125,11.46875 16.015625,11.546875 C16.34375,11.671875 16.4375,11.875 16.296875,12.234375 C16.21875,12.453125 15.984375,12.640625 15.6875,12.796875 C15.453125,12.921875 15.203125,12.921875 14.84375,12.84375 C14.234375,12.71875 13.71875,12.6875 13.25,12.734375 C12.6875,12.796875 12.359375,12.921875 12.171875,13.109375 C11.984375,13.296875 11.9375,13.546875 11.9375,13.921875 L11.9375,14.765625 C12.78125,14.875 13.53125,15.015625 14.265625,15.1875 C15,15.359375 15.734375,15.5625 16.515625,15.796875 C16.984375,15.9375 17.234375,16.078125 17.375,16.21875 C17.515625,16.34375 17.515625,16.484375 17.515625,16.609375 C17.515625,16.828125 17.328125,17.0625 16.875,17.15625 C16.4375,17.25 15.921875,17.265625 15.453125,17 L15.171875,16.828125 C15.09375,16.765625 14.96875,16.71875 14.796875,16.625 C14.1875,16.390625 13.109375,16.15625 11.984375,15.96875 C12.0625,16.515625 12.140625,17.09375 12.296875,17.6875 C12.375,17.984375 12.3125,18.234375 12.1875,18.4375 C12.046875,18.671875 11.75,18.890625 11.40625,18.984375 C10.875,19.125 10.375,19.25 9.71875,19.25 Z M15.984375,9.34375 C16.453125,9.15625 17.15625,8.84375 17.703125,8.453125 C16.625,7.96875 15.640625,7.421875 14.609375,6.828125 C14.65625,7.578125 14.75,8.28125 15.09375,8.9375 C15.328125,9.390625 15.625,9.484375 15.984375,9.34375 Z M8.890625,9.078125 C9.203125,8.890625 9.453125,8.609375 9.578125,8.421875 C9.875,7.96875 9.734375,7.765625 9.34375,7.484375 C8.6875,7.03125 7.921875,6.6875 7.078125,6.40625 C7.28125,7.28125 7.578125,8.046875 8,8.703125 C8.328125,9.265625 8.546875,9.265625 8.890625,9.078125 Z" transform="translate(-0.1640625, 19.25) scale(1, -1)"/>
</svg>