<svg height="20.90625" viewBox="0 0 24 20.90625" width="24" xmlns="http://www.w3.org/2000/svg">
<path d="M15.296875,19.46875 C14.765625,19.46875 14.0625,19.34375 13.515625,19.109375 C12.890625,18.828125 12.265625,18.484375 11.609375,17.984375 C11.390625,17.796875 11.09375,17.546875 10.796875,17.265625 C10.484375,16.96875 10.171875,16.671875 9.9375,16.390625 C9.65625,16.390625 9.265625,16.421875 8.875,16.46875 C8.46875,16.515625 8.0625,16.578125 7.78125,16.671875 C7.03125,16.921875 6.59375,17.3125 6.265625,17.640625 L5.890625,17.28125 C6.265625,16.546875 6.734375,16.0625 7.25,15.734375 C7.765625,15.40625 8.375,15.234375 9.03125,15.1875 L8.28125,14.375 C8.015625,14.09375 7.75,13.78125 7.484375,13.46875 C6.9375,12.84375 6.453125,12.203125 6.171875,11.640625 C5.984375,11.296875 5.890625,11.046875 5.84375,10.875 C5.796875,10.6875 5.796875,10.578125 5.796875,10.4375 C5.796875,10.109375 5.890625,9.921875 6.125,9.71875 C6.265625,9.59375 6.578125,9.453125 6.875,9.40625 C7.484375,9.3125 8.375,9.21875 9.21875,9.21875 C9.5,9.21875 9.953125,9.21875 10.421875,9.265625 C10.890625,9.3125 11.359375,9.359375 11.6875,9.4375 L11.6875,8.3125 C10.65625,7.953125 9.53125,7.53125 8.453125,6.921875 C8,6.640625 7.578125,6.359375 7.203125,6.078125 C6.84375,5.796875 6.5625,5.546875 6.390625,5.359375 C6,4.921875 5.984375,4.515625 6.078125,4.25 C6.171875,3.921875 6.390625,3.5625 6.796875,3.234375 C6.984375,3.078125 7.25,2.84375 7.53125,2.609375 C7.8125,2.359375 8.125,2.09375 8.40625,1.859375 C8.890625,1.4375 9.5,0.890625 10.0625,0.375 C10.609375,-0.15625 11.09375,-0.671875 11.328125,-1.015625 C11.5625,-1.328125 11.609375,-1.4375 11.90625,-1.4375 C12.3125,-1.4375 12.625,-1.125 12.796875,-0.84375 C13.015625,-0.484375 13.046875,-0.09375 13.015625,0.578125 C13,1 12.984375,1.390625 12.96875,1.71875 L12.9375,2.703125 C13.875,2.625 14.5625,2.65625 14.84375,2.6875 C15.109375,2.71875 15.375,2.75 15.640625,2.78125 C15.90625,2.796875 16.125,2.84375 16.296875,2.890625 C16.71875,2.984375 16.8125,3.140625 16.8125,3.40625 C16.8125,3.546875 16.765625,3.65625 16.65625,3.765625 C16.453125,3.953125 16.28125,4.03125 15.984375,4.046875 C15.828125,4.0625 15.609375,4.015625 15.296875,3.96875 C15.125,3.921875 14.9375,3.90625 14.75,3.875 C14.328125,3.828125 13.890625,3.8125 13.484375,3.8125 C13.28125,3.8125 13.09375,3.8125 12.9375,3.828125 L12.9375,4.515625 C13.109375,4.65625 13.40625,4.921875 13.703125,5.203125 C13.984375,5.46875 14.28125,5.75 14.46875,5.9375 C14.8125,6.25 14.96875,6.4375 15.234375,6.796875 C15.421875,7.046875 15.484375,7.34375 15.390625,7.625 C15.28125,7.90625 15.03125,8.140625 14.640625,8.28125 C14.453125,8.34375 14.15625,8.421875 13.84375,8.46875 C13.53125,8.5 13.203125,8.515625 12.9375,8.5 L12.9375,9.671875 C13.359375,9.75 13.90625,9.90625 14.421875,10.109375 C14.953125,10.296875 15.46875,10.53125 15.84375,10.765625 C16.421875,11.125 16.53125,11.34375 16.53125,11.65625 C16.53125,11.984375 16.328125,12.21875 15.890625,12.359375 C15.578125,12.453125 15.28125,12.6875 15.03125,12.953125 C14.765625,13.203125 14.53125,13.484375 14.375,13.71875 C14.234375,13.953125 14.015625,14.0625 13.796875,14.09375 C13.578125,14.140625 13.359375,14.09375 13.171875,14 C12.765625,13.8125 12.40625,13.34375 12.1875,12.9375 C11.859375,12.3125 11.6875,11.5625 11.640625,10.484375 C11.109375,10.359375 10.28125,10.34375 9.296875,10.34375 C8.421875,10.34375 7.640625,10.421875 7.421875,10.46875 C7.125,10.53125 7.078125,10.671875 7.28125,11.109375 C7.453125,11.5 7.953125,12.21875 8.5625,12.96875 C9.171875,13.71875 9.921875,14.546875 10.578125,15.1875 L11.359375,15.265625 C11.59375,15.265625 11.828125,15.296875 12.046875,15.3125 C12.5,15.359375 12.9375,15.40625 13.4375,15.5 C14.09375,15.640625 14.59375,15.78125 15.125,15.96875 C15.921875,16.25 16.484375,16.609375 16.828125,16.953125 C17.109375,17.234375 17.28125,17.546875 17.28125,18.03125 C17.28125,18.25 17.21875,18.578125 16.875,18.921875 C16.53125,19.25 15.953125,19.46875 15.296875,19.46875 Z M11.28125,16.328125 C11.4375,16.515625 11.828125,16.84375 12.25,17.1875 C12.671875,17.515625 13.125,17.84375 13.421875,18.03125 C14.171875,18.5 14.859375,18.796875 15.40625,18.796875 C16.15625,18.796875 16.46875,18.453125 16.46875,18 C16.46875,17.546875 16.21875,17.328125 15.625,17.046875 C15.078125,16.765625 14.328125,16.59375 13.5625,16.484375 C12.78125,16.359375 11.953125,16.3125 11.28125,16.328125 Z M12.921875,10.671875 C12.953125,11.5625 12.953125,12.359375 13.21875,12.890625 C13.484375,13.390625 13.859375,13.46875 14,13.203125 C14.140625,12.875 14.5,12.390625 14.8125,12.03125 C14.984375,11.84375 14.953125,11.5625 14.703125,11.375 C14.515625,11.234375 14.203125,11.09375 13.859375,10.96875 C13.5,10.84375 13.15625,10.734375 12.921875,10.671875 Z M12.9375,7.34375 C13.171875,7.390625 13.375,7.421875 13.609375,7.375 C13.953125,7.296875 14.15625,7.0625 14.0625,6.84375 C13.96875,6.609375 13.78125,6.34375 13.5625,6.109375 C13.34375,5.859375 13.109375,5.65625 12.9375,5.515625 Z M11.6875,4.703125 C11.359375,4.46875 11.0625,4.25 10.71875,4.0625 C10.484375,3.921875 10.4375,3.734375 10.4375,3.5 C10.4375,3.359375 10.578125,3.21875 10.875,3.078125 C10.953125,3.03125 11.046875,3 11.140625,2.984375 C11.25,2.9375 11.4375,2.90625 11.6875,2.859375 L11.734375,0.875 C11.75,0.546875 11.703125,0.46875 11.46875,0.59375 C11.140625,0.78125 10.671875,1.109375 10.203125,1.4375 C9.734375,1.75 9.28125,2.0625 9,2.28125 C8.46875,2.703125 8,3.125 7.671875,3.484375 C7.25,3.96875 7.203125,4.21875 7.390625,4.578125 C7.578125,4.921875 8.234375,5.5 9.21875,6.125 C9.78125,6.484375 10.65625,6.921875 11.6875,7.15625 Z" transform="translate(0.4609375, 19.46875) scale(1, -1)"/>
</svg>