<svg height="19.796875" viewBox="0 0 24 19.796875" width="24" xmlns="http://www.w3.org/2000/svg">
<path d="M12.34375,19.0625 C12.09375,19.0625 11.75,18.96875 11.421875,18.84375 C11.09375,18.734375 10.75,18.5625 10.515625,18.453125 C10.109375,18.265625 9.5625,17.9375 9.03125,17.609375 C8.484375,17.265625 7.953125,16.90625 7.609375,16.65625 C7.21875,16.375 7.09375,16.4375 6.890625,16.65625 C6.5625,17.03125 6.390625,17.421875 6.1875,17.9375 L5.734375,17.6875 C5.6875,16.796875 5.828125,16.015625 6.140625,15.484375 C6.4375,15 6.78125,14.890625 7.15625,14.859375 C7.5625,14.828125 7.8125,15.125 8.09375,15.640625 C8.21875,15.875 8.59375,16.296875 9.109375,16.734375 C9.609375,17.171875 10.25,17.625 10.90625,17.953125 C11.515625,18.265625 11.765625,18.21875 11.6875,17.734375 C11.53125,16.78125 11.28125,15.59375 11.09375,14.609375 C10.765625,14.484375 10.34375,14.328125 9.921875,14.1875 C9.5,14.046875 9.09375,13.90625 8.8125,13.859375 C7.96875,13.625 7.15625,13.484375 6.484375,13.515625 C5.640625,13.546875 5,13.765625 4.515625,14.234375 L4.21875,13.828125 C4.359375,13.46875 4.671875,13.109375 5.046875,12.84375 C5.4375,12.5625 5.9375,12.375 6.484375,12.359375 C7.65625,12.328125 8.96875,12.609375 10.8125,13.328125 C10.71875,12.96875 10.546875,12.40625 10.359375,11.78125 C10.15625,11.15625 9.9375,10.453125 9.71875,9.84375 C9.40625,9.65625 9.09375,9.484375 8.796875,9.3125 C8.515625,9.140625 8.234375,8.984375 7.953125,8.796875 C7.390625,8.46875 6.875,8.125 6.3125,7.703125 C5.9375,7.40625 5.515625,7.0625 5.140625,6.75 C4.765625,6.4375 4.4375,6.125 4.25,5.890625 C3.828125,5.40625 3.578125,5.046875 3.4375,4.671875 C3.28125,4.296875 3.21875,3.921875 3.265625,3.40625 C3.28125,3.125 3.375,2.75 3.484375,2.375 C3.59375,2 3.734375,1.609375 3.875,1.328125 C4.0625,0.9375 4.21875,0.546875 4.578125,0.234375 C5.046875,-0.171875 5.59375,-0.125 6.296875,0.578125 C7.140625,1.421875 8.015625,2.65625 9,4.578125 C9.390625,5.34375 9.75,6.21875 10.0625,7.015625 C10.390625,7.828125 10.640625,8.59375 10.828125,9.1875 C11.40625,9.53125 12.125,9.875 12.875,10.140625 C13.625,10.390625 14.4375,10.5625 15.234375,10.5625 C16.28125,10.5625 17.25,10.28125 17.953125,9.390625 C18.53125,8.640625 18.625,7.765625 18.625,6.71875 C18.625,5.46875 18.3125,4.359375 17.703125,3.40625 C17.046875,3.6875 16.109375,3.8125 15.078125,3.890625 C14.78125,3.90625 14.328125,3.890625 13.859375,3.828125 C13.375,3.75 12.859375,3.640625 12.4375,3.453125 C11.921875,3.265625 11.484375,2.984375 11.171875,2.65625 C10.859375,2.34375 10.671875,2 10.671875,1.671875 C10.671875,1.171875 10.90625,0.71875 11.5625,0.34375 C12.234375,-0.046875 13.125,-0.265625 13.921875,-0.265625 C14.6875,-0.265625 15.578125,-0.15625 16.65625,0.453125 C16.890625,0.59375 17.1875,0.8125 17.46875,1.0625 C17.75,1.296875 18.015625,1.5625 18.1875,1.828125 C18.453125,1.640625 18.828125,1.359375 19.1875,1.046875 C19.546875,0.734375 19.890625,0.375 20.109375,0.046875 C20.4375,-0.453125 20.953125,-0.734375 21.234375,-0.640625 C21.484375,-0.5625 21.71875,-0.359375 21.78125,-0.03125 C21.859375,0.453125 21.578125,0.9375 21.234375,1.28125 C21.015625,1.5 20.609375,1.8125 20.15625,2.09375 C19.703125,2.375 19.203125,2.6875 18.828125,2.890625 C19.15625,3.265625 19.5,3.875 19.765625,4.578125 C20.015625,5.265625 20.1875,6.03125 20.1875,6.734375 C20.1875,8.015625 19.953125,8.90625 19.328125,9.671875 C18.390625,10.84375 17.015625,11.34375 15.3125,11.375 C13.859375,11.421875 12.390625,10.953125 11.015625,10.28125 C11.15625,10.625 11.375,11.234375 11.59375,11.890625 C11.8125,12.546875 12.03125,13.21875 12.171875,13.71875 C12.734375,13.90625 13.234375,14.078125 13.640625,14.234375 C14.46875,14.546875 15.375,14.78125 15.296875,15.390625 C15.265625,15.609375 15.0625,15.78125 14.796875,15.875 C14.359375,16.015625 14.0625,16.015625 13.671875,15.734375 C13.5,15.609375 13.296875,15.5 13.0625,15.390625 C12.8125,15.28125 12.609375,15.203125 12.4375,15.125 C12.5,15.34375 12.640625,15.765625 12.78125,16.234375 C12.921875,16.6875 13.078125,17.171875 13.171875,17.5 C13.28125,17.890625 13.28125,18.1875 13.109375,18.484375 C12.875,18.875 12.640625,19.0625 12.34375,19.0625 Z M9.359375,8.546875 C8.953125,7.421875 8.40625,5.84375 7.5625,4.15625 C7.421875,3.875 7.265625,3.59375 7.109375,3.3125 C6.78125,2.765625 6.453125,2.296875 6.140625,1.90625 C5.84375,1.5 5.3125,0.625 4.921875,1.21875 C4.53125,1.8125 4.25,2.640625 4.328125,3.484375 C4.375,4.03125 4.8125,4.71875 5.5625,5.5625 C6.046875,6.125 6.71875,6.703125 7.390625,7.21875 C8.046875,7.734375 8.75,8.203125 9.359375,8.546875 Z M17.109375,2.46875 C16.984375,2.234375 16.765625,1.953125 16.484375,1.71875 C16.203125,1.46875 15.875,1.25 15.53125,1.109375 C14.828125,0.8125 14.328125,0.71875 13.828125,0.71875 C13.078125,0.71875 12.53125,0.875 12.234375,1.03125 C11.875,1.21875 11.640625,1.484375 11.640625,1.78125 C11.640625,1.984375 11.796875,2.1875 12.015625,2.375 C12.234375,2.5625 12.53125,2.703125 12.84375,2.8125 C13.15625,2.921875 13.546875,2.984375 13.921875,3.03125 C14.28125,3.0625 14.65625,3.078125 14.890625,3.078125 C15.265625,3.078125 15.703125,3 16.109375,2.890625 C16.53125,2.765625 16.890625,2.609375 17.109375,2.46875 Z" transform="translate(-0.5390625, 19.0625) scale(1, -1)"/>
</svg>