<svg height="19.03125" viewBox="0 0 24 19.03125" width="24" xmlns="http://www.w3.org/2000/svg">
<path d="M9.890625,18.390625 C10.390625,17.859375 10.296875,17.1875 9.6875,16.15625 C9.40625,15.640625 9.0625,15.109375 8.703125,14.625 C8.328125,14.140625 7.953125,13.71875 7.65625,13.4375 C7.25,13.078125 7.015625,12.78125 7.125,12.3125 C7.296875,11.5625 7.609375,11.453125 8.09375,11.796875 C8.40625,12.015625 8.765625,12.234375 9.296875,12.5 L9.78125,12.78125 C9.96875,12.875 10.15625,12.984375 10.375,13.109375 L11,13.4375 C11.421875,13.671875 11.9375,13.953125 12.34375,14.15625 C12.734375,14.359375 13.453125,14.671875 13.21875,14.109375 C13.046875,13.6875 12.609375,12.90625 12.046875,12.015625 C11.484375,11.125 10.8125,10.109375 10.203125,9.265625 C8.9375,7.53125 7.75,6.09375 6.75,4.96875 C5.75,3.84375 4.953125,3.046875 4.421875,2.609375 L4.53125,3.71875 L3.984375,3.625 C3.9375,3.375 3.84375,3.078125 3.734375,2.84375 C3.640625,2.609375 3.53125,2.375 3.4375,2.28125 C3.0625,1.828125 3,1.578125 3.1875,1.296875 C3.390625,0.984375 3.84375,0.921875 4.28125,1.0625 C4.78125,1.234375 5.203125,1.515625 5.8125,2.203125 C6.296875,2.75 6.921875,3.453125 7.484375,4.03125 C8.046875,4.625 8.515625,5.109375 8.6875,5.265625 C9,5.546875 9.21875,5.71875 9.453125,5.84375 C9.6875,5.984375 9.9375,6.03125 10.296875,6.078125 C10.765625,6.125 11.65625,5.890625 12.609375,5.5625 C13.5625,5.21875 14.578125,4.75 15.296875,4.28125 C16.140625,3.734375 17.046875,3.078125 17.84375,2.4375 C18.640625,1.78125 19.3125,1.125 19.703125,0.59375 C20.015625,0.171875 20.3125,-0.09375 20.59375,-0.21875 C20.859375,-0.328125 21.09375,-0.359375 21.265625,-0.296875 C21.59375,-0.171875 21.734375,0.046875 21.78125,0.359375 C21.796875,0.6875 21.671875,1.015625 21.390625,1.34375 C20.984375,1.828125 20.328125,2.40625 19.578125,2.984375 C18.828125,3.546875 17.984375,4.109375 17.234375,4.578125 C16.53125,5 15.609375,5.453125 14.671875,5.828125 C13.734375,6.203125 12.8125,6.515625 12.125,6.671875 C11.5,6.8125 11.015625,6.875 10.578125,6.84375 C10.15625,6.8125 9.75,6.703125 9.3125,6.484375 C10.203125,7.46875 11.25,8.71875 12.21875,9.921875 C13.171875,11.109375 14.046875,12.25 14.5625,13.015625 C14.765625,13.296875 14.9375,13.546875 14.984375,13.765625 C15.046875,13.96875 15.03125,14.171875 14.9375,14.40625 C14.796875,14.71875 14.421875,15.09375 14.234375,15.265625 C13.953125,15.5 13.625,15.578125 13.34375,15.578125 C13.21875,15.578125 13.0625,15.546875 12.828125,15.453125 C12.59375,15.359375 12.265625,15.171875 11.796875,14.9375 C11.546875,14.796875 11.140625,14.609375 10.71875,14.4375 C10.296875,14.265625 9.828125,14.09375 9.453125,13.96875 C9.59375,14.109375 9.75,14.28125 9.90625,14.484375 C10.203125,14.890625 10.484375,15.328125 10.71875,15.78125 C10.9375,16.21875 11.09375,16.6875 11.09375,17.140625 C11.09375,17.375 11.0625,17.578125 11,17.765625 C10.859375,18.140625 10.609375,18.4375 10.28125,18.671875 Z" transform="translate(-0.3984375, 18.671875) scale(1, -1)"/>
</svg>