<svg height="20.375" viewBox="0 0 24 20.375" width="24" xmlns="http://www.w3.org/2000/svg">
<path d="M7.90625,18.796875 C8.328125,18.390625 8.890625,18.078125 9.625,17.84375 C10.359375,17.609375 11.28125,17.46875 12.4375,17.40625 C11.515625,17.125 10.6875,16.84375 9.921875,16.546875 C9.140625,16.25 8.40625,15.9375 7.65625,15.59375 L7.96875,15.125 C8.984375,15.5 9.734375,15.765625 10.4375,15.96875 C11.140625,16.1875 11.78125,16.34375 12.578125,16.53125 C13.421875,16.734375 14,16.859375 14.609375,16.859375 C14.984375,16.859375 15.21875,16.9375 15.359375,17.0625 C15.5,17.1875 15.546875,17.359375 15.546875,17.5 C15.546875,17.890625 15.1875,18.234375 14.8125,18.453125 C14.703125,18.515625 14.46875,18.546875 14.1875,18.546875 C13.90625,18.546875 13.578125,18.515625 13.34375,18.484375 C12.328125,18.34375 11.484375,18.390625 10.4375,18.53125 C9.453125,18.671875 8.703125,18.96875 8.140625,19.25 Z M3.03125,13.703125 C2.40625,13.109375 2.046875,12.5625 2.046875,11.859375 C2.046875,11.390625 2.1875,11 2.5,10.703125 C2.8125,10.390625 3.359375,10.171875 4.171875,10.171875 C5.109375,10.171875 6.046875,10.46875 7.21875,11.0625 C7.390625,11.140625 7.578125,11.25 7.796875,11.359375 C8.015625,11.46875 8.234375,11.578125 8.46875,11.703125 C8.90625,11.921875 9.328125,12.125 9.578125,12.265625 C9.5,11.671875 9.484375,11.1875 9.484375,10.53125 C9.484375,10.296875 9.5,10.109375 9.640625,9.9375 C9.765625,9.75 9.984375,9.59375 10.375,9.4375 C10.703125,9.296875 11.203125,9.125 11.546875,9.03125 C11.65625,8.984375 11.734375,8.921875 11.734375,8.875 C11.734375,8.796875 11.671875,8.75 11.515625,8.6875 C10.96875,8.4375 10.390625,8.09375 9.890625,7.75 C9.390625,7.40625 8.96875,7.046875 8.765625,6.796875 C8.359375,6.296875 8.1875,5.90625 8.1875,5.59375 C8.1875,5.109375 8.40625,4.640625 8.859375,4.375 C9.15625,4.203125 9.546875,4.0625 9.96875,3.96875 C10.390625,3.859375 10.8125,3.78125 11.140625,3.734375 C11.3125,3.71875 11.421875,3.671875 11.46875,3.59375 C11.5,3.515625 11.390625,3.390625 11.109375,3.21875 C10.875,3.078125 10.5625,2.859375 10.265625,2.65625 C9.96875,2.4375 9.6875,2.234375 9.546875,2.109375 C9.03125,1.671875 8.796875,1.296875 8.796875,0.78125 C8.796875,0.546875 8.84375,0.3125 9.03125,0.078125 C9.21875,-0.171875 9.53125,-0.390625 10.078125,-0.625 C10.5,-0.8125 11.03125,-0.921875 11.5625,-1.015625 C12.109375,-1.09375 12.65625,-1.125 13.171875,-1.125 C13.484375,-1.125 13.921875,-1.09375 14.34375,-1.046875 C14.75,-1 15.125,-0.921875 15.3125,-0.875 C15.6875,-0.734375 15.9375,-0.640625 16.125,-0.453125 C16.390625,-0.1875 16.34375,0.078125 16.15625,0.265625 C15.953125,0.453125 15.6875,0.515625 15.390625,0.4375 C14.90625,0.3125 14.0625,0.21875 13.296875,0.21875 C12.875,0.21875 12.265625,0.234375 11.703125,0.296875 C11.140625,0.34375 10.609375,0.421875 10.28125,0.53125 C9.84375,0.671875 9.6875,0.78125 9.6875,1.0625 C9.6875,1.34375 9.921875,1.578125 10.296875,1.8125 C10.6875,2.046875 11.375,2.40625 11.953125,2.6875 C12.625,3.015625 13.03125,3.171875 13.171875,3.4375 C13.328125,3.703125 13.34375,4.03125 13.203125,4.28125 C13,4.609375 12.640625,4.765625 12.125,4.78125 C11.890625,4.78125 11.4375,4.84375 10.984375,4.90625 C10.53125,4.984375 10.0625,5.046875 9.875,5.140625 C9.359375,5.328125 9.078125,5.46875 9.078125,5.8125 C9.078125,6.09375 9.1875,6.28125 9.53125,6.546875 C9.765625,6.734375 10.15625,7.015625 10.578125,7.25 C11,7.484375 11.484375,7.734375 11.90625,7.875 C12.40625,8.046875 12.890625,8.25 13.21875,8.453125 C13.515625,8.625 13.765625,8.84375 13.765625,9.125 C13.765625,9.453125 13.625,9.71875 13.296875,9.890625 C13.015625,10.046875 12.640625,10.109375 12.265625,10.203125 C12.03125,10.25 11.828125,10.296875 11.6875,10.34375 C11.53125,10.390625 11.375,10.4375 11.203125,10.484375 C10.890625,10.578125 10.78125,10.703125 10.78125,11.0625 C10.78125,11.765625 10.796875,12.21875 10.875,12.78125 C11.640625,13.203125 12.484375,13.65625 13.78125,14.15625 C15.109375,14.671875 16.015625,15 16.71875,15.203125 C17.421875,15.390625 17.890625,15.453125 18.34375,15.453125 C19.0625,15.453125 19.609375,15.34375 19.96875,15.125 C20.15625,14.984375 20.328125,14.84375 20.46875,14.625 C20.59375,14.40625 20.65625,14.109375 20.65625,13.703125 C20.65625,13.171875 20.453125,12.84375 20.1875,12.578125 C19.625,12.03125 18.84375,11.84375 17.765625,11.84375 C17.0625,11.84375 16.203125,12.09375 15.53125,12.53125 L15.3125,12 C15.796875,11.609375 16.453125,11.21875 17.15625,11.015625 C17.859375,10.828125 18.359375,10.8125 18.9375,10.8125 C19.828125,10.8125 20.65625,11.140625 21.21875,11.546875 C21.921875,12.046875 22.34375,12.84375 22.34375,13.703125 C22.34375,14.453125 22.125,14.9375 21.578125,15.4375 C21.046875,15.921875 20.3125,16.25 19.28125,16.296875 C18.296875,16.34375 17.296875,16.109375 16.53125,15.890625 C16.203125,15.796875 15.640625,15.609375 15.03125,15.40625 C14.421875,15.21875 13.78125,14.96875 13.28125,14.765625 C12.71875,14.53125 12.296875,14.359375 11.9375,14.1875 C11.5625,14 11.28125,13.84375 10.96875,13.65625 C11.015625,14.046875 11.265625,14.5 11.5,14.84375 L11.203125,15.078125 C10.484375,14.734375 10.015625,14.1875 9.6875,13.296875 C8.984375,12.96875 7.921875,12.546875 6.9375,12.1875 C5.953125,11.828125 5.1875,11.625 4.46875,11.59375 C3.484375,11.5625 3.140625,11.84375 3.140625,12.296875 C3.140625,12.71875 3.1875,13.203125 3.390625,13.4375 Z" transform="translate(-0.1953125, 19.25) scale(1, -1)"/>
</svg>