<svg height="20.671875" viewBox="0 0 24 20.671875" width="24" xmlns="http://www.w3.org/2000/svg">
<path d="M10.109375,18.828125 C10.65625,18.71875 11.046875,18.5625 11.3125,18.296875 C11.5625,18.03125 11.703125,17.65625 11.734375,17.09375 C11.765625,16.53125 11.78125,15.65625 11.78125,14.5 C11.78125,13.34375 11.75,11.9375 11.703125,10.375 C10.765625,9.96875 9.390625,9.125 7.921875,7.8125 C6.9375,6.90625 6.3125,6.140625 6.03125,5.59375 C5.921875,5.390625 5.875,5.203125 5.9375,4.984375 C6.015625,4.765625 6.203125,4.515625 6.578125,4.21875 C6.859375,4 7.234375,3.6875 7.671875,3.3125 C8.09375,2.9375 8.59375,2.515625 9.09375,2.0625 C9.578125,1.609375 10.03125,1.15625 10.40625,0.71875 C10.765625,0.265625 11.046875,-0.15625 11.140625,-0.484375 C11.28125,-0.96875 11.375,-1.203125 11.59375,-1.28125 C11.765625,-1.328125 11.9375,-1.3125 12.21875,-1.171875 C12.578125,-0.96875 12.875,-0.53125 12.96875,-0.125 C13.046875,0.25 13.046875,0.640625 13.015625,1.53125 C13,1.765625 13,2 12.984375,2.25 C12.96875,2.71875 12.96875,3.171875 12.96875,3.5625 L12.96875,4.078125 C13.4375,3.890625 14.0625,3.6875 14.765625,3.59375 C15.4375,3.5 16.015625,3.4375 16.484375,3.53125 C16.953125,3.625 17.0625,4.03125 16.96875,4.375 C16.84375,4.8125 16.515625,4.953125 16.125,4.953125 C15.765625,4.953125 15.296875,4.953125 14.890625,5 C14.1875,5.078125 13.390625,5.15625 12.921875,5.359375 C12.875,6.171875 12.875,6.984375 12.875,7.78125 C13.09375,8.015625 13.296875,8.421875 13.4375,8.703125 C13.671875,9.1875 13.859375,9.578125 13.859375,9.9375 C13.859375,10.515625 13.390625,10.640625 12.78125,10.5625 C12.859375,13.296875 12.96875,15.5 13.203125,17.015625 C13.25,17.4375 13.296875,17.734375 13.265625,17.96875 C13.234375,18.203125 13.140625,18.359375 12.9375,18.546875 C12.375,19.0625 11.359375,19.296875 10.375,19.34375 Z M16.828125,15.875 C17.09375,16.1875 17.5,16.1875 17.8125,15.984375 C18.03125,15.84375 18.125,15.546875 18.125,15.1875 C18.125,14.875 18.03125,14.59375 17.84375,14.359375 C17.703125,14.1875 17.421875,14.0625 17.1875,14.0625 C16.859375,14.0625 16.59375,14.140625 16.328125,14.265625 C16.03125,14.390625 15.6875,14.59375 15.21875,15 L14.953125,14.453125 C15.265625,14.140625 15.71875,13.765625 16.0625,13.53125 C16.53125,13.21875 16.96875,13.03125 17.453125,13.03125 C17.953125,13.03125 18.4375,13.21875 18.78125,13.484375 C19.34375,13.953125 19.625,14.5 19.625,15.296875 C19.625,15.84375 19.421875,16.328125 19.015625,16.609375 C18.6875,16.828125 18.265625,16.96875 17.8125,16.96875 C17.3125,16.96875 16.859375,16.734375 16.46875,16.28125 Z M5.9375,15.390625 C5.375,14.6875 4.90625,13.8125 4.90625,12.921875 C4.90625,12.3125 5.15625,11.90625 5.8125,11.90625 C6.265625,11.90625 6.828125,12.078125 7.484375,12.453125 C8.421875,13.015625 9.140625,13.578125 9.984375,14.328125 L9.6875,14.84375 C9.3125,14.515625 8.875,14.203125 8.4375,13.953125 C8,13.6875 7.59375,13.484375 7.28125,13.375 C6.578125,13.140625 6.1875,13.203125 6.1875,13.8125 C6.1875,14.234375 6.265625,14.75 6.40625,15.171875 Z M11.65625,7.625 C11.328125,7.015625 10.859375,6.390625 10.53125,6.09375 C10.171875,5.765625 10.125,5.53125 10.375,5.28125 C10.671875,5 11.234375,4.671875 11.65625,4.53125 L11.59375,1.125 C10.90625,1.59375 10.0625,2.234375 9.3125,2.84375 C8.5625,3.4375 7.890625,4.015625 7.515625,4.375 C7.21875,4.65625 7.015625,4.859375 6.953125,5.046875 C6.875,5.25 6.921875,5.453125 7.125,5.765625 C7.21875,5.90625 7.4375,6.203125 7.71875,6.53125 C8,6.84375 8.34375,7.203125 8.65625,7.4375 C9.375,8.015625 10,8.390625 10.5,8.640625 C11,8.890625 11.390625,9 11.65625,9.046875 Z" transform="translate(-0.265625, 19.34375) scale(1, -1)"/>
</svg>