<svg height="21.453125" viewBox="0 0 24 21.453125" width="24" xmlns="http://www.w3.org/2000/svg">
<path d="M12.828125,19.390625 C13.34375,19.203125 13.671875,19 13.796875,18.8125 C13.90625,18.609375 13.90625,18.40625 13.765625,18.1875 C13.578125,17.90625 13.28125,17.421875 12.984375,17.015625 C12.8125,16.78125 12.640625,16.484375 12.640625,16.109375 C12.640625,15.734375 12.734375,15.3125 13.15625,14.515625 C12.359375,14.421875 11.328125,14.1875 10.234375,13.75 C9.125,13.3125 7.953125,12.671875 6.96875,11.796875 C6.171875,11.09375 5.421875,10.109375 4.859375,9.015625 C4.3125,7.90625 3.96875,6.6875 3.984375,5.515625 C4,4.296875 4.34375,3.109375 4.90625,2.046875 C5.46875,1 6.296875,0.09375 7.25,-0.546875 C8.21875,-1.203125 9.3125,-1.578125 10.484375,-1.578125 C12.078125,-1.578125 13.46875,-1.21875 14.5625,-0.515625 C15.640625,0.171875 16.40625,1.203125 16.78125,2.515625 C17.4375,2.28125 17.984375,2.15625 18.4375,2.15625 C18.890625,2.15625 19.15625,2.3125 19.15625,2.796875 C19.15625,3.203125 18.96875,3.5 18.21875,3.640625 C17.796875,3.734375 17.40625,3.8125 17.046875,3.9375 C17.140625,4.96875 17.09375,6.125 16.921875,7.390625 C16.796875,8.328125 16.484375,9.421875 16.125,10.4375 C15.765625,11.4375 15.359375,12.359375 15.03125,13.015625 C15.71875,13.109375 15.890625,13.375 15.890625,13.703125 C15.890625,13.921875 15.765625,14.109375 15.5,14.265625 C15.21875,14.421875 14.78125,14.515625 14.140625,14.546875 C14.0625,14.65625 14,14.765625 13.9375,14.875 C13.875,14.984375 13.8125,15.078125 13.71875,15.1875 C13.359375,15.734375 13.484375,16.203125 13.8125,16.515625 C14.140625,16.859375 14.453125,17.0625 15,17.375 C15.71875,17.796875 15.828125,18.3125 15.59375,18.671875 C15.3125,19.15625 14.515625,19.625 13.25,19.875 Z M13.8125,13.5625 C13.4375,13.25 13.0625,12.828125 12.734375,12.40625 C12.40625,11.984375 12.140625,11.5625 12,11.265625 C11.765625,10.765625 11.734375,10.328125 12.046875,9.828125 C12.3125,9.390625 12.78125,9 13.328125,8.65625 C13.765625,8.390625 13.859375,7.921875 13.421875,7.125 C12.84375,6.046875 12.9375,5.28125 13.703125,4.484375 C14.15625,4.015625 14.609375,3.578125 15.40625,3.140625 C15.171875,2.1875 14.671875,1.265625 13.890625,0.59375 C13.09375,-0.09375 11.984375,-0.546875 10.515625,-0.546875 C9.5,-0.546875 8.546875,-0.21875 7.71875,0.359375 C6.875,0.921875 6.171875,1.703125 5.6875,2.609375 C5.1875,3.5 4.90625,4.5 4.921875,5.5 C4.953125,7.75 5.9375,9.875 7.90625,11.328125 C8.75,11.984375 9.796875,12.546875 10.84375,12.953125 C11.875,13.34375 12.921875,13.578125 13.8125,13.5625 Z M14.09375,12.484375 C14.515625,11.390625 14.859375,10.328125 15.109375,9.40625 C15.34375,8.46875 15.484375,7.671875 15.53125,7.125 C15.609375,6.171875 15.640625,5.296875 15.59375,4.484375 C14.84375,4.859375 14.28125,5.296875 14.046875,5.765625 C13.8125,6.1875 13.828125,6.46875 14.0625,6.84375 C14.171875,7.03125 14.3125,7.28125 14.453125,7.546875 C14.578125,7.8125 14.6875,8.09375 14.734375,8.3125 C14.890625,8.96875 14.59375,9.421875 14.15625,9.640625 C13.9375,9.75 13.6875,9.90625 13.46875,10.078125 C13.234375,10.25 13.015625,10.421875 12.921875,10.5625 C12.640625,10.921875 12.734375,11.0625 12.921875,11.28125 C13.234375,11.65625 13.65625,12.125 14.09375,12.484375 Z" transform="translate(0.4375, 19.875) scale(1, -1)"/>
</svg>