<svg height="20.40625" viewBox="0 0 24 20.40625" width="24" xmlns="http://www.w3.org/2000/svg">
<path d="M8.46875,18.875 C8.890625,17.6875 9.703125,16.921875 11.15625,16.53125 C10.34375,16.21875 9.65625,15.734375 8.8125,14.796875 C8.3125,14.234375 8,13.625 7.8125,13.09375 C7.625,12.546875 7.5625,12.0625 7.5625,11.734375 C7.5625,11.453125 7.671875,11.1875 7.8125,11 C7.953125,10.8125 8.171875,10.703125 8.40625,10.703125 C8.71875,10.703125 9.078125,10.796875 9.671875,11 C10.109375,11.140625 10.8125,11.328125 11.5,11.5 C12.1875,11.65625 12.875,11.8125 13.28125,11.859375 C13.828125,11.9375 13.921875,11.703125 13.578125,11.375 C13.4375,11.25 13.25,11.09375 12.984375,10.890625 C12.453125,10.484375 11.75,10 10.953125,9.453125 C10.15625,8.921875 9.3125,8.34375 8.46875,7.8125 C8.046875,7.546875 7.65625,7.296875 7.296875,7.0625 C6.921875,6.828125 6.59375,6.609375 6.296875,6.421875 C5.984375,6.234375 5.75,6.078125 5.546875,5.953125 C4.796875,5.46875 4.53125,5.140625 4.5625,4.703125 C4.59375,4.390625 4.640625,4.171875 4.71875,3.9375 C4.765625,3.796875 5,3.6875 5.359375,3.734375 C5.40625,3.75 5.46875,3.75 5.578125,3.75 C5.765625,3.75 6.03125,3.75 6.28125,3.734375 L6.640625,3.6875 C7.3125,3.609375 8.203125,3.5 9.1875,3.3125 C10.15625,3.109375 11.21875,2.84375 12.234375,2.515625 C13.46875,2.140625 14.828125,1.625 16.203125,0.96875 C16.859375,0.640625 17.453125,0.328125 17.9375,0.046875 C18.4375,-0.25 18.796875,-0.5 18.984375,-0.6875 C19.296875,-1 19.578125,-1.15625 19.875,-1.15625 C20.15625,-1.15625 20.40625,-0.984375 20.453125,-0.59375 C20.5,-0.234375 20.359375,0.15625 20.109375,0.4375 C19.9375,0.640625 19.65625,0.875 19.34375,1.0625 C19.046875,1.265625 18.703125,1.453125 18.453125,1.578125 C16.953125,2.328125 15.21875,2.96875 12.96875,3.578125 C11.171875,4.0625 8.953125,4.546875 6.265625,4.71875 C5.5625,4.765625 5.46875,4.921875 6.3125,5.46875 C7.71875,6.375 9.265625,7.296875 10.71875,8.125 C12.171875,8.953125 13.59375,9.71875 14.765625,10.328125 C15.3125,10.609375 15.59375,10.8125 15.59375,11.234375 C15.59375,11.46875 15.390625,11.96875 15.1875,12.296875 C15.046875,12.53125 14.796875,12.828125 14.515625,12.96875 C14.25,13.09375 13.953125,13.0625 13.53125,12.96875 C13.25,12.890625 12.921875,12.828125 12.5625,12.78125 C11.828125,12.65625 11.078125,12.546875 10.421875,12.5 C9.75,12.4375 9.171875,12.390625 8.84375,12.484375 C8.671875,12.515625 8.59375,12.625 8.59375,12.78125 C8.59375,12.921875 8.65625,13.25 8.859375,13.625 C9.0625,14 9.390625,14.4375 9.890625,14.8125 C10.390625,15.1875 10.859375,15.453125 11.375,15.625 C11.90625,15.796875 12.5,15.875 13.28125,15.875 C14.03125,15.875 14.46875,16.21875 14.3125,16.78125 C14.140625,17.40625 13.65625,17.625 12.53125,17.59375 C11.671875,17.5625 10.984375,17.671875 10.40625,17.953125 C9.828125,18.21875 9.34375,18.640625 8.90625,19.25 Z" transform="translate(-0.515625, 19.25) scale(1, -1)"/>
</svg>