<svg height="24" viewBox="0 0 24 24" width="24" xmlns="http://www.w3.org/2000/svg">
<path d="M4.53125,12.046875 C3.984375,11.5 3.453125,10.765625 3.03125,9.921875 C2.625,9.09375 2.359375,8.171875 2.359375,7.25 C2.359375,6.6875 2.515625,6.25 2.75,5.921875 C2.984375,5.59375 3.28125,5.40625 3.53125,5.40625 C4.03125,5.40625 4.21875,5.703125 4.484375,6.234375 C4.859375,6.984375 5.328125,7.703125 5.84375,8.15625 C5.9375,8.234375 6,8.28125 6.078125,8.28125 C6.140625,8.265625 6.1875,8.1875 6.234375,8 C6.3125,7.65625 6.453125,7.203125 6.625,6.796875 C6.78125,6.390625 6.96875,6 7.125,5.765625 C7.578125,5.0625 8.015625,4.578125 8.40625,4.578125 C9.03125,4.578125 9.265625,4.875 9.234375,5.5 C9.203125,5.984375 9.3125,6.453125 9.625,7.15625 C10.765625,9.703125 11.84375,11.703125 12.875,13.15625 C13.90625,14.59375 14.8125,15.484375 15.578125,15.84375 C16.34375,16.203125 16.71875,16.015625 16.71875,15.265625 C16.71875,13.0625 16.4375,10.8125 15.984375,8.1875 C15.9375,7.90625 15.90625,7.6875 15.875,7.515625 C15.828125,7.15625 15.828125,6.890625 16.203125,6.53125 C16.34375,6.390625 16.5625,6.34375 16.921875,6.53125 C17.453125,6.8125 18.09375,7.03125 18.796875,6.9375 C19.390625,6.859375 19.828125,6.5 19.828125,5.65625 C19.828125,4.953125 19.046875,4.234375 17.640625,3.5 C16.234375,2.78125 14.1875,2.046875 11.6875,1.375 L12.03125,0.6875 C15.25,1.40625 17.609375,2.125 19.15625,2.921875 C20.703125,3.71875 21.453125,4.578125 21.453125,5.609375 C21.453125,6.171875 21.21875,6.65625 20.796875,7.015625 C20.375,7.390625 19.765625,7.625 18.984375,7.671875 C18.625,7.71875 18.203125,7.734375 17.84375,7.703125 C17.453125,7.671875 17.375,7.71875 17.421875,8.09375 C17.765625,10.75 18.140625,13.109375 18.140625,15.3125 C18.140625,15.84375 17.953125,16.265625 17.6875,16.53125 C17.40625,16.8125 17.03125,16.953125 16.65625,16.953125 C15.84375,16.953125 14.921875,16.40625 13.953125,15.515625 C12.96875,14.625 11.984375,13.390625 11.046875,12 C10.109375,10.609375 9.265625,9.046875 8.59375,7.53125 L8.40625,7.140625 C8.3125,6.953125 8.234375,6.90625 8.140625,7 C8.09375,7.03125 8.046875,7.109375 7.96875,7.203125 C7.609375,7.671875 7.390625,8.1875 7.203125,8.65625 C7.0625,9.046875 6.78125,9.265625 6.5,9.3125 C6.1875,9.359375 5.84375,9.1875 5.453125,8.90625 C5.0625,8.609375 4.625,8.140625 4.171875,7.609375 C3.90625,7.296875 3.78125,7.4375 3.734375,7.828125 C3.6875,8.625 3.84375,9.359375 4.109375,10.015625 C4.359375,10.65625 4.703125,11.234375 5.0625,11.703125 Z" transform="translate(0.09375, 16.953125) scale(1, -1)"/>
</svg>