<svg height="19.484375" viewBox="0 0 24 19.484375" width="24" xmlns="http://www.w3.org/2000/svg">
<path d="M7.765625,18 C8,17.546875 8.421875,17.203125 8.859375,17.0625 C9.515625,16.84375 10.109375,16.859375 10.5625,16.859375 C10.34375,16.53125 10.109375,16.109375 9.828125,15.609375 C9.265625,14.609375 8.59375,13.328125 7.859375,11.875 C7.109375,10.421875 6.359375,8.890625 5.609375,7.34375 L3.484375,3.015625 C3.171875,2.359375 2.875,1.765625 2.609375,1.25 C2.390625,0.828125 2.421875,0.59375 2.609375,0.3125 C2.765625,0.09375 3.03125,-0.265625 3.265625,-0.390625 C3.546875,-0.53125 3.84375,-0.390625 4.03125,0.21875 C4.53125,1.765625 5.125,3.421875 5.703125,4.875 C6.265625,6.3125 6.84375,7.5625 7.296875,8.3125 C7.546875,8.734375 7.75,9 7.953125,9.21875 C8.140625,9.453125 8.328125,9.625 8.5625,9.84375 C9.03125,10.265625 9.84375,10.84375 10.78125,11.40625 C11.71875,11.96875 12.78125,12.515625 13.78125,12.890625 C13.671875,12.609375 13.3125,12.078125 12.890625,11.515625 C12.453125,10.9375 11.953125,10.34375 11.5625,9.96875 C11.296875,9.6875 11.203125,9.5 11.265625,9.1875 C11.3125,8.875 11.5625,8.78125 11.9375,8.734375 C12.359375,8.6875 12.71875,8.65625 13.015625,8.453125 C13.0625,8.421875 13.125,8.375 13.203125,8.328125 C13.28125,8.28125 13.34375,8.21875 13.421875,8.15625 C13.546875,8.03125 13.65625,7.875 13.65625,7.671875 C13.65625,7.015625 13.53125,6.640625 13.34375,6.265625 C12.546875,6.3125 11.78125,6.265625 11.234375,6.125 C10.71875,5.984375 10.25,5.78125 9.921875,5.546875 C9.578125,5.3125 9.359375,5.0625 9.34375,4.828125 C9.3125,4.53125 9.484375,4.078125 9.9375,3.6875 C10.1875,3.46875 10.4375,3.328125 10.75,3.25 C11.046875,3.15625 11.40625,3.125 11.90625,3.125 C11.65625,2.84375 11.28125,2.5 10.890625,2.171875 C10.484375,1.84375 10.0625,1.53125 9.6875,1.296875 C9.359375,1.078125 9.21875,0.609375 9.359375,0.34375 C9.59375,-0.046875 10.015625,-0.21875 10.5625,-0.359375 C11,-0.46875 11.625,-0.53125 12.234375,-0.5625 C12.828125,-0.59375 13.390625,-0.59375 13.671875,-0.59375 C14.1875,-0.59375 14.8125,-0.5625 15.421875,-0.484375 C16.015625,-0.40625 16.59375,-0.3125 17.015625,-0.1875 C17.609375,-0.03125 17.984375,0.171875 18.234375,0.375 C18.484375,0.578125 18.59375,0.796875 18.671875,1.03125 C18.765625,1.3125 18.65625,1.609375 18.359375,1.90625 C18.171875,2.09375 18.046875,2.328125 17.953125,2.734375 C17.890625,2.984375 17.828125,3.46875 17.78125,4.078125 C17.734375,4.6875 17.703125,5.421875 17.703125,6.21875 L17.234375,6.390625 C17.171875,5.84375 17.109375,5.171875 17.078125,4.484375 C17.046875,3.78125 17,3.046875 17,2.421875 C16.984375,1.90625 16.953125,1.578125 16.875,1.359375 C16.8125,1.140625 16.671875,1.046875 16.46875,0.96875 C16.15625,0.828125 15.65625,0.75 15.140625,0.703125 C14.625,0.640625 14.09375,0.625 13.671875,0.625 C12.59375,0.625 11.5625,0.671875 10.953125,0.921875 C10.578125,1.0625 10.609375,1.34375 11.0625,1.609375 C11.25,1.71875 11.453125,1.84375 11.65625,1.96875 L12.53125,2.515625 C12.859375,2.71875 13.21875,2.984375 13.5625,3.265625 C13.890625,3.546875 14.1875,3.828125 14.375,4.0625 C14.703125,4.4375 14.9375,4.765625 14.9375,5.1875 C14.9375,5.375 14.84375,5.546875 14.75,5.703125 C14.640625,5.84375 14.515625,5.9375 14.40625,5.984375 C14.59375,6.265625 14.796875,6.609375 14.953125,6.953125 C15.109375,7.296875 15.21875,7.640625 15.21875,7.921875 C15.21875,8.59375 14.765625,9 13.921875,9.296875 C13.5625,9.421875 12.96875,9.546875 12.546875,9.640625 C12.453125,9.671875 12.40625,9.734375 12.40625,9.84375 C12.40625,9.953125 12.46875,10.046875 12.578125,10.125 C12.90625,10.375 13.484375,10.859375 14.046875,11.359375 C14.625,11.859375 15.21875,12.40625 15.59375,12.78125 C15.75,12.921875 15.78125,13.0625 15.78125,13.203125 C15.765625,13.328125 15.6875,13.4375 15.640625,13.53125 C15.5625,13.671875 15.40625,13.90625 15.1875,14.09375 C14.90625,14.328125 14.546875,14.390625 14.234375,14.203125 C14.09375,14.125 13.953125,14.046875 13.828125,13.96875 C13.578125,13.8125 13.296875,13.65625 12.84375,13.46875 C12.625,13.359375 12.359375,13.234375 12.09375,13.078125 C11.546875,12.765625 10.796875,12.28125 10.015625,11.734375 C9.21875,11.1875 8.40625,10.5625 7.765625,9.984375 C8.09375,10.703125 8.5625,11.625 9.078125,12.53125 C9.578125,13.421875 10.078125,14.3125 10.484375,14.9375 C10.921875,15.59375 11.40625,16.15625 11.8125,16.515625 C11.96875,16.65625 12.1875,16.828125 12.4375,16.984375 C12.671875,17.140625 12.921875,17.28125 13.203125,17.328125 C13.578125,17.421875 13.859375,17.53125 13.984375,17.65625 C14.109375,17.796875 14.1875,17.90625 14.1875,18 C14.1875,18.625 13.5625,18.78125 13.15625,18.84375 C12.765625,18.890625 12.4375,18.6875 12.0625,18.515625 C11.859375,18.421875 11.609375,18.34375 11.265625,18.265625 C11.09375,18.234375 10.953125,18.203125 10.8125,18.171875 C10.6875,18.125 10.5625,18.109375 10.4375,18.09375 C10.1875,18.046875 9.9375,18.03125 9.578125,18.03125 C9.078125,18.03125 8.46875,18.125 8.109375,18.34375 Z M18.296875,12.390625 C18.75,12.53125 19.078125,12.515625 19.46875,12.265625 C19.875,12 20.140625,11.359375 20.28125,10.5625 C20.34375,10.21875 20.515625,10 20.6875,9.875 C20.84375,9.734375 21.03125,9.6875 21.140625,9.71875 C21.5,9.796875 21.8125,10.15625 21.78125,10.8125 C21.765625,11.046875 21.671875,11.34375 21.546875,11.625 C21.4375,11.890625 21.265625,12.140625 21.125,12.296875 C20.890625,12.53125 20.6875,12.703125 20.453125,12.828125 C20.21875,12.96875 19.953125,13.0625 19.625,13.109375 C19.125,13.1875 18.59375,13.09375 18.078125,12.78125 Z M11.6875,3.84375 C11.09375,3.71875 10.78125,3.859375 10.46875,4.171875 C10.203125,4.4375 10.25,4.703125 10.46875,4.921875 C10.78125,5.234375 11.296875,5.46875 11.953125,5.46875 C12.40625,5.46875 12.859375,5.421875 13.125,5.328125 C12.859375,4.53125 12.390625,3.984375 11.6875,3.84375 Z" transform="translate(-0.1015625, 18.890625) scale(1, -1)"/>
</svg>