<svg height="20.875" viewBox="0 0 24 20.875" width="24" xmlns="http://www.w3.org/2000/svg">
<path d="M9.5,19.5625 C10.0625,18.578125 11.046875,17.890625 12.828125,17.765625 C12.40625,17.671875 11.875,17.546875 11.328125,17.40625 C10.765625,17.265625 10.171875,17.09375 9.640625,16.90625 L9.921875,16.421875 C10.859375,16.65625 11.859375,16.8125 12.71875,16.953125 C13.28125,17.03125 13.703125,17.046875 14.109375,17.09375 C14.40625,17.125 14.75,17.1875 14.9375,17.265625 C15.21875,17.390625 15.390625,17.546875 15.390625,17.734375 C15.390625,17.953125 15.3125,18.1875 15.125,18.390625 C14.796875,18.703125 14.40625,18.875 14.046875,18.828125 C13.90625,18.78125 13.53125,18.78125 13.34375,18.78125 C12.6875,18.78125 12.03125,18.78125 11.328125,19.015625 C11,19.109375 10.734375,19.203125 10.5,19.34375 C10.265625,19.484375 10.0625,19.65625 9.84375,19.90625 Z M7.859375,16.21875 C7.46875,16.125 7.109375,15.890625 6.890625,15.625 C6.671875,15.359375 6.59375,15.125 6.59375,14.796875 C6.59375,14.359375 6.875,14 7.203125,13.765625 C7.46875,13.578125 7.8125,13.421875 8.28125,13.328125 C8.75,13.21875 9.359375,13.171875 10.15625,13.171875 C11.46875,13.171875 12.921875,13.4375 14.609375,13.8125 C15.140625,13.90625 15.671875,14.078125 16.109375,14.234375 C16.5625,14.375 16.9375,14.53125 17.1875,14.65625 C17.640625,14.890625 17.796875,15.125 17.796875,15.359375 C17.796875,15.53125 17.71875,15.671875 17.578125,15.78125 C17.28125,15.984375 16.859375,16.078125 16.53125,16.046875 C16.1875,16 16,15.875 15.640625,15.6875 C15.453125,15.578125 15.265625,15.5 15.078125,15.40625 C14.796875,15.3125 14.359375,15.15625 13.765625,14.96875 C12.59375,14.59375 10.953125,14.34375 9.96875,14.359375 C8.984375,14.375 8.234375,14.453125 7.90625,14.703125 C7.734375,14.828125 7.65625,14.96875 7.65625,15.125 C7.65625,15.40625 7.828125,15.625 8.109375,15.890625 Z M10.25,12.296875 C9.875,12.140625 9.5,11.8125 9.234375,11.359375 C9.109375,11.140625 9.046875,10.828125 9.046875,10.5625 C9.046875,10.328125 9.234375,10.015625 9.453125,9.890625 C9.6875,9.765625 9.921875,9.6875 10.375,9.640625 C10.703125,9.609375 11.109375,9.59375 11.453125,9.59375 C11.140625,9.265625 11,8.84375 11,8.46875 C11,8.0625 11.15625,7.875 11.40625,7.703125 C11.84375,7.390625 12.359375,7.25 12.9375,7.0625 C13.234375,6.953125 13.53125,6.828125 13.859375,6.640625 C14.078125,6.53125 14.234375,6.46875 14.234375,6.421875 C14.234375,6.359375 14.140625,6.359375 13.765625,6.359375 C13.34375,6.359375 12.84375,6.328125 11.953125,6.140625 C11.5,6.046875 10.890625,5.890625 10.25,5.703125 C9.625,5.515625 8.953125,5.296875 8.421875,5.0625 C7.671875,4.71875 6.859375,4.21875 6.25,3.671875 C5.625,3.109375 5.1875,2.5 5.234375,1.953125 C5.234375,1.578125 5.3125,1.25 5.484375,0.9375 C5.65625,0.640625 5.953125,0.359375 6.4375,0.09375 C7,-0.21875 7.734375,-0.453125 8.5625,-0.640625 C9.40625,-0.8125 10.328125,-0.90625 11.265625,-0.921875 C13.609375,-0.96875 15.484375,-0.84375 16.703125,-0.625 C17.59375,-0.46875 18.03125,-0.34375 18.359375,-0.171875 C18.921875,0.125 19.125,0.453125 19.125,0.78125 C19.125,1.0625 18.890625,1.1875 18.5,1.21875 C18.09375,1.25 17.71875,1.203125 17.3125,1.109375 C16.953125,1.015625 16.609375,0.9375 16.15625,0.84375 C15.671875,0.734375 14.890625,0.640625 14.140625,0.578125 C12.8125,0.484375 11.8125,0.4375 10.96875,0.484375 C10.171875,0.53125 9.421875,0.609375 8.796875,0.71875 C8.15625,0.8125 7.625,0.921875 7.34375,1.03125 C6.875,1.21875 6.59375,1.375 6.40625,1.53125 C6.234375,1.671875 6.1875,1.828125 6.1875,2.015625 C6.1875,2.5 6.609375,2.984375 7.15625,3.40625 C7.71875,3.8125 8.375,4.140625 8.84375,4.375 C9.171875,4.53125 9.640625,4.703125 10.15625,4.859375 C10.671875,5 11.234375,5.09375 11.796875,5.1875 C12.3125,5.234375 12.84375,5.28125 13.328125,5.296875 C13.796875,5.296875 14.203125,5.28125 14.46875,5.265625 C14.5625,5.25 14.65625,5.25 14.75,5.234375 L15.09375,5.203125 C15.3125,5.1875 15.546875,5.140625 15.71875,5.109375 C15.96875,5.0625 16.296875,5.140625 16.46875,5.359375 C16.609375,5.546875 16.671875,5.78125 16.703125,6.046875 C16.734375,6.3125 16.609375,6.59375 16.25,6.828125 C15.921875,7.015625 15.6875,7.140625 15.40625,7.25 C15.125,7.375 14.8125,7.453125 14.375,7.578125 C13.921875,7.71875 13.375,7.84375 12.84375,7.96875 C12.578125,8.03125 12.390625,8.109375 12.265625,8.21875 C12.15625,8.3125 12.09375,8.421875 12.09375,8.515625 C12.09375,8.859375 12.359375,9.234375 12.796875,9.59375 C13.171875,9.921875 13.671875,10.203125 13.953125,10.328125 C14.171875,10.421875 14.328125,10.5625 14.328125,10.8125 C14.328125,10.984375 14.1875,11.171875 13.96875,11.28125 C13.75,11.375 13.46875,11.421875 13.203125,11.3125 C13.015625,11.234375 12.765625,11.140625 12.46875,11.046875 C11.859375,10.859375 10.9375,10.765625 10.515625,10.921875 C10.15625,11.0625 10.109375,11.1875 10.109375,11.375 C10.109375,11.609375 10.296875,11.84375 10.578125,12.03125 Z" transform="translate(-0.15625, 19.90625) scale(1, -1)"/>
</svg>