<svg height="24" viewBox="0 0 24 24" width="24" xmlns="http://www.w3.org/2000/svg">
<path d="M3.96875,16.15625 C4.328125,15.5 4.8125,14.90625 5.3125,14.40625 C5.78125,13.9375 6.1875,13.65625 6.75,13.5625 C7.296875,13.453125 8,13.53125 9.078125,13.78125 C9.671875,13.921875 10.453125,14.09375 11.265625,14.25 C12.078125,14.421875 12.921875,14.5625 13.625,14.6875 C14.328125,14.8125 14.921875,14.90625 15.234375,14.953125 C15.9375,15.0625 16.859375,15.15625 17.5625,15.1875 C17.09375,14.875 16.515625,14.375 16,13.859375 C15.484375,13.34375 15,12.78125 14.703125,12.34375 C14.515625,12.0625 14.40625,11.703125 14.421875,11.296875 C14.453125,10.90625 14.609375,10.484375 15,10.109375 C16.328125,8.84375 16.8125,7.625 16.8125,6.4375 C16.8125,5.375 16.4375,4.609375 15.875,4.109375 C15.328125,3.59375 14.625,3.359375 13.96875,3.359375 C12.1875,3.359375 10.828125,4.328125 9.984375,5.8125 C10.875,7.140625 11.40625,8.328125 11.6875,9.078125 C11.828125,9.4375 12.03125,9.9375 12.03125,10.296875 C12.03125,10.78125 11.84375,11.21875 11.3125,11.453125 C10.71875,11.71875 10.078125,11.71875 9.5,11.6875 L9.3125,11.046875 C10.390625,11.125 10.65625,10.671875 10.375,9.734375 C10.21875,9.21875 9.984375,8.5625 9.671875,7.859375 C9.359375,7.15625 8.96875,6.421875 8.5,5.734375 C7.28125,3.9375 5.875,2.546875 4.21875,1.328125 L4.828125,0.78125 C6.84375,2 8.359375,3.59375 9.53125,5.15625 C9.96875,4.359375 10.546875,3.640625 11.296875,3.109375 C12.046875,2.5625 12.953125,2.234375 14.0625,2.234375 C15.09375,2.234375 16.203125,2.53125 17.046875,3.21875 C17.890625,3.921875 18.484375,4.96875 18.484375,6.453125 C18.484375,7.390625 18.25,8.109375 17.78125,8.765625 C17.3125,9.40625 16.625,9.96875 15.6875,10.578125 C15.125,10.96875 15.234375,11.453125 15.734375,12.171875 C15.921875,12.4375 16.203125,12.75 16.53125,13.0625 C16.84375,13.390625 17.1875,13.671875 17.46875,13.859375 C18.1875,14.3125 18.921875,14.75 19.34375,14.796875 C20.0625,14.875 20.453125,15.03125 20.453125,15.484375 C20.453125,15.78125 20.3125,16 19.90625,16.171875 C19.375,16.390625 18.640625,16.46875 17.46875,16.25 C15.96875,15.96875 14.1875,15.6875 12.515625,15.484375 C10.859375,15.265625 9.3125,15.078125 8.328125,15.03125 C7.296875,14.9375 6.546875,15.078125 5.9375,15.359375 C5.328125,15.640625 4.890625,16.078125 4.46875,16.609375 Z" transform="translate(-0.2109375, 16.609375) scale(1, -1)"/>
</svg>