<svg height="20.5" viewBox="0 0 24 20.5" width="24" xmlns="http://www.w3.org/2000/svg">
<path d="M10.78125,18.1875 C11.875,18.109375 12.3125,17.671875 12.265625,16.578125 C12.234375,15.828125 12.140625,15.03125 12.046875,14.265625 C10.15625,13.859375 8.25,12.9375 6.5,11.5625 C6.078125,12.453125 5.59375,13.34375 5.0625,14.234375 C4.609375,15.015625 3.8125,15.453125 2.984375,15.625 L2.65625,15.09375 C3.3125,14.90625 3.859375,14.5 4.21875,13.78125 C4.703125,12.828125 5.15625,11.8125 5.59375,10.828125 C4.671875,9.96875 3.90625,8.921875 3.375,7.859375 C2.84375,6.78125 2.53125,5.703125 2.5,4.765625 C2.453125,3.453125 2.671875,2.578125 3.078125,2.03125 C3.5,1.46875 4.0625,1.25 4.71875,1.25 C6.046875,1.25 7.40625,1.875 8.734375,3.390625 C9.1875,2.796875 9.671875,2.515625 9.96875,2.515625 C10.296875,2.515625 10.640625,2.703125 10.609375,3.125 C10.578125,3.453125 10.4375,3.71875 10.203125,4.015625 C10.015625,4.25 9.875,4.4375 9.6875,4.671875 C10.71875,6.21875 11.5,7.8125 12.109375,9.34375 C12.703125,10.859375 13.109375,12.328125 13.375,13.65625 C13.78125,13.703125 14.1875,13.71875 14.609375,13.71875 C15.828125,13.71875 17,13.265625 17.875,12.4375 C18.75,11.609375 19.328125,10.421875 19.328125,8.984375 C19.328125,7.5625 19.078125,6.34375 18.71875,5.359375 C17.875,5.71875 16.859375,5.921875 15.671875,5.953125 C14.703125,5.96875 13.8125,5.734375 13.15625,5.3125 C12.515625,4.875 12.125,4.265625 12.125,3.546875 C12.125,2.890625 12.375,2.3125 12.875,1.90625 C13.390625,1.484375 14.125,1.25 15.078125,1.25 C16.859375,1.25 18.3125,2.140625 19.34375,3.59375 C19.84375,3.171875 20.09375,2.734375 20.09375,2.265625 C20.09375,0.84375 19,-0.265625 16.8125,-1.078125 L17.28125,-1.671875 C20.0625,-0.828125 21.578125,0.515625 21.578125,2.265625 C21.578125,3.0625 21.03125,3.96875 20,4.671875 C20.5625,5.90625 20.890625,7.296875 20.890625,8.859375 C20.890625,10.515625 20.28125,11.890625 19.234375,12.875 C18.1875,13.859375 16.703125,14.453125 14.953125,14.546875 C14.5,14.578125 14.015625,14.546875 13.53125,14.5 C13.625,14.890625 13.671875,15.359375 13.765625,15.9375 C13.953125,17.390625 13.625,18.171875 12.921875,18.484375 C12.484375,18.671875 11.859375,18.828125 11.0625,18.828125 Z M11.90625,13.390625 C11.421875,10.78125 10.515625,8.34375 9.09375,5.765625 C8.828125,6.3125 8.5625,6.875 8.28125,7.5 C8.015625,8.125 7.734375,8.765625 7.4375,9.453125 C7.265625,9.84375 7.109375,10.25 6.921875,10.625 C8.5625,12.09375 10.15625,12.96875 11.90625,13.390625 Z M6.03125,9.78125 C6.203125,9.3125 6.359375,8.890625 6.5,8.453125 C7.078125,6.671875 7.609375,5.375 8.1875,4.296875 C7.15625,3.03125 6.125,2.578125 5.140625,2.609375 C4.65625,2.625 4.34375,2.84375 4.15625,3.234375 C3.96875,3.609375 3.921875,4.15625 3.921875,4.828125 C3.921875,5.578125 4.125,6.453125 4.5,7.34375 C4.875,8.21875 5.40625,9.078125 6.03125,9.78125 Z M15.546875,5.015625 C16.484375,5.015625 17.4375,4.765625 18.234375,4.375 C17.421875,2.953125 16.25,2.1875 15.03125,2.1875 C14.328125,2.1875 13.859375,2.34375 13.5625,2.59375 C13.25,2.84375 13.125,3.203125 13.125,3.578125 C13.125,4.515625 14.09375,5.015625 15.546875,5.015625 Z" transform="translate(-0.015625, 18.828125) scale(1, -1)"/>
</svg>