<svg height="21.671875" viewBox="0 0 24 21.671875" width="24" xmlns="http://www.w3.org/2000/svg">
<path d="M9.78125,19.21875 C10.015625,19.046875 10.296875,18.796875 10.484375,18.53125 C10.765625,18.140625 11.015625,17.609375 11.015625,16.8125 C11.015625,16.484375 11,16.0625 10.984375,15.609375 C10.953125,15.171875 10.890625,14.703125 10.828125,14.359375 C10.71875,13.8125 10.5625,13.015625 10.390625,12.1875 C10.203125,11.359375 10.015625,10.5 9.890625,9.796875 C9.71875,8.90625 9.59375,8.265625 9.515625,7.703125 C9.4375,7.140625 9.390625,6.671875 9.390625,6.140625 C9.390625,4.828125 9.65625,3.171875 10.4375,1.515625 C10.765625,0.859375 11.109375,0.1875 11.484375,-0.421875 C11.84375,-1.03125 12.21875,-1.578125 12.546875,-1.96875 L13.078125,-1.609375 C12.75,-1.03125 12.453125,-0.40625 12.203125,0.21875 C11.9375,0.828125 11.71875,1.390625 11.5625,1.875 C11.375,2.4375 11.203125,3.171875 11.078125,3.9375 C10.9375,4.703125 10.859375,5.5 10.859375,6.1875 C10.859375,7.1875 11,8.5 11.21875,9.765625 C11.421875,11.015625 11.703125,12.25 11.953125,13.109375 C12.109375,13.625 12.21875,14 12.3125,14.3125 C12.390625,14.609375 12.453125,14.84375 12.5,15.125 C12.59375,15.53125 12.640625,16.015625 12.640625,16.484375 C12.640625,17.1875 12.359375,17.84375 11.765625,18.484375 C11.28125,18.984375 10.625,19.484375 10.15625,19.703125 Z" transform="translate(0.765625, 19.703125) scale(1, -1)"/>
</svg>