<svg height="24" viewBox="0 0 24 24" width="24" xmlns="http://www.w3.org/2000/svg">
<path d="M6.640625,15.5 C7.296875,14.671875 8.296875,14.125 9.890625,13.96875 C11.21875,13.84375 12.71875,13.90625 14.09375,14.140625 C13.71875,13.859375 13.203125,13.453125 12.6875,13.015625 C12.171875,12.59375 11.609375,12.09375 11.140625,11.65625 L11.640625,11.234375 C11.90625,11.421875 12.1875,11.640625 12.484375,11.84375 C13.0625,12.265625 13.671875,12.6875 14.25,13.078125 L15.078125,13.625 C15.5,13.921875 15.84375,14.078125 16.375,14.234375 C16.765625,14.328125 17,14.421875 17.140625,14.515625 C17.28125,14.625 17.296875,14.75 17.28125,14.984375 C17.25,15.3125 17.046875,15.546875 16.765625,15.6875 C16.484375,15.828125 16.15625,15.890625 15.921875,15.890625 C15.4375,15.890625 14.65625,15.6875 13.8125,15.453125 C13.34375,15.328125 12.6875,15.234375 11.984375,15.1875 C11.296875,15.125 10.578125,15.09375 10.0625,15.09375 C8.890625,15.09375 7.90625,15.328125 7.015625,15.984375 Z M6.671875,5.84375 C6.53125,5.703125 6.3125,5.5 6.125,5.28125 C5.921875,5.078125 5.71875,4.859375 5.59375,4.765625 C5.375,4.5625 5.203125,4.359375 5.0625,4.15625 C4.765625,3.765625 4.421875,3.25 4.515625,2.84375 C4.578125,2.59375 4.703125,2.421875 4.953125,2.1875 C5.140625,2 5.46875,1.890625 5.859375,2.015625 C6.984375,2.359375 8.0625,2.640625 9.21875,2.84375 C10.359375,3.03125 11.578125,3.125 12.984375,3.171875 C14.734375,3.203125 16.375,2.953125 17.9375,2.5 C18.6875,2.28125 19.078125,2.328125 19.28125,2.640625 C19.46875,2.953125 19.296875,3.28125 18.9375,3.59375 C18.59375,3.890625 17.890625,4.125 17.09375,4.28125 C16.484375,4.390625 15.765625,4.453125 14.984375,4.484375 C14.1875,4.5 13.34375,4.484375 12.53125,4.46875 C11.96875,4.453125 11.25,4.390625 10.484375,4.3125 C9.703125,4.234375 8.890625,4.140625 8.1875,4.03125 C7.46875,3.921875 6.859375,3.796875 6.484375,3.6875 C6.21875,3.609375 6.140625,3.78125 6.265625,4.015625 C6.5,4.421875 6.828125,4.921875 7.203125,5.375 Z" transform="translate(0.0546875, 15.984375) scale(1, -1)"/>
</svg>