<svg height="20.78125" viewBox="0 0 24 20.78125" width="24" xmlns="http://www.w3.org/2000/svg">
<path d="M10.375,19.0625 C10.78125,18.921875 11.1875,18.71875 11.515625,18.5 C11.84375,18.265625 12.09375,18.046875 12.1875,17.90625 C12.21875,17.84375 12.265625,17.796875 12.265625,17.75 C12.3125,17.671875 12.265625,17.609375 12.125,17.546875 C12.03125,17.515625 11.9375,17.46875 11.796875,17.421875 C11.4375,17.328125 11.09375,17.203125 10.71875,17.09375 C10.359375,16.984375 9.9375,16.859375 9.4375,16.71875 L9.671875,16.171875 C11.046875,16.4375 12,16.53125 12.484375,16.53125 C12.96875,16.53125 13.296875,16.546875 13.625,16.421875 C13.765625,16.375 14.140625,16.375 14.328125,16.46875 C14.515625,16.5625 14.703125,16.71875 14.703125,17.046875 C14.703125,17.34375 14.609375,17.609375 14.40625,17.84375 C14.078125,18.21875 13.609375,18.453125 13.078125,18.71875 C12.203125,19.15625 11.5,19.3125 10.65625,19.53125 Z M14.1875,15.625 C13.953125,15.625 13.578125,15.640625 13.0625,15.3125 C12.78125,15.140625 12.1875,14.84375 11.46875,14.59375 C10.8125,14.359375 10,14.09375 9.28125,13.90625 C8.5625,13.703125 7.921875,13.546875 7.5625,13.515625 C6.75,13.4375 6.078125,13.8125 5.65625,14.65625 L5.109375,14.375 C5.28125,13.765625 5.5,13.25 5.8125,12.828125 C6.359375,12.078125 7.03125,11.921875 7.828125,12.1875 C8.671875,12.484375 9.40625,12.796875 9.71875,12.9375 C10.75,13.390625 11.59375,13.703125 12.484375,14.015625 C11.984375,13.53125 11.453125,13 10.90625,12.375 C9.78125,11.140625 8.640625,9.734375 7.484375,8.265625 C6.34375,6.796875 5.25,5.375 4.296875,4.109375 C3.8125,3.453125 3.359375,2.890625 2.984375,2.375 C2.515625,1.78125 2.453125,1.34375 2.453125,1.03125 C2.453125,0.640625 2.546875,0.1875 2.640625,0 C2.765625,-0.234375 3.140625,-0.296875 3.453125,0.078125 C3.546875,0.171875 3.703125,0.421875 3.890625,0.71875 C4.078125,1 4.28125,1.34375 4.46875,1.671875 C4.625,1.953125 4.953125,2.46875 5.375,3.09375 C5.78125,3.71875 6.296875,4.4375 6.828125,5.140625 C7.34375,5.828125 7.90625,6.453125 8.40625,6.921875 C9.125,7.578125 9.890625,8.015625 10.46875,8.375 C11.140625,8.796875 12.046875,9.234375 12.9375,9.53125 C12.921875,9.40625 12.921875,9.28125 12.921875,9.140625 L12.921875,8.703125 C12.921875,8.25 13.015625,7.953125 13.1875,7.75 C13.34375,7.546875 13.578125,7.4375 13.8125,7.390625 C14.28125,7.3125 14.59375,7.109375 14.8125,6.796875 C14.984375,6.546875 15.046875,6.09375 15.046875,5.65625 C15.046875,4.625 14.859375,3.890625 14.5625,3.484375 C13.90625,3.671875 13.03125,3.734375 12.234375,3.6875 C10.578125,3.640625 9.40625,3.28125 8.515625,2.5625 C7.96875,2.109375 7.765625,1.703125 7.765625,1.125 C7.765625,0.546875 7.96875,0.09375 8.59375,-0.265625 C9.296875,-0.6875 10.171875,-0.6875 11.0625,-0.546875 C12.296875,-0.359375 13.078125,0.03125 13.671875,0.390625 C14.375,0.8125 15.03125,1.421875 15.484375,2.046875 C16.46875,1.625 17.453125,1.0625 18.171875,0.546875 C18.875,0.078125 19.3125,-0.390625 19.71875,-0.84375 C19.90625,-1.046875 20.171875,-1.1875 20.40625,-1.21875 C20.640625,-1.25 20.859375,-1.1875 21,-0.96875 C21.203125,-0.640625 21.203125,-0.203125 20.890625,0.21875 C20.6875,0.484375 20.28125,0.921875 19.53125,1.375 C18.359375,2.09375 17.140625,2.65625 15.96875,3.046875 C16.296875,3.625 16.46875,4.40625 16.421875,5.203125 C16.375,6.046875 16.1875,6.53125 15.984375,6.84375 C15.71875,7.25 15.25,7.578125 14.765625,7.703125 C14.265625,7.828125 14.203125,8.203125 14.265625,8.90625 C14.28125,9.015625 14.28125,9.15625 14.28125,9.3125 C14.296875,9.453125 14.3125,9.640625 14.328125,9.84375 C15.9375,10.03125 17.203125,10.0625 18,9.9375 C18.703125,9.828125 19.21875,9.71875 19.4375,9.984375 C19.59375,10.203125 19.671875,10.578125 19.203125,10.859375 C18.828125,11.078125 18.078125,11.15625 17.1875,11.15625 C16.203125,11.15625 15.25,11.046875 14.453125,10.875 L14.53125,11.203125 C14.5625,11.328125 14.609375,11.46875 14.640625,11.5625 C14.78125,11.984375 14.984375,12.1875 15.53125,12.046875 L15.671875,12.578125 C15.359375,12.78125 15,12.796875 14.59375,12.71875 C14.203125,12.640625 13.78125,12.34375 13.46875,11.6875 C13.3125,11.375 13.171875,11.015625 13.078125,10.515625 C12.4375,10.3125 11.75,10.0625 11,9.6875 C10.234375,9.3125 9.40625,8.84375 8.5,8.203125 C10.34375,10.484375 11.703125,11.953125 12.78125,12.890625 C13.578125,13.609375 14.15625,13.96875 14.859375,14.203125 C15.21875,14.328125 15.40625,14.515625 15.40625,14.765625 C15.40625,14.984375 15.25,15.21875 15.03125,15.359375 C14.703125,15.59375 14.453125,15.625 14.1875,15.625 Z M14.09375,2.46875 C13.765625,1.90625 13.265625,1.390625 12.59375,1 C11.90625,0.609375 11.046875,0.328125 10.0625,0.265625 C9.171875,0.21875 8.609375,0.59375 8.609375,1.109375 C8.609375,1.578125 8.84375,1.90625 9.390625,2.1875 C9.9375,2.46875 10.828125,2.640625 12.09375,2.734375 C12.796875,2.796875 13.5625,2.65625 14.09375,2.46875 Z" transform="translate(0.171875, 19.53125) scale(1, -1)"/>
</svg>