<svg height="24" viewBox="0 0 24 24" width="24" xmlns="http://www.w3.org/2000/svg">
<path d="M4.21875,13.671875 C4.875,13.25 5.078125,12.734375 5.109375,12.078125 C5.171875,10.90625 5,9.671875 4.671875,8.46875 C4.34375,7.25 3.84375,6.09375 3.234375,5.109375 C3.03125,4.78125 2.890625,4.53125 2.8125,4.25 C2.734375,3.984375 2.703125,3.703125 2.703125,3.359375 C2.71875,2.9375 2.796875,2.65625 2.890625,2.46875 C3,2.296875 3.140625,2.203125 3.3125,2.203125 C3.875,2.203125 4.25,2.875 4.625,3.78125 C5.140625,5 5.734375,5.984375 6.546875,7.015625 C7.34375,8.046875 8.375,9.125 9.796875,10.53125 C11.3125,12.046875 12.9375,12.84375 14.40625,12.84375 C15.046875,12.84375 15.734375,12.578125 16.34375,12.125 C16.96875,11.65625 17.515625,11.015625 17.9375,10.28125 C18.828125,8.671875 19.4375,6.59375 19.515625,4.375 C19.53125,3.796875 19.609375,3.4375 19.734375,3.21875 C19.859375,2.984375 20.0625,2.90625 20.3125,2.90625 C20.640625,2.90625 20.875,3.125 21.015625,3.421875 C21.15625,3.734375 21.21875,4.109375 21.21875,4.484375 C21.21875,5.4375 21,6.5 20.671875,7.53125 C20.34375,8.546875 19.90625,9.5 19.4375,10.28125 C18.125,12.5 16.34375,13.578125 14.5,13.578125 C12.796875,13.578125 11.03125,12.859375 9.1875,11.15625 C8.59375,10.609375 7.921875,9.96875 7.296875,9.3125 C6.65625,8.65625 6.046875,8 5.609375,7.421875 C6,8.6875 6.203125,9.8125 6.25,10.734375 C6.296875,11.65625 6.1875,12.375 6,12.84375 C5.75,13.46875 5.265625,13.859375 4.5625,14.140625 Z" transform="translate(0.0390625, 14.140625) scale(1, -1)"/>
</svg>