<svg height="20.90625" viewBox="0 0 24 20.90625" width="24" xmlns="http://www.w3.org/2000/svg">
<path d="M6.453125,18.875 C7.484375,18.71875 7.875,18.390625 7.65625,17.734375 C7.53125,17.375 7.390625,17 7.21875,16.578125 C6.5625,16.40625 5.9375,16.203125 5.40625,16.03125 C5.015625,15.90625 4.53125,15.90625 4.21875,16.125 C3.9375,16.328125 3.640625,16.625 3.40625,17 L2.890625,16.65625 C3,16.328125 3.125,16.046875 3.265625,15.796875 C3.515625,15.3125 3.9375,14.625 4.703125,14.6875 C5.078125,14.71875 5.25,14.796875 5.703125,14.984375 C6.078125,15.109375 6.40625,15.234375 6.671875,15.34375 C6.3125,14.546875 5.890625,13.8125 5.5625,13.328125 C5.515625,13.234375 5.4375,13.140625 5.375,13.03125 L5.15625,12.734375 C5.015625,12.53125 4.875,12.34375 4.78125,12.234375 C4.578125,12.015625 4.328125,11.75 4.203125,11.5 C4.09375,11.28125 4.015625,11.046875 4.015625,10.78125 C4.015625,10.515625 4.109375,10.296875 4.28125,10.171875 C4.46875,10.03125 4.625,10.0625 4.953125,10.28125 C5.046875,10.34375 5.203125,10.53125 5.359375,10.75 C5.515625,10.953125 5.671875,11.1875 5.765625,11.375 L6.1875,12.171875 C6.6875,11.84375 7.15625,11.375 7.34375,11.140625 C7.40625,11.0625 7.46875,10.984375 7.53125,10.875 C7.578125,10.765625 7.625,10.65625 7.703125,10.515625 C7.953125,10.0625 8.3125,10.078125 8.8125,10.328125 C9.15625,10.5 9.390625,10.65625 9.78125,11.0625 C10.328125,11.640625 10.765625,12.375 11.046875,13.125 C11.328125,13.875 11.5,14.65625 11.5,15.34375 C11.5,16.046875 11.21875,16.578125 10.78125,16.859375 C10.484375,17.03125 10.171875,17.09375 9.671875,17.09375 C9.390625,17.09375 9,17.015625 8.5625,16.921875 L9.09375,18.078125 C9.3125,18.546875 9.125,18.953125 8.640625,19.125 C7.984375,19.359375 7.4375,19.421875 6.640625,19.375 Z M18.296875,17.640625 C17.8125,17.640625 17.203125,17.453125 16.625,17.140625 C16.0625,16.8125 15.484375,16.359375 15.078125,15.84375 C14.890625,16.1875 14.765625,16.46875 14.609375,16.671875 C14.46875,16.859375 14.28125,17.015625 14,17.109375 C13.421875,17.3125 12.875,17.0625 12.546875,16.65625 L12.921875,16.296875 C13.078125,16.4375 13.25,16.484375 13.421875,16.421875 C13.75,16.28125 13.859375,15.59375 13.96875,15.09375 C14.09375,14.59375 14.3125,13.953125 14.796875,13.953125 C15.078125,13.953125 15.328125,14.1875 15.53125,14.640625 C15.84375,15.34375 16.296875,15.921875 16.78125,16.34375 C17.265625,16.765625 17.765625,17 18.140625,17 C18.6875,17 18.96875,16.578125 18.96875,15.875 C18.96875,15.578125 18.890625,15.3125 18.734375,15.046875 C18.4375,14.515625 17.5625,14.046875 16.625,13.4375 C16.15625,13.125 15.6875,12.828125 15.203125,12.5 C14.234375,11.875 13.265625,11.21875 12.40625,10.5625 C12.078125,10.3125 11.75,10.0625 11.515625,9.828125 C11.28125,9.59375 11.140625,9.34375 11.140625,9.140625 C11.140625,8.8125 11.296875,8.484375 11.609375,8.3125 C11.9375,8.140625 12.34375,8 12.796875,7.859375 C13.15625,7.71875 13.15625,7.625 13.03125,7.4375 C12.8125,7.109375 12.640625,6.78125 12.453125,6.265625 C12.375,6.078125 12.3125,5.75 12.390625,5.546875 C12.5,5.28125 12.640625,5.015625 12.875,4.921875 C13.15625,4.796875 13.4375,4.828125 13.828125,4.96875 C14.234375,5.125 14.703125,5.1875 15.21875,5.1875 C15.875,5.1875 16.46875,5.015625 16.875,4.640625 C17.28125,4.25 17.515625,3.640625 17.515625,2.796875 C17.515625,1.140625 16.234375,-0.03125 13.5625,-0.484375 C12.609375,1.734375 11,2.84375 9.21875,2.84375 C8.453125,2.84375 7.765625,2.640625 7.28125,2.3125 C6.796875,1.96875 6.5,1.484375 6.53125,0.921875 C6.546875,0.265625 6.953125,-0.34375 7.859375,-0.78125 C8.75,-1.203125 10.15625,-1.484375 12.21875,-1.484375 C14.453125,-1.484375 16.1875,-1.078125 17.375,-0.328125 C18.546875,0.421875 19.171875,1.515625 19.171875,2.890625 C19.171875,3.78125 18.78125,4.5625 18.078125,5.09375 C17.375,5.609375 16.375,5.9375 15.1875,5.9375 C14.59375,5.9375 14.0625,5.875 13.609375,5.8125 C13.390625,5.78125 13.34375,5.90625 13.4375,6.09375 C13.625,6.40625 13.96875,6.78125 14.28125,7.109375 C14.703125,7.53125 15.015625,7.875 14.84375,8.3125 C14.65625,8.71875 14.453125,8.890625 13.953125,8.953125 C13.53125,9 13.03125,9.09375 12.59375,9.234375 C12.28125,9.328125 12.3125,9.671875 12.671875,9.9375 C14.5625,11.3125 16.625,12.5 18.828125,13.671875 C19.484375,14.046875 19.90625,14.359375 20.140625,14.703125 C20.375,15.0625 20.46875,15.4375 20.46875,15.9375 C20.46875,16.34375 20.28125,16.765625 19.921875,17.09375 C19.546875,17.421875 19.015625,17.640625 18.296875,17.640625 Z M9.53125,16.328125 C10.03125,16.328125 10.171875,16.03125 10.171875,15.40625 C10.171875,14.796875 9.984375,14.15625 9.734375,13.578125 C9.5,12.984375 9.171875,12.453125 8.890625,12.125 C8.703125,11.890625 8.546875,11.796875 8.390625,11.796875 C8.234375,11.78125 8.078125,11.828125 7.921875,11.90625 C7.46875,12.125 6.890625,12.40625 6.4375,12.671875 C6.78125,13.34375 7.078125,13.9375 7.34375,14.46875 L8.09375,15.9375 C8.640625,16.171875 9.125,16.328125 9.53125,16.328125 Z M9.125,1.765625 C9.6875,1.765625 10.328125,1.546875 10.9375,1.15625 C11.53125,0.75 12.078125,0.140625 12.484375,-0.625 C11.140625,-0.765625 9.90625,-0.609375 8.984375,-0.3125 C8.078125,0 7.484375,0.453125 7.484375,0.921875 C7.484375,1.515625 7.953125,1.765625 9.125,1.765625 Z" transform="translate(0.3203125, 19.421875) scale(1, -1)"/>
</svg>