<svg height="20.4375" viewBox="0 0 24 20.4375" width="24" xmlns="http://www.w3.org/2000/svg">
<path d="M9,18.921875 C9.34375,18.78125 9.6875,18.53125 9.96875,18.296875 C10.234375,18.046875 10.4375,17.796875 10.515625,17.609375 C10.671875,17.28125 10.765625,16.875 10.8125,16.390625 C9.546875,15.84375 8.421875,15.3125 7.296875,14.765625 C6.6875,14.46875 6.171875,14.3125 5.78125,14.296875 C5.375,14.28125 5.109375,14.34375 4.96875,14.5 C4.703125,14.796875 4.53125,15.03125 4.390625,15.59375 L3.828125,15.34375 C3.921875,14.484375 4.03125,13.859375 4.46875,13.25 C4.796875,12.765625 5.015625,12.640625 5.5,12.640625 C5.65625,12.640625 5.8125,12.6875 5.984375,12.765625 C6.3125,12.90625 6.75,13.203125 7.109375,13.4375 C7.28125,13.546875 7.453125,13.65625 7.625,13.765625 C8.703125,13.15625 9.5,12.546875 9.890625,11.796875 C10.109375,11.359375 10.203125,11.1875 10.4375,11.1875 C9.359375,10.296875 8.328125,9.5 7.4375,9.078125 C7.15625,8.921875 6.953125,8.796875 6.84375,8.65625 C6.734375,8.53125 6.6875,8.40625 6.640625,8.28125 C6.546875,7.921875 6.453125,7.609375 6.53125,7.328125 C6.578125,7.140625 6.734375,7.046875 6.90625,7.046875 C7.0625,7.03125 7.25,7.09375 7.375,7.21875 C7.515625,7.375 7.703125,7.53125 7.953125,7.71875 C8.421875,8.0625 8.984375,8.421875 9.515625,8.71875 C9.78125,8.875 10.015625,9 10.21875,9.125 C10.921875,9.5 11.734375,9.828125 12.484375,10.046875 C13.234375,10.265625 13.9375,10.375 14.40625,10.375 C15.671875,10.375 16.671875,10.015625 17.3125,9.078125 C17.46875,8.84375 17.65625,8.46875 17.796875,7.953125 C17.9375,7.4375 18.03125,6.78125 18.03125,5.9375 C18.03125,4.859375 17.921875,3.859375 17.65625,2.96875 C17.375,2.0625 16.921875,1.296875 16.21875,0.6875 C15.5625,0.140625 14.84375,-0.078125 14.046875,-0.125 C13.53125,-0.15625 12.84375,-0.03125 12.09375,0.234375 C13.234375,1.921875 13.609375,3.59375 13.65625,5.203125 C13.90625,5.203125 14.203125,5.1875 14.484375,5.1875 C14.75,5.1875 15,5.140625 15.140625,5.140625 C15.515625,5.078125 15.8125,5.078125 16.015625,5.140625 C16.203125,5.1875 16.296875,5.296875 16.296875,5.46875 C16.296875,5.859375 16.125,6.171875 15.734375,6.265625 C15.125,6.453125 14.28125,6.453125 13.578125,6.359375 C13.53125,6.6875 13.5,6.96875 13.421875,7.25 C13.328125,7.578125 13.09375,7.8125 12.78125,7.953125 C12.484375,8.09375 12.09375,8.140625 11.734375,8.09375 C11.25,8.015625 10.859375,7.828125 10.515625,7.515625 L10.71875,7.0625 C10.953125,7.203125 11.15625,7.28125 11.375,7.28125 C11.796875,7.28125 12.078125,7.015625 12.21875,6.171875 C10.8125,5.890625 9.78125,5.328125 8.65625,4.515625 L9,3.984375 C9.984375,4.578125 10.96875,5.015625 12.3125,5.15625 C12.40625,3.734375 12.265625,2.09375 11.515625,0.484375 C11.140625,0.65625 10.734375,0.875 10.34375,1.15625 L9.96875,0.640625 C10.8125,-0.046875 11.59375,-0.484375 12.28125,-0.734375 C12.96875,-0.96875 13.5625,-1.0625 14,-1.0625 C15.359375,-1.0625 16.328125,-0.625 17.203125,0 C18.671875,1.046875 19.578125,3.109375 19.578125,6.078125 C19.578125,8 19.0625,9.390625 17.65625,10.328125 C17.328125,10.546875 16.921875,10.765625 16.40625,10.90625 C15.890625,11.046875 15.265625,11.171875 14.46875,11.1875 C13.765625,11.1875 12.921875,11.046875 12.171875,10.828125 C11.421875,10.609375 10.71875,10.328125 10.28125,10.078125 C10.421875,10.234375 10.578125,10.375 10.75,10.515625 C11.078125,10.796875 11.46875,11.09375 11.953125,11.421875 C12.4375,11.75 12.875,12.078125 13.53125,12.546875 C13.84375,12.796875 14.1875,13.0625 14.5625,13.328125 C15.3125,13.875 16.078125,14.453125 16.65625,14.90625 C17.28125,15.390625 17.6875,15.734375 17.9375,16.015625 C18.171875,16.28125 18.265625,16.484375 18.265625,16.703125 C18.265625,17.140625 17.953125,17.484375 17.515625,17.703125 C17.09375,17.9375 16.484375,18.046875 15.96875,18.046875 C15.40625,18.046875 14.859375,17.9375 14.21875,17.75 C13.578125,17.546875 12.859375,17.265625 11.984375,16.90625 C11.890625,17.21875 11.765625,17.609375 11.5,18 C11.140625,18.53125 10.421875,19.078125 9.484375,19.375 Z M15.125,17.265625 C15.96875,17.265625 16.3125,17.046875 16.390625,16.578125 C16.4375,16.3125 16.078125,15.828125 15.5,15.296875 C14.84375,14.6875 14.140625,14.09375 13.484375,13.5625 C12.828125,13.015625 12.171875,12.53125 11.65625,12.140625 C11.84375,12.65625 11.984375,13.3125 12.078125,14.015625 C12.15625,14.703125 12.15625,15.4375 12.09375,16.125 C13.46875,16.828125 14.5,17.265625 15.125,17.265625 Z M10.875,15.5 C10.90625,14.390625 10.734375,13.328125 10.515625,12.71875 C10.03125,13.15625 9.09375,13.65625 8.15625,14.046875 C8.53125,14.265625 8.953125,14.5 9.4375,14.75 C9.90625,14.984375 10.390625,15.234375 10.875,15.5 Z M10.25,3.140625 C9.34375,2.96875 8.3125,2.6875 7.515625,2.3125 C7.859375,2.84375 7.875,3.546875 7.875,4.203125 C7.875,4.953125 7.734375,5.453125 7.46875,5.796875 C7.1875,6.15625 6.765625,6.34375 6.234375,6.484375 L5.984375,6.078125 C6.25,5.890625 6.4375,5.703125 6.546875,5.46875 C6.671875,5.21875 6.71875,4.890625 6.71875,4.421875 C6.71875,3.34375 6.5,2.59375 5.953125,1.765625 C5.71875,1.390625 5.609375,1.15625 5.6875,0.6875 C5.78125,0.140625 6.1875,0.078125 6.640625,0.484375 C7.265625,1.03125 7.90625,1.453125 8.609375,1.765625 C9.3125,2.0625 10.109375,2.25 11.046875,2.359375 C11.46875,2.40625 11.578125,2.796875 11.203125,3.171875 C10.78125,3.578125 10.578125,3.8125 10.296875,4.28125 L9.96875,4.125 Z" transform="translate(0.296875, 19.375) scale(1, -1)"/>
</svg>