<svg height="20.65625" viewBox="0 0 24 20.65625" width="24" xmlns="http://www.w3.org/2000/svg">
<path d="M6.71875,19.0625 C6.84375,18.59375 6.96875,18.21875 7.1875,17.890625 C7.40625,17.546875 7.703125,17.234375 8.15625,16.953125 C8.28125,16.859375 8.34375,16.8125 8.375,16.75 C8.375,16.671875 8.296875,16.625 8.140625,16.5625 C7.203125,16.25 6.4375,15.75 5.734375,15.296875 L6.078125,14.84375 C6.96875,15.203125 7.671875,15.5 8.515625,15.578125 C9.03125,15.625 9.484375,15.546875 9.9375,15.359375 C10.40625,15.1875 10.75,15.234375 10.953125,15.484375 C11.234375,15.84375 11.234375,16.421875 10.828125,16.78125 C10.46875,17.09375 10.0625,17.234375 9.34375,17.421875 C8.453125,17.65625 7.671875,18.34375 7.171875,19.328125 Z M3.3125,13.078125 C2.984375,12.453125 2.84375,12.03125 2.84375,11.46875 C2.84375,11 2.921875,10.578125 3.1875,10.296875 C3.671875,9.828125 4.25,9.734375 5.328125,10.171875 C6,10.4375 6.59375,10.8125 7.109375,11.1875 C6.921875,9.625 6.875,8.140625 6.828125,6.390625 C6.671875,6.140625 6.5,5.875 6.3125,5.59375 L5.75,4.75 C5.375,4.171875 5.015625,3.625 4.78125,3.21875 C5.109375,4.484375 5.34375,5.734375 5.453125,7.0625 C5.546875,8.28125 5.25,8.84375 4.65625,9.1875 L4.296875,8.8125 C4.71875,8.5 4.75,7.953125 4.65625,6.9375 C4.5625,5.90625 4.265625,4.625 3.71875,3.296875 C3.5,2.765625 3.25,2.359375 3.03125,2 C2.890625,1.796875 2.84375,1.5625 2.984375,1.28125 C3.015625,1.171875 3.0625,1.0625 3.109375,0.953125 C3.203125,0.703125 3.359375,0.25 3.671875,0.25 C3.828125,0.25 3.984375,0.328125 4.15625,0.5 C4.421875,0.78125 4.703125,1.171875 5.015625,1.671875 C5.46875,1.25 5.84375,0.71875 6.21875,0.09375 C6.390625,-0.1875 6.5,-0.390625 6.578125,-0.71875 C6.6875,-1.15625 6.828125,-1.328125 7.109375,-1.328125 C7.1875,-1.328125 7.265625,-1.296875 7.375,-1.25 C7.5625,-1.171875 7.734375,-1.015625 7.875,-0.796875 C8,-0.578125 8.015625,-0.3125 8.015625,0.125 C8.015625,0.34375 8,0.59375 8,0.921875 L7.953125,1.90625 C7.953125,2.5625 7.921875,3.3125 7.921875,4.265625 C7.90625,4.75 7.90625,5.296875 7.90625,5.9375 C8.609375,7.0625 9.296875,8.046875 9.921875,8.9375 C11.1875,10.671875 12.328125,11.984375 13.359375,12.875 C14.375,13.765625 15.28125,14.28125 15.90625,14.140625 C16.515625,14 16.765625,13.234375 16.765625,12.28125 C16.78125,11.328125 16.5625,9.890625 16.421875,8.984375 C16.34375,8.53125 16.296875,8.09375 16.25,7.671875 C16.140625,6.8125 16.0625,5.96875 16.0625,5.0625 C16.0625,3.546875 16.3125,2.453125 16.765625,1.734375 C17.234375,1.015625 17.859375,0.65625 18.640625,0.640625 C19.296875,0.640625 19.890625,0.890625 20.421875,1.328125 C20.9375,1.765625 21.390625,2.375 21.796875,3.125 C22.296875,4.015625 22.625,4.875 22.859375,6 L22.328125,6.359375 C22.015625,5.234375 21.515625,4.390625 21,3.59375 C20.640625,3.046875 20.265625,2.703125 19.890625,2.515625 C19.515625,2.3125 19.15625,2.25 18.828125,2.28125 C18.4375,2.328125 18.125,2.59375 17.890625,3.078125 C17.4375,4.046875 17.609375,5.609375 17.703125,6.453125 C17.796875,7.296875 17.90625,8.1875 18.046875,9.125 C18.125,9.59375 18.1875,10.109375 18.265625,10.625 C18.46875,12.046875 18.4375,12.96875 18.09375,13.765625 C17.6875,14.65625 17.09375,15.046875 16.15625,15.046875 C15.546875,15.046875 14.984375,14.9375 14.15625,14.421875 C12.1875,13.203125 10.109375,10.828125 8,7.71875 C7.953125,8.75 8.078125,9.703125 8.3125,10.78125 C8.4375,11.359375 8.5625,11.6875 8.703125,12.046875 C8.859375,12.40625 8.859375,12.671875 8.59375,12.828125 C8.375,12.953125 8.171875,12.96875 7.953125,13.015625 C7.578125,13.0625 7.390625,12.96875 7.015625,12.59375 C6.171875,11.84375 5.1875,11.328125 4.34375,11.328125 C4.0625,11.328125 3.828125,11.46875 3.71875,11.71875 C3.59375,11.953125 3.609375,12.3125 3.796875,12.734375 Z M6.84375,4.484375 C6.875,3.21875 6.921875,2.109375 6.84375,0.84375 C6.390625,1.328125 5.859375,1.859375 5.359375,2.3125 C5.546875,2.640625 5.796875,3.03125 6.078125,3.421875 C6.359375,3.8125 6.625,4.203125 6.84375,4.484375 Z" transform="translate(-0.8515625, 19.328125) scale(1, -1)"/>
</svg>