<svg height="20.875" viewBox="0 0 24 20.875" width="24" xmlns="http://www.w3.org/2000/svg">
<path d="M9.484375,19.203125 C9.921875,19.0625 10.15625,18.921875 10.25,18.8125 C10.390625,18.578125 10.046875,18.25 9.71875,17.984375 C9.390625,17.734375 9.03125,17.46875 8.6875,17.234375 C8.515625,17.109375 8.34375,17 8.203125,16.90625 C7.9375,16.703125 7.859375,16.5 7.859375,16.28125 C7.859375,16.0625 8.109375,15.890625 8.5,15.578125 C8.859375,15.28125 9.15625,14.859375 9.234375,14.546875 C8.734375,14.21875 8.0625,13.703125 7.390625,13.0625 C6.703125,12.4375 6.015625,11.6875 5.5,10.921875 C5.15625,10.421875 5.203125,9.921875 5.375,9.625 C5.609375,9.25 6,9.09375 6.890625,9.09375 C7.375,9.09375 7.921875,9.1875 8.4375,9.34375 C8.953125,9.5 9.40625,9.71875 9.78125,9.96875 C10.53125,10.515625 11,11.421875 11,12.359375 C11,13.0625 10.859375,13.78125 10.5625,14.328125 C11.09375,14.8125 11.75,15.296875 12.359375,15.640625 C12.96875,15.96875 13.515625,16.203125 13.875,16.203125 C14.03125,16.203125 14.21875,16.1875 14.375,16.0625 C14.515625,15.953125 14.609375,15.734375 14.609375,15.3125 C14.609375,14.84375 14.53125,14.234375 14.40625,13.578125 C14.28125,12.984375 14.28125,12.640625 14.5,12.40625 C14.734375,12.140625 15.046875,12.109375 15.359375,12.1875 C15.5625,12.234375 15.796875,12.28125 16.0625,12.3125 C16.625,12.390625 17.640625,12.375 17.46875,12.125 C17.390625,11.984375 17.046875,11.8125 16.46875,11.59375 C15.40625,11.203125 14.046875,10.625 12.609375,9.96875 C11.1875,9.3125 9.6875,8.59375 8.421875,7.9375 C7.140625,7.28125 6.078125,6.6875 5.46875,6.296875 C4.8125,5.859375 4.34375,5.734375 3.796875,5.734375 C3.453125,5.734375 3.125,5.84375 2.8125,6 C2.515625,6.15625 2.234375,6.375 2.0625,6.578125 L1.703125,6.21875 C1.90625,5.703125 2.21875,5.1875 2.40625,4.96875 C2.609375,4.734375 2.796875,4.53125 3.03125,4.390625 C3.265625,4.25 3.53125,4.171875 3.890625,4.171875 C4.203125,4.171875 4.65625,4.28125 5.203125,4.5 C5.75,4.71875 6.484375,5 7.390625,5.328125 C8.375,5.703125 9.515625,6.078125 10.671875,6.4375 C11.8125,6.78125 12.96875,7.09375 14.046875,7.328125 C16.71875,7.921875 18.78125,7.953125 20.015625,7.296875 C18.84375,7.078125 17.46875,6.828125 16.171875,6.546875 C14.859375,6.265625 13.625,5.953125 12.71875,5.640625 C12.171875,5.453125 11.703125,5.28125 11.375,5.078125 C11.03125,4.859375 10.828125,4.609375 10.828125,4.25 C10.828125,3.828125 11.015625,3.546875 11.6875,3.234375 C11.953125,3.109375 11.984375,3.046875 11.6875,2.953125 C10.265625,2.46875 9.53125,1.703125 9.53125,0.890625 C9.53125,0.265625 9.78125,-0.3125 10.53125,-0.6875 C11.234375,-1.0625 12.1875,-1.25 13.609375,-1.25 C14.203125,-1.25 14.734375,-1.1875 15.109375,-1.046875 C15.484375,-0.921875 15.71875,-0.71875 15.71875,-0.4375 C15.71875,-0.09375 15.625,0.09375 15.125,0.234375 C14.84375,0.3125 14.515625,0.265625 13.921875,0.171875 C13.609375,0.125 13.203125,0.09375 12.78125,0.109375 C12.359375,0.125 11.96875,0.15625 11.6875,0.234375 C11.015625,0.40625 10.71875,0.640625 10.671875,0.984375 C10.625,1.328125 10.796875,1.65625 11.203125,1.859375 C11.703125,2.09375 12.171875,2.234375 12.96875,2.375 C13.765625,2.515625 14.0625,2.734375 14.0625,3.21875 C14.0625,3.4375 13.984375,3.609375 13.78125,3.78125 C13.578125,3.9375 13.25,4.09375 12.734375,4.28125 C12.125,4.5 12.171875,4.859375 12.71875,5 C15.734375,5.796875 18.125,6.078125 20.140625,6.078125 C21.265625,6.078125 22.078125,6.421875 22.078125,7.078125 C22.078125,7.578125 21.640625,8.140625 20.421875,8.546875 C19.71875,8.78125 18.796875,8.84375 17.921875,8.828125 C17.046875,8.8125 16.21875,8.703125 15.71875,8.609375 C14.96875,8.46875 14.125,8.28125 13.296875,8.046875 C12.484375,7.828125 11.65625,7.59375 10.953125,7.390625 C10.296875,7.203125 9.65625,7.015625 8.9375,6.828125 C8.203125,6.625 7.390625,6.390625 6.453125,6.140625 C7.484375,6.78125 8.78125,7.46875 10.109375,8.109375 C11.421875,8.75 12.796875,9.359375 14.03125,9.859375 C15.25,10.359375 16.328125,10.75 17.0625,10.953125 C17.59375,11.09375 18.21875,11.328125 18.671875,11.5 C19.203125,11.703125 19.421875,12.03125 19.421875,12.40625 C19.421875,12.703125 19.21875,12.96875 18.90625,13.125 C18.59375,13.296875 18.171875,13.375 17.734375,13.375 C17.28125,13.375 16.828125,13.328125 16.125,13.21875 C15.640625,13.140625 15.59375,13.34375 15.6875,13.671875 C15.78125,13.953125 15.875,14.25 15.9375,14.5625 C16.015625,14.859375 16.0625,15.171875 16.0625,15.40625 C16.0625,15.984375 15.84375,16.28125 15.4375,16.5625 C15.046875,16.828125 14.5,16.921875 14.0625,16.921875 C13.71875,16.921875 13.4375,16.890625 13.15625,16.796875 C12.875,16.703125 12.578125,16.5625 12.234375,16.375 C11.5625,16 10.734375,15.5 10.171875,15.125 C9.90625,15.5 9.359375,15.921875 8.890625,16.203125 C8.75,16.28125 8.703125,16.359375 8.703125,16.4375 C8.703125,16.53125 8.78125,16.609375 8.9375,16.671875 C9.109375,16.765625 9.3125,16.859375 9.5625,16.953125 L10.328125,17.28125 C10.84375,17.515625 11.375,17.75 11.703125,17.9375 C12.03125,18.109375 12.171875,18.234375 12.171875,18.53125 C12.171875,18.796875 11.953125,18.96875 11.640625,19.15625 C11.484375,19.25 11.21875,19.34375 10.90625,19.4375 C10.578125,19.53125 10.203125,19.59375 9.84375,19.625 Z M9.578125,13.5625 C9.640625,13.203125 9.6875,12.75 9.65625,12.3125 C9.640625,11.859375 9.546875,11.40625 9.390625,11.109375 C9.078125,10.515625 8.703125,10.25 8.28125,10.03125 C7.90625,9.828125 7.25,9.734375 6.828125,9.734375 C6.453125,9.734375 6.359375,9.875 6.546875,10.28125 C6.78125,10.734375 7.296875,11.375 7.859375,12 C8.4375,12.609375 9.09375,13.21875 9.578125,13.5625 Z" transform="translate(0.109375, 19.625) scale(1, -1)"/>
</svg>