<svg height="18.671875" viewBox="0 0 24 18.671875" width="24" xmlns="http://www.w3.org/2000/svg">
<path d="M12.4375,18.53125 C12.125,18.53125 11.65625,18.375 11.28125,18.1875 C10.578125,17.84375 9.625,17.609375 8.734375,17.609375 C7.96875,17.609375 7.15625,17.65625 6.265625,18.046875 L5.90625,17.5 C6.453125,17.03125 7.1875,16.734375 7.9375,16.609375 C8.6875,16.46875 9.453125,16.484375 10.078125,16.65625 C8.046875,14.09375 5.796875,11.046875 3.59375,7.703125 C3.28125,7.234375 3.125,7.015625 2.90625,6.796875 C2.59375,6.484375 2.4375,6.21875 2.515625,5.859375 C2.5625,5.609375 2.703125,5.28125 2.890625,5 C3.0625,4.71875 3.265625,4.515625 3.40625,4.515625 C3.78125,4.515625 4.109375,4.90625 4.34375,5.265625 C5.421875,6.921875 6.6875,8.28125 8.328125,9.6875 C7.921875,8.75 7.625,7.671875 7.390625,6.640625 C7.171875,5.609375 7.0625,4.578125 7.0625,3.734375 C7.0625,3.28125 7.09375,2.9375 7.171875,2.703125 C7.25,2.46875 7.390625,2.359375 7.5625,2.359375 C7.8125,2.359375 8.078125,2.71875 8.265625,3.21875 C8.453125,3.703125 8.5625,4.34375 8.5,4.90625 C8.375,5.9375 8.390625,7.03125 8.609375,8.015625 C8.84375,9 9.09375,9.828125 9.484375,10.625 C9.59375,10.734375 9.734375,10.84375 9.875,10.953125 C10.015625,11.046875 10.15625,11.15625 10.296875,11.265625 C12.609375,12.96875 14.828125,13.765625 16.875,13.765625 C17.421875,13.765625 18.0625,13.53125 18.546875,13.078125 C19.046875,12.609375 19.390625,11.921875 19.390625,10.96875 C19.390625,10.4375 19.328125,9.6875 19.203125,8.90625 C19.0625,8.125 18.90625,7.296875 18.71875,6.640625 C18.53125,5.9375 18.265625,5.171875 17.984375,4.515625 C17.703125,3.84375 17.375,3.265625 17.0625,2.890625 C16.609375,2.328125 16.25,2.140625 15.828125,2.140625 C15.453125,2.140625 15.171875,2.234375 14.65625,2.609375 C14.25,2.9375 13.78125,3.4375 13.125,4.109375 C13.34375,4.296875 13.578125,4.53125 13.8125,4.8125 C14.1875,5.234375 14.53125,5.890625 14.78125,6.59375 C15.015625,7.296875 15.15625,8.09375 15.140625,8.859375 C15.125,9.890625 14.84375,10.625 14.46875,11.09375 C14.078125,11.5625 13.5625,11.765625 13.0625,11.765625 C12.40625,11.765625 11.9375,11.5625 11.265625,10.921875 L11.515625,10.34375 C12.03125,10.859375 12.640625,11.03125 13.109375,10.8125 C13.296875,10.71875 13.484375,10.515625 13.609375,10.1875 C13.71875,9.84375 13.765625,9.34375 13.765625,8.640625 C13.75,8.171875 13.71875,7.609375 13.59375,7.046875 C13.484375,6.46875 13.296875,5.890625 13.03125,5.375 C12.953125,6.03125 12.859375,6.71875 12.625,7.375 C12.375,8.046875 11.984375,8.375 11.65625,8.375 C11.390625,8.375 11.171875,8.28125 10.859375,7.859375 C10.578125,7.484375 10.296875,6.828125 10.015625,6.140625 C9.75,5.46875 9.53125,4.78125 9.4375,4.4375 C9.21875,3.59375 9.515625,3.171875 10.171875,3.171875 C10.671875,3.171875 11.1875,3.1875 11.65625,3.390625 C11.46875,2.984375 11.125,2.5625 10.734375,2.1875 C10.34375,1.8125 9.890625,1.484375 9.453125,1.28125 C9.21875,1.15625 9.109375,1.078125 8.890625,1.078125 C8.515625,1.078125 8.234375,0.890625 8.234375,0.546875 C8.234375,0.21875 8.375,0.078125 8.796875,0 C9.15625,-0.078125 9.890625,-0.140625 10.703125,-0.140625 C11.078125,-0.140625 11.53125,-0.109375 11.9375,-0.0625 C12.328125,-0.015625 12.671875,0.0625 12.84375,0.125 C13.375,0.3125 13.515625,0.671875 13.21875,1.015625 C12.953125,1.328125 12.671875,1.375 12.09375,1.25 C11.515625,1.125 10.953125,1.078125 10.375,1.109375 C11.546875,1.8125 12.40625,2.6875 12.71875,3.71875 C13.21875,2.859375 13.796875,2 14.6875,1.25 C15.171875,0.828125 15.71875,0.6875 16.03125,0.6875 C16.734375,0.6875 17.546875,1.203125 18.21875,1.96875 C18.59375,2.40625 18.96875,3.046875 19.3125,3.796875 C19.640625,4.546875 19.9375,5.390625 20.15625,6.234375 C20.34375,6.953125 20.53125,7.78125 20.671875,8.609375 C20.8125,9.453125 20.90625,10.265625 20.90625,10.96875 C20.90625,12.203125 20.40625,13.109375 19.65625,13.671875 C18.90625,14.25 17.921875,14.53125 16.96875,14.546875 C16.125,14.5625 15.171875,14.4375 14.046875,14.078125 C12.921875,13.703125 11.65625,13.109375 10.203125,12.21875 C8.984375,11.46875 8,10.71875 7.015625,9.859375 C6.03125,9 5.09375,8.046875 4.0625,6.921875 C4.625,7.84375 5.1875,8.703125 5.734375,9.484375 C6.8125,11.03125 7.8125,12.359375 8.75,13.46875 C9.6875,14.578125 10.84375,16.390625 12.984375,17 C13.421875,17.125 13.671875,17.328125 13.71875,17.546875 C13.78125,17.765625 13.703125,17.984375 13.515625,18.140625 C13.171875,18.421875 12.78125,18.53125 12.4375,18.53125 Z M11.734375,6.71875 C11.875,6.40625 11.984375,5.984375 12.046875,5.5625 C12.09375,5.125 12.109375,4.671875 12.046875,4.28125 C11.90625,4.15625 11.734375,4.078125 11.546875,4.03125 C11.28125,3.953125 11,3.953125 10.8125,4.015625 C10.625,4.0625 10.5,4.203125 10.53125,4.421875 C10.578125,4.90625 10.65625,5.28125 10.75,5.640625 C10.84375,5.984375 10.953125,6.296875 11.09375,6.671875 C11.328125,7.28125 11.46875,7.3125 11.734375,6.71875 Z" transform="translate(0.328125, 18.53125) scale(1, -1)"/>
</svg>