<svg height="22.265625" viewBox="0 0 24 22.265625" width="24" xmlns="http://www.w3.org/2000/svg">
<path d="M4.5625,17.109375 C4.828125,16.5625 5.09375,16.234375 5.546875,16.0625 C6,15.875 6.6875,15.90625 7.71875,16.03125 C7.71875,15.84375 7.6875,15.5625 7.609375,15.296875 C7.53125,15.015625 7.421875,14.734375 7.28125,14.546875 C7.03125,14.375 6.828125,14.234375 6.578125,14.109375 C6.328125,13.96875 6.03125,13.828125 5.609375,13.671875 C4.859375,13.390625 4.390625,13.21875 4.015625,13.21875 C3.5,13.21875 3.125,13.484375 2.90625,13.765625 L2.5625,13.25 C3.125,12.390625 3.671875,11.953125 4.375,11.953125 C4.625,11.953125 4.890625,12.015625 5.1875,12.140625 C5.75,12.390625 6.28125,12.6875 6.921875,13.0625 L7.953125,13.625 C8.703125,14.046875 9.484375,14.453125 10.015625,14.6875 C9.59375,14.15625 8.859375,13.34375 7.984375,12.421875 C7.109375,11.484375 6.109375,10.453125 5.171875,9.5 C4.21875,8.5625 3.328125,7.671875 2.703125,7.0625 C2.375,6.734375 2.15625,6.484375 2.03125,6.28125 C1.90625,6.078125 1.84375,5.890625 1.828125,5.6875 C1.796875,5.28125 1.796875,5.046875 1.875,4.78125 C1.984375,4.421875 2.328125,4.390625 2.65625,4.71875 C2.890625,4.953125 3.265625,5.40625 3.546875,5.8125 C3.96875,6.40625 4.546875,7.171875 5.15625,7.953125 C5.765625,8.71875 6.40625,9.5 6.953125,10.15625 C7.484375,10.8125 7.921875,11.328125 8.15625,11.5625 C8.78125,12.21875 9.4375,12.234375 9.875,11.703125 C9.578125,11.421875 9.15625,11.03125 8.75,10.625 C8.328125,10.203125 7.90625,9.78125 7.625,9.453125 C6.921875,8.609375 6.625,7.96875 6.625,7.296875 C6.625,6.890625 6.796875,6.578125 7.046875,6.375 C7.28125,6.171875 7.609375,6.078125 7.921875,6.078125 C8.296875,6.078125 8.828125,6.21875 9.390625,6.59375 C9.9375,6.953125 10.515625,7.53125 11.015625,8.375 C11.359375,8.953125 11.609375,9.71875 11.609375,10.421875 C11.609375,10.875 11.5,11.421875 11.203125,11.796875 C11.5625,12.15625 12.15625,12.8125 12.765625,13.53125 C13.359375,14.265625 13.96875,15.03125 14.375,15.640625 L14.109375,16.15625 C13.84375,15.78125 13.453125,15.3125 13.015625,14.828125 C12.59375,14.328125 12.125,13.8125 11.6875,13.34375 C11.25,12.890625 10.84375,12.515625 10.5625,12.296875 C10.25,12.453125 9.984375,12.546875 9.75,12.59375 C9.5,12.625 9.25,12.59375 8.953125,12.484375 C9.84375,13.328125 10.765625,14.046875 11.359375,14.515625 C11.515625,14.640625 11.65625,14.75 11.78125,14.859375 C11.90625,14.96875 12.09375,15.09375 12.3125,15.265625 C12.640625,15.5 12.78125,15.6875 12.828125,15.9375 C12.875,16.203125 12.734375,16.390625 12.390625,16.515625 C12.203125,16.578125 12.046875,16.625 11.875,16.578125 C11.6875,16.546875 11.5,16.453125 11.234375,16.21875 C11.046875,16.0625 10.875,15.96875 10.4375,15.734375 C10.109375,15.5625 9.875,15.4375 9.546875,15.296875 C9.234375,15.140625 8.890625,14.984375 8.375,14.796875 C8.609375,15.15625 8.75,15.5625 8.84375,16.21875 C9.6875,16.375 10.296875,16.671875 10.703125,16.859375 C11.0625,17 11.3125,17.171875 11.4375,17.34375 C11.671875,17.703125 11.703125,18.21875 10.859375,18.21875 C10.671875,18.21875 10.484375,18.203125 10.34375,18.078125 C10.296875,18.03125 10.21875,17.984375 10.15625,17.9375 L9.96875,17.8125 C9.734375,17.65625 9.296875,17.515625 8.84375,17.375 C8.890625,17.703125 8.953125,18.21875 8.953125,18.5 C8.953125,18.984375 8.84375,19.40625 8.234375,19.5625 C7.859375,19.65625 7.296875,19.765625 6.546875,19.703125 L6.5,19.328125 C7.34375,19.140625 7.578125,18.796875 7.671875,18.359375 C7.765625,17.9375 7.8125,17.546875 7.78125,17.1875 C7.453125,17.09375 7.15625,17.03125 6.875,17 C6.3125,16.9375 5.40625,16.84375 4.921875,17.5 Z M15.484375,16.78125 C15.65625,17.015625 15.78125,17.1875 15.96875,17.375 C16.234375,17.65625 16.421875,17.609375 16.421875,17.375 C16.421875,17 16.40625,16.515625 16.328125,16.015625 C16.296875,15.828125 16.203125,15.5 16.109375,15.265625 C15.96875,14.953125 15.984375,14.75 16.296875,14.421875 C16.484375,14.25 16.609375,14.203125 17,14.421875 C17.546875,14.75 18.125,14.96875 18.34375,15.046875 C18.546875,15.125 18.6875,15.125 18.734375,15.046875 C18.78125,14.984375 18.71875,14.84375 18.53125,14.65625 C18.09375,14.234375 17.484375,13.625 16.828125,13 C16.171875,12.359375 15.46875,11.6875 14.828125,11.09375 C14.171875,10.484375 13.578125,9.984375 13.171875,9.6875 C13.078125,9.625 13,9.59375 12.921875,9.59375 L12.6875,9.546875 C12.359375,9.5 12.1875,9.140625 12.09375,8.90625 C11.875,8.359375 12.078125,8.234375 12.6875,8.359375 L13.015625,8.421875 C13.09375,8.421875 13.171875,8.46875 13.25,8.5 C13.390625,8.578125 13.515625,8.609375 13.65625,8.640625 C13.25,7.890625 12.96875,7.390625 12.703125,7 C12.453125,6.59375 12.21875,6.3125 11.953125,5.984375 C11.78125,5.75 11.65625,5.578125 11.546875,5.4375 C11.4375,5.296875 11.328125,5.171875 11.234375,5.0625 C11.0625,4.890625 10.96875,4.703125 10.9375,4.484375 C10.859375,4.046875 11.078125,3.265625 11.265625,3.09375 C11.359375,3 11.46875,2.953125 11.5625,2.953125 C11.90625,2.953125 12.125,3.3125 12.3125,3.921875 C12.453125,4.296875 12.671875,4.796875 12.890625,5.15625 C13.203125,5.65625 13.46875,5.984375 13.65625,6.171875 C14.015625,6.484375 14.34375,6.6875 14.703125,6.6875 C14.9375,6.6875 15.09375,6.59375 15.1875,6.40625 C15.265625,6.21875 15.3125,5.859375 15.3125,5.328125 C15.3125,4.59375 15.296875,3.828125 15.25,3.09375 C15.203125,2.359375 15.109375,1.65625 15,1.078125 C14.875,0.5 14.609375,-0.09375 14.28125,-0.625 C13.78125,-1.421875 13.390625,-1.859375 12.96875,-2.1875 L13.375,-2.5 C13.90625,-2.1875 14.484375,-1.765625 15.09375,-1.0625 C15.640625,-0.40625 16.015625,0.21875 16.25,1.015625 C16.4375,1.671875 16.546875,2.390625 16.609375,3.109375 C16.65625,3.828125 16.671875,4.53125 16.671875,5.09375 C16.671875,5.84375 16.578125,6.625 16.34375,6.96875 C16.015625,7.46875 15.640625,7.625 15.234375,7.625 C14.96875,7.625 14.609375,7.53125 14.234375,7.34375 C13.84375,7.140625 13.421875,6.84375 13.078125,6.5 C13.21875,6.734375 13.34375,6.9375 13.484375,7.140625 C13.625,7.34375 13.796875,7.578125 14.0625,7.90625 C14.375,8.28125 14.8125,8.640625 15.1875,8.765625 C15.546875,8.890625 15.765625,8.953125 16.015625,9.09375 C16.296875,9.265625 16.25,9.640625 15.984375,9.96875 C15.78125,10.203125 15.59375,10.25 15.359375,10.21875 C15.203125,10.203125 14.96875,10.109375 14.65625,9.984375 C14.390625,9.859375 14.140625,9.796875 13.90625,9.734375 C14.46875,10.171875 15.171875,10.734375 15.921875,11.3125 C16.671875,11.875 17.46875,12.46875 18.171875,12.984375 C18.875,13.5 19.515625,13.9375 19.953125,14.203125 C20.40625,14.484375 20.484375,14.8125 20.28125,15.296875 C20.15625,15.625 19.953125,15.921875 19.625,16.0625 C19.390625,16.15625 19.125,16.109375 18.625,16.015625 C18.125,15.921875 17.65625,15.78125 17.0625,15.484375 C17.140625,15.625 17.203125,15.78125 17.28125,15.96875 C17.421875,16.34375 17.578125,16.734375 17.6875,17.109375 C17.796875,17.46875 17.9375,17.84375 17.765625,18.171875 C17.609375,18.5 16.90625,18.78125 16.390625,18.5625 C15.875,18.359375 15.59375,18.03125 15.421875,17.703125 C15.34375,17.53125 15.25,17.359375 15.140625,17.1875 Z M10.390625,11.09375 C10.578125,10.765625 10.53125,10.421875 10.53125,10.0625 C10.53125,9.875 10.4375,9.453125 10.21875,8.953125 C10,8.453125 9.671875,7.875 9.1875,7.34375 C9.109375,7.25 9,7.171875 8.890625,7.109375 C8.65625,6.96875 8.40625,6.890625 8.171875,6.890625 C7.9375,6.890625 7.71875,6.96875 7.71875,7.25 C7.71875,7.375 7.765625,7.53125 7.828125,7.71875 C7.96875,8.09375 8.234375,8.5625 8.5625,9.03125 C9.078125,9.734375 9.734375,10.515625 10.390625,11.09375 Z" transform="translate(0.859375, 19.765625) scale(1, -1)"/>
</svg>