<svg height="22.25" viewBox="0 0 24 22.25" width="24" xmlns="http://www.w3.org/2000/svg">
<path d="M9.21875,20.015625 C8.359375,18.40625 7.84375,16.484375 7.921875,14.046875 L7.703125,13.90625 C7.296875,14.140625 6.96875,14.34375 6.65625,14.515625 C6.34375,14.703125 6.03125,14.84375 5.65625,15 C6.140625,15.625 6.78125,16.171875 7.4375,16.578125 L7.15625,17.015625 C6.078125,16.34375 5.234375,15.71875 4.53125,15.09375 C4.5,16.03125 4.8125,16.859375 5.328125,17.65625 L4.859375,17.984375 C4.296875,17.234375 3.921875,16.625 3.703125,16.0625 C3.46875,15.5 3.390625,15 3.390625,14.453125 C3.390625,13.9375 3.453125,13.5625 3.609375,13.34375 C3.765625,13.109375 3.921875,12.984375 4.125,12.984375 C4.34375,12.984375 4.5,13.078125 4.71875,13.515625 C4.921875,13.90625 5.09375,14.203125 5.28125,14.5 C5.953125,14.1875 6.4375,13.875 6.984375,13.4375 C6.796875,13.3125 6.59375,13.1875 6.359375,13.0625 C5.65625,12.671875 5.265625,12.171875 5.265625,11.640625 C5.265625,10.953125 5.65625,10.625 6.78125,10.28125 C6.453125,9.984375 6.171875,9.703125 5.859375,9.390625 C5.015625,8.546875 4.671875,7.8125 4.625,7.21875 C4.625,6.859375 4.78125,6.640625 5.03125,6.5 C5.265625,6.359375 5.609375,6.3125 5.9375,6.3125 C6.390625,6.3125 6.890625,6.421875 7.34375,6.59375 C7.21875,6.140625 7.109375,5.515625 7.078125,4.71875 C6.875,4.6875 6.703125,4.65625 6.546875,4.625 L6.046875,4.515625 C5.59375,4.40625 5.28125,4.34375 5,4.296875 C4.71875,4.25 4.46875,4.203125 4.21875,4.203125 C3.875,4.15625 3.640625,4.1875 3.515625,4.28125 C3.375,4.359375 3.328125,4.484375 3.359375,4.65625 C3.453125,4.96875 3.625,5.15625 3.890625,5.3125 L3.671875,5.65625 C3.15625,5.4375 2.796875,5.203125 2.5625,4.953125 C2.140625,4.4375 2.140625,3.921875 2.296875,3.59375 C2.46875,3.265625 2.96875,3.03125 3.421875,3.03125 C3.875,3.03125 4.484375,3.046875 5.0625,3.203125 C5.34375,3.28125 5.640625,3.359375 5.953125,3.4375 L7.078125,3.71875 C7.125,2.296875 7.5625,1.203125 8.109375,0.359375 C8.328125,0.03125 8.5625,0 8.84375,0 C9.203125,0 9.265625,0.609375 9.3125,0.953125 C9.359375,1.109375 9.40625,1.3125 9.453125,1.53125 C9.546875,1.828125 9.671875,2.1875 9.8125,2.515625 C9.953125,2.84375 10.09375,3.140625 10.21875,3.359375 L9.828125,3.796875 C9.4375,3.1875 9.15625,2.65625 8.796875,1.90625 C8.46875,2.28125 8.3125,3.078125 8.203125,4.015625 C10.4375,4.515625 12.734375,5.015625 14.90625,5.40625 C15.03125,2.84375 14,0.5 11.5625,-1.71875 L12.078125,-2.234375 C13.796875,-0.96875 14.875,0.328125 15.53125,1.65625 C16.171875,2.96875 16.375,4.296875 16.328125,5.65625 C16.484375,5.6875 16.65625,5.703125 16.8125,5.75 L17.265625,5.8125 C17.65625,5.875 18.03125,5.90625 18.421875,5.90625 L19.53125,5.90625 C20.046875,5.90625 20.796875,5.78125 21.359375,5.6875 C21.828125,5.609375 22.109375,5.78125 22.15625,6.046875 C22.25,6.65625 21.4375,6.921875 21.0625,7.0625 C20.671875,7.1875 20.28125,7.25 19.828125,7.21875 C19.375,7.203125 18.734375,7.0625 18.125,6.9375 C17.84375,6.875 17.515625,6.796875 17.15625,6.734375 L16.71875,6.671875 C16.5625,6.640625 16.390625,6.609375 16.25,6.578125 C16.15625,7.5625 15.9375,8.34375 15.546875,9 C17.84375,10.125 19.515625,11.1875 20.5,11.984375 C21.078125,12.4375 21.25,12.828125 21.21875,13.109375 C21.171875,13.609375 20.90625,13.859375 20.328125,14.046875 L19.796875,14.1875 C19.578125,14.234375 19.328125,14.28125 19.125,14.3125 C18.671875,14.390625 18.625,14.546875 18.78125,14.9375 C18.90625,15.265625 19.078125,15.6875 19.078125,16.125 C19.078125,16.34375 19.046875,16.53125 18.984375,16.65625 C18.859375,16.921875 18.5625,17.1875 18.046875,17.1875 C17.78125,17.1875 17.5,17.140625 17.203125,17.0625 C16.140625,16.75 15.265625,16.328125 14.15625,15.671875 C12.40625,14.640625 10.84375,13.640625 9.234375,12.40625 C9.296875,12.609375 9.296875,12.828125 9.234375,13.078125 L9.171875,13.4375 C9.140625,13.546875 9.125,13.703125 9.09375,13.875 C10.125,14.46875 11.09375,15.03125 11.890625,15.578125 C12.453125,15.96875 12.828125,16.296875 13.015625,16.578125 C13.203125,16.859375 13.234375,17.109375 13.21875,17.359375 C13.1875,17.671875 12.9375,17.984375 12.453125,18.21875 C12,18.4375 11.5,18.484375 11,18.53125 L10.78125,18 C11.203125,17.921875 11.546875,17.75 11.640625,17.5625 C11.859375,17.1875 11.75,16.78125 11.140625,16.28125 C10.625,15.875 9.921875,15.34375 9.03125,14.765625 C8.9375,15.71875 8.984375,16.546875 9.125,17.328125 C9.25,18.125 9.484375,18.875 9.84375,19.671875 Z M17,16.109375 C17.28125,16.15625 17.40625,16.109375 17.484375,16.015625 C17.5625,15.921875 17.5625,15.765625 17.5625,15.578125 C17.5625,15.125 17.515625,14.796875 17.421875,14.46875 C17.34375,14.125 17.46875,13.890625 17.8125,13.78125 C18.046875,13.703125 18.59375,13.625 19.109375,13.53125 C19.34375,13.5 19.515625,13.40625 19.5625,13.265625 C19.609375,13.125 19.53125,12.921875 19.25,12.671875 C18.265625,11.78125 16.890625,10.828125 14.953125,9.734375 C14.546875,10.125 14.015625,10.46875 13.375,10.765625 L12.984375,10.28125 C13.421875,9.984375 13.765625,9.6875 14.046875,9.265625 C13.109375,8.765625 12.09375,8.234375 10.921875,7.703125 L11.328125,7.15625 C12.453125,7.578125 13.46875,8.046875 14.453125,8.5 C14.671875,7.90625 14.796875,7.203125 14.890625,6.3125 C13.8125,6.125 12.625,5.875 11.46875,5.640625 C10.296875,5.40625 9.15625,5.171875 8.140625,4.953125 C8.09375,5.703125 8.125,6.40625 8.203125,6.96875 C9,7.34375 9.640625,7.8125 10.015625,8.140625 C10.34375,8.421875 10.578125,8.671875 10.6875,8.890625 C10.8125,9.125 10.828125,9.3125 10.828125,9.53125 C10.828125,10.03125 10.390625,10.5 9.453125,10.71875 L8.6875,10.90625 C9.6875,11.796875 10.65625,12.5625 11.65625,13.28125 C12.640625,14 13.671875,14.65625 14.796875,15.296875 C15.546875,15.734375 16.296875,15.96875 17,16.109375 Z M7.484375,12.984375 C7.765625,12.765625 7.984375,12.484375 8.109375,12.21875 C8.203125,12.03125 8.46875,11.9375 8.65625,11.9375 L8.1875,11.546875 C8.046875,11.421875 7.875,11.28125 7.71875,11.140625 C7.34375,11.234375 6.984375,11.34375 6.6875,11.46875 C6.09375,11.75 6.078125,12.1875 6.875,12.625 L7.203125,12.8125 C7.296875,12.875 7.390625,12.921875 7.484375,12.984375 Z M7.703125,10.03125 L8.234375,9.921875 C8.421875,9.890625 8.578125,9.84375 8.734375,9.796875 C9.28125,9.625 9.484375,9.484375 9.484375,9.21875 C9.484375,8.6875 8.890625,8.09375 7.90625,7.625 C7.390625,7.390625 6.9375,7.296875 6.59375,7.3125 C6.234375,7.3125 6,7.421875 5.953125,7.609375 C5.890625,7.84375 5.984375,8.09375 6.171875,8.375 C6.34375,8.65625 6.578125,8.921875 6.84375,9.1875 C7.03125,9.375 7.203125,9.546875 7.34375,9.6875 C7.46875,9.828125 7.59375,9.953125 7.703125,10.03125 Z M17.609375,4.515625 C18.640625,3.984375 19.390625,3.078125 19.765625,2.09375 C19.9375,1.625 20.15625,1.375 20.546875,1.375 C20.859375,1.375 21.125,1.703125 21.125,2.234375 C21.125,2.609375 20.984375,3.171875 20.515625,3.625 C20.234375,3.90625 19.828125,4.203125 19.390625,4.4375 C18.96875,4.6875 18.46875,4.90625 18,5.046875 Z" transform="translate(-0.1953125, 20.015625) scale(1, -1)"/>
</svg>