<svg height="20.4375" viewBox="0 0 24 20.4375" width="24" xmlns="http://www.w3.org/2000/svg">
<path d="M10.25,18.96875 C10.484375,18.875 10.6875,18.796875 10.859375,18.6875 C11.203125,18.5 11.390625,18.203125 11.390625,17.796875 C11.390625,17.59375 11.328125,17.34375 11.234375,17.0625 C11.125,16.78125 10.953125,16.390625 10.78125,15.984375 C10.609375,15.578125 10.40625,15.140625 10.21875,14.765625 C8.84375,14.6875 7.921875,14.9375 7.21875,15.6875 L6.890625,15.3125 C7.46875,14.234375 8.28125,13.703125 9.59375,13.609375 C9.21875,12.859375 8.796875,11.90625 8.421875,11.0625 C8.046875,10.21875 7.75,9.453125 7.609375,9.078125 C7.359375,8.421875 7.359375,8.1875 7.515625,7.90625 C7.640625,7.671875 7.796875,7.375 8,7.171875 C8.328125,6.828125 8.59375,6.703125 8.9375,6.84375 C9.3125,7 9.828125,7.1875 10.359375,7.34375 C10.875,7.484375 11.421875,7.65625 11.84375,7.765625 L11.796875,5.671875 C11.78125,4.28125 11.75,3.03125 11.75,2.046875 C11.75,1.546875 11.75,1.15625 11.765625,0.84375 C11.34375,0.9375 10.765625,1.125 10.1875,1.34375 C9.59375,1.578125 9,1.8125 8.546875,2.046875 L8.359375,1.53125 C8.734375,1.296875 9.21875,1.015625 9.671875,0.734375 C10.125,0.46875 10.546875,0.21875 10.828125,0.03125 C11.234375,-0.25 11.375,-0.453125 11.5,-0.671875 C11.640625,-0.9375 11.828125,-1.015625 12.09375,-1.015625 C12.296875,-1.015625 12.578125,-0.84375 12.78125,-0.53125 C12.96875,-0.21875 13.125,0.25 13.078125,0.84375 C13.015625,1.609375 12.984375,2.75 12.984375,4.03125 C12.96875,5.296875 13,6.71875 13.015625,8.046875 C13.390625,8.171875 13.6875,8.296875 13.875,8.40625 C14.140625,8.546875 14.28125,8.75 14.28125,8.9375 C14.28125,9.078125 14.125,9.25 13.8125,9.453125 C13.578125,9.59375 13.34375,9.828125 13.078125,10.109375 C12.8125,10.375 12.5625,10.296875 12.34375,10.078125 C12.03125,9.765625 11.765625,9.34375 11.65625,8.859375 C11.4375,8.765625 10.953125,8.640625 10.390625,8.515625 C9.828125,8.40625 9.203125,8.296875 8.765625,8.28125 C9.015625,9.140625 9.359375,10.078125 9.75,11 C10.140625,11.9375 10.5625,12.828125 10.96875,13.625 C11.71875,13.71875 12.59375,13.890625 13.4375,14.125 C14.28125,14.34375 15.09375,14.625 15.6875,14.953125 C15.96875,15.09375 16.109375,15.296875 16.109375,15.484375 C16.109375,15.671875 16.046875,15.859375 15.828125,15.984375 C15.625,16.109375 15.234375,16.21875 15,16.21875 C14.640625,16.21875 14.40625,16.15625 14.015625,15.890625 C13.390625,15.453125 12.546875,15.109375 11.65625,14.9375 C12.03125,15.78125 12.40625,16.484375 12.828125,17.140625 C13.25,17.828125 13.125,18.21875 12.6875,18.640625 C12.3125,19.03125 11.515625,19.28125 10.671875,19.421875 Z M16.390625,4.78125 C17.015625,4.953125 17.546875,4.921875 18.09375,4.671875 C18.578125,4.453125 18.96875,4.109375 19.203125,3.578125 C19.421875,3.09375 19.390625,2.859375 19.109375,2.609375 C18.671875,2.25 18,1.96875 17.109375,1.78125 L17.375,1.296875 C17.765625,1.34375 18.15625,1.390625 18.546875,1.421875 C18.921875,1.453125 19.265625,1.5 19.5625,1.5625 C19.953125,1.640625 20.296875,1.75 20.609375,1.96875 C20.9375,2.1875 21.046875,2.46875 21.046875,2.890625 C21.046875,3.34375 20.9375,3.796875 20.375,4.390625 C19.671875,5.140625 18.796875,5.640625 17.90625,5.640625 C17.25,5.640625 16.609375,5.484375 16.15625,5.265625 Z M5.65625,1.375 C5.953125,1.640625 6.703125,2.140625 7.5625,2.671875 C8.421875,3.203125 9.40625,3.765625 10.15625,4.125 L10.03125,4.703125 C9.640625,4.53125 9.234375,4.34375 8.796875,4.140625 C7.90625,3.71875 7.03125,3.3125 6.3125,2.9375 C5.609375,2.578125 5.140625,2.34375 4.9375,2.296875 C4.828125,2.28125 4.75,2.28125 4.703125,2.3125 C4.53125,2.390625 4.484375,2.640625 4.484375,2.84375 C4.484375,3.453125 4.875,3.9375 5.5,4.421875 L5.203125,4.828125 C4.578125,4.515625 4.125,4.234375 3.71875,3.78125 C3.34375,3.34375 3.125,2.890625 3.125,2.3125 C3.125,1.859375 3.265625,1.34375 3.484375,1.0625 C3.84375,0.546875 4.15625,0.4375 4.484375,0.4375 C4.671875,0.4375 4.984375,0.53125 5.15625,0.78125 C5.3125,1 5.4375,1.171875 5.65625,1.375 Z" transform="translate(-0.0859375, 19.421875) scale(1, -1)"/>
</svg>