<svg height="20.265625" viewBox="0 0 24 20.265625" width="24" xmlns="http://www.w3.org/2000/svg">
<path d="M5.1875,18.96875 C5.46875,18.828125 5.796875,18.671875 6.078125,18.390625 C6.21875,18.25 6.34375,18.09375 6.4375,17.859375 C6.53125,17.625 6.578125,17.3125 6.578125,16.8125 C6.578125,16.09375 6.5625,15.4375 6.546875,14.828125 C6.5,13.609375 6.4375,12.03125 6.34375,10.375 C6.28125,9.546875 6.25,8.78125 6.21875,8.0625 L6,7.765625 C5.8125,8.359375 5.5625,9.09375 5.28125,9.578125 C4.921875,10.25 4.53125,10.484375 4.125,10.484375 C3.40625,10.484375 2.75,9.578125 2.46875,8.0625 C2.390625,7.625 2.328125,7.0625 2.296875,6.5 C2.25,5.9375 2.234375,5.390625 2.234375,5.015625 C2.234375,4.609375 2.28125,4.203125 2.375,3.859375 C2.46875,3.5 2.578125,3.203125 2.703125,3.03125 C2.9375,2.703125 3.140625,2.5625 3.453125,2.5625 C3.59375,2.5625 3.75,2.625 3.921875,2.75 C4.265625,2.96875 4.578125,3.8125 4.875,4.484375 C5.015625,4.828125 5.15625,5.109375 5.28125,5.328125 C5.375,5.46875 5.453125,5.609375 5.515625,5.71875 C5.5625,5.84375 5.640625,5.9375 5.703125,6.03125 C5.75,5.75 5.796875,5.421875 5.8125,4.84375 C5.84375,4.265625 5.84375,3.4375 5.84375,2.15625 C5.84375,1.953125 5.84375,1.734375 5.828125,1.515625 C5.8125,1.078125 5.78125,0.671875 5.75,0.3125 L5.703125,-0.140625 C5.703125,-0.3125 5.75,-0.5 5.828125,-0.640625 C5.90625,-0.78125 6.015625,-0.875 6.125,-0.875 C6.390625,-0.875 6.625,-0.59375 6.84375,-0.265625 C7.15625,0.1875 7.296875,0.6875 7.296875,1.25 C7.296875,1.390625 7.296875,1.625 7.265625,1.921875 L7.203125,2.9375 C7.15625,3.359375 7.140625,4.0625 7.125,4.84375 C7.109375,5.625 7.140625,6.5 7.203125,7.296875 C7.90625,8.4375 8.921875,9.796875 9.953125,11.078125 C10.984375,12.34375 12.03125,13.5625 12.828125,14.40625 C13.71875,15.390625 14.609375,16.328125 15.453125,16.875 C15.6875,17.015625 15.859375,17.109375 16,17.15625 C16.125,17.1875 16.234375,17.203125 16.3125,17.171875 C16.46875,17.09375 16.515625,16.859375 16.515625,16.515625 C16.515625,15.890625 16.328125,15.21875 16.203125,14.734375 C16.171875,14.65625 16.140625,14.515625 16.109375,14.375 C16.015625,14.046875 15.921875,13.703125 15.828125,13.375 C15.78125,13.203125 15.75,13.0625 15.71875,12.96875 C15.640625,12.6875 15.625,12.390625 15.625,12.21875 C15.625,11.890625 15.796875,11.703125 16.296875,11.609375 C16.59375,11.5625 16.9375,11.46875 17.265625,11.34375 C17.578125,11.203125 17.875,11.0625 18.09375,10.921875 C18.8125,10.4375 19.296875,10 19.59375,9.390625 C19.90625,8.765625 20.03125,7.984375 20.0625,6.828125 C20.078125,6.03125 19.953125,5.25 19.6875,4.515625 C19.40625,3.765625 19.015625,3.09375 18.484375,2.5625 C18.078125,2.15625 17.59375,1.828125 17.078125,1.59375 C16.5625,1.359375 16.015625,1.21875 15.5,1.21875 C14.8125,1.21875 14.046875,1.3125 13.578125,1.671875 C13.0625,2.109375 12.796875,2.5 12.640625,2.890625 C13.25,3.21875 13.71875,3.671875 14.1875,4.171875 C14.65625,4.703125 15.078125,5.28125 15.359375,5.84375 C15.875,5.5625 16.40625,5.1875 16.671875,4.921875 C17.078125,4.53125 17.421875,4.328125 17.703125,4.328125 C18.171875,4.328125 18.359375,4.5625 18.359375,4.953125 C18.359375,5.3125 18.171875,5.65625 17.765625,6 C17.53125,6.203125 17.1875,6.421875 16.8125,6.609375 C16.4375,6.796875 16.03125,6.953125 15.6875,7.015625 C15.890625,7.765625 15.9375,8.640625 15.71875,9.484375 C15.5,10.328125 14.90625,10.78125 14.015625,10.78125 C13.609375,10.78125 13.234375,10.671875 12.875,10.375 C12.5,10.0625 12.140625,9.546875 11.8125,8.796875 C11.546875,8.1875 11.390625,7.34375 11.3125,6.640625 C10.75,6.40625 10.15625,5.84375 9.78125,5.453125 C9.078125,4.75 8.671875,3.9375 8.734375,3.34375 C8.78125,2.875 8.984375,2.5625 9.265625,2.375 C9.53125,2.1875 9.875,2.109375 10.25,2.109375 C10.484375,2.109375 10.8125,2.15625 11.125,2.21875 C11.421875,2.28125 11.71875,2.375 11.90625,2.46875 C12.234375,1.8125 12.59375,1.28125 13.296875,0.78125 C13.734375,0.453125 14.46875,0.21875 15.359375,0.21875 C16.03125,0.21875 16.765625,0.40625 17.4375,0.671875 C18.09375,0.921875 18.671875,1.25 19.078125,1.53125 C19.984375,2.1875 20.640625,3.03125 21.0625,3.9375 C21.484375,4.859375 21.671875,5.84375 21.671875,6.84375 C21.671875,7.96875 21.421875,8.78125 21.140625,9.296875 C20.953125,9.640625 20.765625,9.90625 20.546875,10.15625 C20.3125,10.390625 20.03125,10.65625 19.65625,10.96875 C19.0625,11.46875 18.171875,11.84375 17.421875,12.078125 C17.203125,12.140625 17.03125,12.21875 16.90625,12.265625 C16.78125,12.328125 16.703125,12.390625 16.65625,12.453125 C16.5625,12.59375 16.59375,12.765625 16.671875,13.03125 C16.734375,13.203125 16.8125,13.40625 16.90625,13.625 C17.09375,14.03125 17.296875,14.40625 17.484375,14.734375 L17.6875,15.09375 C17.796875,15.296875 17.921875,15.5625 18.015625,15.84375 C18.109375,16.125 18.171875,16.390625 18.171875,16.625 C18.171875,16.90625 18.15625,17.265625 18.03125,17.5 C17.796875,17.953125 17.453125,18.1875 17,18.1875 C16.609375,18.1875 15.9375,18.078125 15.1875,17.5625 C14.4375,17.0625 13.15625,15.953125 11.515625,14.203125 C10.828125,13.46875 10,12.5625 9.21875,11.65625 C8.421875,10.765625 7.6875,9.84375 7.21875,9.09375 C7.265625,10.015625 7.3125,10.796875 7.375,11.421875 C7.4375,12.0625 7.484375,12.625 7.515625,13.125 C7.5625,13.734375 7.625,14.375 7.671875,14.921875 C7.71875,15.46875 7.796875,15.9375 7.859375,16.21875 L8.109375,17.359375 C8.1875,17.734375 8.078125,18.09375 7.8125,18.359375 C7.53125,18.640625 7.109375,18.9375 6.59375,19.125 C6.21875,19.28125 5.859375,19.34375 5.40625,19.390625 Z M12.078125,7.03125 C12.109375,7.578125 12.296875,8.25 12.53125,8.8125 C12.875,9.59375 13.265625,9.984375 13.71875,9.96875 C14.328125,9.921875 14.46875,9.578125 14.46875,8.734375 C14.46875,8.265625 14.40625,7.734375 14.265625,7.28125 C13.484375,7.328125 12.625,7.203125 12.078125,7.03125 Z M5.40625,7.015625 C5.28125,6.828125 4.921875,6.265625 4.578125,5.640625 C4.359375,5.234375 4.203125,4.9375 4.09375,4.765625 C3.984375,4.59375 3.890625,4.515625 3.796875,4.515625 C3.671875,4.515625 3.59375,4.640625 3.546875,4.890625 C3.5,5.140625 3.484375,5.46875 3.484375,5.859375 C3.484375,7.421875 3.640625,8.46875 3.828125,9 C3.96875,9.5625 4.203125,9.671875 4.625,8.84375 C4.828125,8.46875 5.09375,7.90625 5.40625,7.015625 Z M12.078125,5.984375 C12.734375,6.171875 13.328125,6.203125 13.953125,6.125 C13.84375,5.75 13.59375,5.28125 13.3125,4.828125 C13.015625,4.390625 12.671875,3.953125 12.34375,3.671875 C12.234375,4.03125 12.140625,4.484375 12.09375,4.90625 C12.046875,5.328125 12.03125,5.703125 12.078125,5.984375 Z M11.28125,5.796875 C11.25,4.953125 11.40625,4.046875 11.59375,3.296875 C11.1875,3 10.671875,2.90625 10.21875,2.90625 C9.59375,2.90625 9.40625,3.125 9.40625,3.5 C9.40625,3.78125 9.453125,4.015625 9.59375,4.25 C9.71875,4.46875 9.890625,4.703125 10.171875,5 C10.53125,5.375 11,5.609375 11.28125,5.796875 Z" transform="translate(0.046875, 19.390625) scale(1, -1)"/>
</svg>