<svg height="19.09375" viewBox="0 0 24 19.09375" width="24" xmlns="http://www.w3.org/2000/svg">
<path d="M14.015625,17.9375 C14.546875,17.890625 14.875,17.765625 15.1875,17.59375 C15.5,17.421875 15.6875,17.28125 15.765625,17.09375 C15.84375,16.921875 15.8125,16.703125 15.71875,16.375 C15.546875,15.796875 15.265625,15.15625 14.984375,14.5625 C14.6875,13.953125 14.359375,13.390625 14.09375,12.96875 C13.859375,12.578125 13.859375,12.203125 14.453125,12 C14.6875,11.921875 14.96875,11.796875 15.21875,11.703125 C15.453125,11.59375 15.65625,11.46875 15.796875,11.375 C15.96875,11.25 15.96875,11.015625 15.71875,10.78125 C15.21875,10.28125 14.46875,9.6875 13.671875,9.140625 C13.015625,8.6875 12.125,8.15625 11.3125,7.78125 L11.59375,7.34375 C12.734375,7.75 13.703125,8.15625 14.5,8.5625 C16.09375,9.390625 17.140625,9.921875 17.5625,10.390625 C17.78125,10.625 17.890625,10.84375 17.890625,11.046875 C17.890625,11.46875 17.71875,11.703125 17.421875,11.9375 C17.28125,12.03125 16.953125,12.171875 16.5625,12.3125 C16.15625,12.453125 15.671875,12.609375 15.234375,12.71875 C14.921875,12.796875 14.828125,12.984375 15.09375,13.34375 C15.40625,13.765625 15.78125,14.28125 16.15625,14.75 C16.53125,15.21875 16.90625,15.640625 17.234375,15.96875 C17.796875,16.515625 17.703125,17.015625 17.3125,17.46875 C17.234375,17.5625 17.140625,17.65625 17,17.75 C16.765625,17.9375 16.4375,18.109375 16.078125,18.234375 C15.71875,18.359375 15.265625,18.40625 14.921875,18.40625 C14.75,18.40625 14.515625,18.40625 14.234375,18.359375 Z M7.15625,15.6875 C7.5625,15.453125 7.796875,15.25 8.09375,14.984375 C8.40625,14.703125 8.578125,14.46875 8.640625,14.15625 C8.6875,13.84375 8.609375,13.4375 8.421875,12.828125 C8.296875,12.390625 8.140625,11.84375 7.953125,11.1875 C7.5625,9.859375 7.140625,8.328125 6.78125,6.796875 C6.40625,5.265625 6.09375,3.390625 6.09375,2.40625 C6.09375,1.8125 6.1875,1.296875 6.53125,0.6875 C6.796875,0.234375 7.453125,-0.078125 8.15625,-0.296875 C8.71875,-0.46875 9.375,-0.578125 10,-0.625 C10.625,-0.6875 11.234375,-0.6875 11.734375,-0.6875 C12.578125,-0.6875 13.65625,-0.5625 14.625,-0.375 C15.59375,-0.1875 16.46875,0.0625 16.921875,0.296875 C17.078125,0.375 17.234375,0.484375 17.40625,0.59375 C17.71875,0.828125 18.046875,1.234375 18.046875,1.625 C18.046875,1.8125 17.96875,1.96875 17.8125,2.09375 C17.671875,2.1875 17.5625,2.28125 17.46875,2.390625 C17.28125,2.578125 17.171875,2.796875 17.046875,3.03125 L16.859375,3.390625 C16.203125,4.5625 15.546875,6.09375 15,7.5625 L14.5,7.421875 C14.703125,6.78125 14.875,6.15625 15.03125,5.515625 C15.203125,4.859375 15.359375,4.25 15.53125,3.625 C15.671875,3.078125 15.78125,2.6875 15.796875,2.375 C15.8125,2.046875 15.734375,1.8125 15.5,1.578125 C15.265625,1.359375 14.796875,1.15625 14.203125,1.03125 C13.5625,0.890625 13.0625,0.8125 12.65625,0.765625 C12.25,0.703125 11.9375,0.6875 11.609375,0.671875 C11.09375,0.640625 10.53125,0.671875 9.96875,0.71875 C9.421875,0.765625 8.9375,0.828125 8.59375,0.921875 C8.046875,1.015625 7.671875,1.171875 7.453125,1.40625 C7.21875,1.625 7.125,1.953125 7.125,2.375 C7.125,3.5 7.265625,4.984375 7.921875,7.078125 C8.234375,8.078125 8.5625,9.109375 8.84375,9.96875 C9.125,10.8125 9.375,11.484375 9.546875,11.8125 C9.890625,12.484375 10.09375,12.921875 10.203125,13.265625 C10.296875,13.59375 10.296875,13.8125 10.25,14.046875 C10.0625,14.703125 9.65625,15.171875 8.765625,15.640625 C8.40625,15.84375 7.875,16.015625 7.46875,16.109375 Z" transform="translate(-0.0703125, 18.40625) scale(1, -1)"/>
</svg>