<svg height="20.296875" viewBox="0 0 24 20.296875" width="24" xmlns="http://www.w3.org/2000/svg">
<path d="M11.3125,18.875 C11.953125,18.6875 12.359375,18.46875 12.546875,18.25 C12.734375,18.015625 12.734375,17.796875 12.578125,17.59375 C12.09375,17 11.484375,16.453125 10.84375,15.984375 C10.203125,15.515625 9.546875,15.125 9,14.859375 C8.859375,15.84375 8.5,16.671875 8,17.203125 C7.71875,17.5 7.484375,17.640625 7.234375,17.609375 C6.984375,17.59375 6.6875,17.375 6.3125,17.046875 L5.8125,16.578125 C5.609375,16.390625 5.421875,16.203125 5.203125,16.015625 C4.78125,15.625 4.328125,15.21875 3.890625,14.84375 C3.53125,14.515625 3.3125,14.3125 3.3125,13.875 C3.3125,13.546875 3.515625,13.234375 3.875,13.03125 C4.21875,12.828125 4.75,12.71875 5.40625,12.796875 C6.296875,12.890625 7.078125,13.109375 7.875,13.390625 L7.703125,7.53125 C6.359375,6.21875 4.953125,4.671875 3.484375,2.9375 C4.265625,4.203125 4.859375,5.234375 5.328125,6.140625 C5.796875,7.0625 6.140625,7.84375 6.4375,8.59375 C6.671875,9.1875 6.78125,9.59375 6.71875,9.984375 C6.640625,10.5625 6.296875,10.765625 5.796875,10.859375 C5.140625,10.953125 4.703125,10.984375 4.03125,10.96875 L3.78125,10.390625 C4.390625,10.390625 4.8125,10.28125 5.0625,10.03125 C5.296875,9.78125 5.34375,9.375 5.203125,8.765625 C4.875,7.34375 4.203125,5.796875 3.21875,4.0625 C2.984375,3.6875 2.8125,3.375 2.59375,3.140625 C2.359375,2.875 2.328125,2.609375 2.328125,2.28125 C2.328125,2.015625 2.390625,1.625 2.5625,1.34375 C2.703125,1.109375 2.921875,0.921875 3.140625,0.921875 C3.40625,0.921875 3.625,1.21875 3.84375,1.5625 C4.21875,2.15625 4.515625,2.5625 4.8125,2.859375 C5.015625,2.6875 5.234375,2.5 5.421875,2.296875 C5.84375,1.90625 6.21875,1.484375 6.5,1.03125 C6.78125,0.59375 6.90625,0.125 7,-0.140625 C7.03125,-0.265625 7.078125,-0.390625 7.125,-0.484375 C7.25,-0.71875 7.4375,-0.875 7.625,-0.84375 C7.921875,-0.796875 8.125,-0.65625 8.40625,-0.296875 C8.703125,0.09375 8.84375,0.671875 8.8125,1.125 C8.78125,1.46875 8.734375,2.140625 8.734375,2.796875 C8.734375,4.0625 8.765625,5.65625 8.8125,7.390625 C11.390625,9.984375 13.4375,11.3125 15.265625,11.3125 C16.078125,11.3125 16.8125,11 17.34375,10.3125 C17.859375,9.625 18.1875,8.5625 18.1875,7.109375 C18.1875,5.9375 17.984375,4.953125 17.609375,4.15625 C16.4375,4.703125 15.21875,5.015625 14.09375,5.015625 C13.015625,5.015625 12.296875,4.75 11.828125,4.328125 C11.359375,3.90625 11.15625,3.3125 11.15625,2.65625 C11.15625,2.15625 11.421875,1.671875 11.9375,1.296875 C12.4375,0.921875 13.15625,0.6875 14.09375,0.6875 C15.640625,0.6875 17,1.390625 18.03125,2.5625 C18.734375,2.09375 19.421875,1.546875 20.015625,0.890625 C20.1875,0.71875 20.328125,0.5625 20.421875,0.453125 C20.515625,0.34375 20.609375,0.21875 20.703125,0.125 C21.03125,-0.25 21.359375,-0.171875 21.578125,0 C21.796875,0.171875 21.953125,0.5 21.78125,0.9375 C21.671875,1.203125 21.359375,1.53125 21.03125,1.859375 C20.3125,2.515625 19.5625,3.09375 18.71875,3.578125 C19.3125,4.609375 19.625,5.78125 19.625,7.109375 C19.625,8.75 19.21875,10 18.46875,10.84375 C17.71875,11.671875 16.640625,12.078125 15.296875,12.125 C13.59375,12.15625 11.453125,10.921875 8.84375,8.59375 C8.875,9.59375 8.890625,10.578125 8.9375,11.46875 C8.96875,12.375 8.984375,13.203125 9.03125,13.859375 C10.71875,14.609375 12.234375,15.484375 13.65625,16.65625 C13.921875,16.875 14.140625,17.140625 14.28125,17.375 C14.4375,17.609375 14.515625,17.84375 14.515625,17.984375 C14.515625,18.390625 14.234375,18.671875 13.671875,18.921875 C13.25,19.109375 12.5,19.34375 11.703125,19.421875 Z M6.71875,16.484375 C7.015625,16.828125 7.265625,16.8125 7.46875,16.421875 C7.640625,16.078125 7.8125,15.296875 7.859375,14.359375 C7.578125,14.25 7.296875,14.15625 7.046875,14.078125 C6.515625,13.90625 6.0625,13.765625 5.71875,13.703125 C5.375,13.625 4.984375,13.578125 4.6875,13.671875 C4.53125,13.71875 4.4375,13.78125 4.40625,13.859375 C4.3125,14.03125 4.4375,14.265625 4.71875,14.5 C5.421875,15.09375 6.15625,15.828125 6.71875,16.484375 Z M16.875,15.734375 C18.578125,14.890625 19.53125,13.734375 20,12.5 C20.1875,11.984375 20.421875,11.6875 20.703125,11.640625 C20.90625,11.609375 21.1875,11.734375 21.359375,12.046875 C21.453125,12.234375 21.515625,12.53125 21.453125,12.84375 C21.375,13.25 21.078125,13.765625 20.703125,14.1875 C19.859375,15.171875 18.734375,15.78125 17.234375,16.296875 Z M7.53125,1.375 C7.015625,1.859375 6.640625,2.203125 6.28125,2.515625 C5.9375,2.8125 5.59375,3.078125 5.203125,3.390625 C6.109375,4.46875 6.9375,5.40625 7.671875,6.21875 Z M14.140625,4.125 C14.984375,4.09375 15.984375,3.78125 17.015625,3.1875 C16.21875,2.15625 15.171875,1.640625 14.046875,1.609375 C13.34375,1.59375 12.875,1.71875 12.59375,1.90625 C12.296875,2.109375 12.171875,2.390625 12.171875,2.703125 C12.171875,3.125 12.28125,3.5 12.59375,3.765625 C12.890625,4.015625 13.390625,4.140625 14.140625,4.125 Z" transform="translate(-0.140625, 19.421875) scale(1, -1)"/>
</svg>