<svg height="19.671875" viewBox="0 0 24 19.671875" width="24" xmlns="http://www.w3.org/2000/svg">
<path d="M5.1875,18.625 C5.5,18.40625 5.734375,18.09375 5.8125,17.90625 C6,17.453125 6.03125,16.96875 5.8125,16.125 C5.71875,15.75 5.515625,15.171875 5.28125,14.515625 C5.03125,13.859375 4.71875,13.15625 4.4375,12.5 C4.140625,11.859375 3.828125,11.28125 3.578125,10.921875 C3.25,10.453125 3.125,10.203125 3.125,9.6875 C3.125,9.421875 3.140625,9.28125 3.234375,9.1875 C3.328125,9.09375 3.46875,9.0625 3.734375,9.03125 C3.96875,8.984375 4.171875,8.8125 4.3125,8.296875 C4.4375,7.765625 4.515625,6.921875 4.515625,5.546875 L4.515625,4.765625 C4.515625,4.484375 4.515625,4.25 4.5,4 C4.484375,3.5 4.4375,3.0625 4.375,2.734375 L4.265625,2.203125 C4.203125,1.859375 4.15625,1.734375 4.078125,1.375 C4.03125,1.1875 4.015625,1.015625 4.015625,0.84375 C4.015625,0.59375 4.109375,0.328125 4.265625,0.109375 C4.40625,-0.125 4.578125,-0.3125 4.71875,-0.40625 C5.015625,-0.59375 5.34375,-0.5625 5.515625,-0.34375 C5.65625,-0.140625 5.734375,0.140625 5.859375,0.71875 C6.015625,1.515625 6.40625,2.671875 6.828125,3.84375 C7.25,5 7.75,6.15625 8.140625,6.9375 L7.625,7.328125 C7.171875,6.546875 6.8125,5.84375 6.46875,5.125 C6.125,4.390625 5.84375,3.65625 5.515625,2.8125 C5.703125,5.34375 5.671875,6.953125 5.453125,7.953125 C5.234375,8.984375 4.828125,9.40625 4.296875,9.625 C4.765625,10.53125 5.28125,11.625 5.796875,12.671875 C6.296875,13.703125 6.75,14.703125 7.03125,15.40625 C7.421875,16.390625 7.4375,16.96875 7.171875,17.5 C6.890625,18.078125 6.359375,18.671875 5.609375,19.078125 Z M12.78125,18.5 C13.109375,18.375 13.390625,18.234375 13.609375,18.015625 C13.828125,17.78125 13.984375,17.46875 14.0625,17.046875 C14.140625,16.5625 14.140625,15.96875 14.109375,15.5 C13.609375,15.359375 12.984375,14.984375 12.359375,14.515625 C11.75,14.046875 11.09375,13.4375 10.53125,12.734375 L10.90625,12.296875 C12.03125,13.25 13.015625,14.015625 14,14.46875 C13.984375,14.328125 13.96875,14.171875 13.953125,14.046875 L13.921875,13.625 C13.703125,13.375 13.484375,13.109375 13.234375,12.828125 C12.734375,12.265625 12.265625,11.71875 11.84375,11.296875 C11.4375,10.859375 11.078125,10.484375 10.71875,10.15625 C10.34375,9.828125 9.6875,9.359375 9.796875,8.65625 C9.875,8.15625 10.078125,8 10.609375,8.3125 C11.125,8.609375 11.625,8.890625 12.125,9.1875 C12.59375,9.46875 13.09375,9.734375 13.578125,10.015625 C13.546875,9.734375 13.515625,9.484375 13.484375,9.234375 L13.375,8.515625 C13.296875,8.046875 13.4375,7.765625 13.65625,7.625 C13.875,7.515625 14.171875,7.578125 14.546875,7.8125 C15.0625,8.125 15.5,8.328125 15.953125,8.46875 C16.40625,8.59375 16.875,8.640625 17.453125,8.640625 C18.78125,8.640625 19.53125,7.71875 19.53125,5.6875 C19.53125,4.765625 19.390625,3.921875 19.109375,3.171875 C18.84375,2.4375 18.453125,1.828125 17.984375,1.4375 C17.515625,1.0625 17.09375,0.796875 16.65625,0.625 C16.15625,1.921875 15.578125,2.640625 14.796875,3.171875 C14.328125,3.484375 13.71875,3.6875 13.109375,3.6875 C12.5,3.6875 11.9375,3.546875 11.5625,3.234375 C11,2.75 10.921875,2.28125 10.921875,1.921875 C10.921875,1.5625 11.03125,1.25 11.1875,1 C11.328125,0.75 11.53125,0.546875 11.703125,0.4375 C12.59375,-0.171875 13.671875,-0.453125 15.359375,-0.453125 C16.828125,-0.453125 18.28125,0.125 19.34375,1.171875 C20.421875,2.234375 21.125,3.765625 21.125,5.6875 C21.125,6.875 20.671875,7.828125 20.015625,8.484375 C19.34375,9.140625 18.453125,9.5 17.515625,9.5 C17.0625,9.5 16.5625,9.453125 16.0625,9.375 C15.578125,9.28125 15.109375,9.15625 14.734375,8.984375 L14.65625,9.046875 L14.765625,10.578125 C16.140625,11.28125 17.453125,11.78125 18.671875,12 C19.59375,12.171875 20.0625,12.453125 20.0625,12.890625 C20.0625,13.203125 19.859375,13.421875 19.421875,13.515625 C18.625,13.6875 18.078125,13.921875 17.609375,14.15625 L17.265625,13.671875 L18.34375,13.125 C17.921875,12.984375 17.375,12.78125 16.765625,12.53125 C16.15625,12.28125 15.484375,11.984375 14.84375,11.6875 C14.875,12.0625 14.90625,12.40625 14.9375,12.71875 C14.953125,13.015625 14.984375,13.3125 15.03125,13.609375 C15.21875,13.859375 15.421875,14.015625 15.59375,14.15625 C15.9375,14.453125 16.015625,14.65625 16.015625,14.90625 C16.015625,15.21875 15.734375,15.484375 15.21875,15.578125 L15.3125,16.203125 C15.359375,16.4375 15.390625,16.65625 15.4375,16.875 C15.578125,17.578125 15.53125,18.03125 15.046875,18.390625 C14.90625,18.5 14.625,18.640625 14.265625,18.78125 C13.90625,18.90625 13.46875,19 13.078125,19.03125 Z M13.828125,12.40625 C13.8125,12.1875 13.78125,11.96875 13.765625,11.765625 C13.765625,11.5625 13.734375,11.359375 13.703125,11.15625 C13.4375,11.015625 13.15625,10.890625 12.90625,10.765625 C12.640625,10.625 12.40625,10.515625 12.21875,10.390625 L12.140625,10.484375 C12.484375,10.921875 13.125,11.65625 13.828125,12.40625 Z M13.5625,2.59375 C14.40625,2.5625 15.296875,1.875 15.96875,0.40625 C15.78125,0.375 15.546875,0.359375 15.359375,0.359375 C14.109375,0.359375 13.4375,0.546875 12.84375,0.84375 C12.625,0.953125 12.4375,1.125 12.3125,1.328125 C12.171875,1.515625 12.078125,1.71875 12.125,1.875 C12.15625,2.09375 12.25,2.28125 12.484375,2.421875 C12.703125,2.546875 13.046875,2.609375 13.5625,2.59375 Z" transform="translate(-0.125, 19.078125) scale(1, -1)"/>
</svg>