<svg height="21.21875" viewBox="0 0 24 21.21875" width="24" xmlns="http://www.w3.org/2000/svg">
<path d="M9.921875,19.78125 C10.328125,19.5625 10.53125,19.078125 10.296875,18.671875 C10.15625,18.375 9.859375,17.96875 9.546875,17.59375 C9.21875,17.203125 8.890625,16.84375 8.65625,16.65625 C8.296875,16.375 8.03125,16.171875 7.96875,15.796875 C7.9375,15.59375 7.96875,15.40625 8.0625,15 C8.15625,14.59375 8.515625,14.515625 8.84375,14.796875 C9.203125,15.109375 9.5,15.328125 9.96875,15.640625 L10.84375,16.234375 C10.953125,16.3125 11.0625,16.390625 11.171875,16.4375 C11.375,16.5625 11.953125,16.90625 11.703125,16.421875 C11.5625,16.125 11.203125,15.578125 10.828125,15 C10.4375,14.421875 10.015625,13.8125 9.640625,13.34375 C9.09375,12.640625 8.765625,12.34375 8.421875,12.125 C7.828125,11.734375 7.5625,11.546875 7.515625,11.234375 C7.46875,10.90625 7.5,10.5625 7.578125,10.328125 C7.6875,10.015625 8.125,9.9375 8.40625,10.21875 C8.640625,10.46875 8.78125,10.625 9,10.875 C9.1875,11.09375 9.421875,11.359375 9.734375,11.640625 C10.34375,12.171875 10.8125,12.546875 11.3125,12.84375 C11.8125,13.15625 12.328125,13.390625 13.03125,13.671875 C14.0625,14.09375 14.734375,14.171875 15.234375,14.140625 C15.828125,14.09375 16.28125,13.78125 16.28125,12.984375 C16.28125,12.3125 16.0625,11.84375 15.59375,11.453125 C15.28125,11.1875 14.890625,11.015625 14.515625,10.9375 C14.125,10.84375 13.765625,10.84375 13.484375,10.90625 C13.53125,11.046875 13.53125,11.265625 13.453125,11.46875 C13.375,11.65625 13.21875,11.84375 12.984375,11.9375 C12.578125,12.078125 12.1875,12.078125 11.703125,12.125 L11.46875,11.640625 C12.125,11.546875 12.265625,11.3125 12.21875,10.78125 C12.171875,10.5625 12.125,10.234375 12.078125,9.90625 C12.03125,9.734375 12.015625,9.59375 11.984375,9.4375 L11.90625,9.078125 C11.765625,8.5625 11.734375,8.234375 12.125,8 C12.203125,7.953125 12.359375,7.859375 12.53125,7.8125 C12.6875,7.765625 12.859375,7.71875 12.984375,7.8125 C13.390625,8.046875 13.671875,8.140625 14.09375,8.234375 C14.453125,8.328125 14.84375,8.359375 15.265625,8.359375 C15.6875,8.359375 16.09375,8.140625 16.390625,7.765625 C16.671875,7.375 16.859375,6.796875 16.859375,6.09375 C16.859375,5.328125 16.578125,4.515625 16.125,3.921875 C15.40625,2.984375 14.234375,2.453125 13.0625,2.453125 C11.546875,2.453125 10.375,2.9375 9.84375,3.6875 C10.734375,3.75 11.609375,3.96875 12.265625,4.296875 C12.90625,4.625 13.328125,5.09375 13.328125,5.609375 C13.328125,6.5 12.484375,7.15625 10.875,7.15625 C10.1875,7.15625 9.546875,6.96875 9.078125,6.640625 C8.609375,6.3125 8.3125,5.859375 8.3125,5.3125 C8.3125,5 8.34375,4.671875 8.421875,4.390625 C7.984375,4.34375 7.484375,4.328125 6.921875,4.328125 C6.359375,4.328125 5.78125,4.359375 5.1875,4.421875 C4.671875,4.46875 4.15625,4.359375 3.78125,4.09375 C3.40625,3.8125 3.140625,3.390625 3.140625,2.859375 C3.140625,2.375 3.25,1.90625 3.578125,1.453125 C3.90625,1 4.453125,0.5625 5.359375,0.140625 C6.28125,-0.28125 7.375,-0.5625 8.53125,-0.734375 C9.6875,-0.921875 10.90625,-1 12.078125,-1.015625 C15.03125,-1.0625 17.671875,-0.984375 19.625,-0.625 C20.421875,-0.46875 20.75,-0.078125 20.65625,0.34375 C20.609375,0.546875 20.515625,0.703125 20.328125,0.78125 C20.140625,0.875 19.859375,0.875 19.390625,0.796875 C18.3125,0.59375 17.046875,0.4375 15.75,0.3125 C14.46875,0.203125 13.109375,0.125 11.890625,0.171875 C9.078125,0.21875 7.21875,0.46875 5.8125,0.984375 C4.546875,1.453125 4.015625,2.109375 4.015625,2.90625 C4.015625,3.578125 4.53125,3.734375 5.609375,3.625 C6.5,3.546875 7.703125,3.484375 8.765625,3.578125 C9.484375,2.3125 10.9375,1.4375 13.03125,1.4375 C14.875,1.4375 16.21875,2 17.265625,3.125 C18.109375,4.015625 18.453125,5.0625 18.453125,6.046875 C18.453125,7.125 18.125,7.71875 17.640625,8.234375 C17.0625,8.84375 16.203125,9.125 15.34375,9.171875 C14.59375,9.203125 14.046875,9.078125 13.515625,8.984375 C13.15625,8.890625 13.078125,9.046875 13.171875,9.40625 L13.4375,10.421875 C14.328125,10.109375 15.3125,10.203125 16.25,10.625 C16.671875,10.8125 17.0625,11.125 17.34375,11.53125 C17.625,11.9375 17.8125,12.40625 17.8125,12.96875 C17.8125,13.375 17.703125,13.96875 17.28125,14.375 C16.953125,14.703125 16.625,14.890625 16.3125,14.984375 C15.984375,15.078125 15.6875,15.09375 15.390625,15.09375 C15.0625,15.09375 14.625,15.03125 14.171875,14.890625 C13.71875,14.765625 13.25,14.609375 12.828125,14.375 C12.546875,14.234375 12.203125,14.0625 11.796875,13.859375 C11.40625,13.671875 10.953125,13.4375 10.46875,13.171875 C10.90625,13.65625 11.4375,14.265625 11.9375,14.84375 C12.453125,15.40625 12.921875,15.96875 13.25,16.375 C13.5625,16.75 13.671875,16.90625 13.5625,17.203125 C13.453125,17.46875 13.203125,17.703125 12.921875,17.859375 C12.671875,17.984375 12.453125,17.9375 12.078125,17.703125 C11.515625,17.390625 10.65625,17 9.84375,16.65625 C10.140625,16.90625 10.4375,17.234375 10.71875,17.578125 C10.984375,17.90625 11.1875,18.25 11.328125,18.53125 C11.515625,18.921875 11.484375,19.25 11.28125,19.53125 C11.0625,19.796875 10.6875,20 10.21875,20.15625 Z M10.828125,6.484375 C11.71875,6.484375 12.03125,6.21875 12.03125,5.6875 C12.03125,5.390625 11.75,5.125 11.265625,4.921875 C10.78125,4.71875 10.109375,4.578125 9.3125,4.484375 C9.1875,4.78125 9.125,5.0625 9.125,5.375 C9.125,5.75 9.3125,6.03125 9.625,6.21875 C9.921875,6.40625 10.34375,6.484375 10.828125,6.484375 Z" transform="translate(0.0546875, 20.15625) scale(1, -1)"/>
</svg>