<svg height="19.140625" viewBox="0 0 24 19.140625" width="24" xmlns="http://www.w3.org/2000/svg">
<path d="M8.28125,18.4375 C9.40625,18.046875 9.859375,17.328125 9.53125,16.390625 C9.28125,15.6875 8.859375,14.609375 8.390625,13.4375 C7.90625,12.265625 7.375,11 6.890625,10.015625 C6.671875,9.546875 6.546875,9.203125 6.546875,8.796875 C6.546875,8.40625 6.625,8 7.125,7.484375 C7.484375,7.125 7.78125,7.125 8.375,7.375 C8.75,7.515625 9.265625,7.640625 9.765625,7.75 C10.265625,7.84375 10.765625,7.90625 11.046875,7.90625 C11.21875,7.90625 11.359375,7.890625 11.46875,7.859375 C11.65625,7.8125 11.703125,7.65625 11.625,7.390625 C11.578125,7.265625 11.515625,7.09375 11.40625,6.890625 C11.234375,6.546875 10.84375,5.765625 10.4375,4.9375 C10.015625,4.109375 9.640625,3.234375 9.453125,2.734375 C9.3125,2.3125 9.203125,1.953125 9.203125,1.578125 C9.1875,1.21875 9.28125,0.890625 9.59375,0.546875 C9.796875,0.3125 10.03125,0.203125 10.328125,0.15625 C10.625,0.09375 11,0.109375 11.5625,0.140625 C12.890625,0.203125 14.453125,0.3125 16.015625,0.03125 C16.8125,-0.125 17.328125,0.125 17.328125,0.5 C17.328125,0.734375 17.28125,1.015625 16.859375,1.296875 C16.4375,1.578125 16.015625,1.640625 15.390625,1.5625 C14.890625,1.5 14.140625,1.4375 13.34375,1.390625 C12.546875,1.34375 11.703125,1.296875 11.046875,1.296875 C10.25,1.296875 10.03125,1.484375 10.34375,2.203125 C10.625,2.8125 11.0625,3.65625 11.546875,4.484375 C12.03125,5.328125 12.53125,6.125 12.890625,6.59375 C13.203125,7.015625 13.4375,7.421875 13.203125,7.8125 C13.0625,8 12.890625,8.21875 12.703125,8.40625 C12.515625,8.59375 12.328125,8.75 12.1875,8.84375 C11.796875,9.109375 11.421875,9.140625 10.671875,9 C9.640625,8.8125 8.796875,8.6875 7.8125,8.6875 L7.703125,8.8125 C8.796875,11.859375 10.078125,14.34375 11.109375,16.328125 C11.5,17.078125 11.421875,17.609375 10.625,18.21875 C10.21875,18.53125 9.5,18.828125 8.5625,19.015625 Z M11.28125,14.5625 C11.515625,14.09375 11.984375,13.765625 12.53125,13.53125 C13.078125,13.296875 13.71875,13.15625 14.234375,13.125 C14.796875,13.09375 15.40625,13.140625 15.9375,13.234375 C16.46875,13.3125 16.953125,13.453125 17.28125,13.609375 C17.8125,13.859375 18.140625,14.140625 18.046875,14.5625 C18.015625,14.71875 17.828125,14.890625 17.5625,14.984375 C17.28125,15.078125 16.953125,15.078125 16.65625,14.9375 C16,14.5625 15.234375,14.3125 14.203125,14.3125 C13.03125,14.3125 12.234375,14.421875 11.609375,15 Z" transform="translate(-0.34375, 19.015625) scale(1, -1)"/>
</svg>