<svg height="20.359375" viewBox="0 0 24 20.359375" width="24" xmlns="http://www.w3.org/2000/svg">
<path d="M6.21875,15.09375 C7.015625,14.5625 7.78125,14.234375 8.90625,14.09375 C10.078125,13.953125 11.15625,14.046875 11.859375,14.1875 C11.859375,12.484375 11.90625,10.625 12,8.28125 C11.78125,9.078125 11.46875,9.546875 11.09375,10.0625 C10.390625,11 9.390625,11.5 8.359375,11.5 C7.953125,11.5 7.515625,11.4375 7.046875,11.203125 C6.578125,10.96875 6.078125,10.578125 5.546875,9.921875 C5.1875,9.453125 4.84375,8.875 4.578125,8.1875 C4.328125,7.515625 4.15625,6.765625 4.15625,6.03125 C4.15625,5.578125 4.234375,5.171875 4.390625,4.8125 C4.71875,4.0625 5.25,3.640625 5.796875,3.421875 C6.328125,3.21875 6.828125,3.203125 7.21875,3.25 C7.609375,3.296875 8.046875,3.40625 8.5625,3.59375 C9.078125,3.78125 9.6875,4 10.25,4.25 C10.796875,4.484375 11.40625,4.78125 12.125,5.140625 L13.328125,5.734375 C12.578125,4.921875 11.96875,4.203125 11.5,3.359375 C11.046875,2.5625 10.90625,1.90625 10.90625,1.421875 C10.90625,0.34375 11.5,-0.3125 12.578125,-0.671875 C13.46875,-0.96875 14.53125,-1.015625 15.390625,-0.9375 C15.890625,-0.890625 16.3125,-0.78125 16.625,-0.625 C17.421875,-0.25 17.265625,0.375 16.78125,0.53125 C16.515625,0.625 16.296875,0.640625 15.96875,0.671875 C15.59375,0.703125 15.296875,0.640625 14.984375,0.546875 C14.65625,0.453125 14.328125,0.390625 13.953125,0.390625 C13.375,0.390625 12.828125,0.46875 12.578125,0.59375 C12.03125,0.890625 11.90625,1.125 11.90625,1.53125 C11.90625,2.28125 12.25,2.890625 12.96875,3.828125 C13.078125,3.96875 13.21875,4.140625 13.390625,4.34375 C13.734375,4.71875 14.125,5.125 14.5,5.5 C14.859375,5.859375 15.203125,6.15625 15.734375,6.625 C15.984375,6.859375 16.25,7.03125 16.515625,7.15625 C17.0625,7.296875 17.515625,7.4375 17.796875,7.484375 C18.15625,7.578125 18.609375,7.71875 18.984375,7.953125 C19.171875,8.046875 19.265625,8.234375 19.265625,8.375 C19.25,8.515625 19.15625,8.671875 18.984375,8.734375 C18.71875,8.828125 18.34375,8.96875 18.078125,9.09375 C18.03125,9.109375 17.984375,9.140625 17.890625,9.171875 C17.8125,9.21875 17.734375,9.265625 17.640625,9.3125 C17.453125,9.390625 17.234375,9.484375 17.09375,9.53125 C16.578125,9.703125 16.234375,9.4375 15.875,8.859375 C15.5,8.296875 15.046875,7.65625 14.515625,7.03125 L12.484375,6.09375 C12.75,6.3125 12.828125,6.5 12.984375,6.84375 C13.0625,7.015625 13.15625,7.296875 13.21875,7.625 C13.28125,7.953125 13.3125,8.3125 13.28125,8.640625 C13.21875,9.25 13.171875,10.15625 13.140625,11.15625 C13.09375,12.171875 13.09375,13.296875 13.109375,14.375 C13.484375,14.4375 13.765625,14.5 14.078125,14.5625 C14.375,14.609375 14.71875,14.703125 15.1875,14.84375 C15.75,15.015625 16.375,15.171875 16.828125,15.4375 C17.15625,15.625 17.296875,15.859375 17.375,16.078125 C17.515625,16.46875 17.265625,16.78125 16.828125,16.921875 C16.515625,17.015625 16.171875,16.90625 15.890625,16.71875 C15.390625,16.390625 15.03125,16.171875 14.546875,16.03125 C13.8125,15.8125 13.515625,15.71875 13.109375,15.671875 C13.109375,15.921875 13.140625,16.515625 13.203125,17.0625 C13.203125,17.1875 13.234375,17.328125 13.25,17.46875 C13.265625,17.609375 13.296875,17.75 13.296875,17.9375 C13.34375,18.53125 13.0625,18.8125 12.53125,19.03125 C11.890625,19.296875 11.3125,19.34375 10.421875,19.34375 L10.296875,18.921875 C10.765625,18.828125 11.09375,18.640625 11.328125,18.453125 C11.484375,18.328125 11.59375,18.21875 11.671875,18.078125 C11.75,17.921875 11.796875,17.703125 11.796875,17.328125 L11.796875,15.359375 C11.140625,15.21875 10.125,15.09375 8.859375,15.140625 C7.96875,15.171875 7.28125,15.328125 6.34375,15.59375 Z M11.640625,5.796875 C10.984375,5.453125 10.171875,5.1875 8.953125,4.859375 C8.15625,4.625 7.484375,4.46875 6.78125,4.65625 C6.296875,4.78125 6.03125,5.046875 5.859375,5.328125 C5.640625,5.703125 5.609375,6.265625 5.609375,6.734375 C5.609375,7.765625 5.984375,8.734375 6.4375,9.53125 C6.6875,9.96875 7.03125,10.28125 7.390625,10.484375 C7.765625,10.671875 8.109375,10.78125 8.375,10.78125 C9.3125,10.78125 9.875,10.40625 10.375,9.53125 C10.484375,9.328125 10.59375,9.125 10.703125,8.953125 C10.890625,8.59375 11.046875,8.234375 11.171875,7.8125 C11.296875,7.390625 11.390625,6.828125 11.390625,6.546875 C11.375,6.40625 11.375,6.296875 11.375,6.1875 C11.375,5.984375 11.46875,5.859375 11.640625,5.796875 Z" transform="translate(0.2890625, 19.34375) scale(1, -1)"/>
</svg>