<svg height="24" viewBox="0 0 24 24" width="24" xmlns="http://www.w3.org/2000/svg">
<path d="M3.796875,17.1875 C3.9375,16.8125 4.203125,16.46875 4.53125,16.125 C4.859375,15.8125 5.328125,15.5625 5.8125,15.484375 C6.140625,15.4375 6.625,15.453125 7.125,15.625 C7.78125,15.84375 8.203125,16.0625 8.640625,16.328125 C8.046875,15.296875 7.578125,14.59375 7.109375,14.015625 C6.90625,13.78125 6.8125,13.578125 6.8125,13.34375 C6.796875,13.109375 6.875,12.859375 7.03125,12.484375 C7.359375,11.6875 7.65625,10.703125 7.828125,9.671875 C7.15625,9.140625 6.546875,8.65625 5.9375,8.125 C5.328125,7.59375 4.765625,7.015625 4.15625,6.3125 C3.359375,5.375 2.671875,4.4375 2.5625,3.265625 C2.484375,2.4375 2.734375,1.703125 3.171875,1.15625 C3.625,0.625 4.28125,0.265625 5.109375,0.265625 C5.703125,0.265625 6.21875,0.34375 6.640625,0.46875 C7.484375,0.734375 8.109375,1.234375 8.515625,1.765625 C8.90625,2.28125 9.171875,2.890625 9.34375,3.609375 C9.515625,4.3125 9.625,5.0625 9.625,5.84375 C9.625,6.21875 9.609375,6.609375 9.578125,7.015625 C9.5,7.8125 9.375,8.609375 9.265625,9.359375 C10.390625,10.25 11.640625,11.1875 12.875,12 C14.09375,12.828125 15.296875,13.53125 16.328125,14.046875 C16.15625,12.921875 16.03125,11.875 15.9375,10.78125 C15.84375,9.6875 15.78125,8.578125 15.78125,7.375 C15.734375,5.953125 16.296875,5.4375 17.5,5.375 C18.03125,5.34375 18.765625,5.3125 19.203125,5.234375 C19.84375,5.125 19.890625,4.953125 19.5625,4.34375 C18.828125,3.03125 17.4375,1.71875 15.4375,0.453125 L15.875,0 C16.328125,0.21875 16.765625,0.453125 17.203125,0.703125 C18.046875,1.203125 18.8125,1.734375 19.453125,2.265625 C20.09375,2.78125 20.625,3.3125 21,3.796875 C21.359375,4.265625 21.546875,4.765625 21.421875,5.25 C21.296875,5.734375 20.890625,5.984375 20.515625,6.125 C20.140625,6.25 19.8125,6.28125 19.421875,6.328125 L18.21875,6.4375 C18.015625,6.453125 17.875,6.46875 17.765625,6.484375 C17.5,6.5 17.359375,6.578125 17.28125,6.734375 C17.1875,6.875 17.15625,7.140625 17.15625,7.5625 C17.15625,8.5625 17.203125,9.734375 17.296875,10.9375 C17.375,12.140625 17.484375,13.390625 17.609375,14.5625 C17.8125,14.65625 17.984375,14.734375 18.140625,14.796875 C18.296875,14.84375 18.453125,14.921875 18.578125,14.984375 C18.875,15.125 18.984375,15.40625 18.59375,15.875 C18.40625,16.109375 18.1875,16.390625 17.953125,16.859375 C17.765625,17.21875 17.609375,17.421875 17.375,17.375 C17.140625,17.34375 16.984375,17.0625 16.875,16.671875 C16.75,16.21875 16.625,15.609375 16.484375,14.953125 C15.21875,14.34375 13.875,13.59375 12.578125,12.8125 C11.265625,12.015625 10.015625,11.1875 8.9375,10.4375 C8.5625,11.375 8.140625,12.171875 7.78125,12.78125 C7.515625,13.203125 7.546875,13.34375 7.875,13.71875 C8.734375,14.703125 9.34375,15.5 9.9375,16.34375 C10.109375,16.578125 10.21875,16.765625 10.28125,16.953125 C10.375,17.28125 10.25,17.6875 9.78125,17.890625 C9.5,18.015625 9.203125,17.953125 8.546875,17.59375 C8.234375,17.40625 7.8125,17.234375 7.40625,17.09375 C6.984375,16.9375 6.5625,16.8125 6.234375,16.78125 C5.734375,16.71875 5.359375,16.765625 5.046875,16.890625 C4.71875,17.015625 4.46875,17.21875 4.21875,17.5 Z M8.09375,8.515625 C8.28125,7.03125 8.390625,5.421875 8.015625,3.546875 C7.84375,2.703125 7.4375,1.984375 6.734375,1.46875 C6.265625,1.109375 5.609375,0.984375 5.140625,0.984375 C4.609375,0.984375 4.25,1.203125 4.0625,1.5625 C3.875,1.921875 3.8125,2.421875 3.890625,2.984375 C4.015625,3.921875 4.421875,4.71875 5.140625,5.65625 C5.984375,6.734375 7.0625,7.765625 8.09375,8.515625 Z" transform="translate(-0.015625, 18.015625) scale(1, -1)"/>
</svg>