<svg height="20.40625" viewBox="0 0 24 20.40625" width="24" xmlns="http://www.w3.org/2000/svg">
<path d="M10.953125,19.109375 C10.625,19.109375 10.375,18.9375 10.015625,18.40625 C9.765625,18.03125 9.4375,17.5 9.109375,16.90625 C8.78125,16.296875 8.453125,15.671875 8.203125,15.125 C7.484375,14.984375 6.65625,14.96875 5.859375,15.078125 C4.921875,15.203125 4.328125,15.4375 3.890625,15.796875 L3.546875,15.40625 C3.828125,15 4.125,14.703125 4.5,14.453125 C4.859375,14.203125 5.28125,14.03125 5.890625,13.921875 C6.5,13.796875 7.21875,13.796875 7.671875,13.828125 C7.578125,13.5625 7.25,12.96875 6.8125,12.21875 C6.375,11.453125 5.84375,10.546875 5.328125,9.671875 C4.796875,8.796875 4.28125,7.953125 3.890625,7.34375 C3.671875,7.015625 3.578125,6.703125 3.671875,6.390625 C3.71875,6.234375 3.78125,5.984375 3.921875,5.765625 C4.15625,5.40625 4.46875,5.25 5.15625,5.6875 C5.453125,5.875 5.796875,6.09375 6.203125,6.34375 C6.59375,6.59375 7.015625,6.84375 7.4375,7.109375 C7.875,7.390625 8.3125,7.671875 8.765625,7.953125 C9.21875,8.234375 9.640625,8.5 10.0625,8.765625 C10.890625,9.296875 11.59375,9.78125 12.046875,10.109375 C12.234375,9.40625 12.53125,8.53125 12.859375,7.65625 C13.171875,6.765625 13.515625,5.890625 13.828125,5.234375 C13.40625,4.8125 12.78125,4.296875 12.171875,3.78125 C11.546875,3.265625 10.921875,2.796875 10.484375,2.515625 L10.4375,4.078125 L9.9375,3.96875 C9.90625,3.171875 9.796875,2.5 9.578125,2.09375 C9.3125,1.578125 9.234375,1.328125 9.40625,1.109375 C9.640625,0.8125 10.125,0.796875 10.828125,1.28125 C11.234375,1.5625 11.890625,2.046875 12.578125,2.5625 C13.25,3.078125 13.9375,3.640625 14.40625,4.0625 C14.734375,3.40625 15.171875,2.65625 15.59375,1.984375 C16.015625,1.296875 16.40625,0.71875 16.65625,0.4375 C16.875,0.1875 17.140625,-0.109375 17.40625,-0.359375 C17.65625,-0.59375 17.90625,-0.8125 18.09375,-0.9375 C18.5,-1.203125 18.78125,-1.296875 19.25,-1.296875 C19.71875,-1.296875 20.09375,-0.921875 20.09375,-0.546875 C20.09375,-0.484375 20.078125,-0.40625 20.0625,-0.3125 C20.03125,-0.140625 19.90625,-0.015625 19.78125,0.125 C19.71875,0.203125 19.671875,0.28125 19.609375,0.390625 C19.515625,0.5625 19.421875,0.78125 19.3125,1.0625 C19.109375,1.59375 18.90625,2.25 18.6875,2.984375 C18.59375,3.359375 18.46875,3.734375 18.359375,4.109375 L17.734375,4.015625 C17.890625,3.40625 18.03125,2.765625 18.125,2.15625 C18.234375,1.546875 18.328125,0.984375 18.390625,0.546875 C17.890625,1.0625 17.328125,1.796875 16.8125,2.59375 C16.296875,3.390625 15.8125,4.25 15.4375,5 C16.03125,5.5625 16.421875,5.9375 16.5625,6.171875 C16.828125,6.578125 16.953125,7.078125 16.71875,7.484375 C16.5,7.90625 16.0625,8.328125 15.546875,8.609375 L15.09375,8.265625 C15.53125,7.953125 15.640625,7.46875 15.40625,7.0625 C15.3125,6.875 15.078125,6.59375 14.84375,6.3125 C14.5,7.03125 14.171875,7.84375 13.90625,8.609375 C13.625,9.390625 13.390625,10.140625 13.25,10.78125 C13.390625,10.875 13.578125,11.015625 13.734375,11.15625 C13.890625,11.28125 14.03125,11.421875 14.109375,11.515625 C14.328125,11.796875 14.171875,12.125 13.765625,12.21875 C13.34375,12.3125 13.0625,12.375 12.71875,12.59375 C12.5,12.734375 12.234375,12.828125 12,12.796875 C11.90625,12.78125 11.828125,12.671875 11.75,12.53125 C11.6875,12.375 11.65625,12.171875 11.65625,12.03125 C11.703125,11.65625 11.734375,11.234375 11.84375,10.875 C11.421875,10.609375 10.671875,10.1875 9.828125,9.71875 C8.96875,9.234375 8,8.703125 7.109375,8.25 C6.203125,7.78125 5.375,7.390625 4.828125,7.171875 C5.203125,7.65625 5.71875,8.390625 6.265625,9.234375 C6.828125,10.0625 7.40625,10.984375 7.9375,11.84375 C8.453125,12.6875 8.921875,13.46875 9.21875,14.015625 C9.78125,14.15625 10.390625,14.328125 10.953125,14.515625 C11.515625,14.703125 12.046875,14.890625 12.453125,15.125 C13.015625,15.40625 13.484375,15.734375 13.78125,16.03125 C14.015625,16.28125 14.109375,16.484375 14.109375,16.8125 C14.109375,17.078125 13.953125,17.328125 13.4375,17.453125 C12.84375,17.59375 12.1875,18.03125 11.765625,18.546875 C11.546875,18.828125 11.234375,19.109375 10.953125,19.109375 Z M9.59375,15.296875 C10.109375,16.328125 10.640625,17.234375 10.921875,17.6875 C11.140625,18.046875 11.34375,18.125 11.515625,17.90625 C11.578125,17.84375 11.640625,17.765625 11.71875,17.6875 C11.796875,17.59375 11.890625,17.5 11.96875,17.421875 C12.125,17.234375 12.28125,17.0625 12.40625,16.96875 C12.609375,16.8125 12.703125,16.703125 12.703125,16.640625 C12.703125,16.578125 12.640625,16.484375 12.484375,16.390625 C12.171875,16.203125 11.671875,15.96875 11.15625,15.75 C10.625,15.546875 10.0625,15.359375 9.59375,15.296875 Z M17.84375,16.21875 C18.390625,16.625 18.734375,16.59375 19.109375,16.28125 C19.484375,15.9375 19.765625,15.484375 19.859375,14.6875 C19.90625,14.3125 20.203125,14.046875 20.5,14.046875 C20.84375,14.046875 21.125,14.359375 21.171875,14.796875 C21.21875,15.3125 21.03125,15.875 20.703125,16.328125 C20.15625,17.109375 19.5625,17.328125 19.03125,17.328125 C18.453125,17.328125 17.953125,17.09375 17.515625,16.578125 Z" transform="translate(-0.3828125, 19.109375) scale(1, -1)"/>
</svg>