<svg height="24" viewBox="0 0 24 24" width="24" xmlns="http://www.w3.org/2000/svg">
<path d="M8.15625,17.609375 C7.1875,16.71875 6.484375,15.859375 5.890625,14.9375 C5.3125,14.03125 4.828125,13.046875 4.34375,11.953125 C3.828125,10.78125 3.5,9.5625 3.3125,8.40625 C3.109375,7.25 3.03125,6.15625 3.03125,5.265625 C3.03125,4.171875 3.28125,3.484375 3.53125,3.140625 C3.75,2.84375 4.015625,2.640625 4.25,2.640625 C4.53125,2.640625 4.796875,2.703125 4.828125,3.046875 C4.859375,3.359375 4.8125,3.59375 4.71875,4.15625 C4.578125,5.046875 4.53125,6.078125 4.578125,7.015625 C4.625,7.8125 4.671875,8.5 4.78125,9.1875 C4.890625,9.875 5.0625,10.5625 5.359375,11.40625 C5.765625,12.578125 6.125,13.453125 6.625,14.328125 C7.125,15.1875 7.75,16.046875 8.6875,17.203125 Z M15.625,17.109375 C14.859375,16.765625 14.046875,16.109375 13.203125,15.3125 C12.375,14.515625 11.53125,13.53125 10.71875,12.53125 C10.34375,13.65625 9.78125,14.015625 9.078125,14.015625 C8.796875,14.015625 8.46875,13.9375 8.140625,13.796875 C7.8125,13.640625 7.53125,13.4375 7.375,13.15625 L7.609375,12.734375 C8,12.96875 8.296875,13.109375 8.5625,13.109375 C8.8125,13.109375 9.046875,12.96875 9.3125,12.640625 C9.546875,12.359375 9.671875,11.9375 9.78125,11.359375 C9.3125,10.78125 8.921875,10.25 8.5625,9.75 C7.859375,8.765625 7.3125,7.90625 6.890625,7.109375 C6.453125,6.3125 6.15625,5.6875 6.03125,5.15625 C5.890625,4.625 5.90625,4.0625 6.125,3.5 C6.359375,2.9375 7.15625,1.9375 7.90625,1.5 C8.265625,1.28125 8.5625,1.171875 8.8125,1.171875 C9.515625,1.171875 10.0625,1.671875 10.53125,2.765625 C11.015625,3.890625 11.28125,5.578125 11.234375,8.15625 C11.1875,9.578125 11.140625,10.625 11,11.46875 C12.6875,13.765625 14.140625,15.3125 15.265625,16.0625 C16.640625,16.953125 17.140625,16.71875 16.96875,15.34375 C16.84375,14.328125 16.71875,13.15625 16.59375,11.984375 C16.484375,10.8125 16.359375,9.65625 16.296875,8.703125 C16.171875,6.96875 16.0625,5.21875 16.203125,3.890625 C16.328125,2.578125 16.953125,1.625 17.765625,0.96875 C18.5625,0.3125 19.5625,0 20.40625,0 C21.296875,0 21.875,0.171875 22.203125,0.390625 L22.0625,0.984375 C21.5,0.796875 20.90625,0.78125 20.28125,0.921875 C19.734375,1.015625 19.140625,1.296875 18.640625,1.8125 C18.125,2.328125 17.734375,3.0625 17.640625,4.109375 C17.515625,5.421875 17.625,7.109375 17.765625,9.234375 C17.828125,10.1875 17.921875,11.21875 18.03125,12.203125 C18.125,13.171875 18.25,14.09375 18.390625,14.890625 C18.59375,16.109375 18.34375,16.859375 17.8125,17.21875 C17.28125,17.5625 16.5,17.5 15.625,17.109375 Z M9.890625,9.9375 C9.9375,9.390625 9.9375,8.8125 9.9375,8.109375 C9.9375,6.265625 9.796875,4.71875 9.484375,3.59375 C9.28125,2.890625 8.90625,2.40625 8.546875,2.40625 C8.3125,2.40625 8.09375,2.53125 7.90625,2.703125 C7.71875,2.890625 7.546875,3.125 7.4375,3.3125 C7.265625,3.640625 7.203125,4.125 7.25,4.65625 C7.28125,5.171875 7.4375,5.75 7.671875,6.265625 C7.90625,6.75 8.265625,7.359375 8.65625,8 C9.03125,8.625 9.46875,9.296875 9.890625,9.9375 Z" transform="translate(-0.6171875, 17.609375) scale(1, -1)"/>
</svg>