<svg height="19.09375" viewBox="0 0 24 19.09375" width="24" xmlns="http://www.w3.org/2000/svg">
<path d="M5.3125,17.203125 C5.34375,16.796875 5.484375,16.484375 5.8125,15.890625 C6.203125,15.1875 6.671875,14.765625 7.328125,14.765625 C7.921875,14.765625 8.484375,14.84375 9.265625,15.140625 L11.1875,15.875 C11.828125,16.125 12.421875,16.34375 12.984375,16.53125 C12.703125,16.109375 12.328125,15.609375 11.78125,14.96875 C11.21875,14.328125 10.5,13.53125 9.53125,12.5 C8.5625,11.46875 7.84375,10.734375 7.15625,10.078125 C6.453125,9.421875 5.796875,8.84375 4.953125,8.1875 C4.484375,7.8125 4.234375,7.625 3.828125,7.34375 C3.359375,7.03125 3.171875,6.734375 3.171875,6.40625 C3.171875,5.984375 3.265625,5.546875 3.484375,5.234375 C3.703125,4.90625 3.890625,4.953125 4.21875,5.234375 C4.484375,5.453125 4.671875,5.703125 5,6.140625 C5.375,6.640625 5.6875,7.015625 6.046875,7.375 C6.359375,7.375 6.59375,7.0625 6.640625,6.53125 C6.734375,5.859375 6.6875,4.953125 6.59375,4.28125 C6.546875,3.78125 6.515625,3.390625 6.625,3.140625 C6.84375,2.609375 7.3125,2.25 7.71875,2.28125 C7.921875,2.296875 8.078125,2.375 8.1875,2.515625 C8.3125,2.671875 8.421875,2.9375 8.515625,3.359375 C8.859375,4.6875 9.40625,5.84375 9.96875,6.875 C10.046875,7.03125 10.15625,7.1875 10.25,7.328125 C10.484375,7.609375 10.703125,7.8125 10.9375,7.90625 C11.171875,8 11.546875,8 11.609375,7.578125 C11.625,7.390625 11.640625,7.09375 11.640625,6.71875 C11.640625,6.34375 11.640625,5.953125 11.609375,5.453125 C11.5625,4.953125 11.46875,4.34375 11.328125,3.53125 C11.0625,2.046875 10.65625,0.671875 9.9375,-0.96875 L10.390625,-1.25 C11.15625,-0.125 11.671875,1 12.265625,2.359375 C12.84375,2.09375 13.71875,1.96875 14.609375,1.96875 C16.671875,1.96875 18.171875,2.46875 19.25,3.546875 C20.234375,4.53125 20.84375,5.796875 20.84375,7.21875 C20.84375,8.265625 20.515625,9.078125 19.96875,9.6875 C19.4375,10.296875 18.671875,10.71875 17.828125,11 C16.984375,11.28125 16.0625,11.390625 15.171875,11.40625 C14.046875,11.421875 12.765625,11.25 11.546875,10.984375 C10.3125,10.703125 9.140625,10.34375 8.203125,9.984375 C8.578125,10.34375 8.984375,10.734375 9.390625,11.140625 C10.21875,11.9375 11.0625,12.75 11.875,13.5 C12.6875,14.25 13.390625,14.90625 13.96875,15.40625 C14.53125,15.890625 14.890625,16.125 15.171875,16.3125 C15.3125,16.40625 15.390625,16.53125 15.390625,16.703125 C15.390625,16.921875 15.265625,17.1875 14.984375,17.40625 C14.796875,17.53125 14.578125,17.625 14.359375,17.703125 C14.140625,17.765625 13.953125,17.796875 13.859375,17.8125 C13.578125,17.84375 13.390625,17.84375 13.203125,17.796875 C13.015625,17.75 12.828125,17.65625 12.59375,17.546875 C12.125,17.328125 11.453125,17.09375 10.84375,16.890625 C10.234375,16.6875 9.6875,16.53125 9.40625,16.46875 C8.65625,16.296875 8.015625,16.25 7.53125,16.25 C7.0625,16.25 6.65625,16.4375 6.296875,16.8125 C6.078125,17.03125 5.9375,17.25 5.8125,17.5625 Z M6.453125,7.875 C6.6875,8.078125 6.921875,8.25 7.15625,8.421875 C7.40625,8.609375 7.703125,8.78125 8.09375,9 C8.984375,9.5 9.921875,9.8125 10.90625,10.0625 C11.515625,10.203125 12.109375,10.328125 12.734375,10.390625 C13.34375,10.46875 14.03125,10.5 14.84375,10.515625 C16.28125,10.53125 17.34375,10.171875 18.0625,9.578125 C18.78125,8.96875 19.125,8.140625 19.125,7.25 C19.125,5.875 18.703125,4.796875 18.046875,4.078125 C17.25,3.234375 16.109375,2.6875 14.640625,2.6875 C14.234375,2.6875 13.8125,2.734375 13.421875,2.796875 C13.03125,2.84375 12.703125,2.9375 12.484375,3.03125 C12.828125,4.4375 13.015625,5.84375 12.96875,7.109375 C12.90625,8.28125 12.453125,8.703125 11.640625,8.765625 C11.265625,8.796875 10.90625,8.65625 10.546875,8.421875 C10.203125,8.1875 9.875,7.859375 9.59375,7.515625 C8.8125,6.546875 8.359375,5.5 7.875,4.375 C7.90625,4.734375 7.90625,5.078125 7.90625,5.390625 C7.90625,5.703125 7.890625,6.0625 7.859375,6.453125 C7.8125,6.96875 7.6875,7.484375 7.375,7.671875 C7.0625,7.875 6.734375,7.90625 6.453125,7.875 Z" transform="translate(-0.0078125, 17.84375) scale(1, -1)"/>
</svg>