<svg height="20.546875" viewBox="0 0 24 20.546875" width="24" xmlns="http://www.w3.org/2000/svg">
<path d="M10.421875,19.125 C10.703125,19.0625 11,18.96875 11.234375,18.796875 C11.453125,18.640625 11.609375,18.40625 11.609375,18.125 C11.625,17.5625 11.65625,16.9375 11.65625,16.375 C11.640625,15.8125 11.578125,15.296875 11.46875,14.953125 C11,15.046875 10.25,15.171875 9.640625,15.390625 L9.5,14.90625 C9.796875,14.828125 10.15625,14.671875 10.484375,14.53125 C10.796875,14.375 11.0625,14.234375 11.203125,14.140625 C11.328125,14.046875 11.390625,13.9375 11.46875,13.765625 C11.5625,13.53125 11.703125,13.46875 11.890625,13.46875 C12.03125,13.46875 12.21875,13.53125 12.40625,13.734375 C12.578125,13.9375 12.734375,14.265625 12.828125,14.765625 C12.90625,15.1875 12.9375,15.703125 12.953125,16.28125 C12.96875,16.84375 12.953125,17.46875 12.921875,18.078125 C12.875,18.453125 12.84375,18.6875 12.734375,18.84375 C12.609375,19.015625 12.40625,19.125 12.125,19.28125 C11.796875,19.453125 11.203125,19.53125 10.703125,19.578125 Z M16.828125,18.171875 C16.28125,18.25 15.484375,18.171875 14.640625,17.859375 L14.859375,17.375 C15.234375,17.484375 15.5625,17.453125 15.8125,17.328125 C16.046875,17.1875 16.203125,17 16.203125,16.765625 C16.203125,16.390625 15.828125,15.875 15.234375,15.359375 C14.203125,14.46875 12.6875,13.53125 11.09375,12.78125 C10.71875,12.640625 10.234375,12.5 9.734375,12.359375 C9.46875,12.265625 9.21875,12.203125 8.96875,12.125 C8.703125,12.03125 8.46875,11.953125 8.234375,11.890625 L7.484375,11.640625 C7.15625,11.53125 6.828125,11.421875 6.5,11.328125 L5.578125,11.015625 C5,10.828125 4.53125,10.671875 4.34375,10.796875 C4.25,10.859375 4.203125,10.953125 4.203125,11.109375 C4.203125,11.328125 4.25,11.578125 4.328125,11.890625 L3.796875,12.078125 C3.609375,11.796875 3.40625,11.390625 3.25,10.984375 C3.09375,10.578125 2.984375,10.15625 2.984375,9.84375 C2.984375,9.578125 3.0625,9.3125 3.203125,9.09375 C3.34375,8.890625 3.546875,8.734375 3.828125,8.734375 C4.234375,8.734375 4.53125,8.921875 5.046875,9.296875 C5.234375,9.453125 5.53125,9.609375 5.890625,9.796875 C6.625,10.15625 7.46875,10.546875 8.3125,10.890625 C9.140625,11.234375 9.640625,11.421875 10.25,11.65625 C10.84375,11.875 11.46875,12.078125 12.0625,12.28125 L12.890625,12.546875 C13.328125,12.6875 14.171875,12.890625 15.078125,13.0625 C15.96875,13.21875 16.90625,13.34375 17.546875,13.34375 C18.09375,13.34375 18.484375,13.234375 18.734375,13.0625 C18.96875,12.875 19.078125,12.65625 19.078125,12.453125 C19.078125,12.234375 19.03125,12.0625 18.890625,11.90625 C18.75,11.75 18.5,11.625 18.078125,11.515625 C17.46875,11.375 16.765625,11.171875 16.0625,10.953125 C15.359375,10.71875 14.65625,10.515625 14.0625,10.296875 C13.484375,10.0625 13.015625,9.875 12.78125,9.71875 C12.40625,9.484375 12.125,9.21875 11.921875,8.734375 C11.703125,8.25 11.578125,7.546875 11.5625,6.4375 C11.375,6.5625 10.921875,6.5625 10.484375,6.59375 C10.171875,6.609375 9.78125,6.578125 9.453125,6.484375 C9.109375,6.375 8.796875,6.171875 8.609375,5.9375 C8.390625,5.609375 8.328125,5.25 8.375,4.875 C8.40625,4.5 8.53125,4.125 8.6875,3.84375 C8.875,3.515625 9.140625,3.1875 9.453125,2.921875 C9.78125,2.65625 10.109375,2.46875 10.390625,2.421875 C10.296875,2.328125 10.109375,2.171875 9.875,2 C9.625,1.84375 9.34375,1.640625 9.09375,1.484375 C8.6875,1.21875 8.46875,0.984375 8.3125,0.671875 C8.21875,0.484375 8.1875,0.234375 8.296875,0 C8.390625,-0.234375 8.609375,-0.46875 9.03125,-0.625 C9.390625,-0.765625 9.90625,-0.84375 10.4375,-0.890625 C10.953125,-0.953125 11.5,-0.96875 11.90625,-0.96875 C12.296875,-0.96875 12.8125,-0.9375 13.34375,-0.890625 C13.859375,-0.859375 14.40625,-0.78125 14.859375,-0.6875 C15.484375,-0.5625 15.890625,-0.453125 16.328125,-0.21875 C16.734375,0.03125 16.8125,0.453125 16.484375,0.71875 C16.109375,1.03125 15.59375,1.015625 14.890625,0.734375 C14.359375,0.546875 13.90625,0.4375 13.4375,0.359375 C12.96875,0.296875 12.5,0.265625 11.984375,0.265625 C11.796875,0.265625 11.375,0.296875 10.953125,0.3125 C10.53125,0.34375 10.109375,0.390625 9.921875,0.4375 C9.453125,0.5625 9.296875,0.765625 9.796875,1.109375 C10.078125,1.296875 10.609375,1.609375 11.046875,1.8125 C11.421875,1.984375 11.953125,2.234375 12.578125,2.6875 C13.171875,3.125 13.578125,3.8125 13.484375,4.65625 C13.453125,4.984375 13.34375,5.296875 13.1875,5.5625 C13.03125,5.84375 12.84375,6.03125 12.6875,6.171875 C12.6875,6.5 12.671875,6.921875 12.6875,7.328125 C12.6875,7.71875 12.734375,8.09375 12.796875,8.375 C12.875,8.75 13.03125,9.03125 13.4375,9.265625 C13.734375,9.453125 14.296875,9.65625 14.953125,9.859375 C15.609375,10.046875 16.34375,10.25 17.015625,10.421875 C17.6875,10.578125 18.296875,10.703125 18.671875,10.765625 C19.53125,10.890625 20.046875,11.140625 20.375,11.453125 C20.6875,11.765625 20.796875,12.125 20.796875,12.5 C20.796875,12.96875 20.453125,13.484375 20.046875,13.71875 C19.484375,14.0625 18.921875,14.203125 18.171875,14.203125 C17.46875,14.203125 16.4375,14.09375 15.3125,13.828125 L14.28125,13.5625 C13.875,13.453125 13.390625,13.3125 12.71875,13.125 C15.0625,14.203125 16.484375,15.078125 17.359375,15.875 C17.890625,16.34375 18.078125,16.671875 18.078125,17.15625 C18.078125,17.65625 17.625,18.0625 16.828125,18.171875 Z M7.296875,17.140625 C7.125,16.875 6.96875,16.609375 6.859375,16.34375 C6.609375,15.78125 6.5,15.375 6.5,14.921875 C6.5,14.6875 6.53125,14.46875 6.59375,14.265625 C6.734375,13.90625 7.015625,13.78125 7.390625,14.109375 C8.09375,14.71875 8.890625,15.40625 10.015625,16.171875 L9.890625,16.421875 C8.8125,15.96875 8.21875,15.796875 7.78125,15.6875 C7.5625,15.640625 7.515625,15.765625 7.515625,16.03125 C7.515625,16.21875 7.53125,16.625 7.765625,16.96875 Z M10.46875,5.5625 C10.90625,5.5625 11.234375,5.46875 11.375,5.234375 L11.46875,5.046875 C11.5,5 11.515625,4.9375 11.53125,4.859375 C11.5625,4.71875 11.578125,4.515625 11.5625,4.203125 C11.515625,3.296875 11.078125,3.078125 10.5625,3.171875 C10.296875,3.21875 10.015625,3.34375 9.796875,3.59375 C9.5625,3.828125 9.390625,4.171875 9.34375,4.65625 C9.28125,5.1875 9.71875,5.5625 10.46875,5.5625 Z" transform="translate(0.109375, 19.578125) scale(1, -1)"/>
</svg>