<svg height="20.5625" viewBox="0 0 24 20.5625" width="24" xmlns="http://www.w3.org/2000/svg">
<path d="M8.609375,19.484375 C7.90625,19.15625 7.8125,18.59375 8.140625,17.796875 C8.40625,17.140625 8.703125,16.421875 9,15.796875 C8.46875,15.40625 7.921875,15 7.296875,14.5 C6.84375,14.140625 6.59375,14.296875 6.5,14.65625 C6.46875,14.796875 6.453125,15.046875 6.40625,15.34375 C6.375,15.625 6.375,15.953125 6.390625,16.25 L5.734375,16.34375 C5.546875,15.640625 5.46875,15.03125 5.46875,14.421875 C5.46875,13.765625 5.640625,13.203125 5.953125,12.828125 C6.171875,12.546875 6.46875,12.375 6.6875,12.40625 C6.984375,12.453125 7.21875,12.71875 7.46875,13.0625 C7.703125,13.390625 8,13.765625 8.359375,14.140625 C8.671875,14.453125 8.984375,14.734375 9.3125,15.03125 C9.578125,14.375 9.84375,13.71875 10.125,13.0625 C9.140625,12.125 8.140625,11.234375 7.484375,10.671875 C7.15625,10.390625 6.890625,10.1875 6.671875,10.03125 C6.4375,9.875 6.234375,9.734375 6.046875,9.59375 C5.859375,9.453125 5.609375,9.140625 5.609375,8.859375 C5.609375,8.109375 6.078125,7.890625 6.875,7.921875 C8.421875,7.984375 9.9375,8.359375 11.734375,9.03125 C11.859375,8.703125 11.984375,8.390625 12.109375,8.078125 L12.484375,7.0625 C11.40625,6.484375 10.359375,5.890625 9.265625,5.234375 C7.578125,4.234375 6.875,3.140625 6.875,2.015625 C6.875,0.859375 7.4375,0.078125 8.9375,-0.484375 C9.359375,-0.640625 9.890625,-0.75 10.484375,-0.828125 C11.09375,-0.890625 11.734375,-0.9375 12.34375,-0.9375 C12.875,-0.9375 13.40625,-0.875 13.890625,-0.8125 C14.375,-0.734375 14.796875,-0.640625 15.078125,-0.546875 C15.5,-0.40625 15.78125,-0.171875 15.78125,0.09375 C15.78125,0.40625 15.53125,0.734375 15.046875,0.828125 C14.65625,0.90625 14.171875,0.8125 13.859375,0.71875 C13.34375,0.578125 12.75,0.515625 12.140625,0.484375 C11.328125,0.453125 10.296875,0.5 9.453125,0.6875 C8.28125,0.96875 7.875,1.4375 7.875,2.0625 C7.875,2.953125 8.421875,3.6875 9.734375,4.46875 C10.765625,5.078125 11.796875,5.609375 12.828125,6.140625 L13.828125,3.390625 C14.046875,2.8125 14.375,2.515625 14.8125,2.515625 C15.171875,2.515625 15.296875,2.84375 15.296875,3.125 C15.296875,3.40625 15.328125,3.875 15.359375,4.28125 C15.40625,4.609375 15.453125,5.0625 15.546875,5.46875 L15.046875,5.796875 C15.015625,5.640625 14.984375,5.5 14.9375,5.390625 C14.90625,5.28125 14.875,5.15625 14.84375,5.046875 C14.796875,4.828125 14.734375,4.625 14.6875,4.328125 L13.78125,6.625 C15.859375,7.65625 17.78125,8.515625 19.859375,9.359375 C20.609375,9.6875 21.046875,10.171875 21.046875,10.609375 C21.046875,10.96875 20.890625,11.296875 20.359375,11.609375 C19.921875,11.890625 19.296875,12.0625 18.40625,12.1875 L18.09375,11.609375 C18.59375,11.546875 18.953125,11.390625 19.15625,11.15625 C19.390625,10.890625 19.390625,10.609375 18.734375,10.28125 C17.90625,9.859375 17.046875,9.421875 16.15625,8.984375 C15.265625,8.515625 14.34375,8.046875 13.390625,7.5625 C13.125,8.21875 12.890625,8.8125 12.671875,9.390625 C12.96875,9.5 13.25,9.609375 13.515625,9.734375 C14.0625,9.984375 14.4375,10.21875 14.953125,10.515625 C15.21875,10.671875 15.421875,10.8125 15.59375,10.96875 C15.875,11.21875 15.890625,11.609375 15.71875,11.84375 C15.515625,12.078125 15,12.0625 14.65625,11.84375 C14.609375,11.796875 14.515625,11.75 14.421875,11.6875 C14.3125,11.625 14.1875,11.5625 14.078125,11.46875 C13.953125,11.390625 13.828125,11.328125 13.703125,11.25 C13.4375,11.09375 13.15625,10.953125 12.796875,10.765625 L12.21875,10.484375 C12.046875,10.90625 11.890625,11.3125 11.75,11.6875 C11.59375,12.0625 11.453125,12.453125 11.3125,12.84375 C12.4375,13.828125 13.328125,14.65625 13.78125,15.125 C14.59375,15.96875 14.671875,16.53125 14.3125,17.015625 C14.171875,17.203125 13.984375,17.359375 13.796875,17.46875 C13.609375,17.5625 13.4375,17.65625 13.328125,17.6875 C13.109375,17.75 12.90625,17.796875 12.640625,17.75 C12.390625,17.71875 12.0625,17.625 11.640625,17.421875 C11.234375,17.234375 10.671875,16.921875 10.015625,16.484375 L9.578125,17.9375 C9.328125,18.734375 9.671875,18.984375 10.8125,18.890625 L10.875,19.484375 C10.40625,19.578125 9.9375,19.625 9.546875,19.625 C9.140625,19.625 8.796875,19.578125 8.609375,19.484375 Z M12.21875,16.90625 C12.546875,16.90625 12.828125,16.78125 12.921875,16.578125 C13.03125,16.359375 12.984375,16.0625 12.71875,15.6875 C12.40625,15.265625 11.703125,14.5625 10.953125,13.8125 C10.703125,14.46875 10.46875,15.09375 10.25,15.796875 C11.140625,16.453125 11.890625,16.90625 12.21875,16.90625 Z M10.484375,12.171875 C10.625,11.84375 10.765625,11.515625 10.890625,11.171875 C11.015625,10.828125 11.15625,10.484375 11.3125,10.109375 C9.84375,9.546875 8.3125,9.1875 6.9375,9.140625 L6.84375,9.265625 C8.015625,10.109375 9.3125,11.140625 10.484375,12.171875 Z" transform="translate(-1.2578125, 19.625) scale(1, -1)"/>
</svg>