<svg height="20.65625" viewBox="0 0 24 20.65625" width="24" xmlns="http://www.w3.org/2000/svg">
<path d="M10.484375,18.96875 C10.859375,18.828125 11.109375,18.75 11.328125,18.53125 C11.515625,18.359375 11.453125,18.125 11.046875,17.984375 C10.4375,17.78125 9.546875,17.359375 8.65625,16.859375 C7.765625,16.375 6.890625,15.796875 6.359375,15.3125 C6.078125,15.046875 5.796875,14.765625 5.578125,14.46875 C5.375,14.1875 5.234375,13.859375 5.234375,13.515625 C5.234375,13.1875 5.328125,12.859375 5.578125,12.59375 C5.8125,12.3125 6.21875,12.09375 6.78125,12 C7.203125,11.921875 7.8125,11.890625 8.46875,11.9375 C9.109375,11.96875 9.765625,12.0625 10.328125,12.234375 C10.171875,11.96875 10.015625,11.703125 9.84375,11.421875 C9.671875,11.125 9.515625,10.828125 9.359375,10.515625 C9.125,10.015625 9.1875,9.671875 9.6875,9.34375 C10.296875,8.953125 10.75,8.46875 11.109375,7.875 C9.21875,6.5 7.34375,4.953125 5.59375,3.296875 C5.59375,3.625 5.640625,4.078125 5.703125,4.5625 C5.78125,5.03125 5.875,5.546875 6,6 C6.25,6.9375 5.84375,7.5625 4.53125,7.96875 L4.203125,7.421875 C4.578125,7.265625 4.828125,7.0625 4.984375,6.796875 C5.265625,6.265625 5,5.65625 4.765625,4.90625 C4.65625,4.53125 4.546875,4.140625 4.4375,3.734375 C4.296875,3.140625 4.21875,2.546875 4.21875,2.140625 C4.21875,1.84375 4.375,1.578125 4.578125,1.40625 C4.765625,1.234375 5,1.125 5.203125,1.125 C5.453125,1.125 5.625,1.3125 5.859375,1.609375 C6.0625,1.859375 6.234375,2.0625 6.453125,2.28125 C6.96875,1.96875 7.390625,1.65625 7.78125,1.265625 C8.1875,0.875 8.5625,0.40625 8.984375,-0.21875 C9.078125,-0.359375 9.171875,-0.46875 9.21875,-0.546875 L9.453125,-0.875 C9.703125,-1.1875 10.109375,-1.140625 10.5625,-0.875 C10.890625,-0.6875 11.171875,-0.46875 11.421875,-0.203125 C11.65625,0.078125 11.890625,0.390625 12.140625,0.796875 C12.84375,1.96875 13.15625,3.359375 13.15625,4.828125 C13.15625,6.203125 12.875,7.15625 12.40625,7.953125 C14.109375,9.171875 15.765625,10.109375 17.1875,10.421875 C17.9375,10.59375 18.09375,10.28125 17.953125,9.828125 C17.84375,9.46875 17.75,9.140625 17.65625,8.828125 L17.375,7.953125 C17.203125,7.390625 17.046875,6.671875 16.96875,6.171875 C16.90625,5.796875 16.90625,5.5625 17.09375,5.203125 C17.1875,4.984375 17.34375,4.90625 17.515625,4.78125 C17.703125,4.65625 17.9375,4.703125 18.21875,4.828125 C18.828125,5.09375 19.421875,5.296875 20.046875,5.265625 C20.609375,5.234375 20.953125,5.046875 20.953125,4.46875 C20.953125,4.015625 20.421875,3.5 19.5,2.953125 C18.578125,2.40625 17.25,1.828125 15.6875,1.296875 L16.109375,0.671875 C18.03125,1.296875 19.65625,1.90625 20.796875,2.5625 C21.921875,3.203125 22.5625,3.859375 22.5625,4.5625 C22.5625,5.125 22.296875,5.484375 21.890625,5.71875 C21.5,5.9375 20.984375,6.03125 20.5,6.03125 C19.65625,6.03125 19.015625,5.890625 18.359375,5.609375 C18.125,5.515625 18,5.546875 18.046875,5.84375 C18.078125,5.984375 18.109375,6.140625 18.171875,6.3125 C18.265625,6.671875 18.421875,7.046875 18.578125,7.421875 L18.78125,7.921875 C18.859375,8.125 18.9375,8.328125 19.015625,8.53125 L19.265625,9.109375 C19.40625,9.484375 19.515625,9.828125 19.515625,10.15625 C19.515625,10.4375 19.375,10.78125 19.0625,11 C18.734375,11.203125 18.21875,11.296875 17.46875,11.15625 C16.71875,11.015625 15.875,10.703125 14.9375,10.25 C14.015625,9.78125 13.015625,9.1875 12.03125,8.515625 C11.546875,9.09375 10.953125,9.5 10.25,9.875 C9.953125,10.015625 9.90625,10.25 10.125,10.5625 C10.265625,10.765625 10.390625,10.953125 10.53125,11.125 L10.90625,11.640625 C11.1875,11.984375 11.46875,12.3125 11.84375,12.6875 C12.4375,12.9375 12.875,13.15625 13.21875,13.484375 C13.34375,13.625 13.40625,13.75 13.40625,13.875 C13.40625,14 13.328125,14.140625 13.15625,14.28125 C13.015625,14.421875 12.75,14.609375 12.53125,14.703125 C12.21875,14.84375 11.953125,14.9375 11.6875,14.640625 C11.421875,14.359375 11.171875,14 10.8125,13.515625 C10.4375,13.390625 10.078125,13.296875 9.71875,13.21875 C8.984375,13.0625 8.328125,13 7.734375,13 C7.4375,13 7.1875,13.015625 6.96875,13.0625 C6.40625,13.15625 6.125,13.375 6.125,13.65625 C6.125,14.046875 6.359375,14.3125 6.921875,14.734375 C7.71875,15.359375 8.671875,15.859375 9.71875,16.25 C10.765625,16.65625 11.90625,16.953125 13.078125,17.1875 C13.78125,17.328125 13.921875,17.78125 13.34375,18.390625 C12.875,18.890625 12.125,19.21875 10.859375,19.46875 Z M11.421875,7.171875 C11.703125,6.515625 11.796875,5.703125 11.765625,4.703125 C11.734375,3.375 11.3125,2.09375 10.515625,1.109375 C10.171875,0.6875 9.96875,0.6875 9.578125,1.03125 C9.296875,1.28125 8.84375,1.609375 8.375,1.921875 C7.90625,2.234375 7.375,2.5625 6.921875,2.796875 C8.546875,4.671875 9.96875,6.015625 11.421875,7.171875 Z" transform="translate(-1.3828125, 19.46875) scale(1, -1)"/>
</svg>