<svg height="20.09375" viewBox="0 0 24 20.09375" width="24" xmlns="http://www.w3.org/2000/svg">
<path d="M11.6875,18.03125 C12.046875,17.5625 12.546875,17.21875 13.296875,17.140625 C13.78125,17.09375 14.390625,17.09375 14.953125,17.15625 C15.5,17.203125 16.015625,17.296875 16.328125,17.421875 C16.15625,17.1875 15.859375,16.890625 15.515625,16.578125 C15.171875,16.25 14.796875,15.9375 14.453125,15.6875 C14.125,15.453125 13.859375,15.28125 13.609375,15.125 C13.359375,14.984375 13.109375,14.828125 12.78125,14.640625 C12.53125,14.40625 12.484375,14.25 12.53125,14.015625 C12.578125,13.796875 12.59375,13.71875 12.78125,13.53125 C13.015625,13.40625 13.15625,13.40625 13.515625,13.578125 C13.859375,13.765625 14.28125,13.953125 14.65625,14.109375 C15.03125,14.28125 15.359375,14.40625 15.53125,14.453125 C16.1875,14.640625 16.390625,14.5 16.125,14.109375 C15.71875,13.53125 14.9375,12.828125 14.046875,12.078125 C13.890625,11.9375 13.75,11.828125 13.625,11.75 C13.390625,11.5625 13.15625,11.453125 12.921875,11.34375 L12.53125,11.15625 C12.140625,10.984375 11.765625,10.859375 11.28125,10.703125 C10.875,10.578125 10.734375,10.515625 10.609375,10.171875 C10.53125,9.921875 10.484375,9.6875 10.515625,9.4375 C10.5625,8.71875 11.421875,9.34375 11.984375,9.671875 C12.265625,9.828125 12.59375,10 12.96875,10.203125 C13.671875,10.578125 14.390625,10.9375 15.03125,11.21875 C15.65625,11.484375 16.21875,11.65625 16.71875,11.65625 C17.421875,11.65625 17.90625,11.546875 18.234375,11.234375 C18.546875,10.90625 18.6875,10.375 18.6875,9.578125 C18.6875,8.859375 18.546875,8.046875 18.21875,7.34375 C18.03125,6.9375 17.703125,6.53125 17.328125,6.171875 C16.953125,5.796875 16.515625,5.484375 16.109375,5.328125 C16.578125,5.765625 17,6.359375 17,6.875 C17,7.234375 16.96875,7.625 16.53125,7.96875 C16.21875,8.203125 15.78125,8.390625 14.9375,8.3125 C13.953125,8.21875 13.1875,7.859375 12.53125,7.4375 C11.8125,6.984375 11.265625,6.421875 11.265625,5.640625 C11.265625,5.15625 11.40625,4.765625 11.9375,4.46875 C12.3125,4.25 12.921875,4.125 13.765625,4.125 C13.15625,3.84375 12.796875,3.546875 12.546875,3.3125 C12.09375,2.859375 11.78125,2.234375 11.8125,1.78125 C11.875,0.84375 12.296875,0.390625 12.890625,0.03125 C13.46875,-0.34375 14.5,-0.609375 15.71875,-0.640625 C16.9375,-0.6875 18.09375,-0.640625 19.328125,-0.453125 C19.953125,-0.359375 20.390625,-0.15625 20.59375,0.125 C20.828125,0.4375 20.796875,0.8125 20.46875,1.03125 C20.15625,1.25 19.65625,1.171875 19.25,1.078125 C18.5,0.90625 17.96875,0.859375 17.3125,0.78125 C16.5625,0.6875 15.875,0.671875 15.078125,0.71875 C14.59375,0.75 13.921875,0.828125 13.46875,1.015625 C12.84375,1.25 12.71875,1.625 12.71875,2 C12.71875,2.5625 13.5625,3.453125 15.140625,4.25 C16.03125,4.390625 16.859375,4.671875 17.421875,4.96875 C18.5,5.515625 19.390625,6.390625 19.859375,7.28125 C20.3125,8.171875 20.375,8.859375 20.375,9.671875 C20.375,10.140625 20.25,10.59375 20.046875,10.984375 C19.859375,11.359375 19.59375,11.671875 19.328125,11.859375 C18.875,12.171875 18.3125,12.34375 17.46875,12.390625 C16.53125,12.4375 15.484375,12.140625 14.3125,11.609375 C15.109375,12.09375 15.78125,12.53125 16.484375,13.015625 C16.859375,13.25 17.25,13.484375 17.46875,13.78125 C17.890625,14.328125 17.625,15.125 16.578125,15.125 C15.875,15.125 14.90625,14.90625 14.015625,14.59375 C14.765625,15.140625 15.28125,15.5 15.71875,15.796875 C16.15625,16.09375 16.515625,16.3125 16.953125,16.578125 C17.0625,16.65625 17.171875,16.71875 17.28125,16.78125 C17.375,16.84375 17.46875,16.90625 17.5625,16.953125 C17.765625,17.078125 17.984375,17.1875 18.296875,17.359375 C18.703125,17.578125 18.828125,17.734375 18.828125,17.953125 C18.828125,18.171875 18.75,18.359375 18.5,18.5 C17.84375,18.890625 17.40625,18.9375 17,18.734375 C16.75,18.640625 16.5,18.546875 16.234375,18.453125 C15.703125,18.296875 15.0625,18.171875 14.65625,18.125 C14.234375,18.0625 13.890625,18.03125 13.546875,18.03125 C13.375,18.03125 13.1875,18.03125 12.984375,18.046875 C12.578125,18.078125 12.1875,18.171875 12,18.390625 Z M2.984375,18.171875 C2.984375,17.6875 3,17.328125 3.1875,16.71875 C3.28125,16.4375 3.5,16.109375 3.734375,15.875 C3.984375,15.640625 4.296875,15.46875 4.578125,15.453125 C4.828125,15.421875 5.1875,15.453125 5.640625,15.671875 C6.09375,15.890625 6.875,16.421875 7.609375,16.96875 C7.015625,16.03125 6.703125,15.28125 6.640625,14.6875 C6.609375,14.375 6.6875,13.96875 6.921875,13.484375 C7.140625,13.03125 7.28125,12.484375 7.28125,12.03125 C7.28125,11.703125 7.15625,11.453125 6.921875,11.546875 C6.671875,11.640625 6.484375,11.71875 6.234375,11.90625 C6.015625,12.078125 5.890625,12.1875 5.59375,12.1875 C5.28125,12.1875 5.015625,12.15625 4.703125,11.765625 C4.265625,11.21875 4.015625,10.328125 3.828125,8.765625 C3.640625,7.390625 3.5,5.96875 3.4375,4.21875 C3.40625,3.421875 3.40625,2.546875 3.453125,1.765625 C3.5,0.96875 3.5625,0.296875 3.640625,-0.125 C3.78125,-0.71875 3.9375,-1.0625 4.328125,-1.125 C4.515625,-1.15625 4.71875,-1.015625 4.90625,-0.78125 C5.078125,-0.546875 5.171875,-0.15625 5.09375,0.21875 C5,0.671875 4.90625,1.4375 4.859375,2.3125 C4.796875,3.1875 4.75,4.15625 4.78125,5.046875 C4.84375,7.953125 5.015625,9.78125 5.265625,10.765625 C5.359375,11.140625 5.59375,11.328125 5.90625,11.234375 C6.0625,11.1875 6.265625,11.046875 6.453125,10.90625 C6.640625,10.765625 6.84375,10.578125 6.984375,10.4375 C7.25,10.171875 7.53125,10.03125 7.78125,10.03125 C8.015625,10.03125 8.25,10.15625 8.421875,10.328125 C8.578125,10.5 8.6875,10.75 8.6875,11 C8.6875,11.421875 8.671875,11.890625 8.46875,12.4375 C8.375,12.6875 8.21875,13 8.046875,13.296875 C7.859375,13.578125 7.65625,13.859375 7.515625,14.046875 C7.34375,14.28125 7.4375,14.59375 7.625,14.90625 C8.09375,15.65625 8.546875,16.203125 8.90625,16.4375 C9.21875,16.640625 9.421875,16.78125 9.5625,16.921875 C9.703125,17.046875 9.78125,17.171875 9.828125,17.3125 C9.90625,17.546875 9.796875,17.84375 9.484375,18.09375 C9.328125,18.21875 9.109375,18.328125 8.8125,18.4375 C8.515625,18.53125 8.15625,18.453125 7.671875,18.078125 C6.890625,17.421875 6.234375,17.046875 5.703125,16.953125 C4.828125,16.765625 4.4375,16.984375 4.15625,17.265625 C3.875,17.546875 3.625,17.953125 3.484375,18.4375 Z M14.734375,4.953125 C14.015625,4.8125 13.46875,4.8125 13.0625,4.875 C12.34375,4.984375 12.140625,5.109375 12.09375,5.5 C12.046875,5.90625 12.21875,6.171875 12.78125,6.625 C13.0625,6.859375 13.390625,7.015625 13.75,7.109375 C14.09375,7.203125 14.453125,7.25 14.765625,7.25 C15.390625,7.25 15.59375,7.03125 15.59375,6.578125 C15.59375,6.21875 15.53125,5.953125 15.34375,5.609375 C15.171875,5.296875 15,5.171875 14.734375,4.953125 Z" transform="translate(0.09375, 18.9375) scale(1, -1)"/>
</svg>