<svg height="21.390625" viewBox="0 0 24 21.390625" width="24" xmlns="http://www.w3.org/2000/svg">
<path d="M9.046875,19.21875 C10.3125,19.0625 10.828125,18.8125 10.609375,18.09375 C10.265625,16.96875 9.734375,15.59375 9.03125,14.09375 C8.5625,13.84375 8.09375,13.578125 7.671875,13.296875 C6.78125,12.734375 5.828125,11.984375 5.0625,11.046875 C4.296875,10.09375 3.78125,9.078125 3.5,8.140625 C3.21875,7.203125 3.265625,6.3125 3.578125,5.765625 C3.875,5.203125 4.578125,5.25 5.3125,5.921875 C5.671875,6.25 6.09375,6.78125 6.578125,7.515625 C8.0625,9.75 9.296875,11.96875 10.28125,13.859375 C11.21875,14.234375 12.140625,14.515625 13.078125,14.640625 C14.1875,14.78125 15.265625,14.765625 16.21875,14.625 C17.15625,14.484375 17.984375,14.234375 18.546875,13.90625 C19.15625,13.5625 19.03125,13.359375 18.625,13.28125 C17.953125,13.15625 17.28125,12.96875 16.203125,12.59375 C15.21875,12.265625 14.328125,11.9375 13.484375,11.53125 C12.640625,11.125 11.828125,10.640625 11.0625,10.03125 C10.140625,9.296875 9.375,8.359375 8.828125,7.3125 C8.28125,6.265625 7.96875,5.125 7.96875,3.96875 C7.96875,3.390625 8.140625,2.9375 8.34375,2.609375 C8.5625,2.28125 8.84375,2.109375 9.078125,2.109375 C9.734375,2.109375 9.921875,2.421875 10.015625,2.9375 C10.0625,3.296875 10.15625,3.671875 10.375,4.171875 C10.765625,5.078125 11.28125,5.890625 11.84375,6.515625 C12.390625,7.15625 12.96875,7.625 13.46875,7.921875 C14.125,8.3125 14.515625,8.140625 14.796875,7.46875 C14.890625,7.1875 14.984375,6.78125 15.03125,6.359375 C15.078125,5.9375 15.09375,5.515625 15.09375,5.1875 C15.09375,4.015625 14.796875,2.9375 14.140625,1.90625 C13.484375,0.875 12.484375,-0.078125 11.109375,-1.03125 L11.59375,-1.578125 C13.359375,-0.59375 14.609375,0.515625 15.40625,1.6875 C16.21875,2.859375 16.578125,4.109375 16.578125,5.421875 C16.578125,5.84375 16.5625,6.3125 16.484375,6.765625 C16.421875,7.203125 16.296875,7.625 16.125,7.953125 C15.5,9.171875 14.375,9.296875 12.875,8.453125 C12.40625,8.1875 11.75,7.6875 11.09375,7 C10.4375,6.296875 9.765625,5.421875 9.21875,4.390625 C9.125,5.4375 9.34375,6.453125 9.765625,7.34375 C10.1875,8.21875 10.796875,8.984375 11.546875,9.59375 C12.28125,10.203125 13.109375,10.65625 13.953125,11.015625 C14.796875,11.375 15.65625,11.640625 16.53125,11.859375 C17.609375,12.125 18.5,12.3125 19.65625,12.40625 C20.640625,12.5 21.046875,12.78125 21.046875,13.390625 C21.046875,14.015625 20.328125,14.6875 19.109375,15.09375 C17.359375,15.6875 15.265625,15.875 12.875,15.390625 C12.125,15.234375 11.421875,15.046875 10.765625,14.8125 C11.125,15.53125 11.390625,16.15625 11.609375,16.671875 C11.84375,17.203125 12,17.625 12.125,17.921875 C12.265625,18.21875 12.3125,18.46875 12.3125,18.671875 C12.3125,19.03125 12.140625,19.390625 11.65625,19.5625 C11.15625,19.734375 10.34375,19.8125 9.3125,19.8125 Z M8.5,13.015625 C7.65625,11.265625 6.625,9.484375 5.453125,7.78125 C5.203125,7.4375 5.015625,7.203125 4.875,7.078125 C4.71875,6.953125 4.609375,6.890625 4.515625,6.890625 C4.46875,6.890625 4.4375,6.921875 4.390625,6.96875 C4.359375,7.03125 4.34375,7.15625 4.34375,7.34375 C4.34375,7.8125 4.546875,8.609375 4.96875,9.46875 C5.375,10.3125 6,11.21875 6.84375,11.890625 C7.328125,12.265625 7.90625,12.671875 8.5,13.015625 Z" transform="translate(-0.1328125, 19.8125) scale(1, -1)"/>
</svg>