<svg height="24" viewBox="0 0 24 24" width="24" xmlns="http://www.w3.org/2000/svg">
<path d="M6.734375,13.859375 C6.75,13.671875 6.796875,13.5 6.859375,13.296875 C6.96875,12.921875 7.15625,12.515625 7.34375,12.171875 C7.546875,11.84375 7.765625,11.453125 8.25,11.453125 C8.5,11.453125 8.796875,11.59375 9.1875,11.890625 C10.3125,12.734375 11.703125,13.484375 13.109375,14.046875 C14.515625,14.609375 15.90625,14.953125 17.015625,14.953125 C18.6875,14.953125 19.375,14.265625 19.375,13.0625 C19.375,12.359375 18.875,11.421875 17.859375,10.53125 C16.859375,9.625 15.359375,8.75 13.390625,8.203125 C12.984375,8.640625 12.9375,9.046875 13.03125,9.53125 L12.484375,9.78125 C12.171875,9.3125 12.0625,8.828125 12.140625,8.3125 C12.265625,7.515625 12.78125,6.84375 13.671875,6.59375 C13.125,6.40625 12.5625,6.171875 12.046875,5.90625 C11.53125,5.625 11.0625,5.3125 10.71875,4.953125 C10.4375,4.65625 10.28125,4.4375 10.1875,4.203125 C10.09375,3.984375 10.0625,3.78125 10.0625,3.5 C10.0625,3.1875 10.21875,2.734375 10.71875,2.40625 C11.421875,1.953125 12.53125,1.703125 13.609375,1.703125 C13.9375,1.703125 14.28125,1.71875 14.65625,1.734375 C15.40625,1.765625 16.109375,1.84375 16.65625,1.921875 C17.203125,2 17.71875,2.125 17.90625,2.359375 C18,2.46875 18.046875,2.578125 18.046875,2.6875 C18.046875,2.984375 17.8125,3.234375 17.515625,3.34375 C17.234375,3.4375 16.671875,3.5 16.203125,3.3125 C15.359375,3.03125 14.328125,2.90625 13.484375,2.90625 C12.59375,2.90625 12,3.046875 11.515625,3.34375 C11.0625,3.625 11,4.015625 11.515625,4.53125 C11.84375,4.859375 12.359375,5.140625 12.9375,5.375 C13.515625,5.59375 14.15625,5.734375 14.734375,5.8125 C14.84375,5.828125 14.953125,5.84375 15.078125,5.84375 L15.484375,5.890625 C15.75,5.921875 16,5.9375 16.125,5.9375 C16.65625,5.9375 16.921875,6.125 16.921875,6.5 C16.921875,7.015625 16.53125,7.34375 15.96875,7.34375 C15.640625,7.34375 15.234375,7.375 14.875,7.421875 C14.5,7.46875 14.140625,7.546875 13.875,7.65625 C16.515625,8.40625 18.3125,9.296875 19.4375,10.25 C20.5625,11.21875 21.03125,12.21875 21.03125,13.25 C21.03125,13.953125 20.6875,14.578125 20.046875,15.046875 C19.390625,15.5 18.421875,15.78125 17.203125,15.78125 C16.140625,15.78125 14.796875,15.53125 13.359375,15.125 C11.9375,14.703125 10.453125,14.109375 9.1875,13.421875 C8.8125,13.21875 8.5625,13.140625 8.375,13.140625 C8.1875,13.140625 8.078125,13.203125 7.953125,13.28125 C7.671875,13.453125 7.453125,13.75 7.328125,14.15625 Z M4.015625,13.828125 C3.71875,13.078125 3.53125,12.15625 3.4375,11.21875 C3.328125,10.28125 3.296875,9.34375 3.296875,8.546875 C3.296875,7.46875 3.484375,6.328125 3.765625,5.359375 C4.03125,4.390625 4.375,3.5625 4.65625,3.140625 C4.96875,2.6875 5.296875,2.515625 5.703125,2.515625 C6,2.515625 6.265625,2.6875 6.265625,3.046875 C6.265625,3.21875 6.25,3.359375 6.203125,3.53125 C6.140625,3.703125 6.03125,3.90625 5.859375,4.203125 C5.625,4.625 5.34375,5.203125 5.09375,5.90625 C4.828125,6.59375 4.609375,7.40625 4.515625,8.28125 C4.3125,10.296875 4.4375,12.078125 4.625,13.578125 Z" transform="translate(-0.1640625, 15.78125) scale(1, -1)"/>
</svg>