<svg height="21.34375" viewBox="0 0 24 21.34375" width="24" xmlns="http://www.w3.org/2000/svg">
<path d="M9.171875,19.625 C9.5,19.578125 9.78125,19.53125 9.96875,19.4375 C10.296875,19.265625 10.390625,19.03125 10.03125,18.53125 C9.734375,18.109375 9.25,17.578125 8.734375,17.09375 C8.21875,16.59375 7.65625,16.109375 7.203125,15.796875 C6.734375,15.484375 6.59375,15.359375 6.59375,15.09375 C6.59375,14.828125 6.8125,14.703125 7.125,14.46875 C7.53125,14.1875 7.796875,13.65625 7.96875,13.25 C7.515625,12.921875 7.109375,12.609375 6.6875,12.265625 C6.265625,11.90625 5.84375,11.5 5.328125,11.015625 C4.640625,10.359375 4.109375,9.6875 3.734375,9.09375 C3.359375,8.484375 3.171875,7.953125 3.171875,7.578125 C3.171875,7.0625 3.28125,6.78125 3.578125,6.59375 C3.890625,6.40625 4.34375,6.28125 5.0625,6.3125 C7.046875,6.40625 8.265625,7.078125 9,8.546875 C9.25,9.0625 9.40625,9.78125 9.453125,10.546875 C9.5,11.3125 9.453125,12.125 9.296875,12.828125 C10.03125,13.390625 10.953125,14 11.8125,14.5 C12.6875,14.984375 13.53125,15.375 14.140625,15.546875 C14.75,15.734375 15.015625,15.578125 15.046875,15.171875 C15.0625,14.78125 15.046875,14.328125 15,13.875 C14.953125,13.4375 14.875,13 14.8125,12.671875 C14.734375,12.3125 14.75,12.046875 14.890625,11.703125 C15.078125,11.234375 15.53125,11.171875 15.828125,11.203125 L17.203125,11.328125 C17.859375,11.390625 18.34375,11.390625 18.875,11.3125 C19.28125,11.25 19.25,11.1875 18.78125,10.921875 C18.453125,10.75 17.796875,10.453125 17.109375,10.15625 C16.40625,9.84375 15.6875,9.546875 15.296875,9.40625 C14.5625,9.140625 13.671875,8.796875 12.859375,8.453125 C12.046875,8.109375 11.3125,7.78125 10.921875,7.5625 C10.703125,7.4375 10.390625,7.25 10.15625,7.015625 C9.875,6.734375 9.796875,6.546875 9.796875,6.234375 C9.796875,5.921875 9.890625,5.65625 10.484375,5.328125 C10.875,5.140625 11.546875,4.875 12.4375,4.78125 C12.21875,4.703125 11.96875,4.625 11.71875,4.53125 C11.46875,4.453125 11.234375,4.359375 11,4.28125 C10.546875,4.109375 10.15625,3.9375 9.921875,3.796875 C9.640625,3.625 9.546875,3.515625 9.5,3.296875 C9.46875,3.078125 9.515625,2.859375 9.640625,2.65625 C9.78125,2.46875 10.015625,2.359375 10.25,2.234375 C10.578125,2.046875 10.96875,1.90625 11.453125,1.8125 L10.765625,1.4375 C10.515625,1.3125 10.28125,1.1875 10.0625,1.0625 C9.71875,0.875 9.59375,0.78125 9.5,0.578125 C9.421875,0.40625 9.421875,0.125 9.546875,-0.046875 C9.65625,-0.1875 9.859375,-0.4375 10.171875,-0.578125 C10.65625,-0.796875 11.140625,-0.9375 11.984375,-1.078125 C12.453125,-1.15625 13,-1.203125 13.53125,-1.25 C14.078125,-1.296875 14.59375,-1.296875 15.046875,-1.296875 C15.375,-1.296875 15.671875,-1.265625 15.9375,-1.203125 C16.453125,-1.0625 17.171875,-0.703125 16.609375,-0.09375 C16.375,0.171875 16.03125,0.21875 15.4375,0.1875 C15.328125,0.1875 15.21875,0.1875 15.078125,0.171875 C14.953125,0.171875 14.8125,0.171875 14.6875,0.171875 C14.5625,0.15625 14.421875,0.15625 14.296875,0.15625 C14.171875,0.140625 14.0625,0.140625 13.96875,0.140625 C13.109375,0.140625 12.078125,0.203125 11.328125,0.4375 C10.78125,0.609375 10.765625,0.78125 11.09375,0.921875 C11.46875,1.09375 12.09375,1.25 12.59375,1.375 C12.84375,1.4375 13.015625,1.5 13.109375,1.5625 C13.296875,1.6875 13.34375,1.90625 13.328125,2.109375 C13.3125,2.328125 13.15625,2.609375 12.90625,2.671875 C12.65625,2.734375 12.265625,2.828125 11.9375,2.890625 L11.46875,3 C11.171875,3.078125 10.90625,3.15625 10.765625,3.21875 C10.578125,3.296875 10.484375,3.390625 10.515625,3.46875 C10.53125,3.546875 10.65625,3.625 10.859375,3.671875 C11.234375,3.765625 11.84375,3.890625 12.421875,4.015625 C13.015625,4.125 13.578125,4.203125 13.953125,4.25 C14.1875,4.265625 14.375,4.34375 14.46875,4.453125 C14.65625,4.6875 14.609375,5.015625 14.328125,5.375 C14.109375,5.65625 13.65625,5.75 13.25,5.796875 C12.53125,5.890625 11.8125,6.078125 11.328125,6.296875 C10.8125,6.53125 10.78125,6.6875 11.28125,7.015625 C11.890625,7.390625 12.625,7.71875 13.390625,8 C14.171875,8.265625 14.984375,8.5 15.796875,8.734375 C16.140625,8.828125 16.5,8.9375 16.890625,9.0625 C17.671875,9.3125 18.484375,9.59375 19.25,9.890625 C20,10.171875 20.703125,10.4375 20.9375,10.6875 C21.03125,10.8125 21.09375,10.9375 21.09375,11.0625 C21.09375,11.265625 21,11.453125 20.8125,11.640625 C20.609375,11.84375 20.0625,12.09375 19.34375,12.140625 C18.9375,12.171875 18.453125,12.1875 17.984375,12.1875 C17.515625,12.1875 17.015625,12.171875 16.625,12.171875 C16.109375,12.140625 15.890625,12.3125 16.015625,12.640625 C16.0625,12.828125 16.203125,13.328125 16.3125,13.84375 C16.421875,14.34375 16.515625,14.859375 16.515625,15.140625 C16.515625,15.453125 16.375,15.734375 16.078125,15.984375 C15.828125,16.203125 15.40625,16.421875 15.078125,16.46875 C14.96875,16.484375 14.875,16.5 14.71875,16.484375 C14.5625,16.453125 14.34375,16.390625 13.96875,16.296875 C13.3125,16.125 12.40625,15.71875 11.46875,15.234375 C10.53125,14.75 9.59375,14.1875 8.9375,13.765625 C8.75,14.046875 8.59375,14.25 8.375,14.484375 C8.140625,14.703125 7.890625,14.9375 7.515625,15.21875 C7.8125,15.421875 8.109375,15.640625 8.453125,15.875 C8.78125,16.109375 9.109375,16.34375 9.453125,16.578125 C10.109375,17.046875 10.75,17.515625 11.265625,17.953125 C11.765625,18.390625 12.03125,18.671875 12.03125,19.03125 C12.03125,19.421875 11.6875,19.71875 11.09375,19.859375 C10.65625,19.953125 10.015625,20.046875 9.34375,20.046875 Z M8.234375,12.125 C8.28125,11.328125 8.234375,10.5 8.09375,9.78125 C7.9375,9.078125 7.703125,8.46875 7.421875,8.140625 C6.921875,7.5625 6.25,7.28125 5.5,7.15625 C5.359375,7.125 5.234375,7.109375 5.125,7.109375 C5,7.109375 4.90625,7.140625 4.828125,7.1875 C4.671875,7.265625 4.5625,7.4375 4.5625,7.765625 C4.5625,8 4.734375,8.359375 5.015625,8.78125 C5.296875,9.203125 5.703125,9.6875 6.125,10.15625 C6.546875,10.625 6.875,10.96875 7.203125,11.28125 C7.515625,11.578125 7.8125,11.84375 8.234375,12.125 Z" transform="translate(-0.1328125, 20.046875) scale(1, -1)"/>
</svg>