<svg height="19.65625" viewBox="0 0 24 19.65625" width="24" xmlns="http://www.w3.org/2000/svg">
<path d="M3.890625,18.125 C4.515625,17.703125 4.984375,17.3125 5.203125,16.71875 C5.421875,16.140625 5.421875,15.34375 5.09375,14.203125 C4.8125,13.21875 4.4375,11.875 4.125,10.421875 C3.828125,8.953125 3.578125,7.359375 3.578125,5.90625 C3.578125,4.890625 3.59375,4.046875 3.6875,3.21875 C3.78125,2.375 3.96875,1.5625 4.296875,0.625 C4.671875,-0.40625 5.046875,-1.015625 5.59375,-1.015625 C6.21875,-1.015625 6.546875,-0.34375 6.5,0.640625 C6.453125,2.578125 6.71875,4.21875 7.109375,5.734375 C7.671875,8 8.328125,9.78125 9.03125,11.328125 C9.734375,12.875 10.5,14.140625 11.375,15.390625 C11.84375,16.03125 12.5,16.453125 13.25,16.703125 C14.015625,16.953125 14.890625,17.046875 15.78125,17.046875 C16.203125,17.046875 16.46875,16.984375 16.625,16.8125 C16.765625,16.625 16.8125,16.359375 16.8125,15.9375 L16.71875,10.203125 C16.609375,10.5 16.421875,10.6875 16.171875,10.765625 C15.65625,10.90625 15.140625,10.5625 14.875,10.375 C14.59375,10.171875 14.3125,9.921875 13.953125,9.59375 C13.765625,9.40625 13.5625,9.21875 13.328125,9 C13.0625,8.765625 12.625,8.21875 12.203125,7.65625 C11.78125,7.078125 11.375,6.484375 11.1875,6.140625 C11,5.8125 10.90625,5.578125 10.84375,5.359375 C10.78125,5.140625 10.765625,4.9375 10.765625,4.65625 C10.765625,4.328125 11.09375,3.828125 11.5,3.296875 C11.875,2.796875 12.4375,2.234375 13.09375,1.703125 C13.75,1.171875 14.46875,0.65625 15.21875,0.265625 C15.578125,0.078125 15.828125,-0.171875 16.015625,-0.390625 C16.25,-0.703125 16.390625,-0.875 16.78125,-0.875 C17.046875,-0.875 17.328125,-0.65625 17.609375,-0.234375 C17.890625,0.1875 18.078125,0.671875 18.046875,1.203125 L18.015625,2.046875 C18,2.328125 18,2.609375 17.984375,2.875 C17.984375,3.140625 17.984375,3.390625 17.984375,3.625 C17.96875,3.859375 17.96875,4.0625 17.953125,4.21875 C18.34375,4.171875 18.953125,4.1875 19.609375,4.21875 C20.1875,4.25 20.75,4.34375 21.171875,4.46875 C21.71875,4.640625 22.046875,4.90625 21.921875,5.328125 C21.90625,5.390625 21.875,5.453125 21.8125,5.515625 C21.6875,5.609375 21.515625,5.703125 21.328125,5.765625 C21.140625,5.8125 20.921875,5.859375 20.640625,5.78125 C20.484375,5.75 20.3125,5.703125 20.109375,5.65625 C19.515625,5.5625 18.640625,5.453125 17.90625,5.5 L18.046875,16.015625 C18.0625,16.71875 17.890625,17.203125 17.59375,17.515625 C17.28125,17.8125 16.828125,17.9375 16.296875,17.9375 C15.40625,17.9375 14.40625,17.828125 13.484375,17.5625 C12.578125,17.3125 11.75,16.90625 11.1875,16.328125 C10.4375,15.5625 9.875,14.765625 9.359375,13.828125 C8.84375,12.890625 8.359375,11.796875 7.78125,10.4375 C6.578125,7.59375 5.796875,4.8125 5.28125,1.859375 C5.046875,2.46875 4.890625,3.046875 4.78125,3.6875 C4.671875,4.3125 4.625,4.984375 4.625,5.8125 C4.625,6.546875 4.671875,7.265625 4.75,7.96875 C4.90625,9.375 5.1875,10.671875 5.5625,11.84375 C5.921875,13.015625 6.359375,14.03125 6.6875,14.8125 C6.859375,15.203125 6.953125,15.59375 6.96875,15.96875 C7,16.625 6.671875,17.1875 6.234375,17.546875 C5.734375,17.984375 4.96875,18.40625 4.34375,18.640625 Z M16.65625,5.515625 L16.09375,5.65625 C15.890625,5.703125 15.703125,5.78125 15.53125,5.890625 C15.03125,6.171875 14.875,6.390625 15.140625,6.71875 C15.375,7.015625 15.640625,7.4375 15.859375,7.78125 C16.0625,8.140625 16.25,8.453125 16.296875,8.59375 C16.484375,8.984375 16.625,9.328125 16.703125,9.625 Z M16.703125,1.953125 C16.703125,1.390625 16.5625,1.171875 16.203125,1.28125 C15.5,1.46875 14.65625,1.8125 13.890625,2.234375 C13.125,2.640625 12.453125,3.125 12.125,3.59375 C12.078125,3.65625 12.03125,3.734375 11.984375,3.8125 L11.796875,4.0625 C11.703125,4.234375 11.609375,4.4375 11.609375,4.65625 C11.609375,4.984375 11.65625,5.28125 11.75,5.578125 C11.859375,5.890625 12.0625,6.203125 12.390625,6.625 C12.71875,7.046875 13.15625,7.578125 13.625,8.046875 C14.09375,8.515625 14.625,8.953125 15.140625,9.1875 L15.265625,9.03125 C15.21875,8.75 15.078125,8.359375 14.90625,7.96875 C14.75,7.578125 14.546875,7.1875 14.359375,6.921875 C13.890625,6.265625 13.921875,5.90625 14.375,5.453125 C14.90625,4.921875 15.84375,4.484375 16.703125,4.296875 Z" transform="translate(-0.8125, 18.640625) scale(1, -1)"/>
</svg>