<svg height="24" viewBox="0 0 24 24" width="24" xmlns="http://www.w3.org/2000/svg">
<path d="M8.0625,18.6875 C8.15625,18.3125 8.234375,17.90625 8.28125,17.375 C8.328125,16.828125 8.359375,16.15625 8.359375,15.265625 C8.359375,14.46875 8.3125,13.671875 8.203125,12.875 C7.421875,12.265625 6.671875,11.546875 6.03125,10.890625 C5.40625,10.234375 4.90625,9.640625 4.671875,9.265625 C4.625,10.109375 4.671875,11.09375 4.8125,12.0625 C4.96875,13.03125 5.234375,13.984375 5.5625,14.8125 L5.015625,15.09375 C4.421875,14.1875 4.0625,12.890625 3.890625,11.59375 C3.703125,10.296875 3.703125,9 3.84375,8.109375 C3.09375,7 2.5625,6.046875 2.234375,5.25 C1.890625,4.4375 1.71875,3.828125 1.71875,3.40625 C1.71875,2.8125 2,2.234375 2.5625,1.296875 C3.078125,0.453125 3.53125,0.140625 4.078125,0.140625 C4.625,0.140625 5.28125,0.640625 6.046875,1.828125 C6.453125,1.375 6.859375,1.078125 7.21875,1.078125 C7.578125,1.078125 7.859375,1.25 7.859375,1.46875 C7.859375,1.65625 7.71875,1.953125 7.4375,2.234375 C7.3125,2.359375 7.203125,2.515625 7.078125,2.65625 C6.96875,2.8125 6.84375,2.953125 6.734375,3.09375 C7.34375,4.28125 7.921875,5.84375 8.5,8.0625 C8.859375,9.4375 9.03125,10.96875 9.171875,12.484375 C9.875,13.09375 10.609375,13.640625 11.359375,14.140625 C12.84375,15.125 14.390625,15.953125 15.265625,16.109375 C15.6875,16.203125 15.984375,16.15625 16.15625,16.015625 C16.34375,15.828125 16.46875,15.578125 16.46875,15.15625 C16.46875,14.71875 16.359375,14.109375 16.125,13.21875 C15.96875,12.625 15.953125,12.234375 16.109375,11.953125 C16.25,11.65625 16.578125,11.453125 17.140625,11.265625 C17.609375,11.09375 18,10.953125 18.328125,10.75 C18.65625,10.546875 18.921875,10.296875 19.203125,9.96875 C19.484375,9.59375 19.625,9.203125 19.71875,8.734375 C19.8125,8.265625 19.828125,7.71875 19.828125,7.0625 C19.828125,6.171875 19.6875,5.375 19.421875,4.578125 C18.625,5.046875 17.796875,5.359375 16.953125,5.546875 C17.09375,6.03125 17.1875,6.484375 17.234375,6.921875 C17.328125,7.71875 17.171875,8.375 16.859375,8.8125 C16.53125,9.25 16.03125,9.484375 15.453125,9.484375 C14.75,9.484375 13.96875,9.0625 13.359375,8.328125 C12.734375,7.578125 12.265625,6.5 12.171875,5.234375 C10.65625,4.609375 9.71875,3.546875 9.71875,2.1875 C9.71875,1.671875 9.921875,1.21875 10.25,0.90625 C10.578125,0.578125 11.046875,0.390625 11.609375,0.390625 C12.359375,0.390625 13.0625,0.609375 13.71875,1.0625 C14.328125,0.640625 14.984375,0.40625 15.6875,0.40625 C16.578125,0.40625 17.375,0.640625 18.078125,1.046875 C18.765625,1.4375 19.34375,2 19.828125,2.65625 C20.375,2.15625 20.890625,1.5625 21.3125,0.96875 C21.640625,0.53125 21.84375,0.296875 22.171875,0.296875 C22.578125,0.296875 22.8125,0.59375 22.8125,1.03125 C22.8125,1.609375 22.46875,2.09375 21.921875,2.65625 C21.484375,3.125 21.03125,3.5 20.546875,3.875 C21.03125,4.90625 21.3125,6 21.265625,7.078125 C21.265625,7.796875 21.203125,8.40625 21.03125,8.96875 C20.84375,9.53125 20.546875,10.046875 20.0625,10.5625 C19.765625,10.875 19.34375,11.140625 18.859375,11.375 C18.375,11.59375 17.828125,11.796875 17.265625,11.984375 C16.875,12.109375 16.78125,12.375 17,12.78125 C17.140625,13.0625 17.375,13.515625 17.59375,14.03125 C17.796875,14.53125 17.984375,15.078125 17.984375,15.53125 C17.984375,15.953125 17.75,16.3125 17.421875,16.578125 C17.078125,16.828125 16.59375,16.96875 16.078125,16.96875 C14.953125,16.96875 13.671875,16.484375 12.078125,15.5 C11.09375,14.90625 10.171875,14.328125 9.234375,13.625 C9.265625,14.375 9.296875,15.0625 9.296875,15.71875 C9.296875,16.21875 9.234375,16.8125 9.140625,17.375 C9.046875,17.921875 8.90625,18.453125 8.734375,18.875 Z M8,11.453125 C7.703125,9.75 7.25,8.09375 6.6875,6.390625 C6.453125,5.640625 6.21875,5 5.984375,4.4375 C5.421875,5.5625 5.0625,6.734375 4.875,7.875 C5.359375,8.578125 5.9375,9.3125 6.5,9.921875 C7.0625,10.546875 7.609375,11.09375 8,11.453125 Z M15.1875,8.609375 C15.40625,8.609375 15.59375,8.484375 15.734375,8.234375 C15.875,7.953125 15.921875,7.578125 15.875,7.0625 C15.828125,6.625 15.734375,6.1875 15.59375,5.734375 C15.265625,5.78125 14.765625,5.765625 14.28125,5.71875 C13.78125,5.671875 13.28125,5.59375 12.9375,5.5 C13.046875,6.453125 13.390625,7.234375 13.8125,7.765625 C14.234375,8.3125 14.75,8.609375 15.1875,8.609375 Z M4.078125,6.625 C4.203125,6 4.375,5.3125 4.578125,4.671875 C4.796875,4.015625 5.03125,3.40625 5.3125,2.953125 C5.0625,2.484375 4.828125,2.140625 4.609375,1.921875 C4.390625,1.703125 4.1875,1.578125 4.015625,1.578125 C3.734375,1.578125 3.5,1.859375 3.3125,2.234375 C3.125,2.625 3,3.140625 3,3.640625 C3,4.390625 3.375,5.453125 4.078125,6.625 Z M12.9375,4.46875 C13.140625,4.515625 13.34375,4.546875 13.5625,4.578125 C13.984375,4.625 14.40625,4.671875 14.75,4.671875 C14.921875,4.671875 15.0625,4.671875 15.171875,4.65625 C14.75,3.765625 14.234375,2.9375 13.65625,2.3125 C13.21875,2.890625 12.984375,3.625 12.9375,4.46875 Z M16.515625,4.46875 C17.453125,4.25 18.1875,3.890625 18.890625,3.4375 C18.09375,2.15625 17,1.328125 15.671875,1.328125 C15.1875,1.328125 14.796875,1.421875 14.453125,1.609375 C15.34375,2.40625 16.03125,3.390625 16.515625,4.46875 Z M12.171875,4.203125 C12.25,3.21875 12.578125,2.375 13.03125,1.765625 C12.546875,1.375 12.09375,1.15625 11.640625,1.15625 C11.015625,1.15625 10.625,1.484375 10.625,2.28125 C10.625,2.953125 11.046875,3.71875 12.171875,4.203125 Z" transform="translate(-0.265625, 18.875) scale(1, -1)"/>
</svg>