<svg height="22.296875" viewBox="0 0 24 22.296875" width="24" xmlns="http://www.w3.org/2000/svg">
<path d="M9.875,19.28125 C10.28125,19.078125 10.578125,18.78125 10.765625,18.5 C10.96875,18.21875 11.0625,17.921875 11.0625,17.6875 C11.0625,17.453125 11.046875,16.875 10.96875,16.34375 C10.890625,15.78125 10.765625,15 10.625,14.109375 C10.484375,13.203125 10.34375,12.1875 10.203125,11.15625 C9.359375,11.90625 8.703125,12.578125 8.1875,13.25 C7.46875,14.1875 6.984375,15.234375 6.71875,16.515625 L6.1875,16.34375 C6.296875,14.84375 6.625,13.5 7.375,12.3125 C8.015625,11.296875 8.875,10.390625 9.96875,9.578125 C9.828125,8.359375 9.6875,6.71875 9.6875,5.109375 C9.6875,3.640625 9.859375,2.4375 10.296875,1.609375 C10.75,0.765625 11.484375,0.296875 12.671875,0.296875 C13.796875,0.296875 14.640625,0.9375 15.21875,1.828125 C15.4375,0.453125 15.4375,-0.9375 15.171875,-2.359375 L15.78125,-2.59375 C16.15625,-1.28125 16.28125,0.0625 16.203125,1.328125 C16.109375,2.578125 15.828125,3.765625 15.40625,4.828125 C14.609375,6.828125 13.171875,8.546875 11.375,10.15625 C11.703125,12.640625 12.078125,14.609375 12.53125,16.34375 C12.640625,16.8125 12.734375,17.140625 12.734375,17.46875 C12.71875,17.78125 12.609375,18.0625 12.34375,18.390625 C11.90625,18.921875 11.09375,19.4375 10.25,19.703125 Z M11.15625,8.609375 C11.921875,7.921875 12.59375,7.1875 13.15625,6.453125 C13.71875,5.703125 14.1875,4.96875 14.46875,4.328125 C14.71875,3.796875 14.90625,3.234375 15.046875,2.65625 C14.453125,1.765625 13.71875,1.109375 12.71875,1.15625 C12.15625,1.15625 11.734375,1.4375 11.453125,2.078125 C11.15625,2.703125 11.015625,3.6875 11.015625,5.140625 C11.015625,6.3125 11.078125,7.578125 11.15625,8.609375 Z" transform="translate(0.765625, 19.703125) scale(1, -1)"/>
</svg>