<svg height="20.28125" viewBox="0 0 24 20.28125" width="24" xmlns="http://www.w3.org/2000/svg">
<path d="M10.96875,19.171875 C10.515625,19.203125 9.921875,19.140625 9.03125,18.84375 C8.03125,18.515625 7.15625,18.109375 6.453125,17.734375 C5.75,17.34375 5.203125,16.96875 4.875,16.71875 C4.4375,16.390625 4.390625,16.46875 4.34375,16.8125 C4.296875,17.515625 4.34375,17.984375 4.46875,18.359375 L4.015625,18.5 C3.625,17.953125 3.34375,17.140625 3.34375,16.421875 C3.34375,16.03125 3.484375,15.453125 3.78125,15.125 C4.015625,14.84375 4.25,14.625 4.578125,14.703125 C4.875,14.796875 5.03125,15 5.265625,15.390625 C5.609375,15.96875 6.1875,16.609375 7.390625,17.40625 C7.953125,17.765625 8.40625,17.984375 8.796875,18.125 C9.203125,18.25 9.53125,18.296875 9.84375,18.34375 C10.4375,18.421875 10.53125,18.234375 10.125,17.734375 C9.796875,17.34375 9.171875,16.703125 8.328125,15.9375 C7.484375,15.171875 6.390625,14.265625 5.15625,13.328125 C4.359375,12.71875 3.734375,12.296875 3.359375,12.09375 C3.140625,11.984375 3,11.875 2.921875,11.78125 C2.84375,11.6875 2.796875,11.578125 2.84375,11.46875 C2.890625,11.28125 3.09375,10.921875 3.234375,10.78125 C3.578125,10.4375 3.84375,10.484375 4.296875,10.71875 C5.5625,11.421875 7.125,12.234375 9.140625,12.984375 C7.25,11.609375 5.71875,10.0625 4.78125,8.734375 C4.21875,7.9375 3.890625,7.171875 3.890625,6.40625 C3.890625,6.171875 3.921875,5.953125 4.078125,5.78125 C4.21875,5.59375 4.484375,5.46875 4.953125,5.46875 C5.28125,5.46875 5.6875,5.5625 6.109375,5.703125 C6.53125,5.828125 6.9375,5.984375 7.296875,6.125 L7.25,3.578125 C7.015625,3.359375 6.703125,3.109375 6.390625,2.859375 C6.0625,2.609375 5.71875,2.359375 5.421875,2.15625 C5.953125,2.90625 6.375,3.890625 6.734375,4.875 L6.21875,5.09375 C5.984375,4.4375 5.640625,3.765625 5.28125,3.203125 C4.9375,2.625 4.578125,2.140625 4.328125,1.859375 C4.21875,1.75 4.125,1.625 4.015625,1.515625 C3.921875,1.390625 3.828125,1.296875 3.78125,1.25 C3.640625,1.109375 3.53125,0.9375 3.53125,0.6875 C3.53125,0.421875 3.640625,0.203125 3.6875,0.03125 C3.78125,-0.171875 3.9375,-0.234375 4.125,-0.09375 C4.390625,0.09375 4.859375,0.484375 5.421875,0.984375 C5.8125,0.640625 6.265625,0.234375 6.578125,-0.140625 C6.71875,-0.3125 6.765625,-0.5 6.84375,-0.71875 C6.9375,-1.015625 7.125,-1.078125 7.421875,-1.078125 C7.609375,-1.078125 7.90625,-0.84375 8.09375,-0.578125 C8.328125,-0.25 8.390625,0.046875 8.40625,0.640625 L8.453125,3.265625 C9.484375,4.3125 10.46875,5.578125 11.375,6.90625 C12.265625,8.234375 13.125,9.640625 13.890625,11.015625 C14.640625,12.375 15.3125,13.703125 15.890625,14.84375 C15.953125,14.96875 16.03125,15.015625 16.09375,15 C16.15625,14.984375 16.203125,14.859375 16.15625,14.65625 C16.09375,14.296875 15.921875,13.78125 15.734375,13.234375 C15.546875,12.671875 15.328125,12.078125 15.109375,11.5625 C14.890625,11.046875 14.6875,10.59375 14.546875,10.34375 C14.40625,10.109375 14.265625,9.890625 14.0625,9.6875 C13.984375,9.609375 13.9375,9.515625 13.953125,9.40625 C13.953125,9.21875 14.03125,9.078125 14.140625,8.890625 C14.265625,8.71875 14.34375,8.5 14.765625,8.546875 C14.984375,8.5625 15.34375,8.640625 15.84375,8.765625 C16.390625,8.90625 16.859375,9.015625 17.3125,9.1875 L17.3125,7.53125 C16.90625,7.5 16.328125,7.390625 15.921875,7.25 C15.171875,6.96875 14.71875,6.59375 14.421875,6.140625 C14.1875,5.765625 14.140625,5.453125 14.140625,5.1875 C14.140625,4.8125 14.5,4.5625 14.953125,4.421875 C15.40625,4.28125 15.78125,4.109375 15.96875,3.984375 C15.578125,3.6875 15.109375,3.125 14.765625,2.5625 C14.53125,2.1875 14.515625,1.921875 14.515625,1.609375 C14.515625,1.28125 14.890625,0.828125 15.546875,0.640625 C16.296875,0.453125 17.171875,0.4375 17.765625,0.4375 C18.046875,0.4375 18.5,0.453125 18.96875,0.46875 C19.453125,0.5 20,0.546875 20.515625,0.640625 C20.90625,0.734375 21.3125,0.875 21.390625,1.15625 C21.46875,1.421875 21.390625,1.71875 20.890625,1.953125 C20.609375,2.078125 20.328125,1.96875 20.015625,1.875 C19.359375,1.671875 18.484375,1.625 17.640625,1.625 C17.40625,1.625 17.046875,1.625 16.703125,1.671875 C16.359375,1.71875 16.03125,1.765625 15.84375,1.859375 C15.59375,1.984375 15.5,2.203125 15.59375,2.40625 C15.734375,2.6875 15.921875,2.84375 16.15625,3.03125 L16.484375,3.28125 C16.578125,3.359375 16.671875,3.4375 16.78125,3.5 C16.90625,3.421875 17.015625,3.34375 17.09375,3.265625 C17.1875,3.171875 17.25,3.09375 17.328125,3.03125 C17.421875,2.9375 17.5625,2.8125 17.765625,2.8125 C17.90625,2.8125 18.078125,2.921875 18.21875,3.109375 C18.34375,3.28125 18.4375,3.53125 18.4375,3.84375 L18.4375,4.953125 L18.828125,5.546875 C19.0625,5.953125 19.4375,6.546875 19.109375,6.9375 C18.875,7.203125 18.71875,7.296875 18.4375,7.421875 L18.4375,9.40625 C18.9375,9.546875 19.1875,9.6875 19.46875,9.875 C19.625,9.96875 19.734375,10.109375 19.765625,10.265625 C19.78125,10.421875 19.71875,10.578125 19.578125,10.65625 C19.3125,10.8125 19.09375,11.0625 18.828125,11.421875 C18.59375,11.75 18.390625,11.703125 18.234375,11.703125 C18.09375,11.703125 17.859375,11.5 17.65625,11.234375 C17.46875,10.953125 17.3125,10.65625 17.265625,10.15625 C16.90625,10.015625 16.078125,9.84375 15,9.734375 C15.46875,10.5 15.96875,11.375 16.4375,12.203125 C16.90625,13.015625 17.28125,13.796875 17.515625,14.359375 C17.765625,14.9375 17.640625,15.34375 17.046875,15.71875 C16.71875,15.921875 16.28125,15.828125 15.9375,15.6875 C15.703125,15.59375 15.359375,15.390625 15.09375,14.796875 C14.625,13.71875 13.953125,12.4375 13.203125,11.140625 C12.4375,9.859375 11.59375,8.546875 10.765625,7.421875 C9.921875,6.296875 9.140625,5.359375 8.46875,4.78125 L8.515625,6.6875 C8.75,6.828125 9.078125,7.015625 9.34375,7.21875 C9.640625,7.4375 9.703125,7.8125 9.390625,8.015625 C9.125,8.1875 8.84375,8.421875 8.6875,8.5625 C8.53125,8.71875 8.375,8.796875 8.1875,8.796875 C7.953125,8.828125 7.8125,8.65625 7.625,8.328125 C7.484375,8.046875 7.375,7.71875 7.28125,7.390625 C7.0625,7.21875 6.734375,7.09375 6.40625,6.96875 C6.0625,6.859375 5.703125,6.765625 5.421875,6.71875 C4.921875,6.640625 4.765625,6.734375 4.8125,7.078125 C4.84375,7.53125 5.28125,8.328125 5.9375,9.125 C6.546875,9.859375 7.25,10.53125 7.90625,11.078125 C8.5625,11.609375 9.171875,12.03125 9.578125,12.265625 C9.828125,12.421875 10.171875,12.640625 10.5,12.828125 C10.8125,13.015625 11.125,13.1875 11.3125,13.28125 C11.53125,13.390625 11.671875,13.53125 11.734375,13.703125 C11.828125,14.03125 11.65625,14.328125 11.46875,14.453125 C11.28125,14.578125 10.953125,14.765625 10.671875,14.734375 C10.375,14.6875 10.15625,14.515625 10,14.40625 C9.921875,14.34375 9.828125,14.28125 9.71875,14.203125 C9.515625,14.0625 9.25,13.90625 8.84375,13.71875 C8.375,13.5 7.71875,13.25 7.015625,13.015625 C6.3125,12.765625 5.515625,12.515625 4.765625,12.3125 C6.171875,13.484375 7.796875,14.65625 9.9375,16.015625 C10.359375,16.28125 10.6875,16.515625 10.9375,16.71875 C11.1875,16.90625 11.40625,17.09375 11.609375,17.265625 C11.984375,17.546875 12.109375,17.890625 12.140625,18.265625 C12.15625,18.546875 12.015625,18.78125 11.796875,18.921875 C11.5625,19.0625 11.25,19.15625 10.96875,19.171875 Z M16.421875,4.5625 C15.625,4.734375 15.34375,4.921875 15.34375,5.359375 C15.34375,5.578125 15.484375,5.78125 15.703125,5.9375 C15.921875,6.078125 16.21875,6.21875 16.515625,6.296875 C16.90625,6.390625 17.109375,6.390625 17.3125,6.390625 L17.3125,5.640625 C17.125,5.234375 16.71875,4.828125 16.421875,4.5625 Z M7.203125,0.6875 C6.78125,0.796875 6.234375,1.109375 5.859375,1.375 C6.078125,1.515625 6.359375,1.734375 6.609375,1.953125 C6.875,2.15625 7.109375,2.34375 7.25,2.46875 Z" transform="translate(-0.1328125, 19.203125) scale(1, -1)"/>
</svg>