<svg height="20.234375" viewBox="0 0 24 20.234375" width="24" xmlns="http://www.w3.org/2000/svg">
<path d="M14.59375,18.96875 C14.328125,18.875 13.9375,18.734375 13.546875,18.5625 C13.15625,18.390625 12.75,18.203125 12.4375,18.046875 C11.890625,17.765625 11.140625,17.421875 10.484375,17.109375 C9.8125,16.8125 9.1875,16.53125 8.90625,16.421875 C8.5625,16.296875 8.375,16.296875 8.203125,16.671875 C8.078125,16.953125 8.03125,17.375 8.109375,17.8125 L7.609375,17.90625 C7.28125,17.203125 7.078125,16.578125 7.078125,16.0625 C7.078125,15.6875 7.171875,15.3125 7.375,14.953125 C7.5625,14.59375 7.96875,14.3125 8.3125,14.3125 C8.578125,14.3125 8.796875,14.40625 8.984375,14.984375 C9.015625,15.109375 9.125,15.234375 9.265625,15.359375 C9.59375,15.59375 10.046875,15.9375 10.78125,16.359375 C11.140625,16.578125 11.53125,16.796875 11.9375,17.046875 C12.21875,17.21875 12.609375,17.421875 13.015625,17.609375 C13.4375,17.8125 13.84375,17.984375 14.15625,18.125 C14.703125,18.34375 14.90625,18.28125 14.59375,17.59375 C14.4375,17.265625 14.1875,16.8125 13.875,16.328125 C13.578125,15.828125 13.203125,15.28125 12.828125,14.734375 C10.984375,14.359375 8.859375,13.859375 6.140625,13.25 C5.3125,13.0625 4.765625,12.96875 4.34375,13.03125 C3.921875,13.109375 3.578125,13.328125 3.1875,13.78125 L2.734375,13.390625 C2.921875,12.84375 3.21875,12.421875 3.53125,12.109375 C3.828125,11.78125 4.15625,11.578125 4.390625,11.5 C4.765625,11.375 4.96875,11.421875 5.421875,11.609375 C6.125,11.90625 7.203125,12.3125 8.40625,12.71875 C9.609375,13.109375 10.953125,13.515625 12.21875,13.828125 C11.75,13.234375 11.1875,12.59375 10.671875,12.03125 C10.140625,11.453125 9.625,10.921875 9.21875,10.578125 C8.890625,10.3125 8.78125,10.234375 8.5,10.203125 C8.203125,10.15625 7.9375,10.03125 7.859375,9.796875 C7.796875,9.53125 7.890625,9.078125 8.1875,8.890625 C8.40625,8.734375 8.828125,8.65625 9.484375,8.9375 C9.65625,9.015625 9.875,9.078125 10.09375,9.15625 C10.53125,9.296875 11,9.40625 11.421875,9.515625 L11.984375,9.640625 C11.59375,9.171875 10.875,8.375 10.046875,7.484375 C9.203125,6.59375 8.25,5.609375 7.390625,4.75 C6.515625,3.890625 5.75,3.171875 5.265625,2.796875 C5.09375,2.65625 4.96875,2.5625 4.875,2.515625 C4.765625,2.46875 4.703125,2.46875 4.640625,2.484375 C4.53125,2.515625 4.484375,2.6875 4.4375,2.9375 L3.96875,2.859375 C4,2.359375 3.796875,1.78125 3.53125,1.328125 C3.359375,1.03125 3.5,0.59375 3.921875,0.484375 C4.28125,0.390625 4.53125,0.578125 4.90625,0.84375 C5.078125,0.96875 5.390625,1.265625 5.78125,1.625 C6.15625,1.96875 6.59375,2.390625 7,2.796875 C7.40625,3.1875 7.765625,3.546875 8.046875,3.828125 C8.484375,4.28125 8.8125,4.484375 9.03125,4.484375 C9.25,4.453125 9.328125,4.25 9.296875,3.875 C9.25,3.359375 9.140625,2.5 9.140625,1.421875 C9.140625,1.109375 9.171875,0.734375 9.21875,0.359375 C9.25,0 9.3125,-0.3125 9.390625,-0.5 C9.5625,-0.9375 9.765625,-1.078125 10.03125,-1.078125 C10.15625,-1.078125 10.296875,-1.015625 10.453125,-0.90625 C10.59375,-0.78125 10.71875,-0.546875 10.828125,-0.21875 C10.921875,0.109375 11.15625,0.40625 11.453125,0.6875 C11.765625,1.015625 12,1.21875 12.40625,1.578125 C12.9375,2.046875 13.578125,2.515625 14.203125,2.859375 C14.828125,3.203125 15.4375,3.4375 15.9375,3.4375 C16.21875,3.4375 16.8125,3.328125 17.1875,3.046875 C17.609375,2.703125 18.078125,2.21875 18.078125,1.65625 C18.078125,1.390625 18.03125,1.171875 17.890625,0.96875 C17.75,0.75 17.515625,0.546875 17.140625,0.296875 C16.609375,-0.046875 16.0625,-0.28125 15.21875,-0.546875 L15.59375,-1.078125 C16.390625,-0.890625 17.109375,-0.6875 17.765625,-0.359375 C19.03125,0.234375 19.65625,0.84375 19.65625,1.65625 C19.65625,2.140625 19.546875,2.6875 18.9375,3.234375 C18.015625,4.046875 17.015625,4.25 15.9375,4.25 C15.609375,4.25 15.328125,4.203125 14.984375,4.125 C14.65625,4.03125 14.28125,3.875 13.765625,3.640625 C13.34375,3.453125 12.78125,3.125 12.203125,2.75 C11.625,2.359375 11.015625,1.90625 10.53125,1.46875 C10.515625,1.671875 10.5,1.859375 10.5,2.0625 C10.5,2.25 10.515625,2.484375 10.53125,2.765625 C10.578125,3.296875 10.640625,3.875 10.609375,4.34375 C10.578125,4.859375 10.328125,5.0625 10.015625,5.203125 C9.828125,5.296875 9.53125,5.28125 9.140625,5.1875 C9.515625,5.59375 10.109375,6.21875 10.71875,6.828125 C11.328125,7.4375 11.921875,8.046875 12.296875,8.421875 C12.796875,8.9375 13.203125,9.28125 13.5625,9.59375 C13.8125,9.828125 14.015625,9.96875 14.28125,10.125 C14.53125,10.265625 14.625,10.4375 14.625,10.625 C14.625,10.8125 14.515625,10.984375 14.359375,11.109375 C14.015625,11.359375 13.71875,11.390625 13.4375,11.234375 C13.15625,11.046875 12.9375,10.96875 12.484375,10.828125 C11.859375,10.625 10.859375,10.4375 9.921875,10.296875 C10.34375,10.625 11,11.234375 11.65625,11.9375 C12.328125,12.625 13.03125,13.40625 13.625,14.109375 C14.859375,14.328125 16.015625,14.453125 16.984375,14.515625 C17.9375,14.5625 18.71875,14.53125 19.21875,14.46875 C19.671875,14.421875 20.0625,14.421875 20.3125,14.515625 C20.53125,14.609375 20.671875,14.78125 20.640625,15.09375 C20.609375,15.234375 20.421875,15.609375 20.0625,15.796875 C19.625,16.015625 19.328125,16.09375 18.78125,15.96875 L16.625,15.5 C15.890625,15.359375 15.125,15.203125 14.28125,15.03125 C15,15.921875 15.59375,16.5625 15.984375,16.953125 C16.28125,17.234375 16.546875,17.609375 16.578125,17.984375 C16.625,18.390625 16.28125,18.734375 15.875,18.96875 C15.484375,19.15625 15.09375,19.109375 14.59375,18.96875 Z" transform="translate(0.296875, 19.15625) scale(1, -1)"/>
</svg>