<svg height="20.078125" viewBox="0 0 24 20.078125" width="24" xmlns="http://www.w3.org/2000/svg">
<path d="M7.125,18.578125 C7.921875,18.4375 8.40625,18.171875 8.40625,17.640625 C8.40625,16.96875 8.328125,16.375 8.203125,15.484375 C7.71875,15.390625 7.34375,15.359375 6.890625,15.359375 C6.40625,15.359375 6,15.453125 5.546875,15.78125 L5.3125,15.34375 C5.53125,14.9375 6,14.53125 6.53125,14.40625 C6.921875,14.3125 7.390625,14.265625 8.015625,14.3125 C7.875,13.515625 7.71875,12.890625 7.46875,12.34375 C7.140625,11.59375 6.6875,10.875 6.21875,10.4375 C5.890625,10.296875 5.328125,10.046875 4.671875,9.921875 C4.0625,9.78125 3.6875,10.109375 3.265625,10.8125 L2.84375,10.390625 C2.96875,9.921875 3.125,9.546875 3.265625,9.265625 C3.734375,8.328125 4.578125,8.109375 5.65625,8.8125 C6.21875,9.171875 6.9375,9.59375 7.59375,9.9375 C8.25,10.296875 8.828125,10.578125 9.078125,10.671875 C9.359375,10.8125 9.453125,10.78125 9.234375,10.515625 C8.5,9.609375 7.671875,8.34375 6.84375,6.921875 C6,5.515625 5.15625,3.9375 4.390625,2.421875 C4.34375,2.296875 4.234375,2.171875 4.125,2.046875 C3.921875,1.78125 3.84375,1.53125 3.921875,1.296875 C4.015625,0.984375 4.15625,0.78125 4.4375,0.359375 C4.671875,0.078125 5.0625,0 5.359375,0.4375 C5.546875,0.71875 5.71875,0.96875 5.9375,1.25 L6.6875,2.234375 C7.03125,2.65625 7.53125,3.296875 8.140625,4 C8.734375,4.6875 9.40625,5.453125 10.109375,6.171875 C10.796875,6.875 11.484375,7.546875 12.140625,8.0625 C12.59375,8.421875 13.03125,8.765625 13.453125,9.109375 C13.859375,9.453125 14.28125,9.78125 14.65625,10.078125 C15.453125,10.671875 16.15625,11.15625 16.859375,11.40625 C17.28125,11.5625 17.53125,11.578125 17.6875,11.5 C17.828125,11.421875 17.890625,11.234375 17.890625,10.953125 C17.890625,10.578125 17.765625,10.078125 17.59375,9.609375 C17.421875,9.125 17.171875,8.671875 16.921875,8.375 C16.6875,8.09375 16.640625,7.828125 16.71875,7.625 C16.78125,7.4375 16.953125,7.296875 17.234375,7.25 C17.53125,7.1875 17.828125,7.09375 18.09375,6.96875 C18.484375,6.78125 18.734375,6.640625 18.875,6.484375 C19.015625,6.328125 19.0625,6.15625 19.0625,5.890625 C19.0625,5.515625 19.015625,5.171875 18.828125,4.84375 C18.640625,4.515625 18.34375,4.171875 17.859375,3.796875 C17.59375,3.59375 17.234375,3.375 16.875,3.171875 C16.6875,3.0625 16.5,2.953125 16.328125,2.84375 L15.796875,2.546875 C15.3125,2.28125 15.03125,1.953125 15.03125,1.578125 C15.03125,1.03125 15.21875,0.703125 15.578125,0.390625 C16.015625,0 16.625,-0.359375 17.140625,-0.53125 C17.375,-0.609375 17.6875,-0.6875 18,-0.75 C18.3125,-0.8125 18.640625,-0.875 18.875,-0.890625 C19.625,-0.96875 20.046875,-0.828125 20.140625,-0.359375 C20.171875,-0.125 20.09375,0.09375 19.9375,0.265625 C19.765625,0.453125 19.515625,0.546875 19.203125,0.53125 C19.046875,0.515625 18.796875,0.53125 18.53125,0.546875 C18.265625,0.578125 17.96875,0.609375 17.765625,0.640625 C17.328125,0.734375 17.015625,0.8125 16.765625,0.9375 C16.5,1.0625 16.296875,1.203125 16.109375,1.390625 C15.78125,1.71875 15.84375,1.90625 16.390625,2.1875 L17.984375,2.9375 C18.59375,3.21875 19.328125,3.640625 19.828125,4.109375 C20.453125,4.671875 20.703125,5.1875 20.703125,5.84375 C20.703125,6.640625 20.234375,7.25 19.703125,7.46875 C19.203125,7.6875 18.46875,7.8125 17.765625,7.875 C17.546875,7.90625 17.46875,7.953125 17.46875,8.015625 C17.484375,8.078125 17.546875,8.140625 17.640625,8.203125 C18,8.5 18.453125,8.953125 18.9375,9.578125 C19.296875,10.0625 19.53125,10.484375 19.53125,11.046875 C19.53125,11.421875 19.390625,11.734375 19.203125,11.96875 C19.015625,12.1875 18.734375,12.34375 18.453125,12.4375 C18.1875,12.515625 17.890625,12.5 17.5625,12.4375 C17.234375,12.375 16.9375,12.265625 16.703125,12.171875 C16.453125,12.078125 16.171875,11.9375 15.84375,11.75 C15.171875,11.359375 14.375,10.8125 13.484375,10.125 C12.59375,9.453125 11.265625,8.359375 10,7.21875 C8.734375,6.078125 7.671875,5.078125 6.796875,4.203125 L5.546875,2.984375 C5.71875,3.453125 6.125,4.203125 6.609375,5.046875 C7.109375,5.890625 7.71875,6.828125 8.296875,7.671875 C8.890625,8.5 9.453125,9.234375 9.921875,9.6875 L10.25,10.015625 C10.34375,10.109375 10.4375,10.203125 10.515625,10.265625 C10.671875,10.40625 10.828125,10.53125 11.015625,10.65625 C11.28125,10.828125 11.40625,11.046875 11.4375,11.265625 C11.46875,11.46875 11.390625,11.65625 11.28125,11.734375 C11.1875,11.8125 11.0625,11.890625 10.953125,11.9375 C10.703125,12.078125 10.296875,12.1875 9.921875,12.1875 C9.734375,12.1875 9.515625,12.109375 9.296875,11.9375 C8.6875,11.46875 8.015625,11.09375 7.4375,10.859375 C8.140625,11.515625 8.5,12.078125 8.84375,12.71875 C9.078125,13.171875 9.234375,13.703125 9.359375,14.5 C10.109375,14.6875 10.875,15 11.40625,15.265625 C11.859375,15.5 12.0625,15.828125 11.953125,16.15625 C11.828125,16.515625 11.515625,16.609375 11.109375,16.65625 C10.84375,16.6875 10.6875,16.5625 10.375,16.328125 C10.15625,16.15625 9.9375,16.046875 9.578125,15.875 C9.671875,16.46875 9.734375,16.90625 9.875,17.421875 C10.09375,18.359375 9.828125,18.734375 8.890625,18.96875 C8.5,19.0625 7.8125,19.109375 7.375,19.109375 Z" transform="translate(0.2265625, 19.109375) scale(1, -1)"/>
</svg>