<svg height="19.75" viewBox="0 0 24 19.75" width="24" xmlns="http://www.w3.org/2000/svg">
<path d="M5.140625,17.421875 C5.234375,17.28125 5.34375,17.140625 5.453125,17.046875 C5.65625,16.8125 6.171875,16.296875 6.84375,16.296875 C7.0625,16.296875 7.296875,16.34375 7.546875,16.390625 C8.046875,16.515625 8.53125,16.703125 8.828125,16.84375 C8.984375,16.90625 9.140625,16.984375 9.34375,17.0625 C8.75,15.96875 8.234375,15.03125 7.71875,14.109375 C7.1875,13.171875 6.640625,12.25 6.015625,11.1875 C5.375,10.140625 4.640625,8.9375 3.734375,7.46875 C3.546875,7.15625 3.453125,6.84375 3.453125,6.640625 C3.453125,6.34375 3.59375,6.078125 3.84375,5.859375 C4,5.71875 4.234375,5.671875 4.4375,5.734375 C4.625,5.796875 4.8125,5.9375 4.875,6.21875 C4.96875,6.625 5.203125,7.171875 5.421875,7.71875 C5.796875,8.65625 6.40625,9.421875 7.484375,10.078125 C8.203125,10.5 9.03125,10.765625 9.53125,10.765625 C9.21875,10.4375 8.828125,9.9375 8.46875,9.40625 C8.09375,8.859375 7.734375,8.296875 7.515625,7.921875 C7.078125,7.171875 6.859375,6.4375 6.796875,5.890625 C6.71875,5.1875 6.828125,4.796875 7.25,4.515625 C7.390625,4.40625 7.671875,4.34375 7.984375,4.359375 C8.296875,4.359375 8.65625,4.4375 9.03125,4.609375 C9.734375,4.953125 10.40625,5.46875 11.0625,6.359375 C11.4375,6.875 11.734375,7.546875 11.890625,8.234375 C12.03125,8.90625 12.0625,9.578125 11.953125,10.078125 C11.8125,10.734375 11.515625,11.140625 11.109375,11.421875 C11.375,11.859375 11.65625,12.25 11.890625,12.59375 C12.390625,13.296875 12.84375,13.90625 13.3125,14.453125 C13.765625,14.984375 14.328125,15.59375 14.796875,16.0625 C15.25,16.53125 15.640625,16.921875 16.046875,17.265625 C16.453125,17.609375 17.484375,18.625 17.46875,17.546875 L17.421875,14.1875 C17.0625,14 16.5625,13.703125 16.046875,13.34375 C15.53125,12.96875 15.03125,12.5625 14.65625,12.1875 C13.875,11.375 13.421875,10.71875 13.15625,10.15625 C12.875,9.578125 12.796875,9.046875 12.796875,8.515625 C12.796875,8.234375 12.8125,7.859375 12.890625,7.53125 C12.96875,7.203125 13.109375,6.859375 13.390625,6.578125 C13.859375,6.109375 14.421875,5.546875 14.984375,4.953125 L15.828125,4.078125 C16.109375,3.78125 16.390625,3.5 16.625,3.234375 C17.015625,2.828125 17.265625,2.5 17.59375,2.5 C17.84375,2.5 18.0625,2.59375 18.296875,2.984375 C18.765625,3.8125 18.578125,5.234375 18.53125,6.109375 C18.5,6.546875 18.484375,6.96875 18.484375,7.390625 C18.84375,7.171875 19.34375,6.9375 19.78125,6.9375 C20.328125,6.9375 20.703125,7.15625 20.703125,7.65625 C20.703125,7.953125 20.515625,8.140625 20.15625,8.234375 C19.75,8.328125 19.421875,8.4375 19.125,8.5625 C18.765625,8.71875 18.59375,8.8125 18.40625,9 L18.484375,12 C18.75,12.359375 18.9375,12.625 19.171875,12.890625 C19.484375,13.25 19.4375,13.5625 19.203125,13.953125 C19.0625,14.140625 18.875,14.34375 18.71875,14.46875 L18.796875,16.71875 C18.828125,17.234375 18.828125,17.59375 18.734375,17.859375 C18.640625,18.234375 18.3125,18.640625 17.90625,18.78125 C17.328125,18.96875 16.796875,18.75 16.375,18.453125 C16.109375,18.265625 15.75,17.984375 15.359375,17.65625 C14.953125,17.3125 14.53125,16.921875 14.15625,16.53125 C13.140625,15.46875 12.421875,14.71875 11.796875,13.984375 C11.1875,13.25 10.640625,12.546875 9.984375,11.59375 C9.484375,11.59375 8.8125,11.453125 7.921875,11.140625 C7.578125,11 7.34375,10.90625 7.109375,10.765625 C6.875,10.609375 6.65625,10.421875 6.34375,10.15625 L8.734375,13.96875 C9.171875,14.671875 9.609375,15.359375 10.015625,15.96875 C10.40625,16.5625 10.75,17.046875 11.015625,17.28125 C11.328125,17.578125 11.5,17.828125 11.5,18 C11.5,18.15625 11.453125,18.28125 11.359375,18.375 C11.171875,18.546875 10.5,19.125 10.125,18.796875 C9.75,18.453125 9.265625,18.171875 8.796875,17.9375 C8.328125,17.71875 7.859375,17.5625 7.484375,17.5 C7.0625,17.421875 6.640625,17.4375 6.296875,17.53125 C5.9375,17.609375 5.65625,17.765625 5.5,17.953125 Z M17.375,11.515625 C17.203125,11.09375 16.90625,10.484375 16.609375,10.109375 C16.390625,9.828125 16.328125,9.4375 16.328125,9.125 C16.328125,8.828125 16.453125,8.578125 16.671875,8.328125 C16.8125,8.1875 17.109375,7.90625 17.328125,7.765625 C17.375,7.0625 17.390625,6.046875 17.328125,5.015625 C17.296875,4.53125 17.203125,4.484375 16.921875,4.625 C16.640625,4.765625 16.203125,5.09375 15.78125,5.4375 C15.359375,5.78125 14.9375,6.171875 14.65625,6.40625 C14.1875,6.875 13.921875,7.25 13.765625,7.625 C13.625,7.984375 13.578125,8.28125 13.578125,8.546875 C13.578125,9.078125 13.640625,9.546875 13.875,10.03125 C14.109375,10.515625 14.53125,11 15.265625,11.59375 C15.59375,11.84375 16,12.09375 16.390625,12.3125 C16.765625,12.546875 17.140625,12.703125 17.375,12.796875 Z M10.375,10.34375 C10.640625,10.109375 10.703125,9.6875 10.703125,9.078125 C10.703125,8.703125 10.625,8.265625 10.484375,7.8125 C10.34375,7.34375 10.15625,6.890625 9.921875,6.546875 C9.59375,6.078125 9.34375,5.8125 9.125,5.65625 C8.890625,5.515625 8.671875,5.46875 8.46875,5.46875 C8.140625,5.46875 8,5.671875 8.140625,6.265625 C8.1875,6.5 8.328125,6.921875 8.515625,7.390625 C8.703125,7.84375 8.96875,8.359375 9.234375,8.796875 C9.5,9.21875 9.6875,9.484375 9.859375,9.71875 C10.015625,9.9375 10.171875,10.109375 10.375,10.34375 Z M4.53125,4.859375 C4.0625,4.53125 3.71875,3.9375 3.71875,3.234375 C3.71875,2.515625 3.9375,1.8125 4.875,1.015625 C5.21875,0.71875 5.890625,0.40625 6.75,0.171875 C7.625,-0.078125 8.6875,-0.296875 9.890625,-0.4375 C11.0625,-0.5625 12.34375,-0.625 13.625,-0.625 C14.890625,-0.625 16.15625,-0.59375 17.375,-0.53125 C17.8125,-0.515625 18.390625,-0.453125 18.921875,-0.375 C19.4375,-0.3125 19.9375,-0.234375 20.203125,-0.140625 C20.796875,0.0625 21.03125,0.234375 21.03125,0.546875 C21.03125,0.734375 20.9375,0.96875 20.6875,1.125 C20.5,1.25 20.21875,1.375 19.859375,1.421875 C19.453125,1.46875 19.0625,1.40625 18.671875,1.25 C18.265625,1.0625 17.640625,1 16.65625,0.875 C15.796875,0.765625 14.75,0.6875 13.71875,0.671875 C12.671875,0.640625 11.640625,0.65625 10.828125,0.71875 C8.984375,0.859375 7.578125,1.109375 6.734375,1.4375 C5.9375,1.765625 5.375,2.15625 5.0625,2.46875 C4.640625,2.890625 4.578125,3.203125 4.65625,3.796875 C4.6875,4.0625 4.75,4.171875 5.015625,4.46875 Z" transform="translate(-0.2421875, 19.125) scale(1, -1)"/>
</svg>