<svg height="21.0625" viewBox="0 0 24 21.0625" width="24" xmlns="http://www.w3.org/2000/svg">
<path d="M9.71875,19.4375 C10.1875,19.25 10.484375,19.015625 10.625,18.640625 C10.765625,18.265625 10.765625,17.75 10.578125,17.046875 C9.6875,16.703125 8.796875,16.296875 8,15.890625 C7.21875,15.484375 6.53125,15.046875 6.046875,14.65625 C5.859375,15.125 5.65625,15.40625 5.515625,15.546875 C5.09375,15.984375 4.46875,16.125 4.015625,16.125 L3.796875,15.828125 C4.34375,15.53125 4.765625,15.0625 5.09375,14 C3.921875,12.921875 3.03125,11.9375 2.5625,11 C2.296875,10.484375 2.265625,10.109375 2.375,9.8125 C2.46875,9.515625 2.71875,9.28125 3.046875,9.046875 C3.40625,8.796875 3.890625,8.375 4.21875,7.953125 C4.71875,7.296875 5.25,7.4375 6.234375,8.109375 C6.890625,8.546875 7.328125,9 7.765625,9.484375 C8.03125,9.09375 8.5,8.703125 8.859375,8.5625 C9.21875,8.4375 9.578125,8.5 9.796875,8.796875 C10.015625,9.109375 9.84375,9.359375 9.484375,9.640625 C9.09375,9.96875 8.84375,10.15625 8.5625,10.4375 C9.3125,11.28125 10.015625,12.296875 10.59375,13.375 C11.1875,14.4375 11.65625,15.5625 11.9375,16.65625 C13.578125,17.390625 15.265625,17.65625 16.53125,17.65625 C17.765625,17.65625 18.53125,17.328125 19.078125,16.53125 C19.34375,16.15625 19.4375,15.625 19.4375,15.1875 C19.4375,14.9375 19.40625,14.640625 19.34375,14.375 C19.296875,14.09375 19.203125,13.859375 19.0625,13.71875 C18.34375,14 17.515625,14.09375 16.625,14.09375 C16.15625,14.09375 15.671875,13.984375 15.234375,13.828125 C14.796875,13.671875 14.421875,13.484375 14.140625,13.28125 C13.578125,12.875 13.21875,12.265625 13.21875,11.703125 C13.21875,11.046875 13.609375,10.5625 14.5,10.421875 C15.109375,10.3125 15.8125,10.4375 16.65625,10.71875 C17.59375,11.046875 18.40625,11.484375 19.25,12.234375 C19.390625,12.09375 19.53125,11.78125 19.34375,11.3125 C19.078125,10.5625 18.390625,9.921875 17.546875,9.359375 C17.265625,9.171875 16.859375,8.921875 16.390625,8.65625 C15.921875,8.375 15.375,8.109375 14.859375,7.921875 C14.015625,7.71875 13.125,7.484375 12.453125,7.21875 C12.546875,7.46875 12.609375,7.796875 12.640625,8.015625 C12.734375,8.6875 12.59375,9.046875 12.078125,9.265625 C11.734375,9.40625 11.109375,9.5 10.484375,9.453125 L10.296875,8.90625 C10.640625,8.828125 10.875,8.765625 11.015625,8.625 C11.140625,8.484375 11.1875,8.28125 11.140625,7.921875 C11.09375,7.65625 11.046875,7.234375 10.875,6.875 C10.390625,6.640625 9.84375,6.5 9.4375,6.40625 C8.859375,6.28125 8.421875,6.203125 8.109375,6.171875 C7.8125,6.125 7.578125,6.140625 7.4375,6.21875 C7.203125,6.34375 7.203125,6.5 7.375,6.78125 L6.875,6.890625 C6.5,6.515625 6.28125,6.078125 6.234375,5.59375 C6.21875,5.390625 6.25,5.203125 6.34375,5.046875 C6.53125,4.703125 6.859375,4.578125 7.234375,4.578125 C7.421875,4.59375 7.671875,4.65625 8.015625,4.765625 L8.609375,4.953125 C8.84375,5.015625 9.078125,5.09375 9.3125,5.171875 C9.765625,5.3125 10.21875,5.46875 10.515625,5.59375 C10.25,4.84375 9.6875,3.828125 8.703125,2.703125 C7.71875,1.578125 6.5,0.515625 4.625,-0.453125 L5.109375,-0.984375 C7.109375,-0.046875 8.5625,1.0625 9.640625,2.140625 C10.015625,1.4375 10.453125,0.6875 11.109375,-0.078125 C11.671875,-0.734375 12.53125,-1.203125 13.375,-1.203125 C14.234375,-1.203125 14.984375,-0.9375 15.78125,-0.359375 C16.328125,0.046875 17.015625,0.734375 17.515625,1.953125 C17.75,2.515625 17.9375,3.1875 18.078125,3.890625 C18.21875,4.59375 18.296875,5.328125 18.296875,6 C18.296875,7.515625 17.5625,8.125 16.109375,8 C16.375,8.046875 16.6875,8.15625 17.015625,8.28125 C17.328125,8.421875 17.640625,8.546875 17.90625,8.6875 C18.984375,9.234375 19.953125,9.96875 20.421875,10.671875 C21.046875,11.609375 20.84375,12.484375 20.09375,13.109375 C20.328125,13.375 20.5625,13.65625 20.71875,14 C20.890625,14.328125 20.984375,14.75 20.984375,15.265625 C20.984375,16.015625 20.734375,16.765625 19.921875,17.46875 C19.515625,17.8125 19,18.078125 18.4375,18.21875 C17.875,18.359375 17.25,18.4375 16.671875,18.4375 C16.015625,18.4375 15.359375,18.390625 14.609375,18.265625 C13.875,18.125 13.0625,17.921875 12.125,17.59375 C12.25,18.265625 12.28125,18.671875 11.859375,19.0625 C11.515625,19.375 10.78125,19.703125 10.03125,19.859375 Z M10.46875,16.25 C10.34375,15.625 10.015625,14.75 9.546875,13.8125 C9.09375,12.875 8.53125,11.921875 7.96875,11.15625 C7.71875,11.484375 7.4375,11.890625 7.15625,12.328125 C6.890625,12.78125 6.65625,13.25 6.484375,13.8125 C6.921875,14.234375 7.5625,14.703125 8.265625,15.125 C8.96875,15.546875 9.75,15.953125 10.46875,16.25 Z M16.671875,13.25 C17.515625,13.25 18.125,13.109375 18.484375,12.921875 C17.859375,12.21875 17.09375,11.796875 16.390625,11.46875 C15.921875,11.25 15.3125,11.109375 14.796875,11.109375 C14.265625,11.109375 14.109375,11.453125 14.109375,11.765625 C14.109375,12.078125 14.328125,12.375 14.65625,12.671875 C14.796875,12.796875 15.09375,12.953125 15.453125,13.0625 C15.796875,13.15625 16.21875,13.25 16.671875,13.25 Z M5.515625,12.984375 C5.953125,11.953125 6.5,11.03125 7.125,10.203125 C6.671875,9.671875 6.1875,9.25 5.515625,8.859375 C5.296875,8.734375 5.109375,8.65625 4.984375,8.671875 C4.703125,8.671875 4.375,8.984375 4.140625,9.1875 C4.015625,9.28125 3.890625,9.375 3.78125,9.453125 C3.40625,9.703125 3.40625,9.984375 3.71875,10.625 C3.90625,11.046875 4.1875,11.46875 4.5,11.890625 C4.8125,12.3125 5.1875,12.6875 5.515625,12.984375 Z M16.15625,7.25 C16.390625,7.203125 16.53125,7.171875 16.625,7 C16.71875,6.8125 16.765625,6.515625 16.78125,6 C16.796875,5.390625 16.75,4.75 16.625,4.140625 C16.515625,3.53125 16.34375,2.953125 16.15625,2.515625 C15.734375,1.53125 15.296875,0.96875 14.734375,0.578125 C14.28125,0.265625 13.90625,0.109375 13.28125,0.140625 C12.796875,0.171875 12.125,0.390625 11.59375,0.796875 C11.0625,1.203125 10.4375,1.9375 10.109375,2.640625 C10.578125,3.125 11,3.734375 11.359375,4.359375 C11.703125,4.96875 11.984375,5.609375 12.21875,6.171875 C12.859375,6.5 13.671875,6.8125 14.421875,7.015625 C15.171875,7.203125 15.828125,7.296875 16.15625,7.25 Z" transform="translate(0.34375, 19.859375) scale(1, -1)"/>
</svg>