<svg height="19.90625" viewBox="0 0 24 19.90625" width="24" xmlns="http://www.w3.org/2000/svg">
<path d="M8.453125,18.390625 C8.71875,17.703125 9.28125,17.140625 10.0625,16.84375 C10.828125,16.53125 11.796875,16.484375 12.890625,16.859375 C11.375,15.546875 9.703125,13.953125 8.09375,12.140625 C6.46875,10.34375 4.90625,8.328125 3.59375,6.1875 C3.484375,5.984375 3.375,5.828125 3.265625,5.6875 C3.171875,5.546875 3.078125,5.421875 3.015625,5.296875 C2.859375,5.0625 2.765625,4.859375 2.765625,4.609375 C2.765625,4.203125 2.90625,3.921875 3.1875,3.53125 C3.390625,3.265625 3.640625,3.046875 3.890625,3.046875 C4.28125,3.046875 4.46875,3.34375 4.765625,4.0625 C5,4.625 5.515625,5.375 6.203125,6.203125 C6.875,7.015625 7.71875,7.90625 8.59375,8.796875 C10.0625,10.25 11.546875,11.40625 12.828125,12.171875 C13.15625,12.359375 13.4375,12.5 13.640625,12.578125 C14.0625,12.703125 14.328125,12.640625 14.46875,12.234375 C14.53125,12.03125 14.5625,11.703125 14.5625,11.265625 C14.5625,10.875 14.609375,10.578125 14.859375,10.328125 C15.109375,10.078125 15.34375,10.015625 15.96875,10.15625 C16.390625,10.25 16.890625,10.25 17.328125,10.171875 C17.78125,10.078125 18.1875,9.921875 18.5,9.640625 C19.125,9.125 19.515625,8.328125 19.515625,7.4375 C19.515625,6.21875 18.984375,5.234375 18.140625,4.46875 C17.296875,3.71875 16.28125,3.296875 15.296875,3.296875 C14.359375,3.296875 13.625,3.5 13.171875,3.828125 C13.375,4.046875 13.578125,4.296875 13.78125,4.578125 C14.1875,5.1875 14.46875,5.9375 14.609375,6.84375 C15.59375,6.875 16.25,6.78125 16.765625,6.59375 C17.328125,6.40625 17.734375,6.578125 17.734375,6.9375 C17.734375,7.234375 17.515625,7.484375 17.15625,7.65625 C16.796875,7.8125 16.296875,7.90625 15.78125,7.90625 C15.40625,7.90625 15.078125,7.890625 14.703125,7.859375 C14.703125,8.28125 14.703125,8.703125 14.609375,9.09375 C14.421875,10.078125 14.09375,10.4375 13.609375,10.4375 C13.171875,10.4375 12.5,10.078125 12.171875,9.390625 L12.453125,9.09375 C12.9375,9.640625 13.21875,9.625 13.34375,8.90625 C13.4375,8.5 13.4375,8.109375 13.4375,7.71875 C12.9375,7.640625 12.296875,7.53125 11.65625,7.390625 C11,7.234375 10.390625,7.0625 9.921875,6.890625 C9.921875,7.171875 9.921875,7.515625 10.015625,7.953125 C10.109375,8.46875 10.390625,8.8125 10.875,8.5625 L11.09375,8.90625 C10.765625,9.140625 10.4375,9.21875 10.15625,9.171875 C9.859375,9.125 9.59375,8.96875 9.4375,8.765625 C9.03125,8.234375 8.84375,7.34375 8.8125,6.40625 C8.109375,6.03125 7.4375,5.5625 6.828125,5 L7.34375,4.53125 C7.859375,4.921875 8.359375,5.234375 8.84375,5.5 C8.84375,5.34375 8.875,5.1875 8.890625,5.046875 C8.890625,4.90625 8.90625,4.765625 8.9375,4.609375 C9.03125,3.9375 9.34375,3.5 9.96875,3.5 C10.296875,3.5 10.578125,3.78125 10.859375,4.203125 C11.140625,4.625 11.421875,5.203125 11.65625,5.859375 L11.328125,6.140625 C11.15625,5.765625 11,5.46875 10.78125,5.1875 C10.421875,4.703125 10.0625,4.75 9.984375,5.40625 C9.953125,5.625 9.9375,5.8125 9.9375,6 C11.046875,6.4375 12.125,6.609375 13.390625,6.734375 C13.296875,6.28125 13.15625,5.8125 12.9375,5.3125 C12.3125,3.890625 11.015625,2.859375 9,2.703125 L9.265625,2.109375 C10.71875,2.234375 11.796875,2.53125 12.6875,3.359375 C13.34375,2.703125 14.1875,2.453125 15.265625,2.453125 C17.0625,2.453125 18.484375,2.984375 19.46875,3.921875 C20.453125,4.859375 20.984375,6.03125 20.984375,7.296875 C20.984375,8.46875 20.515625,9.3125 19.8125,10.015625 C19.0625,10.71875 18,11 16.671875,10.921875 C16.171875,10.890625 15.96875,11.109375 15.96875,11.5625 C15.96875,11.90625 15.9375,12.21875 15.890625,12.5 C15.78125,13.046875 15.59375,13.5625 14.703125,13.609375 C14.140625,13.640625 13.4375,13.421875 12.453125,12.828125 C11.75,12.40625 10.96875,11.84375 10.140625,11.171875 C8.453125,9.8125 6.453125,8.03125 4.484375,5.984375 C5.953125,8.65625 7.625,10.671875 9.34375,12.390625 C11.09375,14.140625 12.828125,15.671875 14.890625,16.703125 C15.640625,17.09375 15.8125,17.65625 14.953125,18.21875 C14.625,18.40625 14.375,18.515625 14.125,18.515625 C13.859375,18.515625 13.578125,18.40625 13.25,18.1875 C12.59375,17.78125 11.9375,17.703125 11.140625,17.703125 C10.296875,17.703125 9.4375,18 8.9375,18.734375 Z M7.34375,2.375 C6.609375,2.09375 6.359375,1.6875 6.359375,0.984375 C6.359375,0.390625 6.78125,-0.140625 7.828125,-0.546875 C8.359375,-0.75 9.171875,-0.921875 10.0625,-1.015625 C10.96875,-1.109375 11.96875,-1.171875 12.875,-1.171875 C13.25,-1.171875 13.65625,-1.15625 14.09375,-1.125 C14.984375,-1.0625 15.84375,-0.96875 16.53125,-0.875 C17.234375,-0.765625 17.96875,-0.59375 18.453125,-0.3125 C18.6875,-0.171875 18.796875,0.03125 18.796875,0.265625 C18.796875,0.640625 18.484375,0.890625 18.125,0.9375 C17.890625,0.96875 17.703125,0.984375 17.484375,0.953125 C17.265625,0.90625 17.03125,0.828125 16.65625,0.671875 C16.34375,0.546875 15.78125,0.375 15.078125,0.25 C14.375,0.125 13.578125,0.03125 12.828125,0.03125 C11.828125,0.03125 10.78125,0.078125 9.890625,0.203125 C8.984375,0.3125 8.21875,0.5 7.78125,0.734375 C7.5,0.890625 7.375,1.125 7.34375,1.359375 C7.328125,1.578125 7.4375,1.8125 7.625,1.96875 Z" transform="translate(0.125, 18.734375) scale(1, -1)"/>
</svg>