<svg height="19.3125" viewBox="0 0 24 19.3125" width="24" xmlns="http://www.w3.org/2000/svg">
<path d="M2.9375,18.359375 C3.453125,18.09375 4.015625,17.703125 4.46875,17.234375 C4.921875,16.78125 5.296875,16.296875 5.5,15.828125 C5.765625,15.21875 5.90625,14.921875 6.140625,14.8125 C6.40625,14.6875 6.671875,14.75 6.921875,14.9375 C7.140625,15.109375 7.171875,15.359375 7.171875,15.625 C7.171875,15.984375 7.03125,16.484375 6.546875,17.015625 C5.84375,17.8125 4.734375,18.4375 3.359375,18.921875 Z M17.109375,16.03125 C16.3125,16.03125 15.078125,15.859375 13.6875,15.53125 C12.3125,15.203125 10.78125,14.703125 9.453125,14.046875 C8.796875,13.71875 8.375,13.4375 8.140625,13.109375 C7.890625,12.796875 7.796875,12.453125 7.78125,12 C7.75,11.46875 7.71875,11.046875 7.671875,10.53125 C7.578125,9.546875 7.453125,8.375 7.296875,7.53125 C7.296875,7.453125 7.265625,7.359375 7.25,7.25 C7.21875,7.15625 7.203125,7.046875 7.1875,6.9375 C7.140625,6.734375 7.109375,6.546875 7.109375,6.4375 C7.109375,6.03125 7.15625,5.65625 7.328125,5.375 C7.53125,5.09375 7.90625,4.96875 8.1875,4.96875 C8.734375,4.96875 9.484375,5.203125 9.984375,5.546875 C10.96875,6.203125 11.765625,6.921875 12.46875,7.8125 C13.171875,8.703125 13.765625,9.8125 14.375,11.234375 C14.703125,11.984375 14.796875,12.640625 14.796875,13.078125 C14.796875,13.828125 14.375,14.296875 13.859375,14.609375 C15.125,15 16.296875,15.21875 17.0625,15.21875 C18.09375,15.21875 18.703125,15.03125 19.078125,14.703125 C19.53125,14.328125 19.78125,13.609375 19.78125,12.390625 C19.78125,10.859375 19.578125,9.453125 19.203125,8.28125 C18.84375,7.109375 18.34375,6.140625 17.765625,5.515625 C17.609375,5.375 17.484375,5.28125 17.375,5.28125 C17.234375,5.28125 17.09375,5.34375 16.953125,5.453125 C16.75,5.59375 16.328125,5.875 15.84375,6.203125 C15.359375,6.515625 14.8125,6.875 14.328125,7.15625 L13.953125,6.640625 C14.359375,6.328125 14.828125,5.9375 15.25,5.546875 C15.65625,5.140625 16.015625,4.734375 16.203125,4.375 C16.375,4.0625 16.5625,3.84375 16.78125,3.6875 C17.140625,3.453125 17.5625,3.546875 18.078125,3.875 C18.59375,4.203125 19.0625,4.71875 19.390625,5.1875 C19.90625,5.890625 20.390625,6.84375 20.75,8.078125 C21.09375,9.296875 21.3125,10.796875 21.3125,12.53125 C21.3125,13.4375 21.125,14.09375 20.859375,14.5625 C20.578125,15.015625 20.234375,15.3125 19.90625,15.5 C19.28125,15.890625 18.34375,16.03125 17.109375,16.03125 Z M13.0625,14.375 C13.484375,13.765625 13.484375,12.796875 12.96875,11.28125 C12.171875,8.9375 10.859375,7.34375 9.453125,6.453125 C9.265625,6.328125 9.0625,6.25 8.875,6.234375 C8.484375,6.203125 8.1875,6.3125 8.109375,6.609375 C8.078125,6.765625 8.0625,7 8.09375,7.328125 C8.140625,7.890625 8.21875,8.703125 8.328125,9.5 C8.421875,10.3125 8.578125,11.15625 8.765625,11.765625 C8.953125,12.40625 9.40625,12.71875 10.25,13.171875 C11.09375,13.625 12.078125,14.046875 13.0625,14.375 Z M2.15625,13.078125 C2.3125,12.1875 2.609375,11.375 3.1875,10.625 C3.53125,10.203125 3.671875,9.6875 3.484375,8.984375 C3.3125,8.359375 3.140625,7.65625 3.015625,6.9375 C2.875,6.21875 2.796875,5.5 2.796875,4.8125 C2.796875,3.875 2.9375,2.84375 3.53125,2.046875 C3.890625,1.578125 4.25,1.25 4.703125,0.984375 C5.15625,0.734375 5.671875,0.546875 6.359375,0.390625 C7.296875,0.171875 8.28125,-0.03125 9.40625,-0.171875 C10.53125,-0.3125 11.796875,-0.390625 13.296875,-0.390625 C16.0625,-0.390625 18.484375,-0.265625 20.890625,0.234375 C21.171875,0.296875 21.375,0.359375 21.53125,0.40625 C21.6875,0.453125 21.78125,0.515625 21.921875,0.59375 C22.15625,0.78125 22.296875,0.9375 22.296875,1.171875 C22.296875,1.4375 22.078125,1.703125 21.5,1.859375 C21.125,1.953125 20.78125,1.859375 20.140625,1.703125 C19.203125,1.484375 18.171875,1.296875 17.046875,1.171875 C15.90625,1.03125 14.609375,0.96875 13.15625,0.984375 C11.5625,1 10.25,1.078125 9.1875,1.203125 C8.109375,1.3125 7.265625,1.453125 6.59375,1.625 C5.484375,1.90625 4.71875,2.265625 4.125,3.046875 C3.8125,3.453125 3.625,4.109375 3.625,5 C3.625,6.171875 3.96875,7.25 4.375,8.109375 C4.484375,8.328125 4.578125,8.5625 4.671875,8.765625 C4.75,8.96875 4.84375,9.171875 4.953125,9.34375 C5.09375,9.640625 5.171875,9.921875 5.140625,10.203125 C5.09375,10.765625 4.578125,11.046875 4.265625,11.28125 C4.109375,11.375 3.9375,11.515625 3.734375,11.6875 C3.375,12.015625 2.921875,12.640625 2.734375,13.484375 Z" transform="translate(-0.2265625, 18.921875) scale(1, -1)"/>
</svg>