<svg height="19.203125" viewBox="0 0 24 19.203125" width="24" xmlns="http://www.w3.org/2000/svg">
<path d="M3.84375,17.9375 C4.296875,17.703125 4.609375,17.5625 4.859375,17.328125 C5.078125,17.109375 5.25,16.90625 5.34375,16.625 C5.4375,16.34375 5.46875,16.015625 5.328125,15.578125 C5.234375,15.203125 5,14.375 4.765625,13.4375 C4.53125,12.5 4.28125,11.421875 4.125,10.5625 C3.875,9.15625 3.71875,8.140625 3.625,7.265625 C3.53125,6.375 3.515625,5.609375 3.546875,4.671875 C3.59375,3.640625 3.6875,2.71875 3.8125,1.96875 C3.921875,1.203125 4.0625,0.625 4.21875,0.296875 C4.4375,-0.171875 4.65625,-0.453125 4.859375,-0.59375 C5.046875,-0.75 5.21875,-0.796875 5.359375,-0.796875 C5.890625,-0.796875 6.171875,-0.453125 6.140625,0.484375 C6.125,0.921875 6.234375,1.609375 6.390625,2.328125 C6.546875,3.03125 6.765625,3.796875 6.984375,4.390625 C7.375,5.46875 7.765625,6.375 8.234375,7.265625 C8.6875,8.15625 9.203125,9.03125 9.84375,10.109375 C10.375,11 11.1875,12.078125 11.953125,13.015625 C12.734375,13.96875 13.46875,14.796875 13.921875,15.21875 C14.046875,15.328125 14.203125,15.453125 14.375,15.59375 C14.703125,15.84375 15.03125,16.078125 15.328125,16.25 C15.609375,16.40625 16,16.53125 16.296875,16.578125 C16.4375,16.609375 16.546875,16.59375 16.625,16.5625 C16.765625,16.46875 16.8125,16.25 16.8125,15.875 C16.8125,15.359375 16.65625,14.453125 16.015625,13.171875 C15.921875,13 15.828125,12.796875 15.703125,12.5625 L15.359375,11.84375 C15.109375,11.359375 14.859375,10.890625 14.703125,10.609375 C14.46875,10.171875 14.546875,9.84375 14.765625,9.671875 C15.046875,9.4375 15.359375,9.15625 15.5,8.984375 C15.734375,8.734375 15.828125,8.5 15.84375,8.28125 C15.859375,7.828125 15.515625,7.328125 15.171875,6.8125 C14.84375,6.296875 14.4375,5.703125 14.03125,5.140625 C13.828125,4.84375 13.640625,4.578125 13.46875,4.328125 C12.984375,3.625 12.890625,3.171875 12.890625,2.734375 C12.890625,2.34375 13,2.015625 13.21875,1.75 C13.640625,1.1875 14.5625,0.8125 15.53125,0.578125 C16.484375,0.328125 17.4375,0.265625 18.3125,0.25 C19.171875,0.21875 19.953125,0.21875 20.09375,0.828125 C20.140625,1.046875 20,1.25 19.8125,1.390625 C19.484375,1.671875 19.015625,1.71875 18.4375,1.671875 C17.765625,1.640625 17.140625,1.671875 16.421875,1.765625 C15.53125,1.859375 14.796875,2.0625 14.328125,2.3125 C13.921875,2.53125 13.8125,2.765625 13.8125,3.046875 C13.8125,3.265625 13.875,3.5 14.046875,3.8125 C14.203125,4.109375 14.453125,4.484375 14.859375,5 C15.0625,5.265625 15.375,5.625 15.703125,5.984375 C16.015625,6.359375 16.34375,6.703125 16.53125,6.9375 C16.96875,7.4375 17.1875,7.875 17.1875,8.421875 C17.1875,8.625 17.140625,8.796875 17.046875,8.984375 C16.875,9.3125 16.40625,9.6875 16.09375,9.875 C15.921875,9.96875 15.75,10.0625 15.546875,10.203125 C15.359375,10.328125 15.46875,10.484375 15.59375,10.671875 C15.6875,10.828125 15.828125,11.03125 15.96875,11.296875 C16.125,11.5625 16.296875,11.84375 16.484375,12.140625 C16.859375,12.75 17.265625,13.421875 17.59375,13.921875 C17.953125,14.46875 18.140625,14.90625 18.3125,15.40625 C18.453125,15.78125 18.453125,16.0625 18.453125,16.375 C18.453125,17.09375 18.046875,17.5 17.515625,17.59375 C17.203125,17.65625 16.8125,17.609375 16.4375,17.53125 C16.0625,17.4375 15.6875,17.296875 15.453125,17.15625 C14.890625,16.8125 14.296875,16.4375 13.46875,15.6875 C13.09375,15.359375 12.578125,14.796875 12.03125,14.1875 C11.5,13.5625 10.953125,12.890625 10.53125,12.359375 C9.734375,11.328125 9.03125,10.359375 8.390625,9.328125 C7.734375,8.296875 7.125,7.21875 6.546875,6 C6.046875,4.96875 5.703125,4.078125 5.421875,3.1875 C5.296875,2.78125 5.21875,2.5625 5.171875,2.53125 C5.0625,2.46875 4.984375,2.953125 4.90625,3.46875 C4.859375,3.734375 4.828125,4.09375 4.828125,4.5625 L4.828125,5.875 C4.828125,6.25 4.84375,6.59375 4.859375,6.9375 C4.875,7.59375 4.90625,8.21875 5.046875,8.984375 C5.28125,10.578125 5.6875,12.09375 6.1875,13.421875 C6.296875,13.71875 6.40625,14 6.53125,14.28125 C6.640625,14.5625 6.765625,14.875 6.890625,15.21875 C7.28125,16.203125 6.984375,17 6.265625,17.515625 C6.03125,17.703125 5.6875,17.890625 5.328125,18.0625 C4.953125,18.21875 4.578125,18.359375 4.25,18.40625 Z" transform="translate(0.171875, 18.40625) scale(1, -1)"/>
</svg>