<svg height="18.65625" viewBox="0 0 24 18.65625" width="24" xmlns="http://www.w3.org/2000/svg">
<path d="M5.5625,17.859375 C5.71875,16.171875 6.3125,15.234375 7.078125,14.765625 C7.28125,14.640625 7.375,14.546875 7.390625,14.46875 C7.390625,14.3125 6.96875,14.046875 6.734375,13.875 L5.984375,13.390625 C5.84375,13.296875 5.671875,13.203125 5.5,13.078125 L5.8125,12.59375 C5.96875,12.6875 6.140625,12.765625 6.3125,12.84375 C6.6875,13.015625 7.046875,13.15625 7.40625,13.3125 L7.90625,13.515625 C8.328125,13.6875 8.65625,13.71875 9.171875,13.71875 C9.828125,13.71875 10.21875,13.953125 10.21875,14.28125 C10.21875,14.515625 10.140625,14.78125 10.015625,14.953125 C9.71875,15.359375 9.359375,15.5 8.90625,15.578125 C8.359375,15.671875 7.78125,15.921875 7.078125,16.46875 C6.6875,16.78125 6.3125,17.34375 6.140625,18.09375 Z M13.96875,14.65625 C14.28125,15.078125 14.515625,15.34375 14.796875,15.53125 C15.078125,15.734375 15.359375,15.796875 15.53125,15.71875 C15.796875,15.59375 15.78125,15.28125 15.734375,14.6875 C15.65625,13.703125 15.484375,12.890625 15.296875,12.09375 C15.1875,11.6875 15.046875,11.3125 14.90625,11.140625 C14.828125,11.03125 14.765625,10.9375 14.75,10.859375 C14.703125,10.703125 14.75,10.5 14.8125,10.359375 C14.890625,10.203125 14.96875,9.96875 15.21875,10.015625 C15.34375,10.03125 15.546875,10.15625 15.84375,10.375 C16.109375,10.5625 16.484375,10.75 16.875,10.90625 C17.234375,11.046875 17.59375,11.09375 18,11.09375 C18.546875,11.09375 18.96875,10.953125 19.25,10.609375 C19.53125,10.25 19.671875,9.65625 19.671875,8.765625 C19.671875,7.78125 19.484375,6.6875 18.875,5.65625 C18.546875,5.109375 18.1875,4.625 17.8125,4.15625 C17.421875,3.6875 17,3.234375 16.484375,2.734375 C16.34375,2.59375 16.21875,2.46875 16.109375,2.359375 C15.984375,2.25 15.875,2.140625 15.78125,2.046875 C15.59375,1.859375 15.40625,1.671875 15.234375,1.4375 C14.828125,0.890625 15,0.296875 15.578125,-0.09375 C15.9375,-0.34375 16.65625,-0.515625 17.40625,-0.546875 C17.703125,-0.5625 18.078125,-0.5625 18.453125,-0.53125 C18.8125,-0.5 19.15625,-0.46875 19.390625,-0.4375 C19.765625,-0.390625 20,-0.328125 20.140625,-0.25 C20.28125,-0.171875 20.375,-0.078125 20.421875,0.078125 C20.515625,0.34375 20.28125,0.59375 20.0625,0.78125 C19.703125,1.0625 19.375,1.015625 19.125,0.9375 C18.859375,0.859375 18.609375,0.796875 18.375,0.765625 C17.90625,0.703125 17.53125,0.65625 17.109375,0.703125 C16.671875,0.734375 15.78125,0.859375 16.25,1.515625 C16.515625,1.90625 16.875,2.296875 17.546875,2.859375 C18.296875,3.484375 19.046875,4.21875 19.703125,5.015625 C20.6875,6.234375 21.359375,7.40625 21.390625,8.734375 C21.40625,9.90625 21.046875,10.6875 20.484375,11.1875 C19.921875,11.671875 19.171875,11.859375 18.390625,11.859375 C17.40625,11.859375 16.625,11.65625 16.03125,11.421875 C16.390625,12.40625 16.796875,13.484375 17.109375,14.609375 C17.234375,15.046875 17.328125,15.640625 17.328125,16.078125 C17.328125,16.671875 16.953125,17.0625 16.390625,17.0625 C15.96875,17.0625 15.40625,16.90625 14.953125,16.515625 C14.453125,16.078125 13.921875,15.484375 13.5625,14.9375 Z M2.6875,9.640625 C2.375,9.375 2.046875,8.953125 2.046875,8.375 C2.046875,7.828125 2.265625,7.46875 2.546875,7.28125 C3.09375,6.890625 3.6875,6.84375 4.171875,6.84375 C5.015625,6.84375 5.765625,6.9375 6.3125,7.125 C6.265625,6.765625 6.171875,5.984375 6.09375,5.15625 C6.03125,4.3125 5.953125,3.421875 5.953125,2.859375 C5.953125,1.921875 6.078125,1.296875 6.265625,0.921875 C6.40625,0.640625 6.515625,0.453125 6.65625,0.359375 C6.78125,0.25 6.921875,0.21875 7.125,0.21875 C7.296875,0.21875 7.4375,0.265625 7.578125,0.390625 C7.8125,0.625 7.90625,1 7.96875,1.3125 L8.0625,1.875 C8.171875,2.453125 8.328125,2.984375 8.5625,3.59375 C8.75,4.0625 9.015625,4.640625 9.3125,5.25 C9.59375,5.84375 9.90625,6.484375 10.21875,7.078125 L9.78125,7.375 C8.984375,6.109375 8.28125,4.78125 7.671875,3.5 C7.578125,3.296875 7.484375,3.21875 7.4375,3.234375 C7.359375,3.265625 7.328125,3.40625 7.328125,3.625 C7.328125,4.203125 7.375,4.921875 7.46875,5.671875 C7.546875,6.40625 7.671875,7.15625 7.8125,7.8125 C8.078125,7.90625 8.296875,8.046875 8.46875,8.171875 C8.65625,8.296875 8.828125,8.421875 9,8.515625 C9.296875,8.703125 9.5,8.84375 9.59375,8.984375 C9.671875,9.09375 9.71875,9.1875 9.71875,9.265625 C9.71875,9.46875 9.609375,9.640625 9.390625,9.796875 C9.1875,9.921875 8.890625,10.15625 8.703125,10.296875 C8.421875,10.53125 8.078125,10.484375 7.859375,10.296875 C7.5625,10.0625 7.015625,9.40625 6.625,8.5625 C6.390625,8.421875 6.03125,8.3125 5.65625,8.234375 C5.296875,8.140625 4.90625,8.09375 4.625,8.09375 C4.171875,8.09375 3.859375,8.09375 3.625,8.15625 C3.390625,8.21875 3.25,8.3125 3.125,8.5 C2.875,8.84375 2.921875,9.078125 3.140625,9.53125 Z" transform="translate(0.2734375, 18.09375) scale(1, -1)"/>
</svg>