<svg height="19.828125" viewBox="0 0 24 19.828125" width="24" xmlns="http://www.w3.org/2000/svg">
<path d="M6.359375,18.21875 C6.40625,17.28125 6.671875,16.609375 6.96875,16.15625 C7.140625,15.875 7.375,15.78125 7.609375,15.78125 C7.875,15.78125 8.15625,15.8125 8.515625,15.9375 C9.171875,16.15625 9.96875,16.4375 10.765625,16.671875 C11.5625,16.90625 12.34375,17.15625 12.9375,17.3125 C12.625,16.375 12.25,15.28125 11.796875,14.15625 C11.328125,13.03125 10.78125,11.84375 10.171875,10.765625 C7.84375,10.390625 5.96875,9.6875 4.5625,8.609375 C3.09375,7.484375 2.328125,6.265625 2.359375,4.90625 C2.375,4.34375 2.5625,3.859375 2.859375,3.53125 C3.171875,3.203125 3.59375,3 4.109375,3 C4.71875,3 5.59375,3.171875 6.578125,3.875 C7.109375,4.25 7.671875,4.765625 8.171875,5.296875 C8.671875,5.828125 9.125,6.359375 9.40625,6.734375 C9.734375,7.15625 10.09375,7.71875 10.4375,8.296875 C10.765625,8.859375 11.046875,9.4375 11.234375,9.828125 C11.5625,9.875 11.90625,9.921875 12.265625,9.953125 C13,10.015625 13.671875,10.046875 14.28125,10.046875 C14.578125,10.046875 14.84375,10.046875 15.046875,10.03125 C16.28125,9.96875 17.46875,9.640625 18.140625,9.140625 C18.75,8.671875 19.03125,8.046875 19.03125,6.921875 C19.03125,5.734375 18.78125,4.65625 17.9375,3.484375 C17.359375,2.6875 16.484375,1.90625 15.453125,1.21875 C14.40625,0.53125 13.171875,-0.078125 11.859375,-0.53125 L12.265625,-1.21875 C13.828125,-0.765625 15.09375,-0.234375 16.140625,0.375 C17.1875,0.96875 18.03125,1.625 18.78125,2.328125 C20,3.5 20.734375,4.921875 20.734375,6.890625 C20.734375,7.671875 20.515625,8.34375 20.15625,8.890625 C19.796875,9.421875 19.296875,9.828125 18.71875,10.15625 C17.8125,10.625 16.65625,10.90625 15.234375,11 C14.953125,11 14.65625,11.015625 14.34375,11.015625 C14.03125,11.015625 13.71875,11 13.40625,11 C12.78125,10.953125 12.171875,10.90625 11.6875,10.859375 C11.859375,11.234375 12.046875,11.625 12.25,12.03125 L13.4375,14.453125 C13.640625,14.84375 13.8125,15.203125 14,15.546875 C14.234375,16.03125 14.484375,16.3125 14.703125,16.53125 C15.03125,16.828125 15.09375,17.203125 14.90625,17.453125 C14.609375,17.828125 14.21875,18.171875 13.921875,18.34375 C13.53125,18.5625 13.296875,18.609375 12.9375,18.453125 C12.78125,18.40625 12.625,18.328125 12.4375,18.265625 L11.8125,18.03125 C11.375,17.84375 10.6875,17.703125 9.984375,17.609375 C9.28125,17.5 8.5625,17.421875 8.046875,17.421875 C7.375,17.421875 7.109375,17.78125 6.921875,18.484375 Z M9.6875,9.625 C9.59375,9.40625 9.40625,9.0625 9.203125,8.734375 C9,8.390625 8.765625,8.046875 8.609375,7.8125 C8.234375,7.234375 7.78125,6.65625 7.34375,6.15625 C6.921875,5.640625 6.484375,5.203125 6.140625,4.921875 C5.546875,4.421875 4.828125,4.140625 4.390625,4.203125 C4.0625,4.25 3.890625,4.46875 3.828125,4.78125 C3.75,5.09375 3.78125,5.5 3.921875,5.890625 C4.203125,6.828125 4.828125,7.4375 5.640625,8 C6.125,8.328125 6.78125,8.703125 7.484375,8.984375 C8.1875,9.28125 8.953125,9.53125 9.6875,9.625 Z" transform="translate(0.46875, 18.609375) scale(1, -1)"/>
</svg>