<svg height="20.03125" viewBox="0 0 24 20.03125" width="24" xmlns="http://www.w3.org/2000/svg">
<path d="M12.453125,18.921875 C13.34375,18.171875 13.46875,17.234375 13.171875,15.890625 C12.984375,15 12.765625,14.328125 12.34375,13.484375 C12.125,13.0625 11.828125,12.703125 11.546875,12.390625 C11.1875,11.984375 11.140625,11.65625 11.140625,11.203125 C11.140625,10.9375 11.15625,10.59375 11.359375,10.28125 C11.4375,10.15625 11.5625,10.015625 11.84375,10.015625 C12.078125,10.015625 12.28125,10.15625 12.40625,10.421875 L12.578125,10.796875 C12.640625,10.9375 12.6875,11.078125 12.78125,11.203125 C13.65625,12.8125 14.609375,13.875 15.5,14.546875 C16.390625,15.203125 17.1875,15.453125 17.734375,15.453125 C18.859375,15.453125 19.375,14.65625 19.375,13.15625 C19.375,12.265625 19.109375,11.46875 18.640625,10.8125 C18.171875,10.15625 17.484375,9.640625 16.625,9.359375 C16.671875,9.6875 16.703125,10.015625 16.703125,10.296875 C16.703125,11.015625 16.34375,11.515625 15.921875,11.515625 C15.59375,11.515625 15.34375,11.40625 14.953125,11.15625 C14.5625,10.921875 14.09375,10.5625 13.8125,10.21875 C13.625,10 13.5,9.828125 13.4375,9.6875 C13.359375,9.546875 13.328125,9.421875 13.328125,9.265625 C13.328125,9.03125 13.5,8.828125 13.859375,8.6875 C14.234375,8.546875 14.71875,8.46875 15.359375,8.453125 C15.265625,7.78125 15.09375,7.046875 14.90625,6.390625 C14.765625,5.90625 14.8125,5.5 15.265625,5.09375 C15.546875,4.8125 15.828125,4.640625 16.0625,4.515625 C16.3125,4.359375 16.34375,4.1875 16.125,3.984375 C15.71875,3.578125 15.4375,3.125 15.140625,2.609375 C14.875,2.15625 14.796875,1.8125 14.796875,1.375 C14.796875,1.109375 14.9375,0.78125 15.21875,0.46875 C15.484375,0.15625 15.890625,-0.140625 16.4375,-0.34375 C17.1875,-0.640625 17.9375,-0.78125 18.671875,-0.78125 C18.890625,-0.78125 19.078125,-0.75 19.234375,-0.6875 C19.515625,-0.59375 19.765625,-0.359375 19.765625,-0.078125 C19.765625,0.203125 19.5,0.4375 19.3125,0.5 C19.109375,0.546875 18.796875,0.609375 18.578125,0.640625 L18.234375,0.671875 C17.875,0.71875 17.453125,0.78125 17.0625,0.875 C16.671875,0.96875 16.34375,1.078125 16.15625,1.21875 C15.734375,1.515625 15.671875,1.875 15.96875,2.3125 C16.0625,2.46875 16.1875,2.609375 16.3125,2.75 C16.578125,3.03125 16.84375,3.28125 17.109375,3.53125 C17.234375,3.640625 17.375,3.765625 17.46875,3.875 C17.765625,4.15625 17.84375,4.296875 17.84375,4.5625 C17.84375,4.71875 17.796875,4.859375 17.703125,5 C17.515625,5.265625 17.140625,5.375 16.828125,5.5 C16.671875,5.5625 16.53125,5.625 16.421875,5.703125 C16.34375,5.765625 16.265625,5.8125 16.203125,5.875 C16.109375,5.921875 16.0625,5.984375 16.015625,6.03125 C15.90625,6.171875 15.859375,6.3125 15.9375,6.5 C16.109375,6.984375 16.3125,7.71875 16.484375,8.515625 C17.578125,8.703125 18.703125,9.25 19.53125,10.0625 C20.375,10.859375 20.9375,11.9375 20.9375,13.203125 C20.9375,14.28125 20.609375,15.078125 20.046875,15.59375 C19.5,16.109375 18.765625,16.34375 17.9375,16.34375 C16.203125,16.34375 14.8125,15.3125 13.28125,13.21875 C13.640625,13.90625 13.953125,14.625 14.1875,15.265625 C14.40625,15.921875 14.546875,16.46875 14.546875,16.828125 C14.546875,17.90625 13.953125,18.78125 13.015625,19.25 Z M6.3125,18.265625 C7.109375,17.765625 7.46875,16.921875 7.0625,15.9375 C6.5,14.578125 5.390625,13.171875 3.578125,11.359375 C3.265625,11.046875 3.078125,10.859375 3.078125,10.5625 C3.078125,10.296875 3.234375,10.15625 3.59375,9.84375 C3.9375,9.546875 4.09375,9.21875 4.21875,8.640625 C4.390625,7.828125 4.203125,6.546875 3.984375,5.09375 C3.796875,3.828125 3.734375,2.9375 3.78125,1.90625 C3.78125,1.203125 3.96875,0.546875 4.25,0.09375 C4.515625,-0.359375 4.90625,-0.640625 5.328125,-0.640625 C5.515625,-0.640625 5.6875,-0.53125 5.796875,-0.375 C5.890625,-0.21875 5.953125,-0.03125 5.953125,0.09375 C5.953125,0.59375 5.984375,1.03125 6.125,1.578125 C6.546875,3.5 7.109375,5.09375 7.90625,6.71875 L7.34375,6.984375 C6.921875,6.1875 6.5625,5.453125 6.203125,4.625 C5.828125,3.8125 5.46875,2.921875 5.046875,1.828125 C5,2.125 4.953125,2.40625 4.953125,2.671875 C4.90625,3.21875 4.953125,3.78125 5.015625,4.34375 C5.09375,4.921875 5.15625,5.5 5.234375,5.984375 L5.34375,6.6875 C5.40625,7.15625 5.453125,7.578125 5.453125,7.953125 C5.453125,8.453125 5.40625,8.984375 5.0625,9.390625 C4.71875,9.796875 4.4375,10.0625 4.125,10.296875 C3.84375,10.53125 3.828125,10.734375 4.0625,10.953125 C5.890625,12.546875 7.34375,13.953125 8,14.8125 C8.5,15.484375 8.703125,16.03125 8.703125,16.4375 C8.703125,16.921875 8.5625,17.34375 8.203125,17.703125 C7.703125,18.21875 7.25,18.53125 6.640625,18.796875 Z M15.140625,10.34375 C15.421875,10.59375 15.53125,10.578125 15.53125,10.078125 C15.53125,9.84375 15.5,9.5 15.453125,9.140625 C15.265625,9.140625 15,9.15625 14.8125,9.1875 C14.546875,9.234375 14.453125,9.421875 14.59375,9.6875 C14.734375,9.96875 14.9375,10.171875 15.140625,10.34375 Z" transform="translate(-0.0078125, 19.25) scale(1, -1)"/>
</svg>