<svg height="19.5625" viewBox="0 0 24 19.5625" width="24" xmlns="http://www.w3.org/2000/svg">
<path d="M6.140625,18.1875 C6.625,17.78125 6.828125,17.28125 6.796875,16.65625 C6.765625,16.0625 6.5,15.390625 6.046875,14.59375 C5.421875,13.46875 4.625,12.40625 3.78125,11.46875 C3.3125,10.96875 3.171875,10.5625 3.171875,10.21875 C3.171875,9.859375 3.390625,9.5625 3.71875,9.296875 C3.84375,9.1875 4.078125,8.96875 4.171875,8.84375 C4.4375,8.5 4.578125,8.234375 4.625,7.828125 C4.734375,6.921875 4.765625,5.59375 4.71875,4.265625 C4.671875,2.9375 4.578125,1.625 4.484375,0.734375 C4.4375,0.3125 4.53125,-0.09375 4.71875,-0.4375 C4.90625,-0.71875 5.109375,-0.921875 5.453125,-0.921875 C5.765625,-0.921875 6.09375,-0.625 6.09375,-0.078125 C6.09375,0.34375 6.28125,0.96875 6.5,1.71875 C6.65625,2.28125 6.90625,3.03125 7.15625,3.78125 C7.421875,4.53125 7.71875,5.28125 8,5.859375 L7.515625,6.3125 C7.28125,5.859375 6.984375,5.265625 6.703125,4.578125 C6.40625,3.875 6.09375,3.109375 5.8125,2.359375 C5.828125,2.734375 5.859375,3.21875 5.890625,3.65625 C5.890625,3.875 5.890625,4.078125 5.90625,4.28125 C5.921875,4.46875 5.921875,4.625 5.9375,4.765625 C5.9375,5.28125 5.90625,6.109375 5.796875,6.875 C5.703125,7.65625 5.53125,8.375 5.328125,8.6875 C5.109375,9.03125 4.78125,9.359375 4.484375,9.578125 C4.109375,9.875 3.984375,10.25 4.328125,10.578125 C4.875,11.140625 5.59375,11.875 6.265625,12.65625 C6.921875,13.4375 7.5625,14.25 7.953125,14.953125 C8.359375,15.703125 8.28125,16.390625 8.046875,17.015625 C7.8125,17.640625 7.34375,18.21875 6.59375,18.640625 Z M11.015625,15.890625 C11.265625,15.5625 11.46875,15.375 11.703125,15.25 C11.9375,15.125 12.21875,15.0625 12.59375,15.046875 C13.078125,15.015625 13.46875,15.046875 13.90625,15.125 C14.328125,15.21875 14.796875,15.359375 15.453125,15.578125 C14.90625,14.609375 14.46875,13.890625 14.046875,13.21875 C13.625,12.546875 13.171875,11.90625 12.578125,11.0625 C12.3125,10.6875 12.125,10.40625 11.90625,10.15625 C11.703125,9.921875 11.453125,9.65625 11.15625,9.359375 C10.734375,8.9375 10.796875,8.625 10.921875,8.375 C10.984375,8.234375 11.109375,8.09375 11.234375,7.96875 C11.34375,7.828125 11.46875,7.71875 11.5625,7.671875 C11.8125,7.546875 12.1875,7.625 12.359375,7.875 C12.484375,8.046875 12.59375,8.1875 12.71875,8.328125 C12.828125,8.46875 12.9375,8.609375 13.0625,8.765625 C13.34375,9.125 13.578125,9.359375 13.828125,9.59375 C14.078125,9.8125 14.359375,9.984375 14.734375,10.21875 C15.390625,10.609375 16.078125,10.90625 16.828125,10.90625 C17.21875,10.90625 17.578125,10.765625 17.859375,10.484375 C18.125,10.203125 18.296875,9.828125 18.296875,9.3125 C18.296875,8.5625 18,7.75 17.265625,6.875 C16.71875,6.21875 16,5.421875 15.25,4.65625 C14.5,3.875 13.703125,3.109375 13.03125,2.5 C12.546875,2.0625 12.1875,1.765625 11.953125,1.578125 C11.609375,1.34375 11.5,1.109375 11.5,0.78125 C11.5,0.546875 11.609375,0.296875 11.84375,0.171875 C12.203125,-0.0625 12.6875,-0.234375 13.578125,-0.359375 C14.28125,-0.453125 15.296875,-0.515625 16.421875,-0.484375 C17.796875,-0.453125 18.78125,-0.28125 19.484375,-0.1875 C20.046875,-0.109375 20.390625,0.078125 20.609375,0.3125 C20.75,0.453125 20.796875,0.640625 20.796875,0.71875 C20.796875,1.03125 20.453125,1.203125 20.265625,1.28125 C20,1.390625 19.734375,1.390625 19.484375,1.328125 L18.9375,1.171875 C18.546875,1.0625 18.0625,0.953125 17.421875,0.90625 C16.765625,0.859375 16.078125,0.828125 15.5625,0.828125 C15.03125,0.828125 14.515625,0.859375 14.078125,0.90625 C13.640625,0.953125 12.765625,1 13.203125,1.515625 C13.578125,1.953125 14.15625,2.4375 15.09375,3.1875 C15.375,3.40625 15.6875,3.6875 16.015625,3.984375 C16.6875,4.578125 17.328125,5.171875 17.765625,5.609375 L18.1875,6.03125 C19.375,7.25 19.875,8.28125 19.875,9.359375 C19.875,9.640625 19.796875,9.96875 19.671875,10.25 C19.53125,10.53125 19.359375,10.765625 19.171875,10.921875 C18.671875,11.359375 18.109375,11.6875 17.109375,11.6875 C16.5625,11.6875 16.15625,11.65625 15.765625,11.5625 C15.375,11.453125 14.984375,11.28125 14.515625,11.046875 C14.203125,10.859375 13.953125,10.71875 13.640625,10.46875 C13.34375,10.21875 12.984375,9.90625 12.53125,9.4375 L12.453125,9.484375 C12.734375,9.875 13.015625,10.296875 13.3125,10.734375 C13.90625,11.609375 14.515625,12.4375 15.03125,13.140625 C15.5625,13.84375 15.921875,14.28125 16.203125,14.609375 C16.484375,14.921875 16.703125,15.140625 16.90625,15.34375 C17.125,15.53125 17.328125,15.71875 17.515625,15.828125 C17.6875,15.953125 18.015625,16.109375 18.015625,16.421875 C18,16.734375 17.8125,16.890625 17.484375,17.140625 C17.140625,17.40625 16.65625,17.71875 16.171875,17.375 C15.625,17 15.125,16.71875 14.375,16.421875 C13.4375,16.0625 12.640625,16.03125 12.09375,16.03125 C11.828125,16.03125 11.5625,16.171875 11.328125,16.375 Z" transform="translate(0.015625, 18.640625) scale(1, -1)"/>
</svg>