<svg height="20.515625" viewBox="0 0 24 20.515625" width="24" xmlns="http://www.w3.org/2000/svg">
<path d="M7.21875,19.078125 C8.078125,17.84375 9.25,16.875 10.609375,16.203125 C11.96875,15.546875 13.515625,15.171875 15.140625,15.125 C15.953125,15.09375 16.34375,15.3125 16.34375,15.734375 C16.34375,16.03125 16.109375,16.25 15.84375,16.4375 C15.546875,16.640625 15.265625,16.65625 14.8125,16.65625 C14.3125,16.65625 13.734375,16.671875 13.078125,16.765625 C12.28125,16.859375 11.296875,17.140625 10.34375,17.609375 C9.40625,18.0625 8.453125,18.6875 7.703125,19.53125 Z M14.328125,11.359375 C11.671875,11.359375 9.34375,10.765625 7.078125,9.4375 C6.09375,8.859375 5.375,8.234375 4.96875,7.765625 C4.5,7.203125 4.5,6.546875 4.828125,6.09375 C4.890625,6.015625 4.953125,5.921875 5.046875,5.796875 L5.328125,5.375 C5.515625,5.0625 5.734375,4.71875 5.90625,4.4375 C6.296875,3.78125 6.84375,3.78125 7.921875,4.390625 C8.328125,4.625 8.796875,5.015625 9.25,5.484375 C9.6875,5.9375 10.09375,6.453125 10.375,6.9375 C10.65625,7.421875 10.890625,8 11.0625,8.5625 C11.234375,9.140625 11.34375,9.734375 11.375,10.25 C12.3125,10.484375 13.21875,10.5625 14.109375,10.5625 C15.0625,10.5625 15.859375,10.296875 16.421875,9.75 C16.96875,9.21875 17.28125,8.390625 17.28125,7.296875 C17.28125,6.734375 17.171875,6.046875 16.9375,5.359375 C16.6875,4.65625 16.3125,3.96875 15.796875,3.34375 C14.765625,2.09375 13.15625,0.84375 10.484375,-0.34375 L10.96875,-0.984375 C12.4375,-0.375 13.578125,0.203125 14.515625,0.8125 C15.453125,1.421875 16.234375,2.0625 16.953125,2.8125 C18.21875,4.140625 18.890625,5.796875 18.890625,7.25 C18.890625,8.59375 18.40625,9.609375 17.59375,10.3125 C16.78125,11 15.640625,11.359375 14.328125,11.359375 Z M10.515625,10.015625 C10.28125,9.078125 9.828125,8.0625 9.34375,7.390625 C8.890625,6.78125 8.390625,6.28125 7.953125,5.9375 C7.53125,5.578125 7.125,5.375 6.890625,5.375 C6.34375,5.375 6.078125,5.765625 6.078125,6.265625 C6.078125,7.078125 6.515625,7.90625 7.71875,8.65625 C8.703125,9.265625 9.578125,9.71875 10.515625,10.015625 Z" transform="translate(0.3046875, 19.53125) scale(1, -1)"/>
</svg>