<svg height="20.859375" viewBox="0 0 24 20.859375" width="24" xmlns="http://www.w3.org/2000/svg">
<path d="M6.6875,18.890625 C6.78125,18.265625 6.875,17.75 7.0625,17.359375 C7.28125,16.859375 7.53125,16.5 7.765625,16.28125 C7.484375,15.984375 6.984375,15.484375 6.484375,15 L6.921875,14.65625 C7.1875,14.890625 7.53125,15.171875 7.859375,15.390625 C8.1875,15.59375 8.515625,15.734375 8.703125,15.71875 C9.03125,15.6875 9.359375,15.71875 9.59375,15.828125 C9.828125,15.921875 9.96875,16.140625 9.921875,16.46875 C9.859375,16.859375 9.6875,17.140625 9.3125,17.234375 C8.65625,17.40625 8.1875,17.640625 7.921875,17.9375 C7.578125,18.296875 7.328125,18.625 7.203125,19.15625 Z M10.515625,9.546875 C11.203125,10.15625 12.21875,10.734375 13.25,11.203125 C14.28125,11.65625 15.3125,11.984375 16.015625,12.125 C16.140625,9.171875 16.234375,6.640625 16.03125,4.203125 C15.9375,3.03125 15.8125,2.046875 15.625,1.15625 C15.4375,0.25 15.1875,-0.59375 14.859375,-1.421875 L15.40625,-1.703125 C16.453125,0.03125 17,2 17.28125,4.390625 C17.5625,6.75 17.453125,9.359375 17.359375,12.3125 C17.640625,12.375 18,12.453125 18.40625,12.5 C18.796875,12.546875 19.21875,12.578125 19.625,12.578125 C20.421875,12.578125 21,12.625 21.53125,12.78125 C21.984375,12.90625 22.296875,13.21875 22.296875,13.609375 C22.296875,14.015625 21.96875,14.421875 21.484375,14.59375 C21.125,14.71875 20.890625,14.859375 20.375,15.140625 C20.09375,15.296875 19.671875,15.703125 19.265625,16.15625 C18.859375,16.625 18.46875,17.125 18.265625,17.453125 C18.03125,17.84375 17.828125,18.171875 17.671875,18.40625 C17.515625,18.625 17.359375,18.734375 17.1875,18.734375 C16.8125,18.734375 16.53125,18.578125 16.328125,18.328125 C16.109375,18.078125 15.96875,17.75 15.96875,17.375 C15.921875,16.734375 15.921875,16.0625 15.921875,15.34375 C15.9375,14.625 15.9375,13.90625 15.9375,13.203125 C14.890625,12.96875 13.734375,12.5 12.703125,11.9375 C11.65625,11.359375 10.734375,10.640625 10.171875,9.890625 Z M17.359375,13.515625 C17.328125,13.921875 17.328125,14.609375 17.328125,15.28125 C17.328125,15.9375 17.34375,16.609375 17.375,16.96875 C17.421875,17.25 17.5,17.375 17.734375,17.046875 C18.296875,16.25 19.15625,15.171875 20.28125,14.234375 C20.53125,14.03125 20.609375,13.890625 20.546875,13.8125 C20.46875,13.71875 20.1875,13.671875 19.671875,13.671875 C19.28125,13.671875 18.875,13.65625 18.46875,13.625 C18.0625,13.578125 17.6875,13.53125 17.359375,13.515625 Z M1.625,11.265625 C1.859375,10.234375 2.3125,9.59375 2.890625,9.546875 C3.296875,9.515625 3.59375,9.671875 4.078125,9.9375 L4.453125,10.109375 C4.765625,10.25 5.09375,10.390625 5.40625,10.53125 C5.5625,10.578125 5.671875,10.640625 5.765625,10.671875 C5.578125,9.96875 5.390625,9.15625 5.234375,8.3125 C5.09375,7.46875 4.953125,6.59375 4.90625,5.84375 C4.71875,3.671875 4.953125,2.0625 5.703125,0.84375 C5.890625,0.578125 6.140625,0.40625 6.453125,0.40625 C6.828125,0.40625 7.015625,0.78125 7.0625,1.28125 C7.0625,1.859375 7.28125,2.6875 7.609375,3.59375 C7.921875,4.515625 8.328125,5.53125 8.796875,6.53125 L8.328125,6.890625 C7.90625,6.125 7.53125,5.46875 7.203125,4.78125 C6.859375,4.109375 6.515625,3.40625 6.140625,2.609375 C5.921875,3.59375 5.796875,4.609375 5.9375,5.734375 C6.03125,6.59375 6.25,7.609375 6.5,8.515625 C6.765625,9.40625 7.0625,10.203125 7.328125,10.625 C7.6875,11.203125 7.578125,11.515625 7.125,11.859375 C6.703125,12.171875 6.4375,12.140625 5.90625,11.8125 C5.78125,11.734375 5.609375,11.65625 5.4375,11.578125 C5.078125,11.421875 4.453125,11.1875 3.84375,11 C3.21875,10.796875 2.546875,10.71875 2.0625,11.609375 Z" transform="translate(0.0390625, 19.15625) scale(1, -1)"/>
</svg>