<svg height="20.171875" viewBox="0 0 24 20.171875" width="24" xmlns="http://www.w3.org/2000/svg">
<path d="M7.25,19.03125 C7.515625,18.9375 7.765625,18.78125 7.953125,18.625 C8.234375,18.359375 8.40625,18.03125 8.40625,17.515625 C8.40625,17.234375 8.375,16.984375 8.234375,16.703125 C8.078125,16.40625 7.8125,16.0625 7.375,15.59375 C7.125,15.328125 6.59375,14.8125 5.984375,14.265625 C5.359375,13.71875 4.640625,13.125 4.03125,12.734375 C3.78125,12.59375 3.640625,12.453125 3.5625,12.34375 C3.5,12.21875 3.453125,12.109375 3.453125,12 C3.453125,11.8125 3.625,11.671875 3.890625,11.5 C4.1875,11.296875 4.46875,11.125 4.71875,10.859375 C4.953125,10.578125 5.140625,10.203125 5.3125,9.546875 C5.515625,8.796875 5.609375,7.296875 5.28125,5.421875 C5.0625,4.25 4.78125,3.359375 4.34375,2.5625 C4.203125,2.296875 4.078125,2.203125 3.984375,2.109375 C3.859375,2.015625 3.796875,1.921875 3.734375,1.703125 C3.640625,1.28125 3.640625,0.796875 3.6875,0.578125 C3.828125,-0.03125 4.0625,-0.15625 4.484375,0.1875 C4.90625,0.53125 5.3125,1.203125 5.59375,1.90625 C5.9375,2.75 6.25,3.78125 6.484375,4.75 C6.703125,5.703125 6.84375,6.609375 6.84375,7.21875 C6.84375,7.765625 6.765625,8.34375 6.640625,8.890625 C6.5,9.421875 6.3125,9.921875 6.09375,10.296875 C5.734375,10.953125 5.25,11.453125 4.65625,11.890625 C4.390625,12.078125 4.375,12.203125 4.65625,12.390625 C4.96875,12.59375 5.515625,12.984375 6.125,13.421875 C6.71875,13.859375 7.390625,14.375 7.984375,14.8125 C8.578125,15.265625 9.078125,15.65625 9.359375,15.890625 C9.96875,16.390625 10.125,16.859375 10.125,17.265625 C10.125,17.71875 9.8125,18.265625 9.21875,18.6875 C9.078125,18.796875 8.8125,18.953125 8.546875,19.109375 C8.265625,19.25 7.953125,19.390625 7.71875,19.484375 Z M16.15625,16.21875 C16.34375,16.078125 16.53125,15.9375 16.671875,15.78125 C17,15.5 17.28125,15.171875 17.515625,14.609375 C17.75,14.046875 17.859375,13.5 17.875,12.828125 C17.890625,12.171875 17.734375,11.34375 17.609375,10.59375 C17.53125,10.203125 17.46875,9.84375 17.40625,9.484375 C17.21875,8.390625 17.09375,7.5 17.09375,6.4375 C17.09375,4.6875 17.65625,2.953125 18.875,1.484375 C19.109375,1.203125 19.53125,0.8125 20.03125,0.40625 C20.515625,0.015625 21.09375,-0.40625 21.640625,-0.6875 L21.96875,-0.125 C21.5,0.21875 20.984375,0.65625 20.53125,1.15625 C20.0625,1.640625 19.625,2.171875 19.296875,2.6875 C18.640625,3.71875 18.375,5.125 18.453125,7.125 C18.46875,7.546875 18.5,7.96875 18.546875,8.390625 C18.640625,9.21875 18.828125,10.109375 18.984375,10.8125 L19.203125,11.90625 C19.34375,12.65625 19.296875,13.203125 19.21875,13.609375 C19.0625,14.453125 18.625,15.140625 17.953125,15.6875 C17.640625,15.96875 17.109375,16.375 16.484375,16.609375 Z M9.9375,12.390625 C10.25,12.09375 10.484375,11.640625 10.609375,11.046875 C10.90625,9.734375 11.015625,8.3125 10.875,6.296875 C10.828125,5.640625 10.71875,4.828125 10.515625,4.03125 C10.375,3.484375 10.5625,3.078125 10.90625,3.078125 C11.21875,3.078125 11.46875,3.3125 11.65625,3.53125 C11.890625,3.78125 12,4.015625 12.09375,4.484375 C12.21875,5.0625 12.296875,5.75 12.34375,6.40625 C12.375,7.0625 12.359375,7.734375 12.3125,8.3125 C12.21875,9.640625 11.984375,10.578125 11.5625,11.328125 C11.203125,12 10.859375,12.390625 10.375,12.71875 Z" transform="translate(-0.7109375, 19.484375) scale(1, -1)"/>
</svg>