<svg height="19.6875" viewBox="0 0 24 19.6875" width="24" xmlns="http://www.w3.org/2000/svg">
<path d="M13.5625,18.53125 C14.09375,18.34375 14.484375,18.140625 14.734375,17.859375 C14.984375,17.5625 15.09375,17.171875 15.09375,16.609375 C15.09375,16.4375 15.09375,16.265625 15.078125,16.0625 C15.078125,15.875 15.078125,15.6875 15.078125,15.484375 C14.609375,15.234375 14.140625,14.9375 13.65625,14.546875 C13.140625,14.125 12.5625,13.59375 12.046875,13.015625 C11.515625,12.421875 11.046875,11.78125 10.703125,11.140625 C10.671875,12.828125 10.34375,13.90625 9.59375,14.609375 L9.078125,14.234375 C9.4375,13.8125 9.640625,13.15625 9.6875,12.59375 C9.734375,12.140625 9.75,11.53125 9.71875,10.921875 C9.6875,10.3125 9.609375,9.734375 9.5,9.34375 C9.3125,8.6875 9.21875,8.15625 9.21875,7.78125 C9.21875,7.078125 9.578125,6.625 9.890625,6.625 C10.140625,6.625 10.34375,6.734375 10.46875,6.96875 C10.59375,7.1875 10.703125,7.578125 10.765625,8.109375 C10.859375,9.046875 11.15625,9.859375 11.5625,10.609375 C11.984375,11.359375 12.53125,12.0625 13.15625,12.796875 C13.671875,13.390625 14.296875,14 15,14.46875 C14.96875,14.078125 14.9375,13.71875 14.90625,13.390625 C14.890625,13.078125 14.859375,12.828125 14.84375,12.640625 C14.75,11.984375 14.625,11.109375 14.546875,10.171875 C14.484375,9.46875 14.640625,9.03125 15.21875,8.6875 C15.78125,8.359375 16.171875,7.96875 16.421875,7.5 C16.65625,7.015625 16.765625,6.421875 16.765625,5.65625 C16.765625,5.203125 16.703125,4.78125 16.609375,4.375 C15.84375,4.65625 15.046875,4.828125 13.96875,4.828125 C12.71875,4.828125 11.75,4.609375 11.09375,4.25 C10.4375,3.875 10.109375,3.359375 10.109375,2.8125 C10.109375,2.359375 10.375,1.90625 10.9375,1.53125 C11.5,1.15625 12.359375,0.921875 13.5625,0.921875 C14.53125,0.921875 15.3125,1.109375 15.921875,1.4375 C16.53125,1.765625 17.015625,2.234375 17.359375,2.765625 C18.578125,2.015625 19.484375,1.203125 20.234375,0.265625 C20.515625,-0.109375 20.71875,-0.34375 20.90625,-0.484375 C21.078125,-0.625 21.234375,-0.671875 21.453125,-0.671875 C21.84375,-0.671875 22.109375,-0.390625 22.109375,0 C22.109375,0.34375 21.984375,0.640625 21.59375,1.125 C21.265625,1.5625 20.65625,2.09375 19.984375,2.5625 C19.296875,3.03125 18.53125,3.484375 17.84375,3.796875 C18.03125,4.390625 18.09375,5 18.09375,5.5625 C18.09375,6.515625 17.84375,7.25 17.4375,7.8125 C17.046875,8.375 16.484375,8.765625 15.921875,9.09375 C15.671875,9.234375 15.53125,9.359375 15.484375,9.5 C15.421875,9.65625 15.4375,9.875 15.484375,10.203125 L15.546875,10.75 C15.578125,10.9375 15.609375,11.140625 15.640625,11.328125 C16.0625,11.140625 16.484375,11.0625 17.046875,11.0625 C18.265625,11.0625 19.15625,11.390625 19.765625,11.90625 C20.359375,12.40625 20.640625,13.09375 20.640625,13.828125 C20.640625,14.5 20.359375,15.078125 19.875,15.5 C19.390625,15.921875 18.6875,16.171875 17.890625,16.171875 C17.40625,16.171875 16.90625,16.140625 16.34375,15.96875 C16.484375,16.578125 16.515625,17.0625 16.46875,17.40625 C16.421875,17.703125 16.296875,17.9375 16.109375,18.125 C15.859375,18.359375 15.484375,18.5625 15.078125,18.703125 C14.65625,18.84375 14.1875,18.953125 13.8125,19.015625 Z M3.640625,18.3125 C4.390625,17.796875 4.828125,17 4.828125,16.15625 C4.828125,15.640625 4.71875,14.828125 4.53125,13.890625 C4.34375,12.9375 4.078125,11.84375 3.796875,10.78125 C3.59375,9.984375 3.40625,8.9375 3.28125,7.90625 C3.15625,6.859375 3.078125,5.796875 3.078125,5 C3.078125,4.515625 3.125,3.828125 3.1875,3.125 C3.265625,2.421875 3.359375,1.671875 3.484375,1.109375 C3.625,0.453125 3.8125,0.0625 4.03125,-0.1875 C4.25,-0.4375 4.484375,-0.53125 4.765625,-0.53125 C4.953125,-0.53125 5.125,-0.453125 5.234375,-0.21875 C5.328125,0 5.421875,0.359375 5.46875,0.96875 C5.5625,1.71875 5.75,2.609375 6.015625,3.5 C6.28125,4.375 6.625,5.25 7.03125,6 L6.53125,6.359375 C6.09375,5.609375 5.765625,4.953125 5.46875,4.28125 C5.15625,3.609375 4.890625,2.9375 4.609375,2.1875 C4.171875,4.4375 4.15625,6.4375 4.4375,8.40625 C4.578125,9.375 4.859375,10.375 5.140625,11.3125 C5.4375,12.25 5.75,13.109375 6.03125,13.859375 C6.265625,14.515625 6.375,15.03125 6.390625,15.46875 C6.40625,15.890625 6.328125,16.234375 6.1875,16.5625 C5.796875,17.5 5,18.21875 4.0625,18.734375 Z M17.609375,15.4375 C18.171875,15.4375 18.546875,15.25 18.78125,14.9375 C19.015625,14.609375 19.109375,14.1875 19.109375,13.703125 C19.109375,13.078125 18.828125,12.59375 18.40625,12.265625 C17.984375,11.921875 17.453125,11.734375 16.921875,11.734375 C16.578125,11.734375 16.3125,11.75 16.140625,11.8125 C15.96875,11.859375 15.828125,11.921875 15.734375,11.984375 C15.828125,12.5 15.890625,13.015625 15.96875,13.53125 C16.03125,14.0625 16.109375,14.578125 16.203125,15.09375 C16.75,15.3125 17.21875,15.4375 17.609375,15.4375 Z M13.921875,3.875 C14.734375,3.875 15.53125,3.640625 16.25,3.359375 C15.734375,2.328125 14.84375,1.671875 13.5625,1.671875 C12.671875,1.671875 12.0625,1.8125 11.6875,2.015625 C11.3125,2.21875 11.15625,2.5 11.15625,2.8125 C11.15625,3.078125 11.390625,3.34375 11.859375,3.546875 C12.328125,3.734375 13.015625,3.875 13.921875,3.875 Z" transform="translate(-0.59375, 19.015625) scale(1, -1)"/>
</svg>