<svg height="20.09375" viewBox="0 0 24 20.09375" width="24" xmlns="http://www.w3.org/2000/svg">
<path d="M9.359375,18.875 C9.46875,18.4375 9.75,18.078125 10.109375,17.8125 C10.484375,17.5625 10.921875,17.390625 11.359375,17.359375 C11.21875,17.25 10.90625,17.046875 10.53125,16.828125 C10.15625,16.609375 9.703125,16.375 9.265625,16.15625 L9.71875,15.734375 C10.0625,15.890625 10.390625,16.046875 10.703125,16.171875 L11.453125,16.484375 C11.671875,16.578125 11.875,16.671875 12.046875,16.71875 L12.578125,16.90625 C12.734375,16.953125 12.890625,17 13.046875,17 C13.203125,17.015625 13.390625,17.046875 13.578125,17.09375 C13.90625,17.140625 14.1875,17.34375 14.1875,17.703125 C14.1875,18 13.921875,18.3125 13.53125,18.453125 C13.015625,18.640625 12.53125,18.5625 11.859375,18.484375 C11.453125,18.4375 11.0625,18.46875 10.828125,18.546875 C10.359375,18.703125 10.09375,18.828125 9.71875,19.171875 Z M13.53125,14.765625 C13.015625,14.5 12.296875,14.234375 11.515625,13.984375 C10.71875,13.734375 9.921875,13.515625 9.265625,13.375 C8.71875,13.25 8.140625,13.28125 7.859375,13.421875 C7.609375,13.546875 7.1875,13.921875 6.96875,14.375 L6.5,14.046875 C6.6875,13.328125 6.875,12.6875 7.328125,12.21875 C7.734375,11.796875 8.265625,11.703125 9.125,12.078125 C9.640625,12.296875 10.34375,12.59375 11.046875,12.84375 C11.75,13.109375 12.453125,13.34375 12.9375,13.46875 C12.53125,13.015625 11.9375,12.359375 11.234375,11.640625 C10.546875,10.90625 9.78125,10.109375 9.078125,9.390625 C8.359375,8.65625 7.671875,8 7.203125,7.53125 C6.828125,7.171875 6.28125,6.65625 5.75,6.171875 C5.203125,5.703125 4.65625,5.25 4.28125,5.015625 C3.96875,4.828125 3.78125,4.640625 3.671875,4.46875 C3.5625,4.28125 3.53125,4.09375 3.53125,3.890625 C3.53125,3.625 3.59375,3.34375 3.734375,3.109375 C3.859375,2.875 4,2.703125 4.171875,2.703125 C4.28125,2.703125 4.421875,2.765625 4.578125,2.875 C4.734375,2.984375 4.9375,3.1875 5.15625,3.484375 C5.234375,3.59375 5.359375,3.71875 5.484375,3.859375 C5.75,4.125 6.046875,4.390625 6.3125,4.625 C6.4375,4.71875 6.53125,4.8125 6.59375,4.875 C6.9375,5.15625 7.359375,5.4375 7.671875,5.5625 C8.09375,5.71875 8.28125,5.546875 8.46875,5.203125 C8.65625,4.859375 8.84375,4.109375 8.984375,3.265625 C9.109375,2.421875 9.203125,1.484375 9.234375,0.828125 C9.25,0.546875 9.265625,0.3125 9.3125,0.109375 C9.359375,-0.109375 9.453125,-0.3125 9.640625,-0.546875 C9.890625,-0.875 10.21875,-0.921875 10.46875,-0.921875 C10.765625,-0.921875 11.0625,-0.6875 11.109375,-0.40625 C11.1875,0 11.3125,0.3125 11.453125,0.484375 C11.96875,1.140625 12.59375,1.90625 13.28125,2.65625 C13.953125,3.390625 14.6875,4.109375 15.390625,4.65625 C15.8125,4.984375 16.125,5.171875 16.375,5.28125 C16.625,5.375 16.8125,5.40625 16.953125,5.40625 C17.453125,5.40625 17.8125,5.046875 18.234375,4.46875 C18.671875,3.890625 18.84375,3.1875 18.84375,2.609375 C18.84375,2.15625 18.6875,2 18.140625,1.8125 C17.78125,1.671875 17.125,1.53125 16.421875,1.390625 L16.703125,0.828125 C17.046875,0.859375 17.421875,0.90625 17.8125,0.953125 C18.203125,0.984375 18.59375,1.046875 18.96875,1.125 C19.953125,1.3125 20.5,1.78125 20.5,2.6875 C20.5,2.9375 20.421875,3.328125 20.25,3.75 C20.09375,4.171875 19.828125,4.625 19.515625,4.953125 C18.8125,5.703125 17.953125,6.171875 17.15625,6.171875 C16.421875,6.171875 15.796875,5.859375 14.859375,5.203125 C14.203125,4.75 13.453125,4.109375 12.71875,3.453125 C11.96875,2.78125 11.234375,2.0625 10.625,1.4375 C10.53125,2.109375 10.421875,2.6875 10.328125,3.171875 C10.25,3.546875 10.140625,4.015625 10.015625,4.4375 C9.90625,4.84375 9.796875,5.203125 9.71875,5.421875 C9.46875,6.171875 8.9375,6.453125 8.421875,6.5 C8.34375,6.515625 8.28125,6.515625 8.203125,6.515625 C8.140625,6.515625 8.046875,6.515625 7.96875,6.5 C7.78125,6.5 7.578125,6.453125 7.25,6.359375 C7.5625,6.6875 7.90625,7.015625 8.3125,7.390625 C9.09375,8.140625 9.953125,8.921875 10.8125,9.703125 C11.65625,10.484375 12.46875,11.203125 13.140625,11.8125 C13.484375,12.109375 13.765625,12.359375 14,12.578125 C14.1875,12.75 14.40625,12.921875 14.59375,13.015625 C14.765625,13.09375 14.953125,13.203125 15.09375,13.34375 C15.21875,13.484375 15.296875,13.671875 15.234375,13.90625 C15.140625,14.234375 14.90625,14.515625 14.5625,14.796875 C14.203125,15.0625 13.921875,14.96875 13.53125,14.765625 Z" transform="translate(-0.015625, 19.171875) scale(1, -1)"/>
</svg>