<svg height="19.859375" viewBox="0 0 24 19.859375" width="24" xmlns="http://www.w3.org/2000/svg">
<path d="M12.578125,16.21875 C13.015625,16.5 13.59375,16.78125 14.171875,16.984375 C14.75,17.171875 15.328125,17.3125 15.796875,17.3125 C16.015625,17.3125 16.1875,17.28125 16.328125,17.234375 C16.46875,17.171875 16.5,17.09375 16.4375,17.015625 C16.171875,16.6875 15.609375,16.1875 14.953125,15.78125 L15.34375,15.40625 C16.0625,15.890625 16.875,16.34375 17.3125,16.5625 L17.75,16.78125 C17.890625,16.859375 18.03125,16.890625 18.171875,16.875 C18.40625,16.84375 18.734375,16.828125 18.890625,17.015625 C19.015625,17.140625 19.0625,17.421875 18.984375,17.640625 C18.90625,17.859375 18.65625,18.09375 18.390625,18.234375 C18.078125,18.40625 17.640625,18.53125 17.046875,18.53125 C16.109375,18.53125 15.25,18.3125 14.46875,17.984375 C13.671875,17.65625 12.9375,17.1875 12.234375,16.65625 Z M6.59375,18.09375 C6.640625,17.546875 6.59375,17.046875 6.453125,16.5 C6.3125,15.953125 6.078125,15.375 5.734375,14.703125 C5.15625,13.578125 4.296875,12.53125 3.453125,11.59375 C3,11.09375 2.859375,10.671875 2.859375,10.34375 C2.859375,9.984375 3.078125,9.6875 3.40625,9.40625 C3.546875,9.3125 3.78125,9.078125 3.875,8.953125 C4.140625,8.609375 4.28125,8.359375 4.328125,7.953125 C4.4375,7.046875 4.4375,5.890625 4.40625,4.75 C4.359375,3.59375 4.265625,2.46875 4.171875,1.578125 C4.125,1.125 4.203125,0.78125 4.421875,0.40625 C4.59375,0.140625 4.8125,-0.078125 5.140625,-0.078125 C5.46875,-0.078125 5.84375,0.171875 5.796875,0.78125 C5.75,1.1875 5.890625,1.8125 6.1875,2.5625 C6.40625,3.15625 6.6875,3.796875 7,4.5 C7.296875,5.1875 7.609375,5.890625 7.90625,6.578125 L7.515625,6.875 L7.0625,6.03125 C6.71875,5.421875 6.359375,4.796875 6.015625,4.140625 L5.5,3.1875 C5.515625,3.578125 5.546875,4.0625 5.5625,4.484375 C5.578125,4.71875 5.578125,4.90625 5.59375,5.109375 C5.609375,5.3125 5.609375,5.46875 5.609375,5.59375 C5.625,6.109375 5.625,6.65625 5.5625,7.140625 C5.515625,7.625 5.375,8.0625 5.140625,8.375 C4.90625,8.703125 4.578125,9.046875 4.296875,9.265625 C4.109375,9.421875 4.015625,9.578125 4.015625,9.734375 C4.015625,9.875 4.0625,10.03125 4.171875,10.171875 C5.640625,12.0625 6.6875,13.671875 7.078125,15 C7.4375,16.21875 7.390625,17.359375 7.03125,18.21875 Z M10.53125,12.890625 C11,12.1875 11.890625,11.90625 12.875,11.953125 C13.859375,12 14.90625,12.390625 15.890625,12.984375 C15.59375,12.671875 15.21875,12.21875 14.84375,11.75 C14.46875,11.28125 14.109375,10.78125 13.828125,10.375 C13.59375,10.046875 13.265625,9.578125 12.984375,9.078125 C12.6875,8.59375 12.421875,8.046875 12.3125,7.609375 C12.078125,6.671875 12.421875,6.234375 13.5625,6.34375 C13.84375,6.375 14.328125,6.484375 14.765625,6.59375 C15.21875,6.71875 15.65625,6.859375 15.890625,6.96875 C15.890625,6.5 15.859375,6.015625 15.8125,5.546875 C15.765625,5.0625 15.703125,4.625 15.640625,4.296875 C15.453125,3.21875 15.171875,2.328125 14.609375,1.578125 C13.859375,0.546875 13.03125,-0.1875 12.09375,-0.890625 L12.5,-1.328125 C13.34375,-0.84375 14.359375,-0.15625 15.171875,0.734375 C15.546875,1.15625 15.875,1.578125 16.15625,2.09375 C16.4375,2.59375 16.671875,3.171875 16.859375,3.875 C16.953125,4.296875 17.078125,4.921875 17.140625,5.578125 C17.21875,6.21875 17.265625,6.890625 17.265625,7.421875 C18.015625,7.609375 18.765625,8.015625 19.25,8.3125 C19.90625,8.71875 20.3125,9.1875 20.3125,9.671875 C20.3125,9.921875 20.15625,10.171875 19.65625,10.34375 C19.328125,10.453125 19.125,10.53125 18.953125,10.625 C18.765625,10.71875 18.625,10.828125 18.4375,11.015625 C18.09375,11.328125 17.859375,11.453125 17.46875,11.453125 C17.1875,11.453125 16.90625,11.34375 16.671875,11.140625 C16.203125,10.734375 16,9.9375 15.96875,9.171875 C15.953125,8.78125 15.921875,8.421875 15.921875,8.140625 C15.828125,8.09375 15.6875,8.046875 15.515625,7.984375 C15.171875,7.875 14.765625,7.765625 14.390625,7.703125 C14,7.625 13.453125,7.59375 13.265625,7.671875 C13.15625,7.703125 13.140625,7.796875 13.171875,7.953125 C13.25,8.265625 13.453125,8.65625 13.71875,9.078125 C14,9.484375 14.3125,9.921875 14.640625,10.328125 C14.9375,10.703125 15.34375,11.203125 15.75,11.640625 C16.15625,12.078125 16.546875,12.453125 16.828125,12.578125 C17.421875,12.84375 17.640625,13.125 17.5,13.5625 C17.4375,13.75 17.265625,13.90625 17.046875,14 C16.8125,14.109375 16.578125,14.1875 16.34375,14.1875 L16.078125,14.1875 C15.96875,14.1875 15.875,14.171875 15.75,14.140625 C15.515625,14.09375 15.25,14 14.9375,13.765625 C14.65625,13.5625 14.265625,13.359375 13.828125,13.203125 C13.390625,13.03125 12.921875,12.921875 12.5,12.921875 C11.5625,12.921875 11.15625,13.03125 10.78125,13.28125 Z M17.28125,8.59375 C17.28125,8.8125 17.296875,9.125 17.3125,9.40625 C17.328125,9.703125 17.359375,10 17.40625,10.21875 C17.515625,10.734375 17.71875,10.890625 18.046875,10.671875 C18.140625,10.625 18.265625,10.53125 18.453125,10.4375 L18.890625,10.15625 C19.15625,9.96875 19.15625,9.828125 18.96875,9.59375 C18.78125,9.40625 18.5,9.1875 18.203125,9.015625 C17.90625,8.84375 17.578125,8.6875 17.28125,8.59375 Z" transform="translate(0.4140625, 18.53125) scale(1, -1)"/>
</svg>