<svg height="19.5625" viewBox="0 0 24 19.5625" width="24" xmlns="http://www.w3.org/2000/svg">
<path d="M6.578125,18.046875 C6.765625,17.671875 6.90625,17.390625 7.0625,17.15625 C7.234375,16.90625 7.40625,16.71875 7.703125,16.484375 C8.296875,16.03125 8.953125,15.828125 9.671875,15.734375 C10.328125,15.65625 11.0625,15.671875 11.765625,15.78125 C11.40625,15.3125 10.84375,14.65625 10.171875,13.875 C9.5,13.09375 8.71875,12.21875 7.90625,11.328125 C7.078125,10.4375 6.21875,9.515625 5.40625,8.703125 C5.140625,8.4375 4.921875,8.265625 4.65625,8.09375 C4.53125,8.015625 4.4375,7.921875 4.375,7.796875 C4.21875,7.53125 4.1875,7.171875 4.203125,6.796875 C4.203125,6.40625 4.390625,5.484375 5.0625,5.90625 C5.296875,6.046875 5.46875,6.203125 5.734375,6.578125 C6.046875,7.015625 6.28125,7.34375 6.53125,7.671875 C6.765625,7.984375 7,8.265625 7.328125,8.640625 C7.71875,9.078125 8,9.375 8.28125,9.609375 C8.546875,9.84375 8.78125,10.015625 9.09375,10.25 C9.6875,10.671875 10.375,10.8125 10.765625,10.78125 C11.328125,10.734375 11.609375,10.609375 11.953125,10.171875 C12.234375,9.8125 12.5,9.203125 12.53125,8.40625 C12.21875,8.3125 11.75,8.125 11.25,7.859375 C10.75,7.609375 10.234375,7.296875 9.78125,6.984375 C8.640625,6.203125 7.796875,5.5 7.03125,4.5625 C6.1875,3.53125 5.703125,2.5 5.609375,1.125 C5.53125,-0.046875 6.140625,-0.6875 7.125,-0.734375 C7.921875,-0.78125 8.703125,-0.71875 9.78125,-0.21875 C10.8125,0.265625 11.6875,1.078125 12.296875,1.921875 C13,2.890625 13.4375,4 13.71875,5.078125 C14,6.15625 14.09375,7.203125 14.09375,8.09375 C15.03125,8.40625 15.90625,8.5 16.703125,8.453125 C17.359375,8.40625 17.71875,8.28125 18.1875,8.046875 C18.9375,7.671875 19.28125,6.9375 19.28125,6.046875 C19.28125,5.5 19.203125,5.078125 19.078125,4.6875 C18.953125,4.296875 18.75,3.9375 18.5,3.53125 C17.9375,2.59375 17.046875,1.734375 16.015625,0.984375 L16.421875,0.578125 C17.453125,1.109375 18.546875,1.984375 19.328125,2.859375 C19.8125,3.390625 20.1875,3.890625 20.4375,4.40625 C20.6875,4.921875 20.828125,5.46875 20.859375,6.078125 C20.890625,6.921875 20.609375,7.6875 20,8.203125 C19.34375,8.765625 18.546875,9.03125 17.375,9.125 C16.765625,9.171875 16.25,9.15625 15.734375,9.109375 C15.203125,9.0625 14.65625,8.953125 14,8.8125 C13.859375,9.515625 13.671875,9.9375 13.421875,10.296875 C13.1875,10.640625 12.828125,10.953125 12.40625,11.1875 C11.984375,11.421875 11.5,11.5625 11.046875,11.5625 C10.390625,11.5625 9.625,11.453125 8.5,10.765625 C9.359375,11.6875 10.203125,12.59375 11.09375,13.515625 C11.96875,14.421875 12.78125,15.28125 13.53125,16.078125 C13.765625,16.140625 14,16.21875 14.234375,16.3125 C14.703125,16.484375 15.140625,16.671875 15.53125,16.953125 C15.921875,17.234375 16.234375,17.59375 15.796875,17.953125 C15.59375,18.09375 15.359375,18.3125 15.1875,18.484375 C15.078125,18.59375 14.984375,18.6875 14.90625,18.71875 C14.828125,18.75 14.765625,18.78125 14.734375,18.78125 C14.515625,18.78125 14.328125,18.734375 14.0625,18.40625 C13.8125,18.125 13.359375,17.703125 12.9375,17.421875 C12.09375,17.109375 11.109375,16.953125 9.9375,16.953125 C8.5625,16.953125 7.65625,17.46875 6.9375,18.453125 Z M12.53125,7.65625 C12.5,6.4375 12.3125,5.265625 11.953125,4.078125 C11.796875,3.5625 11.5625,3.0625 11.3125,2.609375 C11.0625,2.171875 10.796875,1.765625 10.5625,1.484375 C9.796875,0.59375 8.953125,0.125 8.015625,0.125 C7.296875,0.125 7.0625,0.484375 7.109375,1.203125 C7.140625,2.046875 7.421875,2.875 8.015625,3.921875 C8.25,4.328125 8.515625,4.703125 8.875,5.09375 C9.21875,5.46875 9.65625,5.875 10.21875,6.34375 C11.015625,7 11.90625,7.375 12.53125,7.65625 Z" transform="translate(-0.5390625, 18.78125) scale(1, -1)"/>
</svg>