<svg height="20.953125" viewBox="0 0 24 20.953125" width="24" xmlns="http://www.w3.org/2000/svg">
<path d="M11.375,18.5 C12.046875,18.359375 12.46875,18.203125 12.75,18 C13.015625,17.796875 13.109375,17.546875 13.15625,17.203125 C13.15625,16.953125 13.1875,16.6875 13.203125,16.375 C13.234375,15.734375 13.25,15.0625 13.25,14.421875 C13.25,14.09375 13.234375,13.796875 13.21875,13.53125 C12.671875,13.25 11.890625,12.75 11.09375,12.203125 C10.296875,11.640625 9.5,11.015625 8.984375,10.484375 C8.46875,9.984375 8.265625,9.609375 8.296875,9.3125 C8.328125,9.03125 8.59375,8.828125 9.046875,8.6875 C9.25,8.625 9.453125,8.53125 9.703125,8.421875 C10.171875,8.1875 10.71875,7.890625 11.25,7.578125 L12.03125,7.109375 C12.390625,6.875 12.734375,6.546875 12.9375,6.1875 C13.125,5.84375 13.359375,5.6875 13.65625,5.6875 C13.84375,5.6875 14.09375,5.84375 14.296875,6.125 C14.484375,6.421875 14.625,6.859375 14.59375,7.421875 C14.5625,7.8125 14.5625,8.25 14.546875,8.71875 C14.515625,9.65625 14.5,10.671875 14.5,11.671875 L14.5,13.109375 C14.84375,13.4375 15.359375,13.734375 15.828125,13.96875 C16.3125,14.1875 16.78125,14.328125 17.0625,14.328125 C17.734375,14.328125 18.21875,14.125 18.546875,13.703125 C18.78125,13.421875 18.921875,13.09375 19.015625,12.625 C19.109375,12.15625 19.15625,11.5625 19.15625,10.71875 C19.15625,9.734375 19.0625,8.703125 18.765625,7.65625 C18.46875,6.59375 17.984375,5.515625 17.1875,4.390625 C16.09375,2.859375 14.78125,1.640625 13.5,0.703125 C12.21875,-0.234375 10.953125,-0.90625 9.921875,-1.328125 L10.28125,-1.875 C11.59375,-1.390625 12.96875,-0.75 14.34375,0.15625 C15.71875,1.0625 17.078125,2.234375 18.34375,3.828125 C19.1875,4.859375 19.765625,6.03125 20.140625,7.21875 C20.515625,8.40625 20.6875,9.625 20.6875,10.78125 C20.6875,11.59375 20.53125,12.3125 20.328125,12.875 C20.109375,13.421875 19.828125,13.828125 19.625,14.0625 C19.203125,14.546875 18.734375,14.8125 18.296875,14.953125 C17.84375,15.09375 17.40625,15.125 17.0625,15.125 C16.703125,15.125 16.25,15.015625 15.78125,14.84375 C15.3125,14.65625 14.84375,14.4375 14.515625,14.203125 C14.515625,14.453125 14.484375,14.859375 14.5,15.328125 C14.5,15.796875 14.53125,16.34375 14.59375,16.90625 C14.71875,17.96875 14.46875,18.453125 13.625,18.734375 C13.203125,18.890625 12.53125,19.03125 11.546875,19.078125 Z M3.84375,17.15625 C4.46875,16.78125 4.671875,16.15625 4.671875,15.125 C4.671875,14.65625 4.59375,14.015625 4.46875,13.359375 C4.328125,12.703125 4.171875,12.03125 4.03125,11.5625 C3.4375,9.546875 3.171875,7.390625 3.171875,5.640625 C3.171875,3.890625 3.5,2.625 3.984375,1.828125 C4.34375,1.234375 4.671875,0.96875 5.046875,0.96875 C5.5,0.96875 5.8125,1.46875 5.734375,2.453125 C5.6875,3.125 5.75,4.078125 5.9375,5.15625 C6.125,6.234375 6.375,7.4375 6.671875,8.59375 L6.234375,8.765625 C5.984375,8.125 5.765625,7.546875 5.59375,7.015625 C5.25,5.984375 5.015625,5.109375 4.84375,4.375 C4.765625,4.015625 4.671875,3.65625 4.578125,3.34375 C4.3125,4.09375 4.125,4.8125 4.125,5.9375 C4.125,7.671875 4.421875,9.40625 4.875,10.828125 L5.140625,11.640625 C5.21875,11.890625 5.28125,12.125 5.375,12.375 C5.515625,12.84375 5.6875,13.328125 5.90625,13.921875 C6.28125,14.953125 6.25,15.875 5.9375,16.296875 C5.703125,16.59375 5.5,16.828125 5.234375,17.03125 C4.953125,17.234375 4.65625,17.390625 4.25,17.5625 Z M13.28125,7.65625 C12.703125,7.859375 12.03125,8.109375 11.421875,8.359375 C10.8125,8.609375 10.28125,8.84375 9.96875,9 C9.546875,9.203125 9.625,9.34375 10.015625,9.796875 C10.390625,10.234375 10.90625,10.71875 11.484375,11.15625 C12.046875,11.609375 12.671875,12.03125 13.21875,12.390625 Z" transform="translate(0.0703125, 19.078125) scale(1, -1)"/>
</svg>