<svg height="19.9375" viewBox="0 0 24 19.9375" width="24" xmlns="http://www.w3.org/2000/svg">
<path d="M9.625,18.78125 C10.25,18.625 10.640625,18.453125 10.875,18.1875 C11.109375,17.9375 11.1875,17.5625 11.1875,17.046875 C11.1875,16.84375 11.1875,16.625 11.171875,16.40625 C11.15625,16.1875 11.15625,15.96875 11.15625,15.78125 C10.3125,15.640625 9.546875,15.59375 8.953125,15.59375 C7.78125,15.59375 7.0625,15.984375 6.359375,16.703125 L5.9375,16.203125 C6.21875,15.765625 6.625,15.34375 7.1875,15.03125 C7.734375,14.734375 8.40625,14.515625 9.234375,14.515625 C9.828125,14.515625 10.46875,14.53125 11.140625,14.609375 C11.09375,13.953125 11.09375,13.34375 11.09375,12.9375 C11.09375,12.484375 11.09375,12.125 11.1875,11.828125 C11.28125,11.53125 11.46875,11.328125 11.84375,11.1875 C12.15625,11.046875 12.59375,10.96875 13.03125,10.96875 C13.25,10.96875 13.375,10.859375 13.015625,10.71875 C11.890625,10.34375 10.421875,9.8125 9,9.21875 C8.90625,9.546875 8.640625,9.734375 8.1875,9.828125 C7.65625,9.921875 7.0625,9.984375 6.3125,9.9375 L6.046875,9.34375 C6.375,9.3125 6.640625,9.265625 6.84375,9.171875 C7.25,9.015625 7.4375,8.765625 7.46875,8.453125 C7.5,8.125 7.390625,7.734375 7.265625,7.4375 C7.203125,7.28125 7.140625,7.109375 7.078125,6.9375 C6.1875,6.640625 5.3125,6.296875 4.46875,5.9375 C3.71875,5.609375 3.5,5.828125 3.578125,6.234375 C3.640625,6.546875 3.734375,6.875 3.921875,7.15625 L3.390625,7.421875 C2.984375,6.96875 2.75,6.53125 2.609375,6.109375 C2.484375,5.6875 2.46875,5.28125 2.46875,4.90625 C2.515625,4.328125 2.640625,4.0625 3.046875,4.0625 C3.359375,4.0625 3.625,4.21875 4.0625,4.515625 C4.578125,4.875 5.140625,5.140625 5.734375,5.421875 L6.171875,5.640625 C6.3125,5.703125 6.46875,5.78125 6.625,5.84375 C6.40625,5.34375 6.171875,4.859375 5.90625,4.375 C5.390625,3.390625 4.96875,2.609375 3.6875,1.34375 C3.328125,0.984375 3.171875,0.640625 3.140625,0.3125 C3.125,0.21875 3.140625,0.125 3.171875,0.03125 C3.21875,-0.171875 3.296875,-0.359375 3.421875,-0.453125 C3.546875,-0.5625 3.734375,-0.609375 3.96875,-0.46875 C4.203125,-0.328125 4.453125,-0.078125 4.6875,0.234375 C4.90625,0.546875 5.109375,0.875 5.328125,1.25 C5.421875,1.4375 5.53125,1.625 5.640625,1.8125 C6.140625,1.34375 6.71875,0.65625 7.109375,0.09375 C7.4375,-0.390625 7.703125,-0.546875 8.15625,-0.546875 C8.5625,-0.546875 9.34375,-0.265625 10.0625,0.296875 C10.71875,0.8125 11.296875,1.515625 11.71875,2.359375 C12.125,3.1875 12.359375,4.15625 12.359375,5.203125 C12.359375,5.65625 12.296875,6.0625 12.140625,6.453125 C11.84375,7.203125 11.28125,7.625 10.15625,7.625 C9.71875,7.625 9.125,7.53125 8.453125,7.34375 C8.671875,7.8125 8.859375,8.1875 9,8.59375 C10.703125,9.296875 12.5,9.84375 14.734375,10.375 C15.765625,10.609375 16.0625,10.875 15.796875,11.421875 C15.625,11.796875 15.296875,12.0625 14.765625,12.03125 C14.109375,11.984375 13.328125,12.125 12.71875,12.3125 C12.4375,12.40625 12.375,12.625 12.40625,13.171875 C12.421875,13.421875 12.4375,13.671875 12.453125,13.953125 L12.484375,14.765625 C13.375,14.875 14.25,15 15.03125,15.140625 C15.828125,15.265625 16.484375,15.40625 17,15.53125 C17.703125,15.703125 18.140625,15.859375 18.359375,15.984375 C18.84375,16.25 18.84375,16.65625 18.484375,16.953125 C18.140625,17.21875 17.625,17.28125 17.265625,17.15625 L17,17.078125 C16.875,17.046875 16.765625,17 16.625,16.953125 C16.375,16.859375 16.078125,16.765625 15.796875,16.671875 C14.8125,16.34375 13.703125,16.140625 12.578125,15.96875 C12.609375,16.203125 12.640625,16.484375 12.6875,16.765625 C12.78125,17.171875 12.859375,17.59375 12.828125,17.953125 C12.78125,18.359375 12.484375,18.671875 11.765625,18.921875 C11.203125,19.109375 10.609375,19.28125 9.984375,19.328125 Z M13.859375,6.84375 C13.890625,5.8125 14.0625,4.984375 14.46875,4.328125 C14.859375,3.71875 15.359375,3.5 15.625,3.5 C15.9375,3.5 16.203125,3.875 16.34375,4.125 L16.625,4.578125 C17.046875,5.28125 17.5,5.71875 17.921875,5.984375 C18.34375,6.234375 18.734375,6.3125 19.0625,6.3125 C19.859375,6.3125 20.28125,5.8125 20.28125,4.78125 C20.28125,4 19.765625,3.171875 18.703125,2.390625 C17.625,1.59375 16.015625,0.875 13.828125,0.265625 L14.234375,-0.40625 C16.671875,0.203125 18.59375,0.9375 19.875,1.8125 C21.171875,2.703125 21.84375,3.6875 21.84375,4.859375 C21.84375,5.6875 21.59375,6.25 21.125,6.609375 C20.671875,6.96875 20.03125,7.125 19.25,7.125 C18.125,7.125 16.96875,6.5 15.9375,5.5625 C15.65625,5.3125 15.40625,5.328125 15.171875,5.609375 C14.84375,6.03125 14.65625,6.40625 14.421875,7.125 Z M9.984375,6.921875 C10.703125,6.921875 11.015625,6.46875 11.015625,5.265625 C11.015625,4.40625 10.796875,3.5625 10.390625,2.828125 C10,2.078125 9.40625,1.46875 8.6875,1.0625 C8.359375,0.875 8.046875,0.890625 7.703125,1.078125 C7.296875,1.3125 6.609375,1.8125 5.953125,2.328125 C6.796875,3.84375 7.484375,5.28125 8,6.40625 C8.84375,6.6875 9.53125,6.921875 9.984375,6.921875 Z" transform="translate(-0.15625, 19.328125) scale(1, -1)"/>
</svg>