<svg height="19.90625" viewBox="0 0 24 19.90625" width="24" xmlns="http://www.w3.org/2000/svg">
<path d="M10.109375,11.5 C11.171875,12.0625 12.078125,12.4375 13,12.6875 C13.90625,12.953125 14.796875,13.09375 15.875,13.203125 C15.640625,12.859375 15.265625,12.3125 14.890625,11.796875 C14.515625,11.28125 14.125,10.796875 13.921875,10.609375 C13.703125,10.40625 13.625,10.328125 13.390625,10.203125 C13.21875,10.109375 12.984375,9.9375 12.9375,9.71875 C12.90625,9.5625 12.953125,9.34375 13.078125,9.078125 C13.171875,8.890625 13.359375,8.84375 13.671875,8.8125 C14.140625,8.765625 14.984375,8.90625 15.78125,9.09375 C16.109375,9.171875 16.1875,9.03125 16.015625,8.6875 C15.921875,8.515625 15.828125,8.34375 15.734375,8.140625 C15.546875,7.75 15.3125,7.234375 15.046875,6.578125 C14.765625,5.921875 14.25,4.609375 13.90625,3.59375 C13.546875,2.5625 13.328125,1.78125 13.515625,1.34375 C13.59375,1.171875 13.765625,1.046875 13.859375,0.96875 C14.046875,0.828125 14.28125,0.78125 14.765625,0.78125 C15.296875,0.78125 15.9375,0.71875 16.484375,0.671875 C16.953125,0.625 17.265625,0.578125 17.84375,0.4375 C18.203125,0.34375 18.640625,0.171875 19.03125,0 C19.421875,-0.171875 19.75,-0.265625 19.96875,-0.234375 C20.25,-0.203125 20.546875,-0.09375 20.546875,0.265625 C20.546875,0.59375 20.40625,0.875 19.90625,1.15625 C19.765625,1.203125 19.53125,1.296875 19.296875,1.390625 C19.046875,1.46875 18.78125,1.53125 18.59375,1.5625 C18.375,1.59375 18.125,1.625 17.859375,1.65625 C17.296875,1.6875 16.921875,1.71875 16.578125,1.71875 C16.21875,1.734375 15.84375,1.765625 15.5,1.765625 C15.3125,1.765625 15.15625,1.765625 15,1.78125 C14.421875,1.796875 14.375,1.90625 14.40625,2.3125 C14.4375,2.640625 14.578125,3.109375 14.78125,3.640625 C14.984375,4.15625 15.25,4.75 15.53125,5.3125 C16.125,6.484375 16.609375,7.28125 17,7.859375 C17.140625,8.078125 17.265625,8.25 17.359375,8.40625 C17.453125,8.546875 17.5625,8.6875 17.65625,8.84375 C17.890625,9.125 17.921875,9.375 17.765625,9.59375 C17.59375,9.828125 17.375,9.953125 17.140625,10.109375 C16.9375,10.234375 16.640625,10.25 16.25,10.171875 C16,10.125 15.640625,10.0625 15.296875,10.03125 C14.9375,10 14.609375,9.96875 14.40625,10.015625 C14.609375,10.25 14.84375,10.5 15.09375,10.796875 L15.859375,11.6875 C16.359375,12.28125 16.84375,12.859375 17.15625,13.28125 C17.6875,13.296875 18.265625,13.25 18.78125,13.203125 C19.296875,13.15625 19.765625,13.0625 20.140625,12.984375 C20.703125,12.859375 20.890625,12.828125 21.171875,12.828125 C21.4375,12.828125 21.609375,12.859375 21.734375,13.078125 C21.875,13.3125 21.84375,13.546875 21.671875,13.78125 C21.53125,13.96875 21.21875,14.1875 20.984375,14.28125 C20.640625,14.421875 20.140625,14.515625 19.828125,14.515625 C19.21875,14.515625 18.5625,14.5 17.859375,14.40625 C18,14.625 18.234375,15.046875 18.46875,15.484375 C18.703125,15.921875 18.921875,16.390625 19.0625,16.671875 C19.234375,17.0625 19.375,17.59375 19.375,17.890625 C19.375,18.203125 19.203125,18.5 18.9375,18.734375 C18.71875,18.9375 18.40625,19.078125 18.046875,19.078125 C17.640625,19.078125 17.140625,19.015625 16.703125,18.71875 C16.5625,18.625 16.28125,18.40625 16.0625,18.09375 L16.328125,17.65625 C16.640625,18 16.90625,18.171875 17.234375,18.171875 C17.46875,18.171875 17.65625,18.078125 17.65625,17.703125 C17.65625,17.15625 17.5625,16.59375 17.265625,15.84375 C17.03125,15.234375 16.671875,14.59375 16.390625,14.203125 C15.828125,14.125 15.390625,14.0625 14.90625,13.96875 C14.421875,13.875 13.890625,13.75 13.171875,13.5625 C13.359375,13.6875 13.484375,13.796875 13.578125,13.9375 C13.671875,14.078125 13.71875,14.25 13.8125,14.515625 C13.984375,15.09375 14.109375,15.4375 14.375,15.84375 C14.609375,16.21875 14.8125,16.4375 15,16.625 L14.6875,17.046875 C14.515625,16.859375 14.296875,16.640625 14.078125,16.390625 L13.71875,15.984375 C13.609375,15.859375 13.5,15.734375 13.390625,15.59375 C13.109375,15.234375 13.03125,15.234375 12.890625,15.5 C12.71875,15.828125 12.625,16.21875 12.625,16.78125 C12.625,17.328125 12.71875,17.984375 12.96875,18.578125 L12.546875,18.78125 C12.140625,18.21875 11.796875,17.5 11.65625,17.015625 C11.53125,16.515625 11.453125,15.96875 11.546875,15.34375 C11.640625,14.75 11.9375,14.328125 12.21875,14 C12.5,13.65625 12.640625,13.59375 12.84375,13.515625 C12.078125,13.296875 10.875,12.828125 9.6875,12.03125 Z M4.125,18.296875 C4.765625,17.640625 4.921875,17.015625 4.875,16.21875 C4.859375,15.984375 4.828125,15.734375 4.765625,15.390625 C4.71875,15.03125 4.625,14.578125 4.4375,13.96875 C4.015625,12.375 3.703125,10.953125 3.515625,9.640625 C3.3125,8.3125 3.203125,7.0625 3.140625,5.8125 C3.0625,4.34375 3.171875,3.09375 3.40625,1.828125 C3.609375,0.796875 3.8125,0.09375 3.984375,-0.3125 C4.125,-0.640625 4.4375,-0.765625 4.578125,-0.796875 C5.015625,-0.828125 5.34375,-0.5 5.375,0.171875 C5.421875,1.0625 5.5625,2.09375 5.875,3.3125 C6.171875,4.53125 6.625,5.9375 7.28125,7.609375 L6.78125,8.140625 C6.3125,7.15625 5.84375,6.03125 5.4375,4.984375 C5.015625,3.921875 4.671875,2.953125 4.4375,2.3125 C4.109375,3.796875 4.15625,5.359375 4.390625,7.375 C4.6875,9.953125 5.1875,12.34375 6.03125,14.59375 C6.21875,15.125 6.359375,15.53125 6.40625,15.875 C6.4375,16.234375 6.375,16.53125 6.234375,16.859375 C6.015625,17.328125 5.421875,18.078125 4.53125,18.6875 Z" transform="translate(-0.46875, 19.078125) scale(1, -1)"/>
</svg>