<svg height="24" viewBox="0 0 24 24" width="24" xmlns="http://www.w3.org/2000/svg">
<path d="M4.015625,13.578125 C4.375,13.0625 4.859375,12.453125 5.609375,12.078125 C5.90625,11.9375 6.34375,11.890625 6.578125,11.890625 C7.015625,11.890625 7.609375,12.171875 7.90625,12.640625 C8.1875,13.125 8.453125,13.578125 8.859375,14.015625 C9.9375,15.1875 11.28125,15.796875 12.640625,15.796875 C13.34375,15.796875 14.203125,15.640625 14.90625,15.171875 C15.609375,14.6875 16.203125,14.078125 16.625,13.28125 C17.03125,12.46875 17.265625,11.46875 17.265625,10.203125 C17.265625,8.9375 17.09375,7.65625 16.671875,6.484375 C16.125,4.921875 15.234375,3.53125 13.671875,2.40625 C13.484375,2.90625 13.03125,3.5 12.53125,3.875 C11.984375,4.28125 11.234375,4.53125 10.515625,4.484375 C10.03125,4.484375 9.640625,4.4375 9.28125,4.3125 C8.921875,4.203125 8.59375,4 8.265625,3.71875 C7.78125,3.3125 7.609375,2.796875 7.609375,2.453125 C7.609375,1.78125 8.0625,1.296875 8.765625,0.96875 C9.3125,0.6875 10.109375,0.59375 11.09375,0.59375 C12.265625,0.59375 13.390625,0.9375 14.203125,1.46875 C14.90625,1.921875 15.5,2.375 16.015625,2.890625 C16.53125,3.40625 17,3.96875 17.421875,4.65625 C17.984375,5.5 18.3125,6.234375 18.53125,7.125 C18.796875,8.203125 18.875,9.09375 18.921875,10.21875 C18.921875,10.921875 18.78125,11.765625 18.5,12.578125 C18.21875,13.375 17.78125,14.15625 17.234375,14.734375 C16.53125,15.453125 15.78125,15.9375 15,16.25 C14.203125,16.578125 13.40625,16.703125 12.625,16.703125 C12.125,16.703125 11.515625,16.625 10.875,16.453125 C10.25,16.296875 9.59375,16.015625 9.046875,15.6875 C8.234375,15.1875 7.328125,14.46875 6.578125,13.859375 C6.3125,13.625 6.125,13.53125 5.9375,13.5 C5.75,13.453125 5.578125,13.484375 5.375,13.53125 C5.09375,13.625 4.734375,13.8125 4.375,14.09375 Z M12.828125,2.015625 C12.390625,1.75 11.703125,1.578125 11.140625,1.578125 C10.703125,1.578125 10.203125,1.59375 9.875,1.71875 C9.4375,1.875 9.09375,2.109375 9.09375,2.375 C9.09375,2.65625 9.265625,2.9375 9.59375,3.125 C9.9375,3.296875 10.4375,3.359375 10.78125,3.359375 C11.265625,3.359375 11.890625,3.125 12.265625,2.734375 C12.375,2.625 12.46875,2.515625 12.546875,2.390625 C12.640625,2.28125 12.71875,2.140625 12.828125,2.015625 Z" transform="translate(0.53125, 16.703125) scale(1, -1)"/>
</svg>