<svg height="19.5625" viewBox="0 0 24 19.5625" width="24" xmlns="http://www.w3.org/2000/svg">
<path d="M16.5625,18.875 C16.234375,18.765625 15.859375,18.5 15.5,18.1875 C15.125,17.875 14.78125,17.5 14.5,17.15625 C14.1875,16.78125 13.953125,16.296875 13.796875,15.78125 C13.625,15.265625 13.53125,14.703125 13.53125,14.234375 C13.53125,13.859375 13.5625,13.484375 13.625,13.09375 C13.71875,12.328125 13.875,11.5625 14.0625,10.765625 C14.234375,9.96875 14.34375,9.40625 14.4375,8.65625 C14.515625,7.90625 14.59375,7 14.59375,6.078125 C14.59375,5.609375 14.5625,5.171875 14.515625,4.78125 C14.296875,4.921875 14.09375,5.046875 13.953125,5.1875 C13.390625,5.640625 12.890625,6.296875 12.6875,7.0625 C12.609375,7.34375 12.546875,7.703125 12.5,8.09375 C12.453125,8.5 12.40625,8.9375 12.359375,9.34375 L12.265625,10.671875 C12.21875,11.109375 12.171875,11.515625 12.125,11.859375 C11.984375,12.65625 11.703125,13.578125 11.140625,14.234375 C10.65625,14.75 10.015625,15.046875 9.125,15.046875 C8.59375,15.046875 7.875,14.875 7.171875,14.453125 C6.796875,14.21875 6.375,13.90625 6,13.53125 C5.609375,13.15625 5.265625,12.734375 5,12.265625 C4.4375,11.34375 4.109375,10.515625 3.921875,9.734375 C3.71875,8.96875 3.65625,8.25 3.671875,7.609375 C3.703125,6.140625 3.890625,4.859375 4.328125,3.53125 C4.640625,2.59375 5.1875,1.484375 6.09375,0.640625 C7.171875,-0.34375 8.265625,-0.6875 9.671875,-0.6875 C10.703125,-0.6875 11.90625,-0.4375 12.984375,0.265625 C13.921875,0.890625 14.703125,1.78125 15.234375,3 C15.734375,2.78125 16.25,2.609375 16.578125,2.46875 C16.921875,2.34375 17.3125,2.25 17.6875,2.1875 C18.0625,2.109375 18.40625,2.046875 18.6875,2.046875 C19.484375,2 19.953125,2.109375 20.09375,2.609375 C20.125,2.71875 20.109375,2.84375 20.0625,2.953125 C19.96875,3.1875 19.625,3.4375 19.359375,3.546875 C19.078125,3.640625 18.640625,3.6875 17.890625,3.75 C17.515625,3.78125 17.140625,3.84375 16.765625,3.9375 C16.375,4.03125 16.015625,4.15625 15.625,4.328125 C15.703125,4.765625 15.734375,5.328125 15.734375,5.90625 C15.734375,6.578125 15.71875,7.25 15.65625,8 C15.59375,8.75 15.484375,9.5625 15.296875,10.578125 C15.15625,11.28125 15.046875,11.875 14.984375,12.453125 C14.90625,13.015625 14.875,13.578125 14.890625,14.265625 C14.890625,14.9375 14.96875,15.421875 15.109375,15.859375 C15.25,16.296875 15.453125,16.671875 15.734375,17.140625 C16.015625,17.546875 16.515625,18.03125 16.953125,18.390625 Z M9.03125,14.140625 C9.53125,14.140625 9.984375,14.015625 10.296875,13.515625 C10.640625,12.96875 10.953125,11.984375 11.09375,10.34375 C11.140625,9.546875 11.234375,8.796875 11.34375,8.15625 C11.453125,7.515625 11.5625,6.984375 11.703125,6.625 C12.171875,5.453125 12.671875,4.78125 13.15625,4.34375 C13.421875,4.109375 13.8125,3.828125 14.1875,3.59375 C14,3.140625 13.765625,2.71875 13.484375,2.34375 C13.203125,1.96875 12.890625,1.65625 12.59375,1.421875 C12,0.96875 11.515625,0.6875 11.046875,0.515625 C10.578125,0.34375 10.125,0.296875 9.6875,0.296875 C8.796875,0.296875 8,0.53125 7.265625,1.0625 C6.546875,1.578125 5.90625,2.40625 5.40625,3.578125 C5.1875,4.09375 5.015625,4.890625 4.90625,5.65625 C4.8125,6.4375 4.765625,7.203125 4.765625,7.703125 C4.765625,8.71875 4.953125,9.640625 5.203125,10.40625 C5.46875,11.171875 5.796875,11.796875 6.078125,12.171875 C6.640625,12.921875 7.203125,13.4375 7.6875,13.71875 C8.1875,14.015625 8.609375,14.140625 9.03125,14.140625 Z" transform="translate(0.109375, 18.875) scale(1, -1)"/>
</svg>