<svg height="20.8125" viewBox="0 0 24 20.8125" width="24" xmlns="http://www.w3.org/2000/svg">
<path d="M7.484375,18.984375 C7.90625,18.84375 8.328125,18.59375 8.546875,18.3125 C8.6875,18.125 8.796875,17.9375 8.875,17.671875 C8.9375,17.40625 8.96875,17.0625 9,16.578125 C9.03125,16.015625 9.015625,15.046875 8.984375,13.921875 C8.5,13.484375 7.96875,12.96875 7.375,12.296875 C7.078125,12.921875 6.84375,13.484375 6.671875,13.953125 C6.3125,14.9375 5.796875,14.890625 5.140625,14.234375 C4.625,13.71875 4.296875,13.0625 4.109375,12.359375 C3.921875,11.640625 3.84375,10.890625 3.84375,10.203125 C3.84375,9.359375 4.03125,8.75 4.265625,8.375 C4.5,7.984375 4.796875,7.8125 5.015625,7.8125 C5.15625,7.8125 5.328125,7.828125 5.53125,7.984375 C5.71875,8.140625 5.9375,8.421875 6.1875,8.984375 C6.484375,9.59375 6.828125,10.203125 7.25,10.8125 C7.578125,9.921875 7.921875,9.046875 8.0625,8.453125 C8.15625,8.046875 8.234375,7.734375 8.359375,7.515625 C8.46875,7.28125 8.609375,7.140625 8.890625,7.125 C9.21875,7.09375 9.578125,7.375 9.828125,7.828125 C9.875,7.953125 9.921875,8.0625 9.96875,8.171875 C10.046875,8.390625 10.0625,8.65625 10.0625,9 C10.0625,9.34375 10.0625,9.6875 10.015625,10.109375 C10.015625,10.328125 9.984375,10.5625 9.96875,10.8125 C9.9375,11.328125 9.921875,11.9375 9.921875,12.453125 C9.921875,12.78125 9.921875,13.15625 9.96875,13.5625 C10.671875,14.140625 11.234375,14.515625 11.703125,14.703125 C12.15625,14.90625 12.515625,14.984375 12.796875,14.984375 C13.203125,14.984375 13.5625,14.59375 13.90625,14 C14.265625,13.375 14.46875,12.96875 14.859375,12.96875 C15.234375,12.96875 15.546875,13.15625 15.546875,13.609375 C15.546875,13.875 15.671875,14.203125 15.921875,14.59375 C16.15625,14.984375 16.5,15.265625 16.859375,15.453125 C17.234375,15.625 17.609375,15.6875 17.90625,15.6875 C18.578125,15.6875 18.921875,15.40625 18.921875,14.84375 C18.921875,14.140625 18.3125,13.4375 17.046875,12.546875 C16.15625,11.9375 14.921875,11.015625 13.609375,9.890625 C13.28125,9.59375 12.859375,9.1875 12.484375,8.796875 C12.09375,8.390625 11.75,8 11.5625,7.765625 C11.09375,7.109375 10.8125,6.578125 10.8125,6.171875 C10.8125,5.796875 11.015625,5.46875 11.5,5.28125 C11.703125,5.1875 11.984375,5.09375 12.3125,5 C12.625,4.90625 12.96875,4.828125 13.296875,4.78125 C12.828125,4.671875 12.3125,4.53125 11.859375,4.359375 C11.40625,4.203125 11.046875,4.015625 10.859375,3.890625 C10.46875,3.625 10.34375,3.4375 10.34375,3.171875 C10.34375,2.828125 10.484375,2.578125 10.78125,2.421875 C11.3125,2.140625 11.84375,1.90625 12.3125,1.8125 C11.90625,1.71875 11.453125,1.578125 11.078125,1.4375 C10.6875,1.296875 10.390625,1.1875 10.25,1.109375 C9.875,0.875 9.734375,0.78125 9.640625,0.578125 C9.5625,0.40625 9.5625,0.125 9.6875,-0.046875 C9.796875,-0.1875 10.015625,-0.4375 10.328125,-0.578125 C10.8125,-0.796875 11.28125,-0.9375 12.125,-1.078125 C12.53125,-1.15625 13.09375,-1.203125 13.65625,-1.25 C14.21875,-1.28125 14.78125,-1.296875 15.1875,-1.296875 C15.78125,-1.296875 16.421875,-1.203125 16.65625,-1.015625 C17,-0.734375 17.03125,-0.359375 16.765625,-0.09375 C16.53125,0.125 16.171875,0.21875 15.59375,0.140625 C15.5,0.125 15.359375,0.125 15.234375,0.125 C14.96875,0.109375 14.6875,0.09375 14.421875,0.09375 L14.0625,0.09375 C13.671875,0.09375 13.203125,0.125 12.75,0.1875 C12.28125,0.234375 11.84375,0.328125 11.46875,0.4375 C10.921875,0.609375 10.90625,0.78125 11.234375,0.921875 C11.78125,1.109375 12.625,1.25 13.46875,1.375 C13.953125,1.453125 14.234375,1.609375 14.234375,1.921875 C14.234375,2.109375 14.171875,2.296875 13.96875,2.46875 C13.84375,2.5625 13.53125,2.734375 13.25,2.796875 C12.96875,2.84375 12.640625,2.921875 12.328125,3 C12.03125,3.078125 11.75,3.171875 11.609375,3.21875 C11.34375,3.3125 11.40625,3.453125 11.734375,3.578125 C12.0625,3.6875 12.640625,3.828125 13.25,3.96875 C13.84375,4.109375 14.453125,4.203125 14.8125,4.25 C15.3125,4.296875 15.4375,4.578125 15.4375,4.859375 C15.4375,5.03125 15.359375,5.203125 15.1875,5.375 C14.96875,5.609375 14.515625,5.703125 14.109375,5.796875 C13.78125,5.84375 13.421875,5.921875 13.078125,6.015625 C12.734375,6.09375 12.421875,6.203125 12.1875,6.296875 C11.90625,6.421875 11.78125,6.578125 12.03125,7.03125 C12.171875,7.3125 12.625,7.828125 13.15625,8.375 C13.671875,8.90625 14.3125,9.453125 14.84375,9.875 C15.171875,10.109375 15.640625,10.453125 16.125,10.796875 C16.625,11.140625 17.109375,11.484375 17.5625,11.765625 C18.640625,12.4375 19.359375,12.921875 19.796875,13.375 C20.234375,13.8125 20.40625,14.234375 20.40625,14.765625 C20.40625,15.0625 20.234375,15.453125 19.859375,15.78125 C19.484375,16.109375 18.90625,16.34375 18.078125,16.34375 C16.75,16.34375 15.640625,15.734375 14.796875,14.890625 C14.640625,15.125 14.34375,15.34375 14.015625,15.5 C13.6875,15.671875 13.328125,15.78125 13.015625,15.78125 C12.171875,15.78125 11.28125,15.46875 10.0625,14.65625 C10.078125,14.921875 10.109375,15.171875 10.140625,15.4375 C10.1875,15.9375 10.25,16.390625 10.296875,16.78125 C10.3125,16.96875 10.34375,17.140625 10.34375,17.265625 C10.4375,17.984375 10.34375,18.4375 9.828125,18.796875 C9.296875,19.15625 8.515625,19.375 7.8125,19.515625 Z M5.5,13.375 C5.734375,13.71875 5.9375,13.671875 6.171875,13.203125 C6.3125,12.921875 6.578125,12.359375 6.875,11.703125 C6.40625,11.15625 5.890625,10.53125 5.3125,9.78125 C5.1875,9.625 5.09375,9.546875 5.046875,9.546875 C4.984375,9.53125 4.9375,9.578125 4.90625,9.671875 C4.71875,10.125 4.75,10.75 4.875,11.6875 C4.96875,12.421875 5.1875,12.921875 5.5,13.375 Z M8.984375,12.828125 C8.9375,11.46875 8.90625,10.140625 8.859375,9.21875 C8.5,9.875 8.109375,10.640625 7.71875,11.421875 C8.1875,12.03125 8.6875,12.546875 8.984375,12.828125 Z" transform="translate(-0.125, 19.515625) scale(1, -1)"/>
</svg>