<svg height="20.046875" viewBox="0 0 24 20.046875" width="24" xmlns="http://www.w3.org/2000/svg">
<path d="M9,18.84375 C9.171875,18.296875 9.46875,17.890625 9.6875,17.65625 C9.84375,17.515625 10.109375,17.359375 10.390625,17.234375 C10.671875,17.09375 11,16.984375 11.265625,16.921875 C11.0625,16.734375 10.65625,16.421875 10.1875,16.09375 C9.71875,15.75 9.171875,15.390625 8.6875,15.078125 L9.03125,14.6875 C9.28125,14.796875 9.546875,14.9375 9.828125,15.0625 C10.09375,15.1875 10.34375,15.3125 10.609375,15.4375 L11.328125,15.78125 C11.5625,15.890625 11.765625,16 11.953125,16.078125 C12.078125,16.140625 12.21875,16.1875 12.3125,16.21875 C12.546875,16.28125 12.71875,16.328125 12.921875,16.34375 L13.21875,16.375 C13.53125,16.40625 13.71875,16.53125 13.8125,16.78125 C13.890625,17 13.8125,17.234375 13.65625,17.421875 C13.4375,17.703125 13.03125,17.9375 12.578125,17.984375 C11.90625,18.0625 11.046875,18.140625 10.421875,18.359375 C9.984375,18.515625 9.703125,18.765625 9.4375,19.171875 Z M15.890625,17.40625 C16.96875,17 17.328125,16.234375 16.578125,14.859375 C16.125,14.015625 15.453125,13.015625 14.609375,11.84375 C14.09375,12.390625 13.4375,12.734375 12.453125,12.734375 C11.046875,12.734375 9.46875,12.34375 7.625,11.640625 C7.140625,11.453125 6.78125,11.375 6.59375,11.390625 C6.375,11.40625 6.25,11.484375 6.1875,11.609375 C6.0625,11.84375 6.140625,12.359375 6.453125,12.828125 L5.9375,13.125 C5.28125,12.5 5.0625,11.75 5.0625,10.90625 C5.0625,10.484375 5.25,10.0625 5.703125,9.890625 C6.234375,9.6875 6.78125,9.765625 7.625,10.28125 C8.203125,10.625 8.984375,11.03125 9.78125,11.328125 C10.578125,11.640625 11.375,11.859375 12.03125,11.859375 C12.71875,11.859375 13.296875,11.65625 13.8125,10.78125 C12.453125,9.046875 10.765625,7.125 8.890625,5.28125 C7,3.421875 4.921875,1.625 2.765625,0.171875 L3.234375,-0.484375 C5.59375,1.015625 7.6875,2.671875 9.53125,4.34375 C11.359375,6.03125 12.953125,7.734375 14.3125,9.34375 C14.40625,8.765625 14.46875,8.109375 14.46875,7.296875 C14.46875,6.3125 14.390625,5.25 14.25,4.296875 C14.109375,3.328125 13.90625,2.484375 13.671875,1.96875 C13.25,1.03125 12.890625,0.78125 12.234375,1.25 C11.515625,1.75 10.703125,2.265625 9.796875,2.84375 L9.453125,2.234375 C10.390625,1.5625 11.28125,0.703125 11.8125,-0.09375 C12.09375,-0.53125 12.40625,-0.875 12.875,-0.875 C13.578125,-0.875 14.359375,-0.3125 14.859375,0.78125 C15.25,1.625 15.515625,2.71875 15.6875,3.890625 C15.875,5.0625 15.9375,6.328125 15.9375,7.515625 C15.9375,8.9375 15.71875,9.921875 15.390625,10.671875 C16.28125,11.796875 17.015625,12.8125 17.6875,13.765625 C18.390625,14.75 18.75,15.453125 18.546875,16.109375 C18.421875,16.53125 18.1875,16.890625 17.8125,17.1875 C17.4375,17.46875 16.9375,17.703125 16.28125,17.953125 Z" transform="translate(1.2421875, 19.171875) scale(1, -1)"/>
</svg>