<svg height="19.78125" viewBox="0 0 24 19.78125" width="24" xmlns="http://www.w3.org/2000/svg">
<path d="M11.140625,18.84375 C10.53125,18.671875 9.9375,18.3125 9.40625,17.859375 L9.734375,17.421875 C10.296875,17.796875 10.6875,17.890625 10.921875,17.8125 C11.15625,17.75 11.25,17.5 11.203125,17.203125 C10.84375,14.5625 10.546875,12.203125 10.28125,9.796875 C9.515625,9.546875 8.796875,9.3125 8.140625,9.078125 C6.78125,8.609375 5.375,8.328125 4.953125,8.453125 C4.75,8.515625 4.671875,8.640625 4.765625,8.859375 C4.84375,9.078125 5.046875,9.359375 5.234375,9.578125 L4.71875,9.84375 C4.359375,9.53125 4.046875,9.125 3.78125,8.796875 C3.359375,8.28125 3.234375,7.8125 3.265625,7.4375 C3.28125,7.25 3.421875,7.109375 3.609375,7.03125 C3.78125,6.953125 4,6.921875 4.171875,6.921875 C5.15625,6.921875 6.359375,7.328125 7.71875,7.90625 C8.515625,8.234375 9.40625,8.59375 10.203125,8.90625 C10.140625,8.515625 10.109375,8.1875 10.109375,7.953125 C10.109375,7.6875 10.140625,7.484375 10.203125,7.3125 C10.3125,6.984375 10.53125,6.8125 10.875,6.671875 C11.421875,6.4375 11.890625,6.375 12.4375,6.296875 C12.6875,6.265625 12.8125,6.171875 12.828125,6.078125 C12.875,5.84375 12.640625,5.453125 12.34375,4.921875 C12.1875,4.65625 12.03125,4.375 11.890625,4.078125 C11.5625,3.484375 11.28125,2.859375 11.140625,2.40625 C10.953125,1.828125 10.90625,1.421875 10.90625,0.984375 C10.90625,0.390625 11.453125,-0.234375 12.84375,-0.484375 C14.015625,-0.703125 15.296875,-0.75 16.8125,-0.640625 C17.515625,-0.59375 18.03125,-0.5625 18.359375,-0.4375 C18.828125,-0.265625 18.9375,-0.078125 18.9375,0.1875 C18.9375,0.296875 18.859375,0.453125 18.765625,0.59375 C18.65625,0.734375 18.515625,0.875 18.40625,0.921875 C18.125,1.046875 17.84375,1.03125 17.546875,0.984375 C17.421875,0.96875 17.28125,0.9375 17.109375,0.921875 L16.53125,0.84375 C15.171875,0.671875 13.703125,0.78125 12.53125,1.0625 C12.234375,1.109375 12.078125,1.25 12.03125,1.4375 C11.984375,1.625 12.03125,1.84375 12.125,2.109375 C12.265625,2.5 12.5625,3.078125 12.9375,3.6875 C13.3125,4.296875 13.765625,4.921875 14.203125,5.421875 C14.421875,5.671875 14.5625,5.9375 14.609375,6.203125 C14.703125,6.734375 14.5625,7.046875 14.234375,7.265625 C13.890625,7.484375 13.25,7.5625 12.640625,7.65625 C12.328125,7.703125 12.03125,7.765625 11.734375,7.828125 C11.171875,7.953125 11.125,8.328125 11.3125,9.34375 C12.875,9.875 14.203125,10.1875 15.234375,10.375 C16.46875,10.59375 17.640625,10.765625 19.109375,10.765625 C19.5625,10.765625 19.828125,10.84375 19.984375,10.953125 C20.140625,11.078125 20.1875,11.25 20.1875,11.453125 C20.1875,11.640625 20.046875,11.828125 19.84375,11.984375 C19.625,12.125 19.359375,12.21875 19.078125,12.265625 C18.421875,12.375 17.859375,12.578125 17.453125,12.796875 C16.5625,13.265625 15.953125,13.703125 15.21875,14.203125 C16.015625,14.6875 16.515625,15.046875 16.796875,15.34375 C17.078125,15.640625 17.15625,15.875 17.15625,16.125 C17.15625,16.515625 16.96875,16.859375 16.34375,17.09375 C15.6875,17.3125 15.125,17.375 14.421875,17.421875 L14.265625,16.765625 C15.015625,16.8125 15.390625,16.484375 15.390625,16.171875 C15.390625,15.9375 15.359375,15.671875 14.984375,15.34375 C14.75,15.140625 14.328125,14.796875 13.78125,14.421875 C13.25,14.046875 12.59375,13.625 11.953125,13.25 C12.078125,13.953125 12.21875,14.65625 12.34375,15.3125 C12.46875,15.984375 12.59375,16.671875 12.734375,17.359375 C12.875,18.078125 12.796875,18.46875 12.484375,18.734375 C12.234375,18.96875 11.796875,19.03125 11.140625,18.84375 Z M6.359375,16.03125 C5.890625,14.953125 5.59375,14 5.59375,13.0625 C5.59375,12.546875 5.75,12.171875 5.96875,11.90625 C6.171875,11.640625 6.421875,11.5 6.640625,11.5 C6.921875,11.5 7.203125,11.640625 7.375,12.046875 C7.5,12.34375 7.765625,12.640625 8.1875,13.03125 C8.328125,13.171875 8.515625,13.359375 8.75,13.578125 C8.96875,13.8125 9.1875,14.015625 9.40625,14.234375 L9.078125,14.734375 C8.890625,14.5625 8.578125,14.328125 8.25,14.09375 C7.90625,13.859375 7.53125,13.625 7.203125,13.4375 C6.96875,13.296875 6.765625,13.3125 6.71875,13.71875 C6.671875,14.15625 6.734375,14.9375 6.96875,15.78125 Z M14.65625,13.90625 C15.546875,13.109375 16.4375,12.359375 17.5625,11.609375 C15.40625,11.25 13.453125,10.8125 11.453125,10.171875 C11.515625,10.578125 11.578125,10.953125 11.640625,11.328125 L11.8125,12.453125 C12.75,12.890625 13.8125,13.390625 14.65625,13.90625 Z" transform="translate(0.2890625, 19.03125) scale(1, -1)"/>
</svg>