<svg height="20.40625" viewBox="0 0 24 20.40625" width="24" xmlns="http://www.w3.org/2000/svg">
<path d="M10.203125,19.171875 C10.671875,18 11.421875,17.140625 12.6875,16.625 C12.1875,16.453125 11.40625,16.140625 10.5625,15.78125 L10.953125,15.234375 C11.984375,15.640625 12.796875,15.890625 13.78125,15.890625 C14.1875,15.890625 14.46875,15.90625 14.796875,15.9375 C15.0625,15.96875 15.3125,16.203125 15.3125,16.46875 C15.3125,16.71875 15.21875,16.9375 15.046875,17.109375 C14.734375,17.421875 14.375,17.53125 13.828125,17.609375 C12.59375,17.796875 11.515625,18.390625 10.8125,19.5625 Z M8.109375,14.5625 C7.609375,14.375 7.109375,14.109375 6.734375,13.765625 C6.359375,13.4375 6.125,13 6.125,12.484375 C6.125,12.265625 6.171875,12.078125 6.265625,11.90625 C6.46875,11.5625 6.828125,11.328125 7.28125,11.203125 C7.734375,11.0625 8.1875,11.0625 8.5625,11.109375 C8.921875,11.140625 9.296875,11.21875 9.71875,11.328125 C9.921875,11.375 10.15625,11.4375 10.390625,11.5 C9.984375,10.8125 9.859375,10.203125 10.03125,9.640625 C10.265625,8.9375 11.109375,8.5625 12.84375,8.5 L11.703125,7.8125 C10.875,7.328125 10.015625,6.828125 9.1875,6.3125 C8.359375,5.796875 7.640625,5.296875 6.640625,4.5625 C5.625,3.828125 4.640625,3.09375 3.859375,2.5 C3.078125,1.90625 2.65625,1.609375 2.46875,1.328125 C2.296875,1.046875 2.296875,0.640625 2.34375,0.34375 C2.375,0.03125 2.421875,-0.640625 2.9375,-0.6875 C3.15625,-0.734375 3.40625,-0.484375 3.671875,-0.1875 C4.03125,0.21875 4.34375,0.546875 4.71875,0.875 C5.390625,1.46875 6.0625,2 6.6875,2.34375 C7.296875,2.703125 7.859375,2.890625 8.359375,2.859375 C9.53125,2.78125 10.28125,2.15625 10.875,1.125 C11.140625,0.640625 11.375,0.359375 11.546875,0.234375 C11.953125,-0.03125 12.40625,0.09375 12.59375,0.453125 C12.734375,0.734375 12.921875,1.109375 13.28125,1.578125 C13.921875,2.4375 14.484375,3 15.046875,3.328125 C15.59375,3.65625 16.15625,3.78125 16.78125,3.78125 C17.4375,3.78125 18.078125,3.421875 18.703125,2.828125 C19.3125,2.234375 19.90625,1.359375 20.40625,0.359375 C20.609375,-0.0625 20.796875,-0.359375 20.9375,-0.546875 C21.09375,-0.75 21.265625,-0.84375 21.4375,-0.84375 C21.875,-0.84375 22.171875,-0.4375 22.171875,0.09375 C22.171875,0.59375 21.984375,1.015625 21.671875,1.484375 C21.171875,2.234375 20.453125,3.015625 19.609375,3.59375 C18.765625,4.15625 17.796875,4.5625 16.8125,4.5625 C16.015625,4.5625 15.125,4.34375 14.421875,3.96875 C13.671875,3.546875 12.890625,2.96875 12.3125,2.3125 C12.140625,2.109375 11.953125,2.109375 11.765625,2.3125 C11.40625,2.703125 10.859375,3.03125 10.25,3.265625 C9.65625,3.5 9.015625,3.625 8.453125,3.625 C7.40625,3.625 5.96875,3.03125 4.125,1.875 C5.203125,2.765625 6.703125,3.75 8.59375,4.96875 C9.25,5.390625 10.234375,5.921875 11.171875,6.359375 C12.109375,6.8125 13.015625,7.1875 13.53125,7.328125 C14.375,7.546875 14.6875,7.78125 14.6875,8.28125 C14.6875,8.5625 14.5,8.953125 14.203125,9.3125 C13.875,9.734375 13.5625,9.71875 13.15625,9.671875 C12.3125,9.578125 11.765625,9.625 11.28125,9.828125 C10.921875,9.96875 10.875,10.203125 11.015625,10.46875 C11.28125,10.953125 11.6875,11.234375 12.09375,11.515625 C12.359375,11.703125 12.515625,12 12.34375,12.3125 C12.21875,12.546875 11.953125,12.6875 11.734375,12.828125 C11.40625,13.015625 11.0625,13.0625 10.703125,12.828125 C10.40625,12.625 10.03125,12.453125 9.59375,12.359375 C8.9375,12.21875 8.453125,12.21875 7.953125,12.390625 C7.46875,12.5625 7.34375,12.9375 7.484375,13.28125 C7.625,13.609375 7.90625,13.828125 8.40625,14.109375 Z" transform="translate(-0.234375, 19.5625) scale(1, -1)"/>
</svg>