<svg height="21.234375" viewBox="0 0 24 21.234375" width="24" xmlns="http://www.w3.org/2000/svg">
<path d="M7.15625,18.5 C7.28125,17.9375 7.484375,17.359375 7.765625,17 C8.140625,16.46875 8.46875,16.21875 9.046875,16.21875 C9.3125,16.21875 9.578125,16.25 9.828125,16.3125 C10.296875,16.4375 10.984375,16.78125 11.609375,17.109375 C11.90625,17.265625 12.25,17.40625 12.625,17.515625 C12.265625,16.765625 11.625,15.71875 10.921875,14.609375 C10.203125,13.515625 9.421875,12.390625 8.765625,11.546875 C8.703125,11.484375 8.65625,11.421875 8.609375,11.390625 C8.515625,11.296875 8.375,11.25 8.1875,11.21875 C8.09375,11.1875 8,11.171875 7.921875,11.140625 C7.671875,11.046875 7.46875,10.921875 7.328125,10.609375 C7.109375,10.125 6.96875,9.484375 6.890625,9 C6.859375,8.765625 6.953125,8.5625 7.109375,8.46875 C7.25,8.359375 7.453125,8.34375 7.671875,8.515625 C7.78125,8.609375 7.953125,8.75 8.140625,8.9375 C8.3125,9.109375 8.484375,9.296875 8.609375,9.4375 C9.078125,9.9375 9.375,10.375 9.546875,10.609375 C9.875,10.875 10.328125,11.140625 10.828125,11.328125 C11.328125,11.515625 11.890625,11.640625 12.4375,11.640625 C13.421875,11.640625 14.171875,11.265625 14.671875,10.625 C15.171875,9.96875 15.4375,9.03125 15.4375,7.953125 C15.4375,5.875 14.90625,4.03125 13.53125,2.28125 C13.015625,1.625 12.3125,0.9375 11.515625,0.3125 C10.71875,-0.3125 9.875,-0.875 9.09375,-1.296875 L9.5,-1.78125 C11.515625,-0.984375 13.109375,0.21875 14.375,1.53125 C15.21875,2.421875 15.921875,3.453125 16.40625,4.5625 C16.890625,5.65625 17.15625,6.828125 17.15625,7.96875 C17.15625,9.53125 16.65625,10.640625 15.859375,11.375 C15.0625,12.125 14,12.453125 12.875,12.453125 C11.609375,12.453125 10.65625,12.09375 9.9375,11.65625 C10.40625,12.265625 11.140625,13.25 11.84375,14.234375 C12.546875,15.203125 13.25,16.203125 13.671875,16.859375 C13.953125,17.28125 14.5,17.703125 14.859375,17.9375 C15.390625,18.25 15.296875,18.578125 14.984375,18.875 C14.75,19.09375 14.46875,19.25 14.140625,19.375 C13.90625,19.453125 13.640625,19.4375 13.421875,19.125 C13.140625,18.734375 13.015625,18.5625 12.734375,18.40625 C12.40625,18.21875 12.046875,18.125 11.6875,18.03125 C11.234375,17.890625 10.765625,17.796875 10.359375,17.75 C9.953125,17.703125 9.59375,17.65625 9.34375,17.65625 C8.640625,17.65625 8.3125,17.78125 8.09375,18.03125 C7.890625,18.25 7.703125,18.546875 7.609375,18.828125 Z" transform="translate(-0.0078125, 19.453125) scale(1, -1)"/>
</svg>