<svg height="19.578125" viewBox="0 0 24 19.578125" width="24" xmlns="http://www.w3.org/2000/svg">
<path d="M8.890625,16.953125 C8.234375,16.015625 7.578125,14.75 7.0625,13.484375 C6.53125,12.203125 6.125,10.890625 5.953125,9.875 C5.203125,9.453125 4.59375,9.125 4,8.71875 C3.390625,8.3125 2.796875,7.8125 2.109375,7.109375 L2.546875,6.671875 C3.71875,7.765625 4.953125,8.515625 5.796875,8.8125 C5.6875,7.96875 5.59375,7.0625 5.59375,6.5 C5.59375,5.375 6.03125,4.46875 6.453125,3.984375 C6.234375,3.828125 5.953125,3.734375 5.640625,3.6875 C5.328125,3.625 5,3.59375 4.71875,3.59375 C3.875,3.59375 3.125,4.03125 2.8125,4.65625 L2.421875,4.171875 C2.9375,3.3125 3.78125,2.734375 4.71875,2.734375 C5.65625,2.734375 6.46875,2.84375 7.21875,3.21875 C7.578125,2.9375 8.078125,2.75 8.5625,2.640625 C9.03125,2.53125 9.5,2.5 9.875,2.5 C11,2.5 12.078125,2.84375 12.796875,3.21875 C13.046875,3.359375 13.21875,3.46875 13.328125,3.578125 C13.4375,3.671875 13.5,3.78125 13.5625,3.921875 C13.71875,4.25 13.671875,4.484375 13.4375,4.578125 C13.21875,4.671875 13.078125,4.78125 12.9375,4.921875 C12.765625,5.09375 12.59375,5.515625 12.359375,6.125 L11.90625,5.953125 C11.96875,5.734375 12.03125,5.515625 12.078125,5.28125 C12.109375,5.03125 12.15625,4.828125 12.1875,4.671875 C12.265625,4.359375 12.21875,4.21875 12,4.078125 C11.5625,3.796875 10.78125,3.53125 9.84375,3.53125 C9.484375,3.53125 9.125,3.578125 8.796875,3.65625 C8.484375,3.734375 8.234375,3.828125 8.140625,3.96875 C8.921875,4.484375 9.78125,5.375 10.578125,6.5 C11.375,7.625 12.125,8.984375 12.671875,10.4375 C12.890625,10.46875 13.140625,10.484375 13.421875,10.5 C13.96875,10.53125 14.5625,10.546875 15.171875,10.546875 C15.453125,10.546875 15.734375,10.546875 16.015625,10.53125 C15.96875,9.734375 15.859375,8.796875 15.703125,7.875 C15.546875,6.96875 15.34375,6.078125 15.140625,5.328125 C14.65625,3.59375 13.828125,2.203125 12.890625,1.296875 C12.078125,0.5 11.234375,0.046875 10.703125,0.046875 C10.15625,0.046875 9.828125,0.140625 9.3125,0.484375 C8.953125,0.71875 8.625,1.109375 8.359375,1.515625 L7.921875,1.15625 C8.09375,0.671875 8.421875,0.203125 8.796875,-0.1875 C9.3125,-0.734375 10.03125,-0.984375 10.65625,-0.984375 C11.5,-0.984375 12.53125,-0.578125 13.609375,0.359375 C14.140625,0.828125 14.625,1.328125 15.09375,2.03125 C15.5625,2.734375 16,3.640625 16.421875,4.90625 C16.609375,5.46875 16.828125,6.3125 17.015625,7.296875 C17.1875,8.265625 17.34375,9.359375 17.421875,10.484375 C17.765625,10.484375 18.15625,10.4375 18.53125,10.40625 C18.890625,10.375 19.234375,10.328125 19.46875,10.28125 C19.703125,10.234375 19.984375,10.15625 20.265625,10.0625 C20.546875,9.96875 20.796875,9.875 20.984375,9.796875 C21.5,9.53125 21.921875,9.640625 22.015625,10.015625 C22.109375,10.390625 21.96875,10.703125 21.578125,10.953125 C21.234375,11.171875 20.6875,11.328125 20.234375,11.40625 C19.859375,11.46875 19.421875,11.53125 18.953125,11.578125 C18.46875,11.625 17.96875,11.65625 17.5,11.65625 C17.53125,12.046875 17.53125,12.640625 17.53125,13.265625 C17.53125,13.875 17.515625,14.5 17.46875,14.9375 C17.421875,15.484375 17.328125,16.03125 17.1875,16.5 C17.046875,16.96875 16.875,17.34375 16.703125,17.5625 C16.078125,18.359375 15.359375,18.59375 14.609375,18.59375 C13.859375,18.59375 13.046875,18.359375 12.34375,17.953125 C11.3125,17.359375 10.5625,16.6875 9.9375,15.890625 L10.375,15.546875 C10.71875,15.890625 11.15625,16.28125 11.609375,16.609375 C12.078125,16.921875 12.53125,17.1875 12.9375,17.328125 C13.53125,17.5625 13.921875,17.59375 14.453125,17.59375 C15.1875,17.59375 15.65625,17.0625 15.84375,16.46875 C16,15.96875 16.046875,15.484375 16.125,14.734375 C16.171875,14.265625 16.171875,13.703125 16.15625,13.15625 C16.15625,12.59375 16.109375,12.078125 16.078125,11.65625 C15.890625,11.671875 15.671875,11.671875 15.40625,11.671875 C15.125,11.671875 14.859375,11.671875 14.5625,11.65625 C14,11.640625 13.421875,11.59375 13.015625,11.546875 C13.1875,11.984375 13.328125,12.625 13.375,13.15625 C13.421875,13.71875 13.375,14.15625 12.9375,14.359375 C12.578125,14.53125 11.984375,14.625 11.46875,14.59375 L11.265625,14.140625 C11.96875,13.984375 12.046875,13.625 11.953125,13.0625 C11.84375,12.40625 11.71875,11.765625 11.546875,11.359375 C10.796875,11.234375 9.859375,11 9.03125,10.765625 C8.1875,10.53125 7.46875,10.296875 7.15625,10.15625 C7.328125,11.1875 7.625,12.375 8,13.53125 C8.390625,14.671875 8.859375,15.78125 9.359375,16.671875 Z M7.21875,4.5625 C7.046875,4.71875 6.921875,4.984375 6.84375,5.34375 C6.78125,5.703125 6.734375,6.25 6.734375,6.96875 C6.734375,7.671875 6.84375,8.46875 7.03125,9.265625 C7.484375,9.421875 8.234375,9.671875 9,9.875 C9.78125,10.09375 10.578125,10.265625 11.1875,10.296875 C10.859375,9.359375 10.34375,8.234375 9.671875,7.171875 C8.984375,6.125 8.140625,5.140625 7.21875,4.5625 Z" transform="translate(-0.109375, 18.59375) scale(1, -1)"/>
</svg>