<svg height="19.328125" viewBox="0 0 24 19.328125" width="24" xmlns="http://www.w3.org/2000/svg">
<path d="M8.953125,18.390625 C8.109375,17.65625 7.4375,16.515625 6.59375,14.8125 C5.234375,14.90625 4.21875,15.234375 3.296875,16.078125 L2.84375,15.578125 C3.6875,14.515625 4.671875,13.875 6.078125,13.671875 C5.65625,12.78125 5.375,12.03125 5.046875,11.109375 C4.859375,10.609375 4.8125,10.25 4.8125,9.890625 C4.8125,9.3125 5.203125,8.890625 5.546875,8.890625 C5.71875,8.890625 5.875,9.0625 6.046875,9.234375 C6.359375,9.546875 6.796875,9.84375 7.171875,9.84375 C7.296875,9.84375 7.421875,9.78125 7.53125,9.671875 C7.625,9.546875 7.671875,9.3125 7.671875,8.984375 C7.671875,8.1875 7.546875,7.4375 7.328125,6.640625 C7.09375,5.796875 6.828125,5.046875 6.296875,4.109375 C6.125,3.8125 5.96875,3.53125 5.828125,3.28125 C5.6875,3.03125 5.515625,2.796875 5.3125,2.5625 C5.0625,2.296875 4.71875,1.875 4.484375,1.578125 C4.15625,1.125 4.03125,0.734375 4.03125,0.3125 C4.03125,-0.171875 4.21875,-0.453125 4.578125,-0.453125 C4.953125,-0.453125 5.34375,-0.171875 5.65625,0.234375 C5.984375,0.640625 6.28125,1.125 6.484375,1.625 C6.59375,1.90625 6.6875,2.140625 6.78125,2.34375 C6.96875,2.765625 7.125,3.125 7.296875,3.453125 L7.5625,3.9375 C8.0625,4.921875 8.796875,5.78125 9.59375,6.625 C10.53125,7.609375 11.609375,8.65625 12.640625,9.640625 C13.671875,10.609375 14.71875,11.484375 15.609375,12.125 C16.484375,12.78125 17.234375,13.171875 17.703125,13.171875 C18.09375,13.171875 18.421875,13.046875 18.65625,12.671875 C18.875,12.296875 19.015625,11.671875 19.015625,10.703125 C19.015625,10.0625 18.84375,9.453125 18.609375,8.96875 C18.359375,8.484375 18.03125,8.140625 17.6875,8.0625 C17.359375,8 17,8.03125 16.609375,8.1875 L15.828125,8.46875 C15.578125,8.5625 15.3125,8.65625 15.09375,8.65625 C14.71875,8.65625 14.234375,8.421875 13.96875,7.53125 C13.765625,6.921875 13.578125,5.859375 13.578125,4.578125 C13.578125,3.609375 13.6875,2.890625 13.890625,2.34375 C14.078125,1.78125 14.359375,1.390625 14.734375,1.109375 C15.125,0.78125 15.6875,0.609375 16.25,0.515625 C16.8125,0.40625 17.375,0.390625 17.84375,0.390625 C18.3125,0.390625 18.9375,0.421875 19.515625,0.5 C20.09375,0.59375 20.65625,0.6875 21.078125,0.875 C21.59375,1.09375 21.6875,1.359375 21.6875,1.671875 C21.6875,1.96875 21.484375,2.15625 21.140625,2.203125 C20.765625,2.25 20.453125,2.21875 20.046875,2.09375 C19.859375,2.03125 19.53125,1.9375 19.140625,1.859375 C18.75,1.765625 18.28125,1.703125 17.765625,1.703125 C16.890625,1.703125 16.34375,1.8125 15.734375,2.046875 C15.046875,2.328125 14.90625,3.078125 14.90625,4.625 C14.90625,5.609375 14.984375,6.359375 15.1875,7.171875 C15.28125,7.578125 15.484375,7.71875 15.890625,7.625 C16.21875,7.546875 16.515625,7.484375 16.828125,7.296875 C17.1875,7.109375 17.5625,7.0625 17.9375,7.0625 C18.453125,7.0625 19.0625,7.3125 19.546875,7.890625 C20.015625,8.46875 20.375,9.359375 20.40625,10.65625 C20.453125,12.90625 19.46875,13.96875 17.8125,13.96875 C17.203125,13.96875 16.328125,13.53125 15.296875,12.828125 C14.25,12.125 13.0625,11.140625 11.875,10.0625 C10.671875,8.984375 9.46875,7.8125 8.40625,6.6875 C8.65625,7.34375 8.96875,8.25 8.9375,9.34375 C8.921875,9.84375 8.75,10.21875 8.515625,10.46875 C8.265625,10.703125 7.921875,10.828125 7.578125,10.828125 C7.078125,10.828125 6.671875,10.71875 6.125,10.390625 C6.265625,10.921875 6.40625,11.40625 6.59375,11.921875 C6.78125,12.4375 7,12.96875 7.28125,13.609375 C8.890625,13.65625 10.4375,13.953125 11.703125,14.703125 C12.078125,14.9375 12.359375,15.171875 12.4375,15.46875 C12.515625,15.765625 12.40625,16.109375 12.03125,16.515625 C11.828125,16.734375 11.5625,17.046875 11.34375,17.375 C11.125,17.703125 10.9375,18.015625 10.859375,18.21875 C10.671875,18.640625 10.390625,18.859375 10.0625,18.875 C9.71875,18.875 9.328125,18.71875 8.953125,18.390625 Z M9.546875,17.609375 C9.9375,18.046875 10.15625,18.078125 10.375,17.609375 C10.453125,17.4375 10.578125,17.203125 10.71875,16.96875 C10.84375,16.71875 10.984375,16.484375 11.09375,16.296875 C11.234375,16.0625 11.21875,15.890625 10.828125,15.625 C10.5,15.390625 10.03125,15.203125 9.5,15.0625 C8.953125,14.921875 8.359375,14.828125 7.828125,14.8125 C8.046875,15.3125 8.359375,15.875 8.6875,16.390625 C9,16.90625 9.3125,17.34375 9.546875,17.609375 Z" transform="translate(-0.265625, 18.875) scale(1, -1)"/>
</svg>