<svg height="19.28125" viewBox="0 0 24 19.28125" width="24" xmlns="http://www.w3.org/2000/svg">
<path d="M8.015625,18.4375 C7.75,17.859375 7.578125,17.1875 7.484375,16.65625 C7.21875,16.515625 6.84375,16.390625 6.4375,16.34375 C6.015625,16.28125 5.5625,16.25 5.1875,16.28125 C4.15625,16.359375 3.390625,16.5625 2.953125,17.046875 L2.609375,16.625 C2.984375,15.6875 3.8125,15.3125 5.1875,15.234375 C6.125,15.1875 6.875,15.328125 7.390625,15.40625 L7.390625,14.203125 C7.03125,14.03125 6.5625,13.78125 6.140625,13.515625 C5.703125,13.234375 5.28125,12.921875 5.015625,12.625 C4.65625,12.21875 4.609375,11.75 5,11.328125 C5.28125,11.015625 5.90625,10.578125 6.625,10.21875 C6.546875,10.125 6.453125,10.03125 6.40625,9.9375 C6.265625,9.75 6.140625,9.5625 6.0625,9.34375 C5.96875,9.125 5.9375,8.890625 6,8.65625 C6.0625,8.421875 6.28125,8.234375 6.5,8.015625 L6.78125,7.671875 C6.96875,7.453125 7.140625,7.25 7.21875,7.109375 C6.375,6.3125 5.515625,5.390625 4.796875,4.5 C4.078125,3.59375 3.5,2.75 3.21875,2.09375 C3.078125,1.8125 3.015625,1.484375 3.03125,1.1875 C3.03125,0.875 3.125,0.578125 3.34375,0.34375 C3.640625,0.03125 4.046875,-0.171875 4.4375,-0.265625 C4.84375,-0.375 5.234375,-0.40625 5.515625,-0.40625 C5.890625,-0.40625 6.328125,-0.359375 6.78125,-0.21875 C7.25,-0.078125 7.71875,0.1875 8.1875,0.59375 C8.96875,1.296875 9.578125,2.421875 9.578125,3.875 C9.578125,5.1875 9.046875,6.265625 8.453125,7.0625 C9.21875,7.90625 10.21875,9.0625 11.28125,10.28125 C12.328125,11.5 13.4375,12.796875 14.46875,14.015625 C14.90625,14.53125 15.4375,15.109375 15.9375,15.578125 C16.4375,16.03125 16.9375,16.34375 17.3125,16.34375 C17.46875,16.34375 17.609375,16.296875 17.703125,16.203125 C17.90625,16 17.8125,15.59375 17.6875,15.078125 C17.546875,14.578125 17.375,14.046875 17.1875,13.53125 C17,13.015625 16.8125,12.640625 16.625,12.28125 C16.546875,12.109375 16.484375,11.9375 16.421875,11.796875 C16.296875,11.515625 16.25,11.296875 16.25,11.0625 C16.25,10.734375 16.3125,10.5 16.4375,10.28125 C16.578125,10.0625 16.765625,9.875 17.046875,9.625 C17.5,9.21875 17.515625,8.796875 17.1875,8.234375 C17,7.9375 16.75,7.484375 16.453125,6.921875 C16.15625,6.359375 15.828125,5.703125 15.53125,5 C15.09375,3.96875 14.9375,3.28125 14.9375,2.546875 C14.9375,1.75 15.5,1.15625 16.390625,0.75 C17.265625,0.359375 18.453125,0.140625 19.71875,0.140625 C20.28125,0.140625 20.65625,0.203125 20.859375,0.3125 C21.078125,0.40625 21.140625,0.5625 21.140625,0.734375 C21.140625,1.390625 20.625,1.578125 20.25,1.578125 C20.0625,1.578125 19.828125,1.578125 19.53125,1.578125 C18.21875,1.59375 17.296875,1.6875 16.71875,1.890625 C16.15625,2.09375 15.875,2.40625 15.875,2.90625 C15.859375,3.4375 16.109375,4.234375 16.5625,5.109375 C17,5.984375 17.625,6.953125 18.359375,7.8125 C19.03125,8.59375 19.125,9.40625 18.484375,9.96875 C18.265625,10.140625 18.09375,10.296875 17.96875,10.40625 C17.84375,10.53125 17.703125,10.65625 17.546875,10.78125 C17.3125,11 17.1875,11.1875 17.171875,11.390625 C17.15625,11.609375 17.25,11.84375 17.453125,12.234375 C17.65625,12.625 17.9375,13.125 18.21875,13.578125 C18.5,14.015625 18.765625,14.421875 18.921875,14.640625 C19.328125,15.234375 19.421875,15.6875 19.421875,16.109375 C19.421875,16.46875 19.203125,16.8125 18.90625,17.046875 C18.59375,17.28125 18.203125,17.453125 17.84375,17.453125 C17.375,17.453125 16.859375,17.234375 16.203125,16.765625 C15.53125,16.28125 14.75,15.53125 13.8125,14.453125 C12.625,13.09375 11.53125,11.84375 10.546875,10.71875 C9.546875,9.578125 8.65625,8.578125 7.859375,7.71875 L7.359375,8.21875 C7.03125,8.5 6.71875,8.71875 6.703125,9 C6.6875,9.28125 6.921875,9.578125 7.328125,9.890625 C7.609375,9.734375 7.90625,9.71875 8.140625,9.828125 C8.375,9.921875 8.53125,10.125 8.515625,10.4375 C8.484375,10.96875 8.46875,11.546875 8.515625,11.765625 C8.65625,11.921875 8.84375,12.15625 9.03125,12.375 C9.21875,12.59375 9.421875,12.8125 9.546875,12.921875 C10.03125,13.328125 10.03125,13.84375 9.671875,14.09375 C9.359375,14.3125 8.953125,14.375 8.515625,14.421875 C8.5625,14.9375 8.578125,15.375 8.609375,15.6875 C8.8125,15.796875 9.03125,15.921875 9.234375,16.046875 C9.65625,16.3125 10.046875,16.65625 10.046875,17.015625 C10.046875,17.1875 9.953125,17.359375 9.78125,17.5 C9.484375,17.71875 9.171875,18.046875 9,18.359375 C8.796875,18.734375 8.609375,18.875 8.4375,18.84375 C8.265625,18.828125 8.125,18.65625 8.015625,18.4375 Z M7.390625,11.65625 L6.96875,11.046875 C6.71875,11.09375 6.5,11.1875 6.296875,11.3125 C5.890625,11.546875 5.65625,11.84375 6.125,12.265625 C6.25,12.375 6.484375,12.5625 6.734375,12.734375 C6.96875,12.890625 7.25,13.0625 7.4375,13.171875 Z M7.703125,6.265625 C7.890625,5.9375 8.015625,5.53125 8.09375,5.125 C8.1875,4.703125 8.1875,4.28125 8.1875,3.9375 C8.171875,3.46875 8.09375,2.953125 7.96875,2.484375 C7.828125,2 7.640625,1.578125 7.375,1.25 C6.875,0.640625 6.34375,0.359375 5.546875,0.359375 C5.0625,0.359375 4.765625,0.5 4.578125,0.703125 C4.40625,0.921875 4.375,1.1875 4.421875,1.515625 C4.484375,1.96875 4.921875,2.765625 5.53125,3.65625 C6.140625,4.53125 6.9375,5.484375 7.703125,6.265625 Z" transform="translate(0.125, 18.875) scale(1, -1)"/>
</svg>