<svg height="19.9375" viewBox="0 0 24 19.9375" width="24" xmlns="http://www.w3.org/2000/svg">
<path d="M9.875,19.484375 C9.125,17.375 8.75,15.03125 8.5625,12.6875 C7.859375,12.28125 7.109375,11.703125 6.40625,11.046875 C5.703125,10.390625 5.046875,9.65625 4.53125,8.953125 C4.25,10.703125 4.46875,12.5 4.90625,14.0625 L4.34375,14.375 C3.59375,12.921875 3.171875,11.421875 3.234375,9.59375 C3.25,9.125 3.296875,8.734375 3.359375,8.390625 C3.40625,8.046875 3.5,7.75 3.640625,7.421875 C3.875,6.890625 4.109375,6.578125 4.53125,6.578125 C4.953125,6.578125 5.21875,6.921875 5.453125,7.71875 C5.578125,8.140625 5.78125,8.546875 6.046875,8.9375 C6.5625,8.375 6.984375,7.90625 7.328125,7.40625 C7.671875,6.890625 7.953125,6.375 8.1875,5.734375 C8.375,5.203125 8.546875,4.8125 8.953125,4.8125 C9.21875,4.8125 9.421875,5 9.59375,5.375 C9.6875,5.578125 9.75,5.765625 9.765625,6 C9.78125,6.21875 9.78125,6.5 9.734375,6.921875 C9.6875,7.90625 9.640625,8.6875 9.59375,9.5 C9.5625,10.296875 9.546875,11.140625 9.546875,12.3125 C10.671875,13.078125 11.703125,13.5625 12.296875,13.5625 C12.671875,13.5625 13.015625,13.296875 13.296875,12.875 C13.59375,12.453125 13.859375,11.890625 14.046875,11.3125 C14.1875,10.890625 14.46875,10.59375 14.796875,10.546875 C15.125,10.5 15.484375,10.71875 15.796875,11.3125 C16.078125,11.828125 16.34375,12.09375 16.859375,12.5 C17.375,12.921875 17.953125,13.28125 18.546875,13.28125 C19.015625,13.28125 19.265625,12.890625 19.390625,12.40625 C19.53125,11.875 19.359375,11.375 18.875,10.953125 C17.796875,10 16.53125,8.921875 15.203125,7.8125 C13.859375,6.71875 12.453125,5.578125 11.125,4.546875 C9.796875,3.5 8.546875,2.546875 7.515625,1.78125 C7.09375,1.46875 6.734375,1.203125 6.5,0.9375 C6.265625,0.6875 6.1875,0.421875 6.296875,0.1875 C6.453125,-0.15625 6.578125,-0.359375 6.8125,-0.40625 C7.046875,-0.453125 7.375,-0.359375 7.96875,-0.125 C8.484375,0.078125 9.234375,0.28125 10.09375,0.4375 C10.9375,0.578125 11.890625,0.6875 12.78125,0.6875 C13.578125,0.703125 14.625,0.640625 15.609375,0.5 C16.59375,0.359375 17.515625,0.1875 18.171875,0 C18.609375,-0.125 18.9375,-0.171875 19.15625,-0.09375 C19.390625,-0.03125 19.484375,0.125 19.484375,0.34375 C19.484375,0.671875 19.328125,0.90625 19.046875,1.109375 C18.765625,1.296875 18.359375,1.4375 17.90625,1.5625 C17.40625,1.6875 16.6875,1.78125 15.859375,1.84375 C15.03125,1.890625 14.09375,1.921875 13.203125,1.921875 C12.40625,1.921875 11.578125,1.84375 10.765625,1.71875 C9.9375,1.578125 9.125,1.40625 8.421875,1.21875 C9.359375,2.0625 10.609375,3.078125 11.96875,4.15625 C13.328125,5.234375 14.796875,6.359375 16.1875,7.40625 C17.578125,8.4375 18.875,9.390625 19.90625,10.109375 C20.359375,10.4375 20.640625,10.703125 20.8125,10.953125 C20.984375,11.1875 21.046875,11.421875 21.046875,11.640625 C21.046875,12.078125 20.9375,12.484375 20.375,13.078125 C19.71875,13.78125 19.109375,13.96875 18.625,13.96875 C18.125,13.96875 17.453125,13.78125 16.703125,13.46875 C16.03125,13.1875 15.359375,12.78125 14.859375,12.34375 C14.3125,13.46875 13.4375,14.234375 12.359375,14.234375 C11.5625,14.234375 10.65625,13.90625 9.625,13.328125 C9.75,15.421875 9.984375,17.28125 10.515625,19.203125 Z M8.5,11.5 C8.421875,9.84375 8.453125,8.40625 8.5,7.328125 C8.09375,7.765625 7.78125,8.09375 7.46875,8.421875 C7.15625,8.75 6.828125,9.0625 6.40625,9.4375 C6.921875,10.09375 7.609375,10.75 8.5,11.5 Z" transform="translate(-0.109375, 19.484375) scale(1, -1)"/>
</svg>