<svg height="20.34375" viewBox="0 0 24 20.34375" width="24" xmlns="http://www.w3.org/2000/svg">
<path d="M6.984375,18.828125 C7.015625,18.359375 7.0625,17.9375 7.203125,17.5 C7.34375,17.046875 7.46875,16.734375 7.765625,16.390625 C8.1875,15.875 8.796875,15.875 9.5,16.203125 C10.015625,16.421875 10.421875,16.578125 11.015625,16.8125 C11.5,16.984375 12.21875,17.203125 13.34375,17.515625 L12.609375,16.96875 C12.171875,16.625 11.8125,16.328125 11.5,16.046875 C11.171875,15.765625 10.828125,15.421875 10.59375,15.15625 C10.34375,14.890625 10.203125,14.703125 10.125,14.390625 C10.046875,14.0625 10.109375,13.671875 10.4375,13.40625 C10.765625,13.125 11.40625,12.921875 11.890625,12.890625 C12.390625,12.859375 12.9375,12.828125 13.484375,12.828125 C13.75,12.828125 14.046875,12.84375 14.40625,12.890625 C14.140625,12.625 13.796875,12.328125 13.40625,12.03125 C12.609375,11.40625 11.828125,10.890625 10.96875,10.34375 L9.6875,9.5 C8.828125,8.9375 7.953125,8.375 7.15625,7.90625 C6.90625,7.75 6.6875,7.609375 6.5,7.46875 C6.109375,7.1875 6.078125,6.796875 6.171875,6.296875 C6.21875,6.078125 6.453125,5.921875 6.828125,5.84375 C7.625,5.6875 8.484375,5.328125 9.359375,4.90625 C10.21875,4.484375 11.078125,3.96875 11.859375,3.453125 C12.796875,2.84375 13.765625,2.140625 14.609375,1.46875 C15.4375,0.78125 16.140625,0.140625 16.5625,-0.296875 C17.09375,-0.84375 17.453125,-1.25 17.8125,-1.15625 C18.09375,-1.0625 18.296875,-0.78125 18.296875,-0.234375 C18.296875,0.359375 17.984375,0.875 17.6875,1.203125 C17.359375,1.5625 16.921875,1.875 16.21875,2.359375 C15.75,2.6875 15.21875,3.03125 14.59375,3.421875 C13.359375,4.171875 11.515625,5.15625 9.90625,5.8125 C9.09375,6.125 8.34375,6.453125 7.625,6.734375 C7.21875,6.921875 7.15625,7.015625 7.4375,7.203125 C8.34375,7.71875 9.25,8.25 10.15625,8.796875 C11.046875,9.359375 11.9375,9.875 12.828125,10.390625 C13.4375,10.765625 14,11.09375 14.515625,11.4375 C15.03125,11.78125 15.5,12.078125 15.921875,12.3125 C16.34375,12.59375 16.578125,12.890625 16.53125,13.21875 C16.484375,13.515625 16.375,13.671875 16.15625,13.90625 C15.875,14.1875 15.484375,14.21875 14.734375,14.140625 C13.65625,14 12.84375,13.984375 12.09375,14.109375 C11.671875,14.171875 11.4375,14.375 11.40625,14.625 C11.359375,14.859375 11.515625,15.171875 11.84375,15.4375 C12.25,15.765625 12.828125,16.15625 13.484375,16.53125 C14.140625,16.90625 14.875,17.28125 15.578125,17.5625 C16.234375,17.84375 16.25,18.140625 16.03125,18.390625 C15.734375,18.71875 15.546875,18.890625 15.265625,18.984375 C14.9375,19.09375 14.5,19.046875 13.953125,18.84375 C12.484375,18.296875 11.0625,17.9375 9.9375,17.6875 C9.390625,17.5625 9,17.53125 8.703125,17.578125 C8.421875,17.625 8.21875,17.75 8.046875,17.953125 C7.765625,18.265625 7.6875,18.578125 7.5625,18.96875 Z" transform="translate(-0.1875, 19.09375) scale(1, -1)"/>
</svg>