<svg height="24" viewBox="0 0 24 24" width="24" xmlns="http://www.w3.org/2000/svg">
<path d="M1.8125,10.390625 C1.875,9.8125 2,9.28125 2.171875,8.796875 C2.515625,7.84375 3.03125,7.078125 3.59375,7.03125 C4.15625,6.96875 4.546875,7.53125 4.859375,7.859375 L5.328125,8.3125 C5.390625,7.25 5.53125,6.328125 5.8125,5.5 C6.078125,4.671875 6.484375,3.9375 7.078125,3.265625 C7.734375,2.515625 8.5625,1.90625 9.546875,1.46875 C10.546875,1.03125 11.703125,0.78125 13.015625,0.796875 C15.359375,0.828125 17.25,1.53125 18.71875,2.6875 C20.609375,4.1875 21.5625,6.125 21.53125,8.65625 C21.515625,10.390625 20.890625,11.890625 19.78125,12.921875 C18.65625,13.9375 17.0625,14.5 15.09375,14.40625 C14.96875,15.546875 14.65625,16.484375 14.09375,17.140625 C13.53125,17.78125 12.71875,18.125 11.59375,18.125 C10.78125,18.109375 9.875,17.828125 9.015625,17.234375 C8.140625,16.65625 7.3125,15.765625 6.65625,14.546875 C6,13.328125 5.515625,11.78125 5.328125,9.890625 C4.921875,9.53125 4.484375,9.203125 4.15625,8.953125 C3.859375,8.734375 3.5625,8.78125 3.34375,9 C2.90625,9.4375 2.5625,9.921875 2.328125,10.671875 Z M6.265625,10.484375 C6.640625,13.109375 7.421875,14.796875 8.328125,15.828125 C9.25,16.84375 10.296875,17.203125 11.234375,17.203125 C12.484375,17.203125 13.34375,16.328125 13.53125,14.265625 C11,13.78125 8.703125,12.5 6.265625,10.484375 Z M15.09375,13.609375 C16.484375,13.703125 17.703125,13.265625 18.546875,12.40625 C19.390625,11.53125 19.859375,10.21875 19.859375,8.5625 C19.8125,6.5 19.0625,5.03125 17.84375,3.890625 C17.234375,3.34375 16.53125,2.890625 15.703125,2.5625 C14.875,2.21875 13.921875,2.015625 12.890625,2.015625 C10.578125,2.015625 8.84375,2.75 7.765625,3.984375 C6.640625,5.25 6.171875,6.796875 6.171875,9.046875 C8.703125,11.546875 11.296875,12.9375 13.625,13.46875 C13.625,11.65625 13.265625,10.34375 12.734375,9.171875 C12.5,8.65625 12.234375,8.1875 11.90625,7.78125 C11.546875,7.3125 11.390625,7.109375 11.359375,6.875 C11.3125,6.5 11.65625,6.265625 12.03125,6.1875 C13.015625,5.96875 14.015625,5.96875 15,6.09375 C15.625,6.171875 16.0625,6.375 16.15625,6.640625 C16.25,6.921875 16.15625,7.21875 15.984375,7.34375 C15.765625,7.5 15.390625,7.53125 14.84375,7.390625 C14.265625,7.265625 13.578125,7.25 13.015625,7.328125 C12.59375,7.390625 12.671875,7.625 13.015625,8.0625 C13.71875,8.96875 14.21875,9.8125 14.546875,10.703125 C14.875,11.578125 15.046875,12.515625 15.09375,13.609375 Z" transform="translate(0.3125, 18.125) scale(1, -1)"/>
</svg>