<svg height="18.875" viewBox="0 0 24 18.875" width="24" xmlns="http://www.w3.org/2000/svg">
<path d="M9,18.046875 C9.3125,17.875 9.5625,17.703125 9.734375,17.5625 C10.109375,17.234375 10.25,16.890625 10.203125,16.4375 C10.15625,15.96875 9.875,15.171875 9.578125,14.234375 C9.265625,13.28125 8.984375,12.328125 8.75,11.46875 C8.515625,10.59375 8.390625,9.875 8.3125,9.46875 C8.28125,9.265625 8.21875,9.0625 8.15625,8.890625 C8,8.421875 8,8.15625 8.453125,7.703125 C8.703125,7.453125 8.921875,7.359375 9.15625,7.390625 C9.375,7.40625 9.609375,7.53125 9.890625,7.71875 C10.28125,7.96875 10.84375,8.25 11.46875,8.453125 C12.109375,8.65625 12.796875,8.78125 13.484375,8.734375 C14.25,8.6875 14.90625,8.453125 15.359375,8 C15.828125,7.53125 16.0625,6.875 16.0625,6.03125 C16.015625,3.96875 15.125,2.59375 13.625,1.515625 C12.5,2.640625 11.421875,3.1875 10.0625,3.265625 C9.265625,3.3125 8.46875,3.171875 7.875,2.84375 C7.28125,2.515625 6.890625,2.046875 6.890625,1.4375 C6.890625,0.9375 7.140625,0.5 7.65625,0.171875 C8.171875,-0.15625 8.953125,-0.34375 10.03125,-0.34375 C11.5,-0.34375 12.96875,-0.078125 14.40625,0.796875 C16.59375,2.140625 17.6875,3.875 17.6875,6.03125 C17.6875,7.0625 17.296875,7.953125 16.578125,8.5625 C15.84375,9.171875 14.78125,9.515625 13.46875,9.546875 C12.09375,9.59375 10.71875,9.3125 9.78125,8.953125 C9.578125,8.890625 9.46875,8.875 9.40625,8.921875 C9.359375,8.984375 9.359375,9.078125 9.390625,9.234375 C9.65625,11.203125 10.15625,12.78125 10.8125,14.15625 C11.125,14.8125 11.328125,15.25 11.609375,15.71875 C12.078125,16.46875 12.078125,17.0625 11.234375,17.65625 C10.671875,18.046875 10.015625,18.34375 9.3125,18.53125 Z M11.734375,13.828125 C12.796875,13.171875 13.90625,12.859375 15.40625,12.796875 C16.171875,12.765625 16.875,12.859375 17.3125,13.03125 C17.796875,13.21875 18,13.359375 18.09375,13.578125 C18.1875,13.8125 18.171875,14.09375 17.90625,14.328125 C17.5625,14.65625 17.109375,14.609375 16.609375,14.375 C16.15625,14.1875 15.640625,14.09375 14.9375,14.015625 C13.953125,13.90625 13.015625,13.90625 12.125,14.28125 Z M13.0625,1.078125 C12.21875,0.640625 11.1875,0.359375 10.109375,0.359375 C9.40625,0.359375 8.9375,0.453125 8.65625,0.609375 C8.375,0.78125 8.265625,1.015625 8.265625,1.328125 C8.265625,1.953125 8.9375,2.34375 10.109375,2.3125 C11.28125,2.28125 12.21875,1.734375 13.0625,1.078125 Z" transform="translate(-0.5390625, 18.53125) scale(1, -1)"/>
</svg>