<svg height="20.75" viewBox="0 0 24 20.75" width="24" xmlns="http://www.w3.org/2000/svg">
<path d="M6.6875,18.578125 C7.34375,18.375 7.703125,18.15625 7.8125,17.90625 C7.90625,17.65625 7.765625,17.375 7.46875,17.046875 C6.84375,16.34375 6.15625,15.6875 5.265625,14.984375 C5.09375,14.84375 4.953125,14.703125 4.84375,14.59375 C4.625,14.359375 4.53125,14.140625 4.578125,13.90625 C4.625,13.671875 4.8125,13.390625 4.9375,13.171875 C5,13.0625 5.046875,12.96875 5.09375,12.875 C5.140625,12.78125 5.1875,12.6875 5.25,12.59375 L5.40625,12.265625 C4,10.8125 3.109375,9.453125 2.359375,8.140625 L2.84375,7.875 C3.6875,9.09375 4.828125,10.28125 5.90625,11.140625 C6.1875,10.296875 6.453125,9.34375 6.546875,8.40625 C6.078125,7.75 5.5,7.015625 4.9375,6.3125 C4.375,5.609375 3.796875,4.921875 3.296875,4.390625 C3.015625,4.109375 2.828125,3.875 2.71875,3.6875 C2.609375,3.5 2.578125,3.328125 2.59375,3.09375 C2.625,2.765625 2.6875,2.375 2.8125,2.109375 C3.015625,1.671875 3.421875,1.71875 3.6875,2.15625 C3.890625,2.46875 4.125,2.890625 4.390625,3.359375 C4.765625,2.90625 5.125,2.359375 5.5,1.5625 C5.71875,1.109375 5.875,0.6875 6,0.234375 C6.046875,0.078125 6.109375,-0.046875 6.171875,-0.125 C6.3125,-0.296875 6.5,-0.28125 6.78125,-0.046875 C6.921875,0.0625 7.078125,0.234375 7.25,0.484375 C7.90625,1.421875 8.140625,2.609375 8.1875,4.4375 C8.21875,5.765625 8.046875,6.984375 7.875,8.109375 C9.390625,10.296875 10.625,11.796875 11.375,12.59375 C11.671875,12.90625 11.9375,13.125 12.1875,13.265625 C12.6875,13.546875 13.0625,13.203125 13.203125,12.734375 C13.328125,12.265625 13.390625,11.59375 13.390625,10.75 C13.390625,10.3125 13.34375,9.90625 13.28125,9.5 C13.15625,8.8125 13.125,8.375 13.53125,7.90625 C13.828125,7.5625 14.109375,7.4375 14.328125,7.46875 C14.75,7.53125 14.90625,8.03125 14.84375,9 C14.796875,9.5625 14.796875,10.125 14.84375,10.703125 C14.90625,11.828125 15.09375,13.203125 15.40625,14.15625 C15.734375,15.125 16.71875,17.546875 17.640625,16.078125 C18.078125,15.390625 18.375,14.28125 18.5625,13.0625 C18.75,11.84375 18.828125,10.53125 18.828125,9.453125 C18.828125,7.15625 18.59375,5.3125 18,3.59375 C17.421875,1.890625 16.484375,0.3125 15.140625,-1.375 L15.625,-1.765625 C17.140625,-0.3125 18.3125,1.296875 19.109375,3.171875 C19.90625,5.03125 20.34375,7.109375 20.375,9.5 C20.421875,12.5625 20,14.640625 19.421875,15.828125 C18.96875,16.765625 18.359375,17.15625 17.609375,17.203125 C16.765625,17.25 16.125,16.875 15.578125,15.984375 C15.046875,15.140625 14.5625,14.15625 14.234375,12.9375 C14,13.640625 13.578125,14.078125 12.984375,14.109375 C12.453125,14.140625 11.984375,13.921875 11.359375,13.421875 C10.703125,12.890625 10.046875,12.234375 9.40625,11.546875 C8.78125,10.859375 8.15625,10.125 7.578125,9.4375 C7.40625,10.015625 7.203125,10.703125 7.015625,11.1875 C7.1875,11.640625 7.28125,11.953125 7.328125,12.1875 C7.484375,12.890625 7.25,13.078125 6.78125,13.03125 C6.5,13 6.34375,12.953125 6.125,12.828125 C6,13.03125 5.890625,13.21875 5.796875,13.390625 C5.6875,13.53125 5.59375,13.703125 5.5,13.859375 C5.3125,14.171875 5.40625,14.40625 5.9375,14.734375 C6.421875,15.03125 6.875,15.3125 7.25,15.546875 C7.640625,15.78125 8,16.015625 8.359375,16.25 C9.015625,16.671875 9.546875,17.0625 9.6875,17.421875 C9.84375,17.796875 9.53125,18.21875 8.90625,18.5 C8.46875,18.703125 7.984375,18.890625 7.015625,18.984375 Z M6.78125,6.890625 L6.875,5.84375 C6.921875,5.46875 6.9375,5.125 6.953125,4.765625 C6.96875,4.0625 6.921875,3.359375 6.78125,2.703125 C6.546875,1.8125 6.359375,1.8125 6.03125,2.3125 C5.640625,2.890625 5.140625,3.453125 4.703125,3.890625 C5.265625,4.828125 5.984375,5.90625 6.78125,6.890625 Z" transform="translate(0.609375, 18.984375) scale(1, -1)"/>
</svg>