<svg height="21.375" viewBox="0 0 24 21.375" width="24" xmlns="http://www.w3.org/2000/svg">
<path d="M9.140625,19.34375 C9.734375,18.546875 10.5625,18.203125 11.6875,18.078125 C12.125,18.03125 12.125,17.9375 11.796875,17.84375 C11.421875,17.75 10.953125,17.59375 10.4375,17.421875 C9.921875,17.234375 9.40625,17.03125 8.984375,16.859375 L9.265625,16.4375 C11.015625,17 12.40625,17.296875 13.15625,17.421875 C13.71875,17.515625 14.0625,17.53125 14.515625,17.5625 C14.859375,17.609375 15.21875,17.671875 15.34375,17.734375 C15.5625,17.859375 15.625,18.03125 15.625,18.296875 C15.625,18.578125 15.5,18.8125 15.171875,19.03125 C14.890625,19.21875 14.5,19.328125 13.96875,19.25 L13.421875,19.171875 C13,19.125 12.53125,19.109375 12.046875,19.109375 C11.796875,19.109375 11.578125,19.109375 11.359375,19.125 C10.328125,19.203125 9.796875,19.453125 9.4375,19.71875 Z M6,15.3125 C5.71875,15.171875 5.390625,14.984375 5.109375,14.796875 C4.828125,14.609375 4.59375,14.40625 4.46875,14.234375 C4.25,13.9375 4.109375,13.703125 4.015625,13.4375 C3.921875,13.1875 3.875,12.921875 3.875,12.59375 C3.875,12.28125 3.984375,11.84375 4.28125,11.5625 C4.546875,11.328125 4.921875,11.15625 5.40625,11.15625 C6.203125,11.15625 7.0625,11.453125 7.625,11.796875 L8.265625,12.171875 C8.703125,12.421875 9.15625,12.6875 9.578125,12.921875 L10.125,13.25 C10.578125,13.484375 11.03125,13.71875 11.5,13.90625 C12.4375,14.28125 13.15625,14.546875 13.90625,14.703125 C14.671875,14.84375 15.53125,14.9375 16.140625,14.953125 C16.75,14.953125 17.515625,14.90625 17.5625,14.6875 C17.609375,14.453125 17,14.265625 16.484375,14.046875 C16.21875,13.953125 15.90625,13.8125 15.53125,13.625 C13.96875,12.921875 12.546875,12.15625 11.375,11.5 C10.734375,11.140625 10.578125,10.90625 10.53125,10.484375 C10.484375,10.125 10.625,9.828125 10.96875,9.578125 C11.234375,9.390625 11.6875,9.203125 11.984375,9.078125 C12.390625,8.890625 12.390625,8.765625 11.84375,8.421875 C11.453125,8.1875 11.09375,7.90625 10.8125,7.625 C10.34375,7.21875 10.03125,6.84375 10.03125,6.390625 C10.03125,5.859375 10.171875,5.5625 10.625,5.3125 C10.953125,5.140625 11.46875,4.90625 11.90625,4.78125 C12.90625,4.5 13.390625,4.078125 13.390625,3.5 C13.390625,2.890625 13.15625,2.1875 12.453125,1.25 C11.796875,0.359375 10.828125,-0.53125 9.84375,-1.203125 L10.21875,-1.65625 C10.65625,-1.4375 11.046875,-1.203125 11.46875,-0.90625 C11.890625,-0.609375 12.359375,-0.25 12.921875,0.234375 C13.71875,0.921875 14.203125,1.46875 14.5625,2.0625 C14.953125,2.71875 15.046875,3.296875 15.046875,3.578125 C15.046875,4.15625 14.8125,4.53125 14.46875,4.90625 C14.34375,5.046875 14.140625,5.1875 13.890625,5.328125 C13.625,5.46875 13.34375,5.609375 13.0625,5.6875 L12.203125,5.9375 C11.859375,6.015625 11.5625,6.125 11.265625,6.234375 C10.75,6.453125 10.78125,6.78125 11.28125,7.109375 C11.65625,7.34375 12.125,7.625 12.546875,7.859375 C12.84375,8 13.265625,8.1875 13.515625,8.28125 C13.90625,8.421875 14.09375,8.703125 14.09375,9.046875 C14.09375,9.296875 13.921875,9.609375 13.578125,9.734375 C13.5,9.78125 13.390625,9.8125 13.25,9.875 C13.109375,9.921875 12.96875,9.96875 12.828125,10.015625 C12.671875,10.078125 12.5,10.140625 12.359375,10.203125 L11.90625,10.34375 C11.453125,10.53125 11.5,10.8125 12.03125,11.09375 C12.328125,11.25 12.671875,11.421875 13.046875,11.59375 C13.796875,11.921875 14.59375,12.234375 15.375,12.53125 C16.15625,12.8125 16.734375,13.015625 17.25,13.109375 C17.765625,13.203125 18.171875,13.28125 18.5625,13.34375 C18.765625,13.375 18.9375,13.40625 19.109375,13.46875 C19.484375,13.59375 19.65625,13.90625 19.65625,14.265625 C19.65625,14.625 19.46875,15 18.796875,15.359375 C18.296875,15.640625 17.5625,15.734375 16.8125,15.734375 C16.34375,15.734375 15.828125,15.6875 15.28125,15.640625 C14.75,15.578125 14.21875,15.484375 13.828125,15.390625 C12.984375,15.1875 11.84375,14.859375 10.765625,14.40625 L10.015625,14.09375 C9.734375,13.96875 9.484375,13.859375 9.21875,13.75 C8.703125,13.53125 8.21875,13.3125 7.8125,13.171875 C7.34375,13 7,12.921875 6.734375,12.875 C6.453125,12.828125 6.234375,12.828125 6.046875,12.828125 C5.421875,12.828125 5.28125,12.96875 5.3125,13.4375 C5.328125,13.765625 5.46875,14.078125 5.65625,14.359375 C5.84375,14.625 6.078125,14.84375 6.296875,14.9375 Z" transform="translate(0.234375, 19.71875) scale(1, -1)"/>
</svg>