<svg height="20.6875" viewBox="0 0 24 20.6875" width="24" xmlns="http://www.w3.org/2000/svg">
<path d="M14.09375,18.3125 C14.515625,18.375 14.796875,18.359375 14.96875,18.265625 C15.125,18.171875 15.21875,18.03125 15.21875,17.859375 C15.21875,17.6875 15.0625,17.4375 14.84375,17.203125 C14.609375,16.953125 14.328125,16.703125 14.09375,16.515625 C13.578125,16.140625 12.8125,15.578125 12.078125,15.078125 C11.328125,14.5625 10.640625,14.125 10.34375,13.96875 C9.640625,13.609375 9.3125,13.125 9.3125,12.59375 C9.3125,12.21875 9.640625,11.796875 10.203125,11.59375 C10.53125,11.46875 11.09375,11.3125 11.421875,11.3125 C11.703125,11.3125 11.703125,10.96875 11.609375,10.609375 C11.515625,10.203125 11.265625,9.546875 11,8.84375 C10.71875,8.15625 10.40625,7.4375 10.171875,6.96875 C9.171875,6.828125 8.015625,6.515625 7.078125,6.1875 C5.75,5.71875 4.640625,5.1875 3.84375,4.578125 C3.265625,4.15625 2.9375,3.6875 2.9375,3.21875 C2.9375,2.796875 3.09375,2.546875 3.625,2.1875 C4.0625,1.890625 4.546875,1.4375 5.109375,0.6875 C5.421875,0.28125 5.78125,0.40625 6.4375,0.71875 C7.21875,1.109375 8.046875,1.765625 8.9375,2.6875 C9.359375,3.140625 9.828125,3.796875 10.234375,4.453125 C10.625,5.09375 10.96875,5.703125 11.15625,6.078125 C11.9375,6.125 13.15625,6.171875 14.40625,6.140625 C15.640625,6.109375 16.890625,6.015625 17.765625,5.8125 C17.640625,5.40625 17.375,4.875 17.03125,4.3125 C16.671875,3.75 16.234375,3.140625 15.796875,2.609375 C15.1875,1.875 14.375,1.15625 13.4375,0.515625 C12.5,-0.140625 11.484375,-0.71875 10.53125,-1.15625 L10.953125,-1.671875 C12.203125,-1.171875 13.15625,-0.734375 14.046875,-0.1875 C14.921875,0.359375 15.734375,0.96875 16.71875,1.859375 C17.421875,2.46875 17.984375,3.15625 18.421875,3.8125 C18.875,4.46875 19.203125,5.09375 19.4375,5.5625 L20.046875,5.5 C20.234375,5.46875 20.4375,5.5 20.609375,5.578125 C20.984375,5.734375 21.078125,6.0625 20.9375,6.3125 C20.84375,6.4375 20.703125,6.578125 20.46875,6.734375 C20.34375,6.828125 20.203125,6.984375 20.0625,7.15625 C19.921875,7.34375 19.765625,7.53125 19.671875,7.671875 C19.53125,7.90625 19.390625,8.03125 19.25,8.046875 C19.109375,8.046875 18.96875,7.9375 18.734375,7.78125 C18.453125,7.5625 18.203125,7.171875 18.078125,6.984375 C17.171875,7.09375 15.90625,7.15625 14.6875,7.15625 C13.453125,7.15625 12.265625,7.109375 11.515625,7.0625 C11.71875,7.4375 12.03125,8.046875 12.34375,8.703125 C12.640625,9.34375 12.9375,9.984375 13.125,10.4375 C13.390625,11.09375 13.421875,11.34375 13.15625,11.703125 C12.828125,12.125 12.5,12.40625 12.140625,12.359375 C11.5,12.265625 10.8125,12.453125 10.484375,12.671875 C10.171875,12.890625 10.078125,13.125 10.5625,13.390625 L14.609375,15.6875 C14.75,15.78125 14.890625,15.859375 15.0625,15.953125 C15.21875,16.046875 15.390625,16.140625 15.546875,16.25 C15.875,16.4375 16.1875,16.640625 16.375,16.78125 C16.875,17.140625 17.0625,17.46875 17.0625,17.890625 C17.0625,18.203125 16.8125,18.546875 16.4375,18.734375 C16.015625,18.96875 15.59375,19.015625 15.09375,19.015625 C14.734375,19.015625 14.265625,18.921875 13.921875,18.796875 Z M6.578125,18.21875 C6.484375,17.4375 6.5,16.8125 6.59375,16.34375 C6.734375,15.78125 6.984375,15.40625 7.375,15.09375 C7.578125,14.921875 7.828125,14.859375 8.03125,14.90625 C8.21875,14.9375 8.375,15.078125 8.421875,15.265625 C8.46875,15.453125 8.5,15.65625 8.6875,15.796875 C8.84375,15.921875 9.015625,16.03125 9.21875,16.15625 C9.625,16.40625 10.0625,16.65625 10.484375,16.875 C10.671875,16.984375 10.859375,17.078125 11,17.15625 L10.859375,17.609375 C10.4375,17.4375 9.96875,17.265625 9.515625,17.109375 C9.078125,16.953125 8.65625,16.8125 8.359375,16.765625 C7.96875,16.671875 7.859375,16.703125 7.671875,16.921875 C7.453125,17.1875 7.21875,17.75 7.125,18.40625 Z M9.6875,5.984375 C9.609375,5.75 9.40625,5.359375 9.125,4.90625 C8.84375,4.4375 8.484375,3.921875 8.109375,3.484375 C7.890625,3.21875 7.578125,2.890625 7.25,2.59375 C6.921875,2.28125 6.59375,2 6.34375,1.859375 C6.078125,1.671875 5.90625,1.578125 5.765625,1.5625 C5.625,1.546875 5.5,1.609375 5.3125,1.78125 C5.1875,1.890625 5.03125,2.046875 4.859375,2.234375 C4.703125,2.421875 4.546875,2.609375 4.46875,2.765625 C4.25,3.171875 4.578125,3.53125 5.109375,3.96875 C5.59375,4.34375 6.375,4.8125 7.21875,5.1875 C8.046875,5.5625 8.9375,5.84375 9.6875,5.984375 Z" transform="translate(-0.0078125, 19.015625) scale(1, -1)"/>
</svg>