<svg height="21.40625" viewBox="0 0 24 21.40625" width="24" xmlns="http://www.w3.org/2000/svg">
<path d="M10.015625,19.125 C10.8125,18.90625 11.28125,18.484375 11.453125,17.59375 C11.46875,17.46875 11.5,17.328125 11.515625,17.234375 C11.546875,17 11.546875,16.8125 11.546875,16.59375 L11.546875,16.25 C11.0625,16.171875 10.625,16.15625 10.25,16.171875 C9.640625,16.21875 9.203125,16.296875 8.84375,16.4375 C8.46875,16.578125 8.1875,16.78125 7.953125,17.0625 L7.625,16.671875 C8.203125,15.59375 9.0625,15.03125 10.515625,15.03125 C10.8125,15.03125 11.15625,15.03125 11.546875,15.078125 L11.546875,12.71875 C10.03125,12.21875 8.515625,11.515625 6.921875,10.578125 C7.390625,10.921875 8.015625,11.46875 8.578125,11.96875 C9.140625,12.46875 9.640625,12.921875 9.875,13.15625 C10.140625,13.421875 10.25,13.625 10.171875,13.90625 C10.078125,14.234375 9.796875,14.53125 9.40625,14.703125 L9.03125,14.515625 C9.359375,14.296875 9.390625,14.015625 9.140625,13.71875 C8.84375,13.359375 8.1875,12.734375 7.421875,12.046875 C6.640625,11.359375 5.75,10.625 4.953125,10.0625 C4.609375,9.8125 4.34375,9.671875 4.15625,9.578125 C4.09375,9.546875 4.046875,9.484375 4.015625,9.40625 C3.9375,9.21875 3.90625,9.015625 3.953125,8.75 C3.984375,8.46875 4.125,8.046875 4.40625,8 C4.671875,7.953125 4.96875,8.15625 5.21875,8.359375 L5.5625,8.640625 C6.734375,9.578125 7.78125,10.25 8.8125,10.8125 C9.3125,10.578125 9.78125,10.296875 10.203125,10.015625 C10.609375,9.734375 10.921875,9.453125 11.109375,9.21875 C11.203125,9.078125 11.25,9.03125 11.375,8.90625 C11.046875,8.703125 10.796875,8.5625 10.65625,8.421875 C10.5,8.296875 10.390625,8.1875 10.296875,8.109375 C10.03125,7.84375 9.984375,7.6875 10.078125,7.421875 C10.203125,7.078125 10.484375,6.875 10.875,6.796875 C11.03125,6.765625 11.21875,6.78125 11.421875,6.828125 C11.53125,6.84375 11.640625,6.875 11.734375,6.875 L11.984375,6.921875 C12.0625,6.921875 12.125,6.921875 12.171875,6.90625 C12.203125,6.875 12.203125,6.84375 12.171875,6.796875 C12.03125,6.625 11.90625,6.40625 11.6875,6.21875 C11.453125,5.984375 11.4375,5.71875 11.5625,5.453125 C11.703125,5.15625 11.828125,4.90625 11.859375,4.671875 C11.5,4.640625 10.9375,4.5625 10.25,4.4375 C9.578125,4.296875 8.796875,4.109375 8.0625,3.890625 C7.265625,3.65625 6.59375,3.34375 6.3125,3.09375 C5.984375,2.8125 5.78125,2.40625 5.9375,1.921875 C6.03125,1.609375 6.390625,1.203125 6.890625,0.984375 C7.234375,0.828125 7.90625,0.5 8.5625,0.140625 C9.21875,-0.21875 9.84375,-0.59375 10.078125,-0.828125 C10.25,-1 10.40625,-1.15625 10.53125,-1.421875 C10.671875,-1.671875 10.90625,-1.703125 11.1875,-1.703125 C11.5,-1.703125 11.734375,-1.625 12.140625,-1.4375 C12.390625,-1.34375 12.65625,-1.109375 12.875,-0.859375 C13.078125,-0.609375 13.25,-0.328125 13.34375,-0.09375 C13.578125,0.421875 13.671875,1.03125 13.671875,1.71875 C13.671875,2.0625 13.640625,2.4375 13.59375,2.765625 C13.546875,3.09375 13.484375,3.359375 13.421875,3.546875 C13.78125,3.5625 14.21875,3.546875 14.6875,3.515625 C15.140625,3.46875 15.59375,3.40625 15.984375,3.34375 C16.46875,3.265625 17.140625,3.078125 17.609375,2.859375 C18.015625,2.6875 18.328125,2.625 18.546875,2.6875 C18.78125,2.75 18.90625,2.84375 18.9375,3 C19.046875,3.390625 18.96875,3.796875 18.484375,4.03125 C17.953125,4.296875 17.328125,4.40625 16.578125,4.53125 C15.453125,4.71875 14.453125,4.765625 13.109375,4.765625 C12.96875,5.03125 12.78125,5.40625 12.5,5.640625 C12.40625,5.75 12.34375,5.8125 12.34375,5.859375 C12.34375,5.90625 12.421875,5.984375 12.578125,6.078125 C12.9375,6.296875 13.390625,6.578125 13.78125,6.890625 C14.015625,7.078125 14.09375,7.25 13.90625,7.53125 C13.765625,7.71875 13.625,7.890625 13.484375,8 C13.296875,8.140625 13.015625,8.046875 12.78125,8 C12.34375,7.90625 11.9375,7.859375 11.453125,7.859375 C11.046875,7.859375 11.0625,7.921875 11.546875,8.265625 C11.90625,8.515625 12.625,8.90625 13.46875,9.328125 C14.296875,9.734375 15.265625,10.171875 16.125,10.484375 C17.015625,10.8125 18.03125,11.09375 19.0625,11.3125 C19.34375,11.375 19.640625,11.4375 19.84375,11.5625 C20.046875,11.703125 20.1875,11.890625 20.1875,12.171875 C20.1875,12.359375 20.03125,12.5625 19.828125,12.734375 C19.625,12.921875 19.375,13.0625 19.15625,13.15625 C18.5,13.4375 17.421875,13.578125 16.296875,13.578125 C15.125,13.578125 13.953125,13.421875 12.625,13.0625 C12.609375,13.453125 12.59375,13.84375 12.59375,14.234375 L12.59375,15.234375 C13.828125,15.515625 15.125,15.875 16.03125,16.34375 C16.265625,16.484375 16.421875,16.65625 16.421875,16.859375 C16.421875,17.046875 16.34375,17.203125 16.15625,17.328125 C15.96875,17.46875 15.59375,17.546875 15.359375,17.546875 C15.03125,17.546875 14.84375,17.46875 14.421875,17.234375 C13.96875,16.953125 13.4375,16.65625 12.640625,16.46875 C12.6875,16.765625 12.71875,17.046875 12.796875,17.46875 C12.921875,18.171875 12.890625,18.53125 12.546875,18.875 C12.140625,19.28125 11.375,19.625 10.203125,19.703125 Z M16.390625,12.546875 C16.984375,12.546875 17.40625,12.515625 17.65625,12.453125 C17.921875,12.359375 18.046875,12.296875 18.046875,12.21875 C18.046875,12.171875 18.03125,12.140625 18.015625,12.109375 C17.984375,12.078125 17.9375,12.03125 17.875,11.984375 C17.734375,11.875 17.46875,11.75 17.046875,11.59375 C16.515625,11.40625 15.671875,11.046875 14.84375,10.671875 C14,10.296875 13.171875,9.875 12.6875,9.578125 C12.828125,9.984375 12.75,10.421875 12.6875,10.953125 C12.65625,11.234375 12.640625,11.6875 12.640625,12.1875 C14.015625,12.5 15.265625,12.546875 16.390625,12.546875 Z M11.546875,10.203125 C11.453125,10.21875 11.328125,10.265625 11.1875,10.328125 C10.875,10.4375 10.484375,10.609375 10.0625,10.8125 L9.4375,11.09375 C10.1875,11.453125 10.875,11.703125 11.546875,11.9375 Z M12.046875,3.484375 C12.21875,2.953125 12.296875,2.265625 12.296875,1.78125 C12.296875,1.5625 12.265625,1.25 12.21875,0.96875 C12.15625,0.671875 12.0625,0.359375 11.953125,0.171875 C11.78125,-0.125 11.5625,-0.25 10.96875,-0.03125 C10.46875,0.171875 9.71875,0.453125 8.984375,0.78125 C8.265625,1.109375 7.5625,1.421875 7.21875,1.65625 C6.78125,1.953125 6.828125,2.34375 7.203125,2.515625 C8,2.890625 8.9375,3.140625 9.796875,3.296875 C10.65625,3.4375 11.453125,3.484375 12.046875,3.484375 Z" transform="translate(-0.046875, 19.703125) scale(1, -1)"/>
</svg>