<svg height="19.5" viewBox="0 0 24 19.5" width="24" xmlns="http://www.w3.org/2000/svg">
<path d="M8.234375,18.4375 C8.5625,17.734375 9.125,17.1875 9.640625,16.859375 C9.921875,16.671875 10.3125,16.546875 10.71875,16.484375 C11.109375,16.4375 11.515625,16.40625 11.84375,16.4375 C12.546875,16.5 13.203125,16.578125 13.5625,16.765625 C13.828125,16.890625 13.953125,17.015625 14.015625,17.265625 C14.046875,17.453125 14.046875,17.65625 13.8125,17.84375 C13.515625,18.0625 13.328125,18.0625 12.921875,17.9375 C12.171875,17.703125 11.203125,17.609375 10.125,17.9375 C9.53125,18.109375 9.03125,18.359375 8.59375,18.875 Z M6.078125,14.109375 C6.15625,13.578125 6.453125,13.109375 6.921875,12.59375 C7.296875,12.1875 8,11.921875 8.984375,11.953125 C8.46875,11.609375 7.90625,11.140625 7.359375,10.671875 C6.8125,10.1875 6.28125,9.671875 5.859375,9.21875 C5.109375,8.40625 4.703125,7.78125 4.703125,7.125 C4.703125,6.578125 5.15625,6.0625 5.953125,5.890625 C6.46875,5.78125 7.046875,5.703125 7.5625,5.65625 C8.078125,5.609375 8.546875,5.59375 8.859375,5.59375 C8.65625,4.9375 8.609375,3.984375 8.609375,3.09375 C8.609375,1.828125 9.0625,0.984375 9.71875,0.359375 C10.078125,0.03125 10.484375,-0.234375 10.96875,-0.390625 C11.46875,-0.546875 12.046875,-0.625 12.796875,-0.625 C14.5,-0.625 16.171875,0.15625 17.734375,1.375 C18.484375,1.953125 19.125,2.703125 19.671875,3.5 C20.203125,4.28125 20.640625,5.125 21,5.90625 L20.515625,6.3125 C20.09375,5.5625 19.546875,4.765625 18.984375,4.078125 C18.421875,3.390625 17.84375,2.796875 17.328125,2.40625 C15.6875,1.140625 14.1875,0.734375 12.71875,0.734375 C11.828125,0.734375 11.21875,0.984375 10.703125,1.4375 C10.296875,1.8125 10.015625,2.5 10.015625,3.34375 C10.015625,3.75 10.046875,4.203125 10.109375,4.625 C10.15625,5.03125 10.234375,5.421875 10.328125,5.65625 C10.796875,5.75 11.328125,5.890625 11.84375,6.03125 C12.359375,6.171875 12.875,6.34375 13.25,6.53125 C13.859375,6.828125 14.15625,7.171875 14.15625,7.703125 C14.15625,8.109375 13.78125,8.390625 13.484375,8.65625 C13.109375,9 12.84375,9.34375 12.546875,9.78125 C12.359375,10.0625 12.09375,10.21875 11.796875,10.21875 C11.453125,10.21875 11.015625,9.828125 10.46875,9.171875 C10.28125,8.9375 10.015625,8.546875 9.78125,8.140625 C9.53125,7.71875 9.3125,7.25 9.21875,6.921875 C8.828125,6.90625 8.234375,6.921875 7.671875,6.96875 C7.109375,7.015625 6.5625,7.078125 6.234375,7.171875 C5.78125,7.3125 5.65625,7.53125 5.859375,8 C6.015625,8.375 6.53125,8.90625 7.171875,9.46875 C7.8125,10.03125 8.5625,10.59375 9.21875,11.015625 C9.453125,11.171875 9.734375,11.328125 10,11.46875 C10.265625,11.59375 10.5,11.6875 10.671875,11.734375 C11.09375,11.859375 11.328125,11.9375 11.703125,12.171875 C11.953125,12.3125 12.078125,12.546875 11.9375,12.84375 C11.6875,13.328125 11.28125,13.53125 10.859375,13.390625 C10.46875,13.296875 9.921875,13.21875 9.296875,13.21875 C8.796875,13.21875 8.1875,13.265625 7.703125,13.4375 C7.171875,13.625 6.828125,13.875 6.59375,14.421875 Z M10.578125,6.984375 C10.6875,7.28125 10.859375,7.65625 11.046875,8 C11.234375,8.359375 11.4375,8.6875 11.65625,8.9375 C12.03125,9.359375 12.140625,9.359375 12.3125,9 L12.71875,8.203125 C12.890625,7.875 12.828125,7.78125 12.546875,7.609375 C12.265625,7.4375 11.890625,7.28125 11.515625,7.1875 C11.140625,7.078125 10.78125,7 10.578125,6.984375 Z" transform="translate(-0.8515625, 18.875) scale(1, -1)"/>
</svg>