<svg height="19.75" viewBox="0 0 24 19.75" width="24" xmlns="http://www.w3.org/2000/svg">
<path d="M4.484375,14.765625 C4.625,14.359375 4.6875,13.9375 4.6875,13.4375 C4.671875,12.921875 4.59375,12.375 4.484375,11.6875 C4.3125,10.65625 4,9.328125 3.484375,7.578125 C3.21875,6.6875 3,5.6875 2.84375,4.71875 C2.671875,3.765625 2.5625,2.828125 2.5625,2.109375 L2.5625,1.71875 C2.5625,1.59375 2.5625,1.484375 2.578125,1.34375 C2.59375,1.21875 2.59375,1.078125 2.609375,0.9375 L2.640625,0.453125 C2.6875,-0.046875 2.84375,-0.390625 3.125,-0.578125 C3.34375,-0.734375 3.65625,-0.6875 3.796875,-0.5 C3.953125,-0.3125 4.015625,0.078125 3.96875,0.625 C3.921875,1.03125 3.921875,1.421875 3.921875,1.859375 C3.90625,2.28125 3.90625,2.78125 3.9375,3.390625 C4,5.21875 4.25,6.78125 4.59375,8.140625 C4.921875,9.5 5.359375,10.640625 5.8125,11.609375 C6.71875,13.546875 7.859375,14.796875 8.890625,15.53125 C8.796875,14.15625 8.75,12.84375 8.40625,11.421875 C8.3125,11.046875 8.28125,10.765625 8.3125,10.484375 C8.34375,10.21875 8.46875,9.96875 8.65625,9.671875 C9.03125,9.140625 9.34375,8.6875 9.625,7.96875 C8.640625,7.03125 7.734375,6.078125 6.84375,4.953125 C5.96875,3.828125 5.40625,2.796875 5.40625,1.484375 C5.40625,0.828125 5.59375,0.40625 5.890625,0.125 C6.171875,-0.140625 6.59375,-0.234375 7.109375,-0.234375 C8,-0.234375 9.09375,0.25 9.96875,1.0625 C10.859375,1.859375 11.515625,3 11.59375,4.328125 C11.671875,5.703125 11.375,6.890625 10.765625,8.0625 C11.46875,8.859375 12.234375,9.734375 12.796875,10.390625 L12.390625,10.859375 C11.734375,10.0625 11.09375,9.4375 10.34375,8.6875 C10.015625,9.1875 9.734375,9.546875 9.359375,9.96875 C9,10.34375 9.015625,10.765625 9.21875,11.28125 C9.390625,11.75 9.453125,12.078125 9.546875,12.453125 C10.71875,12.421875 11.71875,12.625 12.40625,13.046875 C13.078125,13.46875 13.46875,14.125 13.46875,15.03125 C13.46875,15.78125 13.078125,16.328125 12.46875,16.609375 C11.84375,16.875 11.015625,16.890625 10.125,16.609375 C10.203125,17.09375 10.171875,17.375 10.125,17.859375 C10.078125,18.3125 9.796875,18.59375 9.09375,18.828125 C8.6875,18.953125 8.125,18.96875 7.328125,19.015625 L7.109375,18.5 C7.5625,18.453125 7.96875,18.328125 8.28125,18.15625 C8.609375,17.984375 8.796875,17.75 8.84375,17.46875 C8.890625,17.015625 8.921875,16.5625 8.890625,16.21875 C7.609375,15.421875 6.359375,14.140625 5.328125,12.390625 C5.46875,13.515625 5.359375,14.328125 5,15.03125 Z M15.734375,14.546875 C16.390625,15.25 17.140625,15.96875 17.9375,16.421875 C18.78125,16.890625 19.15625,16.625 18.671875,15.546875 C18.453125,15.078125 18.140625,14.484375 17.78125,13.875 C17.421875,13.265625 17,12.625 16.578125,12.046875 C16.265625,11.609375 16.125,11.28125 16.140625,11.015625 C16.15625,10.5 16.90625,10.1875 17.3125,9.984375 C17.703125,9.78125 18.234375,9.578125 18.21875,9.0625 C18.21875,8.546875 17.5,7.796875 16.953125,7.203125 C16.671875,6.890625 16.390625,6.5625 16.125,6.21875 C15.59375,5.5625 15.109375,4.90625 14.796875,4.28125 C14.40625,3.53125 14.328125,3.171875 14.328125,2.796875 C14.328125,2.1875 14.59375,1.765625 15.171875,1.296875 C15.4375,1.078125 15.875,0.859375 16.390625,0.671875 C16.90625,0.46875 17.46875,0.3125 18.03125,0.234375 C19.015625,0.109375 19.71875,0.0625 20.515625,0.1875 C20.765625,0.21875 20.984375,0.28125 21.15625,0.359375 C21.515625,0.484375 21.796875,0.796875 21.796875,1.078125 C21.78125,1.34375 21.515625,1.578125 21.046875,1.578125 C20.796875,1.578125 20.5625,1.5625 20.28125,1.53125 C19.625,1.484375 18.875,1.53125 18.171875,1.625 C17.328125,1.765625 16.46875,2.03125 16.015625,2.359375 C15.6875,2.59375 15.484375,2.78125 15.40625,3.046875 C15.3125,3.3125 15.390625,3.640625 15.671875,4.125 C16.046875,4.78125 16.515625,5.375 17.0625,5.984375 C17.609375,6.578125 18.203125,7.140625 18.796875,7.703125 C19.234375,8.109375 19.484375,8.421875 19.640625,8.703125 C19.78125,8.96875 19.828125,9.171875 19.828125,9.34375 C19.828125,9.890625 19.375,10.390625 18.53125,10.671875 L17.984375,10.875 C17.8125,10.9375 17.609375,11 17.359375,11.0625 C17.234375,11.09375 17.125,11.140625 17.046875,11.1875 C16.90625,11.265625 16.890625,11.390625 17.015625,11.59375 C17.078125,11.703125 17.1875,11.828125 17.3125,11.984375 C17.65625,12.375 18.046875,12.828125 18.5,13.34375 C18.96875,13.84375 19.40625,14.390625 19.859375,14.984375 C20.375,15.6875 20.515625,16.15625 20.515625,16.53125 C20.515625,17.203125 20.09375,17.546875 19.484375,17.59375 C18.78125,17.65625 18.25,17.421875 17.59375,17.046875 C16.84375,16.578125 16,15.828125 15.34375,14.890625 Z M10.078125,16.015625 C11.34375,16.421875 12,16.015625 12,14.890625 C12,13.65625 11.140625,12.953125 9.71875,13.03125 C9.875,13.921875 9.984375,15.03125 10.078125,16.015625 Z M9.96875,7.21875 C10.28125,6.328125 10.390625,5.15625 10.203125,3.984375 C10.046875,3.0625 9.609375,2.203125 9.09375,1.578125 C8.5625,0.9375 7.953125,0.53125 7.390625,0.53125 C6.875,0.53125 6.671875,0.71875 6.671875,1.515625 C6.671875,1.921875 6.78125,2.421875 6.9375,2.9375 C7.109375,3.453125 7.34375,3.96875 7.625,4.375 C8.421875,5.5 9.296875,6.46875 9.96875,7.21875 Z" transform="translate(-0.1796875, 19.015625) scale(1, -1)"/>
</svg>