<svg height="19.578125" viewBox="0 0 24 19.578125" width="24" xmlns="http://www.w3.org/2000/svg">
<path d="M11.28125,18.296875 C10.859375,18.296875 10.46875,18.140625 9.921875,17.515625 C9.390625,16.921875 8.890625,16.25 8.375,15.53125 C7.390625,15.46875 6.609375,15.546875 5.921875,15.75 C5.234375,15.96875 4.609375,16.3125 3.9375,16.828125 L3.484375,16.34375 C4.609375,15.03125 6.109375,14.375 7.609375,14.328125 C6.609375,12.6875 5.75,11.0625 5.1875,9.796875 C4.71875,8.71875 4.375,7.859375 4.375,6.96875 C4.375,6.453125 4.546875,6.0625 4.984375,5.875 C5.421875,5.6875 6.109375,5.6875 7.125,5.953125 C7.65625,6.09375 8.375,6.3125 9.171875,6.59375 C9.96875,6.875 10.8125,7.21875 11.609375,7.5625 C11.53125,6.53125 11.46875,5.28125 11.40625,3.921875 C11.34375,2.578125 11.3125,1.15625 11.3125,-0.234375 C11.3125,-0.5 11.390625,-0.765625 11.53125,-0.953125 C11.671875,-1.15625 11.859375,-1.28125 12.09375,-1.28125 C12.625,-1.28125 12.828125,-0.734375 12.78125,0.078125 C12.734375,0.828125 12.703125,1.71875 12.703125,2.640625 C12.703125,3.546875 12.703125,4.484375 12.734375,5.359375 C12.78125,6.359375 12.796875,7.28125 12.84375,8.140625 C13.515625,8.46875 14.09375,8.78125 14.421875,9.046875 C15.125,9.59375 15.3125,10.015625 14.796875,10.4375 C14.609375,10.578125 14.421875,10.765625 14.25,10.953125 C14.078125,11.140625 13.90625,11.34375 13.8125,11.5 C13.4375,12.03125 12.9375,12.09375 12.453125,11.328125 C12.28125,11.0625 12.125,10.671875 12,10.203125 C11.875,9.734375 11.78125,9.21875 11.734375,8.734375 C11.046875,8.453125 10.15625,8.125 9.265625,7.84375 C8.390625,7.546875 7.546875,7.3125 6.9375,7.21875 C6.6875,7.1875 6.484375,7.171875 6.328125,7.203125 C6.015625,7.25 5.90625,7.484375 5.96875,7.9375 C6,8.15625 6.078125,8.4375 6.1875,8.796875 C6.390625,9.40625 6.78125,10.265625 7.25,11.25 C7.71875,12.21875 8.3125,13.3125 8.9375,14.421875 C9.59375,14.53125 10.15625,14.703125 10.59375,14.890625 C11.046875,15.078125 11.359375,15.25 11.546875,15.390625 C12.3125,15.9375 12.53125,16.390625 12.53125,16.921875 C12.53125,17.25 12.40625,17.609375 12.1875,17.859375 C11.96875,18.125 11.65625,18.296875 11.28125,18.296875 Z M11.140625,17.46875 C11.28125,17.46875 11.375,17.203125 11.375,16.921875 C11.375,16.65625 11.1875,16.390625 10.8125,16.15625 C10.578125,16.015625 10.171875,15.84375 9.71875,15.71875 C9.828125,15.921875 9.9375,16.109375 10.0625,16.296875 C10.296875,16.671875 10.59375,17.171875 10.828125,17.34375 C10.953125,17.421875 11.046875,17.46875 11.140625,17.46875 Z M16.4375,12.734375 C17.390625,12.234375 18.140625,11.65625 18.71875,10.984375 C19.296875,10.3125 19.71875,9.546875 20.046875,8.6875 C20.140625,8.40625 20.234375,8.1875 20.34375,8.046875 C20.46875,7.90625 20.609375,7.828125 20.890625,7.828125 C21.265625,7.828125 21.578125,8.1875 21.578125,8.84375 C21.578125,9.296875 21.390625,9.78125 21.109375,10.25 C20.8125,10.703125 20.421875,11.125 20.046875,11.453125 C19.109375,12.25 18.140625,12.84375 16.828125,13.328125 Z M13.53125,10.625 C13.71875,10.40625 13.8125,10.265625 13.828125,10.15625 C13.84375,10.0625 13.796875,9.96875 13.703125,9.875 C13.59375,9.734375 13.5,9.671875 13.390625,9.59375 C13.265625,9.5 13.125,9.421875 12.9375,9.3125 C12.953125,9.453125 12.96875,9.609375 12.984375,9.765625 C13.015625,10.0625 13.109375,10.609375 13.25,10.75 C13.3125,10.8125 13.40625,10.78125 13.53125,10.625 Z" transform="translate(-0.53125, 18.296875) scale(1, -1)"/>
</svg>