<svg height="20.671875" viewBox="0 0 24 20.671875" width="24" xmlns="http://www.w3.org/2000/svg">
<path d="M10.0625,18.84375 C10.453125,18.734375 10.765625,18.5625 11,18.34375 C11.46875,17.890625 11.5625,17.140625 11.5625,16.203125 L11.5625,14.453125 C10.671875,14.234375 9.75,14 9,13.78125 C7.96875,13.484375 7.234375,13.46875 6.578125,13.46875 C5.640625,13.46875 5.046875,13.8125 4.484375,14.515625 L4.0625,14.109375 C4.203125,13.75 4.34375,13.484375 4.515625,13.25 C4.671875,13 4.859375,12.78125 5.09375,12.546875 C5.421875,12.21875 5.9375,11.96875 6.453125,11.9375 C6.921875,11.890625 7.53125,12.03125 8.265625,12.3125 C9.203125,12.6875 10.375,13.109375 11.546875,13.46875 L11.546875,7.90625 C11.1875,7.859375 10.75,7.84375 10.34375,7.84375 C10.140625,7.84375 9.9375,7.84375 9.75,7.859375 C9.375,7.859375 8.84375,7.953125 8.59375,8.09375 C8.46875,8.15625 8.40625,8.28125 8.40625,8.421875 C8.40625,8.75 8.5625,9.046875 9.171875,9.390625 L8.765625,9.9375 C8.15625,9.6875 7.734375,9.390625 7.46875,9.125 C7.203125,8.84375 7.125,8.5625 7.125,8.15625 C7.125,7.671875 7.484375,7.1875 8.375,6.9375 C8.890625,6.796875 9.5,6.734375 10.078125,6.703125 C10.640625,6.6875 11.171875,6.6875 11.546875,6.71875 C11.546875,5.203125 11.53125,4.078125 11.515625,3.15625 C11.515625,2.21875 11.484375,1.46875 11.46875,0.71875 C10.53125,1.03125 9.453125,1.484375 8.234375,2.015625 L8.109375,1.390625 C8.75,1.125 9.34375,0.78125 9.8125,0.453125 C10.28125,0.125 10.625,-0.1875 10.765625,-0.390625 C11.125,-0.9375 11.421875,-1.28125 11.84375,-1.28125 C12.21875,-1.28125 12.453125,-1.015625 12.6875,-0.5 C12.734375,-0.40625 12.78125,-0.3125 12.8125,-0.1875 C12.859375,0.03125 12.890625,0.3125 12.890625,0.703125 C12.890625,0.890625 12.875,1.109375 12.875,1.375 C12.828125,1.921875 12.796875,2.578125 12.765625,3.453125 C12.734375,4.3125 12.71875,5.375 12.71875,6.828125 C13.015625,6.859375 13.484375,6.953125 13.953125,7.09375 C14.421875,7.21875 14.890625,7.375 15.21875,7.515625 C15.765625,7.75 16.21875,8.015625 16.421875,8.40625 C16.609375,8.796875 16.515625,9.21875 16.375,9.453125 C16.15625,9.828125 15.78125,10.125 15.4375,10.328125 L14.9375,9.96875 C15.359375,9.59375 15.453125,9.125 15.125,8.890625 C14.796875,8.65625 14.390625,8.453125 13.96875,8.296875 C13.53125,8.140625 13.078125,8.046875 12.6875,8.015625 L12.6875,13.8125 C13.25,13.953125 13.765625,14.09375 14.25,14.1875 C15.203125,14.375 16.265625,14.53125 16.578125,14.21875 C16.71875,14.046875 16.6875,13.859375 16.46875,13.625 C16.171875,13.3125 15.59375,12.9375 14.65625,12.53125 L15.03125,12.03125 C15.46875,12.15625 15.828125,12.25 16.109375,12.328125 C16.390625,12.40625 16.625,12.484375 16.8125,12.546875 C17.28125,12.734375 17.578125,12.921875 17.765625,13.125 C17.9375,13.3125 18,13.515625 18,13.703125 C18,14.046875 17.90625,14.375 17.46875,14.734375 C17.1875,14.984375 16.78125,15.15625 16.078125,15.234375 C15.546875,15.296875 14.703125,15.171875 13.671875,14.953125 C13.4375,14.90625 13.078125,14.84375 12.6875,14.734375 C12.734375,15.78125 12.78125,16.671875 12.875,17.234375 C12.921875,17.5625 12.96875,17.84375 12.9375,18.078125 C12.921875,18.296875 12.828125,18.46875 12.59375,18.640625 C12.1875,18.96875 11.375,19.3125 10.25,19.390625 Z M15.921875,3.71875 C16.203125,3.890625 16.53125,3.9375 16.921875,3.9375 C17.140625,3.9375 17.46875,3.828125 17.828125,3.640625 C18.171875,3.4375 18.5625,3.09375 18.890625,2.65625 C19.328125,2.09375 19.703125,1.4375 19.96875,0.734375 C20.1875,0.140625 20.703125,-0.03125 21.046875,0.09375 C21.4375,0.234375 21.609375,0.625 21.578125,1.0625 C21.546875,1.375 21.390625,1.875 21.03125,2.359375 C20.5625,2.953125 20.125,3.359375 19.515625,3.828125 C18.671875,4.4375 17.6875,4.71875 16.96875,4.671875 C16.515625,4.640625 16.109375,4.515625 15.625,4.25 Z M4.8125,3.78125 C4.484375,3.640625 4.296875,3.515625 4.09375,3.359375 C3.890625,3.1875 3.71875,3 3.484375,2.765625 C3.296875,2.578125 3.125,2.28125 3.015625,2 C2.90625,1.71875 2.84375,1.4375 2.84375,1.25 C2.84375,0.359375 3.125,0.0625 3.6875,-0.09375 C4.03125,-0.1875 4.484375,0.078125 5,0.359375 C5.65625,0.734375 6.46875,1.25 7.234375,1.765625 C8,2.265625 8.71875,2.765625 9.1875,3.140625 L9,3.671875 C8.5,3.34375 7.8125,2.96875 7.0625,2.640625 C6.328125,2.296875 5.5625,1.984375 4.96875,1.828125 C4.859375,1.796875 4.765625,1.78125 4.671875,1.765625 C4.484375,1.75 4.359375,1.8125 4.328125,1.953125 C4.296875,2.046875 4.3125,2.15625 4.34375,2.3125 C4.4375,2.6875 4.609375,3.046875 5,3.359375 Z" transform="translate(-0.2265625, 19.390625) scale(1, -1)"/>
</svg>