<svg height="21.34375" viewBox="0 0 24 21.34375" width="24" xmlns="http://www.w3.org/2000/svg">
<path d="M8.328125,19.375 C8.609375,18.890625 9.125,18.1875 10.109375,17.640625 C10.484375,17.421875 11.09375,17.25 11.6875,17.125 C12.28125,17 12.890625,16.921875 13.296875,16.921875 C13.96875,16.921875 14.421875,17.015625 14.6875,17.15625 C15,17.328125 15.140625,17.5 15.140625,17.84375 C15.140625,18.015625 15.03125,18.171875 14.890625,18.3125 C14.734375,18.4375 14.53125,18.5 14.375,18.5 C14.15625,18.5 13.8125,18.46875 13.34375,18.40625 C12.828125,18.359375 12.28125,18.359375 11.78125,18.40625 C11.28125,18.453125 10.828125,18.546875 10.53125,18.625 C10.171875,18.71875 9.90625,18.828125 9.625,19 C9.34375,19.15625 9.0625,19.390625 8.6875,19.71875 Z M7.96875,17 C7.78125,16.90625 7.53125,16.71875 7.34375,16.484375 C7.15625,16.234375 7.015625,15.96875 7.015625,15.734375 C7.015625,15.21875 7.125,14.9375 7.34375,14.734375 C7.71875,14.40625 8.328125,14.265625 9.09375,14.265625 C9.40625,14.265625 9.4375,14.140625 9.234375,14 C8.546875,13.484375 7.828125,12.921875 7.1875,12.40625 C6.53125,11.890625 5.953125,11.453125 5.5625,11.15625 C5.25,10.921875 4.96875,10.71875 4.625,10.578125 C4.3125,10.453125 4.078125,10.375 3.84375,10.328125 C3.484375,10.25 3.265625,10.109375 3.1875,9.71875 C3.125,9.4375 3.15625,8.984375 3.234375,8.609375 C3.3125,8.203125 3.734375,8.28125 4.203125,8.5625 C4.984375,9.078125 5.9375,9.65625 7.4375,10.34375 C8.296875,10.734375 9.4375,11.28125 10.75,11.703125 C12.0625,12.140625 13.53125,12.484375 15.125,12.484375 C16.203125,12.484375 17.15625,12.40625 18.140625,12.21875 C19.03125,12.03125 19.328125,11.84375 19.328125,11.40625 C19.328125,10.8125 18.3125,10.25 16.28125,9.71875 C16.03125,9.921875 15.78125,10.109375 15.390625,10.34375 C14.90625,10.640625 14.453125,10.875 13.921875,10.875 C13.265625,10.875 12.734375,10.46875 12.453125,9.625 C12.265625,9 12.1875,8.203125 12.1875,7.484375 C11.75,7.359375 11.203125,7.25 10.53125,7.203125 C9.921875,7.15625 9.390625,7.171875 9.140625,7.28125 C8.859375,7.40625 8.703125,7.5625 8.765625,7.8125 C8.84375,8.125 9.234375,8.375 9.734375,8.59375 L9.40625,8.9375 C9.078125,8.796875 8.609375,8.609375 8.1875,8.265625 C7.796875,7.953125 7.578125,7.625 7.578125,7.21875 C7.578125,6.921875 7.71875,6.640625 8.015625,6.4375 C8.328125,6.21875 8.796875,6.0625 9.53125,6.046875 C9.875,6.03125 10.390625,6.078125 10.90625,6.125 C11.421875,6.171875 11.921875,6.265625 12.234375,6.3125 L12.234375,5.59375 C11.859375,5.515625 11.421875,5.40625 10.984375,5.265625 C10.53125,5.125 10.078125,4.953125 9.6875,4.765625 C8.578125,4.234375 7.875,3.859375 7.453125,3.53125 C7.03125,3.203125 6.890625,2.90625 6.890625,2.5625 C6.890625,2.25 7.03125,1.859375 7.46875,1.625 C7.734375,1.484375 8,1.3125 8.265625,1.125 C8.515625,0.9375 8.75,0.78125 8.984375,0.625 C9.265625,0.421875 9.703125,0.109375 10.09375,-0.203125 C10.46875,-0.5 10.8125,-0.796875 10.953125,-0.9375 C11.46875,-1.46875 11.8125,-1.625 12.1875,-1.625 C12.453125,-1.625 12.71875,-1.4375 12.921875,-1.1875 C13.140625,-0.953125 13.296875,-0.640625 13.34375,-0.40625 C13.4375,-0.078125 13.453125,0.21875 13.390625,0.875 C13.359375,1.3125 13.34375,1.671875 13.34375,1.90625 C13.328125,2.15625 13.328125,2.34375 13.328125,2.46875 C13.609375,2.4375 13.96875,2.359375 14.328125,2.234375 C14.671875,2.09375 15.03125,1.9375 15.3125,1.78125 C15.9375,1.453125 16.484375,0.984375 16.953125,0.578125 C17.234375,0.3125 17.515625,0.125 17.796875,0.09375 C18.125,0.0625 18.40625,0.140625 18.4375,0.546875 C18.46875,1.0625 18.3125,1.390625 17.953125,1.71875 C17.359375,2.28125 16.671875,2.578125 15.78125,2.953125 C14.9375,3.3125 14.046875,3.5 13.328125,3.59375 L13.328125,3.984375 C13.609375,4.15625 13.921875,4.34375 14.203125,4.53125 C14.546875,4.765625 14.8125,5 14.8125,5.28125 C14.8125,5.53125 14.609375,5.703125 14.1875,5.765625 C13.90625,5.8125 13.65625,5.796875 13.421875,5.765625 L13.421875,6.546875 C14.1875,6.734375 15.03125,7.015625 15.734375,7.390625 C16.25,7.671875 16.5,8 16.65625,8.328125 C16.796875,8.65625 16.78125,8.984375 16.65625,9.171875 C17.3125,9.3125 17.78125,9.421875 18.203125,9.53125 C18.625,9.625 18.984375,9.734375 19.421875,9.875 C20.203125,10.109375 20.65625,10.34375 20.9375,10.59375 C21.203125,10.828125 21.265625,11.09375 21.265625,11.40625 C21.265625,11.65625 21.09375,11.90625 20.75,12.171875 C20.421875,12.40625 19.890625,12.640625 19.171875,12.84375 C18.421875,13.0625 17.234375,13.25 15.71875,13.25 C14.390625,13.25 12.828125,13.03125 11.3125,12.6875 C10.890625,12.59375 10.203125,12.40625 9.375,12.125 C8.5625,11.84375 7.59375,11.515625 6.6875,11.15625 C6.96875,11.359375 7.25,11.546875 7.546875,11.734375 C8.109375,12.109375 8.640625,12.4375 9.109375,12.71875 C9.328125,12.859375 9.53125,12.96875 9.6875,13.078125 L10.8125,13.75 C11.078125,13.90625 11.28125,14 11.421875,14.046875 C11.5625,14.09375 11.671875,14.140625 11.75,14.1875 C11.921875,14.28125 12.1875,14.40625 12.046875,14.765625 C11.984375,14.9375 11.84375,15.140625 11.609375,15.359375 C11.328125,15.640625 10.953125,15.65625 10.625,15.578125 C10.390625,15.515625 10.0625,15.46875 9.75,15.453125 C9.421875,15.421875 9.125,15.40625 8.9375,15.40625 C8.234375,15.40625 8.046875,15.5 8,15.984375 C7.953125,16.296875 8.109375,16.5 8.28125,16.671875 Z M13.421875,7.765625 C13.421875,8.515625 13.453125,9.21875 13.609375,9.6875 C13.78125,10.25 14.125,10.25 14.453125,10.125 C14.859375,9.96875 15.171875,9.640625 15.40625,9.359375 C15.640625,9.09375 15.6875,8.890625 15.609375,8.703125 C15.546875,8.53125 15.359375,8.390625 15.140625,8.28125 C14.921875,8.1875 14.625,8.0625 14.3125,7.96875 C14,7.875 13.671875,7.8125 13.421875,7.765625 Z M12.234375,4.25 C12.15625,4.1875 12.046875,4.109375 11.9375,4.0625 C11.6875,3.921875 11.34375,3.734375 11.109375,3.46875 C10.875,3.21875 10.953125,2.984375 11.125,2.828125 C11.203125,2.75 11.375,2.703125 11.609375,2.65625 L12.171875,2.59375 C12.15625,2.40625 12.15625,2.203125 12.140625,2 C12.125,1.578125 12.125,1.15625 12.125,0.78125 L12.125,0.265625 C12.125,0 12.03125,-0.109375 11.6875,0.046875 C11.265625,0.234375 10.640625,0.546875 10.046875,0.875 C9.453125,1.203125 8.890625,1.53125 8.5625,1.78125 C8.09375,2.15625 8.015625,2.546875 8.421875,3 C8.8125,3.4375 9.5,3.90625 10.203125,4.21875 C11.09375,4.609375 11.765625,4.8125 12.234375,4.953125 Z" transform="translate(-0.1953125, 19.71875) scale(1, -1)"/>
</svg>