<svg height="19.4375" viewBox="0 0 24 19.4375" width="24" xmlns="http://www.w3.org/2000/svg">
<path d="M9.890625,18.390625 C10.828125,18.140625 11.328125,17.796875 11.328125,17.3125 C11.328125,16.625 11.09375,15.625 10.609375,14.328125 C9.65625,14.296875 8.859375,14.375 8.1875,14.5625 C7.53125,14.734375 6.96875,14.984375 6.453125,15.265625 L6.09375,14.734375 C6.625,14.265625 7.203125,13.90625 7.859375,13.65625 C8.515625,13.40625 9.265625,13.25 10.15625,13.203125 C9.875,12.59375 9.484375,11.96875 9.109375,11.390625 C8.734375,10.8125 8.359375,10.296875 8.09375,9.96875 C7.953125,9.78125 7.859375,9.453125 7.90625,9.265625 C7.9375,9.09375 8.046875,8.84375 8.1875,8.6875 C8.46875,8.359375 8.890625,8.34375 9.734375,8.453125 L13.46875,8.9375 L13.5625,8.796875 C13.125,8.65625 12.46875,8.375 11.75,8.0625 C11.046875,7.734375 10.25,7.375 9.515625,7.015625 C8.796875,6.640625 8.140625,6.296875 7.671875,6.03125 C7.0625,5.65625 6.21875,5.125 5.453125,4.609375 C4.671875,4.078125 3.96875,3.5625 3.640625,3.265625 C3.09375,2.765625 2.6875,2.328125 2.40625,1.859375 C2.265625,1.625 2.15625,1.4375 2.09375,1.25 C2.046875,1.0625 2.015625,0.875 2.015625,0.625 C2.015625,0.3125 2.109375,0 2.40625,-0.265625 C2.546875,-0.40625 2.6875,-0.453125 2.890625,-0.390625 C3.078125,-0.328125 3.3125,-0.140625 3.640625,0.1875 C4.8125,1.34375 5.890625,2.078125 6.796875,2.515625 C7.703125,2.9375 8.421875,3.09375 8.890625,3.09375 C9.359375,3.09375 9.890625,2.8125 10.21875,2.40625 C10.703125,1.828125 11.234375,1.25 11.703125,0.71875 C11.8125,0.59375 11.9375,0.515625 12.03125,0.453125 C12.25,0.34375 12.4375,0.296875 12.609375,0.296875 L12.84375,0.296875 C12.96875,0.296875 13.140625,0.359375 13.328125,0.515625 C13.5,0.671875 13.703125,0.90625 13.90625,1.25 C14.28125,1.859375 14.578125,2.328125 14.875,2.703125 C15.15625,3.0625 15.421875,3.359375 15.71875,3.640625 C16.25,4.171875 16.609375,4.375 16.953125,4.375 C17.46875,4.375 17.984375,4.09375 18.53125,3.4375 C18.984375,2.890625 19.625,2.015625 20.234375,0.6875 C20.328125,0.453125 20.421875,0.265625 20.515625,0.109375 C20.65625,-0.1875 20.9375,-0.359375 21.21875,-0.359375 C21.375,-0.359375 21.515625,-0.3125 21.640625,-0.1875 C21.96875,0.078125 22.03125,0.359375 22.03125,0.6875 C22.03125,1.15625 21.828125,1.609375 21.40625,2.1875 C20.703125,3.171875 19.953125,3.921875 19.25,4.4375 C18.546875,4.9375 17.84375,5.203125 17.234375,5.203125 C16.953125,5.203125 16.6875,5.15625 16.390625,5.078125 C15.8125,4.90625 15.21875,4.578125 14.46875,3.796875 C14.09375,3.40625 13.671875,2.96875 13.203125,2.46875 L12.875,2.140625 C12.703125,1.984375 12.59375,1.953125 12.453125,2.046875 C12.375,2.09375 12.28125,2.171875 12.171875,2.28125 C11.046875,3.40625 10.078125,3.96875 9,3.96875 C7.75,3.96875 5.9375,3.390625 3.828125,1.90625 L3.6875,1.96875 C3.9375,2.3125 4.53125,2.859375 5.34375,3.484375 C6.171875,4.09375 7.203125,4.78125 8.40625,5.421875 C8.96875,5.71875 9.8125,6.125 10.703125,6.515625 C11.59375,6.921875 12.546875,7.296875 13.34375,7.609375 C14.125,7.90625 14.75,8.125 15,8.15625 C15.9375,8.28125 16.34375,8.59375 16.0625,9.21875 C15.96875,9.4375 15.6875,9.78125 15.40625,9.921875 C15.265625,9.96875 15.0625,10.0625 14.78125,10.09375 C14.484375,10.125 14.09375,10.125 13.578125,10.03125 C13.0625,9.9375 12.328125,9.828125 11.578125,9.75 C10.8125,9.65625 10.03125,9.609375 9.40625,9.625 L9.359375,9.796875 C9.921875,10.640625 10.71875,11.796875 11.46875,13.171875 C12.28125,13.1875 13.203125,13.3125 14.046875,13.484375 C14.875,13.640625 15.625,13.8125 16.125,14 C16.609375,14.140625 16.875,14.296875 17.03125,14.453125 C17.171875,14.59375 17.203125,14.75 17.203125,14.9375 C17.203125,15.21875 16.96875,15.546875 16.421875,15.546875 C16.015625,15.546875 15.640625,15.4375 15.21875,15.21875 C14.65625,14.9375 14.125,14.75 13.28125,14.59375 C12.84375,14.515625 12.4375,14.484375 12.09375,14.453125 C12.328125,14.96875 12.546875,15.5625 12.6875,16.109375 C12.84375,16.671875 12.9375,17.15625 12.9375,17.453125 C12.9375,17.859375 12.78125,18.234375 12.03125,18.546875 C11.453125,18.796875 10.984375,18.890625 10.25,18.984375 Z" transform="translate(-0.0234375, 18.984375) scale(1, -1)"/>
</svg>