<svg height="21.484375" viewBox="0 0 24 21.484375" width="24" xmlns="http://www.w3.org/2000/svg">
<path d="M10.71875,19.46875 C11.203125,19.34375 11.546875,19.125 11.75,18.84375 C12.125,18.28125 12.09375,17.640625 12.09375,17.09375 L12.09375,16.171875 C11.375,15.890625 10.734375,15.484375 10.03125,14.84375 C9.078125,13.984375 8.75,13.328125 8.796875,12.671875 C8.828125,11.921875 9.53125,11.234375 10.65625,10.703125 L8.046875,9.640625 C7.203125,9.296875 6.453125,8.984375 5.796875,8.703125 C5.390625,8.546875 5.15625,8.703125 5.09375,9.1875 C4.671875,11.890625 5.6875,14.140625 8.09375,15.96875 L7.671875,16.484375 C6.125,15.453125 5.046875,14.28125 4.375,12.96875 C3.890625,12.03125 3.5625,10.859375 3.625,9.34375 C3.65625,8.640625 3.8125,7.90625 4.03125,7.5625 C4.3125,7.125 4.671875,6.9375 5.109375,6.9375 C5.28125,6.9375 5.46875,6.984375 5.671875,7.078125 C6.078125,7.25 6.40625,7.4375 6.828125,7.6875 C7.03125,7.8125 7.3125,7.953125 7.671875,8.140625 C8.65625,8.640625 9.828125,9.21875 11.03125,9.78125 C11.625,10.0625 12.21875,10.34375 12.828125,10.640625 L16.140625,12.21875 C16.625,12.4375 17.0625,12.640625 17.453125,12.828125 C17.765625,12.96875 17.984375,13.015625 18.078125,12.96875 C18.1875,12.90625 18.265625,12.8125 18.296875,12.671875 C18.359375,12.390625 18.40625,12.125 18.359375,11.875 C18.296875,11.625 18.125,11.390625 17.796875,11.15625 C17.546875,11 17.234375,10.796875 16.890625,10.5625 L15.734375,9.8125 C14.921875,9.28125 14.03125,8.6875 13.265625,8.15625 C12.5,7.625 11.859375,7.15625 11.515625,6.84375 C11.15625,6.515625 10.953125,6.21875 11,5.859375 C11,5.640625 11.203125,5.453125 11.46875,5.3125 C11.75,5.171875 12.078125,5.046875 12.359375,5 C12.09375,4.84375 11.875,4.703125 11.703125,4.578125 C11.328125,4.328125 10.953125,4.125 10.953125,3.53125 C10.953125,3.296875 11.109375,3.078125 11.359375,2.890625 C11.59375,2.703125 11.78125,2.609375 12.046875,2.515625 C11.75,2.390625 11.359375,2.1875 10.984375,1.953125 C10.609375,1.703125 10.234375,1.421875 9.984375,1.171875 C9.53125,0.71875 9.390625,0.390625 9.390625,0 C9.390625,-0.515625 9.828125,-0.90625 10.703125,-1.171875 C11.59375,-1.4375 12.4375,-1.515625 13.421875,-1.515625 C14.5,-1.515625 15.265625,-1.453125 15.875,-1.328125 C16.34375,-1.21875 16.609375,-1.125 16.765625,-0.9375 C16.953125,-0.6875 16.859375,-0.359375 16.703125,-0.1875 C16.53125,0.015625 16.296875,0.125 16.015625,0.140625 C15.546875,0.1875 15.140625,0.171875 14.65625,0.046875 C13.96875,-0.125 13.484375,-0.171875 12.828125,-0.171875 C12.078125,-0.171875 11.421875,-0.125 10.71875,0.09375 C10.265625,0.25 10.359375,0.5 10.71875,0.78125 C10.96875,0.96875 11.375,1.1875 11.84375,1.390625 C12.3125,1.578125 12.8125,1.75 13.28125,1.875 C13.6875,1.984375 13.96875,2.09375 14.125,2.234375 C14.265625,2.359375 14.328125,2.515625 14.328125,2.65625 C14.328125,2.984375 14.15625,3.28125 13.65625,3.359375 C12.953125,3.46875 12.53125,3.609375 12.34375,3.734375 C12.03125,3.9375 12.09375,4.0625 12.40625,4.25 C12.5625,4.34375 12.8125,4.484375 13.0625,4.59375 C13.296875,4.71875 13.578125,4.828125 13.765625,4.875 C14.03125,4.953125 14.203125,5.15625 14.15625,5.375 C14.0625,5.8125 13.71875,5.9375 13.390625,5.984375 C12.984375,6.015625 12.5,6.09375 12.03125,6.34375 C14.40625,7.90625 16.4375,9.140625 18.484375,10.21875 C18.828125,10.40625 19.109375,10.59375 19.3125,10.765625 C19.71875,11.125 19.90625,11.46875 19.90625,11.8125 C19.90625,11.984375 19.859375,12.171875 19.8125,12.34375 C19.625,12.828125 19.296875,13.390625 18.921875,13.671875 C18.625,13.90625 18.171875,13.921875 17.375,13.5625 C16.296875,13.078125 14.6875,12.390625 12.890625,11.640625 C12.984375,11.984375 13.03125,12.359375 13.078125,12.78125 C13.421875,12.828125 13.625,12.953125 13.859375,13.125 C14.046875,13.28125 14.15625,13.515625 14.15625,13.65625 C14.15625,13.90625 14,14.0625 13.78125,14.0625 C13.578125,14.0625 13.34375,14.046875 13.03125,14.140625 C13.203125,14.546875 13.390625,14.953125 13.65625,15.40625 C13.875,15.796875 13.578125,16.109375 13.15625,16.328125 L13.15625,16.671875 C13.15625,16.765625 13.15625,16.875 13.171875,16.96875 C13.203125,17.1875 13.25,17.40625 13.296875,17.609375 L13.390625,18.171875 C13.53125,18.765625 13.34375,19.140625 12.734375,19.46875 C12.234375,19.734375 11.6875,19.90625 11.0625,19.96875 Z M12.09375,14.5 C11.90625,14.0625 11.84375,13.734375 11.84375,13.46875 C11.84375,13.296875 11.953125,13.1875 12.09375,13.0625 C12.078125,12.78125 12.0625,12.546875 12.03125,12.328125 C11.984375,11.890625 11.984375,10.953125 11.234375,11.3125 C10.71875,11.546875 10.328125,11.796875 9.9375,12.125 C9.59375,12.40625 9.625,12.84375 10.03125,13.328125 C10.578125,13.96875 11.40625,14.515625 12.09375,14.859375 Z" transform="translate(0.265625, 19.96875) scale(1, -1)"/>
</svg>