<svg height="18.828125" viewBox="0 0 24 18.828125" width="24" xmlns="http://www.w3.org/2000/svg">
<path d="M7.25,17.953125 C7.53125,17.15625 8,16.484375 8.3125,16.109375 C8.875,15.453125 9.375,15.453125 10.21875,15.96875 C10.921875,16.375 11.546875,16.703125 12.125,16.921875 C12.78125,17.171875 13.515625,17.28125 14.265625,17.28125 C15.140625,17.28125 15.5,16.625 15.625,15.09375 C15.6875,14.203125 15.734375,13.046875 15.75,11.796875 C15.75,10.53125 15.734375,9.171875 15.6875,7.953125 C14.5625,8.046875 13.109375,8.0625 11.890625,7.96875 C11.875,9.65625 11.59375,10.765625 11.140625,11.46875 C10.671875,12.171875 10.046875,12.453125 9.34375,12.453125 C8.78125,12.453125 8.09375,12.140625 7.578125,11.453125 C7.046875,10.75 6.640625,9.671875 6.640625,8.15625 C6.640625,7.703125 6.6875,7.25 6.796875,6.828125 C5.46875,6.25 4.46875,5.515625 3.796875,4.8125 C3.125,4.09375 2.796875,3.359375 2.796875,2.765625 C2.796875,2.171875 3.03125,1.6875 3.453125,1.34375 C3.875,0.984375 4.46875,0.78125 5.203125,0.78125 C5.84375,0.78125 6.53125,0.875 7.21875,1.109375 C7.90625,1.34375 8.578125,1.71875 9.1875,2.234375 C10.171875,1.109375 11.109375,0.4375 11.90625,0.03125 C12.6875,-0.40625 13.3125,-0.515625 13.65625,-0.5 C14.109375,-0.5 14.640625,-0.359375 15.125,0.046875 C15.625,0.453125 16.078125,1.109375 16.421875,2.1875 C16.5625,2.640625 16.703125,3.34375 16.8125,4.109375 C16.90625,4.890625 17,5.75 17.046875,6.5 C18.59375,6.234375 19.703125,5.859375 20.5,5.421875 C20.921875,5.203125 21.25,5.09375 21.5,5.078125 C21.96875,5.0625 22.296875,5.453125 21.9375,6.140625 C21.765625,6.453125 21.40625,6.734375 20.84375,6.96875 C19.90625,7.296875 18.78125,7.578125 17.109375,7.8125 C17.140625,8.9375 17.15625,10.234375 17.15625,11.484375 C17.15625,12.734375 17.125,13.953125 17.0625,14.984375 C16.984375,16.109375 16.75,16.90625 16.203125,17.46875 C15.8125,17.890625 15.0625,18.1875 14.265625,18.1875 C13.703125,18.1875 12.96875,18.09375 12.21875,17.953125 C11.46875,17.796875 10.71875,17.609375 10.15625,17.40625 C9.734375,17.265625 9.453125,17.1875 9.234375,17.203125 C9,17.21875 8.84375,17.3125 8.65625,17.453125 C8.421875,17.640625 8.15625,17.9375 7.828125,18.3125 Z M9.140625,11.515625 C9.546875,11.515625 9.859375,11.21875 10.078125,10.59375 C10.296875,9.96875 10.4375,9.0625 10.4375,7.828125 C9.359375,7.65625 8.40625,7.421875 7.5625,7.109375 C7.484375,7.421875 7.484375,7.8125 7.46875,8.234375 C7.4375,9.5 7.703125,10.328125 8.046875,10.828125 C8.375,11.328125 8.8125,11.515625 9.140625,11.515625 Z M11.8125,6.828125 C12.96875,6.90625 14.140625,6.875 15.640625,6.6875 C15.515625,4.8125 15.265625,3.296875 15,2.453125 C14.6875,1.421875 14.046875,0.828125 13.421875,0.828125 C13.125,0.828125 12.578125,0.96875 11.9375,1.296875 C11.28125,1.625 10.53125,2.125 9.84375,2.8125 C10.265625,3.265625 10.6875,3.828125 11.046875,4.484375 C11.390625,5.140625 11.671875,5.9375 11.8125,6.828125 Z M10.390625,6.6875 C10.296875,5.953125 10.140625,5.40625 9.921875,4.9375 C9.71875,4.453125 9.4375,4.0625 9.09375,3.640625 C8.5,4.484375 8.0625,5.203125 7.828125,6.046875 C8.09375,6.171875 8.375,6.265625 8.609375,6.34375 C9.109375,6.484375 9.53125,6.5625 9.90625,6.609375 C10.078125,6.640625 10.25,6.65625 10.390625,6.6875 Z M7.0625,5.734375 C7.390625,4.765625 7.875,3.875 8.5,3.046875 C7.515625,2.109375 6.40625,1.578125 5.234375,1.578125 C4.109375,1.578125 3.59375,2.015625 3.828125,2.90625 C3.96875,3.46875 4.40625,4.015625 5,4.5 C5.578125,4.984375 6.3125,5.40625 7.0625,5.734375 Z" transform="translate(-0.546875, 18.3125) scale(1, -1)"/>
</svg>