<svg height="20.171875" viewBox="0 0 24 20.171875" width="24" xmlns="http://www.w3.org/2000/svg">
<path d="M6.625,19.078125 C6.625,18.453125 6.734375,17.9375 6.921875,17.546875 C7.140625,17.046875 7.390625,16.6875 7.609375,16.46875 C7.34375,16.171875 6.84375,15.671875 6.34375,15.1875 L6.78125,14.859375 C7.046875,15.09375 7.390625,15.375 7.71875,15.59375 C8.046875,15.796875 8.34375,15.921875 8.5625,15.921875 C8.859375,15.875 9.203125,15.90625 9.4375,16.015625 C9.671875,16.109375 9.828125,16.328125 9.78125,16.65625 C9.71875,17.046875 9.546875,17.328125 9.171875,17.421875 C8.5,17.609375 8.046875,17.84375 7.78125,18.125 C7.4375,18.484375 7.1875,18.828125 7.0625,19.34375 Z M13.921875,18.21875 C14.125,18.171875 14.3125,18.109375 14.484375,18 C14.828125,17.796875 15.03125,17.65625 15.078125,17.296875 C15.09375,17.125 15.03125,16.84375 14.890625,16.46875 C14.75,16.109375 14.484375,15.46875 14.171875,14.8125 C13.859375,14.140625 13.46875,13.4375 13.078125,12.9375 C12.78125,12.546875 12.625,12.125 12.625,11.859375 C12.625,11.5625 12.6875,11.234375 12.796875,11.046875 C12.96875,10.703125 13.328125,10.796875 13.765625,11.1875 C14.09375,11.46875 14.5,11.71875 14.921875,11.953125 C15.328125,12.171875 15.734375,12.359375 16.0625,12.5 C16.015625,12.03125 16.015625,11.640625 16.015625,11.15625 L16.015625,10.34375 C16.015625,10.015625 16.015625,9.640625 16.015625,9.21875 C16,8.5625 15.984375,7.6875 15.984375,6.734375 C15.96875,5.796875 15.984375,4.765625 16,3.84375 C16,2.9375 16.015625,2.125 16.0625,1.609375 C15.609375,1.765625 15.171875,1.96875 14.703125,2.234375 C14.25,2.46875 13.828125,2.703125 13.4375,2.9375 L13.125,2.453125 C14.0625,1.796875 14.84375,1.203125 15.3125,0.71875 C15.5,0.546875 15.671875,0.359375 15.828125,-0.21875 C15.953125,-0.6875 16.25,-0.828125 16.484375,-0.828125 C16.71875,-0.828125 17.046875,-0.578125 17.234375,-0.21875 C17.421875,0.21875 17.421875,0.828125 17.375,1.484375 C17.203125,3.921875 17.234375,7.1875 17.234375,11.140625 C17.234375,11.515625 17.28125,11.90625 17.375,12.234375 C17.453125,12.546875 17.53125,12.78125 17.609375,12.921875 C17.84375,13.28125 17.765625,13.625 17.265625,13.90625 C16.90625,14.09375 16.625,14.140625 16.078125,13.671875 C15.84375,13.484375 15.5,13.3125 15.125,13.140625 C14.75,12.953125 14.34375,12.78125 13.96875,12.640625 C15.046875,14.109375 15.84375,15.390625 16.4375,16.765625 C16.734375,17.421875 16.5625,17.75 16.03125,18.09375 C15.75,18.265625 15.40625,18.40625 15.078125,18.515625 C14.734375,18.625 14.40625,18.6875 14.203125,18.71875 Z M7.859375,12.78125 C7.515625,12.90625 7.375,12.84375 7.0625,12.640625 C6.8125,12.5 6.4375,12.3125 6.03125,12.140625 C5.640625,11.984375 5.234375,11.828125 4.90625,11.734375 C4.109375,11.515625 3.625,11.640625 3.296875,12.390625 L2.84375,11.984375 C2.890625,11.75 2.984375,11.4375 3.09375,11.140625 C3.21875,10.859375 3.359375,10.578125 3.578125,10.34375 C3.875,10.0625 4.15625,10.03125 4.828125,10.4375 L5.5,10.84375 C5.71875,10.96875 5.9375,11.09375 6.171875,11.21875 C6.59375,11.453125 6.984375,11.65625 7.21875,11.765625 C7.21875,11.59375 7.21875,11.40625 7.203125,11.234375 C7.203125,11.046875 7.203125,10.859375 7.203125,10.65625 C6.640625,9.59375 6.015625,8.46875 5.453125,7.484375 C4.875,6.5 4.34375,5.6875 4.03125,5.265625 C3.5,4.546875 3.203125,4.109375 2.765625,3.78125 C2.515625,3.578125 2.46875,3.34375 2.5,3.046875 C2.53125,2.640625 2.671875,2.21875 2.859375,1.859375 C2.984375,1.609375 3.4375,1.609375 3.78125,1.953125 C3.96875,2.140625 4.140625,2.328125 4.296875,2.484375 C4.46875,2.640625 4.65625,2.828125 4.875,3.046875 L5.015625,3.1875 C5.515625,2.515625 5.890625,1.984375 6.171875,1.484375 C6.4375,1 6.59375,0.5625 6.671875,0.09375 C6.71875,-0.171875 6.796875,-0.484375 7.03125,-0.578125 C7.203125,-0.65625 7.40625,-0.625 7.578125,-0.53125 C7.875,-0.359375 8.125,0.078125 8.203125,0.40625 C8.28125,0.796875 8.3125,1.25 8.265625,1.859375 C8.109375,3.640625 8.078125,5.28125 8.109375,6.6875 C8.6875,7.390625 9.265625,8.109375 9.796875,8.796875 C10.3125,9.46875 10.8125,10.109375 11.1875,10.671875 L10.765625,11.203125 C10.015625,10.21875 9.09375,9.140625 8.15625,8.0625 C8.1875,8.984375 8.234375,9.71875 8.296875,10.265625 C8.359375,10.8125 8.421875,11.203125 8.515625,11.46875 C8.65625,11.8125 8.75,12.078125 8.515625,12.34375 C8.375,12.515625 8.140625,12.671875 7.859375,12.78125 Z M7.15625,9 C7.15625,8.640625 7.15625,8.28125 7.140625,7.953125 C7.125,7.59375 7.125,7.25 7.125,6.890625 C5.953125,5.625 4.90625,4.546875 4.0625,3.890625 C5.234375,5.640625 6.296875,7.296875 7.15625,9 Z M18.296875,7.03125 C18.828125,6.90625 19.265625,6.6875 19.671875,6.3125 C19.859375,6.140625 20.046875,5.90625 20.21875,5.65625 C20.375,5.390625 20.515625,5.125 20.59375,4.90625 C20.78125,4.390625 20.84375,3.828125 20.890625,3.4375 C20.890625,3.203125 21.03125,3.0625 21.171875,2.96875 C21.3125,2.875 21.5,2.84375 21.59375,2.84375 C22.03125,2.84375 22.34375,3.21875 22.34375,3.96875 C22.34375,4.484375 22.203125,5 22.015625,5.375 C21.640625,6.09375 21.296875,6.53125 20.796875,6.875 C20.1875,7.25 19.515625,7.5 18.484375,7.53125 Z M11.515625,6.671875 C11.296875,6.5 11.09375,6.234375 10.90625,5.96875 C10.71875,5.6875 10.546875,5.40625 10.4375,5.1875 C10.25,4.8125 10.125,4.328125 10.125,3.96875 C10.125,3.59375 10.203125,3.140625 10.375,2.859375 C10.59375,2.5 10.78125,2.3125 11.15625,2.3125 C11.453125,2.3125 11.6875,2.46875 11.859375,2.765625 C12.03125,3.078125 12.234375,3.265625 12.546875,3.578125 C12.671875,3.6875 12.828125,3.84375 13.015625,4.046875 L13.640625,4.6875 C14.09375,5.140625 14.609375,5.65625 15.125,6.125 L14.8125,6.625 C14.3125,6.203125 13.71875,5.734375 13.125,5.3125 C12.546875,4.890625 11.953125,4.515625 11.515625,4.28125 C11.375,4.46875 11.34375,4.75 11.375,5.015625 C11.421875,5.5 11.65625,5.953125 11.9375,6.390625 Z M7.109375,5.515625 C7.109375,3.96875 7.09375,2.640625 7.0625,1.703125 L5.421875,3.625 C5.671875,3.875 5.9375,4.15625 6.21875,4.484375 Z" transform="translate(-0.40625, 19.34375) scale(1, -1)"/>
</svg>