<svg height="18.40625" viewBox="0 0 24 18.40625" width="24" xmlns="http://www.w3.org/2000/svg">
<path d="M12.296875,17.84375 C11.84375,17.546875 11,17.171875 9.875,16.953125 C9.359375,16.859375 8.875,16.78125 8.421875,16.75 C7.953125,16.71875 7.53125,16.71875 7.25,16.78125 C6.59375,16.90625 6.078125,17.109375 5.859375,17.46875 L5.46875,17.09375 C5.703125,16.625 5.953125,16.328125 6.34375,16.03125 C6.546875,15.875 6.828125,15.765625 7.15625,15.6875 C7.46875,15.59375 7.796875,15.546875 8.109375,15.546875 C9.1875,15.546875 10.390625,15.796875 11.5625,16.328125 C10.953125,15.6875 10.59375,15.265625 10.375,14.703125 C10.0625,13.953125 9.96875,12.671875 9.96875,11.15625 C9.96875,10.859375 9.96875,10.484375 9.96875,10.0625 C9.96875,9.640625 9.96875,9.171875 9.984375,8.671875 C9.984375,8.171875 9.984375,7.625 10,7.078125 C10.015625,6.515625 10.015625,5.953125 10.015625,5.375 C10.015625,4.8125 10.015625,4.25 10.03125,3.671875 L10.03125,2.046875 C9.734375,2.1875 9.21875,2.4375 8.671875,2.734375 C8.109375,3.015625 7.515625,3.328125 7.0625,3.59375 L6.828125,3.078125 C7.53125,2.59375 8.1875,2.1875 8.640625,1.71875 C8.84375,1.53125 9.078125,1.25 9.265625,0.984375 C9.453125,0.71875 9.609375,0.4375 9.6875,0.234375 C9.84375,-0.1875 10.015625,-0.390625 10.328125,-0.390625 C10.640625,-0.390625 11.03125,-0.140625 11.203125,0.296875 C11.359375,0.65625 11.375,1.171875 11.328125,2.0625 C11.28125,3.703125 11.234375,5.578125 11.234375,7.46875 C11.234375,9.359375 11.234375,11.25 11.265625,12.9375 C11.28125,13.734375 11.40625,14.28125 11.5625,14.703125 C11.703125,15.109375 11.890625,15.359375 12.03125,15.53125 C12.4375,16.015625 12.71875,16.265625 13.125,16.4375 C13.484375,16.59375 13.796875,16.671875 13.921875,17 C14.03125,17.265625 14.046875,17.46875 13.65625,17.765625 C13.515625,17.875 13.28125,17.96875 13.03125,17.984375 C12.78125,18.015625 12.515625,17.984375 12.296875,17.84375 Z M13.21875,9.4375 C13.484375,9.625 13.71875,9.671875 14,9.671875 C14.265625,9.671875 14.5,9.546875 14.640625,9.046875 C14.6875,8.875 14.75,8.625 14.796875,8.359375 C14.84375,8.09375 14.875,7.8125 14.90625,7.578125 C14.984375,7.015625 15.3125,6.71875 15.578125,6.671875 C15.890625,6.625 16.09375,6.765625 16.21875,6.984375 C16.328125,7.15625 16.34375,7.265625 16.421875,7.5625 C16.46875,7.765625 16.671875,8.03125 16.953125,8.296875 C17.234375,8.5625 17.609375,8.828125 18.03125,9.03125 C18.359375,9.203125 18.765625,9.359375 19.171875,9.359375 C19.71875,9.359375 20.109375,8.859375 20.109375,7.78125 C20.109375,6.9375 19.828125,6.265625 19.078125,5.46875 C18.5625,4.921875 17.96875,4.453125 17.359375,4.03125 C16.734375,3.609375 16.109375,3.265625 15.53125,2.984375 L15.921875,2.453125 C16.484375,2.65625 17.140625,2.984375 17.84375,3.375 C18.546875,3.78125 19.25,4.25 19.921875,4.765625 C21.140625,5.703125 21.78125,6.828125 21.78125,7.859375 C21.78125,8.703125 21.578125,9.21875 21.125,9.625 C20.703125,9.984375 20.203125,10.21875 19.625,10.21875 C19.265625,10.21875 18.78125,10.15625 18.21875,9.96875 C17.890625,9.859375 17.515625,9.6875 17.140625,9.515625 C16.765625,9.34375 16.4375,9.171875 16.203125,9.046875 C16.140625,9.25 16.015625,9.5 15.890625,9.703125 C15.765625,9.921875 15.640625,10.09375 15.5,10.203125 C15.21875,10.4375 14.984375,10.65625 14.40625,10.65625 C14.203125,10.65625 13.921875,10.5625 13.65625,10.421875 C13.390625,10.28125 13.140625,10.078125 12.96875,9.84375 Z M3.875,8.375 C3.59375,8.203125 3.234375,7.859375 3.046875,7.625 C2.734375,7.25 2.453125,6.53125 2.453125,5.765625 C2.453125,5.21875 2.5625,4.765625 2.734375,4.484375 C2.9375,4.171875 3.234375,3.9375 3.6875,3.890625 C3.984375,3.859375 4.5,4.125 5.15625,4.703125 L5.9375,5.390625 C6.234375,5.65625 6.515625,5.90625 6.8125,6.171875 C7.390625,6.6875 7.9375,7.203125 8.234375,7.53125 L8.015625,8.09375 C7.796875,7.921875 7.578125,7.765625 7.359375,7.609375 C6.921875,7.296875 6.5,7.015625 6.171875,6.796875 C6,6.6875 5.875,6.59375 5.765625,6.53125 C5.109375,6.09375 4.625,5.921875 4.296875,5.8125 C3.921875,5.6875 3.75,5.8125 3.71875,6.296875 C3.71875,6.5 3.75,6.78125 3.828125,7.09375 C3.921875,7.40625 4.046875,7.734375 4.21875,8.015625 Z" transform="translate(-0.1171875, 18.015625) scale(1, -1)"/>
</svg>