<svg height="18.984375" viewBox="0 0 24 18.984375" width="24" xmlns="http://www.w3.org/2000/svg">
<path d="M10.953125,17.9375 C10.4375,18.03125 9.78125,17.8125 9.265625,17.328125 L9.5,16.96875 C9.796875,17.140625 10.046875,17.21875 10.25,17.1875 C10.65625,17.109375 10.671875,16.4375 10.75,15.875 C10.78125,15.609375 10.84375,15.390625 10.921875,15.21875 C11.1875,14.65625 11.703125,14.46875 12.359375,15.078125 C12.65625,15.359375 13.265625,15.734375 13.890625,16.09375 C14.5,16.4375 15.140625,16.765625 15.53125,16.90625 C16.328125,17.1875 16.703125,17.140625 16.78125,16.609375 C16.828125,16.296875 16.609375,16.015625 16.203125,15.6875 C15.59375,15.234375 14.8125,14.640625 13.921875,13.96875 C13.03125,13.296875 12.03125,12.546875 11.09375,11.796875 C10.4375,11.28125 9.6875,10.6875 8.953125,10.140625 C8.234375,9.59375 7.53125,9.09375 7.03125,8.765625 C6.546875,8.453125 6.296875,8.375 5.984375,8.28125 C5.640625,8.203125 5.390625,8 5.265625,7.703125 C5.140625,7.390625 5.046875,6.96875 5.046875,6.578125 C5.046875,6.328125 5.171875,6.21875 5.359375,6.203125 C5.53125,6.1875 5.765625,6.28125 6,6.453125 C7.21875,7.390625 8.609375,8.203125 10,8.8125 C11.375,9.40625 12.734375,9.78125 13.953125,9.78125 C15.0625,9.78125 16,9.328125 16.65625,8.59375 C17.3125,7.859375 17.6875,6.8125 17.6875,5.640625 C17.6875,5.0625 17.609375,4.53125 17.46875,4.03125 C16.390625,4.46875 14.984375,4.953125 13.328125,5.1875 C13.359375,6.03125 13.21875,6.734375 12.890625,7.21875 C12.5625,7.703125 12.03125,7.96875 11.265625,7.96875 C10.578125,7.96875 9.84375,7.625 9.234375,7.078125 C8.609375,6.53125 8.125,5.75 7.90625,4.90625 C6.734375,4.53125 5.765625,3.984375 5.09375,3.375 C4.40625,2.765625 4.015625,2.09375 4.015625,1.46875 C4.015625,0.8125 4.28125,0.265625 4.765625,-0.09375 C5.234375,-0.46875 5.90625,-0.671875 6.734375,-0.671875 C7.828125,-0.671875 8.796875,-0.40625 9.640625,0.03125 C10.484375,-0.546875 11.46875,-0.875 12.59375,-0.921875 C13.828125,-0.953125 14.96875,-0.640625 15.953125,-0.078125 C16.921875,0.484375 17.703125,1.28125 18.265625,2.234375 C18.796875,1.90625 19.375,1.453125 19.890625,1.03125 C20.390625,0.609375 20.796875,0.1875 21.03125,-0.09375 C21.21875,-0.359375 21.46875,-0.4375 21.671875,-0.390625 C21.875,-0.34375 22.046875,-0.171875 22.125,0.046875 C22.296875,0.5 22.0625,1.015625 21.546875,1.484375 C21.09375,1.921875 20.125,2.609375 18.796875,3.359375 C19.03125,4.0625 19.15625,4.78125 19.15625,5.546875 C19.15625,7 18.6875,8.265625 17.84375,9.15625 C16.984375,10.046875 15.6875,10.578125 14.046875,10.578125 C12.578125,10.578125 10.953125,10.140625 9.4375,9.578125 C9.8125,9.84375 10.171875,10.109375 10.53125,10.390625 C10.875,10.640625 11.21875,10.890625 11.546875,11.109375 C12.59375,11.84375 13.84375,12.703125 14.984375,13.453125 C16.109375,14.203125 17.109375,14.875 17.703125,15.234375 C18.359375,15.640625 18.734375,16.109375 18.453125,16.765625 C18.09375,17.609375 17.640625,17.8125 17.015625,17.8125 C16.484375,17.8125 15.875,17.671875 15.125,17.453125 C14.875,17.375 14.390625,17.21875 13.921875,17.03125 C13.4375,16.84375 12.953125,16.640625 12.671875,16.46875 C12.40625,16.3125 12.21875,16.328125 12.140625,16.515625 C12.09375,16.640625 12.046875,16.765625 12,16.859375 C11.9375,16.96875 11.890625,17.109375 11.8125,17.265625 C11.671875,17.5 11.375,17.84375 10.953125,17.9375 Z M4.65625,16.96875 C4.4375,16.296875 4.265625,15.640625 4.390625,14.984375 C4.53125,14.234375 4.84375,13.71875 5.5,13.71875 C5.75,13.71875 6.046875,13.90625 6.421875,14.28125 C6.796875,14.65625 7.25,15.21875 7.859375,16.0625 L7.53125,16.375 C7.203125,16.0625 6.765625,15.78125 6.484375,15.625 C5.890625,15.3125 5.671875,15.359375 5.46875,15.625 C5.25,15.921875 5.125,16.34375 5.15625,17.046875 Z M11.0625,7.125 C11.390625,7.125 11.609375,7.015625 11.75,6.75 C11.890625,6.46875 11.9375,6.015625 11.9375,5.3125 C11.640625,5.359375 11.359375,5.359375 11.046875,5.359375 C10.25,5.359375 9.5,5.265625 8.796875,5.109375 C8.96875,5.671875 9.296875,6.171875 9.71875,6.546875 C10.125,6.90625 10.609375,7.125 11.0625,7.125 Z M11.046875,4.375 C11.171875,4.375 11.3125,4.375 11.4375,4.359375 C11.5625,4.34375 11.703125,4.34375 11.84375,4.34375 C11.546875,3.078125 10.765625,2 9.734375,1.203125 C9.078125,1.90625 8.703125,2.890625 8.65625,4.109375 C9.40625,4.28125 10.203125,4.375 11.046875,4.375 Z M13.125,4.15625 C14.5,3.875 15.84375,3.390625 17.015625,2.859375 C16.78125,2.421875 16.5,2.03125 16.171875,1.671875 C15.5,0.96875 14.6875,0.46875 13.75,0.234375 C12.8125,0 11.53125,0.0625 10.53125,0.578125 C11.1875,1.046875 11.765625,1.625 12.203125,2.234375 C12.640625,2.859375 12.953125,3.5 13.125,4.15625 Z M7.78125,3.84375 C7.8125,2.515625 8.234375,1.46875 8.9375,0.671875 C8.234375,0.3125 7.484375,0.09375 6.734375,0.09375 C6.21875,0.09375 5.734375,0.1875 5.390625,0.40625 C5.046875,0.640625 4.828125,0.96875 4.828125,1.4375 C4.828125,1.828125 5.109375,2.28125 5.625,2.703125 C6.140625,3.125 6.875,3.53125 7.78125,3.84375 Z" transform="translate(-1.15625, 18.03125) scale(1, -1)"/>
</svg>