<svg height="21.21875" viewBox="0 0 24 21.21875" width="24" xmlns="http://www.w3.org/2000/svg">
<path d="M7.390625,19.203125 C8.609375,18.5 8.859375,17.609375 7.828125,16.71875 C7.390625,16.34375 7.171875,15.96875 7.109375,15.578125 C7.03125,15.171875 7.109375,14.75 7.28125,14.265625 L7.375,14 L6.9375,13.71875 C6.78125,13.625 6.640625,13.53125 6.546875,13.46875 C5.1875,12.4375 4.390625,11.65625 4.03125,11.234375 C3.8125,10.953125 3.703125,10.703125 3.65625,10.453125 C3.609375,10.203125 3.640625,9.984375 3.640625,9.796875 C3.6875,9.1875 3.9375,8.203125 4.421875,7.03125 C3.9375,6.3125 3.5,5.75 3.1875,5.46875 C2.96875,5.28125 2.828125,5.140625 2.75,4.90625 C2.65625,4.671875 2.609375,4.34375 2.609375,3.796875 C2.609375,3.4375 2.796875,3.046875 3.078125,2.90625 C3.359375,2.765625 3.671875,3.03125 4.03125,3.578125 C4.390625,4.125 4.828125,4.671875 5.28125,5.234375 C5.65625,4.484375 6.015625,3.71875 6.3125,2.984375 C6.625,2.234375 6.859375,1.578125 6.984375,1.0625 C7.09375,0.640625 7.21875,0.328125 7.390625,0.109375 C7.53125,-0.125 7.703125,-0.234375 7.859375,-0.234375 C8.234375,-0.234375 8.515625,0.09375 8.703125,0.515625 C8.890625,0.9375 8.984375,1.46875 9.03125,1.859375 C9.125,2.75 9.203125,3.875 9.21875,5.09375 C9.21875,6.296875 9.171875,7.578125 9.078125,8.84375 C10.015625,9.59375 10.890625,10.21875 11.640625,10.671875 C13.671875,11.90625 15.5,12.53125 17.109375,12.53125 C17.796875,12.53125 18.515625,12.296875 19.0625,11.75 C19.625,11.21875 20,10.34375 20,9.125 C20,8.328125 19.90625,7.671875 19.6875,6.9375 C19.46875,6.21875 19.078125,5.421875 18.5,4.46875 C17.46875,2.765625 15.671875,0.953125 12.9375,-1.015625 L13.375,-1.5625 C16.375,0.21875 18.375,1.890625 19.671875,3.71875 C20.34375,4.65625 20.828125,5.46875 21.125,6.34375 C21.4375,7.203125 21.578125,8.09375 21.578125,9.21875 C21.578125,10.5625 21.046875,11.609375 20.25,12.3125 C19.4375,13.015625 18.34375,13.390625 17.1875,13.390625 C16.328125,13.390625 15,13.25 13.578125,12.671875 C12.828125,12.359375 12.109375,12.03125 11.359375,11.625 C10.609375,11.21875 9.828125,10.734375 8.984375,10.078125 C8.890625,11.109375 8.796875,12 8.65625,12.546875 C8.90625,12.9375 9.078125,13.203125 9.078125,13.5625 C9.078125,13.75 8.953125,13.90625 8.796875,14.015625 C8.65625,14.125 8.4375,14.1875 8.265625,14.1875 L8.09375,14.6875 C7.9375,15.125 7.890625,15.40625 7.953125,15.640625 C8,15.875 8.140625,16.046875 8.421875,16.25 C8.75,16.484375 9.09375,16.625 9.484375,16.8125 C9.9375,17 10.125,17.15625 10.125,17.65625 C10.125,18.03125 9.828125,18.40625 9.40625,18.78125 C8.984375,19.140625 8.375,19.453125 7.8125,19.65625 Z M7.65625,12.671875 C6.9375,11.203125 6,9.453125 5.015625,7.953125 C4.84375,8.546875 4.71875,9.078125 4.671875,9.5 C4.625,10.171875 5,10.859375 5.5,11.46875 C6.015625,12.09375 6.671875,12.8125 7.5625,13.21875 Z M7.875,11.265625 C7.921875,10.609375 7.953125,10 8,9.34375 C7.015625,8.546875 6.21875,7.84375 5.359375,6.96875 L5.28125,7.109375 L5.84375,8.015625 C6.046875,8.359375 6.265625,8.703125 6.5,9.078125 L7.203125,10.203125 C7.4375,10.578125 7.65625,10.921875 7.875,11.265625 Z M8.046875,7.96875 C8.046875,6.921875 8.03125,5.875 7.984375,4.875 C7.9375,3.875 7.859375,2.953125 7.765625,2.15625 C7.0625,3.3125 6.4375,4.375 5.8125,5.8125 C6.515625,6.578125 7.28125,7.296875 8.046875,7.96875 Z" transform="translate(-0.09375, 19.65625) scale(1, -1)"/>
</svg>