<svg height="20.390625" viewBox="0 0 24 20.390625" width="24" xmlns="http://www.w3.org/2000/svg">
<path d="M8.46875,18.828125 C9.40625,18.546875 9.515625,18.1875 9.265625,17.640625 C9.125,17.296875 8.8125,16.859375 8.453125,16.359375 C8.078125,15.875 7.640625,15.34375 7.21875,14.890625 C6.796875,14.421875 6.390625,14 6.078125,13.765625 C5.65625,13.4375 5.46875,13.328125 5.40625,13.03125 C5.359375,12.8125 5.390625,12.484375 5.546875,12.1875 C5.71875,11.859375 5.9375,11.65625 6.4375,11.90625 L8,12.6875 C8.5625,12.953125 9.125,13.234375 9.734375,13.5 C10.953125,14.046875 12.265625,14.59375 13.71875,15.046875 C13.203125,14.703125 12.703125,14.28125 12.296875,13.765625 C12.140625,13.5625 11.9375,13.265625 11.796875,12.859375 C11.640625,12.453125 11.515625,11.9375 11.515625,11.28125 L11.515625,10.65625 C10.859375,10.453125 9.875,10.015625 8.9375,9.46875 C7.984375,8.921875 7.015625,8.234375 6.359375,7.53125 C5.703125,6.84375 5.453125,6.453125 5.453125,5.890625 C5.453125,5.46875 5.5625,5.046875 6.125,4.609375 C6.875,4.03125 7.671875,3.375 8.421875,2.734375 C9.15625,2.09375 9.796875,1.484375 10.21875,1.015625 C10.46875,0.734375 10.671875,0.515625 10.8125,0.296875 C10.96875,0.0625 11.09375,-0.1875 11.234375,-0.53125 C11.40625,-0.984375 11.59375,-1.109375 11.859375,-1.109375 C12.171875,-1.109375 12.625,-0.8125 12.796875,-0.4375 C12.953125,-0.125 12.9375,0.4375 12.890625,1.328125 C12.84375,2.046875 12.796875,2.984375 12.796875,3.875 C13,3.859375 13.21875,3.84375 13.453125,3.84375 C13.90625,3.828125 14.375,3.84375 14.8125,3.859375 C15.234375,3.875 15.609375,3.90625 16.046875,3.96875 C16.484375,4.015625 16.828125,4.109375 16.921875,4.359375 C17.015625,4.609375 16.984375,4.8125 16.859375,4.984375 C16.75,5.15625 16.5,5.28125 16.25,5.28125 C16.109375,5.28125 15.9375,5.265625 15.71875,5.234375 C15.25,5.140625 14.6875,5.09375 14.171875,5.078125 C13.640625,5.046875 13.140625,5.046875 12.78125,5.09375 C12.78125,5.359375 12.78125,5.640625 12.78125,5.9375 L12.78125,6.828125 C12.78125,7.4375 12.78125,8.046875 12.796875,8.609375 C12.890625,8.75 12.984375,8.875 13.078125,9.015625 C13.265625,9.28125 13.53125,9.75 13.53125,10.140625 C13.53125,10.328125 13.484375,10.46875 13.390625,10.5625 C13.296875,10.6875 12.984375,10.859375 12.796875,10.90625 L12.796875,11.375 C12.796875,11.953125 12.828125,12.359375 12.875,12.671875 C12.9375,12.984375 13.046875,13.21875 13.21875,13.484375 C13.46875,13.859375 13.8125,14.1875 14.234375,14.4375 C14.640625,14.6875 15.078125,14.875 15.5,15 C15.9375,15.125 16.34375,15.234375 16.5625,15.34375 C16.78125,15.4375 16.921875,15.671875 16.921875,15.875 C16.921875,16.234375 16.671875,16.421875 16.015625,16.5625 C15.78125,16.609375 15.625,16.625 15.40625,16.609375 C15.203125,16.578125 14.953125,16.5 14.609375,16.390625 C14.28125,16.296875 13.734375,16.109375 13.125,15.875 C12.515625,15.640625 11.828125,15.375 11.203125,15.09375 C10.609375,14.828125 9.953125,14.578125 9.296875,14.359375 C8.640625,14.125 8,13.90625 7.46875,13.765625 C7.890625,14.1875 8.484375,14.78125 9.046875,15.359375 C9.609375,15.921875 10.15625,16.484375 10.46875,16.8125 C11.015625,17.375 11.140625,17.703125 11.1875,18.03125 C11.21875,18.390625 10.921875,18.6875 10.515625,18.875 C10.109375,19.046875 9.6875,19.15625 8.84375,19.28125 Z M11.59375,1.296875 C10.96875,1.828125 10.09375,2.515625 9.21875,3.171875 C8.359375,3.8125 7.484375,4.421875 6.96875,4.78125 C6.453125,5.109375 6.3125,5.46875 6.3125,5.90625 C6.3125,6.40625 6.578125,6.734375 7.125,7.203125 C7.828125,7.765625 8.6875,8.3125 9.484375,8.734375 C10.28125,9.140625 11.015625,9.421875 11.515625,9.5 L11.515625,9 C11.328125,8.625 10.96875,8.171875 10.59375,7.71875 C10.203125,7.28125 9.78125,6.84375 9.359375,6.53125 C8.84375,6.125 8.703125,5.75 8.890625,5.375 C9.03125,5.0625 9.328125,4.6875 9.6875,4.484375 C10.125,4.25 10.859375,3.96875 11.515625,3.9375 Z M11.515625,5.140625 C11.015625,5.171875 10.515625,5.25 10.171875,5.375 C9.59375,5.609375 9.578125,6 10.0625,6.359375 C10.328125,6.5625 10.625,6.8125 10.890625,7.046875 C11.15625,7.28125 11.375,7.5 11.515625,7.65625 Z" transform="translate(0.8125, 19.28125) scale(1, -1)"/>
</svg>