<svg height="18.96875" viewBox="0 0 24 18.96875" width="24" xmlns="http://www.w3.org/2000/svg">
<path d="M8.09375,18.453125 C8.1875,17.890625 8.421875,17.3125 8.703125,16.875 C8.984375,16.46875 9.171875,16.234375 9.453125,16.015625 C9.703125,15.828125 9.6875,15.703125 9.359375,15.484375 C8.953125,15.21875 8.40625,14.796875 8.0625,14.421875 C7.671875,14.015625 7.5625,13.609375 7.5625,13.25 C7.5625,12.6875 7.75,12.3125 8.109375,11.703125 C8.328125,11.328125 8.546875,10.765625 8.734375,9.78125 C8.859375,9.125 9.046875,8.28125 9.28125,7.390625 C9.5,6.484375 9.78125,5.546875 10.0625,4.703125 C10.34375,3.859375 10.640625,3.125 10.921875,2.609375 C11.296875,1.953125 11.609375,1.390625 11.984375,1.03125 C12.359375,0.65625 12.78125,0.421875 13.21875,0.265625 C13.65625,0.125 14.109375,0.046875 14.515625,0 C15.265625,-0.09375 16.109375,-0.125 16.90625,-0.078125 C17.65625,-0.03125 18.390625,0.0625 18.875,0.1875 C19.578125,0.359375 19.859375,0.578125 19.859375,0.96875 C19.859375,1.25 19.71875,1.4375 19.25,1.65625 C18.96875,1.78125 18.5,1.828125 18.046875,1.625 C17.59375,1.4375 17.09375,1.359375 16.34375,1.28125 C15.640625,1.203125 14.859375,1.265625 14.203125,1.390625 C13.421875,1.546875 12.9375,2.03125 12.34375,3 C11.90625,3.703125 11.46875,4.765625 11.09375,5.890625 C10.71875,7 10.421875,8.140625 10.25,8.9375 C10.15625,9.40625 10.046875,9.90625 9.921875,10.375 C9.8125,10.828125 9.6875,11.234375 9.546875,11.515625 C9.265625,12.09375 8.921875,12.78125 8.6875,13.109375 C8.4375,13.4375 8.453125,13.765625 8.859375,14.140625 C9.21875,14.453125 9.75,14.828125 10.21875,15 C10.421875,15.078125 10.859375,15.125 11.1875,15.171875 C11.546875,15.203125 11.8125,15.453125 11.8125,15.734375 C11.8125,16.21875 11.515625,16.484375 11.140625,16.609375 C10.484375,16.828125 9.96875,17.15625 9.53125,17.546875 C9.125,17.90625 8.84375,18.265625 8.65625,18.84375 Z" transform="translate(-1.7109375, 18.84375) scale(1, -1)"/>
</svg>