<svg height="20.859375" viewBox="0 0 24 20.859375" width="24" xmlns="http://www.w3.org/2000/svg">
<path d="M11,18.9375 C11.3125,18.8125 11.5625,18.5625 11.703125,18.34375 C11.953125,17.984375 12,17.765625 11.8125,17.265625 C11.671875,16.875 11.25,16.25 10.78125,15.640625 C10.296875,15.03125 9.734375,14.375 9.3125,13.953125 C9.21875,13.859375 9.109375,13.765625 8.984375,13.640625 C8.875,13.515625 8.765625,13.34375 8.734375,13.15625 C8.6875,12.875 8.65625,12.546875 8.6875,12.125 C8.703125,12.03125 8.71875,11.984375 8.765625,11.921875 C8.859375,11.796875 8.984375,11.734375 9.140625,11.734375 C9.21875,11.734375 9.28125,11.75 9.34375,11.796875 C9.6875,12.015625 10.078125,12.28125 10.390625,12.5 C11.109375,13.015625 11.890625,13.40625 12.546875,13.625 L12.59375,13.53125 C12.171875,12.734375 11.5625,11.671875 10.90625,10.59375 C10.25,9.515625 9.546875,8.4375 8.953125,7.546875 C8.375,6.65625 7.875,5.984375 7.671875,5.703125 C7.40625,5.375 7.140625,5.125 6.921875,5 C6.625,4.84375 6.453125,4.671875 6.4375,4.46875 C6.40625,4.21875 6.453125,4.03125 6.5,3.890625 C6.59375,3.640625 6.734375,3.453125 7.109375,3.59375 C7.203125,3.640625 7.296875,3.671875 7.390625,3.6875 C7.546875,3.703125 7.8125,3.734375 8.140625,3.734375 C8.3125,3.734375 8.515625,3.703125 8.734375,3.625 C9.21875,3.46875 9.890625,3.21875 10.59375,2.890625 C11.296875,2.578125 12.03125,2.203125 12.640625,1.828125 C13.453125,1.328125 14.234375,0.796875 14.890625,0.3125 C15.546875,-0.1875 16.09375,-0.640625 16.421875,-0.96875 C16.671875,-1.1875 16.859375,-1.328125 16.984375,-1.375 C17.109375,-1.4375 17.25,-1.4375 17.375,-1.390625 C17.65625,-1.3125 17.8125,-0.984375 17.8125,-0.671875 C17.8125,-0.265625 17.609375,0.125 17.234375,0.4375 C16.953125,0.671875 16.421875,1.046875 15.859375,1.4375 C15.28125,1.8125 14.640625,2.1875 14.109375,2.46875 C13.3125,2.890625 12.375,3.328125 11.375,3.71875 C10.390625,4.09375 9.3125,4.4375 8.265625,4.71875 C8.0625,4.765625 8.03125,4.8125 8.15625,5 L10.96875,8.859375 C11.859375,10.078125 12.671875,11.140625 13.21875,11.84375 C13.484375,12.171875 13.71875,12.453125 13.921875,12.640625 C14.0625,12.78125 14.15625,12.875 14.28125,12.921875 C14.515625,13.015625 14.65625,13.359375 14.515625,13.625 C14.328125,14 14.015625,14.296875 13.78125,14.515625 C13.515625,14.75 13.203125,14.8125 13.03125,14.8125 C12.59375,14.8125 12.265625,14.625 11.9375,14.40625 C11.40625,14.0625 10.765625,13.703125 10.21875,13.46875 L10.171875,13.5625 C10.4375,13.859375 10.71875,14.140625 11,14.453125 C11.53125,15.046875 12.015625,15.609375 12.4375,16.09375 C12.640625,16.34375 12.8125,16.53125 12.96875,16.703125 C13.328125,17.109375 13.390625,17.40625 13.390625,17.796875 C13.390625,18.15625 13.078125,18.5 12.640625,18.84375 C12.359375,19.0625 11.8125,19.328125 11.375,19.421875 Z" transform="translate(-0.109375, 19.421875) scale(1, -1)"/>
</svg>