<svg height="19.140625" viewBox="0 0 24 19.140625" width="24" xmlns="http://www.w3.org/2000/svg">
<path d="M3.359375,18.21875 C3.765625,17.96875 4.078125,17.703125 4.328125,17.40625 C4.796875,16.796875 4.796875,16.25 4.671875,15.4375 C4.53125,14.625 4.3125,13.609375 4.015625,12.453125 C3.875,11.890625 3.734375,11.296875 3.578125,10.703125 C3.109375,8.859375 2.84375,7.140625 2.84375,5.1875 C2.84375,4.46875 2.90625,3.65625 3.03125,2.90625 C3.140625,2.15625 3.296875,1.484375 3.484375,1.015625 C3.875,0.078125 4.25,-0.453125 4.703125,-0.453125 C5.265625,-0.453125 5.421875,0.140625 5.421875,0.890625 C5.421875,3.1875 5.984375,5.015625 6.71875,6.734375 L6.140625,7.125 C5.578125,5.84375 4.84375,4.15625 4.375,2.234375 C3.96875,3.265625 3.84375,4.203125 3.84375,5.234375 C3.84375,6.921875 4.109375,8.5625 4.453125,10.015625 C4.8125,11.484375 5.28125,12.765625 5.703125,13.78125 C6.078125,14.59375 6.296875,15.3125 6.296875,15.84375 C6.296875,16.5 6,17.046875 5.5,17.546875 C5.046875,18 4.4375,18.40625 3.6875,18.6875 Z M15.140625,18.1875 C14.59375,18.1875 13.90625,17.8125 13.390625,16.828125 C13.125,16.296875 12.875,15.65625 12.671875,15 C11.921875,14.796875 11.140625,14.40625 10.4375,13.921875 C9.734375,13.4375 9.078125,12.875 8.546875,12.296875 L8.984375,11.859375 C10.0625,12.875 11.109375,13.46875 12.34375,13.921875 C12.140625,13.125 12.015625,12.5 11.953125,12.09375 C11.890625,11.640625 11.859375,11.359375 11.90625,11.140625 C11.953125,10.90625 12.078125,10.734375 12.359375,10.515625 C12.515625,10.390625 12.640625,10.359375 12.828125,10.421875 C13.015625,10.46875 13.234375,10.609375 13.609375,10.828125 C14.140625,11.140625 14.859375,11.375 15.984375,11.453125 C16.859375,11.515625 17.578125,11.203125 18.078125,10.46875 C18.59375,9.734375 18.875,8.578125 18.875,6.9375 C18.875,6.140625 18.75,5.40625 18.53125,4.703125 C17.59375,5.265625 16.53125,5.65625 15.5,5.9375 C15.59375,6.265625 15.625,6.640625 15.625,7.015625 C15.625,8.703125 14.703125,9.640625 13.203125,9.6875 C12.4375,9.734375 11.734375,9.3125 11.1875,8.5625 C10.65625,7.859375 10.296875,6.890625 10.296875,5.515625 C9.5625,5.1875 8.9375,4.734375 8.5,4.203125 C8.046875,3.6875 7.765625,3.078125 7.765625,2.421875 C7.75,1.90625 7.90625,1.390625 8.28125,1.015625 C8.640625,0.640625 9.171875,0.40625 9.921875,0.4375 C10.640625,0.46875 11.328125,0.671875 11.953125,1.015625 C12.578125,0.453125 13.375,0.15625 14.3125,0.125 C15.359375,0.078125 16.296875,0.359375 17.09375,0.828125 C17.890625,1.296875 18.5625,2 19.078125,2.796875 C19.78125,2.1875 20.3125,1.546875 20.796875,0.796875 C21.0625,0.390625 21.234375,0.203125 21.578125,0.171875 C21.734375,0.15625 21.875,0.25 21.984375,0.40625 C22.078125,0.546875 22.15625,0.734375 22.15625,0.921875 C22.15625,1.28125 22.0625,1.578125 21.796875,1.953125 C21.390625,2.5 20.609375,3.234375 19.671875,3.9375 C20.046875,4.90625 20.234375,5.890625 20.234375,6.890625 C20.234375,10.421875 18.921875,12.15625 16.0625,12.234375 C14.984375,12.265625 13.921875,12.046875 13.21875,11.703125 C13.328125,12.59375 13.484375,13.46875 13.671875,14.3125 C15,14.625 16.265625,14.796875 17.640625,14.796875 C18.390625,14.796875 18.984375,14.984375 18.984375,15.5 C18.984375,15.84375 18.75,16.015625 18.4375,16.15625 C17.6875,16.484375 17,16.953125 16.34375,17.546875 C15.9375,17.9375 15.53125,18.1875 15.140625,18.1875 Z M16.015625,17.015625 C16.28125,16.703125 16.65625,16.28125 17.109375,15.828125 C16.03125,15.734375 15.046875,15.625 14.015625,15.390625 C14.203125,15.984375 14.421875,16.484375 14.65625,16.90625 C15.125,17.6875 15.453125,17.65625 16.015625,17.015625 Z M13.0625,8.9375 C13.953125,8.890625 14.265625,8.1875 14.265625,6.96875 C14.265625,6.6875 14.234375,6.4375 14.1875,6.140625 C13.703125,6.21875 13.15625,6.203125 12.59375,6.140625 C12.046875,6.078125 11.515625,5.96875 11.09375,5.84375 C11.09375,6.546875 11.296875,7.328125 11.640625,7.90625 C12,8.5 12.5,8.96875 13.0625,8.9375 Z M11.15625,4.859375 C11.625,5.046875 12.15625,5.140625 12.65625,5.1875 C13.15625,5.234375 13.625,5.21875 13.96875,5.140625 C13.625,4.015625 13.03125,2.90625 12.1875,2.109375 C11.5625,2.859375 11.28125,3.828125 11.15625,4.859375 Z M15.21875,4.875 C15.6875,4.765625 16.203125,4.578125 16.6875,4.359375 C17.1875,4.125 17.65625,3.875 18.046875,3.625 C17.625,2.84375 17.078125,2.203125 16.4375,1.765625 C15.78125,1.34375 15.078125,1.109375 14.328125,1.109375 C13.671875,1.109375 13.203125,1.265625 12.796875,1.53125 C13.875,2.375 14.734375,3.546875 15.21875,4.875 Z M10.34375,4.484375 C10.484375,3.3125 10.859375,2.3125 11.421875,1.5625 C10.96875,1.328125 10.484375,1.1875 9.96875,1.21875 C8.984375,1.28125 8.640625,1.59375 8.640625,2.421875 C8.640625,3.140625 9.3125,3.921875 10.34375,4.484375 Z" transform="translate(-0.5, 18.6875) scale(1, -1)"/>
</svg>