<svg height="19.96875" viewBox="0 0 24 19.96875" width="24" xmlns="http://www.w3.org/2000/svg">
<path d="M9.921875,18.671875 C10.234375,18.625 10.453125,18.578125 10.71875,18.484375 C11.109375,18.34375 11.265625,18.171875 11.09375,17.640625 C10.90625,17.0625 10.71875,16.703125 10.390625,16.203125 C8.65625,16.28125 7.390625,16.5625 6.59375,17.109375 L6.34375,16.625 C6.96875,16.015625 8.1875,15.34375 9.890625,15.1875 C9.75,14.890625 9.46875,14.4375 9.171875,14.015625 C8.859375,13.578125 8.546875,13.15625 8.359375,12.96875 L8.015625,12.5625 C7.9375,12.46875 7.859375,12.375 7.765625,12.296875 C7.53125,12.09375 7.4375,11.890625 7.484375,11.703125 C7.546875,11.46875 7.671875,11.234375 7.8125,11.09375 C7.90625,10.953125 8.015625,10.921875 8.140625,10.9375 C8.28125,10.953125 8.390625,11 8.5625,11.0625 C9.09375,11.25 9.640625,11.328125 10.203125,11.328125 C10.921875,11.328125 11.53125,11.171875 12.03125,10.859375 C12.578125,10.484375 13.078125,10.03125 13.421875,9.234375 C13.71875,8.53125 13.859375,7.625 13.859375,6.125 C13.859375,5.046875 13.625,3.875 13.15625,2.84375 C12.546875,1.578125 11.71875,0.796875 10.875,0.796875 C10.453125,0.796875 10.0625,0.875 9.671875,1.015625 C8.90625,1.28125 7.71875,2.046875 6.828125,2.84375 C7.1875,3.203125 7.671875,3.671875 8.140625,4.109375 C8.609375,4.53125 9.0625,4.953125 9.34375,5.1875 L9.078125,5.796875 C7.90625,4.765625 6.875,3.96875 5.9375,3.296875 C5.609375,3.078125 5.34375,2.890625 5.125,2.796875 C4.671875,2.5625 3.734375,2.078125 3.828125,3.078125 C3.859375,3.4375 3.9375,3.765625 4.03125,4.03125 L3.53125,4.25 C3.375,4.015625 3.203125,3.671875 3.078125,3.3125 C2.9375,2.96875 2.84375,2.59375 2.84375,2.3125 C2.84375,2.109375 2.859375,1.90625 2.890625,1.703125 C2.96875,1.28125 3.375,0.625 4.046875,0.625 C4.375,0.625 4.75,0.828125 5.15625,1.25 C5.375,1.46875 5.609375,1.6875 5.8125,1.890625 C6.03125,2.09375 6.234375,2.28125 6.4375,2.46875 C6.796875,2.015625 7.203125,1.53125 7.765625,1.03125 C8,0.828125 8.234375,0.609375 8.453125,0.40625 C8.65625,0.203125 8.890625,0.015625 9.140625,-0.171875 C9.796875,-0.59375 10.296875,-0.78125 10.953125,-0.734375 C11.359375,-0.734375 11.796875,-0.546875 12.21875,-0.28125 C12.640625,-0.03125 13.015625,0.296875 13.34375,0.625 C13.90625,1.171875 14.375,1.875 14.734375,2.765625 C15.1875,3.890625 15.359375,4.921875 15.359375,6.296875 C15.359375,7.71875 15.09375,8.84375 14.515625,9.875 C14.015625,10.765625 13.25,11.25 12.453125,11.609375 C11.328125,12.125 10.21875,12.296875 9,12.171875 C9.75,13.15625 10.46875,14.09375 11.09375,15.03125 C11.5625,15.015625 12.03125,15.03125 12.546875,15.0625 C13.53125,15.125 14.40625,15.296875 14.890625,15.453125 C15.359375,15.59375 16.40625,15.875 16.296875,16.625 C16.265625,16.828125 15.96875,17.0625 15.546875,17.0625 C15.234375,17.0625 14.71875,16.84375 14.265625,16.65625 C13.59375,16.390625 12.640625,16.203125 11.84375,16.171875 C12.125,16.578125 12.453125,17.015625 12.6875,17.328125 C12.875,17.578125 13.03125,17.828125 13.03125,18.046875 C13.03125,18.171875 13.015625,18.28125 12.984375,18.390625 C12.921875,18.59375 12.6875,18.75 12.515625,18.859375 C12.34375,18.953125 12.15625,19.015625 11.90625,19.0625 C11.65625,19.109375 11.1875,19.1875 10.765625,19.1875 C10.546875,19.1875 10.34375,19.171875 10.15625,19.15625 Z M16.671875,7.953125 C17.078125,7.859375 17.46875,7.671875 17.859375,7.40625 C18.640625,6.875 19.671875,5.796875 20.1875,4.03125 C20.375,3.40625 20.6875,3.1875 21,3.1875 C21.40625,3.1875 21.734375,3.5 21.78125,4.125 C21.8125,4.578125 21.578125,5.109375 21.34375,5.5 C20.90625,6.203125 20.3125,6.78125 19.90625,7.125 C19.53125,7.421875 19.0625,7.71875 18.546875,7.953125 C18.03125,8.1875 17.46875,8.390625 16.953125,8.515625 Z" transform="translate(-0.328125, 19.1875) scale(1, -1)"/>
</svg>