<svg height="20.4375" viewBox="0 0 24 20.4375" width="24" xmlns="http://www.w3.org/2000/svg">
<path d="M13.078125,18.71875 C13.375,18.640625 13.625,18.546875 13.828125,18.453125 C14.234375,18.265625 14.484375,18.046875 14.609375,17.75 C14.75,17.46875 14.75,17.09375 14.75,16.6875 C14.75,16.265625 14.765625,15.828125 14.765625,15.453125 L14.765625,14.984375 C14.609375,14.90625 14.46875,14.84375 14.28125,14.765625 C13.9375,14.609375 13.578125,14.46875 13.28125,14.359375 C13.125,14.296875 13.015625,14.234375 12.921875,14.203125 C12.078125,13.875 11.515625,13.703125 10.859375,13.703125 C10.296875,13.703125 9.984375,14.015625 9.640625,14.328125 L9.3125,14 C9.46875,13.609375 9.734375,13.203125 10.03125,12.890625 C10.34375,12.578125 10.6875,12.359375 11.0625,12.359375 C11.3125,12.359375 11.5625,12.40625 11.796875,12.5 C12.25,12.6875 12.765625,12.96875 13.1875,13.203125 L13.796875,13.53125 C14.1875,13.75 14.5625,13.90625 14.796875,14 L14.796875,9.265625 C14.421875,9.125 13.953125,8.9375 13.4375,8.6875 C12.921875,8.4375 12.375,8.140625 11.90625,7.8125 C11.34375,7.390625 10.984375,7.109375 10.765625,6.796875 C10.53125,6.5 10.4375,6.1875 10.4375,5.8125 C10.4375,5.5625 10.484375,5.328125 10.59375,5.046875 C10.796875,4.515625 11.125,4.0625 11.453125,3.546875 L12.53125,1.875 C12.71875,1.578125 12.890625,1.296875 13.0625,1.046875 C13.390625,0.515625 13.671875,0.046875 13.828125,-0.234375 C13.984375,-0.53125 14.109375,-0.78125 14.234375,-0.953125 C14.375,-1.125 14.515625,-1.21875 14.703125,-1.21875 C15,-1.21875 15.21875,-1.09375 15.5,-0.78125 C15.78125,-0.484375 16.09375,0.03125 16.03125,0.921875 C16,1.296875 15.984375,1.828125 15.96875,2.390625 C15.9375,2.9375 15.921875,3.53125 15.921875,4.078125 C16.28125,3.953125 16.71875,3.78125 17.46875,3.640625 C18.234375,3.5 19.015625,3.453125 19.484375,3.5 C19.90625,3.546875 20.0625,3.8125 20.0625,3.984375 C20.0625,4.203125 20.03125,4.390625 19.8125,4.578125 C19.609375,4.765625 19.171875,4.875 18.671875,4.875 C18.34375,4.875 17.84375,4.90625 17.328125,4.96875 C16.8125,5.015625 16.28125,5.125 15.921875,5.265625 L15.921875,6.671875 C16.15625,6.984375 16.515625,7.375 16.875,7.765625 C17.125,8.03125 17.1875,8.359375 17.109375,8.59375 C17.015625,8.890625 16.859375,8.96875 16.5625,9.1875 C16.390625,9.3125 16.109375,9.453125 15.921875,9.53125 L15.921875,11.9375 C16.4375,11.5625 17.25,11.265625 18.1875,11.265625 C19.109375,11.265625 19.671875,11.453125 20.234375,11.8125 C20.546875,12.015625 20.8125,12.34375 21,12.734375 C21.1875,13.109375 21.296875,13.5625 21.296875,14 C21.296875,14.59375 21.15625,15.203125 20.8125,15.578125 C20.3125,16.140625 19.765625,16.28125 19.0625,16.28125 C18.640625,16.28125 18.015625,16.15625 17.59375,16.03125 C17.328125,15.953125 17.015625,15.828125 16.71875,15.703125 L15.921875,15.34375 C15.921875,15.671875 15.9375,15.96875 15.96875,16.3125 C16.015625,16.640625 16.0625,17.015625 16.171875,17.5 C16.328125,18.15625 15.90625,18.578125 15.296875,18.84375 C15.015625,18.953125 14.640625,19.0625 14.28125,19.125 C13.90625,19.203125 13.578125,19.21875 13.34375,19.21875 Z M4.25,17.796875 C4.515625,17.5625 4.671875,17.375 4.765625,17.1875 C4.859375,17 4.90625,16.796875 4.953125,16.5625 C5.03125,16.109375 4.96875,15.046875 4.703125,13.671875 C4.03125,10.25 3.578125,7.78125 3.578125,6 C3.578125,4.53125 3.640625,3.25 3.921875,2.015625 C4.140625,0.984375 4.390625,0.3125 4.65625,-0.09375 C4.84375,-0.390625 5.109375,-0.625 5.515625,-0.625 C5.703125,-0.625 5.84375,-0.546875 5.9375,-0.421875 C6.046875,-0.296875 6.078125,-0.015625 6.078125,0.40625 C6.03125,1.296875 6.125,2.140625 6.359375,3.15625 C6.59375,4.15625 6.984375,5.3125 7.578125,6.78125 L7.015625,7.109375 C6.21875,5.5 5.59375,3.984375 5.0625,2.515625 C4.703125,3.40625 4.578125,4.578125 4.625,5.953125 C4.6875,7.890625 4.921875,9.40625 5.203125,10.59375 C5.484375,11.78125 5.796875,12.65625 6.078125,13.328125 C6.359375,14.046875 6.53125,14.609375 6.59375,15.09375 C6.640625,15.5625 6.578125,15.96875 6.390625,16.375 C6.09375,17.03125 5.515625,17.703125 4.71875,18.21875 Z M15.921875,14.515625 C16.34375,14.75 16.859375,14.984375 17.375,15.15625 C17.890625,15.328125 18.359375,15.4375 18.671875,15.4375 C19.015625,15.4375 19.28125,15.359375 19.46875,15.125 C19.640625,14.90625 19.71875,14.546875 19.71875,13.96875 C19.71875,13.421875 19.578125,12.9375 19.296875,12.578125 C19.015625,12.203125 18.59375,11.984375 18.03125,11.984375 C17.6875,11.984375 17.28125,12.03125 16.90625,12.140625 C16.53125,12.25 16.15625,12.421875 15.921875,12.625 Z M14.796875,6.984375 C14.609375,6.640625 14.28125,6.3125 14.015625,6.078125 C13.75,5.84375 13.625,5.65625 13.625,5.421875 C13.625,5.203125 13.765625,4.953125 14.046875,4.78125 C14.265625,4.625 14.515625,4.46875 14.796875,4.328125 L14.796875,1.109375 C14.796875,0.859375 14.703125,0.8125 14.515625,0.9375 C14.234375,1.171875 13.6875,1.78125 13.140625,2.46875 C12.59375,3.171875 12.03125,3.921875 11.703125,4.46875 C11.34375,5.0625 11.265625,5.421875 11.265625,5.796875 C11.265625,6.078125 11.328125,6.3125 11.546875,6.5625 C11.765625,6.828125 12.125,7.078125 12.78125,7.4375 C13.109375,7.625 13.5,7.796875 13.875,7.9375 C14.234375,8.0625 14.5625,8.140625 14.796875,8.1875 Z" transform="translate(-0.4375, 19.21875) scale(1, -1)"/>
</svg>