<svg height="19.8125" viewBox="0 0 24 19.8125" width="24" xmlns="http://www.w3.org/2000/svg">
<path d="M11.90625,18.5 C12.578125,18.140625 12.890625,17.765625 12.625,17.203125 C12.484375,16.90625 12.046875,16.421875 11.546875,15.90625 C11.03125,15.375 10.4375,14.8125 9.96875,14.375 C9.53125,13.96875 9.578125,13.625 10.125,13.109375 C10.625,12.640625 11.0625,11.6875 11.3125,9.984375 C11.359375,9.65625 11.390625,9.21875 11.421875,8.75 C11.46875,8.265625 11.46875,7.75 11.46875,7.328125 C10.828125,7.25 10.03125,7.09375 9.28125,6.921875 C8.515625,6.734375 7.8125,6.515625 7.375,6.359375 C6.484375,6.03125 5.59375,5.65625 5.09375,5.265625 C4.765625,5.015625 4.59375,4.6875 4.609375,4.390625 C4.609375,4.078125 4.765625,3.78125 5.140625,3.625 C5.46875,3.484375 5.921875,3.21875 6.390625,2.9375 C6.859375,2.65625 7.328125,2.359375 7.65625,2.15625 C8.09375,1.890625 8.609375,1.53125 9.0625,1.15625 C9.515625,0.78125 9.90625,0.390625 10.0625,0.03125 C10.25,-0.4375 10.515625,-0.84375 10.859375,-0.84375 C11.046875,-0.84375 11.296875,-0.84375 11.546875,-0.703125 C11.78125,-0.5625 12.015625,-0.296875 12.234375,0.234375 C12.53125,0.953125 12.6875,1.921875 12.78125,2.984375 C12.875,4.03125 12.875,5.15625 12.875,6.1875 C13.578125,6.1875 14.328125,6.125 15.171875,6 C15.921875,5.890625 16.90625,5.5625 17.890625,5.234375 C18.6875,4.953125 19.15625,5.0625 19.25,5.46875 C19.34375,5.9375 19.09375,6.40625 18.09375,6.734375 C17.734375,6.875 17.25,6.984375 16.734375,7.09375 C16.203125,7.203125 15.640625,7.28125 15.171875,7.328125 C14.609375,7.375 13.78125,7.390625 12.890625,7.34375 C12.859375,7.8125 12.8125,8.328125 12.765625,8.796875 C12.703125,9.25 12.640625,9.640625 12.578125,9.890625 C12.390625,10.71875 12.078125,11.484375 11.75,12.125 C11.421875,12.75 11.046875,13.25 10.671875,13.53125 C10.390625,13.765625 10.484375,13.953125 10.859375,14.1875 C11.234375,14.421875 11.84375,14.8125 12.453125,15.234375 C13.0625,15.640625 13.640625,16.0625 13.96875,16.34375 C14.484375,16.8125 14.6875,17.328125 14.234375,17.90625 C13.859375,18.375 13.0625,18.6875 12.296875,18.96875 Z M11.46875,6.140625 C11.515625,5.34375 11.484375,4.46875 11.4375,3.71875 C11.390625,2.953125 11.328125,2.296875 11.265625,1.96875 C11.15625,1.421875 11.0625,1.3125 10.625,1.515625 C10.390625,1.625 10,1.8125 9.546875,2.03125 C9.109375,2.234375 8.609375,2.46875 8.1875,2.703125 C7.90625,2.84375 7.53125,3.0625 7.140625,3.265625 C6.75,3.484375 6.34375,3.6875 6.03125,3.828125 C5.5625,4.046875 5.609375,4.21875 6.171875,4.5625 C6.59375,4.828125 7.28125,5.140625 8.046875,5.421875 C9.125,5.84375 10.296875,6.0625 11.46875,6.140625 Z" transform="translate(0.03125, 18.96875) scale(1, -1)"/>
</svg>