<svg height="20.0625" viewBox="0 0 24 20.0625" width="24" xmlns="http://www.w3.org/2000/svg">
<path d="M8.375,18.921875 C8.46875,18.6875 8.609375,18.390625 8.796875,18.125 C8.96875,17.84375 9.15625,17.609375 9.296875,17.46875 C9.640625,17.15625 9.9375,16.90625 10.265625,16.734375 C10.578125,16.546875 10.9375,16.4375 11.359375,16.421875 C11.8125,16.390625 12.265625,16.453125 12.4375,16.71875 C12.59375,16.96875 12.59375,17.203125 12.3125,17.59375 C12.171875,17.8125 11.9375,17.9375 11.5,17.984375 C11.1875,18.015625 10.859375,18.03125 10.46875,18.171875 C9.71875,18.40625 9.125,18.828125 8.734375,19.28125 Z M6.265625,13.96875 C6.3125,13.484375 6.53125,13.015625 6.84375,12.6875 C7.34375,12.1875 7.9375,12.03125 8.6875,12 C8.109375,11.09375 7.296875,10.140625 6.46875,9.3125 C5.65625,8.5 4.859375,7.8125 4.34375,7.484375 C3.9375,7.21875 3.5625,6.984375 3.390625,6.890625 C3.1875,6.78125 3.078125,6.671875 3.0625,6.546875 C3.015625,6.28125 3.296875,5.9375 3.546875,5.609375 C3.8125,5.296875 4.125,5.015625 4.640625,5.078125 C5.15625,5.140625 5.671875,5.453125 6.1875,5.734375 L7.765625,6.546875 C8.03125,6.6875 8.265625,6.8125 8.46875,6.921875 C9.3125,7.34375 9.984375,7.71875 10.609375,8.1875 C10.375,7.8125 9.953125,7.171875 9.53125,6.5 C9.109375,5.8125 8.703125,5.09375 8.46875,4.609375 C8.25,4.140625 8.046875,3.640625 7.90625,3.140625 C7.765625,2.65625 7.65625,2.171875 7.65625,1.78125 C7.65625,0.578125 8.3125,-0.046875 9.4375,-0.4375 C9.828125,-0.578125 10.4375,-0.65625 11.09375,-0.703125 C11.75,-0.75 12.453125,-0.78125 13.015625,-0.78125 C13.578125,-0.78125 14.34375,-0.703125 15.109375,-0.5625 C15.859375,-0.421875 16.625,-0.203125 17.234375,0.125 C18.359375,0.71875 18.703125,1.453125 18.578125,2.5625 C18.515625,3.03125 18.140625,4 17.65625,5.109375 C17.421875,5.640625 17.171875,6.3125 16.921875,7.0625 C16.671875,7.8125 16.453125,8.609375 16.28125,9.390625 L15.640625,9.265625 C15.75,8.5625 15.921875,7.734375 16.109375,6.984375 C16.296875,6.234375 16.453125,5.5625 16.578125,5.140625 C16.90625,3.96875 17.078125,3.171875 17.046875,2.578125 C17.03125,1.984375 16.8125,1.609375 16.390625,1.328125 C15.96875,1.015625 15.359375,0.8125 14.75,0.6875 C14.125,0.546875 13.484375,0.484375 12.96875,0.484375 C11.796875,0.484375 10.578125,0.578125 9.78125,0.84375 C9.125,1.0625 8.9375,1.34375 8.9375,1.90625 C8.9375,2.5625 9.125,3.578125 9.625,4.703125 C9.84375,5.1875 10.203125,5.75 10.578125,6.28125 C10.9375,6.796875 11.328125,7.265625 11.609375,7.515625 C11.703125,7.59375 11.796875,7.671875 11.859375,7.734375 C11.9375,7.796875 12,7.84375 12.0625,7.90625 C12.171875,8 12.28125,8.078125 12.4375,8.1875 C12.609375,8.3125 12.6875,8.453125 12.6875,8.625 C12.6875,8.796875 12.640625,8.9375 12.546875,9.078125 C12.40625,9.265625 12.203125,9.4375 11.9375,9.53125 C11.6875,9.625 11.40625,9.734375 11.109375,9.484375 C10.625,9.078125 10.109375,8.734375 9.484375,8.40625 C8.9375,8.125 8.078125,7.78125 7.15625,7.46875 C6.21875,7.15625 5.234375,6.875 4.4375,6.71875 C5.1875,7.265625 6.171875,8.046875 7.109375,8.828125 C8.03125,9.59375 8.890625,10.359375 9.40625,10.875 C9.578125,11.046875 9.6875,11.15625 9.78125,11.21875 C9.921875,11.328125 10.078125,11.40625 10.265625,11.484375 C10.359375,11.515625 10.453125,11.5625 10.53125,11.609375 C10.8125,11.765625 10.921875,11.9375 10.921875,12.296875 C10.921875,12.609375 10.765625,12.765625 10.53125,12.96875 C10.203125,13.28125 9.6875,13.53125 9.03125,13.46875 C8.75,13.4375 8.390625,13.453125 8.0625,13.5 C7.734375,13.546875 7.4375,13.625 7.28125,13.703125 C6.9375,13.875 6.796875,14.09375 6.734375,14.28125 Z M17.3125,12.71875 C17.734375,13.015625 18.09375,13.109375 18.484375,13.15625 C19.0625,13.203125 19.5625,12.9375 19.90625,12.53125 C20.09375,12.296875 20.265625,11.859375 20.265625,11.546875 C20.265625,10.859375 19.71875,10.375 18.625,10.078125 L18.984375,9.59375 C19.921875,9.734375 20.84375,10.015625 21.34375,10.421875 C21.71875,10.734375 21.921875,11.09375 21.921875,11.640625 C21.921875,12.296875 21.453125,12.890625 20.953125,13.296875 C20.328125,13.8125 19.515625,14.046875 18.890625,14 C18.1875,13.953125 17.46875,13.578125 17,13.15625 Z" transform="translate(-0.46875, 19.28125) scale(1, -1)"/>
</svg>