<svg height="20.453125" viewBox="0 0 24 20.453125" width="24" xmlns="http://www.w3.org/2000/svg">
<path d="M1.515625,11.28125 C1.59375,10.953125 1.796875,10.53125 2.0625,10.203125 C2.328125,9.859375 2.640625,9.578125 2.953125,9.53125 C3.390625,9.453125 3.6875,9.578125 4.109375,9.921875 C4.4375,10.203125 4.90625,10.484375 5.328125,10.765625 C5.765625,11.03125 6.1875,11.25 6.4375,11.375 C6.75,11.53125 6.890625,11.515625 6.890625,11.15625 L6.890625,8.421875 C6.65625,8.25 6.359375,8.03125 6.03125,7.78125 C5.703125,7.53125 5.359375,7.25 5.0625,7.015625 C3.984375,6.125 3.078125,5.359375 2.640625,4.921875 C2.328125,4.609375 2.203125,4.34375 2.375,3.921875 C2.46875,3.671875 2.734375,3.578125 3.125,3.4375 C3.296875,3.375 3.78125,3.125 4.296875,2.875 C4.796875,2.609375 5.328125,2.3125 5.5625,2.15625 C5.984375,1.90625 6.234375,1.78125 6.390625,1.421875 C6.578125,0.984375 6.828125,0.875 7.0625,0.875 C7.4375,0.875 7.671875,1.15625 7.90625,1.625 C8.125,2.09375 8.171875,2.734375 8.140625,3.171875 C8.09375,3.671875 8.078125,4.390625 8.0625,5.171875 C8.046875,5.953125 8.046875,6.796875 8.046875,7.5625 C8.421875,8 9.078125,8.515625 9.78125,9.078125 C10.484375,9.625 11.3125,10.171875 12.0625,10.671875 C12.8125,11.15625 13.515625,11.59375 14.015625,11.890625 C13.984375,11.5625 13.953125,11.125 13.953125,10.65625 C13.9375,10.1875 13.921875,9.703125 13.921875,9.359375 C13.921875,8.984375 13.9375,8.75 13.984375,8.578125 C14.03125,8.421875 14.09375,8.328125 14.234375,8.265625 C14.5625,8.078125 14.890625,8.109375 15.078125,8.203125 C15.4375,8.390625 15.921875,8.578125 16.390625,8.71875 C16.875,8.859375 17.359375,8.953125 17.765625,8.953125 C18.265625,8.953125 18.796875,8.859375 19.078125,8.5625 C19.34375,8.296875 19.5,8.015625 19.59375,7.671875 C19.671875,7.34375 19.703125,6.9375 19.703125,6.4375 C19.703125,4.46875 18.78125,3 17,1.71875 C16.234375,1.171875 15.328125,0.65625 14.453125,0.234375 C13.578125,-0.203125 12.71875,-0.578125 12.046875,-0.828125 L12.453125,-1.34375 C13.171875,-1.109375 14.109375,-0.75 15.03125,-0.34375 C15.9375,0.078125 16.84375,0.53125 17.5,0.9375 C18.59375,1.625 19.53125,2.453125 20.171875,3.359375 C20.8125,4.28125 21.1875,5.3125 21.1875,6.4375 C21.1875,7.46875 21,8.21875 20.453125,8.8125 C20.125,9.15625 19.703125,9.390625 19.25,9.546875 C18.78125,9.6875 18.296875,9.734375 17.8125,9.734375 C17.546875,9.734375 17.125,9.703125 16.703125,9.640625 C16.28125,9.5625 15.875,9.453125 15.59375,9.359375 C15.265625,9.234375 15.234375,9.3125 15.234375,9.546875 C15.234375,10.484375 15.265625,11.515625 15.3125,12.40625 C16.4375,12.921875 17.734375,13.53125 19.25,13.859375 C19.90625,14 20.234375,14.15625 20.421875,14.34375 C20.609375,14.515625 20.640625,14.703125 20.640625,14.890625 C20.640625,15.109375 20.53125,15.328125 20.328125,15.53125 C20.109375,15.734375 19.734375,15.96875 19.203125,16.25 C18.640625,16.53125 17.84375,17.296875 17.140625,18.234375 C16.625,18.9375 16.265625,19.109375 15.890625,18.890625 C15.65625,18.75 15.5,18.609375 15.359375,18.40625 C15.21875,18.1875 15.09375,17.90625 14.953125,17.5625 C14.765625,17.140625 14.578125,16.40625 14.421875,15.546875 C14.28125,14.703125 14.140625,13.671875 14.0625,12.625 C13.65625,12.453125 12.9375,12.078125 12.140625,11.609375 C11.328125,11.140625 10.4375,10.609375 9.6875,10.15625 C8.9375,9.6875 8.3125,9.28125 8.046875,9.09375 C8.046875,9.234375 8.046875,9.40625 8.046875,9.609375 C8.0625,10.015625 8.09375,10.4375 8.140625,10.859375 C8.1875,11.265625 8.25,11.625 8.296875,11.828125 C8.3125,11.921875 8.3125,12 8.28125,12.078125 C8.1875,12.34375 8.015625,12.5 7.875,12.578125 C7.8125,12.609375 7.71875,12.640625 7.640625,12.6875 C7.546875,12.734375 7.453125,12.78125 7.359375,12.828125 C7.171875,12.890625 6.96875,12.90625 6.828125,12.796875 C6.40625,12.515625 5.953125,12.25 5.5,11.984375 C5.09375,11.75 4.578125,11.46875 4.125,11.28125 C3.65625,11.078125 3.25,10.921875 3.03125,10.921875 C2.59375,10.921875 2.203125,11.234375 1.96875,11.65625 Z M15.34375,13.25 C15.375,13.8125 15.40625,14.5 15.5,15.234375 C15.59375,15.96875 15.75,16.734375 15.984375,17.46875 C16.15625,18.03125 16.390625,18.265625 16.625,17.890625 C17.234375,16.953125 18.03125,16.046875 18.921875,15.34375 C19.375,14.984375 19.203125,14.59375 18.484375,14.40625 C18.140625,14.3125 17.5625,14.125 16.953125,13.90625 C16.34375,13.671875 15.734375,13.4375 15.34375,13.25 Z M5.421875,17.734375 C5.5625,17.265625 5.765625,16.859375 6,16.515625 C6.125,16.34375 6.453125,16 6.9375,15.828125 L5.8125,15 L6.171875,14.640625 C6.703125,14.9375 7.109375,15.125 7.40625,15.25 C7.6875,15.359375 7.921875,15.40625 8.109375,15.390625 C8.90625,15.328125 9.1875,15.4375 9.234375,15.96875 C9.265625,16.484375 8.875,16.90625 8.359375,16.953125 C8.125,16.953125 7.8125,17 7.515625,17.046875 C7.203125,17.09375 6.921875,17.171875 6.71875,17.265625 C6.40625,17.40625 6.109375,17.640625 5.859375,18 Z M6.890625,2.9375 C6.5,2.9375 6.046875,3.03125 5.609375,3.140625 C5.15625,3.25 4.71875,3.375 4.390625,3.484375 C3.828125,3.671875 3.640625,3.921875 4.0625,4.375 C4.375,4.71875 4.875,5.234375 5.40625,5.71875 C5.9375,6.21875 6.484375,6.6875 6.890625,6.96875 Z" transform="translate(0.6484375, 19.109375) scale(1, -1)"/>
</svg>