<svg height="19.359375" viewBox="0 0 24 19.359375" width="24" xmlns="http://www.w3.org/2000/svg">
<path d="M3.84375,15.03125 C4.140625,14.65625 4.5625,14.296875 5.046875,14.015625 C5.515625,13.734375 6.03125,13.5 6.546875,13.390625 C7.671875,13.15625 9.078125,13.078125 10.78125,13.21875 C10.828125,12.59375 10.90625,11.765625 11.046875,11.15625 C11.09375,10.953125 11.203125,10.796875 11.40625,10.671875 C11.78125,10.4375 12.265625,10.296875 12.796875,10.265625 C13.0625,10.25 13.296875,10.234375 13.515625,10.203125 C13.625,10.1875 13.6875,10.140625 13.6875,10.078125 C13.6875,10.015625 13.625,9.96875 13.484375,9.921875 C13.15625,9.78125 12.640625,9.546875 12.078125,9.234375 C11.515625,8.921875 10.859375,8.546875 10.25,8.140625 L10.609375,7.78125 C12.171875,8.5625 13.375,8.984375 14.453125,9.296875 C14.796875,9.390625 15.078125,9.46875 15.21875,9.546875 C15.4375,9.6875 15.59375,9.875 15.59375,10.109375 C15.59375,10.421875 15.40625,10.71875 15.140625,10.765625 C14.921875,10.796875 14.703125,10.84375 14.5,10.890625 C14.0625,10.96875 13.703125,11.046875 13.4375,11.109375 L13.171875,11.1875 C12.796875,11.359375 12.53125,11.515625 12.4375,11.703125 C12.34375,11.90625 12.296875,12.21875 12.265625,12.546875 C12.25,12.875 12.234375,13.203125 12.234375,13.484375 C13.171875,13.578125 14.375,13.703125 15.6875,13.921875 C16.046875,13.984375 16.34375,14.03125 16.59375,14.078125 C17.09375,14.171875 17.46875,14.234375 17.796875,14.328125 C18.125,14.40625 18.765625,14.515625 18.984375,14.75 C19.09375,14.859375 19.15625,14.96875 19.15625,15.046875 C19.15625,15.3125 19.03125,15.5 18.6875,15.640625 C18.453125,15.75 18.125,15.8125 17.84375,15.84375 C17.421875,15.890625 17.140625,15.75 16.71875,15.546875 C16.34375,15.359375 15.59375,15.171875 14.84375,15.03125 C14.359375,14.9375 13.828125,14.84375 13.34375,14.796875 C12.84375,14.75 12.40625,14.703125 12.078125,14.65625 C12.0625,14.796875 12.046875,14.9375 12.046875,15.09375 C12.046875,15.421875 12.0625,15.78125 12.078125,16.09375 L12.078125,16.484375 C12.078125,16.921875 12.140625,17.296875 12.390625,17.546875 C12.640625,17.796875 12.9375,17.859375 13.21875,17.8125 C13.515625,17.765625 13.75,17.671875 13.953125,17.515625 L14.15625,17.890625 C13.9375,18.125 13.625,18.328125 13.390625,18.453125 C13.0625,18.640625 12.84375,18.6875 12.40625,18.734375 C11.890625,18.78125 11.421875,18.578125 11.140625,18.234375 C10.71875,17.75 10.625,17.15625 10.625,16.4375 C10.625,15.78125 10.640625,14.984375 10.671875,14.5 C10.203125,14.421875 9.796875,14.375 9.34375,14.375 C8.890625,14.359375 8.375,14.359375 7.703125,14.40625 C6.859375,14.453125 6.21875,14.5625 5.65625,14.75 C5.09375,14.921875 4.625,15.140625 4.125,15.453125 Z M9.4375,7.296875 C8.90625,7.03125 8.65625,6.578125 8.65625,6.078125 C8.65625,5.46875 8.859375,5.21875 9.296875,4.96875 C9.65625,4.75 10.109375,4.6875 10.46875,4.65625 C11.0625,4.609375 11.1875,4.5625 10.78125,4.203125 C10.5625,4 10.328125,3.703125 10.109375,3.40625 C9.8125,3 9.578125,2.453125 9.578125,2 C9.578125,1.515625 9.734375,1.0625 10.15625,0.578125 C10.484375,0.1875 11.0625,-0.1875 11.953125,-0.359375 C12.71875,-0.515625 13.578125,-0.578125 14.515625,-0.578125 C15.265625,-0.578125 15.84375,-0.5 16.25,-0.359375 C16.515625,-0.265625 16.703125,-0.1875 16.78125,-0.109375 C16.859375,-0.03125 16.90625,0.078125 16.90625,0.21875 C16.90625,0.484375 16.765625,0.640625 16.578125,0.78125 C16.21875,1.046875 15.671875,1.15625 15.234375,1.078125 C14.65625,0.96875 14.203125,0.921875 13.703125,0.921875 C13.359375,0.921875 12.921875,0.921875 12.5,0.96875 C12.078125,1 11.671875,1.046875 11.421875,1.125 C10.640625,1.375 10.4375,1.765625 10.4375,2.15625 C10.4375,2.59375 10.65625,2.9375 10.96875,3.234375 C11.46875,3.6875 11.90625,3.96875 12.234375,4.15625 C12.484375,4.296875 12.6875,4.390625 12.9375,4.4375 C13.34375,4.53125 13.4375,4.765625 13.34375,5.09375 C13.265625,5.328125 13.171875,5.421875 12.9375,5.5625 C12.578125,5.796875 12.109375,5.75 11.40625,5.796875 C10.515625,5.828125 9.890625,5.828125 9.640625,6.078125 C9.40625,6.3125 9.5,6.71875 9.84375,7.078125 Z" transform="translate(0.5, 18.78125) scale(1, -1)"/>
</svg>