<svg height="21.5625" viewBox="0 0 24 21.5625" width="24" xmlns="http://www.w3.org/2000/svg">
<path d="M6.71875,19.25 C7.203125,19.171875 7.5625,19.03125 7.765625,18.828125 C8.1875,18.390625 7.84375,17.84375 7.6875,17.46875 C7.609375,17.265625 7.53125,17.078125 7.46875,16.875 C6.625,16.671875 5.890625,16.453125 5.328125,16.28125 C4.578125,16.03125 4.03125,16.1875 3.359375,17.109375 L2.859375,16.765625 C2.984375,16.390625 3.265625,15.796875 3.6875,15.359375 C3.9375,15.125 4.25,14.953125 4.53125,14.953125 C4.8125,14.953125 5.125,15.03125 5.46875,15.1875 C6.03125,15.4375 6.53125,15.640625 6.9375,15.796875 C6.5,14.90625 6.046875,14.09375 5.640625,13.4375 C5.375,13.015625 5.046875,12.640625 4.765625,12.359375 C4.4375,12.046875 4.28125,11.71875 4.28125,11.375 C4.28125,10.875 4.53125,10.484375 4.828125,10.484375 C5,10.484375 5.265625,10.671875 5.546875,11.09375 C5.71875,11.328125 5.890625,11.5625 6.078125,11.9375 C6.234375,11.84375 6.390625,11.765625 6.515625,11.6875 C6.78125,11.515625 7.046875,11.3125 7.296875,11.078125 C7.5625,10.828125 7.859375,10.53125 8.046875,10.34375 C8.125,10.25 8.234375,10.15625 8.328125,10.109375 C8.609375,9.96875 8.921875,10.015625 9.234375,10.15625 C9.546875,10.296875 9.9375,10.609375 10.296875,10.96875 C11.28125,11.953125 11.90625,13.40625 11.90625,15.296875 C11.90625,15.96875 11.671875,16.625 11.109375,17 C10.75,17.234375 10.390625,17.3125 9.921875,17.3125 C9.625,17.3125 9.265625,17.265625 8.890625,17.203125 C9.078125,17.546875 9.21875,17.84375 9.3125,18.125 C9.5,18.71875 9.5,19.15625 8.984375,19.421875 C8.515625,19.65625 7.8125,19.796875 7.015625,19.765625 Z M13.8125,17.5625 C13.484375,17.046875 13.234375,16.125 13.28125,15 C13.3125,14.28125 13.484375,13.984375 13.8125,13.8125 C14.078125,13.65625 14.203125,13.765625 14.359375,13.90625 C14.5,14.046875 14.609375,14.1875 14.703125,14.3125 C14.78125,14.4375 14.890625,14.59375 15.03125,14.796875 C15.390625,15.3125 15.875,15.796875 16.421875,16.15625 C16.953125,16.53125 17.546875,16.765625 18.09375,16.765625 C18.796875,16.765625 19.125,16.375 19.125,15.78125 C19.125,14.9375 18.3125,13.953125 16.984375,12.90625 C15.65625,11.859375 13.8125,10.765625 11.765625,9.734375 C11.328125,9.515625 10.859375,9.3125 10.390625,9.140625 C9.890625,8.953125 9.5,8.765625 9.4375,8.375 C9.40625,8.1875 9.40625,7.953125 9.59375,7.765625 C9.78125,7.578125 10.03125,7.609375 10.328125,7.65625 C10.765625,7.734375 11.171875,7.8125 11.609375,7.90625 C12.03125,8 12.5,8.109375 13.109375,8.265625 C12.265625,7.828125 11.375,7.34375 10.578125,6.90625 C9.78125,6.46875 9.078125,6.0625 8.6875,5.796875 C8.328125,5.546875 8.09375,5.234375 8.09375,4.859375 C8.09375,4.34375 8.375,4.203125 8.9375,4.25 C9.59375,4.296875 10.90625,4.625 12.453125,5.046875 C11.46875,4.421875 10.3125,3.734375 9.140625,3.046875 C7.96875,2.375 6.765625,1.6875 5.640625,1.078125 C4.890625,0.671875 4.34375,0.421875 4.078125,-0.09375 C3.921875,-0.390625 3.84375,-0.875 3.84375,-1.109375 C3.84375,-1.328125 3.890625,-1.484375 4,-1.578125 C4.1875,-1.765625 4.578125,-1.671875 4.96875,-1.421875 L5.734375,-0.9375 C7.203125,-0.03125 8.453125,0.609375 9.546875,1.015625 C10.625,1.40625 11.5625,1.578125 12.390625,1.578125 C13.515625,1.578125 14.4375,1.46875 15.375,1.109375 C16.296875,0.765625 17.234375,0.15625 18.359375,-0.796875 L18.71875,-1.109375 C18.90625,-1.296875 19.375,-1.640625 19.78125,-1.46875 C20.09375,-1.34375 20.203125,-1.078125 20.203125,-0.796875 C20.203125,-0.359375 20,0.078125 19.296875,0.546875 C18.265625,1.25 17.3125,1.734375 16.25,2.046875 C15.171875,2.34375 13.984375,2.46875 12.53125,2.453125 C11.78125,2.4375 11.015625,2.328125 10.15625,2.078125 C9.28125,1.828125 8.3125,1.46875 7.171875,0.96875 C8.453125,1.765625 9.921875,2.625 11.296875,3.34375 C12.6875,4.0625 13.953125,4.625 14.9375,4.875 C15.203125,4.953125 15.453125,5 15.640625,5.046875 C15.84375,5.09375 16.015625,5.171875 16.15625,5.265625 C16.4375,5.46875 16.5,5.6875 16.375,6 C16.265625,6.265625 16.0625,6.453125 15.796875,6.546875 C15.484375,6.65625 15.140625,6.5625 14.546875,6.390625 C13.8125,6.1875 13.0625,6.015625 12.359375,5.890625 C11.65625,5.75 11,5.6875 10.46875,5.6875 C10.171875,5.6875 10.046875,5.71875 10.0625,5.796875 C10.0625,5.859375 10.15625,5.9375 10.296875,6.046875 C10.8125,6.40625 11.703125,6.875 12.734375,7.296875 C13.765625,7.71875 14.9375,8.125 16.0625,8.359375 C16.484375,8.453125 16.625,8.734375 16.625,9 C16.625,9.34375 16.34375,9.5625 16.125,9.640625 C15.796875,9.78125 15.359375,9.734375 14.65625,9.546875 C14,9.40625 13.171875,9.25 11.703125,9.03125 C15.84375,11.140625 18.375,12.671875 19.65625,13.78125 C20.015625,14.09375 20.28125,14.375 20.453125,14.65625 C20.625,14.9375 20.703125,15.234375 20.703125,15.59375 C20.703125,16.03125 20.5,16.484375 20.078125,16.8125 C19.640625,17.140625 19.015625,17.375 18.171875,17.375 C17.640625,17.375 17.046875,17.234375 16.46875,16.96875 C15.890625,16.71875 15.3125,16.375 14.84375,16.015625 C14.453125,15.71875 14.234375,15.796875 14.203125,16.28125 C14.171875,16.640625 14.234375,17.09375 14.375,17.453125 Z M9.71875,16.484375 C10.375,16.484375 10.609375,16.125 10.609375,15.1875 C10.609375,14.546875 10.46875,13.859375 10.203125,13.234375 C9.953125,12.59375 9.578125,12.03125 9.125,11.640625 C8.84375,11.40625 8.546875,11.375 8.15625,11.59375 C7.625,11.90625 6.984375,12.21875 6.390625,12.453125 C6.765625,13.203125 7.109375,13.875 7.4375,14.515625 C7.75,15.171875 8.046875,15.734375 8.3125,16.21875 C8.890625,16.390625 9.359375,16.484375 9.71875,16.484375 Z" transform="translate(0.21875, 19.796875) scale(1, -1)"/>
</svg>