<svg height="18.921875" viewBox="0 0 24 18.921875" width="24" xmlns="http://www.w3.org/2000/svg">
<path d="M14.984375,17.90625 C14.84375,17.859375 14.765625,17.8125 14.65625,17.765625 C14.53125,17.703125 14.375,17.65625 14.140625,17.5625 C13.515625,17.375 12.59375,17.140625 11.703125,16.9375 C10.8125,16.734375 9.96875,16.5625 9.453125,16.515625 C8.703125,16.4375 8,16.40625 7.4375,16.5625 C6.828125,16.734375 6.34375,17.015625 5.984375,17.59375 L5.5,17.265625 C5.6875,16.515625 6.03125,16.078125 6.390625,15.671875 C6.671875,15.34375 6.984375,15.125 7.40625,15.078125 C7.828125,15.03125 8.359375,15.09375 9.078125,15.296875 C9.25,15.34375 9.46875,15.40625 9.765625,15.46875 L10.71875,15.71875 C10.765625,15.34375 10.71875,14.953125 10.640625,14.546875 C10.46875,13.71875 10.171875,12.859375 9.75,11.796875 C9.3125,10.71875 8.796875,9.5 8.234375,8.28125 C7.65625,7.046875 7.09375,5.84375 6.578125,4.78125 L5.890625,3.34375 C5.5,3.890625 5.171875,4.5625 4.90625,5.15625 L4.390625,4.703125 C4.578125,4.328125 4.75,3.8125 4.859375,3.296875 C4.953125,2.765625 5.03125,2.234375 5.0625,1.765625 C5.09375,1.390625 5.140625,1.140625 5.234375,1.015625 C5.328125,0.90625 5.453125,0.84375 5.609375,0.84375 C6.09375,0.84375 6.390625,1.296875 6.796875,2.28125 C7.28125,3.453125 7.84375,4.734375 8.421875,6.015625 C8.984375,7.296875 9.5625,8.5625 10.09375,9.6875 C10.609375,10.8125 11.09375,11.796875 11.421875,12.484375 C11.609375,12.84375 11.78125,13.25 11.890625,13.640625 C12.015625,14.03125 12.078125,14.40625 12.078125,14.6875 C12.078125,15.1875 11.859375,15.578125 11.515625,15.890625 L12.390625,16.109375 C12.6875,16.171875 12.953125,16.25 13.21875,16.296875 C13.484375,16.359375 13.734375,16.40625 13.953125,16.46875 L14.515625,16.578125 C15.125,16.71875 15.28125,16.578125 15.140625,16.078125 C15.015625,15.625 14.84375,15.03125 14.703125,14.453125 C14.625,14.15625 14.5625,13.859375 14.484375,13.59375 C14.421875,13.328125 14.359375,13.078125 14.3125,12.875 C14.125,12.078125 14.28125,11.40625 14.984375,11.1875 C15.734375,10.953125 16.296875,10.765625 16.90625,10.328125 C17.234375,10.078125 17.515625,9.640625 17.703125,9.078125 C17.890625,8.515625 17.984375,7.859375 17.984375,7.109375 C17.984375,4.515625 17.046875,2.75 15.5,1.46875 C14.609375,0.71875 13.4375,0.125 12.3125,-0.265625 L12.734375,-0.921875 C14.484375,-0.390625 15.953125,0.40625 17.234375,1.4375 C18.078125,2.140625 18.6875,3.03125 19.0625,4.015625 C19.453125,5 19.625,6.078125 19.625,7.0625 C19.625,7.765625 19.53125,8.484375 19.296875,9.109375 C19.0625,9.71875 18.6875,10.25 18.1875,10.625 C17.5625,11.109375 16.640625,11.5 15.84375,11.765625 C15.1875,11.984375 15.09375,12.21875 15.296875,12.671875 C15.703125,13.65625 16.125,14.609375 16.578125,15.359375 C16.859375,15.796875 17.015625,16.15625 17.015625,16.53125 C17.015625,16.71875 16.953125,16.875 16.859375,17.046875 C16.75,17.203125 16.515625,17.40625 16.15625,17.640625 C15.71875,17.9375 15.25,18 14.984375,17.90625 Z" transform="translate(-0.0078125, 18) scale(1, -1)"/>
</svg>