<svg height="21.109375" viewBox="0 0 24 21.109375" width="24" xmlns="http://www.w3.org/2000/svg">
<path d="M8.640625,19.296875 C9.53125,19.03125 9.765625,18.703125 9.1875,18.046875 C8.78125,17.59375 8.421875,17.28125 7.859375,16.96875 C7.515625,16.78125 7.359375,16.578125 7.3125,16.390625 C7.265625,16.1875 7.328125,15.984375 7.421875,15.84375 C7.484375,15.765625 7.515625,15.6875 7.546875,15.59375 L7.65625,15.359375 C6.625,14.953125 5.515625,14.234375 4.4375,13.4375 L4.875,12.890625 C5.4375,13.328125 6.03125,13.6875 6.578125,13.96875 C7.109375,14.234375 7.578125,14.421875 7.953125,14.5 L8.015625,14.28125 C7.796875,14 7.53125,13.6875 7.265625,13.328125 C6.703125,12.609375 6.09375,11.796875 5.484375,10.96875 C5.171875,10.5625 4.875,10.15625 4.578125,9.78125 C4.4375,9.578125 4.3125,9.40625 4.203125,9.265625 C4.0625,9.125 4.015625,8.984375 4.015625,8.859375 C4.015625,8.59375 4.171875,8.28125 4.53125,7.78125 C4.671875,7.578125 4.859375,7.53125 5,7.578125 C5.15625,7.625 5.328125,7.765625 5.421875,7.921875 L5.6875,8.28125 C6.28125,7.6875 6.796875,6.828125 7.078125,6.09375 C7.28125,5.59375 7.46875,5.28125 7.859375,5.28125 C8.21875,5.28125 8.65625,5.75 8.953125,6.546875 C9.09375,6.9375 9.234375,7.734375 9.328125,8.6875 C9.40625,9.640625 9.453125,10.765625 9.359375,11.84375 C10.25,12.546875 11.15625,13.21875 11.859375,13.671875 C12.1875,13.90625 12.5,13.921875 12.6875,13.671875 C12.875,13.4375 13,13.0625 13.078125,12.671875 C13.171875,12.21875 13.484375,11.90625 13.953125,11.90625 C14.234375,11.90625 14.515625,12.125 14.703125,12.453125 C14.890625,12.75 15.171875,13.109375 15.46875,13.4375 C15.78125,13.765625 16.109375,14.09375 16.390625,14.28125 C16.8125,14.5625 17.1875,14.84375 17.703125,14.84375 C18.265625,14.84375 18.546875,14.515625 18.546875,13.578125 C18.546875,13.15625 18.46875,12.78125 18.234375,12.390625 C18,11.984375 17.625,11.5625 17.0625,11.0625 C16.65625,10.703125 16.09375,10.296875 15.4375,9.890625 C14.78125,9.484375 14.046875,9.078125 13.328125,8.734375 C13.15625,9.046875 12.828125,9.171875 12.359375,9.21875 C11.8125,9.25 11.328125,9.109375 10.90625,8.84375 L11.109375,8.328125 C11.5625,8.46875 11.84375,8.453125 12.015625,8.265625 C12.171875,8.078125 12.21875,7.71875 12.21875,7.171875 L12.21875,6.1875 C10.90625,6.21875 10.203125,6.421875 9.71875,6.734375 L9.484375,6.1875 C10.109375,5.421875 11.015625,5.046875 12.234375,5.015625 L12.234375,0.5 C11.953125,0.546875 11.5625,0.6875 11.140625,0.875 C10.71875,1.046875 10.25,1.265625 9.828125,1.46875 L9.59375,0.890625 C9.96875,0.75 10.34375,0.5 10.6875,0.234375 C11.03125,-0.046875 11.328125,-0.34375 11.515625,-0.578125 C11.671875,-0.75 11.75,-0.90625 11.84375,-1.078125 C11.9375,-1.296875 12.09375,-1.34375 12.296875,-1.34375 C12.875,-1.34375 13.296875,-0.75 13.4375,-0.25 C13.515625,0 13.53125,0.375 13.515625,0.875 C13.5,1.203125 13.484375,1.796875 13.46875,2.53125 C13.453125,3.265625 13.4375,4.140625 13.4375,5.0625 C13.859375,5.109375 14.296875,5.1875 14.703125,5.296875 C15.09375,5.390625 15.4375,5.515625 15.671875,5.640625 C16.25,5.9375 16.4375,6.25 16.34375,6.625 C16.296875,6.859375 16.109375,7.015625 15.84375,7.0625 C15.59375,7.109375 15.265625,7.046875 14.9375,6.84375 C14.59375,6.625 14.015625,6.421875 13.484375,6.296875 L13.515625,7.484375 L13.515625,7.859375 C13.515625,7.96875 13.5,8.0625 13.484375,8.140625 C14.5625,8.5625 15.734375,9.15625 16.78125,9.78125 C17.8125,10.390625 18.734375,11.046875 19.25,11.65625 C19.765625,12.265625 20.046875,12.890625 20.046875,13.65625 C20.046875,14.3125 19.8125,14.8125 19.34375,15.171875 C18.796875,15.59375 17.890625,15.703125 16.90625,15.390625 C16.515625,15.265625 16.078125,15.03125 15.65625,14.75 C15.234375,14.46875 14.828125,14.140625 14.5,13.859375 C14.25,13.625 14.046875,13.5625 13.953125,13.78125 C13.84375,14.015625 13.734375,14.25 13.515625,14.46875 C13.34375,14.65625 13.15625,14.78125 12.890625,14.796875 C12.640625,14.828125 12.3125,14.75 11.890625,14.5 C11.09375,14.03125 10.203125,13.421875 9.265625,12.71875 C9.21875,13.21875 9.15625,13.71875 9.03125,14.1875 C9.09375,14.265625 9.171875,14.34375 9.25,14.421875 L9.5,14.6875 C9.796875,14.984375 9.890625,15.28125 9.71875,15.453125 C9.546875,15.640625 9.1875,15.75 8.59375,15.625 C8.546875,15.78125 8.484375,15.9375 8.40625,16.078125 C8.3125,16.28125 8.265625,16.4375 8.734375,16.65625 C9.109375,16.828125 9.46875,17.03125 9.8125,17.25 C10.15625,17.46875 10.5,17.703125 10.859375,17.9375 C11.09375,18.078125 11.234375,18.3125 11.234375,18.546875 C11.234375,18.765625 11.125,18.96875 10.921875,19.109375 C10.34375,19.46875 9.625,19.671875 9.03125,19.765625 Z M8.15625,13.28125 C8.171875,13.0625 8.1875,12.828125 8.1875,12.609375 L8.234375,11.9375 C7.671875,11.515625 7.125,11.09375 6.59375,10.65625 L5.109375,9.4375 C6.1875,10.953125 7.125,12.15625 8.15625,13.28125 Z M8.234375,10.859375 C8.234375,9.984375 8.203125,9.3125 8.140625,8.796875 C8.09375,8.296875 8,7.921875 7.90625,7.65625 C7.71875,7.15625 7.609375,7.171875 7.328125,7.515625 C7.125,7.75 6.546875,8.265625 6.03125,8.6875 C6.59375,9.34375 7.390625,10.109375 8.234375,10.859375 Z M15.78125,2.796875 C16.46875,2.65625 17.09375,2.34375 17.65625,1.921875 C18.203125,1.5 18.640625,0.984375 18.921875,0.5 C19.0625,0.234375 19.296875,0.09375 19.53125,0.0625 C19.75,0.03125 19.96875,0.078125 20.109375,0.21875 C20.3125,0.40625 20.375,0.6875 20.328125,1.015625 C20.28125,1.328125 20.109375,1.671875 19.875,1.90625 C19.078125,2.703125 17.796875,3.265625 16.015625,3.359375 Z M6,3.046875 C5.203125,2.375 4.8125,1.5625 4.8125,0.84375 C4.8125,0.59375 4.875,0.28125 5.03125,0.03125 C5.171875,-0.234375 5.40625,-0.453125 5.734375,-0.5 C6.1875,-0.59375 6.5,-0.34375 6.9375,0.140625 C7.28125,0.53125 7.828125,1 8.421875,1.4375 C9,1.859375 9.625,2.28125 10.109375,2.546875 L9.890625,3.1875 C9.515625,2.984375 8.921875,2.671875 8.296875,2.328125 C7.671875,1.96875 7.03125,1.59375 6.546875,1.28125 C6.21875,1.0625 6.078125,1.21875 6.078125,1.65625 C6.078125,1.96875 6.140625,2.3125 6.390625,2.734375 Z" transform="translate(-0.1953125, 19.765625) scale(1, -1)"/>
</svg>