<svg height="18.734375" viewBox="0 0 24 18.734375" width="24" xmlns="http://www.w3.org/2000/svg">
<path d="M7.921875,17.734375 C8.390625,17.03125 8.96875,16.640625 9.6875,16.46875 C10.390625,16.296875 11.25,16.34375 12.265625,16.53125 C11.859375,16.015625 11.3125,15.3125 10.671875,14.53125 C10.046875,13.75 9.3125,12.875 8.578125,12.03125 C7.828125,11.1875 7.09375,10.375 6.390625,9.671875 C5.21875,8.484375 4.4375,7.765625 4.03125,7.390625 C3.59375,7.03125 3.578125,6.75 3.578125,6.359375 C3.578125,6.171875 3.59375,6.015625 3.609375,5.890625 C3.640625,5.640625 3.65625,5.140625 4.015625,5.078125 C4.359375,5 4.828125,5.578125 5.21875,5.96875 C5.40625,6.171875 5.578125,6.328125 5.734375,6.453125 C6.046875,6.734375 6.453125,7.0625 6.875,7.3125 C7.28125,7.578125 7.703125,7.765625 8.0625,7.765625 C8.28125,7.765625 8.515625,7.671875 8.71875,7.453125 C8.921875,7.21875 9.078125,6.859375 9.171875,6.296875 C9.21875,5.75 9.234375,4.90625 9.203125,4.0625 C9.15625,3.21875 9.109375,2.40625 9.078125,1.921875 C9.03125,1.328125 8.984375,1.015625 8.90625,0.546875 C8.859375,0.28125 8.9375,0.03125 9.171875,-0.1875 C9.40625,-0.4375 9.671875,-0.53125 9.84375,-0.53125 C10.0625,-0.53125 10.3125,-0.3125 10.390625,0.140625 C10.4375,0.453125 10.609375,0.796875 10.78125,1.125 C11.265625,2.09375 11.84375,3.109375 12.46875,4.046875 C13.09375,4.96875 13.75,5.796875 14.40625,6.40625 C14.890625,6.875 15.359375,7.15625 15.796875,7.3125 C16.21875,7.484375 16.609375,7.515625 16.90625,7.515625 C17.515625,7.515625 18.03125,7.21875 18.4375,6.796875 C18.640625,6.578125 18.78125,6.390625 18.890625,6.125 C18.984375,5.875 19.03125,5.5625 19.03125,5.15625 C19.03125,4.453125 18.828125,3.9375 18.4375,3.515625 C18.03125,3.09375 17.453125,2.78125 16.703125,2.453125 L17.0625,1.953125 C18.34375,2.359375 19.03125,2.734375 19.53125,3.09375 C20.375,3.6875 20.765625,4.3125 20.765625,5.203125 C20.765625,5.90625 20.53125,6.671875 19.828125,7.328125 C19,8.109375 18.03125,8.359375 16.953125,8.359375 C16.109375,8.359375 15.078125,7.984375 13.765625,6.875 C13.203125,6.40625 12.625,5.78125 12.046875,5.046875 C11.46875,4.328125 10.9375,3.515625 10.515625,2.765625 C10.53125,3.046875 10.546875,3.625 10.5625,4.25 C10.578125,4.859375 10.578125,5.515625 10.578125,5.953125 C10.578125,6.875 10.203125,7.4375 9.78125,7.875 C9.546875,8.109375 9.234375,8.265625 8.9375,8.359375 C8.65625,8.453125 8.375,8.46875 8.140625,8.46875 C7.5625,8.46875 6.828125,8.203125 5.84375,7.578125 L7.90625,9.90625 C8.609375,10.671875 9.265625,11.421875 9.90625,12.125 C11.171875,13.53125 12.3125,14.796875 13.203125,15.734375 C13.578125,16.15625 13.796875,16.3125 14.0625,16.53125 C14.40625,16.8125 14.5,16.9375 14.5,17.203125 C14.5,17.375 14.3125,17.671875 14.046875,17.859375 C13.671875,18.125 13.203125,18.203125 12.84375,18.03125 C12.625,17.921875 12.203125,17.796875 11.796875,17.6875 C11.28125,17.5625 10.5625,17.5 9.890625,17.546875 C9.21875,17.59375 8.609375,17.75 8.28125,18.09375 Z" transform="translate(-0.171875, 18.203125) scale(1, -1)"/>
</svg>