<svg height="21.890625" viewBox="0 0 24 21.890625" width="24" xmlns="http://www.w3.org/2000/svg">
<path d="M12.546875,18.84375 C12.828125,18.953125 13.0625,19.015625 13.234375,19.03125 C13.40625,19.046875 13.53125,19.046875 13.609375,19.015625 C13.75,18.953125 13.71875,18.796875 13.578125,18.640625 C12.59375,17.609375 11.5625,16.734375 10.109375,15.796875 L10.53125,15.4375 C12.046875,16.328125 13.34375,17.171875 14.421875,17.984375 C14.859375,18.3125 15.15625,18.578125 15.3125,18.796875 C15.484375,19.015625 15.515625,19.203125 15.5,19.390625 C15.5,19.625 15.359375,19.78125 15.125,19.890625 C14.875,19.984375 14.484375,19.984375 13.96875,19.875 C13.4375,19.78125 12.921875,19.5625 12.34375,19.25 Z M8.09375,19.328125 C7.8125,18.921875 7.578125,18.53125 7.4375,17.9375 C7.34375,17.46875 7.3125,17.046875 7.390625,16.765625 C7.671875,15.828125 8.109375,15.734375 8.953125,16.390625 C9.9375,17.140625 10.8125,17.859375 11.328125,18.3125 L11.140625,18.796875 C10.765625,18.578125 10.390625,18.34375 10.015625,18.125 C9.65625,17.890625 9.3125,17.703125 9,17.5625 C8.40625,17.296875 8.21875,17.5 8.265625,18.03125 C8.3125,18.453125 8.4375,18.8125 8.609375,19.171875 Z M14.375,16.171875 C14,16.28125 13.65625,16.203125 13.328125,15.921875 L12.53125,15.234375 C12.296875,15.03125 12.125,14.90625 11.9375,14.8125 C11.75,14.703125 11.5625,14.625 11.3125,14.515625 C10.84375,14.328125 9.96875,14.046875 9.015625,13.796875 C8.0625,13.546875 7.015625,13.3125 6.21875,13.21875 C5.609375,13.140625 5.375,13.515625 5.765625,14.1875 L5.328125,14.3125 C4.921875,13.90625 4.765625,13.390625 4.8125,12.96875 C4.8125,12.6875 4.9375,12.421875 5.171875,12.25 C5.390625,12.078125 5.75,11.984375 6.21875,12.046875 C6.78125,12.109375 7.609375,12.3125 8.421875,12.546875 C9.21875,12.78125 10.015625,13.0625 10.515625,13.25 C10.0625,12.828125 9.484375,12.328125 8.875,11.796875 C8.25,11.28125 7.59375,10.71875 7,10.234375 C6.40625,9.734375 5.875,9.296875 5.5,9 C5.15625,8.734375 5.046875,8.65625 4.875,8.5625 C4.703125,8.484375 4.53125,8.3125 4.484375,8.0625 C4.4375,7.84375 4.421875,7.390625 4.46875,7.15625 C4.515625,6.875 4.953125,6.796875 5.453125,7.078125 C5.71875,7.234375 6.140625,7.484375 6.546875,7.671875 C8.859375,8.75 11.09375,9.796875 13.390625,11.0625 C13.484375,10.828125 13.625,10.578125 13.765625,10.3125 C13.921875,10.046875 14.046875,9.8125 14.140625,9.625 C13.625,9.359375 13.09375,9.078125 12.515625,8.78125 C11.9375,8.484375 11.375,8.203125 10.8125,7.90625 C9.6875,7.328125 8.640625,6.734375 7.90625,6.171875 C7.25,5.65625 6.921875,5.203125 6.921875,4.671875 C6.921875,4.40625 7.0625,4.171875 7.265625,3.96875 C7.484375,3.78125 7.765625,3.625 8.046875,3.53125 C8.421875,3.40625 9.046875,3.359375 9.6875,3.359375 C10.34375,3.359375 11,3.40625 11.40625,3.5 L11.40625,0.21875 C11.40625,-0.21875 11.265625,-0.234375 11,-0.09375 C10.28125,0.296875 9.296875,0.734375 8.40625,1.0625 C8.625,1.15625 8.84375,1.265625 9.03125,1.375 C9.234375,1.484375 9.453125,1.578125 9.671875,1.65625 L9.484375,2.15625 C8.15625,1.703125 7.15625,1.25 6.03125,0.734375 C5.21875,0.375 4.90625,0.625 5.046875,1.25 C5.125,1.609375 5.25,1.953125 5.421875,2.1875 L5.0625,2.46875 C4.71875,2.09375 4.40625,1.609375 4.21875,1.0625 C4.0625,0.625 4.015625,0.1875 4.15625,-0.3125 C4.25,-0.65625 4.46875,-0.84375 4.75,-0.890625 C5.015625,-0.9375 5.328125,-0.84375 5.609375,-0.640625 C5.984375,-0.375 6.234375,-0.21875 6.59375,0 C7.03125,0.265625 7.46875,0.53125 7.90625,0.78125 C8.890625,0.359375 9.96875,-0.265625 10.71875,-0.96875 C10.953125,-1.15625 11.09375,-1.296875 11.3125,-1.578125 C11.5625,-1.90625 11.90625,-1.90625 12.3125,-1.484375 C12.453125,-1.34375 12.578125,-1.203125 12.640625,-0.96875 C12.71875,-0.75 12.734375,-0.484375 12.71875,-0.09375 C12.640625,1.234375 12.609375,2.546875 12.640625,3.671875 C13.53125,3.890625 14.28125,4.203125 14.703125,4.578125 C15.125,4.953125 15.25,5.375 14.859375,5.890625 C14.53125,6.3125 13.859375,6.765625 13.15625,7.015625 C12.40625,7.28125 11.9375,7.03125 11.734375,6.59375 C11.515625,6.09375 11.515625,5.5625 11.46875,4.609375 C11.140625,4.515625 10.5,4.4375 9.890625,4.421875 C9.265625,4.390625 8.671875,4.4375 8.40625,4.53125 C7.65625,4.859375 7.765625,5.328125 8.375,5.765625 C9.125,6.28125 10.171875,6.84375 11.265625,7.40625 C12.34375,7.96875 13.5,8.515625 14.515625,8.984375 C15,8.375 15.484375,7.890625 16.015625,7.421875 C16.53125,6.953125 17.125,6.515625 17.796875,6.046875 C17.984375,5.90625 18.265625,5.78125 18.5,5.6875 C18.75,5.578125 19,5.515625 19.171875,5.515625 C19.5625,5.515625 20.0625,5.546875 20.328125,5.859375 C20.421875,5.953125 20.5,6.140625 20.515625,6.328125 C20.546875,6.515625 20.515625,6.734375 20.375,6.875 C19.96875,7.328125 19.5,8 19.078125,8.75 C18.65625,9.5 18.28125,10.328125 18.09375,11.046875 C18.484375,11.3125 18.859375,11.5625 19.140625,11.84375 C19.40625,12.125 19.59375,12.40625 19.609375,12.734375 C19.625,13.046875 19.46875,13.3125 19.125,13.53125 C18.78125,13.765625 18.234375,13.90625 17.46875,13.96875 L17.328125,13.46875 C18.3125,13.28125 18.390625,12.796875 17.953125,12.296875 C17.296875,11.546875 16.25,10.765625 15.171875,10.203125 C14.890625,10.609375 14.640625,11.015625 14.359375,11.59375 C14.453125,11.6875 14.578125,11.859375 14.65625,12.046875 C14.8125,12.4375 14.640625,12.734375 14.359375,12.84375 C14.09375,12.9375 13.71875,13.015625 13.484375,13.015625 C13.03125,13.015625 12.828125,12.828125 12.875,12.4375 C12.90625,12.171875 12.984375,11.9375 13.078125,11.640625 C10.703125,10.46875 8.46875,9.484375 6.21875,8.765625 C6.828125,9.296875 7.625,9.96875 8.5,10.671875 C9.375,11.375 10.328125,12.125 11.265625,12.84375 C11.375,12.921875 11.46875,13.015625 11.609375,13.109375 L11.984375,13.421875 C12.265625,13.625 12.515625,13.8125 12.734375,13.90625 C12.9375,13.984375 13.109375,14.046875 13.265625,14.125 C13.578125,14.265625 13.859375,14.40625 14.140625,14.5625 C14.421875,14.703125 15.140625,15.03125 15.296875,15.4375 C15.375,15.640625 15.34375,15.78125 15.1875,15.875 C14.859375,16.0625 14.671875,16.09375 14.375,16.171875 Z M17.546875,10.703125 C17.953125,9.625 18.40625,8.5 19.0625,7.21875 C19.234375,6.890625 19.0625,6.859375 18.828125,6.984375 C17.421875,7.703125 16.4375,8.484375 15.59375,9.546875 C16.578125,10.0625 17.1875,10.4375 17.546875,10.703125 Z M12.671875,4.828125 C12.671875,5.0625 12.6875,5.328125 12.703125,5.578125 C12.734375,5.8125 12.75,6.03125 12.796875,6.171875 C12.953125,6.6875 13.4375,6.34375 13.65625,6.171875 C13.859375,6.015625 14.1875,5.609375 13.8125,5.265625 C13.609375,5.09375 13.234375,4.9375 12.671875,4.828125 Z M20,0.640625 C19.859375,1.125 19.609375,1.4375 18.9375,1.8125 C17.734375,2.453125 16.375,2.84375 14.453125,2.9375 L14.359375,2.5 C15.875,2.125 17.265625,1.4375 18.125,0.6875 C18.6875,0.1875 19.078125,-0.1875 19.4375,-0.1875 C19.828125,-0.1875 20.140625,0.09375 20,0.640625 Z" transform="translate(-0.28125, 19.984375) scale(1, -1)"/>
</svg>