<svg height="21.8125" viewBox="0 0 24 21.8125" width="24" xmlns="http://www.w3.org/2000/svg">
<path d="M9.125,19.515625 C9.359375,19.0625 9.734375,18.734375 10.15625,18.5 C10.578125,18.265625 11.0625,18.15625 11.5625,18.125 C11.375,17.984375 11.09375,17.8125 10.8125,17.65625 C10.53125,17.484375 10.21875,17.328125 9.9375,17.1875 L10.25,16.78125 L12.71875,17.734375 C12.890625,17.796875 13.015625,17.84375 13.109375,17.890625 C13.296875,17.953125 13.484375,17.984375 13.765625,18.015625 C13.890625,18.03125 14,18.0625 14.09375,18.125 C14.421875,18.3125 14.515625,18.5625 14.375,18.890625 C14.1875,19.421875 13.65625,19.609375 13.03125,19.421875 C12.65625,19.3125 12.359375,19.234375 12.0625,19.203125 C11.75,19.15625 11.421875,19.171875 11.046875,19.21875 C10.484375,19.296875 9.890625,19.4375 9.453125,19.8125 Z M19.515625,16.921875 C18.890625,16.84375 17.953125,16.734375 17.0625,16.609375 C16.359375,16.515625 15.875,16.4375 15.40625,16.359375 L14.6875,16.25 C14.4375,16.21875 14.171875,16.171875 13.875,16.125 C13.484375,16.0625 13.03125,16.015625 12.546875,15.921875 C12.03125,15.84375 11.53125,15.78125 11,15.6875 C9.96875,15.53125 8.875,15.359375 7.953125,15.1875 C7.484375,15.109375 7.0625,15.03125 6.703125,14.96875 C6.34375,14.90625 6.046875,14.84375 5.84375,14.8125 C4.8125,14.625 4.203125,14.578125 3.8125,14.6875 C3.40625,14.78125 3.21875,15.03125 3,15.4375 L2.5,15.078125 C2.84375,13.859375 3.359375,13.265625 3.84375,13.078125 C4.21875,12.921875 4.46875,12.953125 4.96875,13.125 C5.53125,13.3125 6.40625,13.609375 7.40625,13.90625 C8.40625,14.1875 9.546875,14.515625 10.625,14.796875 C11.71875,15.0625 12.796875,15.265625 13.65625,15.359375 C14.890625,15.5 15.890625,15.578125 16.484375,15.578125 C16.8125,15.578125 17.40625,15.5625 18.03125,15.53125 C18.640625,15.5 19.34375,15.421875 19.90625,15.3125 C20.375,15.21875 20.75,15.203125 21.046875,15.296875 C21.28125,15.375 21.4375,15.53125 21.4375,15.875 C21.4375,16.015625 21.265625,16.390625 20.890625,16.625 C20.421875,16.921875 19.953125,16.984375 19.515625,16.921875 Z M9.5,13.4375 C9.59375,13.125 9.6875,12.796875 9.890625,12.59375 C10.171875,12.3125 10.484375,12.21875 10.8125,12.21875 C11.046875,12.21875 11.1875,12.203125 11.09375,11.90625 C10.90625,11.453125 10.546875,10.90625 10.28125,10.625 C10.015625,10.34375 9.890625,10.15625 10.03125,9.9375 C10.203125,9.671875 10.421875,9.34375 10.609375,9.171875 C10.8125,8.984375 11.0625,8.90625 11.203125,8.90625 C11.421875,8.90625 11.59375,8.9375 11.84375,9.125 C12.03125,9.265625 12.359375,9.40625 12.671875,9.5 C13.078125,9.640625 13.671875,9.71875 14.140625,9.71875 C14.453125,9.71875 14.84375,9.625 15.125,9.359375 C15.421875,9.109375 15.640625,8.65625 15.640625,8 C15.640625,7.28125 15.4375,6.453125 14.90625,5.9375 C14.34375,5.375 13.578125,5 13.109375,4.828125 C13.09375,4.96875 13.0625,5.21875 13.015625,5.453125 C12.96875,5.6875 12.921875,5.921875 12.875,6.046875 C12.640625,6.671875 12.4375,7 12.046875,7.21875 C11.5625,7.484375 11.140625,7.453125 10.578125,6.796875 C10.34375,6.515625 9.921875,6.109375 9.46875,5.703125 C9,5.3125 8.5,4.90625 8.109375,4.671875 C7.65625,4.40625 7.34375,4.203125 7.34375,3.921875 C7.34375,3.765625 7.390625,3.625 7.53125,3.515625 C7.671875,3.40625 7.90625,3.3125 8.328125,3.265625 C8.8125,3.21875 9.265625,3.171875 9.796875,3.234375 C10.171875,3.28125 10.578125,3.34375 10.9375,3.40625 C11.28125,3.484375 11.578125,3.546875 11.765625,3.625 C11.765625,3.390625 11.75,3.078125 11.734375,2.796875 C11.703125,2.5 11.65625,2.203125 11.609375,1.96875 C11.4375,1.171875 11.1875,0.53125 10.765625,0.046875 C10.390625,-0.375 9.96875,-0.734375 9.59375,-1 C9.21875,-1.265625 8.890625,-1.453125 8.703125,-1.53125 L9.078125,-2 C9.78125,-1.765625 10.71875,-1.1875 11.609375,-0.296875 C12.21875,0.3125 12.640625,1.078125 12.875,1.703125 C13.0625,2.28125 13.125,3.125 13.125,3.96875 C13.828125,4.15625 14.6875,4.484375 15.53125,5.0625 C16.140625,5.484375 16.5625,5.984375 16.828125,6.484375 C17.09375,6.96875 17.203125,7.46875 17.203125,7.90625 C17.203125,8.609375 17.015625,9.203125 16.515625,9.71875 C15.9375,10.296875 14.984375,10.46875 14.140625,10.46875 C13.765625,10.46875 13.25,10.4375 12.71875,10.375 C12.171875,10.3125 11.609375,10.203125 11.1875,10.109375 C11.328125,10.390625 11.59375,10.734375 11.84375,11.0625 C12.109375,11.390625 12.375,11.703125 12.578125,11.90625 C12.71875,12.046875 12.9375,12.234375 13.125,12.359375 C13.328125,12.5 13.328125,12.671875 13.28125,12.875 C13.234375,13.046875 13.078125,13.25 12.9375,13.375 C12.703125,13.578125 12.4375,13.53125 12.1875,13.4375 C11.953125,13.34375 11.65625,13.296875 11.359375,13.265625 C11.046875,13.25 10.734375,13.25 10.484375,13.328125 C10.203125,13.40625 10,13.53125 9.875,13.703125 Z M11.703125,4.4375 C11.46875,4.359375 11.0625,4.265625 10.609375,4.1875 C10.15625,4.109375 9.65625,4.0625 9.265625,4.0625 C9.046875,4.0625 8.9375,4.078125 8.9375,4.171875 C8.953125,4.25 9.0625,4.359375 9.265625,4.53125 C9.421875,4.671875 9.6875,4.9375 9.921875,5.21875 C10.171875,5.5 10.4375,5.796875 10.578125,6.03125 C10.96875,6.546875 11.234375,6.4375 11.421875,6 C11.5625,5.65625 11.65625,5.109375 11.703125,4.4375 Z" transform="translate(0.03125, 19.8125) scale(1, -1)"/>
</svg>