<svg height="20.390625" viewBox="0 0 24 20.390625" width="24" xmlns="http://www.w3.org/2000/svg">
<path d="M6.5,18.984375 C7.171875,18.765625 7.65625,18.359375 7.78125,17.46875 C7.859375,16.96875 7.859375,16.34375 7.828125,15.734375 C7.171875,15.609375 6.671875,15.59375 6.21875,15.59375 C5.1875,15.640625 4.65625,15.953125 4.21875,16.421875 L3.921875,16.03125 C4.4375,15.0625 5.1875,14.671875 6.453125,14.5625 C6.796875,14.53125 7.21875,14.59375 7.703125,14.640625 C7.65625,14.140625 7.625,13.609375 7.59375,13.03125 C7.5625,12.453125 7.53125,11.921875 7.515625,11.421875 C7.46875,11.703125 7.296875,11.84375 7.109375,11.9375 C6.90625,12.015625 6.671875,12.015625 6.484375,12 C5.9375,11.921875 5.09375,11.390625 4.25,10.671875 C3.71875,10.21875 3.4375,9.75 3.4375,9.390625 C3.4375,9.1875 3.453125,9.015625 3.578125,8.859375 C3.6875,8.703125 3.890625,8.5625 4.28125,8.421875 L4.578125,8.703125 C4.265625,8.953125 4.28125,9.046875 4.421875,9.265625 C4.609375,9.546875 4.84375,9.8125 5.015625,9.9375 C5.296875,10.140625 5.515625,10.28125 5.671875,10.359375 C5.984375,10.53125 6.09375,10.484375 6.0625,10.234375 C6.046875,10.109375 6.015625,9.9375 5.953125,9.71875 C5.84375,9.296875 5.65625,8.65625 5.453125,8.03125 C5.234375,7.390625 5,6.78125 4.8125,6.4375 C4.65625,6.171875 4.546875,5.953125 4.46875,5.796875 C4.390625,5.65625 4.28125,5.515625 4.171875,5.40625 C4.046875,5.28125 3.96875,5.15625 3.9375,5 C3.921875,4.828125 3.96875,4.609375 4.109375,4.28125 C4.328125,3.796875 4.578125,3.75 5.234375,4.296875 C5.515625,4.53125 5.890625,4.875 6.265625,5.21875 C6.640625,5.5625 7.015625,5.890625 7.25,6.125 C7.375,6.078125 7.484375,5.984375 7.609375,5.890625 C7.734375,5.796875 7.859375,5.6875 8,5.6875 C8.1875,5.6875 8.328125,5.796875 8.4375,5.984375 C8.546875,6.15625 8.609375,6.375 8.609375,6.59375 L8.609375,7.328125 C9.46875,8.390625 10.140625,9.34375 10.75,10.328125 C11.359375,11.3125 11.9375,12.359375 12.625,13.578125 L12.296875,13.90625 C10.921875,11.84375 9.671875,10.1875 8.59375,8.859375 C8.5625,9.65625 8.578125,10.75 8.640625,11.84375 C8.6875,12.921875 8.765625,14.03125 8.859375,14.859375 C9.296875,14.96875 9.71875,15.09375 10.125,15.21875 C10.953125,15.5 11.640625,15.828125 11.640625,16.203125 C11.640625,16.328125 11.578125,16.5 11.40625,16.625 C11.203125,16.765625 10.875,16.828125 10.671875,16.828125 C10.546875,16.828125 10.421875,16.8125 10.3125,16.765625 C10.078125,16.6875 9.734375,16.484375 9.4375,16.296875 C9.28125,16.203125 9.125,16.125 8.953125,16.0625 C9,16.46875 9.0625,16.921875 9.140625,17.3125 C9.265625,17.984375 9.296875,18.375 8.953125,18.640625 C8.71875,18.828125 8.40625,19.015625 8.03125,19.171875 C7.65625,19.3125 7.21875,19.4375 6.796875,19.46875 Z M16.53125,18.078125 C16.296875,18.078125 15.84375,17.953125 15.296875,17.546875 C14.90625,17.25 14.46875,16.84375 14.09375,16.4375 C13.71875,16.046875 13.421875,15.640625 13.25,15.359375 L13.625,15.03125 C14.28125,15.734375 14.84375,16.21875 15.171875,16.484375 C15.765625,17 15.953125,16.78125 15.875,16.125 C15.828125,15.796875 15.78125,15.453125 15.71875,15.125 C15.65625,14.8125 15.59375,14.546875 15.546875,14.40625 C15.40625,13.96875 15.375,13.78125 15.640625,13.515625 C15.984375,13.171875 16.15625,13.09375 16.578125,13.28125 C16.90625,13.421875 17.28125,13.5625 17.65625,13.65625 C18.03125,13.734375 18.359375,13.765625 18.640625,13.703125 C19.078125,13.609375 19.203125,13.296875 19.015625,12.890625 C18.78125,12.4375 18.3125,11.890625 17.5625,11.375 C16.671875,10.765625 15.59375,10.28125 14.515625,9.921875 C14.390625,10.015625 14.234375,10.140625 14.015625,10.25 C13.65625,10.421875 13.125,10.46875 12.359375,10.46875 L12.21875,9.984375 C12.671875,9.84375 12.921875,9.703125 13.0625,9.546875 C13.203125,9.40625 13.25,9.25 13.25,9.078125 C13.25,8.796875 13.109375,8.359375 12.96875,7.953125 C12.21875,7.703125 11.46875,7.484375 11,7.484375 C10.765625,7.484375 10.703125,7.53125 10.90625,7.765625 C10.953125,7.890625 11.125,8.03125 11.375,8.1875 L10.96875,8.40625 C10.78125,8.3125 10.515625,8.140625 10.265625,7.96875 C10.015625,7.796875 9.78125,7.59375 9.6875,7.4375 C9.484375,7.109375 9.421875,6.78125 9.53125,6.5 C9.625,6.265625 9.984375,6.125 10.21875,6.125 C10.65625,6.125 11.0625,6.234375 11.765625,6.546875 C12.03125,6.6875 12.28125,6.78125 12.546875,6.875 C12.03125,5.5 11.375,4.34375 10.8125,3.59375 C9.53125,1.953125 8.1875,0.890625 6.828125,0.140625 L7.203125,-0.296875 C8.5625,0.21875 9.796875,1.03125 11.15625,2.359375 C11.40625,1.5625 11.625,1.109375 11.8125,0.6875 C12.21875,-0.21875 13.015625,-0.921875 14.09375,-0.921875 C14.796875,-0.921875 15.625,-0.671875 16.328125,0.265625 C16.796875,0.890625 17.1875,1.9375 17.484375,3.046875 C17.765625,4.15625 17.9375,5.34375 17.9375,6.265625 C17.9375,7.203125 17.734375,7.765625 17.546875,8.015625 C17.3125,8.3125 17.09375,8.484375 16.8125,8.59375 C16.53125,8.6875 16.21875,8.703125 15.796875,8.703125 C15.40625,8.703125 14.953125,8.609375 14.5,8.46875 C14.546875,8.65625 14.59375,8.8125 14.625,8.96875 C14.65625,9.109375 14.6875,9.234375 14.6875,9.359375 C15.828125,9.734375 16.96875,10.21875 18,10.71875 C18.4375,10.953125 18.875,11.21875 19.25,11.46875 C19.625,11.703125 19.90625,11.96875 20.09375,12.171875 C20.453125,12.59375 20.640625,12.9375 20.640625,13.421875 C20.640625,13.875 20.28125,14.234375 19.828125,14.359375 C19.390625,14.484375 18.84375,14.53125 18.09375,14.453125 C17.546875,14.390625 16.953125,14.3125 16.421875,14.15625 C16.546875,14.453125 16.734375,14.9375 16.921875,15.40625 C17.109375,15.875 17.28125,16.359375 17.375,16.703125 C17.46875,17.046875 17.515625,17.25 17.328125,17.46875 C17.15625,17.703125 17,17.859375 16.875,17.9375 C16.75,18.03125 16.625,18.078125 16.53125,18.078125 Z M7.53125,11 C7.53125,10.59375 7.515625,10.25 7.5,9.953125 L7.46875,9.140625 C7.453125,8.65625 7.4375,8.25 7.4375,7.78125 C7.328125,7.671875 7.1875,7.53125 7.015625,7.390625 C6.6875,7.109375 6.3125,6.828125 5.9375,6.546875 C5.75,6.40625 5.578125,6.265625 5.421875,6.140625 C6.234375,7.609375 7.015625,9.296875 7.53125,11 Z M15.640625,7.859375 C15.921875,7.90625 16.140625,7.859375 16.296875,7.625 C16.4375,7.390625 16.515625,6.953125 16.515625,6.234375 C16.515625,5.578125 16.421875,4.671875 16.25,3.78125 C16.0625,2.890625 15.796875,2.015625 15.453125,1.4375 C15.1875,0.984375 14.96875,0.703125 14.734375,0.546875 C14.5,0.375 14.28125,0.3125 14,0.3125 C13.484375,0.3125 13.078125,0.5 12.6875,0.9375 C12.3125,1.390625 11.953125,2 11.640625,2.8125 C12.625,3.890625 13.5,5.3125 14.15625,7.421875 C14.765625,7.640625 15.328125,7.796875 15.640625,7.859375 Z" transform="translate(-0.0390625, 19.46875) scale(1, -1)"/>
</svg>