<svg height="19.359375" viewBox="0 0 24 19.359375" width="24" xmlns="http://www.w3.org/2000/svg">
<path d="M17.140625,18.734375 C16.390625,18.734375 15.53125,18.578125 14.546875,18.046875 C13.328125,17.375 12.4375,16.625 11.765625,15.921875 L12.1875,15.390625 C12.78125,15.890625 13.390625,16.359375 13.953125,16.671875 C14.890625,17.203125 15.71875,17.40625 16.015625,17.453125 C16.484375,17.53125 16.578125,17.40625 16.484375,17.0625 C16.296875,16.390625 15.78125,15.3125 14.984375,13.8125 C14.828125,13.53125 14.578125,13.09375 14.296875,12.609375 C14,12.125 13.671875,11.609375 13.390625,11.140625 C13.09375,10.671875 12.8125,10.28125 12.625,10.0625 C12.453125,9.859375 12.265625,9.625 12.046875,9.359375 C11.84375,9.109375 11.609375,8.890625 11.359375,8.6875 C11.015625,8.4375 10.875,8.140625 10.875,7.34375 C10.875,6.984375 10.96875,6.78125 11.109375,6.671875 C11.25,6.546875 11.421875,6.53125 11.609375,6.578125 C12.09375,6.703125 12.453125,7.390625 12.890625,8.265625 C13.21875,8.921875 13.625,9.5625 14,10.125 C14.375,10.6875 14.734375,11.15625 15,11.453125 C15.71875,12.265625 16.28125,12.5 16.90625,12.5 C17.40625,12.5 17.703125,12.265625 17.890625,11.890625 C18.078125,11.5 18.125,10.953125 18.125,10.375 C18.125,10.015625 18.078125,9.59375 17.984375,9.203125 C17.890625,8.796875 17.75,8.40625 17.546875,8.109375 C17.21875,7.625 16.53125,7.125 15.78125,6.796875 C16.140625,7.78125 16.375,8.59375 16.375,8.890625 C16.375,9.59375 16.125,9.734375 15.671875,9.734375 C15.265625,9.734375 14.765625,9.4375 14.40625,9.140625 L14.546875,8.640625 C15.03125,8.953125 15.171875,8.796875 15.03125,8.140625 C14.9375,7.671875 14.671875,6.96875 14.3125,6.171875 C13.953125,5.375 13.46875,4.484375 12.953125,3.6875 C12.421875,2.890625 11.84375,2.1875 11.265625,1.71875 C10.859375,1.40625 10.546875,1.234375 10.375,0.875 C10.15625,0.390625 10.15625,-0.03125 10.328125,-0.265625 C10.515625,-0.546875 10.921875,-0.5 11.328125,-0.21875 C11.703125,0.0625 12.1875,0.640625 12.59375,1.25 C13.078125,1.953125 13.578125,2.5625 13.953125,2.890625 C14.28125,3.171875 14.546875,3.359375 14.84375,3.421875 C15.15625,3.5 15.484375,3.4375 15.921875,3.21875 C16.296875,3.03125 16.828125,2.5625 17.28125,2.109375 C17.46875,1.9375 17.765625,1.578125 18.09375,1.15625 C18.40625,0.75 18.734375,0.296875 18.96875,-0.046875 C19.140625,-0.3125 19.28125,-0.453125 19.390625,-0.546875 C19.515625,-0.625 19.609375,-0.625 19.703125,-0.625 C20.109375,-0.625 20.453125,-0.265625 20.453125,0.171875 C20.453125,0.390625 20.421875,0.578125 20.328125,0.78125 C20.234375,1 20.078125,1.234375 19.8125,1.5625 C19.390625,2.0625 18.828125,2.578125 18.265625,3 C17.6875,3.421875 17.140625,3.765625 16.765625,3.9375 C16.296875,4.140625 15.9375,4.25 15.5625,4.265625 C15.1875,4.265625 14.796875,4.171875 14.328125,3.984375 C14.703125,4.4375 15.046875,5.109375 15.359375,5.859375 C16.71875,6.171875 17.75,6.703125 18.453125,7.46875 C18.78125,7.8125 19.0625,8.3125 19.28125,8.859375 C19.484375,9.40625 19.609375,9.984375 19.609375,10.484375 C19.609375,11.34375 19.421875,12.078125 19.09375,12.578125 C18.75,13.078125 18.25,13.375 17.59375,13.375 C16.703125,13.375 16.109375,13.171875 15.359375,12.625 C15.640625,13.109375 15.953125,13.65625 16.28125,14.1875 C16.59375,14.703125 16.921875,15.203125 17.203125,15.625 C17.90625,16.65625 18.34375,17.40625 18.34375,17.90625 C18.34375,18.40625 18.03125,18.734375 17.140625,18.734375 Z M4.921875,18 C5.375,17.5 5.546875,16.875 5.5,16.078125 C5.484375,15.84375 5.4375,15.59375 5.375,15.25 C5.328125,14.890625 5.21875,14.4375 5.0625,13.828125 C4.828125,12.875 4.625,12.03125 4.484375,11.296875 C4.15625,9.8125 3.9375,8.609375 3.828125,7.578125 C3.734375,6.546875 3.640625,5.3125 3.734375,4.015625 C3.8125,2.703125 4.03125,1.515625 4.265625,0.734375 C4.484375,-0.03125 4.75,-0.546875 5.265625,-0.546875 C5.59375,-0.546875 5.921875,-0.234375 5.953125,0.4375 C5.984375,1.328125 6.09375,2.046875 6.34375,2.9375 C6.59375,3.8125 6.984375,4.8125 7.625,6.265625 L7.171875,6.671875 C6.40625,5.203125 5.671875,3.78125 5.015625,2.5625 C4.84375,3.328125 4.765625,4.109375 4.765625,4.921875 C4.765625,5.734375 4.84375,6.625 5,7.609375 C5.140625,8.578125 5.359375,9.75 5.640625,10.953125 C5.90625,12.140625 6.234375,13.359375 6.640625,14.453125 C6.84375,14.984375 6.96875,15.40625 7.015625,15.734375 C7.0625,16.078125 7.015625,16.375 6.875,16.703125 C6.765625,16.9375 6.546875,17.25 6.28125,17.5625 C6.015625,17.859375 5.703125,18.140625 5.375,18.359375 Z" transform="translate(-0.046875, 18.734375) scale(1, -1)"/>
</svg>