<svg height="21.171875" viewBox="0 0 24 21.171875" width="24" xmlns="http://www.w3.org/2000/svg">
<path d="M12.578125,18.96875 C13.65625,18.921875 14.140625,18.65625 14.140625,18 C14.140625,17.515625 14.078125,17.046875 13.953125,16.65625 C13.609375,16.5 13.265625,16.359375 12.921875,16.25 C12.21875,16.03125 11.65625,15.890625 11.140625,15.890625 C10.890625,15.890625 10.640625,15.921875 10.421875,16.015625 C9.984375,16.15625 9.65625,16.3125 9.390625,16.484375 L9.125,16.03125 C9.4375,15.671875 9.828125,15.359375 10.109375,15.21875 C10.8125,14.84375 11.5,14.796875 12.390625,15.125 C12.875,15.296875 13.375,15.5 13.765625,15.6875 C13.671875,15.359375 13.625,15.078125 13.65625,14.6875 C13.6875,14.265625 13.953125,14.09375 14.453125,13.8125 C15.03125,13.484375 15.1875,12.96875 15.09375,12.3125 C14.203125,12.59375 13.375,12.71875 12.296875,12.71875 C11.546875,12.71875 10.90625,12.578125 10.453125,12.3125 C10,12.03125 9.734375,11.65625 9.734375,11.1875 C9.734375,10.703125 10.0625,10.296875 10.546875,10.015625 C11.046875,9.734375 11.734375,9.5625 12.484375,9.59375 C12.96875,9.1875 13.125,8.65625 13.03125,7.90625 C11.46875,7.765625 9.96875,7.328125 8.5,6.671875 C8.59375,7.765625 9.015625,8.65625 9.78125,9.3125 L9.359375,9.640625 C8.375,8.8125 7.78125,7.828125 7.484375,6.3125 C6.28125,5.703125 5.28125,5.046875 4.546875,4.328125 C3.828125,3.59375 3.390625,2.8125 3.390625,1.96875 C3.390625,1.3125 3.671875,0.84375 4.078125,0.546875 C4.484375,0.234375 5,0.09375 5.46875,0.09375 C6.140625,0.09375 6.828125,0.203125 7.4375,0.375 C8.046875,0.546875 8.59375,0.78125 9.03125,1.03125 C9.171875,0.953125 9.3125,0.828125 9.484375,0.671875 C9.546875,0.609375 9.65625,0.546875 9.78125,0.5 C10.046875,0.390625 10.34375,0.4375 10.53125,0.515625 C10.71875,0.59375 10.875,0.78125 10.890625,1.015625 C10.890625,1.25 10.640625,1.375 10.484375,1.484375 C10.390625,1.546875 10.296875,1.609375 10.21875,1.671875 C11.1875,2.328125 12.09375,3.234375 12.8125,4.234375 C13.515625,5.21875 14.046875,6.296875 14.265625,7.328125 C15.390625,7.375 16.390625,7.171875 17.234375,6.625 C18.171875,6.015625 18.484375,5.15625 18.484375,4.078125 C18.484375,2.859375 17.640625,1.828125 16.171875,0.984375 C14.703125,0.140625 12.78125,-0.578125 10.34375,-1.125 L10.65625,-1.671875 C13.203125,-1.21875 15.171875,-0.703125 16.875,0.09375 C19.03125,1.109375 20.0625,2.375 20.0625,4.125 C20.0625,4.828125 19.875,5.40625 19.5625,5.890625 C19.234375,6.359375 18.78125,6.765625 18.21875,7.125 C17.75,7.421875 17.125,7.65625 16.4375,7.8125 C15.765625,7.953125 15.03125,8 14.359375,8 C14.234375,8.6875 13.921875,9.234375 13.421875,9.640625 C14.734375,9.78125 15.5,10.171875 16.109375,10.96875 C16.703125,10.734375 17.421875,10.34375 18.125,9.90625 C18.8125,9.46875 19.46875,8.984375 19.921875,8.609375 C20.34375,8.25 20.5625,8.140625 20.9375,8.109375 C21.265625,8.078125 21.484375,8.28125 21.484375,8.65625 C21.484375,8.953125 21.21875,9.3125 20.6875,9.71875 C20.09375,10.1875 19.390625,10.625 18.65625,11 C17.90625,11.390625 17.140625,11.75 16.390625,12.03125 C16.34375,12.828125 16.15625,13.46875 15.3125,13.921875 C15.140625,14.015625 15,14.109375 14.890625,14.1875 C14.6875,14.375 14.59375,14.546875 14.578125,14.734375 C14.5625,14.921875 14.59375,15.234375 14.734375,15.578125 C14.796875,15.734375 14.875,15.921875 14.953125,16.15625 C15.375,16.375 15.734375,16.53125 16.015625,16.65625 C16.578125,16.875 17.265625,17.15625 17.859375,16.96875 C18.28125,16.84375 18.390625,16.34375 18.296875,15.828125 C18.25,15.546875 18.078125,15.328125 17.84375,15.171875 C17.625,15 17.359375,14.90625 17.15625,14.90625 C16.484375,14.90625 16.078125,14.953125 15.640625,15.09375 L15.5,14.65625 C15.984375,14.390625 16.5625,14.234375 17.234375,14.234375 C17.984375,14.234375 18.640625,14.421875 19.109375,14.78125 C19.5625,15.125 19.828125,15.640625 19.828125,16.25 C19.828125,16.8125 19.625,17.28125 19.03125,17.59375 C18.4375,17.90625 17.703125,17.84375 17,17.703125 C16.375,17.578125 15.734375,17.328125 15.234375,17.0625 C15.359375,17.453125 15.453125,17.890625 15.484375,18.3125 C15.5,18.921875 15.234375,19.203125 14.28125,19.390625 C13.921875,19.484375 13.375,19.5 12.71875,19.46875 Z M4.21875,18.640625 C4.515625,18.46875 4.765625,18.15625 4.90625,17.78125 C5.046875,17.40625 5.078125,17 4.90625,16.625 C4.625,16.0625 4.3125,15.203125 4.046875,14.28125 C3.78125,13.34375 3.578125,12.390625 3.53125,11.59375 C3.4375,9.984375 3.671875,8.796875 4.078125,8 C4.265625,7.625 4.53125,7.484375 4.78125,7.484375 C5.015625,7.5 5.21875,7.671875 5.265625,8 C5.3125,8.3125 5.375,8.640625 5.5625,9.125 C6.09375,10.4375 6.734375,11.59375 7.328125,12.578125 L6.84375,12.890625 C6.5625,12.484375 6.21875,11.984375 5.890625,11.484375 C5.5625,10.984375 5.25,10.46875 5.015625,10.03125 C4.921875,9.84375 4.828125,9.765625 4.765625,9.78125 C4.703125,9.796875 4.640625,9.90625 4.609375,10.109375 C4.546875,10.4375 4.5,10.765625 4.484375,11.109375 C4.484375,11.453125 4.5,11.8125 4.578125,12.265625 C4.6875,12.9375 4.90625,13.671875 5.171875,14.359375 C5.421875,15.03125 5.71875,15.65625 6,16.125 C6.515625,16.984375 6.53125,17.453125 6.078125,17.953125 C5.6875,18.390625 5.140625,18.71875 4.5625,18.96875 Z M14.9375,11.421875 C14.796875,11.015625 14.453125,10.6875 13.984375,10.46875 C13.515625,10.234375 12.921875,10.109375 12.3125,10.109375 C11.1875,10.109375 10.5625,10.546875 10.5625,11.203125 C10.5625,11.71875 11.125,11.984375 12.234375,11.984375 C12.6875,11.984375 13.203125,11.921875 13.671875,11.828125 C14.140625,11.734375 14.5625,11.609375 14.9375,11.421875 Z M12.921875,7.25 C12.71875,6.359375 12.375,5.453125 11.859375,4.578125 C11.328125,3.71875 10.625,2.90625 9.671875,2.28125 C8.859375,3.359375 8.484375,4.53125 8.453125,5.90625 C10.015625,6.671875 11.546875,7.109375 12.921875,7.25 Z M8.5,1.65625 C7.796875,1.28125 6.828125,1.0625 5.984375,1.0625 C5.140625,1.0625 4.78125,1.46875 4.78125,2.265625 C4.78125,3.46875 5.78125,4.46875 7.421875,5.40625 C7.4375,4.140625 7.8125,2.890625 8.5,1.65625 Z" transform="translate(-0.4375, 19.5) scale(1, -1)"/>
</svg>