<svg height="18.859375" viewBox="0 0 24 18.859375" width="24" xmlns="http://www.w3.org/2000/svg">
<path d="M5.5625,18.125 C6.046875,18.03125 6.40625,17.890625 6.640625,17.703125 C7.09375,17.34375 6.75,16.609375 6.46875,15.765625 C6.328125,15.34375 6.171875,14.890625 6.03125,14.421875 C4.625,14.421875 3.546875,14.796875 2.5625,15.5 L2.140625,15.03125 C3.078125,14 4.390625,13.390625 5.609375,13.296875 L4.71875,10.90625 C4.578125,10.515625 4.46875,10.21875 4.171875,9.71875 C3.90625,9.265625 3.84375,8.984375 4.21875,8.546875 C4.609375,8.109375 4.828125,8.234375 5.265625,8.859375 C5.8125,9.65625 6.40625,10.234375 7.0625,10.46875 C7.8125,10.734375 8.3125,10.515625 8.265625,9.84375 C8.21875,9.203125 7.90625,8.453125 7.484375,7.625 C7.046875,6.78125 6.484375,5.90625 5.90625,5.015625 C5.46875,4.34375 5.140625,3.765625 4.8125,3.046875 C4.578125,2.546875 4.421875,1.953125 4.421875,1.15625 C4.421875,0.828125 4.53125,0.5 4.71875,0.265625 C4.90625,0.015625 5.15625,-0.140625 5.421875,-0.140625 C5.609375,-0.140625 5.765625,-0.078125 5.9375,0.03125 C6.28125,0.234375 6.671875,0.953125 7.0625,1.609375 C7.4375,2.265625 7.8125,2.84375 8.375,3.640625 C8.9375,4.4375 9.5625,5.21875 10.109375,5.875 C10.671875,6.53125 11.03125,6.96875 11.421875,6.96875 C11.796875,6.96875 12.28125,6.34375 12.453125,5.984375 L12.6875,5.453125 C12.921875,5.015625 13.109375,4.828125 13.421875,4.71875 C13.53125,4.671875 13.6875,4.671875 13.828125,4.6875 C13.96875,4.71875 14.09375,4.78125 14.1875,4.921875 C14.40625,5.328125 14.515625,5.515625 14.765625,5.9375 C15.125,6.546875 15.78125,7.25 16.578125,7.90625 C17.375,8.5625 18.1875,8.859375 18.890625,8.859375 C19.828125,8.859375 20.40625,8.140625 20.359375,6.96875 C20.28125,5.09375 18.453125,3.359375 14.953125,1.5625 L15.484375,0.921875 C17.40625,1.796875 19.015625,2.765625 20.140625,3.796875 C21.265625,4.828125 21.921875,5.921875 21.921875,7.015625 C21.921875,7.890625 21.546875,8.53125 21.015625,8.96875 C20.484375,9.40625 19.765625,9.609375 19.109375,9.640625 C18.53125,9.65625 17.9375,9.546875 17.40625,9.359375 C16.859375,9.15625 16.34375,8.859375 15.9375,8.5625 C15.046875,7.90625 14.203125,7.125 13.71875,6.453125 C13.515625,6.78125 13.265625,7.046875 12.984375,7.28125 C12.40625,7.734375 11.609375,7.984375 10.96875,7.6875 C10.34375,7.390625 9.828125,6.828125 9.109375,5.984375 C8.390625,5.140625 7.59375,4.15625 6.8125,3.171875 C6.421875,2.671875 6.0625,2.21875 5.734375,1.8125 C5.421875,1.421875 5.359375,1.46875 5.359375,1.765625 C5.359375,2.609375 5.703125,3.484375 6.59375,4.65625 C7.5,5.84375 8.296875,6.859375 8.875,7.75 C9.4375,8.640625 9.78125,9.375 9.78125,10.03125 C9.78125,10.953125 9.03125,11.375 8,11.375 C7.25,11.375 6.359375,10.921875 5.65625,10.328125 C5.953125,11.1875 6.359375,12.265625 6.78125,13.296875 C7.234375,13.328125 7.671875,13.375 8.09375,13.4375 C8.9375,13.546875 9.6875,13.6875 10.25,13.875 C10.828125,14.046875 11.34375,14.28125 11.625,14.484375 C11.765625,14.59375 11.84375,14.703125 11.84375,14.84375 C11.84375,15.171875 11.671875,15.28125 11.265625,15.40625 C10.859375,15.546875 10.4375,15.40625 10.0625,15.21875 C9.171875,14.78125 8.375,14.5625 7.25,14.46875 L7.765625,15.6875 C7.953125,16.15625 8.109375,16.4375 8.375,16.875 C8.578125,17.21875 8.640625,17.515625 8.5625,17.796875 C8.375,18.359375 7.0625,18.671875 5.84375,18.71875 Z" transform="translate(-0.03125, 18.71875) scale(1, -1)"/>
</svg>