<svg height="18.890625" viewBox="0 0 24 18.890625" width="24" xmlns="http://www.w3.org/2000/svg">
<path d="M4.34375,12.78125 C4.484375,12.390625 4.75,11.9375 5.09375,11.546875 C5.9375,10.609375 6.875,10.390625 8.09375,10.921875 C8.328125,11.03125 8.59375,11.140625 8.84375,11.265625 C9.359375,11.484375 10,11.84375 10.671875,12.21875 C11.015625,12.421875 11.296875,12.59375 11.546875,12.71875 C11.484375,11.40625 11.453125,10.234375 11.453125,9.03125 C11.453125,7.8125 11.46875,6.546875 11.515625,5.09375 C10.4375,5.3125 9.359375,5.359375 8.375,5.265625 C7.40625,5.171875 6.546875,4.921875 5.9375,4.515625 C5.328125,4.109375 4.953125,3.578125 4.953125,2.890625 C4.953125,2.09375 5.3125,1.328125 5.984375,0.734375 C6.640625,0.125 7.65625,-0.265625 8.9375,-0.265625 C10.46875,-0.265625 11.46875,0.03125 12.078125,0.6875 C12.6875,1.34375 12.890625,2.3125 12.84375,3.625 C13.46875,3.40625 14.140625,3.125 14.796875,2.796875 C15.453125,2.46875 16.0625,2.125 16.5625,1.78125 C17.296875,1.28125 17.703125,0.84375 18.171875,0.390625 C18.625,-0.078125 18.984375,-0.09375 19.21875,0.09375 C19.390625,0.234375 19.46875,0.453125 19.46875,0.703125 C19.453125,0.953125 19.359375,1.21875 19.21875,1.4375 C18.875,1.96875 18.46875,2.328125 17.765625,2.734375 C16.203125,3.625 14.53125,4.421875 12.734375,4.875 C12.625,6.265625 12.578125,7.578125 12.59375,8.84375 C13.296875,8.5625 14.09375,8.453125 14.984375,8.453125 C16.25,8.453125 17.25,8.84375 17.96875,9.484375 C18.671875,10.125 19.0625,11 19.109375,12 C19.140625,13 18.765625,13.734375 18.15625,14.21875 C17.53125,14.6875 16.671875,14.90625 15.71875,14.90625 C14.640625,14.90625 13.703125,14.609375 12.84375,14.203125 C12.875,14.53125 12.921875,14.859375 12.96875,15.171875 C13.03125,15.5 13.078125,15.78125 13.125,16.0625 C13.25,16.765625 13.25,17.1875 13.109375,17.515625 C12.96875,17.84375 12.703125,18.015625 12.3125,18.171875 C11.765625,18.390625 10.96875,18.546875 10.078125,18.625 L9.828125,18.09375 C10.34375,18.015625 10.8125,17.8125 11.171875,17.5 C11.515625,17.1875 11.734375,16.75 11.734375,16.21875 C11.734375,15.46875 11.6875,14.59375 11.59375,13.703125 C10.78125,13.25 9.921875,12.796875 8.9375,12.390625 C8.28125,12.125 7.65625,11.984375 6.984375,11.984375 C6.484375,11.984375 6.03125,12.046875 5.609375,12.3125 C5.234375,12.546875 4.984375,12.875 4.765625,13.25 Z M12.796875,13.421875 C13.703125,13.875 14.65625,14.15625 15.453125,14.15625 C16.0625,14.15625 16.578125,13.984375 16.96875,13.640625 C17.34375,13.296875 17.5625,12.78125 17.546875,12.09375 C17.46875,10.03125 16.53125,9.140625 14.984375,9.09375 C14,9.0625 13.171875,9.1875 12.59375,9.453125 C12.640625,10.71875 12.671875,12.09375 12.796875,13.421875 Z M11.515625,4.015625 C11.609375,2.78125 11.390625,1.953125 10.9375,1.421875 C10.46875,0.890625 9.78125,0.65625 8.953125,0.640625 C7.84375,0.609375 7.0625,0.90625 6.546875,1.34375 C6.03125,1.765625 5.78125,2.328125 5.765625,2.890625 C5.75,3.4375 6.078125,3.8125 6.640625,4.0625 C7.203125,4.296875 7.984375,4.390625 8.84375,4.375 C9.6875,4.359375 10.625,4.234375 11.515625,4.015625 Z" transform="translate(0.09375, 18.625) scale(1, -1)"/>
</svg>