<svg height="19.171875" viewBox="0 0 24 19.171875" width="24" xmlns="http://www.w3.org/2000/svg">
<path d="M6.296875,17.375 C6.578125,16.8125 6.84375,16.390625 7.390625,15.890625 C7.71875,15.59375 8.046875,15.453125 8.421875,15.421875 C8.78125,15.40625 9.1875,15.5 9.734375,15.734375 C10.578125,16.109375 11.265625,16.4375 11.8125,16.8125 C12,16.9375 12.125,16.828125 12.046875,16.4375 C11.84375,15.40625 11.65625,14.046875 11.5625,12.625 C9.6875,11.828125 8.203125,11.09375 7.21875,10.328125 C6.921875,10.109375 6.734375,9.875 6.59375,9.6875 C6.359375,9.265625 6.265625,8.75 6.640625,8 C6.828125,7.671875 6.96875,7.421875 7.0625,7.0625 C6.515625,6.59375 5.96875,6.078125 5.40625,5.546875 C4.265625,4.453125 3.125,3.015625 3.125,2.203125 C3.125,1.75 3.28125,1.34375 3.796875,0.921875 C4.203125,0.578125 4.609375,0.1875 5.203125,-0.40625 C5.5625,-0.78125 5.953125,-0.828125 6.296875,-0.796875 C6.78125,-0.75 7.3125,-0.40625 7.703125,0.21875 C8.1875,1.015625 8.5,2 8.59375,3.03125 C8.71875,4.4375 8.609375,5.703125 8.28125,6.734375 C8.84375,7.25 9.546875,7.828125 10.265625,8.328125 C10.96875,8.8125 11.703125,9.21875 12.359375,9.453125 C13.109375,9.734375 13.484375,9.453125 13.375,8.609375 C13.28125,7.859375 13.15625,6.859375 13.046875,5.84375 C12.921875,4.8125 12.828125,3.75 12.78125,2.859375 C12.734375,1.9375 12.765625,1.328125 12.953125,0.875 C13.140625,0.40625 13.484375,0.125 14.0625,-0.125 C14.859375,-0.4375 15.96875,-0.59375 17.1875,-0.59375 C18.078125,-0.59375 19.21875,-0.4375 20.203125,-0.046875 C20.515625,0.078125 20.78125,0.21875 21.015625,0.359375 C21.46875,0.671875 21.984375,1.203125 21.96875,1.828125 C21.96875,2.46875 21.46875,2.9375 21.15625,3.3125 C20.84375,3.671875 20.46875,4.109375 20.015625,4.578125 C19.796875,4.796875 19.578125,5.015625 19.375,5.234375 C19.859375,5.5625 20.328125,6 20.6875,6.5 C21.03125,6.984375 21.265625,7.515625 21.265625,8.0625 C21.265625,9.09375 20.421875,9.6875 19.109375,9.6875 C18.34375,9.6875 17.765625,9.5 17.375,9.21875 C17,8.9375 16.8125,8.515625 16.8125,8.0625 C16.8125,7.6875 17,7.203125 17.28125,6.734375 C17.5625,6.25 17.96875,5.75 18.390625,5.28125 C18.203125,5.09375 17.9375,4.859375 17.625,4.625 C17.328125,4.390625 16.96875,4.1875 16.65625,4.015625 L17.0625,3.578125 C17.734375,3.9375 18.484375,4.421875 18.921875,4.765625 C19.109375,4.609375 19.34375,4.34375 19.578125,4.0625 C19.796875,3.765625 20,3.453125 20.140625,3.21875 C20.59375,2.375 20.609375,1.71875 19.8125,1.296875 C19.015625,0.875 18.046875,0.71875 17.15625,0.71875 C16.296875,0.71875 15.53125,0.78125 15,0.96875 C14.671875,1.0625 14.453125,1.1875 14.328125,1.46875 C14.1875,1.734375 14.125,2.15625 14.15625,2.859375 C14.234375,4.703125 14.484375,6.65625 14.734375,8.359375 C14.875,9.390625 14.609375,10.015625 14.140625,10.25 C13.578125,10.515625 13.015625,10.375 12.359375,10.125 C10.859375,9.5625 9.265625,8.640625 7.90625,7.65625 C7.765625,7.90625 7.578125,8.234375 7.390625,8.546875 C7.0625,9.09375 7.03125,9.484375 7.515625,9.84375 C8.0625,10.25 8.734375,10.640625 9.4375,11 C10.140625,11.34375 10.875,11.640625 11.5625,11.90625 C11.65625,11.703125 11.6875,11.546875 11.859375,11.40625 C12.03125,11.265625 12.375,11.15625 12.546875,11.15625 C12.796875,11.15625 13.015625,11.328125 13.015625,11.59375 C13.015625,11.859375 13,12.1875 13.078125,12.4375 C13.625,12.640625 14.1875,12.859375 14.765625,13.109375 C15.359375,13.34375 15.921875,13.578125 16.484375,13.8125 C17.890625,14.375 18.4375,15.03125 18.4375,15.6875 C18.4375,16.484375 17.6875,16.96875 16.609375,16.96875 C15.90625,16.96875 15.203125,16.71875 14.59375,16.265625 C13.96875,15.828125 13.421875,15.171875 13.03125,14.421875 C13.125,15.265625 13.296875,16.015625 13.4375,16.578125 C13.53125,17 13.6875,17.453125 13.53125,17.6875 C13.390625,17.90625 13.0625,18.140625 12.796875,18.234375 C12.46875,18.34375 12.21875,18.203125 11.640625,17.84375 C11.296875,17.625 10.953125,17.4375 10.578125,17.28125 C9.828125,16.953125 9.03125,16.734375 8.421875,16.734375 C8.125,16.734375 7.828125,16.8125 7.5625,16.96875 C7.15625,17.203125 6.9375,17.453125 6.640625,17.765625 Z M13.25,13.21875 C13.84375,14.828125 14.65625,15.8125 15.640625,16.171875 C15.96875,16.296875 16.28125,16.28125 16.484375,16.171875 C16.703125,16.0625 16.828125,15.859375 16.828125,15.625 C16.828125,15.21875 16.515625,14.90625 15.890625,14.515625 C15.515625,14.28125 15.03125,14.03125 14.546875,13.8125 C14.0625,13.578125 13.578125,13.359375 13.25,13.21875 Z M18.84375,5.734375 C17.953125,6.578125 17.421875,7.4375 17.46875,8.09375 C17.515625,8.421875 17.546875,8.640625 17.84375,8.8125 C18.109375,8.984375 18.484375,9.078125 18.984375,9.078125 C19.46875,9.078125 19.921875,8.796875 19.921875,8 C19.921875,7.25 19.5625,6.5 18.84375,5.734375 Z M7.34375,6.03125 C7.4375,5.3125 7.484375,4.296875 7.296875,2.984375 C7.203125,2.1875 6.984375,1.3125 6.59375,0.734375 C6.21875,0.1875 5.8125,0.140625 5.3125,0.5 C4.96875,0.734375 4.78125,0.9375 4.515625,1.28125 C4.296875,1.5625 4.3125,2.09375 4.65625,2.703125 C4.890625,3.125 5.25,3.6875 5.703125,4.28125 C6.171875,4.859375 6.734375,5.46875 7.34375,6.03125 Z" transform="translate(-0.5546875, 18.34375) scale(1, -1)"/>
</svg>