<svg height="20.46875" viewBox="0 0 24 20.46875" width="24" xmlns="http://www.w3.org/2000/svg">
<path d="M5.9375,18.921875 C6.265625,18.8125 6.5,18.6875 6.65625,18.5 C6.96875,18.15625 6.78125,17.5625 6.6875,16.984375 C6.640625,16.6875 6.59375,16.390625 6.546875,16.109375 L6.265625,15.96875 C6.140625,15.921875 6.03125,15.875 5.90625,15.8125 C5.796875,15.75 5.671875,15.6875 5.5625,15.640625 C5.46875,15.59375 5.375,15.546875 5.28125,15.5 C4.78125,15.234375 4.65625,15.234375 4.515625,15.546875 C4.34375,15.921875 4.265625,16.34375 4.296875,16.953125 L3.921875,17.0625 C3.453125,16.5625 3.296875,15.9375 3.296875,15.3125 C3.296875,15.078125 3.34375,14.828125 3.453125,14.609375 C3.640625,14.140625 3.96875,13.8125 4.46875,13.8125 C4.859375,13.8125 5,13.984375 5.15625,14.265625 C5.234375,14.40625 5.453125,14.609375 5.703125,14.796875 C5.96875,14.984375 6.25,15.171875 6.484375,15.3125 C6.453125,14.765625 6.40625,14.046875 6.375,13.34375 C6.359375,12.984375 6.34375,12.640625 6.328125,12.3125 L6.296875,11.46875 C6.125,11.40625 5.921875,11.328125 5.703125,11.265625 C5.28125,11.125 4.859375,11 4.484375,10.90625 C4.09375,10.8125 3.15625,10.515625 3.078125,10.875 C2.984375,11.140625 3.1875,11.421875 3.53125,11.609375 L3.234375,11.984375 C2.96875,11.875 2.71875,11.703125 2.515625,11.46875 C2.296875,11.25 2.125,11 2.0625,10.765625 C1.96875,10.359375 2.046875,10.015625 2.28125,9.734375 C2.46875,9.546875 2.828125,9.390625 3.484375,9.4375 C3.765625,9.453125 4.234375,9.546875 4.765625,9.6875 C5.28125,9.828125 5.859375,10.015625 6.359375,10.25 C6.359375,9.75 6.390625,9.265625 6.421875,8.796875 C6.453125,8.3125 6.484375,7.84375 6.5,7.390625 C6.046875,7.078125 5.515625,6.640625 5,6.1875 C4.484375,5.71875 4.015625,5.234375 3.671875,4.828125 C3.296875,4.375 2.90625,3.921875 2.65625,3.53125 C2.328125,3 2.328125,2.375 2.890625,1.828125 C3.265625,1.4375 3.734375,0.84375 3.921875,0.3125 C4.046875,-0.03125 4.375,-0.25 4.828125,-0.21875 C5.078125,-0.203125 5.28125,-0.140625 5.46875,-0.03125 C5.671875,0.09375 5.890625,0.28125 6.1875,0.578125 C6.6875,1.078125 7,1.46875 7.171875,1.765625 C7.25,1.453125 7.34375,1.15625 7.484375,0.828125 C7.71875,0.203125 8.0625,-0.9375 8.953125,-0.9375 C9.359375,-0.9375 9.671875,-0.703125 9.796875,0 C9.953125,0.84375 10.015625,2.03125 10.03125,3.1875 C10.03125,4.34375 9.96875,5.46875 9.890625,6.171875 C9.859375,6.390625 9.78125,6.796875 9.625,6.984375 C9.296875,7.421875 9.046875,7.421875 8.953125,6.890625 C8.875,6.4375 8.703125,5.890625 8.515625,5.390625 C8.3125,4.890625 8.09375,4.421875 7.921875,4.125 C7.890625,4.328125 7.859375,4.53125 7.84375,4.765625 C7.78125,5.234375 7.734375,5.75 7.703125,6.234375 C7.6875,6.484375 7.671875,6.71875 7.65625,6.9375 L8.875,8.171875 C9.328125,8.625 9.796875,9.109375 10.28125,9.609375 C11.234375,10.625 12.25,11.703125 13.109375,12.78125 L12.734375,13.25 C12.078125,12.484375 11.1875,11.515625 10.25,10.59375 C9.3125,9.65625 8.34375,8.78125 7.578125,8.140625 C7.53125,9.03125 7.484375,10.015625 7.515625,10.671875 C7.828125,10.828125 8.171875,11 8.5625,11.1875 C8.9375,11.375 9.296875,11.5625 9.625,11.765625 C10.015625,12 10.4375,12.265625 10.78125,12.515625 C11.109375,12.765625 11.375,13 11.46875,13.15625 C11.8125,13.703125 11.609375,14.078125 11.0625,14.203125 C10.75,14.28125 10.421875,14.546875 10.078125,14.984375 C10.421875,15.25 10.65625,15.421875 10.828125,15.59375 C11.3125,16.078125 11.5625,16.484375 11.5625,17.015625 C11.5625,17.5 11.1875,17.8125 10.515625,17.8125 C10.21875,17.8125 9.6875,17.703125 9.3125,17.546875 C8.90625,17.375 8.359375,17.046875 7.828125,16.671875 C7.875,16.96875 7.96875,17.453125 8.109375,18.046875 C8.203125,18.453125 8.0625,18.765625 7.671875,18.984375 C7.53125,19.078125 7.28125,19.15625 7.015625,19.21875 C6.734375,19.265625 6.4375,19.3125 6.1875,19.328125 Z M15.5,17.65625 C15.875,17.578125 16.1875,17.453125 16.40625,17.1875 C16.625,16.90625 16.734375,16.53125 16.65625,15.984375 C16.59375,15.546875 16.4375,14.65625 16.171875,13.59375 C15.921875,12.53125 15.546875,11.328125 15.125,10.25 C14.984375,9.875 15.046875,9.6875 15.3125,9.40625 C15.5,9.234375 15.625,9.078125 15.84375,9.171875 C16.03125,9.21875 16.203125,9.265625 16.375,9.3125 L16.875,9.40625 C16.984375,9.421875 17.09375,9.4375 17.1875,9.359375 C17.28125,9.265625 17.359375,9.125 17.359375,8.859375 C17.359375,7.6875 17.15625,6.59375 16.828125,5.796875 C16.296875,5.890625 15.546875,5.9375 14.953125,5.84375 C14.015625,5.65625 13.21875,5.234375 12.671875,4.765625 C12.171875,4.296875 11.734375,3.671875 11.734375,3 C11.734375,2.421875 12.1875,1.921875 13.21875,1.921875 C14.015625,1.921875 14.890625,2.109375 15.9375,2.765625 C16.609375,3.1875 17.1875,3.71875 17.609375,4.375 C18,4.15625 18.5,3.65625 18.9375,3.09375 C19.390625,2.53125 19.796875,1.921875 20.0625,1.46875 C20.234375,1.1875 20.421875,0.8125 20.59375,0.46875 C20.75,0.125 20.890625,-0.21875 20.984375,-0.40625 C21.203125,-0.96875 21.625,-1.140625 21.9375,-0.96875 C22.375,-0.734375 22.515625,-0.3125 22.34375,0.3125 C22.21875,0.828125 21.890625,1.34375 21.53125,1.875 C21.03125,2.609375 20.453125,3.3125 19.84375,3.890625 C19.234375,4.484375 18.59375,4.96875 18.03125,5.3125 C18.171875,5.6875 18.359375,6.21875 18.5,6.828125 C18.640625,7.421875 18.78125,8.078125 18.828125,8.734375 C18.859375,9.296875 18.734375,9.71875 18.515625,10 C18.296875,10.28125 17.984375,10.421875 17.609375,10.421875 C17.28125,10.421875 16.765625,10.34375 16.4375,10.28125 C16.015625,10.203125 15.9375,10.375 16.078125,10.703125 C16.28125,11.15625 16.453125,11.5625 16.625,11.9375 C16.765625,12.296875 16.921875,12.640625 17.078125,12.96875 C17.359375,13.640625 17.625,14.328125 17.953125,15.21875 C18.15625,15.765625 18.234375,16.234375 18.234375,16.65625 C18.234375,17.234375 17.796875,17.546875 17.375,17.734375 C16.96875,17.921875 16.328125,18.109375 15.796875,18.140625 Z M9.34375,16.8125 C9.796875,16.984375 9.96875,16.828125 10.015625,16.609375 C10.0625,16.375 9.921875,16.109375 9.71875,15.890625 C9.484375,15.609375 9.15625,15.28125 8.796875,14.953125 C8.421875,14.625 8,14.296875 7.578125,14.015625 C7.59375,14.375 7.625,14.75 7.671875,15.078125 C7.71875,15.40625 7.75,15.71875 7.765625,15.921875 C8.234375,16.28125 8.890625,16.625 9.34375,16.8125 Z M9.734375,14.734375 C9.9375,14.4375 10.0625,14.1875 10.125,13.984375 C10.25,13.5625 9.921875,13.40625 9.734375,13.265625 C9.53125,13.125 9.296875,12.984375 9.109375,12.875 C9.015625,12.8125 8.9375,12.75 8.890625,12.71875 C8.609375,12.5625 8.328125,12.40625 8.078125,12.28125 C7.8125,12.15625 7.59375,12.0625 7.484375,12.046875 C7.453125,12.359375 7.484375,12.875 7.53125,13.4375 C7.90625,13.625 8.328125,13.859375 8.703125,14.09375 C9.09375,14.328125 9.46875,14.5625 9.734375,14.734375 Z M6.578125,6.1875 C6.59375,5.765625 6.65625,5.140625 6.734375,4.53125 C6.796875,3.90625 6.875,3.265625 6.96875,2.8125 C6.671875,2.40625 6.171875,1.859375 5.65625,1.484375 C5.046875,1.03125 4.765625,0.890625 4.4375,1.21875 C4.203125,1.46875 4,1.75 3.875,2.0625 C3.734375,2.40625 3.765625,2.71875 4.109375,3.296875 C4.4375,3.859375 4.875,4.453125 5.328125,4.96875 C5.765625,5.484375 6.21875,5.921875 6.578125,6.1875 Z M9.1875,5.953125 C9.34375,4.296875 9.3125,2.609375 9.078125,1.15625 C9.03125,0.921875 8.984375,0.78125 8.9375,0.734375 C8.859375,0.6875 8.78125,0.78125 8.65625,1.015625 C8.46875,1.421875 8.28125,2.046875 8.1875,2.890625 C8.65625,3.875 8.96875,4.765625 9.1875,5.953125 Z M16.53125,4.90625 C16.296875,4.4375 15.828125,3.84375 14.9375,3.3125 C14.453125,3.03125 13.8125,2.734375 13.203125,2.734375 C12.6875,2.734375 12.484375,2.875 12.484375,3.234375 C12.484375,3.71875 13.0625,4.25 13.71875,4.71875 C14.140625,5.015625 14.703125,5.203125 15.265625,5.203125 C15.453125,5.203125 15.71875,5.1875 15.953125,5.140625 C16.1875,5.09375 16.40625,5 16.53125,4.90625 Z" transform="translate(-0.2421875, 19.328125) scale(1, -1)"/>
</svg>