<svg height="19.609375" viewBox="0 0 24 19.609375" width="24" xmlns="http://www.w3.org/2000/svg">
<path d="M8.453125,18.59375 C9.296875,18.28125 9.640625,17.703125 9.546875,17.15625 C9.421875,16.21875 8.890625,14.984375 8,13.15625 C7.65625,12.453125 7.28125,12.09375 6.796875,11.65625 C6.4375,11.34375 6.15625,10.921875 5.984375,10.5625 C5.75,10.09375 5.703125,9.53125 5.703125,9.234375 C5.703125,8.859375 5.84375,8.5625 6.125,8.5625 C6.296875,8.5625 6.5,8.6875 6.6875,8.84375 C6.875,8.984375 7.0625,9.21875 7.203125,9.40625 C7.34375,9.640625 7.484375,9.96875 7.578125,10.25 C7.8125,10.84375 7.9375,11.1875 8.203125,11.546875 C8.6875,12.203125 9.3125,12.828125 10.34375,13.78125 C11.8125,15.15625 13.296875,15.84375 14.375,15.796875 C14.984375,15.765625 15.4375,15.609375 15.734375,15.21875 C16.015625,14.8125 16.171875,14.1875 16.171875,13.25 C16.171875,12.03125 15.875,11.09375 15.5,10.53125 C15.171875,10.03125 14.875,9.71875 14.546875,9.453125 C14.203125,9.203125 13.828125,9.015625 13.34375,8.8125 C13.484375,9.3125 13.53125,9.796875 13.484375,10.328125 C13.453125,10.828125 13.375,11.15625 13.21875,11.421875 C12.921875,11.984375 12.4375,12.078125 11.734375,11.703125 C11.375,11.515625 10.90625,11.15625 10.375,10.625 C9.9375,10.203125 9.640625,9.578125 9.59375,9.09375 C9.5625,8.6875 9.890625,8.359375 10.375,8.1875 C10.765625,8.046875 11.328125,7.953125 11.8125,7.953125 C11.671875,7.515625 11.4375,7 11.21875,6.546875 C10.984375,6.078125 10.765625,5.65625 10.625,5.453125 C10.484375,5.203125 10.390625,5.09375 10.25,4.90625 C10.1875,4.8125 10.15625,4.703125 10.140625,4.5625 C10.125,4.28125 10.203125,4 10.421875,3.875 C10.625,3.765625 11.046875,3.671875 11.328125,3.625 C11.46875,3.59375 11.609375,3.546875 11.734375,3.484375 C11.40625,3.265625 11,2.8125 10.765625,2.453125 C10.53125,2.09375 10.46875,1.859375 10.46875,1.515625 C10.46875,1.15625 10.734375,0.796875 11.28125,0.453125 C11.578125,0.265625 12,0.109375 12.46875,-0.03125 C12.921875,-0.171875 13.390625,-0.28125 13.78125,-0.34375 C14.53125,-0.46875 15.296875,-0.5 15.796875,-0.453125 C16.296875,-0.40625 16.53125,-0.21875 16.71875,0 C17,0.296875 16.953125,0.625 16.609375,0.796875 C16.21875,0.984375 15.828125,1 15.40625,0.96875 C15.125,0.953125 14.78125,0.9375 14.421875,0.9375 C14.078125,0.9375 13.734375,0.953125 13.515625,0.984375 C13.25,1.015625 12.96875,1.0625 12.734375,1.109375 C12.484375,1.140625 12.296875,1.171875 12.171875,1.21875 C11.6875,1.421875 11.59375,1.53125 11.59375,1.859375 C11.59375,2.1875 11.734375,2.5 12,2.796875 C12.15625,2.96875 12.34375,3.125 12.53125,3.21875 C12.71875,3.296875 12.921875,3.359375 13.015625,3.484375 C13.140625,3.65625 13.15625,3.84375 13.078125,4.03125 C13.046875,4.125 12.96875,4.203125 12.890625,4.25 C12.703125,4.359375 12.40625,4.4375 12.09375,4.5 C11.78125,4.5625 11.359375,4.671875 11.1875,4.765625 C11.09375,4.8125 11.09375,4.90625 11.203125,5.046875 C11.4375,5.359375 11.796875,5.84375 12.15625,6.40625 C12.515625,6.96875 12.875,7.578125 13.109375,8.09375 C14.375,8.328125 15.46875,8.859375 16.21875,9.578125 C17.203125,10.515625 17.828125,11.984375 17.859375,13.625 C17.875,14.515625 17.59375,15.265625 17.078125,15.78125 C16.546875,16.296875 15.796875,16.59375 14.859375,16.609375 C14.015625,16.625 13.203125,16.4375 12.328125,15.984375 C11.453125,15.546875 10.5,14.84375 9.40625,13.875 C9.875,14.8125 10.265625,15.734375 10.625,16.859375 C10.859375,17.515625 10.78125,17.9375 10.375,18.296875 C10.1875,18.453125 9.9375,18.609375 9.65625,18.765625 C9.375,18.90625 9.078125,19.015625 8.8125,19.109375 Z M12.078125,8.609375 C11.6875,8.578125 11.40625,8.578125 11.140625,8.703125 C10.71875,8.890625 10.703125,9.390625 11,9.890625 C11.21875,10.25 11.46875,10.609375 11.84375,10.875 C12.25,11.1875 12.359375,11.140625 12.390625,10.703125 C12.4375,9.984375 12.296875,9.140625 12.078125,8.609375 Z" transform="translate(0.2109375, 19.109375) scale(1, -1)"/>
</svg>