<svg height="19.84375" viewBox="0 0 24 19.84375" width="24" xmlns="http://www.w3.org/2000/svg">
<path d="M7.03125,18.234375 C7.421875,17.78125 7.84375,17.421875 8.546875,17.15625 C9.4375,16.828125 10.53125,16.65625 12.140625,16.859375 C11.46875,16.53125 10.921875,16.171875 10.390625,15.71875 C9.921875,15.3125 9.59375,14.734375 9.40625,14.203125 C9.265625,13.765625 9.234375,13.15625 9.3125,12.734375 C9.421875,12.140625 9.5,11.65625 9.546875,11.09375 C8.234375,10.5625 6.828125,9.671875 5.5625,8.640625 C4.78125,8 4.15625,7.25 3.703125,6.515625 C3.265625,5.78125 3,5.046875 3,4.4375 C3,3.78125 3.1875,3.390625 3.625,3 C3.828125,2.8125 4.109375,2.703125 4.390625,2.625 C4.6875,2.546875 5,2.515625 5.265625,2.515625 C5.84375,2.515625 6.46875,2.75 7.078125,3.078125 C7.6875,3.40625 8.28125,3.875 8.796875,4.328125 C9.109375,4.609375 9.453125,5.046875 9.78125,5.546875 C10.109375,6.03125 10.390625,6.59375 10.5625,7.109375 C10.90625,8.140625 11.0625,9.28125 11.015625,10.609375 C11.59375,10.921875 12.4375,11.1875 13.328125,11.390625 C14.203125,11.59375 15.109375,11.703125 15.84375,11.703125 C16.96875,11.703125 17.90625,11.4375 18.453125,11.015625 C19.15625,10.46875 19.46875,9.765625 19.46875,8.640625 C19.46875,7.703125 19.265625,6.71875 18.453125,5.859375 C18.078125,5.46875 17.515625,5.078125 16.90625,4.734375 C16.296875,4.390625 15.640625,4.109375 15.078125,3.921875 C15.40625,4.46875 15.640625,4.953125 15.71875,5.46875 C15.78125,5.890625 15.6875,6.359375 15.40625,6.625 C15.140625,6.875 14.734375,6.9375 14.234375,6.9375 C13.625,6.9375 12.859375,6.609375 12,5.90625 C11.296875,5.328125 11.0625,4.765625 11.0625,4.296875 C11.0625,3.828125 11.3125,3.359375 11.734375,3.171875 C12.09375,2.984375 12.59375,2.90625 13.21875,2.953125 C12.984375,2.59375 12.6875,2.140625 12.40625,1.765625 C11.953125,1.109375 11.859375,0.671875 11.90625,0.1875 C11.9375,-0.09375 12.171875,-0.453125 12.578125,-0.6875 C13.0625,-0.96875 13.75,-1.109375 14.5,-1.109375 C15.296875,-1.109375 16.015625,-1.046875 16.53125,-0.890625 C16.953125,-0.765625 17.3125,-0.53125 17.3125,-0.1875 C17.3125,0.1875 16.96875,0.40625 16.515625,0.453125 C16.109375,0.5 15.640625,0.40625 15.234375,0.265625 C15.140625,0.234375 15.03125,0.21875 14.890625,0.1875 C14.609375,0.140625 14.296875,0.125 14,0.125 C13.84375,0.125 13.71875,0.125 13.609375,0.140625 C13.21875,0.203125 12.8125,0.34375 12.78125,0.71875 C12.734375,1.03125 12.984375,1.34375 13.46875,1.90625 C13.625,2.078125 13.796875,2.28125 13.96875,2.5 C14.140625,2.703125 14.328125,2.890625 14.46875,3.078125 C16.21875,3.390625 17.859375,4.09375 18.984375,4.875 C19.6875,5.359375 20.234375,5.84375 20.59375,6.453125 C20.9375,7.0625 21.125,7.765625 21.125,8.703125 C21.125,9.546875 20.8125,10.375 20.15625,10.96875 C19.171875,11.84375 17.828125,12.4375 15.84375,12.4375 C15.328125,12.4375 14.84375,12.40625 14.390625,12.359375 C13.484375,12.265625 12.375,11.984375 11.765625,11.796875 C11.46875,11.703125 11.171875,11.609375 10.875,11.515625 C10.828125,11.859375 10.703125,12.28125 10.5625,12.6875 C10.421875,13.109375 10.375,13.609375 10.375,14.046875 C10.375,14.640625 10.859375,15.265625 11.609375,15.671875 C12.359375,16.078125 13.109375,16.453125 13.8125,16.53125 C14.515625,16.625 14.890625,16.828125 14.890625,17.15625 C14.890625,17.328125 14.859375,17.59375 14.65625,17.796875 C14.421875,18.03125 14.109375,18.265625 13.515625,18.265625 C13.390625,18.265625 13.28125,18.265625 13.171875,18.265625 C12.96875,18.234375 12.75,18.1875 12.5,18.140625 C12.375,18.109375 12.234375,18.078125 12.078125,18.046875 C11.546875,17.953125 10.9375,17.875 10.34375,17.875 C9.734375,17.859375 9.140625,17.890625 8.65625,18.03125 C8.1875,18.15625 7.671875,18.40625 7.34375,18.734375 Z M9.625,10.078125 C9.65625,9.375 9.578125,8.5625 9.21875,7.390625 C8.84375,6.21875 8.375,5.359375 7.625,4.5625 C7.25,4.171875 6.796875,3.859375 6.359375,3.640625 C5.9375,3.40625 5.5,3.296875 5.203125,3.296875 C4.859375,3.296875 4.65625,3.421875 4.53125,3.640625 C4.421875,3.84375 4.390625,4.109375 4.390625,4.4375 C4.4375,5.0625 4.796875,6.03125 5.6875,7.15625 C6.078125,7.65625 6.6875,8.234375 7.390625,8.75 C8.09375,9.265625 8.890625,9.75 9.625,10.078125 Z M13.765625,3.78125 C13.25,3.6875 12.875,3.703125 12.640625,3.78125 C12.390625,3.875 12.265625,4.03125 12.265625,4.296875 C12.265625,4.46875 12.3125,4.65625 12.40625,4.875 C12.59375,5.3125 13.296875,6.125 13.96875,6.125 C14.3125,6.125 14.390625,5.859375 14.328125,5.375 C14.28125,4.921875 14.046875,4.25 13.765625,3.78125 Z" transform="translate(-0.0625, 18.734375) scale(1, -1)"/>
</svg>