<svg height="20.1875" viewBox="0 0 24 20.1875" width="24" xmlns="http://www.w3.org/2000/svg">
<path d="M4.859375,17.640625 C5.09375,17.453125 5.28125,17.265625 5.453125,16.96875 C5.640625,16.625 5.703125,16.203125 5.703125,15.640625 C5.703125,15.046875 5.609375,14.359375 5.1875,13.21875 C5,12.765625 4.859375,12.3125 4.671875,11.78125 C4.5,11.234375 4.34375,10.609375 4.15625,9.84375 C4.015625,9.328125 3.921875,8.734375 3.828125,8.125 C3.734375,7.515625 3.6875,6.890625 3.6875,6.34375 C3.6875,5.609375 3.765625,4.921875 3.890625,4.28125 C4.15625,3 4.53125,2.125 5.28125,1.515625 C5.515625,1.34375 5.8125,1.296875 6,1.296875 C6.1875,1.296875 6.375,1.375 6.515625,1.53125 C6.65625,1.671875 6.734375,1.90625 6.6875,2.265625 C6.609375,2.96875 6.609375,3.640625 6.734375,4.65625 C6.921875,6.125 7.21875,7.4375 7.578125,8.8125 L7.078125,9.078125 C6.828125,8.328125 6.578125,7.484375 6.359375,6.609375 C6.125,5.734375 5.921875,4.84375 5.796875,4.03125 C5.75,3.828125 5.703125,3.734375 5.609375,3.703125 C5.53125,3.6875 5.421875,3.78125 5.328125,3.984375 C5.1875,4.328125 5.046875,4.78125 4.953125,5.25 C4.859375,5.71875 4.8125,6.1875 4.8125,6.59375 C4.8125,7.859375 5.046875,9.09375 5.421875,10.328125 C5.75,11.40625 6.140625,12.390625 6.53125,13.28125 C6.8125,13.9375 7.109375,14.640625 7.109375,15.1875 C7.109375,15.609375 7.0625,15.921875 6.953125,16.203125 C6.84375,16.484375 6.65625,16.71875 6.40625,17.046875 C6.078125,17.453125 5.65625,17.8125 5.234375,18.046875 Z M16.90625,16.203125 C17.375,16.71875 18.140625,17.453125 18.359375,16.25 C18.5,15.546875 18.609375,14.625 18.703125,13.53125 C18.796875,12.421875 18.828125,11.171875 18.828125,9.875 C18.8125,8.984375 18.765625,7.890625 18.6875,6.765625 C18.59375,5.640625 18.453125,4.484375 18.265625,3.5 C18.03125,2.296875 17.796875,1.4375 17.46875,0.640625 C17.140625,-0.171875 16.71875,-0.921875 16.15625,-1.875 L16.515625,-2.140625 C17.171875,-1.484375 17.78125,-0.640625 18.296875,0.296875 C18.8125,1.234375 19.234375,2.25 19.5625,3.3125 C19.828125,4.203125 20.03125,5.265625 20.171875,6.40625 C20.3125,7.53125 20.375,8.734375 20.375,9.890625 C20.375,11.265625 20.3125,12.59375 20.21875,13.71875 C20.125,14.84375 20,15.78125 19.875,16.390625 C19.6875,17.328125 19.125,17.859375 18.453125,17.859375 C17.953125,17.859375 17.515625,17.6875 17.15625,17.328125 C17.03125,17.203125 16.90625,17.078125 16.828125,16.96875 C16.75,16.859375 16.640625,16.71875 16.515625,16.5625 Z M10.125,14.421875 C10.34375,14.65625 10.578125,14.890625 10.828125,15.078125 C11.1875,15.3125 11.359375,15.140625 11.234375,14.59375 C11.046875,13.875 10.953125,13.078125 10.859375,12.359375 C10.75,11.5625 10.703125,10.96875 10.765625,10.421875 C10.8125,9.890625 10.953125,9.453125 11.09375,9.140625 C11.21875,8.8125 11.5,8.640625 11.796875,8.640625 C12.15625,8.640625 12.25,8.859375 12.4375,9.359375 L12.703125,10.078125 C12.890625,10.578125 13.296875,11.21875 13.671875,11.828125 L14.234375,12.78125 L13.828125,13.015625 C13.328125,12.359375 12.921875,11.765625 12.453125,11.0625 C12.234375,10.734375 12.0625,10.671875 12.03125,11.0625 C11.984375,11.546875 12.03125,12.078125 12.078125,12.59375 C12.140625,13.09375 12.234375,13.5625 12.3125,13.921875 C12.453125,14.46875 12.515625,14.78125 12.640625,15.234375 C12.734375,15.59375 12.734375,15.96875 12.546875,16.203125 C12.359375,16.453125 12.09375,16.578125 11.796875,16.578125 C11.328125,16.578125 10.953125,16.265625 10.53125,15.796875 C10.25,15.453125 10,15.0625 9.828125,14.796875 Z" transform="translate(-0.03125, 18.046875) scale(1, -1)"/>
</svg>