<svg height="24" viewBox="0 0 24 24" width="24" xmlns="http://www.w3.org/2000/svg">
<path d="M10.4375,17.65625 C10.765625,17.5625 11.234375,17.4375 11.40625,17.328125 C11.59375,17.203125 11.703125,17.140625 11.78125,17.015625 C11.859375,16.90625 11.890625,16.734375 11.890625,16.484375 C11.890625,15.875 11.796875,15.15625 11.703125,14.453125 C11.609375,13.734375 11.46875,13.015625 11.328125,12.4375 C10.203125,12.40625 9.3125,12.53125 8.46875,12.78125 C7.8125,12.96875 7.328125,13.21875 6.84375,13.5625 L6.5,12.828125 C7.078125,12.34375 7.90625,11.90625 8.703125,11.640625 C9.453125,11.390625 10.25,11.265625 11,11.1875 C10.71875,10.25 10.390625,9.40625 10,8.609375 C9.234375,7.015625 8.046875,5.5625 7.0625,4.578125 C6.59375,4.0625 6.21875,3.734375 6,3.53125 C5.546875,3.140625 5.203125,2.859375 4.875,2.640625 C4.578125,2.453125 4.390625,2.140625 4.390625,1.953125 C4.390625,1.671875 4.4375,1.40625 4.46875,1.28125 C4.5625,0.875 4.84375,0.609375 5.140625,0.734375 C5.40625,0.875 5.6875,1 6.03125,1.171875 C7.0625,1.6875 8.09375,2.1875 9.125,2.375 C10.109375,2.5625 11.453125,2.734375 12.78125,2.640625 C14.09375,2.546875 15.40625,2.265625 16.390625,1.921875 C16.921875,1.734375 17.3125,1.59375 17.609375,1.453125 C17.921875,1.3125 18.171875,1.1875 18.453125,1.015625 C18.890625,0.765625 19.203125,0.78125 19.390625,1.0625 C19.71875,1.53125 19.515625,2.328125 18.671875,2.796875 C18.21875,3.03125 17.28125,3.3125 16.109375,3.53125 C15.3125,3.6875 14.40625,3.796875 13.46875,3.84375 C12.53125,3.890625 11.359375,3.84375 10.171875,3.671875 C9.546875,3.59375 8.890625,3.453125 8.28125,3.3125 C7.671875,3.171875 7.109375,3.015625 6.671875,2.859375 C7.90625,3.890625 9.25,5.234375 10.46875,7.03125 C11.015625,7.828125 11.453125,8.703125 12.046875,9.921875 C12.21875,10.25 12.40625,10.765625 12.5,11.1875 C13.53125,11.265625 14.640625,11.421875 15.71875,11.734375 C16.15625,11.859375 16.625,12.015625 17,12.15625 C17.375,12.296875 17.65625,12.4375 17.796875,12.53125 C18.03125,12.71875 18.09375,12.90625 18.09375,13.078125 C18.09375,13.328125 17.859375,13.59375 17.46875,13.71875 C17.34375,13.765625 17.21875,13.8125 17,13.796875 C16.796875,13.78125 16.515625,13.703125 16.171875,13.515625 C15.453125,13.140625 14.28125,12.734375 12.875,12.546875 C13.1875,13.8125 13.390625,15.125 13.515625,16.0625 C13.625,17 13.484375,17.453125 12.828125,17.796875 C12.34375,18.03125 11.625,18.234375 10.78125,18.34375 Z" transform="translate(-0.0546875, 18.34375) scale(1, -1)"/>
</svg>