<svg height="20.015625" viewBox="0 0 24 20.015625" width="24" xmlns="http://www.w3.org/2000/svg">
<path d="M2.5625,16.015625 C3.359375,14.984375 4.5625,14.5 5.984375,14.453125 C5.890625,13.859375 5.796875,13.421875 5.796875,12.671875 C5.796875,12.265625 5.8125,12.0625 6.1875,11.84375 C6.484375,11.65625 6.59375,11.640625 6.96875,11.765625 C7.140625,11.828125 7.296875,11.875 7.4375,11.90625 C7.734375,11.96875 8.0625,12.0625 8.21875,11.875 C8.359375,11.6875 8.28125,11.390625 8.1875,11.125 C8.09375,10.859375 7.953125,10.5625 7.8125,10.265625 C7.65625,9.96875 7.484375,9.625 7.21875,9.203125 C6.96875,8.765625 6.734375,8.46875 6.453125,8.28125 C6.3125,8.1875 6.171875,8.078125 6.046875,7.96875 C5.734375,7.71875 5.59375,7.484375 5.59375,7.125 C5.59375,6.859375 5.65625,6.609375 5.703125,6.4375 C5.765625,6.171875 5.921875,6.0625 6.078125,6.03125 C6.25,5.984375 6.40625,6.0625 6.53125,6.1875 C6.578125,6.25 6.640625,6.3125 6.75,6.421875 L7.0625,6.734375 C7.296875,6.96875 7.5625,7.21875 7.765625,7.390625 C8.265625,7.8125 8.984375,8.46875 9.78125,9.21875 C10.5625,9.96875 11.421875,10.78125 12.203125,11.53125 C12.96875,12.28125 13.65625,12.96875 14.109375,13.421875 C14.234375,13.53125 14.328125,13.625 14.40625,13.671875 C14.484375,13.734375 14.5625,13.765625 14.609375,13.765625 C14.734375,13.765625 14.828125,13.671875 14.9375,13.53125 C15.03125,13.390625 15.140625,13.25 15.25,13.109375 C15.34375,12.953125 15.453125,12.828125 15.578125,12.6875 C15.875,12.40625 16.125,12.234375 16.484375,12.234375 C16.578125,12.234375 16.671875,12.28125 16.75,12.359375 C16.828125,12.453125 16.921875,12.59375 17.046875,12.828125 C17.265625,13.234375 17.546875,13.671875 17.765625,14 C17.921875,14.234375 18.109375,14.46875 18.34375,14.65625 C18.5625,14.84375 18.828125,14.953125 19.171875,14.953125 C19.625,14.953125 19.78125,14.5625 19.78125,14.140625 C19.78125,13.65625 19.625,13.296875 19.015625,12.796875 C18.5,12.375 17.875,11.90625 17.140625,11.390625 C15.6875,10.359375 13.703125,8.9375 12.125,7.71875 C10.53125,6.5 9.328125,5.453125 8.515625,4.734375 C8.109375,4.375 7.765625,4.0625 7.4375,3.796875 C6.921875,3.34375 6.640625,3.078125 6.34375,2.734375 C6.140625,2.515625 6.03125,2.234375 6.125,1.921875 C6.203125,1.625 6.3125,1.421875 6.53125,1.171875 C6.8125,0.859375 7.078125,0.96875 7.390625,1.421875 C7.765625,1.96875 8.203125,2.5625 8.765625,3.265625 C9.34375,3.984375 10.0625,4.859375 10.859375,5.515625 C11.453125,6.03125 12.21875,6.5 12.921875,6.78125 C13.90625,7.15625 14.6875,7.453125 15.484375,7.421875 C16.328125,7.390625 17.09375,7.21875 17.640625,6.828125 C18.171875,6.421875 18.46875,5.796875 18.40625,4.875 C18.265625,2.84375 17.359375,1.5625 15.984375,0.796875 C15.265625,0.390625 14.28125,0.046875 13.34375,0.046875 C12.640625,0.046875 11.90625,0.171875 11.328125,0.5 C10.71875,0.875 10.390625,1.390625 10.421875,1.875 C10.4375,2.15625 10.65625,2.40625 11,2.5625 C11.359375,2.703125 11.84375,2.75 12.4375,2.65625 C13.203125,2.53125 13.765625,2.28125 14.28125,1.90625 C14.5625,1.703125 14.75,1.671875 14.9375,1.71875 C15.171875,1.8125 15.3125,1.90625 15.34375,2.1875 C15.375,2.40625 15.3125,2.75 15,3.03125 C14.40625,3.53125 13.65625,3.8125 12.71875,3.84375 C11.78125,3.859375 11.015625,3.6875 10.484375,3.375 C9.9375,3.078125 9.609375,2.640625 9.59375,2.1875 C9.5625,1.703125 9.75,1.25 10.015625,0.875 C10.296875,0.5 10.625,0.1875 10.953125,-0.046875 C11.65625,-0.578125 12.5,-0.796875 13.296875,-0.796875 C14.375,-0.796875 15.375,-0.59375 16.34375,-0.21875 C17.53125,0.265625 18.453125,1.015625 19.0625,1.90625 C19.671875,2.796875 20,3.828125 20.015625,4.90625 C20.03125,6.078125 19.484375,6.890625 18.734375,7.421875 C17.96875,7.9375 17,8.15625 16.15625,8.15625 C15.484375,8.15625 14.921875,8.09375 14.375,7.984375 C13.84375,7.859375 13.3125,7.671875 12.734375,7.4375 C14.109375,8.421875 15.640625,9.453125 17.28125,10.484375 C17.765625,10.78125 18.21875,11.078125 18.65625,11.34375 L19.90625,12.125 C20.46875,12.453125 20.828125,12.765625 21.0625,13.09375 C21.296875,13.40625 21.40625,13.71875 21.4375,14.140625 C21.46875,14.515625 21.3125,14.90625 20.984375,15.171875 C20.65625,15.453125 20.15625,15.625 19.484375,15.625 C19.015625,15.625 18.59375,15.484375 18.171875,15.21875 C17.75,14.9375 17.328125,14.5625 16.875,14.109375 C16.671875,13.90625 16.484375,13.890625 16.296875,14.046875 C16.15625,14.140625 16.03125,14.28125 15.890625,14.46875 C15.484375,15 14.984375,15.09375 14.28125,14.375 C13.71875,13.78125 12.953125,13.0625 12.140625,12.3125 C11.328125,11.5625 10.46875,10.8125 9.640625,10.109375 C8.828125,9.40625 8.046875,8.796875 7.4375,8.328125 C8.046875,9.09375 8.65625,9.921875 9.3125,10.90625 C9.59375,11.3125 9.78125,11.734375 9.78125,12.140625 C9.78125,12.53125 9.5,12.84375 9.046875,12.9375 C8.65625,13.015625 8.140625,13.03125 7.65625,12.9375 C7.25,12.859375 7.140625,13.03125 7.171875,13.296875 C7.203125,13.671875 7.25,14.0625 7.375,14.46875 C7.9375,14.484375 8.578125,14.578125 9.203125,14.71875 C9.8125,14.84375 10.40625,15 10.875,15.140625 C11.859375,15.4375 12.265625,15.78125 12.265625,16.484375 C12.265625,16.921875 11.921875,17.546875 11.265625,18.125 C10.875,18.453125 10.484375,18.78125 10.078125,18.984375 C9.578125,19.21875 9.09375,19.203125 8.609375,18.921875 C8.203125,18.671875 7.734375,18.234375 7.28125,17.640625 C6.734375,16.921875 6.453125,16.21875 6.234375,15.546875 C5.78125,15.515625 5.1875,15.53125 4.59375,15.65625 C4,15.78125 3.390625,16.015625 2.90625,16.390625 Z M7.578125,15.53125 C7.71875,16.15625 8.0625,17.0625 8.8125,17.8125 C9.109375,18.109375 9.328125,18.265625 9.53125,18.296875 C9.734375,18.328125 9.921875,18.25 10.171875,18.09375 C10.578125,17.84375 10.8125,17.546875 10.953125,17.203125 C11,17.046875 11.0625,16.875 11.046875,16.71875 C11.015625,16.546875 10.90625,16.390625 10.65625,16.28125 C10.234375,16.09375 9.71875,15.921875 9.171875,15.796875 C8.640625,15.671875 8.0625,15.578125 7.578125,15.53125 Z" transform="translate(-0.015625, 19.21875) scale(1, -1)"/>
</svg>