<svg height="19.71875" viewBox="0 0 24 19.71875" width="24" xmlns="http://www.w3.org/2000/svg">
<path d="M8.46875,18.4375 C8.703125,17.734375 9.03125,17.171875 9.34375,16.8125 C9.546875,16.578125 9.734375,16.421875 10.015625,16.390625 C10.28125,16.34375 10.578125,16.40625 11.046875,16.609375 C11.15625,16.671875 11.296875,16.71875 11.46875,16.8125 C11.625,16.875 11.796875,16.953125 11.984375,17.046875 L13.03125,17.515625 C12.53125,16.765625 12.125,16.171875 11.65625,15.59375 C11.328125,15.171875 11.3125,14.90625 11.734375,14.609375 C13.328125,13.546875 13.953125,12.546875 13.953125,11.546875 C13.953125,10.78125 13.6875,10.203125 13.3125,9.828125 C12.921875,9.453125 12.40625,9.265625 11.890625,9.265625 C11.046875,9.265625 10.390625,9.359375 9.84375,9.734375 C9.9375,10.390625 9.828125,10.75 9.5,11.109375 C9.0625,11.609375 8.5625,11.96875 8.015625,12.21875 L7.625,11.765625 C8.390625,11.015625 8.625,10.359375 8.46875,9.359375 C8.34375,8.5625 8.171875,7.484375 7.9375,6.328125 C7.703125,5.15625 7.390625,3.90625 7.0625,2.734375 C6.921875,2.25 6.828125,2.046875 6.640625,1.71875 C6.546875,1.546875 6.5,1.34375 6.5,1.125 C6.5,0.90625 6.59375,0.65625 6.734375,0.40625 C6.984375,0.03125 7.328125,-0.25 7.828125,-0.53125 C8.25,-0.78125 8.5625,-0.65625 8.765625,-0.296875 C9.03125,0.21875 9.21875,0.53125 9.484375,0.96875 C10.328125,2.328125 11.234375,3.3125 12.140625,3.953125 C13.046875,4.59375 13.921875,4.890625 14.703125,4.875 C16.21875,4.84375 17.203125,3.921875 17.3125,2.234375 C17.359375,1.4375 17.265625,0.765625 17,0.171875 C16.78125,-0.3125 16.765625,-0.625 16.921875,-0.734375 C17.140625,-0.921875 17.46875,-0.84375 17.703125,-0.671875 C17.953125,-0.5 18.21875,-0.140625 18.4375,0.234375 C18.75,0.765625 18.875,1.484375 18.875,2.234375 C18.875,3.125 18.515625,4.015625 17.84375,4.671875 C17.1875,5.3125 16.15625,5.734375 14.84375,5.734375 C12.484375,5.734375 10.203125,4.234375 8.015625,1.25 C8.640625,4.859375 9.234375,7.34375 9.671875,9 C10.421875,8.5625 11.09375,8.359375 12.171875,8.359375 C12.96875,8.359375 13.8125,8.578125 14.4375,9.0625 C15.0625,9.53125 15.484375,10.25 15.484375,11.28125 C15.484375,12.796875 14.46875,13.96875 12.578125,14.90625 C12.1875,15.09375 12.1875,15.21875 12.453125,15.4375 L13.359375,16.1875 C13.671875,16.4375 13.953125,16.65625 14.234375,16.859375 C14.515625,17.046875 14.6875,17.25 14.71875,17.421875 C14.78125,17.796875 14.390625,18.359375 13.65625,18.625 C13.296875,18.765625 13.03125,18.703125 12.5,18.359375 C12.3125,18.234375 12.015625,18.125 11.65625,18 C11.3125,17.890625 10.921875,17.796875 10.625,17.765625 C10.265625,17.734375 9.984375,17.75 9.6875,17.984375 C9.40625,18.203125 9.203125,18.4375 9.03125,18.796875 Z" transform="translate(-0.6875, 18.796875) scale(1, -1)"/>
</svg>