<svg height="18.90625" viewBox="0 0 24 18.90625" width="24" xmlns="http://www.w3.org/2000/svg">
<path d="M6.6875,17.328125 C6.984375,16.53125 7.46875,15.84375 7.8125,15.578125 C8.375,15.109375 8.859375,14.9375 9.546875,15.359375 C9.78125,15.5 10.109375,15.6875 10.453125,15.859375 C10.796875,16.03125 11.140625,16.203125 11.375,16.296875 C11.703125,16.4375 12.09375,16.625 12.5,16.765625 C12.921875,16.921875 13.34375,17.046875 13.671875,17.140625 L13.765625,17.046875 C13.671875,16.734375 13.53125,16.40625 13.375,16.046875 C13.046875,15.328125 12.65625,14.609375 12.28125,13.96875 L11.796875,13.125 C11.609375,12.84375 11.515625,12.640625 11.515625,12.46875 C11.5,12.296875 11.5625,12.140625 11.703125,11.90625 C11.984375,11.46875 12.265625,10.90625 12.5,10.34375 C12.71875,9.796875 12.859375,9.25 12.828125,8.859375 C12.296875,8.78125 11.609375,8.6875 10.859375,8.515625 C10.109375,8.359375 9.296875,8.140625 8.546875,7.859375 C7.796875,7.578125 6.9375,7.21875 6.171875,6.859375 C5.390625,6.5 4.6875,6.125 4.296875,5.796875 C3.78125,5.359375 3.53125,5.109375 3.53125,4.71875 C3.53125,4.359375 3.75,4.0625 4.34375,3.921875 C4.765625,3.8125 5.296875,3.703125 5.859375,3.34375 L6.296875,3.0625 C6.46875,2.9375 6.671875,2.8125 6.890625,2.6875 C7.3125,2.40625 7.8125,2.09375 8.265625,1.796875 C8.71875,1.5 9.125,1.203125 9.390625,1.015625 C9.921875,0.59375 10.109375,0.3125 10.171875,0 C10.25,-0.40625 10.515625,-0.625 10.859375,-0.625 C11.46875,-0.625 12.078125,-0.265625 12.875,0.84375 C13.109375,1.171875 13.359375,1.765625 13.59375,2.421875 C13.8125,3.078125 14,3.828125 14.140625,4.484375 C14.234375,5.09375 14.296875,5.609375 14.328125,6.125 C14.34375,6.625 14.328125,7.109375 14.3125,7.65625 C14.828125,7.671875 15.390625,7.65625 15.921875,7.625 C16.4375,7.578125 16.953125,7.53125 17.359375,7.46875 C17.84375,7.390625 18.1875,7.296875 18.53125,7.171875 C18.890625,7.046875 19.125,7.015625 19.34375,6.984375 C19.78125,6.921875 20.046875,7.25 20.09375,7.5625 C20.140625,8.046875 19.8125,8.3125 19.21875,8.546875 C18.984375,8.640625 18.59375,8.734375 18.171875,8.8125 C17.75,8.890625 17.3125,8.9375 17,8.953125 C16.484375,8.96875 15.96875,8.984375 15.453125,8.984375 C14.9375,8.984375 14.46875,8.96875 14.109375,8.9375 C14.03125,9.5 13.765625,10.140625 13.453125,10.703125 C13.15625,11.25 12.796875,11.71875 12.59375,11.953125 C12.421875,12.15625 12.34375,12.28125 12.3125,12.375 C12.265625,12.46875 12.296875,12.546875 12.390625,12.640625 C12.59375,12.875 12.8125,13.125 13.0625,13.421875 L13.796875,14.296875 C14.28125,14.890625 14.75,15.453125 15.03125,15.828125 C15.203125,16.046875 15.296875,16.15625 15.4375,16.296875 C15.703125,16.578125 15.65625,16.859375 15.453125,17.1875 C15.328125,17.375 15.109375,17.59375 14.890625,17.765625 C14.65625,17.9375 14.4375,18.078125 14.328125,18.125 C14.09375,18.21875 13.890625,18.28125 13.75,18.28125 C13.59375,18.28125 13.46875,18.25 13.34375,18.171875 C13.125,18.03125 12.828125,17.890625 12.546875,17.796875 C12.125,17.640625 11.515625,17.421875 10.90625,17.203125 C10.296875,17 9.640625,16.796875 9.171875,16.703125 C8.375,16.546875 7.703125,16.90625 7.125,17.65625 Z M12.9375,7.5625 C12.953125,7.40625 12.953125,7.21875 12.953125,7.015625 C12.953125,6.796875 12.9375,6.578125 12.921875,6.34375 C12.890625,5.875 12.859375,5.375 12.78125,4.90625 C12.59375,3.828125 12.21875,2.765625 11.703125,1.875 C11.4375,1.421875 11.1875,1.3125 10.625,1.625 C9.9375,2.015625 9.03125,2.484375 8.09375,2.9375 C7.171875,3.40625 6.265625,3.828125 5.59375,4.15625 L5.234375,4.328125 C5.046875,4.40625 4.96875,4.5 5.03125,4.65625 C5.046875,4.71875 5.109375,4.8125 5.203125,4.953125 C5.34375,5.140625 5.859375,5.4375 6.546875,5.765625 C7.25,6.078125 8.09375,6.421875 8.9375,6.6875 C9.5,6.875 10.34375,7.09375 11.140625,7.28125 C11.9375,7.453125 12.65625,7.578125 12.9375,7.5625 Z" transform="translate(0.1640625, 18.28125) scale(1, -1)"/>
</svg>