<svg height="19.796875" viewBox="0 0 24 19.796875" width="24" xmlns="http://www.w3.org/2000/svg">
<path d="M9.78125,18.5 C10.140625,18.328125 10.453125,18.15625 10.6875,17.90625 C10.921875,17.65625 11.078125,17.328125 11.109375,16.859375 C11.140625,16.28125 11.15625,15.4375 11.15625,14.359375 C10.609375,14.203125 10.0625,14.140625 9.625,14.140625 C9.390625,14.140625 9.265625,14.203125 9.21875,14.359375 C9.171875,14.5 9.1875,14.75 9.234375,15.125 L8.734375,15.265625 C8.6875,14.9375 8.484375,14.40625 8.265625,14.015625 C8.0625,13.671875 8.15625,13.265625 8.609375,13.078125 C9.09375,12.875 9.625,12.9375 10.171875,12.984375 C10.484375,13.015625 10.828125,13.0625 11.15625,13.15625 C11.15625,12.21875 11.140625,11.203125 11.109375,10.03125 C10.171875,9.40625 9.34375,8.75 8.859375,8.046875 C8.53125,7.5625 8.3125,7.0625 8.3125,6.390625 C8.3125,6.046875 8.421875,5.765625 8.609375,5.5625 C8.84375,5.328125 9.09375,5.0625 9.296875,4.8125 C9.5,4.546875 9.65625,4.296875 9.734375,4.125 C9.640625,3.90625 9.453125,3.671875 9.25,3.453125 C9.03125,3.21875 8.796875,2.984375 8.59375,2.84375 C8.328125,2.640625 8.171875,2.421875 8.140625,2.234375 C8.046875,1.8125 8.203125,1.15625 8.546875,0.828125 C8.625,0.734375 8.75,0.71875 8.875,0.75 C9.125,0.828125 9.640625,1.296875 10.015625,1.765625 C10.1875,2 10.359375,2.203125 10.53125,2.40625 C10.625,2.296875 10.6875,2.1875 10.75,2.0625 C10.8125,1.9375 10.859375,1.8125 10.953125,1.65625 C11.125,1.328125 11.234375,1.25 11.546875,1.296875 C11.84375,1.34375 11.9375,1.53125 12.078125,1.828125 C12.25,2.21875 12.25,2.875 12.125,3.53125 C12.4375,3.921875 12.875,4.53125 13.390625,5.25 C13.90625,5.96875 14.4375,6.796875 14.9375,7.609375 C15.421875,8.421875 15.828125,9.21875 16.109375,9.890625 L15.671875,10.25 C15.171875,9.359375 14.59375,8.4375 13.984375,7.5625 C13.375,6.671875 12.734375,5.84375 12.171875,5.140625 L12.171875,6.921875 C12.546875,7.578125 12.953125,8.328125 13.125,8.859375 C13.234375,9.171875 13.28125,9.5 13.0625,9.796875 C12.921875,9.984375 12.53125,10.25 12.046875,10.328125 C12.046875,11.46875 12.078125,12.484375 12.125,13.390625 C13.015625,13.671875 13.8125,13.96875 14.28125,14.28125 C14.609375,14.515625 14.734375,14.734375 14.734375,14.90625 C14.734375,15.140625 14.65625,15.359375 14.46875,15.4375 C14.296875,15.515625 14.015625,15.546875 13.828125,15.546875 C13.578125,15.546875 13.421875,15.453125 13.171875,15.265625 C12.890625,15.046875 12.546875,14.84375 12.1875,14.6875 C12.234375,15.453125 12.328125,16.125 12.4375,16.78125 C12.5,17.171875 12.53125,17.421875 12.5,17.640625 C12.453125,17.84375 12.359375,18.015625 12.171875,18.234375 C11.84375,18.625 11.0625,18.96875 9.9375,19.0625 Z M4.078125,17.515625 C4.71875,17.1875 5.0625,16.953125 5.203125,16.390625 C5.328125,15.921875 5.265625,15.234375 5.09375,14.328125 L5.59375,14.15625 C5.796875,14.46875 6.125,14.875 6.40625,15.21875 C6.65625,15.5 6.84375,15.921875 6.84375,16.296875 C6.84375,16.625 6.734375,16.921875 6.40625,17.265625 C6.140625,17.53125 5.71875,17.703125 5.359375,17.8125 C5.015625,17.90625 4.765625,17.9375 4.390625,17.984375 Z M17.0625,13.171875 C17.375,13.671875 17.609375,13.96875 17.765625,14.078125 C17.921875,14.1875 18,14.03125 18,13.625 C18,12.703125 17.859375,11.75 17.6875,10.34375 C17.640625,9.9375 17.75,9.78125 18.296875,9.59375 C18.703125,9.453125 19.15625,9.21875 19.484375,8.8125 C19.828125,8.390625 20.015625,8.015625 20.125,7.609375 C20.21875,7.1875 20.234375,6.75 20.234375,6.1875 C20.234375,5.671875 20.09375,5.109375 19.859375,4.5625 C19.625,4.015625 19.328125,3.515625 19.015625,3.140625 C18.640625,2.734375 18.1875,2.296875 17.703125,1.921875 C17.203125,1.53125 16.671875,1.203125 16.25,0.96875 C15.078125,0.34375 14.171875,0.03125 13.203125,-0.21875 L13.578125,-0.734375 C14.46875,-0.59375 15.671875,-0.25 17.09375,0.40625 C17.5625,0.640625 18.09375,0.953125 18.609375,1.296875 C19.125,1.625 19.609375,2.015625 19.96875,2.375 C21.171875,3.5625 21.65625,4.71875 21.6875,6.09375 C21.734375,7.125 21.515625,7.859375 20.859375,8.640625 C20.5625,9 20.015625,9.453125 19.078125,9.9375 C18.5,10.234375 18.359375,10.53125 18.5,10.953125 C18.6875,11.4375 18.828125,11.90625 18.96875,12.34375 C19.09375,12.78125 19.21875,13.15625 19.328125,13.46875 C19.609375,14.265625 19.609375,14.953125 19.421875,15.1875 C19.125,15.578125 18.84375,15.625 18.59375,15.625 C18.125,15.625 17.765625,15.34375 17.375,14.734375 C17.109375,14.328125 16.921875,13.96875 16.71875,13.4375 Z M4.859375,13.0625 C4.4375,12.296875 3.921875,11.140625 3.59375,9.625 C3.453125,8.9375 3.328125,8.078125 3.234375,7.234375 C3.125,6.390625 3.078125,5.546875 3.078125,4.921875 C3.078125,3.03125 3.265625,1.5625 3.453125,0.890625 C3.703125,0.046875 3.984375,-0.265625 4.421875,-0.265625 C4.734375,-0.265625 5.046875,0.03125 5.046875,0.578125 C5.046875,0.703125 5.0625,0.890625 5.125,1.15625 C5.21875,1.671875 5.390625,2.1875 5.640625,2.9375 L6.03125,4.21875 C6.3125,5.15625 6.609375,6.25 6.890625,7.375 L6.4375,7.765625 C6.171875,6.90625 5.84375,5.890625 5.484375,4.96875 C5.140625,4.03125 4.78125,3.171875 4.515625,2.59375 L4.4375,3.21875 C4.421875,3.4375 4.40625,3.671875 4.390625,3.921875 C4.375,4.4375 4.34375,5.03125 4.375,5.84375 C4.40625,6.96875 4.53125,8.1875 4.6875,9.40625 C4.859375,10.625 5.078125,11.796875 5.359375,12.828125 Z M11.109375,6.5 C10.890625,5.90625 10.5625,5.234375 10.21875,4.703125 L10.03125,5.046875 C9.96875,5.140625 9.921875,5.234375 9.875,5.328125 C9.8125,5.40625 9.765625,5.5 9.703125,5.59375 C9.640625,5.671875 9.59375,5.78125 9.53125,5.890625 C9.34375,6.21875 9.328125,6.546875 9.640625,7.078125 C9.78125,7.3125 10,7.625 10.25,7.921875 C10.515625,8.234375 10.796875,8.515625 11.109375,8.703125 Z" transform="translate(-0.40625, 19.0625) scale(1, -1)"/>
</svg>