<svg height="24" viewBox="0 0 24 24" width="24" xmlns="http://www.w3.org/2000/svg">
<path d="M5.609375,19.203125 C5.25,18.78125 5.09375,18.171875 5.09375,17.640625 C5.09375,17.109375 5.265625,16.671875 5.890625,16.171875 C6.265625,15.859375 7.015625,15.765625 7.71875,15.796875 C7.640625,15.625 7.515625,15.390625 7.375,15.125 C7.21875,14.875 7.0625,14.609375 6.921875,14.40625 C6.6875,14.09375 6.546875,13.78125 6.546875,13.4375 C6.546875,13.078125 6.765625,12.734375 7.109375,12.234375 C7.421875,11.78125 7.625,11.125 7.578125,10.421875 C7.578125,10.046875 7.546875,9.65625 7.53125,9.265625 C7.53125,8.890625 7.484375,8.484375 7.4375,8.09375 C7.265625,8.3125 7.0625,8.46875 6.671875,8.46875 C6.265625,8.46875 5.890625,8.28125 5.375,7.953125 C4.765625,7.53125 4.421875,7.234375 4.0625,6.828125 C3.53125,6.21875 3.078125,5.640625 3.078125,5.109375 C3.078125,4.625 3.34375,4.421875 3.78125,4.21875 C4.234375,4 5,3.875 5.84375,3.828125 C5.6875,3.59375 5.5625,3.421875 5.421875,3.25 C5.265625,3.078125 5.09375,2.90625 4.859375,2.703125 L4.15625,2.109375 C3.828125,1.84375 3.6875,1.671875 3.78125,1.25 C3.859375,0.828125 4.015625,0.5625 4.25,0.390625 C4.515625,0.1875 4.75,0.234375 5.15625,0.796875 C7,3.3125 8.859375,5.921875 10.921875,8.859375 C12.171875,10.640625 13.3125,12.265625 14.3125,13.625 C15.3125,14.96875 16.15625,16.015625 16.8125,16.609375 C17.09375,16.859375 17.421875,16.859375 17.40625,16.578125 C17.359375,16.0625 17.3125,15.671875 17.234375,15.3125 C17.171875,14.9375 17.046875,14.609375 16.953125,14.28125 C16.890625,14.109375 16.859375,14 16.90625,13.859375 C16.953125,13.734375 17.09375,13.59375 17.375,13.390625 C17.796875,13.078125 18.1875,12.796875 18.359375,12.359375 C18.5625,11.859375 18.59375,11 18.453125,9.96875 C18.265625,8.59375 17.890625,7.328125 17.453125,6.234375 C16.796875,6.59375 15.734375,6.84375 14.65625,6.84375 C13.765625,6.84375 13.015625,6.59375 12.5,6.21875 C11.984375,5.84375 11.6875,5.359375 11.6875,4.859375 C11.6875,4.25 12.078125,3.8125 12.59375,3.546875 C13.125,3.265625 13.8125,3.140625 14.40625,3.140625 C16.015625,3.171875 17.140625,3.734375 17.84375,4.484375 C18.828125,3.546875 19.625,2.421875 20.234375,1.4375 C20.5625,0.890625 20.703125,0.703125 21,0.640625 C21.296875,0.5625 21.453125,0.828125 21.578125,1.25 C21.671875,1.5625 21.59375,2.09375 21.265625,2.59375 C20.609375,3.671875 19.703125,4.578125 18.578125,5.515625 C19.28125,7.078125 19.71875,8.453125 19.859375,9.921875 C19.953125,11.09375 19.875,11.84375 19.609375,12.296875 C19.296875,12.84375 18.8125,13.25 18.140625,13.609375 C17.703125,13.84375 17.6875,14 17.859375,14.328125 L18.328125,15.296875 C18.46875,15.578125 18.59375,15.875 18.71875,16.203125 C18.84375,16.53125 18.890625,17 18.890625,17.328125 C18.890625,17.75 18.5,18.046875 18.078125,18.046875 C17.828125,18.046875 17.546875,17.9375 17.234375,17.71875 C16.578125,17.28125 15.78125,16.40625 15.296875,15.828125 C14.796875,15.265625 14.25,14.578125 13.703125,13.84375 C13.140625,13.109375 12.578125,12.359375 12.0625,11.65625 L11.328125,10.671875 C11.046875,10.296875 10.59375,9.6875 10.09375,8.984375 C9.59375,8.296875 9.03125,7.5625 8.546875,6.921875 C8.71875,8.1875 8.8125,9.484375 8.8125,10.5625 C8.8125,11.546875 8.46875,12.140625 7.90625,12.640625 C7.625,12.875 7.546875,13.015625 7.390625,13.25 C7.25,13.46875 7.265625,13.71875 7.4375,14.015625 C7.546875,14.1875 7.75,14.453125 7.984375,14.703125 C8.203125,14.9375 8.453125,15.171875 8.640625,15.3125 C9,15.59375 9.3125,15.828125 9.671875,15.96875 C10.15625,16.140625 10.46875,16.34375 10.421875,16.65625 C10.375,16.921875 10.21875,17.046875 9.984375,17.234375 C9.71875,17.453125 9.453125,17.5 8.9375,17.3125 C8.65625,17.203125 8.359375,17.09375 7.953125,17.0625 C7.328125,17.015625 6.875,17.140625 6.546875,17.3125 C6.171875,17.53125 5.984375,17.859375 5.953125,18.234375 C5.921875,18.53125 5.96875,18.734375 6.09375,19.0625 Z M6.21875,4.625 C5.796875,4.578125 5.40625,4.71875 5.046875,4.90625 C4.5625,5.125 4.34375,5.375 4.65625,5.859375 C4.953125,6.3125 5.328125,6.6875 5.6875,7.015625 C6.046875,7.328125 6.359375,7.453125 6.640625,7.484375 C7.15625,7.53125 7.3125,7.21875 7.34375,6.890625 C7.390625,6.546875 7.34375,6.296875 7.21875,5.953125 C7.046875,5.46875 6.875,5.125 6.6875,4.9375 C6.515625,4.75 6.359375,4.640625 6.21875,4.625 Z M16.921875,5.28125 C16.328125,4.34375 15.5,3.859375 14.46875,3.828125 C13.15625,3.78125 12.390625,4.171875 12.390625,4.921875 C12.390625,5.359375 12.609375,5.65625 13,5.84375 C13.375,6.03125 13.921875,6.09375 14.5625,6.09375 C14.984375,6.09375 15.421875,6.015625 15.84375,5.875 C16.25,5.71875 16.640625,5.515625 16.921875,5.28125 Z" transform="translate(-0.375, 19.203125) scale(1, -1)"/>
</svg>