<svg height="20.265625" viewBox="0 0 24 20.265625" width="24" xmlns="http://www.w3.org/2000/svg">
<path d="M14.234375,18.71875 C14.609375,18.5 14.8125,18.265625 14.734375,18.046875 C14.609375,17.703125 14.28125,17.09375 13.890625,16.453125 C13.5,15.828125 13.03125,15.171875 12.640625,14.796875 C12.171875,14.328125 12.078125,14.125 12.171875,13.8125 C12.21875,13.578125 12.359375,13.375 12.5,13.25 C12.671875,13.109375 12.890625,13.125 13.171875,13.28125 C13.390625,13.390625 13.609375,13.515625 13.859375,13.625 C14.328125,13.859375 14.8125,14.0625 15.25,14.25 L15.828125,14.5 C16.09375,14.625 16.140625,14.5625 16.109375,14.375 C15.921875,13.390625 15.40625,12 14.796875,10.671875 C14.046875,10.4375 13.25,10.09375 12.5,9.703125 C11.75,9.3125 11.0625,8.859375 10.578125,8.375 C9.640625,7.4375 9.09375,6.65625 9.09375,5.6875 C9.09375,5.09375 9.375,4.671875 9.84375,4.484375 C10.3125,4.3125 10.953125,4.421875 11.703125,4.90625 C11.984375,5.078125 12.3125,5.3125 12.6875,5.640625 C13.0625,5.953125 13.4375,6.34375 13.765625,6.78125 C14.09375,7.203125 14.46875,7.796875 14.8125,8.375 C15.171875,8.96875 15.5,9.578125 15.734375,10.109375 C16.015625,10.234375 16.484375,10.3125 16.875,10.28125 C17.40625,10.25 17.5,9.890625 17.5,9.34375 C17.5,8.890625 17.46875,8.359375 17.421875,7.8125 C17.359375,7.25 17.25,6.671875 17.109375,6.171875 C17.03125,5.890625 17.1875,5.609375 17.375,5.46875 C17.609375,5.328125 17.890625,5.296875 18.21875,5.453125 C18.5,5.59375 19.109375,5.765625 19.765625,5.765625 C20.1875,5.765625 20.40625,5.296875 20.40625,4.703125 C20.40625,3.8125 19.90625,2.96875 18.484375,2 C16.71875,0.78125 14.65625,0.03125 12.59375,-0.625 L12.984375,-1.203125 C13.984375,-0.921875 15.125,-0.578125 16.203125,-0.171875 C17.265625,0.25 18.265625,0.6875 19.015625,1.109375 C19.90625,1.625 20.65625,2.125 21.171875,2.703125 C21.6875,3.265625 21.984375,3.90625 21.984375,4.703125 C21.984375,5.1875 21.796875,5.59375 21.484375,5.90625 C21.171875,6.21875 20.75,6.421875 20.28125,6.5 C19.6875,6.59375 19.25,6.515625 18.6875,6.34375 C18.28125,6.21875 18.21875,6.265625 18.34375,6.6875 C18.40625,6.921875 18.453125,7.15625 18.546875,7.40625 C18.625,7.671875 18.6875,7.9375 18.765625,8.203125 C18.890625,8.75 18.96875,9.296875 18.96875,9.84375 C18.921875,10.546875 18.46875,10.96875 17.8125,11.0625 C17.28125,11.140625 16.609375,11.09375 16.15625,11 C16.390625,11.46875 16.65625,12.046875 16.859375,12.578125 L17.421875,13.96875 C17.609375,14.359375 17.65625,14.78125 17.5625,15 C17.4375,15.28125 17.078125,15.546875 16.90625,15.640625 C16.53125,15.84375 16.1875,15.8125 15.78125,15.578125 C15.546875,15.453125 15.234375,15.3125 14.921875,15.1875 C14.609375,15.0625 14.3125,14.953125 14.140625,14.90625 C14.40625,15.25 14.734375,15.75 15.046875,16.265625 C15.359375,16.765625 15.640625,17.296875 15.796875,17.6875 C15.921875,18.03125 15.828125,18.3125 15.59375,18.546875 C15.34375,18.78125 14.984375,18.96875 14.5625,19.0625 Z M5.6875,18.09375 C5.6875,17.46875 5.796875,16.953125 5.984375,16.5625 C6.203125,16.0625 6.453125,15.703125 6.671875,15.484375 C6.40625,15.1875 5.90625,14.6875 5.40625,14.203125 L5.84375,13.875 C6.109375,14.109375 6.453125,14.390625 6.78125,14.609375 C7.109375,14.8125 7.40625,14.9375 7.625,14.9375 C7.921875,14.890625 8.265625,14.921875 8.5,15.03125 C8.734375,15.125 8.890625,15.34375 8.84375,15.671875 C8.78125,16.0625 8.609375,16.34375 8.234375,16.4375 C7.5625,16.625 7.109375,16.859375 6.84375,17.140625 C6.5,17.5 6.25,17.84375 6.125,18.359375 Z M2.5625,10.703125 C2.609375,10.171875 2.75,9.59375 2.9375,9.265625 C3.25,8.65625 3.6875,8.609375 4.125,8.84375 C4.359375,8.9375 4.71875,9.125 5.015625,9.296875 C5.328125,9.453125 5.609375,9.609375 5.734375,9.6875 C5.359375,8.65625 5.078125,7.578125 4.890625,6.59375 C4.703125,5.609375 4.609375,4.71875 4.609375,4.0625 C4.609375,2.84375 4.765625,1.765625 4.953125,1.109375 C5.09375,0.625 5.421875,0.3125 5.796875,0.3125 C6.125,0.3125 6.40625,0.53125 6.40625,1.03125 C6.40625,1.703125 6.71875,2.5625 7.078125,3.453125 C7.4375,4.34375 7.828125,5.1875 8.109375,5.796875 L7.703125,6.140625 C7.421875,5.59375 7.078125,4.953125 6.734375,4.34375 C6.375,3.734375 6,3.140625 5.703125,2.703125 C5.671875,2.796875 5.640625,2.921875 5.625,3.0625 C5.578125,3.328125 5.5625,3.640625 5.5625,3.953125 L5.5625,4.34375 C5.5625,4.96875 5.671875,5.765625 5.859375,6.546875 C6.046875,7.3125 6.3125,8.046875 6.59375,8.609375 C6.9375,9.265625 7.203125,9.71875 7.46875,10.078125 C7.734375,10.4375 7.640625,10.703125 7.375,10.96875 C7.109375,11.234375 6.875,11.328125 6.578125,11.140625 C6.453125,11.046875 6.3125,10.96875 6.109375,10.875 C5.71875,10.671875 5.265625,10.484375 4.8125,10.296875 C4.34375,10.125 4.015625,10.03125 3.78125,10.03125 C3.671875,10.03125 3.578125,10.078125 3.5,10.171875 C3.359375,10.390625 3.25,10.671875 3.125,11.046875 Z M14.46875,9.875 C14.296875,9.5 14.03125,9.046875 13.765625,8.59375 C13.484375,8.140625 13.203125,7.71875 13.015625,7.46875 C12.34375,6.578125 11.8125,5.859375 11.109375,5.546875 C10.734375,5.375 10.578125,5.5625 10.578125,5.9375 C10.578125,6.40625 10.8125,7.078125 11.359375,7.65625 C11.640625,7.953125 12.125,8.375 12.6875,8.796875 C13.25,9.203125 13.875,9.59375 14.46875,9.875 Z" transform="translate(-0.2734375, 19.0625) scale(1, -1)"/>
</svg>