<svg height="20.4375" viewBox="0 0 24 20.4375" width="24" xmlns="http://www.w3.org/2000/svg">
<path d="M13.421875,19.609375 C13.3125,19.609375 13.1875,19.546875 13.03125,19.4375 C12.734375,19.1875 12.625,18.609375 12.59375,17.953125 C12.59375,17.625 12.5625,17.28125 12.546875,16.90625 C12.46875,14.984375 12.421875,13.3125 12.40625,11.75 C12.40625,10.203125 12.40625,8.75 12.4375,7.34375 C10.875,7.25 9.625,7.390625 8.734375,7.65625 C8.15625,7.828125 7.953125,8.15625 7.953125,8.421875 C7.953125,9.40625 8.765625,10.125 9.9375,10.421875 C10.609375,10.59375 10.828125,10.875 10.78125,11.203125 C10.6875,11.765625 10.25,11.984375 9.921875,11.984375 C9.453125,11.984375 9.046875,12.046875 8.75,12.1875 C8.4375,12.3125 8.25,12.5 8.265625,12.6875 C8.296875,12.984375 8.3125,13.15625 8.5,13.421875 L8.046875,13.765625 C7.4375,13.28125 7.25,12.671875 7.296875,12.234375 C7.390625,11.578125 7.765625,11.265625 8.28125,11.0625 C8.5625,10.96875 8.65625,10.828125 8.46875,10.703125 C8.09375,10.46875 7.75,10.09375 7.515625,9.6875 C7.28125,9.265625 7.140625,8.796875 7.15625,8.375 C7.15625,7.671875 7.53125,7.078125 8.375,6.703125 C9.21875,6.3125 10.53125,6.125 12.453125,6.21875 L12.453125,3.828125 C12.453125,3.484375 12.359375,3.4375 12.09375,3.578125 C11.453125,3.921875 10.671875,4.265625 9.828125,4.515625 C8.984375,4.765625 8.09375,4.921875 7.25,4.921875 C6.265625,4.921875 5.5,4.640625 4.984375,4.21875 C4.46875,3.796875 4.203125,3.25 4.203125,2.6875 C4.203125,1.5625 4.90625,0.78125 6.171875,0.125 C6.78125,-0.203125 7.859375,-0.4375 9.03125,-0.59375 C10.203125,-0.734375 11.53125,-0.828125 12.6875,-0.828125 C13.953125,-0.828125 15.28125,-0.703125 16.40625,-0.515625 C17.515625,-0.328125 18.40625,-0.078125 18.828125,0.171875 C19.09375,0.34375 19.203125,0.546875 19.203125,0.734375 C19.203125,0.9375 19.109375,1.109375 18.84375,1.25 C18.390625,1.46875 17.890625,1.484375 17.453125,1.296875 C16.328125,0.875 14.625,0.546875 12.265625,0.5 C10,0.484375 8.21875,0.6875 6.9375,1.109375 C5.765625,1.484375 5.109375,2.09375 5.109375,2.796875 C5.109375,3.21875 5.34375,3.5625 5.75,3.8125 C6.140625,4.046875 6.6875,4.171875 7.34375,4.171875 C8.1875,4.171875 9.125,3.890625 9.96875,3.5 C10.8125,3.09375 11.515625,2.59375 11.84375,2.15625 C12.125,1.78125 12.328125,1.609375 12.59375,1.609375 C12.828125,1.609375 13.015625,1.65625 13.15625,1.765625 C13.484375,1.953125 13.65625,2.328125 13.734375,2.796875 C13.8125,3.265625 13.765625,3.75 13.765625,4.15625 C13.75,4.359375 13.75,4.578125 13.75,4.8125 C13.734375,5.03125 13.734375,5.265625 13.71875,5.515625 C13.71875,5.75 13.71875,6.03125 13.703125,6.34375 C14.546875,6.453125 15.375,6.625 16.125,6.859375 C16.859375,7.078125 17.515625,7.34375 17.984375,7.671875 C18.53125,8.0625 18.640625,8.515625 18.265625,8.890625 C18.078125,9.078125 17.859375,9.390625 17.515625,9.96875 C17.390625,10.15625 17.171875,10.6875 16.90625,11.390625 C16.625,12.078125 16.34375,12.9375 16.109375,13.78125 L15.53125,13.578125 C15.703125,12.78125 15.921875,11.875 16.109375,11.125 C16.296875,10.359375 16.46875,9.734375 16.5625,9.453125 C16.703125,9.046875 16.734375,8.796875 16.6875,8.609375 C16.625,8.421875 16.453125,8.296875 16.171875,8.15625 C15.8125,7.96875 14.859375,7.671875 13.671875,7.484375 C13.671875,8.90625 13.640625,10.40625 13.65625,12.109375 C13.671875,13.796875 13.71875,15.671875 13.828125,17.859375 C14.09375,17.40625 14.265625,17.140625 14.453125,16.765625 L14.953125,17.0625 C14.640625,17.609375 14.40625,18.140625 14.234375,18.59375 C14.1875,18.734375 14.140625,18.828125 14.109375,18.921875 L14.015625,19.125 C13.890625,19.4375 13.65625,19.609375 13.421875,19.609375 Z M7.921875,17.609375 C8.09375,16.71875 8.46875,15.984375 9,15.46875 C9.515625,14.953125 10.171875,14.65625 10.875,14.65625 C11.359375,14.65625 11.46875,14.984375 11.46875,15.359375 C11.46875,15.9375 10.953125,16.234375 10.328125,16.328125 C9.53125,16.453125 8.796875,16.96875 8.40625,17.90625 Z" transform="translate(0.296875, 19.609375) scale(1, -1)"/>
</svg>