<svg height="18.71875" viewBox="0 0 24 18.71875" width="24" xmlns="http://www.w3.org/2000/svg">
<path d="M7.484375,18.125 C6.875,17.359375 6.453125,16.390625 6.453125,15.453125 C6.453125,14.484375 6.671875,13.8125 6.96875,13.359375 C7.25,12.921875 7.625,12.71875 8,12.71875 C8.375,12.71875 8.59375,13.015625 8.859375,13.53125 C9.109375,14.046875 9.640625,14.640625 10.296875,15.21875 C10.953125,15.78125 11.703125,16.328125 12.4375,16.71875 C13.171875,17.125 13.859375,17.375 14.328125,17.375 C14.71875,17.375 15,17.234375 15.171875,17 C15.359375,16.765625 15.4375,16.4375 15.4375,16.125 C15.4375,15.625 15.203125,15.125 14.890625,14.65625 C14.5625,14.203125 13.890625,13.5 12.890625,12.796875 C10.46875,11.09375 8.359375,9.65625 6.9375,8.328125 C6.390625,7.8125 6.03125,7.34375 5.796875,6.875 C5.578125,6.40625 5.5,5.9375 5.5,5.40625 C5.5,3.9375 6.03125,2.75 6.640625,1.953125 C6.890625,1.625 7.25,1.625 7.46875,1.765625 C7.703125,1.890625 7.8125,2.1875 7.90625,2.46875 C8.03125,2.90625 8.25,3.4375 8.609375,4.03125 C9.609375,5.6875 10.71875,6.828125 11.796875,7.53125 C12.875,8.234375 13.9375,8.515625 14.859375,8.515625 C15.390625,8.515625 15.875,8.390625 16.21875,8.09375 C16.578125,7.8125 16.78125,7.359375 16.78125,6.71875 C16.78125,5.984375 16.359375,5.125 15.625,4.28125 C14.890625,3.4375 13.84375,2.609375 12.578125,1.953125 C11.640625,1.4375 11.421875,0.828125 12.140625,0.3125 C12.484375,0.078125 13.03125,-0.125 13.625,-0.265625 C14.203125,-0.40625 14.84375,-0.5 15.40625,-0.5 C16.015625,-0.546875 16.5625,-0.5 16.96875,-0.40625 C17.375,-0.3125 17.640625,-0.125 17.640625,0.234375 C17.640625,0.71875 17.328125,0.921875 17,0.890625 C16.71875,0.875 16.453125,0.859375 16.203125,0.859375 C15.9375,0.859375 15.640625,0.875 15.296875,0.890625 C14.703125,0.9375 14.1875,0.984375 13.765625,1.125 C13.109375,1.34375 13.03125,1.53125 13.921875,1.921875 C15.296875,2.515625 16.46875,3.28125 17.28125,4.125 C18.078125,4.953125 18.546875,5.84375 18.546875,6.6875 C18.546875,7.40625 18.25,8.09375 17.640625,8.59375 C17.015625,9.078125 16.09375,9.375 14.84375,9.359375 C13.859375,9.359375 12.875,9.109375 11.84375,8.5625 C10.8125,8 9.734375,7.15625 8.5625,5.90625 C8.234375,5.5625 7.953125,5.234375 7.71875,4.9375 C7.46875,4.640625 7.28125,4.421875 7.15625,4.28125 L6.96875,4.28125 C6.875,4.484375 6.8125,4.8125 6.765625,5.140625 C6.71875,5.46875 6.6875,5.796875 6.6875,6.03125 C6.703125,6.359375 6.765625,6.625 6.890625,6.890625 C7.015625,7.15625 7.234375,7.421875 7.609375,7.828125 C8.015625,8.265625 8.75,8.859375 9.6875,9.53125 C10.609375,10.203125 11.703125,10.953125 12.875,11.6875 C13.859375,12.3125 14.625,12.875 15.203125,13.359375 C15.78125,13.859375 16.171875,14.234375 16.390625,14.5 C16.828125,15 17.0625,15.671875 17.0625,16.171875 C17.0625,17.015625 16.71875,17.453125 16.21875,17.796875 C15.796875,18.078125 15.265625,18.171875 14.65625,18.171875 C13.96875,18.171875 12.921875,17.9375 11.78125,17.421875 C10.625,16.90625 9.375,16.109375 8.28125,15.03125 C8.0625,14.796875 7.96875,14.84375 7.875,15.078125 C7.75,15.359375 7.6875,15.765625 7.6875,16.25 C7.6875,16.734375 7.8125,17.265625 8.0625,17.84375 Z" transform="translate(-0.0234375, 18.171875) scale(1, -1)"/>
</svg>