<svg height="21.3125" viewBox="0 0 24 21.3125" width="24" xmlns="http://www.w3.org/2000/svg">
<path d="M5.546875,13.65625 C5.015625,13.21875 4.578125,12.578125 4.578125,11.984375 C4.578125,11.59375 4.765625,11.3125 4.90625,11.15625 C5.1875,10.875 5.609375,10.859375 6.03125,10.90625 C6.4375,10.953125 6.71875,11 7.171875,11.09375 C6.65625,10.484375 6.03125,9.640625 5.4375,8.765625 C4.828125,7.90625 4.265625,7.015625 3.890625,6.4375 C3.71875,6.171875 3.546875,6.03125 3.359375,5.890625 C3.234375,5.78125 3.125,5.671875 3.03125,5.5625 C2.84375,5.359375 2.84375,5.09375 2.8125,4.765625 C2.796875,4.4375 2.75,3.96875 3.125,3.921875 C3.3125,3.875 3.578125,4.015625 3.921875,4.328125 C4.34375,4.71875 4.859375,5.171875 5.421875,5.625 C5.96875,6.078125 6.546875,6.546875 7.109375,6.96875 C7.671875,7.390625 8.21875,7.78125 8.75,8.15625 C9.265625,8.53125 9.71875,8.875 10.125,9.171875 C10,7.5625 9.96875,6.203125 9.921875,4.828125 C9.03125,4.4375 8.140625,4.015625 7.296875,3.546875 C6.453125,3.078125 5.65625,2.609375 5,2.15625 C4.4375,1.78125 4.140625,1.90625 4.21875,2.28125 C4.359375,2.984375 4.5625,3.390625 4.859375,3.78125 L4.4375,4.0625 C3.984375,3.546875 3.59375,2.984375 3.265625,2.40625 C2.9375,1.8125 2.765625,1.203125 2.734375,0.625 C2.703125,0.046875 2.90625,-0.296875 3.3125,-0.296875 C3.59375,-0.296875 3.828125,-0.09375 4.203125,0.296875 C4.609375,0.703125 5.015625,1.078125 5.546875,1.46875 C5.90625,1.734375 6.34375,2.046875 6.71875,2.3125 C7.15625,2.03125 7.609375,1.703125 8.03125,1.375 C8.4375,1.046875 8.796875,0.734375 9.046875,0.5 C9.453125,0.140625 9.6875,-0.21875 9.78125,-0.578125 C9.84375,-0.875 9.921875,-1.078125 10.015625,-1.1875 C10.09375,-1.296875 10.203125,-1.34375 10.328125,-1.34375 C10.484375,-1.34375 10.6875,-1.203125 10.875,-1.015625 C11.046875,-0.828125 11.203125,-0.609375 11.265625,-0.453125 C11.421875,-0.078125 11.40625,0.484375 11.359375,0.96875 C11.203125,2.59375 11.125,4.109375 11.125,5.5625 C11.125,6.984375 11.15625,8.375 11.234375,9.734375 L11.421875,9.890625 C12.125,9 12.890625,8.21875 13.84375,7.65625 C14.78125,7.078125 15.921875,6.734375 17.375,6.734375 C18.40625,6.734375 19.484375,7.09375 20.328125,7.75 C21.15625,8.390625 21.71875,9.3125 21.71875,10.4375 C21.71875,11.296875 21.3125,11.984375 20.65625,12.4375 C20,12.890625 19.046875,13.140625 17.953125,13.109375 C16.828125,13.0625 15.796875,12.875 14.75,12.46875 C13.6875,12.078125 12.59375,11.46875 11.375,10.671875 C11.515625,13.171875 11.65625,14.953125 11.890625,16.078125 C12.03125,16.84375 12.140625,17.421875 12.140625,18.171875 C12.140625,18.78125 11.765625,19.171875 11.109375,19.4375 C10.53125,19.671875 9.890625,19.84375 9.296875,19.96875 L9.03125,19.46875 C9.59375,19.1875 10.015625,18.9375 10.28125,18.609375 C10.53125,18.265625 10.65625,17.859375 10.65625,17.265625 C10.671875,16.46875 10.625,15.40625 10.546875,14.1875 C10.46875,12.96875 10.359375,11.5625 10.21875,10.109375 C9.328125,9.5 8.375,8.84375 7.4375,8.1875 C6.5,7.53125 5.578125,6.890625 4.78125,6.3125 C5.28125,7.171875 5.859375,8.078125 6.46875,8.875 C7.0625,9.671875 7.671875,10.375 8.203125,10.828125 C8.40625,11 8.5625,11.140625 8.71875,11.25 C8.875,11.375 9.03125,11.515625 9.21875,11.65625 C9.359375,11.796875 9.375,12.015625 9.265625,12.203125 C9.171875,12.390625 8.9375,12.546875 8.640625,12.578125 C8.375,12.609375 8,12.4375 7.578125,12.234375 C7.171875,12.046875 6.796875,12.015625 6.390625,12.046875 C6.03125,12.0625 5.75,12.21875 5.65625,12.453125 C5.5625,12.6875 5.609375,13 5.9375,13.328125 Z M5.09375,17.203125 C5.703125,15.640625 6.78125,14.578125 8.109375,14.3125 C8.5625,14.21875 9.046875,14.1875 9.40625,14.46875 C9.640625,14.65625 9.640625,15.140625 9.3125,15.453125 C9.09375,15.6875 8.859375,15.78125 8.421875,15.78125 C8.09375,15.78125 7.671875,15.796875 7.4375,15.890625 C6.6875,16.1875 6.03125,16.65625 5.453125,17.546875 Z M11.9375,10.21875 C14.09375,11.71875 15.953125,12.390625 17.90625,12.390625 C19.375,12.390625 20.09375,11.765625 20.09375,10.390625 C20.09375,9.6875 19.734375,9.015625 19.171875,8.515625 C18.59375,8 17.796875,7.671875 16.953125,7.703125 C14.890625,7.765625 13.28125,8.5 11.9375,10.21875 Z M12.890625,4.78125 C13.640625,4.96875 14.234375,4.921875 14.65625,4.5625 C15,4.28125 15.140625,3.96875 15.40625,3.359375 C15.6875,2.75 16.078125,2.734375 16.53125,3.21875 C17.28125,4.015625 18.015625,4.453125 18.671875,4.578125 C19.65625,4.765625 20.328125,4.46875 20.3125,3.890625 C20.28125,3.3125 20,2.859375 19.25,2.375 C17.890625,1.484375 16.25,0.9375 14.140625,0.34375 L14.515625,-0.265625 C15.65625,0 16.828125,0.328125 17.828125,0.671875 C18.828125,1 19.671875,1.34375 20.234375,1.671875 C20.875,2.046875 21.328125,2.390625 21.625,2.734375 C21.921875,3.078125 22.0625,3.421875 22.0625,3.84375 C22.0625,4.234375 21.828125,4.625 21.453125,4.90625 C21.078125,5.1875 20.546875,5.375 19.921875,5.375 C19.546875,5.375 19.0625,5.296875 18.546875,5.171875 C18.03125,5.046875 17.515625,4.859375 17.109375,4.671875 C16.84375,4.546875 16.671875,4.515625 16.546875,4.546875 C16.421875,4.578125 16.328125,4.671875 16.203125,4.828125 C15.875,5.265625 15.484375,5.46875 14.9375,5.5625 C14.375,5.65625 13.5,5.515625 12.734375,5.234375 Z M9.890625,4.171875 L9.921875,2.625 C9.921875,2.140625 9.953125,1.671875 9.984375,1.171875 C9.046875,1.828125 8.109375,2.3125 7.21875,2.6875 C8.015625,3.1875 8.859375,3.6875 9.890625,4.171875 Z" transform="translate(-0.3828125, 19.96875) scale(1, -1)"/>
</svg>