<svg height="19.09375" viewBox="0 0 24 19.09375" width="24" xmlns="http://www.w3.org/2000/svg">
<path d="M5.90625,18 C6.1875,17.421875 6.53125,16.953125 6.84375,16.515625 C7.15625,16.109375 7.5625,15.75 7.90625,15.546875 C8.3125,15.3125 8.84375,15.34375 9.453125,15.625 C9.9375,15.84375 10.34375,16 10.875,16.171875 C12.140625,16.578125 13.328125,16.875 14.59375,17.015625 C14.78125,17.046875 14.890625,17.015625 14.9375,16.96875 C14.984375,16.90625 14.9375,16.8125 14.796875,16.671875 C12.921875,15 11.234375,13.40625 9.609375,11.765625 C7.984375,10.109375 6.40625,8.421875 4.8125,6.546875 C4.328125,6 4.015625,5.703125 3.671875,5.421875 C3.265625,5.109375 3.0625,4.90625 2.9375,4.421875 C2.84375,4.109375 2.828125,3.640625 2.859375,3.3125 C2.875,3.03125 3,2.859375 3.171875,2.828125 C3.359375,2.78125 3.578125,2.875 3.78125,3.078125 C3.96875,3.265625 4.15625,3.46875 4.359375,3.6875 C4.546875,3.890625 4.78125,4.109375 5.0625,4.375 C5.765625,5.03125 6.421875,5.59375 7.109375,6.109375 C7.8125,6.625 8.515625,7.109375 9.296875,7.578125 C10.953125,8.609375 12.625,9.46875 14.1875,10.125 C14.65625,10.328125 14.984375,10.421875 15.21875,10.421875 C15.34375,10.421875 15.453125,10.390625 15.546875,10.359375 C15.75,10.28125 16.0625,10.203125 16.109375,9.6875 C16.171875,9.15625 15.90625,8.3125 15.546875,7.421875 C15.171875,6.53125 14.765625,5.609375 14.359375,4.765625 C14.15625,4.328125 13.96875,3.921875 13.8125,3.546875 C13.421875,2.671875 13.15625,2.09375 13.125,1.484375 C13.109375,1.125 13.15625,0.8125 13.3125,0.515625 C13.484375,0.21875 13.765625,-0.03125 14.234375,-0.234375 C15.03125,-0.578125 16.015625,-0.6875 17.1875,-0.71875 C18.21875,-0.75 19.078125,-0.59375 19.671875,-0.40625 C20.0625,-0.28125 20.28125,-0.125 20.3125,0.21875 C20.34375,0.484375 20.21875,0.828125 19.90625,0.96875 C19.53125,1.140625 19.125,1.125 18.234375,0.890625 C17.828125,0.78125 17.375,0.71875 16.859375,0.6875 C15.828125,0.640625 14,0.6875 14,1.71875 C14,2.1875 14.28125,2.734375 14.5625,3.234375 C14.953125,3.90625 15.4375,4.71875 15.921875,5.53125 C16.390625,6.34375 16.859375,7.15625 17.234375,7.859375 C17.40625,8.171875 17.609375,8.5625 17.75,8.9375 C17.890625,9.3125 17.984375,9.6875 17.953125,10.015625 C17.875,10.8125 17.40625,11.140625 16.5625,11.1875 C15.640625,11.21875 14.890625,11 14,10.703125 C12.875,10.328125 11.53125,9.6875 10.171875,8.984375 C8.8125,8.265625 7.4375,7.453125 6.296875,6.71875 L6.1875,6.84375 C7.015625,7.953125 8.046875,9.078125 9.125,10.15625 C10.203125,11.234375 11.359375,12.265625 12.4375,13.15625 C13.515625,14.046875 14.53125,14.84375 15.359375,15.4375 C15.609375,15.609375 15.828125,15.75 16.046875,15.859375 L16.671875,16.203125 C16.90625,16.328125 17.09375,16.609375 17.09375,16.8125 C17.09375,17.03125 17.078125,17.234375 16.875,17.421875 C16.625,17.671875 16.375,17.953125 15.890625,18.1875 C15.640625,18.3125 15.390625,18.3125 15.078125,18.3125 C14.75,18.3125 14.375,18.21875 13.90625,18.078125 C12.171875,17.5625 10.8125,17.25 9.390625,17.015625 C8.65625,16.890625 8.15625,16.890625 7.65625,17.1875 C7.078125,17.515625 6.796875,17.890625 6.484375,18.34375 Z" transform="translate(0.4140625, 18.34375) scale(1, -1)"/>
</svg>