<svg height="19.921875" viewBox="0 0 24 19.921875" width="24" xmlns="http://www.w3.org/2000/svg">
<path d="M9.3125,18.578125 C9.515625,18.5 9.703125,18.40625 9.859375,18.3125 C10.15625,18.109375 10.484375,17.984375 10.328125,17.625 C10.25,17.453125 10.015625,17.203125 9.625,16.90625 L9.203125,16.5625 C9.03125,16.4375 8.859375,16.296875 8.703125,16.15625 C8.359375,15.875 8.03125,15.59375 7.875,15.40625 L7.578125,15.109375 C7.484375,15.015625 7.40625,14.90625 7.34375,14.796875 C7.1875,14.578125 7.078125,14.328125 7.078125,13.953125 C7.078125,13.53125 7.171875,13.234375 7.328125,12.828125 C6.671875,12.5 5.890625,11.984375 5.140625,11.328125 C4.390625,10.671875 3.671875,9.84375 3.125,8.859375 L3.59375,8.453125 C4.390625,9.5 5.234375,10.296875 5.953125,10.859375 C6.6875,11.421875 7.28125,11.75 7.609375,11.8125 C7.65625,11.65625 7.6875,11.515625 7.71875,11.375 L7.828125,10.953125 C7.296875,10.15625 6.5,9.03125 5.609375,7.859375 C4.703125,6.6875 3.703125,5.421875 2.8125,4.34375 C2.625,4.109375 2.484375,3.9375 2.390625,3.734375 C2.296875,3.546875 2.265625,3.296875 2.265625,2.953125 C2.265625,2.203125 2.609375,1.921875 2.953125,1.921875 C3.140625,1.921875 3.453125,2.0625 3.671875,2.3125 C3.96875,2.640625 4.25,2.9375 4.53125,3.21875 C5.0625,2.234375 5.5,1.46875 5.84375,1.015625 C5.984375,0.828125 6.3125,0.390625 6.53125,-0.046875 C6.953125,-0.890625 7.4375,-0.9375 8.109375,-0.359375 C9.1875,0.578125 9.6875,2.140625 9.6875,4.4375 C9.6875,5.375 9.671875,6.296875 9.578125,7.15625 C10.765625,7.9375 11.5625,8.453125 12.171875,8.796875 C12.78125,9.125 13.203125,9.28125 13.578125,9.359375 C14,9.453125 14.328125,9.34375 14.46875,8.859375 C14.65625,8.3125 14.875,7.703125 15.046875,7.375 C15.3125,6.875 15.546875,6.796875 15.84375,6.796875 C15.984375,6.796875 16.109375,6.84375 16.21875,6.953125 C16.328125,7.0625 16.46875,7.25 16.65625,7.515625 C17.21875,8.328125 17.734375,8.859375 18.203125,9.1875 C18.671875,9.515625 19.109375,9.640625 19.515625,9.625 C20.15625,9.59375 20.3125,9.015625 20.3125,8.140625 C20.3125,7.328125 19.953125,6.375 19.28125,5.375 C18.59375,4.359375 17.5625,3.3125 16.25,2.28125 L16.71875,1.765625 C18.28125,2.75 19.59375,3.8125 20.5,4.90625 C21.40625,5.984375 21.921875,7.0625 21.921875,8.140625 C21.921875,9.78125 21.03125,10.515625 19.609375,10.515625 C18.53125,10.515625 17.421875,9.875 16.4375,8.984375 C16.171875,8.734375 16.0625,8.78125 15.921875,9.046875 C15.765625,9.328125 15.5625,9.609375 15.296875,9.890625 C15.078125,10.109375 14.71875,10.328125 14.265625,10.328125 C13.828125,10.328125 13.109375,10.0625 12.265625,9.65625 C11.421875,9.25 10.453125,8.671875 9.484375,8.0625 C9.359375,9.046875 9.203125,9.9375 8.984375,10.828125 C9.296875,11.3125 9.5,11.75 9.546875,12.078125 C9.640625,12.484375 9.53125,12.78125 9.34375,12.96875 C9.078125,13.234375 8.796875,13.25 8.234375,13.15625 C8.140625,13.375 8.09375,13.578125 8.046875,13.75 C7.984375,14.09375 8,14.375 8.265625,14.671875 C8.390625,14.8125 8.59375,14.984375 8.859375,15.1875 C9.140625,15.390625 9.59375,15.59375 10.109375,15.828125 C10.640625,16.0625 11.25,16.34375 11.859375,16.625 C12.40625,16.90625 12.609375,17.109375 12.484375,17.609375 C12.40625,17.9375 12.0625,18.265625 11.546875,18.53125 C11.03125,18.78125 10.34375,18.953125 9.59375,18.984375 Z M8.0625,9.640625 C8.15625,8.890625 8.265625,8.140625 8.3125,7.328125 C6.328125,6 4.859375,4.921875 3.671875,3.984375 L3.59375,4.0625 C3.96875,4.5625 4.453125,5.1875 5,5.875 C5.53125,6.546875 6.125,7.265625 6.65625,7.9375 Z M8.3125,6.3125 C8.359375,5.65625 8.375,5.0625 8.328125,4.390625 C8.328125,4.015625 8.28125,3.515625 8.21875,3.03125 C8.140625,2.53125 8.03125,2.046875 7.875,1.71875 C7.625,1.21875 7.375,1.171875 6.921875,1.484375 C6.734375,1.625 6.421875,1.9375 6.078125,2.34375 C5.75,2.75 5.375,3.25 5.046875,3.71875 C6.015625,4.640625 7,5.421875 8.3125,6.3125 Z" transform="translate(-0.09375, 18.984375) scale(1, -1)"/>
</svg>