<svg height="20.28125" viewBox="0 0 24 20.28125" width="24" xmlns="http://www.w3.org/2000/svg">
<path d="M12.296875,18.796875 C12.5625,18.625 12.6875,18.5 12.828125,18.359375 C13.0625,18.078125 13.09375,17.984375 12.875,17.796875 C12.734375,17.65625 12.46875,17.515625 12.171875,17.34375 C11.859375,17.171875 11.5,16.984375 11.203125,16.828125 C10.40625,16.421875 9.515625,15.96875 8.765625,15.671875 L9.09375,15.09375 L11.375,15.921875 C12.203125,16.203125 13.015625,16.46875 13.671875,16.65625 C14.046875,16.765625 14.328125,16.859375 14.515625,16.96875 C14.6875,17.0625 14.765625,17.203125 14.765625,17.375 C14.765625,17.609375 14.640625,18 14.203125,18.34375 C13.78125,18.671875 13.25,18.953125 12.71875,19.171875 Z M17.734375,13.953125 C17.109375,14.046875 16.21875,14.03125 15.3125,13.921875 C14.65625,13.84375 13.984375,13.71875 13.328125,13.578125 C12.671875,13.4375 12.046875,13.25 11.546875,13.109375 C10.984375,12.921875 10.234375,12.6875 9.5,12.40625 C8.78125,12.140625 8.078125,11.875 7.65625,11.6875 C7.078125,11.4375 6.484375,11.078125 6.125,10.859375 C5.859375,10.703125 5.75,10.75 5.765625,11 C5.796875,11.375 5.953125,11.828125 6.15625,12.234375 C6.359375,12.640625 6.609375,13.03125 6.84375,13.34375 L6.390625,13.8125 C5.984375,13.46875 5.5,12.875 5.109375,12.265625 C4.84375,11.859375 4.6875,11.5625 4.59375,11.234375 C4.5,10.90625 4.46875,10.59375 4.46875,10.171875 C4.46875,9.8125 4.546875,9.4375 4.671875,9.1875 C4.859375,8.875 5.1875,8.703125 5.5,8.703125 C5.6875,8.703125 6,8.859375 6.3125,9.265625 C6.6875,9.734375 7.296875,10.15625 7.875,10.578125 C8.171875,10.8125 8.859375,11.140625 9.640625,11.46875 C10.4375,11.796875 11.328125,12.125 12.046875,12.34375 C12.65625,12.515625 13.453125,12.734375 14.234375,12.890625 C15.03125,13.0625 15.78125,13.171875 16.25,13.171875 C16.515625,13.171875 16.890625,13.15625 17.203125,13.078125 C17.609375,12.984375 17.5625,12.828125 17.203125,12.640625 C16.875,12.46875 16.296875,12.234375 15.609375,11.984375 C14.9375,11.71875 14.15625,11.453125 13.484375,11.265625 C13.265625,11.203125 13.09375,11.15625 12.96875,11.140625 C12.828125,11.140625 12.734375,11.15625 12.671875,11.234375 C12.53125,11.40625 12.40625,11.46875 12.21875,11.46875 C12.03125,11.46875 11.890625,11.375 11.75,11.234375 C11.609375,11.078125 11.53125,10.90625 11.515625,10.765625 C11.5,10.5 11.46875,10.171875 11.46875,9.78125 C11.421875,9 11.421875,8.09375 11.421875,7.15625 C11.421875,6.6875 11.421875,6.265625 11.421875,5.859375 C10.578125,5.734375 9.734375,5.5 9.078125,5.234375 C8.890625,5.140625 8.640625,5.03125 8.390625,4.90625 C8.140625,4.765625 7.90625,4.609375 7.71875,4.46875 C7.59375,4.375 7.453125,4.203125 7.328125,4.015625 C7.203125,3.828125 7.109375,3.609375 7.109375,3.453125 C7.109375,3.09375 7.3125,2.765625 8.015625,2.421875 C8.4375,2.234375 8.984375,1.765625 9.453125,1.25 C9.9375,0.75 10.390625,0.21875 10.625,-0.125 C11.015625,-0.671875 11.3125,-1.109375 11.640625,-1.109375 C12,-1.109375 12.265625,-0.640625 12.53125,0.078125 C12.578125,0.1875 12.609375,0.328125 12.640625,0.5 C12.6875,0.84375 12.734375,1.21875 12.734375,1.578125 C12.734375,1.765625 12.734375,1.921875 12.71875,2.0625 C12.6875,2.8125 12.65625,3.75 12.625,4.78125 C14.046875,4.703125 15.21875,4.46875 16.125,4.015625 C16.625,3.765625 16.96875,3.625 17.1875,3.59375 C17.390625,3.5625 17.546875,3.625 17.640625,3.78125 C17.8125,4.046875 17.703125,4.4375 17.328125,4.828125 C17.140625,5.015625 16.796875,5.1875 16.421875,5.34375 C16.046875,5.484375 15.640625,5.609375 15.34375,5.6875 C15.03125,5.765625 14.609375,5.796875 14.140625,5.84375 C13.65625,5.875 13.125,5.890625 12.625,5.90625 C12.625,6.265625 12.625,6.640625 12.640625,7.046875 L12.640625,8.1875 C12.640625,8.5625 12.640625,8.890625 12.640625,9.203125 L12.640625,9.875 C12.640625,10.234375 12.734375,10.34375 13.03125,10.421875 C13.671875,10.578125 14.296875,10.734375 14.90625,10.875 C15.515625,11.015625 16.109375,11.15625 16.703125,11.3125 C17.09375,11.40625 17.578125,11.5625 18.015625,11.75 C18.453125,11.921875 18.828125,12.078125 19.03125,12.21875 C19.3125,12.390625 19.4375,12.609375 19.4375,12.828125 C19.4375,13.03125 19.3125,13.25 19.125,13.390625 C18.953125,13.53125 18.796875,13.640625 18.59375,13.734375 C18.40625,13.8125 18.125,13.890625 17.734375,13.953125 Z M11.453125,4.71875 C11.46875,4.34375 11.46875,3.984375 11.46875,3.640625 C11.484375,3.296875 11.484375,2.96875 11.5,2.671875 C11.5,2.0625 11.484375,1.578125 11.46875,1.28125 C11.46875,1.015625 11.4375,0.84375 11.375,0.8125 C11.3125,0.765625 11.203125,0.84375 11.015625,1.0625 C10.859375,1.234375 10.65625,1.4375 10.421875,1.625 C9.9375,2.03125 9.40625,2.40625 8.9375,2.75 C8.703125,2.90625 8.5,3.046875 8.328125,3.171875 C8.234375,3.21875 8.1875,3.3125 8.25,3.421875 C8.296875,3.546875 8.453125,3.671875 8.765625,3.84375 C9.03125,3.984375 9.453125,4.171875 9.921875,4.34375 C10.390625,4.5 10.9375,4.640625 11.453125,4.71875 Z" transform="translate(0.046875, 19.171875) scale(1, -1)"/>
</svg>