<svg height="20.703125" viewBox="0 0 24 20.703125" width="24" xmlns="http://www.w3.org/2000/svg">
<path d="M4.90625,18.546875 C4.609375,17.75 4.671875,17 5.09375,16.46875 C5.546875,15.875 6.171875,15.40625 7.203125,15.21875 C7.71875,15.125 7.8125,14.953125 7.5625,14.5625 C7.390625,14.28125 7.203125,13.984375 7.015625,13.6875 L6.4375,12.734375 C5.921875,11.90625 5.84375,11.46875 6.21875,11.046875 L6.484375,10.734375 C6.5625,10.640625 6.640625,10.546875 6.734375,10.4375 C6.875,10.234375 7.015625,9.96875 7.109375,9.625 C5.734375,8.59375 4.515625,7.4375 3.71875,6.21875 C2.921875,5 2.5,3.734375 2.5,2.5625 C2.5,1.765625 2.703125,1.0625 3.03125,0.546875 C3.359375,0.03125 3.84375,-0.265625 4.421875,-0.265625 C4.96875,-0.265625 5.515625,-0.109375 6.015625,0.171875 C6.5,0.453125 6.921875,0.84375 7.25,1.296875 C7.984375,2.34375 8.515625,3.828125 8.609375,5.703125 C8.671875,7.015625 8.609375,8.140625 8.28125,9.453125 C9.3125,10.21875 10.46875,10.96875 11.625,11.625 C12.78125,12.28125 13.953125,12.84375 15.03125,13.21875 C14.96875,12.8125 14.765625,12.078125 14.53125,11.296875 C14.296875,10.53125 14.015625,9.71875 13.78125,9.171875 C13.40625,8.984375 13.078125,8.859375 12.75,8.765625 C12.40625,8.671875 12.078125,8.609375 11.65625,8.546875 C11.28125,8.484375 11.046875,8.578125 10.890625,8.765625 C10.71875,8.9375 10.625,9.21875 10.578125,9.53125 L10.03125,9.3125 C10.109375,7.390625 10.8125,6.765625 11.984375,7.21875 C12.765625,7.53125 13.5625,7.859375 14.375,8.21875 C15.1875,8.5625 16.078125,8.921875 17.046875,9.296875 C15.0625,7.40625 13.046875,5.515625 11.203125,3.359375 C10.796875,2.890625 10.59375,2.703125 10.28125,2.421875 C10.046875,2.234375 9.875,2.046875 9.765625,1.90625 C9.53125,1.625 9.40625,1.125 9.40625,0.75 C9.40625,0.5625 9.4375,0.390625 9.484375,0.21875 C9.5625,-0.078125 9.828125,-0.09375 10.15625,0.140625 C10.484375,0.390625 10.71875,0.671875 11.046875,1.125 C11.421875,1.6875 11.84375,2.234375 12.265625,2.703125 C12.6875,3.171875 13.09375,3.578125 13.421875,3.84375 C13.78125,4.125 14.171875,4.015625 14.3125,3.59375 C14.328125,3.546875 14.359375,3.453125 14.375,3.34375 C14.40625,3.109375 14.421875,2.84375 14.421875,2.578125 L14.421875,2.234375 C14.421875,1.90625 14.4375,1.703125 14.515625,1.5625 C14.609375,1.421875 14.734375,1.328125 14.953125,1.21875 C15.390625,1 15.65625,1.25 15.890625,1.71875 C16.09375,2.140625 16.328125,2.453125 16.828125,2.953125 C17.484375,3.609375 18.140625,3.96875 18.890625,4.015625 C19.6875,4.046875 20.015625,3.625 20.015625,2.734375 C20.015625,2.140625 19.65625,1.515625 19.125,0.9375 C18.703125,0.46875 18.1875,0.0625 17.625,-0.3125 C17.0625,-0.6875 16.46875,-1 15.890625,-1.28125 L16.328125,-1.78125 C17.59375,-1.296875 18.84375,-0.578125 19.96875,0.265625 C20.953125,1.015625 21.453125,1.921875 21.453125,2.765625 C21.453125,3.328125 21.265625,3.8125 20.859375,4.15625 C20.4375,4.484375 19.796875,4.671875 18.890625,4.671875 C18.4375,4.671875 17.84375,4.53125 17.265625,4.265625 C16.671875,3.984375 16.109375,3.59375 15.71875,3.09375 C15.546875,4.171875 15.25,4.75 14.453125,4.828125 C14.140625,4.859375 13.765625,4.8125 13.171875,4.484375 C14.015625,5.390625 14.90625,6.25 15.734375,7.015625 C16.546875,7.765625 17.28125,8.40625 17.890625,8.90625 C18.359375,9.3125 18.828125,9.609375 19.25,9.71875 L19.84375,9.890625 C20.234375,10.015625 20.6875,10.109375 20.75,10.421875 C20.796875,10.734375 20.4375,11 20.125,11.09375 C19.96875,11.15625 19.84375,11.1875 19.765625,11.234375 C19.375,11.359375 19.0625,11.25 18.84375,11.0625 C18.734375,10.984375 18.640625,10.90625 18.546875,10.859375 C18.453125,10.796875 18.34375,10.71875 18.1875,10.609375 C17.90625,10.421875 17.59375,10.296875 17.109375,10.125 C16.734375,10 16.375,9.875 16.03125,9.78125 C15.6875,9.671875 15.3125,9.546875 14.90625,9.40625 C15.25,10.03125 15.5625,10.765625 15.828125,11.5 C16.078125,12.21875 16.296875,12.9375 16.46875,13.5625 C17.234375,13.734375 18.1875,13.828125 18.9375,13.828125 C19.4375,13.828125 19.75,13.890625 19.921875,14.15625 C20.09375,14.40625 19.96875,14.734375 19.65625,14.890625 C19.46875,14.984375 19.203125,15.0625 18.734375,15.03125 C17.984375,14.984375 17.328125,14.859375 16.765625,14.703125 C16.859375,15.078125 16.953125,15.53125 17.03125,15.984375 C17.109375,16.4375 17.1875,16.90625 17.234375,17.3125 C17.328125,18.109375 17.09375,18.453125 16.421875,18.671875 C15.921875,18.84375 15.125,18.921875 14.234375,18.921875 L14.015625,18.359375 C15.140625,18.3125 15.671875,18 15.671875,17.15625 C15.671875,16.140625 15.53125,15.328125 15.296875,14.265625 C12.453125,13.21875 10.0625,11.734375 8,10.171875 C7.609375,10.71875 7.234375,11.015625 6.875,11.328125 C6.734375,11.453125 6.671875,11.578125 6.671875,11.734375 C6.671875,11.890625 6.78125,12.09375 7.015625,12.359375 C7.25,12.640625 7.5625,12.96875 7.90625,13.3125 C8.234375,13.65625 8.609375,14 8.953125,14.328125 C9.390625,14.75 9.40625,15.21875 9.234375,15.578125 C9.0625,15.96875 8.734375,16.3125 8.0625,16.390625 C7.84375,16.421875 7.625,16.453125 7.4375,16.515625 C7.21875,16.578125 6.96875,16.625 6.6875,16.703125 C6.078125,16.859375 5.734375,17.109375 5.546875,17.4375 C5.359375,17.765625 5.34375,18.171875 5.421875,18.59375 Z M7.21875,8.765625 C7.46875,7.203125 7.34375,5.59375 7.109375,4.21875 C6.90625,3.046875 6.59375,2.328125 6.125,1.71875 C5.5625,1.015625 5.140625,0.828125 4.4375,0.828125 C4.0625,0.828125 3.78125,1.03125 3.578125,1.375 C3.375,1.703125 3.265625,2.171875 3.265625,2.6875 C3.265625,4.015625 3.71875,5.0625 4.46875,6.046875 C5.3125,7.171875 6.28125,8.015625 7.21875,8.765625 Z" transform="translate(0.0234375, 18.921875) scale(1, -1)"/>
</svg>