<svg height="20.25" viewBox="0 0 24 20.25" width="24" xmlns="http://www.w3.org/2000/svg">
<path d="M10.28125,18.875 C10.671875,18.6875 10.96875,18.5 11.171875,18.265625 C11.359375,18.03125 11.46875,17.71875 11.453125,17.28125 L11.40625,15.234375 C10.421875,15.140625 9.359375,15.265625 8.421875,15.59375 L8.234375,15.140625 C8.5625,14.8125 9.109375,14.5625 9.6875,14.421875 C10.25,14.265625 10.859375,14.1875 11.359375,14.234375 L11.234375,10.703125 C10.625,10.390625 9.890625,9.953125 9.234375,9.515625 C8.5625,9.078125 8,8.671875 7.765625,8.40625 C7.0625,7.640625 7.296875,7.015625 7.96875,6.390625 C8.171875,6.1875 8.40625,5.984375 8.65625,5.75 C8.890625,5.515625 9.125,5.28125 9.34375,5.0625 C9.1875,4.609375 8.84375,4.171875 8.59375,3.84375 C8.421875,3.625 8.34375,3.375 8.328125,3.125 C8.328125,2.59375 8.734375,2.140625 9.046875,2.28125 C9.203125,2.328125 9.40625,2.515625 9.671875,2.796875 C9.828125,2.9375 10.015625,3.140625 10.234375,3.375 C10.453125,3.609375 10.671875,3.828125 10.921875,4.0625 C11.109375,3.71875 11.5625,3.4375 11.8125,3.4375 C11.9375,3.4375 12.0625,3.53125 12.15625,3.703125 C12.25,3.875 12.296875,4.203125 12.296875,4.671875 L12.296875,4.953125 C12.875,5.828125 13.5625,6.40625 14.40625,7.078125 C15.21875,7.734375 16.125,8.0625 17.15625,8.0625 C17.859375,8.0625 18.5,7.6875 18.96875,7.03125 C19.421875,6.375 19.703125,5.4375 19.703125,4.296875 C19.703125,3.1875 19.28125,2.15625 18.671875,1.40625 C18.046875,0.640625 17.21875,0.171875 16.421875,0.171875 C15.734375,0.171875 15.21875,0.3125 14.859375,0.546875 C14.484375,0.765625 14.234375,1.078125 14.09375,1.421875 C13.90625,1.796875 13.90625,2.359375 13.96875,2.8125 L13.375,3 C13.125,2.5 13.078125,1.953125 13.171875,1.390625 C13.28125,0.78125 13.6875,0.21875 14.265625,-0.203125 C14.84375,-0.625 15.578125,-0.875 16.375,-0.875 C17.609375,-0.875 18.8125,-0.359375 19.703125,0.546875 C20.59375,1.453125 21.171875,2.75 21.171875,4.328125 C21.171875,5.625 20.78125,6.75 20.109375,7.5625 C19.4375,8.375 18.453125,8.84375 17.265625,8.890625 C15.421875,8.9375 13.734375,7.921875 12.265625,6.3125 L12.3125,8 C12.5625,8.515625 12.78125,8.953125 12.96875,9.328125 C13.171875,9.6875 13.3125,9.96875 13.390625,10.125 C13.546875,10.453125 13.484375,10.71875 13.28125,10.890625 C13.0625,11.0625 12.734375,11.125 12.359375,11.0625 C12.375,11.71875 12.40625,12.21875 12.40625,12.734375 C12.421875,13.25 12.453125,13.75 12.484375,14.359375 C13.375,14.546875 14.234375,14.9375 14.65625,15.265625 C14.859375,15.421875 15.046875,15.625 15.15625,15.8125 C15.25,16 15.296875,16.1875 15.21875,16.328125 C15.125,16.484375 14.921875,16.59375 14.6875,16.609375 C14.453125,16.625 14.171875,16.546875 13.96875,16.375 C13.46875,15.96875 12.9375,15.65625 12.484375,15.484375 C12.5,15.5625 12.5,15.6875 12.5,15.875 L12.546875,16.484375 C12.578125,16.90625 12.609375,17.375 12.6875,17.703125 C12.828125,18.265625 12.59375,18.625 12.078125,18.921875 C11.75,19.09375 11.1875,19.28125 10.609375,19.375 Z M3.453125,17.890625 C3.921875,17.40625 4.109375,16.8125 4.109375,16.0625 C4.109375,15.921875 4.109375,15.78125 4.09375,15.640625 C4.0625,15.359375 4.015625,15.03125 3.921875,14.59375 L3.78125,13.828125 C3.359375,11.875 3.109375,10.390625 2.9375,9.140625 C2.78125,7.90625 2.703125,6.890625 2.703125,5.90625 C2.703125,4.4375 2.84375,3.21875 3.078125,1.953125 C3.265625,0.921875 3.5,0.234375 3.71875,-0.1875 C3.875,-0.484375 4.15625,-0.625 4.296875,-0.625 C4.71875,-0.625 5,-0.34375 5,0.359375 C5,1.25 5.0625,2 5.28125,2.875 C5.484375,3.75 5.828125,4.78125 6.390625,6.265625 L5.9375,6.640625 C5.265625,5.140625 4.625,3.71875 4.03125,2.453125 C3.671875,3.953125 3.625,5.53125 3.84375,7.515625 C3.953125,8.484375 4.15625,9.765625 4.40625,11.046875 C4.671875,12.34375 5,13.640625 5.375,14.703125 C5.5625,15.1875 5.65625,15.546875 5.65625,15.828125 C5.671875,16.109375 5.609375,16.34375 5.453125,16.609375 C5.1875,17.0625 4.765625,17.609375 3.875,18.265625 Z M18.046875,16.375 C18.984375,16.203125 19.609375,15.796875 20.0625,15.046875 C20.234375,14.765625 20.25,14.515625 20.109375,14.421875 C19.921875,14.28125 19.53125,14.234375 19.015625,14.234375 L19.15625,13.765625 C19.71875,13.65625 20.265625,13.609375 20.6875,13.609375 C21.390625,13.609375 21.6875,14.0625 21.6875,14.59375 C21.6875,14.890625 21.578125,15.21875 21.390625,15.546875 C21.1875,15.859375 20.890625,16.15625 20.546875,16.34375 C19.796875,16.78125 19.015625,16.875 18.21875,16.875 Z M11.140625,7.875 C10.71875,7.078125 10.296875,6.390625 9.734375,5.546875 C9.234375,6.03125 8.734375,6.625 8.5,6.96875 C8.421875,7.0625 8.375,7.1875 8.40625,7.296875 C8.421875,7.421875 8.515625,7.5625 8.6875,7.765625 C8.921875,8 9.390625,8.40625 9.875,8.765625 C10.375,9.125 10.859375,9.46875 11.1875,9.625 Z M11.140625,5.5 C10.8125,5.109375 10.65625,4.953125 10.46875,4.78125 L10.171875,5.0625 L10.625,5.796875 C10.78125,6.03125 10.953125,6.28125 11.140625,6.578125 Z" transform="translate(-0.1953125, 19.375) scale(1, -1)"/>
</svg>