<svg height="19.1875" viewBox="0 0 24 19.1875" width="24" xmlns="http://www.w3.org/2000/svg">
<path d="M8.734375,18.359375 C9.4375,17.328125 10.484375,16.640625 11.65625,16.421875 C12.78125,16.203125 13.96875,16.328125 14.8125,16.65625 C15.359375,16.875 15.578125,17.1875 15.578125,17.5 C15.578125,17.734375 15.3125,18.03125 14.984375,18.078125 C14.734375,18.109375 14.359375,17.96875 13.921875,17.796875 C13.265625,17.515625 12.546875,17.453125 11.65625,17.59375 C10.484375,17.78125 9.71875,18.296875 9.171875,18.875 Z M8.421875,15 C8.28125,14.828125 8.15625,14.59375 8.0625,14.328125 C7.953125,14.078125 7.90625,13.78125 7.90625,13.53125 C7.90625,13.171875 8.046875,12.890625 8.328125,12.671875 C8.4375,12.59375 8.5,12.484375 8.5,12.359375 C8.5,12.21875 8.421875,12.078125 8.265625,11.9375 C8.125,11.796875 7.90625,11.578125 7.671875,11.328125 C7.4375,11.0625 7.15625,10.765625 6.96875,10.46875 C6.640625,10 6.453125,9.734375 6.453125,9.21875 C6.453125,8.734375 6.875,8.3125 7.765625,8.3125 C8.3125,8.3125 9.03125,8.34375 9.828125,8.421875 C8.796875,7.109375 7.625,5.640625 6.03125,3.84375 C5.890625,3.6875 5.75,3.546875 5.640625,3.4375 C5.40625,3.203125 5.203125,3.03125 5,2.859375 L4.65625,2.59375 C4.203125,2.234375 3.734375,1.828125 3.5,1.578125 C3.125,1.203125 2.953125,0.796875 2.953125,0.359375 C2.953125,-0.125 3.09375,-0.3125 3.40625,-0.3125 C3.5625,-0.3125 3.78125,-0.21875 4.09375,-0.015625 C4.390625,0.1875 4.71875,0.5 5.046875,0.921875 C5.234375,1.15625 5.65625,1.640625 6.171875,2.1875 C6.6875,2.71875 7.296875,3.3125 7.859375,3.796875 C8.1875,4.078125 8.609375,4.34375 9.046875,4.5625 C9.484375,4.765625 9.921875,4.90625 10.28125,4.90625 C10.703125,4.90625 11.046875,4.515625 11.375,3.890625 C11.703125,3.28125 12.03125,2.453125 12.34375,1.609375 C12.515625,1.140625 12.78125,0.796875 13.03125,0.5625 C13.296875,0.328125 13.5625,0.1875 13.78125,0.09375 C14.3125,-0.125 15.140625,-0.203125 16.03125,-0.234375 C16.796875,-0.265625 17.6875,-0.234375 18.5,-0.171875 C19.328125,-0.125 20.09375,-0.046875 20.609375,0.046875 C20.984375,0.109375 21.21875,0.265625 21.328125,0.421875 C21.453125,0.59375 21.46875,0.78125 21.4375,0.96875 C21.390625,1.234375 21.1875,1.421875 20.84375,1.515625 C20.46875,1.625 20.234375,1.59375 19.71875,1.421875 C19.4375,1.328125 19.015625,1.25 18.515625,1.1875 C18.03125,1.125 17.46875,1.0625 17.046875,1.0625 C16.25,1.015625 15.59375,1.0625 14.9375,1.15625 C14.5,1.203125 14.203125,1.296875 13.984375,1.484375 C13.765625,1.65625 13.59375,1.890625 13.4375,2.234375 C13.21875,2.703125 12.984375,3.21875 12.765625,3.671875 C12.546875,4.125 12.34375,4.53125 12.1875,4.8125 C11.78125,5.515625 11.234375,5.8125 10.5625,5.8125 C10.28125,5.8125 9.890625,5.71875 9.46875,5.546875 C9.03125,5.375 8.5625,5.140625 8.140625,4.859375 C9.3125,6.171875 10.328125,7.390625 11.234375,8.609375 L11.890625,8.75 C12.09375,8.796875 12.3125,8.84375 12.53125,8.90625 C13.8125,9.265625 14.9375,9.640625 15.78125,10.25 C16.625,10.84375 17.09375,11.46875 17.09375,12.40625 C17.09375,12.921875 16.953125,13.390625 16.671875,13.703125 C16.390625,14.046875 16,14.234375 15.53125,14.234375 C15.109375,14.234375 14.640625,14.078125 14.078125,13.65625 C13.5,13.234375 12.84375,12.546875 12.046875,11.453125 L11.46875,10.65625 C11.265625,10.390625 11.046875,10.109375 10.859375,9.828125 C10.546875,9.78125 10.25,9.734375 9.953125,9.703125 C9.359375,9.640625 8.8125,9.59375 8.390625,9.59375 C8.171875,9.59375 8,9.609375 7.859375,9.625 C7.515625,9.65625 7.390625,9.8125 7.625,10.125 C7.96875,10.578125 8.375,10.953125 8.9375,11.375 L9.828125,12.078125 C10.109375,12.296875 10.21875,12.453125 10.21875,12.78125 C10.21875,13.109375 9.875,13.40625 9.453125,13.484375 C9.1875,13.53125 9.078125,13.625 8.953125,13.859375 C8.859375,14.03125 8.90625,14.40625 9,14.640625 Z M14.953125,13.328125 C15.359375,13.609375 15.59375,13.53125 15.78125,13.296875 C15.953125,13.0625 16.015625,12.71875 16.015625,12.4375 C16.015625,12.09375 15.78125,11.65625 15.453125,11.421875 C14.65625,10.828125 13.703125,10.4375 12.34375,10.109375 C12.453125,10.28125 12.578125,10.4375 12.6875,10.609375 C12.78125,10.765625 12.90625,10.9375 13.015625,11.09375 C13.671875,12.078125 14.203125,12.796875 14.953125,13.328125 Z" transform="translate(-0.2109375, 18.875) scale(1, -1)"/>
</svg>