<svg height="20.75" viewBox="0 0 24 20.75" width="24" xmlns="http://www.w3.org/2000/svg">
<path d="M10.28125,18.71875 C11.125,18.75 11.53125,18.625 11.265625,18.03125 C11.09375,17.640625 10.71875,17.078125 10.296875,16.421875 C9.46875,16.390625 8.796875,16.4375 8.234375,16.53125 C7.65625,16.625 7.15625,16.8125 6.6875,17.0625 L6.3125,16.515625 C7.046875,15.875 8.140625,15.53125 9.59375,15.453125 C9,14.65625 8.40625,13.90625 8,13.484375 C7.671875,13.171875 7.46875,12.96875 7.328125,12.78125 C7.1875,12.59375 7.125,12.453125 7.125,12.265625 C7.125,12 7.25,11.765625 7.421875,11.59375 C7.578125,11.40625 7.78125,11.296875 7.96875,11.3125 C8.265625,11.34375 8.5,11.515625 8.859375,11.859375 C9.171875,12.140625 9.78125,12.59375 10.59375,12.953125 C11.390625,13.3125 12.375,13.609375 13.4375,13.609375 C14.421875,13.609375 15.3125,13.296875 15.921875,12.734375 C16.53125,12.15625 16.921875,11.328125 16.921875,10.25 C16.921875,8.59375 16.296875,7.40625 15.3125,6.546875 C14.34375,5.703125 13.09375,5.28125 11.5625,5.3125 C12.65625,5.90625 13.34375,6.46875 13.75,6.984375 C14.140625,7.484375 14.265625,7.953125 14.265625,8.328125 C14.265625,9.234375 13.671875,9.84375 12.171875,9.9375 C12.3125,10.640625 12.203125,11.140625 11.9375,11.46875 C11.65625,11.78125 11.265625,11.9375 10.8125,11.9375 C10.203125,11.9375 9.546875,11.65625 8.984375,11.1875 C8.421875,10.703125 7.953125,10 7.71875,9.1875 C6.78125,8.796875 6,8.28125 5.46875,7.734375 C4.953125,7.203125 4.65625,6.640625 4.65625,6.171875 C4.65625,5.703125 4.796875,5.40625 5.03125,5.234375 C5.265625,5.046875 5.59375,5 6,5.015625 C6.671875,5.046875 7.5625,5.265625 8.59375,5.8125 C8.90625,5.5 9.265625,5.234375 9.6875,5.046875 C8.75,4.390625 7.59375,3.625 6.515625,2.9375 C5.4375,2.234375 4.4375,1.640625 3.734375,1.328125 C3.078125,1.015625 2.703125,0.796875 2.46875,0.53125 C2.25,0.25 2.203125,-0.09375 2.203125,-0.625 C2.203125,-0.984375 2.421875,-1.0625 2.84375,-1.03125 C3.296875,-1 3.6875,-0.75 4.171875,-0.296875 C4.984375,0.46875 5.796875,1.140625 6.546875,1.609375 C7.296875,2.078125 7.953125,2.359375 8.453125,2.359375 C8.796875,2.359375 9.140625,2.21875 9.5,1.859375 C9.875,1.484375 10.25,0.90625 10.671875,0.03125 C10.90625,-0.453125 11.15625,-0.71875 11.40625,-0.875 C11.65625,-1.015625 11.90625,-1.0625 12.140625,-1.0625 C12.390625,-1.0625 12.59375,-1.015625 12.765625,-0.828125 C12.9375,-0.640625 13.09375,-0.328125 13.25,0.1875 C13.484375,0.96875 13.90625,1.703125 14.515625,2.25 C15.125,2.796875 15.90625,3.140625 16.859375,3.140625 C17.546875,3.140625 18.203125,2.765625 18.78125,2.140625 C19.34375,1.5 19.8125,0.609375 20.140625,-0.390625 C20.28125,-0.84375 20.4375,-1.0625 20.625,-1.203125 C20.796875,-1.328125 20.984375,-1.328125 21.171875,-1.328125 C21.359375,-1.328125 21.5625,-1.203125 21.703125,-0.953125 C21.84375,-0.703125 21.890625,-0.34375 21.71875,0.171875 C21.4375,1 20.84375,1.9375 20,2.671875 C19.15625,3.40625 18.078125,3.9375 16.8125,3.9375 C15.875,3.9375 15.015625,3.6875 14.234375,3.21875 C13.4375,2.765625 12.78125,2.125 12.265625,1.328125 C11.9375,0.796875 11.8125,0.84375 11.46875,1.34375 C11.015625,2.015625 10.53125,2.46875 10.078125,2.75 C9.609375,3.03125 9.171875,3.140625 8.84375,3.140625 C8.46875,3.140625 8.140625,3.109375 7.484375,2.859375 C8.296875,3.328125 8.890625,3.65625 9.359375,3.9375 C9.84375,4.203125 10.25,4.4375 10.671875,4.71875 C11.015625,4.640625 11.40625,4.609375 11.8125,4.609375 C15.96875,4.609375 18.484375,6.828125 18.484375,10.375 C18.484375,11.65625 17.984375,12.671875 17.15625,13.34375 C16.34375,14.03125 15.1875,14.375 13.921875,14.375 C13.1875,14.375 12.328125,14.265625 11.46875,14.046875 C10.625,13.84375 9.734375,13.515625 9.03125,13.125 C9.296875,13.5 9.59375,13.875 9.921875,14.265625 L10.921875,15.453125 C11.359375,15.5 11.78125,15.53125 12.1875,15.578125 C13.015625,15.65625 13.765625,15.765625 14.390625,15.875 C15,15.96875 15.84375,16.109375 16.21875,16.421875 C16.390625,16.578125 16.484375,16.75 16.484375,16.921875 C16.484375,17.359375 16.125,17.5625 15.546875,17.5625 C15.1875,17.5625 14.859375,17.4375 14.46875,17.265625 C14,17.0625 13.03125,16.796875 11.90625,16.609375 L12.5,17.3125 C12.609375,17.4375 12.71875,17.546875 12.796875,17.640625 C12.875,17.71875 12.9375,17.8125 13,17.890625 C13.09375,18.078125 13.15625,18.234375 13.15625,18.484375 C13.15625,18.9375 12.703125,19.296875 12.046875,19.375 C11.609375,19.421875 11.109375,19.421875 10.515625,19.375 Z M10.328125,11.015625 C10.828125,11.015625 10.953125,10.703125 10.828125,9.9375 C10.03125,9.859375 9.3125,9.71875 8.65625,9.53125 C8.84375,10.015625 9.140625,10.390625 9.453125,10.640625 C9.78125,10.890625 10.09375,11.015625 10.328125,11.015625 Z M10.578125,9.125 C10.25,8.328125 9.625,7.53125 8.765625,6.875 C8.625,7.0625 8.515625,7.34375 8.46875,7.671875 C8.421875,8 8.390625,8.328125 8.421875,8.59375 C9.078125,8.890625 9.78125,9.078125 10.578125,9.125 Z M11.890625,9.078125 C12.40625,8.9375 12.734375,8.6875 12.78125,8.265625 C12.8125,7.84375 12.5625,7.390625 12.140625,6.9375 C11.71875,6.46875 11.09375,6 10.375,5.5625 C9.953125,5.75 9.609375,5.96875 9.34375,6.234375 C10.5625,7.078125 11.453125,8.09375 11.890625,9.078125 Z M7.578125,8.1875 C7.578125,7.53125 7.75,6.9375 8.09375,6.40625 C7.375,6 6.65625,5.8125 6.34375,5.8125 C5.84375,5.8125 5.578125,5.890625 5.765625,6.390625 C5.84375,6.609375 6.046875,6.90625 6.359375,7.234375 C6.65625,7.546875 7.0625,7.890625 7.578125,8.1875 Z" transform="translate(-0.046875, 19.421875) scale(1, -1)"/>
</svg>