<svg height="20.234375" viewBox="0 0 24 20.234375" width="24" xmlns="http://www.w3.org/2000/svg">
<path d="M9.6875,18.6875 C10.578125,18.546875 10.953125,18.359375 10.953125,17.859375 C10.953125,17.671875 10.859375,17.34375 10.734375,17.015625 C10.609375,16.671875 10.4375,16.328125 10.25,16.0625 C9.9375,16.015625 9.625,16 9.296875,16 C8.96875,16 8.65625,16.015625 8.328125,16.0625 C7.71875,16.140625 7.125,16.296875 6.6875,16.5625 L6.4375,16.0625 C7.15625,15.296875 8.28125,14.84375 9.796875,14.984375 C9.390625,14.328125 8.78125,13.53125 8,12.640625 C7.203125,11.75 6.234375,10.8125 5.109375,9.875 C4.703125,9.78125 4.4375,9.765625 4.203125,9.765625 C3.984375,9.765625 3.828125,9.796875 3.6875,9.84375 C3.375,9.9375 3.015625,10.171875 2.84375,10.375 L2.359375,9.9375 C2.484375,9.71875 2.65625,9.5 2.828125,9.3125 C3,9.125 3.171875,8.953125 3.265625,8.859375 C3.6875,8.5 4.125,8.40625 4.4375,8.40625 C5.109375,8.40625 6.140625,8.78125 7.65625,9.53125 C8.3125,9.859375 9.109375,10.234375 9.921875,10.578125 C10.71875,10.9375 11.5625,11.28125 12.296875,11.5625 C12.84375,11.796875 13.453125,12.015625 13.96875,12.203125 C14.484375,12.390625 14.921875,12.53125 15.140625,12.578125 C15.3125,12.609375 15.40625,12.625 15.453125,12.59375 C15.5,12.5625 15.46875,12.46875 15.34375,12.296875 C15.1875,12.09375 14.765625,11.65625 14.21875,11.140625 C13.671875,10.609375 13.015625,9.984375 12.359375,9.421875 C11.71875,8.859375 11.109375,8.359375 10.671875,8.046875 C10.40625,7.859375 10.078125,7.734375 9.84375,7.703125 C9.59375,7.671875 9.265625,7.578125 9.125,7.203125 C9.03125,7.015625 9.015625,6.828125 9.078125,6.6875 C9.125,6.5625 9.265625,6.5 9.5,6.53125 C9.890625,6.578125 10.21875,6.578125 10.71875,6.484375 C11.515625,6.328125 12.140625,5.890625 12.484375,5.3125 C12.0625,5.109375 11.625,4.875 11.234375,4.65625 C10.859375,4.421875 10.53125,4.21875 10.296875,4.078125 C8.75,3.046875 8.140625,2.265625 8.140625,1.515625 C8.140625,0.765625 8.453125,0.328125 9,-0.046875 C9.4375,-0.359375 10.140625,-0.578125 10.953125,-0.71875 C11.75,-0.875 12.6875,-0.9375 13.625,-0.9375 C14.234375,-0.9375 14.953125,-0.890625 15.625,-0.828125 C16.296875,-0.78125 16.921875,-0.703125 17.375,-0.625 C18,-0.515625 18.359375,-0.203125 18.359375,0.078125 C18.359375,0.40625 18.25,0.59375 17.9375,0.734375 C17.515625,0.921875 17.1875,0.9375 16.625,0.734375 C16.359375,0.640625 15.875,0.546875 15.3125,0.484375 C14.734375,0.40625 14.09375,0.34375 13.5625,0.34375 C11.953125,0.3125 10.65625,0.40625 10.03125,0.640625 C9.375,0.890625 9.21875,1.203125 9.21875,1.578125 C9.21875,2.109375 9.78125,2.65625 10.625,3.1875 C11.1875,3.53125 11.984375,3.984375 12.828125,4.375 C12.96875,3.828125 13.03125,3.21875 13.03125,2.796875 C13.03125,2.140625 13.25,1.875 13.65625,1.875 C14.109375,1.875 14.40625,2.25 14.40625,2.90625 C14.40625,3.703125 14.28125,4.421875 14.0625,4.953125 C14.75,5.234375 15.359375,5.484375 15.921875,5.703125 C16.453125,5.9375 16.9375,6.125 17.359375,6.296875 L18.46875,6.75 C18.78125,6.875 19.078125,7 19.328125,7.109375 C20.296875,7.515625 20.953125,7.953125 20.953125,8.59375 C20.953125,9.046875 20.59375,9.453125 20,9.71875 C19.46875,9.96875 19.078125,10.0625 18.640625,10.15625 L18.265625,9.671875 C18.640625,9.53125 18.828125,9.46875 19.015625,9.265625 C19.109375,9.171875 19.171875,9.09375 19.171875,9 C19.171875,8.890625 19.09375,8.765625 18.890625,8.609375 C18.296875,8.15625 17.421875,7.671875 16.46875,7.171875 C15.515625,6.6875 14.484375,6.21875 13.609375,5.84375 C13.03125,6.6875 12.125,7.171875 11.09375,7.421875 C11.984375,8.109375 13.09375,8.921875 14.140625,9.6875 C15.171875,10.4375 16.15625,11.140625 16.8125,11.59375 C17.125,11.8125 17.28125,11.9375 17.40625,12.125 C17.5625,12.359375 17.484375,12.640625 17.203125,12.96875 C17.0625,13.140625 16.625,13.359375 16.296875,13.484375 C16.0625,13.578125 15.859375,13.640625 15.578125,13.640625 C15.28125,13.625 14.90625,13.53125 14.375,13.28125 C14.0625,13.140625 13.4375,12.875 12.6875,12.578125 C11.921875,12.265625 11,11.90625 10.15625,11.59375 C9.59375,11.390625 9.03125,11.1875 8.46875,10.96875 C7.90625,10.75 7.390625,10.546875 6.890625,10.375 C8.796875,11.96875 10.15625,13.46875 11.328125,15.078125 C11.890625,15.125 12.53125,15.265625 13.140625,15.40625 C13.734375,15.5625 14.296875,15.734375 14.6875,15.921875 C15.140625,16.109375 15.390625,16.296875 15.390625,16.65625 C15.390625,16.921875 15.125,17.09375 14.84375,17.1875 C14.453125,17.3125 14.109375,17.3125 13.78125,17.09375 C13.296875,16.765625 12.578125,16.484375 11.90625,16.34375 C12.09375,16.671875 12.390625,17.234375 12.484375,17.640625 C12.65625,18.359375 12.53125,18.8125 12.078125,19.015625 C11.546875,19.25 10.859375,19.296875 9.96875,19.25 Z" transform="translate(0.34375, 19.296875) scale(1, -1)"/>
</svg>