<svg height="18.71875" viewBox="0 0 24 18.71875" width="24" xmlns="http://www.w3.org/2000/svg">
<path d="M7.21875,17.40625 C7.375,17 7.609375,16.5625 7.953125,16.21875 C8.421875,15.75 8.75,15.59375 9.453125,15.828125 C9.921875,15.96875 10.5,16.203125 11,16.40625 C11.484375,16.625 11.90625,16.8125 12.09375,16.921875 C11.875,16.53125 11.59375,16.046875 11.25,15.484375 C10.578125,14.359375 9.75,13.046875 8.859375,11.671875 C7.96875,10.296875 7.09375,9.015625 6.234375,7.75 C5.796875,7.109375 5.390625,6.5 5,5.890625 C4.203125,4.71875 3.5,3.609375 2.9375,2.703125 L2.796875,3.96875 L2.265625,3.625 C2.296875,3.390625 2.3125,3.15625 2.3125,2.9375 C2.3125,2.703125 2.296875,2.5 2.28125,2.296875 C2.234375,1.90625 2.140625,1.59375 2.09375,1.4375 C1.90625,1.0625 1.953125,0.75 2.09375,0.5 C2.1875,0.328125 2.375,0.21875 2.546875,0.21875 C2.765625,0.21875 2.953125,0.265625 3.171875,0.484375 C3.375,0.703125 3.59375,1.0625 3.921875,1.703125 C4.390625,2.65625 5.03125,3.828125 5.78125,5.09375 C6.515625,6.34375 7.34375,7.6875 8.1875,9 C9.03125,10.3125 9.875,11.59375 10.625,12.71875 C11.375,13.84375 12.046875,14.796875 12.53125,15.5 C12.59375,15.59375 12.65625,15.6875 12.75,15.796875 C12.9375,16.03125 13.15625,16.296875 13.375,16.546875 C13.578125,16.78125 13.765625,17 13.90625,17.203125 C14.046875,17.40625 13.921875,17.671875 13.71875,17.890625 C13.53125,18.09375 13.25,18.3125 12.90625,18.265625 C12.734375,18.21875 12.453125,18.125 12.09375,17.9375 C11.6875,17.703125 11.0625,17.515625 10.4375,17.375 C9.796875,17.21875 9.171875,17.09375 8.8125,17.09375 C8.515625,17.046875 8.328125,17.109375 8.140625,17.234375 C7.953125,17.34375 7.828125,17.515625 7.65625,17.765625 Z M14.28125,13.65625 C14,13.8125 13.65625,13.859375 13.328125,13.953125 L12.984375,13.5625 C13.484375,13.328125 13.765625,12.96875 13.4375,12.53125 C12.828125,11.71875 11.828125,10.625 10.5625,9.578125 C10.296875,9.359375 10.203125,9.15625 10.203125,8.9375 C10.203125,8.78125 10.25,8.65625 10.34375,8.5625 C10.53125,8.359375 11.125,8.265625 11.609375,8.234375 C11.859375,8.21875 12.09375,8.1875 12.3125,8.1875 C11.65625,7.953125 11,7.703125 10.421875,7.421875 C9.828125,7.140625 9.3125,6.84375 8.9375,6.59375 C8.328125,6.1875 8.015625,5.734375 8.015625,5.1875 C8.015625,4.578125 8.5625,4.09375 9.546875,3.921875 C10.34375,3.78125 11.09375,3.734375 11.890625,3.78125 C11.84375,3.453125 11.828125,3.03125 11.828125,2.59375 C11.828125,2.140625 11.84375,1.6875 11.9375,1.390625 C12.171875,0.453125 12.84375,-0.125 14.015625,-0.265625 C14.828125,-0.359375 15.828125,-0.40625 16.796875,-0.359375 C17.765625,-0.3125 18.734375,-0.171875 19.484375,0.125 C20.75,0.578125 21.296875,1.46875 21.171875,3.03125 C21.125,3.40625 21.03125,3.921875 20.890625,4.46875 C20.75,5 20.53125,5.5625 20.265625,6.078125 L19.765625,5.9375 C20.03125,4.90625 20.125,3.875 20.015625,3.03125 C19.90625,2.0625 19.359375,1.4375 18.40625,1.171875 C17.8125,1 17.046875,0.90625 16.3125,0.875 C15.5625,0.859375 14.84375,0.875 14.359375,1.015625 C13.9375,1.109375 13.65625,1.203125 13.46875,1.359375 C13.265625,1.5 13.15625,1.6875 13.109375,1.96875 C13.015625,2.40625 13.03125,3.140625 13.125,3.84375 C13.578125,3.890625 14.0625,3.921875 14.640625,4.0625 C15.421875,4.234375 16.21875,4.484375 16.578125,4.78125 C16.859375,5 17.09375,5.25 17.09375,5.5625 C17.09375,5.8125 16.953125,5.984375 16.484375,6.1875 C15.984375,6.40625 15.390625,6.84375 15,7.296875 L14.515625,7.03125 C14.609375,6.90625 14.78125,6.71875 14.96875,6.515625 C15.15625,6.3125 15.359375,6.125 15.53125,5.984375 C15.796875,5.75 15.734375,5.703125 15.359375,5.515625 C15.09375,5.390625 14.734375,5.296875 14.359375,5.21875 C13.984375,5.125 13.59375,5.078125 13.28125,5.046875 C13.3125,5.421875 13.375,5.921875 13.4375,6.40625 C13.515625,6.875 13.59375,7.375 13.65625,7.703125 C14.140625,7.953125 14.75,8.15625 15.171875,8.28125 C15.71875,8.46875 15.875,8.6875 15.875,9 C15.875,9.234375 15.75,9.453125 15.5,9.578125 C15.28125,9.6875 14.953125,9.734375 14.6875,9.59375 C14.5,9.5 14.265625,9.4375 13.921875,9.390625 C13.953125,9.953125 13.71875,10 13.484375,9.9375 C13.109375,9.828125 12.828125,9.578125 12.625,9.21875 C12.234375,9.21875 11.84375,9.25 11.5625,9.296875 C11.328125,9.34375 11.234375,9.421875 11.546875,9.59375 C12.0625,9.875 12.640625,10.25 13.1875,10.625 C13.71875,11 14.21875,11.375 14.59375,11.703125 C14.984375,12.046875 15.1875,12.265625 15.1875,12.71875 C15.1875,12.921875 15.078125,13.109375 14.890625,13.25 C14.71875,13.40625 14.484375,13.546875 14.28125,13.65625 Z M12.296875,7.390625 L12.125,6.171875 C12.0625,5.71875 12,5.3125 11.953125,4.921875 C11.75,4.921875 11.5625,4.921875 11.328125,4.9375 C10.90625,4.9375 10.46875,4.953125 10.109375,4.984375 C9.734375,5 9.34375,5.03125 9.09375,5.203125 C8.96875,5.28125 8.90625,5.375 8.90625,5.46875 C8.90625,5.765625 9.1875,6.015625 9.640625,6.296875 C9.84375,6.421875 10.265625,6.625 10.75,6.828125 C11.234375,7.015625 11.796875,7.25 12.296875,7.390625 Z" transform="translate(0.3984375, 18.3125) scale(1, -1)"/>
</svg>