<svg height="21.109375" viewBox="0 0 24 21.109375" width="24" xmlns="http://www.w3.org/2000/svg">
<path d="M12.78125,19.125 C13.328125,18.90625 13.65625,18.71875 13.84375,18.5 C14.03125,18.265625 14.0625,18.03125 14.015625,17.703125 C13.984375,17.46875 13.953125,17.1875 13.90625,16.921875 L13.8125,16.109375 C12.96875,15.484375 12.4375,15.109375 12.078125,14.9375 C11.6875,14.75 11.609375,14.75 11.46875,14.984375 C11.421875,15.03125 11.390625,15.1875 11.359375,15.359375 C11.328125,15.515625 11.328125,15.703125 11.328125,15.84375 L11,15.890625 C10.71875,15.390625 10.578125,14.953125 10.578125,14.328125 C10.578125,13.921875 10.671875,13.671875 10.8125,13.53125 C10.953125,13.390625 11.140625,13.34375 11.328125,13.34375 C11.515625,13.34375 11.78125,13.484375 12.15625,13.796875 C12.53125,14.109375 13.03125,14.578125 13.71875,15.265625 C13.671875,14.703125 13.625,13.984375 13.578125,13.296875 C13.515625,12.59375 13.453125,11.890625 13.4375,11.359375 C12.984375,11.28125 12.59375,11.234375 12.265625,11.234375 C11.46875,11.234375 10.578125,11.359375 10.015625,11.640625 L9.734375,11.265625 C10.25,10.5625 11.421875,10.171875 13.390625,10.328125 L13.28125,7.90625 C12.953125,7.796875 12.5625,7.65625 12.125,7.453125 C11.25,7.0625 10.390625,6.578125 9.640625,6.078125 C8.90625,5.59375 8.34375,5.109375 8.265625,4.40625 C8.171875,3.6875 8.765625,3.046875 9.28125,2.375 C9.53125,2.046875 9.765625,1.671875 9.96875,1.28125 C10.15625,0.875 10.46875,0.75 10.828125,0.796875 C11.1875,0.84375 11.59375,1.046875 12,1.328125 C12.28125,1.515625 12.59375,1.734375 12.84375,1.953125 C13.109375,2.15625 13.3125,2.359375 13.4375,2.5 C13.484375,2.140625 13.625,1.953125 13.8125,1.8125 C13.953125,1.671875 14.109375,1.671875 14.203125,1.671875 C14.3125,1.671875 14.390625,1.71875 14.453125,1.796875 C14.578125,1.9375 14.625,2.1875 14.625,2.46875 C14.625,2.59375 14.609375,2.734375 14.59375,2.859375 C14.5625,3.015625 14.546875,3.15625 14.5625,3.265625 C14.5625,3.375 14.5625,3.5 14.5625,3.59375 C15.3125,4.34375 16.015625,5.15625 16.53125,5.921875 C17.046875,6.6875 17.390625,7.40625 17.421875,7.96875 C18.1875,8.015625 18.96875,7.71875 19.625,7.203125 C20.203125,6.734375 20.5,5.984375 20.5,4.8125 C20.5,3.484375 19.96875,2.1875 18.671875,1.15625 C18.125,0.71875 17.421875,0.3125 16.640625,-0.046875 C15.859375,-0.421875 14.984375,-0.734375 14.09375,-0.984375 L14.46875,-1.53125 C15.265625,-1.34375 16.109375,-1.078125 16.953125,-0.765625 C17.796875,-0.453125 18.59375,-0.078125 19.296875,0.359375 C21.09375,1.484375 22.015625,2.84375 22.015625,4.78125 C22.015625,5.578125 21.8125,6.25 21.484375,6.78125 C21.15625,7.296875 20.6875,7.703125 20.15625,8.015625 C19.703125,8.28125 19.203125,8.46875 18.734375,8.59375 C18.25,8.703125 17.796875,8.75 17.421875,8.734375 C17.375,9.078125 17.171875,9.640625 16.90625,9.984375 L16.421875,9.828125 C16.5625,9.5 16.609375,9.125 16.609375,8.6875 C15.8125,8.59375 15.03125,8.453125 14.359375,8.234375 C14.359375,8.609375 14.375,9.453125 14.421875,10.4375 C15.609375,10.625 16.71875,10.9375 17.609375,11.265625 C18.5,11.59375 19.15625,11.953125 19.4375,12.234375 C19.71875,12.5 19.703125,12.640625 19.703125,12.796875 C19.703125,12.984375 19.578125,13.125 19.390625,13.21875 C19.21875,13.328125 18.984375,13.328125 18.84375,13.328125 C18.765625,13.328125 18.65625,13.296875 18.546875,13.25 C18.3125,13.15625 18.125,13 17.9375,12.796875 C17.828125,12.6875 17.71875,12.609375 17.609375,12.546875 C16.953125,12.171875 15.765625,11.796875 14.5,11.515625 C14.515625,11.765625 14.53125,12 14.546875,12.21875 C14.5625,12.453125 14.578125,12.671875 14.609375,12.921875 C15.40625,13.296875 16.234375,13.71875 16.953125,14.140625 C17.65625,14.546875 18.25,14.9375 18.578125,15.234375 C19.03125,15.640625 19.25,15.921875 19.21875,16.421875 C19.21875,16.65625 19.0625,16.859375 18.828125,17.015625 C18.59375,17.15625 18.3125,17.265625 18.078125,17.265625 C17.546875,17.265625 17.09375,17.171875 16.5625,16.953125 L16.671875,16.515625 C17.046875,16.578125 17.3125,16.578125 17.4375,16.546875 C17.5625,16.515625 17.65625,16.390625 17.65625,16.21875 C17.671875,15.984375 17.59375,15.765625 17.421875,15.546875 C17.09375,15.125 16.828125,14.953125 16.140625,14.5 C15.78125,14.28125 15.3125,13.984375 14.6875,13.625 C14.890625,15.234375 15.09375,16.609375 15.3125,17.453125 C15.546875,18.34375 15.4375,18.78125 14.953125,19.0625 C14.46875,19.34375 13.78125,19.5 13.03125,19.578125 Z M4.34375,18.140625 C4.671875,17.96875 5,17.796875 5.234375,17.546875 C5.46875,17.28125 5.609375,16.953125 5.609375,16.46875 C5.609375,15.796875 5.59375,14.75 5.546875,13.421875 C4.890625,13.296875 4.234375,13.25 3.640625,13.296875 C3.0625,13.34375 2.546875,13.46875 2.203125,13.65625 L2.0625,13.28125 C2.265625,12.96875 2.609375,12.703125 3.03125,12.53125 C3.453125,12.34375 3.921875,12.234375 4.375,12.234375 C4.78125,12.234375 5.15625,12.265625 5.515625,12.296875 L5.3125,6.640625 C4.609375,6.09375 3.96875,5.625 3.390625,5.3125 C3.53125,7.203125 4.078125,8.90625 5.0625,10.65625 L4.65625,10.96875 C4.359375,10.5625 4.09375,10.15625 3.875,9.75 C3.40625,8.9375 3.078125,8.140625 2.796875,7.390625 L2.40625,6.3125 C2.328125,6.078125 2.25,5.796875 2.203125,5.515625 C2.140625,5.234375 2.109375,5 2.109375,4.859375 C2.109375,4.5625 2.1875,4.4375 2.5,4.125 C2.734375,3.890625 3,3.765625 3.3125,3.9375 C3.921875,4.25 4.5625,4.765625 5.265625,5.328125 C5.1875,3.828125 5.140625,2.453125 5.109375,1.328125 L3.875,2.5625 L3.546875,2.15625 C4.0625,1.609375 4.4375,0.921875 4.671875,-0.1875 C4.765625,-0.546875 4.828125,-0.90625 5.015625,-1.03125 C5.15625,-1.125 5.40625,-1.09375 5.59375,-0.96875 C5.734375,-0.875 5.90625,-0.703125 6.0625,-0.515625 C6.203125,-0.328125 6.3125,-0.125 6.359375,0.046875 C6.421875,0.265625 6.453125,0.5 6.453125,0.765625 C6.453125,1.015625 6.453125,1.3125 6.4375,1.65625 C6.40625,2.53125 6.375,3.359375 6.375,4.125 L6.34375,6.34375 C7.28125,7.328125 8.1875,8.328125 8.890625,9.234375 L8.6875,9.734375 C8.140625,9.171875 7.296875,8.328125 6.359375,7.53125 C6.359375,8.1875 6.359375,9.140625 6.390625,10.078125 C6.421875,11.015625 6.453125,11.90625 6.484375,12.453125 C7,12.5625 7.4375,12.6875 7.796875,12.828125 C8.515625,13.109375 8.984375,13.328125 9.140625,13.65625 C9.3125,13.984375 9.171875,14.328125 8.59375,14.421875 C8.328125,14.46875 8.140625,14.40625 7.78125,14.1875 C7.578125,14.046875 7.15625,13.859375 6.578125,13.671875 C6.671875,14.703125 6.796875,15.59375 6.96875,16.375 C7.046875,16.765625 7.078125,17.03125 7.046875,17.234375 C7.015625,17.453125 6.921875,17.609375 6.78125,17.84375 C6.453125,18.265625 5.59375,18.59375 4.515625,18.6875 Z M16.515625,7.921875 C16.484375,7.65625 16.234375,7.15625 15.859375,6.609375 C15.484375,6.0625 14.984375,5.453125 14.453125,4.96875 C14.40625,5.640625 14.40625,6.53125 14.40625,7.375 C15.109375,7.734375 15.859375,7.890625 16.515625,7.921875 Z M13.25,6.96875 C13.203125,5.890625 13.25,4.828125 13.328125,3.890625 C13.09375,3.625 12.734375,3.3125 12.390625,3.046875 C12.03125,2.765625 11.703125,2.515625 11.515625,2.421875 C11.203125,2.25 10.984375,2.140625 10.828125,2.125 C10.671875,2.09375 10.53125,2.140625 10.421875,2.265625 C10.296875,2.390625 10.109375,2.578125 9.9375,2.796875 C9.765625,3.03125 9.59375,3.265625 9.453125,3.453125 C9.234375,3.796875 9.453125,4.34375 9.890625,4.78125 C10.265625,5.15625 10.8125,5.609375 11.421875,6 C12.03125,6.40625 12.6875,6.765625 13.25,6.96875 Z" transform="translate(-0.0390625, 19.578125) scale(1, -1)"/>
</svg>