<svg height="20.53125" viewBox="0 0 24 20.53125" width="24" xmlns="http://www.w3.org/2000/svg">
<path d="M13.859375,18.890625 C14.40625,18.6875 14.578125,18.34375 14.359375,18.078125 C14.078125,17.75 13.71875,17.421875 13.3125,17.109375 C12.921875,16.8125 12.5,16.515625 12.125,16.28125 C11.796875,16.09375 11.71875,15.90625 11.75,15.734375 C11.765625,15.578125 11.90625,15.421875 12.09375,15.3125 C12.484375,15.09375 12.828125,14.734375 12.96875,14.453125 C11.65625,13.984375 10.734375,13.609375 10.015625,13.28125 C9.3125,12.9375 8.78125,12.640625 8.3125,12.359375 C8,12.171875 7.828125,11.984375 7.828125,11.59375 C7.828125,11.15625 8.234375,10.9375 8.703125,10.765625 L8.90625,10.96875 C8.703125,11.015625 8.65625,11.3125 8.65625,11.453125 C8.671875,11.546875 8.84375,11.6875 9.15625,11.890625 C9.453125,12.078125 9.9375,12.3125 10.609375,12.578125 C11.453125,12.921875 12.453125,13.3125 13.296875,13.578125 C13.4375,13.21875 13.484375,13.03125 13.484375,12.53125 C13.109375,12.3125 12.5,12.03125 11.859375,11.71875 C11.203125,11.421875 10.53125,11.109375 10.015625,10.875 C9.34375,10.5625 9.484375,9.984375 10.203125,9.59375 C10.484375,9.421875 11.046875,9.34375 11.625,9.3125 C12.203125,9.265625 12.828125,9.265625 13.25,9.3125 C12.3125,8.328125 11.703125,6.96875 11.328125,5.59375 C10.875,5.421875 10.34375,5.171875 9.796875,4.90625 C9.265625,4.625 8.703125,4.3125 8.28125,4.03125 C7.828125,3.734375 7.5625,3.5 7.375,3.265625 C7.1875,3.046875 7.09375,2.875 7.03125,2.6875 C6.90625,2.359375 7.109375,1.953125 7.609375,1.578125 C8.234375,1.15625 8.671875,0.765625 8.953125,0.40625 C9.328125,-0.046875 9.96875,0 10.765625,0.4375 C11.328125,0.75 11.859375,1.078125 12.390625,1.421875 C12.65625,1.203125 12.875,1.015625 13.203125,0.84375 C14.046875,0.390625 14.640625,0.453125 15.078125,1.078125 C15.296875,1.390625 15.5,1.96875 15.59375,2.5 L15.1875,2.796875 C15.0625,2.28125 14.90625,1.90625 14.59375,1.578125 C14.453125,1.4375 14.234375,1.46875 14.015625,1.609375 C13.75,1.78125 13.578125,1.953125 13.46875,2.109375 C13.78125,2.328125 14.203125,2.6875 14.5625,3.09375 C15.453125,4.078125 15.953125,5.15625 16.03125,6.234375 C16.75,6.375 17.421875,6.359375 18,6.25 C18.5625,6.125 19.046875,5.890625 19.375,5.609375 C19.953125,5.109375 20.0625,4.609375 20.0625,4.03125 C20.0625,2.859375 19.34375,1.84375 17.703125,0.921875 C17.203125,0.640625 16.53125,0.3125 15.796875,0.015625 C15.0625,-0.296875 14.25,-0.578125 13.484375,-0.796875 L13.765625,-1.25 C15.453125,-0.921875 17.09375,-0.4375 18.453125,0.265625 C19.265625,0.6875 20.078125,1.203125 20.65625,1.8125 C21.25,2.4375 21.625,3.171875 21.625,4.0625 C21.625,5.09375 21.1875,5.84375 20.375,6.359375 C19.859375,6.6875 19.109375,6.921875 18.3125,7.015625 C17.515625,7.125 16.671875,7.109375 15.96875,7.015625 C15.890625,7.109375 15.828125,7.234375 15.78125,7.34375 C15.71875,7.4375 15.609375,7.5625 15.484375,7.671875 L15.03125,7.46875 C15.15625,7.296875 15.21875,7.109375 15.265625,6.875 C14.859375,6.78125 14.390625,6.65625 13.90625,6.515625 C13.40625,6.375 12.921875,6.21875 12.53125,6.046875 C12.625,6.46875 12.765625,6.984375 12.921875,7.46875 C13.09375,7.953125 13.28125,8.40625 13.46875,8.6875 L13.84375,8.359375 C13.953125,8.25 14.046875,8.203125 14.140625,8.203125 C14.328125,8.203125 14.46875,8.3125 14.546875,8.515625 C14.625,8.75 14.65625,9.125 14.703125,9.453125 C15.453125,9.546875 16.171875,9.6875 16.828125,9.921875 C17.5,10.15625 17.703125,10.484375 17.46875,10.8125 C17.203125,11.1875 16.828125,11.1875 16.484375,11.0625 C16.203125,10.953125 15.859375,10.859375 15.546875,10.765625 C15.21875,10.671875 14.90625,10.625 14.703125,10.578125 C14.765625,11.0625 14.75,11.6875 14.703125,12.140625 C15.046875,12.265625 15.59375,12.515625 16.125,12.765625 C16.640625,13.015625 17.140625,13.265625 17.421875,13.4375 C18,13.78125 18.34375,14.140625 18.34375,14.46875 C18.34375,14.953125 17.734375,15.34375 16.921875,15.34375 C16.671875,15.34375 16.25,15.3125 15.734375,15.21875 C15.21875,15.125 14.609375,14.984375 13.953125,14.796875 C13.65625,15.078125 13.21875,15.40625 12.9375,15.578125 C12.578125,15.796875 12.625,15.921875 12.921875,16.0625 C13.859375,16.4375 14.890625,16.90625 15.828125,17.421875 C16.390625,17.75 16.4375,18.125 16.15625,18.4375 C15.828125,18.796875 15.171875,19.0625 14.328125,19.28125 Z M5.265625,18.34375 C5.84375,17.984375 6.15625,17.5625 5.890625,16.953125 C5.65625,16.4375 5.3125,15.75 4.921875,15.03125 C4.53125,14.296875 4.078125,13.515625 3.65625,12.828125 C3.234375,12.15625 2.84375,11.5625 2.515625,11.234375 C2.0625,10.71875 2,10.203125 2.46875,10.0625 C3.125,9.875 3.328125,9.453125 3.234375,8.375 C3.140625,7.296875 3.0625,6 3.03125,4.703125 C2.984375,3.40625 3.03125,2.09375 3.1875,1.015625 C3.3125,0.125 3.78125,-0.40625 4.15625,-0.40625 C4.484375,-0.40625 4.8125,-0.1875 4.8125,0.640625 C4.8125,0.84375 4.84375,1.0625 4.90625,1.265625 C4.953125,1.46875 5.015625,1.703125 5.09375,1.96875 C5.171875,2.28125 5.3125,2.734375 5.484375,3.328125 L6.1875,5.6875 L5.734375,6.03125 L4.296875,2.28125 C4.203125,3.046875 4.203125,4.015625 4.21875,5.078125 C4.25,6.125 4.296875,7.25 4.375,8.375 C4.40625,8.953125 4.28125,9.359375 4.09375,9.65625 C3.890625,9.9375 3.640625,10.109375 3.4375,10.25 C3.21875,10.390625 3.078125,10.5 3.078125,10.640625 C3.078125,10.78125 3.171875,10.953125 3.40625,11.203125 C3.703125,11.5 4.140625,12 4.609375,12.578125 C5.078125,13.140625 5.59375,13.796875 6.078125,14.4375 C6.546875,15.078125 7,15.6875 7.328125,16.203125 C7.6875,16.71875 7.75,17.109375 7.5625,17.46875 C7.453125,17.671875 7.203125,17.921875 6.875,18.140625 C6.546875,18.359375 6.125,18.5625 5.6875,18.6875 Z M16.390625,14.28125 C16.671875,14.28125 16.859375,14.265625 16.90625,14.21875 C16.984375,14.140625 16.84375,14 16.46875,13.765625 C16.265625,13.625 15.9375,13.46875 15.59375,13.296875 C15.265625,13.109375 14.890625,12.953125 14.609375,12.84375 C14.5625,13.21875 14.5625,13.4375 14.375,13.90625 C15.140625,14.125 15.9375,14.28125 16.390625,14.28125 Z M13.53125,11.8125 C13.578125,11.40625 13.53125,10.78125 13.484375,10.328125 C13.25,10.296875 12.84375,10.265625 12.390625,10.265625 C11.9375,10.265625 11.453125,10.28125 11.09375,10.328125 C10.96875,10.34375 10.875,10.359375 10.796875,10.390625 C10.625,10.4375 10.578125,10.5 10.671875,10.59375 C10.703125,10.625 10.796875,10.671875 10.921875,10.71875 C11.34375,10.875 11.84375,11.0625 12.3125,11.265625 C12.78125,11.453125 13.203125,11.640625 13.53125,11.8125 Z M15.171875,6.125 C15.125,5.78125 14.953125,5.328125 14.71875,4.890625 C14.484375,4.4375 14.171875,3.984375 13.828125,3.640625 C13.546875,3.359375 13.15625,2.984375 12.78125,2.765625 C12.578125,2.9375 12.5,3.078125 12.390625,3.296875 C12.21875,3.65625 12.234375,4.375 12.453125,5.140625 C13.390625,5.5625 14.453125,5.9375 15.171875,6.125 Z M11.1875,4.484375 C11.125,4.078125 11.09375,3.75 11.09375,3.515625 C11.09375,3.046875 11.203125,2.578125 11.734375,2.015625 C11.65625,1.953125 11.5625,1.875 11.46875,1.796875 C11.234375,1.625 11,1.46875 10.71875,1.328125 C10.4375,1.171875 10.203125,1.046875 9.90625,1.015625 C9.609375,0.96875 9.21875,1.25 8.90625,1.53125 C8.59375,1.8125 8.203125,2.0625 8.328125,2.390625 C8.390625,2.5625 8.609375,2.78125 8.953125,3.078125 C9.765625,3.734375 10.46875,4.15625 11.1875,4.484375 Z" transform="translate(0.1875, 19.28125) scale(1, -1)"/>
</svg>