<svg height="20.765625" viewBox="0 0 24 20.765625" width="24" xmlns="http://www.w3.org/2000/svg">
<path d="M8.109375,18.84375 C8.28125,18.59375 8.515625,18.234375 8.859375,18 C9.3125,17.6875 9.890625,17.453125 10.65625,17.453125 C11.546875,17.453125 12.390625,17.703125 12.921875,17.9375 C13.34375,18.125 13.46875,18.53125 13.25,18.828125 C13.046875,19.09375 12.75,19.171875 12.4375,19.03125 C11.84375,18.765625 11.28125,18.59375 10.578125,18.59375 C10.015625,18.59375 9.453125,18.640625 9.125,18.828125 C8.84375,18.96875 8.625,19.0625 8.40625,19.25 Z M17.65625,17.9375 C16.96875,17.9375 16.046875,17.75 14.9375,17.453125 C13.84375,17.140625 12.59375,16.71875 11.3125,16.203125 C11.21875,16.296875 11.0625,16.46875 10.921875,16.578125 C10.765625,16.703125 10.609375,16.78125 10.46875,16.78125 C10.03125,16.78125 9.734375,16.34375 9.59375,15.59375 C8.703125,15.3125 7.6875,15.078125 6.8125,14.921875 C5.921875,14.75 5.171875,14.671875 4.8125,14.703125 C4.15625,14.796875 3.78125,15.140625 3.4375,15.6875 L3.03125,15.34375 C3.21875,14.84375 3.375,14.40625 3.546875,14.109375 C3.96875,13.421875 4.484375,13.15625 5.5,13.375 C5.984375,13.484375 6.65625,13.703125 7.375,13.953125 C8.09375,14.21875 8.875,14.5 9.578125,14.765625 C9.546875,14.15625 9.53125,13.484375 9.578125,13.078125 C9.640625,12.578125 9.734375,12.328125 10.078125,12.40625 C10.34375,12.46875 10.609375,12.484375 10.875,12.484375 C11.015625,12.484375 11.09375,12.4375 11.078125,12.34375 C11.0625,12.234375 10.90625,12.109375 10.578125,11.9375 C10.265625,11.75 9.875,11.5625 9.453125,11.421875 C9.046875,11.265625 8.65625,11.125 8.359375,11.0625 L8.609375,10.671875 C9.328125,10.8125 10.1875,11.0625 11.15625,11.453125 C11.40625,11.5625 11.640625,11.65625 11.84375,11.75 C12.265625,11.9375 12.78125,12.234375 12.78125,12.640625 C12.78125,12.9375 12.53125,13.09375 12.234375,13.171875 C11.96875,13.25 11.515625,13.28125 11.203125,13.28125 C10.984375,13.28125 10.9375,13.390625 10.90625,13.578125 C10.859375,13.859375 10.84375,14.140625 10.84375,14.453125 C10.84375,14.75 10.859375,15.03125 10.90625,15.265625 C12.359375,15.875 13.671875,16.421875 14.796875,16.796875 C15.90625,17.15625 16.828125,17.359375 17.5625,17.3125 C18.59375,17.234375 18.96875,16.765625 18.96875,15.734375 C18.96875,15.3125 18.78125,14.890625 18.390625,14.5625 C17.9375,14.203125 17.28125,14.015625 16.765625,14.015625 C16.25,14.015625 15.8125,14.0625 15.390625,14.171875 C14.96875,14.265625 14.5625,14.40625 14.109375,14.59375 L13.953125,14.15625 C15.03125,13.5 16.03125,13.28125 16.78125,13.28125 C17.953125,13.28125 18.6875,13.46875 19.28125,13.765625 C19.59375,13.90625 19.90625,14.15625 20.140625,14.484375 C20.375,14.8125 20.515625,15.21875 20.515625,15.71875 C20.515625,16.375 20.265625,16.921875 19.78125,17.3125 C19.296875,17.703125 18.59375,17.9375 17.65625,17.9375 Z M13.375,12.34375 C13.8125,12.140625 13.953125,11.890625 13.828125,11.421875 C13.765625,11.1875 13.578125,10.84375 13.375,10.5 C13.15625,10.15625 12.890625,9.828125 12.6875,9.625 C12.46875,9.40625 12.3125,9.21875 12.25,9.109375 C12.171875,8.984375 12.171875,8.84375 12.21875,8.703125 C12.265625,8.515625 12.40625,8.3125 12.546875,8.1875 C12.71875,8.046875 12.9375,8.046875 13.21875,8.203125 C13.5625,8.390625 14.203125,8.640625 14.6875,8.640625 C15.046875,8.640625 15.125,8.515625 15.078125,8.09375 C15.03125,7.84375 14.921875,7.234375 14.640625,6.671875 C13.90625,6.4375 13.109375,6.125 12.359375,5.765625 C11.609375,5.390625 10.921875,4.96875 10.4375,4.515625 C9.5,3.640625 8.953125,2.921875 8.953125,2 C8.953125,1.4375 9.25,1.015625 9.71875,0.84375 C10.1875,0.671875 10.84375,0.734375 11.59375,1.203125 C12.15625,1.53125 12.953125,2.21875 13.609375,2.9375 C13.984375,3.34375 14.375,3.90625 14.734375,4.484375 C15.078125,5.046875 15.390625,5.609375 15.578125,6.03125 C15.890625,6.171875 16.359375,6.296875 16.71875,6.296875 C17.28125,6.296875 17.390625,5.9375 17.359375,5.40625 C17.3125,4.65625 17.203125,3.796875 16.96875,2.90625 C16.890625,2.609375 17.046875,2.390625 17.234375,2.265625 C17.453125,2.109375 17.75,2.046875 18.078125,2.234375 C18.390625,2.40625 18.96875,2.5625 19.53125,2.5625 C20.015625,2.5625 20.28125,2.265625 20.28125,1.765625 C20.28125,1.421875 20.078125,1.140625 19.703125,0.875 C19.328125,0.59375 18.78125,0.34375 18.125,0.078125 C17.1875,-0.3125 15.9375,-0.671875 14.703125,-0.875 L15.046875,-1.515625 C15.59375,-1.4375 16.203125,-1.3125 16.78125,-1.171875 C17.359375,-1.046875 17.90625,-0.90625 18.34375,-0.796875 C19.25,-0.5625 20.125,-0.25 20.765625,0.171875 C21.40625,0.59375 21.828125,1.078125 21.828125,1.671875 C21.828125,2.109375 21.625,2.515625 21.25,2.8125 C20.875,3.09375 20.328125,3.265625 19.671875,3.265625 C19.4375,3.265625 19.15625,3.265625 18.875,3.21875 C18.59375,3.171875 18.328125,3.140625 18.140625,3.09375 C18.453125,3.9375 18.78125,4.875 18.828125,5.90625 C18.828125,6.546875 18.3125,6.9375 17.65625,7.03125 C17.140625,7.109375 16.46875,7.0625 16.015625,6.96875 C16.125,7.15625 16.234375,7.375 16.3125,7.578125 C16.484375,7.96875 16.625,8.375 16.53125,8.65625 C16.4375,8.953125 16.109375,9.3125 15.921875,9.453125 C15.75,9.59375 15.59375,9.640625 15.4375,9.640625 C15.359375,9.640625 15.265625,9.640625 15.171875,9.625 C14.734375,9.59375 14.234375,9.515625 13.8125,9.4375 C14.3125,10.09375 14.75,10.78125 14.9375,11.375 C15.03125,11.703125 14.921875,11.984375 14.6875,12.203125 C14.453125,12.421875 14.09375,12.578125 13.703125,12.671875 Z M5.328125,10.015625 C5.515625,9.3125 5.984375,8.921875 6.546875,8.796875 C6.359375,8.609375 6.046875,8.46875 5.65625,8.28125 L5.953125,8 C6.453125,8.1875 7.015625,8.421875 7.4375,8.453125 C7.875,8.46875 8.234375,8.703125 8.09375,9.265625 C7.953125,9.6875 7.625,9.90625 7.078125,9.828125 C6.828125,9.78125 6.546875,9.8125 6.265625,9.875 C5.984375,9.953125 5.75,10.078125 5.609375,10.28125 Z M2.546875,6.84375 C2.53125,6.625 2.5625,6.375 2.625,6.125 C2.671875,5.890625 2.75,5.65625 2.84375,5.515625 C3.0625,5.09375 3.4375,5.046875 3.71875,5.1875 C4.265625,5.453125 4.65625,5.578125 4.921875,5.65625 C4.328125,4.015625 3.921875,2.46875 3.921875,1.0625 C3.921875,0.875 3.921875,0.59375 3.96875,0.34375 C4,0.078125 4.046875,-0.1875 4.125,-0.34375 C4.25,-0.578125 4.484375,-0.734375 4.71875,-0.6875 C4.96875,-0.65625 5.1875,-0.484375 5.265625,-0.03125 C5.3125,0.25 5.421875,0.5625 5.609375,0.921875 C5.96875,1.609375 6.453125,2.375 7.015625,3.109375 C7.28125,3.46875 7.515625,3.796875 7.703125,4.078125 L7.34375,4.5625 C7.03125,4.109375 6.625,3.546875 6.203125,3 C5.765625,2.453125 5.328125,1.90625 4.953125,1.46875 C4.8125,1.828125 4.875,2.453125 5.0625,3.125 C5.359375,4.15625 5.75,4.859375 6.296875,5.609375 C6.546875,5.9375 6.53125,6.328125 6.21875,6.59375 C5.890625,6.875 5.609375,6.9375 5.3125,6.828125 C4.765625,6.59375 4.390625,6.484375 3.890625,6.390625 C3.671875,6.34375 3.5,6.34375 3.359375,6.4375 C3.21875,6.53125 3.109375,6.734375 3,7.0625 Z M14.203125,5.8125 C14.09375,5.53125 13.859375,5.109375 13.609375,4.71875 C13.34375,4.3125 13.0625,3.90625 12.875,3.671875 C12.171875,2.8125 11.671875,2.171875 10.96875,1.859375 C10.578125,1.671875 10.4375,1.859375 10.4375,2.234375 C10.4375,2.65625 10.640625,3.3125 11.203125,3.828125 C11.5,4.109375 11.984375,4.5 12.53125,4.875 C13.0625,5.25 13.65625,5.609375 14.203125,5.8125 Z" transform="translate(-0.1796875, 19.25) scale(1, -1)"/>
</svg>