<svg height="21.984375" viewBox="0 0 24 21.984375" width="24" xmlns="http://www.w3.org/2000/svg">
<path d="M3.296875,14.09375 C4.078125,12.6875 5.125,11.9375 6.9375,12 C6.921875,11.171875 6.90625,10.25 6.921875,9.28125 C6.921875,8.328125 6.953125,7.34375 7.03125,6.453125 C6.015625,6.375 5.28125,6.390625 4.828125,6.484375 C4.375,6.578125 4.15625,6.734375 4.15625,6.9375 C4.15625,7.296875 4.609375,7.625 5.140625,7.921875 L4.78125,8.3125 C4.328125,8.109375 3.84375,7.828125 3.578125,7.609375 C3.125,7.25 3,6.921875 3,6.53125 C3,6.078125 3.3125,5.625 4.078125,5.421875 C4.4375,5.328125 5.015625,5.28125 5.609375,5.28125 C6.1875,5.265625 6.78125,5.28125 7.203125,5.328125 C7.328125,4.4375 7.46875,3.59375 7.671875,2.71875 C7.890625,1.828125 8.140625,0.921875 8.5,-0.078125 L9.125,0.046875 C8.9375,1.09375 8.78125,2.03125 8.65625,2.890625 C8.546875,3.765625 8.46875,4.546875 8.453125,5.375 C9.453125,5.46875 10.578125,5.625 11.671875,5.8125 C12.78125,6 13.84375,6.21875 14.8125,6.40625 C14.734375,5.015625 14.640625,3.703125 14.46875,2.40625 C14.3125,1.09375 14.0625,-0.203125 13.703125,-1.5625 L14.265625,-1.703125 C14.84375,-0.578125 15.265625,0.78125 15.5625,2.21875 C15.875,3.65625 16.0625,5.1875 16.25,6.640625 C17.703125,7.109375 18.9375,7.53125 20.3125,8.1875 C20.6875,8.359375 20.953125,8.515625 21.125,8.65625 C21.3125,8.796875 21.390625,8.96875 21.390625,9.140625 C21.390625,9.453125 21.125,9.640625 20.6875,9.6875 C20.28125,9.734375 19.90625,9.78125 19.328125,9.40625 C18.390625,8.84375 17.359375,8.375 16.375,8.140625 C16.421875,8.6875 16.453125,9.4375 16.484375,10.1875 L16.515625,11.28125 C16.53125,11.625 16.53125,11.9375 16.53125,12.21875 C17.328125,12.71875 18.125,13.28125 18.921875,13.953125 C19.140625,14.140625 19.28125,14.359375 19.328125,14.59375 C19.40625,15.046875 18.96875,15.484375 18.546875,15.625 C18.1875,15.75 17.859375,15.65625 17.359375,15.453125 C17.109375,15.359375 16.78125,15.25 16.53125,15.21875 C16.53125,16.65625 16.5,17.8125 16.390625,19.03125 C16.3125,19.953125 15.828125,20.28125 15.1875,20.28125 C14.59375,20.28125 14,20 13.328125,19.28125 L13.65625,18.921875 C14.40625,19.578125 14.84375,19.484375 14.9375,18.78125 C15.03125,17.6875 15.078125,16.4375 15.046875,14.703125 C13.9375,14.375 12.703125,14.046875 11.515625,13.8125 C10.34375,13.5625 9.203125,13.390625 8.265625,13.296875 C8.265625,13.96875 8.296875,14.796875 8.34375,15.65625 C8.390625,16.5 8.46875,17.375 8.546875,18.21875 L7.875,18.34375 C7.390625,16.78125 7.0625,14.984375 6.96875,13.203125 C5.59375,13.109375 4.578125,13.4375 3.734375,14.375 Z M16.5625,13.90625 C16.765625,13.984375 16.96875,14.078125 17.203125,14.171875 C17.4375,14.265625 17.6875,14.375 17.953125,14.46875 C17.59375,13.921875 17.109375,13.34375 16.5625,12.9375 Z M15.03125,13.4375 C15.03125,11.515625 15.015625,9.71875 14.890625,7.703125 C14.046875,7.5 12.890625,7.265625 11.703125,7.0625 C10.53125,6.84375 9.3125,6.65625 8.375,6.578125 C8.234375,8.546875 8.140625,10.46875 8.234375,12.078125 C9.21875,12.171875 10.484375,12.375 11.703125,12.640625 C12.921875,12.890625 14.140625,13.171875 15.03125,13.4375 Z" transform="translate(-0.1953125, 20.28125) scale(1, -1)"/>
</svg>