<svg height="17.65625" viewBox="0 0 24 17.65625" width="24" xmlns="http://www.w3.org/2000/svg">
<path d="M2.5,17 C2.9375,16.109375 3.46875,15.546875 4.109375,15.1875 C4.734375,14.84375 5.484375,14.703125 6.390625,14.734375 C8.140625,12.265625 10.015625,9.921875 12.125,7.71875 C11.59375,7.34375 10.9375,6.796875 10.328125,6.25 C9.703125,5.703125 9.09375,5.140625 8.65625,4.671875 C7.828125,3.796875 7.421875,3.140625 7.421875,2.328125 C7.421875,1.109375 8.53125,0.3125 11.015625,0 C11.765625,-0.09375 12.390625,-0.125 12.890625,-0.125 C13.390625,-0.125 13.765625,-0.109375 14.09375,-0.078125 C14.75,-0.015625 15.234375,0.078125 15.546875,0.234375 C16.015625,0.453125 16.109375,0.78125 16.015625,0.96875 C15.875,1.203125 15.546875,1.40625 15.265625,1.484375 C14.859375,1.59375 14.328125,1.515625 13.71875,1.421875 C13.40625,1.375 13.03125,1.34375 12.59375,1.296875 C11.953125,1.25 10.046875,1.359375 9.171875,1.71875 C8.71875,1.890625 8.5,2.15625 8.5,2.546875 C8.5,3.03125 8.703125,3.59375 9.453125,4.296875 C10.578125,5.328125 11.765625,6.328125 12.796875,6.984375 C13.21875,6.625 13.671875,6.34375 14.09375,6.34375 C14.40625,6.34375 14.65625,6.625 14.46875,7.0625 C14.421875,7.15625 14.390625,7.28125 14.375,7.40625 C14.3125,7.640625 14.34375,7.875 14.515625,8.171875 C14.609375,8.3125 14.78125,8.515625 15.046875,8.765625 C15.84375,9.53125 16.859375,10.484375 17.8125,11.328125 C18.765625,12.1875 19.671875,12.96875 20.234375,13.4375 C21.21875,14.28125 21.59375,14.84375 21.59375,15.484375 C21.59375,15.875 21.5625,16.265625 21.34375,16.515625 C21.171875,16.703125 20.765625,16.8125 20.3125,16.8125 C19.953125,16.8125 19.484375,16.734375 19.046875,16.609375 C18.59375,16.484375 18.15625,16.328125 17.859375,16.15625 L18.1875,15.71875 C18.59375,15.796875 18.921875,15.84375 19.15625,15.875 C19.375,15.90625 19.546875,15.921875 19.671875,15.921875 C19.875,15.921875 19.96875,15.84375 19.96875,15.703125 C19.96875,15.5625 19.859375,15.34375 19.625,15.03125 C19.15625,14.375 18.203125,13.28125 17.015625,12.0625 C15.828125,10.84375 14.421875,9.5 13.0625,8.359375 C11.984375,9.40625 10.9375,10.5625 10,11.703125 C9.0625,12.828125 8.234375,13.953125 7.578125,14.984375 C7.734375,15 7.875,15.046875 8.03125,15.125 C8.328125,15.25 8.859375,15.578125 8.90625,15.9375 C8.9375,16.125 8.796875,16.25 8.421875,16.421875 C8.09375,16.578125 7.765625,16.84375 7.46875,17.203125 C7.265625,17.453125 7.0625,17.53125 6.875,17.46875 C6.671875,17.390625 6.546875,17.21875 6.3125,16.90625 C6.125,16.609375 5.984375,16.25 5.953125,15.84375 C4.828125,15.671875 3.78125,16.140625 2.984375,17.359375 Z" transform="translate(-0.046875, 17.53125) scale(1, -1)"/>
</svg>