<svg height="23.03125" viewBox="0 0 24 23.03125" width="24" xmlns="http://www.w3.org/2000/svg">
<path d="M10.953125,20.265625 C11.09375,19.640625 11.375,19.015625 11.71875,18.453125 C12.046875,17.890625 12.46875,17.375 12.890625,17.046875 C13.4375,16.625 13.90625,16.4375 14.234375,16.625 C14.546875,16.8125 14.625,17.15625 14.515625,17.515625 C14.390625,17.953125 14.140625,18.21875 13.859375,18.3125 C13.390625,18.453125 13.03125,18.6875 12.6875,18.96875 C12.171875,19.390625 11.671875,19.96875 11.453125,20.515625 Z M9.5,16.109375 C9.328125,15.96875 9.15625,15.765625 9.015625,15.5 C8.875,15.25 8.765625,14.9375 8.765625,14.65625 C8.765625,14.1875 8.90625,13.703125 9.3125,13.328125 C9.734375,12.9375 10.359375,12.484375 11.421875,12.34375 C10.765625,12.03125 10.0625,11.609375 9.171875,11.046875 C8.640625,10.703125 7.96875,10.203125 7.359375,9.734375 C6.734375,9.265625 6.171875,8.78125 5.890625,8.453125 C5.5,8.015625 5.453125,7.78125 5.453125,7.53125 C5.453125,6.921875 5.828125,6.578125 6.71875,6.4375 C7.65625,6.28125 8.703125,6.265625 9.546875,6.34375 C9.984375,6.375 10.578125,6.46875 11.140625,6.578125 C11.703125,6.671875 12.203125,6.796875 12.4375,6.890625 C12.4375,6.1875 12.40625,5.328125 12.3125,4.359375 C12.203125,3.40625 12.015625,2.34375 11.6875,1.296875 C11.46875,0.59375 11.265625,0.03125 11.03125,-0.5 C10.796875,-1.046875 10.515625,-1.5625 10.171875,-2.15625 L10.71875,-2.515625 C11.765625,-1.390625 12.546875,-0.09375 12.96875,1.21875 C13.296875,2.34375 13.53125,3.4375 13.640625,4.453125 C13.765625,5.46875 13.796875,6.40625 13.8125,7.21875 C14.1875,7.3125 14.71875,7.484375 15.21875,7.65625 C15.734375,7.828125 16.171875,8 16.375,8.109375 C16.875,8.375 17.0625,8.640625 17.0625,8.9375 C17.0625,9.15625 16.8125,9.328125 16.5625,9.296875 L16.046875,9.265625 C15.6875,9.25 15.3125,9.28125 15.078125,9.328125 C14.84375,9.359375 14.515625,9.4375 14.28125,9.625 C14.109375,9.765625 13.859375,9.921875 13.703125,9.921875 C13.515625,9.921875 13.140625,9.6875 12.875,9.296875 C12.59375,8.890625 12.5,8.5 12.40625,8.15625 C11.609375,7.875 10.5625,7.671875 9.578125,7.5625 C8.6875,7.46875 7.8125,7.5 7.28125,7.578125 C7.078125,7.625 6.921875,7.65625 6.828125,7.6875 C6.609375,7.765625 6.546875,7.875 6.6875,8.078125 C6.75,8.171875 6.859375,8.296875 7.015625,8.453125 C7.484375,8.96875 8.234375,9.484375 9.078125,9.984375 C9.921875,10.484375 10.84375,10.9375 11.6875,11.3125 C12.34375,11.609375 12.96875,11.703125 13.296875,11.796875 C13.921875,11.9375 14.0625,12.171875 14.0625,12.453125 C14.0625,12.734375 13.8125,13.09375 13.515625,13.28125 C13.203125,13.46875 12.84375,13.640625 12.546875,13.515625 C12.328125,13.421875 12.078125,13.34375 11.765625,13.390625 C11.03125,13.5 10.515625,13.71875 10.15625,13.953125 C9.8125,14.1875 9.640625,14.46875 9.640625,14.734375 C9.640625,15.21875 9.796875,15.5 9.984375,15.796875 Z" transform="translate(0.7421875, 20.515625) scale(1, -1)"/>
</svg>