<svg height="21.28125" viewBox="0 0 24 21.28125" width="24" xmlns="http://www.w3.org/2000/svg">
<path d="M9.3125,19.21875 C9.84375,19.046875 10.1875,18.90625 10.375,18.671875 C10.546875,18.4375 10.578125,18.09375 10.484375,17.515625 C10.359375,16.671875 10.25,15.671875 10.15625,14.609375 C10.0625,13.53125 9.96875,12.421875 9.921875,11.375 C9.34375,11.25 8.765625,11.234375 8.265625,11.234375 C7.140625,11.234375 6.234375,11.59375 5.640625,12.390625 L5.1875,11.984375 C5.609375,11.234375 6.140625,10.765625 6.890625,10.5 C7.640625,10.25 8.609375,10.203125 9.875,10.34375 C9.84375,9.78125 9.828125,9.34375 9.828125,9 C9.828125,8.65625 9.828125,8.40625 9.84375,8.234375 C8.5625,7.9375 7.171875,7.4375 5.96875,6.890625 C4.75,6.328125 3.734375,5.75 3.171875,5.234375 C2.328125,4.46875 2.375,3.859375 3,3.1875 C3.21875,2.953125 3.5,2.625 3.75,2.28125 C4.015625,1.921875 4.265625,1.53125 4.46875,1.25 C4.71875,0.875 4.984375,0.609375 5.40625,0.5625 C5.8125,0.515625 6.359375,0.6875 7.203125,1.15625 C7.671875,1.4375 8.25,1.765625 8.796875,2.140625 C9.359375,2.515625 9.875,2.875 10.25,3.1875 C10.375,2.65625 10.578125,1.921875 10.953125,1.328125 C11.21875,0.875 11.546875,0.71875 11.890625,0.71875 C12.25,0.71875 12.421875,0.984375 12.453125,1.34375 C12.46875,1.484375 12.5,1.6875 12.53125,1.9375 C12.546875,2.1875 12.609375,2.4375 12.6875,2.703125 C12.75,2.90625 12.828125,3.140625 12.921875,3.40625 C13,3.6875 13.09375,3.953125 13.203125,4.203125 L12.734375,4.578125 C12.59375,4.1875 12.453125,3.828125 12.3125,3.5 C12.15625,3.171875 12,2.859375 11.859375,2.546875 C11.59375,2.890625 11.421875,3.3125 11.328125,3.96875 C12.65625,5.125 13.515625,5.9375 14.046875,6.5625 C14.5625,7.203125 14.796875,7.65625 14.90625,8.140625 C15.984375,8.140625 17.046875,7.875 17.796875,7.390625 C18.59375,6.875 18.921875,6.125 18.921875,4.828125 C18.921875,3.9375 18.546875,3.140625 17.96875,2.421875 C17.375,1.71875 16.578125,1.09375 15.71875,0.578125 C14.453125,-0.171875 13.125,-0.625 11.609375,-0.984375 L11.953125,-1.5625 C12.59375,-1.453125 13.171875,-1.328125 13.78125,-1.140625 C14.390625,-0.96875 15.03125,-0.734375 15.78125,-0.40625 C18.875,0.9375 20.5,2.6875 20.5,4.859375 C20.5,6.21875 19.96875,7.34375 18.53125,8.140625 C17.59375,8.65625 16.296875,8.9375 14.9375,8.890625 C14.890625,9.390625 14.734375,9.640625 14.5,10.03125 L14,9.890625 C14.171875,9.546875 14.1875,9.265625 14.1875,8.890625 C13.28125,8.84375 12.09375,8.6875 10.96875,8.5 C10.96875,8.953125 11,9.6875 11.046875,10.53125 C12.53125,10.8125 13.828125,11.1875 14.8125,11.5625 C15.796875,11.921875 16.484375,12.234375 16.71875,12.40625 C17.015625,12.59375 17.0625,12.78125 17.0625,12.96875 C17.0625,13.1875 16.875,13.34375 16.65625,13.4375 C16.4375,13.53125 16.140625,13.53125 15.921875,13.53125 C15.6875,13.53125 15.34375,13.453125 15.171875,13.28125 C14.9375,13.0625 14.609375,12.875 14.328125,12.71875 C13.578125,12.3125 12.40625,11.890625 11.140625,11.59375 C11.171875,12.078125 11.203125,12.53125 11.265625,12.890625 C12.03125,13.3125 12.921875,13.8125 13.75,14.296875 C14.5625,14.78125 15.328125,15.265625 15.84375,15.59375 C16.640625,16.125 16.921875,16.625 16.921875,17 C16.921875,17.234375 16.828125,17.515625 16.609375,17.71875 C16.390625,17.921875 16.0625,18.078125 15.578125,18.078125 C14.984375,18.078125 14.328125,17.84375 13.53125,17.359375 L13.765625,16.953125 C13.890625,17 14.078125,17.0625 14.28125,17.09375 C14.46875,17.109375 14.671875,17.125 14.8125,17.109375 C15.21875,17.0625 15.265625,16.90625 14.984375,16.609375 C14.65625,16.28125 14.0625,15.71875 13.390625,15.15625 C12.703125,14.59375 11.953125,14.015625 11.359375,13.671875 C11.40625,14.34375 11.515625,15.125 11.625,15.78125 C11.75,16.453125 11.84375,17.046875 11.9375,17.359375 C12.125,18.21875 12.140625,18.765625 11.765625,19.078125 C11.28125,19.46875 10.46875,19.6875 9.625,19.71875 Z M6.546875,16.90625 C6.09375,16.34375 5.796875,15.734375 5.796875,14.984375 C5.796875,14.65625 5.875,14.328125 6.015625,14.09375 C6.15625,13.84375 6.359375,13.671875 6.640625,13.671875 C7.015625,13.671875 7.328125,13.890625 7.78125,14.1875 C8.328125,14.546875 8.859375,14.984375 9.296875,15.390625 L9.171875,15.84375 C8.75,15.578125 8.234375,15.34375 7.828125,15.21875 C7.28125,15.03125 7.046875,15.078125 6.96875,15.359375 C6.921875,15.546875 6.890625,15.765625 6.890625,16.046875 C6.890625,16.3125 6.921875,16.578125 6.96875,16.8125 Z M14.015625,8.09375 C13.9375,7.859375 13.734375,7.5 13.28125,7 C12.828125,6.484375 12.125,5.84375 11.046875,5.046875 C10.953125,5.703125 10.921875,6.640625 10.921875,7.53125 C12.140625,7.921875 13.21875,8.046875 14.015625,8.09375 Z M9.84375,7.25 C9.828125,7.046875 9.828125,6.828125 9.828125,6.578125 C9.828125,6.328125 9.84375,6.078125 9.859375,5.828125 C9.890625,5.3125 9.921875,4.796875 10.015625,4.375 C9.6875,4.125 9.109375,3.71875 8.515625,3.34375 C7.90625,2.953125 7.296875,2.59375 6.921875,2.40625 C6.359375,2.140625 6,2 5.703125,1.953125 C5.390625,1.90625 5.140625,1.953125 4.90625,2.09375 C4.671875,2.21875 4.484375,2.375 4.34375,2.59375 C4.203125,2.796875 4.0625,2.984375 3.9375,3.140625 C3.75,3.375 3.6875,3.546875 3.734375,3.734375 C3.78125,3.921875 3.96875,4.140625 4.25,4.421875 C4.71875,4.890625 5.640625,5.484375 6.6875,6.03125 C7.71875,6.5625 8.875,7.015625 9.84375,7.25 Z" transform="translate(0.5859375, 19.71875) scale(1, -1)"/>
</svg>