<svg height="19.890625" viewBox="0 0 24 19.890625" width="24" xmlns="http://www.w3.org/2000/svg">
<path d="M15.3125,18.265625 C14.890625,18.046875 14.640625,17.75 14.46875,17.4375 C14.3125,17.109375 14.234375,16.796875 14.234375,16.515625 C14.21875,16.140625 14.203125,15.734375 14.21875,15.296875 C14.21875,14.40625 14.234375,13.453125 14.28125,12.515625 C14.296875,12.03125 14.328125,11.59375 14.328125,11.15625 C13.546875,11.078125 12.71875,10.953125 11.859375,10.765625 C11,10.578125 10.140625,10.34375 9.34375,10.109375 C9.328125,10.609375 9.28125,11.203125 9.21875,11.78125 C9.171875,12.34375 9.078125,12.875 8.984375,13.25 C9.203125,13.4375 9.4375,13.640625 9.703125,13.859375 C9.96875,14.078125 10.234375,14.296875 10.5,14.546875 C11.03125,15.03125 11.5625,15.546875 11.9375,16.15625 C12.3125,16.765625 12.125,17.1875 11.546875,17.421875 C11.09375,17.609375 10.515625,17.703125 9.796875,17.734375 L9.40625,17.234375 C10.34375,17.09375 10.625,16.8125 10.296875,16.296875 C10.109375,16.015625 9.828125,15.640625 9.515625,15.296875 C9.1875,14.9375 8.84375,14.59375 8.5625,14.359375 C8.421875,14.6875 8.09375,14.921875 7.765625,15.03125 C7.4375,15.15625 7.0625,15.171875 6.734375,15.09375 C6.359375,15 5.8125,14.71875 5.453125,14.3125 L5.859375,13.921875 C6.890625,14.6875 7.421875,14.46875 7.609375,13.53125 C7.015625,13 6.5,12.625 6.109375,12.40625 C5.703125,12.203125 5.359375,12.09375 5.09375,12.09375 C4.703125,12.09375 4.671875,12.4375 5.015625,12.84375 L4.65625,13.171875 C4.390625,12.890625 4.078125,12.5 4.078125,11.953125 C4.078125,11.5 4.421875,11.28125 4.96875,11.28125 C5.203125,11.28125 5.609375,11.34375 6.109375,11.515625 C6.59375,11.703125 7.1875,11.984375 7.8125,12.453125 C7.859375,12.21875 7.921875,11.75 7.96875,11.21875 C8.015625,10.6875 8.046875,10.109375 8.046875,9.640625 C7.484375,9.46875 6.78125,9.203125 5.984375,8.828125 C5.1875,8.453125 4.296875,7.953125 3.390625,7.34375 C2.0625,6.453125 1.953125,5.640625 2.640625,4.875 C2.796875,4.71875 2.953125,4.515625 3.15625,4.296875 L3.75,3.59375 C4.171875,3.09375 4.625,2.578125 5.046875,2.203125 C5.5,1.796875 6.046875,1.890625 6.671875,2.3125 C7.046875,2.5625 7.484375,3.015625 7.859375,3.515625 C8.234375,4.015625 8.5625,4.546875 8.703125,4.96875 C9.171875,6.1875 9.3125,7.515625 9.34375,9.171875 C10.015625,9.40625 10.953125,9.671875 11.859375,9.90625 C12.78125,10.125 13.6875,10.296875 14.359375,10.390625 C14.421875,8.234375 14.46875,6.03125 14.421875,4.015625 C14.375,2 14.1875,0.140625 13.765625,-1.34375 L14.3125,-1.484375 C15.109375,0.0625 15.484375,1.90625 15.640625,3.96875 C15.78125,6.015625 15.71875,8.234375 15.625,10.515625 C16.3125,10.578125 17.0625,10.59375 17.75,10.59375 C18.453125,10.578125 19.046875,10.546875 19.421875,10.53125 C20.03125,10.5 20.5,10.578125 20.78125,10.796875 C21.0625,11 21.140625,11.328125 20.953125,11.84375 C20.8125,12.21875 20.546875,12.734375 20.234375,13.296875 C19.90625,13.84375 19.546875,14.421875 19.21875,14.9375 C18.921875,15.390625 18.484375,15.984375 18.03125,16.5625 C17.59375,17.140625 17.140625,17.6875 16.8125,18.03125 C16.609375,18.25 16.328125,18.34375 16.0625,18.375 C15.78125,18.40625 15.5,18.359375 15.3125,18.265625 Z M16.328125,17.515625 C16.640625,17.234375 17.109375,16.671875 17.578125,16.0625 C18.03125,15.46875 18.46875,14.859375 18.671875,14.515625 C19.078125,13.8125 19.46875,13.078125 19.703125,12.359375 C19.78125,12.125 19.828125,11.9375 19.765625,11.796875 C19.6875,11.65625 19.484375,11.5625 19.109375,11.546875 C18.859375,11.53125 18.59375,11.515625 18.28125,11.5 C17.96875,11.484375 17.65625,11.46875 17.34375,11.453125 C16.71875,11.40625 16.078125,11.359375 15.625,11.3125 C15.578125,12.15625 15.546875,13.09375 15.53125,14.046875 C15.515625,15.015625 15.5,15.96875 15.5,16.875 C15.5,17.6875 15.875,17.9375 16.328125,17.515625 Z M8.046875,8.609375 C8.046875,8.0625 8.03125,7.484375 7.984375,6.921875 C7.921875,6.359375 7.828125,5.8125 7.71875,5.375 C7.625,4.96875 7.375,4.53125 7.09375,4.109375 C6.8125,3.703125 6.5,3.359375 6.265625,3.171875 C5.859375,2.84375 5.609375,2.796875 5.203125,3.125 C4.90625,3.359375 4.59375,3.65625 4.3125,3.953125 C4.03125,4.25 3.78125,4.546875 3.640625,4.78125 C3.3125,5.328125 3.453125,5.796875 4.296875,6.453125 C5.234375,7.203125 6.53125,8.046875 8.046875,8.609375 Z" transform="translate(0.453125, 18.40625) scale(1, -1)"/>
</svg>