<svg height="24" viewBox="0 0 24 24" width="24" xmlns="http://www.w3.org/2000/svg">
<path d="M4.65625,16.375 C4.875,15.484375 5.234375,14.84375 5.640625,14.375 C6.140625,13.8125 6.546875,13.640625 7.015625,13.671875 C7.515625,13.71875 8,14 8.65625,14.453125 C10.546875,15.78125 12.3125,16.609375 13.828125,16.65625 C14.5,16.671875 15.125,16.390625 15.546875,15.828125 C15.96875,15.265625 16.203125,14.421875 16.203125,13.296875 C16.15625,11.90625 15.78125,10.53125 14.953125,9.453125 C14.140625,8.375 12.875,7.609375 11.140625,7.421875 C11.1875,7.828125 11.171875,8.203125 11.09375,8.515625 C11.046875,8.75 10.875,8.84375 10.6875,8.890625 C10.5,8.921875 10.28125,8.84375 10.125,8.6875 C9.8125,8.375 9.40625,8.0625 9.125,7.828125 C8.703125,7.484375 8.796875,7.3125 9.03125,7.03125 C9.203125,6.828125 9.453125,6.75 9.890625,6.671875 C9.8125,5.640625 9.53125,4.5625 9.125,3.625 L8.9375,3.1875 C8.890625,3.03125 8.8125,2.890625 8.734375,2.703125 C8.546875,2.28125 8.515625,1.953125 8.765625,1.609375 C8.953125,1.34375 9.21875,1.15625 9.6875,0.9375 C10.625,0.515625 11.8125,0.359375 12.984375,0.359375 C14.453125,0.359375 15.359375,0.40625 16.015625,0.578125 C16.515625,0.703125 16.71875,1.03125 16.71875,1.375 C16.71875,1.9375 15.921875,2.15625 14.703125,1.921875 C13.921875,1.765625 13.078125,1.703125 12.265625,1.71875 C11.46875,1.75 10.671875,1.859375 10.0625,2.0625 C9.625,2.203125 9.53125,2.546875 9.671875,2.859375 C10.28125,4.1875 10.84375,5.46875 11.0625,6.6875 C13,6.828125 14.703125,7.578125 15.921875,8.734375 C17.140625,9.875 17.84375,11.4375 17.890625,13.21875 C17.890625,14.71875 17.46875,15.78125 16.765625,16.4375 C16.0625,17.09375 15.125,17.40625 14.140625,17.40625 C13.0625,17.40625 11.984375,17.1875 10.921875,16.859375 C9.84375,16.53125 8.796875,16.078125 7.828125,15.578125 C7.171875,15.234375 6.671875,15.171875 6.234375,15.5 C5.8125,15.84375 5.5,16.171875 5.203125,16.71875 Z" transform="translate(0.7265625, 17.40625) scale(1, -1)"/>
</svg>