<svg height="21.265625" viewBox="0 0 24 21.265625" width="24" xmlns="http://www.w3.org/2000/svg">
<path d="M12.875,19.484375 C12.265625,19.15625 11.5625,18.921875 10.671875,18.734375 C9.359375,18.46875 8.5625,18.546875 8.0625,18.921875 L7.78125,18.578125 C8.359375,17.78125 9.296875,17.46875 10.859375,17.703125 C10.53125,17.234375 10.21875,16.65625 9.921875,16.015625 C9.640625,15.390625 9.359375,14.703125 9.09375,14.046875 L8.46875,13.796875 C8.046875,13.640625 7.65625,13.484375 7.34375,13.390625 L6.984375,13.25 C6.5,13.015625 6.3125,13.125 6.1875,13.421875 C6.09375,13.65625 6.046875,13.90625 6.046875,14.203125 L5.640625,14.203125 C5.46875,13.84375 5.375,13.296875 5.375,12.796875 C5.375,12.5625 5.46875,12.234375 5.609375,11.953125 C5.75,11.671875 5.953125,11.453125 6.1875,11.453125 C6.3125,11.453125 6.421875,11.46875 6.515625,11.515625 C6.703125,11.609375 6.875,11.78125 7,11.921875 C7.0625,11.984375 7.125,12.0625 7.203125,12.125 C7.859375,12.671875 8.515625,13 8.9375,13.125 C8.84375,12.6875 8.8125,12.140625 8.796875,11.625 C8.796875,11.09375 8.796875,10.609375 8.84375,10.25 C8.890625,9.453125 9.265625,9.03125 9.640625,9.03125 C9.75,9.03125 9.875,9.0625 10.015625,9.140625 C10.15625,9.21875 10.3125,9.40625 10.484375,9.71875 C10.6875,10.09375 10.90625,10.53125 11.09375,10.953125 C11.28125,11.359375 11.4375,11.75 11.515625,12.078125 L11.15625,12.34375 C10.921875,11.90625 10.578125,11.359375 10.296875,11.015625 C10.140625,10.8125 10.046875,10.71875 9.984375,10.734375 C9.921875,10.75 9.90625,10.859375 9.890625,11.046875 C9.859375,11.421875 9.859375,11.875 9.875,12.3125 C9.875,12.734375 9.921875,13.1875 9.96875,13.515625 C11.046875,13.921875 12.296875,14.28125 13.421875,14.5 C13.375,13.796875 13.328125,13.34375 13.25,12.9375 C12.96875,11.46875 12.296875,10.03125 11.3125,8.90625 C11.140625,8.828125 10.6875,8.671875 10.125,8.515625 C9.546875,8.375 8.859375,8.1875 8.203125,8.046875 C7.546875,7.90625 6.921875,7.796875 6.5,7.78125 C6.09375,7.765625 5.78125,7.90625 5.515625,8.09375 C5.265625,8.28125 5.078125,8.546875 4.953125,8.796875 L4.46875,8.515625 C4.484375,8.375 4.515625,8.21875 4.5625,8.046875 C4.640625,7.703125 5,7.171875 5.3125,6.8125 C5.625,6.4375 6.140625,6.171875 7.125,6.421875 C7.609375,6.546875 8.234375,6.78125 9.03125,7.171875 C9.828125,7.5625 10.875,7.984375 11.96875,8.375 C13.046875,8.75 14.1875,9.09375 15.171875,9.359375 C13.90625,8.5625 12.828125,7.84375 11.765625,7.09375 C10.6875,6.34375 9.640625,5.5625 8.421875,4.65625 C7.90625,4.921875 7.4375,4.953125 6.734375,4.921875 L6.4375,4.390625 C6.796875,4.390625 7.046875,4.296875 7.203125,4.203125 C7.375,4.109375 7.4375,3.96875 7.46875,3.890625 C6.796875,3.390625 5.90625,2.734375 5.046875,2.09375 C4.609375,1.78125 4.1875,1.484375 3.796875,1.1875 C3.40625,0.890625 3.078125,0.65625 2.8125,0.453125 C2.6875,0.78125 2.703125,1.109375 2.734375,1.390625 L2.359375,1.515625 C2.3125,1.015625 2.125,0.453125 1.765625,0.09375 C1.484375,-0.171875 1.34375,-0.46875 1.421875,-0.6875 C1.546875,-1.0625 1.765625,-1.1875 2.1875,-1.109375 C2.375,-1.0625 2.75,-0.890625 3.21875,-0.578125 C3.671875,-0.265625 4.234375,0.171875 4.8125,0.6875 C5.046875,0.921875 5.296875,1.140625 5.5625,1.375 C6.125,1.828125 6.640625,2.265625 7.0625,2.609375 L7.515625,2.984375 C7.53125,2.609375 7.53125,2.28125 7.53125,2 C7.546875,1.71875 7.546875,1.453125 7.5625,1.21875 C7.5625,0.734375 7.578125,0.34375 7.625,-0.046875 C7.671875,-0.34375 7.78125,-0.640625 7.9375,-0.859375 C8.078125,-1.078125 8.28125,-1.21875 8.5,-1.21875 C8.953125,-1.21875 9.1875,-0.875 9.3125,-0.40625 C9.453125,0.046875 9.765625,0.5 10.125,1.03125 C10.515625,1.578125 10.96875,2.203125 11.453125,2.765625 L11.140625,3.171875 C10.84375,2.84375 10.4375,2.453125 10.015625,2.078125 C9.59375,1.703125 9.15625,1.34375 8.8125,1.078125 C8.796875,1.21875 8.78125,1.390625 8.765625,1.609375 C8.75,2.015625 8.734375,2.515625 8.734375,3.03125 C8.71875,3.3125 8.71875,3.5625 8.703125,3.828125 C9.828125,4.75 11,5.609375 12.09375,6.359375 C13.171875,7.09375 14.1875,7.71875 14.984375,8.140625 C15.484375,8.40625 16.234375,8.65625 16.859375,8.84375 C17.359375,8.984375 17.65625,9.359375 17.5625,9.734375 C17.46875,10.125 16.921875,10.375 16.390625,10.375 C15.6875,10.375 14.8125,10.109375 13.78125,9.6875 C13.5625,9.609375 13.328125,9.5 13.0625,9.40625 C12.796875,9.296875 12.5,9.171875 12.140625,9.078125 C12.84375,9.734375 13.5625,10.65625 14.015625,11.6875 C15.53125,12.140625 16.8125,12.71875 17.84375,13.609375 C18.203125,13.921875 18.359375,14.28125 18.359375,14.515625 C18.359375,14.859375 18.171875,15.125 17.84375,15.3125 C17.53125,15.5 17.109375,15.59375 16.65625,15.59375 C16.109375,15.59375 15.453125,15.53125 14.65625,15.390625 C14.703125,15.921875 14.65625,16.125 14.609375,16.328125 C14.515625,16.75 14.28125,16.890625 13.8125,17 C13.4375,17.078125 13.125,17.0625 12.59375,16.96875 L12.484375,16.46875 C12.96875,16.5 13.21875,16.296875 13.328125,15.984375 C13.375,15.859375 13.40625,15.578125 13.4375,15.171875 C12.171875,14.890625 11,14.5625 10.15625,14.28125 C10.5625,15.703125 11.21875,16.8125 11.8125,17.375 C12.203125,17.75 12.875,18.125 13.859375,18.40625 C14.171875,18.5 14.375,18.59375 14.5,18.78125 C14.625,18.953125 14.703125,19.125 14.46875,19.46875 C14.34375,19.640625 14.1875,19.765625 13.921875,19.796875 C13.671875,19.828125 13.328125,19.734375 12.875,19.484375 Z M15.78125,14.8125 C16.5625,14.8125 16.640625,14.40625 16.296875,13.875 C15.9375,13.328125 15.140625,12.6875 14.15625,12.3125 C14.421875,12.921875 14.53125,13.609375 14.609375,14.6875 C15.125,14.765625 15.5,14.8125 15.78125,14.8125 Z M13.4375,4.25 C13.71875,4.8125 14.203125,5.0625 14.6875,5.3125 C14.890625,5.40625 15.03125,5.1875 15.078125,4.8125 C15.125,4.4375 15.109375,3.890625 15.03125,3.3125 C14.984375,3.03125 14.96875,2.75 14.953125,2.46875 C14.9375,1.9375 14.984375,1.25 15.484375,1.015625 C15.984375,0.78125 16.59375,1 17.015625,1.109375 L17.640625,1.25 C18.046875,1.328125 18.453125,1.390625 18.796875,1.390625 C19.5625,1.390625 19.53125,0.96875 18.5,0.5 C18.078125,0.3125 17.375,0.078125 16.53125,-0.1875 C15.671875,-0.453125 14.640625,-0.71875 13.515625,-0.921875 L13.8125,-1.4375 C16.25,-1.109375 18.09375,-0.671875 19.65625,-0.09375 C20.640625,0.265625 21.296875,0.671875 21.296875,1.28125 C21.296875,1.625 21.125,1.84375 20.796875,1.96875 C20.46875,2.09375 19.96875,2.15625 19.28125,2.15625 C18.609375,2.15625 17.703125,2.09375 17,2 C16.71875,1.953125 16.53125,1.96875 16.4375,2.046875 C16.34375,2.140625 16.3125,2.265625 16.296875,2.453125 C16.296875,2.609375 16.296875,2.796875 16.328125,3 L16.390625,3.6875 C16.4375,4.203125 16.5,4.75 16.421875,5.234375 C16.296875,5.984375 15.9375,6.265625 15.453125,6.296875 C15.171875,6.3125 14.828125,6.15625 14.421875,5.890625 C14.03125,5.609375 13.578125,5.234375 13.15625,4.8125 Z" transform="translate(0.6796875, 19.828125) scale(1, -1)"/>
</svg>