<svg height="20.453125" viewBox="0 0 24 20.453125" width="24" xmlns="http://www.w3.org/2000/svg">
<path d="M5.359375,18.921875 C5.59375,18.78125 5.828125,18.59375 6.078125,18.265625 C6.390625,17.859375 6.578125,17.46875 6.71875,16.875 C6.84375,16.34375 6.921875,15.078125 6.828125,13.5625 L6.6875,11.421875 C6.265625,11.46875 5.890625,11.5625 5.3125,11.796875 C4.984375,11.921875 4.765625,12.046875 4.578125,12.21875 C4.375,12.40625 4.203125,12.59375 4.015625,12.828125 L3.625,12.234375 C3.875,11.8125 4.109375,11.453125 4.65625,10.96875 C5,10.671875 5.28125,10.4375 5.609375,10.296875 C5.921875,10.140625 6.234375,10.03125 6.640625,9.984375 C6.5625,8.140625 6.609375,6.234375 6.6875,4.4375 C6.703125,3.96875 6.765625,3.234375 6.84375,2.515625 C6.921875,1.78125 7.015625,1.046875 7.15625,0.578125 C7.28125,0.09375 7.421875,-0.234375 7.609375,-0.53125 C7.828125,-0.875 8.109375,-1.109375 8.453125,-1.109375 C8.53125,-1.109375 8.609375,-1.0625 8.6875,-1.015625 C8.8125,-0.875 8.890625,-0.65625 8.890625,-0.375 C8.890625,-0.234375 8.859375,-0.078125 8.8125,0.078125 C8.46875,1.203125 8.140625,2.875 7.953125,5 C7.890625,5.640625 7.84375,6.453125 7.8125,7.3125 C7.765625,8.1875 7.765625,9.109375 7.765625,10.015625 C8.46875,10.15625 9.390625,10.53125 10.203125,11.046875 C10.484375,11.21875 10.859375,11.4375 11.28125,11.671875 L12.546875,12.359375 C13.265625,12.734375 13.859375,13 14.40625,13.15625 C14.953125,13.296875 15.453125,13.375 16.0625,13.375 C16.90625,13.375 17.640625,13.203125 18.4375,12.671875 C19.421875,12 19.78125,10.96875 19.78125,9.59375 C19.78125,8.609375 19.671875,7.6875 19.34375,6.78125 C19.015625,5.890625 18.46875,4.984375 17.640625,4.03125 C16.953125,3.234375 16.296875,2.578125 15.546875,2 C14.796875,1.4375 13.984375,0.921875 12.984375,0.453125 L13.484375,-0.140625 C14.46875,0.296875 15.359375,0.734375 16.203125,1.296875 C17.0625,1.859375 17.90625,2.53125 18.796875,3.453125 C19.65625,4.34375 20.328125,5.265625 20.765625,6.265625 C21.21875,7.25 21.4375,8.34375 21.4375,9.59375 C21.4375,10.40625 21.21875,11.125 20.890625,11.734375 C20.5625,12.328125 20.09375,12.828125 19.578125,13.203125 C18.59375,13.953125 17.46875,14.203125 16.0625,14.203125 C14.640625,14.203125 13.296875,13.78125 12.078125,13.21875 C10.515625,12.5 9.21875,11.90625 8.5625,11.65625 C8.328125,11.578125 8.078125,11.5 7.8125,11.453125 C7.828125,11.84375 7.859375,12.25 7.90625,12.640625 C8,13.40625 8.09375,14.09375 8.1875,14.65625 L8.28125,15.34375 C8.46875,16.765625 8.1875,17.59375 7.65625,18.125 C7.421875,18.359375 7.109375,18.59375 6.78125,18.828125 C6.453125,19.046875 6.109375,19.25 5.796875,19.34375 Z" transform="translate(-0.53125, 19.34375) scale(1, -1)"/>
</svg>