<svg height="21.6875" viewBox="0 0 24 21.6875" width="24" xmlns="http://www.w3.org/2000/svg">
<path d="M9.5,19.375 C10.15625,19.15625 10.5625,18.90625 10.796875,18.5625 C11.03125,18.21875 11.078125,17.796875 11.0625,17.1875 L11.015625,15.4375 C10.234375,15.390625 9.59375,15.40625 9.046875,15.546875 C8.484375,15.6875 8,15.921875 7.53125,16.296875 L7.15625,15.796875 C8.09375,14.859375 9.3125,14.34375 11.015625,14.421875 L11.015625,13.109375 C10.515625,13.015625 9.96875,12.78125 9.40625,12.453125 C8.84375,12.125 8.25,11.703125 7.71875,11.234375 L8.109375,10.671875 C9.28125,11.46875 10.125,11.84375 10.96875,12.03125 L10.96875,11.015625 C10.625,10.53125 10.140625,9.921875 9.609375,9.328125 C9.078125,8.71875 8.5,8.140625 7.953125,7.671875 C7.75,7.828125 7.578125,7.96875 7.390625,8.09375 L6.875,8.5 C6.484375,8.796875 6.078125,9.109375 5.453125,9.09375 C4.953125,9.0625 4.421875,8.828125 3.9375,8.234375 C3.0625,7.109375 2.546875,5.8125 2.546875,3.9375 C2.546875,3.140625 2.75,2.53125 3.046875,2.140625 C3.34375,1.765625 3.734375,1.5625 4.109375,1.5625 C5,1.5625 5.640625,1.96875 6.21875,2.453125 C7.578125,3.578125 8.546875,4.6875 9.4375,5.765625 C9.921875,5.421875 10.390625,5.125 10.875,4.859375 L10.828125,2.796875 C10.8125,2.359375 10.828125,2.046875 10.96875,1.8125 C11.1875,1.4375 11.375,1.21875 11.59375,1.21875 C11.75,1.21875 11.859375,1.3125 11.953125,1.484375 C12.125,1.84375 12.171875,2.21875 12.140625,2.609375 C12.125,2.796875 12.125,2.984375 12.125,3.1875 L12.125,4.25 C12.59375,4.09375 13.015625,4.015625 13.421875,4.015625 C14.03125,4.015625 14.640625,4.203125 15.109375,4.578125 C15.5625,4.96875 15.875,5.5625 15.875,6.359375 C15.875,7.015625 15.703125,7.515625 15.3125,7.859375 C14.9375,8.1875 14.296875,8.359375 13.390625,8.359375 C12.96875,8.359375 12.53125,8.3125 12.046875,8.234375 C12.015625,8.984375 12,9.921875 12,10.953125 C12.4375,11.5 12.6875,11.953125 12.6875,12.1875 C12.6875,12.6875 12.4375,13 12,13.125 L12.046875,14.515625 C12.890625,14.609375 13.65625,14.796875 14.203125,15.046875 C14.640625,15.234375 14.984375,15.53125 15.078125,15.671875 C15.25,16.015625 15.140625,16.328125 14.859375,16.46875 C14.515625,16.640625 14.0625,16.578125 13.5625,16.21875 C13.140625,15.921875 12.65625,15.734375 12.125,15.59375 L12.1875,16.296875 C12.203125,16.515625 12.234375,16.71875 12.265625,16.953125 C12.3125,17.125 12.328125,17.265625 12.34375,17.390625 C12.359375,17.515625 12.375,17.65625 12.40625,17.8125 C12.59375,18.609375 12.484375,19.03125 11.890625,19.34375 C11.328125,19.625 10.578125,19.859375 9.828125,19.90625 Z M16.34375,9.125 C17.375,9.875 18.09375,10.390625 18.890625,10.53125 C19.4375,10.640625 19.6875,10.53125 19.625,9.796875 C19.578125,9.28125 19.46875,8.71875 19.328125,8.203125 C19.171875,7.6875 19,7.21875 18.84375,6.890625 C18.734375,6.65625 18.640625,6.4375 18.640625,6.25 C18.640625,6.046875 18.703125,5.859375 18.9375,5.6875 C19.78125,5.0625 20.0625,4.421875 20.0625,3.484375 C20.0625,2.65625 19.390625,1.765625 18.125,0.96875 C16.859375,0.15625 14.96875,-0.59375 12.53125,-1.125 L12.9375,-1.78125 C15.765625,-1.21875 17.953125,-0.484375 19.421875,0.40625 C20.890625,1.28125 21.640625,2.25 21.640625,3.3125 C21.640625,3.890625 21.546875,4.328125 21.234375,4.734375 C20.9375,5.140625 20.421875,5.515625 19.671875,5.984375 C19.390625,6.15625 19.4375,6.40625 19.671875,6.828125 C20.015625,7.390625 20.28125,7.84375 20.46875,8.328125 C20.671875,8.796875 20.84375,9.296875 20.984375,9.96875 C21.171875,10.953125 20.734375,11.59375 19.46875,11.59375 C18.890625,11.59375 18.234375,11.359375 17.625,10.984375 C17,10.609375 16.390625,10.109375 15.921875,9.59375 Z M10.953125,9.71875 C10.953125,9.46875 10.953125,9.203125 10.9375,8.890625 C10.921875,8.578125 10.921875,8.28125 10.921875,8 C9.984375,7.765625 9.078125,7.4375 8.234375,7.125 C8.703125,7.546875 9.21875,8.015625 9.6875,8.46875 C10.140625,8.9375 10.578125,9.359375 10.953125,9.71875 Z M5.640625,8.265625 C5.9375,8.265625 6.40625,8.140625 6.734375,7.828125 C6.84375,7.71875 6.96875,7.625 7.109375,7.53125 L7.484375,7.21875 C7.296875,6.890625 7.359375,6.453125 7.484375,6.125 C7.53125,5.984375 7.65625,5.9375 7.796875,5.9375 C7.9375,5.9375 8.078125,5.984375 8.203125,6.046875 C8.3125,6.109375 8.40625,6.171875 8.484375,6.203125 C8.5625,6.234375 8.625,6.265625 8.6875,6.296875 L8.984375,6.078125 C8.421875,5.515625 7.90625,5 7.34375,4.53125 C6.765625,4.046875 6.140625,3.59375 5.40625,3.21875 C4.328125,2.640625 3.828125,3 3.796875,4.03125 C3.765625,4.796875 3.828125,5.421875 3.96875,5.984375 C4.109375,6.53125 4.3125,7.015625 4.625,7.484375 C5.015625,8.09375 5.28125,8.265625 5.640625,8.265625 Z M13.21875,7.609375 C13.96875,7.609375 14.46875,7.140625 14.46875,6.390625 C14.46875,5.5 13.953125,4.953125 13.203125,4.953125 C12.8125,4.953125 12.453125,5 12.09375,5.140625 L12.046875,7.4375 C12.484375,7.53125 12.90625,7.609375 13.21875,7.609375 Z M10.875,5.6875 C10.390625,5.953125 9.890625,6.265625 9.40625,6.59375 C9.515625,6.640625 9.640625,6.6875 9.78125,6.734375 C9.921875,6.78125 10.0625,6.828125 10.203125,6.875 L10.59375,7.015625 C10.71875,7.0625 10.828125,7.09375 10.921875,7.125 Z" transform="translate(-0.09375, 19.90625) scale(1, -1)"/>
</svg>