<svg height="20.234375" viewBox="0 0 24 20.234375" width="24" xmlns="http://www.w3.org/2000/svg">
<path d="M10.125,18.890625 C10.734375,18.78125 11.09375,18.671875 11.296875,18.4375 C11.5,18.203125 11.5625,17.859375 11.59375,17.28125 C11.640625,16.390625 11.640625,15.71875 11.640625,15.140625 C11.265625,14.953125 10.875,14.765625 10.515625,14.609375 C10.140625,14.4375 9.8125,14.28125 9.578125,14.234375 C9.03125,14.078125 8.9375,14.28125 8.90625,14.609375 C8.875,14.90625 8.875,15.4375 8.953125,15.84375 L8.515625,16.0625 C8.328125,15.78125 8.15625,15.4375 8.046875,15.078125 C7.921875,14.703125 7.84375,14.34375 7.828125,14.0625 C7.796875,13.734375 7.890625,13.359375 8.046875,13.078125 C8.21875,12.796875 8.453125,12.59375 8.765625,12.59375 C8.96875,12.59375 9.140625,12.609375 9.34375,12.6875 C9.546875,12.78125 9.78125,12.921875 10.109375,13.203125 C10.703125,13.703125 11.140625,14.046875 11.609375,14.40625 C11.609375,14.15625 11.609375,13.90625 11.609375,13.65625 C11.59375,13.40625 11.59375,13.140625 11.59375,12.84375 C11.140625,12.46875 10.421875,11.890625 9.703125,11.34375 C8.984375,10.796875 8.265625,10.265625 7.828125,9.984375 C7.5625,9.8125 7.34375,9.65625 7.15625,9.53125 C6.828125,9.265625 6.640625,9.03125 6.640625,8.75 C6.640625,8.484375 6.734375,8.078125 7.078125,7.9375 C7.4375,7.78125 7.9375,7.90625 8.578125,8.046875 C9.21875,8.1875 9.921875,8.375 10.59375,8.5625 C10.9375,8.65625 11.25,8.75 11.5625,8.84375 L11.5625,8.359375 C11.5625,7.703125 11.828125,7.578125 12.296875,7.515625 C12.53125,7.484375 12.59375,7.296875 12.59375,6.984375 C12.59375,6.671875 12.59375,6.140625 12.5,5.703125 C12.46875,5.5625 12.59375,5.421875 12.78125,5.296875 C12.96875,5.1875 13.25,5.09375 13.515625,5.140625 C14.015625,5.21875 14.640625,5.328125 15.125,5.28125 C15.4375,5.25 15.6875,5.015625 15.6875,4.828125 C15.6875,4.625 15.453125,4.328125 15.03125,4.109375 C14.3125,3.734375 13.5625,3.59375 12.84375,3.59375 C12.390625,3.59375 11.859375,3.640625 11.3125,3.734375 C10.75,3.828125 10.171875,3.984375 9.6875,4.21875 L9.453125,3.578125 C9.796875,3.296875 10.375,3.046875 10.984375,2.890625 C11.59375,2.71875 12.265625,2.609375 12.828125,2.609375 C13.484375,2.609375 14.234375,2.703125 14.90625,2.84375 C15.5625,2.984375 16.140625,3.1875 16.515625,3.453125 C17.046875,3.828125 17.40625,4.265625 17.40625,4.71875 C17.40625,5.140625 17.1875,5.46875 16.765625,5.6875 C16.53125,5.8125 16.109375,5.875 15.6875,5.90625 C15.25,5.9375 14.765625,5.921875 14.375,5.90625 C13.90625,5.875 13.765625,5.984375 13.859375,6.265625 C13.9375,6.59375 14.015625,7.03125 14.015625,7.28125 C14.015625,7.703125 13.921875,8.015625 13.421875,8.109375 C12.875,8.21875 12.671875,8.328125 12.671875,8.609375 L12.671875,9.171875 C12.96875,9.265625 13.3125,9.375 13.6875,9.5 C14.046875,9.625 14.421875,9.75 14.796875,9.875 C15.515625,10.140625 16.203125,10.40625 16.625,10.65625 C17.1875,10.96875 17.515625,11.3125 17.609375,11.609375 C17.703125,11.921875 17.546875,12.171875 17.15625,12.359375 C16.625,12.609375 16.0625,13.078125 15.640625,13.53125 L15.234375,13.203125 C15.328125,13.015625 15.453125,12.84375 15.59375,12.671875 C15.640625,12.59375 15.71875,12.5 15.78125,12.421875 L15.921875,12.234375 C16.203125,11.90625 16.1875,11.71875 15.78125,11.46875 C15.5,11.296875 14.984375,11.078125 14.421875,10.875 C13.859375,10.671875 13.21875,10.484375 12.6875,10.375 L12.6875,10.890625 C12.6875,11.09375 12.6875,11.3125 12.703125,11.53125 C12.703125,11.984375 12.734375,12.453125 12.734375,12.875 C13.671875,13.515625 14.515625,14 15.59375,14.59375 C16.34375,15 16.671875,15.4375 16.671875,16.015625 C16.671875,16.296875 16.609375,16.5625 16.296875,16.8125 C15.96875,17.046875 15.40625,17.3125 14.421875,17.59375 L14.109375,17.109375 C14.640625,16.921875 14.953125,16.765625 14.953125,16.25 C14.953125,15.921875 14.859375,15.625 14.421875,15.1875 C14.109375,14.875 13.578125,14.375 12.78125,13.8125 C12.796875,14.75 12.828125,15.515625 12.875,16.09375 C12.90625,16.671875 12.921875,17.0625 12.96875,17.28125 C13.0625,18.171875 12.984375,18.71875 12.578125,18.984375 C12.078125,19.3125 11.28125,19.453125 10.34375,19.421875 Z M11.59375,10.03125 C11.3125,9.9375 10.8125,9.8125 10.234375,9.6875 C9.65625,9.578125 9.03125,9.453125 8.5,9.390625 L8.359375,9.5 C8.78125,9.828125 9.40625,10.28125 10.015625,10.75 C10.625,11.203125 11.21875,11.65625 11.59375,11.984375 Z M5.984375,5.109375 C4.8125,4.703125 4.28125,4.015625 4.28125,3.21875 C4.28125,1.953125 5.1875,0.96875 6.640625,0.265625 C8.109375,-0.4375 10.0625,-0.78125 12.3125,-0.78125 C13.359375,-0.78125 14.515625,-0.734375 15.59375,-0.640625 C16.65625,-0.546875 17.65625,-0.40625 18.40625,-0.21875 C19.03125,-0.0625 19.390625,0.234375 19.390625,0.5 C19.390625,0.75 19.234375,0.96875 19.03125,1.109375 C18.828125,1.25 18.578125,1.34375 18.390625,1.375 C18.03125,1.421875 17.703125,1.359375 17.0625,1.125 C16.640625,0.96875 15.875,0.828125 14.96875,0.734375 C14.0625,0.640625 13.03125,0.578125 12.09375,0.578125 C10,0.578125 8.375,0.921875 7.203125,1.46875 C6.03125,2.015625 5.40625,2.65625 5.40625,3.359375 C5.40625,3.984375 5.6875,4.34375 6.1875,4.53125 Z" transform="translate(0.1640625, 19.453125) scale(1, -1)"/>
</svg>