<svg height="19.421875" viewBox="0 0 24 19.421875" width="24" xmlns="http://www.w3.org/2000/svg">
<path d="M6.875,18.1875 C6.5,18.296875 5.8125,18.453125 5.203125,18.484375 L4.953125,17.984375 C5.84375,17.734375 6.3125,17.46875 6.265625,16.953125 C6.265625,16.765625 6.171875,16.390625 6.078125,15.96875 C5.96875,15.53125 5.828125,15.046875 5.6875,14.65625 C5.46875,14.640625 5.234375,14.625 5,14.625 C4.78125,14.625 4.484375,14.640625 4.109375,14.65625 C3.453125,14.703125 2.9375,14.875 2.5625,15.140625 L2.3125,14.6875 C2.671875,14.1875 3.171875,13.9375 3.6875,13.765625 C4.21875,13.578125 4.625,13.484375 5.3125,13.484375 C5.1875,13.125 5.078125,12.8125 5,12.515625 C4.90625,12.21875 4.828125,12 4.765625,11.84375 C4.46875,11.1875 4.421875,10.625 4.828125,10.484375 C5.1875,10.359375 5.390625,10.203125 5.515625,10.078125 C5.765625,9.84375 5.75,9.390625 5.5625,8.734375 C5.34375,7.90625 4.96875,6.765625 4.578125,5.703125 C4.203125,4.625 3.796875,3.640625 3.546875,3.140625 C3.078125,2.15625 2.734375,1.421875 2.734375,0.9375 C2.734375,0.71875 2.9375,0.5 3.3125,0.265625 C3.640625,0.078125 3.875,0.046875 4.25,0.484375 C4.625,0.921875 5.15625,1.578125 5.859375,2.796875 C6.75,4.34375 7.484375,5.46875 8.1875,6.40625 C8.890625,7.34375 9.5625,8.109375 10.34375,9 C10.109375,8.03125 9.953125,6.984375 9.859375,6.015625 C9.75,5.03125 9.703125,4.125 9.734375,3.453125 C9.828125,1.765625 10.578125,0.8125 11.609375,0.84375 C12.453125,0.875 13.421875,1.265625 14.359375,2.015625 C14.734375,2.3125 15.125,2.6875 15.5,3.0625 C15.875,3.421875 16.203125,3.78125 16.46875,4.109375 C16.90625,3.3125 17.34375,2.65625 17.78125,2.078125 C18.640625,0.921875 19.65625,-0.109375 20.328125,-0.40625 C20.671875,-0.5625 20.921875,-0.640625 21.09375,-0.625 C21.546875,-0.59375 21.84375,-0.40625 21.9375,0.046875 C21.984375,0.296875 21.921875,0.640625 21.640625,0.828125 C21.453125,0.96875 21.28125,1.28125 21.0625,1.90625 C20.828125,2.515625 20.5625,3.453125 20.1875,4.8125 L19.609375,4.671875 C19.75,4.109375 19.875,3.453125 20,2.84375 C20.109375,2.234375 20.21875,1.625 20.3125,1.203125 C19.78125,1.671875 19.25,2.265625 18.734375,2.921875 C18.21875,3.578125 17.734375,4.296875 17.3125,5 C17.546875,5.234375 17.90625,5.6875 18.25,6.125 C18.578125,6.578125 18.90625,7.015625 19.0625,7.296875 C19.328125,7.765625 19.375,8.25 18.9375,8.65625 C18.6875,8.890625 18.125,9.1875 17.546875,9.359375 L17.234375,8.9375 C17.828125,8.6875 18.015625,8.40625 17.796875,7.921875 C17.5,7.265625 17.015625,6.59375 16.703125,6.171875 C15.8125,7.71875 14.90625,9.96875 14.15625,12.6875 C14.578125,13.15625 15.03125,13.578125 15.515625,13.921875 C16,14.265625 16.453125,14.609375 16.875,14.9375 C17.171875,15.171875 17.328125,15.453125 17.328125,15.71875 C17.3125,15.96875 17.140625,16.203125 16.859375,16.296875 C15.828125,16.671875 14.640625,17.390625 13.609375,18.34375 C13.234375,18.6875 12.8125,18.78125 12.5,18.65625 C12.171875,18.515625 11.9375,18.140625 11.984375,17.5625 C12.0625,15.921875 12.453125,14.296875 12.921875,12.546875 C11.59375,11.328125 10.375,10.125 9.53125,9.140625 C7.40625,6.671875 5.46875,4.265625 4.0625,2.265625 C4.25,2.671875 4.484375,3.140625 4.71875,3.671875 C4.96875,4.203125 5.234375,4.734375 5.484375,5.296875 C6,6.421875 6.484375,7.578125 6.796875,8.546875 C6.984375,9.140625 7.03125,9.78125 6.9375,10.15625 C6.78125,10.71875 6.453125,10.9375 5.84375,11.015625 C5.75,11.03125 5.703125,11.046875 5.65625,11.078125 C5.59375,11.125 5.578125,11.234375 5.640625,11.4375 L5.734375,11.8125 C5.796875,12.015625 5.890625,12.265625 6.03125,12.59375 C6.15625,12.90625 6.28125,13.21875 6.40625,13.5625 C6.828125,13.640625 7.28125,13.765625 7.71875,13.921875 C8.140625,14.078125 8.5625,14.28125 8.890625,14.46875 C9.21875,14.703125 9.421875,14.84375 9.5,15.03125 C9.640625,15.296875 9.59375,15.5625 9.234375,15.734375 C8.90625,15.890625 8.59375,15.875 8.265625,15.546875 C8.125,15.40625 7.90625,15.28125 7.640625,15.15625 C7.390625,15.03125 7.109375,14.921875 6.890625,14.859375 C7.046875,15.1875 7.203125,15.578125 7.328125,15.953125 C7.453125,16.3125 7.5625,16.625 7.609375,16.8125 C7.828125,17.515625 7.671875,17.96875 6.875,18.1875 Z M17.515625,17.84375 C18.5,17.5625 19.078125,16.984375 19.390625,16.328125 C19.671875,15.78125 19.8125,15.59375 20.1875,15.59375 C20.5625,15.59375 20.875,16.015625 20.8125,16.5625 C20.765625,16.84375 20.609375,17.109375 20.390625,17.34375 C20.1875,17.5625 19.921875,17.75 19.71875,17.859375 C19.484375,17.984375 19.140625,18.09375 18.78125,18.171875 C18.40625,18.265625 18.046875,18.28125 17.734375,18.265625 Z M13.609375,17.59375 C13.984375,17.265625 14.375,16.90625 14.75,16.578125 C15.125,16.234375 15.453125,15.921875 15.6875,15.71875 C15.84375,15.59375 15.921875,15.484375 15.921875,15.40625 C15.921875,15.3125 15.84375,15.203125 15.671875,15.046875 C15.140625,14.59375 14.5625,14.09375 13.90625,13.484375 C13.765625,14 13.578125,14.78125 13.421875,15.53125 C13.265625,16.28125 13.15625,17 13.15625,17.375 C13.15625,17.703125 13.359375,17.8125 13.609375,17.59375 Z M13.171875,11.765625 C13.515625,10.640625 13.9375,9.453125 14.390625,8.328125 C14.84375,7.203125 15.3125,6.09375 15.78125,5.15625 C15.5,4.78125 15.140625,4.34375 14.765625,3.921875 C14.375,3.5 13.96875,3.09375 13.625,2.8125 C13.171875,2.4375 12.828125,2.1875 12.5,2.046875 C12.171875,1.890625 11.890625,1.84375 11.5625,1.875 C11,1.921875 10.546875,2.546875 10.515625,3.625 C10.484375,4.375 10.5,5.421875 10.59375,6.5 C10.671875,7.578125 10.8125,8.671875 11.046875,9.546875 C11.328125,9.9375 11.75,10.390625 12.125,10.78125 C12.515625,11.1875 12.90625,11.53125 13.171875,11.765625 Z" transform="translate(-0.1484375, 18.78125) scale(1, -1)"/>
</svg>