<svg height="20.875" viewBox="0 0 24 20.875" width="24" xmlns="http://www.w3.org/2000/svg">
<path d="M14.703125,19.390625 C14.4375,19.53125 14.234375,19.453125 14,19.28125 C13.859375,19.171875 13.71875,19.125 13.484375,19.03125 C13.140625,18.890625 12.765625,18.75 12.359375,18.609375 C11.5625,18.3125 10.78125,18.078125 10.140625,17.890625 C9.484375,17.6875 8.765625,17.5 8.25,17.5 C8,17.484375 7.8125,17.5625 7.703125,17.6875 C7.515625,17.9375 7.34375,18.265625 7.203125,18.84375 L6.59375,18.640625 C6.609375,18.171875 6.671875,17.734375 6.765625,17.328125 C6.953125,16.484375 7.515625,15.75 8,15.6875 C8.46875,15.609375 8.796875,15.921875 9.078125,16.15625 C9.234375,16.265625 9.40625,16.359375 9.578125,16.4375 L10.484375,16.828125 C10.84375,16.984375 11.203125,17.140625 11.5625,17.296875 C12.296875,17.625 12.984375,17.953125 13.4375,18.1875 C13.8125,18.390625 13.859375,18.21875 13.71875,17.890625 C13.390625,17.09375 12.9375,16.078125 12.390625,15 C9.78125,14.25 7.328125,13.203125 5.234375,11.609375 C3.921875,10.625 3.09375,9.59375 3.09375,8.328125 C3.09375,7.34375 3.734375,6.9375 4.765625,6.9375 C5.640625,6.9375 6.765625,7.359375 7.875,8.03125 C8.984375,8.703125 10.0625,9.609375 10.859375,10.625 C11.609375,11.609375 12.453125,12.921875 13.15625,14.140625 C13.609375,14.265625 14.09375,14.328125 14.5625,14.40625 C15.21875,14.515625 15.359375,14.359375 14.9375,13.78125 C14.703125,13.46875 14.28125,12.9375 13.90625,12.5 C13.625,12.21875 13.53125,11.859375 13.53125,11.59375 C13.53125,11.4375 13.59375,11.328125 13.703125,11.25 C13.921875,11.09375 14.234375,11.09375 14.484375,11.078125 L14.84375,11.046875 C15.265625,10.984375 15.4375,10.78125 15.09375,10.4375 C14.71875,10.0625 14.046875,9.5 13.265625,8.859375 C12.46875,8.234375 11.5625,7.53125 10.671875,6.96875 C10.3125,6.71875 9.890625,6.453125 9.671875,6.3125 C9.34375,6.125 9.234375,5.84375 9.234375,5.546875 C9.234375,5.046875 9.375,4.859375 9.640625,4.859375 C9.921875,4.859375 10.15625,5 10.578125,5.328125 C10.96875,5.65625 11.421875,5.9375 11.90625,6.1875 C13.28125,6.890625 14.859375,7.375 16.421875,7.375 C17.1875,7.375 17.828125,7.09375 18.265625,6.59375 C18.71875,6.109375 18.96875,5.40625 18.96875,4.5625 C18.96875,3.390625 18.4375,2.375 17.546875,1.578125 C16.65625,0.78125 15.390625,0.171875 13.921875,-0.171875 C13,1.796875 11.515625,3.078125 9.734375,3.1875 C8.953125,3.234375 8.234375,3.0625 7.671875,2.6875 C7.125,2.3125 6.78125,1.734375 6.78125,0.984375 C6.78125,0.359375 7.09375,-0.21875 7.71875,-0.640625 C8.328125,-1.078125 9.265625,-1.34375 10.484375,-1.34375 C13.5,-1.34375 16.03125,-0.703125 17.8125,0.375 C19.59375,1.453125 20.609375,2.953125 20.609375,4.671875 C20.609375,5.8125 20.1875,6.6875 19.453125,7.25 C18.734375,7.8125 17.734375,8.109375 16.609375,8.109375 C15.28125,8.109375 14,7.921875 12.484375,7.375 C13.140625,7.796875 13.890625,8.328125 14.59375,8.8125 C15.296875,9.3125 15.96875,9.78125 16.46875,10.109375 C16.84375,10.34375 17.015625,10.5625 17.09375,10.75 C17.15625,10.9375 17.109375,11.09375 17.0625,11.234375 C16.9375,11.59375 16.5625,11.78125 16.203125,11.890625 C16.015625,11.9375 15.578125,12 15.234375,12.046875 C14.828125,12.109375 14.65625,12.171875 14.953125,12.453125 C15.140625,12.640625 15.453125,12.953125 15.765625,13.25 C16.078125,13.53125 16.390625,13.8125 16.625,14 C17.109375,14.375 17.15625,14.8125 16.671875,15.3125 C16.484375,15.515625 16.296875,15.640625 16.03125,15.6875 C15.78125,15.734375 15.453125,15.71875 14.984375,15.625 C14.59375,15.546875 14.21875,15.453125 13.859375,15.359375 C14.015625,15.640625 14.15625,15.875 14.28125,16.09375 C14.390625,16.296875 14.484375,16.484375 14.5625,16.609375 C14.8125,17.046875 15.078125,17.515625 15.40625,17.90625 C15.734375,18.296875 15.78125,18.546875 15.546875,18.796875 C15.3125,19.078125 15.046875,19.25 14.703125,19.390625 Z M11.6875,13.78125 C11.1875,12.875 10.625,12.03125 10.015625,11.1875 C9.359375,10.296875 8.453125,9.421875 7.53125,8.78125 C6.59375,8.140625 5.625,7.71875 4.828125,7.71875 C4.171875,7.71875 3.921875,8 3.921875,8.5 C3.921875,9.15625 4.515625,10.03125 5.640625,10.828125 C6.71875,11.578125 7.71875,12.171875 8.71875,12.65625 C9.71875,13.140625 10.6875,13.5 11.6875,13.78125 Z M9.875,1.875 C10.5625,1.75 11.125,1.5625 11.640625,1.234375 C12.140625,0.890625 12.59375,0.40625 13.0625,-0.3125 C12.265625,-0.453125 11.453125,-0.515625 10.5625,-0.484375 C9.6875,-0.46875 9.09375,-0.28125 8.734375,-0.03125 C8.359375,0.234375 8.203125,0.59375 8.203125,1.015625 C8.203125,1.296875 8.390625,1.5625 8.6875,1.71875 C8.984375,1.890625 9.40625,1.953125 9.875,1.875 Z" transform="translate(0.1484375, 19.53125) scale(1, -1)"/>
</svg>