<svg height="18.578125" viewBox="0 0 24 18.578125" width="24" xmlns="http://www.w3.org/2000/svg">
<path d="M8.359375,18.234375 C8.421875,17.796875 8.59375,17.453125 8.84375,17.15625 C9.359375,16.578125 10.21875,16.234375 11.28125,16.234375 C11.796875,16.234375 12.359375,16.3125 12.9375,16.46875 C12.53125,15.875 12,15.09375 11.6875,14.40625 C11.328125,13.609375 11.234375,12.96875 11.265625,12.5 C11.28125,12.234375 11.375,11.984375 11.640625,11.796875 C11.890625,11.625 12.3125,11.5625 13.015625,11.6875 C12.265625,10.90625 11.375,9.984375 10.40625,9.015625 C9.4375,8.046875 8.421875,7.046875 7.4375,6.125 C6.453125,5.1875 5.515625,4.3125 4.71875,3.625 C4.625,3.53125 4.515625,3.453125 4.4375,3.375 C4.25,3.234375 4.109375,3.125 3.9375,3.015625 C3.859375,2.953125 3.765625,2.890625 3.671875,2.84375 C3.328125,2.59375 3.078125,2.28125 2.953125,1.921875 C2.78125,1.421875 2.796875,1.03125 2.84375,0.6875 C2.9375,-0.015625 3.4375,0.03125 4.0625,0.734375 C4.53125,1.296875 5.09375,1.90625 5.65625,2.4375 C6.21875,2.984375 6.796875,3.453125 7.296875,3.78125 C7.78125,4.09375 8.140625,4.328125 8.453125,4.484375 C8.765625,4.625 9.03125,4.703125 9.359375,4.703125 C9.921875,4.703125 10.3125,4.4375 10.609375,3.828125 C10.703125,3.625 10.875,3.265625 11.09375,2.875 C11.296875,2.46875 11.5625,2.015625 11.84375,1.609375 C12.171875,1.125 12.59375,0.703125 13.109375,0.40625 C13.625,0.09375 14.234375,-0.09375 14.953125,-0.09375 C15.671875,-0.09375 16.34375,0.03125 17.015625,0.3125 C17.671875,0.578125 18.34375,1 19.0625,1.609375 C20.09375,2.5 21.21875,3.78125 22.203125,5.65625 L21.78125,6.09375 C21.265625,5.328125 20.640625,4.59375 20.03125,3.96875 C19.421875,3.328125 18.828125,2.8125 18.359375,2.5 C17.375,1.84375 16.296875,1.328125 15.125,1.328125 C14.609375,1.328125 14.265625,1.421875 13.953125,1.625 C13.625,1.84375 13.328125,2.171875 12.984375,2.640625 C12.765625,2.9375 12.5625,3.28125 12.375,3.609375 C12.1875,3.9375 12.015625,4.25 11.90625,4.484375 C11.453125,5.375 10.703125,5.703125 9.890625,5.703125 C9.34375,5.703125 8.546875,5.46875 7.65625,4.90625 C9.78125,7.203125 11.796875,9.046875 13.671875,10.5625 C14.140625,10.921875 14.5625,11.25 14.890625,11.46875 C15.3125,11.765625 15.3125,11.984375 15.3125,12.21875 C15.3125,12.453125 15.078125,12.734375 14.8125,12.875 C14.515625,13.015625 14.046875,12.96875 13.671875,12.890625 C13.296875,12.828125 13.015625,12.78125 12.78125,12.78125 C12.359375,12.765625 12.171875,12.921875 12.234375,13.265625 C12.265625,13.4375 12.359375,13.671875 12.484375,13.96875 C12.796875,14.6875 13.25,15.171875 13.765625,15.671875 C14.125,16.03125 14.5,16.375 14.953125,16.703125 C15.3125,16.96875 15.5,17.140625 15.5,17.328125 C15.5,17.5625 15.4375,17.6875 15.1875,17.859375 C14.875,18.078125 14.5625,18.125 14.046875,17.953125 C13.8125,17.875 13.34375,17.75 12.828125,17.65625 C11.796875,17.515625 10.90625,17.484375 10.203125,17.609375 C9.5,17.75 9.03125,18 8.765625,18.484375 Z" transform="translate(-0.4921875, 18.484375) scale(1, -1)"/>
</svg>