<svg height="19.5" viewBox="0 0 24 19.5" width="24" xmlns="http://www.w3.org/2000/svg">
<path d="M14.59375,18.390625 C14.421875,18.546875 14.21875,18.578125 14,18.546875 C13.765625,18.53125 13.53125,18.421875 13.28125,18.3125 C12.8125,18.125 12.046875,17.84375 11.234375,17.59375 C10.40625,17.328125 9.53125,17.078125 8.84375,16.90625 C8.359375,16.765625 7.90625,16.78125 7.390625,17.109375 C7.109375,17.3125 6.84375,17.640625 6.53125,18.171875 L5.984375,17.859375 C6.171875,17.171875 6.34375,16.65625 6.796875,16.03125 C7.15625,15.53125 7.5625,15.3125 7.90625,15.3125 C8.375,15.3125 8.828125,15.453125 9.234375,15.6875 C9.34375,15.78125 9.59375,15.890625 9.84375,16.015625 C10.109375,16.15625 10.390625,16.28125 10.625,16.375 C11.09375,16.546875 11.515625,16.71875 12,16.875 C12.46875,17.046875 13.015625,17.1875 13.671875,17.359375 C11.609375,14.71875 8.75,11.09375 5.265625,6.265625 C4.953125,5.84375 4.734375,5.546875 4.546875,5.28125 C4.359375,5 4.203125,4.765625 4.015625,4.484375 C3.71875,4.0625 3.390625,3.59375 3.09375,3.234375 C2.921875,3.015625 2.78125,2.78125 2.6875,2.515625 C2.5,2 2.421875,1.09375 2.71875,0.71875 C2.859375,0.53125 2.984375,0.4375 3.125,0.4375 C3.21875,0.4375 3.40625,0.578125 3.578125,0.796875 C3.734375,1.015625 3.890625,1.296875 3.984375,1.578125 C4.203125,2.1875 4.609375,3.046875 5.140625,4.03125 C5.75,5.15625 6.28125,6 6.8125,6.640625 C7.34375,7.296875 7.875,7.75 8.5,8.09375 C9.125,8.453125 9.828125,8.703125 10.71875,8.984375 C11.5625,9.21875 12.234375,9.40625 12.9375,9.53125 C12.75,8.9375 12.59375,8.296875 12.5,7.6875 C12.40625,7.078125 12.34375,6.5 12.34375,6.078125 C12.34375,5.609375 12.453125,5.21875 12.640625,4.90625 C12.828125,4.609375 13.109375,4.484375 13.296875,4.484375 C13.53125,4.484375 13.65625,4.5625 13.953125,4.765625 C14.140625,4.890625 14.34375,5.03125 14.65625,5.15625 C15.21875,5.375 15.6875,5.53125 16.4375,5.5 C16.78125,5.484375 17.109375,5.359375 17.34375,5.125 C17.578125,4.875 17.734375,4.53125 17.734375,4.0625 C17.734375,3.125 17.203125,2.3125 16.078125,1.609375 C14.9375,0.90625 13.203125,0.3125 10.8125,-0.21875 L11.140625,-0.921875 C13.96875,-0.421875 16.0625,0.21875 17.390625,1.03125 C18.734375,1.828125 19.390625,2.78125 19.390625,3.875 C19.390625,4.609375 19.109375,5.1875 18.640625,5.609375 C18.171875,6.03125 17.515625,6.265625 16.765625,6.296875 C15.875,6.328125 14.859375,6.171875 14.109375,5.796875 C13.828125,5.65625 13.671875,5.765625 13.671875,6.09375 C13.671875,6.53125 13.71875,7.140625 13.8125,7.796875 C13.90625,8.4375 14.015625,9.125 14.15625,9.71875 C15,9.828125 15.921875,9.875 17.046875,9.875 C17.5625,9.875 17.890625,9.828125 18.34375,9.734375 C18.828125,9.65625 19.015625,9.890625 19.015625,10.125 C19.015625,10.34375 18.875,10.71875 18.578125,10.859375 C18.296875,11 18.046875,11.046875 17.75,11.078125 C17.4375,11.09375 17.0625,11.0625 16.578125,11.015625 C15.78125,10.9375 15.09375,10.859375 14.46875,10.71875 C14.75,11.5625 15.046875,12.234375 15.453125,12.734375 L14.9375,13.109375 C14.3125,12.34375 13.734375,11.5 13.328125,10.515625 C13.03125,10.453125 12.734375,10.390625 12.453125,10.328125 C11.890625,10.203125 11.3125,10.015625 10.78125,9.875 C10.515625,9.78125 10.25,9.703125 9.953125,9.59375 C9.375,9.40625 8.765625,9.171875 8.203125,8.890625 C10.21875,11.5625 12.359375,13.78125 14.46875,15.890625 C14.609375,16.015625 14.75,16.15625 14.890625,16.296875 C15.046875,16.421875 15.171875,16.53125 15.265625,16.625 C15.65625,17.015625 15.671875,17.3125 15.390625,17.640625 C15.234375,17.8125 14.984375,18.046875 14.59375,18.390625 Z" transform="translate(1.09375, 18.578125) scale(1, -1)"/>
</svg>