<svg height="24" viewBox="0 0 24 24" width="24" xmlns="http://www.w3.org/2000/svg">
<path d="M7.421875,16.46875 C7.5,15.390625 7.75,14.796875 8.15625,14.375 C8.609375,13.921875 9,13.96875 9.53125,14.359375 C9.890625,14.625 10.484375,14.921875 10.921875,15.140625 C11.328125,15.34375 11.796875,15.546875 12.21875,15.640625 C12.59375,15.734375 12.90625,15.640625 12.9375,15.1875 C13.109375,12.703125 12.96875,10.5625 12.71875,8.953125 C12.671875,8.640625 12.546875,8.140625 12.40625,7.65625 C12.25,7.15625 12.046875,6.703125 11.859375,6.484375 C12,7.28125 12.109375,8.046875 11.9375,8.84375 C11.84375,9.21875 11.703125,9.6875 11.421875,10.015625 C11.046875,10.46875 10.546875,10.546875 9.625,10.328125 C9.3125,10.25 8.921875,10.09375 8.5625,9.90625 C8.1875,9.703125 7.859375,9.46875 7.625,9.234375 C7.078125,8.640625 6.890625,8.140625 7.375,7.53125 C7.953125,6.78125 8.46875,5.90625 8.84375,5.15625 C8.96875,4.890625 9.234375,4.765625 9.5625,4.75 C9.875,4.71875 10.25,4.8125 10.578125,5 C10.4375,4.71875 10.1875,4.328125 9.875,3.96875 C9.546875,3.59375 9.1875,3.21875 8.859375,2.984375 C8.546875,2.75 8.4375,2.421875 8.46875,2.125 C8.484375,1.8125 8.65625,1.515625 8.9375,1.328125 C9.21875,1.125 9.6875,0.9375 10.21875,0.8125 C10.75,0.6875 11.328125,0.59375 11.890625,0.59375 C12.15625,0.59375 12.421875,0.609375 12.703125,0.625 C13.265625,0.640625 13.78125,0.6875 14.25,0.765625 C14.703125,0.84375 15.21875,0.96875 15.34375,1.296875 C15.359375,1.375 15.375,1.484375 15.390625,1.609375 C15.390625,1.859375 15.078125,2.1875 14.65625,2.296875 C14.234375,2.390625 13.953125,2.28125 13.75,2.203125 C13.640625,2.171875 13.515625,2.125 13.34375,2.09375 C12.9375,2 12.390625,1.96875 11.84375,1.96875 C11.1875,1.96875 10.4375,2.09375 9.96875,2.28125 C9.578125,2.421875 9.453125,2.5625 9.890625,2.953125 C10.875,3.84375 11.546875,4.53125 11.765625,5.28125 C12,5.421875 12.265625,5.65625 12.5,5.890625 C13.03125,6.359375 13.625,7.21875 14,8.703125 C14.171875,9.375 14.28125,10.453125 14.359375,11.6875 C14.421875,12.90625 14.421875,14.265625 14.375,15.53125 C14.34375,16.109375 14.140625,16.34375 13.78125,16.609375 C13.484375,16.828125 13.203125,16.828125 12.921875,16.828125 C12.5,16.828125 11.59375,16.53125 10.859375,16.25 C10.484375,16.109375 10.0625,16 9.59375,15.921875 C9.1875,15.828125 8.84375,15.8125 8.578125,15.921875 C8.296875,16.015625 8.09375,16.296875 7.953125,16.8125 Z M10.625,8.859375 C10.8125,8.46875 10.875,7.859375 10.875,7.421875 C10.875,6.671875 10.828125,6.1875 10.703125,5.703125 C9.984375,5.328125 9.484375,5.5 9.1875,5.859375 C9.0625,6 8.90625,6.265625 8.75,6.578125 C8.609375,6.875 8.46875,7.203125 8.40625,7.46875 C8.28125,7.921875 8.328125,8.140625 8.5625,8.46875 C8.671875,8.625 8.890625,8.78125 9.140625,8.921875 C9.375,9.046875 9.671875,9.15625 9.921875,9.21875 C10.34375,9.3125 10.484375,9.1875 10.625,8.859375 Z" transform="translate(0.859375, 16.828125) scale(1, -1)"/>
</svg>