<svg height="18.46875" viewBox="0 0 24 18.46875" width="24" xmlns="http://www.w3.org/2000/svg">
<path d="M4.625,-0.234375 Q3.09375,-0.234375 2.125,0.859375 Q1.15625,1.96875 1.15625,4.15625 Q1.15625,5.921875 1.578125,7.515625 Q2.015625,9.125 2.84375,10.375 Q3.671875,11.640625 4.828125,12.359375 Q6,13.078125 7.46875,13.078125 Q8.765625,13.078125 9.53125,12.421875 Q10.3125,11.765625 10.703125,10.875 L10.828125,10.875 Q10.9375,11.6875 11.0625,12.421875 Q11.1875,13.171875 11.359375,14.046875 L12.234375,18.234375 L14.328125,18.234375 L10.46875,0 L8.734375,0 L9,2.375 L8.90625,2.375 Q8.046875,1.296875 7,0.53125 Q5.96875,-0.234375 4.625,-0.234375 Z M5.359375,1.515625 Q6.140625,1.515625 6.953125,2.09375 Q7.78125,2.6875 8.46875,3.6875 Q9.171875,4.703125 9.59375,6 Q10.015625,7.296875 10.015625,8.734375 Q10.015625,9.890625 9.4375,10.609375 Q8.875,11.328125 7.609375,11.328125 Q6.640625,11.328125 5.859375,10.71875 Q5.09375,10.109375 4.515625,9.078125 Q3.9375,8.046875 3.625,6.75 Q3.3125,5.453125 3.3125,4.109375 Q3.3125,1.515625 5.359375,1.515625 Z" transform="translate(4.2578125, 18.234375) scale(1, -1)"/>
</svg>