<svg height="17.609375" viewBox="0 0 24 17.609375" width="24" xmlns="http://www.w3.org/2000/svg">
<path d="M7.828125,-0.234375 Q4.96875,-0.234375 3.34375,1.515625 Q1.734375,3.265625 1.734375,6.3125 Q1.734375,7.84375 2.09375,9.421875 Q2.453125,11.015625 3.171875,12.421875 Q3.90625,13.84375 5.015625,14.953125 Q6.140625,16.078125 7.625,16.71875 Q9.125,17.375 10.984375,17.375 Q13.390625,17.375 15.171875,16.421875 L14.296875,14.640625 Q13.65625,14.96875 12.84375,15.21875 Q12.046875,15.484375 10.984375,15.484375 Q9.1875,15.484375 7.875,14.671875 Q6.578125,13.875 5.703125,12.53125 Q4.84375,11.203125 4.421875,9.59375 Q4.015625,7.984375 4.015625,6.359375 Q4.015625,4.171875 5.125,2.90625 Q6.234375,1.65625 8.203125,1.65625 Q9.1875,1.65625 10.140625,1.84375 Q11.09375,2.046875 12,2.359375 L12,0.484375 Q11.0625,0.140625 10.109375,-0.046875 Q9.171875,-0.234375 7.828125,-0.234375 Z" transform="translate(3.546875, 17.375) scale(1, -1)"/>
</svg>