<svg height="24" viewBox="0 0 24 24" width="24" xmlns="http://www.w3.org/2000/svg">
<path d="M5.6875,14.734375 Q4.875,14.734375 4.3125,15.109375 Q3.75,15.5 3.75,16.484375 Q3.75,17.5 4.3125,17.859375 Q4.875,18.234375 5.6875,18.234375 Q6.484375,18.234375 7.046875,17.859375 Q7.625,17.5 7.625,16.484375 Q7.625,15.5 7.046875,15.109375 Q6.484375,14.734375 5.6875,14.734375 Z M2.828125,-5.765625 Q2.234375,-5.765625 1.5625,-5.671875 Q0.90625,-5.59375 0.484375,-5.46875 L0.484375,-2.65625 Q0.90625,-2.765625 1.296875,-2.8125 Q1.6875,-2.875 2.15625,-2.875 Q2.875,-2.875 3.375,-2.46875 Q3.890625,-2.0625 3.890625,-0.890625 L3.890625,13.109375 L7.46875,13.109375 L7.46875,-1.421875 Q7.46875,-2.609375 7,-3.59375 Q6.546875,-4.578125 5.53125,-5.171875 Q4.515625,-5.765625 2.828125,-5.765625 Z" transform="translate(7.9453125, 18.234375) scale(1, -1)"/>
</svg>