<svg height="7.5625" viewBox="0 0 24 7.5625" width="24" xmlns="http://www.w3.org/2000/svg">
<path d="M12.4375,2.203125 Q11.96875,1.734375 11.578125,1.359375 Q11.1875,0.984375 10.828125,0.703125 Q10.375,0.3125 9.921875,0.078125 Q9.484375,-0.140625 8.921875,-0.140625 Q8.28125,-0.140625 7.828125,0.375 Q7.390625,0.890625 7.390625,1.796875 Q7.390625,2.640625 7.921875,3.5 Q8.46875,4.375 9.359375,5.40625 Q10.265625,6.453125 10.265625,6.625 Q10.265625,6.84375 10.03125,6.84375 Q9.265625,6.84375 7.53125,5.203125 Q6.671875,4.390625 5.625,3.078125 Q4.578125,1.78125 3.359375,0 L0.1875,-0.171875 L2.0625,2.59375 Q3.796875,5.109375 3.796875,5.546875 Q3.796875,5.78125 3.625,5.78125 Q3.484375,5.78125 3.171875,5.515625 Q2.859375,5.25 2.46875,4.859375 Q2.09375,4.46875 1.734375,4.0625 L1.375,4.375 Q2.0625,5.15625 2.765625,5.84375 Q3.484375,6.53125 4.09375,6.953125 Q4.703125,7.375 5.0625,7.375 Q5.46875,7.375 5.75,6.96875 Q6.046875,6.578125 6.046875,5.828125 Q6.046875,4.84375 5.59375,3.796875 Q8.734375,7.390625 10.296875,7.390625 Q10.984375,7.390625 11.375,6.890625 Q11.78125,6.390625 11.78125,5.46875 Q11.78125,4.9375 11.515625,4.296875 Q11.25,3.671875 10.515625,2.65625 Q10.15625,2.15625 9.890625,1.8125 Q9.625,1.484375 9.484375,1.3125 Q9.171875,0.984375 9.171875,0.71875 Q9.171875,0.5 9.4375,0.5 Q9.75,0.5 10.234375,0.859375 Q10.734375,1.21875 11.25,1.6875 Q11.765625,2.15625 12.078125,2.515625 Z" transform="translate(5.6875, 7.390625) scale(1, -1)"/>
</svg>