<svg height="17.609375" viewBox="0 0 24 17.609375" width="24" xmlns="http://www.w3.org/2000/svg">
<path d="M15.5,-0.28125 Q15.1875,2.0625 15,3.90625 Q14.828125,5.765625 14.828125,7.203125 Q14.828125,10.0625 15.3125,12.25 Q15.796875,14.453125 16.6875,15.984375 Q15.671875,14.953125 14.5625,13.234375 Q13.46875,11.515625 12.359375,9.09375 Q10.15625,4.25 7.953125,2.03125 Q5.765625,-0.1875 3.4375,-0.1875 Q2.109375,-0.1875 1.34375,0.546875 Q0.59375,1.296875 0.59375,2.6875 Q0.59375,3.796875 1.203125,4.578125 Q1.828125,5.359375 2.734375,5.359375 Q3.4375,5.359375 3.78125,4.96875 Q4.125,4.578125 4.125,4.0625 Q4.125,3.390625 3.59375,2.96875 Q3.078125,2.5625 2.453125,2.453125 Q1.9375,2.359375 1.75,2.1875 Q1.578125,2.015625 1.578125,1.484375 Q1.578125,1.03125 2.109375,0.609375 Q2.65625,0.1875 3.546875,0.1875 Q5.59375,0.1875 7.671875,2.359375 Q9.75,4.53125 11.78125,8.953125 Q12.8125,11.1875 13.765625,12.75 Q14.734375,14.328125 15.546875,15.3125 Q17.203125,17.328125 17.78125,17.328125 Q18,17.328125 18,17.109375 Q18,17.015625 17.96875,16.90625 Q17.953125,16.796875 17.90625,16.703125 Q17.6875,16.109375 17.515625,14.765625 Q17.359375,13.421875 17.359375,11.78125 Q17.359375,10.109375 17.484375,8.171875 Q17.609375,6.234375 17.875,4.0625 L19.78125,8.421875 Q20.546875,10.15625 21.125,11.359375 Q21.703125,12.578125 22.109375,13.125 Q22.984375,14.296875 23.71875,14.296875 Q24.484375,14.296875 24.484375,13.609375 Q24.484375,13.15625 24.015625,12.953125 Q23.546875,12.765625 23.09375,12.671875 Q22.703125,12.59375 22.40625,12.34375 Q22.109375,12.09375 21.859375,11.71875 Q21.328125,10.890625 20.515625,9 L18,3.125 L18.21875,1.03125 Z" transform="translate(-0.5390625, 17.328125) scale(1, -1)"/>
</svg>