<svg height="13.578125" viewBox="0 0 24 13.578125" width="24" xmlns="http://www.w3.org/2000/svg">
<path d="M6.078125,-0.234375 Q4.609375,-0.234375 3.46875,0.375 Q2.328125,0.984375 1.6875,2.109375 Q1.0625,3.234375 1.0625,4.796875 Q1.0625,6.53125 1.484375,8.078125 Q1.921875,9.625 2.78125,10.8125 Q3.640625,12 4.953125,12.671875 Q6.265625,13.34375 8.015625,13.34375 Q10.296875,13.34375 11.640625,11.96875 Q12.984375,10.609375 12.984375,8.15625 Q12.984375,6.5 12.578125,4.984375 Q12.171875,3.484375 11.3125,2.296875 Q10.46875,1.125 9.15625,0.4375 Q7.84375,-0.234375 6.078125,-0.234375 Z M6.359375,2.640625 Q7.34375,2.640625 8.03125,3.421875 Q8.71875,4.21875 9.078125,5.484375 Q9.4375,6.75 9.4375,8.15625 Q9.4375,9.140625 9.0625,9.796875 Q8.6875,10.46875 7.75,10.46875 Q6.953125,10.46875 6.359375,9.921875 Q5.765625,9.390625 5.375,8.515625 Q4.984375,7.65625 4.796875,6.671875 Q4.609375,5.6875 4.609375,4.796875 Q4.609375,2.640625 6.359375,2.640625 Z" transform="translate(4.9765625, 13.34375) scale(1, -1)"/>
</svg>