<svg height="23.90625" viewBox="0 0 24 23.90625" width="24" xmlns="http://www.w3.org/2000/svg">
<path d="M0.5,-6.546875 Q-0.59375,-6.546875 -1.25,-5.984375 Q-1.921875,-5.421875 -1.921875,-4.390625 Q-1.921875,-2.953125 -0.71875,-1.765625 Q0.484375,-0.578125 2.625,0.328125 Q4.78125,1.25 7.6875,1.875 Q8.65625,3.640625 8.65625,5.015625 Q8.65625,5.296875 8.59375,5.6875 Q7.625,5.09375 6.6875,4.78125 Q5.765625,4.484375 5.0625,4.484375 Q4.390625,4.484375 4,4.796875 Q3.625,5.109375 3.625,5.65625 Q3.625,6.1875 4.0625,6.609375 Q4.515625,7.03125 5.234375,7.265625 Q5.96875,7.515625 6.84375,7.515625 Q8.15625,7.515625 9.265625,7.015625 Q10.65625,8.140625 11.78125,9.65625 Q12.90625,11.1875 13.578125,12.703125 Q13.125,12.625 12.671875,12.625 Q11.5,12.625 10.40625,13.140625 Q9.3125,13.65625 8.25,14.25 Q7.515625,14.65625 6.953125,14.796875 Q6.40625,14.953125 5.828125,14.953125 Q4.171875,14.953125 3.140625,13.734375 Q2.109375,12.53125 2.109375,10.578125 Q2.109375,10.21875 2.15625,9.828125 Q2.203125,9.453125 2.203125,9.265625 Q2.203125,9.09375 2.140625,8.96875 Q2.09375,8.859375 1.890625,8.859375 Q1.390625,8.859375 1.390625,10.6875 Q1.390625,12.546875 2.171875,14.0625 Q2.96875,15.578125 4.328125,16.46875 Q5.6875,17.359375 7.375,17.359375 Q9.59375,17.359375 11.46875,15.484375 Q12.359375,14.59375 12.953125,14.140625 Q13.5625,13.703125 13.96875,13.625 Q14.71875,15.5 15.234375,16.359375 Q15.75,17.234375 16.484375,17.234375 Q16.890625,17.234375 17.203125,16.9375 Q17.515625,16.65625 17.515625,16.109375 Q17.515625,15 16.640625,14.109375 Q15.765625,13.21875 14.375,12.84375 Q13.5625,10.890625 12.421875,9.359375 Q11.28125,7.84375 9.90625,6.640625 Q10.78125,6.09375 11.28125,5.234375 Q11.78125,4.375 11.78125,3.28125 Q11.78125,3.1875 11.78125,3.09375 Q12.671875,3.59375 13.515625,4.296875 Q14.359375,5.015625 15.078125,5.765625 Q15.8125,6.53125 16.390625,7.15625 Q16.65625,7.421875 16.828125,7.421875 Q17.09375,7.421875 17.09375,7.15625 Q17.09375,7.109375 17.0625,7 Q17.046875,6.90625 16.921875,6.796875 Q16.3125,6.078125 15.421875,5.171875 Q14.546875,4.265625 13.546875,3.453125 Q12.546875,2.640625 11.59375,2.15625 Q11.234375,1.0625 10.3125,-0.140625 Q9.40625,-1.34375 8.171875,-2.484375 Q6.9375,-3.625 5.546875,-4.546875 Q4.171875,-5.46875 2.84375,-6 Q1.53125,-6.546875 0.5,-6.546875 Z M16.4375,16.5625 Q16.078125,16.5625 15.671875,15.84375 Q15.265625,15.140625 14.71875,13.75 Q15.21875,13.890625 15.703125,14.25 Q16.203125,14.609375 16.515625,15.09375 Q16.84375,15.578125 16.84375,16.109375 Q16.84375,16.5625 16.4375,16.5625 Z M5.109375,5.109375 Q6.484375,5.109375 8.375,6.28125 Q8.140625,6.59375 7.671875,6.734375 Q7.203125,6.890625 6.671875,6.890625 Q6.1875,6.890625 5.640625,6.765625 Q5.109375,6.640625 4.71875,6.359375 Q4.34375,6.09375 4.34375,5.65625 Q4.34375,5.109375 5.109375,5.109375 Z M-1.15625,-4.46875 Q-1.15625,-5.0625 -0.6875,-5.4375 Q-0.234375,-5.828125 0.453125,-5.828125 Q1.6875,-5.828125 3.328125,-4.234375 Q4.96875,-2.640625 7.15625,0.953125 Q4.625,0.390625 2.765625,-0.421875 Q0.90625,-1.25 -0.125,-2.28125 Q-1.15625,-3.3125 -1.15625,-4.46875 Z" transform="translate(4.203125, 17.359375) scale(1, -1)"/>
</svg>