<svg height="18.46875" viewBox="0 0 24 18.46875" width="24" xmlns="http://www.w3.org/2000/svg">
<path d="M9.078125,-0.234375 Q7.625,-0.234375 6.796875,0.28125 Q5.96875,0.796875 5.453125,1.4375 L5.203125,1.4375 L4.609375,0 L1.875,0 L1.875,18.234375 L5.453125,18.234375 L5.453125,13.984375 Q5.453125,13.25 5.40625,12.53125 Q5.359375,11.8125 5.296875,11.40625 L5.453125,11.40625 Q5.96875,12.21875 6.859375,12.78125 Q7.75,13.34375 9.171875,13.34375 Q11.375,13.34375 12.734375,11.625 Q14.109375,9.90625 14.109375,6.578125 Q14.109375,3.21875 12.71875,1.484375 Q11.328125,-0.234375 9.078125,-0.234375 Z M8.0625,2.65625 Q9.171875,2.65625 9.8125,3.671875 Q10.46875,4.703125 10.46875,6.625 Q10.46875,8.546875 9.796875,9.515625 Q9.140625,10.484375 8.015625,10.484375 Q6.625,10.484375 6.0625,9.625 Q5.5,8.765625 5.453125,6.984375 L5.453125,6.59375 Q5.453125,4.703125 6.015625,3.671875 Q6.578125,2.65625 8.0625,2.65625 Z" transform="translate(4.0078125, 18.234375) scale(1, -1)"/>
</svg>