<svg height="14.234375" viewBox="0 0 24 14.234375" width="24" xmlns="http://www.w3.org/2000/svg">
<path d="M6.84375,2.203125 Q5.640625,1.03125 4.8125,0.421875 Q3.984375,-0.171875 2.953125,-0.171875 Q2.109375,-0.171875 1.546875,0.296875 Q0.984375,0.765625 0.984375,1.5625 Q0.984375,2.5625 1.9375,4.265625 L2.375,5.046875 Q1.65625,4.3125 1.3125,4.0625 L0.8125,4.4375 Q1.734375,5.25 2.484375,6.046875 Q3.234375,6.859375 3.84375,7.875 L7.421875,13.75 L10.34375,14.0625 L5.1875,4.6875 Q4.3125,3.140625 3.890625,2.296875 Q3.453125,1.484375 3.453125,1.171875 Q3.453125,0.75 3.796875,0.75 Q4.03125,0.75 4.65625,1.1875 Q5.28125,1.625 6.390625,2.71875 Z" transform="translate(6.421875, 14.0625) scale(1, -1)"/>
</svg>