<svg height="17.609375" viewBox="0 0 24 17.609375" width="24" xmlns="http://www.w3.org/2000/svg">
<path d="M9.359375,-0.234375 Q5.515625,-0.234375 3.453125,2.015625 Q1.390625,4.265625 1.390625,8.59375 Q1.390625,11.28125 2.4375,13.25 Q3.484375,15.21875 5.46875,16.296875 Q7.46875,17.375 10.34375,17.375 Q11.71875,17.375 13.03125,17.078125 Q14.359375,16.796875 15.4375,16.3125 L14.234375,13.421875 Q13.4375,13.828125 12.421875,14.09375 Q11.421875,14.359375 10.3125,14.359375 Q8.734375,14.359375 7.5625,13.625 Q6.40625,12.90625 5.765625,11.59375 Q5.140625,10.296875 5.140625,8.515625 Q5.140625,6.84375 5.59375,5.546875 Q6.046875,4.25 7.03125,3.515625 Q8.015625,2.78125 9.59375,2.78125 Q10.375,2.78125 10.90625,2.84375 Q11.453125,2.921875 11.90625,3.03125 L11.90625,6.59375 L8.65625,6.59375 L8.65625,9.625 L15.453125,9.625 L15.453125,0.75 Q14.109375,0.28125 12.65625,0.015625 Q11.203125,-0.234375 9.359375,-0.234375 Z" transform="translate(3.578125, 17.375) scale(1, -1)"/>
</svg>