<svg height="13.34375" viewBox="0 0 24 13.34375" width="24" xmlns="http://www.w3.org/2000/svg">
<path d="M5.8125,-0.234375 Q3.578125,-0.234375 2.359375,1.0625 Q1.15625,2.375 1.15625,4.609375 Q1.15625,6.140625 1.59375,7.640625 Q2.046875,9.140625 2.875,10.375 Q3.71875,11.609375 4.90625,12.359375 Q6.09375,13.109375 7.578125,13.109375 Q9.40625,13.109375 10.328125,12.3125 Q11.25,11.515625 11.25,10.109375 Q11.25,8.859375 10.46875,7.828125 Q9.703125,6.796875 8.046875,6.171875 Q6.390625,5.5625 3.75,5.5625 L3.34375,5.5625 Q3.3125,5.359375 3.296875,5.109375 Q3.28125,4.875 3.28125,4.6875 Q3.28125,3.21875 4,2.359375 Q4.734375,1.515625 6.1875,1.515625 Q7.109375,1.515625 7.921875,1.78125 Q8.734375,2.046875 9.703125,2.5 L9.703125,0.703125 Q8.78125,0.28125 7.90625,0.015625 Q7.03125,-0.234375 5.8125,-0.234375 Z M3.640625,7.265625 L3.8125,7.265625 Q5.25,7.265625 6.46875,7.515625 Q7.703125,7.78125 8.4375,8.359375 Q9.1875,8.953125 9.1875,9.9375 Q9.1875,10.5625 8.765625,10.953125 Q8.359375,11.359375 7.46875,11.359375 Q6.3125,11.359375 5.234375,10.28125 Q4.171875,9.21875 3.640625,7.265625 Z" transform="translate(5.796875, 13.109375) scale(1, -1)"/>
</svg>