<svg height="18.46875" viewBox="0 0 24 18.46875" width="24" xmlns="http://www.w3.org/2000/svg">
<path d="M6.453125,-0.234375 Q5.15625,-0.234375 4.34375,0.421875 Q3.546875,1.078125 3.171875,1.96875 L3.046875,1.96875 L2.25,0 L0.671875,0 L4.53125,18.234375 L6.640625,18.234375 L5.734375,13.921875 Q5.5625,13.109375 5.359375,12.328125 Q5.15625,11.546875 5.015625,11.03125 Q4.875,10.515625 4.84375,10.46875 L4.9375,10.46875 Q5.8125,11.515625 6.828125,12.296875 Q7.84375,13.078125 9.1875,13.078125 Q10.78125,13.078125 11.75,11.96875 Q12.71875,10.875 12.71875,8.71875 Q12.71875,6.953125 12.28125,5.34375 Q11.859375,3.75 11.03125,2.484375 Q10.21875,1.21875 9.0625,0.484375 Q7.921875,-0.234375 6.453125,-0.234375 Z M6.28125,1.515625 Q7.25,1.515625 8.03125,2.125 Q8.828125,2.734375 9.390625,3.765625 Q9.953125,4.796875 10.25,6.09375 Q10.5625,7.390625 10.5625,8.734375 Q10.5625,11.328125 8.515625,11.328125 Q7.734375,11.328125 6.90625,10.734375 Q6.078125,10.15625 5.375,9.125 Q4.6875,8.109375 4.265625,6.8125 Q3.84375,5.515625 3.84375,4.109375 Q3.84375,2.953125 4.4375,2.234375 Q5.046875,1.515625 6.28125,1.515625 Z" transform="translate(5.3046875, 18.234375) scale(1, -1)"/>
</svg>