<svg height="7.515625" viewBox="0 0 24 7.515625" width="24" xmlns="http://www.w3.org/2000/svg">
<path d="M4.015625,-0.140625 Q3.046875,-0.140625 2.484375,0.375 Q1.9375,0.90625 1.9375,1.78125 Q1.9375,2.78125 2.8125,4.015625 Q3.671875,5.203125 3.671875,5.546875 Q3.671875,5.71875 3.53125,5.71875 Q3.4375,5.71875 3,5.25 Q2.5625,4.78125 2.015625,4.0625 L1.6875,4.375 Q1.96875,4.78125 2.390625,5.28125 Q2.828125,5.78125 3.25,6.21875 Q3.671875,6.671875 3.890625,6.859375 Q4.21875,7.15625 4.453125,7.265625 Q4.703125,7.375 4.9375,7.375 Q5.421875,7.375 5.703125,6.984375 Q6,6.59375 6,5.90625 Q6,5.09375 5.484375,4.109375 Q4.984375,3.125 4.25,2.046875 Q3.5,0.984375 3.5,0.53125 Q3.5,0.234375 3.9375,0.234375 Q5.5625,0.234375 7.3125,2.109375 Q6.703125,2.734375 6.703125,3.546875 Q6.703125,4.46875 7.109375,5.34375 Q7.515625,6.21875 8.09375,6.78125 Q8.6875,7.34375 9.21875,7.34375 Q10.109375,7.34375 10.109375,6.140625 Q10.109375,5.25 9.59375,4.34375 Q9.078125,3.453125 8.0625,2.296875 L8.28125,2.296875 Q8.71875,2.296875 9.125,2.46875 Q9.53125,2.65625 9.796875,2.90625 L10.03125,2.59375 Q9.640625,2.28125 9.203125,2.09375 Q8.765625,1.921875 8.203125,1.890625 Q8.09375,1.890625 7.953125,1.90625 Q7.828125,1.921875 7.703125,1.9375 Q5.734375,-0.140625 4.015625,-0.140625 Z M7.609375,2.453125 Q9.453125,4.578125 9.453125,5.328125 Q9.453125,5.6875 9.046875,5.6875 Q8.609375,5.6875 8.171875,5.359375 Q7.75,5.046875 7.453125,4.546875 Q7.171875,4.0625 7.171875,3.53125 Q7.171875,2.921875 7.609375,2.453125 Z" transform="translate(6.1015625, 7.375) scale(1, -1)"/>
</svg>