<svg height="17.734375" viewBox="0 0 24 17.734375" width="24" xmlns="http://www.w3.org/2000/svg">
<path d="M7.515625,7.296875 Q6.1875,7.296875 5.390625,8.03125 Q4.609375,8.765625 4.609375,10.078125 Q4.609375,11.1875 5.3125,12.453125 Q6.03125,13.734375 7.3125,14.875 Q8.609375,16.03125 10.421875,16.765625 Q12.234375,17.5 14.421875,17.5 Q15.703125,17.5 16.53125,17.328125 Q17.359375,17.15625 17.96875,16.953125 Q18.59375,16.75 19.234375,16.578125 Q19.890625,16.421875 20.78125,16.421875 Q21.75,16.421875 22.4375,16.921875 Q22.625,17.046875 22.734375,17.046875 Q22.921875,17.046875 22.921875,16.78125 Q22.921875,16.4375 22.515625,15.890625 Q22.109375,15.359375 21.40625,14.9375 Q20.71875,14.515625 19.84375,14.515625 Q18.765625,14.515625 17.953125,14.765625 Q17.140625,15.03125 16.390625,15.375 Q15.640625,15.71875 14.8125,15.96875 Q13.984375,16.21875 12.9375,16.21875 Q11.40625,16.21875 10.015625,15.609375 Q8.640625,15 7.5625,14.03125 Q6.5,13.078125 5.890625,12.015625 Q5.28125,10.96875 5.28125,10.078125 Q5.28125,8.953125 5.84375,8.5 Q6.40625,8.0625 7.078125,8.0625 Q7.703125,8.0625 8.421875,8.59375 Q9.140625,9.125 9.78125,9.984375 Q10.421875,10.84375 10.8125,11.859375 Q11.203125,12.890625 11.203125,13.875 Q11.203125,14.0625 11.171875,14.328125 Q11.140625,14.59375 11.140625,14.71875 Q11.140625,15.09375 11.46875,15.09375 Q11.6875,15.09375 11.90625,14.671875 Q12.125,14.25 12.25,13.625 Q12.390625,13.015625 12.390625,12.359375 Q12.390625,10.9375 11.671875,9.78125 Q10.96875,8.640625 9.84375,7.96875 Q8.734375,7.296875 7.515625,7.296875 Z M6.03125,-0.234375 Q4.203125,-0.234375 3,0.234375 Q1.796875,0.71875 1.1875,1.515625 Q0.59375,2.328125 0.59375,3.28125 Q0.59375,4.3125 1.28125,5.046875 Q1.984375,5.78125 3.03125,5.78125 Q3.796875,5.78125 4.21875,5.34375 Q4.65625,4.921875 4.65625,4.34375 Q4.65625,3.703125 4.265625,3.34375 Q3.890625,3 3.1875,2.90625 Q2.8125,2.859375 2.5625,2.6875 Q2.328125,2.515625 2.328125,2.109375 Q2.328125,1.390625 3.203125,0.890625 Q4.078125,0.390625 5.546875,0.390625 Q7.109375,0.390625 8.1875,1.109375 Q9.28125,1.828125 10.1875,3.375 Q11.109375,4.9375 12.078125,7.421875 Q12.765625,9.21875 13.609375,10.515625 Q14.46875,11.828125 15.265625,12.671875 Q16.078125,13.53125 16.671875,13.953125 Q17.28125,14.375 17.46875,14.375 Q17.78125,14.375 17.78125,14.0625 Q17.78125,13.96875 17.6875,13.8125 Q17.59375,13.65625 17.421875,13.46875 Q16.984375,12.9375 16.640625,11.609375 Q16.3125,10.296875 15.84375,8.09375 Q15.359375,5.78125 14.046875,3.890625 Q12.75,2.015625 10.71875,0.890625 Q8.6875,-0.234375 6.03125,-0.234375 Z" transform="translate(0.2421875, 17.5) scale(1, -1)"/>
</svg>