<svg height="7.515625" viewBox="0 0 24 7.515625" width="24" xmlns="http://www.w3.org/2000/svg">
<path d="M12.8125,2.203125 Q11.28125,0.71875 10.6875,0.359375 Q9.90625,-0.125 9.078125,-0.125 Q8.046875,-0.125 7.484375,0.3125 Q6.9375,0.765625 6.9375,1.515625 Q6.9375,1.703125 6.96875,1.875 Q7.015625,2.046875 7.0625,2.203125 Q6.140625,1.0625 5.109375,0.46875 Q4.078125,-0.125 3.140625,-0.125 Q2.328125,-0.125 1.8125,0.3125 Q1.3125,0.765625 1.3125,1.515625 Q1.3125,1.921875 1.703125,2.828125 Q2.09375,3.75 2.90625,5.15625 Q2.546875,4.796875 2.234375,4.515625 Q1.921875,4.25 1.703125,4.0625 L1.296875,4.53125 Q1.890625,5.09375 2.59375,5.796875 Q3.3125,6.5 3.90625,7.171875 L7.390625,7.390625 L4.890625,2.96875 Q4.203125,1.78125 4.203125,1.3125 Q4.203125,0.953125 4.578125,0.953125 Q5.09375,0.953125 6.640625,2.734375 Q7.421875,3.625 8.140625,4.734375 Q8.875,5.859375 9.546875,7.171875 L13.03125,7.390625 L10.15625,2.296875 Q9.53125,1.171875 9.53125,1.0625 Q9.53125,0.765625 9.859375,0.765625 Q10.4375,0.765625 12.359375,2.6875 Z" transform="translate(4.8359375, 7.390625) scale(1, -1)"/>
</svg>