<svg height="13.609375" viewBox="0 0 24 13.609375" width="24" xmlns="http://www.w3.org/2000/svg">
<path d="M4.5625,-0.234375 Q3.3125,-0.234375 2.484375,0.28125 Q1.65625,0.796875 1.234375,1.609375 Q0.8125,2.421875 0.8125,3.359375 Q0.8125,5.6875 2.640625,6.828125 Q4.484375,7.984375 7.53125,8.09375 L9.859375,8.15625 L9.984375,8.734375 Q10.0625,9.078125 10.0625,9.34375 Q10.0625,10.734375 8.25,10.734375 Q7.296875,10.734375 6.328125,10.453125 Q5.359375,10.171875 4.34375,9.765625 L3.703125,12.1875 Q4.84375,12.75 6.0625,13.0625 Q7.296875,13.375 8.6875,13.375 Q10.9375,13.375 12.25,12.4375 Q13.5625,11.5 13.5625,9.578125 Q13.5625,8.8125 13.34375,7.828125 L11.6875,0 L9.1875,0 L8.875,1.78125 L8.78125,1.78125 Q8.234375,1.203125 7.6875,0.734375 Q7.15625,0.28125 6.421875,0.015625 Q5.6875,-0.234375 4.5625,-0.234375 Z M5.90625,2.375 Q6.671875,2.375 7.375,2.78125 Q8.09375,3.1875 8.609375,3.875 Q9.125,4.578125 9.28125,5.40625 L9.4375,6.078125 L8.015625,6.03125 Q6.484375,5.96875 5.46875,5.375 Q4.46875,4.78125 4.46875,3.59375 Q4.46875,3.140625 4.796875,2.75 Q5.140625,2.375 5.90625,2.375 Z" transform="translate(4.8125, 13.375) scale(1, -1)"/>
</svg>