<svg height="23.828125" viewBox="0 0 24 23.828125" width="24" xmlns="http://www.w3.org/2000/svg">
<path d="M0.40625,-6.59375 Q-0.703125,-6.59375 -1.3125,-5.984375 Q-1.921875,-5.375 -1.921875,-4.390625 Q-1.921875,-2.953125 -0.671875,-1.765625 Q0.578125,-0.578125 2.8125,0.328125 Q5.0625,1.25 8.046875,1.84375 Q8.546875,2.6875 8.8125,3.46875 Q9.078125,4.25 9.078125,5.015625 Q9.078125,5.203125 9.03125,5.5 Q9,5.8125 8.875,6.078125 Q7.796875,5.359375 6.765625,4.984375 Q5.734375,4.609375 4.96875,4.609375 Q3.640625,4.609375 3.640625,5.65625 Q3.640625,6.390625 4.5625,6.890625 Q5.5,7.390625 6.75,7.390625 Q7.375,7.390625 7.953125,7.265625 Q8.546875,7.15625 9.140625,6.84375 Q10.65625,8.046875 11.890625,9.734375 Q13.125,11.421875 13.78125,13.03125 Q13.203125,12.9375 12.578125,12.9375 Q11.421875,12.9375 10.34375,13.4375 Q9.28125,13.9375 8.234375,14.546875 Q7.484375,14.96875 6.890625,15.109375 Q6.3125,15.265625 5.734375,15.265625 Q4.0625,15.265625 2.96875,13.984375 Q1.890625,12.71875 1.890625,10.578125 Q1.890625,10.21875 1.9375,9.828125 Q1.984375,9.453125 1.984375,9.265625 Q1.984375,8.96875 1.796875,8.96875 Q1.421875,8.96875 1.421875,10.6875 Q1.421875,12.53125 2.1875,14 Q2.96875,15.484375 4.28125,16.359375 Q5.609375,17.234375 7.265625,17.234375 Q9.4375,17.234375 11.28125,15.390625 Q12.265625,14.40625 12.90625,13.953125 Q13.5625,13.515625 13.96875,13.515625 Q14.6875,15.40625 15.203125,16.25 Q15.71875,17.109375 16.390625,17.109375 Q16.75,17.109375 17.015625,16.84375 Q17.28125,16.578125 17.28125,16.109375 Q17.28125,15.140625 16.4375,14.3125 Q15.59375,13.484375 14.25,13.15625 Q13.421875,11.046875 12.21875,9.4375 Q11.015625,7.828125 9.546875,6.59375 Q10.4375,6 10.90625,5.125 Q11.375,4.265625 11.375,3.28125 Q11.375,3.171875 11.375,3.046875 Q11.375,2.921875 11.328125,2.765625 Q12.3125,3.234375 13.234375,4 Q14.15625,4.78125 14.96875,5.609375 Q15.796875,6.4375 16.390625,7.078125 Q16.609375,7.296875 16.734375,7.296875 Q16.875,7.296875 16.875,7.15625 Q16.875,7.03125 16.734375,6.859375 Q16.109375,6.125 15.171875,5.171875 Q14.25,4.21875 13.203125,3.40625 Q12.171875,2.59375 11.1875,2.15625 Q10.734375,1.015625 9.828125,-0.203125 Q8.921875,-1.4375 7.734375,-2.578125 Q6.546875,-3.71875 5.234375,-4.625 Q3.9375,-5.546875 2.6875,-6.0625 Q1.4375,-6.59375 0.40625,-6.59375 Z M16.34375,16.6875 Q15.90625,16.6875 15.453125,15.875 Q15,15.078125 14.421875,13.5625 Q14.953125,13.6875 15.515625,14.0625 Q16.078125,14.453125 16.453125,14.96875 Q16.84375,15.5 16.84375,16.109375 Q16.84375,16.34375 16.703125,16.515625 Q16.5625,16.6875 16.34375,16.6875 Z M5.015625,4.984375 Q6.53125,4.984375 8.6875,6.390625 Q7.984375,7.015625 6.640625,7.015625 Q6.1875,7.015625 5.59375,6.875 Q5.015625,6.75 4.5625,6.453125 Q4.125,6.171875 4.125,5.65625 Q4.125,5.359375 4.375,5.171875 Q4.625,4.984375 5.015625,4.984375 Z M0.40625,-6.171875 Q3.265625,-6.171875 7.734375,1.21875 Q5.015625,0.671875 2.953125,-0.171875 Q0.890625,-1.03125 -0.25,-2.109375 Q-1.390625,-3.1875 -1.390625,-4.46875 Q-1.390625,-5.203125 -0.890625,-5.6875 Q-0.390625,-6.171875 0.40625,-6.171875 Z" transform="translate(4.3203125, 17.234375) scale(1, -1)"/>
</svg>