<svg height="7.578125" viewBox="0 0 24 7.578125" width="24" xmlns="http://www.w3.org/2000/svg">
<path d="M2.8125,-0.1875 Q2.109375,-0.1875 1.703125,0.234375 Q1.3125,0.671875 1.3125,1.390625 Q1.3125,2.15625 1.8125,3.125 Q2.328125,4.109375 3.28125,5.5625 Q2.359375,4.609375 1.703125,4.0625 L1.390625,4.375 Q1.75,4.6875 2.296875,5.203125 Q2.859375,5.71875 3.28125,6.125 Q3.71875,6.53125 3.953125,6.765625 Q4.203125,7.015625 4.375,7.21875 L7.21875,7.390625 Q6.234375,5.828125 5.484375,4.640625 Q4.734375,3.453125 4.203125,2.65625 Q3.140625,1.0625 3.140625,0.640625 Q3.140625,0.390625 3.453125,0.390625 Q4.0625,0.390625 5.609375,2.015625 Q6.40625,2.859375 7.34375,4.140625 Q8.28125,5.421875 9.390625,7.21875 L12.390625,7.390625 Q10.65625,4.484375 9.71875,2.859375 Q8.78125,1.25 8.78125,0.75 Q8.78125,0.234375 9.40625,0.234375 Q10.078125,0.234375 10.921875,0.703125 Q11.765625,1.171875 12.546875,2.15625 Q12.234375,2.5 12.078125,2.859375 Q11.921875,3.234375 11.921875,3.578125 Q11.921875,4.46875 12.34375,5.34375 Q12.765625,6.21875 13.375,6.796875 Q13.984375,7.390625 14.5625,7.390625 Q15.484375,7.390625 15.484375,6.34375 Q15.484375,5.453125 14.921875,4.5 Q14.375,3.546875 13.296875,2.359375 Q13.5625,2.28125 13.78125,2.28125 Q14.140625,2.28125 14.53125,2.453125 Q14.921875,2.640625 15.3125,3.09375 L15.578125,2.71875 Q14.6875,1.828125 13.703125,1.828125 Q13.265625,1.828125 12.90625,1.9375 Q11.109375,-0.140625 9.171875,-0.140625 Q8.25,-0.140625 7.671875,0.40625 Q7.109375,0.953125 7.109375,1.921875 Q7.109375,2.65625 7.75,4.03125 Q6.234375,1.890625 5.046875,0.84375 Q3.859375,-0.1875 2.8125,-0.1875 Z M12.859375,2.515625 Q14.65625,4.515625 14.65625,5.296875 Q14.65625,5.640625 14.1875,5.640625 Q13.84375,5.640625 13.4375,5.28125 Q13.03125,4.9375 12.75,4.4375 Q12.484375,3.9375 12.484375,3.4375 Q12.484375,2.765625 12.859375,2.515625 Z" transform="translate(3.5546875, 7.390625) scale(1, -1)"/>
</svg>