<svg height="17.609375" viewBox="0 0 24 17.609375" width="24" xmlns="http://www.w3.org/2000/svg">
<path d="M15.171875,-0.28125 Q14.859375,2.09375 14.65625,3.953125 Q14.46875,5.828125 14.46875,7.21875 Q14.46875,11.09375 15.390625,13.890625 Q14.78125,13.015625 14.078125,11.828125 Q13.375,10.65625 12.453125,8.6875 Q10.875,5.25 9.421875,3.3125 Q7.96875,1.390625 6.578125,0.59375 Q5.1875,-0.1875 3.75,-0.1875 Q2.28125,-0.1875 1.375,0.5625 Q0.484375,1.3125 0.484375,2.65625 Q0.484375,3.859375 1.15625,4.625 Q1.828125,5.40625 2.859375,5.40625 Q3.625,5.40625 4.09375,5 Q4.5625,4.609375 4.5625,3.984375 Q4.5625,3.484375 4.25,3.078125 Q3.953125,2.6875 3.359375,2.609375 Q2.6875,2.515625 2.4375,2.328125 Q2.203125,2.15625 2.203125,1.828125 Q2.203125,1.21875 2.6875,0.90625 Q3.171875,0.59375 3.84375,0.59375 Q5.046875,0.59375 6.125,1.34375 Q7.21875,2.09375 8.1875,3.328125 Q9.171875,4.5625 10.015625,6.0625 Q10.875,7.5625 11.5625,9.046875 Q12.453125,10.96875 13.46875,12.609375 Q14.5,14.25 15.3125,15.234375 Q16.15625,16.21875 16.703125,16.765625 Q17.25,17.328125 17.640625,17.328125 Q18.171875,17.328125 18.171875,16.984375 Q18.171875,16.84375 18.125,16.59375 Q18.078125,16.34375 18.03125,16.078125 Q17.90625,15.4375 17.8125,14.546875 Q17.734375,13.65625 17.703125,12.859375 Q17.6875,12.078125 17.6875,11.71875 Q17.6875,10.5625 17.78125,8.859375 Q17.875,7.15625 18.09375,4.9375 L19.796875,9.046875 Q20.421875,10.515625 20.890625,11.546875 Q21.359375,12.59375 21.75,13.125 Q22.15625,13.6875 22.609375,14 Q23.0625,14.328125 23.5625,14.328125 Q24.71875,14.328125 24.71875,13.46875 Q24.71875,13.078125 24.3125,12.796875 Q23.90625,12.53125 23.15625,12.359375 Q22.3125,12.1875 21.640625,10.984375 Q20.96875,9.796875 20.28125,8.15625 Q19.84375,7.125 19.328125,5.90625 Q18.8125,4.6875 18.265625,3.40625 Q18.3125,2.90625 18.375,2.390625 Q18.4375,1.890625 18.5,1.375 Z" transform="translate(-0.6015625, 17.328125) scale(1, -1)"/>
</svg>