<svg height="21.5625" viewBox="0 0 24 21.5625" width="24" xmlns="http://www.w3.org/2000/svg">
<path d="M1.78125,4.375 Q2.0625,4.625 2.359375,4.921875 Q2.65625,5.234375 2.875,5.453125 Q3.578125,6.140625 3.984375,6.625 Q4.390625,7.125 4.890625,7.875 Q5.140625,8.203125 5.390625,8.59375 Q5.65625,9 6.078125,9.640625 Q6.953125,11.015625 7.84375,12.140625 Q8.734375,13.265625 9.625,13.9375 Q10.53125,14.609375 11.40625,14.609375 Q12.890625,14.609375 12.890625,13.265625 Q12.890625,12.40625 12.015625,11.15625 Q11.15625,9.90625 9.609375,8.5625 Q8.0625,7.21875 6.046875,6 L2.765625,0.28125 Q2.90625,0.265625 3.234375,0.265625 Q4.21875,0.265625 5.125,0.765625 Q6.046875,1.265625 7.15625,2.515625 L7.46875,2.203125 Q6.484375,1.109375 5.484375,0.4375 Q4.484375,-0.21875 3.140625,-0.21875 Q2.953125,-0.21875 2.796875,-0.21875 Q2.65625,-0.21875 2.46875,-0.1875 L-1.25,-6.671875 L-3.59375,-6.953125 L0.890625,0.8125 Q0.546875,1.15625 0.546875,1.515625 Q0.546875,1.875 0.875,2.1875 Q1.203125,2.515625 1.625,2.515625 L1.875,2.515625 L3.671875,5.65625 Q3.171875,5.140625 2.78125,4.765625 Q2.40625,4.390625 2.046875,4.0625 Z M6.1875,6.578125 Q9.125,8.640625 10.53125,10.390625 Q11.953125,12.140625 11.953125,13.421875 Q11.953125,14.15625 11.328125,14.15625 Q9.546875,14.15625 6.1875,6.578125 Z" transform="translate(7.3515625, 14.609375) scale(1, -1)"/>
</svg>