<svg height="14.609375" viewBox="0 0 24 14.609375" width="24" xmlns="http://www.w3.org/2000/svg">
<path d="M0.21875,-7.21875 Q-0.578125,-7.21875 -1.046875,-6.796875 Q-1.515625,-6.390625 -1.515625,-5.8125 Q-1.515625,-4.5625 0.265625,-3.046875 Q1.984375,-1.5625 5.71875,0.09375 Q5.734375,0.171875 5.734375,0.25 Q5.734375,0.34375 5.734375,0.40625 Q5.734375,1.109375 4.96875,1.578125 Q3.953125,0.53125 2.640625,0.53125 Q1.890625,0.53125 1.890625,1.0625 Q1.890625,1.46875 2.46875,1.75 Q2.734375,1.890625 3.125,1.953125 Q3.53125,2.015625 4.03125,2.046875 Q4.25,2.046875 4.46875,2.015625 Q4.6875,1.984375 4.875,1.9375 Q5.5,2.640625 6.28125,3.71875 Q6.125,3.703125 5.921875,3.6875 Q5.734375,3.671875 5.546875,3.671875 Q4.734375,3.671875 4.28125,3.984375 Q3.84375,4.3125 3.84375,4.890625 Q3.84375,5.15625 3.953125,5.46875 Q4.0625,5.78125 4.125,5.921875 Q4.203125,6.078125 4.265625,6.1875 Q4.34375,6.3125 4.375,6.40625 Q3.84375,6.046875 3.265625,5.484375 Q2.6875,4.921875 1.984375,4.0625 L1.65625,4.375 Q2.859375,5.8125 3.84375,6.5625 Q4.828125,7.3125 5.28125,7.3125 Q5.65625,7.3125 5.90625,7.0625 Q6.171875,6.8125 6.171875,6.34375 Q6.171875,5.953125 5.953125,5.546875 Q5.734375,5.15625 5.234375,4.734375 Q5.046875,4.5625 5.046875,4.421875 Q5.046875,4.125 5.5625,4.125 Q5.8125,4.125 6.078125,4.140625 Q6.34375,4.171875 6.59375,4.25 L7.421875,5.5 Q7.75,6.046875 8,6.40625 Q8.25,6.765625 8.453125,6.984375 Q8.8125,7.390625 9.265625,7.390625 Q9.75,7.390625 9.75,6.765625 Q9.75,6.578125 9.625,6.265625 Q9.578125,6.125 9.15625,5.765625 Q8.734375,5.40625 7.984375,4.78125 Q7.25,4.171875 6.59375,3.421875 Q5.953125,2.6875 5.40625,1.84375 Q6.390625,1.4375 6.890625,0.625 Q7.484375,1.015625 7.953125,1.484375 Q8.421875,1.96875 8.859375,2.515625 L9.171875,2.203125 Q8.765625,1.65625 8.28125,1.171875 Q7.796875,0.703125 7.078125,0.21875 Q7.21875,-0.140625 7.21875,-0.5 Q7.21875,-1.4375 6.71875,-2.484375 Q6.21875,-3.53125 5.328125,-4.484375 Q4.4375,-5.453125 3.3125,-6.171875 Q1.65625,-7.21875 0.21875,-7.21875 Z M-0.046875,-6.75 Q1.6875,-6.75 5.46875,-0.453125 Q3.859375,-1.25 2.65625,-1.984375 Q1.46875,-2.734375 0.703125,-3.484375 Q-0.8125,-4.9375 -0.8125,-5.96875 Q-0.8125,-6.34375 -0.59375,-6.546875 Q-0.390625,-6.75 -0.046875,-6.75 Z" transform="translate(7.8828125, 7.390625) scale(1, -1)"/>
</svg>