<svg height="14.234375" viewBox="0 0 24 14.234375" width="24" xmlns="http://www.w3.org/2000/svg">
<path d="M6.046875,2.203125 Q4.75,0.859375 4,0.34375 Q3.265625,-0.171875 2.609375,-0.171875 Q1.890625,-0.171875 1.453125,0.265625 Q1.03125,0.703125 1.03125,1.46875 Q1.03125,2.0625 1.46875,3.109375 Q1.921875,4.15625 2.78125,5.65625 Q2.15625,5.046875 1.109375,4.0625 L0.8125,4.375 Q2.96875,6.390625 3.765625,7.65625 L7.53125,13.796875 L9.84375,14.0625 L3.28125,2.0625 Q3.046875,1.609375 2.890625,1.25 Q2.734375,0.90625 2.734375,0.75 Q2.734375,0.40625 3,0.40625 Q3.3125,0.40625 3.953125,0.90625 Q4.609375,1.421875 5.6875,2.515625 Z" transform="translate(6.671875, 14.0625) scale(1, -1)"/>
</svg>