<svg height="17.515625" viewBox="0 0 24 17.515625" width="24" xmlns="http://www.w3.org/2000/svg">
<path d="M20.609375,13.828125 Q20.28125,13.4375 19.875,12.96875 Q19.46875,12.5 19.03125,11.96875 Q17.015625,9.578125 14.421875,7.015625 Q11.828125,4.46875 8.25,2.15625 Q6.5,1.03125 5.375,0.421875 Q4.265625,-0.1875 4.015625,-0.1875 Q3.625,-0.1875 3.625,0.078125 Q3.625,0.1875 4.171875,0.78125 Q4.734375,1.375 5.765625,2.453125 Q7.015625,3.75 8.21875,5.25 Q9.4375,6.75 10.421875,8.34375 Q11.421875,9.9375 12,11.5 Q12.59375,13.0625 12.59375,14.46875 Q12.59375,15.59375 12.015625,16.203125 Q11.453125,16.828125 10.375,16.828125 Q9.4375,16.828125 8.234375,16.3125 Q7.03125,15.796875 5.796875,14.921875 Q4.578125,14.046875 3.5625,12.953125 Q2.546875,11.875 1.90625,10.71875 Q1.265625,9.578125 1.265625,8.515625 Q1.265625,7.609375 1.75,7.046875 Q2.234375,6.5 2.96875,6.5 Q3.75,6.5 4.9375,7.484375 Q6.140625,8.46875 7.15625,10.25 Q7.65625,11.140625 7.953125,12 Q8.25,12.859375 8.25,13.6875 Q8.25,13.875 8.234375,14.046875 Q8.234375,14.234375 8.234375,14.40625 Q8.234375,14.640625 8.375,14.640625 Q8.5625,14.640625 8.8125,13.875 Q9.078125,13.125 9.078125,11.921875 Q9.078125,10.703125 8.609375,9.625 Q8.15625,8.546875 7.390625,7.703125 Q6.625,6.859375 5.640625,6.390625 Q4.65625,5.921875 3.59375,5.921875 Q2.359375,5.921875 1.59375,6.609375 Q0.84375,7.296875 0.84375,8.515625 Q0.84375,9.640625 1.46875,10.859375 Q2.109375,12.09375 3.171875,13.234375 Q4.25,14.375 5.546875,15.296875 Q6.859375,16.21875 8.21875,16.765625 Q9.59375,17.328125 10.796875,17.328125 Q12.71875,17.328125 13.875,16.109375 Q15.03125,14.90625 15.03125,12.9375 Q15.03125,11.859375 14.46875,10.609375 Q13.921875,9.359375 13.015625,8.15625 Q12.046875,6.90625 10.328125,5.21875 Q8.609375,3.546875 6.046875,1.53125 L6.09375,1.4375 Q8.046875,2.453125 10.3125,4.140625 Q12.59375,5.828125 14.90625,8.109375 Q15.8125,9 16.859375,10.140625 Q17.90625,11.296875 18.890625,12.453125 Q19.890625,13.609375 20.640625,14.5 Q21.40625,15.390625 21.71875,15.765625 Q22.203125,16.34375 22.65625,16.71875 Q23.109375,17.109375 23.203125,17.109375 Q23.421875,17.109375 23.421875,16.921875 Q23.421875,16.796875 23.234375,16.328125 Q23.0625,15.859375 22.828125,15.390625 Q22.421875,14.546875 21.890625,13.375 Q21.359375,12.21875 20.796875,10.890625 Q20.234375,9.578125 19.703125,8.265625 Q19.171875,6.953125 18.75,5.828125 Q18.1875,4.375 17.84375,3.1875 Q17.515625,2.015625 17.453125,1.375 L17.515625,1.34375 Q18.53125,3.171875 19.84375,5.1875 Q21.171875,7.203125 22.6875,9.109375 Q24.21875,11.015625 25.875,12.453125 Q26.59375,13.078125 27.015625,13.359375 Q27.453125,13.65625 27.59375,13.65625 Q27.71875,13.65625 27.71875,13.53125 Q27.71875,13.484375 27.640625,13.390625 Q27.578125,13.3125 27.234375,13.0625 Q24.765625,10.984375 22.921875,8.5625 Q21.078125,6.140625 19.4375,3.359375 Q18.34375,1.46875 17.8125,0.703125 Q17.296875,-0.046875 16.828125,-0.046875 Q16.21875,-0.046875 15.84375,0.84375 Q15.484375,1.75 15.484375,3.03125 Q15.484375,4.171875 15.890625,5.46875 Q16.296875,6.765625 17.1875,8.390625 Q18.078125,10.015625 19.515625,12.078125 L20.6875,13.78125 Z" transform="translate(-2.28125, 17.328125) scale(1, -1)"/>
</svg>