<svg height="8.28125" viewBox="0 0 24 8.28125" width="24" xmlns="http://www.w3.org/2000/svg">
<path d="M7.375,2.515625 Q6.171875,1.34375 5.34375,0.75 Q4.53125,0.171875 3.859375,0 Q3.1875,-0.1875 2.40625,-0.1875 Q1.265625,-0.1875 0.703125,0.328125 Q0.140625,0.84375 0.140625,1.515625 Q0.140625,1.984375 0.453125,2.3125 Q0.765625,2.640625 1.265625,2.640625 Q1.78125,2.640625 2.03125,2.34375 Q2.28125,2.0625 2.28125,1.703125 Q2.28125,1.3125 1.984375,1.046875 Q1.703125,0.796875 1.421875,0.796875 Q1.296875,0.796875 1.25,0.8125 Q1.421875,0.5 1.875,0.5 Q2.71875,0.5 3.28125,1.796875 Q3.578125,2.453125 3.734375,3.28125 Q3.890625,4.125 3.890625,5.15625 Q3.890625,5.375 3.890625,5.59375 Q3.890625,5.828125 3.84375,6.03125 Q3.640625,5.859375 3.265625,5.5 Q2.90625,5.15625 2.484375,4.765625 Q2.0625,4.375 1.734375,4.0625 L1.296875,4.53125 Q1.75,4.96875 2.4375,5.59375 Q3.125,6.234375 4.03125,7.125 Q4.15625,7.25 4.296875,7.484375 Q4.65625,8.09375 4.984375,8.09375 Q5.421875,8.09375 5.421875,7.734375 Q5.421875,7.515625 5.203125,7.296875 Q4.984375,7.078125 4.984375,6.765625 Q4.984375,6.578125 5.203125,6.28125 Q6.28125,4.828125 6.28125,3.5 Q6.28125,2.5 5.734375,1.96875 Q6.359375,2.453125 6.90625,3 Z" transform="translate(8.2421875, 8.09375) scale(1, -1)"/>
</svg>