<svg height="17.609375" viewBox="0 0 24 17.609375" width="24" xmlns="http://www.w3.org/2000/svg">
<path d="M4.78125,-0.234375 Q2.78125,-0.234375 1.6875,0.640625 Q0.59375,1.53125 0.59375,3 Q0.59375,4.078125 1.28125,4.8125 Q1.96875,5.546875 2.921875,5.546875 Q3.640625,5.546875 4.09375,5.140625 Q4.5625,4.734375 4.5625,4.109375 Q4.5625,3.484375 4.15625,3.171875 Q3.75,2.859375 3.140625,2.765625 Q2.609375,2.6875 2.421875,2.484375 Q2.234375,2.28125 2.234375,1.875 Q2.234375,1.3125 2.875,0.84375 Q3.53125,0.390625 4.46875,0.390625 Q5.5625,0.390625 6.421875,1.203125 Q7.296875,2.015625 8.171875,3.59375 Q9.046875,5.1875 10.125,7.515625 Q10.875,9.09375 11.84375,10.8125 Q12.8125,12.53125 14.09375,14.03125 Q15.390625,15.53125 17.046875,16.4375 Q16.6875,16.5625 16.078125,16.65625 Q15.484375,16.75 14.6875,16.75 Q12.4375,16.75 10.421875,16.078125 Q8.40625,15.40625 6.84375,14.328125 Q5.28125,13.25 4.390625,11.96875 Q3.5,10.703125 3.5,9.484375 Q3.5,8.609375 3.984375,8.125 Q4.46875,7.65625 5.203125,7.65625 Q5.90625,7.65625 6.578125,8.109375 Q7.25,8.5625 7.828125,9.296875 Q8.421875,10.03125 8.875,10.875 Q9.34375,11.734375 9.59375,12.5625 Q9.859375,13.390625 9.890625,13.984375 Q9.90625,14.421875 9.984375,14.59375 Q10.0625,14.78125 10.265625,14.78125 Q10.46875,14.78125 10.578125,14.4375 Q10.703125,14.09375 10.765625,13.609375 Q10.84375,13.125 10.84375,12.75 Q10.84375,11.046875 10.140625,9.6875 Q9.4375,8.328125 8.25,7.5625 Q7.078125,6.796875 5.65625,6.796875 Q4.34375,6.796875 3.578125,7.5 Q2.828125,8.203125 2.828125,9.453125 Q2.828125,10.484375 3.40625,11.59375 Q3.984375,12.703125 5.046875,13.734375 Q6.125,14.765625 7.59375,15.59375 Q9.078125,16.421875 10.859375,16.890625 Q12.640625,17.375 14.65625,17.375 Q15.765625,17.375 16.609375,17.234375 Q17.453125,17.109375 17.96875,16.921875 Q18.40625,17.109375 18.890625,17.234375 Q19.375,17.375 19.75,17.375 Q20.28125,17.375 20.28125,17.09375 Q20.28125,16.96875 20.1875,16.875 Q20.09375,16.78125 19.75,16.734375 Q19.515625,16.703125 19.3125,16.640625 Q19.125,16.578125 18.9375,16.515625 Q20.28125,16.0625 21,15.140625 Q21.71875,14.234375 21.71875,13.171875 Q21.71875,11.65625 20.4375,10.421875 Q19.15625,9.1875 16.515625,8.46875 Q17.015625,8.09375 17.3125,7.5 Q17.609375,6.90625 17.609375,6.140625 Q17.609375,5.421875 17.34375,4.46875 Q17.09375,3.53125 16.6875,2.359375 Q16.609375,2.109375 16.5625,1.890625 Q16.515625,1.6875 16.515625,1.515625 Q16.515625,1.0625 16.84375,1.0625 Q17.328125,1.0625 18.046875,1.765625 Q18.765625,2.46875 19.703125,3.796875 Q19.890625,4.0625 20.015625,4.140625 Q20.140625,4.21875 20.234375,4.21875 Q20.5,4.21875 20.5,3.984375 Q20.5,3.84375 20.296875,3.53125 Q19.25,1.828125 18.09375,0.796875 Q16.9375,-0.234375 15.671875,-0.234375 Q14.6875,-0.234375 14.140625,0.234375 Q13.609375,0.71875 13.609375,1.921875 Q13.609375,2.78125 14.09375,3.875 Q14.59375,4.984375 15.078125,5.953125 Q15.3125,6.4375 15.484375,6.953125 Q15.671875,7.46875 15.671875,7.84375 Q15.671875,8.203125 15.53125,8.359375 Q15.21875,8.28125 14.96875,8.28125 Q14.765625,8.28125 14.578125,8.390625 Q14.40625,8.5 14.40625,8.71875 Q14.40625,9.234375 15.125,9.234375 Q15.28125,9.234375 15.40625,9.1875 Q15.546875,9.140625 15.640625,9.09375 Q15.75,9.03125 15.84375,9.015625 Q15.9375,9 16.015625,9 Q16.21875,9 16.6875,9.296875 Q17.15625,9.59375 17.640625,10.1875 Q18.140625,10.78125 18.5,11.609375 Q18.859375,12.453125 18.859375,13.53125 Q18.859375,14.375 18.640625,15.046875 Q18.4375,15.71875 17.953125,16.03125 Q17.15625,15.578125 16.5,14.875 Q15.859375,14.1875 15.359375,13.109375 Q14.859375,12.046875 14.421875,10.421875 Q14.015625,8.8125 13.609375,7.4375 Q13.203125,6.078125 12.671875,5.015625 Q11.359375,2.359375 9.328125,1.0625 Q7.3125,-0.234375 4.78125,-0.234375 Z" transform="translate(0.84375, 17.375) scale(1, -1)"/>
</svg>