<svg height="13.578125" viewBox="0 0 24 13.578125" width="24" xmlns="http://www.w3.org/2000/svg">
<path d="M5.421875,-0.234375 Q4.0625,-0.234375 3.078125,-0.046875 Q2.09375,0.125 1.109375,0.53125 L1.109375,3.484375 Q2.15625,3 3.375,2.6875 Q4.609375,2.375 5.546875,2.375 Q6.59375,2.375 7.03125,2.6875 Q7.484375,3 7.484375,3.5 Q7.484375,3.84375 7.296875,4.109375 Q7.125,4.375 6.515625,4.703125 Q5.921875,5.046875 4.65625,5.5625 Q3.4375,6.09375 2.640625,6.609375 Q1.84375,7.125 1.453125,7.859375 Q1.078125,8.59375 1.078125,9.703125 Q1.078125,11.515625 2.484375,12.421875 Q3.90625,13.34375 6.265625,13.34375 Q7.484375,13.34375 8.59375,13.09375 Q9.703125,12.859375 10.875,12.3125 L9.796875,9.75 Q8.828125,10.15625 7.96875,10.421875 Q7.109375,10.703125 6.21875,10.703125 Q4.625,10.703125 4.625,9.84375 Q4.625,9.53125 4.828125,9.28125 Q5.046875,9.03125 5.625,8.734375 Q6.21875,8.453125 7.375,7.96875 Q8.5,7.515625 9.3125,7.015625 Q10.125,6.53125 10.5625,5.796875 Q11.015625,5.0625 11.015625,3.890625 Q11.015625,1.890625 9.609375,0.828125 Q8.203125,-0.234375 5.421875,-0.234375 Z" transform="translate(5.953125, 13.34375) scale(1, -1)"/>
</svg>