<svg height="21.421875" viewBox="0 0 24 21.421875" width="24" xmlns="http://www.w3.org/2000/svg">
<path d="M7.6875,2.203125 Q6.859375,1.171875 6.15625,0.640625 Q5.453125,0.125 4.828125,-0.046875 Q4.203125,-0.234375 3.578125,-0.234375 Q3.34375,-0.234375 3.234375,-0.21875 L-0.390625,-6.53125 L-3.359375,-6.859375 L1.15625,0.890625 Q0.84375,1.171875 0.84375,1.609375 Q0.84375,2.0625 1.234375,2.390625 Q1.625,2.71875 2.046875,2.71875 L2.15625,2.71875 L4.015625,5.6875 Q3.59375,5.25 3.140625,4.828125 Q2.6875,4.421875 2.1875,4.0625 L1.78125,4.53125 Q2.546875,5.15625 2.984375,5.578125 Q3.4375,6 3.859375,6.453125 Q4.296875,6.9375 4.921875,7.71875 Q5.546875,8.5 6.359375,9.75 Q8.015625,12.234375 9.265625,13.390625 Q10.515625,14.5625 11.765625,14.5625 Q13.53125,14.5625 13.53125,13.125 Q13.53125,12.078125 12.671875,10.828125 Q11.828125,9.578125 10.3125,8.328125 Q8.8125,7.078125 6.796875,5.953125 L3.671875,0.546875 L3.859375,0.546875 Q4.53125,0.546875 5.328125,0.953125 Q6.125,1.375 7.15625,2.6875 Z M6.796875,6.796875 Q9.4375,8.296875 10.71875,9.953125 Q12,11.609375 12,13.078125 Q12,13.484375 11.78125,13.640625 Q11.5625,13.796875 11.375,13.796875 Q10.75,13.796875 9.53125,11.96875 Q8.296875,10.15625 6.796875,6.796875 Z" transform="translate(6.9140625, 14.5625) scale(1, -1)"/>
</svg>