<svg height="14.234375" viewBox="0 0 24 14.234375" width="24" xmlns="http://www.w3.org/2000/svg">
<path d="M12.234375,2.203125 Q11.734375,1.703125 11.328125,1.34375 Q10.921875,0.984375 10.65625,0.75 Q9.59375,-0.140625 8.59375,-0.140625 Q7.84375,-0.140625 7.34375,0.390625 Q6.859375,0.9375 6.859375,1.875 Q6.859375,2.46875 7.109375,2.96875 Q7.21875,3.234375 7.5,3.671875 Q7.796875,4.109375 8.328125,4.703125 L9.703125,6.265625 Q9.796875,6.390625 9.796875,6.484375 Q9.796875,6.59375 9.671875,6.59375 Q9.125,6.59375 7.9375,5.71875 Q7.375,5.25 6.65625,4.46875 Q5.953125,3.703125 5.25,2.640625 L3.546875,0.03125 L0.5,-0.171875 L3.625,5.71875 Q3.234375,5.25 2.796875,4.8125 Q2.375,4.390625 1.984375,4.0625 L1.53125,4.53125 Q2.328125,5.25 3.015625,5.96875 Q3.703125,6.703125 4.34375,7.609375 Q4.984375,8.515625 5.65625,9.75 L7.890625,13.75 L10.796875,14.0625 L5.859375,4.703125 Q8.328125,7.390625 9.9375,7.390625 Q10.703125,7.390625 11.171875,6.859375 Q11.640625,6.34375 11.640625,5.375 Q11.640625,4.6875 11.140625,3.953125 Q10.65625,3.234375 9.859375,2.296875 Q9.09375,1.390625 9.09375,0.984375 Q9.09375,0.75 9.265625,0.75 Q9.453125,0.75 10.09375,1.21875 Q10.734375,1.703125 11.765625,2.6875 Z" transform="translate(5.6328125, 14.0625) scale(1, -1)"/>
</svg>