<svg height="7.53125" viewBox="0 0 24 7.53125" width="24" xmlns="http://www.w3.org/2000/svg">
<path d="M3.984375,-0.140625 Q2.734375,-0.140625 2.0625,0.34375 Q1.390625,0.84375 1.390625,1.796875 Q1.390625,3.03125 2.921875,4.921875 Q3.21875,5.28125 3.21875,5.46875 Q3.21875,5.640625 3.09375,5.640625 Q3,5.640625 2.75,5.4375 Q2.515625,5.234375 1.875,4.53125 L1.484375,4.9375 Q1.75,5.234375 2.125,5.609375 Q2.5,6 2.90625,6.359375 Q3.3125,6.71875 3.625,6.90625 Q4.03125,7.171875 4.328125,7.28125 Q4.625,7.390625 4.921875,7.390625 Q5.8125,7.390625 5.8125,6 Q5.8125,5.46875 5.640625,4.9375 Q5.546875,4.65625 5.28125,4.15625 Q5.015625,3.671875 4.71875,3.15625 Q4.4375,2.65625 4.1875,2.265625 Q3.953125,1.890625 3.890625,1.796875 Q3.765625,1.609375 3.671875,1.421875 Q3.59375,1.25 3.59375,1.109375 Q3.59375,0.671875 4.171875,0.671875 Q5.71875,0.671875 7.171875,2.0625 Q7.015625,2.1875 6.734375,2.640625 Q6.453125,3.09375 6.453125,3.796875 Q6.453125,4.609375 6.828125,5.4375 Q7.21875,6.265625 7.8125,6.828125 Q8.40625,7.390625 8.96875,7.390625 Q9.625,7.390625 9.9375,6.96875 Q10.25,6.546875 10.25,5.921875 Q10.25,4.203125 8.46875,2.375 Q8.875,2.375 9.359375,2.671875 Q9.84375,2.96875 10.296875,3.453125 L10.75,2.96875 Q10.078125,2.328125 9.484375,2.03125 Q8.90625,1.734375 8.015625,1.734375 L7.875,1.734375 Q6.8125,0.75 5.890625,0.296875 Q4.984375,-0.140625 3.984375,-0.140625 Z M7.75,2.515625 Q8.40625,3.09375 8.859375,3.890625 Q9.3125,4.703125 9.3125,5.359375 Q9.3125,5.8125 8.828125,5.8125 Q8.453125,5.8125 8.09375,5.484375 Q7.734375,5.15625 7.484375,4.6875 Q7.25,4.21875 7.25,3.75 Q7.25,3.28125 7.421875,2.9375 Q7.609375,2.609375 7.75,2.515625 Z" transform="translate(5.9296875, 7.390625) scale(1, -1)"/>
</svg>