<svg height="16.125" viewBox="0 0 24 16.125" width="24" xmlns="http://www.w3.org/2000/svg">
<path d="M6.359375,-0.234375 Q5.1875,-0.234375 4.265625,0.140625 Q3.34375,0.53125 2.796875,1.46875 Q2.25,2.421875 2.25,4.109375 L2.25,10.421875 L0.546875,10.421875 L0.546875,11.921875 L2.515625,13.125 L3.546875,15.890625 L5.828125,15.890625 L5.828125,13.109375 L9.5,13.109375 L9.5,10.421875 L5.828125,10.421875 L5.828125,4.109375 Q5.828125,3.359375 6.265625,2.984375 Q6.703125,2.609375 7.390625,2.609375 Q7.984375,2.609375 8.53125,2.734375 Q9.09375,2.859375 9.640625,3.03125 L9.640625,0.359375 Q9.078125,0.125 8.21875,-0.046875 Q7.375,-0.234375 6.359375,-0.234375 Z" transform="translate(6.90625, 15.890625) scale(1, -1)"/>
</svg>