<svg height="17.5625" viewBox="0 0 24 17.5625" width="24" xmlns="http://www.w3.org/2000/svg">
<path d="M5.09375,-0.234375 Q2.953125,-0.234375 1.765625,0.640625 Q0.59375,1.515625 0.59375,2.859375 Q0.59375,3.8125 1.171875,4.515625 Q1.75,5.234375 2.640625,5.234375 Q3.34375,5.234375 3.75,4.90625 Q4.15625,4.578125 4.15625,4.015625 Q4.15625,3.453125 3.75,3.125 Q3.34375,2.8125 2.8125,2.734375 Q2.28125,2.65625 1.90625,2.5 Q1.53125,2.359375 1.53125,1.890625 Q1.53125,1.390625 1.96875,0.984375 Q2.421875,0.59375 3.140625,0.359375 Q3.859375,0.140625 4.6875,0.140625 Q6.53125,0.140625 8.296875,1.765625 Q10.078125,3.40625 11.328125,6.75 Q9.765625,6.75 8.578125,7.296875 Q7.390625,7.84375 6.734375,8.8125 Q6.09375,9.796875 6.09375,11.015625 Q6.09375,12.4375 6.828125,13.578125 Q7.578125,14.734375 8.8125,15.578125 Q10.0625,16.421875 11.578125,16.875 Q13.109375,17.328125 14.6875,17.328125 Q15.75,17.328125 16,17.25 Q16.25,17.1875 16.25,17.0625 Q16.25,16.890625 16.03125,16.890625 Q15.859375,16.890625 15.515625,16.90625 Q15.1875,16.9375 14.953125,16.9375 Q13.625,16.9375 12.296875,16.421875 Q10.96875,15.90625 9.890625,14.984375 Q8.8125,14.0625 8.140625,12.84375 Q7.484375,11.640625 7.484375,10.25 Q7.484375,8.828125 8.4375,7.96875 Q9.390625,7.125 11.109375,7.125 L11.515625,7.125 Q12.390625,9.390625 13.5,11.25 Q14.609375,13.109375 15.828125,14.46875 Q17.0625,15.84375 18.265625,16.578125 Q19.484375,17.328125 20.5625,17.328125 Q21.453125,17.328125 22.0625,16.703125 Q22.6875,16.078125 22.6875,15.140625 Q22.6875,13.78125 21.640625,12.328125 Q20.609375,10.875 18.75,9.53125 Q16.890625,8.1875 14.359375,7.15625 Q13.84375,5.5 12.875,4.140625 Q11.921875,2.78125 10.65625,1.796875 Q9.40625,0.8125 7.96875,0.28125 Q6.546875,-0.234375 5.09375,-0.234375 Z M14.46875,7.65625 Q16.125,8.359375 17.484375,9.328125 Q18.84375,10.3125 19.8125,11.421875 Q20.78125,12.53125 21.296875,13.59375 Q21.8125,14.65625 21.8125,15.484375 Q21.8125,16.9375 20.609375,16.9375 Q19.84375,16.9375 18.953125,16.3125 Q18.078125,15.703125 17.359375,14.640625 Q16.609375,13.53125 15.921875,11.796875 Q15.234375,10.078125 14.46875,7.65625 Z" transform="translate(0.359375, 17.328125) scale(1, -1)"/>
</svg>