<svg height="24" viewBox="0 0 24 24" width="24" xmlns="http://www.w3.org/2000/svg">
<path d="M1.875,0 L1.875,13.109375 L4.609375,13.109375 L5.09375,11.421875 L5.28125,11.421875 Q5.875,12.4375 6.921875,12.890625 Q7.96875,13.34375 9.09375,13.34375 Q10.53125,13.34375 11.53125,12.875 Q12.546875,12.40625 13.078125,11.421875 L13.390625,11.421875 Q13.984375,12.4375 15.046875,12.890625 Q16.125,13.34375 17.25,13.34375 Q19.484375,13.34375 20.625,12.203125 Q21.765625,11.0625 21.765625,8.546875 L21.765625,0 L18.1875,0 L18.1875,7.65625 Q18.1875,10.484375 16.21875,10.484375 Q14.8125,10.484375 14.203125,9.46875 Q13.609375,8.46875 13.609375,6.578125 L13.609375,0 L10.03125,0 L10.03125,7.65625 Q10.03125,10.484375 8.0625,10.484375 Q6.578125,10.484375 6.015625,9.359375 Q5.453125,8.25 5.453125,6.171875 L5.453125,0 Z" transform="translate(0.1796875, 13.34375) scale(1, -1)"/>
</svg>