<svg height="17.640625" viewBox="0 0 24 17.640625" width="24" xmlns="http://www.w3.org/2000/svg">
<path d="M7.78125,-0.234375 Q4.796875,-0.234375 3.109375,1.46875 Q1.4375,3.171875 1.4375,6.4375 Q1.4375,8.609375 2.078125,10.59375 Q2.71875,12.578125 3.984375,14.09375 Q5.25,15.625 7.125,16.515625 Q9,17.40625 11.46875,17.40625 Q14.046875,17.40625 16.265625,16.25 L14.921875,13.296875 Q14.0625,13.78125 13.203125,14.046875 Q12.34375,14.328125 11.296875,14.328125 Q9.71875,14.328125 8.546875,13.65625 Q7.390625,12.984375 6.625,11.859375 Q5.859375,10.75 5.46875,9.40625 Q5.09375,8.0625 5.09375,6.71875 Q5.09375,4.828125 5.90625,3.8125 Q6.71875,2.8125 8.546875,2.8125 Q9.140625,2.8125 9.578125,2.890625 Q10.03125,2.96875 10.53125,3.09375 L11.296875,6.59375 L8.1875,6.59375 L8.828125,9.625 L15.4375,9.625 L13.53125,0.703125 Q12.359375,0.3125 11.046875,0.03125 Q9.75,-0.234375 7.78125,-0.234375 Z" transform="translate(3.1484375, 17.40625) scale(1, -1)"/>
</svg>