<svg height="24" viewBox="0 0 24 24" width="24" xmlns="http://www.w3.org/2000/svg">
<path d="M2.453125,0 L2.453125,10.421875 L0.484375,10.421875 L0.484375,12.140625 L2.453125,13.109375 L2.453125,14.0625 Q2.453125,15.75 3.015625,16.671875 Q3.578125,17.59375 4.609375,17.96875 Q5.65625,18.359375 7.078125,18.359375 Q8.140625,18.359375 8.984375,18.1875 Q9.84375,18.03125 10.375,17.8125 L9.453125,15.1875 Q9.046875,15.3125 8.5625,15.421875 Q8.09375,15.53125 7.46875,15.53125 Q6.71875,15.53125 6.375,15.0625 Q6.03125,14.609375 6.03125,13.921875 L6.03125,13.109375 L9.125,13.109375 L9.125,10.421875 L6.03125,10.421875 L6.03125,0 Z" transform="translate(6.5703125, 18.359375) scale(1, -1)"/>
</svg>