<svg height="17.5625" viewBox="0 0 24 17.5625" width="24" xmlns="http://www.w3.org/2000/svg">
<path d="M4.390625,-0.234375 Q3.640625,-0.234375 2.84375,-0.078125 Q2.046875,0.078125 1.484375,0.4375 Q0.9375,0.8125 0.9375,1.484375 Q0.9375,2.109375 1.546875,2.53125 Q2.15625,2.953125 3.265625,2.953125 Q4.109375,2.953125 5.203125,2.75 Q6.3125,2.546875 7.53125,2.09375 Q8.09375,2.65625 8.75,3.734375 Q9.40625,4.828125 10.203125,6.4375 L11.5,9.03125 Q12.484375,10.984375 13.671875,12.53125 Q14.875,14.09375 16.078125,15.03125 Q15.125,15.9375 13.921875,16.3125 Q12.71875,16.703125 11.5625,16.703125 Q10.171875,16.703125 8.890625,16.1875 Q7.625,15.671875 6.5625,14.796875 Q5.515625,13.921875 4.734375,12.84375 Q3.953125,11.765625 3.53125,10.625 Q3.125,9.484375 3.125,8.453125 Q3.125,7.5625 3.640625,6.984375 Q4.171875,6.40625 5.046875,6.40625 Q6.125,6.40625 7.046875,6.984375 Q7.984375,7.5625 8.71875,8.515625 Q9.453125,9.484375 9.890625,10.65625 Q10.34375,11.828125 10.46875,13.03125 Q10.515625,13.390625 10.578125,13.765625 Q10.65625,14.140625 10.84375,14.140625 Q11.0625,14.140625 11.15625,13.78125 Q11.25,13.4375 11.25,13.03125 Q11.25,11.859375 10.765625,10.5625 Q10.296875,9.28125 9.4375,8.171875 Q8.59375,7.078125 7.453125,6.375 Q6.3125,5.6875 4.96875,5.6875 Q3.125,5.6875 1.984375,6.71875 Q0.84375,7.75 0.84375,9.34375 Q0.84375,10.921875 1.734375,12.359375 Q2.640625,13.796875 4.15625,14.90625 Q5.6875,16.03125 7.5625,16.671875 Q9.453125,17.328125 11.421875,17.328125 Q14.734375,17.328125 16.75,15.5 Q17.828125,16.171875 18.71875,16.171875 Q19.078125,16.171875 19.078125,15.984375 Q19.078125,15.859375 18.921875,15.75 Q18.765625,15.640625 18.140625,15.3125 Q17.765625,15.09375 17.421875,14.8125 Q18.21875,13.796875 18.640625,12.453125 Q19.078125,11.109375 19.078125,9.453125 Q19.078125,7.421875 18.515625,5.65625 Q17.953125,3.890625 16.921875,2.59375 Q15.890625,1.296875 14.484375,0.5625 Q13.078125,-0.171875 11.40625,-0.171875 Q9.671875,-0.171875 8.140625,0.578125 Q6.265625,-0.234375 4.390625,-0.234375 Z M9.625,1.296875 Q10.828125,0.796875 11.6875,0.796875 Q13.171875,0.796875 14.359375,1.46875 Q15.546875,2.15625 16.390625,3.359375 Q17.234375,4.5625 17.671875,6.109375 Q18.125,7.65625 18.125,9.40625 Q18.125,10.96875 17.765625,12.140625 Q17.421875,13.3125 16.828125,14.15625 Q16.25,13.390625 15.78125,12.203125 Q15.3125,11.015625 14.875,9.390625 Q14.421875,7.609375 13.625,6.015625 Q12.84375,4.4375 11.8125,3.203125 Q10.78125,1.984375 9.625,1.296875 Z M4.15625,0.484375 Q4.875,0.484375 5.578125,0.6875 Q6.28125,0.90625 6.84375,1.34375 Q5.8125,1.828125 4.9375,2.078125 Q4.0625,2.328125 3.34375,2.328125 Q2.640625,2.328125 2.234375,2.078125 Q1.84375,1.84375 1.84375,1.484375 Q1.84375,1.125 2.203125,0.890625 Q2.5625,0.671875 3.09375,0.578125 Q3.625,0.484375 4.15625,0.484375 Z" transform="translate(2.0390625, 17.328125) scale(1, -1)"/>
</svg>