<svg height="17.5625" viewBox="0 0 24 17.5625" width="24" xmlns="http://www.w3.org/2000/svg">
<path d="M4.96875,-0.234375 Q3.21875,-0.234375 2.078125,1 Q0.953125,2.25 0.953125,4.4375 Q0.953125,5.953125 1.609375,7.46875 Q2.28125,9 3.421875,10.4375 Q4.5625,11.875 5.96875,13.125 Q7.390625,14.375 8.9375,15.3125 Q10.484375,16.265625 11.984375,16.796875 Q13.484375,17.328125 14.734375,17.328125 Q16.078125,17.328125 16.859375,16.71875 Q17.640625,16.109375 17.640625,15.03125 Q17.640625,14.046875 17.296875,14.046875 Q17.140625,14.046875 17.140625,14.25 Q17.140625,14.328125 17.140625,14.4375 Q17.15625,14.546875 17.1875,14.640625 Q17.203125,14.765625 17.203125,14.84375 Q17.203125,14.921875 17.203125,14.96875 Q17.203125,15.890625 16.5625,16.40625 Q15.9375,16.921875 14.921875,16.921875 Q13.578125,16.921875 12.078125,16.09375 Q10.578125,15.265625 8.984375,13.4375 Q7.390625,11.609375 5.734375,8.609375 Q4.484375,6.359375 3.875,4.703125 Q3.28125,3.046875 3.28125,1.96875 Q3.28125,0.1875 5.109375,0.1875 Q6.28125,0.1875 7.46875,0.859375 Q8.65625,1.53125 9.78125,2.65625 Q10.921875,3.796875 11.890625,5.140625 Q12.859375,6.5 13.609375,7.890625 Q14.359375,9.28125 14.765625,10.5 Q15.1875,11.71875 15.1875,12.5 Q15.1875,13.796875 14.015625,13.796875 Q13.296875,13.796875 12.359375,13.140625 Q11.421875,12.484375 10.4375,11.265625 Q9.453125,10.0625 8.546875,8.40625 Q7.875,7.15625 7.359375,5.921875 Q6.859375,4.6875 6.53125,3.40625 L6.34375,2.65625 Q6.265625,2.421875 6.125,2.421875 Q5.90625,2.421875 5.90625,2.828125 Q5.90625,3.359375 6.171875,4.265625 Q6.453125,5.1875 6.9375,6.28125 Q7.4375,7.390625 8.0625,8.546875 Q8.6875,9.703125 9.40625,10.71875 Q10.125,11.734375 10.84375,12.484375 Q11.71875,13.34375 12.546875,13.75 Q13.390625,14.15625 14.15625,14.15625 Q14.96875,14.15625 15.484375,13.546875 Q16.015625,12.953125 16.015625,11.875 Q16.015625,10.78125 15.5,9.453125 Q15,8.140625 14.125,6.765625 Q13.265625,5.40625 12.15625,4.15625 Q11.046875,2.90625 9.796875,1.90625 Q8.5625,0.90625 7.328125,0.328125 Q6.09375,-0.234375 4.96875,-0.234375 Z" transform="translate(2.703125, 17.328125) scale(1, -1)"/>
</svg>