<svg height="17.609375" viewBox="0 0 24 17.609375" width="24" xmlns="http://www.w3.org/2000/svg">
<path d="M4.65625,-0.234375 Q3.359375,-0.234375 2.28125,0.046875 Q1.21875,0.34375 0.484375,0.8125 L0.484375,4.03125 Q1.53125,3.4375 2.5625,3.09375 Q3.59375,2.765625 4.6875,2.765625 Q5.875,2.765625 6.671875,3.21875 Q7.46875,3.671875 7.46875,4.625 Q7.46875,5.609375 6.90625,6.1875 Q6.34375,6.765625 5.40625,7.421875 Q4.6875,7.921875 4.015625,8.578125 Q3.34375,9.234375 2.90625,10.109375 Q2.46875,10.984375 2.46875,12.171875 Q2.46875,13.703125 3.1875,14.859375 Q3.90625,16.03125 5.234375,16.703125 Q6.578125,17.375 8.359375,17.375 Q9.703125,17.375 10.828125,17.078125 Q11.953125,16.796875 13.015625,16.21875 L11.734375,13.484375 Q9.90625,14.359375 8.359375,14.359375 Q7.390625,14.359375 6.765625,13.828125 Q6.140625,13.3125 6.140625,12.4375 Q6.140625,11.515625 6.6875,10.96875 Q7.25,10.4375 8.25,9.765625 Q9.671875,8.828125 10.375,7.703125 Q11.09375,6.578125 11.09375,5.0625 Q11.09375,3.265625 10.21875,2.078125 Q9.34375,0.90625 7.890625,0.328125 Q6.4375,-0.234375 4.65625,-0.234375 Z" transform="translate(5.25, 17.375) scale(1, -1)"/>
</svg>