<svg height="24" viewBox="0 0 24 24" width="24" xmlns="http://www.w3.org/2000/svg">
<path d="M0.4375,0 L3.21875,13.109375 L5.90625,13.109375 L5.65625,10.6875 L5.765625,10.6875 Q6.53125,11.859375 7.515625,12.59375 Q8.515625,13.34375 9.890625,13.34375 Q11.234375,13.34375 11.96875,12.625 Q12.71875,11.921875 12.953125,10.6875 L13.0625,10.6875 Q13.796875,11.859375 14.828125,12.59375 Q15.859375,13.34375 17.234375,13.34375 Q18.859375,13.34375 19.671875,12.3125 Q20.5,11.296875 20.5,9.578125 Q20.5,8.71875 20.234375,7.46875 L18.671875,0 L15.140625,0 L16.75,7.65625 Q16.9375,8.5 16.9375,9.046875 Q16.9375,10.484375 15.796875,10.484375 Q15,10.484375 14.34375,9.8125 Q13.703125,9.140625 13.21875,8 Q12.75,6.859375 12.453125,5.453125 L11.328125,0 L7.796875,0 L9.40625,7.65625 Q9.59375,8.5 9.59375,9.046875 Q9.59375,10.484375 8.453125,10.484375 Q7.65625,10.484375 7,9.796875 Q6.359375,9.125 5.890625,7.96875 Q5.421875,6.8125 5.109375,5.421875 L3.953125,0 Z" transform="translate(1.53125, 13.34375) scale(1, -1)"/>
</svg>