<svg height="23.421875" viewBox="0 0 24 23.421875" width="24" xmlns="http://www.w3.org/2000/svg">
<path d="M8.59375,15 Q8.109375,15 7.78125,15.296875 Q7.46875,15.59375 7.46875,16.125 Q7.46875,16.75 7.828125,17.203125 Q8.203125,17.65625 8.875,17.65625 Q9.953125,17.65625 9.953125,16.578125 Q9.953125,15.84375 9.515625,15.421875 Q9.09375,15 8.59375,15 Z M1.96875,-5.765625 Q1.078125,-5.765625 0.484375,-5.515625 L0.484375,-3.75 Q0.765625,-3.84375 1.125,-3.921875 Q1.484375,-4.015625 1.875,-4.015625 Q3.34375,-4.015625 3.84375,-1.65625 L6.90625,12.859375 L9,12.859375 L5.875,-1.84375 Q5.5,-3.640625 4.625,-4.703125 Q3.75,-5.765625 1.96875,-5.765625 Z" transform="translate(6.78125, 17.65625) scale(1, -1)"/>
</svg>