<svg height="14.234375" viewBox="0 0 24 14.234375" width="24" xmlns="http://www.w3.org/2000/svg">
<path d="M9.546875,2.453125 Q9.078125,2.140625 8.59375,1.96875 Q8.109375,1.796875 7.609375,1.796875 Q7.3125,1.796875 7.03125,1.875 Q5.0625,-0.171875 3.234375,-0.171875 Q2.46875,-0.171875 2.03125,0.265625 Q1.609375,0.71875 1.609375,1.53125 Q1.609375,2.421875 2.15625,3.484375 Q2.40625,3.9375 2.71875,4.484375 Q3.03125,5.046875 3.34375,5.65625 Q2.828125,5.0625 2.484375,4.734375 Q2.140625,4.421875 1.78125,4.109375 L1.484375,4.46875 Q2.5,5.40625 3.3125,6.296875 Q4.125,7.203125 4.75,8.234375 L8.234375,13.828125 L10.6875,14.0625 L5.5,5.453125 Q5.1875,4.921875 4.765625,4.140625 Q4.34375,3.359375 3.9375,2.578125 Q3.546875,1.796875 3.28125,1.21875 Q3.03125,0.640625 3.03125,0.546875 Q3.03125,0.21875 3.40625,0.21875 Q3.9375,0.21875 4.828125,0.640625 Q5.71875,1.078125 6.671875,2.0625 Q6.046875,2.828125 6.046875,3.75 Q6.046875,4.578125 6.453125,5.421875 Q6.859375,6.265625 7.4375,6.828125 Q8.015625,7.390625 8.515625,7.390625 Q9.40625,7.390625 9.40625,6 Q9.40625,4.015625 7.421875,2.234375 Q7.515625,2.203125 7.6875,2.203125 Q8.0625,2.203125 8.484375,2.375 Q8.90625,2.546875 9.34375,2.828125 Z M6.984375,2.40625 Q8.59375,3.84375 8.59375,4.890625 Q8.59375,5.515625 8.015625,5.515625 Q7.484375,5.515625 6.984375,4.921875 Q6.5,4.34375 6.5,3.578125 Q6.5,2.875 6.984375,2.40625 Z" transform="translate(5.9140625, 14.0625) scale(1, -1)"/>
</svg>