<svg height="17.5625" viewBox="0 0 24 17.5625" width="24" xmlns="http://www.w3.org/2000/svg">
<path d="M4.703125,-0.234375 Q4.53125,-0.234375 4.53125,-0.078125 Q4.53125,0 4.609375,0.171875 Q4.703125,0.34375 4.796875,0.5 Q5.28125,1.265625 5.625,2.421875 Q5.96875,3.578125 6.125,4.65625 Q6.390625,6.71875 7.453125,9.15625 Q8.515625,11.59375 10.390625,14.0625 L10.375,14.109375 Q9.234375,13.15625 8.171875,12.421875 Q7.109375,11.6875 6.28125,11.28125 Q5.453125,10.890625 4.984375,10.890625 Q4.515625,10.890625 4.171875,11.203125 Q3.84375,11.515625 3.84375,12 Q3.84375,12.28125 4.109375,12.78125 Q4.390625,13.296875 4.703125,13.78125 Q5.015625,14.234375 5.28125,14.65625 Q5.5625,15.09375 5.5625,15.1875 Q5.5625,15.359375 5.234375,15.359375 Q4.515625,15.359375 3.03125,14.046875 Q2.859375,13.890625 2.453125,13.5 Q2.0625,13.109375 1.640625,12.640625 Q1.21875,12.171875 0.9375,11.765625 Q0.578125,11.25 0.4375,11.25 Q0.234375,11.25 0.234375,11.453125 Q0.234375,11.546875 0.59375,12.015625 Q0.953125,12.484375 1.53125,13.109375 Q2.109375,13.75 2.796875,14.359375 Q3.5,14.96875 4.1875,15.375 Q4.875,15.796875 5.421875,15.796875 Q6.046875,15.796875 6.328125,15.453125 Q6.625,15.125 6.625,14.6875 Q6.625,14.046875 6.328125,13.515625 Q6.046875,12.984375 5.421875,12.21875 Q5.296875,12.046875 5.1875,11.890625 Q5.09375,11.734375 5.09375,11.609375 Q5.09375,11.375 5.328125,11.375 Q5.453125,11.375 5.9375,11.578125 Q6.4375,11.78125 6.84375,12.03125 Q9.171875,13.421875 11.421875,15.5 Q12.1875,16.203125 12.734375,16.671875 Q13.296875,17.140625 13.390625,17.140625 Q13.578125,17.140625 13.578125,16.96875 Q13.578125,16.875 13.390625,16.640625 Q13.21875,16.421875 12.984375,16.15625 Q12.4375,15.53125 11.96875,14.734375 Q11.5,13.9375 11.0625,12.828125 Q10.625,11.734375 10.171875,10.15625 L9.671875,8.421875 Q9.171875,6.671875 8.609375,5.390625 Q8.0625,4.109375 7.3125,2.984375 Q6.578125,1.875 5.46875,0.59375 L5.515625,0.546875 Q7.75,1.96875 9.359375,3.5625 Q10.96875,5.15625 12.28125,7.0625 Q13.609375,8.96875 14.953125,11.359375 Q15.859375,12.953125 16.671875,14.15625 Q17.5,15.359375 18.171875,16.03125 Q18.8125,16.6875 19.1875,17 Q19.578125,17.328125 19.796875,17.328125 Q19.921875,17.328125 19.921875,17.1875 Q19.921875,17.09375 19.65625,16.875 Q18.09375,15.53125 17.03125,13.90625 Q15.984375,12.28125 15.078125,10.65625 Q13.578125,8.015625 12.25,6.21875 Q10.921875,4.421875 9.671875,3.234375 Q8.421875,2.046875 7.21875,1.171875 Q6.3125,0.53125 5.65625,0.140625 Q5.015625,-0.234375 4.703125,-0.234375 Z" transform="translate(1.921875, 17.328125) scale(1, -1)"/>
</svg>