<svg height="17.640625" viewBox="0 0 24 17.640625" width="24" xmlns="http://www.w3.org/2000/svg">
<path d="M9.546875,-0.234375 Q6.765625,-0.234375 4.953125,0.859375 Q3.140625,1.96875 2.265625,3.953125 Q1.390625,5.953125 1.390625,8.609375 Q1.390625,11.28125 2.265625,13.25 Q3.140625,15.21875 4.953125,16.3125 Q6.765625,17.40625 9.578125,17.40625 Q12.359375,17.40625 14.15625,16.3125 Q15.953125,15.21875 16.828125,13.234375 Q17.71875,11.25 17.71875,8.59375 Q17.71875,5.921875 16.828125,3.9375 Q15.953125,1.96875 14.15625,0.859375 Q12.359375,-0.234375 9.546875,-0.234375 Z M9.546875,2.8125 Q11.875,2.8125 12.875,4.359375 Q13.890625,5.90625 13.890625,8.59375 Q13.890625,11.296875 12.875,12.828125 Q11.875,14.375 9.578125,14.375 Q7.265625,14.375 6.234375,12.828125 Q5.203125,11.296875 5.203125,8.59375 Q5.203125,5.90625 6.234375,4.359375 Q7.265625,2.8125 9.546875,2.8125 Z" transform="translate(2.4453125, 17.40625) scale(1, -1)"/>
</svg>