<svg height="7.5625" viewBox="0 0 24 7.5625" width="24" xmlns="http://www.w3.org/2000/svg">
<path d="M3.40625,-0.171875 Q2.15625,-0.171875 1.4375,0.5 Q0.71875,1.171875 0.71875,2.359375 Q0.71875,3.28125 1.28125,4.1875 Q1.84375,5.09375 2.734375,5.8125 Q3.640625,6.53125 4.65625,6.953125 Q5.6875,7.390625 6.578125,7.390625 Q7.578125,7.390625 8.171875,6.984375 Q8.78125,6.59375 8.78125,5.875 Q8.78125,5.40625 8.46875,4.984375 Q8.15625,4.578125 7.53125,4.578125 Q7.125,4.578125 6.890625,4.828125 Q6.671875,5.09375 6.671875,5.46875 Q6.671875,5.734375 6.890625,6.0625 Q7.125,6.390625 7.484375,6.484375 Q7.265625,6.640625 7.109375,6.640625 Q6.796875,6.640625 6.328125,6.203125 Q5.875,5.78125 5.375,5.109375 Q4.875,4.4375 4.40625,3.671875 Q3.953125,2.921875 3.671875,2.234375 Q3.40625,1.5625 3.40625,1.15625 Q3.40625,0.578125 4.03125,0.578125 Q4.4375,0.578125 4.921875,0.78125 Q5.40625,0.984375 5.859375,1.296875 Q6.4375,1.703125 6.796875,2.015625 Q7.171875,2.328125 7.53125,2.6875 L8.015625,2.203125 Q6.796875,1.03125 5.6875,0.421875 Q4.578125,-0.171875 3.40625,-0.171875 Z" transform="translate(7.25, 7.390625) scale(1, -1)"/>
</svg>