<svg height="24.125" viewBox="0 0 24 24.125" width="24" xmlns="http://www.w3.org/2000/svg">
<path d="M2.015625,-5.765625 Q1.5625,-5.765625 1.171875,-5.6875 Q0.796875,-5.609375 0.484375,-5.515625 L0.484375,-3.75 Q0.8125,-3.84375 1.125,-3.921875 Q1.4375,-4.015625 1.828125,-4.015625 Q2.6875,-4.015625 3.15625,-3.296875 Q3.640625,-2.59375 3.9375,-1.265625 L6.578125,11.25 L4.34375,11.25 L4.515625,12.140625 L6.90625,12.9375 L7.171875,14.09375 Q7.5625,15.75 8.125,16.671875 Q8.6875,17.59375 9.53125,17.96875 Q10.375,18.359375 11.546875,18.359375 Q12.140625,18.359375 12.78125,18.21875 Q13.421875,18.09375 13.796875,17.90625 L13.25,16.296875 Q12.90625,16.421875 12.515625,16.515625 Q12.125,16.625 11.640625,16.625 Q10.703125,16.625 10.15625,16.09375 Q9.625,15.578125 9.28125,14.09375 L9,12.859375 L11.765625,12.859375 L11.453125,11.25 L8.6875,11.25 L6,-1.515625 Q5.59375,-3.5 4.671875,-4.625 Q3.75,-5.765625 2.015625,-5.765625 Z" transform="translate(4.859375, 18.359375) scale(1, -1)"/>
</svg>