<svg height="13.578125" viewBox="0 0 24 13.578125" width="24" xmlns="http://www.w3.org/2000/svg">
<path d="M6.234375,-0.234375 Q3.9375,-0.234375 2.5,1.015625 Q1.0625,2.28125 1.0625,4.828125 Q1.0625,6.484375 1.515625,8 Q1.984375,9.53125 2.90625,10.71875 Q3.84375,11.921875 5.203125,12.625 Q6.578125,13.34375 8.375,13.34375 Q10.578125,13.34375 11.671875,12.328125 Q12.765625,11.328125 12.765625,9.765625 Q12.765625,7.703125 10.90625,6.453125 Q9.046875,5.203125 5.234375,5.203125 L4.625,5.203125 Q4.609375,5.0625 4.609375,4.953125 Q4.609375,4.84375 4.609375,4.734375 Q4.609375,3.671875 5.21875,3.046875 Q5.828125,2.421875 6.9375,2.421875 Q7.96875,2.421875 8.796875,2.65625 Q9.640625,2.90625 10.796875,3.4375 L10.796875,0.765625 Q9.765625,0.265625 8.703125,0.015625 Q7.65625,-0.234375 6.234375,-0.234375 Z M5.015625,7.578125 L5.546875,7.578125 Q7.578125,7.578125 8.484375,8.21875 Q9.390625,8.859375 9.390625,9.703125 Q9.390625,10.796875 8.15625,10.796875 Q7.515625,10.796875 6.859375,10.390625 Q6.21875,9.984375 5.71875,9.265625 Q5.234375,8.546875 5.015625,7.578125 Z" transform="translate(5.0859375, 13.34375) scale(1, -1)"/>
</svg>