<svg height="19.109375" viewBox="0 0 24 19.109375" width="24" xmlns="http://www.w3.org/2000/svg">
<path d="M1.875,-5.765625 L1.875,13.109375 L4.78125,13.109375 L5.28125,11.40625 L5.453125,11.40625 Q5.96875,12.1875 6.859375,12.765625 Q7.75,13.34375 9.171875,13.34375 Q11.375,13.34375 12.734375,11.625 Q14.109375,9.90625 14.109375,6.578125 Q14.109375,3.234375 12.6875,1.5 Q11.28125,-0.234375 9.078125,-0.234375 Q7.65625,-0.234375 6.8125,0.28125 Q5.96875,0.796875 5.453125,1.4375 L5.25,1.4375 Q5.453125,0.4375 5.453125,-0.484375 L5.453125,-5.765625 Z M8.0625,2.65625 Q9.28125,2.65625 9.875,3.671875 Q10.46875,4.703125 10.46875,6.625 Q10.46875,10.484375 8.015625,10.484375 Q6.625,10.484375 6.0625,9.625 Q5.5,8.765625 5.453125,6.984375 L5.453125,6.59375 Q5.453125,4.703125 6.015625,3.671875 Q6.578125,2.65625 8.0625,2.65625 Z" transform="translate(4.0078125, 13.34375) scale(1, -1)"/>
</svg>