<svg height="7.5625" viewBox="0 0 24 7.5625" width="24" xmlns="http://www.w3.org/2000/svg">
<path d="M1.578125,4.375 Q2.0625,5.015625 2.71875,5.703125 Q3.390625,6.390625 4,6.859375 Q4.609375,7.34375 4.921875,7.34375 Q5.40625,7.34375 5.71875,6.8125 Q6.03125,6.28125 6.046875,5.234375 Q6.046875,4.796875 5.96875,4.390625 Q6.59375,5.921875 7.125,6.65625 Q7.65625,7.390625 8.46875,7.390625 Q8.953125,7.390625 9.25,7.109375 Q9.546875,6.84375 9.546875,6.4375 Q9.546875,5.5 8.65625,5.5 Q8.234375,5.5 7.984375,5.734375 Q7.734375,5.96875 7.734375,6.3125 Q7.734375,6.5 7.796875,6.671875 Q7.34375,6.390625 6.984375,5.625 Q6.625,4.875 6.359375,3.984375 Q6.09375,3.046875 5.9375,2.171875 Q5.78125,1.3125 5.78125,0.984375 Q5.78125,0.59375 6.046875,0.59375 Q6.265625,0.59375 6.78125,1.046875 Q7.296875,1.515625 8.109375,2.515625 L8.40625,2.203125 Q7.375,0.953125 6.75,0.46875 Q6.140625,0 5.59375,0 Q4.78125,0 4.3125,0.6875 Q3.859375,1.390625 3.859375,2.71875 L3.859375,3 Q3.171875,1.421875 2.5,0.625 Q1.84375,-0.171875 0.984375,-0.171875 Q0.546875,-0.171875 0.28125,0.09375 Q0.03125,0.359375 0.03125,0.796875 Q0.03125,1.265625 0.28125,1.546875 Q0.546875,1.828125 0.9375,1.828125 Q1.734375,1.828125 1.9375,0.890625 Q2.515625,1.34375 3,2.125 Q3.5,2.90625 3.78125,3.796875 Q4.078125,4.703125 4.078125,5.46875 Q4.078125,5.875 3.796875,5.875 Q3.5,5.875 2.90625,5.3125 Q2.328125,4.75 1.84375,4.0625 Z" transform="translate(7.2109375, 7.390625) scale(1, -1)"/>
</svg>