<svg height="17.46875" viewBox="0 0 24 17.46875" width="24" xmlns="http://www.w3.org/2000/svg">
<path d="M2.78125,-0.1875 Q1.734375,-0.1875 1.15625,0.21875 Q0.59375,0.625 0.59375,1.34375 Q0.59375,2.1875 1.53125,2.796875 Q2.46875,3.40625 4.15625,3.40625 Q5.09375,3.40625 6.203125,3.1875 Q7.3125,2.96875 8.640625,2.609375 Q12,6.1875 13.609375,9.3125 Q15.234375,12.453125 15.234375,14.5625 Q15.234375,16.890625 13.15625,16.890625 Q12.03125,16.890625 10.734375,16.375 Q9.4375,15.859375 8.15625,15 Q6.890625,14.140625 5.828125,13.0625 Q4.78125,12 4.15625,10.875 Q3.53125,9.765625 3.53125,8.765625 Q3.53125,7.703125 4.09375,7.09375 Q4.65625,6.5 5.6875,6.5 Q6.34375,6.5 7.0625,6.984375 Q7.796875,7.46875 8.5,8.28125 Q9.21875,9.09375 9.796875,10.078125 Q10.375,11.0625 10.703125,12.0625 Q11.046875,13.078125 11.046875,13.96875 Q11.046875,14.375 11.09375,14.5 Q11.140625,14.640625 11.25,14.640625 Q11.46875,14.640625 11.65625,13.9375 Q11.765625,13.625 11.8125,13.15625 Q11.875,12.703125 11.875,12.171875 Q11.875,10.34375 11.078125,8.9375 Q10.296875,7.53125 8.953125,6.71875 Q7.609375,5.921875 5.953125,5.921875 Q4.5625,5.921875 3.796875,6.640625 Q3.046875,7.375 3.046875,8.6875 Q3.046875,9.859375 3.703125,11.0625 Q4.375,12.28125 5.453125,13.390625 Q6.546875,14.5 7.90625,15.375 Q9.265625,16.25 10.671875,16.765625 Q12.09375,17.28125 13.375,17.28125 Q15.625,17.28125 16.875,16.09375 Q18.140625,14.90625 18.140625,12.90625 Q18.140625,11.359375 17.078125,9.5625 Q16.015625,7.78125 14.03125,5.9375 Q12.046875,4.109375 9.3125,2.375 Q10.3125,1.984375 11.078125,1.796875 Q11.859375,1.609375 12.390625,1.609375 Q13.625,1.609375 14.875,2.453125 Q15.453125,2.828125 16.25,3.515625 Q17.0625,4.21875 18.34375,5.453125 Q18.453125,5.5625 18.515625,5.578125 Q18.59375,5.609375 18.640625,5.609375 Q18.84375,5.609375 18.84375,5.421875 Q18.84375,5.296875 18.640625,5.109375 Q17.921875,4.34375 16.953125,3.421875 Q15.984375,2.515625 15.015625,1.75 Q14.0625,0.984375 13.3125,0.59375 Q12.09375,0 10.875,0 Q10.0625,0 9.125,0.28125 Q8.1875,0.578125 7.109375,1.109375 Q4.578125,-0.1875 2.78125,-0.1875 Z M2.8125,0.1875 Q3.578125,0.1875 4.546875,0.484375 Q5.515625,0.796875 6.53125,1.34375 Q5.28125,1.9375 4.40625,2.234375 Q3.53125,2.546875 2.609375,2.546875 Q1.9375,2.546875 1.53125,2.171875 Q1.125,1.796875 1.125,1.3125 Q1.125,0.1875 2.8125,0.1875 Z" transform="translate(2.28125, 17.28125) scale(1, -1)"/>
</svg>