<svg height="13.578125" viewBox="0 0 24 13.578125" width="24" xmlns="http://www.w3.org/2000/svg">
<path d="M7.796875,-0.234375 Q5.828125,-0.234375 4.3125,0.484375 Q2.8125,1.21875 1.9375,2.703125 Q1.078125,4.203125 1.078125,6.453125 Q1.078125,8.765625 1.859375,10.28125 Q2.640625,11.8125 4.03125,12.578125 Q5.421875,13.34375 7.265625,13.34375 Q9.984375,13.34375 11.5625,11.796875 Q13.15625,10.25 13.15625,7.390625 L13.15625,5.65625 L4.703125,5.65625 Q4.75,4.15625 5.59375,3.28125 Q6.453125,2.421875 7.96875,2.421875 Q9.234375,2.421875 10.265625,2.671875 Q11.296875,2.921875 12.40625,3.453125 L12.40625,0.703125 Q11.453125,0.21875 10.375,0 Q9.3125,-0.234375 7.796875,-0.234375 Z M4.78125,8.046875 L9.796875,8.046875 Q9.765625,9.234375 9.15625,10.015625 Q8.5625,10.796875 7.296875,10.796875 Q6.265625,10.796875 5.578125,10.125 Q4.890625,9.453125 4.78125,8.046875 Z" transform="translate(4.8828125, 13.34375) scale(1, -1)"/>
</svg>