<svg height="17.515625" viewBox="0 0 24 17.515625" width="24" xmlns="http://www.w3.org/2000/svg">
<path d="M9.390625,-0.1875 Q8.140625,-0.1875 7.453125,0.53125 Q6.765625,1.265625 6.765625,2.59375 Q6.765625,4.015625 7.71875,5.5625 Q8.6875,7.109375 10.21875,9.171875 Q10.5625,9.625 11.03125,10.28125 Q11.5,10.9375 11.9375,11.6875 Q12.390625,12.4375 12.671875,13.15625 Q12.953125,13.890625 12.953125,14.46875 Q12.953125,15.53125 12.328125,16.109375 Q11.71875,16.703125 10.625,16.703125 Q9.453125,16.703125 8.1875,16.125 Q6.9375,15.546875 5.75,14.59375 Q4.5625,13.65625 3.609375,12.515625 Q2.65625,11.375 2.09375,10.203125 Q1.53125,9.046875 1.53125,8.0625 Q1.53125,7.375 1.984375,6.921875 Q2.453125,6.484375 3.171875,6.484375 Q3.796875,6.484375 4.46875,6.96875 Q5.140625,7.46875 5.765625,8.25 Q6.390625,9.046875 6.890625,9.984375 Q7.390625,10.921875 7.671875,11.8125 Q7.96875,12.71875 7.96875,13.390625 Q7.96875,13.6875 7.9375,13.9375 Q7.921875,14.1875 7.921875,14.421875 Q7.921875,14.6875 8.109375,14.6875 Q8.46875,14.6875 8.6875,14.1875 Q8.921875,13.703125 9.046875,13 Q9.171875,12.3125 9.171875,11.6875 Q9.171875,10.0625 8.390625,8.6875 Q7.625,7.3125 6.359375,6.5 Q5.09375,5.6875 3.546875,5.6875 Q2.1875,5.6875 1.515625,6.359375 Q0.84375,7.03125 0.84375,8.0625 Q0.84375,9.1875 1.453125,10.453125 Q2.0625,11.734375 3.09375,12.953125 Q4.125,14.1875 5.4375,15.171875 Q6.75,16.15625 8.140625,16.734375 Q9.53125,17.328125 10.828125,17.328125 Q13.03125,17.328125 14.265625,16.203125 Q15.5,15.09375 15.5,13.25 Q15.5,12.125 14.875,10.78125 Q14.25,9.4375 13.234375,7.90625 Q12.21875,6.390625 10.984375,4.6875 Q9.140625,2.109375 9.140625,1.203125 Q9.140625,0.484375 9.890625,0.484375 Q11.953125,0.484375 14.40625,4.703125 Q15.625,6.796875 17.28125,9.640625 Q18.953125,12.5 21,16.125 L24.84375,16.515625 L18.40625,5.5 Q17.6875,4.25 17.265625,3.484375 Q16.84375,2.71875 16.640625,2.265625 Q16.4375,1.828125 16.390625,1.578125 Q16.34375,1.34375 16.34375,1.203125 Q16.34375,0.984375 16.453125,0.828125 Q16.5625,0.671875 16.78125,0.671875 Q17.0625,0.671875 17.515625,0.953125 Q17.96875,1.25 18.515625,1.6875 Q19.078125,2.140625 19.609375,2.609375 Q20.140625,3.078125 20.515625,3.453125 Q20.8125,3.71875 20.9375,3.8125 Q21.078125,3.90625 21.171875,3.90625 Q21.453125,3.90625 21.453125,3.625 Q21.453125,3.453125 21.078125,3.078125 Q20.25,2.28125 19.390625,1.53125 Q18.53125,0.796875 17.6875,0.296875 Q16.84375,-0.1875 16.078125,-0.1875 Q15.046875,-0.1875 14.453125,0.421875 Q13.875,1.03125 13.875,1.984375 Q13.875,2.359375 14.046875,2.828125 L13.921875,2.90625 Q12.765625,1.375 11.703125,0.59375 Q10.65625,-0.1875 9.390625,-0.1875 Z" transform="translate(-0.84375, 17.328125) scale(1, -1)"/>
</svg>