<svg height="14.203125" viewBox="0 0 24 14.203125" width="24" xmlns="http://www.w3.org/2000/svg">
<path d="M1.390625,4.375 Q3.53125,6.4375 3.984375,7.25 L7.65625,13.796875 L9.9375,14.0625 L3.984375,2.6875 Q6.140625,5.109375 7.421875,6.265625 Q8.65625,7.375 9.453125,7.375 Q10.078125,7.375 10.453125,6.890625 Q10.84375,6.40625 10.84375,5.5 Q10.84375,4.921875 10.609375,4.3125 Q10.375,3.71875 9.640625,2.78125 Q9.28125,2.296875 9.015625,1.953125 Q8.765625,1.609375 8.59375,1.421875 Q8.421875,1.203125 8.328125,1.03125 Q8.234375,0.859375 8.234375,0.75 Q8.234375,0.5 8.5,0.5 Q8.734375,0.5 9.375,0.9375 Q10.015625,1.375 11.140625,2.515625 L11.46875,2.203125 Q10.734375,1.421875 10.125,0.921875 Q9.53125,0.4375 9.1875,0.234375 Q8.546875,-0.140625 7.96875,-0.140625 Q7.421875,-0.140625 7,0.34375 Q6.578125,0.84375 6.578125,1.6875 Q6.578125,2.28125 6.75,2.765625 Q6.9375,3.265625 7.3125,3.84375 Q7.515625,4.125 7.6875,4.40625 Q7.875,4.6875 8.09375,4.9375 Q8.359375,5.296875 8.65625,5.703125 Q8.953125,6.125 9.15625,6.4375 Q9.359375,6.75 9.359375,6.796875 Q9.359375,6.953125 9.125,6.953125 Q8.65625,6.953125 6.765625,5.046875 Q5.8125,4.078125 4.796875,2.8125 Q3.796875,1.5625 2.6875,0 L0.21875,-0.140625 L3.34375,5.65625 Q3,5.28125 2.546875,4.828125 Q2.09375,4.390625 1.75,4.0625 Z" transform="translate(6.15625, 14.0625) scale(1, -1)"/>
</svg>