<svg height="17.421875" viewBox="0 0 24 17.421875" width="24" xmlns="http://www.w3.org/2000/svg">
<path d="M9.21875,-0.1875 Q8.0625,-0.1875 7.4375,0.53125 Q6.8125,1.265625 6.8125,2.46875 Q6.8125,3.796875 7.8125,5.40625 Q8.8125,7.03125 10.34375,9.09375 Q11.46875,10.578125 12.28125,11.96875 Q13.109375,13.375 13.109375,14.46875 Q13.109375,15.546875 12.390625,16.171875 Q11.6875,16.796875 10.5625,16.796875 Q9.390625,16.796875 8.09375,16.234375 Q6.8125,15.671875 5.609375,14.71875 Q4.421875,13.78125 3.453125,12.640625 Q2.5,11.5 1.921875,10.328125 Q1.34375,9.171875 1.34375,8.1875 Q1.34375,7.21875 1.859375,6.765625 Q2.375,6.3125 3.09375,6.3125 Q3.8125,6.3125 4.53125,6.78125 Q5.25,7.265625 5.875,8.0625 Q6.5,8.859375 6.984375,9.796875 Q7.484375,10.75 7.765625,11.6875 Q8.046875,12.625 8.046875,13.390625 Q8.046875,13.6875 8.015625,13.953125 Q7.984375,14.234375 7.984375,14.421875 Q7.984375,14.59375 8.09375,14.59375 Q8.328125,14.59375 8.484375,14.125 Q8.640625,13.65625 8.734375,12.984375 Q8.828125,12.3125 8.828125,11.6875 Q8.828125,10.5625 8.375,9.5 Q7.9375,8.453125 7.171875,7.609375 Q6.40625,6.765625 5.4375,6.265625 Q4.46875,5.78125 3.4375,5.78125 Q0.84375,5.78125 0.84375,8.1875 Q0.84375,9.28125 1.453125,10.53125 Q2.0625,11.78125 3.09375,12.96875 Q4.125,14.15625 5.40625,15.109375 Q6.703125,16.078125 8.078125,16.65625 Q9.453125,17.234375 10.75,17.234375 Q11.953125,17.234375 12.890625,16.734375 Q13.828125,16.25 14.34375,15.34375 Q14.875,14.453125 14.875,13.25 Q14.875,11.609375 13.6875,9.578125 Q12.5,7.5625 10.515625,4.78125 Q9.59375,3.5 9.046875,2.546875 Q8.515625,1.609375 8.515625,0.90625 Q8.515625,0.28125 9.3125,0.28125 Q10.78125,0.28125 12.140625,1.765625 Q13.515625,3.265625 15.140625,5.8125 Q16.109375,7.296875 17.609375,9.890625 Q19.125,12.484375 21.21875,16.171875 L24.484375,16.515625 L18.03125,5.5 Q16.703125,3.234375 16.328125,2.140625 Q15.953125,1.0625 15.953125,0.8125 Q15.953125,0.640625 16.015625,0.53125 Q16.078125,0.4375 16.3125,0.4375 Q16.734375,0.4375 17.296875,0.75 Q17.859375,1.0625 18.484375,1.53125 Q19.109375,2.015625 19.671875,2.5 Q20.25,3 20.640625,3.390625 Q20.90625,3.640625 21.015625,3.71875 Q21.140625,3.8125 21.21875,3.8125 Q21.40625,3.8125 21.40625,3.625 Q21.40625,3.546875 21.328125,3.453125 Q21.265625,3.359375 21.046875,3.140625 Q20.234375,2.359375 19.359375,1.578125 Q18.484375,0.8125 17.625,0.3125 Q16.78125,-0.171875 15.984375,-0.171875 Q14.953125,-0.171875 14.46875,0.390625 Q13.984375,0.953125 13.984375,1.828125 Q13.984375,2.359375 14.3125,3.15625 Q14.65625,3.953125 15.21875,5.0625 L15.1875,5.09375 Q14.015625,3.234375 13.046875,2.0625 Q12.09375,0.890625 11.171875,0.34375 Q10.265625,-0.1875 9.21875,-0.1875 Z" transform="translate(-0.6640625, 17.234375) scale(1, -1)"/>
</svg>