<svg height="17.375" viewBox="0 0 24 17.375" width="24" xmlns="http://www.w3.org/2000/svg">
<path d="M7.203125,-0.234375 Q4.515625,-0.234375 3.203125,1 Q1.890625,2.234375 1.890625,4.515625 Q1.890625,4.921875 1.96875,5.515625 Q2.046875,6.125 2.1875,6.796875 L4.390625,17.140625 L6.53125,17.140625 L4.296875,6.671875 Q4.171875,6.125 4.09375,5.515625 Q4.03125,4.921875 4.03125,4.53125 Q4.03125,3.1875 4.859375,2.421875 Q5.6875,1.65625 7.3125,1.65625 Q9.453125,1.65625 10.5,2.75 Q11.546875,3.859375 12,6 L14.375,17.140625 L16.515625,17.140625 L14.109375,5.828125 Q13.734375,3.953125 12.90625,2.578125 Q12.078125,1.21875 10.671875,0.484375 Q9.28125,-0.234375 7.203125,-0.234375 Z" transform="translate(2.796875, 17.140625) scale(1, -1)"/>
</svg>