<svg height="17.65625" viewBox="0 0 24 17.65625" width="24" xmlns="http://www.w3.org/2000/svg">
<path d="M12.078125,4.875 Q12.078125,3.859375 11.59375,2.953125 Q11.109375,2.046875 10.265625,1.3125 Q9.4375,0.59375 8.359375,0.171875 Q7.296875,-0.234375 6.125,-0.234375 Q4.4375,-0.234375 3.25,0.390625 Q2.0625,1.03125 1.453125,2.09375 Q0.84375,3.171875 0.84375,4.46875 Q0.84375,5.921875 1.390625,7 Q1.9375,8.09375 2.828125,8.8125 Q3.71875,9.546875 4.71875,9.984375 Q5.734375,10.4375 6.625,10.609375 Q6.234375,11.09375 6,11.671875 Q5.78125,12.265625 5.78125,12.890625 Q5.78125,14.0625 6.421875,15.09375 Q7.078125,16.125 8.3125,16.765625 Q9.546875,17.421875 11.296875,17.421875 Q12.703125,17.421875 13.5625,16.953125 Q14.421875,16.484375 14.828125,15.734375 Q15.234375,15 15.234375,14.15625 Q15.234375,13.203125 14.828125,12.453125 Q14.421875,11.71875 13.765625,11.296875 Q13.109375,10.890625 12.359375,10.890625 Q11.546875,10.890625 11.015625,11.34375 Q10.484375,11.8125 10.484375,12.671875 Q10.484375,13.46875 10.90625,14.03125 Q11.328125,14.609375 11.875,14.921875 Q12.4375,15.234375 12.765625,15.234375 Q13.125,15.234375 13.125,15.09375 Q13.125,15.03125 12.9375,14.859375 Q12.484375,14.5 12.0625,13.921875 Q11.65625,13.34375 11.65625,12.625 Q11.65625,12.046875 11.921875,11.75 Q12.1875,11.46875 12.5,11.46875 Q13.265625,11.46875 13.90625,12.203125 Q14.5625,12.953125 14.5625,14.109375 Q14.5625,15.171875 13.875,15.90625 Q13.203125,16.65625 12.125,16.65625 Q11.234375,16.65625 10.375,15.984375 Q9.53125,15.3125 8.96875,14.15625 Q8.421875,13.015625 8.421875,11.5625 Q8.421875,11.109375 8.546875,10.734375 Q9.9375,10.6875 10.65625,10.375 Q11.375,10.0625 11.375,9.625 Q11.375,9.265625 11.03125,9.0625 Q10.703125,8.859375 10.15625,8.859375 Q9.4375,8.859375 8.71875,9.125 Q8.015625,9.390625 7.421875,9.84375 Q6.5,9.390625 5.703125,8.375 Q4.921875,7.375 4.421875,6.015625 Q3.9375,4.65625 3.9375,3.171875 Q3.9375,1.828125 4.53125,1.109375 Q5.140625,0.390625 6.28125,0.390625 Q7.625,0.390625 8.78125,1.015625 Q9.9375,1.65625 10.65625,2.6875 Q11.375,3.71875 11.375,4.921875 Q11.375,5.6875 10.984375,6.125 Q10.609375,6.578125 9.90625,6.578125 Q9.390625,6.578125 8.84375,6.15625 Q8.296875,5.734375 7.90625,5 Q7.515625,4.265625 7.375,3.34375 Q7.265625,2.59375 7.171875,2.234375 Q7.078125,1.875 6.859375,1.875 Q6.59375,1.875 6.5,2.28125 Q6.40625,2.6875 6.40625,3.09375 Q6.40625,4.34375 6.890625,5.265625 Q7.375,6.1875 8.140625,6.71875 Q8.90625,7.25 9.765625,7.25 Q10.75,7.25 11.40625,6.640625 Q12.078125,6.046875 12.078125,4.875 Z M10.609375,9.640625 Q10.609375,9.8125 10.109375,9.984375 Q9.625,10.15625 8.8125,10.15625 Q9.34375,9.390625 10.203125,9.390625 Q10.609375,9.390625 10.609375,9.640625 Z" transform="translate(3.9609375, 17.421875) scale(1, -1)"/>
</svg>