<svg height="17.609375" viewBox="0 0 24 17.609375" width="24" xmlns="http://www.w3.org/2000/svg">
<path d="M5.8125,7.53125 Q6.03125,7.53125 6.21875,7.53125 Q5.6875,8.546875 5.6875,9.796875 Q5.6875,11.015625 6.265625,12.125 Q6.859375,13.25 7.8125,14.1875 Q8.78125,15.140625 9.953125,15.828125 Q11.140625,16.53125 12.328125,16.921875 Q13.515625,17.328125 14.546875,17.328125 Q15.796875,17.328125 16.53125,16.71875 Q17.28125,16.109375 17.28125,15.125 Q17.28125,14.1875 16.5625,12.984375 Q15.859375,11.78125 14.609375,10.609375 Q13.375,9.4375 11.71875,8.5 Q10.078125,7.578125 8.203125,7.171875 Q8.328125,6.671875 8.859375,6.375 Q9.390625,6.09375 10.125,6.09375 Q11.015625,6.09375 12.03125,6.453125 Q13.0625,6.8125 14.15625,7.578125 Q16.375,9.09375 16.75,9.09375 Q16.984375,9.09375 16.984375,8.90625 Q16.984375,8.8125 16.890625,8.6875 Q16.46875,8.234375 16.203125,7.71875 Q15.9375,7.203125 15.765625,6.40625 Q15.453125,4.921875 14.859375,3.578125 Q14.28125,2.25 13.3125,1.4375 Q12.671875,0.890625 11.65625,0.5 Q10.65625,0.125 9.453125,-0.078125 Q8.25,-0.28125 7.03125,-0.28125 Q5.40625,-0.28125 4.390625,0.15625 Q3.390625,0.59375 2.921875,1.3125 Q2.46875,2.046875 2.46875,2.859375 Q2.46875,4.03125 3.171875,4.71875 Q3.890625,5.421875 4.84375,5.421875 Q5.5625,5.421875 6.046875,5.015625 Q6.546875,4.625 6.546875,3.984375 Q6.546875,3.453125 6.21875,3.046875 Q5.90625,2.65625 5.359375,2.609375 Q4.65625,2.546875 4.421875,2.328125 Q4.203125,2.109375 4.203125,1.828125 Q4.203125,1.203125 4.75,0.765625 Q5.296875,0.34375 6.53125,0.34375 Q7.53125,0.34375 8.421875,0.796875 Q9.3125,1.25 10.28125,2.484375 Q11.25,3.71875 12.484375,6.046875 Q11.96875,5.734375 11.375,5.5625 Q10.78125,5.40625 10.078125,5.40625 Q8.96875,5.40625 8.078125,5.8125 Q7.203125,6.21875 6.625,6.9375 Q6.28125,6.90625 5.921875,6.90625 Q4.3125,6.90625 3.109375,7.453125 Q1.921875,8.015625 1.25,8.921875 Q0.59375,9.84375 0.59375,10.921875 Q0.59375,12.1875 1.234375,13.296875 Q1.875,14.40625 2.859375,15.234375 Q3.84375,16.0625 4.9375,16.515625 Q6.03125,16.984375 6.953125,16.984375 Q7.390625,16.984375 7.390625,16.84375 Q7.390625,16.6875 6.671875,16.34375 Q5.453125,15.765625 4.5,14.75 Q3.546875,13.75 3,12.59375 Q2.46875,11.453125 2.46875,10.4375 Q2.46875,9.140625 3.390625,8.328125 Q4.3125,7.53125 5.8125,7.53125 Z M15.34375,16.609375 Q14.640625,16.609375 13.734375,16 Q12.84375,15.40625 11.921875,14.4375 Q11.015625,13.46875 10.203125,12.28125 Q9.40625,11.109375 8.859375,9.9375 Q8.328125,8.78125 8.203125,7.84375 Q9.90625,8.28125 11.40625,9.171875 Q12.90625,10.078125 14.046875,11.15625 Q15.1875,12.234375 15.828125,13.28125 Q16.484375,14.328125 16.484375,15.078125 Q16.484375,15.796875 16.109375,16.203125 Q15.75,16.609375 15.34375,16.609375 Z" transform="translate(3.0625, 17.328125) scale(1, -1)"/>
</svg>