<svg height="17.5625" viewBox="0 0 24 17.5625" width="24" xmlns="http://www.w3.org/2000/svg">
<path d="M5.421875,-0.234375 Q3.09375,-0.234375 1.84375,0.640625 Q0.59375,1.53125 0.59375,3.03125 Q0.59375,4.078125 1.28125,4.75 Q1.984375,5.421875 2.953125,5.421875 Q3.71875,5.421875 4.1875,5.015625 Q4.65625,4.609375 4.65625,3.953125 Q4.65625,3.359375 4.296875,3.015625 Q3.9375,2.6875 3.3125,2.59375 Q2.828125,2.515625 2.5625,2.375 Q2.296875,2.234375 2.296875,1.890625 Q2.296875,1.21875 3.046875,0.796875 Q3.796875,0.390625 4.984375,0.390625 Q6.59375,0.390625 8.15625,1.859375 Q9.71875,3.34375 10.984375,6.640625 Q9.4375,6.75 8.296875,7.328125 Q7.15625,7.921875 6.53125,8.859375 Q5.90625,9.8125 5.90625,10.96875 Q5.90625,12.4375 6.71875,13.609375 Q7.53125,14.78125 8.84375,15.609375 Q10.171875,16.4375 11.734375,16.875 Q13.296875,17.328125 14.765625,17.328125 Q15.59375,17.328125 15.984375,17.265625 Q16.375,17.203125 16.46875,17.125 Q16.578125,17.046875 16.578125,16.9375 Q16.578125,16.6875 16.109375,16.6875 Q15.859375,16.6875 15.640625,16.6875 Q15.4375,16.703125 15.21875,16.703125 Q13.78125,16.703125 12.453125,16.15625 Q11.140625,15.625 10.109375,14.6875 Q9.09375,13.75 8.5,12.59375 Q7.921875,11.453125 7.921875,10.21875 Q7.921875,8.859375 8.796875,8.0625 Q9.671875,7.265625 11.234375,7.21875 Q12.09375,9.484375 13.25,11.34375 Q14.40625,13.203125 15.6875,14.53125 Q16.96875,15.859375 18.25,16.59375 Q19.53125,17.328125 20.65625,17.328125 Q21.71875,17.328125 22.375,16.6875 Q23.046875,16.0625 23.046875,15.046875 Q23.046875,13.75 22.0625,12.3125 Q21.078125,10.890625 19.265625,9.5625 Q17.453125,8.25 14.96875,7.25 Q14.1875,4.9375 12.703125,3.25 Q11.234375,1.578125 9.34375,0.671875 Q7.46875,-0.234375 5.421875,-0.234375 Z M15.171875,7.984375 Q16.515625,8.640625 17.671875,9.578125 Q18.84375,10.53125 19.71875,11.609375 Q20.59375,12.703125 21.078125,13.671875 Q21.578125,14.65625 21.578125,15.390625 Q21.578125,16.703125 20.515625,16.703125 Q19.9375,16.703125 19.234375,16.1875 Q18.546875,15.671875 17.828125,14.546875 Q17.140625,13.46875 16.515625,11.828125 Q15.90625,10.203125 15.171875,7.984375 Z" transform="translate(0.1796875, 17.328125) scale(1, -1)"/>
</svg>