<svg height="19.109375" viewBox="0 0 24 19.109375" width="24" xmlns="http://www.w3.org/2000/svg">
<path d="M4.578125,-5.765625 Q3.125,-5.765625 2.15625,-5.53125 Q1.203125,-5.296875 0.3125,-4.921875 L0.3125,-1.84375 Q1.21875,-2.328125 2.234375,-2.59375 Q3.265625,-2.859375 4.390625,-2.859375 Q5.609375,-2.859375 6.390625,-2.296875 Q7.171875,-1.734375 7.484375,-0.53125 L7.578125,-0.171875 Q7.75,0.4375 7.921875,1.015625 Q8.109375,1.609375 8.15625,1.75 L8.0625,1.75 Q7.4375,0.9375 6.625,0.34375 Q5.8125,-0.234375 4.578125,-0.234375 Q3.640625,-0.234375 2.84375,0.265625 Q2.046875,0.765625 1.546875,1.8125 Q1.0625,2.859375 1.0625,4.515625 Q1.0625,6.125 1.484375,7.671875 Q1.921875,9.234375 2.703125,10.515625 Q3.5,11.8125 4.609375,12.578125 Q5.71875,13.34375 7.0625,13.34375 Q8.328125,13.34375 9.0625,12.828125 Q9.796875,12.3125 10.375,11.421875 L10.46875,11.421875 L11.140625,13.109375 L13.84375,13.109375 L10.984375,-0.3125 Q10.5625,-2.375 9.65625,-3.5625 Q8.765625,-4.75 7.484375,-5.25 Q6.21875,-5.765625 4.578125,-5.765625 Z M6.28125,2.609375 Q7.03125,2.609375 7.59375,3.171875 Q8.15625,3.75 8.546875,4.625 Q8.953125,5.515625 9.15625,6.515625 Q9.359375,7.53125 9.359375,8.421875 Q9.359375,9.359375 8.921875,9.921875 Q8.5,10.484375 7.75,10.484375 Q7.078125,10.484375 6.515625,9.96875 Q5.953125,9.453125 5.53125,8.609375 Q5.109375,7.78125 4.859375,6.75 Q4.625,5.71875 4.625,4.6875 Q4.625,3.640625 5.0625,3.125 Q5.515625,2.609375 6.28125,2.609375 Z" transform="translate(4.921875, 13.34375) scale(1, -1)"/>
</svg>