<svg height="24" viewBox="0 0 24 24" width="24" xmlns="http://www.w3.org/2000/svg">
<path d="M2.0625,0 L1.46875,13.109375 L4.75,13.109375 L4.796875,7.296875 Q4.796875,6.34375 4.78125,5.390625 Q4.78125,4.4375 4.6875,3.34375 L4.78125,3.34375 Q4.9375,3.9375 5.203125,4.671875 Q5.46875,5.40625 5.6875,6 Q5.921875,6.59375 6.03125,6.8125 L8.734375,13.109375 L12.578125,13.109375 L12.578125,6.8125 Q12.578125,6 12.5625,5.15625 Q12.546875,4.3125 12.453125,3.34375 L12.578125,3.34375 Q12.75,3.890625 13,4.625 Q13.25,5.375 13.515625,6.109375 Q13.78125,6.84375 13.96875,7.296875 L16.53125,13.109375 L20.140625,13.109375 L13.921875,0 L10.0625,0 L9.984375,6.09375 Q9.984375,6.59375 10,7.296875 Q10.015625,8.015625 10.046875,8.75 Q10.078125,9.5 10.109375,10.078125 L9.953125,10.078125 Q9.765625,9.5 9.515625,8.796875 Q9.28125,8.09375 9.03125,7.4375 Q8.78125,6.796875 8.59375,6.34375 L5.859375,0 Z" transform="translate(1.1953125, 13.109375) scale(1, -1)"/>
</svg>