<svg height="18.875" viewBox="0 0 24 18.875" width="24" xmlns="http://www.w3.org/2000/svg">
<path d="M2.203125,-5.765625 Q1.578125,-5.765625 1.171875,-5.703125 Q0.765625,-5.640625 0.484375,-5.546875 L0.484375,-2.734375 Q0.796875,-2.78125 1.109375,-2.828125 Q1.4375,-2.875 1.84375,-2.875 Q2.96875,-2.875 3.6875,-2.21875 Q4.421875,-1.578125 4.9375,-0.578125 L5.25,0 L3.34375,13.109375 L6.796875,13.109375 L7.4375,7.03125 Q7.53125,6.21875 7.546875,5.25 Q7.578125,4.296875 7.578125,3.59375 L7.6875,3.59375 Q7.875,4.203125 8.1875,5 Q8.5,5.8125 8.953125,6.796875 L12,13.109375 L15.84375,13.109375 L7.875,-1.875 Q6.8125,-3.859375 5.375,-4.8125 Q3.953125,-5.765625 2.203125,-5.765625 Z" transform="translate(3.8359375, 13.109375) scale(1, -1)"/>
</svg>