<svg height="8.0625" viewBox="0 0 24 8.0625" width="24" xmlns="http://www.w3.org/2000/svg">
<path d="M8.46875,2.203125 Q7.53125,1.3125 6.984375,0.859375 Q6.453125,0.40625 6.140625,0.21875 Q5.546875,-0.140625 4.84375,-0.140625 Q3.75,-0.140625 3.0625,0.34375 Q2.375,0.84375 2.375,1.65625 Q2.375,2.25 2.75,3 Q3.125,3.765625 3.765625,4.53125 Q4.421875,5.296875 5.28125,5.875 Q4.78125,5.8125 4.265625,5.8125 L3.625,5.8125 Q3.21875,5.375 2.75,4.921875 Q2.28125,4.484375 1.78125,4.0625 L1.296875,4.53125 Q1.703125,4.875 2.140625,5.28125 Q2.59375,5.6875 2.90625,6 Q3.234375,7.484375 3.390625,7.703125 Q3.578125,7.921875 3.796875,7.921875 Q4.0625,7.921875 4.109375,7.84375 Q4.15625,7.78125 4.15625,7.515625 Q4.15625,7.421875 4.140625,7.34375 Q4.125,7.265625 4.125,7.171875 Q4.125,6.8125 5.109375,6.75 Q5.765625,6.703125 6.34375,6.578125 Q6.9375,6.453125 7.296875,6.15625 Q7.65625,5.875 7.65625,5.359375 Q7.65625,5.140625 7.40625,4.671875 Q7.171875,4.203125 6.8125,3.671875 Q6.453125,3.140625 6.109375,2.65625 Q5.765625,2.1875 5.5625,1.921875 Q5.15625,1.375 5.15625,1.0625 Q5.15625,0.75 5.5,0.75 Q5.71875,0.75 6.328125,1.171875 Q6.9375,1.609375 8.046875,2.71875 Z" transform="translate(7.1171875, 7.921875) scale(1, -1)"/>
</svg>