<svg height="17.640625" viewBox="0 0 24 17.640625" width="24" xmlns="http://www.w3.org/2000/svg">
<path d="M8.09375,-0.234375 Q5.015625,-0.234375 3.375,1.546875 Q1.734375,3.34375 1.734375,6.40625 Q1.734375,8.609375 2.3125,10.59375 Q2.90625,12.59375 4.03125,14.109375 Q5.15625,15.640625 6.765625,16.515625 Q8.375,17.40625 10.390625,17.40625 Q13.3125,17.40625 14.9375,15.59375 Q16.5625,13.796875 16.5625,10.65625 Q16.5625,8.421875 16.015625,6.453125 Q15.484375,4.484375 14.40625,2.984375 Q13.34375,1.484375 11.75,0.625 Q10.171875,-0.234375 8.09375,-0.234375 Z M8.15625,1.65625 Q9.59375,1.65625 10.71875,2.375 Q11.859375,3.09375 12.640625,4.34375 Q13.4375,5.609375 13.859375,7.234375 Q14.28125,8.875 14.28125,10.703125 Q14.28125,12.984375 13.203125,14.234375 Q12.125,15.5 10.25,15.5 Q8.8125,15.5 7.65625,14.796875 Q6.5,14.09375 5.6875,12.84375 Q4.875,11.609375 4.4375,9.96875 Q4.015625,8.328125 4.015625,6.453125 Q4.015625,4.203125 5.109375,2.921875 Q6.21875,1.65625 8.15625,1.65625 Z" transform="translate(2.8515625, 17.40625) scale(1, -1)"/>
</svg>