<svg height="17.734375" viewBox="0 0 24 17.734375" width="24" xmlns="http://www.w3.org/2000/svg">
<path d="M6.359375,7.296875 Q5.109375,7.296875 4.40625,8.03125 Q3.703125,8.765625 3.703125,10.078125 Q3.703125,11.1875 4.3125,12.453125 Q4.9375,13.734375 6.140625,14.875 Q7.34375,16.03125 9.0625,16.765625 Q10.796875,17.5 12.984375,17.5 Q14.25,17.5 15.078125,17.328125 Q15.90625,17.15625 16.53125,16.953125 Q17.15625,16.75 17.796875,16.578125 Q18.453125,16.421875 19.34375,16.421875 Q20.296875,16.421875 21,16.921875 Q21.1875,17.046875 21.28125,17.046875 Q21.484375,17.046875 21.484375,16.78125 Q21.484375,16.4375 21.0625,15.890625 Q20.65625,15.359375 19.953125,14.9375 Q19.265625,14.515625 18.40625,14.515625 Q17.296875,14.515625 16.453125,14.765625 Q15.625,15.03125 14.890625,15.375 Q14.15625,15.71875 13.34375,15.96875 Q12.546875,16.21875 11.5,16.21875 Q9.953125,16.21875 8.640625,15.609375 Q7.34375,15 6.375,14.03125 Q5.421875,13.078125 4.890625,12.015625 Q4.375,10.96875 4.375,10.078125 Q4.375,8.953125 4.859375,8.5 Q5.359375,8.0625 5.921875,8.0625 Q6.5,8.0625 7.1875,8.59375 Q7.875,9.125 8.46875,9.984375 Q9.078125,10.84375 9.453125,11.859375 Q9.84375,12.890625 9.84375,13.875 Q9.84375,14.0625 9.796875,14.328125 Q9.765625,14.59375 9.765625,14.71875 Q9.765625,15.09375 10.109375,15.09375 Q10.3125,15.09375 10.53125,14.671875 Q10.75,14.25 10.875,13.625 Q11.015625,13.015625 11.015625,12.359375 Q11.015625,10.9375 10.328125,9.78125 Q9.640625,8.640625 8.578125,7.96875 Q7.53125,7.296875 6.359375,7.296875 Z M5.1875,-0.234375 Q3.71875,-0.234375 2.71875,0.234375 Q1.734375,0.71875 1.21875,1.515625 Q0.71875,2.328125 0.71875,3.28125 Q0.71875,4.3125 1.40625,5.046875 Q2.109375,5.78125 3.140625,5.78125 Q3.90625,5.78125 4.34375,5.34375 Q4.78125,4.921875 4.78125,4.34375 Q4.78125,3.703125 4.390625,3.34375 Q4.015625,3 3.3125,2.90625 Q2.921875,2.859375 2.6875,2.6875 Q2.453125,2.515625 2.453125,2.109375 Q2.453125,1.390625 3.125,0.890625 Q3.796875,0.390625 4.703125,0.390625 Q5.953125,0.390625 6.8125,1.046875 Q7.6875,1.703125 8.453125,3.078125 Q9.21875,4.46875 10.171875,6.625 Q9.046875,6.40625 8.296875,6 Q7.5625,5.59375 6.9375,4.921875 Q6.578125,4.515625 6.40625,4.515625 Q6.171875,4.515625 6.171875,4.78125 Q6.171875,5.109375 6.65625,5.609375 Q7.15625,6.125 8.109375,6.578125 Q9.078125,7.03125 10.4375,7.21875 Q11.25,9.09375 12.171875,10.4375 Q13.109375,11.78125 13.953125,12.640625 Q14.8125,13.515625 15.421875,13.9375 Q16.03125,14.359375 16.21875,14.359375 Q16.578125,14.359375 16.578125,14.0625 Q16.578125,13.96875 16.46875,13.75 Q16.375,13.53125 16.21875,13.3125 Q15.84375,12.75 15.5625,12.09375 Q15.28125,11.453125 15,10.5 Q14.71875,9.546875 14.28125,8.09375 Q14.203125,7.84375 14.140625,7.609375 Q14.6875,7.703125 14.9375,7.796875 Q15.1875,7.890625 15.359375,7.984375 Q15.84375,9.125 16.28125,9.703125 Q16.734375,10.296875 17.28125,10.296875 Q17.640625,10.296875 17.796875,10.09375 Q17.96875,9.90625 17.96875,9.625 Q17.96875,9.1875 17.53125,8.65625 Q17.109375,8.140625 16.3125,7.65625 Q16.3125,6.984375 16.140625,6.21875 Q15.984375,5.46875 15.640625,4.625 L13.625,4.0625 Q14.0625,4.828125 14.484375,5.6875 Q14.921875,6.546875 15.171875,7.375 Q14.8125,7.21875 13.96875,7.078125 Q12.796875,3.625 10.609375,1.6875 Q8.421875,-0.234375 5.1875,-0.234375 Z" transform="translate(0.8984375, 17.5) scale(1, -1)"/>
</svg>