<svg height="17.515625" viewBox="0 0 24 17.515625" width="24" xmlns="http://www.w3.org/2000/svg">
<path d="M9.234375,-0.234375 Q7.65625,-0.234375 6.40625,0.34375 Q5.15625,0.9375 4.453125,1.96875 Q3.75,3 3.75,4.3125 Q3.75,5.234375 4.25,6.484375 Q2.640625,6.75 1.796875,7.65625 Q0.953125,8.5625 0.953125,10.03125 Q0.953125,11.234375 1.578125,12.3125 Q2.203125,13.390625 3.296875,14.3125 Q4.390625,15.234375 5.765625,15.9375 Q6.453125,16.296875 7.34375,16.59375 Q8.25,16.890625 9.15625,17.078125 Q10.078125,17.28125 10.828125,17.28125 Q12.40625,17.28125 12.40625,16.890625 Q12.40625,16.609375 11.546875,16.609375 Q10.21875,16.609375 8.9375,16.140625 Q7.65625,15.671875 6.53125,14.890625 Q5.40625,14.109375 4.53125,13.140625 Q3.671875,12.171875 3.171875,11.140625 Q2.6875,10.125 2.6875,9.21875 Q2.6875,7.296875 4.484375,7.015625 Q5.203125,8.421875 6.359375,9.875 Q7.53125,11.328125 8.953125,12.625 Q10.375,13.9375 11.875,14.984375 Q13.390625,16.03125 14.796875,16.625 Q16.203125,17.234375 17.328125,17.234375 Q18.59375,17.234375 19.25,16.703125 Q19.921875,16.171875 19.921875,15.265625 Q19.921875,14.453125 19.296875,13.421875 Q18.671875,12.40625 17.5625,11.359375 Q16.46875,10.3125 15.015625,9.375 Q13.5625,8.453125 11.875,7.765625 Q10.203125,7.078125 8.453125,6.796875 Q7.75,5.5625 7.390625,4.515625 Q7.03125,3.484375 7.03125,2.359375 Q7.03125,1.53125 7.609375,0.9375 Q8.1875,0.34375 9.28125,0.34375 Q10.421875,0.34375 11.4375,0.71875 Q12.453125,1.109375 13.234375,1.734375 Q14.015625,2.359375 14.46875,3.125 Q14.921875,3.890625 14.921875,4.6875 Q14.921875,5.5625 14.46875,6 Q14.015625,6.453125 13.3125,6.453125 Q12.53125,6.453125 11.9375,5.984375 Q11.359375,5.515625 10.984375,4.828125 Q10.609375,4.15625 10.46875,3.484375 Q10.375,3.078125 10.234375,2.765625 Q10.109375,2.46875 9.890625,2.46875 Q9.625,2.46875 9.53125,2.71875 Q9.4375,2.96875 9.4375,3.359375 Q9.4375,4.390625 9.953125,5.21875 Q10.484375,6.046875 11.359375,6.53125 Q12.234375,7.03125 13.265625,7.03125 Q14.375,7.03125 15.046875,6.40625 Q15.71875,5.78125 15.71875,4.734375 Q15.71875,3.796875 15.1875,2.90625 Q14.65625,2.015625 13.75,1.296875 Q12.84375,0.59375 11.671875,0.171875 Q10.515625,-0.234375 9.234375,-0.234375 Z M8.859375,7.390625 Q10.078125,7.609375 11.390625,8.28125 Q12.703125,8.96875 13.90625,9.921875 Q15.125,10.875 16.09375,11.953125 Q17.0625,13.03125 17.625,14.078125 Q18.1875,15.125 18.1875,15.9375 Q18.1875,16.703125 17.46875,16.703125 Q16.921875,16.703125 15.921875,15.890625 Q14.921875,15.078125 13.625,13.734375 Q11.203125,11.234375 8.859375,7.390625 Z" transform="translate(1.5625, 17.28125) scale(1, -1)"/>
</svg>