<svg height="14.59375" viewBox="0 0 24 14.59375" width="24" xmlns="http://www.w3.org/2000/svg">
<path d="M0.84375,-7.21875 Q-0.125,-7.21875 -0.671875,-6.671875 Q-1.21875,-6.140625 -1.21875,-5.359375 Q-1.21875,-2.59375 5.78125,-0.265625 L7.625,3.140625 Q5.15625,-0.171875 3.703125,-0.171875 Q3.078125,-0.171875 2.65625,0.265625 Q2.25,0.703125 2.25,1.46875 Q2.25,2.734375 3.671875,5.015625 Q3.9375,5.421875 3.9375,5.65625 Q3.9375,5.828125 3.796875,5.828125 Q3.5,5.828125 3.09375,5.4375 Q2.6875,5.0625 1.875,4.0625 L1.5625,4.375 Q3.9375,7.375 5.09375,7.375 Q5.640625,7.375 5.96875,6.9375 Q6.3125,6.5 6.3125,5.734375 Q6.3125,5.28125 6.171875,4.828125 Q6.046875,4.390625 5.78125,3.890625 Q5.5625,3.453125 5.265625,2.96875 Q4.984375,2.5 4.609375,1.921875 Q4.21875,1.3125 4.03125,0.953125 Q3.84375,0.59375 3.84375,0.484375 Q3.84375,0.28125 4.03125,0.28125 Q4.53125,0.28125 6.3125,2.25 Q7.203125,3.234375 8.09375,4.453125 Q9,5.6875 9.890625,7.203125 L12.484375,7.375 L8.765625,0.640625 Q9.4375,0.9375 10.109375,1.421875 Q10.796875,1.921875 11.546875,2.515625 L11.859375,2.203125 Q11.015625,1.484375 10.15625,0.9375 Q9.3125,0.390625 8.328125,0 Q7.15625,-2.09375 6.125,-3.5 Q5.09375,-4.921875 4.296875,-5.6875 Q2.6875,-7.21875 0.84375,-7.21875 Z M0.703125,-6.8125 Q1.6875,-6.8125 2.65625,-5.609375 Q3.640625,-4.421875 5.46875,-0.859375 Q2.5625,-1.890625 1.09375,-3.171875 Q-0.359375,-4.46875 -0.359375,-5.8125 Q-0.359375,-6.265625 -0.0625,-6.53125 Q0.21875,-6.8125 0.703125,-6.8125 Z" transform="translate(6.3671875, 7.375) scale(1, -1)"/>
</svg>