<svg height="24" viewBox="0 0 24 24" width="24" xmlns="http://www.w3.org/2000/svg">
<path d="M0.625,0 L4.25,17.140625 L9.234375,17.140625 Q11.6875,17.140625 13.171875,16.265625 Q14.65625,15.390625 14.65625,13.3125 Q14.65625,11.5625 13.671875,10.4375 Q12.703125,9.3125 10.921875,8.921875 L10.921875,8.828125 Q12.09375,8.515625 12.78125,7.6875 Q13.484375,6.859375 13.484375,5.59375 Q13.484375,3.640625 12.59375,2.40625 Q11.71875,1.171875 10.1875,0.578125 Q8.65625,0 6.75,0 Z M6.390625,10.34375 L8.140625,10.34375 Q9.40625,10.34375 10.1875,10.859375 Q10.96875,11.375 10.96875,12.546875 Q10.96875,14.15625 8.96875,14.15625 L7.203125,14.15625 Z M4.828125,3 L6.9375,3 Q8.25,3 9.046875,3.65625 Q9.859375,4.3125 9.859375,5.5625 Q9.859375,6.484375 9.328125,6.96875 Q8.8125,7.46875 7.734375,7.46875 L5.78125,7.46875 Z" transform="translate(4.359375, 17.140625) scale(1, -1)"/>
</svg>