<svg height="17.75" viewBox="0 0 24 17.75" width="24" xmlns="http://www.w3.org/2000/svg">
<path d="M3.890625,-0.234375 Q3.078125,-0.234375 2.34375,0 Q1.609375,0.21875 1.15625,0.65625 Q0.71875,1.109375 0.71875,1.734375 Q0.71875,2.640625 1.46875,3.015625 Q2.234375,3.40625 3.125,3.40625 Q4.015625,3.40625 4.953125,3.078125 Q5.90625,2.765625 6.8125,2.28125 Q7.265625,2.921875 7.578125,3.5 Q7.890625,4.078125 8.171875,4.734375 Q8.46875,5.40625 8.828125,6.28125 Q7.3125,6.4375 6.359375,6.953125 Q5.421875,7.46875 4.921875,8.1875 Q4.421875,8.90625 4.234375,9.640625 Q4.0625,10.390625 4.0625,10.96875 Q4.0625,12.234375 4.6875,13.390625 Q5.328125,14.546875 6.421875,15.4375 Q7.515625,16.34375 8.921875,16.875 Q10.34375,17.40625 11.875,17.40625 Q12.84375,17.40625 13.515625,17.28125 Q13.875,17.234375 13.984375,17.140625 Q14.109375,17.046875 14.109375,16.921875 Q14.109375,16.625 13.78125,16.625 Q13.6875,16.625 13.46875,16.65625 Q13.25,16.703125 13.015625,16.734375 Q12.75,16.78125 12.515625,16.78125 Q12.28125,16.796875 11.875,16.796875 Q10.703125,16.796875 9.640625,16.21875 Q8.59375,15.640625 7.765625,14.6875 Q6.953125,13.75 6.484375,12.609375 Q6.03125,11.46875 6.03125,10.34375 Q6.03125,9.140625 6.5,8.421875 Q6.984375,7.703125 7.6875,7.359375 Q8.40625,7.03125 9.09375,6.953125 Q9.84375,8.765625 10.796875,10.59375 Q11.765625,12.4375 12.875,13.96875 Q13.984375,15.5 15.25,16.4375 Q16.515625,17.375 17.859375,17.375 Q19.0625,17.375 19.546875,16.765625 Q20.046875,16.171875 20.046875,15.3125 Q20.046875,14.421875 19.453125,13.234375 Q18.859375,12.046875 17.84375,10.8125 Q16.828125,9.59375 15.484375,8.546875 Q14.15625,7.515625 12.671875,6.890625 Q12.625,6.75 12.578125,6.578125 Q12.1875,5.28125 11.53125,4.25 Q10.875,3.234375 10.140625,2.5 Q9.40625,1.78125 8.765625,1.296875 Q9.53125,0.890625 10.203125,0.609375 Q10.890625,0.34375 11.453125,0.34375 Q12.578125,0.34375 13.78125,1.25 Q15,2.15625 15.890625,3.640625 Q16.03125,3.90625 16.25,3.90625 Q16.53125,3.90625 16.53125,3.625 Q16.53125,3.453125 16.46875,3.3125 Q15.984375,2.5 15.203125,1.640625 Q14.421875,0.796875 13.4375,0.21875 Q12.453125,-0.34375 11.296875,-0.34375 Q10.375,-0.34375 9.53125,-0.03125 Q8.6875,0.265625 7.890625,0.703125 Q6.953125,0.171875 5.90625,-0.03125 Q4.875,-0.234375 3.890625,-0.234375 Z M14.59375,12.75 Q14.1875,11.765625 13.8125,10.609375 Q13.4375,9.453125 12.90625,7.734375 Q14.0625,8.296875 15.078125,9.171875 Q16.109375,10.0625 16.875,11.09375 Q17.65625,12.140625 18.09375,13.25 Q18.546875,14.375 18.546875,15.4375 Q18.546875,16.03125 18.34375,16.34375 Q18.140625,16.65625 17.828125,16.65625 Q17.421875,16.65625 17.09375,16.5 Q16.78125,16.34375 16.421875,15.9375 Q15.90625,15.390625 15.453125,14.5625 Q15,13.734375 14.59375,12.75 Z M3.765625,0.5 Q4.46875,0.5 5.1875,0.8125 Q5.90625,1.125 6.359375,1.65625 Q5.59375,2.140625 4.78125,2.453125 Q3.984375,2.78125 3.09375,2.78125 Q2.46875,2.78125 1.90625,2.546875 Q1.34375,2.328125 1.34375,1.734375 Q1.34375,1.296875 1.71875,1.03125 Q2.109375,0.765625 2.671875,0.625 Q3.234375,0.5 3.765625,0.5 Z" transform="translate(1.6171875, 17.40625) scale(1, -1)"/>
</svg>