<svg height="13.21875" viewBox="0 0 24 13.21875" width="24" xmlns="http://www.w3.org/2000/svg">
<path d="M5.953125,-0.1875 Q3.71875,-0.1875 2.4375,1.140625 Q1.15625,2.46875 1.15625,4.75 Q1.15625,6.234375 1.5625,7.703125 Q1.96875,9.171875 2.765625,10.359375 Q3.578125,11.5625 4.78125,12.296875 Q6,13.03125 7.578125,13.03125 Q9.84375,13.03125 11.109375,11.703125 Q12.390625,10.375 12.390625,8.0625 Q12.390625,6.59375 11.96875,5.125 Q11.5625,3.671875 10.75,2.46875 Q9.953125,1.265625 8.75,0.53125 Q7.5625,-0.1875 5.953125,-0.1875 Z M6.078125,1.5625 Q7.21875,1.5625 8.15625,2.359375 Q9.09375,3.171875 9.65625,4.671875 Q10.21875,6.1875 10.21875,8.296875 Q10.21875,9.03125 9.96875,9.703125 Q9.71875,10.390625 9.140625,10.828125 Q8.5625,11.28125 7.609375,11.28125 Q6.28125,11.28125 5.3125,10.375 Q4.34375,9.484375 3.8125,7.984375 Q3.28125,6.484375 3.28125,4.6875 Q3.28125,3.1875 4.015625,2.375 Q4.75,1.5625 6.078125,1.5625 Z" transform="translate(5.2265625, 13.03125) scale(1, -1)"/>
</svg>