<svg height="19.109375" viewBox="0 0 24 19.109375" width="24" xmlns="http://www.w3.org/2000/svg">
<path d="M6.3125,-5.765625 L7.171875,-1.796875 Q7.265625,-1.375 7.4375,-0.734375 Q7.609375,-0.09375 7.8125,0.578125 Q8.015625,1.25 8.15625,1.75 L8.0625,1.75 Q7.4375,0.9375 6.625,0.34375 Q5.8125,-0.234375 4.578125,-0.234375 Q3.71875,-0.234375 2.90625,0.234375 Q2.109375,0.703125 1.578125,1.734375 Q1.0625,2.78125 1.0625,4.515625 Q1.0625,6.125 1.484375,7.671875 Q1.921875,9.234375 2.703125,10.515625 Q3.5,11.8125 4.609375,12.578125 Q5.734375,13.34375 7.125,13.34375 Q8.296875,13.34375 9.046875,12.84375 Q9.796875,12.34375 10.375,11.421875 L10.46875,11.421875 L11.140625,13.109375 L13.84375,13.109375 L9.84375,-5.765625 Z M6.265625,2.609375 Q7.109375,2.609375 7.6875,3.25 Q8.28125,3.890625 8.640625,4.828125 Q9,5.78125 9.171875,6.75 Q9.359375,7.734375 9.359375,8.421875 Q9.359375,9.359375 8.921875,9.921875 Q8.5,10.484375 7.734375,10.484375 Q7.078125,10.484375 6.515625,9.96875 Q5.953125,9.453125 5.53125,8.609375 Q5.109375,7.78125 4.859375,6.75 Q4.625,5.71875 4.625,4.6875 Q4.625,3.640625 5.0625,3.125 Q5.5,2.609375 6.265625,2.609375 Z" transform="translate(4.546875, 13.34375) scale(1, -1)"/>
</svg>