<svg height="18.46875" viewBox="0 0 24 18.46875" width="24" xmlns="http://www.w3.org/2000/svg">
<path d="M7.15625,-0.234375 Q5.90625,-0.234375 5.125,0.28125 Q4.34375,0.8125 3.90625,1.6875 L3.8125,1.6875 L3.140625,0 L0.4375,0 L4.296875,18.234375 L7.828125,18.234375 L7.109375,14.859375 Q7.015625,14.375 6.84375,13.734375 Q6.671875,13.109375 6.46875,12.46875 Q6.28125,11.828125 6.125,11.359375 L6.21875,11.359375 Q6.84375,12.140625 7.578125,12.734375 Q8.328125,13.34375 9.53125,13.34375 Q10.484375,13.34375 11.328125,12.875 Q12.171875,12.40625 12.6875,11.359375 Q13.21875,10.3125 13.21875,8.59375 Q13.21875,6.984375 12.78125,5.421875 Q12.359375,3.859375 11.5625,2.578125 Q10.78125,1.296875 9.65625,0.53125 Q8.546875,-0.234375 7.15625,-0.234375 Z M6.546875,2.609375 Q7.203125,2.609375 7.765625,3.125 Q8.328125,3.640625 8.75,4.484375 Q9.171875,5.328125 9.40625,6.359375 Q9.640625,7.390625 9.640625,8.421875 Q9.640625,10.484375 8.109375,10.484375 Q7.25,10.484375 6.640625,9.859375 Q6.046875,9.234375 5.65625,8.28125 Q5.28125,7.34375 5.09375,6.359375 Q4.921875,5.375 4.921875,4.6875 Q4.921875,3.75 5.359375,3.171875 Q5.8125,2.609375 6.546875,2.609375 Z" transform="translate(5.171875, 18.234375) scale(1, -1)"/>
</svg>