<svg height="8.09375" viewBox="0 0 24 8.09375" width="24" xmlns="http://www.w3.org/2000/svg">
<path d="M7.84375,2.203125 Q6.640625,0.890625 5.859375,0.359375 Q5.09375,-0.171875 4.390625,-0.171875 Q3.71875,-0.171875 3.28125,0.3125 Q2.859375,0.796875 2.859375,1.5625 Q2.859375,2.28125 3.28125,3.109375 Q3.703125,3.953125 4.40625,4.75 Q5.109375,5.546875 5.96875,6.046875 Q5.609375,6.03125 5.234375,5.984375 Q4.875,5.953125 4.515625,5.953125 L3.671875,5.953125 Q3,5.28125 2.546875,4.8125 Q2.09375,4.34375 1.734375,4.078125 L1.421875,4.390625 Q1.78125,4.703125 2.1875,5.109375 Q2.59375,5.515625 3.265625,6.1875 Q3.390625,6.59375 3.46875,6.90625 Q3.546875,7.21875 3.625,7.46875 Q3.765625,7.921875 3.953125,7.921875 Q4.25,7.921875 4.25,7.53125 Q4.25,7.46875 4.234375,7.390625 Q4.21875,7.3125 4.21875,7.25 Q4.21875,6.75 4.921875,6.703125 Q5.375,6.671875 6,6.5625 Q6.625,6.453125 7.09375,6.171875 Q7.578125,5.90625 7.578125,5.328125 Q7.578125,5.09375 7.390625,4.734375 Q7.21875,4.375 6.9375,3.9375 Q6.625,3.453125 6.21875,2.90625 Q5.828125,2.375 5.453125,1.890625 Q5.09375,1.4375 4.9375,1.125 Q4.78125,0.8125 4.78125,0.640625 Q4.78125,0.484375 4.984375,0.484375 Q5.25,0.484375 5.875,0.953125 Q6.5,1.421875 7.484375,2.515625 Z" transform="translate(7.3671875, 7.921875) scale(1, -1)"/>
</svg>