<svg height="14.234375" viewBox="0 0 24 14.234375" width="24" xmlns="http://www.w3.org/2000/svg">
<path d="M10.734375,2.875 Q9.984375,2.234375 9.328125,1.96875 Q8.6875,1.703125 7.984375,1.703125 Q7.890625,1.703125 7.8125,1.703125 Q7.75,1.703125 7.578125,1.734375 Q5.46875,-0.171875 3.265625,-0.171875 Q2.359375,-0.171875 1.828125,0.3125 Q1.3125,0.796875 1.3125,1.625 Q1.3125,2.109375 1.6875,3 Q2.0625,3.890625 2.875,5.203125 Q2.546875,4.84375 2.21875,4.5625 Q1.890625,4.296875 1.609375,4.0625 L1.203125,4.53125 Q2.234375,5.375 2.75,5.90625 Q3.265625,6.453125 3.640625,7.078125 L7.890625,13.78125 L10.96875,14.0625 L5.765625,5.40625 Q5.46875,4.9375 5.109375,4.328125 Q4.75,3.71875 4.40625,3.109375 Q4.0625,2.5 3.828125,2.015625 Q3.59375,1.53125 3.59375,1.34375 Q3.59375,0.625 4.21875,0.625 Q4.5625,0.625 5.328125,0.96875 Q6.09375,1.3125 6.9375,2.0625 Q6.484375,2.765625 6.484375,3.9375 Q6.484375,4.75 6.859375,5.5625 Q7.25,6.390625 7.8125,6.9375 Q8.375,7.484375 8.90625,7.484375 Q10.109375,7.484375 10.109375,6 Q10.109375,5.046875 9.640625,4.0625 Q9.171875,3.09375 8.15625,2.296875 Q8.765625,2.296875 9.28125,2.5625 Q9.796875,2.828125 10.375,3.359375 Z M7.578125,2.46875 Q8.46875,3.453125 8.734375,4.015625 Q9,4.578125 9,5.015625 Q9,5.78125 8.421875,5.78125 Q8.140625,5.78125 7.875,5.46875 Q7.609375,5.15625 7.421875,4.703125 Q7.25,4.25 7.25,3.765625 Q7.25,2.953125 7.578125,2.46875 Z" transform="translate(5.9140625, 14.0625) scale(1, -1)"/>
</svg>