<svg height="12.375" viewBox="0 0 24 12.375" width="24" xmlns="http://www.w3.org/2000/svg">
<path d="M4.078125,-0.546875 Q4.015625,-0.21875 3.390625,0.125 Q2.5625,0.59375 0.71875,1.0625 L0.71875,1.53125 Q1.078125,1.65625 1.171875,2.109375 Q1.265625,2.5625 1.265625,3.53125 L1.265625,7.65625 Q1.265625,8.28125 1.234375,8.78125 Q1.203125,9.28125 1.15625,9.703125 L6.359375,11.828125 L6.59375,11.40625 L6.234375,11.203125 Q6.59375,10.421875 7.609375,8.96875 Q8.609375,7.515625 8.609375,6.09375 Q8.609375,4.921875 8,3.75 Q7.390625,2.59375 6.171875,1.21875 L4.5625,-0.546875 Z M5.296875,1.203125 Q5.515625,1.203125 5.8125,1.515625 Q6.125,1.84375 6.4375,2.375 Q6.75,2.90625 6.953125,3.53125 Q7.15625,4.15625 7.15625,4.734375 Q7.15625,6.3125 6,7.984375 Q5.421875,8.828125 5.015625,9.453125 Q4.609375,10.078125 4.390625,10.484375 L2.875,9.859375 L2.875,2.328125 Q3.40625,2.09375 3.8125,1.890625 Q4.21875,1.6875 4.515625,1.515625 Q5.0625,1.203125 5.296875,1.203125 Z" transform="translate(7.3359375, 11.828125) scale(1, -1)"/>
</svg>