<svg height="21.625" viewBox="0 0 24 21.625" width="24" xmlns="http://www.w3.org/2000/svg">
<path d="M4.03125,-4.734375 L3.59375,-4.4375 Q7.390625,0.796875 7.390625,4.375 Q7.390625,7.171875 4.796875,9.90625 L3.046875,8.328125 L3.046875,2.71875 Q3.046875,1.96875 3.3125,1.78125 Q3.453125,1.65625 3.703125,1.578125 L4.78125,2.5 L5.09375,2.140625 Q3.265625,0.3125 3.03125,-0.546875 L2.5625,-0.546875 Q2.46875,-0.21875 1.953125,0.21875 Q1.4375,0.671875 0.71875,0.90625 L0.71875,1.34375 Q1.4375,1.46875 1.4375,2.296875 L1.4375,14.15625 Q1.4375,14.875 1.015625,15.59375 L1.34375,15.84375 Q1.890625,15.28125 2.046875,14.5625 Q2.765625,16.890625 5.25,16.890625 L5.25,16.390625 Q3.984375,16.3125 3.515625,15.59375 Q3.046875,14.875 3.046875,13.3125 L3.046875,9 L6.125,11.828125 L6.40625,11.59375 Q6.34375,11.421875 6.34375,11.328125 Q6.34375,11.234375 6.421875,11.09375 Q6.5,10.96875 6.59375,10.84375 Q7.5625,9.75 8.1875,8.40625 Q8.828125,7.0625 8.828125,5.609375 Q8.828125,1.5625 4.03125,-4.734375 Z" transform="translate(7.2265625, 16.890625) scale(1, -1)"/>
</svg>