<svg height="19.109375" viewBox="0 0 24 19.109375" width="24" xmlns="http://www.w3.org/2000/svg">
<path d="M6.765625,-5.765625 Q5.375,-5.765625 4.1875,-5.59375 Q3,-5.421875 1.875,-4.984375 L1.875,-2.140625 Q4.296875,-3.140625 6.984375,-3.140625 Q9.75,-3.140625 9.75,-0.171875 L9.75,0.09375 Q9.75,0.5 9.78125,0.9375 Q9.8125,1.375 9.84375,1.703125 L9.75,1.703125 Q9.078125,0.671875 8.140625,0.21875 Q7.203125,-0.234375 6.03125,-0.234375 Q3.703125,-0.234375 2.390625,1.546875 Q1.078125,3.34375 1.078125,6.53125 Q1.078125,9.75 2.421875,11.546875 Q3.765625,13.34375 6.125,13.34375 Q8.546875,13.34375 9.90625,11.421875 L10.015625,11.421875 L10.296875,13.109375 L13.3125,13.109375 L13.3125,-0.03125 Q13.3125,-2.828125 11.65625,-4.296875 Q10.015625,-5.765625 6.765625,-5.765625 Z M7.296875,2.5625 Q8.65625,2.5625 9.3125,3.34375 Q9.984375,4.125 9.984375,6.078125 L9.984375,6.5 Q9.984375,8.609375 9.328125,9.515625 Q8.6875,10.4375 7.25,10.4375 Q4.734375,10.4375 4.734375,6.484375 Q4.734375,2.5625 7.296875,2.5625 Z" transform="translate(4.8046875, 13.34375) scale(1, -1)"/>
</svg>