<svg height="15.859375" viewBox="0 0 24 15.859375" width="24" xmlns="http://www.w3.org/2000/svg">
<path d="M4.21875,-0.546875 Q4.203125,-0.4375 4,-0.1875 Q3.8125,0.046875 3.4375,0.28125 Q3.046875,0.546875 2.421875,0.921875 Q1.796875,1.296875 0.9375,1.796875 L0.9375,2.515625 Q2.734375,3.578125 2.734375,4.515625 Q2.734375,5.234375 1.734375,6.3125 Q0.71875,7.390625 0.71875,7.828125 Q0.71875,8.28125 1.484375,9.171875 Q2.0625,9.8125 2.75,10.515625 Q3.453125,11.234375 4.046875,11.71875 Q4.65625,12.21875 4.875,12.21875 Q5.0625,12.21875 5.375,11.96875 Q6.765625,10.921875 7.75,10.921875 Q8.46875,10.921875 8.953125,11.421875 Q9.4375,11.921875 9.4375,12.671875 Q9.4375,13.4375 8.921875,13.953125 Q8.421875,14.46875 7.75,14.46875 Q7.171875,14.46875 6.671875,13.96875 Q6.171875,13.46875 6.078125,12.84375 Q5.609375,13.3125 4.984375,13.625 Q5.328125,14.359375 5.984375,14.828125 Q6.640625,15.3125 7.515625,15.3125 Q8.234375,15.3125 8.859375,14.96875 Q9.484375,14.640625 9.859375,14.03125 Q10.25,13.4375 10.25,12.671875 Q10.25,11.953125 10,11.328125 Q9.765625,10.703125 9.125,9.9375 L7.5625,8.046875 Q8.828125,7.34375 9.46875,6.328125 Q10.109375,5.328125 10.109375,4.390625 Q10.109375,3.28125 9.421875,2.375 Q8.734375,1.484375 7.46875,0.890625 Q6.453125,0.40625 5.953125,0.15625 Q5.453125,-0.09375 5.25,-0.234375 Q5.0625,-0.390625 4.96875,-0.546875 Z M4.734375,6.265625 L6.84375,8.65625 Q5.5,8.65625 4.078125,9.796875 Q3.859375,9.984375 3.640625,9.984375 Q3.453125,9.984375 3.171875,9.671875 Q2.90625,9.359375 2.90625,9.125 Q2.90625,8.8125 3.75,7.78125 Q4.15625,7.265625 4.390625,6.890625 Q4.625,6.53125 4.734375,6.265625 Z M6.390625,1.375 Q7.078125,1.375 7.546875,1.921875 Q8.015625,2.46875 8.015625,3.234375 Q8.015625,3.8125 7.609375,4.40625 Q7.21875,5.015625 6.71875,5.421875 Q6.21875,5.828125 5.859375,5.828125 Q5.609375,5.828125 5.328125,5.5 L3.359375,3.234375 Q4.078125,2.71875 4.5625,2.34375 Q5.0625,1.96875 5.375,1.78125 Q6,1.375 6.390625,1.375 Z" transform="translate(6.515625, 15.3125) scale(1, -1)"/>
</svg>