<svg height="18.515625" viewBox="0 0 24 18.515625" width="24" xmlns="http://www.w3.org/2000/svg">
<path d="M4.703125,-0.546875 Q4.65625,-0.390625 4.21875,-0.125 Q3.796875,0.140625 3.328125,0.359375 Q2.859375,0.59375 2.640625,0.59375 Q2.328125,0.59375 2.046875,0.359375 Q1.78125,0.140625 1.421875,-0.21875 L0.71875,0.40625 L2.90625,3.453125 L3.796875,3.453125 Q3.90625,3.1875 4.296875,2.890625 Q4.703125,2.59375 5.171875,2.390625 Q5.640625,2.203125 5.921875,2.203125 Q6.359375,2.203125 6.640625,3.125 Q6.9375,4.03125 6.9375,6.140625 L6.9375,8.0625 L5.296875,8.0625 Q4.78125,8.0625 4.46875,7.734375 Q4.15625,7.421875 3.765625,6.546875 L2.875,6.546875 Q3.3125,7.609375 3.734375,8.703125 Q4.15625,9.8125 4.3125,10.375 Q4.65625,10.171875 4.921875,10.109375 Q5.203125,10.0625 5.8125,10.0625 L6.9375,10.0625 L6.9375,11.78125 Q6.9375,15.53125 4.828125,15.53125 Q3.546875,15.53125 2.109375,13.9375 L1.421875,14.546875 L3.9375,17.515625 Q4.265625,17.921875 5.28125,17.921875 Q6.234375,17.921875 7.09375,17.5 Q7.96875,17.09375 8.5625,16.375 Q9.171875,15.671875 9.34375,14.78125 Q9.53125,15.484375 10.703125,16.515625 Q11.921875,17.5625 12.09375,17.96875 L13.0625,17.96875 Q13.203125,17.765625 13.578125,17.5 Q13.96875,17.25 14.34375,17.078125 Q14.734375,16.921875 14.90625,16.921875 Q15.140625,16.921875 15.75,17.421875 L16.421875,16.78125 L15.90625,16.15625 Q14.5,14.375 14.015625,14.375 Q13.75,14.375 13.125,14.65625 Q12.5,14.953125 12.078125,15.1875 L11.328125,15.578125 Q10.75,15.140625 10.5,14.734375 Q10.265625,14.328125 10.265625,13.5625 L10.265625,10.0625 L11.859375,10.0625 Q12.28125,10.0625 12.59375,10.375 Q12.90625,10.6875 13.21875,11.421875 L14.140625,11.421875 Q13.625,10.53125 13.1875,9.640625 Q12.765625,8.765625 12.40625,7.875 Q12.140625,7.9375 11.734375,8 Q11.328125,8.0625 10.796875,8.0625 L10.265625,8.0625 L10.265625,5.15625 Q10.265625,3.625 10.8125,2.859375 Q11.375,2.109375 12.09375,2.109375 Q12.8125,2.109375 13.5,2.484375 Q14.203125,2.859375 15.125,3.796875 L15.765625,3.125 L13.171875,0.625 Q12.796875,0.265625 12.609375,0.03125 Q12.4375,-0.1875 12.390625,-0.546875 L11.46875,-0.546875 Q11.375,-0.3125 10.890625,-0.171875 L9.859375,0.125 Q9.390625,0.265625 8.96875,0.78125 Q8.546875,1.3125 8.25,2.078125 Q7.96875,2.859375 7.890625,3.703125 Q7.703125,2.78125 7.40625,2.125 Q7.109375,1.484375 6.640625,0.875 Q6.1875,0.28125 5.46875,-0.546875 Z" transform="translate(3.4296875, 17.96875) scale(1, -1)"/>
</svg>