<svg height="18.046875" viewBox="0 0 24 18.046875" width="24" xmlns="http://www.w3.org/2000/svg">
<path d="M4.203125,-0.546875 L3.546875,-0.234375 Q3.796875,0 3.796875,0.125 Q3.796875,0.359375 2.515625,0.859375 Q2.15625,1.015625 1.703125,1.171875 Q1.265625,1.34375 0.71875,1.515625 L0.71875,2.234375 Q1.125,2.359375 1.203125,2.8125 Q1.296875,3.28125 1.296875,3.90625 L1.296875,14.359375 Q1.296875,14.90625 1.203125,15.265625 Q1.125,15.640625 0.796875,16.171875 L1.421875,16.65625 Q2.140625,16.078125 2.5,14.5 Q2.921875,15.90625 3.875,16.703125 Q4.84375,17.5 6.234375,17.5 L6.234375,16.78125 Q5.015625,16.703125 4.5625,16.046875 Q4.109375,15.390625 4.109375,13.96875 L4.109375,3.84375 Q4.109375,3.1875 4.390625,3.046875 Q5.65625,2.375 5.953125,2.375 Q6.3125,2.375 6.84375,2.90625 L7.375,2.421875 Z" transform="translate(7.953125, 17.5) scale(1, -1)"/>
</svg>