<svg height="18.875" viewBox="0 0 24 18.875" width="24" xmlns="http://www.w3.org/2000/svg">
<path d="M7.03125,-5.765625 Q5.71875,-5.765625 4.5,-5.53125 Q3.28125,-5.296875 2.234375,-4.84375 L2.234375,-3.578125 Q4.125,-4.53125 6.9375,-4.53125 Q7.921875,-4.53125 8.75,-4.453125 Q9.59375,-4.390625 10.265625,-4.21875 L10.265625,1.96875 Q9.890625,0.984375 8.765625,0.375 Q7.65625,-0.234375 6.34375,-0.234375 Q3.859375,-0.234375 2.5,1.546875 Q1.15625,3.34375 1.15625,6.5 Q1.15625,9.59375 2.5,11.34375 Q3.859375,13.109375 6.34375,13.109375 Q7.578125,13.109375 8.65625,12.578125 Q9.75,12.046875 10.296875,10.828125 L10.296875,12.859375 L14.453125,12.859375 L14.453125,-1.015625 Q14.453125,-3.40625 12.640625,-4.578125 Q10.828125,-5.765625 7.03125,-5.765625 Z M6.453125,0.984375 Q8.25,0.984375 9.25,2.34375 Q10.265625,3.71875 10.265625,6.125 L10.265625,7.15625 Q10.265625,9.359375 9.28125,10.609375 Q8.296875,11.875 6.453125,11.875 Q5.859375,11.875 5.59375,11.78125 L5.59375,1.0625 Q6.03125,0.984375 6.453125,0.984375 Z M11.5625,-3.765625 Q12.484375,-3.21875 12.828125,-2.46875 Q13.171875,-1.734375 13.171875,-0.484375 L13.171875,11.5625 L11.5625,11.5625 Z M4.3125,1.5625 L4.3125,11.28125 Q2.421875,10.109375 2.421875,6.5 Q2.421875,2.78125 4.3125,1.5625 Z" transform="translate(4.1953125, 13.109375) scale(1, -1)"/>
</svg>