<svg height="24" viewBox="0 0 24 24" width="24" xmlns="http://www.w3.org/2000/svg">
<path d="M1.796875,0 L1.796875,12.859375 L5.953125,12.859375 L5.953125,10.984375 Q7.171875,13.109375 9.90625,13.109375 Q11.109375,13.109375 12.15625,12.515625 Q13.21875,11.921875 13.625,10.65625 Q14.921875,13.109375 17.828125,13.109375 Q19.609375,13.109375 20.703125,12.03125 Q21.796875,10.96875 21.796875,9.1875 L21.796875,0 L17.640625,0 L17.640625,11.859375 Q16.609375,11.859375 15.75,11.28125 Q14.90625,10.703125 14.390625,9.765625 Q13.875,8.828125 13.875,7.734375 L13.875,0 L9.71875,0 L9.71875,11.859375 Q8.6875,11.859375 7.828125,11.265625 Q6.984375,10.6875 6.46875,9.703125 Q5.953125,8.734375 5.953125,7.578125 L5.953125,0 Z M10.984375,1.265625 L12.59375,1.265625 L12.59375,9.453125 Q12.59375,10.25 12.125,10.875 Q11.65625,11.515625 10.984375,11.734375 Z M18.90625,1.265625 L20.515625,1.265625 L20.515625,9.359375 Q20.515625,10.203125 20.046875,10.875 Q19.578125,11.5625 18.90625,11.734375 Z M3.078125,1.265625 L4.6875,1.265625 L4.6875,11.59375 L3.078125,11.59375 Z" transform="translate(0.203125, 13.109375) scale(1, -1)"/>
</svg>