<svg height="18.328125" viewBox="0 0 24 18.328125" width="24" xmlns="http://www.w3.org/2000/svg">
<path d="M9.703125,-0.546875 Q7.015625,-0.546875 5.015625,0.625 Q3.03125,1.796875 1.9375,3.9375 Q0.84375,6.078125 0.84375,8.953125 Q0.84375,11.453125 1.625,13.359375 Q2.421875,15.265625 3.796875,16.328125 Q5.1875,17.40625 6.953125,17.40625 Q7.875,17.40625 8.640625,17.09375 L9.484375,17.78125 L9.796875,17.46875 Q9.625,17.359375 9.484375,17.1875 Q9.34375,17.015625 9.21875,16.828125 Q10.015625,16.421875 10.5625,15.953125 L10.21875,15.5 Q9.703125,16.03125 8.875,16.375 Q8.5,15.796875 8.5,15.359375 Q8.5,14.78125 9.234375,13.375 Q9.984375,11.96875 9.984375,11.1875 Q9.984375,10.5625 9.046875,8.921875 Q9.75,9.484375 10.515625,9.75 Q11.359375,10.03125 12.3125,10.5 Q13.265625,10.984375 13.796875,11.65625 Q14.375,12.390625 14.375,13.015625 Q14.375,13.5625 13.875,14.015625 L12.53125,15.28125 Q12.171875,15.625 12.171875,15.765625 Q12.171875,15.953125 12.546875,16.375 L13.609375,17.5 L13.9375,17.234375 Q13.890625,17.140625 13.84375,17.0625 Q13.796875,16.984375 13.796875,16.9375 Q13.796875,16.65625 15.03125,15.4375 Q15.625,14.828125 15.8125,14.6875 Q16.015625,14.5625 16.078125,14.5625 Q16.21875,14.5625 16.390625,14.640625 L16.609375,14.375 Q16.25,14.09375 15.84375,13.625 Q15.453125,13.15625 15.03125,12.453125 Q14.59375,11.78125 14.1875,11.3125 Q13.78125,10.84375 13.4375,10.53125 Q15.03125,9.8125 15.890625,8.546875 Q16.75,7.296875 16.75,5.734375 Q16.75,3.859375 15.875,2.4375 Q15,1.03125 13.40625,0.234375 Q11.828125,-0.546875 9.703125,-0.546875 Z M6.1875,7.9375 Q7.03125,7.9375 7.5625,8.421875 Q8.109375,8.921875 8.109375,9.84375 Q8.109375,10.734375 7.390625,12.265625 Q6.640625,13.875 6.640625,14.15625 Q6.640625,14.59375 6.96875,15.109375 Q7.296875,15.625 8.015625,16.4375 L8.203125,16.65625 Q7.6875,16.796875 7.15625,16.796875 Q5.0625,16.796875 3.96875,15.109375 Q2.875,13.4375 2.875,10.21875 L2.875,10.125 Q4.78125,7.9375 6.1875,7.9375 Z M9.953125,-0.03125 Q11.40625,-0.03125 12.5,0.5625 Q13.609375,1.15625 14.234375,2.171875 Q14.875,3.1875 14.875,4.484375 Q14.875,5.828125 14.328125,6.859375 Q13.796875,7.890625 12.921875,8.484375 Q12.046875,9.09375 10.984375,9.09375 Q10.609375,9.09375 10.25,9 Q9.890625,8.921875 9.5,8.65625 Q8.828125,8.203125 8.046875,7.765625 Q7.265625,7.34375 6.390625,7.34375 Q4.703125,7.34375 2.90625,9.28125 Q3.390625,4.703125 5.21875,2.328125 Q7.0625,-0.03125 9.953125,-0.03125 Z" transform="translate(3.203125, 17.78125) scale(1, -1)"/>
</svg>