<svg height="12.375" viewBox="0 0 24 12.375" width="24" xmlns="http://www.w3.org/2000/svg">
<path d="M3.8125,-0.546875 L3.5,-0.359375 L3.578125,-0.171875 Q2.109375,0.453125 1.46875,1.296875 Q0.84375,2.15625 0.84375,3.53125 L0.84375,8.140625 Q0.84375,8.546875 0.921875,8.71875 Q1.015625,8.90625 1.3125,9.171875 L4.46875,11.828125 L4.984375,11.828125 L7.03125,8.25 Q7.15625,8.0625 7.15625,7.921875 Q7.15625,7.75 7.03125,7.625 L2.5,3.953125 Q2.609375,2.921875 3.25,2.296875 Q3.890625,1.6875 4.65625,1.6875 Q5.5625,1.6875 6.796875,2.828125 L7.078125,2.546875 Z M2.453125,4.5625 L5.296875,6.859375 Q5.5,7.03125 5.5,7.15625 Q5.5,7.296875 5.234375,7.75 L3.671875,10.46875 Q3.09375,10.0625 2.84375,9.78125 Q2.59375,9.5 2.515625,9.265625 Q2.453125,9.03125 2.453125,8.6875 Z" transform="translate(8, 11.828125) scale(1, -1)"/>
</svg>