<svg height="24" viewBox="0 0 24 24" width="24" xmlns="http://www.w3.org/2000/svg">
<path d="M3.796875,0.03125 L0.265625,12.890625 L2.453125,12.890625 L4.21875,6.03125 Q4.484375,4.984375 4.71875,3.921875 Q4.96875,2.875 5.0625,2.1875 L5.15625,2.1875 Q5.25,2.59375 5.375,3.1875 Q5.515625,3.796875 5.6875,4.453125 Q5.859375,5.109375 6.03125,5.640625 L8.296875,12.890625 L10.609375,12.890625 L12.8125,5.640625 Q13.078125,4.828125 13.328125,3.859375 Q13.578125,2.90625 13.6875,2.203125 L13.78125,2.203125 Q13.84375,2.8125 14.09375,3.859375 Q14.359375,4.921875 14.640625,6.03125 L16.4375,12.890625 L18.59375,12.890625 L15.03125,0.03125 L12.546875,0.03125 L10.34375,7.265625 Q10.03125,8.25 9.796875,9.203125 Q9.578125,10.15625 9.453125,10.6875 L9.359375,10.6875 Q9.265625,10.15625 9.046875,9.203125 Q8.828125,8.25 8.5,7.25 L6.1875,0.03125 Z" transform="translate(2.5703125, 12.890625) scale(1, -1)"/>
</svg>