<svg height="18.515625" viewBox="0 0 24 18.515625" width="24" xmlns="http://www.w3.org/2000/svg">
<path d="M9.9375,-0.546875 Q8.953125,-0.546875 7.640625,-0.109375 Q6.34375,0.3125 4.984375,0.953125 Q4.3125,1.296875 3.71875,1.515625 Q3.125,1.75 2.78125,1.75 Q2.453125,1.75 2.234375,1.515625 Q2.015625,1.296875 1.796875,0.953125 L1.375,0.34375 L0.71875,0.703125 Q1.421875,2.015625 1.890625,2.9375 Q2.375,3.859375 2.609375,4.3125 Q2.78125,4.65625 2.953125,4.8125 Q3.140625,4.984375 3.4375,4.984375 Q3.640625,4.984375 3.96875,4.90625 Q4.3125,4.828125 4.828125,4.65625 Q5.40625,5.015625 5.40625,5.921875 Q5.40625,6.84375 3.625,9.046875 Q1.84375,11.25 1.84375,12.546875 Q1.84375,13.78125 2.390625,14.765625 Q2.953125,15.765625 3.890625,16.484375 Q4.828125,17.203125 5.984375,17.578125 Q7.15625,17.96875 8.375,17.96875 Q9.9375,17.96875 11.203125,17.359375 Q12.484375,16.75 13.21875,15.6875 Q13.96875,14.640625 13.96875,13.34375 Q13.96875,13.015625 13.90625,12.65625 Q13.84375,12.3125 13.75,12.03125 Q13.609375,11.5625 13.609375,11.328125 Q13.609375,11.140625 13.84375,10.921875 L13.265625,10.296875 Q12.796875,10.5625 12.21875,10.5625 Q11.328125,10.5625 10.875,10.203125 Q10.4375,9.84375 10.4375,9.34375 Q10.4375,8.828125 10.8125,8.59375 Q11.203125,8.375 11.734375,8.375 Q12.5,8.375 13.171875,8.8125 L13.578125,7.921875 Q12.71875,7.34375 11.765625,7.34375 Q10.484375,7.34375 9.8125,7.9375 Q9.140625,8.546875 9.140625,9.546875 Q9.140625,10.078125 9.296875,10.609375 Q9.453125,11.15625 9.640625,11.5 L9.40625,11.921875 L10.0625,12.359375 Q10.265625,12.3125 10.484375,12.265625 Q10.703125,12.234375 10.9375,12.234375 Q11.5625,12.234375 11.953125,12.65625 Q12.359375,13.078125 12.359375,13.625 Q12.359375,14.59375 11.859375,15.328125 Q11.359375,16.0625 10.46875,16.484375 Q9.59375,16.921875 8.46875,16.921875 Q6.859375,16.921875 5.953125,16.125 Q5.046875,15.34375 5.046875,13.890625 Q5.046875,13.375 5.28125,12.828125 Q5.515625,12.28125 5.953125,11.65625 Q6.28125,11.1875 6.578125,10.75 Q6.890625,10.3125 7.265625,9.8125 Q7.75,9.21875 8.046875,8.5625 Q8.359375,7.921875 8.359375,7.296875 Q8.359375,6.8125 8.1875,6.359375 Q8.015625,5.90625 7.515625,5.390625 Q7.03125,4.875 6.078125,4.15625 Q6.671875,3.859375 7.4375,3.5625 Q8.203125,3.265625 8.984375,3 Q9.765625,2.734375 10.40625,2.578125 Q11.046875,2.421875 11.359375,2.421875 Q11.546875,2.421875 11.734375,2.46875 Q11.921875,2.515625 12.125,2.59375 Q12.53125,2.734375 13.5625,3.8125 L14.140625,3.359375 Q12.546875,1.46875 10.890625,-0.390625 Q10.53125,-0.546875 9.9375,-0.546875 Z" transform="translate(4.5703125, 17.96875) scale(1, -1)"/>
</svg>