<svg height="24" viewBox="0 0 24 24" width="24" xmlns="http://www.w3.org/2000/svg">
<path d="M1.84375,0 L1.84375,17.140625 L7.921875,17.140625 Q10.578125,17.140625 12.46875,16.109375 Q14.359375,15.09375 15.359375,13.15625 Q16.375,11.234375 16.375,8.515625 Q16.375,4.4375 14.234375,2.21875 Q12.09375,0 8.109375,0 Z M3.125,1.265625 L4.734375,1.265625 L4.734375,15.859375 L3.125,15.859375 Z M6,1.265625 L8.015625,1.265625 Q10.3125,1.265625 11.640625,1.984375 L11.640625,15.03125 Q10.296875,15.859375 8.015625,15.859375 L6,15.859375 Z M12.90625,2.6875 Q14.1875,3.90625 14.640625,5.34375 Q15.09375,6.796875 15.09375,8.546875 Q15.09375,10.3125 14.609375,11.734375 Q14.140625,13.15625 12.90625,14.453125 Z" transform="translate(2.890625, 17.140625) scale(1, -1)"/>
</svg>