<svg height="18.5" viewBox="0 0 24 18.5" width="24" xmlns="http://www.w3.org/2000/svg">
<path d="M9.171875,-0.546875 Q8.59375,-0.546875 7.921875,-0.328125 Q7.25,-0.125 6.578125,0.1875 Q6.09375,0.4375 5.609375,0.703125 Q5.140625,0.984375 4.703125,1.25 Q4.171875,1.578125 3.8125,1.734375 Q3.453125,1.890625 3.171875,1.890625 Q2.71875,1.890625 2.28125,1.59375 Q1.84375,1.3125 1.390625,0.90625 L0.71875,1.578125 Q1.078125,1.9375 1.453125,2.328125 Q1.84375,2.71875 2.28125,3.171875 Q3.09375,4.015625 3.71875,4.46875 Q4.34375,4.921875 4.84375,4.921875 Q5.296875,4.921875 5.8125,4.71875 Q6.34375,4.515625 6.984375,4.15625 Q7.5625,3.84375 8.03125,3.59375 Q8.5,3.34375 9.140625,3 Q9.84375,2.65625 10.5625,2.421875 Q11.28125,2.1875 11.8125,2.1875 Q13.34375,2.1875 14.28125,3.015625 Q15.21875,3.84375 15.640625,5.140625 Q16.078125,6.4375 16.078125,7.875 Q16.078125,9.3125 15.375,10.296875 Q14.6875,11.28125 13.203125,11.8125 Q11.65625,12.359375 9.84375,12.59375 Q8.609375,12.765625 7.9375,13 Q7.265625,13.25 6.875,13.734375 Q6.5,14.234375 6.09375,15.171875 L5.734375,14.96875 Q5.046875,14.609375 5.046875,13.75 Q5.046875,12.9375 5.875,11.875 L6.859375,10.609375 Q7.84375,9.34375 7.84375,8.296875 Q7.84375,7.5625 7.390625,6.921875 Q6.9375,6.28125 6.171875,5.890625 Q5.421875,5.515625 4.53125,5.515625 Q3.4375,5.515625 2.359375,5.90625 L2.5625,6.765625 Q3.40625,6.5 3.84375,6.5 Q4.171875,6.5 4.390625,6.703125 Q4.625,6.90625 4.625,7.21875 Q4.625,7.796875 3.796875,8.953125 L2.859375,10.21875 Q2.40625,10.84375 2.203125,11.40625 Q2.015625,11.96875 2.015625,12.4375 Q2.015625,13.515625 2.65625,14.140625 Q3.3125,14.765625 4.515625,15.453125 L5.859375,16.25 Q6.5,16.65625 6.5,17.953125 L7.25,17.921875 Q7.421875,16.78125 9.671875,16.515625 Q11.15625,16.34375 12.515625,16.015625 Q13.890625,15.703125 15,15.0625 Q16.109375,14.421875 16.75,13.34375 Q17.234375,12.546875 17.453125,11.515625 Q17.6875,10.484375 17.6875,9.234375 Q17.6875,6.53125 16.5,4.359375 Q15.3125,2.203125 13.109375,0.84375 Q12,0.171875 11.015625,-0.1875 Q10.03125,-0.546875 9.171875,-0.546875 Z M18.4375,-0.546875 Q18.171875,-0.546875 17.78125,-0.359375 Q17.40625,-0.171875 17.140625,-0.03125 Q16.734375,0.21875 16.40625,0.375 Q16.078125,0.53125 15.9375,0.53125 Q15.703125,0.53125 15.390625,0.265625 Q15.078125,0 14.734375,-0.34375 L14.0625,0.234375 L16.25,2.65625 Q16.890625,3.390625 17.375,3.390625 Q17.90625,3.390625 19.296875,2.515625 Q19.421875,2.453125 19.578125,2.375 Q19.734375,2.296875 19.84375,2.296875 Q20.109375,2.328125 20.390625,2.546875 Q20.6875,2.78125 21.078125,3.171875 L21.75,2.59375 L19.578125,0.1875 Q18.90625,-0.546875 18.4375,-0.546875 Z" transform="translate(0.765625, 17.953125) scale(1, -1)"/>
</svg>