<svg height="22.53125" viewBox="0 0 24 22.53125" width="24" xmlns="http://www.w3.org/2000/svg">
<path d="M2.765625,13.265625 L3.21875,15.453125 Q3.703125,17.734375 5.015625,17.734375 Q6,17.734375 6,16.75 Q6,16.296875 5.578125,15.671875 Q5.15625,15.046875 4.5625,14.40625 Q3.984375,13.78125 3.5,13.265625 Z M1.296875,-4.796875 Q1.65625,-4.171875 1.921875,-3.546875 Q2.203125,-2.921875 2.390625,-2.109375 Q2.59375,-1.296875 2.6875,-0.125 Q2.78125,1.03125 2.78125,2.765625 L2.78125,8.28125 Q2.78125,9.125 2.28125,9.125 Q1.84375,9.125 1.203125,8.546875 L0.71875,9.078125 Q2.0625,10.0625 3.90625,12.21875 L4.53125,11.828125 Q4.25,11.453125 4.25,11.296875 Q4.25,11.09375 4.609375,10.78125 Q4.984375,10.46875 5.46875,10.21875 Q5.953125,9.984375 6.234375,9.984375 L6.234375,9.265625 Q5.59375,9.1875 5.59375,8.296875 L5.59375,2.015625 Q5.59375,1.421875 5.703125,0.78125 Q5.8125,0.140625 6,-0.546875 L5.28125,-0.546875 Q5.203125,-0.34375 5.046875,0.0625 Q4.890625,0.484375 4.765625,0.890625 Q4.65625,1.3125 4.625,1.53125 Q4.203125,-1.484375 2.046875,-4.796875 Z" transform="translate(8.5234375, 17.734375) scale(1, -1)"/>
</svg>