<svg height="13.34375" viewBox="0 0 24 13.34375" width="24" xmlns="http://www.w3.org/2000/svg">
<path d="M7.375,-0.234375 Q4.390625,-0.234375 2.671875,1.53125 Q0.953125,3.3125 0.953125,6.4375 Q0.953125,8.46875 1.65625,9.96875 Q2.375,11.46875 3.671875,12.28125 Q4.984375,13.109375 6.796875,13.109375 Q9.28125,13.109375 10.625,11.453125 Q11.96875,9.8125 11.96875,6.84375 L11.96875,6.140625 L5.375,6.140625 L5.375,1.25 Q5.828125,1.078125 6.3125,0.984375 Q6.8125,0.90625 7.34375,0.90625 Q9.234375,0.90625 11.40625,1.875 L11.40625,0.59375 Q9.453125,-0.234375 7.375,-0.234375 Z M5.375,7.421875 L10.703125,7.421875 Q10.578125,9.71875 9.5625,10.828125 Q8.546875,11.953125 6.765625,11.953125 Q6.390625,11.953125 6.03125,11.90625 Q5.6875,11.875 5.375,11.765625 Z M4.109375,1.875 L4.109375,11.15625 Q2.234375,9.71875 2.234375,6.4375 Q2.234375,3.53125 4.109375,1.875 Z" transform="translate(5.5390625, 13.109375) scale(1, -1)"/>
</svg>