<svg height="12.765625" viewBox="0 0 24 12.765625" width="24" xmlns="http://www.w3.org/2000/svg">
<path d="M4.984375,-0.546875 L4.34375,-0.234375 L4.4375,0.078125 Q2.40625,0.765625 1.625,1.8125 Q0.84375,2.859375 0.84375,4.375 L0.84375,7.75 Q0.84375,8.515625 1,8.84375 Q1.15625,9.171875 1.609375,9.484375 L5.65625,12.21875 L6.1875,12.21875 L8.5,8.78125 Q8.65625,8.546875 8.65625,8.375 Q8.65625,8.234375 8.375,8.015625 L3.671875,4.46875 Q3.671875,3.90625 4.03125,3.46875 Q4.390625,3.03125 4.921875,2.765625 Q5.453125,2.515625 5.921875,2.515625 Q6.59375,2.515625 7.03125,2.71875 Q7.46875,2.921875 8.109375,3.5 L8.59375,2.96875 Z M3.640625,5.546875 L6.046875,7.3125 Q6.1875,7.4375 6.1875,7.515625 Q6.1875,7.578125 6.09375,7.734375 Q6,7.890625 5.859375,8.109375 L4.4375,10.34375 Q4.078125,10.109375 3.90625,9.90625 Q3.75,9.71875 3.6875,9.40625 Q3.640625,9.09375 3.640625,8.453125 Z" transform="translate(7.25, 12.21875) scale(1, -1)"/>
</svg>