<svg height="13.484375" viewBox="0 0 24 13.484375" width="24" xmlns="http://www.w3.org/2000/svg">
<path d="M5.25,-0.546875 Q5.234375,-0.34375 4.4375,0 Q4.03125,0.1875 3.21875,0.40625 Q2.421875,0.640625 1.21875,0.953125 L1.21875,1.6875 Q1.78125,1.875 1.78125,3.078125 L1.78125,7.78125 Q1.78125,8.546875 1.25,9.171875 Q0.71875,9.796875 0.71875,10.078125 Q0.71875,10.625 3.03125,12.9375 L3.625,12.546875 Q3.265625,11.96875 3.265625,11.6875 Q3.265625,11.296875 3.890625,10.53125 Q4.515625,9.765625 4.578125,9.359375 L7.9375,12.21875 L8.65625,12.21875 L8.65625,11.78125 Q8.65625,11.421875 9.03125,10.875 Q9.703125,9.859375 10.15625,8.75 Q10.625,7.65625 10.625,6.390625 Q10.625,5.296875 10,4.1875 Q9.390625,3.09375 8.0625,1.6875 L5.96875,-0.546875 Z M6.640625,1.734375 Q6.84375,1.734375 7.15625,2.171875 Q7.46875,2.609375 7.71875,3.3125 Q7.96875,4.015625 7.96875,4.78125 Q7.96875,6.046875 7.609375,7.140625 Q7.265625,8.234375 6.265625,9.640625 L4.578125,8.234375 L4.578125,2.5 L6.21875,1.828125 Q6.4375,1.734375 6.640625,1.734375 Z" transform="translate(6.328125, 12.9375) scale(1, -1)"/>
</svg>