<svg height="13.578125" viewBox="0 0 24 13.578125" width="24" xmlns="http://www.w3.org/2000/svg">
<path d="M7.390625,-0.234375 Q5.5625,-0.234375 4.140625,0.546875 Q2.71875,1.34375 1.890625,2.859375 Q1.078125,4.390625 1.078125,6.578125 Q1.078125,9.84375 2.78125,11.59375 Q4.484375,13.34375 7.46875,13.34375 Q9.3125,13.34375 10.71875,12.546875 Q12.140625,11.765625 12.953125,10.265625 Q13.78125,8.765625 13.78125,6.578125 Q13.78125,3.3125 12.0625,1.53125 Q10.34375,-0.234375 7.390625,-0.234375 Z M7.4375,2.640625 Q8.859375,2.640625 9.484375,3.625 Q10.125,4.625 10.125,6.578125 Q10.125,8.515625 9.484375,9.484375 Q8.859375,10.46875 7.421875,10.46875 Q6,10.46875 5.359375,9.484375 Q4.734375,8.515625 4.734375,6.578125 Q4.734375,4.625 5.359375,3.625 Q6,2.640625 7.4375,2.640625 Z" transform="translate(4.5703125, 13.34375) scale(1, -1)"/>
</svg>