<svg height="21.765625" viewBox="0 0 24 21.765625" width="24" xmlns="http://www.w3.org/2000/svg">
<path d="M2.5,13.65625 Q2.515625,13.828125 2.609375,14.46875 Q2.71875,15.125 2.875,15.703125 Q3.078125,16.265625 3.359375,16.6875 Q3.640625,17.109375 4.109375,17.109375 Q4.890625,17.109375 4.890625,16.375 Q4.890625,15.84375 4.375,15.21875 Q3.859375,14.59375 2.921875,13.65625 Z M0.71875,-4.65625 Q1.6875,-2.90625 1.9375,-1.09375 Q2.203125,0.71875 2.203125,2.765625 L2.203125,8.453125 Q2.203125,8.96875 2.125,9.15625 Q2.046875,9.359375 1.84375,9.359375 Q1.5625,9.359375 1.078125,8.90625 L0.765625,9.21875 Q1.375,9.71875 1.9375,10.40625 Q2.515625,11.09375 3.078125,11.828125 L3.40625,11.609375 Q3.21875,11.328125 3.21875,11.109375 Q3.21875,10.9375 3.640625,10.578125 Q4.078125,10.21875 4.515625,10.109375 L4.515625,9.578125 Q4.0625,9.484375 3.9375,9.21875 Q3.8125,8.96875 3.8125,8.453125 L3.8125,2.015625 Q3.8125,1.421875 3.921875,0.78125 Q4.03125,0.140625 4.21875,-0.546875 L3.765625,-0.546875 Q3.640625,-0.21875 3.53125,0.109375 Q3.4375,0.4375 3.390625,0.703125 Q3.03125,-1.578125 1.265625,-4.65625 Z" transform="translate(9.1953125, 17.109375) scale(1, -1)"/>
</svg>