<svg height="17.015625" viewBox="0 0 24 17.015625" width="24" xmlns="http://www.w3.org/2000/svg">
<path d="M8.015625,-4.796875 Q7.9375,-4.203125 7.8125,-3.203125 Q7.703125,-2.203125 7.5625,-1.046875 Q7.4375,0.09375 7.3125,1.140625 Q7.203125,2.203125 7.125,2.921875 Q6.171875,2.109375 5.203125,1.28125 Q4.25,0.453125 3.265625,-0.4375 L2.734375,0.03125 Q2.828125,0.125 2.890625,0.234375 Q2.96875,0.359375 2.96875,0.484375 Q2.96875,0.703125 2.71875,0.984375 Q1.96875,1.84375 1.40625,2.96875 Q0.84375,4.109375 0.84375,5.25 Q0.84375,6.34375 1.265625,7.3125 Q1.703125,8.28125 2.546875,9.265625 Q2.96875,9.765625 3.828125,10.5 Q4.6875,11.234375 5.921875,12.21875 L6.640625,12.21875 Q7.125,11.6875 8.109375,11.234375 Q9.09375,10.78125 10.5625,10.375 L10.5625,9.640625 Q10.390625,9.625 10.25,9.21875 Q10.109375,8.8125 10.0625,8.328125 Q9.984375,7.6875 9.875,6.640625 Q9.765625,5.59375 9.65625,4.359375 Q9.546875,3.140625 9.4375,1.890625 Q9.265625,0.03125 9.078125,-1.65625 Q8.90625,-3.34375 8.6875,-4.796875 Z M5.328125,2.78125 Q5.609375,2.78125 5.96875,3.078125 L7.125,4.015625 L7.125,8.65625 Q5.921875,9.1875 4.78125,10.109375 Q3.453125,8.78125 3.453125,6.34375 Q3.453125,5.296875 3.765625,4.5 Q4.078125,3.703125 4.515625,3.234375 Q4.96875,2.78125 5.328125,2.78125 Z" transform="translate(6.296875, 12.21875) scale(1, -1)"/>
</svg>