<svg height="22.15625" viewBox="0 0 24 22.15625" width="24" xmlns="http://www.w3.org/2000/svg">
<path d="M2.96875,-4.65625 L2.609375,-1.171875 Q2.25,2.28125 2.046875,4.453125 Q1.84375,6.625 1.84375,7.515625 L1.84375,9.5 L0.71875,9.5 L0.71875,10.21875 Q1.171875,10.34375 1.546875,10.703125 Q1.921875,11.0625 2.0625,11.859375 Q2.1875,12.4375 2.3125,13.078125 Q2.453125,13.734375 2.59375,14.375 Q2.875,15.71875 3.625,16.609375 Q4.390625,17.5 5.546875,17.5 Q5.859375,17.5 6.125,17.453125 Q6.40625,17.40625 6.75,17.296875 Q7.15625,17.203125 7.359375,17.140625 Q7.578125,17.09375 7.734375,17.09375 Q8.046875,17.09375 8.296875,17.46875 L8.953125,17.140625 L7.515625,14.421875 Q6.8125,14.875 5.984375,15.140625 Q5.15625,15.40625 4.703125,15.40625 Q3.75,15.40625 3.75,14.609375 Q3.75,14.015625 4.109375,13.25 Q4.4375,12.53125 4.890625,11.1875 L7.3125,11.1875 L7.3125,9.5 L4.890625,9.5 L4.890625,6.3125 Q4.890625,5.296875 4.65625,3.25 Q4.4375,1.21875 4.03125,-1.84375 L3.640625,-4.65625 Z" transform="translate(7.1640625, 17.5) scale(1, -1)"/>
</svg>