<svg height="12.5" viewBox="0 0 24 12.5" width="24" xmlns="http://www.w3.org/2000/svg">
<path d="M2.78125,-0.546875 L2.296875,0 L2.59375,0.28125 Q2.59375,0.484375 2.359375,0.765625 Q0.84375,2.78125 0.84375,5.1875 Q0.84375,6.234375 1.296875,7.203125 Q1.75,8.1875 2.65625,9.171875 Q3.1875,9.71875 4.078125,10.5 Q4.96875,11.28125 5.78125,11.953125 L6.5,11.953125 L6.5,11.71875 Q7.609375,11.1875 8.546875,10.84375 Q9.5,10.515625 10.265625,10.390625 L10.265625,9.671875 Q9.84375,9.546875 9.6875,9.28125 Q9.546875,9.03125 9.546875,8.40625 L9.546875,3.390625 Q9.546875,2.328125 10.03125,2.328125 Q10.421875,2.328125 10.984375,2.96875 L11.515625,2.46875 L8.875,-0.546875 L8.296875,-0.125 L8.546875,0.140625 Q6.75,0.90625 6.75,2.0625 L6.75,2.453125 Q5.765625,1.703125 4.765625,0.953125 Q3.765625,0.21875 2.78125,-0.546875 Z M4.984375,2.25 Q5.15625,2.25 5.546875,2.5625 L6.75,3.5 L6.75,8.859375 Q6.4375,9 5.984375,9.21875 Q5.546875,9.4375 5.171875,9.640625 Q4.796875,9.84375 4.65625,9.9375 Q3.984375,9.3125 3.78125,8.484375 Q3.59375,7.65625 3.59375,6.3125 Q3.59375,5.90625 3.6875,5.234375 Q3.796875,4.5625 3.984375,3.875 Q4.171875,3.1875 4.421875,2.71875 Q4.6875,2.25 4.984375,2.25 Z" transform="translate(5.8203125, 11.953125) scale(1, -1)"/>
</svg>