<svg height="24" viewBox="0 0 24 24" width="24" xmlns="http://www.w3.org/2000/svg">
<path d="M2.15625,0 L2.15625,17.140625 L7.109375,17.140625 L11.15625,4.03125 L11.234375,4.03125 L15.53125,17.140625 L20.46875,17.140625 L20.46875,0 L17.09375,0 L17.09375,8.109375 Q17.09375,8.921875 17.125,9.984375 Q17.15625,11.046875 17.1875,11.984375 Q17.234375,12.9375 17.25,13.421875 L17.15625,13.421875 L12.75,0 L9.40625,0 L5.28125,13.4375 L5.1875,13.4375 Q5.234375,12.953125 5.28125,12 Q5.328125,11.046875 5.359375,9.953125 Q5.40625,8.859375 5.40625,7.96875 L5.40625,0 Z" transform="translate(0.6875, 17.140625) scale(1, -1)"/>
</svg>