<svg height="13.09375" viewBox="0 0 24 13.09375" width="24" xmlns="http://www.w3.org/2000/svg">
<path d="M5.71875,-0.234375 Q3.9375,-0.234375 2.84375,0.84375 Q1.75,1.921875 1.75,3.671875 L1.75,12.859375 L5.90625,12.859375 L5.90625,1.015625 Q6.9375,1.015625 7.78125,1.59375 Q8.640625,2.1875 9.15625,3.171875 Q9.671875,4.15625 9.671875,5.28125 L9.671875,12.859375 L13.828125,12.859375 L13.828125,0 L9.671875,0 L9.671875,1.875 Q8.421875,-0.234375 5.71875,-0.234375 Z M4.625,1.125 L4.625,11.59375 L3.03125,11.59375 L3.03125,3.5 Q3.03125,2.65625 3.484375,1.984375 Q3.953125,1.3125 4.625,1.125 Z M10.9375,1.265625 L12.546875,1.265625 L12.546875,11.59375 L10.9375,11.59375 Z" transform="translate(4.2109375, 12.859375) scale(1, -1)"/>
</svg>