<svg height="21.4375" viewBox="0 0 24 21.4375" width="24" xmlns="http://www.w3.org/2000/svg">
<path d="M4.203125,9.75 Q2.609375,10.015625 1.75,10.9375 Q0.890625,11.875 0.890625,13.171875 Q0.890625,14.421875 1.578125,15.234375 Q2.28125,16.0625 3.328125,16.515625 Q4.375,16.96875 5.375,17.140625 Q5.8125,17.203125 5.8125,17.5 L6.34375,17.5 Q6.34375,17.28125 7.03125,16.875 L9.046875,15.71875 Q9.765625,15.3125 10.25,15.078125 Q10.734375,14.859375 10.984375,14.859375 Q11.234375,14.859375 11.5,15 Q11.765625,15.140625 11.96875,15.3125 Q12.171875,15.484375 12.171875,15.546875 Q11.96875,15.546875 11.828125,15.71875 Q11.6875,15.890625 11.6875,16.078125 Q11.6875,16.390625 11.890625,16.5625 Q12.09375,16.734375 12.359375,16.734375 Q12.703125,16.734375 12.875,16.515625 Q13.0625,16.3125 13.0625,15.984375 Q13.0625,15.578125 12.59375,15.125 Q12.125,14.6875 11.46875,14.3125 Q10.828125,13.9375 10.21875,13.703125 Q9.625,13.46875 9.359375,13.46875 Q9.078125,13.46875 8.6875,13.65625 Q8.296875,13.84375 7.828125,14.140625 L6.484375,14.921875 Q5.90625,15.265625 5.34375,15.46875 Q4.78125,15.671875 4.171875,15.671875 Q3.4375,15.671875 2.8125,15.328125 Q2.1875,15 1.8125,14.4375 Q1.4375,13.875 1.4375,13.171875 Q1.4375,12.09375 2.203125,11.28125 Q2.96875,10.484375 4.34375,10.296875 Z M5.40625,-3.9375 L4.921875,-3.71875 Q4.921875,-2.59375 4.25,-1.859375 Q3.578125,-1.125 2.734375,-1.125 Q1.6875,-1.125 1.21875,-2.328125 L0.71875,-2.1875 Q1.375,-0.3125 3.140625,-0.3125 Q3.578125,-0.3125 4.109375,-0.4375 Q4.515625,-0.53125 4.875,-0.53125 Q5.203125,-0.53125 5.515625,-0.3125 L5.921875,-0.53125 Q5.90625,-0.59375 5.90625,-0.75 Q5.90625,-1.265625 6.265625,-1.75 Q6.625,-2.25 7.21875,-2.5625 Q7.828125,-2.875 8.546875,-2.875 Q9.765625,-2.875 10.5,-2.234375 Q11.234375,-1.609375 11.234375,-0.546875 Q11.234375,-0.09375 11.09375,0.484375 Q10.96875,1.078125 10.65625,1.796875 Q10.421875,2.375 10.078125,3.203125 Q9.75,4.03125 9.375,4.96875 Q9,5.90625 8.6875,6.78125 Q8.375,7.65625 8.171875,8.34375 Q7.96875,9.046875 7.96875,9.359375 Q7.96875,10.0625 8.3125,10.734375 Q8.65625,11.421875 9.203125,12 Q9.765625,12.578125 10.34375,12.90625 Q11.109375,13.375 11.734375,13.375 Q12.21875,13.375 12.546875,13.140625 Q12.890625,12.90625 12.890625,12.484375 Q12.890625,12.21875 12.734375,12.046875 Q12.578125,11.875 12.359375,11.875 Q11.90625,11.875 11.765625,12.265625 Q11.59375,12.671875 11.359375,12.671875 Q10.890625,12.671875 10.359375,12.21875 Q9.84375,11.78125 9.84375,10.734375 Q9.84375,10.109375 10,9.453125 Q10.15625,8.8125 10.4375,8.109375 L11.859375,4.6875 Q13.0625,1.78125 13.0625,0.71875 Q13.0625,-0.046875 12.546875,-0.890625 Q12.046875,-1.734375 11.3125,-2.375 Q10.578125,-3.03125 9.859375,-3.234375 Q8.828125,-3.546875 6.40625,-3.546875 Q5.78125,-3.546875 5.40625,-3.9375 Z" transform="translate(5.109375, 17.5) scale(1, -1)"/>
</svg>