<svg height="13.34375" viewBox="0 0 24 13.34375" width="24" xmlns="http://www.w3.org/2000/svg">
<path d="M6.75,-0.234375 Q4.03125,-0.234375 2.484375,1.484375 Q0.953125,3.21875 0.953125,6.4375 Q0.953125,9.640625 2.46875,11.375 Q3.984375,13.109375 6.671875,13.109375 Q8.765625,13.109375 10.375,12.40625 L9.90625,11.203125 Q8.328125,11.953125 6.703125,11.953125 Q6.359375,11.953125 6.015625,11.90625 Q5.6875,11.875 5.375,11.78125 L5.375,1.109375 Q6.078125,0.90625 6.75,0.90625 Q8.59375,0.90625 10.15625,1.734375 L10.15625,0.453125 Q8.6875,-0.234375 6.75,-0.234375 Z M4.109375,1.734375 L4.109375,11.140625 Q2.234375,9.703125 2.234375,6.4375 Q2.234375,3.140625 4.109375,1.734375 Z" transform="translate(6.3359375, 13.109375) scale(1, -1)"/>
</svg>