<svg height="24" viewBox="0 0 24 24" width="24" xmlns="http://www.w3.org/2000/svg">
<path d="M1.875,0 L1.875,18.234375 L5.453125,18.234375 L5.453125,14.515625 Q5.453125,13.5625 5.390625,12.671875 Q5.328125,11.78125 5.28125,11.421875 L5.46875,11.421875 Q6.09375,12.4375 7.078125,12.890625 Q8.0625,13.34375 9.265625,13.34375 Q11.40625,13.34375 12.6875,12.203125 Q13.96875,11.0625 13.96875,8.546875 L13.96875,0 L10.390625,0 L10.390625,7.65625 Q10.390625,10.484375 8.28125,10.484375 Q6.671875,10.484375 6.0625,9.359375 Q5.453125,8.25 5.453125,6.171875 L5.453125,0 Z" transform="translate(4.078125, 18.234375) scale(1, -1)"/>
</svg>