<svg height="18.875" viewBox="0 0 24 18.875" width="24" xmlns="http://www.w3.org/2000/svg">
<path d="M10.609375,-5.765625 L10.609375,-0.265625 Q10.609375,0.171875 10.625,0.734375 Q10.65625,1.3125 10.734375,1.734375 L10.578125,1.734375 Q10.03125,0.90625 9.0625,0.328125 Q8.09375,-0.234375 6.546875,-0.234375 Q4.21875,-0.234375 2.765625,1.421875 Q1.3125,3.09375 1.3125,6.40625 Q1.3125,9.71875 2.78125,11.40625 Q4.265625,13.109375 6.625,13.109375 Q8.140625,13.109375 9.09375,12.53125 Q10.0625,11.953125 10.625,11.109375 L10.734375,11.109375 L11.046875,12.859375 L12.71875,12.859375 L12.71875,-5.765625 Z M6.953125,1.515625 Q8.953125,1.515625 9.78125,2.609375 Q10.609375,3.703125 10.625,5.953125 L10.625,6.390625 Q10.625,8.828125 9.8125,10.09375 Q9,11.359375 6.90625,11.359375 Q5.1875,11.359375 4.34375,10 Q3.5,8.640625 3.5,6.359375 Q3.5,4.078125 4.34375,2.796875 Q5.203125,1.515625 6.953125,1.515625 Z" transform="translate(4.984375, 13.109375) scale(1, -1)"/>
</svg>