<svg height="17.640625" viewBox="0 0 24 17.640625" width="24" xmlns="http://www.w3.org/2000/svg">
<path d="M9.671875,-0.234375 Q5.421875,-0.234375 3.3125,2.078125 Q1.203125,4.390625 1.203125,8.59375 Q1.203125,11.25 2.28125,13.234375 Q3.359375,15.21875 5.28125,16.3125 Q7.21875,17.40625 9.8125,17.40625 Q12.796875,17.40625 15.1875,16.390625 L14.65625,15.21875 Q12.390625,16.171875 9.765625,16.171875 Q7.484375,16.171875 5.8125,15.265625 L5.8125,1.78125 Q7.390625,0.984375 9.640625,0.984375 Q9.953125,0.984375 10.359375,1 Q10.78125,1.03125 11.28125,1.109375 L11.28125,7.78125 L8.78125,7.78125 L8.78125,9.046875 L15.4375,9.046875 L15.4375,0.671875 Q12.90625,-0.234375 9.671875,-0.234375 Z M4.53125,2.6875 L4.53125,14.296875 Q2.546875,12.3125 2.546875,8.515625 Q2.546875,4.625 4.53125,2.6875 Z M12.546875,1.296875 Q13.515625,1.4375 14.15625,1.65625 L14.15625,7.78125 L12.546875,7.78125 Z" transform="translate(3.6796875, 17.40625) scale(1, -1)"/>
</svg>