<svg height="17.734375" viewBox="0 0 24 17.734375" width="24" xmlns="http://www.w3.org/2000/svg">
<path d="M5.421875,-4.796875 L4.84375,-4.390625 Q6.046875,-2.765625 6.734375,-1.40625 Q7.421875,-0.046875 7.71875,1.296875 Q8.015625,2.65625 8.015625,4.25 Q8.015625,5.640625 7.546875,6.890625 Q7.078125,8.15625 5.90625,9.578125 L4.578125,8.5625 L4.578125,3.234375 Q4.578125,2.328125 5.28125,2.328125 L5.921875,2.875 L6.4375,2.359375 Q5.6875,1.703125 4.984375,0.96875 Q4.296875,0.234375 3.625,-0.546875 L2.90625,-0.546875 Q2.59375,0.28125 0.984375,0.90625 L0.984375,1.625 Q1.421875,1.734375 1.59375,2.078125 Q1.78125,2.421875 1.78125,2.859375 L1.78125,7.890625 Q1.78125,8.328125 1.578125,8.65625 Q1.390625,9 1.21875,9.21875 L0.859375,9.671875 Q0.71875,9.859375 0.71875,10.078125 Q0.71875,10.625 3.03125,12.9375 L3.625,12.546875 Q3.265625,11.96875 3.265625,11.6875 Q3.265625,11.25 3.859375,10.625 Q4.171875,10.296875 4.34375,10.03125 Q4.515625,9.765625 4.5625,9.59375 L8.09375,12.21875 L8.59375,11.6875 Q8.328125,11.515625 8.328125,11.203125 Q8.328125,11.046875 8.78125,10.515625 Q9.234375,9.984375 9.671875,9.171875 Q10.125,8.359375 10.375,7.53125 Q10.609375,6.796875 10.609375,5.6875 Q10.609375,4.03125 10.09375,2.390625 Q9.578125,0.75 8.4375,-1.015625 Q7.296875,-2.78125 5.421875,-4.796875 Z" transform="translate(6.3359375, 12.9375) scale(1, -1)"/>
</svg>