<svg height="23.09375" viewBox="0 0 24 23.09375" width="24" xmlns="http://www.w3.org/2000/svg">
<path d="M7.390625,-5.046875 Q7.203125,-4.53125 7,-3.671875 Q6.796875,-2.828125 6.609375,-1.859375 Q6.4375,-0.90625 6.328125,-0.046875 Q6.21875,0.796875 6.21875,1.296875 L6.21875,1.6875 Q6.03125,1.78125 5.59375,1.90625 Q5.15625,2.046875 4.734375,2.140625 Q4.3125,2.25 4.109375,2.25 Q3.796875,2.25 3.5625,1.96875 Q3.34375,1.703125 3.078125,1.296875 L2.1875,1.65625 L3.84375,6.125 L4.703125,5.828125 Q4.625,5.59375 4.625,5.421875 Q4.625,5.15625 4.9375,5.0625 Q5.140625,4.984375 5.421875,4.890625 Q5.71875,4.796875 6.21875,4.625 L6.21875,12.1875 Q6.21875,15.40625 3.953125,15.40625 Q3,15.40625 2.40625,14.734375 Q1.828125,14.0625 1.828125,12.9375 Q1.828125,10.625 4.0625,9.984375 L3.765625,9.03125 Q2.296875,9.40625 1.5,10.5625 Q0.71875,11.71875 0.71875,13.203125 Q0.71875,14.453125 1.296875,15.4375 Q1.890625,16.421875 2.890625,16.984375 Q3.890625,17.5625 5.09375,17.5625 Q6.21875,17.5625 7.15625,17.109375 Q8.09375,16.65625 8.65625,15.859375 Q9.21875,15.078125 9.265625,14.09375 Q9.9375,14.8125 10.859375,15.59375 Q11.78125,16.375 12.734375,17.046875 Q13.6875,17.71875 14.40625,18.046875 L14.90625,17.40625 Q14.46875,17.046875 14.46875,16.578125 Q14.46875,16.390625 14.5625,16.078125 Q14.65625,15.765625 14.90625,15.234375 Q15.171875,14.65625 15.484375,13.859375 Q15.796875,13.0625 16.078125,12.28125 Q16.375,11.5 16.5625,10.890625 Q17.15625,9.09375 17.15625,8.0625 Q17.15625,7.3125 16.703125,6.25 Q16.25,5.1875 15.53125,4.046875 Q14.828125,2.90625 14.046875,1.9375 Q12.84375,0.5 12.84375,-0.578125 L11.90625,-0.578125 Q11.90625,-0.125 11.1875,0.09375 L9.359375,0.625 Q9.3125,0.140625 9.125,-0.796875 Q8.953125,-1.734375 8.671875,-2.859375 Q8.40625,-3.984375 8.09375,-5.046875 Z M12.90625,2.546875 Q13.109375,2.546875 13.578125,3.21875 Q13.9375,3.75 14.109375,4.421875 Q14.28125,5.09375 14.28125,5.71875 Q14.28125,6.265625 14.125,6.9375 Q13.984375,7.609375 13.734375,8.421875 Q13.484375,9.234375 13.078125,10.265625 Q12.671875,11.296875 12.125,12.546875 Q11.46875,14.0625 11.46875,14.640625 Q9.953125,13.46875 9.4375,12.765625 L9.4375,3.625 L12.09375,2.765625 Q12.359375,2.65625 12.578125,2.59375 Q12.796875,2.546875 12.90625,2.546875 Z" transform="translate(3.0625, 18.046875) scale(1, -1)"/>
</svg>