<svg height="24" viewBox="0 0 24 24" width="24" xmlns="http://www.w3.org/2000/svg">
<path d="M4.65625,14.015625 Q3.765625,14.015625 3.15625,14.625 Q2.546875,15.234375 2.546875,16.125 Q2.546875,17.015625 3.15625,17.625 Q3.765625,18.234375 4.65625,18.234375 Q5.546875,18.234375 6.15625,17.625 Q6.765625,17.015625 6.765625,16.125 Q6.765625,15.234375 6.15625,14.625 Q5.546875,14.015625 4.65625,14.015625 Z M4.65625,15.21875 Q5.046875,15.21875 5.296875,15.484375 Q5.5625,15.75 5.5625,16.125 Q5.5625,16.515625 5.296875,16.78125 Q5.046875,17.046875 4.65625,17.046875 Q4.265625,17.046875 4,16.78125 Q3.75,16.515625 3.75,16.125 Q3.75,15.75 4,15.484375 Q4.265625,15.21875 4.65625,15.21875 Z M2.203125,-5.765625 Q1.109375,-5.765625 0.484375,-5.5625 L0.484375,-4.296875 Q0.890625,-4.390625 1.3125,-4.4375 Q1.734375,-4.484375 2.1875,-4.484375 Q2.296875,-4.484375 2.390625,-4.484375 Q2.5,-4.484375 2.59375,-4.46875 L2.59375,12.859375 L6.75,12.859375 L6.75,-1.296875 Q6.75,-3.359375 5.609375,-4.5625 Q4.46875,-5.765625 2.203125,-5.765625 Z M3.859375,-4.21875 Q4.703125,-3.953125 5.078125,-3.0625 Q5.46875,-2.1875 5.46875,-1.078125 L5.46875,11.59375 L3.859375,11.59375 Z" transform="translate(8.375, 18.234375) scale(1, -1)"/>
</svg>