<svg height="17.609375" viewBox="0 0 24 17.609375" width="24" xmlns="http://www.w3.org/2000/svg">
<path d="M5.921875,-0.234375 Q4.484375,-0.234375 3.265625,-0.015625 Q2.046875,0.1875 1.21875,0.578125 L1.21875,2.640625 Q2.09375,2.25 3.375,1.9375 Q4.65625,1.625 6.03125,1.625 Q7.9375,1.625 8.90625,2.375 Q9.890625,3.125 9.890625,4.390625 Q9.890625,5.234375 9.53125,5.8125 Q9.171875,6.390625 8.296875,6.875 Q7.421875,7.375 5.859375,7.921875 Q3.671875,8.71875 2.546875,9.859375 Q1.4375,11.015625 1.4375,13.015625 Q1.4375,14.375 2.125,15.34375 Q2.828125,16.3125 4.0625,16.84375 Q5.296875,17.375 6.90625,17.375 Q8.328125,17.375 9.5,17.109375 Q10.6875,16.84375 11.640625,16.421875 L10.96875,14.5625 Q10.078125,14.953125 9.03125,15.21875 Q7.984375,15.484375 6.859375,15.484375 Q5.25,15.484375 4.4375,14.796875 Q3.625,14.109375 3.625,12.984375 Q3.625,12.125 3.984375,11.546875 Q4.34375,10.96875 5.15625,10.515625 Q5.96875,10.0625 7.375,9.53125 Q8.875,8.96875 9.921875,8.328125 Q10.96875,7.703125 11.5,6.8125 Q12.046875,5.921875 12.046875,4.578125 Q12.046875,2.296875 10.390625,1.03125 Q8.734375,-0.234375 5.921875,-0.234375 Z" transform="translate(5.3671875, 17.375) scale(1, -1)"/>
</svg>