<svg height="24" viewBox="0 0 24 24" width="24" xmlns="http://www.w3.org/2000/svg">
<path d="M2.046875,0 L2.046875,12.859375 L3.75,12.859375 L4.0625,11.109375 L4.171875,11.109375 Q4.78125,12.125 5.796875,12.609375 Q6.8125,13.109375 7.96875,13.109375 Q10.984375,13.109375 11.90625,10.9375 L12.03125,10.9375 Q12.671875,12.046875 13.78125,12.578125 Q14.90625,13.109375 16.15625,13.109375 Q18.34375,13.109375 19.421875,11.984375 Q20.5,10.875 20.5,8.375 L20.5,0 L18.40625,0 L18.40625,8.28125 Q18.40625,11.328125 15.796875,11.328125 Q13.921875,11.328125 13.109375,10.25 Q12.3125,9.171875 12.3125,7.109375 L12.3125,0 L10.21875,0 L10.21875,8.28125 Q10.21875,11.328125 7.578125,11.328125 Q5.640625,11.328125 4.890625,10.125 Q4.15625,8.921875 4.15625,6.671875 L4.15625,0 Z" transform="translate(0.7265625, 13.109375) scale(1, -1)"/>
</svg>