<svg height="24" viewBox="0 0 24 24" width="24" xmlns="http://www.w3.org/2000/svg">
<path d="M4.828125,0 L0.28125,17.140625 L2.546875,17.140625 L5.203125,6.671875 Q5.5,5.5625 5.703125,4.53125 Q5.90625,3.5 6.03125,2.59375 Q6.140625,3.53125 6.375,4.625 Q6.625,5.734375 6.9375,6.796875 L9.953125,17.140625 L12.1875,17.140625 L15.34375,6.71875 Q15.671875,5.609375 15.90625,4.515625 Q16.15625,3.4375 16.265625,2.59375 Q16.390625,3.484375 16.609375,4.515625 Q16.828125,5.5625 17.109375,6.703125 L19.75,17.140625 L22.015625,17.140625 L17.453125,0 L15.265625,0 L11.921875,11.234375 Q11.734375,11.921875 11.546875,12.609375 Q11.359375,13.3125 11.234375,13.859375 Q11.109375,14.40625 11.0625,14.609375 Q11.046875,14.296875 10.8125,13.28125 Q10.578125,12.265625 10.25,11.15625 L7.015625,0 Z" transform="translate(0.8515625, 17.140625) scale(1, -1)"/>
</svg>