<svg height="18.0625" viewBox="0 0 24 18.0625" width="24" xmlns="http://www.w3.org/2000/svg">
<path d="M10.0625,-0.546875 Q9.625,-0.546875 8.65625,-0.046875 Q7.703125,0.453125 6.671875,1.078125 Q4.921875,2.1875 3.78125,2.84375 Q2.640625,3.5 2.234375,3.5 Q1.78125,3.5 1.109375,2.765625 L0.71875,3.03125 Q1.203125,3.71875 1.5625,4.203125 Q1.9375,4.6875 2.1875,4.96875 Q2.640625,5.5 3.03125,5.5 Q3.1875,5.5 3.4375,5.375 Q3.703125,5.25 4.0625,5.0625 Q4.796875,4.65625 6.390625,4.65625 Q7.609375,4.65625 8.234375,5.078125 Q8.875,5.5 8.875,6 Q8.875,6.59375 7.9375,7.25 Q7.203125,7.78125 6.53125,8.328125 Q6,8.78125 5.640625,9.265625 Q5.28125,9.75 5.28125,10.25 Q5.28125,11.96875 8.765625,14.140625 L7.421875,14.875 Q5.375,16.03125 4.46875,16.03125 Q3.28125,16.03125 2.53125,15.234375 Q1.78125,14.453125 1.78125,13.296875 Q1.78125,11.921875 2.90625,10.875 L2.515625,10.484375 Q1.21875,11.6875 1.21875,13.34375 Q1.21875,14.25 1.734375,15 Q2.25,15.765625 3.015625,16.328125 Q3.796875,16.890625 4.625,17.203125 Q5.453125,17.515625 6.046875,17.515625 Q6.5,17.515625 7.3125,17.171875 Q8.140625,16.828125 9.09375,16.25 Q9.9375,15.765625 10.671875,15.34375 Q11.40625,14.921875 11.921875,14.609375 Q12.546875,14.28125 12.921875,14.078125 Q13.3125,13.890625 13.53125,13.890625 Q13.921875,13.890625 14.546875,14.375 L14.921875,14.0625 Q14.40625,13.65625 14.03125,13.296875 Q13.65625,12.953125 13.421875,12.703125 Q12.953125,12.1875 12.671875,12.1875 Q12.28125,12.1875 9.28125,13.875 Q7.078125,12.453125 7.078125,11.140625 Q7.078125,10.75 7.34375,10.375 Q7.609375,10.015625 8.046875,9.625 Q8.421875,9.3125 8.84375,8.96875 Q9.28125,8.640625 9.703125,8.359375 Q10.5625,7.78125 10.5625,6.8125 Q10.5625,5.6875 9.484375,4.921875 Q8.421875,4.15625 6.359375,4.15625 Q6.125,4.15625 5.859375,4.1875 Q5.609375,4.21875 5.421875,4.25 L6.75,3.4375 Q7.96875,2.65625 9.109375,2.03125 Q10.265625,1.421875 11.09375,1.421875 Q12.3125,1.421875 13.921875,2.8125 L14.234375,2.453125 Q13.484375,1.65625 12.8125,1.09375 Q12.140625,0.53125 11.59375,0.171875 Q10.484375,-0.546875 10.0625,-0.546875 Z" transform="translate(4.1796875, 17.515625) scale(1, -1)"/>
</svg>