<svg height="12.765625" viewBox="0 0 24 12.765625" width="24" xmlns="http://www.w3.org/2000/svg">
<path d="M3.890625,-0.546875 L3.3125,-0.125 L3.640625,0.265625 Q2.953125,0.671875 2.296875,1.15625 Q1.65625,1.65625 1.25,2.296875 Q0.84375,2.953125 0.84375,3.765625 L0.84375,7.984375 Q0.84375,8.640625 0.953125,8.984375 Q1.078125,9.34375 1.609375,9.71875 L4.578125,11.953125 Q4.921875,12.21875 5.28125,12.21875 Q5.65625,12.21875 6.390625,11.640625 Q7.078125,11.09375 7.265625,11.09375 Q7.375,11.09375 7.75,11.40625 L8.234375,10.875 L6.90625,9.5 Q6.34375,8.921875 6.09375,8.921875 Q5.921875,8.921875 5.515625,9.234375 Q5.25,9.4375 4.859375,9.71875 Q4.484375,10.015625 3.90625,10.46875 Q3.640625,10.203125 3.640625,9.3125 L3.640625,4.625 Q3.640625,4.03125 3.75,3.65625 Q3.859375,3.28125 4.484375,2.875 Q5.25,2.40625 5.5625,2.40625 Q6.234375,2.40625 7.4375,3.453125 L7.890625,2.90625 Z" transform="translate(7.4609375, 12.21875) scale(1, -1)"/>
</svg>