<svg height="12.421875" viewBox="0 0 24 12.421875" width="24" xmlns="http://www.w3.org/2000/svg">
<path d="M2.71875,-0.59375 Q2.375,0.453125 1.34375,0.671875 L1.34375,1.15625 Q2.15625,1.296875 2.15625,2.5 L2.15625,8.46875 Q2.15625,8.953125 2.0625,9.171875 Q1.984375,9.40625 1.65625,9.703125 L1.109375,9.171875 L0.71875,9.484375 L2.765625,11.828125 L3.140625,11.5625 Q2.96875,11.328125 2.96875,11.203125 Q2.96875,11.140625 3.125,11.015625 Q3.765625,10.53125 3.765625,9.171875 L3.765625,8.6875 L6.84375,11.828125 L7.34375,11.828125 Q7.75,11.15625 8.375,10.765625 Q9,10.375 9.484375,10.3125 L9.484375,9.859375 Q8.921875,9.59375 8.921875,8.78125 L8.921875,2.359375 Q8.921875,1.5625 9.359375,1.5625 Q9.71875,1.5625 10.03125,2.09375 L10.421875,1.828125 L8.546875,-0.59375 L8.1875,-0.359375 L8.328125,-0.09375 Q7.734375,0.34375 7.484375,0.625 Q7.25,0.90625 7.25,1.390625 Q7.25,1.578125 7.25,1.796875 Q7.265625,2.015625 7.296875,2.203125 Q7.3125,2.46875 7.3125,2.703125 Q7.3125,2.953125 7.3125,3.1875 L7.3125,8.734375 Q7.3125,9.03125 7.078125,9.3125 Q6.84375,9.59375 6.578125,9.765625 Q6.28125,9.984375 6.09375,9.984375 Q5.859375,9.984375 5.421875,9.546875 L3.765625,7.96875 L3.765625,2.5 Q3.765625,1.296875 4.578125,1.15625 L4.578125,0.671875 Q3.546875,0.453125 3.21875,-0.59375 Z" transform="translate(6.4296875, 11.828125) scale(1, -1)"/>
</svg>