<svg height="13.578125" viewBox="0 0 24 13.578125" width="24" xmlns="http://www.w3.org/2000/svg">
<path d="M7.203125,-0.234375 Q4.265625,-0.234375 2.671875,1.375 Q1.078125,3 1.078125,6.484375 Q1.078125,8.875 1.890625,10.390625 Q2.71875,11.90625 4.15625,12.625 Q5.609375,13.34375 7.515625,13.34375 Q8.859375,13.34375 9.84375,13.078125 Q10.84375,12.8125 11.59375,12.453125 L10.53125,9.703125 Q9.703125,10.03125 8.96875,10.25 Q8.234375,10.46875 7.515625,10.46875 Q4.734375,10.46875 4.734375,6.5 Q4.734375,4.53125 5.453125,3.59375 Q6.1875,2.65625 7.515625,2.65625 Q8.640625,2.65625 9.5,2.953125 Q10.375,3.265625 11.1875,3.796875 L11.1875,0.75 Q10.375,0.21875 9.46875,0 Q8.5625,-0.234375 7.203125,-0.234375 Z" transform="translate(5.6640625, 13.34375) scale(1, -1)"/>
</svg>