<svg height="16.546875" viewBox="0 0 24 16.546875" width="24" xmlns="http://www.w3.org/2000/svg">
<path d="M6.53125,-0.234375 Q4.203125,-0.234375 3.265625,0.703125 Q2.328125,1.65625 2.328125,3.984375 L2.328125,11.59375 L0,11.59375 L0,12.859375 L2.328125,12.859375 L2.328125,16.3125 L6.484375,16.3125 L6.484375,12.859375 L8.875,12.859375 L8.875,11.59375 L6.484375,11.59375 L6.484375,1.03125 Q7.109375,1.03125 7.703125,1.09375 Q8.296875,1.171875 8.875,1.296875 L8.875,0.03125 Q7.78125,-0.234375 6.53125,-0.234375 Z M5.203125,1.125 L5.203125,15.046875 L3.59375,15.046875 L3.59375,4.203125 Q3.59375,2.65625 3.921875,2.015625 Q4.265625,1.390625 5.203125,1.125 Z" transform="translate(7.5625, 16.3125) scale(1, -1)"/>
</svg>