<svg height="18.421875" viewBox="0 0 24 18.421875" width="24" xmlns="http://www.w3.org/2000/svg">
<path d="M11.421875,-0.5 Q10.375,-0.5 9.390625,0.359375 Q8.875,0.796875 8.125,1.390625 Q7.375,1.984375 6.8125,2.375 Q6.34375,2.71875 5.890625,2.921875 Q5.453125,3.125 4.984375,3.125 Q4.265625,3.125 2.6875,2.328125 L2.328125,3.21875 Q3.359375,3.8125 4.140625,4.28125 Q4.9375,4.75 5.40625,5.0625 Q5.8125,5.328125 6.21875,5.546875 Q6.640625,5.765625 7.03125,5.765625 Q7.421875,5.765625 7.65625,5.640625 Q8.953125,6.9375 8.953125,10.203125 Q8.953125,11.6875 8.46875,12.8125 Q7.984375,13.9375 7.125,14.5625 Q6.265625,15.1875 5.109375,15.1875 Q3.71875,15.1875 2.796875,14.34375 Q1.890625,13.515625 1.890625,12.1875 Q1.890625,10.515625 3.09375,9.421875 Q4.3125,8.328125 6.59375,8.0625 L6.40625,7.078125 Q4.78125,7.296875 3.515625,7.96875 Q2.25,8.640625 1.546875,9.703125 Q0.84375,10.78125 0.84375,12.140625 Q0.84375,13.84375 1.515625,15.140625 Q2.203125,16.4375 3.421875,17.171875 Q4.65625,17.921875 6.234375,17.921875 Q8.78125,17.921875 10.21875,16.34375 Q11.5625,17.921875 14.359375,17.921875 Q16.5625,17.921875 17.65625,16.921875 Q18.765625,15.9375 19.015625,14.015625 L19.078125,13.4375 Q19.109375,13.0625 19.75,13.0625 L19.84375,12.140625 Q17.953125,11.90625 17.015625,11.5 Q16.078125,11.09375 16.078125,10.4375 Q16.078125,10.109375 16.3125,9.765625 Q16.5625,9.4375 16.96875,9.078125 Q17.359375,8.734375 17.59375,8.515625 Q17.828125,8.296875 18.1875,7.984375 Q18.84375,7.4375 19.203125,6.78125 Q19.5625,6.125 19.5625,5.25 Q19.5625,4.375 18.96875,3.453125 Q18.390625,2.546875 17.359375,1.734375 Q16.34375,0.9375 15.046875,0.359375 Q13.15625,-0.5 11.421875,-0.5 Z M14.296875,1.421875 Q14.828125,1.421875 15.375,1.6875 Q15.9375,1.96875 16.3125,2.4375 Q16.703125,2.90625 16.703125,3.4375 Q16.703125,4.53125 16.171875,5.234375 Q15.640625,5.953125 14.828125,6.703125 Q13.703125,7.75 13.3125,8.4375 Q12.9375,9.125 12.9375,9.765625 Q12.9375,10.46875 13.3125,11.03125 Q13.703125,11.609375 14.640625,12 Q14.921875,12.125 15.25,12.234375 Q15.59375,12.34375 15.984375,12.453125 Q15.671875,12.703125 15.625,13.4375 L15.578125,14.09375 Q15.484375,15.21875 14.96875,15.96875 Q14.46875,16.734375 13.34375,16.734375 Q12.59375,16.734375 11.890625,16.359375 Q11.1875,15.984375 10.84375,15.359375 Q11.765625,13.203125 11.765625,11.765625 Q11.765625,9.984375 10.90625,8.234375 Q10.0625,6.5 8.609375,5.140625 Q9.03125,4.875 9.625,4.40625 Q10.21875,3.9375 11.046875,3.234375 Q12.03125,2.40625 12.859375,1.90625 Q13.703125,1.421875 14.296875,1.421875 Z" transform="translate(1.65625, 17.921875) scale(1, -1)"/>
</svg>