<svg height="17.953125" viewBox="0 0 24 17.953125" width="24" xmlns="http://www.w3.org/2000/svg">
<path d="M4.015625,-0.546875 Q3.953125,-0.34375 3.578125,-0.078125 Q3.21875,0.171875 2.765625,0.34375 Q2.328125,0.53125 2.046875,0.53125 Q1.609375,0.53125 1.0625,-0.03125 L0.71875,0.234375 L2.546875,2.546875 L3.03125,2.546875 Q3.125,2.296875 3.5625,2 Q4.015625,1.703125 4.46875,1.46875 Q4.9375,1.25 5.109375,1.25 Q5.609375,1.25 6.1875,2.65625 Q6.484375,3.359375 6.609375,4.1875 Q6.75,5.015625 6.75,5.90625 L6.75,8.09375 L5.859375,8.09375 Q4.828125,8.09375 4.3125,7.671875 Q3.8125,7.25 3.40625,6.21875 L2.859375,6.21875 Q3.171875,7.03125 3.421875,7.875 Q3.671875,8.71875 3.890625,9.578125 Q4.203125,9.484375 5.015625,9.484375 L6.75,9.484375 L6.75,11.5 Q6.75,13.578125 6.0625,14.59375 Q5.375,15.625 4.15625,15.625 Q3.59375,15.625 3.09375,15.234375 Q2.59375,14.859375 1.875,14.15625 L1.46875,14.453125 L3.75,17.15625 Q3.953125,17.40625 4.53125,17.40625 Q5.953125,17.40625 7,16.453125 Q8.0625,15.5 8.296875,14.015625 Q8.640625,15.078125 9.203125,15.640625 Q9.765625,16.21875 10.34375,16.625 Q10.75,16.921875 10.953125,17.078125 Q11.15625,17.234375 11.203125,17.40625 L11.65625,17.40625 Q11.859375,17.15625 12.25,16.859375 Q12.640625,16.5625 13.03125,16.34375 Q13.421875,16.125 13.53125,16.125 Q13.6875,16.125 13.96875,16.34375 L14.296875,16.078125 L13.9375,15.59375 Q13.5625,15.078125 13.28125,14.765625 Q13.015625,14.453125 12.8125,14.453125 Q12.640625,14.453125 12.1875,14.71875 Q11.734375,15 11.203125,15.34375 L10.46875,15.84375 Q8.515625,15.09375 8.515625,10.9375 L8.515625,9.484375 L9.34375,9.484375 Q10.515625,9.484375 10.984375,9.796875 Q11.46875,10.125 11.78125,10.9375 L12.28125,10.9375 Q11.96875,10.34375 11.625,9.59375 Q11.28125,8.859375 10.9375,7.96875 Q10.609375,8.015625 10.234375,8.046875 Q9.859375,8.09375 9.5,8.09375 L8.515625,8.09375 L8.515625,5.09375 Q8.515625,3.28125 9.203125,2.328125 Q9.90625,1.390625 10.984375,1.390625 Q11.6875,1.390625 12.296875,1.828125 Q12.90625,2.28125 13.65625,3.125 L14.0625,2.765625 L11.140625,-0.125 Q10.890625,-0.359375 10.828125,-0.546875 L10.3125,-0.546875 Q10.15625,-0.3125 9.75,-0.21875 L9.28125,-0.09375 Q8.5625,0.09375 7.828125,0.78125 Q7.109375,1.484375 6.84375,2.921875 Q6.53125,1.9375 6.015625,1.15625 Q5.5,0.390625 4.46875,-0.546875 Z" transform="translate(4.4921875, 17.40625) scale(1, -1)"/>
</svg>