<svg height="16.484375" viewBox="0 0 24 16.484375" width="24" xmlns="http://www.w3.org/2000/svg">
<path d="M7.203125,-4.65625 Q7.109375,-4.03125 6.984375,-2.234375 Q6.859375,-0.453125 6.671875,2.5 Q5.65625,1.703125 4.796875,0.9375 Q3.9375,0.171875 3.171875,-0.546875 L2.859375,-0.34375 Q2.953125,-0.21875 2.953125,-0.078125 Q2.953125,0.078125 2.546875,0.484375 Q2.28125,0.75 1.875,1.421875 Q1.46875,2.09375 1.15625,3.0625 Q0.84375,4.03125 0.84375,5.1875 Q0.84375,6.359375 1.171875,7.25 Q1.515625,8.140625 2.140625,9 Q2.453125,9.40625 3.171875,10.125 Q3.890625,10.84375 5.046875,11.828125 L5.515625,11.828125 Q6.03125,11.359375 6.859375,10.890625 Q7.703125,10.4375 8.859375,9.984375 L8.859375,9.53125 Q8.515625,9.40625 8.453125,8.6875 Q8.375,8.09375 8.328125,7 Q8.28125,5.921875 8.203125,3.90625 Q8.140625,1.6875 8.015625,-0.359375 Q7.890625,-2.40625 7.703125,-4.65625 Z M4.5625,1.609375 Q4.75,1.609375 5.109375,1.890625 L6.671875,3.125 L6.671875,9.09375 Q5.375,9.71875 4.375,10.53125 Q2.375,9.03125 2.375,6.359375 Q2.375,5.46875 2.59375,4.625 Q2.828125,3.796875 3.171875,3.109375 Q3.53125,2.421875 3.890625,2.015625 Q4.265625,1.609375 4.5625,1.609375 Z" transform="translate(7.1484375, 11.828125) scale(1, -1)"/>
</svg>