<svg height="17.609375" viewBox="0 0 24 17.609375" width="24" xmlns="http://www.w3.org/2000/svg">
<path d="M9.09375,-0.234375 Q6.453125,-0.234375 4.734375,0.84375 Q3.03125,1.9375 2.203125,3.921875 Q1.390625,5.90625 1.390625,8.546875 Q1.390625,11.140625 2.328125,13.125 Q3.265625,15.125 5.046875,16.25 Q6.84375,17.375 9.4375,17.375 Q10.703125,17.375 11.984375,17.046875 Q13.265625,16.734375 14.453125,16.171875 L13.265625,13.21875 Q12.3125,13.6875 11.34375,14.015625 Q10.375,14.359375 9.4375,14.359375 Q7.34375,14.359375 6.234375,12.796875 Q5.140625,11.234375 5.140625,8.515625 Q5.140625,5.78125 6.15625,4.28125 Q7.171875,2.78125 9.4375,2.78125 Q10.484375,2.78125 11.53125,3.015625 Q12.578125,3.265625 13.796875,3.703125 L13.796875,0.640625 Q12.671875,0.1875 11.5625,-0.015625 Q10.46875,-0.234375 9.09375,-0.234375 Z" transform="translate(4.078125, 17.375) scale(1, -1)"/>
</svg>