<svg height="18.46875" viewBox="0 0 24 18.46875" width="24" xmlns="http://www.w3.org/2000/svg">
<path d="M6.03125,-0.234375 Q3.84375,-0.234375 2.453125,1.46875 Q1.078125,3.1875 1.078125,6.53125 Q1.078125,9.890625 2.46875,11.609375 Q3.859375,13.34375 6.125,13.34375 Q7.53125,13.34375 8.4375,12.78125 Q9.359375,12.234375 9.890625,11.421875 L10.015625,11.421875 Q9.9375,11.8125 9.84375,12.53125 Q9.75,13.265625 9.75,14.046875 L9.75,18.234375 L13.3125,18.234375 L13.3125,0 L10.578125,0 L9.890625,1.703125 L9.75,1.703125 Q9.21875,0.890625 8.328125,0.328125 Q7.4375,-0.234375 6.03125,-0.234375 Z M7.265625,2.609375 Q8.765625,2.609375 9.359375,3.484375 Q9.953125,4.375 9.984375,6.125 L9.984375,6.5 Q9.984375,8.421875 9.390625,9.421875 Q8.8125,10.4375 7.21875,10.4375 Q6.046875,10.4375 5.375,9.421875 Q4.703125,8.40625 4.703125,6.484375 Q4.703125,4.5625 5.375,3.578125 Q6.046875,2.609375 7.265625,2.609375 Z" transform="translate(4.8046875, 18.234375) scale(1, -1)"/>
</svg>