<svg height="14.59375" viewBox="0 0 24 14.59375" width="24" xmlns="http://www.w3.org/2000/svg">
<path d="M12.3125,2.203125 Q10.578125,0.71875 8.90625,0.046875 Q7.609375,-2.15625 6.5625,-3.625 Q5.515625,-5.109375 4.734375,-5.8125 Q3.125,-7.21875 1.296875,-7.21875 Q0.140625,-7.21875 -0.40625,-6.671875 Q-0.953125,-6.140625 -0.953125,-5.296875 Q-0.953125,-3.953125 0.53125,-2.734375 Q2.015625,-1.53125 4.5625,-0.578125 L5.859375,-0.09375 L6.984375,1.96875 Q5.1875,-0.171875 3.9375,-0.171875 Q3.046875,-0.171875 2.5,0.296875 Q1.96875,0.765625 1.96875,1.5625 Q1.96875,2.25 2.265625,2.9375 Q2.5625,3.625 3.140625,4.4375 Q3.703125,5.234375 3.703125,5.453125 Q3.703125,5.640625 3.578125,5.640625 Q3.4375,5.640625 2.734375,4.984375 Q2.5,4.75 2.234375,4.5 Q1.96875,4.265625 1.75,4.0625 L1.25,4.53125 Q1.6875,4.984375 2.203125,5.453125 Q2.734375,5.921875 3.21875,6.3125 Q3.703125,6.703125 3.953125,6.859375 Q4.34375,7.125 4.65625,7.25 Q4.96875,7.375 5.28125,7.375 Q6.59375,7.375 6.59375,5.828125 Q6.59375,5.046875 6.15625,4.1875 Q5.734375,3.34375 5.046875,2.234375 Q4.703125,1.703125 4.5,1.359375 Q4.3125,1.03125 4.3125,0.90625 Q4.3125,0.59375 4.625,0.59375 Q5.109375,0.59375 6.578125,2.375 Q7.296875,3.234375 8.125,4.4375 Q8.96875,5.640625 9.890625,7.15625 L13.078125,7.375 L9.5,1.0625 Q10.0625,1.375 10.671875,1.78125 Q11.296875,2.203125 11.90625,2.6875 Z M1.265625,-6.59375 Q2.109375,-6.59375 3.09375,-5.140625 Q3.578125,-4.390625 4.1875,-3.34375 Q4.796875,-2.296875 5.5,-0.90625 Q3.03125,-1.875 1.65625,-3.09375 Q0.28125,-4.3125 0.28125,-5.515625 Q0.28125,-5.921875 0.546875,-6.25 Q0.8125,-6.59375 1.265625,-6.59375 Z" transform="translate(5.9375, 7.375) scale(1, -1)"/>
</svg>