<svg height="18.640625" viewBox="0 0 24 18.640625" width="24" xmlns="http://www.w3.org/2000/svg">
<path d="M10.015625,-0.546875 Q9.484375,-0.546875 8.984375,-0.203125 Q8.5,0.125 8.015625,0.5 Q7.625,0.84375 7.0625,1.234375 Q6.5,1.625 6.234375,1.796875 Q5.375,2.375 4.78125,2.375 Q4.375,2.375 3.359375,1.890625 L2.921875,2.765625 L4.6875,3.890625 Q5.5,4.421875 6.046875,4.65625 Q6.59375,4.890625 6.90625,4.890625 Q7.078125,4.890625 7.203125,4.859375 Q7.34375,4.84375 7.46875,4.796875 Q8.140625,5.46875 8.546875,6.953125 Q8.953125,8.453125 8.953125,10.203125 Q8.953125,11.6875 8.46875,12.8125 Q7.984375,13.9375 7.125,14.5625 Q6.265625,15.1875 5.109375,15.1875 Q3.71875,15.1875 2.796875,14.34375 Q1.890625,13.515625 1.890625,12.1875 Q1.890625,10.515625 3.109375,9.34375 Q4.34375,8.1875 6.59375,7.921875 L6.40625,6.84375 Q4.75,7.0625 3.484375,7.765625 Q2.234375,8.46875 1.53125,9.578125 Q0.84375,10.703125 0.84375,12.140625 Q0.84375,13.84375 1.515625,15.140625 Q2.203125,16.4375 3.421875,17.171875 Q4.65625,17.921875 6.234375,17.921875 Q7.203125,17.921875 8.234375,17.5625 Q9.265625,17.203125 10.015625,16.375 Q10.796875,18.09375 12.5,18.09375 Q14.640625,18.09375 15.140625,15.890625 Q16.875,17.921875 19.84375,17.921875 Q21.765625,17.921875 22.875,17.140625 Q24,16.375 24.3125,14.453125 L24.453125,13.578125 Q24.5,13.265625 24.703125,13.15625 Q24.90625,13.0625 25.21875,13.0625 L25.21875,12.34375 Q22.21875,11.828125 22.21875,10.25 Q22.21875,9.859375 22.65625,9.359375 Q23.09375,8.859375 23.859375,8.203125 Q25.46875,6.890625 25.46875,5.09375 Q25.46875,4.125 24.359375,2.859375 Q23.25,1.609375 21.4375,0.5 Q20.546875,-0.03125 19.78125,-0.28125 Q19.015625,-0.546875 18.53125,-0.546875 Q18.046875,-0.546875 17.171875,-0.203125 Q16.296875,0.140625 15.359375,0.625 Q14.421875,1.109375 13.703125,1.484375 Q12.5,0.484375 11.484375,-0.03125 Q10.484375,-0.546875 10.015625,-0.546875 Z M12.265625,2.015625 Q12.484375,2.015625 12.9375,2.359375 Q13.390625,2.71875 13.90625,3.28125 Q14.421875,3.859375 14.8125,4.515625 Q15.390625,5.453125 15.390625,6.1875 Q15.390625,6.796875 15.140625,7.421875 Q14.90625,8.0625 14.65625,8.453125 Q14.421875,8.859375 14.171875,9.234375 Q13.9375,9.625 13.75,9.9375 Q13.484375,10.34375 13.25,10.921875 Q13.03125,11.5 13.03125,12.09375 Q13.03125,13.484375 14.296875,14.96875 Q14.234375,15.859375 13.765625,16.46875 Q13.296875,17.09375 12.546875,17.09375 Q11.25,17.09375 10.78125,15.5 Q11.28125,14.515625 11.515625,13.671875 Q11.765625,12.84375 11.765625,11.765625 Q11.765625,10.5625 11.3125,9.15625 Q10.875,7.75 10.109375,6.453125 Q9.359375,5.15625 8.421875,4.265625 L9.765625,3.359375 Q10.890625,2.609375 11.40625,2.3125 Q11.921875,2.015625 12.265625,2.015625 Z M21.078125,1.703125 Q21.453125,1.703125 21.9375,2.015625 Q22.4375,2.328125 22.8125,2.796875 Q23.203125,3.265625 23.203125,3.71875 Q23.203125,4.734375 21.84375,5.8125 Q21.3125,6.234375 20.90625,6.578125 Q20.5,6.9375 20.15625,7.296875 Q19.625,7.875 19.34375,8.421875 Q19.078125,8.96875 19.078125,9.578125 Q19.078125,10.484375 19.71875,11.171875 Q20.375,11.875 21.765625,12.359375 Q21.3125,12.71875 21.109375,13.203125 Q20.921875,13.6875 20.8125,14.359375 Q20.59375,15.703125 20.078125,16.203125 Q19.578125,16.703125 18.625,16.703125 Q17.921875,16.703125 17.265625,16.328125 Q16.609375,15.953125 16.1875,15.265625 Q15.765625,14.59375 15.765625,13.625 Q15.765625,13.25 15.9375,12.75 Q16.109375,12.265625 16.421875,11.6875 Q16.609375,11.328125 16.8125,10.96875 Q17.015625,10.609375 17.1875,10.25 Q17.546875,9.53125 17.78125,8.828125 Q18.03125,8.140625 18.03125,7.484375 Q18.03125,6.84375 17.625,5.859375 Q17.234375,4.890625 16.25,3.90625 L18.546875,2.640625 Q19.390625,2.1875 19.953125,1.9375 Q20.515625,1.703125 21.078125,1.703125 Z" transform="translate(-1.15625, 18.09375) scale(1, -1)"/>
</svg>