<svg height="24" viewBox="0 0 24 24" width="24" xmlns="http://www.w3.org/2000/svg">
<path d="M2.609375,0 L2.609375,11.234375 L0.359375,11.234375 L0.359375,12.21875 L2.609375,12.9375 L2.609375,13.6875 Q2.609375,16.171875 3.71875,17.265625 Q4.828125,18.359375 6.796875,18.359375 Q7.5625,18.359375 8.1875,18.21875 Q8.828125,18.09375 9.28125,17.921875 L8.734375,16.265625 Q8.359375,16.390625 7.84375,16.5 Q7.34375,16.625 6.8125,16.625 Q5.765625,16.625 5.25,15.921875 Q4.734375,15.21875 4.734375,13.703125 L4.734375,12.859375 L7.96875,12.859375 L7.96875,11.234375 L4.734375,11.234375 L4.734375,0 Z" transform="translate(7.1796875, 18.359375) scale(1, -1)"/>
</svg>