<svg height="18.234375" viewBox="0 0 24 18.234375" width="24" xmlns="http://www.w3.org/2000/svg">
<path d="M1.796875,-0.578125 L1.25,-0.09375 Q1.515625,0.625 1.515625,1.171875 Q1.515625,1.796875 0.71875,2.734375 L1.203125,3.390625 Q1.828125,3.046875 2.640625,3.046875 Q3,3.046875 3.453125,3.21875 Q3.90625,3.390625 4.15625,3.671875 L4.75,3.21875 Q4.375,2.359375 4.375,1.84375 Q4.375,1.171875 4.828125,0.828125 Q5.296875,0.484375 6,0.484375 Q7.65625,0.484375 8.546875,2.015625 Q9.453125,3.578125 9.453125,7.4375 Q9.453125,11.296875 8.34375,13.328125 Q7.25,15.359375 5.296875,15.359375 Q3.953125,15.359375 3.09375,14.421875 Q2.234375,13.484375 2.234375,12.140625 Q2.234375,11.328125 2.71875,10.515625 Q3.21875,9.703125 4.046875,9.078125 Q4.890625,8.453125 5.96875,8.15625 L5.640625,7.203125 Q3.234375,7.875 2.125,9.265625 Q1.015625,10.65625 1.015625,12.40625 Q1.015625,13.84375 1.6875,15.015625 Q2.375,16.203125 3.546875,16.890625 Q4.734375,17.59375 6.1875,17.59375 Q7.53125,17.59375 8.78125,16.984375 Q10.03125,16.390625 10.875,15.234375 Q12.5,17.65625 15.40625,17.65625 Q17.65625,17.65625 18.828125,16.390625 Q20.015625,15.125 20.015625,12.75 L20.015625,12.40625 L20.59375,12.40625 L20.59375,11.609375 Q18.90625,11.375 18.21875,10.734375 Q17.546875,10.109375 17.546875,8.734375 L17.546875,3.75 Q17.546875,3.4375 17.65625,3.265625 Q17.78125,3.09375 18.125,2.78125 Q18.3125,2.609375 18.484375,2.515625 Q18.671875,2.421875 18.84375,2.421875 Q19.0625,2.421875 19.453125,2.6875 Q19.84375,2.96875 20.296875,3.359375 L20.90625,2.640625 L17.65625,-0.578125 L16.9375,-0.578125 Q16.921875,0.125 16.25,0.53125 L15.28125,1.109375 Q14.875,1.375 14.578125,1.703125 Q14.296875,2.046875 14.296875,2.5 L14.296875,8.015625 Q14.296875,9 14.484375,9.5 Q14.6875,10.015625 15.1875,10.484375 Q15.4375,10.734375 15.8125,10.984375 Q16.203125,11.25 16.734375,11.5625 L16.734375,12.34375 Q16.734375,13.96875 16.0625,14.84375 Q15.390625,15.71875 14.15625,15.71875 Q13.484375,15.71875 12.890625,15.453125 Q12.3125,15.1875 11.90625,14.84375 Q11.515625,14.515625 11.40625,14.25 Q12.4375,11.875 12.4375,8.453125 Q12.4375,6.59375 11.96875,4.96875 Q11.515625,3.34375 10.703125,2.09375 Q9.890625,0.84375 8.796875,0.125 Q7.703125,-0.578125 6.40625,-0.578125 Q5.875,-0.578125 4.6875,-0.359375 Q4.078125,-0.234375 3.65625,-0.203125 Q3.234375,-0.171875 2.96875,-0.171875 Q2.421875,-0.171875 1.796875,-0.578125 Z" transform="translate(1.1875, 17.65625) scale(1, -1)"/>
</svg>