<svg height="18.5" viewBox="0 0 24 18.5" width="24" xmlns="http://www.w3.org/2000/svg">
<path d="M1.796875,-0.578125 L1.25,-0.09375 Q1.515625,0.625 1.515625,1.171875 Q1.515625,1.796875 0.71875,2.734375 L1.203125,3.390625 Q1.828125,3.046875 2.640625,3.046875 Q3,3.046875 3.453125,3.21875 Q3.90625,3.390625 4.15625,3.671875 L4.75,3.21875 Q4.375,2.359375 4.375,1.84375 Q4.375,1.171875 4.828125,0.828125 Q5.296875,0.5 6,0.5 Q7.125,0.5 7.8125,1.140625 Q8.515625,1.78125 8.859375,2.8125 Q9.21875,3.84375 9.328125,5.0625 Q9.453125,6.28125 9.453125,7.4375 Q9.453125,9.984375 8.953125,11.828125 Q8.46875,13.6875 7.546875,14.6875 Q6.625,15.703125 5.296875,15.703125 Q3.953125,15.703125 3.09375,14.765625 Q2.234375,13.828125 2.234375,12.484375 Q2.234375,11.640625 2.71875,10.828125 Q3.21875,10.03125 4.046875,9.40625 Q4.890625,8.78125 5.96875,8.5 L5.640625,7.53125 Q3.234375,8.203125 2.125,9.59375 Q1.015625,10.984375 1.015625,12.75 Q1.015625,14.203125 1.703125,15.359375 Q2.40625,16.53125 3.578125,17.21875 Q4.75,17.921875 6.1875,17.921875 Q8.0625,17.921875 9.3125,17.046875 Q10.5625,16.171875 11.28125,14.734375 Q12,15.34375 12.671875,15.796875 Q13.34375,16.265625 14.0625,16.65625 Q14.859375,17.09375 15.34375,17.390625 Q15.84375,17.6875 16.03125,17.859375 L16.515625,17.296875 Q16.3125,17.109375 16.3125,16.84375 Q16.3125,16.578125 16.703125,16.0625 Q17.09375,15.546875 17.5625,15.046875 Q18.234375,14.375 18.5625,14.125 Q18.90625,13.875 19.078125,13.875 Q19.203125,13.875 19.328125,13.921875 Q19.46875,13.96875 19.5625,13.984375 L19.875,13.34375 Q19.65625,13.203125 19.09375,12.765625 Q18.546875,12.34375 17.890625,11.796875 Q17.234375,11.25 16.65625,10.78125 Q17.46875,10.03125 17.90625,7.4375 Q18.125,6.125 18.375,5.140625 Q18.625,4.171875 18.890625,3.5 Q19.421875,2.1875 19.984375,2.1875 Q20.28125,2.1875 20.96875,2.875 L21.625,2.1875 Q21.234375,1.75 20.734375,1.328125 Q20.25,0.90625 19.6875,0.484375 Q18.5,-0.390625 18.4375,-0.546875 L17.71875,-0.546875 Q17.65625,-0.359375 17.5,-0.203125 Q17.359375,-0.046875 17.0625,0.1875 Q16.484375,0.71875 16,1.75 Q15.53125,2.78125 15.1875,4.515625 L14.71875,6.984375 Q14.5,8.140625 14.296875,8.453125 Q14.109375,8.78125 13.84375,8.78125 Q13.734375,8.78125 13.578125,8.6875 Q13.421875,8.609375 13.21875,8.5 L12.53125,7.984375 Q12.453125,6.265625 11.96875,4.71875 Q11.5,3.171875 10.671875,1.984375 Q9.84375,0.796875 8.75,0.125 Q7.65625,-0.546875 6.40625,-0.546875 Q6.21875,-0.546875 5.703125,-0.484375 Q5.203125,-0.4375 4.65625,-0.34375 Q4.15625,-0.234375 3.6875,-0.203125 Q3.234375,-0.171875 2.96875,-0.171875 Q2.421875,-0.171875 1.796875,-0.578125 Z M13.5625,15.03125 Q13.15625,15.03125 11.6875,13.84375 Q12.078125,12.8125 12.265625,11.640625 Q12.453125,10.46875 12.5,9.21875 Q13.484375,9.890625 14.453125,10.625 Q15.4375,11.359375 16.390625,12.140625 L14.375,14.46875 Q13.890625,15.03125 13.5625,15.03125 Z" transform="translate(0.828125, 17.921875) scale(1, -1)"/>
</svg>