<svg height="12.375" viewBox="0 0 24 12.375" width="24" xmlns="http://www.w3.org/2000/svg">
<path d="M3.703125,-0.546875 L3.34375,-0.390625 Q3.390625,-0.28125 3.390625,-0.234375 Q3.390625,-0.078125 2.921875,0.171875 Q2.6875,0.28125 2.359375,0.4375 Q2.046875,0.59375 1.609375,0.765625 L1.609375,1.265625 Q1.890625,1.375 2.015625,1.609375 Q2.140625,1.84375 2.140625,2.421875 L2.140625,8.546875 Q2.140625,8.953125 2.046875,9.203125 Q1.96875,9.453125 1.5625,9.765625 L1.109375,9.359375 L0.71875,9.671875 L2.59375,11.828125 L2.953125,11.640625 Q2.859375,11.46875 2.859375,11.40625 Q2.859375,11.234375 3.09375,11.09375 Q3.75,10.703125 3.75,9.671875 L3.75,2.6875 Q3.75,2.0625 3.953125,1.9375 Q4.78125,1.484375 4.921875,1.484375 Q5.015625,1.484375 5.203125,1.609375 Q5.40625,1.734375 5.71875,1.921875 Q6.28125,2.296875 7.25,3.28125 L7.25,8.78125 Q7.25,9.953125 6.4375,10.109375 L6.4375,10.609375 Q7.484375,10.828125 7.796875,11.828125 L8.296875,11.828125 Q8.640625,10.828125 9.671875,10.609375 L9.671875,10.109375 Q8.859375,9.953125 8.859375,8.78125 L8.859375,2.421875 Q8.859375,1.625 9.1875,1.625 Q9.453125,1.625 9.890625,2.28125 L10.265625,1.96875 L8.15625,-0.546875 L7.828125,-0.359375 L7.96875,-0.140625 Q7.515625,0.1875 7.375,0.515625 Q7.25,0.859375 7.25,1.390625 L7.25,2.546875 Q6.59375,1.9375 6.046875,1.453125 Q5.5,0.984375 5.015625,0.640625 Q4.5625,0.3125 4.21875,0.015625 Q3.890625,-0.28125 3.703125,-0.546875 Z" transform="translate(6.5078125, 11.828125) scale(1, -1)"/>
</svg>