<svg height="18.875" viewBox="0 0 24 18.875" width="24" xmlns="http://www.w3.org/2000/svg">
<path d="M10.109375,-5.765625 L10.109375,2.046875 Q9.546875,0.8125 8.484375,0.28125 Q7.421875,-0.234375 6.140625,-0.234375 Q3.671875,-0.234375 2.3125,1.5 Q0.953125,3.234375 0.953125,6.34375 Q0.953125,9.53125 2.3125,11.3125 Q3.671875,13.109375 6.140625,13.109375 Q7.421875,13.109375 8.53125,12.515625 Q9.640625,11.921875 10.109375,10.828125 L10.109375,12.859375 L14.25,12.859375 L14.25,-5.765625 Z M6.265625,0.984375 Q8.1875,0.984375 9.140625,2.421875 Q10.109375,3.859375 10.109375,6.234375 L10.109375,6.34375 Q10.109375,9 9.109375,10.4375 Q8.109375,11.875 6.265625,11.875 Q5.828125,11.875 5.40625,11.8125 L5.40625,1.078125 Q5.65625,0.984375 6.265625,0.984375 Z M11.375,-4.484375 L12.984375,-4.484375 L12.984375,11.59375 L11.375,11.59375 Z M4.125,1.5625 L4.125,11.296875 Q2.234375,10.125 2.234375,6.34375 Q2.234375,2.78125 4.125,1.5625 Z" transform="translate(4.3984375, 13.109375) scale(1, -1)"/>
</svg>