<svg height="18.46875" viewBox="0 0 24 18.46875" width="24" xmlns="http://www.w3.org/2000/svg">
<path d="M4.921875,9.28125 Q3.09375,9.59375 2.078125,10.59375 Q1.078125,11.609375 1.078125,12.984375 Q1.078125,14.765625 2.1875,15.734375 Q3.3125,16.703125 5.1875,17.203125 Q5.640625,17.328125 5.8125,17.5 Q6,17.6875 6.03125,17.921875 L6.75,17.921875 Q6.75,17.640625 7.125,17.34375 Q7.515625,17.0625 8.09375,16.75 L10.578125,15.4375 Q11.296875,15.046875 11.59375,15.046875 Q11.734375,15.046875 11.984375,15.1875 Q12.234375,15.34375 12.4375,15.5 Q12.640625,15.671875 12.640625,15.71875 Q12.140625,15.71875 11.9375,16.03125 Q11.734375,16.34375 11.734375,16.5625 Q11.734375,16.9375 12.03125,17.21875 Q12.34375,17.5 12.765625,17.5 Q13.25,17.5 13.578125,17.125 Q13.921875,16.75 13.921875,16.203125 Q13.921875,15.765625 13.546875,15.296875 Q13.171875,14.828125 12.578125,14.375 Q12,13.9375 11.34375,13.59375 Q10.703125,13.25 10.15625,13.03125 Q9.625,12.8125 9.34375,12.8125 Q9.140625,12.8125 8.578125,13.09375 Q8.015625,13.375 7.171875,13.828125 L5.859375,14.515625 Q5.1875,14.875 4.21875,14.875 Q3.390625,14.875 2.75,14.359375 Q2.109375,13.84375 2.109375,12.984375 Q2.109375,11.96875 3,11.21875 Q3.890625,10.46875 5.1875,10.265625 Z M5.296875,-0.546875 L4.6875,-0.21875 Q4.6875,0.953125 4.265625,1.5 Q3.859375,2.046875 3.234375,2.046875 Q2.15625,2.046875 1.6875,0.84375 L0.71875,1.203125 Q1.625,3.640625 3.546875,3.640625 Q4.125,3.640625 4.515625,3.5 Q4.9375,3.359375 5.234375,3.359375 Q5.421875,3.359375 6.09375,3.84375 L6.71875,3.453125 Q6.546875,2.921875 6.546875,2.734375 Q6.546875,2.40625 6.90625,1.984375 Q7.265625,1.5625 7.8125,1.25 Q8.375,0.953125 8.90625,0.953125 Q9.59375,0.953125 10.171875,1.390625 Q10.75,1.828125 10.75,2.59375 Q10.75,3.1875 9.90625,4.578125 Q9.09375,5.953125 8.484375,7.109375 Q7.875,8.28125 7.875,8.859375 Q7.875,9.40625 8.34375,10.09375 Q8.828125,10.796875 9.546875,11.4375 Q10.265625,12.09375 10.9375,12.4375 Q11.953125,12.9375 12.796875,12.9375 Q13.265625,12.9375 13.65625,12.640625 Q14.046875,12.359375 14.046875,11.859375 Q14.046875,11.453125 13.78125,11.171875 Q13.53125,10.890625 13.125,10.890625 Q12.671875,10.890625 12.359375,11.28125 Q12.046875,11.640625 11.90625,11.640625 Q11.546875,11.640625 11.296875,11.390625 Q11.046875,11.140625 11.046875,10.65625 Q11.046875,10.34375 11.40625,9.65625 Q11.765625,8.96875 12.640625,7.390625 Q13.171875,6.453125 13.421875,5.890625 Q13.6875,5.328125 13.765625,5 Q13.84375,4.6875 13.84375,4.421875 Q13.84375,3.953125 13.4375,3.296875 Q13.03125,2.65625 12.390625,2.015625 Q11.765625,1.375 11.09375,0.859375 Q10.421875,0.359375 9.859375,0.171875 Q9.34375,0 8.59375,-0.109375 Q7.84375,-0.21875 6.453125,-0.21875 Q6.140625,-0.21875 5.8125,-0.296875 Q5.5,-0.390625 5.296875,-0.546875 Z" transform="translate(4.6171875, 17.921875) scale(1, -1)"/>
</svg>