<svg height="18.46875" viewBox="0 0 24 18.46875" width="24" xmlns="http://www.w3.org/2000/svg">
<path d="M6.140625,-0.234375 Q3.671875,-0.234375 2.3125,1.53125 Q0.953125,3.3125 0.953125,6.5 Q0.953125,9.59375 2.3125,11.34375 Q3.671875,13.109375 6.140625,13.109375 Q7.421875,13.109375 8.484375,12.578125 Q9.546875,12.046875 10.109375,10.828125 L10.109375,18.234375 L14.25,18.234375 L14.25,0 L10.109375,0 L10.109375,2.015625 Q9.640625,0.90625 8.53125,0.328125 Q7.421875,-0.234375 6.140625,-0.234375 Z M11.375,1.265625 L12.984375,1.265625 L12.984375,16.96875 L11.375,16.96875 Z M6.265625,0.984375 Q8.140625,0.984375 9.125,2.4375 Q10.109375,3.890625 10.109375,6.5 L10.109375,6.640625 Q10.109375,8.96875 9.140625,10.421875 Q8.1875,11.875 6.265625,11.875 Q5.65625,11.875 5.40625,11.78125 L5.40625,1.0625 Q5.828125,0.984375 6.265625,0.984375 Z M4.125,1.5625 L4.125,11.28125 Q2.234375,10.109375 2.234375,6.5 Q2.234375,2.78125 4.125,1.5625 Z" transform="translate(4.3984375, 18.234375) scale(1, -1)"/>
</svg>