<svg height="16.96875" viewBox="0 0 24 16.96875" width="24" xmlns="http://www.w3.org/2000/svg">
<path d="M2.640625,-4.65625 Q2.359375,-1.921875 2.203125,0.75 Q2.0625,0.8125 1.875,0.8125 Q1.515625,0.8125 1.109375,0.390625 L0.71875,0.625 L2.09375,2.546875 L2.09375,6.953125 Q2.09375,8.515625 1.84375,8.90625 Q1.734375,9.09375 1.59375,9.265625 Q1.46875,9.453125 1.34375,9.578125 Q1.109375,9.8125 1.109375,10.078125 Q1.109375,10.265625 1.375,10.703125 Q1.65625,11.15625 1.96875,11.609375 L2.453125,12.3125 L2.875,12.078125 Q2.65625,11.6875 2.65625,11.5 Q2.65625,11.1875 3.1875,10.578125 Q3.703125,10.015625 3.703125,9.359375 L3.703125,9.234375 L7.25,11.828125 L7.609375,11.46875 L7.265625,11.234375 Q7.53125,10.515625 8.515625,9.21875 Q9.53125,7.84375 9.53125,6.5 Q9.53125,4.78125 7.875,2.640625 Q7.0625,1.578125 6.46875,0.78125 Q5.875,0 5.546875,-0.546875 L5.09375,-0.546875 Q5.015625,-0.21875 3.546875,0.40625 Q3.453125,-0.84375 3.359375,-2.109375 Q3.265625,-3.390625 3.140625,-4.65625 Z M5.921875,1.265625 Q6.140625,1.265625 6.515625,1.65625 Q6.90625,2.046875 7.296875,2.625 Q7.6875,3.21875 7.9375,3.859375 Q8.203125,4.515625 8.203125,5.0625 Q8.203125,5.640625 7.90625,6.421875 Q7.609375,7.203125 6.984375,8.109375 Q6.59375,8.6875 6.265625,9.171875 Q5.953125,9.671875 5.71875,10.109375 L3.703125,8.640625 L3.703125,2.359375 Q4.390625,1.984375 4.84375,1.703125 Q5.5625,1.265625 5.921875,1.265625 Z" transform="translate(6.875, 12.3125) scale(1, -1)"/>
</svg>