<svg height="19.109375" viewBox="0 0 24 19.109375" width="24" xmlns="http://www.w3.org/2000/svg">
<path d="M9.75,-5.765625 L9.75,-0.265625 Q9.75,0.75 9.890625,1.703125 L9.75,1.703125 Q9.234375,0.890625 8.34375,0.328125 Q7.46875,-0.234375 6.03125,-0.234375 Q3.8125,-0.234375 2.4375,1.46875 Q1.078125,3.1875 1.078125,6.53125 Q1.078125,9.890625 2.46875,11.609375 Q3.859375,13.34375 6.09375,13.34375 Q7.53125,13.34375 8.4375,12.78125 Q9.34375,12.234375 9.890625,11.421875 L9.984375,11.421875 L10.296875,13.109375 L13.3125,13.109375 L13.3125,-5.765625 Z M7.296875,2.5625 Q8.78125,2.5625 9.359375,3.4375 Q9.953125,4.3125 9.984375,6.078125 L9.984375,6.5 Q9.984375,8.421875 9.390625,9.421875 Q8.8125,10.4375 7.25,10.4375 Q5.96875,10.4375 5.34375,9.421875 Q4.734375,8.40625 4.734375,6.484375 Q4.734375,2.5625 7.296875,2.5625 Z" transform="translate(4.8046875, 13.34375) scale(1, -1)"/>
</svg>