<svg height="22.203125" viewBox="0 0 24 22.203125" width="24" xmlns="http://www.w3.org/2000/svg">
<path d="M7.6875,-4.734375 Q6.859375,-4.734375 6.1875,-4.421875 Q5.515625,-4.125 5.125,-3.640625 Q4.734375,-3.171875 4.734375,-2.59375 Q4.734375,-2.109375 5.046875,-1.8125 Q5.359375,-1.515625 5.828125,-1.515625 Q6.234375,-1.515625 6.5,-1.71875 Q6.765625,-1.9375 6.765625,-2.234375 Q6.765625,-2.5625 6.671875,-2.6875 Q6.59375,-2.859375 6.59375,-2.96875 Q6.59375,-3.28125 7.03125,-3.5625 Q7.46875,-3.84375 8.0625,-3.84375 Q9.09375,-3.84375 10.015625,-3.375 Q10.9375,-2.90625 11.6875,-2.140625 Q12.765625,-1.015625 13.453125,0.453125 Q14.15625,1.921875 14.484375,3.515625 Q14.828125,5.109375 14.828125,6.625 Q14.828125,7.9375 14.578125,9.234375 Q14.328125,10.53125 13.6875,12 Q13.0625,13.46875 11.90625,15.28125 Q11.203125,14.609375 10.703125,14.03125 Q10.203125,13.46875 9.890625,13.03125 Q10.015625,12.359375 10.0625,11.765625 Q10.125,11.1875 10.125,10.65625 Q10.125,6.59375 6.890625,4.171875 Q7.203125,3.9375 7.640625,3.5625 Q8.09375,3.1875 8.5,2.828125 Q8.921875,2.46875 9.140625,2.25 Q9.625,1.796875 9.90625,1.796875 Q10.34375,1.796875 11.234375,2.296875 L11.5625,1.828125 Q10.6875,1.3125 9.796875,0.734375 Q8.90625,0.171875 8.015625,-0.5 L7.578125,-0.1875 Q7.921875,0.1875 7.921875,0.3125 Q7.921875,0.453125 7.34375,1.015625 Q6.953125,1.390625 6.453125,1.8125 Q5.953125,2.25 5.46875,2.578125 Q4.984375,2.90625 4.65625,2.90625 Q4.375,2.90625 4.0625,2.859375 Q3.75,2.8125 3.5,2.765625 L3.40625,3.34375 Q6.078125,3.890625 7.296875,5.265625 Q8.515625,6.640625 8.515625,9.265625 Q8.515625,11.140625 7.96875,12.546875 Q7.4375,13.96875 6.484375,14.75 Q5.546875,15.546875 4.34375,15.546875 Q3.53125,15.546875 2.859375,15.09375 Q2.203125,14.640625 1.8125,13.859375 Q1.421875,13.078125 1.421875,12.140625 Q1.421875,10.578125 2.296875,9.5625 Q3.1875,8.546875 4.734375,8.328125 L4.65625,7.796875 Q2.96875,7.984375 1.90625,9.203125 Q0.84375,10.421875 0.84375,12.21875 Q0.84375,13.65625 1.46875,14.828125 Q2.09375,16.015625 3.109375,16.703125 Q4.125,17.40625 5.296875,17.40625 Q6.671875,17.40625 7.8125,16.4375 Q8.96875,15.484375 9.671875,13.65625 Q10.65625,14.859375 11.609375,15.796875 Q12.578125,16.75 13.53125,17.46875 L13.84375,17.1875 Q13.703125,16.890625 13.703125,16.75 Q13.703125,16.625 13.78125,16.390625 Q13.875,16.15625 14.15625,15.625 Q14.453125,15.09375 15.078125,14.046875 Q15.90625,12.625 16.3125,11.125 Q16.734375,9.640625 16.734375,8.09375 Q16.734375,6.171875 16.171875,4.234375 Q15.625,2.296875 14.5625,0.546875 Q13.515625,-1.203125 12,-2.609375 Q9.703125,-4.734375 7.6875,-4.734375 Z" transform="translate(3.2109375, 17.46875) scale(1, -1)"/>
</svg>