<svg height="18.46875" viewBox="0 0 24 18.46875" width="24" xmlns="http://www.w3.org/2000/svg">
<path d="M9.703125,4.109375 Q7.3125,4.109375 6.53125,6.71875 L7.46875,7.125 Q7.78125,6.21875 8.34375,5.671875 Q8.921875,5.140625 9.671875,5.140625 Q10.3125,5.140625 10.75,5.4375 Q11.203125,5.734375 11.203125,6.265625 Q11.203125,6.90625 10.796875,7.515625 Q10.390625,8.140625 9.84375,8.765625 L7.9375,10.921875 Q6.984375,12.03125 6.984375,12.796875 Q6.984375,13.34375 7.484375,13.875 Q7.703125,14.109375 8.125,14.53125 Q8.546875,14.953125 9.03125,15.4375 Q8.78125,16.109375 8.21875,16.5 Q7.65625,16.890625 6.8125,16.890625 Q5.375,16.890625 4.5,15.265625 Q3.640625,13.65625 3.640625,10.734375 Q3.640625,8.96875 4.28125,7.5 Q4.921875,6.046875 6.015625,4.96875 Q7.125,3.890625 8.578125,3.296875 Q10.03125,2.71875 11.65625,2.71875 Q12.8125,2.71875 14.1875,3.046875 Q15.578125,3.390625 16.578125,3.953125 L17.15625,3.1875 L12.84375,-0.390625 Q12.09375,-0.546875 11.09375,-0.546875 Q9.046875,-0.546875 7.203125,0.21875 Q5.375,0.984375 3.9375,2.359375 Q2.5,3.75 1.671875,5.609375 Q0.84375,7.484375 0.84375,9.703125 Q0.84375,12.140625 1.5625,14 Q2.296875,15.859375 3.578125,16.890625 Q4.875,17.921875 6.5,17.921875 Q8.90625,17.921875 9.75,16.109375 Q10.15625,16.515625 10.5,16.84375 Q10.84375,17.1875 11.0625,17.375 Q11.359375,17.640625 11.59375,17.78125 Q11.828125,17.921875 12.078125,17.921875 Q12.265625,17.921875 12.53125,17.84375 Q12.796875,17.78125 13.390625,17.515625 Q14.78125,16.921875 15.28125,16.921875 Q15.546875,16.921875 15.828125,17.15625 Q16.125,17.40625 16.515625,17.78125 L17.28125,17.203125 L15.171875,14.78125 Q14.90625,14.46875 14.703125,14.296875 Q14.5,14.140625 14.296875,14.140625 Q14.140625,14.140625 13.75,14.28125 Q13.375,14.421875 12.71875,14.65625 Q12.078125,14.921875 11.546875,15.09375 Q11.015625,15.28125 10.75,15.28125 Q10.5625,15.28125 10.421875,15.203125 Q10.296875,15.125 10.125,14.953125 Q10.015625,14.828125 9.90625,14.6875 Q9.796875,14.546875 9.796875,14.359375 Q9.796875,14.1875 10.09375,13.78125 Q10.390625,13.390625 10.9375,12.71875 L12.234375,11.1875 L13.484375,12.265625 Q13.75,12.484375 13.921875,12.71875 Q14.109375,12.953125 14.203125,13.203125 L14.921875,13.203125 Q15.34375,12.671875 15.765625,12.3125 Q16.203125,11.953125 17.046875,11.6875 L17.046875,10.96875 Q16.109375,10.296875 15.625,9.359375 L14.921875,9.359375 Q14.609375,9.84375 14.265625,10.140625 Q13.921875,10.4375 13.15625,10.78125 L12.8125,10.484375 Q13.703125,9.390625 13.703125,8.8125 Q13.703125,8.421875 13.25,7.75 Q13.015625,7.421875 12.84375,7.0625 Q12.671875,6.71875 12.625,6.390625 Q12.40625,5.203125 11.5625,4.65625 Q10.734375,4.109375 9.703125,4.109375 Z" transform="translate(2.9375, 17.921875) scale(1, -1)"/>
</svg>