<svg height="17.375" viewBox="0 0 24 17.375" width="24" xmlns="http://www.w3.org/2000/svg">
<path d="M7.75,-0.234375 Q5.515625,-0.234375 4.1875,0.328125 Q2.859375,0.90625 2.265625,2.28125 Q1.6875,3.671875 1.6875,6.078125 L1.6875,17.140625 L5.828125,17.140625 L5.828125,1.171875 Q6.1875,1.078125 6.671875,1.03125 Q7.171875,0.984375 7.78125,0.984375 Q10.53125,0.984375 11.640625,2.15625 Q12.75,3.34375 12.75,6 L12.75,17.140625 L14.015625,17.140625 L14.015625,6.078125 Q14.015625,2.8125 12.546875,1.28125 Q11.09375,-0.234375 7.75,-0.234375 Z M4.5625,1.53125 L4.5625,15.859375 L2.953125,15.859375 L2.953125,6 Q2.953125,4.125 3.359375,2.9375 Q3.765625,1.75 4.5625,1.53125 Z" transform="translate(4.1484375, 17.140625) scale(1, -1)"/>
</svg>