<svg height="18" viewBox="0 0 24 18" width="24" xmlns="http://www.w3.org/2000/svg">
<path d="M8.09375,3.3125 Q5.96875,3.3125 5.15625,5.734375 L5.71875,5.921875 Q6.046875,4.96875 6.625,4.40625 Q7.203125,3.859375 8.09375,3.859375 Q9.078125,3.859375 9.546875,4.453125 Q10.015625,5.046875 10.015625,5.828125 Q10.015625,6.53125 9.703125,7.359375 Q9.40625,8.1875 8.828125,8.921875 L7.125,11.203125 Q6.59375,11.921875 6.390625,12.25 Q6.1875,12.578125 6.1875,12.75 Q6.1875,12.9375 6.328125,13.203125 Q6.484375,13.46875 6.8125,13.890625 Q7.015625,14.140625 7.3125,14.5 Q7.625,14.875 7.96875,15.265625 Q7.734375,16.03125 7.15625,16.453125 Q6.59375,16.875 5.875,16.875 Q4.46875,16.875 3.515625,15.21875 Q2.5625,13.578125 2.5625,10.46875 Q2.5625,6.21875 4.421875,3.90625 Q6.28125,1.609375 9.625,1.609375 Q10.890625,1.609375 12.046875,1.921875 Q13.21875,2.234375 14.25,2.875 L14.5625,2.46875 L11.015625,-0.453125 Q10.6875,-0.5 10.21875,-0.53125 Q9.75,-0.578125 9.1875,-0.578125 Q6.640625,-0.578125 4.75,0.625 Q2.875,1.84375 1.859375,4.09375 Q0.84375,6.34375 0.84375,9.40625 Q0.84375,11.859375 1.453125,13.65625 Q2.0625,15.453125 3.171875,16.4375 Q4.296875,17.421875 5.828125,17.421875 Q6.671875,17.421875 7.390625,16.953125 Q8.109375,16.484375 8.359375,15.71875 Q8.609375,16.03125 8.84375,16.296875 Q9.09375,16.578125 9.234375,16.75 Q9.578125,17.140625 9.75,17.28125 Q9.9375,17.421875 10.109375,17.421875 Q10.390625,17.421875 11.375,17.015625 Q11.828125,16.84375 12.171875,16.71875 Q12.53125,16.609375 12.890625,16.609375 Q13.296875,16.609375 13.6875,17.140625 L14.09375,16.890625 L13.125,15.171875 Q12.953125,14.875 12.8125,14.765625 Q12.671875,14.65625 12.5,14.65625 Q12.3125,14.65625 11.796875,14.828125 Q11.296875,15 10.609375,15.3125 Q9.796875,15.671875 9.40625,15.671875 Q8.953125,15.671875 8.453125,15.03125 Q8.109375,14.59375 8.015625,14.359375 Q7.921875,14.140625 7.921875,13.890625 Q7.921875,13.734375 8.078125,13.375 Q8.25,13.015625 8.859375,12.1875 L10.125,10.4375 L10.734375,10.921875 Q11.296875,11.40625 11.578125,11.75 Q11.875,12.09375 12.046875,12.484375 L12.5,12.484375 Q12.8125,12 13.140625,11.671875 Q13.46875,11.359375 14.140625,11.109375 L14.140625,10.65625 Q13.375,10.125 13.015625,9.390625 L12.546875,9.390625 Q12.3125,9.796875 12.03125,10.046875 Q11.765625,10.296875 11.15625,10.578125 L10.4375,10.015625 Q11.09375,9.09375 11.34375,8.609375 Q11.609375,8.140625 11.609375,7.96875 Q11.609375,7.875 11.53125,7.71875 Q11.46875,7.5625 11.25,7.296875 Q10.96875,6.9375 10.84375,6.625 Q10.734375,6.3125 10.6875,5.828125 Q10.515625,4.515625 9.796875,3.90625 Q9.09375,3.3125 8.09375,3.3125 Z" transform="translate(4.296875, 17.421875) scale(1, -1)"/>
</svg>