<svg height="18.5625" viewBox="0 0 24 18.5625" width="24" xmlns="http://www.w3.org/2000/svg">
<path d="M9.71875,-0.53125 Q9.1875,-0.53125 8.6875,-0.40625 Q8.1875,-0.28125 7.5625,0.09375 Q6.046875,1.0625 4.90625,1.625 Q3.765625,2.203125 3.078125,2.203125 Q2.328125,2.203125 2.328125,1.421875 Q2.328125,1.0625 2.609375,0.484375 L1.75,0.078125 Q0.84375,1.34375 0.84375,2.40625 Q0.84375,3.359375 1.625,4.03125 Q2.421875,4.703125 3.671875,4.875 Q4.921875,5.0625 6.1875,5.71875 Q7.46875,6.390625 8.203125,7.625 Q8.921875,8.859375 8.921875,10.703125 Q8.921875,11.953125 8.4375,12.9375 Q7.96875,13.9375 7.125,14.53125 Q6.28125,15.140625 5.1875,15.140625 Q4.3125,15.140625 3.578125,14.75 Q2.859375,14.359375 2.40625,13.65625 Q1.96875,12.953125 1.96875,12.046875 Q1.96875,8.953125 6.03125,8.28125 L5.828125,7.3125 Q3.4375,7.65625 2.171875,9.015625 Q0.90625,10.375 0.90625,12.53125 Q0.90625,14.09375 1.546875,15.296875 Q2.1875,16.515625 3.3125,17.203125 Q4.4375,17.90625 5.921875,17.90625 Q7.296875,17.90625 8.5,17.234375 Q9.71875,16.5625 10.53125,15.34375 L13.15625,16.625 Q13.84375,16.96875 14.484375,17.296875 Q15.140625,17.640625 15.71875,18.03125 L16.203125,17.1875 Q15.859375,16.921875 15.859375,16.6875 Q15.859375,16.578125 16.078125,16.03125 Q16.21875,15.671875 16.546875,15.1875 Q16.875,14.71875 17.1875,14.296875 Q17.515625,13.875 17.6875,13.734375 Q17.8125,13.625 17.921875,13.578125 Q18.046875,13.53125 18.125,13.53125 Q18.28125,13.53125 18.640625,13.734375 L19.171875,12.90625 L15.90625,10.96875 Q17.546875,10.4375 18.5,9.125 Q19.46875,7.828125 19.46875,6.125 Q19.46875,4.203125 18.109375,2.75 Q16.75,1.296875 14.203125,0.390625 Q11.609375,-0.53125 9.71875,-0.53125 Z M11.546875,9.890625 Q12.703125,10.484375 13.359375,10.828125 Q14.015625,11.1875 14.421875,11.421875 Q15.265625,11.921875 15.265625,12.03125 Q15.265625,12.234375 14.984375,12.78125 Q14.71875,13.34375 14.3125,13.9375 Q13.921875,14.546875 13.546875,14.984375 Q13.171875,15.4375 13.015625,15.4375 Q12.75,15.4375 11.046875,14.453125 Q11.6875,13.015625 11.6875,11.421875 Q11.6875,10.609375 11.546875,9.890625 Z M13.4375,1.46875 Q14.203125,1.46875 14.796875,1.9375 Q15.40625,2.40625 15.75,3.203125 Q16.109375,4.015625 16.109375,4.96875 Q16.109375,6.125 15.59375,7 Q15.09375,7.890625 14.265625,8.390625 Q13.4375,8.90625 12.40625,8.90625 Q11.65625,8.90625 11.1875,8.640625 Q10.875,7.609375 10.453125,7.015625 Q10.03125,6.4375 9.40625,6.03125 Q9.078125,5.8125 8.28125,5.453125 Q7.484375,5.109375 6.21875,4.625 Q6.75,4.46875 7.59375,4.046875 Q8.453125,3.625 9.625,2.90625 Q12,1.46875 13.4375,1.46875 Z" transform="translate(1.84375, 18.03125) scale(1, -1)"/>
</svg>