<svg height="12.375" viewBox="0 0 24 12.375" width="24" xmlns="http://www.w3.org/2000/svg">
<path d="M3.234375,-0.546875 L2.953125,-0.390625 L3.125,-0.09375 Q2.234375,0.4375 1.734375,0.953125 Q1.25,1.46875 1.046875,2.125 Q0.84375,2.78125 0.84375,3.71875 L0.84375,7.796875 Q0.84375,8.421875 0.9375,8.734375 Q1.03125,9.046875 1.421875,9.4375 L3.703125,11.546875 Q3.984375,11.828125 4.15625,11.828125 Q4.484375,11.828125 5.046875,11.296875 Q5.65625,10.75 5.875,10.75 Q6,10.75 6.09375,10.796875 Q6.1875,10.84375 6.28125,10.921875 L6.59375,10.65625 L5.40625,9.53125 Q5.15625,9.3125 5.015625,9.3125 Q4.875,9.3125 4.53125,9.578125 L3.3125,10.484375 Q2.765625,10.03125 2.609375,9.734375 Q2.453125,9.453125 2.453125,8.8125 L2.453125,4.46875 Q2.453125,3.796875 2.5,3.375 Q2.5625,2.96875 2.734375,2.703125 Q2.921875,2.453125 3.3125,2.140625 Q3.90625,1.6875 4.296875,1.6875 Q4.734375,1.6875 6.09375,2.90625 L6.453125,2.609375 Z" transform="translate(8.28125, 11.828125) scale(1, -1)"/>
</svg>