<svg height="12.765625" viewBox="0 0 24 12.765625" width="24" xmlns="http://www.w3.org/2000/svg">
<path d="M3.234375,-0.546875 Q3.078125,0.03125 2.5,0.4375 Q1.921875,0.84375 1.390625,0.9375 L1.390625,1.65625 Q2.1875,1.796875 2.1875,2.875 L2.1875,7.78125 Q2.1875,9.234375 1.703125,9.5 L1.25,9.03125 L0.71875,9.5 L3.171875,12.21875 L3.75,11.765625 Q3.59375,11.609375 3.59375,11.546875 Q3.59375,11.46875 3.8125,11.359375 Q4.984375,10.78125 4.984375,9.28125 L4.984375,9.046875 L8.203125,12.21875 L8.921875,12.21875 Q9.3125,11.5625 9.984375,11.171875 Q10.65625,10.78125 11.1875,10.734375 L11.1875,10.015625 Q10.53125,9.765625 10.53125,8.96875 L10.53125,3.21875 Q10.53125,2.71875 10.625,2.5 Q10.734375,2.28125 11.046875,2.28125 Q11.28125,2.28125 12.046875,3.046875 L12.578125,2.5625 L9.796875,-0.546875 L9.171875,-0.171875 L9.3125,0.078125 Q8.46875,0.484375 8.0625,0.890625 Q7.65625,1.296875 7.65625,2.109375 Q7.65625,2.359375 7.671875,2.578125 Q7.6875,2.8125 7.703125,3.046875 Q7.734375,3.28125 7.734375,3.515625 Q7.734375,3.75 7.734375,3.984375 L7.734375,8.296875 Q7.734375,9.1875 7.203125,9.53125 Q7.03125,9.640625 6.9375,9.640625 Q6.84375,9.640625 6.625,9.4375 L4.984375,7.875 L4.984375,2.875 Q4.984375,1.796875 5.78125,1.65625 L5.78125,0.9375 Q5.25,0.84375 4.703125,0.4375 Q4.15625,0.03125 3.953125,-0.546875 Z" transform="translate(5.3515625, 12.21875) scale(1, -1)"/>
</svg>