<svg height="24" viewBox="0 0 24 24" width="24" xmlns="http://www.w3.org/2000/svg">
<path d="M3.859375,14.015625 Q2.96875,14.015625 2.359375,14.625 Q1.75,15.234375 1.75,16.125 Q1.75,17.015625 2.359375,17.625 Q2.96875,18.234375 3.859375,18.234375 Q4.75,18.234375 5.359375,17.625 Q5.96875,17.015625 5.96875,16.125 Q5.96875,15.234375 5.359375,14.625 Q4.75,14.015625 3.859375,14.015625 Z M3.859375,15.21875 Q4.25,15.21875 4.515625,15.484375 Q4.78125,15.75 4.78125,16.125 Q4.78125,16.515625 4.515625,16.78125 Q4.25,17.046875 3.859375,17.046875 Q3.484375,17.046875 3.21875,16.78125 Q2.953125,16.515625 2.953125,16.125 Q2.953125,15.75 3.21875,15.484375 Q3.484375,15.21875 3.859375,15.21875 Z M1.796875,0 L1.796875,12.859375 L5.953125,12.859375 L5.953125,0 Z M3.078125,1.265625 L4.6875,1.265625 L4.6875,11.59375 L3.078125,11.59375 Z" transform="translate(8.140625, 18.234375) scale(1, -1)"/>
</svg>