<svg height="18.875" viewBox="0 0 24 18.875" width="24" xmlns="http://www.w3.org/2000/svg">
<path d="M1.65625,-5.765625 L1.65625,12.859375 L5.8125,12.859375 L5.8125,10.828125 Q6.28125,11.921875 7.390625,12.515625 Q8.515625,13.109375 9.765625,13.109375 Q12.28125,13.109375 13.609375,11.296875 Q14.953125,9.484375 14.953125,6.34375 Q14.953125,3.28125 13.5625,1.515625 Q12.1875,-0.234375 9.765625,-0.234375 Q8.515625,-0.234375 7.4375,0.28125 Q6.359375,0.8125 5.8125,2.046875 L5.8125,-5.765625 Z M9.640625,0.984375 Q10.25,0.984375 10.515625,1.078125 L10.515625,11.8125 Q10.078125,11.875 9.640625,11.875 Q7.84375,11.875 6.828125,10.421875 Q5.8125,8.96875 5.8125,6.34375 L5.8125,6.140625 Q5.8125,3.8125 6.765625,2.390625 Q7.734375,0.984375 9.640625,0.984375 Z M2.921875,-4.484375 L4.53125,-4.484375 L4.53125,11.59375 L2.921875,11.59375 Z M11.78125,1.5625 Q13.6875,2.8125 13.6875,6.34375 Q13.6875,10.109375 11.78125,11.296875 Z" transform="translate(3.6953125, 13.109375) scale(1, -1)"/>
</svg>