<svg height="18.484375" viewBox="0 0 24 18.484375" width="24" xmlns="http://www.w3.org/2000/svg">
<path d="M5.640625,-0.53125 Q5.640625,-0.28125 5.515625,-0.109375 Q5.40625,0.046875 4.984375,0.28125 L3.9375,0.859375 Q3.34375,1.203125 2.921875,1.28125 Q2.5,1.375 2.046875,1.375 L2.046875,2.109375 Q2.421875,2.296875 2.546875,2.640625 Q2.6875,3 2.6875,3.625 L2.6875,13.625 Q2.6875,14.6875 1.921875,14.6875 Q1.578125,14.6875 1.25,14.546875 L0.71875,15.359375 Q3,17.15625 3.171875,17.953125 L3.90625,17.953125 Q3.90625,17.78125 4.0625,17.609375 Q4.21875,17.453125 4.84375,17.140625 Q6,16.609375 6,15.53125 L6,3.640625 Q6,3.21875 6.3125,3 L7.625,2.15625 Q7.875,1.984375 8.140625,1.984375 Q8.453125,1.984375 10.703125,3.390625 L10.703125,14.296875 Q10.703125,15.078125 9.625,15.21875 L9.625,15.953125 Q10.34375,16.0625 11.078125,16.625 Q11.8125,17.203125 12.078125,17.953125 L12.8125,17.953125 Q12.9375,17.5 13.3125,17.046875 Q13.6875,16.609375 14.171875,16.3125 Q14.65625,16.03125 15.125,15.953125 L15.125,15.21875 Q14.5,15.140625 14.25,14.921875 Q14.015625,14.71875 14.015625,14.296875 L14.015625,3.21875 Q14.015625,2.78125 14.140625,2.625 Q14.28125,2.46875 14.5,2.46875 Q14.6875,2.46875 14.9375,2.578125 Q15.1875,2.6875 15.546875,2.921875 L16.078125,2.15625 Q13.921875,0.484375 13.125,-0.53125 L12.28125,-0.53125 Q12.28125,-0.3125 12.03125,-0.234375 Q10.703125,0.125 10.703125,1.515625 L10.703125,2.109375 Q9.859375,1.609375 8.984375,1.140625 Q8.109375,0.671875 7.25,0.21875 Q7.015625,0.09375 6.703125,-0.125 Q6.390625,-0.34375 6.390625,-0.53125 Z" transform="translate(3.6015625, 17.953125) scale(1, -1)"/>
</svg>