<svg height="18.625" viewBox="0 0 24 18.625" width="24" xmlns="http://www.w3.org/2000/svg">
<path d="M11.25,-0.546875 Q10.109375,-0.546875 8.359375,0.625 L5.78125,2.375 Q4.796875,3.046875 4.015625,3.046875 Q3.171875,3.046875 2.0625,2.203125 L1.78125,2.546875 Q3.75,4.515625 5.375,4.515625 Q5.78125,4.515625 6.140625,4.4375 Q8.359375,5.359375 8.359375,6.171875 Q8.359375,6.4375 8.078125,7.0625 Q7.796875,7.6875 7.171875,8.5625 L6.53125,9.5 Q6,10.265625 5.734375,10.765625 Q5.46875,11.28125 5.46875,11.609375 Q5.46875,12.34375 6.1875,13 Q6.90625,13.65625 8.203125,14.125 Q9.5,14.609375 11.203125,14.78125 Q8.40625,16.265625 5.765625,16.265625 Q4.46875,16.265625 3.484375,15.734375 Q2.5,15.21875 1.9375,14.296875 Q1.390625,13.375 1.390625,12.171875 Q1.390625,9.90625 3.578125,9.09375 L3.390625,8.59375 Q0.84375,9.546875 0.84375,12.3125 Q0.84375,13.96875 1.640625,15.265625 Q2.453125,16.5625 3.84375,17.3125 Q5.25,18.078125 7.0625,18.078125 Q9,18.078125 10.8125,17.40625 Q12.625,16.734375 14.15625,15.46875 Q15.703125,14.203125 16.78125,12.4375 Q18.4375,9.765625 18.4375,7.015625 Q18.4375,4.75 17.40625,3.109375 Q16.390625,1.46875 14.5,0.453125 Q12.625,-0.546875 11.25,-0.546875 Z M12.90625,0.953125 Q14.140625,0.953125 15.140625,1.578125 Q16.15625,2.203125 16.765625,3.234375 Q17.375,4.265625 17.375,5.5 Q17.375,7.828125 16,10.15625 Q14.640625,12.484375 11.921875,14.328125 Q11.40625,14.296875 10.625,14.171875 Q9.859375,14.046875 9.140625,13.78125 Q8.421875,13.53125 7.921875,13.15625 Q7.4375,12.796875 7.4375,12.3125 Q7.4375,11.859375 7.890625,11.1875 L9.078125,9.40625 Q10.390625,7.4375 10.390625,6.671875 Q10.390625,5.921875 8.375,4.890625 L6.84375,4.109375 Q7.265625,3.859375 7.6875,3.59375 Q8.109375,3.34375 8.546875,3.03125 Q9.03125,2.6875 9.40625,2.421875 Q9.796875,2.15625 10.109375,1.9375 Q10.890625,1.4375 11.515625,1.1875 Q12.140625,0.953125 12.90625,0.953125 Z" transform="translate(2.359375, 18.078125) scale(1, -1)"/>
</svg>