<svg height="24" viewBox="0 0 24 24" width="24" xmlns="http://www.w3.org/2000/svg">
<path d="M2.328125,0 L2.328125,11.59375 L0,11.59375 L0,12.859375 L2.328125,12.859375 L2.328125,14.015625 Q2.328125,16.375 3.53125,17.421875 Q4.734375,18.484375 7.265625,18.484375 Q8.453125,18.484375 9.359375,18.21875 L9.359375,16.9375 Q8.859375,17.0625 8.34375,17.125 Q7.828125,17.203125 7.265625,17.203125 Q7.078125,17.203125 6.875,17.203125 Q6.671875,17.203125 6.484375,17.1875 L6.484375,12.859375 L9.359375,12.859375 L9.359375,11.59375 L6.484375,11.59375 L6.484375,0 Z M3.59375,1.265625 L5.203125,1.265625 L5.203125,16.9375 Q4.203125,16.609375 3.890625,15.765625 Q3.59375,14.921875 3.59375,13.796875 Z" transform="translate(7.3203125, 18.484375) scale(1, -1)"/>
</svg>