<svg height="17.953125" viewBox="0 0 24 17.953125" width="24" xmlns="http://www.w3.org/2000/svg">
<path d="M4.75,-0.546875 Q4.75,-0.40625 4.65625,-0.25 Q4.578125,-0.09375 4.171875,0.140625 L2.875,0.9375 Q2.203125,1.375 1.875,1.375 L1.875,1.890625 Q2.28125,2.0625 2.390625,2.5 Q2.515625,2.953125 2.515625,3.765625 L2.515625,14.109375 Q2.515625,15.03125 1.796875,15.03125 Q1.34375,15.03125 0.984375,14.828125 L0.71875,15.234375 Q2.5625,16.6875 2.65625,17.40625 L3.125,17.40625 Q3.140625,17.140625 3.53125,16.9375 Q3.9375,16.75 4.15625,16.484375 Q4.390625,16.21875 4.390625,15.8125 L4.390625,3 Q4.390625,2.90625 4.421875,2.796875 Q4.46875,2.6875 4.5625,2.609375 L6.28125,1.265625 Q6.53125,1.078125 6.71875,1.078125 Q7.125,1.078125 10.390625,3.234375 L10.390625,13.796875 Q10.390625,14.46875 10.140625,14.796875 Q9.90625,15.140625 9.28125,15.234375 L9.28125,15.796875 Q10.734375,16.015625 11.109375,17.40625 L11.5625,17.40625 Q11.953125,16.015625 13.421875,15.796875 L13.421875,15.234375 Q12.796875,15.140625 12.53125,14.796875 Q12.28125,14.46875 12.28125,13.796875 L12.28125,2.921875 Q12.28125,1.75 12.9375,1.75 Q13.375,1.75 14.015625,2.328125 L14.359375,1.9375 Q13.734375,1.46875 13.109375,0.84375 Q12.5,0.21875 11.90625,-0.546875 L11.40625,-0.546875 Q11.40625,-0.4375 11.359375,-0.28125 Q11.328125,-0.125 11.109375,0.03125 Q10.734375,0.28125 10.5625,0.671875 Q10.390625,1.078125 10.390625,1.609375 L10.390625,2.609375 Q9.5,1.984375 8.3125,1.28125 Q7.125,0.578125 5.609375,-0.234375 Q5.25,-0.453125 5.25,-0.546875 Z" transform="translate(4.4609375, 17.40625) scale(1, -1)"/>
</svg>