<svg height="18.046875" viewBox="0 0 24 18.046875" width="24" xmlns="http://www.w3.org/2000/svg">
<path d="M5.15625,-0.546875 Q5.15625,-0.34375 4.546875,0.015625 Q3.9375,0.390625 2.953125,0.765625 Q1.984375,1.15625 0.859375,1.4375 L0.859375,2.15625 Q1.265625,2.296875 1.34375,2.734375 Q1.421875,3.171875 1.421875,3.75 L1.421875,7.625 Q1.421875,8.234375 1.390625,8.71875 Q1.375,9.21875 1.296875,9.59375 Q2.015625,10.03125 2.765625,10.453125 Q3.53125,10.890625 4.265625,11.328125 Q2.140625,12.5 1.421875,13.296875 Q0.71875,14.0625 0.71875,14.875 Q0.71875,16.015625 1.875,16.75 Q3.03125,17.5 4.984375,17.5 L4.984375,16.78125 L4.890625,16.78125 Q4.171875,16.78125 3.78125,16.46875 Q3.390625,16.171875 3.390625,15.75 Q3.390625,15.09375 4.109375,14.546875 Q4.46875,14.28125 5.21875,13.8125 Q5.96875,13.34375 7.078125,12.671875 Q8.5625,11.78125 9.390625,10.96875 Q10.21875,10.171875 10.546875,9.359375 Q10.875,8.5625 10.875,7.65625 Q10.875,6.40625 10.25,5.125 Q9.640625,3.859375 8.8125,2.78125 Q8.375,2.234375 7.65625,1.40625 Q6.9375,0.578125 5.875,-0.546875 Z M6.453125,1.734375 Q7.015625,1.734375 7.65625,3.1875 Q8.296875,4.6875 8.296875,6.5 Q8.296875,7.53125 8.015625,8.21875 Q7.75,8.921875 7.078125,9.5 Q6.40625,10.078125 5.234375,10.75 L4.421875,10.296875 Q4.21875,10.171875 4.21875,10.03125 L4.21875,2.953125 Q5.359375,2.40625 5.828125,2.0625 Q6.3125,1.734375 6.453125,1.734375 Z" transform="translate(6.203125, 17.5) scale(1, -1)"/>
</svg>