<svg height="24" viewBox="0 0 24 24" width="24" xmlns="http://www.w3.org/2000/svg">
<path d="M9.140625,14.734375 Q8.40625,14.734375 7.890625,15.0625 Q7.375,15.390625 7.375,16.171875 Q7.375,17.1875 7.9375,17.703125 Q8.5,18.234375 9.5,18.234375 Q10.203125,18.234375 10.71875,17.921875 Q11.25,17.609375 11.25,16.828125 Q11.25,15.890625 10.734375,15.3125 Q10.21875,14.734375 9.140625,14.734375 Z M2.515625,-5.765625 Q1.296875,-5.765625 0.484375,-5.46875 L0.484375,-2.640625 Q1.203125,-2.875 1.828125,-2.875 Q2.546875,-2.875 3.078125,-2.390625 Q3.625,-1.921875 3.84375,-0.890625 L6.8125,13.109375 L10.34375,13.109375 L7.25,-1.421875 Q7.015625,-2.609375 6.453125,-3.59375 Q5.90625,-4.578125 4.953125,-5.171875 Q4.015625,-5.765625 2.515625,-5.765625 Z" transform="translate(6.1328125, 18.234375) scale(1, -1)"/>
</svg>