<svg height="24" viewBox="0 0 24 24" width="24" xmlns="http://www.w3.org/2000/svg">
<path d="M0.625,0 L4.25,17.140625 L8.96875,17.140625 L9.75,4.3125 L9.84375,4.3125 L16.265625,17.140625 L21.234375,17.140625 L17.609375,0 L14.328125,0 L16.03125,8.109375 Q16.203125,8.921875 16.421875,9.84375 Q16.65625,10.78125 16.875,11.671875 Q17.109375,12.578125 17.296875,13.265625 L17.203125,13.265625 L10.53125,0 L7.25,0 L6.53125,13.265625 L6.4375,13.265625 Q6.390625,12.765625 6.234375,11.890625 Q6.09375,11.015625 5.90625,9.984375 Q5.734375,8.953125 5.515625,7.96875 L3.84375,0 Z" transform="translate(1.0703125, 17.140625) scale(1, -1)"/>
</svg>