<svg height="24" viewBox="0 0 24 24" width="24" xmlns="http://www.w3.org/2000/svg">
<path d="M1.890625,0 L1.375,12.859375 L3.4375,12.859375 L3.625,6 Q3.671875,4.6875 3.625,3.609375 Q3.578125,2.546875 3.53125,1.84375 L3.625,1.84375 Q3.8125,2.359375 4.078125,3.03125 Q4.34375,3.71875 4.640625,4.40625 Q4.9375,5.09375 5.1875,5.59375 L8.5625,12.859375 L10.84375,12.859375 L11.25,5.96875 Q11.296875,5.09375 11.3125,3.921875 Q11.328125,2.765625 11.28125,1.84375 L11.375,1.84375 Q11.6875,2.765625 12.15625,4 Q12.640625,5.234375 13.21875,6.546875 L16.03125,12.859375 L18.265625,12.859375 L12.3125,0 L9.765625,0 L9.40625,6.953125 Q9.359375,7.921875 9.359375,8.8125 Q9.359375,9.703125 9.390625,10.828125 L9.28125,10.828125 Q8.96875,9.9375 8.640625,9.171875 Q8.328125,8.421875 7.75,7.203125 L4.390625,0 Z" transform="translate(2.1796875, 12.859375) scale(1, -1)"/>
</svg>