<svg height="24" viewBox="0 0 24 24" width="24" xmlns="http://www.w3.org/2000/svg">
<path d="M0.625,0 L0.625,1.25 L2.640625,1.703125 L2.640625,15.4375 L0.625,15.890625 L0.625,17.140625 L5.5,17.140625 L11.734375,2.859375 L11.8125,2.859375 Q11.6875,4.265625 11.640625,5.421875 Q11.59375,6.59375 11.59375,8.0625 L11.59375,15.4375 L9.578125,15.890625 L9.578125,17.140625 L15.703125,17.140625 L15.703125,15.890625 L13.6875,15.4375 L13.6875,0 L11.0625,0 L4.515625,14.921875 L4.421875,14.921875 Q4.53125,13.578125 4.625,12.234375 Q4.734375,10.890625 4.734375,9.546875 L4.734375,1.703125 L6.75,1.25 L6.75,0 Z" transform="translate(3.8359375, 17.140625) scale(1, -1)"/>
</svg>