<svg height="18.875" viewBox="0 0 24 18.875" width="24" xmlns="http://www.w3.org/2000/svg">
<path d="M0.859375,-5.765625 L0.859375,-4.515625 L2.875,-4.0625 L2.875,11.15625 L0.859375,11.609375 L0.859375,12.859375 L4.65625,12.859375 L4.921875,11.109375 L5.015625,11.109375 Q5.5625,12.046875 6.484375,12.578125 Q7.421875,13.109375 8.859375,13.109375 Q11.203125,13.109375 12.625,11.421875 Q14.046875,9.75 14.046875,6.453125 Q14.046875,3.171875 12.625,1.46875 Q11.203125,-0.234375 8.859375,-0.234375 Q7.4375,-0.234375 6.5,0.328125 Q5.5625,0.90625 5.015625,1.65625 L4.875,1.65625 Q5.015625,0.71875 5.015625,-0.265625 L5.015625,-4.0625 L7.03125,-4.515625 L7.03125,-5.765625 Z M8.40625,1.515625 Q10.203125,1.515625 11.015625,2.75 Q11.828125,3.984375 11.828125,6.5 Q11.828125,8.96875 11.015625,10.15625 Q10.21875,11.359375 8.375,11.359375 Q6.625,11.359375 5.8125,10.21875 Q5.015625,9.078125 5.015625,6.9375 L5.015625,6.453125 Q5.015625,4.171875 5.75,2.84375 Q6.484375,1.515625 8.40625,1.515625 Z" transform="translate(4.546875, 13.109375) scale(1, -1)"/>
</svg>