<svg height="24" viewBox="0 0 24 24" width="24" xmlns="http://www.w3.org/2000/svg">
<path d="M0.140625,0 L0.140625,1.25 L2.15625,1.703125 L2.15625,15.4375 L0.140625,15.890625 L0.140625,17.140625 L5.25,17.140625 L8.109375,7.078125 L8.1875,7.078125 L11.046875,17.140625 L16.171875,17.140625 L16.171875,15.890625 L14.15625,15.4375 L14.15625,1.703125 L16.171875,1.25 L16.171875,0 L10.109375,0 L10.109375,1.25 L12.125,1.703125 L12.125,9.28125 Q12.125,10.703125 12.171875,12.203125 Q12.234375,13.703125 12.40625,14.96875 L12.3125,14.96875 L9.140625,4.265625 L7.15625,4.265625 L3.953125,15 L3.859375,15 Q3.984375,14.296875 4.046875,13.296875 Q4.125,12.3125 4.15625,11.25 Q4.203125,10.203125 4.203125,9.28125 L4.203125,1.703125 L6.21875,1.25 L6.21875,0 Z" transform="translate(3.84375, 17.140625) scale(1, -1)"/>
</svg>