<svg height="18.875" viewBox="0 0 24 18.875" width="24" xmlns="http://www.w3.org/2000/svg">
<path d="M4.46875,-5.765625 Q3.28125,-5.765625 2.28125,-5.53125 Q1.296875,-5.296875 0.59375,-4.9375 L0.59375,-3 Q1.21875,-3.390625 2.28125,-3.703125 Q3.359375,-4.015625 4.390625,-4.015625 Q5.875,-4.015625 6.828125,-3.28125 Q7.796875,-2.5625 8.1875,-0.890625 L8.40625,0.03125 Q8.59375,0.765625 8.734375,1.34375 Q8.875,1.921875 9,2.375 L8.90625,2.375 Q8.09375,1.3125 7.046875,0.53125 Q6,-0.234375 4.65625,-0.234375 Q3.09375,-0.234375 2.125,0.875 Q1.15625,1.984375 1.15625,4.15625 Q1.15625,5.90625 1.578125,7.515625 Q2.015625,9.125 2.84375,10.375 Q3.671875,11.640625 4.828125,12.375 Q6,13.109375 7.46875,13.109375 Q8.765625,13.109375 9.546875,12.4375 Q10.34375,11.765625 10.734375,10.875 L10.828125,10.875 L11.609375,12.859375 L13.21875,12.859375 L10.296875,-0.75 Q9.71875,-3.453125 8.234375,-4.609375 Q6.765625,-5.765625 4.46875,-5.765625 Z M5.359375,1.515625 Q6.171875,1.515625 6.984375,2.109375 Q7.796875,2.71875 8.484375,3.734375 Q9.171875,4.75 9.578125,6.046875 Q9.984375,7.34375 9.984375,8.734375 Q9.984375,9.890625 9.4375,10.609375 Q8.90625,11.328125 7.625,11.328125 Q6.671875,11.328125 5.875,10.71875 Q5.09375,10.109375 4.515625,9.078125 Q3.9375,8.046875 3.625,6.75 Q3.3125,5.453125 3.3125,4.109375 Q3.3125,1.515625 5.359375,1.515625 Z" transform="translate(5.09375, 13.109375) scale(1, -1)"/>
</svg>