<svg height="17.3125" viewBox="0 0 24 17.3125" width="24" xmlns="http://www.w3.org/2000/svg">
<path d="M12.8125,-0.171875 Q11.65625,-0.171875 11.046875,0.359375 Q10.4375,0.90625 10.1875,1.84375 Q9.953125,2.78125 9.90625,3.953125 Q9.890625,5.453125 9.265625,6.234375 Q8.640625,7.015625 7.015625,7.015625 L5.140625,7.015625 L5.140625,1.703125 L7.15625,1.25 L7.15625,0 L0.953125,0 L0.953125,1.25 L2.96875,1.703125 L2.96875,15.4375 L0.953125,15.890625 L0.953125,17.140625 L6.984375,17.140625 Q13.015625,17.140625 13.015625,12.34375 Q13.015625,10.5625 12.234375,9.484375 Q11.453125,8.40625 10.390625,7.84375 Q11.09375,7.265625 11.5,6.3125 Q11.90625,5.375 11.96875,4.03125 Q12.03125,2.90625 12.15625,2.328125 Q12.28125,1.75 12.8125,1.75 Q13.25,1.75 13.46875,2.25 Q13.703125,2.765625 13.703125,3.453125 L15.359375,3.453125 Q15.359375,2.5625 15.109375,1.734375 Q14.859375,0.90625 14.296875,0.359375 Q13.734375,-0.171875 12.8125,-0.171875 Z M5.140625,8.875 L6.90625,8.875 Q9.03125,8.875 9.90625,9.703125 Q10.78125,10.53125 10.78125,12.140625 Q10.78125,13.84375 9.84375,14.546875 Q8.921875,15.265625 6.859375,15.265625 L5.140625,15.265625 Z" transform="translate(3.84375, 17.140625) scale(1, -1)"/>
</svg>