<svg height="18.84375" viewBox="0 0 24 18.84375" width="24" xmlns="http://www.w3.org/2000/svg">
<path d="M0.484375,-5.765625 L4.421875,12.859375 L6.140625,12.859375 L5.859375,10.46875 L5.953125,10.46875 Q6.796875,11.515625 7.84375,12.296875 Q8.90625,13.078125 10.25,13.078125 Q11.8125,13.078125 12.765625,11.96875 Q13.734375,10.875 13.734375,8.6875 Q13.734375,6.9375 13.296875,5.328125 Q12.859375,3.71875 12.046875,2.453125 Q11.234375,1.203125 10.0625,0.484375 Q8.90625,-0.234375 7.46875,-0.234375 Q6.171875,-0.234375 5.375,0.421875 Q4.578125,1.078125 4.171875,1.96875 L4.0625,1.96875 Q4.03125,1.578125 3.9375,0.890625 Q3.84375,0.21875 3.75,-0.21875 L2.5625,-5.765625 Z M7.296875,1.515625 Q8.25,1.515625 9.046875,2.125 Q9.84375,2.734375 10.40625,3.765625 Q10.96875,4.796875 11.265625,6.09375 Q11.5625,7.390625 11.5625,8.734375 Q11.5625,11.328125 9.53125,11.328125 Q8.734375,11.328125 7.90625,10.734375 Q7.078125,10.15625 6.375,9.140625 Q5.6875,8.140625 5.265625,6.84375 Q4.84375,5.546875 4.84375,4.109375 Q4.84375,2.953125 5.4375,2.234375 Q6.046875,1.515625 7.296875,1.515625 Z" transform="translate(4.890625, 13.078125) scale(1, -1)"/>
</svg>