<svg height="24" viewBox="0 0 24 24" width="24" xmlns="http://www.w3.org/2000/svg">
<path d="M3.40625,0 L1.609375,11.15625 L0.140625,11.609375 L0.140625,12.859375 L5.1875,12.859375 L5.1875,11.609375 L3.59375,11.15625 L4.296875,6.5 Q4.4375,5.609375 4.5,4.90625 Q4.5625,4.21875 4.625,3.5 Q4.6875,2.78125 4.734375,1.796875 L4.796875,1.796875 Q4.875,2.203125 5,2.9375 Q5.140625,3.671875 5.3125,4.515625 Q5.5,5.375 5.71875,6.09375 L6.953125,10.4375 L9.34375,10.4375 L10.53125,6.09375 Q10.75,5.375 10.9375,4.546875 Q11.140625,3.71875 11.296875,2.984375 Q11.453125,2.25 11.5,1.796875 L11.5625,1.796875 Q11.640625,2.765625 11.6875,3.46875 Q11.734375,4.171875 11.796875,4.859375 Q11.875,5.5625 12.03125,6.5 L12.765625,11.15625 L11.203125,11.609375 L11.203125,12.859375 L16.203125,12.859375 L16.203125,11.609375 L14.71875,11.15625 L12.890625,0 L10.296875,0 L9.140625,4.515625 Q8.90625,5.5 8.640625,6.484375 Q8.375,7.46875 8.1875,8.421875 L8.109375,8.421875 Q7.921875,7.46875 7.640625,6.484375 Q7.375,5.5 7.109375,4.515625 L5.921875,0 Z" transform="translate(3.828125, 12.859375) scale(1, -1)"/>
</svg>