<svg height="16.03125" viewBox="0 0 24 16.03125" width="24" xmlns="http://www.w3.org/2000/svg">
<path d="M4.4375,-0.234375 Q3.140625,-0.234375 2.25,0.390625 Q1.375,1.015625 1.375,2.5625 Q1.375,2.921875 1.421875,3.359375 Q1.484375,3.8125 1.578125,4.265625 L3.046875,11.25 L1.0625,11.25 L1.25,12.21875 L3.40625,13.125 L4.890625,15.796875 L6.140625,15.796875 L5.5,12.859375 L8.734375,12.859375 L8.40625,11.25 L5.1875,11.25 L3.703125,4.25 Q3.625,3.9375 3.546875,3.53125 Q3.484375,3.140625 3.484375,2.8125 Q3.484375,2.25 3.78125,1.859375 Q4.078125,1.484375 4.75,1.484375 Q5.1875,1.484375 5.59375,1.5625 Q6,1.65625 6.453125,1.796875 L6.453125,0.1875 Q6.171875,0.046875 5.5625,-0.09375 Q4.96875,-0.234375 4.4375,-0.234375 Z" transform="translate(7.1015625, 15.796875) scale(1, -1)"/>
</svg>