<svg height="18.875" viewBox="0 0 24 18.875" width="24" xmlns="http://www.w3.org/2000/svg">
<path d="M2.640625,-5.765625 Q2.046875,-5.765625 1.59375,-5.703125 Q1.15625,-5.640625 0.8125,-5.5625 L0.8125,-2.734375 Q1.078125,-2.78125 1.453125,-2.828125 Q1.828125,-2.875 2.234375,-2.875 Q3.359375,-2.875 4.015625,-2.1875 Q4.6875,-1.515625 4.984375,-0.546875 L5.203125,0.09375 L0,13.109375 L3.90625,13.109375 L6.390625,5.734375 Q6.578125,5.203125 6.671875,4.640625 Q6.765625,4.078125 6.8125,3.453125 L6.890625,3.453125 Q6.953125,4.078125 7.078125,4.640625 Q7.21875,5.203125 7.390625,5.734375 L9.8125,13.109375 L13.65625,13.109375 L8.109375,-1.6875 Q7.375,-3.71875 5.9375,-4.734375 Q4.515625,-5.765625 2.640625,-5.765625 Z" transform="translate(5.171875, 13.109375) scale(1, -1)"/>
</svg>