<svg height="24" viewBox="0 0 24 24" width="24" xmlns="http://www.w3.org/2000/svg">
<path d="M3.953125,0 L0.234375,13.109375 L3.796875,13.109375 L5.296875,7.296875 Q5.46875,6.703125 5.59375,5.859375 Q5.734375,5.015625 5.84375,4.234375 Q5.96875,3.453125 6.03125,3 L6.125,3 Q6.140625,3.34375 6.203125,3.90625 Q6.28125,4.46875 6.390625,5.0625 Q6.5,5.65625 6.578125,6.140625 Q6.671875,6.640625 6.71875,6.8125 L8.328125,13.109375 L12.265625,13.109375 L13.796875,6.8125 Q13.890625,6.484375 14.015625,5.734375 Q14.15625,4.984375 14.265625,4.21875 Q14.375,3.453125 14.375,3 L14.46875,3 Q14.515625,3.40625 14.640625,4.1875 Q14.765625,4.96875 14.921875,5.828125 Q15.078125,6.703125 15.234375,7.296875 L16.796875,13.109375 L20.296875,13.109375 L16.53125,0 L12.640625,0 L11.640625,4.578125 Q11.546875,4.984375 11.359375,5.78125 Q11.1875,6.59375 10.96875,7.515625 Q10.75,8.453125 10.5625,9.234375 Q10.375,10.015625 10.296875,10.375 L10.203125,10.375 L8.859375,4.53125 L7.796875,0 Z" transform="translate(1.734375, 13.109375) scale(1, -1)"/>
</svg>