<svg height="13.34375" viewBox="0 0 24 13.34375" width="24" xmlns="http://www.w3.org/2000/svg">
<path d="M3.71875,-0.234375 Q2.546875,-0.234375 1.671875,0 Q0.796875,0.21875 0.125,0.578125 L0.125,2.515625 Q0.75,2.140625 1.6875,1.8125 Q2.640625,1.484375 3.640625,1.484375 Q5.0625,1.484375 5.796875,2.046875 Q6.546875,2.609375 6.546875,3.5 Q6.546875,4.203125 6.09375,4.671875 Q5.640625,5.140625 4.390625,5.828125 Q3.03125,6.59375 2.328125,7.40625 Q1.625,8.234375 1.625,9.453125 Q1.625,11.09375 2.8125,12.09375 Q4.015625,13.109375 6,13.109375 Q7.171875,13.109375 8.171875,12.828125 Q9.171875,12.546875 9.890625,12.21875 L9.21875,10.53125 Q8.59375,10.828125 7.828125,11.078125 Q7.0625,11.328125 6,11.328125 Q4.96875,11.328125 4.359375,10.828125 Q3.75,10.34375 3.75,9.578125 Q3.75,8.953125 4.15625,8.484375 Q4.578125,8.015625 5.859375,7.3125 Q7.109375,6.640625 7.90625,5.84375 Q8.71875,5.0625 8.71875,3.71875 Q8.71875,1.78125 7.359375,0.765625 Q6,-0.234375 3.71875,-0.234375 Z" transform="translate(6.9921875, 13.109375) scale(1, -1)"/>
</svg>