<svg height="17.375" viewBox="0 0 24 17.375" width="24" xmlns="http://www.w3.org/2000/svg">
<path d="M6.765625,-0.234375 Q5.421875,-0.234375 4.453125,0.171875 Q3.5,0.59375 2.890625,1.265625 Q2.296875,1.9375 2.015625,2.71875 Q1.734375,3.5 1.734375,4.21875 Q1.734375,5.109375 2.09375,5.71875 Q2.453125,6.34375 3.234375,6.34375 Q3.859375,6.34375 4.3125,5.96875 Q4.78125,5.59375 4.78125,4.78125 Q4.78125,4.171875 4.484375,3.78125 Q4.203125,3.40625 3.765625,3.28125 Q4.03125,2.59375 4.703125,2.171875 Q5.375,1.75 6.59375,1.75 Q8.015625,1.75 8.984375,2.59375 Q9.953125,3.453125 9.953125,5.5 L9.953125,15.4375 L6.5,15.890625 L6.5,17.140625 L14.140625,17.140625 L14.140625,15.890625 L12.125,15.4375 L12.125,5.203125 Q12.125,2.59375 10.703125,1.171875 Q9.28125,-0.234375 6.765625,-0.234375 Z" transform="translate(4.0625, 17.140625) scale(1, -1)"/>
</svg>