<svg height="24" viewBox="0 0 24 24" width="24" xmlns="http://www.w3.org/2000/svg">
<path d="M0.984375,0 L0.984375,1.25 L2.875,1.796875 L7.15625,8.859375 L3.234375,15.34375 L1.34375,15.890625 L1.34375,17.140625 L6.5,17.140625 L6.5,15.890625 L5.453125,15.4375 L8.15625,10.578125 L10.921875,15.4375 L9.859375,15.890625 L9.859375,17.140625 L14.96875,17.140625 L14.96875,15.890625 L13.078125,15.34375 L9.1875,8.828125 L13.4375,1.796875 L15.34375,1.25 L15.34375,0 L10.265625,0 L10.265625,1.25 L11.296875,1.703125 L8.1875,7.109375 L5.09375,1.703125 L6.125,1.25 L6.125,0 Z" transform="translate(3.8359375, 17.140625) scale(1, -1)"/>
</svg>