<svg height="24" viewBox="0 0 24 24" width="24" xmlns="http://www.w3.org/2000/svg">
<path d="M0.984375,0 L0.984375,1.25 L3,1.703125 L3,15.4375 L0.984375,15.890625 L0.984375,17.140625 L7.84375,17.140625 Q10.484375,17.140625 12.015625,16.1875 Q13.5625,15.234375 13.5625,12.9375 Q13.5625,11.25 12.734375,10.296875 Q11.921875,9.34375 10.484375,9.09375 L10.484375,8.96875 Q11.46875,8.8125 12.265625,8.375 Q13.078125,7.9375 13.5625,7.125 Q14.046875,6.3125 14.046875,4.96875 Q14.046875,2.640625 12.578125,1.3125 Q11.109375,0 8.5625,0 Z M5.046875,9.890625 L8.046875,9.890625 Q9.84375,9.890625 10.609375,10.5625 Q11.375,11.25 11.375,12.640625 Q11.375,14.0625 10.546875,14.65625 Q9.71875,15.265625 7.6875,15.265625 L5.046875,15.265625 Z M5.046875,1.875 L8.1875,1.875 Q10.25,1.875 11.03125,2.734375 Q11.828125,3.59375 11.828125,4.96875 Q11.828125,6.359375 11,7.1875 Q10.171875,8.015625 8.046875,8.015625 L5.046875,8.015625 Z" transform="translate(4.484375, 17.140625) scale(1, -1)"/>
</svg>