<svg height="24" viewBox="0 0 24 24" width="24" xmlns="http://www.w3.org/2000/svg">
<path d="M8.328125,15.1875 Q7.703125,15.1875 7.25,15.5625 Q6.8125,15.953125 6.8125,16.703125 Q6.8125,17.5 7.25,17.859375 Q7.703125,18.234375 8.328125,18.234375 Q8.953125,18.234375 9.390625,17.859375 Q9.84375,17.5 9.84375,16.703125 Q9.84375,15.953125 9.390625,15.5625 Q8.953125,15.1875 8.328125,15.1875 Z M2.875,0 L2.875,1.203125 L7.46875,1.703125 L7.46875,11.15625 L3.265625,11.609375 L3.265625,12.859375 L9.625,12.859375 L9.625,1.703125 L13.921875,1.203125 L13.921875,0 Z" transform="translate(3.6015625, 18.234375) scale(1, -1)"/>
</svg>