<svg height="24" viewBox="0 0 24 24" width="24" xmlns="http://www.w3.org/2000/svg">
<path d="M0.625,0 L0.625,1.25 L2.640625,1.703125 L2.640625,15.4375 L0.625,15.890625 L0.625,17.140625 L6.8125,17.140625 L6.8125,15.890625 L4.796875,15.4375 L4.796875,7.921875 Q5.203125,8.5625 5.640625,9.234375 Q6.078125,9.90625 6.578125,10.578125 L10.203125,15.4375 L8.640625,15.890625 L8.640625,17.140625 L14.765625,17.140625 L14.765625,15.8125 L12.625,15.34375 L8.203125,9.390625 L13.03125,1.796875 L14.96875,1.3125 L14.96875,0 L9.078125,0 L9.078125,1.25 L10.625,1.703125 L6.75,7.921875 L4.796875,5.6875 L4.796875,1.703125 L6.8125,1.25 L6.8125,0 Z" transform="translate(4.203125, 17.140625) scale(1, -1)"/>
</svg>