<svg height="24" viewBox="0 0 24 24" width="24" xmlns="http://www.w3.org/2000/svg">
<path d="M0.859375,0 L0.859375,1.25 L2.875,1.703125 L2.875,16.53125 L0.859375,16.984375 L0.859375,18.234375 L5.046875,18.234375 L5.046875,13.0625 Q5.046875,12.59375 5,11.890625 Q4.96875,11.203125 4.9375,10.796875 L5.0625,10.796875 Q5.6875,12 6.734375,12.546875 Q7.78125,13.109375 9.09375,13.109375 Q11.09375,13.109375 12.328125,11.984375 Q13.5625,10.875 13.5625,8.40625 L13.5625,1.703125 L15.578125,1.25 L15.578125,0 L9.390625,0 L9.390625,1.25 L11.40625,1.703125 L11.40625,7.96875 Q11.40625,9.71875 10.65625,10.53125 Q9.90625,11.359375 8.546875,11.359375 Q6.9375,11.359375 5.984375,10.109375 Q5.046875,8.875 5.046875,6.671875 L5.046875,1.703125 L7.0625,1.25 L7.0625,0 Z" transform="translate(3.78125, 18.234375) scale(1, -1)"/>
</svg>