<svg height="17.640625" viewBox="0 0 24 17.640625" width="24" xmlns="http://www.w3.org/2000/svg">
<path d="M7.796875,-0.234375 Q4.6875,-0.234375 3.0625,1.546875 Q1.4375,3.34375 1.4375,6.28125 Q1.4375,8.296875 1.96875,10.265625 Q2.515625,12.234375 3.625,13.84375 Q4.75,15.453125 6.46875,16.421875 Q8.1875,17.40625 10.515625,17.40625 Q13.625,17.40625 15.203125,15.640625 Q16.78125,13.890625 16.78125,10.984375 Q16.78125,8.90625 16.25,6.890625 Q15.71875,4.890625 14.625,3.265625 Q13.53125,1.65625 11.84375,0.703125 Q10.15625,-0.234375 7.796875,-0.234375 Z M8.0625,2.8125 Q9.453125,2.8125 10.609375,3.796875 Q11.765625,4.796875 12.4375,6.625 Q13.125,8.453125 13.125,10.890625 Q13.125,12.484375 12.390625,13.421875 Q11.65625,14.375 10.21875,14.375 Q9.125,14.375 8.171875,13.734375 Q7.21875,13.109375 6.53125,11.96875 Q5.859375,10.84375 5.46875,9.390625 Q5.09375,7.9375 5.09375,6.28125 Q5.09375,4.578125 5.875,3.6875 Q6.671875,2.8125 8.0625,2.8125 Z" transform="translate(2.890625, 17.40625) scale(1, -1)"/>
</svg>