<svg height="24" viewBox="0 0 24 24" width="24" xmlns="http://www.w3.org/2000/svg">
<path d="M3.484375,0 L1.75,15.390625 L0.140625,15.890625 L0.140625,17.140625 L5.5625,17.140625 L5.5625,15.890625 L3.71875,15.4375 L4.265625,9.578125 Q4.375,8.65625 4.453125,7.578125 Q4.53125,6.5 4.609375,5.46875 Q4.6875,4.4375 4.734375,3.609375 Q4.78125,2.78125 4.78125,2.359375 L4.828125,2.359375 Q4.921875,2.90625 5.09375,3.78125 Q5.28125,4.65625 5.484375,5.59375 Q5.6875,6.546875 5.859375,7.296875 L7.15625,12.859375 L9.21875,12.859375 L10.5625,7.25 Q10.78125,6.4375 10.984375,5.5 Q11.1875,4.5625 11.359375,3.734375 Q11.546875,2.90625 11.609375,2.359375 L11.65625,2.359375 Q11.6875,2.921875 11.75,4.046875 Q11.8125,5.1875 11.90625,6.640625 Q12,8.109375 12.125,9.640625 L12.625,15.4375 L10.75,15.890625 L10.75,17.140625 L16.171875,17.140625 L16.171875,15.890625 L14.59375,15.390625 L13.03125,0 L10.703125,0 L8.8125,7.875 Q8.5625,8.953125 8.40625,9.734375 Q8.25,10.515625 8.203125,10.796875 L8.15625,10.796875 Q8.140625,10.515625 8,9.734375 Q7.875,8.96875 7.609375,7.875 L5.78125,0 Z" transform="translate(3.84375, 17.140625) scale(1, -1)"/>
</svg>