<svg height="17.703125" viewBox="0 0 24 17.703125" width="24" xmlns="http://www.w3.org/2000/svg">
<path d="M2.59375,-0.234375 L2.59375,4.703125 L4.078125,4.703125 Q4.53125,3.03125 5.578125,2.375 Q6.640625,1.734375 7.78125,1.734375 Q8.640625,1.734375 9.375,2.046875 Q10.125,2.375 10.59375,3.015625 Q11.0625,3.671875 11.0625,4.609375 Q11.0625,5.421875 10.71875,5.90625 Q10.390625,6.390625 9.53125,6.828125 Q8.6875,7.265625 7.15625,7.9375 Q6.140625,8.40625 5.171875,8.953125 Q4.21875,9.5 3.609375,10.40625 Q3,11.328125 3,12.8125 Q3,14.1875 3.6875,15.21875 Q4.390625,16.265625 5.515625,16.859375 Q6.640625,17.46875 7.921875,17.46875 Q8.875,17.46875 9.828125,17.09375 Q10.78125,16.734375 11.609375,15.9375 L11.8125,17.421875 L13.03125,17.421875 L13.03125,12.484375 L11.546875,12.484375 L11.546875,12.5 Q11.15625,14.140625 10.1875,14.84375 Q9.234375,15.546875 8.1875,15.546875 Q7.421875,15.546875 6.734375,15.203125 Q6.046875,14.859375 5.625,14.234375 Q5.203125,13.609375 5.203125,12.765625 Q5.203125,11.921875 5.546875,11.390625 Q5.90625,10.875 6.671875,10.46875 Q7.4375,10.078125 8.640625,9.546875 Q10.015625,8.96875 11.046875,8.375 Q12.09375,7.796875 12.671875,6.9375 Q13.265625,6.078125 13.265625,4.578125 Q13.265625,2.859375 12.5,1.796875 Q11.734375,0.75 10.53125,0.25 Q9.34375,-0.234375 8.0625,-0.234375 Q6.8125,-0.234375 5.765625,0.1875 Q4.734375,0.625 4.03125,1.296875 L3.8125,-0.234375 Z" transform="translate(4.0703125, 17.46875) scale(1, -1)"/>
</svg>