<svg height="13.578125" viewBox="0 0 24 13.578125" width="24" xmlns="http://www.w3.org/2000/svg">
<path d="M4.203125,-0.234375 Q2.953125,-0.234375 2.015625,-0.046875 Q1.078125,0.125 0.265625,0.53125 L0.265625,3.4375 Q1.15625,2.921875 2.09375,2.640625 Q3.03125,2.375 4.015625,2.375 Q4.84375,2.375 5.484375,2.71875 Q6.140625,3.078125 6.140625,3.796875 Q6.140625,4.265625 5.75,4.65625 Q5.375,5.046875 4.171875,5.71875 Q2.953125,6.40625 2.28125,7.15625 Q1.625,7.921875 1.625,9.171875 Q1.625,11.203125 2.953125,12.265625 Q4.296875,13.34375 6.625,13.34375 Q7.75,13.34375 8.796875,13.09375 Q9.859375,12.84375 10.875,12.234375 L9.71875,9.71875 Q9.03125,10.125 8.25,10.40625 Q7.46875,10.703125 6.703125,10.703125 Q6.125,10.703125 5.65625,10.421875 Q5.203125,10.15625 5.203125,9.59375 Q5.203125,9.140625 5.578125,8.796875 Q5.96875,8.453125 6.984375,7.921875 Q8.1875,7.3125 8.953125,6.484375 Q9.71875,5.65625 9.71875,4.3125 Q9.71875,2.0625 8.21875,0.90625 Q6.71875,-0.234375 4.203125,-0.234375 Z" transform="translate(6.4296875, 13.34375) scale(1, -1)"/>
</svg>