<svg height="17.375" viewBox="0 0 24 17.375" width="24" xmlns="http://www.w3.org/2000/svg">
<path d="M8.109375,-0.234375 Q6.140625,-0.234375 4.921875,0.53125 Q3.71875,1.3125 3.171875,2.734375 Q2.640625,4.171875 2.640625,6.09375 L2.640625,15.4375 L0.625,15.890625 L0.625,17.140625 L6.8125,17.140625 L6.8125,15.890625 L4.796875,15.4375 L4.796875,6.21875 Q4.796875,4.875 5.09375,3.84375 Q5.40625,2.8125 6.125,2.25 Q6.859375,1.6875 8.15625,1.6875 Q9.53125,1.6875 10.25,2.28125 Q10.984375,2.875 11.25,3.921875 Q11.515625,4.96875 11.515625,6.234375 L11.515625,15.4375 L9.5,15.890625 L9.5,17.140625 L15.703125,17.140625 L15.703125,15.890625 L13.6875,15.4375 L13.6875,6.046875 Q13.6875,4.265625 13.15625,2.84375 Q12.625,1.421875 11.390625,0.59375 Q10.171875,-0.234375 8.109375,-0.234375 Z" transform="translate(3.8359375, 17.140625) scale(1, -1)"/>
</svg>