<svg height="13.390625" viewBox="0 0 24 13.390625" width="24" xmlns="http://www.w3.org/2000/svg">
<path d="M3.28125,-0.234375 L3.28125,3.984375 L4.78125,3.984375 Q5.140625,2.609375 6.0625,2.015625 Q6.984375,1.4375 7.96875,1.4375 Q9.03125,1.4375 9.859375,2 Q10.6875,2.5625 10.6875,3.453125 Q10.6875,3.953125 10.453125,4.28125 Q10.21875,4.609375 9.5625,4.9375 Q8.921875,5.28125 7.6875,5.8125 Q6.4375,6.359375 5.546875,6.828125 Q4.65625,7.3125 4.171875,7.96875 Q3.703125,8.640625 3.703125,9.671875 Q3.703125,10.6875 4.265625,11.453125 Q4.84375,12.234375 5.78125,12.671875 Q6.71875,13.125 7.796875,13.125 Q8.6875,13.125 9.609375,12.78125 Q10.53125,12.453125 11.1875,11.640625 L11.375,13.125 L12.59375,13.125 L12.59375,8.90625 L11.109375,8.90625 Q10.65625,10.296875 9.8125,10.796875 Q8.96875,11.296875 8.140625,11.296875 Q6.953125,11.296875 6.359375,10.828125 Q5.78125,10.375 5.78125,9.71875 Q5.78125,9.1875 6.078125,8.828125 Q6.390625,8.46875 7.0625,8.125 Q7.75,7.796875 8.875,7.3125 Q10.15625,6.796875 11.03125,6.328125 Q11.921875,5.875 12.375,5.234375 Q12.84375,4.609375 12.84375,3.5 Q12.84375,2.28125 12.203125,1.4375 Q11.5625,0.59375 10.53125,0.15625 Q9.5,-0.265625 8.328125,-0.265625 Q7.390625,-0.265625 6.46875,0.0625 Q5.546875,0.40625 4.703125,1.203125 L4.515625,-0.234375 Z" transform="translate(3.9375, 13.125) scale(1, -1)"/>
</svg>