<svg height="16.125" viewBox="0 0 24 16.125" width="24" xmlns="http://www.w3.org/2000/svg">
<path d="M4.796875,-0.234375 Q3.265625,-0.234375 2.328125,0.421875 Q1.390625,1.078125 1.390625,2.78125 Q1.390625,3.390625 1.53125,4.109375 L2.875,10.421875 L1.109375,10.421875 L1.4375,12.140625 L3.75,13.125 L5.28125,15.890625 L7.5625,15.890625 L6.984375,13.109375 L10.296875,13.109375 L9.71875,10.421875 L6.40625,10.421875 L5.0625,4.109375 Q4.984375,3.75 4.984375,3.484375 Q4.984375,3.03125 5.265625,2.8125 Q5.5625,2.609375 6.03125,2.609375 Q6.5,2.609375 6.9375,2.71875 Q7.390625,2.828125 7.921875,3.03125 L7.921875,0.390625 Q7.375,0.125 6.578125,-0.046875 Q5.78125,-0.234375 4.796875,-0.234375 Z" transform="translate(6.296875, 15.890625) scale(1, -1)"/>
</svg>