<svg height="19.078125" viewBox="0 0 24 19.078125" width="24" xmlns="http://www.w3.org/2000/svg">
<path d="M7.515625,-5.96875 Q6.3125,-5.96875 5.234375,-5.640625 Q4.15625,-5.328125 3.484375,-4.765625 Q2.8125,-4.203125 2.8125,-3.53125 Q2.8125,-2.71875 3.265625,-2.34375 Q3.71875,-1.96875 4.34375,-1.96875 Q4.96875,-1.96875 5.421875,-2.34375 Q5.875,-2.71875 5.875,-3.53125 Q5.875,-3.625 5.875,-3.703125 Q5.875,-3.796875 5.859375,-3.859375 Q6.34375,-4.03125 6.84375,-4.09375 Q7.34375,-4.15625 8.15625,-4.125 Q8.96875,-4.078125 9.71875,-3.71875 Q10.46875,-3.359375 10.9375,-2.53125 Q11.421875,-1.703125 11.421875,-0.34375 L11.421875,0.125 Q11.421875,0.40625 11.4375,0.671875 Q11.453125,0.9375 11.5,1.484375 L11.40625,1.484375 Q10.734375,0.5 9.828125,0.125 Q8.921875,-0.234375 7.65625,-0.234375 Q5.109375,-0.234375 3.6875,1.5 Q2.28125,3.234375 2.28125,6.359375 Q2.28125,9.5 3.6875,11.296875 Q5.09375,13.109375 7.53125,13.109375 Q8.828125,13.109375 9.71875,12.6875 Q10.609375,12.265625 11.296875,11.28125 L11.421875,11.28125 L11.71875,12.859375 L15.453125,12.859375 L15.453125,11.609375 L13.4375,11.15625 L13.4375,-0.34375 Q13.4375,-1.890625 12.921875,-2.96875 Q12.40625,-4.0625 11.546875,-4.71875 Q10.6875,-5.375 9.640625,-5.671875 Q8.59375,-5.96875 7.515625,-5.96875 Z M8.0625,1.515625 Q9.671875,1.515625 10.578125,2.546875 Q11.5,3.59375 11.5,5.90625 L11.5,6.40625 Q11.5,9.046875 10.5625,10.203125 Q9.625,11.359375 7.984375,11.359375 Q6.171875,11.359375 5.328125,10.0625 Q4.484375,8.78125 4.484375,6.4375 Q4.484375,4.03125 5.359375,2.765625 Q6.234375,1.515625 8.0625,1.515625 Z" transform="translate(3.1328125, 13.109375) scale(1, -1)"/>
</svg>