<svg height="13.34375" viewBox="0 0 24 13.34375" width="24" xmlns="http://www.w3.org/2000/svg">
<path d="M8.1875,-0.234375 Q6.5,-0.234375 5.171875,0.484375 Q3.84375,1.21875 3.0625,2.71875 Q2.28125,4.21875 2.28125,6.484375 Q2.28125,8.71875 3.03125,10.171875 Q3.796875,11.640625 5.109375,12.375 Q6.4375,13.109375 8.109375,13.109375 Q9.796875,13.109375 11.140625,12.375 Q12.484375,11.640625 13.265625,10.15625 Q14.046875,8.6875 14.046875,6.40625 Q14.046875,4.171875 13.265625,2.6875 Q12.5,1.21875 11.171875,0.484375 Q9.859375,-0.234375 8.1875,-0.234375 Z M8.15625,1.515625 Q10.03125,1.515625 10.9375,2.84375 Q11.859375,4.171875 11.859375,6.453125 Q11.859375,8.734375 10.9375,10.046875 Q10.015625,11.359375 8.140625,11.359375 Q6.265625,11.359375 5.34375,10.046875 Q4.421875,8.734375 4.421875,6.453125 Q4.421875,4.171875 5.34375,2.84375 Q6.28125,1.515625 8.15625,1.515625 Z" transform="translate(3.8359375, 13.109375) scale(1, -1)"/>
</svg>