<svg height="13.25" viewBox="0 0 24 13.25" width="24" xmlns="http://www.w3.org/2000/svg">
<path d="M0.578125,-0.078125 L3.34375,12.9375 L5.203125,12.9375 L4.9375,10.5625 Q5.40625,11.15625 6.015625,11.75 Q6.640625,12.359375 7.453125,12.765625 Q8.28125,13.171875 9.3125,13.171875 Q10.875,13.171875 11.75,12.3125 Q12.625,11.46875 12.625,9.9375 Q12.625,9.390625 12.53125,8.8125 Q12.453125,8.234375 12.359375,7.796875 L10.65625,-0.078125 L8.40625,-0.078125 L10.125,8.09375 Q10.25,8.609375 10.3125,9 Q10.375,9.390625 10.375,9.71875 Q10.375,11.25 8.734375,11.25 Q7.9375,11.25 7.015625,10.6875 Q6.09375,10.125 5.28125,8.875 Q4.484375,7.625 4.03125,5.515625 L2.828125,-0.078125 Z" transform="translate(5.3984375, 13.171875) scale(1, -1)"/>
</svg>