<svg height="13.09375" viewBox="0 0 24 13.09375" width="24" xmlns="http://www.w3.org/2000/svg">
<path d="M7.21875,-0.234375 Q4.9375,-0.234375 3.84375,0.90625 Q2.765625,2.046875 2.765625,4.296875 L2.765625,11.15625 L0.75,11.609375 L0.75,12.859375 L4.921875,12.859375 L4.921875,4.625 Q4.921875,3.09375 5.546875,2.296875 Q6.1875,1.515625 7.75,1.515625 Q9.75,1.515625 10.515625,2.765625 Q11.28125,4.015625 11.28125,6.234375 L11.28125,11.15625 L9.265625,11.609375 L9.265625,12.859375 L13.4375,12.859375 L13.4375,1.703125 L15.453125,1.25 L15.453125,0 L11.71875,0 L11.40625,1.734375 L11.28125,1.734375 Q10.609375,0.640625 9.578125,0.203125 Q8.5625,-0.234375 7.21875,-0.234375 Z" transform="translate(3.8984375, 12.859375) scale(1, -1)"/>
</svg>