<svg height="13.578125" viewBox="0 0 24 13.578125" width="24" xmlns="http://www.w3.org/2000/svg">
<path d="M5.921875,-0.234375 Q4.578125,-0.234375 3.46875,0.25 Q2.359375,0.75 1.703125,1.796875 Q1.0625,2.859375 1.0625,4.578125 Q1.0625,6.359375 1.515625,7.921875 Q1.96875,9.5 2.859375,10.71875 Q3.75,11.953125 5.046875,12.640625 Q6.34375,13.34375 7.984375,13.34375 Q9.171875,13.34375 10.09375,13.125 Q11.015625,12.90625 11.828125,12.5 L10.75,9.8125 Q10.125,10.078125 9.515625,10.28125 Q8.90625,10.484375 8.140625,10.484375 Q7.03125,10.484375 6.234375,9.65625 Q5.453125,8.828125 5.03125,7.546875 Q4.625,6.265625 4.625,4.875 Q4.625,3.765625 5.15625,3.1875 Q5.6875,2.609375 6.640625,2.609375 Q7.53125,2.609375 8.28125,2.890625 Q9.046875,3.171875 9.859375,3.578125 L9.859375,0.703125 Q9.046875,0.265625 8.09375,0.015625 Q7.15625,-0.234375 5.921875,-0.234375 Z" transform="translate(5.5546875, 13.34375) scale(1, -1)"/>
</svg>