<svg height="24" viewBox="0 0 24 24" width="24" xmlns="http://www.w3.org/2000/svg">
<path d="M0.765625,0 L0.765625,1.25 L2.78125,1.703125 L2.78125,15.4375 L0.765625,15.890625 L0.765625,17.140625 L6.953125,17.140625 L6.953125,15.890625 L4.9375,15.4375 L4.9375,9.90625 L11.375,9.90625 L11.375,15.4375 L9.359375,15.890625 L9.359375,17.140625 L15.546875,17.140625 L15.546875,15.890625 L13.53125,15.4375 L13.53125,1.703125 L15.546875,1.25 L15.546875,0 L9.359375,0 L9.359375,1.25 L11.375,1.703125 L11.375,7.984375 L4.9375,7.984375 L4.9375,1.703125 L6.953125,1.25 L6.953125,0 Z" transform="translate(3.84375, 17.140625) scale(1, -1)"/>
</svg>