<svg height="18.46875" viewBox="0 0 24 18.46875" width="24" xmlns="http://www.w3.org/2000/svg">
<path d="M8.859375,-0.234375 Q7.4375,-0.234375 6.46875,0.328125 Q5.5,0.890625 4.9375,1.625 L4.796875,1.625 L4.609375,0 L0.859375,0 L0.859375,1.25 L2.875,1.703125 L2.875,16.53125 L0.859375,16.984375 L0.859375,18.234375 L4.96875,18.234375 L4.96875,13.828125 Q4.96875,13.15625 4.953125,12.5 Q4.9375,11.859375 4.875,11.1875 L4.96875,11.1875 Q5.46875,11.953125 6.421875,12.53125 Q7.390625,13.109375 8.859375,13.109375 Q11.1875,13.109375 12.609375,11.421875 Q14.046875,9.75 14.046875,6.453125 Q14.046875,3.140625 12.59375,1.453125 Q11.15625,-0.234375 8.859375,-0.234375 Z M8.453125,1.515625 Q10.203125,1.515625 11.015625,2.78125 Q11.828125,4.0625 11.828125,6.453125 Q11.828125,8.8125 11.015625,10.078125 Q10.203125,11.359375 8.421875,11.359375 Q6.765625,11.359375 5.859375,10.09375 Q4.96875,8.828125 4.96875,6.5 Q4.96875,4.078125 5.8125,2.796875 Q6.671875,1.515625 8.453125,1.515625 Z" transform="translate(4.546875, 18.234375) scale(1, -1)"/>
</svg>