<svg height="13.34375" viewBox="0 0 24 13.34375" width="24" xmlns="http://www.w3.org/2000/svg">
<path d="M4.625,-0.234375 Q2.953125,-0.234375 2.125,0.78125 Q1.296875,1.796875 1.296875,3.53125 Q1.296875,3.953125 1.359375,4.640625 Q1.4375,5.328125 1.578125,6.03125 L3.078125,13.109375 L6.59375,13.109375 L4.984375,5.453125 Q4.796875,4.609375 4.796875,4.0625 Q4.796875,2.609375 6.078125,2.609375 Q6.890625,2.609375 7.515625,3.296875 Q8.15625,3.984375 8.640625,5.125 Q9.125,6.28125 9.40625,7.6875 L10.5625,13.109375 L14.09375,13.109375 L11.296875,0 L8.609375,0 L8.859375,2.421875 L8.734375,2.421875 Q7.984375,1.25 6.984375,0.5 Q6,-0.234375 4.625,-0.234375 Z" transform="translate(4.3046875, 13.109375) scale(1, -1)"/>
</svg>