<svg height="24" viewBox="0 0 24 24" width="24" xmlns="http://www.w3.org/2000/svg">
<path d="M0.546875,0 L0.546875,1.25 L2.15625,1.703125 L2.15625,11.15625 L0.546875,11.609375 L0.546875,12.859375 L3.640625,12.859375 L3.953125,11.453125 L4.078125,11.453125 Q4.5625,12.40625 5.140625,12.75 Q5.71875,13.109375 6.453125,13.109375 Q7.4375,13.109375 7.96875,12.640625 Q8.515625,12.171875 8.8125,11.25 L8.875,11.25 Q9.28125,12.140625 9.890625,12.625 Q10.515625,13.109375 11.515625,13.109375 Q13.015625,13.109375 13.59375,11.96875 Q14.1875,10.828125 14.1875,8.40625 L14.1875,1.703125 L15.796875,1.25 L15.796875,0 L12.265625,0 L12.265625,8.046875 Q12.265625,9.546875 12.0625,10.390625 Q11.859375,11.234375 10.96875,11.234375 Q9.140625,11.234375 9.140625,6.4375 L9.140625,1.703125 L10.75,1.25 L10.75,0 L7.21875,0 L7.21875,8.046875 Q7.21875,9.578125 6.9375,10.40625 Q6.671875,11.234375 5.78125,11.234375 Q4.828125,11.234375 4.453125,9.9375 Q4.078125,8.640625 4.078125,6.4375 L4.078125,1.703125 L5.6875,1.25 L5.6875,0 Z" transform="translate(3.828125, 13.109375) scale(1, -1)"/>
</svg>