<svg height="24" viewBox="0 0 24 24" width="24" xmlns="http://www.w3.org/2000/svg">
<path d="M0.4375,0 L4.296875,18.234375 L7.828125,18.234375 L7.15625,15.078125 Q7.015625,14.328125 6.78125,13.53125 Q6.546875,12.75 6.359375,12.140625 Q6.1875,11.546875 6.125,11.359375 L6.21875,11.359375 Q6.9375,12.265625 7.828125,12.796875 Q8.71875,13.34375 9.890625,13.34375 Q11.59375,13.34375 12.421875,12.3125 Q13.265625,11.296875 13.265625,9.578125 Q13.265625,8.71875 13.015625,7.46875 L11.453125,0 L7.921875,0 L9.53125,7.65625 Q9.71875,8.5 9.71875,9.046875 Q9.71875,10.484375 8.453125,10.484375 Q7.65625,10.484375 7,9.796875 Q6.359375,9.125 5.890625,7.96875 Q5.421875,6.8125 5.109375,5.421875 L3.953125,0 Z" transform="translate(5.1484375, 18.234375) scale(1, -1)"/>
</svg>