<svg height="17.640625" viewBox="0 0 24 17.640625" width="24" xmlns="http://www.w3.org/2000/svg">
<path d="M7.734375,-0.234375 Q4.609375,-0.234375 3.015625,1.578125 Q1.4375,3.40625 1.4375,6.484375 Q1.4375,7.984375 1.78125,9.53125 Q2.140625,11.09375 2.84375,12.484375 Q3.546875,13.890625 4.625,15 Q5.71875,16.125 7.21875,16.765625 Q8.71875,17.40625 10.609375,17.40625 Q12.234375,17.40625 13.375,17.09375 Q14.515625,16.796875 15.640625,16.171875 L14.25,13.25 Q13.4375,13.734375 12.5625,14.046875 Q11.6875,14.375 10.609375,14.375 Q9.171875,14.375 8.125,13.65625 Q7.078125,12.9375 6.40625,11.78125 Q5.734375,10.625 5.40625,9.28125 Q5.09375,7.9375 5.09375,6.671875 Q5.09375,4.734375 5.890625,3.765625 Q6.703125,2.8125 8.453125,2.8125 Q9.4375,2.8125 10.421875,3.078125 Q11.421875,3.34375 12.40625,3.71875 L12.40625,0.671875 Q11.6875,0.390625 10.484375,0.078125 Q9.28125,-0.234375 7.734375,-0.234375 Z" transform="translate(3.4609375, 17.40625) scale(1, -1)"/>
</svg>