<svg height="24" viewBox="0 0 24 24" width="24" xmlns="http://www.w3.org/2000/svg">
<path d="M1.46875,0 L1.46875,1.25 L3.484375,1.703125 L3.484375,15.4375 L1.46875,15.890625 L1.46875,17.140625 L8.375,17.140625 Q11.453125,17.140625 12.859375,15.828125 Q14.28125,14.515625 14.28125,12.125 Q14.28125,10.703125 13.6875,9.421875 Q13.109375,8.15625 11.75,7.375 Q10.390625,6.59375 8.0625,6.59375 L5.640625,6.59375 L5.640625,1.703125 L7.65625,1.25 L7.65625,0 Z M5.640625,8.46875 L7.828125,8.46875 Q9.953125,8.46875 11.015625,9.28125 Q12.078125,10.109375 12.078125,12 Q12.078125,13.78125 11.125,14.515625 Q10.171875,15.265625 8.1875,15.265625 L5.640625,15.265625 Z" transform="translate(4.125, 17.140625) scale(1, -1)"/>
</svg>