<svg height="17.609375" viewBox="0 0 24 17.609375" width="24" xmlns="http://www.w3.org/2000/svg">
<path d="M8.234375,-0.234375 Q5.1875,-0.234375 3.453125,1.46875 Q1.734375,3.171875 1.734375,6.21875 Q1.734375,8.5625 2.390625,10.59375 Q3.046875,12.625 4.28125,14.140625 Q5.515625,15.671875 7.203125,16.515625 Q8.90625,17.375 10.96875,17.375 Q12.53125,17.375 13.703125,17.109375 Q14.875,16.84375 15.9375,16.375 L15.125,14.5 Q14.234375,14.90625 13.203125,15.1875 Q12.171875,15.484375 10.9375,15.484375 Q8.96875,15.484375 7.390625,14.296875 Q5.828125,13.125 4.921875,11.078125 Q4.015625,9.03125 4.015625,6.359375 Q4.015625,5.046875 4.46875,3.96875 Q4.9375,2.90625 5.921875,2.28125 Q6.90625,1.65625 8.453125,1.65625 Q9.359375,1.65625 10.109375,1.78125 Q10.875,1.921875 11.40625,2.09375 L12.5,7.15625 L9.140625,7.15625 L9.546875,9.03125 L15.046875,9.03125 L13.21875,0.640625 Q12.140625,0.265625 10.9375,0.015625 Q9.75,-0.234375 8.234375,-0.234375 Z" transform="translate(3.1640625, 17.375) scale(1, -1)"/>
</svg>