<svg height="17.5625" viewBox="0 0 24 17.5625" width="24" xmlns="http://www.w3.org/2000/svg">
<path d="M4.265625,-0.234375 Q3.765625,-0.234375 3.09375,-0.203125 Q2.421875,-0.171875 1.96875,-0.078125 L1.96875,2.828125 Q2.453125,2.734375 2.96875,2.65625 Q3.5,2.59375 4.03125,2.59375 Q6.171875,2.59375 7.328125,3.265625 Q8.5,3.953125 8.96875,5.15625 Q9.453125,6.359375 9.53125,7.9375 L9.390625,7.9375 Q8.875,7.109375 8.046875,6.53125 Q7.21875,5.953125 5.59375,5.953125 Q3.40625,5.953125 2.078125,7.359375 Q0.765625,8.78125 0.765625,11.375 Q0.765625,14.15625 2.328125,15.734375 Q3.90625,17.328125 6.59375,17.328125 Q8.359375,17.328125 9.765625,16.515625 Q11.1875,15.71875 12.015625,14.046875 Q12.859375,12.390625 12.859375,9.8125 Q12.859375,8.359375 12.640625,6.90625 Q12.4375,5.453125 11.890625,4.15625 Q11.359375,2.875 10.375,1.875 Q9.40625,0.890625 7.90625,0.328125 Q6.40625,-0.234375 4.265625,-0.234375 Z M6.59375,8.734375 Q7.421875,8.734375 8,9.09375 Q8.59375,9.453125 8.921875,9.984375 Q9.265625,10.53125 9.265625,11.109375 Q9.265625,11.90625 8.96875,12.671875 Q8.6875,13.4375 8.109375,13.921875 Q7.53125,14.421875 6.671875,14.421875 Q5.609375,14.421875 4.9375,13.703125 Q4.265625,12.984375 4.265625,11.421875 Q4.265625,10.171875 4.84375,9.453125 Q5.421875,8.734375 6.59375,8.734375 Z" transform="translate(5.1875, 17.328125) scale(1, -1)"/>
</svg>