<svg height="17.640625" viewBox="0 0 24 17.640625" width="24" xmlns="http://www.w3.org/2000/svg">
<path d="M7.078125,-0.234375 Q1.171875,-0.234375 1.171875,8.59375 Q1.171875,17.40625 7.078125,17.40625 Q13.03125,17.40625 13.03125,8.59375 Q13.03125,-0.234375 7.078125,-0.234375 Z M7.078125,0.90625 Q7.734375,0.90625 8.296875,1.0625 L8.296875,16.0625 Q7.96875,16.125 7.65625,16.171875 Q7.34375,16.21875 7.078125,16.21875 Q6.4375,16.21875 5.875,16.078125 L5.875,1.0625 Q6.4375,0.90625 7.078125,0.90625 Z M4.609375,1.65625 L4.609375,15.484375 Q2.421875,13.890625 2.421875,8.59375 Q2.421875,3.265625 4.609375,1.65625 Z M9.578125,1.6875 Q11.765625,3.28125 11.765625,8.59375 Q11.765625,13.875 9.578125,15.453125 Z" transform="translate(4.8984375, 17.40625) scale(1, -1)"/>
</svg>