<svg height="17.375" viewBox="0 0 24 17.375" width="24" xmlns="http://www.w3.org/2000/svg">
<path d="M6.09375,-0.234375 Q3.28125,-0.234375 1.65625,0.75 L1.65625,2.203125 Q3.28125,0.953125 6.125,0.953125 Q7.03125,0.953125 7.78125,1.109375 L7.78125,8.953125 Q7.375,9 7,9.03125 Q6.640625,9.078125 6.359375,9.078125 Q4.9375,9.078125 3.03125,8.515625 L2.15625,9.171875 L2.15625,17.140625 L11.140625,17.140625 L11.140625,15.859375 L6.3125,15.859375 L6.3125,10.265625 Q9.34375,10.265625 10.921875,8.953125 Q12.5,7.65625 12.5,5.28125 Q12.5,3.59375 11.703125,2.359375 Q10.921875,1.125 9.484375,0.4375 Q8.0625,-0.234375 6.09375,-0.234375 Z M3.4375,9.90625 Q3.765625,9.984375 4.09375,10.046875 Q4.4375,10.109375 5.046875,10.203125 L5.046875,15.859375 L3.4375,15.859375 Z M9.046875,1.53125 Q11.234375,2.5625 11.234375,5.25 Q11.234375,7.703125 9.046875,8.59375 Z" transform="translate(4.921875, 17.140625) scale(1, -1)"/>
</svg>