<svg height="17.640625" viewBox="0 0 24 17.640625" width="24" xmlns="http://www.w3.org/2000/svg">
<path d="M6.84375,-0.234375 Q3.75,-0.234375 2.296875,2.09375 Q0.859375,4.4375 0.859375,8.5625 Q0.859375,11.359375 1.4375,13.3125 Q2.015625,15.28125 3.328125,16.34375 Q4.65625,17.40625 6.84375,17.40625 Q9.90625,17.40625 11.375,15.078125 Q12.84375,12.75 12.84375,8.5625 Q12.84375,5.8125 12.25,3.84375 Q11.65625,1.875 10.34375,0.8125 Q9.046875,-0.234375 6.84375,-0.234375 Z M6.84375,2.6875 Q8.1875,2.6875 8.703125,4.140625 Q9.234375,5.609375 9.234375,8.5625 Q9.234375,11.5 8.703125,12.984375 Q8.1875,14.46875 6.84375,14.46875 Q5.46875,14.46875 4.96875,12.984375 Q4.46875,11.5 4.46875,8.5625 Q4.46875,5.640625 4.96875,4.15625 Q5.46875,2.6875 6.84375,2.6875 Z" transform="translate(5.1484375, 17.40625) scale(1, -1)"/>
</svg>