<svg height="17.609375" viewBox="0 0 24 17.609375" width="24" xmlns="http://www.w3.org/2000/svg">
<path d="M7.015625,17.375 Q9.75,17.375 11.34375,15.484375 Q12.953125,13.609375 12.953125,9.75 Q12.953125,6.859375 12.375,4.9375 Q11.8125,3.03125 10.84375,1.890625 Q9.890625,0.75 8.734375,0.25 Q7.578125,-0.234375 6.453125,-0.234375 Q5.328125,-0.234375 4.25,0.1875 Q3.1875,0.625 2.515625,1.328125 Q1.84375,2.046875 1.84375,2.875 Q1.84375,3.671875 2.3125,4.046875 Q2.78125,4.4375 3.390625,4.4375 Q4.015625,4.4375 4.46875,4.046875 Q4.921875,3.671875 4.921875,2.875 Q4.921875,2.5625 4.828125,2.3125 Q4.75,2.0625 4.625,1.875 Q5.109375,1.703125 5.53125,1.640625 Q5.953125,1.578125 6.34375,1.578125 Q7.78125,1.578125 8.75,2.484375 Q9.71875,3.390625 10.234375,4.921875 Q10.75,6.453125 10.828125,8.40625 L10.6875,8.40625 Q10.21875,7.515625 9.203125,6.890625 Q8.203125,6.28125 6.671875,6.28125 Q4.265625,6.28125 2.84375,7.671875 Q1.4375,9.078125 1.4375,11.609375 Q1.4375,14.296875 2.953125,15.828125 Q4.46875,17.375 7.015625,17.375 Z M7.03125,15.578125 Q5.5,15.578125 4.5,14.65625 Q3.5,13.75 3.5,11.609375 Q3.5,9.84375 4.375,8.90625 Q5.25,7.96875 6.953125,7.96875 Q8.140625,7.96875 9,8.4375 Q9.859375,8.921875 10.34375,9.671875 Q10.828125,10.4375 10.828125,11.203125 Q10.828125,12.265625 10.40625,13.25 Q9.984375,14.25 9.140625,14.90625 Q8.296875,15.578125 7.03125,15.578125 Z" transform="translate(4.8046875, 17.375) scale(1, -1)"/>
</svg>