<svg height="17.375" viewBox="0 0 24 17.375" width="24" xmlns="http://www.w3.org/2000/svg">
<path d="M5.953125,-0.234375 Q4.625,-0.234375 3.453125,0 Q2.296875,0.234375 1.515625,0.703125 L1.515625,2.6875 Q2.375,2.15625 3.609375,1.859375 Q4.84375,1.5625 5.96875,1.5625 Q7.875,1.5625 9.03125,2.453125 Q10.203125,3.359375 10.203125,5.25 Q10.203125,6.9375 9.171875,7.828125 Q8.140625,8.734375 5.90625,8.734375 Q5.234375,8.734375 4.359375,8.609375 Q3.5,8.5 2.96875,8.375 L1.921875,9.046875 L2.5625,17.140625 L11.15625,17.140625 L11.15625,15.21875 L4.375,15.21875 L3.953125,10.25 Q4.375,10.3125 5.0625,10.40625 Q5.765625,10.515625 6.59375,10.515625 Q9.234375,10.515625 10.796875,9.1875 Q12.359375,7.875 12.359375,5.46875 Q12.359375,2.8125 10.65625,1.28125 Q8.96875,-0.234375 5.953125,-0.234375 Z" transform="translate(5.0625, 17.140625) scale(1, -1)"/>
</svg>