<svg height="24" viewBox="0 0 24 24" width="24" xmlns="http://www.w3.org/2000/svg">
<path d="M0.953125,0 L0.953125,2.515625 L5.25,6.859375 Q6.578125,8.1875 7.359375,9.078125 Q8.140625,9.984375 8.5,10.71875 Q8.859375,11.46875 8.859375,12.3125 Q8.859375,13.34375 8.296875,13.84375 Q7.734375,14.359375 6.765625,14.359375 Q5.78125,14.359375 4.84375,13.890625 Q3.90625,13.4375 2.875,12.59375 L0.90625,14.921875 Q1.65625,15.578125 2.484375,16.125 Q3.3125,16.6875 4.40625,17.03125 Q5.5,17.375 7.03125,17.375 Q8.71875,17.375 9.921875,16.765625 Q11.140625,16.15625 11.796875,15.109375 Q12.453125,14.0625 12.453125,12.75 Q12.453125,11.328125 11.890625,10.15625 Q11.328125,9 10.25,7.84375 Q9.1875,6.703125 7.6875,5.28125 L5.46875,3.21875 L5.46875,3.046875 L12.9375,3.046875 L12.9375,0 Z" transform="translate(5.078125, 17.375) scale(1, -1)"/>
</svg>