<svg height="17.640625" viewBox="0 0 24 17.640625" width="24" xmlns="http://www.w3.org/2000/svg">
<path d="M7.390625,-0.234375 Q4.5625,-0.234375 3,1.734375 Q1.4375,3.703125 1.4375,7.3125 Q1.4375,12.390625 3.484375,14.890625 Q5.546875,17.40625 9.40625,17.40625 Q10.828125,17.40625 11.640625,17.25 L11.640625,15.984375 Q10.890625,16.203125 9.453125,16.203125 Q7.625,16.203125 6.1875,15.484375 L6.1875,10.4375 Q6.53125,10.484375 6.859375,10.5 Q7.203125,10.53125 7.515625,10.53125 Q10.03125,10.53125 11.484375,9.203125 Q12.953125,7.875 12.953125,5.515625 Q12.953125,2.875 11.453125,1.3125 Q9.953125,-0.234375 7.390625,-0.234375 Z M4.921875,1.625 L4.921875,14.59375 Q2.71875,12.453125 2.71875,7.3125 Q2.71875,3.078125 4.921875,1.625 Z M7.375,0.953125 Q7.578125,0.953125 7.765625,0.984375 Q7.96875,1.015625 8.234375,1.03125 L8.234375,9.28125 Q8.0625,9.3125 7.875,9.328125 Q7.703125,9.34375 7.515625,9.34375 Q7.15625,9.34375 6.828125,9.296875 Q6.5,9.265625 6.1875,9.21875 L6.1875,1.078125 Q6.53125,1.03125 6.828125,0.984375 Q7.125,0.953125 7.375,0.953125 Z M9.5,1.390625 Q11.6875,2.421875 11.6875,5.515625 Q11.6875,6.703125 11.125,7.609375 Q10.578125,8.515625 9.5,8.96875 Z" transform="translate(4.8046875, 17.40625) scale(1, -1)"/>
</svg>