<svg height="17.375" viewBox="0 0 24 17.375" width="24" xmlns="http://www.w3.org/2000/svg">
<path d="M5.78125,-0.234375 Q4.4375,-0.234375 3.25,0 Q2.0625,0.234375 1.171875,0.703125 L1.171875,3.8125 Q2.0625,3.359375 3.3125,3.03125 Q4.5625,2.71875 5.65625,2.71875 Q7.265625,2.71875 8.109375,3.375 Q8.96875,4.03125 8.96875,5.421875 Q8.96875,8.015625 5.546875,8.015625 Q4.875,8.015625 4.15625,7.875 Q3.4375,7.75 2.953125,7.625 L1.515625,8.40625 L2.15625,17.140625 L11.453125,17.140625 L11.453125,14.0625 L5.328125,14.0625 L5.015625,10.703125 Q5.421875,10.796875 5.890625,10.859375 Q6.359375,10.9375 7.203125,10.9375 Q8.765625,10.9375 9.984375,10.34375 Q11.203125,9.75 11.90625,8.59375 Q12.625,7.4375 12.625,5.734375 Q12.625,2.953125 10.890625,1.359375 Q9.171875,-0.234375 5.78125,-0.234375 Z" transform="translate(5.1015625, 17.140625) scale(1, -1)"/>
</svg>