<svg height="17.609375" viewBox="0 0 24 17.609375" width="24" xmlns="http://www.w3.org/2000/svg">
<path d="M6.90625,-0.234375 Q4.15625,-0.234375 2.65625,0.96875 Q1.171875,2.1875 1.171875,4.375 Q1.171875,5.546875 1.65625,6.40625 Q2.15625,7.265625 2.96875,7.890625 Q3.796875,8.515625 4.734375,8.953125 Q3.484375,9.671875 2.609375,10.6875 Q1.734375,11.71875 1.734375,13.296875 Q1.734375,14.609375 2.40625,15.515625 Q3.078125,16.421875 4.21875,16.890625 Q5.375,17.375 6.84375,17.375 Q9.09375,17.375 10.53125,16.3125 Q11.96875,15.265625 11.96875,13.265625 Q11.96875,12.234375 11.53125,11.46875 Q11.09375,10.703125 10.34375,10.109375 Q9.59375,9.53125 8.71875,9.078125 Q9.765625,8.5625 10.625,7.921875 Q11.5,7.296875 12.015625,6.453125 Q12.53125,5.609375 12.53125,4.4375 Q12.53125,2.28125 11,1.015625 Q9.484375,-0.234375 6.90625,-0.234375 Z M6.9375,9.890625 Q8.1875,10.421875 9.03125,11.15625 Q9.890625,11.90625 9.890625,13.203125 Q9.890625,14.40625 9.046875,15.03125 Q8.203125,15.671875 6.8125,15.671875 Q5.5,15.671875 4.640625,15.03125 Q3.796875,14.40625 3.796875,13.203125 Q3.796875,12.3125 4.203125,11.703125 Q4.625,11.109375 5.34375,10.6875 Q6.078125,10.265625 6.9375,9.890625 Z M6.859375,1.4375 Q8.609375,1.4375 9.53125,2.265625 Q10.46875,3.09375 10.46875,4.421875 Q10.46875,5.65625 9.484375,6.484375 Q8.5,7.3125 6.859375,7.9375 L6.484375,8.09375 Q4.890625,7.421875 4.0625,6.53125 Q3.234375,5.65625 3.234375,4.34375 Q3.234375,3.09375 4.125,2.265625 Q5.015625,1.4375 6.859375,1.4375 Z" transform="translate(5.1484375, 17.375) scale(1, -1)"/>
</svg>