<svg height="24" viewBox="0 0 24 24" width="24" xmlns="http://www.w3.org/2000/svg">
<path d="M7.734375,0 L7.734375,4.125 L0.59375,4.125 L0.59375,5.6875 L7.578125,17.140625 L11.875,17.140625 L11.875,5.40625 L13.65625,5.40625 L13.65625,4.125 L11.875,4.125 L11.875,0 Z M9,1.265625 L10.609375,1.265625 L10.609375,15.859375 L9,15.859375 Z M1.921875,5.40625 L7.734375,5.40625 L7.734375,11.09375 Q7.734375,12.984375 7.875,15.359375 L7.78125,15.359375 Q7.703125,15.1875 7.609375,14.96875 Q7.515625,14.765625 7.375,14.5 Q7.21875,14.25 5.859375,11.96875 Q4.515625,9.703125 1.921875,5.40625 Z" transform="translate(4.875, 17.140625) scale(1, -1)"/>
</svg>