<svg height="17.609375" viewBox="0 0 24 17.609375" width="24" xmlns="http://www.w3.org/2000/svg">
<path d="M5.78125,-0.234375 Q4.4375,-0.234375 3.28125,-0.03125 Q2.140625,0.171875 1.078125,0.703125 L1.078125,2.65625 Q2.15625,2.140625 3.40625,1.828125 Q4.65625,1.53125 5.8125,1.53125 Q8.109375,1.53125 9.125,2.4375 Q10.15625,3.34375 10.15625,4.921875 Q10.15625,6.53125 8.890625,7.234375 Q7.625,7.9375 5.359375,7.9375 L3.703125,7.9375 L3.703125,9.75 L5.375,9.75 Q7.484375,9.75 8.578125,10.625 Q9.671875,11.515625 9.671875,12.984375 Q9.671875,14.234375 8.828125,14.90625 Q7.984375,15.59375 6.546875,15.59375 Q5.15625,15.59375 4.171875,15.1875 Q3.1875,14.78125 2.234375,14.15625 L1.171875,15.59375 Q2.09375,16.3125 3.4375,16.84375 Q4.796875,17.375 6.53125,17.375 Q9.21875,17.375 10.515625,16.171875 Q11.828125,14.96875 11.828125,13.125 Q11.828125,11.40625 10.859375,10.375 Q9.90625,9.359375 8.28125,9.03125 L8.28125,8.921875 Q10.34375,8.6875 11.34375,7.625 Q12.359375,6.578125 12.359375,4.875 Q12.359375,3.390625 11.65625,2.21875 Q10.96875,1.0625 9.515625,0.40625 Q8.0625,-0.234375 5.78125,-0.234375 Z" transform="translate(5.28125, 17.375) scale(1, -1)"/>
</svg>