<svg height="17.609375" viewBox="0 0 24 17.609375" width="24" xmlns="http://www.w3.org/2000/svg">
<path d="M7.390625,-0.234375 Q4.65625,-0.234375 3.046875,1.65625 Q1.4375,3.546875 1.4375,7.390625 Q1.4375,10.265625 2.015625,12.1875 Q2.59375,14.109375 3.546875,15.25 Q4.515625,16.390625 5.65625,16.875 Q6.8125,17.375 7.9375,17.375 Q9.09375,17.375 10.140625,16.9375 Q11.203125,16.515625 11.875,15.796875 Q12.546875,15.09375 12.546875,14.25 Q12.546875,13.46875 12.09375,13.078125 Q11.640625,12.703125 11.015625,12.703125 Q10.390625,12.703125 9.9375,13.078125 Q9.484375,13.46875 9.484375,14.25 Q9.484375,14.59375 9.5625,14.84375 Q9.640625,15.09375 9.765625,15.265625 Q9.3125,15.4375 8.890625,15.484375 Q8.46875,15.546875 8.0625,15.546875 Q6.625,15.546875 5.65625,14.65625 Q4.6875,13.78125 4.15625,12.234375 Q3.640625,10.6875 3.578125,8.734375 L3.71875,8.734375 Q4.203125,9.640625 5.1875,10.234375 Q6.1875,10.84375 7.734375,10.84375 Q10.125,10.84375 11.53125,9.453125 Q12.953125,8.0625 12.953125,5.515625 Q12.953125,2.828125 11.453125,1.296875 Q9.953125,-0.234375 7.390625,-0.234375 Z M7.375,1.5625 Q8.921875,1.5625 9.90625,2.484375 Q10.890625,3.40625 10.890625,5.515625 Q10.890625,7.296875 10.015625,8.234375 Q9.140625,9.171875 7.4375,9.171875 Q6.28125,9.171875 5.40625,8.6875 Q4.53125,8.203125 4.046875,7.453125 Q3.578125,6.71875 3.578125,5.921875 Q3.578125,4.890625 4,3.875 Q4.421875,2.875 5.265625,2.21875 Q6.125,1.5625 7.375,1.5625 Z" transform="translate(4.8046875, 17.375) scale(1, -1)"/>
</svg>