<svg height="17.640625" viewBox="0 0 24 17.640625" width="24" xmlns="http://www.w3.org/2000/svg">
<path d="M6.625,-0.234375 Q3.59375,-0.234375 1.25,0.765625 L1.25,2.234375 Q3.640625,0.984375 6.625,0.984375 Q7.15625,0.984375 7.828125,1.0625 L7.828125,8.203125 Q7.53125,8.25 7.234375,8.265625 Q6.9375,8.296875 6.625,8.296875 L4.125,8.296875 L4.125,9.53125 L6.625,9.53125 Q7.078125,9.53125 7.515625,9.59375 L7.515625,16.109375 Q7.078125,16.171875 6.625,16.171875 Q4.125,16.171875 2.09375,14.5 L1.375,15.53125 Q2.5625,16.421875 3.796875,16.90625 Q5.046875,17.40625 6.625,17.40625 Q8.234375,17.40625 9.421875,16.84375 Q10.625,16.296875 11.3125,15.3125 Q12,14.328125 12,13.03125 Q12,11.65625 11.234375,10.5625 Q10.46875,9.484375 8.96875,8.953125 Q10.625,8.546875 11.578125,7.3125 Q12.546875,6.09375 12.546875,4.4375 Q12.546875,2.359375 10.96875,1.0625 Q9.40625,-0.234375 6.625,-0.234375 Z M8.78125,9.984375 Q10.734375,10.96875 10.734375,13.015625 Q10.734375,14.953125 8.78125,15.765625 Z M9.09375,1.390625 Q11.28125,2.203125 11.28125,4.421875 Q11.28125,6.859375 9.09375,7.828125 Z" transform="translate(5.1015625, 17.40625) scale(1, -1)"/>
</svg>