<svg height="17.609375" viewBox="0 0 24 17.609375" width="24" xmlns="http://www.w3.org/2000/svg">
<path d="M5.859375,-0.234375 Q3.078125,-0.234375 0.90625,0.703125 L0.90625,3.765625 Q2.015625,3.21875 3.21875,2.921875 Q4.4375,2.640625 5.46875,2.640625 Q7.421875,2.640625 8.1875,3.3125 Q8.96875,3.984375 8.96875,5.203125 Q8.96875,5.921875 8.609375,6.40625 Q8.25,6.90625 7.34375,7.15625 Q6.453125,7.421875 4.84375,7.421875 L3.546875,7.421875 L3.546875,10.203125 L4.875,10.203125 Q6.453125,10.203125 7.28125,10.5 Q8.109375,10.796875 8.40625,11.3125 Q8.71875,11.828125 8.71875,12.5 Q8.71875,13.421875 8.140625,13.9375 Q7.578125,14.453125 6.265625,14.453125 Q5.046875,14.453125 4.140625,14.03125 Q3.234375,13.609375 2.609375,13.203125 L0.9375,15.703125 Q1.9375,16.421875 3.296875,16.890625 Q4.65625,17.375 6.53125,17.375 Q9.171875,17.375 10.71875,16.296875 Q12.265625,15.234375 12.265625,13.296875 Q12.265625,11.515625 11.1875,10.453125 Q10.125,9.40625 8.5625,9.03125 L8.5625,8.953125 Q10.625,8.71875 11.6875,7.703125 Q12.765625,6.703125 12.765625,4.984375 Q12.765625,3.5 12.03125,2.3125 Q11.296875,1.125 9.765625,0.4375 Q8.25,-0.234375 5.859375,-0.234375 Z" transform="translate(5.1640625, 17.375) scale(1, -1)"/>
</svg>