<svg height="17.59375" viewBox="0 0 24 17.59375" width="24" xmlns="http://www.w3.org/2000/svg">
<path d="M6.859375,-0.234375 Q3.984375,-0.234375 2.40625,0.984375 Q0.84375,2.203125 0.84375,4.34375 Q0.84375,6.125 1.796875,7.203125 Q2.765625,8.28125 4.125,8.953125 Q2.96875,9.671875 2.171875,10.6875 Q1.375,11.71875 1.375,13.25 Q1.375,14.609375 2.140625,15.515625 Q2.90625,16.4375 4.15625,16.890625 Q5.421875,17.359375 6.859375,17.359375 Q8.359375,17.359375 9.59375,16.890625 Q10.828125,16.4375 11.578125,15.515625 Q12.34375,14.609375 12.34375,13.21875 Q12.34375,11.6875 11.453125,10.6875 Q10.578125,9.703125 9.265625,9.046875 Q10.171875,8.5625 11,7.921875 Q11.828125,7.296875 12.34375,6.4375 Q12.859375,5.59375 12.859375,4.4375 Q12.859375,3.03125 12.109375,1.96875 Q11.359375,0.90625 10,0.328125 Q8.640625,-0.234375 6.859375,-0.234375 Z M6.859375,10.5625 Q7.6875,10.9375 8.296875,11.484375 Q8.921875,12.03125 8.921875,12.953125 Q8.921875,13.796875 8.328125,14.25 Q7.75,14.71875 6.84375,14.71875 Q5.953125,14.71875 5.359375,14.25 Q4.78125,13.796875 4.78125,12.953125 Q4.78125,12.078125 5.40625,11.515625 Q6.03125,10.96875 6.859375,10.5625 Z M6.8125,2.421875 Q8.15625,2.421875 8.828125,3 Q9.5,3.578125 9.5,4.53125 Q9.5,5.1875 9.109375,5.671875 Q8.734375,6.171875 8.171875,6.5625 Q7.609375,6.953125 7.015625,7.296875 L6.703125,7.46875 Q5.59375,6.9375 4.890625,6.234375 Q4.203125,5.546875 4.203125,4.5625 Q4.203125,3.625 4.859375,3.015625 Q5.515625,2.421875 6.8125,2.421875 Z" transform="translate(5.1484375, 17.359375) scale(1, -1)"/>
</svg>