<svg height="17.609375" viewBox="0 0 24 17.609375" width="24" xmlns="http://www.w3.org/2000/svg">
<path d="M7.078125,-0.234375 Q4.609375,-0.234375 3.109375,0.96875 Q1.625,2.1875 1.625,4.296875 Q1.625,5.515625 2.109375,6.390625 Q2.59375,7.265625 3.375,7.90625 Q4.171875,8.546875 5.140625,8.96875 Q3.953125,9.671875 3.0625,10.71875 Q2.1875,11.765625 2.1875,13.296875 Q2.1875,14.640625 2.875,15.546875 Q3.578125,16.46875 4.71875,16.921875 Q5.875,17.375 7.21875,17.375 Q8.5625,17.375 9.6875,16.921875 Q10.828125,16.46875 11.5,15.546875 Q12.1875,14.640625 12.1875,13.296875 Q12.1875,11.71875 11.265625,10.71875 Q10.34375,9.71875 8.953125,9.078125 Q10.015625,8.546875 10.875,7.875 Q11.734375,7.21875 12.234375,6.359375 Q12.75,5.5 12.75,4.3125 Q12.75,3 12.046875,1.96875 Q11.359375,0.9375 10.09375,0.34375 Q8.828125,-0.234375 7.078125,-0.234375 Z M7.21875,9.9375 Q8.421875,10.46875 9.265625,11.1875 Q10.109375,11.921875 10.109375,13.171875 Q10.109375,14.359375 9.3125,14.96875 Q8.515625,15.578125 7.171875,15.578125 Q5.859375,15.578125 5.0625,14.96875 Q4.265625,14.375 4.265625,13.171875 Q4.265625,12.28125 4.703125,11.6875 Q5.140625,11.09375 5.8125,10.671875 Q6.484375,10.265625 7.21875,9.9375 Z M7.15625,1.515625 Q8.859375,1.515625 9.75,2.34375 Q10.65625,3.171875 10.65625,4.4375 Q10.65625,5.71875 9.71875,6.484375 Q8.78125,7.265625 6.890625,8.15625 Q5.421875,7.515625 4.578125,6.59375 Q3.75,5.6875 3.75,4.3125 Q3.75,3.09375 4.5625,2.296875 Q5.375,1.515625 7.15625,1.515625 Z" transform="translate(4.8125, 17.375) scale(1, -1)"/>
</svg>