<svg height="24" viewBox="0 0 24 24" width="24" xmlns="http://www.w3.org/2000/svg">
<path d="M1.15625,0 L1.15625,1.75 L5.640625,6.28125 Q6.9375,7.578125 7.828125,8.578125 Q8.71875,9.59375 9.171875,10.5625 Q9.625,11.546875 9.625,12.703125 Q9.625,14.109375 8.78125,14.84375 Q7.9375,15.578125 6.59375,15.578125 Q5.359375,15.578125 4.40625,15.140625 Q3.453125,14.71875 2.46875,13.9375 L1.34375,15.359375 Q2.359375,16.203125 3.65625,16.78125 Q4.96875,17.375 6.59375,17.375 Q9,17.375 10.390625,16.15625 Q11.78125,14.953125 11.78125,12.8125 Q11.78125,11.46875 11.234375,10.296875 Q10.6875,9.140625 9.703125,7.984375 Q8.71875,6.84375 7.390625,5.546875 L3.8125,2.015625 L3.8125,1.921875 L12.484375,1.921875 L12.484375,0 Z" transform="translate(5.1796875, 17.375) scale(1, -1)"/>
</svg>