<svg height="24" viewBox="0 0 24 24" width="24" xmlns="http://www.w3.org/2000/svg">
<path d="M5.96875,0 L5.96875,1.21875 L8.640625,1.703125 L8.640625,3.84375 L1.203125,3.84375 L1.203125,5.609375 L8.25,17.234375 L10.703125,17.234375 L10.703125,5.6875 L13.203125,5.6875 L13.203125,3.84375 L10.703125,3.84375 L10.703125,1.703125 L10.734375,1.703125 L13.203125,1.21875 L13.203125,0 Z M3.28125,5.6875 L8.640625,5.6875 L8.640625,9.953125 Q8.640625,10.84375 8.65625,11.796875 Q8.6875,12.765625 8.71875,13.625 Q8.765625,14.5 8.78125,15.03125 L8.6875,15.03125 Q8.515625,14.5625 8.1875,13.9375 Q7.875,13.3125 7.625,12.90625 Z" transform="translate(4.796875, 17.234375) scale(1, -1)"/>
</svg>