<svg height="17.640625" viewBox="0 0 24 17.640625" width="24" xmlns="http://www.w3.org/2000/svg">
<path d="M4.796875,-0.234375 Q3.40625,-0.234375 2.5625,-0.09375 L2.5625,1.171875 Q3.34375,0.953125 4.75,0.953125 Q6.578125,0.953125 8.015625,1.6875 L8.015625,6.71875 Q7.703125,6.703125 7.359375,6.65625 Q7.03125,6.625 6.703125,6.625 Q4.125,6.625 2.6875,7.96875 Q1.25,9.3125 1.25,11.640625 Q1.25,13.421875 1.9375,14.703125 Q2.640625,15.984375 3.890625,16.6875 Q5.140625,17.40625 6.8125,17.40625 Q9.640625,17.40625 11.203125,15.4375 Q12.765625,13.46875 12.765625,9.84375 Q12.765625,4.78125 10.703125,2.265625 Q8.65625,-0.234375 4.796875,-0.234375 Z M6.703125,7.828125 Q7.0625,7.828125 7.375,7.859375 Q7.703125,7.890625 8.015625,7.9375 L8.015625,16.078125 Q7.703125,16.125 7.40625,16.15625 Q7.109375,16.203125 6.84375,16.203125 Q6.40625,16.203125 5.96875,16.125 L5.96875,7.875 Q6.171875,7.84375 6.34375,7.828125 Q6.53125,7.828125 6.703125,7.828125 Z M4.703125,8.1875 L4.703125,15.765625 Q2.515625,14.734375 2.515625,11.640625 Q2.515625,10.46875 3.0625,9.546875 Q3.625,8.640625 4.703125,8.1875 Z M9.28125,2.5625 Q11.5,4.703125 11.5,9.84375 Q11.5,11.828125 10.921875,13.328125 Q10.34375,14.828125 9.28125,15.53125 Z" transform="translate(4.9921875, 17.40625) scale(1, -1)"/>
</svg>