<svg height="17.5625" viewBox="0 0 24 17.5625" width="24" xmlns="http://www.w3.org/2000/svg">
<path d="M7.109375,-0.234375 Q5.359375,-0.234375 3.9375,0.5625 Q2.515625,1.375 1.671875,3.03125 Q0.84375,4.703125 0.84375,7.265625 Q0.84375,8.765625 1.046875,10.203125 Q1.265625,11.640625 1.8125,12.921875 Q2.359375,14.203125 3.328125,15.203125 Q4.296875,16.203125 5.796875,16.765625 Q7.296875,17.328125 9.4375,17.328125 Q9.9375,17.328125 10.609375,17.28125 Q11.28125,17.25 11.734375,17.15625 L11.734375,14.25 Q11.28125,14.375 10.734375,14.4375 Q10.203125,14.5 9.671875,14.5 Q7.53125,14.5 6.359375,13.828125 Q5.203125,13.15625 4.71875,11.9375 Q4.25,10.734375 4.171875,9.140625 L4.3125,9.140625 Q4.796875,9.984375 5.6875,10.5625 Q6.59375,11.140625 8.046875,11.140625 Q10.296875,11.140625 11.609375,9.71875 Q12.9375,8.296875 12.9375,5.71875 Q12.9375,2.921875 11.359375,1.34375 Q9.796875,-0.234375 7.109375,-0.234375 Z M7.03125,2.65625 Q8.09375,2.65625 8.765625,3.390625 Q9.4375,4.125 9.4375,5.65625 Q9.4375,6.90625 8.859375,7.625 Q8.28125,8.359375 7.109375,8.359375 Q6.3125,8.359375 5.703125,8 Q5.109375,7.65625 4.765625,7.09375 Q4.4375,6.546875 4.4375,5.96875 Q4.4375,5.1875 4.71875,4.421875 Q5.015625,3.671875 5.59375,3.15625 Q6.1875,2.65625 7.03125,2.65625 Z" transform="translate(5.109375, 17.328125) scale(1, -1)"/>
</svg>