<svg height="17.640625" viewBox="0 0 24 17.640625" width="24" xmlns="http://www.w3.org/2000/svg">
<path d="M7.109375,-0.234375 Q5.296875,-0.234375 3.96875,0.328125 Q2.640625,0.90625 1.921875,1.96875 Q1.203125,3.046875 1.203125,4.46875 Q1.203125,6.09375 2.140625,7.3125 Q3.078125,8.546875 4.75,8.96875 Q3.359375,9.34375 2.546875,10.46875 Q1.75,11.609375 1.75,13.0625 Q1.75,14.359375 2.421875,15.328125 Q3.09375,16.296875 4.296875,16.84375 Q5.515625,17.40625 7.109375,17.40625 Q8.6875,17.40625 9.890625,16.859375 Q11.109375,16.3125 11.796875,15.34375 Q12.484375,14.375 12.484375,13.0625 Q12.484375,11.6875 11.703125,10.59375 Q10.9375,9.5 9.453125,8.96875 Q11.109375,8.5625 12.0625,7.34375 Q13.03125,6.125 13.03125,4.46875 Q13.03125,3.078125 12.3125,2 Q11.59375,0.9375 10.25,0.34375 Q8.921875,-0.234375 7.109375,-0.234375 Z M7.109375,9.546875 Q7.5625,9.546875 7.984375,9.625 L7.984375,16.125 Q7.5625,16.203125 7.109375,16.203125 Q6.671875,16.203125 6.234375,16.125 L6.234375,9.625 Q6.671875,9.546875 7.109375,9.546875 Z M4.96875,10.015625 L4.96875,15.796875 Q3.03125,14.96875 3.03125,13.03125 Q3.03125,12.03125 3.546875,11.234375 Q4.0625,10.4375 4.96875,10.015625 Z M9.265625,10.015625 Q11.203125,10.984375 11.203125,13.03125 Q11.203125,14.90625 9.265625,15.796875 Z M7.109375,0.953125 Q7.703125,0.953125 8.296875,1.03125 L8.296875,8.234375 Q8.015625,8.28125 7.71875,8.296875 Q7.421875,8.328125 7.109375,8.328125 Q6.796875,8.328125 6.484375,8.296875 Q6.1875,8.28125 5.921875,8.234375 L5.921875,1.03125 Q6.5,0.953125 7.109375,0.953125 Z M4.65625,1.34375 L4.65625,7.84375 Q2.46875,6.890625 2.46875,4.46875 Q2.46875,2.234375 4.65625,1.34375 Z M9.578125,1.375 Q11.765625,2.234375 11.765625,4.4375 Q11.765625,6.890625 9.578125,7.84375 Z" transform="translate(4.8828125, 17.40625) scale(1, -1)"/>
</svg>