<svg height="21.609375" viewBox="0 0 24 21.609375" width="24" xmlns="http://www.w3.org/2000/svg">
<path d="M1.3125,-1.6875 L22.6875,-1.6875 L22.6875,19.921875 L1.3125,19.921875 Z M2.046875,-0.984375 L2.046875,19.21875 L21.953125,19.21875 L21.953125,-0.984375 Z M8.640625,2.953125 C9.703125,2.953125 10.515625,3.1875 11.40625,3.84375 L11.5,6.546875 L10.703125,6.546875 L10.203125,3.9375 C9.765625,3.703125 9.34375,3.59375 8.8125,3.59375 C6.953125,3.59375 5.640625,5.375 5.640625,9.359375 C5.640625,13.21875 6.90625,15.046875 8.859375,15.046875 C9.34375,15.046875 9.71875,14.96875 10.125,14.8125 L10.578125,12.1875 L11.359375,12.1875 L11.296875,14.875 C10.484375,15.40625 9.75,15.703125 8.6875,15.703125 C6.046875,15.703125 4.078125,13.65625 4.078125,9.359375 C4.078125,4.984375 5.96875,2.953125 8.640625,2.953125 Z M15.53125,3.21875 L19.921875,3.21875 L20.109375,6.53125 L19.3125,6.53125 L18.8125,3.859375 L16.265625,3.859375 L16.25,8.90625 L16.25,9.765625 L16.265625,14.71875 L17.640625,14.828125 L17.640625,15.4375 L13.46875,15.4375 L13.46875,14.828125 L14.65625,14.71875 L14.6875,9.765625 L14.6875,8.90625 L14.65625,3.9375 L13.46875,3.84375 L13.46875,3.21875 Z" transform="translate(0, 19.921875) scale(1, -1)"/>
</svg>