<svg height="21.882353" viewBox="0 0 1088 992" width="24" xmlns="http://www.w3.org/2000/svg">
<g transform="translate(-96, 800) scale(1, -1)">
<g>
<g>
<clipPath id="clip-0-1">
<path d="M1083,777 L1162,-161 Q1163,-170 1157,-177 Q1150,-185 1140,-185 L944,-185 Q924,-185 922,-165 L883,235 L731,-170 Q731,-171 731,-170 Q730,-173 728,-176 Q728,-176 728,-176 Q727,-177 727,-177 Q725,-179 724,-180 Q723,-180 722,-181 Q720,-182 718,-183 Q718,-183 717,-184 Q713,-185 711,-185 L564,-185 Q561,-185 558,-184 Q558,-184 557,-183 Q554,-182 553,-181 L551,-180 Q549,-178 548,-177 Q547,-177 547,-176.5 Q547,-176 547,-176 L546,-176 Q545,-173 544,-170 Q544,-170 543,-170 L392,235 L353,-164 Q351,-185 331,-185 L135,-185 Q125,-185 118,-177 Q112,-170 113,-160 L192,777 Q192,777 192,777 Q192,777 192,777 Q192,781 194,784 Q194,784 195,786 Q196,788 196,788 Q197,789 199,791 Q199,791 199,791 Q199,791 199,791 Q201,793 205,795 Q205,795 207,796 Q211,797 214,797 L423,797 Q427,797 431,795 Q432,795 433,794 Q436,793 438,791 Q438,790 438.5,790 Q439,790 440,790 Q440,789 440,789 Q442,786 444,783 Q444,781 444,782 Q444,782 444,781.5 Q444,781 444,781 L638,152 L831,781 Q831,781 831,781.5 Q831,782 831,782 Q831,781 831,783 Q833,786 835,789 Q835,790 835,790 Q836,790 836,790 Q836,790 837,791 Q839,793 842,794 Q842,795 842.5,795 Q843,795 844,795 Q848,797 852,797 L1061,797 Q1064,797 1068,796 Q1069,795 1070,795 Q1074,793 1076,791 Q1076,791 1076,791 Q1076,791 1076,791 Q1078,789 1079,788 Q1079,787 1079.5,786.5 Q1080,786 1080,786 Q1080,785 1080.5,784.5 Q1081,784 1081,784 Q1083,780 1083,777 Q1083,777 1083,777 Q1083,777 1083,777 Z" transform="matrix(1 0 0 1 0 0)"/>
</clipPath>
<g clip-path="url(#clip-0-1)">
<path d="M96,-192 L1184,-192 L1184,800 L96,800 Z" fill="rgb(64, 192, 231)" transform="matrix(1 0 0 1 0 0)"/>
</g>
</g>
</g>
</g>
</svg>