<svg height="22.328125" viewBox="0 0 24 22.328125" width="24" xmlns="http://www.w3.org/2000/svg">
<path d="M7.625,3.21875 L7.625,4.015625 L9.359375,4.171875 C9.390625,5.734375 9.390625,7.3125 9.390625,8.90625 L9.390625,9.75 C9.390625,11.328125 9.390625,12.90625 9.359375,14.5 L7.625,14.65625 L7.625,15.4375 L13.296875,15.4375 C16.796875,15.4375 18.21875,14.09375 18.21875,11.859375 C18.21875,9.625 16.75,8.0625 12.984375,8.0625 L11.28125,8.0625 C11.28125,6.859375 11.28125,5.546875 11.296875,4.171875 L13.296875,4.015625 L13.296875,3.21875 Z M13.296875,14.609375 L11.296875,14.609375 C11.28125,13.015625 11.28125,11.375 11.28125,9.75 L11.28125,8.875 L13.015625,8.875 C15.34375,8.875 16.390625,10.015625 16.390625,11.859375 C16.390625,13.609375 15.40625,14.609375 13.296875,14.609375 Z M12,-2.046875 C18.171875,-2.046875 23.0625,2.828125 23.0625,9.125 C23.0625,15.390625 18.171875,20.28125 12,20.28125 C5.828125,20.28125 0.9375,15.390625 0.9375,9.125 C0.9375,2.859375 5.828125,-2.046875 12,-2.046875 Z" transform="translate(0, 20.28125) scale(1, -1)"/>
</svg>