<svg height="22.359375" viewBox="0 0 24 22.359375" width="24" xmlns="http://www.w3.org/2000/svg">
<path d="M21.8125,9.125 C21.8125,5.65625 20.90625,2.09375 18.1875,-1.625 L18.71875,-2.0625 C22.03125,1.703125 23.203125,5.453125 23.203125,9.125 C23.203125,12.796875 22.03125,16.53125 18.71875,20.296875 L18.1875,19.875 C20.90625,16.15625 21.8125,12.578125 21.8125,9.125 Z M2.1875,9.125 C2.1875,12.578125 3.09375,16.15625 5.8125,19.875 L5.28125,20.296875 C1.96875,16.53125 0.796875,12.796875 0.796875,9.125 C0.796875,5.453125 1.96875,1.703125 5.28125,-2.0625 L5.8125,-1.625 C3.09375,2.09375 2.1875,5.65625 2.1875,9.125 Z M13.296875,17.015625 L14.953125,16.875 L12.453125,10.78125 L9.84375,16.890625 L11.609375,17.015625 L11.609375,17.765625 L6.1875,17.765625 L6.1875,17.015625 L7.796875,16.890625 L11.1875,8.859375 L7.734375,1.609375 L6,1.46875 L6,0.71875 L10.53125,0.71875 L10.53125,1.46875 L8.875,1.609375 L11.59375,7.890625 L14.25,1.609375 L12.59375,1.46875 L12.59375,0.71875 L18,0.71875 L18,1.46875 L16.3125,1.609375 L12.84375,9.84375 L16.0625,16.875 L17.828125,17.015625 L17.828125,17.765625 L13.296875,17.765625 Z" transform="translate(0, 20.296875) scale(1, -1)"/>
</svg>