<svg height="17.609375" viewBox="0 0 24 17.609375" width="24" xmlns="http://www.w3.org/2000/svg">
<path d="M16.4375,9.046875 L22.34375,9.046875 L22.34375,0.640625 Q20.96875,0.203125 19.546875,-0.015625 Q18.125,-0.234375 16.328125,-0.234375 Q13.671875,-0.234375 11.84375,0.828125 Q10.015625,1.90625 9.0625,3.875 Q8.125,5.84375 8.125,8.5625 Q8.125,11.25 9.171875,13.21875 Q10.21875,15.203125 12.203125,16.28125 Q14.1875,17.375 17,17.375 Q18.453125,17.375 19.734375,17.109375 Q21.015625,16.84375 22.109375,16.375 L21.296875,14.5 Q20.375,14.890625 19.234375,15.1875 Q18.109375,15.484375 16.875,15.484375 Q14.828125,15.484375 13.375,14.640625 Q11.921875,13.8125 11.140625,12.265625 Q10.375,10.71875 10.375,8.5625 Q10.375,6.515625 11.03125,4.953125 Q11.6875,3.390625 13.109375,2.5 Q14.53125,1.625 16.828125,1.625 Q17.96875,1.625 18.75,1.75 Q19.546875,1.890625 20.1875,2.046875 L20.1875,7.125 L16.4375,7.125 Z" transform="translate(-3.234375, 17.375) scale(1, -1)"/>
</svg>