<svg height="21.609375" viewBox="0 0 24 21.609375" width="24" xmlns="http://www.w3.org/2000/svg">
<path d="M6.796875,3.21875 L6.796875,4.015625 L8.515625,4.171875 C8.546875,5.734375 8.546875,7.3125 8.546875,8.90625 L8.546875,9.75 C8.546875,11.328125 8.546875,12.90625 8.515625,14.5 L6.796875,14.65625 L6.796875,15.4375 L12.09375,15.4375 C15.9375,15.4375 18.3125,13.21875 18.3125,9.359375 C18.3125,5.5625 15.9375,3.21875 11.96875,3.21875 Z M10.4375,8.90625 C10.4375,7.296875 10.4375,5.65625 10.4375,4.0625 L11.609375,4.0625 C14.734375,4.0625 16.375,5.8125 16.375,9.3125 C16.375,12.984375 14.71875,14.609375 11.765625,14.609375 L10.4375,14.609375 C10.4375,13.015625 10.4375,11.375 10.4375,9.75 Z M6.125,-1.6875 L17.875,-1.6875 C20.90625,-1.6875 22.6875,0.09375 22.6875,3.125 L22.6875,15.125 C22.6875,18.140625 20.90625,19.921875 17.875,19.921875 L6.125,19.921875 C3.09375,19.921875 1.3125,18.140625 1.3125,15.125 L1.3125,3.125 C1.3125,0.09375 3.09375,-1.6875 6.125,-1.6875 Z" transform="translate(0, 19.921875) scale(1, -1)"/>
</svg>