<svg height="25.6" viewBox="0 0 960 1024" width="24" xmlns="http://www.w3.org/2000/svg">
<g transform="translate(-160, 832) scale(1, -1)">
<g>
<g>
<clipPath id="clip-0-1">
<path d="M1086,806 Q1095,806 1101,800 Q1107,794 1107,785 L1107,616 Q1107,608 1101,601.5 Q1095,595 1086,595 L761,595 L761,-161 Q761,-170 755,-176 Q749,-182 740,-182 L535,-182 Q526,-182 520,-176 Q514,-170 514,-161 L514,595 L189,595 Q180,595 174,601.5 Q168,608 168,616 L168,785 Q168,794 174,800 Q180,806 189,806 Z" transform="matrix(1 0 0 1 0 0)"/>
</clipPath>
<g clip-path="url(#clip-0-1)">
<path d="M160,-192 L1120,-192 L1120,832 L160,832 Z" fill="rgb(64, 192, 231)" transform="matrix(1 0 0 1 0 0)"/>
</g>
</g>
</g>
</g>
</svg>