<svg height="22.359375" viewBox="0 0 24 22.359375" width="24" xmlns="http://www.w3.org/2000/svg">
<path d="M21.8125,9.125 C21.8125,5.65625 20.90625,2.09375 18.1875,-1.625 L18.71875,-2.0625 C22.03125,1.703125 23.203125,5.453125 23.203125,9.125 C23.203125,12.796875 22.03125,16.53125 18.71875,20.296875 L18.1875,19.875 C20.90625,16.15625 21.8125,12.578125 21.8125,9.125 Z M2.1875,9.125 C2.1875,12.578125 3.09375,16.15625 5.8125,19.875 L5.28125,20.296875 C1.96875,16.53125 0.796875,12.796875 0.796875,9.125 C0.796875,5.453125 1.96875,1.703125 5.28125,-2.0625 L5.8125,-1.625 C3.09375,2.09375 2.1875,5.65625 2.1875,9.125 Z M6.59375,17.015625 L8.09375,16.890625 C8.140625,14.5625 8.140625,12.21875 8.140625,9.890625 L8.140625,8.609375 C8.140625,6.234375 8.140625,3.890625 8.09375,1.578125 L6.59375,1.46875 L6.59375,0.71875 L11.046875,0.71875 C14.90625,0.71875 17.328125,3.03125 17.328125,9.234375 C17.328125,15.703125 14.859375,17.765625 11.0625,17.765625 L6.59375,17.765625 Z M10.203125,1.515625 C10.15625,3.859375 10.15625,6.234375 10.15625,8.609375 L10.15625,9.890625 C10.15625,12.265625 10.15625,14.640625 10.203125,16.96875 L10.96875,16.96875 C13.75,16.96875 15.21875,15.234375 15.21875,9.234375 C15.21875,3.265625 13.625,1.515625 10.9375,1.515625 Z" transform="translate(0, 20.296875) scale(1, -1)"/>
</svg>