<svg height="18.3125" viewBox="0 0 24 18.3125" width="24" xmlns="http://www.w3.org/2000/svg">
<path d="M16.875,17.15625 L19.125,17.015625 L19.171875,4.96875 C19.171875,1.484375 18.046875,0.390625 16.578125,0.390625 L16.21875,0.40625 L15.359375,2.65625 C15.078125,3.453125 14.765625,3.671875 14.328125,3.671875 C13.84375,3.671875 13.484375,3.390625 13.375,2.8125 C13.609375,0.703125 15,-0.390625 16.9375,-0.390625 C18.1875,-0.390625 18.984375,-0.046875 19.703125,0.703125 C20.609375,1.578125 21.125,3 21.125,5.609375 L21.125,9.625 C21.125,12.140625 21.125,14.59375 21.140625,17.015625 L22.9375,17.15625 L22.9375,17.921875 L16.875,17.921875 Z M1.296875,17.15625 L2.78125,17.015625 C2.828125,14.5625 2.828125,12.09375 2.828125,9.640625 L2.828125,8.296875 C2.828125,5.828125 2.828125,3.34375 2.78125,0.90625 L1.296875,0.765625 L1.296875,0 L5.71875,0 C9.5,0 11.875,2.5 11.875,8.96875 C11.875,15.703125 9.4375,17.921875 5.734375,17.921875 L1.296875,17.921875 Z M4.796875,0.8125 C4.78125,3.28125 4.78125,5.8125 4.78125,8.328125 L4.78125,9.640625 C4.78125,12.140625 4.78125,14.640625 4.796875,17.09375 L5.609375,17.09375 C8.40625,17.09375 9.84375,15.234375 9.84375,8.96875 C9.84375,2.734375 8.28125,0.8125 5.5625,0.8125 Z" transform="translate(-0.1171875, 17.921875) scale(1, -1)"/>
</svg>