<svg height="24" viewBox="0 0 24 24" width="24" xmlns="http://www.w3.org/2000/svg">
<path d="M14.234375,0 L8.59375,15.03125 L8.5,15.03125 Q8.546875,14.53125 8.578125,13.796875 Q8.625,13.0625 8.640625,12.1875 Q8.671875,11.3125 8.671875,10.390625 L8.671875,0 L6.6875,0 L6.6875,17.140625 L9.875,17.140625 L15.15625,3.09375 L15.25,3.09375 L20.625,17.140625 L23.796875,17.140625 L23.796875,0 L21.65625,0 L21.65625,10.53125 Q21.65625,11.375 21.6875,12.203125 Q21.71875,13.03125 21.75,13.75 Q21.78125,14.484375 21.828125,15 L21.734375,15 L16.015625,0 Z" transform="translate(-3.2421875, 17.140625) scale(1, -1)"/>
</svg>