<svg height="21.609375" viewBox="0 0 24 21.609375" width="24" xmlns="http://www.w3.org/2000/svg">
<path d="M7.578125,2.953125 C10.015625,2.953125 11.28125,5.1875 11.28125,9.3125 C11.28125,13.46875 10.015625,15.671875 7.578125,15.671875 C5.140625,15.671875 3.84375,13.46875 3.84375,9.3125 C3.84375,5.1875 5.140625,2.953125 7.578125,2.953125 Z M7.578125,3.59375 C6,3.59375 5.359375,5.65625 5.359375,9.3125 C5.359375,12.953125 6,15 7.578125,15 C9.125,15 9.765625,12.953125 9.765625,9.3125 C9.765625,5.65625 9.125,3.59375 7.578125,3.59375 Z M1.3125,-1.6875 L22.6875,-1.6875 L22.6875,19.921875 L1.3125,19.921875 Z M2.046875,-0.984375 L2.046875,19.21875 L21.953125,19.21875 L21.953125,-0.984375 Z M17.375,14.828125 L18.671875,14.6875 L15.21875,8.640625 L15.21875,9.765625 L15.234375,14.71875 L16.390625,14.828125 L16.390625,15.4375 L12.703125,15.4375 L12.703125,14.828125 L13.703125,14.734375 C13.734375,13.078125 13.734375,11.421875 13.734375,9.765625 L13.734375,8.90625 L13.703125,3.9375 L12.703125,3.84375 L12.703125,3.21875 L16.3125,3.21875 L16.3125,3.84375 L15.234375,3.9375 L15.21875,7.78125 L16.3125,9.59375 L18.390625,3.9375 L17.328125,3.84375 L17.328125,3.21875 L20.875,3.21875 L20.875,3.84375 L19.984375,3.9375 L17.28125,11.140625 L19.4375,14.6875 L20.546875,14.828125 L20.546875,15.4375 L17.375,15.4375 Z" transform="translate(0, 19.921875) scale(1, -1)"/>
</svg>