<svg height="22.359375" viewBox="0 0 24 22.359375" width="24" xmlns="http://www.w3.org/2000/svg">
<path d="M21.8125,9.125 C21.8125,5.65625 20.90625,2.09375 18.1875,-1.625 L18.71875,-2.0625 C22.03125,1.703125 23.203125,5.453125 23.203125,9.125 C23.203125,12.796875 22.03125,16.53125 18.71875,20.296875 L18.1875,19.875 C20.90625,16.15625 21.8125,12.578125 21.8125,9.125 Z M2.1875,9.125 C2.1875,12.578125 3.09375,16.15625 5.8125,19.875 L5.28125,20.296875 C1.96875,16.53125 0.796875,12.796875 0.796875,9.125 C0.796875,5.453125 1.96875,1.703125 5.28125,-2.0625 L5.8125,-1.625 C3.09375,2.09375 2.1875,5.65625 2.1875,9.125 Z M12.953125,17.015625 L14.46875,16.890625 C14.515625,14.640625 14.515625,12.359375 14.515625,10.078125 L9.5,10.078125 C9.5,12.359375 9.5,14.640625 9.53125,16.890625 L11.046875,17.015625 L11.046875,17.765625 L5.921875,17.765625 L5.921875,17.015625 L7.421875,16.890625 C7.46875,14.59375 7.46875,12.234375 7.46875,9.890625 L7.46875,8.609375 C7.46875,6.265625 7.46875,3.90625 7.421875,1.578125 L5.921875,1.46875 L5.921875,0.71875 L11.046875,0.71875 L11.046875,1.46875 L9.53125,1.578125 C9.5,3.890625 9.5,6.28125 9.5,9.28125 L14.515625,9.28125 C14.515625,6.28125 14.515625,3.890625 14.46875,1.578125 L12.953125,1.46875 L12.953125,0.71875 L18.078125,0.71875 L18.078125,1.46875 L16.578125,1.578125 C16.53125,3.90625 16.53125,6.265625 16.53125,8.609375 L16.53125,9.890625 C16.53125,12.234375 16.53125,14.5625 16.578125,16.890625 L18.078125,17.015625 L18.078125,17.765625 L12.953125,17.765625 Z" transform="translate(0, 20.296875) scale(1, -1)"/>
</svg>