<svg height="22.125" viewBox="0 0 24 22.125" width="24" xmlns="http://www.w3.org/2000/svg">
<path d="M7.65625,0 L9.578125,0 L16.421875,16.796875 L16.421875,17.921875 L4.984375,17.921875 L4.984375,16.203125 L15.1875,16.203125 L7.515625,0.140625 Z M15.484375,-4.203125 C17.515625,-3.28125 18.953125,-1.890625 18.953125,0.59375 C18.953125,1.21875 18.890625,1.53125 18.703125,2.015625 C18.34375,2.328125 18,2.453125 17.5,2.453125 C16.65625,2.453125 16.125,1.828125 16.125,1.15625 C16.125,0.484375 16.515625,0 17.8125,-0.75 C17.453125,-2.09375 16.625,-2.78125 15.171875,-3.53125 Z" transform="translate(0.03125, 17.921875) scale(1, -1)"/>
</svg>