<svg height="21.609375" viewBox="0 0 24 21.609375" width="24" xmlns="http://www.w3.org/2000/svg">
<path d="M8.25,3.140625 L5.15625,14.515625 L3.890625,14.65625 L3.890625,15.4375 L8.609375,15.4375 L8.609375,14.65625 L7.15625,14.515625 L9.390625,5.546875 L11.765625,14.5 L10.25,14.65625 L10.25,15.4375 L15.03125,15.4375 L15.03125,14.65625 L13.484375,14.5 L15.84375,5.515625 L18.046875,14.515625 L16.53125,14.65625 L16.53125,15.4375 L20.28125,15.4375 L20.28125,14.65625 L18.890625,14.515625 L15.953125,3.140625 L14.765625,3.140625 L12.09375,12.859375 L9.4375,3.140625 Z M6.125,-1.6875 L17.875,-1.6875 C20.90625,-1.6875 22.6875,0.09375 22.6875,3.125 L22.6875,15.125 C22.6875,18.140625 20.90625,19.921875 17.875,19.921875 L6.125,19.921875 C3.09375,19.921875 1.3125,18.140625 1.3125,15.125 L1.3125,3.125 C1.3125,0.09375 3.09375,-1.6875 6.125,-1.6875 Z" transform="translate(0, 19.921875) scale(1, -1)"/>
</svg>