<svg height="30.72" viewBox="0 0 800 1024" width="24" xmlns="http://www.w3.org/2000/svg">
<g transform="translate(-256, 832) scale(1, -1)">
<g>
<g>
<clipPath id="clip-0-1">
<path d="M717,805 Q787,805 848,779 Q909,753 955.5,707.5 Q1002,662 1028,601.5 Q1054,541 1054,472 Q1054,403 1028,342.5 Q1002,282 955.5,236 Q909,190 848,164 Q787,138 717,138 L524,138 L524,-163 Q524,-172 518,-178 Q512,-184 503,-184 L298,-184 Q289,-184 283,-178 Q277,-172 277,-163 L277,784 Q277,792 283,798.5 Q289,805 298,805 L358,805 Q359,805 360,805 Q361,805 362,805 Z M701,335 Q735,337 763,356 Q791,375 807.5,405 Q824,435 824,472 Q824,508 807.5,538 Q791,568 763.5,587 Q736,606 702,609 Q695,609 691,609 L528,609 Q528,609 526,609 Q525,608 524,608 Q522,606 522,604 L522,340 Q522,337 524,336 Q525,335 526,335 Q528,334 528,334 L691,334 Q695,334 701,335 Z" transform="matrix(1 0 0 1 0 0)"/>
</clipPath>
<g clip-path="url(#clip-0-1)">
<path d="M256,-192 L1056,-192 L1056,832 L256,832 Z" fill="rgb(64, 192, 231)" transform="matrix(1 0 0 1 0 0)"/>
</g>
</g>
</g>
</g>
</svg>