<svg height="22.328125" viewBox="0 0 24 22.328125" width="24" xmlns="http://www.w3.org/2000/svg">
<path d="M8.25,3.140625 L5.15625,14.515625 L3.890625,14.65625 L3.890625,15.4375 L8.609375,15.4375 L8.609375,14.65625 L7.15625,14.515625 L9.390625,5.546875 L11.765625,14.5 L10.25,14.65625 L10.25,15.4375 L15.03125,15.4375 L15.03125,14.65625 L13.484375,14.5 L15.84375,5.515625 L18.046875,14.515625 L16.53125,14.65625 L16.53125,15.4375 L20.28125,15.4375 L20.28125,14.65625 L18.890625,14.515625 L15.953125,3.140625 L14.765625,3.140625 L12.09375,12.859375 L9.4375,3.140625 Z M12,-2.046875 C18.171875,-2.046875 23.0625,2.828125 23.0625,9.125 C23.0625,15.390625 18.171875,20.28125 12,20.28125 C5.828125,20.28125 0.9375,15.390625 0.9375,9.125 C0.9375,2.859375 5.828125,-2.046875 12,-2.046875 Z" transform="translate(0, 20.28125) scale(1, -1)"/>
</svg>