<svg height="22.359375" viewBox="0 0 24 22.359375" width="24" xmlns="http://www.w3.org/2000/svg">
<path d="M21.8125,9.125 C21.8125,5.65625 20.90625,2.09375 18.1875,-1.625 L18.71875,-2.0625 C22.03125,1.703125 23.203125,5.453125 23.203125,9.125 C23.203125,12.796875 22.03125,16.53125 18.71875,20.296875 L18.1875,19.875 C20.90625,16.15625 21.8125,12.578125 21.8125,9.125 Z M2.1875,9.125 C2.1875,12.578125 3.09375,16.15625 5.8125,19.875 L5.28125,20.296875 C1.96875,16.53125 0.796875,12.796875 0.796875,9.125 C0.796875,5.453125 1.96875,1.703125 5.28125,-2.0625 L5.8125,-1.625 C3.09375,2.09375 2.1875,5.65625 2.1875,9.125 Z M6.40625,13.25 L7.46875,13.25 L8.046875,16.96875 L10.921875,16.96875 C10.96875,14.609375 10.96875,12.234375 10.96875,9.890625 L10.96875,8.609375 C10.96875,6.265625 10.96875,3.890625 10.921875,1.609375 L8.1875,1.46875 L8.1875,0.71875 L15.8125,0.71875 L15.8125,1.46875 L13.109375,1.578125 C13.0625,3.90625 13.0625,6.265625 13.0625,8.609375 L13.0625,9.890625 C13.0625,12.265625 13.0625,14.640625 13.109375,16.96875 L15.984375,16.96875 L16.53125,13.25 L17.59375,13.25 L17.40625,17.765625 L6.59375,17.765625 Z" transform="translate(0, 20.296875) scale(1, -1)"/>
</svg>