<svg height="22.359375" viewBox="0 0 24 22.359375" width="24" xmlns="http://www.w3.org/2000/svg">
<path d="M21.8125,9.125 C21.8125,5.65625 20.90625,2.09375 18.1875,-1.625 L18.71875,-2.0625 C22.03125,1.703125 23.203125,5.453125 23.203125,9.125 C23.203125,12.796875 22.03125,16.53125 18.71875,20.296875 L18.1875,19.875 C20.90625,16.15625 21.8125,12.578125 21.8125,9.125 Z M2.1875,9.125 C2.1875,12.578125 3.09375,16.15625 5.8125,19.875 L5.28125,20.296875 C1.96875,16.53125 0.796875,12.796875 0.796875,9.125 C0.796875,5.453125 1.96875,1.703125 5.28125,-2.0625 L5.8125,-1.625 C3.09375,2.09375 2.1875,5.65625 2.1875,9.125 Z M6.703125,17.015625 L8.359375,16.890625 C8.40625,14.5625 8.40625,12.234375 8.40625,9.890625 L8.40625,8.609375 C8.40625,6.265625 8.40625,3.890625 8.359375,1.578125 L6.671875,1.46875 L6.671875,0.71875 L12.578125,0.71875 L12.578125,1.46875 L10.484375,1.609375 C10.46875,3.90625 10.46875,6.28125 10.46875,8.640625 L10.46875,8.953125 L11.359375,8.953125 C13.125,8.953125 13.6875,8.15625 13.984375,6.234375 L14.734375,2.140625 C14.859375,1.015625 15.546875,0.546875 17.046875,0.546875 C17.6875,0.546875 18.21875,0.625 18.671875,0.71875 L18.671875,1.46875 L16.875,1.578125 L16.015625,6.078125 C15.71875,7.984375 15.125,9 13.15625,9.3125 C15.71875,9.765625 16.890625,11.421875 16.890625,13.421875 C16.890625,16.25 15.234375,17.765625 11.765625,17.765625 L6.703125,17.765625 Z M10.46875,9.703125 L10.46875,9.84375 C10.46875,12.28125 10.46875,14.609375 10.484375,16.96875 L11.375,16.96875 C13.921875,16.96875 14.921875,15.671875 14.921875,13.296875 C14.921875,11.15625 13.65625,9.703125 11.6875,9.703125 Z" transform="translate(0, 20.296875) scale(1, -1)"/>
</svg>