<svg height="21.609375" viewBox="0 0 24 21.609375" width="24" xmlns="http://www.w3.org/2000/svg">
<path d="M19.46875,3.03125 C20.09375,3.03125 20.546875,3.53125 20.546875,4.078125 C20.546875,4.734375 20.09375,5.203125 19.46875,5.203125 C18.8125,5.203125 18.359375,4.734375 18.359375,4.078125 C18.359375,3.53125 18.8125,3.03125 19.46875,3.03125 Z M19.203125,6.953125 L19.734375,6.953125 L20.015625,9.3125 C20.296875,11.96875 20.453125,13.625 20.453125,14.546875 C20.453125,15.3125 20.109375,15.703125 19.4375,15.703125 C18.796875,15.703125 18.484375,15.3125 18.484375,14.546875 C18.484375,13.625 18.625,11.96875 18.890625,9.3125 Z M1.3125,-1.6875 L22.6875,-1.6875 L22.6875,19.921875 L1.3125,19.921875 Z M2.046875,-0.984375 L2.046875,19.21875 L21.953125,19.21875 L21.953125,-0.984375 Z M7.796875,14.859375 L8.734375,14.734375 L8.765625,6.40625 C8.765625,4.578125 8.140625,3.9375 7.03125,3.9375 C5.96875,3.9375 5.328125,4.5625 5.328125,6.28125 L5.328125,9.765625 C5.328125,11.46875 5.328125,13.125 5.359375,14.765625 L6.359375,14.859375 L6.359375,15.4375 L3.046875,15.4375 L3.046875,14.859375 L3.890625,14.765625 C3.90625,13.109375 3.90625,11.453125 3.90625,9.765625 L3.90625,6.359375 C3.90625,3.71875 5.046875,2.953125 6.671875,2.953125 C8.359375,2.953125 9.390625,3.84375 9.390625,6.390625 L9.40625,14.734375 L10.15625,14.859375 L10.15625,15.4375 L7.796875,15.4375 Z M10.828125,14.828125 L11.78125,14.734375 L11.8125,9.765625 L11.8125,8.875 L11.78125,3.9375 L10.796875,3.84375 L10.796875,3.21875 L14.59375,3.21875 L14.59375,3.84375 L13.25,3.9375 L13.21875,8.109375 L13.75,8.109375 C15.953125,8.109375 17.234375,9.1875 17.234375,11.765625 C17.234375,14.234375 16.25,15.4375 13.96875,15.4375 L10.828125,15.4375 Z M13.21875,8.71875 L13.21875,9.765625 C13.21875,11.453125 13.21875,13.125 13.25,14.8125 L13.84375,14.8125 C15.234375,14.8125 15.765625,13.921875 15.765625,11.859375 C15.765625,9.640625 15.140625,8.71875 13.703125,8.71875 Z" transform="translate(0, 19.921875) scale(1, -1)"/>
</svg>