<svg height="21.609375" viewBox="0 0 24 21.609375" width="24" xmlns="http://www.w3.org/2000/svg">
<path d="M1.3125,-1.6875 L22.6875,-1.6875 L22.6875,19.921875 L1.3125,19.921875 Z M2.046875,-0.984375 L2.046875,19.21875 L21.953125,19.21875 L21.953125,-0.984375 Z M18.90625,14.875 L19.796875,14.765625 L18.21875,5.46875 L16.6875,14.765625 L17.59375,14.875 L17.59375,15.4375 L14.5625,15.4375 L14.5625,14.859375 L15.234375,14.765625 L17.421875,3.140625 L18.3125,3.140625 L20.5,14.765625 L21.1875,14.859375 L21.1875,15.4375 L18.90625,15.4375 Z M3.28125,14.90625 L3.984375,14.828125 C4.015625,13.15625 4.015625,11.453125 4.015625,9.75 L4.015625,8.859375 C4.015625,7.171875 4.015625,5.46875 3.984375,3.8125 L3.265625,3.75 L3.265625,3.21875 L6.1875,3.21875 L6.1875,3.75 L5.203125,3.8125 L5.1875,8.140625 L5.515625,8.140625 C7.375,8.140625 8.453125,9.28125 8.453125,11.8125 C8.453125,14.25 7.609375,15.4375 5.71875,15.4375 L3.28125,15.4375 Z M5.1875,8.65625 L5.1875,9.75 C5.1875,11.453125 5.1875,13.171875 5.203125,14.875 L5.609375,14.875 C6.71875,14.875 7.203125,13.984375 7.203125,11.875 C7.203125,9.640625 6.640625,8.65625 5.515625,8.65625 Z M9.28125,14.90625 L9.984375,14.828125 C10.015625,13.15625 10.015625,11.453125 10.015625,9.75 L10.015625,8.859375 C10.015625,7.171875 10.015625,5.46875 9.984375,3.8125 L9.265625,3.75 L9.265625,3.21875 L12.1875,3.21875 L12.1875,3.75 L11.203125,3.8125 L11.1875,8.140625 L11.515625,8.140625 C13.375,8.140625 14.453125,9.28125 14.453125,11.8125 C14.453125,14.25 13.609375,15.4375 11.71875,15.4375 L9.28125,15.4375 Z M11.1875,8.65625 L11.1875,9.75 C11.1875,11.453125 11.1875,13.171875 11.203125,14.875 L11.609375,14.875 C12.71875,14.875 13.203125,13.984375 13.203125,11.875 C13.203125,9.640625 12.640625,8.65625 11.515625,8.65625 Z" transform="translate(0, 19.921875) scale(1, -1)"/>
</svg>