<svg height="22.328125" viewBox="0 0 24 22.328125" width="24" xmlns="http://www.w3.org/2000/svg">
<path d="M6.4375,3.21875 L6.4375,4.015625 L8.1875,4.171875 C8.203125,5.734375 8.1875,7.3125 8.1875,8.90625 L8.1875,9.75 C8.1875,11.328125 8.203125,12.90625 8.1875,14.5 L6.4375,14.65625 L6.4375,15.4375 L12.40625,15.4375 C15.140625,15.4375 16.6875,14.328125 16.6875,12.3125 C16.6875,10.875 15.703125,9.578125 13.515625,9.1875 C15.125,8.90625 15.453125,8.15625 15.890625,6.796875 L16.84375,4.171875 L18.703125,4.015625 L18.703125,3.21875 C18.078125,3.078125 17.65625,3.03125 16.96875,3.03125 C15.625,3.03125 15.09375,3.4375 14.828125,4.4375 L13.921875,7.015625 C13.53125,8.203125 13.171875,8.8125 11.828125,8.8125 L10.0625,8.8125 C10.0625,7.125 10.0625,5.640625 10.078125,4.171875 L12,4.015625 L12,3.21875 Z M11.90625,14.609375 L10.078125,14.609375 C10.0625,13.015625 10.0625,11.328125 10.0625,9.59375 L12.046875,9.59375 C13.84375,9.59375 14.8125,10.703125 14.8125,12.1875 C14.8125,13.84375 13.84375,14.609375 11.90625,14.609375 Z M12,-2.046875 C18.171875,-2.046875 23.0625,2.828125 23.0625,9.125 C23.0625,15.390625 18.171875,20.28125 12,20.28125 C5.828125,20.28125 0.9375,15.390625 0.9375,9.125 C0.9375,2.859375 5.828125,-2.046875 12,-2.046875 Z" transform="translate(0, 20.28125) scale(1, -1)"/>
</svg>