<svg height="22.328125" viewBox="0 0 24 22.328125" width="24" xmlns="http://www.w3.org/2000/svg">
<path d="M5.40625,3.21875 L5.40625,4.015625 L7.265625,4.171875 L7.265625,14.328125 L7.109375,14.515625 L5.40625,14.65625 L5.40625,15.4375 L8.96875,15.4375 L16.03125,6 L16.03125,14.5 L13.9375,14.65625 L13.9375,15.4375 L18.8125,15.4375 L18.8125,14.65625 L16.9375,14.5 L16.9375,3.140625 L15.75,3.140625 L8.1875,13.296875 L8.15625,4.203125 L10.265625,4.015625 L10.265625,3.21875 Z M12,-2.046875 C18.171875,-2.046875 23.0625,2.828125 23.0625,9.125 C23.0625,15.390625 18.171875,20.28125 12,20.28125 C5.828125,20.28125 0.9375,15.390625 0.9375,9.125 C0.9375,2.859375 5.828125,-2.046875 12,-2.046875 Z" transform="translate(0, 20.28125) scale(1, -1)"/>
</svg>