<svg height="21.609375" viewBox="0 0 24 21.609375" width="24" xmlns="http://www.w3.org/2000/svg">
<path d="M1.3125,-1.6875 L22.6875,-1.6875 L22.6875,19.921875 L1.3125,19.921875 Z M2.046875,-0.984375 L2.046875,19.21875 L21.953125,19.21875 L21.953125,-0.984375 Z M12.984375,8.6875 L15.046875,8.515625 L15.078125,4.9375 L15.078125,4.078125 C14.28125,3.71875 13.515625,3.578125 12.578125,3.578125 C9.8125,3.578125 7.84375,5.65625 7.84375,9.3125 C7.84375,12.9375 9.8125,15.078125 12.640625,15.078125 C13.625,15.078125 14.40625,14.90625 15.1875,14.515625 L15.640625,12.03125 L16.4375,12.03125 L16.421875,14.734375 C15.234375,15.4375 13.96875,15.71875 12.484375,15.71875 C8.609375,15.71875 6.125,13.171875 6.125,9.3125 C6.125,5.40625 8.640625,2.921875 12.390625,2.921875 C14.015625,2.921875 15.234375,3.1875 16.65625,4.03125 L16.65625,4.890625 L16.6875,8.546875 L18.140625,8.6875 L18.140625,9.3125 L12.984375,9.3125 Z" transform="translate(0, 19.921875) scale(1, -1)"/>
</svg>