<svg height="24" viewBox="0 0 24 24" width="24" xmlns="http://www.w3.org/2000/svg">
<path d="M7.703125,9.765625 L10.15625,9.765625 L10.15625,10.3125 L9.140625,10.421875 L9.140625,16.828125 L10.15625,16.921875 L10.15625,17.46875 L7.75,17.46875 L5.40625,11.859375 L2.953125,17.46875 L0.640625,17.46875 L0.640625,16.921875 L1.65625,16.828125 L1.625,10.46875 L0.53125,10.3125 L0.53125,9.765625 L3.265625,9.765625 L3.265625,10.3125 L2.1875,10.46875 L2.1875,15.859375 L4.796875,9.765625 L5.1875,9.765625 L7.734375,15.859375 L7.703125,10.421875 L6.765625,10.3125 L6.765625,9.765625 Z M11.046875,16.921875 L12.140625,16.796875 L12.140625,10.4375 L11.046875,10.3125 L11.046875,9.765625 L14.5625,9.765625 L14.5625,10.3125 L13.578125,10.421875 L13.578125,13.265625 L14.296875,13.265625 C15.140625,13.265625 15.34375,12.90625 15.59375,12.125 L16.125,10.53125 C16.3125,9.90625 16.703125,9.671875 17.59375,9.671875 C18.140625,9.671875 18.4375,9.703125 18.75,9.765625 L18.75,10.296875 L17.65625,10.34375 L17.046875,12.078125 C16.78125,12.90625 16.46875,13.375 15.578125,13.515625 C17.046875,13.734375 17.734375,14.546875 17.734375,15.484375 C17.734375,16.6875 16.6875,17.46875 14.765625,17.46875 L11.046875,17.46875 Z M13.578125,16.890625 L14.5625,16.890625 C15.796875,16.890625 16.34375,16.3125 16.34375,15.453125 C16.34375,14.546875 15.75,13.828125 14.59375,13.828125 L13.578125,13.828125 Z" transform="translate(2.359375, 17.46875) scale(1, -1)"/>
</svg>