<svg height="24" viewBox="0 0 24 24" width="24" xmlns="http://www.w3.org/2000/svg">
<path d="M14.96875,9.578125 C15.90625,9.578125 16.625,9.75 17.296875,10.15625 L17.25,11.8125 L16.578125,11.8125 L16.296875,10.34375 C15.9375,10.171875 15.546875,10.109375 15.125,10.109375 C13.609375,10.109375 12.359375,11.25 12.359375,13.578125 C12.359375,15.9375 13.5625,17.109375 15.140625,17.109375 C15.546875,17.109375 15.890625,17.0625 16.203125,16.9375 L16.53125,15.359375 L17.1875,15.359375 L17.234375,17.046875 C16.578125,17.421875 15.9375,17.65625 15,17.65625 C12.703125,17.65625 10.875,16.25 10.875,13.578125 C10.875,10.890625 12.59375,9.578125 14.96875,9.578125 Z M7.734375,9.765625 L10.15625,9.765625 L10.15625,10.3125 L9.171875,10.421875 L9.171875,16.828125 L10.15625,16.921875 L10.15625,17.46875 L7.890625,17.46875 L5.421875,11.875 L2.96875,17.46875 L0.640625,17.46875 L0.640625,16.921875 L1.6875,16.828125 L1.625,10.46875 L0.546875,10.3125 L0.546875,9.765625 L3.265625,9.765625 L3.265625,10.3125 L2.1875,10.46875 L2.203125,15.859375 L4.828125,9.765625 L5.1875,9.765625 L7.734375,15.71875 L7.734375,10.421875 L6.765625,10.3125 L6.765625,9.765625 Z" transform="translate(3.078125, 17.65625) scale(1, -1)"/>
</svg>