<svg height="18.75" viewBox="0 0 24 18.75" width="24" xmlns="http://www.w3.org/2000/svg">
<path d="M9.984375,-0.40625 C13.171875,-0.40625 16.171875,2.25 16.171875,8.96875 C16.171875,15.703125 13.171875,18.34375 9.984375,18.34375 C6.765625,18.34375 3.796875,15.703125 3.796875,8.96875 C3.796875,2.25 6.765625,-0.40625 9.984375,-0.40625 Z M9.984375,0.390625 C7.921875,0.390625 5.96875,2.421875 5.96875,8.96875 C5.96875,15.53125 7.921875,17.59375 9.984375,17.59375 C12.03125,17.59375 13.984375,15.5 13.984375,8.96875 C13.984375,2.421875 12.03125,0.390625 9.984375,0.390625 Z M18.84375,-0.28125 C19.625,-0.28125 20.1875,0.359375 20.1875,1.0625 C20.1875,1.828125 19.625,2.453125 18.84375,2.453125 C18.03125,2.453125 17.46875,1.828125 17.46875,1.0625 C17.46875,0.359375 18.03125,-0.28125 18.84375,-0.28125 Z" transform="translate(0.0078125, 18.34375) scale(1, -1)"/>
</svg>