<svg height="22.359375" viewBox="0 0 24 22.359375" width="24" xmlns="http://www.w3.org/2000/svg">
<path d="M21.8125,9.125 C21.8125,5.65625 20.90625,2.09375 18.1875,-1.625 L18.71875,-2.0625 C22.03125,1.703125 23.203125,5.453125 23.203125,9.125 C23.203125,12.796875 22.03125,16.53125 18.71875,20.296875 L18.1875,19.875 C20.90625,16.15625 21.8125,12.578125 21.8125,9.125 Z M2.1875,9.125 C2.1875,12.578125 3.09375,16.15625 5.8125,19.875 L5.28125,20.296875 C1.96875,16.53125 0.796875,12.796875 0.796875,9.125 C0.796875,5.453125 1.96875,1.703125 5.28125,-2.0625 L5.8125,-1.625 C3.09375,2.09375 2.1875,5.65625 2.1875,9.125 Z M11.328125,15.21875 L13.3125,7.296875 L9.5,7.296875 Z M12.8125,0.71875 L18.125,0.71875 L18.125,1.46875 L16.890625,1.5625 L12.546875,17.765625 L11.234375,17.765625 L7.15625,1.609375 L5.90625,1.46875 L5.90625,0.71875 L9.890625,0.71875 L9.890625,1.46875 L8.1875,1.609375 L9.3125,6.53125 L13.515625,6.53125 L14.734375,1.578125 L12.8125,1.46875 Z" transform="translate(0, 20.296875) scale(1, -1)"/>
</svg>