<svg height="21.609375" viewBox="0 0 24 21.609375" width="24" xmlns="http://www.w3.org/2000/svg">
<path d="M1.3125,-1.6875 L22.6875,-1.6875 L22.6875,19.921875 L1.3125,19.921875 Z M2.046875,-0.984375 L2.046875,19.21875 L21.953125,19.21875 L21.953125,-0.984375 Z M15.34375,14.875 L16.109375,14.8125 C16.125,13.125 16.125,11.453125 16.125,9.765625 L16.125,8.875 C16.125,7.203125 16.125,5.5 16.109375,3.84375 L15.3125,3.765625 L15.3125,3.21875 L18.34375,3.21875 L18.34375,3.765625 L17.375,3.84375 C17.359375,5.515625 17.359375,7.21875 17.359375,8.90625 L17.359375,9.140625 L17.5625,9.140625 C18.5,9.140625 18.859375,8.59375 18.984375,7.25 L19.25,4.21875 C19.3125,3.40625 19.75,3.125 20.546875,3.125 C20.875,3.125 21.171875,3.171875 21.40625,3.21875 L21.40625,3.765625 L20.546875,3.859375 L20.234375,7.078125 C20.109375,8.453125 19.734375,9.171875 18.53125,9.40625 C19.96875,9.75 20.65625,10.875 20.65625,12.359375 C20.65625,14.359375 19.703125,15.4375 17.78125,15.4375 L15.34375,15.4375 Z M6.234375,14.875 L6.9375,14.8125 C6.953125,13.125 6.953125,11.59375 6.953125,9.90625 L4.796875,9.90625 C4.796875,11.59375 4.796875,13.109375 4.828125,14.78125 L5.515625,14.875 L5.515625,15.4375 L2.859375,15.4375 L2.859375,14.875 L3.546875,14.78125 C3.578125,13.15625 3.578125,11.453125 3.578125,9.796875 L3.578125,8.875 C3.578125,7.21875 3.578125,5.515625 3.546875,3.84375 L2.859375,3.765625 L2.859375,3.21875 L5.515625,3.21875 L5.515625,3.765625 L4.828125,3.84375 C4.796875,5.5625 4.796875,7.171875 4.796875,9.34375 L6.953125,9.34375 C6.953125,7.171875 6.953125,5.5625 6.9375,3.84375 L6.234375,3.765625 L6.234375,3.21875 L8.90625,3.21875 L8.90625,3.765625 L8.203125,3.84375 C8.1875,5.515625 8.1875,7.21875 8.1875,8.875 L8.1875,9.796875 C8.1875,11.453125 8.1875,13.125 8.203125,14.78125 L8.90625,14.875 L8.90625,15.4375 L6.234375,15.4375 Z M9.484375,14.90625 L10.125,14.828125 C10.15625,13.171875 10.15625,11.46875 10.15625,9.796875 L10.15625,8.859375 C10.15625,7.171875 10.15625,5.46875 10.125,3.8125 L9.484375,3.75 L9.484375,3.21875 L11.59375,3.21875 C13.53125,3.21875 14.6875,4.734375 14.6875,9.34375 C14.6875,14.0625 13.484375,15.4375 11.640625,15.4375 L9.484375,15.4375 Z M11.359375,3.71875 L11.328125,8.859375 L11.328125,9.796875 L11.359375,14.921875 L11.546875,14.921875 C12.84375,14.921875 13.4375,13.921875 13.4375,9.34375 C13.4375,4.734375 12.765625,3.71875 11.609375,3.71875 Z M17.359375,9.671875 L17.359375,9.75 C17.359375,11.5 17.359375,13.203125 17.40625,14.875 L17.640625,14.875 C18.890625,14.875 19.421875,14.0625 19.421875,12.28125 C19.421875,10.609375 18.765625,9.671875 17.765625,9.671875 Z" transform="translate(0, 19.921875) scale(1, -1)"/>
</svg>