<svg height="24" viewBox="0 0 24 24" width="24" xmlns="http://www.w3.org/2000/svg">
<path d="M13.84375,17.140625 Q15.96875,17.140625 17.34375,16.59375 Q18.734375,16.0625 19.40625,14.984375 Q20.09375,13.90625 20.09375,12.265625 Q20.09375,10.90625 19.59375,9.984375 Q19.09375,9.078125 18.296875,8.53125 Q17.515625,7.984375 16.65625,7.671875 L21.359375,0 L18.828125,0 L14.6875,7.078125 L11.28125,7.078125 L11.28125,0 L9.125,0 L9.125,17.140625 Z M13.71875,15.265625 L11.28125,15.265625 L11.28125,8.90625 L13.84375,8.90625 Q15.9375,8.90625 16.890625,9.71875 Q17.84375,10.546875 17.84375,12.171875 Q17.84375,13.84375 16.828125,14.546875 Q15.828125,15.265625 13.71875,15.265625 Z" transform="translate(-3.2421875, 17.140625) scale(1, -1)"/>
</svg>