<svg height="29.538462" viewBox="0 0 832 1024" width="24" xmlns="http://www.w3.org/2000/svg">
<g transform="translate(-256, 832) scale(1, -1)">
<g>
<g>
<clipPath id="clip-0-1">
<path d="M1075,-147 Q1084,-158 1077,-170 Q1071,-183 1058,-183 L852,-183 Q841,-183 835,-174 L599,140 L518,140 L518,-160 Q518,-169 511.5,-175 Q505,-181 497,-181 L291,-181 Q283,-181 276.5,-175 Q270,-169 270,-160 L270,786 Q270,795 276.5,801 Q283,807 291,807 L352,807 Q353,807 354,807.5 Q355,808 356,808 L711,808 Q780,808 841.5,782 Q903,756 949,710 Q995,664 1021.5,603.5 Q1048,543 1048,474 Q1048,405 1021.5,344 Q995,283 948,237 Q901,191 840,166 Z M695,337 Q729,340 757,359 Q785,378 801,408 Q817,438 817,474 Q817,510 801,540 Q785,570 757.5,589 Q730,608 696,611 Q690,612 685,612 L521,612 Q521,612 519,611 Q518,611 517,610 Q515,609 515,606 L515,342 Q515,340 517,338 Q518,337 520,337 Q521,337 521,337 L685,337 Q688,337 695,337 Z" transform="matrix(1 0 0 1 0 0)"/>
</clipPath>
<g clip-path="url(#clip-0-1)">
<path d="M256,-192 L1088,-192 L1088,832 L256,832 Z" fill="rgb(64, 192, 231)" transform="matrix(1 0 0 1 0 0)"/>
</g>
</g>
</g>
</g>
</svg>