<svg height="21.609375" viewBox="0 0 24 21.609375" width="24" xmlns="http://www.w3.org/2000/svg">
<path d="M1.3125,-1.6875 L22.6875,-1.6875 L22.6875,19.921875 L1.3125,19.921875 Z M2.046875,-0.984375 L2.046875,19.21875 L21.953125,19.21875 L21.953125,-0.984375 Z M17.921875,14.828125 L19.15625,14.71875 L16.921875,5.296875 L14.6875,14.71875 L15.984375,14.828125 L15.984375,15.4375 L12.078125,15.4375 L12.078125,14.828125 L13.03125,14.734375 L15.984375,3.125 L16.984375,3.125 L19.890625,14.71875 L20.921875,14.828125 L20.921875,15.4375 L17.921875,15.4375 Z M8.15625,14.828125 L9.140625,14.734375 L9.171875,9.9375 L5.953125,9.9375 L5.96875,14.71875 L6.953125,14.828125 L6.953125,15.4375 L3.5,15.4375 L3.5,14.828125 L4.46875,14.734375 L4.484375,9.765625 L4.484375,8.90625 L4.46875,3.9375 L3.5,3.84375 L3.5,3.21875 L6.953125,3.21875 L6.953125,3.84375 L5.96875,3.9375 C5.953125,5.546875 5.953125,7.25 5.953125,9.265625 L9.171875,9.265625 C9.171875,7.25 9.171875,5.546875 9.140625,3.9375 L8.15625,3.84375 L8.15625,3.21875 L11.609375,3.21875 L11.609375,3.84375 L10.65625,3.9375 L10.625,8.90625 L10.625,9.765625 L10.65625,14.734375 L11.609375,14.828125 L11.609375,15.4375 L8.15625,15.4375 Z" transform="translate(0, 19.921875) scale(1, -1)"/>
</svg>