<svg height="21.609375" viewBox="0 0 24 21.609375" width="24" xmlns="http://www.w3.org/2000/svg">
<path d="M13.796875,2.953125 C14.953125,2.953125 15.890625,4.25 15.890625,9.28125 C15.890625,14.359375 14.953125,15.671875 13.796875,15.671875 C12.640625,15.671875 11.71875,14.359375 11.71875,9.28125 C11.71875,4.25 12.640625,2.953125 13.796875,2.953125 Z M13.796875,3.484375 C13.265625,3.484375 12.84375,4.25 12.84375,9.28125 C12.84375,14.359375 13.265625,15.140625 13.796875,15.140625 C14.359375,15.140625 14.765625,14.359375 14.765625,9.28125 C14.765625,4.265625 14.359375,3.484375 13.796875,3.484375 Z M1.3125,-1.6875 L22.6875,-1.6875 L22.6875,19.921875 L1.3125,19.921875 Z M2.046875,-0.984375 L2.046875,19.21875 L21.953125,19.21875 L21.953125,-0.984375 Z M6.796875,3.21875 L11.015625,3.21875 L11.015625,4.34375 L7.390625,4.34375 C10.265625,9.265625 10.84375,11.109375 10.84375,12.75 C10.84375,14.546875 10.171875,15.671875 8.90625,15.671875 C7.796875,15.671875 7.078125,14.828125 6.90625,13.265625 C7.0625,12.984375 7.21875,12.84375 7.46875,12.84375 C7.796875,12.84375 8.015625,13.0625 8.1875,15.09375 C8.359375,15.140625 8.5,15.171875 8.65625,15.171875 C9.390625,15.171875 9.796875,14.40625 9.796875,12.703125 C9.796875,11.1875 9.5,9.71875 6.796875,4.0625 Z M4.15625,3.21875 L6.234375,3.21875 L6.234375,3.703125 L5.140625,3.796875 L5.109375,7.171875 L5.109375,12.671875 L5.15625,15.390625 L4.9375,15.625 L2.921875,14.921875 L2.921875,14.375 L4.203125,14.640625 L4.203125,7.171875 L4.15625,3.796875 L2.921875,3.703125 L2.921875,3.21875 Z M16.578125,14.953125 L17.140625,14.875 C17.15625,13.171875 17.15625,11.453125 17.15625,9.75 L17.15625,8.859375 C17.15625,7.15625 17.15625,5.453125 17.140625,3.796875 L16.578125,3.71875 L16.578125,3.21875 L19.03125,3.21875 L19.03125,3.71875 L18.265625,3.796875 L18.234375,8.140625 L18.390625,8.140625 C20.015625,8.140625 21.03125,9.265625 21.03125,11.828125 C21.03125,14.296875 20.28125,15.4375 18.59375,15.4375 L16.578125,15.4375 Z M18.234375,8.65625 L18.234375,9.75 L18.265625,14.90625 L18.484375,14.90625 C19.484375,14.90625 19.921875,14.0625 19.921875,11.875 C19.921875,9.625 19.390625,8.65625 18.4375,8.65625 Z" transform="translate(0, 19.921875) scale(1, -1)"/>
</svg>