<svg height="22.359375" viewBox="0 0 24 22.359375" width="24" xmlns="http://www.w3.org/2000/svg">
<path d="M21.8125,9.125 C21.8125,5.65625 20.90625,2.09375 18.1875,-1.625 L18.71875,-2.0625 C22.03125,1.703125 23.203125,5.453125 23.203125,9.125 C23.203125,12.796875 22.03125,16.53125 18.71875,20.296875 L18.1875,19.875 C20.90625,16.15625 21.8125,12.578125 21.8125,9.125 Z M2.1875,9.125 C2.1875,12.578125 3.09375,16.15625 5.8125,19.875 L5.28125,20.296875 C1.96875,16.53125 0.796875,12.796875 0.796875,9.125 C0.796875,5.453125 1.96875,1.703125 5.28125,-2.0625 L5.8125,-1.625 C3.09375,2.09375 2.1875,5.65625 2.1875,9.125 Z M12.21875,8.296875 L14.640625,8.15625 C14.65625,6.390625 14.6875,4.53125 14.6875,2.78125 L14.6875,1.421875 C14.203125,1.203125 13.703125,1.109375 13.15625,1.109375 C10.625,1.109375 8.921875,3.671875 8.921875,9.21875 C8.921875,14.71875 10.484375,17.375 13.078125,17.375 C13.734375,17.375 14.234375,17.28125 14.765625,17.0625 L15.484375,13.421875 L16.53125,13.421875 L16.4375,17.109375 C15.453125,17.78125 14.40625,18.125 12.953125,18.125 C9.3125,18.125 6.796875,15.3125 6.796875,9.21875 C6.796875,3.1875 9.265625,0.359375 12.75,0.359375 C14.203125,0.359375 15.234375,0.640625 16.578125,1.421875 L16.578125,2.6875 L16.625,8.1875 L17.921875,8.296875 L17.921875,9.078125 L12.21875,9.078125 Z" transform="translate(0, 20.296875) scale(1, -1)"/>
</svg>