<svg height="22.546875" viewBox="0 0 24 22.546875" width="24" xmlns="http://www.w3.org/2000/svg">
<path d="M4.171875,0 L15.578125,0 L15.578125,1.703125 L5.734375,1.703125 C12.84375,8.6875 14.640625,10.84375 14.640625,13.703125 C14.640625,16.46875 12.9375,18.34375 9.5,18.34375 C7.03125,18.34375 4.96875,17.328125 4.390625,15 C4.578125,14.546875 4.9375,14.28125 5.40625,14.28125 C6.171875,14.28125 6.484375,14.546875 7.078125,17.203125 C7.734375,17.46875 8.359375,17.5625 9.03125,17.5625 C11.296875,17.5625 12.5,15.90625 12.5,13.734375 C12.5,10.9375 11.1875,8.921875 4.171875,1.21875 Z M16.34375,-4.203125 C18.390625,-3.28125 19.828125,-1.890625 19.828125,0.59375 C19.828125,1.21875 19.75,1.53125 19.5625,2.015625 C19.203125,2.328125 18.84375,2.453125 18.359375,2.453125 C17.515625,2.453125 16.984375,1.828125 16.984375,1.15625 C16.984375,0.484375 17.375,0 18.671875,-0.75 C18.34375,-2.09375 17.515625,-2.78125 16.03125,-3.53125 Z" transform="translate(0, 18.34375) scale(1, -1)"/>
</svg>