<svg height="21.609375" viewBox="0 0 24 21.609375" width="24" xmlns="http://www.w3.org/2000/svg">
<path d="M12.078125,2.921875 C9.125,2.921875 7.203125,4.203125 7.203125,7.84375 L7.203125,9.796875 C7.203125,11.359375 7.203125,12.9375 7.171875,14.5 L5.453125,14.65625 L5.453125,15.4375 L10.921875,15.4375 L10.921875,14.65625 L9.09375,14.5 C9.078125,12.953125 9.078125,11.375 9.078125,9.796875 L9.078125,8.0625 C9.078125,5.140625 10.390625,4.0625 12.546875,4.0625 C14.921875,4.0625 16.078125,5.28125 16.078125,8.296875 L16.078125,14.515625 L14.453125,14.65625 L14.453125,15.4375 L18.5,15.4375 L18.5,14.65625 L16.984375,14.515625 L16.984375,8.109375 C16.984375,4.421875 15.171875,2.921875 12.078125,2.921875 Z M6.125,-1.6875 L17.875,-1.6875 C20.90625,-1.6875 22.6875,0.09375 22.6875,3.125 L22.6875,15.125 C22.6875,18.140625 20.90625,19.921875 17.875,19.921875 L6.125,19.921875 C3.09375,19.921875 1.3125,18.140625 1.3125,15.125 L1.3125,3.125 C1.3125,0.09375 3.09375,-1.6875 6.125,-1.6875 Z" transform="translate(0, 19.921875) scale(1, -1)"/>
</svg>