<svg height="22.359375" viewBox="0 0 24 22.359375" width="24" xmlns="http://www.w3.org/2000/svg">
<path d="M21.8125,9.125 C21.8125,5.65625 20.90625,2.09375 18.1875,-1.625 L18.71875,-2.0625 C22.03125,1.703125 23.203125,5.453125 23.203125,9.125 C23.203125,12.796875 22.03125,16.53125 18.71875,20.296875 L18.1875,19.875 C20.90625,16.15625 21.8125,12.578125 21.8125,9.125 Z M2.1875,9.125 C2.1875,12.578125 3.09375,16.15625 5.8125,19.875 L5.28125,20.296875 C1.96875,16.53125 0.796875,12.796875 0.796875,9.125 C0.796875,5.453125 1.96875,1.703125 5.28125,-2.0625 L5.8125,-1.625 C3.09375,2.09375 2.1875,5.65625 2.1875,9.125 Z M11.140625,4.6875 L11.875,4.6875 L15.234375,15.8125 L15.09375,8.5625 C15.03125,6.234375 15.046875,3.890625 15.03125,1.609375 L13.171875,1.46875 L13.171875,0.71875 L18.359375,0.71875 L18.359375,1.46875 L17.015625,1.578125 C16.96875,3.90625 16.96875,6.265625 16.96875,8.609375 L16.96875,9.890625 C16.9375,12.234375 16.9375,14.5625 16.984375,16.875 L18.359375,17.015625 L18.359375,17.765625 L14.859375,17.765625 L11.953125,7.890625 L9.03125,17.765625 L5.6875,17.765625 L5.6875,17.015625 L6.84375,16.890625 L6.765625,1.625 L5.546875,1.46875 L5.546875,0.71875 L9.703125,0.71875 L9.703125,1.46875 L7.78125,1.625 L7.6875,15.984375 Z" transform="translate(0, 20.296875) scale(1, -1)"/>
</svg>