<svg height="32" viewBox="0 0 768 1024" width="24" xmlns="http://www.w3.org/2000/svg">
<g transform="translate(-288, 832) scale(1, -1)">
<g>
<g>
<clipPath id="clip-0-1">
<path d="M911,330 Q971,291 1006.5,231 Q1042,171 1042,101 Q1042,42 1017.5,-9 Q993,-60 950,-99 Q907,-138 850,-160 Q793,-182 728,-182 L329,-182 Q320,-182 314,-176 Q308,-170 308,-161 L308,785 Q308,794 314,800 Q320,806 329,806 L684,806 Q749,806 805.5,784 Q862,762 905.5,723.5 Q949,685 973.5,633.5 Q998,582 998,524 Q998,467 974.5,417.5 Q951,368 911,330 Z M669,417 Q709,417 737,446.5 Q765,476 765,517 Q765,559 737,588 Q709,617 669,617 L538,617 Q535,617 534,614 Q533,613 533,613 L533,422 Q533,422 534,420 Q535,417 538,417 Z M677,0 Q679,0 681,0.5 Q683,1 685,1 Q726,4 754.5,37 Q783,70 783,116 Q783,162 754.5,195 Q726,228 685,231 Q681,232 677,232 L539,232 Q540,232 538,231 Q534,230 534,227 L534,5 Q534,2 538,1 Q540,0 539,0 Z" transform="matrix(1 0 0 1 0 0)"/>
</clipPath>
<g clip-path="url(#clip-0-1)">
<path d="M288,-192 L1056,-192 L1056,832 L288,832 Z" fill="rgb(64, 192, 231)" transform="matrix(1 0 0 1 0 0)"/>
</g>
</g>
</g>
</g>
</svg>