<svg height="21.609375" viewBox="0 0 24 21.609375" width="24" xmlns="http://www.w3.org/2000/svg">
<path d="M11.71875,2.953125 C13.109375,2.953125 14.234375,4.390625 14.234375,9.28125 C14.234375,14.234375 13.109375,15.671875 11.71875,15.671875 C10.3125,15.671875 9.171875,14.234375 9.171875,9.28125 C9.171875,4.390625 10.3125,2.953125 11.71875,2.953125 Z M11.71875,3.53125 C11.015625,3.53125 10.4375,4.375 10.4375,9.28125 C10.4375,14.234375 11.015625,15.140625 11.71875,15.140625 C12.40625,15.140625 12.953125,14.234375 12.953125,9.28125 C12.953125,4.390625 12.40625,3.53125 11.71875,3.53125 Z M1.3125,-1.6875 L22.6875,-1.6875 L22.6875,19.921875 L1.3125,19.921875 Z M2.046875,-0.984375 L2.046875,19.21875 L21.953125,19.21875 L21.953125,-0.984375 Z M5.71875,2.953125 C7.109375,2.953125 8.1875,4.265625 8.1875,6.890625 C8.1875,9.4375 7.34375,10.5625 6.140625,10.5625 C5.46875,10.5625 4.890625,10.25 4.4375,9.453125 C4.75,12.3125 5.953125,14.328125 8.015625,15.21875 L7.84375,15.671875 C4.984375,14.859375 3.171875,11.6875 3.171875,7.84375 C3.171875,4.484375 4.125,2.953125 5.71875,2.953125 Z M4.390625,8.71875 C4.796875,9.578125 5.203125,9.890625 5.71875,9.890625 C6.5,9.890625 6.984375,9.078125 6.984375,6.765625 C6.984375,4.375 6.40625,3.5 5.734375,3.5 C4.875,3.5 4.375,4.828125 4.375,8.015625 Z M14.828125,14.859375 L15.71875,14.765625 L15.75,9.765625 L15.75,8.875 L15.71875,3.90625 L14.8125,3.8125 L14.8125,3.21875 L18.40625,3.21875 L18.40625,3.8125 L17.109375,3.90625 C17.0625,5.375 17.0625,6.84375 17.0625,8.109375 L17.515625,8.109375 C19.609375,8.109375 20.8125,9.171875 20.8125,11.765625 C20.8125,14.25 19.890625,15.4375 17.71875,15.4375 L14.828125,15.4375 Z M17.0625,8.71875 L17.0625,9.765625 C17.0625,11.46875 17.0625,13.15625 17.109375,14.828125 L17.640625,14.828125 C18.9375,14.828125 19.4375,13.9375 19.4375,11.859375 C19.4375,9.59375 18.84375,8.71875 17.5,8.71875 Z" transform="translate(0, 19.921875) scale(1, -1)"/>
</svg>