<svg height="22.359375" viewBox="0 0 24 22.359375" width="24" xmlns="http://www.w3.org/2000/svg">
<path d="M21.8125,9.125 C21.8125,5.65625 20.90625,2.09375 18.1875,-1.625 L18.71875,-2.0625 C22.03125,1.703125 23.203125,5.453125 23.203125,9.125 C23.203125,12.796875 22.03125,16.53125 18.71875,20.296875 L18.1875,19.875 C20.90625,16.15625 21.8125,12.578125 21.8125,9.125 Z M2.1875,9.125 C2.1875,12.578125 3.09375,16.15625 5.8125,19.875 L5.28125,20.296875 C1.96875,16.53125 0.796875,12.796875 0.796875,9.125 C0.796875,5.453125 1.96875,1.703125 5.28125,-2.0625 L5.8125,-1.625 C3.09375,2.09375 2.1875,5.65625 2.1875,9.125 Z M12.8125,17.015625 L14.90625,16.875 L9.765625,8.234375 L9.765625,9.890625 C9.765625,12.234375 9.765625,14.5625 9.8125,16.890625 L11.5625,17.015625 L11.5625,17.765625 L6.21875,17.765625 L6.21875,17.015625 L7.703125,16.890625 C7.75,14.5625 7.75,12.21875 7.75,9.890625 L7.75,8.609375 C7.75,6.234375 7.75,3.890625 7.703125,1.578125 L6.21875,1.46875 L6.21875,0.71875 L11.5,0.71875 L11.5,1.46875 L9.8125,1.578125 C9.765625,3.625 9.765625,5.609375 9.765625,7.109375 L11.421875,9.703125 L14.609375,1.609375 L12.890625,1.46875 L12.890625,0.71875 L18.03125,0.71875 L18.03125,1.46875 L16.78125,1.578125 L12.671875,11.640625 L15.984375,16.875 L17.546875,17.015625 L17.546875,17.765625 L12.8125,17.765625 Z" transform="translate(0, 20.296875) scale(1, -1)"/>
</svg>