<svg height="21.609375" viewBox="0 0 24 21.609375" width="24" xmlns="http://www.w3.org/2000/svg">
<path d="M1.3125,-1.6875 L22.6875,-1.6875 L22.6875,19.921875 L1.3125,19.921875 Z M2.046875,-0.984375 L2.046875,19.21875 L21.953125,19.21875 L21.953125,-0.984375 Z M12.90625,2.921875 C14.359375,2.921875 15.59375,3.265625 16.796875,3.984375 L16.84375,6.796875 L16.0625,6.796875 L15.546875,4.171875 C14.765625,3.765625 13.9375,3.578125 12.953125,3.578125 C9.953125,3.578125 7.890625,5.59375 7.890625,9.3125 C7.890625,12.984375 9.890625,15.078125 12.984375,15.078125 C13.9375,15.078125 14.640625,14.921875 15.390625,14.515625 L15.859375,12 L16.6875,12 L16.609375,14.734375 C15.484375,15.390625 14.421875,15.71875 12.90625,15.71875 C8.90625,15.71875 6.21875,13.296875 6.21875,9.28125 C6.21875,5.15625 9,2.921875 12.90625,2.921875 Z" transform="translate(0, 19.921875) scale(1, -1)"/>
</svg>