<svg height="21.609375" viewBox="0 0 24 21.609375" width="24" xmlns="http://www.w3.org/2000/svg">
<path d="M1.3125,-1.6875 L22.6875,-1.6875 L22.6875,19.921875 L1.3125,19.921875 Z M2.046875,-0.984375 L2.046875,19.21875 L21.953125,19.21875 L21.953125,-0.984375 Z M10.53125,14.828125 L11.8125,14.71875 L10.484375,5.0625 L8.875,13.109375 L8.046875,13.109375 L6.28125,5.0625 L5.046875,14.71875 L6.1875,14.828125 L6.1875,15.4375 L2.734375,15.4375 L2.734375,14.828125 L3.53125,14.734375 L5.375,3.125 L6.4375,3.125 L8.09375,10.484375 L9.671875,3.125 L10.734375,3.125 L12.453125,14.71875 L13.421875,14.828125 L13.421875,15.4375 L10.53125,15.4375 Z M17.90625,2.953125 C18.8125,2.953125 19.46875,3.171875 20.28125,3.796875 L20.375,6.453125 L19.578125,6.453125 L19.109375,3.84375 C18.765625,3.671875 18.4375,3.59375 18.078125,3.59375 C16.609375,3.59375 15.53125,5.296875 15.53125,9.40625 C15.53125,13.296875 16.53125,15.046875 18.125,15.046875 C18.453125,15.046875 18.75,15 19.03125,14.875 L19.515625,12.265625 L20.25,12.265625 L20.1875,14.921875 C19.515625,15.4375 18.84375,15.671875 17.921875,15.671875 C15.703125,15.671875 13.984375,13.78125 13.984375,9.40625 C13.984375,4.9375 15.625,2.953125 17.90625,2.953125 Z" transform="translate(0, 19.921875) scale(1, -1)"/>
</svg>