<svg height="22.328125" viewBox="0 0 24 22.328125" width="24" xmlns="http://www.w3.org/2000/svg">
<path d="M12.03125,2.90625 C14.46875,2.90625 16.828125,4.75 16.828125,9.34375 C16.828125,13.921875 14.46875,15.8125 12.03125,15.8125 C9.546875,15.8125 7.203125,13.921875 7.203125,9.34375 C7.203125,4.75 9.546875,2.90625 12.03125,2.90625 Z M12.03125,3.5 C10.484375,3.5 9,4.921875 9,9.34375 C9,13.734375 10.484375,15.1875 12.03125,15.1875 C13.53125,15.1875 15.03125,13.734375 15.03125,9.34375 C15.03125,4.921875 13.53125,3.5 12.03125,3.5 Z M12,-2.046875 C18.171875,-2.046875 23.0625,2.828125 23.0625,9.125 C23.0625,15.390625 18.171875,20.28125 12,20.28125 C5.828125,20.28125 0.9375,15.390625 0.9375,9.125 C0.9375,2.859375 5.828125,-2.046875 12,-2.046875 Z M12,-1.375 C6.21875,-1.375 1.65625,3.21875 1.65625,9.125 C1.65625,15.03125 6.21875,19.609375 12,19.609375 C17.765625,19.609375 22.34375,15.03125 22.34375,9.125 C22.34375,3.21875 17.765625,-1.375 12,-1.375 Z" transform="translate(0, 20.28125) scale(1, -1)"/>
</svg>