<svg height="22.328125" viewBox="0 0 24 22.328125" width="24" xmlns="http://www.w3.org/2000/svg">
<path d="M15.171875,0.90625 C12.484375,0.90625 11.140625,2.46875 11.046875,4.296875 C8.09375,4.65625 5.96875,6.671875 5.96875,9.953125 C5.96875,13.625 8.5625,15.75 12,15.75 C15.4375,15.75 18.03125,13.625 18.03125,9.953125 C18.03125,6.640625 15.890625,4.625 12.953125,4.296875 C13.125,2.78125 13.984375,1.921875 15.390625,1.921875 C16.15625,1.921875 16.78125,2.0625 17.5,2.453125 L17.8125,1.703125 C16.890625,1.109375 16.109375,0.90625 15.171875,0.90625 Z M12,5.046875 C14.65625,5.046875 16.0625,7.109375 16.0625,9.953125 C16.0625,12.859375 14.65625,14.90625 12,14.90625 C9.34375,14.90625 7.9375,12.859375 7.9375,9.953125 C7.9375,7.109375 9.34375,5.046875 12,5.046875 Z M12,-2.046875 C18.171875,-2.046875 23.0625,2.828125 23.0625,9.125 C23.0625,15.390625 18.171875,20.28125 12,20.28125 C5.828125,20.28125 0.9375,15.390625 0.9375,9.125 C0.9375,2.859375 5.828125,-2.046875 12,-2.046875 Z" transform="translate(0, 20.28125) scale(1, -1)"/>
</svg>