<svg height="21.609375" viewBox="0 0 24 21.609375" width="24" xmlns="http://www.w3.org/2000/svg">
<path d="M1.3125,-1.6875 L22.6875,-1.6875 L22.6875,19.921875 L1.3125,19.921875 Z M2.046875,-0.984375 L2.046875,19.21875 L21.953125,19.21875 L21.953125,-0.984375 Z M5.0625,14.828125 L6.171875,14.734375 C6.1875,13.078125 6.1875,11.421875 6.1875,9.765625 L6.1875,8.90625 L6.171875,3.9375 L5.0625,3.84375 L5.0625,3.21875 L8.859375,3.21875 L8.859375,3.84375 L7.75,3.9375 L7.734375,8.90625 L7.734375,9.765625 C7.734375,11.421875 7.734375,13.078125 7.75,14.734375 L8.859375,14.828125 L8.859375,15.4375 L5.0625,15.4375 Z M11.59375,14.828125 L12.8125,14.71875 L12.84375,9.765625 L12.84375,8.90625 L12.8125,3.9375 L11.59375,3.84375 L11.59375,3.21875 L15.3125,3.21875 C18.390625,3.21875 20.25,5.109375 20.25,9.34375 C20.25,13.6875 18.359375,15.4375 15.359375,15.4375 L11.59375,15.4375 Z M14.40625,3.859375 L14.375,8.90625 L14.375,9.765625 L14.40625,14.78125 L15.21875,14.78125 C17.46875,14.78125 18.671875,13.4375 18.671875,9.34375 C18.671875,5.296875 17.453125,3.859375 15.140625,3.859375 Z" transform="translate(0, 19.921875) scale(1, -1)"/>
</svg>