<svg height="21.609375" viewBox="0 0 24 21.609375" width="24" xmlns="http://www.w3.org/2000/svg">
<path d="M10.84375,2.546875 C11.375,2.546875 11.8125,3 11.8125,3.53125 C11.8125,4.0625 11.375,4.515625 10.84375,4.515625 C10.296875,4.515625 9.890625,4.0625 9.890625,3.53125 C9.890625,3 10.296875,2.546875 10.84375,2.546875 Z M1.3125,-1.6875 L22.6875,-1.6875 L22.6875,19.921875 L1.3125,19.921875 Z M2.046875,-0.984375 L2.046875,19.21875 L21.953125,19.21875 L21.953125,-0.984375 Z M5.25,3.21875 L6.75,3.21875 L10.609375,14.46875 L10.609375,15.359375 L3.90625,15.359375 L3.90625,13.875 L9.671875,13.875 L5.15625,3.34375 Z M16.34375,3.21875 L20.375,3.21875 L20.375,3.796875 L17.875,3.953125 L17.859375,7.21875 L17.859375,12.640625 L17.921875,15.390625 L17.6875,15.625 L14.046875,14.609375 L14.046875,13.9375 L16.375,14.375 L16.375,7.21875 L16.34375,3.953125 L13.921875,3.796875 L13.921875,3.21875 Z" transform="translate(0, 19.921875) scale(1, -1)"/>
</svg>