<svg height="21.609375" viewBox="0 0 24 21.609375" width="24" xmlns="http://www.w3.org/2000/svg">
<path d="M1.3125,-1.6875 L22.6875,-1.6875 L22.6875,19.921875 L1.3125,19.921875 Z M2.046875,-0.984375 L2.046875,19.21875 L21.953125,19.21875 L21.953125,-0.984375 Z M14.640625,16.5625 C15.03125,16.5625 15.34375,16.828125 15.34375,17.25 C15.34375,17.640625 15.03125,17.921875 14.640625,17.921875 C14.25,17.921875 13.96875,17.640625 13.96875,17.25 C13.96875,16.828125 14.25,16.5625 14.640625,16.5625 Z M16.484375,12.484375 L18.859375,12.484375 L18.859375,13.109375 L16.484375,13.109375 Z M5.421875,4.78125 L5.40625,1.890625 L4.5625,1.828125 L4.5625,1.4375 L7.390625,1.4375 L7.390625,1.828125 L6.53125,1.890625 L6.5,4.796875 L7.03125,4.796875 C7.75,4.796875 7.984375,4.484375 8.15625,3.703125 L8.515625,2.09375 C8.609375,1.53125 8.921875,1.34375 9.625,1.34375 C9.984375,1.34375 10.203125,1.375 10.484375,1.4375 L10.484375,1.828125 L9.703125,1.890625 L9.28125,3.578125 C9.125,4.421875 8.859375,4.828125 7.96875,4.96875 C9.1875,5.1875 9.71875,5.90625 9.71875,6.765625 C9.71875,7.96875 8.90625,8.640625 7.4375,8.640625 L4.5625,8.640625 L4.5625,8.25 L5.40625,8.1875 L5.421875,5.296875 Z M13.171875,6.71875 C12,6.71875 10.875,5.71875 10.875,4.015625 C10.875,2.234375 11.875,1.296875 13.125,1.296875 C13.984375,1.296875 14.640625,1.703125 15.03125,2.421875 L14.8125,2.609375 C14.46875,2.15625 14.0625,1.921875 13.484375,1.921875 C12.671875,1.921875 12,2.5625 11.953125,4.03125 L15,4.03125 C15.046875,4.203125 15.046875,4.390625 15.046875,4.625 C15.046875,5.828125 14.359375,6.71875 13.171875,6.71875 Z M11.953125,4.421875 C12.03125,5.6875 12.53125,6.34375 13.109375,6.34375 C13.703125,6.34375 14.0625,5.734375 14.0625,4.984375 C14.0625,4.578125 13.984375,4.421875 13.65625,4.421875 Z M17.375,1.296875 C18.625,1.296875 19.34375,1.9375 19.34375,2.875 C19.34375,3.59375 18.984375,4.078125 18.078125,4.421875 L17.609375,4.5625 C16.96875,4.828125 16.75,5.0625 16.75,5.5 C16.75,6 17.09375,6.34375 17.65625,6.34375 C17.921875,6.34375 18.140625,6.28125 18.359375,6.171875 L18.578125,5.203125 L19.0625,5.203125 L19.109375,6.28125 C18.625,6.578125 18.234375,6.71875 17.65625,6.71875 C16.515625,6.71875 15.890625,6.046875 15.890625,5.1875 C15.890625,4.4375 16.3125,3.984375 17.0625,3.703125 L17.546875,3.53125 C18.234375,3.265625 18.4375,3 18.4375,2.5625 C18.4375,2.015625 18.078125,1.6875 17.359375,1.6875 C17.015625,1.6875 16.78125,1.75 16.53125,1.875 L16.34375,2.90625 L15.84375,2.90625 L15.8125,1.703125 C16.296875,1.4375 16.78125,1.296875 17.375,1.296875 Z M6.859375,13.421875 L6.84375,10.53125 L6,10.46875 L6,10.078125 L8.78125,10.078125 L8.78125,10.46875 L7.984375,10.53125 L7.96875,13.578125 L10.75,13.578125 L10.734375,10.53125 L9.90625,10.46875 L9.90625,10.078125 L12.671875,10.078125 L12.671875,10.46875 L11.859375,10.53125 L11.828125,13.421875 L11.828125,13.9375 L11.859375,16.828125 L12.671875,16.890625 L12.671875,17.28125 L9.90625,17.28125 L9.90625,16.890625 L10.734375,16.828125 L10.75,14.015625 L7.96875,14.015625 L7.984375,16.828125 L8.78125,16.890625 L8.78125,17.28125 L6,17.28125 L6,16.890625 L6.84375,16.828125 L6.859375,13.9375 Z M15.21875,10.078125 L15.796875,10.078125 L15.796875,10.421875 L15.1875,10.515625 L15.171875,12.34375 L15.171875,13.828125 L15.1875,15.265625 L15.046875,15.359375 L13.390625,14.875 L13.390625,14.5625 L14.109375,14.5 C14.109375,14.015625 14.140625,13.5625 14.140625,12.90625 L14.140625,12.34375 L14.109375,10.515625 L13.46875,10.421875 L13.46875,10.078125 Z M6.53125,8.203125 L7.21875,8.203125 C8.1875,8.203125 8.65625,7.6875 8.65625,6.75 C8.65625,5.875 8.1875,5.1875 7.21875,5.1875 L6.5,5.1875 Z" transform="translate(0, 19.921875) scale(1, -1)"/>
</svg>