<svg height="17.609375" viewBox="0 0 24 17.609375" width="24" xmlns="http://www.w3.org/2000/svg">
<path d="M16.953125,15.484375 Q15.125,15.484375 13.796875,14.640625 Q12.46875,13.8125 11.75,12.265625 Q11.03125,10.71875 11.03125,8.5625 Q11.03125,6.453125 11.6875,4.890625 Q12.34375,3.34375 13.65625,2.5 Q14.96875,1.65625 16.9375,1.65625 Q18.046875,1.65625 19.0625,1.84375 Q20.078125,2.046875 21.046875,2.328125 L21.046875,0.453125 Q20.09375,0.09375 19.0625,-0.0625 Q18.046875,-0.234375 16.625,-0.234375 Q14,-0.234375 12.25,0.84375 Q10.5,1.921875 9.625,3.90625 Q8.75,5.890625 8.75,8.59375 Q8.75,11.1875 9.703125,13.171875 Q10.671875,15.15625 12.5,16.265625 Q14.328125,17.375 16.984375,17.375 Q18.3125,17.375 19.53125,17.109375 Q20.75,16.859375 21.71875,16.375 L20.84375,14.546875 Q20.0625,14.90625 19.078125,15.1875 Q18.109375,15.484375 16.953125,15.484375 Z" transform="translate(-3.234375, 17.375) scale(1, -1)"/>
</svg>