<svg height="21.609375" viewBox="0 0 24 21.609375" width="24" xmlns="http://www.w3.org/2000/svg">
<path d="M7.203125,3.21875 L7.203125,4.015625 L8.921875,4.171875 C8.96875,5.734375 8.96875,7.3125 8.96875,8.90625 L8.96875,9.75 C8.96875,11.328125 8.96875,12.90625 8.921875,14.5 L7.203125,14.65625 L7.203125,15.4375 L12.75,15.4375 L12.75,14.65625 L10.875,14.5 C10.84375,12.90625 10.84375,11.359375 10.84375,9.75 L10.84375,8.90625 C10.84375,7.296875 10.84375,5.65625 10.875,4.0625 L16.25,4.0625 L16.6875,6.671875 L17.6875,6.671875 L17.5,3.21875 Z M6.125,-1.6875 L17.875,-1.6875 C20.90625,-1.6875 22.6875,0.09375 22.6875,3.125 L22.6875,15.125 C22.6875,18.140625 20.90625,19.921875 17.875,19.921875 L6.125,19.921875 C3.09375,19.921875 1.3125,18.140625 1.3125,15.125 L1.3125,3.125 C1.3125,0.09375 3.09375,-1.6875 6.125,-1.6875 Z" transform="translate(0, 19.921875) scale(1, -1)"/>
</svg>