<svg height="21.609375" viewBox="0 0 24 21.609375" width="24" xmlns="http://www.w3.org/2000/svg">
<path d="M1.3125,-1.6875 L22.6875,-1.6875 L22.6875,19.921875 L1.3125,19.921875 Z M2.046875,-0.984375 L2.046875,19.21875 L21.953125,19.21875 L21.953125,-0.984375 Z M3.671875,3.21875 L10.625,3.21875 L10.625,4.65625 L4.828125,4.65625 C9.3125,9.1875 10.171875,10.625 10.171875,12.5 C10.171875,14.375 9.046875,15.671875 6.953125,15.671875 C5.375,15.671875 4.0625,14.859375 3.765625,13.171875 C3.890625,12.84375 4.125,12.625 4.46875,12.625 C4.984375,12.625 5.203125,12.84375 5.59375,14.859375 C5.921875,14.96875 6.265625,15.03125 6.625,15.03125 C7.9375,15.03125 8.65625,13.96875 8.65625,12.453125 C8.65625,10.796875 8.09375,9.34375 3.671875,4.21875 Z M17.046875,14.828125 L18.390625,14.6875 L14.609375,8.5625 L14.609375,9.765625 L14.640625,14.71875 L15.84375,14.828125 L15.84375,15.4375 L11.953125,15.4375 L11.953125,14.828125 L13.078125,14.71875 L13.109375,9.765625 L13.109375,8.90625 L13.078125,3.9375 L11.953125,3.84375 L11.953125,3.21875 L15.796875,3.21875 L15.796875,3.84375 L14.640625,3.9375 L14.609375,7.734375 L15.84375,9.59375 L18.09375,3.9375 L16.984375,3.84375 L16.984375,3.21875 L20.71875,3.21875 L20.71875,3.84375 L19.75,3.9375 L16.796875,11.09375 L19.15625,14.6875 L20.359375,14.828125 L20.359375,15.4375 L17.046875,15.4375 Z" transform="translate(0, 19.921875) scale(1, -1)"/>
</svg>