<svg height="22.328125" viewBox="0 0 24 22.328125" width="24" xmlns="http://www.w3.org/2000/svg">
<path d="M9.078125,3.21875 L9.078125,4.015625 L11.140625,4.171875 C11.15625,5.328125 11.15625,6.140625 11.15625,7.578125 L11.15625,8.0625 L7.5625,14.46875 L5.90625,14.65625 L5.90625,15.4375 L11.421875,15.4375 L11.421875,14.65625 L9.75,14.5 L12.71875,9.078125 L15.71875,14.5 L14.0625,14.65625 L14.0625,15.4375 L18.484375,15.4375 L18.484375,14.65625 L16.609375,14.5 L13.03125,8.0625 L13.03125,7.578125 C13.03125,6.140625 13.03125,5.328125 13.0625,4.171875 L15.09375,4.015625 L15.09375,3.21875 Z M12,-2.046875 C18.171875,-2.046875 23.0625,2.828125 23.0625,9.125 C23.0625,15.390625 18.171875,20.28125 12,20.28125 C5.828125,20.28125 0.9375,15.390625 0.9375,9.125 C0.9375,2.859375 5.828125,-2.046875 12,-2.046875 Z" transform="translate(0, 20.28125) scale(1, -1)"/>
</svg>