<svg height="21.609375" viewBox="0 0 24 21.609375" width="24" xmlns="http://www.w3.org/2000/svg">
<path d="M1.3125,-1.6875 L22.6875,-1.6875 L22.6875,19.921875 L1.3125,19.921875 Z M2.046875,-0.984375 L2.046875,19.21875 L21.953125,19.21875 L21.953125,-0.984375 Z M13.703125,14.828125 L15.390625,14.65625 L9.578125,8.296875 L9.578125,9.765625 L9.59375,14.6875 L11.25,14.828125 L11.25,15.4375 L6.171875,15.4375 L6.171875,14.828125 L7.9375,14.6875 L7.96875,9.765625 L7.96875,8.90625 L7.9375,3.953125 L6.171875,3.84375 L6.171875,3.21875 L11.25,3.21875 L11.25,3.84375 L9.59375,3.953125 L9.578125,7.4375 L11.640625,9.703125 L15.078125,3.9375 L13.578125,3.84375 L13.578125,3.21875 L18.53125,3.21875 L18.53125,3.84375 L16.890625,3.953125 L12.703125,10.84375 L16.171875,14.640625 L18.03125,14.828125 L18.03125,15.4375 L13.703125,15.4375 Z" transform="translate(0, 19.921875) scale(1, -1)"/>
</svg>