<svg height="21.609375" viewBox="0 0 24 21.609375" width="24" xmlns="http://www.w3.org/2000/svg">
<path d="M11.921875,2.921875 C10.265625,2.921875 8.921875,3.28125 7.6875,4.03125 L7.796875,6.546875 L8.921875,6.546875 L9.21875,4.34375 C10.03125,3.953125 10.875,3.796875 11.921875,3.796875 C13.875,3.796875 15.046875,4.578125 15.046875,5.921875 C15.046875,7.0625 14.296875,7.703125 12.703125,8.28125 L11.203125,8.78125 C9.09375,9.484375 8.09375,10.53125 8.09375,12.3125 C8.09375,14.59375 10.015625,15.75 12.640625,15.75 C14.1875,15.75 15.171875,15.4375 16.21875,14.8125 L16.109375,12.390625 L15,12.390625 L14.765625,14.421875 C14.09375,14.765625 13.484375,14.875 12.75,14.875 C11.015625,14.875 9.765625,14.1875 9.765625,12.765625 C9.765625,11.6875 10.5625,11.015625 11.953125,10.53125 L13.5625,10.015625 C16.078125,9.125 16.796875,8.046875 16.796875,6.484375 C16.796875,4.25 15,2.921875 11.921875,2.921875 Z M6.125,-1.6875 L17.875,-1.6875 C20.90625,-1.6875 22.6875,0.09375 22.6875,3.125 L22.6875,15.125 C22.6875,18.140625 20.90625,19.921875 17.875,19.921875 L6.125,19.921875 C3.09375,19.921875 1.3125,18.140625 1.3125,15.125 L1.3125,3.125 C1.3125,0.09375 3.09375,-1.6875 6.125,-1.6875 Z" transform="translate(0, 19.921875) scale(1, -1)"/>
</svg>