<svg height="21.609375" viewBox="0 0 24 21.609375" width="24" xmlns="http://www.w3.org/2000/svg">
<path d="M11.78125,2.953125 C13.703125,2.953125 14.5625,5.140625 14.5625,9.3125 C14.5625,13.53125 13.703125,15.671875 11.78125,15.671875 C9.8125,15.671875 8.953125,13.53125 8.953125,9.3125 C8.953125,5.140625 9.8125,2.953125 11.78125,2.953125 Z M11.78125,3.59375 C10.625,3.59375 10.3125,5.515625 10.3125,9.3125 C10.3125,13.125 10.625,15.046875 11.78125,15.046875 C12.890625,15.046875 13.203125,13.125 13.203125,9.3125 C13.203125,5.515625 12.890625,3.59375 11.78125,3.59375 Z M1.3125,-1.6875 L22.6875,-1.6875 L22.6875,19.921875 L1.3125,19.921875 Z M2.046875,-0.984375 L2.046875,19.21875 L21.953125,19.21875 L21.953125,-0.984375 Z M6.671875,14.90625 L7.484375,14.78125 L6.078125,5.40625 L4.6875,14.8125 L5.46875,14.90625 L5.46875,15.4375 L2.765625,15.4375 L2.765625,14.90625 L3.3125,14.828125 L5.328125,3.171875 L6.171875,3.171875 L8.140625,14.8125 L8.765625,14.90625 L8.765625,15.4375 L6.671875,15.4375 Z M15.1875,14.859375 L15.890625,14.765625 L15.90625,9.796875 L15.90625,8.875 L15.890625,3.90625 L15.1875,3.8125 L15.1875,3.21875 L17.5625,3.21875 C19.609375,3.21875 20.90625,4.734375 20.90625,9.34375 C20.90625,14.0625 19.578125,15.4375 17.546875,15.4375 L15.1875,15.4375 Z M17.25,3.796875 L17.234375,8.875 L17.234375,9.796875 L17.25,14.828125 L17.453125,14.828125 C18.859375,14.828125 19.5625,13.796875 19.5625,9.34375 C19.5625,4.796875 18.75,3.796875 17.515625,3.796875 Z" transform="translate(0, 19.921875) scale(1, -1)"/>
</svg>