<svg height="22.359375" viewBox="0 0 24 22.359375" width="24" xmlns="http://www.w3.org/2000/svg">
<path d="M12.03125,0.359375 C15.546875,0.359375 17.28125,3.53125 17.28125,9.21875 C17.28125,14.953125 15.546875,18.125 12.03125,18.125 C8.453125,18.125 6.71875,14.953125 6.71875,9.21875 C6.71875,3.53125 8.453125,0.359375 12.03125,0.359375 Z M12.03125,1.171875 C9.671875,1.171875 8.828125,4.203125 8.828125,9.21875 C8.828125,14.28125 9.671875,17.296875 12.03125,17.296875 C14.328125,17.296875 15.171875,14.28125 15.171875,9.21875 C15.171875,4.203125 14.328125,1.171875 12.03125,1.171875 Z M21.8125,9.125 C21.8125,5.65625 20.90625,2.09375 18.1875,-1.625 L18.71875,-2.0625 C22.03125,1.703125 23.203125,5.453125 23.203125,9.125 C23.203125,12.796875 22.03125,16.53125 18.71875,20.296875 L18.1875,19.875 C20.90625,16.15625 21.8125,12.578125 21.8125,9.125 Z M2.1875,9.125 C2.1875,12.578125 3.09375,16.15625 5.8125,19.875 L5.28125,20.296875 C1.96875,16.53125 0.796875,12.796875 0.796875,9.125 C0.796875,5.453125 1.96875,1.703125 5.28125,-2.0625 L5.8125,-1.625 C3.09375,2.09375 2.1875,5.65625 2.1875,9.125 Z" transform="translate(0, 20.296875) scale(1, -1)"/>
</svg>