<svg height="21.609375" viewBox="0 0 24 21.609375" width="24" xmlns="http://www.w3.org/2000/svg">
<path d="M5.40625,3.21875 L5.40625,4.015625 L7.15625,4.171875 L11.25,15.4375 L12.59375,15.4375 L16.9375,4.171875 L18.671875,3.984375 L18.671875,3.21875 L13.375,3.21875 L13.375,3.984375 L15,4.15625 L13.84375,7.125 L9.078125,7.125 L7.984375,4.171875 L9.59375,4.015625 L9.59375,3.21875 Z M9.34375,7.9375 L13.5625,7.9375 L11.40625,13.6875 Z M6.125,-1.6875 L17.875,-1.6875 C20.90625,-1.6875 22.6875,0.09375 22.6875,3.125 L22.6875,15.125 C22.6875,18.140625 20.90625,19.921875 17.875,19.921875 L6.125,19.921875 C3.09375,19.921875 1.3125,18.140625 1.3125,15.125 L1.3125,3.125 C1.3125,0.09375 3.09375,-1.6875 6.125,-1.6875 Z" transform="translate(0, 19.921875) scale(1, -1)"/>
</svg>