<svg height="22.328125" viewBox="0 0 24 22.328125" width="24" xmlns="http://www.w3.org/2000/svg">
<path d="M12,2.921875 C8.515625,2.921875 5.875,5.25 5.875,9.3125 C5.875,13.390625 8.546875,15.75 12,15.75 C15.484375,15.75 18.125,13.390625 18.125,9.3125 C18.125,5.25 15.484375,2.921875 12,2.921875 Z M12,3.75 C14.6875,3.75 16.125,6.078125 16.125,9.3125 C16.125,12.59375 14.6875,14.90625 12,14.90625 C9.3125,14.90625 7.875,12.59375 7.875,9.3125 C7.875,6.078125 9.3125,3.75 12,3.75 Z M12,-2.046875 C18.171875,-2.046875 23.0625,2.828125 23.0625,9.125 C23.0625,15.390625 18.171875,20.28125 12,20.28125 C5.828125,20.28125 0.9375,15.390625 0.9375,9.125 C0.9375,2.859375 5.828125,-2.046875 12,-2.046875 Z" transform="translate(0, 20.28125) scale(1, -1)"/>
</svg>