<svg height="21.609375" viewBox="0 0 24 21.609375" width="24" xmlns="http://www.w3.org/2000/svg">
<path d="M7.3125,3.21875 L7.3125,4.015625 L8.921875,4.171875 C8.953125,5.734375 8.953125,7.3125 8.953125,8.90625 L8.953125,9.75 C8.953125,11.328125 8.953125,12.90625 8.921875,14.5 L7.3125,14.65625 L7.3125,15.4375 L17.140625,15.4375 L17.296875,12.453125 L16.21875,12.453125 L15.90625,14.609375 L10.875,14.609375 C10.828125,13.015625 10.828125,11.359375 10.828125,9.71875 L14.609375,9.71875 L14.78125,11.234375 L15.546875,11.234375 L15.546875,7.25 L14.78125,7.25 L14.609375,8.875 L10.828125,8.875 C10.828125,7.15625 10.828125,5.640625 10.875,4.171875 L12.640625,4.015625 L12.640625,3.21875 Z M6.125,-1.6875 L17.875,-1.6875 C20.90625,-1.6875 22.6875,0.09375 22.6875,3.125 L22.6875,15.125 C22.6875,18.140625 20.90625,19.921875 17.875,19.921875 L6.125,19.921875 C3.09375,19.921875 1.3125,18.140625 1.3125,15.125 L1.3125,3.125 C1.3125,0.09375 3.09375,-1.6875 6.125,-1.6875 Z" transform="translate(0, 19.921875) scale(1, -1)"/>
</svg>