<svg height="17.625" viewBox="0 0 24 17.625" width="24" xmlns="http://www.w3.org/2000/svg">
<path d="M9.984375,-0.484375 Q8.0625,-0.484375 6.453125,0.15625 Q4.84375,0.8125 3.65625,2 Q2.46875,3.1875 1.8125,4.796875 Q1.171875,6.40625 1.171875,8.328125 Q1.171875,10.25 1.8125,11.859375 Q2.46875,13.46875 3.65625,14.65625 Q4.84375,15.84375 6.453125,16.484375 Q8.0625,17.140625 9.984375,17.140625 Q11.8125,17.140625 13.40625,16.484375 Q15,15.84375 16.203125,14.65625 Q17.421875,13.46875 18.109375,11.859375 Q18.796875,10.25 18.796875,8.328125 Q18.796875,6.40625 18.140625,4.796875 Q17.5,3.1875 16.3125,2 Q15.125,0.8125 13.515625,0.15625 Q11.90625,-0.484375 9.984375,-0.484375 Z M10.015625,0.796875 Q11.546875,0.796875 12.890625,1.34375 Q14.234375,1.890625 15.265625,2.90625 Q16.296875,3.9375 16.875,5.296875 Q17.453125,6.671875 17.453125,8.328125 Q17.453125,9.890625 16.890625,11.25 Q16.34375,12.625 15.34375,13.65625 Q14.359375,14.6875 13,15.265625 Q11.640625,15.859375 10.015625,15.859375 Q7.84375,15.859375 6.15625,14.890625 Q4.46875,13.921875 3.5,12.21875 Q2.546875,10.53125 2.546875,8.328125 Q2.546875,6.765625 3.09375,5.390625 Q3.640625,4.03125 4.640625,3 Q5.640625,1.96875 7,1.375 Q8.375,0.796875 10.015625,0.796875 Z M10.578125,4.078125 L9.28125,4.078125 L6.8125,10.9375 L6.796875,10.9375 L6.859375,8.65625 L6.859375,4.078125 L5.453125,4.078125 L5.453125,12.59375 L7.6875,12.59375 L9.953125,6.078125 L9.984375,6.078125 L12.34375,12.59375 L14.515625,12.59375 L14.515625,4.078125 L13.0625,4.078125 L13.0625,8.65625 L13.15625,10.9375 L13.109375,10.9375 Z" transform="translate(2.015625, 17.140625) scale(1, -1)"/>
</svg>