<svg height="31.68" viewBox="0 0 800 1056" width="24" xmlns="http://www.w3.org/2000/svg">
<g transform="translate(-256, 832) scale(1, -1)">
<g>
<g>
<clipPath id="clip-0-1">
<path d="M927,281 Q992,215 1006,136 Q1020,57 981,-21 Q950,-82 903.5,-118 Q857,-154 806.5,-172 Q756,-190 710.5,-196 Q665,-202 637,-202 Q582,-202 530,-191.5 Q478,-181 441,-162 Q385,-135 347.5,-109 Q310,-83 270,-45 Q261,-37 268,-26 L370,130 Q374,135 380,136 Q387,137 392,133 Q403,123 429.5,102.5 Q456,82 493.5,60.5 Q531,39 572,28 Q642,8 684,17.5 Q726,27 744,69 Q756,94 737,130.5 Q718,167 669,191 Q635,207 588.5,229 Q542,251 499,272 L489,277 Q430,307 384.5,336.5 Q339,366 311,419 Q284,467 284,530 Q284,593 311,652 Q339,716 381,750 Q423,784 472,798 Q521,812 572,817 Q599,820 627,820 Q692,820 749.5,807.5 Q807,795 851,777 Q895,759 918,744 Q928,737 923,726 L857,578 Q855,572 849,570 Q843,568 838,570 Q816,581 779,597 Q742,613 692,622 Q662,627 638,627 Q561,627 542,577 Q532,553 540.5,531 Q549,509 566,493 Q583,477 599,470 Q607,466 617,461.5 Q627,457 637,452 Q680,432 733,406 Q786,380 837.5,348.5 Q889,317 927,281 Z" transform="matrix(1 0 0 1 0 0)"/>
</clipPath>
<g clip-path="url(#clip-0-1)">
<path d="M256,-224 L1056,-224 L1056,832 L256,832 Z" fill="rgb(64, 192, 231)" transform="matrix(1 0 0 1 0 0)"/>
</g>
</g>
</g>
</g>
</svg>