<svg height="21.609375" viewBox="0 0 24 21.609375" width="24" xmlns="http://www.w3.org/2000/svg">
<path d="M1.3125,-1.6875 L22.6875,-1.6875 L22.6875,19.921875 L1.3125,19.921875 Z M2.046875,-0.984375 L2.046875,19.21875 L21.953125,19.21875 L21.953125,-0.984375 Z M8.640625,14.859375 L10.171875,14.71875 L10.21875,5.875 L6.140625,15.4375 L3.453125,15.4375 L3.453125,14.828125 L4.625,14.734375 L4.625,3.90625 L3.4375,3.8125 L3.4375,3.21875 L6.859375,3.21875 L6.859375,3.8125 L5.296875,3.90625 L5.25,13.625 L9.71875,3.125 L10.875,3.125 L10.875,14.71875 L11.921875,14.859375 L11.921875,15.4375 L8.640625,15.4375 Z M16.796875,8.609375 L18.3125,8.5 L18.34375,4.734375 L18.34375,3.75 C18.046875,3.59375 17.71875,3.546875 17.359375,3.546875 C15.703125,3.546875 14.5625,5.375 14.5625,9.3125 C14.5625,13.203125 15.625,15.046875 17.328125,15.046875 C17.765625,15.046875 18.09375,15 18.4375,14.859375 L18.9375,12.21875 L19.6875,12.21875 L19.625,14.90625 C18.9375,15.4375 18.1875,15.703125 17.203125,15.703125 C14.765625,15.703125 12.984375,13.65625 12.984375,9.3125 C12.984375,5.015625 14.71875,2.953125 17.0625,2.953125 C18.125,2.953125 18.8125,3.171875 19.703125,3.75 L19.703125,4.625 L19.734375,8.515625 L20.609375,8.609375 L20.609375,9.234375 L16.796875,9.234375 Z" transform="translate(0, 19.921875) scale(1, -1)"/>
</svg>