<svg height="22.5625" viewBox="0 0 24 22.5625" width="24" xmlns="http://www.w3.org/2000/svg">
<path d="M6.390625,-0.40625 C12.703125,1.296875 16.515625,5.5625 16.515625,10.9375 C16.515625,15.578125 14.359375,18.359375 10.625,18.359375 C7.5625,18.359375 5.015625,16.171875 4.984375,12.8125 C4.984375,9.3125 7.078125,7.203125 10.203125,7.203125 C11.8125,7.203125 13.203125,7.796875 14.109375,8.765625 C13.375,4.84375 10.734375,1.9375 6.1875,0.28125 Z M14.234375,9.59375 C13.375,8.5625 12.140625,8.09375 10.921875,8.09375 C8.59375,8.09375 7.078125,9.90625 7.078125,12.859375 C7.078125,15.890625 8.6875,17.59375 10.609375,17.59375 C12.8125,17.59375 14.328125,15.640625 14.328125,11.15625 C14.328125,10.625 14.296875,10.109375 14.234375,9.59375 Z M15.5,-4.203125 C17.5625,-3.28125 19.015625,-1.890625 19.015625,0.59375 C19.015625,1.21875 18.90625,1.53125 18.71875,2.015625 C18.359375,2.328125 18,2.453125 17.546875,2.453125 C16.6875,2.453125 16.15625,1.828125 16.15625,1.15625 C16.15625,0.484375 16.53125,0 17.828125,-0.75 C17.5,-2.09375 16.6875,-2.78125 15.1875,-3.53125 Z" transform="translate(0, 18.359375) scale(1, -1)"/>
</svg>