<svg height="21.609375" viewBox="0 0 24 21.609375" width="24" xmlns="http://www.w3.org/2000/svg">
<path d="M1.3125,-1.6875 L22.6875,-1.6875 L22.6875,19.921875 L1.3125,19.921875 Z M2.046875,-0.984375 L2.046875,19.21875 L21.953125,19.21875 L21.953125,-0.984375 Z M7.125,2.953125 C9.171875,2.953125 10.4375,4.078125 10.4375,6.09375 C10.4375,7.6875 9.953125,8.515625 8.328125,9.796875 L7.296875,10.578125 C6.484375,11.203125 5.953125,11.765625 5.953125,13.03125 C5.953125,14.296875 6.71875,15.03125 7.75,15.03125 C8.15625,15.03125 8.46875,14.953125 8.8125,14.78125 L9.140625,12.484375 L10.015625,12.484375 L10.109375,14.875 C9.40625,15.390625 8.6875,15.671875 7.65625,15.671875 C6,15.671875 4.578125,14.65625 4.578125,12.59375 C4.578125,10.984375 5.28125,10.078125 6.484375,9.21875 L7.4375,8.515625 C8.640625,7.609375 9.046875,6.890625 9.046875,5.6875 C9.046875,4.421875 8.375,3.625 7.078125,3.625 C6.546875,3.625 6.09375,3.71875 5.59375,3.953125 L5.234375,6.40625 L4.390625,6.40625 L4.265625,3.890625 C4.96875,3.390625 5.953125,2.953125 7.125,2.953125 Z M12,14.828125 L13.109375,14.71875 L13.125,9.765625 L13.125,8.90625 L13.109375,3.9375 L12,3.84375 L12,3.21875 L15.4375,3.21875 C18.234375,3.21875 20.015625,4.984375 20.015625,9.34375 C20.015625,13.796875 18.21875,15.4375 15.484375,15.4375 L12,15.4375 Z M14.65625,3.859375 C14.640625,5.515625 14.640625,7.21875 14.640625,8.90625 L14.640625,9.765625 C14.640625,11.453125 14.640625,13.125 14.65625,14.78125 L15.34375,14.78125 C17.375,14.78125 18.453125,13.515625 18.453125,9.34375 C18.453125,5.1875 17.328125,3.859375 15.28125,3.859375 Z" transform="translate(0, 19.921875) scale(1, -1)"/>
</svg>