<svg height="21.609375" viewBox="0 0 24 21.609375" width="24" xmlns="http://www.w3.org/2000/svg">
<path d="M1.3125,-1.6875 L22.6875,-1.6875 L22.6875,19.921875 L1.3125,19.921875 Z M2.046875,-0.984375 L2.046875,19.21875 L21.953125,19.21875 L21.953125,-0.984375 Z M6.9375,14.828125 L8.71875,14.6875 L8.734375,9.71875 L8.734375,8.90625 L8.71875,3.953125 L6.9375,3.84375 L6.9375,3.21875 L12.703125,3.21875 C16.5625,3.21875 17.765625,4.828125 17.765625,6.53125 C17.765625,8.234375 16.6875,9.4375 14.046875,9.703125 C16.25,10.125 17.0625,11.25 17.0625,12.578125 C17.0625,14.234375 15.953125,15.4375 12.84375,15.4375 L6.9375,15.4375 Z M10.34375,9.28125 L12.546875,9.28125 C15.03125,9.28125 16.109375,8.328125 16.109375,6.578125 C16.109375,4.875 14.953125,3.859375 12.765625,3.859375 L10.375,3.859375 C10.34375,5.609375 10.34375,7.21875 10.34375,9.28125 Z M10.375,14.78125 L12.4375,14.78125 C14.8125,14.78125 15.53125,13.796875 15.53125,12.5 C15.53125,10.9375 14.421875,9.90625 12.359375,9.90625 L10.34375,9.90625 Z" transform="translate(0, 19.921875) scale(1, -1)"/>
</svg>