<svg height="24.75" viewBox="0 0 1024 1056" width="24" xmlns="http://www.w3.org/2000/svg">
<g transform="translate(-128, 832) scale(1, -1)">
<g>
<g>
<clipPath id="clip-0-1">
<path d="M1131,361 Q1142,361 1142,350 Q1142,330 1139,290.5 Q1136,251 1126.5,200 Q1117,149 1096.5,94 Q1076,39 1042,-14 Q1008,-67 956,-109.5 Q904,-152 831,-177 Q758,-202 659,-202 Q545,-202 449,-164.5 Q353,-127 282,-58 Q211,11 172,104.5 Q133,198 133,309 Q133,420 172,513 Q211,606 282,675 Q353,744 449,781.5 Q545,819 659,819 Q882,819 1028,685 Q1036,677 1029,669 L880,497 Q877,494 872,494 Q867,493 864,496 Q841,516 806,535 Q771,554 732.5,566 Q694,578 659,578 Q599,578 551.5,555 Q504,532 471,493 Q438,454 420.5,406 Q403,358 403,308 Q403,258 420.5,208.5 Q438,159 471.5,118 Q505,77 552.5,52.5 Q600,28 659,28 Q710,28 754,47.5 Q798,67 827,99.5 Q856,132 861,171 L731,171 Q726,171 723,175 Q720,178 720,182 L720,350 Q720,361 731,361 Z" transform="matrix(1 0 0 1 0 0)"/>
</clipPath>
<g clip-path="url(#clip-0-1)">
<path d="M128,-224 L1152,-224 L1152,832 L128,832 Z" fill="rgb(64, 192, 231)" transform="matrix(1 0 0 1 0 0)"/>
</g>
</g>
</g>
</g>
</svg>