<svg height="21.609375" viewBox="0 0 24 21.609375" width="24" xmlns="http://www.w3.org/2000/svg">
<path d="M12,2.921875 C15.453125,2.921875 18.078125,5.296875 18.078125,9.3125 C18.078125,13.375 15.453125,15.71875 12,15.71875 C8.546875,15.71875 5.921875,13.375 5.921875,9.3125 C5.921875,5.296875 8.515625,2.921875 12,2.921875 Z M12,3.578125 C9.1875,3.578125 7.625,5.96875 7.625,9.3125 C7.625,12.640625 9.1875,15.046875 12,15.046875 C14.8125,15.046875 16.375,12.640625 16.375,9.3125 C16.375,5.96875 14.8125,3.578125 12,3.578125 Z M1.3125,-1.6875 L22.6875,-1.6875 L22.6875,19.921875 L1.3125,19.921875 Z M2.046875,-0.984375 L2.046875,19.21875 L21.953125,19.21875 L21.953125,-0.984375 Z" transform="translate(0, 19.921875) scale(1, -1)"/>
</svg>