<svg height="21.609375" viewBox="0 0 24 21.609375" width="24" xmlns="http://www.w3.org/2000/svg">
<path d="M1.3125,-1.6875 L22.6875,-1.6875 L22.6875,19.921875 L1.3125,19.921875 Z M2.046875,-0.984375 L2.046875,19.21875 L21.953125,19.21875 L21.953125,-0.984375 Z M11.234375,3.21875 L11.828125,3.21875 L16.0625,13.703125 L16.0625,8.90625 L15.984375,3.953125 L14.203125,3.84375 L14.203125,3.21875 L19.5625,3.21875 L19.5625,3.84375 L17.6875,3.953125 L17.65625,8.90625 L17.65625,9.765625 L17.6875,14.6875 L19.46875,14.828125 L19.46875,15.4375 L16.078125,15.4375 L12.046875,5.5625 L7.984375,15.4375 L4.5625,15.4375 L4.5625,14.828125 L6.28125,14.6875 L6.265625,4.015625 L4.3125,3.84375 L4.3125,3.21875 L8.828125,3.21875 L8.828125,3.84375 L6.953125,3.984375 L6.984375,13.703125 Z" transform="translate(0, 19.921875) scale(1, -1)"/>
</svg>