<svg height="34.909092" viewBox="0 0 704 1024" width="24" xmlns="http://www.w3.org/2000/svg">
<g transform="translate(-288, 832) scale(1, -1)">
<g>
<g>
<clipPath id="clip-0-1">
<path d="M965,608 L537,608 L537,422 L866,422 Q875,422 881,416 Q887,410 887,401 L887,244 Q887,236 881,229.5 Q875,223 866,223 L537,223 L537,17 L965,17 Q973,17 979.5,10.5 Q986,4 986,-4 L986,-161 Q986,-170 979.5,-176 Q973,-182 965,-182 L310,-182 Q302,-182 295.5,-176 Q289,-170 289,-161 L289,785 Q289,794 295.5,800 Q302,806 310,806 L965,806 Q973,806 979.5,800 Q986,794 986,785 L986,629 Q986,620 979.5,614 Q973,608 965,608 Z" transform="matrix(1 0 0 1 0 0)"/>
</clipPath>
<g clip-path="url(#clip-0-1)">
<path d="M288,-192 L992,-192 L992,832 L288,832 Z" fill="rgb(64, 192, 231)" transform="matrix(1 0 0 1 0 0)"/>
</g>
</g>
</g>
</g>
</svg>