<svg height="21.609375" viewBox="0 0 24 21.609375" width="24" xmlns="http://www.w3.org/2000/svg">
<path d="M1.3125,-1.6875 L22.6875,-1.6875 L22.6875,19.921875 L1.3125,19.921875 Z M2.046875,-0.984375 L2.046875,19.21875 L21.953125,19.21875 L21.953125,-0.984375 Z M6.8125,2.953125 C9.09375,2.953125 10.625,4.265625 10.625,6.390625 C10.625,8.1875 9.640625,9.34375 7.703125,9.625 C9.4375,10.03125 10.203125,11.296875 10.203125,12.640625 C10.203125,14.375 9.078125,15.671875 7.0625,15.671875 C5.515625,15.671875 4.125,15 3.84375,13.203125 C3.9375,12.9375 4.203125,12.75 4.484375,12.75 C4.984375,12.75 5.25,12.9375 5.609375,14.875 C5.953125,15 6.28125,15.046875 6.703125,15.046875 C7.921875,15.046875 8.71875,14.09375 8.71875,12.546875 C8.71875,10.828125 7.6875,9.859375 6.1875,9.859375 L5.5,9.859375 L5.5,9.21875 L6.265625,9.21875 C8.109375,9.21875 9.046875,8.296875 9.046875,6.453125 C9.046875,4.609375 8.0625,3.578125 6.390625,3.578125 C5.90625,3.578125 5.5625,3.625 5.25,3.765625 C4.96875,5.859375 4.6875,6.046875 4.203125,6.046875 C3.890625,6.046875 3.59375,5.828125 3.484375,5.421875 C3.8125,3.8125 4.921875,2.953125 6.8125,2.953125 Z M12.234375,14.828125 L13.34375,14.71875 L13.375,9.765625 L13.375,8.90625 L13.34375,3.9375 L12.234375,3.84375 L12.234375,3.21875 L15.671875,3.21875 C18.484375,3.21875 20.25,4.984375 20.25,9.34375 C20.25,13.796875 18.453125,15.4375 15.71875,15.4375 L12.234375,15.4375 Z M14.90625,3.859375 C14.875,5.515625 14.875,7.21875 14.875,8.90625 L14.875,9.765625 C14.875,11.453125 14.875,13.125 14.90625,14.78125 L15.578125,14.78125 C17.609375,14.78125 18.703125,13.515625 18.703125,9.34375 C18.703125,5.1875 17.5625,3.859375 15.53125,3.859375 Z" transform="translate(0, 19.921875) scale(1, -1)"/>
</svg>