<svg height="26.48276" viewBox="0 0 928 1024" width="24" xmlns="http://www.w3.org/2000/svg">
<g transform="translate(-224, 832) scale(1, -1)">
<g>
<g>
<clipPath id="clip-0-1">
<path d="M654,806 Q760,806 846.5,771 Q933,736 996,670.5 Q1059,605 1092.5,514 Q1126,423 1126,312 Q1126,201 1092,110.5 Q1058,20 995.5,-45.5 Q933,-111 846,-146.5 Q759,-182 653,-182 L245,-182 Q236,-182 230,-176 Q224,-170 224,-161 L224,785 Q224,794 230,800 Q236,806 245,806 Z M641,49 Q644,49 647.5,49 Q651,49 654,50 Q664,50 675,51 Q736,59 781.5,93.5 Q827,128 852.5,184 Q878,240 878,312 Q878,385 852.5,441 Q827,497 781.5,531.5 Q736,566 675,573 Q664,575 654,575 Q651,575 647.5,575.5 Q644,576 641,576 Q638,576 634,574 Q632,574 632,574 Q629,575 630,575 L493,575 Q484,575 478,569 Q472,563 472,554 L472,70 Q472,62 478,56 Q484,50 493,50 L630,50 Q629,50 632,50 Q632,50 634,50 Q638,49 641,49 Z" transform="matrix(1 0 0 1 0 0)"/>
</clipPath>
<g clip-path="url(#clip-0-1)">
<path d="M224,-192 L1152,-192 L1152,832 L224,832 Z" fill="rgb(64, 192, 231)" transform="matrix(1 0 0 1 0 0)"/>
</g>
</g>
</g>
</g>
</svg>