<svg height="23.294117" viewBox="0 0 1088 1056" width="24" xmlns="http://www.w3.org/2000/svg">
<g transform="translate(-96, 832) scale(1, -1)">
<g>
<g>
<clipPath id="clip-0-1">
<path d="M638,809 Q518,809 422,769.5 Q326,730 258,661 Q190,592 154,500.5 Q118,409 118,304 Q118,200 154,108.5 Q190,17 258,-52.5 Q326,-122 422,-161 Q518,-200 638,-200 Q758,-200 854,-161 Q950,-122 1017.5,-52.5 Q1085,17 1121,108.5 Q1157,200 1157,304 Q1157,409 1121,500.5 Q1085,592 1017.5,661 Q950,730 854,769.5 Q758,809 638,809 Z M638,42 Q554,42 493.5,77.5 Q433,113 400,172.5 Q367,232 367,304 Q367,377 400,436.5 Q433,496 493.5,531 Q554,566 638,566 Q721,566 781.5,531 Q842,496 875,436.5 Q908,377 908,304 Q908,232 875,172.5 Q842,113 781.5,77.5 Q721,42 638,42 Z" transform="matrix(1 0 0 1 0 0)"/>
</clipPath>
<g clip-path="url(#clip-0-1)">
<path d="M96,-224 L1184,-224 L1184,832 L96,832 Z" fill="rgb(64, 192, 231)" transform="matrix(1 0 0 1 0 0)"/>
</g>
</g>
</g>
</g>
</svg>