<svg height="21.609375" viewBox="0 0 24 21.609375" width="24" xmlns="http://www.w3.org/2000/svg">
<path d="M1.3125,-1.6875 L22.6875,-1.6875 L22.6875,19.921875 L1.3125,19.921875 Z M2.046875,-0.984375 L2.046875,19.21875 L21.953125,19.21875 L21.953125,-0.984375 Z M6.484375,14.828125 L8.28125,14.6875 L8.296875,9.765625 L8.296875,8.90625 L8.28125,3.953125 L6.484375,3.84375 L6.484375,3.21875 L11.875,3.21875 L11.875,3.84375 L9.90625,3.953125 L9.890625,8.859375 L11.828125,8.859375 C13.25,8.859375 13.53125,8.203125 13.96875,7.015625 L15,4.34375 C15.21875,3.40625 15.71875,3.03125 16.984375,3.03125 C17.65625,3.03125 18.078125,3.09375 18.625,3.21875 L18.625,3.84375 L16.75,3.953125 L15.640625,6.859375 C15.234375,8.15625 14.875,8.875 13.390625,9.171875 C15.5,9.53125 16.515625,10.84375 16.515625,12.28125 C16.515625,14.328125 15,15.4375 12.28125,15.4375 L6.484375,15.4375 Z M9.90625,14.78125 L11.859375,14.78125 C13.890625,14.78125 14.90625,13.875 14.90625,12.1875 C14.90625,10.625 13.875,9.484375 12.09375,9.484375 L9.890625,9.484375 C9.890625,11.46875 9.890625,13.15625 9.90625,14.78125 Z" transform="translate(0, 19.921875) scale(1, -1)"/>
</svg>