<svg height="21.609375" viewBox="0 0 24 21.609375" width="24" xmlns="http://www.w3.org/2000/svg">
<path d="M14.875,2.546875 C15.40625,2.546875 15.8125,3 15.8125,3.53125 C15.8125,4.0625 15.40625,4.515625 14.875,4.515625 C14.328125,4.515625 13.890625,4.0625 13.890625,3.53125 C13.890625,3 14.328125,2.546875 14.875,2.546875 Z M1.3125,-1.6875 L22.6875,-1.6875 L22.6875,19.921875 L1.3125,19.921875 Z M2.046875,-0.984375 L2.046875,19.21875 L21.953125,19.21875 L21.953125,-0.984375 Z M3,3.21875 L7.703125,3.21875 L7.703125,4.390625 L3.671875,4.390625 C6.8125,9.21875 7.484375,11.015625 7.484375,12.703125 C7.484375,14.515625 6.71875,15.671875 5.296875,15.671875 C4.15625,15.671875 3.3125,14.828125 3.140625,13.265625 C3.234375,12.984375 3.4375,12.8125 3.703125,12.8125 C4.03125,12.8125 4.265625,13.03125 4.46875,15.03125 C4.65625,15.125 4.84375,15.140625 5.0625,15.140625 C5.90625,15.140625 6.390625,14.296875 6.390625,12.640625 C6.390625,11.15625 6.046875,9.640625 3,4.0625 Z M8.421875,3.21875 L13.15625,3.21875 L13.15625,4.390625 L9.140625,4.390625 C12.28125,9.21875 12.90625,11.015625 12.90625,12.703125 C12.90625,14.515625 12.140625,15.671875 10.75,15.671875 C9.578125,15.671875 8.765625,14.828125 8.5625,13.265625 C8.6875,12.984375 8.875,12.8125 9.125,12.8125 C9.5,12.8125 9.703125,13.03125 9.90625,15.03125 C10.109375,15.125 10.296875,15.140625 10.515625,15.140625 C11.359375,15.140625 11.8125,14.296875 11.8125,12.640625 C11.8125,11.15625 11.5,9.640625 8.421875,4.0625 Z M16.515625,3.21875 L21.21875,3.21875 L21.21875,4.390625 L17.203125,4.390625 C20.359375,9.21875 21,11.015625 21,12.703125 C21,14.515625 20.234375,15.671875 18.8125,15.671875 C17.65625,15.671875 16.828125,14.828125 16.625,13.265625 C16.75,12.984375 16.96875,12.8125 17.1875,12.8125 C17.5625,12.8125 17.78125,13.03125 18,15.03125 C18.1875,15.125 18.359375,15.140625 18.578125,15.140625 C19.421875,15.140625 19.890625,14.296875 19.890625,12.640625 C19.890625,11.15625 19.5625,9.640625 16.515625,4.0625 Z" transform="translate(0, 19.921875) scale(1, -1)"/>
</svg>