<svg height="28.285715" viewBox="0 0 896 1056" width="24" xmlns="http://www.w3.org/2000/svg">
<g transform="translate(-192, 832) scale(1, -1)">
<g>
<g>
<clipPath id="clip-0-1">
<path d="M1080,-60 Q1084,-67 1077,-73 Q930,-199 719,-199 Q605,-199 509,-161.5 Q413,-124 342.5,-55 Q272,14 233,107 Q194,200 194,311 Q194,422 233,515.5 Q272,609 342.5,677.5 Q413,746 509,784 Q605,822 719,822 Q932,822 1064,717 Q1071,711 1067,703 L950,489 Q947,485 942,484 Q937,483 933,486 Q894,517 837,535 Q780,553 720,553 Q647,553 591,522 Q535,491 503.5,436.5 Q472,382 472,311 Q472,240 503.5,186 Q535,132 591,101 Q647,70 720,70 Q758,70 802,81 Q846,92 887,110.5 Q928,129 957,153 Q962,156 967,155 Q972,154 974,149 Z" transform="matrix(1 0 0 1 0 0)"/>
</clipPath>
<g clip-path="url(#clip-0-1)">
<path d="M192,-224 L1088,-224 L1088,832 L192,832 Z" fill="rgb(64, 192, 231)" transform="matrix(1 0 0 1 0 0)"/>
</g>
</g>
</g>
</g>
</svg>