<svg height="22.546875" viewBox="0 0 24 22.546875" width="24" xmlns="http://www.w3.org/2000/svg">
<path d="M9.359375,-0.40625 C13.15625,-0.40625 15.34375,1.390625 15.34375,4.21875 C15.34375,6.546875 14.09375,8.1875 10.609375,9.640625 C13.4375,10.890625 14.609375,12.40625 14.609375,14.234375 C14.609375,16.65625 12.796875,18.34375 9.625,18.34375 C6.625,18.34375 4.3125,16.53125 4.3125,13.734375 C4.3125,11.609375 5.546875,9.9375 8.234375,8.734375 C5.296875,7.515625 3.796875,6 3.796875,3.8125 C3.796875,1.25 5.765625,-0.40625 9.359375,-0.40625 Z M9.953125,9.90625 C7.03125,11.203125 6.09375,12.625 6.09375,14.25 C6.09375,16.296875 7.65625,17.59375 9.578125,17.59375 C11.640625,17.59375 12.90625,16.203125 12.90625,14.296875 C12.90625,12.484375 12.09375,11.328125 9.953125,9.90625 Z M8.859375,8.46875 C12.453125,6.984375 13.46875,5.6875 13.46875,3.796875 C13.46875,1.703125 12.03125,0.390625 9.546875,0.390625 C7.03125,0.390625 5.546875,1.703125 5.546875,3.9375 C5.546875,5.828125 6.4375,7.015625 8.859375,8.46875 Z M16.703125,-4.203125 C18.765625,-3.28125 20.203125,-1.890625 20.203125,0.59375 C20.203125,1.21875 20.109375,1.53125 19.921875,2.015625 C19.5625,2.328125 19.203125,2.453125 18.75,2.453125 C17.875,2.453125 17.359375,1.828125 17.359375,1.15625 C17.359375,0.484375 17.734375,0 19.03125,-0.75 C18.703125,-2.09375 17.875,-2.78125 16.390625,-3.53125 Z" transform="translate(0, 18.34375) scale(1, -1)"/>
</svg>