<svg height="24.774193" viewBox="0 0 992 1024" width="24" xmlns="http://www.w3.org/2000/svg">
<g transform="translate(-128, 832) scale(1, -1)">
<g>
<g>
<clipPath id="clip-0-1">
<path d="M1115,794 Q1121,782 1113,771 L771,259 L771,-159 Q771,-168 764.5,-174 Q758,-180 749,-180 L526,-180 Q517,-180 510.5,-174 Q504,-168 504,-159 L504,259 L162,771 Q154,782 160,794 Q167,805 180,805 L389,805 Q401,805 407,796 L638,465 L868,796 Q874,805 886,805 L1095,805 Q1108,805 1115,794 Z" transform="matrix(1 0 0 1 0 0)"/>
</clipPath>
<g clip-path="url(#clip-0-1)">
<path d="M128,-192 L1120,-192 L1120,832 L128,832 Z" fill="rgb(64, 192, 231)" transform="matrix(1 0 0 1 0 0)"/>
</g>
</g>
</g>
</g>
</svg>