<svg height="22.359375" viewBox="0 0 24 22.359375" width="24" xmlns="http://www.w3.org/2000/svg">
<path d="M21.8125,9.125 C21.8125,5.65625 20.90625,2.09375 18.1875,-1.625 L18.71875,-2.0625 C22.03125,1.703125 23.203125,5.453125 23.203125,9.125 C23.203125,12.796875 22.03125,16.53125 18.71875,20.296875 L18.1875,19.875 C20.90625,16.15625 21.8125,12.578125 21.8125,9.125 Z M2.1875,9.125 C2.1875,12.578125 3.09375,16.15625 5.8125,19.875 L5.28125,20.296875 C1.96875,16.53125 0.796875,12.796875 0.796875,9.125 C0.796875,5.453125 1.96875,1.703125 5.28125,-2.0625 L5.8125,-1.625 C3.09375,2.09375 2.1875,5.65625 2.1875,9.125 Z M11.71875,0.359375 C14.6875,0.359375 16.609375,1.84375 16.609375,4.625 C16.609375,6.8125 15.9375,7.96875 13.46875,9.765625 L11.90625,10.921875 C10.6875,11.765625 9.8125,12.578125 9.8125,14.453125 C9.8125,16.265625 10.984375,17.328125 12.546875,17.328125 C13.21875,17.328125 13.75,17.234375 14.28125,16.96875 L14.78125,13.75 L15.984375,13.75 L16.125,17.015625 C15.046875,17.71875 13.984375,18.125 12.4375,18.125 C10.0625,18.125 7.984375,16.734375 7.984375,13.9375 C7.984375,11.734375 9,10.484375 10.78125,9.265625 L12.21875,8.25 C14.109375,6.953125 14.734375,5.953125 14.734375,4.203125 C14.734375,2.328125 13.65625,1.171875 11.6875,1.171875 C10.84375,1.171875 10.125,1.296875 9.3125,1.6875 L8.78125,5.046875 L7.625,5.046875 L7.4375,1.609375 C8.453125,0.953125 9.984375,0.359375 11.71875,0.359375 Z" transform="translate(0, 20.296875) scale(1, -1)"/>
</svg>