<svg height="21.609375" viewBox="0 0 24 21.609375" width="24" xmlns="http://www.w3.org/2000/svg">
<path d="M1.3125,-1.6875 L22.6875,-1.6875 L22.6875,19.921875 L1.3125,19.921875 Z M2.046875,-0.984375 L2.046875,19.21875 L21.953125,19.21875 L21.953125,-0.984375 Z M14.140625,3.09375 L17.46875,3.21875 L17.46875,3.796875 L15.671875,3.890625 L15.671875,13.875 L15.71875,16.390625 L15.484375,16.5625 L12.28125,16.109375 L12.28125,15.59375 L14.0625,15.484375 L14.0625,10.828125 C13.203125,11.78125 12.09375,12.21875 10.984375,12.21875 C8.515625,12.21875 6.546875,10.375 6.546875,7.484375 C6.546875,4.515625 8.421875,2.921875 10.734375,2.921875 C12.03125,2.921875 13.125,3.359375 14.09375,4.421875 Z M14.09375,5.015625 C13.15625,4.171875 12.34375,3.84375 11.359375,3.84375 C9.53125,3.84375 8.25,5.109375 8.25,7.53125 C8.25,9.8125 9.578125,11.28125 11.40625,11.28125 C12.40625,11.28125 13.25,10.984375 14.09375,10.21875 Z" transform="translate(0, 19.921875) scale(1, -1)"/>
</svg>