<svg height="21.609375" viewBox="0 0 24 21.609375" width="24" xmlns="http://www.w3.org/2000/svg">
<path d="M1.3125,-1.6875 L22.6875,-1.6875 L22.6875,19.921875 L1.3125,19.921875 Z M2.046875,-0.984375 L2.046875,19.21875 L21.953125,19.21875 L21.953125,-0.984375 Z M13.796875,14.828125 L15.5,14.65625 L12.3125,10.203125 L9.171875,14.6875 L10.828125,14.828125 L10.828125,15.4375 L5.921875,15.4375 L5.921875,14.828125 L7.484375,14.6875 L11.375,9.046875 L7.484375,3.9375 L5.6875,3.84375 L5.6875,3.21875 L10.109375,3.21875 L10.109375,3.84375 L8.359375,3.9375 L11.71875,8.546875 L14.875,3.953125 L13.34375,3.84375 L13.34375,3.21875 L18.28125,3.21875 L18.28125,3.84375 L16.5625,3.984375 L12.671875,9.703125 L16.390625,14.65625 L18.03125,14.828125 L18.03125,15.4375 L13.796875,15.4375 Z" transform="translate(0, 19.921875) scale(1, -1)"/>
</svg>