<svg height="21.609375" viewBox="0 0 24 21.609375" width="24" xmlns="http://www.w3.org/2000/svg">
<path d="M12,4.875 C9.21875,4.875 7.6875,7.015625 7.6875,9.953125 C7.6875,12.90625 9.21875,15.078125 12,15.078125 C14.78125,15.078125 16.3125,12.90625 16.3125,9.953125 C16.3125,7.015625 14.78125,4.875 12,4.875 Z M1.3125,-1.6875 L22.6875,-1.6875 L22.6875,19.921875 L1.3125,19.921875 Z M2.046875,-0.984375 L2.046875,19.21875 L21.953125,19.21875 L21.953125,-0.984375 Z M15.046875,0.953125 C16.015625,0.953125 16.796875,1.171875 17.71875,1.734375 L17.5,2.25 C16.78125,1.921875 16.15625,1.78125 15.40625,1.78125 C13.9375,1.78125 12.890625,2.6875 12.765625,4.265625 C15.8125,4.5625 18.03125,6.59375 18.03125,9.953125 C18.03125,13.609375 15.453125,15.71875 12,15.71875 C8.546875,15.71875 5.96875,13.609375 5.96875,9.953125 C5.96875,6.640625 8.140625,4.609375 11.140625,4.296875 C11.203125,2.515625 12.40625,0.953125 15.046875,0.953125 Z" transform="translate(0, 19.921875) scale(1, -1)"/>
</svg>