<svg height="21.609375" viewBox="0 0 24 21.609375" width="24" xmlns="http://www.w3.org/2000/svg">
<path d="M12,2.921875 C8.515625,2.921875 5.875,5.25 5.875,9.3125 C5.875,13.390625 8.546875,15.75 12,15.75 C15.484375,15.75 18.125,13.390625 18.125,9.3125 C18.125,5.25 15.484375,2.921875 12,2.921875 Z M12,3.75 C14.6875,3.75 16.125,6.078125 16.125,9.3125 C16.125,12.59375 14.6875,14.90625 12,14.90625 C9.3125,14.90625 7.875,12.59375 7.875,9.3125 C7.875,6.078125 9.3125,3.75 12,3.75 Z M6.125,-1.6875 L17.875,-1.6875 C20.90625,-1.6875 22.6875,0.09375 22.6875,3.125 L22.6875,15.125 C22.6875,18.140625 20.90625,19.921875 17.875,19.921875 L6.125,19.921875 C3.09375,19.921875 1.3125,18.140625 1.3125,15.125 L1.3125,3.125 C1.3125,0.09375 3.09375,-1.6875 6.125,-1.6875 Z" transform="translate(0, 19.921875) scale(1, -1)"/>
</svg>