<svg height="26.571428" viewBox="0 0 896 992" width="24" xmlns="http://www.w3.org/2000/svg">
<g transform="translate(-192, 800) scale(1, -1)">
<g>
<g>
<clipPath id="clip-0-1">
<path d="M1059,15 Q1067,15 1073.5,9 Q1080,3 1079,-6 L1079,-163 Q1079,-171 1073,-177.5 Q1067,-184 1058,-184 L497,-184 Q494,-185 491,-185 L216,-185 Q203,-185 197,-173 Q191,-162 198,-151 L661,597 L216,597 Q208,597 201.5,603 Q195,609 195,618 L195,775 Q195,783 201.5,789.5 Q208,796 216,796 L791,796 Q794,797 797,797 L1059,797 Q1071,797 1078,785 Q1084,774 1077,763 L624,15 Z" transform="matrix(1 0 0 1 0 0)"/>
</clipPath>
<g clip-path="url(#clip-0-1)">
<path d="M192,-192 L1088,-192 L1088,800 L192,800 Z" fill="rgb(64, 192, 231)" transform="matrix(1 0 0 1 0 0)"/>
</g>
</g>
</g>
</g>
</svg>