<svg height="22.359375" viewBox="0 0 24 22.359375" width="24" xmlns="http://www.w3.org/2000/svg">
<path d="M21.8125,9.125 C21.8125,5.65625 20.90625,2.09375 18.1875,-1.625 L18.71875,-2.0625 C22.03125,1.703125 23.203125,5.453125 23.203125,9.125 C23.203125,12.796875 22.03125,16.53125 18.71875,20.296875 L18.1875,19.875 C20.90625,16.15625 21.8125,12.578125 21.8125,9.125 Z M2.1875,9.125 C2.1875,12.578125 3.09375,16.15625 5.8125,19.875 L5.28125,20.296875 C1.96875,16.53125 0.796875,12.796875 0.796875,9.125 C0.796875,5.453125 1.96875,1.703125 5.28125,-2.0625 L5.8125,-1.625 C3.09375,2.09375 2.1875,5.65625 2.1875,9.125 Z M14.109375,17.015625 L15.8125,16.84375 L15.84375,5.546875 C15.84375,2.65625 14.734375,1.5625 12.640625,1.5625 C10.6875,1.5625 9.5,2.59375 9.5,5.359375 L9.5,9.859375 C9.5,12.234375 9.5,14.59375 9.53125,16.890625 L11.40625,17.015625 L11.40625,17.765625 L5.78125,17.765625 L5.78125,17.015625 L7.34375,16.890625 C7.375,14.5625 7.375,12.21875 7.375,9.859375 L7.375,5.40625 C7.375,1.53125 9.265625,0.359375 12.140625,0.359375 C15.03125,0.359375 16.78125,1.78125 16.796875,5.5 L16.796875,16.84375 L18.21875,17.015625 L18.21875,17.765625 L14.109375,17.765625 Z" transform="translate(0, 20.296875) scale(1, -1)"/>
</svg>