<svg height="29.538462" viewBox="0 0 832 1024" width="24" xmlns="http://www.w3.org/2000/svg">
<g transform="translate(-256, 832) scale(1, -1)">
<g>
<g>
<clipPath id="clip-0-1">
<path d="M1074,-151 Q1080,-161 1074,-172 Q1069,-183 1056,-183 L827,-183 Q815,-183 809,-173 L520,289 L520,-162 Q520,-171 514,-177 Q508,-183 499,-183 L294,-183 Q285,-183 279,-177 Q273,-171 273,-162 L273,785 Q273,793 279,799.5 Q285,806 294,806 L499,806 Q508,806 514,799.5 Q520,793 520,785 L520,415 L773,796 Q779,806 791,806 L1020,806 Q1032,806 1038,795 Q1044,784 1037,773 L759,353 Z" transform="matrix(1 0 0 1 0 0)"/>
</clipPath>
<g clip-path="url(#clip-0-1)">
<path d="M256,-192 L1088,-192 L1088,832 L256,832 Z" fill="rgb(64, 192, 231)" transform="matrix(1 0 0 1 0 0)"/>
</g>
</g>
</g>
</g>
</svg>