<svg height="21.609375" viewBox="0 0 24 21.609375" width="24" xmlns="http://www.w3.org/2000/svg">
<path d="M7.078125,2.953125 C5.953125,2.953125 4.96875,3.359375 4.265625,3.890625 L4.34375,6.4375 L5.453125,6.4375 L5.6875,4.109375 C6.171875,3.859375 6.546875,3.75 7.0625,3.75 C8.234375,3.75 8.90625,4.515625 8.90625,5.71875 C8.90625,6.8125 8.46875,7.578125 7.3125,8.453125 L6.359375,9.140625 C5.234375,9.9375 4.515625,10.84375 4.515625,12.53125 C4.515625,14.640625 5.953125,15.703125 7.65625,15.703125 C8.71875,15.703125 9.453125,15.40625 10.15625,14.90625 L10.0625,12.4375 L8.953125,12.4375 L8.6875,14.6875 C8.40625,14.828125 8.109375,14.875 7.75,14.875 C6.796875,14.875 6.078125,14.25 6.078125,12.984375 C6.078125,11.828125 6.578125,11.234375 7.3125,10.6875 L8.375,9.859375 C10.015625,8.59375 10.484375,7.703125 10.484375,6.125 C10.484375,4.109375 9.171875,2.953125 7.078125,2.953125 Z M11.40625,3.21875 L11.40625,4.015625 L12.40625,4.078125 L15.34375,15.4375 L16.484375,15.4375 L19.53125,4.109375 L20.5625,4.015625 L20.5625,3.21875 L16.4375,3.21875 L16.4375,4.015625 L17.734375,4.078125 L16.96875,7.109375 L13.9375,7.109375 L13.203125,4.109375 L14.40625,4.015625 L14.40625,3.21875 Z M14.109375,7.890625 L16.78125,7.890625 L15.40625,13.171875 Z M6.125,-1.6875 L17.875,-1.6875 C20.90625,-1.6875 22.6875,0.09375 22.6875,3.125 L22.6875,15.125 C22.6875,18.140625 20.90625,19.921875 17.875,19.921875 L6.125,19.921875 C3.09375,19.921875 1.3125,18.140625 1.3125,15.125 L1.3125,3.125 C1.3125,0.09375 3.09375,-1.6875 6.125,-1.6875 Z" transform="translate(0, 19.921875) scale(1, -1)"/>
</svg>