<svg height="21.609375" viewBox="0 0 24 21.609375" width="24" xmlns="http://www.w3.org/2000/svg">
<path d="M4.65625,3.21875 L4.65625,4.015625 L5.734375,4.109375 C5.765625,5.6875 5.734375,7.296875 5.734375,8.90625 L5.734375,9.75 C5.734375,11.375 5.765625,12.953125 5.734375,14.5625 L4.65625,14.65625 L4.65625,15.4375 L8.5,15.4375 C11.140625,15.4375 12.234375,14.140625 12.234375,11.765625 C12.234375,9.34375 10.890625,8.0625 8.25,8.0625 L7.484375,8.0625 C7.484375,6.84375 7.484375,5.46875 7.515625,4.125 L9.03125,4.015625 L9.03125,3.21875 Z M11.515625,3.21875 L11.515625,4.015625 L12.53125,4.078125 L15.453125,15.4375 L16.609375,15.4375 L19.65625,4.109375 L20.6875,4.015625 L20.6875,3.21875 L16.5625,3.21875 L16.5625,4.015625 L17.859375,4.078125 L17.09375,7.109375 L14.0625,7.109375 L13.3125,4.109375 L14.515625,4.015625 L14.515625,3.21875 Z M8.421875,14.640625 L7.515625,14.640625 C7.484375,13.015625 7.484375,11.40625 7.484375,9.75 L7.484375,8.859375 L8.203125,8.859375 C9.765625,8.859375 10.46875,9.890625 10.46875,11.875 C10.46875,13.703125 9.84375,14.640625 8.421875,14.640625 Z M14.234375,7.890625 L16.890625,7.890625 L15.546875,13.171875 Z M6.125,-1.6875 L17.875,-1.6875 C20.90625,-1.6875 22.6875,0.09375 22.6875,3.125 L22.6875,15.125 C22.6875,18.140625 20.90625,19.921875 17.875,19.921875 L6.125,19.921875 C3.09375,19.921875 1.3125,18.140625 1.3125,15.125 L1.3125,3.125 C1.3125,0.09375 3.09375,-1.6875 6.125,-1.6875 Z" transform="translate(0, 19.921875) scale(1, -1)"/>
</svg>