<svg height="21.609375" viewBox="0 0 24 21.609375" width="24" xmlns="http://www.w3.org/2000/svg">
<path d="M12.125,2.546875 C12.640625,2.546875 13.078125,3 13.078125,3.53125 C13.078125,4.0625 12.640625,4.515625 12.125,4.515625 C11.5625,4.515625 11.140625,4.0625 11.140625,3.53125 C11.140625,3 11.5625,2.546875 12.125,2.546875 Z M1.3125,-1.6875 L22.6875,-1.6875 L22.6875,19.921875 L1.3125,19.921875 Z M2.046875,-0.984375 L2.046875,19.21875 L21.953125,19.21875 L21.953125,-0.984375 Z M6.75,2.953125 C9.078125,2.953125 10.578125,4.4375 10.578125,6.9375 C10.578125,9.34375 9.234375,10.75 7.109375,10.75 C6.34375,10.75 5.609375,10.609375 4.96875,10.21875 L5.1875,13.921875 L10.03125,13.921875 L10.03125,15.359375 L4.5625,15.359375 L4.21875,9.5 L4.609375,9.34375 C5.25,9.765625 5.96875,9.9375 6.671875,9.9375 C8.09375,9.9375 9.046875,8.875 9.046875,6.796875 C9.046875,4.703125 8.0625,3.578125 6.453125,3.578125 C5.96875,3.578125 5.640625,3.625 5.328125,3.765625 C4.96875,5.828125 4.6875,6.078125 4.25,6.078125 C3.90625,6.078125 3.625,5.8125 3.546875,5.375 C3.859375,3.703125 5.09375,2.953125 6.75,2.953125 Z M16.78125,3.21875 L20.5625,3.21875 L20.5625,3.796875 L18.1875,3.953125 L18.171875,7.203125 L18.171875,12.671875 L18.234375,15.390625 L18,15.625 L14.546875,14.65625 L14.546875,13.984375 L16.828125,14.421875 L16.828125,7.203125 L16.796875,3.9375 L14.453125,3.796875 L14.453125,3.21875 Z" transform="translate(0, 19.921875) scale(1, -1)"/>
</svg>