<svg height="22.328125" viewBox="0 0 24 22.328125" width="24" xmlns="http://www.w3.org/2000/svg">
<path d="M12.9375,2.921875 C9.046875,2.921875 6.140625,5.09375 6.140625,9.265625 C6.140625,13.375 8.875,15.75 12.9375,15.75 C14.46875,15.75 15.53125,15.390625 16.6875,14.78125 L16.75,12.03125 L15.765625,12.03125 L15.390625,14.40625 C14.609375,14.8125 13.96875,14.921875 13.03125,14.921875 C10.078125,14.921875 8.109375,12.984375 8.109375,9.265625 C8.109375,5.59375 10.125,3.75 13.015625,3.75 C14.015625,3.75 14.8125,3.90625 15.578125,4.3125 L15.984375,6.765625 L16.9375,6.765625 L16.875,4.015625 C15.703125,3.28125 14.453125,2.921875 12.9375,2.921875 Z M12,-2.046875 C18.171875,-2.046875 23.0625,2.828125 23.0625,9.125 C23.0625,15.390625 18.171875,20.28125 12,20.28125 C5.828125,20.28125 0.9375,15.390625 0.9375,9.125 C0.9375,2.859375 5.828125,-2.046875 12,-2.046875 Z" transform="translate(0, 20.28125) scale(1, -1)"/>
</svg>