<svg height="21.609375" viewBox="0 0 24 21.609375" width="24" xmlns="http://www.w3.org/2000/svg">
<path d="M1.3125,-1.6875 L22.6875,-1.6875 L22.6875,19.921875 L1.3125,19.921875 Z M2.046875,-0.984375 L2.046875,19.21875 L21.953125,19.21875 L21.953125,-0.984375 Z M17.859375,2.953125 C18.90625,2.953125 19.703125,3.1875 20.5625,3.84375 L20.65625,6.546875 L19.875,6.546875 L19.375,3.890625 C18.9375,3.703125 18.53125,3.59375 18.046875,3.59375 C16.25,3.59375 14.953125,5.375 14.953125,9.359375 C14.953125,13.25 16.171875,15.046875 18.078125,15.046875 C18.546875,15.046875 18.90625,14.96875 19.296875,14.8125 L19.78125,12.21875 L20.546875,12.21875 L20.46875,14.875 C19.703125,15.4375 18.953125,15.703125 17.90625,15.703125 C15.3125,15.703125 13.375,13.6875 13.375,9.359375 C13.375,4.984375 15.265625,2.953125 17.859375,2.953125 Z M8.640625,14.828125 L9.8125,14.71875 L9.84375,9.9375 L5.765625,9.9375 L5.78125,14.71875 L6.953125,14.828125 L6.953125,15.4375 L3.046875,15.4375 L3.046875,14.828125 L4.21875,14.71875 L4.25,9.765625 L4.25,8.90625 L4.21875,3.9375 L3.046875,3.84375 L3.046875,3.21875 L6.953125,3.21875 L6.953125,3.84375 L5.78125,3.9375 C5.765625,5.546875 5.765625,7.25 5.765625,9.265625 L9.84375,9.265625 C9.84375,7.25 9.84375,5.546875 9.8125,3.9375 L8.640625,3.84375 L8.640625,3.21875 L12.546875,3.21875 L12.546875,3.84375 L11.375,3.9375 L11.359375,8.90625 L11.359375,9.765625 L11.375,14.71875 L12.546875,14.828125 L12.546875,15.4375 L8.640625,15.4375 Z" transform="translate(0, 19.921875) scale(1, -1)"/>
</svg>