<svg height="22.15625" viewBox="0 0 24 22.15625" width="24" xmlns="http://www.w3.org/2000/svg">
<path d="M9.1875,-0.40625 C13.21875,-0.40625 15.578125,2.015625 15.578125,5.5625 C15.578125,8.921875 13.5625,11.15625 9.84375,11.15625 C8.40625,11.15625 7.203125,10.796875 6.125,10.203125 L6.53125,16.203125 L14.953125,16.203125 L14.953125,17.953125 L5.734375,17.953125 L5.15625,9.28125 L5.65625,9.09375 C6.84375,9.84375 7.9375,10.15625 9.1875,10.15625 C11.734375,10.15625 13.421875,8.546875 13.421875,5.421875 C13.421875,2.25 11.734375,0.390625 9.03125,0.390625 C7.9375,0.390625 7.15625,0.546875 6.4375,0.890625 C5.859375,3.484375 5.46875,3.765625 4.828125,3.765625 C4.390625,3.765625 3.984375,3.53125 3.859375,3.078125 C4.296875,0.796875 6.359375,-0.40625 9.1875,-0.40625 Z M16.65625,-4.203125 C18.671875,-3.28125 20.109375,-1.890625 20.109375,0.59375 C20.109375,1.21875 20.046875,1.53125 19.875,2.015625 C19.515625,2.328125 19.15625,2.453125 18.671875,2.453125 C17.828125,2.453125 17.28125,1.828125 17.28125,1.15625 C17.28125,0.484375 17.65625,0 18.953125,-0.765625 C18.625,-2.09375 17.8125,-2.78125 16.3125,-3.53125 Z" transform="translate(0.015625, 17.953125) scale(1, -1)"/>
</svg>