<svg height="22.546875" viewBox="0 0 24 22.546875" width="24" xmlns="http://www.w3.org/2000/svg">
<path d="M9.765625,-0.40625 C12.953125,-0.40625 15.40625,1.921875 15.40625,5.515625 C15.40625,8.90625 13.515625,10.890625 10.53125,10.890625 C8.765625,10.890625 7.375,10.296875 6.21875,8.8125 C6.90625,13.203125 9.84375,16.65625 14.953125,17.6875 L14.828125,18.34375 C8.109375,17.5625 3.890625,12.390625 3.890625,6.84375 C3.890625,2.375 6.09375,-0.40625 9.765625,-0.40625 Z M6.09375,7.875 C7.265625,9.4375 8.46875,9.9375 9.84375,9.9375 C11.921875,9.9375 13.296875,8.359375 13.296875,5.328125 C13.296875,2.09375 11.6875,0.390625 9.8125,0.390625 C7.421875,0.390625 6.046875,2.875 6.046875,6.71875 Z M16.609375,-4.203125 C18.671875,-3.28125 20.09375,-1.890625 20.09375,0.59375 C20.09375,1.21875 20.015625,1.53125 19.828125,2.015625 C19.46875,2.328125 19.125,2.453125 18.640625,2.453125 C17.78125,2.453125 17.28125,1.828125 17.28125,1.15625 C17.28125,0.484375 17.65625,0 18.9375,-0.75 C18.59375,-2.09375 17.765625,-2.78125 16.296875,-3.53125 Z" transform="translate(0.0078125, 18.34375) scale(1, -1)"/>
</svg>