<svg height="21.609375" viewBox="0 0 24 21.609375" width="24" xmlns="http://www.w3.org/2000/svg">
<path d="M1.3125,-1.6875 L22.6875,-1.6875 L22.6875,19.921875 L1.3125,19.921875 Z M2.046875,-0.984375 L2.046875,19.21875 L21.953125,19.21875 L21.953125,-0.984375 Z M9.90625,3.21875 L17.453125,3.21875 L17.640625,6.671875 L16.828125,6.671875 L16.3125,3.859375 L10.75,3.859375 L10.734375,8.90625 L10.734375,9.765625 L10.75,14.6875 L12.640625,14.828125 L12.640625,15.4375 L7.265625,15.4375 L7.265625,14.828125 L9.078125,14.6875 L9.09375,9.765625 L9.09375,8.90625 L9.078125,3.953125 L7.265625,3.84375 L7.265625,3.21875 Z" transform="translate(0, 19.921875) scale(1, -1)"/>
</svg>