<svg height="21.609375" viewBox="0 0 24 21.609375" width="24" xmlns="http://www.w3.org/2000/svg">
<path d="M9.71875,2.953125 C11.0625,2.953125 11.65625,4.84375 11.65625,9.34375 C11.65625,13.796875 11.0625,15.671875 9.71875,15.671875 C8.40625,15.671875 7.78125,13.796875 7.78125,9.34375 C7.78125,4.84375 8.40625,2.953125 9.71875,2.953125 Z M9.71875,3.484375 C9.03125,3.484375 8.859375,5.296875 8.859375,9.34375 C8.859375,13.3125 9.03125,15.171875 9.71875,15.171875 C10.421875,15.171875 10.578125,13.3125 10.578125,9.34375 C10.578125,5.296875 10.421875,3.484375 9.71875,3.484375 Z M14.515625,2.953125 C15.859375,2.953125 16.46875,4.84375 16.46875,9.34375 C16.46875,13.796875 15.859375,15.671875 14.515625,15.671875 C13.203125,15.671875 12.578125,13.796875 12.578125,9.34375 C12.578125,4.84375 13.203125,2.953125 14.515625,2.953125 Z M14.515625,3.484375 C13.828125,3.484375 13.65625,5.296875 13.65625,9.34375 C13.65625,13.3125 13.828125,15.171875 14.515625,15.171875 C15.21875,15.171875 15.390625,13.3125 15.390625,9.34375 C15.390625,5.296875 15.21875,3.484375 14.515625,3.484375 Z M1.3125,-1.6875 L22.6875,-1.6875 L22.6875,19.921875 L1.3125,19.921875 Z M2.046875,-0.984375 L2.046875,19.21875 L21.953125,19.21875 L21.953125,-0.984375 Z M5.546875,2.953125 C6.078125,2.953125 6.53125,3.140625 6.9375,3.703125 L6.953125,6.40625 L6.4375,6.40625 L6.046875,3.484375 C5.921875,3.4375 5.8125,3.40625 5.65625,3.40625 C4.875,3.40625 4.34375,4.484375 4.34375,9.3125 C4.34375,14.09375 4.828125,15.234375 5.71875,15.234375 C5.828125,15.234375 5.921875,15.234375 6.046875,15.171875 L6.390625,12.3125 L6.953125,12.3125 L6.90625,14.96875 C6.546875,15.5 6.125,15.671875 5.5625,15.671875 C4.203125,15.671875 3.234375,14.09375 3.234375,9.3125 C3.234375,4.5625 4.15625,2.953125 5.546875,2.953125 Z M18.34375,3.21875 L20.859375,3.21875 L21.03125,6.8125 L20.46875,6.8125 L20.0625,3.71875 L18.859375,3.71875 L18.84375,8.859375 L18.84375,9.8125 L18.859375,14.90625 L19.484375,14.96875 L19.484375,15.4375 L17.28125,15.4375 L17.28125,14.96875 L17.765625,14.90625 L17.78125,9.8125 L17.78125,8.859375 L17.765625,3.765625 L17.28125,3.703125 L17.28125,3.21875 Z" transform="translate(0, 19.921875) scale(1, -1)"/>
</svg>