<svg height="29.538462" viewBox="0 0 832 1024" width="24" xmlns="http://www.w3.org/2000/svg">
<g transform="translate(-192, 800) scale(1, -1)">
<g>
<g>
<clipPath id="clip-0-1">
<path d="M976,796 Q984,796 990.5,790 Q997,784 997,775 L997,349 Q997,348 996,309.5 Q995,271 992,210 Q989,149 982,78 Q982,77 981,75 Q970,-7 918,-69 Q866,-131 782,-165.5 Q698,-200 592,-200 Q487,-200 403,-165.5 Q319,-131 267,-69 Q215,-7 204,75 Q204,76 203.5,76.5 Q203,77 203,77 Q201,95 218,100 L410,160 Q418,163 425.5,159 Q433,155 436,147 Q446,118 470,93 Q494,68 525,53 Q556,38 585,38 Q628,38 662,58 Q696,78 707,101 Q708,103 710,105 Q716,116 719.5,154.5 Q723,193 724,245 Q725,297 724,348 L724,775 Q724,784 730,790 Q736,796 745,796 Z" transform="matrix(1 0 0 1 0 0)"/>
</clipPath>
<g clip-path="url(#clip-0-1)">
<path d="M192,-224 L1024,-224 L1024,800 L192,800 Z" fill="rgb(64, 192, 231)" transform="matrix(1 0 0 1 0 0)"/>
</g>
</g>
</g>
</g>
</svg>