<svg height="21.609375" viewBox="0 0 24 21.609375" width="24" xmlns="http://www.w3.org/2000/svg">
<path d="M9.078125,3.21875 L9.078125,4.015625 L11.140625,4.171875 C11.15625,5.328125 11.15625,6.140625 11.15625,7.578125 L11.15625,8.0625 L7.5625,14.46875 L5.90625,14.65625 L5.90625,15.4375 L11.421875,15.4375 L11.421875,14.65625 L9.75,14.5 L12.71875,9.078125 L15.71875,14.5 L14.0625,14.65625 L14.0625,15.4375 L18.484375,15.4375 L18.484375,14.65625 L16.609375,14.5 L13.03125,8.0625 L13.03125,7.578125 C13.03125,6.140625 13.03125,5.328125 13.0625,4.171875 L15.09375,4.015625 L15.09375,3.21875 Z M6.125,-1.6875 L17.875,-1.6875 C20.90625,-1.6875 22.6875,0.09375 22.6875,3.125 L22.6875,15.125 C22.6875,18.140625 20.90625,19.921875 17.875,19.921875 L6.125,19.921875 C3.09375,19.921875 1.3125,18.140625 1.3125,15.125 L1.3125,3.125 C1.3125,0.09375 3.09375,-1.6875 6.125,-1.6875 Z" transform="translate(0, 19.921875) scale(1, -1)"/>
</svg>