<svg height="21.609375" viewBox="0 0 24 21.609375" width="24" xmlns="http://www.w3.org/2000/svg">
<path d="M1.3125,-1.6875 L22.6875,-1.6875 L22.6875,19.921875 L1.3125,19.921875 Z M2.046875,-0.984375 L2.046875,19.21875 L21.953125,19.21875 L21.953125,-0.984375 Z M14.09375,14.828125 L15.859375,14.65625 L12.640625,8.921875 L9.4375,14.6875 L11.25,14.828125 L11.25,15.4375 L5.921875,15.4375 L5.921875,14.828125 L7.5625,14.6875 L11.296875,8.015625 L11.296875,7.484375 C11.296875,5.96875 11.296875,5.203125 11.25,3.953125 L9.1875,3.84375 L9.1875,3.21875 L15,3.21875 L15,3.84375 L12.9375,3.953125 L12.90625,7.484375 L12.90625,8.140625 L16.609375,14.65625 L18.453125,14.828125 L18.453125,15.4375 L14.09375,15.4375 Z" transform="translate(0, 19.921875) scale(1, -1)"/>
</svg>