<svg height="21.609375" viewBox="0 0 24 21.609375" width="24" xmlns="http://www.w3.org/2000/svg">
<path d="M17.90625,2.953125 C15.59375,2.953125 13.875,4.96875 13.875,9.359375 C13.875,13.75 15.671875,15.703125 17.953125,15.703125 C18.859375,15.703125 19.5625,15.453125 20.234375,14.921875 L20.296875,12.21875 L19.375,12.21875 L18.953125,14.765625 C18.71875,14.875 18.453125,14.921875 18.171875,14.921875 C16.625,14.921875 15.671875,13.203125 15.671875,9.359375 C15.671875,5.421875 16.6875,3.75 18.140625,3.75 C18.453125,3.75 18.75,3.796875 19.015625,3.9375 L19.484375,6.5 L20.453125,6.5 L20.359375,3.796875 C19.53125,3.171875 18.859375,2.953125 17.90625,2.953125 Z M5.40625,3.125 L3.546875,14.71875 L2.765625,14.828125 L2.765625,15.4375 L6.21875,15.4375 L6.21875,14.828125 L5.0625,14.71875 L6.3125,5.109375 L8.0625,13.109375 L8.90625,13.109375 L10.515625,5.109375 L11.828125,14.71875 L10.5625,14.828125 L10.5625,15.4375 L13.4375,15.4375 L13.4375,14.828125 L12.5,14.71875 L10.75,3.125 L9.703125,3.125 L8.109375,10.484375 L6.453125,3.125 Z M6.125,-1.6875 L17.875,-1.6875 C20.90625,-1.6875 22.6875,0.09375 22.6875,3.125 L22.6875,15.125 C22.6875,18.140625 20.90625,19.921875 17.875,19.921875 L6.125,19.921875 C3.09375,19.921875 1.3125,18.140625 1.3125,15.125 L1.3125,3.125 C1.3125,0.09375 3.09375,-1.6875 6.125,-1.6875 Z" transform="translate(0, 19.921875) scale(1, -1)"/>
</svg>