<svg height="21.609375" viewBox="0 0 24 21.609375" width="24" xmlns="http://www.w3.org/2000/svg">
<path d="M1.3125,-1.6875 L22.6875,-1.6875 L22.6875,19.921875 L1.3125,19.921875 Z M2.046875,-0.984375 L2.046875,19.21875 L21.953125,19.21875 L21.953125,-0.984375 Z M7.390625,14.828125 L9.046875,14.6875 L9.078125,9.765625 L9.078125,8.90625 L9.046875,3.953125 L7.390625,3.84375 L7.390625,3.21875 L12.5,3.21875 L12.5,3.84375 L10.703125,3.984375 C10.65625,5.546875 10.65625,7.15625 10.65625,8.953125 L14.59375,8.953125 L14.828125,7.25 L15.453125,7.25 L15.453125,11.203125 L14.828125,11.203125 L14.59375,9.59375 L10.65625,9.59375 C10.65625,11.453125 10.65625,13.125 10.703125,14.78125 L15.953125,14.78125 L16.34375,12.453125 L17.234375,12.453125 L17.0625,15.4375 L7.390625,15.4375 Z" transform="translate(0, 19.921875) scale(1, -1)"/>
</svg>