<svg height="21.609375" viewBox="0 0 24 21.609375" width="24" xmlns="http://www.w3.org/2000/svg">
<path d="M3.140625,3.21875 L3.140625,4.015625 L4.0625,4.078125 L6.84375,15.4375 L7.96875,15.4375 L10.875,4.109375 L11.8125,4.015625 L11.8125,3.21875 L7.796875,3.21875 L7.796875,4.015625 L9.046875,4.078125 L8.359375,7.109375 L5.546875,7.109375 L4.84375,4.109375 L5.96875,4.015625 L5.96875,3.21875 Z M12.9375,3.21875 L12.9375,4.015625 L13.9375,4.109375 C13.96875,5.65625 13.96875,7.3125 13.96875,8.953125 L13.96875,9.703125 C13.96875,11.328125 13.96875,12.9375 13.9375,14.5625 L12.9375,14.65625 L12.9375,15.4375 L16.828125,15.4375 C19.015625,15.4375 19.890625,14.359375 19.890625,12.59375 C19.890625,11.203125 19.3125,10.125 17.71875,9.75 C19.65625,9.453125 20.421875,8.328125 20.421875,6.5 C20.421875,4.75 19.515625,3.21875 16.65625,3.21875 Z M16.421875,14.640625 L15.71875,14.640625 C15.703125,13.0625 15.703125,11.40625 15.703125,9.984375 L16.25,9.984375 C17.546875,9.984375 18.1875,10.84375 18.1875,12.484375 C18.1875,13.875 17.765625,14.640625 16.421875,14.640625 Z M5.71875,7.890625 L8.140625,7.890625 L6.90625,13.109375 Z M16.421875,9.234375 L15.703125,9.234375 C15.703125,7.21875 15.703125,5.59375 15.71875,4.03125 L16.6875,4.03125 C17.921875,4.03125 18.671875,4.78125 18.671875,6.546875 C18.671875,8.359375 17.96875,9.234375 16.421875,9.234375 Z M6.125,-1.6875 L17.875,-1.6875 C20.90625,-1.6875 22.6875,0.09375 22.6875,3.125 L22.6875,15.125 C22.6875,18.140625 20.90625,19.921875 17.875,19.921875 L6.125,19.921875 C3.09375,19.921875 1.3125,18.140625 1.3125,15.125 L1.3125,3.125 C1.3125,0.09375 3.09375,-1.6875 6.125,-1.6875 Z" transform="translate(0, 19.921875) scale(1, -1)"/>
</svg>