<svg height="21.609375" viewBox="0 0 24 21.609375" width="24" xmlns="http://www.w3.org/2000/svg">
<path d="M1.3125,-1.6875 L22.6875,-1.6875 L22.6875,19.921875 L1.3125,19.921875 Z M2.046875,-0.984375 L2.046875,19.21875 L21.953125,19.21875 L21.953125,-0.984375 Z M6.9375,2.953125 C9.21875,2.953125 10.5625,4.171875 10.5625,6.03125 C10.5625,7.65625 9.796875,8.734375 7.796875,9.8125 C9.53125,10.6875 10.15625,11.6875 10.15625,12.890625 C10.15625,14.46875 9.125,15.671875 7.125,15.671875 C5.296875,15.671875 3.953125,14.40625 3.953125,12.59375 C3.953125,11.046875 4.6875,9.953125 6.1875,9.125 C4.46875,8.25 3.59375,7.25 3.59375,5.828125 C3.59375,4.109375 4.78125,2.953125 6.9375,2.953125 Z M7.390625,10.03125 C5.65625,10.96875 5.234375,11.921875 5.234375,12.953125 C5.234375,14.25 6.09375,15.078125 7.109375,15.078125 C8.28125,15.078125 8.96875,14.140625 8.96875,12.984375 C8.96875,11.78125 8.515625,11.0625 7.390625,10.03125 Z M6.625,8.875 C8.734375,7.78125 9.234375,6.890625 9.234375,5.6875 C9.234375,4.375 8.453125,3.546875 7.0625,3.546875 C5.71875,3.546875 4.875,4.515625 4.875,5.953125 C4.875,7.109375 5.328125,7.875 6.625,8.875 Z M17.046875,14.828125 L18.390625,14.6875 L14.609375,8.5625 L14.609375,9.765625 L14.640625,14.71875 L15.84375,14.828125 L15.84375,15.4375 L11.953125,15.4375 L11.953125,14.828125 L13.078125,14.71875 L13.109375,9.765625 L13.109375,8.90625 L13.078125,3.9375 L11.953125,3.84375 L11.953125,3.21875 L15.796875,3.21875 L15.796875,3.84375 L14.640625,3.9375 L14.609375,7.734375 L15.84375,9.59375 L18.09375,3.9375 L16.984375,3.84375 L16.984375,3.21875 L20.71875,3.21875 L20.71875,3.84375 L19.75,3.9375 L16.796875,11.09375 L19.15625,14.6875 L20.359375,14.828125 L20.359375,15.4375 L17.046875,15.4375 Z" transform="translate(0, 19.921875) scale(1, -1)"/>
</svg>