<svg height="22.328125" viewBox="0 0 24 22.328125" width="24" xmlns="http://www.w3.org/2000/svg">
<path d="M12.03125,2.875 C9.484375,2.875 7.0625,4.75 7.0625,9.34375 C7.0625,13.9375 9.484375,15.8125 12.03125,15.8125 C14.546875,15.8125 16.96875,13.9375 16.96875,9.34375 C16.96875,4.75 14.546875,2.875 12.03125,2.875 Z M12.03125,3.640625 C13.484375,3.640625 14.859375,5.046875 14.859375,9.34375 C14.859375,13.65625 13.484375,15.03125 12.03125,15.03125 C10.53125,15.03125 9.171875,13.625 9.171875,9.34375 C9.171875,5.046875 10.53125,3.640625 12.03125,3.640625 Z M12,-2.046875 C18.171875,-2.046875 23.0625,2.828125 23.0625,9.125 C23.0625,15.390625 18.171875,20.28125 12,20.28125 C5.828125,20.28125 0.9375,15.390625 0.9375,9.125 C0.9375,2.859375 5.828125,-2.046875 12,-2.046875 Z" transform="translate(0, 20.28125) scale(1, -1)"/>
</svg>