<svg height="21.609375" viewBox="0 0 24 21.609375" width="24" xmlns="http://www.w3.org/2000/svg">
<path d="M6.953125,3.21875 L6.953125,3.8125 L14.78125,14.609375 L8.515625,14.609375 L8.140625,12.21875 L7.15625,12.21875 L7.3125,15.4375 L16.984375,15.4375 L16.984375,14.859375 L9.1875,4.0625 L15.8125,4.0625 L16.203125,6.4375 L17.203125,6.4375 L17.046875,3.21875 Z M6.125,-1.6875 L17.875,-1.6875 C20.90625,-1.6875 22.6875,0.09375 22.6875,3.125 L22.6875,15.125 C22.6875,18.140625 20.90625,19.921875 17.875,19.921875 L6.125,19.921875 C3.09375,19.921875 1.3125,18.140625 1.3125,15.125 L1.3125,3.125 C1.3125,0.09375 3.09375,-1.6875 6.125,-1.6875 Z" transform="translate(0, 19.921875) scale(1, -1)"/>
</svg>