<svg height="22.34375" viewBox="0 0 24 22.34375" width="24" xmlns="http://www.w3.org/2000/svg">
<path d="M11.5,0 L13.34375,0 L13.34375,5.203125 L16.5625,5.203125 L16.5625,6.703125 L13.34375,6.703125 L13.34375,18.140625 L11.953125,18.140625 L3.53125,6.5 L3.53125,5.203125 L11.5,5.203125 Z M4.609375,6.703125 L11.5,16.203125 L11.5,6.703125 Z M16.96875,-4.203125 C19.015625,-3.28125 20.453125,-1.890625 20.453125,0.59375 C20.453125,1.21875 20.375,1.53125 20.1875,2.015625 C19.828125,2.328125 19.46875,2.453125 18.984375,2.453125 C18.140625,2.453125 17.609375,1.828125 17.609375,1.15625 C17.609375,0.484375 18,0 19.296875,-0.75 C18.953125,-2.09375 18.140625,-2.78125 16.65625,-3.53125 Z" transform="translate(0.0078125, 18.140625) scale(1, -1)"/>
</svg>