<svg height="21.609375" viewBox="0 0 24 21.609375" width="24" xmlns="http://www.w3.org/2000/svg">
<path d="M1.3125,-1.6875 L22.6875,-1.6875 L22.6875,19.921875 L1.3125,19.921875 Z M2.046875,-0.984375 L2.046875,19.21875 L21.953125,19.21875 L21.953125,-0.984375 Z M4.109375,10.078125 L8.203125,10.078125 L8.203125,10.921875 L4.75,10.921875 L6.171875,12.484375 C7.421875,13.625 8.015625,14.375 8.015625,15.3125 C8.015625,16.421875 7.390625,17.1875 6.125,17.1875 C5.09375,17.1875 4.203125,16.609375 4.078125,15.59375 C4.171875,15.40625 4.34375,15.28125 4.53125,15.28125 C4.78125,15.28125 4.984375,15.4375 5.09375,15.890625 L5.296875,16.703125 C5.46875,16.78125 5.609375,16.796875 5.78125,16.796875 C6.53125,16.796875 6.9375,16.171875 6.9375,15.28125 C6.9375,14.421875 6.546875,13.703125 5.71875,12.703125 L4.109375,10.703125 Z M19.25,10.515625 L19.25,16.4375 L19.265625,17.953125 L19.125,18.03125 L17.46875,17.6875 L17.46875,17.359375 L18.234375,17.28125 L18.234375,14.6875 C17.875,15.140625 17.46875,15.359375 16.984375,15.359375 C15.8125,15.359375 14.90625,14.328125 14.90625,12.578125 C14.90625,10.984375 15.71875,9.9375 16.84375,9.9375 C17.40625,9.9375 17.875,10.171875 18.234375,10.6875 L18.3125,9.984375 L19.9375,10.078125 L19.9375,10.421875 Z M6.890625,1.703125 C6.484375,1.703125 6.171875,1.78125 5.828125,1.96875 L5.5625,3.359375 L5.046875,3.359375 L4.984375,1.84375 C5.453125,1.515625 6.21875,1.265625 6.9375,1.265625 C8.40625,1.265625 9.28125,2.0625 9.28125,3.3125 C9.28125,4.34375 8.828125,4.921875 7.578125,5.515625 L7.15625,5.734375 C6.484375,6.078125 6.09375,6.4375 6.09375,7.125 C6.09375,7.9375 6.625,8.375 7.34375,8.375 C7.65625,8.375 7.890625,8.296875 8.15625,8.15625 L8.40625,6.84375 L8.921875,6.84375 L9,8.25 C8.515625,8.609375 7.984375,8.8125 7.3125,8.8125 C6.046875,8.8125 5.109375,8.140625 5.109375,6.859375 C5.109375,5.828125 5.71875,5.203125 6.765625,4.703125 L7.125,4.484375 C7.984375,4.109375 8.296875,3.75 8.296875,3.046875 C8.296875,2.1875 7.75,1.703125 6.890625,1.703125 Z M12.546875,6.34375 C12.703125,6.34375 12.84375,6.3125 12.984375,6.265625 L13.125,5.5625 C13.171875,5.140625 13.390625,4.96875 13.703125,4.96875 C13.9375,4.96875 14.109375,5.109375 14.15625,5.359375 C14.015625,6.171875 13.34375,6.71875 12.484375,6.71875 C11.15625,6.71875 10.03125,5.71875 10.03125,4.015625 C10.03125,2.328125 11.015625,1.296875 12.3125,1.296875 C13.171875,1.296875 13.796875,1.703125 14.15625,2.453125 L13.9375,2.609375 C13.625,2.15625 13.203125,1.921875 12.671875,1.921875 C11.765625,1.921875 11.109375,2.765625 11.109375,4.109375 C11.109375,5.546875 11.765625,6.34375 12.546875,6.34375 Z M14.828125,1.4375 L17.375,1.4375 L17.375,1.78125 L16.5625,1.890625 L16.53125,3.703125 L16.53125,4.53125 C16.734375,5.28125 17.046875,5.765625 17.453125,6.046875 L17.515625,5.96875 C17.734375,5.765625 17.921875,5.640625 18.1875,5.640625 C18.484375,5.640625 18.703125,5.859375 18.71875,6.1875 C18.640625,6.546875 18.359375,6.71875 18.03125,6.71875 C17.421875,6.71875 16.828125,6.21875 16.53125,5.296875 L16.484375,6.625 L16.375,6.71875 L14.765625,6.21875 L14.765625,5.921875 L15.484375,5.859375 C15.5,5.375 15.5,4.96875 15.5,4.296875 L15.5,3.703125 L15.5,1.875 L14.828125,1.78125 Z M12.34375,15.359375 C11.765625,15.359375 11.203125,15.078125 10.625,14.375 L10.578125,15.265625 L10.46875,15.359375 L8.875,14.859375 L8.875,14.5625 L9.59375,14.5 C9.59375,14.015625 9.625,13.578125 9.625,12.9375 L9.625,12.34375 L9.59375,10.515625 L8.953125,10.421875 L8.953125,10.078125 L11.28125,10.078125 L11.28125,10.421875 L10.65625,10.515625 L10.625,12.34375 L10.625,13.984375 C11.109375,14.515625 11.546875,14.71875 11.90625,14.71875 C12.359375,14.71875 12.625,14.40625 12.625,13.46875 L12.625,12.34375 L12.625,10.515625 L11.953125,10.421875 L11.953125,10.078125 L14.25,10.078125 L14.25,10.421875 L13.625,10.515625 L13.625,12.34375 L13.625,13.46875 C13.625,14.8125 13.125,15.359375 12.34375,15.359375 Z M15.984375,12.59375 C15.984375,14.109375 16.578125,14.8125 17.296875,14.8125 C17.640625,14.8125 17.921875,14.640625 18.21875,14.296875 L18.21875,11.046875 C17.921875,10.6875 17.609375,10.484375 17.25,10.484375 C16.53125,10.484375 15.984375,11.203125 15.984375,12.59375 Z" transform="translate(0, 19.921875) scale(1, -1)"/>
</svg>