<svg height="20.210526" viewBox="0 0 1216 1024" width="24" xmlns="http://www.w3.org/2000/svg">
<g transform="translate(-32, 832) scale(1, -1)">
<g>
<g>
<clipPath id="clip-0-1">
<path d="M1231,796 Q1237,788 1235,777 L1003,-165 Q1003,-165 1002,-166 Q1002,-168 1000,-171 Q1000,-171 999,-172 Q999,-172 999,-173 Q997,-175 995,-177 Q995,-177 994.5,-177 Q994,-177 994,-177 Q992,-179 989,-180 Q989,-180 987,-181 Q984,-182 981,-182 L795,-182 Q792,-182 787,-180 Q787,-180 785,-179 Q782,-177 780,-175 Q779,-174 779,-174 Q779,-174 778,-174 Q779,-174 778,-173 Q775,-169 774,-165 L638,366 L501,-165 Q500,-169 497,-173 Q497,-173 497,-173 Q497,-173 497,-174 Q497,-174 496.5,-174 Q496,-174 495,-175 Q494,-177 490,-179 Q490,-179 489.5,-179 Q489,-179 488,-180 Q484,-182 480,-182 L294,-182 Q291,-182 288,-181 Q286,-180 286,-180 Q283,-179 281,-177 Q280,-177 280,-177 Q278,-175 276,-173 Q276,-173 276,-172 Q276,-172 275,-171 Q274,-169 273,-166 Q273,-166 272,-165 L40,777 Q37,788 44,796 Q51,805 62,805 L294,805 Q312,805 316,787 L406,330 L532,788 Q533,792 536,795 Q536,795 536,796 Q535,795 537,797 Q539,799 543,801 Q543,802 543.5,802 Q544,802 545,802 Q549,805 554,805 L721,805 Q726,805 730,802 Q730,803 732,801 Q736,799 738,797 Q738,796 738.5,796 Q739,796 739,796 Q739,796 739,795 Q742,792 743,788 L869,330 L959,787 Q962,805 981,805 L1213,805 Q1224,805 1231,796 Z" transform="matrix(1 0 0 1 0 0)"/>
</clipPath>
<g clip-path="url(#clip-0-1)">
<path d="M32,-192 L1248,-192 L1248,832 L32,832 Z" fill="rgb(64, 192, 231)" transform="matrix(1 0 0 1 0 0)"/>
</g>
</g>
</g>
</g>
</svg>