<svg height="21.609375" viewBox="0 0 24 21.609375" width="24" xmlns="http://www.w3.org/2000/svg">
<path d="M10.109375,2.921875 C8.046875,2.921875 6.75,3.890625 6.578125,5.421875 C6.703125,5.953125 7.015625,6.21875 7.4375,6.21875 C7.84375,6.21875 8.109375,6.03125 8.375,5.25 L8.828125,3.90625 C9.171875,3.8125 9.546875,3.765625 10.015625,3.765625 C11.734375,3.765625 12.796875,4.75 12.796875,6.90625 C12.796875,8.640625 12.796875,11.015625 12.765625,14.46875 L10.390625,14.65625 L10.390625,15.4375 L16.609375,15.4375 L16.609375,14.65625 L14.71875,14.5 C14.6875,12.953125 14.6875,11.375 14.6875,9.8125 L14.6875,8.25 C14.6875,6.078125 14.359375,4.921875 13.5625,4.109375 C12.796875,3.3125 11.78125,2.921875 10.109375,2.921875 Z M6.125,-1.6875 L17.875,-1.6875 C20.90625,-1.6875 22.6875,0.09375 22.6875,3.125 L22.6875,15.125 C22.6875,18.140625 20.90625,19.921875 17.875,19.921875 L6.125,19.921875 C3.09375,19.921875 1.3125,18.140625 1.3125,15.125 L1.3125,3.125 C1.3125,0.09375 3.09375,-1.6875 6.125,-1.6875 Z" transform="translate(0, 19.921875) scale(1, -1)"/>
</svg>