<svg height="27.428572" viewBox="0 0 896 1024" width="24" xmlns="http://www.w3.org/2000/svg">
<g transform="translate(-192, 832) scale(1, -1)">
<g>
<g>
<clipPath id="clip-0-1">
<path d="M1055,808 Q1064,808 1070.5,801.5 Q1077,795 1077,785 L1077,-161 Q1077,-170 1070.5,-176.5 Q1064,-183 1055,-183 L850,-183 Q838,-183 831,-173 L447,429 L447,-161 Q447,-170 440.5,-176.5 Q434,-183 425,-183 L220,-183 Q211,-183 204.5,-176.5 Q198,-170 198,-161 L198,785 Q198,795 204.5,801.5 Q211,808 220,808 L425,808 Q437,808 444,797 L828,196 L828,785 Q828,795 834.5,801.5 Q841,808 850,808 Z" transform="matrix(1 0 0 1 0 0)"/>
</clipPath>
<g clip-path="url(#clip-0-1)">
<path d="M192,-192 L1088,-192 L1088,832 L192,832 Z" fill="rgb(64, 192, 231)" transform="matrix(1 0 0 1 0 0)"/>
</g>
</g>
</g>
</g>
</svg>