<svg height="21.609375" viewBox="0 0 24 21.609375" width="24" xmlns="http://www.w3.org/2000/svg">
<path d="M1.3125,-1.6875 L22.6875,-1.6875 L22.6875,19.921875 L1.3125,19.921875 Z M2.046875,-0.984375 L2.046875,19.21875 L21.953125,19.21875 L21.953125,-0.984375 Z M2.953125,14.96875 L3.40625,14.90625 C3.453125,13.203125 3.453125,11.5 3.453125,9.796875 L3.453125,8.859375 C3.453125,7.15625 3.453125,5.421875 3.4375,3.75 L2.953125,3.703125 L2.953125,3.21875 L5.109375,3.21875 L5.109375,3.703125 L4.46875,3.765625 L4.4375,9.125 L5.25,9.125 L5.453125,7.390625 L5.90625,7.390625 L5.90625,11.328125 L5.453125,11.328125 L5.25,9.640625 L4.4375,9.640625 L4.46875,14.921875 L5.65625,14.921875 L5.96875,12.3125 L6.53125,12.3125 L6.40625,15.4375 L2.953125,15.4375 Z M7.171875,14.953125 L7.6875,14.875 L7.703125,9.75 L7.703125,8.859375 L7.6875,3.765625 L7.171875,3.71875 L7.171875,3.21875 L9.34375,3.21875 L9.34375,3.71875 L8.734375,3.796875 L8.71875,8.90625 L8.71875,9.21875 C9.5,9.21875 9.84375,8.65625 9.90625,7.25 L10.078125,4.125 C10.109375,3.390625 10.4375,3.140625 11.09375,3.140625 C11.359375,3.140625 11.609375,3.1875 11.765625,3.21875 L11.765625,3.71875 L11.140625,3.796875 L10.875,7.203125 C10.828125,8.515625 10.46875,9.171875 9.4375,9.40625 C10.65625,9.75 11.296875,10.828125 11.296875,12.390625 C11.296875,14.359375 10.46875,15.4375 8.859375,15.4375 L7.171875,15.4375 Z M12.125,14.953125 L12.671875,14.875 L12.703125,9.796875 L12.703125,8.859375 L12.671875,3.765625 L12.125,3.71875 L12.125,3.21875 L16.078125,3.21875 L16.203125,6.3125 L15.59375,6.3125 L15.28125,3.75 L13.796875,3.75 C13.78125,5.40625 13.78125,7.15625 13.78125,9.171875 L14.71875,9.171875 L14.875,7.421875 L15.359375,7.421875 L15.359375,11.359375 L14.875,11.359375 L14.71875,9.671875 L13.78125,9.671875 C13.78125,11.515625 13.78125,13.25 13.796875,14.90625 L15.140625,14.90625 L15.484375,12.34375 L16.0625,12.34375 L15.953125,15.4375 L12.125,15.4375 Z M16.921875,14.953125 L17.46875,14.875 L17.5,9.796875 L17.5,8.859375 L17.46875,3.765625 L16.921875,3.71875 L16.921875,3.21875 L20.875,3.21875 L21,6.3125 L20.40625,6.3125 L20.09375,3.75 L18.59375,3.75 C18.578125,5.40625 18.578125,7.15625 18.578125,9.171875 L19.515625,9.171875 L19.6875,7.421875 L20.15625,7.421875 L20.15625,11.359375 L19.6875,11.359375 L19.515625,9.671875 L18.578125,9.671875 C18.578125,11.515625 18.578125,13.25 18.59375,14.90625 L19.9375,14.90625 L20.28125,12.34375 L20.859375,12.34375 L20.765625,15.4375 L16.921875,15.4375 Z M8.71875,9.640625 L8.71875,9.71875 L8.734375,14.921875 L8.859375,14.921875 C9.84375,14.921875 10.265625,14.1875 10.265625,12.359375 C10.265625,10.53125 9.71875,9.640625 8.875,9.640625 Z" transform="translate(0, 19.921875) scale(1, -1)"/>
</svg>