<svg height="21.59375" viewBox="0 0 24 21.59375" width="24" xmlns="http://www.w3.org/2000/svg">
<path d="M3.953125,13.171875 L3.71875,12.953125 C4.421875,12.53125 5.1875,11.6875 5.453125,11.015625 C6.796875,10.21875 7.734375,12.796875 3.953125,13.171875 Z M5.1875,17.0625 L4.96875,16.84375 C5.71875,16.375 6.59375,15.453125 6.890625,14.6875 C8.28125,13.921875 9.140625,16.625 5.1875,17.0625 Z M4.875,6.3125 C4.609375,6.3125 3.859375,6.3125 3.859375,6.3125 L3.859375,5.765625 C4.296875,5.71875 4.578125,5.65625 4.875,5.5 C5.296875,5.234375 5.421875,4.109375 5.203125,2.203125 C5.234375,1.65625 5.453125,1.34375 5.78125,1.34375 C6.4375,1.34375 6.796875,1.828125 6.8125,2.5625 C6.890625,3.859375 6.390625,4.703125 6.390625,5.46875 C6.390625,5.953125 6.5,6.53125 6.671875,7.0625 C6.859375,7.734375 7.9375,10.796875 8.40625,12.265625 L7.9375,12.390625 C5.6875,7.3125 5.6875,7.3125 5.375,6.71875 C5.15625,6.3125 5.09375,6.3125 4.875,6.3125 Z M15.125,4.421875 L14.953125,4.03125 C16.53125,3.359375 17.65625,2.5 18.234375,1.78125 C19.515625,0.59375 21.90625,3.390625 15.125,4.421875 Z M13.9375,3.53125 L12,4.703125 C11.140625,3.71875 9.265625,2.453125 7.46875,1.78125 L7.625,1.421875 C9.640625,1.78125 11.734375,2.59375 12.890625,3.390625 C13.421875,3.265625 13.796875,3.3125 13.9375,3.53125 Z M22.828125,19.890625 L1.21875,19.890625 L1.21875,-1.703125 L22.828125,-1.703125 Z M22.109375,19.171875 L22.109375,-0.984375 L1.9375,-0.984375 L1.9375,19.171875 Z M15.484375,16.984375 L13.21875,17.25 L13.21875,15.34375 L10.21875,15.34375 C10.203125,15.640625 10.15625,15.984375 10.0625,16.34375 L9.671875,16.375 C9.578125,15.28125 9.171875,14.453125 8.5625,14.09375 C7.53125,12.671875 10.125,11.90625 10.25,14.609375 L18,14.609375 L17.65625,13.46875 L18.046875,13.3125 C18.40625,13.5625 19.03125,14.09375 19.375,14.453125 C19.796875,14.46875 20.09375,14.5 20.28125,14.65625 L18.75,16.171875 L17.921875,15.34375 L14.59375,15.34375 L14.59375,16.375 C15.171875,16.4375 15.4375,16.6875 15.484375,16.984375 Z M13.296875,10.171875 L13.296875,8.546875 L10.796875,8.546875 L10.796875,10.171875 Z M16.84375,14.0625 L15.984375,13.078125 L9.890625,13.078125 L10.078125,12.359375 L13.296875,12.359375 L13.296875,10.890625 L11.09375,10.890625 L9.5,11.59375 L9.5,4.265625 L9.703125,4.265625 C10.375,4.265625 10.796875,4.609375 10.796875,4.703125 L10.796875,5.296875 L17.1875,5.296875 L17.1875,4.515625 L17.375,4.515625 C18,4.515625 18.53125,4.84375 18.53125,4.9375 L18.53125,10.109375 C18.984375,10.171875 19.21875,10.296875 19.390625,10.484375 L17.8125,11.71875 L17.109375,10.890625 L14.640625,10.890625 L14.640625,12.359375 L17.859375,12.359375 C18.171875,12.359375 18.390625,12.484375 18.453125,12.75 C17.828125,13.34375 16.84375,14.0625 16.84375,14.0625 Z M14.640625,10.171875 L17.1875,10.171875 L17.1875,8.546875 L14.640625,8.546875 Z M13.296875,7.828125 L13.296875,6.03125 L10.796875,6.03125 L10.796875,7.828125 Z M14.640625,7.828125 L17.1875,7.828125 L17.1875,6.03125 L14.640625,6.03125 Z" transform="translate(-0.0234375, 19.890625) scale(1, -1)"/>
</svg>