<svg height="21.609375" viewBox="0 0 24 21.609375" width="24" xmlns="http://www.w3.org/2000/svg">
<path d="M1.203125,19.921875 L1.203125,-1.6875 L22.796875,-1.6875 L22.796875,19.921875 Z M22.078125,-0.953125 L1.921875,-0.953125 L1.921875,19.203125 L22.078125,19.203125 Z M3.5,5.453125 L3.046875,5.28125 C3.046875,4.96875 3.03125,4.3125 3.140625,3.953125 C3.390625,3.34375 4.21875,2.375 4.65625,2.375 C4.984375,2.375 5.140625,2.609375 5.71875,2.765625 C6.625,2.953125 7.0625,3 8.1875,3.046875 C9.078125,3.078125 9.640625,3 10.0625,3 C10.53125,3 10.75,3.140625 10.75,3.53125 C10.75,3.953125 10.375,4.296875 9.9375,4.421875 C10.203125,7.078125 10.53125,11.328125 10.796875,12.890625 C10.875,13.375 11.40625,13.46875 11.40625,13.875 C11.40625,14.296875 10.0625,15.484375 9.59375,15.484375 C9.34375,15.484375 9,14.921875 8.71875,14.875 C7.796875,14.71875 6.359375,14.546875 5.09375,14.515625 C4.625,14.5 4.15625,15.28125 3.859375,15.84375 L3.4375,15.71875 C3.390625,15.359375 3.390625,14.6875 3.453125,14.40625 C3.640625,13.84375 4.390625,12.890625 4.890625,12.890625 C5.1875,12.890625 5.46875,13.15625 5.828125,13.25 C7.171875,13.515625 8.515625,13.625 8.96875,13.65625 C9.09375,13.65625 9.1875,13.5625 9.1875,13.390625 C9.1875,11.96875 8.828125,7.125 8.546875,4.375 L7.890625,4.296875 C6.3125,4.15625 5.453125,4.0625 4.78125,4.03125 C4.3125,4.015625 3.859375,4.734375 3.5,5.453125 Z M12.890625,5.453125 L12.4375,5.28125 C12.4375,4.96875 12.390625,4.3125 12.53125,3.953125 C12.765625,3.34375 13.578125,2.375 14.046875,2.375 C14.375,2.375 14.515625,2.609375 15.078125,2.765625 C15.984375,2.953125 16.4375,3 17.546875,3.046875 C18.453125,3.078125 19.03125,3 19.4375,3 C19.921875,3 20.140625,3.140625 20.140625,3.53125 C20.140625,3.953125 19.75,4.296875 19.3125,4.421875 C19.578125,7.078125 19.921875,11.328125 20.1875,12.890625 C20.25,13.375 20.78125,13.46875 20.78125,13.875 C20.78125,14.296875 19.4375,15.484375 18.984375,15.484375 C18.71875,15.484375 18.4375,14.921875 18.09375,14.859375 C17.1875,14.71875 15.71875,14.546875 14.46875,14.515625 C13.984375,14.5 13.53125,15.28125 13.25,15.84375 L12.796875,15.71875 C12.765625,15.359375 12.75,14.6875 12.84375,14.40625 C13.015625,13.84375 13.78125,12.890625 14.28125,12.890625 C14.5625,12.890625 14.859375,13.15625 15.21875,13.25 C16.578125,13.515625 17.90625,13.625 18.359375,13.65625 C18.484375,13.65625 18.578125,13.5625 18.578125,13.390625 C18.578125,11.96875 18.1875,7.125 17.90625,4.375 L17.28125,4.296875 C15.703125,4.15625 14.828125,4.0625 14.15625,4.03125 C13.703125,4.015625 13.25,4.734375 12.890625,5.453125 Z" transform="translate(0, 19.921875) scale(1, -1)"/>
</svg>