<svg height="21.59375" viewBox="0 0 24 21.59375" width="24" xmlns="http://www.w3.org/2000/svg">
<path d="M8.015625,5.375 L7.734375,5.203125 C8.1875,4.625 8.6875,3.671875 8.765625,2.90625 C9.890625,1.984375 11.140625,4.15625 8.015625,5.375 Z M22.828125,19.890625 L1.21875,19.890625 L1.21875,-1.703125 L22.828125,-1.703125 Z M22.109375,19.171875 L22.109375,-0.984375 L1.9375,-0.984375 L1.9375,19.171875 Z M6.28125,6.90625 L6.28125,9.28125 L8.546875,9.28125 L8.546875,6.90625 Z M7.984375,4.53125 L6.234375,5.328125 L6.28125,5.40625 L6.28125,6.1875 L8.546875,6.1875 L8.546875,5.28125 L8.765625,5.28125 C9.34375,5.28125 9.859375,5.609375 9.859375,5.734375 L9.859375,15.234375 C10.375,15.3125 10.625,15.453125 10.796875,15.640625 L9.140625,16.921875 L8.46875,16.078125 L6.546875,16.078125 L4.984375,16.78125 L4.984375,4.9375 L5.1875,4.9375 C5.5,4.9375 5.765625,5.015625 5.953125,5.109375 C5.59375,4.015625 4.890625,2.5625 4.03125,1.625 L4.296875,1.296875 C5.546875,2.0625 6.546875,3.28125 7.125,4.25 C7.65625,4.171875 7.84375,4.296875 7.984375,4.53125 Z M6.28125,10.015625 L6.28125,12.3125 L8.546875,12.3125 L8.546875,10.015625 Z M6.28125,13.03125 L6.28125,15.359375 L8.546875,15.359375 L8.546875,13.03125 Z M18.125,16.9375 L17.1875,15.796875 L13.078125,15.796875 L11.5,16.5625 L11.5,10.875 C11.5,7.625 11.328125,4.265625 9.390625,1.5625 L9.71875,1.265625 C12.625,3.9375 12.8125,7.828125 12.8125,10.875 L12.8125,11.15625 L13.296875,11.15625 C13.609375,8.78125 14.140625,6.8125 15,5.203125 C14.0625,3.8125 12.8125,2.609375 11.140625,1.65625 L11.359375,1.265625 C13.125,2.09375 14.5,3.09375 15.546875,4.296875 C16.375,3.125 17.421875,2.140625 18.796875,1.375 C19.015625,1.9375 19.4375,2.296875 19.984375,2.359375 L20.046875,2.59375 C18.5,3.234375 17.28125,4.109375 16.3125,5.25 C17.515625,6.9375 18.21875,8.90625 18.671875,11.015625 C19.171875,11.046875 19.421875,11.109375 19.578125,11.328125 L18,12.75 L17.140625,11.875 L12.8125,11.875 L12.8125,15.078125 L19.21875,15.078125 C19.5625,15.078125 19.78125,15.1875 19.84375,15.453125 C19.171875,16.109375 18.125,16.9375 18.125,16.9375 Z M15.59375,6.1875 C14.71875,7.5625 14.140625,9.21875 13.796875,11.15625 L17.234375,11.15625 C16.921875,9.390625 16.421875,7.703125 15.59375,6.1875 Z" transform="translate(-0.0234375, 19.890625) scale(1, -1)"/>
</svg>