<svg height="21.59375" viewBox="0 0 24 21.59375" width="24" xmlns="http://www.w3.org/2000/svg">
<path d="M22.828125,19.890625 L1.21875,19.890625 L1.21875,-1.703125 L22.828125,-1.703125 Z M22.109375,19.171875 L22.109375,-0.984375 L1.9375,-0.984375 L1.9375,19.171875 Z M15.578125,10.34375 C16.25,10.3125 16.5625,10.4375 16.65625,10.6875 L14.375,11.296875 C12.8125,9.4375 9.625,7.15625 6.265625,5.828125 L6.5,5.46875 C7.96875,5.875 9.359375,6.453125 10.625,7.078125 C11.5625,6.578125 12.578125,5.734375 12.953125,5.015625 C14.328125,4.421875 14.875,6.859375 11.359375,7.46875 C11.921875,7.78125 12.5,8.109375 13.03125,8.453125 L17.5625,8.453125 C15.03125,4.65625 11.203125,3 5.515625,1.828125 L5.71875,1.34375 C12.40625,2.328125 16.375,4.15625 19.21875,8.25 C19.796875,8.28125 20.109375,8.359375 20.296875,8.546875 L18.703125,9.984375 L17.828125,9.140625 L14.0625,9.140625 C14.609375,9.546875 15.125,9.953125 15.578125,10.34375 Z M12.5,16.078125 C13.125,16.0625 13.4375,16.203125 13.53125,16.421875 L11.328125,17.109375 C10.15625,15.484375 7.65625,13.46875 5.046875,12.28125 L5.28125,11.921875 C6.40625,12.28125 7.515625,12.75 8.5,13.265625 C9.3125,12.859375 10.296875,12.171875 10.734375,11.609375 C12.046875,11.109375 12.578125,13.390625 9.125,13.609375 C9.59375,13.875 10.03125,14.15625 10.46875,14.453125 L14.875,14.453125 C12.59375,11.59375 9.34375,9.84375 4.875,8.5625 L5.109375,8.15625 C10.5625,9.3125 14.09375,11.203125 16.625,14.28125 C17.1875,14.296875 17.515625,14.40625 17.71875,14.5625 L16.0625,15.953125 L15.234375,15.171875 L11.421875,15.171875 C11.828125,15.484375 12.1875,15.796875 12.5,16.078125 Z" transform="translate(-0.0234375, 19.890625) scale(1, -1)"/>
</svg>