<svg height="21.59375" viewBox="0 0 24 21.59375" width="24" xmlns="http://www.w3.org/2000/svg">
<path d="M22.828125,19.890625 L1.21875,19.890625 L1.21875,-1.703125 L22.828125,-1.703125 Z M22.109375,19.171875 L22.109375,-0.984375 L1.9375,-0.984375 L1.9375,19.171875 Z M18.484375,16.390625 L17.515625,15.1875 L10.65625,15.1875 L10.84375,14.46875 L15.5,14.46875 L15.5,3.59375 C15.5,3.265625 15.390625,3.171875 14.96875,3.171875 C14.546875,3.171875 12.359375,3.3125 12.359375,3.3125 L12.359375,2.953125 C13.34375,2.828125 13.890625,2.65625 14.203125,2.40625 C14.515625,2.15625 14.640625,1.78125 14.65625,1.375 C16.609375,1.5625 16.890625,2.421875 16.890625,3.578125 L16.890625,14.46875 L19.609375,14.46875 C19.9375,14.46875 20.15625,14.59375 20.234375,14.859375 C19.5625,15.53125 18.484375,16.390625 18.484375,16.390625 Z M10.015625,14.375 L9.171875,13.296875 L8.640625,13.296875 L8.640625,16.171875 C9.21875,16.265625 9.4375,16.46875 9.5,16.828125 L7.265625,17.0625 L7.265625,13.296875 L4.421875,13.296875 L4.609375,12.59375 L7.265625,12.59375 L7.265625,9.1875 C5.90625,8.734375 4.78125,8.375 4.125,8.203125 L4.921875,6.453125 C5.140625,6.546875 5.296875,6.765625 5.375,7.03125 L7.265625,7.96875 L7.265625,3.59375 C7.265625,3.28125 7.171875,3.171875 6.84375,3.171875 C6.453125,3.171875 4.65625,3.3125 4.65625,3.3125 L4.65625,2.921875 C5.46875,2.828125 5.953125,2.640625 6.21875,2.40625 C6.484375,2.15625 6.578125,1.75 6.625,1.34375 C8.453125,1.53125 8.640625,2.25 8.640625,3.484375 L8.640625,8.65625 L11.8125,10.3125 L11.65625,10.6875 L8.640625,9.640625 L8.640625,12.59375 L10.9375,12.59375 C11.28125,12.59375 11.5,12.71875 11.546875,12.984375 C10.96875,13.578125 10.015625,14.375 10.015625,14.375 Z" transform="translate(-0.0234375, 19.890625) scale(1, -1)"/>
</svg>