<svg height="21.59375" viewBox="0 0 24 21.59375" width="24" xmlns="http://www.w3.org/2000/svg">
<path d="M20.15625,16.46875 L17.921875,16.703125 L17.921875,3.40625 C17.921875,3.078125 17.828125,2.96875 17.5,2.96875 C17.15625,2.96875 15.53125,3.09375 15.53125,3.09375 L15.53125,2.71875 C16.265625,2.609375 16.703125,2.453125 16.9375,2.203125 C17.203125,1.984375 17.296875,1.578125 17.359375,1.171875 C19.078125,1.375 19.296875,2.0625 19.296875,3.265625 L19.296875,15.84375 C19.875,15.90625 20.09375,16.125 20.15625,16.46875 Z M16.96875,15.28125 L14.78125,15.53125 L14.78125,4.734375 L15.03125,4.734375 C15.53125,4.734375 16.078125,5.015625 16.078125,5.203125 L16.078125,14.609375 C16.703125,14.71875 16.921875,14.953125 16.96875,15.28125 Z M22.828125,19.890625 L1.21875,19.890625 L1.21875,-1.703125 L22.828125,-1.703125 Z M22.109375,19.171875 L22.109375,-0.984375 L1.9375,-0.984375 L1.9375,19.171875 Z M10.53125,16.796875 L8.25,17.0625 L8.25,15.171875 L5.828125,15.171875 C5.78125,15.40625 5.734375,15.625 5.640625,15.859375 L5.25,15.859375 C5.25,15.03125 4.84375,14.28125 4.484375,14.015625 C3.4375,13.3125 4.3125,12.234375 5.203125,12.84375 C5.71875,13.15625 5.921875,13.75 5.921875,14.46875 L12.390625,14.46875 C12.265625,14.046875 12.140625,13.578125 12.03125,13.265625 L12.40625,13.109375 C12.8125,13.390625 13.265625,13.921875 13.53125,14.328125 C13.96875,14.359375 14.25,14.375 14.421875,14.546875 L12.984375,15.953125 L12.265625,15.171875 L9.625,15.171875 L9.625,16.15625 C10.203125,16.21875 10.484375,16.46875 10.53125,16.796875 Z M5.46875,7.078125 L5.46875,1.125 L5.6875,1.125 C6.21875,1.125 6.8125,1.4375 6.8125,1.5625 L6.8125,2.375 L11.140625,2.375 L11.140625,1.484375 L11.359375,1.484375 C11.78125,1.484375 12.484375,1.796875 12.5,1.9375 L12.5,5.546875 C12.890625,5.59375 13.25,5.78125 13.375,5.953125 L11.6875,7.203125 L10.9375,6.40625 L9.59375,6.40625 L9.59375,7.828125 L13.296875,7.828125 C13.609375,7.828125 13.828125,7.9375 13.875,8.203125 C13.3125,8.78125 12.40625,9.5 12.40625,9.5 L11.59375,8.515625 L9.59375,8.515625 L9.59375,9.90625 L12.578125,9.90625 C12.890625,9.90625 13.109375,10.03125 13.15625,10.296875 C12.625,10.84375 11.765625,11.546875 11.765625,11.546875 L11.046875,10.609375 L9.59375,10.609375 L9.59375,11.90625 L12.4375,11.90625 C12.75,11.90625 12.953125,12.03125 13.015625,12.28125 C12.484375,12.859375 11.609375,13.5625 11.609375,13.5625 L10.84375,12.625 L9.59375,12.625 L9.59375,13.25 C10.171875,13.3125 10.421875,13.53125 10.46875,13.875 L8.25,14.140625 L8.25,12.625 L5.1875,12.625 L5.375,11.90625 L8.25,11.90625 L8.25,10.609375 L5.25,10.609375 L5.453125,9.90625 L8.25,9.90625 L8.25,8.515625 L4.375,8.515625 L4.5625,7.828125 L8.25,7.828125 L8.25,6.40625 L6.9375,6.40625 Z M11.140625,3.09375 L6.8125,3.09375 L6.8125,5.71875 L11.140625,5.71875 Z" transform="translate(-0.0234375, 19.890625) scale(1, -1)"/>
</svg>