<svg height="21.59375" viewBox="0 0 24 21.59375" width="24" xmlns="http://www.w3.org/2000/svg">
<path d="M10.703125,17.453125 L10.421875,17.296875 C10.875,16.703125 11.328125,15.703125 11.375,14.875 C12.53125,13.828125 13.96875,16.15625 10.703125,17.453125 Z M6.859375,17.15625 L6.59375,16.984375 C7.171875,16.4375 7.828125,15.5 7.984375,14.734375 C9.1875,13.84375 10.375,16.25 6.859375,17.15625 Z M22.828125,19.890625 L1.21875,19.890625 L1.21875,-1.703125 L22.828125,-1.703125 Z M22.109375,19.171875 L22.109375,-0.984375 L1.9375,-0.984375 L1.9375,19.171875 Z M6.3125,15.28125 L5.859375,15.265625 C6.03125,14.203125 5.515625,13.0625 4.796875,12.640625 C4.375,12.390625 4.109375,11.96875 4.3125,11.546875 C4.53125,11.09375 5.28125,11.140625 5.734375,11.5 C6.21875,11.859375 6.59375,12.625 6.578125,13.703125 L17.765625,13.703125 C17.546875,13.15625 17.28125,12.5 17.0625,12.125 L17.421875,11.921875 C18,12.3125 18.765625,13.015625 19.203125,13.53125 C19.65625,13.5625 19.921875,13.578125 20.109375,13.75 L18.578125,15.265625 L17.765625,14.421875 L15,14.421875 C15.75,15 16.4375,15.640625 16.921875,16.203125 C17.421875,16.125 17.765625,16.265625 17.875,16.53125 L15.84375,17.421875 C15.453125,16.484375 14.78125,15.3125 14.1875,14.421875 L6.5,14.421875 C6.484375,14.6875 6.40625,14.96875 6.3125,15.28125 Z M7.5625,12.8125 L7.5625,7.6875 L7.78125,7.6875 C8.328125,7.6875 8.953125,7.984375 8.953125,8.109375 L8.953125,8.609375 L11.15625,8.609375 C11.015625,7.96875 10.796875,7.171875 10.609375,6.53125 L8.046875,6.53125 L6.546875,7.21875 L6.546875,1.15625 L6.75,1.15625 C7.296875,1.15625 7.921875,1.484375 7.921875,1.609375 L7.921875,2.40625 L16.25,2.40625 L16.25,1.265625 L16.4375,1.265625 C16.890625,1.265625 17.609375,1.609375 17.640625,1.75 L17.640625,5.65625 C17.96875,5.734375 18.28125,5.90625 18.40625,6.046875 L16.796875,7.296875 L16.0625,6.53125 L11.40625,6.53125 C11.8125,7.15625 12.28125,7.9375 12.640625,8.609375 L15.09375,8.609375 L15.09375,7.875 L15.3125,7.875 C15.765625,7.875 16.46875,8.1875 16.484375,8.359375 L16.484375,11.359375 C16.796875,11.40625 17.109375,11.5625 17.234375,11.6875 L15.640625,12.890625 L14.921875,12.140625 L9.078125,12.140625 Z M16.25,5.8125 L16.25,3.125 L7.921875,3.125 L7.921875,5.8125 Z M15.09375,11.453125 L15.09375,9.3125 L8.953125,9.3125 L8.953125,11.453125 Z" transform="translate(-0.0234375, 19.890625) scale(1, -1)"/>
</svg>