<svg height="21.59375" viewBox="0 0 24 21.59375" width="24" xmlns="http://www.w3.org/2000/svg">
<path d="M1.21875,19.890625 L1.21875,-1.703125 L22.828125,-1.703125 L22.828125,19.890625 Z M22.109375,-0.984375 L1.9375,-0.984375 L1.9375,19.171875 L22.109375,19.171875 Z M15.671875,15.1875 L15.671875,11.875 L8.953125,11.875 L8.953125,15.1875 Z M7.53125,15.90625 L7.53125,9.796875 C7.53125,6.546875 7.25,3.59375 4.78125,1.375 L5.09375,1.078125 C7.65625,2.65625 8.546875,4.875 8.8125,7.171875 L15.671875,7.171875 L15.671875,3.59375 C15.671875,3.21875 15.53125,3.046875 15.078125,3.046875 C14.5,3.046875 11.734375,3.265625 11.734375,3.265625 L11.734375,2.875 C12.90625,2.734375 13.578125,2.546875 14.015625,2.296875 C14.328125,2.0625 14.5,1.6875 14.5625,1.25 C16.828125,1.46875 17.09375,2.234375 17.09375,3.4375 L17.09375,15 C17.515625,15.078125 17.859375,15.265625 18,15.4375 L16.171875,16.796875 L15.453125,15.90625 L9.234375,15.90625 L7.53125,16.6875 Z M15.671875,11.15625 L15.671875,7.890625 L8.875,7.890625 C8.921875,8.546875 8.953125,9.1875 8.953125,9.8125 L8.953125,11.15625 Z" transform="translate(-0.0234375, 19.890625) scale(1, -1)"/>
</svg>