<svg height="21.59375" viewBox="0 0 24 21.59375" width="24" xmlns="http://www.w3.org/2000/svg">
<path d="M22.828125,19.890625 L1.21875,19.890625 L1.21875,-1.703125 L22.828125,-1.703125 Z M22.109375,19.171875 L22.109375,-0.984375 L1.9375,-0.984375 L1.9375,19.171875 Z M19.015625,9.578125 L18.234375,8.46875 L18.171875,8.46875 L18.171875,13.015625 C18.640625,13.109375 19.03125,13.296875 19.203125,13.484375 L17.421875,14.875 L16.578125,13.984375 L14.828125,13.984375 L14.828125,16.203125 C15.4375,16.296875 15.59375,16.515625 15.671875,16.84375 L13.484375,17.0625 L13.484375,13.984375 L11.78125,13.984375 L10.203125,14.6875 L10.203125,8.46875 L8.921875,8.46875 L9.125,7.78125 L13.296875,7.78125 C12.796875,5.25 11.28125,3.265625 7.625,1.796875 L7.890625,1.4375 C12,2.765625 13.796875,4.734375 14.46875,7.171875 C15,5.140625 16.125,2.828125 18.84375,1.5625 C18.953125,2.328125 19.375,2.515625 20.046875,2.609375 L20.09375,2.90625 C16.84375,4.078125 15.453125,5.921875 14.828125,7.78125 L19.78125,7.78125 C20.09375,7.78125 20.296875,7.890625 20.359375,8.15625 C19.875,8.765625 19.015625,9.578125 19.015625,9.578125 Z M16.828125,13.265625 L16.828125,8.46875 L14.734375,8.46875 C14.8125,8.96875 14.828125,9.5 14.828125,10.0625 L14.828125,13.265625 Z M11.5,13.265625 L13.484375,13.265625 L13.484375,10.0625 C13.484375,9.5 13.46875,8.96875 13.390625,8.46875 L11.5,8.46875 Z M7.609375,5.953125 L5.765625,5.953125 L5.765625,10.015625 L7.609375,10.015625 Z M4.4375,16.015625 L4.4375,3.53125 L4.65625,3.53125 C5.296875,3.53125 5.765625,3.90625 5.765625,4.015625 L5.765625,5.25 L7.609375,5.25 L7.609375,4.078125 L7.78125,4.078125 C8.25,4.078125 8.875,4.4375 8.90625,4.578125 L8.90625,14.515625 C9.21875,14.59375 9.5,14.734375 9.59375,14.859375 L8.140625,16.03125 L7.421875,15.28125 L6.046875,15.28125 Z M7.609375,10.703125 L5.765625,10.703125 L5.765625,14.59375 L7.609375,14.59375 Z" transform="translate(-0.0234375, 19.890625) scale(1, -1)"/>
</svg>