<svg height="21.59375" viewBox="0 0 24 21.59375" width="24" xmlns="http://www.w3.org/2000/svg">
<path d="M19.125,12.359375 L16.921875,12.625 L16.921875,3.5 C16.921875,3.21875 16.84375,3.125 16.53125,3.125 C16.203125,3.125 14.765625,3.21875 14.765625,3.21875 L14.765625,2.828125 C15.4375,2.734375 15.84375,2.59375 16.0625,2.375 C16.296875,2.15625 16.375,1.796875 16.421875,1.4375 C18.078125,1.609375 18.28125,2.25 18.28125,3.40625 L18.28125,11.78125 C18.8125,11.859375 19.0625,12.046875 19.125,12.359375 Z M15.53125,11.90625 L13.375,12.140625 L13.375,4.109375 L13.625,4.109375 C14.109375,4.109375 14.6875,4.421875 14.6875,4.578125 L14.6875,11.28125 C15.265625,11.375 15.484375,11.59375 15.53125,11.90625 Z M22.828125,19.890625 L1.21875,19.890625 L1.21875,-1.703125 L22.828125,-1.703125 Z M22.109375,19.171875 L22.109375,-0.984375 L1.9375,-0.984375 L1.9375,19.171875 Z M6.953125,6.671875 L6.953125,8.640625 L9.984375,8.640625 L9.984375,6.671875 Z M5.609375,12.59375 L5.609375,1.390625 L5.859375,1.390625 C6.4375,1.390625 6.953125,1.734375 6.953125,1.875 L6.953125,5.96875 L9.984375,5.96875 L9.984375,3.53125 C9.984375,3.265625 9.90625,3.140625 9.625,3.140625 C9.3125,3.140625 8.15625,3.234375 8.15625,3.234375 L8.15625,2.859375 C8.734375,2.765625 9.078125,2.609375 9.28125,2.421875 C9.484375,2.1875 9.546875,1.828125 9.578125,1.46875 C11.140625,1.625 11.328125,2.28125 11.328125,3.40625 L11.328125,10.921875 C11.8125,10.984375 12.234375,11.203125 12.390625,11.40625 L10.46875,12.8125 L9.75,11.90625 L7.078125,11.90625 Z M6.953125,9.34375 L6.953125,11.203125 L9.984375,11.203125 L9.984375,9.34375 Z M18.4375,15.546875 L17.46875,14.375 L14.015625,14.375 C14.765625,15 15.453125,15.71875 15.953125,16.296875 C16.4375,16.25 16.78125,16.421875 16.890625,16.6875 L14.828125,17.46875 C14.453125,16.53125 13.796875,15.28125 13.21875,14.375 L10.390625,14.375 C10.9375,14.921875 10.625,16.515625 7.828125,17.359375 L7.5625,17.1875 C8.296875,16.484375 9.125,15.34375 9.34375,14.375 L4.25,14.375 L4.4375,13.6875 L19.5625,13.6875 C19.890625,13.6875 20.109375,13.796875 20.1875,14.0625 C19.515625,14.6875 18.4375,15.546875 18.4375,15.546875 Z" transform="translate(-0.0234375, 19.890625) scale(1, -1)"/>
</svg>