<svg height="21.59375" viewBox="0 0 24 21.59375" width="24" xmlns="http://www.w3.org/2000/svg">
<path d="M22.828125,19.890625 L1.21875,19.890625 L1.21875,-1.703125 L22.828125,-1.703125 Z M22.109375,19.171875 L22.109375,-0.984375 L1.9375,-0.984375 L1.9375,19.171875 Z M11.203125,7.890625 L6.71875,7.890625 L6.71875,12.578125 L11.203125,12.578125 Z M12.625,7.890625 L12.625,12.578125 L17.203125,12.578125 L17.203125,7.890625 Z M5.296875,14.015625 L5.296875,5.640625 L5.515625,5.640625 C6.234375,5.640625 6.71875,6.03125 6.71875,6.140625 L6.71875,7.203125 L11.203125,7.203125 L11.203125,1.078125 L11.46875,1.078125 C12.03125,1.078125 12.625,1.421875 12.625,1.609375 L12.625,7.203125 L17.203125,7.203125 L17.203125,5.90625 L17.453125,5.90625 C18.078125,5.90625 18.625,6.265625 18.625,6.359375 L18.625,12.359375 C19.109375,12.40625 19.375,12.546875 19.515625,12.71875 L17.6875,14.109375 L17.015625,13.25 L12.625,13.25 L12.625,16.171875 C13.21875,16.25 13.4375,16.484375 13.515625,16.828125 L11.203125,17.09375 L11.203125,13.25 L7.015625,13.25 Z" transform="translate(-0.0234375, 19.890625) scale(1, -1)"/>
</svg>