<svg height="21.59375" viewBox="0 0 24 21.59375" width="24" xmlns="http://www.w3.org/2000/svg">
<path d="M22.828125,19.890625 L1.21875,19.890625 L1.21875,-1.703125 L22.828125,-1.703125 Z M22.109375,19.171875 L22.109375,-0.984375 L1.9375,-0.984375 L1.9375,19.171875 Z M9.046875,14.375 L8.1875,13.21875 L8.09375,13.21875 L8.09375,16.03125 C8.65625,16.125 8.875,16.3125 8.953125,16.6875 L6.75,16.921875 L6.75,13.21875 L4.171875,13.21875 L4.375,12.53125 L6.75,12.53125 L6.75,9.078125 C5.5625,8.65625 4.609375,8.359375 4.0625,8.1875 L4.796875,6.484375 C5.046875,6.578125 5.203125,6.8125 5.25,7.078125 L6.75,7.890625 L6.75,3.5 C6.75,3.1875 6.671875,3.09375 6.359375,3.09375 C6.078125,3.09375 4.703125,3.21875 4.703125,3.21875 L4.703125,2.8125 C5.375,2.71875 5.734375,2.5625 5.953125,2.328125 C6.171875,2.109375 6.234375,1.703125 6.28125,1.3125 C7.890625,1.484375 8.09375,2.15625 8.09375,3.359375 L8.09375,8.640625 L10.5625,10.078125 L10.4375,10.4375 L8.09375,9.578125 L8.09375,12.53125 L10.03125,12.53125 C10.375,12.53125 10.578125,12.640625 10.65625,12.90625 C10.0625,13.53125 9.046875,14.375 9.046875,14.375 Z M11.296875,9.53125 L11.296875,1.265625 L11.5,1.265625 C12.078125,1.265625 12.640625,1.578125 12.640625,1.734375 L12.640625,2.5625 L17.421875,2.5625 L17.421875,1.4375 L17.640625,1.4375 C18.078125,1.4375 18.765625,1.75 18.796875,1.921875 L18.796875,7.984375 C19.15625,8.0625 19.46875,8.234375 19.578125,8.375 L17.96875,9.625 L17.234375,8.859375 L12.765625,8.859375 Z M17.421875,8.140625 L17.421875,6.078125 L12.640625,6.078125 L12.640625,8.140625 Z M17.421875,3.28125 L12.640625,3.28125 L12.640625,5.359375 L17.421875,5.359375 Z M13.25,16.53125 L11.234375,16.78125 L11.234375,11.921875 C11.234375,10.890625 11.546875,10.578125 13.25,10.578125 L15.703125,10.578125 C19.203125,10.578125 19.84375,10.796875 19.84375,11.453125 C19.84375,11.71875 19.703125,11.859375 19.21875,12 L19.15625,13.75 L18.859375,13.75 C18.671875,12.984375 18.453125,12.265625 18.28125,12.03125 C18.21875,11.875 18.09375,11.859375 17.859375,11.828125 C17.5625,11.8125 16.75,11.8125 15.71875,11.8125 L13.46875,11.8125 C12.640625,11.8125 12.578125,11.875 12.578125,12.1875 L12.578125,13.53125 C14.640625,13.796875 16.828125,14.296875 18.21875,14.78125 C18.71875,14.609375 19.109375,14.59375 19.296875,14.8125 L17.65625,16.203125 C16.53125,15.53125 14.5,14.65625 12.578125,14.09375 L12.578125,15.984375 C12.984375,16.03125 13.21875,16.265625 13.25,16.53125 Z" transform="translate(-0.0234375, 19.890625) scale(1, -1)"/>
</svg>