<svg height="21.59375" viewBox="0 0 24 21.59375" width="24" xmlns="http://www.w3.org/2000/svg">
<path d="M12.3125,16.265625 C13.65625,13.625 16.296875,11.328125 19.109375,9.84375 C19.21875,10.34375 19.6875,10.734375 20.234375,10.84375 L20.28125,11.1875 C17.234375,12.359375 14.296875,14.296875 12.71875,16.5625 C13.25,16.578125 13.484375,16.703125 13.5625,16.9375 L11.1875,17.453125 C10.21875,14.859375 6.703125,11.28125 3.71875,9.578125 L3.9375,9.21875 C7.25,10.78125 10.625,13.609375 12.3125,16.265625 Z M14.296875,12.1875 L13.375,11.015625 L7.96875,11.015625 L8.15625,10.296875 L15.484375,10.296875 C15.796875,10.296875 16.03125,10.421875 16.109375,10.6875 C15.40625,11.359375 14.296875,12.1875 14.296875,12.1875 Z M22.828125,19.890625 L1.21875,19.890625 L1.21875,-1.703125 L22.828125,-1.703125 Z M22.109375,19.171875 L22.109375,-0.984375 L1.9375,-0.984375 L1.9375,19.171875 Z M15.546875,3.234375 L8.296875,3.234375 L8.296875,7.15625 L15.546875,7.15625 Z M6.890625,8.5625 L6.890625,1.109375 L7.109375,1.109375 C7.703125,1.109375 8.296875,1.421875 8.296875,1.5625 L8.296875,2.515625 L15.546875,2.515625 L15.546875,1.34375 L15.75,1.34375 C16.203125,1.34375 16.921875,1.6875 16.9375,1.828125 L16.9375,6.9375 C17.359375,7.015625 17.734375,7.203125 17.875,7.375 L16.109375,8.71875 L15.3125,7.84375 L8.421875,7.84375 Z" transform="translate(-0.0234375, 19.890625) scale(1, -1)"/>
</svg>