<svg height="21.765625" viewBox="0 0 24 21.765625" width="24" xmlns="http://www.w3.org/2000/svg">
<path d="M8.359375,5.5625 L8.09375,5.375 C8.8125,4.78125 9.703125,3.703125 9.984375,2.859375 C11.28125,2.046875 12.234375,4.578125 8.359375,5.5625 Z M8.40625,4.6875 L6.484375,5.5625 C6.078125,4.390625 5.09375,2.6875 4.015625,1.6875 L4.3125,1.3125 C5.65625,2.140625 6.859375,3.40625 7.53125,4.421875 C8.0625,4.3125 8.25,4.4375 8.40625,4.6875 Z M22.890625,0.984375 L22.890625,17.15625 L19.9375,19.96875 L19.46875,19.515625 L21.890625,16.796875 L21.890625,1.375 L19.46875,-1.34375 L19.9375,-1.796875 Z M1.15625,17.15625 L1.15625,0.984375 L4.109375,-1.796875 L4.578125,-1.34375 L2.15625,1.375 L2.15625,16.796875 L4.578125,19.515625 L4.109375,19.96875 Z M16.125,16.703125 L13.890625,17.28125 C13.375,14.1875 12.28125,11.234375 10.96875,9.265625 L11.359375,9.03125 C12.046875,9.71875 12.71875,10.578125 13.296875,11.5625 C13.65625,9.578125 14.15625,7.734375 14.921875,6.140625 C13.890625,4.46875 12.453125,3.03125 10.421875,1.78125 L10.625,1.421875 C12.75,2.421875 14.328125,3.625 15.5,5.09375 C16.390625,3.640625 17.546875,2.453125 19.125,1.53125 C19.296875,2.15625 19.734375,2.453125 20.25,2.5625 L20.328125,2.8125 C18.546875,3.578125 17.234375,4.6875 16.21875,6.046875 C17.46875,7.9375 18.171875,10.203125 18.546875,12.9375 L19.703125,12.9375 C20.046875,12.9375 20.25,13.0625 20.328125,13.3125 C19.625,13.984375 18.53125,14.859375 18.53125,14.859375 L17.59375,13.65625 L14.359375,13.65625 C14.6875,14.46875 15,15.3125 15.234375,16.203125 C15.765625,16.203125 16.03125,16.421875 16.125,16.703125 Z M14.015625,12.9375 L17.015625,12.9375 C16.78125,10.78125 16.3125,8.859375 15.5,7.171875 C14.640625,8.640625 14.09375,10.375 13.6875,12.234375 Z M9.453125,7.0625 L6.3125,7.0625 L6.3125,9.4375 L9.453125,9.4375 Z M4.984375,16.890625 L4.984375,5.25 L5.1875,5.25 C5.859375,5.25 6.3125,5.609375 6.3125,5.734375 L6.3125,6.34375 L9.453125,6.34375 L9.453125,5.59375 L9.640625,5.59375 C10.109375,5.59375 10.75,5.921875 10.78125,6.078125 L10.78125,15.34375 C11.140625,15.40625 11.453125,15.546875 11.5625,15.703125 L9.984375,16.9375 L9.265625,16.15625 L6.625,16.15625 Z M9.453125,10.125 L6.3125,10.125 L6.3125,12.4375 L9.453125,12.4375 Z M9.453125,13.15625 L6.3125,13.15625 L6.3125,15.453125 L9.453125,15.453125 Z" transform="translate(-0.0234375, 19.96875) scale(1, -1)"/>
</svg>