<svg height="21.609375" viewBox="0 0 24 21.609375" width="24" xmlns="http://www.w3.org/2000/svg">
<path d="M1.203125,19.921875 L1.203125,-1.6875 L22.796875,-1.6875 L22.796875,19.921875 Z M22.078125,-0.953125 L1.921875,-0.953125 L1.921875,19.203125 L22.078125,19.203125 Z M3.75,12.390625 L3.359375,12.21875 C3.390625,11.875 3.40625,11.28125 3.546875,10.984375 C3.75,10.484375 4.6875,9.5 5.1875,9.5 C5.609375,9.5 6.078125,9.84375 6.640625,9.984375 C7.21875,10.109375 7.828125,10.21875 8.765625,10.34375 C8.71875,8.1875 8.5,7.265625 8.5,6.578125 C8.5,6.03125 8.828125,5.40625 9.390625,5.40625 C9.8125,5.40625 10.109375,5.734375 10.109375,6.578125 L10.109375,10.484375 C11.5,10.625 13.109375,10.734375 14.515625,10.796875 C14.46875,8.453125 14.234375,6.453125 13.25,4.796875 C12.140625,2.96875 10.21875,1.6875 8.6875,0.859375 L9.078125,0.359375 C11.65625,1.296875 13.375,2.640625 14.296875,3.953125 C15.625,5.765625 15.859375,8.359375 15.953125,10.84375 L17.140625,10.875 C18.625,10.875 19.734375,10.734375 20.203125,10.734375 C20.609375,10.734375 20.734375,11.09375 20.734375,11.375 C20.734375,12.03125 19.484375,12.40625 18.625,12.40625 C18.1875,12.40625 17.609375,12.265625 16.015625,12.125 C16.03125,12.890625 16.0625,13.78125 16.109375,14.546875 C16.15625,15.40625 16.4375,15.484375 16.4375,15.90625 C16.4375,16.390625 15.28125,17.140625 14.234375,17.140625 C13.875,17.140625 13.421875,17.046875 12.984375,16.890625 L13.015625,16.46875 C13.921875,16.34375 14.46875,16.171875 14.515625,15.71875 C14.609375,14.953125 14.59375,13.578125 14.546875,12 C13.171875,11.90625 11.5,11.78125 10.109375,11.640625 C10.125,12.578125 10.15625,13.484375 10.203125,13.84375 C10.25,14.5 10.46875,14.46875 10.46875,14.96875 C10.46875,15.578125 9.046875,16.0625 8.375,16.0625 C8.015625,16.0625 7.5625,15.90625 7.265625,15.8125 L7.296875,15.390625 C8.09375,15.234375 8.46875,15.125 8.59375,14.78125 C8.765625,14.328125 8.765625,12.765625 8.765625,11.5 C7.578125,11.375 5.90625,11.203125 5.046875,11.203125 C4.515625,11.203125 4.125,11.859375 3.75,12.390625 Z" transform="translate(0, 19.921875) scale(1, -1)"/>
</svg>