<svg height="21.59375" viewBox="0 0 24 21.59375" width="24" xmlns="http://www.w3.org/2000/svg">
<path d="M22.828125,19.890625 L1.21875,19.890625 L1.21875,-1.703125 L22.828125,-1.703125 Z M22.109375,19.171875 L22.109375,-0.984375 L1.9375,-0.984375 L1.9375,19.171875 Z M16.375,3.9375 L9.625,3.9375 L9.625,8.734375 L16.375,8.734375 Z M18.3125,15.078125 L17.359375,13.84375 L10.96875,13.84375 C11.28125,14.65625 11.5625,15.53125 11.8125,16.4375 C12.359375,16.421875 12.625,16.65625 12.71875,16.9375 L10.484375,17.546875 C10.21875,16.25 9.890625,15 9.5,13.84375 L4.109375,13.84375 L4.296875,13.125 L9.234375,13.125 C7.9375,9.71875 6.046875,6.953125 3.84375,5.0625 L4.15625,4.78125 C5.6875,5.765625 7.03125,7.0625 8.203125,8.640625 L8.203125,1.390625 L8.453125,1.390625 C9.140625,1.390625 9.625,1.796875 9.625,1.921875 L9.625,3.21875 L16.375,3.21875 L16.375,1.65625 L16.578125,1.65625 C17.046875,1.65625 17.765625,1.96875 17.78125,2.140625 L17.78125,8.515625 C18.21875,8.59375 18.578125,8.78125 18.71875,8.953125 L16.9375,10.296875 L16.15625,9.4375 L9.90625,9.4375 L9,9.8125 C9.640625,10.828125 10.203125,11.921875 10.703125,13.125 L19.46875,13.125 C19.78125,13.125 20.015625,13.25 20.0625,13.515625 C19.421875,14.1875 18.3125,15.078125 18.3125,15.078125 Z" transform="translate(-0.0234375, 19.890625) scale(1, -1)"/>
</svg>