<svg height="21.59375" viewBox="0 0 24 21.59375" width="24" xmlns="http://www.w3.org/2000/svg">
<path d="M16.03125,16.6875 L15.765625,16.484375 C16.296875,16.15625 16.890625,15.53125 17.15625,15.03125 C18.28125,14.421875 19.109375,16.484375 16.03125,16.6875 Z M22.828125,19.890625 L1.21875,19.890625 L1.21875,-1.703125 L22.828125,-1.703125 Z M22.109375,19.171875 L22.109375,-0.984375 L1.9375,-0.984375 L1.9375,19.171875 Z M8.640625,14.15625 L7.890625,13.15625 L7.703125,13.15625 L7.703125,16.265625 C8.25,16.34375 8.5,16.5625 8.546875,16.890625 L6.390625,17.15625 L6.390625,13.15625 L4.03125,13.15625 L4.21875,12.453125 L6.390625,12.453125 L6.390625,9.09375 C5.296875,8.71875 4.390625,8.421875 3.859375,8.28125 L4.625,6.640625 C4.828125,6.75 5.015625,6.953125 5.0625,7.21875 L6.390625,7.984375 L6.390625,3.484375 C6.390625,3.1875 6.3125,3.09375 6.03125,3.09375 C5.71875,3.09375 4.421875,3.1875 4.421875,3.1875 L4.421875,2.8125 C5.046875,2.71875 5.40625,2.5625 5.609375,2.359375 C5.828125,2.140625 5.90625,1.734375 5.953125,1.3125 C7.515625,1.515625 7.703125,2.1875 7.703125,3.359375 L7.703125,8.765625 L9.578125,9.859375 L9.4375,10.203125 L7.703125,9.578125 L7.703125,12.453125 L9.390625,12.453125 C9.703125,12.453125 9.90625,12.578125 9.953125,12.84375 C9.453125,13.390625 8.640625,14.15625 8.640625,14.15625 Z M17.6875,6.484375 L15.140625,6.484375 L15.140625,8.5 L17.6875,8.5 Z M18.5,15.40625 L17.59375,14.28125 L15.140625,14.28125 L15.140625,16.265625 C15.59375,16.34375 15.765625,16.515625 15.8125,16.796875 L13.828125,17.046875 L13.828125,14.28125 L9.59375,14.28125 L9.796875,13.578125 L13.828125,13.578125 L13.828125,11.921875 L11.46875,11.921875 L10.03125,12.625 L10.03125,1.375 L10.25,1.375 C10.828125,1.375 11.359375,1.703125 11.359375,1.828125 L11.359375,5.765625 L13.828125,5.765625 L13.828125,1.5625 L14.09375,1.5625 C14.59375,1.5625 15.140625,1.890625 15.140625,2.09375 L15.140625,5.765625 L17.6875,5.765625 L17.6875,3.546875 C17.6875,3.234375 17.609375,3.140625 17.359375,3.140625 C17.046875,3.140625 15.890625,3.234375 15.890625,3.234375 L15.890625,2.828125 C16.484375,2.734375 16.796875,2.59375 17.015625,2.375 C17.203125,2.140625 17.28125,1.734375 17.296875,1.34375 C18.859375,1.515625 19.03125,2.1875 19.03125,3.359375 L19.03125,11.0625 C19.390625,11.140625 19.75,11.296875 19.875,11.46875 L18.140625,12.71875 L17.5,11.921875 L15.140625,11.921875 L15.140625,13.578125 L19.578125,13.578125 C19.921875,13.578125 20.140625,13.703125 20.1875,13.96875 C19.53125,14.59375 18.5,15.40625 18.5,15.40625 Z M11.359375,6.484375 L11.359375,8.5 L13.828125,8.5 L13.828125,6.484375 Z M17.6875,9.21875 L15.140625,9.21875 L15.140625,11.234375 L17.6875,11.234375 Z M11.359375,9.21875 L11.359375,11.234375 L13.828125,11.234375 L13.828125,9.21875 Z" transform="translate(-0.0234375, 19.890625) scale(1, -1)"/>
</svg>