<svg height="21.859375" viewBox="0 0 24 21.859375" width="24" xmlns="http://www.w3.org/2000/svg">
<path d="M2.546875,20.15625 L2.234375,19.875 C2.5625,19.484375 3.046875,18.8125 3.046875,18.4375 C3.046875,18 2.859375,17.421875 2.734375,16.984375 C2.546875,16.296875 2.140625,14.8125 2.140625,13.21875 C2.140625,11.78125 2.546875,10.75 2.921875,10.203125 C3.21875,9.84375 3.546875,9.578125 3.8125,9.578125 C4.078125,9.578125 4.296875,9.8125 4.296875,10.078125 C4.296875,10.375 3.953125,10.625 3.953125,11.046875 C3.953125,11.234375 4.015625,11.515625 4.15625,11.90625 C4.3125,12.4375 4.875,13.9375 5.09375,14.640625 L4.625,14.828125 C4.3125,14.15625 3.59375,12.546875 3.34375,12.125 C3.265625,12 3.1875,12.03125 3.125,12.171875 C3.03125,12.4375 2.953125,12.796875 2.953125,13.390625 C2.953125,14.609375 3.453125,16.203125 3.75,16.875 C4.0625,17.71875 4.296875,17.953125 4.296875,18.265625 C4.296875,18.671875 3.75,19.4375 3.34375,19.75 C3.09375,19.9375 2.78125,20.09375 2.546875,20.15625 Z M19.84375,5.734375 L19.609375,5.359375 C20.234375,5.046875 20.765625,4.75 21.21875,4.125 C21.59375,3.625 21.75,3.171875 21.8125,2.859375 C21.84375,2.59375 21.796875,2.453125 21.640625,2.40625 C21.265625,2.28125 20.328125,2.046875 19.921875,1.96875 L19.984375,1.4375 C20.421875,1.484375 21.390625,1.578125 21.640625,1.53125 C22.015625,1.46875 22.109375,1.0625 22.375,1.0625 C22.984375,1.078125 23.0625,1.84375 23.0625,2.359375 C23.046875,3.1875 22.625,3.90625 22.171875,4.421875 C21.59375,5.0625 20.78125,5.5 19.84375,5.734375 Z M9.40625,12.28125 L9.40625,12.09375 C9.40625,11.1875 9,10.84375 8.015625,10.84375 C7.078125,10.84375 6.765625,11.203125 6.765625,11.546875 C6.765625,12.078125 7.65625,12.390625 8.46875,12.390625 C8.8125,12.390625 9.125,12.359375 9.40625,12.28125 Z M6.359375,16.609375 L6.078125,16.375 C6.625,15.40625 7.375,15.046875 8.234375,15.046875 C8.640625,15.046875 8.96875,15.078125 9.34375,15.125 L9.390625,13.15625 L8.8125,13.171875 C7.015625,13.171875 6.03125,12.40625 6.03125,11.5 C6.03125,10.484375 6.9375,9.890625 8.1875,9.890625 C9.53125,9.890625 10.421875,10.46875 10.421875,11.609375 L10.421875,11.90625 C10.875,11.65625 11.359375,11.296875 11.90625,10.828125 C12.046875,10.65625 12.234375,10.4375 12.53125,10.4375 C12.84375,10.4375 13.015625,10.703125 13.015625,10.9375 C13.015625,11.234375 12.84375,11.46875 12.59375,11.71875 C12.21875,12.078125 11.40625,12.625 10.34375,12.9375 C10.296875,13.625 10.21875,14.453125 10.21875,15.265625 C10.875,15.40625 11.5,15.625 12,15.796875 C12.265625,15.890625 12.546875,16.0625 12.546875,16.375 C12.546875,16.65625 12.171875,16.890625 11.921875,16.890625 C11.78125,16.890625 11.609375,16.828125 11.328125,16.703125 C11.015625,16.5625 10.65625,16.4375 10.21875,16.296875 C10.21875,16.828125 10.21875,17.25 10.3125,17.453125 C10.4375,17.6875 10.390625,17.78125 10.21875,17.90625 C10.109375,17.96875 9.953125,18.078125 9.765625,18.125 C10.53125,18.28125 11.375,18.5 11.734375,18.640625 C11.90625,18.703125 12.09375,18.8125 12.09375,19.0625 C12.09375,19.421875 11.65625,19.578125 11.296875,19.578125 C11.109375,19.578125 10.921875,19.46875 10.5625,19.3125 C10.21875,19.171875 9.046875,18.84375 8.15625,18.84375 C7.65625,18.84375 7.265625,19.0625 6.765625,19.3125 L6.484375,19.0625 C7.078125,18.234375 7.703125,17.96875 8.546875,17.96875 L8.953125,18 C9.09375,17.921875 9.1875,17.8125 9.234375,17.515625 L9.34375,16.078125 C9,16.015625 8.609375,15.984375 8.234375,15.984375 C7.3125,15.984375 6.953125,16.203125 6.359375,16.609375 Z M14.46875,8.46875 L14.46875,8.046875 C14.734375,7.96875 15.21875,7.890625 15.4375,7.796875 C15.625,7.6875 15.625,7.609375 15.625,7.46875 C15.625,7.203125 15.40625,6.484375 15.09375,5.609375 C13.984375,5.359375 13.03125,5.0625 12.625,5.0625 C12.34375,5.0625 11.953125,5.6875 11.875,5.953125 L11.453125,5.875 C11.421875,5.734375 11.359375,5.375 11.359375,5.1875 C11.359375,4.625 12.21875,3.765625 12.546875,3.765625 C12.9375,3.765625 12.953125,4.015625 13.609375,4.25 L14.6875,4.609375 C14.375,3.890625 14.046875,3.140625 13.6875,2.5 C13.03125,1.34375 12.4375,0.484375 11.765625,-0.453125 C11.59375,-0.671875 11.546875,-0.84375 11.546875,-1.078125 C11.546875,-1.390625 11.765625,-1.703125 12.03125,-1.703125 C12.265625,-1.703125 12.4375,-1.515625 12.59375,-1.265625 C13.125,-0.59375 13.9375,0.890625 14.65625,2.375 C15.078125,3.1875 15.484375,4.109375 15.84375,4.9375 C16.21875,5.015625 16.578125,5.09375 16.84375,5.09375 C17.546875,5.09375 17.65625,4.5625 17.65625,3.640625 C17.65625,2.28125 17.25,0.953125 16.875,0.34375 C16.6875,0 16.4375,-0.28125 16.203125,-0.28125 C15.9375,-0.28125 15.078125,0.21875 14.5625,0.484375 L14.296875,0.03125 C14.71875,-0.28125 15.078125,-0.546875 15.40625,-0.953125 C15.625,-1.296875 15.703125,-1.6875 16.0625,-1.6875 C16.578125,-1.6875 17.140625,-1.21875 17.5,-0.71875 C18.21875,0.1875 18.671875,1.84375 18.671875,3.5 C18.671875,5.234375 17.96875,5.90625 16.984375,5.90625 C16.734375,5.90625 16.4375,5.875 16.203125,5.828125 L16.6875,7.015625 C16.796875,7.375 17.046875,7.53125 17.046875,7.828125 C17.046875,8.15625 16.015625,8.65625 15.484375,8.65625 C15.140625,8.65625 14.640625,8.515625 14.46875,8.46875 Z" transform="translate(-0.6015625, 20.15625) scale(1, -1)"/>
</svg>