<svg height="21.59375" viewBox="0 0 24 21.59375" width="24" xmlns="http://www.w3.org/2000/svg">
<path d="M22.828125,19.890625 L1.21875,19.890625 L1.21875,-1.703125 L22.828125,-1.703125 Z M22.109375,19.171875 L22.109375,-0.984375 L1.9375,-0.984375 L1.9375,19.171875 Z M18.34375,8.96875 L17.40625,7.796875 L12.71875,7.796875 L12.71875,9.03125 C13.265625,9.125 13.484375,9.28125 13.5625,9.625 L13.078125,9.671875 C14.234375,10.125 15.390625,10.75 16.21875,11.28125 C16.6875,11.296875 16.984375,11.328125 17.1875,11.46875 L15.546875,13.015625 L14.65625,12.09375 L7.3125,12.09375 L7.53125,11.40625 L14.296875,11.40625 C13.78125,10.84375 13.078125,10.21875 12.390625,9.765625 L11.296875,9.890625 L11.296875,7.796875 L4.21875,7.796875 L4.421875,7.078125 L11.296875,7.078125 L11.296875,3.4375 C11.296875,3.125 11.203125,3 10.84375,3 C10.421875,3 8.40625,3.140625 8.375,3.140625 L8.375,2.765625 C9.265625,2.640625 9.796875,2.5 10.109375,2.25 C10.390625,2.015625 10.484375,1.6875 10.53125,1.25 C12.484375,1.46875 12.71875,2.15625 12.71875,3.359375 L12.71875,7.078125 L19.46875,7.078125 C19.78125,7.078125 20.015625,7.203125 20.09375,7.46875 C19.421875,8.140625 18.34375,8.96875 18.34375,8.96875 Z M13.625,16.96875 L11.328125,17.234375 L11.328125,14.8125 L6.703125,14.8125 C6.671875,15.140625 6.59375,15.484375 6.484375,15.859375 L6.046875,15.859375 C6.140625,14.8125 5.59375,13.625 4.921875,13.203125 C4.484375,12.90625 4.21875,12.453125 4.4375,12.03125 C4.703125,11.546875 5.46875,11.640625 5.90625,12 C6.359375,12.390625 6.71875,13.109375 6.75,14.109375 L17.5,14.109375 C17.25,13.609375 16.9375,13.015625 16.703125,12.640625 L17.0625,12.453125 C17.71875,12.8125 18.625,13.421875 19.109375,13.921875 C19.53125,13.9375 19.828125,13.96875 20.015625,14.140625 L18.40625,15.703125 L17.546875,14.8125 L12.75,14.8125 L12.75,16.3125 C13.34375,16.390625 13.578125,16.625 13.625,16.96875 Z" transform="translate(-0.0234375, 19.890625) scale(1, -1)"/>
</svg>