<svg height="21.59375" viewBox="0 0 24 21.59375" width="24" xmlns="http://www.w3.org/2000/svg">
<path d="M22.828125,19.890625 L1.21875,19.890625 L1.21875,-1.703125 L22.828125,-1.703125 Z M22.109375,19.171875 L22.109375,-0.984375 L1.9375,-0.984375 L1.9375,19.171875 Z M13.421875,17.015625 L11.15625,17.25 L11.15625,14.859375 L6.625,14.859375 C6.578125,15.171875 6.5,15.53125 6.390625,15.890625 L5.953125,15.890625 C6.046875,14.78125 5.5625,13.5625 4.875,13.109375 C4.46875,12.8125 4.203125,12.390625 4.390625,11.953125 C4.65625,11.5 5.375,11.59375 5.8125,11.921875 C6.28125,12.3125 6.640625,13.0625 6.671875,14.140625 L9.546875,14.140625 C9.171875,11.28125 7.84375,9.71875 4.484375,8.46875 L4.609375,8.09375 C8.546875,9.03125 10.515625,10.65625 11.09375,14.140625 L12.90625,14.140625 L12.90625,10.46875 C12.90625,9.53125 13.125,9.1875 14.5625,9.1875 L16.21875,9.1875 C18.859375,9.1875 19.390625,9.4375 19.390625,10.03125 C19.390625,10.265625 19.296875,10.4375 18.84375,10.578125 L18.765625,12.40625 L18.484375,12.40625 C18.28125,11.609375 18.078125,10.84375 17.953125,10.609375 C17.859375,10.46875 17.765625,10.4375 17.59375,10.421875 C17.375,10.421875 16.875,10.421875 16.265625,10.421875 L14.875,10.421875 C14.359375,10.421875 14.28125,10.46875 14.28125,10.734375 L14.28125,14.140625 L17.28125,14.140625 C16.9375,13.4375 16.484375,12.59375 16.15625,12.078125 L16.484375,11.875 C17.28125,12.390625 18.359375,13.265625 18.9375,13.9375 C19.390625,13.96875 19.6875,13.984375 19.84375,14.15625 L18.21875,15.765625 L17.328125,14.859375 L12.546875,14.859375 L12.546875,16.375 C13.125,16.4375 13.375,16.6875 13.421875,17.015625 Z M17.953125,3.890625 L16.984375,2.65625 L12.578125,2.65625 L12.578125,6.703125 L17.859375,6.703125 C18.171875,6.703125 18.390625,6.8125 18.453125,7.078125 C17.8125,7.703125 16.75,8.515625 16.75,8.515625 L15.8125,7.421875 L5.6875,7.421875 L5.875,6.703125 L11.1875,6.703125 L11.1875,2.65625 L4.171875,2.65625 L4.375,1.96875 L19.125,1.96875 C19.46875,1.96875 19.6875,2.09375 19.75,2.359375 C19.0625,3 17.953125,3.890625 17.953125,3.890625 Z" transform="translate(-0.0234375, 19.890625) scale(1, -1)"/>
</svg>