<svg height="21.59375" viewBox="0 0 24 21.59375" width="24" xmlns="http://www.w3.org/2000/svg">
<path d="M22.828125,19.890625 L1.21875,19.890625 L1.21875,-1.703125 L22.828125,-1.703125 Z M22.109375,19.171875 L22.109375,-0.984375 L1.9375,-0.984375 L1.9375,19.171875 Z M18,15.03125 L17.046875,13.796875 L10.9375,13.796875 C11.140625,14.546875 11.296875,15.34375 11.453125,16.15625 C12,16.171875 12.265625,16.421875 12.359375,16.734375 L9.984375,17.1875 C9.84375,16.015625 9.671875,14.875 9.4375,13.78125 L4.265625,13.78125 L4.46875,13.078125 L9.265625,13.078125 C8.203125,8.609375 6.34375,4.96875 3.953125,2.328125 L4.296875,2.046875 C6.265625,3.640625 7.890625,5.8125 9.125,8.46875 L12.265625,8.46875 L12.28125,2.90625 L7.203125,2.875 L7.390625,2.1875 L19.03125,2.1875 C19.375,2.1875 19.578125,2.296875 19.65625,2.5625 C18.984375,3.234375 17.859375,4.15625 17.859375,4.15625 L16.875,2.90625 L13.703125,2.90625 L13.6875,8.5 L17.921875,8.5 C18.265625,8.5 18.484375,8.609375 18.53125,8.875 C17.90625,9.5 16.890625,10.34375 16.890625,10.34375 L16.015625,9.1875 L9.453125,9.1875 C9.953125,10.390625 10.390625,11.6875 10.78125,13.078125 L19.125,13.109375 C19.46875,13.109375 19.6875,13.21875 19.734375,13.484375 C19.078125,14.15625 18,15.03125 18,15.03125 Z" transform="translate(-0.0234375, 19.890625) scale(1, -1)"/>
</svg>