<svg height="21.59375" viewBox="0 0 24 21.59375" width="24" xmlns="http://www.w3.org/2000/svg">
<path d="M22.828125,19.890625 L1.21875,19.890625 L1.21875,-1.703125 L22.828125,-1.703125 Z M22.109375,19.171875 L22.109375,-0.984375 L1.9375,-0.984375 L1.9375,19.171875 Z M18.40625,9.265625 L17.40625,8.046875 L12.84375,8.046875 L12.84375,11.0625 L18.453125,11.0625 C18.796875,11.0625 19.015625,11.1875 19.0625,11.453125 C18.390625,12.125 17.28125,12.984375 17.28125,12.984375 L16.3125,11.765625 L12.84375,11.765625 L12.84375,14.875 C14.359375,15.09375 15.765625,15.3125 16.921875,15.546875 C17.5,15.28125 17.90625,15.28125 18.125,15.484375 L16.46875,17.09375 C13.984375,16.203125 9.265625,15.1875 5.375,14.78125 L5.46875,14.328125 C7.421875,14.359375 9.484375,14.515625 11.421875,14.71875 L11.421875,11.765625 L5.328125,11.765625 L5.515625,11.0625 L11.421875,11.0625 L11.421875,8.046875 L4.3125,8.046875 L4.515625,7.34375 L11.421875,7.34375 L11.421875,3.453125 C11.421875,3.09375 11.296875,2.96875 10.875,2.96875 C10.390625,2.96875 8.015625,3.140625 8.015625,3.140625 L8.015625,2.78125 C9.078125,2.65625 9.640625,2.46875 10.015625,2.234375 C10.3125,1.984375 10.4375,1.609375 10.484375,1.203125 C12.546875,1.421875 12.84375,2.234375 12.84375,3.390625 L12.84375,7.34375 L19.609375,7.34375 C19.9375,7.34375 20.15625,7.46875 20.234375,7.734375 C19.53125,8.375 18.40625,9.265625 18.40625,9.265625 Z" transform="translate(-0.0234375, 19.890625) scale(1, -1)"/>
</svg>