<svg height="21.59375" viewBox="0 0 24 21.59375" width="24" xmlns="http://www.w3.org/2000/svg">
<path d="M4.484375,16.515625 L4.21875,16.34375 C5.015625,15.578125 5.875,14.25 6.078125,13.21875 C7.421875,12.21875 8.609375,15.046875 4.484375,16.515625 Z M22.828125,19.890625 L1.21875,19.890625 L1.21875,-1.703125 L22.828125,-1.703125 Z M22.109375,19.171875 L22.109375,-0.984375 L1.9375,-0.984375 L1.9375,19.171875 Z M12.265625,15.34375 L11.515625,14.375 L11.0625,14.375 L11.0625,16.125 C11.59375,16.21875 11.8125,16.4375 11.859375,16.75 L9.703125,16.984375 L9.703125,14.375 L7.734375,14.375 L7.921875,13.6875 L9.359375,13.6875 C9.5,10.0625 9.40625,6.859375 7.796875,4.0625 L8.046875,3.71875 C9.703125,5.6875 10.375,8.015625 10.609375,10.796875 L11.765625,10.796875 C11.640625,7.015625 11.5,5.5 11.203125,5.109375 C11.140625,4.984375 11.0625,4.9375 10.921875,4.9375 C10.65625,4.9375 10.015625,4.984375 9.640625,5.015625 L9.640625,4.625 C10.015625,4.5625 10.421875,4.421875 10.609375,4.25 C10.78125,4.078125 10.890625,3.71875 10.890625,3.453125 C11.328125,3.484375 11.734375,3.625 12.09375,3.9375 C12.765625,4.609375 12.90625,6.3125 13.03125,10.6875 C13.46875,10.734375 13.75,10.84375 13.921875,11.015625 L12.3125,12.34375 L11.546875,11.5 L10.65625,11.5 C10.703125,12.1875 10.734375,12.90625 10.734375,13.6875 L13.078125,13.6875 C13.390625,13.6875 13.609375,13.796875 13.65625,14.0625 C13.125,14.609375 12.265625,15.34375 12.265625,15.34375 Z M16.875,16.3125 L14.6875,16.9375 C14.40625,15.234375 13.796875,13.65625 13.0625,12.59375 L13.421875,12.34375 C14.015625,12.765625 14.59375,13.375 15.046875,14.0625 L19.171875,14.0625 C19.484375,14.0625 19.703125,14.1875 19.78125,14.453125 C19.171875,15.078125 18.21875,15.84375 18.21875,15.84375 L17.375,14.78125 L15.5,14.78125 C15.703125,15.125 15.859375,15.484375 16.015625,15.84375 C16.515625,15.84375 16.78125,16.0625 16.875,16.3125 Z M18.453125,9.703125 L17.6875,8.6875 L17.0625,8.6875 L17.0625,9.859375 C17.59375,9.953125 17.828125,10.125 17.875,10.46875 L16.84375,10.578125 C17.515625,10.890625 18.21875,11.40625 18.703125,11.734375 C19.125,11.765625 19.421875,11.8125 19.609375,11.953125 L18.078125,13.421875 L17.25,12.578125 L13.921875,12.578125 L14.140625,11.875 L17.1875,11.875 C16.9375,11.453125 16.625,10.984375 16.3125,10.625 L15.71875,10.703125 L15.71875,8.6875 L13.296875,8.6875 L13.484375,7.984375 L15.71875,7.984375 L15.71875,5.546875 C15.71875,5.25 15.640625,5.140625 15.390625,5.140625 C15.125,5.140625 14.0625,5.234375 14.0625,5.234375 L14.0625,4.875 C14.609375,4.78125 14.90625,4.609375 15.09375,4.421875 C15.28125,4.171875 15.359375,3.8125 15.390625,3.4375 C16.875,3.59375 17.0625,4.25 17.0625,5.421875 L17.0625,7.984375 L19.34375,7.984375 C19.65625,7.984375 19.875,8.109375 19.9375,8.375 C19.375,8.953125 18.453125,9.703125 18.453125,9.703125 Z M7.125,4.265625 L7.125,9.03125 C7.796875,9.125 8.15625,9.3125 8.296875,9.484375 L6.359375,11.109375 L5.5,9.953125 L3.90625,9.953125 L4.0625,9.265625 L5.859375,9.265625 L5.859375,3.8125 C5.140625,3.34375 4.390625,2.875 3.859375,2.640625 L4.828125,1.0625 C5.015625,1.171875 5.09375,1.3125 5.046875,1.578125 C5.515625,2.140625 6.34375,3.078125 6.859375,3.8125 C8.140625,1.9375 9.671875,1.46875 12.84375,1.46875 C14.921875,1.46875 17.28125,1.46875 19.171875,1.46875 C19.25,2.0625 19.5625,2.46875 20.140625,2.546875 L20.140625,2.859375 C17.921875,2.8125 15.03125,2.8125 12.8125,2.8125 C9.890625,2.8125 8.421875,3 7.125,4.265625 Z" transform="translate(-0.0234375, 19.890625) scale(1, -1)"/>
</svg>