<svg height="21.765625" viewBox="0 0 24 21.765625" width="24" xmlns="http://www.w3.org/2000/svg">
<path d="M4.84375,17.015625 L4.609375,16.78125 C5.40625,16.34375 6.265625,15.5 6.484375,14.71875 C7.875,13.9375 8.65625,16.703125 4.84375,17.015625 Z M22.890625,0.984375 L22.890625,17.15625 L19.9375,19.96875 L19.46875,19.515625 L21.890625,16.796875 L21.890625,1.375 L19.46875,-1.34375 L19.9375,-1.796875 Z M1.15625,17.15625 L1.15625,0.984375 L4.109375,-1.796875 L4.578125,-1.34375 L2.15625,1.375 L2.15625,16.796875 L4.578125,19.515625 L4.109375,19.96875 Z M13.609375,16.9375 L11.453125,17.59375 C10.9375,15.4375 9.859375,13.203125 8.640625,11.921875 L8.96875,11.65625 C10.0625,12.359375 10.984375,13.390625 11.734375,14.546875 L13.015625,14.546875 C12.859375,12.09375 12.265625,9.90625 8.234375,8.140625 L8.546875,7.75 C12.71875,9.1875 13.890625,11.15625 14.28125,13.46875 C14.78125,10.96875 15.890625,8.859375 18.8125,7.6875 C18.953125,8.359375 19.34375,8.546875 20.015625,8.609375 L20.046875,8.90625 C16.375,10.03125 15.125,11.96875 14.59375,14.546875 L17.421875,14.546875 C17.140625,13.734375 16.703125,12.703125 16.375,12.078125 L16.734375,11.90625 C17.453125,12.53125 18.390625,13.625 18.890625,14.375 C19.3125,14.40625 19.625,14.421875 19.796875,14.59375 L18.234375,16.125 L17.40625,15.265625 L12.171875,15.265625 C12.390625,15.640625 12.578125,16.0625 12.75,16.46875 C13.25,16.4375 13.515625,16.65625 13.609375,16.9375 Z M12.890625,6.484375 L12.890625,2.5 L10.875,2.5 L10.875,6.484375 Z M14.15625,6.484375 L16.203125,6.484375 L16.203125,2.5 L14.15625,2.5 Z M5.046875,10.921875 C4.78125,10.921875 3.890625,10.921875 3.890625,10.921875 L3.890625,10.34375 C4.296875,10.3125 4.5625,10.25 4.890625,10.125 C5.359375,9.953125 5.46875,9.453125 5.28125,8.046875 C5.359375,7.6875 5.59375,7.46875 5.875,7.46875 C6.046875,7.46875 6.171875,7.484375 6.28125,7.53125 L6.28125,2.5 L3.90625,2.5 L4.109375,1.78125 L19.703125,1.78125 C20.015625,1.78125 20.234375,1.890625 20.296875,2.15625 C19.703125,2.78125 18.71875,3.640625 18.71875,3.640625 L17.859375,2.5 L17.5625,2.5 L17.5625,6.3125 C18.171875,6.359375 18.484375,6.5 18.640625,6.765625 L16.703125,8.1875 L15.9375,7.171875 L7.890625,7.171875 L6.59375,7.75 C6.75,7.921875 6.8125,8.140625 6.8125,8.40625 C6.8125,9.171875 6.4375,9.578125 6.4375,10.125 C6.4375,10.484375 6.625,10.9375 6.890625,11.421875 C7.21875,11.953125 9.09375,14.765625 9.765625,15.90625 L9.359375,16.109375 C6,11.734375 6,11.734375 5.5625,11.25 C5.328125,10.921875 5.25,10.921875 5.046875,10.921875 Z M9.578125,6.484375 L9.578125,2.5 L7.609375,2.5 L7.609375,6.484375 Z" transform="translate(-0.0234375, 19.96875) scale(1, -1)"/>
</svg>