<svg height="21.59375" viewBox="0 0 24 21.59375" width="24" xmlns="http://www.w3.org/2000/svg">
<path d="M9.953125,4.625 L8.0625,5.609375 C7.375,4.4375 5.875,2.921875 4.390625,2.0625 L4.65625,1.703125 C6.4375,2.328125 8.15625,3.4375 9.09375,4.421875 C9.625,4.3125 9.8125,4.390625 9.953125,4.625 Z M14.5,5.296875 L14.28125,5.015625 C15.671875,4.34375 17.546875,2.96875 18.234375,1.875 C19.84375,1.21875 20.15625,4.4375 14.5,5.296875 Z M16.46875,10.109375 L15.578125,9.078125 L6.28125,9.078125 L6.484375,8.359375 L17.46875,8.359375 C17.8125,8.359375 18.03125,8.46875 18.09375,8.734375 C17.453125,9.359375 16.46875,10.109375 16.46875,10.109375 Z M22.828125,19.890625 L1.21875,19.890625 L1.21875,-1.703125 L22.828125,-1.703125 Z M22.109375,19.171875 L22.109375,-0.984375 L1.9375,-0.984375 L1.9375,19.171875 Z M18.234375,15.859375 L17.375,14.765625 L16.015625,14.765625 L16.015625,16.015625 C16.609375,16.109375 16.84375,16.3125 16.921875,16.6875 L14.640625,16.890625 L14.640625,14.765625 L12,14.765625 L12.1875,14.0625 L14.046875,14.0625 C13.3125,12.671875 12.234375,11.453125 10.890625,10.46875 L11.140625,10.03125 C12.53125,10.734375 13.734375,11.59375 14.640625,12.640625 L14.640625,9.9375 L14.90625,9.9375 C15.4375,9.9375 16.015625,10.21875 16.015625,10.390625 L16.015625,13.4375 C16.734375,11.921875 17.71875,10.796875 18.8125,10.078125 C18.953125,10.65625 19.3125,10.96875 19.828125,11.046875 L19.84375,11.296875 C18.578125,11.8125 17.203125,12.75 16.34375,14.0625 L19.265625,14.0625 C19.609375,14.0625 19.828125,14.1875 19.875,14.453125 C19.25,15.078125 18.234375,15.859375 18.234375,15.859375 Z M10.3125,15.8125 L9.5,14.765625 L8.921875,14.765625 L8.921875,16.0625 C9.546875,16.15625 9.765625,16.390625 9.84375,16.734375 L7.625,16.96875 L7.625,14.765625 L4.46875,14.765625 L4.65625,14.0625 L7.109375,14.0625 C6.453125,12.640625 5.46875,11.359375 4.203125,10.3125 L4.484375,9.90625 C5.734375,10.609375 6.796875,11.5 7.625,12.5 L7.625,9.84375 L7.890625,9.84375 C8.375,9.84375 8.921875,10.125 8.921875,10.3125 L8.921875,13.0625 C9.578125,12.546875 10.25,11.859375 10.515625,11.28125 C11.71875,10.578125 12.5,12.859375 8.921875,13.53125 L8.921875,14.0625 L11.296875,14.0625 C11.609375,14.0625 11.828125,14.1875 11.90625,14.453125 C11.296875,15.03125 10.3125,15.8125 10.3125,15.8125 Z M18.03125,7.96875 L17.09375,6.84375 L4.515625,6.84375 L4.703125,6.140625 L11.46875,6.140625 L11.46875,3.171875 C11.46875,2.90625 11.40625,2.765625 11.0625,2.765625 C10.6875,2.765625 9.171875,2.875 9.171875,2.875 L9.171875,2.515625 C9.90625,2.421875 10.34375,2.28125 10.5625,2.09375 C10.796875,1.875 10.875,1.53125 10.890625,1.171875 C12.59375,1.34375 12.859375,2.046875 12.859375,3.140625 L12.859375,6.140625 L19.125,6.140625 C19.46875,6.140625 19.6875,6.265625 19.75,6.53125 C19.0625,7.15625 18.03125,7.96875 18.03125,7.96875 Z" transform="translate(-0.0234375, 19.890625) scale(1, -1)"/>
</svg>