<svg height="21.59375" viewBox="0 0 24 21.59375" width="24" xmlns="http://www.w3.org/2000/svg">
<path d="M22.828125,19.890625 L1.21875,19.890625 L1.21875,-1.703125 L22.828125,-1.703125 Z M22.109375,19.171875 L22.109375,-0.984375 L1.9375,-0.984375 L1.9375,19.171875 Z M17.09375,10.734375 L12.625,10.734375 L12.625,13.4375 L17.09375,13.4375 Z M17.09375,10.03125 L17.09375,7.25 L12.625,7.25 L12.625,10.03125 Z M7.0625,10.734375 L7.0625,13.4375 L11.203125,13.4375 L11.203125,10.734375 Z M7.0625,10.03125 L11.203125,10.03125 L11.203125,7.25 L7.0625,7.25 Z M13.515625,16.890625 L11.203125,17.15625 L11.203125,14.15625 L7.203125,14.15625 L5.6875,14.859375 L5.6875,4.84375 L5.921875,4.84375 C6.484375,4.84375 7.0625,5.1875 7.0625,5.328125 L7.0625,6.53125 L11.203125,6.53125 L11.203125,1.0625 L11.5,1.0625 C12.03125,1.0625 12.625,1.375 12.625,1.578125 L12.625,6.53125 L17.09375,6.53125 L17.09375,5.25 L17.296875,5.25 C17.765625,5.25 18.453125,5.5625 18.484375,5.734375 L18.484375,13.15625 C18.953125,13.25 19.375,13.46875 19.53125,13.65625 L17.6875,15.078125 L16.84375,14.15625 L12.625,14.15625 L12.625,16.25 C13.21875,16.3125 13.4375,16.5625 13.515625,16.890625 Z" transform="translate(-0.0234375, 19.890625) scale(1, -1)"/>
</svg>