<svg height="22.796875" viewBox="0 0 24 22.796875" width="24" xmlns="http://www.w3.org/2000/svg">
<path d="M12,20.546875 C5.765625,20.546875 0.59375,15.484375 0.59375,9.140625 C0.59375,2.859375 5.71875,-2.25 12,-2.25 C18.28125,-2.25 23.40625,2.859375 23.40625,9.140625 C23.40625,15.4375 18.28125,20.546875 12,20.546875 Z M12,-1.53125 C6.140625,-1.53125 1.3125,3.1875 1.3125,9.140625 C1.3125,15.046875 6.09375,19.828125 12,19.828125 C17.90625,19.828125 22.6875,15.046875 22.6875,9.140625 C22.6875,3.234375 17.90625,-1.53125 12,-1.53125 Z M11.203125,7.203125 L8.015625,7.203125 L8.015625,10.84375 L11.203125,10.84375 Z M6.671875,12.234375 L6.671875,4.6875 L6.859375,4.6875 C7.4375,4.6875 8.015625,4.984375 8.015625,5.140625 L8.015625,6.5 L11.203125,6.5 L11.203125,5.25 L11.40625,5.25 C11.859375,5.25 12.53125,5.5625 12.546875,5.71875 L12.546875,10.5625 C13.03125,10.65625 13.4375,10.875 13.609375,11.0625 L11.78125,12.453125 L10.96875,11.5625 L8.109375,11.5625 Z M17.40625,15.953125 L16.421875,14.734375 L4.6875,14.734375 L4.875,14.046875 L15.28125,14.046875 L15.28125,3.8125 C15.28125,3.53125 15.21875,3.390625 14.859375,3.390625 C14.46875,3.390625 12.703125,3.53125 12.703125,3.53125 L12.703125,3.140625 C13.53125,3.046875 13.96875,2.90625 14.25,2.65625 C14.5,2.453125 14.59375,2.046875 14.640625,1.65625 C16.421875,1.84375 16.65625,2.65625 16.65625,3.796875 L16.65625,14.046875 L18.59375,14.046875 C18.90625,14.046875 19.15625,14.15625 19.203125,14.421875 C18.53125,15.09375 17.40625,15.953125 17.40625,15.953125 Z" transform="translate(0, 20.546875) scale(1, -1)"/>
</svg>