<svg height="21.59375" viewBox="0 0 24 21.59375" width="24" xmlns="http://www.w3.org/2000/svg">
<path d="M9.140625,7.703125 L8.8125,7.578125 C9.234375,6.71875 9.765625,5.328125 9.84375,4.296875 C10.9375,3.21875 12.28125,5.546875 9.140625,7.703125 Z M12.125,4.796875 L12,4.421875 C14.515625,3.640625 16.46875,2.359375 17.28125,1.484375 C18.890625,0.984375 19.21875,4.296875 12.125,4.796875 Z M13.46875,7.921875 L13.265625,7.65625 C14.28125,7.203125 15.59375,6.28125 16.125,5.546875 C17.546875,5.046875 17.90625,7.75 13.46875,7.921875 Z M22.828125,19.890625 L1.21875,19.890625 L1.21875,-1.703125 L22.828125,-1.703125 Z M22.109375,19.171875 L22.109375,-0.984375 L1.9375,-0.984375 L1.9375,19.171875 Z M11.09375,14.46875 L9.078125,15.3125 C8.296875,13.6875 7.078125,11.453125 6.046875,9.8125 L4.109375,9.71875 L4.703125,8.09375 C4.921875,8.140625 5.15625,8.28125 5.28125,8.5625 L7.078125,8.96875 L7.078125,7.03125 L5.28125,7.515625 C5.046875,5.828125 4.609375,4.109375 4.0625,2.90625 L4.46875,2.6875 C5.28125,3.640625 5.953125,5.109375 6.40625,6.484375 C6.75,6.484375 6.984375,6.59375 7.078125,6.765625 L7.078125,1.03125 L7.265625,1.03125 C7.921875,1.03125 8.40625,1.390625 8.40625,1.515625 L8.40625,9.3125 L9.546875,9.578125 C9.71875,9.21875 9.859375,8.859375 9.90625,8.515625 C11.09375,7.578125 12.28125,9.984375 8.71875,11.5 L8.40625,11.328125 C8.71875,10.984375 9.03125,10.53125 9.3125,10.0625 L6.765625,9.859375 C7.984375,11.234375 9.28125,12.890625 10.125,14.109375 C10.625,14.046875 10.96875,14.203125 11.09375,14.46875 Z M9.046875,16.421875 L6.984375,17.203125 C6.578125,16.03125 6.09375,14.78125 5.71875,13.875 C5.359375,14.046875 4.921875,14.1875 4.375,14.296875 L4.109375,14.09375 C4.796875,13.578125 5.59375,12.640625 5.8125,11.828125 C6.796875,11.203125 7.609375,12.578125 6.21875,13.578125 C6.859375,14.25 7.5625,15.171875 8.15625,15.984375 C8.65625,15.9375 8.953125,16.15625 9.046875,16.421875 Z M15.71875,16.34375 L13.703125,17.15625 C12.90625,14.765625 11.609375,12.546875 10.265625,11.203125 L10.625,10.921875 C11.5,11.5 12.34375,12.265625 13.078125,13.203125 C13.46875,12.265625 13.96875,11.421875 14.5625,10.65625 C13.46875,9.4375 12.078125,8.359375 10.4375,7.5625 L10.65625,7.171875 C12.5,7.84375 14.015625,8.78125 15.265625,9.890625 C16.34375,8.734375 17.65625,7.828125 19.171875,7.125 C19.375,7.734375 19.75,8.109375 20.296875,8.15625 L20.328125,8.421875 C18.75,8.90625 17.28125,9.671875 16.0625,10.625 C17.046875,11.6875 17.78125,12.84375 18.359375,14.09375 C18.890625,14.109375 19.171875,14.15625 19.34375,14.375 L17.765625,15.796875 L16.828125,14.921875 L14.28125,14.921875 L14.828125,15.9375 C15.34375,15.890625 15.625,16.078125 15.71875,16.34375 Z M15.1875,11.40625 C14.5,12.09375 13.890625,12.859375 13.46875,13.703125 L13.828125,14.203125 L16.796875,14.203125 C16.390625,13.21875 15.859375,12.28125 15.1875,11.40625 Z" transform="translate(-0.0234375, 19.890625) scale(1, -1)"/>
</svg>