<svg height="21.59375" viewBox="0 0 24 21.59375" width="24" xmlns="http://www.w3.org/2000/svg">
<path d="M1.21875,-1.703125 L22.828125,-1.703125 L22.828125,19.890625 L1.21875,19.890625 Z M1.890625,-1.03125 L1.890625,19.21875 L22.15625,19.21875 L22.15625,-1.03125 Z M7.75,13.015625 L7.75,15.703125 L8.640625,15.703125 L8.640625,13.015625 Z M11.046875,17.6875 L10.03125,16.421875 L3.578125,16.421875 L3.765625,15.703125 L6.5,15.703125 L6.5,13.015625 L5.6875,13.015625 L4.265625,13.703125 L4.265625,1.4375 L4.484375,1.4375 C5.046875,1.4375 5.546875,1.75 5.546875,1.890625 L5.546875,3.046875 L10.734375,3.046875 L10.734375,1.890625 L10.921875,1.890625 C11.375,1.890625 12,2.234375 12.03125,2.40625 L12.03125,12.046875 C12.484375,12.140625 12.890625,12.34375 13.0625,12.53125 L11.28125,13.875 L10.515625,13.015625 L9.84375,13.015625 L9.84375,15.703125 L12.28125,15.703125 C12.625,15.703125 12.84375,15.8125 12.90625,16.078125 C12.1875,16.78125 11.046875,17.6875 11.046875,17.6875 Z M7.75,11.5625 L7.75,12.3125 L8.640625,12.3125 L8.640625,9 C8.640625,8.359375 8.8125,8.015625 9.546875,8.015625 L9.953125,8.015625 C10.265625,8.015625 10.53125,8.046875 10.734375,8.0625 L10.734375,6.234375 L5.546875,6.234375 L5.546875,7.21875 L5.65625,7.078125 C7.578125,8.359375 7.75,10.296875 7.75,11.5625 Z M6.640625,12.3125 L6.640625,11.59375 C6.640625,10.421875 6.59375,8.921875 5.546875,7.625 L5.546875,12.3125 Z M9.71875,12.3125 L10.734375,12.3125 L10.734375,9.125 L10.65625,9.125 C10.5625,9.078125 10.421875,9.046875 10.34375,9.046875 C10.296875,9.046875 10.25,9.046875 10.203125,9.046875 C10.125,9.046875 10.078125,9.046875 10.0625,9.046875 L9.859375,9.046875 C9.765625,9.046875 9.71875,9.125 9.71875,9.34375 Z M5.546875,3.75 L5.546875,5.515625 L10.734375,5.515625 L10.734375,3.75 Z M13.484375,11.734375 L13.484375,3.453125 C13.484375,2.421875 13.78125,2.09375 15.28125,2.09375 L17.09375,2.09375 C19.890625,2.09375 20.5625,2.359375 20.5625,2.96875 C20.5625,3.265625 20.453125,3.40625 19.984375,3.578125 L19.890625,6.453125 L19.578125,6.453125 C19.375,5.25 19.125,3.984375 18.953125,3.671875 C18.890625,3.453125 18.8125,3.40625 18.625,3.40625 C18.40625,3.390625 17.859375,3.390625 17.109375,3.390625 L15.578125,3.390625 C14.953125,3.390625 14.859375,3.453125 14.859375,3.765625 L14.859375,10.3125 L18,10.3125 L18,9.34375 L18.21875,9.34375 C18.640625,9.34375 19.3125,9.671875 19.34375,9.8125 L19.34375,15.21875 C19.890625,15.3125 20.359375,15.546875 20.515625,15.765625 L18.578125,17.234375 L17.734375,16.296875 L13.171875,16.296875 L13.390625,15.578125 L18,15.578125 L18,11.046875 L15.171875,11.046875 L13.484375,11.78125 Z" transform="translate(-0.0234375, 19.890625) scale(1, -1)"/>
</svg>