<svg height="21.765625" viewBox="0 0 24 21.765625" width="24" xmlns="http://www.w3.org/2000/svg">
<path d="M22.890625,0.984375 L22.890625,17.15625 L19.9375,19.96875 L19.46875,19.515625 L21.890625,16.796875 L21.890625,1.375 L19.46875,-1.34375 L19.9375,-1.796875 Z M1.15625,17.15625 L1.15625,0.984375 L4.109375,-1.796875 L4.578125,-1.34375 L2.15625,1.375 L2.15625,16.796875 L4.578125,19.515625 L4.109375,19.96875 Z M18.671875,16.65625 L17.734375,15.453125 L10.734375,15.453125 L10.921875,14.734375 L15.75,14.734375 L15.75,3.53125 C15.75,3.1875 15.640625,3.09375 15.234375,3.09375 C14.765625,3.09375 12.5,3.234375 12.5,3.234375 L12.5,2.875 C13.53125,2.765625 14.09375,2.5625 14.421875,2.328125 C14.71875,2.09375 14.859375,1.6875 14.875,1.25 C16.875,1.46875 17.140625,2.359375 17.140625,3.5 L17.140625,14.734375 L19.796875,14.734375 C20.140625,14.734375 20.359375,14.859375 20.421875,15.125 C19.75,15.796875 18.671875,16.65625 18.671875,16.65625 Z M9.953125,14.65625 L9.140625,13.578125 L8.46875,13.578125 L8.46875,16.609375 C9.046875,16.6875 9.265625,16.890625 9.34375,17.234375 L7.109375,17.5 L7.109375,13.578125 L4.203125,13.578125 L4.390625,12.890625 L7.109375,12.890625 L7.109375,9.21875 C5.71875,8.765625 4.578125,8.40625 3.9375,8.234375 L4.703125,6.484375 C4.921875,6.578125 5.09375,6.796875 5.1875,7.0625 L7.109375,8.015625 L7.109375,3.5 C7.109375,3.171875 7.015625,3.046875 6.640625,3.046875 C6.265625,3.046875 4.484375,3.1875 4.484375,3.1875 L4.484375,2.8125 C5.296875,2.71875 5.765625,2.546875 6.03125,2.28125 C6.3125,2.046875 6.390625,1.625 6.4375,1.21875 C8.28125,1.421875 8.46875,2.140625 8.46875,3.359375 L8.46875,8.71875 L11.78125,10.421875 L11.65625,10.78125 L8.46875,9.671875 L8.46875,12.890625 L10.921875,12.890625 C11.25,12.890625 11.46875,13.015625 11.515625,13.265625 C10.921875,13.875 9.953125,14.65625 9.953125,14.65625 Z" transform="translate(-0.0234375, 19.96875) scale(1, -1)"/>
</svg>