<svg height="24" viewBox="0 0 24 24" width="24" xmlns="http://www.w3.org/2000/svg">
<path d="M1.84375,11.5 L2.421875,11.40625 C2.71875,12.390625 2.96875,13.3125 3.140625,13.9375 C3.75,16.015625 4.265625,17.453125 4.265625,18.21875 C4.265625,18.890625 3.859375,19.296875 3.21875,19.296875 C2.828125,19.296875 2.5,19.171875 2.203125,18.953125 Z M6.125,11.5 L6.71875,11.40625 C6.984375,12.390625 7.265625,13.3125 7.421875,13.9375 C8.046875,16.015625 8.546875,17.453125 8.546875,18.21875 C8.546875,18.890625 8.15625,19.296875 7.484375,19.296875 C7.125,19.296875 6.796875,19.171875 6.484375,18.953125 Z" transform="translate(6.8046875, 19.296875) scale(1, -1)"/>
</svg>