<svg height="24" viewBox="0 0 24 24" width="24" xmlns="http://www.w3.org/2000/svg">
<path d="M1.296875,6.453125 Q1.375,7.15625 1.515625,7.875 Q1.65625,8.609375 1.96875,9.25 Q2.28125,9.890625 2.8125,10.265625 Q3.359375,10.65625 4.21875,10.65625 Q5.0625,10.65625 5.71875,10.25 Q6.390625,9.84375 7.21875,9.078125 Q7.734375,8.609375 8.203125,8.234375 Q8.6875,7.875 9.1875,7.875 Q9.859375,7.875 10.171875,8.609375 Q10.484375,9.34375 10.65625,10.65625 L12.09375,10.65625 Q12.03125,10.03125 11.875,9.3125 Q11.71875,8.59375 11.40625,7.9375 Q11.09375,7.296875 10.546875,6.875 Q10.015625,6.453125 9.171875,6.453125 Q8.328125,6.453125 7.640625,6.875 Q6.953125,7.3125 6.28125,7.96875 Q5.734375,8.515625 5.25,8.875 Q4.78125,9.234375 4.21875,9.234375 Q3.53125,9.234375 3.171875,8.546875 Q2.828125,7.875 2.71875,6.453125 Z" transform="translate(5.3046875, 10.65625) scale(1, -1)"/>
</svg>