<svg height="17.640625" viewBox="0 0 24 17.640625" width="24" xmlns="http://www.w3.org/2000/svg">
<path d="M9.171875,-0.234375 Q6.5,-0.234375 4.71875,0.84375 Q2.953125,1.921875 2.078125,3.90625 Q1.203125,5.90625 1.203125,8.59375 Q1.203125,11.1875 2.140625,13.171875 Q3.09375,15.171875 4.9375,16.28125 Q6.796875,17.40625 9.4375,17.40625 Q10.578125,17.40625 11.6875,17.25 Q12.8125,17.109375 13.96875,16.65625 L13.34375,15.3125 Q11.421875,16.125 9.390625,16.125 Q8.359375,16.125 7.453125,15.890625 Q6.546875,15.671875 5.8125,15.265625 L5.8125,1.78125 Q7.296875,1.03125 9.390625,1.03125 Q10.375,1.03125 11.421875,1.1875 Q12.484375,1.34375 13.484375,1.609375 L13.484375,0.1875 Q12.359375,-0.046875 11.328125,-0.140625 Q10.296875,-0.234375 9.171875,-0.234375 Z M4.53125,14.296875 Q2.546875,12.3125 2.546875,8.515625 Q2.546875,6.625 3.03125,5.140625 Q3.53125,3.671875 4.53125,2.6875 Z" transform="translate(4.4140625, 17.40625) scale(1, -1)"/>
</svg>