<svg height="18.46875" viewBox="0 0 24 18.46875" width="24" xmlns="http://www.w3.org/2000/svg">
<path d="M10.875,-0.234375 Q9.859375,-0.234375 9.265625,0.40625 Q8.6875,1.0625 8.6875,2.15625 Q8.6875,2.71875 8.796875,3.53125 Q8.90625,4.34375 9.140625,5.40625 L9.703125,7.890625 Q9.8125,8.375 9.875,8.78125 Q9.953125,9.1875 10,9.515625 Q10.0625,9.859375 10.0625,10.125 Q10.0625,10.828125 9.78125,11.1875 Q9.5,11.546875 8.953125,11.546875 Q8.28125,11.546875 7.578125,11.078125 Q6.890625,10.625 6.1875,9.71875 Q5.5,8.8125 5.046875,7.921875 Q4.609375,7.03125 4.421875,6.140625 L3.125,0 L0.890625,0 L4.015625,14.828125 Q4.125,15.359375 4.171875,15.6875 Q4.21875,16.015625 4.21875,16.109375 Q4.21875,16.65625 3.796875,16.9375 Q3.390625,17.234375 2.546875,17.234375 L2.359375,17.234375 L2.5625,18.234375 L6.984375,18.234375 L6.046875,13.828125 Q5.828125,12.84375 5.59375,11.84375 Q5.359375,10.84375 5.09375,9.84375 L5.359375,9.84375 Q6.03125,10.921875 6.734375,11.640625 Q7.4375,12.359375 8.203125,12.71875 Q8.96875,13.078125 9.796875,13.078125 Q11.0625,13.078125 11.703125,12.421875 Q12.359375,11.765625 12.359375,10.421875 Q12.359375,10.03125 12.25,9.375 Q12.140625,8.71875 11.921875,7.78125 L11.296875,4.9375 Q11.140625,4.21875 11.0625,3.59375 Q10.984375,2.96875 10.984375,2.421875 Q10.984375,1.84375 11.203125,1.546875 Q11.421875,1.265625 11.828125,1.265625 Q12.171875,1.265625 12.5625,1.40625 Q12.953125,1.5625 13.375,1.828125 L13.796875,1.125 Q13.03125,0.453125 12.296875,0.109375 Q11.5625,-0.234375 10.875,-0.234375 Z" transform="translate(4.65625, 18.234375) scale(1, -1)"/>
</svg>