<svg height="18.46875" viewBox="0 0 24 18.46875" width="24" xmlns="http://www.w3.org/2000/svg">
<path d="M10.875,-0.234375 Q9.859375,-0.234375 9.265625,0.40625 Q8.6875,1.0625 8.6875,2.15625 Q8.6875,2.71875 8.796875,3.53125 Q8.90625,4.34375 9.140625,5.40625 L9.703125,7.890625 Q9.859375,8.609375 9.953125,9.171875 Q10.0625,9.75 10.0625,10.125 Q10.0625,11.546875 8.953125,11.546875 Q7.578125,11.546875 6.1875,9.71875 Q4.828125,7.921875 4.421875,6.140625 L3.125,0 L0.890625,0 L4.015625,14.828125 Q4.21875,15.890625 4.21875,16.109375 Q4.21875,17.234375 2.546875,17.234375 L2.359375,17.234375 L2.5625,18.234375 L6.984375,18.234375 L6.046875,13.828125 Q5.828125,12.84375 5.59375,11.84375 Q5.359375,10.84375 5.09375,9.84375 L5.359375,9.84375 Q7.34375,13.078125 9.796875,13.078125 Q12.359375,13.078125 12.359375,10.421875 Q12.359375,9.640625 11.921875,7.78125 L11.296875,4.9375 Q11.140625,4.21875 11.0625,3.59375 Q10.984375,2.96875 10.984375,2.421875 Q10.984375,1.265625 11.828125,1.265625 Q12.53125,1.265625 13.375,1.828125 L13.796875,1.125 Q12.265625,-0.234375 10.875,-0.234375 Z" transform="translate(4.65625, 18.234375) scale(1, -1)"/>
</svg>