<svg height="24" viewBox="0 0 24 24" width="24" xmlns="http://www.w3.org/2000/svg">
<path d="M2.328125,0 L2.328125,17.140625 L8.546875,17.140625 Q11.609375,17.140625 13.046875,15.953125 Q14.5,14.765625 14.5,12.578125 Q14.5,10.984375 13.6875,9.875 Q12.890625,8.765625 11.421875,8.203125 L16.78125,0 L12.09375,0 L7.515625,7.609375 L6.484375,7.609375 L6.484375,0 Z M3.59375,1.265625 L5.203125,1.265625 L5.203125,15.859375 L3.59375,15.859375 Z M6.484375,8.875 L9.8125,8.875 L9.8125,15.859375 L6.484375,15.859375 Z M11.109375,9.28125 Q11.96875,9.703125 12.53125,10.421875 Q13.109375,11.140625 13.109375,12.578125 Q13.109375,13.890625 12.59375,14.578125 Q12.09375,15.265625 11.109375,15.578125 Z M12.75,1.25 L14.515625,1.25 L10.3125,7.84375 Q9.59375,7.703125 8.859375,7.65625 Z" transform="translate(2.4453125, 17.140625) scale(1, -1)"/>
</svg>