<svg height="17.46875" viewBox="0 0 24 17.46875" width="24" xmlns="http://www.w3.org/2000/svg">
<path d="M0.765625,12.140625 Q0.8125,12.359375 1.03125,12.9375 Q1.265625,13.53125 1.640625,14.265625 Q2.015625,15 2.515625,15.6875 Q3.03125,16.375 3.640625,16.828125 Q4.25,17.28125 4.9375,17.28125 Q5.5625,17.28125 6.28125,17.015625 Q7.015625,16.75 7.734375,16.40625 Q8.453125,16.0625 9.09375,15.796875 Q9.75,15.53125 10.203125,15.53125 Q10.625,15.53125 11.109375,15.796875 Q11.609375,16.078125 12.015625,16.40625 Q12.4375,16.734375 12.640625,16.875 L12.953125,16.4375 Q11.234375,15.125 10.296875,14.453125 Q9.359375,13.796875 9.03125,13.796875 Q8.8125,13.796875 8.296875,13.984375 Q7.796875,14.1875 7.140625,14.4375 Q6.5,14.6875 5.84375,14.875 Q5.203125,15.078125 4.703125,15.078125 Q3.84375,15.078125 3.125,14.53125 Q2.40625,13.984375 1.90625,13.25 Q1.421875,12.53125 1.21875,11.953125 Z M5.015625,-0.1875 Q4.625,-0.1875 4.078125,0.0625 Q3.53125,0.3125 3.03125,0.625 Q2.546875,0.953125 2.328125,1.15625 L1.15625,0.125 L0.765625,0.5 L3.265625,3.484375 Q3.359375,3.59375 3.46875,3.734375 Q3.59375,3.890625 3.671875,3.890625 Q3.75,3.890625 3.875,3.484375 Q4.015625,3.078125 4.265625,2.515625 Q4.53125,1.96875 4.96875,1.5625 Q5.421875,1.15625 6.140625,1.15625 Q7.34375,1.15625 7.96875,1.765625 Q8.59375,2.375 8.8125,3.375 Q9.03125,4.375 9.03125,5.5 Q9.03125,6.578125 8.90625,7.6875 Q8.78125,8.8125 8.640625,9.78125 Q8.515625,10.75 8.515625,11.375 Q8.515625,11.640625 8.953125,12.09375 Q9.390625,12.546875 10,13.046875 Q10.609375,13.5625 11.1875,13.984375 Q11.765625,14.40625 12.046875,14.59375 L12.34375,14.1875 Q11.515625,13.5625 11.109375,13.09375 Q10.703125,12.625 10.703125,12.21875 Q10.703125,12 10.796875,11.28125 Q10.890625,10.5625 11,9.609375 Q11.109375,8.65625 11.203125,7.703125 Q11.296875,6.765625 11.296875,6.09375 Q11.296875,5.1875 11.03125,4.359375 Q10.78125,3.546875 10.078125,2.75 Q9.390625,1.96875 8.09375,1.078125 Q7.21875,0.5 6.671875,0.21875 Q6.125,-0.046875 5.75,-0.109375 Q5.375,-0.1875 5.015625,-0.1875 Z" transform="translate(5.140625, 17.28125) scale(1, -1)"/>
</svg>