<svg height="17.609375" viewBox="0 0 24 17.609375" width="24" xmlns="http://www.w3.org/2000/svg">
<path d="M3.390625,-0.234375 Q2.5625,-0.234375 1.859375,0 Q1.15625,0.21875 0.703125,0.65625 Q0.265625,1.109375 0.265625,1.734375 Q0.265625,2.5625 1,2.953125 Q1.734375,3.34375 2.609375,3.34375 Q3.53125,3.34375 4.53125,2.953125 Q5.546875,2.5625 6.53125,2.0625 Q6.9375,2.6875 7.3125,3.546875 Q7.6875,4.421875 8.140625,5.453125 Q8.234375,5.6875 8.34375,5.90625 Q8.453125,6.140625 8.546875,6.390625 Q6.953125,6.453125 5.96875,6.953125 Q4.984375,7.46875 4.46875,8.171875 Q3.953125,8.875 3.765625,9.625 Q3.59375,10.375 3.59375,10.96875 Q3.59375,12.234375 4.21875,13.390625 Q4.84375,14.546875 5.9375,15.4375 Q7.03125,16.34375 8.4375,16.859375 Q9.84375,17.375 11.375,17.375 Q12.453125,17.375 13.53125,17.15625 L13.4375,16.734375 Q12.359375,16.9375 11.375,16.9375 Q9.984375,16.9375 8.796875,16.390625 Q7.609375,15.84375 6.734375,14.90625 Q5.859375,13.96875 5.375,12.78125 Q4.890625,11.609375 4.890625,10.34375 Q4.890625,9.28125 5.265625,8.609375 Q5.65625,7.9375 6.25,7.546875 Q6.859375,7.171875 7.515625,7.015625 Q8.1875,6.859375 8.734375,6.8125 Q9.390625,8.25 10.109375,9.75 Q10.84375,11.25 11.65625,12.609375 Q12.484375,13.96875 13.390625,15.046875 Q14.296875,16.125 15.296875,16.75 Q16.3125,17.375 17.40625,17.375 Q18.4375,17.375 18.890625,16.875 Q19.34375,16.375 19.34375,15.625 Q19.34375,14.765625 18.78125,13.515625 Q18.21875,12.28125 17.1875,10.984375 Q16.171875,9.703125 14.8125,8.59375 Q13.46875,7.484375 11.859375,6.890625 L11.40625,5.65625 Q10.796875,4.0625 9.9375,2.984375 Q9.09375,1.921875 8.140625,1.21875 Q8.921875,0.8125 9.640625,0.515625 Q10.375,0.234375 10.9375,0.234375 Q11.734375,0.234375 12.59375,0.6875 Q13.46875,1.15625 14.25,1.96875 Q15.046875,2.78125 15.625,3.859375 L16.03125,3.703125 Q16.03125,3.703125 15.796875,3.296875 Q15.578125,2.90625 15.125,2.3125 Q14.6875,1.734375 14.03125,1.140625 Q13.390625,0.546875 12.578125,0.15625 Q11.78125,-0.234375 10.796875,-0.234375 Q9.890625,-0.234375 9.0625,0.0625 Q8.234375,0.359375 7.46875,0.796875 Q6.4375,0.21875 5.390625,0 Q4.34375,-0.234375 3.390625,-0.234375 Z M12.078125,7.484375 Q13.65625,8.15625 15.09375,9.4375 Q15.84375,10.078125 16.59375,11.125 Q17.359375,12.171875 17.875,13.375 Q18.40625,14.59375 18.40625,15.75 Q18.40625,16.296875 18.109375,16.609375 Q17.8125,16.9375 17.359375,16.9375 Q16.46875,16.9375 15.75,16.125 Q15.03125,15.3125 14.421875,13.953125 Q13.828125,12.59375 13.25,10.90625 Q12.671875,9.21875 12.078125,7.484375 Z M3.265625,0.1875 Q4.3125,0.1875 5,0.53125 Q5.6875,0.890625 6.1875,1.5625 Q5.328125,2.09375 4.453125,2.5 Q3.578125,2.90625 2.59375,2.90625 Q1.9375,2.90625 1.3125,2.640625 Q0.703125,2.375 0.703125,1.734375 Q0.703125,1.203125 1.125,0.859375 Q1.5625,0.53125 2.171875,0.359375 Q2.78125,0.1875 3.265625,0.1875 Z" transform="translate(2.1953125, 17.375) scale(1, -1)"/>
</svg>