<svg height="17.609375" viewBox="0 0 24 17.609375" width="24" xmlns="http://www.w3.org/2000/svg">
<path d="M14.96875,-0.234375 Q14.234375,-0.234375 13.78125,0.046875 Q13.34375,0.34375 13.15625,0.75 Q12.984375,1.171875 12.984375,1.578125 Q12.984375,2.234375 13.265625,3.0625 Q13.5625,3.890625 13.953125,4.71875 Q14.359375,5.5625 14.640625,6.296875 Q14.921875,7.03125 14.921875,7.53125 Q14.921875,7.875 14.84375,8.0625 Q14.78125,8.25 14.734375,8.359375 Q14.71875,8.359375 14.5,8.296875 Q14.296875,8.25 14.046875,8.25 Q13.84375,8.25 13.53125,8.375 Q13.21875,8.515625 13.21875,8.828125 Q13.21875,9.171875 13.484375,9.234375 Q13.75,9.3125 13.921875,9.3125 Q14.1875,9.3125 14.46875,9.171875 Q14.765625,9.046875 15.03125,8.859375 Q15.3125,8.921875 15.859375,9.203125 Q16.421875,9.5 16.984375,10.046875 Q17.5625,10.609375 17.96875,11.40625 Q18.390625,12.21875 18.390625,13.296875 Q18.390625,15.546875 17.234375,16.3125 Q16.0625,15.703125 15.328125,14.765625 Q14.609375,13.828125 14.125,12.640625 Q13.65625,11.453125 13.25,10.046875 Q12.859375,8.640625 12.34375,7.078125 Q12.21875,6.703125 12.03125,6.203125 Q11.859375,5.71875 11.65625,5.296875 Q10.9375,3.765625 9.84375,2.515625 Q8.765625,1.265625 7.234375,0.515625 Q5.71875,-0.21875 3.671875,-0.21875 Q2.296875,-0.21875 1.515625,0.234375 Q0.75,0.703125 0.40625,1.328125 Q0.078125,1.96875 0,2.515625 Q-0.09375,3.078125 -0.09375,3.28125 Q-0.09375,4.25 0.484375,4.90625 Q1.078125,5.5625 1.890625,5.5625 Q2.765625,5.546875 3.078125,5.078125 Q3.40625,4.625 3.40625,4.265625 Q3.40625,3.5 3.015625,3.15625 Q2.640625,2.828125 2.109375,2.765625 Q1.84375,2.734375 1.53125,2.71875 Q1.21875,2.71875 1,2.578125 Q0.796875,2.453125 0.796875,2.0625 Q0.796875,1.96875 0.890625,1.671875 Q0.984375,1.375 1.25,1.03125 Q1.515625,0.703125 2.046875,0.453125 Q2.59375,0.21875 3.453125,0.21875 Q4.9375,0.21875 5.890625,1.015625 Q6.859375,1.828125 7.65625,3.328125 Q8.453125,4.828125 9.4375,6.9375 Q10.203125,8.546875 11.234375,10.359375 Q12.28125,12.1875 13.78125,14.015625 Q13.875,14.15625 14.234375,14.59375 Q14.609375,15.046875 15.234375,15.59375 Q15.859375,16.15625 16.6875,16.609375 Q16.171875,16.796875 15.515625,16.859375 Q14.875,16.9375 14.046875,16.9375 Q12.578125,16.9375 11.21875,16.65625 Q9.859375,16.375 8.765625,15.953125 Q7.6875,15.53125 7.015625,15.125 Q6.640625,14.90625 5.9375,14.375 Q5.234375,13.84375 4.46875,13.0625 Q3.703125,12.28125 3.15625,11.34375 Q2.609375,10.421875 2.609375,9.40625 Q2.609375,8.421875 3.046875,7.9375 Q3.484375,7.46875 4.125,7.46875 Q4.96875,7.46875 5.859375,8.015625 Q6.765625,8.5625 7.53125,9.546875 Q8.296875,10.53125 8.78125,11.84375 Q9.28125,13.15625 9.28125,14.65625 L9.640625,14.65625 Q9.765625,14.28125 9.859375,13.6875 Q9.953125,13.109375 9.953125,12.4375 Q9.953125,11.546875 9.578125,10.578125 Q9.21875,9.625 8.53125,8.78125 Q7.84375,7.9375 6.890625,7.421875 Q5.953125,6.90625 4.796875,6.90625 Q3.546875,6.90625 2.84375,7.53125 Q2.15625,8.15625 2.15625,9.40625 Q2.15625,10.4375 2.6875,11.40625 Q3.234375,12.390625 4.015625,13.21875 Q4.796875,14.046875 5.546875,14.625 Q6.3125,15.21875 6.765625,15.484375 Q8.109375,16.265625 9.984375,16.8125 Q11.859375,17.375 14.046875,17.375 Q15,17.375 15.796875,17.234375 Q16.609375,17.109375 17.28125,16.890625 Q17.90625,17.1875 18.53125,17.328125 L18.71875,16.921875 Q18.53125,16.875 18.34375,16.796875 Q18.171875,16.734375 17.96875,16.65625 Q19.34375,16.0625 20.015625,15.125 Q20.6875,14.1875 20.6875,13.203125 Q20.6875,11.65625 19.359375,10.40625 Q18.03125,9.171875 15.40625,8.546875 Q16.03125,8.0625 16.28125,7.546875 Q16.53125,7.03125 16.5625,6.625 Q16.609375,6.21875 16.609375,6.03125 Q16.609375,5.328125 16.3125,4.4375 Q16.015625,3.546875 15.703125,2.734375 Q15.40625,1.921875 15.40625,1.390625 Q15.40625,1.078125 15.53125,0.828125 Q15.671875,0.578125 15.90625,0.578125 Q16.203125,0.578125 16.59375,0.890625 Q16.984375,1.203125 17.40625,1.671875 Q17.828125,2.15625 18.203125,2.640625 Q18.59375,3.140625 18.859375,3.515625 Q19.125,3.90625 19.171875,4.015625 L19.5625,3.796875 Q19.390625,3.546875 18.953125,2.90625 Q18.53125,2.28125 17.90625,1.546875 Q17.296875,0.8125 16.546875,0.28125 Q15.8125,-0.234375 14.96875,-0.234375 Z" transform="translate(1.703125, 17.375) scale(1, -1)"/>
</svg>