<svg height="21.484375" viewBox="0 0 24 21.484375" width="24" xmlns="http://www.w3.org/2000/svg">
<path d="M8.953125,-0.234375 Q5.234375,-0.046875 3.34375,2.28125 Q1.46875,4.625 1.46875,8.609375 Q1.46875,11.25 2.359375,13.21875 Q3.265625,15.1875 5.03125,16.296875 Q6.796875,17.40625 9.40625,17.40625 Q11.96875,17.40625 13.71875,16.296875 Q15.484375,15.1875 16.375,13.203125 Q17.28125,11.234375 17.28125,8.59375 Q17.28125,5.453125 16.1875,3.484375 Q15.09375,1.53125 13.34375,0.625 L18.4375,-4.078125 L11.515625,-4.078125 Z M9.390625,0.90625 Q11.234375,0.90625 12.546875,1.5625 L12.546875,15.578125 Q11.875,15.90625 11.09375,16.078125 Q10.3125,16.25 9.40625,16.25 Q7.53125,16.25 6.1875,15.546875 L6.1875,1.578125 Q7.515625,0.90625 9.390625,0.90625 Z M13.828125,2.421875 Q14.90625,3.40625 15.453125,4.96875 Q16.015625,6.546875 16.015625,8.59375 Q16.015625,10.625 15.46875,12.1875 Q14.921875,13.75 13.828125,14.734375 Z M4.921875,14.6875 Q3.8125,13.703125 3.265625,12.140625 Q2.734375,10.578125 2.734375,8.59375 Q2.734375,6.578125 3.265625,5 Q3.8125,3.4375 4.921875,2.453125 Z M12.359375,-2.921875 L15.34375,-2.921875 L12.078125,0.09375 Q11.765625,0 11.28125,-0.078125 Q10.796875,-0.171875 10.4375,-0.1875 Z" transform="translate(2.046875, 17.40625) scale(1, -1)"/>
</svg>