<svg height="24" viewBox="0 0 24 24" width="24" xmlns="http://www.w3.org/2000/svg">
<path d="M4.078125,8.609375 Q2.71875,8.609375 1.953125,9.078125 Q1.203125,9.546875 1.203125,10.21875 Q1.203125,10.734375 1.5625,11.015625 Q1.921875,11.296875 2.421875,11.296875 Q2.421875,10.484375 2.84375,9.875 Q3.265625,9.28125 4.21875,9.28125 Q4.984375,9.28125 5.421875,9.671875 Q5.875,10.0625 5.875,10.734375 Q5.875,11.359375 5.421875,11.65625 Q4.96875,11.953125 3.84375,12.40625 Q2.734375,12.859375 2.046875,13.40625 Q1.375,13.96875 1.375,15.03125 Q1.375,16.15625 2.15625,16.734375 Q2.953125,17.328125 4.296875,17.328125 Q5.515625,17.328125 6.28125,16.890625 Q7.0625,16.46875 7.0625,15.84375 Q7.0625,15.390625 6.671875,15.171875 Q6.28125,14.953125 5.78125,14.953125 Q5.78125,15.53125 5.421875,16.09375 Q5.0625,16.65625 4.15625,16.65625 Q3.484375,16.65625 3.109375,16.28125 Q2.734375,15.90625 2.734375,15.28125 Q2.734375,14.640625 3.203125,14.34375 Q3.671875,14.046875 4.734375,13.625 Q5.921875,13.171875 6.609375,12.625 Q7.296875,12.078125 7.296875,11.015625 Q7.296875,9.890625 6.46875,9.25 Q5.640625,8.609375 4.078125,8.609375 Z M8.203125,8.828125 L8.203125,9.484375 L8.453125,9.484375 Q8.8125,9.484375 9.09375,9.609375 Q9.390625,9.75 9.390625,10.171875 L9.390625,15.765625 Q9.390625,16.21875 9.09375,16.34375 Q8.8125,16.46875 8.453125,16.46875 L8.203125,16.46875 L8.203125,17.140625 L10.96875,17.140625 L13.609375,10.484375 L16.3125,17.140625 L19.03125,17.140625 L19.03125,16.46875 L18.765625,16.46875 Q18.390625,16.46875 18.125,16.34375 Q17.859375,16.21875 17.859375,15.75 L17.859375,10.21875 Q17.859375,9.75 18.125,9.609375 Q18.390625,9.484375 18.765625,9.484375 L19.03125,9.484375 L19.03125,8.828125 L15.484375,8.828125 L15.484375,9.484375 Q15.890625,9.484375 16.15625,9.609375 Q16.421875,9.75 16.421875,10.15625 L16.421875,15.484375 L13.703125,8.828125 L12.859375,8.828125 L10.15625,15.5 L10.15625,10.21875 Q10.15625,9.75 10.40625,9.609375 Q10.65625,9.484375 11.109375,9.484375 L11.109375,8.828125 Z" transform="translate(1.8828125, 17.328125) scale(1, -1)"/>
</svg>