<svg height="21.171875" viewBox="0 0 24 21.171875" width="24" xmlns="http://www.w3.org/2000/svg">
<path d="M4.96875,-2.71875 Q4.4375,-2.71875 3.796875,-2.625 Q3.171875,-2.546875 2.609375,-2.296875 Q2.609375,-0.890625 2.515625,-0.3125 Q2.421875,0.265625 1.875,0.265625 Q1.53125,0.265625 1.21875,0.109375 Q0.90625,-0.046875 0.546875,-0.265625 L0.265625,0.1875 Q0.625,0.4375 1.15625,0.765625 Q1.6875,1.109375 2.34375,1.359375 Q3,1.609375 3.703125,1.609375 Q4.125,1.609375 4.453125,1.4375 Q4.78125,1.265625 4.78125,0.75 Q4.78125,0.390625 4.78125,0.015625 Q4.796875,-0.34375 4.828125,-0.765625 Q4.890625,-1.484375 5.234375,-1.65625 Q5.59375,-1.84375 6.125,-1.84375 Q7.265625,-1.84375 8.0625,-1.390625 Q8.875,-0.9375 9.359375,-0.171875 Q9.859375,0.59375 10.140625,1.5 Q10.421875,2.40625 10.515625,3.296875 Q10.609375,4.203125 10.609375,4.9375 Q10.609375,6.59375 9.578125,7.5 Q8.546875,8.40625 6.859375,8.40625 Q6.046875,8.40625 5.4375,8.203125 Q4.84375,8.015625 4.578125,7.875 L4.296875,8.1875 L5.421875,9.75 Q5.96875,9.765625 6.609375,10.078125 Q7.265625,10.390625 7.859375,10.921875 Q8.46875,11.453125 8.84375,12.140625 Q9.234375,12.84375 9.234375,13.625 Q9.234375,14.296875 8.78125,14.6875 Q8.328125,15.09375 6.9375,15.09375 Q6.640625,15.09375 6.0625,15.03125 Q5.5,14.96875 4.921875,14.921875 Q4.34375,14.875 4.03125,14.875 Q3.171875,14.875 2.765625,15.03125 Q2.375,15.1875 2.28125,15.40625 Q2.1875,15.640625 2.1875,15.859375 L3.984375,18.453125 L4.4375,18.171875 Q4.34375,18.046875 4.21875,17.84375 Q4.109375,17.640625 4.109375,17.453125 Q4.109375,17.203125 4.5625,17.03125 Q5.015625,16.875 6.140625,16.875 Q7.0625,16.875 7.625,16.953125 Q8.203125,17.046875 9,17.046875 Q10.171875,17.046875 10.75,16.53125 Q11.328125,16.03125 11.328125,14.828125 Q11.328125,13.890625 10.953125,13.109375 Q10.578125,12.34375 10.03125,11.71875 Q9.484375,11.109375 8.90625,10.65625 Q8.328125,10.21875 7.90625,9.984375 Q7.484375,9.75 7.390625,9.703125 Q7.53125,9.71875 7.84375,9.75 Q8.15625,9.796875 8.5,9.828125 Q8.859375,9.859375 9.046875,9.859375 Q10.203125,9.859375 10.9375,9.484375 Q11.6875,9.125 12.109375,8.546875 Q12.546875,7.984375 12.71875,7.390625 Q12.890625,6.796875 12.890625,6.3125 Q12.890625,3.640625 12.21875,1.890625 Q11.546875,0.140625 10.40625,-0.859375 Q9.28125,-1.875 7.859375,-2.296875 Q6.453125,-2.71875 4.96875,-2.71875 Z" transform="translate(5.421875, 18.453125) scale(1, -1)"/>
</svg>