<svg height="17.59375" viewBox="0 0 24 17.59375" width="24" xmlns="http://www.w3.org/2000/svg">
<path d="M3.671875,-0.21875 Q2.453125,-0.21875 1.734375,0.140625 Q1.015625,0.5 0.640625,1.046875 Q0.28125,1.609375 0.15625,2.203125 Q0.046875,2.8125 0.046875,3.28125 Q0.046875,4.25 0.625,4.90625 Q1.21875,5.5625 2.046875,5.5625 Q2.90625,5.546875 3.21875,5.078125 Q3.546875,4.625 3.546875,4.265625 Q3.546875,3.5 3.15625,3.15625 Q2.78125,2.828125 2.25,2.765625 Q1.984375,2.734375 1.671875,2.71875 Q1.375,2.71875 1.15625,2.578125 Q0.9375,2.453125 0.9375,2.0625 Q0.9375,1.96875 1,1.671875 Q1.078125,1.375 1.3125,1.03125 Q1.5625,0.703125 2.078125,0.453125 Q2.59375,0.21875 3.453125,0.21875 Q4.9375,0.21875 6,1.1875 Q7.078125,2.15625 7.984375,3.828125 Q8.90625,5.5 9.890625,7.609375 Q10.421875,8.6875 10.921875,9.6875 Q11.421875,10.6875 12.109375,11.75 Q12.796875,12.8125 13.78125,14.015625 Q13.875,14.15625 14.234375,14.59375 Q14.609375,15.046875 15.234375,15.59375 Q15.859375,16.15625 16.6875,16.609375 Q16.171875,16.796875 15.515625,16.859375 Q14.875,16.9375 14.046875,16.9375 Q12.578125,16.9375 11.21875,16.65625 Q9.859375,16.375 8.765625,15.953125 Q7.6875,15.53125 7.015625,15.125 Q6.640625,14.90625 6,14.46875 Q5.375,14.046875 4.6875,13.40625 Q4.015625,12.765625 3.546875,11.921875 Q3.078125,11.09375 3.078125,10.078125 Q3.078125,9.09375 3.5,8.609375 Q3.9375,8.140625 4.578125,8.140625 Q5.421875,8.140625 6.3125,8.6875 Q7.21875,9.234375 7.984375,10.21875 Q8.765625,11.203125 9.25,12.515625 Q9.75,13.828125 9.75,15.34375 L10.109375,15.34375 Q10.21875,14.953125 10.3125,14.359375 Q10.421875,13.78125 10.421875,13.109375 Q10.421875,12.21875 10.046875,11.25 Q9.671875,10.296875 8.984375,9.453125 Q8.296875,8.609375 7.34375,8.09375 Q6.40625,7.578125 5.25,7.578125 Q4.015625,7.578125 3.3125,8.203125 Q2.609375,8.828125 2.609375,10.078125 Q2.609375,11.109375 3.078125,11.984375 Q3.546875,12.859375 4.234375,13.546875 Q4.9375,14.25 5.625,14.734375 Q6.3125,15.21875 6.765625,15.484375 Q8.109375,16.265625 9.984375,16.8125 Q11.859375,17.375 14.046875,17.375 Q15,17.375 15.796875,17.234375 Q16.609375,17.109375 17.28125,16.890625 Q17.90625,17.1875 18.53125,17.328125 L18.71875,16.921875 Q18.53125,16.875 18.34375,16.796875 Q18.171875,16.734375 17.96875,16.65625 Q19.109375,16.171875 19.578125,15.390625 Q20.046875,14.609375 20.046875,13.625 Q20.046875,12.5 19.375,11.640625 Q18.71875,10.78125 17.75,10.15625 Q16.78125,9.53125 15.8125,9.09375 Q16.0625,9.03125 16.5,8.78125 Q16.9375,8.546875 17.390625,8.109375 Q17.859375,7.6875 18.171875,7 Q18.484375,6.3125 18.484375,5.328125 Q18.484375,4.390625 17.953125,3.421875 Q17.421875,2.453125 16.5625,1.625 Q15.703125,0.796875 14.71875,0.28125 Q13.734375,-0.21875 12.796875,-0.21875 Q12.09375,-0.21875 11.703125,0.078125 Q11.328125,0.390625 11.1875,0.8125 Q11.046875,1.25 11.046875,1.625 Q11.046875,1.875 11.171875,2.390625 Q11.296875,2.921875 11.84375,3.65625 Q12.390625,4.390625 13.5625,5.1875 L13.84375,4.78125 Q13.84375,4.78125 13.5,4.53125 Q13.15625,4.296875 12.703125,3.84375 Q12.265625,3.40625 11.90625,2.828125 Q11.5625,2.25 11.5625,1.609375 Q11.5625,0.9375 11.890625,0.640625 Q12.21875,0.34375 12.53125,0.34375 Q13.15625,0.34375 13.8125,1.015625 Q14.46875,1.703125 15.125,2.96875 Q15.546875,3.84375 15.828125,4.8125 Q16.109375,5.78125 16.109375,7.109375 Q16.109375,7.828125 15.953125,8.1875 Q15.8125,8.546875 15.625,8.6875 Q15.4375,8.828125 15.3125,8.875 Q15,8.71875 14.59375,8.640625 Q14.203125,8.5625 14.0625,8.5625 Q13.875,8.5625 13.625,8.625 Q13.390625,8.6875 13.390625,8.90625 Q13.390625,9.265625 13.78125,9.34375 Q14.1875,9.4375 14.375,9.4375 Q14.765625,9.4375 15.03125,9.390625 Q15.3125,9.34375 15.4375,9.28125 Q15.90625,9.5 16.5,10.1875 Q17.09375,10.890625 17.5,11.921875 Q17.921875,12.953125 17.921875,14.15625 Q17.921875,14.65625 17.8125,15.265625 Q17.71875,15.890625 17.234375,16.3125 Q16.0625,15.703125 15.328125,14.765625 Q14.609375,13.828125 14.125,12.640625 Q13.65625,11.453125 13.25,10.046875 Q12.859375,8.640625 12.34375,7.078125 Q12.21875,6.703125 12.03125,6.203125 Q11.859375,5.71875 11.65625,5.296875 Q10.9375,3.765625 9.84375,2.515625 Q8.765625,1.265625 7.234375,0.515625 Q5.71875,-0.21875 3.671875,-0.21875 Z" transform="translate(1.953125, 17.375) scale(1, -1)"/>
</svg>