<svg height="24" viewBox="0 0 24 24" width="24" xmlns="http://www.w3.org/2000/svg">
<path d="M0.90625,0 L0.90625,1.015625 L1.21875,1.015625 Q2.015625,1.015625 2.59375,1.28125 Q3.1875,1.5625 3.1875,2.609375 L3.1875,14.5 Q3.1875,15.546875 2.59375,15.828125 Q2.015625,16.125 1.21875,16.125 L0.90625,16.125 L0.90625,17.140625 L7.890625,17.140625 L7.890625,16.125 L7.578125,16.125 Q6.765625,16.125 6.1875,15.828125 Q5.609375,15.53125 5.609375,14.40625 L5.609375,7.625 L10.578125,13.3125 Q11.359375,14.203125 11.625,14.734375 Q11.90625,15.28125 11.90625,15.625 Q11.90625,15.9375 11.609375,16.046875 Q11.328125,16.15625 10.734375,16.15625 L10.734375,17.140625 L16.03125,17.140625 L16.03125,16.15625 Q15.21875,16.15625 14.484375,15.546875 Q13.75,14.953125 12.8125,13.890625 L9.34375,9.984375 L14.40625,2.921875 Q15.09375,1.984375 15.734375,1.5 Q16.375,1.015625 17.046875,1.015625 L17.09375,1.015625 L17.09375,0 L16.828125,0 Q15.625,0 14.84375,0.09375 Q14.0625,0.1875 13.546875,0.421875 Q13.03125,0.671875 12.625,1.09375 Q12.234375,1.515625 11.78125,2.15625 L7.65625,8.09375 L5.609375,6.078125 L5.609375,2.734375 Q5.609375,1.609375 6.1875,1.3125 Q6.765625,1.015625 7.578125,1.015625 L7.890625,1.015625 L7.890625,0 Z" transform="translate(3, 17.140625) scale(1, -1)"/>
</svg>