<svg height="13.09375" viewBox="0 0 24 13.09375" width="24" xmlns="http://www.w3.org/2000/svg">
<path d="M12.984375,-0.234375 Q11.546875,-0.234375 10.5625,0.59375 Q9.59375,1.421875 9.59375,2.828125 Q9.59375,3.3125 9.71875,3.9375 Q9.84375,4.578125 9.9375,5.109375 L11.359375,11.59375 L8.09375,11.59375 L5.640625,0 L1.484375,0 L3.9375,11.59375 L1.171875,11.59375 L1.265625,12.03125 L3.171875,12.859375 L18.359375,12.859375 L18.09375,11.59375 L15.5,11.59375 L14.09375,5.109375 Q13.984375,4.609375 13.921875,4.25 Q13.875,3.90625 13.875,3.640625 Q13.875,3.21875 14.15625,3.03125 Q14.453125,2.859375 14.859375,2.859375 Q15.484375,2.859375 16.03125,3.09375 L15.40625,0.125 Q14.953125,-0.046875 14.234375,-0.140625 Q13.515625,-0.234375 12.984375,-0.234375 Z M3,1.171875 L4.609375,1.171875 L6.8125,11.59375 L5.203125,11.59375 Z M13.15625,0.953125 Q13.484375,0.953125 13.84375,0.984375 Q14.203125,1.03125 14.453125,1.0625 L14.609375,1.9375 L14.515625,1.9375 Q13.34375,1.9375 12.96875,2.4375 Q12.59375,2.953125 12.59375,3.625 Q12.59375,4.171875 12.8125,5.109375 L14.203125,11.59375 L12.640625,11.59375 L11.203125,4.890625 Q11.109375,4.421875 11.015625,3.90625 Q10.921875,3.390625 10.921875,2.828125 Q10.921875,1.921875 11.53125,1.4375 Q12.140625,0.953125 13.15625,0.953125 Z" transform="translate(2.234375, 12.859375) scale(1, -1)"/>
</svg>