<svg height="24" viewBox="0 0 24 24" width="24" xmlns="http://www.w3.org/2000/svg">
<path d="M0.703125,17.28125 L1.75,17.15625 C1.78125,14.6875 1.78125,12.171875 1.78125,9.640625 L1.78125,8.28125 C1.78125,5.765625 1.78125,3.234375 1.75,0.765625 L0.703125,0.671875 L0.703125,0 L4.65625,0 L4.65625,0.671875 L3.34375,0.765625 C3.28125,3.1875 3.28125,5.6875 3.28125,8.609375 L4.875,8.609375 L5.15625,6.078125 L5.828125,6.078125 L5.828125,11.875 L5.15625,11.875 L4.875,9.359375 L3.28125,9.359375 C3.28125,12.1875 3.28125,14.765625 3.34375,17.234375 L5.71875,17.234375 L6.171875,13.4375 L7.03125,13.4375 L6.859375,17.921875 L0.703125,17.921875 Z M10.921875,15.03125 L12.125,6.84375 L9.71875,6.84375 Z M11.734375,0 L15.5,0 L15.5,0.671875 L14.65625,0.765625 L11.765625,17.921875 L10.796875,17.921875 L8.09375,0.765625 L7.3125,0.671875 L7.3125,0 L10.015625,0 L10.015625,0.671875 L8.859375,0.765625 L9.625,6.09375 L12.21875,6.09375 L13.015625,0.796875 L11.734375,0.671875 Z M20.96875,17.25 L21.984375,17.140625 L20.296875,10.6875 L18.59375,17.140625 L19.609375,17.25 L19.609375,17.921875 L16.109375,17.921875 L16.109375,17.25 L17.046875,17.140625 L19.3125,8.6875 L16.9375,0.796875 L15.953125,0.671875 L15.953125,0 L18.8125,0 L18.8125,0.671875 L17.734375,0.796875 L19.578125,7.734375 L21.40625,0.796875 L20.421875,0.671875 L20.421875,0 L23.875,0 L23.875,0.671875 L22.96875,0.796875 L20.5625,9.71875 L22.796875,17.140625 L23.765625,17.25 L23.765625,17.921875 L20.96875,17.921875 Z" transform="translate(-0.2890625, 17.921875) scale(1, -1)"/>
</svg>