<svg height="24" viewBox="0 0 24 24" width="24" xmlns="http://www.w3.org/2000/svg">
<path d="M0.859375,0 L4.484375,17.140625 L10.5625,17.140625 Q13.65625,17.140625 15.40625,15.453125 Q17.15625,13.78125 17.15625,10.296875 Q17.15625,7.3125 15.984375,4.984375 Q14.828125,2.65625 12.578125,1.328125 Q10.34375,0 7.109375,0 Z M2.40625,1.265625 L4.015625,1.265625 L7.109375,15.859375 L5.5,15.859375 Z M7.296875,1.265625 Q9.484375,1.265625 11.1875,2.09375 L13.890625,15.03125 Q12.71875,15.859375 10.921875,15.859375 L8.375,15.859375 L5.28125,1.265625 Z M12.625,3 Q14.1875,4.21875 14.96875,6.140625 Q15.765625,8.0625 15.765625,10.3125 Q15.765625,12.625 14.875,13.96875 Z" transform="translate(2.9921875, 17.140625) scale(1, -1)"/>
</svg>