<svg height="24" viewBox="0 0 24 24" width="24" xmlns="http://www.w3.org/2000/svg">
<path d="M5.953125,14.203125 Q5.140625,14.203125 4.59375,14.65625 Q4.0625,15.125 4.0625,16.015625 Q4.0625,17.015625 4.65625,17.734375 Q5.25,18.453125 6.390625,18.453125 Q8.203125,18.453125 8.203125,16.75 Q8.203125,15.53125 7.5,14.859375 Q6.796875,14.203125 5.953125,14.203125 Z M6.046875,15.40625 Q6.40625,15.40625 6.703125,15.6875 Q7.015625,15.984375 7.015625,16.515625 Q7.015625,17.25 6.234375,17.25 Q5.765625,17.25 5.5,16.921875 Q5.25,16.609375 5.25,16.203125 Q5.25,15.8125 5.484375,15.609375 Q5.71875,15.40625 6.046875,15.40625 Z M0.765625,0 L3.484375,12.859375 L7.65625,12.859375 L4.921875,0 Z M2.28125,1.171875 L3.890625,1.171875 L6.09375,11.59375 L4.484375,11.59375 Z" transform="translate(7.515625, 18.453125) scale(1, -1)"/>
</svg>