<svg height="17.296875" viewBox="0 0 24 17.296875" width="24" xmlns="http://www.w3.org/2000/svg">
<path d="M3.28125,6.875 L7.25,15.625 L3.140625,15.625 Q2.421875,15.625 2.34375,14.921875 L2.25,14.15625 L1.390625,14.15625 L1.453125,17.125 L8.640625,17.125 L8.640625,15.984375 L4.84375,6.875 Z M3.84375,0 L12.40625,17.140625 L13.96875,17.140625 L5.421875,0 Z M14.875,-0.15625 Q12.984375,-0.15625 12.03125,0.65625 Q11.078125,1.46875 11.078125,2.640625 Q11.078125,3.625 11.765625,4.15625 Q12.453125,4.703125 13.484375,5.09375 Q12.671875,5.5 12.03125,6.1875 Q11.390625,6.875 11.390625,7.90625 Q11.390625,8.53125 11.75,9.125 Q12.109375,9.734375 12.90625,10.109375 Q13.71875,10.5 15.046875,10.5 Q16.609375,10.5 17.5,9.84375 Q18.40625,9.203125 18.40625,8.078125 Q18.40625,7.1875 17.796875,6.609375 Q17.1875,6.03125 16.34375,5.671875 Q17.515625,5.140625 18.171875,4.5 Q18.84375,3.875 18.84375,2.75 Q18.84375,1.515625 17.859375,0.671875 Q16.875,-0.15625 14.875,-0.15625 Z M15.359375,6.15625 Q15.859375,6.421875 16.15625,6.875 Q16.46875,7.328125 16.46875,8.015625 Q16.46875,8.59375 16.09375,9.078125 Q15.71875,9.5625 14.953125,9.5625 Q14.234375,9.5625 13.859375,9.15625 Q13.484375,8.75 13.484375,8.140625 Q13.484375,7.34375 14.0625,6.875 Q14.65625,6.421875 15.359375,6.15625 Z M15.046875,0.78125 Q15.859375,0.78125 16.34375,1.203125 Q16.828125,1.640625 16.828125,2.375 Q16.828125,3.15625 16.21875,3.671875 Q15.625,4.1875 14.4375,4.640625 Q13.921875,4.328125 13.546875,3.78125 Q13.171875,3.25 13.171875,2.546875 Q13.171875,1.828125 13.65625,1.296875 Q14.140625,0.78125 15.046875,0.78125 Z" transform="translate(1.8828125, 17.140625) scale(1, -1)"/>
</svg>