<svg height="17.296875" viewBox="0 0 24 17.296875" width="24" xmlns="http://www.w3.org/2000/svg">
<path d="M4.421875,6.71875 Q3.125,6.71875 2.375,6.984375 Q1.625,7.265625 1.328125,7.6875 Q1.03125,8.109375 1.03125,8.5625 Q1.03125,9.015625 1.359375,9.390625 Q1.6875,9.765625 2.453125,9.765625 Q2.453125,8.953125 3,8.359375 Q3.546875,7.765625 4.46875,7.765625 Q5.375,7.765625 5.890625,8.296875 Q6.40625,8.828125 6.40625,10.09375 Q6.40625,11.078125 5.84375,11.578125 Q5.28125,12.09375 4.21875,12.09375 Q3.484375,12.09375 2.96875,11.9375 Q2.46875,11.796875 2.140625,11.65625 L1.4375,11.828125 L1.875,17.125 L7.828125,17.125 L7.890625,14.578125 L7.078125,14.578125 L6.984375,15.015625 Q6.90625,15.328125 6.765625,15.46875 Q6.625,15.625 6.078125,15.625 L2.78125,15.625 L2.515625,12.734375 Q2.828125,12.859375 3.359375,12.96875 Q3.90625,13.078125 4.65625,13.078125 Q6.53125,13.078125 7.5625,12.3125 Q8.59375,11.5625 8.59375,10.03125 Q8.59375,8.53125 7.515625,7.625 Q6.453125,6.71875 4.421875,6.71875 Z M5.03125,0 L13.59375,17.140625 L15.15625,17.140625 L6.609375,0 Z M15.140625,-0.15625 Q14.0625,-0.15625 13.171875,0.375 Q12.28125,0.921875 11.765625,2.109375 Q11.25,3.296875 11.25,5.21875 Q11.25,6.609375 11.71875,7.796875 Q12.1875,9 13.140625,9.75 Q14.109375,10.5 15.578125,10.5 Q17.203125,10.5 17.8125,9.96875 Q18.421875,9.4375 18.421875,8.84375 Q18.421875,8.375 17.96875,8 Q17.515625,7.640625 16.671875,7.640625 Q16.671875,8.328125 16.421875,8.90625 Q16.171875,9.484375 15.484375,9.484375 Q14.59375,9.484375 14.0625,8.71875 Q13.53125,7.953125 13.40625,5.953125 Q13.765625,6.15625 14.265625,6.296875 Q14.78125,6.4375 15.359375,6.4375 Q16.890625,6.4375 17.828125,5.625 Q18.765625,4.8125 18.765625,3.359375 Q18.765625,1.828125 17.8125,0.828125 Q16.875,-0.15625 15.140625,-0.15625 Z M15.1875,0.84375 Q15.890625,0.84375 16.296875,1.4375 Q16.703125,2.046875 16.703125,3.21875 Q16.703125,4.34375 16.25,4.90625 Q15.8125,5.484375 15.046875,5.484375 Q14.59375,5.484375 14.109375,5.28125 Q13.625,5.09375 13.359375,4.828125 Q13.4375,2.640625 13.90625,1.734375 Q14.390625,0.84375 15.1875,0.84375 Z" transform="translate(2.1015625, 17.140625) scale(1, -1)"/>
</svg>