<svg height="17.53125" viewBox="0 0 24 17.53125" width="24" xmlns="http://www.w3.org/2000/svg">
<path d="M4.171875,6.71875 Q2.609375,6.71875 1.78125,7.25 Q0.953125,7.796875 0.953125,8.6875 Q0.953125,9.203125 1.25,9.53125 Q1.5625,9.859375 2.0625,9.859375 Q2.0625,9.109375 2.5625,8.453125 Q3.078125,7.796875 4.109375,7.796875 Q5.09375,7.796875 5.65625,8.28125 Q6.234375,8.78125 6.234375,9.875 Q6.234375,10.71875 5.625,11.21875 Q5.015625,11.734375 3.703125,11.734375 L2.90625,11.734375 L2.90625,12.71875 L3.703125,12.71875 Q4.609375,12.71875 5.21875,13.265625 Q5.828125,13.8125 5.828125,14.78125 Q5.828125,15.5625 5.515625,15.984375 Q5.203125,16.40625 4.46875,16.40625 Q3.546875,16.40625 3.203125,15.78125 Q2.875,15.15625 2.875,14.328125 Q2.0625,14.328125 1.578125,14.53125 Q1.109375,14.734375 1.109375,15.359375 Q1.109375,16.21875 1.96875,16.796875 Q2.828125,17.375 4.46875,17.375 Q6.078125,17.375 7.046875,16.75 Q8.015625,16.125 8.015625,15 Q8.015625,13.96875 7.28125,13.328125 Q6.546875,12.6875 5.5625,12.40625 L5.5625,12.28125 Q6.21875,12.1875 6.875,11.9375 Q7.53125,11.703125 7.96875,11.21875 Q8.421875,10.75 8.421875,9.859375 Q8.421875,8.6875 7.765625,8 Q7.109375,7.3125 6.125,7.015625 Q5.140625,6.71875 4.171875,6.71875 Z M4.828125,0 L13.390625,17.140625 L14.953125,17.140625 L6.40625,0 Z M14.9375,-0.15625 Q13.640625,-0.15625 12.890625,0.109375 Q12.140625,0.390625 11.84375,0.8125 Q11.546875,1.234375 11.546875,1.6875 Q11.546875,2.140625 11.875,2.515625 Q12.203125,2.890625 12.96875,2.890625 Q12.96875,2.078125 13.515625,1.484375 Q14.0625,0.890625 14.984375,0.890625 Q15.890625,0.890625 16.40625,1.421875 Q16.921875,1.953125 16.921875,3.21875 Q16.921875,4.203125 16.359375,4.703125 Q15.796875,5.21875 14.734375,5.21875 Q14,5.21875 13.484375,5.0625 Q12.984375,4.921875 12.65625,4.78125 L11.953125,4.953125 L12.390625,10.25 L18.34375,10.25 L18.40625,7.703125 L17.59375,7.703125 L17.5,8.140625 Q17.421875,8.453125 17.28125,8.59375 Q17.140625,8.75 16.59375,8.75 L13.296875,8.75 L13.03125,5.859375 Q13.34375,5.984375 13.875,6.09375 Q14.421875,6.203125 15.171875,6.203125 Q17.046875,6.203125 18.078125,5.4375 Q19.109375,4.6875 19.109375,3.15625 Q19.109375,1.65625 18.03125,0.75 Q16.96875,-0.15625 14.9375,-0.15625 Z" transform="translate(1.96875, 17.375) scale(1, -1)"/>
</svg>