<svg height="17.546875" viewBox="0 0 24 17.546875" width="24" xmlns="http://www.w3.org/2000/svg">
<path d="M1.015625,6.875 L1.015625,7.96875 L4.0625,10.703125 Q5.109375,11.65625 5.515625,12.65625 Q5.921875,13.65625 5.921875,14.609375 Q5.921875,15.40625 5.59375,15.921875 Q5.28125,16.4375 4.515625,16.4375 Q3.625,16.4375 3.265625,15.8125 Q2.921875,15.1875 2.921875,14.34375 Q2.109375,14.34375 1.65625,14.546875 Q1.203125,14.75 1.203125,15.375 Q1.203125,16.234375 2.03125,16.8125 Q2.875,17.390625 4.515625,17.390625 Q6.1875,17.390625 7.140625,16.734375 Q8.09375,16.078125 8.09375,14.796875 Q8.09375,14.0625 7.84375,13.40625 Q7.609375,12.765625 7.046875,12.09375 Q6.484375,11.4375 5.46875,10.578125 L2.921875,8.390625 L6.40625,8.390625 Q6.953125,8.390625 7.171875,8.6875 Q7.390625,9 7.46875,9.375 L7.5625,9.875 L8.375,9.875 L8.296875,6.875 Z M5.796875,0 L14.359375,17.140625 L15.921875,17.140625 L7.375,0 Z M15.890625,-0.15625 Q14.59375,-0.15625 13.84375,0.109375 Q13.09375,0.390625 12.796875,0.8125 Q12.5,1.234375 12.5,1.6875 Q12.5,2.140625 12.828125,2.515625 Q13.15625,2.890625 13.921875,2.890625 Q13.921875,2.078125 14.46875,1.484375 Q15.015625,0.890625 15.9375,0.890625 Q16.84375,0.890625 17.359375,1.421875 Q17.875,1.953125 17.875,3.21875 Q17.875,4.203125 17.3125,4.703125 Q16.75,5.21875 15.6875,5.21875 Q14.953125,5.21875 14.4375,5.0625 Q13.9375,4.921875 13.609375,4.78125 L12.90625,4.953125 L13.34375,10.25 L19.296875,10.25 L19.359375,7.703125 L18.546875,7.703125 L18.453125,8.140625 Q18.375,8.453125 18.234375,8.59375 Q18.09375,8.75 17.546875,8.75 L14.25,8.75 L13.984375,5.859375 Q14.296875,5.984375 14.828125,6.09375 Q15.375,6.203125 16.125,6.203125 Q18,6.203125 19.03125,5.4375 Q20.0625,4.6875 20.0625,3.15625 Q20.0625,1.65625 18.984375,0.75 Q17.921875,-0.15625 15.890625,-0.15625 Z" transform="translate(1.4609375, 17.390625) scale(1, -1)"/>
</svg>