<svg height="17.53125" viewBox="0 0 24 17.53125" width="24" xmlns="http://www.w3.org/2000/svg">
<path d="M4.3125,6.71875 Q2.75,6.71875 1.921875,7.25 Q1.09375,7.796875 1.09375,8.6875 Q1.09375,9.203125 1.390625,9.53125 Q1.703125,9.859375 2.203125,9.859375 Q2.203125,9.109375 2.703125,8.453125 Q3.21875,7.796875 4.25,7.796875 Q5.234375,7.796875 5.796875,8.28125 Q6.375,8.78125 6.375,9.875 Q6.375,10.71875 5.765625,11.21875 Q5.15625,11.734375 3.84375,11.734375 L3.046875,11.734375 L3.046875,12.71875 L3.84375,12.71875 Q4.75,12.71875 5.359375,13.265625 Q5.96875,13.8125 5.96875,14.78125 Q5.96875,15.5625 5.65625,15.984375 Q5.34375,16.40625 4.609375,16.40625 Q3.6875,16.40625 3.34375,15.78125 Q3.015625,15.15625 3.015625,14.328125 Q2.203125,14.328125 1.71875,14.53125 Q1.25,14.734375 1.25,15.359375 Q1.25,16.21875 2.109375,16.796875 Q2.96875,17.375 4.609375,17.375 Q6.21875,17.375 7.1875,16.75 Q8.15625,16.125 8.15625,15 Q8.15625,13.96875 7.421875,13.328125 Q6.6875,12.6875 5.703125,12.40625 L5.703125,12.28125 Q6.359375,12.1875 7.015625,11.9375 Q7.671875,11.703125 8.109375,11.21875 Q8.5625,10.75 8.5625,9.859375 Q8.5625,8.6875 7.90625,8 Q7.25,7.3125 6.265625,7.015625 Q5.28125,6.71875 4.3125,6.71875 Z M4.8125,0 L13.375,17.140625 L14.9375,17.140625 L6.390625,0 Z M14.875,-0.15625 Q12.984375,-0.15625 12.03125,0.65625 Q11.078125,1.46875 11.078125,2.640625 Q11.078125,3.625 11.765625,4.15625 Q12.453125,4.703125 13.484375,5.09375 Q12.671875,5.5 12.03125,6.1875 Q11.390625,6.875 11.390625,7.90625 Q11.390625,8.53125 11.75,9.125 Q12.109375,9.734375 12.90625,10.109375 Q13.71875,10.5 15.046875,10.5 Q16.609375,10.5 17.5,9.84375 Q18.40625,9.203125 18.40625,8.078125 Q18.40625,7.1875 17.796875,6.609375 Q17.1875,6.03125 16.34375,5.671875 Q17.515625,5.140625 18.171875,4.5 Q18.84375,3.875 18.84375,2.75 Q18.84375,1.515625 17.859375,0.671875 Q16.875,-0.15625 14.875,-0.15625 Z M15.359375,6.15625 Q15.859375,6.421875 16.15625,6.875 Q16.46875,7.328125 16.46875,8.015625 Q16.46875,8.59375 16.09375,9.078125 Q15.71875,9.5625 14.953125,9.5625 Q14.234375,9.5625 13.859375,9.15625 Q13.484375,8.75 13.484375,8.140625 Q13.484375,7.34375 14.0625,6.875 Q14.65625,6.421875 15.359375,6.15625 Z M15.046875,0.78125 Q15.859375,0.78125 16.34375,1.203125 Q16.828125,1.640625 16.828125,2.375 Q16.828125,3.15625 16.21875,3.671875 Q15.625,4.1875 14.4375,4.640625 Q13.921875,4.328125 13.546875,3.78125 Q13.171875,3.25 13.171875,2.546875 Q13.171875,1.828125 13.65625,1.296875 Q14.140625,0.78125 15.046875,0.78125 Z" transform="translate(2.03125, 17.375) scale(1, -1)"/>
</svg>