<svg height="24" viewBox="0 0 24 24" width="24" xmlns="http://www.w3.org/2000/svg">
<path d="M1.484375,6.875 L1.484375,7.703125 L2.8125,7.703125 Q3.21875,7.703125 3.5,7.859375 Q3.796875,8.015625 3.796875,8.609375 L3.796875,15.515625 Q3.078125,14.875 2.734375,14.671875 Q2.40625,14.46875 1.875,14.46875 Q1.484375,14.46875 1.25,14.734375 Q1.015625,15.015625 1.015625,15.453125 Q1.375,15.515625 1.734375,15.578125 Q2.09375,15.640625 2.71875,15.953125 Q3.34375,16.265625 4.46875,17.03125 L4.75,17.25 L5.953125,17.25 L5.953125,8.609375 Q5.953125,8.015625 6.25,7.859375 Q6.546875,7.703125 6.953125,7.703125 L8.0625,7.703125 L8.0625,6.875 Z M5.546875,0 L14.109375,17.140625 L15.671875,17.140625 L7.125,0 Z M14.875,0 L18.84375,8.75 L14.734375,8.75 Q14.015625,8.75 13.9375,8.046875 L13.84375,7.28125 L12.984375,7.28125 L13.046875,10.25 L20.234375,10.25 L20.234375,9.109375 L16.4375,0 Z" transform="translate(1.375, 17.25) scale(1, -1)"/>
</svg>