<svg height="17.40625" viewBox="0 0 24 17.40625" width="24" xmlns="http://www.w3.org/2000/svg">
<path d="M1.484375,6.875 L1.484375,7.703125 L2.8125,7.703125 Q3.21875,7.703125 3.5,7.859375 Q3.796875,8.015625 3.796875,8.609375 L3.796875,15.515625 Q3.078125,14.875 2.734375,14.671875 Q2.40625,14.46875 1.875,14.46875 Q1.484375,14.46875 1.25,14.734375 Q1.015625,15.015625 1.015625,15.453125 Q1.375,15.515625 1.734375,15.578125 Q2.09375,15.640625 2.71875,15.953125 Q3.34375,16.265625 4.46875,17.03125 L4.75,17.25 L5.953125,17.25 L5.953125,8.609375 Q5.953125,8.015625 6.25,7.859375 Q6.546875,7.703125 6.953125,7.703125 L8.0625,7.703125 L8.0625,6.875 Z M5.546875,0 L14.109375,17.140625 L15.671875,17.140625 L7.125,0 Z M15.65625,-0.15625 Q14.359375,-0.15625 13.609375,0.109375 Q12.859375,0.390625 12.5625,0.8125 Q12.265625,1.234375 12.265625,1.6875 Q12.265625,2.140625 12.59375,2.515625 Q12.921875,2.890625 13.6875,2.890625 Q13.6875,2.078125 14.234375,1.484375 Q14.78125,0.890625 15.703125,0.890625 Q16.609375,0.890625 17.125,1.421875 Q17.640625,1.953125 17.640625,3.21875 Q17.640625,4.203125 17.078125,4.703125 Q16.515625,5.21875 15.453125,5.21875 Q14.71875,5.21875 14.203125,5.0625 Q13.703125,4.921875 13.375,4.78125 L12.671875,4.953125 L13.109375,10.25 L19.0625,10.25 L19.125,7.703125 L18.3125,7.703125 L18.21875,8.140625 Q18.140625,8.453125 18,8.59375 Q17.859375,8.75 17.3125,8.75 L14.015625,8.75 L13.75,5.859375 Q14.0625,5.984375 14.59375,6.09375 Q15.140625,6.203125 15.890625,6.203125 Q17.765625,6.203125 18.796875,5.4375 Q19.828125,4.6875 19.828125,3.15625 Q19.828125,1.65625 18.75,0.75 Q17.6875,-0.15625 15.65625,-0.15625 Z" transform="translate(1.578125, 17.25) scale(1, -1)"/>
</svg>