<svg height="17.40625" viewBox="0 0 24 17.40625" width="24" xmlns="http://www.w3.org/2000/svg">
<path d="M1.484375,6.875 L1.484375,7.703125 L2.8125,7.703125 Q3.21875,7.703125 3.5,7.859375 Q3.796875,8.015625 3.796875,8.609375 L3.796875,15.515625 Q3.078125,14.875 2.734375,14.671875 Q2.40625,14.46875 1.875,14.46875 Q1.484375,14.46875 1.25,14.734375 Q1.015625,15.015625 1.015625,15.453125 Q1.375,15.515625 1.734375,15.578125 Q2.09375,15.640625 2.71875,15.953125 Q3.34375,16.265625 4.46875,17.03125 L4.75,17.25 L5.953125,17.25 L5.953125,8.609375 Q5.953125,8.015625 6.25,7.859375 Q6.546875,7.703125 6.953125,7.703125 L8.0625,7.703125 L8.0625,6.875 Z M5.546875,0 L14.109375,17.140625 L15.671875,17.140625 L7.125,0 Z M15.234375,-0.15625 Q13.796875,-0.15625 13.21875,0.359375 Q12.640625,0.890625 12.640625,1.5 Q12.640625,1.859375 12.875,2.15625 Q13.109375,2.453125 13.515625,2.453125 Q13.515625,1.78125 13.9375,1.3125 Q14.375,0.84375 15.234375,0.84375 Q16.390625,0.84375 16.96875,1.6875 Q17.546875,2.546875 17.65625,4.375 Q17.296875,4.1875 16.796875,4.03125 Q16.296875,3.890625 15.71875,3.890625 Q14.03125,3.890625 13.171875,4.734375 Q12.3125,5.578125 12.3125,6.96875 Q12.3125,8.53125 13.25,9.515625 Q14.203125,10.5 15.9375,10.5 Q17.03125,10.5 17.90625,9.953125 Q18.796875,9.421875 19.3125,8.21875 Q19.828125,7.03125 19.828125,5.125 Q19.828125,3.75 19.34375,2.53125 Q18.859375,1.328125 17.84375,0.578125 Q16.84375,-0.15625 15.234375,-0.15625 Z M16.03125,4.859375 Q16.484375,4.859375 16.96875,5.046875 Q17.453125,5.234375 17.71875,5.5 Q17.640625,7.703125 17.15625,8.59375 Q16.671875,9.484375 15.890625,9.484375 Q15.21875,9.484375 14.796875,8.890625 Q14.375,8.3125 14.375,7.109375 Q14.375,5.90625 14.796875,5.375 Q15.21875,4.859375 16.03125,4.859375 Z" transform="translate(1.578125, 17.25) scale(1, -1)"/>
</svg>