<svg height="17.546875" viewBox="0 0 24 17.546875" width="24" xmlns="http://www.w3.org/2000/svg">
<path d="M1.015625,6.875 L1.015625,7.96875 L4.0625,10.703125 Q5.109375,11.65625 5.515625,12.65625 Q5.921875,13.65625 5.921875,14.609375 Q5.921875,15.40625 5.59375,15.921875 Q5.28125,16.4375 4.515625,16.4375 Q3.625,16.4375 3.265625,15.8125 Q2.921875,15.1875 2.921875,14.34375 Q2.109375,14.34375 1.65625,14.546875 Q1.203125,14.75 1.203125,15.375 Q1.203125,16.234375 2.03125,16.8125 Q2.875,17.390625 4.515625,17.390625 Q6.1875,17.390625 7.140625,16.734375 Q8.09375,16.078125 8.09375,14.796875 Q8.09375,14.0625 7.84375,13.40625 Q7.609375,12.765625 7.046875,12.09375 Q6.484375,11.4375 5.46875,10.578125 L2.921875,8.390625 L6.40625,8.390625 Q6.953125,8.390625 7.171875,8.6875 Q7.390625,9 7.46875,9.375 L7.5625,9.875 L8.375,9.875 L8.296875,6.875 Z M5.28125,0 L13.84375,17.140625 L15.40625,17.140625 L6.859375,0 Z M15.265625,-0.15625 Q13.703125,-0.15625 12.875,0.375 Q12.046875,0.921875 12.046875,1.8125 Q12.046875,2.328125 12.34375,2.65625 Q12.65625,2.984375 13.15625,2.984375 Q13.15625,2.234375 13.65625,1.578125 Q14.171875,0.921875 15.203125,0.921875 Q16.1875,0.921875 16.75,1.40625 Q17.328125,1.90625 17.328125,3 Q17.328125,3.84375 16.71875,4.34375 Q16.109375,4.859375 14.796875,4.859375 L14,4.859375 L14,5.84375 L14.796875,5.84375 Q15.703125,5.84375 16.3125,6.390625 Q16.921875,6.9375 16.921875,7.90625 Q16.921875,8.6875 16.609375,9.109375 Q16.296875,9.53125 15.5625,9.53125 Q14.640625,9.53125 14.296875,8.90625 Q13.96875,8.28125 13.96875,7.453125 Q13.15625,7.453125 12.671875,7.65625 Q12.203125,7.859375 12.203125,8.484375 Q12.203125,9.34375 13.0625,9.921875 Q13.921875,10.5 15.5625,10.5 Q17.171875,10.5 18.140625,9.875 Q19.109375,9.25 19.109375,8.125 Q19.109375,7.09375 18.375,6.453125 Q17.640625,5.8125 16.65625,5.53125 L16.65625,5.40625 Q17.3125,5.3125 17.96875,5.0625 Q18.625,4.828125 19.0625,4.34375 Q19.515625,3.875 19.515625,2.984375 Q19.515625,1.8125 18.859375,1.125 Q18.203125,0.4375 17.21875,0.140625 Q16.234375,-0.15625 15.265625,-0.15625 Z" transform="translate(1.734375, 17.390625) scale(1, -1)"/>
</svg>