<svg height="24" viewBox="0 0 24 24" width="24" xmlns="http://www.w3.org/2000/svg">
<path d="M0.84375,17.15625 L3.171875,16.96875 C3.1875,14.546875 3.1875,12.09375 3.1875,9.640625 L3.1875,8.296875 C3.1875,5.828125 3.1875,3.359375 3.171875,0.953125 L0.84375,0.765625 L0.84375,0 L7.578125,0 L7.578125,0.765625 L5.234375,0.953125 C5.203125,3.390625 5.203125,5.828125 5.203125,8.328125 L5.203125,9.640625 C5.203125,12.125 5.203125,14.5625 5.234375,16.96875 L7.578125,17.15625 L7.578125,17.921875 L0.84375,17.921875 Z M17.734375,17.15625 L19.84375,16.96875 L16.0625,10.21875 L12.28125,16.984375 L14.375,17.15625 L14.375,17.921875 L8.359375,17.921875 L8.359375,17.15625 L10.171875,17.015625 L14.8125,8.6875 L10.078125,0.9375 L8.046875,0.765625 L8.046875,0 L13.34375,0 L13.34375,0.765625 L11.203125,0.9375 L15.234375,7.890625 L19.078125,0.9375 L17.109375,0.765625 L17.109375,0 L23.15625,0 L23.15625,0.765625 L21.1875,0.9375 L16.46875,9.453125 L20.953125,16.96875 L22.921875,17.15625 L22.921875,17.921875 L17.734375,17.921875 Z" transform="translate(0, 17.921875) scale(1, -1)"/>
</svg>