<svg height="18.109375" viewBox="0 0 24 18.109375" width="24" xmlns="http://www.w3.org/2000/svg">
<path d="M18.671875,17.1875 L20.859375,16.96875 L16.375,2.140625 L11.90625,16.984375 L14.15625,17.1875 L14.15625,17.921875 L8.015625,17.921875 L8.015625,17.15625 L9.71875,17.015625 L15.125,-0.1875 L16.46875,-0.1875 L21.796875,16.96875 L23.5625,17.15625 L23.5625,17.921875 L18.671875,17.921875 Z M0.75,17.15625 L3.078125,16.96875 C3.09375,14.546875 3.09375,12.09375 3.09375,9.640625 L3.09375,8.296875 C3.09375,5.859375 3.09375,3.359375 3.078125,0.953125 L0.75,0.765625 L0.75,0 L7.46875,0 L7.46875,0.765625 L5.140625,0.953125 C5.109375,3.390625 5.109375,5.828125 5.109375,8.328125 L5.109375,9.640625 C5.109375,12.125 5.109375,14.5625 5.140625,16.984375 L7.46875,17.15625 L7.46875,17.921875 L0.75,17.921875 Z" transform="translate(-0.15625, 17.921875) scale(1, -1)"/>
</svg>