<svg height="24" viewBox="0 0 24 24" width="24" xmlns="http://www.w3.org/2000/svg">
<path d="M7.53125,17.15625 L9.09375,16.984375 L6.40625,10.421875 L3.625,16.984375 L5.28125,17.15625 L5.28125,17.921875 L0.28125,17.921875 L0.28125,17.15625 L1.6875,17.015625 L5.1875,8.640625 L1.53125,0.90625 L0.09375,0.765625 L0.09375,0 L4.265625,0 L4.265625,0.765625 L2.640625,0.9375 L5.5625,7.734375 L8.40625,0.9375 L6.859375,0.765625 L6.859375,0 L11.8125,0 L11.8125,0.765625 L10.421875,0.9375 L6.796875,9.5 L10.203125,17.015625 L11.71875,17.15625 L11.71875,17.921875 L7.53125,17.921875 Z M12.3125,17.15625 L14.0625,17.015625 C14.09375,14.5625 14.09375,12.09375 14.09375,9.640625 L14.09375,8.296875 C14.09375,5.828125 14.09375,3.34375 14.0625,0.90625 L12.3125,0.765625 L12.3125,0 L17.78125,0 L17.78125,0.765625 L15.984375,0.90625 C15.953125,3.359375 15.953125,5.828125 15.953125,8.328125 L15.953125,9.640625 C15.953125,12.125 15.953125,14.59375 15.984375,17.015625 L17.78125,17.15625 L17.78125,17.921875 L12.3125,17.921875 Z M18.359375,17.15625 L20.140625,17.015625 C20.15625,14.5625 20.15625,12.09375 20.15625,9.640625 L20.15625,8.296875 C20.15625,5.828125 20.15625,3.34375 20.140625,0.90625 L18.359375,0.765625 L18.359375,0 L23.8125,0 L23.8125,0.765625 L22.0625,0.90625 C22.03125,3.359375 22.03125,5.828125 22.03125,8.328125 L22.03125,9.640625 C22.03125,12.125 22.03125,14.59375 22.0625,17.015625 L23.8125,17.15625 L23.8125,17.921875 L18.359375,17.921875 Z" transform="translate(0.046875, 17.921875) scale(1, -1)"/>
</svg>