<svg height="24" viewBox="0 0 24 24" width="24" xmlns="http://www.w3.org/2000/svg">
<path d="M10.484375,17.15625 L12.59375,16.96875 L8.8125,10.21875 L5.046875,16.984375 L7.125,17.15625 L7.125,17.921875 L1.125,17.921875 L1.125,17.15625 L2.921875,17.015625 L7.5625,8.6875 L2.828125,0.9375 L0.796875,0.765625 L0.796875,0 L6.125,0 L6.125,0.765625 L3.953125,0.9375 L7.984375,7.890625 L11.828125,0.9375 L9.859375,0.765625 L9.859375,0 L15.90625,0 L15.90625,0.765625 L13.9375,0.9375 L9.21875,9.453125 L13.703125,16.96875 L15.671875,17.15625 L15.671875,17.921875 L10.484375,17.921875 Z M16.484375,17.15625 L18.8125,16.96875 C18.84375,14.546875 18.84375,12.09375 18.84375,9.640625 L18.84375,8.296875 C18.84375,5.828125 18.84375,3.359375 18.8125,0.953125 L16.484375,0.765625 L16.484375,0 L23.203125,0 L23.203125,0.765625 L20.875,0.9375 C20.828125,3.390625 20.828125,5.828125 20.828125,8.328125 L20.828125,9.640625 C20.828125,12.125 20.828125,14.5625 20.875,16.984375 L23.203125,17.15625 L23.203125,17.921875 L16.484375,17.921875 Z" transform="translate(0, 17.921875) scale(1, -1)"/>
</svg>