<svg height="18.109375" viewBox="0 0 24 18.109375" width="24" xmlns="http://www.w3.org/2000/svg">
<path d="M6.984375,17.1875 L8.296875,16.984375 L5.359375,2.65625 L2.5625,17.015625 L3.953125,17.1875 L3.953125,17.921875 L-0.078125,17.921875 L-0.078125,17.15625 L0.546875,17.0625 L4.296875,-0.1875 L5.515625,-0.1875 L9.28125,17.015625 L10.078125,17.15625 L10.078125,17.921875 L6.984375,17.921875 Z M10.375,17.15625 L11.59375,17.015625 C11.640625,14.5625 11.640625,12.09375 11.640625,9.640625 L11.640625,8.296875 C11.640625,5.828125 11.640625,3.34375 11.59375,0.90625 L10.3125,0.765625 L10.3125,0 L14.546875,0 L14.546875,0.765625 L13.296875,0.90625 C13.25,3.359375 13.25,5.828125 13.25,8.328125 L13.25,9.640625 C13.25,12.125 13.25,14.59375 13.296875,17.015625 L14.546875,17.15625 L14.546875,17.921875 L10.375,17.921875 Z M14.90625,17.15625 L16.15625,17.015625 C16.203125,14.5625 16.203125,12.09375 16.203125,9.640625 L16.203125,8.296875 C16.203125,5.828125 16.203125,3.34375 16.15625,0.90625 L14.90625,0.765625 L14.90625,0 L19.125,0 L19.125,0.765625 L17.859375,0.90625 C17.8125,3.359375 17.8125,5.828125 17.8125,8.328125 L17.8125,9.640625 C17.8125,12.125 17.8125,14.59375 17.859375,17.015625 L19.125,17.15625 L19.125,17.921875 L14.90625,17.921875 Z M19.484375,17.15625 L20.734375,17.015625 C20.765625,14.5625 20.765625,12.09375 20.765625,9.640625 L20.765625,8.296875 C20.765625,5.828125 20.765625,3.34375 20.734375,0.90625 L19.484375,0.765625 L19.484375,0 L23.6875,0 L23.6875,0.765625 L22.421875,0.90625 C22.390625,3.359375 22.390625,5.828125 22.390625,8.328125 L22.390625,9.640625 C22.390625,12.125 22.390625,14.59375 22.421875,17.015625 L23.6875,17.15625 L23.6875,17.921875 L19.484375,17.921875 Z" transform="translate(0.1953125, 17.921875) scale(1, -1)"/>
</svg>