<svg height="24" viewBox="0 0 24 24" width="24" xmlns="http://www.w3.org/2000/svg">
<path d="M1.203125,17.15625 L3.5,16.96875 C3.53125,14.546875 3.53125,12.09375 3.53125,9.640625 L3.53125,8.296875 C3.53125,5.828125 3.53125,3.359375 3.5,0.953125 L1.203125,0.765625 L1.203125,0 L7.875,0 L7.875,0.765625 L5.5625,0.9375 C5.546875,3.390625 5.546875,5.828125 5.546875,8.328125 L5.546875,9.640625 C5.546875,12.125 5.546875,14.5625 5.5625,16.984375 L7.875,17.15625 L7.875,17.921875 L1.203125,17.921875 Z M8.6875,17.15625 L10.9375,16.984375 C10.984375,14.546875 10.984375,12.09375 10.984375,9.640625 L10.984375,8.296875 C10.984375,5.828125 10.984375,3.359375 10.9375,0.9375 L8.6875,0.765625 L8.6875,0 L15.3125,0 L15.3125,0.765625 L13.0625,0.9375 C13.015625,3.390625 13.015625,5.828125 13.015625,8.328125 L13.015625,9.640625 C13.015625,12.125 13.015625,14.5625 13.0625,16.984375 L15.3125,17.15625 L15.3125,17.921875 L8.6875,17.921875 Z M16.125,17.15625 L18.4375,16.96875 C18.453125,14.546875 18.453125,12.09375 18.453125,9.640625 L18.453125,8.296875 C18.453125,5.828125 18.453125,3.359375 18.4375,0.953125 L16.125,0.765625 L16.125,0 L22.796875,0 L22.796875,0.765625 L20.5,0.9375 C20.46875,3.390625 20.46875,5.828125 20.46875,8.328125 L20.46875,9.640625 C20.46875,12.125 20.46875,14.5625 20.5,16.984375 L22.796875,17.15625 L22.796875,17.921875 L16.125,17.921875 Z" transform="translate(0, 17.921875) scale(1, -1)"/>
</svg>