<svg height="24" viewBox="0 0 24 24" width="24" xmlns="http://www.w3.org/2000/svg">
<path d="M4.53125,17.15625 L7.015625,16.96875 C7.0625,14.546875 7.0625,12.09375 7.0625,9.640625 L7.0625,8.296875 C7.0625,5.859375 7.0625,3.359375 7.015625,0.953125 L4.53125,0.765625 L4.53125,0 L11.5625,0 L11.5625,0.765625 L9.078125,0.953125 C9.046875,3.390625 9.046875,5.859375 9.046875,8.328125 L9.046875,9.640625 C9.046875,12.09375 9.046875,14.5625 9.078125,16.96875 L11.5625,17.15625 L11.5625,17.921875 L4.53125,17.921875 Z M12.4375,17.15625 L14.921875,16.96875 C14.953125,14.546875 14.953125,12.09375 14.953125,9.640625 L14.953125,8.296875 C14.953125,5.859375 14.953125,3.359375 14.921875,0.953125 L12.4375,0.765625 L12.4375,0 L19.46875,0 L19.46875,0.765625 L16.984375,0.953125 C16.9375,3.390625 16.9375,5.828125 16.9375,8.328125 L16.9375,9.640625 C16.9375,12.125 16.9375,14.5625 16.984375,16.96875 L19.46875,17.15625 L19.46875,17.921875 L12.4375,17.921875 Z" transform="translate(0, 17.921875) scale(1, -1)"/>
</svg>