<svg height="18.109375" viewBox="0 0 24 18.109375" width="24" xmlns="http://www.w3.org/2000/svg">
<path d="M11.0625,17.1875 L13.21875,16.96875 L8.765625,2.1875 L4.296875,16.984375 L6.578125,17.1875 L6.578125,17.921875 L0.4375,17.921875 L0.4375,17.15625 L2.109375,17.015625 L7.53125,-0.1875 L8.859375,-0.1875 L14.1875,16.96875 L15.984375,17.15625 L15.984375,17.921875 L11.0625,17.921875 Z M16.53125,17.15625 L18.859375,16.96875 C18.890625,14.546875 18.890625,12.09375 18.890625,9.640625 L18.890625,8.296875 C18.890625,5.859375 18.890625,3.359375 18.859375,0.953125 L16.53125,0.765625 L16.53125,0 L23.25,0 L23.25,0.765625 L20.921875,0.953125 C20.90625,3.390625 20.90625,5.828125 20.90625,8.328125 L20.90625,9.640625 C20.90625,12.125 20.90625,14.5625 20.921875,16.984375 L23.25,17.15625 L23.25,17.921875 L16.53125,17.921875 Z" transform="translate(0.15625, 17.921875) scale(1, -1)"/>
</svg>