<svg height="24" viewBox="0 0 24 24" width="24" xmlns="http://www.w3.org/2000/svg">
<path d="M4.75,16.609375 C5.546875,16.609375 6.171875,17.1875 6.171875,18.046875 C6.171875,18.84375 5.546875,19.421875 4.75,19.421875 C4.03125,19.421875 3.359375,18.84375 3.359375,18.046875 C3.359375,17.1875 4.03125,16.609375 4.75,16.609375 Z M12,16.609375 C12.765625,16.609375 13.421875,17.1875 13.421875,18.046875 C13.421875,18.84375 12.765625,19.421875 12,19.421875 C11.25,19.421875 10.609375,18.84375 10.609375,18.046875 C10.609375,17.1875 11.25,16.609375 12,16.609375 Z M19.21875,16.609375 C20.015625,16.609375 20.640625,17.1875 20.640625,18.046875 C20.640625,18.84375 20.015625,19.421875 19.21875,19.421875 C18.5,19.421875 17.828125,18.84375 17.828125,18.046875 C17.828125,17.1875 18.5,16.609375 19.21875,16.609375 Z M3.84375,0 L8.15625,0 L8.15625,0.71875 L5.859375,0.90625 L5.828125,5.609375 L5.828125,9.359375 L5.875,12.765625 L5.59375,12.9375 L1.265625,12.21875 L1.265625,11.546875 L3.84375,11.5 C3.890625,10.203125 3.90625,8.8125 3.90625,7.0625 L3.90625,5.609375 L3.859375,0.90625 L1.4375,0.71875 L1.4375,0 Z M11.09375,0 L15.40625,0 L15.40625,0.71875 L13.078125,0.90625 L13.0625,5.609375 L13.0625,9.359375 L13.109375,12.765625 L12.8125,12.9375 L8.515625,12.21875 L8.515625,11.546875 L11.09375,11.5 C11.140625,10.203125 11.140625,8.8125 11.140625,7.0625 L11.140625,5.609375 L11.109375,0.90625 L8.65625,0.71875 L8.65625,0 Z M18.34375,0 L22.625,0 L22.625,0.71875 L20.328125,0.90625 L20.28125,5.609375 L20.28125,9.359375 L20.359375,12.765625 L20.0625,12.9375 L15.75,12.21875 L15.75,11.546875 L18.34375,11.5 C18.390625,10.203125 18.390625,8.8125 18.390625,7.0625 L18.390625,5.609375 L18.359375,0.90625 L15.90625,0.71875 L15.90625,0 Z" transform="translate(0.0546875, 19.421875) scale(1, -1)"/>
</svg>