<svg height="19.59375" viewBox="0 0 24 19.59375" width="24" xmlns="http://www.w3.org/2000/svg">
<path d="M5.140625,16.625 C5.90625,16.625 6.53125,17.1875 6.53125,18.046875 C6.53125,18.84375 5.90625,19.421875 5.140625,19.421875 C4.390625,19.421875 3.71875,18.84375 3.71875,18.046875 C3.71875,17.1875 4.390625,16.625 5.140625,16.625 Z M17.453125,11.953125 L19.625,11.765625 L15.90625,1.828125 L12.171875,11.765625 L14.25,11.953125 L14.25,12.640625 L8.1875,12.640625 L8.1875,11.953125 L9.953125,11.78125 L14.71875,-0.171875 L15.859375,-0.171875 L20.609375,11.765625 L22.46875,11.953125 L22.46875,12.640625 L17.453125,12.640625 Z M4.21875,0 L8.6875,0 L8.6875,0.71875 L6.265625,0.90625 L6.234375,5.609375 L6.234375,9.359375 L6.28125,12.765625 L6,12.9375 L1.609375,12.21875 L1.609375,11.546875 L4.21875,11.5 C4.265625,10.203125 4.296875,8.8125 4.296875,7.0625 L4.296875,5.609375 L4.25,0.90625 L1.6875,0.71875 L1.6875,0 Z" transform="translate(-0.0390625, 19.421875) scale(1, -1)"/>
</svg>