<svg height="19.59375" viewBox="0 0 24 19.59375" width="24" xmlns="http://www.w3.org/2000/svg">
<path d="M19.390625,16.625 C20.15625,16.625 20.78125,17.1875 20.78125,18.046875 C20.78125,18.84375 20.15625,19.421875 19.390625,19.421875 C18.671875,19.421875 18,18.84375 18,18.046875 C18,17.1875 18.671875,16.625 19.390625,16.625 Z M10.296875,11.953125 L12.453125,11.765625 L8.734375,1.828125 L4.984375,11.765625 L7.078125,11.953125 L7.078125,12.640625 L1.015625,12.640625 L1.015625,11.953125 L2.78125,11.78125 L7.53125,-0.171875 L8.6875,-0.171875 L13.4375,11.765625 L15.28125,11.953125 L15.28125,12.640625 L10.296875,12.640625 Z M18.453125,0 L22.9375,0 L22.9375,0.71875 L20.515625,0.90625 L20.46875,5.609375 L20.46875,9.359375 L20.546875,12.765625 L20.234375,12.9375 L15.859375,12.21875 L15.859375,11.546875 L18.453125,11.5 C18.5,10.203125 18.53125,8.8125 18.53125,7.0625 L18.53125,5.609375 L18.484375,0.90625 L15.953125,0.71875 L15.953125,0 Z" transform="translate(0.0234375, 19.421875) scale(1, -1)"/>
</svg>