<svg height="24" viewBox="0 0 24 24" width="24" xmlns="http://www.w3.org/2000/svg">
<path d="M14.78125,16.625 C15.578125,16.625 16.203125,17.1875 16.203125,18.046875 C16.203125,18.84375 15.578125,19.421875 14.78125,19.421875 C14.0625,19.421875 13.390625,18.84375 13.390625,18.046875 C13.390625,17.1875 14.0625,16.625 14.78125,16.625 Z M20.859375,16.625 C21.625,16.625 22.25,17.1875 22.25,18.046875 C22.25,18.84375 21.625,19.421875 20.859375,19.421875 C20.140625,19.421875 19.46875,18.84375 19.46875,18.046875 C19.46875,17.1875 20.140625,16.625 20.859375,16.625 Z M7.34375,11.921875 L8.921875,11.765625 L6.453125,7.46875 L3.8125,11.78125 L5.375,11.921875 L5.375,12.640625 L0.359375,12.640625 L0.359375,11.921875 L1.65625,11.8125 L5.0625,5.953125 L1.828125,0.890625 L0.3125,0.71875 L0.3125,0 L4.375,0 L4.375,0.71875 L2.90625,0.90625 L5.46875,5.25 L8.109375,0.859375 L6.546875,0.71875 L6.546875,0 L11.65625,0 L11.65625,0.71875 L10.34375,0.859375 L6.84375,6.796875 L9.984375,11.78125 L11.421875,11.921875 L11.421875,12.640625 L7.34375,12.640625 Z M13.921875,0 L17.65625,0 L17.65625,0.71875 L15.90625,0.890625 L15.859375,5.609375 L15.859375,9.359375 L15.9375,12.765625 L15.625,12.9375 L12.078125,12.21875 L12.078125,11.546875 L13.921875,11.5 C13.96875,10.203125 13.984375,8.8125 13.984375,7.0625 L13.984375,5.609375 L13.9375,0.90625 L12.078125,0.71875 L12.078125,0 Z M19.96875,0 L23.734375,0 L23.734375,0.71875 L21.984375,0.890625 L21.9375,5.609375 L21.9375,9.359375 L21.984375,12.765625 L21.703125,12.9375 L18.09375,12.21875 L18.09375,11.546875 L19.96875,11.5 C20.015625,10.203125 20.046875,8.8125 20.046875,7.0625 L20.046875,5.609375 L19.984375,0.90625 L18.078125,0.71875 L18.078125,0 Z" transform="translate(-0.0234375, 19.421875) scale(1, -1)"/>
</svg>