<svg height="19.59375" viewBox="0 0 24 19.59375" width="24" xmlns="http://www.w3.org/2000/svg">
<path d="M11.953125,16.625 C12.671875,16.625 13.21875,17.1875 13.21875,18.046875 C13.21875,18.84375 12.671875,19.421875 11.953125,19.421875 C11.25,19.421875 10.6875,18.84375 10.6875,18.046875 C10.6875,17.1875 11.25,16.625 11.953125,16.625 Z M16.5625,16.625 C17.28125,16.625 17.8125,17.1875 17.8125,18.046875 C17.8125,18.84375 17.28125,19.421875 16.5625,19.421875 C15.84375,19.421875 15.265625,18.84375 15.265625,18.046875 C15.265625,17.1875 15.84375,16.625 16.5625,16.625 Z M21.453125,16.625 C22.203125,16.625 22.734375,17.1875 22.734375,18.046875 C22.734375,18.84375 22.203125,19.421875 21.453125,19.421875 C20.765625,19.421875 20.1875,18.84375 20.1875,18.046875 C20.1875,17.1875 20.765625,16.625 21.453125,16.625 Z M5.640625,11.953125 L7.484375,11.765625 L5.046875,2.0625 L2.6875,11.765625 L4.296875,11.953125 L4.296875,12.640625 L-0.34375,12.640625 L-0.34375,11.953125 L0.578125,11.8125 L3.890625,-0.171875 L5.140625,-0.171875 L8.421875,11.78125 L9.59375,11.953125 L9.59375,12.640625 L5.640625,12.640625 Z M11.15625,0 L14.234375,0 L14.234375,0.71875 L12.9375,0.859375 L12.890625,5.609375 L12.890625,9.359375 L12.953125,12.765625 L12.640625,12.9375 L9.75,12.21875 L9.75,11.546875 L11.15625,11.5 C11.203125,10.203125 11.234375,8.8125 11.234375,7.0625 L11.234375,5.609375 L11.1875,0.890625 L9.640625,0.71875 L9.640625,0 Z M15.890625,0 L18.984375,0 L18.984375,0.71875 L17.6875,0.859375 C17.65625,2.234375 17.640625,4.296875 17.640625,5.609375 L17.640625,9.359375 L17.71875,12.765625 L17.40625,12.9375 L14.46875,12.21875 L14.46875,11.546875 L15.890625,11.5 C15.9375,10.203125 15.984375,8.8125 15.984375,7.0625 L15.984375,5.609375 C15.984375,4.296875 15.953125,2.25 15.90625,0.890625 L14.453125,0.71875 L14.453125,0 Z M20.65625,0 L23.734375,0 L23.734375,0.71875 L22.4375,0.859375 L22.390625,5.609375 L22.390625,9.359375 L22.46875,12.765625 L22.15625,12.9375 L19.21875,12.21875 L19.21875,11.546875 L20.65625,11.5 C20.6875,10.203125 20.734375,8.8125 20.734375,7.0625 L20.734375,5.609375 L20.6875,0.890625 L19.203125,0.71875 L19.203125,0 Z" transform="translate(0.3046875, 19.421875) scale(1, -1)"/>
</svg>