<svg height="24" viewBox="0 0 24 24" width="24" xmlns="http://www.w3.org/2000/svg">
<path d="M5.234375,8.296875 Q3.84375,8.296875 3.171875,9.0625 Q2.515625,9.84375 2.515625,11.140625 Q2.515625,12.359375 3.203125,13.15625 Q3.90625,13.96875 5.203125,13.96875 Q5.921875,13.96875 6.640625,13.625 L6.359375,12.9375 Q5.6875,13.25 5.15625,13.25 Q4.296875,13.25 3.890625,12.59375 Q3.5,11.953125 3.5,11.140625 Q3.5,9.03125 5.234375,9.03125 Q5.90625,9.03125 6.40625,9.265625 L6.40625,8.5 Q5.828125,8.296875 5.234375,8.296875 Z M8.328125,2.96875 L8.328125,8.421875 L9.9375,8.421875 Q10.921875,8.421875 11.5,8.09375 Q12.078125,7.78125 12.078125,6.84375 Q12.078125,5.71875 10.921875,5.421875 L12.453125,2.96875 L11.453125,2.96875 L10.125,5.203125 L9.1875,5.203125 L9.1875,2.96875 Z M9.1875,5.90625 L9.9375,5.90625 Q11.140625,5.90625 11.140625,6.8125 Q11.140625,7.375 10.8125,7.546875 Q10.484375,7.734375 9.890625,7.734375 L9.1875,7.734375 Z" transform="translate(4.515625, 13.96875) scale(1, -1)"/>
</svg>