<svg height="24" viewBox="0 0 24 24" width="24" xmlns="http://www.w3.org/2000/svg">
<path d="M0.984375,11.109375 L0.984375,16.5625 L4.34375,16.5625 L4.34375,15.84375 L1.875,15.84375 L1.875,14.296875 L4.203125,14.296875 L4.203125,13.578125 L1.875,13.578125 L1.875,11.828125 L4.34375,11.828125 L4.34375,11.109375 Z M7.15625,5.453125 Q4.96875,5.453125 4.96875,8.328125 Q4.96875,11.109375 7.171875,11.109375 Q9.390625,11.109375 9.390625,8.328125 Q9.390625,7.0625 8.875,6.25 Q8.359375,5.453125 7.15625,5.453125 Z M7.15625,6.171875 Q8.40625,6.171875 8.40625,8.328125 Q8.40625,10.390625 7.171875,10.390625 Q5.953125,10.390625 5.953125,8.328125 Q5.953125,6.171875 7.15625,6.171875 Z M11.609375,0 L11.609375,4.734375 L10.15625,4.734375 L10.15625,5.453125 L13.96875,5.453125 L13.96875,4.734375 L12.5,4.734375 L12.5,0 Z" transform="translate(4.5234375, 16.5625) scale(1, -1)"/>
</svg>