<svg height="24" viewBox="0 0 24 24" width="24" xmlns="http://www.w3.org/2000/svg">
<path d="M2.359375,10.984375 Q1.34375,10.984375 0.703125,11.296875 L0.703125,12.09375 Q1.578125,11.6875 2.359375,11.6875 Q3.484375,11.6875 3.484375,12.5 Q3.484375,13.109375 2.6875,13.390625 Q1.875,13.6875 1.328125,14.09375 Q0.796875,14.5 0.796875,15.234375 Q0.796875,15.984375 1.34375,16.3125 Q1.890625,16.65625 2.640625,16.65625 Q3.484375,16.65625 4.265625,16.3125 L4.015625,15.640625 Q3.359375,15.953125 2.6875,15.953125 Q2.25,15.953125 1.96875,15.765625 Q1.703125,15.578125 1.703125,15.234375 Q1.703125,14.71875 2.359375,14.421875 Q2.78125,14.234375 3.265625,14 Q3.75,13.78125 4.078125,13.4375 Q4.421875,13.109375 4.421875,12.578125 Q4.421875,11.765625 3.84375,11.375 Q3.265625,10.984375 2.359375,10.984375 Z M7.15625,5.546875 L7.15625,10.265625 L5.6875,10.265625 L5.6875,10.984375 L9.5,10.984375 L9.5,10.265625 L8.046875,10.265625 L8.046875,5.546875 Z M9.578125,0 L11.25,2.8125 L9.671875,5.453125 L10.625,5.453125 L11.78125,3.484375 L12.9375,5.453125 L13.828125,5.453125 L12.265625,2.828125 L13.96875,0 L13.015625,0 L11.734375,2.15625 L10.484375,0 Z" transform="translate(4.6640625, 16.65625) scale(1, -1)"/>
</svg>