<svg height="24" viewBox="0 0 24 24" width="24" xmlns="http://www.w3.org/2000/svg">
<path d="M2.359375,10.984375 Q1.34375,10.984375 0.703125,11.296875 L0.703125,12.09375 Q1.578125,11.6875 2.359375,11.6875 Q3.484375,11.6875 3.484375,12.5 Q3.484375,13.109375 2.6875,13.390625 Q1.875,13.6875 1.328125,14.09375 Q0.796875,14.5 0.796875,15.234375 Q0.796875,15.984375 1.34375,16.3125 Q1.890625,16.65625 2.640625,16.65625 Q3.484375,16.65625 4.265625,16.3125 L4.015625,15.640625 Q3.359375,15.953125 2.6875,15.953125 Q2.25,15.953125 1.96875,15.765625 Q1.703125,15.578125 1.703125,15.234375 Q1.703125,14.71875 2.359375,14.421875 Q2.78125,14.234375 3.265625,14 Q3.75,13.78125 4.078125,13.4375 Q4.421875,13.109375 4.421875,12.578125 Q4.421875,11.765625 3.84375,11.375 Q3.265625,10.984375 2.359375,10.984375 Z M7.078125,5.453125 Q4.890625,5.453125 4.890625,8.328125 Q4.890625,11.109375 7.109375,11.109375 Q9.3125,11.109375 9.3125,8.328125 Q9.3125,7.0625 8.796875,6.25 Q8.28125,5.453125 7.078125,5.453125 Z M7.078125,6.171875 Q8.328125,6.171875 8.328125,8.328125 Q8.328125,10.390625 7.109375,10.390625 Q5.875,10.390625 5.875,8.328125 Q5.875,6.171875 7.078125,6.171875 Z M9.84375,0 L9.84375,5.453125 L10.734375,5.453125 L10.734375,3.1875 L12.671875,3.1875 L12.671875,5.453125 L13.5625,5.453125 L13.5625,0 L12.671875,0 L12.671875,2.46875 L10.734375,2.46875 L10.734375,0 Z" transform="translate(4.8671875, 16.65625) scale(1, -1)"/>
</svg>