<svg height="24" viewBox="0 0 24 24" width="24" xmlns="http://www.w3.org/2000/svg">
<path d="M2.734375,8.421875 L2.734375,13.875 L4.203125,13.875 Q5.421875,13.875 5.90625,13.515625 Q6.390625,13.171875 6.390625,12.453125 Q6.390625,12.03125 6.078125,11.71875 Q5.765625,11.40625 5.328125,11.28125 Q6.578125,10.96875 6.578125,9.984375 Q6.578125,9.140625 5.984375,8.78125 Q5.40625,8.421875 4.5625,8.421875 Z M3.640625,11.59375 L4.34375,11.59375 Q4.96875,11.59375 5.1875,11.796875 Q5.40625,12 5.40625,12.40625 Q5.40625,12.890625 5.09375,13.03125 Q4.796875,13.171875 4.25,13.171875 L3.640625,13.171875 Z M3.640625,9.125 L4.4375,9.125 Q5.59375,9.125 5.59375,10.0625 Q5.59375,10.890625 4.390625,10.890625 L3.640625,10.890625 Z M9.453125,2.859375 Q8.96875,2.859375 8.546875,2.9375 Q8.140625,3.03125 7.796875,3.171875 L7.796875,3.953125 Q8.6875,3.546875 9.453125,3.546875 Q10.578125,3.546875 10.578125,4.375 Q10.578125,4.9375 9.796875,5.25 Q9,5.5625 8.4375,5.953125 Q7.890625,6.34375 7.890625,7.109375 Q7.890625,7.84375 8.4375,8.171875 Q9,8.515625 9.75,8.515625 Q10.578125,8.515625 11.375,8.1875 L11.109375,7.515625 Q10.46875,7.828125 9.796875,7.828125 Q9.359375,7.828125 9.078125,7.625 Q8.8125,7.4375 8.8125,7.109375 Q8.8125,6.59375 9.4375,6.3125 Q9.859375,6.125 10.34375,5.875 Q10.828125,5.640625 11.171875,5.296875 Q11.515625,4.96875 11.515625,4.4375 Q11.515625,3.625 10.9375,3.234375 Q10.375,2.859375 9.453125,2.859375 Z" transform="translate(4.875, 13.875) scale(1, -1)"/>
</svg>