<svg height="24" viewBox="0 0 24 24" width="24" xmlns="http://www.w3.org/2000/svg">
<path d="M2.765625,8.421875 L2.765625,13.875 L4.375,13.875 Q5.359375,13.875 5.921875,13.53125 Q6.5,13.203125 6.5,12.28125 Q6.5,11.15625 5.359375,10.875 L6.890625,8.421875 L5.875,8.421875 L4.5625,10.65625 L3.625,10.65625 L3.625,8.421875 Z M3.625,11.359375 L4.375,11.359375 Q5.5625,11.359375 5.5625,12.265625 Q5.5625,12.8125 5.234375,12.984375 Q4.921875,13.171875 4.3125,13.171875 L3.625,13.171875 Z M9.4375,2.859375 Q8.953125,2.859375 8.53125,2.9375 Q8.109375,3.03125 7.78125,3.171875 L7.78125,3.953125 Q8.65625,3.546875 9.4375,3.546875 Q10.5625,3.546875 10.5625,4.375 Q10.5625,4.9375 9.765625,5.25 Q8.96875,5.5625 8.421875,5.953125 Q7.875,6.34375 7.875,7.109375 Q7.875,7.84375 8.421875,8.171875 Q8.96875,8.515625 9.71875,8.515625 Q10.5625,8.515625 11.359375,8.1875 L11.09375,7.515625 Q10.4375,7.828125 9.765625,7.828125 Q9.34375,7.828125 9.0625,7.625 Q8.78125,7.4375 8.78125,7.109375 Q8.78125,6.59375 9.40625,6.3125 Q9.84375,6.125 10.3125,5.875 Q10.796875,5.640625 11.140625,5.296875 Q11.5,4.96875 11.5,4.4375 Q11.5,3.625 10.921875,3.234375 Q10.34375,2.859375 9.4375,2.859375 Z" transform="translate(4.8671875, 13.875) scale(1, -1)"/>
</svg>