<svg height="24" viewBox="0 0 24 24" width="24" xmlns="http://www.w3.org/2000/svg">
<path d="M0.90625,11.109375 L0.90625,16.5625 L2.453125,16.5625 Q4.921875,16.5625 4.921875,13.875 Q4.921875,12.578125 4.296875,11.84375 Q3.671875,11.109375 2.453125,11.109375 Z M1.796875,11.828125 L2.28125,11.828125 Q3.265625,11.828125 3.59375,12.328125 Q3.9375,12.84375 3.9375,13.84375 Q3.9375,14.859375 3.5625,15.34375 Q3.1875,15.84375 2.203125,15.84375 L1.796875,15.84375 Z M7.5625,5.453125 Q6.265625,5.453125 5.640625,6.21875 Q5.015625,6.984375 5.015625,8.28125 Q5.015625,9.5 5.6875,10.296875 Q6.359375,11.109375 7.53125,11.109375 Q8.375,11.109375 8.875,10.75 L8.59375,10.109375 Q8.0625,10.390625 7.53125,10.390625 Q6.71875,10.390625 6.359375,9.734375 Q6,9.09375 6,8.28125 Q6,6.171875 7.578125,6.171875 Q8.203125,6.171875 8.65625,6.390625 L8.65625,5.65625 Q8.140625,5.453125 7.5625,5.453125 Z M11.5,0 L11.5,3.546875 L11.546875,4.6875 L10.9375,4.171875 L10.25,3.703125 L9.8125,4.3125 L11.46875,5.46875 L12.40625,5.46875 L12.40625,0 Z" transform="translate(5.34375, 16.5625) scale(1, -1)"/>
</svg>