<svg height="24" viewBox="0 0 24 24" width="24" xmlns="http://www.w3.org/2000/svg">
<path d="M3.234375,10.984375 Q1.9375,10.984375 1.3125,11.75 Q0.703125,12.53125 0.703125,13.828125 Q0.703125,15.046875 1.359375,15.84375 Q2.015625,16.65625 3.21875,16.65625 Q4.0625,16.65625 4.5625,16.296875 L4.265625,15.640625 Q3.75,15.9375 3.21875,15.9375 Q2.40625,15.9375 2.046875,15.28125 Q1.6875,14.640625 1.6875,13.828125 Q1.6875,11.71875 3.265625,11.71875 Q3.890625,11.71875 4.34375,11.921875 L4.34375,11.203125 Q3.84375,10.984375 3.234375,10.984375 Z M4.375,5.546875 L6.265625,10.984375 L6.9375,10.984375 L8.828125,5.546875 L7.9375,5.546875 L7.46875,7.171875 L5.734375,7.171875 L5.25,5.546875 Z M5.96875,7.890625 L7.21875,7.890625 L6.59375,10.0625 Z M9.890625,0 L9.890625,5.453125 L10.84375,5.453125 L12.75,1.3125 L12.71875,1.84375 L12.71875,5.453125 L13.5625,5.453125 L13.5625,0 L12.59375,0 L10.6875,4.15625 L10.734375,3.046875 L10.734375,0 Z" transform="translate(4.8671875, 16.65625) scale(1, -1)"/>
</svg>