<svg height="24" viewBox="0 0 24 24" width="24" xmlns="http://www.w3.org/2000/svg">
<path d="M0.84375,11.109375 L0.84375,16.5625 L1.796875,16.5625 L3.703125,12.4375 L3.671875,12.953125 L3.671875,16.5625 L4.515625,16.5625 L4.515625,11.109375 L3.546875,11.109375 L1.625,15.265625 L1.6875,14.15625 L1.6875,11.109375 Z M4.46875,5.546875 L6.359375,10.984375 L7.03125,10.984375 L8.921875,5.546875 L8.046875,5.546875 L7.5625,7.171875 L5.828125,7.171875 L5.359375,5.546875 Z M6.078125,7.890625 L7.3125,7.890625 L6.703125,10.03125 Z M9.953125,0 L9.953125,5.453125 L10.875,5.453125 L10.875,3.21875 L12.859375,5.453125 L13.921875,5.453125 L11.6875,3.046875 L13.984375,0 L12.9375,0 L11.09375,2.46875 L10.875,2.25 L10.875,0 Z" transform="translate(4.5859375, 16.5625) scale(1, -1)"/>
</svg>