<svg height="24" viewBox="0 0 24 24" width="24" xmlns="http://www.w3.org/2000/svg">
<path d="M2.734375,8.421875 L2.734375,13.875 L6.09375,13.875 L6.09375,13.15625 L3.625,13.15625 L3.625,11.609375 L5.953125,11.609375 L5.953125,10.890625 L3.625,10.890625 L3.625,9.140625 L6.09375,9.140625 L6.09375,8.421875 Z M7.6875,2.96875 L7.6875,8.421875 L8.59375,8.421875 L9.671875,5.515625 L10.734375,8.421875 L11.640625,8.421875 L11.640625,2.96875 L10.828125,2.96875 L10.828125,6.3125 L10.84375,7.125 L9.9375,4.515625 L9.359375,4.515625 L8.46875,7.125 L8.5,6.265625 L8.5,2.96875 Z" transform="translate(4.8125, 13.875) scale(1, -1)"/>
</svg>