<svg height="16.6875" viewBox="0 0 24 16.6875" width="24" xmlns="http://www.w3.org/2000/svg">
<path d="M0.984375,11.109375 L0.984375,16.5625 L4.34375,16.5625 L4.34375,15.84375 L1.875,15.84375 L1.875,14.296875 L4.203125,14.296875 L4.203125,13.578125 L1.875,13.578125 L1.875,11.828125 L4.34375,11.828125 L4.34375,11.109375 Z M7.25,5.453125 Q6.234375,5.453125 5.59375,5.765625 L5.59375,6.546875 Q6.484375,6.140625 7.25,6.140625 Q8.375,6.140625 8.375,6.953125 Q8.375,7.53125 7.578125,7.84375 Q6.796875,8.15625 6.234375,8.546875 Q5.6875,8.953125 5.6875,9.703125 Q5.6875,10.4375 6.234375,10.765625 Q6.796875,11.109375 7.53125,11.109375 Q8.375,11.109375 9.171875,10.78125 L8.90625,10.109375 Q8.25,10.421875 7.578125,10.421875 Q7.15625,10.421875 6.875,10.21875 Q6.59375,10.03125 6.59375,9.703125 Q6.59375,9.171875 7.25,8.875 Q7.703125,8.6875 8.171875,8.453125 Q8.640625,8.234375 8.96875,7.890625 Q9.3125,7.5625 9.3125,7.03125 Q9.3125,6.21875 8.734375,5.828125 Q8.15625,5.453125 7.25,5.453125 Z M12.40625,-0.125 Q11.109375,-0.125 10.484375,0.640625 Q9.859375,1.421875 9.859375,2.71875 Q9.859375,3.9375 10.515625,4.734375 Q11.1875,5.546875 12.390625,5.546875 Q13.21875,5.546875 13.734375,5.1875 L13.4375,4.53125 Q12.90625,4.828125 12.390625,4.828125 Q11.5625,4.828125 11.203125,4.171875 Q10.84375,3.53125 10.84375,2.71875 Q10.84375,0.59375 12.4375,0.59375 Q13.0625,0.59375 13.515625,0.8125 L13.515625,0.09375 Q12.984375,-0.125 12.40625,-0.125 Z" transform="translate(4.640625, 16.5625) scale(1, -1)"/>
</svg>