<svg height="16.6875" viewBox="0 0 24 16.6875" width="24" xmlns="http://www.w3.org/2000/svg">
<path d="M0.90625,11.109375 L0.90625,16.5625 L2.453125,16.5625 Q4.921875,16.5625 4.921875,13.875 Q4.921875,12.578125 4.296875,11.84375 Q3.671875,11.109375 2.453125,11.109375 Z M1.796875,11.828125 L2.28125,11.828125 Q3.265625,11.828125 3.59375,12.328125 Q3.9375,12.84375 3.9375,13.84375 Q3.9375,14.859375 3.5625,15.34375 Q3.1875,15.84375 2.203125,15.84375 L1.796875,15.84375 Z M7.5625,5.453125 Q6.265625,5.453125 5.640625,6.21875 Q5.015625,6.984375 5.015625,8.28125 Q5.015625,9.5 5.6875,10.296875 Q6.359375,11.109375 7.53125,11.109375 Q8.375,11.109375 8.875,10.75 L8.59375,10.109375 Q8.0625,10.390625 7.53125,10.390625 Q6.71875,10.390625 6.359375,9.734375 Q6,9.09375 6,8.28125 Q6,6.171875 7.578125,6.171875 Q8.203125,6.171875 8.65625,6.390625 L8.65625,5.65625 Q8.140625,5.453125 7.5625,5.453125 Z M11.109375,-0.125 Q10.21875,-0.125 9.4375,0.21875 L9.4375,1.03125 Q10.296875,0.59375 11.109375,0.59375 Q12.390625,0.59375 12.390625,1.578125 Q12.390625,2.46875 10.984375,2.46875 L10.265625,2.46875 L10.265625,3.171875 L10.984375,3.171875 Q12.234375,3.171875 12.234375,4.0625 Q12.234375,4.828125 11.328125,4.828125 Q10.65625,4.828125 9.859375,4.3125 L9.453125,4.9375 Q10.375,5.546875 11.328125,5.546875 Q12.234375,5.546875 12.71875,5.15625 Q13.203125,4.78125 13.203125,4.15625 Q13.203125,3.140625 12.125,2.859375 Q12.75,2.78125 13.0625,2.421875 Q13.375,2.0625 13.375,1.5625 Q13.375,0.8125 12.796875,0.34375 Q12.234375,-0.125 11.109375,-0.125 Z" transform="translate(4.859375, 16.5625) scale(1, -1)"/>
</svg>