<svg height="22.328125" viewBox="0 0 24 22.328125" width="24" xmlns="http://www.w3.org/2000/svg">
<path d="M12,-2.046875 C18.171875,-2.046875 23.0625,2.828125 23.0625,9.125 C23.0625,15.390625 18.171875,20.28125 12,20.28125 C5.828125,20.28125 0.9375,15.390625 0.9375,9.125 C0.9375,2.859375 5.828125,-2.046875 12,-2.046875 Z M12,-1.375 C6.21875,-1.375 1.65625,3.21875 1.65625,9.125 C1.65625,15.03125 6.21875,19.609375 12,19.609375 C17.765625,19.609375 22.34375,15.03125 22.34375,9.125 C22.34375,3.21875 17.765625,-1.375 12,-1.375 Z M11.828125,2.875 C14.546875,2.875 16.3125,4.21875 16.3125,6.390625 C16.3125,8.203125 15.234375,9.40625 12.9375,9.703125 C15,10.109375 15.9375,11.375 15.9375,12.71875 C15.9375,14.5 14.5625,15.8125 12.1875,15.8125 C10.34375,15.8125 8.515625,15.09375 8.25,13.296875 C8.359375,13.03125 8.609375,12.859375 8.953125,12.859375 C9.53125,12.859375 9.8125,13.03125 10.25,14.953125 C10.75,15.140625 11.1875,15.1875 11.71875,15.1875 C13.296875,15.1875 14.203125,14.234375 14.203125,12.671875 C14.203125,10.828125 12.953125,9.90625 11.296875,9.90625 L10.484375,9.90625 L10.484375,9.3125 L11.296875,9.3125 C13.46875,9.3125 14.515625,8.328125 14.546875,6.453125 C14.546875,4.609375 13.390625,3.5 11.40625,3.5 C10.6875,3.5 10.21875,3.578125 9.796875,3.796875 C9.5,5.765625 9.09375,5.96875 8.546875,5.96875 C8.203125,5.96875 7.890625,5.78125 7.796875,5.375 C8.140625,3.765625 9.625,2.875 11.828125,2.875 Z" transform="translate(0, 20.28125) scale(1, -1)"/>
</svg>