<svg height="22.328125" viewBox="0 0 24 22.328125" width="24" xmlns="http://www.w3.org/2000/svg">
<path d="M12,-2.046875 C18.171875,-2.046875 23.0625,2.828125 23.0625,9.125 C23.0625,15.390625 18.171875,20.28125 12,20.28125 C5.828125,20.28125 0.9375,15.390625 0.9375,9.125 C0.9375,2.859375 5.828125,-2.046875 12,-2.046875 Z M12,-1.375 C6.21875,-1.375 1.65625,3.21875 1.65625,9.125 C1.65625,15.03125 6.21875,19.609375 12,19.609375 C17.765625,19.609375 22.34375,15.03125 22.34375,9.125 C22.34375,3.21875 17.765625,-1.375 12,-1.375 Z M8.859375,2.875 C13.578125,4.078125 16.53125,6.9375 16.53125,10.6875 C16.53125,13.875 14.90625,15.8125 12.03125,15.8125 C9.71875,15.8125 7.734375,14.328125 7.703125,11.953125 C7.703125,9.59375 9.28125,8.109375 11.6875,8.109375 C12.90625,8.109375 13.921875,8.5 14.609375,9.140625 C14.046875,6.5 12.078125,4.609375 8.71875,3.4375 Z M14.71875,9.75 C14.0625,9.09375 13.171875,8.765625 12.28125,8.765625 C10.515625,8.765625 9.453125,10.0625 9.453125,12.03125 C9.453125,14.109375 10.65625,15.1875 12.03125,15.1875 C13.625,15.1875 14.78125,13.921875 14.78125,10.84375 C14.78125,10.46875 14.765625,10.109375 14.71875,9.75 Z" transform="translate(0, 20.28125) scale(1, -1)"/>
</svg>