<svg height="22.328125" viewBox="0 0 24 22.328125" width="24" xmlns="http://www.w3.org/2000/svg">
<path d="M15.171875,2.921875 C17.0625,2.921875 18.703125,4.609375 18.703125,9.34375 C18.703125,14.0625 17.0625,15.8125 15.171875,15.8125 C13.21875,15.8125 11.609375,14.0625 11.609375,9.34375 C11.609375,4.609375 13.21875,2.921875 15.171875,2.921875 Z M15.171875,3.5 C14.140625,3.5 13.21875,4.609375 13.21875,9.34375 C13.21875,14.109375 14.140625,15.21875 15.171875,15.21875 C16.203125,15.21875 17.109375,14.09375 17.109375,9.34375 C17.109375,4.609375 16.203125,3.5 15.171875,3.5 Z M12,-2.046875 C18.171875,-2.046875 23.0625,2.828125 23.0625,9.125 C23.0625,15.390625 18.171875,20.28125 12,20.28125 C5.828125,20.28125 0.9375,15.390625 0.9375,9.125 C0.9375,2.859375 5.828125,-2.046875 12,-2.046875 Z M12,-1.375 C6.21875,-1.375 1.65625,3.21875 1.65625,9.125 C1.65625,15.03125 6.21875,19.609375 12,19.609375 C17.765625,19.609375 22.34375,15.03125 22.34375,9.125 C22.34375,3.21875 17.765625,-1.375 12,-1.375 Z M7.4375,3.1875 L10.75,3.1875 L10.75,3.765625 L9.078125,3.859375 L9.03125,7.21875 L9.03125,12.765625 L9.125,15.53125 L8.859375,15.75 L5.78125,14.875 L5.78125,14.234375 L7.484375,14.5625 L7.484375,7.21875 L7.46875,3.890625 L5.6875,3.765625 L5.6875,3.1875 Z" transform="translate(0, 20.28125) scale(1, -1)"/>
</svg>