<svg height="22.328125" viewBox="0 0 24 22.328125" width="24" xmlns="http://www.w3.org/2000/svg">
<path d="M12,-2.046875 C18.171875,-2.046875 23.0625,2.828125 23.0625,9.125 C23.0625,15.390625 18.171875,20.28125 12,20.28125 C5.828125,20.28125 0.9375,15.390625 0.9375,9.125 C0.9375,2.859375 5.828125,-2.046875 12,-2.046875 Z M12,-1.375 C6.21875,-1.375 1.65625,3.21875 1.65625,9.125 C1.65625,15.03125 6.21875,19.609375 12,19.609375 C17.765625,19.609375 22.34375,15.03125 22.34375,9.125 C22.34375,3.21875 17.765625,-1.375 12,-1.375 Z M11.90625,3.1875 L19.015625,3.1875 L19.015625,4.515625 L13.03125,4.515625 C17.65625,9.21875 18.578125,10.734375 18.578125,12.625 C18.578125,14.5 17.40625,15.8125 15.28125,15.8125 C13.65625,15.8125 12.34375,15 11.96875,13.34375 C12.140625,12.984375 12.359375,12.796875 12.703125,12.796875 C13.265625,12.796875 13.515625,13.015625 13.9375,15 C14.25,15.140625 14.59375,15.1875 14.953125,15.1875 C16.265625,15.1875 16.984375,14.0625 16.984375,12.546875 C16.984375,10.9375 16.46875,9.40625 11.90625,4.15625 Z M7.4375,3.1875 L10.75,3.1875 L10.75,3.765625 L9.078125,3.859375 L9.03125,7.21875 L9.03125,12.765625 L9.125,15.53125 L8.859375,15.75 L5.78125,14.875 L5.78125,14.234375 L7.484375,14.5625 L7.484375,7.21875 L7.46875,3.890625 L5.6875,3.765625 L5.6875,3.1875 Z" transform="translate(0, 20.28125) scale(1, -1)"/>
</svg>