<svg height="22.328125" viewBox="0 0 24 22.328125" width="24" xmlns="http://www.w3.org/2000/svg">
<path d="M12,-2.046875 C18.171875,-2.046875 23.0625,2.828125 23.0625,9.125 C23.0625,15.390625 18.171875,20.28125 12,20.28125 C5.828125,20.28125 0.9375,15.390625 0.9375,9.125 C0.9375,2.859375 5.828125,-2.046875 12,-2.046875 Z M12,-1.375 C6.21875,-1.375 1.65625,3.21875 1.65625,9.125 C1.65625,15.03125 6.21875,19.609375 12,19.609375 C17.765625,19.609375 22.34375,15.03125 22.34375,9.125 C22.34375,3.21875 17.765625,-1.375 12,-1.375 Z M15.890625,3.1875 L17.359375,3.1875 L17.359375,6.578125 L18.859375,6.578125 L18.859375,7.796875 L17.359375,7.796875 L17.359375,15.625 L16.21875,15.625 L11.46875,7.53125 L11.46875,6.578125 L15.890625,6.578125 Z M12.34375,7.796875 L15.890625,13.84375 L15.890625,7.796875 Z M7.4375,3.1875 L10.75,3.1875 L10.75,3.765625 L9.078125,3.859375 L9.03125,7.21875 L9.03125,12.765625 L9.125,15.53125 L8.859375,15.75 L5.78125,14.875 L5.78125,14.234375 L7.484375,14.5625 L7.484375,7.21875 L7.46875,3.890625 L5.6875,3.765625 L5.6875,3.1875 Z" transform="translate(0, 20.28125) scale(1, -1)"/>
</svg>