<svg height="22.328125" viewBox="0 0 24 22.328125" width="24" xmlns="http://www.w3.org/2000/svg">
<path d="M12,-2.046875 C18.171875,-2.046875 23.0625,2.828125 23.0625,9.125 C23.0625,15.390625 18.171875,20.28125 12,20.28125 C5.828125,20.28125 0.9375,15.390625 0.9375,9.125 C0.9375,2.859375 5.828125,-2.046875 12,-2.046875 Z M12,-1.375 C6.21875,-1.375 1.65625,3.21875 1.65625,9.125 C1.65625,15.03125 6.21875,19.609375 12,19.609375 C17.765625,19.609375 22.34375,15.03125 22.34375,9.125 C22.34375,3.21875 17.765625,-1.375 12,-1.375 Z M15.34375,2.921875 C17.234375,2.921875 18.703125,4.421875 18.703125,6.9375 C18.703125,9.390625 17.546875,10.65625 15.859375,10.65625 C14.828125,10.65625 14.0625,10.25 13.390625,9.3125 C13.78125,12.359375 15.5,14.65625 18.359375,15.234375 L18.28125,15.8125 C14.359375,15.359375 11.78125,11.828125 11.78125,7.921875 C11.78125,4.65625 13.109375,2.921875 15.34375,2.921875 Z M13.3125,8.46875 C14.015625,9.578125 14.59375,9.9375 15.34375,9.9375 C16.4375,9.9375 17.15625,9.046875 17.15625,6.796875 C17.15625,4.46875 16.3125,3.546875 15.359375,3.546875 C14.09375,3.546875 13.3125,4.984375 13.3125,7.984375 Z M7.4375,3.1875 L10.75,3.1875 L10.75,3.765625 L9.078125,3.859375 L9.03125,7.21875 L9.03125,12.765625 L9.125,15.53125 L8.859375,15.75 L5.78125,14.875 L5.78125,14.234375 L7.484375,14.5625 L7.484375,7.21875 L7.46875,3.890625 L5.6875,3.765625 L5.6875,3.1875 Z" transform="translate(0, 20.28125) scale(1, -1)"/>
</svg>