<svg height="22.328125" viewBox="0 0 24 22.328125" width="24" xmlns="http://www.w3.org/2000/svg">
<path d="M12,-2.046875 C18.171875,-2.046875 23.0625,2.828125 23.0625,9.125 C23.0625,15.390625 18.171875,20.28125 12,20.28125 C5.828125,20.28125 0.9375,15.390625 0.9375,9.125 C0.9375,2.859375 5.828125,-2.046875 12,-2.046875 Z M12,-1.375 C6.21875,-1.375 1.65625,3.21875 1.65625,9.125 C1.65625,15.03125 6.21875,19.609375 12,19.609375 C17.765625,19.609375 22.34375,15.03125 22.34375,9.125 C22.34375,3.21875 17.765625,-1.375 12,-1.375 Z M15.125,2.921875 C17.453125,2.921875 19.015625,4.25 19.015625,6.40625 C19.015625,8.203125 18.046875,9.390625 16.015625,9.671875 C17.78125,10.078125 18.546875,11.375 18.546875,12.71875 C18.546875,14.5 17.421875,15.8125 15.390625,15.8125 C13.796875,15.8125 12.390625,15.140625 12.078125,13.390625 C12.1875,13.109375 12.40625,12.90625 12.75,12.90625 C13.25,12.90625 13.53125,13.109375 13.921875,15.03125 C14.25,15.140625 14.59375,15.1875 15,15.1875 C16.25,15.1875 17.015625,14.234375 17.015625,12.671875 C17.015625,10.875 16.015625,9.90625 14.453125,9.90625 L13.75,9.90625 L13.75,9.3125 L14.515625,9.3125 C16.4375,9.3125 17.40625,8.328125 17.40625,6.453125 C17.40625,4.609375 16.390625,3.546875 14.640625,3.546875 C14.203125,3.546875 13.84375,3.59375 13.53125,3.71875 C13.21875,5.78125 12.984375,5.96875 12.4375,5.96875 C12.09375,5.96875 11.828125,5.765625 11.71875,5.375 C12.03125,3.765625 13.15625,2.921875 15.125,2.921875 Z M7.4375,3.1875 L10.75,3.1875 L10.75,3.765625 L9.078125,3.859375 L9.03125,7.21875 L9.03125,12.765625 L9.125,15.53125 L8.859375,15.75 L5.78125,14.875 L5.78125,14.234375 L7.484375,14.5625 L7.484375,7.21875 L7.46875,3.890625 L5.6875,3.765625 L5.6875,3.1875 Z" transform="translate(0, 20.28125) scale(1, -1)"/>
</svg>