<svg height="22.21875" viewBox="0 0 24 22.21875" width="24" xmlns="http://www.w3.org/2000/svg">
<path d="M21.625,9.125 C21.625,5.546875 20.59375,2.015625 17.859375,-1.53125 L18.3125,-1.984375 C21.8125,1.515625 23.203125,5.28125 23.203125,9.125 C23.203125,12.953125 21.8125,16.734375 18.3125,20.234375 L17.859375,19.78125 C20.59375,16.21875 21.625,12.703125 21.625,9.125 Z M2.375,9.125 C2.375,12.703125 3.40625,16.21875 6.140625,19.78125 L5.6875,20.234375 C2.1875,16.734375 0.796875,12.953125 0.796875,9.125 C0.796875,5.28125 2.1875,1.515625 5.6875,-1.984375 L6.140625,-1.53125 C3.40625,2.015625 2.375,5.546875 2.375,9.125 Z M11.8125,0.09375 C15.3125,0.09375 17.359375,1.796875 17.359375,4.4375 C17.359375,6.703125 16.171875,8.25 12.984375,9.75 C15.671875,10.984375 16.703125,12.40625 16.703125,14.15625 C16.703125,16.484375 15.03125,18.140625 12.078125,18.140625 C9.3125,18.140625 7.171875,16.375 7.171875,13.78125 C7.171875,11.640625 8.328125,10.078125 10.78125,8.875 C8.046875,7.625 6.671875,6.265625 6.671875,4.15625 C6.671875,1.6875 8.46875,0.09375 11.8125,0.09375 Z M12.40625,10.015625 C9.71875,11.296875 8.875,12.640625 8.875,14.234375 C8.875,16.125 10.3125,17.375 12.03125,17.375 C13.921875,17.375 15.046875,16.015625 15.046875,14.28125 C15.046875,12.484375 14.296875,11.421875 12.40625,10.015625 Z M11.359375,8.609375 C14.734375,7.078125 15.578125,5.8125 15.578125,4.0625 C15.578125,2.0625 14.234375,0.84375 11.96875,0.84375 C9.71875,0.84375 8.359375,2.203125 8.359375,4.265625 C8.359375,6.078125 9.171875,7.15625 11.359375,8.609375 Z" transform="translate(0, 20.234375) scale(1, -1)"/>
</svg>