<svg height="22.21875" viewBox="0 0 24 22.21875" width="24" xmlns="http://www.w3.org/2000/svg">
<path d="M21.625,9.125 C21.625,5.546875 20.59375,2.015625 17.859375,-1.53125 L18.3125,-1.984375 C21.8125,1.515625 23.203125,5.28125 23.203125,9.125 C23.203125,12.953125 21.8125,16.734375 18.3125,20.234375 L17.859375,19.78125 C20.59375,16.21875 21.625,12.703125 21.625,9.125 Z M2.375,9.125 C2.375,12.703125 3.40625,16.21875 6.140625,19.78125 L5.6875,20.234375 C2.1875,16.734375 0.796875,12.953125 0.796875,9.125 C0.796875,5.28125 2.1875,1.515625 5.6875,-1.984375 L6.140625,-1.53125 C3.40625,2.015625 2.375,5.546875 2.375,9.125 Z M11.453125,0.09375 C15.21875,0.09375 17.46875,2.328125 17.46875,5.765625 C17.46875,9.046875 15.484375,11.15625 12.046875,11.15625 C10.78125,11.15625 9.640625,10.84375 8.59375,10.25 L8.96875,15.984375 L16.78125,15.984375 L16.78125,17.6875 L8.15625,17.6875 L7.609375,9.359375 L8.15625,9.21875 C9.21875,9.890625 10.296875,10.171875 11.453125,10.171875 C13.828125,10.171875 15.390625,8.640625 15.390625,5.609375 C15.390625,2.5625 13.828125,0.859375 11.203125,0.859375 C10.265625,0.859375 9.59375,1.015625 8.96875,1.265625 C8.40625,3.953125 8.046875,4.25 7.390625,4.25 C6.9375,4.25 6.59375,3.984375 6.453125,3.484375 C6.9375,1.203125 8.8125,0.09375 11.453125,0.09375 Z" transform="translate(0, 20.234375) scale(1, -1)"/>
</svg>