<svg height="22.21875" viewBox="0 0 24 22.21875" width="24" xmlns="http://www.w3.org/2000/svg">
<path d="M21.625,9.125 C21.625,5.546875 20.59375,2.015625 17.859375,-1.53125 L18.3125,-1.984375 C21.8125,1.515625 23.203125,5.28125 23.203125,9.125 C23.203125,12.953125 21.8125,16.734375 18.3125,20.234375 L17.859375,19.78125 C20.59375,16.21875 21.625,12.703125 21.625,9.125 Z M2.375,9.125 C2.375,12.703125 3.40625,16.21875 6.140625,19.78125 L5.6875,20.234375 C2.1875,16.734375 0.796875,12.953125 0.796875,9.125 C0.796875,5.28125 2.1875,1.515625 5.6875,-1.984375 L6.140625,-1.53125 C3.40625,2.015625 2.375,5.546875 2.375,9.125 Z M6.796875,0.484375 L17.46875,0.484375 L17.46875,2.1875 L8.296875,2.1875 C15.265625,8.953125 16.6875,10.890625 16.6875,13.578125 C16.6875,16.296875 15,18.140625 11.8125,18.140625 C9.453125,18.140625 7.53125,17.109375 6.984375,14.78125 C7.15625,14.328125 7.484375,14.0625 7.9375,14.0625 C8.6875,14.0625 9.046875,14.359375 9.59375,16.984375 C10.203125,17.25 10.75,17.359375 11.375,17.359375 C13.484375,17.359375 14.609375,15.71875 14.609375,13.5625 C14.609375,11.109375 13.6875,9.1875 6.796875,1.703125 Z" transform="translate(0, 20.234375) scale(1, -1)"/>
</svg>