<svg height="22.359375" viewBox="0 0 24 22.359375" width="24" xmlns="http://www.w3.org/2000/svg">
<path d="M15.40625,0.09375 C17.046875,0.09375 18.359375,1.890625 18.359375,9.09375 C18.359375,16.296875 17.046875,18.140625 15.40625,18.140625 C13.703125,18.140625 12.4375,16.296875 12.4375,9.09375 C12.4375,1.890625 13.703125,0.09375 15.40625,0.09375 Z M15.40625,0.765625 C14.515625,0.765625 13.875,1.921875 13.875,9.09375 C13.875,16.296875 14.546875,17.46875 15.40625,17.46875 C16.25,17.46875 16.890625,16.265625 16.890625,9.09375 C16.890625,1.921875 16.25,0.765625 15.40625,0.765625 Z M21.8125,9.125 C21.8125,5.65625 20.90625,2.09375 18.1875,-1.625 L18.71875,-2.0625 C22.03125,1.703125 23.203125,5.453125 23.203125,9.125 C23.203125,12.796875 22.03125,16.53125 18.71875,20.296875 L18.1875,19.875 C20.90625,16.15625 21.8125,12.578125 21.8125,9.125 Z M2.1875,9.125 C2.1875,12.578125 3.09375,16.15625 5.8125,19.875 L5.28125,20.296875 C1.96875,16.53125 0.796875,12.796875 0.796875,9.125 C0.796875,5.453125 1.96875,1.703125 5.28125,-2.0625 L5.8125,-1.625 C3.09375,2.09375 2.1875,5.65625 2.1875,9.125 Z M8.1875,0.484375 L11.640625,0.484375 L11.640625,1.109375 L9.703125,1.265625 L9.640625,6.125 L9.640625,13.890625 L9.75,17.765625 L9.390625,18.078125 L6.140625,17.046875 L6.140625,16.296875 L8.234375,16.75 L8.234375,6.125 L8.1875,1.265625 L6.09375,1.109375 L6.09375,0.484375 Z" transform="translate(0, 20.296875) scale(1, -1)"/>
</svg>