<svg height="22.328125" viewBox="0 0 24 22.328125" width="24" xmlns="http://www.w3.org/2000/svg">
<path d="M12,-2.046875 C18.171875,-2.046875 23.0625,2.828125 23.0625,9.125 C23.0625,15.390625 18.171875,20.28125 12,20.28125 C5.828125,20.28125 0.9375,15.390625 0.9375,9.125 C0.9375,2.859375 5.828125,-2.046875 12,-2.046875 Z M12,-1.375 C6.21875,-1.375 1.65625,3.21875 1.65625,9.125 C1.65625,15.03125 6.21875,19.609375 12,19.609375 C17.765625,19.609375 22.34375,15.03125 22.34375,9.125 C22.34375,3.21875 17.765625,-1.375 12,-1.375 Z M12.546875,2.921875 C16.53125,3.859375 18.796875,6.9375 18.796875,10.625 C18.796875,13.984375 17.5,15.8125 15.28125,15.8125 C13.34375,15.8125 11.875,14.25 11.875,11.953125 C11.875,9.390625 13.203125,8.109375 15,8.109375 C15.890625,8.109375 16.5625,8.453125 17.0625,9.03125 C16.609375,6.34375 15.09375,4.421875 12.4375,3.484375 Z M17.140625,9.640625 C16.6875,9.09375 16.171875,8.78125 15.5,8.78125 C14.375,8.765625 13.421875,9.953125 13.421875,12.03125 C13.421875,13.984375 14.140625,15.1875 15.234375,15.1875 C16.46875,15.1875 17.203125,13.96875 17.203125,10.890625 C17.203125,10.46875 17.1875,10.0625 17.140625,9.640625 Z M7.4375,3.1875 L10.75,3.1875 L10.75,3.765625 L9.078125,3.859375 L9.03125,7.21875 L9.03125,12.765625 L9.125,15.53125 L8.859375,15.75 L5.78125,14.875 L5.78125,14.234375 L7.484375,14.5625 L7.484375,7.21875 L7.46875,3.890625 L5.6875,3.765625 L5.6875,3.1875 Z" transform="translate(0, 20.28125) scale(1, -1)"/>
</svg>