<svg height="18.765625" viewBox="0 0 24 18.765625" width="24" xmlns="http://www.w3.org/2000/svg">
<path d="M18.640625,-0.28125 C19.4375,-0.28125 19.984375,0.359375 19.984375,1.0625 C19.984375,1.828125 19.4375,2.453125 18.640625,2.453125 C17.859375,2.453125 17.296875,1.828125 17.296875,1.0625 C17.296875,0.359375 17.859375,-0.28125 18.640625,-0.28125 Z M9.34375,-0.40625 C12.890625,-0.40625 15.28125,1.484375 15.28125,4.53125 C15.28125,7.296875 13.75,9.046875 10.578125,9.40625 C13.390625,10.015625 14.71875,11.96875 14.71875,14.046875 C14.71875,16.53125 12.90625,18.359375 9.71875,18.359375 C7.34375,18.359375 4.96875,17.421875 4.53125,14.953125 C4.6875,14.609375 5.015625,14.359375 5.421875,14.359375 C6.171875,14.359375 6.546875,14.5625 7.125,17.1875 C7.796875,17.46875 8.453125,17.5625 9.21875,17.5625 C11.375,17.5625 12.625,16.171875 12.625,13.96875 C12.625,11.15625 10.921875,9.71875 8.59375,9.71875 L7.46875,9.71875 L7.46875,8.953125 L8.609375,8.953125 C11.609375,8.953125 13.109375,7.46875 13.109375,4.609375 C13.109375,1.984375 11.546875,0.390625 8.8125,0.390625 C7.78125,0.390625 7.125,0.5 6.53125,0.8125 C6.078125,3.453125 5.640625,3.765625 4.9375,3.765625 C4.46875,3.765625 4.078125,3.5 3.984375,2.96875 C4.46875,0.796875 6.40625,-0.40625 9.34375,-0.40625 Z" transform="translate(0.015625, 18.359375) scale(1, -1)"/>
</svg>