<svg height="22.359375" viewBox="0 0 24 22.359375" width="24" xmlns="http://www.w3.org/2000/svg">
<path d="M21.8125,9.125 C21.8125,5.65625 20.90625,2.09375 18.1875,-1.625 L18.71875,-2.0625 C22.03125,1.703125 23.203125,5.453125 23.203125,9.125 C23.203125,12.796875 22.03125,16.53125 18.71875,20.296875 L18.1875,19.875 C20.90625,16.15625 21.8125,12.578125 21.8125,9.125 Z M2.1875,9.125 C2.1875,12.578125 3.09375,16.15625 5.8125,19.875 L5.28125,20.296875 C1.96875,16.53125 0.796875,12.796875 0.796875,9.125 C0.796875,5.453125 1.96875,1.703125 5.28125,-2.0625 L5.8125,-1.625 C3.09375,2.09375 2.1875,5.65625 2.1875,9.125 Z M12.671875,0.09375 C16.25,1.921875 18.4375,5.8125 18.4375,11.203125 C18.4375,15.9375 17.28125,18.140625 15.28125,18.140625 C13.484375,18.140625 12.171875,16.125 12.1875,12.765625 C12.21875,9.078125 13.46875,7.4375 15.09375,7.4375 C15.8125,7.4375 16.421875,7.828125 16.84375,8.546875 C16.421875,4.5625 14.921875,2.28125 12.40625,0.671875 Z M16.921875,9.40625 C16.5625,8.609375 16.078125,8.15625 15.484375,8.140625 C14.546875,8.109375 13.609375,9.5 13.609375,12.75 C13.609375,16.015625 14.25,17.453125 15.28125,17.453125 C16.34375,17.453125 16.96875,15.671875 16.96875,11.203125 C16.96875,10.578125 16.9375,9.984375 16.921875,9.40625 Z M8.109375,0.484375 L11.5625,0.484375 L11.5625,1.109375 L9.625,1.265625 L9.578125,6.125 L9.578125,13.890625 L9.671875,17.765625 L9.34375,18.078125 L6.078125,17.046875 L6.078125,16.296875 L8.15625,16.75 L8.15625,6.125 L8.109375,1.265625 L6.046875,1.109375 L6.046875,0.484375 Z" transform="translate(0, 20.296875) scale(1, -1)"/>
</svg>