<svg height="18.75" viewBox="0 0 24 18.75" width="24" xmlns="http://www.w3.org/2000/svg">
<path d="M18.703125,-0.28125 C19.484375,-0.28125 20.046875,0.359375 20.046875,1.0625 C20.046875,1.828125 19.484375,2.453125 18.703125,2.453125 C17.875,2.453125 17.328125,1.828125 17.328125,1.0625 C17.328125,0.359375 17.875,-0.28125 18.703125,-0.28125 Z M9.84375,-0.40625 C13.015625,-0.40625 15.453125,1.921875 15.453125,5.515625 C15.453125,8.90625 13.578125,10.890625 10.578125,10.890625 C8.859375,10.890625 7.4375,10.296875 6.28125,8.828125 C6.984375,13.21875 9.90625,16.6875 15,17.6875 L14.90625,18.34375 C8.1875,17.5625 3.953125,12.390625 3.953125,6.84375 C3.953125,2.375 6.140625,-0.40625 9.84375,-0.40625 Z M6.171875,7.890625 C7.34375,9.4375 8.546875,9.9375 9.890625,9.9375 C12,9.9375 13.375,8.359375 13.375,5.328125 C13.375,2.09375 11.765625,0.390625 9.890625,0.390625 C7.46875,0.390625 6.125,2.875 6.125,6.71875 Z" transform="translate(0, 18.34375) scale(1, -1)"/>
</svg>