<svg height="18.59375" viewBox="0 0 24 18.59375" width="24" xmlns="http://www.w3.org/2000/svg">
<path d="M18.171875,-0.28125 C18.984375,-0.28125 19.515625,0.359375 19.515625,1.0625 C19.515625,1.828125 18.984375,2.453125 18.171875,2.453125 C17.375,2.453125 16.828125,1.828125 16.828125,1.0625 C16.828125,0.359375 17.375,-0.28125 18.171875,-0.28125 Z M8.453125,0 L14.5,0 L14.5,0.71875 L10.609375,0.90625 C10.578125,2.5625 10.5625,4.21875 10.5625,5.875 L10.5625,13.890625 L10.65625,17.96875 L10.296875,18.3125 L4.890625,16.84375 L4.890625,16.0625 L8.515625,16.75 L8.515625,5.875 C8.515625,4.21875 8.5,2.5625 8.46875,0.90625 L4.4375,0.71875 L4.4375,0 Z" transform="translate(0.0234375, 18.3125) scale(1, -1)"/>
</svg>