<svg height="22.359375" viewBox="0 0 24 22.359375" width="24" xmlns="http://www.w3.org/2000/svg">
<path d="M21.8125,9.125 C21.8125,5.65625 20.90625,2.09375 18.1875,-1.625 L18.71875,-2.0625 C22.03125,1.703125 23.203125,5.453125 23.203125,9.125 C23.203125,12.796875 22.03125,16.53125 18.71875,20.296875 L18.1875,19.875 C20.90625,16.15625 21.8125,12.578125 21.8125,9.125 Z M2.1875,9.125 C2.1875,12.578125 3.09375,16.15625 5.8125,19.875 L5.28125,20.296875 C1.96875,16.53125 0.796875,12.796875 0.796875,9.125 C0.796875,5.453125 1.96875,1.703125 5.28125,-2.0625 L5.8125,-1.625 C3.09375,2.09375 2.1875,5.65625 2.1875,9.125 Z M15.71875,0.484375 L17.09375,0.484375 L17.09375,5.453125 L18.625,5.453125 L18.625,6.703125 L17.09375,6.703125 L17.09375,17.875 L16.03125,17.875 L11.609375,6.4375 L11.609375,5.453125 L15.71875,5.453125 Z M12.4375,6.703125 L15.71875,15.28125 L15.71875,6.703125 Z M7.921875,0.484375 L11.375,0.484375 L11.375,1.109375 L9.4375,1.265625 L9.390625,6.125 L9.390625,13.890625 L9.484375,17.765625 L9.140625,18.078125 L5.875,17.046875 L5.875,16.296875 L7.96875,16.75 L7.96875,6.125 L7.921875,1.265625 L5.859375,1.109375 L5.859375,0.484375 Z" transform="translate(0, 20.296875) scale(1, -1)"/>
</svg>