<svg height="18.359375" viewBox="0 0 24 18.359375" width="24" xmlns="http://www.w3.org/2000/svg">
<path d="M18.703125,-0.28125 C19.515625,-0.28125 20.0625,0.359375 20.0625,1.0625 C20.0625,1.828125 19.515625,2.453125 18.703125,2.453125 C17.90625,2.453125 17.359375,1.828125 17.359375,1.0625 C17.359375,0.359375 17.90625,-0.28125 18.703125,-0.28125 Z M9.21875,-0.40625 C13.25,-0.40625 15.625,2.015625 15.625,5.5625 C15.625,8.921875 13.609375,11.15625 9.859375,11.15625 C8.453125,11.15625 7.265625,10.796875 6.171875,10.171875 L6.578125,16.203125 L14.96875,16.203125 L14.96875,17.953125 L5.78125,17.953125 L5.1875,9.28125 L5.734375,9.09375 C6.890625,9.84375 7.984375,10.15625 9.21875,10.15625 C11.765625,10.15625 13.46875,8.546875 13.46875,5.421875 C13.46875,2.25 11.78125,0.390625 9.078125,0.390625 C7.96875,0.390625 7.171875,0.546875 6.484375,0.890625 C5.90625,3.484375 5.515625,3.765625 4.875,3.765625 C4.421875,3.765625 4.0625,3.53125 3.890625,3.078125 C4.34375,0.796875 6.390625,-0.40625 9.21875,-0.40625 Z" transform="translate(0.0234375, 17.953125) scale(1, -1)"/>
</svg>