<svg height="22.359375" viewBox="0 0 24 22.359375" width="24" xmlns="http://www.w3.org/2000/svg">
<path d="M21.8125,9.125 C21.8125,5.65625 20.90625,2.09375 18.1875,-1.625 L18.71875,-2.0625 C22.03125,1.703125 23.203125,5.453125 23.203125,9.125 C23.203125,12.796875 22.03125,16.53125 18.71875,20.296875 L18.1875,19.875 C20.90625,16.15625 21.8125,12.578125 21.8125,9.125 Z M2.1875,9.125 C2.1875,12.578125 3.09375,16.15625 5.8125,19.875 L5.28125,20.296875 C1.96875,16.53125 0.796875,12.796875 0.796875,9.125 C0.796875,5.453125 1.96875,1.703125 5.28125,-2.0625 L5.8125,-1.625 C3.09375,2.09375 2.1875,5.65625 2.1875,9.125 Z M14.921875,0.09375 C17.046875,0.09375 18.453125,1.96875 18.453125,4.96875 C18.453125,7.484375 17.40625,9.21875 15.171875,9.53125 C17.328125,10.015625 18.21875,11.875 18.21875,13.890625 C18.21875,16.3125 17.109375,18.140625 15.234375,18.140625 C13.734375,18.140625 12.53125,17.109375 12.28125,14.859375 C12.4375,14.59375 12.71875,14.453125 12.984375,14.453125 C13.4375,14.453125 13.75,14.65625 13.9375,17.15625 C14.25,17.421875 14.5625,17.5 14.953125,17.5 C16.0625,17.5 16.796875,16.109375 16.796875,13.84375 C16.796875,11.234375 15.765625,9.84375 14.0625,9.84375 L13.6875,9.84375 L13.6875,9.171875 L14.140625,9.171875 C16.15625,9.171875 16.984375,7.796875 16.984375,5.015625 C16.984375,2.328125 16.078125,0.75 14.640625,0.75 C14.25,0.75 13.9375,0.8125 13.609375,1.0625 C13.484375,3.703125 13.21875,3.953125 12.71875,3.953125 C12.4375,3.953125 12.125,3.765625 11.96875,3.40625 C12.1875,1.203125 13.203125,0.09375 14.921875,0.09375 Z M8.0625,0.484375 L11.515625,0.484375 L11.515625,1.109375 L9.578125,1.265625 L9.53125,6.125 L9.53125,13.890625 L9.625,17.765625 L9.28125,18.078125 L6.03125,17.046875 L6.03125,16.296875 L8.109375,16.75 L8.109375,6.125 L8.0625,1.265625 L6,1.109375 L6,0.484375 Z" transform="translate(0, 20.296875) scale(1, -1)"/>
</svg>