<svg height="22.359375" viewBox="0 0 24 22.359375" width="24" xmlns="http://www.w3.org/2000/svg">
<path d="M21.8125,9.125 C21.8125,5.65625 20.90625,2.09375 18.1875,-1.625 L18.71875,-2.0625 C22.03125,1.703125 23.203125,5.453125 23.203125,9.125 C23.203125,12.796875 22.03125,16.53125 18.71875,20.296875 L18.1875,19.875 C20.90625,16.15625 21.8125,12.578125 21.8125,9.125 Z M2.1875,9.125 C2.1875,12.578125 3.09375,16.15625 5.8125,19.875 L5.28125,20.296875 C1.96875,16.53125 0.796875,12.796875 0.796875,9.125 C0.796875,5.453125 1.96875,1.703125 5.28125,-2.0625 L5.8125,-1.625 C3.09375,2.09375 2.1875,5.65625 2.1875,9.125 Z M13.34375,0 C15.703125,0 17.640625,1.796875 17.640625,6.75 C17.640625,11.734375 15.90625,13.46875 13.53125,13.46875 C12.34375,13.46875 11.1875,12.859375 10.3125,11.328125 L10.3125,15.90625 L10.390625,19.703125 L10.015625,19.921875 L6.53125,19.34375 L6.53125,18.671875 L8.40625,18.578125 L8.40625,5.875 L8.359375,1.25 L6.796875,1.109375 L6.796875,0.359375 L10.109375,0.1875 L10.3125,1.9375 C11.140625,0.546875 12.21875,0 13.34375,0 Z M10.34375,10.484375 C11.15625,11.734375 11.953125,12.1875 12.90625,12.1875 C14.546875,12.1875 15.625,11.046875 15.625,6.75 C15.625,2.40625 14.421875,1.25 12.8125,1.25 C11.828125,1.25 11.140625,1.703125 10.34375,2.78125 Z" transform="translate(0, 20.296875) scale(1, -1)"/>
</svg>