<svg height="18.703125" viewBox="0 0 24 18.703125" width="24" xmlns="http://www.w3.org/2000/svg">
<path d="M14.953125,-0.390625 C17.203125,-0.390625 19.109375,1.875 19.109375,8.953125 C19.109375,16.0625 17.203125,18.3125 14.953125,18.3125 C12.640625,18.3125 10.78125,16.0625 10.78125,8.953125 C10.78125,1.875 12.640625,-0.390625 14.953125,-0.390625 Z M14.953125,0.34375 C13.65625,0.34375 12.578125,1.84375 12.578125,8.953125 C12.578125,16.078125 13.65625,17.59375 14.953125,17.59375 C16.203125,17.59375 17.28125,16.0625 17.28125,8.953125 C17.28125,1.875 16.203125,0.34375 14.953125,0.34375 Z M21.328125,-0.28125 C22.125,-0.28125 22.6875,0.359375 22.6875,1.0625 C22.6875,1.828125 22.125,2.453125 21.328125,2.453125 C20.546875,2.453125 19.984375,1.828125 19.984375,1.0625 C19.984375,0.359375 20.546875,-0.28125 21.328125,-0.28125 Z M1.296875,0 L9.84375,0 L9.84375,1.609375 L2.546875,1.609375 C8.109375,8.78125 9.3125,11.328125 9.3125,13.984375 C9.3125,16.609375 7.921875,18.3125 5.40625,18.3125 C3.4375,18.3125 1.890625,17.234375 1.484375,15.03125 C1.65625,14.5625 1.96875,14.328125 2.359375,14.328125 C3,14.328125 3.3125,14.609375 3.765625,17.328125 C4.171875,17.515625 4.5625,17.59375 5.015625,17.59375 C6.671875,17.59375 7.5625,16.15625 7.5625,13.9375 C7.5625,11.609375 6.84375,9.1875 1.296875,1.171875 Z" transform="translate(0.0078125, 18.3125) scale(1, -1)"/>
</svg>