<svg height="18.75" viewBox="0 0 24 18.75" width="24" xmlns="http://www.w3.org/2000/svg">
<path d="M19.984375,-0.28125 C20.8125,-0.28125 21.359375,0.359375 21.359375,1.0625 C21.359375,1.828125 20.8125,2.453125 19.984375,2.453125 C19.203125,2.453125 18.640625,1.828125 18.640625,1.0625 C18.640625,0.359375 19.203125,-0.28125 19.984375,-0.28125 Z M10.703125,-0.390625 C15.484375,1.25 18.21875,5.546875 18.21875,10.984375 C18.21875,15.859375 16.6875,18.359375 14.0625,18.359375 C11.65625,18.359375 9.953125,16.15625 9.953125,12.796875 C9.984375,9.03125 11.609375,7.21875 13.6875,7.21875 C14.734375,7.21875 15.625,7.734375 16.265625,8.59375 C15.75,4.515625 13.84375,1.78125 10.515625,0.265625 Z M16.375,9.40625 C15.765625,8.5 15.03125,8.015625 14.234375,7.984375 C12.9375,7.984375 11.6875,9.546875 11.6875,12.8125 C11.6875,15.90625 12.59375,17.640625 14.015625,17.640625 C15.5,17.640625 16.4375,15.75 16.4375,11.1875 C16.4375,10.5625 16.421875,9.984375 16.375,9.40625 Z M4.96875,0 L9.03125,0 L9.03125,0.703125 L6.8125,0.859375 L6.765625,5.875 L6.765625,13.9375 L6.859375,17.96875 L6.5,18.3125 L2.71875,17.109375 L2.71875,16.296875 L5.015625,16.78125 L5.015625,5.875 L4.96875,0.859375 L2.609375,0.703125 L2.609375,0 Z" transform="translate(0.015625, 18.359375) scale(1, -1)"/>
</svg>