<svg height="18.703125" viewBox="0 0 24 18.703125" width="24" xmlns="http://www.w3.org/2000/svg">
<path d="M20.953125,-0.28125 C21.765625,-0.28125 22.3125,0.359375 22.3125,1.0625 C22.3125,1.828125 21.765625,2.453125 20.953125,2.453125 C20.1875,2.453125 19.609375,1.828125 19.609375,1.0625 C19.609375,0.359375 20.1875,-0.28125 20.953125,-0.28125 Z M13.0625,-0.390625 C15.8125,-0.390625 17.515625,1.21875 17.515625,3.890625 C17.515625,6.234375 16.421875,7.796875 13.984375,9.59375 C16.171875,11.109375 16.9375,12.578125 16.9375,14.375 C16.9375,16.6875 15.671875,18.3125 13.296875,18.3125 C11.109375,18.3125 9.40625,16.609375 9.40625,14.09375 C9.40625,11.875 10.34375,10.3125 12.28125,8.8125 C10.03125,7.21875 8.921875,5.828125 8.921875,3.75 C8.921875,1.203125 10.4375,-0.390625 13.0625,-0.390625 Z M13.5625,9.90625 C11.5,11.5 10.890625,12.859375 10.890625,14.515625 C10.890625,16.421875 11.96875,17.59375 13.25,17.59375 C14.71875,17.59375 15.53125,16.296875 15.53125,14.46875 C15.53125,12.59375 14.96875,11.5 13.5625,9.90625 Z M12.71875,8.515625 C15.265625,6.703125 15.953125,5.28125 15.953125,3.53125 C15.953125,1.484375 14.953125,0.34375 13.171875,0.34375 C11.546875,0.34375 10.421875,1.734375 10.421875,3.859375 C10.421875,5.71875 11.015625,6.8125 12.71875,8.515625 Z M4.03125,0 L8.109375,0 L8.109375,0.703125 L5.875,0.859375 C5.859375,2.515625 5.828125,4.21875 5.828125,5.875 L5.828125,13.9375 L5.921875,17.96875 L5.5625,18.3125 L1.796875,17.109375 L1.796875,16.296875 L4.109375,16.78125 L4.109375,5.875 C4.109375,4.21875 4.078125,2.546875 4.0625,0.859375 L1.6875,0.703125 L1.6875,0 Z" transform="translate(0, 18.3125) scale(1, -1)"/>
</svg>