<svg height="18.59375" viewBox="0 0 24 18.59375" width="24" xmlns="http://www.w3.org/2000/svg">
<path d="M20.09375,-0.28125 C20.90625,-0.28125 21.4375,0.359375 21.4375,1.0625 C21.4375,1.828125 20.90625,2.453125 20.09375,2.453125 C19.296875,2.453125 18.75,1.828125 18.75,1.0625 C18.75,0.359375 19.296875,-0.28125 20.09375,-0.28125 Z M11.640625,0 L13.34375,0 L18.359375,16.875 L18.359375,17.921875 L9.890625,17.921875 L9.890625,16.3125 L17.359375,16.3125 L11.5,0.140625 Z M4.875,0 L8.953125,0 L8.953125,0.703125 L6.75,0.859375 L6.703125,5.875 L6.703125,13.9375 L6.796875,17.96875 L6.4375,18.3125 L2.640625,17.109375 L2.640625,16.296875 L4.921875,16.78125 L4.921875,5.875 L4.875,0.859375 L2.515625,0.703125 L2.515625,0 Z" transform="translate(0.0234375, 18.3125) scale(1, -1)"/>
</svg>