<svg height="18.59375" viewBox="0 0 24 18.59375" width="24" xmlns="http://www.w3.org/2000/svg">
<path d="M20.875,-0.28125 C21.703125,-0.28125 22.21875,0.359375 22.21875,1.0625 C22.21875,1.828125 21.703125,2.453125 20.875,2.453125 C20.09375,2.453125 19.53125,1.828125 19.53125,1.0625 C19.53125,0.359375 20.09375,-0.28125 20.875,-0.28125 Z M14.203125,0 L15.890625,0 L15.890625,5.09375 L17.90625,5.09375 L17.90625,6.53125 L15.890625,6.53125 L15.890625,18.125 L14.609375,18.125 L8.65625,6.265625 L8.65625,5.09375 L14.203125,5.09375 Z M9.640625,6.53125 L14.203125,15.640625 L14.203125,6.53125 Z M4.109375,0 L8.1875,0 L8.1875,0.703125 L5.953125,0.859375 L5.90625,5.875 L5.90625,13.9375 L6,17.96875 L5.640625,18.3125 L1.84375,17.109375 L1.84375,16.296875 L4.15625,16.78125 L4.15625,5.875 L4.109375,0.859375 L1.734375,0.703125 L1.734375,0 Z" transform="translate(0.0234375, 18.3125) scale(1, -1)"/>
</svg>