<svg height="22.359375" viewBox="0 0 24 22.359375" width="24" xmlns="http://www.w3.org/2000/svg">
<path d="M21.8125,9.125 C21.8125,5.65625 20.90625,2.09375 18.1875,-1.625 L18.71875,-2.0625 C22.03125,1.703125 23.203125,5.453125 23.203125,9.125 C23.203125,12.796875 22.03125,16.53125 18.71875,20.296875 L18.1875,19.875 C20.90625,16.15625 21.8125,12.578125 21.8125,9.125 Z M2.1875,9.125 C2.1875,12.578125 3.09375,16.15625 5.8125,19.875 L5.28125,20.296875 C1.96875,16.53125 0.796875,12.796875 0.796875,9.125 C0.796875,5.453125 1.96875,1.703125 5.28125,-2.0625 L5.8125,-1.625 C3.09375,2.09375 2.1875,5.65625 2.1875,9.125 Z M10.96875,4.578125 C12.140625,4.578125 13.296875,5.15625 14.1875,6.703125 L14.1875,4.15625 L14.140625,-0.578125 L11.828125,-0.75 L11.828125,-1.46875 L17.765625,-1.46875 L17.765625,-0.75 L16.15625,-0.578125 L16.109375,4.15625 L16.109375,14.140625 L16.171875,17.6875 L15.671875,17.8125 L14.28125,15.953125 C13.4375,17.453125 12.34375,18.03125 11.15625,18.03125 C8.8125,18.03125 6.859375,16.21875 6.859375,11.296875 C6.859375,6.28125 8.5625,4.578125 10.96875,4.578125 Z M14.15625,7.53125 C13.3125,6.28125 12.546875,5.828125 11.640625,5.828125 C9.9375,5.828125 8.859375,7.015625 8.859375,11.296875 C8.859375,15.625 10.078125,16.78125 11.734375,16.78125 C12.640625,16.78125 13.375,16.3125 14.15625,15.234375 Z" transform="translate(0, 20.296875) scale(1, -1)"/>
</svg>