<svg height="26.0625" viewBox="0 0 24 26.0625" width="24" xmlns="http://www.w3.org/2000/svg">
<path d="M14.046875,18.53125 C14.828125,18.53125 15.453125,19.109375 15.453125,19.921875 C15.453125,20.734375 14.828125,21.3125 14.046875,21.3125 C13.3125,21.3125 12.640625,20.734375 12.640625,19.921875 C12.640625,19.109375 13.3125,18.53125 14.046875,18.53125 Z M21.8125,9.125 C21.8125,5.65625 20.90625,2.09375 18.1875,-1.625 L18.71875,-2.0625 C22.03125,1.703125 23.203125,5.453125 23.203125,9.125 C23.203125,12.796875 22.03125,16.53125 18.71875,20.296875 L18.1875,19.875 C20.90625,16.15625 21.8125,12.578125 21.8125,9.125 Z M2.1875,9.125 C2.1875,12.578125 3.09375,16.15625 5.8125,19.875 L5.28125,20.296875 C1.96875,16.53125 0.796875,12.796875 0.796875,9.125 C0.796875,5.453125 1.96875,1.703125 5.28125,-2.0625 L5.8125,-1.625 C3.09375,2.09375 2.1875,5.65625 2.1875,9.125 Z M10.703125,-4.75 C13.515625,-4.75 15.03125,-2.6875 15.03125,1.484375 L15.03125,11.25 L15.078125,14.65625 L14.78125,14.859375 L10.828125,14.109375 L10.828125,13.46875 L13.03125,13.390625 C13.0625,12.140625 13.078125,10.9375 13.078125,9.1875 L13.078125,0.84375 C13.078125,-2.828125 12.09375,-4.015625 10.515625,-4.015625 C10.296875,-4.015625 10.109375,-3.984375 9.890625,-3.90625 L9.390625,-2.609375 C9.171875,-1.65625 8.71875,-1.3125 8.234375,-1.3125 C7.6875,-1.3125 7.375,-1.609375 7.21875,-2.140625 C7.515625,-3.703125 8.78125,-4.75 10.703125,-4.75 Z" transform="translate(0, 21.3125) scale(1, -1)"/>
</svg>