<svg height="22.359375" viewBox="0 0 24 22.359375" width="24" xmlns="http://www.w3.org/2000/svg">
<path d="M12.03125,2.515625 C15.046875,2.515625 16.96875,4.875 16.96875,9.265625 C16.96875,13.65625 14.921875,15.953125 12.03125,15.953125 C9.09375,15.953125 7.078125,13.625 7.078125,9.265625 C7.078125,4.890625 8.96875,2.515625 12.03125,2.515625 Z M12.03125,3.3125 C10.109375,3.3125 9.125,5.203125 9.125,9.234375 C9.125,13.25 10.109375,15.171875 12.03125,15.171875 C13.921875,15.171875 14.921875,13.25 14.921875,9.234375 C14.921875,5.203125 13.921875,3.3125 12.03125,3.3125 Z M21.8125,9.125 C21.8125,5.65625 20.90625,2.09375 18.1875,-1.625 L18.71875,-2.0625 C22.03125,1.703125 23.203125,5.453125 23.203125,9.125 C23.203125,12.796875 22.03125,16.53125 18.71875,20.296875 L18.1875,19.875 C20.90625,16.15625 21.8125,12.578125 21.8125,9.125 Z M2.1875,9.125 C2.1875,12.578125 3.09375,16.15625 5.8125,19.875 L5.28125,20.296875 C1.96875,16.53125 0.796875,12.796875 0.796875,9.125 C0.796875,5.453125 1.96875,1.703125 5.28125,-2.0625 L5.8125,-1.625 C3.09375,2.09375 2.1875,5.65625 2.1875,9.125 Z" transform="translate(0, 20.296875) scale(1, -1)"/>
</svg>