<svg height="22.359375" viewBox="0 0 24 22.359375" width="24" xmlns="http://www.w3.org/2000/svg">
<path d="M21.8125,9.125 C21.8125,5.65625 20.90625,2.09375 18.1875,-1.625 L18.71875,-2.0625 C22.03125,1.703125 23.203125,5.453125 23.203125,9.125 C23.203125,12.796875 22.03125,16.53125 18.71875,20.296875 L18.1875,19.875 C20.90625,16.15625 21.8125,12.578125 21.8125,9.125 Z M2.1875,9.125 C2.1875,12.578125 3.09375,16.15625 5.8125,19.875 L5.28125,20.296875 C1.96875,16.53125 0.796875,12.796875 0.796875,9.125 C0.796875,5.453125 1.96875,1.703125 5.28125,-2.0625 L5.8125,-1.625 C3.09375,2.09375 2.1875,5.65625 2.1875,9.125 Z M12.484375,2.515625 C14.421875,2.515625 15.859375,3.359375 16.875,5.25 L16.34375,5.640625 C15.484375,4.421875 14.59375,3.84375 12.984375,3.84375 C11.140625,3.84375 9.28125,5.28125 9.234375,9.34375 L16.828125,9.34375 C16.921875,9.75 16.9375,10.203125 16.9375,10.828125 C16.9375,13.703125 15.484375,15.953125 12.546875,15.953125 C9.75,15.953125 7.21875,13.6875 7.21875,9.3125 C7.21875,4.46875 9.671875,2.515625 12.484375,2.515625 Z M9.234375,10.078125 C9.390625,13.53125 10.6875,15.21875 12.53125,15.21875 C14.1875,15.21875 15.171875,13.578125 15.171875,11.5 C15.171875,10.4375 14.953125,10.078125 14.25,10.078125 Z" transform="translate(0, 20.296875) scale(1, -1)"/>
</svg>