<svg height="22.328125" viewBox="0 0 24 22.328125" width="24" xmlns="http://www.w3.org/2000/svg">
<path d="M12,-2.046875 C18.171875,-2.046875 23.0625,2.828125 23.0625,9.125 C23.0625,15.390625 18.171875,20.28125 12,20.28125 C5.828125,20.28125 0.9375,15.390625 0.9375,9.125 C0.9375,2.859375 5.828125,-2.046875 12,-2.046875 Z M12,-1.375 C6.21875,-1.375 1.65625,3.21875 1.65625,9.125 C1.65625,15.03125 6.21875,19.609375 12,19.609375 C17.765625,19.609375 22.34375,15.03125 22.34375,9.125 C22.34375,3.21875 17.765625,-1.375 12,-1.375 Z M6.890625,14.828125 L8.640625,14.6875 L8.65625,9.765625 L8.65625,8.90625 L8.640625,3.953125 L6.890625,3.84375 L6.890625,3.21875 L11.90625,3.21875 C15.890625,3.21875 18.265625,5.5625 18.265625,9.34375 C18.265625,13.21875 15.90625,15.4375 12.046875,15.4375 L6.890625,15.4375 Z M10.296875,3.859375 L10.265625,8.90625 L10.265625,9.765625 L10.296875,14.78125 L11.734375,14.78125 C14.828125,14.78125 16.5625,13.0625 16.5625,9.3125 C16.5625,5.734375 14.859375,3.859375 11.5625,3.859375 Z" transform="translate(0, 20.28125) scale(1, -1)"/>
</svg>