<svg height="22.359375" viewBox="0 0 24 22.359375" width="24" xmlns="http://www.w3.org/2000/svg">
<path d="M21.8125,9.125 C21.8125,5.65625 20.90625,2.09375 18.1875,-1.625 L18.71875,-2.0625 C22.03125,1.703125 23.203125,5.453125 23.203125,9.125 C23.203125,12.796875 22.03125,16.53125 18.71875,20.296875 L18.1875,19.875 C20.90625,16.15625 21.8125,12.578125 21.8125,9.125 Z M2.1875,9.125 C2.1875,12.578125 3.09375,16.15625 5.8125,19.875 L5.28125,20.296875 C1.96875,16.53125 0.796875,12.796875 0.796875,9.125 C0.796875,5.453125 1.96875,1.703125 5.28125,-2.0625 L5.8125,-1.625 C3.09375,2.09375 2.1875,5.65625 2.1875,9.125 Z M13.46875,17.25 L15.453125,17.0625 L12.53125,7.25 L9.578125,17.09375 L11.421875,17.25 L11.421875,17.921875 L6.140625,17.921875 L6.140625,17.25 L7.4375,17.109375 L11.65625,4.5625 L11.28125,3.40625 C10.390625,0.75 9.234375,-0.546875 8.203125,-0.59375 L7.75,0.546875 C7.53125,1.4375 7.109375,1.78125 6.671875,1.78125 C6.125,1.78125 5.8125,1.46875 5.6875,0.953125 C5.859375,-0.5 6.90625,-1.375 8.0625,-1.375 C9.703125,-1.375 10.984375,0.234375 12.125,3.765625 L16.484375,17.09375 L17.953125,17.25 L17.953125,17.921875 L13.46875,17.921875 Z" transform="translate(0, 20.296875) scale(1, -1)"/>
</svg>