<svg height="22.328125" viewBox="0 0 24 22.328125" width="24" xmlns="http://www.w3.org/2000/svg">
<path d="M12,-2.046875 C18.171875,-2.046875 23.0625,2.828125 23.0625,9.125 C23.0625,15.390625 18.171875,20.28125 12,20.28125 C5.828125,20.28125 0.9375,15.390625 0.9375,9.125 C0.9375,2.859375 5.828125,-2.046875 12,-2.046875 Z M12,-1.375 C6.21875,-1.375 1.65625,3.21875 1.65625,9.125 C1.65625,15.03125 6.21875,19.609375 12,19.609375 C17.765625,19.609375 22.34375,15.03125 22.34375,9.125 C22.34375,3.21875 17.765625,-1.375 12,-1.375 Z M11.46875,13.921875 L13.78125,7.890625 L9.28125,7.890625 Z M13.5625,3.21875 L18.671875,3.21875 L18.671875,3.8125 L16.9375,3.9375 L12.5,15.4375 L11.375,15.4375 L7.125,3.953125 L5.375,3.84375 L5.375,3.21875 L9.59375,3.21875 L9.59375,3.84375 L7.875,3.953125 L9.078125,7.25 L14.015625,7.25 L15.265625,3.953125 L13.5625,3.8125 Z" transform="translate(0, 20.28125) scale(1, -1)"/>
</svg>