<svg height="22.359375" viewBox="0 0 24 22.359375" width="24" xmlns="http://www.w3.org/2000/svg">
<path d="M21.8125,9.125 C21.8125,5.65625 20.90625,2.09375 18.1875,-1.625 L18.71875,-2.0625 C22.03125,1.703125 23.203125,5.453125 23.203125,9.125 C23.203125,12.796875 22.03125,16.53125 18.71875,20.296875 L18.1875,19.875 C20.90625,16.15625 21.8125,12.578125 21.8125,9.125 Z M2.1875,9.125 C2.1875,12.578125 3.09375,16.15625 5.8125,19.875 L5.28125,20.296875 C1.96875,16.53125 0.796875,12.796875 0.796875,9.125 C0.796875,5.453125 1.96875,1.703125 5.28125,-2.0625 L5.8125,-1.625 C3.09375,2.09375 2.1875,5.65625 2.1875,9.125 Z M14.5625,2.875 L18.03125,3.03125 L18.03125,3.75 L16.53125,3.890625 L16.53125,11.8125 L16.609375,15.546875 L16.296875,15.84375 L12.890625,15.484375 L12.890625,14.828125 L14.59375,14.71875 L14.5625,5.8125 C13.625,4.65625 12.75,4.015625 11.515625,4.015625 C10.375,4.015625 9.75,4.578125 9.75,6.484375 L9.75,11.8125 L9.859375,15.546875 L9.53125,15.84375 L6.03125,15.53125 L6.03125,14.859375 L7.84375,14.71875 L7.796875,6.28125 C7.75,3.578125 8.828125,2.640625 10.6875,2.640625 C12.453125,2.640625 13.609375,3.703125 14.5625,5.015625 Z" transform="translate(0, 20.296875) scale(1, -1)"/>
</svg>