<svg height="22.359375" viewBox="0 0 24 22.359375" width="24" xmlns="http://www.w3.org/2000/svg">
<path d="M21.8125,9.125 C21.8125,5.65625 20.90625,2.09375 18.1875,-1.625 L18.71875,-2.0625 C22.03125,1.703125 23.203125,5.453125 23.203125,9.125 C23.203125,12.796875 22.03125,16.53125 18.71875,20.296875 L18.1875,19.875 C20.90625,16.15625 21.8125,12.578125 21.8125,9.125 Z M2.1875,9.125 C2.1875,12.578125 3.09375,16.15625 5.8125,19.875 L5.28125,20.296875 C1.96875,16.53125 0.796875,12.796875 0.796875,9.125 C0.796875,5.453125 1.96875,1.703125 5.28125,-2.0625 L5.8125,-1.625 C3.09375,2.09375 2.1875,5.65625 2.1875,9.125 Z M14.71875,14.953125 L16.390625,14.78125 L15.03125,5.28125 L13.078125,13.875 L12.078125,13.875 L9.84375,5.140625 L8.71875,14.8125 L10.21875,14.953125 L10.21875,15.671875 L5.65625,15.671875 L5.65625,14.953125 L6.8125,14.828125 L8.734375,2.828125 L9.953125,2.828125 L12.140625,11.015625 L14.109375,2.828125 L15.3125,2.828125 L17.328125,14.8125 L18.453125,14.953125 L18.453125,15.671875 L14.71875,15.671875 Z" transform="translate(0, 20.296875) scale(1, -1)"/>
</svg>