<svg height="22.328125" viewBox="0 0 24 22.328125" width="24" xmlns="http://www.w3.org/2000/svg">
<path d="M12,-2.046875 C18.171875,-2.046875 23.0625,2.828125 23.0625,9.125 C23.0625,15.390625 18.171875,20.28125 12,20.28125 C5.828125,20.28125 0.9375,15.390625 0.9375,9.125 C0.9375,2.859375 5.828125,-2.046875 12,-2.046875 Z M12,-1.375 C6.21875,-1.375 1.65625,3.21875 1.65625,9.125 C1.65625,15.03125 6.21875,19.609375 12,19.609375 C17.765625,19.609375 22.34375,15.03125 22.34375,9.125 C22.34375,3.21875 17.765625,-1.375 12,-1.375 Z M12.90625,2.921875 C14.359375,2.921875 15.59375,3.265625 16.796875,3.984375 L16.84375,6.796875 L16.0625,6.796875 L15.546875,4.171875 C14.765625,3.765625 13.9375,3.578125 12.953125,3.578125 C9.953125,3.578125 7.890625,5.59375 7.890625,9.3125 C7.890625,12.984375 9.890625,15.078125 12.984375,15.078125 C13.9375,15.078125 14.640625,14.921875 15.390625,14.515625 L15.859375,12 L16.6875,12 L16.609375,14.734375 C15.484375,15.390625 14.421875,15.71875 12.90625,15.71875 C8.90625,15.71875 6.21875,13.296875 6.21875,9.28125 C6.21875,5.15625 9,2.921875 12.90625,2.921875 Z" transform="translate(0, 20.28125) scale(1, -1)"/>
</svg>