<svg height="22.328125" viewBox="0 0 24 22.328125" width="24" xmlns="http://www.w3.org/2000/svg">
<path d="M12,-2.046875 C18.171875,-2.046875 23.0625,2.828125 23.0625,9.125 C23.0625,15.390625 18.171875,20.28125 12,20.28125 C5.828125,20.28125 0.9375,15.390625 0.9375,9.125 C0.9375,2.859375 5.828125,-2.046875 12,-2.046875 Z M12,-1.375 C6.21875,-1.375 1.65625,3.21875 1.65625,9.125 C1.65625,15.03125 6.21875,19.609375 12,19.609375 C17.765625,19.609375 22.34375,15.03125 22.34375,9.125 C22.34375,3.21875 17.765625,-1.375 12,-1.375 Z M13.515625,14.828125 L15.265625,14.6875 L15.28125,9.90625 L8.71875,9.90625 L8.734375,14.6875 L10.515625,14.828125 L10.515625,15.4375 L5.28125,15.4375 L5.28125,14.828125 L7.078125,14.6875 L7.109375,9.765625 L7.109375,8.90625 L7.078125,3.953125 L5.28125,3.84375 L5.28125,3.21875 L10.515625,3.21875 L10.515625,3.84375 L8.734375,3.953125 L8.71875,9.234375 L15.28125,9.234375 L15.265625,3.953125 L13.515625,3.84375 L13.515625,3.21875 L18.71875,3.21875 L18.71875,3.84375 L16.921875,3.953125 L16.890625,8.90625 L16.890625,9.765625 L16.921875,14.6875 L18.71875,14.828125 L18.71875,15.4375 L13.515625,15.4375 Z" transform="translate(0, 20.28125) scale(1, -1)"/>
</svg>