<svg height="22.359375" viewBox="0 0 24 22.359375" width="24" xmlns="http://www.w3.org/2000/svg">
<path d="M21.8125,9.125 C21.8125,5.65625 20.90625,2.09375 18.1875,-1.625 L18.71875,-2.0625 C22.03125,1.703125 23.203125,5.453125 23.203125,9.125 C23.203125,12.796875 22.03125,16.53125 18.71875,20.296875 L18.1875,19.875 C20.90625,16.15625 21.8125,12.578125 21.8125,9.125 Z M2.1875,9.125 C2.1875,12.578125 3.09375,16.15625 5.8125,19.875 L5.28125,20.296875 C1.96875,16.53125 0.796875,12.796875 0.796875,9.125 C0.796875,5.453125 1.96875,1.703125 5.28125,-2.0625 L5.8125,-1.625 C3.09375,2.09375 2.1875,5.65625 2.1875,9.125 Z M7.390625,2.921875 L16.46875,2.921875 L16.703125,6.9375 L15.640625,6.9375 L14.921875,3.640625 L9.5,3.640625 L16.375,14.875 L16.375,15.578125 L7.65625,15.578125 L7.484375,11.953125 L8.515625,11.859375 L9.171875,14.859375 L14.296875,14.859375 L7.390625,3.625 Z" transform="translate(0, 20.296875) scale(1, -1)"/>
</svg>