<svg height="22.328125" viewBox="0 0 24 22.328125" width="24" xmlns="http://www.w3.org/2000/svg">
<path d="M12,-2.046875 C18.171875,-2.046875 23.0625,2.828125 23.0625,9.125 C23.0625,15.390625 18.171875,20.28125 12,20.28125 C5.828125,20.28125 0.9375,15.390625 0.9375,9.125 C0.9375,2.859375 5.828125,-2.046875 12,-2.046875 Z M12,-1.375 C6.21875,-1.375 1.65625,3.21875 1.65625,9.125 C1.65625,15.03125 6.21875,19.609375 12,19.609375 C17.765625,19.609375 22.34375,15.03125 22.34375,9.125 C22.34375,3.21875 17.765625,-1.375 12,-1.375 Z M14.40625,14.828125 L16.15625,14.6875 L16.15625,8.1875 C16.15625,5.09375 14.96875,3.890625 12.453125,3.890625 C10.265625,3.890625 8.90625,4.96875 8.90625,7.96875 L8.90625,9.765625 L8.921875,14.6875 L10.796875,14.828125 L10.796875,15.4375 L5.46875,15.4375 L5.46875,14.828125 L7.265625,14.6875 L7.296875,9.765625 L7.296875,7.78125 C7.296875,4.171875 9.171875,2.921875 12.09375,2.921875 C15.140625,2.921875 16.84375,4.390625 16.84375,7.9375 L16.84375,14.6875 L18.5,14.828125 L18.5,15.4375 L14.40625,15.4375 Z" transform="translate(0, 20.28125) scale(1, -1)"/>
</svg>