<svg height="22.328125" viewBox="0 0 24 22.328125" width="24" xmlns="http://www.w3.org/2000/svg">
<path d="M12,-2.046875 C18.171875,-2.046875 23.0625,2.828125 23.0625,9.125 C23.0625,15.390625 18.171875,20.28125 12,20.28125 C5.828125,20.28125 0.9375,15.390625 0.9375,9.125 C0.9375,2.859375 5.828125,-2.046875 12,-2.046875 Z M12,-1.375 C6.21875,-1.375 1.65625,3.21875 1.65625,9.125 C1.65625,15.03125 6.21875,19.609375 12,19.609375 C17.765625,19.609375 22.34375,15.03125 22.34375,9.125 C22.34375,3.21875 17.765625,-1.375 12,-1.375 Z M13.9375,14.828125 L16.15625,14.65625 L16.171875,5.5 L8.859375,15.4375 L5.453125,15.4375 L5.453125,14.828125 L7.34375,14.65625 L7.375,14.640625 L7.375,3.984375 L5.453125,3.84375 L5.453125,3.21875 L10.25,3.21875 L10.25,3.84375 L8.0625,3.984375 L8.046875,13.703125 L15.796875,3.125 L16.875,3.125 L16.875,14.640625 L18.765625,14.828125 L18.765625,15.4375 L13.9375,15.4375 Z" transform="translate(0, 20.28125) scale(1, -1)"/>
</svg>