<svg height="22.328125" viewBox="0 0 24 22.328125" width="24" xmlns="http://www.w3.org/2000/svg">
<path d="M12,-2.046875 C18.171875,-2.046875 23.0625,2.828125 23.0625,9.125 C23.0625,15.390625 18.171875,20.28125 12,20.28125 C5.828125,20.28125 0.9375,15.390625 0.9375,9.125 C0.9375,2.859375 5.828125,-2.046875 12,-2.046875 Z M12,-1.375 C6.21875,-1.375 1.65625,3.21875 1.65625,9.125 C1.65625,15.03125 6.21875,19.609375 12,19.609375 C17.765625,19.609375 22.34375,15.03125 22.34375,9.125 C22.34375,3.21875 17.765625,-1.375 12,-1.375 Z M13.796875,14.828125 L15.5,14.65625 L12.3125,10.203125 L9.171875,14.6875 L10.828125,14.828125 L10.828125,15.4375 L5.921875,15.4375 L5.921875,14.828125 L7.484375,14.6875 L11.375,9.046875 L7.484375,3.9375 L5.6875,3.84375 L5.6875,3.21875 L10.109375,3.21875 L10.109375,3.84375 L8.359375,3.9375 L11.71875,8.546875 L14.875,3.953125 L13.34375,3.84375 L13.34375,3.21875 L18.28125,3.21875 L18.28125,3.84375 L16.5625,3.984375 L12.671875,9.703125 L16.390625,14.65625 L18.03125,14.828125 L18.03125,15.4375 L13.796875,15.4375 Z" transform="translate(0, 20.28125) scale(1, -1)"/>
</svg>