<svg height="22.328125" viewBox="0 0 24 22.328125" width="24" xmlns="http://www.w3.org/2000/svg">
<path d="M12,-2.046875 C18.171875,-2.046875 23.0625,2.828125 23.0625,9.125 C23.0625,15.390625 18.171875,20.28125 12,20.28125 C5.828125,20.28125 0.9375,15.390625 0.9375,9.125 C0.9375,2.859375 5.828125,-2.046875 12,-2.046875 Z M12,-1.375 C6.21875,-1.375 1.65625,3.21875 1.65625,9.125 C1.65625,15.03125 6.21875,19.609375 12,19.609375 C17.765625,19.609375 22.34375,15.03125 22.34375,9.125 C22.34375,3.21875 17.765625,-1.375 12,-1.375 Z M7.0625,3.21875 L16.96875,3.21875 L17.140625,6.4375 L16.34375,6.4375 L15.84375,3.859375 L8.921875,3.859375 L16.921875,14.90625 L16.921875,15.4375 L7.390625,15.4375 L7.21875,12.21875 L8.015625,12.21875 L8.5,14.78125 L15.09375,14.78125 L7.0625,3.75 Z" transform="translate(0, 20.28125) scale(1, -1)"/>
</svg>