<svg height="22.328125" viewBox="0 0 24 22.328125" width="24" xmlns="http://www.w3.org/2000/svg">
<path d="M12,-2.046875 C18.171875,-2.046875 23.0625,2.828125 23.0625,9.125 C23.0625,15.390625 18.171875,20.28125 12,20.28125 C5.828125,20.28125 0.9375,15.390625 0.9375,9.125 C0.9375,2.859375 5.828125,-2.046875 12,-2.046875 Z M12,-1.375 C6.21875,-1.375 1.65625,3.21875 1.65625,9.125 C1.65625,15.03125 6.21875,19.609375 12,19.609375 C17.765625,19.609375 22.34375,15.03125 22.34375,9.125 C22.34375,3.21875 17.765625,-1.375 12,-1.375 Z M13.375,5.828125 C15.53125,5.828125 17.140625,7.625 17.140625,10.53125 C17.140625,13.296875 15.640625,15.046875 13.578125,15.046875 C12.546875,15.046875 11.5,14.609375 10.6875,13.625 L10.609375,14.859375 L10.390625,14.96875 L7.6875,14.375 L7.6875,13.9375 L9.125,13.890625 C9.171875,13.03125 9.171875,12.09375 9.171875,10.890625 L9.171875,5.71875 L9.140625,2.421875 L7.78125,2.28125 L7.78125,1.78125 L12.265625,1.78125 L12.265625,2.28125 L10.734375,2.453125 L10.703125,5.71875 L10.703125,7.03125 C11.46875,6.140625 12.390625,5.828125 13.375,5.828125 Z M10.703125,13.109375 C11.375,13.78125 12.09375,14.1875 12.90625,14.1875 C14.421875,14.1875 15.484375,13.03125 15.484375,10.53125 C15.484375,7.78125 14.296875,6.703125 12.890625,6.703125 C12,6.703125 11.40625,6.953125 10.703125,7.625 Z" transform="translate(0, 20.28125) scale(1, -1)"/>
</svg>