<svg height="22.328125" viewBox="0 0 24 22.328125" width="24" xmlns="http://www.w3.org/2000/svg">
<path d="M12,-2.046875 C18.171875,-2.046875 23.0625,2.828125 23.0625,9.125 C23.0625,15.390625 18.171875,20.28125 12,20.28125 C5.828125,20.28125 0.9375,15.390625 0.9375,9.125 C0.9375,2.859375 5.828125,-2.046875 12,-2.046875 Z M12,-1.375 C6.21875,-1.375 1.65625,3.21875 1.65625,9.125 C1.65625,15.03125 6.21875,19.609375 12,19.609375 C17.765625,19.609375 22.34375,15.03125 22.34375,9.125 C22.34375,3.21875 17.765625,-1.375 12,-1.375 Z M10.265625,3.03125 L13.609375,3.03125 L13.609375,3.53125 L11.90625,3.671875 L11.875,6.84375 L11.875,11.046875 L14.421875,11.046875 L14.421875,11.6875 L11.875,11.6875 C11.859375,13.6875 12.03125,14.5 12.578125,15.3125 C12.84375,15.71875 13.25,16.0625 13.65625,16.21875 L13.84375,15.953125 C14.359375,15.28125 14.71875,15.046875 15.171875,15.046875 C15.640625,15.046875 15.9375,15.359375 15.9375,15.765625 C15.796875,16.34375 15.046875,16.6875 14.234375,16.6875 C13.375,16.6875 12.484375,16.3125 11.8125,15.703125 C10.96875,14.90625 10.4375,13.734375 10.34375,11.71875 L8.78125,11.59375 L8.78125,11.046875 L10.34375,11.046875 L10.34375,6.84375 L10.296875,3.640625 L8.859375,3.53125 L8.859375,3.03125 Z" transform="translate(0, 20.28125) scale(1, -1)"/>
</svg>