<svg height="22.328125" viewBox="0 0 24 22.328125" width="24" xmlns="http://www.w3.org/2000/svg">
<path d="M12,-2.046875 C18.171875,-2.046875 23.0625,2.828125 23.0625,9.125 C23.0625,15.390625 18.171875,20.28125 12,20.28125 C5.828125,20.28125 0.9375,15.390625 0.9375,9.125 C0.9375,2.859375 5.828125,-2.046875 12,-2.046875 Z M12,-1.375 C6.21875,-1.375 1.65625,3.21875 1.65625,9.125 C1.65625,15.03125 6.21875,19.609375 12,19.609375 C17.765625,19.609375 22.34375,15.03125 22.34375,9.125 C22.34375,3.21875 17.765625,-1.375 12,-1.375 Z M13.390625,3.125 L16.375,3.265625 L16.375,3.71875 L14.859375,3.84375 L14.859375,14.046875 L14.90625,16.5625 L14.640625,16.703125 L11.90625,16.265625 L11.90625,15.796875 L13.390625,15.75 L13.390625,10.875 C12.671875,11.765625 11.828125,12.1875 10.875,12.1875 C8.734375,12.1875 6.953125,10.421875 6.953125,7.46875 C6.953125,4.734375 8.5,2.96875 10.578125,2.96875 C11.609375,2.96875 12.546875,3.359375 13.34375,4.3125 Z M13.3125,4.890625 C12.703125,4.203125 12.046875,3.859375 11.1875,3.859375 C9.71875,3.859375 8.59375,5.0625 8.59375,7.515625 C8.59375,10.171875 9.84375,11.359375 11.328125,11.359375 C12.125,11.359375 12.71875,11.046875 13.3125,10.421875 Z" transform="translate(0, 20.28125) scale(1, -1)"/>
</svg>