<svg height="22.328125" viewBox="0 0 24 22.328125" width="24" xmlns="http://www.w3.org/2000/svg">
<path d="M12,-2.046875 C18.171875,-2.046875 23.0625,2.828125 23.0625,9.125 C23.0625,15.390625 18.171875,20.28125 12,20.28125 C5.828125,20.28125 0.9375,15.390625 0.9375,9.125 C0.9375,2.859375 5.828125,-2.046875 12,-2.046875 Z M12,-1.375 C6.21875,-1.375 1.65625,3.21875 1.65625,9.125 C1.65625,15.03125 6.21875,19.609375 12,19.609375 C17.765625,19.609375 22.34375,15.03125 22.34375,9.125 C22.34375,3.21875 17.765625,-1.375 12,-1.375 Z M14.65625,3.09375 L17.546875,3.09375 L17.546875,3.59375 L16.3125,3.75 L16.265625,6.9375 L16.265625,8.96875 C16.265625,11.15625 15.28125,12.046875 13.875,12.046875 C12.75,12.046875 11.734375,11.5625 10.53125,10.203125 L10.53125,13.84375 L10.578125,16.421875 L10.3125,16.578125 L7.578125,16.125 L7.578125,15.671875 L9.03125,15.625 L9.03125,6.9375 L9,3.75 L7.609375,3.59375 L7.609375,3.09375 L11.8125,3.09375 L11.8125,3.59375 L10.578125,3.75 L10.5625,6.9375 L10.5625,9.625 C11.640625,10.78125 12.625,11.109375 13.265625,11.109375 C14.1875,11.109375 14.734375,10.53125 14.734375,8.96875 L14.734375,6.9375 L14.6875,3.75 L13.375,3.59375 L13.375,3.09375 Z" transform="translate(0, 20.28125) scale(1, -1)"/>
</svg>