<svg height="22.328125" viewBox="0 0 24 22.328125" width="24" xmlns="http://www.w3.org/2000/svg">
<path d="M12,-2.046875 C18.171875,-2.046875 23.0625,2.828125 23.0625,9.125 C23.0625,15.390625 18.171875,20.28125 12,20.28125 C5.828125,20.28125 0.9375,15.390625 0.9375,9.125 C0.9375,2.859375 5.828125,-2.046875 12,-2.046875 Z M12,-1.375 C6.21875,-1.375 1.65625,3.21875 1.65625,9.125 C1.65625,15.03125 6.21875,19.609375 12,19.609375 C17.765625,19.609375 22.34375,15.03125 22.34375,9.125 C22.34375,3.21875 17.765625,-1.375 12,-1.375 Z M12.9375,2.96875 C15.140625,2.96875 16.65625,4.890625 16.65625,7.6875 C16.65625,10.4375 15.21875,12.1875 13.109375,12.1875 C12.140625,12.1875 11.09375,11.78125 10.25,10.84375 L10.25,13.96875 L10.296875,16.5625 L10.015625,16.703125 L7.296875,16.265625 L7.296875,15.796875 L8.71875,15.765625 L8.71875,7.078125 C8.71875,6.171875 8.6875,4.78125 8.6875,3.890625 L7.3125,3.71875 L7.3125,3.234375 L10.03125,3.09375 L10.21875,4.296875 C10.984375,3.40625 11.953125,2.96875 12.9375,2.96875 Z M10.265625,10.3125 C10.9375,10.96875 11.65625,11.328125 12.453125,11.328125 C13.9375,11.328125 15,10.171875 15,7.6875 C15,4.890625 13.828125,3.84375 12.453125,3.84375 C11.609375,3.84375 10.96875,4.15625 10.265625,4.84375 Z" transform="translate(0, 20.28125) scale(1, -1)"/>
</svg>