<svg height="22.328125" viewBox="0 0 24 22.328125" width="24" xmlns="http://www.w3.org/2000/svg">
<path d="M12,-2.046875 C18.171875,-2.046875 23.0625,2.828125 23.0625,9.125 C23.0625,15.390625 18.171875,20.28125 12,20.28125 C5.828125,20.28125 0.9375,15.390625 0.9375,9.125 C0.9375,2.859375 5.828125,-2.046875 12,-2.046875 Z M12,-1.375 C6.21875,-1.375 1.65625,3.21875 1.65625,9.125 C1.65625,15.03125 6.21875,19.609375 12,19.609375 C17.765625,19.609375 22.34375,15.03125 22.34375,9.125 C22.34375,3.21875 17.765625,-1.375 12,-1.375 Z M14.15625,4.65625 L17.015625,4.65625 L17.015625,5.140625 L15.796875,5.28125 L15.765625,8.5 L15.765625,10.515625 C15.765625,12.671875 14.78125,13.609375 13.375,13.609375 C12.28125,13.609375 11.25,13.171875 10.03125,11.765625 L9.953125,13.390625 L9.765625,13.53125 L7.03125,12.9375 L7.03125,12.53125 L8.46875,12.453125 C8.5,11.59375 8.515625,10.703125 8.515625,9.5 L8.515625,8.5 L8.5,5.28125 L7.109375,5.140625 L7.109375,4.65625 L11.28125,4.65625 L11.28125,5.140625 L10.0625,5.28125 L10.03125,8.5 L10.03125,11.203125 C11.109375,12.3125 12.125,12.640625 12.765625,12.640625 C13.65625,12.640625 14.203125,12.09375 14.203125,10.515625 L14.203125,8.5 L14.1875,5.28125 L12.84375,5.140625 L12.84375,4.65625 Z" transform="translate(0, 20.28125) scale(1, -1)"/>
</svg>