<svg height="22.328125" viewBox="0 0 24 22.328125" width="24" xmlns="http://www.w3.org/2000/svg">
<path d="M12,4.53125 C14.359375,4.53125 16.25,6.140625 16.25,9.140625 C16.25,12.140625 14.25,13.734375 12,13.734375 C9.765625,13.734375 7.75,12.09375 7.75,9.140625 C7.75,6.171875 9.640625,4.53125 12,4.53125 Z M12,5.0625 C10.390625,5.0625 9.390625,6.484375 9.390625,9.125 C9.390625,11.765625 10.390625,13.203125 12,13.203125 C13.609375,13.203125 14.609375,11.765625 14.609375,9.125 C14.609375,6.484375 13.609375,5.0625 12,5.0625 Z M12,-2.046875 C18.171875,-2.046875 23.0625,2.828125 23.0625,9.125 C23.0625,15.390625 18.171875,20.28125 12,20.28125 C5.828125,20.28125 0.9375,15.390625 0.9375,9.125 C0.9375,2.859375 5.828125,-2.046875 12,-2.046875 Z M12,-1.375 C6.21875,-1.375 1.65625,3.21875 1.65625,9.125 C1.65625,15.03125 6.21875,19.609375 12,19.609375 C17.765625,19.609375 22.34375,15.03125 22.34375,9.125 C22.34375,3.21875 17.765625,-1.375 12,-1.375 Z" transform="translate(0, 20.28125) scale(1, -1)"/>
</svg>