<svg height="22.328125" viewBox="0 0 24 22.328125" width="24" xmlns="http://www.w3.org/2000/svg">
<path d="M15.125,2.90625 C13.03125,2.90625 11.921875,3.8125 11.609375,5.515625 C11.765625,5.90625 12.09375,6.140625 12.4375,6.140625 C12.984375,6.140625 13.265625,5.921875 13.53125,3.84375 C13.828125,3.703125 14.140625,3.671875 14.546875,3.671875 C16.25,3.671875 17.234375,4.65625 17.234375,6.484375 C17.234375,8.328125 16.3125,9.21875 14.515625,9.21875 L13.796875,9.21875 L13.796875,9.984375 L14.46875,9.984375 C15.890625,9.984375 16.875,10.875 16.875,12.640625 C16.875,14.1875 16.125,15.078125 14.921875,15.078125 C14.59375,15.078125 14.234375,15 13.921875,14.828125 C13.578125,12.984375 13.21875,12.796875 12.71875,12.796875 C12.40625,12.796875 12.125,13.015625 12,13.265625 C12.265625,15.125 13.734375,15.8125 15.390625,15.8125 C17.5,15.8125 18.640625,14.5 18.640625,12.71875 C18.640625,11.40625 17.921875,10.109375 16.265625,9.671875 C18.1875,9.390625 19.0625,8.203125 19.0625,6.40625 C19.0625,4.25 17.515625,2.90625 15.125,2.90625 Z M5.5625,3.1875 L5.5625,3.890625 L7.265625,4.03125 C7.265625,5.109375 7.296875,6.1875 7.296875,7.21875 L7.296875,14.359375 L5.65625,14.015625 L5.65625,14.78125 L8.921875,15.71875 L9.1875,15.484375 L9.09375,12.71875 L9.09375,7.21875 C9.09375,6.171875 9.125,5.109375 9.125,4.03125 L10.75,3.890625 L10.75,3.1875 Z M12,-2.046875 C18.171875,-2.046875 23.0625,2.828125 23.0625,9.125 C23.0625,15.390625 18.171875,20.28125 12,20.28125 C5.828125,20.28125 0.9375,15.390625 0.9375,9.125 C0.9375,2.859375 5.828125,-2.046875 12,-2.046875 Z" transform="translate(0, 20.28125) scale(1, -1)"/>
</svg>