<svg height="22.328125" viewBox="0 0 24 22.328125" width="24" xmlns="http://www.w3.org/2000/svg">
<path d="M12,-2.046875 C18.171875,-2.046875 23.0625,2.828125 23.0625,9.125 C23.0625,15.390625 18.171875,20.28125 12,20.28125 C5.828125,20.28125 0.9375,15.390625 0.9375,9.125 C0.9375,2.859375 5.828125,-2.046875 12,-2.046875 Z M12,-1.375 C6.21875,-1.375 1.65625,3.21875 1.65625,9.125 C1.65625,15.03125 6.21875,19.609375 12,19.609375 C17.765625,19.609375 22.34375,15.03125 22.34375,9.125 C22.34375,3.21875 17.765625,-1.375 12,-1.375 Z M15.640625,13.015625 L17.140625,12.890625 L15.140625,6.5 L12.953125,12.890625 L14.234375,13.015625 L14.234375,13.484375 L10.46875,13.484375 L10.46875,13.015625 L11.71875,12.90625 L9.484375,6.484375 L7.484375,12.90625 L8.875,13.015625 L8.875,13.484375 L4.796875,13.484375 L4.796875,13.015625 L5.875,12.90625 L8.71875,4.75 L9.4375,4.75 L11.921875,11.921875 L14.375,4.75 L15.09375,4.75 L17.8125,12.890625 L19.015625,13.015625 L19.015625,13.484375 L15.640625,13.484375 Z" transform="translate(0, 20.28125) scale(1, -1)"/>
</svg>