<svg height="22.328125" viewBox="0 0 24 22.328125" width="24" xmlns="http://www.w3.org/2000/svg">
<path d="M12,-2.046875 C18.171875,-2.046875 23.0625,2.828125 23.0625,9.125 C23.0625,15.390625 18.171875,20.28125 12,20.28125 C5.828125,20.28125 0.9375,15.390625 0.9375,9.125 C0.9375,2.859375 5.828125,-2.046875 12,-2.046875 Z M12,-1.375 C6.21875,-1.375 1.65625,3.21875 1.65625,9.125 C1.65625,15.03125 6.21875,19.609375 12,19.609375 C17.765625,19.609375 22.34375,15.03125 22.34375,9.125 C22.34375,3.21875 17.765625,-1.375 12,-1.375 Z M8.546875,4.796875 L15.546875,4.796875 L15.671875,7.515625 L14.921875,7.515625 L14.421875,5.28125 L10.25,5.28125 L15.4375,13.015625 L15.4375,13.46875 L8.71875,13.46875 L8.5625,10.984375 L9.3125,10.921875 L9.75,12.953125 L13.78125,12.953125 L8.546875,5.25 Z" transform="translate(0, 20.28125) scale(1, -1)"/>
</svg>