<svg height="22.328125" viewBox="0 0 24 22.328125" width="24" xmlns="http://www.w3.org/2000/svg">
<path d="M12,-2.046875 C18.171875,-2.046875 23.0625,2.828125 23.0625,9.125 C23.0625,15.390625 18.171875,20.28125 12,20.28125 C5.828125,20.28125 0.9375,15.390625 0.9375,9.125 C0.9375,2.859375 5.828125,-2.046875 12,-2.046875 Z M12,-1.375 C6.21875,-1.375 1.65625,3.21875 1.65625,9.125 C1.65625,15.03125 6.21875,19.609375 12,19.609375 C17.765625,19.609375 22.34375,15.03125 22.34375,9.125 C22.34375,3.21875 17.765625,-1.375 12,-1.375 Z M13.484375,1.78125 L16.4375,1.78125 L16.4375,2.28125 L15.078125,2.421875 L15.046875,5.59375 L15.046875,12.34375 L15.09375,14.8125 L14.71875,14.90625 L13.6875,13.734375 C12.9375,14.640625 12.03125,15.046875 11.140625,15.046875 C8.90625,15.046875 7.15625,13.265625 7.15625,10.3125 C7.15625,7.5625 8.65625,5.828125 10.75,5.828125 C11.78125,5.828125 12.765625,6.21875 13.5625,7.171875 L13.5625,5.59375 L13.515625,2.453125 L11.96875,2.28125 L11.96875,1.78125 Z M13.515625,7.703125 C12.859375,7.03125 12.21875,6.703125 11.40625,6.703125 C9.90625,6.703125 8.8125,7.875 8.8125,10.3125 C8.8125,12.984375 10.015625,14.1875 11.546875,14.1875 C12.28125,14.1875 12.90625,13.921875 13.515625,13.34375 Z" transform="translate(0, 20.28125) scale(1, -1)"/>
</svg>