<svg height="22.328125" viewBox="0 0 24 22.328125" width="24" xmlns="http://www.w3.org/2000/svg">
<path d="M12,-2.046875 C18.171875,-2.046875 23.0625,2.828125 23.0625,9.125 C23.0625,15.390625 18.171875,20.28125 12,20.28125 C5.828125,20.28125 0.9375,15.390625 0.9375,9.125 C0.9375,2.859375 5.828125,-2.046875 12,-2.046875 Z M12,-1.375 C6.21875,-1.375 1.65625,3.21875 1.65625,9.125 C1.65625,15.03125 6.21875,19.609375 12,19.609375 C17.765625,19.609375 22.34375,15.03125 22.34375,9.125 C22.34375,3.21875 17.765625,-1.375 12,-1.375 Z M13.21875,12.984375 L14.46875,12.84375 L13.46875,11.296875 L12.453125,9.84375 L10.421875,12.859375 L11.609375,12.984375 L11.609375,13.46875 L7.53125,13.46875 L7.53125,12.984375 L8.65625,12.859375 L11.28125,8.953125 L8.6875,5.421875 L7.421875,5.28125 L7.421875,4.796875 L10.625,4.796875 L10.625,5.28125 L9.453125,5.421875 L10.5625,7.0625 L11.5625,8.515625 L13.703125,5.375 L12.4375,5.28125 L12.4375,4.796875 L16.5625,4.796875 L16.5625,5.28125 L15.5,5.375 L12.71875,9.453125 L15.1875,12.84375 L16.34375,12.984375 L16.34375,13.46875 L13.21875,13.46875 Z" transform="translate(0, 20.28125) scale(1, -1)"/>
</svg>