<svg height="22.328125" viewBox="0 0 24 22.328125" width="24" xmlns="http://www.w3.org/2000/svg">
<path d="M12,-2.046875 C18.171875,-2.046875 23.0625,2.828125 23.0625,9.125 C23.0625,15.390625 18.171875,20.28125 12,20.28125 C5.828125,20.28125 0.9375,15.390625 0.9375,9.125 C0.9375,2.859375 5.828125,-2.046875 12,-2.046875 Z M12,-1.375 C6.21875,-1.375 1.65625,3.21875 1.65625,9.125 C1.65625,15.03125 6.21875,19.609375 12,19.609375 C17.765625,19.609375 22.34375,15.03125 22.34375,9.125 C22.34375,3.21875 17.765625,-1.375 12,-1.375 Z M12.90625,4.03125 C13.828125,4.03125 14.46875,4.375 14.921875,4.96875 L14.71875,5.234375 C14.28125,4.96875 13.96875,4.875 13.484375,4.875 C12.75,4.875 12.3125,5.328125 12.3125,6.40625 L12.3125,12.3125 L14.640625,12.3125 L14.640625,12.953125 L12.3125,12.953125 L12.359375,15.640625 L11.359375,15.640625 L10.828125,12.984375 L9.09375,12.859375 L9.09375,12.3125 L10.796875,12.3125 L10.796875,7.875 C10.796875,7.3125 10.78125,6.9375 10.78125,6.359375 C10.78125,4.796875 11.40625,4.03125 12.90625,4.03125 Z" transform="translate(0, 20.28125) scale(1, -1)"/>
</svg>