<svg height="22.328125" viewBox="0 0 24 22.328125" width="24" xmlns="http://www.w3.org/2000/svg">
<path d="M12,-2.046875 C18.171875,-2.046875 23.0625,2.828125 23.0625,9.125 C23.0625,15.390625 18.171875,20.28125 12,20.28125 C5.828125,20.28125 0.9375,15.390625 0.9375,9.125 C0.9375,2.859375 5.828125,-2.046875 12,-2.046875 Z M12,-1.375 C6.21875,-1.375 1.65625,3.21875 1.65625,9.125 C1.65625,15.03125 6.21875,19.609375 12,19.609375 C17.765625,19.609375 22.34375,15.03125 22.34375,9.125 C22.34375,3.21875 17.765625,-1.375 12,-1.375 Z M13.78125,14.515625 L15.265625,14.40625 L14.109375,11.0625 L12.890625,7.734375 L10.4375,14.375 L11.828125,14.515625 L11.828125,15 L7.625,15 L7.625,14.515625 L8.765625,14.40625 L12.234375,5.875 L12,5.25 C11.46875,3.890625 10.78125,2.96875 9.984375,2.546875 L9.765625,2.78125 C9.4375,3.171875 9,3.390625 8.5625,3.390625 C8.109375,3.390625 7.734375,3.171875 7.625,2.6875 C7.75,2.140625 8.453125,1.828125 9.140625,1.828125 C10.515625,1.828125 11.609375,2.859375 12.453125,5.140625 L15.9375,14.40625 L17.140625,14.515625 L17.140625,15 L13.78125,15 Z" transform="translate(0, 20.28125) scale(1, -1)"/>
</svg>