<svg height="22.328125" viewBox="0 0 24 22.328125" width="24" xmlns="http://www.w3.org/2000/svg">
<path d="M12,-2.046875 C18.171875,-2.046875 23.0625,2.828125 23.0625,9.125 C23.0625,15.390625 18.171875,20.28125 12,20.28125 C5.828125,20.28125 0.9375,15.390625 0.9375,9.125 C0.9375,2.859375 5.828125,-2.046875 12,-2.046875 Z M12,-1.484375 C6.171875,-1.484375 1.53125,3.171875 1.53125,9.125 C1.53125,15.078125 6.171875,19.734375 12,19.734375 C17.8125,19.734375 22.46875,15.09375 22.46875,9.125 C22.46875,3.140625 17.8125,-1.484375 12,-1.484375 Z M12,-0.125 C17.109375,-0.125 21.171875,3.90625 21.171875,9.125 C21.171875,14.296875 17.140625,18.359375 12,18.359375 C6.859375,18.359375 2.828125,14.296875 2.828125,9.125 C2.828125,3.9375 6.859375,-0.125 12,-0.125 Z M12,0.40625 C7.21875,0.40625 3.4375,4.21875 3.4375,9.125 C3.4375,14.015625 7.21875,17.828125 12,17.828125 C16.78125,17.828125 20.5625,14.046875 20.5625,9.125 C20.5625,4.203125 16.78125,0.40625 12,0.40625 Z M9.578125,3.1875 L11.109375,3.1875 L16.203125,14.65625 L16.203125,15.5 L7.578125,15.5 L7.578125,14.09375 L15.1875,14.09375 L9.484375,3.3125 Z" transform="translate(0, 20.28125) scale(1, -1)"/>
</svg>