<svg height="22.328125" viewBox="0 0 24 22.328125" width="24" xmlns="http://www.w3.org/2000/svg">
<path d="M12,-2.046875 C18.171875,-2.046875 23.0625,2.828125 23.0625,9.125 C23.0625,15.390625 18.171875,20.28125 12,20.28125 C5.828125,20.28125 0.9375,15.390625 0.9375,9.125 C0.9375,2.859375 5.828125,-2.046875 12,-2.046875 Z M12,-1.484375 C6.171875,-1.484375 1.53125,3.171875 1.53125,9.125 C1.53125,15.078125 6.171875,19.734375 12,19.734375 C17.8125,19.734375 22.46875,15.09375 22.46875,9.125 C22.46875,3.140625 17.8125,-1.484375 12,-1.484375 Z M12,-0.125 C17.109375,-0.125 21.171875,3.90625 21.171875,9.125 C21.171875,14.296875 17.140625,18.359375 12,18.359375 C6.859375,18.359375 2.828125,14.296875 2.828125,9.125 C2.828125,3.9375 6.859375,-0.125 12,-0.125 Z M12,0.40625 C7.21875,0.40625 3.4375,4.21875 3.4375,9.125 C3.4375,14.015625 7.21875,17.828125 12,17.828125 C16.78125,17.828125 20.5625,14.046875 20.5625,9.125 C20.5625,4.203125 16.78125,0.40625 12,0.40625 Z M11.828125,2.875 C14.546875,2.875 16.3125,4.21875 16.3125,6.390625 C16.3125,8.203125 15.234375,9.40625 12.9375,9.703125 C15,10.109375 15.9375,11.375 15.9375,12.71875 C15.9375,14.5 14.5625,15.8125 12.1875,15.8125 C10.34375,15.8125 8.515625,15.09375 8.25,13.296875 C8.359375,13.03125 8.609375,12.859375 8.953125,12.859375 C9.53125,12.859375 9.8125,13.03125 10.25,14.953125 C10.75,15.140625 11.1875,15.1875 11.71875,15.1875 C13.296875,15.1875 14.203125,14.234375 14.203125,12.671875 C14.203125,10.828125 12.953125,9.90625 11.296875,9.90625 L10.484375,9.90625 L10.484375,9.3125 L11.296875,9.3125 C13.46875,9.3125 14.515625,8.328125 14.546875,6.453125 C14.546875,4.609375 13.390625,3.5 11.40625,3.5 C10.6875,3.5 10.21875,3.578125 9.796875,3.796875 C9.5,5.765625 9.09375,5.96875 8.546875,5.96875 C8.203125,5.96875 7.890625,5.78125 7.796875,5.375 C8.140625,3.765625 9.625,2.875 11.828125,2.875 Z" transform="translate(0, 20.28125) scale(1, -1)"/>
</svg>