<svg height="22.328125" viewBox="0 0 24 22.328125" width="24" xmlns="http://www.w3.org/2000/svg">
<path d="M12,-2.046875 C18.171875,-2.046875 23.0625,2.828125 23.0625,9.125 C23.0625,15.390625 18.171875,20.28125 12,20.28125 C5.828125,20.28125 0.9375,15.390625 0.9375,9.125 C0.9375,2.859375 5.828125,-2.046875 12,-2.046875 Z M12,-1.484375 C6.171875,-1.484375 1.53125,3.171875 1.53125,9.125 C1.53125,15.078125 6.171875,19.734375 12,19.734375 C17.8125,19.734375 22.46875,15.09375 22.46875,9.125 C22.46875,3.140625 17.8125,-1.484375 12,-1.484375 Z M12,-0.125 C17.109375,-0.125 21.171875,3.90625 21.171875,9.125 C21.171875,14.296875 17.140625,18.359375 12,18.359375 C6.859375,18.359375 2.828125,14.296875 2.828125,9.125 C2.828125,3.9375 6.859375,-0.125 12,-0.125 Z M12,0.40625 C7.21875,0.40625 3.4375,4.21875 3.4375,9.125 C3.4375,14.015625 7.21875,17.828125 12,17.828125 C16.78125,17.828125 20.5625,14.046875 20.5625,9.125 C20.5625,4.203125 16.78125,0.40625 12,0.40625 Z M7.875,3.1875 L16.46875,3.1875 L16.46875,4.515625 L9.09375,4.515625 C14.5,9.21875 15.796875,10.515625 15.796875,12.453125 C15.796875,14.421875 14.515625,15.8125 11.921875,15.8125 C10.015625,15.8125 8.40625,15.046875 8.015625,13.34375 C8.15625,12.984375 8.453125,12.796875 8.8125,12.796875 C9.40625,12.796875 9.625,13.015625 10.078125,14.953125 C10.53125,15.125 10.96875,15.1875 11.453125,15.1875 C13.125,15.1875 14.015625,14.046875 14.015625,12.484375 C14.015625,10.515625 13.125,9.390625 7.875,4.125 Z" transform="translate(0, 20.28125) scale(1, -1)"/>
</svg>