<svg height="22.328125" viewBox="0 0 24 22.328125" width="24" xmlns="http://www.w3.org/2000/svg">
<path d="M12,-2.046875 C18.171875,-2.046875 23.0625,2.828125 23.0625,9.125 C23.0625,15.390625 18.171875,20.28125 12,20.28125 C5.828125,20.28125 0.9375,15.390625 0.9375,9.125 C0.9375,2.859375 5.828125,-2.046875 12,-2.046875 Z M12,-1.484375 C6.171875,-1.484375 1.53125,3.171875 1.53125,9.125 C1.53125,15.078125 6.171875,19.734375 12,19.734375 C17.8125,19.734375 22.46875,15.09375 22.46875,9.125 C22.46875,3.140625 17.8125,-1.484375 12,-1.484375 Z M12,-0.125 C17.109375,-0.125 21.171875,3.90625 21.171875,9.125 C21.171875,14.296875 17.140625,18.359375 12,18.359375 C6.859375,18.359375 2.828125,14.296875 2.828125,9.125 C2.828125,3.9375 6.859375,-0.125 12,-0.125 Z M12,0.40625 C7.21875,0.40625 3.4375,4.21875 3.4375,9.125 C3.4375,14.015625 7.21875,17.828125 12,17.828125 C16.78125,17.828125 20.5625,14.046875 20.5625,9.125 C20.5625,4.203125 16.78125,0.40625 12,0.40625 Z M11.734375,2.875 C14.828125,2.875 16.5625,4.609375 16.5625,7.015625 C16.5625,9.265625 15.171875,10.828125 12.265625,10.828125 C11.203125,10.828125 10.296875,10.5625 9.5,10.15625 L9.8125,14.140625 L16.125,14.140625 L16.125,15.5 L9.1875,15.5 L8.765625,9.5 L9.125,9.359375 C9.984375,9.84375 10.75,10.0625 11.6875,10.0625 C13.578125,10.0625 14.8125,8.96875 14.8125,6.890625 C14.8125,4.75 13.5625,3.5 11.640625,3.5 C10.828125,3.5 10.21875,3.625 9.703125,3.890625 C9.3125,5.765625 9.03125,5.96875 8.5,5.96875 C8.15625,5.96875 7.875,5.8125 7.75,5.46875 C8.015625,3.8125 9.53125,2.875 11.734375,2.875 Z" transform="translate(0, 20.28125) scale(1, -1)"/>
</svg>