<svg height="22.328125" viewBox="0 0 24 22.328125" width="24" xmlns="http://www.w3.org/2000/svg">
<path d="M4.390625,3.1875 L4.390625,4.265625 C8.71875,9.3125 9.359375,10.796875 9.359375,12.578125 C9.359375,14.015625 8.6875,15.078125 7.4375,15.078125 C7.125,15.078125 6.84375,15.03125 6.578125,14.921875 C6.125,12.859375 5.828125,12.625 5.234375,12.625 C4.890625,12.625 4.609375,12.859375 4.46875,13.203125 C4.75,14.921875 6.140625,15.8125 7.875,15.8125 C10.015625,15.8125 11.15625,14.5 11.15625,12.59375 C11.15625,10.703125 9.984375,9.046875 5.828125,4.734375 L11.5625,4.734375 L11.5625,3.1875 Z M16.03125,2.90625 C14.09375,2.90625 12.453125,4.578125 12.453125,9.34375 C12.453125,14.140625 14.09375,15.8125 16.03125,15.8125 C17.96875,15.8125 19.65625,14.140625 19.65625,9.34375 C19.65625,4.578125 17.96875,2.90625 16.03125,2.90625 Z M16.03125,3.625 C16.96875,3.625 17.8125,4.6875 17.8125,9.34375 C17.8125,14.015625 16.96875,15.09375 16.03125,15.09375 C15.09375,15.09375 14.28125,14.015625 14.28125,9.34375 C14.28125,4.65625 15.09375,3.625 16.03125,3.625 Z M12,-2.046875 C18.171875,-2.046875 23.0625,2.828125 23.0625,9.125 C23.0625,15.390625 18.171875,20.28125 12,20.28125 C5.828125,20.28125 0.9375,15.390625 0.9375,9.125 C0.9375,2.859375 5.828125,-2.046875 12,-2.046875 Z" transform="translate(0, 20.28125) scale(1, -1)"/>
</svg>