<svg height="22.328125" viewBox="0 0 24 22.328125" width="24" xmlns="http://www.w3.org/2000/svg">
<path d="M11.859375,2.875 C8.96875,2.875 7.203125,4.828125 7.203125,7.921875 C7.203125,11.8125 10.4375,15.28125 15.671875,15.8125 L15.765625,15.171875 C12.03125,14.46875 9.953125,12.28125 9.40625,9.4375 C10.21875,10.375 11.28125,10.75 12.546875,10.75 C14.828125,10.75 16.296875,9.34375 16.296875,7.015625 C16.296875,4.484375 14.375,2.875 11.859375,2.875 Z M9.265625,7.78125 C9.265625,5.28125 10.25,3.640625 11.875,3.640625 C13.171875,3.640625 14.25,4.75 14.25,6.796875 C14.25,8.765625 13.3125,9.890625 11.828125,9.890625 C10.921875,9.890625 10.078125,9.53125 9.28125,8.609375 C9.265625,8.328125 9.265625,8.0625 9.265625,7.78125 Z M12,-2.046875 C18.171875,-2.046875 23.0625,2.828125 23.0625,9.125 C23.0625,15.390625 18.171875,20.28125 12,20.28125 C5.828125,20.28125 0.9375,15.390625 0.9375,9.125 C0.9375,2.859375 5.828125,-2.046875 12,-2.046875 Z" transform="translate(0, 20.28125) scale(1, -1)"/>
</svg>