<svg height="22.328125" viewBox="0 0 24 22.328125" width="24" xmlns="http://www.w3.org/2000/svg">
<path d="M15.171875,2.90625 C13.203125,2.90625 11.5625,4.578125 11.5625,9.34375 C11.5625,14.140625 13.203125,15.8125 15.171875,15.8125 C17.109375,15.8125 18.765625,14.140625 18.765625,9.34375 C18.765625,4.578125 17.109375,2.90625 15.171875,2.90625 Z M5.5625,3.1875 L5.5625,3.890625 L7.265625,4.03125 C7.265625,5.109375 7.296875,6.1875 7.296875,7.21875 L7.296875,14.359375 L5.65625,14.015625 L5.65625,14.78125 L8.921875,15.71875 L9.1875,15.484375 L9.09375,12.71875 L9.09375,7.21875 C9.09375,6.171875 9.125,5.109375 9.125,4.03125 L10.75,3.890625 L10.75,3.1875 Z M15.171875,3.625 C16.109375,3.625 16.9375,4.6875 16.9375,9.34375 C16.9375,14.015625 16.109375,15.09375 15.171875,15.09375 C14.234375,15.09375 13.390625,14.015625 13.390625,9.34375 C13.390625,4.65625 14.234375,3.625 15.171875,3.625 Z M12,-2.046875 C18.171875,-2.046875 23.0625,2.828125 23.0625,9.125 C23.0625,15.390625 18.171875,20.28125 12,20.28125 C5.828125,20.28125 0.9375,15.390625 0.9375,9.125 C0.9375,2.859375 5.828125,-2.046875 12,-2.046875 Z" transform="translate(0, 20.28125) scale(1, -1)"/>
</svg>