<svg height="22.328125" viewBox="0 0 24 22.328125" width="24" xmlns="http://www.w3.org/2000/svg">
<path d="M11.6875,2.875 C9.453125,2.875 7.890625,3.859375 7.6875,5.609375 C7.828125,6 8.15625,6.21875 8.515625,6.21875 C9.140625,6.21875 9.40625,5.953125 9.765625,4.015625 C10.265625,3.765625 10.796875,3.640625 11.59375,3.640625 C13.375,3.640625 14.5625,4.828125 14.5625,6.859375 C14.5625,8.875 13.421875,9.9375 11.546875,9.9375 C10.703125,9.9375 9.953125,9.671875 9.171875,9.265625 L8.6875,9.5 L9.125,15.5 L16.203125,15.5 L16.203125,13.9375 L9.859375,13.9375 L9.59375,10.296875 C10.375,10.65625 11.28125,10.84375 12.34375,10.84375 C15.265625,10.84375 16.609375,9.265625 16.609375,6.984375 C16.609375,4.609375 14.859375,2.875 11.6875,2.875 Z M12,-2.046875 C18.171875,-2.046875 23.0625,2.828125 23.0625,9.125 C23.0625,15.390625 18.171875,20.28125 12,20.28125 C5.828125,20.28125 0.9375,15.390625 0.9375,9.125 C0.9375,2.859375 5.828125,-2.046875 12,-2.046875 Z" transform="translate(0, 20.28125) scale(1, -1)"/>
</svg>