<svg height="22.328125" viewBox="0 0 24 22.328125" width="24" xmlns="http://www.w3.org/2000/svg">
<path d="M7.796875,3.1875 L7.796875,4.296875 C13.015625,9.390625 13.84375,10.578125 13.84375,12.484375 C13.84375,13.984375 12.984375,15.03125 11.375,15.03125 C10.921875,15.03125 10.515625,14.96875 10.109375,14.8125 C9.625,12.8125 9.390625,12.546875 8.734375,12.546875 C8.328125,12.546875 7.984375,12.75 7.828125,13.125 C8.140625,14.953125 9.84375,15.8125 11.921875,15.8125 C14.640625,15.8125 15.890625,14.40625 15.859375,12.53125 C15.890625,10.5625 14.46875,9.09375 9.34375,4.734375 L16.53125,4.734375 L16.53125,3.1875 Z M12,-2.046875 C18.171875,-2.046875 23.0625,2.828125 23.0625,9.125 C23.0625,15.390625 18.171875,20.28125 12,20.28125 C5.828125,20.28125 0.9375,15.390625 0.9375,9.125 C0.9375,2.859375 5.828125,-2.046875 12,-2.046875 Z" transform="translate(0, 20.28125) scale(1, -1)"/>
</svg>