<svg height="22.328125" viewBox="0 0 24 22.328125" width="24" xmlns="http://www.w3.org/2000/svg">
<path d="M11.828125,2.875 C9.484375,2.875 7.984375,3.84375 7.6875,5.5625 C7.78125,5.96875 8.15625,6.1875 8.546875,6.1875 C9.125,6.1875 9.53125,6 9.796875,3.9375 C10.203125,3.75 10.609375,3.640625 11.28125,3.640625 C13.25,3.640625 14.359375,4.65625 14.359375,6.453125 C14.359375,8.28125 13.296875,9.21875 11.234375,9.21875 L10.390625,9.21875 L10.390625,9.984375 L11.234375,9.984375 C12.859375,9.984375 14.0625,10.828125 14.0625,12.640625 C14.0625,14.1875 13.171875,15.03125 11.609375,15.03125 C11.09375,15.03125 10.703125,14.96875 10.265625,14.78125 C9.859375,12.84375 9.484375,12.703125 8.921875,12.703125 C8.5625,12.703125 8.25,12.859375 8.15625,13.171875 C8.375,15.09375 10.25,15.8125 12.1875,15.8125 C14.6875,15.8125 16.03125,14.5 16.03125,12.71875 C16.03125,11.40625 15.140625,10.109375 13.171875,9.671875 C15.390625,9.40625 16.421875,8.1875 16.421875,6.390625 C16.421875,4.25 14.640625,2.875 11.828125,2.875 Z M12,-2.046875 C18.171875,-2.046875 23.0625,2.828125 23.0625,9.125 C23.0625,15.390625 18.171875,20.28125 12,20.28125 C5.828125,20.28125 0.9375,15.390625 0.9375,9.125 C0.9375,2.859375 5.828125,-2.046875 12,-2.046875 Z" transform="translate(0, 20.28125) scale(1, -1)"/>
</svg>