<svg height="22.328125" viewBox="0 0 24 22.328125" width="24" xmlns="http://www.w3.org/2000/svg">
<path d="M7.890625,3.1875 L7.890625,3.890625 L10.890625,4.171875 C10.921875,5.203125 10.921875,6.21875 10.921875,7.21875 L10.921875,14.28125 L8.421875,13.875 L8.421875,14.65625 L12.703125,15.703125 L12.953125,15.484375 L12.890625,12.75 L12.890625,7.21875 C12.890625,6.21875 12.890625,5.203125 12.90625,4.171875 L15.8125,3.890625 L15.8125,3.1875 Z M12,-2.046875 C18.171875,-2.046875 23.0625,2.828125 23.0625,9.125 C23.0625,15.390625 18.171875,20.28125 12,20.28125 C5.828125,20.28125 0.9375,15.390625 0.9375,9.125 C0.9375,2.859375 5.828125,-2.046875 12,-2.046875 Z" transform="translate(0, 20.28125) scale(1, -1)"/>
</svg>