<svg height="22.328125" viewBox="0 0 24 22.328125" width="24" xmlns="http://www.w3.org/2000/svg">
<path d="M12,-2.046875 C18.171875,-2.046875 23.0625,2.828125 23.0625,9.125 C23.0625,15.390625 18.171875,20.28125 12,20.28125 C5.828125,20.28125 0.9375,15.390625 0.9375,9.125 C0.9375,2.859375 5.828125,-2.046875 12,-2.046875 Z M12,-1.375 C6.21875,-1.375 1.65625,3.21875 1.65625,9.125 C1.65625,15.03125 6.21875,19.609375 12,19.609375 C17.765625,19.609375 22.34375,15.03125 22.34375,9.125 C22.34375,3.21875 17.765625,-1.375 12,-1.375 Z M11.859375,2.875 C14.734375,2.875 16.375,4.125 16.375,6.171875 C16.375,7.734375 15.484375,8.875 12.953125,9.859375 C15,10.703125 15.84375,11.71875 15.84375,12.984375 C15.84375,14.65625 14.5,15.8125 12.078125,15.8125 C9.765625,15.8125 8.015625,14.546875 8.015625,12.546875 C8.015625,11.109375 8.921875,9.9375 10.875,9.125 C8.765625,8.359375 7.65625,7.25 7.65625,5.78125 C7.65625,4.015625 9.125,2.875 11.859375,2.875 Z M12.40625,10.0625 C10.171875,10.921875 9.453125,11.875 9.453125,12.984375 C9.453125,14.328125 10.625,15.1875 12.03125,15.1875 C13.515625,15.1875 14.453125,14.296875 14.453125,12.984375 C14.453125,11.78125 13.890625,10.984375 12.40625,10.0625 Z M11.375,8.921875 C14.046875,7.9375 14.828125,7.109375 14.828125,5.78125 C14.828125,4.421875 13.796875,3.5 12,3.5 C10.15625,3.5 9.09375,4.375 9.09375,5.859375 C9.09375,7.125 9.703125,7.96875 11.375,8.921875 Z" transform="translate(0, 20.28125) scale(1, -1)"/>
</svg>