<svg height="22.328125" viewBox="0 0 24 22.328125" width="24" xmlns="http://www.w3.org/2000/svg">
<path d="M12.28125,3.1875 L12.28125,6.453125 L6.453125,6.453125 L6.453125,7.5625 L12.703125,15.59375 L14.046875,15.59375 L14.046875,7.828125 L16.484375,7.828125 L16.484375,6.453125 L14.046875,6.453125 L14.046875,3.1875 Z M7.578125,7.828125 L12.28125,7.828125 L12.28125,13.890625 Z M12,-2.046875 C18.171875,-2.046875 23.0625,2.828125 23.0625,9.125 C23.0625,15.390625 18.171875,20.28125 12,20.28125 C5.828125,20.28125 0.9375,15.390625 0.9375,9.125 C0.9375,2.859375 5.828125,-2.046875 12,-2.046875 Z" transform="translate(0, 20.28125) scale(1, -1)"/>
</svg>