<svg height="22.328125" viewBox="0 0 24 22.328125" width="24" xmlns="http://www.w3.org/2000/svg">
<path d="M11.828125,2.875 C9.03125,2.875 7.578125,4.03125 7.578125,5.78125 C7.5625,7.25 8.59375,8.359375 10.609375,9.140625 C8.8125,9.9375 7.9375,11.09375 7.9375,12.5 C7.9375,14.546875 9.703125,15.8125 12.078125,15.8125 C14.59375,15.8125 15.90625,14.640625 15.90625,13.015625 C15.890625,11.734375 15.125,10.703125 13.15625,9.90625 C15.546875,8.953125 16.4375,7.78125 16.4375,6.1875 C16.4375,4.15625 14.78125,2.875 11.828125,2.875 Z M9.625,13.015625 C9.625,11.953125 10.25,11.046875 12.40625,10.171875 C13.78125,11.09375 14.296875,11.859375 14.296875,12.984375 C14.296875,14.1875 13.4375,15.03125 12.03125,15.03125 C10.734375,15.03125 9.625,14.25 9.625,13.015625 Z M9.234375,5.859375 C9.234375,4.484375 10.265625,3.640625 12,3.640625 C13.6875,3.640625 14.65625,4.515625 14.65625,5.78125 C14.65625,7.0625 13.875,7.890625 11.375,8.828125 C9.796875,7.875 9.234375,7.0625 9.234375,5.859375 Z M12,-2.046875 C18.171875,-2.046875 23.0625,2.828125 23.0625,9.125 C23.0625,15.390625 18.171875,20.28125 12,20.28125 C5.828125,20.28125 0.9375,15.390625 0.9375,9.125 C0.9375,2.859375 5.828125,-2.046875 12,-2.046875 Z" transform="translate(0, 20.28125) scale(1, -1)"/>
</svg>