<svg height="22" viewBox="0 0 24 22" width="24" xmlns="http://www.w3.org/2000/svg">
<path d="M18.1875,18.703125 L17.953125,18.484375 C19.375,17.5 21.078125,15.671875 21.453125,14.1875 C23.203125,13.109375 24.125,16.9375 18.1875,18.703125 Z M18.234375,4.75 L18,4.53125 C19.421875,3.390625 21.09375,1.34375 21.453125,-0.3125 C23.296875,-1.578125 24.484375,2.5625 18.234375,4.75 Z M11.46875,18.796875 C10.796875,17.296875 9.390625,15.09375 7.984375,13.625 L8.28125,13.34375 C10.0625,14.46875 11.78125,16.15625 12.765625,17.421875 C13.296875,17.296875 13.515625,17.421875 13.65625,17.65625 Z M11.359375,4.828125 C10.609375,3.1875 9,0.984375 7.3125,-0.390625 L7.5625,-0.703125 C9.671875,0.359375 11.609375,2.0625 12.640625,3.5 C13.203125,3.390625 13.421875,3.5 13.53125,3.75 Z M11.640625,8.6875 L19.578125,8.6875 L19.578125,6.546875 L11.640625,6.546875 Z M11.640625,9.390625 L11.640625,11.453125 L19.578125,11.453125 L19.578125,9.390625 Z M18.4375,16.515625 C17.859375,15.953125 17.140625,15.390625 16.3125,14.859375 C16.375,15.09375 16.390625,15.40625 16.390625,15.75 L16.390625,19.265625 C16.921875,19.375 17.140625,19.53125 17.203125,19.875 L14.90625,20.109375 L14.90625,15.8125 C14.90625,15.53125 14.828125,15.4375 14.5625,15.4375 C14.28125,15.4375 13.109375,15.546875 13.109375,15.546875 L13.109375,15.171875 C13.6875,15.09375 14.015625,14.90625 14.234375,14.71875 C14.40625,14.5 14.46875,14.140625 14.515625,13.75 C13.5625,13.21875 12.546875,12.75 11.515625,12.28125 L10.203125,12.890625 L10.203125,11.765625 C9.40625,11.453125 8.609375,11.15625 7.875,10.9375 L8.046875,10.5625 C8.734375,10.703125 9.484375,10.875 10.203125,11.0625 L10.203125,4.84375 L10.421875,4.84375 C11.15625,4.84375 11.640625,5.1875 11.640625,5.296875 L11.640625,5.859375 L14.875,5.859375 L14.875,0.40625 C14.875,0.125 14.8125,0 14.453125,0 C14.0625,0 12.28125,0.140625 12.28125,0.140625 L12.28125,-0.234375 C13.15625,-0.34375 13.609375,-0.5 13.875,-0.765625 C14.109375,-1.015625 14.203125,-1.421875 14.234375,-1.84375 C16.125,-1.625 16.375,-0.796875 16.375,0.390625 L16.375,5.859375 L19.578125,5.859375 L19.578125,5.140625 L19.796875,5.140625 C20.5,5.140625 21.078125,5.46875 21.078125,5.5625 L21.078125,11.328125 C21.546875,11.421875 21.765625,11.5625 21.9375,11.734375 L20.234375,13.015625 L19.515625,12.125 L13.5625,12.125 C15.859375,12.984375 18,14.046875 19.390625,15.09375 C19.796875,14.953125 20.109375,14.953125 20.234375,15.140625 Z M1.921875,18.625 L1.921875,-1.890625 L2.15625,-1.890625 C2.90625,-1.890625 3.40625,-1.484375 3.40625,-1.375 L3.40625,17.921875 L6.59375,17.921875 C6.03125,16.015625 5.109375,13.203125 4.484375,11.6875 C6.21875,9.84375 6.8125,7.984375 6.8125,6.3125 C6.8125,5.375 6.578125,4.84375 6.171875,4.609375 C5.953125,4.484375 5.78125,4.46875 5.546875,4.46875 C5.1875,4.46875 4.265625,4.46875 3.765625,4.46875 L3.765625,4.109375 C4.3125,4.0625 4.78125,3.90625 4.96875,3.71875 C5.1875,3.53125 5.28125,3 5.28125,2.46875 C7.578125,2.59375 8.453125,3.703125 8.421875,5.953125 C8.421875,7.75 7.5625,9.859375 5.09375,11.765625 C6.09375,13.21875 7.578125,16.015625 8.359375,17.515625 C8.921875,17.515625 9.265625,17.59375 9.453125,17.78125 L7.53125,19.625 L6.53125,18.625 L3.703125,18.625 L1.921875,19.421875 Z" transform="translate(-1.203125, 20.109375) scale(1, -1)"/>
</svg>