<svg height="24" viewBox="0 0 24 24" width="24" xmlns="http://www.w3.org/2000/svg">
<path d="M1.515625,5.359375 Q1.21875,5.78125 1.21875,6.578125 Q1.21875,7.421875 1.515625,7.796875 Q2.296875,7.703125 3.328125,7.609375 Q4.375,7.53125 5.40625,7.46875 Q6.453125,7.421875 7.3125,7.421875 Q8.203125,7.421875 9.234375,7.46875 Q10.265625,7.515625 11.28125,7.609375 Q12.3125,7.703125 13.125,7.796875 Q13.421875,7.421875 13.421875,6.578125 Q13.421875,5.78125 13.125,5.359375 Q12.34375,5.46875 11.25,5.546875 Q10.15625,5.640625 9.09375,5.6875 Q8.046875,5.734375 7.3125,5.734375 Q6.59375,5.734375 5.53125,5.6875 Q4.484375,5.640625 3.390625,5.546875 Q2.296875,5.46875 1.515625,5.359375 Z" transform="translate(4.6796875, 7.796875) scale(1, -1)"/>
</svg>