<svg height="21.9375" viewBox="0 0 24 21.9375" width="24" xmlns="http://www.w3.org/2000/svg">
<path d="M1.109375,17.1875 L1.3125,16.484375 L22.296875,16.484375 C22.625,16.484375 22.875,16.609375 22.9375,16.84375 C22.125,17.609375 20.828125,18.640625 20.828125,18.640625 L19.65625,17.1875 L12.765625,17.1875 L12.765625,19.171875 C13.34375,19.265625 13.5625,19.484375 13.609375,19.828125 L11.1875,20.0625 L11.1875,17.1875 Z M2.96875,14.640625 L3.1875,13.921875 L6.40625,13.921875 L6.40625,11.59375 L1.109375,11.59375 L1.3125,10.875 L6.40625,10.875 L6.40625,8.375 L1.96875,8.375 L2.1875,7.6875 L10.15625,7.6875 C7.921875,5.640625 4.609375,3.8125 1.015625,2.640625 L1.21875,2.234375 C3.4375,2.765625 5.546875,3.453125 7.421875,4.34375 L7.421875,0.71875 C5.78125,0.453125 4.4375,0.234375 3.59375,0.140625 L4.6875,-1.875 C4.890625,-1.796875 5.109375,-1.625 5.234375,-1.3125 C9.59375,-0.125 12.71875,0.890625 14.96875,1.609375 L14.90625,2.015625 L8.96875,0.984375 L8.96875,5.140625 C10.3125,5.875 11.5,6.71875 12.484375,7.65625 C13.96875,2.828125 17.09375,-0.078125 21.625,-1.703125 C21.859375,-0.9375 22.421875,-0.4375 23.109375,-0.34375 L23.140625,-0.09375 C20.296875,0.625 17.78125,1.828125 15.859375,3.59375 C17.6875,4.265625 19.578125,5.234375 20.734375,5.953125 C21.265625,5.78125 21.453125,5.859375 21.625,6.09375 L19.6875,7.421875 C18.75,6.4375 16.984375,5.015625 15.453125,4.015625 C14.421875,5.046875 13.609375,6.265625 13.015625,7.6875 L21.796875,7.6875 C22.125,7.6875 22.375,7.796875 22.421875,8.0625 C21.71875,8.765625 20.546875,9.671875 20.546875,9.671875 L19.5625,8.375 L18.078125,8.375 L18.078125,10.875 L22.375,10.875 C22.703125,10.875 22.921875,10.984375 22.984375,11.25 C22.25,11.96875 21.046875,12.953125 21.046875,12.953125 L19.984375,11.59375 L18.078125,11.59375 L18.078125,13.65625 C18.53125,13.75 18.90625,13.9375 19.078125,14.140625 L17.1875,15.578125 L16.296875,14.640625 Z M12.75,8.375 L7.9375,8.375 L7.9375,10.875 L16.515625,10.875 L16.515625,8.375 Z M7.9375,11.59375 L7.9375,13.921875 L16.515625,13.921875 L16.515625,11.59375 Z" transform="translate(-0.078125, 20.0625) scale(1, -1)"/>
</svg>