<svg height="21.0625" viewBox="0 0 24 21.0625" width="24" xmlns="http://www.w3.org/2000/svg">
<path d="M20.640625,19.171875 L19.421875,17.65625 L1.171875,17.65625 L1.390625,16.9375 L7.4375,16.9375 C7.53125,8.71875 6.84375,3.09375 0.859375,-1.609375 L1.109375,-1.890625 C8.375,2.25 8.96875,8.15625 9.09375,16.9375 L14.15625,16.9375 L14.15625,0.75 C14.15625,-0.625 14.640625,-1.078125 16.484375,-1.078125 L18.71875,-1.078125 C22.25,-1.078125 23.046875,-0.796875 23.046875,-0.046875 C23.046875,0.28125 22.921875,0.484375 22.375,0.71875 L22.296875,5.8125 L21.953125,5.8125 C21.640625,3.71875 21.3125,1.4375 21.125,0.9375 C21,0.625 20.921875,0.53125 20.640625,0.5 C20.328125,0.484375 19.703125,0.453125 18.75,0.453125 L16.75,0.453125 C15.859375,0.453125 15.71875,0.640625 15.71875,1.15625 L15.71875,16.9375 L22.265625,16.9375 C22.609375,16.9375 22.828125,17.0625 22.890625,17.328125 C22.03125,18.125 20.640625,19.171875 20.640625,19.171875 Z" transform="translate(0.046875, 19.171875) scale(1, -1)"/>
</svg>