<svg height="21.953125" viewBox="0 0 24 21.953125" width="24" xmlns="http://www.w3.org/2000/svg">
<path d="M21.265625,19.78125 L18.796875,20.0625 L18.796875,0.703125 C18.796875,0.28125 18.625,0.125 18.09375,0.125 C17.46875,0.125 14.234375,0.34375 14.234375,0.34375 L14.234375,-0.046875 C15.59375,-0.1875 16.375,-0.4375 16.828125,-0.71875 C17.25,-0.984375 17.421875,-1.390625 17.515625,-1.890625 C20.09375,-1.65625 20.375,-0.765625 20.375,0.53125 L20.375,19.15625 C20.953125,19.21875 21.1875,19.4375 21.265625,19.78125 Z M15.484375,17.6875 L13.03125,17.953125 L13.03125,3.953125 L13.34375,3.953125 C13.9375,3.953125 14.59375,4.265625 14.59375,4.484375 L14.59375,17.0625 C15.21875,17.140625 15.4375,17.359375 15.484375,17.6875 Z" transform="translate(-5.1484375, 20.0625) scale(1, -1)"/>
</svg>