<svg height="21.484375" viewBox="0 0 24 21.484375" width="24" xmlns="http://www.w3.org/2000/svg">
<path d="M4.78125,7.78125 L4.78125,12.578125 L13.84375,12.578125 L13.84375,7.78125 Z M4.78125,-1.125 L4.78125,7.078125 L13.84375,7.078125 L13.84375,0.859375 C13.84375,0.453125 13.703125,0.3125 13.171875,0.3125 C12.625,0.3125 9.671875,0.53125 9.671875,0.53125 L9.671875,0.140625 C10.9375,-0.03125 11.640625,-0.234375 12.078125,-0.53125 C12.4375,-0.796875 12.59375,-1.203125 12.703125,-1.734375 C15.140625,-1.46875 15.4375,-0.59375 15.4375,0.671875 L15.4375,17.6875 C15.90625,17.78125 16.3125,17.96875 16.484375,18.171875 L14.421875,19.734375 L13.609375,18.703125 L4.921875,18.703125 L3.1875,19.53125 L3.1875,-1.75 L3.5,-1.75 C4.25,-1.75 4.78125,-1.34375 4.78125,-1.125 Z M4.78125,13.296875 L4.78125,17.96875 L13.84375,17.96875 L13.84375,13.296875 Z" transform="translate(2.1640625, 19.734375) scale(1, -1)"/>
</svg>