<svg height="20.484375" viewBox="0 0 24 20.484375" width="24" xmlns="http://www.w3.org/2000/svg">
<path d="M7.625,19.84375 C7.265625,16.15625 5.71875,7.984375 4.6875,4.484375 C5.375,4.265625 6.046875,4.34375 6.390625,4.578125 L6.84375,6.546875 L15.640625,6.546875 L14.734375,0.046875 L1.203125,0.046875 L1.390625,-0.640625 L22.265625,-0.640625 C22.609375,-0.640625 22.875,-0.53125 22.921875,-0.265625 C22.0625,0.53125 20.609375,1.609375 20.609375,1.609375 L19.375,0.046875 L16.390625,0.046875 L18.359375,14.015625 C18.84375,14.046875 19.0625,14.140625 19.25,14.328125 L17.46875,15.890625 L16.578125,14.875 L8.5,14.875 C8.78125,16.46875 9.03125,17.875 9.171875,18.90625 C9.75,18.953125 9.984375,19.203125 10.03125,19.53125 Z M16.734375,14.1875 L15.75,7.25 L6.984375,7.25 C7.46875,9.40625 7.9375,11.921875 8.375,14.1875 Z" transform="translate(-0.0625, 19.84375) scale(1, -1)"/>
</svg>