<svg height="21.90625" viewBox="0 0 24 21.90625" width="24" xmlns="http://www.w3.org/2000/svg">
<path d="M15.34375,12.1875 L13.015625,12.453125 L13.015625,0.71875 C13.015625,-0.625 13.484375,-1.03125 15.5,-1.03125 L18.265625,-1.03125 C22.25,-1.03125 23.109375,-0.765625 23.109375,0 C23.109375,0.3125 22.96875,0.53125 22.421875,0.671875 L22.3125,4.109375 L22.015625,4.109375 C21.75,2.609375 21.4375,1.203125 21.265625,0.8125 C21.140625,0.59375 21.03125,0.53125 20.734375,0.5 C20.359375,0.453125 19.484375,0.4375 18.3125,0.4375 L15.75,0.4375 C14.71875,0.4375 14.5625,0.625 14.5625,1.078125 L14.5625,11.59375 C15.078125,11.65625 15.3125,11.90625 15.34375,12.1875 Z M20.6875,15.984375 L19.4375,14.40625 L11.1875,14.40625 C11.28125,15.953125 11.296875,17.546875 11.328125,19.15625 C11.90625,19.25 12.125,19.46875 12.171875,19.796875 L9.640625,20.0625 C9.640625,18.140625 9.640625,16.25 9.546875,14.40625 L1.03125,14.40625 L1.25,13.703125 L9.53125,13.703125 C9.125,7.9375 7.53125,2.6875 0.9375,-1.46875 L1.25,-1.84375 C9.03125,2.1875 10.703125,7.75 11.140625,13.703125 L22.3125,13.703125 C22.65625,13.703125 22.890625,13.828125 22.9375,14.09375 C22.109375,14.90625 20.6875,15.984375 20.6875,15.984375 Z" transform="translate(-0.0234375, 20.0625) scale(1, -1)"/>
</svg>