<svg height="11.453125" viewBox="0 0 24 11.453125" width="24" xmlns="http://www.w3.org/2000/svg">
<path d="M12.59375,9.359375 L10.15625,9.625 L10.15625,0.546875 C10.15625,0.21875 10.03125,0.09375 9.640625,0.09375 C9.21875,0.09375 7.015625,0.265625 7.015625,0.265625 L7.015625,-0.125 C7.984375,-0.234375 8.546875,-0.453125 8.859375,-0.703125 C9.171875,-0.953125 9.265625,-1.34375 9.34375,-1.828125 C11.46875,-1.609375 11.734375,-0.859375 11.734375,0.453125 L11.734375,8.765625 C12.3125,8.828125 12.53125,9 12.59375,9.359375 Z M17.515625,6.078125 L17.203125,5.875 C18.40625,4.703125 19.5625,2.6875 19.65625,1.0625 C21.390625,-0.40625 22.921875,3.640625 17.515625,6.078125 Z M13.78125,5.765625 L13.484375,5.609375 C14.375,4.46875 15.140625,2.609375 15.03125,1.109375 C16.5625,-0.4375 18.359375,3.3125 13.78125,5.765625 Z M6.5,5.953125 L6.140625,5.96875 C5.65625,4.015625 4.21875,2.71875 2.953125,2.140625 C1.515625,0.28125 6.90625,-0.40625 6.5,5.953125 Z" transform="translate(-0.21875, 9.625) scale(1, -1)"/>
</svg>