<svg height="21.9375" viewBox="0 0 24 21.9375" width="24" xmlns="http://www.w3.org/2000/svg">
<path d="M10.296875,16.25 L9.234375,14.875 L7.484375,14.875 L7.484375,19.171875 C8.09375,19.25 8.328125,19.484375 8.375,19.828125 L5.953125,20.09375 L5.953125,14.875 L1.265625,14.875 L1.46875,14.1875 L5.953125,14.1875 L5.953125,8.640625 C3.75,8.109375 1.9375,7.6875 0.90625,7.484375 L1.921875,5.453125 C2.140625,5.515625 2.359375,5.765625 2.453125,6.046875 L5.953125,7.34375 L5.953125,0.625 C5.953125,0.265625 5.8125,0.125 5.375,0.125 C4.890625,0.125 2.40625,0.3125 2.40625,0.3125 L2.40625,-0.09375 C3.5,-0.234375 4.109375,-0.40625 4.46875,-0.703125 C4.796875,-0.953125 4.9375,-1.390625 5.015625,-1.84375 C7.25,-1.625 7.484375,-0.8125 7.484375,0.453125 L7.484375,7.9375 L12.40625,9.9375 L12.3125,10.296875 L7.484375,9.046875 L7.484375,14.1875 L11.609375,14.1875 C11.921875,14.1875 12.171875,14.296875 12.234375,14.5625 C11.5,15.28125 10.296875,16.25 10.296875,16.25 Z" transform="translate(5.34375, 20.09375) scale(1, -1)"/>
</svg>