<svg height="21.359375" viewBox="0 0 24 21.359375" width="24" xmlns="http://www.w3.org/2000/svg">
<path d="M4.5625,15.90625 C4.375,14.09375 3.546875,9.890625 2.953125,8.109375 C3.671875,7.921875 4.34375,7.96875 4.65625,8.203125 L5.0625,9.9375 L10.734375,9.9375 C9.671875,5.875 7.15625,1.96875 0.984375,-1.375 L1.265625,-1.796875 C7.578125,1.078125 10.515625,4.609375 11.90625,8.453125 L11.90625,0.28125 C11.90625,-1.0625 12.390625,-1.4375 14.515625,-1.4375 L17.734375,-1.4375 C22.203125,-1.4375 23.0625,-1.171875 23.0625,-0.40625 C23.0625,-0.09375 22.890625,0.09375 22.34375,0.28125 L22.296875,3.71875 L21.953125,3.71875 C21.640625,2.1875 21.390625,0.84375 21.1875,0.4375 C21.078125,0.171875 20.96875,0.09375 20.640625,0.078125 C20.234375,0.03125 19.171875,0 17.78125,0 L14.765625,0 C13.609375,0 13.46875,0.140625 13.46875,0.59375 L13.46875,8.328125 C13.96875,8.40625 14.1875,8.640625 14.203125,8.90625 L12.140625,9.140625 L12.359375,9.9375 L22.171875,9.9375 C22.515625,9.9375 22.78125,10.0625 22.828125,10.3125 C21.953125,11.109375 20.59375,12.1875 20.59375,12.1875 L19.375,10.625 L12.53125,10.625 C13.03125,12.8125 13.15625,15.078125 13.25,17.359375 L21.21875,17.359375 C21.53125,17.359375 21.765625,17.46875 21.8125,17.734375 C21,18.484375 19.6875,19.5625 19.6875,19.5625 L18.484375,18.046875 L2.5,18.046875 L2.71875,17.359375 L11.515625,17.359375 C11.46875,15.125 11.375,12.859375 10.890625,10.625 L5.234375,10.625 C5.59375,12.265625 5.921875,14.015625 6.078125,15 C6.671875,15.078125 6.90625,15.28125 6.984375,15.59375 Z" transform="translate(-0.0234375, 19.5625) scale(1, -1)"/>
</svg>