<svg height="21.46875" viewBox="0 0 24 21.46875" width="24" xmlns="http://www.w3.org/2000/svg">
<path d="M1.203125,0.1875 L2.40625,-1.75 C2.59375,-1.65625 2.78125,-1.46875 2.875,-1.171875 C7.6875,0.265625 11.109375,1.421875 13.578125,2.296875 L13.515625,2.71875 C10.75,2.109375 8.09375,1.53125 5.859375,1.078125 L5.859375,7.9375 L12.546875,7.9375 C13.609375,3.953125 15.859375,0.71875 19.984375,-0.953125 C21.28125,-1.5625 22.578125,-1.84375 22.96875,-1.125 C23.140625,-0.765625 23.046875,-0.484375 22.34375,0.09375 L22.625,2.96875 L22.3125,3.03125 C22.03125,2.1875 21.671875,1.296875 21.4375,0.796875 C21.28125,0.4375 21.078125,0.390625 20.59375,0.546875 C17.1875,1.78125 15.125,4.65625 14.140625,7.9375 L22.390625,7.9375 C22.734375,7.9375 22.96875,8.0625 23.046875,8.328125 C22.203125,9.09375 20.875,10.125 20.875,10.125 L19.6875,8.65625 L13.9375,8.65625 C13.609375,9.984375 13.421875,11.375 13.390625,12.71875 L18.53125,12.71875 L18.53125,11.359375 L18.765625,11.359375 C19.296875,11.359375 20.09375,11.734375 20.109375,11.90625 L20.109375,17.65625 C20.59375,17.765625 20.96875,17.953125 21.140625,18.140625 L19.171875,19.625 L18.28125,18.640625 L6.140625,18.640625 L4.265625,19.46875 L4.265625,0.75 C3,0.5 1.9375,0.3125 1.203125,0.1875 Z M5.859375,8.65625 L5.859375,12.71875 L11.828125,12.71875 C11.90625,11.328125 12.078125,9.953125 12.359375,8.65625 Z M5.859375,17.96875 L18.53125,17.96875 L18.53125,13.4375 L5.859375,13.4375 Z" transform="translate(-0.171875, 19.625) scale(1, -1)"/>
</svg>