<svg height="21.625" viewBox="0 0 24 21.625" width="24" xmlns="http://www.w3.org/2000/svg">
<path d="M13.171875,18.4375 L11.046875,19.734375 C10.265625,18.578125 9.21875,17.359375 7.96875,16.15625 C7.109375,17.421875 6.09375,18.578125 4.84375,19.609375 L4.515625,19.375 C5.609375,18.1875 6.53125,16.890625 7.25,15.5 C5.375,13.828125 3.1875,12.265625 0.984375,11.140625 L1.21875,10.78125 C3.578125,11.65625 5.859375,12.9375 7.796875,14.296875 C8.296875,13.15625 8.6875,11.953125 8.953125,10.78125 C7.0625,8.046875 4.078125,5.28125 1.109375,3.671875 L1.296875,3.34375 C4.375,4.484375 7.375,6.59375 9.359375,8.59375 C9.8125,5.015625 9.3125,1.828125 8.25,0.453125 C8.09375,0.171875 7.828125,0.140625 7.375,0.140625 C6.671875,0.140625 4.6875,0.234375 3.4375,0.390625 L3.4375,-0.046875 C4.578125,-0.234375 5.59375,-0.5 5.921875,-0.71875 C6.265625,-0.984375 6.5,-1.390625 6.53125,-1.890625 C8.015625,-1.890625 8.953125,-1.53125 9.484375,-0.859375 C11.640625,1.5625 12.078125,8.953125 8.6875,14.96875 C10.125,16.0625 11.328125,17.1875 12.234375,18.234375 C12.765625,18.09375 13.015625,18.1875 13.171875,18.4375 Z" transform="translate(4.921875, 19.734375) scale(1, -1)"/>
</svg>