<svg height="21.890625" viewBox="0 0 24 21.890625" width="24" xmlns="http://www.w3.org/2000/svg">
<path d="M2.921875,16.46875 L2.640625,16.265625 C4.296875,14.765625 6.390625,12.21875 6.890625,10.25 C8.78125,8.90625 9.90625,13.265625 2.921875,16.46875 Z M19.484375,17.109375 C18.125,14.65625 16.265625,12.078125 14.859375,10.5625 L15.171875,10.265625 C16.96875,11.515625 19.078125,13.515625 20.734375,15.578125 C21.265625,15.453125 21.59375,15.625 21.703125,15.859375 Z M0.953125,3.390625 L2.328125,1.53125 C2.546875,1.65625 2.6875,1.921875 2.71875,2.203125 C6.40625,4.6875 9.21875,6.796875 11.203125,8.25 L11.203125,0.59375 C11.203125,0.21875 11.0625,0.078125 10.609375,0.078125 C10.078125,0.078125 7.421875,0.28125 7.421875,0.28125 L7.421875,-0.09375 C8.546875,-0.265625 9.21875,-0.453125 9.59375,-0.71875 C9.953125,-0.984375 10.109375,-1.375 10.171875,-1.875 C12.4375,-1.625 12.703125,-0.8125 12.703125,0.453125 L12.703125,8.859375 C15.671875,7.265625 19.78125,4.484375 21.3125,2.234375 C23.640625,1.296875 23.546875,6.09375 12.703125,9.28125 L12.703125,19.109375 C13.296875,19.171875 13.53125,19.421875 13.609375,19.75 L11.203125,20.015625 L11.203125,8.375 L11.09375,8.640625 C6.859375,6.3125 2.609375,4.109375 0.953125,3.390625 Z" transform="translate(-0.296875, 20.015625) scale(1, -1)"/>
</svg>