<svg height="21.40625" viewBox="0 0 24 21.40625" width="24" xmlns="http://www.w3.org/2000/svg">
<path d="M3.59375,19.53125 L3.390625,19.3125 C4.578125,18.578125 6.078125,17.203125 6.59375,16.03125 C8.421875,15.09375 9.265625,18.796875 3.59375,19.53125 Z M1.015625,14.140625 L0.8125,13.890625 C2.0625,13.21875 3.640625,11.875 4.203125,10.734375 C6.140625,9.859375 6.859375,13.703125 1.015625,14.140625 Z M2.46875,4.84375 C2.203125,4.84375 1.21875,4.84375 1.21875,4.84375 L1.21875,4.3125 C1.75,4.265625 2.1875,4.171875 2.5625,3.984375 C3.171875,3.625 3.34375,1.9375 3,-0.640625 C3.078125,-1.421875 3.34375,-1.875 3.8125,-1.875 C4.625,-1.875 5.140625,-1.25 5.1875,-0.1875 C5.25,1.734375 4.5625,2.765625 4.53125,3.8125 C4.53125,4.390625 4.828125,5.15625 5.1875,5.90625 C5.78125,7.109375 9.53125,13.515625 11.453125,16.828125 L11.046875,16.984375 C3.84375,6.21875 3.84375,6.21875 3.171875,5.328125 C2.875,4.875 2.78125,4.84375 2.46875,4.84375 Z" transform="translate(5.8671875, 19.53125) scale(1, -1)"/>
</svg>