<svg height="24" viewBox="0 0 24 24" width="24" xmlns="http://www.w3.org/2000/svg">
<path d="M2.78125,17.859375 L2.78125,6.71875 L3.03125,6.71875 C3.671875,6.71875 4.3125,7.109375 4.3125,7.265625 L4.3125,17.15625 L19.625,17.15625 L19.625,6.84375 L19.875,6.84375 C20.40625,6.84375 21.1875,7.21875 21.21875,7.34375 L21.21875,16.84375 C21.671875,16.9375 22.0625,17.140625 22.21875,17.328125 L20.28125,18.8125 L19.421875,17.859375 L4.484375,17.859375 L2.78125,18.625 Z M15.59375,16.828125 C14.640625,15.546875 13.53125,14.453125 12.359375,13.421875 C10.828125,14.015625 8.875,14.609375 6.4375,15.171875 L6.265625,14.71875 C8.203125,14.046875 9.90625,13.34375 11.375,12.625 C9.53125,11.203125 7.515625,10.03125 5.40625,9.078125 L5.640625,8.65625 C8.109375,9.5 10.4375,10.609375 12.53125,12.03125 C14.234375,11.09375 15.546875,10.109375 16.46875,9.171875 C17.8125,8.109375 19.171875,10.375 13.734375,12.859375 C14.78125,13.65625 15.75,14.515625 16.65625,15.484375 C17.1875,15.359375 17.40625,15.40625 17.5625,15.640625 Z" transform="translate(-0.5, 18.8125) scale(1, -1)"/>
</svg>