<svg height="24" viewBox="0 0 24 24" width="24" xmlns="http://www.w3.org/2000/svg">
<path d="M19.828125,17.765625 C19.171875,16.75 18.40625,15.75 17.546875,14.71875 C16.75,15.453125 15.671875,16.296875 15.671875,16.296875 L14.546875,14.859375 L11.46875,14.859375 L11.46875,17.734375 C12,17.828125 12.1875,18.03125 12.234375,18.34375 L9.890625,18.59375 L9.890625,14.859375 L3.53125,14.859375 L3.71875,14.140625 L9.890625,14.140625 L9.890625,10.25 L1.03125,10.25 L1.25,9.546875 L12.1875,9.546875 C8.921875,6.90625 5.09375,4.53125 1.0625,2.828125 L1.25,2.46875 C6.21875,4.171875 10.65625,6.71875 14.28125,9.546875 L22.3125,9.546875 C22.65625,9.546875 22.890625,9.671875 22.96875,9.9375 C22.125,10.6875 20.8125,11.71875 20.8125,11.71875 L19.625,10.25 L15.140625,10.25 C17.5,12.171875 19.4375,14.203125 20.921875,16.203125 C21.484375,16.015625 21.71875,16.0625 21.9375,16.3125 Z M11.46875,14.140625 L17.046875,14.140625 C15.84375,12.8125 14.5,11.5 13.03125,10.25 L11.46875,10.25 Z" transform="translate(0, 18.59375) scale(1, -1)"/>
</svg>