<svg height="21.84375" viewBox="0 0 24 21.84375" width="24" xmlns="http://www.w3.org/2000/svg">
<path d="M10.609375,20.015625 C8.8125,18.546875 6.671875,17.1875 4.828125,16.203125 L2.8125,16.890625 L2.8125,-1.828125 L3,-1.828125 C3.9375,-1.828125 4.375,-1.4375 4.390625,-1.296875 L4.390625,0.265625 L11.09375,0.265625 C11.421875,0.265625 11.65625,0.390625 11.71875,0.640625 C10.9375,1.390625 9.671875,2.421875 9.671875,2.421875 L8.546875,0.953125 L4.390625,0.953125 L4.390625,8.375 L10.703125,8.375 C11.0625,8.375 11.28125,8.5 11.359375,8.734375 C10.5625,9.484375 9.3125,10.515625 9.3125,10.515625 L8.234375,9.078125 L4.390625,9.078125 L4.390625,15.359375 C6.5,15.953125 9.09375,16.96875 11.296875,18.21875 C11.734375,18 12,18 12.21875,18.171875 Z M12.90625,0.953125 L13.125,0.265625 L19.578125,0.265625 L19.578125,-1.65625 L19.828125,-1.65625 C20.375,-1.65625 21.140625,-1.21875 21.171875,-1.0625 L21.171875,15.4375 C21.640625,15.53125 22.03125,15.71875 22.203125,15.90625 L20.25,17.46875 L19.375,16.4375 L12.546875,16.4375 L12.765625,15.75 L19.578125,15.75 L19.578125,9.078125 L13.21875,9.078125 L13.4375,8.375 L19.578125,8.375 L19.578125,0.953125 Z" transform="translate(-0.5078125, 20.015625) scale(1, -1)"/>
</svg>