<svg height="22.078125" viewBox="0 0 24 22.078125" width="24" xmlns="http://www.w3.org/2000/svg">
<path d="M8.875,6.140625 L8.875,4.9375 C8.875,2.828125 8.09375,0.34375 3.859375,-1.578125 L4.0625,-1.96875 C9.796875,-0.171875 10.46875,2.953125 10.46875,4.9375 L10.46875,5.46875 L14.953125,5.46875 L14.953125,0.140625 C14.953125,-0.953125 15.234375,-1.34375 16.9375,-1.34375 L19.171875,-1.34375 C22.421875,-1.34375 23.109375,-1.03125 23.109375,-0.34375 C23.109375,-0.046875 23.015625,0.140625 22.515625,0.3125 L22.4375,3.21875 L22.125,3.21875 C21.890625,1.96875 21.625,0.765625 21.453125,0.40625 C21.359375,0.1875 21.28125,0.125 21.046875,0.125 C20.78125,0.09375 20.046875,0.09375 19.25,0.09375 L17.28125,0.09375 C16.578125,0.09375 16.484375,0.171875 16.484375,0.453125 L16.484375,5.25 C16.921875,5.296875 17.15625,5.453125 17.296875,5.59375 L15.578125,7.078125 L14.71875,6.140625 L10.75,6.140625 L8.875,6.953125 Z M3.53125,14.90625 L3.53125,9.8125 C3.53125,5.953125 3.28125,1.84375 1.03125,-1.515625 L1.375,-1.78125 C4.796875,1.515625 5.0625,6.234375 5.0625,9.84375 L5.0625,14.1875 L20.1875,14.1875 C19.921875,13.421875 19.53125,12.484375 19.21875,11.90625 L19.578125,11.734375 C20.328125,12.265625 21.40625,13.25 21.953125,13.921875 C22.4375,13.9375 22.703125,13.984375 22.875,14.15625 L21.125,15.859375 L20.15625,14.90625 L12.9375,14.90625 L12.9375,16.875 L20.5,16.875 C20.828125,16.875 21.078125,16.984375 21.125,17.25 C20.296875,18.03125 18.984375,19.0625 18.984375,19.0625 L17.8125,17.59375 L12.9375,17.59375 L12.9375,19.21875 C13.53125,19.296875 13.75,19.53125 13.796875,19.875 L11.375,20.109375 L11.375,14.90625 L5.359375,14.90625 L3.53125,15.671875 Z M5.765625,10.96875 L6,10.296875 L10.578125,10.75 L10.578125,9.140625 C10.578125,7.984375 10.984375,7.6875 13.109375,7.6875 L16.296875,7.6875 C20.765625,7.6875 21.546875,7.84375 21.546875,8.59375 C21.546875,8.875 21.359375,9.046875 20.8125,9.1875 L20.734375,11.0625 L20.453125,11.0625 C20.203125,10.203125 19.96875,9.484375 19.78125,9.21875 C19.6875,9.078125 19.53125,9.03125 19.21875,9 C18.84375,8.96875 17.71875,8.953125 16.390625,8.953125 L13.296875,8.953125 C12.21875,8.953125 12.125,9.046875 12.125,9.359375 L12.125,10.890625 L18.09375,11.5 C18.390625,11.515625 18.625,11.6875 18.640625,11.953125 C17.875,12.5 16.578125,13.34375 16.578125,13.34375 L15.671875,11.953125 L12.125,11.59375 L12.125,13.078125 C12.546875,13.125 12.765625,13.375 12.8125,13.625 L10.578125,13.875 L10.578125,11.453125 Z" transform="translate(-0.0703125, 20.109375) scale(1, -1)"/>
</svg>