<svg height="21.359375" viewBox="0 0 24 21.359375" width="24" xmlns="http://www.w3.org/2000/svg">
<path d="M3.140625,19.53125 L2.90625,19.3125 C4.03125,18.53125 5.46875,17.09375 5.921875,15.9375 C7.65625,15.046875 8.46875,18.484375 3.140625,19.53125 Z M2.109375,14.59375 L1.875,14.359375 C3.078125,13.625 4.578125,12.28125 5.140625,11.1875 C6.890625,10.375 7.5625,13.875 2.109375,14.59375 Z M6.1875,7.171875 C6.859375,7.25 7.21875,7.46875 7.375,7.609375 L5.296875,9.34375 L4.375,8.109375 L0.953125,8.109375 L1.109375,7.390625 L4.703125,7.390625 L4.703125,2.09375 C3.34375,1.3125 1.875,0.578125 0.9375,0.171875 L2.0625,-1.828125 C2.25,-1.703125 2.375,-1.53125 2.359375,-1.25 C3.3125,-0.484375 4.875,0.953125 5.875,2.015625 C7.53125,-0.703125 9.453125,-1.25 13.78125,-1.25 C16.421875,-1.25 19.65625,-1.25 21.984375,-1.25 C22.078125,-0.5 22.484375,-0.078125 23.15625,0.046875 L23.15625,0.390625 C20.296875,0.3125 16.5625,0.28125 13.78125,0.28125 C9.671875,0.28125 7.84375,0.59375 6.1875,2.46875 Z" transform="translate(-0.046875, 19.53125) scale(1, -1)"/>
</svg>