<svg height="21.375" viewBox="0 0 24 21.375" width="24" xmlns="http://www.w3.org/2000/svg">
<path d="M2.65625,13.390625 L2.65625,-1.75 L2.90625,-1.75 C3.703125,-1.75 4.203125,-1.375 4.203125,-1.21875 L4.203125,0.625 L19.875,0.625 L19.875,-1.65625 L20.109375,-1.65625 C20.859375,-1.65625 21.453125,-1.265625 21.453125,-1.15625 L21.453125,12.53125 C21.984375,12.59375 22.265625,12.765625 22.4375,12.953125 L20.59375,14.40625 L19.78125,13.390625 L14.734375,13.390625 L14.734375,17.421875 L22.296875,17.421875 C22.625,17.421875 22.875,17.546875 22.921875,17.8125 C22.0625,18.578125 20.6875,19.625 20.6875,19.625 L19.46875,18.140625 L1.125,18.140625 L1.34375,17.421875 L8.609375,17.421875 L8.609375,13.390625 L4.46875,13.390625 L2.65625,14.15625 Z M10.15625,17.421875 L13.21875,17.421875 L13.21875,13.390625 L10.15625,13.390625 Z M4.203125,1.3125 L4.203125,12.671875 L8.609375,12.671875 C8.546875,9.625 7.84375,6.640625 4.3125,4.25 L4.578125,3.953125 C9.28125,6.140625 10.0625,9.546875 10.15625,12.671875 L13.21875,12.671875 L13.21875,7.015625 C13.21875,5.921875 13.46875,5.546875 14.875,5.546875 L16.296875,5.546875 C18.625,5.546875 19.265625,5.8125 19.265625,6.453125 C19.265625,6.765625 19.125,6.953125 18.671875,7.125 L18.59375,10.109375 L18.28125,10.109375 C18.09375,8.921875 17.828125,7.53125 17.6875,7.21875 C17.609375,7.03125 17.515625,6.984375 17.359375,6.984375 C17.1875,6.953125 16.796875,6.953125 16.3125,6.953125 L15.265625,6.953125 C14.8125,6.953125 14.734375,7.0625 14.734375,7.390625 L14.734375,12.671875 L19.875,12.671875 L19.875,1.3125 Z" transform="translate(-0.0234375, 19.625) scale(1, -1)"/>
</svg>