<svg height="21.890625" viewBox="0 0 24 21.890625" width="24" xmlns="http://www.w3.org/2000/svg">
<path d="M8.546875,19.5625 L5.953125,19.921875 L5.953125,10.265625 L1.296875,10.265625 L1.515625,9.546875 L5.953125,9.546875 L5.953125,1.296875 C5.953125,0.765625 5.828125,0.625 4.984375,0.140625 L6.265625,-1.96875 C6.40625,-1.890625 6.578125,-1.734375 6.71875,-1.484375 C9.703125,-0.03125 12.3125,1.390625 13.828125,2.203125 L13.703125,2.546875 C11.453125,1.796875 9.21875,1.078125 7.5625,0.59375 L7.5625,9.546875 L11.25,9.546875 C12.9375,4.21875 16.53125,0.71875 21.453125,-1.25 C21.703125,-0.484375 22.265625,-0.03125 22.984375,0.046875 L23.046875,0.3125 C18,1.78125 13.703125,4.890625 11.8125,9.546875 L22.15625,9.546875 C22.484375,9.546875 22.734375,9.671875 22.796875,9.9375 C21.953125,10.734375 20.609375,11.765625 20.609375,11.765625 L19.4375,10.265625 L7.5625,10.265625 L7.5625,11.5 C11.78125,13.109375 16.203125,15.578125 18.75,17.546875 C19.21875,17.328125 19.46875,17.375 19.65625,17.59375 L17.734375,19.109375 C15.5,16.890625 11.359375,14.046875 7.5625,12.046875 L7.5625,19.03125 C8.25,19.109375 8.5,19.296875 8.546875,19.5625 Z" transform="translate(-0.171875, 19.921875) scale(1, -1)"/>
</svg>