<svg height="21.890625" viewBox="0 0 24 21.890625" width="24" xmlns="http://www.w3.org/2000/svg">
<path d="M16.265625,15.1875 L13.96875,16.015625 C13.375,14.0625 12.640625,12.21875 11.78125,10.46875 C10.625,11.765625 9.171875,13.171875 7.375,14.6875 L6.953125,14.5 C8.203125,13.015625 9.75,11.09375 11.09375,9.09375 C9.40625,5.921875 7.375,3.234375 5.296875,1.296875 L5.640625,1.015625 C7.9375,2.71875 10.109375,5.015625 11.90625,7.84375 C13.078125,6.03125 14.046875,4.21875 14.46875,2.71875 C16.0625,1.484375 16.78125,4.296875 12.796875,9.28125 C13.75,10.96875 14.59375,12.796875 15.3125,14.765625 C15.859375,14.71875 16.171875,14.921875 16.265625,15.1875 Z M4.03125,18.90625 L4.03125,10.125 C4.03125,5.609375 3.671875,1.46875 0.890625,-1.703125 L1.25,-1.96875 C5.25,1.15625 5.59375,5.8125 5.59375,10.15625 L5.59375,17.96875 L17.296875,17.96875 C17.234375,10.171875 17.359375,1.734375 20.71875,-0.90625 C21.546875,-1.6875 22.484375,-2.140625 23.0625,-1.578125 C23.328125,-1.3125 23.203125,-0.796875 22.703125,0.046875 L23.046875,3.890625 L22.734375,3.9375 C22.515625,2.953125 22.265625,2.0625 21.984375,1.203125 C21.859375,0.859375 21.765625,0.796875 21.484375,1.03125 C18.890625,3.03125 18.703125,11.65625 18.984375,17.59375 C19.53125,17.6875 19.875,17.859375 20.046875,18.03125 L18.046875,19.75 L17.0625,18.671875 L5.875,18.671875 L4.03125,19.484375 Z" transform="translate(-0.109375, 19.75) scale(1, -1)"/>
</svg>