<svg height="22.75" viewBox="0 0 24 22.75" width="24" xmlns="http://www.w3.org/2000/svg">
<path d="M14.5625,5.15625 L14.296875,4.921875 C15.453125,4.078125 16.78125,2.875 17.875,1.609375 L6.84375,0.75 C7.9375,2.375 9.171875,4.703125 10.0625,6.75 L22.375,6.75 C22.703125,6.75 22.96875,6.859375 23.015625,7.125 C22.171875,7.875 20.875,8.828125 20.875,8.828125 L19.703125,7.4375 L7.984375,7.4375 L7.984375,10.4375 L18.546875,10.4375 C18.890625,10.4375 19.125,10.5625 19.203125,10.828125 C18.390625,11.546875 17.109375,12.5 17.109375,12.5 L16.03125,11.140625 L7.984375,11.140625 L7.984375,14.0625 L18.34375,14.0625 C18.671875,14.0625 18.890625,14.1875 18.953125,14.453125 C18.21875,15.171875 16.984375,16.078125 16.984375,16.078125 L15.9375,14.78125 L7.984375,14.78125 L7.984375,17.765625 L19.34375,17.765625 C19.6875,17.765625 19.890625,17.875 19.96875,18.140625 C19.171875,18.859375 17.859375,19.84375 17.859375,19.84375 L16.734375,18.4375 L8.28125,18.4375 L6.40625,19.25 L6.40625,7.4375 L0.9375,7.4375 L1.15625,6.75 L8.09375,6.75 C7.5625,4.828125 6.71875,2.375 5.96875,0.671875 L2.40625,0.453125 L3.546875,-1.609375 C3.796875,-1.53125 4.015625,-1.390625 4.15625,-1.109375 C10.4375,-0.21875 14.96875,0.484375 18.28125,1.109375 C19.015625,0.1875 19.5625,-0.75 19.84375,-1.578125 C21.890625,-2.90625 22.734375,1.875 14.5625,5.15625 Z" transform="translate(0.0234375, 19.84375) scale(1, -1)"/>
</svg>