<svg height="21.421875" viewBox="0 0 24 21.421875" width="24" xmlns="http://www.w3.org/2000/svg">
<path d="M3.359375,19.3125 L3.359375,-1.890625 L3.59375,-1.890625 C4.421875,-1.890625 4.921875,-1.46875 4.921875,-1.34375 L4.921875,17.8125 L9.4375,17.8125 C8.65625,15.75 7.4375,12.75 6.640625,11.15625 C9.28125,9.140625 10.421875,7.265625 10.421875,5.40625 C10.421875,4.375 10.078125,3.859375 9.484375,3.578125 C9.234375,3.484375 9.078125,3.453125 8.765625,3.453125 C8.109375,3.453125 6.71875,3.453125 5.90625,3.453125 L5.90625,3.046875 C6.71875,2.953125 7.421875,2.828125 7.65625,2.640625 C7.921875,2.421875 8.046875,1.890625 8.046875,1.390625 C10.984375,1.515625 12.046875,2.71875 12.046875,5.015625 C12.046875,7.0625 10.703125,9.21875 7.265625,11.234375 C8.46875,12.765625 10.296875,15.75 11.25,17.40625 C11.859375,17.40625 12.21875,17.453125 12.40625,17.609375 L10.484375,19.53125 L9.4375,18.53125 L5.203125,18.53125 Z" transform="translate(4.1171875, 19.53125) scale(1, -1)"/>
</svg>