<svg height="22.171875" viewBox="0 0 24 22.171875" width="24" xmlns="http://www.w3.org/2000/svg">
<path d="M12.53125,18.9375 C14.40625,16.109375 18.140625,13.421875 21.9375,11.8125 C22.078125,12.359375 22.625,12.9375 23.375,13.078125 L23.40625,13.4375 C19.375,14.78125 15.265625,16.84375 12.953125,19.21875 C13.609375,19.296875 13.875,19.390625 13.9375,19.6875 L11.109375,20.328125 C9.75,17.453125 4.75,13.265625 0.8125,11.328125 L0.984375,10.96875 C5.328125,12.703125 10.15625,16.109375 12.53125,18.9375 Z M8.15625,14.828125 L8.359375,14.109375 L15.484375,14.109375 C15.796875,14.109375 16.03125,14.234375 16.109375,14.5 C15.40625,15.140625 14.359375,16.015625 14.359375,16.015625 L13.390625,14.828125 Z M7.296875,8.828125 L16.875,8.828125 L16.875,6.453125 L7.296875,6.453125 Z M7.296875,9.53125 L7.296875,11.734375 L16.875,11.734375 L16.875,9.53125 Z M2.28125,0.171875 L3.359375,-1.84375 C3.59375,-1.796875 3.8125,-1.609375 3.9375,-1.3125 C8.453125,-0.171875 11.6875,0.75 13.984375,1.46875 L13.921875,1.84375 L7.296875,0.84375 L7.296875,5.734375 L11.65625,5.734375 C13.484375,1.6875 17.0625,-0.625 21.8125,-1.84375 C22.03125,-1.0625 22.515625,-0.578125 23.1875,-0.4375 L23.203125,-0.1875 C20.40625,0.265625 17.8125,1.109375 15.71875,2.375 C17.6875,3.09375 19.828125,4.0625 21.09375,4.828125 C21.59375,4.625 21.796875,4.703125 22.015625,4.921875 L20.09375,6.265625 C18.984375,5.25 16.96875,3.765625 15.171875,2.734375 C13.96875,3.546875 12.984375,4.5625 12.265625,5.734375 L16.875,5.734375 L16.875,4.875 L17.140625,4.875 C17.6875,4.875 18.453125,5.28125 18.484375,5.453125 L18.484375,11.546875 C18.859375,11.609375 19.203125,11.78125 19.34375,11.921875 L17.515625,13.34375 L16.65625,12.4375 L7.421875,12.4375 L5.734375,13.21875 L5.734375,0.625 C4.265625,0.40625 3.078125,0.265625 2.28125,0.171875 Z" transform="translate(-0.109375, 20.328125) scale(1, -1)"/>
</svg>