<svg height="22.078125" viewBox="0 0 24 22.078125" width="24" xmlns="http://www.w3.org/2000/svg">
<path d="M9.09375,8.765625 L6.71875,9 L6.71875,5.609375 C6.71875,2.921875 5.859375,0.140625 1.375,-1.609375 L1.578125,-1.9375 C7.21875,-0.3125 8.234375,2.71875 8.28125,5.59375 L8.28125,8.15625 C8.859375,8.234375 9.03125,8.453125 9.09375,8.765625 Z M18.09375,8.734375 L15.625,9 L15.625,-1.890625 L15.9375,-1.890625 C16.53125,-1.890625 17.203125,-1.5625 17.203125,-1.390625 L17.203125,8.109375 C17.8125,8.1875 18.046875,8.40625 18.09375,8.734375 Z M13.578125,19.890625 L11.140625,20.140625 L11.140625,17.5 L1.34375,17.5 L1.53125,16.78125 L6.171875,16.78125 C7.390625,14.953125 9.078125,13.4375 11.09375,12.234375 C8.609375,10.84375 5.359375,9.71875 1.0625,8.96875 L1.203125,8.515625 C5.8125,9.140625 9.453125,10.171875 12.28125,11.546875 C15.046875,10.125 18.3125,9.171875 21.796875,8.5625 C21.953125,9.34375 22.484375,9.8125 23.1875,9.9375 L23.203125,10.21875 C19.9375,10.578125 16.65625,11.28125 13.796875,12.359375 C15.9375,13.625 17.546875,15.125 18.703125,16.78125 L22.109375,16.78125 C22.4375,16.78125 22.6875,16.890625 22.75,17.15625 C21.890625,17.921875 20.515625,18.953125 20.515625,18.953125 L19.296875,17.5 L12.796875,17.5 L12.796875,19.265625 C13.3125,19.34375 13.53125,19.5625 13.578125,19.890625 Z M12.3125,12.984375 C10.078125,13.96875 8.15625,15.234375 6.84375,16.78125 L16.265625,16.78125 C15.3125,15.40625 14.046875,14.140625 12.3125,12.984375 Z" transform="translate(-0.1328125, 20.140625) scale(1, -1)"/>
</svg>