<svg height="22.0625" viewBox="0 0 24 22.0625" width="24" xmlns="http://www.w3.org/2000/svg">
<path d="M9.75,8.875 C10.390625,8.90625 10.625,9.03125 10.734375,9.28125 L8.359375,9.9375 C7.25,7.515625 4.703125,4.21875 1.96875,2.296875 L2.203125,1.984375 C4.171875,2.96875 5.921875,4.421875 7.375,5.90625 C8.40625,4.4375 9.578125,3.171875 11.015625,2.109375 C8.25,0.4375 4.84375,-0.796875 1.03125,-1.578125 L1.171875,-2.015625 C5.515625,-1.421875 9.171875,-0.28125 12.140625,1.375 C14.546875,-0.125 17.640625,-1.15625 21.765625,-1.78125 C21.90625,-0.953125 22.421875,-0.5 23.140625,-0.34375 L23.15625,-0.046875 C19.15625,0.28125 15.953125,1.015625 13.421875,2.140625 C15.28125,3.390625 16.84375,4.875 18.078125,6.625 C18.703125,6.640625 18.984375,6.703125 19.171875,6.90625 L17.421875,8.59375 L16.25,7.578125 L8.8125,7.578125 C9.171875,8.015625 9.484375,8.46875 9.75,8.875 Z M7.75,6.34375 L8.234375,6.859375 L16.109375,6.859375 C15.09375,5.328125 13.734375,3.953125 12.078125,2.8125 C10.3125,3.75 8.90625,4.921875 7.75,6.34375 Z M20.953125,12.140625 L19.78125,10.734375 L12.796875,10.734375 L12.796875,13.25 L19.9375,13.25 C20.28125,13.25 20.5,13.375 20.5625,13.625 C19.75,14.375 18.484375,15.359375 18.484375,15.359375 L17.359375,13.96875 L12.796875,13.96875 L12.796875,16.296875 L21.21875,16.296875 C21.546875,16.296875 21.796875,16.421875 21.84375,16.6875 C21.03125,17.421875 19.734375,18.4375 19.734375,18.4375 L18.578125,17.015625 L12.796875,17.015625 L12.796875,19.125 C13.390625,19.21875 13.625,19.4375 13.6875,19.78125 L11.203125,20.046875 L11.203125,17.015625 L2.515625,17.015625 L2.734375,16.296875 L11.203125,16.296875 L11.203125,13.96875 L3.8125,13.96875 L4.015625,13.25 L11.203125,13.25 L11.203125,10.734375 L1.15625,10.734375 L1.375,10.015625 L22.4375,10.015625 C22.78125,10.015625 22.984375,10.125 23.0625,10.390625 C22.25,11.15625 20.953125,12.140625 20.953125,12.140625 Z" transform="translate(-0.09375, 20.046875) scale(1, -1)"/>
</svg>