<svg height="20.953125" viewBox="0 0 24 20.953125" width="24" xmlns="http://www.w3.org/2000/svg">
<path d="M5.140625,2.40625 L5.140625,3.3125 L11.109375,3.3125 L11.109375,0.546875 C11.109375,-0.9375 11.734375,-1.34375 13.96875,-1.34375 L17.28125,-1.34375 C22.03125,-1.34375 22.9375,-1.125 22.9375,-0.359375 C22.9375,-0.03125 22.78125,0.140625 22.171875,0.3125 L22.078125,3.390625 L21.8125,3.390625 C21.484375,1.96875 21.171875,0.796875 20.96875,0.4375 C20.828125,0.21875 20.71875,0.140625 20.375,0.125 C19.921875,0.078125 18.796875,0.046875 17.359375,0.046875 L14.140625,0.046875 C12.84375,0.046875 12.640625,0.265625 12.640625,0.84375 L12.640625,3.3125 L18.71875,3.3125 L18.71875,2.40625 L18.953125,2.40625 C19.46875,2.40625 20.25,2.734375 20.28125,2.90625 L20.28125,10.25 C20.71875,10.34375 21.078125,10.515625 21.21875,10.6875 L19.34375,12.140625 L18.5,11.1875 L12.640625,11.1875 L12.640625,13.734375 L17.40625,13.734375 L17.40625,12.671875 L17.640625,12.671875 C18.171875,12.671875 18.9375,13.015625 18.953125,13.171875 L18.953125,17.78125 C19.390625,17.859375 19.75,18.03125 19.890625,18.1875 L18.03125,19.609375 L17.1875,18.703125 L6.984375,18.703125 L5.296875,19.46875 L5.296875,12.40625 L5.546875,12.40625 C6.1875,12.40625 6.859375,12.765625 6.859375,12.90625 L6.859375,13.734375 L11.109375,13.734375 L11.109375,11.1875 L5.421875,11.1875 L3.625,11.96875 L3.625,1.890625 L3.859375,1.890625 C4.625,1.890625 5.140625,2.296875 5.140625,2.40625 Z M11.109375,10.484375 L11.109375,7.6875 L5.140625,7.6875 L5.140625,10.484375 Z M12.640625,10.484375 L18.71875,10.484375 L18.71875,7.6875 L12.640625,7.6875 Z M11.109375,4.03125 L5.140625,4.03125 L5.140625,6.953125 L11.109375,6.953125 Z M12.640625,4.03125 L12.640625,6.953125 L18.71875,6.953125 L18.71875,4.03125 Z M17.40625,18 L17.40625,14.453125 L6.859375,14.453125 L6.859375,18 Z" transform="translate(-1.28125, 19.609375) scale(1, -1)"/>
</svg>