<svg height="22.375" viewBox="0 0 24 22.375" width="24" xmlns="http://www.w3.org/2000/svg">
<path d="M15.765625,5.046875 L14.65625,3.640625 L1.25,3.640625 L1.4375,2.921875 L17.15625,2.921875 C17.5,2.921875 17.734375,3.046875 17.78125,3.3125 C17.015625,4.0625 15.765625,5.046875 15.765625,5.046875 Z M8.65625,15.484375 L8.453125,15.234375 C9.625,14.46875 11.1875,13.03125 11.765625,11.921875 C13.53125,11.046875 14.375,14.421875 8.65625,15.484375 Z M12.03125,19.828125 L9.3125,20.359375 C9.21875,19.515625 9,18.265625 8.828125,17.421875 L6.59375,17.421875 L4.703125,18.34375 L4.703125,8.0625 C4.4375,7.921875 4.171875,7.734375 4.03125,7.5625 L5.859375,6.34375 L6.453125,7.265625 L20.09375,7.265625 C19.875,3.5 19.53125,0.671875 18.953125,0.140625 C18.75,-0.078125 18.53125,-0.125 18.078125,-0.125 C17.515625,-0.125 15.484375,0.078125 14.328125,0.171875 L14.296875,-0.265625 C15.3125,-0.40625 16.515625,-0.625 16.921875,-0.890625 C17.296875,-1.15625 17.421875,-1.5625 17.421875,-2.015625 C18.53125,-2.015625 19.4375,-1.75 20.046875,-1.203125 C21.03125,-0.34375 21.484375,2.734375 21.640625,7.078125 C22.15625,7.125 22.4375,7.25 22.609375,7.421875 L20.765625,8.953125 L19.84375,7.96875 L6.265625,7.96875 L6.265625,16.703125 L16.921875,16.703125 C16.75,13.625 16.46875,11.453125 15.984375,10.984375 C15.765625,10.828125 15.546875,10.78125 15.09375,10.78125 C14.609375,10.78125 12.75,10.921875 11.71875,11.015625 L11.71875,10.625 C12.671875,10.484375 13.734375,10.265625 14.09375,10.03125 C14.453125,9.765625 14.546875,9.40625 14.546875,8.96875 C15.53125,8.96875 16.4375,9.1875 17.015625,9.671875 C17.921875,10.4375 18.3125,12.890625 18.484375,16.53125 C18.953125,16.578125 19.25,16.6875 19.421875,16.875 L17.59375,18.359375 L16.6875,17.421875 L9.75,17.421875 C10.203125,18.03125 10.734375,18.75 11.109375,19.296875 C11.609375,19.296875 11.921875,19.46875 12.03125,19.828125 Z" transform="translate(0.0703125, 20.359375) scale(1, -1)"/>
</svg>