<svg height="21.984375" viewBox="0 0 24 21.984375" width="24" xmlns="http://www.w3.org/2000/svg">
<path d="M18.953125,0.484375 L4.484375,0.484375 L4.484375,12.9375 L18.953125,12.9375 Z M20.15625,18.578125 L18.984375,17.109375 L12.265625,17.109375 L12.265625,19.203125 C12.859375,19.296875 13.109375,19.515625 13.15625,19.84375 L10.6875,20.109375 L10.6875,13.625 L4.65625,13.625 L2.953125,14.453125 L2.953125,-1.875 L3.21875,-1.875 C3.90625,-1.875 4.484375,-1.484375 4.484375,-1.296875 L4.484375,-0.234375 L18.953125,-0.234375 L18.953125,-1.734375 L19.203125,-1.734375 C19.75,-1.734375 20.5,-1.3125 20.546875,-1.171875 L20.546875,12.640625 C21.03125,12.75 21.40625,12.90625 21.546875,13.109375 L19.625,14.609375 L18.71875,13.625 L12.265625,13.625 L12.265625,16.390625 L21.71875,16.390625 C22.0625,16.390625 22.296875,16.515625 22.375,16.78125 C21.53125,17.546875 20.15625,18.578125 20.15625,18.578125 Z M6.4375,11.109375 L6.140625,10.828125 C7.78125,9.75 9.796875,8.234375 11.640625,6.625 C9.90625,4.78125 7.875,3.046875 5.734375,1.734375 L5.96875,1.390625 C8.375,2.59375 10.578125,4.203125 12.453125,5.921875 C14.046875,4.484375 15.4375,3.03125 16.15625,1.796875 C17.71875,0.984375 18.140625,3.28125 13.46875,6.890625 C14.765625,8.203125 15.859375,9.578125 16.6875,10.796875 C17.234375,10.6875 17.46875,10.78125 17.609375,11.015625 L15.625,12 C14.875,10.609375 13.796875,9.078125 12.5,7.578125 C10.96875,8.6875 8.96875,9.859375 6.4375,11.109375 Z" transform="translate(-0.6640625, 20.109375) scale(1, -1)"/>
</svg>