<svg height="22.09375" viewBox="0 0 24 22.09375" width="24" xmlns="http://www.w3.org/2000/svg">
<path d="M18.09375,5.40625 L17.78125,5.203125 C18.265625,4.6875 18.75,3.9375 19.0625,3.171875 C17.59375,2.96875 16.15625,2.828125 15.125,2.78125 C15.984375,3.71875 16.921875,4.984375 17.5,6 C18,5.921875 18.265625,6.125 18.359375,6.34375 L16.390625,7.296875 C16.0625,6.171875 15.140625,3.890625 14.28125,3 C14.1875,2.921875 13.84375,2.828125 13.84375,2.828125 L14.65625,1.125 C14.78125,1.171875 14.875,1.265625 15,1.4375 C16.578125,1.828125 18.21875,2.296875 19.25,2.65625 C19.390625,2.234375 19.46875,1.796875 19.46875,1.421875 C20.65625,0.28125 21.984375,3.1875 18.09375,5.40625 Z M5.71875,7.21875 L5.71875,8.015625 L10.25,8.015625 C9.046875,3.859375 6.4375,0.84375 1.015625,-1.515625 L1.203125,-1.84375 C7.734375,0.21875 10.625,3.390625 11.921875,8.015625 L12.078125,8.015625 L12.078125,0.1875 C12.078125,-1.0625 12.53125,-1.421875 14.609375,-1.421875 L17.734375,-1.421875 C22.171875,-1.421875 22.921875,-1.171875 22.921875,-0.453125 C22.921875,-0.140625 22.78125,0.03125 22.21875,0.1875 L22.171875,3.28125 L21.859375,3.28125 C21.578125,1.921875 21.3125,0.703125 21.125,0.28125 C21,0.078125 20.90625,0 20.59375,-0.03125 C20.1875,-0.078125 19.125,-0.09375 17.78125,-0.09375 L14.78125,-0.09375 C13.65625,-0.09375 13.53125,0.046875 13.53125,0.484375 L13.53125,8.015625 L18.3125,8.015625 L18.3125,7.015625 L18.546875,7.015625 C19.078125,7.015625 19.84375,7.375 19.875,7.53125 L19.875,16.125 C20.359375,16.21875 20.734375,16.421875 20.90625,16.609375 L18.953125,18.09375 L18.078125,17.140625 L10.75,17.140625 C11.359375,17.78125 12.078125,18.546875 12.546875,19.125 C13.03125,19.109375 13.375,19.265625 13.484375,19.578125 L10.84375,20.25 C10.5625,19.375 10.109375,18.078125 9.75,17.140625 L5.859375,17.140625 L4.15625,17.921875 L4.15625,6.71875 L4.390625,6.71875 C5.0625,6.71875 5.71875,7.0625 5.71875,7.21875 Z M11.203125,16.421875 C11.1875,15.21875 11.15625,14.0625 11.09375,12.984375 L5.71875,12.984375 L5.71875,16.421875 Z M12.9375,16.421875 L18.3125,16.421875 L18.3125,12.984375 L12.75,12.984375 C12.84375,14.0625 12.890625,15.21875 12.9375,16.421875 Z M11.015625,12.265625 C10.890625,10.984375 10.703125,9.8125 10.4375,8.71875 L5.71875,8.71875 L5.71875,12.265625 Z M12.703125,12.265625 L18.3125,12.265625 L18.3125,8.71875 L12.125,8.71875 C12.390625,9.8125 12.546875,10.984375 12.703125,12.265625 Z" transform="translate(0.03125, 20.25) scale(1, -1)"/>
</svg>