<svg height="21.59375" viewBox="0 0 24 21.59375" width="24" xmlns="http://www.w3.org/2000/svg">
<path d="M7.3125,19.875 L4.734375,20.203125 C4.078125,16.890625 2.6875,12.546875 1.21875,10.015625 L1.578125,9.8125 C2.8125,11.25 3.953125,13.265625 4.890625,15.34375 L9.75,15.34375 C9.453125,14.09375 8.953125,12.28125 8.453125,11.25 L8.859375,11.25 C9.859375,12.234375 10.921875,14.0625 11.546875,15.171875 C12.03125,15.1875 12.3125,15.21875 12.484375,15.390625 L10.625,17.0625 L9.640625,16.0625 L5.203125,16.0625 C5.6875,17.203125 6.125,18.359375 6.4375,19.421875 C7.078125,19.4375 7.265625,19.578125 7.3125,19.875 Z M7.75,12.046875 L5.359375,12.34375 L5.359375,1.5625 C5.359375,1.109375 5.234375,0.984375 4.53125,0.625 L5.515625,-1.390625 C5.734375,-1.296875 6.03125,-1.03125 6.171875,-0.625 C8.25,0.890625 10.15625,2.421875 11.15625,3.1875 L10.96875,3.53125 C9.53125,2.78125 8.109375,2.0625 6.9375,1.484375 L6.9375,11.421875 C7.484375,11.515625 7.703125,11.71875 7.75,12.046875 Z" transform="translate(5.1484375, 20.203125) scale(1, -1)"/>
</svg>