<svg height="21.8125" viewBox="0 0 24 21.8125" width="24" xmlns="http://www.w3.org/2000/svg">
<path d="M13.296875,15.53125 L13.296875,-0.21875 L12.671875,-0.21875 C11.140625,-0.21875 10.890625,0 10.890625,0.640625 L10.890625,13.75 C11.296875,13.828125 11.546875,13.96875 11.6875,14.109375 L10.4375,15.546875 L9.8125,14.78125 L4.890625,14.78125 L4.890625,17.15625 L18.984375,17.15625 L18.984375,14.78125 L15.03125,14.78125 Z M14.734375,3.859375 L14.734375,11.359375 L20.109375,11.359375 L20.109375,3.859375 Z M12.359375,19.53125 L10.078125,20.1875 C9.796875,19.46875 9.3125,18.5 8.828125,17.859375 L5.1875,17.859375 L3.4375,18.59375 L3.4375,13.171875 L3.671875,13.171875 C4.421875,13.171875 4.890625,13.53125 4.890625,13.625 L4.890625,14.0625 L9.40625,14.0625 L9.40625,10.484375 L8.0625,10.484375 L8.0625,11.71875 C8.40625,11.78125 8.65625,11.921875 8.765625,12.078125 L7.265625,13.21875 L6.546875,12.5 L2.1875,12.5 L2.40625,11.78125 L6.71875,11.78125 L6.71875,10.484375 L1.421875,10.484375 L1.625,9.765625 L6.71875,9.765625 L6.71875,8.46875 L2.140625,8.46875 L2.359375,7.78125 L6.71875,7.78125 L6.71875,7.375 L6.90625,7.375 C7.375,7.375 8.0625,7.65625 8.0625,7.84375 L8.0625,9.765625 L9.40625,9.765625 L9.40625,4.125 L7.96875,4.125 L7.96875,5.453125 C8.28125,5.515625 8.546875,5.65625 8.640625,5.8125 L7.125,6.984375 L6.390625,6.234375 L2.0625,6.234375 L2.28125,5.515625 L6.546875,5.515625 L6.546875,4.125 L1.375,4.125 L1.578125,3.40625 L6.546875,3.40625 L6.546875,1.875 L1.625,1.875 L1.84375,1.15625 L6.546875,1.15625 L6.546875,0.28125 L6.765625,0.28125 C7.25,0.28125 7.96875,0.59375 7.96875,0.765625 L7.96875,3.40625 L9.40625,3.40625 L9.40625,0.359375 C9.40625,-1.21875 10.109375,-1.625 12.59375,-1.609375 L16.578125,-1.609375 C22.078125,-1.609375 23.0625,-1.390625 23.0625,-0.578125 C23.0625,-0.234375 22.890625,-0.078125 22.265625,0.125 L22.171875,3.359375 L21.890625,3.359375 C21.546875,1.796875 21.234375,0.59375 21.03125,0.21875 C20.90625,0 20.734375,-0.09375 20.328125,-0.140625 C19.78125,-0.1875 18.4375,-0.21875 16.625,-0.21875 L14.734375,-0.21875 L14.734375,3.140625 L20.109375,3.140625 L20.109375,2.328125 L20.328125,2.328125 C20.8125,2.328125 21.484375,2.6875 21.5,2.859375 L21.5,11.109375 C21.953125,11.1875 22.34375,11.375 22.515625,11.546875 L20.71875,12.9375 L19.890625,12.046875 L14.734375,12.046875 L14.734375,14.0625 L18.984375,14.0625 L18.984375,13.421875 L19.21875,13.421875 C19.703125,13.421875 20.453125,13.75 20.46875,13.890625 L20.46875,16.890625 C20.921875,16.96875 21.3125,17.15625 21.453125,17.359375 L19.578125,18.765625 L18.75,17.859375 L9.75,17.859375 C10.421875,18.28125 11.0625,18.796875 11.546875,19.265625 C12.09375,19.203125 12.265625,19.296875 12.359375,19.53125 Z M15.171875,10.265625 L14.828125,10.078125 C15.453125,9.4375 16.203125,8.5625 16.875,7.65625 C16.296875,6.453125 15.640625,5.375 15,4.5625 L15.359375,4.296875 C16.109375,4.96875 16.828125,5.828125 17.46875,6.84375 C17.96875,6.09375 18.40625,5.40625 18.625,4.796875 C19.625,4.078125 20.28125,5.5625 18.125,7.875 C18.484375,8.5 18.796875,9.140625 19.078125,9.796875 C19.578125,9.75 19.84375,9.9375 19.96875,10.203125 L18.171875,10.890625 C17.921875,10.125 17.640625,9.390625 17.328125,8.65625 C16.75,9.171875 16.03125,9.71875 15.171875,10.265625 Z" transform="translate(-0.21875, 20.1875) scale(1, -1)"/>
</svg>