<svg height="20.640625" viewBox="0 0 24 20.640625" width="24" xmlns="http://www.w3.org/2000/svg">
<path d="M7.703125,14.0625 C7.078125,7.390625 4.796875,1.875 0.9375,-1.0625 L1.25,-1.34375 C5.90625,1.34375 8.515625,6.578125 9.53125,12.953125 C10.078125,12.984375 10.34375,13.25 10.421875,13.5625 Z M6.859375,18.03125 L7.078125,17.296875 L14.140625,17.296875 C14.96875,9.03125 16.625,2.734375 21.390625,-1.125 C21.671875,-0.5 22.3125,0.046875 23.0625,0.1875 L23.1875,0.484375 C17.90625,3.71875 15.765625,10.203125 14.859375,16.9375 C15.796875,16.984375 16.421875,17.1875 16.75,17.546875 L14.40625,19.296875 L13.515625,18.03125 Z" transform="translate(-0.0625, 19.296875) scale(1, -1)"/>
</svg>