<svg height="19.359375" viewBox="0 0 24 19.359375" width="24" xmlns="http://www.w3.org/2000/svg">
<path d="M2.734375,17.78125 L2.953125,17.09375 L16.265625,17.09375 C6.4375,8.921875 1.75,5.234375 2.1875,2.375 C2.546875,0.03125 4.875,-0.71875 9.8125,-0.71875 L15.90625,-0.71875 C20.71875,-0.71875 22.75,-0.390625 22.75,0.59375 C22.75,0.984375 22.484375,1.109375 21.671875,1.34375 L21.796875,5.828125 L21.484375,5.875 C21.03125,3.71875 20.65625,2.25 20.09375,1.46875 C19.796875,1.109375 19.46875,0.859375 16.125,0.859375 L9.59375,0.859375 C5.734375,0.859375 4.265625,1.34375 4.015625,2.6875 C3.71875,4.484375 7.9375,8.5 18.234375,16.578125 C19.015625,16.609375 19.34375,16.734375 19.609375,16.890625 L17.765625,18.640625 L16.875,17.78125 Z" transform="translate(-0.25, 18.640625) scale(1, -1)"/>
</svg>