<svg height="21.4375" viewBox="0 0 24 21.4375" width="24" xmlns="http://www.w3.org/2000/svg">
<path d="M6,18.703125 L6,11.140625 C6,6.140625 5.234375,1.75 0.90625,-1.625 L1.21875,-1.921875 C6.90625,1.3125 7.625,6.390625 7.625,11.15625 L7.625,17.734375 L15.03125,17.734375 L15.03125,0.84375 C15.03125,-0.453125 15.484375,-0.9375 17.234375,-0.9375 L19.203125,-0.953125 C22.375,-0.953125 23.15625,-0.640625 23.15625,0.09375 C23.15625,0.4375 23.015625,0.59375 22.46875,0.8125 L22.390625,4.4375 L22.078125,4.4375 C21.84375,3 21.5,1.3125 21.328125,0.9375 C21.21875,0.71875 21.125,0.671875 20.90625,0.640625 C20.640625,0.625 20.046875,0.59375 19.25,0.59375 L17.5625,0.59375 C16.78125,0.59375 16.625,0.796875 16.625,1.3125 L16.625,17.421875 C17.203125,17.5 17.515625,17.640625 17.6875,17.8125 L15.71875,19.515625 L14.78125,18.453125 L7.921875,18.453125 L6,19.265625 Z" transform="translate(-0.03125, 19.515625) scale(1, -1)"/>
</svg>