<svg height="20.53125" viewBox="0 0 24 20.53125" width="24" xmlns="http://www.w3.org/2000/svg">
<path d="M3.984375,5.96875 C3.71875,5.96875 2.6875,5.96875 2.6875,5.96875 L2.6875,5.453125 C3.234375,5.375 3.71875,5.296875 4.109375,5.0625 C4.796875,4.6875 4.9375,2.78125 4.625,-0.140625 C4.6875,-1.015625 4.921875,-1.515625 5.359375,-1.515625 C6.171875,-1.515625 6.703125,-0.890625 6.75,0.3125 C6.84375,2.46875 6.140625,3.625 6.140625,4.796875 C6.140625,5.375 6.453125,6.125 6.84375,6.796875 C7.484375,7.890625 11.328125,13.53125 13.34375,16.578125 L12.953125,16.796875 C5.546875,7.265625 5.546875,7.265625 4.78125,6.40625 C4.4375,5.96875 4.34375,5.96875 3.984375,5.96875 Z M3.765625,19.015625 L3.53125,18.796875 C4.84375,17.734375 6.625,15.90625 7.21875,14.546875 C9.140625,13.4375 10.15625,17.203125 3.765625,19.015625 Z" transform="translate(3.984375, 19.015625) scale(1, -1)"/>
</svg>