<svg height="21.25" viewBox="0 0 24 21.25" width="24" xmlns="http://www.w3.org/2000/svg">
<path d="M3.03125,17.953125 L3.03125,-1.875 L3.265625,-1.875 C4.109375,-1.875 4.609375,-1.46875 4.609375,-1.3125 L4.609375,0.078125 L21.9375,0.078125 C22.265625,0.078125 22.484375,0.1875 22.5625,0.453125 C21.703125,1.21875 20.28125,2.328125 20.28125,2.328125 L19.03125,0.765625 L4.609375,0.765625 L4.609375,17.234375 L21.03125,17.234375 C21.359375,17.234375 21.578125,17.359375 21.625,17.609375 C20.828125,18.359375 19.515625,19.375 19.515625,19.375 L18.34375,17.953125 L4.890625,17.953125 L3.03125,18.75 Z" transform="translate(-0.796875, 19.375) scale(1, -1)"/>
</svg>