<svg height="21.9375" viewBox="0 0 24 21.9375" width="24" xmlns="http://www.w3.org/2000/svg">
<path d="M10.265625,20.0625 C10.265625,17.953125 10.265625,15.9375 10.171875,13.984375 L2.328125,13.984375 L2.515625,13.296875 L10.125,13.296875 C9.71875,7.46875 8.0625,2.453125 1.125,-1.4375 L1.421875,-1.875 C9.59375,1.921875 11.375,7.21875 11.859375,13.296875 L18.984375,13.296875 C18.765625,6.796875 18.3125,1.5625 17.40625,0.71875 C17.109375,0.484375 16.921875,0.40625 16.421875,0.40625 C15.796875,0.40625 13.65625,0.59375 12.359375,0.71875 L12.34375,0.28125 C13.46875,0.125 14.734375,-0.1875 15.171875,-0.453125 C15.578125,-0.75 15.703125,-1.203125 15.703125,-1.703125 C16.9375,-1.703125 17.953125,-1.375 18.640625,-0.59375 C19.84375,0.71875 20.375,6.03125 20.59375,13.0625 C21.140625,13.15625 21.4375,13.265625 21.625,13.46875 L19.734375,15.078125 L18.75,13.984375 L11.90625,13.984375 C12,15.640625 12.03125,17.375 12.046875,19.125 C12.625,19.203125 12.8125,19.46875 12.890625,19.796875 Z" transform="translate(0.625, 20.0625) scale(1, -1)"/>
</svg>