<svg height="20.578125" viewBox="0 0 24 20.578125" width="24" xmlns="http://www.w3.org/2000/svg">
<path d="M5.140625,2.859375 L5.140625,1.609375 C5.140625,-0.484375 6.453125,-1.0625 9.078125,-1.0625 L17.296875,-1.0625 C21.078125,-1.0625 21.984375,-0.5 21.984375,0.265625 C21.984375,0.625 21.75,0.75 20.921875,0.953125 L20.921875,5.09375 L20.640625,5.09375 C20.359375,3.75 19.84375,1.828125 19.578125,1.25 C19.21875,0.578125 18.625,0.484375 17.140625,0.484375 L8.953125,0.484375 C7.5625,0.484375 6.765625,0.640625 6.765625,1.5625 L6.765625,8.453125 C11.875,10.078125 17.09375,12.8125 20.046875,15.125 C20.546875,14.90625 20.765625,14.953125 21,15.140625 L19.03125,16.796875 C16.390625,14.203125 11.375,11.015625 6.765625,8.96875 L6.765625,18.578125 C7.375,18.671875 7.578125,18.90625 7.625,19.25 L5.140625,19.515625 Z" transform="translate(-1.5625, 19.515625) scale(1, -1)"/>
</svg>