<svg height="21.640625" viewBox="0 0 24 21.640625" width="24" xmlns="http://www.w3.org/2000/svg">
<path d="M16.015625,13.78125 L15.671875,13.609375 C17.953125,11.234375 20.640625,7.421875 21.046875,4.421875 C23.1875,2.640625 24.453125,8.453125 16.015625,13.78125 Z M6.03125,13.921875 C5.25,10.796875 3.40625,6.59375 0.84375,3.9375 L1.109375,3.640625 C4.3125,6 6.53125,9.765625 7.6875,12.625 C8.28125,12.578125 8.5,12.71875 8.609375,13.015625 Z M11.25,19.796875 L11.25,0.859375 C11.25,0.4375 11.09375,0.265625 10.5625,0.265625 C9.90625,0.265625 6.59375,0.53125 6.59375,0.53125 L6.59375,0.140625 C8.015625,-0.046875 8.765625,-0.265625 9.234375,-0.546875 C9.671875,-0.84375 9.859375,-1.265625 9.9375,-1.84375 C12.625,-1.5625 12.9375,-0.671875 12.9375,0.71875 L12.9375,18.859375 C13.53125,18.9375 13.75,19.171875 13.828125,19.515625 Z" transform="translate(-0.6484375, 19.796875) scale(1, -1)"/>
</svg>