<svg height="22.015625" viewBox="0 0 24 22.015625" width="24" xmlns="http://www.w3.org/2000/svg">
<path d="M10.921875,20.140625 C9.34375,15.90625 5.96875,10.578125 1.78125,7.21875 L2.015625,6.953125 C4.078125,8.234375 5.90625,9.8125 7.46875,11.546875 C9.1875,10.3125 11.28125,8.453125 11.921875,6.859375 C13.9375,5.78125 14.640625,9.9375 7.796875,11.921875 C8.78125,13.03125 9.640625,14.1875 10.421875,15.34375 L19.375,15.34375 C16.25,6.125 10.921875,1.65625 2.015625,-1.4375 L2.234375,-1.875 C12.359375,0.71875 17.921875,5.515625 21.28125,14.96875 C21.8125,15 22.171875,15.09375 22.390625,15.3125 L20.453125,17.0625 L19.421875,16.03125 L10.875,16.03125 C11.46875,16.984375 11.96875,17.921875 12.40625,18.8125 C13.015625,18.75 13.25,18.859375 13.375,19.15625 Z" transform="translate(-0.0859375, 20.140625) scale(1, -1)"/>
</svg>