<svg height="21.984375" viewBox="0 0 24 21.984375" width="24" xmlns="http://www.w3.org/2000/svg">
<path d="M17.09375,14.6875 C15.984375,11.59375 14.28125,8.71875 12.046875,6.1875 C10.484375,7.75 9.09375,9.546875 7.921875,11.515625 C8.78125,12.546875 9.546875,13.625 10.21875,14.6875 Z M5.65625,16.15625 L6.703125,17.359375 L5.6875,17.78125 L5.203125,16.375 C4.3125,15.578125 2.828125,14.5 1.984375,13.921875 L3.3125,12.265625 C3.5,12.40625 3.59375,12.671875 3.4375,12.953125 C3.90625,13.578125 4.734375,14.734375 5.328125,15.625 C5.734375,14.375 6.21875,13.203125 6.71875,12.046875 C5.234375,9.90625 3.453125,7.890625 1.484375,6.28125 L1.78125,6 C3.890625,7.3125 5.734375,9 7.3125,10.828125 C8.40625,8.71875 9.671875,6.8125 11.09375,5.15625 C8.421875,2.421875 5.0625,0.140625 1.0625,-1.46875 L1.3125,-1.84375 C5.765625,-0.453125 9.265625,1.609375 12.046875,4.109375 C14.6875,1.375 17.859375,-0.671875 21.453125,-1.890625 C21.75,-1.171875 22.390625,-0.71875 23.09375,-0.671875 L23.15625,-0.40625 C19.421875,0.625 16.015625,2.546875 13.125,5.15625 C15.765625,7.828125 17.640625,10.96875 18.953125,14.359375 C19.578125,14.40625 19.84375,14.453125 20.046875,14.6875 L18.1875,16.46875 L17.0625,15.390625 L10.65625,15.390625 C11.375,16.53125 11.96875,17.6875 12.453125,18.765625 C13.078125,18.703125 13.296875,18.84375 13.4375,19.125 L10.890625,20.09375 C10.109375,17.8125 8.828125,15.234375 7.203125,12.765625 C6.625,13.84375 6.125,14.96875 5.65625,16.15625 Z" transform="translate(-0.109375, 20.09375) scale(1, -1)"/>
</svg>