<svg height="21.984375" viewBox="0 0 24 21.984375" width="24" xmlns="http://www.w3.org/2000/svg">
<path d="M13.515625,19.78125 L10.890625,20.0625 C10.890625,17.609375 10.890625,15.265625 10.703125,13.03125 L1.203125,13.03125 L1.375,12.34375 L10.625,12.34375 C10.015625,6.984375 7.9375,2.28125 0.9375,-1.46875 L1.21875,-1.890625 C9.40625,1.703125 11.640625,6.640625 12.3125,12.21875 C13.03125,7.421875 14.96875,1.734375 21.59375,-1.921875 C21.796875,-0.984375 22.390625,-0.671875 23.25,-0.578125 L23.328125,-0.28125 C16.21875,2.921875 13.65625,7.796875 12.765625,12.34375 L22.390625,12.34375 C22.703125,12.34375 22.96875,12.453125 23.015625,12.703125 C22.109375,13.578125 20.609375,14.65625 20.609375,14.65625 L19.296875,13.03125 L12.40625,13.03125 C12.59375,15 12.625,17.046875 12.671875,19.109375 C13.25,19.171875 13.4375,19.4375 13.515625,19.78125 Z" transform="translate(-0.1328125, 20.0625) scale(1, -1)"/>
</svg>