<svg height="21.03125" viewBox="0 0 24 21.03125" width="24" xmlns="http://www.w3.org/2000/svg">
<path d="M3.53125,18.078125 L3.75,17.375 L17.40625,17.375 C16.171875,16.15625 14.328125,14.546875 12.625,13.4375 L11.296875,13.578125 L11.296875,9.625 L1.078125,9.625 L1.296875,8.90625 L11.296875,8.90625 L11.296875,0.703125 C11.296875,0.234375 11.140625,0.078125 10.5625,0.078125 C9.890625,0.078125 6.3125,0.34375 6.3125,0.34375 L6.3125,-0.046875 C7.796875,-0.21875 8.640625,-0.4375 9.125,-0.703125 C9.578125,-0.953125 9.765625,-1.34375 9.859375,-1.875 C12.578125,-1.609375 12.90625,-0.75 12.90625,0.546875 L12.90625,8.90625 L22.34375,8.90625 C22.6875,8.90625 22.9375,9.03125 22.984375,9.28125 C22.078125,10.109375 20.640625,11.203125 20.640625,11.203125 L19.375,9.625 L12.90625,9.625 L12.90625,12.703125 C13.46875,12.765625 13.703125,12.984375 13.75,13.3125 L13.296875,13.375 C15.640625,14.375 18.125,15.953125 19.78125,17.140625 C20.296875,17.1875 20.609375,17.234375 20.828125,17.40625 L18.90625,19.15625 L17.765625,18.078125 Z" transform="translate(-0.03125, 19.15625) scale(1, -1)"/>
</svg>