<svg height="21.9375" viewBox="0 0 24 21.9375" width="24" xmlns="http://www.w3.org/2000/svg">
<path d="M11.09375,20.0625 L11.09375,6.90625 L4.84375,6.90625 L4.84375,15.953125 C5.46875,16.03125 5.6875,16.265625 5.734375,16.609375 L3.3125,16.84375 L3.3125,3.5 L3.625,3.5 C4.203125,3.5 4.84375,3.859375 4.84375,4.0625 L4.84375,6.1875 L11.09375,6.1875 L11.09375,-1.875 L11.375,-1.875 C11.96875,-1.875 12.640625,-1.46875 12.640625,-1.21875 L12.640625,6.1875 L18.84375,6.1875 L18.84375,3.953125 L19.125,3.953125 C19.75,3.953125 20.40625,4.265625 20.40625,4.46875 L20.40625,15.90625 C21.03125,15.984375 21.21875,16.21875 21.28125,16.5625 L18.84375,16.828125 L18.84375,6.90625 L12.640625,6.90625 L12.640625,19.125 C13.25,19.21875 13.4375,19.46875 13.515625,19.796875 Z" transform="translate(-0.296875, 20.0625) scale(1, -1)"/>
</svg>