<svg height="21.984375" viewBox="0 0 24 21.984375" width="24" xmlns="http://www.w3.org/2000/svg">
<path d="M3.265625,15.53125 L3.265625,1.484375 L3.53125,1.484375 C4.21875,1.484375 4.84375,1.875 4.84375,2.0625 L4.84375,14.828125 L11.140625,14.828125 L11.140625,-1.890625 L11.453125,-1.890625 C12.046875,-1.890625 12.71875,-1.484375 12.71875,-1.25 L12.71875,14.828125 L19.21875,14.828125 L19.21875,4.265625 C19.21875,3.890625 19.078125,3.71875 18.59375,3.71875 C17.96875,3.71875 15.234375,3.9375 15.234375,3.9375 L15.234375,3.546875 C16.46875,3.40625 17.109375,3.1875 17.546875,2.921875 C17.90625,2.6875 18.046875,2.25 18.125,1.734375 C20.515625,1.96875 20.78125,2.8125 20.78125,4.078125 L20.78125,14.546875 C21.28125,14.609375 21.640625,14.828125 21.8125,15 L19.78125,16.53125 L18.984375,15.53125 L12.71875,15.53125 L12.71875,19.15625 C13.34375,19.25 13.53125,19.515625 13.609375,19.84375 L11.140625,20.09375 L11.140625,15.53125 L5.015625,15.53125 L3.265625,16.34375 Z" transform="translate(-0.5390625, 20.09375) scale(1, -1)"/>
</svg>