<svg height="20.859375" viewBox="0 0 24 20.859375" width="24" xmlns="http://www.w3.org/2000/svg">
<path d="M4.46875,7.65625 L5.359375,8.734375 L4.421875,9.046875 L4.03125,7.796875 C3.390625,7.21875 2.28125,6.390625 1.625,5.96875 L2.828125,4.515625 C3,4.65625 3.046875,4.84375 2.921875,5.0625 L4.21875,7.21875 C4.703125,5.765625 5.28125,4.5625 5.921875,3.546875 C4.703125,1.578125 3.046875,-0.125 0.796875,-1.4375 L1.015625,-1.78125 C3.5,-0.671875 5.328125,0.796875 6.703125,2.5 C9.1875,-0.484375 12.796875,-1.203125 18.390625,-1.203125 C19.3125,-1.203125 21.265625,-1.203125 22.078125,-1.203125 C22.125,-0.546875 22.484375,-0.046875 23.109375,0.078125 L23.109375,0.40625 C21.859375,0.390625 19.625,0.390625 18.546875,0.390625 C13.265625,0.390625 9.703125,0.890625 7.21875,3.1875 C8.8125,5.421875 9.703125,8.015625 10.265625,10.78125 C10.78125,10.828125 11.015625,10.890625 11.1875,11.109375 L9.4375,12.71875 L8.453125,11.71875 L5.453125,11.71875 C6.75,13.65625 8.109375,15.796875 8.90625,17.109375 C9.453125,17.15625 9.90625,17.25 10.109375,17.453125 L8.359375,19.078125 L7.421875,18.140625 L2.109375,18.140625 L2.328125,17.421875 L7.265625,17.421875 C6.046875,15.34375 4.203125,12.34375 2.609375,10.03125 C3.1875,9.71875 3.640625,9.671875 4.078125,9.703125 L4.984375,11.015625 L8.5625,11.015625 C8.15625,8.5625 7.4375,6.265625 6.3125,4.203125 C5.59375,5.140625 4.984375,6.265625 4.46875,7.65625 Z" transform="translate(0.046875, 19.078125) scale(1, -1)"/>
</svg>