<svg height="21.46875" viewBox="0 0 24 21.46875" width="24" xmlns="http://www.w3.org/2000/svg">
<path d="M2.328125,17.96875 L2.515625,17.25 L11.15625,17.25 L11.15625,10.421875 L0.984375,10.421875 L1.203125,9.71875 L11.15625,9.71875 L11.15625,-1.9375 L11.421875,-1.9375 C12.234375,-1.9375 12.765625,-1.53125 12.765625,-1.390625 L12.765625,9.71875 L22.4375,9.71875 C22.78125,9.71875 23.015625,9.84375 23.09375,10.109375 C22.171875,10.890625 20.71875,12.03125 20.71875,12.03125 L19.4375,10.421875 L12.765625,10.421875 L12.765625,17.25 L21.125,17.25 C21.484375,17.25 21.703125,17.375 21.75,17.640625 C20.875,18.4375 19.4375,19.53125 19.4375,19.53125 L18.171875,17.96875 Z" transform="translate(-0.0390625, 19.53125) scale(1, -1)"/>
</svg>