<svg height="20.375" viewBox="0 0 24 20.375" width="24" xmlns="http://www.w3.org/2000/svg">
<path d="M3.390625,10.96875 L3.390625,1.609375 C3.390625,-0.5 4.75,-1.0625 7.515625,-1.0625 L17.65625,-1.0625 C21.71875,-1.0625 22.78125,-0.546875 22.78125,0.265625 C22.78125,0.625 22.515625,0.71875 21.703125,0.953125 L21.671875,5.421875 L21.328125,5.421875 C21.09375,3.953125 20.609375,1.921875 20.296875,1.265625 C19.9375,0.546875 19.296875,0.4375 17.515625,0.4375 L7.390625,0.4375 C5.875,0.4375 4.96875,0.625 4.96875,1.5625 L4.96875,10.265625 L17.5,10.265625 L17.5,8.234375 L17.734375,8.234375 C18.234375,8.234375 19.0625,8.609375 19.078125,8.765625 L19.078125,17.203125 C19.609375,17.296875 20.015625,17.546875 20.203125,17.765625 L18.125,19.3125 L17.234375,18.3125 L3.09375,18.3125 L3.3125,17.59375 L17.5,17.59375 L17.5,10.96875 L5.28125,10.96875 L3.390625,11.765625 Z" transform="translate(-0.9375, 19.3125) scale(1, -1)"/>
</svg>