<svg height="20.640625" viewBox="0 0 24 20.640625" width="24" xmlns="http://www.w3.org/2000/svg">
<path d="M3.953125,12.1875 C4.015625,8.96875 2.640625,6.125 1.21875,4.984375 C0.8125,4.5625 0.578125,3.953125 0.9375,3.53125 C1.34375,3.03125 2.296875,3.359375 2.96875,4.109375 C4.0625,5.234375 5.375,7.96875 4.375,12.21875 Z M7.84375,19.5625 L7.703125,19.203125 C10.796875,17.828125 12.9375,15.859375 13.734375,14.5625 C15.640625,13.578125 16.6875,17.875 7.84375,19.5625 Z M18.125,12.484375 L17.90625,12.234375 C20.5,9.984375 21.359375,6.4375 21.453125,4.265625 C23.1875,2.234375 25.265625,8.5625 18.125,12.484375 Z M7.4375,14.65625 L7.4375,0.84375 C7.4375,-0.671875 8.0625,-1.078125 10.296875,-1.078125 L13.578125,-1.078125 C18.28125,-1.078125 19.203125,-0.8125 19.203125,0.03125 C19.203125,0.34375 19.03125,0.546875 18.4375,0.75 L18.390625,5.109375 L18.078125,5.109375 C17.734375,3.140625 17.40625,1.421875 17.1875,0.9375 C17.0625,0.640625 16.9375,0.546875 16.578125,0.5 C16.15625,0.453125 15.078125,0.4375 13.625,0.4375 L10.484375,0.4375 C9.21875,0.4375 9.03125,0.640625 9.03125,1.21875 L9.03125,13.75 C9.546875,13.84375 9.765625,14.09375 9.8125,14.40625 Z" transform="translate(-0.921875, 19.5625) scale(1, -1)"/>
</svg>