<svg height="21.5625" viewBox="0 0 24 21.5625" width="24" xmlns="http://www.w3.org/2000/svg">
<path d="M6.71875,18.71875 L6.71875,16.390625 C6.71875,13.890625 5.828125,11.453125 1.390625,9.546875 L1.609375,9.1875 C7.53125,10.96875 8.28125,13.984375 8.28125,16.421875 L8.28125,18.046875 L14.328125,18.046875 L14.328125,12.640625 C14.328125,11.546875 14.65625,11.15625 16.34375,11.15625 L18.484375,11.15625 C21.640625,11.15625 22.375,11.46875 22.375,12.140625 C22.375,12.4375 22.265625,12.640625 21.765625,12.8125 L21.703125,15.953125 L21.40625,15.953125 C21.140625,14.59375 20.875,13.296875 20.71875,12.90625 C20.609375,12.703125 20.515625,12.625 20.28125,12.625 C20.015625,12.59375 19.34375,12.59375 18.546875,12.59375 L16.6875,12.59375 C15.984375,12.59375 15.890625,12.640625 15.890625,12.953125 L15.890625,17.828125 C16.3125,17.875 16.578125,18.03125 16.703125,18.171875 L15,19.6875 L14.109375,18.71875 L8.5625,18.71875 L6.71875,19.53125 Z M3.640625,9.1875 L3.859375,8.5 L6.546875,8.5 C7.609375,6.09375 9.125,4.15625 11.046875,2.59375 C8.375,0.765625 4.96875,-0.59375 0.9375,-1.46875 L1.109375,-1.875 C5.609375,-1.203125 9.234375,0.03125 12.09375,1.828125 C14.71875,0.03125 17.953125,-1.15625 21.671875,-1.875 C21.890625,-1.078125 22.4375,-0.59375 23.15625,-0.453125 L23.203125,-0.21875 C19.53125,0.28125 16.15625,1.21875 13.34375,2.6875 C15.390625,4.203125 16.96875,6.046875 18.171875,8.234375 C18.75,8.25 19.03125,8.328125 19.21875,8.546875 L17.5,10.203125 L16.3125,9.1875 Z M12.125,3.390625 C9.984375,4.703125 8.28125,6.40625 7.15625,8.5 L16.265625,8.5 C15.3125,6.53125 13.890625,4.828125 12.125,3.390625 Z" transform="translate(-0.0703125, 19.6875) scale(1, -1)"/>
</svg>