<svg height="21.140625" viewBox="0 0 24 21.140625" width="24" xmlns="http://www.w3.org/2000/svg">
<path d="M16.984375,17.546875 L16.984375,12.859375 L7.578125,12.859375 L7.578125,17.546875 Z M6.03125,18.265625 L6.03125,10.734375 C6.03125,5.875 5.28125,1.6875 1.125,-1.578125 L1.46875,-1.875 C5.28125,0.34375 6.765625,3.40625 7.296875,6.640625 L16.984375,6.640625 L16.984375,0.71875 C16.984375,0.3125 16.84375,0.140625 16.34375,0.140625 C15.765625,0.140625 12.84375,0.359375 12.84375,0.359375 L12.84375,-0.03125 C14.09375,-0.1875 14.8125,-0.390625 15.21875,-0.671875 C15.578125,-0.9375 15.75,-1.34375 15.84375,-1.875 C18.3125,-1.625 18.578125,-0.765625 18.578125,0.53125 L18.578125,17.234375 C19.078125,17.296875 19.46875,17.515625 19.625,17.71875 L17.59375,19.265625 L16.75,18.265625 L7.890625,18.265625 L6.03125,19.0625 Z M16.984375,12.171875 L16.984375,7.34375 L7.390625,7.34375 C7.53125,8.46875 7.578125,9.625 7.578125,10.75 L7.578125,12.171875 Z" transform="translate(1.625, 19.265625) scale(1, -1)"/>
</svg>