<svg height="20.484375" viewBox="0 0 24 20.484375" width="24" xmlns="http://www.w3.org/2000/svg">
<path d="M17.640625,8.875 L17.640625,1.15625 L6.4375,1.15625 L6.4375,8.875 Z M17.640625,9.59375 L6.4375,9.59375 L6.4375,17.046875 L17.640625,17.046875 Z M4.84375,17.734375 L4.84375,-1.6875 L5.140625,-1.6875 C5.859375,-1.6875 6.4375,-1.265625 6.4375,-1.03125 L6.4375,0.453125 L17.640625,0.453125 L17.640625,-1.5625 L17.875,-1.5625 C18.453125,-1.5625 19.25,-1.125 19.265625,-0.953125 L19.265625,16.734375 C19.75,16.828125 20.140625,17.015625 20.296875,17.203125 L18.3125,18.796875 L17.40625,17.734375 L6.59375,17.734375 L4.84375,18.546875 Z" transform="translate(-0.5703125, 18.796875) scale(1, -1)"/>
</svg>