<svg height="22.015625" viewBox="0 0 24 22.015625" width="24" xmlns="http://www.w3.org/2000/svg">
<path d="M18.859375,20.140625 C16.21875,19.03125 11.328125,17.734375 6.9375,17.015625 L4.875,17.71875 L4.875,10.0625 C4.875,5.8125 4.390625,1.734375 1.21875,-1.4375 L1.5625,-1.75 C6,1.265625 6.4375,5.953125 6.4375,10.03125 L6.4375,10.6875 L14.09375,10.6875 L14.09375,-1.875 L14.359375,-1.875 C15.171875,-1.875 15.671875,-1.578125 15.671875,-1.484375 L15.671875,10.6875 L22.296875,10.6875 C22.65625,10.6875 22.875,10.796875 22.9375,11.0625 C22.109375,11.828125 20.78125,12.84375 20.78125,12.84375 L19.578125,11.40625 L6.4375,11.40625 L6.4375,16.421875 C11.109375,16.75 16.109375,17.6875 19.390625,18.578125 C19.96875,18.359375 20.40625,18.34375 20.609375,18.546875 Z" transform="translate(-0.078125, 20.140625) scale(1, -1)"/>
</svg>