<svg height="20.015625" viewBox="0 0 24 20.015625" width="24" xmlns="http://www.w3.org/2000/svg">
<path d="M15.703125,10.921875 L14.5625,9.5 L5.1875,9.5 L5.1875,16.796875 L18.84375,16.796875 L18.84375,1.484375 L5.1875,1.484375 L5.1875,8.78125 L17.140625,8.78125 C17.46875,8.78125 17.6875,8.90625 17.765625,9.171875 C16.96875,9.90625 15.703125,10.921875 15.703125,10.921875 Z M5.1875,-0.765625 L5.1875,0.765625 L18.84375,0.765625 L18.84375,-1.265625 L19.0625,-1.265625 C19.625,-1.265625 20.40625,-0.890625 20.421875,-0.703125 L20.421875,16.390625 C21,16.484375 21.484375,16.6875 21.671875,16.921875 L19.515625,18.625 L18.546875,17.5 L5.359375,17.5 L3.625,18.34375 L3.625,-1.390625 L3.90625,-1.390625 C4.625,-1.390625 5.1875,-0.984375 5.1875,-0.765625 Z" transform="translate(-0.6484375, 18.625) scale(1, -1)"/>
</svg>