<svg height="21.46875" viewBox="0 0 24 21.46875" width="24" xmlns="http://www.w3.org/2000/svg">
<path d="M2.765625,18.125 L2.96875,17.40625 L10.828125,17.40625 C10.78125,15.390625 10.734375,13.375 10.390625,11.375 L1.125,11.375 L1.3125,10.65625 L10.265625,10.65625 C9.40625,6.28125 7.125,2.109375 0.984375,-1.421875 L1.296875,-1.84375 C7.796875,1.265625 10.484375,5.1875 11.640625,9.453125 L11.640625,0.34375 C11.640625,-1.015625 12.125,-1.390625 14.296875,-1.390625 L17.5625,-1.390625 C22.125,-1.390625 23.015625,-1.15625 23.015625,-0.390625 C23.015625,-0.046875 22.875,0.140625 22.265625,0.3125 L22.21875,3.84375 L21.90625,3.84375 C21.59375,2.25 21.328125,0.890625 21.140625,0.453125 C21.03125,0.21875 20.90625,0.125 20.5625,0.09375 C20.15625,0.078125 19.0625,0.046875 17.640625,0.046875 L14.515625,0.046875 C13.34375,0.046875 13.203125,0.1875 13.203125,0.640625 L13.203125,8.6875 C13.703125,8.734375 13.9375,8.96875 13.984375,9.265625 L11.65625,9.53125 L11.921875,10.65625 L22.25,10.65625 C22.578125,10.65625 22.84375,10.78125 22.921875,11.046875 C22.03125,11.859375 20.640625,12.90625 20.640625,12.90625 L19.390625,11.375 L12.046875,11.375 C12.390625,13.34375 12.484375,15.359375 12.546875,17.40625 L20.8125,17.40625 C21.140625,17.40625 21.40625,17.515625 21.453125,17.78125 C20.59375,18.546875 19.25,19.625 19.25,19.625 L18.03125,18.125 Z" transform="translate(0, 19.625) scale(1, -1)"/>
</svg>