<svg height="21.984375" viewBox="0 0 24 21.984375" width="24" xmlns="http://www.w3.org/2000/svg">
<path d="M16.875,10.609375 C15.796875,8.328125 14.234375,6.28125 12.234375,4.515625 C10.125,6.171875 8.421875,8.1875 7.34375,10.609375 Z M1.375,16.171875 L1.578125,15.484375 L11.1875,15.484375 L11.1875,11.296875 L2.875,11.296875 L3.09375,10.609375 L6.8125,10.609375 C7.796875,7.84375 9.34375,5.5625 11.28125,3.703125 C8.5,1.46875 5.015625,-0.28125 0.984375,-1.46875 L1.171875,-1.890625 C5.6875,-0.890625 9.34375,0.71875 12.234375,2.828125 C14.78125,0.703125 17.921875,-0.8125 21.5,-1.828125 C21.765625,-1.0625 22.34375,-0.578125 23.109375,-0.484375 L23.140625,-0.234375 C19.515625,0.5 16.125,1.828125 13.375,3.703125 C15.640625,5.59375 17.40625,7.796875 18.71875,10.3125 C19.34375,10.34375 19.609375,10.421875 19.828125,10.609375 L18.046875,12.3125 L16.921875,11.296875 L12.765625,11.296875 L12.765625,15.484375 L22.078125,15.484375 C22.421875,15.484375 22.65625,15.59375 22.734375,15.859375 C21.859375,16.625 20.5,17.6875 20.5,17.6875 L19.296875,16.171875 L12.765625,16.171875 L12.765625,19.171875 C13.375,19.265625 13.609375,19.515625 13.65625,19.84375 L11.1875,20.09375 L11.1875,16.171875 Z" transform="translate(-0.0625, 20.09375) scale(1, -1)"/>
</svg>