<svg height="21.984375" viewBox="0 0 24 21.984375" width="24" xmlns="http://www.w3.org/2000/svg">
<path d="M6.359375,18.03125 L6.140625,17.765625 C7.75,16.890625 9.859375,15.234375 10.6875,13.875 C12.71875,13.0625 13.171875,17.09375 6.359375,18.03125 Z M4.125,12.5 L3.9375,12.234375 C5.609375,11.421875 7.84375,9.765625 8.71875,8.40625 C10.796875,7.609375 11.1875,11.734375 4.125,12.5 Z M14.453125,20.09375 L14.453125,6.5 L1.171875,4.375 L1.46875,3.75 L14.453125,5.828125 L14.453125,-1.890625 L14.765625,-1.890625 C15.359375,-1.890625 16.03125,-1.484375 16.03125,-1.25 L16.03125,6.078125 L22.46875,7.109375 C22.78125,7.125 23.015625,7.3125 23.046875,7.578125 C22.0625,8.234375 20.515625,9.09375 20.515625,9.09375 L19.46875,7.3125 L16.03125,6.765625 L16.03125,19.15625 C16.65625,19.25 16.84375,19.515625 16.921875,19.84375 Z" transform="translate(-0.109375, 20.09375) scale(1, -1)"/>
</svg>