<svg height="21.96875" viewBox="0 0 24 21.96875" width="24" xmlns="http://www.w3.org/2000/svg">
<path d="M7.34375,20.140625 C6.3125,15.40625 4.125,11.234375 1.703125,8.609375 L2.046875,8.359375 C3.953125,9.765625 5.640625,11.765625 6.984375,14.203125 L10.84375,14.203125 C10.515625,6.703125 8.59375,1.890625 1.171875,-1.4375 L1.34375,-1.75 C8.96875,0.71875 11.515625,4.890625 12.359375,11.46875 C13.109375,5.96875 15.09375,1.203125 21.09375,-1.828125 C21.3125,-0.9375 21.890625,-0.59375 22.703125,-0.5 L22.78125,-0.234375 C15.484375,2.8125 13.265625,7.625 12.578125,13.6875 L12.625,14.203125 L19.21875,14.203125 C18.625,12.59375 17.640625,10.25 16.890625,8.828125 L17.203125,8.65625 C18.53125,10.0625 20.25,12.390625 21.140625,13.890625 C21.625,13.9375 21.90625,13.984375 22.078125,14.15625 L20.234375,15.984375 L19.171875,14.921875 L7.390625,14.921875 C8.015625,16.15625 8.546875,17.46875 9.03125,18.859375 C9.53125,18.859375 9.8125,19.078125 9.9375,19.375 Z" transform="translate(0.0234375, 20.140625) scale(1, -1)"/>
</svg>