<svg height="21.53125" viewBox="0 0 24 21.53125" width="24" xmlns="http://www.w3.org/2000/svg">
<path d="M5.25,16.3125 C4.984375,14.546875 3.953125,10.46875 3.234375,8.734375 C3.9375,8.5 4.625,8.515625 4.96875,8.78125 L5.421875,10.25 L12.671875,10.25 C10.078125,6.671875 5.71875,3 0.953125,0.703125 L1.203125,0.3125 C6.5,2.375 11.1875,5.640625 14.1875,9.40625 L14.1875,0.71875 C14.1875,0.28125 14.015625,0.140625 13.46875,0.140625 C12.84375,0.140625 9.59375,0.359375 9.59375,0.359375 L9.59375,0 C10.984375,-0.171875 11.734375,-0.359375 12.234375,-0.671875 C12.625,-0.9375 12.84375,-1.375 12.890625,-1.875 C15.4375,-1.625 15.765625,-0.625 15.765625,0.625 L15.765625,10.25 L22.375,10.25 C22.703125,10.25 22.9375,10.375 23.015625,10.609375 C22.125,11.421875 20.765625,12.484375 20.765625,12.484375 L19.53125,10.9375 L15.765625,10.9375 L15.765625,17.453125 L20.875,17.453125 C21.21875,17.453125 21.453125,17.5625 21.53125,17.828125 C20.640625,18.59375 19.296875,19.65625 19.296875,19.65625 L18.078125,18.140625 L2.96875,18.140625 L3.1875,17.453125 L14.1875,17.453125 L14.1875,10.9375 L5.609375,10.9375 C6.078125,12.578125 6.546875,14.375 6.765625,15.390625 C7.375,15.40625 7.578125,15.640625 7.65625,15.984375 Z" transform="translate(0.015625, 19.65625) scale(1, -1)"/>
</svg>