<svg height="22.046875" viewBox="0 0 24 22.046875" width="24" xmlns="http://www.w3.org/2000/svg">
<path d="M13.21875,20.15625 L13.21875,13.65625 L6.75,13.65625 L6.75,18.40625 C7.34375,18.484375 7.515625,18.71875 7.578125,19.0625 L5.1875,19.3125 L5.1875,10.84375 C5.1875,6.09375 4.4375,1.609375 0.859375,-1.5625 L1.171875,-1.84375 C4.78125,0.5 6.140625,3.984375 6.578125,7.75 L14.78125,7.75 L14.78125,-1.890625 L15.03125,-1.890625 C15.53125,-1.890625 16.34375,-1.609375 16.390625,-1.515625 L16.390625,7.421875 C16.890625,7.515625 17.296875,7.703125 17.46875,7.921875 L15.40625,9.484375 L14.546875,8.46875 L6.640625,8.46875 C6.703125,9.265625 6.75,10.0625 6.75,10.84375 L6.75,12.984375 L22.3125,12.984375 C22.65625,12.984375 22.875,13.109375 22.9375,13.375 C22.125,14.109375 20.828125,15.140625 20.828125,15.140625 L19.65625,13.65625 L14.8125,13.65625 L14.8125,19.296875 C15.390625,19.390625 15.578125,19.609375 15.625,19.921875 Z" transform="translate(0.1015625, 20.15625) scale(1, -1)"/>
</svg>