<svg height="20.15625" viewBox="0 0 24 20.15625" width="24" xmlns="http://www.w3.org/2000/svg">
<path d="M14.875,7.421875 L14.640625,7.21875 C16.015625,6.078125 17.59375,4.171875 17.921875,2.5625 C19.84375,1.21875 21.09375,5.421875 14.875,7.421875 Z M2.515625,17.90625 L2.734375,17.1875 L10.96875,17.1875 L10.96875,9.671875 L3.59375,9.671875 L3.796875,8.96875 L10.96875,8.96875 L10.96875,-0.03125 L1.125,-0.03125 L1.34375,-0.71875 L22.296875,-0.71875 C22.65625,-0.71875 22.890625,-0.59375 22.96875,-0.34375 C22.078125,0.453125 20.65625,1.53125 20.65625,1.53125 L19.421875,-0.03125 L12.59375,-0.03125 L12.59375,8.96875 L20.046875,8.96875 C20.375,8.96875 20.609375,9.09375 20.6875,9.359375 C19.84375,10.125 18.453125,11.1875 18.453125,11.1875 L17.25,9.671875 L12.59375,9.671875 L12.59375,17.1875 L21,17.1875 C21.359375,17.1875 21.59375,17.296875 21.640625,17.5625 C20.78125,18.390625 19.375,19.4375 19.375,19.4375 L18.125,17.90625 Z" transform="translate(-0.046875, 19.4375) scale(1, -1)"/>
</svg>