<svg height="22.125" viewBox="0 0 24 22.125" width="24" xmlns="http://www.w3.org/2000/svg">
<path d="M18.4375,15.234375 L17.328125,13.828125 L6.046875,13.828125 L6.234375,13.125 L19.890625,13.125 C20.234375,13.125 20.453125,13.25 20.515625,13.515625 C19.734375,14.234375 18.4375,15.234375 18.4375,15.234375 Z M8.921875,19.3125 L6.40625,20.1875 C5.1875,15.859375 3.046875,11.640625 0.953125,9.046875 L1.265625,8.78125 C3.390625,10.578125 5.28125,13.171875 6.796875,16.171875 L21.671875,16.171875 C22.015625,16.171875 22.21875,16.296875 22.296875,16.5625 C21.453125,17.375 20.109375,18.359375 20.109375,18.359375 L18.90625,16.875 L7.125,16.875 C7.4375,17.515625 7.734375,18.1875 7.984375,18.890625 C8.515625,18.859375 8.8125,19.0625 8.921875,19.3125 Z M15.890625,10.5625 L3.625,10.5625 L3.84375,9.84375 L16.109375,9.84375 C16.203125,4.34375 16.78125,-0.140625 20.859375,-1.484375 C21.953125,-1.890625 22.921875,-1.9375 23.203125,-1.3125 C23.375,-1.015625 23.234375,-0.671875 22.6875,-0.171875 L22.84375,2.59375 L22.515625,2.609375 C22.3125,1.796875 22.109375,1.03125 21.90625,0.453125 C21.796875,0.171875 21.671875,0.125 21.265625,0.234375 C18.140625,1.203125 17.6875,5.609375 17.734375,9.625 C18.21875,9.703125 18.53125,9.8125 18.703125,9.984375 L16.796875,11.546875 Z" transform="translate(-0.1640625, 20.1875) scale(1, -1)"/>
</svg>