<svg height="21.890625" viewBox="0 0 24 21.890625" width="24" xmlns="http://www.w3.org/2000/svg">
<path d="M14.5,18.703125 L14.28125,18.484375 C15.640625,17.6875 17.359375,16.171875 17.921875,14.875 C19.875,13.9375 20.640625,17.859375 14.5,18.703125 Z M10.875,20.046875 C10.84375,17.46875 10.796875,15.1875 10.609375,13.109375 L1.421875,13.109375 L1.625,12.390625 L10.5625,12.390625 C9.890625,6.234375 7.84375,2.0625 0.9375,-1.421875 L1.21875,-1.84375 C9.40625,1.4375 11.5625,5.875 12.234375,12.390625 L12.265625,12.390625 C12.9375,7.34375 14.828125,1.796875 21.5,-1.78125 C21.75,-0.859375 22.3125,-0.546875 23.15625,-0.453125 L23.203125,-0.171875 C16.109375,2.921875 13.609375,7.65625 12.75,12.390625 L22.203125,12.390625 C22.53125,12.390625 22.78125,12.5 22.84375,12.765625 C21.953125,13.578125 20.5625,14.65625 20.5625,14.65625 L19.3125,13.109375 L12.3125,13.109375 C12.453125,14.921875 12.5,16.921875 12.546875,19.078125 C13.125,19.15625 13.390625,19.4375 13.46875,19.796875 Z" transform="translate(-0.0703125, 20.046875) scale(1, -1)"/>
</svg>