<svg height="21.984375" viewBox="0 0 24 21.984375" width="24" xmlns="http://www.w3.org/2000/svg">
<path d="M20.140625,15.703125 C19.125,14.09375 17.140625,11.71875 15.34375,9.953125 C14.203125,12 13.3125,14.421875 12.765625,17.359375 L12.765625,19.15625 C13.375,19.25 13.5625,19.46875 13.625,19.796875 L11.1875,20.0625 L11.1875,0.640625 C11.1875,0.234375 11.046875,0.09375 10.5625,0.09375 C10.015625,0.09375 7.171875,0.3125 7.171875,0.3125 L7.171875,-0.078125 C8.421875,-0.21875 9.078125,-0.4375 9.484375,-0.703125 C9.84375,-0.953125 10.015625,-1.390625 10.109375,-1.921875 C12.5,-1.6875 12.765625,-0.8125 12.765625,0.5 L12.765625,15.484375 C14.359375,7.65625 17.59375,3.5 21.75,0.453125 C22.015625,1.21875 22.5625,1.734375 23.25,1.796875 L23.328125,2.046875 C20.5,3.625 17.6875,5.953125 15.59375,9.5 C17.8125,10.890625 20.09375,12.8125 21.4375,14.15625 C21.953125,14.015625 22.171875,14.109375 22.34375,14.359375 Z M1.171875,13.3125 L1.390625,12.59375 L7.53125,12.59375 C6.59375,8.109375 4.4375,3.546875 0.71875,0.625 L0.984375,0.28125 C5.8125,3.171875 8.09375,7.828125 9.21875,12.40625 C9.765625,12.4375 9.984375,12.5 10.171875,12.71875 L8.453125,14.296875 L7.4375,13.3125 Z" transform="translate(-0.0234375, 20.0625) scale(1, -1)"/>
</svg>