<svg height="21.9375" viewBox="0 0 24 21.9375" width="24" xmlns="http://www.w3.org/2000/svg">
<path d="M9.671875,8.1875 L4.828125,8.1875 L5.046875,7.46875 L8.046875,7.46875 C7.9375,4.296875 7.609375,1.0625 4.53125,-1.53125 L4.890625,-1.921875 C8.828125,0.53125 9.4375,3.953125 9.625,7.46875 L15.28125,7.46875 L15.28125,-1.890625 L15.59375,-1.890625 C16.203125,-1.890625 16.875,-1.46875 16.875,-1.25 L16.875,19.078125 C17.46875,19.15625 17.6875,19.390625 17.765625,19.734375 L15.28125,20.015625 L15.28125,13.15625 L9.1875,13.15625 L9.1875,18.625 C9.796875,18.71875 10.03125,18.9375 10.078125,19.296875 L7.609375,19.53125 L7.609375,10.78125 L7.921875,10.78125 C8.5,10.78125 9.1875,11.09375 9.1875,11.28125 L9.1875,12.4375 L15.28125,12.4375 L15.28125,8.1875 Z" transform="translate(0.8515625, 20.015625) scale(1, -1)"/>
</svg>