<svg height="21.546875" viewBox="0 0 24 21.546875" width="24" xmlns="http://www.w3.org/2000/svg">
<path d="M8.109375,19.65625 C6.90625,16.9375 4.34375,13.484375 1.4375,11.359375 L1.6875,11.046875 C5.140625,12.8125 8.015625,15.8125 9.546875,18.265625 C10.109375,18.171875 10.3125,18.28125 10.46875,18.546875 Z M14.203125,19.46875 L13.9375,19.21875 C16.34375,17.453125 19.53125,14.359375 20.546875,12.03125 C22.78125,10.703125 23.5,15.640625 14.203125,19.46875 Z M7.578125,13.203125 L7.171875,12.9375 C8.046875,9.90625 9.40625,7.296875 11.203125,5.109375 C8.71875,2.328125 5.375,0 1.109375,-1.53125 L1.296875,-1.890625 C5.921875,-0.625 9.453125,1.484375 12.125,4.078125 C14.609375,1.421875 17.8125,-0.546875 21.453125,-1.84375 C21.796875,-1.078125 22.421875,-0.59375 23.15625,-0.546875 L23.234375,-0.3125 C19.390625,0.765625 15.859375,2.5625 13.0625,5.046875 C15,7.171875 16.390625,9.578125 17.359375,12.078125 C18,12 18.234375,12.125 18.34375,12.40625 L15.859375,13.3125 C15.046875,10.734375 13.78125,8.25 12,6.046875 C10.03125,8.0625 8.5,10.4375 7.578125,13.203125 Z" transform="translate(-0.3046875, 19.65625) scale(1, -1)"/>
</svg>