<svg height="21.984375" viewBox="0 0 24 21.984375" width="24" xmlns="http://www.w3.org/2000/svg">
<path d="M5.90625,19.265625 C5.109375,15.453125 3.5,11.8125 1.75,9.484375 L2.09375,9.234375 C3.484375,10.421875 4.734375,12 5.78125,13.890625 L11.1875,13.890625 L11.1875,8.046875 L0.984375,8.046875 L1.203125,7.3125 L11.1875,7.3125 L11.1875,-1.890625 L11.5,-1.890625 C12.09375,-1.890625 12.796875,-1.484375 12.796875,-1.25 L12.796875,7.3125 L22.421875,7.3125 C22.78125,7.3125 22.984375,7.4375 23.0625,7.703125 C22.171875,8.515625 20.765625,9.578125 20.765625,9.578125 L19.515625,8.046875 L12.796875,8.046875 L12.796875,13.890625 L20.453125,13.890625 C20.8125,13.890625 21.046875,14.015625 21.125,14.28125 C20.234375,15.078125 18.859375,16.125 18.859375,16.125 L17.65625,14.609375 L12.796875,14.609375 L12.796875,19.15625 C13.390625,19.25 13.578125,19.515625 13.65625,19.84375 L11.1875,20.09375 L11.1875,14.609375 L6.171875,14.609375 C6.71875,15.671875 7.171875,16.828125 7.578125,18.046875 C8.140625,18.03125 8.421875,18.21875 8.5,18.5 Z" transform="translate(-0.0234375, 20.09375) scale(1, -1)"/>
</svg>