<svg height="22.015625" viewBox="0 0 24 22.015625" width="24" xmlns="http://www.w3.org/2000/svg">
<path d="M8.296875,10.78125 L9.3125,11.921875 L8.359375,12.3125 L7.84375,10.984375 C6.984375,10.25 5.546875,9.1875 4.703125,8.6875 L5.96875,7.03125 C6.171875,7.203125 6.265625,7.4375 6.125,7.734375 C6.625,8.359375 7.375,9.4375 7.96875,10.296875 C8.71875,7.9375 9.8125,5.953125 11.234375,4.296875 C8.765625,1.75 5.40625,-0.234375 1.078125,-1.484375 L1.21875,-1.875 C5.90625,-0.890625 9.484375,0.9375 12.140625,3.28125 C14.546875,0.890625 17.65625,-0.796875 21.40625,-1.84375 C21.671875,-1.0625 22.265625,-0.578125 23.015625,-0.5 L23.0625,-0.234375 C19.171875,0.546875 15.75,2.015625 13.0625,4.171875 C14.953125,6.09375 16.3125,8.359375 17.234375,10.75 C17.859375,10.703125 18.09375,10.828125 18.21875,11.109375 L15.765625,12.046875 C15,9.484375 13.75,7.15625 12,5.109375 C10.375,6.671875 9.09375,8.5625 8.296875,10.78125 Z M17.765625,20.140625 C16.484375,18.890625 14.59375,17.59375 12.359375,16.390625 C9.9375,16.890625 6.90625,17.359375 3.21875,17.6875 L3.09375,17.25 C5.828125,16.828125 8.421875,16.25 10.78125,15.59375 C7.890625,14.203125 4.609375,13.015625 1.3125,12.21875 L1.46875,11.78125 C5.421875,12.453125 9.21875,13.6875 12.453125,15.09375 C16.015625,13.984375 18.84375,12.765625 20.5,11.71875 C22.296875,11.1875 22.921875,13.828125 14.296875,15.953125 C16.03125,16.828125 17.546875,17.71875 18.765625,18.625 C19.4375,18.484375 19.828125,18.546875 19.984375,18.796875 Z" transform="translate(-0.0703125, 20.140625) scale(1, -1)"/>
</svg>