<svg height="21.484375" viewBox="0 0 24 21.484375" width="24" xmlns="http://www.w3.org/2000/svg">
<path d="M20.953125,15.171875 C19.125,13.375 16.875,11.640625 15.03125,10.484375 L15.03125,18.859375 C15.59375,18.953125 15.8125,19.21875 15.859375,19.53125 L13.46875,19.828125 L13.46875,0.625 C13.46875,-0.8125 14.015625,-1.296875 15.953125,-1.296875 L18.390625,-1.296875 C22.125,-1.296875 23.015625,-1.03125 23.015625,-0.28125 C23.015625,0.046875 22.875,0.234375 22.296875,0.453125 L22.203125,4.53125 L21.890625,4.53125 C21.59375,2.828125 21.28125,1.015625 21.09375,0.59375 C21,0.359375 20.859375,0.28125 20.5625,0.234375 C20.234375,0.21875 19.484375,0.1875 18.4375,0.1875 L16.21875,0.1875 C15.21875,0.1875 15.03125,0.4375 15.03125,1.0625 L15.03125,9.890625 C17.15625,10.625 19.6875,11.828125 21.8125,13.3125 C22.265625,13.109375 22.5625,13.125 22.75,13.3125 Z M4.015625,19.828125 L4.015625,1.21875 C2.734375,0.890625 1.703125,0.640625 1.015625,0.53125 L2.25,-1.65625 C2.46875,-1.5625 2.65625,-1.34375 2.765625,-1.03125 C7.03125,0.625 10.0625,1.984375 12.21875,2.96875 L12.125,3.359375 C9.796875,2.71875 7.515625,2.109375 5.5625,1.609375 L5.5625,11.515625 L11.90625,11.515625 C12.21875,11.515625 12.484375,11.640625 12.53125,11.875 C11.734375,12.671875 10.34375,13.796875 10.34375,13.796875 L9.171875,12.1875 L5.5625,12.1875 L5.5625,18.859375 C6.171875,18.953125 6.390625,19.203125 6.4375,19.53125 Z" transform="translate(-0.015625, 19.828125) scale(1, -1)"/>
</svg>