<svg height="24" viewBox="0 0 24 24" width="24" xmlns="http://www.w3.org/2000/svg">
<path d="M2.8125,12.765625 L2.59375,12.546875 C3.671875,11.828125 5.09375,10.515625 5.546875,9.453125 C7.21875,8.546875 8.09375,11.828125 2.8125,12.765625 Z M9.3125,15.59375 L3.578125,15.59375 L3.796875,14.90625 L9.390625,14.90625 C8.046875,10.34375 5.0625,5.828125 0.8125,3.046875 L1.078125,2.6875 C6.4375,5.453125 9.484375,10.0625 11.0625,14.6875 C11.609375,14.734375 11.859375,14.8125 12.03125,15.03125 L10.3125,16.578125 Z M13.265625,16.75 L12.84375,16.515625 C14.1875,10.5625 17.421875,5.78125 21.578125,3 C21.890625,3.703125 22.46875,4.109375 23.140625,4.109375 L23.234375,4.34375 C21.09375,5.453125 19.109375,7.0625 17.40625,9.03125 C18.984375,9.890625 20.65625,10.984375 21.640625,11.78125 C22.15625,11.640625 22.375,11.71875 22.53125,11.921875 L20.59375,13.171875 C19.828125,12.171875 18.390625,10.625 17.046875,9.484375 C16.34375,10.34375 15.703125,11.28125 15.140625,12.265625 C16.734375,13.125 18.390625,14.28125 19.390625,15.09375 C19.921875,14.953125 20.109375,15.03125 20.28125,15.265625 L18.359375,16.484375 C17.609375,15.453125 16.171875,13.890625 14.875,12.71875 C14.203125,13.984375 13.65625,15.34375 13.265625,16.75 Z" transform="translate(-0.0234375, 16.75) scale(1, -1)"/>
</svg>