<svg height="21.234375" viewBox="0 0 24 21.234375" width="24" xmlns="http://www.w3.org/2000/svg">
<path d="M9.4375,10.078125 L9.140625,9.890625 C10.4375,8.65625 11.921875,6.59375 12.171875,4.890625 C13.890625,3.5 15.28125,7.5625 9.4375,10.078125 Z M0.90625,0.453125 L2.046875,-1.65625 C2.28125,-1.578125 2.515625,-1.390625 2.640625,-1.109375 C8.359375,0.078125 12.53125,1.03125 15.640625,1.84375 L15.640625,0.046875 C15.640625,-1.15625 16.015625,-1.578125 17.65625,-1.578125 L19.515625,-1.578125 C22.46875,-1.578125 23.1875,-1.296875 23.1875,-0.578125 C23.1875,-0.265625 23.046875,-0.09375 22.515625,0.09375 L22.421875,2.40625 L22.125,2.40625 C21.90625,1.421875 21.640625,0.390625 21.5,0.140625 C21.390625,0 21.28125,-0.046875 21.09375,-0.078125 C20.859375,-0.09375 20.25,-0.09375 19.578125,-0.09375 L18,-0.09375 C17.296875,-0.09375 17.203125,0.046875 17.203125,0.453125 L17.203125,12.140625 C17.71875,12.21875 18,12.34375 18.1875,12.53125 L16.3125,14.140625 L15.40625,13.15625 L8.09375,13.15625 L8.65625,17.359375 L22.125,17.359375 C22.484375,17.359375 22.734375,17.46875 22.78125,17.734375 C21.90625,18.5 20.5,19.578125 20.5,19.578125 L19.265625,18.046875 L1.203125,18.046875 L1.421875,17.359375 L7.0625,17.359375 C6.703125,13.03125 5.453125,5.015625 4.484375,0.84375 C3,0.671875 1.78125,0.53125 0.90625,0.453125 Z M7.984375,12.4375 L15.640625,12.4375 L15.640625,2.359375 C12.171875,1.875 8.828125,1.390625 6.09375,1.0625 C6.71875,4.171875 7.4375,8.546875 7.984375,12.4375 Z" transform="translate(-0.046875, 19.578125) scale(1, -1)"/>
</svg>