<svg height="22.375" viewBox="0 0 24 22.375" width="24" xmlns="http://www.w3.org/2000/svg">
<path d="M4.078125,17.921875 L4.078125,12.125 C4.078125,7.625 3.765625,2.59375 1.078125,-1.578125 L1.4375,-1.84375 C5.328125,2.234375 5.640625,7.984375 5.640625,12.09375 L5.640625,16.78125 C7.296875,16.84375 9.03125,16.984375 10.703125,17.1875 L10.703125,1.890625 C8.46875,1.65625 6.625,1.46875 5.515625,1.390625 L6.625,-0.59375 C6.859375,-0.546875 7.0625,-0.390625 7.203125,-0.078125 C10.890625,0.71875 13.625,1.390625 15.71875,1.9375 C16.03125,1.0625 16.25,0.140625 16.3125,-0.640625 C18.03125,-2.234375 19.46875,1.84375 14.296875,6.046875 L13.96875,5.90625 C14.5,4.921875 15.09375,3.703125 15.546875,2.421875 L12.265625,2.0625 L12.265625,17.359375 C14.015625,17.5625 15.703125,17.8125 17.1875,18.046875 C17.375,10.75 18.1875,2.71875 21.4375,-1.84375 C21.703125,-0.90625 22.21875,-0.453125 23.015625,-0.34375 L23.09375,-0.09375 C19.078125,4.296875 18,11.015625 17.65625,18.125 L19.203125,18.40625 C19.828125,18.140625 20.28125,18.125 20.5,18.34375 L18.640625,20.140625 C15.75,19.171875 10.390625,17.96875 5.859375,17.328125 Z" transform="translate(-0.0859375, 20.140625) scale(1, -1)"/>
</svg>