<svg height="21.359375" viewBox="0 0 24 21.359375" width="24" xmlns="http://www.w3.org/2000/svg">
<path d="M1.171875,17.90625 L1.390625,17.203125 L9.03125,17.203125 C7.734375,12.53125 4.5625,7.46875 0.703125,4.015625 L0.9375,3.75 C3.046875,5.1875 4.921875,6.984375 6.5,8.96875 L6.5,-1.875 L6.765625,-1.875 C7.53125,-1.875 8.0625,-1.46875 8.0625,-1.34375 L8.0625,0.4375 L18.9375,0.4375 L18.9375,-1.625 L19.171875,-1.625 C19.703125,-1.625 20.5,-1.265625 20.515625,-1.078125 L20.515625,8.921875 C21.046875,9.03125 21.5,9.234375 21.671875,9.453125 L19.609375,11.0625 L18.671875,10.015625 L8.359375,10.015625 L7.53125,10.34375 C9.078125,12.5 10.265625,14.828125 11.09375,17.203125 L22.3125,17.203125 C22.65625,17.203125 22.921875,17.328125 22.96875,17.59375 C22.078125,18.390625 20.640625,19.484375 20.640625,19.484375 L19.390625,17.90625 Z M18.9375,9.3125 L18.9375,1.125 L8.0625,1.125 L8.0625,9.3125 Z" transform="translate(0.1640625, 19.484375) scale(1, -1)"/>
</svg>