<svg height="21.828125" viewBox="0 0 24 21.828125" width="24" xmlns="http://www.w3.org/2000/svg">
<path d="M1.015625,14.875 L1.21875,14.1875 L6.1875,14.1875 L6.1875,-1.84375 L6.5,-1.84375 C7.109375,-1.84375 7.75,-1.46875 7.75,-1.21875 L7.75,0.359375 L16.15625,0.359375 L16.15625,-1.46875 L16.46875,-1.46875 C17.0625,-1.46875 17.734375,-1.0625 17.734375,-0.84375 L17.734375,14.1875 L22.421875,14.1875 C22.75,14.1875 22.96875,14.296875 23.046875,14.5625 C22.21875,15.34375 20.90625,16.421875 20.90625,16.421875 L19.75,14.875 L17.734375,14.875 L17.734375,19.0625 C18.359375,19.15625 18.53125,19.390625 18.578125,19.734375 L16.15625,19.984375 L16.15625,14.875 L7.75,14.875 L7.75,19.0625 C8.375,19.15625 8.5625,19.390625 8.609375,19.75 L6.1875,19.984375 L6.1875,14.875 Z M7.75,14.1875 L16.15625,14.1875 L16.15625,8.296875 L7.75,8.296875 Z M7.75,1.0625 L7.75,7.578125 L16.15625,7.578125 L16.15625,1.0625 Z" transform="translate(-0.03125, 19.984375) scale(1, -1)"/>
</svg>