<svg height="21.96875" viewBox="0 0 24 21.96875" width="24" xmlns="http://www.w3.org/2000/svg">
<path d="M1.703125,15.71875 L1.390625,15.59375 C2.1875,14.375 3.03125,12.453125 3.09375,10.9375 C4.53125,9.578125 6.140625,12.90625 1.703125,15.71875 Z M0.8125,5.859375 L1.921875,3.90625 C2.140625,4.0625 2.28125,4.375 2.28125,4.609375 C3.453125,5.875 4.390625,7.015625 5.09375,7.828125 C4.890625,4.390625 4.125,1.125 1.75,-1.609375 L2.09375,-1.875 C6.28125,1.4375 6.71875,6.359375 6.71875,10.421875 L6.71875,15.859375 L22.390625,15.859375 C22.734375,15.859375 22.96875,15.984375 23.046875,16.25 C22.203125,17.015625 20.859375,18.046875 20.859375,18.046875 L19.6875,16.578125 L13.609375,16.578125 L13.609375,19.21875 C14.15625,19.3125 14.375,19.53125 14.421875,19.875 L12,20.09375 L12,16.578125 L7.015625,16.578125 L5.15625,17.375 L5.15625,10.390625 L5.109375,8.453125 C3.34375,7.3125 1.5625,6.234375 0.8125,5.859375 Z" transform="translate(0.0703125, 20.09375) scale(1, -1)"/>
</svg>