<svg height="21.140625" viewBox="0 0 24 21.140625" width="24" xmlns="http://www.w3.org/2000/svg">
<path d="M11.65625,14.046875 L11.328125,13.828125 C12.3125,12.8125 13.4375,11.5 14.453125,10.109375 C13.96875,6.796875 12.953125,3.453125 10.78125,0.59375 L11.1875,0.1875 C13.53125,2.640625 14.828125,5.5 15.53125,8.46875 C16.34375,7.15625 16.96875,5.859375 17.203125,4.703125 C18.671875,3.578125 19.484375,6.359375 15.90625,10.375 C16.296875,12.796875 16.390625,15.234375 16.4375,17.546875 L19.890625,17.546875 L19.890625,0.59375 C19.890625,0.140625 19.75,-0.03125 19.203125,-0.03125 C18.546875,-0.03125 15.40625,0.1875 15.40625,0.1875 L15.40625,-0.1875 C16.75,-0.34375 17.5,-0.53125 17.96875,-0.796875 C18.359375,-1.03125 18.53125,-1.390625 18.625,-1.84375 C21.140625,-1.625 21.453125,-0.796875 21.453125,0.4375 L21.453125,17.234375 C21.9375,17.328125 22.3125,17.546875 22.484375,17.71875 L20.5,19.265625 L19.65625,18.265625 L4.203125,18.265625 L2.515625,19.0625 L2.515625,-1.875 L2.8125,-1.875 C3.5,-1.875 4.0625,-1.46875 4.0625,-1.25 L4.0625,17.546875 L8.609375,17.546875 C8.59375,15.59375 8.546875,13.4375 8.296875,11.234375 C7.484375,12.046875 6.5,12.890625 5.296875,13.75 L4.9375,13.5625 C5.953125,12.5 7.078125,11.09375 8.0625,9.59375 C7.578125,6.578125 6.59375,3.53125 4.703125,0.859375 L5.109375,0.484375 C7.15625,2.734375 8.359375,5.296875 9.078125,7.96875 C9.625,6.9375 10.078125,5.875 10.25,4.96875 C11.5625,3.90625 12.390625,6.34375 9.5,9.90625 C9.984375,12.5 10.078125,15.125 10.15625,17.546875 L14.875,17.546875 C14.859375,15.703125 14.828125,13.703125 14.609375,11.65625 C13.796875,12.4375 12.8125,13.21875 11.65625,14.046875 Z" transform="translate(-0.5, 19.265625) scale(1, -1)"/>
</svg>