<svg height="21.484375" viewBox="0 0 24 21.484375" width="24" xmlns="http://www.w3.org/2000/svg">
<path d="M19.84375,19.3125 C19.109375,18.1875 18.21875,17.0625 17.203125,15.90625 C16.4375,16.65625 15.21875,17.59375 15.21875,17.59375 L14.0625,16.171875 L10.96875,16.171875 L10.96875,19.296875 C11.5,19.390625 11.71875,19.578125 11.765625,19.921875 L9.40625,20.140625 L9.40625,16.171875 L3.09375,16.171875 L3.28125,15.453125 L9.40625,15.453125 L9.40625,11.453125 L1.078125,11.453125 L1.296875,10.734375 L11.90625,10.734375 C11.109375,10.0625 10.296875,9.40625 9.453125,8.78125 L7.53125,9 L7.53125,7.421875 C5.359375,5.921875 3.03125,4.578125 0.640625,3.484375 L0.859375,3.09375 C3.1875,3.984375 5.421875,5.0625 7.53125,6.28125 L7.53125,0.484375 C7.53125,-1.015625 8.15625,-1.34375 10.703125,-1.34375 L14.953125,-1.34375 C20.71875,-1.34375 21.640625,-1.109375 21.640625,-0.28125 C21.640625,0.046875 21.453125,0.21875 20.828125,0.390625 L20.78125,3.546875 L20.46875,3.546875 C20.140625,2.046875 19.84375,0.9375 19.625,0.5 C19.484375,0.265625 19.375,0.171875 18.90625,0.140625 C18.359375,0.09375 16.921875,0.078125 15.03125,0.078125 L10.796875,0.078125 C9.265625,0.078125 9.09375,0.21875 9.09375,0.75 L9.09375,3.59375 C12.75,4.46875 16.5625,5.953125 18.90625,7.171875 C19.53125,7.015625 19.96875,7.0625 20.140625,7.25 L18.078125,8.78125 C16.21875,7.3125 12.453125,5.328125 9.09375,4.125 L9.09375,7.21875 C10.875,8.328125 12.53125,9.5 14.046875,10.734375 L22.265625,10.734375 C22.609375,10.734375 22.84375,10.84375 22.921875,11.109375 C22.078125,11.875 20.765625,12.890625 20.765625,12.890625 L19.609375,11.453125 L14.90625,11.453125 C17.359375,13.515625 19.421875,15.671875 20.96875,17.71875 C21.578125,17.5 21.8125,17.546875 22.03125,17.8125 Z M10.96875,15.453125 L16.65625,15.453125 L16.84375,15.484375 C15.625,14.109375 14.25,12.765625 12.75,11.453125 L10.96875,11.453125 Z" transform="translate(0.21875, 20.140625) scale(1, -1)"/>
</svg>