<svg height="21.984375" viewBox="0 0 24 21.984375" width="24" xmlns="http://www.w3.org/2000/svg">
<path d="M20.453125,10.296875 L19.25,8.8125 L12.75,8.8125 L12.75,12 L20.046875,12 C20.359375,12 20.59375,12.125 20.65625,12.390625 C19.84375,13.15625 18.53125,14.140625 18.53125,14.140625 L17.375,12.71875 L12.75,12.71875 L12.75,15.984375 C15.359375,16.34375 17.765625,16.84375 19.6875,17.40625 C20.28125,17.140625 20.734375,17.1875 20.953125,17.375 L19.03125,19.0625 C17.46875,18.390625 15.265625,17.71875 12.75,17.15625 L12.75,19.171875 C13.34375,19.265625 13.53125,19.515625 13.609375,19.84375 L11.15625,20.109375 L11.15625,16.828125 C8.515625,16.296875 5.65625,15.90625 2.96875,15.71875 L3.046875,15.265625 C5.78125,15.265625 8.546875,15.453125 11.15625,15.765625 L11.15625,12.71875 L3.359375,12.71875 L3.546875,12 L11.15625,12 L11.15625,8.8125 L1.34375,8.8125 L1.5625,8.09375 L10.296875,8.09375 C8.234375,4.796875 4.828125,1.484375 0.9375,-0.671875 L1.203125,-1.03125 C5.234375,0.75 8.734375,3.359375 11.15625,6.4375 L11.15625,-1.875 L11.46875,-1.875 C12.078125,-1.875 12.75,-1.484375 12.75,-1.25 L12.75,7.828125 C14.828125,4.03125 18.265625,0.984375 21.703125,-0.703125 C21.9375,0.046875 22.515625,0.53125 23.140625,0.59375 L23.203125,0.859375 C19.6875,2.109375 15.53125,4.890625 13.21875,8.09375 L22.0625,8.09375 C22.390625,8.09375 22.625,8.203125 22.703125,8.46875 C21.8125,9.265625 20.453125,10.296875 20.453125,10.296875 Z" transform="translate(-0.0703125, 20.109375) scale(1, -1)"/>
</svg>