<svg height="21.5" viewBox="0 0 24 21.5" width="24" xmlns="http://www.w3.org/2000/svg">
<path d="M13.625,16.734375 C13.109375,15.625 12.3125,14.09375 11.5625,13.109375 L5.921875,13.109375 L5.140625,13.4375 C6.09375,14.5 6.984375,15.59375 7.75,16.734375 Z M7.703125,20.25 C6.359375,16.734375 3.578125,12.546875 0.703125,10.21875 L0.984375,9.90625 C2.0625,10.578125 3.09375,11.421875 4.078125,12.359375 L4.078125,1.390625 C4.078125,-0.671875 5.46875,-1.25 8.203125,-1.25 L17.828125,-1.25 C21.90625,-1.25 22.890625,-0.75 22.890625,0.046875 C22.890625,0.40625 22.625,0.484375 21.796875,0.703125 L21.765625,4.421875 L21.453125,4.421875 C21.21875,3.21875 20.71875,1.484375 20.375,0.9375 C19.984375,0.28125 19.34375,0.1875 17.6875,0.1875 L8.09375,0.1875 C6.53125,0.1875 5.640625,0.390625 5.640625,1.34375 L5.640625,6.546875 L18.28125,6.546875 L18.28125,4.9375 L18.53125,4.9375 C19.078125,4.9375 19.84375,5.296875 19.875,5.46875 L19.875,12.078125 C20.359375,12.171875 20.765625,12.390625 20.921875,12.578125 L18.953125,14.09375 L18.046875,13.109375 L12.125,13.109375 C13.375,14.046875 14.71875,15.546875 15.578125,16.53125 C16.0625,16.5625 16.34375,16.609375 16.53125,16.75 L14.6875,18.453125 L13.65625,17.421875 L8.203125,17.421875 C8.609375,18.046875 8.96875,18.671875 9.28125,19.265625 C9.890625,19.25 10.109375,19.34375 10.203125,19.609375 Z M11.109375,12.40625 L11.109375,7.25 L5.640625,7.25 L5.640625,12.40625 Z M12.640625,12.40625 L18.28125,12.40625 L18.28125,7.25 L12.640625,7.25 Z" transform="translate(0.203125, 20.25) scale(1, -1)"/>
</svg>