<svg height="21.9375" viewBox="0 0 24 21.9375" width="24" xmlns="http://www.w3.org/2000/svg">
<path d="M12.5,12.859375 C12.359375,10.875 11.609375,6.28125 11.0625,4.34375 C11.734375,4.171875 12.34375,4.21875 12.640625,4.4375 L12.984375,6.09375 L17.28125,6.09375 L17.28125,-1.84375 L17.59375,-1.84375 C18.1875,-1.84375 18.84375,-1.46875 18.84375,-1.21875 L18.84375,6.09375 L22.5625,6.09375 C22.890625,6.09375 23.140625,6.21875 23.15625,6.484375 C22.4375,7.21875 21.1875,8.234375 21.1875,8.234375 L20.109375,6.8125 L18.84375,6.8125 L18.84375,14.109375 L22.171875,14.109375 C22.515625,14.109375 22.75,14.234375 22.796875,14.5 C22.078125,15.234375 20.90625,16.203125 20.90625,16.203125 L19.84375,14.828125 L18.84375,14.828125 L18.84375,19.0625 C19.4375,19.15625 19.625,19.390625 19.703125,19.734375 L17.28125,19.984375 L17.28125,14.828125 L12.046875,14.828125 L12.234375,14.109375 L17.28125,14.109375 L17.28125,6.8125 L13.125,6.8125 C13.46875,8.71875 13.78125,10.796875 13.921875,11.953125 C14.515625,12 14.765625,12.265625 14.8125,12.578125 Z M5.28125,20.09375 C4.5625,15.234375 2.90625,10.734375 0.859375,7.75 L1.171875,7.515625 C2.140625,8.46875 2.96875,9.59375 3.75,10.875 C4.828125,9.9375 5.96875,8.515625 6.28125,7.34375 C7.875,6.265625 8.953125,9.578125 4.015625,11.328125 C4.65625,12.484375 5.234375,13.75 5.734375,15.125 L9.453125,15.125 C8.65625,8.765625 6.546875,2.453125 1.53125,-1.53125 L1.84375,-1.84375 C8.15625,2.09375 10.171875,8.5625 11.09375,14.859375 C11.609375,14.921875 11.859375,15 12.03125,15.1875 L10.25,16.828125 L9.28125,15.8125 L5.96875,15.8125 C6.3125,16.828125 6.59375,17.875 6.859375,18.984375 C7.390625,19.015625 7.625,19.21875 7.734375,19.5625 Z" transform="translate(-0.0078125, 20.09375) scale(1, -1)"/>
</svg>