<svg height="22.359375" viewBox="0 0 24 22.359375" width="24" xmlns="http://www.w3.org/2000/svg">
<path d="M16.015625,19.515625 L15.8125,19.25 C16.9375,18.703125 18.390625,17.5625 18.90625,16.625 C20.515625,15.90625 21.078125,19.109375 16.015625,19.515625 Z M3.40625,15.140625 L3.40625,10.03125 C3.40625,6.125 3.21875,1.84375 1.0625,-1.625 L1.390625,-1.875 C4.65625,1.421875 4.9375,6.125 4.96875,9.703125 L9.34375,9.703125 C9.234375,5.78125 9.046875,3.546875 8.65625,3.078125 C8.546875,2.921875 8.421875,2.90625 8.109375,2.90625 C7.75,2.90625 6.390625,3 5.609375,3.078125 L5.59375,2.65625 C6.28125,2.5625 7.15625,2.359375 7.4375,2.109375 C7.703125,1.921875 7.84375,1.484375 7.84375,1.15625 C8.515625,1.15625 9.21875,1.34375 9.671875,1.78125 C10.515625,2.546875 10.703125,4.921875 10.796875,9.703125 L12.546875,9.703125 C12.890625,9.703125 13.125,9.8125 13.171875,10.078125 C12.453125,10.78125 11.28125,11.734375 11.28125,11.734375 L10.21875,10.390625 L4.96875,10.390625 L4.96875,14.421875 L12.859375,14.421875 C13.203125,10.578125 13.921875,7.15625 15.3125,4.375 C13.625,2.0625 11.421875,0.046875 8.609375,-1.390625 L8.8125,-1.734375 C11.78125,-0.546875 14.140625,1.171875 15.953125,3.171875 C16.9375,1.53125 18.1875,0.1875 19.78125,-0.84375 C20.953125,-1.6875 22.390625,-2.296875 22.9375,-1.53125 C23.140625,-1.296875 23.09375,-0.9375 22.3125,-0.078125 L22.734375,3.53125 L22.421875,3.578125 C22.125,2.59375 21.671875,1.4375 21.390625,0.84375 C21.171875,0.359375 21,0.359375 20.546875,0.671875 C19.0625,1.5625 17.875,2.828125 16.984375,4.390625 C18.578125,6.453125 19.6875,8.71875 20.40625,10.96875 C21.046875,10.9375 21.28125,11.0625 21.390625,11.375 L18.859375,12.140625 C18.34375,9.984375 17.46875,7.828125 16.265625,5.8125 C15.171875,8.28125 14.59375,11.25 14.359375,14.421875 L22.3125,14.421875 C22.65625,14.421875 22.890625,14.546875 22.9375,14.8125 C22.15625,15.546875 20.828125,16.5625 20.828125,16.5625 L19.6875,15.140625 L14.296875,15.140625 C14.234375,16.46875 14.1875,17.78125 14.203125,19.125 C14.828125,19.203125 15.046875,19.484375 15.078125,19.796875 L12.625,20.0625 C12.625,18.390625 12.671875,16.734375 12.796875,15.140625 L5.28125,15.140625 L3.40625,15.9375 Z" transform="translate(-0.1015625, 20.0625) scale(1, -1)"/>
</svg>