<svg height="22.953125" viewBox="0 0 24 22.953125" width="24" xmlns="http://www.w3.org/2000/svg">
<path d="M18.671875,14.609375 L18.671875,8.5625 L12.703125,8.5625 L12.703125,14.609375 Z M16.921875,4.984375 L16.65625,4.78125 C17.5,3.953125 18.484375,2.859375 19.296875,1.703125 L12.703125,1.296875 L12.703125,7.875 L18.671875,7.875 L18.671875,6.390625 L18.90625,6.390625 C19.4375,6.390625 20.234375,6.765625 20.25,6.9375 L20.25,14.296875 C20.734375,14.40625 21.125,14.59375 21.28125,14.78125 L19.3125,16.265625 L18.4375,15.3125 L12.703125,15.3125 L12.703125,19.0625 C13.296875,19.15625 13.484375,19.390625 13.5625,19.734375 L11.109375,19.984375 L11.109375,15.3125 L5.453125,15.3125 L3.71875,16.078125 L3.71875,6 L3.984375,6 C4.609375,6 5.28125,6.359375 5.28125,6.53125 L5.28125,7.875 L11.109375,7.875 L11.109375,1.203125 C7.015625,0.984375 3.640625,0.8125 1.75,0.796875 L2.515625,-1.3125 C2.71875,-1.265625 3,-1.078125 3.140625,-0.8125 C10.25,-0.078125 15.546875,0.59375 19.65625,1.171875 C20.25,0.234375 20.734375,-0.703125 20.921875,-1.5625 C22.796875,-2.96875 23.953125,1.46875 16.921875,4.984375 Z M5.28125,8.5625 L5.28125,14.609375 L11.109375,14.609375 L11.109375,8.5625 Z" transform="translate(-0.8515625, 19.984375) scale(1, -1)"/>
</svg>