<svg height="21.8125" viewBox="0 0 24 21.8125" width="24" xmlns="http://www.w3.org/2000/svg">
<path d="M11.296875,19.984375 C11.28125,18.796875 11.234375,17.5625 10.984375,16.3125 L4.421875,16.3125 L2.65625,17.109375 L2.65625,-1.828125 L2.953125,-1.828125 C3.640625,-1.828125 4.21875,-1.4375 4.21875,-1.21875 L4.21875,15.59375 L10.796875,15.59375 C10.21875,13.421875 8.828125,11.234375 5.5625,9.40625 L5.859375,9.03125 C9.078125,10.421875 10.796875,12.125 11.71875,13.875 C13.609375,12.796875 15.953125,10.96875 16.796875,9.453125 C18.625,8.640625 18.9375,12.359375 11.921875,14.296875 C12.125,14.734375 12.28125,15.171875 12.40625,15.59375 L19.890625,15.59375 L19.890625,0.703125 C19.890625,0.28125 19.75,0.140625 19.265625,0.140625 C18.703125,0.140625 15.90625,0.34375 15.90625,0.34375 L15.90625,-0.03125 C17.109375,-0.1875 17.78125,-0.390625 18.1875,-0.671875 C18.546875,-0.90625 18.703125,-1.3125 18.796875,-1.828125 C21.1875,-1.578125 21.484375,-0.765625 21.484375,0.5 L21.484375,15.28125 C21.9375,15.390625 22.34375,15.59375 22.515625,15.765625 L20.46875,17.328125 L19.65625,16.3125 L12.578125,16.3125 C12.796875,17.296875 12.859375,18.265625 12.9375,19.171875 C13.4375,19.21875 13.65625,19.484375 13.703125,19.78125 Z M11.375,10.78125 C10.625,7.375 8.65625,3.859375 5.203125,1.96875 L5.40625,1.625 C8.453125,2.765625 10.515625,4.890625 11.8125,7.21875 C13.75,5.875 16.125,3.765625 16.9375,2.140625 C18.8125,1.171875 19.34375,5.015625 12.046875,7.6875 C12.40625,8.359375 12.671875,9.03125 12.90625,9.71875 C13.515625,9.703125 13.703125,9.859375 13.78125,10.15625 Z" transform="translate(-0.5859375, 19.984375) scale(1, -1)"/>
</svg>