<svg height="21.578125" viewBox="0 0 24 21.578125" width="24" xmlns="http://www.w3.org/2000/svg">
<path d="M10.65625,19.75 C8.875,18.40625 6.84375,17.109375 5.046875,16.171875 L2.921875,16.890625 L2.921875,-1.828125 L3.125,-1.828125 C4.0625,-1.828125 4.484375,-1.4375 4.515625,-1.296875 L4.515625,0.359375 L19.4375,0.359375 L19.4375,-1.65625 L19.65625,-1.65625 C20.203125,-1.65625 20.96875,-1.25 21,-1.078125 L21,15.34375 C21.5,15.4375 21.890625,15.625 22.03125,15.8125 L20.09375,17.375 L19.203125,16.34375 L12.546875,16.34375 L12.765625,15.640625 L19.4375,15.640625 L19.4375,8.875 L13.109375,8.875 L13.3125,8.1875 L19.4375,8.1875 L19.4375,1.0625 L4.515625,1.0625 L4.515625,8.1875 L10.828125,8.1875 C11.15625,8.1875 11.40625,8.296875 11.46875,8.5625 C10.6875,9.3125 9.40625,10.375 9.40625,10.375 L8.328125,8.875 L4.515625,8.875 L4.515625,15.3125 C6.640625,15.890625 9.4375,16.890625 11.546875,18.046875 C11.96875,17.859375 12.21875,17.875 12.4375,18.078125 Z" transform="translate(-0.4765625, 19.75) scale(1, -1)"/>
</svg>