<svg height="21.984375" viewBox="0 0 24 21.984375" width="24" xmlns="http://www.w3.org/2000/svg">
<path d="M11.109375,20.09375 L11.109375,17.109375 L3.59375,17.109375 L3.8125,16.4375 L11.109375,16.4375 L11.109375,13.75 L0.890625,13.75 L1.109375,13.078125 L11.109375,13.078125 L11.109375,10.3125 L3.5,10.3125 L3.71875,9.625 L11.109375,9.625 L11.109375,6.84375 L2.5625,6.84375 L2.765625,6.140625 L11.109375,6.140625 L11.109375,3.234375 L1.0625,3.234375 L1.265625,2.546875 L11.109375,2.546875 L11.109375,-1.890625 L11.421875,-1.890625 C12.03125,-1.890625 12.71875,-1.484375 12.71875,-1.25 L12.71875,2.546875 L22.34375,2.546875 C22.703125,2.546875 22.9375,2.65625 22.984375,2.921875 C22.109375,3.71875 20.6875,4.796875 20.6875,4.796875 L19.421875,3.234375 L12.71875,3.234375 L12.71875,6.140625 L21,6.140625 C21.328125,6.140625 21.59375,6.265625 21.625,6.53125 C20.78125,7.265625 19.390625,8.328125 19.390625,8.328125 L18.171875,6.84375 L12.71875,6.84375 L12.71875,9.625 L17.921875,9.625 L17.921875,8.421875 L18.140625,8.421875 C18.671875,8.421875 19.46875,8.8125 19.484375,8.953125 L19.484375,13.078125 L22.625,13.078125 C22.96875,13.078125 23.203125,13.203125 23.234375,13.46875 C22.484375,14.203125 21.1875,15.265625 21.1875,15.265625 L20.046875,13.75 L19.484375,13.75 L19.484375,16.125 C19.96875,16.21875 20.328125,16.421875 20.46875,16.609375 L18.546875,18.09375 L17.6875,17.109375 L12.71875,17.109375 L12.71875,19.15625 C13.3125,19.25 13.515625,19.515625 13.578125,19.84375 Z M12.71875,13.078125 L17.921875,13.078125 L17.921875,10.3125 L12.71875,10.3125 Z M12.71875,13.75 L12.71875,16.4375 L17.921875,16.4375 L17.921875,13.75 Z" transform="translate(-0.0625, 20.09375) scale(1, -1)"/>
</svg>