<svg height="22.515625" viewBox="0 0 24 22.515625" width="24" xmlns="http://www.w3.org/2000/svg">
<path d="M10.9375,1.625 L8.8125,2.8125 C7.34375,1.390625 4.203125,-0.5 1.4375,-1.53125 L1.625,-1.890625 C4.65625,-1.203125 7.96875,0.1875 9.84375,1.4375 C10.421875,1.296875 10.78125,1.375 10.9375,1.625 Z M13.890625,2.546875 L13.78125,2.140625 C16.875,1.03125 19.078125,-0.34375 20.28125,-1.5625 C21.9375,-2.859375 24.3125,0.71875 13.890625,2.546875 Z M20.921875,5.546875 L19.78125,4.109375 L15.953125,4.109375 L15.953125,7.3125 L20.78125,7.3125 C21.125,7.3125 21.359375,7.4375 21.4375,7.703125 C20.65625,8.421875 19.421875,9.359375 19.421875,9.359375 L18.359375,8.015625 L15.953125,8.015625 L15.953125,9.8125 C16.4375,9.890625 16.625,10.078125 16.6875,10.375 L14.40625,10.609375 L14.40625,8.015625 L9.28125,8.015625 L9.28125,9.8125 C9.796875,9.890625 9.953125,10.078125 10.015625,10.375 L7.75,10.609375 L7.75,8.015625 L2.8125,8.015625 L3.03125,7.3125 L7.75,7.3125 L7.75,4.109375 L1.25,4.109375 L1.46875,3.390625 L22.375,3.390625 C22.734375,3.390625 22.96875,3.5 23.015625,3.765625 C22.203125,4.515625 20.921875,5.546875 20.921875,5.546875 Z M14.40625,7.3125 L14.40625,4.109375 L9.28125,4.109375 L9.28125,7.3125 Z M14.234375,15.640625 L14.234375,18.09375 L18.90625,18.09375 L18.90625,15.640625 Z M12.765625,19.53125 L12.765625,12.40625 C12.765625,11.296875 13.125,10.9375 14.96875,10.9375 L17.515625,10.9375 C21.21875,10.9375 21.9375,11.15625 21.9375,11.828125 C21.9375,12.140625 21.8125,12.3125 21.265625,12.453125 L21.1875,14.59375 L20.90625,14.59375 C20.6875,13.625 20.421875,12.796875 20.25,12.5 C20.15625,12.34375 20.0625,12.28125 19.796875,12.28125 C19.484375,12.234375 18.625,12.234375 17.59375,12.234375 L15.21875,12.234375 C14.328125,12.234375 14.234375,12.34375 14.234375,12.703125 L14.234375,14.953125 L18.90625,14.953125 L18.90625,14.140625 L19.125,14.140625 C19.625,14.140625 20.375,14.46875 20.40625,14.609375 L20.40625,17.921875 C20.78125,18 21.09375,18.171875 21.234375,18.3125 L19.484375,19.65625 L18.71875,18.796875 L14.546875,18.796875 L12.765625,19.578125 Z M4.296875,15.640625 L4.296875,18.09375 L8.953125,18.09375 L8.953125,15.640625 Z M2.828125,19.53125 L2.828125,12.390625 C2.828125,11.28125 3.1875,10.921875 4.984375,10.921875 L7.484375,10.921875 C11.109375,10.921875 11.828125,11.15625 11.828125,11.8125 C11.828125,12.125 11.6875,12.265625 11.15625,12.4375 L11.0625,14.5 L10.796875,14.5 C10.5625,13.578125 10.34375,12.75 10.171875,12.484375 C10.078125,12.3125 9.953125,12.265625 9.71875,12.265625 C9.40625,12.21875 8.5625,12.21875 7.5625,12.21875 L5.25,12.21875 C4.390625,12.21875 4.296875,12.3125 4.296875,12.671875 L4.296875,14.921875 L8.953125,14.921875 L8.953125,14.1875 L9.1875,14.1875 C9.671875,14.1875 10.421875,14.515625 10.4375,14.65625 L10.4375,17.921875 C10.828125,18 11.140625,18.171875 11.28125,18.3125 L9.546875,19.65625 L8.765625,18.796875 L4.609375,18.796875 L2.828125,19.578125 Z" transform="translate(-0.78125, 19.65625) scale(1, -1)"/>
</svg>