<svg height="21.484375" viewBox="0 0 24 21.484375" width="24" xmlns="http://www.w3.org/2000/svg">
<path d="M5.109375,18.453125 L5.109375,0.640625 C3.84375,0.40625 2.8125,0.21875 2.109375,0.125 L3.21875,-1.96875 C3.453125,-1.890625 3.640625,-1.6875 3.765625,-1.390625 C8.1875,0 11.375,1.15625 13.703125,2.046875 L13.609375,2.40625 L6.703125,0.953125 L6.703125,8.859375 L11.234375,8.859375 C12.765625,3.171875 16.203125,-0.078125 21.59375,-1.796875 C21.859375,-1.03125 22.390625,-0.53125 23.140625,-0.4375 L23.15625,-0.1875 C19.796875,0.578125 16.96875,1.890625 14.875,3.9375 C16.96875,4.796875 19.25,5.96875 20.640625,6.84375 C21.171875,6.640625 21.390625,6.71875 21.546875,6.953125 L19.625,8.328125 C18.453125,7.21875 16.34375,5.546875 14.515625,4.3125 C13.3125,5.5625 12.40625,7.078125 11.765625,8.859375 L17.328125,8.859375 L17.328125,7.84375 L17.5625,7.84375 C18.09375,7.84375 18.859375,8.234375 18.890625,8.40625 L18.890625,17.375 C19.4375,17.46875 19.890625,17.6875 20.0625,17.90625 L17.96875,19.515625 L17.046875,18.453125 L6.984375,18.453125 L5.109375,19.25 Z M11.546875,9.546875 L6.703125,9.546875 L6.703125,13.3125 L17.328125,13.3125 L17.328125,9.546875 Z M6.703125,17.765625 L17.328125,17.765625 L17.328125,14.015625 L6.703125,14.015625 Z" transform="translate(-0.6328125, 19.515625) scale(1, -1)"/>
</svg>