<svg height="21.328125" viewBox="0 0 24 21.328125" width="24" xmlns="http://www.w3.org/2000/svg">
<path d="M15.859375,4.703125 L15.59375,4.515625 C16.625,3.765625 17.828125,2.421875 18.21875,1.34375 C19.75,0.4375 20.6875,3.53125 15.859375,4.703125 Z M18.09375,10.3125 L18.09375,6.703125 L12.5,6.703125 C12.765625,7.84375 12.890625,9.046875 12.953125,10.3125 Z M4.625,15.578125 L4.84375,14.875 L8.953125,14.875 C7.890625,13.015625 5.5,10.84375 1.421875,9.28125 L1.6875,8.953125 C2.921875,9.28125 4.03125,9.671875 4.984375,10.109375 L4.984375,4.3125 L5.234375,4.3125 C6,4.3125 6.5,4.75 6.5,4.875 L6.5,6 L10.734375,6 C9.8125,3.09375 7.46875,0.59375 1.171875,-1.46875 L1.421875,-1.890625 C8.6875,0.078125 11.296875,2.734375 12.3125,6 L12.84375,6 L12.84375,0.078125 C12.84375,-1.125 13.25,-1.46875 15.21875,-1.46875 L18.171875,-1.46875 C22.296875,-1.46875 23.0625,-1.203125 23.0625,-0.5 C23.0625,-0.21875 22.890625,-0.03125 22.375,0.140625 L22.296875,2.8125 L21.984375,2.8125 C21.75,1.625 21.484375,0.578125 21.3125,0.21875 C21.21875,0.03125 21.09375,-0.046875 20.8125,-0.078125 C20.40625,-0.09375 19.421875,-0.09375 18.21875,-0.09375 L15.4375,-0.09375 C14.421875,-0.09375 14.328125,-0.03125 14.328125,0.359375 L14.328125,6 L18.09375,6 L18.09375,4.84375 L18.34375,4.84375 C18.84375,4.84375 19.625,5.1875 19.65625,5.359375 L19.65625,10.125 C20.0625,10.203125 20.375,10.390625 20.515625,10.515625 L18.703125,11.875 L17.90625,11.015625 L6.84375,11.015625 C8.828125,12.1875 10.0625,13.515625 10.84375,14.875 L15.578125,14.875 C15.390625,13.84375 15.125,13.171875 14.875,13.015625 C14.71875,12.890625 14.5,12.859375 14.15625,12.859375 C13.734375,12.859375 12.359375,12.953125 11.609375,13.015625 L11.59375,12.59375 C12.3125,12.5 13.015625,12.34375 13.265625,12.171875 C13.53125,11.921875 13.609375,11.59375 13.609375,11.234375 C14.421875,11.234375 15.171875,11.375 15.671875,11.6875 C16.421875,12.140625 16.828125,13.125 17.046875,14.734375 C17.5,14.78125 17.78125,14.90625 17.921875,15.078125 L16.265625,16.390625 L15.453125,15.578125 Z M11.328125,10.3125 C11.28125,9.046875 11.203125,7.84375 10.921875,6.703125 L6.5,6.703125 L6.5,10.3125 Z M3.765625,19.421875 C3.859375,17.90625 2.953125,16.609375 1.96875,16.125 C1.46875,15.84375 1.125,15.390625 1.3125,14.828125 C1.578125,14.25 2.453125,14.234375 3.078125,14.640625 C3.765625,15.078125 4.46875,16.0625 4.46875,17.5625 L19.84375,17.5625 C19.578125,16.609375 19.15625,15.390625 18.8125,14.609375 L19.125,14.421875 C20.015625,15.171875 21.171875,16.390625 21.8125,17.25 C22.265625,17.28125 22.5625,17.296875 22.734375,17.5 L20.8125,19.34375 L19.75,18.265625 L4.4375,18.265625 C4.390625,18.625 4.296875,19.03125 4.171875,19.4375 Z" transform="translate(-0.09375, 19.4375) scale(1, -1)"/>
</svg>