<svg height="20.421875" viewBox="0 0 24 20.421875" width="24" xmlns="http://www.w3.org/2000/svg">
<path d="M8.515625,14.28125 L8.515625,0.1875 L5.25,0.1875 L5.25,14.28125 Z M10.03125,14.28125 L13.375,14.28125 L13.375,0.1875 L10.03125,0.1875 Z M0.953125,0.1875 L1.15625,-0.53125 L22.515625,-0.53125 C22.84375,-0.53125 23.0625,-0.40625 23.140625,-0.140625 C22.4375,0.671875 21.21875,1.84375 21.21875,1.84375 L20.109375,0.1875 L19.65625,0.1875 L19.65625,14.015625 C20.203125,14.109375 20.546875,14.234375 20.734375,14.46875 L18.625,16.0625 L17.8125,14.96875 L9.546875,14.96875 C10.609375,16.15625 11.71875,17.609375 12.4375,18.671875 C12.9375,18.640625 13.25,18.84375 13.375,19.109375 L10.65625,19.890625 C10.25,18.4375 9.453125,16.4375 8.8125,14.96875 L5.515625,14.96875 L3.71875,15.75 L3.71875,0.1875 Z M14.875,14.28125 L18.078125,14.28125 L18.078125,0.1875 L14.875,0.1875 Z" transform="translate(-0.046875, 19.890625) scale(1, -1)"/>
</svg>