<svg height="21.671875" viewBox="0 0 24 21.671875" width="24" xmlns="http://www.w3.org/2000/svg">
<path d="M11.046875,17.609375 L11.046875,13.03125 L4.921875,13.03125 L4.921875,17.609375 Z M3.3125,18.3125 L3.3125,-1.84375 L3.578125,-1.84375 C4.390625,-1.84375 4.921875,-1.390625 4.921875,-1.265625 L4.921875,-0.125 L22.3125,-0.125 C22.65625,-0.125 22.890625,0 22.96875,0.265625 C22.078125,1.0625 20.640625,2.15625 20.640625,2.15625 L19.421875,0.59375 L12.59375,0.59375 L12.59375,6.3125 L17.921875,6.3125 L17.921875,4.34375 L18.171875,4.34375 C18.703125,4.34375 19.515625,4.734375 19.53125,4.875 L19.53125,11.90625 C20.09375,12 20.59375,12.21875 20.765625,12.453125 L18.578125,14.109375 L17.640625,13.03125 L12.59375,13.03125 L12.59375,17.609375 L21.640625,17.609375 C21.984375,17.609375 22.21875,17.734375 22.296875,18 C21.40625,18.765625 20.015625,19.828125 20.015625,19.828125 L18.796875,18.3125 L5.203125,18.3125 L3.3125,19.109375 Z M11.046875,0.59375 L4.921875,0.59375 L4.921875,6.3125 L11.046875,6.3125 Z M4.921875,12.34375 L17.921875,12.34375 L17.921875,7.015625 L4.921875,7.015625 Z" transform="translate(-1.140625, 19.828125) scale(1, -1)"/>
</svg>