<svg height="22.03125" viewBox="0 0 24 22.03125" width="24" xmlns="http://www.w3.org/2000/svg">
<path d="M13.203125,13.609375 L13.203125,5.09375 L13.46875,5.09375 C13.9375,5.09375 14.515625,5.40625 14.515625,5.5625 L14.515625,12.75 C15.125,12.84375 15.34375,13.0625 15.390625,13.390625 Z M16.0625,7.21875 L16.0625,0.84375 L11.46875,0.84375 L11.46875,17.46875 L16.078125,17.46875 L16.078125,11.609375 L16.296875,11.609375 C17.015625,11.609375 17.46875,11.921875 17.46875,12.03125 L17.46875,12.078125 L19.734375,12.078125 L19.734375,7.21875 L17.71875,7.21875 L16.0625,7.96875 Z M9.984375,18.1875 L9.984375,-1.921875 L10.21875,-1.921875 C10.96875,-1.921875 11.46875,-1.484375 11.46875,-1.375 L11.46875,0.140625 L22.515625,0.140625 C22.84375,0.140625 23.09375,0.265625 23.15625,0.53125 C22.375,1.25 21.09375,2.234375 21.09375,2.234375 L19.984375,0.84375 L17.421875,0.84375 L17.421875,6.53125 L19.734375,6.53125 L19.734375,5.0625 L19.9375,5.0625 C20.40625,5.0625 21.125,5.421875 21.140625,5.59375 L21.140625,11.859375 C21.59375,11.921875 21.9375,12.09375 22.109375,12.28125 L20.296875,13.65625 L19.515625,12.765625 L17.46875,12.765625 L17.46875,17.46875 L22.03125,17.46875 C22.375,17.46875 22.609375,17.59375 22.65625,17.859375 C21.890625,18.546875 20.65625,19.53125 20.65625,19.53125 L19.609375,18.1875 L11.765625,18.1875 L9.984375,18.953125 Z M4.078125,20.109375 C3.953125,18.796875 3.640625,16.828125 3.265625,14.6875 L0.890625,14.6875 L1.109375,13.984375 L3.140625,13.984375 C2.515625,10.578125 1.703125,6.9375 1.078125,4.921875 C1.734375,4.734375 2.328125,4.78125 2.640625,4.984375 L3,6.484375 C3.703125,5.96875 4.4375,5.359375 5.15625,4.703125 C4.25,2.375 2.859375,0.3125 0.75,-1.3125 L1.015625,-1.65625 C3.4375,-0.171875 5.015625,1.6875 6.09375,3.796875 C7.03125,2.8125 7.828125,1.796875 8.203125,0.890625 C9.75,0.046875 10.4375,2.546875 6.71875,5.109375 C7.78125,7.796875 8.15625,10.78125 8.421875,13.75 C8.90625,13.828125 9.125,13.890625 9.28125,14.109375 L7.578125,15.640625 L6.671875,14.6875 L4.703125,14.6875 C5.015625,16.46875 5.296875,18.078125 5.46875,19.171875 C6.046875,19.203125 6.265625,19.4375 6.34375,19.75 Z M4.5625,13.984375 L6.859375,13.984375 C6.703125,11.140625 6.390625,8.359375 5.5625,5.828125 C4.875,6.21875 4.0625,6.59375 3.125,6.984375 C3.59375,9.09375 4.125,11.65625 4.5625,13.984375 Z" transform="translate(0.046875, 20.109375) scale(1, -1)"/>
</svg>