<svg height="22.078125" viewBox="0 0 24 22.078125" width="24" xmlns="http://www.w3.org/2000/svg">
<path d="M10.015625,15.078125 L9.765625,14.859375 C10.9375,13.96875 12.28125,12.359375 12.578125,11.015625 C14.234375,9.859375 15.453125,13.484375 10.015625,15.078125 Z M11.234375,7.921875 L11.234375,0.234375 L11.515625,0.234375 C12.078125,0.234375 12.71875,0.546875 12.71875,0.71875 L12.71875,7.109375 C13.25,7.171875 13.46875,7.390625 13.515625,7.6875 Z M7.53125,16.21875 L17.15625,16.21875 L17.15625,9.546875 L7.53125,9.546875 L7.53125,10.421875 Z M11.28125,20.15625 C11.109375,19.21875 10.828125,17.828125 10.609375,16.921875 L7.84375,16.921875 L6,17.734375 L6,10.390625 L6,9.546875 L0.890625,9.546875 L1.109375,8.828125 L5.96875,8.828125 C5.8125,4.890625 4.921875,1.296875 1.5625,-1.578125 L1.875,-1.890625 C6.34375,0.90625 7.3125,4.96875 7.515625,8.828125 L17.15625,8.828125 L17.15625,0.578125 C17.15625,0.21875 17.015625,0.078125 16.578125,0.078125 C16.109375,0.078125 13.78125,0.234375 13.78125,0.234375 L13.78125,-0.140625 C14.828125,-0.28125 15.40625,-0.453125 15.765625,-0.75 C16.0625,-1.015625 16.203125,-1.421875 16.25,-1.921875 C18.484375,-1.703125 18.71875,-0.890625 18.71875,0.390625 L18.71875,8.828125 L22.5625,8.828125 C22.890625,8.828125 23.109375,8.953125 23.15625,9.21875 C22.390625,9.953125 21.140625,10.96875 21.140625,10.96875 L19.984375,9.546875 L18.71875,9.546875 L18.71875,15.859375 C19.25,15.953125 19.6875,16.171875 19.875,16.390625 L17.765625,18 L16.890625,16.921875 L11.46875,16.921875 C11.96875,17.59375 12.640625,18.453125 13.078125,19.109375 C13.578125,19.125 13.890625,19.3125 13.96875,19.65625 Z" transform="translate(-0.0234375, 20.15625) scale(1, -1)"/>
</svg>