<svg height="21.421875" viewBox="0 0 24 21.421875" width="24" xmlns="http://www.w3.org/2000/svg">
<path d="M15.40625,5.59375 L15.171875,5.375 C16.265625,4.53125 17.71875,3.078125 18.125,1.921875 C19.734375,0.9375 20.65625,4.171875 15.40625,5.59375 Z M2.6875,18.71875 L2.90625,18.03125 L8.546875,18.03125 C7.625,16.015625 5.453125,13.75 1.03125,12.140625 L1.3125,11.78125 C2.328125,12.046875 3.21875,12.359375 4.03125,12.671875 L4.03125,5.40625 L4.265625,5.40625 C5.015625,5.40625 5.546875,5.765625 5.546875,5.90625 L5.546875,7.078125 L10.296875,7.078125 C9.265625,4.015625 6.84375,1.078125 1.03125,-1.4375 L1.3125,-1.84375 C8.015625,0.59375 10.734375,3.703125 11.875,7.078125 L12.046875,7.078125 L12.046875,0.265625 C12.046875,-0.984375 12.5,-1.34375 14.609375,-1.34375 L17.78125,-1.34375 C22.21875,-1.34375 23.046875,-1.078125 23.046875,-0.359375 C23.046875,-0.03125 22.84375,0.140625 22.3125,0.3125 L22.25,2.921875 L21.9375,2.921875 C21.640625,1.734375 21.390625,0.75 21.21875,0.390625 C21.09375,0.1875 21,0.125 20.65625,0.09375 C20.25,0.078125 19.171875,0.046875 17.859375,0.046875 L14.8125,0.046875 C13.703125,0.046875 13.578125,0.171875 13.578125,0.578125 L13.578125,7.078125 L18.3125,7.078125 L18.3125,5.828125 L18.546875,5.828125 C19.0625,5.828125 19.84375,6.21875 19.875,6.359375 L19.875,11.90625 C20.328125,11.96875 20.71875,12.171875 20.859375,12.359375 L18.9375,13.828125 L18.078125,12.890625 L5.828125,12.890625 L5.1875,13.15625 C8.109375,14.546875 9.546875,16.25 10.390625,18.03125 L16.34375,18.03125 C16.109375,16.734375 15.671875,15.75 15.28125,15.484375 C15.046875,15.34375 14.859375,15.28125 14.40625,15.28125 C13.84375,15.28125 11.765625,15.453125 10.625,15.546875 L10.609375,15.140625 C11.6875,15.03125 12.75,14.8125 13.15625,14.5625 C13.515625,14.328125 13.609375,13.96875 13.609375,13.5625 C14.59375,13.5625 15.5,13.75 16.078125,14.140625 C16.9375,14.6875 17.5625,16.109375 17.875,17.859375 C18.359375,17.90625 18.625,18 18.796875,18.1875 L17.09375,19.578125 L16.21875,18.71875 Z M18.3125,7.75 L12.09375,7.75 C12.5,9.1875 12.671875,10.6875 12.765625,12.1875 L18.3125,12.1875 Z M10.515625,7.75 L5.546875,7.75 L5.546875,12.1875 L11.109375,12.1875 C11.046875,10.703125 10.921875,9.21875 10.515625,7.75 Z" transform="translate(-0.0390625, 19.578125) scale(1, -1)"/>
</svg>