<svg height="21.5625" viewBox="0 0 24 21.5625" width="24" xmlns="http://www.w3.org/2000/svg">
<path d="M5.234375,18.71875 L5.234375,4.6875 L5.5,4.6875 C6.140625,4.6875 6.796875,5.046875 6.796875,5.234375 L6.796875,6.1875 L8.96875,6.1875 C8.40625,2.0625 6.34375,0 1.0625,-1.4375 L1.171875,-1.828125 C7.296875,-0.765625 10.015625,1.34375 10.75,6.1875 L13.46875,6.1875 L13.46875,0.21875 C13.46875,-0.984375 13.875,-1.34375 15.765625,-1.34375 L18.40625,-1.34375 C22.21875,-1.34375 22.96875,-1.0625 22.96875,-0.34375 C22.96875,-0.046875 22.84375,0.140625 22.296875,0.3125 L22.25,3.71875 L21.90625,3.71875 C21.640625,2.25 21.390625,0.890625 21.21875,0.4375 C21.09375,0.1875 21.03125,0.125 20.734375,0.09375 C20.375,0.078125 19.53125,0.078125 18.4375,0.078125 L16.015625,0.078125 C15.125,0.078125 15.03125,0.171875 15.03125,0.5 L15.03125,6.1875 L17.421875,6.1875 L17.421875,4.921875 L17.65625,4.921875 C18.21875,4.921875 18.953125,5.328125 18.984375,5.5 L18.984375,17.734375 C19.46875,17.828125 19.84375,18.03125 20.015625,18.21875 L18.078125,19.734375 L17.1875,18.71875 L6.90625,18.71875 L5.234375,19.515625 Z M17.421875,6.890625 L6.796875,6.890625 L6.796875,10.203125 L17.421875,10.203125 Z M17.421875,10.890625 L6.796875,10.890625 L6.796875,14.15625 L17.421875,14.15625 Z M17.421875,14.859375 L6.796875,14.859375 L6.796875,18.03125 L17.421875,18.03125 Z" transform="translate(-0.015625, 19.734375) scale(1, -1)"/>
</svg>