<svg height="22.65625" viewBox="0 0 24 22.65625" width="24" xmlns="http://www.w3.org/2000/svg">
<path d="M1.828125,18.453125 L2.015625,17.765625 L7.875,17.765625 C8.203125,17.765625 8.421875,17.875 8.5,18.140625 C7.796875,18.8125 6.671875,19.734375 6.671875,19.734375 L5.640625,18.453125 Z M1.828125,12.390625 L2.015625,11.6875 L7.828125,11.6875 C8.15625,11.6875 8.375,11.8125 8.453125,12.046875 C7.78125,12.703125 6.71875,13.5625 6.71875,13.5625 L5.8125,12.390625 Z M1.828125,9.3125 L2.015625,8.609375 L7.828125,8.609375 C8.15625,8.609375 8.375,8.734375 8.453125,9 C7.78125,9.625 6.71875,10.484375 6.71875,10.484375 L5.8125,9.3125 Z M0.859375,15.4375 L1.0625,14.734375 L8.828125,14.734375 C9.140625,14.734375 9.390625,14.859375 9.4375,15.125 C8.71875,15.796875 7.578125,16.734375 7.578125,16.734375 L6.578125,15.4375 Z M11.78125,13.15625 L11.953125,12.4375 L18.984375,12.4375 C19.3125,12.4375 19.53125,12.546875 19.609375,12.8125 C18.890625,13.515625 17.734375,14.375 17.734375,14.375 L16.734375,13.15625 Z M11.28125,7.921875 L11.046875,7.703125 C11.71875,7.3125 12.390625,6.546875 12.578125,5.875 C13.75,5.203125 14.546875,7.46875 11.28125,7.921875 Z M11.328125,4.875 L11.09375,4.65625 C11.78125,4.15625 12.5,3.140625 12.625,2.296875 C13.796875,1.46875 14.78125,3.9375 11.328125,4.875 Z M17.421875,10.75 C17.234375,9.578125 16.46875,6.5 15.984375,4.734375 C17.140625,2.828125 17.828125,-0.046875 18.03125,-1.5625 C19.03125,-2.515625 21,-0.484375 16.609375,4.828125 C17.28125,6.3125 18.34375,8.828125 18.765625,10.015625 C19.125,9.953125 19.375,10.078125 19.421875,10.3125 Z M20.46875,10.875 C20.140625,9.671875 19.015625,6.578125 18.34375,4.796875 C19.796875,2.921875 20.8125,0.046875 21.1875,-1.53125 C22.3125,-2.5 24.359375,-0.265625 19.015625,4.890625 C19.890625,6.359375 21.3125,8.828125 21.859375,10.015625 C22.25,9.984375 22.46875,10.078125 22.53125,10.296875 Z M6.484375,5.5625 L6.484375,0.984375 L3.34375,0.984375 L3.34375,5.5625 Z M1.890625,6.234375 L1.890625,-1.875 L2.109375,-1.875 C2.71875,-1.875 3.34375,-1.53125 3.34375,-1.390625 L3.34375,0.28125 L6.484375,0.28125 L6.484375,-0.984375 L6.703125,-0.984375 C7.171875,-0.984375 7.890625,-0.640625 7.921875,-0.5 L7.921875,5.296875 C8.375,5.375 8.765625,5.5625 8.875,5.734375 L7.0625,7.15625 L6.234375,6.234375 L3.453125,6.234375 L1.890625,6.953125 Z M9.671875,10.21875 L9.671875,-1.796875 L9.890625,-1.796875 C10.46875,-1.796875 10.984375,-1.484375 10.984375,-1.3125 L10.984375,9.5 L13.84375,9.5 L13.84375,0.40625 C13.84375,0.125 13.78125,0 13.46875,0 C13.15625,0 11.90625,0.125 11.90625,0.125 L11.90625,-0.265625 C12.5,-0.390625 12.890625,-0.53125 13.078125,-0.75 C13.3125,-0.984375 13.375,-1.390625 13.421875,-1.796875 C15.03125,-1.609375 15.1875,-0.90625 15.1875,0.234375 L15.1875,9.390625 C15.53125,9.453125 15.84375,9.59375 15.953125,9.765625 L14.28125,10.96875 L13.65625,10.21875 L11.09375,10.21875 L9.671875,10.875 Z M10.609375,19.0625 L10.828125,18.359375 L14.09375,18.359375 C12.859375,15.953125 10.96875,13.65625 8.640625,11.96875 L8.90625,11.609375 C11.90625,13.265625 14.359375,15.578125 15.796875,18.359375 L15.890625,18.359375 C16.984375,15.890625 19.375,13.484375 21.8125,11.875 C22.03125,12.484375 22.609375,12.984375 23.234375,13.109375 L23.296875,13.390625 C20.546875,14.515625 17.765625,16.515625 16.5625,18.3125 C17.28125,18.34375 17.859375,18.5 18.078125,18.765625 L16.03125,20.140625 L15.3125,19.0625 Z" transform="translate(-0.609375, 20.140625) scale(1, -1)"/>
</svg>