<svg height="21.984375" viewBox="0 0 24 21.984375" width="24" xmlns="http://www.w3.org/2000/svg">
<path d="M4.25,13.875 L4.25,4.265625 L4.515625,4.265625 C5.15625,4.265625 5.828125,4.625 5.828125,4.796875 L5.828125,5.734375 L11.109375,5.734375 L11.109375,2.90625 L1.03125,2.90625 L1.25,2.203125 L11.109375,2.203125 L11.109375,-1.875 L11.453125,-1.875 C12.03125,-1.875 12.71875,-1.515625 12.71875,-1.265625 L12.71875,2.203125 L22.34375,2.203125 C22.6875,2.203125 22.9375,2.328125 22.984375,2.5625 C22.125,3.359375 20.734375,4.421875 20.734375,4.421875 L19.484375,2.90625 L12.71875,2.90625 L12.71875,5.734375 L18.140625,5.734375 L18.140625,4.65625 L18.390625,4.65625 C18.90625,4.65625 19.703125,5.015625 19.734375,5.1875 L19.734375,12.890625 C20.1875,12.984375 20.5625,13.171875 20.734375,13.375 L18.796875,14.859375 L17.90625,13.875 L12.71875,13.875 L12.71875,16.296875 L21.640625,16.296875 C21.984375,16.296875 22.25,16.421875 22.3125,16.6875 C21.4375,17.453125 19.984375,18.484375 19.984375,18.484375 L18.765625,16.984375 L12.71875,16.984375 L12.71875,19.171875 C13.3125,19.265625 13.515625,19.515625 13.578125,19.84375 L11.109375,20.109375 L11.109375,16.984375 L1.6875,16.984375 L1.890625,16.296875 L11.109375,16.296875 L11.109375,13.875 L5.96875,13.875 L4.25,14.65625 Z M11.109375,13.171875 L11.109375,10.265625 L5.828125,10.265625 L5.828125,13.171875 Z M12.71875,13.171875 L18.140625,13.171875 L18.140625,10.265625 L12.71875,10.265625 Z M11.109375,6.453125 L5.828125,6.453125 L5.828125,9.546875 L11.109375,9.546875 Z M12.71875,6.453125 L12.71875,9.546875 L18.140625,9.546875 L18.140625,6.453125 Z" transform="translate(-0.0078125, 20.109375) scale(1, -1)"/>
</svg>