<svg height="21.953125" viewBox="0 0 24 21.953125" width="24" xmlns="http://www.w3.org/2000/svg">
<path d="M2.0625,4.984375 C1.796875,4.984375 1.03125,4.984375 1.03125,4.984375 L1.03125,4.46875 C1.53125,4.390625 1.890625,4.375 2.203125,4.125 C2.65625,3.796875 2.8125,1.828125 2.5,-0.640625 C2.515625,-1.421875 2.78125,-1.875 3.1875,-1.875 C3.953125,-1.875 4.421875,-1.25 4.4375,-0.234375 C4.53125,1.75 3.90625,2.953125 3.890625,4.03125 C3.890625,4.609375 4.03125,5.296875 4.203125,6 C4.46875,7.03125 6.125,12.03125 6.984375,14.765625 L6.53125,14.859375 C3.03125,6.28125 3.03125,6.28125 2.640625,5.5 C2.421875,4.984375 2.328125,4.984375 2.0625,4.984375 Z M2.40625,19.984375 L2.15625,19.796875 C3.140625,19.078125 4.34375,17.828125 4.75,16.78125 C6.4375,15.8125 7.4375,19.15625 2.40625,19.984375 Z M1.078125,14.59375 L0.84375,14.375 C1.78125,13.75 2.828125,12.59375 3.125,11.609375 C4.75,10.609375 5.828125,13.921875 1.078125,14.59375 Z M8.5,9.703125 L12.703125,9.703125 L12.703125,7.265625 L8.5,7.265625 Z M8.5,10.390625 L8.5,12.796875 L12.703125,12.796875 L12.703125,10.390625 Z M18.953125,5.40625 C20.359375,4.375 21.53125,7.25 17.09375,8.765625 L17.140625,10.828125 L17.140625,13.875 C17.921875,13.203125 18.84375,12.125 19.171875,11.328125 C20.546875,10.4375 21.5,13.078125 17.140625,14.25 L17.140625,17.6875 L20.46875,17.6875 L20.46875,0.5 C20.46875,0.140625 20.375,0 19.9375,0 C19.515625,0 17.40625,0.171875 17.40625,0.171875 L17.40625,-0.21875 C18.34375,-0.34375 18.890625,-0.5 19.21875,-0.765625 C19.484375,-1.015625 19.609375,-1.390625 19.6875,-1.84375 C21.703125,-1.65625 21.90625,-0.859375 21.90625,0.34375 L21.90625,17.421875 C22.390625,17.5 22.796875,17.71875 22.96875,17.875 L21,19.375 L20.234375,18.390625 L17.421875,18.390625 L15.75,19.15625 L15.75,10.828125 C15.75,8.40625 15.640625,6.03125 15.125,3.8125 C14.46875,4.4375 13.734375,5.046875 13.734375,5.046875 L12.71875,3.703125 L11.28125,3.703125 L11.28125,6.578125 L12.703125,6.578125 L12.703125,5.8125 L12.984375,5.8125 C13.515625,5.8125 14.09375,6.140625 14.109375,6.234375 L14.109375,12.546875 C14.515625,12.625 14.859375,12.796875 15.03125,12.953125 L13.515625,14.328125 L12.8125,13.515625 L11.28125,13.515625 L11.28125,16.15625 L14.734375,16.15625 C15.046875,16.15625 15.265625,16.265625 15.3125,16.53125 C14.640625,17.203125 13.46875,18.1875 13.46875,18.1875 L12.484375,16.84375 L11.28125,16.84375 L11.28125,19.203125 C11.828125,19.296875 12.078125,19.515625 12.125,19.828125 L9.8125,20.0625 L9.8125,16.84375 L6.34375,16.84375 L6.53125,16.15625 L9.8125,16.15625 L9.8125,13.515625 L8.609375,13.515625 L7.109375,14.203125 L7.109375,5.640625 L7.296875,5.640625 C7.890625,5.640625 8.5,5.953125 8.5,6.09375 L8.5,6.578125 L9.84375,6.578125 L9.84375,3.703125 L5.296875,3.703125 L5.5,2.96875 L9.84375,2.96875 L9.84375,-1.828125 L10.0625,-1.828125 C10.796875,-1.828125 11.28125,-1.515625 11.28125,-1.390625 L11.28125,2.96875 L14.90625,2.96875 C14.40625,1.3125 13.65625,-0.234375 12.5,-1.625 L12.859375,-1.890625 C16.078125,0.859375 16.890625,4.703125 17.09375,8.359375 C17.875,7.5625 18.75,6.359375 18.953125,5.40625 Z" transform="translate(0.09375, 20.0625) scale(1, -1)"/>
</svg>