<svg height="21.8125" viewBox="0 0 24 21.8125" width="24" xmlns="http://www.w3.org/2000/svg">
<path d="M6.625,15.390625 L6.359375,15.1875 C7.265625,14.421875 8.296875,13.03125 8.5,11.953125 C10.03125,10.796875 11.375,13.96875 6.625,15.390625 Z M18.40625,16.5625 C17.328125,15.59375 15.8125,14.609375 14.046875,13.6875 C14.5,14.359375 14.0625,15.890625 11.421875,16.734375 C13.171875,17.296875 14.734375,17.921875 15.984375,18.5 C16.578125,18.3125 16.984375,18.359375 17.140625,18.578125 L15.28125,19.96875 C12.765625,18.28125 7.625,16.203125 3.140625,15.1875 L3.265625,14.78125 C5.859375,15.171875 8.546875,15.8125 10.921875,16.578125 C11.734375,15.84375 12.59375,14.5625 12.796875,13.53125 C12.984375,13.390625 13.15625,13.3125 13.3125,13.3125 C10.171875,11.734375 6.28125,10.3125 2.515625,9.484375 L2.65625,9.046875 C6.125,9.59375 9.484375,10.5625 12.453125,11.6875 C12.859375,11.28125 13.203125,10.828125 13.515625,10.375 C11.140625,8.359375 6.9375,6.34375 3.234375,5.296875 L3.40625,4.84375 C7.21875,5.640625 11.515625,7.265625 14.328125,9 C14.59375,8.453125 14.8125,7.890625 15,7.375 C12.171875,4.390625 7.109375,1.75 2.453125,0.4375 L2.59375,0 C7.265625,0.984375 12.1875,3.125 15.4375,5.515625 C15.796875,3.140625 15.3125,1.0625 14.40625,0.140625 C14.203125,-0.046875 13.984375,-0.078125 13.65625,-0.078125 C13.03125,-0.078125 11.140625,0.046875 10.15625,0.125 L10.15625,-0.265625 C11.046875,-0.4375 12,-0.640625 12.28125,-0.84375 C12.59375,-1.0625 12.75,-1.375 12.765625,-1.84375 C14.109375,-1.84375 14.953125,-1.578125 15.484375,-1.0625 C17.734375,0.9375 17.96875,7.703125 12.953125,11.875 C15.4375,12.890625 17.609375,13.984375 19.296875,15.09375 C19.921875,14.921875 20.296875,15 20.46875,15.21875 Z" transform="translate(0.5390625, 19.96875) scale(1, -1)"/>
</svg>