<svg height="21.09375" viewBox="0 0 24 21.09375" width="24" xmlns="http://www.w3.org/2000/svg">
<path d="M20.328125,14.78125 C19.34375,13.53125 17.46875,11.640625 15.84375,10.25 C14.828125,12.265625 14.09375,14.546875 13.625,17.046875 L21.9375,17.046875 C22.265625,17.046875 22.515625,17.15625 22.578125,17.421875 C21.71875,18.21875 20.328125,19.25 20.328125,19.25 L19.125,17.765625 L1.5625,17.765625 L1.78125,17.046875 L10.609375,17.046875 C8.421875,14.71875 5.09375,12.578125 1.46875,11.140625 L1.6875,10.734375 C4.25,11.46875 6.640625,12.484375 8.71875,13.734375 C9.234375,13.171875 9.703125,12.625 10.109375,12.03125 C8.109375,9.953125 4.65625,7.890625 1.578125,6.75 L1.75,6.3125 C4.984375,7.21875 8.5625,8.921875 10.890625,10.65625 C11.234375,10.015625 11.515625,9.359375 11.734375,8.71875 C9.3125,5.71875 4.96875,2.96875 0.90625,1.46875 L1.078125,1.078125 C5.1875,2.25 9.40625,4.4375 12.234375,6.859375 C12.796875,4.015625 12.40625,1.421875 11.375,0.3125 C11.1875,0.09375 10.9375,0.078125 10.5625,0.078125 C9.9375,0.078125 7.96875,0.171875 6.90625,0.265625 L6.90625,-0.125 C7.875,-0.28125 8.859375,-0.53125 9.1875,-0.75 C9.53125,-1.015625 9.71875,-1.34375 9.75,-1.84375 C11.140625,-1.84375 12.03125,-1.53125 12.546875,-0.953125 C15.03125,1.4375 14.875,9.359375 9.140625,13.984375 C10.609375,14.875 11.875,15.90625 12.90625,17.046875 L13.109375,17.046875 C14.109375,9.71875 16.796875,4.296875 21.359375,1.109375 C21.75,1.796875 22.34375,2.203125 23.0625,2.1875 L23.140625,2.421875 C20.1875,4.03125 17.78125,6.546875 16.078125,9.796875 C18.078125,10.828125 20.203125,12.234375 21.5,13.25 C22.015625,13.109375 22.21875,13.171875 22.390625,13.390625 Z" transform="translate(-0.0234375, 19.25) scale(1, -1)"/>
</svg>