<svg height="21.953125" viewBox="0 0 24 21.953125" width="24" xmlns="http://www.w3.org/2000/svg">
<path d="M19.890625,12.984375 C18.84375,11.59375 16.75,9.484375 14.921875,7.96875 C13.96875,9.90625 13.265625,12.125 12.859375,14.640625 L22.296875,14.640625 C22.609375,14.640625 22.84375,14.765625 22.921875,15.03125 C22.078125,15.75 20.765625,16.78125 20.765625,16.78125 L19.5625,15.3125 L12.765625,15.3125 L12.765625,19.21875 C13.296875,19.3125 13.515625,19.53125 13.5625,19.84375 L11.15625,20.0625 L11.15625,15.3125 L1.0625,15.3125 L1.265625,14.640625 L10.4375,14.640625 C8.328125,11.421875 4.828125,8.25 0.84375,6.171875 L1.0625,5.78125 C3.125,6.625 5.046875,7.625 6.75,8.828125 L6.75,1.078125 C5.140625,0.625 3.84375,0.265625 3,0.078125 L4.109375,-1.890625 C4.3125,-1.828125 4.515625,-1.578125 4.578125,-1.296875 C9.09375,0.5 12.4375,1.984375 14.859375,3.09375 L14.734375,3.484375 L8.328125,1.5625 L8.328125,10.015625 C9.9375,11.328125 11.296875,12.796875 12.390625,14.359375 C13.421875,6.53125 16.265625,1.484375 21.640625,-1.421875 C22.015625,-0.703125 22.609375,-0.28125 23.328125,-0.265625 L23.40625,-0.046875 C19.75,1.515625 16.984375,4.03125 15.140625,7.515625 C17.328125,8.6875 19.703125,10.265625 21.125,11.421875 C21.625,11.25 21.84375,11.359375 22.015625,11.59375 Z" transform="translate(-0.125, 20.0625) scale(1, -1)"/>
</svg>