<svg height="22.046875" viewBox="0 0 24 22.046875" width="24" xmlns="http://www.w3.org/2000/svg">
<path d="M16.484375,16.421875 L16.484375,13.703125 L7.34375,13.703125 L7.34375,16.421875 Z M11.0625,20.15625 C10.84375,19.265625 10.484375,17.96875 10.21875,17.109375 L7.46875,17.109375 L5.734375,17.90625 L5.734375,5.8125 C4.015625,5.59375 2.609375,5.421875 1.6875,5.359375 L2.46875,3.4375 C2.6875,3.5 2.921875,3.703125 3.046875,3.953125 C8.234375,4.96875 12.28125,5.828125 15.53125,6.546875 C11.78125,3.34375 6.9375,0.546875 1.53125,-1.21875 L1.703125,-1.625 C7.5625,-0.125 12.625,2.5 16.484375,5.546875 L16.484375,0.546875 C16.484375,0.140625 16.390625,-0.03125 15.859375,-0.03125 C15.28125,-0.03125 12.40625,0.1875 12.40625,0.1875 L12.40625,-0.171875 C13.65625,-0.34375 14.375,-0.53125 14.78125,-0.765625 C15.140625,-1.015625 15.265625,-1.421875 15.359375,-1.890625 C17.8125,-1.65625 18.09375,-0.84375 18.09375,0.390625 L18.09375,6.890625 C19.515625,8.1875 20.734375,9.53125 21.71875,10.875 C22.265625,10.65625 22.53125,10.703125 22.75,10.9375 L20.765625,12.40625 C20.015625,11.25 19.125,10.125 18.09375,9.03125 L18.09375,16.109375 C18.546875,16.203125 18.953125,16.421875 19.125,16.609375 L17.0625,18.140625 L16.265625,17.109375 L11.25,17.109375 C11.734375,17.734375 12.34375,18.53125 12.71875,19.125 C13.203125,19.125 13.53125,19.3125 13.609375,19.6875 Z M7.34375,6.03125 L7.34375,9.53125 L16.484375,9.53125 L16.484375,7.421875 L16.3125,7.25 Z M7.34375,13.015625 L16.484375,13.015625 L16.484375,10.25 L7.34375,10.25 Z" transform="translate(-0.140625, 20.15625) scale(1, -1)"/>
</svg>