<svg height="21.96875" viewBox="0 0 24 21.96875" width="24" xmlns="http://www.w3.org/2000/svg">
<path d="M1.03125,17.453125 L1.171875,16.75 L7.65625,16.75 L7.65625,14.5 L7.890625,14.5 C8.515625,14.5 9.1875,14.765625 9.1875,14.921875 L9.1875,16.75 L14.65625,16.75 L14.65625,14.5625 L14.921875,14.5625 C15.671875,14.59375 16.21875,14.875 16.21875,15.046875 L16.21875,16.75 L22.3125,16.75 C22.65625,16.75 22.890625,16.84375 22.9375,17.109375 C22.171875,17.828125 20.90625,18.859375 20.90625,18.859375 L19.75,17.453125 L16.21875,17.453125 L16.21875,19.203125 C16.828125,19.296875 17.015625,19.515625 17.0625,19.84375 L14.65625,20.09375 L14.65625,17.453125 L9.1875,17.453125 L9.1875,19.203125 C9.8125,19.296875 10.015625,19.515625 10.0625,19.84375 L7.65625,20.09375 L7.65625,17.453125 Z M5.1875,12.640625 C4.984375,11.1875 4.25,7.796875 3.75,6.390625 C4.46875,6.171875 5.1875,6.1875 5.515625,6.4375 L5.78125,7.515625 L12.59375,7.515625 C9.953125,4.515625 5.765625,1.609375 1.21875,-0.21875 L1.4375,-0.59375 C6.9375,1.0625 11.765625,3.90625 14.78125,7.421875 L14.78125,0.53125 C14.78125,0.140625 14.640625,0 14.109375,0 C13.515625,0 10.515625,0.1875 10.515625,0.1875 L10.515625,-0.171875 C11.859375,-0.3125 12.578125,-0.5 12.984375,-0.765625 C13.375,-1.015625 13.515625,-1.421875 13.5625,-1.875 C16.015625,-1.65625 16.3125,-0.75 16.3125,0.453125 L16.3125,7.515625 L22.4375,7.515625 C22.78125,7.515625 23.015625,7.625 23.09375,7.890625 C22.25,8.65625 20.953125,9.671875 20.953125,9.671875 L19.78125,8.234375 L16.3125,8.234375 L16.3125,13.03125 L21.359375,13.03125 C21.703125,13.03125 21.9375,13.15625 21.984375,13.421875 C21.171875,14.140625 19.84375,15.09375 19.84375,15.09375 L18.671875,13.734375 L3.21875,13.734375 L3.4375,13.03125 L14.78125,13.03125 L14.78125,8.234375 L5.953125,8.234375 C6.234375,9.53125 6.546875,10.96875 6.671875,11.734375 C7.296875,11.8125 7.53125,12.03125 7.609375,12.359375 Z" transform="translate(-0.0625, 20.09375) scale(1, -1)"/>
</svg>