<svg height="24" viewBox="0 0 24 24" width="24" xmlns="http://www.w3.org/2000/svg">
<path d="M15.3125,4.03125 L15.3125,11.46875 L19.625,11.46875 L19.625,1.515625 L19.875,1.515625 C20.375,1.515625 21.171875,1.875 21.1875,2.046875 L21.1875,11.1875 C21.671875,11.25 22.0625,11.453125 22.21875,11.640625 L20.25,13.15625 L19.390625,12.171875 L15.3125,12.171875 L15.3125,15.953125 L22.296875,15.953125 C22.625,15.953125 22.890625,16.078125 22.9375,16.34375 C22.078125,17.15625 20.640625,18.234375 20.640625,18.234375 L19.421875,16.6875 L1.203125,16.6875 L1.390625,15.953125 L8.546875,15.953125 L8.546875,12.171875 L4.484375,12.171875 L2.78125,12.953125 L2.78125,1.203125 L3.046875,1.203125 C3.703125,1.203125 4.3125,1.5625 4.3125,1.734375 L4.3125,11.46875 L8.546875,11.46875 L8.546875,3.390625 L8.78125,3.390625 C9.546875,3.390625 10.0625,3.765625 10.0625,3.859375 L10.0625,5.515625 L13.78125,5.515625 L13.78125,3.546875 L14.015625,3.546875 C14.8125,3.546875 15.3125,3.9375 15.3125,4.03125 Z M10.0625,15.953125 L13.78125,15.953125 L13.78125,12.171875 L10.0625,12.171875 Z M10.0625,11.46875 L13.78125,11.46875 L13.78125,6.234375 L10.0625,6.234375 Z" transform="translate(-0.0703125, 18.234375) scale(1, -1)"/>
</svg>