<svg height="21.734375" viewBox="0 0 24 21.734375" width="24" xmlns="http://www.w3.org/2000/svg">
<path d="M14.59375,19.5625 L14.359375,19.3125 C16.421875,17.859375 19.125,15.28125 20.0625,13.265625 C22.203125,12.09375 22.921875,16.75 14.59375,19.5625 Z M9.859375,18.765625 L7.484375,19.890625 C6.5,17.5625 4.390625,14.359375 2.109375,12.265625 L2.375,11.96875 C5.1875,13.734375 7.578125,16.421875 8.953125,18.5 C9.5,18.390625 9.71875,18.5 9.859375,18.765625 Z M7.53125,-1.3125 L7.53125,-0.09375 L16.4375,-0.09375 L16.4375,-1.75 L16.6875,-1.75 C17.234375,-1.75 18,-1.390625 18.03125,-1.25 L18.03125,6.53125 C18.53125,6.625 18.90625,6.8125 19.078125,7.015625 L17.109375,8.546875 L16.203125,7.53125 L7.6875,7.53125 L6.140625,8.25 C8.828125,10.15625 11.15625,12.453125 12.53125,14.65625 C14.1875,11.15625 17.765625,8.15625 21.671875,6.28125 C21.84375,6.9375 22.421875,7.515625 23.15625,7.65625 L23.203125,8.015625 C19.015625,9.53125 15.046875,11.953125 12.984375,14.96875 C13.578125,15.03125 13.875,15.140625 13.96875,15.4375 L11.0625,16.109375 C9.8125,12.640625 5.109375,8.015625 0.953125,5.8125 L1.15625,5.453125 C2.8125,6.140625 4.4375,7.078125 5.96875,8.140625 L5.96875,-1.84375 L6.234375,-1.84375 C6.890625,-1.84375 7.53125,-1.484375 7.53125,-1.3125 Z M16.4375,0.625 L7.53125,0.625 L7.53125,6.8125 L16.4375,6.8125 Z" transform="translate(-0.078125, 19.890625) scale(1, -1)"/>
</svg>