<svg height="21.9375" viewBox="0 0 24 21.9375" width="24" xmlns="http://www.w3.org/2000/svg">
<path d="M4.984375,15.9375 L4.703125,15.796875 C5.609375,14.5625 6.703125,12.59375 6.765625,11.046875 C8.359375,9.625 9.9375,13.265625 4.984375,15.9375 Z M17.5,16.265625 C16.734375,14.234375 15.703125,12.046875 14.859375,10.703125 L15.1875,10.484375 C16.46875,11.59375 17.859375,13.25 18.9375,14.90625 C19.4375,14.828125 19.734375,15 19.84375,15.265625 Z M1.109375,9.90625 L1.3125,9.1875 L9.671875,9.1875 C7.796875,5.734375 4.609375,2.234375 0.890625,-0.078125 L1.171875,-0.4375 C5.375,1.65625 8.875,4.703125 11.140625,8.25 L11.140625,-1.921875 L11.40625,-1.921875 C12.1875,-1.921875 12.71875,-1.53125 12.71875,-1.390625 L12.71875,9.1875 L12.84375,9.1875 C14.734375,4.96875 18.03125,1.578125 21.546875,-0.265625 C21.796875,0.5 22.375,0.984375 23.046875,1.0625 L23.09375,1.296875 C19.46875,2.65625 15.578125,5.6875 13.421875,9.1875 L22.25,9.1875 C22.578125,9.1875 22.828125,9.3125 22.890625,9.578125 C22.015625,10.375 20.609375,11.421875 20.609375,11.421875 L19.421875,9.90625 L12.71875,9.90625 L12.71875,17.328125 C15.28125,17.609375 17.65625,17.96875 19.625,18.34375 C20.203125,18.078125 20.6875,18.078125 20.90625,18.265625 L19.125,20.015625 C15.28125,18.8125 8.015625,17.515625 2.109375,17.015625 L2.1875,16.5625 C5.109375,16.609375 8.203125,16.84375 11.140625,17.15625 L11.140625,9.90625 Z" transform="translate(0.0078125, 20.015625) scale(1, -1)"/>
</svg>