<svg height="21.609375" viewBox="0 0 24 21.609375" width="24" xmlns="http://www.w3.org/2000/svg">
<path d="M2.765625,13.984375 L2.765625,-1.828125 L3,-1.828125 C3.8125,-1.828125 4.3125,-1.4375 4.3125,-1.3125 L4.3125,0.078125 L19.609375,0.078125 L19.609375,-1.65625 L19.84375,-1.65625 C20.59375,-1.65625 21.21875,-1.265625 21.21875,-1.125 L21.21875,13.15625 C21.75,13.21875 22.015625,13.390625 22.203125,13.5625 L20.328125,15.046875 L19.515625,13.984375 L10.734375,13.984375 C11.359375,14.953125 12.125,16.34375 12.75,17.546875 L22.390625,17.546875 C22.734375,17.546875 22.96875,17.65625 23.046875,17.921875 C22.171875,18.703125 20.78125,19.78125 20.78125,19.78125 L19.5625,18.234375 L1.109375,18.234375 L1.3125,17.546875 L10.65625,17.546875 C10.46875,16.390625 10.203125,14.96875 9.984375,13.984375 L4.578125,13.984375 L2.765625,14.78125 Z M4.3125,0.796875 L4.3125,13.3125 L8.1875,13.3125 L8.1875,0.796875 Z M19.609375,0.796875 L15.671875,0.796875 L15.671875,13.3125 L19.609375,13.3125 Z M9.703125,13.3125 L14.15625,13.3125 L14.15625,9.671875 L9.703125,9.671875 Z M9.703125,8.96875 L14.15625,8.96875 L14.15625,5.28125 L9.703125,5.28125 Z M9.703125,4.5625 L14.15625,4.5625 L14.15625,0.796875 L9.703125,0.796875 Z" transform="translate(-0.078125, 19.78125) scale(1, -1)"/>
</svg>