<svg height="22.015625" viewBox="0 0 24 22.015625" width="24" xmlns="http://www.w3.org/2000/svg">
<path d="M11.96875,14.203125 L11.96875,10.421875 L6.078125,10.421875 L6.078125,14.203125 Z M13.3125,19.78125 C12.9375,18.3125 12.34375,16.25 11.921875,14.90625 L6.359375,14.90625 L6.21875,14.96875 C6.9375,16.15625 7.625,17.421875 8.234375,18.75 C8.78125,18.703125 9.078125,18.90625 9.1875,19.171875 L6.640625,20.140625 C5.234375,15.890625 2.828125,11.65625 0.71875,9.046875 L1.03125,8.8125 C2.234375,9.8125 3.40625,11.0625 4.484375,12.484375 L4.484375,-1.875 L4.75,-1.875 C5.546875,-1.875 6.078125,-1.46875 6.078125,-1.3125 L6.078125,0.234375 L22.375,0.234375 C22.703125,0.234375 22.921875,0.359375 22.984375,0.625 C22.171875,1.390625 20.828125,2.5 20.828125,2.5 L19.625,0.9375 L13.609375,0.9375 L13.609375,5.09375 L20.65625,5.09375 C21,5.09375 21.234375,5.203125 21.3125,5.46875 C20.5,6.1875 19.21875,7.25 19.21875,7.25 L18.125,5.765625 L13.609375,5.765625 L13.609375,9.71875 L20.5625,9.71875 C20.90625,9.71875 21.125,9.84375 21.1875,10.109375 C20.421875,10.84375 19.15625,11.90625 19.15625,11.90625 L18.03125,10.421875 L13.609375,10.421875 L13.609375,14.203125 L21.671875,14.203125 C22.015625,14.203125 22.25,14.328125 22.3125,14.59375 C21.5,15.359375 20.1875,16.421875 20.1875,16.421875 L19.03125,14.90625 L12.625,14.90625 C13.375,16.015625 14.296875,17.546875 14.953125,18.625 C15.453125,18.59375 15.765625,18.796875 15.859375,19.125 Z M11.96875,5.09375 L11.96875,0.9375 L6.078125,0.9375 L6.078125,5.09375 Z M11.96875,5.765625 L6.078125,5.765625 L6.078125,9.71875 L11.96875,9.71875 Z" transform="translate(0.1484375, 20.140625) scale(1, -1)"/>
</svg>