<svg height="21.828125" viewBox="0 0 24 21.828125" width="24" xmlns="http://www.w3.org/2000/svg">
<path d="M6.078125,18.546875 L6.078125,8.59375 L0.9375,8.59375 L1.15625,7.875 L6.078125,7.875 L6.078125,0.890625 C4.375,0.5 3,0.21875 2.140625,0.078125 L3.234375,-1.890625 C3.453125,-1.796875 3.640625,-1.578125 3.765625,-1.296875 C7.96875,0.125 11.015625,1.265625 13.265625,2.15625 L13.171875,2.515625 L7.625,1.21875 L7.625,7.875 L11.109375,7.875 C12.796875,2.8125 16.390625,0.046875 21.640625,-1.421875 C21.890625,-0.671875 22.390625,-0.1875 23.09375,-0.09375 L23.109375,0.171875 C20.109375,0.71875 17.46875,1.734375 15.40625,3.234375 C17.09375,4.109375 18.859375,5.203125 19.984375,6 C20.5,5.8125 20.6875,5.875 20.875,6.125 L18.890625,7.53125 C18,6.453125 16.375,4.84375 14.90625,3.625 C13.515625,4.75 12.390625,6.171875 11.609375,7.875 L22.375,7.875 C22.703125,7.875 22.96875,7.984375 23.015625,8.25 C22.171875,8.96875 20.875,9.953125 20.875,9.953125 L19.703125,8.59375 L7.625,8.59375 L7.625,11.234375 L18.625,11.234375 C18.953125,11.234375 19.203125,11.359375 19.265625,11.609375 C18.484375,12.3125 17.296875,13.25 17.296875,13.25 L16.25,11.921875 L7.625,11.921875 L7.625,14.5625 L18.625,14.5625 C18.953125,14.5625 19.203125,14.6875 19.265625,14.953125 C18.484375,15.640625 17.296875,16.578125 17.296875,16.578125 L16.25,15.265625 L7.625,15.265625 L7.625,17.859375 L19.796875,17.859375 C20.140625,17.859375 20.375,17.96875 20.421875,18.234375 C19.625,18.953125 18.3125,19.9375 18.3125,19.9375 L17.1875,18.546875 L8.15625,18.546875 L6.078125,19.4375 Z" transform="translate(-0.0234375, 19.9375) scale(1, -1)"/>
</svg>