<svg height="22.15625" viewBox="0 0 24 22.15625" width="24" xmlns="http://www.w3.org/2000/svg">
<path d="M7.5625,9.234375 L16.578125,9.234375 L16.578125,6.796875 L7.5625,6.796875 Z M7.5625,9.953125 L7.5625,12.3125 L16.578125,12.3125 L16.578125,9.953125 Z M12.578125,18.90625 C14.40625,16.171875 18.03125,13.609375 21.703125,12.046875 C21.84375,12.640625 22.390625,13.203125 23.109375,13.34375 L23.140625,13.703125 C19.21875,14.96875 15.234375,16.921875 13.015625,19.203125 C13.609375,19.265625 13.890625,19.375 13.9375,19.65625 L11.140625,20.28125 C9.8125,17.5 4.984375,13.484375 1.15625,11.609375 L1.34375,11.25 C2.875,11.859375 4.46875,12.671875 6,13.609375 L6,0.640625 C4.421875,0.40625 3.09375,0.21875 2.25,0.125 L3.390625,-1.875 C3.625,-1.796875 3.84375,-1.625 3.9375,-1.34375 C8.328125,-0.171875 11.5,0.765625 13.734375,1.484375 L13.625,1.890625 L7.5625,0.890625 L7.5625,6.078125 L11.59375,6.078125 C13.3125,1.75 16.6875,-0.625 21.578125,-1.875 C21.765625,-1.109375 22.265625,-0.578125 22.9375,-0.453125 L22.984375,-0.21875 C20.140625,0.234375 17.609375,1.078125 15.59375,2.375 C17.328125,3 19.15625,3.84375 20.25,4.515625 C20.78125,4.34375 20.96875,4.421875 21.171875,4.625 L19.171875,5.96875 C18.265625,5.0625 16.578125,3.703125 15.078125,2.734375 C13.84375,3.640625 12.859375,4.734375 12.140625,6.078125 L16.578125,6.078125 L16.578125,5.40625 L16.828125,5.40625 C17.375,5.40625 18.140625,5.78125 18.171875,5.953125 L18.171875,12.125 C18.546875,12.1875 18.890625,12.359375 19.015625,12.53125 L17.203125,13.890625 L16.375,13.03125 L12.8125,13.03125 L12.8125,15.09375 C13.34375,15.1875 13.5625,15.40625 13.609375,15.71875 L11.25,15.9375 L11.25,13.03125 L7.6875,13.03125 L6.171875,13.703125 C8.765625,15.3125 11.140625,17.203125 12.578125,18.90625 Z" transform="translate(-0.1484375, 20.28125) scale(1, -1)"/>
</svg>