<svg height="21.484375" viewBox="0 0 24 21.484375" width="24" xmlns="http://www.w3.org/2000/svg">
<path d="M19.75,19.6875 C18.140625,17.375 15.953125,15.265625 13.65625,13.75 L13.921875,13.375 C16.5625,14.546875 19.15625,16.296875 21.046875,18.171875 C21.578125,18.078125 21.765625,18.125 21.90625,18.359375 Z M20.25,13.4375 C18.53125,10.65625 16.171875,8.359375 13.484375,6.703125 L13.734375,6.28125 C16.78125,7.609375 19.578125,9.59375 21.59375,11.96875 C22.125,11.875 22.34375,11.953125 22.484375,12.1875 Z M20.921875,6.8125 C18.625,2.90625 15.53125,0.40625 11.734375,-1.390625 L11.953125,-1.796875 C16.21875,-0.390625 19.65625,1.875 22.265625,5.40625 C22.84375,5.296875 23.09375,5.40625 23.203125,5.609375 Z M8.96875,6.28125 L8.6875,6.125 C9.34375,5.375 10.078125,4.390625 10.625,3.359375 L4.0625,2.15625 C4.84375,3.703125 5.734375,5.828125 6.390625,7.6875 L13.21875,7.6875 C13.5625,7.6875 13.75,7.796875 13.828125,8.0625 C13.078125,8.78125 11.875,9.71875 11.875,9.71875 L10.78125,8.40625 L4.96875,8.40625 L4.96875,11.046875 L11.734375,11.046875 C12.046875,11.046875 12.234375,11.15625 12.3125,11.421875 C11.640625,12.078125 10.53125,12.953125 10.53125,12.953125 L9.546875,11.734375 L4.96875,11.734375 L4.96875,14.328125 L11.640625,14.328125 C11.96875,14.328125 12.171875,14.453125 12.234375,14.71875 C11.5625,15.359375 10.4375,16.25 10.4375,16.25 L9.453125,15.03125 L4.96875,15.03125 L4.96875,17.59375 L12.1875,17.59375 C12.53125,17.59375 12.75,17.71875 12.8125,17.96875 C12.09375,18.671875 10.84375,19.625 10.84375,19.625 L9.796875,18.28125 L5.25,18.28125 L3.40625,19.078125 L3.40625,8.40625 L0.90625,8.40625 L1.109375,7.6875 L4.515625,7.6875 C4.203125,5.90625 3.703125,3.59375 3.234375,2.046875 L0.9375,1.6875 L1.9375,-0.4375 C2.1875,-0.390625 2.40625,-0.171875 2.5,0.125 C6.125,1.25 8.859375,2.203125 10.875,2.921875 C11.203125,2.25 11.453125,1.578125 11.546875,0.953125 C13.203125,-0.390625 14.546875,3.484375 8.96875,6.28125 Z" transform="translate(-0.0546875, 19.6875) scale(1, -1)"/>
</svg>