<svg height="21.59375" viewBox="0 0 24 21.59375" width="24" xmlns="http://www.w3.org/2000/svg">
<path d="M20.453125,18.4375 C19.984375,17.71875 19.25,16.515625 18.671875,15.703125 C18.265625,15.796875 17.78125,15.859375 17.28125,15.90625 C17.15625,16.515625 17.09375,17.109375 17.0625,17.6875 C17.5,17.734375 17.828125,17.875 17.96875,18.046875 L16.15625,19.484375 L15.28125,18.53125 L2.234375,18.53125 L2.453125,17.859375 L15.546875,17.859375 C15.859375,13.796875 17.109375,10.265625 20.515625,8.859375 C21.5,8.40625 22.5625,8.1875 22.890625,8.8125 C23.09375,9.125 22.9375,9.4375 22.390625,9.90625 L22.578125,12.40625 L22.265625,12.453125 C22.078125,11.765625 21.8125,11.046875 21.625,10.515625 C21.484375,10.25 21.40625,10.21875 21.046875,10.34375 C18.953125,11.0625 17.828125,13.203125 17.359375,15.5 C18.59375,14.859375 20.0625,13.734375 20.640625,12.796875 C22.0625,12.234375 22.53125,14.5625 19.21875,15.546875 C19.96875,16.0625 20.828125,16.6875 21.359375,17.09375 C21.8125,16.96875 22.03125,17.046875 22.15625,17.234375 Z M20.09375,8.359375 C19.65625,7.609375 18.9375,6.4375 18.390625,5.59375 C18,5.65625 17.5625,5.765625 17.109375,5.8125 C16.96875,6.703125 16.890625,7.578125 16.875,8.46875 C17.296875,8.546875 17.609375,8.65625 17.78125,8.8125 L15.953125,10.296875 L15.09375,9.359375 L12.171875,9.359375 L12.171875,16.171875 C12.671875,16.25 12.859375,16.46875 12.90625,16.78125 L10.609375,17.046875 L10.609375,9.359375 L7.03125,9.359375 L7.03125,13.421875 C7.578125,13.515625 7.78125,13.75 7.84375,14.0625 L6.53125,14.203125 C7.390625,14.71875 8.140625,15.21875 8.71875,15.671875 C9.265625,15.578125 9.625,15.640625 9.796875,15.890625 L7.6875,16.96875 C6.484375,15.53125 3.8125,13.4375 1.484375,12.28125 L1.6875,11.953125 C2.953125,12.359375 4.265625,12.953125 5.46875,13.609375 L5.46875,9.359375 L0.9375,9.359375 L1.15625,8.65625 L5.46875,8.65625 C5.375,5.015625 4.625,1.15625 1.015625,-1.515625 L1.296875,-1.828125 C5.90625,0.671875 6.90625,4.84375 7.015625,8.65625 L10.609375,8.65625 L10.609375,-1.875 L10.890625,-1.875 C11.5,-1.875 12.171875,-1.484375 12.171875,-1.265625 L12.171875,8.65625 L15.34375,8.65625 C15.578125,3.9375 16.75,-0.03125 20.609375,-1.4375 C21.625,-1.890625 22.703125,-2.109375 23.046875,-1.484375 C23.1875,-1.171875 23.0625,-0.859375 22.515625,-0.390625 L22.6875,2.28125 L22.375,2.328125 C22.171875,1.53125 21.9375,0.8125 21.703125,0.234375 C21.59375,-0.046875 21.484375,-0.09375 21.09375,0.046875 C18.859375,0.796875 17.71875,2.921875 17.203125,5.359375 C18.5,4.625 20.015625,3.453125 20.640625,2.5 C22.109375,1.921875 22.53125,4.34375 18.953125,5.421875 L21.078125,7.0625 C21.578125,6.953125 21.765625,7.03125 21.859375,7.21875 Z" transform="translate(-0.0625, 19.484375) scale(1, -1)"/>
</svg>