<svg height="21.578125" viewBox="0 0 24 21.578125" width="24" xmlns="http://www.w3.org/2000/svg">
<path d="M16.015625,16.6875 C13.78125,15.84375 9.546875,14.859375 6.078125,14.453125 L6.171875,13.984375 C7.796875,14.015625 9.5,14.140625 11.109375,14.328125 L11.109375,11.640625 L8.453125,11.640625 L6.953125,12.3125 L6.953125,4.390625 L7.171875,4.390625 C7.734375,4.390625 8.328125,4.734375 8.328125,4.875 L8.328125,6 L11.109375,6 L11.109375,1.609375 C8.375,1.4375 6.09375,1.3125 4.796875,1.296875 L5.6875,-0.796875 C5.953125,-0.75 6.140625,-0.578125 6.3125,-0.265625 C10.65625,0.40625 13.921875,0.953125 16.390625,1.421875 C16.796875,0.71875 17.09375,0.03125 17.203125,-0.59375 C18.765625,-1.828125 20.046875,1.6875 14.65625,4.375 L14.375,4.171875 C14.921875,3.578125 15.546875,2.78125 16.078125,1.9375 L12.546875,1.703125 L12.546875,6 L15.4375,6 L15.4375,4.890625 L15.625,4.890625 C16.078125,4.890625 16.78125,5.234375 16.796875,5.375 L16.796875,10.796875 C17.15625,10.84375 17.5,11.015625 17.59375,11.1875 L15.984375,12.40625 L15.234375,11.640625 L12.546875,11.640625 L12.546875,14.5 C14.015625,14.6875 15.390625,14.90625 16.484375,15.140625 C17.015625,14.921875 17.421875,14.921875 17.640625,15.09375 Z M8.328125,6.71875 L8.328125,10.921875 L11.109375,10.921875 L11.109375,6.71875 Z M15.4375,6.71875 L12.546875,6.71875 L12.546875,10.921875 L15.4375,10.921875 Z M3.796875,18.40625 L3.796875,13.015625 C3.796875,8.140625 3.453125,2.78125 0.796875,-1.625 L1.15625,-1.875 C5.046875,2.5 5.328125,8.59375 5.328125,13.03125 L5.328125,17.71875 L18.546875,17.71875 C18.484375,10.53125 18.546875,2.375 20.875,-0.578125 C21.5,-1.515625 22.390625,-2.140625 23.046875,-1.6875 C23.359375,-1.46875 23.25,-0.90625 22.828125,0 L23.203125,3.9375 L22.9375,3.984375 C22.734375,3.125 22.46875,2.234375 22.171875,1.3125 C22.078125,0.984375 21.953125,0.953125 21.765625,1.203125 C20.0625,3.40625 19.921875,11.859375 20.15625,17.328125 C20.71875,17.40625 21.078125,17.59375 21.21875,17.765625 L19.25,19.4375 L18.28125,18.40625 L5.609375,18.40625 L3.796875,19.265625 Z" transform="translate(-0.078125, 19.4375) scale(1, -1)"/>
</svg>