<svg height="20.8125" viewBox="0 0 24 20.8125" width="24" xmlns="http://www.w3.org/2000/svg">
<path d="M13.578125,19.96875 L13.578125,-0.171875 L10.15625,-0.171875 L10.15625,19.015625 C10.734375,19.109375 10.921875,19.34375 10.984375,19.703125 L8.5625,19.96875 L8.5625,15.3125 L2.140625,15.3125 L2.359375,14.609375 L8.5625,14.609375 L8.5625,10.421875 L2.78125,10.421875 L3,9.703125 L8.5625,9.703125 L8.5625,5.109375 L2.109375,5.109375 L2.328125,4.390625 L8.5625,4.390625 L8.5625,-0.171875 L0.984375,-0.171875 L1.203125,-0.84375 L22.375,-0.84375 C22.734375,-0.84375 22.9375,-0.71875 23.015625,-0.484375 C22.15625,0.3125 20.765625,1.375 20.765625,1.375 L19.53125,-0.171875 L15.1875,-0.171875 L15.1875,4.390625 L21.40625,4.390625 C21.75,4.390625 21.953125,4.515625 22.03125,4.78125 C21.265625,5.515625 19.984375,6.5 19.984375,6.5 L18.890625,5.109375 L15.1875,5.109375 L15.1875,9.703125 L20.859375,9.703125 C21.171875,9.703125 21.40625,9.8125 21.453125,10.078125 C20.71875,10.78125 19.484375,11.765625 19.484375,11.765625 L18.4375,10.421875 L15.1875,10.421875 L15.1875,14.609375 L21.3125,14.609375 C21.640625,14.609375 21.859375,14.734375 21.90625,15 C21.140625,15.71875 19.84375,16.75 19.84375,16.75 L18.71875,15.3125 L15.1875,15.3125 L15.1875,19.015625 C15.75,19.109375 15.953125,19.34375 16.03125,19.703125 Z" transform="translate(0, 19.96875) scale(1, -1)"/>
</svg>