<svg height="21.953125" viewBox="0 0 24 21.953125" width="24" xmlns="http://www.w3.org/2000/svg">
<path d="M6.234375,5.328125 L13.0625,5.328125 L13.0625,2.828125 L6.234375,2.828125 Z M13.0625,7.9375 L13.0625,6.03125 L6.53125,6.03125 L4.6875,6.8125 L4.6875,2.828125 L1.015625,2.828125 L1.203125,2.140625 L13.0625,2.140625 L13.0625,-1.84375 L13.375,-1.84375 C13.9375,-1.84375 14.65625,-1.53125 14.65625,-1.375 L14.65625,2.140625 L22.46875,2.140625 C22.796875,2.140625 23.015625,2.25 23.09375,2.515625 C22.25,3.28125 20.90625,4.296875 20.90625,4.296875 L19.703125,2.828125 L14.65625,2.828125 L14.65625,5.328125 L20.609375,5.328125 C20.953125,5.328125 21.1875,5.453125 21.265625,5.6875 C20.453125,6.4375 19.203125,7.375 19.203125,7.375 L18.09375,6.03125 L14.65625,6.03125 L14.65625,7.171875 C15.125,7.21875 15.28125,7.4375 15.34375,7.6875 Z M16.484375,14.65625 L9.53125,14.65625 L10.109375,17.0625 L16.484375,17.0625 Z M9.171875,20.109375 L8.640625,17.78125 L4.015625,17.78125 L4.21875,17.0625 L8.46875,17.0625 L7.875,14.65625 L1.125,14.65625 L1.34375,13.9375 L22.3125,13.9375 C22.65625,13.9375 22.890625,14.0625 22.96875,14.328125 C22.15625,15.078125 20.875,16.0625 20.875,16.0625 L19.734375,14.65625 L18.03125,14.65625 L18.03125,16.78125 C18.5,16.890625 18.890625,17.09375 19.0625,17.28125 L17.140625,18.703125 L16.25,17.78125 L10.265625,17.78125 L10.609375,19.21875 C11.09375,19.25 11.375,19.484375 11.453125,19.796875 Z M17.609375,11.546875 L17.609375,9.265625 L6.484375,9.265625 L6.484375,11.546875 Z M4.9375,12.234375 L4.9375,7.53125 L5.1875,7.53125 C5.8125,7.53125 6.484375,7.875 6.484375,8.015625 L6.484375,8.5625 L17.609375,8.5625 L17.609375,7.75 L17.859375,7.75 C18.359375,7.75 19.15625,8.109375 19.171875,8.25 L19.171875,11.296875 C19.609375,11.375 19.96875,11.5625 20.09375,11.734375 L18.21875,13.125 L17.40625,12.234375 L6.640625,12.234375 L4.9375,12.984375 Z" transform="translate(-0.0546875, 20.109375) scale(1, -1)"/>
</svg>