<svg height="21.9375" viewBox="0 0 24 21.9375" width="24" xmlns="http://www.w3.org/2000/svg">
<path d="M9.765625,12.625 L9.53125,12.40625 C10.203125,11.875 11.109375,10.875 11.40625,10.125 C12.671875,9.34375 13.609375,11.859375 9.765625,12.625 Z M5.953125,8.28125 L5.71875,8.109375 C6.359375,7.515625 7.15625,6.5 7.34375,5.71875 C8.609375,4.875 9.640625,7.296875 5.953125,8.28125 Z M10.609375,4.3125 L10.375,4.109375 C11.15625,3.5 12.078125,2.359375 12.3125,1.4375 C13.6875,0.53125 14.71875,3.28125 10.609375,4.3125 Z M15.34375,8.640625 L15.078125,8.453125 C15.859375,7.875 16.78125,6.8125 17.046875,5.953125 C18.390625,5.15625 19.3125,7.78125 15.34375,8.640625 Z M3.3125,13.921875 L3.3125,-1.84375 L3.578125,-1.84375 C4.25,-1.84375 4.84375,-1.4375 4.84375,-1.25 L4.84375,-0.234375 L19.203125,-0.234375 L19.203125,-1.703125 L19.4375,-1.703125 C19.96875,-1.703125 20.734375,-1.296875 20.765625,-1.125 L20.765625,12.9375 C21.234375,13.03125 21.625,13.21875 21.765625,13.421875 L19.84375,14.921875 L18.953125,13.921875 L12.265625,13.921875 L12.265625,16.46875 L21.390625,16.46875 C21.703125,16.46875 21.953125,16.578125 22.03125,16.84375 C21.1875,17.59375 19.828125,18.640625 19.828125,18.640625 L18.640625,17.15625 L12.265625,17.15625 L12.265625,19.203125 C12.859375,19.265625 13.109375,19.515625 13.15625,19.84375 L10.6875,20.09375 L10.6875,13.921875 L5.015625,13.921875 L3.3125,14.734375 Z M15.234375,12.71875 C14.5,11.203125 13.4375,9.546875 12.140625,7.9375 C10.75,8.875 9,9.859375 6.8125,10.890625 L6.546875,10.609375 C7.984375,9.671875 9.75,8.40625 11.375,7.03125 C9.765625,5.15625 7.875,3.40625 5.875,2.0625 L6.140625,1.75 C8.375,2.96875 10.421875,4.609375 12.140625,6.359375 C13.796875,4.921875 15.21875,3.4375 15.953125,2.203125 C17.515625,1.421875 17.921875,3.796875 13.078125,7.3125 C14.40625,8.765625 15.5,10.21875 16.3125,11.5625 C16.875,11.453125 17.09375,11.5625 17.234375,11.828125 Z M19.203125,13.25 L19.203125,0.484375 L4.84375,0.484375 L4.84375,13.25 Z" transform="translate(-0.671875, 20.09375) scale(1, -1)"/>
</svg>