<svg height="21.96875" viewBox="0 0 24 21.96875" width="24" xmlns="http://www.w3.org/2000/svg">
<path d="M3.71875,19.609375 L3.453125,19.4375 C4.390625,18.484375 5.546875,16.875 5.828125,15.625 C7.46875,14.46875 8.765625,17.859375 3.71875,19.609375 Z M14.921875,8.640625 L14.921875,0.953125 L15.1875,0.953125 C15.671875,0.953125 16.25,1.21875 16.25,1.390625 L16.25,7.78125 C16.796875,7.875 17.015625,8.09375 17.046875,8.40625 Z M7.625,8.59375 L7.625,6.1875 C7.625,4.46875 7.515625,2.140625 6.53125,0.484375 L6.890625,0.1875 C8.640625,1.84375 8.921875,4.390625 8.953125,6.140625 L8.953125,7.75 C9.5,7.828125 9.703125,8.0625 9.71875,8.359375 Z M1.015625,15.140625 L1.21875,14.453125 L11.15625,14.453125 L11.15625,10.46875 L5.5,10.46875 L4.984375,10.703125 C6.1875,11.40625 7.21875,12.171875 7.96875,12.859375 C8.5,12.75 8.71875,12.8125 8.875,13.0625 L6.84375,14.25 C5.609375,12.59375 3.125,10.46875 0.796875,9.21875 L1.015625,8.90625 C1.96875,9.21875 2.90625,9.625 3.8125,10.078125 L3.8125,-1.828125 L4.0625,-1.828125 C4.734375,-1.828125 5.359375,-1.4375 5.359375,-1.265625 L5.359375,9.765625 L11.15625,9.765625 L11.15625,-1.609375 L11.40625,-1.609375 C12.1875,-1.609375 12.703125,-1.21875 12.703125,-1.109375 L12.703125,9.765625 L18.59375,9.765625 L18.59375,0.390625 C18.59375,0.046875 18.484375,-0.09375 18.046875,-0.09375 C17.546875,-0.09375 15.3125,0.078125 15.3125,0.078125 L15.3125,-0.3125 C16.3125,-0.40625 16.890625,-0.625 17.234375,-0.84375 C17.5625,-1.0625 17.65625,-1.421875 17.734375,-1.875 C19.921875,-1.6875 20.15625,-0.9375 20.15625,0.234375 L20.15625,9.484375 C20.421875,9.53125 20.640625,9.59375 20.828125,9.671875 C21.078125,9.4375 21.265625,9.21875 21.40625,9 C23.28125,8.109375 24.359375,12 15.671875,13.796875 L15.5,13.46875 C16.828125,12.796875 18.03125,12.03125 19.03125,11.25 L18.359375,10.46875 L12.703125,10.46875 L12.703125,14.453125 L22.34375,14.453125 C22.703125,14.453125 22.9375,14.5625 22.984375,14.828125 C22.15625,15.578125 20.8125,16.609375 20.8125,16.609375 L19.625,15.140625 L16.625,15.140625 C17.734375,16.171875 18.90625,17.453125 19.65625,18.4375 C20.140625,18.359375 20.453125,18.53125 20.5625,18.796875 L18.234375,19.6875 C17.71875,18.34375 16.796875,16.484375 15.984375,15.140625 L14.90625,15.140625 L14.90625,19.25 C15.4375,19.34375 15.625,19.5625 15.671875,19.875 L13.375,20.09375 L13.375,15.140625 L10.5625,15.140625 L10.5625,19.25 C11.0625,19.34375 11.28125,19.5625 11.328125,19.875 L9.03125,20.09375 L9.03125,15.140625 Z" transform="translate(-0.578125, 20.09375) scale(1, -1)"/>
</svg>