<svg height="22.234375" viewBox="0 0 24 22.234375" width="24" xmlns="http://www.w3.org/2000/svg">
<path d="M6.625,8.546875 L6.390625,8.296875 C7.25,7.78125 8.28125,6.84375 8.59375,6.078125 C9.953125,5.296875 10.828125,7.890625 6.625,8.546875 Z M6.453125,5.28125 L6.21875,5.0625 C7.078125,4.46875 8.09375,3.390625 8.40625,2.515625 C9.71875,1.65625 10.703125,4.296875 6.453125,5.28125 Z M13.703125,8.5625 L13.484375,8.328125 C14.375,7.796875 15.4375,6.8125 15.796875,6 C17.15625,5.234375 18.046875,7.890625 13.703125,8.5625 Z M13.5625,5.359375 L13.3125,5.109375 C14.234375,4.515625 15.390625,3.40625 15.765625,2.515625 C17.1875,1.6875 18.125,4.46875 13.5625,5.359375 Z M17.828125,9.765625 C17.921875,5.40625 18.140625,0.1875 20.90625,-1.4375 C21.640625,-1.875 22.609375,-2.09375 22.9375,-1.484375 C23.140625,-1.21875 22.921875,-0.75 22.515625,-0.34375 L22.78125,1.875 L22.46875,1.9375 C22.3125,1.421875 22.0625,0.703125 21.8125,0.3125 C21.703125,0.078125 21.59375,0.078125 21.40625,0.21875 C19.625,1.390625 19.46875,5.875 19.46875,8.90625 C19.921875,9 20.109375,9.234375 20.15625,9.546875 Z M9.765625,20.140625 C8.828125,19.578125 7.171875,18.765625 5.640625,18.140625 L3.765625,18.84375 L3.765625,9.90625 L3.953125,9.90625 C4.796875,9.90625 5.25,10.296875 5.28125,10.421875 L5.28125,10.96875 L18.4375,10.96875 L18.4375,10.078125 L18.671875,10.078125 C19.171875,10.078125 19.96875,10.4375 19.984375,10.578125 L19.984375,17.421875 C20.453125,17.515625 20.828125,17.71875 20.96875,17.90625 L19.078125,19.375 L18.1875,18.40625 L12.640625,18.40625 L12.859375,17.71875 L18.4375,17.71875 L18.4375,15.078125 L13.15625,15.078125 L13.375,14.359375 L18.4375,14.359375 L18.4375,11.65625 L5.28125,11.65625 L5.28125,14.359375 L11.0625,14.359375 C11.40625,14.359375 11.609375,14.46875 11.6875,14.734375 C10.96875,15.40625 9.796875,16.34375 9.796875,16.34375 L8.78125,15.046875 L5.28125,15.046875 L5.28125,17.40625 C7.078125,17.734375 9.078125,18.265625 10.34375,18.703125 C10.875,18.53125 11.25,18.53125 11.46875,18.71875 Z M1.0625,0.078125 L2.1875,-1.84375 C2.421875,-1.78125 2.59375,-1.625 2.71875,-1.3125 C5.828125,-0.4375 8.046875,0.28125 9.546875,0.84375 L9.5,1.171875 L5.6875,0.640625 L5.6875,8.90625 C6.171875,8.96875 6.359375,9.1875 6.40625,9.484375 L4.171875,9.71875 L4.171875,0.453125 C2.859375,0.265625 1.78125,0.140625 1.0625,0.078125 Z M9.140625,0.03125 L10.265625,-1.84375 C10.46875,-1.78125 10.6875,-1.609375 10.78125,-1.296875 C14.109375,-0.359375 16.484375,0.40625 18.140625,0.953125 L18.078125,1.34375 L12.671875,0.5 L12.671875,8.875 C13.171875,8.921875 13.375,9.140625 13.421875,9.4375 L11.203125,9.671875 L11.203125,0.28125 Z" transform="translate(-0.1015625, 20.140625) scale(1, -1)"/>
</svg>