<svg height="20.875" viewBox="0 0 24 20.875" width="24" xmlns="http://www.w3.org/2000/svg">
<path d="M2.765625,11.28125 L2.765625,0.90625 L3,0.90625 C3.671875,0.90625 4.296875,1.25 4.296875,1.421875 L4.296875,3.234375 L9.171875,3.234375 L9.171875,0.953125 C9.171875,-0.765625 10.03125,-1.25 12.578125,-1.25 L16.53125,-1.25 C22.109375,-1.25 23.203125,-1.0625 23.203125,-0.21875 C23.203125,0.125 23.046875,0.28125 22.375,0.484375 L22.265625,3 L21.953125,3 C21.640625,1.75 21.359375,0.8125 21.125,0.5 C20.953125,0.34375 20.765625,0.265625 20.375,0.21875 C19.828125,0.171875 18.453125,0.140625 16.625,0.140625 L12.625,0.140625 C10.9375,0.140625 10.65625,0.4375 10.65625,1.25 L10.65625,17.96875 L13.15625,17.96875 L13.15625,1.53125 L13.390625,1.53125 C14.140625,1.53125 14.640625,1.890625 14.640625,2.015625 L14.640625,3.234375 L19.609375,3.234375 L19.609375,2.15625 L19.84375,2.15625 C20.375,2.15625 21.140625,2.546875 21.171875,2.6875 L21.171875,10.3125 C21.625,10.390625 22.015625,10.578125 22.171875,10.78125 L20.25,12.21875 L19.390625,11.28125 L14.640625,11.28125 L14.640625,13.921875 L18.71875,13.921875 L18.71875,12.984375 L18.953125,12.984375 C19.46875,12.984375 20.234375,13.3125 20.25,13.484375 L20.25,17.6875 C20.71875,17.78125 21.125,17.96875 21.28125,18.171875 L19.34375,19.625 L18.484375,18.671875 L5.296875,18.671875 L3.625,19.46875 L3.625,12.71875 L3.84375,12.71875 C4.46875,12.71875 5.140625,13.078125 5.140625,13.21875 L5.140625,13.921875 L9.171875,13.921875 L9.171875,11.28125 L4.421875,11.28125 L2.765625,12.046875 Z M9.171875,14.640625 L5.140625,14.640625 L5.140625,17.96875 L9.171875,17.96875 Z M14.640625,14.640625 L14.640625,17.96875 L18.71875,17.96875 L18.71875,14.640625 Z M14.640625,6.9375 L19.609375,6.9375 L19.609375,3.9375 L14.640625,3.9375 Z M14.640625,7.625 L14.640625,10.578125 L19.609375,10.578125 L19.609375,7.625 Z M9.171875,6.9375 L9.171875,3.9375 L4.296875,3.9375 L4.296875,6.9375 Z M9.171875,7.625 L4.296875,7.625 L4.296875,10.578125 L9.171875,10.578125 Z" transform="translate(-0.984375, 19.625) scale(1, -1)"/>
</svg>