<svg height="22.359375" viewBox="0 0 24 22.359375" width="24" xmlns="http://www.w3.org/2000/svg">
<path d="M7.84375,5.28125 L7.84375,3.390625 L7.84375,3.1875 L1.171875,3.1875 L1.375,2.46875 L7.75,2.46875 C7.375,0.90625 5.875,-0.546875 1.515625,-1.46875 L1.703125,-1.84375 C7.21875,-0.984375 8.859375,0.71875 9.265625,2.46875 L14.65625,2.46875 L14.65625,-1.9375 L14.953125,-1.9375 C15.5,-1.9375 16.171875,-1.6875 16.171875,-1.53125 L16.171875,2.46875 L22.4375,2.46875 C22.75,2.46875 22.984375,2.59375 23.046875,2.859375 C22.265625,3.59375 21.03125,4.5625 21.03125,4.5625 L19.875,3.1875 L16.171875,3.1875 L16.171875,4.46875 C16.703125,4.5625 16.921875,4.75 16.9375,5.0625 L14.65625,5.296875 L14.65625,3.1875 L9.390625,3.1875 L9.390625,3.3125 L9.390625,4.4375 C9.9375,4.515625 10.109375,4.734375 10.15625,5.046875 Z M6.984375,15.859375 L17.046875,15.859375 L17.046875,14.5625 L6.984375,14.5625 Z M6.984375,16.5625 L6.984375,17.859375 L17.046875,17.859375 L17.046875,16.5625 Z M6.984375,13.84375 L17.046875,13.84375 L17.046875,12.546875 L6.984375,12.546875 Z M11.15625,20.421875 L10.609375,18.546875 L7.109375,18.546875 L5.421875,19.296875 L5.421875,10.984375 L5.65625,10.984375 C6.28125,10.984375 6.984375,11.359375 6.984375,11.515625 L6.984375,11.859375 L17.046875,11.859375 L17.046875,11.15625 L17.28125,11.15625 C17.8125,11.15625 18.578125,11.546875 18.59375,11.71875 L18.59375,17.5625 C19.078125,17.65625 19.4375,17.859375 19.609375,18.046875 L17.6875,19.515625 L16.796875,18.546875 L11.734375,18.546875 C12.125,18.8125 12.53125,19.109375 12.8125,19.34375 C13.34375,19.3125 13.6875,19.515625 13.78125,19.84375 Z M4.9375,7.65625 L11.25,7.65625 L11.25,6.234375 L4.9375,6.234375 Z M4.9375,8.359375 L4.9375,9.75 L11.25,9.75 L11.25,8.359375 Z M18.9375,7.65625 L18.9375,6.234375 L12.765625,6.234375 L12.765625,7.65625 Z M18.9375,8.359375 L12.765625,8.359375 L12.765625,9.75 L18.9375,9.75 Z M3.40625,10.4375 L3.40625,4.484375 L3.640625,4.484375 C4.265625,4.484375 4.9375,4.84375 4.9375,4.96875 L4.9375,5.546875 L18.9375,5.546875 L18.9375,4.84375 L19.15625,4.84375 C19.65625,4.84375 20.453125,5.15625 20.46875,5.328125 L20.46875,9.453125 C20.921875,9.546875 21.328125,9.75 21.5,9.9375 L19.5625,11.40625 L18.703125,10.4375 L5.109375,10.4375 L3.40625,11.234375 Z" transform="translate(-0.109375, 20.421875) scale(1, -1)"/>
</svg>