<svg height="21.96875" viewBox="0 0 24 21.96875" width="24" xmlns="http://www.w3.org/2000/svg">
<path d="M11.203125,13.75 L11.203125,8.1875 L11.46875,8.1875 C12.03125,8.1875 12.671875,8.46875 12.671875,8.640625 L12.671875,13.015625 C13.125,13.078125 13.3125,13.265625 13.34375,13.53125 L12.9375,13.578125 C13.734375,14.28125 14.5,15.140625 15,15.890625 C15.484375,15.859375 15.796875,16.078125 15.890625,16.34375 L13.84375,16.921875 L22.3125,16.921875 C22.65625,16.921875 22.890625,17.046875 22.96875,17.296875 C22.15625,18.078125 20.859375,19.109375 20.859375,19.109375 L19.6875,17.640625 L12.75,17.640625 L12.75,19.25 C13.34375,19.3125 13.5625,19.5625 13.609375,19.890625 L11.15625,20.140625 L11.15625,17.640625 L1.0625,17.640625 L1.265625,16.921875 L13.75,16.921875 C13.4375,15.90625 12.859375,14.59375 12.3125,13.625 Z M9.28125,16.921875 L9,16.78125 C9.625,16.0625 10.3125,14.90625 10.4375,13.96875 C11.71875,13.015625 12.90625,15.5 9.28125,16.921875 Z M17.46875,5.8125 L17.46875,3.390625 L6.84375,3.390625 C6.953125,3.953125 7.015625,4.515625 7.015625,5.0625 L7.015625,5.8125 Z M5.453125,8.1875 L5.453125,5.109375 C5.453125,2.8125 4.875,0.21875 1.875,-1.515625 L2.15625,-1.828125 C4.9375,-0.703125 6.171875,0.953125 6.671875,2.6875 L17.46875,2.6875 L17.46875,-1.828125 L17.78125,-1.828125 C18.359375,-1.828125 19.0625,-1.484375 19.0625,-1.296875 L19.0625,7.390625 C19.515625,7.46875 19.6875,7.6875 19.734375,7.9375 L17.46875,8.203125 L17.46875,6.5 L7.015625,6.5 L7.015625,7.3125 C7.578125,7.390625 7.734375,7.625 7.796875,7.921875 Z M1.46875,15 L1.6875,14.296875 L4.25,14.296875 C4.015625,12.265625 3.34375,10.03125 1.078125,8.234375 L1.421875,7.921875 C4.5625,9.625 5.359375,11.921875 5.6875,14.296875 L7.703125,14.296875 C7.625,11.90625 7.515625,10.84375 7.21875,10.578125 C7.109375,10.46875 6.953125,10.4375 6.671875,10.4375 C6.3125,10.4375 5.5,10.515625 4.9375,10.53125 L4.9375,10.125 C5.40625,10.03125 5.875,9.90625 6.09375,9.71875 C6.34375,9.53125 6.390625,9.125 6.390625,8.78125 C7.0625,8.765625 7.625,8.953125 8.09375,9.28125 C8.734375,9.84375 8.953125,11.09375 9.03125,14.15625 C9.484375,14.234375 9.75,14.328125 9.890625,14.5 L8.25,15.8125 L7.484375,15 Z M13.65625,10.3125 L14.515625,8.6875 C14.765625,8.765625 14.921875,8.90625 15.046875,9.21875 C17.15625,9.890625 18.75,10.4375 19.84375,10.796875 L19.78125,11.1875 L16.734375,10.734375 L16.734375,13.96875 C17.40625,14.015625 18.078125,14.109375 18.71875,14.234375 C19.265625,11.71875 20.359375,9.796875 22.109375,8.5 C22.3125,9.171875 22.734375,9.625 23.28125,9.71875 L23.328125,9.953125 C21.5,10.78125 19.984375,12.3125 19.25,14.296875 C19.890625,14.453125 20.515625,14.5625 21,14.71875 C21.5,14.515625 21.890625,14.5 22.078125,14.6875 L20.515625,16.15625 C19.75,15.671875 18.40625,15.09375 17.046875,14.6875 L15.34375,15.140625 L15.34375,10.53125 Z" transform="translate(-0.1953125, 20.140625) scale(1, -1)"/>
</svg>