<svg height="19.453125" viewBox="0 0 24 19.453125" width="24" xmlns="http://www.w3.org/2000/svg">
<path d="M21.859375,11.234375 C22.3125,11.28125 22.484375,11.6875 22.46875,12.171875 C22.390625,13.6875 20.65625,15.265625 18.8125,15.625 C17.765625,15.8125 16.828125,15.75 15.625,15.5 L15.671875,14.875 C17.359375,15 19.203125,14.828125 20.15625,13.484375 C20.421875,13.109375 20.40625,12.90625 20.140625,12.625 C19.796875,12.28125 18.703125,11.609375 18.21875,11.296875 L18.484375,10.875 C18.984375,11.109375 19.921875,11.546875 20.328125,11.59375 C21.09375,11.734375 21.3125,11.109375 21.859375,11.234375 Z M5.765625,10.96875 C6.453125,10.96875 7.53125,11.1875 8.40625,11.40625 L8.40625,8.15625 L8.40625,6.765625 C6.796875,5.859375 4.921875,4.390625 4.03125,3.859375 C3.625,3.625 3.3125,3.5 2.65625,3.59375 C2.140625,3.640625 1.984375,3.453125 1.984375,2.90625 C1.984375,2.546875 2.109375,2.234375 2.421875,1.921875 C2.65625,1.6875 2.921875,1.515625 3.1875,1.515625 C3.53125,1.515625 3.84375,1.703125 4.5625,2.375 C5.453125,1.796875 6.59375,0.9375 7.125,0.484375 C7.890625,-0.21875 7.9375,-0.953125 8.5,-0.953125 C9.21875,-0.953125 9.859375,0.140625 9.859375,1.21875 C9.859375,2.09375 9.59375,2.96875 9.5,6.234375 C11.40625,7.3125 13.625,8.328125 15.625,8.328125 C18.1875,8.328125 19.34375,6.9375 19.34375,5.140625 C19.34375,3.234375 18.03125,1.734375 15.640625,1.734375 C14.015625,1.734375 12.8125,2.40625 11.859375,3.171875 L11.46875,2.78125 C12.71875,1.125 14.28125,0.390625 15.984375,0.390625 C19.015625,0.390625 20.859375,2.375 20.859375,4.828125 C20.859375,7.484375 18.890625,9.21875 16.125,9.21875 C13.703125,9.21875 11.5,8.40625 9.484375,7.375 L9.484375,8.40625 C9.484375,9.5 9.5,10.65625 9.578125,11.734375 C10.734375,12.09375 12.234375,12.59375 13.125,13.0625 C13.625,13.296875 13.890625,13.578125 13.890625,13.984375 C13.875,14.515625 13.21875,14.609375 12.8125,14.609375 C12.3125,14.59375 11.515625,13.796875 9.640625,13.125 C9.71875,14.140625 9.8125,14.953125 9.9375,15.453125 C10.109375,16.21875 10.46875,16.578125 10.46875,17.15625 C10.46875,17.734375 8.921875,18.5 8.015625,18.5 C7.421875,18.5 6.84375,18.3125 6.34375,18.046875 L6.40625,17.59375 C7.03125,17.59375 7.515625,17.5625 7.921875,17.421875 C8.296875,17.296875 8.40625,17.203125 8.40625,16.6875 L8.40625,12.71875 C7.4375,12.453125 6.53125,12.3125 5.859375,12.28125 C4.578125,12.234375 4.21875,12.484375 3,13.6875 L2.59375,13.375 C3.578125,11.1875 4.578125,10.96875 5.765625,10.96875 Z M8.40625,5.5625 L8.40625,1.890625 C8.40625,1.4375 8.234375,1.25 7.734375,1.46875 C6.984375,1.796875 5.90625,2.359375 5.015625,2.8125 C6.03125,3.75 7.25,4.796875 8.40625,5.5625 Z" transform="translate(-0.234375, 18.5) scale(1, -1)"/>
</svg>