<svg height="19.90625" viewBox="0 0 24 19.90625" width="24" xmlns="http://www.w3.org/2000/svg">
<path d="M7.25,13.578125 C7.9375,13.578125 8.71875,13.625 9.4375,13.703125 C9.265625,12.59375 9.09375,11.375 8.96875,10.265625 C6.21875,8.828125 3.078125,5.96875 3.078125,2.828125 C3.078125,1.5625 3.671875,0.953125 4.75,0.953125 C6.1875,0.953125 7.9375,1.75 9.671875,3.234375 C9.953125,2.515625 10.34375,2.046875 10.78125,2.046875 C11.1875,2.046875 11.5,2.234375 11.5,2.6875 C11.5,3.1875 11.203125,3.71875 10.890625,4.421875 C12.890625,6.453125 14.640625,8.96875 15.5,10.84375 C18.21875,10.484375 19.828125,8.5 19.84375,6.1875 C19.84375,2.453125 16.203125,0.28125 10.34375,-0.484375 L10.4375,-1.015625 C16.703125,-0.859375 21.484375,1.21875 21.484375,5.765625 C21.484375,8.453125 19.4375,11.140625 15.765625,11.5625 C15.84375,11.90625 15.796875,12.140625 15.578125,12.40625 C15.09375,12.9375 14.359375,13.21875 13.484375,13.4375 L13.25,13.03125 C14.140625,12.546875 14.515625,12.234375 14.453125,11.640625 C12.859375,11.609375 11.359375,11.28125 10.171875,10.828125 C10.296875,11.828125 10.484375,12.90625 10.6875,13.875 C13.265625,14.28125 16.109375,15.125 17.109375,15.546875 C17.546875,15.75 17.65625,15.9375 17.65625,16.25 C17.65625,16.65625 17.203125,16.921875 16.390625,16.921875 C15.953125,16.921875 14.28125,15.796875 10.96875,15.140625 L11.234375,16.203125 C11.453125,17.046875 11.875,17.109375 11.875,17.609375 C11.875,18.078125 10.65625,18.890625 9.28125,18.890625 C9,18.890625 8.5,18.765625 8.09375,18.671875 L8.0625,18.171875 C8.5625,18.125 9.046875,18.046875 9.484375,17.90625 C9.8125,17.765625 9.90625,17.65625 9.90625,17.25 C9.90625,16.84375 9.796875,15.984375 9.625,14.921875 C8.90625,14.828125 8.15625,14.78125 7.421875,14.78125 C6.21875,14.78125 5.453125,14.96875 4.171875,16.015625 L3.796875,15.625 C4.828125,14.046875 5.6875,13.578125 7.25,13.578125 Z M14.234375,10.921875 C13.5625,9.359375 12,7.203125 10.46875,5.5625 C10.21875,6.359375 10.03125,7.34375 10.03125,8.65625 L10.078125,9.890625 C11.46875,10.53125 12.75,10.875 14.234375,10.921875 Z M9.3125,4.46875 C7.984375,3.34375 6.390625,2.453125 5.1875,2.453125 C4.609375,2.453125 4.375,2.71875 4.375,3.359375 C4.375,5.015625 6.171875,7.5625 8.90625,9.265625 L8.875,8.375 C8.875,7.109375 9.03125,5.640625 9.3125,4.46875 Z" transform="translate(-0.28125, 18.890625) scale(1, -1)"/>
</svg>