<svg height="18.78125" viewBox="0 0 24 18.78125" width="24" xmlns="http://www.w3.org/2000/svg">
<path d="M21.328125,4.9375 C22.03125,4.96875 22.34375,5.765625 22.34375,6.71875 C22.34375,8.5625 21.75,10.15625 20.859375,11.109375 C19.890625,12.1875 18.703125,12.8125 16.75,13.109375 L16.46875,12.53125 C18.03125,12.234375 18.984375,11.59375 19.65625,10.65625 C20.375,9.640625 20.59375,8.59375 20.640625,7.96875 C20.65625,7.34375 20.59375,7.125 20.09375,6.9375 C19.4375,6.703125 17.90625,6.390625 17.015625,6.21875 L17.15625,5.640625 C17.96875,5.734375 19.484375,5.859375 19.984375,5.765625 C20.6875,5.609375 20.640625,4.9375 21.328125,4.9375 Z M9.703125,-0.234375 C10.921875,-0.234375 11.90625,0.359375 12.59375,1.265625 C14.015625,3.046875 14.875,6.40625 14.875,9.3125 C14.875,12.140625 13.84375,13.125 12.046875,13.125 C11.5,13.125 10.703125,13.03125 10.0625,12.90625 L11.109375,15.453125 C11.375,16.0625 11.859375,16.3125 11.859375,16.84375 C11.859375,17.453125 10.078125,18.28125 9.09375,18.28125 C8.453125,18.28125 7.9375,18.140625 7.53125,17.96875 L7.53125,17.46875 C8.109375,17.421875 9,17.296875 9.359375,17.109375 C9.671875,16.96875 9.75,16.78125 9.75,16.484375 C9.75,16.03125 9.21875,14.46875 8.5,12.625 C6.71875,12.234375 4.5625,11.65625 3.796875,11.65625 C3.09375,11.65625 2.921875,12.4375 2.65625,13.078125 L2.1875,13.015625 C2.0625,12.546875 2.046875,12 2.140625,11.609375 C2.328125,10.84375 3.21875,9.9375 3.84375,9.9375 C4.4375,9.9375 4.78125,10.203125 5.8125,10.609375 C6.28125,10.796875 7.109375,11.09375 7.984375,11.375 C7.421875,9.984375 6.765625,8.5625 6.1875,7.421875 C4.828125,4.828125 3.765625,3.1875 2.453125,1.484375 C2.140625,1.078125 2.0625,0.796875 2.0625,0.390625 C2.0625,-0.171875 2.453125,-0.5 2.78125,-0.5 C3.140625,-0.5 3.40625,-0.34375 3.765625,0.234375 C4.796875,1.75 6,4.109375 7.3125,6.765625 C8.09375,8.375 8.90625,10.203125 9.59375,11.8125 C10.421875,12.03125 11.203125,12.171875 11.765625,12.171875 C13.109375,12.171875 13.515625,11.421875 13.515625,9.671875 C13.515625,6.9375 12.625,4.015625 11.828125,2.78125 C11.203125,1.796875 10.65625,1.53125 9.90625,1.53125 C9.359375,1.53125 8.28125,2.1875 7.03125,2.96875 L6.75,2.59375 C8.09375,1.4375 8.25,1.15625 8.421875,0.796875 C8.734375,0.09375 8.90625,-0.234375 9.703125,-0.234375 Z" transform="translate(-0.1953125, 18.28125) scale(1, -1)"/>
</svg>