<svg height="20.90625" viewBox="0 0 24 20.90625" width="24" xmlns="http://www.w3.org/2000/svg">
<path d="M7.375,-0.953125 L7.5625,-1.515625 C14.046875,-0.5 18.171875,2.453125 18.171875,7.75 C18.171875,10.9375 16.484375,12.90625 13.96875,12.90625 C11.40625,12.90625 8.25,10.96875 7.203125,10.96875 C6.640625,10.96875 6.21875,11.5 5.828125,12.484375 L5.40625,12.34375 C5.328125,11.6875 5.25,11.203125 5.5,10.6875 C5.765625,10.03125 6.640625,9.09375 7.4375,9.09375 C8.046875,9.09375 8.46875,9.578125 9,9.9375 C9.90625,10.53125 12.21875,12.03125 13.828125,12.03125 C15.3125,12.03125 16.4375,10.609375 16.4375,8.046875 C16.4375,3.28125 13.203125,0.453125 7.375,-0.953125 Z M9.1875,15.234375 L9.40625,14.78125 C10.578125,15.265625 12.578125,16.078125 13.78125,16.421875 C14.46875,16.609375 15.125,16.625 15.5,16.65625 C16.03125,16.6875 16.3125,16.84375 16.3125,17.15625 C16.3125,17.8125 15.3125,18.1875 14.453125,18.1875 C14.046875,18.1875 13.21875,18 12.53125,18 C11.15625,18 9.703125,18.234375 7.984375,19.390625 L7.703125,19.015625 C9.1875,17.1875 11.203125,16.96875 11.96875,16.84375 C11.296875,16.390625 10.203125,15.796875 9.1875,15.234375 Z" transform="translate(0.2890625, 19.390625) scale(1, -1)"/>
</svg>