<svg height="24" viewBox="0 0 24 24" width="24" xmlns="http://www.w3.org/2000/svg">
<path d="M8.25,0.9375 C9.234375,0.53125 9.890625,0.90625 9.890625,1.5625 C9.890625,2.0625 9.5,2.1875 9.71875,3.265625 C9.859375,4.015625 10.625,6.03125 11.1875,7.609375 L10.5625,7.890625 C9.859375,6.40625 9.046875,4.625 8.296875,3.5 C8.09375,3.1875 7.828125,3.140625 7.46875,3.34375 C6.453125,3.859375 5.0625,5.421875 5.0625,8.46875 C5.0625,10.9375 5.875,12.453125 5.875,13.515625 C5.875,14.5 4.625,15.578125 3.765625,15.984375 C3.3125,16.171875 2.828125,16.265625 2.25,16.375 L2.046875,15.984375 C3.75,14.78125 3.90625,14.1875 3.90625,12.890625 C3.90625,11.8125 3.765625,10.15625 3.8125,8.421875 C3.890625,3.84375 6.390625,1.75 8.25,0.9375 Z M20.953125,4.9375 C21.59375,4.9375 21.90625,5.359375 21.90625,6.28125 C21.90625,7.890625 21.1875,10.265625 19.828125,11.6875 C18.75,12.8125 17.5625,13.65625 15.3125,14.0625 L15.09375,13.484375 C16.6875,12.890625 17.96875,12 18.8125,10.578125 C19.828125,8.875 20.015625,6.84375 20.1875,5.78125 C20.28125,5.234375 20.5625,4.9375 20.953125,4.9375 Z" transform="translate(0.0234375, 16.375) scale(1, -1)"/>
</svg>