<svg height="20.09375" viewBox="0 0 24 20.09375" width="24" xmlns="http://www.w3.org/2000/svg">
<path d="M16.875,-0.671875 C18.671875,-0.671875 21.796875,-0.453125 21.796875,0.5 C21.796875,1.03125 21.28125,1.375 20.359375,1.375 C19.46875,1.375 19.0625,0.890625 16.296875,0.890625 C15.140625,0.890625 14.765625,1.296875 14.421875,2.5625 C14.203125,3.4375 13.9375,4.4375 13.6875,5.203125 C13.375,6.09375 12.59375,6.484375 11.765625,6.484375 C11.359375,6.484375 10.796875,6.484375 10.3125,6.359375 C11.609375,7.625 14.109375,9.890625 15.09375,10.65625 C15.9375,11.28125 16.703125,11.46875 16.703125,11.921875 C16.703125,12.625 15.265625,13.484375 14.5625,13.484375 C14.203125,13.484375 13.984375,13.15625 13.390625,12.984375 C12.03125,12.59375 7.890625,11.59375 6.953125,11.59375 C6.453125,11.59375 6,12.125 5.640625,12.9375 L5.25,12.84375 C5.15625,12.359375 5.140625,11.921875 5.28125,11.5 C5.515625,10.796875 6.4375,9.859375 7.4375,9.859375 C7.921875,9.859375 8.1875,10.25 8.828125,10.5625 C10.203125,11.140625 12.578125,11.828125 13.65625,12.078125 C14.109375,12.1875 14.328125,11.96875 13.984375,11.59375 C12.984375,10.421875 10.65625,8.109375 8.828125,6.34375 C7.578125,5.140625 5.609375,3.3125 4.609375,2.359375 C3.953125,1.734375 3.4375,1.25 3.4375,0.40625 C3.4375,-0.046875 3.765625,-0.359375 4.15625,-0.359375 C4.578125,-0.359375 4.875,-0.125 5.15625,0.234375 C6.125,1.421875 7.53125,3.453125 9.140625,4.78125 C9.859375,5.421875 10.578125,5.65625 11.328125,5.65625 C12.125,5.65625 12.484375,5.15625 12.625,4.53125 C12.84375,3.671875 13.03125,2.65625 13.171875,1.890625 C13.578125,-0.046875 14.28125,-0.671875 16.875,-0.671875 Z M9.234375,15.34375 L9.453125,14.828125 C10.4375,15.171875 12.53125,15.84375 13.578125,15.9375 C14.234375,16.015625 14.59375,15.984375 15.078125,15.984375 C15.703125,15.984375 15.90625,16.265625 15.90625,16.578125 C15.90625,17.28125 15.03125,17.765625 14.296875,17.765625 C13.890625,17.765625 13.609375,17.640625 12.9375,17.65625 C11.375,17.71875 9.953125,18.3125 8.40625,19.421875 L8.046875,19.078125 C9.5,17.25 11.359375,16.75 12.171875,16.578125 C11.421875,16.25 10.203125,15.75 9.234375,15.34375 Z" transform="translate(-0.6171875, 19.421875) scale(1, -1)"/>
</svg>