<svg height="20.59375" viewBox="0 0 24 20.59375" width="24" xmlns="http://www.w3.org/2000/svg">
<path d="M15.21875,-1.46875 C15.8125,-1.46875 16.125,-1.0625 16.125,-0.4375 C16.125,0.265625 15.625,1.203125 14.953125,2.0625 C13.25,4.21875 11.15625,5.78125 8.6875,7.75 C8.15625,8.15625 7.875,8.46875 7.875,8.78125 C7.875,9.078125 8.015625,9.34375 8.71875,10.03125 C9.71875,11.046875 12.890625,13.96875 14.5,15.265625 C15.34375,15.890625 15.75,16.078125 15.75,16.578125 C15.75,17.15625 14.859375,18.171875 14.015625,18.625 C13.53125,18.890625 13.078125,19.015625 12.53125,19.125 L12.234375,18.671875 C13.21875,18 13.5625,17.546875 13.5625,17.140625 C13.5625,16.84375 13.421875,16.609375 13.015625,16.125 C11.90625,14.78125 8.359375,11.328125 7.15625,9.90625 C6.765625,9.5 6.53125,9.078125 6.53125,8.640625 C6.53125,8.109375 6.84375,7.609375 7.46875,7.109375 C10.375,4.625 12.09375,2.90625 13.21875,1.203125 C13.890625,0.1875 14.109375,-0.40625 14.375,-0.890625 C14.546875,-1.203125 14.828125,-1.46875 15.21875,-1.46875 Z" transform="translate(0.671875, 19.125) scale(1, -1)"/>
</svg>