<svg height="20.140625" viewBox="0 0 24 20.140625" width="24" xmlns="http://www.w3.org/2000/svg">
<path d="M8.546875,13.421875 C9.703125,13.421875 11.015625,13.609375 12.265625,13.921875 C12.71875,12.796875 13.171875,11.734375 13.625,10.796875 C12.09375,10.390625 10.390625,10.125 8.65625,10.125 C6,10.125 5.6875,11.09375 7.171875,12.40625 L6.765625,12.765625 C4.15625,10.9375 5.109375,8.859375 8.46875,8.859375 C10.578125,8.859375 12.578125,9.125 14.28125,9.53125 C15.1875,7.828125 16.171875,6.59375 16.578125,6 C16.75,5.765625 16.734375,5.6875 16.421875,5.78125 C15.28125,6.046875 13.5625,6.484375 11.375,6.484375 C7.3125,6.484375 5.359375,4.578125 5.359375,2.65625 C5.359375,-0.140625 8.8125,-1.15625 11.8125,-1.15625 C14.90625,-1.15625 16.390625,-0.765625 16.390625,-0.046875 C16.390625,0.40625 15.890625,0.71875 15.171875,0.71875 C14.234375,0.71875 13.65625,0.453125 11.859375,0.453125 C9.578125,0.453125 6.53125,0.75 6.53125,2.96875 C6.53125,4.5625 8.453125,5.640625 11.015625,5.640625 C12.984375,5.640625 14.875,4.984375 15.765625,4.5625 C16.734375,4.078125 17.109375,3.640625 17.6875,3.640625 C18.265625,3.640625 18.671875,4.6875 18.671875,5.421875 C18.671875,6.046875 17.28125,6.71875 15.40625,9.8125 C17.234375,10.3125 18.671875,10.9375 19.5625,11.46875 C20.015625,11.71875 20.109375,11.96875 20.109375,12.21875 C20.109375,12.703125 19.578125,12.859375 18.984375,12.8125 C18.59375,12.8125 18.34375,12.484375 16.796875,11.859375 C16.171875,11.59375 15.453125,11.328125 14.6875,11.09375 C14.109375,12.21875 13.703125,13.25 13.390625,14.1875 C15.34375,14.734375 16.984375,15.40625 17.5,15.71875 C17.859375,15.953125 18.03125,16.171875 18.03125,16.421875 C18,16.875 17.375,17.015625 16.828125,17.015625 C16.4375,17.015625 15.5,16.203125 13.015625,15.453125 C12.765625,16.390625 12.625,17.359375 12.484375,18.125 C12.359375,18.796875 11.453125,18.984375 10.578125,18.984375 C9.859375,18.984375 9.3125,18.765625 8.609375,18.359375 L8.71875,17.90625 C9.125,17.921875 9.53125,17.953125 9.9375,17.921875 C10.6875,17.875 10.890625,17.609375 11.09375,17.0625 L11.8125,15.125 C10.625,14.828125 9.3125,14.609375 8.453125,14.609375 C6.546875,14.609375 5.828125,15.078125 4.65625,15.953125 L4.3125,15.703125 C5.5625,13.609375 6.890625,13.421875 8.546875,13.421875 Z" transform="translate(-0.1328125, 18.984375) scale(1, -1)"/>
</svg>