<svg height="19.515625" viewBox="0 0 24 19.515625" width="24" xmlns="http://www.w3.org/2000/svg">
<path d="M16.109375,-1.15625 C17.140625,-1.15625 17.609375,-0.90625 17.609375,-0.40625 C17.609375,0.046875 17.0625,0.53125 16.625,0.625 C16.0625,0.71875 15.140625,0.546875 13.875,0.75 C11.71875,1.0625 10.25,2.046875 10.21875,3.953125 C10.203125,6 11.359375,7.171875 12.484375,8.046875 C13.53125,8.859375 15.71875,9.453125 17.765625,9.546875 C18.765625,9.59375 19.3125,9.546875 19.84375,9.546875 C20.765625,9.546875 21.078125,9.8125 21.078125,10.203125 C21.078125,10.828125 20.109375,11.296875 19.203125,11.296875 C18.53125,11.296875 17.59375,11.0625 15.859375,10.65625 C14.234375,10.265625 10.703125,9.21875 8.328125,8.546875 C8.203125,8.515625 8.15625,8.609375 8.25,8.71875 C11.15625,11.46875 13.03125,12.984375 15.59375,15.546875 C16.203125,16.171875 16.796875,16.125 16.796875,16.625 C16.796875,17.296875 15.3125,18.359375 14.71875,18.359375 C14.28125,18.359375 14.25,18.03125 13.4375,17.765625 C12.359375,17.46875 8.953125,16.609375 8.09375,16.625 C7.625,16.625 7.203125,17.453125 6.796875,18.1875 L6.453125,18.09375 C6.359375,17.734375 6.265625,17.234375 6.3125,16.921875 C6.390625,15.9375 7.75,14.859375 8.328125,14.859375 C8.875,14.859375 9.09375,15.21875 10.109375,15.640625 C11.1875,16.078125 12.859375,16.625 14.0625,16.9375 C14.328125,17.015625 14.453125,16.984375 14.25,16.6875 C13.265625,14.96875 9.703125,11.28125 8.234375,9.90625 C7.171875,8.875 6.4375,8.28125 5.421875,7.828125 C4.75,7.515625 3.953125,7.265625 3.359375,7.078125 C2.921875,6.9375 2.765625,6.640625 2.765625,6.265625 C2.765625,5.734375 3.34375,5.25 3.796875,5.25 C4.484375,5.25 5.015625,5.828125 6.53125,6.640625 C7.734375,7.3125 9.75,8.015625 11.5,8.546875 C11.8125,8.640625 11.859375,8.515625 11.609375,8.296875 C10.46875,7.34375 9.078125,5.875 9.078125,3.59375 C9.078125,1.0625 10.96875,-0.3125 13.171875,-0.8125 C14.109375,-1.0625 15.359375,-1.15625 16.109375,-1.15625 Z" transform="translate(0.078125, 18.359375) scale(1, -1)"/>
</svg>