<svg height="19.484375" viewBox="0 0 24 19.484375" width="24" xmlns="http://www.w3.org/2000/svg">
<path d="M17.015625,-0.53125 C18.40625,-0.53125 19.484375,-0.390625 20.234375,-0.21875 C20.921875,-0.078125 21.546875,0.1875 21.546875,0.671875 C21.546875,1.21875 20.921875,1.484375 20.375,1.484375 C19.6875,1.484375 18.90625,1.03125 16.515625,1.03125 C14.453125,1.03125 12.984375,1.578125 12.140625,2.875 C11.6875,3.59375 11.46875,4.46875 11.328125,5.15625 L10.75,5.09375 C10.78125,4.25 10.875,3.34375 11.28125,2.421875 C12.03125,0.3125 14.234375,-0.53125 17.015625,-0.53125 Z M15.75,8.203125 L16.0625,7.78125 C16.875,8.1875 18,8.765625 18.75,9.03125 C19.375,9.28125 19.734375,9.359375 20.15625,9.40625 C20.734375,9.453125 21.140625,9.578125 21.140625,10.015625 C21.140625,10.421875 20.828125,10.78125 20.28125,11.0625 C19.703125,11.328125 18.625,11.640625 17.046875,11.640625 C15.453125,11.640625 13.828125,11.234375 12.703125,10.78125 L12.84375,10.203125 C13.890625,10.4375 15,10.578125 16.0625,10.578125 C16.78125,10.578125 17.59375,10.515625 18.171875,10.296875 C18.390625,10.21875 18.453125,10.109375 18.265625,9.953125 C17.953125,9.640625 16.5625,8.734375 15.75,8.203125 Z M5.359375,11.859375 C6.234375,11.859375 7.25,11.96875 8.109375,12.140625 C7.828125,11.140625 7.515625,10.125 7.203125,9.234375 C6.03125,5.875 4.6875,3.484375 3.453125,1.65625 C3.09375,1.015625 2.875,0.796875 2.875,0.265625 C2.875,-0.28125 3.171875,-0.71875 3.578125,-0.71875 C4.0625,-0.71875 4.296875,-0.5 4.625,0.046875 C5.65625,1.734375 7.203125,5.59375 8.328125,8.828125 C8.765625,9.984375 9.171875,11.28125 9.5,12.453125 C11.234375,12.890625 13.109375,13.5625 13.65625,13.796875 C14.546875,14.1875 14.8125,14.421875 14.8125,14.875 C14.8125,15.3125 14.1875,15.546875 13.78125,15.546875 C13.578125,15.546875 13.3125,15.40625 12.953125,15.21875 C12.21875,14.828125 11.203125,14.375 9.9375,13.9375 L10.390625,15.640625 C10.6875,16.5625 11.015625,17.15625 11.015625,17.5625 C10.984375,18.125 9.484375,18.703125 8.609375,18.75 C8.046875,18.765625 7.609375,18.703125 7.109375,18.578125 L7.0625,18.03125 C7.5625,17.921875 8.09375,17.78125 8.5625,17.609375 C9,17.40625 9.125,17.1875 9.078125,16.65625 C9,15.90625 8.78125,14.78125 8.46875,13.53125 C7.5625,13.3125 6.484375,13.15625 5.359375,13.15625 C4.171875,13.171875 3.453125,13.609375 2.421875,14.515625 L2.015625,14.203125 C2.8125,12.390625 3.953125,11.859375 5.359375,11.859375 Z" transform="translate(0.21875, 18.765625) scale(1, -1)"/>
</svg>