<svg height="19.265625" viewBox="0 0 24 19.265625" width="24" xmlns="http://www.w3.org/2000/svg">
<path d="M7.96875,11.640625 C9.53125,11.640625 11.640625,12.125 13.125,12.546875 C14.296875,10.703125 15.578125,8.90625 16.796875,7.515625 C16.96875,7.3125 16.921875,7.296875 16.6875,7.34375 C15.59375,7.6875 13.734375,8.203125 11.453125,8.203125 C7.78125,8.203125 4.984375,6.265625 4.984375,3.671875 C4.984375,0.40625 8.640625,-0.859375 12.640625,-0.859375 C15.640625,-0.859375 16.796875,-0.40625 16.796875,0.21875 C16.796875,0.71875 16.265625,1.015625 15.546875,1.015625 C14.71875,1.015625 13.921875,0.75 12.09375,0.75 C8.359375,0.75 6.21875,2.015625 6.21875,3.859375 C6.21875,5.828125 8.296875,7.3125 10.984375,7.3125 C13.4375,7.3125 15.453125,6.53125 16.875,5.71875 C17.546875,5.328125 17.90625,4.96875 18.40625,4.96875 C18.9375,4.96875 19.296875,5.875 19.265625,6.546875 C19.25,6.953125 19.0625,7.171875 18.484375,7.734375 C16.9375,9.1875 15.40625,10.984375 14.25,12.90625 C16.296875,13.625 18.09375,14.609375 18.84375,15.21875 C19.171875,15.5 19.3125,15.90625 19.109375,16.171875 C18.84375,16.484375 18.140625,16.53125 17.6875,16.34375 C16.984375,16.015625 16.265625,15.140625 13.578125,14.15625 C12.9375,15.53125 12.625,16.6875 12.28125,17.6875 C12.171875,18.125 11.203125,18.40625 10.3125,18.40625 C9.796875,18.40625 9.09375,18.21875 8.296875,17.8125 L8.40625,17.359375 C9.765625,17.375 10.375,17.421875 10.78125,16.796875 C11.328125,16.015625 11.828125,14.875 12.4375,13.78125 C11.015625,13.34375 9.1875,13.015625 7.96875,13.015625 C6.078125,13.015625 5.375,13.515625 3.90625,14.6875 L3.484375,14.296875 C4.796875,12.453125 5.6875,11.609375 7.96875,11.640625 Z" transform="translate(0.6015625, 18.40625) scale(1, -1)"/>
</svg>