<svg height="20.234375" viewBox="0 0 24 20.234375" width="24" xmlns="http://www.w3.org/2000/svg">
<path d="M12.03125,5.203125 C10.921875,5.203125 10.078125,6.140625 10.078125,7.515625 C10.078125,8.734375 10.84375,9.796875 12.046875,9.796875 C13.078125,9.796875 13.84375,9 13.84375,7.4375 C13.84375,5.78125 13.21875,5.203125 12.03125,5.203125 Z M4.5625,11.65625 C5.1875,11.65625 5.65625,12.046875 6.75,12.3125 C8.203125,12.671875 10.75,13.21875 13.109375,13.484375 L13.21875,10.625 C12.9375,10.734375 12.59375,10.78125 12.234375,10.78125 C10.265625,10.78125 9.09375,9.140625 9.09375,7.390625 C9.09375,4.9375 11.015625,3.09375 13.375,4.171875 C12.5,1.828125 10.109375,0.125 7.171875,-0.953125 L7.484375,-1.5625 C12.125,-0.40625 15.4375,2.28125 15.4375,6.671875 C15.4375,8.0625 15.125,9.1875 14.421875,9.90625 L14.40625,13.609375 C19.21875,14.015625 21.046875,13.4375 21.8125,13.4375 C22.265625,13.4375 22.484375,13.625 22.484375,14.0625 C22.484375,14.828125 21.234375,15.28125 20.40625,15.28125 C19.890625,15.28125 18.359375,15.078125 14.40625,14.640625 L14.453125,16.015625 C14.5,16.609375 14.859375,16.984375 14.859375,17.546875 C14.859375,18.140625 13.375,18.671875 12.390625,18.671875 C11.765625,18.671875 11.1875,18.390625 10.75,18.171875 L10.796875,17.6875 C11.515625,17.640625 12.03125,17.609375 12.390625,17.515625 C12.765625,17.40625 12.890625,17.25 12.9375,16.78125 L13.0625,14.5 C10.21875,14.1875 5.28125,13.4375 4.390625,13.46875 C3.578125,13.46875 3.125,14.234375 2.59375,15.03125 L2.140625,14.859375 C2.15625,14.375 2.203125,13.828125 2.375,13.421875 C2.640625,12.75 3.765625,11.65625 4.5625,11.65625 Z" transform="translate(-0.3125, 18.671875) scale(1, -1)"/>
</svg>