<svg height="19.875" viewBox="0 0 24 19.875" width="24" xmlns="http://www.w3.org/2000/svg">
<path d="M6.09375,-0.09375 C6.484375,-0.09375 6.796875,0.125 6.796875,0.546875 C6.796875,1.375 6.4375,1.65625 6.4375,2.375 C6.4375,2.90625 6.546875,3.453125 6.703125,4.015625 C6.9375,4.828125 7.796875,7.296875 8.375,8.921875 L7.84375,9.1875 C7.171875,7.53125 6.078125,4.84375 5.65625,4.15625 C5.46875,3.765625 5.28125,3.796875 5.09375,4.15625 C4.828125,4.703125 4.578125,5.5625 4.578125,6.9375 C4.578125,9.03125 5.46875,11.359375 6.171875,12.890625 C6.5,13.625 6.890625,14.328125 6.890625,14.859375 C6.890625,15.90625 5.765625,17.09375 5.234375,17.5 C4.875,17.765625 4.53125,17.953125 3.953125,18.1875 L3.625,17.828125 C4.53125,16.875 5.0625,16.125 5.0625,15.234375 C5.0625,13.5625 3.484375,9.84375 3.484375,6.796875 C3.484375,3.625 4.265625,1.828125 4.9375,0.765625 C5.234375,0.28125 5.609375,-0.09375 6.09375,-0.09375 Z M13.875,10.9375 C14.828125,10.9375 15.765625,11.046875 16.6875,11.1875 C16.78125,8.8125 16.921875,5.5625 16.0625,3.59375 C15.140625,1.296875 13.625,0.140625 11.46875,-1.015625 L11.765625,-1.515625 C14.296875,-0.625 16.3125,0.5 17.421875,2.90625 C18.5,5.109375 18.265625,8.921875 18.125,11.453125 C19.484375,11.765625 20.640625,12.171875 21.328125,12.484375 C21.8125,12.703125 22.015625,12.90625 22.015625,13.296875 C22.015625,13.78125 21.28125,14.046875 20.78125,14.046875 C20.59375,14.046875 20.359375,13.78125 19.421875,13.390625 C19.0625,13.25 18.578125,13.078125 18.046875,12.9375 C18,13.921875 17.96875,14.875 18,15.4375 C18,16.296875 18.359375,16.734375 18.359375,17.109375 C18.359375,17.734375 16.875,18.359375 15.953125,18.359375 C15.53125,18.359375 14.71875,18.171875 14.1875,17.953125 L14.234375,17.453125 C14.765625,17.40625 15.4375,17.359375 15.8125,17.203125 C16.171875,17.109375 16.3125,16.96875 16.375,16.4375 C16.4375,15.765625 16.53125,13.984375 16.609375,12.578125 C15.703125,12.390625 14.734375,12.234375 13.921875,12.234375 C12.578125,12.234375 11.515625,12.671875 10.203125,13.5625 L9.890625,13.125 C11.109375,11.46875 12.453125,10.9375 13.875,10.9375 Z" transform="translate(-0.75, 18.359375) scale(1, -1)"/>
</svg>