<svg height="18.59375" viewBox="0 0 24 18.59375" width="24" xmlns="http://www.w3.org/2000/svg">
<path d="M15,4.65625 C15.859375,4.65625 16.390625,5.328125 16.625,6.4375 C16.890625,7.515625 17.046875,9.578125 17.109375,11.28125 L18.359375,11.453125 C20.046875,11.59375 20.90625,11.453125 21.84375,11.453125 C22.515625,11.453125 22.875,11.5625 22.875,12.046875 C22.875,12.796875 22.015625,13.15625 21.03125,13.15625 C20.5,13.15625 19.015625,12.890625 17.15625,12.53125 L17.28125,15.359375 C17.296875,16.203125 17.765625,16.34375 17.765625,16.75 C17.765625,17.40625 16.34375,18.3125 15.1875,18.3125 C14.71875,18.3125 14.234375,18.125 13.6875,17.921875 L13.703125,17.453125 C14.28125,17.40625 14.765625,17.359375 15.140625,17.25 C15.546875,17.15625 15.75,16.96875 15.765625,16.578125 C15.84375,15.625 15.84375,13.734375 15.8125,12.265625 C13.625,11.8125 10.609375,11.09375 9.03125,10.703125 C9.078125,11.8125 9.09375,12.765625 9.171875,13.34375 C9.234375,14.28125 9.625,14.375 9.625,14.8125 C9.625,15.4375 8.09375,16.21875 7.203125,16.21875 C6.578125,16.21875 6.046875,16.0625 5.59375,15.90625 L5.609375,15.40625 C6.078125,15.359375 6.640625,15.34375 7.015625,15.1875 C7.390625,15.046875 7.53125,14.90625 7.578125,14.203125 C7.65625,13.515625 7.65625,12.03125 7.625,10.375 C6.046875,9.953125 3.53125,9.3125 2.96875,9.3125 C2.40625,9.3125 1.796875,10.015625 1.421875,10.65625 L1.0625,10.515625 C1.0625,10.0625 1.03125,9.59375 1.171875,9.3125 C1.53125,8.421875 2.453125,7.578125 3.125,7.578125 C3.765625,7.578125 4.75,8.234375 7.625,9.125 C7.65625,6.84375 7.625,4.484375 7.703125,3.171875 C7.828125,0.453125 9.703125,-0.28125 13.15625,-0.28125 C15.640625,-0.28125 17.765625,-0.125 18.71875,0.09375 C19.4375,0.265625 19.734375,0.453125 19.734375,0.9375 C19.734375,1.515625 19.078125,1.796875 18.28125,1.796875 C17.515625,1.796875 15.71875,1.203125 12.765625,1.203125 C9.53125,1.203125 9.03125,1.515625 8.921875,4.078125 C8.90625,5.1875 8.953125,7.4375 8.96875,9.53125 C10.6875,9.984375 13.4375,10.625 15.796875,11.0625 C15.75,9.71875 15.59375,7.96875 15.40625,7.21875 C15.234375,6.71875 15,6.625 14.640625,6.625 C14.234375,6.625 13.0625,6.9375 12,7.25 L11.828125,6.71875 C12.796875,6.3125 13.84375,5.90625 14.203125,5.1875 C14.46875,4.734375 14.65625,4.65625 15,4.65625 Z" transform="translate(0.046875, 18.3125) scale(1, -1)"/>
</svg>