<svg height="16.859375" viewBox="0 0 24 16.859375" width="24" xmlns="http://www.w3.org/2000/svg">
<path d="M12.34375,-0.03125 C15.671875,-0.03125 17.8125,0.40625 18.90625,0.765625 C19.625,1.015625 19.890625,1.25 19.890625,1.6875 C19.890625,2.1875 19.171875,2.515625 18.578125,2.515625 C17.921875,2.515625 16.21875,1.578125 12.078125,1.609375 C6.53125,1.609375 5.90625,4.015625 5.921875,7.0625 L5.28125,7.0625 C4.4375,2.828125 6.234375,-0.03125 12.34375,-0.03125 Z M9.046875,11.71875 L9.359375,11.234375 C11.015625,12.078125 13.203125,13.171875 14.40625,13.609375 C15.59375,14.046875 16.3125,14.140625 16.984375,14.28125 C17.59375,14.375 17.828125,14.5625 17.828125,15 C17.828125,15.546875 16.578125,16.015625 15.703125,16.015625 C14.765625,16.015625 14.203125,15.5 11.359375,15.5 C9.484375,15.5 8.28125,15.71875 6.578125,16.828125 L6.21875,16.390625 C7.984375,14.453125 9.71875,14.25 12.53125,14.296875 C12.859375,14.28125 12.890625,14.203125 12.625,14.046875 C11.765625,13.46875 10.25,12.484375 9.046875,11.71875 Z" transform="translate(-0.1640625, 16.828125) scale(1, -1)"/>
</svg>