<svg height="18.984375" viewBox="0 0 24 18.984375" width="24" xmlns="http://www.w3.org/2000/svg">
<path d="M11.59375,-0.9375 C15.84375,-0.9375 19.4375,1.6875 21.21875,5.453125 L20.6875,5.8125 C19.078125,3.265625 15.71875,0.671875 11.59375,0.671875 C8.953125,0.671875 8.0625,1.828125 8.0625,4.875 C8.0625,8.140625 8.46875,12.03125 8.859375,14.28125 C9.078125,15.40625 9.53125,15.578125 9.53125,16.078125 C9.53125,16.75 7.875,17.96875 6.75,18.03125 C6.3125,18.046875 5.8125,17.96875 5.1875,17.859375 L5.1875,17.359375 C5.8125,17.25 6.359375,17.0625 6.75,16.84375 C7.15625,16.609375 7.296875,16.34375 7.296875,15.484375 C7.296875,14.09375 6.71875,8.453125 6.71875,4.734375 C6.71875,0.625 8.375,-0.9375 11.59375,-0.9375 Z" transform="translate(-1.203125, 18.046875) scale(1, -1)"/>
</svg>