<svg height="18.96875" viewBox="0 0 24 18.96875" width="24" xmlns="http://www.w3.org/2000/svg">
<path d="M5.328125,-0.890625 C5.765625,-0.890625 6,-0.59375 6,-0.140625 C6,0.4375 5.65625,1.171875 5.65625,1.921875 C5.65625,2.296875 5.828125,2.8125 6.046875,3.578125 C6.359375,4.4375 7.390625,7.25 7.84375,8.5 L7.265625,8.78125 C6.71875,7.5625 5.40625,4.34375 4.890625,3.546875 C4.703125,3.21875 4.484375,3.265625 4.34375,3.546875 C4.078125,4.03125 3.890625,4.703125 3.890625,5.96875 C3.890625,8.46875 4.875,10.9375 5.453125,12.3125 C6.046875,13.75 6.390625,14.1875 6.390625,14.71875 C6.390625,15.71875 5.28125,16.9375 4.78125,17.328125 C4.34375,17.71875 4.109375,17.8125 3.546875,18.046875 L3.171875,17.734375 C4.015625,16.75 4.578125,15.984375 4.5625,15.125 C4.53125,14.328125 4.25,13.484375 3.9375,12.34375 C3.53125,10.890625 2.78125,8.5 2.78125,5.640625 C2.78125,3.21875 3.53125,0.984375 4.171875,0.03125 C4.53125,-0.5 4.890625,-0.890625 5.328125,-0.890625 Z M13.34375,11.359375 C14.234375,11.359375 15.140625,11.453125 16.0625,11.5625 C16.109375,9.484375 16.265625,6.984375 16.3125,5.28125 C15.796875,5.359375 15.21875,5.40625 14.59375,5.40625 C12,5.40625 9.890625,4.46875 9.890625,2.421875 C9.890625,0.703125 11.59375,-0.28125 13.734375,-0.28125 C16.6875,-0.28125 17.8125,1.015625 17.8125,2.828125 L17.78125,3.53125 C18.90625,3.03125 19.828125,2.28125 20.6875,1.4375 C21.140625,1.015625 21.4375,0.71875 21.796875,0.71875 C22.203125,0.71875 22.421875,1.015625 22.421875,1.484375 C22.421875,1.9375 22.125,2.40625 21.640625,2.828125 C20.90625,3.53125 19.625,4.46875 17.6875,4.984375 C17.546875,6.84375 17.328125,9.3125 17.328125,11.78125 C18.71875,12.078125 19.921875,12.40625 20.59375,12.625 C21.390625,12.90625 21.703125,13.125 21.703125,13.578125 C21.703125,14.0625 20.953125,14.328125 20.453125,14.359375 C20.234375,14.359375 19.921875,14.109375 18.90625,13.703125 C18.546875,13.5625 18.03125,13.375 17.359375,13.171875 C17.40625,13.96875 17.453125,14.640625 17.546875,15.171875 C17.71875,16.21875 17.921875,16.375 17.921875,16.84375 C17.921875,17.421875 16.65625,18.078125 15.640625,18.078125 C15.125,18.078125 14.375,17.828125 13.890625,17.609375 L13.9375,17.109375 C14.59375,17.09375 15.171875,17.015625 15.625,16.890625 C15.953125,16.796875 16.0625,16.65625 16.0625,16.109375 L16.0625,12.890625 C15.21875,12.75 14.28125,12.640625 13.296875,12.640625 C11.921875,12.640625 10.890625,13.125 9.9375,13.875 L9.578125,13.53125 C10.875,11.6875 11.859375,11.359375 13.34375,11.359375 Z M16.375,4.0625 L16.375,3.9375 C16.375,1.984375 15.90625,1.03125 13.296875,1.03125 C11.859375,1.03125 10.78125,1.484375 10.78125,2.5625 C10.78125,3.71875 12.40625,4.34375 13.890625,4.34375 C14.8125,4.34375 15.625,4.25 16.375,4.0625 Z" transform="translate(-0.6015625, 18.078125) scale(1, -1)"/>
</svg>