<svg height="24" viewBox="0 0 24 24" width="24" xmlns="http://www.w3.org/2000/svg">
<path d="M7.875,2.046875 L7.921875,1.390625 C11.65625,1.203125 15.125,1.734375 17.25,2.765625 C19.84375,3.984375 21.75,6 21.75,9.125 C21.75,12.09375 19.484375,14.8125 15.09375,14.8125 C11.515625,14.8125 7.828125,12.703125 5.5625,11.546875 C4.296875,10.875 3.90625,10.796875 3.4375,10.796875 C2.921875,10.796875 2.359375,11.15625 1.828125,11.734375 L1.484375,11.515625 C1.5625,11.046875 1.625,10.5625 1.875,10.171875 C2.25,9.546875 3.265625,8.78125 3.984375,8.78125 C4.6875,8.78125 5.328125,9.453125 7.109375,10.5625 C8.90625,11.6875 12.140625,13.828125 15.078125,13.828125 C18.171875,13.828125 20.046875,12.09375 20.046875,9.40625 C20.046875,6.84375 18.765625,5.0625 16.0625,3.796875 C13.65625,2.609375 11.0625,2.234375 7.875,2.046875 Z" transform="translate(0.3828125, 14.8125) scale(1, -1)"/>
</svg>