<svg height="20.109375" viewBox="0 0 24 20.109375" width="24" xmlns="http://www.w3.org/2000/svg">
<path d="M6.40625,12.578125 C6.9375,12.578125 7.46875,12.59375 7.984375,12.640625 C7.53125,10.75 6.625,7.34375 6.125,6.046875 C5.765625,5.1875 5.59375,5.09375 5.59375,4.703125 C5.59375,3.953125 6.125,3.078125 6.59375,3.078125 C7.0625,3.078125 7.421875,3.984375 7.78125,4.390625 C9.5,6.359375 12.171875,8.421875 14.828125,8.421875 C16.828125,8.421875 18.484375,7.203125 18.484375,5.09375 C18.484375,3.390625 17.375,1.46875 13.125,0.3125 C11.859375,-0.046875 10.265625,-0.3125 8.421875,-0.390625 L8.5,-0.984375 C13.96875,-1.34375 20.109375,0.359375 20.109375,4.6875 C20.109375,7.109375 18.453125,9.234375 14.921875,9.234375 C12.40625,9.234375 10.265625,8.109375 8.046875,6.40625 C7.515625,5.96875 7.515625,6.09375 7.65625,6.640625 L9.3125,12.796875 C11.953125,13.171875 14.28125,13.921875 15.265625,14.28125 C16.125,14.609375 16.78125,15.03125 16.78125,15.4375 C16.78125,16.015625 16.078125,16.171875 15.578125,16.171875 C15.1875,16.171875 14.71875,15.859375 13.828125,15.40625 C12.8125,14.90625 11.25,14.421875 9.640625,14.140625 C9.859375,14.96875 10.015625,15.59375 10.171875,16.125 C10.375,16.875 10.84375,17.015625 10.84375,17.5 C10.84375,18.046875 9.453125,18.765625 8.375,18.765625 C7.890625,18.765625 7.390625,18.640625 6.859375,18.53125 L6.890625,18 C7.484375,17.90625 7.9375,17.8125 8.328125,17.65625 C8.71875,17.546875 8.859375,17.421875 8.8125,16.9375 C8.78125,16.421875 8.546875,15.140625 8.28125,13.921875 C7.703125,13.875 7.15625,13.828125 6.640625,13.828125 C5.09375,13.828125 4.125,14.15625 2.734375,15.5 L2.296875,15.1875 C3.671875,12.765625 4.390625,12.578125 6.40625,12.578125 Z" transform="translate(0.796875, 18.765625) scale(1, -1)"/>
</svg>