<svg height="19.96875" viewBox="0 0 24 19.96875" width="24" xmlns="http://www.w3.org/2000/svg">
<path d="M12.21875,-1.0625 C14.65625,-1.0625 16.125,0.09375 16.125,2.09375 L16.078125,3.046875 C17.453125,2.546875 18.546875,1.75 19.46875,0.859375 C19.984375,0.390625 20.28125,-0.03125 20.734375,-0.03125 C21.125,-0.03125 21.328125,0.265625 21.328125,0.75 C21.328125,1.34375 20.828125,2.015625 19.6875,2.765625 C18.765625,3.390625 17.5,4.078125 15.9375,4.4375 C15.75,5.875 15.5,7.390625 15.484375,8.109375 C15.453125,8.96875 15.546875,9.75 16.078125,10.265625 C16.609375,10.828125 17.46875,11.109375 18.3125,11.203125 C19.34375,11.28125 19.75,10.890625 20.296875,10.890625 C20.765625,10.890625 21,11.203125 21,11.765625 C21,12.71875 20.25,13.65625 18.796875,14.203125 C17.875,14.5625 16.65625,14.65625 15.484375,14.5 L15.453125,13.890625 C16.5625,13.890625 17.546875,13.6875 18.21875,13.171875 C18.625,12.859375 18.71875,12.546875 18.21875,12.3125 C17.375,11.921875 16.296875,11.546875 15.546875,10.75 C14.78125,9.984375 14.40625,9.09375 14.40625,7.75 C14.40625,6.8125 14.515625,5.734375 14.59375,4.6875 C14.25,4.703125 13.890625,4.734375 13.515625,4.734375 C10.3125,4.734375 8.375,3.390625 8.375,1.5625 C8.375,0.171875 9.71875,-1.0625 12.21875,-1.0625 Z M14.6875,3.4375 L14.6875,2.90625 C14.6875,1.484375 14.15625,0.34375 11.859375,0.34375 C10.109375,0.34375 9.28125,1.015625 9.28125,1.84375 C9.28125,2.71875 10.4375,3.625 12.640625,3.625 C13.375,3.625 14.046875,3.546875 14.6875,3.4375 Z M5.78125,12.8125 C6.390625,12.8125 7.03125,12.859375 7.6875,12.953125 C6.59375,9.453125 4.578125,6.5 3.125,4.5625 C2.8125,4.15625 2.6875,3.796875 2.6875,3.40625 C2.6875,2.96875 2.90625,2.46875 3.390625,2.46875 C3.84375,2.46875 4.125,2.859375 4.46875,3.34375 C6.4375,6.1875 8.15625,10.609375 9,13.203125 C10.609375,13.53125 12.046875,14.046875 12.796875,14.421875 C13.0625,14.5625 13.609375,14.90625 13.609375,15.34375 C13.609375,15.71875 13.21875,16.0625 12.71875,16.0625 C12.265625,16.0625 11.78125,15.484375 9.484375,14.765625 C10.375,17.828125 10.46875,18.265625 10.0625,18.5 C9.640625,18.765625 8.921875,18.90625 8.296875,18.90625 C7.84375,18.90625 7.265625,18.765625 6.890625,18.625 L6.890625,18.234375 C7.21875,18.140625 7.65625,18.03125 8.015625,17.859375 C8.421875,17.6875 8.546875,17.5 8.515625,16.984375 C8.46875,16.375 8.296875,15.34375 8.09375,14.40625 C7.484375,14.25 6.75,14.140625 6.046875,14.140625 C4.390625,14.140625 3.859375,14.65625 2.828125,15.53125 L2.40625,15.1875 C3.171875,13.484375 3.984375,12.8125 5.78125,12.8125 Z" transform="translate(0.1328125, 18.90625) scale(1, -1)"/>
</svg>