<svg height="20.109375" viewBox="0 0 24 20.109375" width="24" xmlns="http://www.w3.org/2000/svg">
<path d="M4.4375,10.390625 C4.84375,10.390625 5.09375,10.875 5.59375,11.1875 C6.171875,11.546875 7.015625,12 7.828125,12.4375 L7.578125,10.25 C5.921875,7.6875 3.3125,4.4375 2.359375,3.390625 C1.890625,2.90625 1.796875,2.609375 1.796875,2.1875 C1.796875,1.703125 2.09375,1.34375 2.453125,1.34375 C2.8125,1.34375 3.046875,1.65625 3.34375,2.0625 L4.875,4.21875 C5.59375,3.171875 6.40625,1.75 6.640625,1.125 C6.859375,0.59375 6.953125,0.1875 7.078125,-0.390625 C7.171875,-0.9375 7.421875,-1.203125 7.84375,-1.203125 C8.515625,-1.203125 8.859375,-0.34375 8.859375,0.484375 C8.859375,1.015625 8.78125,1.78125 8.734375,2.40625 C8.609375,3.71875 8.328125,6.59375 8.5,9.3125 C10.984375,12.03125 14.046875,13.96875 16.015625,13.96875 C18.265625,13.96875 19.21875,11.296875 19.21875,8.25 C19.21875,7.03125 19.078125,5.8125 18.796875,4.796875 C17.953125,5.109375 16.9375,5.328125 15.796875,5.328125 C13.625,5.328125 12.078125,4.078125 12.078125,2.6875 C12.078125,1.15625 13.4375,0.140625 15.3125,0.140625 C17.40625,0.140625 18.8125,1.25 19.609375,2.765625 C20.359375,2.15625 20.90625,1.53125 21.265625,1.15625 C21.796875,0.59375 22.03125,0.28125 22.34375,0.3125 C22.75,0.3125 22.984375,0.671875 22.984375,1.125 C22.984375,1.65625 22.65625,2.15625 22.125,2.6875 C21.71875,3.046875 21.078125,3.640625 20.15625,4.15625 C20.546875,5.40625 20.734375,6.859375 20.734375,8.328125 C20.734375,11.296875 19.5625,14.859375 16.25,14.859375 C13.65625,14.859375 10.15625,12.140625 8.609375,10.78125 L8.65625,11.046875 C8.953125,11.453125 9.21875,11.828125 9.5,12.140625 C9.8125,12.5 10.0625,12.71875 10.0625,13.015625 C10.0625,13.265625 9.625,13.703125 9.21875,13.9375 L9.640625,15.484375 C9.90625,16.4375 10.15625,16.65625 10.15625,17.15625 C10.15625,17.859375 8.953125,18.90625 7.9375,18.90625 C7.421875,18.90625 6.9375,18.796875 6.484375,18.640625 L6.5,18.171875 C7.0625,18.078125 7.515625,17.96875 7.796875,17.859375 C8.203125,17.65625 8.359375,17.5625 8.359375,17.015625 C8.328125,16.34375 8.15625,15.171875 7.984375,13.703125 C6.9375,13.171875 4.578125,12.09375 4.015625,12.09375 C3.546875,12.09375 3.1875,12.484375 2.859375,13.203125 L2.40625,13.0625 C2.375,12.71875 2.421875,12.390625 2.515625,12.03125 C2.765625,11.25 3.75,10.390625 4.4375,10.390625 Z M18.359375,3.59375 C17.609375,2.140625 16.578125,1.421875 15,1.421875 C13.625,1.421875 12.90625,2.015625 12.90625,2.78125 C12.90625,3.703125 13.96875,4.375 15.53125,4.375 C16.609375,4.375 17.546875,4.0625 18.359375,3.59375 Z M7.4375,7.984375 C7.375,5.8125 7.484375,3.625 7.46875,2.46875 C7.46875,2.09375 7.34375,2.0625 7.125,2.296875 L5.25,4.75 C6.03125,5.859375 6.796875,6.984375 7.4375,7.984375 Z" transform="translate(-0.390625, 18.90625) scale(1, -1)"/>
</svg>