<svg height="17.109375" viewBox="0 0 24 17.109375" width="24" xmlns="http://www.w3.org/2000/svg">
<path d="M17.453125,-0.046875 C18.53125,-0.046875 19.171875,0.171875 19.171875,0.75 C19.171875,1.34375 18.390625,1.75 17.8125,1.75 C16.828125,1.75 14.71875,1.609375 13.15625,2.546875 C12.1875,3.140625 11.109375,4.21875 11.109375,6.84375 C11.109375,11.640625 13.515625,13.875 14.59375,14.515625 C15.796875,15.265625 17.46875,15.40625 18.625,15.40625 C19.515625,15.40625 20.234375,15.34375 20.6875,15.34375 C21.21875,15.34375 21.5,15.625 21.5,15.953125 C21.5,16.296875 21.3125,16.5625 20.78125,16.796875 C20.40625,16.96875 19.703125,17.0625 19.078125,17.0625 C18.265625,17.0625 16.390625,16.734375 13.625,16.078125 C9.671875,15.171875 5.046875,13.78125 3.796875,13.78125 C3.265625,13.78125 2.609375,14.359375 2.28125,14.96875 L1.828125,14.828125 C1.84375,14.46875 1.828125,14.109375 1.921875,13.734375 C2.140625,12.90625 3.34375,11.859375 4.21875,11.859375 C4.734375,11.859375 5.203125,12.234375 5.6875,12.453125 C7.125,13.125 10.53125,14.25 13.21875,14.90625 C13.484375,14.96875 13.515625,14.828125 13.34375,14.6875 C10.625,12.546875 9.75,9.390625 9.75,6.546875 C9.75,3.84375 10.53125,2.40625 12.046875,1.296875 C13.6875,0.046875 16.0625,-0.046875 17.453125,-0.046875 Z" transform="translate(0.3359375, 17.0625) scale(1, -1)"/>
</svg>