<svg height="24" viewBox="0 0 24 24" width="24" xmlns="http://www.w3.org/2000/svg">
<path d="M9.984375,2.859375 C10.421875,2.859375 10.609375,3.140625 10.609375,3.53125 C10.609375,3.90625 10.296875,4.265625 9.953125,4.625 C11.25,6.640625 12.140625,8.953125 12.765625,11.09375 C13.015625,11.921875 13.25,12.859375 13.46875,13.75 C13.78125,13.78125 14.109375,13.796875 14.421875,13.796875 C17.609375,13.78125 19.703125,11.515625 19.703125,8.40625 C19.703125,6.640625 19.515625,5.40625 19.03125,4.265625 C18.078125,4.703125 16.84375,5.046875 15.53125,5.046875 C13.6875,5.046875 12.046875,4.078125 12.046875,2.515625 C12.046875,1.3125 12.984375,0.171875 15.265625,0.171875 C17.203125,0.171875 18.625,1.0625 19.515625,2.234375 C20.1875,1.625 20.71875,1.0625 21.140625,0.53125 C21.4375,0.21875 21.59375,0.09375 21.90625,0.09375 C22.21875,0.09375 22.484375,0.390625 22.484375,0.859375 C22.484375,1.484375 21.984375,2.46875 20.296875,3.546875 C20.953125,4.890625 21.234375,6.34375 21.234375,8.0625 C21.234375,11.65625 18.953125,14.640625 14.6875,14.640625 C14.359375,14.640625 13.984375,14.609375 13.65625,14.59375 C13.890625,15.640625 14.0625,16.515625 14.109375,16.890625 C14.203125,17.46875 14.046875,17.6875 13.703125,17.90625 C13.3125,18.21875 12.53125,18.484375 11.953125,18.5 C11.515625,18.53125 10.875,18.390625 10.265625,18.140625 L10.3125,17.65625 C10.890625,17.640625 11.46875,17.5625 11.859375,17.40625 C12.265625,17.28125 12.453125,17.109375 12.4375,16.609375 C12.390625,16.015625 12.28125,15.1875 12.140625,14.328125 C9.9375,13.75 8.015625,12.578125 6.71875,11.375 L6.453125,12.8125 C6.265625,13.875 6.046875,14.25 5.515625,14.71875 C5.046875,15.125 4.515625,15.4375 3.625,15.71875 L3.3125,15.390625 C4.078125,14.6875 4.5625,14.25 4.890625,13.375 C5.1875,12.625 5.296875,11.65625 5.640625,10.21875 C4.078125,8.359375 2.640625,6.09375 2.640625,3.3125 C2.640625,1.75 3.453125,0.484375 4.78125,0.484375 C5.859375,0.484375 6.984375,1.171875 7.84375,1.984375 C8.28125,2.40625 8.65625,2.859375 9.03125,3.3125 C9.390625,3.03125 9.703125,2.859375 9.984375,2.859375 Z M11.96875,13.4375 C11.8125,12.5 11.59375,11.546875 11.359375,10.796875 C10.890625,9.34375 10.203125,7.4375 9.03125,5.609375 C7.96875,6.953125 7.34375,8.6875 6.953125,10.3125 C8.203125,11.6875 10.03125,12.859375 11.96875,13.4375 Z M18.359375,3.125 C17.59375,2.140625 16.484375,1.515625 14.8125,1.515625 C13.375,1.515625 12.890625,2.09375 12.890625,2.71875 C12.890625,3.546875 14.015625,4.125 15.171875,4.125 C16.0625,4.125 17.203125,3.84375 18.359375,3.125 Z M8.109375,4.34375 C7.78125,3.90625 7.390625,3.484375 6.984375,3.078125 C6.1875,2.28125 5.5,2.046875 4.890625,2.046875 C4.3125,2.046875 3.890625,2.59375 3.890625,3.859375 C3.890625,5.234375 4.484375,6.984375 5.953125,9.046875 C6.484375,7.21875 7.21875,5.59375 8.109375,4.34375 Z" transform="translate(-0.5625, 18.53125) scale(1, -1)"/>
</svg>