<svg height="16.78125" viewBox="0 0 24 16.78125" width="24" xmlns="http://www.w3.org/2000/svg">
<path d="M11.09375,0.453125 L11.1875,-0.09375 C19.03125,0.40625 21.53125,4.484375 21.53125,8.46875 C21.53125,13.4375 17.71875,16.6875 12.765625,16.6875 C10.203125,16.6875 7.734375,15.859375 5.765625,14.109375 C3.71875,12.28125 2.5625,9.796875 2.5625,7.375 C2.5625,4.421875 4.25,1.875 5.859375,1.875 C8.296875,1.875 11.09375,6.53125 12.09375,9.40625 C12.578125,10.78125 12.84375,12.125 12.84375,13.265625 C12.84375,14.203125 12.359375,15.046875 11.8125,15.8125 L12.671875,15.859375 C16.625,15.859375 19.796875,13.125 19.796875,8.859375 C19.796875,4.515625 16.96875,1.484375 11.09375,0.453125 Z M10.921875,15.671875 C11.328125,14.953125 11.59375,14.328125 11.59375,13.46875 C11.59375,12.390625 11.1875,10.921875 10.734375,9.765625 C9.75,7.484375 7.53125,3.703125 5.953125,3.703125 C4.96875,3.703125 3.90625,5.453125 3.90625,7.75 C3.90625,9.859375 4.84375,11.8125 6.390625,13.296875 C7.609375,14.5 9.234375,15.34375 10.921875,15.671875 Z" transform="translate(-0.046875, 16.6875) scale(1, -1)"/>
</svg>