<svg height="18.21875" viewBox="0 0 24 18.21875" width="24" xmlns="http://www.w3.org/2000/svg">
<path d="M5.78125,-0.625 C6.234375,-0.625 6.484375,-0.359375 6.484375,0.09375 C6.484375,0.671875 6,1.4375 6,2.140625 C6,2.5625 6.171875,3.125 6.40625,3.859375 C6.671875,4.78125 7.78125,7.484375 8.28125,8.734375 L7.703125,9.03125 C7.171875,7.796875 5.828125,4.796875 5.296875,3.953125 C5.09375,3.640625 4.921875,3.703125 4.78125,3.984375 C4.578125,4.296875 4.390625,4.78125 4.390625,6.046875 C4.390625,8.421875 5.296875,10.578125 5.921875,11.921875 C6.5,13.375 6.84375,13.796875 6.84375,14.359375 C6.84375,15.359375 5.78125,16.46875 5.28125,16.875 C4.875,17.1875 4.53125,17.375 4.0625,17.59375 L3.671875,17.28125 C4.46875,16.421875 5.046875,15.625 5.015625,14.765625 C4.984375,13.96875 4.703125,13.125 4.421875,11.96875 C4.03125,10.53125 3.265625,8.5 3.265625,5.640625 C3.265625,3.40625 4.015625,1.25 4.65625,0.265625 C4.96875,-0.234375 5.359375,-0.625 5.78125,-0.625 Z M16.9375,0.75 C19.53125,0.75 21.765625,1.03125 21.765625,1.984375 C21.765625,2.546875 21.140625,2.765625 20.5,2.765625 C19.921875,2.765625 19.015625,2.328125 16.421875,2.328125 C13.46875,2.328125 12.1875,3.171875 11.375,4.578125 C11.046875,5.1875 10.828125,6.09375 10.6875,6.671875 L10.125,6.578125 C10.125,5.921875 10.21875,5.15625 10.4375,4.4375 C11.15625,1.984375 13.203125,0.75 16.9375,0.75 Z M13.78125,11.515625 L14.1875,11.09375 C15.359375,11.828125 17.0625,12.796875 18.125,13.265625 C18.90625,13.609375 19.515625,13.65625 20.09375,13.75 C20.59375,13.796875 20.734375,14.015625 20.734375,14.328125 C20.734375,14.609375 20.515625,14.953125 20.015625,15.171875 C19.25,15.5 18.34375,15.671875 16.6875,15.671875 C15,15.671875 12.859375,15.234375 10.9375,14.1875 L11.1875,13.609375 C13.203125,14.25 14.765625,14.40625 15.75,14.40625 C17.328125,14.40625 17.359375,14.234375 17.0625,13.96875 C16.5625,13.53125 14.859375,12.28125 13.78125,11.515625 Z" transform="translate(-0.515625, 17.59375) scale(1, -1)"/>
</svg>