<svg height="18.921875" viewBox="0 0 24 18.921875" width="24" xmlns="http://www.w3.org/2000/svg">
<path d="M12.125,-0.640625 C15.390625,-0.640625 17.359375,-0.3125 18.234375,-0.078125 C18.71875,0.078125 19.109375,0.359375 19.109375,0.671875 C19.109375,1.390625 18.359375,1.609375 17.515625,1.609375 C16.828125,1.609375 15.03125,0.9375 11.609375,0.9375 C7.875,0.9375 6.53125,2.0625 6.53125,3.484375 C6.53125,5.71875 9.171875,7.734375 11.09375,8.828125 C12.75,9.796875 15.4375,11.0625 16.9375,11.5625 C17.90625,11.90625 18.484375,12.09375 18.484375,12.578125 C18.484375,13.078125 17.875,14.015625 17.015625,14.515625 C16.578125,14.734375 15.953125,14.859375 15.3125,14.953125 L15.09375,14.5625 C15.59375,14.296875 16.125,13.984375 16.3125,13.5625 C16.484375,13.25 16.390625,13.078125 16.015625,12.890625 C15.125,12.40625 12.625,11.15625 10.875,10.109375 C10.171875,10.578125 9.796875,11.25 9.546875,12.078125 C9.234375,13.0625 9.046875,14.8125 9.03125,15.71875 C9,16.296875 9.1875,16.53125 9.1875,16.96875 C9.171875,17.515625 7.890625,18.28125 6.8125,18.28125 C6.34375,18.28125 5.90625,18.21875 5.28125,18.046875 L5.296875,17.546875 C5.65625,17.46875 6.234375,17.375 6.625,17.234375 C7.109375,17.0625 7.25,16.828125 7.296875,16.4375 C7.53125,14.6875 7.890625,12.671875 8.359375,11.421875 C8.609375,10.65625 9.078125,9.890625 9.765625,9.390625 C8.203125,8.25 5.40625,5.921875 5.40625,3.21875 C5.40625,0.71875 7.921875,-0.640625 12.125,-0.640625 Z" transform="translate(-0.1953125, 18.28125) scale(1, -1)"/>
</svg>