<svg height="18.265625" viewBox="0 0 24 18.265625" width="24" xmlns="http://www.w3.org/2000/svg">
<path d="M10.078125,-0.90625 C14.875,-0.90625 16.75,2.46875 17.109375,5.296875 C17.328125,7.0625 17.328125,8.640625 17.328125,9.546875 C17.328125,10.265625 17.515625,10.296875 17.765625,9.625 C18.5,7.6875 19.421875,6.40625 20.234375,5.515625 C20.609375,5.046875 21.09375,4.78125 21.453125,4.78125 C21.859375,4.78125 22.03125,5.15625 22.03125,5.59375 C22.015625,6.3125 21.703125,6.671875 21.3125,6.984375 C20.296875,7.9375 18.453125,9.625 17.953125,12.171875 C17.71875,13.4375 17.65625,14.953125 17.65625,16.171875 C17.65625,16.84375 17.328125,17.359375 16.734375,17.359375 C16.265625,17.359375 15.890625,16.921875 15.890625,16.109375 C15.890625,15.453125 16.109375,14.375 16.21875,13.75 C16.484375,12.40625 16.53125,11.234375 16.53125,9.640625 C16.53125,4.609375 14.734375,0.71875 9.984375,0.71875 C7.46875,0.71875 5.234375,2.1875 5.234375,5.1875 C5.234375,9.34375 8.0625,12.953125 9.546875,14.203125 C10.296875,14.875 11.109375,15.125 11.6875,15.359375 C12.140625,15.546875 12.265625,15.75 12.265625,16.015625 C12.265625,16.375 11.5625,16.984375 10.9375,16.984375 C10.65625,16.984375 10.46875,16.828125 9.71875,16.484375 C8.859375,16.078125 7.78125,15.796875 6.546875,15.796875 C5.765625,15.796875 5.046875,16.0625 4.265625,16.46875 L4.015625,16.078125 C4.875,14.953125 5.515625,14.609375 6.484375,14.515625 C7.203125,14.46875 7.84375,14.515625 8.40625,14.609375 C5.96875,11.953125 4.03125,8.609375 4.03125,5.0625 C4.03125,0.671875 7.078125,-0.90625 10.078125,-0.90625 Z" transform="translate(-1.0234375, 17.359375) scale(1, -1)"/>
</svg>