<svg height="19.40625" viewBox="0 0 24 19.40625" width="24" xmlns="http://www.w3.org/2000/svg">
<path d="M5.203125,-1.015625 C5.640625,-1.015625 5.859375,-0.71875 5.859375,-0.3125 C5.859375,0.21875 5.59375,0.90625 5.59375,1.6875 C5.59375,2.0625 5.734375,2.640625 5.953125,3.390625 C6.265625,4.375 7.265625,7.078125 7.734375,8.40625 L7.171875,8.65625 C6.625,7.421875 5.28125,4.203125 4.796875,3.4375 C4.609375,3.125 4.390625,3.140625 4.25,3.484375 C3.953125,3.984375 3.75,4.6875 3.75,5.96875 C3.75,8.296875 4.75,11.15625 5.234375,12.4375 C5.828125,13.96875 6.3125,14.421875 6.3125,15.03125 C6.3125,15.8125 5.453125,17.046875 4.78125,17.609375 C4.34375,17.953125 3.90625,18.1875 3.453125,18.390625 L3.078125,18.078125 C3.703125,17.328125 4.46875,16.375 4.46875,15.453125 C4.46875,14.609375 4.03125,13.46875 3.8125,12.625 C3.453125,11.359375 2.6875,8.609375 2.6875,5.65625 C2.6875,3 3.4375,0.890625 4.0625,-0.09375 C4.4375,-0.703125 4.796875,-1.015625 5.203125,-1.015625 Z M14.234375,14.953125 L15.140625,15 C15.546875,14.8125 15.984375,14.5 16.015625,13.921875 C16.0625,13.3125 16.03125,12.078125 16.03125,10.96875 C15.4375,10.875 14.65625,10.75 13.828125,10.75 C12.125,10.75 11.375,11.296875 10.390625,12.03125 L10.03125,11.65625 C11.09375,10.0625 12.28125,9.53125 13.890625,9.53125 C14.640625,9.53125 15.3125,9.578125 16.0625,9.671875 L16.25,4.9375 C15.71875,5.015625 15.171875,5.0625 14.5625,5.0625 C11.96875,5.0625 9.890625,3.953125 9.890625,2.1875 C9.890625,0.40625 11.5,-0.453125 13.65625,-0.453125 C16.125,-0.453125 17.6875,0.546875 17.6875,2.609375 L17.65625,3.265625 C18.765625,2.765625 19.84375,1.984375 20.90625,0.9375 C21.234375,0.59375 21.53125,0.3125 21.890625,0.3125 C22.265625,0.3125 22.46875,0.625 22.46875,1.03125 C22.46875,1.578125 22.171875,2.046875 21.59375,2.546875 C20.875,3.171875 19.46875,4.109375 17.59375,4.625 C17.46875,6.21875 17.296875,8.25 17.25,9.859375 C18.59375,10.109375 20.09375,10.484375 21.078125,10.890625 C21.671875,11.109375 21.890625,11.40625 21.890625,11.71875 C21.890625,12.265625 21.046875,12.453125 20.65625,12.453125 C20.546875,12.453125 20.359375,12.28125 19.703125,12 C19.109375,11.765625 18.234375,11.46875 17.25,11.203125 C17.28125,12.34375 17.359375,13.296875 17.5625,14.015625 C17.6875,14.453125 17.640625,14.65625 17.375,14.859375 C17.15625,15 16.890625,15.125 16.625,15.21875 C18.1875,15.484375 19.84375,15.890625 20.5,16.171875 C20.78125,16.3125 20.953125,16.515625 20.921875,16.796875 C20.921875,17.296875 20.40625,17.5 19.78125,17.5 C19.53125,17.5 19.25,17.28125 18.453125,16.984375 C17.8125,16.78125 15.671875,16.15625 13.921875,16.15625 C12.84375,16.15625 12.140625,16.421875 11.15625,17.0625 L10.828125,16.734375 C11.78125,15.40625 12.71875,14.953125 14.234375,14.953125 Z M16.296875,3.765625 L16.296875,3.359375 C16.296875,1.734375 15.4375,0.859375 13.375,0.859375 C11.640625,0.859375 10.75,1.3125 10.75,2.28125 C10.75,3.546875 12.640625,4.0625 14.140625,4.0625 C14.859375,4.0625 15.578125,3.953125 16.296875,3.765625 Z" transform="translate(-0.578125, 18.390625) scale(1, -1)"/>
</svg>