<svg height="19.28125" viewBox="0 0 24 19.28125" width="24" xmlns="http://www.w3.org/2000/svg">
<path d="M9.75,-0.90625 L10.109375,-1.46875 C14.453125,-0.484375 17.421875,1.703125 18.765625,5.015625 C20.5625,3.71875 21.21875,2.71875 21.8125,2.71875 C22.265625,2.71875 22.484375,3 22.484375,3.390625 C22.515625,3.90625 22.375,4.296875 21.90625,4.78125 C21.359375,5.359375 20.453125,5.96875 19.265625,6.671875 C19.46875,7.515625 19.609375,8.375 19.6875,8.828125 C19.75,9.390625 19.875,9.765625 19.875,10.15625 C19.875,10.609375 18.90625,11.1875 18.171875,11.28125 C17.765625,11.328125 17.28125,11.25 16.890625,11.140625 L16.875,10.6875 C17.25,10.578125 17.515625,10.484375 17.78125,10.34375 C18.09375,10.15625 18.171875,10.015625 18.171875,9.59375 C18.21875,9.078125 18.171875,8.28125 17.953125,7.375 C16.078125,8.25 13.3125,9.140625 10.171875,9.140625 L10.0625,9.140625 L10.109375,9.234375 C11.09375,10.96875 13.078125,13.984375 13.84375,14.90625 C14.375,15.546875 15.234375,15.796875 15.234375,16.296875 C15.234375,16.84375 13.875,17.8125 13.21875,17.8125 C12.84375,17.8125 12.71875,17.421875 11.875,17.15625 C11.015625,16.890625 8.609375,16.203125 7.625,16.203125 C6.9375,16.203125 6.703125,16.796875 6.34375,17.453125 L5.875,17.296875 C5.875,16.890625 5.90625,16.34375 6.03125,16.03125 C6.28125,15.34375 7.265625,14.5 7.96875,14.5 C8.40625,14.5 8.734375,14.875 9.140625,15.046875 C10.0625,15.4375 11.546875,16.015625 12.40625,16.296875 C12.71875,16.390625 12.84375,16.265625 12.640625,15.890625 C12.078125,14.78125 9.90625,11.328125 8.78125,9.265625 L8.65625,9.046875 C5.59375,8.609375 2.765625,6.953125 2.25,4.625 C1.921875,2.921875 2.65625,0.890625 4.015625,0.890625 C5.109375,0.890625 5.8125,1.484375 6.546875,2.5625 C7.25,3.53125 8.46875,6.140625 9.53125,8.15625 L9.578125,8.15625 C13.375,8.15625 15.8125,6.953125 17.5,5.875 C16.296875,2.6875 13.5625,0.265625 9.75,-0.90625 Z M8.109375,8.046875 C7.203125,6.40625 6.09375,4.4375 5.515625,3.671875 C4.984375,2.953125 4.65625,2.609375 4.03125,2.609375 C3.390625,2.609375 2.90625,3.703125 3.171875,4.734375 C3.578125,6.265625 5.546875,7.65625 8.109375,8.046875 Z" transform="translate(-0.21875, 17.8125) scale(1, -1)"/>
</svg>