<svg height="24" viewBox="0 0 24 24" width="24" xmlns="http://www.w3.org/2000/svg">
<path d="M21.859375,2.234375 C22.390625,2.234375 22.625,2.546875 22.625,3.03125 C22.625,3.578125 22.3125,4.125 21.671875,4.46875 C16.875,7.0625 14.421875,10.796875 11.828125,13.265625 C11.09375,14.015625 10.4375,14.234375 9.8125,14.234375 C9.1875,14.234375 8.71875,13.921875 8.203125,13.375 C7.296875,12.359375 5.328125,10.125 4.21875,9.09375 C3.796875,8.71875 3.390625,8.46875 3.078125,8.46875 C2.640625,8.46875 2.09375,8.828125 1.515625,9.359375 L1.125,9.03125 C1.25,8.546875 1.421875,8.09375 1.6875,7.78125 C2.1875,7.203125 3.125,6.578125 3.765625,6.578125 C4.4375,6.578125 4.796875,7.078125 5.40625,7.875 C6.3125,9.046875 8.015625,11.328125 8.875,12.34375 C9.234375,12.765625 9.53125,12.953125 9.8125,12.953125 C10.171875,12.953125 10.5625,12.8125 11.015625,12.359375 C12.90625,10.34375 14.828125,7.78125 16.875,5.734375 C18.90625,3.71875 20.953125,2.234375 21.859375,2.234375 Z" transform="translate(0.125, 14.234375) scale(1, -1)"/>
</svg>