<svg height="18.125" viewBox="0 0 24 18.125" width="24" xmlns="http://www.w3.org/2000/svg">
<path d="M3.53125,-0.125 C4.25,-0.125 4.578125,0.640625 5.453125,1.4375 L6.3125,2.203125 C7.515625,1.609375 8.59375,1.203125 9.5,0.859375 C10.578125,0.453125 11.515625,0.265625 12.4375,0.265625 C14.15625,0.265625 15.390625,1.0625 15.390625,2.734375 C15.390625,4.078125 14.953125,5.296875 13.875,6.625 C14.25,6.703125 14.640625,6.71875 15.03125,6.71875 C17.90625,6.71875 19.828125,4.78125 20.65625,2.640625 C20.953125,1.890625 21.265625,1.265625 21.75,1.265625 C22.296875,1.265625 22.53125,1.703125 22.53125,2.203125 C22.53125,2.875 22.296875,3.546875 21.671875,4.46875 C20.65625,5.96875 18.28125,7.515625 15.265625,7.515625 C14.5625,7.515625 13.890625,7.4375 13.25,7.296875 C12.171875,8.328125 10.484375,9.671875 10.484375,10.578125 C10.484375,11.609375 12.53125,12.453125 13.53125,12.671875 C14.5,12.859375 15.578125,12.703125 15.578125,13.4375 C15.578125,14.78125 14.515625,16.0625 13.15625,16.828125 C12.140625,17.453125 11.046875,17.734375 9.8125,18 L9.546875,17.421875 C11.328125,16.734375 12.8125,15.8125 13.375,14.78125 C13.609375,14.359375 13.578125,14.140625 13.125,13.828125 C12.171875,13.171875 9.546875,12.03125 9.546875,10.625 C9.546875,9.453125 10.96875,8.15625 12.046875,6.9375 C9.703125,6.125 7.5625,4.53125 5.203125,2.90625 C3.90625,2.046875 3.546875,1.84375 3.1875,1.84375 C2.6875,1.84375 2.109375,2.640625 1.890625,3.59375 L1.421875,3.578125 C1.3125,3.1875 1.265625,2.828125 1.265625,2.421875 C1.265625,1.25 2.78125,-0.125 3.53125,-0.125 Z M12.578125,6.3125 C13.484375,5.09375 13.828125,4.15625 13.828125,3.21875 C13.828125,2.1875 13.15625,1.5625 11.59375,1.5625 C10.0625,1.5625 8.359375,2.109375 6.90625,2.6875 C8.953125,4.421875 10.734375,5.6875 12.578125,6.3125 Z" transform="translate(0.1015625, 18) scale(1, -1)"/>
</svg>