<svg height="19.671875" viewBox="0 0 24 19.671875" width="24" xmlns="http://www.w3.org/2000/svg">
<path d="M8.546875,12.8125 C9.703125,12.8125 10.9375,12.90625 12.140625,13.03125 L12.125,10.578125 L12.125,9.625 C11.140625,9.5 10.125,9.453125 9.1875,9.453125 C6.765625,9.453125 5.765625,10.03125 7.296875,12.03125 L6.796875,12.3125 C4.21875,9.765625 5.875,8.203125 9.234375,8.203125 C10.203125,8.203125 11.1875,8.25 12.171875,8.359375 L12.34375,4.625 C11.859375,4.6875 11.359375,4.703125 10.828125,4.703125 C7.828125,4.703125 5.359375,3.640625 5.359375,1.75 C5.359375,0.046875 7.078125,-1.03125 9.4375,-1.03125 C12.09375,-1.03125 13.78125,0.140625 13.78125,2.1875 L13.734375,3.140625 C15.546875,2.59375 17.15625,1.65625 18.390625,0.53125 C18.8125,0.125 19.078125,-0.125 19.515625,-0.125 C19.890625,-0.125 20.15625,0.125 20.15625,0.578125 C20.15625,1.03125 19.875,1.46875 19.34375,1.890625 C18.640625,2.515625 16.609375,3.859375 13.625,4.4375 C13.515625,5.5625 13.375,6.90625 13.296875,8.46875 C15.640625,8.734375 17.734375,9.1875 18.640625,9.53125 C19.078125,9.703125 19.34375,9.9375 19.34375,10.296875 C19.34375,10.796875 18.71875,11.046875 18.21875,11.046875 C17.921875,11.046875 17.5,10.78125 16.703125,10.515625 C15.75,10.203125 14.546875,9.9375 13.25,9.765625 L13.25,10.296875 C13.25,11.421875 13.296875,12.390625 13.34375,13.203125 C15.890625,13.53125 18.125,14.0625 18.984375,14.375 C19.4375,14.546875 19.78125,14.734375 19.78125,15.140625 C19.78125,15.640625 19.109375,15.890625 18.53125,15.890625 C18.1875,15.890625 17.78125,15.625 17.140625,15.40625 C16.390625,15.171875 15.046875,14.828125 13.484375,14.5625 C13.5625,15.171875 13.625,15.625 13.703125,16.03125 C13.828125,16.65625 14.140625,16.84375 14.140625,17.359375 C14.140625,17.96875 12.640625,18.640625 11.609375,18.640625 C10.96875,18.640625 10.390625,18.484375 9.9375,18.265625 L10.015625,17.765625 C10.78125,17.6875 11.25,17.640625 11.765625,17.5 C12.140625,17.359375 12.234375,17.234375 12.234375,16.75 L12.171875,14.375 C10.890625,14.203125 9.546875,14.09375 8.328125,14.09375 C6.078125,14.09375 5.25,14.65625 4.078125,15.640625 L3.671875,15.3125 C4.890625,13.390625 6.3125,12.8125 8.546875,12.8125 Z M12.359375,3.484375 C12.34375,1.203125 11.6875,0.28125 8.78125,0.28125 C7.171875,0.28125 6.3125,0.984375 6.3125,1.828125 C6.3125,2.8125 7.828125,3.671875 10.171875,3.671875 C10.921875,3.671875 11.65625,3.59375 12.359375,3.484375 Z" transform="translate(0.0859375, 18.640625) scale(1, -1)"/>
</svg>