<svg height="19.96875" viewBox="0 0 24 19.96875" width="24" xmlns="http://www.w3.org/2000/svg">
<path d="M8.359375,-0.40625 L8.421875,-1.015625 C13.921875,-1.34375 20.328125,0.40625 20.328125,4.734375 C20.328125,7.125 18.59375,9.484375 15,9.484375 C12.5,9.484375 9.640625,8.25 6.984375,6.03125 C6.796875,5.859375 6.640625,5.90625 6.640625,6.171875 C6.640625,7.34375 6.984375,8.59375 7.21875,9.703125 C7.4375,10.53125 7.703125,11.15625 7.6875,11.765625 C7.6875,12.234375 7.390625,12.890625 7.390625,13.15625 C7.390625,13.390625 7.515625,13.5625 7.890625,13.65625 C8.5,13.796875 10.15625,14.1875 11.515625,14.234375 C12.578125,14.25 12.75,14.09375 13.375,14.09375 C13.875,14.09375 14.140625,14.40625 14.140625,15 C14.140625,15.84375 13.796875,16.53125 12.765625,17.25 C11.921875,17.828125 10.6875,18.40625 8.453125,18.625 L8.296875,18.09375 C9.796875,17.65625 11.109375,17.09375 11.734375,16.3125 C12.125,15.90625 12.078125,15.671875 11.71875,15.546875 C10.75,15.1875 8.421875,14.6875 7.171875,14.359375 C6.40625,14.15625 6.1875,13.75 6.1875,13.25 C6.1875,12.71875 6.28125,12.09375 6.125,11.09375 C5.921875,9.90625 5.5,7.828125 5.328125,6.390625 C5.25,5.78125 5.09375,5.234375 5.09375,4.84375 C5.09375,4.53125 5.28125,4.0625 5.5625,3.75 C5.859375,3.40625 6.09375,3.234375 6.390625,3.234375 C6.84375,3.234375 7.125,3.984375 7.484375,4.390625 C9.359375,6.53125 12.21875,8.640625 14.90625,8.640625 C16.96875,8.640625 18.640625,7.296875 18.640625,5.15625 C18.640625,3.40625 17.359375,1.46875 12.90625,0.265625 C11.8125,-0.046875 10.0625,-0.34375 8.359375,-0.40625 Z" transform="translate(-0.7109375, 18.625) scale(1, -1)"/>
</svg>