<svg height="19.390625" viewBox="0 0 24 19.390625" width="24" xmlns="http://www.w3.org/2000/svg">
<path d="M14.453125,11.515625 C15.953125,11.515625 17.921875,11.921875 18.671875,12.171875 C19.296875,12.359375 19.5625,12.640625 19.5625,12.9375 C19.5625,13.46875 19.109375,13.78125 18.171875,13.78125 C17.828125,13.78125 17.40625,13.484375 16.65625,13.25 C15.8125,13.015625 14.46875,12.765625 13.5625,12.765625 L12.859375,12.796875 C12.90625,13.890625 13.03125,15.046875 13.171875,15.671875 C13.375,16.390625 13.65625,16.578125 13.65625,17.140625 C13.65625,17.71875 12.171875,18.5 10.921875,18.5 C10.296875,18.5 9.703125,18.34375 9.140625,18.140625 L9.1875,17.640625 C9.75,17.609375 10.390625,17.546875 10.875,17.40625 C11.296875,17.234375 11.46875,17.0625 11.515625,16.53125 C11.5625,16.0625 11.59375,13.390625 11.609375,11.828125 C11.609375,10.203125 11.828125,6.890625 11.90625,5.0625 C11.421875,5.109375 10.890625,5.140625 10.34375,5.140625 C7.46875,5.140625 4.6875,4.125 4.6875,1.890625 C4.6875,0.1875 6.4375,-0.890625 8.921875,-0.890625 C11.859375,-0.890625 13.375,0.453125 13.375,2.46875 C13.375,2.875 13.34375,3.21875 13.3125,3.53125 C14.15625,3.28125 14.953125,2.96875 15.640625,2.5625 C17.953125,1.265625 18.71875,-0.09375 19.4375,-0.09375 C19.875,-0.09375 20.140625,0.140625 20.140625,0.59375 C20.140625,1.84375 18.09375,3.09375 16.609375,3.765625 C15.578125,4.25 14.453125,4.625 13.15625,4.875 L13.078125,5.5 C12.9375,7.390625 12.84375,10.5625 12.84375,11.65625 L12.84375,11.96875 C13.3125,11.765625 13.9375,11.515625 14.453125,11.515625 Z M11.953125,3.84375 C11.921875,1.5625 11.28125,0.5 8.328125,0.5 C6.53125,0.5 5.640625,1.171875 5.640625,2.015625 C5.640625,3.171875 7.3125,4.03125 9.625,4.03125 C10.4375,4.03125 11.203125,3.953125 11.953125,3.84375 Z" transform="translate(-0.4140625, 18.5) scale(1, -1)"/>
</svg>