<svg height="20" viewBox="0 0 24 20" width="24" xmlns="http://www.w3.org/2000/svg">
<path d="M17.296875,6.453125 C19.984375,6.453125 22.296875,7.796875 22.296875,10.390625 C22.296875,12.75 20.40625,14.421875 17.5,14.421875 C14.78125,14.421875 11.65625,13.109375 8.296875,11.421875 C7.609375,12.453125 6.640625,13.65625 6.640625,14.15625 C6.640625,14.640625 6.9375,14.734375 7.65625,14.828125 C9.03125,15 11.203125,14.96875 12.140625,14.875 C12.796875,14.828125 13.203125,14.609375 13.609375,14.609375 C14.015625,14.609375 14.28125,14.859375 14.28125,15.40625 C14.28125,15.984375 13.96875,16.5625 13.484375,17.109375 C12.859375,17.8125 11.6875,18.5 9.765625,18.703125 L9.546875,18.1875 C11.09375,17.765625 11.859375,17.0625 12.140625,16.484375 C12.3125,16.109375 12.21875,15.9375 11.875,15.90625 C11.1875,15.84375 9.1875,15.71875 7.203125,15.578125 C6.453125,15.53125 5.46875,15.671875 5.203125,14.453125 C4.96875,13.515625 5.46875,13.125 5.90625,12.59375 C6.265625,12.171875 6.671875,11.65625 7.171875,10.84375 L5.15625,9.8125 C4.296875,9.390625 3.59375,9.078125 3.09375,9.078125 C2.546875,9.078125 2.046875,9.703125 1.6875,10.21875 L1.171875,10.015625 C1.171875,9.453125 1.296875,9.046875 1.515625,8.65625 C1.890625,8.015625 3,7.296875 3.625,7.296875 C4.296875,7.296875 4.609375,7.796875 5.78125,8.515625 L7.84375,9.765625 C9.28125,7.4375 10.265625,4.828125 10.875,3 C11.359375,1.4375 11.59375,0.09375 11.765625,-0.40625 C11.953125,-1.0625 12.21875,-1.296875 12.59375,-1.296875 C13.125,-1.296875 13.4375,-0.8125 13.4375,-0.140625 C13.4375,0.625 13.03125,1.96875 12.625,3.03125 C11.734375,5.15625 10.5625,7.875 8.953125,10.4375 C11.921875,12.171875 14.921875,13.609375 17.40625,13.609375 C19.296875,13.609375 20.734375,12.4375 20.734375,10.703125 C20.734375,8.90625 19.296875,7.828125 17.234375,7.828125 C15.4375,7.828125 14.140625,8.296875 12.53125,9.484375 L12.09375,9.09375 C13.6875,7.25 15.625,6.453125 17.296875,6.453125 Z" transform="translate(0.265625, 18.703125) scale(1, -1)"/>
</svg>