<svg height="19.625" viewBox="0 0 24 19.625" width="24" xmlns="http://www.w3.org/2000/svg">
<path d="M7.75,-0.90625 L7.984375,-1.484375 C10.9375,-0.625 12.640625,0.453125 13.890625,2.09375 L14.765625,2.046875 C19.125,2.046875 21.84375,4.625 21.84375,8.5625 C21.84375,12.171875 19.171875,14.640625 15.578125,14.640625 C15.046875,16.703125 14.0625,18.140625 12.640625,18.140625 C11.8125,18.140625 10.796875,17.546875 10.03125,16.125 C9.5,15.171875 9.078125,13.828125 8.8125,12.234375 C6.890625,10.65625 5.453125,8.609375 4.34375,6.125 C4.0625,6.546875 3.890625,7.4375 3.890625,8.1875 C3.890625,9.34375 4.46875,10.796875 4.984375,12.21875 C5.203125,12.75 5.5625,13.46875 5.5625,14.09375 C5.5625,14.765625 4.75,15.703125 4.3125,16.078125 C3.890625,16.4375 3.453125,16.65625 3,16.828125 L2.6875,16.53125 C3.171875,15.890625 3.9375,15.078125 3.9375,14.09375 C3.9375,12.4375 2.859375,10.078125 2.859375,7.796875 C2.859375,5.640625 3.578125,4.125 4.078125,3.453125 C4.390625,3.125 4.703125,2.78125 5.0625,2.8125 C5.515625,2.8125 5.734375,3.046875 5.734375,3.4375 C5.734375,4.015625 5.40625,4.390625 5.40625,5.109375 C5.40625,6.390625 6.640625,9.1875 8.65625,11.09375 C8.609375,10.515625 8.59375,9.9375 8.59375,9.3125 C8.59375,5.71875 10.03125,3.265625 12.546875,2.40625 C11.5,0.953125 9.9375,-0.140625 7.75,-0.90625 Z M14.828125,3.578125 C15.859375,5.734375 16.078125,8.328125 16.078125,10.3125 C16.078125,11.546875 15.984375,12.71875 15.765625,13.796875 C18,13.6875 20.359375,12.125 20.359375,8.765625 C20.359375,5.1875 17.71875,3.578125 14.859375,3.578125 Z M9.859375,13.03125 C10.0625,14.046875 10.34375,14.96875 10.6875,15.671875 C11.28125,16.890625 11.96875,17.296875 12.53125,17.296875 C13.171875,17.296875 13.875,16.578125 14.25,14.5625 C12.4375,14.359375 10.890625,13.734375 9.859375,13.03125 Z M9.671875,11.875 C11.1875,12.953125 12.71875,13.5625 14.40625,13.75 C14.515625,12.796875 14.59375,11.609375 14.59375,10.171875 C14.59375,7.734375 14.25,5.546875 13.375,3.71875 C10.828125,4.296875 9.578125,6.40625 9.578125,10.125 C9.578125,10.703125 9.625,11.296875 9.671875,11.875 Z" transform="translate(-0.265625, 18.140625) scale(1, -1)"/>
</svg>