<svg height="19.5625" viewBox="0 0 24 19.5625" width="24" xmlns="http://www.w3.org/2000/svg">
<path d="M7.46875,8.546875 C7.46875,6.59375 7.171875,5.359375 5.8125,5.359375 C4.984375,5.359375 4.25,6.140625 4.25,7.125 C4.25,8.296875 4.921875,9.8125 6.359375,9.8125 C7.03125,9.8125 7.46875,9.4375 7.46875,8.546875 Z M8.90625,8.640625 C8.90625,9.359375 8.734375,9.84375 8.40625,10.15625 L8.765625,13.25 C10.421875,13.609375 11.71875,14.09375 12.171875,14.25 C13.0625,14.609375 13.5625,14.875 13.5625,15.3125 C13.5625,15.9375 12.8125,15.984375 12.28125,15.984375 C11.765625,15.984375 11.203125,15.28125 8.953125,14.6875 L9.171875,16.21875 C9.3125,16.921875 9.546875,16.984375 9.546875,17.46875 C9.546875,17.953125 8.046875,18.40625 7.3125,18.40625 C6.859375,18.40625 6.453125,18.34375 5.953125,18.1875 C5.953125,18.171875 5.96875,17.828125 5.96875,17.734375 C6.34375,17.65625 6.9375,17.546875 7.25,17.375 C7.65625,17.1875 7.75,16.984375 7.75,16.4375 L7.6875,14.375 C6.90625,14.203125 6.046875,14.0625 5.1875,14.0625 C4.125,14.0625 3.625,14.140625 2.296875,15.484375 L1.890625,15.234375 C2.71875,13.484375 3.34375,12.8125 4.984375,12.8125 C5.875,12.8125 6.765625,12.90625 7.578125,13.03125 L7.421875,10.65625 C7.203125,10.6875 6.984375,10.703125 6.75,10.703125 C4.578125,10.703125 3.171875,8.6875 3.171875,6.8125 C3.171875,5.359375 4.484375,3.859375 6.046875,3.859375 L6.28125,3.859375 C6.140625,3.1875 6.046875,2.546875 6.046875,1.796875 C6.046875,-0.578125 8.140625,-1.15625 11.640625,-1.15625 C15.265625,-1.15625 18.796875,0.046875 18.796875,1.890625 C18.796875,2.734375 18.34375,2.953125 18.03125,4.15625 C17.734375,5.234375 17.09375,9.078125 17.09375,10.625 C17.09375,11.875 17.328125,12.71875 18.125,12.71875 C19.3125,12.71875 20.921875,11.296875 20.921875,9.8125 C20.921875,9.5 20.875,9.34375 20.546875,9.078125 C20.1875,8.828125 19.34375,8.40625 18.71875,8.140625 L18.90625,7.65625 C20.015625,7.921875 20.765625,7.84375 21.453125,7.921875 C22.34375,8.015625 22.65625,8.328125 22.65625,9.125 C22.65625,11.40625 20.59375,13.609375 18.28125,13.609375 C16.921875,13.609375 16.171875,12.578125 16.171875,10.15625 C16.171875,8.25 16.96875,4.15625 16.96875,2.921875 C16.96875,1.921875 16.609375,1.53125 15.984375,1.21875 C15.125,0.75 13.3125,0.34375 11.359375,0.34375 C8.875,0.34375 7.15625,0.453125 7.15625,1.984375 C7.15625,2.5625 7.265625,3.390625 7.484375,4.3125 C8.59375,5.140625 8.90625,6.9375 8.90625,8.640625 Z" transform="translate(-0.2734375, 18.40625) scale(1, -1)"/>
</svg>