<svg height="19.15625" viewBox="0 0 24 19.15625" width="24" xmlns="http://www.w3.org/2000/svg">
<path d="M11.609375,4.203125 C12.046875,4.203125 12.359375,4.390625 12.359375,4.828125 C12.359375,5.296875 11.953125,5.609375 11.5,5.859375 L11.09375,6.09375 C11.5,6.75 11.90625,7.46875 12.359375,8.296875 C13.390625,10.25 13.984375,11.828125 14.46875,13.21875 C17.65625,12.890625 19.796875,10.34375 19.796875,7.515625 C19.796875,4.421875 17.96875,1.078125 10.53125,-0.140625 L10.65625,-0.71875 C19.109375,-0.21875 21.5,3.40625 21.5,7.15625 C21.5,10.78125 19.015625,13.734375 14.78125,14.15625 L15.171875,15.40625 C15.390625,16.0625 15.75,16.390625 15.75,16.875 C15.75,17.5 14.15625,18.4375 13.0625,18.4375 C12.59375,18.4375 12.046875,18.265625 11.65625,18.09375 L11.71875,17.59375 C12.28125,17.59375 12.75,17.546875 13.171875,17.421875 C13.609375,17.296875 13.875,17.15625 13.828125,16.609375 C13.75,15.953125 13.5625,15.125 13.3125,14.203125 C10.734375,14.140625 8.921875,13.3125 7.4375,12.34375 L7.171875,13.390625 C6.90625,14.453125 6.078125,14.96875 5.515625,15.34375 C5.09375,15.625 4.484375,15.859375 3.90625,16.03125 L3.59375,15.703125 C4.734375,14.734375 5.46875,13.984375 5.78125,13.078125 L6.28125,11.5 C4.984375,10.390625 2.78125,7.796875 2.78125,4.484375 C2.78125,3.03125 3.40625,1.609375 4.796875,1.609375 C6.171875,1.609375 7.25,2.234375 8.203125,2.96875 C8.921875,3.53125 9.546875,4.109375 10.15625,4.828125 C10.5625,4.53125 11.140625,4.203125 11.609375,4.203125 Z M13.03125,13.25 C12.578125,11.859375 11.953125,10.3125 11.203125,8.90625 C10.875,8.234375 10.46875,7.5625 10.015625,6.953125 C9.53125,7.421875 9.078125,7.984375 8.71875,8.65625 C8.25,9.53125 7.921875,10.515625 7.6875,11.40625 C9.34375,12.640625 11.0625,13.15625 13.03125,13.25 Z M9.09375,5.765625 C8.5625,5.140625 8.046875,4.578125 7.53125,4.21875 C6.75,3.59375 6.140625,3.234375 5.1875,3.234375 C4.515625,3.234375 4.03125,3.796875 4.03125,5.140625 C4.03125,6.53125 4.9375,8.765625 6.625,10.46875 C6.859375,9.765625 7.125,9.03125 7.4375,8.328125 C7.84375,7.46875 8.40625,6.53125 9.09375,5.765625 Z" transform="translate(-0.140625, 18.4375) scale(1, -1)"/>
</svg>