<svg height="19.25" viewBox="0 0 24 19.25" width="24" xmlns="http://www.w3.org/2000/svg">
<path d="M8.453125,-0.28125 L8.5,-0.859375 C17.234375,-1.15625 20.359375,2.046875 20.359375,5.15625 C20.359375,8.453125 17.71875,10.34375 14.203125,10.34375 C12.625,10.34375 10.703125,9.859375 9.171875,9.078125 C8.921875,8.953125 8.859375,9 9.078125,9.21875 C10.078125,10.296875 13.890625,14.09375 15.140625,15.1875 C15.625,15.59375 16.4375,15.75 16.4375,16.296875 C16.4375,16.890625 15.078125,18.09375 14.28125,18.09375 C13.96875,18.09375 13.84375,17.765625 13.3125,17.640625 C12.4375,17.375 8.875,16.484375 7.9375,16.484375 C7.34375,16.484375 7.015625,17.234375 6.703125,17.921875 L6.28125,17.859375 C6.1875,17.421875 6.140625,16.84375 6.234375,16.46875 C6.390625,15.765625 7.390625,14.765625 8.140625,14.765625 C8.5625,14.765625 8.875,15.078125 9.34375,15.265625 C10.265625,15.671875 12.75,16.484375 13.6875,16.6875 C14.28125,16.828125 14.25,16.578125 13.96875,16.15625 C12.9375,14.859375 7.75,9.234375 5.515625,7.296875 C4.390625,6.3125 3.40625,5.65625 3.40625,4.9375 C3.40625,4.3125 3.765625,3.765625 4.203125,3.765625 C4.578125,3.765625 4.78125,4.03125 5.140625,4.4375 C7.53125,7.15625 10.75,9.546875 14.015625,9.546875 C16.703125,9.546875 18.671875,8.09375 18.671875,5.859375 C18.671875,2.15625 14.6875,0.171875 8.453125,-0.28125 Z" transform="translate(0.1171875, 18.09375) scale(1, -1)"/>
</svg>