<svg height="18.421875" viewBox="0 0 24 18.421875" width="24" xmlns="http://www.w3.org/2000/svg">
<path d="M13.03125,0.71875 L12.046875,0.671875 C9.71875,0.671875 8.6875,1.421875 8.6875,2.25 C8.6875,3.03125 9.34375,3.53125 10.171875,3.53125 C11.546875,3.53125 12.71875,2.5625 13.03125,0.71875 Z M12.359375,-0.640625 C16.890625,-0.640625 19.578125,1.828125 19.625,4.828125 C19.703125,8.15625 17.046875,10.203125 13.921875,10.203125 C12.3125,10.203125 10.890625,9.765625 9.796875,9.359375 C9.59375,9.265625 9.5,9.453125 9.671875,9.59375 C10.75,10.796875 13.9375,13.890625 15.171875,14.90625 C16.015625,15.640625 16.5625,15.671875 16.5625,16.125 C16.5625,16.78125 15.234375,17.78125 14.515625,17.78125 C14.1875,17.78125 14.109375,17.546875 13.578125,17.375 C12.5,17.0625 9.484375,16.296875 8.515625,16.296875 C7.890625,16.296875 7.578125,17.015625 7.265625,17.71875 L6.84375,17.640625 C6.75,17.1875 6.71875,16.6875 6.8125,16.296875 C7.015625,15.59375 7.890625,14.5625 8.8125,14.5625 C9.1875,14.5625 9.53125,14.921875 9.984375,15.125 C11.015625,15.53125 13.109375,16.265625 13.875,16.4375 C14.15625,16.484375 14.296875,16.390625 14.09375,16.03125 C13.078125,14.421875 8.734375,10.296875 4.96875,6.359375 C4.421875,5.8125 4.203125,5.46875 4.171875,5.046875 C4.15625,4.4375 4.515625,4.078125 4.796875,4.078125 C5.15625,4.0625 5.359375,4.203125 5.71875,4.65625 C7.734375,7.25 10.15625,9.40625 13.609375,9.40625 C16.5625,9.40625 18.171875,7.296875 18.09375,5.1875 C18.046875,3.3125 16.84375,1.625 14.453125,0.984375 C14.0625,3.3125 12.265625,4.421875 10.53125,4.421875 C8.96875,4.421875 7.84375,3.4375 7.84375,2.15625 C7.84375,0.4375 9.671875,-0.640625 12.359375,-0.640625 Z" transform="translate(0.0703125, 17.78125) scale(1, -1)"/>
</svg>