<svg height="19.953125" viewBox="0 0 24 19.953125" width="24" xmlns="http://www.w3.org/2000/svg">
<path d="M12.234375,5.609375 C13.125,5.6875 13.421875,5.953125 13.421875,6.359375 C13.421875,6.84375 13.03125,7.109375 12.453125,7.15625 C11.953125,7.203125 10.96875,7.125 9.765625,7.203125 C10.109375,8.8125 10.5625,10.515625 10.921875,11.71875 C11.515625,11.65625 12.125,11.640625 12.453125,11.65625 C13.0625,11.6875 13.375,11.90625 13.375,12.28125 C13.375,12.703125 13.0625,13.109375 12.28125,13.171875 L11.40625,13.21875 C11.78125,14.40625 12.078125,15.171875 12.359375,15.765625 C12.640625,16.375 12.984375,16.515625 12.984375,16.96875 C12.984375,17.609375 11.546875,18.796875 10.421875,18.796875 C9.9375,18.796875 9.5,18.75 9.09375,18.703125 L9.078125,18.140625 C9.453125,18.078125 9.953125,17.96875 10.34375,17.78125 C10.78125,17.59375 10.9375,17.453125 10.890625,16.84375 C10.828125,16.203125 10.421875,14.828125 9.984375,13.3125 C9.125,13.390625 8.234375,13.53125 7.3125,13.921875 C6.359375,14.296875 5.765625,15.046875 5.140625,15.890625 L4.734375,15.640625 C5.0625,14.5 5.5,13.796875 6.390625,13.21875 C7.015625,12.8125 7.515625,12.640625 8.140625,12.453125 C6.3125,11.546875 4.875,10.15625 4.875,8.828125 C4.875,7.4375 6.171875,6.34375 8.421875,5.859375 C8.328125,5.09375 8.25,4.34375 8.25,3.75 C8.25,0.8125 9.984375,-1.15625 13.25,-1.15625 C17.421875,-1.15625 19.390625,1.5625 19.390625,3.859375 C19.390625,6.484375 18,8.6875 14.28125,10.53125 L13.9375,10.125 C16.171875,8.46875 17.78125,6.953125 17.78125,4.3125 C17.78125,2.296875 16.265625,0.234375 13.109375,0.234375 C10.84375,0.234375 9.28125,1.34375 9.28125,3.75 C9.28125,4.265625 9.359375,4.9375 9.484375,5.6875 C10.625,5.546875 11.640625,5.5625 12.234375,5.609375 Z M8.640625,7.296875 C6.390625,7.625 5.828125,8.375 5.828125,9.09375 C5.828125,10.25 7.96875,11.640625 9.578125,11.765625 C9.28125,10.5625 8.90625,8.90625 8.640625,7.296875 Z" transform="translate(-0.0625, 18.796875) scale(1, -1)"/>
</svg>