<svg height="21.21875" viewBox="0 0 24 21.21875" width="24" xmlns="http://www.w3.org/2000/svg">
<path d="M8.921875,-1.21875 L9.1875,-1.78125 C15.625,-0.09375 17.828125,3.90625 17.828125,8.875 C17.828125,13.15625 16.515625,16.25 13.625,16.25 C12.078125,16.25 10.390625,14.8125 9.265625,12.8125 C9,12.34375 8.8125,12.359375 8.90625,12.859375 C9.078125,13.796875 9.21875,14.515625 9.453125,15.28125 C9.59375,15.859375 9.765625,16.203125 9.765625,16.703125 C9.765625,17.234375 9.078125,18.3125 8.1875,18.90625 C7.84375,19.15625 7.515625,19.296875 7.03125,19.4375 L6.71875,19.125 C7.734375,17.96875 8.09375,17.40625 8.09375,16.15625 C8.09375,14.859375 6.9375,10.21875 6.9375,7.625 C6.9375,7.015625 7.0625,5.90625 7.296875,5.40625 C7.515625,4.921875 7.796875,4.796875 8.140625,4.796875 C8.515625,4.796875 8.8125,5.09375 8.8125,5.5625 C8.8125,6.359375 8.65625,7.0625 8.65625,8.015625 C8.65625,9.703125 9.140625,11.109375 9.90625,12.59375 C10.75,14.203125 12.265625,15.28125 13.390625,15.28125 C15.078125,15.28125 16.15625,12.953125 16.15625,9.046875 C16.15625,4.75 14.734375,1.109375 8.921875,-1.21875 Z" transform="translate(-0.2734375, 19.4375) scale(1, -1)"/>
</svg>