<svg height="20.140625" viewBox="0 0 24 20.140625" width="24" xmlns="http://www.w3.org/2000/svg">
<path d="M4.78125,10.03125 C5.15625,10.03125 5.375,10.515625 5.90625,10.84375 C6.53125,11.203125 7.375,11.6875 8.1875,12.125 L7.984375,10.21875 C6.34375,7.65625 3.71875,4.421875 2.765625,3.390625 C2.296875,2.875 2.203125,2.59375 2.203125,2.15625 C2.203125,1.6875 2.5,1.3125 2.859375,1.3125 C3.21875,1.34375 3.4375,1.625 3.71875,2.046875 L5.25,4.203125 C5.96875,3.171875 6.84375,1.796875 7.0625,1.203125 C7.265625,0.640625 7.375,0.234375 7.484375,-0.34375 C7.578125,-0.890625 7.828125,-1.15625 8.28125,-1.15625 C8.953125,-1.15625 9.265625,0 9.265625,0.8125 C9.265625,1.34375 9.1875,1.78125 9.140625,2.40625 C9.046875,3.703125 8.78125,6.546875 8.921875,9.265625 C10.65625,10.734375 13.203125,12.046875 15.796875,12.046875 C18.53125,12.046875 20.234375,10.0625 20.234375,7.9375 C20.234375,5.140625 18.890625,2.234375 12.890625,-0.03125 L13.125,-0.578125 C19.390625,0.953125 21.953125,3.890625 21.953125,7.46875 C21.953125,10.609375 19.171875,12.859375 16.0625,12.859375 C13.3125,12.859375 11.140625,11.78125 9,10.46875 L9.046875,10.734375 C9.34375,11.140625 9.640625,11.515625 9.90625,11.8125 C10.21875,12.171875 10.484375,12.390625 10.484375,12.671875 C10.484375,12.984375 9.953125,13.4375 9.546875,13.703125 C9.71875,14.515625 9.90625,15.21875 10.015625,15.578125 C10.25,16.53125 10.53125,16.78125 10.53125,17.25 C10.53125,17.921875 9.34375,18.984375 8.328125,18.984375 C7.78125,18.984375 7.296875,18.859375 6.84375,18.71875 L6.859375,18.234375 C7.421875,18.140625 7.84375,18.03125 8.1875,17.90625 C8.59375,17.765625 8.734375,17.640625 8.734375,17.09375 C8.734375,16.375 8.546875,15.046875 8.359375,13.421875 C7.25,12.859375 4.875,11.765625 4.296875,11.765625 C3.859375,11.765625 3.53125,12.140625 3.171875,12.859375 L2.734375,12.703125 C2.734375,12.40625 2.734375,12.078125 2.828125,11.71875 C3.09375,10.9375 4.109375,10.03125 4.78125,10.03125 Z M7.84375,8.015625 C7.796875,5.859375 7.875,3.703125 7.875,2.515625 C7.84375,2.140625 7.734375,2.140625 7.53125,2.359375 L5.640625,4.75 C6.40625,5.859375 7.203125,7.015625 7.84375,8.015625 Z" transform="translate(-0.078125, 18.984375) scale(1, -1)"/>
</svg>