<svg height="20.109375" viewBox="0 0 24 20.109375" width="24" xmlns="http://www.w3.org/2000/svg">
<path d="M3.984375,10.078125 C4.390625,10.078125 4.625,10.625 5.140625,10.9375 C5.734375,11.28125 6.578125,11.765625 7.390625,12.1875 L7.171875,10.203125 C5.515625,7.625 2.90625,4.421875 1.921875,3.390625 C1.484375,2.90625 1.421875,2.609375 1.421875,2.1875 C1.421875,1.703125 1.703125,1.34375 2.046875,1.34375 C2.40625,1.34375 2.609375,1.65625 2.90625,2.0625 L4.46875,4.25 C5.15625,3.1875 6.03125,1.75 6.234375,1.125 C6.453125,0.59375 6.53125,0.1875 6.640625,-0.390625 C6.765625,-0.9375 7.015625,-1.203125 7.4375,-1.203125 C8.109375,-1.203125 8.453125,-0.078125 8.453125,0.75 C8.453125,1.265625 8.375,1.78125 8.328125,2.375 C8.1875,3.8125 7.9375,6.703125 8.09375,9.453125 C10.484375,12.078125 13.296875,14.234375 15.34375,14.234375 C16.53125,14.234375 16.96875,13.4375 16.96875,11.921875 C16.96875,9.34375 15.953125,6.546875 15.953125,3.890625 C15.953125,1.78125 17.140625,0.75 18.84375,0.75 C20.875,0.75 22.703125,2.234375 23.765625,3.71875 L23.328125,4.15625 C21.9375,2.875 20.78125,2.296875 19.203125,2.296875 C18.046875,2.296875 17.5,2.828125 17.5,4.125 C17.5,6.578125 18.53125,10.015625 18.53125,11.875 C18.53125,14.109375 17.5,15.125 15.84375,15.125 C13.390625,15.125 10.5625,12.9375 8.28125,10.875 C8.546875,11.25 8.78125,11.59375 9.046875,11.875 C9.34375,12.265625 9.59375,12.453125 9.59375,12.75 C9.59375,12.984375 9.125,13.4375 8.734375,13.703125 C8.921875,14.5 9.09375,15.125 9.21875,15.484375 C9.484375,16.4375 9.765625,16.65625 9.765625,17.15625 C9.765625,17.859375 8.546875,18.90625 7.5625,18.90625 C7.015625,18.90625 6.5,18.796875 6.09375,18.640625 L6.125,18.171875 C6.640625,18.078125 7.078125,17.921875 7.390625,17.828125 C7.828125,17.65625 7.9375,17.5625 7.9375,17.015625 C7.921875,16.3125 7.75,15.078125 7.5625,13.53125 C6.578125,13.015625 4.109375,11.828125 3.5,11.828125 C3.078125,11.828125 2.71875,12.234375 2.359375,12.984375 L1.921875,12.84375 C1.890625,12.5 1.921875,12.125 2.015625,11.78125 C2.25,10.984375 3.28125,10.078125 3.984375,10.078125 Z M7.03125,7.984375 C6.953125,5.828125 7.078125,3.625 7.0625,2.46875 C7.0625,2.09375 6.9375,2.0625 6.71875,2.296875 C6.390625,2.71875 5.515625,3.859375 4.84375,4.796875 C5.59375,5.875 6.390625,6.984375 7.03125,7.984375 Z" transform="translate(-0.59375, 18.90625) scale(1, -1)"/>
</svg>