<svg height="20.25" viewBox="0 0 24 20.25" width="24" xmlns="http://www.w3.org/2000/svg">
<path d="M6.84375,13.5625 C7.390625,13.5625 7.96875,13.609375 8.5625,13.6875 C7.65625,12.140625 6.453125,10.53125 5.203125,9.28125 C4.125,8.140625 3.234375,7.53125 3.234375,6.890625 C3.234375,6.28125 3.578125,5.921875 4.0625,5.921875 C4.625,5.953125 5.296875,7.078125 6.140625,7.984375 C7.15625,9.046875 8.734375,10.390625 10.078125,10.390625 C11.328125,10.390625 11.78125,9.640625 11.875,7.609375 C9.078125,5.828125 6.890625,3.90625 6.890625,2.015625 C6.890625,0.125 8.359375,-1.265625 12.8125,-1.265625 C14.859375,-1.265625 17.40625,-0.84375 18.1875,-0.625 C18.953125,-0.40625 19.078125,-0.09375 19.078125,0.265625 C19.078125,0.71875 18.640625,1.015625 17.8125,1.015625 C16.65625,1.015625 15.265625,0.265625 11.71875,0.265625 C9.4375,0.265625 7.890625,0.84375 7.890625,2.1875 C7.890625,3.59375 9.578125,5.140625 11.90625,6.453125 C11.875,5.15625 11.78125,3.859375 11.78125,3.28125 C11.78125,2.640625 12.171875,2.375 12.578125,2.375 C13.0625,2.375 13.3125,2.734375 13.3125,3.3125 C13.3125,4.078125 13.3125,5.828125 13.25,7.203125 C15.4375,8.296875 18.234375,9.359375 20.09375,9.90625 C21.03125,10.203125 21.265625,10.265625 21.265625,10.703125 C21.265625,11.375 20.5625,12.171875 19.96875,12.578125 C19.5625,12.890625 19.0625,13.0625 18.1875,13.21875 L17.90625,12.796875 C18.359375,12.578125 18.84375,12.28125 19.078125,11.96875 C19.421875,11.59375 19.375,11.375 18.953125,11.15625 C17.515625,10.390625 15.078125,9.40625 13.125,8.359375 C12.890625,10.15625 11.96875,11.1875 10.46875,11.1875 C9.5,11.1875 8.59375,10.75 7.828125,10.375 C7.65625,10.265625 7.578125,10.390625 7.6875,10.515625 C8.734375,11.859375 9.40625,12.90625 9.984375,13.890625 C12.40625,14.375 14.78125,15.1875 15.765625,15.671875 C16.21875,15.890625 16.4375,16.109375 16.4375,16.421875 C16.4375,16.875 15.9375,17.0625 15.40625,17.0625 C15.046875,17.0625 14.875,16.84375 13.875,16.390625 C13.125,16.078125 11.96875,15.671875 10.75,15.359375 L11.515625,16.9375 C11.78125,17.46875 11.96875,17.640625 11.96875,17.96875 C11.96875,18.546875 10.421875,18.953125 9.671875,18.953125 C9.28125,18.984375 8.78125,18.84375 8.296875,18.71875 L8.296875,18.265625 C8.859375,18.1875 9.359375,18.078125 9.671875,17.921875 C10.125,17.734375 10.203125,17.5625 10.078125,17.140625 C9.953125,16.53125 9.671875,15.8125 9.28125,15.03125 C8.546875,14.875 7.796875,14.78125 7.15625,14.78125 C5.375,14.78125 4.96875,15.28125 4.015625,16.296875 L3.5,15.984375 C4.46875,14.09375 4.875,13.5625 6.84375,13.5625 Z" transform="translate(-0.25, 18.984375) scale(1, -1)"/>
</svg>