<svg height="19.484375" viewBox="0 0 24 19.484375" width="24" xmlns="http://www.w3.org/2000/svg">
<path d="M3.078125,-1.25 C3.484375,-1.25 3.71875,-0.9375 3.90625,-0.703125 C4.3125,-0.078125 4.890625,0.671875 5.609375,1.3125 C6.34375,1.9375 7.125,2.421875 8.046875,2.421875 C9.09375,2.421875 9.59375,1.84375 10.015625,1.203125 C10.515625,0.4375 10.3125,0.078125 10.6875,-0.265625 C10.984375,-0.546875 11.5,-0.84375 11.828125,-0.84375 C12.234375,-0.84375 12.34375,-0.359375 12.671875,0.3125 C13.3125,1.734375 14.828125,3.890625 16.625,3.890625 C18.171875,3.890625 19.53125,2.734375 19.921875,1.609375 C20.0625,1.078125 19.96875,0.84375 19.625,0.671875 C19.203125,0.390625 18.40625,0.078125 17.46875,-0.265625 L17.609375,-0.71875 C18.546875,-0.546875 19.25,-0.359375 19.6875,-0.359375 C20.421875,-0.390625 20.5625,-0.640625 21.046875,-0.640625 C21.578125,-0.640625 21.8125,-0.28125 21.8125,0.390625 C21.8125,2.40625 19.46875,4.5625 16.828125,4.5625 C14.6875,4.5625 12.765625,2.546875 11.515625,1.125 C10.3125,2.6875 9.1875,3.390625 7.203125,2.875 C7.890625,3.5 9.390625,4.75 11.015625,5.8125 C11.453125,5.734375 11.90625,5.71875 12.359375,5.71875 C15.53125,5.71875 18.578125,7.109375 18.578125,9.859375 C18.578125,12.34375 16.375,13.390625 14.09375,13.390625 C13.171875,13.390625 12,13.15625 11.25,12.90625 C10.96875,12.796875 10.890625,12.90625 11.140625,13.109375 C11.921875,13.84375 13.46875,14.921875 14.953125,15.953125 C15.34375,16.203125 16.03125,16.3125 16.03125,16.734375 C16.03125,17.25 14.6875,18.234375 13.96875,18.234375 C13.625,18.234375 13.53125,17.90625 12.84375,17.6875 C11.96875,17.40625 9.265625,16.609375 8.640625,16.609375 C8.046875,16.609375 7.75,17.421875 7.53125,17.8125 L7.078125,17.734375 C7.03125,17.359375 7.03125,16.890625 7.109375,16.609375 C7.296875,15.90625 8.234375,15.046875 8.875,15.046875 C9.265625,15.046875 9.640625,15.484375 10.015625,15.640625 C11.015625,16.125 12.453125,16.6875 13.4375,16.890625 C13.78125,16.96875 13.84375,16.828125 13.625,16.578125 C12.390625,15.3125 8.25,11.71875 6.40625,10.375 C5.296875,9.59375 5.015625,9.34375 5.015625,8.875 C5.015625,8.234375 5.328125,8.046875 5.609375,8.046875 C6.03125,8.046875 6.3125,8.296875 6.53125,8.5625 C7.828125,9.90625 8.953125,10.984375 9.90625,11.59375 C11.0625,12.34375 12.453125,12.71875 13.53125,12.71875 C15.90625,12.71875 17.140625,11.71875 17.140625,10.109375 C17.140625,8.359375 15.390625,6.859375 12.5,6.796875 C12.890625,7.125 13.125,7.484375 13.109375,8.0625 C13.109375,9.140625 12.21875,9.859375 10.875,9.859375 C9.546875,9.859375 8.46875,8.953125 8.46875,7.9375 C8.46875,7.078125 9.03125,6.5 9.859375,6.140625 L6.578125,3.59375 C5.375,2.6875 3.75,1.484375 3.1875,1.03125 C2.46875,0.4375 2.375,0 2.375,-0.28125 C2.375,-0.859375 2.734375,-1.25 3.078125,-1.25 Z M10.828125,6.90625 C9.90625,7.109375 9.390625,7.484375 9.390625,8.09375 C9.390625,8.734375 9.953125,9.171875 10.65625,9.171875 C11.546875,9.171875 11.8125,8.765625 11.8125,8.25 C11.8125,7.75 11.546875,7.46875 10.828125,6.90625 Z" transform="translate(-0.09375, 18.234375) scale(1, -1)"/>
</svg>