<svg height="19.21875" viewBox="0 0 24 19.21875" width="24" xmlns="http://www.w3.org/2000/svg">
<path d="M15.984375,-0.765625 C18.40625,-0.765625 21.3125,0.8125 22.34375,6.09375 L21.8125,6.265625 C20.765625,3.4375 18.9375,0.796875 16.265625,0.796875 C14.875,0.796875 14.28125,1.46875 14.28125,2.78125 C14.28125,3.890625 14.40625,5.328125 14.375,6.453125 C14.359375,8.375 13.390625,9.390625 11.421875,9.390625 C10.484375,9.390625 9.359375,8.96875 8.109375,8.234375 C7.921875,8.109375 7.796875,8.234375 7.9375,8.421875 C8.921875,10.171875 11.359375,13.6875 12.359375,14.859375 C12.953125,15.59375 13.625,15.75 13.625,16.21875 C13.625,16.96875 12.59375,18 11.5,18.265625 C11.0625,18.40625 10.3125,18.453125 9.84375,18.390625 L9.703125,17.90625 C10.125,17.765625 10.78125,17.515625 11.09375,17.25 C11.40625,17.046875 11.46875,16.703125 11.15625,16.109375 C10.296875,14.515625 6.671875,8.5625 4.578125,4.9375 C3.34375,2.78125 2.40625,1.296875 2.40625,0.4375 C2.40625,-0.234375 2.78125,-0.671875 3.21875,-0.671875 C3.671875,-0.671875 3.90625,-0.390625 4.125,0.140625 C4.46875,1.015625 4.921875,2.421875 5.640625,3.953125 C6.796875,6.3125 8.828125,8.515625 11.109375,8.515625 C12.5,8.515625 12.90625,7.6875 12.90625,6.625 C12.90625,5.203125 12.703125,3.75 12.71875,2.421875 C12.71875,0.265625 13.96875,-0.765625 15.984375,-0.765625 Z" transform="translate(-0.375, 18.453125) scale(1, -1)"/>
</svg>