<svg height="18.859375" viewBox="0 0 24 18.859375" width="24" xmlns="http://www.w3.org/2000/svg">
<path d="M13.484375,-0.640625 C19.25,-0.640625 21.1875,2.40625 21.1875,5.859375 C21.1875,10.265625 18.28125,12.578125 14.921875,12.578125 C14.140625,12.578125 13.3125,12.484375 12.5,12.28125 C12.953125,13.4375 13.34375,14.5 13.609375,15.34375 C13.9375,16.21875 14.609375,16.34375 14.609375,16.84375 C14.609375,17.421875 13.171875,18.21875 12.5,18.21875 C12.21875,18.21875 12.03125,17.8125 11.59375,17.65625 C10.578125,17.25 8.40625,16.46875 7.515625,16.46875 C6.90625,16.46875 6.578125,17.15625 6.3125,17.6875 L5.859375,17.546875 C5.859375,17.109375 5.875,16.625 6.078125,16.15625 C6.3125,15.59375 7.375,14.65625 7.96875,14.65625 C8.453125,14.65625 8.6875,15.125 9.234375,15.4375 C9.953125,15.8125 11.046875,16.34375 12.03125,16.65625 C12.359375,16.75 12.4375,16.6875 12.359375,16.34375 C12.03125,14.875 11.546875,13.34375 10.96875,11.859375 C8.40625,10.9375 5.953125,9.34375 4.390625,7.578125 C3.546875,6.625 2.78125,5.15625 2.78125,4.125 C2.78125,2.25 4.015625,0.125 4.921875,0.125 C6.03125,0.125 6.890625,1.03125 8.109375,2.921875 C9.28125,4.78125 10.875,8.203125 12.09375,11.25 C13.0625,11.59375 13.96875,11.78125 14.734375,11.78125 C17.90625,11.78125 19.625,9.359375 19.65625,6.3125 C19.6875,3.453125 18.578125,1.703125 16.15625,1.015625 C16.015625,2.90625 14.765625,4.484375 12.71875,4.484375 C11.09375,4.484375 9.890625,3.28125 9.890625,1.796875 C9.890625,0.4375 11.359375,-0.640625 13.484375,-0.640625 Z M10.515625,10.609375 C9.28125,7.578125 7.828125,4.828125 6.640625,3.234375 C5.953125,2.1875 5.46875,1.921875 5.046875,1.921875 C4.4375,1.921875 3.90625,3.078125 3.84375,3.859375 C3.796875,4.515625 3.953125,5.203125 4.421875,5.90625 C5.5625,7.65625 8.0625,9.484375 10.515625,10.609375 Z M14.765625,0.75 C14.28125,0.671875 13.78125,0.640625 13.21875,0.640625 C11.859375,0.640625 10.828125,1.203125 10.828125,2.140625 C10.828125,2.953125 11.46875,3.59375 12.5,3.59375 C13.890625,3.59375 14.640625,2.1875 14.765625,0.75 Z" transform="translate(0.015625, 18.21875) scale(1, -1)"/>
</svg>