<svg height="19.828125" viewBox="0 0 24 19.828125" width="24" xmlns="http://www.w3.org/2000/svg">
<path d="M6.796875,5.90625 C7.171875,5.921875 7.46875,6.171875 7.4375,6.703125 C7.4375,7.125 6.859375,11.59375 6.796875,12.640625 C7.125,12.4375 7.390625,12.34375 7.703125,12.34375 C8.5625,12.34375 11.1875,12.953125 17.546875,13.15625 C17.875,13.15625 17.921875,13.109375 17.859375,12.765625 C16.625,7.46875 12.703125,2.296875 7.5625,-0.75 L7.96875,-1.25 C13.890625,1.625 17.375,6 19.53125,11.71875 C19.703125,12.171875 20.46875,12.453125 20.46875,12.890625 C20.46875,13.4375 19.171875,14.734375 18.453125,14.734375 C18.078125,14.734375 17.65625,14.28125 17.234375,14.234375 C16.25,14.109375 14.46875,14.015625 12.90625,13.921875 C12.9375,14.59375 12.984375,15.4375 13.03125,15.9375 C13.078125,16.65625 13.578125,16.796875 13.578125,17.25 C13.578125,17.734375 12.21875,18.578125 11.203125,18.578125 C10.703125,18.578125 10.25,18.4375 9.703125,18.234375 L9.71875,17.765625 C10.203125,17.71875 10.734375,17.640625 11.046875,17.5 C11.421875,17.359375 11.453125,17.203125 11.46875,16.6875 C11.5,16.109375 11.515625,14.6875 11.515625,13.828125 C9.890625,13.703125 7.921875,13.53125 6.578125,13.484375 C6.453125,13.6875 6.234375,13.84375 5.875,14.09375 C5.328125,14.453125 4.65625,14.6875 3.953125,14.96875 L3.671875,14.5625 C4.3125,13.875 4.984375,13.265625 5.203125,12.34375 C5.40625,11.609375 5.71875,9.671875 5.71875,8.875 C5.71875,8.46875 5.59375,8.046875 5.609375,7.75 C5.640625,7.0625 6.140625,5.859375 6.796875,5.90625 Z" transform="translate(-0.0703125, 18.578125) scale(1, -1)"/>
</svg>