<svg height="19.375" viewBox="0 0 24 19.375" width="24" xmlns="http://www.w3.org/2000/svg">
<path d="M13.296875,-1.015625 C13.796875,-1.015625 14.015625,-0.71875 14.015625,0.171875 C14.015625,1.609375 13.890625,5.28125 14.0625,8.765625 C14.09375,9.359375 14.28125,9.703125 14.28125,10.015625 C14.28125,10.34375 13.734375,10.75 13.0625,11.1875 C14.640625,12.703125 15.8125,13.984375 16.703125,14.96875 C17.359375,15.703125 17.78125,15.640625 17.78125,16.109375 C17.78125,16.734375 16.734375,17.78125 15.796875,18.09375 C15.28125,18.3125 14.78125,18.34375 14.234375,18.359375 L14.0625,17.90625 C15.078125,17.40625 15.484375,17.0625 15.484375,16.6875 C15.484375,16.484375 15.28125,16.078125 14.828125,15.453125 C13.15625,13.078125 9,8.6875 2.921875,5.296875 L3.234375,4.734375 C7.4375,6.453125 10.75,9.09375 12.234375,10.421875 C12.5,10.078125 12.578125,9.796875 12.59375,9.359375 C12.671875,8.28125 12.578125,4.265625 12.390625,2.640625 C12.28125,1.84375 12.09375,1.375 12.09375,0.9375 C12.09375,0.140625 12.5,-1.015625 13.296875,-1.015625 Z" transform="translate(1.6484375, 18.359375) scale(1, -1)"/>
</svg>