<svg height="24" viewBox="0 0 24 24" width="24" xmlns="http://www.w3.org/2000/svg">
<path d="M7.078125,11.96875 C7.65625,11.96875 8.96875,12.234375 10.578125,12.453125 C11.140625,11.828125 11.359375,11.28125 11.359375,10.3125 C11.359375,9.234375 11.28125,6.53125 11.15625,4.75 C7.921875,4.4375 5.046875,4.125 4.34375,4.125 C3.5,4.125 2.953125,4.75 2.453125,5.40625 L1.984375,5.203125 C2.046875,4.578125 2.109375,4.21875 2.296875,3.890625 C2.5625,3.359375 3.703125,2.296875 4.421875,2.296875 C4.96875,2.296875 5.375,2.640625 6.28125,2.875 C8.765625,3.5 14.421875,4.015625 17.046875,3.859375 C19.46875,3.765625 21.046875,3.234375 21.671875,3.234375 C22.125,3.234375 22.390625,3.453125 22.390625,3.859375 C22.390625,4.734375 20.5,5.515625 19.515625,5.515625 C19.21875,5.515625 18.90625,5.296875 17.875,5.25 C16.3125,5.1875 14.46875,5.046875 12.625,4.890625 C12.71875,6.59375 12.890625,8.875 13.015625,9.90625 C13.078125,10.609375 13.375,11.015625 13.375,11.421875 C13.375,11.875 12.75,12.28125 12,12.625 C14.140625,12.859375 17.1875,13.203125 18.09375,13.3125 C18.765625,13.421875 18.984375,13.6875 18.984375,14.046875 C18.984375,14.59375 17.640625,15.09375 16.75,15.09375 C16.109375,15.09375 16.46875,14.5 12.71875,13.96875 C10.296875,13.625 8.328125,13.421875 7.375,13.421875 C6.453125,13.421875 5.734375,13.9375 4.96875,14.609375 L4.5625,14.359375 C4.828125,13.703125 5.25,13.125 5.59375,12.765625 C6.046875,12.34375 6.53125,11.96875 7.078125,11.96875 Z" transform="translate(-0.1875, 15.09375) scale(1, -1)"/>
</svg>