<svg height="21.34375" viewBox="0 0 24 21.34375" width="24" xmlns="http://www.w3.org/2000/svg">
<path d="M2.109375,10.78125 L2.328125,10.078125 L10.21875,10.078125 C9.578125,5.375 7.484375,1.578125 0.90625,-1.4375 L1.203125,-1.84375 C8.953125,0.953125 11.328125,4.921875 12.125,10.078125 L12.390625,10.078125 C13.109375,5.90625 14.96875,1.03125 21.40625,-1.96875 C21.59375,-0.984375 22.203125,-0.625 23.140625,-0.5 L23.1875,-0.21875 C16.296875,2.359375 13.734375,6.265625 12.84375,10.078125 L21.390625,10.078125 C21.71875,10.078125 21.9375,10.203125 22.015625,10.4375 C21.140625,11.25 19.65625,12.359375 19.65625,12.359375 L18.40625,10.78125 L12.21875,10.78125 C12.453125,12.703125 12.5,14.78125 12.53125,17.046875 L22.15625,17.046875 C22.484375,17.046875 22.75,17.15625 22.828125,17.421875 C21.890625,18.265625 20.421875,19.375 20.421875,19.375 L19.125,17.765625 L1.296875,17.765625 L1.484375,17.046875 L10.5625,17.046875 C10.53125,14.78125 10.53125,12.71875 10.3125,10.78125 Z" transform="translate(-0.046875, 19.375) scale(1, -1)"/>
</svg>