<svg height="20.59375" viewBox="0 0 24 20.59375" width="24" xmlns="http://www.w3.org/2000/svg">
<path d="M0.9375,0.046875 L1.15625,-0.671875 L22.421875,-0.671875 C22.78125,-0.671875 22.984375,-0.546875 23.0625,-0.28125 C22.15625,0.546875 20.640625,1.6875 20.640625,1.6875 L19.34375,0.046875 L12.21875,0.046875 L12.21875,10.421875 L20.515625,10.421875 C20.875,10.421875 21.09375,10.53125 21.171875,10.796875 C20.25,11.640625 18.796875,12.765625 18.796875,12.765625 L17.5,11.140625 L12.21875,11.140625 L12.21875,18.9375 C12.796875,19.03125 13.015625,19.265625 13.0625,19.609375 L10.34375,19.921875 L10.34375,0.046875 Z" transform="translate(0, 19.921875) scale(1, -1)"/>
</svg>