<svg height="19.25" viewBox="0 0 24 19.25" width="24" xmlns="http://www.w3.org/2000/svg">
<path d="M19.875,16.375 L19.875,1.796875 L4.0625,1.796875 L4.0625,16.375 L8.6875,16.375 C8.59375,12.03125 8.328125,8.25 4.3125,5.328125 L4.625,4.921875 C9.765625,7.6875 10.25,11.640625 10.421875,16.375 L13.21875,16.375 L13.21875,7.75 C13.21875,6.640625 13.46875,6.21875 14.921875,6.21875 L16.3125,6.21875 C18.703125,6.21875 19.3125,6.546875 19.3125,7.25 C19.3125,7.5625 19.25,7.75 18.75,7.9375 L18.671875,11.0625 L18.359375,11.0625 C18.125,9.8125 17.875,8.359375 17.734375,8.046875 C17.65625,7.84375 17.546875,7.796875 17.40625,7.78125 C17.234375,7.75 16.84375,7.75 16.375,7.75 L15.34375,7.75 C14.875,7.75 14.828125,7.84375 14.828125,8.15625 L14.828125,16.375 Z M2.359375,17.0625 L2.359375,-1.078125 L2.640625,-1.078125 C3.40625,-1.078125 4.0625,-0.625 4.0625,-0.4375 L4.0625,1.109375 L19.875,1.109375 L19.875,-0.90625 L20.140625,-0.90625 C20.765625,-0.90625 21.578125,-0.484375 21.59375,-0.28125 L21.59375,16.0625 C22.078125,16.15625 22.46875,16.34375 22.625,16.53125 L20.59375,18.171875 L19.625,17.0625 L4.25,17.0625 L2.359375,17.921875 Z" transform="translate(-0.4921875, 18.171875) scale(1, -1)"/>
</svg>