<svg height="21.21875" viewBox="0 0 24 21.21875" width="24" xmlns="http://www.w3.org/2000/svg">
<path d="M11.046875,17.515625 L11.046875,12.84375 L4.84375,12.84375 L4.84375,17.515625 Z M3.09375,18.1875 L3.09375,4.78125 L3.390625,4.78125 C4.15625,4.78125 4.84375,5.203125 4.84375,5.40625 L4.84375,6.625 L11.046875,6.625 L11.046875,-1.921875 L11.328125,-1.921875 C12.265625,-1.921875 12.84375,-1.484375 12.84375,-1.34375 L12.84375,6.625 L19.078125,6.625 L19.078125,5.109375 L19.375,5.109375 C19.9375,5.109375 20.859375,5.515625 20.875,5.65625 L20.875,17.1875 C21.359375,17.28125 21.71875,17.46875 21.859375,17.65625 L19.796875,19.296875 L18.84375,18.1875 L5.015625,18.1875 L3.09375,19.0625 Z M12.84375,17.515625 L19.078125,17.515625 L19.078125,12.84375 L12.84375,12.84375 Z M11.046875,7.3125 L4.84375,7.3125 L4.84375,12.140625 L11.046875,12.140625 Z M12.84375,7.3125 L12.84375,12.140625 L19.078125,12.140625 L19.078125,7.3125 Z" transform="translate(-0.4765625, 19.296875) scale(1, -1)"/>
</svg>