<svg height="22.328125" viewBox="0 0 24 22.328125" width="24" xmlns="http://www.w3.org/2000/svg">
<path d="M8.421875,12.890625 C7.875,8.421875 6.34375,4.125 4.078125,1.734375 L4.421875,1.46875 C7.375,3.703125 9.1875,7.609375 10.078125,11.78125 C10.578125,11.78125 10.875,12.03125 10.9375,12.34375 Z M4.421875,-1.78125 C2.828125,1.625 2.140625,5.140625 2.140625,9.125 C2.140625,13.125 2.828125,16.609375 4.421875,20.015625 L3.859375,20.28125 C1.875,17.0625 0.8125,13.296875 0.8125,9.125 C0.8125,4.96875 1.84375,1.171875 3.84375,-2.046875 Z M20.1875,-2.046875 C22.171875,1.171875 23.203125,4.96875 23.203125,9.125 C23.203125,13.296875 22.15625,17.0625 20.15625,20.28125 L19.609375,20.015625 C21.1875,16.609375 21.890625,13.125 21.890625,9.125 C21.890625,5.140625 21.1875,1.625 19.609375,-1.78125 Z M7.984375,15.90625 L8.203125,15.21875 L13.734375,15.21875 C14.328125,9.359375 15.578125,4.78125 18.640625,1.609375 C18.890625,2.1875 19.46875,2.6875 20.09375,2.859375 L20.1875,3.09375 C16.828125,5.734375 15.125,10.296875 14.421875,14.953125 C15.234375,15 15.859375,15.1875 16.15625,15.5 L13.984375,17.09375 L13.203125,15.90625 Z" transform="translate(-0.0078125, 20.28125) scale(1, -1)"/>
</svg>