<svg height="22.328125" viewBox="0 0 24 22.328125" width="24" xmlns="http://www.w3.org/2000/svg">
<path d="M4.4375,-1.78125 C2.828125,1.625 2.15625,5.140625 2.15625,9.125 C2.15625,13.125 2.828125,16.609375 4.4375,20.015625 L3.859375,20.28125 C1.890625,17.0625 0.84375,13.296875 0.84375,9.125 C0.84375,4.96875 1.875,1.171875 3.84375,-2.046875 Z M20.1875,-2.046875 C22.171875,1.171875 23.203125,4.96875 23.203125,9.125 C23.203125,13.296875 22.15625,17.0625 20.1875,20.28125 L19.609375,20.015625 C21.1875,16.609375 21.890625,13.125 21.890625,9.125 C21.890625,5.140625 21.1875,1.625 19.609375,-1.78125 Z M5.65625,9.890625 L5.875,9.171875 L9.390625,9.171875 C8.953125,6.71875 8.5,4.265625 8.140625,2.46875 L3.90625,2.46875 L4.109375,1.78125 L19.9375,1.78125 C20.28125,1.78125 20.515625,1.890625 20.59375,2.15625 C19.84375,2.921875 18.59375,4.109375 18.59375,4.109375 L17.46875,2.46875 L16.3125,2.46875 L16.3125,8.90625 C16.796875,9 17.203125,9.1875 17.359375,9.390625 L15.5,10.828125 L14.609375,9.890625 L10.9375,9.890625 L11.765625,14.828125 L18.84375,14.828125 C19.171875,14.828125 19.4375,14.953125 19.484375,15.21875 C18.640625,16.015625 17.28125,17.046875 17.28125,17.046875 L16.109375,15.546875 L4.796875,15.546875 L4.984375,14.828125 L10.296875,14.828125 C10.078125,13.421875 9.796875,11.65625 9.5,9.890625 Z M9.578125,2.46875 C9.953125,4.265625 10.421875,6.71875 10.828125,9.171875 L14.859375,9.171875 L14.859375,2.46875 Z" transform="translate(-0.0234375, 20.28125) scale(1, -1)"/>
</svg>