<svg height="22.328125" viewBox="0 0 24 22.328125" width="24" xmlns="http://www.w3.org/2000/svg">
<path d="M8.5625,10.21875 C7.5625,6.953125 5.859375,3.84375 4.171875,1.9375 L4.515625,1.6875 C6.640625,3.3125 8.609375,5.875 9.953125,8.921875 C10.484375,8.90625 10.796875,9.09375 10.890625,9.359375 Z M14.09375,10.015625 L13.75,9.8125 C15.390625,7.78125 17.609375,4.515625 18.140625,2.109375 C19.890625,0.75 20.859375,5.0625 14.09375,10.015625 Z M4.421875,-1.78125 C2.828125,1.625 2.140625,5.140625 2.140625,9.125 C2.140625,13.125 2.828125,16.609375 4.421875,20.015625 L3.859375,20.28125 C1.875,17.0625 0.8125,13.296875 0.8125,9.125 C0.8125,4.96875 1.84375,1.171875 3.84375,-2.046875 Z M20.1875,-2.046875 C22.171875,1.171875 23.203125,4.96875 23.203125,9.125 C23.203125,13.296875 22.15625,17.0625 20.15625,20.28125 L19.609375,20.015625 C21.1875,16.609375 21.890625,13.125 21.890625,9.125 C21.890625,5.140625 21.1875,1.625 19.609375,-1.78125 Z M4.078125,12.9375 L4.265625,12.234375 L19.625,12.234375 C19.96875,12.234375 20.203125,12.359375 20.28125,12.625 C19.421875,13.390625 18.046875,14.46875 18.046875,14.46875 L16.84375,12.9375 L12.71875,12.9375 L12.71875,16.625 C13.296875,16.703125 13.5625,16.9375 13.609375,17.28125 L11.25,17.515625 L11.25,12.9375 Z" transform="translate(-0.0078125, 20.28125) scale(1, -1)"/>
</svg>