<svg height="22.328125" viewBox="0 0 24 22.328125" width="24" xmlns="http://www.w3.org/2000/svg">
<path d="M4.421875,-1.78125 C2.828125,1.625 2.140625,5.140625 2.140625,9.125 C2.140625,13.125 2.828125,16.609375 4.421875,20.015625 L3.84375,20.28125 C1.875,17.0625 0.8125,13.296875 0.8125,9.125 C0.8125,4.96875 1.84375,1.171875 3.84375,-2.046875 Z M20.1875,-2.046875 C22.15625,1.171875 23.203125,4.96875 23.203125,9.125 C23.203125,13.296875 22.15625,17.0625 20.15625,20.28125 L19.578125,20.015625 C21.1875,16.609375 21.859375,13.125 21.859375,9.125 C21.859375,5.140625 21.1875,1.625 19.578125,-1.78125 Z M9.4375,17.65625 C9.4375,16.125 9.4375,14.65625 9.390625,13.25 L4.875,13.25 L5.109375,12.5 L9.359375,12.5 C9.140625,8.015625 8.234375,4.21875 4.390625,1.34375 L4.734375,0.953125 C9.484375,3.84375 10.515625,7.84375 10.796875,12.5 L14.328125,12.5 L14.328125,3.078125 C14.328125,2.0625 14.59375,1.65625 15.90625,1.65625 L17.203125,1.65625 C19.390625,1.65625 20.015625,1.96875 20.015625,2.59375 C20.015625,2.875 19.890625,3.046875 19.4375,3.234375 L19.375,6.390625 L19.0625,6.390625 C18.84375,5.140625 18.578125,3.640625 18.4375,3.3125 C18.359375,3.125 18.265625,3.09375 18.125,3.078125 C18,3.046875 17.640625,3.046875 17.234375,3.046875 L16.265625,3.046875 C15.859375,3.046875 15.796875,3.140625 15.796875,3.453125 L15.796875,12.265625 C16.265625,12.34375 16.53125,12.484375 16.703125,12.640625 L14.953125,14.15625 L14.109375,13.25 L10.828125,13.25 L10.921875,16.796875 C11.453125,16.875 11.65625,17.109375 11.71875,17.421875 Z" transform="translate(-0.0078125, 20.28125) scale(1, -1)"/>
</svg>