<svg height="22.328125" viewBox="0 0 24 22.328125" width="24" xmlns="http://www.w3.org/2000/svg">
<path d="M4.421875,-1.78125 C2.828125,1.625 2.140625,5.140625 2.140625,9.125 C2.140625,13.125 2.828125,16.609375 4.421875,20.015625 L3.84375,20.28125 C1.875,17.0625 0.8125,13.296875 0.8125,9.125 C0.8125,4.96875 1.84375,1.171875 3.84375,-2.046875 Z M20.1875,-2.046875 C22.15625,1.171875 23.203125,4.96875 23.203125,9.125 C23.203125,13.296875 22.15625,17.0625 20.15625,20.28125 L19.578125,20.015625 C21.1875,16.609375 21.859375,13.125 21.859375,9.125 C21.859375,5.140625 21.1875,1.625 19.578125,-1.78125 Z M3.5,9.859375 L3.796875,9.1875 L8.515625,9.953125 L8.515625,3.453125 C8.515625,2.109375 9,1.703125 10.96875,1.703125 L13.703125,1.703125 C17.6875,1.703125 18.53125,1.96875 18.53125,2.71875 C18.53125,3.03125 18.390625,3.1875 17.828125,3.390625 L17.765625,7.0625 L17.421875,7.0625 C17.15625,5.46875 16.875,3.90625 16.6875,3.5 C16.5625,3.28125 16.4375,3.21875 16.171875,3.171875 C15.796875,3.140625 14.921875,3.125 13.734375,3.125 L11.1875,3.125 C10.125,3.125 9.984375,3.3125 9.984375,3.8125 L9.984375,10.203125 L19.4375,11.71875 C19.734375,11.765625 19.96875,11.953125 19.96875,12.21875 C19.015625,12.859375 17.5,13.78125 17.5,13.78125 L16.46875,11.953125 L9.984375,10.890625 L9.984375,16.296875 C10.515625,16.375 10.734375,16.609375 10.78125,16.921875 L8.515625,17.1875 L8.515625,10.6875 Z" transform="translate(-0.0078125, 20.28125) scale(1, -1)"/>
</svg>