<svg height="22.328125" viewBox="0 0 24 22.328125" width="24" xmlns="http://www.w3.org/2000/svg">
<path d="M7.21875,6.75 L6.9375,6.625 C7.578125,5.609375 8.28125,4.015625 8.28125,2.765625 C9.625,1.46875 11.203125,4.4375 7.21875,6.75 Z M15.640625,6.703125 C15.09375,5.15625 14.40625,3.5 13.796875,2.5 L14.1875,2.25 C15.078125,3.046875 16.109375,4.25 16.921875,5.40625 C17.421875,5.328125 17.734375,5.515625 17.828125,5.78125 Z M4.4375,-1.78125 C2.828125,1.625 2.140625,5.140625 2.140625,9.125 C2.140625,13.125 2.828125,16.609375 4.4375,20.015625 L3.859375,20.28125 C1.875,17.0625 0.8125,13.296875 0.8125,9.125 C0.8125,4.96875 1.875,1.171875 3.84375,-2.046875 Z M20.1875,-2.046875 C22.171875,1.171875 23.203125,4.96875 23.203125,9.125 C23.203125,13.296875 22.15625,17.0625 20.15625,20.28125 L19.609375,20.015625 C21.1875,16.609375 21.890625,13.125 21.890625,9.125 C21.890625,5.140625 21.1875,1.625 19.609375,-1.78125 Z M12.390625,16.890625 C13.734375,14.0625 16.375,11.46875 19.171875,9.796875 C19.3125,10.34375 19.828125,10.84375 20.453125,10.96875 L20.5,11.296875 C17.453125,12.671875 14.421875,14.765625 12.796875,17.1875 C13.3125,17.203125 13.578125,17.328125 13.65625,17.59375 L11.0625,18.171875 C10.109375,15.390625 6.484375,11.40625 3.546875,9.4375 L3.796875,9.09375 C7.109375,10.84375 10.625,14.015625 12.390625,16.890625 Z M4.421875,1.796875 L4.609375,1.078125 L19.296875,1.078125 C19.625,1.078125 19.875,1.203125 19.921875,1.46875 C19.21875,2.140625 18.09375,3.046875 18.09375,3.046875 L17.09375,1.796875 L12.765625,1.796875 L12.765625,7.515625 L18.21875,7.515625 C18.546875,7.515625 18.765625,7.625 18.8125,7.890625 C18.140625,8.5625 17.0625,9.390625 17.0625,9.390625 L16.15625,8.234375 L12.765625,8.234375 L12.765625,10.96875 L15.765625,10.96875 C16.078125,10.96875 16.296875,11.09375 16.34375,11.359375 C15.71875,11.953125 14.734375,12.71875 14.734375,12.71875 L13.875,11.65625 L7.75,11.65625 L7.9375,10.96875 L11.28125,10.96875 L11.28125,8.234375 L5.234375,8.234375 L5.421875,7.515625 L11.28125,7.515625 L11.28125,1.796875 Z" transform="translate(-0.0078125, 20.28125) scale(1, -1)"/>
</svg>