<svg height="22.328125" viewBox="0 0 24 22.328125" width="24" xmlns="http://www.w3.org/2000/svg">
<path d="M4.421875,-1.78125 C2.8125,1.609375 2.109375,5.109375 2.109375,9.125 C2.109375,13.109375 2.8125,16.578125 4.421875,20.015625 L3.84375,20.28125 C1.84375,17.0625 0.796875,13.265625 0.796875,9.125 C0.796875,4.9375 1.84375,1.171875 3.8125,-2.046875 Z M20.15625,-2.046875 C22.15625,1.171875 23.1875,4.9375 23.1875,9.125 C23.1875,13.265625 22.125,17.0625 20.140625,20.28125 L19.578125,20.015625 C21.171875,16.578125 21.859375,13.109375 21.859375,9.125 C21.859375,5.109375 21.171875,1.609375 19.578125,-1.78125 Z M15.046875,14.875 C14.234375,13.296875 13.125,11.8125 11.765625,10.46875 C11.90625,11.1875 11.203125,12.40625 8.65625,13.125 C9.265625,13.6875 9.8125,14.28125 10.3125,14.875 Z M10.4375,18 C9.3125,15.234375 6.890625,12.28125 4.296875,10.625 L4.53125,10.296875 C5.875,10.9375 7.15625,11.8125 8.296875,12.796875 C9.21875,12.09375 10.21875,10.96875 10.578125,10.0625 C10.796875,9.9375 10.984375,9.890625 11.15625,9.890625 C9.171875,8.0625 6.703125,6.546875 3.90625,5.453125 L4.15625,5.0625 C5.90625,5.609375 7.515625,6.28125 8.953125,7.109375 L8.953125,0.359375 L9.1875,0.359375 C9.90625,0.359375 10.390625,0.75 10.390625,0.890625 L10.390625,1.96875 L16.875,1.96875 L16.875,0.484375 L17.09375,0.484375 C17.5625,0.484375 18.3125,0.84375 18.34375,1.015625 L18.34375,7.15625 C18.75,7.25 19.125,7.4375 19.265625,7.609375 L17.453125,9 L16.65625,8.109375 L10.703125,8.109375 L10.65625,8.140625 C13.3125,9.9375 15.359375,12.1875 16.75,14.71875 C17.328125,14.734375 17.59375,14.78125 17.78125,15 L16.15625,16.53125 L15.125,15.59375 L10.890625,15.59375 C11.25,16.078125 11.5625,16.53125 11.828125,17.015625 C12.40625,16.9375 12.625,17.046875 12.71875,17.28125 Z M16.875,7.390625 L16.875,2.65625 L10.390625,2.65625 L10.390625,7.390625 Z" transform="translate(0.0078125, 20.28125) scale(1, -1)"/>
</svg>