<svg height="22.328125" viewBox="0 0 24 22.328125" width="24" xmlns="http://www.w3.org/2000/svg">
<path d="M15.21875,17.015625 L14.96875,16.828125 C15.75,16.203125 16.703125,15.09375 16.984375,14.234375 C18.453125,13.34375 19.53125,16.171875 15.21875,17.015625 Z M4.421875,-1.78125 C2.8125,1.609375 2.109375,5.109375 2.109375,9.125 C2.109375,13.109375 2.8125,16.578125 4.421875,20.015625 L3.84375,20.28125 C1.84375,17.0625 0.796875,13.265625 0.796875,9.125 C0.796875,4.9375 1.84375,1.171875 3.8125,-2.046875 Z M20.15625,-2.046875 C22.15625,1.171875 23.1875,4.9375 23.1875,9.125 C23.1875,13.265625 22.125,17.0625 20.140625,20.28125 L19.578125,20.015625 C21.171875,16.578125 21.859375,13.109375 21.859375,9.125 C21.859375,5.109375 21.171875,1.609375 19.578125,-1.78125 Z M12.265625,17.65625 C12.28125,15.546875 12.359375,13.53125 12.578125,11.640625 L8.421875,11.1875 L8.71875,10.515625 L12.671875,10.9375 C13.203125,6.984375 14.40625,3.71875 16.84375,1.5625 C17.6875,0.8125 18.9375,0.21875 19.484375,0.890625 C19.6875,1.15625 19.609375,1.46875 19.015625,2.296875 L19.34375,5.5 L19.03125,5.546875 C18.796875,4.6875 18.453125,3.671875 18.21875,3.171875 C18.03125,2.765625 17.90625,2.765625 17.59375,3.078125 C15.578125,4.78125 14.59375,7.75 14.15625,11.109375 L19.578125,11.71875 C19.890625,11.765625 20.109375,11.921875 20.140625,12.1875 C19.390625,12.765625 18.125,13.5625 18.125,13.5625 L17.203125,12.171875 L14.0625,11.8125 C13.890625,13.421875 13.84375,15.09375 13.84375,16.75 C14.40625,16.84375 14.609375,17.109375 14.65625,17.40625 Z M7.921875,17.859375 C6.953125,14.09375 5.234375,10.53125 3.390625,8.328125 L3.71875,8.0625 C4.609375,8.8125 5.453125,9.703125 6.21875,10.734375 L6.21875,0.453125 L6.5,0.453125 C7.078125,0.453125 7.703125,0.8125 7.734375,0.953125 L7.734375,12 C8.140625,12.078125 8.375,12.234375 8.46875,12.453125 L7.578125,12.796875 C8.28125,13.96875 8.875,15.265625 9.390625,16.625 C9.90625,16.609375 10.203125,16.828125 10.296875,17.09375 Z" transform="translate(0.0078125, 20.28125) scale(1, -1)"/>
</svg>