<svg height="22.328125" viewBox="0 0 24 22.328125" width="24" xmlns="http://www.w3.org/2000/svg">
<path d="M4.421875,-1.78125 C2.8125,1.609375 2.109375,5.109375 2.109375,9.125 C2.109375,13.109375 2.8125,16.578125 4.421875,20.015625 L3.84375,20.28125 C1.84375,17.0625 0.796875,13.265625 0.796875,9.125 C0.796875,4.9375 1.84375,1.171875 3.8125,-2.046875 Z M20.15625,-2.046875 C22.15625,1.171875 23.1875,4.9375 23.1875,9.125 C23.1875,13.265625 22.125,17.0625 20.140625,20.28125 L19.578125,20.015625 C21.171875,16.578125 21.859375,13.109375 21.859375,9.125 C21.859375,5.109375 21.171875,1.609375 19.578125,-1.78125 Z M13.921875,17.8125 L13.921875,13.96875 L12.1875,13.96875 C12.4375,14.59375 12.625,15.265625 12.765625,15.9375 C13.265625,15.953125 13.53125,16.203125 13.609375,16.515625 L11.359375,16.921875 C11.234375,14.734375 10.75,12.59375 10.03125,11.0625 L10.421875,10.84375 C11.015625,11.5 11.515625,12.34375 11.90625,13.265625 L13.921875,13.265625 L13.921875,10.015625 L9.90625,10.03125 L10.109375,9.3125 L13.25,9.3125 C12.390625,6.8125 10.921875,4.46875 8.96875,2.65625 L9.265625,2.28125 C11.234375,3.640625 12.796875,5.359375 13.921875,7.296875 L13.921875,0.3125 L14.1875,0.3125 C14.734375,0.3125 15.359375,0.671875 15.359375,0.890625 L15.359375,8.921875 C16.125,6.5 17.46875,4.0625 19.078125,2.546875 C19.21875,3.125 19.625,3.484375 20.234375,3.671875 L20.296875,3.953125 C18.59375,5.109375 16.734375,7.171875 15.859375,9.3125 L19.390625,9.3125 C19.734375,9.3125 19.9375,9.4375 19.984375,9.703125 C19.296875,10.421875 18.140625,11.359375 18.140625,11.359375 L17.140625,10.03125 L15.359375,10.03125 L15.359375,13.265625 L18.765625,13.265625 C19.109375,13.265625 19.34375,13.390625 19.390625,13.65625 C18.71875,14.359375 17.59375,15.28125 17.59375,15.28125 L16.609375,13.96875 L15.359375,13.96875 L15.359375,16.9375 C15.90625,17.046875 16.078125,17.25 16.125,17.5625 Z M6.40625,17.921875 L6.40625,13.578125 L3.640625,13.578125 L3.84375,12.859375 L6.09375,12.859375 C5.640625,10.109375 4.84375,7.3125 3.578125,5.09375 L3.90625,4.75 C4.9375,5.96875 5.765625,7.34375 6.40625,8.828125 L6.40625,0.28125 L6.71875,0.28125 C7.21875,0.28125 7.828125,0.625 7.828125,0.84375 L7.828125,10.484375 C8.328125,9.796875 8.8125,8.859375 8.953125,8.109375 C10.171875,7.125 11.375,9.546875 7.828125,11.109375 L7.828125,12.859375 L9.953125,12.859375 C10.265625,12.859375 10.515625,12.984375 10.5625,13.25 C9.953125,13.890625 9,14.765625 9,14.765625 L8.140625,13.578125 L7.828125,13.578125 L7.828125,17.0625 C8.375,17.140625 8.546875,17.359375 8.609375,17.6875 Z" transform="translate(0.0078125, 20.28125) scale(1, -1)"/>
</svg>