<svg height="22.328125" viewBox="0 0 24 22.328125" width="24" xmlns="http://www.w3.org/2000/svg">
<path d="M4.421875,-1.78125 C2.828125,1.625 2.140625,5.140625 2.140625,9.125 C2.140625,13.125 2.828125,16.609375 4.421875,20.015625 L3.859375,20.28125 C1.875,17.0625 0.8125,13.296875 0.8125,9.125 C0.8125,4.96875 1.84375,1.171875 3.84375,-2.046875 Z M20.1875,-2.046875 C22.171875,1.171875 23.203125,4.96875 23.203125,9.125 C23.203125,13.296875 22.15625,17.0625 20.15625,20.28125 L19.609375,20.015625 C21.1875,16.609375 21.890625,13.125 21.890625,9.125 C21.890625,5.140625 21.1875,1.625 19.609375,-1.78125 Z M15.953125,9.140625 L15.953125,3.390625 L7.796875,3.390625 L7.796875,9.140625 Z M15.953125,9.84375 L7.796875,9.84375 L7.796875,15.453125 L15.953125,15.453125 Z M6.34375,16.15625 L6.34375,0.703125 L6.59375,0.703125 C7.25,0.703125 7.796875,1.078125 7.796875,1.25 L7.796875,2.65625 L15.953125,2.65625 L15.953125,0.90625 L16.171875,0.90625 C16.703125,0.90625 17.421875,1.3125 17.453125,1.46875 L17.453125,15.140625 C17.921875,15.234375 18.34375,15.4375 18.484375,15.625 L16.578125,17.140625 L15.71875,16.15625 L7.9375,16.15625 L6.34375,16.921875 Z" transform="translate(-0.0078125, 20.28125) scale(1, -1)"/>
</svg>