<svg height="22.328125" viewBox="0 0 24 22.328125" width="24" xmlns="http://www.w3.org/2000/svg">
<path d="M5.09375,17.375 L4.84375,17.15625 C5.71875,16.578125 6.84375,15.5 7.25,14.6875 C8.765625,13.890625 9.625,16.75 5.09375,17.375 Z M3.90625,12.140625 L5.09375,10.53125 C5.28125,10.625 5.453125,10.796875 5.515625,11.109375 C7.515625,12.046875 9,12.8125 9.984375,13.34375 L9.90625,13.703125 C7.484375,13.03125 5.015625,12.390625 3.90625,12.140625 Z M9.953125,3.53125 C8.828125,2.59375 6.484375,1.34375 4.390625,0.71875 L4.5625,0.3125 C6.8125,0.59375 9.28125,1.375 10.734375,2.09375 C11.28125,1.921875 11.65625,1.96875 11.859375,2.15625 Z M13.015625,3.21875 L12.890625,2.8125 C15.140625,2.203125 16.78125,1.34375 17.6875,0.53125 C19.21875,-0.625 21.75,2.546875 13.015625,3.21875 Z M4.421875,-1.78125 C2.828125,1.625 2.140625,5.140625 2.140625,9.125 C2.140625,13.125 2.828125,16.609375 4.421875,20.015625 L3.859375,20.28125 C1.875,17.0625 0.8125,13.296875 0.8125,9.125 C0.8125,4.96875 1.84375,1.171875 3.84375,-2.046875 Z M20.1875,-2.046875 C22.171875,1.171875 23.203125,4.96875 23.203125,9.125 C23.203125,13.296875 22.15625,17.0625 20.15625,20.28125 L19.609375,20.015625 C21.1875,16.609375 21.890625,13.125 21.890625,9.125 C21.890625,5.140625 21.1875,1.625 19.609375,-1.78125 Z M11.203125,17.875 C10.75,16.515625 9.8125,15 8.734375,14.109375 L9,13.84375 C9.859375,14.203125 10.625,14.765625 11.296875,15.390625 L12.984375,15.390625 C12.578125,13.515625 11.453125,12.5 8.828125,11.734375 L8.921875,11.328125 C11.78125,11.78125 13.5625,12.671875 14.296875,14.6875 C14.828125,12.984375 15.984375,11.640625 18.984375,10.96875 C19.109375,11.6875 19.484375,11.859375 20.203125,11.953125 L20.234375,12.265625 C16.625,12.765625 15.21875,13.828125 14.640625,15.390625 L17.1875,15.390625 C16.890625,14.859375 16.5625,14.28125 16.3125,13.921875 L16.625,13.734375 C17.359375,14.0625 18.390625,14.71875 18.9375,15.171875 C19.421875,15.1875 19.6875,15.21875 19.84375,15.40625 L18.171875,17.046875 L17.25,16.109375 L12,16.109375 C12.265625,16.421875 12.5,16.703125 12.703125,17.015625 C13.265625,16.9375 13.4375,17.0625 13.515625,17.296875 Z M15.953125,8.140625 L15.953125,6.75 L8.1875,6.75 L8.1875,8.140625 Z M15.953125,8.859375 L8.1875,8.859375 L8.1875,10.203125 L15.953125,10.203125 Z M15.953125,6.046875 L15.953125,4.625 L8.1875,4.625 L8.1875,6.046875 Z M6.71875,10.921875 L6.71875,2.8125 L6.9375,2.8125 C7.5625,2.8125 8.1875,3.140625 8.1875,3.3125 L8.1875,3.90625 L15.953125,3.90625 L15.953125,3.046875 L16.203125,3.046875 C16.6875,3.046875 17.421875,3.40625 17.453125,3.546875 L17.453125,10.109375 C17.765625,10.15625 18.078125,10.296875 18.171875,10.46875 L16.5625,11.71875 L15.796875,10.921875 L8.296875,10.921875 L6.71875,11.640625 Z" transform="translate(-0.0078125, 20.28125) scale(1, -1)"/>
</svg>