<svg height="22.328125" viewBox="0 0 24 22.328125" width="24" xmlns="http://www.w3.org/2000/svg">
<path d="M6.390625,17.640625 L6.09375,17.453125 C6.8125,16.65625 7.65625,15.3125 7.828125,14.28125 C9.171875,13.203125 10.4375,15.953125 6.390625,17.640625 Z M10.46875,17.96875 L10.15625,17.859375 C10.734375,16.96875 11.375,15.546875 11.453125,14.453125 C12.75,13.296875 14.234375,15.984375 10.46875,17.96875 Z M4.421875,-1.78125 C2.828125,1.625 2.140625,5.140625 2.140625,9.125 C2.140625,13.125 2.828125,16.609375 4.421875,20.015625 L3.84375,20.28125 C1.875,17.0625 0.8125,13.296875 0.8125,9.125 C0.8125,4.96875 1.84375,1.171875 3.84375,-2.046875 Z M20.1875,-2.046875 C22.15625,1.171875 23.203125,4.96875 23.203125,9.125 C23.203125,13.296875 22.15625,17.0625 20.15625,20.28125 L19.578125,20.015625 C21.1875,16.609375 21.859375,13.125 21.859375,9.125 C21.859375,5.140625 21.1875,1.625 19.578125,-1.78125 Z M11.296875,8.28125 L11.296875,6.484375 L3.984375,6.484375 L4.171875,5.765625 L11.296875,5.765625 L11.296875,2.453125 C11.296875,2.109375 11.1875,1.984375 10.75,1.984375 C10.265625,1.984375 7.796875,2.15625 7.796875,2.15625 L7.796875,1.78125 C8.859375,1.65625 9.484375,1.484375 9.84375,1.25 C10.15625,1.0625 10.265625,0.71875 10.34375,0.28125 C12.5,0.484375 12.765625,1.203125 12.765625,2.40625 L12.765625,5.765625 L19.5625,5.765625 C19.890625,5.765625 20.140625,5.875 20.203125,6.140625 C19.4375,6.859375 18.234375,7.78125 18.234375,7.78125 L17.1875,6.484375 L12.765625,6.484375 L12.765625,7.4375 C13.3125,7.515625 13.53125,7.6875 13.609375,8.046875 L12.984375,8.109375 C14.09375,8.5625 15.4375,9.234375 16.171875,9.796875 C16.65625,9.8125 16.9375,9.84375 17.140625,10.03125 L15.484375,11.59375 L14.5625,10.703125 L7.078125,10.703125 L7.296875,9.984375 L14.203125,9.984375 C13.578125,9.359375 12.765625,8.6875 12.125,8.1875 Z M16.203125,17.828125 C15.625,16.515625 14.65625,14.78125 13.796875,13.5625 L6.234375,13.5625 C6.21875,13.84375 6.125,14.1875 6.03125,14.515625 L5.609375,14.5 C5.71875,13.375 5.15625,12.21875 4.4375,11.8125 C4.015625,11.546875 3.71875,11.109375 3.90625,10.6875 C4.15625,10.203125 4.875,10.265625 5.359375,10.609375 C5.859375,10.96875 6.28125,11.71875 6.3125,12.84375 L17.8125,12.84375 C17.5625,12.125 17.234375,11.25 16.96875,10.703125 L17.28125,10.53125 C18.046875,11.046875 19.03125,11.953125 19.578125,12.59375 C20.046875,12.625 20.328125,12.640625 20.5,12.84375 L18.75,14.546875 L17.78125,13.5625 L14.5,13.5625 C15.625,14.5 16.75,15.625 17.46875,16.53125 C17.96875,16.46875 18.3125,16.625 18.4375,16.875 Z" transform="translate(-0.0078125, 20.28125) scale(1, -1)"/>
</svg>