<svg height="22.328125" viewBox="0 0 24 22.328125" width="24" xmlns="http://www.w3.org/2000/svg">
<path d="M11.15625,7.03125 L10.875,6.859375 C11.5625,6.125 12.390625,4.890625 12.546875,3.90625 C13.9375,2.8125 15.3125,5.65625 11.15625,7.03125 Z M4.421875,-1.78125 C2.828125,1.625 2.140625,5.140625 2.140625,9.125 C2.140625,13.125 2.828125,16.609375 4.421875,20.015625 L3.84375,20.28125 C1.875,17.0625 0.8125,13.296875 0.8125,9.125 C0.8125,4.96875 1.84375,1.171875 3.84375,-2.046875 Z M20.1875,-2.046875 C22.15625,1.171875 23.203125,4.96875 23.203125,9.125 C23.203125,13.296875 22.15625,17.0625 20.15625,20.28125 L19.578125,20.015625 C21.1875,16.609375 21.859375,13.125 21.859375,9.125 C21.859375,5.140625 21.1875,1.625 19.578125,-1.78125 Z M13.96875,17.8125 L13.96875,15.140625 L10.484375,15.140625 L10.6875,14.453125 L13.96875,14.453125 L13.96875,11.875 L9.765625,11.875 L9.953125,11.15625 L19.828125,11.15625 C20.15625,11.15625 20.40625,11.28125 20.453125,11.546875 C19.796875,12.1875 18.75,13.0625 18.75,13.0625 L17.8125,11.875 L15.40625,11.875 L15.40625,14.453125 L18.765625,14.453125 C19.109375,14.453125 19.3125,14.5625 19.375,14.828125 C18.75,15.453125 17.71875,16.3125 17.71875,16.3125 L16.828125,15.140625 L15.40625,15.140625 L15.40625,16.96875 C15.953125,17.0625 16.15625,17.28125 16.203125,17.59375 Z M15.90625,10.78125 L15.90625,8.40625 L9.84375,8.40625 L10.03125,7.703125 L15.90625,7.703125 L15.90625,2.609375 C15.90625,2.296875 15.8125,2.15625 15.4375,2.15625 C15,2.15625 12.890625,2.328125 12.890625,2.328125 L12.890625,1.9375 C13.828125,1.828125 14.359375,1.65625 14.6875,1.421875 C14.953125,1.171875 15.078125,0.8125 15.125,0.40625 C17.140625,0.59375 17.375,1.3125 17.375,2.546875 L17.375,7.703125 L19.875,7.703125 C20.203125,7.703125 20.421875,7.828125 20.5,8.09375 C19.875,8.71875 18.84375,9.546875 18.84375,9.546875 L17.96875,8.40625 L17.375,8.40625 L17.375,9.90625 C17.921875,9.984375 18.171875,10.171875 18.21875,10.515625 Z M6.796875,16.109375 L6.796875,13.515625 L5.546875,13.515625 C5.734375,14.203125 5.90625,14.921875 6.03125,15.640625 C6.453125,15.671875 6.703125,15.859375 6.796875,16.109375 Z M3.546875,8.015625 L4.484375,6.265625 C4.703125,6.34375 4.890625,6.546875 4.96875,6.84375 L6.796875,7.6875 L6.796875,0.34375 L7.078125,0.34375 C7.609375,0.34375 8.203125,0.671875 8.203125,0.890625 L8.203125,8.375 L11.046875,9.75 L10.921875,10.109375 L8.203125,9.28125 L8.203125,12.8125 L10.46875,12.8125 C10.78125,12.8125 10.984375,12.9375 11.0625,13.203125 C10.484375,13.828125 9.546875,14.65625 9.546875,14.65625 L8.734375,13.515625 L8.203125,13.515625 L8.203125,16.9375 C8.734375,17.046875 8.90625,17.25 8.953125,17.546875 L6.796875,17.78125 L6.796875,16.21875 L4.703125,16.578125 C4.578125,14.296875 4.21875,11.859375 3.640625,10.078125 L4.078125,9.890625 C4.578125,10.703125 5.015625,11.71875 5.359375,12.8125 L6.796875,12.8125 L6.796875,8.875 C5.40625,8.5 4.21875,8.15625 3.546875,8.015625 Z" transform="translate(-0.0078125, 20.28125) scale(1, -1)"/>
</svg>