<svg height="22.328125" viewBox="0 0 24 22.328125" width="24" xmlns="http://www.w3.org/2000/svg">
<path d="M4.421875,-1.78125 C2.8125,1.609375 2.109375,5.109375 2.109375,9.125 C2.109375,13.109375 2.8125,16.578125 4.421875,20.015625 L3.84375,20.28125 C1.84375,17.0625 0.796875,13.265625 0.796875,9.125 C0.796875,4.9375 1.84375,1.171875 3.8125,-2.046875 Z M20.15625,-2.046875 C22.15625,1.171875 23.1875,4.9375 23.1875,9.125 C23.1875,13.265625 22.125,17.0625 20.140625,20.28125 L19.578125,20.015625 C21.171875,16.578125 21.859375,13.109375 21.859375,9.125 C21.859375,5.109375 21.171875,1.609375 19.578125,-1.78125 Z M10.609375,18.09375 C10.3125,17.015625 9.9375,15.890625 9.453125,14.734375 L3.9375,14.734375 L4.125,14.015625 L9.140625,14.015625 C7.84375,11.203125 6,8.421875 3.59375,6.4375 L3.859375,6.140625 C5.515625,7.203125 6.9375,8.515625 8.140625,9.984375 L8.140625,0.34375 L8.375,0.34375 C9.09375,0.34375 9.578125,0.71875 9.578125,0.84375 L9.578125,4.890625 L15.796875,4.890625 L15.796875,2.609375 C15.796875,2.28125 15.703125,2.140625 15.28125,2.140625 C14.828125,2.140625 12.8125,2.28125 12.8125,2.28125 L12.8125,1.921875 C13.734375,1.796875 14.25,1.625 14.5625,1.375 C14.828125,1.15625 14.953125,0.796875 15.03125,0.359375 C17.046875,0.546875 17.28125,1.265625 17.28125,2.453125 L17.28125,10.484375 C17.765625,10.578125 18.140625,10.78125 18.3125,10.96875 L16.3125,12.4375 L15.546875,11.5 L9.890625,11.5 L9.40625,11.71875 C9.9375,12.453125 10.390625,13.25 10.78125,14.015625 L19.4375,14.015625 C19.75,14.015625 19.984375,14.140625 20.046875,14.40625 C19.265625,15.140625 18.046875,16.15625 18.046875,16.15625 L16.9375,14.734375 L11.140625,14.734375 C11.5,15.484375 11.8125,16.21875 12.078125,16.921875 C12.703125,16.875 12.90625,17.015625 13.03125,17.296875 Z M9.578125,10.78125 L15.796875,10.78125 L15.796875,8.609375 L9.578125,8.609375 Z M9.578125,7.890625 L15.796875,7.890625 L15.796875,5.59375 L9.578125,5.59375 Z" transform="translate(0.0078125, 20.28125) scale(1, -1)"/>
</svg>