<svg height="22.328125" viewBox="0 0 24 22.328125" width="24" xmlns="http://www.w3.org/2000/svg">
<path d="M10.578125,14.28125 L10.25,14.15625 C10.78125,12.9375 11.421875,11.046875 11.421875,9.625 C12.59375,8.375 13.984375,11.15625 10.578125,14.28125 Z M17.640625,14.46875 C17.375,13.21875 16.6875,10.796875 16.125,9.265625 L16.4375,9.125 C17.40625,10.484375 18.359375,12.21875 18.890625,13.25 C19.375,13.203125 19.65625,13.4375 19.703125,13.65625 Z M4.421875,-1.78125 C2.828125,1.625 2.140625,5.140625 2.140625,9.125 C2.140625,13.109375 2.828125,16.609375 4.421875,20.015625 L3.859375,20.28125 C1.875,17.0625 0.8125,13.265625 0.8125,9.125 C0.8125,4.96875 1.84375,1.171875 3.84375,-2.046875 Z M20.1875,-2.046875 C22.171875,1.171875 23.203125,4.96875 23.203125,9.125 C23.203125,13.265625 22.15625,17.0625 20.15625,20.28125 L19.609375,20.015625 C21.1875,16.609375 21.890625,13.109375 21.890625,9.125 C21.890625,5.140625 21.1875,1.625 19.609375,-1.78125 Z M17.6875,17.65625 C16.109375,16.890625 13.015625,15.984375 10.34375,15.640625 L10.4375,15.21875 C11.59375,15.21875 12.8125,15.3125 13.96875,15.453125 L13.96875,8.1875 L9.75,8.1875 L9.9375,7.484375 L13.96875,7.484375 L13.96875,2.609375 C13.96875,2.28125 13.875,2.140625 13.421875,2.140625 C12.90625,2.140625 10.53125,2.328125 10.53125,2.328125 L10.53125,1.9375 C11.609375,1.828125 12.21875,1.625 12.578125,1.390625 C12.859375,1.171875 13.015625,0.796875 13.03125,0.390625 C15.140625,0.59375 15.40625,1.421875 15.40625,2.5625 L15.40625,7.484375 L19.828125,7.484375 C20.140625,7.484375 20.375,7.609375 20.421875,7.875 C19.78125,8.515625 18.75,9.390625 18.75,9.390625 L17.828125,8.1875 L15.40625,8.1875 L15.40625,15.640625 C16.46875,15.8125 17.421875,16.015625 18.1875,16.203125 C18.71875,16.03125 19.125,16.015625 19.3125,16.203125 Z M7.890625,15.1875 L7.890625,7.078125 L5.828125,7.078125 L5.828125,15.1875 Z M4.484375,15.90625 L4.484375,3.703125 L4.734375,3.703125 C5.296875,3.703125 5.828125,4.03125 5.828125,4.171875 L5.828125,6.359375 L7.890625,6.359375 L7.890625,4.609375 L8.09375,4.609375 C8.5625,4.609375 9.234375,4.96875 9.265625,5.109375 L9.265625,15.046875 C9.625,15.09375 9.953125,15.265625 10.109375,15.4375 L8.453125,16.703125 L7.6875,15.90625 L5.953125,15.90625 L4.484375,16.609375 Z" transform="translate(-0.0078125, 20.28125) scale(1, -1)"/>
</svg>