<svg height="22.296875" viewBox="0 0 24 22.296875" width="24" xmlns="http://www.w3.org/2000/svg">
<path d="M8.546875,10.3125 L8.734375,9.625 L15.078125,9.625 C15.390625,9.625 15.59375,9.75 15.671875,10.015625 C15.09375,10.625 14.09375,11.453125 14.09375,11.453125 L13.25,10.3125 Z M14.203125,5.828125 L13.96875,5.609375 C15.265625,4.6875 16.984375,3.03125 17.546875,1.734375 C19.203125,0.8125 19.984375,4.203125 14.203125,5.828125 Z M8.09375,6.09375 C7.421875,4.78125 5.96875,2.859375 4.5625,1.6875 L4.828125,1.375 C6.578125,2.25 8.296875,3.703125 9.265625,4.828125 C9.796875,4.703125 9.984375,4.828125 10.15625,5.0625 Z M4.421875,-1.75 C2.8125,1.65625 2.109375,5.109375 2.109375,9.125 C2.109375,13.125 2.8125,16.578125 4.421875,20.015625 L3.84375,20.28125 C1.875,17.046875 0.8125,13.296875 0.8125,9.125 C0.8125,4.9375 1.84375,1.21875 3.8125,-2.015625 Z M20.15625,-2.015625 C22.125,1.21875 23.15625,4.9375 23.15625,9.125 C23.15625,13.296875 22.109375,17.046875 20.15625,20.28125 L19.5625,20.015625 C21.1875,16.578125 21.890625,13.125 21.890625,9.125 C21.890625,5.109375 21.1875,1.65625 19.5625,-1.75 Z M12.75,17.609375 L12.28125,17.40625 C13.375,13.171875 15.765625,10.03125 19.203125,8.1875 C19.4375,8.78125 19.84375,9.171875 20.421875,9.21875 L20.453125,9.453125 C18.75,10.125 17.1875,11.140625 15.890625,12.4375 C16.84375,13.21875 17.921875,14.359375 18.53125,15.234375 C18.984375,15.265625 19.296875,15.3125 19.46875,15.484375 L17.78125,17.140625 L16.84375,16.171875 L14.046875,16.171875 L14.25,15.484375 L16.84375,15.484375 C16.515625,14.640625 16.015625,13.578125 15.53125,12.796875 C14.28125,14.15625 13.296875,15.796875 12.75,17.609375 Z M5.328125,7.625 L5.515625,6.90625 L11.359375,6.90625 L11.359375,2.40625 C11.359375,2.109375 11.25,1.984375 10.875,1.984375 C10.4375,1.984375 8.5,2.109375 8.5,2.109375 L8.5,1.75 C9.40625,1.625 9.9375,1.46875 10.203125,1.25 C10.46875,1.03125 10.578125,0.640625 10.625,0.234375 C12.53125,0.4375 12.8125,1.203125 12.8125,2.375 L12.8125,6.90625 L17.96875,6.90625 C18.28125,6.90625 18.5,7.03125 18.578125,7.296875 C17.953125,7.9375 16.890625,8.765625 16.890625,8.765625 L16.015625,7.625 Z M7.390625,17.953125 C6.578125,15.578125 5.09375,13.15625 3.546875,11.765625 L3.859375,11.46875 C4.421875,11.8125 4.9375,12.21875 5.453125,12.671875 C5.96875,12.234375 6.5,11.59375 6.671875,11.015625 C7.734375,10.265625 8.640625,12.3125 5.78125,13.015625 C6.140625,13.34375 6.484375,13.734375 6.796875,14.109375 C7.375,13.75 7.921875,13.203125 8.1875,12.71875 C8.421875,12.59375 8.65625,12.59375 8.828125,12.671875 C7.625,10.828125 5.90625,9.171875 3.71875,8.015625 L3.9375,7.625 C7.921875,9.234375 10.375,11.96875 11.640625,15.125 C12.1875,15.171875 12.453125,15.21875 12.625,15.40625 L11.046875,16.84375 L10.078125,15.953125 L8.09375,15.953125 L8.515625,16.78125 C9,16.703125 9.3125,16.890625 9.40625,17.15625 Z M9.140625,13.21875 C9.125,13.6875 8.5625,14.28125 7.109375,14.5 L7.625,15.234375 L10.078125,15.234375 C9.84375,14.546875 9.53125,13.875 9.140625,13.21875 Z" transform="translate(0.015625, 20.28125) scale(1, -1)"/>
</svg>