<svg height="22.328125" viewBox="0 0 24 22.328125" width="24" xmlns="http://www.w3.org/2000/svg">
<path d="M12,-2.046875 C18.171875,-2.046875 23.0625,2.828125 23.0625,9.125 C23.0625,15.390625 18.171875,20.28125 12,20.28125 C5.828125,20.28125 0.9375,15.390625 0.9375,9.125 C0.9375,2.859375 5.828125,-2.046875 12,-2.046875 Z M12,-1.375 C6.21875,-1.375 1.65625,3.21875 1.65625,9.125 C1.65625,15.03125 6.21875,19.609375 12,19.609375 C17.765625,19.609375 22.34375,15.03125 22.34375,9.125 C22.34375,3.21875 17.765625,-1.375 12,-1.375 Z M4.4375,3.1875 L11.546875,3.1875 L11.546875,4.515625 L5.5625,4.515625 C10.21875,9.21875 11.109375,10.734375 11.109375,12.625 C11.109375,14.5 9.9375,15.8125 7.828125,15.8125 C6.1875,15.8125 4.875,15 4.53125,13.34375 C4.6875,12.984375 4.921875,12.796875 5.234375,12.796875 C5.8125,12.796875 6.078125,13.015625 6.484375,15 C6.796875,15.140625 7.125,15.1875 7.484375,15.1875 C8.8125,15.1875 9.53125,14.0625 9.53125,12.546875 C9.53125,10.9375 9,9.40625 4.4375,4.15625 Z M15.90625,2.921875 C18.21875,2.921875 19.578125,4.15625 19.578125,5.96875 C19.578125,7.625 18.796875,8.6875 16.78125,9.84375 C18.546875,10.75 19.171875,11.765625 19.171875,12.984375 C19.171875,14.59375 18.09375,15.8125 16.109375,15.8125 C14.28125,15.8125 12.890625,14.515625 12.890625,12.75 C12.890625,11.15625 13.625,10.0625 15.171875,9.1875 C13.390625,8.25 12.53125,7.296875 12.53125,5.828125 C12.53125,4.109375 13.6875,2.921875 15.90625,2.921875 Z M16.375,10.0625 C14.640625,11.046875 14.1875,11.953125 14.1875,13.0625 C14.1875,14.359375 15.078125,15.21875 16.078125,15.21875 C17.28125,15.21875 17.953125,14.25 17.953125,13.109375 C17.953125,11.859375 17.5,11.109375 16.375,10.0625 Z M15.59375,8.953125 C17.734375,7.796875 18.234375,6.90625 18.234375,5.71875 C18.234375,4.3125 17.40625,3.5 16.03125,3.5 C14.65625,3.5 13.796875,4.484375 13.796875,5.953125 C13.796875,7.125 14.296875,7.875 15.59375,8.953125 Z" transform="translate(0, 20.28125) scale(1, -1)"/>
</svg>