<svg height="24" viewBox="0 0 24 24" width="24" xmlns="http://www.w3.org/2000/svg">
<path d="M8.09375,13.125 L8.875,13.125 L9.3125,17.25 L11.0625,17.25 L11.09375,9.671875 L11.09375,8.28125 C11.09375,5.78125 11.09375,3.265625 11.0625,0.8125 L9,0.671875 L9,0 L14.765625,0 L14.765625,0.671875 L12.703125,0.8125 C12.671875,3.28125 12.671875,5.78125 12.671875,8.28125 L12.671875,9.671875 L12.703125,17.25 L14.453125,17.25 L14.875,13.125 L15.671875,13.125 L15.546875,17.921875 L8.203125,17.921875 Z M16.78125,17.28125 L17.828125,17.15625 C17.859375,14.6875 17.859375,12.171875 17.859375,9.640625 L17.859375,8.28125 C17.859375,5.765625 17.859375,3.234375 17.828125,0.765625 L16.78125,0.671875 L16.78125,0 L23.15625,0 L23.328125,4.46875 L22.46875,4.46875 L22.03125,0.703125 L19.421875,0.703125 C19.375,3.171875 19.375,5.71875 19.375,8.734375 L20.953125,8.734375 L21.234375,6.21875 L21.90625,6.21875 L21.90625,11.953125 L21.234375,11.953125 L20.953125,9.4375 L19.375,9.4375 C19.375,12.21875 19.375,14.78125 19.421875,17.234375 L21.796875,17.234375 L22.25,13.46875 L23.109375,13.46875 L22.9375,17.921875 L16.78125,17.921875 Z M0.484375,17.28125 L1.390625,17.1875 C1.4375,14.71875 1.4375,12.171875 1.4375,9.640625 L1.4375,8.28125 C1.4375,5.765625 1.4375,3.21875 1.390625,0.75 L0.453125,0.671875 L0.453125,0 L4.21875,0 L4.21875,0.671875 L2.921875,0.765625 L2.90625,7.3125 L3.265625,7.3125 C5.71875,7.3125 7.21875,9.046875 7.21875,12.640625 C7.21875,16.25 6.078125,17.921875 3.578125,17.921875 L0.484375,17.921875 Z M2.90625,7.96875 L2.90625,9.640625 C2.90625,12.140625 2.90625,14.734375 2.953125,17.234375 L3.390625,17.234375 C4.984375,17.234375 5.734375,15.859375 5.734375,12.703125 C5.734375,9.453125 4.84375,7.96875 3.28125,7.96875 Z" transform="translate(0.109375, 17.921875) scale(1, -1)"/>
</svg>