<svg height="22.328125" viewBox="0 0 24 22.328125" width="24" xmlns="http://www.w3.org/2000/svg">
<path d="M12,-2.046875 C18.171875,-2.046875 23.0625,2.828125 23.0625,9.125 C23.0625,15.390625 18.171875,20.28125 12,20.28125 C5.828125,20.28125 0.9375,15.390625 0.9375,9.125 C0.9375,2.859375 5.828125,-2.046875 12,-2.046875 Z M12,-1.375 C6.21875,-1.375 1.65625,3.21875 1.65625,9.125 C1.65625,15.03125 6.21875,19.609375 12,19.609375 C17.765625,19.609375 22.34375,15.03125 22.34375,9.125 C22.34375,3.21875 17.765625,-1.375 12,-1.375 Z M4.921875,3.1875 L12.03125,3.1875 L12.03125,4.515625 L6.046875,4.515625 C10.703125,9.21875 11.59375,10.734375 11.59375,12.625 C11.59375,14.5 10.421875,15.8125 8.296875,15.8125 C6.671875,15.8125 5.359375,15 5.015625,13.34375 C5.15625,12.984375 5.40625,12.796875 5.71875,12.796875 C6.28125,12.796875 6.546875,13.015625 6.953125,15 C7.265625,15.140625 7.609375,15.1875 7.96875,15.1875 C9.28125,15.1875 10.015625,14.0625 10.015625,12.546875 C10.015625,10.9375 9.484375,9.40625 4.921875,4.15625 Z M15.03125,3.1875 L18.34375,3.1875 L18.34375,3.765625 L16.65625,3.859375 L16.625,7.21875 L16.625,12.765625 L16.703125,15.53125 L16.46875,15.75 L13.375,14.875 L13.375,14.234375 L15.078125,14.5625 L15.078125,7.21875 L15.046875,3.890625 L13.265625,3.765625 L13.265625,3.1875 Z" transform="translate(0, 20.28125) scale(1, -1)"/>
</svg>