<svg height="22.328125" viewBox="0 0 24 22.328125" width="24" xmlns="http://www.w3.org/2000/svg">
<path d="M12,-2.046875 C18.171875,-2.046875 23.0625,2.828125 23.0625,9.125 C23.0625,15.390625 18.171875,20.28125 12,20.28125 C5.828125,20.28125 0.9375,15.390625 0.9375,9.125 C0.9375,2.859375 5.828125,-2.046875 12,-2.046875 Z M12,-1.375 C6.21875,-1.375 1.65625,3.21875 1.65625,9.125 C1.65625,15.03125 6.21875,19.609375 12,19.609375 C17.765625,19.609375 22.34375,15.03125 22.34375,9.125 C22.34375,3.21875 17.765625,-1.375 12,-1.375 Z M4.4375,3.1875 L11.546875,3.1875 L11.546875,4.515625 L5.5625,4.515625 C10.21875,9.21875 11.109375,10.734375 11.109375,12.625 C11.109375,14.5 9.9375,15.8125 7.828125,15.8125 C6.1875,15.8125 4.875,15 4.53125,13.34375 C4.6875,12.984375 4.921875,12.796875 5.234375,12.796875 C5.8125,12.796875 6.078125,13.015625 6.484375,15 C6.796875,15.140625 7.125,15.1875 7.484375,15.1875 C8.8125,15.1875 9.53125,14.0625 9.53125,12.546875 C9.53125,10.9375 9,9.40625 4.4375,4.15625 Z M12.53125,3.1875 L19.65625,3.1875 L19.65625,4.515625 L13.6875,4.515625 C18.3125,9.21875 19.203125,10.734375 19.203125,12.625 C19.203125,14.5 18.046875,15.8125 15.9375,15.8125 C14.296875,15.8125 12.953125,15 12.625,13.34375 C12.765625,12.984375 13.03125,12.796875 13.3125,12.796875 C13.921875,12.796875 14.1875,13.015625 14.5625,15 C14.90625,15.140625 15.21875,15.1875 15.578125,15.1875 C16.921875,15.1875 17.640625,14.0625 17.640625,12.546875 C17.640625,10.9375 17.109375,9.40625 12.53125,4.15625 Z" transform="translate(0, 20.28125) scale(1, -1)"/>
</svg>