<svg height="22.328125" viewBox="0 0 24 22.328125" width="24" xmlns="http://www.w3.org/2000/svg">
<path d="M16.03125,2.921875 C17.953125,2.921875 19.578125,4.609375 19.578125,9.34375 C19.578125,14.0625 17.953125,15.8125 16.03125,15.8125 C14.109375,15.8125 12.5,14.0625 12.5,9.34375 C12.5,4.609375 14.109375,2.921875 16.03125,2.921875 Z M16.03125,3.5 C15,3.5 14.109375,4.609375 14.109375,9.34375 C14.109375,14.109375 15,15.21875 16.03125,15.21875 C17.0625,15.21875 18,14.09375 18,9.34375 C18,4.609375 17.0625,3.5 16.03125,3.5 Z M12,-2.046875 C18.171875,-2.046875 23.0625,2.828125 23.0625,9.125 C23.0625,15.390625 18.171875,20.28125 12,20.28125 C5.828125,20.28125 0.9375,15.390625 0.9375,9.125 C0.9375,2.859375 5.828125,-2.046875 12,-2.046875 Z M12,-1.375 C6.21875,-1.375 1.65625,3.21875 1.65625,9.125 C1.65625,15.03125 6.21875,19.609375 12,19.609375 C17.765625,19.609375 22.34375,15.03125 22.34375,9.125 C22.34375,3.21875 17.765625,-1.375 12,-1.375 Z M7.65625,2.921875 C10.015625,2.921875 11.546875,4.25 11.546875,6.40625 C11.546875,8.1875 10.578125,9.390625 8.546875,9.671875 C10.34375,10.078125 11.09375,11.375 11.09375,12.71875 C11.09375,14.5 9.953125,15.8125 7.921875,15.8125 C6.34375,15.8125 4.890625,15.140625 4.609375,13.390625 C4.703125,13.109375 4.96875,12.90625 5.28125,12.90625 C5.78125,12.90625 6.09375,13.109375 6.453125,15.03125 C6.796875,15.140625 7.125,15.1875 7.53125,15.1875 C8.765625,15.1875 9.578125,14.234375 9.578125,12.671875 C9.578125,10.875 8.546875,9.90625 6.984375,9.90625 L6.28125,9.90625 L6.28125,9.3125 L7.0625,9.3125 C8.953125,9.3125 9.9375,8.328125 9.9375,6.453125 C9.9375,4.609375 8.953125,3.546875 7.203125,3.546875 C6.75,3.546875 6.40625,3.59375 6.09375,3.71875 C5.765625,5.78125 5.5,5.96875 4.96875,5.96875 C4.65625,5.96875 4.375,5.765625 4.265625,5.375 C4.5625,3.765625 5.6875,2.921875 7.65625,2.921875 Z" transform="translate(0, 20.28125) scale(1, -1)"/>
</svg>