<svg height="22.328125" viewBox="0 0 24 22.328125" width="24" xmlns="http://www.w3.org/2000/svg">
<path d="M12,-2.046875 C18.171875,-2.046875 23.0625,2.828125 23.0625,9.125 C23.0625,15.390625 18.171875,20.28125 12,20.28125 C5.828125,20.28125 0.9375,15.390625 0.9375,9.125 C0.9375,2.859375 5.828125,-2.046875 12,-2.046875 Z M12,-1.375 C6.21875,-1.375 1.65625,3.21875 1.65625,9.125 C1.65625,15.03125 6.21875,19.609375 12,19.609375 C17.765625,19.609375 22.34375,15.03125 22.34375,9.125 C22.34375,3.21875 17.765625,-1.375 12,-1.375 Z M4.4375,3.1875 L11.546875,3.1875 L11.546875,4.515625 L5.5625,4.515625 C10.21875,9.21875 11.109375,10.734375 11.109375,12.625 C11.109375,14.5 9.9375,15.8125 7.828125,15.8125 C6.1875,15.8125 4.875,15 4.53125,13.34375 C4.6875,12.984375 4.921875,12.796875 5.234375,12.796875 C5.8125,12.796875 6.078125,13.015625 6.484375,15 C6.796875,15.140625 7.125,15.1875 7.484375,15.1875 C8.8125,15.1875 9.53125,14.0625 9.53125,12.546875 C9.53125,10.9375 9,9.40625 4.4375,4.15625 Z M15.9375,2.921875 C18.40625,2.921875 19.96875,4.421875 19.96875,6.9375 C19.96875,9.359375 18.546875,10.828125 16.3125,10.828125 C15.484375,10.828125 14.765625,10.65625 14.0625,10.265625 L14.296875,14.140625 L19.390625,14.140625 L19.390625,15.5 L13.625,15.5 L13.296875,9.546875 L13.703125,9.40625 C14.359375,9.859375 15.125,10.0625 15.84375,10.0625 C17.375,10.0625 18.390625,8.96875 18.390625,6.796875 C18.390625,4.6875 17.359375,3.546875 15.625,3.546875 C15.125,3.546875 14.765625,3.59375 14.421875,3.71875 C14.0625,5.78125 13.75,6 13.296875,6 C12.9375,6 12.640625,5.734375 12.59375,5.328125 C12.90625,3.640625 14.1875,2.921875 15.9375,2.921875 Z" transform="translate(0, 20.28125) scale(1, -1)"/>
</svg>