<svg height="22.796875" viewBox="0 0 24 22.796875" width="24" xmlns="http://www.w3.org/2000/svg">
<path d="M12,20.515625 C5.765625,20.515625 0.59375,15.453125 0.59375,9.125 C0.59375,2.828125 5.71875,-2.28125 12,-2.28125 C18.28125,-2.28125 23.40625,2.828125 23.40625,9.125 C23.40625,15.40625 18.28125,20.515625 12,20.515625 Z M12,-1.5625 C6.140625,-1.5625 1.3125,3.171875 1.3125,9.125 C1.3125,15.03125 6.09375,19.796875 12,19.796875 C17.90625,19.796875 22.6875,15.03125 22.6875,9.125 C22.6875,3.21875 17.90625,-1.5625 12,-1.5625 Z M11.28125,16.4375 L11.28125,12.390625 L4.875,12.390625 L5.0625,11.6875 L10.375,11.6875 C9.1875,8.78125 7.296875,6.03125 4.78125,4.03125 L5.0625,3.625 C7.75,5.375 9.859375,7.609375 11.28125,10.25 L11.28125,1.890625 L11.546875,1.890625 C12.078125,1.890625 12.640625,2.234375 12.640625,2.421875 L12.640625,11.46875 C13.828125,8.15625 15.8125,5.515625 18.078125,3.953125 C18.265625,4.609375 18.71875,4.984375 19.265625,5.046875 L19.3125,5.296875 C16.921875,6.453125 14.5,8.859375 13.125,11.6875 L18.75,11.6875 C19.0625,11.6875 19.265625,11.8125 19.34375,12.078125 C18.703125,12.71875 17.640625,13.53125 17.640625,13.53125 L16.703125,12.390625 L12.640625,12.390625 L12.640625,15.671875 C13.109375,15.75 13.296875,15.9375 13.34375,16.21875 Z" transform="translate(0, 20.515625) scale(1, -1)"/>
</svg>