<svg height="22.796875" viewBox="0 0 24 22.796875" width="24" xmlns="http://www.w3.org/2000/svg">
<path d="M12,20.515625 C5.765625,20.515625 0.59375,15.453125 0.59375,9.125 C0.59375,2.828125 5.71875,-2.28125 12,-2.28125 C18.28125,-2.28125 23.40625,2.828125 23.40625,9.125 C23.40625,15.40625 18.28125,20.515625 12,20.515625 Z M12,-1.5625 C6.140625,-1.5625 1.3125,3.171875 1.3125,9.125 C1.3125,15.03125 6.09375,19.796875 12,19.796875 C17.90625,19.796875 22.6875,15.03125 22.6875,9.125 C22.6875,3.21875 17.90625,-1.5625 12,-1.5625 Z M5.6875,11.40625 L5.875,10.703125 L11.15625,10.703125 L11.15625,3.859375 L4.828125,3.859375 L5.015625,3.171875 L18.71875,3.171875 C19.03125,3.171875 19.265625,3.28125 19.34375,3.546875 C18.671875,4.203125 17.609375,5.046875 17.609375,5.046875 L16.703125,3.859375 L12.578125,3.859375 L12.578125,10.703125 L17.859375,10.703125 C18.171875,10.703125 18.390625,10.828125 18.453125,11.09375 C17.828125,11.71875 16.828125,12.53125 16.828125,12.53125 L15.9375,11.40625 L12.578125,11.40625 L12.578125,15.84375 C13.03125,15.90625 13.21875,16.109375 13.25,16.390625 L11.15625,16.625 L11.15625,11.40625 Z" transform="translate(0, 20.515625) scale(1, -1)"/>
</svg>