<svg height="22.796875" viewBox="0 0 24 22.796875" width="24" xmlns="http://www.w3.org/2000/svg">
<path d="M12,20.515625 C5.765625,20.515625 0.59375,15.453125 0.59375,9.125 C0.59375,2.828125 5.71875,-2.28125 12,-2.28125 C18.28125,-2.28125 23.40625,2.828125 23.40625,9.125 C23.40625,15.40625 18.28125,20.515625 12,20.515625 Z M12,-1.5625 C6.140625,-1.5625 1.3125,3.171875 1.3125,9.125 C1.3125,15.03125 6.09375,19.796875 12,19.796875 C17.90625,19.796875 22.6875,15.03125 22.6875,9.125 C22.6875,3.21875 17.90625,-1.5625 12,-1.5625 Z M17.234375,13.625 C16.609375,12.59375 15.40625,10.96875 14.296875,9.8125 C13.609375,11.015625 13.0625,12.453125 12.703125,14.15625 L12.703125,15.703125 C13.296875,15.796875 13.4375,15.984375 13.515625,16.3125 L11.359375,16.5625 L11.359375,4.125 C11.359375,3.8125 11.234375,3.703125 10.84375,3.703125 C10.4375,3.703125 8.46875,3.84375 8.46875,3.84375 L8.46875,3.453125 C9.390625,3.34375 9.859375,3.1875 10.171875,3 C10.4375,2.78125 10.5625,2.421875 10.609375,2.0625 C12.484375,2.25 12.703125,2.90625 12.703125,4.078125 L12.703125,12.671875 C13.734375,8.046875 15.671875,5.46875 18.234375,3.5 C18.4375,4.125 18.84375,4.53125 19.375,4.609375 L19.421875,4.875 C17.65625,5.859375 15.90625,7.21875 14.59375,9.359375 C15.953125,10.21875 17.359375,11.40625 18.21875,12.265625 C18.71875,12.09375 18.9375,12.171875 19.109375,12.40625 Z M4.890625,12.03125 L5.109375,11.328125 L8.734375,11.328125 C8.15625,8.546875 6.84375,5.640625 4.609375,3.75 L4.875,3.390625 C7.890625,5.296875 9.4375,8.28125 10.171875,11.203125 C10.703125,11.234375 10.9375,11.296875 11.109375,11.515625 L9.53125,12.90625 L8.609375,12.03125 Z" transform="translate(0, 20.515625) scale(1, -1)"/>
</svg>