<svg height="22.796875" viewBox="0 0 24 22.796875" width="24" xmlns="http://www.w3.org/2000/svg">
<path d="M12,20.515625 C5.765625,20.515625 0.59375,15.453125 0.59375,9.125 C0.59375,2.828125 5.71875,-2.28125 12,-2.28125 C18.28125,-2.28125 23.40625,2.828125 23.40625,9.125 C23.40625,15.40625 18.28125,20.515625 12,20.515625 Z M12,-1.5625 C6.140625,-1.5625 1.3125,3.171875 1.3125,9.125 C1.3125,15.03125 6.09375,19.796875 12,19.796875 C17.90625,19.796875 22.6875,15.03125 22.6875,9.125 C22.6875,3.21875 17.90625,-1.5625 12,-1.5625 Z M4.78125,10.421875 L4.96875,9.703125 L11.203125,9.703125 L11.203125,1.890625 L11.46875,1.890625 C12,1.890625 12.625,2.234375 12.625,2.421875 L12.625,9.703125 L18.765625,9.703125 C19.109375,9.703125 19.34375,9.8125 19.421875,10.078125 C18.640625,10.796875 17.421875,11.765625 17.421875,11.765625 L16.375,10.421875 L12.625,10.421875 L12.625,15.546875 C13.109375,15.625 13.265625,15.8125 13.3125,16.109375 L11.203125,16.34375 L11.203125,10.421875 Z" transform="translate(0, 20.515625) scale(1, -1)"/>
</svg>