<svg height="22.796875" viewBox="0 0 24 22.796875" width="24" xmlns="http://www.w3.org/2000/svg">
<path d="M12,20.515625 C5.765625,20.515625 0.59375,15.453125 0.59375,9.125 C0.59375,2.828125 5.71875,-2.28125 12,-2.28125 C18.28125,-2.28125 23.40625,2.828125 23.40625,9.125 C23.40625,15.40625 18.28125,20.515625 12,20.515625 Z M12,-1.5625 C6.140625,-1.5625 1.3125,3.171875 1.3125,9.125 C1.3125,15.03125 6.09375,19.796875 12,19.796875 C17.90625,19.796875 22.6875,15.03125 22.6875,9.125 C22.6875,3.21875 17.90625,-1.5625 12,-1.5625 Z M4.171875,9.859375 L4.515625,9.171875 L8.96875,9.890625 L8.96875,4.21875 C8.96875,3.078125 9.390625,2.65625 11.15625,2.65625 L13.515625,2.65625 C17.015625,2.65625 17.765625,2.90625 17.765625,3.59375 C17.765625,3.859375 17.640625,4.015625 17.109375,4.203125 L17.046875,7.15625 L16.734375,7.15625 C16.484375,5.90625 16.21875,4.609375 16.0625,4.265625 C15.953125,4.109375 15.84375,4.03125 15.59375,4.015625 C15.3125,3.984375 14.515625,3.984375 13.515625,3.984375 L11.359375,3.984375 C10.484375,3.984375 10.34375,4.125 10.34375,4.5625 L10.34375,10.109375 L18.390625,11.40625 C18.671875,11.453125 18.90625,11.640625 18.9375,11.90625 C18.140625,12.40625 16.875,13.171875 16.875,13.171875 L16.03125,11.734375 L10.34375,10.84375 L10.34375,15.3125 C10.875,15.40625 11.09375,15.640625 11.140625,15.9375 L8.96875,16.203125 L8.96875,10.625 Z" transform="translate(0, 20.515625) scale(1, -1)"/>
</svg>