<svg height="22.796875" viewBox="0 0 24 22.796875" width="24" xmlns="http://www.w3.org/2000/svg">
<path d="M12,20.515625 C5.765625,20.515625 0.59375,15.453125 0.59375,9.125 C0.59375,2.828125 5.71875,-2.28125 12,-2.28125 C18.28125,-2.28125 23.40625,2.828125 23.40625,9.125 C23.40625,15.40625 18.28125,20.515625 12,20.515625 Z M12,-1.5625 C6.140625,-1.5625 1.3125,3.171875 1.3125,9.125 C1.3125,15.03125 6.09375,19.796875 12,19.796875 C17.90625,19.796875 22.6875,15.03125 22.6875,9.125 C22.6875,3.21875 17.90625,-1.5625 12,-1.5625 Z M9.84375,17.015625 C9.84375,15.640625 9.84375,14.328125 9.796875,13.078125 L5.296875,13.078125 L5.546875,12.34375 L9.75,12.34375 C9.5,8.5625 8.609375,5.40625 5.234375,2.96875 L5.5625,2.5625 C9.796875,5.015625 10.78125,8.421875 11.09375,12.34375 L14.109375,12.34375 L14.109375,4.375 C14.109375,3.453125 14.359375,3.078125 15.578125,3.078125 L16.703125,3.078125 C18.703125,3.078125 19.25,3.359375 19.25,3.90625 C19.25,4.203125 19.171875,4.375 18.71875,4.53125 L18.640625,7.078125 L18.34375,7.078125 C18.140625,6.046875 17.90625,4.84375 17.8125,4.5625 C17.71875,4.390625 17.640625,4.375 17.515625,4.375 C17.375,4.34375 17.0625,4.34375 16.734375,4.34375 L15.890625,4.34375 C15.53125,4.34375 15.484375,4.421875 15.484375,4.703125 L15.484375,12.125 C15.9375,12.171875 16.203125,12.3125 16.34375,12.453125 L14.71875,13.921875 L13.890625,13.078125 L11.140625,13.078125 L11.234375,16.171875 C11.734375,16.25 11.96875,16.484375 12.03125,16.78125 Z" transform="translate(0, 20.515625) scale(1, -1)"/>
</svg>