<svg height="22.796875" viewBox="0 0 24 22.796875" width="24" xmlns="http://www.w3.org/2000/svg">
<path d="M7.796875,13.796875 C7.890625,12.28125 7.171875,10.796875 6.359375,10.203125 C5.953125,9.90625 5.6875,9.453125 5.921875,9.078125 C6.1875,8.609375 6.953125,8.765625 7.4375,9.1875 C8.1875,9.84375 8.875,11.453125 8.25,13.796875 Z M16.609375,13.828125 C16.15625,12.578125 15.140625,10.515625 14.15625,9.171875 L14.5,8.875 C15.765625,9.953125 17.015625,11.453125 17.765625,12.484375 C18.3125,12.359375 18.53125,12.484375 18.671875,12.71875 Z M12,20.515625 C5.765625,20.515625 0.59375,15.453125 0.59375,9.125 C0.59375,2.828125 5.71875,-2.28125 12,-2.28125 C18.28125,-2.28125 23.40625,2.828125 23.40625,9.125 C23.40625,15.40625 18.28125,20.515625 12,20.515625 Z M12,-1.5625 C6.140625,-1.5625 1.3125,3.171875 1.3125,9.125 C1.3125,15.03125 6.09375,19.796875 12,19.796875 C17.90625,19.796875 22.6875,15.03125 22.6875,9.125 C22.6875,3.21875 17.90625,-1.5625 12,-1.5625 Z M12.390625,15.984375 C12.90625,16.0625 13.125,16.3125 13.171875,16.609375 L11.015625,16.828125 C10.984375,10.390625 11.1875,5.78125 5.328125,2.6875 L5.609375,2.28125 C10.6875,4.515625 11.875,7.703125 12.21875,11.71875 C12.796875,7.25 14.140625,4.15625 17.71875,2.40625 C17.859375,3.125 18.3125,3.359375 18.984375,3.4375 L19.03125,3.71875 C13.921875,5.78125 12.75,9.53125 12.390625,15.984375 Z" transform="translate(0, 20.515625) scale(1, -1)"/>
</svg>