<svg height="22.796875" viewBox="0 0 24 22.796875" width="24" xmlns="http://www.w3.org/2000/svg">
<path d="M12,20.515625 C5.765625,20.515625 0.59375,15.453125 0.59375,9.125 C0.59375,2.828125 5.71875,-2.28125 12,-2.28125 C18.28125,-2.28125 23.40625,2.828125 23.40625,9.125 C23.40625,15.40625 18.28125,20.515625 12,20.515625 Z M12,-1.5625 C6.140625,-1.5625 1.3125,3.171875 1.3125,9.125 C1.3125,15.03125 6.09375,19.796875 12,19.796875 C17.90625,19.796875 22.6875,15.03125 22.6875,9.125 C22.6875,3.21875 17.90625,-1.5625 12,-1.5625 Z M17.375,13.9375 L17.375,9.34375 L17.296875,9.359375 L17.203125,9.390625 L16.984375,9.390625 C16.875,9.34375 16.734375,9.3125 16.609375,9.3125 C16.53125,9.3125 16.4375,9.28125 16.34375,9.28125 C16.171875,9.28125 15.859375,9.28125 15.5,9.28125 L14.640625,9.28125 C14.28125,9.28125 14.203125,9.359375 14.203125,9.625 L14.203125,13.9375 Z M5.15625,14.65625 L5.15625,2.296875 L5.40625,2.296875 C6,2.296875 6.53125,2.640625 6.53125,2.8125 L6.53125,3.8125 L17.375,3.8125 L17.375,2.453125 L17.5625,2.453125 C18.046875,2.453125 18.71875,2.8125 18.75,2.96875 L18.75,13.796875 C19.109375,13.84375 19.4375,14.015625 19.578125,14.1875 L17.921875,15.484375 L17.1875,14.65625 L6.640625,14.65625 L5.15625,15.390625 Z M17.375,4.515625 L6.53125,4.515625 L6.53125,13.9375 L9.53125,13.9375 C9.484375,11.109375 9.3125,8.875 6.953125,7.171875 L7.296875,6.796875 C10.4375,8.421875 10.796875,10.796875 10.890625,13.9375 L12.90625,13.9375 L12.90625,9.28125 C12.90625,8.453125 13.109375,8.09375 14.28125,8.09375 L15.40625,8.09375 C16.375,8.09375 16.984375,8.140625 17.375,8.25 Z" transform="translate(0, 20.515625) scale(1, -1)"/>
</svg>