<svg height="22.796875" viewBox="0 0 24 22.796875" width="24" xmlns="http://www.w3.org/2000/svg">
<path d="M9,10.109375 C8.0625,7.25 6.484375,4.703125 4.890625,3.140625 L5.203125,2.859375 C7.15625,4.15625 8.953125,6.28125 10.15625,8.875 C10.6875,8.828125 10.96875,9.03125 11.09375,9.28125 Z M13.96875,10.0625 L13.65625,9.859375 C15.078125,8.15625 17.015625,5.375 17.5,3.390625 C19.125,2.109375 20.09375,5.953125 13.96875,10.0625 Z M12,20.515625 C5.765625,20.515625 0.59375,15.453125 0.59375,9.125 C0.59375,2.828125 5.71875,-2.28125 12,-2.28125 C18.28125,-2.28125 23.40625,2.828125 23.40625,9.125 C23.40625,15.40625 18.28125,20.515625 12,20.515625 Z M12,-1.5625 C6.140625,-1.5625 1.3125,3.171875 1.3125,9.125 C1.3125,15.03125 6.09375,19.796875 12,19.796875 C17.90625,19.796875 22.6875,15.03125 22.6875,9.125 C22.6875,3.21875 17.90625,-1.5625 12,-1.5625 Z M4.890625,12.4375 L5.09375,11.71875 L18.75,11.71875 C19.078125,11.71875 19.296875,11.828125 19.34375,12.09375 C18.671875,12.765625 17.5625,13.625 17.5625,13.625 L16.609375,12.4375 L12.671875,12.4375 L12.671875,15.5 C13.21875,15.59375 13.421875,15.8125 13.46875,16.125 L11.296875,16.375 L11.296875,12.4375 Z" transform="translate(0, 20.515625) scale(1, -1)"/>
</svg>