<svg height="22.796875" viewBox="0 0 24 22.796875" width="24" xmlns="http://www.w3.org/2000/svg">
<path d="M5.203125,16.015625 L4.921875,15.8125 C5.640625,15.125 6.453125,13.9375 6.625,12.984375 C7.984375,12 9.1875,14.734375 5.203125,16.015625 Z M12,20.515625 C5.765625,20.515625 0.59375,15.453125 0.59375,9.125 C0.59375,2.828125 5.71875,-2.28125 12,-2.28125 C18.28125,-2.28125 23.40625,2.828125 23.40625,9.125 C23.40625,15.40625 18.28125,20.515625 12,20.515625 Z M12,-1.5625 C6.140625,-1.5625 1.3125,3.171875 1.3125,9.125 C1.3125,15.03125 6.09375,19.796875 12,19.796875 C17.90625,19.796875 22.6875,15.03125 22.6875,9.125 C22.6875,3.21875 17.90625,-1.5625 12,-1.5625 Z M8.515625,15.09375 L8.71875,14.375 L10.796875,14.375 C11.15625,13.890625 11.46875,13.125 11.46875,12.453125 L10.4375,12.453125 L9.03125,13.125 L9.03125,3.984375 C8.5,4.203125 8.0625,4.53125 7.625,5.046875 L7.625,9.53125 C8.296875,9.625 8.65625,9.8125 8.8125,9.984375 L6.890625,11.609375 L6,10.46875 L4.421875,10.46875 L4.5625,9.75 L6.34375,9.75 L6.34375,4.421875 C5.6875,3.9375 5.0625,3.484375 4.609375,3.234375 L5.5625,1.78125 C5.734375,1.921875 5.8125,2.0625 5.765625,2.296875 C6.21875,2.859375 6.90625,3.8125 7.390625,4.515625 C8.515625,2.65625 9.90625,2.15625 12.796875,2.15625 C14.71875,2.15625 16.6875,2.15625 18.4375,2.15625 C18.484375,2.734375 18.765625,3.09375 19.265625,3.171875 L19.265625,3.53125 C17.359375,3.484375 14.765625,3.484375 12.796875,3.484375 C11.140625,3.484375 9.984375,3.546875 9.046875,3.953125 L9.265625,3.953125 C9.765625,3.953125 10.3125,4.265625 10.3125,4.390625 L10.3125,11.765625 L16.84375,11.765625 L16.84375,5.46875 C16.84375,5.203125 16.796875,5.09375 16.515625,5.09375 C16.203125,5.09375 15.28125,5.1875 15.28125,5.1875 L15.28125,4.796875 C15.8125,4.703125 16.078125,4.578125 16.265625,4.4375 C16.46875,4.265625 16.515625,4.015625 16.53125,3.703125 C17.96875,3.859375 18.171875,4.375 18.171875,5.40625 L18.171875,11.46875 C18.640625,11.5625 19.0625,11.78125 19.203125,11.953125 L17.328125,13.34375 L16.609375,12.453125 L15.046875,12.453125 C15.453125,12.796875 15.8125,13.15625 16.109375,13.484375 C16.578125,13.46875 16.875,13.65625 16.96875,13.921875 L15.5,14.375 L18.53125,14.375 C18.84375,14.375 19.0625,14.5 19.125,14.765625 C18.53125,15.359375 17.609375,16.109375 17.609375,16.109375 L16.796875,15.09375 L14.203125,15.09375 L14.203125,15.890625 C14.65625,15.953125 14.875,16.15625 14.90625,16.4375 L12.859375,16.65625 L12.859375,15.09375 Z M12.671875,12.453125 C13.03125,12.890625 12.890625,13.78125 11.546875,14.375 L14.828125,14.375 C14.6875,13.75 14.46875,13.03125 14.25,12.453125 Z M12.953125,11.5625 L12.953125,10.4375 L10.734375,10.4375 L10.921875,9.75 L12.953125,9.75 L12.953125,8.5625 L12.71875,8.5625 L11.453125,9.171875 L11.453125,5.09375 L11.609375,5.09375 C12.09375,5.09375 12.59375,5.375 12.59375,5.46875 L12.59375,6.046875 L14.46875,6.046875 L14.46875,5.359375 L14.65625,5.359375 C15.125,5.359375 15.578125,5.640625 15.625,5.734375 L15.625,7.65625 C16.015625,7.734375 16.34375,7.890625 16.484375,8.0625 L15.171875,9.265625 L14.546875,8.5625 L14.15625,8.5625 L14.15625,9.75 L16.03125,9.75 C16.34375,9.75 16.53125,9.859375 16.609375,10.125 C16.25,10.5625 15.640625,11.046875 15.640625,11.046875 L15.171875,10.4375 L14.15625,10.4375 L14.15625,10.984375 C14.421875,11.0625 14.515625,11.203125 14.546875,11.40625 Z M12.59375,6.703125 L12.59375,7.9375 L14.46875,7.9375 L14.46875,6.703125 Z" transform="translate(0, 20.515625) scale(1, -1)"/>
</svg>