<svg height="22.796875" viewBox="0 0 24 22.796875" width="24" xmlns="http://www.w3.org/2000/svg">
<path d="M12,20.515625 C5.765625,20.515625 0.59375,15.453125 0.59375,9.125 C0.59375,2.828125 5.71875,-2.28125 12,-2.28125 C18.28125,-2.28125 23.40625,2.828125 23.40625,9.125 C23.40625,15.40625 18.28125,20.515625 12,20.515625 Z M12,-1.5625 C6.140625,-1.5625 1.3125,3.171875 1.3125,9.125 C1.3125,15.03125 6.09375,19.796875 12,19.796875 C17.90625,19.796875 22.6875,15.03125 22.6875,9.125 C22.6875,3.21875 17.90625,-1.5625 12,-1.5625 Z M6.984375,16.46875 L6.984375,12.84375 L4.578125,12.84375 L4.78125,12.125 L6.71875,12.125 C6.28125,9.84375 5.5625,7.609375 4.375,5.765625 L4.6875,5.375 C5.640625,6.40625 6.390625,7.578125 6.984375,8.828125 L6.984375,1.734375 L7.25,1.734375 C7.734375,1.734375 8.28125,2.0625 8.28125,2.25 L8.28125,9.890625 C8.65625,9.28125 9,8.5625 9.09375,7.96875 C10.25,7.0625 11.453125,9.265625 8.28125,10.578125 L8.28125,12.125 L10.03125,12.125 C10.375,12.125 10.578125,12.234375 10.625,12.5 C10.125,13.078125 9.28125,13.796875 9.28125,13.796875 L8.5625,12.84375 L8.28125,12.84375 L8.28125,15.640625 C8.765625,15.71875 8.953125,15.9375 9,16.21875 Z M13.890625,16.421875 L13.890625,13.21875 L12.21875,13.21875 C12.390625,13.734375 12.546875,14.25 12.671875,14.78125 C13.203125,14.8125 13.4375,15.046875 13.515625,15.3125 L11.421875,15.75 C11.25,13.828125 10.796875,11.90625 10.171875,10.53125 L10.578125,10.3125 C11.109375,10.890625 11.546875,11.65625 11.921875,12.5 L13.890625,12.5 L13.890625,9.859375 L10.21875,9.859375 L10.421875,9.140625 L13.25,9.140625 C12.4375,7.078125 11.140625,5.109375 9.484375,3.578125 L9.796875,3.1875 C11.46875,4.34375 12.859375,5.8125 13.890625,7.4375 L13.890625,1.828125 L14.15625,1.828125 C14.65625,1.828125 15.234375,2.15625 15.234375,2.359375 L15.234375,8.46875 C15.953125,6.3125 17.046875,4.578125 18.28125,3.453125 C18.484375,4.109375 18.890625,4.46875 19.4375,4.5625 L19.46875,4.796875 C18,5.640625 16.484375,7.21875 15.59375,9.140625 L18.765625,9.140625 C19.078125,9.140625 19.296875,9.265625 19.375,9.53125 C18.796875,10.125 17.828125,10.921875 17.828125,10.921875 L16.984375,9.859375 L15.234375,9.859375 L15.234375,12.5 L18.1875,12.5 C18.5,12.5 18.71875,12.625 18.796875,12.890625 C18.234375,13.46875 17.359375,14.203125 17.359375,14.203125 L16.5625,13.21875 L15.234375,13.21875 L15.234375,15.625 C15.703125,15.703125 15.890625,15.890625 15.9375,16.171875 Z" transform="translate(0, 20.515625) scale(1, -1)"/>
</svg>