<svg height="22.796875" viewBox="0 0 24 22.796875" width="24" xmlns="http://www.w3.org/2000/svg">
<path d="M12,20.515625 C5.765625,20.515625 0.59375,15.453125 0.59375,9.125 C0.59375,2.828125 5.71875,-2.28125 12,-2.28125 C18.28125,-2.28125 23.40625,2.828125 23.40625,9.125 C23.40625,15.40625 18.28125,20.515625 12,20.515625 Z M12,-1.5625 C6.140625,-1.5625 1.3125,3.171875 1.3125,9.125 C1.3125,15.03125 6.09375,19.796875 12,19.796875 C17.90625,19.796875 22.6875,15.03125 22.6875,9.125 C22.6875,3.21875 17.90625,-1.5625 12,-1.5625 Z M7.0625,15.140625 L7.0625,1.9375 L7.296875,1.9375 C7.890625,1.9375 8.40625,2.28125 8.40625,2.421875 L8.40625,3.546875 L15.53125,3.546875 L15.53125,2.09375 L15.71875,2.09375 C16.203125,2.09375 16.875,2.453125 16.890625,2.59375 L16.890625,14.234375 C17.359375,14.296875 17.71875,14.5 17.859375,14.65625 L16.109375,16.03125 L15.3125,15.140625 L8.546875,15.140625 L7.0625,15.859375 Z M15.53125,4.25 L8.40625,4.25 L8.40625,9.078125 L15.53125,9.078125 Z M15.53125,9.765625 L8.40625,9.765625 L8.40625,14.453125 L15.53125,14.453125 Z" transform="translate(0, 20.515625) scale(1, -1)"/>
</svg>