<svg height="22.796875" viewBox="0 0 24 22.796875" width="24" xmlns="http://www.w3.org/2000/svg">
<path d="M12,20.515625 C5.765625,20.515625 0.59375,15.453125 0.59375,9.125 C0.59375,2.828125 5.71875,-2.28125 12,-2.28125 C18.28125,-2.28125 23.40625,2.828125 23.40625,9.125 C23.40625,15.40625 18.28125,20.515625 12,20.515625 Z M12,-1.5625 C6.140625,-1.5625 1.3125,3.171875 1.3125,9.125 C1.3125,15.03125 6.09375,19.796875 12,19.796875 C17.90625,19.796875 22.6875,15.03125 22.6875,9.125 C22.6875,3.21875 17.90625,-1.5625 12,-1.5625 Z M10.390625,16.734375 C10.171875,15.859375 9.890625,14.953125 9.5,14.046875 L4.6875,14.046875 L4.875,13.3125 L9.171875,13.3125 C8.109375,11.09375 6.578125,8.875 4.625,7.375 L4.890625,7.0625 C6.1875,7.828125 7.3125,8.78125 8.28125,9.859375 L8.28125,1.75 L8.5,1.75 C9.140625,1.75 9.59375,2.15625 9.59375,2.28125 L9.59375,5.5625 L15.3125,5.5625 L15.3125,3.765625 C15.3125,3.484375 15.21875,3.34375 14.859375,3.34375 C14.421875,3.34375 12.71875,3.484375 12.71875,3.484375 L12.71875,3.09375 C13.53125,2.96875 13.96875,2.828125 14.25,2.640625 C14.515625,2.421875 14.609375,2.09375 14.65625,1.703125 C16.46875,1.875 16.6875,2.546875 16.6875,3.640625 L16.6875,10.265625 C17.15625,10.34375 17.59375,10.5625 17.734375,10.734375 L15.796875,12.171875 L15.078125,11.25 L9.890625,11.25 L9.5,11.421875 C9.9375,12.046875 10.3125,12.703125 10.65625,13.3125 L18.75,13.3125 C19.078125,13.3125 19.296875,13.4375 19.375,13.703125 C18.703125,14.375 17.609375,15.234375 17.609375,15.234375 L16.6875,14.046875 L11.046875,14.046875 C11.296875,14.59375 11.515625,15.125 11.71875,15.640625 C12.34375,15.59375 12.53125,15.765625 12.640625,16.03125 Z M9.59375,10.53125 L15.3125,10.53125 L15.3125,8.78125 L9.59375,8.78125 Z M9.59375,8.09375 L15.3125,8.09375 L15.3125,6.28125 L9.59375,6.28125 Z" transform="translate(0, 20.515625) scale(1, -1)"/>
</svg>