<svg height="22.796875" viewBox="0 0 24 22.796875" width="24" xmlns="http://www.w3.org/2000/svg">
<path d="M12,20.515625 C5.765625,20.515625 0.59375,15.453125 0.59375,9.125 C0.59375,2.828125 5.71875,-2.28125 12,-2.28125 C18.28125,-2.28125 23.40625,2.828125 23.40625,9.125 C23.40625,15.40625 18.28125,20.515625 12,20.515625 Z M12,-1.5625 C6.140625,-1.5625 1.3125,3.171875 1.3125,9.125 C1.3125,15.03125 6.09375,19.796875 12,19.796875 C17.90625,19.796875 22.6875,15.03125 22.6875,9.125 C22.6875,3.21875 17.90625,-1.5625 12,-1.5625 Z M10.171875,8.015625 L16.03125,8.015625 L16.03125,4.203125 L10.171875,4.203125 Z M9.9375,17.046875 C8.96875,14.765625 6.859375,12.3125 4.578125,10.734375 L4.828125,10.375 C5.96875,10.9375 7.078125,11.6875 8.0625,12.53125 C8.8125,11.953125 9.59375,11.046875 9.8125,10.25 C11.203125,9.359375 12.1875,11.96875 8.46875,12.859375 C8.96875,13.3125 9.4375,13.78125 9.84375,14.25 L14.015625,14.25 C12.1875,10.828125 8.734375,7.875 4.421875,6.265625 L4.625,5.859375 C6.1875,6.3125 7.578125,6.890625 8.859375,7.578125 L8.859375,2.015625 L9.078125,2.015625 C9.71875,2.015625 10.171875,2.40625 10.171875,2.515625 L10.171875,3.484375 L16.03125,3.484375 L16.03125,2.15625 L16.25,2.15625 C16.703125,2.15625 17.375,2.546875 17.40625,2.6875 L17.40625,7.828125 C17.828125,7.890625 18.1875,8.09375 18.34375,8.25 L16.578125,9.546875 L15.8125,8.734375 L10.75,8.734375 C12.890625,10.21875 14.515625,12.046875 15.703125,14.109375 C16.25,14.140625 16.515625,14.1875 16.703125,14.375 L15.078125,15.890625 L14.109375,14.953125 L10.421875,14.953125 C10.6875,15.28125 10.921875,15.640625 11.109375,15.984375 C11.546875,15.90625 11.828125,15.984375 11.921875,16.21875 Z" transform="translate(0, 20.515625) scale(1, -1)"/>
</svg>