<svg height="22.796875" viewBox="0 0 24 22.796875" width="24" xmlns="http://www.w3.org/2000/svg">
<path d="M4.6875,12.5 L4.46875,12.3125 C5.109375,11.875 5.828125,11.046875 6.03125,10.3125 C7.421875,9.5 8.359375,12.171875 4.6875,12.5 Z M5.859375,16.15625 L5.609375,15.9375 C6.28125,15.453125 7.0625,14.5625 7.296875,13.828125 C8.640625,12.984375 9.59375,15.625 5.859375,16.15625 Z M11.8125,16.6875 L11.546875,16.484375 C12.28125,15.890625 13.25,14.828125 13.578125,13.984375 C14.96875,13.203125 15.890625,15.859375 11.8125,16.6875 Z M5.734375,6.03125 C5.46875,6.03125 4.734375,6.03125 4.734375,6.03125 L4.734375,5.5 C5.15625,5.453125 5.421875,5.40625 5.65625,5.234375 C6.09375,5.015625 6.234375,4.125 6,2.46875 C6.078125,2.015625 6.3125,1.734375 6.640625,1.734375 C7.34375,1.734375 7.703125,2.203125 7.734375,2.875 C7.75,3.953125 7.265625,4.578125 7.25,5.28125 C7.25,5.734375 7.390625,6.34375 7.5625,6.890625 C7.734375,7.53125 8.765625,10.625 9.1875,12.078125 L8.734375,12.171875 C6.5,7.015625 6.5,7.015625 6.21875,6.4375 C6,6.03125 5.953125,6.03125 5.734375,6.03125 Z M12,20.515625 C5.765625,20.515625 0.59375,15.453125 0.59375,9.125 C0.59375,2.828125 5.71875,-2.28125 12,-2.28125 C18.28125,-2.28125 23.40625,2.828125 23.40625,9.125 C23.40625,15.40625 18.28125,20.515625 12,20.515625 Z M12,-1.5625 C6.140625,-1.5625 1.3125,3.171875 1.3125,9.125 C1.3125,15.03125 6.09375,19.796875 12,19.796875 C17.90625,19.796875 22.6875,15.03125 22.6875,9.125 C22.6875,3.21875 17.90625,-1.5625 12,-1.5625 Z M9.578125,8.5625 L9.765625,7.84375 L13.109375,7.84375 L13.109375,3.359375 L8.546875,3.359375 L8.734375,2.640625 L18.765625,2.640625 C19.078125,2.640625 19.296875,2.765625 19.34375,3.03125 C18.765625,3.625 17.828125,4.390625 17.828125,4.390625 L17.015625,3.359375 L14.453125,3.359375 L14.453125,7.84375 L17.875,7.84375 C18.1875,7.84375 18.40625,7.96875 18.453125,8.234375 C17.921875,8.78125 17.09375,9.484375 17.09375,9.484375 L16.34375,8.5625 L14.453125,8.5625 L14.453125,12.578125 L18.40625,12.578125 C18.71875,12.578125 18.9375,12.703125 18.984375,12.953125 C18.4375,13.53125 17.515625,14.25 17.515625,14.25 L16.734375,13.265625 L9.125,13.265625 L9.3125,12.578125 L13.109375,12.578125 L13.109375,8.5625 Z" transform="translate(0, 20.515625) scale(1, -1)"/>
</svg>