<svg height="22.796875" viewBox="0 0 24 22.796875" width="24" xmlns="http://www.w3.org/2000/svg">
<path d="M7.609375,16.390625 L7.3125,16.25 C7.875,15.59375 8.5,14.515625 8.65625,13.6875 C9.90625,12.71875 11.15625,15.125 7.609375,16.390625 Z M11.015625,16.75 L10.703125,16.609375 C11.1875,15.90625 11.6875,14.765625 11.734375,13.84375 C12.90625,12.796875 14.328125,15.1875 11.015625,16.75 Z M12,20.515625 C5.765625,20.515625 0.59375,15.453125 0.59375,9.125 C0.59375,2.828125 5.71875,-2.28125 12,-2.28125 C18.28125,-2.28125 23.40625,2.828125 23.40625,9.125 C23.40625,15.40625 18.28125,20.515625 12,20.515625 Z M12,-1.5625 C6.140625,-1.5625 1.3125,3.171875 1.3125,9.125 C1.3125,15.03125 6.09375,19.796875 12,19.796875 C17.90625,19.796875 22.6875,15.03125 22.6875,9.125 C22.6875,3.21875 17.90625,-1.5625 12,-1.5625 Z M15.59375,16.609375 C15.125,15.546875 14.375,14.109375 13.75,13.0625 L7.0625,13.0625 C7.015625,13.3125 6.953125,13.609375 6.859375,13.921875 L6.4375,13.921875 C6.5,13.078125 6.078125,12.09375 5.515625,11.765625 C5.109375,11.46875 4.84375,11.046875 5.046875,10.625 C5.296875,10.21875 5.96875,10.265625 6.359375,10.5625 C6.765625,10.890625 7.0625,11.5 7.109375,12.34375 L16.875,12.34375 L16.3125,10.796875 L16.65625,10.625 C17.234375,10.984375 18.125,11.640625 18.59375,12.09375 C19.0625,12.140625 19.3125,12.171875 19.515625,12.34375 L17.78125,14.015625 L16.84375,13.0625 L14.46875,13.0625 C15.34375,13.78125 16.203125,14.640625 16.78125,15.28125 C17.28125,15.21875 17.59375,15.359375 17.734375,15.625 Z M11.515625,8.46875 L11.515625,6.953125 L5.0625,6.953125 L5.25,6.234375 L11.515625,6.234375 L11.515625,3.59375 C11.515625,3.28125 11.421875,3.140625 11.0625,3.140625 C10.65625,3.140625 8.734375,3.28125 8.734375,3.28125 L8.734375,2.90625 C9.578125,2.8125 10.078125,2.65625 10.375,2.453125 C10.625,2.234375 10.75,1.890625 10.796875,1.53125 C12.640625,1.734375 12.890625,2.359375 12.890625,3.53125 L12.890625,6.234375 L18.8125,6.234375 C19.125,6.234375 19.375,6.359375 19.421875,6.625 C18.8125,7.25 17.8125,8.0625 17.8125,8.0625 L16.9375,6.953125 L12.890625,6.953125 L12.890625,7.625 C13.4375,7.734375 13.65625,7.890625 13.734375,8.234375 L13.0625,8.296875 C13.984375,8.6875 15.03125,9.21875 15.640625,9.703125 C16.125,9.71875 16.421875,9.75 16.578125,9.90625 L14.953125,11.5 L14.046875,10.578125 L7.578125,10.578125 L7.796875,9.890625 L13.734375,9.890625 C13.265625,9.359375 12.671875,8.8125 12.171875,8.40625 Z" transform="translate(0, 20.515625) scale(1, -1)"/>
</svg>