<svg height="22.796875" viewBox="0 0 24 22.796875" width="24" xmlns="http://www.w3.org/2000/svg">
<path d="M12,20.515625 C5.765625,20.515625 0.59375,15.453125 0.59375,9.125 C0.59375,2.828125 5.71875,-2.28125 12,-2.28125 C18.28125,-2.28125 23.40625,2.828125 23.40625,9.125 C23.40625,15.40625 18.28125,20.515625 12,20.515625 Z M12,-1.5625 C6.140625,-1.5625 1.3125,3.171875 1.3125,9.125 C1.3125,15.03125 6.09375,19.796875 12,19.796875 C17.90625,19.796875 22.6875,15.03125 22.6875,9.125 C22.6875,3.21875 17.90625,-1.5625 12,-1.5625 Z M4.734375,4.15625 L4.921875,3.453125 L18.75,3.453125 C19.078125,3.453125 19.296875,3.578125 19.34375,3.84375 C18.671875,4.484375 17.5625,5.40625 17.5625,5.40625 L16.578125,4.15625 L11.90625,4.15625 L11.90625,10.625 L17.515625,10.625 C17.828125,10.625 18.046875,10.75 18.125,11.015625 C17.46875,11.65625 16.421875,12.53125 16.421875,12.53125 L15.484375,11.359375 L11.90625,11.359375 L11.90625,16.15625 C12.40625,16.21875 12.59375,16.421875 12.640625,16.734375 L10.515625,16.96875 L10.515625,4.15625 Z" transform="translate(0, 20.515625) scale(1, -1)"/>
</svg>