<svg height="22.796875" viewBox="0 0 24 22.796875" width="24" xmlns="http://www.w3.org/2000/svg">
<path d="M12,20.515625 C5.765625,20.515625 0.59375,15.453125 0.59375,9.125 C0.59375,2.828125 5.71875,-2.28125 12,-2.28125 C18.28125,-2.28125 23.40625,2.828125 23.40625,9.125 C23.40625,15.40625 18.28125,20.515625 12,20.515625 Z M12,-1.5625 C6.140625,-1.5625 1.3125,3.171875 1.3125,9.125 C1.3125,15.03125 6.09375,19.796875 12,19.796875 C17.90625,19.796875 22.6875,15.03125 22.6875,9.125 C22.6875,3.21875 17.90625,-1.5625 12,-1.5625 Z M8.765625,12.34375 L8.953125,11.640625 L12.3125,11.640625 C11.453125,9.03125 10.078125,6.453125 8.25,4.484375 L8.5625,4.109375 C10.4375,5.65625 11.921875,7.515625 13.015625,9.640625 L13.015625,1.84375 L13.265625,1.84375 C13.78125,1.84375 14.359375,2.1875 14.359375,2.40625 L14.359375,10.796875 C15.21875,8.046875 16.5625,5.78125 18.03125,4.34375 C18.234375,4.984375 18.671875,5.40625 19.25,5.453125 L19.296875,5.71875 C17.5625,6.859375 15.703125,9.09375 14.640625,11.640625 L18.71875,11.640625 C19.03125,11.640625 19.25,11.765625 19.3125,12.03125 C18.71875,12.640625 17.734375,13.421875 17.734375,13.421875 L16.875,12.34375 L14.359375,12.34375 L14.359375,15.71875 C14.828125,15.796875 15,15.984375 15.046875,16.265625 L13.015625,16.515625 L13.015625,12.34375 Z M7.796875,16.578125 C6.953125,13.46875 5.515625,10.390625 4.125,8.453125 L4.484375,8.203125 C5.15625,8.828125 5.8125,9.59375 6.40625,10.4375 L6.40625,1.75 L6.640625,1.75 C7.171875,1.75 7.75,2.09375 7.78125,2.203125 L7.78125,11.640625 C8.15625,11.71875 8.421875,11.859375 8.5,12.078125 L7.625,12.390625 C8.1875,13.34375 8.65625,14.359375 9.078125,15.40625 C9.578125,15.390625 9.84375,15.59375 9.9375,15.859375 Z" transform="translate(0, 20.515625) scale(1, -1)"/>
</svg>