<svg height="22.796875" viewBox="0 0 24 22.796875" width="24" xmlns="http://www.w3.org/2000/svg">
<path d="M12,20.515625 C5.765625,20.515625 0.59375,15.453125 0.59375,9.125 C0.59375,2.828125 5.71875,-2.28125 12,-2.28125 C18.28125,-2.28125 23.40625,2.828125 23.40625,9.125 C23.40625,15.40625 18.28125,20.515625 12,20.515625 Z M12,-1.5625 C6.140625,-1.5625 1.3125,3.171875 1.3125,9.125 C1.3125,15.03125 6.09375,19.796875 12,19.796875 C17.90625,19.796875 22.6875,15.03125 22.6875,9.125 C22.6875,3.21875 17.90625,-1.5625 12,-1.5625 Z M10.375,17.140625 C10.125,15.90625 9.8125,14.734375 9.453125,13.625 L4.484375,13.625 L4.6875,12.90625 L9.1875,12.90625 C8.015625,9.765625 6.28125,7.203125 4.296875,5.453125 L4.625,5.140625 C5.96875,6.046875 7.171875,7.21875 8.203125,8.65625 L8.203125,1.921875 L8.421875,1.921875 C9.09375,1.921875 9.578125,2.375 9.578125,2.515625 L9.578125,3.453125 L15.953125,3.453125 L15.953125,2.1875 L16.171875,2.1875 C16.625,2.1875 17.328125,2.546875 17.359375,2.6875 L17.359375,8.46875 C17.78125,8.5625 18.140625,8.734375 18.28125,8.90625 L16.53125,10.25 L15.75,9.40625 L9.859375,9.40625 L8.96875,9.796875 C9.546875,10.75 10.078125,11.78125 10.5625,12.90625 L18.890625,12.90625 C19.21875,12.90625 19.4375,13.03125 19.515625,13.296875 C18.84375,13.9375 17.765625,14.828125 17.765625,14.828125 L16.796875,13.625 L10.828125,13.625 C11.109375,14.40625 11.375,15.21875 11.59375,16.0625 C12.140625,16.0625 12.40625,16.265625 12.5,16.578125 Z M9.578125,8.6875 L15.953125,8.6875 L15.953125,4.171875 L9.578125,4.171875 Z" transform="translate(0, 20.515625) scale(1, -1)"/>
</svg>