<svg height="22.796875" viewBox="0 0 24 22.796875" width="24" xmlns="http://www.w3.org/2000/svg">
<path d="M12,20.515625 C5.765625,20.515625 0.59375,15.453125 0.59375,9.125 C0.59375,2.828125 5.71875,-2.28125 12,-2.28125 C18.28125,-2.28125 23.40625,2.828125 23.40625,9.125 C23.40625,15.40625 18.28125,20.515625 12,20.515625 Z M12,-1.5625 C6.140625,-1.5625 1.3125,3.171875 1.3125,9.125 C1.3125,15.03125 6.09375,19.796875 12,19.796875 C17.90625,19.796875 22.6875,15.03125 22.6875,9.125 C22.6875,3.21875 17.90625,-1.5625 12,-1.5625 Z M4.75,14.546875 L4.9375,13.828125 L10.75,13.828125 L10.75,1.375 L10.96875,1.375 C11.65625,1.375 12.140625,1.734375 12.140625,1.828125 L12.140625,10.65625 C14.0625,9.703125 15.453125,8.15625 16.390625,7.015625 C18.28125,6.28125 17.96875,10.3125 12.140625,11.140625 L12.140625,13.828125 L18.671875,13.828125 C19.015625,13.828125 19.25,13.9375 19.296875,14.203125 C18.546875,14.953125 17.328125,15.90625 17.328125,15.90625 L16.25,14.546875 Z" transform="translate(0, 20.515625) scale(1, -1)"/>
</svg>