<svg height="22.796875" viewBox="0 0 24 22.796875" width="24" xmlns="http://www.w3.org/2000/svg">
<path d="M14.921875,4.84375 L14.6875,4.578125 C15.703125,3.984375 17.0625,2.8125 17.5625,1.9375 C19.109375,1.265625 19.734375,4.171875 14.921875,4.84375 Z M12.546875,5.0625 C11.6875,4.015625 9.9375,2.8125 8.46875,2.09375 L8.71875,1.703125 C10.4375,2.140625 12.546875,2.96875 13.65625,3.8125 C14.046875,3.703125 14.296875,3.75 14.453125,3.9375 Z M12,20.515625 C5.765625,20.515625 0.59375,15.453125 0.59375,9.125 C0.59375,2.828125 5.71875,-2.28125 12,-2.28125 C18.28125,-2.28125 23.40625,2.828125 23.40625,9.125 C23.40625,15.40625 18.28125,20.515625 12,20.515625 Z M12,-1.5625 C6.140625,-1.5625 1.3125,3.171875 1.3125,9.125 C1.3125,15.03125 6.09375,19.796875 12,19.796875 C17.90625,19.796875 22.6875,15.03125 22.6875,9.125 C22.6875,3.21875 17.90625,-1.5625 12,-1.5625 Z M4.25,14.25 L4.4375,13.53125 L6.484375,13.53125 L6.484375,6.71875 C5.5,6.40625 4.6875,6.171875 4.171875,6.046875 L5.046875,4.21875 C5.28125,4.3125 5.453125,4.5625 5.515625,4.828125 C7.390625,5.921875 8.875,6.890625 9.859375,7.484375 L9.75,7.828125 L7.84375,7.171875 L7.84375,13.53125 L9.578125,13.53125 C9.890625,13.53125 10.078125,13.65625 10.15625,13.921875 C9.640625,14.46875 8.875,15.125 8.875,15.125 L8.1875,14.25 Z M16.4375,10.078125 L16.4375,8.5625 L11.90625,8.5625 L11.90625,10.078125 Z M16.4375,10.78125 L11.90625,10.78125 L11.90625,12.4375 L16.4375,12.4375 Z M16.4375,7.84375 L16.4375,6.21875 L11.90625,6.21875 L11.90625,7.84375 Z M9.578125,15.578125 L9.765625,14.859375 L13.34375,14.859375 C13.296875,14.25 13.203125,13.609375 13.109375,13.125 L12.03125,13.125 L10.5625,13.828125 L10.5625,4.625 L10.78125,4.625 C11.328125,4.625 11.90625,4.96875 11.90625,5.09375 L11.90625,5.5 L16.4375,5.5 L16.4375,4.78125 L16.65625,4.78125 C17.09375,4.78125 17.78125,5.09375 17.8125,5.28125 L17.8125,12.359375 C18.09375,12.4375 18.359375,12.578125 18.453125,12.703125 L16.984375,13.84375 L16.265625,13.125 L13.875,13.125 C14.203125,13.625 14.5625,14.25 14.859375,14.859375 L18.40625,14.859375 C18.71875,14.859375 18.9375,14.96875 19.015625,15.234375 C18.4375,15.796875 17.5625,16.46875 17.5625,16.46875 L16.796875,15.578125 Z" transform="translate(0, 20.515625) scale(1, -1)"/>
</svg>