<svg height="22.796875" viewBox="0 0 24 22.796875" width="24" xmlns="http://www.w3.org/2000/svg">
<path d="M12,20.515625 C5.765625,20.515625 0.59375,15.453125 0.59375,9.125 C0.59375,2.828125 5.71875,-2.28125 12,-2.28125 C18.28125,-2.28125 23.40625,2.828125 23.40625,9.125 C23.40625,15.40625 18.28125,20.515625 12,20.515625 Z M12,-1.5625 C6.140625,-1.5625 1.3125,3.171875 1.3125,9.125 C1.3125,15.03125 6.09375,19.796875 12,19.796875 C17.90625,19.796875 22.6875,15.03125 22.6875,9.125 C22.6875,3.21875 17.90625,-1.5625 12,-1.5625 Z M7.15625,11.28125 L7.15625,3.4375 L4.75,3.4375 L4.9375,2.734375 L18.640625,2.734375 C18.984375,2.734375 19.21875,2.859375 19.265625,3.125 C18.59375,3.765625 17.515625,4.625 17.515625,4.625 L16.5625,3.4375 L12.90625,3.4375 L12.90625,8.96875 L17.40625,8.96875 C17.71875,8.96875 17.921875,9.09375 18,9.359375 C17.375,9.984375 16.390625,10.75 16.390625,10.75 L15.53125,9.671875 L12.90625,9.671875 L12.90625,14.40625 L18.125,14.40625 C18.453125,14.40625 18.671875,14.515625 18.71875,14.78125 C18.078125,15.40625 17.046875,16.25 17.046875,16.25 L16.15625,15.125 L5.421875,15.125 L5.609375,14.40625 L11.515625,14.40625 L11.515625,3.4375 L8.515625,3.4375 L8.515625,10.484375 C8.96875,10.5625 9.171875,10.75 9.1875,11.046875 Z" transform="translate(0, 20.515625) scale(1, -1)"/>
</svg>