<svg height="22.796875" viewBox="0 0 24 22.796875" width="24" xmlns="http://www.w3.org/2000/svg">
<path d="M7.65625,11.609375 L7.84375,10.890625 L15.953125,10.890625 C16.296875,10.890625 16.484375,11.015625 16.5625,11.28125 C15.984375,11.875 15.078125,12.625 15.078125,12.625 L14.25,11.609375 Z M8.359375,7.390625 C7.78125,6.09375 6.484375,4.296875 5.109375,3.234375 L5.375,2.90625 C7.0625,3.71875 8.640625,5.09375 9.484375,6.1875 C10.015625,6.09375 10.203125,6.21875 10.34375,6.453125 Z M14.15625,7.265625 L13.890625,7.078125 C15.03125,6.078125 16.515625,4.390625 16.984375,3.140625 C18.484375,2.234375 19.3125,5.28125 14.15625,7.265625 Z M12,20.515625 C5.765625,20.515625 0.59375,15.453125 0.59375,9.125 C0.59375,2.828125 5.71875,-2.28125 12,-2.28125 C18.28125,-2.28125 23.40625,2.828125 23.40625,9.125 C23.40625,15.40625 18.28125,20.515625 12,20.515625 Z M12,-1.5625 C6.140625,-1.5625 1.3125,3.171875 1.3125,9.125 C1.3125,15.03125 6.09375,19.796875 12,19.796875 C17.90625,19.796875 22.6875,15.03125 22.6875,9.125 C22.6875,3.21875 17.90625,-1.5625 12,-1.5625 Z M6.703125,15.390625 C6.703125,14.421875 6.078125,13.421875 5.40625,13.03125 C4.96875,12.796875 4.734375,12.34375 4.921875,11.921875 C5.140625,11.46875 5.875,11.546875 6.3125,11.859375 C6.765625,12.1875 7.203125,12.84375 7.265625,13.75 L16.96875,13.75 L16.4375,12.09375 L16.796875,11.96875 C17.28125,12.34375 18.09375,13.0625 18.53125,13.53125 C18.984375,13.5625 19.25,13.578125 19.421875,13.75 L17.78125,15.390625 L16.890625,14.453125 L12.703125,14.453125 L12.703125,15.9375 C13.125,16.015625 13.34375,16.203125 13.375,16.46875 L11.296875,16.703125 L11.296875,14.453125 L7.296875,14.453125 C7.265625,14.734375 7.21875,15.046875 7.125,15.390625 Z M5.296875,9.046875 L5.5,8.328125 L11.46875,8.328125 L11.46875,3.859375 C11.46875,3.578125 11.375,3.453125 11.015625,3.453125 C10.625,3.453125 8.828125,3.578125 8.828125,3.578125 L8.828125,3.21875 C9.703125,3.09375 10.15625,2.953125 10.421875,2.734375 C10.6875,2.515625 10.78125,2.15625 10.796875,1.78125 C12.625,1.96875 12.859375,2.71875 12.859375,3.84375 L12.859375,8.328125 L18.265625,8.328125 C18.59375,8.328125 18.8125,8.453125 18.859375,8.71875 C18.265625,9.3125 17.328125,10.109375 17.328125,10.109375 L16.484375,9.046875 Z" transform="translate(0, 20.515625) scale(1, -1)"/>
</svg>