<svg height="22.796875" viewBox="0 0 24 22.796875" width="24" xmlns="http://www.w3.org/2000/svg">
<path d="M12,20.515625 C5.765625,20.515625 0.59375,15.453125 0.59375,9.125 C0.59375,2.828125 5.71875,-2.28125 12,-2.28125 C18.28125,-2.28125 23.40625,2.828125 23.40625,9.125 C23.40625,15.40625 18.28125,20.515625 12,20.515625 Z M12,-1.5625 C6.140625,-1.5625 1.3125,3.171875 1.3125,9.125 C1.3125,15.03125 6.09375,19.796875 12,19.796875 C17.90625,19.796875 22.6875,15.03125 22.6875,9.125 C22.6875,3.21875 17.90625,-1.5625 12,-1.5625 Z M6.59375,15.859375 C6.671875,14.96875 6.1875,13.984375 5.5625,13.625 C5.140625,13.34375 4.875,12.9375 5.09375,12.484375 C5.296875,12.03125 6.046875,12.078125 6.484375,12.390625 C6.9375,12.75 7.265625,13.4375 7.265625,14.421875 L16.6875,14.421875 C16.484375,13.828125 16.25,13.109375 16.03125,12.640625 L16.375,12.484375 C17.0625,12.890625 17.953125,13.625 18.4375,14.1875 C18.890625,14.203125 19.15625,14.234375 19.3125,14.40625 L17.5625,16.125 L16.609375,15.140625 L7.203125,15.140625 L7.03125,15.859375 Z M4.84375,6.4375 L5.046875,5.734375 L14.09375,5.734375 C13.828125,4.46875 13.46875,3.671875 13.125,3.40625 C12.90625,3.21875 12.71875,3.1875 12.34375,3.1875 C11.90625,3.1875 10.65625,3.28125 9.90625,3.34375 L9.90625,2.921875 C10.5625,2.8125 11.203125,2.640625 11.453125,2.453125 C11.765625,2.234375 11.828125,1.875 11.828125,1.515625 C12.59375,1.484375 13.375,1.703125 13.921875,2.109375 C14.59375,2.609375 15.125,3.8125 15.484375,5.734375 L18.796875,5.734375 C19.125,5.734375 19.34375,5.859375 19.421875,6.125 C18.765625,6.75 17.765625,7.578125 17.765625,7.578125 L16.875,6.4375 L15.59375,6.4375 C15.703125,6.984375 15.765625,7.578125 15.8125,8.234375 C16.296875,8.28125 16.578125,8.40625 16.75,8.5625 L15.09375,9.9375 L14.296875,9.078125 L9.484375,9.078125 L9.9375,11.015625 L15.9375,11.015625 C16.25,11.015625 16.484375,11.140625 16.5625,11.40625 C15.953125,12 14.96875,12.796875 14.96875,12.796875 L14.140625,11.71875 L10.109375,11.71875 L10.34375,12.9375 C10.9375,13.015625 11.1875,13.25 11.25,13.578125 L9.09375,13.875 C8.921875,12.4375 8.1875,9.078125 7.65625,7.6875 C8.25,7.515625 8.828125,7.53125 9.125,7.734375 L9.28125,8.375 L14.5,8.375 C14.421875,7.65625 14.328125,7.015625 14.234375,6.4375 Z" transform="translate(0, 20.515625) scale(1, -1)"/>
</svg>