<svg height="22.328125" viewBox="0 0 24 22.328125" width="24" xmlns="http://www.w3.org/2000/svg">
<path d="M16.265625,2.921875 C18.1875,2.921875 19.828125,4.609375 19.828125,9.34375 C19.828125,14.0625 18.1875,15.8125 16.265625,15.8125 C14.359375,15.8125 12.75,14.0625 12.75,9.34375 C12.75,4.609375 14.359375,2.921875 16.265625,2.921875 Z M16.265625,3.5 C15.234375,3.5 14.359375,4.609375 14.359375,9.34375 C14.359375,14.109375 15.234375,15.21875 16.265625,15.21875 C17.296875,15.21875 18.234375,14.09375 18.234375,9.34375 C18.234375,4.609375 17.296875,3.5 16.265625,3.5 Z M12,-2.046875 C18.171875,-2.046875 23.0625,2.828125 23.0625,9.125 C23.0625,15.390625 18.171875,20.28125 12,20.28125 C5.828125,20.28125 0.9375,15.390625 0.9375,9.125 C0.9375,2.859375 5.828125,-2.046875 12,-2.046875 Z M12,-1.375 C6.21875,-1.375 1.65625,3.21875 1.65625,9.125 C1.65625,15.03125 6.21875,19.609375 12,19.609375 C17.765625,19.609375 22.34375,15.03125 22.34375,9.125 C22.34375,3.21875 17.765625,-1.375 12,-1.375 Z M8.1875,3.1875 L9.640625,3.1875 L9.640625,6.578125 L11.1875,6.578125 L11.1875,7.796875 L9.640625,7.796875 L9.640625,15.625 L8.515625,15.625 L3.75,7.53125 L3.75,6.578125 L8.1875,6.578125 Z M4.625,7.796875 L8.1875,13.84375 L8.1875,7.796875 Z" transform="translate(0, 20.28125) scale(1, -1)"/>
</svg>