<svg height="22.328125" viewBox="0 0 24 22.328125" width="24" xmlns="http://www.w3.org/2000/svg">
<path d="M12,-2.046875 C18.171875,-2.046875 23.0625,2.828125 23.0625,9.125 C23.0625,15.390625 18.171875,20.28125 12,20.28125 C5.828125,20.28125 0.9375,15.390625 0.9375,9.125 C0.9375,2.859375 5.828125,-2.046875 12,-2.046875 Z M12,-1.375 C6.21875,-1.375 1.65625,3.21875 1.65625,9.125 C1.65625,15.03125 6.21875,19.609375 12,19.609375 C17.765625,19.609375 22.34375,15.03125 22.34375,9.125 C22.34375,3.21875 17.765625,-1.375 12,-1.375 Z M8.1875,3.1875 L9.640625,3.1875 L9.640625,6.578125 L11.1875,6.578125 L11.1875,7.796875 L9.640625,7.796875 L9.640625,15.625 L8.515625,15.625 L3.75,7.53125 L3.75,6.578125 L8.1875,6.578125 Z M4.625,7.796875 L8.1875,13.84375 L8.1875,7.796875 Z M15.75,2.921875 C18.09375,2.921875 19.625,4.25 19.625,6.40625 C19.625,8.1875 18.671875,9.390625 16.65625,9.671875 C18.453125,10.078125 19.203125,11.375 19.203125,12.71875 C19.203125,14.5 18.078125,15.8125 16.015625,15.8125 C14.421875,15.8125 13.015625,15.140625 12.703125,13.390625 C12.8125,13.109375 13.078125,12.90625 13.390625,12.90625 C13.890625,12.90625 14.1875,13.109375 14.546875,15 C14.875,15.140625 15.21875,15.1875 15.640625,15.1875 C16.875,15.1875 17.65625,14.234375 17.65625,12.671875 C17.65625,10.875 16.625,9.90625 15.078125,9.90625 L14.375,9.90625 L14.375,9.3125 L15.171875,9.3125 C17.0625,9.3125 18.046875,8.328125 18.046875,6.453125 C18.046875,4.609375 17.046875,3.546875 15.3125,3.546875 C14.859375,3.546875 14.5,3.59375 14.1875,3.71875 C13.875,5.78125 13.609375,5.96875 13.078125,5.96875 C12.765625,5.96875 12.484375,5.765625 12.390625,5.375 C12.671875,3.765625 13.796875,2.921875 15.75,2.921875 Z" transform="translate(0, 20.28125) scale(1, -1)"/>
</svg>