<svg height="22.328125" viewBox="0 0 24 22.328125" width="24" xmlns="http://www.w3.org/2000/svg">
<path d="M12,-2.046875 C18.171875,-2.046875 23.0625,2.828125 23.0625,9.125 C23.0625,15.390625 18.171875,20.28125 12,20.28125 C5.828125,20.28125 0.9375,15.390625 0.9375,9.125 C0.9375,2.859375 5.828125,-2.046875 12,-2.046875 Z M12,-1.375 C6.21875,-1.375 1.65625,3.21875 1.65625,9.125 C1.65625,15.03125 6.21875,19.609375 12,19.609375 C17.765625,19.609375 22.34375,15.03125 22.34375,9.125 C22.34375,3.21875 17.765625,-1.375 12,-1.375 Z M8.421875,3.1875 L9.890625,3.1875 L9.890625,6.578125 L11.421875,6.578125 L11.421875,7.796875 L9.890625,7.796875 L9.890625,15.625 L8.765625,15.625 L3.984375,7.53125 L3.984375,6.578125 L8.421875,6.578125 Z M4.875,7.796875 L8.421875,13.84375 L8.421875,7.796875 Z M13.296875,3.1875 L14.828125,3.1875 L18.90625,14.65625 L18.90625,15.5 L11.875,15.5 L11.875,14.09375 L17.953125,14.09375 L13.203125,3.3125 Z" transform="translate(0, 20.28125) scale(1, -1)"/>
</svg>