<svg height="22.328125" viewBox="0 0 24 22.328125" width="24" xmlns="http://www.w3.org/2000/svg">
<path d="M16.515625,2.921875 C18.4375,2.921875 20.0625,4.609375 20.0625,9.34375 C20.0625,14.0625 18.4375,15.8125 16.515625,15.8125 C14.59375,15.8125 12.984375,14.0625 12.984375,9.34375 C12.984375,4.609375 14.59375,2.921875 16.515625,2.921875 Z M16.515625,3.5 C15.484375,3.5 14.59375,4.609375 14.59375,9.34375 C14.59375,14.109375 15.484375,15.21875 16.515625,15.21875 C17.546875,15.21875 18.484375,14.09375 18.484375,9.34375 C18.484375,4.609375 17.546875,3.5 16.515625,3.5 Z M12,-2.046875 C18.171875,-2.046875 23.0625,2.828125 23.0625,9.125 C23.0625,15.390625 18.171875,20.28125 12,20.28125 C5.828125,20.28125 0.9375,15.390625 0.9375,9.125 C0.9375,2.859375 5.828125,-2.046875 12,-2.046875 Z M12,-1.375 C6.21875,-1.375 1.65625,3.21875 1.65625,9.125 C1.65625,15.03125 6.21875,19.609375 12,19.609375 C17.765625,19.609375 22.34375,15.03125 22.34375,9.125 C22.34375,3.21875 17.765625,-1.375 12,-1.375 Z M7.21875,2.921875 C9.703125,2.921875 11.25,4.421875 11.25,6.9375 C11.25,9.359375 9.84375,10.828125 7.609375,10.828125 C6.796875,10.828125 6.078125,10.65625 5.375,10.296875 L5.59375,14.140625 L10.6875,14.140625 L10.6875,15.5 L4.921875,15.5 L4.609375,9.546875 L5.015625,9.40625 C5.65625,9.859375 6.4375,10.0625 7.125,10.0625 C8.65625,10.0625 9.671875,8.96875 9.671875,6.796875 C9.671875,4.6875 8.640625,3.546875 6.90625,3.546875 C6.40625,3.546875 6.046875,3.59375 5.734375,3.71875 C5.359375,5.78125 5.046875,6 4.609375,6 C4.25,6 3.953125,5.734375 3.890625,5.328125 C4.203125,3.640625 5.46875,2.921875 7.21875,2.921875 Z" transform="translate(0, 20.28125) scale(1, -1)"/>
</svg>