<svg height="22.328125" viewBox="0 0 24 22.328125" width="24" xmlns="http://www.w3.org/2000/svg">
<path d="M12,-2.046875 C18.171875,-2.046875 23.0625,2.828125 23.0625,9.125 C23.0625,15.390625 18.171875,20.28125 12,20.28125 C5.828125,20.28125 0.9375,15.390625 0.9375,9.125 C0.9375,2.859375 5.828125,-2.046875 12,-2.046875 Z M12,-1.375 C6.21875,-1.375 1.65625,3.21875 1.65625,9.125 C1.65625,15.03125 6.21875,19.609375 12,19.609375 C17.765625,19.609375 22.34375,15.03125 22.34375,9.125 C22.34375,3.21875 17.765625,-1.375 12,-1.375 Z M8.1875,3.1875 L9.640625,3.1875 L9.640625,6.578125 L11.1875,6.578125 L11.1875,7.796875 L9.640625,7.796875 L9.640625,15.625 L8.515625,15.625 L3.75,7.53125 L3.75,6.578125 L8.1875,6.578125 Z M4.625,7.796875 L8.1875,13.84375 L8.1875,7.796875 Z M12.953125,2.921875 C16.9375,3.859375 19.203125,6.9375 19.203125,10.625 C19.203125,13.984375 17.90625,15.8125 15.703125,15.8125 C13.75,15.8125 12.28125,14.25 12.28125,11.953125 C12.28125,9.390625 13.578125,8.109375 15.390625,8.109375 C16.265625,8.109375 16.9375,8.421875 17.453125,9 C16.984375,6.34375 15.5,4.390625 12.8125,3.484375 Z M17.515625,9.625 C17.0625,9.078125 16.53125,8.78125 15.890625,8.78125 C14.765625,8.765625 13.828125,9.953125 13.828125,12.03125 C13.828125,13.984375 14.546875,15.1875 15.640625,15.1875 C16.84375,15.1875 17.59375,13.96875 17.59375,10.890625 C17.59375,10.46875 17.5625,10.03125 17.515625,9.625 Z" transform="translate(0, 20.28125) scale(1, -1)"/>
</svg>