<svg height="22.328125" viewBox="0 0 24 22.328125" width="24" xmlns="http://www.w3.org/2000/svg">
<path d="M12,-2.046875 C18.171875,-2.046875 23.0625,2.828125 23.0625,9.125 C23.0625,15.390625 18.171875,20.28125 12,20.28125 C5.828125,20.28125 0.9375,15.390625 0.9375,9.125 C0.9375,2.859375 5.828125,-2.046875 12,-2.046875 Z M12,-1.375 C6.21875,-1.375 1.65625,3.21875 1.65625,9.125 C1.65625,15.03125 6.21875,19.609375 12,19.609375 C17.765625,19.609375 22.34375,15.03125 22.34375,9.125 C22.34375,3.21875 17.765625,-1.375 12,-1.375 Z M8.0625,3.1875 L9.53125,3.1875 L9.53125,6.578125 L11.0625,6.578125 L11.0625,7.796875 L9.53125,7.796875 L9.53125,15.625 L8.40625,15.625 L3.625,7.53125 L3.625,6.578125 L8.0625,6.578125 Z M4.515625,7.796875 L8.0625,13.84375 L8.0625,7.796875 Z M16.515625,3.1875 L17.96875,3.1875 L17.96875,6.578125 L19.515625,6.578125 L19.515625,7.796875 L17.96875,7.796875 L17.96875,15.625 L16.84375,15.625 L12.09375,7.53125 L12.09375,6.578125 L16.515625,6.578125 Z M12.984375,7.796875 L16.515625,13.84375 L16.515625,7.796875 Z" transform="translate(0, 20.28125) scale(1, -1)"/>
</svg>