<svg height="22.328125" viewBox="0 0 24 22.328125" width="24" xmlns="http://www.w3.org/2000/svg">
<path d="M12,-2.046875 C18.171875,-2.046875 23.0625,2.828125 23.0625,9.125 C23.0625,15.390625 18.171875,20.28125 12,20.28125 C5.828125,20.28125 0.9375,15.390625 0.9375,9.125 C0.9375,2.859375 5.828125,-2.046875 12,-2.046875 Z M12,-1.375 C6.21875,-1.375 1.65625,3.21875 1.65625,9.125 C1.65625,15.03125 6.21875,19.609375 12,19.609375 C17.765625,19.609375 22.34375,15.03125 22.34375,9.125 C22.34375,3.21875 17.765625,-1.375 12,-1.375 Z M8.0625,3.1875 L9.53125,3.1875 L9.53125,6.578125 L11.0625,6.578125 L11.0625,7.796875 L9.53125,7.796875 L9.53125,15.625 L8.40625,15.625 L3.625,7.53125 L3.625,6.578125 L8.0625,6.578125 Z M4.515625,7.796875 L8.0625,13.84375 L8.0625,7.796875 Z M15.671875,2.921875 C17.96875,2.921875 19.34375,4.15625 19.34375,5.96875 C19.34375,7.625 18.546875,8.6875 16.53125,9.84375 C18.3125,10.75 18.9375,11.765625 18.9375,12.984375 C18.9375,14.59375 17.859375,15.8125 15.859375,15.8125 C14.046875,15.8125 12.640625,14.515625 12.640625,12.75 C12.640625,11.15625 13.390625,10.0625 14.921875,9.1875 C13.15625,8.25 12.28125,7.296875 12.28125,5.828125 C12.28125,4.109375 13.4375,2.921875 15.671875,2.921875 Z M16.125,10.0625 C14.40625,11.046875 13.9375,11.953125 13.9375,13.0625 C13.9375,14.359375 14.828125,15.21875 15.84375,15.21875 C17.046875,15.21875 17.71875,14.25 17.71875,13.109375 C17.71875,11.859375 17.25,11.109375 16.125,10.0625 Z M15.359375,8.953125 C17.5,7.796875 18,6.90625 18,5.71875 C18,4.3125 17.15625,3.5 15.796875,3.5 C14.421875,3.5 13.5625,4.484375 13.5625,5.953125 C13.5625,7.125 14.0625,7.875 15.359375,8.953125 Z" transform="translate(0, 20.28125) scale(1, -1)"/>
</svg>