<svg height="19.890625" viewBox="0 0 24 19.890625" width="24" xmlns="http://www.w3.org/2000/svg">
<path d="M6.890625,0.3125 L12.4375,0.3125 L12.4375,1.9375 L7.75,1.9375 L10.15625,6.9375 C11.328125,9.390625 12.171875,12.140625 12.171875,14.1875 C12.171875,16.796875 11.28125,18.4375 9.484375,18.4375 C7.921875,18.4375 7.015625,17.140625 6.859375,14.828125 C7.03125,14.5 7.375,14.296875 7.6875,14.296875 C8.046875,14.296875 8.359375,14.640625 8.421875,15.484375 L8.59375,17.65625 C8.8125,17.765625 9.03125,17.8125 9.234375,17.8125 C10.03125,17.8125 10.5625,16.703125 10.5625,14.140625 C10.5625,12 9.984375,9.359375 9.09375,7.125 L6.890625,1.609375 Z M1.078125,17.28125 L1.078125,16.515625 L2.96875,16.890625 L2.96875,6.09375 L2.921875,1.125 L1.0625,0.953125 L1.0625,0.3125 L6.234375,0.3125 L6.234375,0.953125 L4.484375,1.125 L4.46875,6.09375 L4.46875,14.015625 L4.5625,18.046875 L4.21875,18.359375 Z M15.984375,7.828125 L16.015625,9.859375 L16.015625,12.234375 L20.421875,12.234375 L20.421875,7.828125 Z M14.59375,18.171875 L14.59375,9.84375 C14.59375,5.953125 14.453125,2.15625 12.3125,-0.703125 L12.703125,-0.953125 C15.078125,1.171875 15.75,4.15625 15.9375,7.109375 L20.421875,7.109375 L20.421875,1.578125 C20.421875,1.203125 20.296875,1.0625 19.890625,1.0625 C19.390625,1.0625 17.109375,1.25 17.109375,1.25 L17.109375,0.859375 C18.125,0.71875 18.703125,0.53125 19.03125,0.28125 C19.34375,0.03125 19.46875,-0.359375 19.53125,-0.8125 C21.640625,-0.59375 21.890625,0.171875 21.890625,1.390625 L21.890625,16.890625 C22.390625,16.984375 22.828125,17.203125 22.96875,17.40625 L20.96875,18.9375 L20.1875,17.921875 L16.265625,17.921875 L14.59375,18.796875 Z M16.015625,12.9375 L16.015625,17.234375 L20.421875,17.234375 L20.421875,12.9375 Z" transform="translate(-0.015625, 18.9375) scale(1, -1)"/>
</svg>