<svg height="19.90625" viewBox="0 0 24 19.90625" width="24" xmlns="http://www.w3.org/2000/svg">
<path d="M3.390625,9.03125 C3.90625,13.34375 6.34375,16.78125 10.4375,17.609375 L10.3125,18.34375 C4.875,17.6875 1.3125,12.625 1.3125,7.0625 C1.3125,2.453125 3.140625,-0.046875 6.234375,-0.046875 C8.828125,-0.046875 10.84375,2.09375 10.84375,5.65625 C10.84375,9.140625 9.234375,10.984375 6.890625,10.984375 C5.453125,10.984375 4.375,10.390625 3.390625,9.03125 Z M3.28125,7.203125 L3.3125,7.921875 C4.296875,9.5 5.1875,10.03125 6.265625,10.03125 C7.84375,10.03125 8.921875,8.71875 8.921875,5.453125 C8.921875,2.140625 7.6875,0.75 6.28125,0.75 C4.390625,0.75 3.28125,2.828125 3.28125,7.203125 Z M14.828125,7.828125 L14.875,9.859375 L14.875,12.234375 L20.28125,12.234375 L20.28125,7.828125 Z M13.390625,18.171875 L13.390625,9.84375 C13.390625,5.875 13.171875,2.109375 10.84375,-0.703125 L11.203125,-0.953125 C13.828125,1.171875 14.59375,4.125 14.8125,7.109375 L20.28125,7.109375 L20.28125,1.625 C20.28125,1.25 20.15625,1.109375 19.734375,1.109375 C19.21875,1.109375 16.875,1.296875 16.875,1.296875 L16.875,0.90625 C17.90625,0.765625 18.5,0.578125 18.859375,0.3125 C19.171875,0.046875 19.296875,-0.359375 19.375,-0.84375 C21.546875,-0.625 21.796875,0.171875 21.796875,1.4375 L21.796875,16.890625 C22.296875,16.96875 22.703125,17.203125 22.875,17.40625 L20.828125,18.953125 L20.015625,17.921875 L15.171875,17.921875 L13.390625,18.8125 Z M14.875,12.9375 L14.875,17.234375 L20.28125,17.234375 L20.28125,12.9375 Z" transform="translate(-0.09375, 18.953125) scale(1, -1)"/>
</svg>