<svg height="19.90625" viewBox="0 0 24 19.90625" width="24" xmlns="http://www.w3.org/2000/svg">
<path d="M1.125,0.390625 L10.984375,0.390625 L10.984375,2.140625 L2.546875,2.140625 L6.84375,7.078125 C9.171875,9.671875 10.34375,11.453125 10.34375,13.78125 C10.34375,16.484375 8.71875,18.3125 5.875,18.3125 C3.578125,18.3125 1.703125,16.9375 1.25,14.71875 C1.4375,14.296875 1.75,14.0625 2.140625,14.0625 C2.609375,14.0625 3.046875,14.359375 3.265625,15.21875 L4.0625,17.328125 C4.484375,17.46875 4.921875,17.546875 5.40625,17.546875 C7.3125,17.546875 8.359375,15.90625 8.359375,13.703125 C8.359375,11.609375 7.65625,9.890625 5.59375,7.296875 L1.125,1.625 Z M14.828125,7.828125 L14.875,9.859375 L14.875,12.234375 L20.28125,12.234375 L20.28125,7.828125 Z M13.390625,18.171875 L13.390625,9.84375 C13.390625,5.875 13.171875,2.109375 10.84375,-0.703125 L11.203125,-0.953125 C13.828125,1.171875 14.59375,4.125 14.8125,7.109375 L20.28125,7.109375 L20.28125,1.625 C20.28125,1.25 20.15625,1.109375 19.734375,1.109375 C19.21875,1.109375 16.875,1.296875 16.875,1.296875 L16.875,0.90625 C17.90625,0.765625 18.5,0.578125 18.859375,0.3125 C19.171875,0.046875 19.296875,-0.359375 19.375,-0.84375 C21.546875,-0.625 21.796875,0.171875 21.796875,1.4375 L21.796875,16.890625 C22.296875,16.96875 22.703125,17.203125 22.875,17.40625 L20.828125,18.953125 L20.015625,17.921875 L15.171875,17.921875 L13.390625,18.8125 Z M14.875,12.9375 L14.875,17.234375 L20.28125,17.234375 L20.28125,12.9375 Z" transform="translate(0, 18.953125) scale(1, -1)"/>
</svg>