<svg height="19.5" viewBox="0 0 24 19.5" width="24" xmlns="http://www.w3.org/2000/svg">
<path d="M19.296875,5.203125 C18.390625,5.203125 17.828125,6.21875 17.828125,8.8125 C17.828125,11.40625 18.4375,12.390625 19.296875,12.390625 C20.1875,12.390625 20.8125,11.40625 20.8125,8.8125 C20.8125,6.21875 20.1875,5.203125 19.296875,5.203125 Z M4.203125,-0.390625 C5.609375,-0.390625 6.53125,0.578125 7.078125,2.734375 L6.59375,2.921875 C6.09375,1.4375 5.546875,0.796875 4.578125,0.796875 C3.5,0.796875 2.515625,2.140625 2.46875,6.5 L6.9375,6.5 C7.03125,6.90625 7.078125,7.390625 7.078125,8.046875 C7.078125,10.96875 6.125,13.0625 4.265625,13.0625 C2.46875,13.0625 0.9375,11.328125 0.9375,6.390625 C0.9375,1.375 2.40625,-0.390625 4.203125,-0.390625 Z M2.46875,7.171875 C2.515625,10.9375 3.1875,12.359375 4.203125,12.359375 C5.15625,12.359375 5.65625,10.75 5.65625,8.40625 C5.65625,7.46875 5.515625,7.171875 5.109375,7.171875 Z M11.453125,8.859375 C11.875,10.625 12.53125,11.5625 13.3125,11.96875 L13.484375,10.984375 C13.703125,10.21875 13.96875,9.984375 14.359375,9.984375 C14.78125,9.984375 15.078125,10.34375 15.140625,11.09375 C14.875,12.640625 14.421875,13.0625 13.734375,13.0625 C12.84375,13.0625 11.96875,12.28125 11.453125,10.21875 L11.375,12.75 L11.046875,12.9375 L8.546875,12.265625 L8.546875,11.765625 L9.984375,11.71875 C10.015625,10.375 10.03125,8.90625 10.03125,7.125 L10.03125,5.59375 L9.984375,0.71875 L8.734375,0.625 L8.734375,0 L13.0625,0 L13.0625,0.625 L11.5,0.71875 L11.453125,5.59375 Z M18.359375,0.234375 C18.59375,0.140625 18.890625,0.09375 19.171875,0.046875 L19.984375,-0.078125 C21.3125,-0.28125 21.9375,-1.15625 21.9375,-2.8125 C21.9375,-4.609375 21.078125,-5.640625 19.484375,-5.640625 C18,-5.640625 17.15625,-4.828125 17.15625,-2.875 C17.15625,-1.484375 17.46875,-0.75 18.359375,0.234375 Z M19.3125,4.53125 C21.171875,4.53125 22.265625,6 22.265625,8.8125 C22.265625,10.078125 22.0625,11.09375 21.625,11.78125 L23.734375,11.65625 L23.734375,12.765625 L23.359375,13.03125 L21.328125,12.1875 C20.828125,12.765625 20.15625,13.0625 19.3125,13.0625 C17.421875,13.0625 16.34375,11.609375 16.34375,8.8125 C16.34375,6.890625 16.84375,5.59375 17.78125,4.96875 C16.875,4.265625 16.46875,3.53125 16.46875,2.640625 C16.46875,1.65625 16.96875,0.84375 17.921875,0.40625 C16.703125,-0.3125 15.84375,-1.4375 15.84375,-3.09375 C15.84375,-5.140625 17.09375,-6.4375 19.421875,-6.4375 C21.984375,-6.4375 23.296875,-4.5625 23.296875,-2.40625 C23.296875,-0.03125 22.25,1.109375 20.234375,1.4375 L19.375,1.5625 C18,1.78125 17.609375,2.453125 17.609375,3.3125 C17.609375,3.8125 17.78125,4.25 18.21875,4.734375 C18.546875,4.609375 18.90625,4.53125 19.3125,4.53125 Z" transform="translate(-0.3359375, 13.0625) scale(1, -1)"/>
</svg>