<svg height="22.796875" viewBox="0 0 24 22.796875" width="24" xmlns="http://www.w3.org/2000/svg">
<path d="M12,20.5 C5.765625,20.5 0.59375,15.4375 0.59375,9.09375 C0.59375,2.8125 5.71875,-2.296875 12,-2.296875 C18.28125,-2.296875 23.40625,2.8125 23.40625,9.09375 C23.40625,15.390625 18.28125,20.5 12,20.5 Z M12,-1.578125 C6.140625,-1.578125 1.3125,3.140625 1.3125,9.09375 C1.3125,15 6.09375,19.78125 12,19.78125 C17.90625,19.78125 22.6875,15 22.6875,9.09375 C22.6875,3.1875 17.90625,-1.578125 12,-1.578125 Z M6.234375,1.0625 L6.546875,0.640625 C10.53125,2.71875 12.484375,5.328125 13.890625,9.1875 L13.96875,9.484375 C15.671875,10.46875 17.375,11.65625 18.171875,12.28125 C18.59375,12.59375 19.34375,12.671875 19.34375,13.125 C19.34375,13.625 18.03125,14.765625 17.5,14.765625 C17.203125,14.765625 17.015625,14.5 16.625,14.453125 C15.546875,14.28125 8.1875,13.484375 6.953125,13.484375 C6.4375,13.484375 6.1875,13.96875 5.8125,14.515625 L5.40625,14.40625 C5.453125,13.984375 5.46875,13.609375 5.65625,13.25 C5.921875,12.703125 6.796875,11.953125 7.25,11.953125 C7.734375,11.953125 7.734375,12.28125 8.453125,12.40625 C10.578125,12.84375 15.953125,13.578125 16.875,13.578125 C17.28125,13.578125 17.328125,13.515625 17.109375,13.15625 C16.5625,12.390625 15.03125,11.09375 13.53125,10.0625 C13.21875,10.296875 12.703125,10.484375 12.09375,10.578125 C11.765625,10.65625 11.421875,10.65625 10.875,10.65625 L10.796875,10.25 C11.59375,9.953125 12.3125,9.703125 12.3125,9.125 C12.3125,7.828125 9.984375,3.34375 6.234375,1.0625 Z" transform="translate(0, 20.5) scale(1, -1)"/>
</svg>