<svg height="22.796875" viewBox="0 0 24 22.796875" width="24" xmlns="http://www.w3.org/2000/svg">
<path d="M12,20.5 C5.765625,20.5 0.59375,15.4375 0.59375,9.09375 C0.59375,2.8125 5.71875,-2.296875 12,-2.296875 C18.28125,-2.296875 23.40625,2.8125 23.40625,9.09375 C23.40625,15.390625 18.28125,20.5 12,20.5 Z M12,-1.578125 C6.140625,-1.578125 1.3125,3.140625 1.3125,9.09375 C1.3125,15 6.09375,19.78125 12,19.78125 C17.90625,19.78125 22.6875,15 22.6875,9.09375 C22.6875,3.1875 17.90625,-1.578125 12,-1.578125 Z M8.25,11.65625 C8.734375,11.65625 9.765625,11.875 11.046875,12.046875 C11.46875,11.546875 11.640625,11.109375 11.640625,10.34375 C11.640625,9.53125 11.59375,7.390625 11.5,5.96875 C8.953125,5.734375 6.671875,5.46875 6.125,5.46875 C5.46875,5.46875 5.046875,5.96875 4.625,6.484375 L4.265625,6.34375 C4.3125,5.828125 4.375,5.546875 4.515625,5.296875 C4.734375,4.890625 5.59375,4.0625 6.171875,4.0625 C6.625,4.0625 6.9375,4.3125 7.625,4.515625 C9.578125,4.984375 14.09375,5.40625 16.15625,5.28125 C18.046875,5.203125 19.296875,4.796875 19.78125,4.796875 C20.109375,4.796875 20.328125,4.96875 20.328125,5.28125 C20.328125,5.953125 18.84375,6.578125 18.078125,6.578125 C17.828125,6.578125 17.59375,6.390625 16.796875,6.359375 C15.546875,6.3125 14.09375,6.1875 12.640625,6.078125 C12.703125,7.421875 12.84375,9.21875 12.9375,10.0625 C12.984375,10.578125 13.21875,10.921875 13.21875,11.234375 C13.21875,11.59375 12.75,11.921875 12.140625,12.171875 C13.796875,12.359375 16.21875,12.625 16.9375,12.75 C17.46875,12.796875 17.640625,13.015625 17.640625,13.296875 C17.640625,13.734375 16.609375,14.109375 15.90625,14.109375 C15.390625,14.109375 15.703125,13.625 12.71875,13.21875 C10.796875,12.953125 9.234375,12.765625 8.5,12.765625 C7.78125,12.765625 7.21875,13.21875 6.625,13.75 L6.3125,13.515625 C6.5,13.015625 6.84375,12.546875 7.125,12.28125 C7.46875,11.953125 7.828125,11.65625 8.25,11.65625 Z" transform="translate(0, 20.5) scale(1, -1)"/>
</svg>