<svg height="22.796875" viewBox="0 0 24 22.796875" width="24" xmlns="http://www.w3.org/2000/svg">
<path d="M12,20.5 C5.765625,20.5 0.59375,15.4375 0.59375,9.09375 C0.59375,2.8125 5.71875,-2.296875 12,-2.296875 C18.28125,-2.296875 23.40625,2.8125 23.40625,9.09375 C23.40625,15.390625 18.28125,20.5 12,20.5 Z M12,-1.578125 C6.140625,-1.578125 1.3125,3.140625 1.3125,9.09375 C1.3125,15 6.09375,19.78125 12,19.78125 C17.90625,19.78125 22.6875,15 22.6875,9.09375 C22.6875,3.1875 17.90625,-1.578125 12,-1.578125 Z M8.421875,1.9375 C8.90625,1.9375 9.125,2.421875 9.484375,2.65625 C13.65625,4.96875 17.640625,8.25 19.796875,12.03125 L19.375,12.3125 C15.953125,7.578125 9.125,3.53125 7.84375,3.53125 C7.21875,3.53125 6.640625,4.15625 6.125,4.78125 L5.828125,4.578125 C5.859375,4.3125 6,3.640625 6.21875,3.34375 C6.640625,2.765625 7.828125,1.9375 8.421875,1.9375 Z M9.453125,8.453125 C9.796875,8.453125 10.015625,8.71875 10.015625,9.03125 C10.015625,9.71875 9.3125,10.390625 8.15625,10.875 C7.296875,11.234375 6.59375,11.453125 5.640625,11.6875 L5.453125,11.25 C6.234375,10.84375 6.890625,10.421875 7.609375,9.859375 C8.5625,9.125 8.875,8.453125 9.453125,8.453125 Z M11.859375,11.96875 C12.1875,11.96875 12.40625,12.234375 12.40625,12.578125 C12.40625,13.21875 11.828125,13.84375 10.578125,14.5 C9.765625,14.859375 8.90625,15.125 8.203125,15.34375 L7.96875,14.90625 C8.515625,14.59375 9.34375,14.09375 9.984375,13.53125 C10.96875,12.71875 11.328125,11.96875 11.859375,11.96875 Z" transform="translate(0, 20.5) scale(1, -1)"/>
</svg>