<svg height="22.796875" viewBox="0 0 24 22.796875" width="24" xmlns="http://www.w3.org/2000/svg">
<path d="M12,20.5 C5.765625,20.5 0.59375,15.4375 0.59375,9.09375 C0.59375,2.8125 5.71875,-2.296875 12,-2.296875 C18.28125,-2.296875 23.40625,2.8125 23.40625,9.09375 C23.40625,15.390625 18.28125,20.5 12,20.5 Z M12,-1.578125 C6.140625,-1.578125 1.3125,3.140625 1.3125,9.09375 C1.3125,15 6.09375,19.78125 12,19.78125 C17.90625,19.78125 22.6875,15 22.6875,9.09375 C22.6875,3.1875 17.90625,-1.578125 12,-1.578125 Z M7.5625,3.90625 C7.984375,3.90625 8.234375,4.171875 9.21875,4.375 C10.34375,4.578125 12.59375,4.875 14.203125,4.875 C15.59375,4.875 16.4375,4.703125 16.984375,4.703125 C17.515625,4.703125 17.734375,4.796875 17.734375,5.109375 C17.734375,5.5 17.203125,5.875 16.609375,6 C16.96875,8.1875 17.40625,10.5625 17.5625,11.375 C17.6875,11.875 18.171875,12.046875 18.171875,12.453125 C18.171875,12.90625 16.921875,13.796875 16.421875,13.796875 C16.0625,13.796875 15.9375,13.421875 15.265625,13.34375 C14.109375,13.203125 8.765625,12.640625 7.796875,12.640625 C7.15625,12.640625 6.8125,13.265625 6.453125,13.75 L6.078125,13.578125 C6.09375,13.3125 6.171875,12.84375 6.234375,12.59375 C6.40625,12.125 7.25,11.234375 7.78125,11.234375 C8.109375,11.234375 8.515625,11.546875 8.96875,11.640625 C10.296875,11.90625 15.234375,12.484375 16.078125,12.484375 C16.203125,12.484375 16.265625,12.40625 16.25,12.265625 C16.15625,11.1875 15.796875,8.25 15.453125,5.96875 C13.34375,5.828125 8.359375,5.296875 7.625,5.296875 C6.890625,5.296875 6.40625,5.921875 6,6.4375 L5.640625,6.21875 C5.65625,6 5.8125,5.453125 5.96875,5.140625 C6.21875,4.6875 7.0625,3.90625 7.5625,3.90625 Z" transform="translate(0, 20.5) scale(1, -1)"/>
</svg>