<svg height="22.796875" viewBox="0 0 24 22.796875" width="24" xmlns="http://www.w3.org/2000/svg">
<path d="M12,20.5 C5.765625,20.5 0.59375,15.4375 0.59375,9.09375 C0.59375,2.8125 5.71875,-2.296875 12,-2.296875 C18.28125,-2.296875 23.40625,2.8125 23.40625,9.09375 C23.40625,15.390625 18.28125,20.5 12,20.5 Z M12,-1.578125 C6.140625,-1.578125 1.3125,3.140625 1.3125,9.09375 C1.3125,15 6.09375,19.78125 12,19.78125 C17.90625,19.78125 22.6875,15 22.6875,9.09375 C22.6875,3.1875 17.90625,-1.578125 12,-1.578125 Z M5.28125,8.15625 L5.546875,7.75 C6.859375,8.5 8.109375,9.484375 9.234375,10.578125 C10.78125,9.890625 12.125,9.03125 13.265625,8.015625 C11.1875,5.640625 8.421875,3.34375 5.359375,1.796875 L5.640625,1.390625 C9.140625,2.828125 11.875,4.828125 14.09375,7.25 C15.546875,5.78125 15.890625,4.9375 16.421875,4.96875 C16.796875,4.96875 17.046875,5.203125 17.046875,5.609375 C17.046875,6.34375 16.0625,7.296875 14.90625,8.1875 C15.984375,9.5 16.9375,10.96875 17.78125,12.53125 C18,13.015625 18.640625,13.125 18.640625,13.484375 C18.640625,13.96875 17.515625,14.8125 17.0625,14.8125 C16.75,14.8125 16.625,14.453125 16.109375,14.359375 C15.59375,14.234375 13.15625,13.921875 12.21875,13.921875 L12.03125,13.921875 L12.578125,14.8125 C12.859375,15.28125 13.125,15.453125 13.125,15.765625 C13.125,16.109375 12.1875,16.6875 11.453125,16.84375 C11.046875,16.9375 10.6875,16.9375 10.34375,16.9375 L10.21875,16.5625 C10.890625,16.296875 11.40625,16.015625 11.40625,15.640625 C11.40625,14.5625 8.15625,10.21875 5.28125,8.15625 Z M13.9375,8.859375 C12.765625,9.59375 11.140625,10.375 9.59375,10.9375 C10.296875,11.65625 10.9375,12.4375 11.515625,13.21875 C11.78125,13.03125 12.03125,12.890625 12.21875,12.890625 C12.484375,12.890625 12.859375,13.03125 13.265625,13.125 C13.9375,13.25 15.703125,13.5625 16.375,13.609375 C16.578125,13.609375 16.6875,13.53125 16.578125,13.296875 C16.0625,11.90625 15.140625,10.375 13.9375,8.859375 Z" transform="translate(0, 20.5) scale(1, -1)"/>
</svg>