<svg height="22.796875" viewBox="0 0 24 22.796875" width="24" xmlns="http://www.w3.org/2000/svg">
<path d="M12,20.5 C5.765625,20.5 0.59375,15.4375 0.59375,9.09375 C0.59375,2.8125 5.71875,-2.296875 12,-2.296875 C18.28125,-2.296875 23.40625,2.8125 23.40625,9.09375 C23.40625,15.390625 18.28125,20.5 12,20.5 Z M12,-1.578125 C6.140625,-1.578125 1.3125,3.140625 1.3125,9.09375 C1.3125,15 6.09375,19.78125 12,19.78125 C17.90625,19.78125 22.6875,15 22.6875,9.09375 C22.6875,3.1875 17.90625,-1.578125 12,-1.578125 Z M7.609375,10.3125 C8.15625,10.3125 8.515625,10.578125 9.3125,10.734375 C10.265625,10.890625 11.640625,11.140625 13.015625,11.296875 C11.46875,8.5 7.96875,5.25 4.828125,3.3125 L5.140625,2.90625 C8.375,4.375 11.96875,7.3125 13.734375,9.9375 C13.75,7.65625 13.78125,4.6875 13.703125,3.890625 C13.703125,3.671875 13.5625,3.578125 13.3125,3.625 C12.8125,3.703125 11.859375,3.9375 11.09375,4.109375 L10.9375,3.765625 C11.59375,3.4375 12.453125,3.09375 12.984375,2.640625 C13.34375,2.28125 13.375,1.65625 13.84375,1.65625 C14.40625,1.65625 14.953125,2.5 14.953125,3.234375 C14.953125,3.71875 14.859375,4.125 14.8125,5.296875 C14.765625,6.703125 14.765625,9.71875 14.765625,11.46875 C17.1875,11.65625 18.640625,11.546875 19.484375,11.546875 C19.78125,11.546875 19.9375,11.765625 19.9375,12 C19.9375,12.484375 18.984375,12.953125 18.28125,12.953125 C17.96875,12.953125 17.96875,12.671875 14.765625,12.34375 C14.765625,13.015625 14.8125,13.875 14.859375,14.421875 C14.953125,15.140625 15.21875,15.171875 15.21875,15.578125 C15.21875,15.90625 14.1875,16.515625 13.375,16.515625 C12.859375,16.515625 12.3125,16.34375 12,16.25 L11.96875,15.84375 C12.40625,15.8125 12.84375,15.75 13.171875,15.59375 C13.53125,15.484375 13.65625,15.390625 13.65625,15.03125 L13.703125,12.234375 C11.6875,12.03125 8.765625,11.6875 7.578125,11.65625 C7.109375,11.640625 6.75,12.046875 6.3125,12.765625 L5.953125,12.625 C5.953125,12.34375 5.96875,11.859375 6.09375,11.59375 C6.234375,11.15625 7.109375,10.296875 7.609375,10.3125 Z" transform="translate(0, 20.5) scale(1, -1)"/>
</svg>