<svg height="22.796875" viewBox="0 0 24 22.796875" width="24" xmlns="http://www.w3.org/2000/svg">
<path d="M12,20.5 C5.765625,20.5 0.59375,15.4375 0.59375,9.09375 C0.59375,2.8125 5.71875,-2.296875 12,-2.296875 C18.28125,-2.296875 23.40625,2.8125 23.40625,9.09375 C23.40625,15.390625 18.28125,20.5 12,20.5 Z M12,-1.578125 C6.140625,-1.578125 1.3125,3.140625 1.3125,9.09375 C1.3125,15 6.09375,19.78125 12,19.78125 C17.90625,19.78125 22.6875,15 22.6875,9.09375 C22.6875,3.1875 17.90625,-1.578125 12,-1.578125 Z M5.609375,9.453125 C6.03125,9.453125 6.4375,9.703125 6.9375,9.84375 C7.484375,9.953125 8.234375,10.109375 9.21875,10.25 C9.1875,8.234375 8.921875,7.65625 8.921875,7.03125 C8.921875,6.5 9.21875,5.6875 9.703125,5.6875 C10.078125,5.6875 10.21875,5.96875 10.21875,6.75 L10.21875,10.375 C11.421875,10.484375 12.890625,10.609375 14.25,10.703125 C14.234375,8.5 14.046875,6.359375 13.078125,4.875 C12.046875,3.265625 10.421875,2.25 8.953125,1.5625 L9.21875,1.125 C11.515625,1.9375 13.171875,3.234375 14.015625,4.390625 C15.234375,6.078125 15.34375,8.453125 15.390625,10.75 L17.046875,10.796875 C18.4375,10.796875 19.15625,10.625 19.5625,10.625 C19.921875,10.625 20.046875,10.75 20.046875,11.0625 C20.046875,11.640625 19.015625,12 18.265625,12 C17.859375,12 17.65625,11.859375 15.40625,11.6875 L15.484375,14.203125 C15.5,14.96875 15.84375,14.875 15.84375,15.265625 C15.84375,15.671875 14.828125,16.4375 13.9375,16.4375 C13.609375,16.4375 13.21875,16.3125 12.84375,16.203125 L12.84375,15.8125 C13.625,15.703125 14.140625,15.59375 14.203125,15.21875 C14.28125,14.46875 14.25,13.3125 14.25,11.59375 L10.21875,11.1875 L10.296875,13.125 C10.3125,13.75 10.53125,13.75 10.53125,14.15625 C10.53125,14.640625 9.40625,15.1875 8.828125,15.1875 C8.5,15.1875 8.09375,15.09375 7.78125,14.96875 L7.78125,14.609375 C8.5625,14.5 9,14.375 9.09375,13.984375 C9.21875,13.53125 9.21875,12.078125 9.21875,11.09375 C8.109375,10.96875 6.28125,10.75 5.546875,10.75 C5.09375,10.75 4.734375,11.359375 4.390625,11.90625 L4.0625,11.78125 C4.0625,11.46875 4.078125,10.96875 4.203125,10.75 C4.375,10.34375 5.140625,9.453125 5.609375,9.453125 Z" transform="translate(0, 20.5) scale(1, -1)"/>
</svg>