<svg height="22.796875" viewBox="0 0 24 22.796875" width="24" xmlns="http://www.w3.org/2000/svg">
<path d="M12,20.5 C5.765625,20.5 0.59375,15.4375 0.59375,9.09375 C0.59375,2.8125 5.71875,-2.296875 12,-2.296875 C18.28125,-2.296875 23.40625,2.8125 23.40625,9.09375 C23.40625,15.390625 18.28125,20.5 12,20.5 Z M12,-1.578125 C6.140625,-1.578125 1.3125,3.140625 1.3125,9.09375 C1.3125,15 6.09375,19.78125 12,19.78125 C17.90625,19.78125 22.6875,15 22.6875,9.09375 C22.6875,3.1875 17.90625,-1.578125 12,-1.578125 Z M5.859375,2.65625 L6.171875,2.203125 C11.375,4.890625 14.421875,8.609375 16.625,13.109375 C16.96875,13.75 17.375,13.796875 17.375,14.234375 C17.375,14.765625 16.375,15.59375 15.578125,15.8125 C15.171875,15.90625 14.734375,15.953125 14.296875,15.9375 L14.203125,15.578125 C15.09375,15.1875 15.453125,14.921875 15.453125,14.46875 C15.453125,14.203125 15.359375,13.796875 15.140625,13.296875 C13.875,10.375 10.828125,5.921875 5.859375,2.65625 Z" transform="translate(0, 20.5) scale(1, -1)"/>
</svg>