<svg height="22.796875" viewBox="0 0 24 22.796875" width="24" xmlns="http://www.w3.org/2000/svg">
<path d="M12,20.5 C5.765625,20.5 0.59375,15.4375 0.59375,9.09375 C0.59375,2.8125 5.71875,-2.296875 12,-2.296875 C18.28125,-2.296875 23.40625,2.8125 23.40625,9.09375 C23.40625,15.390625 18.28125,20.5 12,20.5 Z M12,-1.578125 C6.140625,-1.578125 1.3125,3.140625 1.3125,9.09375 C1.3125,15 6.09375,19.78125 12,19.78125 C17.90625,19.78125 22.6875,15 22.6875,9.09375 C22.6875,3.1875 17.90625,-1.578125 12,-1.578125 Z M5.90625,4.171875 C7.25,4.171875 8.734375,6.765625 8.921875,8.828125 L8.453125,8.921875 C8.09375,7.890625 7.578125,6.90625 6.21875,5.859375 C5.640625,5.40625 5.28125,5.28125 5.28125,4.828125 C5.28125,4.484375 5.5,4.171875 5.90625,4.171875 Z M19.171875,4.578125 C19.625,4.578125 19.84375,4.96875 19.75,5.5 C19.4375,7.03125 17.5625,8.40625 15.640625,9.171875 L15.390625,8.8125 C16.734375,7.875 17.5625,6.703125 18.078125,5.8125 C18.4375,5.203125 18.640625,4.578125 19.171875,4.578125 Z M6.765625,10.296875 C7.203125,10.296875 7.375,10.625 8.140625,10.78125 C9.125,10.984375 10.78125,11.234375 12.03125,11.375 L12.03125,9.796875 C12.03125,8.1875 12.03125,5.09375 11.953125,4.21875 C11.921875,3.953125 11.78125,3.9375 11.546875,3.984375 C11.0625,4.109375 10.34375,4.34375 9.75,4.5625 L9.546875,4.171875 C10.15625,3.8125 10.796875,3.359375 11.140625,3 C11.5625,2.5 11.515625,2.109375 12.046875,2.109375 C12.671875,2.109375 13.109375,2.921875 13.109375,3.75 C13.109375,4.21875 13.03125,8.375 13.03125,9.765625 L13.03125,11.5 C14.296875,11.65625 15.890625,11.8125 16.65625,11.8125 C17.46875,11.8125 18,11.734375 18.546875,11.734375 C19.03125,11.734375 19.21875,11.875 19.21875,12.265625 C19.21875,12.71875 18.28125,13.15625 17.59375,13.15625 C17.1875,13.15625 16.984375,12.84375 13.0625,12.359375 C13.078125,13.171875 13.109375,13.9375 13.15625,14.40625 C13.171875,14.953125 13.5625,14.96875 13.5625,15.3125 C13.5625,15.75 12.578125,16.375 11.8125,16.390625 C11.421875,16.390625 10.828125,16.296875 10.390625,16.21875 L10.421875,15.796875 C11.421875,15.671875 11.828125,15.546875 11.90625,14.953125 C11.953125,14.515625 11.96875,13.390625 12,12.21875 C10.609375,12.078125 7.515625,11.65625 6.625,11.65625 C6.21875,11.640625 5.8125,12.125 5.46875,12.625 L5.109375,12.484375 C5.15625,12.09375 5.234375,11.65625 5.359375,11.421875 C5.640625,10.84375 6.359375,10.296875 6.765625,10.296875 Z" transform="translate(0, 20.5) scale(1, -1)"/>
</svg>