<svg height="22.796875" viewBox="0 0 24 22.796875" width="24" xmlns="http://www.w3.org/2000/svg">
<path d="M12,20.5 C5.765625,20.5 0.59375,15.4375 0.59375,9.09375 C0.59375,2.8125 5.71875,-2.296875 12,-2.296875 C18.28125,-2.296875 23.40625,2.8125 23.40625,9.09375 C23.40625,15.390625 18.28125,20.5 12,20.5 Z M12,-1.578125 C6.140625,-1.578125 1.3125,3.140625 1.3125,9.09375 C1.3125,15 6.09375,19.78125 12,19.78125 C17.90625,19.78125 22.6875,15 22.6875,9.09375 C22.6875,3.1875 17.90625,-1.578125 12,-1.578125 Z M16.734375,6.9375 C17.140625,6.9375 17.328125,7.21875 17.328125,7.5625 C17.328125,8.140625 16.84375,8.59375 16.265625,8.96875 C15.234375,9.59375 13.421875,10.265625 11.609375,10.703125 C11.609375,11.734375 11.65625,13.125 11.765625,14.046875 C11.828125,14.65625 12.171875,14.734375 12.171875,15.125 C12.171875,15.546875 10.875,16.25 10.078125,16.25 C9.75,16.25 9.40625,16.125 8.921875,16.03125 L8.921875,15.640625 C9.9375,15.546875 10.34375,15.40625 10.421875,14.8125 C10.515625,13.875 10.515625,11.828125 10.515625,10.296875 C10.515625,8.859375 10.515625,5.765625 10.375,4.34375 C10.265625,3.625 10.109375,3.28125 10.109375,2.875 C10.109375,2.25 10.4375,1.21875 11.0625,1.21875 C11.46875,1.21875 11.640625,1.4375 11.640625,1.921875 C11.640625,2.234375 11.59375,2.8125 11.59375,3.625 C11.5625,5.609375 11.59375,8.734375 11.609375,10.03125 C12.90625,9.546875 13.921875,9 14.78125,8.421875 C15.90625,7.5625 16.125,6.9375 16.734375,6.9375 Z" transform="translate(0, 20.5) scale(1, -1)"/>
</svg>