<svg height="22.796875" viewBox="0 0 24 22.796875" width="24" xmlns="http://www.w3.org/2000/svg">
<path d="M12,20.5 C5.765625,20.5 0.59375,15.4375 0.59375,9.09375 C0.59375,2.8125 5.71875,-2.296875 12,-2.296875 C18.28125,-2.296875 23.40625,2.8125 23.40625,9.09375 C23.40625,15.390625 18.28125,20.5 12,20.5 Z M12,-1.578125 C6.140625,-1.578125 1.3125,3.140625 1.3125,9.09375 C1.3125,15 6.09375,19.78125 12,19.78125 C17.90625,19.78125 22.6875,15 22.6875,9.09375 C22.6875,3.1875 17.90625,-1.578125 12,-1.578125 Z M11.65625,2.765625 C14.609375,2.765625 16.484375,3 17.25,3.234375 C17.609375,3.34375 17.875,3.5 17.875,3.890625 C17.875,4.3125 17.296875,4.515625 16.4375,4.515625 C15.796875,4.515625 14.515625,3.90625 11.515625,3.90625 C9.234375,3.90625 8.828125,4.03125 8.828125,5.90625 L8.875,8.546875 C12,9.4375 14.6875,10.625 16.015625,11.296875 C16.734375,11.6875 17.234375,11.828125 17.234375,12.171875 C17.234375,12.578125 16.6875,13.296875 16.15625,13.625 C15.90625,13.796875 15.640625,13.890625 15.265625,13.9375 L15.03125,13.703125 C15.1875,13.53125 15.359375,13.3125 15.453125,13.078125 C15.625,12.765625 15.546875,12.625 15.234375,12.359375 C14.015625,11.421875 11.5,10.203125 8.90625,9.28125 C8.96875,11.109375 9.078125,13.109375 9.171875,13.890625 C9.234375,14.515625 9.578125,14.5625 9.578125,14.921875 C9.578125,15.359375 8.5,16.078125 7.703125,16.125 C7.296875,16.15625 6.84375,16.015625 6.390625,15.890625 L6.40625,15.546875 C7.390625,15.40625 7.796875,15.28125 7.890625,14.765625 C7.96875,13.875 7.75,7.625 7.78125,6 C7.78125,3.3125 8.28125,2.765625 11.65625,2.765625 Z" transform="translate(0, 20.5) scale(1, -1)"/>
</svg>