<svg height="22.796875" viewBox="0 0 24 22.796875" width="24" xmlns="http://www.w3.org/2000/svg">
<path d="M12,20.5 C5.765625,20.5 0.59375,15.4375 0.59375,9.09375 C0.59375,2.8125 5.71875,-2.296875 12,-2.296875 C18.28125,-2.296875 23.40625,2.8125 23.40625,9.09375 C23.40625,15.390625 18.28125,20.5 12,20.5 Z M12,-1.578125 C6.140625,-1.578125 1.3125,3.140625 1.3125,9.09375 C1.3125,15 6.09375,19.78125 12,19.78125 C17.90625,19.78125 22.6875,15 22.6875,9.09375 C22.6875,3.1875 17.90625,-1.578125 12,-1.578125 Z M15.765625,2.046875 C16.203125,2.046875 16.421875,2.28125 16.421875,2.59375 C16.421875,3.03125 16.078125,3.453125 15.4375,3.859375 C14.109375,4.78125 11.09375,5.859375 7.609375,6.1875 L7.46875,5.71875 C10.25,4.921875 11.953125,4.421875 14.296875,2.875 C14.921875,2.421875 15.359375,2.046875 15.765625,2.046875 Z M14.25,8.25 C14.59375,8.25 14.8125,8.515625 14.8125,8.8125 C14.8125,9.3125 14.421875,9.703125 13.703125,10.03125 C12.71875,10.484375 10.875,11.046875 8.421875,11.234375 L8.328125,10.796875 C10.75,10.0625 12.046875,9.453125 13.21875,8.734375 C13.703125,8.453125 13.984375,8.25 14.25,8.25 Z M15.5,12.53125 C15.8125,12.53125 16.015625,12.796875 16.015625,13.109375 C16.015625,13.625 15.71875,14.015625 14.6875,14.515625 C13.5625,15.046875 11.546875,15.578125 8.78125,15.84375 L8.6875,15.40625 C11.40625,14.71875 12.890625,14.0625 14.359375,13.109375 C14.875,12.765625 15.125,12.53125 15.5,12.53125 Z" transform="translate(0, 20.5) scale(1, -1)"/>
</svg>