<svg height="22.796875" viewBox="0 0 24 22.796875" width="24" xmlns="http://www.w3.org/2000/svg">
<path d="M12,20.5 C5.765625,20.5 0.59375,15.4375 0.59375,9.09375 C0.59375,2.8125 5.71875,-2.296875 12,-2.296875 C18.28125,-2.296875 23.40625,2.8125 23.40625,9.09375 C23.40625,15.390625 18.28125,20.5 12,20.5 Z M12,-1.578125 C6.140625,-1.578125 1.3125,3.140625 1.3125,9.09375 C1.3125,15 6.09375,19.78125 12,19.78125 C17.90625,19.78125 22.6875,15 22.6875,9.09375 C22.6875,3.1875 17.90625,-1.578125 12,-1.578125 Z M19.4375,5.234375 C19.78125,5.234375 19.984375,5.46875 19.984375,5.828125 C19.984375,6.28125 19.6875,6.796875 19.25,7.078125 C16.875,8.6875 13.96875,11.421875 11.609375,13.828125 C11.0625,14.40625 10.609375,14.546875 10.125,14.546875 C9.671875,14.546875 9.28125,14.28125 8.90625,13.875 C8.25,13.203125 6.640625,11.375 5.78125,10.578125 C5.421875,10.25 5.15625,10.078125 4.890625,10.078125 C4.578125,10.078125 4.125,10.375 3.703125,10.78125 L3.390625,10.484375 C3.484375,10.15625 3.578125,9.8125 3.8125,9.578125 C4.203125,9.09375 4.9375,8.65625 5.421875,8.65625 C5.953125,8.65625 6.234375,9.078125 6.703125,9.640625 C7.390625,10.484375 8.859375,12.40625 9.453125,13.078125 C9.765625,13.4375 9.953125,13.53125 10.171875,13.53125 C10.421875,13.53125 10.65625,13.390625 11.015625,13.0625 C12.453125,11.609375 15.53125,8.375 16.734375,7.21875 C17.953125,6.03125 18.90625,5.234375 19.4375,5.234375 Z" transform="translate(0, 20.5) scale(1, -1)"/>
</svg>