<svg height="22.796875" viewBox="0 0 24 22.796875" width="24" xmlns="http://www.w3.org/2000/svg">
<path d="M12,20.5 C5.765625,20.5 0.59375,15.4375 0.59375,9.09375 C0.59375,2.8125 5.71875,-2.296875 12,-2.296875 C18.28125,-2.296875 23.40625,2.8125 23.40625,9.09375 C23.40625,15.390625 18.28125,20.5 12,20.5 Z M12,-1.578125 C6.140625,-1.578125 1.3125,3.140625 1.3125,9.09375 C1.3125,15 6.09375,19.78125 12,19.78125 C17.90625,19.78125 22.6875,15 22.6875,9.09375 C22.6875,3.1875 17.90625,-1.578125 12,-1.578125 Z M7.0625,1.828125 L7.34375,1.375 C12.90625,3.5 16.296875,7.0625 18.28125,11.78125 C18.546875,12.390625 19.125,12.71875 19.125,13.109375 C19.125,13.625 17.828125,14.609375 17.28125,14.609375 C16.984375,14.609375 16.734375,14.296875 16.25,14.203125 C15.34375,14.015625 9.28125,13.375 8.25,13.375 C7.578125,13.375 7.171875,13.96875 6.859375,14.421875 L6.5,14.28125 C6.546875,13.78125 6.59375,13.46875 6.703125,13.203125 C6.890625,12.75 7.78125,11.859375 8.328125,11.859375 C8.71875,11.859375 9.09375,12.234375 9.625,12.359375 C10.6875,12.59375 16.078125,13.34375 16.890625,13.34375 C17.09375,13.34375 17.234375,13.296875 17.140625,13.03125 C15.953125,8.59375 12.484375,4.5625 7.0625,1.828125 Z" transform="translate(0, 20.5) scale(1, -1)"/>
</svg>