<svg height="22.796875" viewBox="0 0 24 22.796875" width="24" xmlns="http://www.w3.org/2000/svg">
<path d="M12,20.5 C5.765625,20.5 0.59375,15.4375 0.59375,9.09375 C0.59375,2.8125 5.71875,-2.296875 12,-2.296875 C18.28125,-2.296875 23.40625,2.8125 23.40625,9.09375 C23.40625,15.390625 18.28125,20.5 12,20.5 Z M12,-1.578125 C6.140625,-1.578125 1.3125,3.140625 1.3125,9.09375 C1.3125,15 6.09375,19.78125 12,19.78125 C17.90625,19.78125 22.6875,15 22.6875,9.09375 C22.6875,3.1875 17.90625,-1.578125 12,-1.578125 Z M18.578125,5.046875 C18.90625,5.046875 19.15625,5.296875 19.15625,5.640625 C19.15625,7.15625 16.984375,8.421875 14.46875,9.078125 L14.25,8.71875 C15.625,8.015625 16.84375,6.9375 17.78125,5.609375 C18.046875,5.1875 18.21875,5.046875 18.578125,5.046875 Z M13.25,14.59375 C13.65625,14.59375 13.875,14.921875 13.875,15.265625 C13.875,16.53125 11.859375,17.375 9.984375,17.765625 L9.75,17.421875 C10.890625,16.734375 11.734375,16.125 12.3125,15.390625 C12.640625,14.953125 12.859375,14.59375 13.25,14.59375 Z M12.359375,1.3125 C12.890625,1.3125 13.03125,1.75 13.03125,2.1875 C13.03125,2.59375 12.953125,3.3125 12.953125,3.90625 C12.953125,7.03125 13.0625,7.78125 13.0625,8.234375 C13.0625,8.5 12.890625,8.734375 12.59375,8.953125 C13.75,9.9375 14.734375,11.015625 15.53125,12.078125 C15.75,12.390625 16.484375,12.453125 16.484375,12.84375 C16.484375,13.203125 15.359375,14.015625 14.875,14.015625 C14.609375,14.015625 14.546875,13.734375 13.96875,13.578125 C13.0625,13.34375 9.03125,12.59375 7.9375,12.59375 C7.34375,12.59375 7.03125,13.25 6.71875,13.65625 L6.390625,13.53125 C6.40625,13.125 6.453125,12.578125 6.578125,12.359375 C6.8125,11.859375 7.609375,11.15625 8.09375,11.15625 C8.546875,11.15625 8.609375,11.515625 9.21875,11.65625 C10.21875,11.921875 13.390625,12.703125 14.09375,12.765625 C14.328125,12.796875 14.375,12.75 14.234375,12.5 C12.671875,9.765625 7.828125,6.1875 4.015625,4.34375 L4.25,3.859375 C7.03125,4.921875 9.671875,6.5 11.875,8.328125 C11.953125,8.140625 11.96875,7.890625 11.96875,7.5625 C11.96875,6.625 11.859375,4.46875 11.828125,3.90625 C11.734375,3.21875 11.65625,3.046875 11.65625,2.6875 C11.65625,2.234375 11.859375,1.3125 12.359375,1.3125 Z" transform="translate(0, 20.5) scale(1, -1)"/>
</svg>