<svg height="22.796875" viewBox="0 0 24 22.796875" width="24" xmlns="http://www.w3.org/2000/svg">
<path d="M12,20.5 C5.765625,20.5 0.59375,15.4375 0.59375,9.09375 C0.59375,2.8125 5.71875,-2.296875 12,-2.296875 C18.28125,-2.296875 23.40625,2.8125 23.40625,9.09375 C23.40625,15.390625 18.28125,20.5 12,20.5 Z M12,-1.578125 C6.140625,-1.578125 1.3125,3.140625 1.3125,9.09375 C1.3125,15 6.09375,19.78125 12,19.78125 C17.90625,19.78125 22.6875,15 22.6875,9.09375 C22.6875,3.1875 17.90625,-1.578125 12,-1.578125 Z M7.015625,1.625 L7.3125,1.203125 C13.21875,3.671875 16.375,7.96875 18.140625,11.828125 C18.40625,12.4375 18.9375,12.484375 18.9375,12.90625 C18.9375,13.46875 17.90625,14.375 17.09375,14.5625 C16.6875,14.640625 16.171875,14.65625 15.84375,14.640625 L15.703125,14.234375 C16.75,13.875 17.109375,13.609375 17.109375,13.25 C17.109375,11.96875 13.78125,5.203125 7.015625,1.625 Z M7.875,8.90625 C8.296875,8.90625 8.5,9.234375 8.5,9.671875 C8.46875,10.3125 8.046875,11.15625 7.171875,12.03125 C6.75,12.5 6.09375,13.078125 5.46875,13.4375 L5.140625,13.15625 C5.609375,12.59375 6.078125,11.90625 6.453125,11.140625 C7.15625,9.8125 7.203125,8.90625 7.875,8.90625 Z M12.125,10.3125 C12.484375,10.3125 12.765625,10.5625 12.765625,11.046875 C12.765625,11.8125 12.34375,12.59375 11.65625,13.25 C11.140625,13.796875 10.578125,14.28125 9.859375,14.6875 L9.53125,14.421875 C10.0625,13.796875 10.484375,13.15625 10.828125,12.484375 C11.453125,11.28125 11.46875,10.3125 12.125,10.3125 Z" transform="translate(0, 20.5) scale(1, -1)"/>
</svg>