<svg height="22.796875" viewBox="0 0 24 22.796875" width="24" xmlns="http://www.w3.org/2000/svg">
<path d="M12,20.5 C5.765625,20.5 0.59375,15.4375 0.59375,9.09375 C0.59375,2.8125 5.71875,-2.296875 12,-2.296875 C18.28125,-2.296875 23.40625,2.8125 23.40625,9.09375 C23.40625,15.390625 18.28125,20.5 12,20.5 Z M12,-1.578125 C6.140625,-1.578125 1.3125,3.140625 1.3125,9.09375 C1.3125,15 6.09375,19.78125 12,19.78125 C17.90625,19.78125 22.6875,15 22.6875,9.09375 C22.6875,3.1875 17.90625,-1.578125 12,-1.578125 Z M5.96875,3.640625 C6.4375,3.640625 6.75,3.90625 7.421875,4.078125 C9.390625,4.609375 13.890625,4.984375 15.953125,4.890625 C17.859375,4.828125 19.109375,4.390625 19.5625,4.390625 C19.921875,4.390625 20.109375,4.5625 20.109375,4.890625 C20.109375,5.515625 18.625,6.171875 17.875,6.171875 C17.640625,6.171875 17.40625,6 16.578125,5.953125 C15.390625,5.90625 13.96875,5.8125 12.546875,5.6875 L12.8125,9.578125 C14.78125,10.6875 16.515625,12 17.28125,12.53125 C17.609375,12.796875 18.34375,12.84375 18.34375,13.265625 C18.34375,13.78125 16.9375,14.96875 16.46875,14.96875 C16.15625,14.96875 16.015625,14.65625 15.671875,14.609375 C14.6875,14.40625 8.6875,13.53125 7.6875,13.53125 C7.0625,13.53125 6.640625,14.203125 6.34375,14.640625 L5.921875,14.453125 C5.96875,13.96875 6.09375,13.578125 6.21875,13.34375 C6.453125,12.859375 7.21875,12.09375 7.796875,12.09375 C8.15625,12.09375 8.5,12.4375 8.96875,12.546875 C10.34375,12.90625 15.125,13.75 16.03125,13.78125 C16.3125,13.78125 16.421875,13.6875 16.25,13.421875 C15.84375,12.75 14.40625,11.5 12.953125,10.421875 L12.953125,10.53125 C12.890625,10.875 11.765625,11.25 11.296875,11.25 C10.984375,11.25 10.625,11.1875 10.34375,11.09375 L10.34375,10.6875 C11.09375,10.609375 11.546875,10.484375 11.546875,9.984375 C11.640625,9.09375 11.5625,7.015625 11.5,5.59375 C8.828125,5.359375 6.40625,5.0625 5.90625,5.0625 C5.25,5.0625 4.84375,5.5625 4.4375,6.078125 L4.078125,5.921875 C4.125,5.421875 4.171875,5.15625 4.3125,4.890625 C4.53125,4.515625 5.40625,3.640625 5.96875,3.640625 Z" transform="translate(0, 20.5) scale(1, -1)"/>
</svg>