<svg height="22.796875" viewBox="0 0 24 22.796875" width="24" xmlns="http://www.w3.org/2000/svg">
<path d="M12,20.5 C5.765625,20.5 0.59375,15.4375 0.59375,9.09375 C0.59375,2.8125 5.71875,-2.296875 12,-2.296875 C18.28125,-2.296875 23.40625,2.8125 23.40625,9.09375 C23.40625,15.390625 18.28125,20.5 12,20.5 Z M12,-1.578125 C6.140625,-1.578125 1.3125,3.140625 1.3125,9.09375 C1.3125,15 6.09375,19.78125 12,19.78125 C17.90625,19.78125 22.6875,15 22.6875,9.09375 C22.6875,3.1875 17.90625,-1.578125 12,-1.578125 Z M18.1875,3.390625 C18.625,3.390625 18.90625,3.71875 18.90625,4.25 C18.90625,6.265625 16.46875,8.90625 14.328125,10.21875 L13.984375,9.890625 C15.03125,8.921875 15.9375,7.796875 16.578125,6.59375 C14.46875,6.234375 10.75,5.78125 8.40625,5.546875 C9.71875,7.75 11.765625,11.765625 12.625,13.5625 C12.8125,13.96875 13.265625,14.09375 13.265625,14.40625 C13.265625,14.875 12.4375,15.640625 11.6875,15.890625 C11.40625,15.984375 10.96875,16.03125 10.609375,16.078125 L10.46875,15.75 C11.09375,15.40625 11.46875,15.078125 11.46875,14.65625 C11.46875,13.75 8.734375,7.875 7.34375,5.421875 L6.390625,5.375 C6.078125,5.375 5.765625,5.515625 5.40625,5.828125 L5.140625,5.71875 C5.109375,5.453125 5.140625,5.234375 5.1875,4.984375 C5.375,4.4375 6.125,3.625 6.625,3.625 C6.9375,3.625 7.296875,4.109375 7.6875,4.171875 C9.40625,4.53125 14.140625,5.28125 16.921875,5.875 C17.609375,4.203125 17.5625,3.390625 18.1875,3.390625 Z" transform="translate(0, 20.5) scale(1, -1)"/>
</svg>