<svg height="22.796875" viewBox="0 0 24 22.796875" width="24" xmlns="http://www.w3.org/2000/svg">
<path d="M12,20.5 C5.765625,20.5 0.59375,15.4375 0.59375,9.09375 C0.59375,2.8125 5.71875,-2.296875 12,-2.296875 C18.28125,-2.296875 23.40625,2.8125 23.40625,9.09375 C23.40625,15.390625 18.28125,20.5 12,20.5 Z M12,-1.578125 C6.140625,-1.578125 1.3125,3.140625 1.3125,9.09375 C1.3125,15 6.09375,19.78125 12,19.78125 C17.90625,19.78125 22.6875,15 22.6875,9.09375 C22.6875,3.1875 17.90625,-1.578125 12,-1.578125 Z M16.484375,5.09375 C16.921875,5.09375 17.109375,5.421875 17.109375,5.828125 C17.09375,6.8125 15.359375,8.515625 13.9375,9.578125 C15.09375,11.1875 16.203125,13.078125 16.53125,13.703125 C16.875,14.296875 17.296875,14.328125 17.296875,14.6875 C17.296875,15.1875 16.65625,15.890625 16.015625,16.21875 C15.578125,16.46875 15.078125,16.484375 14.515625,16.53125 L14.40625,16.171875 C15.078125,15.796875 15.5,15.53125 15.5,15.03125 C15.5,14.375 14.25,12.046875 12.984375,10.21875 C11.65625,11.0625 10.0625,11.96875 8.109375,12.71875 L7.875,12.265625 C9.671875,11.234375 11.15625,10.171875 12.265625,9.28125 C10.25,6.765625 7.515625,4.390625 4.421875,2.65625 L4.65625,2.28125 C8.140625,3.640625 11.140625,6.078125 13.15625,8.546875 C15.59375,6.34375 15.75,5.09375 16.484375,5.09375 Z" transform="translate(0, 20.5) scale(1, -1)"/>
</svg>