<svg height="22.796875" viewBox="0 0 24 22.796875" width="24" xmlns="http://www.w3.org/2000/svg">
<path d="M12,20.5 C5.765625,20.5 0.59375,15.4375 0.59375,9.09375 C0.59375,2.8125 5.71875,-2.296875 12,-2.296875 C18.28125,-2.296875 23.40625,2.8125 23.40625,9.09375 C23.40625,15.390625 18.28125,20.5 12,20.5 Z M12,-1.578125 C6.140625,-1.578125 1.3125,3.140625 1.3125,9.09375 C1.3125,15 6.09375,19.78125 12,19.78125 C17.90625,19.78125 22.6875,15 22.6875,9.09375 C22.6875,3.1875 17.90625,-1.578125 12,-1.578125 Z M7.5625,10.984375 C7.78125,10.984375 8.140625,11.046875 8.5,11.109375 C8.734375,10.921875 8.8125,10.625 8.8125,9.859375 L8.828125,7.21875 C7.34375,7.03125 6.078125,6.890625 5.609375,6.890625 C4.9375,6.890625 4.5625,7.4375 4.21875,7.921875 L3.859375,7.78125 C3.90625,7.34375 3.984375,7.03125 4.125,6.75 C4.3125,6.3125 5.140625,5.515625 5.71875,5.515625 C6.125,5.515625 6.578125,5.8125 7.15625,5.953125 C8.09375,6.171875 10.875,6.703125 13.125,6.859375 L13.078125,4.296875 C13.03125,3.1875 12.890625,2.71875 12.890625,2.359375 C12.890625,1.703125 13.203125,1.015625 13.734375,1.015625 C14.09375,1.015625 14.25,1.265625 14.25,1.796875 C14.25,2.25 14.203125,3.28125 14.15625,4.25 L14.109375,6.90625 C17.921875,7.109375 18.984375,6.703125 19.734375,6.71875 C20.015625,6.71875 20.234375,6.8125 20.234375,7.15625 C20.234375,7.6875 18.890625,8.203125 18.359375,8.203125 C17.859375,8.203125 17.140625,8.09375 14.109375,7.796875 L14.15625,11.859375 C15.578125,11.953125 17.546875,12.078125 18.265625,12.078125 C18.625,12.09375 18.890625,12.1875 18.890625,12.5 C18.890625,13.03125 17.90625,13.375 17.46875,13.375 C17.203125,13.375 16.921875,13.171875 15.84375,13.015625 L14.1875,12.796875 C14.234375,13.421875 14.25,13.96875 14.375,14.5625 C14.5,15.140625 14.734375,15.234375 14.734375,15.59375 C14.734375,16.03125 13.6875,16.609375 12.9375,16.625 C12.546875,16.6875 12.140625,16.5625 11.6875,16.421875 L11.6875,16.015625 C12.703125,15.859375 13.125,15.859375 13.203125,15.265625 L13.203125,12.671875 C11.203125,12.453125 8.734375,12.1875 7.984375,12.1875 C7.3125,12.1875 6.859375,12.640625 6.40625,13.125 L6.125,12.953125 C6.140625,12.625 6.234375,12.34375 6.34375,12.140625 C6.546875,11.65625 7.15625,10.984375 7.5625,10.984375 Z M13.15625,7.703125 L9.859375,7.34375 L9.90625,9.765625 C9.953125,10.25 10.171875,10.421875 10.171875,10.65625 C10.171875,10.875 9.859375,11.109375 9.546875,11.296875 C10.609375,11.453125 12.125,11.65625 13.203125,11.765625 Z" transform="translate(0, 20.5) scale(1, -1)"/>
</svg>