<svg height="22.796875" viewBox="0 0 24 22.796875" width="24" xmlns="http://www.w3.org/2000/svg">
<path d="M12,20.5 C5.765625,20.5 0.59375,15.4375 0.59375,9.09375 C0.59375,2.8125 5.71875,-2.296875 12,-2.296875 C18.28125,-2.296875 23.40625,2.8125 23.40625,9.09375 C23.40625,15.390625 18.28125,20.5 12,20.5 Z M12,-1.578125 C6.140625,-1.578125 1.3125,3.140625 1.3125,9.09375 C1.3125,15 6.09375,19.78125 12,19.78125 C17.90625,19.78125 22.6875,15 22.6875,9.09375 C22.6875,3.1875 17.90625,-1.578125 12,-1.578125 Z M8.140625,3.078125 C8.515625,3.078125 8.6875,3.3125 8.6875,3.75 L8.65625,4.515625 C10.9375,4.65625 13.484375,4.796875 14.96875,4.796875 C15.84375,4.796875 16.84375,4.703125 17.25,4.703125 C17.65625,4.703125 17.8125,4.890625 17.8125,5.234375 C17.8125,5.546875 17.296875,5.828125 16.625,5.875 C17.015625,7.96875 17.421875,10.53125 17.609375,11.375 C17.71875,11.875 18.28125,12 18.28125,12.4375 C18.28125,12.859375 17.015625,13.921875 16.53125,13.921875 C16.171875,13.921875 16.125,13.515625 15.484375,13.4375 C14.71875,13.34375 10.015625,12.9375 8.140625,12.859375 C7.53125,13.421875 6.9375,13.625 6.140625,13.84375 L5.875,13.515625 C6.40625,13.0625 6.71875,12.59375 6.890625,11.953125 C7.171875,10.84375 7.390625,8.140625 7.421875,6.71875 C7.4375,5.90625 7.375,4.734375 7.375,4.34375 C7.375,3.578125 7.78125,3.078125 8.140625,3.078125 Z M8.328125,12.171875 C8.609375,12.03125 8.90625,11.90625 9.09375,11.90625 C9.453125,11.90625 9.984375,12.09375 10.578125,12.171875 C11.609375,12.265625 14.828125,12.53125 16.03125,12.53125 C16.203125,12.53125 16.265625,12.453125 16.265625,12.3125 C16.265625,11.25 15.84375,8.015625 15.484375,5.875 C13.734375,5.8125 10.6875,5.59375 8.640625,5.453125 Z" transform="translate(0, 20.5) scale(1, -1)"/>
</svg>