<svg height="22.796875" viewBox="0 0 24 22.796875" width="24" xmlns="http://www.w3.org/2000/svg">
<path d="M12,20.5 C5.765625,20.5 0.59375,15.4375 0.59375,9.09375 C0.59375,2.8125 5.71875,-2.296875 12,-2.296875 C18.28125,-2.296875 23.40625,2.8125 23.40625,9.09375 C23.40625,15.390625 18.28125,20.5 12,20.5 Z M12,-1.578125 C6.140625,-1.578125 1.3125,3.140625 1.3125,9.09375 C1.3125,15 6.09375,19.78125 12,19.78125 C17.90625,19.78125 22.6875,15 22.6875,9.09375 C22.6875,3.1875 17.90625,-1.578125 12,-1.578125 Z M8.546875,7.96875 C8.875,7.96875 9.125,8.203125 9.671875,8.28125 C11.328125,8.46875 13.78125,8.78125 15.90625,8.90625 L15.484375,5.0625 C13.390625,4.96875 9.140625,4.484375 7.78125,4.484375 C7.109375,4.484375 6.71875,5.109375 6.34375,5.546875 L6,5.359375 C6.03125,5.046875 6.140625,4.609375 6.234375,4.390625 C6.40625,3.984375 7.265625,3.125 7.828125,3.125 C8.140625,3.125 8.59375,3.359375 8.953125,3.4375 C10.6875,3.703125 12.984375,3.984375 14.609375,3.984375 C15.59375,3.984375 16.578125,3.796875 16.984375,3.796875 C17.421875,3.796875 17.59375,3.984375 17.59375,4.296875 C17.59375,4.625 17.109375,4.9375 16.5625,5.046875 C16.84375,7.203125 17.328125,10.578125 17.59375,12.171875 C17.65625,12.703125 18.21875,12.859375 18.21875,13.25 C18.21875,13.6875 16.9375,14.59375 16.4375,14.59375 C16.109375,14.59375 16.03125,14.203125 15.40625,14.140625 C14.234375,13.96875 9.125,13.484375 8.09375,13.484375 C7.46875,13.484375 7.125,14.0625 6.796875,14.546875 L6.390625,14.375 C6.40625,14.140625 6.453125,13.703125 6.546875,13.46875 C6.703125,13.015625 7.5625,12.09375 8.09375,12.09375 C8.421875,12.09375 8.828125,12.40625 9.234375,12.484375 C11.0625,12.75 14.8125,13.21875 16.15625,13.21875 C16.296875,13.21875 16.34375,13.15625 16.34375,13.03125 L16.015625,9.890625 C13.578125,9.75 9.234375,9.265625 8.59375,9.265625 C7.96875,9.265625 7.5625,9.8125 7.171875,10.21875 L6.796875,10.03125 C6.84375,9.765625 6.9375,9.28125 7.0625,9.09375 C7.265625,8.65625 8.0625,7.96875 8.546875,7.96875 Z" transform="translate(0, 20.5) scale(1, -1)"/>
</svg>