<svg height="22.796875" viewBox="0 0 24 22.796875" width="24" xmlns="http://www.w3.org/2000/svg">
<path d="M12,20.5 C5.765625,20.5 0.59375,15.4375 0.59375,9.09375 C0.59375,2.8125 5.71875,-2.296875 12,-2.296875 C18.28125,-2.296875 23.40625,2.8125 23.40625,9.09375 C23.40625,15.390625 18.28125,20.5 12,20.5 Z M12,-1.578125 C6.140625,-1.578125 1.3125,3.140625 1.3125,9.09375 C1.3125,15 6.09375,19.78125 12,19.78125 C17.90625,19.78125 22.6875,15 22.6875,9.09375 C22.6875,3.1875 17.90625,-1.578125 12,-1.578125 Z M7.921875,7.25 C8.46875,7.25 8.515625,7.6875 8.46875,8.25 C8.453125,9.078125 8.1875,11.8125 8.09375,12.890625 C8.375,12.71875 8.65625,12.59375 8.921875,12.59375 C9.390625,12.59375 10.515625,12.859375 11.921875,13.015625 C13.34375,13.15625 15.796875,13.390625 16.5625,13.390625 C16.734375,13.390625 16.796875,13.296875 16.75,13.15625 C15.859375,8.5 12.5,4.265625 8.046875,1.625 L8.359375,1.203125 C13.0625,3.390625 16.53125,7.265625 18.03125,12.21875 C18.125,12.578125 18.8125,12.84375 18.8125,13.171875 C18.8125,13.578125 17.65625,14.65625 17.109375,14.65625 C16.828125,14.65625 16.46875,14.296875 16.109375,14.25 C14.25,14.0625 9.71875,13.65625 7.984375,13.578125 C7.96875,13.6875 7.921875,13.78125 7.84375,13.84375 C7.265625,14.421875 6.578125,14.8125 5.734375,15.125 L5.46875,14.8125 C6.265625,14.109375 6.59375,13.5625 6.765625,12.953125 C6.953125,12.265625 7.109375,10.984375 7.15625,10.265625 C7.171875,9.59375 7.109375,9.234375 7.109375,8.734375 C7.109375,8.28125 7.34375,7.25 7.921875,7.25 Z" transform="translate(0, 20.5) scale(1, -1)"/>
</svg>