<svg height="21.484375" viewBox="0 0 24 21.484375" width="24" xmlns="http://www.w3.org/2000/svg">
<path d="M8.25,5.96875 C8.25,5.109375 8.96875,4.421875 9.8125,4.421875 C10.65625,4.421875 11.375,5.109375 11.375,5.96875 C11.375,6.8125 10.65625,7.515625 9.8125,7.515625 C8.96875,7.515625 8.25,6.8125 8.25,5.96875 Z M8.875,5.96875 C8.875,6.484375 9.28125,6.90625 9.8125,6.90625 C10.34375,6.90625 10.75,6.484375 10.75,5.96875 C10.75,5.453125 10.34375,5.015625 9.8125,5.015625 C9.28125,5.015625 8.875,5.453125 8.875,5.96875 Z M1.015625,3 L0.71875,2.8125 C0.75,2.59375 0.796875,2.109375 0.953125,1.890625 C1.265625,1.515625 1.84375,1.0625 2.234375,1.0625 C2.640625,1.0625 2.8125,1.46875 3.046875,1.78125 C3.390625,2.296875 4.421875,3.890625 4.75,4.34375 C4.921875,4.578125 5.09375,4.796875 5.25,4.796875 C5.421875,4.796875 5.546875,4.703125 5.765625,4.484375 C6.484375,3.75 7.609375,2.5 8.25,1.84375 C9.3125,0.84375 11.0625,-0.765625 11.78125,-0.75 C12.140625,-0.75 12.359375,-0.546875 12.359375,-0.28125 C12.359375,0.1875 12.140625,0.5 11.78125,0.71875 C10.921875,1.203125 9.90625,1.875 8.8125,2.828125 C7.921875,3.578125 6.84375,4.78125 6.140625,5.40625 C5.765625,5.734375 5.5,5.859375 5.1875,5.859375 C4.84375,5.859375 4.53125,5.59375 4.3125,5.296875 C3.890625,4.75 3,3.59375 2.46875,2.953125 C2.28125,2.71875 2.046875,2.46875 1.84375,2.46875 C1.65625,2.46875 1.3125,2.6875 1.015625,3 Z M13.984375,19.25 L13.78125,18.8125 C14.921875,18.125 15.59375,17.5625 16.109375,16.984375 C16.46875,16.65625 16.796875,16.21875 17.09375,16.21875 C17.515625,16.21875 17.6875,16.5625 17.6875,16.84375 C17.6875,17.25 17.234375,17.765625 16.65625,18.171875 C16.015625,18.625 15.078125,18.984375 13.984375,19.25 Z M23.234375,17.59375 L22.828125,17.875 C22.0625,16.9375 20.875,15.71875 19.53125,14.640625 C18.40625,13.734375 15.984375,12.09375 15.234375,12.09375 C14.828125,12.09375 14.359375,12.578125 13.984375,12.90625 L13.6875,12.703125 C13.703125,12.5 13.796875,11.875 13.890625,11.734375 C14.203125,11.28125 15.046875,10.625 15.625,10.625 C16.03125,10.625 16.15625,11.046875 16.375,11.15625 C17.359375,11.734375 19.109375,12.890625 20.1875,13.875 C21.4375,15.03125 22.578125,16.3125 23.234375,17.59375 Z M2.515625,9.984375 L2.78125,9.578125 C4.703125,10.421875 5.734375,11.71875 6.265625,12.625 C6.703125,13.34375 7.03125,14.1875 7.21875,14.90625 L7.375,15.5 C9.390625,16.53125 10.34375,17.375 10.703125,17.59375 C11.0625,17.8125 11.5625,17.8125 11.5625,18.171875 C11.5625,18.59375 10.484375,19.46875 10.125,19.46875 C9.90625,19.46875 9.765625,19.203125 9.453125,19.15625 C8.78125,19.0625 3.625,18.578125 2.6875,18.578125 C2.421875,18.578125 2.0625,19.015625 1.828125,19.375 L1.4375,19.21875 C1.421875,18.984375 1.4375,18.546875 1.515625,18.359375 C1.703125,17.78125 2.46875,17.234375 2.859375,17.234375 C3.140625,17.234375 3.265625,17.453125 3.671875,17.5625 C4.15625,17.71875 9.078125,18.28125 9.53125,18.28125 C9.625,18.28125 9.765625,18.34375 9.625,18.125 C9.40625,17.8125 8.40625,16.9375 7.3125,16.21875 C7.109375,16.46875 6.53125,16.65625 6,16.6875 C5.71875,16.6875 5.421875,16.625 5.046875,16.5625 L5.015625,16.125 C5.25,16.078125 5.734375,15.984375 5.96875,15.859375 C6.125,15.765625 6.140625,15.703125 6.140625,15.53125 C6.140625,14.828125 5.6875,13.734375 5.28125,12.9375 C4.890625,12.21875 4.015625,11.015625 2.515625,9.984375 Z M14.15625,-1.578125 L14.421875,-2.015625 C16.34375,-1.171875 17.359375,0.140625 17.90625,1.0625 C18.34375,1.78125 18.671875,2.59375 18.859375,3.3125 L19.015625,3.90625 C21,4.96875 21.984375,5.78125 22.34375,6 C22.6875,6.21875 23.203125,6.234375 23.203125,6.59375 C23.203125,7.015625 22.125,7.875 21.765625,7.875 C21.53125,7.875 21.40625,7.609375 21.078125,7.578125 C20.421875,7.484375 15.234375,7.015625 14.328125,7.015625 C14.0625,7.015625 13.703125,7.421875 13.46875,7.78125 L13.078125,7.625 C13.0625,7.390625 13.078125,6.984375 13.15625,6.765625 C13.3125,6.1875 14.109375,5.640625 14.46875,5.640625 C14.78125,5.640625 14.875,5.875 15.3125,6 C15.796875,6.125 20.71875,6.71875 21.140625,6.71875 C21.265625,6.71875 21.40625,6.75 21.265625,6.53125 C21.046875,6.21875 20.046875,5.359375 18.953125,4.65625 C18.71875,4.875 18.171875,5.0625 17.640625,5.09375 C17.359375,5.109375 17.0625,5.0625 16.6875,4.984375 L16.625,4.5625 C16.890625,4.484375 17.375,4.390625 17.609375,4.265625 C17.765625,4.203125 17.78125,4.109375 17.78125,3.953125 C17.78125,3.265625 17.328125,2.15625 16.921875,1.375 C16.53125,0.625 15.640625,-0.546875 14.15625,-1.578125 Z" transform="translate(0.0234375, 19.46875) scale(1, -1)"/>
</svg>