<svg height="21.4375" viewBox="0 0 24 21.4375" width="24" xmlns="http://www.w3.org/2000/svg">
<path d="M10.21875,17.8125 C10.484375,17.46875 10.734375,17.140625 10.984375,17.140625 C11.203125,17.140625 11.375,17.328125 11.375,17.59375 C11.375,17.859375 11.15625,18.234375 10.78125,18.546875 C10.46875,18.796875 9.9375,19.03125 9.3125,19.21875 L9.09375,18.9375 C9.640625,18.484375 9.953125,18.140625 10.21875,17.8125 Z M11.296875,18.890625 C11.609375,18.578125 11.828125,18.234375 12.09375,18.265625 C12.3125,18.265625 12.453125,18.453125 12.453125,18.71875 C12.453125,19.015625 12.21875,19.375 11.78125,19.65625 C11.453125,19.875 10.96875,20.0625 10.3125,20.234375 L10.109375,19.921875 C10.703125,19.484375 11.015625,19.21875 11.296875,18.890625 Z M13.96875,18.765625 L13.75,18.359375 C14.921875,17.640625 15.578125,17.09375 16.109375,16.53125 C16.4375,16.203125 16.78125,15.765625 17.0625,15.765625 C17.5,15.765625 17.65625,16.109375 17.65625,16.375 C17.65625,16.78125 17.234375,17.296875 16.625,17.71875 C15.984375,18.171875 15.046875,18.5 13.96875,18.765625 Z M23.234375,17.140625 L22.828125,17.421875 C22.03125,16.484375 20.859375,15.265625 19.515625,14.1875 C18.390625,13.265625 15.953125,11.640625 15.21875,11.640625 C14.828125,11.640625 14.359375,12.09375 13.96875,12.453125 L13.6875,12.234375 C13.6875,12.046875 13.78125,11.40625 13.875,11.25 C14.1875,10.828125 15.046875,10.171875 15.625,10.171875 C16.015625,10.171875 16.125,10.5625 16.34375,10.6875 C17.359375,11.28125 19.078125,12.4375 20.15625,13.421875 C21.4375,14.546875 22.5625,15.84375 23.234375,17.140625 Z M5.515625,11.921875 L5.28125,11.5625 C5.828125,11.234375 6.234375,10.96875 6.5,10.703125 C6.640625,10.515625 6.671875,10.4375 6.75,10.203125 C6.84375,9.90625 6.984375,9.765625 7.296875,9.765625 C7.75,9.765625 8.25,10.25 8.5625,10.84375 C9.34375,12.3125 9.59375,13.828125 9.953125,15.625 C10.015625,15.953125 10.390625,15.953125 10.390625,16.21875 C10.390625,16.578125 9.453125,17.203125 9.1875,17.203125 C8.953125,17.203125 8.8125,16.921875 8.515625,16.875 C8.140625,16.796875 7.203125,16.703125 6.171875,16.625 L6.5,18.046875 C6.625,18.484375 6.859375,18.59375 6.859375,18.84375 C6.859375,19.203125 5.875,19.578125 5.40625,19.578125 C5.109375,19.578125 4.515625,19.3125 4.296875,19.21875 L4.375,18.890625 C4.65625,18.859375 4.84375,18.84375 5.0625,18.796875 C5.1875,18.765625 5.375,18.765625 5.375,18.53125 C5.375,18.171875 5.234375,17.25 5.046875,16.53125 C3.84375,16.46875 2.71875,16.390625 2.375,16.421875 C2.09375,16.4375 1.828125,16.96875 1.6875,17.203125 L1.34375,17.09375 C1.3125,16.875 1.265625,16.4375 1.34375,16.203125 C1.421875,15.859375 1.984375,15.1875 2.328125,15.1875 C2.5625,15.1875 2.6875,15.359375 3.046875,15.453125 C3.390625,15.53125 4.171875,15.59375 4.796875,15.671875 C4.34375,14.203125 3.265625,11.71875 0.859375,9.90625 L1.171875,9.5 C4.515625,11.28125 5.5625,14.46875 5.953125,15.796875 C6.9375,15.90625 8.203125,16.03125 8.71875,16.03125 C8.8125,16.03125 8.828125,16.015625 8.828125,15.90625 C8.8125,15.21875 8.40625,12.453125 7.65625,11.46875 C7.5625,11.328125 7.390625,11.296875 7.203125,11.359375 C6.765625,11.453125 6.09375,11.71875 5.515625,11.921875 Z M3.765625,3.234375 L3.5,2.859375 C4.0625,2.515625 4.84375,1.84375 5.28125,1.375 C6.078125,0.53125 6.53125,-0.1875 6.84375,-0.75 C6.953125,-0.953125 7.125,-1.203125 7.4375,-1.203125 C7.78125,-1.203125 8.015625,-1.015625 8.015625,-0.625 C8.015625,-0.265625 7.75,0.1875 7.53125,0.53125 C7.3125,0.8125 7.0625,1.125 6.671875,1.4375 C8.359375,2.5 9.625,3.765625 10.375,4.46875 C10.734375,4.78125 11.203125,4.828125 11.203125,5.234375 C11.203125,5.546875 10.171875,6.40625 9.765625,6.40625 C9.546875,6.40625 9.359375,6.046875 9,6.03125 C8.046875,5.953125 3.078125,5.5625 2.1875,5.5625 C1.890625,5.5625 1.609375,5.953125 1.265625,6.34375 L0.953125,6.1875 C0.953125,5.875 1.015625,5.46875 1.078125,5.328125 C1.203125,4.984375 1.875,4.21875 2.328125,4.21875 C2.640625,4.21875 2.78125,4.484375 3.046875,4.5625 C3.9375,4.734375 7.890625,5.109375 9.171875,5.15625 C9.28125,5.1875 9.359375,5.15625 9.28125,5.0625 C8.8125,4.265625 7.515625,2.953125 6.140625,1.890625 C5.5625,2.328125 4.625,2.921875 3.765625,3.234375 Z" transform="translate(-0.046875, 20.234375) scale(1, -1)"/>
</svg>