<svg height="22.234375" viewBox="0 0 24 22.234375" width="24" xmlns="http://www.w3.org/2000/svg">
<path d="M4.21875,-1.6875 L4.46875,-2.140625 C5.859375,-1.609375 6.84375,-1.109375 7.5625,-0.359375 C8.8125,0.953125 8.96875,2.734375 9.046875,3.984375 C9.078125,4.78125 9.125,6.09375 9.171875,6.890625 C9.1875,7.265625 9.5,7.34375 9.5,7.65625 C9.5,7.96875 8.453125,8.515625 7.875,8.5 C7.578125,8.5 7.171875,8.328125 6.90625,8.203125 L6.9375,7.84375 C7.265625,7.796875 7.5625,7.734375 7.734375,7.65625 C7.921875,7.578125 7.96875,7.484375 7.984375,7.25 C8.046875,6.28125 8.015625,5.234375 7.9375,4.0625 C7.875,2.546875 7.65625,1.4375 6.859375,0.3125 C6.265625,-0.5 5.234375,-1.125 4.21875,-1.6875 Z M2.515625,7.734375 L2.5625,7.375 C2.859375,7.34375 3.171875,7.296875 3.28125,7.265625 C3.5,7.203125 3.578125,7.125 3.578125,6.84375 C3.59375,6.3125 3.578125,5.5 3.578125,4.921875 C3.53125,3.671875 3.4375,2.921875 3.4375,2.421875 C3.4375,1.796875 3.703125,1.4375 4.0625,1.4375 C4.375,1.4375 4.578125,1.65625 4.578125,2.140625 C4.578125,2.546875 4.578125,3.078125 4.578125,3.90625 C4.578125,4.421875 4.609375,5.90625 4.65625,6.3125 C4.734375,6.796875 4.9375,6.984375 4.9375,7.21875 C4.9375,7.578125 4.03125,8.046875 3.546875,8.046875 C3.34375,8.046875 2.78125,7.84375 2.515625,7.734375 Z M13.375,4.703125 L13.0625,4.5625 C13.0625,4.34375 13.0625,3.953125 13.109375,3.75 C13.265625,3.1875 14.046875,2.609375 14.40625,2.609375 C14.640625,2.609375 14.8125,2.765625 15.125,2.828125 C15.53125,2.921875 16.03125,3 16.734375,3.046875 C17.71875,3.140625 19.34375,3.21875 20.421875,3.21875 C21.328125,3.21875 21.953125,3.125 22.421875,3.125 C22.828125,3.125 22.921875,3.359375 22.921875,3.625 C22.921875,4.0625 22.125,4.484375 21.5,4.484375 C21.1875,4.484375 20.921875,4.296875 20.140625,4.25 C19.5625,4.171875 15.484375,3.90625 14.359375,3.90625 C13.9375,3.90625 13.703125,4.296875 13.375,4.703125 Z M5.921875,12.4375 L5.71875,12.046875 C6.234375,11.71875 6.671875,11.46875 6.90625,11.203125 C7.078125,11.015625 7.109375,10.921875 7.171875,10.703125 C7.265625,10.421875 7.390625,10.265625 7.703125,10.265625 C8.1875,10.265625 8.65625,10.75 9,11.359375 C9.75,12.796875 10.015625,14.328125 10.375,16.125 C10.4375,16.46875 10.828125,16.46875 10.828125,16.734375 C10.828125,17.09375 9.890625,17.71875 9.625,17.71875 C9.390625,17.71875 9.234375,17.421875 8.921875,17.375 C8.546875,17.296875 7.625,17.203125 6.59375,17.109375 L6.9375,18.546875 C7.0625,18.984375 7.296875,19.109375 7.296875,19.34375 C7.296875,19.6875 6.28125,20.09375 5.828125,20.09375 C5.546875,20.09375 4.9375,19.796875 4.703125,19.734375 L4.796875,19.375 C5.0625,19.34375 5.25,19.34375 5.5,19.296875 C5.609375,19.265625 5.78125,19.265625 5.78125,19.03125 C5.78125,18.671875 5.640625,17.765625 5.46875,17.046875 C4.265625,16.9375 3.140625,16.875 2.8125,16.890625 C2.5,16.921875 2.25,17.453125 2.09375,17.6875 L1.78125,17.59375 C1.734375,17.359375 1.6875,16.9375 1.75,16.703125 C1.84375,16.375 2.40625,15.703125 2.765625,15.703125 C3,15.703125 3.125,15.859375 3.484375,15.953125 C3.8125,16.03125 4.625,16.109375 5.25,16.171875 C4.796875,14.71875 3.71875,12.21875 1.265625,10.390625 L1.609375,10.015625 C4.9375,11.78125 5.96875,14.96875 6.390625,16.296875 C7.375,16.421875 8.640625,16.53125 9.140625,16.53125 C9.234375,16.53125 9.265625,16.515625 9.265625,16.421875 C9.234375,15.71875 8.8125,12.953125 8.09375,11.96875 C7.96875,11.8125 7.796875,11.78125 7.609375,11.859375 C7.203125,11.953125 6.5,12.21875 5.921875,12.4375 Z M13.265625,17.921875 L13.21875,17.5625 C13.703125,17.296875 14.0625,17.0625 14.140625,16.65625 C14.28125,15.796875 14.375,13.921875 14.421875,12.84375 C14.453125,12.265625 14.40625,11.59375 14.40625,11.234375 C14.40625,10.703125 14.609375,10.203125 15.078125,10.203125 C15.390625,10.203125 15.53125,10.46875 15.53125,10.65625 L15.5,11.109375 C16.84375,11.203125 19.3125,11.25 19.65625,11.25 C20.15625,11.25 21.234375,11.203125 21.59375,11.203125 C21.890625,11.203125 21.984375,11.40625 21.984375,11.71875 C21.984375,11.96875 21.71875,12.140625 21.328125,12.21875 C21.546875,13.65625 21.765625,15.796875 21.9375,16.375 C22.015625,16.6875 22.390625,16.796875 22.390625,17.09375 C22.390625,17.40625 21.390625,18.09375 20.96875,18.09375 C20.734375,18.09375 20.640625,17.859375 20.28125,17.8125 C19.796875,17.734375 16.65625,17.546875 15.21875,17.5 C14.96875,17.71875 14.421875,18.046875 14.15625,18.078125 C13.890625,18.09375 13.484375,18 13.265625,17.921875 Z M15.3125,16.78125 C15.53125,16.65625 15.75,16.578125 15.890625,16.578125 C16.109375,16.578125 16.390625,16.625 16.796875,16.6875 C18.140625,16.796875 20.140625,16.9375 20.640625,16.9375 C20.71875,16.9375 20.71875,16.890625 20.71875,16.875 C20.71875,16.3125 20.46875,13.65625 20.28125,12.21875 L15.484375,12 Z" transform="translate(-0.09375, 20.09375) scale(1, -1)"/>
</svg>