<svg height="22.59375" viewBox="0 0 24 22.59375" width="24" xmlns="http://www.w3.org/2000/svg">
<path d="M13.65625,19.171875 L13.4375,18.765625 C14.59375,18.046875 15.265625,17.5 15.796875,16.9375 C16.125,16.609375 16.46875,16.171875 16.75,16.171875 C17.1875,16.171875 17.359375,16.515625 17.359375,16.78125 C17.359375,17.203125 16.890625,17.71875 16.3125,18.125 C15.671875,18.578125 14.734375,18.90625 13.65625,19.171875 Z M22.921875,17.546875 L22.515625,17.828125 C21.71875,16.890625 20.546875,15.671875 19.203125,14.59375 C18.078125,13.6875 15.640625,12.046875 14.90625,12.046875 C14.515625,12.046875 14.046875,12.5 13.65625,12.859375 L13.34375,12.640625 C13.375,12.453125 13.46875,11.8125 13.5625,11.6875 C13.875,11.234375 14.734375,10.578125 15.3125,10.578125 C15.703125,10.578125 15.8125,10.96875 16.03125,11.09375 C17.046875,11.6875 18.765625,12.84375 19.84375,13.828125 C21.09375,14.953125 22.25,16.25 22.921875,17.546875 Z M2.140625,4.46875 L1.828125,4.3125 C1.828125,4.203125 1.84375,3.71875 1.890625,3.578125 C2.015625,3.21875 2.640625,2.515625 3,2.515625 C3.3125,2.515625 3.59375,2.71875 4.34375,2.828125 C4.828125,2.953125 5.921875,3.078125 6.765625,3.171875 C6.703125,2.046875 6.5,1.3125 5.953125,0.390625 C5.359375,-0.59375 4.609375,-1.21875 3.796875,-1.84375 L4.109375,-2.234375 C5.296875,-1.6875 6.3125,-0.84375 6.859375,0.03125 C7.484375,1.03125 7.734375,1.96875 7.828125,3.265625 C8.609375,3.34375 9.671875,3.40625 10.21875,3.40625 C10.6875,3.40625 11.28125,3.390625 11.734375,3.390625 C12.03125,3.390625 12.1875,3.578125 12.1875,3.84375 C12.1875,4.203125 11.453125,4.53125 10.75,4.53125 C10.484375,4.53125 10.171875,4.421875 9.40625,4.265625 L7.84375,4.078125 L7.84375,4.609375 C7.84375,5.109375 8.140625,5.203125 8.140625,5.453125 C8.140625,5.640625 7.75,5.875 7.34375,6.046875 C7.984375,6.21875 8.640625,6.40625 9.359375,6.703125 C9.765625,6.859375 9.9375,6.75 10.078125,6.9375 C10.21875,7.109375 9.890625,7.6875 9.578125,7.921875 C9.21875,8.203125 8.921875,8.28125 8.328125,8.375 L8.109375,8.15625 C8.546875,7.796875 8.6875,7.625 8.5,7.515625 C7.96875,7.171875 5.28125,6.1875 2.90625,5.78125 L2.96875,5.328125 C4.125,5.296875 5.5625,5.609375 6.40625,5.8125 C6.703125,5.5625 6.796875,5.296875 6.796875,4.734375 L6.796875,3.984375 C5.328125,3.84375 3.53125,3.703125 3.03125,3.703125 C2.71875,3.703125 2.421875,4.078125 2.140625,4.46875 Z M7.921875,20.359375 L7.78125,20.015625 C8.046875,19.875 8.453125,19.65625 8.453125,19.484375 C8.421875,19.3125 8.359375,19.171875 8.1875,18.9375 C7.9375,18.578125 7.203125,17.640625 6.40625,16.875 C5.453125,15.9375 3.71875,14.515625 1.5625,13.265625 L1.875,12.890625 C4.078125,13.65625 5.96875,15.125 6.890625,15.90625 C6.9375,15.8125 6.9375,15.703125 6.9375,15.53125 C6.9375,14.78125 6.90625,12.765625 6.84375,11.859375 C6.796875,11.421875 6.703125,11.109375 6.703125,10.875 C6.703125,10.5625 6.796875,10.25 6.890625,10.078125 C7.015625,9.9375 7.125,9.703125 7.46875,9.703125 C7.796875,9.703125 7.921875,10.015625 7.921875,10.3125 C7.921875,10.65625 7.921875,11.1875 7.890625,11.65625 C7.84375,12.671875 7.9375,15.046875 7.96875,15.4375 C7.984375,15.71875 8.09375,15.90625 8.09375,16.078125 C8.09375,16.203125 8.046875,16.3125 7.75,16.484375 L7.578125,16.578125 C8.234375,17.28125 9.078125,18.171875 9.40625,18.578125 C9.671875,18.859375 10.15625,18.796875 10.15625,19.125 C10.15625,19.515625 9.53125,20.046875 8.921875,20.28125 C8.609375,20.359375 8.109375,20.359375 7.921875,20.359375 Z" transform="translate(-0.2421875, 20.359375) scale(1, -1)"/>
</svg>