<svg height="21.359375" viewBox="0 0 24 21.359375" width="24" xmlns="http://www.w3.org/2000/svg">
<path d="M20.859375,5.71875 C21.09375,5.328125 21.234375,5.015625 21.453125,4.984375 C21.640625,4.984375 21.890625,5.15625 21.90625,5.421875 C21.90625,5.6875 21.796875,6.09375 21.453125,6.40625 C21.21875,6.703125 20.734375,7.015625 20.234375,7.203125 L19.9375,6.90625 C20.40625,6.4375 20.640625,6.078125 20.859375,5.71875 Z M22.0625,6.703125 C22.296875,6.359375 22.46875,6 22.703125,6 C22.921875,6 23.109375,6.1875 23.109375,6.4375 C23.109375,6.71875 22.921875,7.109375 22.609375,7.421875 C22.3125,7.6875 21.90625,7.9375 21.359375,8.109375 L21.09375,7.796875 C21.578125,7.375 21.84375,7.03125 22.0625,6.703125 Z M9.953125,4.265625 L9.671875,4.125 C9.671875,3.90625 9.703125,3.578125 9.71875,3.359375 C9.8125,2.8125 10.46875,2.328125 10.703125,2.328125 C10.875,2.328125 10.96875,2.421875 11.1875,2.5 C11.46875,2.59375 11.90625,2.609375 12.34375,2.65625 C12.859375,2.71875 13.296875,2.6875 14.015625,2.6875 C14.65625,2.6875 15,2.59375 15.265625,2.59375 C15.546875,2.59375 15.671875,2.8125 15.671875,3.09375 C15.671875,3.53125 14.875,3.90625 14.5,3.90625 C14.296875,3.90625 14.25,3.765625 13.703125,3.703125 C13.3125,3.640625 11.46875,3.59375 10.734375,3.59375 C10.46875,3.59375 10.21875,3.859375 9.953125,4.265625 Z M1.171875,13.375 L0.90625,13.21875 C0.90625,12.90625 0.90625,12.625 0.984375,12.4375 C1.171875,12.140625 1.78125,11.453125 2.203125,11.453125 C2.546875,11.453125 3.03125,11.65625 3.3125,11.734375 C3.953125,11.921875 5.140625,12.125 6.234375,12.1875 C6.984375,12.234375 7.96875,12.28125 8.546875,12.28125 C9.71875,12.28125 10.796875,12.078125 11.28125,12.078125 C11.546875,12.078125 11.71875,12.234375 11.71875,12.390625 C11.71875,12.625 11.6875,12.796875 11.5,12.9375 C11.28125,13.125 10.6875,13.46875 10.390625,13.46875 C10.15625,13.46875 9.890625,13.34375 9.28125,13.3125 L6.640625,13.109375 C6.671875,13.890625 6.703125,14.96875 6.765625,15.71875 C6.8125,15.984375 6.953125,16.296875 6.953125,16.515625 C6.953125,16.625 6.859375,16.734375 6.765625,16.796875 C6.625,16.921875 6.4375,17.015625 6.265625,17.09375 C7.21875,17.1875 8.953125,17.421875 9.640625,17.5625 C9.953125,17.609375 10.125,17.734375 10.125,18 C10.125,18.171875 9.984375,18.34375 9.859375,18.40625 C9.703125,18.5 9.234375,18.640625 9.046875,18.640625 C8.71875,18.640625 7.890625,18.234375 6.046875,17.96875 C5.40625,17.90625 4.484375,17.859375 3.90625,17.859375 C3.484375,17.859375 3.21875,18.03125 2.5,18.4375 L2.203125,18.125 C2.375,17.78125 2.65625,17.453125 2.828125,17.25 C3.125,16.9375 3.4375,16.84375 3.84375,16.84375 C4.171875,16.84375 4.734375,16.890625 5.359375,16.96875 C5.5625,16.75 5.65625,16.53125 5.65625,16.078125 L5.609375,13.03125 C4.46875,12.90625 2.828125,12.71875 2.1875,12.71875 C1.84375,12.71875 1.515625,13.0625 1.171875,13.375 Z M13.890625,18.84375 L13.609375,18.75 C13.5625,18.53125 13.515625,18.125 13.578125,17.90625 C13.703125,17.5 14.421875,16.796875 14.78125,16.796875 C15.140625,16.796875 15.234375,17.015625 15.640625,17.109375 C16.390625,17.25 18.078125,17.515625 19.078125,17.609375 C19.21875,17.640625 19.25,17.59375 19.21875,17.515625 C18.859375,16.828125 18.078125,15.59375 17.109375,14.453125 C15.90625,13.03125 14.25,11.859375 12.265625,10.828125 L12.5,10.375 C15.1875,11.25 16.84375,12.59375 18.046875,13.96875 C19.0625,13.3125 19.78125,12.671875 20.609375,11.6875 C21.234375,10.9375 21.546875,10.421875 21.9375,10.421875 C22.3125,10.421875 22.515625,10.6875 22.515625,10.96875 C22.515625,12.21875 20.453125,13.609375 18.453125,14.421875 C19.203125,15.3125 19.75,16.125 20.375,17.140625 C20.515625,17.375 21,17.453125 21,17.765625 C21,18.140625 19.984375,18.890625 19.625,18.890625 C19.375,18.890625 19.15625,18.546875 18.90625,18.5 C18.171875,18.359375 15.625,18.046875 14.71875,18.046875 C14.453125,18.046875 14.09375,18.546875 13.890625,18.84375 Z M16.171875,7.78125 L16.203125,7.375 C16.9375,7.265625 17.0625,7.25 17.109375,6.90625 C17.1875,6.265625 17.1875,4.828125 17.1875,3.765625 C17.1875,2.78125 17.15625,0.859375 17.09375,-0.078125 C17.046875,-0.703125 16.9375,-1.109375 16.9375,-1.46875 C16.9375,-2.046875 17.234375,-2.46875 17.65625,-2.46875 C18.09375,-2.46875 18.1875,-2.140625 18.1875,-1.75 L18.140625,3.578125 C18.859375,3.34375 19.46875,2.921875 19.96875,2.515625 C20.609375,1.921875 20.8125,1.4375 21.21875,1.4375 C21.5,1.4375 21.71875,1.6875 21.71875,1.984375 C21.71875,2.40625 21.359375,2.8125 21,3.078125 C20.359375,3.59375 19.375,4.03125 18.140625,4.21875 C18.140625,4.890625 18.1875,5.765625 18.265625,6.34375 C18.28125,6.765625 18.578125,6.71875 18.578125,7.078125 C18.578125,7.46875 17.59375,8.015625 17.15625,8.015625 C16.78125,8.015625 16.46875,7.890625 16.171875,7.78125 Z M1.65625,-1.875 L1.9375,-2.296875 C4.125,-1.390625 5.6875,0.1875 6.578125,1.390625 C7.578125,2.6875 8.15625,4.078125 8.640625,5.046875 C8.734375,5.28125 9.140625,5.375 9.140625,5.640625 C9.140625,6.03125 8.203125,6.703125 7.890625,6.703125 C7.734375,6.703125 7.625,6.40625 7.34375,6.34375 C6.984375,6.265625 5.5,6.171875 5.203125,6.171875 L5.046875,6.1875 L5.453125,6.984375 C5.640625,7.3125 5.921875,7.375 5.921875,7.625 C5.921875,7.921875 4.984375,8.515625 4.484375,8.515625 C4.265625,8.515625 3.796875,8.453125 3.625,8.40625 L3.625,8.046875 C4.03125,7.921875 4.390625,7.78125 4.390625,7.609375 C4.390625,7.171875 3.84375,6.046875 3.28125,5.15625 C2.765625,4.3125 1.828125,3.125 0.953125,2.28125 L1.296875,1.921875 C2.5,2.71875 3.53125,3.90625 4.078125,4.65625 C4.3125,4.984375 4.515625,5.28125 4.6875,5.5625 C4.875,5.375 5.09375,5.234375 5.203125,5.234375 C5.328125,5.234375 5.546875,5.28125 5.8125,5.328125 C6.40625,5.421875 6.9375,5.46875 7.296875,5.5 C7.421875,5.5 7.484375,5.453125 7.46875,5.328125 C7.296875,4.78125 6.59375,3.171875 5.640625,1.875 C4.5625,0.390625 3.453125,-0.71875 1.65625,-1.875 Z" transform="translate(-0.0078125, 18.890625) scale(1, -1)"/>
</svg>