<svg height="22.484375" viewBox="0 0 24 22.484375" width="24" xmlns="http://www.w3.org/2000/svg">
<path d="M4.203125,-1.703125 L4.4375,-2.15625 C5.828125,-1.625 6.8125,-1.125 7.53125,-0.390625 C8.78125,0.9375 8.953125,2.734375 9.03125,3.953125 C9.078125,4.75 9.125,6.078125 9.140625,6.859375 C9.171875,7.25 9.484375,7.34375 9.484375,7.625 C9.484375,7.9375 8.421875,8.5 7.84375,8.46875 C7.5625,8.46875 7.15625,8.296875 6.890625,8.203125 L6.90625,7.828125 C7.25,7.78125 7.53125,7.703125 7.703125,7.625 C7.890625,7.5625 7.9375,7.46875 7.96875,7.21875 C8.015625,6.265625 7.984375,5.234375 7.921875,4.0625 C7.84375,2.515625 7.65625,1.421875 6.84375,0.28125 C6.234375,-0.53125 5.203125,-1.15625 4.203125,-1.703125 Z M2.5,7.703125 L2.5625,7.34375 C2.828125,7.3125 3.140625,7.265625 3.265625,7.25 C3.484375,7.171875 3.546875,7.109375 3.546875,6.8125 C3.578125,6.28125 3.546875,5.46875 3.546875,4.890625 C3.53125,3.640625 3.40625,2.921875 3.40625,2.40625 C3.40625,1.78125 3.671875,1.4375 4.03125,1.4375 C4.34375,1.4375 4.5625,1.625 4.5625,2.109375 C4.578125,2.515625 4.5625,3.046875 4.5625,3.90625 C4.5625,4.390625 4.578125,5.875 4.65625,6.28125 C4.703125,6.765625 4.921875,6.953125 4.921875,7.203125 C4.921875,7.5625 4.015625,8.015625 3.53125,8.015625 C3.3125,8.015625 2.765625,7.828125 2.5,7.703125 Z M19.515625,20.328125 L19.390625,19.96875 C19.65625,19.84375 20.046875,19.625 20.046875,19.46875 C20.046875,19.296875 19.96875,19.15625 19.796875,18.90625 C19.53125,18.53125 18.796875,17.609375 18.03125,16.84375 C17.0625,15.90625 15.34375,14.5 13.171875,13.25 L13.484375,12.859375 C15.703125,13.625 17.59375,15.09375 18.5,15.90625 C18.53125,15.796875 18.546875,15.671875 18.546875,15.5 C18.546875,14.734375 18.53125,12.75 18.4375,11.8125 C18.40625,11.40625 18.28125,11.09375 18.28125,10.84375 C18.28125,10.53125 18.40625,10.203125 18.5,10.0625 C18.59375,9.90625 18.71875,9.671875 19.0625,9.671875 C19.421875,9.671875 19.53125,9.984375 19.53125,10.296875 C19.53125,10.625 19.515625,11.15625 19.484375,11.640625 C19.46875,12.625 19.5625,15.03125 19.578125,15.40625 C19.609375,15.703125 19.703125,15.890625 19.703125,16.0625 C19.703125,16.171875 19.625,16.296875 19.375,16.46875 L19.203125,16.5625 C19.875,17.234375 20.6875,18.140625 21.03125,18.546875 C21.28125,18.84375 21.75,18.765625 21.75,19.078125 C21.75,19.484375 21.125,20.015625 20.546875,20.234375 C20.234375,20.328125 19.703125,20.328125 19.515625,20.328125 Z M6.171875,12.53125 L5.953125,12.171875 C6.484375,11.828125 6.890625,11.5625 7.15625,11.296875 C7.296875,11.109375 7.3125,11.046875 7.390625,10.796875 C7.484375,10.53125 7.625,10.390625 7.9375,10.390625 C8.40625,10.390625 8.90625,10.84375 9.21875,11.46875 C9.984375,12.90625 10.25,14.421875 10.609375,16.21875 C10.65625,16.5625 11.046875,16.5625 11.046875,16.828125 C11.046875,17.1875 10.109375,17.8125 9.84375,17.8125 C9.59375,17.8125 9.453125,17.515625 9.171875,17.46875 C8.78125,17.421875 7.84375,17.328125 6.8125,17.234375 L7.15625,18.640625 C7.265625,19.078125 7.515625,19.203125 7.515625,19.4375 C7.515625,19.796875 6.53125,20.1875 6.046875,20.1875 C5.765625,20.1875 5.15625,19.921875 4.9375,19.828125 L5.015625,19.484375 C5.296875,19.46875 5.5,19.4375 5.71875,19.421875 C5.828125,19.375 6.03125,19.375 6.03125,19.15625 C6.03125,18.765625 5.875,17.859375 5.6875,17.15625 C4.484375,17.0625 3.359375,16.984375 3.03125,17.015625 C2.734375,17.046875 2.46875,17.5625 2.328125,17.8125 L2.015625,17.6875 C1.96875,17.46875 1.921875,17.046875 1.984375,16.796875 C2.09375,16.46875 2.640625,15.796875 2.96875,15.796875 C3.21875,15.796875 3.34375,15.953125 3.703125,16.0625 C4.03125,16.125 4.828125,16.203125 5.453125,16.265625 C4.984375,14.8125 3.90625,12.3125 1.515625,10.515625 L1.828125,10.109375 C5.15625,11.875 6.21875,15.078125 6.59375,16.390625 C7.578125,16.515625 8.859375,16.625 9.359375,16.625 C9.453125,16.625 9.484375,16.609375 9.484375,16.515625 C9.453125,15.8125 9.046875,13.0625 8.296875,12.078125 C8.203125,11.921875 8.046875,11.90625 7.84375,11.953125 C7.421875,12.046875 6.75,12.3125 6.171875,12.53125 Z" transform="translate(0.3671875, 20.328125) scale(1, -1)"/>
</svg>