<svg height="20.71875" viewBox="0 0 24 20.71875" width="24" xmlns="http://www.w3.org/2000/svg">
<path d="M5.328125,7.203125 L5.421875,6.8125 C6.03125,6.765625 6.4375,6.75 6.453125,6.40625 C6.546875,5.109375 6.40625,1.9375 6.40625,0.859375 C6.390625,0.390625 6.171875,0.28125 6.171875,0.078125 C6.171875,-0.171875 6.703125,-1.015625 7.0625,-1.015625 C7.3125,-1.015625 7.390625,-0.640625 7.6875,-0.484375 C8.828125,0.09375 9.453125,0.5 10.296875,1.15625 C11.234375,1.875 12.03125,2.859375 12.4375,3.5 L12.078125,3.84375 C11.515625,3.1875 10.65625,2.421875 9.84375,1.890625 C9.28125,1.515625 8.46875,0.984375 7.46875,0.671875 C7.4375,0.71875 7.421875,0.765625 7.421875,0.84375 C7.4375,1.84375 7.53125,5.375 7.578125,5.90625 C7.609375,6.3125 7.921875,6.28125 7.921875,6.59375 C7.921875,6.9375 7.015625,7.515625 6.34375,7.515625 C6.078125,7.515625 5.609375,7.3125 5.328125,7.203125 Z M2.875,5.828125 L2.875,5.421875 C3.171875,5.375 3.859375,5.15625 3.859375,4.890625 C3.859375,4.296875 3.578125,2.65625 2.859375,1.421875 C2.28125,0.453125 1.578125,-0.34375 0.8125,-0.953125 L1.109375,-1.296875 C2.109375,-0.859375 3.046875,0.03125 3.71875,1.03125 C4.421875,2.09375 4.625,3.125 4.921875,4.21875 C5.015625,4.53125 5.28125,4.5625 5.28125,4.84375 C5.28125,5.296875 4.3125,6 3.796875,6 C3.484375,6 3.078125,5.90625 2.875,5.828125 Z M13.296875,16.171875 L12.984375,16.03125 C12.984375,15.796875 12.984375,15.40625 13.03125,15.21875 C13.203125,14.65625 13.96875,14.0625 14.328125,14.09375 C14.5625,14.09375 14.734375,14.203125 15.046875,14.296875 C15.453125,14.40625 15.953125,14.46875 16.6875,14.515625 C17.640625,14.59375 19.265625,14.6875 20.359375,14.6875 C21.265625,14.6875 21.890625,14.59375 22.34375,14.59375 C22.75,14.59375 22.84375,14.828125 22.84375,15.078125 C22.84375,15.53125 22.0625,15.9375 21.4375,15.9375 C21.125,15.9375 20.859375,15.765625 20.0625,15.703125 C19.484375,15.640625 15.40625,15.390625 14.28125,15.390625 C13.875,15.390625 13.625,15.765625 13.296875,16.171875 Z M2.421875,9.953125 L2.6875,9.53125 C4.609375,10.375 5.640625,11.6875 6.1875,12.59375 C6.59375,13.3125 6.9375,14.140625 7.15625,14.859375 L7.296875,15.453125 C9.28125,16.515625 10.25,17.328125 10.609375,17.546875 C10.96875,17.765625 11.46875,17.78125 11.46875,18.140625 C11.46875,18.546875 10.421875,19.421875 10.03125,19.421875 C9.8125,19.421875 9.671875,19.15625 9.359375,19.125 C8.6875,19.03125 3.53125,18.546875 2.59375,18.546875 C2.328125,18.546875 1.96875,18.953125 1.734375,19.3125 L1.34375,19.171875 C1.3125,18.9375 1.34375,18.53125 1.421875,18.3125 C1.609375,17.734375 2.375,17.1875 2.765625,17.1875 C3.046875,17.1875 3.171875,17.421875 3.578125,17.546875 C4.0625,17.65625 8.96875,18.265625 9.4375,18.265625 C9.53125,18.265625 9.671875,18.28125 9.53125,18.078125 C9.3125,17.765625 8.296875,16.890625 7.21875,16.203125 C6.984375,16.421875 6.4375,16.609375 5.90625,16.625 C5.640625,16.65625 5.328125,16.609375 4.9375,16.53125 L4.921875,16.109375 C5.1875,16.03125 5.640625,15.9375 5.90625,15.8125 C6.046875,15.75 6.046875,15.640625 6.046875,15.5 C6.046875,14.8125 5.59375,13.703125 5.1875,12.90625 C4.796875,12.171875 3.90625,10.984375 2.421875,9.953125 Z" transform="translate(0.171875, 19.421875) scale(1, -1)"/>
</svg>