<svg height="22.171875" viewBox="0 0 24 22.171875" width="24" xmlns="http://www.w3.org/2000/svg">
<path d="M20.09375,18.765625 C20.09375,17.953125 20.78125,17.234375 21.640625,17.234375 C22.46875,17.234375 23.1875,17.953125 23.1875,18.765625 C23.1875,19.609375 22.46875,20.28125 21.640625,20.28125 C20.78125,20.28125 20.09375,19.609375 20.09375,18.765625 Z M20.6875,18.765625 C20.6875,19.296875 21.125,19.703125 21.640625,19.703125 C22.125,19.703125 22.5625,19.296875 22.5625,18.765625 C22.5625,18.265625 22.125,17.859375 21.640625,17.859375 C21.125,17.859375 20.6875,18.265625 20.6875,18.765625 Z M14.46875,17.640625 L14.453125,17.296875 C14.6875,17.15625 15.234375,16.9375 15.234375,16.75 C15.234375,16.3125 14.5625,14.953125 14.109375,14.203125 C13.53125,13.34375 12.90625,12.453125 11.765625,11.453125 L12.078125,11.109375 C13.421875,11.875 14.421875,13.03125 14.953125,13.703125 C15.640625,14.640625 15.953125,15.3125 16.265625,15.84375 C16.390625,16.109375 16.828125,16.109375 16.828125,16.4375 C16.828125,16.984375 15.8125,17.6875 15.21875,17.71875 C14.953125,17.71875 14.640625,17.6875 14.46875,17.640625 Z M21.984375,11.765625 C22.375,11.765625 22.578125,12.09375 22.578125,12.59375 C22.5625,13.515625 21.8125,15 20.65625,16.203125 C20.203125,16.6875 19.609375,17.25 18.625,17.78125 L18.3125,17.421875 C19.03125,16.828125 19.53125,16.171875 19.984375,15.453125 C20.546875,14.515625 21.03125,13.484375 21.234375,12.671875 C21.40625,12.09375 21.578125,11.734375 21.984375,11.765625 Z M1.9375,5.1875 L1.625,5.046875 C1.625,4.796875 1.625,4.421875 1.6875,4.21875 C1.84375,3.671875 2.609375,3.078125 2.96875,3.078125 C3.21875,3.078125 3.390625,3.21875 3.703125,3.28125 C4.109375,3.390625 4.609375,3.484375 5.328125,3.53125 C6.28125,3.59375 7.921875,3.703125 9,3.703125 C9.90625,3.703125 10.53125,3.59375 10.984375,3.59375 C11.40625,3.59375 11.5,3.84375 11.5,4.078125 C11.5,4.53125 10.703125,4.9375 10.078125,4.9375 C9.765625,4.9375 9.5,4.78125 8.71875,4.703125 C8.140625,4.65625 4.0625,4.390625 2.921875,4.390625 C2.515625,4.390625 2.28125,4.78125 1.9375,5.1875 Z M2.453125,9.890625 L2.6875,9.453125 C4.625,10.3125 5.640625,11.609375 6.1875,12.53125 C6.625,13.25 6.953125,14.09375 7.15625,14.78125 L7.296875,15.390625 C9.28125,16.4375 10.265625,17.25 10.625,17.46875 C10.96875,17.6875 11.5,17.71875 11.5,18.078125 C11.5,18.5 10.421875,19.34375 10.0625,19.34375 C9.8125,19.34375 9.703125,19.078125 9.359375,19.0625 C8.71875,18.953125 3.53125,18.484375 2.609375,18.484375 C2.359375,18.484375 1.984375,18.890625 1.75,19.265625 L1.375,19.125 C1.34375,18.859375 1.375,18.453125 1.4375,18.265625 C1.609375,17.65625 2.40625,17.140625 2.765625,17.140625 C3.078125,17.140625 3.171875,17.359375 3.59375,17.46875 C4.078125,17.609375 9,18.1875 9.4375,18.1875 C9.53125,18.1875 9.703125,18.21875 9.53125,18 C9.3125,17.71875 8.328125,16.84375 7.25,16.125 C7.015625,16.34375 6.453125,16.53125 5.921875,16.5625 C5.640625,16.578125 5.359375,16.53125 4.96875,16.46875 L4.921875,16.03125 C5.1875,15.953125 5.65625,15.859375 5.90625,15.75 C6.046875,15.671875 6.078125,15.578125 6.078125,15.4375 C6.078125,14.734375 5.609375,13.625 5.203125,12.84375 C4.828125,12.125 3.9375,10.921875 2.453125,9.890625 Z M15.390625,8.296875 L15.40625,7.890625 C16.15625,7.78125 16.421875,7.78125 16.46875,7.4375 C16.53125,6.796875 16.5625,5.359375 16.5625,4.296875 C16.5625,3.28125 16.515625,1.4375 16.4375,0.484375 C16.390625,-0.125 16.265625,-0.53125 16.265625,-0.890625 C16.265625,-1.46875 16.609375,-1.890625 17.015625,-1.890625 C17.453125,-1.890625 17.546875,-1.5625 17.546875,-1.171875 L17.515625,4.109375 C18.4375,3.859375 19.171875,3.5 19.734375,3 C20.421875,2.40625 20.609375,1.96875 21.078125,1.96875 C21.40625,1.96875 21.578125,2.234375 21.578125,2.5 C21.578125,2.90625 21.21875,3.28125 20.828125,3.578125 C20.109375,4.109375 18.984375,4.578125 17.515625,4.78125 C17.515625,5.453125 17.5625,6.28125 17.609375,6.84375 C17.640625,7.296875 18,7.25 18,7.578125 C18,7.984375 16.96875,8.515625 16.515625,8.515625 C16.15625,8.515625 15.671875,8.40625 15.390625,8.296875 Z" transform="translate(-0.265625, 20.28125) scale(1, -1)"/>
</svg>