<svg height="21.5" viewBox="0 0 24 21.5" width="24" xmlns="http://www.w3.org/2000/svg">
<path d="M3,6.625 C2.640625,6.625 2.40625,7.109375 2.1875,7.4375 L1.796875,7.3125 C1.796875,6.984375 1.84375,6.546875 1.890625,6.359375 C2.015625,5.96875 2.65625,5.328125 3.078125,5.328125 C3.359375,5.328125 3.53125,5.546875 3.890625,5.640625 C4.609375,5.8125 8.46875,6.265625 9.046875,6.265625 C9.09375,6.265625 9.171875,6.265625 9.140625,6.125 C8.921875,5.1875 8.234375,3.671875 7.21875,2.359375 C6.03125,0.765625 4.484375,-0.3125 2.78125,-1.265625 L3.078125,-1.703125 C5.0625,-1.0625 6.71875,0.078125 8.109375,1.75 C9.046875,2.859375 9.71875,4.109375 10.203125,5.296875 C10.390625,5.6875 10.875,5.8125 10.875,6.125 C10.875,6.640625 9.71875,7.46875 9.359375,7.46875 C9.125,7.46875 9,7.21875 8.6875,7.15625 C8.140625,7.0625 3.703125,6.625 3,6.625 Z M16.515625,18.796875 L16.578125,18.40625 C17.1875,18.359375 17.59375,18.34375 17.609375,18 C17.71875,16.703125 17.5625,13.5625 17.5625,12.484375 C17.5625,11.96875 17.328125,11.875 17.328125,11.65625 C17.328125,11.421875 17.859375,10.578125 18.21875,10.578125 C18.484375,10.578125 18.546875,10.9375 18.859375,11.109375 C19.984375,11.6875 20.609375,12.09375 21.453125,12.75 C22.421875,13.46875 23.203125,14.453125 23.59375,15.125 L23.25,15.4375 C22.6875,14.78125 21.8125,14.015625 21.03125,13.484375 C20.453125,13.109375 19.625,12.578125 18.625,12.28125 C18.59375,12.3125 18.59375,12.359375 18.59375,12.4375 C18.59375,13.4375 18.71875,16.96875 18.765625,17.515625 C18.796875,17.90625 19.078125,17.875 19.078125,18.1875 C19.078125,18.53125 18.171875,19.109375 17.5,19.109375 C17.234375,19.109375 16.78125,18.9375 16.515625,18.796875 Z M14.046875,17.421875 L14.046875,17.015625 C14.359375,16.96875 15.046875,16.78125 15.046875,16.484375 C15.046875,15.90625 14.734375,14.25 14.015625,13.015625 C13.4375,12.046875 12.765625,11.25 12,10.625 L12.265625,10.296875 C13.265625,10.75 14.203125,11.609375 14.875,12.625 C15.578125,13.703125 15.8125,14.71875 16.109375,15.8125 C16.203125,16.125 16.46875,16.15625 16.46875,16.4375 C16.46875,16.890625 15.484375,17.59375 14.953125,17.59375 C14.640625,17.59375 14.234375,17.5 14.046875,17.421875 Z M2.515625,9.953125 L2.78125,9.546875 C4.703125,10.390625 5.734375,11.71875 6.265625,12.59375 C6.703125,13.3125 7.03125,14.15625 7.21875,14.875 L7.375,15.484375 C9.390625,16.53125 10.34375,17.359375 10.703125,17.5625 C11.0625,17.78125 11.5625,17.8125 11.5625,18.140625 C11.5625,18.578125 10.484375,19.4375 10.125,19.4375 C9.90625,19.4375 9.765625,19.171875 9.453125,19.125 C8.78125,19.03125 3.625,18.546875 2.6875,18.546875 C2.421875,18.546875 2.0625,18.984375 1.828125,19.34375 L1.4375,19.203125 C1.421875,18.953125 1.4375,18.546875 1.515625,18.34375 C1.703125,17.765625 2.46875,17.203125 2.859375,17.203125 C3.140625,17.203125 3.265625,17.453125 3.671875,17.5625 C4.15625,17.6875 9.078125,18.265625 9.53125,18.265625 C9.625,18.265625 9.765625,18.3125 9.625,18.09375 C9.40625,17.78125 8.40625,16.921875 7.3125,16.203125 C7.109375,16.4375 6.53125,16.625 6,16.65625 C5.71875,16.6875 5.421875,16.625 5.046875,16.53125 L5.015625,16.125 C5.25,16.0625 5.734375,15.953125 5.96875,15.84375 C6.125,15.75 6.140625,15.671875 6.140625,15.53125 C6.140625,14.8125 5.6875,13.734375 5.28125,12.9375 C4.890625,12.1875 4.015625,11.015625 2.515625,9.953125 Z M14.234375,-1.703125 L14.515625,-2.0625 C16.078125,-1.375 16.890625,-0.390625 17.375,0.359375 C17.734375,0.984375 18.046875,1.703125 18.1875,2.25 L18.28125,2.6875 C19.875,3.53125 20.65625,4.265625 20.96875,4.4375 C21.28125,4.609375 21.703125,4.703125 21.703125,4.9375 C21.703125,5.359375 20.78125,6.03125 20.5,6.03125 C20.296875,6.03125 20.15625,5.8125 19.890625,5.78125 C19.375,5.6875 15.1875,5.328125 14.46875,5.328125 C14.25,5.328125 13.96875,5.71875 13.75,6 L13.4375,5.859375 C13.421875,5.65625 13.46875,5.203125 13.515625,5.09375 C13.625,4.6875 14.296875,4.125 14.5625,4.125 C14.828125,4.125 14.921875,4.3125 15.265625,4.421875 C15.671875,4.53125 19.515625,4.984375 19.875,4.984375 C19.96875,4.984375 20.0625,5.015625 19.9375,4.84375 C19.78125,4.578125 19.03125,3.953125 18.21875,3.40625 C18,3.59375 17.5625,3.75 17.1875,3.75 C16.9375,3.75 16.5625,3.671875 16.3125,3.625 L16.296875,3.28125 C16.515625,3.21875 16.84375,3.140625 17.0625,3.03125 C17.1875,2.96875 17.203125,2.90625 17.203125,2.78125 C17.203125,2.234375 16.84375,1.3125 16.515625,0.703125 C16.203125,0.125 15.4375,-0.859375 14.234375,-1.703125 Z" transform="translate(-0.5078125, 19.4375) scale(1, -1)"/>
</svg>