<svg height="21.59375" viewBox="0 0 24 21.59375" width="24" xmlns="http://www.w3.org/2000/svg">
<path d="M2.5,7.015625 L2.28125,6.59375 C3.4375,5.875 4.109375,5.328125 4.625,4.78125 C4.96875,4.421875 5.296875,4.015625 5.59375,4.015625 C6.03125,4.015625 6.1875,4.3125 6.1875,4.609375 C6.1875,5.015625 5.734375,5.515625 5.15625,5.921875 C4.515625,6.40625 3.578125,6.75 2.5,7.015625 Z M11.765625,5.375 L11.359375,5.65625 C10.5625,4.703125 9.390625,3.5 8.046875,2.40625 C6.90625,1.515625 4.484375,-0.140625 3.75,-0.140625 C3.359375,-0.140625 2.875,0.34375 2.5,0.703125 L2.1875,0.484375 C2.203125,0.265625 2.296875,-0.359375 2.40625,-0.5 C2.71875,-0.953125 3.578125,-1.609375 4.15625,-1.609375 C4.53125,-1.609375 4.65625,-1.203125 4.875,-1.078125 C5.875,-0.484375 7.609375,0.671875 8.6875,1.65625 C9.9375,2.78125 11.09375,4.078125 11.765625,5.375 Z M4.703125,19.78125 L4.734375,19.4375 C4.921875,19.421875 5.28125,19.3125 5.46875,19.25 C5.6875,19.171875 5.71875,19.078125 5.71875,18.90625 L5.734375,17.546875 C4.984375,17.46875 4.015625,17.421875 3.34375,17.421875 C3.265625,17.515625 3.171875,17.59375 3.046875,17.6875 C2.609375,17.953125 2.09375,18.140625 1.75,18.21875 L1.53125,17.96875 C1.828125,17.640625 2.359375,17.203125 2.421875,16.734375 C2.5,16.3125 2.546875,15.53125 2.515625,15.125 C2.515625,14.875 2.46875,14.765625 2.46875,14.59375 C2.46875,14.296875 2.65625,13.875 2.78125,13.703125 C2.90625,13.515625 3.046875,13.421875 3.234375,13.421875 C3.546875,13.421875 3.671875,13.65625 3.671875,13.921875 C3.671875,14.15625 3.625,14.640625 3.625,14.953125 L3.53125,16.6875 C3.671875,16.578125 3.84375,16.515625 4.078125,16.515625 C4.34375,16.515625 4.890625,16.65625 6.578125,16.78125 C7.34375,16.84375 8.71875,16.96875 9.1875,16.96875 C9.28125,16.96875 9.3125,16.96875 9.28125,16.828125 C9.140625,15.9375 8.59375,14.5 7.9375,13.46875 C7.25,12.34375 5.953125,10.96875 3.859375,9.859375 L4.109375,9.40625 C6.953125,10.3125 8.359375,12.09375 9,13.15625 C9.640625,14.203125 10.078125,15.4375 10.46875,16.46875 C10.578125,16.75 11.015625,16.84375 11.015625,17.140625 C11.015625,17.421875 10.109375,18.171875 9.703125,18.171875 C9.5,18.171875 9.34375,17.859375 9.09375,17.828125 L6.75,17.609375 L6.796875,18.53125 C6.84375,18.90625 7.109375,18.984375 7.109375,19.21875 C7.109375,19.5625 6.28125,19.984375 5.609375,19.984375 C5.40625,19.984375 4.921875,19.875 4.703125,19.78125 Z M13.421875,10.375 L13.65625,9.984375 C14.828125,10.46875 16.03125,11.28125 16.703125,11.921875 C17.296875,12.484375 17.828125,13.109375 18.1875,13.609375 C18.1875,12.4375 18.1875,11.09375 18.171875,10.6875 C18.140625,10.609375 18.140625,10.515625 18,10.5625 C17.734375,10.609375 17.1875,10.78125 16.796875,10.890625 L16.625,10.53125 C16.984375,10.34375 17.421875,10.078125 17.71875,9.84375 C17.875,9.640625 17.875,9.171875 18.234375,9.171875 C18.765625,9.171875 19.109375,9.859375 19.109375,10.265625 C19.109375,10.515625 19.078125,11.1875 19.078125,11.609375 L19.0625,14.59375 L20.40625,14.609375 C20.953125,14.609375 21.40625,14.5625 21.671875,14.5625 C21.9375,14.5625 22.109375,14.6875 22.109375,14.921875 C22.109375,15.359375 21.53125,15.578125 21,15.578125 C20.921875,15.578125 20.78125,15.484375 20.28125,15.40625 L19.0625,15.28125 L19.109375,16.265625 C19.171875,16.75 19.3125,16.78125 19.3125,16.984375 C19.3125,17.25 18.546875,17.5625 18.078125,17.5625 C17.90625,17.5625 17.40625,17.359375 17.203125,17.28125 L17.234375,16.890625 C17.46875,16.890625 17.78125,16.875 17.96875,16.828125 C18.125,16.78125 18.171875,16.703125 18.171875,16.5625 L18.1875,15.234375 C17.15625,15.140625 15.390625,14.96875 14.734375,14.96875 C14.59375,14.96875 14.5,15.078125 14.40625,15.140625 C14.28125,15.3125 14.15625,15.5 14.09375,15.625 L13.75,15.53125 C13.734375,15.359375 13.734375,14.953125 13.78125,14.78125 C13.84375,14.5 14.375,13.96875 14.65625,13.96875 C15,13.96875 15.140625,14.09375 15.59375,14.1875 C16.109375,14.28125 16.921875,14.40625 17.609375,14.46875 C17.25,13.84375 16.734375,13.15625 16.109375,12.53125 C15.265625,11.59375 14.328125,10.921875 13.421875,10.375 Z" transform="translate(0.1796875, 19.984375) scale(1, -1)"/>
</svg>