<svg height="22.59375" viewBox="0 0 24 22.59375" width="24" xmlns="http://www.w3.org/2000/svg">
<path d="M10.390625,18.3125 C10.65625,18 10.890625,17.65625 11.140625,17.65625 C11.359375,17.65625 11.515625,17.828125 11.515625,18.09375 C11.515625,18.359375 11.328125,18.75 10.921875,19.0625 C10.609375,19.296875 10.078125,19.5625 9.453125,19.734375 L9.234375,19.4375 C9.796875,18.984375 10.109375,18.640625 10.390625,18.3125 Z M11.5,19.4375 C11.8125,19.125 12.03125,18.765625 12.28125,18.796875 C12.5,18.796875 12.640625,19.015625 12.640625,19.25 C12.640625,19.53125 12.390625,19.890625 11.96875,20.1875 C11.640625,20.421875 11.15625,20.609375 10.515625,20.765625 L10.296875,20.453125 C10.890625,20.015625 11.203125,19.75 11.5,19.4375 Z M20.65625,18.53125 C20.96875,18.578125 21.171875,18.703125 21.171875,18.984375 C21.171875,19.375 20.6875,19.609375 20.0625,19.609375 C19.9375,19.609375 19.625,19.484375 19.078125,19.375 C18.59375,19.296875 17.296875,19.15625 16.515625,19.15625 C16.125,19.15625 15.765625,19.265625 15.21875,19.65625 L14.90625,19.421875 C15.140625,18.953125 15.390625,18.625 15.625,18.453125 C15.890625,18.234375 16.171875,18.125 16.484375,18.125 C16.9375,18.125 18.234375,18.28125 19.34375,18.40625 C19.875,18.484375 20.453125,18.5 20.65625,18.53125 Z M13.984375,17.09375 L13.625,16.96875 C13.609375,16.625 13.625,16.25 13.734375,16.078125 C13.875,15.703125 14.515625,15.046875 14.90625,15.046875 C15.140625,15.046875 15.359375,15.234375 15.71875,15.3125 C16.578125,15.484375 19.625,15.8125 20.6875,15.859375 C20.765625,15.859375 20.78125,15.84375 20.734375,15.75 C20.359375,14.734375 19.734375,13.6875 18.484375,12.5 C17.46875,11.5 16.109375,10.609375 14.640625,9.9375 L14.859375,9.5 C16.796875,10.0625 18.265625,10.921875 19.34375,11.859375 C20.6875,13.078125 21.265625,14.140625 21.859375,15.1875 C22.015625,15.4375 22.484375,15.546875 22.484375,15.8125 C22.484375,16.25 21.484375,16.96875 21.125,16.96875 C20.859375,16.96875 20.71875,16.78125 20.359375,16.703125 C19.65625,16.609375 15.625,16.296875 14.828125,16.296875 C14.5,16.296875 14.25,16.703125 13.984375,17.09375 Z M1.890625,9.703125 L2.140625,9.28125 C4.65625,10.203125 6.390625,11.609375 7.421875,12.84375 C8.5625,14.1875 9.140625,15.359375 9.671875,16.34375 C9.796875,16.5625 10.296875,16.703125 10.296875,16.984375 C10.296875,17.359375 9.34375,18.03125 8.96875,18.03125 C8.765625,18.03125 8.65625,17.765625 8.359375,17.6875 C7.9375,17.609375 6.1875,17.515625 5.875,17.515625 L5.6875,17.515625 L6.09375,18.1875 C6.28125,18.53125 6.578125,18.53125 6.578125,18.796875 C6.578125,19.109375 5.640625,19.75 5.046875,19.75 C4.828125,19.75 4.25,19.65625 4.0625,19.625 L4.0625,19.265625 C4.53125,19.15625 4.984375,19.015625 4.984375,18.84375 C4.984375,18.40625 4.34375,17.328125 3.71875,16.46875 C3.125,15.59375 2.0625,14.453125 1.078125,13.609375 L1.390625,13.265625 C2.78125,14.0625 3.9375,15.21875 4.53125,15.953125 L5.25,16.890625 C5.46875,16.734375 5.765625,16.578125 5.875,16.578125 C6,16.578125 6.265625,16.625 6.578125,16.6875 C7.25,16.796875 7.984375,16.84375 8.40625,16.84375 C8.515625,16.84375 8.5625,16.828125 8.515625,16.703125 C8.28125,16.15625 7.625,14.65625 6.53125,13.390625 C5.25,11.90625 3.953125,10.84375 1.890625,9.703125 Z M1.65625,0.703125 L1.3125,0.625 C1.3125,0.484375 1.265625,0.046875 1.265625,-0.21875 C1.296875,-0.625 2.15625,-1.484375 2.515625,-1.484375 C2.828125,-1.484375 3.03125,-1.125 3.28125,-1.078125 L9.5,0 C9.640625,-0.34375 9.796875,-0.703125 9.90625,-1.0625 C10.03125,-1.484375 10.21875,-1.828125 10.5625,-1.828125 C10.9375,-1.828125 11.15625,-1.484375 11.15625,-1.078125 C11.15625,-0.40625 10.703125,0.453125 10.203125,1.109375 C9.59375,1.921875 8.65625,2.6875 7.65625,3.21875 L7.296875,2.953125 C7.984375,2.296875 8.71875,1.5625 9.171875,0.75 L4.109375,0.125 C4.84375,1.578125 6.140625,4.34375 6.75,5.546875 C6.890625,5.8125 7.3125,5.828125 7.3125,6.140625 C7.3125,6.640625 6.1875,7.390625 5.609375,7.390625 C5.28125,7.390625 4.96875,7.296875 4.703125,7.171875 L4.703125,6.8125 C5.09375,6.75 5.65625,6.578125 5.65625,6.359375 C5.65625,5.859375 3.984375,1.78125 3.09375,0.03125 L2.328125,-0.046875 C2.0625,-0.046875 1.84375,0.359375 1.65625,0.703125 Z" transform="translate(0.21875, 20.765625) scale(1, -1)"/>
</svg>