<svg height="22.84375" viewBox="0 0 24 22.84375" width="24" xmlns="http://www.w3.org/2000/svg">
<path d="M14.59375,18.578125 C14.8125,18.625 14.96875,18.765625 14.96875,19.0625 C14.96875,19.4375 14.515625,19.65625 14.0625,19.65625 C13.96875,19.65625 13.734375,19.515625 13.3125,19.421875 C12.9375,19.3125 12.125,19.15625 11.546875,19.15625 C11.234375,19.15625 10.96875,19.265625 10.53125,19.65625 L10.21875,19.421875 C10.421875,18.953125 10.609375,18.625 10.78125,18.453125 C10.96875,18.234375 11.25,18.125 11.515625,18.125 C11.859375,18.125 12.71875,18.28125 13.515625,18.40625 C13.9375,18.484375 14.421875,18.546875 14.59375,18.578125 Z M9.59375,17.109375 L9.265625,16.96875 C9.265625,16.65625 9.234375,16.265625 9.28125,16.109375 C9.453125,15.59375 9.953125,15.078125 10.21875,15.078125 C10.421875,15.078125 10.6875,15.28125 10.9375,15.34375 C11.59375,15.484375 13.625,15.75 14.453125,15.796875 C14.5,15.796875 14.546875,15.765625 14.515625,15.671875 C14.203125,14.546875 13.75,13.4375 12.9375,12.40625 C12.171875,11.40625 11.0625,10.515625 9.953125,9.84375 L10.21875,9.40625 C11.65625,9.9375 12.859375,10.796875 13.6875,11.765625 C14.6875,12.984375 15.09375,14.1875 15.578125,15.21875 C15.703125,15.484375 16.03125,15.546875 16.03125,15.84375 C16.03125,16.265625 15.125,16.9375 14.859375,16.9375 C14.640625,16.9375 14.546875,16.734375 14.28125,16.6875 C13.703125,16.578125 10.875,16.3125 10.3125,16.3125 C10.0625,16.3125 9.8125,16.703125 9.59375,17.109375 Z M13.15625,7.125 L12.9375,6.71875 C14.09375,6 14.765625,5.453125 15.265625,4.890625 C15.625,4.53125 15.953125,4.125 16.25,4.125 C16.6875,4.125 16.828125,4.4375 16.828125,4.734375 C16.828125,5.140625 16.390625,5.640625 15.8125,6.046875 C15.171875,6.5 14.234375,6.859375 13.15625,7.125 Z M22.390625,5.46875 L21.984375,5.78125 C21.1875,4.828125 20.015625,3.625 18.703125,2.515625 C17.5625,1.625 15.140625,-0.03125 14.40625,-0.03125 C13.984375,-0.03125 13.515625,0.453125 13.15625,0.8125 L12.84375,0.59375 C12.859375,0.390625 12.9375,-0.234375 13.0625,-0.390625 C13.375,-0.84375 14.203125,-1.484375 14.78125,-1.484375 C15.171875,-1.484375 15.3125,-1.078125 15.53125,-0.953125 C16.515625,-0.359375 18.234375,0.796875 19.34375,1.75 C20.59375,2.90625 21.75,4.203125 22.390625,5.46875 Z M8.046875,17.90625 C8.25,17.90625 8.421875,18.09375 8.421875,18.34375 C8.421875,18.59375 8.28125,18.984375 7.96875,19.296875 C7.703125,19.53125 7.296875,19.78125 6.796875,19.96875 L6.546875,19.6875 C6.984375,19.21875 7.203125,18.90625 7.421875,18.578125 C7.625,18.234375 7.828125,17.90625 8.046875,17.90625 Z M9.140625,18.796875 C9.3125,18.796875 9.5,18.984375 9.5,19.21875 C9.5,19.515625 9.3125,19.875 9,20.15625 C8.734375,20.40625 8.359375,20.59375 7.84375,20.734375 L7.609375,20.421875 C8.0625,20.015625 8.28125,19.734375 8.515625,19.390625 C8.765625,19.109375 8.921875,18.765625 9.140625,18.796875 Z M3.265625,8.09375 L3.28125,7.65625 C4.03125,7.5625 4.3125,7.53125 4.34375,7.203125 C4.421875,6.578125 4.4375,5.109375 4.4375,4.078125 C4.4375,3.078125 4.421875,1.21875 4.3125,0.265625 C4.265625,-0.34375 4.15625,-0.75 4.15625,-1.125 C4.15625,-1.6875 4.484375,-2.109375 4.890625,-2.109375 C5.328125,-2.109375 5.421875,-1.796875 5.421875,-1.421875 L5.40625,3.890625 C6.3125,3.640625 7.0625,3.28125 7.625,2.78125 C8.296875,2.15625 8.5,1.734375 8.96875,1.734375 C9.28125,1.734375 9.453125,2.015625 9.453125,2.28125 C9.453125,2.6875 9.125,3.078125 8.71875,3.34375 C7.984375,3.859375 6.859375,4.375 5.40625,4.53125 C5.40625,5.234375 5.453125,6.046875 5.5,6.625 C5.546875,7.0625 5.875,7.015625 5.875,7.375 C5.875,7.75 4.84375,8.296875 4.390625,8.296875 C4.03125,8.296875 3.546875,8.1875 3.265625,8.09375 Z M16.265625,12.484375 L15.90625,12.390625 C15.90625,12.234375 15.890625,11.8125 15.90625,11.546875 C15.90625,11.140625 16.75,10.25 17.015625,10.25 C17.25,10.25 17.5,10.609375 17.65625,10.65625 C18.5,10.890625 20.859375,11.421875 22.15625,11.734375 C22.25,11.421875 22.34375,11.0625 22.421875,10.734375 C22.515625,10.296875 22.734375,9.984375 23.046875,9.984375 C23.375,9.984375 23.59375,10.3125 23.59375,10.703125 C23.59375,11.40625 23.234375,12.265625 22.828125,12.9375 C22.34375,13.75 21.625,14.515625 20.90625,15.078125 L20.5625,14.828125 C21.09375,14.15625 21.625,13.265625 21.9375,12.40625 L18.40625,11.875 C18.953125,13.375 20.09375,16.46875 20.5,17.71875 C20.609375,17.953125 20.875,17.96875 20.875,18.234375 C20.875,18.71875 19.78125,19.3125 19.375,19.3125 C19.15625,19.3125 18.859375,19.203125 18.671875,19.15625 L18.671875,18.765625 C18.890625,18.703125 19.421875,18.5 19.421875,18.3125 C19.421875,17.78125 18.140625,13.4375 17.515625,11.765625 L16.875,11.6875 C16.6875,11.6875 16.4375,12.140625 16.265625,12.484375 Z M0.34375,13.84375 L0.703125,13.515625 C1.734375,14.28125 2.6875,15.4375 3.140625,16.171875 L3.703125,17.109375 C3.859375,16.9375 4.03125,16.828125 4.125,16.828125 C4.21875,16.828125 4.421875,16.875 4.65625,16.921875 C5.046875,16.984375 5.8125,17.0625 6.078125,17.0625 C6.171875,17.0625 6.1875,17.046875 6.140625,16.921875 C5.953125,16.203125 5.40625,14.734375 4.625,13.46875 C3.703125,11.953125 2.65625,10.875 1.0625,9.71875 L1.375,9.34375 C3.3125,10.21875 4.734375,11.765625 5.515625,12.984375 C6.390625,14.296875 6.890625,15.625 7.265625,16.609375 C7.34375,16.84375 7.703125,16.921875 7.703125,17.1875 C7.703125,17.5625 6.765625,18.234375 6.5,18.234375 C6.359375,18.234375 6.265625,17.953125 6.03125,17.90625 C5.71875,17.828125 4.390625,17.765625 4.125,17.765625 L4.03125,17.765625 L4.421875,18.578125 C4.5625,18.90625 4.78125,18.90625 4.78125,19.171875 C4.78125,19.484375 3.9375,20.046875 3.484375,20.046875 C3.3125,20.046875 2.859375,19.96875 2.6875,19.921875 L2.6875,19.5625 C3.046875,19.46875 3.359375,19.3125 3.359375,19.15625 C3.359375,18.71875 2.859375,17.546875 2.375,16.6875 C1.890625,15.8125 1.078125,14.6875 0.34375,13.84375 Z" transform="translate(0.03125, 20.734375) scale(1, -1)"/>
</svg>