<svg height="21.328125" viewBox="0 0 24 21.328125" width="24" xmlns="http://www.w3.org/2000/svg">
<path d="M13.578125,16.609375 L13.265625,16.46875 C13.25,16.21875 13.25,15.84375 13.3125,15.640625 C13.46875,15.09375 14.25,14.5 14.609375,14.5 C14.859375,14.5 15,14.640625 15.34375,14.71875 C15.75,14.8125 16.25,14.90625 16.9375,14.953125 C17.921875,15.03125 19.5625,15.125 20.640625,15.125 C21.546875,15.125 22.171875,15.03125 22.625,15.03125 C23.046875,15.03125 23.140625,15.265625 23.140625,15.5 C23.140625,15.953125 22.3125,16.375 21.71875,16.375 C21.390625,16.375 21.125,16.203125 20.359375,16.125 C19.78125,16.078125 15.671875,15.8125 14.5625,15.8125 C14.15625,15.8125 13.921875,16.203125 13.578125,16.609375 Z M8.734375,7.75 C8.734375,6.90625 9.453125,6.1875 10.296875,6.1875 C11.140625,6.1875 11.859375,6.90625 11.859375,7.75 C11.859375,8.59375 11.140625,9.28125 10.296875,9.28125 C9.453125,9.28125 8.734375,8.59375 8.734375,7.75 Z M9.359375,7.75 C9.359375,8.28125 9.796875,8.6875 10.296875,8.6875 C10.828125,8.6875 11.234375,8.28125 11.234375,7.75 C11.234375,7.25 10.828125,6.8125 10.296875,6.8125 C9.796875,6.8125 9.359375,7.25 9.359375,7.75 Z M10.171875,0.140625 C10.265625,-0.140625 10.46875,-0.40625 10.78125,-0.40625 C11.1875,-0.40625 11.359375,-0.078125 11.359375,0.28125 C11.359375,0.84375 10.875,1.609375 10.21875,2.140625 C9.796875,2.5 9.234375,2.8125 8.640625,3.03125 L8.375,2.71875 C8.828125,2.359375 9.234375,1.96875 9.5,1.609375 C9.8125,1.171875 9.9375,0.796875 10.171875,0.140625 Z M4.15625,2.71875 L3.71875,2.859375 C3.40625,2.09375 3,1.4375 2.109375,0.796875 C1.703125,0.5 1.46875,0.265625 1.46875,-0.09375 C1.46875,-0.390625 1.65625,-0.625 2.015625,-0.625 C2.359375,-0.625 2.640625,-0.40625 2.953125,-0.046875 C3.703125,0.765625 4.03125,1.9375 4.15625,2.71875 Z M2.1875,13.65625 L1.796875,13.46875 C1.796875,13.296875 1.828125,12.859375 1.890625,12.703125 C2.046875,12.21875 2.765625,11.515625 3.125,11.515625 C3.484375,11.515625 3.53125,11.734375 4.03125,11.8125 C4.84375,11.953125 6.765625,12.125 7.515625,12.125 C8.234375,12.125 9.046875,12.046875 9.40625,12.046875 C9.859375,12.046875 10.0625,12.234375 10.0625,12.53125 C10.0625,12.8125 9.890625,13.0625 9.484375,13.15625 C9.71875,14.640625 10.015625,16.65625 10.171875,17.28125 C10.21875,17.515625 10.625,17.640625 10.625,17.921875 C10.625,18.1875 9.625,18.9375 9.265625,18.9375 C9.078125,18.9375 8.828125,18.640625 8.609375,18.625 C7.796875,18.546875 4.609375,18.28125 3.4375,18.28125 C3.140625,18.28125 2.78125,18.796875 2.546875,19.078125 L2.15625,18.953125 C2.140625,18.765625 2.15625,18.265625 2.203125,18.09375 C2.296875,17.734375 2.953125,16.96875 3.40625,16.96875 C3.671875,16.96875 3.9375,17.1875 4.265625,17.234375 C5.46875,17.421875 8.359375,17.65625 8.78125,17.65625 C8.875,17.65625 8.921875,17.640625 8.921875,17.546875 C8.875,16.828125 8.59375,14.65625 8.375,13.171875 C6.9375,13.078125 3.796875,12.8125 3.09375,12.8125 C2.734375,12.8125 2.46875,13.25 2.1875,13.65625 Z M1.703125,5.546875 L1.390625,5.375 C1.421875,5.140625 1.421875,4.703125 1.484375,4.5625 C1.703125,4.015625 2.359375,3.625 2.71875,3.625 C3,3.625 3.234375,3.84375 3.640625,3.90625 C4.296875,4.0625 5.1875,4.171875 5.953125,4.25 L5.953125,3.40625 C5.953125,2.328125 5.953125,0.125 5.921875,-0.453125 C5.90625,-0.625 5.8125,-0.640625 5.65625,-0.625 C5.40625,-0.578125 4.734375,-0.34375 4.34375,-0.21875 L4.203125,-0.625 C4.578125,-0.8125 5.203125,-1.171875 5.453125,-1.4375 C5.71875,-1.75 5.609375,-2.25 6.078125,-2.25 C6.625,-2.234375 7.015625,-1.578125 7.015625,-1.03125 C7.015625,-0.671875 6.953125,-0.125 6.953125,0.546875 C6.953125,1.15625 6.9375,2.421875 6.9375,3.234375 L6.9375,4.375 C7.78125,4.4375 8.8125,4.46875 9.28125,4.46875 C9.8125,4.46875 10.3125,4.421875 10.734375,4.421875 C11.0625,4.421875 11.25,4.578125 11.25,4.84375 C11.25,5.203125 10.6875,5.609375 10.078125,5.609375 C9.765625,5.609375 9.640625,5.5 8.859375,5.40625 L6.9375,5.1875 L6.984375,6.671875 C7.03125,6.984375 7.296875,7.0625 7.296875,7.3125 C7.296875,7.65625 6.28125,8.09375 5.734375,8.09375 C5.421875,8.09375 4.9375,7.890625 4.703125,7.796875 L4.75,7.421875 C5.515625,7.3125 5.8125,7.25 5.859375,7.015625 C5.90625,6.75 5.921875,5.90625 5.953125,5.09375 C4.921875,4.984375 3,4.78125 2.640625,4.78125 C2.328125,4.78125 2.140625,4.984375 1.703125,5.546875 Z" transform="translate(-0.265625, 19.078125) scale(1, -1)"/>
</svg>