<svg height="22.578125" viewBox="0 0 24 22.578125" width="24" xmlns="http://www.w3.org/2000/svg">
<path d="M16.3125,7.015625 L16.390625,6.625 C17.015625,6.546875 17.421875,6.53125 17.453125,6.21875 C17.546875,4.890625 17.40625,1.75 17.40625,0.671875 C17.375,0.171875 17.15625,0.09375 17.15625,-0.140625 C17.15625,-0.390625 17.65625,-1.203125 18.046875,-1.203125 C18.3125,-1.203125 18.390625,-0.84375 18.671875,-0.703125 C19.828125,-0.125 20.453125,0.28125 21.265625,0.9375 C22.21875,1.6875 23.015625,2.65625 23.421875,3.3125 L23.0625,3.625 C22.484375,2.96875 21.640625,2.203125 20.828125,1.6875 C20.28125,1.3125 19.46875,0.796875 18.453125,0.484375 C18.4375,0.5 18.40625,0.578125 18.40625,0.625 C18.4375,1.625 18.53125,5.1875 18.578125,5.71875 C18.59375,6.09375 18.90625,6.078125 18.90625,6.40625 C18.90625,6.71875 18,7.3125 17.328125,7.3125 C17.0625,7.3125 16.609375,7.125 16.3125,7.015625 Z M13.875,5.640625 L13.875,5.234375 C14.15625,5.1875 14.859375,4.96875 14.859375,4.6875 C14.859375,4.109375 14.5625,2.46875 13.84375,1.203125 C13.265625,0.265625 12.578125,-0.53125 11.8125,-1.15625 L12.09375,-1.515625 C13.078125,-1.0625 14.046875,-0.171875 14.71875,0.84375 C15.390625,1.890625 15.625,2.921875 15.90625,4.015625 C16.015625,4.34375 16.265625,4.375 16.265625,4.625 C16.265625,5.09375 15.3125,5.78125 14.78125,5.78125 C14.46875,5.78125 14.0625,5.71875 13.875,5.640625 Z M19.390625,20.296875 L19.265625,19.96875 C19.515625,19.828125 19.921875,19.609375 19.921875,19.4375 C19.921875,19.265625 19.828125,19.125 19.65625,18.890625 C19.421875,18.53125 18.671875,17.59375 17.875,16.828125 C16.9375,15.890625 15.21875,14.46875 13.0625,13.21875 L13.34375,12.84375 C15.578125,13.625 17.46875,15.078125 18.390625,15.890625 C18.40625,15.765625 18.4375,15.640625 18.4375,15.484375 C18.4375,14.734375 18.390625,12.71875 18.3125,11.8125 C18.28125,11.375 18.171875,11.0625 18.171875,10.828125 C18.171875,10.515625 18.28125,10.203125 18.390625,10.03125 C18.484375,9.890625 18.59375,9.640625 18.9375,9.640625 C19.296875,9.640625 19.421875,9.953125 19.421875,10.265625 C19.421875,10.609375 19.390625,11.140625 19.375,11.609375 C19.34375,12.625 19.421875,15.03125 19.4375,15.390625 C19.484375,15.671875 19.578125,15.859375 19.578125,16.03125 C19.578125,16.15625 19.515625,16.265625 19.25,16.4375 L19.078125,16.5625 C19.75,17.234375 20.5625,18.125 20.90625,18.53125 C21.171875,18.8125 21.625,18.75 21.625,19.078125 C21.625,19.46875 21,19.984375 20.421875,20.234375 C20.109375,20.296875 19.578125,20.328125 19.390625,20.296875 Z M2.421875,-1.609375 L2.65625,-2.015625 C5.1875,-1.125 6.90625,0.3125 7.9375,1.515625 C9.078125,2.859375 9.671875,4.03125 10.203125,5.015625 C10.3125,5.234375 10.796875,5.375 10.796875,5.65625 C10.796875,6.03125 9.859375,6.703125 9.484375,6.703125 C9.28125,6.703125 9.171875,6.4375 8.875,6.359375 C8.46875,6.28125 6.71875,6.1875 6.390625,6.1875 L6.21875,6.1875 L6.59375,6.859375 C6.796875,7.203125 7.078125,7.203125 7.078125,7.46875 C7.078125,7.78125 6.171875,8.421875 5.5625,8.421875 C5.359375,8.421875 4.78125,8.328125 4.578125,8.296875 L4.578125,7.921875 C5.0625,7.828125 5.515625,7.6875 5.515625,7.515625 C5.515625,7.078125 4.875,6 4.25,5.140625 C3.640625,4.265625 2.59375,3.125 1.609375,2.296875 L1.921875,1.9375 C3.3125,2.734375 4.46875,3.890625 5.0625,4.625 L5.78125,5.5625 C6,5.40625 6.28125,5.25 6.40625,5.25 C6.53125,5.25 6.765625,5.296875 7.109375,5.359375 C7.78125,5.46875 8.5,5.515625 8.921875,5.515625 C9.046875,5.515625 9.078125,5.5 9.03125,5.375 C8.8125,4.828125 8.140625,3.359375 7.03125,2.0625 C5.78125,0.578125 4.484375,-0.453125 2.421875,-1.609375 Z M1.515625,17.546875 L1.203125,17.375 C1.203125,17.1875 1.203125,16.734375 1.265625,16.5625 C1.421875,16.21875 2.0625,15.546875 2.375,15.546875 C2.640625,15.546875 2.96875,15.796875 3.3125,15.859375 C3.640625,15.9375 3.953125,16.015625 4.46875,16.0625 C4.4375,14.78125 4.296875,14.234375 4.296875,13.84375 C4.296875,13.375 4.578125,13.015625 4.9375,13.015625 C5.328125,13.015625 5.453125,13.296875 5.453125,13.828125 L5.453125,16.171875 C6.265625,16.265625 7.21875,16.34375 8.09375,16.375 C8.0625,15.125 7.84375,13.46875 7.296875,12.59375 C6.53125,11.359375 5.59375,10.734375 4.625,10.15625 L4.9375,9.75 C6.625,10.3125 7.53125,11.203125 8.109375,12 C8.859375,13.078125 9.125,14.734375 9.1875,16.421875 L9.75,16.421875 C10.65625,16.421875 11.375,16.3125 11.6875,16.3125 C11.921875,16.3125 12.125,16.46875 12.125,16.78125 C12.125,17.1875 11.328125,17.515625 10.734375,17.515625 L9.1875,17.359375 C9.1875,17.875 9.21875,18.484375 9.234375,18.953125 C9.265625,19.515625 9.53125,19.515625 9.53125,19.78125 C9.53125,20.09375 8.734375,20.5625 7.96875,20.5625 C7.734375,20.5625 7.296875,20.375 7.03125,20.203125 L7.125,19.875 C7.890625,19.796875 8.0625,19.75 8.09375,19.484375 L8.109375,17.28125 L5.453125,17.046875 L5.5,18.234375 C5.515625,18.59375 5.765625,18.765625 5.765625,19.109375 C5.765625,19.390625 4.796875,19.84375 4.3125,19.84375 C4.078125,19.84375 3.625,19.625 3.484375,19.578125 L3.578125,19.21875 C4.0625,19.171875 4.3125,19.15625 4.421875,18.9375 C4.484375,18.765625 4.46875,17.734375 4.46875,16.9375 C3.765625,16.875 2.828125,16.796875 2.328125,16.796875 C2.109375,16.796875 1.78125,17.203125 1.515625,17.546875 Z" transform="translate(-0.3125, 20.5625) scale(1, -1)"/>
</svg>