<svg height="22.5625" viewBox="0 0 24 22.5625" width="24" xmlns="http://www.w3.org/2000/svg">
<path d="M16.296875,18.953125 L16.375,18.578125 C16.96875,18.53125 17.375,18.5 17.40625,18.171875 C17.5,16.875 17.359375,13.703125 17.359375,12.625 C17.359375,12.140625 17.109375,12.046875 17.109375,11.828125 C17.109375,11.59375 17.640625,10.75 18,10.75 C18.265625,10.75 18.34375,11.109375 18.640625,11.28125 C19.78125,11.859375 20.40625,12.265625 21.234375,12.90625 C22.203125,13.625 22.984375,14.609375 23.375,15.265625 L23.046875,15.59375 C22.46875,14.953125 21.59375,14.1875 20.8125,13.65625 C20.234375,13.265625 19.421875,12.75 18.40625,12.4375 C18.390625,12.484375 18.390625,12.53125 18.390625,12.59375 C18.390625,13.609375 18.5,17.140625 18.546875,17.65625 C18.578125,18.078125 18.859375,18.046875 18.859375,18.359375 C18.859375,18.703125 17.953125,19.265625 17.28125,19.265625 C17.015625,19.265625 16.5625,19.078125 16.296875,18.953125 Z M13.828125,17.59375 L13.828125,17.1875 C14.140625,17.140625 14.828125,16.921875 14.828125,16.65625 C14.828125,16.0625 14.515625,14.421875 13.796875,13.171875 C13.21875,12.21875 12.546875,11.421875 11.78125,10.796875 L12.046875,10.46875 C13.0625,10.890625 13.984375,11.78125 14.65625,12.796875 C15.359375,13.84375 15.59375,14.875 15.890625,15.984375 C15.984375,16.296875 16.25,16.3125 16.25,16.609375 C16.25,17.0625 15.265625,17.765625 14.734375,17.765625 C14.421875,17.765625 14.015625,17.65625 13.828125,17.59375 Z M6.953125,7.0625 C7.203125,6.671875 7.34375,6.390625 7.5625,6.34375 C7.75,6.34375 7.984375,6.5 8.015625,6.765625 C8.015625,7.03125 7.875,7.4375 7.5625,7.78125 C7.296875,8.046875 6.84375,8.359375 6.34375,8.5625 L6.046875,8.28125 C6.5,7.796875 6.75,7.421875 6.953125,7.0625 Z M8.203125,7.875 C8.453125,7.515625 8.609375,7.15625 8.859375,7.171875 C9.046875,7.171875 9.234375,7.34375 9.234375,7.578125 C9.265625,7.890625 9.046875,8.28125 8.734375,8.59375 C8.453125,8.828125 8.046875,9.09375 7.515625,9.28125 L7.25,8.953125 C7.703125,8.515625 7.96875,8.203125 8.203125,7.875 Z M2.515625,10.3125 L2.765625,9.9375 C5.25,10.828125 7.015625,12.265625 8.046875,13.484375 C9.171875,14.8125 9.75,15.984375 10.296875,16.96875 C10.421875,17.203125 10.890625,17.328125 10.890625,17.609375 C10.890625,18 9.953125,18.671875 9.578125,18.671875 C9.390625,18.671875 9.265625,18.40625 8.953125,18.34375 C8.546875,18.234375 6.8125,18.140625 6.484375,18.140625 L6.28125,18.171875 L6.703125,18.8125 C6.890625,19.171875 7.171875,19.171875 7.171875,19.421875 C7.171875,19.734375 6.265625,20.40625 5.65625,20.40625 C5.421875,20.40625 4.875,20.296875 4.65625,20.25 L4.65625,19.890625 C5.140625,19.796875 5.59375,19.625 5.59375,19.484375 C5.59375,19.0625 4.9375,17.96875 4.3125,17.09375 C3.71875,16.21875 2.65625,15.09375 1.703125,14.25 L1.984375,13.890625 C3.390625,14.6875 4.5625,15.84375 5.140625,16.578125 L5.875,17.546875 C6.09375,17.359375 6.359375,17.203125 6.5,17.203125 C6.59375,17.203125 6.859375,17.25 7.171875,17.296875 C7.875,17.421875 8.59375,17.46875 9,17.46875 C9.125,17.46875 9.171875,17.453125 9.125,17.328125 C8.90625,16.796875 8.234375,15.3125 7.125,14.015625 C5.859375,12.53125 4.5625,11.46875 2.515625,10.3125 Z M16.203125,6.84375 L16.15625,6.453125 C16.625,6.171875 16.84375,5.921875 16.921875,5.5 C17.046875,4.609375 17.140625,2.15625 17.140625,1.03125 C17.140625,0.484375 17.140625,-0.21875 17.140625,-0.578125 C17.140625,-1.125 17.359375,-1.625 17.828125,-1.625 C18.140625,-1.625 18.234375,-1.375 18.234375,-1.15625 L18.21875,-0.546875 C19.25,-0.453125 20.453125,-0.40625 20.71875,-0.40625 C21.234375,-0.40625 21.984375,-0.453125 22.3125,-0.453125 C22.609375,-0.453125 22.734375,-0.265625 22.734375,0.03125 C22.734375,0.3125 22.484375,0.484375 22.078125,0.5 C22.21875,2.015625 22.46875,4.609375 22.609375,5.234375 C22.6875,5.5625 22.96875,5.65625 22.96875,5.90625 C22.96875,6.1875 22.125,6.9375 21.765625,6.9375 C21.546875,6.9375 21.4375,6.671875 21.09375,6.625 C20.6875,6.546875 19.109375,6.359375 18.03125,6.3125 C17.8125,6.53125 17.234375,6.9375 16.9375,6.9375 C16.734375,6.953125 16.421875,6.890625 16.203125,6.84375 Z M18.046875,5.546875 C18.171875,5.46875 18.28125,5.421875 18.390625,5.421875 C18.625,5.40625 18.84375,5.46875 19.21875,5.515625 C20.546875,5.6875 21.234375,5.765625 21.390625,5.765625 C21.4375,5.765625 21.484375,5.71875 21.484375,5.65625 C21.484375,5.109375 21.21875,1.96875 21.09375,0.5 L18.1875,0.28125 Z M13.34375,8.28125 L13.21875,7.9375 C13.421875,7.796875 13.796875,7.578125 13.78125,7.421875 C13.78125,7.25 13.6875,7.109375 13.5625,6.859375 C13.375,6.5 12.9375,5.828125 12.28125,5.0625 C11.515625,4.125 10.25,2.78125 8.5,1.390625 L8.765625,1.015625 C10.46875,1.875 11.90625,3.1875 12.671875,3.984375 L12.703125,3.671875 C12.703125,2.90625 12.671875,0.890625 12.59375,-0.03125 C12.578125,-0.453125 12.453125,-0.75 12.453125,-0.984375 C12.453125,-1.3125 12.578125,-1.625 12.640625,-1.78125 C12.765625,-1.9375 12.890625,-2.15625 13.203125,-2.15625 C13.53125,-2.15625 13.65625,-1.875 13.65625,-1.53125 C13.65625,-1.203125 13.65625,-0.671875 13.625,-0.1875 C13.578125,0.796875 13.6875,3.1875 13.703125,3.578125 C13.734375,3.859375 13.828125,4.0625 13.828125,4.21875 C13.828125,4.34375 13.78125,4.4375 13.484375,4.625 L13.3125,4.75 C13.84375,5.359375 14.40625,6.078125 14.6875,6.484375 C14.875,6.765625 15.234375,6.671875 15.234375,7.015625 C15.234375,7.390625 14.65625,7.96875 14.1875,8.1875 C13.9375,8.28125 13.515625,8.28125 13.34375,8.28125 Z M0.71875,4.296875 L0.390625,4.078125 C0.40625,3.84375 0.40625,3.5 0.484375,3.3125 C0.703125,2.90625 1.265625,2.296875 1.5625,2.296875 C1.796875,2.296875 1.890625,2.59375 2.40625,2.859375 L3.359375,3.265625 L3.3125,0.4375 C3.3125,-1.5625 4.375,-1.609375 5.828125,-1.609375 C6.53125,-1.609375 7.171875,-1.53125 7.5625,-1.46875 C7.875,-1.421875 8.203125,-1.265625 8.203125,-0.90625 C8.203125,-0.484375 7.578125,-0.265625 7.34375,-0.265625 C7.109375,-0.265625 6.546875,-0.5 5.515625,-0.5 C4.390625,-0.5 4.265625,-0.1875 4.265625,0.703125 L4.3125,3.640625 C5.203125,3.984375 6.484375,4.515625 6.890625,4.625 C7.03125,4.65625 7.0625,4.515625 7.03125,4.46875 C6.703125,3.765625 6.078125,2.71875 5.40625,1.875 L5.765625,1.5625 C6.625,2.296875 7.609375,3.484375 8.1875,4.265625 C8.375,4.5625 8.71875,4.609375 8.71875,4.890625 C8.71875,5.15625 7.796875,5.96875 7.46875,5.96875 C7.34375,5.96875 7.171875,5.65625 6.9375,5.5625 L4.375,4.578125 L4.4375,6.671875 C4.484375,7.0625 4.796875,7.171875 4.796875,7.4375 C4.796875,7.796875 3.859375,8.234375 3.5,8.234375 C3.28125,8.234375 2.765625,8.0625 2.5,7.890625 L2.5625,7.515625 C3.03125,7.46875 3.359375,7.46875 3.359375,7.171875 C3.40625,6.703125 3.390625,5.359375 3.390625,4.25 C2.6875,4.015625 1.734375,3.703125 1.421875,3.671875 C1.203125,3.671875 0.9375,4.0625 0.71875,4.296875 Z" transform="translate(0.1171875, 20.40625) scale(1, -1)"/>
</svg>