<svg height="23.40625" viewBox="0 0 24 23.40625" width="24" xmlns="http://www.w3.org/2000/svg">
<path d="M9.84375,18.578125 C10.109375,18.234375 10.34375,17.90625 10.578125,17.90625 C10.796875,17.90625 10.96875,18.09375 10.96875,18.359375 C10.96875,18.625 10.78125,19.015625 10.390625,19.3125 C10.078125,19.5625 9.546875,19.796875 8.921875,19.984375 L8.71875,19.703125 C9.234375,19.25 9.546875,18.90625 9.84375,18.578125 Z M10.9375,19.6875 C11.25,19.375 11.46875,19.03125 11.734375,19.0625 C11.953125,19.0625 12.09375,19.25 12.09375,19.515625 C12.09375,19.796875 11.859375,20.15625 11.453125,20.453125 C11.109375,20.65625 10.625,20.859375 9.953125,21.03125 L9.75,20.71875 C10.34375,20.28125 10.65625,20.015625 10.9375,19.6875 Z M9.859375,6.90625 C10.125,6.578125 10.34375,6.234375 10.609375,6.234375 C10.828125,6.234375 10.984375,6.40625 11.015625,6.671875 C11.015625,6.9375 10.828125,7.3125 10.421875,7.625 C10.109375,7.875 9.59375,8.140625 8.96875,8.328125 L8.734375,8.046875 C9.28125,7.578125 9.578125,7.25 9.859375,6.90625 Z M11.015625,7.96875 C11.296875,7.65625 11.515625,7.296875 11.78125,7.3125 C12,7.3125 12.140625,7.515625 12.140625,7.75 C12.171875,8.0625 11.90625,8.421875 11.5,8.71875 C11.1875,8.953125 10.703125,9.140625 10.03125,9.3125 L9.8125,9 C10.421875,8.5625 10.703125,8.28125 11.015625,7.96875 Z M16.484375,18.796875 L16.5625,18.40625 C17.15625,18.359375 17.5625,18.34375 17.59375,18 C17.6875,16.703125 17.546875,13.5625 17.546875,12.484375 C17.546875,11.96875 17.296875,11.875 17.296875,11.65625 C17.296875,11.421875 17.828125,10.578125 18.1875,10.578125 C18.453125,10.578125 18.53125,10.9375 18.8125,11.109375 C19.96875,11.6875 20.59375,12.09375 21.4375,12.75 C22.390625,13.46875 23.1875,14.453125 23.5625,15.125 L23.234375,15.4375 C22.65625,14.78125 21.796875,14.015625 21,13.484375 C20.421875,13.109375 19.609375,12.578125 18.59375,12.28125 C18.578125,12.3125 18.578125,12.359375 18.578125,12.4375 C18.578125,13.4375 18.703125,16.96875 18.75,17.515625 C18.765625,17.90625 19.0625,17.875 19.0625,18.1875 C19.0625,18.53125 18.140625,19.109375 17.46875,19.109375 C17.203125,19.109375 16.75,18.9375 16.484375,18.796875 Z M14.015625,17.421875 L14.015625,17.015625 C14.328125,16.96875 15.03125,16.78125 15.03125,16.484375 C15.03125,15.90625 14.71875,14.25 13.984375,13.015625 C13.421875,12.046875 12.75,11.25 11.96875,10.625 L12.234375,10.296875 C13.25,10.75 14.1875,11.609375 14.859375,12.625 C15.546875,13.703125 15.765625,14.71875 16.078125,15.8125 C16.171875,16.125 16.4375,16.15625 16.4375,16.4375 C16.4375,16.890625 15.453125,17.59375 14.921875,17.59375 C14.609375,17.59375 14.203125,17.5 14.015625,17.421875 Z M12.9375,4.265625 L12.625,4.15625 C12.59375,3.90625 12.59375,3.53125 12.671875,3.3125 C12.8125,2.765625 13.609375,2.1875 13.96875,2.1875 C14.203125,2.1875 14.375,2.328125 14.6875,2.40625 C15.09375,2.5 15.59375,2.5625 16.296875,2.609375 C17.28125,2.71875 18.90625,2.78125 19.984375,2.78125 C20.90625,2.78125 21.53125,2.6875 21.984375,2.6875 C22.390625,2.6875 22.484375,2.921875 22.484375,3.1875 C22.484375,3.625 21.671875,4.0625 21.078125,4.0625 C20.734375,4.0625 20.5,3.859375 19.703125,3.8125 C19.125,3.75 15.03125,3.484375 13.921875,3.484375 C13.515625,3.484375 13.265625,3.859375 12.9375,4.265625 Z M1.171875,14.15625 L0.84375,13.96875 C0.890625,13.578125 0.9375,13.265625 1.078125,13.078125 C1.296875,12.8125 1.890625,12.34375 2.25,12.34375 C2.546875,12.34375 2.765625,12.578125 3.09375,12.703125 C3.8125,12.953125 4.875,13.25 5.734375,13.4375 L6.03125,11.96875 C6.140625,11.234375 6.21875,10.390625 6.265625,10.15625 C6.359375,9.71875 6.75,9.40625 7.03125,9.40625 C7.46875,9.40625 7.5625,9.765625 7.5625,9.953125 C7.5625,10.296875 7.421875,10.65625 7.296875,11.140625 L6.71875,13.6875 L8.65625,14.109375 C9.28125,14.234375 9.953125,14.359375 10.25,14.375 C10.6875,14.40625 10.78125,14.59375 10.78125,14.859375 C10.78125,15.265625 10.390625,15.4375 9.71875,15.4375 C9.625,15.4375 9.390625,15.359375 8.953125,15.21875 C8.546875,15.078125 7.46875,14.8125 6.53125,14.546875 L6.125,16.484375 C6.984375,16.6875 8.1875,16.984375 8.96875,17.140625 C9.40625,17.203125 9.640625,17.328125 9.625,17.640625 C9.59375,18.078125 9.125,18.1875 8.65625,18.1875 C8.515625,18.1875 8.25,18.03125 7.46875,17.78125 L5.953125,17.359375 L5.765625,18.5 C5.71875,18.90625 5.921875,18.984375 5.921875,19.25 C5.921875,19.5625 5.140625,19.890625 4.34375,19.890625 C4.0625,19.890625 3.59375,19.6875 3.3125,19.53125 L3.40625,19.125 C3.765625,19.109375 4.390625,19.078125 4.484375,18.890625 C4.625,18.671875 4.828125,17.875 4.984375,17.140625 C3.9375,16.890625 2.5,16.578125 2.1875,16.578125 C1.9375,16.578125 1.609375,16.9375 1.390625,17.15625 L1.078125,16.984375 C1.15625,16.734375 1.171875,16.375 1.265625,16.203125 C1.46875,15.890625 2.0625,15.4375 2.375,15.4375 C2.609375,15.4375 2.828125,15.625 3.171875,15.71875 C3.71875,15.90625 4.46875,16.109375 5.15625,16.265625 L5.5625,14.296875 C4.375,14.015625 2.453125,13.5625 2.015625,13.5625 C1.703125,13.5625 1.484375,13.828125 1.171875,14.15625 Z M0.75,1.890625 L1.03125,1.578125 C2.296875,2.28125 3.484375,3.53125 4.0625,4.21875 C4.375,4.578125 4.6875,5.015625 4.984375,5.453125 C5.1875,5.296875 5.375,5.1875 5.515625,5.1875 C5.6875,5.1875 6.03125,5.296875 6.28125,5.328125 C6.765625,5.375 7.6875,5.46875 8.015625,5.46875 C8.109375,5.46875 8.109375,5.453125 8.109375,5.359375 C7.921875,4.78125 7.53125,3.890625 6.703125,2.6875 C5.921875,3.09375 4.890625,3.5 4.34375,3.640625 L4.078125,3.265625 C4.78125,2.90625 5.5,2.40625 6.09375,1.875 C4.921875,0.359375 3.453125,-0.8125 1.515625,-2.015625 L1.78125,-2.375 C4.109375,-1.515625 5.8125,-0.046875 6.859375,1.171875 C7.734375,0.34375 8.0625,-0.171875 8.421875,-0.171875 C8.765625,-0.171875 8.953125,0.078125 8.953125,0.40625 C8.953125,0.90625 8.375,1.515625 7.609375,2.09375 C8.453125,3.234375 8.859375,4.203125 9.28125,4.96875 C9.40625,5.234375 9.84375,5.375 9.84375,5.609375 C9.84375,5.953125 8.96875,6.625 8.5625,6.625 C8.40625,6.625 8.140625,6.28125 7.921875,6.265625 C7.484375,6.21875 6.046875,6.09375 5.6875,6.09375 L5.421875,6.09375 L5.78125,6.671875 C6,7.015625 6.234375,7.125 6.234375,7.375 C6.234375,7.609375 5.328125,8.234375 4.734375,8.234375 C4.46875,8.234375 4.015625,8.15625 3.90625,8.140625 L3.84375,7.75 C4.21875,7.625 4.6875,7.484375 4.6875,7.296875 C4.6875,6.90625 3.953125,5.65625 3.34375,4.796875 C2.765625,3.953125 1.796875,2.859375 0.75,1.890625 Z" transform="translate(-0.15625, 21.03125) scale(1, -1)"/>
</svg>