<svg height="21.28125" viewBox="0 0 24 21.28125" width="24" xmlns="http://www.w3.org/2000/svg">
<path d="M13.078125,15.703125 L12.765625,15.578125 C12.75,15.34375 12.765625,14.953125 12.8125,14.734375 C12.953125,14.1875 13.75,13.609375 14.109375,13.609375 C14.359375,13.609375 14.515625,13.75 14.828125,13.828125 C15.234375,13.921875 15.75,13.984375 16.4375,14.046875 C17.421875,14.140625 19.0625,14.203125 20.140625,14.203125 C21.046875,14.203125 21.671875,14.109375 22.125,14.109375 C22.53125,14.109375 22.625,14.359375 22.625,14.609375 C22.625,15.078125 21.8125,15.484375 21.21875,15.484375 C20.875,15.484375 20.640625,15.28125 19.84375,15.234375 C19.265625,15.1875 15.171875,14.921875 14.0625,14.921875 C13.65625,14.921875 13.421875,15.28125 13.078125,15.703125 Z M2.96875,9.578125 L3.265625,9.1875 C5.109375,10.109375 6.078125,11.25 6.859375,12.53125 C7.265625,13.203125 7.65625,14.234375 7.890625,14.765625 C8.015625,15.03125 8.296875,15.125 8.28125,15.34375 C8.25,15.5 7.96875,15.796875 7.53125,16.015625 L8.90625,16.078125 C9.53125,16.125 10.203125,16.125 10.734375,16.15625 C11.296875,16.15625 11.359375,16.421875 11.359375,16.609375 C11.359375,16.96875 10.5625,17.328125 10.21875,17.328125 C9.953125,17.328125 9.75,17.234375 9.1875,17.109375 C8.421875,16.9375 5.6875,16.703125 4.890625,16.703125 C4.78125,16.703125 4.625,16.734375 4.484375,16.78125 L5.375,18.3125 C5.515625,18.546875 5.90625,18.671875 5.90625,18.9375 C5.90625,19.171875 5.234375,19.875 4.65625,19.984375 C4.34375,20.0625 3.890625,20.046875 3.59375,20.046875 L3.453125,19.734375 C3.640625,19.625 3.9375,19.515625 4.109375,19.390625 C4.25,19.3125 4.375,19.203125 4.34375,19.078125 C4.3125,18.53125 3.625,17.359375 3.21875,16.6875 C2.734375,15.9375 2.109375,15.03125 0.953125,13.890625 L1.296875,13.5625 C2.421875,14.28125 3.265625,15.078125 4.03125,16.125 C4.265625,15.90625 4.515625,15.71875 4.703125,15.71875 C4.921875,15.71875 5.296875,15.8125 5.609375,15.84375 L6.453125,15.90625 C6.703125,15.796875 6.796875,15.640625 6.796875,15.453125 C6.796875,14.953125 6.3125,13.65625 5.828125,12.84375 C5.15625,11.65625 4.421875,10.6875 2.96875,9.578125 Z M2.546875,7.25 L2.25,7.15625 C2.203125,6.9375 2.15625,6.53125 2.234375,6.3125 C2.359375,5.90625 3.078125,5.203125 3.4375,5.203125 C3.796875,5.203125 3.890625,5.421875 4.296875,5.515625 C5.046875,5.65625 6.71875,5.921875 7.734375,6.03125 C7.875,6.046875 7.890625,6 7.875,5.921875 C7.515625,5.234375 6.71875,4.015625 5.765625,2.859375 C4.5625,1.4375 2.90625,0.265625 0.90625,-0.765625 L1.15625,-1.21875 C3.84375,-0.34375 5.5,1.015625 6.703125,2.375 C7.703125,1.734375 8.421875,1.078125 9.265625,0.09375 C9.890625,-0.640625 10.203125,-1.171875 10.578125,-1.171875 C10.96875,-1.171875 11.15625,-0.90625 11.15625,-0.625 C11.15625,0.625 9.09375,2.015625 7.109375,2.828125 C7.84375,3.71875 8.40625,4.53125 9.03125,5.546875 C9.171875,5.78125 9.640625,5.859375 9.640625,6.171875 C9.640625,6.546875 8.640625,7.296875 8.28125,7.296875 C8.015625,7.296875 7.796875,6.953125 7.5625,6.90625 C6.8125,6.765625 4.265625,6.453125 3.359375,6.453125 C3.09375,6.453125 2.734375,6.953125 2.546875,7.25 Z" transform="translate(0.234375, 20.0625) scale(1, -1)"/>
</svg>