<svg height="22.53125" viewBox="0 0 24 22.53125" width="24" xmlns="http://www.w3.org/2000/svg">
<path d="M10.390625,18.078125 C10.6875,17.734375 10.9375,17.375 11.1875,17.375 C11.421875,17.375 11.59375,17.5625 11.59375,17.859375 C11.59375,18.125 11.40625,18.53125 10.984375,18.859375 C10.625,19.125 10.078125,19.421875 9.40625,19.578125 L9.1875,19.265625 C9.765625,18.8125 10.078125,18.4375 10.390625,18.078125 Z M11.5625,19.265625 C11.90625,18.9375 12.125,18.578125 12.40625,18.59375 C12.640625,18.59375 12.796875,18.8125 12.796875,19.078125 C12.796875,19.390625 12.53125,19.78125 12.09375,20.09375 C11.734375,20.296875 11.234375,20.515625 10.53125,20.6875 L10.296875,20.359375 C10.9375,19.890625 11.25,19.609375 11.5625,19.265625 Z M20.90625,6.71875 C21.171875,6.390625 21.40625,6.03125 21.671875,6.03125 C21.90625,6.03125 22.078125,6.234375 22.078125,6.5 C22.078125,6.765625 21.859375,7.171875 21.453125,7.484375 C21.140625,7.734375 20.59375,7.984375 19.9375,8.1875 L19.734375,7.890625 C20.296875,7.421875 20.609375,7.078125 20.90625,6.71875 Z M22.015625,7.84375 C22.3125,7.515625 22.53125,7.171875 22.828125,7.203125 C23.046875,7.203125 23.1875,7.390625 23.1875,7.65625 C23.1875,7.96875 22.9375,8.328125 22.515625,8.640625 C22.15625,8.859375 21.671875,9.046875 21,9.21875 L20.765625,8.90625 C21.390625,8.453125 21.703125,8.1875 22.015625,7.84375 Z M1.171875,13.375 L0.8125,13.203125 C0.859375,12.765625 0.90625,12.4375 1.0625,12.234375 C1.265625,11.921875 1.921875,11.453125 2.328125,11.453125 C2.640625,11.453125 2.859375,11.6875 3.1875,11.8125 C3.953125,12.09375 5.09375,12.390625 6.03125,12.640625 L6.34375,11.046875 C6.453125,10.25 6.53125,9.359375 6.59375,9.125 C6.703125,8.65625 7.109375,8.296875 7.421875,8.296875 C7.875,8.296875 7.96875,8.71875 7.96875,8.90625 C7.96875,9.265625 7.796875,9.640625 7.6875,10.125 L7.0625,12.859375 L9.140625,13.3125 C9.796875,13.46875 10.515625,13.578125 10.828125,13.609375 C11.28125,13.625 11.40625,13.84375 11.40625,14.140625 C11.40625,14.546875 10.96875,14.734375 10.265625,14.734375 C10.171875,14.734375 9.90625,14.65625 9.4375,14.5 C9.03125,14.359375 7.875,14.046875 6.859375,13.78125 L6.4375,15.859375 C7.3125,16.078125 8.640625,16.421875 9.484375,16.5625 C9.9375,16.625 10.171875,16.78125 10.15625,17.09375 C10.125,17.546875 9.625,17.65625 9.140625,17.65625 C8.96875,17.65625 8.71875,17.5 7.84375,17.234375 L6.234375,16.796875 L6.03125,18.03125 C6,18.4375 6.234375,18.53125 6.234375,18.8125 C6.234375,19.125 5.375,19.515625 4.53125,19.515625 C4.25,19.515625 3.75,19.265625 3.453125,19.109375 L3.546875,18.703125 C3.9375,18.671875 4.578125,18.59375 4.703125,18.40625 C4.84375,18.171875 5.046875,17.359375 5.203125,16.53125 C4.078125,16.296875 2.5625,15.953125 2.234375,15.953125 C1.96875,15.953125 1.625,16.34375 1.390625,16.5625 L1.0625,16.390625 C1.125,16.109375 1.15625,15.75 1.25,15.546875 C1.484375,15.21875 2.109375,14.734375 2.453125,14.734375 C2.6875,14.734375 2.921875,14.953125 3.28125,15.046875 C3.859375,15.265625 4.6875,15.453125 5.421875,15.625 L5.859375,13.53125 C4.5625,13.21875 2.515625,12.71875 2.046875,12.71875 C1.703125,12.71875 1.515625,13.015625 1.171875,13.375 Z M16.0625,0.671875 L15.796875,0.265625 C16.375,-0.078125 16.796875,-0.3125 17.046875,-0.625 C17.203125,-0.796875 17.234375,-0.890625 17.296875,-1.125 C17.40625,-1.390625 17.546875,-1.53125 17.859375,-1.53125 C18.359375,-1.53125 18.859375,-1.0625 19.171875,-0.4375 C19.96875,1.03125 20.234375,2.609375 20.609375,4.46875 C20.6875,4.796875 21.046875,4.828125 21.046875,5.109375 C21.046875,5.453125 20.109375,6.125 19.828125,6.125 C19.578125,6.125 19.4375,5.8125 19.125,5.765625 C18.71875,5.6875 17.78125,5.59375 16.734375,5.5 L17.0625,6.984375 C17.1875,7.390625 17.421875,7.53125 17.421875,7.78125 C17.421875,8.140625 16.421875,8.5625 15.90625,8.5625 C15.625,8.5625 15,8.25 14.78125,8.1875 L14.859375,7.828125 C15.140625,7.796875 15.34375,7.796875 15.578125,7.75 C15.703125,7.734375 15.90625,7.703125 15.90625,7.46875 C15.90625,7.109375 15.71875,6.171875 15.546875,5.421875 C14.296875,5.328125 13.15625,5.25 12.8125,5.28125 C12.484375,5.296875 12.234375,5.828125 12.09375,6.09375 L11.734375,5.96875 C11.6875,5.734375 11.640625,5.328125 11.71875,5.046875 C11.8125,4.734375 12.390625,4.015625 12.75,4.015625 C13.015625,4.015625 13.125,4.203125 13.484375,4.296875 C13.84375,4.390625 14.6875,4.46875 15.34375,4.53125 C14.859375,3.046875 13.75,0.4375 11.234375,-1.421875 L11.546875,-1.84375 C15.03125,0 16.109375,3.3125 16.484375,4.65625 C17.5,4.78125 18.8125,4.890625 19.34375,4.890625 C19.4375,4.890625 19.46875,4.84375 19.46875,4.78125 C19.4375,4.0625 19.015625,1.21875 18.234375,0.1875 C18.140625,0.03125 17.96875,0 17.78125,0.046875 C17.328125,0.140625 16.609375,0.453125 16.0625,0.671875 Z" transform="translate(0, 20.6875) scale(1, -1)"/>
</svg>