<svg height="20.875" viewBox="0 0 24 20.875" width="24" xmlns="http://www.w3.org/2000/svg">
<path d="M1.6875,13.984375 L1.3125,13.796875 C1.375,13.390625 1.421875,13.0625 1.5625,12.859375 C1.78125,12.59375 2.40625,12.09375 2.78125,12.09375 C3.09375,12.09375 3.3125,12.34375 3.671875,12.453125 C4.390625,12.75 5.5,13.015625 6.4375,13.25 L6.703125,11.71875 C6.84375,10.9375 6.90625,10.078125 6.953125,9.84375 C7.0625,9.390625 7.46875,9.046875 7.78125,9.046875 C8.203125,9.046875 8.296875,9.40625 8.296875,9.625 C8.296875,9.953125 8.15625,10.375 8.046875,10.828125 L7.421875,13.484375 L9.453125,13.9375 C10.078125,14.0625 10.796875,14.1875 11.09375,14.203125 C11.546875,14.234375 11.640625,14.453125 11.640625,14.734375 C11.640625,15.125 11.234375,15.3125 10.5625,15.3125 C10.46875,15.3125 10.171875,15.21875 9.75,15.078125 L7.21875,14.40625 L6.796875,16.421875 C7.6875,16.625 8.953125,16.9375 9.765625,17.0625 C10.21875,17.15625 10.46875,17.28125 10.4375,17.609375 C10.421875,18.046875 9.90625,18.171875 9.4375,18.171875 C9.28125,18.171875 9.03125,18 8.1875,17.765625 L6.625,17.296875 C6.53125,17.78125 6.453125,18.125 6.4375,18.5 C6.390625,18.9375 6.59375,19.015625 6.59375,19.265625 C6.59375,19.609375 5.78125,19.9375 4.96875,19.9375 C4.65625,19.9375 4.171875,19.734375 3.890625,19.578125 L3.984375,19.15625 C4.375,19.125 4.984375,19.109375 5.109375,18.890625 C5.28125,18.671875 5.453125,17.859375 5.609375,17.0625 C4.515625,16.828125 3.046875,16.515625 2.71875,16.515625 C2.46875,16.515625 2.140625,16.875 1.890625,17.09375 L1.578125,16.921875 C1.625,16.65625 1.65625,16.265625 1.78125,16.109375 C1.96875,15.796875 2.59375,15.3125 2.921875,15.3125 C3.171875,15.3125 3.390625,15.5 3.75,15.625 C4.3125,15.8125 5.09375,16.015625 5.828125,16.171875 L6.234375,14.140625 C4.96875,13.828125 3,13.375 2.515625,13.375 C2.234375,13.375 1.984375,13.625 1.6875,13.984375 Z M12.3125,7.109375 L12.28125,6.71875 C12.765625,6.453125 13.125,6.21875 13.203125,5.78125 C13.34375,4.890625 13.4375,2.953125 13.515625,1.828125 C13.53125,1.21875 13.46875,0.5 13.46875,0.125 C13.46875,-0.40625 13.734375,-0.9375 14.1875,-0.9375 C14.5,-0.9375 14.65625,-0.640625 14.65625,-0.453125 L14.640625,0.03125 C16.0625,0.125 18.625,0.171875 18.953125,0.171875 C19.46875,0.171875 20.59375,0.125 20.96875,0.125 C21.265625,0.125 21.390625,0.3125 21.390625,0.625 C21.390625,0.890625 21.09375,1.078125 20.71875,1.15625 C20.90625,2.640625 21.140625,4.875 21.3125,5.46875 C21.40625,5.8125 21.765625,5.953125 21.765625,6.21875 C21.765625,6.53125 20.734375,7.265625 20.296875,7.265625 C20.09375,7.265625 19.96875,7.03125 19.578125,6.953125 C19.078125,6.90625 15.8125,6.703125 14.328125,6.640625 C14.0625,6.859375 13.484375,7.21875 13.25,7.25 C12.953125,7.265625 12.546875,7.171875 12.3125,7.109375 Z M14.453125,5.90625 C14.65625,5.78125 14.875,5.71875 15.03125,5.71875 C15.265625,5.71875 15.546875,5.765625 15.953125,5.8125 C17.375,5.953125 19.4375,6.078125 19.96875,6.078125 C20.046875,6.078125 20.046875,6.03125 20.046875,6 C20.046875,5.421875 19.796875,2.640625 19.578125,1.15625 L14.609375,0.9375 Z" transform="translate(0.4609375, 19.9375) scale(1, -1)"/>
</svg>