<svg height="23.125" viewBox="0 0 24 23.125" width="24" xmlns="http://www.w3.org/2000/svg">
<path d="M14.65625,6.765625 C14.875,6.8125 15.03125,6.953125 15.03125,7.25 C15.03125,7.625 14.59375,7.84375 14.140625,7.84375 C14.046875,7.84375 13.796875,7.703125 13.390625,7.609375 C13.015625,7.484375 12.1875,7.3125 11.609375,7.3125 C11.296875,7.3125 11.015625,7.46875 10.609375,7.84375 L10.296875,7.609375 C10.484375,7.15625 10.6875,6.8125 10.84375,6.640625 C11.046875,6.40625 11.328125,6.3125 11.59375,6.3125 C11.921875,6.3125 12.796875,6.484375 13.578125,6.59375 C13.984375,6.671875 14.46875,6.75 14.65625,6.765625 Z M9.671875,5.28125 L9.34375,5.15625 C9.34375,4.84375 9.3125,4.46875 9.359375,4.296875 C9.53125,3.796875 10.03125,3.265625 10.296875,3.265625 C10.484375,3.265625 10.75,3.484375 11.015625,3.53125 C11.65625,3.671875 13.703125,3.9375 14.515625,3.984375 C14.5625,3.984375 14.609375,3.953125 14.59375,3.859375 C14.28125,2.734375 13.828125,1.625 13.015625,0.59375 C12.234375,-0.40625 11.140625,-1.3125 10.03125,-1.96875 L10.296875,-2.40625 C11.734375,-1.875 12.9375,-1.015625 13.75,-0.046875 C14.765625,1.171875 15.171875,2.375 15.640625,3.40625 C15.765625,3.671875 16.109375,3.75 16.109375,4.03125 C16.109375,4.46875 15.1875,5.140625 14.921875,5.140625 C14.71875,5.140625 14.609375,4.921875 14.359375,4.875 C13.78125,4.78125 10.9375,4.515625 10.390625,4.515625 C10.125,4.515625 9.890625,4.890625 9.671875,5.28125 Z M8.046875,5.96875 C8.234375,5.96875 8.40625,6.171875 8.40625,6.40625 C8.40625,6.671875 8.28125,7.0625 7.9375,7.34375 C7.703125,7.578125 7.296875,7.828125 6.8125,7.984375 L6.578125,7.734375 C6.984375,7.265625 7.21875,6.953125 7.4375,6.640625 C7.625,6.3125 7.828125,5.96875 8.046875,5.96875 Z M9.125,6.84375 C9.28125,6.84375 9.484375,7.03125 9.484375,7.265625 C9.484375,7.578125 9.28125,7.9375 8.96875,8.203125 C8.734375,8.421875 8.359375,8.609375 7.84375,8.765625 L7.625,8.46875 C8.0625,8.046875 8.28125,7.796875 8.515625,7.46875 C8.734375,7.15625 8.90625,6.8125 9.125,6.84375 Z M16.3125,0.546875 L15.953125,0.484375 C15.953125,0.3125 15.9375,-0.125 15.953125,-0.390625 C15.953125,-0.796875 16.828125,-1.65625 17.09375,-1.65625 C17.296875,-1.65625 17.546875,-1.3125 17.734375,-1.265625 C18.546875,-1.015625 20.875,-0.5 22.203125,-0.1875 C22.296875,-0.5 22.421875,-0.859375 22.46875,-1.203125 C22.5625,-1.625 22.78125,-1.921875 23.09375,-1.921875 C23.421875,-1.921875 23.640625,-1.609375 23.640625,-1.203125 C23.640625,-0.53125 23.28125,0.34375 22.875,1.03125 C22.390625,1.828125 21.671875,2.609375 20.953125,3.140625 L20.609375,2.90625 C21.140625,2.203125 21.703125,1.34375 21.984375,0.484375 L18.453125,-0.046875 C19.015625,1.4375 20.140625,4.53125 20.546875,5.78125 C20.65625,6.046875 20.921875,6.046875 20.921875,6.34375 C20.921875,6.8125 19.828125,7.390625 19.4375,7.390625 C19.203125,7.390625 18.90625,7.296875 18.71875,7.21875 L18.71875,6.84375 C18.953125,6.765625 19.46875,6.59375 19.46875,6.390625 C19.46875,5.859375 18.1875,1.53125 17.5625,-0.171875 L16.921875,-0.234375 C16.734375,-0.234375 16.484375,0.21875 16.3125,0.546875 Z M0.453125,1.96875 L0.796875,1.65625 C1.828125,2.421875 2.765625,3.546875 3.21875,4.265625 L3.765625,5.203125 C3.90625,5.046875 4.109375,4.921875 4.203125,4.921875 C4.296875,4.921875 4.46875,4.9375 4.703125,4.984375 C5.09375,5.0625 5.828125,5.15625 6.09375,5.15625 C6.1875,5.15625 6.21875,5.140625 6.1875,5.015625 C5.96875,4.296875 5.421875,2.859375 4.6875,1.609375 C3.765625,0.125 2.734375,-0.9375 1.171875,-2.0625 L1.46875,-2.46875 C3.390625,-1.609375 4.78125,-0.078125 5.546875,1.125 C6.40625,2.421875 6.890625,3.71875 7.265625,4.703125 C7.375,4.9375 7.703125,5.015625 7.703125,5.28125 C7.703125,5.640625 6.796875,6.3125 6.546875,6.3125 C6.40625,6.3125 6.28125,6.03125 6.046875,5.96875 C5.734375,5.90625 4.4375,5.828125 4.203125,5.828125 L4.109375,5.828125 L4.46875,6.625 C4.609375,6.953125 4.828125,6.953125 4.828125,7.21875 C4.828125,7.53125 3.984375,8.0625 3.546875,8.0625 C3.390625,8.0625 2.921875,7.984375 2.78125,7.9375 L2.78125,7.609375 C3.125,7.515625 3.4375,7.375 3.4375,7.21875 C3.4375,6.765625 2.953125,5.609375 2.46875,4.78125 C1.984375,3.9375 1.203125,2.8125 0.453125,1.96875 Z M1.703125,14.90625 L1.375,14.734375 C1.421875,14.359375 1.46875,14.046875 1.609375,13.84375 C1.828125,13.5625 2.40625,13.109375 2.78125,13.109375 C3.078125,13.109375 3.28125,13.3125 3.59375,13.4375 C4.3125,13.703125 5.375,13.96875 6.265625,14.203125 L6.546875,12.71875 C6.671875,11.96875 6.75,11.15625 6.796875,10.921875 C6.890625,10.484375 7.265625,10.15625 7.5625,10.15625 C7.984375,10.15625 8.09375,10.515625 8.09375,10.703125 C8.09375,11.046875 7.9375,11.421875 7.828125,11.875 L7.25,14.421875 L9.1875,14.859375 C9.796875,14.96875 10.484375,15.125 10.78125,15.125 C11.203125,15.171875 11.296875,15.34375 11.296875,15.625 C11.296875,16.015625 10.921875,16.171875 10.25,16.171875 C10.15625,16.171875 9.890625,16.109375 9.484375,15.984375 C9.078125,15.84375 7.984375,15.546875 7.0625,15.28125 L6.640625,17.234375 C7.484375,17.453125 8.6875,17.765625 9.484375,17.875 C9.9375,17.96875 10.15625,18.09375 10.15625,18.40625 C10.125,18.8125 9.640625,18.9375 9.1875,18.9375 C9.046875,18.9375 8.78125,18.765625 7.984375,18.53125 L6.453125,18.125 C6.390625,18.578125 6.3125,18.90625 6.28125,19.265625 C6.234375,19.65625 6.453125,19.75 6.453125,20.015625 C6.453125,20.296875 5.65625,20.65625 4.875,20.65625 C4.578125,20.65625 4.125,20.453125 3.84375,20.28125 L3.9375,19.890625 C4.296875,19.875 4.890625,19.828125 5.015625,19.625 C5.15625,19.421875 5.359375,18.640625 5.5,17.90625 C4.4375,17.65625 3.03125,17.359375 2.71875,17.359375 C2.46875,17.359375 2.140625,17.71875 1.921875,17.90625 L1.609375,17.734375 C1.65625,17.46875 1.6875,17.140625 1.796875,16.96875 C1.984375,16.625 2.59375,16.203125 2.90625,16.203125 C3.140625,16.203125 3.359375,16.390625 3.703125,16.484375 C4.25,16.6875 4.984375,16.875 5.6875,17.015625 L6.09375,15.046875 C4.890625,14.765625 2.96875,14.296875 2.515625,14.296875 C2.234375,14.296875 2.015625,14.5625 1.703125,14.90625 Z M13.03125,18.640625 L12.984375,18.28125 C13.46875,18 13.828125,17.78125 13.890625,17.375 C14.046875,16.515625 14.140625,14.640625 14.1875,13.5625 C14.203125,12.984375 14.15625,12.28125 14.15625,11.921875 C14.15625,11.40625 14.375,10.921875 14.828125,10.921875 C15.140625,10.921875 15.28125,11.15625 15.28125,11.375 L15.265625,11.828125 C16.609375,11.921875 19.078125,11.96875 19.421875,11.96875 C19.921875,11.96875 21,11.90625 21.390625,11.90625 C21.640625,11.90625 21.75,12.09375 21.75,12.40625 C21.75,12.671875 21.484375,12.859375 21.09375,12.9375 C21.28125,14.359375 21.53125,16.484375 21.703125,17.09375 C21.765625,17.40625 22.15625,17.515625 22.15625,17.78125 C22.15625,18.09375 21.140625,18.8125 20.734375,18.8125 C20.5,18.8125 20.40625,18.546875 20.046875,18.5 C19.5625,18.453125 16.390625,18.265625 14.96875,18.21875 C14.71875,18.4375 14.1875,18.765625 13.921875,18.796875 C13.65625,18.796875 13.25,18.703125 13.03125,18.640625 Z M15.078125,17.5 C15.28125,17.375 15.5,17.296875 15.640625,17.296875 C15.859375,17.296875 16.15625,17.359375 16.5625,17.40625 C17.90625,17.515625 19.890625,17.640625 20.40625,17.640625 C20.46875,17.640625 20.46875,17.609375 20.46875,17.5625 C20.46875,17.046875 20.234375,14.375 20.046875,12.9375 L15.234375,12.71875 Z" transform="translate(-0.046875, 20.65625) scale(1, -1)"/>
</svg>