<svg height="22.21875" viewBox="0 0 24 22.21875" width="24" xmlns="http://www.w3.org/2000/svg">
<path d="M17.6875,7.03125 L17.734375,6.671875 C18.234375,6.59375 18.59375,6.578125 18.625,6.234375 C18.703125,4.921875 18.59375,1.703125 18.59375,0.59375 C18.59375,0.09375 18.359375,0.03125 18.359375,-0.21875 C18.359375,-0.453125 18.890625,-1.21875 19.203125,-1.21875 C19.390625,-1.21875 19.53125,-0.84375 19.796875,-0.671875 C20.71875,-0.046875 21.171875,0.3125 21.8125,0.984375 C22.5625,1.734375 23.25,2.734375 23.609375,3.484375 L23.25,3.765625 C22.75,3.078125 22.03125,2.28125 21.453125,1.78125 C21,1.390625 20.421875,0.953125 19.65625,0.59375 C19.625,0.625 19.5625,0.640625 19.578125,0.71875 C19.578125,1.734375 19.625,5.203125 19.6875,5.78125 C19.703125,6.171875 19.96875,6.140625 19.96875,6.484375 C19.96875,6.8125 19.109375,7.34375 18.546875,7.34375 C18.34375,7.34375 17.90625,7.15625 17.6875,7.03125 Z M15.53125,5.640625 L15.53125,5.234375 C15.796875,5.15625 16.390625,4.984375 16.390625,4.703125 C16.390625,4.078125 16.21875,2.46875 15.625,1.25 C15.171875,0.265625 14.640625,-0.484375 13.96875,-1.171875 L14.25,-1.515625 C15.09375,-1.03125 15.859375,-0.234375 16.421875,0.8125 C16.96875,1.921875 17.15625,2.953125 17.375,4.0625 C17.453125,4.390625 17.65625,4.421875 17.65625,4.65625 C17.65625,5.109375 16.828125,5.828125 16.390625,5.828125 C16.125,5.828125 15.703125,5.734375 15.53125,5.640625 Z M1.65625,4.4375 L1.375,4.3125 C1.375,4.109375 1.390625,3.765625 1.421875,3.546875 C1.515625,3 2.15625,2.515625 2.40625,2.515625 C2.5625,2.515625 2.65625,2.609375 2.875,2.6875 C3.171875,2.78125 3.59375,2.8125 4.03125,2.859375 C4.5625,2.90625 4.984375,2.875 5.71875,2.875 C6.34375,2.875 6.703125,2.78125 6.953125,2.78125 C7.25,2.78125 7.375,3 7.375,3.28125 C7.375,3.71875 6.546875,4.109375 6.1875,4.109375 C6,4.109375 5.953125,3.953125 5.40625,3.890625 C5.015625,3.84375 3.171875,3.796875 2.421875,3.796875 C2.15625,3.796875 1.890625,4.03125 1.65625,4.4375 Z M8.375,7.875 L8.40625,7.46875 C9.140625,7.375 9.28125,7.34375 9.34375,7.015625 C9.40625,6.359375 9.40625,4.921875 9.40625,3.859375 C9.40625,2.875 9.390625,0.953125 9.3125,0.03125 C9.265625,-0.59375 9.171875,-1.015625 9.171875,-1.375 C9.171875,-1.921875 9.484375,-2.375 9.859375,-2.375 C10.296875,-2.375 10.421875,-2.046875 10.421875,-1.65625 C10.421875,-1.078125 10.34375,2.359375 10.375,3.671875 C11.015625,3.390625 11.5,3.125 12.03125,2.640625 C12.59375,2.0625 12.8125,1.609375 13.171875,1.609375 C13.46875,1.609375 13.6875,1.796875 13.6875,2.1875 C13.6875,2.640625 13.25,3.046875 12.859375,3.3125 C12.21875,3.8125 11.359375,4.109375 10.375,4.3125 C10.375,5.015625 10.421875,5.859375 10.46875,6.4375 C10.515625,6.859375 10.796875,6.859375 10.796875,7.171875 C10.796875,7.5625 9.8125,8.109375 9.359375,8.109375 C9,8.109375 8.65625,7.984375 8.375,7.875 Z M8.640625,18.546875 L8.59375,18.171875 C9.078125,17.875 9.28125,17.640625 9.359375,17.203125 C9.484375,16.3125 9.578125,13.875 9.578125,12.75 C9.578125,12.1875 9.578125,11.5 9.578125,11.140625 C9.578125,10.578125 9.796875,10.078125 10.25,10.078125 C10.5625,10.078125 10.6875,10.34375 10.6875,10.5625 L10.65625,11.15625 C11.6875,11.25 12.890625,11.296875 13.15625,11.296875 C13.6875,11.296875 14.421875,11.25 14.765625,11.25 C15.046875,11.25 15.171875,11.453125 15.171875,11.734375 C15.171875,12.03125 14.90625,12.171875 14.515625,12.21875 C14.65625,13.703125 14.90625,16.3125 15.03125,16.96875 C15.125,17.28125 15.390625,17.375 15.390625,17.609375 C15.390625,17.90625 14.546875,18.640625 14.203125,18.640625 C13.984375,18.640625 13.875,18.390625 13.53125,18.34375 C13.125,18.265625 11.546875,18.078125 10.46875,18.03125 C10.25,18.234375 9.640625,18.640625 9.390625,18.640625 C9.140625,18.671875 8.828125,18.59375 8.640625,18.546875 Z M10.484375,17.25 C10.609375,17.1875 10.734375,17.140625 10.828125,17.140625 C11.046875,17.109375 11.25,17.1875 11.640625,17.234375 C12.984375,17.40625 13.6875,17.46875 13.828125,17.46875 C13.875,17.46875 13.890625,17.421875 13.890625,17.375 C13.890625,16.828125 13.65625,13.6875 13.53125,12.21875 L10.609375,12 Z M1.125,14.203125 L0.84375,14.0625 C0.859375,13.65625 0.890625,13.375 0.984375,13.171875 C1.125,12.890625 1.609375,12.453125 1.875,12.453125 C2.0625,12.4375 2.25,12.625 2.5,12.75 C2.953125,12.953125 3.59375,13.15625 4.203125,13.3125 L4.390625,11.921875 C4.46875,11.1875 4.515625,10.375 4.53125,10.109375 C4.609375,9.671875 4.875,9.359375 5.234375,9.359375 C5.5625,9.359375 5.734375,9.625 5.734375,9.890625 C5.734375,10.25 5.609375,10.609375 5.546875,11.09375 L5.140625,13.609375 L6.40625,13.96875 C6.84375,14.0625 7.3125,14.15625 7.53125,14.1875 C7.84375,14.203125 8.046875,14.375 8.046875,14.65625 C8.046875,15.046875 7.625,15.21875 7.171875,15.234375 C7.125,15.234375 6.90625,15.171875 6.625,15.046875 L5.015625,14.5 L4.734375,16.421875 L6.53125,16.875 C6.84375,16.9375 7.109375,17.0625 7.109375,17.375 C7.109375,17.8125 6.578125,17.921875 6.234375,17.921875 C6.140625,17.921875 6.03125,17.8125 5.46875,17.59375 L4.609375,17.296875 L4.46875,18.546875 C4.4375,18.953125 4.609375,19.03125 4.609375,19.21875 C4.609375,19.515625 3.8125,19.84375 3.34375,19.84375 C3.140625,19.84375 2.71875,19.625 2.46875,19.484375 L2.546875,19.109375 C2.8125,19.078125 3.21875,19.0625 3.3125,18.90625 C3.40625,18.671875 3.546875,17.8125 3.671875,17.046875 C2.96875,16.875 2.203125,16.703125 2.015625,16.703125 C1.828125,16.703125 1.53125,17.046875 1.390625,17.25 L1.078125,17.109375 C1.109375,16.84375 1.15625,16.484375 1.25,16.3125 C1.375,16.015625 1.84375,15.546875 2.09375,15.53125 C2.234375,15.53125 2.421875,15.71875 2.6875,15.8125 L3.8125,16.171875 L4.078125,14.1875 C3.21875,13.9375 2.0625,13.625 1.78125,13.65625 C1.5625,13.65625 1.34375,13.875 1.125,14.203125 Z M17.375,17.046875 L17.140625,16.625 C18,16.03125 18.84375,15.359375 19.484375,14.734375 C18.4375,12.8125 17.15625,11.46875 15.765625,10.21875 L16.078125,9.8125 C17.65625,10.625 19.109375,12.171875 20.203125,13.984375 C20.734375,13.390625 21.09375,12.859375 21.3125,12.5 C21.53125,12.171875 21.71875,11.875 21.9375,11.875 C22.265625,11.875 22.484375,12.125 22.484375,12.53125 C22.484375,12.9375 22.25,13.296875 22.0625,13.578125 C21.796875,13.96875 21.265625,14.515625 20.78125,14.96875 C21.328125,16.0625 21.765625,17.109375 22.03125,17.78125 C22.125,18.046875 22.46875,18.03125 22.46875,18.34375 C22.46875,18.75 21.453125,19.46875 21.03125,19.484375 C20.859375,19.515625 20.40625,19.46875 20.203125,19.421875 L20.203125,19.015625 C20.59375,18.890625 20.90625,18.703125 20.90625,18.5 C20.90625,18.078125 20.453125,16.75 19.9375,15.640625 C19.296875,16.15625 18.359375,16.65625 17.375,17.046875 Z" transform="translate(-0.2265625, 19.84375) scale(1, -1)"/>
</svg>