<svg height="22.203125" viewBox="0 0 24 22.203125" width="24" xmlns="http://www.w3.org/2000/svg">
<path d="M3.5,18 L3.484375,17.65625 C3.71875,17.515625 4.265625,17.25 4.265625,17.0625 C4.265625,16.625 3.59375,15.265625 3.125,14.515625 C2.546875,13.625 1.890625,12.75 0.75,11.71875 L1.0625,11.359375 C2.421875,12.140625 3.4375,13.3125 3.984375,13.984375 C4.6875,14.953125 4.984375,15.59375 5.328125,16.15625 C5.453125,16.421875 5.875,16.4375 5.875,16.75 C5.875,17.296875 4.84375,18.046875 4.25,18.046875 C3.984375,18.078125 3.671875,18.03125 3.5,18 Z M11.09375,12.03125 C11.5,12.03125 11.71875,12.390625 11.71875,12.859375 C11.6875,13.796875 10.9375,15.3125 9.765625,16.53125 C9.28125,17.015625 8.6875,17.5625 7.6875,18.125 L7.390625,17.765625 C8.109375,17.15625 8.609375,16.515625 9.078125,15.765625 C9.640625,14.828125 10.15625,13.78125 10.34375,12.9375 C10.515625,12.359375 10.6875,12.03125 11.09375,12.03125 Z M5.359375,7.734375 L4.984375,7.46875 C5.25,7.203125 5.5625,6.71875 5.859375,6.125 C6.234375,5.359375 6.21875,4.6875 6.75,4.6875 C7.109375,4.6875 7.3125,4.9375 7.3125,5.296875 C7.3125,5.6875 7.109375,6.234375 6.671875,6.703125 C6.40625,6.984375 5.953125,7.421875 5.359375,7.734375 Z M3.453125,-1.296875 L3.703125,-1.75 C6.171875,-0.859375 7.609375,0.359375 8.78125,1.796875 C9.859375,3.140625 10.484375,4.4375 11.0625,5.65625 C11.234375,6.046875 11.640625,6.078125 11.640625,6.4375 C11.640625,6.859375 10.703125,7.578125 10.171875,7.6875 C9.90625,7.78125 9.484375,7.78125 9.21875,7.734375 L9.09375,7.390625 C9.59375,7.15625 10.0625,6.90625 10.0625,6.703125 C10.0625,6.265625 9.234375,4.203125 7.96875,2.546875 C6.890625,1.15625 5.46875,-0.171875 3.453125,-1.296875 Z M2.375,6.75 L2.0625,6.484375 C2.296875,6.171875 2.65625,5.640625 2.921875,5.046875 C3.234375,4.421875 3.453125,3.578125 3.890625,3.578125 C4.21875,3.578125 4.4375,3.796875 4.4375,4.171875 C4.4375,4.734375 4.15625,5.359375 3.578125,5.859375 C3.28125,6.171875 2.828125,6.53125 2.375,6.75 Z M19.9375,20.421875 L19.828125,20.09375 C20.09375,19.9375 20.46875,19.75 20.46875,19.5625 C20.46875,19.421875 20.40625,19.265625 20.234375,19.03125 C19.96875,18.640625 19.21875,17.71875 18.453125,16.9375 C17.5,16.03125 15.765625,14.609375 13.609375,13.375 L13.921875,12.953125 C16.125,13.75 18.03125,15.1875 18.9375,16.015625 C18.953125,15.90625 18.984375,15.796875 18.984375,15.625 C18.984375,14.859375 18.953125,12.84375 18.859375,11.921875 C18.84375,11.5 18.71875,11.1875 18.71875,10.96875 C18.71875,10.625 18.84375,10.3125 18.9375,10.15625 C19.03125,10.015625 19.15625,9.796875 19.484375,9.796875 C19.84375,9.796875 19.96875,10.078125 19.96875,10.421875 C19.96875,10.75 19.9375,11.28125 19.921875,11.765625 C19.890625,12.75 19.984375,15.140625 20.015625,15.53125 C20.046875,15.8125 20.140625,16.015625 20.140625,16.15625 C20.140625,16.296875 20.0625,16.390625 19.796875,16.578125 L19.625,16.6875 C20.296875,17.359375 21.125,18.265625 21.453125,18.671875 C21.71875,18.953125 22.171875,18.859375 22.171875,19.203125 C22.171875,19.609375 21.546875,20.140625 20.96875,20.359375 C20.65625,20.453125 20.140625,20.453125 19.9375,20.421875 Z" transform="translate(0.5390625, 20.453125) scale(1, -1)"/>
</svg>