<svg height="22.40625" viewBox="0 0 24 22.40625" width="24" xmlns="http://www.w3.org/2000/svg">
<path d="M8.953125,18.84375 C8.953125,18 9.640625,17.296875 10.515625,17.296875 C11.328125,17.296875 12.046875,18 12.046875,18.84375 C12.046875,19.6875 11.328125,20.359375 10.515625,20.359375 C9.640625,20.359375 8.953125,19.6875 8.953125,18.84375 Z M9.546875,18.84375 C9.546875,19.34375 9.984375,19.78125 10.515625,19.78125 C10.984375,19.78125 11.421875,19.34375 11.421875,18.84375 C11.421875,18.34375 10.984375,17.90625 10.515625,17.90625 C9.984375,17.90625 9.546875,18.34375 9.546875,18.84375 Z M3.34375,17.71875 L3.34375,17.375 C3.546875,17.234375 4.109375,16.984375 4.109375,16.796875 C4.109375,16.375 3.4375,15.03125 2.96875,14.28125 C2.40625,13.421875 1.78125,12.53125 0.625,11.515625 L0.9375,11.15625 C2.28125,11.921875 3.28125,13.109375 3.8125,13.78125 C4.515625,14.71875 4.828125,15.359375 5.140625,15.890625 C5.25,16.15625 5.6875,16.171875 5.6875,16.484375 C5.6875,17.046875 4.6875,17.765625 4.078125,17.78125 C3.8125,17.78125 3.5,17.734375 3.34375,17.71875 Z M10.828125,11.8125 C11.234375,11.8125 11.453125,12.171875 11.453125,12.640625 C11.421875,13.5625 10.6875,15.046875 9.546875,16.265625 C9.078125,16.75 8.46875,17.296875 7.46875,17.828125 L7.171875,17.5 C7.875,16.890625 8.40625,16.25 8.828125,15.53125 C9.40625,14.59375 9.890625,13.5625 10.109375,12.71875 C10.265625,12.171875 10.4375,11.8125 10.828125,11.8125 Z M13.703125,16.203125 L13.390625,16.078125 C13.390625,15.84375 13.390625,15.453125 13.4375,15.234375 C13.609375,14.71875 14.375,14.109375 14.734375,14.109375 C14.96875,14.109375 15.140625,14.25 15.453125,14.328125 C15.859375,14.421875 16.375,14.5 17.09375,14.5625 C18.046875,14.640625 19.6875,14.71875 20.765625,14.71875 C21.671875,14.71875 22.296875,14.640625 22.75,14.640625 C23.15625,14.640625 23.25,14.859375 23.25,15.125 C23.25,15.578125 22.46875,15.984375 21.84375,15.984375 C21.53125,15.984375 21.265625,15.796875 20.46875,15.75 C19.890625,15.703125 15.8125,15.4375 14.6875,15.4375 C14.28125,15.4375 14.046875,15.796875 13.703125,16.203125 Z M10.421875,7.203125 L10.171875,6.84375 C10.984375,6.125 11.40625,5.59375 11.8125,5.046875 C12.046875,4.6875 12.34375,4.296875 12.625,4.296875 C12.953125,4.296875 13.15625,4.53125 13.15625,4.890625 C13.15625,5.359375 12.796875,5.859375 12.265625,6.265625 C11.78125,6.640625 11.15625,6.9375 10.421875,7.203125 Z M17.046875,5.859375 L16.578125,6.078125 C16.109375,5.09375 15.21875,3.625 14.15625,2.359375 C13.203125,1.15625 11.875,-0.140625 11.421875,-0.140625 C11.15625,-0.140625 10.703125,0.234375 10.4375,0.53125 L10.125,0.3125 C10.15625,0.046875 10.21875,-0.4375 10.3125,-0.578125 C10.5625,-1.015625 11.25,-1.625 11.6875,-1.625 C11.953125,-1.625 12.140625,-1.21875 12.3125,-1.078125 C12.984375,-0.5 13.78125,0.28125 14.78125,1.578125 C15.75,2.859375 16.5625,4.46875 17.046875,5.859375 Z M1.015625,4.34375 L0.671875,4.15625 C0.703125,3.890625 0.703125,3.546875 0.796875,3.359375 C0.984375,2.953125 1.578125,2.359375 1.875,2.359375 C2.09375,2.359375 2.1875,2.640625 2.6875,2.90625 C3.03125,3.078125 3.359375,3.21875 3.640625,3.3125 L3.625,0.484375 C3.625,-1.515625 4.65625,-1.5625 6.125,-1.5625 C6.8125,-1.5625 7.484375,-1.484375 7.875,-1.421875 C8.15625,-1.34375 8.5,-1.21875 8.5,-0.84375 C8.5,-0.40625 7.875,-0.21875 7.625,-0.21875 C7.390625,-0.21875 6.84375,-0.453125 5.8125,-0.453125 C4.703125,-0.453125 4.5625,-0.125 4.5625,0.765625 L4.609375,3.703125 C5.46875,4.0625 6.796875,4.5625 7.203125,4.6875 C7.3125,4.703125 7.34375,4.578125 7.3125,4.515625 C7.015625,3.8125 6.359375,2.78125 5.6875,1.9375 L6.046875,1.609375 C6.90625,2.359375 7.921875,3.546875 8.46875,4.3125 C8.6875,4.609375 9,4.6875 9,4.9375 C9,5.234375 8.09375,6.03125 7.75,6.03125 C7.625,6.03125 7.46875,5.734375 7.21875,5.609375 C6.640625,5.375 5.453125,4.921875 4.65625,4.625 L4.734375,6.71875 C4.78125,7.109375 5.09375,7.25 5.09375,7.484375 C5.09375,7.84375 4.171875,8.296875 3.796875,8.296875 C3.59375,8.296875 3.078125,8.109375 2.8125,7.9375 L2.859375,7.5625 C3.3125,7.515625 3.640625,7.515625 3.671875,7.21875 C3.71875,6.75 3.703125,5.375 3.671875,4.296875 C2.96875,4.0625 2.046875,3.75 1.703125,3.71875 C1.484375,3.71875 1.21875,4.109375 1.015625,4.34375 Z M17.609375,8.203125 L17.640625,7.78125 C18.390625,7.6875 18.53125,7.65625 18.578125,7.3125 C18.640625,6.703125 18.640625,5.25 18.640625,4.203125 C18.640625,3.1875 18.625,1.296875 18.546875,0.359375 C18.5,-0.265625 18.40625,-0.671875 18.40625,-1.03125 C18.40625,-1.609375 18.71875,-2.046875 19.125,-2.046875 C19.5625,-2.046875 19.65625,-1.703125 19.65625,-1.3125 C19.65625,-0.765625 19.578125,2.65625 19.609375,3.984375 C20.25,3.71875 20.734375,3.4375 21.265625,2.96875 C21.84375,2.375 22.0625,1.921875 22.421875,1.921875 C22.703125,1.921875 22.921875,2.109375 22.921875,2.5 C22.921875,2.953125 22.484375,3.359375 22.109375,3.640625 C21.453125,4.125 20.59375,4.4375 19.609375,4.65625 C19.609375,5.328125 19.65625,6.171875 19.703125,6.75 C19.75,7.203125 20.046875,7.203125 20.046875,7.484375 C20.046875,7.890625 19.0625,8.453125 18.59375,8.453125 C18.234375,8.453125 17.90625,8.296875 17.609375,8.203125 Z" transform="translate(0.0625, 20.359375) scale(1, -1)"/>
</svg>