<svg height="22.359375" viewBox="0 0 24 22.359375" width="24" xmlns="http://www.w3.org/2000/svg">
<path d="M13.875,18.890625 L13.65625,18.484375 C14.828125,17.765625 15.484375,17.203125 16.015625,16.65625 C16.34375,16.3125 16.6875,15.890625 16.96875,15.890625 C17.40625,15.890625 17.5625,16.21875 17.5625,16.484375 C17.5625,16.890625 17.140625,17.40625 16.53125,17.8125 C15.90625,18.28125 14.953125,18.625 13.875,18.890625 Z M23.140625,17.25 L22.734375,17.546875 C21.9375,16.578125 20.765625,15.390625 19.421875,14.28125 C18.28125,13.390625 15.859375,11.734375 15.125,11.734375 C14.734375,11.734375 14.25,12.21875 13.875,12.578125 L13.578125,12.359375 C13.578125,12.140625 13.6875,11.515625 13.78125,11.375 C14.09375,10.921875 14.953125,10.265625 15.53125,10.265625 C15.90625,10.265625 16.03125,10.6875 16.25,10.796875 C17.25,11.40625 18.984375,12.546875 20.0625,13.53125 C21.328125,14.65625 22.46875,15.953125 23.140625,17.25 Z M0.90625,15.984375 L0.640625,15.765625 C0.671875,15.5 0.71875,15.171875 0.8125,14.96875 C1.109375,14.5625 1.78125,14.09375 2.15625,14.09375 C2.453125,14.09375 2.453125,14.296875 3.21875,14.609375 L4.515625,15.125 L4.46875,12.4375 C4.46875,10.515625 5.8125,10.421875 7.78125,10.421875 C8.65625,10.421875 9.546875,10.484375 10.015625,10.578125 C10.390625,10.6875 10.75,10.796875 10.75,11.15625 C10.75,11.59375 10.109375,11.8125 9.765625,11.8125 C9.453125,11.8125 8.640625,11.515625 7.265625,11.515625 C5.640625,11.515625 5.453125,11.828125 5.453125,12.703125 L5.515625,15.453125 C6.703125,15.84375 8.65625,16.484375 9.21875,16.609375 C9.390625,16.625 9.40625,16.515625 9.359375,16.4375 C9.03125,15.796875 8.015625,14.6875 7.15625,13.84375 L7.46875,13.484375 C8.546875,14.140625 9.890625,15.40625 10.578125,16.109375 C10.84375,16.390625 11.234375,16.390625 11.234375,16.703125 C11.234375,16.984375 10.296875,17.859375 9.859375,17.859375 C9.71875,17.859375 9.484375,17.5625 9.1875,17.46875 C8.359375,17.1875 6.671875,16.703125 5.5625,16.421875 L5.6875,18.359375 C5.734375,18.75 6.046875,18.765625 6.046875,19.078125 C6.046875,19.53125 4.984375,19.984375 4.484375,19.984375 C4.21875,19.984375 3.75,19.796875 3.40625,19.609375 L3.484375,19.25 C4.109375,19.21875 4.53125,19.171875 4.5625,18.90625 C4.609375,18.40625 4.5625,17.15625 4.5625,16.109375 C3.625,15.8125 2.296875,15.40625 1.890625,15.390625 C1.578125,15.390625 1.203125,15.75 0.90625,15.984375 Z M3.859375,7.828125 L3.890625,7.421875 C4.65625,7.3125 4.921875,7.296875 4.96875,6.953125 C5.046875,6.3125 5.046875,4.875 5.046875,3.84375 C5.046875,2.828125 5.015625,0.984375 4.9375,0.03125 C4.890625,-0.59375 4.78125,-1.015625 4.78125,-1.375 C4.78125,-1.921875 5.09375,-2.375 5.515625,-2.375 C5.953125,-2.375 6.046875,-2.046875 6.046875,-1.65625 L6,3.640625 C6.9375,3.40625 7.6875,3.046875 8.234375,2.546875 C8.90625,1.921875 9.125,1.484375 9.578125,1.484375 C9.890625,1.484375 10.0625,1.78125 10.0625,2.046875 C10.0625,2.421875 9.71875,2.828125 9.34375,3.09375 C8.59375,3.625 7.46875,4.125 6,4.296875 C6,4.984375 6.046875,5.828125 6.125,6.390625 C6.140625,6.8125 6.484375,6.765625 6.484375,7.125 C6.484375,7.515625 5.453125,8.0625 5.015625,8.0625 C4.625,8.0625 4.171875,7.9375 3.859375,7.828125 Z" transform="translate(0.109375, 19.984375) scale(1, -1)"/>
</svg>