<svg height="22.359375" viewBox="0 0 24 22.359375" width="24" xmlns="http://www.w3.org/2000/svg">
<path d="M10.296875,18.3125 C10.5625,18 10.796875,17.65625 11.046875,17.65625 C11.25,17.640625 11.421875,17.828125 11.453125,18.078125 C11.453125,18.34375 11.25,18.75 10.875,19.0625 C10.53125,19.296875 10.03125,19.5625 9.40625,19.75 L9.1875,19.46875 C9.71875,19.015625 10.03125,18.640625 10.296875,18.3125 Z M11.453125,19.375 C11.734375,19.0625 11.953125,18.71875 12.21875,18.75 C12.4375,18.71875 12.578125,18.9375 12.59375,19.171875 C12.59375,19.484375 12.359375,19.84375 11.953125,20.140625 C11.609375,20.359375 11.140625,20.5625 10.484375,20.734375 L10.25,20.421875 C10.84375,19.984375 11.140625,19.703125 11.453125,19.375 Z M13.078125,15.4375 L12.765625,15.28125 C12.75,15.078125 12.75,14.6875 12.8125,14.46875 C12.953125,13.921875 13.75,13.34375 14.109375,13.34375 C14.359375,13.34375 14.5,13.46875 14.828125,13.5625 C15.234375,13.65625 15.75,13.734375 16.4375,13.78125 C17.421875,13.875 19.0625,13.9375 20.140625,13.9375 C21.046875,13.9375 21.671875,13.84375 22.125,13.84375 C22.53125,13.84375 22.625,14.09375 22.625,14.328125 C22.625,14.78125 21.8125,15.21875 21.1875,15.21875 C20.875,15.21875 20.609375,15.03125 19.84375,14.96875 C19.265625,14.90625 15.171875,14.640625 14.0625,14.640625 C13.65625,14.640625 13.390625,15.03125 13.078125,15.4375 Z M2.71875,6.84375 L2.421875,6.75 C2.375,6.53125 2.359375,6.125 2.421875,5.90625 C2.515625,5.5 3.265625,4.796875 3.625,4.796875 C3.953125,4.796875 4.0625,5.015625 4.46875,5.109375 C5.234375,5.25 6.890625,5.515625 7.921875,5.640625 C8.046875,5.640625 8.09375,5.609375 8.046875,5.515625 C7.703125,4.828125 6.90625,3.59375 5.921875,2.453125 C4.734375,1.03125 3.078125,-0.140625 1.109375,-1.171875 L1.34375,-1.625 C4.015625,-0.75 5.65625,0.59375 6.890625,1.96875 C7.890625,1.3125 8.59375,0.671875 9.4375,-0.3125 C10.0625,-1.0625 10.390625,-1.578125 10.75,-1.578125 C11.140625,-1.578125 11.328125,-1.3125 11.328125,-1.015625 C11.328125,0.21875 9.265625,1.609375 7.265625,2.40625 C8.015625,3.3125 8.5625,4.125 9.1875,5.140625 C9.359375,5.375 9.8125,5.453125 9.8125,5.765625 C9.8125,6.140625 8.828125,6.890625 8.453125,6.890625 C8.203125,6.890625 7.984375,6.546875 7.734375,6.5 C7.015625,6.359375 4.46875,6.046875 3.53125,6.046875 C3.265625,6.046875 2.90625,6.546875 2.71875,6.84375 Z M1.203125,13.3125 L1.46875,13.015625 C2.765625,13.703125 3.90625,14.953125 4.515625,15.640625 C4.796875,16.015625 5.109375,16.4375 5.421875,16.875 C5.609375,16.734375 5.8125,16.609375 5.953125,16.609375 C6.140625,16.609375 6.453125,16.703125 6.71875,16.75 C7.203125,16.78125 8.109375,16.875 8.453125,16.875 C8.546875,16.875 8.546875,16.84375 8.546875,16.78125 C8.359375,16.203125 7.96875,15.28125 7.125,14.09375 C6.359375,14.5 5.328125,14.921875 4.78125,15.078125 L4.515625,14.6875 C5.203125,14.296875 5.953125,13.828125 6.546875,13.296875 C5.359375,11.78125 3.890625,10.609375 1.9375,9.390625 L2.203125,9.046875 C4.53125,9.90625 6.234375,11.359375 7.296875,12.578125 C8.15625,11.734375 8.5,11.25 8.859375,11.25 C9.1875,11.25 9.390625,11.5 9.390625,11.828125 C9.390625,12.34375 8.8125,12.9375 8.046875,13.515625 C8.875,14.640625 9.28125,15.625 9.71875,16.390625 C9.84375,16.65625 10.265625,16.78125 10.265625,17.015625 C10.265625,17.375 9.40625,18.046875 9,18.046875 C8.828125,18.046875 8.5625,17.71875 8.359375,17.6875 C7.921875,17.640625 6.484375,17.515625 6.125,17.515625 L5.859375,17.515625 L6.234375,18.078125 C6.4375,18.40625 6.671875,18.53125 6.671875,18.765625 C6.671875,19.015625 5.765625,19.625 5.1875,19.625 C4.890625,19.625 4.4375,19.5625 4.34375,19.53125 L4.265625,19.171875 C4.65625,19.0625 5.109375,18.90625 5.109375,18.71875 C5.109375,18.3125 4.390625,17.09375 3.765625,16.21875 C3.1875,15.390625 2.234375,14.28125 1.203125,13.3125 Z" transform="translate(0.1328125, 20.734375) scale(1, -1)"/>
</svg>