<svg height="22.78125" viewBox="0 0 24 22.78125" width="24" xmlns="http://www.w3.org/2000/svg">
<path d="M8.609375,18.890625 C8.609375,18.046875 9.34375,17.328125 10.171875,17.328125 C11.015625,17.328125 11.734375,18.046875 11.734375,18.890625 C11.734375,19.734375 11.015625,20.421875 10.171875,20.421875 C9.34375,20.421875 8.609375,19.734375 8.609375,18.890625 Z M9.234375,18.890625 C9.234375,19.421875 9.640625,19.828125 10.171875,19.828125 C10.703125,19.828125 11.109375,19.421875 11.109375,18.890625 C11.109375,18.390625 10.703125,17.953125 10.171875,17.953125 C9.640625,17.953125 9.234375,18.390625 9.234375,18.890625 Z M17.765625,6.765625 L17.8125,6.390625 C18.34375,6.34375 18.703125,6.28125 18.71875,5.96875 C18.8125,4.65625 18.671875,1.46875 18.671875,0.390625 C18.671875,-0.125 18.453125,-0.1875 18.453125,-0.4375 C18.453125,-0.671875 19.015625,-1.421875 19.296875,-1.421875 C19.53125,-1.421875 19.65625,-1.078125 19.921875,-0.890625 C20.875,-0.265625 21.328125,0.09375 22.03125,0.75 C22.796875,1.484375 23.515625,2.5 23.90625,3.21875 L23.515625,3.5 C22.984375,2.8125 22.25,2.046875 21.640625,1.53125 C21.1875,1.15625 20.5625,0.75 19.78125,0.390625 C19.75,0.40625 19.703125,0.4375 19.703125,0.484375 C19.734375,1.484375 19.78125,4.9375 19.828125,5.5 C19.828125,5.875 20.109375,5.859375 20.109375,6.1875 C20.109375,6.53125 19.203125,7.0625 18.640625,7.0625 C18.40625,7.0625 17.953125,6.890625 17.765625,6.765625 Z M15.53125,5.375 L15.53125,4.96875 C15.796875,4.921875 16.390625,4.734375 16.390625,4.4375 C16.390625,3.8125 16.21875,2.234375 15.625,1.015625 C15.140625,0.046875 14.59375,-0.703125 13.890625,-1.375 L14.203125,-1.734375 C15.078125,-1.25 15.859375,-0.484375 16.421875,0.59375 C16.984375,1.65625 17.1875,2.71875 17.421875,3.796875 C17.5,4.125 17.734375,4.15625 17.734375,4.390625 C17.734375,4.84375 16.875,5.546875 16.390625,5.546875 C16.15625,5.546875 15.703125,5.453125 15.53125,5.375 Z M13.921875,9.953125 L14.1875,9.53125 C16.109375,10.390625 17.140625,11.6875 17.6875,12.59375 C18.09375,13.3125 18.4375,14.140625 18.640625,14.859375 L18.796875,15.453125 C20.78125,16.515625 21.75,17.328125 22.109375,17.546875 C22.46875,17.765625 22.96875,17.78125 22.96875,18.140625 C22.96875,18.546875 21.90625,19.421875 21.53125,19.421875 C21.3125,19.421875 21.171875,19.15625 20.859375,19.125 C20.1875,19.03125 15.03125,18.546875 14.09375,18.546875 C13.84375,18.546875 13.46875,18.953125 13.21875,19.3125 L12.84375,19.171875 C12.8125,18.9375 12.84375,18.53125 12.90625,18.34375 C13.109375,17.734375 13.875,17.1875 14.25,17.203125 C14.546875,17.203125 14.65625,17.421875 15.09375,17.546875 C15.546875,17.65625 20.46875,18.265625 20.921875,18.265625 C21.03125,18.265625 21.1875,18.28125 21.03125,18.078125 C20.8125,17.78125 19.828125,16.921875 18.75,16.203125 C18.484375,16.421875 17.921875,16.609375 17.40625,16.625 C17.140625,16.65625 16.828125,16.609375 16.4375,16.53125 L16.421875,16.109375 C16.6875,16.03125 17.140625,15.9375 17.40625,15.8125 C17.546875,15.75 17.546875,15.640625 17.546875,15.5 C17.546875,14.8125 17.09375,13.703125 16.6875,12.90625 C16.3125,12.1875 15.40625,10.984375 13.921875,9.953125 Z M9.140625,7.875 L9.171875,7.46875 C9.90625,7.375 10.0625,7.34375 10.109375,7.015625 C10.171875,6.359375 10.171875,4.921875 10.171875,3.859375 C10.171875,2.875 10.15625,0.984375 10.078125,0.03125 C10.03125,-0.59375 9.9375,-0.984375 9.9375,-1.375 C9.9375,-1.921875 10.25,-2.359375 10.65625,-2.359375 C11.09375,-2.359375 11.1875,-2.046875 11.1875,-1.65625 C11.1875,-1.078125 11.109375,2.375 11.140625,3.671875 C11.78125,3.390625 12.265625,3.125 12.796875,2.640625 C13.375,2.0625 13.578125,1.609375 13.9375,1.609375 C14.234375,1.609375 14.453125,1.796875 14.453125,2.1875 C14.453125,2.640625 14.015625,3.046875 13.625,3.34375 C12.984375,3.8125 12.125,4.109375 11.140625,4.3125 C11.140625,5.015625 11.1875,5.859375 11.234375,6.4375 C11.28125,6.859375 11.5625,6.859375 11.5625,7.171875 C11.5625,7.5625 10.578125,8.109375 10.125,8.109375 C9.765625,8.109375 9.4375,7.984375 9.140625,7.875 Z M7.03125,18.171875 L6.765625,17.90625 C6.984375,17.6875 7.109375,17.515625 7.203125,17.375 C7.296875,17.1875 7.296875,17.0625 7.125,16.96875 C6.3125,16.375 4.65625,15.59375 3.046875,15.125 C3.09375,16.296875 3.171875,17.546875 3.234375,18.078125 C3.265625,18.40625 3.578125,18.484375 3.578125,18.796875 C3.578125,19.109375 2.65625,19.65625 2.15625,19.65625 C1.890625,19.65625 1.375,19.484375 1.078125,19.375 L1.15625,18.953125 C1.75,18.9375 2.046875,18.90625 2.09375,18.59375 C2.15625,17.71875 1.9375,13.828125 1.96875,12.625 C1.96875,10.78125 2.734375,10.21875 5.15625,10.21875 C7.15625,10.21875 8.375,10.421875 8.90625,10.5625 C9.140625,10.65625 9.4375,10.75 9.4375,11.109375 C9.4375,11.5 8.921875,11.65625 8.328125,11.65625 C7.890625,11.65625 6.8125,11.28125 5.109375,11.28125 C3.625,11.28125 3,11.453125 2.96875,12.625 L3.03125,14.359375 C5.09375,14.828125 7.0625,15.640625 7.96875,16.109375 C8.46875,16.34375 8.828125,16.53125 8.828125,16.828125 C8.828125,17.234375 8.328125,17.609375 7.890625,17.859375 C7.625,18 7.3125,18.125 7.03125,18.171875 Z M1.9375,6.953125 L1.6875,6.859375 C1.65625,6.640625 1.578125,6.265625 1.625,6.03125 C1.703125,5.609375 2.328125,4.921875 2.609375,4.921875 C2.859375,4.921875 3.046875,5.1875 3.34375,5.28125 C3.90625,5.40625 5.015625,5.609375 5.8125,5.71875 C5.875,5.734375 5.90625,5.6875 5.875,5.59375 C5.640625,4.921875 5.015625,3.625 4.265625,2.46875 C3.390625,1.0625 2.0625,-0.34375 0.578125,-1.375 L0.84375,-1.828125 C2.78125,-0.90625 4.203125,0.5 5.09375,1.84375 C5.78125,1.203125 6.28125,0.5 6.859375,-0.4375 C7.3125,-1.171875 7.5625,-1.703125 7.9375,-1.703125 C8.328125,-1.703125 8.5,-1.375 8.5,-1.078125 C8.5,0.125 6.90625,1.5625 5.421875,2.359375 C6.046875,3.28125 6.546875,4.265625 7.015625,5.28125 C7.125,5.515625 7.46875,5.5625 7.46875,5.875 C7.46875,6.265625 6.578125,6.984375 6.265625,6.984375 C6.09375,6.984375 5.90625,6.640625 5.71875,6.59375 C5.15625,6.453125 3.28125,6.1875 2.65625,6.1875 C2.46875,6.1875 2.09375,6.703125 1.9375,6.953125 Z" transform="translate(-0.2421875, 20.421875) scale(1, -1)"/>
</svg>