<svg height="22.109375" viewBox="0 0 24 22.109375" width="24" xmlns="http://www.w3.org/2000/svg">
<path d="M16.53125,17.828125 L16.21875,17.5625 C16.421875,17.359375 16.6875,16.9375 16.921875,16.46875 C17.203125,15.84375 17.234375,15.265625 17.640625,15.265625 C18.03125,15.265625 18.1875,15.53125 18.1875,15.796875 C18.1875,16.125 18,16.609375 17.640625,16.984375 C17.40625,17.234375 17.0625,17.5625 16.53125,17.828125 Z M14.96875,10.375 L15.21875,9.953125 C17.328125,10.6875 18.484375,11.734375 19.390625,12.859375 C20.28125,13.96875 20.8125,15.09375 21.265625,16.078125 C21.40625,16.375 21.75,16.375 21.75,16.6875 C21.75,17.0625 20.921875,17.6875 20.46875,17.78125 C20.28125,17.859375 19.9375,17.828125 19.703125,17.8125 L19.578125,17.46875 C19.984375,17.25 20.28125,17.09375 20.28125,16.890625 C20.28125,16.5625 19.65625,14.828125 18.625,13.515625 C17.765625,12.390625 16.703125,11.296875 14.96875,10.375 Z M14.140625,17.0625 L13.796875,16.78125 C13.984375,16.53125 14.296875,16.03125 14.515625,15.578125 C14.765625,15.078125 14.953125,14.40625 15.34375,14.40625 C15.671875,14.40625 15.859375,14.609375 15.859375,14.921875 C15.859375,15.359375 15.625,15.859375 15.171875,16.296875 C14.921875,16.53125 14.46875,16.84375 14.140625,17.0625 Z M7.921875,19.625 L7.921875,19.25 C8.40625,19.0625 8.828125,18.90625 8.828125,18.671875 C8.828125,17.875 7.46875,15.140625 5.65625,13.390625 C4.78125,12.453125 3.640625,11.515625 2.328125,10.75 L2.609375,10.3125 C4.171875,10.890625 5.609375,11.90625 6.578125,12.8125 C8.28125,14.453125 9.078125,16.03125 9.859375,17.65625 C10.109375,18.125 10.5625,18.046875 10.5625,18.390625 C10.5625,18.84375 9.484375,19.609375 9.03125,19.6875 C8.71875,19.734375 8.15625,19.65625 7.921875,19.625 Z M3.765625,7.828125 L3.796875,7.390625 C4.53125,7.296875 4.828125,7.265625 4.84375,6.9375 C4.921875,6.3125 4.9375,4.84375 4.9375,3.8125 C4.9375,2.8125 4.890625,0.953125 4.828125,0 C4.78125,-0.59375 4.65625,-1.015625 4.65625,-1.390625 C4.65625,-1.9375 4.984375,-2.375 5.40625,-2.375 C5.828125,-2.375 5.921875,-2.0625 5.921875,-1.6875 L5.90625,3.59375 C6.8125,3.390625 7.5625,3.03125 8.140625,2.515625 C8.8125,1.890625 9,1.46875 9.453125,1.46875 C9.796875,1.46875 9.953125,1.75 9.953125,2.015625 C9.953125,2.421875 9.625,2.8125 9.21875,3.078125 C8.5,3.59375 7.375,4.109375 5.90625,4.265625 C5.90625,4.9375 5.953125,5.78125 6,6.359375 C6.046875,6.796875 6.390625,6.75 6.390625,7.109375 C6.390625,7.484375 5.359375,8.046875 4.890625,8.046875 C4.53125,8.046875 4.0625,7.921875 3.765625,7.828125 Z" transform="translate(-0.0390625, 19.734375) scale(1, -1)"/>
</svg>