<svg height="20.5" viewBox="0 0 24 20.5" width="24" xmlns="http://www.w3.org/2000/svg">
<path d="M13.0625,7.796875 L12.8125,7.375 C14.046875,6.625 14.734375,6.046875 15.265625,5.46875 C15.625,5.109375 16.015625,4.65625 16.296875,4.65625 C16.75,4.65625 16.890625,5.015625 16.890625,5.28125 C16.890625,5.734375 16.4375,6.265625 15.84375,6.703125 C15.171875,7.171875 14.15625,7.515625 13.0625,7.796875 Z M22.734375,6.09375 L22.3125,6.390625 C21.484375,5.40625 20.25,4.125 18.84375,2.96875 C17.65625,2.046875 15.140625,0.3125 14.359375,0.3125 C13.9375,0.3125 13.4375,0.8125 13.0625,1.203125 L12.75,0.953125 C12.75,0.75 12.84375,0.09375 12.9375,-0.046875 C13.265625,-0.53125 14.1875,-1.203125 14.765625,-1.203125 C15.1875,-1.203125 15.3125,-0.796875 15.53125,-0.671875 C16.578125,-0.03125 18.390625,1.15625 19.515625,2.1875 C20.859375,3.390625 22.03125,4.734375 22.734375,6.09375 Z M2.875,19.0625 L2.90625,18.625 C3.71875,18.5 4.015625,18.484375 4.03125,18.125 C4.125,17.453125 4.125,15.90625 4.125,14.78125 C4.125,13.734375 4.109375,11.734375 4.03125,10.734375 C3.953125,10.0625 3.84375,9.640625 3.84375,9.265625 C3.84375,8.65625 4.171875,8.1875 4.625,8.1875 C5.09375,8.1875 5.1875,8.546875 5.1875,8.953125 L5.140625,14.59375 C6.125,14.359375 6.9375,13.9375 7.515625,13.421875 C8.234375,12.765625 8.46875,12.3125 8.953125,12.3125 C9.3125,12.3125 9.484375,12.59375 9.484375,12.890625 C9.484375,13.296875 9.09375,13.734375 8.6875,13.984375 C7.921875,14.5625 6.71875,15.125 5.15625,15.28125 C5.15625,16.03125 5.203125,16.921875 5.25,17.515625 C5.296875,17.96875 5.65625,17.921875 5.65625,18.3125 C5.65625,18.71875 4.5625,19.296875 4.109375,19.296875 C3.703125,19.296875 3.1875,19.171875 2.875,19.0625 Z" transform="translate(-0.8046875, 19.296875) scale(1, -1)"/>
</svg>