<svg height="21.484375" viewBox="0 0 24 21.484375" width="24" xmlns="http://www.w3.org/2000/svg">
<path d="M9.953125,17.59375 C10.25,17.28125 10.46875,16.9375 10.734375,16.9375 C10.9375,16.96875 11.109375,17.140625 11.109375,17.40625 C11.109375,17.65625 10.890625,18.046875 10.46875,18.359375 C10.15625,18.578125 9.625,18.8125 9,18.984375 L8.78125,18.703125 C9.34375,18.234375 9.671875,17.921875 9.953125,17.59375 Z M11.046875,18.75 C11.328125,18.4375 11.5625,18.125 11.828125,18.125 C12.078125,18.125 12.1875,18.34375 12.1875,18.578125 C12.1875,18.859375 11.921875,19.21875 11.5,19.515625 C11.15625,19.734375 10.6875,19.890625 10.015625,20.046875 L9.796875,19.734375 C10.421875,19.3125 10.734375,19.03125 11.046875,18.75 Z M3.21875,17.765625 L3.21875,17.421875 C3.453125,17.25 4.015625,17.015625 4.015625,16.828125 C4.015625,16.390625 3.3125,15.03125 2.859375,14.28125 C2.28125,13.390625 1.625,12.484375 0.484375,11.46875 L0.796875,11.109375 C2.15625,11.90625 3.140625,13.078125 3.703125,13.75 C4.421875,14.71875 4.703125,15.359375 5.046875,15.90625 C5.15625,16.171875 5.609375,16.171875 5.609375,16.515625 C5.609375,17.0625 4.5625,17.78125 3.984375,17.8125 C3.703125,17.828125 3.390625,17.78125 3.21875,17.765625 Z M10.796875,11.78125 C11.234375,11.78125 11.453125,12.125 11.421875,12.625 C11.421875,13.53125 10.65625,15.046875 9.5,16.296875 C9.03125,16.75 8.40625,17.328125 7.421875,17.875 L7.109375,17.515625 C7.828125,16.921875 8.359375,16.25 8.78125,15.53125 C9.390625,14.59375 9.859375,13.53125 10.078125,12.703125 C10.21875,12.125 10.421875,11.765625 10.796875,11.78125 Z M16.53125,7.25 L16.609375,6.859375 C17.203125,6.8125 17.609375,6.796875 17.640625,6.484375 C17.765625,5.15625 17.609375,2.015625 17.609375,0.9375 C17.59375,0.4375 17.359375,0.34375 17.359375,0.125 C17.359375,-0.125 17.875,-0.953125 18.234375,-0.953125 C18.5,-0.953125 18.578125,-0.59375 18.890625,-0.4375 C20.015625,0.140625 20.640625,0.546875 21.484375,1.203125 C22.4375,1.921875 23.234375,2.90625 23.609375,3.578125 L23.28125,3.890625 C22.703125,3.234375 21.84375,2.46875 21.046875,1.9375 C20.46875,1.578125 19.65625,1.03125 18.640625,0.75 C18.625,0.765625 18.625,0.8125 18.625,0.890625 C18.625,1.890625 18.75,5.421875 18.796875,5.96875 C18.8125,6.359375 19.109375,6.34375 19.109375,6.640625 C19.109375,6.984375 18.1875,7.5625 17.515625,7.5625 C17.25,7.5625 16.796875,7.390625 16.53125,7.25 Z M14.0625,5.875 L14.0625,5.46875 C14.375,5.421875 15.078125,5.234375 15.078125,4.9375 C15.078125,4.375 14.765625,2.734375 14.046875,1.46875 C13.46875,0.5 12.796875,-0.28125 12.03125,-0.90625 L12.28125,-1.25 C13.296875,-0.796875 14.234375,0.09375 14.90625,1.078125 C15.59375,2.15625 15.84375,3.1875 16.125,4.265625 C16.21875,4.578125 16.484375,4.625 16.484375,4.890625 C16.484375,5.359375 15.5,6.046875 14.96875,6.046875 C14.65625,6.046875 14.25,5.953125 14.0625,5.875 Z M2.15625,7.125 L2.234375,6.765625 C3.125,6.671875 3.265625,6.53125 3.28125,6.3125 C3.359375,5.296875 3.34375,1.21875 3.3125,0.4375 C3.3125,-0.046875 3.125,-0.21875 3.125,-0.40625 C3.125,-0.71875 3.765625,-1.4375 4.15625,-1.4375 C4.46875,-1.4375 4.53125,-1.125 4.890625,-0.90625 C5.734375,-0.484375 6.75,-0.03125 7.703125,0.59375 C9.140625,1.515625 10.890625,2.953125 11.6875,4.015625 L11.296875,4.390625 C10.25,3.390625 8.8125,2.28125 7.3125,1.4375 C6.359375,0.890625 5.28125,0.40625 4.390625,0.140625 C4.375,0.1875 4.34375,0.234375 4.34375,0.3125 C4.34375,1.515625 4.375,4.875 4.421875,5.8125 C4.4375,6.21875 4.75,6.359375 4.75,6.578125 C4.75,6.9375 3.75,7.46875 3.140625,7.46875 C2.90625,7.46875 2.453125,7.265625 2.15625,7.125 Z M13.203125,15.796875 L12.890625,15.640625 C12.890625,15.4375 12.890625,15.046875 12.9375,14.828125 C13.109375,14.28125 13.875,13.703125 14.234375,13.703125 C14.46875,13.703125 14.640625,13.84375 14.953125,13.921875 C15.390625,14.015625 15.859375,14.09375 16.578125,14.140625 C17.546875,14.234375 19.171875,14.296875 20.25,14.296875 C21.171875,14.296875 21.8125,14.203125 22.25,14.203125 C22.6875,14.203125 22.78125,14.453125 22.78125,14.71875 C22.78125,15.140625 21.953125,15.578125 21.328125,15.578125 C21.03125,15.578125 20.765625,15.390625 19.984375,15.34375 C19.390625,15.265625 15.3125,15 14.1875,15 C13.78125,15 13.53125,15.390625 13.203125,15.796875 Z" transform="translate(-0.046875, 20.046875) scale(1, -1)"/>
</svg>