<svg height="20.90625" viewBox="0 0 24 20.90625" width="24" xmlns="http://www.w3.org/2000/svg">
<path d="M8.65625,17.015625 C8.953125,16.65625 9.1875,16.265625 9.453125,16.265625 C9.671875,16.265625 9.890625,16.46875 9.890625,16.75 C9.890625,16.984375 9.703125,17.421875 9.28125,17.765625 C8.953125,18.03125 8.421875,18.3125 7.75,18.546875 L7.515625,18.234375 C8.0625,17.734375 8.40625,17.375 8.65625,17.015625 Z M9.90625,18.140625 C10.21875,17.8125 10.4375,17.421875 10.734375,17.453125 C10.96875,17.453125 11.140625,17.640625 11.140625,17.921875 C11.140625,18.234375 10.875,18.59375 10.46875,18.9375 C10.109375,19.171875 9.59375,19.390625 8.90625,19.609375 L8.65625,19.265625 C9.28125,18.796875 9.59375,18.5 9.90625,18.140625 Z M15.53125,7.53125 L15.59375,7.15625 C16.21875,7.078125 16.625,7.0625 16.6875,6.71875 C16.78125,5.375 16.625,2.09375 16.625,0.984375 C16.609375,0.453125 16.375,0.390625 16.375,0.125 C16.375,-0.125 16.921875,-0.984375 17.296875,-0.984375 C17.5625,-0.984375 17.65625,-0.59375 17.953125,-0.4375 C19.125,0.171875 19.78125,0.578125 20.65625,1.25 C21.640625,1.984375 22.484375,3.046875 22.875,3.71875 L22.53125,4.0625 C21.9375,3.390625 21.03125,2.5625 20.203125,2.015625 C19.609375,1.65625 18.765625,1.109375 17.734375,0.765625 C17.6875,0.796875 17.6875,0.859375 17.6875,0.9375 C17.71875,1.96875 17.8125,5.640625 17.859375,6.1875 C17.875,6.59375 18.1875,6.578125 18.1875,6.90625 C18.1875,7.265625 17.25,7.875 16.53125,7.875 C16.265625,7.875 15.796875,7.6875 15.53125,7.53125 Z M12.953125,6.125 L12.953125,5.71875 C13.265625,5.640625 13.984375,5.453125 13.984375,5.140625 C13.984375,4.53125 13.6875,2.859375 12.9375,1.53125 C12.34375,0.53125 11.609375,-0.265625 10.828125,-0.9375 L11.109375,-1.296875 C12.140625,-0.8125 13.15625,0.09375 13.828125,1.125 C14.546875,2.25 14.78125,3.3125 15.09375,4.4375 C15.1875,4.78125 15.453125,4.796875 15.453125,5.09375 C15.453125,5.5625 14.46875,6.28125 13.890625,6.28125 C13.578125,6.28125 13.15625,6.1875 12.953125,6.125 Z M3.140625,19.25 L3.171875,18.8125 C3.953125,18.703125 4.25,18.671875 4.296875,18.3125 C4.375,17.640625 4.375,16.109375 4.375,14.96875 C4.375,13.921875 4.34375,11.953125 4.265625,10.921875 C4.21875,10.265625 4.078125,9.84375 4.078125,9.453125 C4.078125,8.859375 4.4375,8.40625 4.875,8.40625 C5.328125,8.40625 5.453125,8.765625 5.453125,9.140625 C5.453125,9.765625 5.375,13.4375 5.40625,14.78125 C6.390625,14.546875 7.171875,14.15625 7.78125,13.609375 C8.5,12.953125 8.71875,12.5 9.1875,12.5 C9.546875,12.5 9.71875,12.796875 9.71875,13.078125 C9.71875,13.515625 9.359375,13.921875 8.921875,14.203125 C8.15625,14.765625 6.953125,15.3125 5.40625,15.484375 C5.40625,16.203125 5.453125,17.109375 5.5,17.71875 C5.546875,18.171875 5.90625,18.125 5.90625,18.5 C5.90625,18.90625 4.828125,19.484375 4.34375,19.484375 C3.953125,19.484375 3.4375,19.375 3.140625,19.25 Z" transform="translate(-1.0078125, 19.609375) scale(1, -1)"/>
</svg>