<svg height="21.90625" viewBox="0 0 24 21.90625" width="24" xmlns="http://www.w3.org/2000/svg">
<path d="M0.75,15.765625 L0.453125,15.546875 C0.5,15.34375 0.53125,14.859375 0.71875,14.65625 C1.015625,14.25 1.609375,13.828125 1.96875,13.828125 C2.375,13.828125 2.5625,14.203125 2.78125,14.546875 C3.125,15.046875 4.171875,16.625 4.515625,17.109375 C4.6875,17.328125 4.828125,17.546875 4.984375,17.546875 C5.15625,17.546875 5.28125,17.453125 5.5,17.234375 C6.21875,16.515625 7.34375,15.265625 8.015625,14.609375 C9.046875,13.578125 10.796875,11.96875 11.515625,12 C11.875,12 12.09375,12.1875 12.09375,12.453125 C12.09375,12.953125 11.875,13.25 11.515625,13.46875 C10.65625,13.9375 9.640625,14.609375 8.546875,15.578125 C7.6875,16.34375 6.59375,17.515625 5.90625,18.171875 C5.515625,18.5 5.25,18.59375 4.921875,18.59375 C4.578125,18.59375 4.296875,18.34375 4.0625,18.046875 C3.625,17.5 2.765625,16.34375 2.234375,15.703125 C2.046875,15.453125 1.78125,15.21875 1.609375,15.21875 C1.390625,15.21875 1.0625,15.4375 0.75,15.765625 Z M9.765625,4.5625 L9.546875,4.4375 C9.53125,4.21875 9.546875,3.890625 9.578125,3.671875 C9.640625,3.125 10.171875,2.640625 10.375,2.640625 C10.484375,2.640625 10.5625,2.734375 10.75,2.8125 C10.96875,2.90625 11.328125,2.921875 11.6875,2.96875 C12.09375,3.03125 12.4375,3 13.015625,3 C13.515625,3 13.78125,2.90625 14.015625,2.90625 C14.234375,2.90625 14.328125,3.125 14.328125,3.40625 C14.328125,3.84375 13.703125,4.21875 13.390625,4.21875 C13.25,4.21875 13.203125,4.078125 12.765625,4.015625 C12.453125,3.953125 10.984375,3.90625 10.390625,3.90625 C10.15625,3.90625 9.953125,4.15625 9.765625,4.5625 Z M17.453125,6.9375 L17.515625,6.546875 C18.03125,6.5 18.40625,6.484375 18.4375,6.140625 C18.5,4.84375 18.390625,1.625 18.390625,0.546875 C18.390625,0.046875 18.140625,-0.03125 18.140625,-0.234375 C18.140625,-0.484375 18.703125,-1.25 19.015625,-1.25 C19.21875,-1.25 19.34375,-0.890625 19.625,-0.71875 C20.59375,-0.078125 21.046875,0.265625 21.75,0.9375 C22.515625,1.6875 23.234375,2.65625 23.59375,3.40625 L23.234375,3.703125 C22.703125,3 21.953125,2.203125 21.359375,1.734375 C20.90625,1.3125 20.28125,0.90625 19.484375,0.546875 C19.46875,0.578125 19.390625,0.59375 19.390625,0.671875 C19.421875,1.6875 19.46875,5.140625 19.515625,5.65625 C19.515625,6.046875 19.828125,6.046875 19.828125,6.359375 C19.828125,6.703125 18.90625,7.25 18.34375,7.25 C18.125,7.25 17.65625,7.0625 17.453125,6.9375 Z M15.21875,5.5625 L15.21875,5.140625 C15.484375,5.09375 16.109375,4.890625 16.109375,4.609375 C16.109375,3.984375 15.9375,2.421875 15.3125,1.171875 C14.859375,0.234375 14.296875,-0.5 13.609375,-1.203125 L13.890625,-1.53125 C14.765625,-1.078125 15.546875,-0.28125 16.125,0.765625 C16.703125,1.84375 16.890625,2.90625 17.140625,3.984375 C17.203125,4.296875 17.453125,4.3125 17.453125,4.578125 C17.453125,5.046875 16.5625,5.734375 16.109375,5.734375 C15.84375,5.734375 15.390625,5.609375 15.21875,5.5625 Z M14.5,9.9375 L14.734375,9.53125 C17.234375,10.4375 18.984375,11.859375 20.015625,13.078125 C21.171875,14.421875 21.75,15.59375 22.265625,16.578125 C22.390625,16.796875 22.890625,16.9375 22.890625,17.234375 C22.890625,17.609375 21.9375,18.265625 21.578125,18.265625 C21.359375,18.265625 21.234375,18 20.953125,17.921875 C20.546875,17.859375 18.796875,17.765625 18.484375,17.765625 L18.28125,17.765625 L18.671875,18.4375 C18.890625,18.765625 19.15625,18.796875 19.15625,19.03125 C19.15625,19.34375 18.234375,19.984375 17.640625,19.984375 C17.421875,19.984375 16.84375,19.890625 16.65625,19.875 L16.65625,19.515625 C17.140625,19.390625 17.59375,19.25 17.59375,19.109375 C17.59375,18.640625 16.9375,17.59375 16.3125,16.703125 C15.71875,15.84375 14.65625,14.6875 13.6875,13.84375 L13.984375,13.515625 C15.390625,14.296875 16.53125,15.453125 17.140625,16.203125 L17.859375,17.140625 C18.078125,16.96875 18.359375,16.828125 18.484375,16.828125 C18.59375,16.828125 18.84375,16.875 19.171875,16.921875 C19.84375,17.046875 20.5625,17.09375 21,17.09375 C21.125,17.09375 21.140625,17.0625 21.09375,16.9375 C20.875,16.390625 20.203125,14.921875 19.125,13.625 C17.859375,12.140625 16.5625,11.09375 14.5,9.9375 Z M0.859375,2.5625 L1.171875,2.28125 C2.40625,2.953125 3.359375,4.15625 3.890625,4.84375 C4.125,5.1875 4.390625,5.5625 4.625,5.953125 C4.796875,5.8125 4.9375,5.71875 5.046875,5.71875 C5.1875,5.71875 5.453125,5.828125 5.65625,5.859375 C6.046875,5.921875 6.8125,5.96875 7.078125,5.96875 C7.171875,5.96875 7.171875,5.953125 7.171875,5.859375 C7.015625,5.296875 6.703125,4.421875 6.03125,3.234375 C5.40625,3.59375 4.5625,3.9375 4.078125,4.109375 L3.84375,3.71875 C4.421875,3.359375 5.015625,2.90625 5.515625,2.40625 C4.484375,0.84375 3.21875,-0.359375 1.296875,-1.578125 L1.578125,-1.921875 C3.765625,-1.015625 5.296875,0.4375 6.234375,1.6875 C6.984375,0.859375 7.265625,0.4375 7.5625,0.4375 C7.875,0.4375 8.0625,0.640625 8.0625,1.015625 C8.0625,1.53125 7.5625,2.109375 6.890625,2.640625 C7.5625,3.75 7.96875,4.75 8.296875,5.546875 C8.40625,5.78125 8.765625,5.875 8.765625,6.125 C8.765625,6.484375 7.875,7.125 7.53125,7.125 C7.390625,7.125 7.203125,6.796875 7.015625,6.765625 C6.640625,6.71875 5.46875,6.625 5.1875,6.59375 L5.015625,6.59375 L5.359375,7.21875 C5.515625,7.5625 5.765625,7.703125 5.734375,7.9375 C5.71875,8.1875 4.84375,8.734375 4.375,8.734375 C4.125,8.734375 3.71875,8.65625 3.625,8.640625 L3.578125,8.28125 C3.890625,8.140625 4.296875,8.015625 4.296875,7.828125 C4.296875,7.4375 3.71875,6.3125 3.1875,5.421875 C2.6875,4.578125 1.921875,3.53125 0.859375,2.5625 Z" transform="translate(-0.0234375, 19.984375) scale(1, -1)"/>
</svg>