<svg height="23.203125" viewBox="0 0 24 23.203125" width="24" xmlns="http://www.w3.org/2000/svg">
<path d="M8.609375,19.25 C8.609375,18.40625 9.34375,17.6875 10.171875,17.6875 C11.015625,17.6875 11.734375,18.40625 11.734375,19.25 C11.734375,20.09375 11.015625,20.78125 10.171875,20.78125 C9.34375,20.78125 8.609375,20.09375 8.609375,19.25 Z M9.234375,19.25 C9.234375,19.78125 9.640625,20.1875 10.171875,20.1875 C10.6875,20.1875 11.109375,19.78125 11.109375,19.25 C11.109375,18.75 10.6875,18.3125 10.171875,18.3125 C9.640625,18.3125 9.234375,18.75 9.234375,19.25 Z M10.0625,11.609375 C10.125,11.359375 10.3125,11.09375 10.65625,11.09375 C11.0625,11.09375 11.234375,11.421875 11.234375,11.78125 C11.234375,12.34375 10.734375,13.109375 10.109375,13.625 C9.671875,13.984375 9.125,14.296875 8.5,14.515625 L8.25,14.203125 C8.71875,13.84375 9.125,13.46875 9.359375,13.109375 C9.671875,12.671875 9.796875,12.28125 10.0625,11.609375 Z M4.03125,14.203125 L3.578125,14.328125 C3.28125,13.578125 2.859375,12.9375 1.96875,12.265625 C1.578125,11.96875 1.3125,11.765625 1.3125,11.40625 C1.3125,11.109375 1.515625,10.875 1.875,10.875 C2.234375,10.875 2.515625,11.09375 2.828125,11.453125 C3.546875,12.265625 3.90625,13.4375 4.03125,14.203125 Z M2.453125,6.671875 L2.234375,6.265625 C3.390625,5.546875 4.0625,4.984375 4.5625,4.4375 C4.921875,4.109375 5.25,3.671875 5.546875,3.671875 C5.96875,3.671875 6.125,4.015625 6.125,4.265625 C6.125,4.6875 5.6875,5.1875 5.109375,5.609375 C4.46875,6.078125 3.53125,6.40625 2.453125,6.671875 Z M11.6875,5.046875 L11.28125,5.328125 C10.484375,4.390625 9.34375,3.171875 7.984375,2.0625 C6.859375,1.171875 4.4375,-0.484375 3.703125,-0.484375 C3.28125,-0.484375 2.8125,0 2.453125,0.359375 L2.140625,0.140625 C2.15625,-0.078125 2.234375,-0.703125 2.359375,-0.84375 C2.65625,-1.296875 3.5,-1.9375 4.078125,-1.9375 C4.46875,-1.9375 4.609375,-1.53125 4.828125,-1.421875 C5.8125,-0.8125 7.5625,0.34375 8.640625,1.3125 C9.890625,2.453125 11.046875,3.75 11.6875,5.046875 Z M19.734375,20.28125 L19.578125,19.9375 C19.84375,19.796875 20.25,19.609375 20.25,19.421875 C20.234375,19.265625 20.15625,19.125 19.984375,18.859375 C19.75,18.5 19.015625,17.5625 18.21875,16.796875 C17.25,15.859375 15.53125,14.453125 13.375,13.203125 L13.6875,12.8125 C15.90625,13.609375 17.78125,15.046875 18.703125,15.859375 C18.75,15.75 18.75,15.625 18.75,15.453125 C18.75,14.71875 18.71875,12.703125 18.640625,11.78125 C18.59375,11.359375 18.5,11.046875 18.5,10.828125 C18.5,10.484375 18.59375,10.171875 18.703125,10.015625 C18.8125,9.859375 18.9375,9.625 19.265625,9.625 C19.609375,9.625 19.734375,9.9375 19.734375,10.265625 C19.734375,10.578125 19.734375,11.109375 19.703125,11.59375 C19.65625,12.59375 19.75,15 19.78125,15.359375 C19.796875,15.671875 19.890625,15.84375 19.890625,16.015625 C19.890625,16.125 19.84375,16.25 19.578125,16.4375 L19.421875,16.53125 C20.0625,17.203125 20.875,18.125 21.21875,18.53125 C21.484375,18.796875 21.953125,18.71875 21.953125,19.0625 C21.953125,19.46875 21.328125,19.984375 20.734375,20.203125 C20.421875,20.28125 19.921875,20.296875 19.734375,20.28125 Z M15.59375,7.78125 L15.625,7.375 C16.375,7.265625 16.625,7.25 16.6875,6.90625 C16.75,6.265625 16.78125,4.828125 16.78125,3.765625 C16.78125,2.78125 16.734375,0.90625 16.65625,-0.03125 C16.609375,-0.640625 16.484375,-1.0625 16.484375,-1.421875 C16.484375,-1.96875 16.828125,-2.421875 17.234375,-2.421875 C17.65625,-2.421875 17.765625,-2.09375 17.765625,-1.703125 L17.734375,3.578125 C18.640625,3.34375 19.390625,2.96875 19.96875,2.46875 C20.640625,1.875 20.828125,1.4375 21.28125,1.4375 C21.625,1.4375 21.796875,1.703125 21.796875,1.96875 C21.796875,2.375 21.4375,2.765625 21.046875,3.046875 C20.328125,3.578125 19.203125,4.0625 17.734375,4.25 C17.734375,4.921875 17.78125,5.78125 17.828125,6.34375 C17.875,6.765625 18.21875,6.71875 18.21875,7.078125 C18.21875,7.46875 17.1875,8.015625 16.734375,8.015625 C16.375,8.015625 15.890625,7.890625 15.59375,7.78125 Z M1.5625,17.046875 L1.265625,16.875 C1.265625,16.625 1.296875,16.203125 1.34375,16.0625 C1.5625,15.5 2.234375,15.125 2.5625,15.125 C2.875,15.125 3.125,15.34375 3.53125,15.40625 C4.171875,15.53125 5.0625,15.671875 5.828125,15.75 L5.828125,14.90625 C5.828125,13.828125 5.828125,11.609375 5.78125,11.015625 C5.78125,10.875 5.6875,10.84375 5.546875,10.875 C5.28125,10.921875 4.578125,11.15625 4.203125,11.28125 L4.0625,10.875 C4.4375,10.65625 5.0625,10.296875 5.328125,10.0625 C5.59375,9.75 5.5,9.234375 5.953125,9.234375 C6.5,9.234375 6.859375,9.90625 6.859375,10.46875 C6.859375,10.828125 6.84375,11.375 6.84375,12.046875 C6.8125,12.640625 6.796875,13.921875 6.796875,14.71875 L6.796875,15.84375 C7.625,15.90625 8.6875,15.953125 9.140625,15.953125 C9.703125,15.953125 10.171875,15.90625 10.609375,15.90625 C10.9375,15.90625 11.109375,16.078125 11.109375,16.3125 C11.109375,16.703125 10.53125,17.109375 9.9375,17.109375 C9.625,17.109375 9.53125,16.984375 8.734375,16.890625 L6.796875,16.6875 C6.8125,17.296875 6.84375,17.875 6.859375,18.171875 C6.890625,18.484375 7.171875,18.53125 7.171875,18.8125 C7.171875,19.15625 6.140625,19.578125 5.609375,19.578125 C5.296875,19.578125 4.796875,19.375 4.578125,19.296875 L4.609375,18.90625 C5.375,18.8125 5.65625,18.75 5.734375,18.5 C5.78125,18.234375 5.8125,17.40625 5.828125,16.578125 C4.796875,16.484375 2.875,16.265625 2.5,16.265625 C2.1875,16.265625 1.984375,16.484375 1.5625,17.046875 Z" transform="translate(0.390625, 20.78125) scale(1, -1)"/>
</svg>