<svg height="21.40625" viewBox="0 0 24 21.40625" width="24" xmlns="http://www.w3.org/2000/svg">
<path d="M9,17.328125 C9.28125,17.015625 9.5,16.6875 9.75,16.65625 C9.953125,16.6875 10.125,16.84375 10.125,17.109375 C10.15625,17.375 9.9375,17.765625 9.546875,18.078125 C9.21875,18.3125 8.71875,18.578125 8.09375,18.765625 L7.84375,18.484375 C8.40625,18 8.734375,17.6875 9,17.328125 Z M10.21875,18.390625 C10.515625,18.078125 10.734375,17.734375 11.015625,17.734375 C11.234375,17.734375 11.359375,17.953125 11.359375,18.1875 C11.375,18.484375 11.109375,18.84375 10.703125,19.125 C10.375,19.375 9.890625,19.5625 9.234375,19.703125 L9.03125,19.390625 C9.59375,18.984375 9.90625,18.703125 10.21875,18.390625 Z M0.84375,15.3125 L0.546875,15.09375 C0.59375,14.875 0.625,14.40625 0.796875,14.203125 C1.109375,13.796875 1.703125,13.375 2.0625,13.375 C2.46875,13.375 2.640625,13.75 2.875,14.09375 C3.21875,14.59375 4.25,16.171875 4.578125,16.65625 C4.75,16.875 4.921875,17.09375 5.09375,17.09375 C5.25,17.09375 5.375,16.984375 5.59375,16.78125 C6.3125,16.0625 7.4375,14.8125 8.09375,14.15625 C9.140625,13.125 10.890625,11.515625 11.609375,11.546875 C11.96875,11.546875 12.1875,11.734375 12.1875,12 C12.1875,12.484375 11.96875,12.796875 11.609375,13.015625 C10.75,13.484375 9.75,14.15625 8.640625,15.125 C7.78125,15.890625 6.703125,17.0625 5.96875,17.6875 C5.59375,18.03125 5.359375,18.140625 5.015625,18.140625 C4.6875,18.140625 4.390625,17.875 4.15625,17.59375 C3.71875,17.046875 2.828125,15.890625 2.296875,15.234375 C2.109375,15 1.875,14.765625 1.6875,14.765625 C1.484375,14.765625 1.15625,14.96875 0.84375,15.3125 Z M13.53125,16.078125 L13.21875,15.9375 C13.21875,15.71875 13.21875,15.34375 13.265625,15.125 C13.4375,14.5625 14.203125,13.984375 14.5625,13.984375 C14.8125,13.984375 14.96875,14.140625 15.28125,14.203125 C15.703125,14.296875 16.203125,14.375 16.921875,14.421875 C17.875,14.515625 19.515625,14.59375 20.59375,14.59375 C21.5,14.59375 22.125,14.5 22.578125,14.5 C22.984375,14.5 23.09375,14.734375 23.09375,15 C23.09375,15.4375 22.296875,15.859375 21.671875,15.859375 C21.359375,15.859375 21.09375,15.671875 20.296875,15.625 C19.734375,15.546875 15.640625,15.28125 14.515625,15.28125 C14.109375,15.28125 13.875,15.671875 13.53125,16.078125 Z M1.609375,2.5625 L1.875,2.25 C3.171875,2.953125 4.3125,4.203125 4.921875,4.890625 C5.203125,5.25 5.515625,5.6875 5.828125,6.125 C6.03125,5.96875 6.21875,5.859375 6.359375,5.859375 C6.546875,5.859375 6.859375,5.953125 7.125,6 C7.609375,6.03125 8.515625,6.125 8.859375,6.125 C8.953125,6.125 8.953125,6.09375 8.953125,6.03125 C8.765625,5.453125 8.375,4.53125 7.53125,3.34375 C6.765625,3.75 5.734375,4.171875 5.1875,4.3125 L4.921875,3.9375 C5.609375,3.546875 6.359375,3.078125 6.953125,2.546875 C5.765625,1.03125 4.296875,-0.140625 2.359375,-1.375 L2.609375,-1.703125 C4.9375,-0.84375 6.640625,0.59375 7.703125,1.828125 C8.5625,0.984375 8.90625,0.5 9.265625,0.5 C9.59375,0.5 9.796875,0.75 9.796875,1.078125 C9.796875,1.578125 9.21875,2.1875 8.453125,2.765625 C9.28125,3.890625 9.703125,4.875 10.125,5.640625 C10.25,5.90625 10.6875,6.03125 10.6875,6.265625 C10.6875,6.625 9.8125,7.296875 9.40625,7.296875 C9.234375,7.296875 8.96875,6.953125 8.765625,6.9375 C8.328125,6.890625 6.890625,6.765625 6.53125,6.765625 L6.265625,6.765625 L6.640625,7.3125 C6.84375,7.65625 7.078125,7.78125 7.078125,8.015625 C7.078125,8.25 6.171875,8.875 5.59375,8.875 C5.296875,8.875 4.84375,8.8125 4.75,8.78125 L4.6875,8.421875 C5.0625,8.296875 5.515625,8.15625 5.515625,7.96875 C5.515625,7.5625 4.796875,6.34375 4.171875,5.46875 C3.59375,4.625 2.640625,3.53125 1.609375,2.5625 Z" transform="translate(0.1796875, 19.703125) scale(1, -1)"/>
</svg>