<svg height="21.265625" viewBox="0 0 24 21.265625" width="24" xmlns="http://www.w3.org/2000/svg">
<path d="M8.65625,18.125 C8.65625,17.25 9.390625,16.515625 10.265625,16.515625 C11.140625,16.515625 11.875,17.25 11.875,18.125 C11.875,19.015625 11.140625,19.734375 10.265625,19.734375 C9.390625,19.734375 8.65625,19.015625 8.65625,18.125 Z M9.28125,18.125 C9.28125,18.640625 9.75,19.109375 10.265625,19.109375 C10.796875,19.109375 11.25,18.640625 11.25,18.125 C11.25,17.59375 10.796875,17.15625 10.265625,17.15625 C9.75,17.15625 9.28125,17.59375 9.28125,18.125 Z M1.171875,15.078125 L0.890625,14.875 C0.9375,14.640625 0.953125,14.15625 1.15625,13.9375 C1.46875,13.515625 2.0625,13.078125 2.453125,13.078125 C2.875,13.078125 3.046875,13.46875 3.28125,13.828125 C3.625,14.359375 4.703125,15.953125 5.0625,16.46875 C5.234375,16.6875 5.375,16.921875 5.5625,16.921875 C5.765625,16.921875 5.859375,16.828125 6.078125,16.609375 C6.8125,15.84375 7.984375,14.546875 8.6875,13.890625 C9.765625,12.8125 11.546875,11.1875 12.3125,11.1875 C12.671875,11.1875 12.90625,11.40625 12.90625,11.6875 C12.90625,12.171875 12.671875,12.484375 12.28125,12.71875 C11.40625,13.203125 10.375,13.890625 9.234375,14.90625 C8.328125,15.671875 7.21875,16.890625 6.5,17.546875 C6.09375,17.875 5.828125,18 5.5,18 C5.140625,18 4.84375,17.734375 4.578125,17.453125 C4.15625,16.875 3.265625,15.671875 2.71875,15 C2.515625,14.765625 2.25,14.515625 2.0625,14.515625 C1.84375,14.515625 1.515625,14.734375 1.171875,15.078125 Z M14.15625,-1.0625 L14.421875,-1.53125 C17.375,-0.59375 19.15625,0.984375 20.375,2.828125 C21.28125,4.15625 21.75,5.40625 22.0625,6.1875 C22.171875,6.546875 22.625,6.59375 22.625,6.984375 C22.625,7.4375 21.4375,8.28125 20.6875,8.28125 C20.375,8.28125 19.921875,8.203125 19.6875,8.15625 L19.6875,7.734375 C20.6875,7.46875 20.921875,7.265625 20.875,6.9375 C20.71875,6.125 20.09375,4.484375 19.3125,3.390625 C18.078125,1.5625 16.828125,0.28125 14.15625,-1.0625 Z M13.65625,7.734375 L13.375,7.390625 C13.75,7.03125 14.328125,6.390625 14.78125,5.5625 C15.265625,4.703125 15.40625,4.203125 15.84375,4.203125 C16.25,4.203125 16.515625,4.46875 16.515625,4.921875 C16.515625,5.421875 16.125,6.09375 15.390625,6.71875 C14.96875,7.078125 14.25,7.515625 13.65625,7.734375 Z" transform="translate(0.2421875, 19.734375) scale(1, -1)"/>
</svg>