<svg height="20.75" viewBox="0 0 24 20.75" width="24" xmlns="http://www.w3.org/2000/svg">
<path d="M0.546875,15.75 L0.265625,15.53125 C0.3125,15.3125 0.34375,14.828125 0.5,14.609375 C0.8125,14.234375 1.421875,13.796875 1.78125,13.796875 C2.1875,13.796875 2.359375,14.1875 2.59375,14.515625 C2.921875,15.03125 3.953125,16.609375 4.296875,17.09375 C4.46875,17.296875 4.625,17.515625 4.796875,17.515625 C4.96875,17.515625 5.09375,17.421875 5.296875,17.203125 C6.03125,16.484375 7.15625,15.234375 7.796875,14.59375 C8.859375,13.5625 10.609375,11.953125 11.328125,11.96875 C11.6875,11.96875 11.90625,12.171875 11.90625,12.4375 C11.90625,12.90625 11.6875,13.21875 11.328125,13.4375 C10.46875,13.921875 9.453125,14.59375 8.359375,15.546875 C7.484375,16.296875 6.40625,17.5 5.6875,18.125 C5.296875,18.453125 5.0625,18.578125 4.734375,18.578125 C4.390625,18.578125 4.109375,18.3125 3.859375,18.03125 C3.4375,17.46875 2.5625,16.3125 2.015625,15.671875 C1.84375,15.4375 1.578125,15.1875 1.421875,15.1875 C1.203125,15.1875 0.859375,15.40625 0.546875,15.75 Z M16.6875,19.015625 L16.75,18.625 C17.359375,18.578125 17.765625,18.546875 17.8125,18.21875 C17.90625,16.921875 17.765625,13.75 17.765625,12.671875 C17.734375,12.171875 17.5,12.09375 17.5,11.859375 C17.5,11.609375 18.03125,10.796875 18.40625,10.796875 C18.640625,10.796875 18.71875,11.15625 19.03125,11.296875 C20.15625,11.875 20.78125,12.28125 21.625,12.9375 C22.578125,13.6875 23.375,14.65625 23.78125,15.3125 L23.421875,15.640625 C22.84375,14.96875 21.984375,14.203125 21.1875,13.6875 C20.609375,13.3125 19.796875,12.796875 18.796875,12.484375 C18.765625,12.5 18.765625,12.578125 18.765625,12.640625 C18.796875,13.625 18.890625,17.1875 18.9375,17.71875 C18.953125,18.09375 19.265625,18.078125 19.265625,18.40625 C19.265625,18.75 18.34375,19.3125 17.6875,19.3125 C17.40625,19.3125 16.9375,19.125 16.6875,19.015625 Z M14.203125,17.640625 L14.203125,17.234375 C14.515625,17.1875 15.21875,16.96875 15.21875,16.6875 C15.21875,16.109375 14.90625,14.46875 14.1875,13.203125 C13.609375,12.265625 12.9375,11.46875 12.171875,10.84375 L12.4375,10.484375 C13.4375,10.9375 14.40625,11.828125 15.046875,12.84375 C15.75,13.890625 15.984375,14.921875 16.265625,16.03125 C16.375,16.34375 16.625,16.375 16.625,16.625 C16.625,17.109375 15.640625,17.78125 15.125,17.78125 C14.8125,17.78125 14.40625,17.71875 14.203125,17.640625 Z M4.890625,8.015625 L4.53125,7.78125 C4.78125,7.515625 5.109375,7.015625 5.40625,6.40625 C5.765625,5.640625 5.765625,4.96875 6.28125,4.96875 C6.640625,4.96875 6.84375,5.25 6.84375,5.609375 C6.84375,6 6.640625,6.53125 6.21875,6.984375 C5.953125,7.296875 5.46875,7.703125 4.890625,8.015625 Z M2.96875,-0.984375 L3.234375,-1.4375 C5.71875,-0.546875 7.15625,0.671875 8.296875,2.09375 C9.40625,3.453125 10.03125,4.75 10.609375,5.96875 C10.78125,6.34375 11.15625,6.390625 11.15625,6.75 C11.15625,7.15625 10.25,7.875 9.703125,7.984375 C9.453125,8.0625 9.03125,8.0625 8.734375,8.046875 L8.609375,7.703125 C9.125,7.46875 9.59375,7.21875 9.59375,7.015625 C9.59375,6.578125 8.765625,4.484375 7.515625,2.828125 C6.4375,1.4375 5.015625,0.125 2.96875,-0.984375 Z M1.921875,7.0625 L1.578125,6.765625 C1.84375,6.484375 2.1875,5.921875 2.46875,5.359375 C2.765625,4.734375 3,3.890625 3.4375,3.890625 C3.75,3.890625 3.984375,4.109375 3.984375,4.484375 C3.984375,5.015625 3.671875,5.640625 3.09375,6.171875 C2.828125,6.453125 2.375,6.8125 1.921875,7.0625 Z" transform="translate(-0.0234375, 19.3125) scale(1, -1)"/>
</svg>