<svg height="21" viewBox="0 0 24 21" width="24" xmlns="http://www.w3.org/2000/svg">
<path d="M8.015625,18.28125 C8.015625,17.453125 8.734375,16.734375 9.59375,16.734375 C10.4375,16.734375 11.140625,17.453125 11.140625,18.28125 C11.140625,19.125 10.4375,19.828125 9.59375,19.828125 C8.734375,19.828125 8.015625,19.125 8.015625,18.28125 Z M8.640625,18.28125 C8.640625,18.8125 9.078125,19.21875 9.59375,19.21875 C10.109375,19.21875 10.53125,18.8125 10.53125,18.28125 C10.53125,17.765625 10.109375,17.359375 9.59375,17.359375 C9.078125,17.359375 8.640625,17.765625 8.640625,18.28125 Z M0.765625,15.34375 L0.484375,15.125 C0.53125,14.90625 0.578125,14.421875 0.75,14.234375 C1.0625,13.828125 1.625,13.390625 1.984375,13.390625 C2.421875,13.390625 2.59375,13.78125 2.8125,14.109375 C3.140625,14.609375 4.203125,16.203125 4.53125,16.6875 C4.703125,16.890625 4.84375,17.109375 5.015625,17.109375 C5.203125,17.109375 5.296875,17.015625 5.515625,16.796875 C6.234375,16.078125 7.375,14.828125 8.046875,14.1875 C9.09375,13.15625 10.828125,11.546875 11.546875,11.5625 C11.921875,11.5625 12.140625,11.765625 12.140625,12.03125 C12.140625,12.53125 11.921875,12.8125 11.546875,13.03125 C10.6875,13.515625 9.671875,14.1875 8.59375,15.140625 C7.703125,15.90625 6.625,17.09375 5.921875,17.734375 C5.546875,18.078125 5.28125,18.171875 4.9375,18.171875 C4.609375,18.171875 4.3125,17.90625 4.078125,17.609375 C3.640625,17.0625 2.78125,15.90625 2.25,15.265625 C2.0625,15.03125 1.796875,14.78125 1.625,14.78125 C1.4375,14.78125 1.078125,15 0.765625,15.34375 Z M14.203125,19.171875 L14.015625,18.765625 C15.171875,18.046875 15.8125,17.5 16.34375,16.9375 C16.6875,16.578125 17.046875,16.15625 17.328125,16.15625 C17.765625,16.15625 17.90625,16.484375 17.90625,16.78125 C17.90625,17.1875 17.46875,17.6875 16.890625,18.09375 C16.25,18.546875 15.28125,18.90625 14.203125,19.171875 Z M23.46875,17.515625 L23.0625,17.8125 C22.265625,16.875 21.09375,15.640625 19.75,14.5625 C18.625,13.6875 16.203125,12.03125 15.453125,12.03125 C15.078125,12.03125 14.59375,12.5 14.234375,12.859375 L13.921875,12.640625 C13.921875,12.4375 14.015625,11.8125 14.140625,11.65625 C14.453125,11.203125 15.28125,10.5625 15.859375,10.5625 C16.25,10.5625 16.375,10.96875 16.578125,11.09375 C17.59375,11.6875 19.3125,12.8125 20.40625,13.796875 C21.671875,14.953125 22.796875,16.25 23.46875,17.515625 Z M2.734375,7.265625 L2.453125,7.171875 C2.40625,6.953125 2.359375,6.578125 2.421875,6.359375 C2.515625,5.953125 3.265625,5.234375 3.625,5.234375 C3.953125,5.234375 4.078125,5.46875 4.484375,5.546875 C5.234375,5.6875 6.90625,5.96875 7.921875,6.078125 C8.046875,6.09375 8.09375,6.046875 8.046875,5.953125 C7.703125,5.28125 6.90625,4.0625 5.921875,2.90625 C4.734375,1.484375 3.09375,0.28125 1.109375,-0.71875 L1.34375,-1.171875 C4.015625,-0.3125 5.6875,1.03125 6.890625,2.421875 C7.890625,1.75 8.59375,1.125 9.4375,0.125 C10.078125,-0.59375 10.390625,-1.125 10.78125,-1.125 C11.15625,-1.125 11.359375,-0.859375 11.359375,-0.578125 C11.359375,0.640625 9.28125,2.0625 7.265625,2.859375 C8.046875,3.765625 8.59375,4.578125 9.1875,5.5625 C9.359375,5.828125 9.84375,5.875 9.84375,6.1875 C9.84375,6.578125 8.828125,7.3125 8.46875,7.3125 C8.203125,7.3125 7.984375,7.015625 7.75,6.9375 C7.015625,6.8125 4.46875,6.484375 3.546875,6.484375 C3.265625,6.484375 2.921875,7.015625 2.734375,7.265625 Z" transform="translate(0.0234375, 19.828125) scale(1, -1)"/>
</svg>