<svg height="21.09375" viewBox="0 0 24 21.09375" width="24" xmlns="http://www.w3.org/2000/svg">
<path d="M3,18.3125 C2.640625,18.3125 2.40625,18.796875 2.1875,19.125 L1.796875,19.015625 C1.796875,18.671875 1.84375,18.234375 1.890625,18.046875 C2.015625,17.65625 2.65625,17.015625 3.078125,17.015625 C3.359375,17.015625 3.546875,17.234375 3.90625,17.328125 C4.609375,17.5 8.46875,17.953125 9.046875,17.953125 C9.125,17.953125 9.171875,17.953125 9.140625,17.8125 C8.921875,16.875 8.234375,15.359375 7.21875,14.015625 C6.046875,12.453125 4.484375,11.375 2.78125,10.421875 L3.078125,9.984375 C5.09375,10.625 6.75,11.765625 8.109375,13.4375 C9.046875,14.546875 9.71875,15.796875 10.21875,16.984375 C10.421875,17.375 10.875,17.5 10.875,17.8125 C10.875,18.34375 9.75,19.15625 9.359375,19.15625 C9.125,19.15625 9,18.90625 8.6875,18.84375 C8.140625,18.75 3.703125,18.3125 3,18.3125 Z M20.609375,18.671875 C20.921875,18.71875 21.125,18.859375 21.125,19.125 C21.125,19.515625 20.640625,19.78125 20.015625,19.78125 C19.890625,19.78125 19.578125,19.65625 19.03125,19.53125 C18.546875,19.4375 17.25,19.296875 16.46875,19.296875 C16.078125,19.296875 15.71875,19.4375 15.171875,19.828125 L14.859375,19.5625 C15.09375,19.109375 15.34375,18.796875 15.546875,18.625 C15.84375,18.40625 16.125,18.28125 16.4375,18.28125 C16.890625,18.28125 18.1875,18.4375 19.296875,18.578125 C19.828125,18.625 20.40625,18.640625 20.609375,18.671875 Z M13.9375,17.25 L13.578125,17.109375 C13.5625,16.796875 13.578125,16.421875 13.6875,16.25 C13.828125,15.859375 14.46875,15.1875 14.828125,15.1875 C15.078125,15.1875 15.3125,15.390625 15.671875,15.453125 C16.53125,15.640625 19.5625,15.984375 20.640625,16.03125 C20.71875,16.03125 20.734375,16.015625 20.6875,15.90625 C20.296875,14.90625 19.6875,13.828125 18.4375,12.671875 C17.421875,11.65625 16.0625,10.75 14.59375,10.109375 L14.8125,9.640625 C16.75,10.203125 18.21875,11.0625 19.296875,12.03125 C20.640625,13.21875 21.21875,14.28125 21.8125,15.34375 C21.953125,15.59375 22.4375,15.703125 22.4375,15.984375 C22.4375,16.421875 21.4375,17.140625 21.078125,17.140625 C20.8125,17.140625 20.65625,16.921875 20.296875,16.875 C19.609375,16.78125 15.578125,16.46875 14.78125,16.46875 C14.453125,16.46875 14.203125,16.84375 13.9375,17.25 Z M2.375,7.3125 L2.15625,6.90625 C3.34375,6.1875 3.984375,5.640625 4.515625,5.09375 C4.84375,4.75 5.1875,4.3125 5.5,4.3125 C5.921875,4.3125 6.078125,4.65625 6.078125,4.921875 C6.078125,5.359375 5.640625,5.859375 5.046875,6.265625 C4.421875,6.71875 3.453125,7.0625 2.375,7.3125 Z M11.640625,5.6875 L11.234375,5.96875 C10.4375,5.046875 9.265625,3.8125 7.921875,2.734375 C6.796875,1.828125 4.375,0.1875 3.625,0.1875 C3.234375,0.1875 2.765625,0.640625 2.40625,1.015625 L2.09375,0.796875 C2.09375,0.59375 2.1875,-0.046875 2.296875,-0.171875 C2.59375,-0.625 3.453125,-1.265625 4.03125,-1.265625 C4.421875,-1.265625 4.53125,-0.890625 4.75,-0.765625 C5.765625,-0.171875 7.484375,0.984375 8.5625,1.96875 C9.84375,3.09375 10.96875,4.390625 11.640625,5.6875 Z" transform="translate(-0.1171875, 19.828125) scale(1, -1)"/>
</svg>