<svg height="20.859375" viewBox="0 0 24 20.859375" width="24" xmlns="http://www.w3.org/2000/svg">
<path d="M16.515625,19.125 L16.578125,18.75 C17.203125,18.703125 17.609375,18.671875 17.640625,18.34375 C17.734375,17.046875 17.59375,13.875 17.59375,12.796875 C17.5625,12.3125 17.359375,12.21875 17.359375,12 C17.359375,11.765625 17.859375,10.921875 18.234375,10.921875 C18.5,10.921875 18.578125,11.28125 18.859375,11.453125 C20.015625,12.03125 20.640625,12.4375 21.453125,13.078125 C22.421875,13.796875 23.203125,14.78125 23.609375,15.4375 L23.25,15.765625 C22.6875,15.125 21.84375,14.359375 21.03125,13.828125 C20.46875,13.4375 19.65625,12.90625 18.640625,12.59375 C18.625,12.640625 18.59375,12.703125 18.59375,12.765625 C18.625,13.78125 18.71875,17.296875 18.765625,17.828125 C18.796875,18.234375 19.109375,18.21875 19.109375,18.53125 C19.109375,18.859375 18.1875,19.4375 17.515625,19.4375 C17.25,19.4375 16.796875,19.25 16.515625,19.125 Z M14.0625,17.765625 L14.0625,17.359375 C14.359375,17.296875 15.046875,17.09375 15.046875,16.828125 C15.046875,16.21875 14.765625,14.59375 14.046875,13.34375 C13.46875,12.390625 12.765625,11.59375 12,10.96875 L12.28125,10.625 C13.265625,11.0625 14.234375,11.953125 14.90625,12.953125 C15.578125,14.015625 15.8125,15.046875 16.109375,16.15625 C16.203125,16.46875 16.46875,16.484375 16.46875,16.78125 C16.46875,17.234375 15.5,17.921875 14.96875,17.921875 C14.65625,17.921875 14.25,17.828125 14.0625,17.765625 Z M4.109375,15.53125 L3.84375,15.140625 C4.390625,14.8125 5.1875,14.15625 5.609375,13.65625 C6.40625,12.8125 6.84375,12.09375 7.171875,11.5625 C7.296875,11.328125 7.46875,11.09375 7.78125,11.09375 C8.09375,11.09375 8.359375,11.296875 8.359375,11.65625 C8.359375,12.046875 8.09375,12.484375 7.875,12.8125 C7.65625,13.109375 7.390625,13.421875 7.015625,13.734375 C8.6875,14.8125 9.953125,16.0625 10.703125,16.78125 C11.0625,17.0625 11.515625,17.140625 11.515625,17.515625 C11.515625,17.828125 10.515625,18.703125 10.109375,18.703125 C9.890625,18.703125 9.703125,18.34375 9.34375,18.3125 C8.375,18.234375 3.40625,17.859375 2.515625,17.859375 C2.203125,17.859375 1.9375,18.265625 1.609375,18.640625 L1.265625,18.484375 C1.296875,18.171875 1.34375,17.765625 1.390625,17.609375 C1.53125,17.296875 2.203125,16.53125 2.640625,16.53125 C2.96875,16.53125 3.09375,16.78125 3.390625,16.84375 C4.265625,17.015625 8.234375,17.421875 9.5,17.46875 C9.625,17.46875 9.703125,17.453125 9.625,17.359375 C9.140625,16.578125 7.84375,15.234375 6.484375,14.15625 C5.921875,14.609375 4.96875,15.21875 4.109375,15.53125 Z M2.40625,-1.03125 L2.640625,-1.421875 C5.140625,-0.53125 6.890625,0.90625 7.921875,2.109375 C9.078125,3.453125 9.640625,4.625 10.171875,5.609375 C10.296875,5.859375 10.78125,5.96875 10.78125,6.265625 C10.78125,6.640625 9.84375,7.3125 9.484375,7.3125 C9.265625,7.3125 9.140625,7.03125 8.859375,6.984375 C8.453125,6.890625 6.703125,6.796875 6.359375,6.796875 L6.171875,6.8125 L6.578125,7.46875 C6.765625,7.828125 7.0625,7.828125 7.0625,8.0625 C7.0625,8.375 6.140625,9.046875 5.546875,9.046875 C5.328125,9.046875 4.75,8.953125 4.5625,8.90625 L4.5625,8.546875 C5.046875,8.421875 5.5,8.28125 5.5,8.140625 C5.5,7.703125 4.828125,6.625 4.21875,5.734375 C3.625,4.875 2.5625,3.75 1.578125,2.90625 L1.890625,2.546875 C3.28125,3.34375 4.4375,4.484375 5.046875,5.234375 L5.765625,6.171875 C5.96875,6 6.265625,5.859375 6.390625,5.859375 C6.5,5.859375 6.75,5.90625 7.078125,5.953125 C7.75,6.078125 8.46875,6.125 8.90625,6.125 C9.03125,6.125 9.046875,6.09375 9,5.96875 C8.78125,5.453125 8.109375,3.953125 7.015625,2.65625 C5.734375,1.171875 4.4375,0.125 2.40625,-1.03125 Z" transform="translate(-0.4375, 19.4375) scale(1, -1)"/>
</svg>