<svg height="22.375" viewBox="0 0 24 22.375" width="24" xmlns="http://www.w3.org/2000/svg">
<path d="M13.109375,16.109375 L12.796875,15.953125 C12.796875,15.71875 12.796875,15.34375 12.84375,15.140625 C13.015625,14.59375 13.78125,13.984375 14.140625,13.984375 C14.375,13.984375 14.546875,14.140625 14.859375,14.203125 C15.265625,14.296875 15.765625,14.40625 16.484375,14.453125 C17.453125,14.515625 19.078125,14.609375 20.15625,14.609375 C21.078125,14.609375 21.703125,14.515625 22.15625,14.515625 C22.5625,14.515625 22.65625,14.734375 22.65625,15 C22.65625,15.453125 21.859375,15.859375 21.234375,15.859375 C20.921875,15.859375 20.65625,15.703125 19.875,15.625 C19.296875,15.578125 15.21875,15.3125 14.09375,15.3125 C13.6875,15.3125 13.4375,15.703125 13.109375,16.109375 Z M8.71875,5.859375 C8.96875,5.515625 9.1875,5.15625 9.453125,5.15625 C9.671875,5.15625 9.859375,5.328125 9.859375,5.59375 C9.859375,5.859375 9.671875,6.234375 9.28125,6.578125 C8.96875,6.8125 8.46875,7.078125 7.84375,7.296875 L7.625,7.015625 C8.15625,6.546875 8.453125,6.1875 8.71875,5.859375 Z M9.890625,6.90625 C10.171875,6.59375 10.390625,6.234375 10.65625,6.265625 C10.875,6.265625 11.015625,6.453125 11.015625,6.71875 C11.015625,7.015625 10.796875,7.34375 10.390625,7.65625 C10.078125,7.890625 9.59375,8.109375 8.953125,8.28125 L8.71875,7.96875 C9.28125,7.53125 9.59375,7.25 9.890625,6.90625 Z M1.25,16.734375 L0.890625,16.578125 C0.890625,16.171875 0.953125,15.8125 1.0625,15.671875 C1.34375,15.234375 1.984375,14.828125 2.40625,14.828125 C2.65625,14.828125 2.8125,15.140625 3.265625,15.3125 L5.0625,15.90625 C5.453125,14.546875 5.921875,12.765625 6.046875,12.1875 C6.171875,11.65625 6.265625,10.984375 6.359375,10.703125 C6.453125,10.34375 6.59375,9.859375 7.078125,9.859375 C7.46875,9.859375 7.609375,10.15625 7.609375,10.484375 C7.609375,10.703125 7.46875,11.203125 7.34375,11.609375 C7.078125,12.4375 6.453125,14.546875 6,16.203125 L9.453125,17.28125 C9.53125,17.296875 9.59375,17.296875 9.546875,17.1875 C9.21875,16.46875 8.609375,15.5 7.75,14.46875 L8.140625,14.109375 C9.28125,15 10.421875,16.578125 10.875,17.109375 C11.0625,17.296875 11.5,17.421875 11.5,17.640625 C11.5,17.96875 10.625,18.59375 10.109375,18.59375 C9.953125,18.59375 9.8125,18.3125 9.53125,18.21875 C9.03125,18 7.0625,17.421875 5.78125,17.0625 C5.609375,17.765625 5.453125,18.53125 5.40625,18.859375 C5.328125,19.171875 5.5625,19.3125 5.5625,19.578125 C5.5625,19.9375 4.5625,20.140625 3.90625,20.140625 C3.5,20.140625 3.078125,19.875 2.859375,19.6875 L2.953125,19.3125 C3.265625,19.3125 3.9375,19.390625 4.078125,19.109375 C4.34375,18.59375 4.625,17.46875 4.828125,16.796875 C3.625,16.46875 2.359375,16.109375 2.09375,16.109375 C1.78125,16.109375 1.4375,16.515625 1.25,16.734375 Z M3.5,7.96875 L3.53125,7.53125 C4.296875,7.4375 4.5625,7.421875 4.578125,7.078125 C4.6875,6.453125 4.6875,5.015625 4.6875,3.953125 C4.6875,2.953125 4.65625,1.109375 4.578125,0.140625 C4.515625,-0.453125 4.390625,-0.859375 4.390625,-1.25 C4.390625,-1.796875 4.734375,-2.234375 5.15625,-2.234375 C5.59375,-2.234375 5.6875,-1.921875 5.6875,-1.53125 C5.6875,-0.953125 5.609375,2.453125 5.640625,3.765625 C6.546875,3.53125 7.3125,3.171875 7.875,2.65625 C8.546875,2.046875 8.734375,1.609375 9.21875,1.609375 C9.53125,1.609375 9.703125,1.890625 9.703125,2.15625 C9.703125,2.5625 9.359375,2.953125 8.96875,3.21875 C8.234375,3.765625 7.109375,4.25 5.640625,4.421875 C5.640625,5.109375 5.6875,5.921875 5.734375,6.5 C5.78125,6.9375 6.125,6.890625 6.125,7.25 C6.125,7.65625 5.09375,8.1875 4.65625,8.1875 C4.265625,8.1875 3.8125,8.0625 3.5,7.96875 Z" transform="translate(0.2265625, 20.140625) scale(1, -1)"/>
</svg>