<svg height="22.796875" viewBox="0 0 24 22.796875" width="24" xmlns="http://www.w3.org/2000/svg">
<path d="M21.4375,18.171875 C21.703125,17.828125 21.9375,17.5 22.203125,17.5 C22.421875,17.5 22.578125,17.6875 22.578125,17.921875 C22.578125,18.1875 22.375,18.578125 21.984375,18.890625 C21.671875,19.15625 21.140625,19.390625 20.515625,19.578125 L20.296875,19.296875 C20.859375,18.84375 21.140625,18.5 21.4375,18.171875 Z M22.515625,19.25 C22.828125,18.9375 23.046875,18.59375 23.296875,18.625 C23.515625,18.625 23.65625,18.8125 23.65625,19.078125 C23.65625,19.375 23.40625,19.734375 22.984375,20.015625 C22.65625,20.234375 22.171875,20.421875 21.53125,20.59375 L21.3125,20.28125 C21.90625,19.84375 22.21875,19.5625 22.515625,19.25 Z M13.03125,7.0625 L12.84375,6.640625 C13.984375,5.921875 14.640625,5.375 15.171875,4.828125 C15.5,4.484375 15.859375,4.0625 16.15625,4.0625 C16.578125,4.0625 16.734375,4.390625 16.734375,4.65625 C16.734375,5.09375 16.296875,5.59375 15.71875,6 C15.078125,6.453125 14.109375,6.796875 13.03125,7.0625 Z M22.296875,5.421875 L21.890625,5.71875 C21.09375,4.78125 19.921875,3.546875 18.578125,2.46875 C17.453125,1.5625 15.03125,-0.078125 14.28125,-0.078125 C13.890625,-0.078125 13.421875,0.390625 13.0625,0.75 L12.75,0.53125 C12.75,0.34375 12.84375,-0.3125 12.953125,-0.4375 C13.265625,-0.890625 14.109375,-1.53125 14.6875,-1.53125 C15.078125,-1.53125 15.1875,-1.15625 15.40625,-1.03125 C16.421875,-0.4375 18.140625,0.71875 19.21875,1.703125 C20.5,2.828125 21.625,4.125 22.296875,5.421875 Z M16.734375,12.28125 L16.484375,11.90625 C17.046875,11.5625 17.453125,11.328125 17.6875,11.0625 C17.859375,10.875 17.875,10.78125 17.953125,10.5625 C18.046875,10.265625 18.1875,10.125 18.484375,10.125 C18.953125,10.125 19.4375,10.609375 19.78125,11.203125 C20.546875,12.640625 20.78125,14.1875 21.171875,15.984375 C21.21875,16.3125 21.59375,16.3125 21.59375,16.578125 C21.59375,16.9375 20.65625,17.5625 20.40625,17.5625 C20.15625,17.5625 20.015625,17.28125 19.734375,17.234375 C19.34375,17.15625 18.40625,17.0625 17.375,16.96875 L17.71875,18.40625 C17.828125,18.84375 18.078125,18.953125 18.078125,19.203125 C18.078125,19.53125 17.09375,19.9375 16.609375,19.9375 C16.3125,19.9375 15.71875,19.65625 15.5,19.578125 L15.578125,19.21875 C15.84375,19.203125 16.0625,19.203125 16.265625,19.15625 C16.390625,19.125 16.578125,19.125 16.578125,18.890625 C16.578125,18.53125 16.421875,17.609375 16.25,16.890625 C15.046875,16.796875 13.921875,16.734375 13.578125,16.75 C13.265625,16.78125 13.03125,17.328125 12.890625,17.5625 L12.546875,17.453125 C12.53125,17.203125 12.484375,16.796875 12.546875,16.5625 C12.625,16.21875 13.171875,15.546875 13.53125,15.546875 C13.78125,15.546875 13.890625,15.71875 14.25,15.8125 C14.59375,15.890625 15.390625,15.953125 16.03125,16.03125 C15.546875,14.5625 14.5,12.078125 12.078125,10.25 L12.390625,9.859375 C15.71875,11.640625 16.78125,14.828125 17.15625,16.15625 C18.140625,16.265625 19.421875,16.390625 19.921875,16.390625 C20.015625,16.390625 20.046875,16.375 20.046875,16.265625 C20.015625,15.578125 19.609375,12.8125 18.859375,11.828125 C18.765625,11.65625 18.59375,11.640625 18.40625,11.71875 C17.96875,11.8125 17.28125,12.078125 16.734375,12.28125 Z M3.125,7.984375 L3.140625,7.5625 C3.890625,7.46875 4.15625,7.4375 4.203125,7.109375 C4.265625,6.484375 4.265625,5.046875 4.265625,3.984375 C4.265625,2.96875 4.25,1.125 4.171875,0.171875 C4.125,-0.4375 4.015625,-0.84375 4.015625,-1.21875 C4.015625,-1.78125 4.34375,-2.203125 4.75,-2.203125 C5.1875,-2.203125 5.28125,-1.890625 5.28125,-1.515625 L5.25,3.765625 C6.171875,3.546875 6.90625,3.1875 7.46875,2.6875 C8.15625,2.0625 8.359375,1.625 8.8125,1.625 C9.140625,1.625 9.28125,1.921875 9.28125,2.1875 C9.28125,2.59375 8.953125,2.96875 8.5625,3.234375 C7.84375,3.796875 6.71875,4.265625 5.25,4.4375 C5.25,5.109375 5.296875,5.953125 5.359375,6.53125 C5.375,6.953125 5.734375,6.90625 5.734375,7.265625 C5.734375,7.65625 4.703125,8.203125 4.25,8.203125 C3.890625,8.203125 3.40625,8.09375 3.125,7.984375 Z M3,17.609375 L2.78125,17.203125 C3.859375,16.5625 4.875,15.859375 5.71875,15.234375 C4.34375,13.34375 2.734375,12 0.90625,10.75 L1.171875,10.3125 C3.234375,11.140625 5.109375,12.703125 6.53125,14.546875 C7.203125,13.890625 7.75,13.265625 8.015625,12.9375 C8.28125,12.59375 8.515625,12.28125 8.8125,12.28125 C9.21875,12.28125 9.359375,12.625 9.359375,12.9375 C9.359375,13.265625 9.140625,13.625 8.921875,13.921875 C8.59375,14.359375 7.875,15.03125 7.203125,15.5 C7.890625,16.515625 8.375,17.453125 8.734375,18.125 C8.875,18.390625 9.265625,18.390625 9.265625,18.703125 C9.265625,19.203125 8.28125,19.96875 7.734375,20.015625 C7.53125,20.046875 7.015625,19.984375 6.765625,19.9375 L6.75,19.515625 C7.265625,19.421875 7.65625,19.203125 7.65625,18.984375 C7.65625,18.546875 6.953125,17.203125 6.28125,16.109375 C5.453125,16.625 4.3125,17.203125 3,17.609375 Z" transform="translate(-0.28125, 20.59375) scale(1, -1)"/>
</svg>