<svg height="23.375" viewBox="0 0 24 23.375" width="24" xmlns="http://www.w3.org/2000/svg">
<path d="M8.5,5.5625 C8.765625,5.234375 9,4.890625 9.234375,4.890625 C9.453125,4.890625 9.640625,5.046875 9.640625,5.296875 C9.640625,5.5625 9.453125,5.953125 9.078125,6.28125 C8.765625,6.53125 8.25,6.796875 7.625,7.015625 L7.421875,6.71875 C7.9375,6.265625 8.234375,5.90625 8.5,5.5625 Z M9.671875,6.625 C9.953125,6.3125 10.171875,5.953125 10.4375,5.96875 C10.65625,5.96875 10.828125,6.171875 10.828125,6.4375 C10.828125,6.71875 10.578125,7.078125 10.171875,7.375 C9.859375,7.609375 9.390625,7.828125 8.734375,7.984375 L8.5,7.6875 C9.078125,7.25 9.390625,6.953125 9.671875,6.625 Z M8.359375,19.3125 C8.359375,18.453125 9.046875,17.765625 9.90625,17.765625 C10.75,17.765625 11.453125,18.453125 11.453125,19.3125 C11.453125,20.15625 10.75,20.859375 9.90625,20.859375 C9.046875,20.859375 8.359375,20.15625 8.359375,19.3125 Z M8.953125,19.3125 C8.953125,19.828125 9.390625,20.234375 9.90625,20.234375 C10.421875,20.234375 10.828125,19.828125 10.828125,19.3125 C10.828125,18.796875 10.421875,18.359375 9.90625,18.359375 C9.390625,18.359375 8.953125,18.796875 8.953125,19.3125 Z M9.765625,11.6875 C9.859375,11.40625 10.0625,11.140625 10.375,11.140625 C10.796875,11.140625 10.9375,11.46875 10.9375,11.828125 C10.9375,12.40625 10.46875,13.15625 9.84375,13.6875 C9.390625,14.046875 8.828125,14.359375 8.234375,14.5625 L7.96875,14.25 C8.453125,13.890625 8.859375,13.515625 9.09375,13.15625 C9.40625,12.71875 9.53125,12.34375 9.765625,11.6875 Z M3.765625,14.25 L3.3125,14.40625 C3.03125,13.625 2.59375,12.984375 1.703125,12.34375 C1.3125,12.046875 1.0625,11.828125 1.0625,11.453125 C1.0625,11.1875 1.25,10.921875 1.609375,10.921875 C1.9375,10.921875 2.234375,11.140625 2.546875,11.5 C3.28125,12.3125 3.625,13.484375 3.765625,14.25 Z M14.09375,18.640625 L13.875,18.234375 C15.03125,17.546875 15.703125,16.96875 16.203125,16.421875 C16.5625,16.078125 16.890625,15.640625 17.1875,15.640625 C17.609375,15.640625 17.765625,15.984375 17.765625,16.25 C17.765625,16.6875 17.328125,17.1875 16.75,17.59375 C16.109375,18.046875 15.171875,18.390625 14.09375,18.640625 Z M23.328125,17.015625 L22.921875,17.296875 C22.125,16.375 20.96875,15.140625 19.625,14.0625 C18.5,13.15625 16.078125,11.515625 15.34375,11.515625 C14.921875,11.515625 14.453125,11.96875 14.09375,12.34375 L13.78125,12.125 C13.796875,11.921875 13.875,11.296875 13.984375,11.15625 C14.296875,10.703125 15.140625,10.0625 15.71875,10.0625 C16.109375,10.0625 16.25,10.4375 16.46875,10.5625 C17.453125,11.15625 19.203125,12.3125 20.28125,13.296875 C21.53125,14.453125 22.6875,15.71875 23.328125,17.015625 Z M3.28125,7.6875 L3.3125,7.25 C4.078125,7.15625 4.34375,7.125 4.390625,6.796875 C4.46875,6.171875 4.46875,4.734375 4.46875,3.671875 C4.46875,2.65625 4.4375,0.8125 4.375,-0.140625 C4.296875,-0.75 4.171875,-1.15625 4.171875,-1.515625 C4.171875,-2.09375 4.515625,-2.515625 4.9375,-2.515625 C5.375,-2.515625 5.46875,-2.1875 5.46875,-1.828125 L5.421875,3.484375 C6.359375,3.265625 7.109375,2.875 7.65625,2.375 C8.328125,1.75 8.546875,1.34375 9,1.34375 C9.3125,1.34375 9.484375,1.609375 9.484375,1.875 C9.484375,2.28125 9.140625,2.65625 8.765625,2.953125 C8.015625,3.484375 6.890625,3.953125 5.421875,4.125 C5.421875,4.828125 5.46875,5.640625 5.546875,6.21875 C5.5625,6.671875 5.90625,6.625 5.90625,6.953125 C5.90625,7.375 4.875,7.890625 4.4375,7.890625 C4.0625,7.890625 3.59375,7.78125 3.28125,7.6875 Z M1.296875,17.09375 L1.015625,16.9375 C1.015625,16.703125 1.015625,16.25 1.078125,16.109375 C1.296875,15.578125 1.96875,15.171875 2.296875,15.171875 C2.59375,15.171875 2.859375,15.390625 3.234375,15.453125 C3.90625,15.59375 4.796875,15.71875 5.5625,15.796875 L5.5625,14.953125 C5.5625,13.875 5.5625,11.65625 5.515625,11.09375 C5.515625,10.921875 5.40625,10.890625 5.25,10.921875 C4.984375,10.984375 4.3125,11.203125 3.9375,11.328125 L3.796875,10.921875 C4.171875,10.734375 4.796875,10.375 5.046875,10.109375 C5.328125,9.796875 5.203125,9.28125 5.65625,9.28125 C6.21875,9.3125 6.59375,9.953125 6.59375,10.515625 C6.59375,10.875 6.546875,11.421875 6.546875,12.09375 C6.546875,12.703125 6.53125,13.96875 6.53125,14.78125 L6.53125,15.90625 C7.375,15.984375 8.421875,16.015625 8.875,16.015625 C9.40625,16.015625 9.90625,15.953125 10.34375,15.953125 C10.6875,15.953125 10.84375,16.125 10.84375,16.390625 C10.84375,16.75 10.265625,17.15625 9.671875,17.15625 C9.359375,17.15625 9.265625,17.046875 8.453125,16.9375 L6.53125,16.75 L6.578125,18.21875 C6.625,18.53125 6.90625,18.59375 6.90625,18.859375 C6.90625,19.203125 5.875,19.625 5.359375,19.625 C5.046875,19.625 4.53125,19.4375 4.296875,19.34375 L4.34375,18.953125 C5.109375,18.859375 5.40625,18.8125 5.453125,18.546875 C5.5,18.265625 5.515625,17.453125 5.546875,16.625 C4.53125,16.53125 2.609375,16.3125 2.234375,16.3125 C1.921875,16.3125 1.734375,16.53125 1.296875,17.09375 Z" transform="translate(-0.171875, 20.859375) scale(1, -1)"/>
</svg>