<svg height="21.40625" viewBox="0 0 24 21.40625" width="24" xmlns="http://www.w3.org/2000/svg">
<path d="M10.375,7.171875 C10.625,6.84375 10.84375,6.5 11.109375,6.5 C11.328125,6.5 11.5,6.703125 11.5,6.9375 C11.5,7.203125 11.296875,7.578125 10.921875,7.890625 C10.609375,8.15625 10.109375,8.40625 9.484375,8.59375 L9.234375,8.296875 C9.796875,7.84375 10.078125,7.515625 10.375,7.171875 Z M11.5,8.25 C11.78125,7.9375 12,7.609375 12.265625,7.609375 C12.5,7.609375 12.640625,7.828125 12.640625,8.0625 C12.640625,8.375 12.40625,8.71875 12,9 C11.65625,9.234375 11.1875,9.4375 10.53125,9.59375 L10.3125,9.265625 C10.890625,8.859375 11.203125,8.59375 11.5,8.25 Z M2.453125,6.140625 C2.109375,6.140625 1.84375,6.625 1.65625,6.953125 L1.25,6.84375 C1.25,6.5 1.296875,6.046875 1.34375,5.875 C1.46875,5.46875 2.109375,4.84375 2.546875,4.84375 C2.8125,4.84375 3,5.046875 3.359375,5.140625 C4.0625,5.296875 7.921875,5.78125 8.5,5.78125 C8.5625,5.78125 8.640625,5.765625 8.609375,5.640625 C8.375,4.703125 7.703125,3.1875 6.703125,1.84375 C5.5,0.265625 3.953125,-0.796875 2.25,-1.75 L2.515625,-2.1875 C4.53125,-1.53125 6.1875,-0.40625 7.578125,1.265625 C8.5,2.375 9.171875,3.59375 9.671875,4.828125 C9.859375,5.203125 10.3125,5.328125 10.3125,5.640625 C10.3125,6.140625 9.1875,6.984375 8.8125,6.984375 C8.59375,6.984375 8.453125,6.75 8.140625,6.671875 C7.578125,6.578125 3.140625,6.140625 2.453125,6.140625 Z M16.6875,7.03125 L16.78125,6.640625 C17.375,6.59375 17.78125,6.578125 17.8125,6.234375 C17.90625,4.9375 17.765625,1.796875 17.765625,0.71875 C17.734375,0.21875 17.515625,0.125 17.515625,-0.09375 C17.515625,-0.34375 18.046875,-1.171875 18.40625,-1.171875 C18.671875,-1.171875 18.75,-0.8125 19.03125,-0.640625 C20.1875,-0.078125 20.8125,0.34375 21.640625,0.984375 C22.578125,1.703125 23.375,2.6875 23.78125,3.359375 L23.421875,3.671875 C22.875,3.03125 22.015625,2.25 21.1875,1.734375 C20.640625,1.375 19.828125,0.8125 18.8125,0.53125 C18.796875,0.546875 18.765625,0.59375 18.765625,0.671875 C18.796875,1.6875 18.890625,5.203125 18.9375,5.765625 C18.953125,6.140625 19.265625,6.125 19.265625,6.4375 C19.265625,6.765625 18.359375,7.34375 17.6875,7.34375 C17.421875,7.34375 16.96875,7.171875 16.6875,7.03125 Z M14.234375,5.65625 L14.234375,5.25 C14.515625,5.203125 15.234375,5.015625 15.234375,4.734375 C15.234375,4.15625 14.921875,2.515625 14.203125,1.25 C13.625,0.28125 12.9375,-0.5 12.171875,-1.125 L12.453125,-1.46875 C13.46875,-1.015625 14.40625,-0.140625 15.078125,0.859375 C15.765625,1.9375 15.984375,2.96875 16.265625,4.0625 C16.375,4.375 16.625,4.390625 16.625,4.6875 C16.625,5.140625 15.671875,5.828125 15.140625,5.828125 C14.828125,5.828125 14.421875,5.734375 14.234375,5.65625 Z M4.921875,18.90625 L4.984375,18.53125 C5.609375,18.484375 6.03125,18.453125 6.046875,18.125 C6.140625,16.828125 6,13.65625 6,12.578125 C5.96875,12.078125 5.765625,12 5.765625,11.765625 C5.765625,11.515625 6.265625,10.703125 6.640625,10.703125 C6.90625,10.703125 6.984375,11.0625 7.265625,11.203125 C8.421875,11.8125 9.046875,12.21875 9.859375,12.859375 C10.828125,13.578125 11.609375,14.5625 12.03125,15.21875 L11.65625,15.546875 C11.09375,14.875 10.25,14.109375 9.4375,13.578125 C8.875,13.21875 8.0625,12.703125 7.0625,12.390625 C7.03125,12.40625 7.015625,12.484375 7.015625,12.546875 C7.03125,13.53125 7.125,17.09375 7.171875,17.609375 C7.203125,18 7.515625,17.96875 7.515625,18.3125 C7.515625,18.640625 6.59375,19.21875 5.921875,19.21875 C5.65625,19.21875 5.203125,19.03125 4.921875,18.90625 Z M2.46875,17.546875 L2.46875,17.140625 C2.765625,17.09375 3.453125,16.875 3.453125,16.578125 C3.453125,16.015625 3.171875,14.375 2.453125,13.109375 C1.875,12.171875 1.171875,11.375 0.40625,10.75 L0.703125,10.390625 C1.6875,10.84375 2.640625,11.734375 3.3125,12.75 C3.984375,13.796875 4.21875,14.828125 4.515625,15.9375 C4.609375,16.25 4.875,16.265625 4.875,16.53125 C4.875,17.015625 3.90625,17.71875 3.390625,17.71875 C3.078125,17.71875 2.65625,17.609375 2.46875,17.546875 Z M13.53125,16.390625 L13.25,16.25 C13.21875,16.015625 13.21875,15.625 13.265625,15.4375 C13.4375,14.875 14.203125,14.28125 14.5625,14.28125 C14.8125,14.28125 14.96875,14.421875 15.28125,14.5 C15.71875,14.59375 16.203125,14.6875 16.921875,14.734375 C17.875,14.8125 19.515625,14.90625 20.609375,14.90625 C21.53125,14.90625 22.15625,14.8125 22.578125,14.8125 C23.015625,14.8125 23.109375,15.046875 23.109375,15.28125 C23.109375,15.75 22.296875,16.15625 21.671875,16.15625 C21.359375,16.15625 21.09375,15.984375 20.328125,15.90625 C19.734375,15.859375 15.640625,15.59375 14.546875,15.59375 C14.109375,15.59375 13.875,15.984375 13.53125,16.390625 Z" transform="translate(-0.09375, 19.21875) scale(1, -1)"/>
</svg>