<svg height="21.671875" viewBox="0 0 24 21.671875" width="24" xmlns="http://www.w3.org/2000/svg">
<path d="M1.890625,18.765625 L1.96875,18.40625 C2.828125,18.3125 3,18.171875 3,17.953125 C3.09375,16.96875 3.046875,12.859375 3.046875,12.078125 C3.03125,11.59375 2.828125,11.421875 2.828125,11.234375 C2.828125,10.9375 3.484375,10.203125 3.890625,10.203125 C4.203125,10.203125 4.25,10.515625 4.609375,10.734375 C5.46875,11.15625 6.453125,11.640625 7.421875,12.234375 C8.859375,13.15625 10.625,14.59375 11.421875,15.640625 L11.046875,16.03125 C9.953125,15.046875 8.515625,13.921875 7.03125,13.078125 C6.078125,12.53125 4.984375,12.046875 4.109375,11.78125 C4.078125,11.828125 4.078125,11.875 4.078125,11.953125 C4.078125,13.171875 4.078125,16.515625 4.15625,17.453125 C4.171875,17.859375 4.46875,18 4.46875,18.21875 C4.46875,18.578125 3.453125,19.109375 2.875,19.109375 C2.609375,19.109375 2.15625,18.90625 1.890625,18.765625 Z M13.375,19.265625 L13.15625,18.859375 C14.328125,18.140625 14.96875,17.59375 15.5,17.046875 C15.84375,16.703125 16.171875,16.265625 16.484375,16.265625 C16.921875,16.265625 17.0625,16.609375 17.0625,16.875 C17.0625,17.28125 16.625,17.78125 16.0625,18.1875 C15.40625,18.671875 14.453125,19.015625 13.375,19.265625 Z M22.625,17.640625 L22.21875,17.921875 C21.4375,16.96875 20.25,15.765625 18.90625,14.65625 C17.78125,13.78125 15.359375,12.125 14.609375,12.125 C14.234375,12.125 13.75,12.59375 13.390625,12.953125 L13.078125,12.75 C13.078125,12.53125 13.171875,11.90625 13.296875,11.765625 C13.578125,11.296875 14.453125,10.65625 15.03125,10.65625 C15.40625,10.65625 15.53125,11.0625 15.75,11.1875 C16.75,11.78125 18.484375,12.9375 19.5625,13.921875 C20.828125,15.046875 21.953125,16.34375 22.625,17.640625 Z M17.046875,7.203125 L16.796875,6.8125 C17.609375,6.125 18.046875,5.59375 18.4375,5.046875 C18.671875,4.6875 18.984375,4.296875 19.25,4.296875 C19.578125,4.296875 19.796875,4.53125 19.796875,4.890625 C19.796875,5.359375 19.421875,5.859375 18.90625,6.265625 C18.40625,6.640625 17.78125,6.9375 17.046875,7.203125 Z M23.65625,5.859375 L23.234375,6.078125 C22.734375,5.09375 21.84375,3.625 20.78125,2.359375 C19.828125,1.15625 18.5,-0.140625 18.046875,-0.140625 C17.78125,-0.140625 17.359375,0.234375 17.0625,0.53125 L16.75,0.3125 C16.78125,0.046875 16.875,-0.4375 16.9375,-0.578125 C17.1875,-1.015625 17.90625,-1.625 18.3125,-1.625 C18.578125,-1.625 18.765625,-1.21875 18.9375,-1.078125 C19.609375,-0.5 20.40625,0.28125 21.40625,1.578125 C22.375,2.859375 23.1875,4.46875 23.65625,5.859375 Z M13.6875,6.75 C13.890625,6.359375 14.015625,6.078125 14.234375,6.03125 C14.453125,6.03125 14.65625,6.1875 14.6875,6.453125 C14.6875,6.71875 14.59375,7.109375 14.25,7.4375 C14.015625,7.734375 13.578125,7.984375 13.078125,8.234375 L12.8125,7.921875 C13.25,7.4375 13.46875,7.109375 13.6875,6.75 Z M14.921875,7.4375 C15.140625,7.078125 15.3125,6.75 15.546875,6.765625 C15.75,6.75 15.9375,6.9375 15.9375,7.171875 C15.953125,7.46875 15.765625,7.84375 15.453125,8.15625 C15.1875,8.40625 14.8125,8.640625 14.28125,8.828125 L14.015625,8.5 C14.5,8.09375 14.71875,7.78125 14.921875,7.4375 Z M1.203125,8.015625 L1.21875,7.609375 C1.984375,7.515625 2.140625,7.484375 2.15625,7.15625 C2.234375,6.53125 2.25,5.0625 2.25,4.03125 C2.25,3.03125 2.203125,1.125 2.140625,0.171875 C2.09375,-0.4375 2.015625,-0.84375 2.015625,-1.203125 C2.015625,-1.78125 2.296875,-2.203125 2.71875,-2.203125 C3.140625,-2.203125 3.234375,-1.890625 3.234375,-1.515625 L3.1875,3.8125 C3.84375,3.53125 4.34375,3.265625 4.84375,2.78125 C5.421875,2.203125 5.65625,1.75 6.03125,1.75 C6.28125,1.75 6.53125,1.9375 6.53125,2.328125 C6.53125,2.78125 6.09375,3.1875 5.6875,3.484375 C5.046875,3.953125 4.171875,4.25 3.21875,4.46875 C3.21875,5.15625 3.265625,6 3.3125,6.578125 C3.34375,7.015625 3.625,7.03125 3.625,7.3125 C3.625,7.703125 2.640625,8.25 2.203125,8.25 C1.84375,8.25 1.515625,8.140625 1.203125,8.015625 Z M9.140625,-2.015625 L9.453125,-2.40625 C10.875,-1.515625 11.71875,-0.390625 12.34375,0.890625 C12.671875,1.578125 13.015625,2.640625 13.171875,3.171875 C13.265625,3.40625 13.515625,3.5 13.484375,3.71875 C13.46875,3.890625 13.171875,4.15625 12.796875,4.375 L13.796875,4.4375 C14.25,4.484375 14.828125,4.46875 15.265625,4.484375 C15.703125,4.515625 15.75,4.734375 15.75,4.921875 C15.75,5.296875 15.046875,5.609375 14.78125,5.609375 C14.609375,5.609375 14.453125,5.515625 13.984375,5.40625 C13.390625,5.234375 11.328125,5.0625 10.6875,5.0625 L10.484375,5.109375 C10.78125,5.640625 11.09375,6.34375 11.25,6.75 C11.375,6.984375 11.640625,7.109375 11.640625,7.34375 C11.640625,7.609375 10.96875,8.203125 10.53125,8.296875 C10.265625,8.375 9.84375,8.359375 9.640625,8.296875 L9.546875,7.984375 C9.71875,7.890625 9.9375,7.796875 10.109375,7.703125 C10.203125,7.625 10.25,7.515625 10.25,7.390625 C10.21875,6.890625 9.71875,5.6875 9.40625,5.015625 C9.046875,4.296875 8.515625,3.40625 7.609375,2.28125 L7.984375,1.9375 C8.828125,2.640625 9.484375,3.40625 10.109375,4.390625 C10.25,4.25 10.421875,4.125 10.53125,4.125 C10.703125,4.125 10.984375,4.21875 11.25,4.25 L11.90625,4.296875 C12.078125,4.171875 12.140625,4.015625 12.140625,3.8125 C12.140625,3.3125 11.765625,2.046875 11.40625,1.21875 C10.875,0.03125 10.265625,-0.90625 9.140625,-2.015625 Z" transform="translate(-0.4296875, 19.265625) scale(1, -1)"/>
</svg>