<svg height="21.859375" viewBox="0 0 24 21.859375" width="24" xmlns="http://www.w3.org/2000/svg">
<path d="M16.53125,17.6875 L16.21875,17.421875 C16.421875,17.203125 16.6875,16.796875 16.921875,16.3125 C17.203125,15.703125 17.234375,15.140625 17.640625,15.125 C18.03125,15.125 18.1875,15.40625 18.1875,15.671875 C18.1875,15.984375 18,16.484375 17.640625,16.84375 C17.40625,17.109375 17.0625,17.421875 16.53125,17.6875 Z M14.96875,10.21875 L15.21875,9.84375 C17.328125,10.5625 18.484375,11.609375 19.390625,12.75 C20.28125,13.828125 20.8125,14.953125 21.265625,15.953125 C21.40625,16.25 21.75,16.25 21.75,16.53125 C21.75,16.921875 20.921875,17.5625 20.46875,17.65625 C20.28125,17.71875 19.9375,17.6875 19.703125,17.6875 L19.578125,17.328125 C19.984375,17.140625 20.28125,16.9375 20.28125,16.75 C20.28125,16.421875 19.65625,14.6875 18.625,13.375 C17.765625,12.265625 16.703125,11.1875 14.96875,10.21875 Z M14.140625,16.921875 L13.796875,16.625 C13.984375,16.390625 14.296875,15.90625 14.515625,15.453125 C14.765625,14.953125 14.953125,14.25 15.34375,14.25 C15.671875,14.25 15.859375,14.46875 15.859375,14.78125 C15.859375,15.21875 15.625,15.75 15.171875,16.15625 C14.921875,16.390625 14.46875,16.734375 14.140625,16.921875 Z M3.640625,7.984375 L3.671875,7.5625 C4.4375,7.46875 4.703125,7.4375 4.75,7.109375 C4.828125,6.484375 4.828125,5.046875 4.828125,3.984375 C4.828125,2.96875 4.796875,1.125 4.734375,0.171875 C4.6875,-0.4375 4.5625,-0.84375 4.5625,-1.203125 C4.5625,-1.78125 4.875,-2.203125 5.296875,-2.203125 C5.734375,-2.203125 5.828125,-1.875 5.828125,-1.515625 L5.78125,3.796875 C6.71875,3.578125 7.46875,3.1875 8.015625,2.6875 C8.6875,2.0625 8.90625,1.65625 9.359375,1.65625 C9.671875,1.65625 9.84375,1.921875 9.84375,2.1875 C9.84375,2.59375 9.5,2.96875 9.125,3.265625 C8.375,3.796875 7.25,4.265625 5.78125,4.4375 C5.78125,5.140625 5.828125,5.953125 5.90625,6.53125 C5.921875,6.984375 6.265625,6.9375 6.265625,7.265625 C6.265625,7.6875 5.234375,8.203125 4.796875,8.203125 C4.421875,8.203125 3.953125,8.09375 3.640625,7.984375 Z M2.046875,19.65625 L1.78125,19.34375 C2.296875,18.8125 2.5625,18.34375 2.640625,18.046875 C2.734375,17.609375 2.765625,16.703125 2.765625,16.296875 C2.765625,15.859375 2.65625,15.703125 2.65625,15.359375 C2.65625,15.046875 2.90625,14.203125 3.40625,14.203125 C3.859375,14.203125 3.859375,14.59375 3.859375,14.96875 C3.859375,15.28125 3.84375,15.75 3.84375,16.15625 L3.796875,17.96875 C3.984375,17.859375 4.203125,17.78125 4.34375,17.765625 C4.53125,17.765625 4.75,17.8125 5.140625,17.859375 C5.953125,17.953125 8.515625,18.140625 9.21875,18.140625 C9.28125,18.140625 9.34375,18.09375 9.3125,18.03125 C9.03125,16.734375 8.546875,15.5 7.703125,14.140625 C6.71875,12.5 5.25,11.296875 3.8125,10.390625 L4.109375,9.953125 C5.59375,10.515625 7.203125,11.546875 8.46875,13.3125 C9.5,14.734375 10.15625,16.5625 10.53125,17.5625 C10.703125,17.953125 11.140625,17.921875 11.140625,18.3125 C11.140625,18.703125 10.0625,19.390625 9.75,19.390625 C9.4375,19.390625 9.34375,19.0625 8.875,19.015625 C7.734375,18.859375 4.796875,18.71875 3.59375,18.75 C3.484375,18.890625 3.140625,19.265625 2.90625,19.375 C2.71875,19.484375 2.421875,19.5625 2.046875,19.65625 Z" transform="translate(0.234375, 19.65625) scale(1, -1)"/>
</svg>