<svg height="24" viewBox="0 0 24 24" width="24" xmlns="http://www.w3.org/2000/svg">
<path d="M20.5625,18.953125 C20.5625,18.125 21.28125,17.40625 22.125,17.40625 C22.96875,17.40625 23.6875,18.125 23.6875,18.953125 C23.6875,19.796875 22.96875,20.5 22.125,20.5 C21.28125,20.5 20.5625,19.796875 20.5625,18.953125 Z M21.1875,18.953125 C21.1875,19.484375 21.59375,19.890625 22.125,19.890625 C22.65625,19.890625 23.0625,19.484375 23.0625,18.953125 C23.0625,18.453125 22.65625,18.03125 22.125,18.03125 C21.59375,18.03125 21.1875,18.453125 21.1875,18.953125 Z M5.046875,18.703125 L5.109375,18.3125 C5.734375,18.265625 6.140625,18.234375 6.171875,17.90625 C6.265625,16.609375 6.125,13.4375 6.125,12.359375 C6.09375,11.875 5.875,11.78125 5.875,11.546875 C5.875,11.328125 6.390625,10.484375 6.765625,10.484375 C7.03125,10.484375 7.109375,10.84375 7.390625,10.984375 C8.546875,11.59375 9.171875,12 9.984375,12.640625 C10.9375,13.375 11.734375,14.359375 12.140625,15 L11.78125,15.34375 C11.203125,14.6875 10.375,13.890625 9.546875,13.375 C9,13.015625 8.1875,12.484375 7.171875,12.171875 C7.15625,12.1875 7.125,12.265625 7.125,12.34375 C7.15625,13.34375 7.25,16.875 7.296875,17.40625 C7.3125,17.78125 7.625,17.765625 7.625,18.09375 C7.625,18.4375 6.71875,19.015625 6.046875,19.015625 C5.78125,19.015625 5.328125,18.8125 5.046875,18.703125 Z M2.59375,17.328125 L2.59375,16.921875 C2.875,16.875 3.578125,16.65625 3.578125,16.375 C3.578125,15.796875 3.28125,14.15625 2.5625,12.890625 C1.984375,11.953125 1.296875,11.15625 0.53125,10.53125 L0.8125,10.171875 C1.796875,10.625 2.765625,11.515625 3.4375,12.53125 C4.109375,13.578125 4.34375,14.609375 4.625,15.71875 C4.734375,16.03125 4.984375,16.0625 4.984375,16.3125 C4.984375,16.796875 4.03125,17.5 3.5,17.5 C3.1875,17.5 2.78125,17.40625 2.59375,17.328125 Z M1.921875,4.515625 L1.609375,4.375 C1.609375,4.15625 1.609375,3.765625 1.65625,3.546875 C1.828125,3 2.59375,2.421875 2.953125,2.421875 C3.1875,2.421875 3.359375,2.546875 3.671875,2.640625 C4.078125,2.734375 4.578125,2.8125 5.296875,2.859375 C6.265625,2.921875 7.890625,3.03125 8.96875,3.03125 C9.890625,3.03125 10.515625,2.921875 10.96875,2.921875 C11.375,2.921875 11.46875,3.171875 11.46875,3.40625 C11.46875,3.859375 10.6875,4.296875 10.0625,4.296875 C9.75,4.296875 9.484375,4.109375 8.6875,4.0625 C8.109375,3.984375 4.03125,3.71875 2.90625,3.71875 C2.5,3.71875 2.25,4.109375 1.921875,4.515625 Z M18.984375,18.234375 L18.71875,17.96875 C18.9375,17.765625 19.0625,17.59375 19.15625,17.421875 C19.25,17.25 19.25,17.140625 19.078125,17.015625 C18.265625,16.4375 16.609375,15.671875 15,15.171875 C15.046875,16.34375 15.125,17.609375 15.1875,18.140625 C15.21875,18.484375 15.53125,18.546875 15.53125,18.859375 C15.53125,19.171875 14.640625,19.703125 14.109375,19.703125 C13.875,19.703125 13.34375,19.53125 13.03125,19.4375 L13.109375,19.03125 C13.703125,19.015625 13.984375,18.984375 14.046875,18.671875 C14.109375,17.78125 13.921875,13.890625 13.921875,12.703125 C13.9375,10.84375 14.6875,10.296875 17.109375,10.296875 C19.109375,10.296875 20.328125,10.46875 20.859375,10.625 C21.09375,10.734375 21.390625,10.828125 21.390625,11.1875 C21.390625,11.5625 20.875,11.734375 20.28125,11.734375 C19.84375,11.734375 18.796875,11.359375 17.0625,11.359375 C15.578125,11.359375 14.953125,11.515625 14.921875,12.703125 L14.96875,14.421875 C17.046875,14.90625 19.015625,15.71875 19.9375,16.171875 C20.421875,16.421875 20.78125,16.609375 20.78125,16.890625 C20.78125,17.296875 20.28125,17.6875 19.875,17.921875 C19.578125,18.078125 19.265625,18.1875 18.984375,18.234375 Z" transform="translate(-0.109375, 20.5) scale(1, -1)"/>
</svg>