<svg height="21.484375" viewBox="0 0 24 21.484375" width="24" xmlns="http://www.w3.org/2000/svg">
<path d="M20.296875,7.6875 C20.640625,7.703125 20.8125,7.875 20.8125,8.15625 C20.8125,8.546875 20.296875,8.8125 19.65625,8.8125 C19.53125,8.8125 19.21875,8.65625 18.640625,8.546875 C18.140625,8.46875 16.796875,8.328125 15.984375,8.328125 C15.578125,8.328125 15.1875,8.453125 14.609375,8.859375 L14.296875,8.59375 C14.546875,8.140625 14.8125,7.78125 15.046875,7.609375 C15.34375,7.390625 15.625,7.265625 15.953125,7.265625 C16.421875,7.265625 17.765625,7.4375 18.90625,7.5625 C19.484375,7.609375 20.0625,7.65625 20.296875,7.6875 Z M13.375,6.1875 L12.984375,6.046875 C12.984375,5.71875 12.984375,5.296875 13.078125,5.140625 C13.21875,4.75 13.890625,4.0625 14.296875,4.0625 C14.546875,4.0625 14.78125,4.265625 15.140625,4.34375 C16.03125,4.515625 19.21875,4.875 20.328125,4.921875 C20.375,4.921875 20.421875,4.890625 20.375,4.796875 C19.96875,3.75 19.3125,2.640625 18.03125,1.421875 C16.96875,0.390625 15.546875,-0.546875 14.015625,-1.25 L14.25,-1.703125 C16.265625,-1.125 17.78125,-0.21875 18.90625,0.765625 C20.296875,2.015625 20.921875,3.125 21.53125,4.21875 C21.703125,4.46875 22.171875,4.578125 22.171875,4.875 C22.171875,5.328125 21.140625,6.078125 20.765625,6.078125 C20.5,6.078125 20.359375,5.859375 19.96875,5.8125 C19.25,5.71875 15.078125,5.359375 14.25,5.359375 C13.890625,5.359375 13.65625,5.78125 13.375,6.1875 Z M3.71875,9.171875 L3.953125,8.734375 C5.40625,9.265625 6.4375,9.796875 7.15625,10.578125 C8.46875,11.953125 8.609375,13.796875 8.734375,15.078125 C8.765625,15.90625 8.8125,17.28125 8.859375,18.09375 C8.875,18.484375 9.1875,18.578125 9.1875,18.890625 C9.1875,19.21875 8.109375,19.78125 7.515625,19.78125 C7.203125,19.78125 6.765625,19.609375 6.5,19.484375 L6.5,19.078125 C6.859375,19.03125 7.203125,18.953125 7.34375,18.90625 C7.5625,18.8125 7.609375,18.71875 7.625,18.453125 C7.65625,17.46875 7.625,16.390625 7.5625,15.171875 C7.515625,13.578125 7.296875,12.4375 6.4375,11.28125 C5.828125,10.421875 4.75,9.765625 3.71875,9.171875 Z M1.921875,18.984375 L1.984375,18.59375 C2.28125,18.546875 2.59375,18.53125 2.734375,18.484375 C2.96875,18.4375 3.03125,18.359375 3.046875,18.046875 C3.078125,17.5 3.046875,16.6875 3.03125,16.0625 C3,14.765625 2.875,13.984375 2.875,13.4375 C2.875,12.8125 3.171875,12.453125 3.53125,12.453125 C3.859375,12.453125 4.078125,12.640625 4.078125,13.15625 C4.078125,13.578125 4.078125,14.140625 4.078125,15.03125 C4.078125,15.53125 4.109375,17.0625 4.15625,17.5 C4.21875,18.03125 4.46875,18.1875 4.46875,18.453125 C4.46875,18.84375 3.53125,19.296875 3.03125,19.296875 C2.78125,19.296875 2.234375,19.109375 1.921875,18.984375 Z" transform="translate(-0.046875, 19.78125) scale(1, -1)"/>
</svg>