<svg height="20.6875" viewBox="0 0 24 20.6875" width="24" xmlns="http://www.w3.org/2000/svg">
<path d="M2.375,7.4375 L2.1875,7.03125 C3.34375,6.34375 3.984375,5.765625 4.515625,5.203125 C4.84375,4.875 5.203125,4.4375 5.5,4.4375 C5.921875,4.4375 6.078125,4.78125 6.078125,5.0625 C6.078125,5.46875 5.640625,5.96875 5.0625,6.390625 C4.421875,6.84375 3.453125,7.171875 2.375,7.4375 Z M11.640625,5.8125 L11.234375,6.09375 C10.4375,5.15625 9.265625,3.9375 7.921875,2.859375 C6.796875,1.9375 4.375,0.3125 3.625,0.3125 C3.234375,0.3125 2.765625,0.796875 2.40625,1.125 L2.09375,0.90625 C2.09375,0.71875 2.1875,0.09375 2.296875,-0.046875 C2.609375,-0.5 3.453125,-1.15625 4.03125,-1.15625 C4.421875,-1.15625 4.53125,-0.75 4.75,-0.640625 C5.765625,-0.046875 7.484375,1.109375 8.5625,2.09375 C9.84375,3.234375 10.96875,4.515625 11.640625,5.8125 Z M14.234375,10.0625 L14.5,9.625 C16.421875,10.484375 17.421875,11.78125 17.96875,12.703125 C18.40625,13.421875 18.75,14.25 18.9375,14.953125 L19.078125,15.546875 C21.09375,16.609375 22.0625,17.421875 22.421875,17.65625 C22.78125,17.859375 23.28125,17.875 23.28125,18.234375 C23.28125,18.671875 22.203125,19.53125 21.84375,19.53125 C21.625,19.53125 21.484375,19.25 21.140625,19.21875 C20.5,19.125 15.34375,18.640625 14.40625,18.640625 C14.140625,18.640625 13.78125,19.0625 13.53125,19.4375 L13.15625,19.296875 C13.125,19.03125 13.15625,18.625 13.21875,18.4375 C13.421875,17.828125 14.1875,17.296875 14.5625,17.296875 C14.859375,17.296875 14.96875,17.515625 15.390625,17.640625 C15.859375,17.78125 20.78125,18.359375 21.234375,18.359375 C21.328125,18.359375 21.484375,18.390625 21.328125,18.1875 C21.125,17.875 20.109375,16.984375 19.03125,16.296875 C18.796875,16.515625 18.234375,16.703125 17.71875,16.734375 C17.421875,16.75 17.140625,16.703125 16.75,16.625 L16.734375,16.203125 C16.96875,16.125 17.453125,16.03125 17.6875,15.90625 C17.828125,15.84375 17.859375,15.75 17.859375,15.59375 C17.859375,14.90625 17.40625,13.796875 16.984375,13.015625 C16.609375,12.28125 15.71875,11.09375 14.234375,10.0625 Z M0.984375,13.75 L0.671875,13.609375 C0.671875,13.375 0.703125,12.90625 0.765625,12.75 C0.890625,12.453125 1.609375,11.765625 2.140625,11.765625 C2.5,11.765625 2.65625,11.953125 3.125,12.046875 C4.828125,12.34375 6.984375,12.484375 8.109375,12.484375 C10.609375,12.484375 11.28125,12.140625 11.765625,12.140625 C12.078125,12.140625 12.1875,12.390625 12.1875,12.671875 C12.1875,13.0625 11.328125,13.5625 10.796875,13.5625 C10.5625,13.5625 10.375,13.4375 9.671875,13.421875 L8.28125,13.375 C8.5625,14.609375 8.96875,16.46875 9.1875,17.109375 C9.234375,17.25 9.671875,17.453125 9.671875,17.6875 C9.671875,18.046875 8.6875,18.71875 8.328125,18.71875 C8.140625,18.71875 7.875,18.390625 7.609375,18.359375 C7.015625,18.28125 4.46875,18.078125 3.8125,18.078125 C3.546875,18.078125 3.21875,18.546875 3,18.8125 L2.6875,18.71875 C2.65625,18.53125 2.609375,18.140625 2.6875,17.953125 C2.859375,17.5 3.5,16.921875 3.859375,16.921875 C4.125,16.921875 4.390625,17.109375 4.703125,17.1875 C5.296875,17.296875 7.421875,17.5 7.828125,17.5 C7.890625,17.5 7.9375,17.46875 7.921875,17.359375 C7.828125,16.53125 7.421875,14.515625 7.15625,13.3125 C5.328125,13.21875 2.78125,12.953125 2.09375,12.953125 C1.6875,12.953125 1.421875,13.296875 0.984375,13.75 Z" transform="translate(0.0234375, 19.53125) scale(1, -1)"/>
</svg>