<svg height="21.53125" viewBox="0 0 24 21.53125" width="24" xmlns="http://www.w3.org/2000/svg">
<path d="M20.5,4.421875 L20.1875,4.265625 C21.03125,3 21.953125,0.953125 22.078125,-0.578125 C23.421875,-1.828125 24.796875,1.421875 20.5,4.421875 Z M17.96875,4.34375 L17.609375,4.21875 C18.1875,2.96875 18.75,1.03125 18.640625,-0.453125 C19.890625,-1.796875 21.4375,1.265625 17.96875,4.34375 Z M15.546875,4.265625 L15.1875,4.203125 C15.40625,2.921875 15.546875,1.0625 15.34375,-0.40625 C16.4375,-1.796875 18.046875,0.9375 15.546875,4.265625 Z M13.625,4.3125 L13.203125,4.3125 C13.203125,2.828125 12.453125,1.171875 11.78125,0.5 C11.359375,0.140625 11.140625,-0.390625 11.421875,-0.765625 C11.765625,-1.21875 12.546875,-1.015625 12.953125,-0.5 C13.609375,0.234375 14.140625,1.984375 13.625,4.3125 Z M8.515625,8.78125 C7.890625,4.890625 5.734375,2.046875 1.921875,0.625 L2.09375,-0.078125 C7.625,1.3125 10.703125,5.734375 10.703125,11.015625 C10.703125,15.75 8.921875,18.34375 5.90625,18.34375 C3.1875,18.34375 1.203125,16.078125 1.203125,12.890625 C1.203125,9.21875 2.921875,7.390625 5.296875,7.390625 C6.703125,7.390625 7.78125,7.890625 8.515625,8.78125 Z M5.828125,17.546875 C7.578125,17.546875 8.71875,15.71875 8.71875,11.296875 C8.71875,10.75 8.6875,10.203125 8.640625,9.671875 C7.875,8.765625 7.03125,8.28125 5.90625,8.25 C4.390625,8.234375 3.125,10.0625 3.125,12.9375 C3.125,15.765625 4.203125,17.546875 5.828125,17.546875 Z M21.359375,17.65625 L20.359375,16.171875 L18.03125,16.171875 L18.03125,18.765625 C18.640625,18.84375 18.90625,19.109375 18.953125,19.4375 L16.609375,19.703125 L16.609375,12.3125 L14.5625,12.3125 L13.03125,13.015625 L13.03125,5.015625 L13.25,5.015625 C13.84375,5.015625 14.453125,5.359375 14.453125,5.5 L14.453125,6.453125 L20.40625,6.453125 L20.40625,5.1875 L20.609375,5.1875 C21.09375,5.1875 21.8125,5.5625 21.84375,5.734375 L21.84375,11.296875 C22.3125,11.40625 22.703125,11.609375 22.875,11.8125 L21,13.21875 L20.15625,12.3125 L18.03125,12.3125 L18.03125,15.453125 L22.578125,15.453125 C22.921875,15.453125 23.15625,15.578125 23.203125,15.84375 C22.53125,16.578125 21.359375,17.65625 21.359375,17.65625 Z M20.40625,11.59375 L20.40625,7.15625 L14.453125,7.15625 L14.453125,11.59375 Z" transform="translate(-1, 19.703125) scale(1, -1)"/>
</svg>