<svg height="21.546875" viewBox="0 0 24 21.546875" width="24" xmlns="http://www.w3.org/2000/svg">
<path d="M20.765625,4.421875 L20.421875,4.265625 C21.171875,3 22.015625,0.953125 22.03125,-0.578125 C23.375,-1.84375 24.75,1.34375 20.765625,4.421875 Z M18.5,4.34375 L18.140625,4.21875 C18.671875,2.96875 19.171875,1.03125 19.0625,-0.453125 C20.25,-1.78125 21.796875,1.21875 18.5,4.34375 Z M16.296875,4.265625 L15.90625,4.203125 C16.15625,2.921875 16.265625,1.0625 16.078125,-0.40625 C17.15625,-1.78125 18.71875,0.9375 16.296875,4.265625 Z M14.59375,4.3125 L14.15625,4.3125 C14.203125,2.828125 13.53125,1.125 12.859375,0.484375 C12.484375,0.09375 12.28125,-0.40625 12.546875,-0.796875 C12.890625,-1.21875 13.65625,-0.984375 14.0625,-0.484375 C14.65625,0.28125 15.125,2.015625 14.59375,4.3125 Z M0.90625,0.3125 L6.4375,0.3125 L6.4375,1.9375 L1.78125,1.9375 L4.171875,6.9375 C5.359375,9.390625 6.1875,12.140625 6.1875,14.1875 C6.1875,16.796875 5.359375,18.4375 3.546875,18.4375 C2.015625,18.4375 1.078125,17.140625 0.953125,14.828125 C1.109375,14.5 1.4375,14.296875 1.75,14.296875 C2.109375,14.296875 2.421875,14.640625 2.5,15.484375 L2.6875,17.65625 C2.875,17.765625 3.09375,17.8125 3.3125,17.8125 C4.125,17.8125 4.609375,16.703125 4.609375,14.140625 C4.609375,12 4.015625,9.359375 3.125,7.125 L0.90625,1.609375 Z M7.078125,17.28125 L7.078125,16.515625 L8.96875,16.890625 L8.96875,6.09375 L8.921875,1.125 L7.0625,0.953125 L7.0625,0.3125 L12.234375,0.3125 L12.234375,0.953125 L10.484375,1.125 L10.46875,6.09375 L10.46875,14.015625 L10.5625,18.046875 L10.21875,18.359375 Z M21.453125,17.65625 L20.46875,16.171875 L18.59375,16.171875 L18.59375,18.765625 C19.21875,18.84375 19.46875,19.109375 19.515625,19.4375 L17.203125,19.703125 L17.203125,12.3125 L15.53125,12.3125 L14.015625,13.015625 L14.015625,5.015625 L14.234375,5.015625 C14.8125,5.015625 15.40625,5.359375 15.40625,5.5 L15.40625,6.453125 L20.59375,6.453125 L20.59375,5.1875 L20.78125,5.1875 C21.265625,5.1875 21.953125,5.5625 21.984375,5.71875 L21.984375,11.328125 C22.46875,11.421875 22.84375,11.609375 23.015625,11.8125 L21.171875,13.203125 L20.359375,12.3125 L18.59375,12.3125 L18.59375,15.453125 L22.65625,15.453125 C22.984375,15.453125 23.203125,15.578125 23.25,15.84375 C22.625,16.578125 21.453125,17.65625 21.453125,17.65625 Z M20.59375,11.59375 L20.59375,7.15625 L15.40625,7.15625 L15.40625,11.59375 Z" transform="translate(-0.828125, 19.703125) scale(1, -1)"/>
</svg>