<svg height="21.546875" viewBox="0 0 24 21.546875" width="24" xmlns="http://www.w3.org/2000/svg">
<path d="M20.765625,4.421875 L20.421875,4.265625 C21.171875,3 22.015625,0.953125 22.03125,-0.578125 C23.375,-1.84375 24.75,1.34375 20.765625,4.421875 Z M18.5,4.34375 L18.140625,4.21875 C18.671875,2.96875 19.171875,1.03125 19.0625,-0.453125 C20.25,-1.78125 21.796875,1.21875 18.5,4.34375 Z M16.296875,4.265625 L15.90625,4.203125 C16.15625,2.921875 16.265625,1.0625 16.078125,-0.40625 C17.15625,-1.78125 18.71875,0.9375 16.296875,4.265625 Z M14.59375,4.3125 L14.15625,4.3125 C14.1875,2.828125 13.53125,1.125 12.859375,0.484375 C12.453125,0.09375 12.265625,-0.40625 12.53125,-0.796875 C12.890625,-1.21875 13.65625,-0.984375 14.046875,-0.484375 C14.65625,0.28125 15.125,2.015625 14.59375,4.3125 Z M7.890625,9.9375 L7.609375,9.9375 L7.609375,9.1875 L7.96875,9.1875 C9.765625,9.1875 10.5625,7.875 10.5625,4.9375 C10.5625,2.140625 9.796875,0.5 8.5625,0.5 C8.296875,0.5 8.09375,0.53125 7.875,0.59375 L7.703125,2.8125 C7.65625,3.703125 7.375,4.03125 6.953125,4.03125 C6.640625,4.03125 6.3125,3.84375 6.140625,3.390625 C6.28125,1.0625 7.21875,-0.140625 8.859375,-0.140625 C10.875,-0.140625 12.234375,1.734375 12.234375,4.890625 C12.234375,7.53125 11.203125,9.359375 8.96875,9.59375 C11.109375,10.15625 11.921875,12.09375 11.921875,14.109375 C11.921875,16.578125 10.96875,18.4375 9.125,18.4375 C7.703125,18.4375 6.546875,17.296875 6.40625,14.921875 C6.578125,14.640625 6.890625,14.46875 7.125,14.46875 C7.5625,14.46875 7.84375,14.828125 7.921875,15.5 L8.203125,17.65625 C8.375,17.734375 8.5625,17.765625 8.78125,17.765625 C9.703125,17.765625 10.34375,16.4375 10.34375,14.046875 C10.34375,11.40625 9.359375,9.9375 7.890625,9.9375 Z M0.953125,17.28125 L0.953125,16.515625 L2.875,16.890625 L2.875,6.09375 L2.828125,1.125 L0.9375,0.953125 L0.9375,0.3125 L6.140625,0.3125 L6.140625,0.953125 L4.390625,1.125 L4.34375,6.09375 L4.34375,14.015625 L4.4375,18.046875 L4.109375,18.359375 Z M21.453125,17.65625 L20.46875,16.171875 L18.59375,16.171875 L18.59375,18.765625 C19.21875,18.84375 19.46875,19.109375 19.515625,19.4375 L17.203125,19.703125 L17.203125,12.3125 L15.53125,12.3125 L14.015625,13.015625 L14.015625,5.015625 L14.234375,5.015625 C14.8125,5.015625 15.40625,5.359375 15.40625,5.5 L15.40625,6.453125 L20.59375,6.453125 L20.59375,5.1875 L20.78125,5.1875 C21.265625,5.1875 21.953125,5.5625 21.984375,5.71875 L21.984375,11.328125 C22.46875,11.421875 22.84375,11.609375 23.015625,11.8125 L21.171875,13.203125 L20.359375,12.3125 L18.59375,12.3125 L18.59375,15.453125 L22.65625,15.453125 C22.984375,15.453125 23.203125,15.578125 23.25,15.84375 C22.625,16.578125 21.453125,17.65625 21.453125,17.65625 Z M20.59375,11.59375 L20.59375,7.15625 L15.40625,7.15625 L15.40625,11.59375 Z" transform="translate(-0.84375, 19.703125) scale(1, -1)"/>
</svg>