<svg height="19.953125" viewBox="0 0 24 19.953125" width="24" xmlns="http://www.w3.org/2000/svg">
<path d="M8.359375,-0.171875 L11.765625,0 L11.765625,0.71875 L10.25,0.84375 L10.25,15.640625 L10.3125,19.3125 L9.90625,19.5625 L6.453125,18.953125 L6.453125,18.3125 L8.328125,18.1875 L8.328125,11.09375 C7.5625,12.53125 6.5,13.078125 5.375,13.078125 C3.078125,13.078125 1.171875,11.28125 1.171875,6.34375 C1.171875,1.3125 2.859375,-0.390625 5.1875,-0.390625 C6.34375,-0.390625 7.46875,0.1875 8.296875,1.703125 Z M22.078125,-0.3125 C23.046875,-0.3125 23.546875,0.125 23.96875,0.9375 L23.59375,1.265625 C23.25,0.859375 23.046875,0.703125 22.734375,0.703125 C22.21875,0.703125 21.984375,1.15625 21.984375,2.28125 L21.984375,9.078125 C21.984375,11.921875 20.859375,13.078125 18.40625,13.078125 C15.796875,13.078125 14.109375,11.96875 13.609375,9.796875 C13.75,9.28125 14.09375,9 14.609375,9 C15.140625,9 15.625,9.40625 15.703125,10.296875 L15.984375,11.875 C16.609375,12.1875 17.140625,12.3125 17.828125,12.3125 C19.390625,12.3125 20.046875,11.5625 20.046875,8.875 L20.046875,7.515625 L17.90625,6.953125 C14.5625,6.140625 13.265625,4.84375 13.265625,2.78125 C13.265625,0.765625 14.59375,-0.390625 16.375,-0.390625 C17.90625,-0.390625 18.8125,0.390625 20.09375,1.75 C20.28125,0.484375 20.90625,-0.3125 22.078125,-0.3125 Z M8.296875,2.5625 C7.515625,1.3125 6.765625,0.890625 5.859375,0.890625 C4.21875,0.890625 3.171875,2.015625 3.171875,6.34375 C3.171875,10.703125 4.375,11.8125 5.953125,11.8125 C6.84375,11.8125 7.5625,11.359375 8.296875,10.265625 Z M20.046875,2.40625 C18.953125,1.34375 18.21875,0.859375 17.203125,0.859375 C16.15625,0.859375 15.09375,1.578125 15.09375,3.140625 C15.09375,4.75 16.21875,5.734375 18.171875,6.3125 L20.046875,6.890625 Z" transform="translate(-0.5703125, 19.5625) scale(1, -1)"/>
</svg>