<svg height="22" viewBox="0 0 24 22" width="24" xmlns="http://www.w3.org/2000/svg">
<path d="M13.078125,19.53125 L12.796875,19.375 C13.53125,18.59375 14.359375,17.25 14.453125,16.203125 C15.765625,15.171875 17.015625,17.96875 13.078125,19.53125 Z M12.125,14.5 L11.828125,14.359375 C12.484375,13.578125 13.125,12.3125 13.171875,11.296875 C14.453125,10.203125 15.84375,12.890625 12.125,14.5 Z M12.9375,4.609375 C12.671875,4.609375 12,4.609375 12,4.609375 L12,4.03125 C12.5,4.015625 12.75,3.953125 13.03125,3.71875 C13.484375,3.40625 13.609375,1.609375 13.3125,-0.625 C13.34375,-1.3125 13.53125,-1.78125 13.921875,-1.78125 C14.609375,-1.78125 14.953125,-1.203125 15,-0.265625 C15.09375,1.53125 14.515625,2.734375 14.515625,3.703125 C14.515625,4.3125 14.59375,5.046875 14.71875,5.8125 C14.90625,6.890625 15.90625,12.1875 16.421875,15.078125 L15.9375,15.140625 C13.6875,5.96875 13.6875,5.96875 13.421875,5.15625 C13.25,4.625 13.171875,4.609375 12.9375,4.609375 Z M10.015625,18.3125 L10.015625,13.421875 L8.09375,13.421875 L8.09375,18.3125 Z M6.796875,19.03125 L6.796875,10.265625 C6.796875,5.8125 6.546875,1.515625 4.125,-1.734375 L4.53125,-1.984375 C6.984375,0.390625 7.75,3.625 7.984375,6.859375 L10.015625,6.859375 L10.015625,0.3125 C10.015625,-0.03125 9.90625,-0.140625 9.578125,-0.140625 C9.171875,-0.140625 7.421875,0.03125 7.421875,0.03125 L7.421875,-0.40625 C8.203125,-0.5 8.65625,-0.703125 8.953125,-0.9375 C9.1875,-1.171875 9.28125,-1.609375 9.34375,-2.015625 C11.140625,-1.796875 11.328125,-1.078125 11.328125,0.125 L11.328125,18.171875 C11.71875,18.234375 12.03125,18.40625 12.140625,18.578125 L10.484375,19.84375 L9.8125,19.03125 L8.359375,19.03125 L6.796875,19.75 Z M10.015625,12.703125 L10.015625,7.578125 L8.046875,7.578125 C8.09375,8.5 8.09375,9.4375 8.09375,10.3125 L8.09375,12.703125 Z M2.71875,17.953125 L4.296875,17.953125 L4.296875,12.4375 L2.71875,12.4375 Z M1.4375,18.640625 L1.4375,1.875 L1.625,1.875 C2.28125,1.875 2.71875,2.234375 2.71875,2.359375 L2.71875,5.109375 L4.296875,5.109375 L4.296875,3.078125 L4.484375,3.078125 C4.9375,3.078125 5.5625,3.4375 5.59375,3.578125 L5.59375,17.859375 C5.921875,17.90625 6.234375,18.046875 6.359375,18.21875 L4.84375,19.421875 L4.125,18.640625 L2.96875,18.640625 L1.4375,19.34375 Z M2.71875,11.71875 L4.296875,11.71875 L4.296875,5.828125 L2.71875,5.828125 Z M16.78125,8.015625 L16.78125,-1.96875 L16.96875,-1.96875 C17.65625,-1.96875 18.125,-1.609375 18.125,-1.484375 L18.125,-0.125 L20.875,-0.125 L20.875,-1.78125 L21.078125,-1.78125 C21.53125,-1.78125 22.203125,-1.46875 22.21875,-1.3125 L22.21875,7.21875 C22.5625,7.296875 22.84375,7.4375 22.9375,7.5625 L21.4375,8.765625 L20.71875,8.015625 L18.3125,8.015625 L16.78125,8.71875 Z M18.125,0.59375 L18.125,7.296875 L20.875,7.296875 L20.875,0.59375 Z M15.8125,11.328125 L16.4375,9.359375 C16.6875,9.4375 16.921875,9.578125 17.046875,9.890625 C18.9375,10.484375 20.46875,11.015625 21.59375,11.421875 C21.796875,10.78125 21.90625,10.125 21.9375,9.578125 C23.28125,8.25 24.5,11.65625 20.25,15.484375 L19.921875,15.359375 C20.453125,14.421875 21.046875,13.15625 21.453125,11.90625 L17.953125,11.5 C18.8125,13.921875 19.625,16.78125 20.109375,18.765625 C20.609375,18.75 20.90625,18.953125 21,19.25 L18.671875,19.984375 C18.359375,17.5 17.859375,14.0625 17.359375,11.453125 Z" transform="translate(-0.96875, 19.984375) scale(1, -1)"/>
</svg>