<svg height="21.90625" viewBox="0 0 24 21.90625" width="24" xmlns="http://www.w3.org/2000/svg">
<path d="M5.78125,19.078125 L6,18.390625 L7.375,18.390625 C7.3125,15.625 7.109375,12.125 5.359375,9.234375 L5.765625,8.90625 C8.15625,11.640625 8.5625,15.34375 8.71875,18.390625 L10.203125,18.390625 C10.078125,13.609375 9.890625,11.65625 9.53125,11.203125 C9.4375,11.09375 9.359375,11.046875 9.171875,11.046875 C8.875,11.046875 8.203125,11.0625 7.78125,11.09375 L7.78125,10.6875 C8.1875,10.609375 8.609375,10.46875 8.8125,10.296875 C9.03125,10.125 9.140625,9.765625 9.140625,9.5 C9.59375,9.53125 10.03125,9.671875 10.421875,10.03125 C11.15625,10.796875 11.328125,12.90625 11.46875,18.265625 C11.921875,18.3125 12.21875,18.4375 12.390625,18.59375 L10.75,19.921875 L9.984375,19.078125 Z M16.390625,19.828125 C15.484375,19.15625 13.609375,18.1875 12.046875,17.6875 L12.21875,17.28125 C12.890625,17.359375 13.609375,17.46875 14.296875,17.640625 L14.296875,13.375 L11.875,13.375 L12.078125,12.671875 L14.015625,12.671875 C13.53125,9.390625 12.71875,5.96875 11.421875,3.265625 L11.828125,2.921875 C12.859375,4.515625 13.6875,6.28125 14.296875,8.203125 L14.296875,-1.9375 L14.5,-1.9375 C15.171875,-1.9375 15.640625,-1.578125 15.640625,-1.46875 L15.640625,9.984375 C16.15625,9.09375 16.578125,7.921875 16.5625,6.953125 C17.65625,5.90625 18.859375,8.453125 15.640625,10.75 L15.640625,12.671875 L17.421875,12.671875 C17.734375,12.671875 17.953125,12.796875 18,13.0625 C17.5,13.65625 16.65625,14.421875 16.65625,14.421875 L15.90625,13.375 L15.640625,13.375 L15.640625,17.953125 C16.15625,18.09375 16.609375,18.234375 16.984375,18.390625 C17.5,18.1875 17.90625,18.171875 18.09375,18.359375 Z M18.046875,17.421875 L18.046875,-1.296875 L18.28125,-1.296875 C18.90625,-1.296875 19.34375,-0.953125 19.34375,-0.796875 L19.34375,1.375 L21.046875,1.375 L21.046875,-0.5 L21.234375,-0.5 C21.71875,-0.5 22.34375,-0.125 22.375,0.03125 L22.375,16.609375 C22.734375,16.6875 23.0625,16.828125 23.1875,16.96875 L21.625,18.234375 L20.859375,17.421875 L19.46875,17.421875 L18.046875,18.140625 Z M21.046875,2.09375 L19.34375,2.09375 L19.34375,16.734375 L21.046875,16.734375 Z M2.609375,17.734375 L4.03125,17.734375 L4.03125,11.8125 L2.609375,11.8125 Z M1.375,18.453125 L1.375,0.484375 L1.5625,0.484375 C2.1875,0.484375 2.609375,0.859375 2.609375,0.953125 L2.609375,4.171875 L4.03125,4.171875 L4.03125,1.703125 L4.21875,1.703125 C4.65625,1.703125 5.28125,2.09375 5.296875,2.234375 L5.296875,17.6875 C5.59375,17.765625 5.875,17.875 5.96875,18.03125 L4.5625,19.171875 L3.859375,18.453125 L2.78125,18.453125 L1.375,19.078125 Z M2.609375,11.109375 L4.03125,11.109375 L4.03125,4.890625 L2.609375,4.890625 Z M7.6875,7.390625 L9.640625,7.390625 L9.640625,0.546875 L7.6875,0.546875 Z M6.390625,8.09375 L6.390625,-1.984375 L6.578125,-1.984375 C7.21875,-1.984375 7.6875,-1.625 7.6875,-1.515625 L7.6875,-0.171875 L9.640625,-0.171875 L9.640625,-1.84375 L9.84375,-1.84375 C10.265625,-1.84375 10.921875,-1.53125 10.9375,-1.375 L10.9375,7.3125 C11.25,7.390625 11.546875,7.53125 11.640625,7.65625 L10.171875,8.8125 L9.484375,8.09375 L7.828125,8.09375 L6.390625,8.734375 Z" transform="translate(-0.28125, 19.921875) scale(1, -1)"/>
</svg>