<svg height="19.953125" viewBox="0 0 24 19.953125" width="24" xmlns="http://www.w3.org/2000/svg">
<path d="M4.625,-0.390625 C6.1875,-0.390625 7.375,1.125 7.375,6.453125 C7.375,11.734375 6.390625,13.0625 4.796875,13.0625 C4.078125,13.0625 3.34375,12.578125 2.765625,11.421875 L2.765625,15.546875 L2.8125,19.34375 L2.421875,19.5625 L-0.03125,19.03125 L-0.03125,18.453125 L1.25,18.390625 L1.25,5.5 L1.203125,0.75 L0.28125,0.625 L0.28125,0 L2.515625,-0.171875 L2.734375,1.203125 C3.234375,0.125 3.890625,-0.390625 4.625,-0.390625 Z M14.96875,-0.234375 C15.703125,-0.234375 16.015625,0.1875 16.25,1.03125 L15.90625,1.21875 C15.71875,0.796875 15.578125,0.703125 15.40625,0.703125 C15.046875,0.703125 14.90625,1.109375 14.90625,1.875 L14.921875,9.71875 C14.921875,12.078125 14.1875,13.0625 12.484375,13.0625 C10.828125,13.0625 9.671875,11.90625 9.4375,9.890625 C9.578125,9.484375 9.84375,9.28125 10.171875,9.28125 C10.625,9.28125 10.921875,9.59375 10.984375,10.4375 L11.203125,12.171875 C11.5,12.359375 11.734375,12.4375 12.078125,12.4375 C13.0625,12.4375 13.4375,11.78125 13.46875,9.59375 L13.46875,7.890625 L12.03125,6.796875 C10.21875,5.59375 9.3125,4.375 9.3125,2.453125 C9.3125,0.640625 10.15625,-0.3125 11.40625,-0.3125 C12.34375,-0.3125 12.90625,0.21875 13.53125,1.21875 C13.6875,0.390625 14.15625,-0.234375 14.96875,-0.234375 Z M19.84375,8.859375 C20.28125,10.625 20.921875,11.5625 21.71875,11.96875 L21.890625,10.984375 C22.109375,10.21875 22.375,9.984375 22.75,9.984375 C23.1875,9.984375 23.46875,10.34375 23.546875,11.09375 C23.28125,12.640625 22.828125,13.0625 22.125,13.0625 C21.234375,13.0625 20.375,12.28125 19.84375,10.21875 L19.78125,12.75 L19.4375,12.9375 L16.9375,12.265625 L16.9375,11.765625 L18.390625,11.71875 C18.40625,10.375 18.4375,8.90625 18.4375,7.125 L18.4375,5.59375 L18.390625,0.71875 L17.140625,0.625 L17.140625,0 L21.453125,0 L21.453125,0.625 L19.890625,0.71875 L19.84375,5.59375 Z M2.765625,10.609375 C3.3125,11.640625 3.765625,11.953125 4.3125,11.953125 C5.203125,11.953125 5.828125,11.15625 5.828125,6.453125 C5.828125,1.75 5.046875,0.75 4.21875,0.75 C3.671875,0.75 3.265625,1.109375 2.765625,1.96875 Z M13.484375,1.828125 C12.890625,1.0625 12.453125,0.75 11.921875,0.75 C11.28125,0.75 10.78125,1.375 10.78125,2.609375 C10.78125,4.390625 11.28125,5.46875 12.390625,6.359375 L13.46875,7.296875 Z" transform="translate(0.2421875, 19.5625) scale(1, -1)"/>
</svg>