<svg height="21.8125" viewBox="0 0 24 21.8125" width="24" xmlns="http://www.w3.org/2000/svg">
<path d="M6.625,13.078125 L6.484375,13.078125 C6.578125,15.03125 6.578125,17.015625 6.59375,19.03125 C7.203125,19.109375 7.390625,19.375 7.46875,19.6875 L5.109375,19.9375 C5.109375,17.609375 5.140625,15.3125 5.0625,13.078125 L0.84375,13.078125 L1.03125,12.390625 L5.046875,12.390625 C4.796875,7.109375 3.90625,2.296875 0.671875,-1.46875 L1.0625,-1.875 C4.65625,1.484375 5.875,5.859375 6.3125,10.578125 C6.671875,6.140625 7.5625,1.21875 9.90625,-1.78125 C10.109375,-1.015625 10.484375,-0.765625 11.1875,-0.671875 L11.234375,-0.40625 C8.0625,2.90625 7.03125,7.78125 6.671875,12.390625 L11.015625,12.390625 C11.359375,12.390625 11.5625,12.5 11.640625,12.765625 C10.9375,13.46875 9.765625,14.453125 9.765625,14.453125 L8.78125,13.078125 Z M13.53125,12.796875 L13.53125,-0.390625 L11.296875,-0.390625 L11.5,-1.109375 L22.78125,-1.109375 C23.109375,-1.109375 23.328125,-0.984375 23.375,-0.71875 C22.6875,0 21.484375,1.03125 21.484375,1.03125 L20.421875,-0.390625 L18.4375,-0.390625 L18.4375,9 L22.078125,9 C22.421875,9 22.625,9.125 22.6875,9.390625 C22.0625,10.0625 20.953125,10.984375 20.953125,10.984375 L20.046875,9.703125 L18.4375,9.703125 L18.4375,17.328125 L22.4375,17.328125 C22.78125,17.328125 22.984375,17.453125 23.0625,17.71875 C22.34375,18.4375 21.140625,19.4375 21.140625,19.4375 L20.109375,18.046875 L12.046875,18.046875 L12.234375,17.328125 L16.984375,17.328125 L16.984375,-0.390625 L14.90625,-0.390625 L14.90625,12 C15.34375,12.078125 15.53125,12.28125 15.578125,12.546875 Z" transform="translate(-0.0234375, 19.9375) scale(1, -1)"/>
</svg>