<svg height="18.3125" viewBox="0 0 24 18.3125" width="24" xmlns="http://www.w3.org/2000/svg">
<path d="M1.609375,17.15625 L3.1875,17.046875 C3.21875,14.59375 3.21875,12.09375 3.21875,9.640625 L3.21875,8.296875 C3.21875,5.828125 3.21875,3.359375 3.1875,0.9375 L1.609375,0.765625 L1.609375,0 L6.796875,0 L6.796875,0.765625 L5.234375,0.9375 C5.1875,3.359375 5.1875,5.828125 5.1875,8.328125 L5.1875,9.640625 C5.1875,12.125 5.1875,14.609375 5.234375,17.046875 L6.796875,17.15625 L6.796875,17.921875 L1.609375,17.921875 Z M18.59375,17.15625 L20.515625,16.984375 L20.515625,5.65625 C20.515625,2.1875 19.265625,0.84375 16.828125,0.84375 C14.546875,0.84375 13.171875,2.09375 13.171875,5.40625 L13.171875,9.640625 C13.171875,12.140625 13.171875,14.59375 13.21875,17.015625 L15.28125,17.15625 L15.28125,17.921875 L9.3125,17.921875 L9.3125,17.15625 L11.109375,17.015625 C11.140625,14.5625 11.140625,12.09375 11.140625,9.640625 L11.140625,5.375 C11.140625,1.015625 13.203125,-0.390625 16.34375,-0.390625 C19.5625,-0.390625 21.40625,1.296875 21.4375,5.5 L21.4375,16.984375 L23.09375,17.15625 L23.09375,17.921875 L18.59375,17.921875 Z" transform="translate(-0.3515625, 17.921875) scale(1, -1)"/>
</svg>