<svg height="19.875" viewBox="0 0 24 19.875" width="24" xmlns="http://www.w3.org/2000/svg">
<path d="M22.6875,-0.21875 C23.40625,-0.21875 23.71875,0.1875 23.921875,1.03125 L23.609375,1.21875 C23.40625,0.796875 23.28125,0.703125 23.109375,0.703125 C22.75,0.703125 22.625,1.109375 22.625,1.84375 L22.625,9.765625 C22.625,12.078125 21.9375,13.0625 20.28125,13.0625 C18.671875,13.0625 17.515625,11.90625 17.328125,9.890625 C17.453125,9.5 17.734375,9.28125 18.046875,9.28125 C18.484375,9.28125 18.765625,9.59375 18.84375,10.46875 L19.0625,12.1875 C19.34375,12.359375 19.578125,12.4375 19.875,12.4375 C20.8125,12.4375 21.21875,11.8125 21.21875,9.625 L21.21875,7.921875 L19.796875,6.796875 C18.09375,5.5625 17.203125,4.34375 17.203125,2.421875 C17.203125,0.640625 18.046875,-0.3125 19.21875,-0.3125 C20.140625,-0.3125 20.6875,0.1875 21.265625,1.171875 C21.40625,0.390625 21.859375,-0.21875 22.6875,-0.21875 Z M5.875,0 L8.453125,0 L8.453125,0.640625 L7.53125,0.765625 L7.484375,5.609375 L7.484375,10.125 C7.484375,12.3125 6.796875,13.0625 5.546875,13.0625 C4.65625,13.0625 3.671875,12.578125 2.828125,11.015625 L2.828125,15.546875 L2.90625,19.34375 L2.515625,19.5625 L-0.046875,19.015625 L-0.046875,18.4375 L1.296875,18.359375 L1.296875,5.609375 L1.25,0.765625 L0.34375,0.640625 L0.34375,0 L3.90625,0 L3.90625,0.640625 L2.90625,0.765625 L2.859375,5.609375 L2.859375,10.265625 L2.859375,10.3125 C3.703125,11.515625 4.375,11.8125 4.921875,11.8125 C5.609375,11.8125 5.921875,11.296875 5.921875,10.0625 L5.921875,5.609375 L5.90625,0.765625 L4.96875,0.640625 L4.96875,0 Z M9.140625,17.25 L10.15625,17.15625 C10.171875,14.6875 10.171875,12.140625 10.171875,9.640625 L10.171875,8.28125 C10.171875,5.765625 10.171875,3.234375 10.15625,0.765625 L9.125,0.671875 L9.125,0 L13.078125,0 L13.078125,0.671875 L11.71875,0.765625 L11.6875,7.296875 L12.125,7.296875 C14.640625,7.296875 16.203125,9.03125 16.203125,12.640625 C16.203125,16.21875 15,17.921875 12.40625,17.921875 L9.140625,17.921875 Z M11.6875,7.984375 L11.6875,9.640625 C11.6875,12.140625 11.6875,14.734375 11.734375,17.234375 L12.265625,17.234375 C13.921875,17.234375 14.640625,15.84375 14.640625,12.71875 C14.640625,9.453125 13.75,7.984375 12.125,7.984375 Z M21.21875,1.78125 C20.65625,1.0625 20.25,0.71875 19.75,0.71875 C19.125,0.71875 18.640625,1.375 18.640625,2.546875 C18.640625,4.390625 19.125,5.421875 20.1875,6.34375 L21.21875,7.3125 Z" transform="translate(0.0625, 19.5625) scale(1, -1)"/>
</svg>