<svg height="24" viewBox="0 0 24 24" width="24" xmlns="http://www.w3.org/2000/svg">
<path d="M13.109375,17.15625 L14.65625,17.015625 C14.6875,14.5625 14.6875,12.078125 14.6875,9.59375 L14.6875,8.359375 C14.6875,5.859375 14.6875,3.359375 14.65625,0.90625 L13.109375,0.765625 L13.109375,0 L18.09375,0 C21.75,0 23.109375,2.015625 23.109375,4.734375 C23.109375,7.46875 22.015625,9.125 19.390625,9.5 C21.53125,10.078125 22.390625,11.65625 22.390625,13.78125 C22.390625,16.46875 21.09375,17.921875 18.125,17.921875 L13.109375,17.921875 Z M6.703125,17.15625 L8.640625,16.984375 L3.953125,7.96875 L3.953125,9.640625 C3.953125,12.125 3.953125,14.609375 3.984375,17.046875 L5.609375,17.15625 L5.609375,17.921875 L0.625,17.921875 L0.625,17.15625 L2.015625,17.046875 C2.046875,14.59375 2.046875,12.125 2.046875,9.640625 L2.046875,8.296875 C2.046875,5.828125 2.046875,3.34375 2.015625,0.90625 L0.625,0.765625 L0.625,0 L5.546875,0 L5.546875,0.765625 L3.984375,0.90625 L3.953125,6.75 L5.46875,9.4375 L8.359375,0.90625 L6.765625,0.765625 L6.765625,0 L11.546875,0 L11.546875,0.765625 L10.421875,0.890625 L6.640625,11.515625 L9.703125,17.015625 L11.09375,17.15625 L11.09375,17.921875 L6.703125,17.921875 Z M16.625,9 L17.609375,9 C20.0625,9 21.171875,7.625 21.171875,4.75 C21.171875,1.96875 20.015625,0.8125 18.125,0.8125 L16.65625,0.8125 C16.625,3.28125 16.625,5.828125 16.625,9 Z M16.65625,17.109375 L17.640625,17.109375 C19.78125,17.109375 20.5,15.953125 20.5,13.6875 C20.5,11.046875 19.375,9.75 17.375,9.75 L16.625,9.75 C16.625,12.28125 16.625,14.734375 16.65625,17.109375 Z" transform="translate(0.1328125, 17.921875) scale(1, -1)"/>
</svg>