<svg height="25.96875" viewBox="0 0 24 25.96875" width="24" xmlns="http://www.w3.org/2000/svg">
<path d="M17.40625,5.1875 C16.03125,5.1875 15.171875,6.453125 15.171875,8.78125 C15.171875,11.140625 16.0625,12.359375 17.40625,12.359375 C18.75,12.359375 19.6875,11.140625 19.6875,8.78125 C19.6875,6.453125 18.765625,5.1875 17.40625,5.1875 Z M6.171875,11.921875 L8.359375,11.734375 L3.8125,5.765625 L3.8125,15.53125 L3.890625,19.3125 L3.484375,19.5625 L0.03125,18.953125 L0.03125,18.3125 L1.875,18.21875 L1.875,5.609375 L1.84375,0.890625 L0.53125,0.71875 L0.53125,0 L5.40625,0 L5.40625,0.71875 L3.859375,0.859375 L3.8125,4.703125 L5.375,6.640625 L8.296875,0 L11.46875,0 L11.46875,0.71875 L9.984375,0.859375 L6.625,8.203125 L9.453125,11.765625 L11.140625,11.921875 L11.140625,12.640625 L6.171875,12.640625 Z M15.5,-0.09375 C16.03125,-0.265625 16.65625,-0.359375 17.40625,-0.359375 L18.765625,-0.359375 C20.6875,-0.359375 21.359375,-1.296875 21.359375,-2.5625 C21.359375,-4.21875 20.15625,-5.5 17.65625,-5.5 C15.3125,-5.5 14.0625,-4.515625 14.0625,-2.609375 C14.0625,-1.421875 14.515625,-0.71875 15.5,-0.09375 Z M17.421875,4.46875 C19.9375,4.46875 21.40625,6.1875 21.40625,8.78125 C21.40625,9.90625 21.140625,10.84375 20.640625,11.5625 L23.296875,11.421875 L23.296875,12.75 L22.890625,13.015625 L20.1875,12.09375 C19.515625,12.71875 18.59375,13.078125 17.421875,13.078125 C14.828125,13.078125 13.390625,11.40625 13.390625,8.78125 C13.390625,7.171875 13.9375,5.875 15,5.15625 C13.84375,4.390625 13.375,3.546875 13.375,2.609375 C13.375,1.515625 13.875,0.625 14.90625,0.125 C13.5625,-0.453125 12.671875,-1.53125 12.671875,-3 C12.671875,-5.015625 14.25,-6.40625 17.46875,-6.40625 C21.078125,-6.40625 22.9375,-4.375 22.9375,-2.140625 C22.9375,0.171875 21.59375,1.515625 18.671875,1.515625 L17.234375,1.515625 C15.265625,1.515625 14.78125,2.359375 14.78125,3.40625 C14.78125,3.9375 14.953125,4.375 15.484375,4.875 C16.03125,4.609375 16.6875,4.46875 17.421875,4.46875 Z" transform="translate(0.3359375, 19.5625) scale(1, -1)"/>
</svg>