<svg height="18.703125" viewBox="0 0 24 18.703125" width="24" xmlns="http://www.w3.org/2000/svg">
<path d="M6.09375,7.984375 L8.375,7.828125 C8.40625,5.953125 8.421875,4.015625 8.421875,2.140625 L8.421875,0.671875 C8.015625,0.5 7.578125,0.390625 7.109375,0.390625 C4.78125,0.390625 3.21875,3.078125 3.21875,8.953125 C3.21875,14.765625 4.625,17.515625 7.03125,17.515625 C7.578125,17.515625 8.015625,17.421875 8.46875,17.234375 L9.171875,13.375 L10.171875,13.375 L10.0625,17.28125 C9.171875,17.921875 8.234375,18.3125 6.890625,18.3125 C3.546875,18.3125 1.21875,15.40625 1.21875,8.953125 C1.21875,2.546875 3.484375,-0.390625 6.703125,-0.390625 C8.046875,-0.390625 9,-0.078125 10.203125,0.71875 L10.203125,2.046875 C10.203125,4.25 10.21875,6.125 10.25,7.875 L11.453125,7.984375 L11.453125,8.8125 L6.09375,8.8125 Z M13.109375,17.15625 L14.65625,17.015625 C14.6875,14.5625 14.6875,12.078125 14.6875,9.59375 L14.6875,8.359375 C14.6875,5.859375 14.6875,3.359375 14.65625,0.90625 L13.109375,0.765625 L13.109375,0 L18.09375,0 C21.75,0 23.109375,2.015625 23.109375,4.734375 C23.109375,7.46875 22.015625,9.125 19.390625,9.5 C21.53125,10.078125 22.390625,11.65625 22.390625,13.78125 C22.390625,16.46875 21.09375,17.921875 18.125,17.921875 L13.109375,17.921875 Z M16.625,9 L17.609375,9 C20.0625,9 21.171875,7.625 21.171875,4.75 C21.171875,1.96875 20.015625,0.8125 18.125,0.8125 L16.65625,0.8125 C16.625,3.28125 16.625,5.828125 16.625,9 Z M16.65625,17.109375 L17.640625,17.109375 C19.78125,17.109375 20.5,15.953125 20.5,13.6875 C20.5,11.046875 19.375,9.75 17.375,9.75 L16.625,9.75 C16.625,12.28125 16.625,14.734375 16.65625,17.109375 Z" transform="translate(-0.1640625, 18.3125) scale(1, -1)"/>
</svg>