<svg height="24" viewBox="0 0 24 24" width="24" xmlns="http://www.w3.org/2000/svg">
<path d="M6.34375,3.5 L7.078125,3.5 L10.75,15.859375 L10.625,8.25 C10.578125,5.8125 10.609375,3.34375 10.578125,0.9375 L8.6875,0.765625 L8.6875,0 L14.0625,0 L14.0625,0.765625 L12.53125,0.90625 C12.484375,3.359375 12.484375,5.828125 12.484375,8.328125 L12.484375,9.640625 C12.484375,12.125 12.484375,14.59375 12.5,16.984375 L14.046875,17.15625 L14.046875,17.921875 L10.46875,17.921875 L7.171875,6.75 L3.84375,17.921875 L0.4375,17.921875 L0.4375,17.15625 L1.78125,16.984375 L1.703125,0.953125 L0.234375,0.765625 L0.234375,0 L4.609375,0 L4.609375,0.765625 L2.609375,0.953125 L2.5625,15.890625 Z M14.96875,17.203125 L16.3125,17.0625 C16.375,14.609375 16.34375,12.140625 16.34375,9.640625 L16.34375,8.296875 C16.34375,5.8125 16.34375,3.34375 16.3125,0.859375 L14.96875,0.75 L14.96875,0 L19.125,0 C22.25,0 23.5,1.921875 23.5,4.6875 C23.5,7.421875 22.515625,9.078125 20.1875,9.5 C22.078125,10.0625 22.875,11.609375 22.875,13.75 C22.875,16.53125 21.640625,17.921875 19.0625,17.921875 L14.96875,17.921875 Z M18.03125,9.03125 L18.59375,9.03125 C20.8125,9.03125 21.765625,7.6875 21.765625,4.75 C21.765625,1.84375 20.765625,0.765625 19.15625,0.765625 L18.046875,0.765625 C18.03125,3.21875 18.03125,5.828125 18.03125,9.03125 Z M18.078125,17.1875 L18.703125,17.1875 C20.546875,17.1875 21.21875,16.0625 21.21875,13.703125 C21.21875,10.984375 20.203125,9.71875 18.34375,9.71875 L18.03125,9.71875 C18.03125,12.3125 18.03125,14.78125 18.078125,17.1875 Z" transform="translate(0.1328125, 17.921875) scale(1, -1)"/>
</svg>