<svg height="19.484375" viewBox="0 0 24 19.484375" width="24" xmlns="http://www.w3.org/2000/svg">
<path d="M17.515625,5.1875 C16.15625,5.1875 15.3125,6.453125 15.3125,8.78125 C15.3125,11.140625 16.171875,12.359375 17.515625,12.359375 C18.859375,12.359375 19.78125,11.140625 19.78125,8.78125 C19.78125,6.453125 18.890625,5.1875 17.515625,5.1875 Z M15.640625,-0.09375 C16.171875,-0.265625 16.796875,-0.359375 17.546875,-0.359375 L18.84375,-0.359375 C20.78125,-0.359375 21.453125,-1.3125 21.453125,-2.59375 C21.453125,-4.25 20.25,-5.5 17.78125,-5.5 C15.4375,-5.5 14.203125,-4.515625 14.203125,-2.640625 C14.203125,-1.4375 14.65625,-0.71875 15.640625,-0.09375 Z M17.546875,4.46875 C20.0625,4.46875 21.5,6.1875 21.5,8.78125 C21.5,9.90625 21.234375,10.875 20.734375,11.5625 L23.40625,11.421875 L23.40625,12.75 L22.984375,13.015625 L20.296875,12.09375 C19.65625,12.71875 18.71875,13.078125 17.546875,13.078125 C14.96875,13.078125 13.53125,11.421875 13.53125,8.78125 C13.53125,7.171875 14.09375,5.875 15.140625,5.15625 C13.984375,4.421875 13.515625,3.546875 13.515625,2.609375 C13.515625,1.484375 14.046875,0.625 15.078125,0.125 C13.703125,-0.453125 12.8125,-1.53125 12.8125,-3.03125 C12.8125,-5.046875 14.40625,-6.40625 17.59375,-6.40625 C21.140625,-6.40625 23.015625,-4.390625 23.015625,-2.140625 C23.015625,0.171875 21.703125,1.515625 18.75,1.515625 L17.375,1.515625 C15.40625,1.515625 14.921875,2.359375 14.921875,3.40625 C14.921875,3.9375 15.09375,4.390625 15.59375,4.875 C16.15625,4.609375 16.796875,4.46875 17.546875,4.46875 Z M10.609375,-0.34375 C11.421875,-0.34375 12.046875,0.1875 12.40625,0.84375 L12.171875,1.3125 C11.828125,1.109375 11.5625,0.984375 11.109375,0.984375 C10.4375,0.984375 10.0625,1.296875 10.0625,2.734375 C10.0625,4.828125 10.125,6.984375 10.375,12.859375 L10.0625,13.0625 L8.421875,12.59375 L8.59375,3.078125 C7.890625,1.921875 6.984375,1.296875 5.90625,1.296875 C4.84375,1.296875 4.03125,1.703125 3.390625,2.78125 C3.390625,5.28125 3.40625,7.703125 3.546875,12.859375 L3.234375,13.0625 L1.578125,12.59375 L1.984375,2.46875 L1.578125,-4.828125 L1.9375,-5.109375 L3.53125,-4.65625 L3.140625,1.265625 C3.71875,0.1875 4.625,-0.34375 5.59375,-0.34375 C6.90625,-0.34375 7.921875,0.53125 8.609375,2.109375 C8.78125,0.34375 9.53125,-0.34375 10.609375,-0.34375 Z" transform="translate(-0.4921875, 13.078125) scale(1, -1)"/>
</svg>