<svg height="20.484375" viewBox="0 0 24 20.484375" width="24" xmlns="http://www.w3.org/2000/svg">
<path d="M9.078125,-0.171875 L12.578125,0 L12.578125,0.71875 L10.96875,0.84375 L10.96875,15.640625 L11.046875,19.3125 L10.625,19.5625 L7.109375,18.953125 L7.109375,18.3125 L9.03125,18.21875 L9.03125,11.109375 C8.1875,12.53125 7.078125,13.078125 5.953125,13.078125 C3.53125,13.078125 1.53125,11.234375 1.53125,6.34375 C1.53125,1.375 3.28125,-0.390625 5.734375,-0.390625 C6.9375,-0.390625 8.109375,0.21875 9,1.734375 Z M17.296875,5.046875 C17.09375,6.390625 16.96875,8.09375 16.96875,10.265625 C16.96875,17.015625 18.09375,19.3125 19.625,19.3125 C20.734375,19.3125 21.359375,18.265625 21.359375,15.8125 C21.359375,12.125 20.25,8.734375 17.296875,5.046875 Z M19.734375,-0.390625 C21.59375,-0.390625 22.609375,0.546875 23.65625,1.921875 L23.296875,2.296875 C22.34375,1.265625 21.40625,0.75 20.234375,0.75 C19.078125,0.75 18.078125,1.578125 17.5,4.125 C21.09375,8.09375 22.84375,11.8125 22.84375,15.640625 C22.84375,18.34375 21.71875,20.09375 19.6875,20.09375 C17.15625,20.09375 15.140625,17.15625 15.140625,9.984375 C15.140625,7.203125 15.40625,5.0625 15.859375,3.5 L13.6875,1.3125 L14.109375,0.796875 C14.828125,1.4375 15.5,2.0625 16.125,2.71875 C16.96875,0.5 18.265625,-0.390625 19.734375,-0.390625 Z M9,2.546875 C8.15625,1.296875 7.34375,0.890625 6.4375,0.890625 C4.6875,0.890625 3.546875,2.0625 3.546875,6.34375 C3.546875,10.625 4.796875,11.828125 6.5,11.828125 C7.46875,11.828125 8.1875,11.375 9,10.265625 Z" transform="translate(-0.59375, 20.09375) scale(1, -1)"/>
</svg>