<svg height="24" viewBox="0 0 24 24" width="24" xmlns="http://www.w3.org/2000/svg">
<path d="M14.203125,0 L22.796875,0 L23.015625,4.015625 L21.984375,4.015625 L21.265625,0.71875 L16.203125,0.71875 L22.703125,11.953125 L22.703125,12.640625 L14.46875,12.640625 L14.296875,9.046875 L15.3125,8.953125 L15.953125,11.921875 L20.71875,11.921875 L14.203125,0.703125 Z M7.578125,17.15625 L9.09375,17.015625 C9.140625,14.65625 9.140625,12.265625 9.140625,9.84375 L4.0625,9.84375 C4.0625,12.265625 4.0625,14.640625 4.109375,17.015625 L5.609375,17.15625 L5.609375,17.921875 L0.625,17.921875 L0.625,17.15625 L2.140625,17.015625 C2.15625,14.59375 2.15625,12.125 2.15625,9.640625 L2.15625,8.296875 C2.15625,5.828125 2.15625,3.359375 2.140625,0.9375 L0.625,0.765625 L0.625,0 L5.609375,0 L5.609375,0.765625 L4.109375,0.9375 C4.0625,3.34375 4.0625,5.875 4.0625,9.03125 L9.140625,9.03125 C9.140625,5.875 9.140625,3.34375 9.09375,0.9375 L7.578125,0.765625 L7.578125,0 L12.59375,0 L12.59375,0.765625 L11.09375,0.9375 C11.0625,3.359375 11.0625,5.828125 11.0625,8.296875 L11.0625,9.640625 C11.0625,12.125 11.0625,14.59375 11.09375,17.015625 L12.59375,17.15625 L12.59375,17.921875 L7.578125,17.921875 Z" transform="translate(0.1796875, 17.921875) scale(1, -1)"/>
</svg>