<svg height="18.703125" viewBox="0 0 24 18.703125" width="24" xmlns="http://www.w3.org/2000/svg">
<path d="M4.46875,8.015625 L6.125,7.890625 L6.1875,2.015625 L6.21875,0.484375 C5.90625,0.34375 5.609375,0.265625 5.28125,0.265625 C3.671875,0.265625 2.546875,2.6875 2.546875,8.96875 C2.546875,15.34375 3.53125,17.640625 5.25,17.640625 C5.609375,17.640625 5.90625,17.59375 6.21875,17.453125 L6.796875,13.46875 L7.625,13.46875 L7.53125,17.453125 C6.8125,18.046875 6.140625,18.3125 5.1875,18.3125 C2.59375,18.3125 0.859375,15.765625 0.859375,8.96875 C0.859375,2.203125 2.5625,-0.390625 5.015625,-0.390625 C6.078125,-0.390625 6.84375,-0.09375 7.65625,0.640625 L7.6875,2.046875 C7.6875,4.296875 7.6875,6.171875 7.703125,7.921875 L8.5625,8.015625 L8.5625,8.734375 L4.46875,8.734375 Z M17.640625,0 L23.109375,0 L23.328125,4.25 L22.609375,4.25 L22.03125,0.59375 L19.125,0.59375 L23.109375,12.046875 L23.109375,12.640625 L17.828125,12.640625 L17.6875,8.734375 L18.390625,8.65625 L18.9375,12.046875 L21.640625,12.046875 L17.640625,0.625 Z M13.296875,17.25 L14.25,17.15625 C14.296875,14.609375 14.296875,12.359375 14.296875,9.8125 L11.375,9.8125 C11.375,12.359375 11.375,14.609375 11.421875,17.15625 L12.390625,17.25 L12.390625,17.921875 L8.828125,17.921875 L8.828125,17.25 L9.796875,17.15625 C9.8125,14.6875 9.8125,12.171875 9.8125,9.671875 L9.8125,8.28125 C9.8125,5.78125 9.8125,3.265625 9.796875,0.796875 L8.828125,0.671875 L8.828125,0 L12.390625,0 L12.390625,0.671875 L11.421875,0.796875 C11.375,3.40625 11.375,5.734375 11.375,9.09375 L14.296875,9.09375 C14.296875,5.734375 14.296875,3.40625 14.25,0.796875 L13.296875,0.671875 L13.296875,0 L16.84375,0 L16.84375,0.671875 L15.890625,0.796875 C15.859375,3.265625 15.859375,5.765625 15.859375,8.28125 L15.859375,9.671875 C15.859375,12.171875 15.859375,14.6875 15.890625,17.15625 L16.84375,17.25 L16.84375,17.921875 L13.296875,17.921875 Z" transform="translate(-0.09375, 18.3125) scale(1, -1)"/>
</svg>