<svg height="24" viewBox="0 0 24 24" width="24" xmlns="http://www.w3.org/2000/svg">
<path d="M0.453125,13.125 L1.296875,13.125 L1.734375,17.234375 L3.578125,17.234375 C3.625,14.734375 3.625,12.1875 3.625,9.671875 L3.625,8.28125 C3.625,5.78125 3.625,3.265625 3.59375,0.8125 L1.484375,0.671875 L1.484375,0 L7.390625,0 L7.390625,0.671875 L5.28125,0.8125 C5.25,3.28125 5.25,5.8125 5.25,8.296875 L5.25,9.671875 C5.25,12.1875 5.25,14.734375 5.296875,17.234375 L7.171875,17.234375 L7.578125,13.125 L8.421875,13.125 L8.28125,17.921875 L0.59375,17.921875 Z M17.953125,0 L23.15625,0 L23.375,4.265625 L22.703125,4.265625 L22.125,0.59375 L19.390625,0.59375 L23.15625,12.078125 L23.15625,12.640625 L18.140625,12.640625 L18,8.71875 L18.640625,8.640625 L19.25,12.046875 L21.75,12.046875 L17.953125,0.59375 Z M13.65625,17.25 L14.609375,17.15625 C14.65625,14.609375 14.65625,12.359375 14.65625,9.8125 L11.734375,9.8125 C11.734375,12.359375 11.734375,14.609375 11.78125,17.15625 L12.75,17.25 L12.75,17.921875 L9.1875,17.921875 L9.1875,17.25 L10.15625,17.15625 C10.171875,14.6875 10.171875,12.171875 10.171875,9.671875 L10.171875,8.28125 C10.171875,5.78125 10.171875,3.265625 10.15625,0.796875 L9.1875,0.671875 L9.1875,0 L12.75,0 L12.75,0.671875 L11.78125,0.796875 C11.734375,3.40625 11.734375,5.734375 11.734375,9.09375 L14.65625,9.09375 C14.65625,5.734375 14.65625,3.40625 14.609375,0.796875 L13.65625,0.671875 L13.65625,0 L17.203125,0 L17.203125,0.671875 L16.25,0.796875 C16.21875,3.265625 16.21875,5.765625 16.21875,8.28125 L16.21875,9.671875 C16.21875,12.171875 16.21875,14.6875 16.25,17.15625 L17.203125,17.25 L17.203125,17.921875 L13.65625,17.921875 Z" transform="translate(0.0859375, 17.921875) scale(1, -1)"/>
</svg>