<svg height="24" viewBox="0 0 24 24" width="24" xmlns="http://www.w3.org/2000/svg">
<path d="M3.59375,5.921875 L4.25,5.921875 L6.3125,15.71875 L6.1875,8.234375 C6.125,5.765625 6.140625,3.234375 6.125,0.8125 L4.921875,0.671875 L4.921875,0 L8.59375,0 L8.59375,0.671875 L7.6875,0.796875 C7.65625,3.390625 7.65625,5.6875 7.65625,8.296875 L7.65625,9.640625 C7.625,12.171875 7.625,14.6875 7.65625,17.140625 L8.5625,17.25 L8.5625,17.921875 L6.078125,17.921875 L4.296875,9.1875 L2.46875,17.921875 L0.09375,17.921875 L0.09375,17.25 L0.890625,17.15625 L0.84375,0.84375 L0.03125,0.671875 L0.03125,0 L2.734375,0 L2.734375,0.671875 L1.578125,0.84375 L1.515625,15.59375 Z M17.546875,0 L23.09375,0 L23.296875,4.25 L22.578125,4.25 L22.015625,0.59375 L19.03125,0.59375 L23.09375,12.046875 L23.09375,12.640625 L17.734375,12.640625 L17.59375,8.734375 L18.28125,8.6875 L18.84375,12.046875 L21.625,12.046875 L17.546875,0.625 Z M13.265625,17.25 L14.203125,17.15625 L14.234375,9.8125 L11.453125,9.8125 L11.46875,17.15625 L12.40625,17.25 L12.40625,17.921875 L8.921875,17.921875 L8.921875,17.25 L9.859375,17.15625 L9.890625,9.671875 L9.890625,8.28125 L9.859375,0.765625 L8.921875,0.671875 L8.921875,0 L12.40625,0 L12.40625,0.671875 L11.46875,0.765625 L11.453125,9.09375 L14.234375,9.09375 L14.203125,0.765625 L13.265625,0.671875 L13.265625,0 L16.75,0 L16.75,0.671875 L15.8125,0.796875 L15.796875,8.28125 L15.796875,9.671875 L15.8125,17.15625 L16.75,17.25 L16.75,17.921875 L13.265625,17.921875 Z" transform="translate(0.3359375, 17.921875) scale(1, -1)"/>
</svg>