<svg height="20.484375" viewBox="0 0 24 20.484375" width="24" xmlns="http://www.w3.org/2000/svg">
<path d="M18.234375,5.109375 C18.09375,6.4375 18,8.109375 18,10.25 C18,17.5 18.890625,19.3125 20.0625,19.3125 C20.90625,19.3125 21.390625,18.359375 21.390625,15.640625 C21.390625,12.046875 20.5,8.546875 18.234375,5.109375 Z M20.203125,-0.390625 C21.71875,-0.390625 22.5625,0.390625 23.453125,1.78125 L23.09375,2.109375 C22.296875,1.171875 21.578125,0.75 20.6875,0.75 C19.703125,0.75 18.84375,1.484375 18.390625,4.203125 C21.390625,8.1875 22.75,11.828125 22.75,15.453125 C22.75,18.4375 21.84375,20.09375 20.109375,20.09375 C18.046875,20.09375 16.34375,17.640625 16.34375,10.015625 C16.34375,7.171875 16.5625,5.0625 16.921875,3.484375 L15.03125,1.3125 L15.484375,0.796875 C16.078125,1.421875 16.625,2.046875 17.140625,2.640625 C17.828125,0.40625 18.9375,-0.390625 20.203125,-0.390625 Z M11.375,0 L14.328125,0 L14.328125,0.71875 L13.125,0.859375 L13.109375,5.609375 L13.109375,9.9375 C13.109375,12.171875 12.28125,13.078125 10.875,13.078125 C9.84375,13.078125 8.921875,12.625 8.015625,11.296875 C7.75,12.546875 7.015625,13.078125 6,13.078125 C5.046875,13.078125 4.109375,12.546875 3.234375,11.140625 L3.125,12.765625 L2.828125,12.9375 L0.125,12.171875 L0.125,11.515625 L1.53125,11.46875 C1.5625,10.21875 1.578125,8.828125 1.578125,7.15625 L1.578125,5.609375 L1.5625,0.859375 L0.453125,0.71875 L0.453125,0 L4.53125,0 L4.53125,0.71875 L3.34375,0.859375 L3.28125,5.609375 L3.28125,10.34375 C4.03125,11.46875 4.78125,11.78125 5.40625,11.78125 C6.125,11.78125 6.578125,11.28125 6.578125,9.8125 L6.578125,5.609375 L6.546875,0.859375 L5.421875,0.71875 L5.421875,0 L9.359375,0 L9.359375,0.71875 L8.1875,0.859375 L8.15625,5.609375 L8.15625,9.953125 L8.140625,10.53125 C8.8125,11.421875 9.578125,11.78125 10.265625,11.78125 C10.96875,11.78125 11.453125,11.28125 11.453125,9.796875 L11.453125,5.609375 L11.40625,0.859375 L10.296875,0.71875 L10.296875,0 Z" transform="translate(0.2109375, 20.09375) scale(1, -1)"/>
</svg>