<svg height="24" viewBox="0 0 24 24" width="24" xmlns="http://www.w3.org/2000/svg">
<path d="M4.734375,12 L6.359375,11.859375 L3,6.265625 L3,15.546875 L3.078125,19.34375 L2.6875,19.5625 L0,19.015625 L0,18.40625 L1.421875,18.34375 L1.421875,5.609375 L1.375,0.765625 L0.390625,0.640625 L0.390625,0 L4.15625,0 L4.15625,0.640625 L3.03125,0.765625 L3,5.28125 L4.109375,7.015625 L6.140625,0 L8.765625,0 L8.765625,0.640625 L7.578125,0.765625 L5.203125,8.765625 L7.203125,11.859375 L8.515625,12 L8.515625,12.640625 L4.734375,12.640625 Z M20.875,0 L23.921875,0 L23.921875,0.71875 L22.65625,0.859375 L22.625,5.609375 L22.625,9.859375 C22.625,12.140625 21.796875,13.078125 20.328125,13.078125 C19.265625,13.078125 18.34375,12.59375 17.40625,11.25 C17.109375,12.53125 16.375,13.078125 15.28125,13.078125 C14.296875,13.078125 13.3125,12.5 12.453125,11.109375 L12.34375,12.765625 L12.046875,12.9375 L9.265625,12.171875 L9.265625,11.515625 L10.734375,11.46875 C10.75,10.21875 10.78125,8.828125 10.78125,7.15625 L10.78125,5.609375 L10.75,0.859375 L9.59375,0.71875 L9.59375,0 L13.78125,0 L13.78125,0.71875 L12.546875,0.859375 C12.5,2.328125 12.5,4.25 12.5,5.609375 L12.5,10.3125 C13.265625,11.453125 14.046875,11.78125 14.65625,11.78125 C15.4375,11.78125 15.9375,11.25 15.9375,9.765625 L15.9375,5.609375 L15.890625,0.859375 L14.71875,0.71875 L14.71875,0 L18.765625,0 L18.765625,0.71875 L17.5625,0.890625 L17.515625,5.609375 L17.515625,9.90625 L17.5,10.484375 C18.1875,11.40625 19.015625,11.78125 19.734375,11.78125 C20.46875,11.78125 20.953125,11.25 20.953125,9.71875 L20.953125,5.609375 L20.90625,0.859375 L19.75,0.71875 L19.75,0 Z" transform="translate(0.0390625, 19.5625) scale(1, -1)"/>
</svg>