<svg height="24" viewBox="0 0 24 24" width="24" xmlns="http://www.w3.org/2000/svg">
<path d="M4.125,12.046875 L5.515625,11.90625 L2.65625,6.484375 L2.65625,15.546875 L2.765625,19.34375 L2.359375,19.5625 L-0.046875,19.03125 L-0.046875,18.453125 L1.21875,18.40625 L1.21875,5.59375 L1.171875,0.75 L0.3125,0.625 L0.3125,0 L3.625,0 L3.625,0.625 L2.6875,0.75 L2.65625,5.5 L3.578125,7.125 L5.25,0 L7.625,0 L7.625,0.625 L6.59375,0.71875 L4.609375,8.953125 L6.265625,11.90625 L7.4375,12.046875 L7.4375,12.640625 L4.125,12.640625 Z M17.15625,0 L23.015625,0 L23.234375,4.21875 L22.484375,4.21875 L21.890625,0.625 L18.703125,0.625 L23.015625,12.046875 L23.015625,12.640625 L17.328125,12.640625 L17.1875,8.78125 L17.921875,8.6875 L18.5,12.03125 L21.453125,12.03125 L17.15625,0.625 Z M12.703125,17.25 L13.65625,17.15625 C13.703125,14.609375 13.703125,12.359375 13.703125,9.8125 L10.78125,9.8125 C10.78125,12.359375 10.78125,14.609375 10.828125,17.15625 L11.78125,17.25 L11.78125,17.921875 L8.234375,17.921875 L8.234375,17.25 L9.1875,17.15625 C9.21875,14.6875 9.21875,12.171875 9.21875,9.671875 L9.21875,8.28125 C9.21875,5.78125 9.21875,3.265625 9.1875,0.796875 L8.234375,0.671875 L8.234375,0 L11.78125,0 L11.78125,0.671875 L10.828125,0.796875 C10.78125,3.40625 10.78125,5.734375 10.78125,9.09375 L13.703125,9.09375 C13.703125,5.734375 13.703125,3.40625 13.65625,0.796875 L12.703125,0.671875 L12.703125,0 L16.25,0 L16.25,0.671875 L15.28125,0.796875 C15.265625,3.265625 15.265625,5.765625 15.265625,8.28125 L15.265625,9.671875 C15.265625,12.171875 15.265625,14.6875 15.28125,17.15625 L16.25,17.25 L16.25,17.921875 L12.703125,17.921875 Z" transform="translate(0.40625, 19.5625) scale(1, -1)"/>
</svg>