<svg height="18.3125" viewBox="0 0 24 18.3125" width="24" xmlns="http://www.w3.org/2000/svg">
<path d="M21.84375,-0.3125 C22.796875,-0.3125 23.296875,0.125 23.734375,0.9375 L23.359375,1.265625 C23.015625,0.859375 22.796875,0.703125 22.484375,0.703125 C21.984375,0.703125 21.75,1.15625 21.75,2.28125 L21.75,9.078125 C21.75,11.921875 20.609375,13.078125 18.171875,13.078125 C15.546875,13.078125 13.875,11.96875 13.375,9.796875 C13.515625,9.28125 13.84375,9 14.375,9 C14.90625,9 15.390625,9.40625 15.453125,10.296875 L15.75,11.875 C16.375,12.1875 16.890625,12.3125 17.59375,12.3125 C19.15625,12.3125 19.796875,11.5625 19.796875,8.875 L19.796875,7.515625 L17.65625,6.953125 C14.328125,6.140625 13.03125,4.84375 13.03125,2.78125 C13.03125,0.765625 14.359375,-0.390625 16.125,-0.390625 C17.65625,-0.390625 18.578125,0.390625 19.84375,1.75 C20.046875,0.484375 20.65625,-0.3125 21.84375,-0.3125 Z M1.25,17.15625 L2.90625,17.015625 C2.921875,14.59375 2.921875,12.09375 2.921875,9.640625 L2.921875,8.296875 C2.921875,5.828125 2.921875,3.34375 2.90625,0.90625 L1.21875,0.765625 L1.21875,0 L7.109375,0 L7.109375,0.765625 L4.921875,0.90625 C4.875,3.140625 4.875,5.359375 4.875,7.25 L6,7.25 C9.4375,7.25 11.359375,8.953125 11.359375,12.59375 C11.359375,16.125 9.84375,17.921875 6.28125,17.921875 L1.25,17.921875 Z M4.875,8.0625 L4.875,9.640625 C4.875,12.171875 4.875,14.65625 4.921875,17.109375 L6.171875,17.109375 C8.46875,17.109375 9.359375,15.671875 9.359375,12.71875 C9.359375,9.5 8.296875,8.0625 5.875,8.0625 Z M19.796875,2.40625 C18.71875,1.34375 17.96875,0.859375 16.96875,0.859375 C15.90625,0.859375 14.859375,1.578125 14.859375,3.140625 C14.859375,4.75 15.984375,5.734375 17.921875,6.3125 L19.796875,6.890625 Z" transform="translate(-0.4765625, 17.921875) scale(1, -1)"/>
</svg>