<svg height="18.234375" viewBox="0 0 24 18.234375" width="24" xmlns="http://www.w3.org/2000/svg">
<path d="M4.0625,5.5 L4.703125,5.5 L7.0625,15.765625 L6.90625,8.234375 L6.84375,0.84375 L5.515625,0.71875 L5.515625,0 L9.5,0 L9.5,0.71875 L8.5,0.8125 C8.46875,3.390625 8.46875,5.71875 8.46875,8.296875 L8.46875,9.640625 C8.46875,12.140625 8.453125,14.640625 8.46875,17.109375 L9.5,17.234375 L9.5,17.921875 L6.796875,17.921875 L4.75,8.78125 L2.734375,17.921875 L0.140625,17.921875 L0.140625,17.234375 L0.984375,17.109375 L0.9375,0.859375 L0.046875,0.71875 L0.046875,0 L3.046875,0 L3.046875,0.71875 L1.75,0.859375 L1.65625,15.9375 Z M22.75,-0.21875 C23.421875,-0.21875 23.734375,0.1875 23.921875,1.0625 L23.609375,1.21875 C23.40625,0.796875 23.296875,0.703125 23.140625,0.703125 C22.796875,0.703125 22.703125,1.109375 22.703125,1.78125 L22.703125,9.84375 C22.703125,12.09375 22.0625,13.0625 20.5,13.0625 C18.984375,13.0625 17.921875,11.875 17.734375,9.859375 C17.859375,9.5 18.125,9.34375 18.4375,9.34375 C18.84375,9.34375 19.125,9.625 19.203125,10.46875 L19.421875,12.234375 C19.65625,12.390625 19.84375,12.4375 20.09375,12.4375 C20.953125,12.4375 21.3125,11.828125 21.328125,9.71875 L21.328125,7.984375 L20.015625,6.765625 C18.484375,5.5 17.640625,4.296875 17.640625,2.375 C17.640625,0.625 18.40625,-0.3125 19.578125,-0.3125 C20.421875,-0.3125 20.90625,0.171875 21.40625,1.125 C21.546875,0.359375 22.015625,-0.21875 22.75,-0.21875 Z M10.0625,17.28125 L10.96875,17.1875 C11.015625,14.71875 10.984375,12.171875 10.984375,9.640625 L10.984375,8.28125 C10.984375,5.765625 10.984375,3.21875 10.9375,0.75 L10.03125,0.640625 L10.03125,0 L13.734375,0 L13.734375,0.640625 L12.484375,0.75 L12.453125,7.3125 L12.796875,7.3125 C15.21875,7.3125 16.734375,9.046875 16.734375,12.640625 C16.734375,16.21875 15.578125,17.921875 13.109375,17.921875 L10.0625,17.921875 Z M12.453125,7.96875 L12.453125,9.640625 L12.484375,17.234375 L12.90625,17.234375 C14.515625,17.234375 15.234375,15.859375 15.234375,12.703125 C15.234375,9.453125 14.375,7.96875 12.8125,7.96875 Z M21.359375,1.703125 C20.859375,1.015625 20.5,0.703125 20.0625,0.703125 C19.46875,0.703125 19.015625,1.375 19.015625,2.5 C19.015625,4.34375 19.46875,5.421875 20.375,6.359375 L21.328125,7.34375 Z" transform="translate(0.015625, 17.921875) scale(1, -1)"/>
</svg>