<svg height="24" viewBox="0 0 24 24" width="24" xmlns="http://www.w3.org/2000/svg">
<path d="M21.3125,13.734375 C22.75,13.734375 23.6875,14.375 23.6875,15.453125 C23.6875,16.265625 23.15625,16.84375 22.03125,17.0625 C23.015625,17.296875 23.453125,17.953125 23.453125,18.53125 C23.453125,19.4375 22.78125,20.09375 21.453125,20.09375 C20.46875,20.09375 19.5625,19.6875 19.46875,18.640625 C19.5625,18.5 19.734375,18.40625 19.921875,18.40625 C20.25,18.40625 20.5,18.546875 20.6875,19.625 L21.140625,19.65625 C21.84375,19.65625 22.265625,19.25 22.265625,18.484375 C22.265625,17.640625 21.71875,17.234375 20.859375,17.234375 L20.46875,17.234375 L20.46875,16.78125 L20.90625,16.78125 C21.9375,16.78125 22.46875,16.34375 22.46875,15.5 C22.46875,14.59375 21.890625,14.140625 20.90625,14.140625 L20.421875,14.1875 C20.28125,15.4375 20.09375,15.546875 19.75,15.546875 C19.515625,15.546875 19.296875,15.40625 19.203125,15.140625 C19.34375,14.234375 20.046875,13.734375 21.3125,13.734375 Z M8.40625,0 L10.828125,0 L10.828125,0.703125 L9.984375,0.8125 L9.9375,5.609375 L9.9375,10.421875 C9.9375,12.34375 9.359375,13.078125 8.28125,13.078125 C7.515625,13.078125 6.796875,12.703125 6.125,11.515625 C5.921875,12.625 5.40625,13.078125 4.578125,13.078125 C3.890625,13.078125 3.1875,12.671875 2.515625,11.375 L2.40625,12.75 L2.09375,12.9375 L-0.125,12.1875 L-0.125,11.59375 L1.03125,11.515625 C1.078125,10.265625 1.109375,8.859375 1.109375,7.15625 L1.109375,5.609375 L1.0625,0.796875 L0.265625,0.703125 L0.265625,0 L3.484375,0 L3.484375,0.703125 L2.609375,0.8125 L2.5625,5.609375 L2.5625,10.5625 C3.171875,11.640625 3.703125,11.8125 4.0625,11.8125 C4.5625,11.8125 4.875,11.421875 4.875,10.3125 L4.875,5.609375 L4.828125,0.796875 L4.03125,0.703125 L4.03125,0 L7.109375,0 L7.109375,0.703125 L6.234375,0.8125 L6.1875,5.609375 L6.1875,10.4375 L6.1875,10.75 C6.671875,11.546875 7.21875,11.8125 7.703125,11.8125 C8.203125,11.8125 8.5,11.421875 8.5,10.3125 L8.5,5.609375 C8.5,4.203125 8.46875,2.28125 8.421875,0.796875 L7.65625,0.703125 L7.65625,0 Z M19.203125,0 L21.625,0 L21.625,0.703125 L20.78125,0.8125 L20.734375,5.609375 L20.734375,10.421875 C20.734375,12.34375 20.15625,13.078125 19.078125,13.078125 C18.3125,13.078125 17.59375,12.703125 16.921875,11.515625 C16.734375,12.625 16.203125,13.078125 15.390625,13.078125 C14.6875,13.078125 13.984375,12.671875 13.3125,11.375 L13.203125,12.75 L12.890625,12.9375 L10.6875,12.1875 L10.6875,11.59375 L11.828125,11.515625 C11.875,10.265625 11.90625,8.859375 11.90625,7.15625 L11.90625,5.609375 L11.859375,0.796875 L11.0625,0.703125 L11.0625,0 L14.28125,0 L14.28125,0.703125 L13.421875,0.8125 L13.375,5.609375 L13.375,10.5625 C13.96875,11.640625 14.5,11.8125 14.859375,11.8125 C15.359375,11.8125 15.671875,11.421875 15.671875,10.3125 L15.671875,5.609375 L15.625,0.796875 L14.828125,0.703125 L14.828125,0 L17.90625,0 L17.90625,0.703125 L17.046875,0.8125 L16.984375,5.609375 L16.984375,10.4375 L16.984375,10.75 C17.46875,11.546875 18.03125,11.8125 18.5,11.8125 C19.015625,11.8125 19.296875,11.421875 19.296875,10.3125 L19.296875,5.609375 C19.296875,4.203125 19.265625,2.28125 19.21875,0.796875 L18.453125,0.703125 L18.453125,0 Z" transform="translate(0.21875, 20.09375) scale(1, -1)"/>
</svg>