<svg height="23.828125" viewBox="0 0 24 23.828125" width="24" xmlns="http://www.w3.org/2000/svg">
<path d="M16.34375,-4.265625 L17.140625,-4.265625 L19.984375,19.015625 L19.203125,19.015625 Z M2.375,9.265625 C2.71875,11.015625 3.234375,11.859375 3.703125,12.09375 L3.859375,10.84375 C3.9375,10.15625 4.15625,9.984375 4.515625,9.984375 C4.78125,9.984375 5.0625,10.265625 5.09375,10.921875 C4.84375,12.71875 4.484375,13.0625 3.9375,13.0625 C3.359375,13.0625 2.78125,12.625 2.359375,10.6875 L2.28125,12.75 L1.96875,12.90625 L-0.09375,12.3125 L-0.09375,11.859375 L1.15625,11.8125 C1.15625,10.484375 1.171875,8.921875 1.171875,7.125 L1.171875,5.59375 L1.125,0.640625 L0.125,0.578125 L0.125,0 L3.703125,0 L3.703125,0.578125 L2.421875,0.640625 L2.375,5.59375 Z M10.015625,-0.1875 C10.578125,-0.1875 10.796875,0.21875 10.9375,1.078125 L10.6875,1.21875 C10.484375,0.796875 10.421875,0.703125 10.296875,0.703125 C10.015625,0.703125 9.953125,1.0625 9.953125,1.625 L9.984375,10.109375 C9.984375,12.140625 9.4375,13.0625 8.140625,13.0625 C6.984375,13.0625 6.125,11.875 6,9.90625 C6.140625,9.578125 6.359375,9.40625 6.625,9.40625 C6.984375,9.40625 7.21875,9.703125 7.265625,10.53125 L7.4375,12.359375 C7.5625,12.453125 7.6875,12.484375 7.796875,12.484375 C8.46875,12.484375 8.78125,11.90625 8.78125,9.9375 L8.78125,8.140625 L7.703125,6.703125 C6.71875,5.296875 6,4.109375 6,2.28125 C6,0.59375 6.59375,-0.3125 7.5625,-0.3125 C8.1875,-0.3125 8.5625,0.078125 8.875,0.84375 C9.03125,0.234375 9.40625,-0.1875 10.015625,-0.1875 Z M14.609375,-0.171875 L16.390625,0 L16.390625,0.578125 L15.765625,0.640625 L15.765625,15.671875 L15.8125,19.375 L15.484375,19.5625 L13.3125,19.078125 L13.3125,18.53125 L14.609375,18.5 L14.609375,11.859375 C14.328125,12.625 13.96875,13.03125 13.515625,13.03125 C12.484375,13.03125 11.6875,11.78125 11.6875,6.34375 C11.6875,0.71875 12.28125,-0.390625 13.34375,-0.390625 C13.796875,-0.390625 14.25,0 14.59375,0.90625 Z M21.140625,-0.390625 C22.578125,-0.390625 23.28125,0.796875 23.28125,2.5 C23.28125,4.015625 22.796875,4.96875 22.0625,6.40625 L21.5,7.484375 C20.875,8.65625 20.78125,9.40625 20.78125,10.5625 C20.78125,11.65625 21.140625,12.40625 21.765625,12.40625 C21.859375,12.40625 21.984375,12.40625 22.109375,12.34375 L22.421875,9.265625 L23.0625,9.265625 L23.140625,12.390625 C22.703125,12.84375 22.265625,13.03125 21.71875,13.03125 C20.40625,13.03125 19.625,11.921875 19.625,10.171875 C19.625,8.5 20.140625,7.34375 20.78125,6.171875 L21.390625,5.0625 C21.953125,3.890625 22.109375,3.1875 22.109375,2.140625 C22.109375,1.078125 21.765625,0.265625 21.046875,0.265625 C20.90625,0.265625 20.765625,0.28125 20.609375,0.3125 L20.25,3.640625 L19.609375,3.640625 L19.5625,0.21875 C20.046875,-0.1875 20.515625,-0.390625 21.140625,-0.390625 Z M8.8125,1.5625 C8.5,0.9375 8.203125,0.671875 7.921875,0.671875 C7.484375,0.671875 7.25,1.296875 7.25,2.296875 C7.25,4.21875 7.484375,5.296875 8.09375,6.359375 L8.78125,7.46875 Z M14.59375,1.6875 C14.25,0.84375 14.09375,0.625 13.921875,0.625 C13.34375,0.625 12.9375,1.265625 12.9375,6.34375 C12.9375,11.46875 13.515625,12.03125 13.9375,12.03125 C14.203125,12.03125 14.40625,11.734375 14.59375,11.109375 Z" transform="translate(0.40625, 19.5625) scale(1, -1)"/>
</svg>