<svg height="24.359375" viewBox="0 0 24 24.359375" width="24" xmlns="http://www.w3.org/2000/svg">
<path d="M14.90625,-4.265625 L15.703125,-4.265625 L18.546875,19.015625 L17.765625,19.015625 Z M2.109375,9.359375 C2.421875,11.109375 2.921875,11.953125 3.3125,12.140625 L3.484375,10.796875 C3.5,10.125 3.71875,9.984375 4.078125,9.984375 C4.3125,9.984375 4.578125,10.25 4.625,10.921875 C4.390625,12.75 4.03125,13.03125 3.53125,13.03125 C3.03125,13.03125 2.546875,12.703125 2.09375,10.828125 L2.015625,12.75 L1.703125,12.890625 L-0.265625,12.34375 L-0.265625,11.875 L0.9375,11.828125 C0.953125,10.515625 0.984375,8.921875 0.984375,7.125 L0.984375,5.59375 L0.9375,0.640625 L-0.078125,0.546875 L-0.078125,0 L3.359375,0 L3.359375,0.546875 L2.15625,0.640625 L2.109375,5.59375 Z M9.125,-0.1875 C9.640625,-0.1875 9.859375,0.21875 9.984375,1.109375 L9.71875,1.21875 C9.546875,0.765625 9.484375,0.671875 9.390625,0.671875 C9.09375,0.671875 9.078125,1.0625 9.078125,1.578125 L9.09375,10.171875 C9.09375,12.171875 8.59375,13.03125 7.375,13.03125 C6.34375,13.03125 5.515625,11.859375 5.453125,9.90625 C5.59375,9.59375 5.8125,9.453125 6.046875,9.453125 C6.40625,9.453125 6.59375,9.71875 6.671875,10.53125 L6.84375,12.40625 C6.90625,12.484375 6.984375,12.5 7.078125,12.5 C7.6875,12.5 7.9375,11.921875 7.96875,10.03125 L7.96875,8.1875 L6.953125,6.671875 C6.140625,5.25 5.46875,4.0625 5.46875,2.234375 C5.46875,0.59375 6,-0.3125 6.90625,-0.3125 C7.484375,-0.3125 7.828125,0.046875 8.0625,0.765625 C8.203125,0.234375 8.5625,-0.1875 9.125,-0.1875 Z M13.296875,-0.171875 L14.953125,0 L14.953125,0.546875 L14.421875,0.625 L14.421875,15.671875 L14.46875,19.375 L14.109375,19.5625 L12.03125,19.078125 L12.03125,18.578125 L13.296875,18.5 L13.296875,12 C13.0625,12.671875 12.75,13.03125 12.34375,13.03125 C11.40625,13.03125 10.6875,11.8125 10.6875,6.359375 C10.6875,0.703125 11.203125,-0.390625 12.1875,-0.390625 C12.578125,-0.390625 12.984375,-0.03125 13.296875,0.8125 Z M19.484375,-0.390625 C20.8125,-0.390625 21.4375,0.765625 21.4375,2.453125 C21.4375,3.953125 20.96875,4.890625 20.328125,6.390625 L19.828125,7.484375 C19.296875,8.6875 19.203125,9.40625 19.203125,10.578125 C19.203125,11.6875 19.5625,12.4375 20.09375,12.4375 C20.15625,12.4375 20.234375,12.40625 20.328125,12.390625 L20.640625,9.28125 L21.234375,9.28125 L21.3125,12.40625 C20.953125,12.859375 20.546875,13.03125 20.0625,13.03125 C18.8125,13.03125 18.078125,11.921875 18.078125,10.203125 C18.078125,8.546875 18.578125,7.390625 19.125,6.171875 L19.6875,5.046875 C20.1875,3.859375 20.296875,3.140625 20.296875,2.09375 C20.296875,1.078125 20.015625,0.234375 19.375,0.234375 L19.0625,0.265625 L18.71875,3.640625 L18.078125,3.640625 L18.03125,0.1875 C18.453125,-0.21875 18.90625,-0.390625 19.484375,-0.390625 Z M19.375,13.84375 L23.609375,13.84375 L23.609375,14.90625 L20.296875,14.90625 C22.890625,16.796875 23.421875,17.515625 23.421875,18.453125 C23.421875,19.375 22.75,20.09375 21.4375,20.09375 C20.40625,20.09375 19.5625,19.609375 19.390625,18.625 C19.515625,18.40625 19.6875,18.28125 19.890625,18.28125 C20.296875,18.28125 20.46875,18.40625 20.71875,19.625 L21.140625,19.65625 C21.84375,19.65625 22.21875,19.203125 22.21875,18.40625 C22.21875,17.5625 21.90625,16.875 19.375,14.5625 Z M7.984375,1.53125 C7.75,0.890625 7.46875,0.640625 7.265625,0.640625 C6.859375,0.640625 6.671875,1.25 6.671875,2.234375 C6.671875,4.171875 6.84375,5.28125 7.375,6.359375 L7.96875,7.484375 Z M13.296875,1.703125 C12.953125,0.8125 12.890625,0.625 12.75,0.625 C12.234375,0.625 11.859375,1.203125 11.859375,6.359375 C11.859375,11.515625 12.40625,12.046875 12.765625,12.046875 C12.953125,12.046875 13.109375,11.78125 13.296875,11.15625 Z" transform="translate(0.328125, 20.09375) scale(1, -1)"/>
</svg>