<svg height="20.484375" viewBox="0 0 24 20.484375" width="24" xmlns="http://www.w3.org/2000/svg">
<path d="M4.3125,-0.390625 C5.6875,-0.390625 6.546875,0.625 7.078125,2.765625 L6.59375,2.96875 C6.078125,1.4375 5.515625,0.765625 4.6875,0.765625 C3.453125,0.765625 2.5,2.0625 2.5,6.484375 C2.5,11.046875 3.390625,12.34375 4.53125,12.34375 C4.828125,12.34375 5.046875,12.265625 5.28125,12.09375 L5.515625,10.390625 C5.59375,9.453125 5.875,9.171875 6.34375,9.171875 C6.71875,9.171875 6.984375,9.359375 7.125,9.8125 C6.890625,11.828125 5.828125,13.0625 4.46875,13.0625 C2.609375,13.0625 0.984375,11.65625 0.984375,6.34375 C0.984375,1.265625 2.40625,-0.390625 4.3125,-0.390625 Z M21.1875,13.734375 C22.625,13.734375 23.5625,14.375 23.5625,15.453125 C23.5625,16.265625 23.046875,16.84375 21.90625,17.0625 C22.890625,17.296875 23.328125,17.953125 23.328125,18.53125 C23.328125,19.4375 22.65625,20.09375 21.328125,20.09375 C20.359375,20.09375 19.4375,19.6875 19.34375,18.640625 C19.4375,18.5 19.609375,18.40625 19.796875,18.40625 C20.140625,18.40625 20.375,18.546875 20.5625,19.625 L21.03125,19.65625 C21.71875,19.65625 22.15625,19.25 22.15625,18.484375 C22.15625,17.640625 21.59375,17.234375 20.734375,17.234375 L20.359375,17.234375 L20.359375,16.78125 L20.78125,16.78125 C21.8125,16.78125 22.34375,16.34375 22.34375,15.5 C22.34375,14.59375 21.765625,14.140625 20.78125,14.140625 L20.296875,14.1875 C20.15625,15.4375 19.96875,15.546875 19.625,15.546875 C19.390625,15.546875 19.171875,15.40625 19.078125,15.140625 C19.21875,14.234375 19.921875,13.734375 21.1875,13.734375 Z M18.28125,0 L21.09375,0 L21.09375,0.71875 L20.015625,0.859375 L19.984375,5.609375 L19.984375,10.109375 C19.984375,12.21875 19.21875,13.078125 17.953125,13.078125 C16.984375,13.078125 16.125,12.640625 15.3125,11.40625 C15.046875,12.578125 14.40625,13.078125 13.46875,13.078125 C12.578125,13.078125 11.734375,12.59375 10.9375,11.25 L10.828125,12.765625 L10.515625,12.9375 L7.9375,12.171875 L7.9375,11.515625 L9.265625,11.46875 C9.34375,10.21875 9.359375,8.828125 9.359375,7.15625 L9.359375,5.609375 C9.359375,4.25 9.34375,2.328125 9.28125,0.859375 L8.328125,0.71875 L8.328125,0 L12.140625,0 L12.140625,0.71875 L11.046875,0.859375 L10.984375,5.609375 L10.984375,10.4375 C11.6875,11.5625 12.359375,11.78125 12.890625,11.78125 C13.53125,11.78125 13.921875,11.328125 13.921875,9.984375 L13.921875,5.609375 L13.875,0.859375 L12.90625,0.71875 L12.90625,0 L16.53125,0 L16.53125,0.71875 L15.484375,0.859375 L15.4375,5.609375 L15.4375,10.109375 L15.40625,10.609375 C16.03125,11.46875 16.703125,11.78125 17.359375,11.78125 C17.96875,11.78125 18.359375,11.328125 18.359375,9.953125 L18.359375,5.609375 C18.359375,4.203125 18.359375,2.328125 18.3125,0.859375 L17.328125,0.71875 L17.328125,0 Z" transform="translate(-0.2734375, 20.09375) scale(1, -1)"/>
</svg>