<svg height="18.703125" viewBox="0 0 24 18.703125" width="24" xmlns="http://www.w3.org/2000/svg">
<path d="M4.46875,8.015625 L6.125,7.890625 L6.1875,2.015625 L6.21875,0.484375 C5.90625,0.34375 5.609375,0.265625 5.28125,0.265625 C3.671875,0.265625 2.546875,2.6875 2.546875,8.96875 C2.546875,15.34375 3.53125,17.640625 5.25,17.640625 C5.609375,17.640625 5.90625,17.59375 6.21875,17.453125 L6.796875,13.46875 L7.625,13.46875 L7.53125,17.453125 C6.8125,18.046875 6.140625,18.3125 5.1875,18.3125 C2.59375,18.3125 0.859375,15.765625 0.859375,8.96875 C0.859375,2.203125 2.5625,-0.390625 5.015625,-0.390625 C6.078125,-0.390625 6.84375,-0.09375 7.65625,0.640625 L7.6875,2.046875 C7.6875,4.296875 7.6875,6.171875 7.703125,7.921875 L8.5625,8.015625 L8.5625,8.734375 L4.46875,8.734375 Z M22.734375,-0.21875 C23.40625,-0.21875 23.71875,0.1875 23.921875,1.0625 L23.609375,1.21875 C23.40625,0.796875 23.28125,0.703125 23.109375,0.703125 C22.78125,0.703125 22.65625,1.109375 22.65625,1.828125 L22.6875,9.796875 C22.6875,12.09375 21.984375,13.0625 20.375,13.0625 C18.84375,13.0625 17.734375,11.875 17.515625,9.859375 C17.65625,9.5 17.921875,9.3125 18.234375,9.3125 C18.671875,9.3125 18.953125,9.625 19.03125,10.46875 L19.21875,12.21875 C19.484375,12.390625 19.703125,12.4375 19.984375,12.4375 C20.875,12.4375 21.265625,11.8125 21.265625,9.640625 L21.265625,7.9375 L19.921875,6.765625 C18.28125,5.546875 17.421875,4.296875 17.421875,2.40625 C17.421875,0.625 18.21875,-0.3125 19.390625,-0.3125 C20.296875,-0.3125 20.8125,0.1875 21.328125,1.203125 C21.484375,0.390625 21.9375,-0.21875 22.734375,-0.21875 Z M9.1875,17.25 L10.25,17.15625 C10.265625,14.6875 10.265625,12.140625 10.265625,9.640625 L10.265625,8.28125 C10.265625,5.765625 10.265625,3.234375 10.21875,0.796875 L9.171875,0.671875 L9.171875,0 L13.21875,0 L13.21875,0.671875 L11.8125,0.796875 L11.78125,7.296875 L12.234375,7.296875 C14.828125,7.296875 16.421875,9.03125 16.421875,12.640625 C16.421875,16.21875 15.1875,17.921875 12.546875,17.921875 L9.1875,17.921875 Z M11.78125,8.015625 L11.78125,9.640625 C11.78125,12.171875 11.78125,14.734375 11.828125,17.234375 L12.390625,17.234375 C14.09375,17.234375 14.828125,15.84375 14.828125,12.71875 C14.828125,9.453125 13.921875,8.015625 12.265625,8.015625 Z M21.3125,1.78125 C20.78125,1.0625 20.375,0.71875 19.921875,0.71875 C19.296875,0.71875 18.84375,1.375 18.84375,2.515625 C18.84375,4.375 19.265625,5.421875 20.28125,6.359375 L21.28125,7.3125 Z" transform="translate(-0.390625, 18.3125) scale(1, -1)"/>
</svg>