<svg height="19.875" viewBox="0 0 24 19.875" width="24" xmlns="http://www.w3.org/2000/svg">
<path d="M4.25,12.046875 L5.65625,11.875 L2.765625,6.484375 L2.765625,15.546875 L2.8125,19.34375 L2.421875,19.5625 L-0.03125,19.03125 L-0.03125,18.453125 L1.25,18.390625 L1.25,5.59375 L1.21875,0.75 L0.34375,0.625 L0.34375,0 L3.75,0 L3.75,0.625 L2.78125,0.75 L2.765625,5.5 L3.703125,7.109375 L5.453125,0 L7.84375,0 L7.84375,0.625 L6.8125,0.71875 L4.734375,8.90625 L6.453125,11.875 L7.65625,12.046875 L7.65625,12.640625 L4.25,12.640625 Z M22.46875,-0.21875 C23.15625,-0.21875 23.46875,0.1875 23.6875,1.03125 L23.375,1.21875 C23.15625,0.796875 23.046875,0.671875 22.875,0.671875 C22.515625,0.671875 22.421875,1.109375 22.421875,1.828125 L22.421875,9.796875 C22.421875,12.09375 21.71875,13.0625 20.09375,13.0625 C18.5,13.0625 17.40625,11.875 17.1875,9.890625 C17.328125,9.5 17.59375,9.28125 17.90625,9.28125 C18.34375,9.28125 18.625,9.625 18.703125,10.46875 L18.90625,12.21875 C19.171875,12.390625 19.421875,12.4375 19.703125,12.4375 C20.59375,12.4375 21,11.8125 21,9.625 L21,7.9375 L19.625,6.765625 C17.953125,5.546875 17.09375,4.3125 17.09375,2.40625 C17.09375,0.625 17.90625,-0.3125 19.078125,-0.3125 C19.96875,-0.3125 20.515625,0.1875 21.078125,1.171875 C21.1875,0.390625 21.703125,-0.21875 22.46875,-0.21875 Z M8.828125,17.25 L9.890625,17.15625 C9.90625,14.6875 9.90625,12.140625 9.90625,9.640625 L9.90625,8.28125 C9.90625,5.765625 9.90625,3.234375 9.859375,0.796875 L8.8125,0.671875 L8.8125,0 L12.859375,0 L12.859375,0.671875 L11.453125,0.796875 L11.421875,7.296875 L11.875,7.296875 C14.46875,7.296875 16.0625,9.03125 16.0625,12.640625 C16.0625,16.21875 14.828125,17.921875 12.1875,17.921875 L8.828125,17.921875 Z M11.421875,8.015625 L11.421875,9.640625 C11.421875,12.171875 11.421875,14.734375 11.46875,17.234375 L12.03125,17.234375 C13.734375,17.234375 14.46875,15.84375 14.46875,12.71875 C14.46875,9.453125 13.5625,8.015625 11.90625,8.015625 Z M21.03125,1.78125 C20.5,1.0625 20.0625,0.71875 19.578125,0.71875 C18.953125,0.71875 18.5,1.375 18.5,2.546875 C18.5,4.375 18.953125,5.421875 19.96875,6.34375 L21,7.3125 Z" transform="translate(0.171875, 19.5625) scale(1, -1)"/>
</svg>