<svg height="24" viewBox="0 0 24 24" width="24" xmlns="http://www.w3.org/2000/svg">
<path d="M4.734375,12 L6.359375,11.859375 L3,6.265625 L3,15.546875 L3.078125,19.34375 L2.6875,19.5625 L0,19.015625 L0,18.40625 L1.421875,18.34375 L1.421875,5.609375 L1.375,0.765625 L0.390625,0.640625 L0.390625,0 L4.15625,0 L4.15625,0.640625 L3.03125,0.765625 L3,5.28125 L4.109375,7.015625 L6.140625,0 L8.765625,0 L8.765625,0.640625 L7.578125,0.765625 L5.203125,8.765625 L7.203125,11.859375 L8.515625,12 L8.515625,12.640625 L4.734375,12.640625 Z M19.375,13.84375 L23.609375,13.84375 L23.609375,14.90625 L20.296875,14.90625 C22.890625,16.796875 23.421875,17.515625 23.421875,18.453125 C23.421875,19.375 22.75,20.09375 21.4375,20.09375 C20.40625,20.09375 19.5625,19.609375 19.390625,18.625 C19.515625,18.40625 19.6875,18.28125 19.890625,18.28125 C20.296875,18.28125 20.46875,18.40625 20.71875,19.625 L21.140625,19.65625 C21.84375,19.65625 22.21875,19.203125 22.21875,18.40625 C22.21875,17.5625 21.90625,16.875 19.375,14.5625 Z M19.3125,0 L22.078125,0 L22.078125,0.71875 L21,0.859375 L20.96875,5.609375 L20.96875,10.125 C20.96875,12.234375 20.25,13.078125 18.984375,13.078125 C18.03125,13.078125 17.203125,12.640625 16.375,11.40625 C16.125,12.578125 15.5,13.078125 14.546875,13.078125 C13.703125,13.078125 12.859375,12.625 12.09375,11.28125 L11.96875,12.765625 L11.65625,12.9375 L9.125,12.171875 L9.125,11.515625 L10.4375,11.46875 C10.484375,10.21875 10.515625,8.828125 10.515625,7.15625 L10.515625,5.609375 C10.515625,4.25 10.515625,2.328125 10.46875,0.859375 L9.5,0.71875 L9.5,0 L13.265625,0 L13.265625,0.71875 L12.1875,0.859375 L12.140625,5.609375 L12.140625,10.421875 C12.84375,11.59375 13.484375,11.78125 13.984375,11.78125 C14.640625,11.78125 15,11.328125 15,10.015625 L15,5.609375 L14.96875,0.859375 L14.015625,0.71875 L14.015625,0 L17.5625,0 L17.5625,0.71875 L16.53125,0.859375 L16.484375,5.609375 L16.484375,10.125 L16.46875,10.609375 C17.09375,11.46875 17.734375,11.78125 18.359375,11.78125 C18.984375,11.78125 19.375,11.328125 19.375,10.015625 L19.375,5.609375 L19.34375,0.859375 L18.359375,0.71875 L18.359375,0 Z" transform="translate(0.1953125, 20.09375) scale(1, -1)"/>
</svg>