<svg height="18.0625" viewBox="0 0 24 18.0625" width="24" xmlns="http://www.w3.org/2000/svg">
<path d="M5.78125,3.953125 L6.484375,3.953125 L9.859375,15.9375 L9.71875,8.25 C9.640625,5.8125 9.671875,3.34375 9.640625,0.9375 L7.84375,0.765625 L7.84375,0 L12.9375,0 L12.9375,0.765625 L11.5625,0.90625 C11.515625,3.359375 11.515625,5.828125 11.515625,8.328125 L11.515625,9.640625 C11.5,12.125 11.5,14.59375 11.546875,17.015625 L12.90625,17.15625 L12.90625,17.921875 L9.5,17.921875 L6.578125,7.296875 L3.625,17.921875 L0.3125,17.921875 L0.3125,17.15625 L1.53125,17.015625 L1.46875,0.953125 L0.171875,0.765625 L0.171875,0 L4.265625,0 L4.265625,0.765625 L2.40625,0.953125 L2.328125,15.953125 Z M20.15625,17.203125 L21.578125,17.0625 L19.0625,2.953125 L16.53125,17.0625 L18,17.203125 L18,17.921875 L13.46875,17.921875 L13.46875,17.1875 L14.5625,17.0625 L17.953125,-0.140625 L19.171875,-0.140625 L22.53125,17.0625 L23.71875,17.1875 L23.71875,17.921875 L20.15625,17.921875 Z" transform="translate(0.0546875, 17.921875) scale(1, -1)"/>
</svg>