<svg height="19.75" viewBox="0 0 24 19.75" width="24" xmlns="http://www.w3.org/2000/svg">
<path d="M5.90625,11.921875 L8.0625,11.734375 L3.59375,5.78125 L3.59375,15.53125 L3.671875,19.3125 L3.28125,19.5625 L-0.078125,18.984375 L-0.078125,18.3125 L1.703125,18.21875 L1.703125,5.609375 L1.6875,0.859375 L0.40625,0.71875 L0.40625,0 L5.15625,0 L5.15625,0.71875 L3.640625,0.859375 L3.59375,4.734375 L5.140625,6.640625 L7.984375,0 L11.09375,0 L11.09375,0.71875 L9.625,0.859375 L6.390625,8.234375 L9.171875,11.765625 L10.78125,11.921875 L10.78125,12.640625 L5.90625,12.640625 Z M18.9375,17.1875 L20.78125,16.984375 L17.421875,2.6875 L14.015625,17.015625 L15.9375,17.1875 L15.9375,17.921875 L10.390625,17.921875 L10.390625,17.15625 L11.875,17.015625 L16.203125,-0.1875 L17.515625,-0.1875 L21.75,16.984375 L23.328125,17.15625 L23.328125,17.921875 L18.9375,17.921875 Z" transform="translate(0.375, 19.5625) scale(1, -1)"/>
</svg>