<svg height="18.109375" viewBox="0 0 24 18.109375" width="24" xmlns="http://www.w3.org/2000/svg">
<path d="M19.9375,17.15625 L21.796875,16.984375 L19.96875,2.5 L17.875,14.109375 L16.78125,14.109375 L14.421875,2.40625 L12.75,17.015625 L14.40625,17.15625 L14.40625,17.921875 L9.765625,17.921875 L9.765625,17.15625 L10.828125,17.046875 L13.21875,-0.1875 L14.609375,-0.1875 L16.875,10.578125 L18.953125,-0.1875 L20.359375,-0.1875 L22.6875,16.984375 L23.953125,17.15625 L23.953125,17.921875 L19.9375,17.921875 Z M7.53125,0 L10.578125,0 L10.578125,0.703125 L9.453125,0.8125 L9.40625,5.609375 L9.40625,9.703125 C9.40625,12.125 8.515625,13.078125 6.9375,13.078125 C5.8125,13.078125 4.5625,12.546875 3.453125,10.828125 L3.390625,12.75 L3.046875,12.9375 L0.234375,12.1875 L0.234375,11.59375 L1.578125,11.515625 C1.625,10.25 1.65625,8.859375 1.65625,7.125 L1.65625,5.609375 L1.609375,0.8125 L0.453125,0.703125 L0.453125,0 L4.796875,0 L4.796875,0.703125 L3.53125,0.8125 L3.484375,5.609375 L3.484375,10.078125 C4.609375,11.5 5.515625,11.8125 6.171875,11.8125 C7.15625,11.8125 7.609375,11.1875 7.609375,9.578125 L7.609375,5.609375 C7.609375,4.171875 7.609375,2.40625 7.5625,0.84375 L6.390625,0.703125 L6.390625,0 Z" transform="translate(-0.09375, 17.921875) scale(1, -1)"/>
</svg>