<svg height="24.328125" viewBox="0 0 24 24.328125" width="24" xmlns="http://www.w3.org/2000/svg">
<path d="M18.765625,17.1875 L20.65625,16.984375 L17.1875,2.609375 L13.6875,17.015625 L15.671875,17.1875 L15.671875,17.921875 L10.015625,17.921875 L10.015625,17.15625 L11.546875,17.015625 L15.953125,-0.1875 L17.296875,-0.1875 L21.640625,16.984375 L23.25,17.15625 L23.25,17.921875 L18.765625,17.921875 Z M6.546875,-0.390625 C8.8125,-0.390625 10.6875,1.390625 10.6875,6.359375 C10.6875,11.421875 9.046875,13.078125 6.75,13.078125 C5.609375,13.078125 4.515625,12.5 3.671875,10.984375 L3.578125,12.796875 L3.234375,12.9375 L0.21875,12.171875 L0.21875,11.515625 L1.6875,11.46875 C1.703125,10.21875 1.734375,8.859375 1.734375,7.15625 L1.734375,-0.625 L1.703125,-5.546875 L0.171875,-5.6875 L0.171875,-6.40625 L5.8125,-6.40625 L5.8125,-5.6875 L3.703125,-5.515625 L3.671875,-0.625 L3.671875,1.578125 C4.4375,0.171875 5.453125,-0.390625 6.546875,-0.390625 Z M3.671875,10.109375 C4.4375,11.375 5.1875,11.8125 6.125,11.8125 C7.65625,11.8125 8.6875,10.703125 8.6875,6.359375 C8.6875,1.9375 7.53125,0.890625 6.03125,0.890625 C5.09375,0.890625 4.421875,1.34375 3.671875,2.453125 Z" transform="translate(0.2890625, 17.921875) scale(1, -1)"/>
</svg>