<svg height="24.359375" viewBox="0 0 24 24.359375" width="24" xmlns="http://www.w3.org/2000/svg">
<path d="M19.9375,17.15625 L21.796875,16.984375 L19.96875,2.5 L17.875,14.109375 L16.78125,14.109375 L14.421875,2.40625 L12.75,17.015625 L14.40625,17.15625 L14.40625,17.921875 L9.765625,17.921875 L9.765625,17.15625 L10.828125,17.046875 L13.21875,-0.1875 L14.609375,-0.1875 L16.875,10.578125 L18.953125,-0.1875 L20.359375,-0.1875 L22.6875,16.984375 L23.953125,17.15625 L23.953125,17.921875 L19.9375,17.921875 Z M6.125,-0.390625 C8.296875,-0.390625 10.078125,1.375 10.078125,6.390625 C10.078125,11.40625 8.515625,13.078125 6.28125,13.078125 C5.234375,13.078125 4.15625,12.484375 3.359375,11.015625 L3.265625,12.765625 L2.921875,12.9375 L0.046875,12.1875 L0.046875,11.5625 L1.484375,11.515625 C1.53125,10.25 1.53125,8.859375 1.53125,7.109375 L1.53125,-0.671875 L1.515625,-5.5625 L0.078125,-5.71875 L0.078125,-6.4375 L5.40625,-6.4375 L5.40625,-5.71875 L3.390625,-5.546875 L3.359375,-0.640625 L3.359375,1.53125 C4.109375,0.171875 5.0625,-0.390625 6.125,-0.390625 Z M3.359375,10.109375 C4.109375,11.375 4.828125,11.828125 5.734375,11.828125 C7.21875,11.828125 8.203125,10.78125 8.203125,6.390625 C8.203125,1.890625 7.078125,0.859375 5.609375,0.859375 C4.734375,0.859375 4.078125,1.3125 3.359375,2.421875 Z" transform="translate(0, 17.921875) scale(1, -1)"/>
</svg>