<svg height="13.46875" viewBox="0 0 24 13.46875" width="24" xmlns="http://www.w3.org/2000/svg">
<path d="M17.734375,-0.390625 C20.6875,-0.390625 22.171875,1.0625 22.171875,3.140625 C22.171875,4.828125 21.40625,5.875 19.421875,6.859375 L18,7.53125 C16.421875,8.328125 15.8125,9.078125 15.8125,10.25 C15.8125,11.46875 16.6875,12.34375 18.28125,12.34375 C18.953125,12.34375 19.5625,12.21875 20.203125,11.90625 L20.640625,9.3125 L21.625,9.3125 L21.75,12.09375 C20.5625,12.765625 19.65625,13.078125 18.359375,13.078125 C15.625,13.078125 14.25,11.65625 14.25,9.703125 C14.25,7.84375 15.28125,6.796875 16.890625,5.96875 L18.234375,5.328125 C20.109375,4.421875 20.546875,3.75 20.546875,2.609375 C20.546875,1.296875 19.578125,0.359375 17.734375,0.359375 C16.78125,0.359375 16.109375,0.53125 15.453125,0.84375 L15.03125,3.640625 L14.0625,3.640625 L14.015625,0.546875 C15.21875,-0.09375 16.3125,-0.390625 17.734375,-0.390625 Z M8.453125,0 L11.78125,0 L11.78125,0.71875 L10.515625,0.859375 L10.46875,5.609375 L10.46875,9.453125 C10.46875,12.03125 9.453125,13.078125 7.703125,13.078125 C6.453125,13.078125 5.0625,12.546875 3.796875,10.734375 L3.71875,12.765625 L3.390625,12.9375 L0.28125,12.171875 L0.28125,11.515625 L1.828125,11.46875 C1.84375,10.203125 1.875,8.828125 1.875,7.15625 L1.875,5.609375 L1.84375,0.859375 L0.53125,0.71875 L0.53125,0 L5.296875,0 L5.296875,0.71875 L3.859375,0.859375 L3.8125,5.609375 L3.8125,9.9375 C5.109375,11.46875 6.171875,11.78125 6.859375,11.78125 C8.015625,11.78125 8.515625,11.109375 8.515625,9.3125 L8.515625,5.609375 C8.515625,4.171875 8.515625,2.5 8.46875,0.859375 L7.171875,0.71875 L7.171875,0 Z" transform="translate(0.7734375, 13.078125) scale(1, -1)"/>
</svg>