<svg height="18.109375" viewBox="0 0 24 18.109375" width="24" xmlns="http://www.w3.org/2000/svg">
<path d="M18.765625,17.1875 L20.65625,16.984375 L17.1875,2.609375 L13.6875,17.015625 L15.671875,17.1875 L15.671875,17.921875 L10.015625,17.921875 L10.015625,17.15625 L11.546875,17.015625 L15.953125,-0.1875 L17.296875,-0.1875 L21.640625,16.984375 L23.25,17.15625 L23.25,17.921875 L18.765625,17.921875 Z M8.453125,0 L11.78125,0 L11.78125,0.71875 L10.515625,0.859375 L10.46875,5.609375 L10.46875,9.453125 C10.46875,12.03125 9.453125,13.078125 7.703125,13.078125 C6.453125,13.078125 5.0625,12.546875 3.796875,10.734375 L3.71875,12.765625 L3.390625,12.9375 L0.28125,12.171875 L0.28125,11.515625 L1.828125,11.46875 C1.84375,10.203125 1.875,8.828125 1.875,7.15625 L1.875,5.609375 L1.84375,0.859375 L0.53125,0.71875 L0.53125,0 L5.296875,0 L5.296875,0.71875 L3.859375,0.859375 L3.8125,5.609375 L3.8125,9.9375 C5.109375,11.46875 6.171875,11.78125 6.859375,11.78125 C8.015625,11.78125 8.515625,11.109375 8.515625,9.3125 L8.515625,5.609375 C8.515625,4.171875 8.515625,2.5 8.46875,0.859375 L7.171875,0.71875 L7.171875,0 Z" transform="translate(0.234375, 17.921875) scale(1, -1)"/>
</svg>