<svg height="23.03125" viewBox="0 0 24 23.03125" width="24" xmlns="http://www.w3.org/2000/svg">
<path d="M19.9375,17.15625 L21.796875,16.984375 L19.96875,2.5 L17.875,14.109375 L16.78125,14.109375 L14.421875,2.40625 L12.75,17.015625 L14.40625,17.15625 L14.40625,17.921875 L9.765625,17.921875 L9.765625,17.15625 L10.828125,17.046875 L13.21875,-0.1875 L14.609375,-0.1875 L16.875,10.578125 L18.953125,-0.1875 L20.359375,-0.1875 L22.6875,16.984375 L23.953125,17.15625 L23.953125,17.921875 L19.9375,17.921875 Z M10.015625,-0.34375 C10.796875,-0.34375 11.40625,0.1875 11.765625,0.84375 L11.5625,1.34375 C11.203125,1.125 10.96875,0.984375 10.46875,0.984375 C9.84375,0.984375 9.453125,1.296875 9.453125,2.734375 C9.453125,4.828125 9.53125,6.984375 9.765625,12.859375 L9.453125,13.0625 L7.875,12.59375 L8.046875,3.046875 C7.3125,1.921875 6.453125,1.296875 5.421875,1.296875 C4.421875,1.296875 3.640625,1.6875 3,2.765625 C3,5.28125 3.03125,7.703125 3.171875,12.859375 L2.859375,13.0625 L1.25,12.59375 L1.65625,2.46875 L1.21875,-4.828125 L1.578125,-5.109375 L3.171875,-4.65625 L2.765625,1.265625 C3.34375,0.1875 4.171875,-0.34375 5.109375,-0.34375 C6.40625,-0.34375 7.390625,0.5 8.0625,2.0625 C8.234375,0.34375 8.921875,-0.34375 10.015625,-0.34375 Z" transform="translate(-0.5859375, 17.921875) scale(1, -1)"/>
</svg>