<svg height="18.109375" viewBox="0 0 24 18.109375" width="24" xmlns="http://www.w3.org/2000/svg">
<path d="M5.1875,4.390625 L5.875,4.390625 L8.921875,15.890625 L8.78125,8.25 C8.71875,5.78125 8.734375,3.34375 8.71875,0.9375 L7.03125,0.765625 L7.03125,0 L11.8125,0 L11.8125,0.765625 L10.609375,0.90625 C10.5625,3.34375 10.5625,5.828125 10.5625,8.328125 L10.5625,9.640625 C10.5625,12.125 10.53125,14.59375 10.5625,17.015625 L11.8125,17.15625 L11.8125,17.921875 L8.5625,17.921875 L5.96875,7.84375 L3.34375,17.921875 L0.234375,17.921875 L0.234375,17.15625 L1.265625,17.015625 L1.21875,0.953125 L0.125,0.765625 L0.125,0 L3.9375,0 L3.9375,0.765625 L2.15625,0.953125 L2.0625,15.9375 Z M20.28125,17.15625 L21.984375,17.015625 L20.59375,2.65625 L18.984375,13.625 L17.953125,13.625 L15.984375,2.40625 L14.765625,17.015625 L16.25,17.15625 L16.25,17.921875 L12.078125,17.921875 L12.078125,17.15625 L12.9375,17.046875 L14.8125,-0.1875 L16.203125,-0.1875 L18.03125,9.796875 L19.609375,-0.1875 L21.03125,-0.1875 L22.875,17.015625 L23.90625,17.15625 L23.90625,17.921875 L20.28125,17.921875 Z" transform="translate(-0.015625, 17.921875) scale(1, -1)"/>
</svg>