<svg height="24" viewBox="0 0 24 24" width="24" xmlns="http://www.w3.org/2000/svg">
<path d="M15.9375,3.5 L16.6875,3.5 L20.359375,15.859375 L20.234375,8.25 C20.1875,5.8125 20.203125,3.34375 20.1875,0.9375 L18.28125,0.765625 L18.28125,0 L23.65625,0 L23.65625,0.765625 L22.125,0.90625 C22.078125,3.359375 22.078125,5.828125 22.078125,8.328125 L22.078125,9.640625 C22.078125,12.125 22.078125,14.59375 22.109375,16.984375 L23.640625,17.15625 L23.640625,17.921875 L20.0625,17.921875 L16.78125,6.75 L13.4375,17.921875 L10.03125,17.921875 L10.03125,17.15625 L11.375,16.984375 L11.296875,0.953125 L9.84375,0.765625 L9.84375,0 L14.203125,0 L14.203125,0.765625 L12.21875,0.953125 L12.171875,15.890625 Z M5.546875,17.234375 L7.03125,17.09375 L3.21875,8.328125 L3.21875,9.625 C3.21875,12.140625 3.21875,14.65625 3.265625,17.109375 L4.515625,17.234375 L4.515625,17.921875 L0.453125,17.921875 L0.453125,17.234375 L1.53125,17.140625 C1.578125,14.65625 1.578125,12.171875 1.578125,9.640625 L1.578125,8.296875 C1.578125,5.78125 1.578125,3.28125 1.53125,0.8125 L0.453125,0.71875 L0.453125,0 L4.46875,0 L4.46875,0.71875 L3.265625,0.8125 C3.21875,3.078125 3.21875,5.28125 3.21875,7.125 L4.3125,9.5 L6.703125,0.84375 L5.46875,0.71875 L5.46875,0 L9.34375,0 L9.34375,0.71875 L8.453125,0.8125 L5.296875,11.59375 L7.921875,17.09375 L9.046875,17.234375 L9.046875,17.921875 L5.546875,17.921875 Z" transform="translate(-0.0546875, 17.921875) scale(1, -1)"/>
</svg>