<svg height="24" viewBox="0 0 24 24" width="24" xmlns="http://www.w3.org/2000/svg">
<path d="M5.046875,16.625 C5.8125,16.625 6.4375,17.203125 6.4375,18.046875 C6.4375,18.890625 5.8125,19.4375 5.046875,19.4375 C4.265625,19.4375 3.59375,18.890625 3.59375,18.046875 C3.59375,17.203125 4.265625,16.625 5.046875,16.625 Z M4.109375,0 L7.703125,0 L7.703125,0.71875 L6.125,0.859375 L6.09375,5.609375 L6.09375,9.34375 L6.171875,12.765625 L5.859375,12.9375 L2.421875,12.1875 L2.421875,11.5625 L4.109375,11.5 C4.125,10.25 4.171875,8.8125 4.171875,7.078125 L4.171875,5.609375 L4.125,0.890625 L2.5,0.71875 L2.5,0 Z M19.5625,0 L23.09375,0 L23.09375,0.71875 L21.640625,0.859375 L21.59375,5.609375 L21.59375,9.265625 C21.59375,12 20.46875,13.078125 18.59375,13.078125 C17.234375,13.078125 15.75,12.5 14.296875,10.65625 L14.203125,12.765625 L13.890625,12.9375 L10.625,12.171875 L10.625,11.515625 L12.28125,11.46875 C12.34375,10.203125 12.359375,8.828125 12.359375,7.15625 L12.359375,5.609375 C12.359375,4.21875 12.359375,2.453125 12.3125,0.890625 L10.828125,0.71875 L10.828125,0 L15.953125,0 L15.953125,0.71875 L14.375,0.859375 L14.328125,5.609375 L14.328125,9.890625 C15.75,11.40625 16.9375,11.78125 17.78125,11.78125 C19.03125,11.78125 19.609375,11.0625 19.609375,9.140625 L19.609375,5.609375 L19.578125,0.890625 L18.09375,0.71875 L18.09375,0 Z" transform="translate(-0.7578125, 19.4375) scale(1, -1)"/>
</svg>