<svg height="19.953125" viewBox="0 0 24 19.953125" width="24" xmlns="http://www.w3.org/2000/svg">
<path d="M8.359375,-0.171875 L11.765625,0 L11.765625,0.71875 L10.25,0.84375 L10.25,15.640625 L10.3125,19.3125 L9.90625,19.5625 L6.453125,18.953125 L6.453125,18.3125 L8.328125,18.1875 L8.328125,11.09375 C7.5625,12.53125 6.5,13.078125 5.375,13.078125 C3.078125,13.078125 1.171875,11.28125 1.171875,6.34375 C1.171875,1.3125 2.859375,-0.390625 5.1875,-0.390625 C6.34375,-0.390625 7.46875,0.1875 8.296875,1.703125 Z M13.109375,17.15625 L14.65625,17.015625 C14.6875,14.5625 14.6875,12.078125 14.6875,9.59375 L14.6875,8.359375 C14.6875,5.859375 14.6875,3.359375 14.65625,0.90625 L13.109375,0.765625 L13.109375,0 L18.09375,0 C21.75,0 23.109375,2.015625 23.109375,4.734375 C23.109375,7.46875 22.015625,9.125 19.390625,9.5 C21.53125,10.078125 22.390625,11.65625 22.390625,13.78125 C22.390625,16.46875 21.09375,17.921875 18.125,17.921875 L13.109375,17.921875 Z M8.296875,2.5625 C7.515625,1.3125 6.765625,0.890625 5.859375,0.890625 C4.21875,0.890625 3.171875,2.015625 3.171875,6.34375 C3.171875,10.703125 4.375,11.8125 5.953125,11.8125 C6.84375,11.8125 7.5625,11.359375 8.296875,10.265625 Z M16.625,9 L17.609375,9 C20.0625,9 21.171875,7.625 21.171875,4.75 C21.171875,1.96875 20.015625,0.8125 18.125,0.8125 L16.65625,0.8125 C16.625,3.28125 16.625,5.828125 16.625,9 Z M16.65625,17.109375 L17.640625,17.109375 C19.78125,17.109375 20.5,15.953125 20.5,13.6875 C20.5,11.046875 19.375,9.75 17.375,9.75 L16.625,9.75 C16.625,12.28125 16.625,14.734375 16.65625,17.109375 Z" transform="translate(-0.140625, 19.5625) scale(1, -1)"/>
</svg>