<svg height="13.390625" viewBox="0 0 24 13.390625" width="24" xmlns="http://www.w3.org/2000/svg">
<path d="M9,-0.3125 C9.625,-0.3125 10.03125,0.1875 10.03125,0.703125 C10.03125,1.296875 9.625,1.78125 9,1.78125 C8.40625,1.78125 7.96875,1.296875 7.96875,0.703125 C7.96875,0.1875 8.40625,-0.3125 9,-0.3125 Z M22.796875,-0.3125 C23.421875,-0.3125 23.828125,0.1875 23.828125,0.703125 C23.828125,1.296875 23.421875,1.78125 22.796875,1.78125 C22.203125,1.78125 21.765625,1.296875 21.765625,0.703125 C21.765625,0.1875 22.203125,-0.3125 22.796875,-0.3125 Z M6.171875,-0.21875 C6.84375,-0.21875 7.15625,0.1875 7.375,1.0625 L7.0625,1.21875 C6.84375,0.796875 6.71875,0.703125 6.546875,0.703125 C6.21875,0.703125 6.09375,1.109375 6.09375,1.828125 L6.125,9.796875 C6.125,12.09375 5.421875,13.0625 3.8125,13.0625 C2.28125,13.0625 1.171875,11.875 0.953125,9.859375 C1.109375,9.5 1.375,9.3125 1.6875,9.3125 C2.109375,9.3125 2.40625,9.625 2.46875,10.46875 L2.65625,12.21875 C2.921875,12.390625 3.140625,12.4375 3.4375,12.4375 C4.3125,12.4375 4.703125,11.8125 4.703125,9.640625 L4.703125,7.9375 L3.359375,6.765625 C1.734375,5.546875 0.859375,4.296875 0.859375,2.40625 C0.859375,0.625 1.65625,-0.3125 2.828125,-0.3125 C3.75,-0.3125 4.25,0.1875 4.78125,1.203125 C4.921875,0.390625 5.375,-0.21875 6.171875,-0.21875 Z M4.75,1.78125 C4.21875,1.0625 3.8125,0.71875 3.359375,0.71875 C2.734375,0.71875 2.28125,1.375 2.28125,2.515625 C2.28125,4.375 2.71875,5.421875 3.71875,6.359375 L4.734375,7.3125 Z M18.84375,0 L21.265625,0 L21.265625,0.703125 L20.421875,0.8125 L20.375,5.609375 L20.375,10.421875 C20.375,12.34375 19.796875,13.078125 18.71875,13.078125 C17.953125,13.078125 17.234375,12.703125 16.5625,11.515625 C16.375,12.625 15.84375,13.078125 15.03125,13.078125 C14.296875,13.078125 13.609375,12.671875 12.953125,11.375 L12.84375,12.75 L12.53125,12.9375 L10.3125,12.1875 L10.3125,11.59375 L11.46875,11.515625 C11.515625,10.265625 11.546875,8.859375 11.546875,7.15625 L11.546875,5.609375 L11.5,0.796875 L10.703125,0.703125 L10.703125,0 L13.921875,0 L13.921875,0.703125 L13.0625,0.8125 L13.015625,5.609375 L13.015625,10.5625 C13.609375,11.640625 14.140625,11.8125 14.5,11.8125 C15,11.8125 15.3125,11.421875 15.3125,10.3125 L15.3125,5.609375 L15.265625,0.796875 L14.46875,0.703125 L14.46875,0 L17.546875,0 L17.546875,0.703125 L16.6875,0.8125 L16.625,5.609375 L16.625,10.4375 L16.625,10.75 C17.109375,11.546875 17.65625,11.8125 18.140625,11.8125 C18.640625,11.8125 18.9375,11.421875 18.9375,10.3125 L18.9375,5.609375 C18.9375,4.203125 18.90625,2.28125 18.859375,0.796875 L18.09375,0.703125 L18.09375,0 Z" transform="translate(-0.34375, 13.078125) scale(1, -1)"/>
</svg>