<svg height="24" viewBox="0 0 24 24" width="24" xmlns="http://www.w3.org/2000/svg">
<path d="M6.703125,17.15625 L8.640625,16.984375 L3.953125,7.96875 L3.953125,9.640625 C3.953125,12.125 3.953125,14.609375 3.984375,17.046875 L5.609375,17.15625 L5.609375,17.921875 L0.625,17.921875 L0.625,17.15625 L2.015625,17.046875 C2.046875,14.59375 2.046875,12.125 2.046875,9.640625 L2.046875,8.296875 C2.046875,5.828125 2.046875,3.34375 2.015625,0.90625 L0.625,0.765625 L0.625,0 L5.546875,0 L5.546875,0.765625 L3.984375,0.90625 L3.953125,6.75 L5.46875,9.4375 L8.359375,0.90625 L6.765625,0.765625 L6.765625,0 L11.546875,0 L11.546875,0.765625 L10.421875,0.890625 L6.640625,11.515625 L9.703125,17.015625 L11.09375,17.15625 L11.09375,17.921875 L6.703125,17.921875 Z M18.703125,17.15625 L20.640625,16.984375 L15.953125,7.96875 L15.953125,9.640625 C15.953125,12.125 15.953125,14.609375 15.984375,17.046875 L17.609375,17.15625 L17.609375,17.921875 L12.625,17.921875 L12.625,17.15625 L14.015625,17.046875 C14.046875,14.59375 14.046875,12.125 14.046875,9.640625 L14.046875,8.296875 C14.046875,5.828125 14.046875,3.34375 14.015625,0.90625 L12.625,0.765625 L12.625,0 L17.546875,0 L17.546875,0.765625 L15.984375,0.90625 L15.953125,6.75 L17.46875,9.4375 L20.359375,0.90625 L18.765625,0.765625 L18.765625,0 L23.546875,0 L23.546875,0.765625 L22.421875,0.890625 L18.640625,11.515625 L21.703125,17.015625 L23.09375,17.15625 L23.09375,17.921875 L18.703125,17.921875 Z" transform="translate(-0.0859375, 17.921875) scale(1, -1)"/>
</svg>