<svg height="24" viewBox="0 0 24 24" width="24" xmlns="http://www.w3.org/2000/svg">
<path d="M2.328125,0 L6.078125,0 L6.078125,0.71875 L4.4375,0.859375 L4.390625,5.609375 L4.390625,15.546875 L4.4375,19.34375 L4.0625,19.5625 L0.546875,18.953125 L0.546875,18.28125 L2.375,18.21875 L2.375,5.609375 L2.328125,0.890625 L0.796875,0.71875 L0.796875,0 Z M17.0625,11.921875 L18.71875,11.765625 L16.03125,7.53125 L13.25,11.78125 L14.90625,11.921875 L14.90625,12.671875 L9.453125,12.671875 L9.453125,11.921875 L11.09375,11.78125 L14.734375,6.03125 L11.109375,0.90625 L9.265625,0.71875 L9.265625,0 L13.796875,0 L13.796875,0.71875 L12.21875,0.890625 L15.140625,5.375 L18.09375,0.890625 L16.390625,0.71875 L16.390625,0 L22.015625,0 L22.015625,0.71875 L20.328125,0.890625 L16.4375,6.90625 L19.78125,11.734375 L21.578125,11.921875 L21.578125,12.671875 L17.0625,12.671875 Z" transform="translate(0.71875, 19.5625) scale(1, -1)"/>
</svg>