<svg height="24" viewBox="0 0 24 24" width="24" xmlns="http://www.w3.org/2000/svg">
<path d="M18.453125,5.5 L19.109375,5.5 L21.453125,15.765625 L21.3125,8.234375 L21.234375,0.84375 L19.921875,0.71875 L19.921875,0 L23.90625,0 L23.90625,0.71875 L22.890625,0.8125 C22.875,3.390625 22.875,5.71875 22.875,8.296875 L22.875,9.640625 C22.875,12.140625 22.84375,14.640625 22.875,17.109375 L23.90625,17.234375 L23.90625,17.921875 L21.1875,17.921875 L19.15625,8.78125 L17.140625,17.921875 L14.546875,17.921875 L14.546875,17.234375 L15.390625,17.109375 L15.34375,0.859375 L14.453125,0.71875 L14.453125,0 L17.453125,0 L17.453125,0.71875 L16.15625,0.859375 L16.0625,15.9375 Z M0.390625,17.296875 L1.203125,17.203125 C1.25,14.71875 1.25,12.1875 1.25,9.640625 L1.25,8.25 C1.25,5.734375 1.25,3.21875 1.203125,0.75 L0.390625,0.640625 L0.390625,0 L3.84375,0 L3.84375,0.640625 L2.6875,0.75 L2.65625,7.3125 L2.921875,7.3125 C5.234375,7.3125 6.703125,9.078125 6.703125,12.671875 C6.703125,16.265625 5.59375,17.921875 3.1875,17.921875 L0.390625,17.921875 Z M2.65625,7.96875 L2.65625,9.640625 L2.6875,17.25 L3.046875,17.25 C4.5625,17.25 5.25,15.90625 5.25,12.71875 C5.25,9.453125 4.390625,7.96875 2.96875,7.96875 Z M7.578125,17.296875 L8.40625,17.203125 C8.453125,14.71875 8.453125,12.1875 8.453125,9.640625 L8.453125,8.25 C8.453125,5.734375 8.453125,3.21875 8.421875,0.75 L7.578125,0.640625 L7.578125,0 L11.046875,0 L11.046875,0.640625 L9.890625,0.75 L9.859375,7.3125 L10.125,7.3125 C12.4375,7.3125 13.890625,9.078125 13.890625,12.671875 C13.890625,16.265625 12.796875,17.921875 10.390625,17.921875 L7.578125,17.921875 Z M9.859375,7.96875 L9.859375,9.640625 L9.890625,17.25 L10.25,17.25 C11.765625,17.25 12.453125,15.90625 12.453125,12.71875 C12.453125,9.453125 11.59375,7.96875 10.171875,7.96875 Z" transform="translate(-0.1484375, 17.921875) scale(1, -1)"/>
</svg>