<svg height="19.953125" viewBox="0 0 24 19.953125" width="24" xmlns="http://www.w3.org/2000/svg">
<path d="M15.234375,-0.390625 C17.453125,-0.390625 18.703125,1.484375 18.703125,6.34375 C18.703125,11.203125 17.375,13.0625 15.234375,13.0625 C13.109375,13.0625 11.78125,11.203125 11.78125,6.34375 C11.78125,1.515625 13.03125,-0.390625 15.234375,-0.390625 Z M15.234375,0.359375 C13.984375,0.359375 13.421875,1.796875 13.421875,6.34375 C13.421875,10.828125 13.984375,12.3125 15.234375,12.3125 C16.484375,12.3125 17.0625,10.828125 17.0625,6.34375 C17.0625,1.796875 16.484375,0.359375 15.234375,0.359375 Z M8.40625,0 L10.828125,0 L10.828125,0.703125 L9.984375,0.8125 L9.9375,5.609375 L9.9375,10.421875 C9.9375,12.34375 9.359375,13.078125 8.28125,13.078125 C7.515625,13.078125 6.796875,12.703125 6.125,11.515625 C5.921875,12.625 5.40625,13.078125 4.578125,13.078125 C3.890625,13.078125 3.1875,12.671875 2.515625,11.375 L2.40625,12.75 L2.09375,12.9375 L-0.125,12.1875 L-0.125,11.59375 L1.03125,11.515625 C1.078125,10.265625 1.109375,8.859375 1.109375,7.15625 L1.109375,5.609375 L1.0625,0.796875 L0.265625,0.703125 L0.265625,0 L3.484375,0 L3.484375,0.703125 L2.609375,0.8125 L2.5625,5.609375 L2.5625,10.5625 C3.171875,11.640625 3.703125,11.8125 4.0625,11.8125 C4.5625,11.8125 4.875,11.421875 4.875,10.3125 L4.875,5.609375 L4.828125,0.796875 L4.03125,0.703125 L4.03125,0 L7.109375,0 L7.109375,0.703125 L6.234375,0.8125 L6.1875,5.609375 L6.1875,10.4375 L6.1875,10.75 C6.671875,11.546875 7.21875,11.8125 7.703125,11.8125 C8.203125,11.8125 8.5,11.421875 8.5,10.3125 L8.5,5.609375 C8.5,4.203125 8.46875,2.28125 8.421875,0.796875 L7.65625,0.703125 L7.65625,0 Z M20.921875,0 L23.546875,0 L23.546875,0.625 L22.53125,0.75 C22.515625,2.375 22.484375,3.984375 22.484375,5.59375 L22.484375,15.546875 L22.5625,19.3125 L22.171875,19.5625 L19.734375,19.03125 L19.734375,18.4375 L20.96875,18.359375 L20.96875,5.59375 L20.921875,0.75 L20.015625,0.625 L20.015625,0 Z" transform="translate(0.2890625, 19.5625) scale(1, -1)"/>
</svg>