<svg height="13.46875" viewBox="0 0 24 13.46875" width="24" xmlns="http://www.w3.org/2000/svg">
<path d="M6.34375,-0.390625 C9.390625,-0.390625 10.890625,1.0625 10.890625,3.171875 C10.890625,4.875 10.125,5.90625 8.046875,6.859375 L6.53125,7.5625 C4.890625,8.328125 4.296875,9.046875 4.296875,10.21875 C4.296875,11.46875 5.15625,12.34375 6.859375,12.34375 C7.5625,12.34375 8.203125,12.21875 8.90625,11.875 L9.34375,9.3125 L10.34375,9.3125 L10.46875,12.09375 C9.21875,12.765625 8.234375,13.078125 6.9375,13.078125 C4.125,13.078125 2.71875,11.65625 2.71875,9.703125 C2.71875,7.84375 3.75,6.796875 5.421875,6 L6.859375,5.328125 C8.8125,4.4375 9.265625,3.765625 9.265625,2.640625 C9.265625,1.3125 8.25,0.359375 6.34375,0.359375 C5.328125,0.359375 4.625,0.53125 3.90625,0.84375 L3.484375,3.671875 L2.5,3.671875 L2.453125,0.546875 C3.71875,-0.09375 4.890625,-0.390625 6.34375,-0.390625 Z M16.0625,0 L20.0625,0 L20.0625,0.71875 L18.078125,0.859375 L18.046875,5.609375 L18.046875,8.25 C18.703125,10.015625 19.578125,11.09375 20.90625,11.71875 L21.046875,11.28125 C21.484375,10.3125 21.84375,9.953125 22.3125,9.953125 C23.015625,9.953125 23.359375,10.421875 23.421875,11.296875 C23.109375,12.5 22.484375,13.078125 21.546875,13.078125 C20.15625,13.078125 18.71875,11.734375 18.046875,9.59375 L17.90625,12.765625 L17.59375,12.9375 L14.28125,12.171875 L14.28125,11.515625 L16.0625,11.46875 C16.078125,10.171875 16.109375,8.90625 16.109375,7.15625 L16.109375,5.609375 L16.078125,0.859375 L14.546875,0.71875 L14.546875,0 Z" transform="translate(-0.9375, 13.078125) scale(1, -1)"/>
</svg>