<svg height="24" viewBox="0 0 24 24" width="24" xmlns="http://www.w3.org/2000/svg">
<path d="M16.734375,16.734375 C17.453125,16.734375 17.96875,17.28125 17.96875,18.046875 C17.96875,18.796875 17.453125,19.3125 16.734375,19.3125 C16.0625,19.3125 15.484375,18.796875 15.484375,18.046875 C15.484375,17.28125 16.0625,16.734375 16.734375,16.734375 Z M11.375,0 L14.328125,0 L14.328125,0.71875 L13.125,0.859375 L13.109375,5.609375 L13.109375,9.9375 C13.109375,12.171875 12.28125,13.078125 10.875,13.078125 C9.84375,13.078125 8.921875,12.625 8.015625,11.296875 C7.75,12.546875 7.015625,13.078125 6,13.078125 C5.046875,13.078125 4.109375,12.546875 3.234375,11.140625 L3.125,12.765625 L2.828125,12.9375 L0.125,12.171875 L0.125,11.515625 L1.53125,11.46875 C1.5625,10.21875 1.578125,8.828125 1.578125,7.15625 L1.578125,5.609375 L1.5625,0.859375 L0.453125,0.71875 L0.453125,0 L4.53125,0 L4.53125,0.71875 L3.34375,0.859375 L3.28125,5.609375 L3.28125,10.34375 C4.03125,11.46875 4.78125,11.78125 5.40625,11.78125 C6.125,11.78125 6.578125,11.28125 6.578125,9.8125 L6.578125,5.609375 L6.546875,0.859375 L5.421875,0.71875 L5.421875,0 L9.359375,0 L9.359375,0.71875 L8.1875,0.859375 L8.15625,5.609375 L8.15625,9.953125 L8.140625,10.53125 C8.8125,11.421875 9.578125,11.78125 10.265625,11.78125 C10.96875,11.78125 11.453125,11.28125 11.453125,9.796875 L11.453125,5.609375 L11.40625,0.859375 L10.296875,0.71875 L10.296875,0 Z M15.90625,0 L19.078125,0 L19.078125,0.703125 L17.71875,0.84375 L17.65625,5.609375 L17.65625,9.390625 L17.734375,12.75 L17.40625,12.9375 L14.453125,12.265625 L14.453125,11.640625 L15.90625,11.5625 C15.9375,10.3125 15.984375,8.828125 15.984375,7.0625 L15.984375,5.609375 L15.9375,0.84375 L14.71875,0.703125 L14.71875,0 Z M20.359375,0 L23.421875,0 L23.421875,0.703125 L22.125,0.84375 L22.078125,5.609375 L22.078125,15.53125 L22.125,19.296875 L21.75,19.53125 L18.9375,18.953125 L18.9375,18.34375 L20.40625,18.265625 L20.40625,5.609375 L20.359375,0.84375 L19.21875,0.703125 L19.21875,0 Z" transform="translate(0.2265625, 19.53125) scale(1, -1)"/>
</svg>