<svg height="18.703125" viewBox="0 0 24 18.703125" width="24" xmlns="http://www.w3.org/2000/svg">
<path d="M6.359375,-0.390625 C9.265625,-0.390625 11.140625,1.203125 11.140625,4.15625 C11.140625,6.453125 10.4375,7.65625 8.015625,9.53125 L6.484375,10.6875 C5.296875,11.59375 4.4375,12.453125 4.4375,14.421875 C4.4375,16.375 5.609375,17.5 7.171875,17.5 C7.84375,17.5 8.375,17.375 8.90625,17.0625 L9.390625,13.703125 L10.484375,13.703125 L10.625,17.15625 C9.59375,17.875 8.5625,18.3125 7.0625,18.3125 C4.703125,18.3125 2.65625,16.828125 2.65625,13.921875 C2.65625,11.5625 3.671875,10.21875 5.453125,8.953125 L6.859375,7.921875 C8.6875,6.59375 9.3125,5.515625 9.34375,3.671875 C9.34375,1.6875 8.234375,0.484375 6.34375,0.484375 C5.46875,0.484375 4.78125,0.625 3.953125,1.0625 L3.484375,4.578125 L2.375,4.578125 L2.1875,0.9375 C3.1875,0.265625 4.6875,-0.390625 6.359375,-0.390625 Z M19.21875,11.953125 L21.1875,11.78125 L18.390625,2.046875 L15.53125,11.78125 L17.375,11.953125 L17.375,12.640625 L12.1875,12.640625 L12.1875,11.953125 L13.421875,11.8125 L17.203125,-0.171875 L18.4375,-0.171875 L22.171875,11.78125 L23.59375,11.953125 L23.59375,12.640625 L19.21875,12.640625 Z" transform="translate(-0.890625, 18.3125) scale(1, -1)"/>
</svg>