<svg height="23.28125" viewBox="0 0 24 23.28125" width="24" xmlns="http://www.w3.org/2000/svg">
<path d="M10.15625,-4.265625 L10.96875,-4.265625 L13.9375,19.015625 L13.125,19.015625 Z M4.828125,15.140625 L6.4375,6.90625 L3.3125,6.90625 Z M5.96875,0 L10.515625,0 L10.515625,0.75 L9.5,0.84375 L5.875,17.921875 L4.734375,17.921875 L1.296875,0.859375 L0.3125,0.75 L0.3125,0 L3.640625,0 L3.640625,0.75 L2.203125,0.859375 L3.171875,6.09375 L6.578125,6.09375 L7.578125,0.859375 L5.96875,0.75 Z M21.59375,0 L24.03125,0 L24.03125,0.703125 L23.1875,0.8125 L23.140625,5.609375 L23.140625,10.421875 C23.140625,12.34375 22.5625,13.078125 21.484375,13.078125 C20.71875,13.078125 19.984375,12.703125 19.3125,11.515625 C19.125,12.625 18.59375,13.078125 17.78125,13.078125 C17.09375,13.078125 16.390625,12.671875 15.71875,11.375 L15.59375,12.75 L15.28125,12.9375 L13.078125,12.1875 L13.078125,11.59375 L14.234375,11.515625 C14.28125,10.265625 14.296875,8.859375 14.296875,7.15625 L14.296875,5.609375 L14.25,0.796875 L13.46875,0.703125 L13.46875,0 L16.6875,0 L16.6875,0.703125 L15.8125,0.8125 L15.765625,5.609375 L15.765625,10.5625 C16.375,11.640625 16.890625,11.8125 17.25,11.8125 C17.765625,11.8125 18.078125,11.421875 18.078125,10.3125 L18.078125,5.609375 L18.03125,0.796875 L17.234375,0.703125 L17.234375,0 L20.296875,0 L20.296875,0.703125 L19.4375,0.8125 L19.390625,5.609375 L19.390625,10.4375 L19.390625,10.75 C19.875,11.546875 20.421875,11.8125 20.90625,11.8125 C21.40625,11.8125 21.703125,11.421875 21.703125,10.3125 L21.703125,5.609375 C21.703125,4.203125 21.671875,2.28125 21.625,0.796875 L20.859375,0.703125 L20.859375,0 Z" transform="translate(-0.171875, 19.015625) scale(1, -1)"/>
</svg>