<svg height="19.953125" viewBox="0 0 24 19.953125" width="24" xmlns="http://www.w3.org/2000/svg">
<path d="M9.90625,17.15625 L11.734375,16.984375 L10.015625,2.546875 L8.046875,13.984375 L6.953125,13.984375 L4.6875,2.359375 L3.09375,17.015625 L4.6875,17.15625 L4.6875,17.921875 L0.171875,17.921875 L0.171875,17.15625 L1.203125,17.046875 L3.484375,-0.1875 L4.875,-0.1875 L7.03125,10.4375 L9.03125,-0.1875 L10.421875,-0.1875 L12.640625,16.984375 L13.84375,17.15625 L13.84375,17.921875 L9.90625,17.921875 Z M19.65625,-0.390625 C21.578125,-0.390625 23.140625,1.25 23.140625,6.4375 C23.140625,11.5625 21.796875,13.078125 19.828125,13.078125 C18.890625,13.078125 17.96875,12.546875 17.25,11.203125 L17.25,15.546875 L17.328125,19.3125 L16.921875,19.5625 L13.96875,18.984375 L13.96875,18.390625 L15.546875,18.3125 L15.546875,5.5 L15.5,0.8125 L14.28125,0.671875 L14.28125,0 L17.046875,-0.171875 L17.234375,1.4375 C17.875,0.140625 18.71875,-0.390625 19.65625,-0.390625 Z M17.25,10.375 C17.953125,11.515625 18.546875,11.875 19.265625,11.875 C20.546875,11.875 21.359375,10.921875 21.359375,6.4375 C21.359375,1.875 20.375,0.8125 19.171875,0.8125 C18.453125,0.8125 17.875,1.25 17.25,2.234375 Z" transform="translate(0.34375, 19.5625) scale(1, -1)"/>
</svg>