<svg height="18.109375" viewBox="0 0 24 18.109375" width="24" xmlns="http://www.w3.org/2000/svg">
<path d="M13.109375,17.15625 L14.640625,17.046875 C14.65625,14.59375 14.65625,12.125 14.65625,9.640625 L14.65625,8.296875 C14.65625,5.828125 14.65625,3.34375 14.640625,0.90625 L13.078125,0.765625 L13.078125,0 L18.59375,0 L18.59375,0.765625 L16.625,0.90625 C16.609375,3.359375 16.609375,5.828125 16.609375,8.328125 L16.609375,8.6875 L17.359375,8.6875 C19.0625,8.6875 19.5625,7.84375 19.84375,5.828125 L20.5,1.484375 C20.609375,0.28125 21.265625,-0.1875 22.6875,-0.1875 C23.25,-0.1875 23.765625,-0.09375 24.140625,0 L24.140625,0.765625 L22.53125,0.890625 L21.765625,5.6875 C21.484375,7.6875 20.921875,8.734375 19.078125,9.078125 C21.484375,9.546875 22.578125,11.28125 22.578125,13.375 C22.578125,16.34375 21.03125,17.921875 17.734375,17.921875 L13.109375,17.921875 Z M1.078125,17.15625 L2.6875,17.046875 C2.71875,14.59375 2.71875,12.09375 2.71875,9.640625 L2.71875,8.296875 C2.71875,5.828125 2.71875,3.34375 2.6875,0.90625 L1.03125,0.765625 L1.03125,0 L6.859375,0 L6.859375,0.765625 L4.6875,0.90625 L4.65625,7.25 L5.71875,7.25 C9.046875,7.25 10.96875,8.921875 10.96875,12.59375 C10.96875,16.125 9.484375,17.921875 5.96875,17.921875 L1.078125,17.921875 Z M4.65625,8.0625 L4.65625,9.640625 C4.65625,12.171875 4.65625,14.65625 4.6875,17.109375 L5.859375,17.109375 C8.109375,17.109375 8.96875,15.703125 8.96875,12.71875 C8.96875,9.5 7.96875,8.0625 5.59375,8.0625 Z M16.609375,9.453125 L16.609375,9.640625 C16.609375,12.171875 16.609375,14.640625 16.625,17.109375 L17.375,17.109375 C19.75,17.109375 20.6875,15.765625 20.6875,13.25 C20.6875,10.984375 19.515625,9.453125 17.65625,9.453125 Z" transform="translate(-0.5859375, 17.921875) scale(1, -1)"/>
</svg>