<svg height="24" viewBox="0 0 24 24" width="24" xmlns="http://www.w3.org/2000/svg">
<path d="M1.4375,0 L4.78125,0 L4.78125,0.703125 L3.390625,0.859375 C3.359375,2.453125 3.34375,4.03125 3.34375,5.609375 L3.34375,15.53125 L3.40625,19.3125 L3.03125,19.5625 L-0.046875,18.953125 L-0.046875,18.3125 L1.515625,18.21875 L1.515625,5.609375 C1.515625,4.03125 1.484375,2.453125 1.46875,0.859375 L0.234375,0.703125 L0.234375,0 Z M20.234375,0 L23.765625,0 L23.765625,0.71875 L22.171875,0.890625 L22.15625,5.609375 L22.15625,9.34375 C22.15625,12 21.09375,13.078125 19.3125,13.078125 C18,13.078125 16.84375,12.453125 15.640625,10.9375 C15.3125,12.4375 14.375,13.078125 13.078125,13.078125 C11.828125,13.078125 10.578125,12.359375 9.546875,10.828125 L9.40625,12.765625 L9.125,12.9375 L5.921875,12.171875 L5.921875,11.515625 L7.625,11.46875 C7.6875,10.203125 7.703125,8.828125 7.703125,7.15625 L7.703125,5.609375 L7.65625,0.890625 L6.140625,0.71875 L6.140625,0 L11.1875,0 L11.1875,0.71875 L9.625,0.890625 C9.578125,2.296875 9.578125,4.265625 9.578125,5.609375 L9.578125,10.109375 C10.46875,11.203125 11.46875,11.765625 12.359375,11.765625 C13.375,11.765625 14.046875,11.109375 14.046875,9.3125 L14.046875,5.609375 L13.984375,0.890625 L12.453125,0.71875 L12.453125,0 L17.421875,0 L17.421875,0.71875 L15.859375,0.890625 L15.8125,5.609375 L15.8125,9.453125 L15.796875,10.203125 C16.6875,11.25 17.71875,11.765625 18.640625,11.765625 C19.65625,11.765625 20.296875,11.109375 20.296875,9.21875 L20.296875,5.609375 L20.25,0.890625 L18.71875,0.71875 L18.71875,0 Z" transform="translate(0.140625, 19.5625) scale(1, -1)"/>
</svg>