<svg height="24.359375" viewBox="0 0 24 24.359375" width="24" xmlns="http://www.w3.org/2000/svg">
<path d="M6.125,-0.390625 C8.296875,-0.390625 10.078125,1.375 10.078125,6.390625 C10.078125,11.40625 8.515625,13.078125 6.28125,13.078125 C5.234375,13.078125 4.15625,12.484375 3.359375,11.015625 L3.265625,12.765625 L2.921875,12.9375 L0.046875,12.1875 L0.046875,11.5625 L1.484375,11.515625 C1.53125,10.25 1.53125,8.859375 1.53125,7.109375 L1.53125,-0.671875 L1.515625,-5.5625 L0.078125,-5.71875 L0.078125,-6.4375 L5.40625,-6.4375 L5.40625,-5.71875 L3.390625,-5.546875 L3.359375,-0.640625 L3.359375,1.53125 C4.109375,0.171875 5.0625,-0.390625 6.125,-0.390625 Z M3.359375,10.109375 C4.109375,11.375 4.828125,11.828125 5.734375,11.828125 C7.21875,11.828125 8.203125,10.78125 8.203125,6.390625 C8.203125,1.890625 7.078125,0.859375 5.609375,0.859375 C4.734375,0.859375 4.078125,1.3125 3.359375,2.421875 Z M18.390625,17.15625 L19.890625,17.015625 C19.9375,14.65625 19.9375,12.265625 19.9375,9.84375 L14.859375,9.84375 C14.859375,12.265625 14.859375,14.640625 14.90625,17.015625 L16.421875,17.15625 L16.421875,17.921875 L11.421875,17.921875 L11.421875,17.15625 L12.9375,17.015625 C12.953125,14.59375 12.953125,12.125 12.953125,9.640625 L12.953125,8.296875 C12.953125,5.828125 12.953125,3.359375 12.9375,0.9375 L11.421875,0.765625 L11.421875,0 L16.421875,0 L16.421875,0.765625 L14.90625,0.9375 C14.859375,3.34375 14.859375,5.875 14.859375,9.03125 L19.9375,9.03125 C19.9375,5.875 19.9375,3.34375 19.890625,0.9375 L18.390625,0.765625 L18.390625,0 L23.40625,0 L23.40625,0.765625 L21.890625,0.9375 C21.859375,3.359375 21.859375,5.828125 21.859375,8.296875 L21.859375,9.640625 C21.859375,12.125 21.859375,14.59375 21.890625,17.015625 L23.40625,17.15625 L23.40625,17.921875 L18.390625,17.921875 Z" transform="translate(0.2734375, 17.921875) scale(1, -1)"/>
</svg>