<svg height="19.953125" viewBox="0 0 24 19.953125" width="24" xmlns="http://www.w3.org/2000/svg">
<path d="M19.875,-0.390625 C21.703125,-0.390625 23.15625,1.21875 23.15625,6.4375 C23.15625,11.59375 21.890625,13.078125 20.046875,13.078125 C19.15625,13.078125 18.265625,12.546875 17.5625,11.234375 L17.5625,15.546875 L17.640625,19.3125 L17.25,19.5625 L14.453125,19.015625 L14.453125,18.390625 L15.90625,18.34375 L15.90625,5.5 L15.859375,0.796875 L14.734375,0.671875 L14.734375,0 L17.359375,-0.171875 L17.5625,1.34375 C18.1875,0.125 18.984375,-0.390625 19.875,-0.390625 Z M11.375,0 L14.328125,0 L14.328125,0.71875 L13.125,0.859375 L13.109375,5.609375 L13.109375,9.9375 C13.109375,12.171875 12.28125,13.078125 10.875,13.078125 C9.84375,13.078125 8.921875,12.625 8.015625,11.296875 C7.75,12.546875 7.015625,13.078125 6,13.078125 C5.046875,13.078125 4.109375,12.546875 3.234375,11.140625 L3.125,12.765625 L2.828125,12.9375 L0.125,12.171875 L0.125,11.515625 L1.53125,11.46875 C1.5625,10.21875 1.578125,8.828125 1.578125,7.15625 L1.578125,5.609375 L1.5625,0.859375 L0.453125,0.71875 L0.453125,0 L4.53125,0 L4.53125,0.71875 L3.34375,0.859375 L3.28125,5.609375 L3.28125,10.34375 C4.03125,11.46875 4.78125,11.78125 5.40625,11.78125 C6.125,11.78125 6.578125,11.28125 6.578125,9.8125 L6.578125,5.609375 L6.546875,0.859375 L5.421875,0.71875 L5.421875,0 L9.359375,0 L9.359375,0.71875 L8.1875,0.859375 L8.15625,5.609375 L8.15625,9.953125 L8.140625,10.53125 C8.8125,11.421875 9.578125,11.78125 10.265625,11.78125 C10.96875,11.78125 11.453125,11.28125 11.453125,9.796875 L11.453125,5.609375 L11.40625,0.859375 L10.296875,0.71875 L10.296875,0 Z M17.59375,10.421875 C18.234375,11.546875 18.8125,11.875 19.515625,11.875 C20.65625,11.875 21.4375,10.984375 21.4375,6.4375 C21.4375,1.84375 20.515625,0.796875 19.421875,0.796875 C18.71875,0.796875 18.1875,1.171875 17.59375,2.15625 Z" transform="translate(0.359375, 19.5625) scale(1, -1)"/>
</svg>