<svg height="19.9375" viewBox="0 0 24 19.9375" width="24" xmlns="http://www.w3.org/2000/svg">
<path d="M5.8125,-0.046875 C8.921875,-0.046875 10.921875,1.75 10.921875,4.34375 C10.921875,6.59375 9.9375,8.109375 7.03125,9.765625 C9.5,11.109375 10.3125,12.59375 10.3125,14.28125 C10.3125,16.578125 8.8125,18.3125 6.09375,18.3125 C3.625,18.3125 1.65625,16.703125 1.65625,14.046875 C1.65625,11.90625 2.734375,10.3125 4.875,9 C2.328125,7.703125 1.125,6.1875 1.125,4.125 C1.125,1.625 2.765625,-0.046875 5.8125,-0.046875 Z M6.40625,10.109375 C3.953125,11.515625 3.359375,12.84375 3.359375,14.46875 C3.359375,16.34375 4.578125,17.546875 6.078125,17.546875 C7.796875,17.546875 8.734375,16.15625 8.734375,14.5 C8.734375,12.84375 8.046875,11.640625 6.40625,10.109375 Z M5.453125,8.640625 C8.46875,6.90625 9.09375,5.640625 9.125,3.9375 C9.125,2.15625 8.015625,0.71875 5.953125,0.71875 C4.015625,0.71875 2.8125,2.1875 2.8125,4.265625 C2.8125,6.03125 3.5,7.203125 5.453125,8.640625 Z M20.28125,17.234375 L20.28125,10.125 L14.203125,10.125 L14.203125,17.234375 Z M12.75,18.71875 L12.75,-0.984375 L13.015625,-0.984375 C13.703125,-0.984375 14.203125,-0.578125 14.203125,-0.390625 L14.203125,1.171875 L20.28125,1.171875 L20.28125,-0.765625 L20.5,-0.765625 C21.046875,-0.765625 21.765625,-0.359375 21.796875,-0.1875 L21.796875,16.890625 C22.296875,17.015625 22.734375,17.203125 22.890625,17.40625 L20.921875,18.953125 L20.046875,17.921875 L14.359375,17.921875 Z M14.203125,1.875 L14.203125,9.4375 L20.28125,9.4375 L20.28125,1.875 Z" transform="translate(-0.0078125, 18.953125) scale(1, -1)"/>
</svg>