<svg height="19.9375" viewBox="0 0 24 19.9375" width="24" xmlns="http://www.w3.org/2000/svg">
<path d="M1.609375,16.828125 L1.609375,16.015625 L5.1875,16.6875 L5.1875,6.140625 L5.140625,1.296875 L1.4375,1.125 L1.4375,0.390625 L10.890625,0.390625 L10.890625,1.125 L7.171875,1.296875 L7.125,6.140625 L7.125,13.96875 L7.21875,17.921875 L6.859375,18.265625 Z M20.28125,17.234375 L20.28125,10.125 L14.203125,10.125 L14.203125,17.234375 Z M12.75,18.71875 L12.75,-0.984375 L13.015625,-0.984375 C13.703125,-0.984375 14.203125,-0.578125 14.203125,-0.390625 L14.203125,1.171875 L20.28125,1.171875 L20.28125,-0.765625 L20.5,-0.765625 C21.046875,-0.765625 21.765625,-0.359375 21.796875,-0.1875 L21.796875,16.890625 C22.296875,17.015625 22.734375,17.203125 22.890625,17.40625 L20.921875,18.953125 L20.046875,17.921875 L14.359375,17.921875 Z M14.203125,1.875 L14.203125,9.4375 L20.28125,9.4375 L20.28125,1.875 Z" transform="translate(-0.1640625, 18.953125) scale(1, -1)"/>
</svg>