<svg height="19.921875" viewBox="0 0 24 19.921875" width="24" xmlns="http://www.w3.org/2000/svg">
<path d="M7.96875,9.59375 C8.328125,13.53125 9.671875,16.34375 12.03125,17.90625 L11.765625,18.4375 C8.375,16.78125 6.265625,12.40625 6.265625,7.03125 C6.265625,1.9375 7.390625,-0.140625 9.1875,-0.140625 C10.796875,-0.140625 12.125,1.609375 12.125,5.515625 C12.125,9.4375 11.15625,10.921875 9.8125,10.921875 C9.09375,10.921875 8.453125,10.578125 7.96875,9.59375 Z M7.875,7.375 L7.921875,8.828125 C8.25,9.703125 8.6875,9.984375 9.21875,9.984375 C10.015625,9.984375 10.484375,9.03125 10.484375,5.421875 C10.484375,1.703125 9.859375,0.59375 9.234375,0.59375 C8.359375,0.59375 7.875,2.25 7.875,7.375 Z M0.953125,17.28125 L0.953125,16.515625 L2.875,16.890625 L2.875,6.09375 L2.828125,1.125 L0.9375,0.953125 L0.9375,0.3125 L6.140625,0.3125 L6.140625,0.953125 L4.390625,1.125 L4.34375,6.09375 L4.34375,14.015625 L4.4375,18.046875 L4.109375,18.359375 Z M20.453125,17.234375 L20.453125,10.125 L15.40625,10.125 L15.40625,17.234375 Z M13.984375,18.703125 L13.984375,-0.984375 L14.25,-0.984375 C14.90625,-0.984375 15.40625,-0.59375 15.40625,-0.40625 L15.40625,1.171875 L20.453125,1.171875 L20.453125,-0.765625 L20.65625,-0.765625 C21.171875,-0.765625 21.859375,-0.390625 21.90625,-0.1875 L21.90625,16.921875 C22.390625,17.015625 22.828125,17.203125 22.984375,17.421875 L21.078125,18.9375 L20.203125,17.921875 L15.546875,17.921875 Z M15.40625,1.875 L15.40625,9.4375 L20.453125,9.4375 L20.453125,1.875 Z" transform="translate(0.0390625, 18.9375) scale(1, -1)"/>
</svg>