<svg height="19.921875" viewBox="0 0 24 19.921875" width="24" xmlns="http://www.w3.org/2000/svg">
<path d="M9.1875,17.65625 C9.84375,17.65625 10.3125,16.625 10.3125,9.125 C10.3125,1.625 9.859375,0.59375 9.1875,0.59375 C8.546875,0.59375 8.0625,1.609375 8.0625,9.125 C8.0625,16.625 8.546875,17.65625 9.1875,17.65625 Z M6.4375,9.125 C6.4375,1.6875 7.625,-0.140625 9.1875,-0.140625 C10.734375,-0.140625 11.96875,1.6875 11.96875,9.125 C11.96875,16.578125 10.734375,18.4375 9.1875,18.4375 C7.625,18.4375 6.4375,16.578125 6.4375,9.125 Z M0.953125,17.28125 L0.953125,16.515625 L2.875,16.890625 L2.875,6.09375 L2.828125,1.125 L0.9375,0.953125 L0.9375,0.3125 L6.140625,0.3125 L6.140625,0.953125 L4.390625,1.125 L4.34375,6.09375 L4.34375,14.015625 L4.4375,18.046875 L4.109375,18.359375 Z M20.453125,17.234375 L20.453125,10.125 L15.40625,10.125 L15.40625,17.234375 Z M13.984375,18.703125 L13.984375,-0.984375 L14.25,-0.984375 C14.90625,-0.984375 15.40625,-0.59375 15.40625,-0.40625 L15.40625,1.171875 L20.453125,1.171875 L20.453125,-0.765625 L20.65625,-0.765625 C21.171875,-0.765625 21.859375,-0.390625 21.90625,-0.1875 L21.90625,16.921875 C22.390625,17.015625 22.828125,17.203125 22.984375,17.421875 L21.078125,18.9375 L20.203125,17.921875 L15.546875,17.921875 Z M15.40625,1.875 L15.40625,9.4375 L20.453125,9.4375 L20.453125,1.875 Z" transform="translate(0.0390625, 18.9375) scale(1, -1)"/>
</svg>