<svg height="19.921875" viewBox="0 0 24 19.921875" width="24" xmlns="http://www.w3.org/2000/svg">
<path d="M7.515625,16.25 L11.859375,16.25 L11.859375,17.921875 L6.84375,17.921875 L6.546875,9.40625 L7.03125,9.234375 C7.53125,9.890625 8.109375,10.171875 8.6875,10.171875 C9.71875,10.171875 10.515625,8.90625 10.515625,5.375 C10.515625,1.875 9.84375,0.484375 8.546875,0.484375 C8.296875,0.484375 8.09375,0.5 7.875,0.578125 L7.6875,2.8125 C7.625,3.703125 7.375,4.03125 6.984375,4.03125 C6.640625,4.03125 6.28125,3.8125 6.125,3.390625 C6.234375,1.03125 7.25,-0.140625 8.8125,-0.140625 C11.015625,-0.140625 12.171875,1.78125 12.171875,5.59375 C12.171875,9.234375 10.84375,10.9375 9,10.9375 C8.359375,10.9375 7.78125,10.703125 7.296875,10.21875 Z M0.953125,17.28125 L0.953125,16.515625 L2.875,16.890625 L2.875,6.09375 L2.828125,1.125 L0.9375,0.953125 L0.9375,0.3125 L6.140625,0.3125 L6.140625,0.953125 L4.390625,1.125 L4.34375,6.09375 L4.34375,14.015625 L4.4375,18.046875 L4.109375,18.359375 Z M20.453125,17.234375 L20.453125,10.125 L15.40625,10.125 L15.40625,17.234375 Z M13.984375,18.703125 L13.984375,-0.984375 L14.25,-0.984375 C14.90625,-0.984375 15.40625,-0.59375 15.40625,-0.40625 L15.40625,1.171875 L20.453125,1.171875 L20.453125,-0.765625 L20.65625,-0.765625 C21.171875,-0.765625 21.859375,-0.390625 21.90625,-0.1875 L21.90625,16.921875 C22.390625,17.015625 22.828125,17.203125 22.984375,17.421875 L21.078125,18.9375 L20.203125,17.921875 L15.546875,17.921875 Z M15.40625,1.875 L15.40625,9.4375 L20.453125,9.4375 L20.453125,1.875 Z" transform="translate(0.0390625, 18.9375) scale(1, -1)"/>
</svg>