<svg height="19.921875" viewBox="0 0 24 19.921875" width="24" xmlns="http://www.w3.org/2000/svg">
<path d="M7.890625,9.9375 L7.609375,9.9375 L7.609375,9.1875 L7.96875,9.1875 C9.765625,9.1875 10.5625,7.875 10.5625,4.9375 C10.5625,2.140625 9.796875,0.5 8.5625,0.5 C8.296875,0.5 8.09375,0.53125 7.875,0.59375 L7.703125,2.8125 C7.65625,3.703125 7.375,4.03125 6.953125,4.03125 C6.640625,4.03125 6.3125,3.84375 6.140625,3.390625 C6.28125,1.0625 7.21875,-0.140625 8.859375,-0.140625 C10.875,-0.140625 12.234375,1.734375 12.234375,4.890625 C12.234375,7.53125 11.203125,9.359375 8.96875,9.59375 C11.109375,10.15625 11.921875,12.09375 11.921875,14.109375 C11.921875,16.578125 10.96875,18.4375 9.125,18.4375 C7.703125,18.4375 6.546875,17.296875 6.40625,14.921875 C6.578125,14.640625 6.890625,14.46875 7.125,14.46875 C7.5625,14.46875 7.84375,14.828125 7.921875,15.5 L8.203125,17.65625 C8.375,17.734375 8.5625,17.765625 8.78125,17.765625 C9.703125,17.765625 10.34375,16.4375 10.34375,14.046875 C10.34375,11.40625 9.359375,9.9375 7.890625,9.9375 Z M0.953125,17.28125 L0.953125,16.515625 L2.875,16.890625 L2.875,6.09375 L2.828125,1.125 L0.9375,0.953125 L0.9375,0.3125 L6.140625,0.3125 L6.140625,0.953125 L4.390625,1.125 L4.34375,6.09375 L4.34375,14.015625 L4.4375,18.046875 L4.109375,18.359375 Z M20.453125,17.234375 L20.453125,10.125 L15.40625,10.125 L15.40625,17.234375 Z M13.984375,18.703125 L13.984375,-0.984375 L14.25,-0.984375 C14.90625,-0.984375 15.40625,-0.59375 15.40625,-0.40625 L15.40625,1.171875 L20.453125,1.171875 L20.453125,-0.765625 L20.65625,-0.765625 C21.171875,-0.765625 21.859375,-0.390625 21.90625,-0.1875 L21.90625,16.921875 C22.390625,17.015625 22.828125,17.203125 22.984375,17.421875 L21.078125,18.9375 L20.203125,17.921875 L15.546875,17.921875 Z M15.40625,1.875 L15.40625,9.4375 L20.453125,9.4375 L20.453125,1.875 Z" transform="translate(0.0390625, 18.9375) scale(1, -1)"/>
</svg>