<svg height="19.9375" viewBox="0 0 24 19.9375" width="24" xmlns="http://www.w3.org/2000/svg">
<path d="M1.875,6.625 L7.3125,16.03125 L7.3125,6.625 Z M11.15625,5.203125 L11.15625,6.625 L9,6.625 L9,18.046875 L7.609375,18.046875 L0.859375,6.484375 L0.859375,5.203125 L7.3125,5.203125 L7.3125,0.390625 L9,0.390625 L9,5.203125 Z M20.28125,17.234375 L20.28125,10.125 L14.203125,10.125 L14.203125,17.234375 Z M12.75,18.71875 L12.75,-0.984375 L13.015625,-0.984375 C13.703125,-0.984375 14.203125,-0.578125 14.203125,-0.390625 L14.203125,1.171875 L20.28125,1.171875 L20.28125,-0.765625 L20.5,-0.765625 C21.046875,-0.765625 21.765625,-0.359375 21.796875,-0.1875 L21.796875,16.890625 C22.296875,17.015625 22.734375,17.203125 22.890625,17.40625 L20.921875,18.953125 L20.046875,17.921875 L14.359375,17.921875 Z M14.203125,1.875 L14.203125,9.4375 L20.28125,9.4375 L20.28125,1.875 Z" transform="translate(0.125, 18.953125) scale(1, -1)"/>
</svg>