<svg height="19.9375" viewBox="0 0 24 19.9375" width="24" xmlns="http://www.w3.org/2000/svg">
<path d="M3.390625,9.03125 C3.90625,13.34375 6.34375,16.78125 10.4375,17.609375 L10.3125,18.34375 C4.875,17.6875 1.3125,12.625 1.3125,7.0625 C1.3125,2.453125 3.140625,-0.046875 6.234375,-0.046875 C8.828125,-0.046875 10.84375,2.09375 10.84375,5.65625 C10.84375,9.140625 9.234375,10.984375 6.890625,10.984375 C5.453125,10.984375 4.375,10.390625 3.390625,9.03125 Z M3.28125,7.203125 L3.3125,7.921875 C4.296875,9.5 5.1875,10.03125 6.265625,10.03125 C7.84375,10.03125 8.921875,8.71875 8.921875,5.453125 C8.921875,2.140625 7.6875,0.75 6.28125,0.75 C4.390625,0.75 3.28125,2.828125 3.28125,7.203125 Z M20.28125,17.234375 L20.28125,10.125 L14.203125,10.125 L14.203125,17.234375 Z M12.75,18.71875 L12.75,-0.984375 L13.015625,-0.984375 C13.703125,-0.984375 14.203125,-0.578125 14.203125,-0.390625 L14.203125,1.171875 L20.28125,1.171875 L20.28125,-0.765625 L20.5,-0.765625 C21.046875,-0.765625 21.765625,-0.359375 21.796875,-0.1875 L21.796875,16.890625 C22.296875,17.015625 22.734375,17.203125 22.890625,17.40625 L20.921875,18.953125 L20.046875,17.921875 L14.359375,17.921875 Z M14.203125,1.875 L14.203125,9.4375 L20.28125,9.4375 L20.28125,1.875 Z" transform="translate(-0.1015625, 18.953125) scale(1, -1)"/>
</svg>