<svg height="19.921875" viewBox="0 0 24 19.921875" width="24" xmlns="http://www.w3.org/2000/svg">
<path d="M0.9375,0.3125 L6.453125,0.3125 L6.453125,1.9375 L1.796875,1.9375 L4.203125,6.9375 C5.375,9.390625 6.21875,12.140625 6.21875,14.1875 C6.21875,16.796875 5.375,18.4375 3.578125,18.4375 C2.046875,18.4375 1.109375,17.140625 0.984375,14.828125 C1.125,14.5 1.46875,14.296875 1.78125,14.296875 C2.140625,14.296875 2.453125,14.640625 2.515625,15.484375 L2.71875,17.65625 C2.90625,17.765625 3.125,17.8125 3.34375,17.8125 C4.15625,17.8125 4.625,16.703125 4.625,14.140625 C4.625,12 4.03125,9.359375 3.140625,7.125 L0.9375,1.609375 Z M6.8125,6.390625 L9.546875,15.390625 L9.546875,6.390625 Z M12.265625,4.984375 L12.265625,6.390625 L10.921875,6.390625 L10.921875,18.078125 L9.765625,18.078125 L6.125,6.125 L6.125,4.984375 L9.546875,4.984375 L9.546875,0.3125 L10.921875,0.3125 L10.921875,4.984375 Z M20.453125,17.234375 L20.453125,10.125 L15.546875,10.125 L15.546875,17.234375 Z M14.140625,18.703125 L14.140625,-0.984375 L14.40625,-0.984375 C15.078125,-0.984375 15.546875,-0.59375 15.546875,-0.40625 L15.546875,1.171875 L20.453125,1.171875 L20.453125,-0.765625 L20.65625,-0.765625 C21.171875,-0.765625 21.859375,-0.390625 21.90625,-0.1875 L21.90625,16.921875 C22.390625,17.015625 22.828125,17.203125 22.984375,17.421875 L21.078125,18.9375 L20.203125,17.921875 L15.703125,17.921875 Z M15.546875,1.875 L15.546875,9.4375 L20.453125,9.4375 L20.453125,1.875 Z" transform="translate(0.0390625, 18.9375) scale(1, -1)"/>
</svg>