<svg height="19.921875" viewBox="0 0 24 19.921875" width="24" xmlns="http://www.w3.org/2000/svg">
<path d="M2.328125,9.890625 L2.140625,9.890625 L2.140625,9.171875 L2.421875,9.171875 C4.15625,9.171875 4.78125,7.828125 4.78125,4.96875 C4.78125,2.140625 4.109375,0.484375 3.03125,0.484375 C2.8125,0.484375 2.609375,0.5 2.421875,0.578125 L2.28125,2.765625 C2.25,3.625 1.96875,3.953125 1.578125,3.953125 C1.296875,3.953125 0.953125,3.796875 0.796875,3.390625 C0.90625,1.03125 1.796875,-0.140625 3.265625,-0.140625 C5.109375,-0.140625 6.34375,1.515625 6.34375,4.984375 C6.34375,7.484375 5.421875,9.359375 3.21875,9.578125 C5.421875,10.0625 6.09375,12.078125 6.09375,14.0625 C6.09375,16.65625 5.15625,18.4375 3.484375,18.4375 C2.1875,18.4375 1.109375,17.296875 0.984375,14.921875 C1.125,14.65625 1.421875,14.5 1.703125,14.5 C2.09375,14.5 2.359375,14.859375 2.40625,15.53125 L2.640625,17.65625 C2.8125,17.734375 3,17.765625 3.1875,17.765625 C4.015625,17.765625 4.578125,16.4375 4.578125,14.046875 C4.578125,11.421875 3.84375,9.890625 2.328125,9.890625 Z M7.109375,17.28125 L7.109375,16.515625 L9,16.890625 L9,6.09375 L8.953125,1.125 L7.078125,0.953125 L7.078125,0.3125 L12.265625,0.3125 L12.265625,0.953125 L10.515625,1.125 L10.484375,6.09375 L10.484375,14.015625 L10.578125,18.046875 L10.25,18.359375 Z M20.453125,17.234375 L20.453125,10.125 L15.546875,10.125 L15.546875,17.234375 Z M14.140625,18.703125 L14.140625,-0.984375 L14.40625,-0.984375 C15.078125,-0.984375 15.546875,-0.59375 15.546875,-0.40625 L15.546875,1.171875 L20.453125,1.171875 L20.453125,-0.765625 L20.65625,-0.765625 C21.171875,-0.765625 21.859375,-0.390625 21.90625,-0.1875 L21.90625,16.921875 C22.390625,17.015625 22.828125,17.203125 22.984375,17.421875 L21.078125,18.9375 L20.203125,17.921875 L15.703125,17.921875 Z M15.546875,1.875 L15.546875,9.4375 L20.453125,9.4375 L20.453125,1.875 Z" transform="translate(0.109375, 18.9375) scale(1, -1)"/>
</svg>