<svg height="25.96875" viewBox="0 0 24 25.96875" width="24" xmlns="http://www.w3.org/2000/svg">
<path d="M4.53125,5.1875 C3.5,5.1875 2.859375,6.265625 2.859375,8.8125 C2.859375,11.328125 3.546875,12.390625 4.53125,12.390625 C5.515625,12.390625 6.1875,11.328125 6.1875,8.8125 C6.1875,6.265625 5.515625,5.1875 4.53125,5.1875 Z M3.40625,0.140625 C3.703125,0.046875 4.03125,-0.03125 4.421875,-0.046875 L5.359375,-0.140625 C6.8125,-0.28125 7.4375,-1.203125 7.4375,-2.765625 C7.4375,-4.53125 6.5,-5.609375 4.734375,-5.609375 C3.046875,-5.609375 2.140625,-4.75 2.140625,-2.828125 C2.140625,-1.46875 2.5,-0.75 3.40625,0.140625 Z M4.53125,4.515625 C6.53125,4.515625 7.734375,6.046875 7.734375,8.8125 C7.734375,10.03125 7.484375,11.015625 7.0625,11.734375 L9.28125,11.59375 L9.28125,12.765625 L8.875,13.03125 L6.71875,12.1875 C6.1875,12.765625 5.453125,13.078125 4.53125,13.078125 C2.5,13.078125 1.3125,11.5625 1.3125,8.8125 C1.3125,6.953125 1.84375,5.65625 2.78125,5.015625 C1.84375,4.296875 1.421875,3.546875 1.421875,2.640625 C1.421875,1.609375 1.921875,0.796875 2.90625,0.34375 C1.625,-0.34375 0.796875,-1.4375 0.796875,-3.09375 C0.796875,-5.109375 2.109375,-6.4375 4.625,-6.4375 C7.390625,-6.4375 8.859375,-4.515625 8.859375,-2.359375 C8.859375,0.03125 7.75,1.21875 5.5,1.46875 L4.53125,1.53125 C3.046875,1.734375 2.609375,2.421875 2.609375,3.34375 C2.609375,3.859375 2.78125,4.265625 3.234375,4.78125 C3.625,4.609375 4.0625,4.515625 4.53125,4.515625 Z M17.140625,-0.265625 C17.953125,-0.265625 18.359375,0.140625 18.640625,0.984375 L18.3125,1.265625 C18.078125,0.84375 17.90625,0.671875 17.6875,0.671875 C17.234375,0.671875 17.0625,1.125 17.0625,2.046875 L17.0625,9.453125 C17.0625,12 16.15625,13.078125 14.15625,13.078125 C12.09375,13.078125 10.734375,11.921875 10.390625,9.84375 C10.53125,9.40625 10.828125,9.171875 11.25,9.171875 C11.71875,9.171875 12.078125,9.53125 12.171875,10.375 L12.40625,12.03125 C12.84375,12.28125 13.203125,12.390625 13.6875,12.390625 C14.875,12.390625 15.40625,11.71875 15.40625,9.3125 L15.40625,7.734375 L13.6875,6.859375 C11.25,5.828125 10.171875,4.5625 10.171875,2.59375 C10.171875,0.703125 11.234375,-0.34375 12.703125,-0.34375 C13.875,-0.34375 14.5625,0.28125 15.453125,1.46875 C15.625,0.453125 16.15625,-0.265625 17.140625,-0.265625 Z M15.40625,2.0625 C14.640625,1.171875 14.0625,0.796875 13.34375,0.796875 C12.53125,0.796875 11.8125,1.46875 11.8125,2.828125 C11.8125,4.53125 12.546875,5.5625 14.015625,6.34375 L15.40625,7.125 Z M20.359375,0 L23.421875,0 L23.421875,0.703125 L22.125,0.84375 L22.078125,5.609375 L22.078125,15.53125 L22.125,19.296875 L21.75,19.53125 L18.9375,18.953125 L18.9375,18.34375 L20.40625,18.265625 L20.40625,5.609375 L20.359375,0.84375 L19.21875,0.703125 L19.21875,0 Z" transform="translate(-0.109375, 19.53125) scale(1, -1)"/>
</svg>