<svg height="19.921875" viewBox="0 0 24 19.921875" width="24" xmlns="http://www.w3.org/2000/svg">
<path d="M0.9375,0.3125 L6.453125,0.3125 L6.453125,1.9375 L1.796875,1.9375 L4.203125,6.9375 C5.375,9.390625 6.21875,12.140625 6.21875,14.1875 C6.21875,16.796875 5.375,18.4375 3.578125,18.4375 C2.046875,18.4375 1.109375,17.140625 0.984375,14.828125 C1.125,14.5 1.46875,14.296875 1.78125,14.296875 C2.140625,14.296875 2.453125,14.640625 2.515625,15.484375 L2.71875,17.65625 C2.90625,17.765625 3.125,17.8125 3.34375,17.8125 C4.15625,17.8125 4.625,16.703125 4.625,14.140625 C4.625,12 4.03125,9.359375 3.140625,7.125 L0.9375,1.609375 Z M9.578125,-0.140625 C11.203125,-0.140625 12.4375,1.265625 12.4375,3.8125 C12.4375,6.078125 11.71875,7.703125 10.203125,9.9375 C11.5625,11.609375 12.171875,13.125 12.171875,14.859375 C12.171875,17.015625 11.375,18.4375 9.765625,18.4375 C8.203125,18.4375 7.15625,16.96875 7.15625,14.609375 C7.15625,12.640625 7.703125,10.9375 9,9.03125 C7.375,7.078125 6.796875,5.546875 6.796875,3.59375 C6.796875,1.03125 7.9375,-0.140625 9.578125,-0.140625 Z M9.9375,10.375 C8.859375,12.046875 8.5,13.6875 8.5,15.234375 C8.5,16.828125 8.96875,17.6875 9.71875,17.6875 C10.4375,17.6875 10.875,16.84375 10.875,14.828125 C10.875,13.171875 10.578125,11.921875 9.9375,10.375 Z M9.265625,8.65625 C10.625,6.640625 11.046875,5.109375 11.046875,3.4375 C11.046875,1.53125 10.53125,0.578125 9.59375,0.578125 C8.765625,0.578125 8.109375,1.5625 8.109375,3.640625 C8.109375,5.5625 8.328125,6.8125 9.265625,8.65625 Z M20.453125,17.234375 L20.453125,10.125 L15.546875,10.125 L15.546875,17.234375 Z M14.140625,18.703125 L14.140625,-0.984375 L14.40625,-0.984375 C15.078125,-0.984375 15.546875,-0.59375 15.546875,-0.40625 L15.546875,1.171875 L20.453125,1.171875 L20.453125,-0.765625 L20.65625,-0.765625 C21.171875,-0.765625 21.859375,-0.390625 21.90625,-0.1875 L21.90625,16.921875 C22.390625,17.015625 22.828125,17.203125 22.984375,17.421875 L21.078125,18.9375 L20.203125,17.921875 L15.703125,17.921875 Z M15.546875,1.875 L15.546875,9.4375 L20.453125,9.4375 L20.453125,1.875 Z" transform="translate(0.0390625, 18.9375) scale(1, -1)"/>
</svg>