<svg height="24" viewBox="0 0 24 24" width="24" xmlns="http://www.w3.org/2000/svg">
<path d="M4.21875,14.28125 L3.8125,14.28125 C3.796875,12.75 2.875,11.25 1.96875,10.6875 C1.484375,10.390625 1.171875,9.859375 1.421875,9.34375 C1.703125,8.78125 2.5625,8.859375 3.140625,9.3125 C3.765625,9.8125 4.375,10.84375 4.4375,12.34375 L8.8125,12.34375 C8.25,8.46875 6.4375,6 1.984375,4.25 L2.109375,3.890625 C7.421875,5.296875 9.90625,7.78125 10.703125,12.34375 L13.875,12.34375 L13.875,6.4375 C13.875,5.28125 14.203125,4.9375 15.9375,4.9375 L18.171875,4.9375 C21.5,4.9375 22.203125,5.1875 22.203125,5.875 C22.203125,6.1875 22.0625,6.359375 21.53125,6.546875 L21.453125,8.859375 L21.171875,8.859375 C20.953125,7.84375 20.71875,6.890625 20.546875,6.59375 C20.453125,6.4375 20.296875,6.390625 20.09375,6.359375 C19.796875,6.359375 19.109375,6.34375 18.21875,6.34375 L16.25,6.34375 C15.5,6.34375 15.4375,6.4375 15.4375,6.765625 L15.4375,12.34375 L20.15625,12.34375 C19.875,11.421875 19.4375,10.296875 19.109375,9.546875 L19.421875,9.359375 C20.296875,10.0625 21.484375,11.203125 22.125,12.046875 C22.578125,12.078125 22.875,12.125 23.046875,12.28125 L21.171875,14.109375 L20.09375,13.0625 L4.421875,13.0625 C4.390625,13.4375 4.3125,13.84375 4.21875,14.28125 Z" transform="translate(-0.109375, 14.28125) scale(1, -1)"/>
</svg>