<svg height="19.859375" viewBox="0 0 24 19.859375" width="24" xmlns="http://www.w3.org/2000/svg">
<path d="M4.53125,17.71875 L4.53125,1.375 C4.53125,-0.71875 5.640625,-1.15625 8.8125,-1.15625 L14.09375,-1.15625 C21.28125,-1.15625 22.609375,-0.953125 22.609375,0.078125 C22.609375,0.4375 22.390625,0.625 21.625,0.84375 L21.546875,4.46875 L21.265625,4.46875 C20.8125,2.515625 20.453125,1.390625 20.1875,0.9375 C19.984375,0.703125 19.75,0.546875 19.25,0.5 C18.484375,0.4375 16.6875,0.390625 14.1875,0.390625 L8.734375,0.390625 C6.546875,0.390625 6.140625,0.71875 6.140625,1.6875 L6.140625,16.984375 L17.515625,16.984375 L17.515625,10.03125 C17.515625,9.59375 17.359375,9.4375 16.734375,9.4375 C15.953125,9.4375 11.828125,9.71875 11.828125,9.71875 L11.828125,9.34375 C13.515625,9.140625 14.5,8.90625 15.03125,8.609375 C15.53125,8.359375 15.75,7.9375 15.890625,7.421875 C18.765625,7.703125 19.109375,8.59375 19.109375,9.765625 L19.109375,16.703125 C19.609375,16.78125 19.984375,16.984375 20.140625,17.1875 L18.09375,18.703125 L17.28125,17.71875 L6.4375,17.71875 L4.53125,18.53125 Z" transform="translate(-1.5703125, 18.703125) scale(1, -1)"/>
</svg>