<svg height="24" viewBox="0 0 24 24" width="24" xmlns="http://www.w3.org/2000/svg">
<path d="M13.015625,12.28125 L12.703125,12.125 C13.734375,10.734375 14.953125,8.515625 15.078125,6.796875 C16.53125,5.421875 17.953125,9.078125 13.015625,12.28125 Z M12,15.03125 L9.59375,15.28125 L9.59375,5.359375 C9.59375,5.015625 9.484375,4.890625 9.03125,4.890625 C8.5625,4.890625 6.125,5.0625 6.125,5.0625 L6.125,4.703125 C7.171875,4.5625 7.78125,4.34375 8.140625,4.109375 C8.46875,3.8125 8.59375,3.40625 8.65625,2.921875 C10.890625,3.140625 11.15625,3.9375 11.15625,5.234375 L11.15625,14.421875 C11.6875,14.5 11.921875,14.6875 12,15.03125 Z M16.6875,12.671875 L16.46875,12.390625 C18.859375,10.828125 20.140625,8.140625 20.78125,6.359375 C22.609375,4.984375 23.359375,10.03125 16.6875,12.671875 Z M6.265625,12.4375 L5.828125,12.484375 C5.359375,10.25 3.625,8.359375 2.359375,7.625 C1.84375,7.265625 1.578125,6.765625 1.828125,6.3125 C2.140625,5.78125 3.09375,5.921875 3.765625,6.484375 C4.875,7.265625 6.453125,9.3125 6.265625,12.4375 Z" transform="translate(-0.46875, 15.28125) scale(1, -1)"/>
</svg>