<svg height="21.71875" viewBox="0 0 24 21.71875" width="24" xmlns="http://www.w3.org/2000/svg">
<path d="M2.40625,19.875 L2.15625,19.65625 C3.140625,18.9375 4.34375,17.71875 4.75,16.65625 C6.4375,15.703125 7.46875,19.03125 2.40625,19.875 Z M1.15625,14.640625 L0.90625,14.421875 C1.84375,13.828125 2.90625,12.703125 3.1875,11.71875 C4.875,10.703125 5.921875,14.046875 1.15625,14.640625 Z M2.203125,4.875 C1.9375,4.875 1.203125,4.875 1.203125,4.875 L1.203125,4.34375 C1.703125,4.296875 2.046875,4.21875 2.328125,4.015625 C2.8125,3.671875 2.953125,1.75 2.609375,-0.671875 C2.640625,-1.421875 2.921875,-1.84375 3.359375,-1.84375 C4.125,-1.84375 4.5625,-1.21875 4.609375,-0.234375 C4.703125,1.734375 4.0625,2.859375 4.03125,3.9375 C4.03125,4.515625 4.15625,5.234375 4.296875,5.96875 C4.5625,7.0625 6.046875,12.21875 6.796875,15.03125 L6.34375,15.09375 C3.125,6.1875 3.125,6.1875 2.734375,5.375 C2.546875,4.875 2.46875,4.875 2.203125,4.875 Z M16.375,8.6875 L16.375,6.640625 L12.671875,6.640625 L12.671875,8.6875 Z M11.359375,9.390625 L11.359375,5.8125 C11.359375,3.484375 11.328125,0.984375 9.984375,-1.015625 L10.265625,-1.3125 C11.71875,-0.078125 12.28125,1.5625 12.53125,3.140625 L16.375,3.140625 L16.375,1.109375 C16.375,0.796875 16.265625,0.671875 15.9375,0.671875 C15.546875,0.671875 13.984375,0.796875 13.984375,0.796875 L13.984375,0.40625 C14.734375,0.3125 15.140625,0.140625 15.40625,-0.09375 C15.625,-0.28125 15.71875,-0.671875 15.765625,-1.078125 C17.5,-0.890625 17.71875,-0.21875 17.71875,0.9375 L17.71875,8.546875 C18.078125,8.609375 18.390625,8.765625 18.53125,8.921875 L16.796875,10.203125 L16.15625,9.390625 L12.953125,9.390625 L11.359375,10.125 Z M16.375,5.921875 L16.375,3.859375 L12.59375,3.859375 C12.671875,4.5625 12.671875,5.203125 12.671875,5.828125 L12.671875,5.921875 Z M8.8125,18 L12.140625,18 L12.140625,15.640625 L8.8125,15.640625 Z M7.34375,18.703125 L7.34375,-1.828125 L7.5625,-1.828125 C8.296875,-1.828125 8.8125,-1.4375 8.8125,-1.296875 L8.8125,11.828125 L12.140625,11.828125 L12.140625,10.609375 L12.359375,10.609375 C12.8125,10.609375 13.515625,10.96875 13.53125,11.109375 L13.53125,17.78125 C13.921875,17.859375 14.28125,18.046875 14.421875,18.1875 L12.703125,19.53125 L11.921875,18.703125 L9.09375,18.703125 L7.34375,19.4375 Z M8.8125,14.953125 L12.140625,14.953125 L12.140625,12.53125 L8.8125,12.53125 Z M20.40625,14.953125 L20.40625,12.53125 L16.890625,12.53125 L16.890625,14.953125 Z M20.40625,15.640625 L16.890625,15.640625 L16.890625,18 L20.40625,18 Z M15.484375,18.703125 L15.484375,10.65625 L15.703125,10.65625 C16.296875,10.65625 16.890625,10.984375 16.890625,11.140625 L16.890625,11.828125 L20.40625,11.828125 L20.40625,0.484375 C20.40625,0.125 20.28125,0 19.921875,0 C19.53125,0 17.6875,0.140625 17.6875,0.140625 L17.6875,-0.265625 C18.53125,-0.390625 18.984375,-0.53125 19.296875,-0.765625 C19.5625,-1.015625 19.625,-1.421875 19.703125,-1.84375 C21.640625,-1.65625 21.859375,-0.90625 21.859375,0.28125 L21.859375,17.6875 C22.34375,17.78125 22.75,18 22.921875,18.1875 L20.921875,19.6875 L20.15625,18.703125 L16.984375,18.703125 L15.484375,19.390625 Z" transform="translate(0.0859375, 19.875) scale(1, -1)"/>
</svg>