<svg height="24" viewBox="0 0 24 24" width="24" xmlns="http://www.w3.org/2000/svg">
<path d="M19.609375,18.859375 L18.34375,17.25 L2.328125,17.25 L2.546875,16.5625 L21.328125,16.5625 C21.703125,16.5625 21.9375,16.6875 21.984375,16.9375 C21.09375,17.765625 19.609375,18.859375 19.609375,18.859375 Z M17.359375,11.015625 L16.078125,9.453125 L4.078125,9.453125 L4.265625,8.734375 L19.03125,8.734375 C19.390625,8.734375 19.625,8.859375 19.65625,9.125 C18.796875,9.90625 17.359375,11.015625 17.359375,11.015625 Z M20.78125,2.5 L19.421875,0.8125 L0.984375,0.8125 L1.203125,0.09375 L22.578125,0.09375 C22.921875,0.09375 23.15625,0.21875 23.234375,0.484375 C22.296875,1.34375 20.78125,2.5 20.78125,2.5 Z" transform="translate(-0.109375, 18.859375) scale(1, -1)"/>
</svg>