<svg height="20.78125" viewBox="0 0 24 20.78125" width="24" xmlns="http://www.w3.org/2000/svg">
<path d="M1.125,17.328125 L1.3125,16.625 L8.71875,16.625 C8.609375,10.65625 8.25,3.890625 1.15625,-1.53125 L1.515625,-1.9375 C7.265625,1.625 9.28125,6.125 10.03125,10.734375 L17.40625,10.734375 C17.0625,5.765625 16.421875,1.53125 15.546875,0.765625 C15.234375,0.5 15,0.4375 14.5,0.4375 C13.875,0.4375 11.640625,0.640625 10.34375,0.796875 L10.3125,0.359375 C11.46875,0.1875 12.765625,-0.09375 13.21875,-0.390625 C13.578125,-0.640625 13.734375,-1.078125 13.734375,-1.5625 C14.921875,-1.5625 15.90625,-1.25 16.65625,-0.578125 C17.875,0.59375 18.640625,5.0625 18.953125,10.515625 C19.46875,10.5625 19.796875,10.703125 19.96875,10.875 L18.125,12.4375 L17.1875,11.421875 L10.15625,11.421875 C10.390625,13.15625 10.484375,14.90625 10.53125,16.625 L22.265625,16.625 C22.609375,16.625 22.84375,16.75 22.921875,17.015625 C22.0625,17.78125 20.6875,18.84375 20.6875,18.84375 L19.46875,17.328125 Z" transform="translate(-0.0234375, 18.84375) scale(1, -1)"/>
</svg>