<svg height="21.984375" viewBox="0 0 24 21.984375" width="24" xmlns="http://www.w3.org/2000/svg">
<path d="M5.875,13.015625 L5.453125,12.75 C6.390625,8.8125 8.046875,5.78125 10.390625,3.484375 C8.5,1.515625 5.515625,-0.125 0.9375,-1.46875 L1.171875,-1.921875 C6.03125,-0.71875 9.21875,0.765625 11.328125,2.640625 C13.96875,0.453125 17.375,-0.984375 21.546875,-1.84375 C21.8125,-1.0625 22.4375,-0.546875 23.203125,-0.484375 L23.25,-0.1875 C18.9375,0.484375 15.265625,1.703125 12.359375,3.703125 C14.765625,6.453125 15.28125,9.90625 15.4375,14.1875 L22.25,14.1875 C22.578125,14.1875 22.828125,14.296875 22.890625,14.5625 C22.03125,15.34375 20.640625,16.421875 20.640625,16.421875 L19.390625,14.875 L15.453125,14.875 L15.53125,19.125 C16.109375,19.21875 16.3125,19.46875 16.390625,19.796875 L13.828125,20.0625 C13.828125,18.21875 13.84375,16.484375 13.828125,14.875 L1.265625,14.875 L1.46875,14.1875 L13.796875,14.1875 C13.703125,10.296875 13.21875,7.125 11.28125,4.515625 C8.71875,6.59375 6.890625,9.390625 5.875,13.015625 Z" transform="translate(-0.09375, 20.0625) scale(1, -1)"/>
</svg>