<svg height="21.375" viewBox="0 0 24 21.375" width="24" xmlns="http://www.w3.org/2000/svg">
<path d="M1.296875,18.03125 L1.515625,17.328125 L11.203125,17.328125 C11.328125,15.90625 11.5,14.609375 11.71875,13.421875 L5.09375,13.421875 L3.390625,14.203125 L3.390625,-1.84375 L3.640625,-1.84375 C4.3125,-1.84375 4.9375,-1.46875 4.9375,-1.265625 L4.9375,12.71875 L10.9375,12.71875 C10.3125,9.859375 8.734375,6.390625 5.25,3.8125 L5.59375,3.484375 C9.484375,5.59375 11.25,8.546875 12.171875,11.40625 C13.109375,8.046875 14.71875,5.609375 17.546875,3.90625 C17.8125,4.515625 18.3125,4.890625 18.9375,4.921875 L18.953125,5.140625 C15.640625,6.640625 13.6875,9.171875 12.625,12.71875 L19.15625,12.71875 L19.15625,0.59375 C19.15625,0.21875 19.03125,0.03125 18.5,0.03125 C17.859375,0.03125 14.828125,0.234375 14.828125,0.234375 L14.828125,-0.140625 C16.15625,-0.265625 16.875,-0.484375 17.328125,-0.75 C17.6875,-0.984375 17.859375,-1.375 17.953125,-1.84375 C20.421875,-1.625 20.734375,-0.796875 20.734375,0.4375 L20.734375,12.40625 C21.21875,12.484375 21.625,12.703125 21.765625,12.890625 L19.75,14.421875 L18.90625,13.421875 L12.40625,13.421875 C12.09375,14.609375 11.875,15.90625 11.734375,17.328125 L22.203125,17.328125 C22.53125,17.328125 22.75,17.453125 22.828125,17.71875 C21.953125,18.484375 20.5625,19.53125 20.5625,19.53125 L19.34375,18.03125 Z" transform="translate(-0.0625, 19.53125) scale(1, -1)"/>
</svg>