<svg height="21.390625" viewBox="0 0 24 21.390625" width="24" xmlns="http://www.w3.org/2000/svg">
<path d="M1.03125,18.03125 L1.25,17.296875 L11.046875,17.296875 L11.046875,14.203125 L11.015625,13.421875 L4.6875,13.421875 L2.953125,14.203125 L2.953125,-1.875 L3.21875,-1.875 C3.90625,-1.875 4.515625,-1.46875 4.515625,-1.265625 L4.515625,12.703125 L10.96875,12.703125 C10.734375,9.578125 9.578125,6.3125 5.40625,3.59375 L5.640625,3.265625 C9.234375,4.921875 11.015625,7.15625 11.859375,9.40625 C13.625,7.921875 15.8125,5.609375 16.4375,3.8125 C18.28125,2.640625 19.109375,6.671875 12.03125,9.890625 C12.3125,10.84375 12.453125,11.78125 12.53125,12.703125 L19.3125,12.703125 L19.3125,0.578125 C19.3125,0.1875 19.203125,0.03125 18.671875,0.03125 C18,0.03125 15,0.234375 15,0.234375 L15,-0.140625 C16.3125,-0.28125 17.046875,-0.5 17.5,-0.75 C17.859375,-0.984375 18,-1.375 18.09375,-1.84375 C20.59375,-1.625 20.90625,-0.796875 20.90625,0.4375 L20.90625,12.390625 C21.390625,12.484375 21.765625,12.703125 21.9375,12.859375 L19.890625,14.40625 L19.078125,13.421875 L12.578125,13.421875 L12.59375,14.203125 L12.59375,17.296875 L22.375,17.296875 C22.703125,17.296875 22.9375,17.421875 22.984375,17.6875 C22.125,18.484375 20.765625,19.515625 20.765625,19.515625 L19.515625,18.03125 Z" transform="translate(-0.0078125, 19.515625) scale(1, -1)"/>
</svg>