<svg height="21.984375" viewBox="0 0 24 21.984375" width="24" xmlns="http://www.w3.org/2000/svg">
<path d="M19.734375,8.015625 L12.71875,8.015625 L12.71875,14.375 L19.734375,14.375 Z M13.609375,19.84375 L11.109375,20.109375 L11.109375,15.078125 L4.296875,15.078125 L2.546875,15.890625 L2.546875,5.046875 L2.8125,5.046875 C3.484375,5.046875 4.125,5.421875 4.125,5.59375 L4.125,7.3125 L11.109375,7.3125 L11.109375,-1.875 L11.421875,-1.875 C12.046875,-1.875 12.71875,-1.484375 12.71875,-1.21875 L12.71875,7.3125 L19.734375,7.3125 L19.734375,5.328125 L19.96875,5.328125 C20.5,5.328125 21.3125,5.6875 21.328125,5.828125 L21.328125,14.0625 C21.8125,14.15625 22.203125,14.359375 22.375,14.546875 L20.375,16.078125 L19.484375,15.078125 L12.71875,15.078125 L12.71875,19.171875 C13.34375,19.265625 13.53125,19.515625 13.609375,19.84375 Z M4.125,8.015625 L4.125,14.375 L11.109375,14.375 L11.109375,8.015625 Z" transform="translate(-0.4609375, 20.109375) scale(1, -1)"/>
</svg>