<svg height="22.015625" viewBox="0 0 24 22.015625" width="24" xmlns="http://www.w3.org/2000/svg">
<path d="M6.671875,16.9375 L6.40625,16.703125 C8.328125,15.4375 10.796875,13.171875 11.609375,11.359375 C13.609375,10.265625 14.28125,14.546875 6.671875,16.9375 Z M5.640625,4.78125 L7.03125,2.90625 C7.25,3.046875 7.375,3.359375 7.390625,3.640625 C10.34375,5.828125 12.703125,7.78125 14.453125,9.234375 L14.453125,-1.921875 L14.765625,-1.921875 C15.390625,-1.921875 16.0625,-1.515625 16.0625,-1.265625 L16.0625,19.15625 C16.65625,19.25 16.84375,19.46875 16.921875,19.796875 L14.453125,20.09375 L14.453125,9.859375 C10.734375,7.609375 7.078125,5.46875 5.640625,4.78125 Z" transform="translate(0.71875, 20.09375) scale(1, -1)"/>
</svg>