<svg height="20.90625" viewBox="0 0 24 20.90625" width="24" xmlns="http://www.w3.org/2000/svg">
<path d="M11.140625,20.0625 L11.140625,15.03125 L2.296875,15.03125 L2.5,14.328125 L11.140625,14.328125 L11.140625,7.84375 L3.078125,7.84375 L3.265625,7.15625 L11.140625,7.15625 L11.140625,-0.140625 L1.015625,-0.140625 L1.21875,-0.84375 L22.421875,-0.84375 C22.78125,-0.84375 22.984375,-0.71875 23.0625,-0.484375 C22.171875,0.34375 20.765625,1.421875 20.765625,1.421875 L19.515625,-0.140625 L12.796875,-0.140625 L12.796875,7.15625 L20.453125,7.15625 C20.78125,7.15625 21.03125,7.25 21.09375,7.515625 C20.234375,8.28125 18.890625,9.34375 18.890625,9.34375 L17.6875,7.84375 L12.796875,7.84375 L12.796875,13.65625 C13.3125,13.734375 13.515625,13.9375 13.5625,14.28125 L13.125,14.328125 L21.3125,14.328125 C21.640625,14.328125 21.859375,14.453125 21.9375,14.71875 C21.078125,15.484375 19.6875,16.5625 19.6875,16.5625 L18.453125,15.03125 L12.796875,15.03125 L12.796875,19.15625 C13.375,19.25 13.625,19.484375 13.65625,19.828125 Z" transform="translate(-0.0390625, 20.0625) scale(1, -1)"/>
</svg>