<svg height="20.9375" viewBox="0 0 24 20.9375" width="24" xmlns="http://www.w3.org/2000/svg">
<path d="M8.453125,20.09375 L8.203125,19.84375 C9.890625,18.90625 12.03125,17.09375 12.765625,15.59375 C14.78125,14.609375 15.40625,18.75 8.453125,20.09375 Z M1.015625,-0.140625 L1.21875,-0.84375 L22.421875,-0.84375 C22.78125,-0.84375 22.984375,-0.71875 23.0625,-0.484375 C22.171875,0.34375 20.765625,1.421875 20.765625,1.421875 L19.515625,-0.140625 L12.796875,-0.140625 L12.796875,6.9375 L20.25,6.9375 C20.609375,6.9375 20.859375,7.0625 20.90625,7.296875 C20.0625,8.09375 18.703125,9.125 18.703125,9.125 L17.5,7.625 L12.796875,7.625 L12.796875,13.796875 L21.328125,13.796875 C21.640625,13.796875 21.890625,13.921875 21.953125,14.1875 C21.09375,15 19.6875,16.0625 19.6875,16.0625 L18.453125,14.515625 L2.609375,14.515625 L2.828125,13.796875 L11.15625,13.796875 L11.15625,7.625 L3.625,7.625 L3.8125,6.9375 L11.15625,6.9375 L11.15625,-0.140625 Z" transform="translate(-0.0390625, 20.09375) scale(1, -1)"/>
</svg>