<svg height="21.984375" viewBox="0 0 24 21.984375" width="24" xmlns="http://www.w3.org/2000/svg">
<path d="M1.0625,11.109375 L1.265625,10.421875 L6,10.421875 L6,7.25 L2.203125,7.25 L2.40625,6.546875 L9.625,6.546875 C7.65625,3.765625 4.53125,1.125 0.9375,-0.625 L1.171875,-1.015625 C5.328125,0.546875 8.828125,2.90625 11.140625,5.828125 L11.140625,-1.890625 L11.375,-1.890625 C12.171875,-1.890625 12.703125,-1.515625 12.703125,-1.390625 L12.703125,6.546875 L12.859375,6.546875 C14.8125,3.125 18.171875,0.484375 21.625,-0.953125 C21.84375,-0.21875 22.375,0.234375 23.015625,0.34375 L23.046875,0.625 C19.53125,1.578125 15.640625,3.8125 13.46875,6.546875 L21.59375,6.546875 C21.90625,6.546875 22.171875,6.671875 22.21875,6.9375 C21.484375,7.625 20.203125,8.640625 20.203125,8.640625 L19.125,7.25 L18,7.25 L18,10.421875 L22.390625,10.421875 C22.734375,10.421875 22.96875,10.53125 23.015625,10.796875 C22.21875,11.546875 20.953125,12.53125 20.953125,12.53125 L19.796875,11.109375 L18,11.109375 L18,14.203125 L21.28125,14.203125 C21.59375,14.203125 21.84375,14.328125 21.90625,14.59375 C21.125,15.3125 19.828125,16.296875 19.828125,16.296875 L18.703125,14.921875 L12.703125,14.921875 L12.703125,17.71875 C14.96875,17.921875 17.09375,18.1875 18.84375,18.484375 C19.4375,18.21875 19.890625,18.21875 20.09375,18.40625 L18.4375,20.09375 C14.859375,19.109375 8.0625,18 2.609375,17.609375 L2.6875,17.140625 C5.453125,17.15625 8.375,17.328125 11.140625,17.5625 L11.140625,14.921875 L2.40625,14.921875 L2.59375,14.203125 L6,14.203125 L6,11.109375 Z M10.078125,7.25 L7.515625,7.25 L7.515625,10.421875 L11.140625,10.421875 L11.140625,7.25 Z M12.953125,7.25 L12.703125,7.25 L12.703125,10.421875 L16.484375,10.421875 L16.484375,7.25 Z M7.515625,14.203125 L11.140625,14.203125 L11.140625,11.109375 L7.515625,11.109375 Z M16.484375,14.203125 L16.484375,11.109375 L12.703125,11.109375 L12.703125,14.203125 Z" transform="translate(0.0078125, 20.09375) scale(1, -1)"/>
</svg>