<svg height="19.890625" viewBox="0 0 24 19.890625" width="24" xmlns="http://www.w3.org/2000/svg">
<path d="M5.28125,19.125 L5.28125,1.609375 C5.28125,-0.3125 6.21875,-0.75 8.96875,-0.75 L13.3125,-0.75 C19.375,-0.765625 20.5625,-0.546875 20.5625,0.4375 C20.5625,0.765625 20.375,0.953125 19.6875,1.171875 L19.625,5.859375 L19.3125,5.859375 C18.890625,3.5 18.5,1.921875 18.234375,1.375 C18.125,1.078125 17.953125,0.9375 17.5,0.859375 C16.84375,0.8125 15.40625,0.765625 13.375,0.765625 L9.046875,0.765625 C7.25,0.765625 6.890625,1.109375 6.890625,1.9375 L6.890625,18.1875 C7.46875,18.28125 7.703125,18.53125 7.734375,18.84375 Z" transform="translate(-0.921875, 19.125) scale(1, -1)"/>
</svg>