<svg height="21.9375" viewBox="0 0 24 21.9375" width="24" xmlns="http://www.w3.org/2000/svg">
<path d="M11.0625,20.046875 C8.828125,19.078125 4.5625,17.921875 1.015625,17.421875 L1.125,16.96875 C4.828125,17.109375 9,17.734375 11.65625,18.390625 C12.21875,18.140625 12.671875,18.140625 12.890625,18.359375 Z M11.140625,17.109375 C10.296875,15.1875 9.1875,13.203125 8.296875,11.953125 L8.640625,11.71875 C9.90625,12.671875 11.328125,14.1875 12.453125,15.703125 C12.953125,15.59375 13.25,15.796875 13.375,16.03125 Z M14.734375,19.609375 L14.734375,0.53125 C14.734375,-0.8125 15.1875,-1.3125 16.96875,-1.3125 L18.984375,-1.3125 C22.21875,-1.3125 23.046875,-1.0625 23.046875,-0.3125 C23.046875,0.03125 22.890625,0.21875 22.34375,0.40625 L22.265625,4.578125 L21.953125,4.578125 C21.671875,2.921875 21.359375,1.015625 21.171875,0.578125 C21.078125,0.359375 20.96875,0.28125 20.765625,0.234375 C20.46875,0.1875 19.84375,0.1875 19.03125,0.1875 L17.296875,0.1875 C16.484375,0.1875 16.34375,0.40625 16.34375,0.953125 L16.34375,18.640625 C16.9375,18.75 17.15625,19.015625 17.1875,19.3125 Z M1.890625,16.21875 L1.609375,16.078125 C2.25,15.21875 2.96875,13.78125 3.078125,12.671875 C4.34375,11.546875 5.734375,14.296875 1.890625,16.21875 Z M5.375,16.890625 L5.09375,16.75 C5.65625,15.8125 6.3125,14.328125 6.3125,13.15625 C7.5625,11.953125 9.078125,14.734375 5.375,16.890625 Z M0.984375,5.71875 L1.84375,3.703125 C2.09375,3.75 2.328125,3.90625 2.453125,4.21875 L6.453125,5.09375 L6.453125,0.453125 C6.453125,0.125 6.34375,-0.03125 5.921875,-0.03125 C5.5,-0.03125 3.140625,0.171875 3.140625,0.171875 L3.140625,-0.21875 C4.171875,-0.359375 4.734375,-0.53125 5.0625,-0.765625 C5.40625,-1.03125 5.515625,-1.4375 5.5625,-1.890625 C7.75,-1.6875 7.984375,-0.9375 7.984375,0.359375 L7.984375,5.453125 C10.21875,5.96875 12.046875,6.4375 13.578125,6.8125 L13.5625,7.21875 L7.984375,6.484375 L7.984375,7.890625 C8.546875,7.96875 8.78125,8.15625 8.828125,8.515625 L8.640625,8.546875 C10.03125,9.171875 11.5,10.109375 12.5,10.75 C13.015625,10.78125 13.3125,10.796875 13.484375,10.96875 L11.78125,12.578125 L10.796875,11.609375 L1.6875,11.609375 L1.890625,10.921875 L10.46875,10.921875 C9.796875,10.171875 8.859375,9.28125 7.984375,8.609375 L6.453125,8.78125 L6.453125,6.28125 C4.078125,6 2.140625,5.78125 0.984375,5.71875 Z" transform="translate(-0.015625, 20.046875) scale(1, -1)"/>
</svg>