<svg height="22.03125" viewBox="0 0 24 22.03125" width="24" xmlns="http://www.w3.org/2000/svg">
<path d="M14.71875,19.609375 L14.71875,0.53125 C14.71875,-0.8125 15.171875,-1.34375 16.9375,-1.34375 L19.015625,-1.34375 C22.265625,-1.34375 23.109375,-1.0625 23.109375,-0.28125 C23.109375,0.03125 22.96875,0.234375 22.421875,0.4375 L22.3125,4.609375 L22.015625,4.609375 C21.75,2.921875 21.40625,1.03125 21.234375,0.59375 C21.125,0.390625 21.03125,0.3125 20.78125,0.265625 C20.5,0.234375 19.890625,0.21875 19.03125,0.21875 L17.25,0.21875 C16.46875,0.21875 16.3125,0.4375 16.3125,0.984375 L16.3125,18.640625 C16.921875,18.75 17.140625,19.015625 17.15625,19.3125 Z M6.359375,17.015625 L6.046875,16.875 C6.5,16.015625 6.953125,14.5625 6.890625,13.4375 C8.015625,12.171875 9.703125,14.765625 6.359375,17.015625 Z M9.75,17.734375 L9.484375,17.546875 C10.578125,16.53125 11.828125,14.765625 12,13.34375 C13.578125,12.09375 14.875,15.703125 9.75,17.734375 Z M3.359375,18.71875 C2.875,16.296875 1.921875,13.96875 0.8125,12.5 L1.15625,12.234375 C2.640625,13.421875 3.9375,15.1875 4.78125,17.375 C7.390625,17.5625 10.296875,18.078125 12.171875,18.53125 C12.71875,18.3125 13.125,18.3125 13.34375,18.53125 L11.5625,20.140625 C10.21875,19.484375 7.828125,18.671875 5.59375,18.09375 Z M1.03125,5.765625 L1.875,3.71875 C2.09375,3.765625 2.328125,3.953125 2.453125,4.25 L6.640625,5.15625 L6.640625,0.484375 C6.640625,0.140625 6.53125,0 6.125,0 C5.65625,0 3.34375,0.1875 3.34375,0.1875 L3.34375,-0.1875 C4.375,-0.34375 4.921875,-0.5 5.25,-0.75 C5.5625,-1.03125 5.6875,-1.421875 5.765625,-1.890625 C7.9375,-1.6875 8.1875,-0.90625 8.1875,0.390625 L8.1875,5.515625 C10.3125,6 12.078125,6.4375 13.5625,6.8125 L13.53125,7.21875 L8.1875,6.53125 L8.1875,7.96875 C8.734375,8.046875 8.96875,8.234375 9.03125,8.5625 L8.5,8.609375 C9.890625,9.21875 11.40625,10.109375 12.4375,10.75 C12.90625,10.78125 13.21875,10.796875 13.390625,10.984375 L11.6875,12.578125 L10.703125,11.609375 L1.875,11.609375 L2.09375,10.921875 L10.375,10.921875 C9.703125,10.203125 8.765625,9.3125 7.921875,8.6875 L6.640625,8.828125 L6.640625,6.34375 C4.203125,6.046875 2.1875,5.828125 1.03125,5.765625 Z" transform="translate(0.0390625, 20.140625) scale(1, -1)"/>
</svg>