<svg height="21.625" viewBox="0 0 24 21.625" width="24" xmlns="http://www.w3.org/2000/svg">
<path d="M15.140625,19.65625 L15.140625,0.40625 C15.140625,-0.859375 15.578125,-1.375 17.296875,-1.375 L19.171875,-1.375 C22.21875,-1.375 23.015625,-1.078125 23.015625,-0.359375 C23.015625,-0.03125 22.875,0.171875 22.34375,0.359375 L22.25,4.390625 L21.9375,4.390625 C21.671875,2.8125 21.359375,0.90625 21.1875,0.53125 C21.078125,0.28125 20.96875,0.21875 20.765625,0.1875 C20.5,0.171875 19.9375,0.171875 19.171875,0.171875 L17.609375,0.171875 C16.84375,0.171875 16.734375,0.359375 16.734375,0.859375 L16.734375,18.703125 C17.296875,18.796875 17.515625,19.0625 17.5625,19.375 Z M0.984375,12.71875 L1.171875,12 L6.5,12 L6.5,7.296875 L4.203125,7.296875 L2.359375,8.09375 L2.359375,-1.75 L2.59375,-1.75 C3.40625,-1.75 3.90625,-1.34375 3.90625,-1.21875 L3.90625,0.265625 L10.828125,0.265625 L10.828125,-1.515625 L11.046875,-1.515625 C11.5625,-1.515625 12.3125,-1.171875 12.34375,-1.015625 L12.34375,6.3125 C12.84375,6.40625 13.21875,6.59375 13.390625,6.796875 L11.453125,8.25 L10.578125,7.296875 L8.046875,7.296875 L8.046875,12 L13.625,12 C13.96875,12 14.1875,12.125 14.25,12.390625 C13.46875,13.15625 12.171875,14.15625 12.171875,14.15625 L11.046875,12.71875 L8.046875,12.71875 L8.046875,17.203125 C9.53125,17.515625 10.921875,17.828125 12.03125,18.171875 C12.59375,17.953125 13.03125,17.96875 13.265625,18.171875 L11.328125,19.875 C9.09375,18.75 4.75,17.328125 1.078125,16.625 L1.203125,16.25 C2.953125,16.375 4.78125,16.625 6.5,16.921875 L6.5,12.71875 Z M3.90625,6.59375 L10.828125,6.59375 L10.828125,0.953125 L3.90625,0.953125 Z" transform="translate(0, 19.875) scale(1, -1)"/>
</svg>