<svg height="22.0625" viewBox="0 0 24 22.0625" width="24" xmlns="http://www.w3.org/2000/svg">
<path d="M8.046875,20.1875 C6.75,17.203125 4.015625,13.890625 1.21875,12.03125 L1.484375,11.734375 C3.9375,12.9375 6.234375,14.875 7.96875,16.921875 L13.53125,16.921875 C12.984375,15.859375 12.125,14.453125 11.296875,13.46875 L4.84375,13.484375 L5.0625,12.796875 L10.84375,12.796875 L10.84375,9.5 L0.953125,9.5 L1.171875,8.8125 L10.84375,8.8125 L10.84375,5.359375 L3.359375,5.359375 L3.578125,4.65625 L10.84375,4.65625 L10.84375,0.546875 C10.84375,0.171875 10.6875,0.03125 10.125,0.03125 C9.484375,0.03125 6.1875,0.234375 6.1875,0.234375 L6.1875,-0.125 C7.609375,-0.28125 8.421875,-0.484375 8.859375,-0.765625 C9.265625,-0.984375 9.453125,-1.421875 9.53125,-1.875 C12.078125,-1.65625 12.4375,-0.75 12.4375,0.484375 L12.4375,4.65625 L17.859375,4.65625 L17.859375,2.875 L18.09375,2.875 C18.625,2.875 19.421875,3.234375 19.4375,3.40625 L19.4375,8.8125 L22.65625,8.8125 C22.984375,8.8125 23.203125,8.90625 23.25,9.171875 C22.515625,9.9375 21.21875,10.9375 21.21875,10.9375 L20.109375,9.5 L19.4375,9.5 L19.4375,12.5 C19.890625,12.59375 20.25,12.796875 20.421875,12.953125 L18.5,14.453125 L17.609375,13.484375 L11.96875,13.484375 C13.265625,14.40625 14.65625,15.796875 15.578125,16.703125 C16.0625,16.75 16.34375,16.796875 16.53125,16.9375 L14.6875,18.671875 L13.625,17.640625 L8.546875,17.640625 C8.921875,18.140625 9.28125,18.671875 9.59375,19.171875 C10.203125,19.109375 10.421875,19.203125 10.515625,19.4375 Z M17.859375,8.8125 L17.859375,5.359375 L12.4375,5.359375 L12.4375,8.8125 Z M17.859375,9.5 L12.4375,9.5 L12.4375,12.796875 L17.859375,12.796875 Z" transform="translate(-0.1015625, 20.1875) scale(1, -1)"/>
</svg>