<svg height="21.3125" viewBox="0 0 24 21.3125" width="24" xmlns="http://www.w3.org/2000/svg">
<path d="M0.9375,10.96875 L1.15625,10.265625 L11.1875,10.265625 L11.1875,0.578125 C11.1875,0.1875 11.015625,0.046875 10.484375,0.046875 C9.84375,0.046875 6.484375,0.28125 6.484375,0.28125 L6.484375,-0.078125 C7.921875,-0.234375 8.71875,-0.453125 9.1875,-0.71875 C9.578125,-0.984375 9.796875,-1.421875 9.84375,-1.890625 C12.40625,-1.6875 12.765625,-0.765625 12.765625,0.5 L12.765625,10.265625 L20.015625,10.265625 C19.0625,8.6875 17.375,6.546875 16.125,5.25 L16.421875,5.015625 C18.3125,6.265625 20.875,8.40625 22.15625,9.953125 C22.6875,9.984375 22.984375,10.0625 23.15625,10.21875 L21.265625,12.078125 L20.140625,10.96875 L14.359375,10.96875 C14.921875,11.40625 14.78125,12.796875 12.640625,14.109375 C14.90625,14.96875 17.828125,16.296875 19.421875,17.375 C19.984375,17.40625 20.28125,17.453125 20.5,17.609375 L18.59375,19.421875 L17.453125,18.34375 L3.703125,18.34375 L3.90625,17.65625 L16.96875,17.65625 C15.703125,16.609375 13.734375,15.28125 12.1875,14.375 C11.109375,14.953125 9.59375,15.484375 7.578125,15.890625 L7.4375,15.5 C10.484375,14.15625 12.625,12.1875 13.390625,10.96875 Z" transform="translate(-0.046875, 19.421875) scale(1, -1)"/>
</svg>