<svg height="20.640625" viewBox="0 0 24 20.640625" width="24" xmlns="http://www.w3.org/2000/svg">
<path d="M13.75,6.4375 L13.75,-0.1875 L10.109375,-0.1875 L10.109375,5.453125 C10.578125,5.546875 10.9375,5.71875 11.109375,5.90625 L9.21875,7.390625 L8.328125,6.4375 L4.875,6.4375 L4.875,12.171875 L8.5625,12.171875 L8.5625,10.78125 L8.78125,10.78125 C9.59375,10.78125 10.109375,11.140625 10.109375,11.234375 L10.109375,17.5 L13.75,17.5 L13.75,10.828125 L13.984375,10.828125 C14.78125,10.828125 15.3125,11.15625 15.3125,11.28125 L15.3125,12.171875 L19.0625,12.171875 L19.0625,6.4375 L15.59375,6.4375 L13.75,7.21875 Z M3.34375,12.859375 L3.34375,4.125 L3.59375,4.125 C4.21875,4.125 4.875,4.484375 4.875,4.625 L4.875,5.71875 L8.5625,5.71875 L8.5625,-0.1875 L1.015625,-0.1875 L1.203125,-0.890625 L22.4375,-0.890625 C22.78125,-0.890625 23.015625,-0.765625 23.09375,-0.53125 C22.203125,0.28125 20.78125,1.375 20.78125,1.375 L19.53125,-0.1875 L15.3125,-0.1875 L15.3125,5.71875 L19.0625,5.71875 L19.0625,4.46875 L19.296875,4.46875 C19.796875,4.46875 20.609375,4.828125 20.640625,4.96875 L20.640625,11.875 C21.125,11.953125 21.5,12.171875 21.640625,12.359375 L19.703125,13.828125 L18.8125,12.859375 L15.3125,12.859375 L15.3125,17.5 L21.546875,17.5 C21.890625,17.5 22.125,17.609375 22.203125,17.875 C21.328125,18.671875 19.921875,19.75 19.921875,19.75 L18.671875,18.21875 L2.046875,18.21875 L2.234375,17.5 L8.5625,17.5 L8.5625,12.859375 L4.984375,12.859375 L3.34375,13.625 Z" transform="translate(-0.0546875, 19.75) scale(1, -1)"/>
</svg>