<svg height="21.9375" viewBox="0 0 24 21.9375" width="24" xmlns="http://www.w3.org/2000/svg">
<path d="M7.796875,15.125 C6.765625,13.078125 4.515625,10.484375 2.140625,8.953125 L2.375,8.640625 C5.234375,9.84375 7.75,11.921875 9.140625,13.734375 C9.671875,13.625 9.890625,13.734375 10.03125,13.96875 Z M14.640625,14.921875 L14.421875,14.6875 C16.375,13.46875 18.984375,11.25 19.890625,9.53125 C21.953125,8.515625 22.515625,12.796875 14.640625,14.921875 Z M1.015625,16.515625 L1.203125,15.796875 L22.34375,15.796875 C22.703125,15.796875 22.9375,15.90625 23.015625,16.171875 C22.15625,16.9375 20.765625,18 20.765625,18 L19.53125,16.515625 L12.796875,16.515625 L12.796875,19.21875 C13.390625,19.296875 13.625,19.53125 13.6875,19.875 L11.1875,20.109375 L11.1875,16.515625 Z M8.65625,9.8125 L9.390625,10.6875 L8.59375,11.015625 L8.234375,10.015625 C7.515625,9.34375 6.3125,8.375 5.609375,7.875 L6.765625,6.546875 C6.90625,6.703125 6.984375,6.90625 6.859375,7.125 L8.359375,9.34375 C9.078125,7.4375 10.03125,5.765625 11.25,4.3125 C8.765625,1.78125 5.359375,-0.234375 1.0625,-1.46875 L1.203125,-1.828125 C5.859375,-0.90625 9.5,0.9375 12.1875,3.3125 C14.609375,0.890625 17.828125,-0.796875 21.59375,-1.828125 C21.84375,-1.0625 22.421875,-0.546875 23.109375,-0.484375 L23.15625,-0.21875 C19.3125,0.578125 15.796875,1.984375 13.078125,4.125 C14.640625,5.6875 15.8125,7.46875 16.65625,9.34375 C17.25,9.234375 17.46875,9.359375 17.609375,9.640625 L15.21875,10.625 C14.5,8.640625 13.421875,6.765625 11.953125,5.09375 C10.53125,6.4375 9.40625,7.984375 8.65625,9.8125 Z" transform="translate(-0.0859375, 20.109375) scale(1, -1)"/>
</svg>