<svg height="21.984375" viewBox="0 0 24 21.984375" width="24" xmlns="http://www.w3.org/2000/svg">
<path d="M9.390625,18.390625 L9.390625,11.09375 C9.390625,6.546875 9.03125,1.96875 6.3125,-1.609375 L6.703125,-1.875 C10.609375,1.625 10.9375,6.8125 10.9375,11.109375 L10.9375,11.90625 L12.171875,11.90625 C12.796875,8.5 13.84375,5.71875 15.40625,3.453125 C13.828125,1.515625 11.78125,-0.140625 9.21875,-1.421875 L9.453125,-1.78125 C12.265625,-0.71875 14.453125,0.71875 16.171875,2.453125 C17.609375,0.671875 19.4375,-0.75 21.625,-1.796875 C21.9375,-0.984375 22.53125,-0.53125 23.296875,-0.5 L23.359375,-0.234375 C20.953125,0.625 18.890625,1.890625 17.203125,3.578125 C19.15625,5.90625 20.359375,8.65625 21.171875,11.640625 C21.71875,11.6875 21.953125,11.765625 22.15625,11.96875 L20.328125,13.65625 L19.265625,12.59375 L10.9375,12.59375 L10.9375,17.453125 L22.34375,17.453125 C22.6875,17.453125 22.921875,17.5625 22.984375,17.828125 C22.171875,18.59375 20.859375,19.625 20.859375,19.625 L19.703125,18.171875 L11.1875,18.171875 L9.390625,18.953125 Z M19.375,11.90625 C18.75,9.234375 17.734375,6.765625 16.25,4.578125 C14.59375,6.546875 13.390625,9 12.703125,11.90625 Z M8.734375,19.265625 L6.234375,20.109375 C4.96875,15.4375 2.78125,10.703125 0.671875,7.75 L1.03125,7.515625 C2.15625,8.640625 3.234375,10.015625 4.21875,11.546875 L4.21875,-1.84375 L4.515625,-1.84375 C5.140625,-1.84375 5.78125,-1.46875 5.8125,-1.3125 L5.8125,12.90625 C6.234375,12.953125 6.484375,13.125 6.546875,13.34375 L5.515625,13.734375 C6.359375,15.34375 7.125,17.046875 7.78125,18.8125 C8.328125,18.765625 8.609375,19.015625 8.734375,19.265625 Z" transform="translate(-0.015625, 20.109375) scale(1, -1)"/>
</svg>