<svg height="23.203125" viewBox="0 0 24 23.203125" width="24" xmlns="http://www.w3.org/2000/svg">
<path d="M6.046875,11.921875 L6.234375,11.234375 L17.234375,11.234375 C17.5625,11.234375 17.8125,11.359375 17.859375,11.609375 C17.015625,12.390625 15.671875,13.421875 15.671875,13.421875 L14.5,11.921875 Z M12.5,18.75 C14.15625,15.390625 17.6875,12.171875 21.546875,10.34375 C21.75,10.984375 22.3125,11.65625 23.109375,11.8125 L23.15625,12.1875 C19.125,13.609375 15.078125,16.203125 12.9375,19.03125 C13.5625,19.078125 13.84375,19.203125 13.921875,19.484375 L10.921875,20.203125 C9.703125,16.9375 4.9375,12.4375 0.859375,10.296875 L1.0625,9.953125 C5.609375,11.828125 10.3125,15.453125 12.5,18.75 Z M2.65625,0.546875 L3.671875,-1.578125 C3.90625,-1.53125 4.15625,-1.34375 4.296875,-1.0625 C10.25,-0.265625 14.609375,0.390625 17.921875,0.953125 C18.53125,0.078125 19.015625,-0.796875 19.25,-1.578125 C21.328125,-3 22.421875,1.65625 14.6875,5.109375 L14.40625,4.921875 C15.4375,4.015625 16.609375,2.734375 17.5625,1.4375 L7.484375,0.765625 C8.734375,2.46875 10.171875,4.890625 11.203125,6.90625 L21.3125,6.90625 C21.640625,6.90625 21.859375,7.03125 21.9375,7.265625 C21.09375,8.0625 19.703125,9.125 19.703125,9.125 L18.453125,7.609375 L2.109375,7.609375 L2.328125,6.90625 L9.046875,6.90625 C8.46875,5.046875 7.4375,2.5 6.546875,0.71875 C4.9375,0.625 3.59375,0.578125 2.65625,0.546875 Z" transform="translate(-0.0078125, 20.203125) scale(1, -1)"/>
</svg>