<svg height="22.890625" viewBox="0 0 24 22.890625" width="24" xmlns="http://www.w3.org/2000/svg">
<path d="M8.90625,17.359375 L9.078125,16.65625 L20.953125,16.65625 C21.28125,16.65625 21.5,16.78125 21.578125,17.015625 C20.765625,17.78125 19.46875,18.796875 19.46875,18.796875 L18.3125,17.359375 Z M6.90625,0.984375 L7.875,-1.21875 C8.140625,-1.171875 8.359375,-1.015625 8.515625,-0.71875 C13.5625,0.234375 17.28125,1.015625 20.09375,1.65625 C20.59375,0.640625 21,-0.359375 21.1875,-1.21875 C23.109375,-2.78125 24.265625,1.796875 17.28125,6.71875 L16.9375,6.546875 C17.875,5.359375 18.953125,3.75 19.828125,2.140625 C16.484375,1.78125 13.296875,1.46875 10.78125,1.25 C12.078125,3.53125 13.734375,7.203125 14.859375,10.0625 L22.734375,10.0625 C23.015625,10.0625 23.28125,10.171875 23.359375,10.4375 C22.53125,11.1875 21.21875,12.21875 21.21875,12.21875 L20.046875,10.75 L6.9375,10.75 L7.125,10.0625 L12.765625,10.0625 C12.09375,7.390625 10.890625,3.5 10.0625,1.203125 C8.765625,1.078125 7.6875,1.015625 6.90625,0.984375 Z M6.359375,20.109375 C5.15625,15.546875 3.03125,10.96875 0.9375,8.09375 L1.296875,7.84375 C2.359375,8.875 3.34375,10.125 4.265625,11.515625 L4.265625,-1.875 L4.5625,-1.875 C5.1875,-1.875 5.828125,-1.46875 5.859375,-1.34375 L5.859375,12.984375 C6.265625,13.03125 6.5,13.203125 6.578125,13.421875 L5.609375,13.78125 C6.484375,15.359375 7.25,17.09375 7.921875,18.859375 C8.453125,18.84375 8.734375,19.0625 8.828125,19.3125 Z" transform="translate(-0.6015625, 20.109375) scale(1, -1)"/>
</svg>