<svg height="21.984375" viewBox="0 0 24 21.984375" width="24" xmlns="http://www.w3.org/2000/svg">
<path d="M11.765625,19.890625 L11.5,19.6875 C12.859375,18.703125 14.609375,16.9375 15.1875,15.53125 C16.984375,14.546875 17.828125,18.28125 11.765625,19.890625 Z M6.765625,-0.125 L6.953125,-0.796875 L22.625,-0.796875 C22.984375,-0.796875 23.203125,-0.703125 23.28125,-0.4375 C22.421875,0.359375 21.03125,1.4375 21.03125,1.4375 L19.796875,-0.125 L15.40625,-0.125 L15.40625,7.15625 L21.53125,7.15625 C21.84375,7.15625 22.078125,7.25 22.15625,7.515625 C21.390625,8.25 20.09375,9.234375 20.09375,9.234375 L18.984375,7.84375 L15.40625,7.84375 L15.40625,13.921875 L22.0625,13.921875 C22.421875,13.921875 22.625,14.046875 22.703125,14.296875 C21.859375,15.078125 20.546875,16.109375 20.546875,16.109375 L19.390625,14.640625 L7.34375,14.640625 L7.515625,13.921875 L13.78125,13.921875 L13.78125,7.84375 L8.046875,7.84375 L8.234375,7.15625 L13.78125,7.15625 L13.78125,-0.125 Z M6.4375,20.109375 C5.140625,15.453125 2.875,10.828125 0.71875,7.921875 L1.0625,7.65625 C2.15625,8.6875 3.1875,9.9375 4.15625,11.359375 L4.15625,-1.875 L4.4375,-1.875 C5.0625,-1.875 5.71875,-1.484375 5.734375,-1.34375 L5.734375,11.8125 C6.140625,11.859375 6.390625,12.03125 6.484375,12.21875 L5.046875,12.75 C6.171875,14.609375 7.15625,16.6875 7.96875,18.84375 C8.5,18.8125 8.78125,19.03125 8.90625,19.3125 Z" transform="translate(0, 20.109375) scale(1, -1)"/>
</svg>