<svg height="22.046875" viewBox="0 0 24 22.046875" width="24" xmlns="http://www.w3.org/2000/svg">
<path d="M6.625,7.375 L7.65625,5.640625 C7.84375,5.734375 8.046875,5.96875 8.09375,6.265625 L10.4375,7.46875 C10.296875,4.21875 9.5,1.015625 6.40625,-1.625 L6.71875,-1.9375 C11.1875,0.71875 11.921875,4.6875 12.03125,8.28125 L15.28125,10.0625 L15.171875,10.421875 L12.046875,9.234375 L12.046875,14.015625 L15,14.015625 L17.046875,14.015625 L17.046875,8.0625 L13.625,8.0625 L13.828125,7.375 L17.046875,7.375 L17.046875,-1.890625 L17.28125,-1.890625 C18.09375,-1.890625 18.59375,-1.515625 18.59375,-1.421875 L18.59375,7.375 L22.875,7.375 C23.1875,7.375 23.40625,7.484375 23.46875,7.75 C22.734375,8.46875 21.453125,9.484375 21.453125,9.484375 L20.375,8.0625 L18.59375,8.0625 L18.59375,14.015625 L22.34375,14.015625 C22.6875,14.015625 22.9375,14.140625 22.984375,14.40625 C22.21875,15.125 20.953125,16.109375 20.953125,16.109375 L19.84375,14.734375 L17.296875,14.734375 C18.578125,15.984375 19.703125,17.59375 20.359375,18.90625 C20.859375,18.90625 21.140625,19.109375 21.234375,19.390625 L18.90625,20.015625 C18.484375,18.34375 17.65625,16.25 16.734375,14.734375 L15.234375,14.734375 C14.5,15.390625 13.609375,16.078125 13.609375,16.078125 L12.5,14.734375 L10.796875,14.734375 C11.953125,16.03125 12.9375,17.640625 13.515625,18.953125 C13.984375,18.984375 14.28125,19.203125 14.359375,19.484375 L12,20.015625 C11.71875,18.359375 11.015625,16.265625 10.21875,14.734375 L7.4375,14.734375 L7.625,14.015625 L10.484375,14.015625 L10.484375,9.046875 L10.484375,8.65625 C8.8125,8.046875 7.421875,7.578125 6.625,7.375 Z M6.1875,20.109375 C4.984375,15.546875 2.859375,10.96875 0.796875,8.09375 L1.125,7.84375 C2.1875,8.875 3.1875,10.15625 4.125,11.5625 L4.125,-1.875 L4.421875,-1.875 C5.046875,-1.875 5.6875,-1.46875 5.71875,-1.34375 L5.71875,12.984375 C6.125,13.03125 6.359375,13.203125 6.4375,13.421875 L5.453125,13.78125 C6.3125,15.359375 7.078125,17.09375 7.75,18.859375 C8.28125,18.84375 8.5625,19.0625 8.65625,19.3125 Z" transform="translate(-0.1328125, 20.109375) scale(1, -1)"/>
</svg>