<svg height="21.984375" viewBox="0 0 24 21.984375" width="24" xmlns="http://www.w3.org/2000/svg">
<path d="M16.875,14.734375 C16.4375,11.875 15.390625,9.40625 14.015625,7.6875 C13.515625,8.359375 13.078125,9.078125 12.71875,9.8125 L12.71875,15.53125 L22.078125,15.53125 C22.421875,15.53125 22.625,15.640625 22.703125,15.90625 C21.859375,16.6875 20.5,17.71875 20.5,17.71875 L19.296875,16.25 L12.71875,16.25 L12.71875,19.15625 C13.34375,19.25 13.515625,19.484375 13.578125,19.828125 L11.140625,20.09375 L11.140625,16.25 L1.296875,16.25 L1.515625,15.53125 L11.140625,15.53125 L11.140625,10.296875 C9.1875,5.875 5.0625,1.890625 0.890625,-0.359375 L1.078125,-0.75 C5.046875,0.984375 8.765625,3.84375 11.140625,6.859375 L11.140625,-1.890625 L11.453125,-1.890625 C12.03125,-1.890625 12.71875,-1.484375 12.71875,-1.21875 L12.71875,8.65625 C14.609375,4.3125 17.828125,1.078125 21.671875,-0.671875 C21.890625,0.09375 22.484375,0.578125 23.140625,0.703125 L23.1875,0.9375 C19.84375,2.015625 16.5625,4.34375 14.328125,7.25 C15.5,8.140625 16.515625,9.359375 17.296875,10.84375 C18.4375,9.796875 19.65625,8.328125 20.0625,7.125 C21.75,6.078125 22.734375,9.40625 17.5625,11.40625 C17.90625,12.09375 18.171875,12.8125 18.40625,13.609375 C18.9375,13.578125 19.203125,13.828125 19.296875,14.109375 Z M6.21875,14.71875 C5.453125,11.359375 3.890625,8.40625 2.09375,6.59375 L2.40625,6.3125 C4.03125,7.390625 5.453125,8.953125 6.546875,10.96875 C7.296875,10.125 8.046875,9.046875 8.25,8.140625 C9.703125,7.109375 10.84375,9.84375 6.859375,11.5625 C7.15625,12.171875 7.4375,12.8125 7.6875,13.515625 C8.203125,13.484375 8.5,13.703125 8.59375,13.984375 Z" transform="translate(-0.0390625, 20.09375) scale(1, -1)"/>
</svg>