<svg height="21.9375" viewBox="0 0 24 21.9375" width="24" xmlns="http://www.w3.org/2000/svg">
<path d="M16.21875,16.875 L16.21875,12.59375 L13.34375,12.59375 L13.34375,16.875 Z M7.6875,12.59375 L7.6875,-1.5625 L7.921875,-1.5625 C8.65625,-1.5625 9.140625,-1.203125 9.140625,-1.078125 L9.140625,0.578125 L20.640625,0.578125 L20.640625,-1.4375 L20.875,-1.4375 C21.546875,-1.4375 22.15625,-1.0625 22.15625,-0.9375 L22.15625,11.765625 C22.6875,11.859375 22.9375,11.96875 23.109375,12.171875 L21.328125,13.5625 L20.546875,12.59375 L17.6875,12.59375 L17.6875,16.875 L22.609375,16.875 C22.9375,16.875 23.15625,16.984375 23.234375,17.25 C22.390625,18.046875 21.03125,19.078125 21.03125,19.078125 L19.78125,17.5625 L7.4375,17.5625 L7.625,16.875 L11.875,16.875 L11.875,12.59375 L9.4375,12.59375 L7.6875,13.34375 Z M9.140625,1.265625 L9.140625,11.90625 L11.875,11.90625 L11.875,1.265625 Z M20.640625,1.265625 L17.6875,1.265625 L17.6875,11.90625 L20.640625,11.90625 Z M16.21875,1.265625 L13.34375,1.265625 L13.34375,11.90625 L16.21875,11.90625 Z M5.65625,20.09375 C4.515625,15.640625 2.46875,11.15625 0.546875,8.328125 L0.890625,8.09375 C1.84375,9.046875 2.765625,10.203125 3.625,11.515625 L3.625,-1.84375 L3.90625,-1.84375 C4.46875,-1.84375 5.09375,-1.46875 5.109375,-1.34375 L5.109375,12.90625 C5.546875,12.984375 5.78125,13.125 5.875,13.34375 L4.921875,13.703125 C5.8125,15.3125 6.59375,17.046875 7.25,18.84375 C7.78125,18.8125 8.0625,19.03125 8.15625,19.296875 Z" transform="translate(0.109375, 20.09375) scale(1, -1)"/>
</svg>