<svg height="22.609375" viewBox="0 0 24 22.609375" width="24" xmlns="http://www.w3.org/2000/svg">
<path d="M12.09375,9.40625 L11.875,9.171875 C13.203125,8.328125 15.046875,6.796875 15.765625,5.65625 C17.46875,4.921875 18.078125,8.1875 12.09375,9.40625 Z M10.734375,3.8125 L10.53125,3.53125 C12.984375,2.296875 16.484375,-0.03125 17.90625,-1.78125 C20.140625,-2.515625 20.1875,1.78125 10.734375,3.8125 Z M19.796875,17.65625 L19.796875,13.03125 L11.015625,13.03125 C11.0625,13.78125 11.0625,14.46875 11.0625,15.125 L11.0625,17.65625 Z M9.53125,18.359375 L9.53125,15.09375 C9.53125,10.734375 9.078125,5.65625 6.03125,1.4375 L6.359375,1.171875 C9.75,4.375 10.703125,8.71875 10.96875,12.3125 L16.796875,12.3125 C17.734375,7.65625 19.421875,3.984375 22.203125,1.828125 C22.421875,2.515625 22.890625,2.921875 23.46875,3.03125 L23.515625,3.265625 C20.65625,4.875 18.453125,8.453125 17.328125,12.3125 L19.796875,12.3125 L19.796875,11.28125 L20.046875,11.28125 C20.546875,11.28125 21.359375,11.640625 21.390625,11.78125 L21.390625,17.375 C21.84375,17.46875 22.21875,17.65625 22.390625,17.859375 L20.453125,19.34375 L19.5625,18.359375 L11.359375,18.359375 L9.53125,19.171875 Z M6.09375,20.09375 C4.890625,15.546875 2.78125,11.015625 0.765625,8.15625 L1.109375,7.921875 C2.140625,8.90625 3.09375,10.125 4.015625,11.5 L4.015625,-1.875 L4.296875,-1.875 C4.890625,-1.875 5.5625,-1.46875 5.59375,-1.34375 L5.59375,12.984375 C6,13.03125 6.21875,13.203125 6.28125,13.421875 L5.375,13.75 C6.234375,15.34375 7.015625,17.0625 7.65625,18.84375 C8.1875,18.8125 8.46875,19.03125 8.59375,19.3125 Z" transform="translate(-0.140625, 20.09375) scale(1, -1)"/>
</svg>