<svg height="22.03125" viewBox="0 0 24 22.03125" width="24" xmlns="http://www.w3.org/2000/svg">
<path d="M21.03125,12.859375 L18.796875,14.140625 C18.4375,12.890625 17.5,10.390625 16.75,8.8125 L17.015625,8.640625 C18.234375,9.890625 19.53125,11.59375 20.1875,12.578125 C20.640625,12.484375 20.921875,12.671875 21.03125,12.859375 Z M8.5625,13.921875 L8.25,13.78125 C9.09375,12.5 10.109375,10.53125 10.21875,9.03125 C11.65625,7.734375 13.078125,10.96875 8.5625,13.921875 Z M20.09375,17.296875 L18.90625,15.84375 L15.125,15.84375 L15.125,19.15625 C15.71875,19.25 15.90625,19.484375 15.953125,19.828125 L13.578125,20.0625 L13.578125,15.84375 L7.390625,15.84375 L7.578125,15.140625 L13.578125,15.140625 L13.578125,12.1875 C13.578125,10.734375 13.515625,9.3125 13.265625,7.9375 L6.671875,7.9375 L6.859375,7.21875 L13.15625,7.21875 C12.4375,3.71875 10.625,0.671875 6.53125,-1.53125 L6.796875,-1.921875 C11.71875,0.140625 13.828125,3.453125 14.640625,7.21875 L14.921875,7.21875 C15.578125,4.3125 17.09375,0.453125 21.671875,-1.796875 C21.84375,-0.9375 22.3125,-0.640625 23.140625,-0.53125 L23.1875,-0.234375 C18.234375,1.734375 16.21875,4.625 15.40625,7.21875 L22.390625,7.21875 C22.734375,7.21875 22.96875,7.34375 23.046875,7.609375 C22.21875,8.375 20.875,9.40625 20.875,9.40625 L19.734375,7.9375 L14.78125,7.9375 C15.03125,9.34375 15.125,10.75 15.125,12.21875 L15.125,15.140625 L21.59375,15.140625 C21.9375,15.140625 22.171875,15.265625 22.25,15.53125 C21.40625,16.296875 20.09375,17.296875 20.09375,17.296875 Z M6.4375,13.390625 L5.5,13.75 C6.34375,15.359375 7.109375,17.09375 7.75,18.890625 C8.28125,18.859375 8.5625,19.078125 8.65625,19.3125 L6.171875,20.109375 C4.984375,15.5 2.875,10.84375 0.84375,7.921875 L1.171875,7.6875 C2.234375,8.734375 3.21875,10.015625 4.15625,11.453125 L4.15625,-1.875 L4.421875,-1.875 C5.046875,-1.875 5.6875,-1.484375 5.71875,-1.34375 L5.71875,12.953125 C6.125,13.015625 6.359375,13.171875 6.4375,13.390625 Z" transform="translate(-0.015625, 20.109375) scale(1, -1)"/>
</svg>