<svg height="21.984375" viewBox="0 0 24 21.984375" width="24" xmlns="http://www.w3.org/2000/svg">
<path d="M8.359375,10.75 C8.359375,9.9375 7.75,8.90625 7.25,8.515625 C6.796875,8.1875 6.5,7.65625 6.75,7.21875 C7.03125,6.671875 7.84375,6.765625 8.25,7.109375 C8.640625,7.484375 8.921875,8.1875 8.953125,9.125 L20.453125,9.125 L19.984375,7.296875 L20.328125,7.15625 C20.875,7.5625 21.75,8.359375 22.21875,8.859375 C22.6875,8.875 22.9375,8.90625 23.109375,9.078125 L21.3125,10.828125 L20.328125,9.84375 L8.921875,9.84375 C8.90625,10.125 8.828125,10.4375 8.765625,10.75 Z M8.859375,6.9375 L9.046875,6.21875 L10.65625,6.21875 C11.375,4.296875 12.40625,2.78125 13.75,1.578125 C11.828125,0.21875 9.40625,-0.796875 6.53125,-1.484375 L6.671875,-1.890625 C9.9375,-1.34375 12.546875,-0.4375 14.65625,0.859375 C16.484375,-0.453125 18.796875,-1.296875 21.640625,-1.875 C21.8125,-1.109375 22.3125,-0.625 22.984375,-0.484375 L23.046875,-0.21875 C20.25,0.125 17.859375,0.71875 15.890625,1.703125 C17.40625,2.875 18.59375,4.3125 19.484375,6.03125 C20.046875,6.046875 20.296875,6.09375 20.5,6.3125 L18.796875,7.875 L17.765625,6.9375 Z M14.734375,2.359375 C13.203125,3.3125 12,4.578125 11.1875,6.21875 L17.71875,6.21875 C16.984375,4.734375 16.015625,3.4375 14.734375,2.359375 Z M9.5,15.8125 L9.71875,15.125 L18.84375,15.125 L18.84375,12.765625 L8.953125,12.765625 L9.171875,12.046875 L18.84375,12.046875 L18.84375,11.140625 L19.078125,11.140625 C19.609375,11.140625 20.375,11.5 20.40625,11.65625 L20.40625,17.78125 C20.875,17.875 21.265625,18.078125 21.4375,18.265625 L19.484375,19.75 L18.59375,18.765625 L8.921875,18.765625 L9.125,18.09375 L18.84375,18.09375 L18.84375,15.8125 Z M6.09375,20.09375 C4.890625,15.546875 2.78125,11.015625 0.765625,8.15625 L1.109375,7.921875 C2.140625,8.921875 3.125,10.15625 4.03125,11.515625 L4.03125,-1.875 L4.3125,-1.875 C4.921875,-1.875 5.59375,-1.46875 5.609375,-1.34375 L5.609375,12.984375 C6.03125,13.03125 6.234375,13.203125 6.3125,13.421875 L5.375,13.78125 C6.234375,15.34375 7.015625,17.0625 7.65625,18.84375 C8.1875,18.8125 8.46875,19.03125 8.59375,19.3125 Z" transform="translate(0.0625, 20.09375) scale(1, -1)"/>
</svg>