<svg height="22.03125" viewBox="0 0 24 22.03125" width="24" xmlns="http://www.w3.org/2000/svg">
<path d="M6.171875,20.109375 C4.96875,15.546875 2.859375,10.96875 0.796875,8.09375 L1.125,7.84375 C2.1875,8.875 3.1875,10.15625 4.125,11.59375 L4.125,-1.875 L4.421875,-1.875 C5.015625,-1.875 5.6875,-1.46875 5.71875,-1.34375 L5.71875,12.984375 C6.125,13.03125 6.34375,13.203125 6.40625,13.421875 L5.453125,13.78125 C6.3125,15.359375 7.078125,17.09375 7.734375,18.859375 C8.25,18.84375 8.5625,19.0625 8.65625,19.3125 Z M23.046875,-0.265625 C17.296875,2.375 15.625,6.640625 15.125,11.875 L15.125,12.234375 L15.125,15.078125 L22.125,15.078125 C22.46875,15.078125 22.703125,15.1875 22.78125,15.4375 C21.9375,16.203125 20.609375,17.234375 20.609375,17.234375 L19.46875,15.765625 L15.125,15.765625 L15.125,19.125 C15.703125,19.21875 15.890625,19.46875 15.953125,19.796875 L13.5625,20.046875 L13.5625,15.765625 L7.125,15.765625 L7.3125,15.078125 L13.5625,15.078125 L13.5625,12.234375 C13.5625,6.671875 12.4375,1.734375 6.3125,-1.4375 L6.578125,-1.828125 C12.4375,0.546875 14.40625,4.578125 14.953125,9.125 C15.578125,4.609375 17.15625,0.53125 21.4375,-1.921875 C21.640625,-1.015625 22.171875,-0.671875 22.984375,-0.546875 Z M9.4375,13.78125 C9.21875,10.5625 8.25,7.96875 6.75,6.171875 L7.109375,5.875 C8.296875,6.765625 9.234375,8.046875 9.9375,9.625 C10.578125,8.8125 11.234375,7.828125 11.421875,7.03125 C12.640625,6.078125 13.796875,8.421875 10.171875,10.203125 C10.46875,10.984375 10.703125,11.859375 10.890625,12.796875 C11.40625,12.8125 11.640625,13.0625 11.71875,13.375 Z M18.4375,13.828125 C18.265625,10.9375 17.46875,8.5 16.21875,6.796875 L16.5625,6.546875 C17.609375,7.34375 18.4375,8.46875 19.0625,9.859375 C19.9375,8.96875 20.90625,7.75 21.1875,6.796875 C22.625,5.78125 23.71875,8.65625 19.25,10.3125 C19.5625,11.09375 19.796875,11.921875 19.984375,12.8125 C20.515625,12.84375 20.734375,13.078125 20.828125,13.390625 Z" transform="translate(-0.2578125, 20.109375) scale(1, -1)"/>
</svg>