<svg height="22.78125" viewBox="0 0 24 22.78125" width="24" xmlns="http://www.w3.org/2000/svg">
<path d="M12.125,3.84375 C10.515625,1.578125 8.296875,-0.390625 6.4375,-1.515625 L6.625,-1.875 C8.828125,-1.125 11.25,0.3125 13.15625,2.234375 C13.6875,2.0625 13.875,2.109375 14.09375,2.328125 Z M16.4375,3.578125 L16.171875,3.34375 C17.953125,2.140625 20.375,-0.046875 21.21875,-1.703125 C23.203125,-2.6875 23.90625,1.34375 16.4375,3.578125 Z M9.578125,18.75 L9.578125,4.96875 L6.75,4.96875 L6.9375,4.265625 L22.6875,4.265625 C22.984375,4.265625 23.203125,4.390625 23.28125,4.65625 C22.609375,5.328125 21.484375,6.234375 21.484375,6.234375 L20.546875,4.96875 L20.203125,4.96875 L20.203125,17.734375 C20.6875,17.859375 21.09375,18.046875 21.265625,18.21875 L19.375,19.734375 L18.4375,18.75 L11.40625,18.75 L9.578125,19.515625 Z M11.09375,4.96875 L11.09375,7.75 L18.671875,7.75 L18.671875,4.96875 Z M11.09375,14.640625 L18.671875,14.640625 L18.671875,11.921875 L11.09375,11.921875 Z M11.09375,15.34375 L11.09375,18.046875 L18.671875,18.046875 L18.671875,15.34375 Z M11.09375,11.203125 L18.671875,11.203125 L18.671875,8.46875 L11.09375,8.46875 Z M6.09375,20.09375 C4.890625,15.546875 2.78125,11.015625 0.765625,8.15625 L1.109375,7.921875 C2.140625,8.921875 3.125,10.15625 4.03125,11.515625 L4.03125,-1.875 L4.3125,-1.875 C4.921875,-1.875 5.59375,-1.46875 5.609375,-1.34375 L5.609375,12.984375 C6.03125,13.03125 6.234375,13.203125 6.3125,13.421875 L5.375,13.78125 C6.234375,15.34375 7.015625,17.0625 7.65625,18.84375 C8.1875,18.8125 8.46875,19.03125 8.59375,19.3125 Z" transform="translate(-0.3359375, 20.09375) scale(1, -1)"/>
</svg>