<svg height="21.96875" viewBox="0 0 24 21.96875" width="24" xmlns="http://www.w3.org/2000/svg">
<path d="M9.03125,19.296875 L8.734375,19.15625 C9.40625,18.265625 10.109375,16.796875 10.171875,15.640625 C11.546875,14.40625 13.125,17.28125 9.03125,19.296875 Z M18.140625,19.375 C17.71875,17.875 17.109375,16.25 16.625,15.234375 L16.96875,15.046875 C17.875,15.796875 18.859375,16.9375 19.6875,18.046875 C20.15625,18.03125 20.46875,18.21875 20.5625,18.453125 Z M13.625,20.09375 C13.4375,18.265625 13.078125,16.421875 12.53125,14.609375 L7.703125,14.609375 L7.890625,13.890625 L12.3125,13.890625 C11.953125,12.859375 11.546875,11.859375 11.046875,10.890625 L6.71875,10.890625 L6.90625,10.203125 L10.65625,10.203125 C9.53125,8.234375 8.0625,6.484375 6.125,5.109375 L6.390625,4.796875 C7.84375,5.609375 9.078125,6.578125 10.125,7.6875 L10.25,7.265625 L16.984375,7.265625 L16.984375,4.421875 L11.71875,4.421875 L9.9375,5.1875 L9.9375,0.03125 C9.9375,-1.171875 10.3125,-1.484375 12.453125,-1.484375 L15.859375,-1.484375 C20.5,-1.484375 21.28125,-1.203125 21.28125,-0.484375 C21.28125,-0.1875 21.125,0 20.59375,0.140625 L20.515625,2.78125 L20.203125,2.78125 C19.9375,1.578125 19.734375,0.625 19.53125,0.234375 C19.421875,0.03125 19.3125,-0.046875 18.953125,-0.078125 C18.546875,-0.09375 17.375,-0.125 15.90625,-0.125 L12.625,-0.125 C11.515625,-0.125 11.40625,-0.046875 11.40625,0.3125 L11.40625,3.71875 L16.984375,3.71875 L16.984375,2.90625 L17.234375,2.90625 C17.71875,2.90625 18.5,3.171875 18.53125,3.3125 L18.53125,7.078125 C18.859375,7.15625 19.171875,7.265625 19.3125,7.421875 C20.0625,6.625 20.921875,5.859375 21.953125,5.203125 C22.15625,6.046875 22.609375,6.28125 23.359375,6.40625 L23.421875,6.671875 C21.40625,7.734375 19.890625,8.96875 18.75,10.203125 L22.703125,10.203125 C23.015625,10.203125 23.25,10.3125 23.328125,10.5625 C22.53125,11.296875 21.28125,12.28125 21.28125,12.28125 L20.15625,10.890625 L18.140625,10.890625 C17.28125,11.96875 16.6875,13.015625 16.265625,13.890625 L21.53125,13.890625 C21.859375,13.890625 22.078125,14.015625 22.15625,14.28125 C21.390625,15 20.109375,15.984375 20.109375,15.984375 L19.03125,14.609375 L14.140625,14.609375 C14.640625,16.125 15.03125,17.640625 15.28125,19.125 C15.953125,19.15625 16.171875,19.3125 16.25,19.625 Z M18.984375,7.828125 L17.609375,8.859375 L16.78125,7.984375 L10.390625,7.984375 C11.015625,8.6875 11.5625,9.4375 12.046875,10.203125 L17.328125,10.203125 C17.78125,9.40625 18.3125,8.59375 18.984375,7.828125 Z M13.875,13.890625 L15.75,13.890625 C16.03125,13.0625 16.390625,12 16.96875,10.890625 L12.484375,10.890625 C13.03125,11.859375 13.484375,12.859375 13.875,13.890625 Z M6.046875,20.09375 C4.84375,15.546875 2.734375,11.015625 0.71875,8.15625 L1.0625,7.921875 C2.109375,8.953125 3.09375,10.171875 4.03125,11.59375 L4.03125,-1.875 L4.3125,-1.875 C4.921875,-1.875 5.59375,-1.46875 5.609375,-1.34375 L5.609375,12.984375 C6.03125,13.03125 6.234375,13.203125 6.3125,13.421875 L5.359375,13.78125 C6.1875,15.359375 6.953125,17.0625 7.609375,18.84375 C8.140625,18.8125 8.421875,19.03125 8.546875,19.296875 Z" transform="translate(-0.0703125, 20.09375) scale(1, -1)"/>
</svg>