<svg height="22.734375" viewBox="0 0 24 22.734375" width="24" xmlns="http://www.w3.org/2000/svg">
<path d="M7.125,5.015625 L7.3125,4.296875 L22.65625,4.296875 C22.984375,4.296875 23.1875,4.421875 23.25,4.6875 C22.46875,5.421875 21.1875,6.40625 21.1875,6.40625 L20.0625,5.015625 Z M12.1875,3.59375 C10.53125,1.46875 8.296875,-0.40625 6.4375,-1.484375 L6.59375,-1.84375 C8.78125,-1.125 11.359375,0.265625 13.25,2.09375 C13.734375,1.921875 13.96875,2.015625 14.140625,2.234375 Z M16.75,3.390625 L16.5625,3.140625 C18.28125,1.984375 20.640625,-0.078125 21.484375,-1.65625 C23.515625,-2.640625 24.171875,1.421875 16.75,3.390625 Z M18.90625,14.515625 L18.90625,11.59375 L11.28125,11.59375 L11.28125,14.515625 Z M18.90625,15.1875 L11.28125,15.1875 L11.28125,18.078125 L18.90625,18.078125 Z M18.90625,10.875 L18.90625,7.984375 L11.28125,7.984375 L11.28125,10.875 Z M9.71875,18.75 L9.71875,6 L9.984375,6 C10.65625,6 11.28125,6.390625 11.28125,6.546875 L11.28125,7.296875 L18.90625,7.296875 L18.90625,6.359375 L19.15625,6.359375 C19.703125,6.359375 20.46875,6.796875 20.5,6.953125 L20.5,17.765625 C20.96875,17.859375 21.359375,18.046875 21.5,18.234375 L19.578125,19.75 L18.671875,18.75 L11.40625,18.75 L9.71875,19.53125 Z M6.171875,20.09375 C4.9375,15.546875 2.828125,10.984375 0.796875,8.15625 L1.125,7.921875 C2.1875,8.921875 3.171875,10.171875 4.109375,11.59375 L4.109375,-1.84375 L4.390625,-1.84375 C5.015625,-1.84375 5.65625,-1.46875 5.6875,-1.3125 L5.6875,12.953125 C6.09375,13.015625 6.34375,13.171875 6.40625,13.390625 L5.421875,13.75 C6.28125,15.34375 7.0625,17.0625 7.703125,18.84375 C8.25,18.8125 8.546875,19.03125 8.65625,19.3125 Z" transform="translate(-0.484375, 20.09375) scale(1, -1)"/>
</svg>