<svg height="21.96875" viewBox="0 0 24 21.96875" width="24" xmlns="http://www.w3.org/2000/svg">
<path d="M9.34375,12.28125 L9.34375,7.078125 L9.578125,7.078125 C10.203125,7.078125 10.890625,7.421875 10.890625,7.5625 L10.890625,8.328125 L18.953125,8.328125 L18.953125,7.375 L19.171875,7.375 C19.703125,7.375 20.46875,7.734375 20.5,7.875 L20.5,11.296875 C20.953125,11.40625 21.359375,11.59375 21.5,11.78125 L19.5625,13.21875 L18.71875,12.28125 L11.015625,12.28125 L9.34375,13.03125 Z M18.953125,9.03125 L10.890625,9.03125 L10.890625,11.59375 L18.953125,11.59375 Z M18.078125,17.140625 L18.078125,14.65625 L13.421875,14.65625 L14.09375,17.140625 Z M7.109375,14.65625 L7.296875,13.9375 L22.625,13.9375 C22.96875,13.9375 23.1875,14.0625 23.234375,14.328125 C22.53125,15.046875 21.390625,15.953125 21.390625,15.953125 L20.328125,14.65625 L19.625,14.65625 L19.625,16.84375 C20.0625,16.9375 20.46875,17.140625 20.640625,17.328125 L18.75,18.765625 L17.859375,17.859375 L14.296875,17.859375 L14.640625,19.15625 C15.125,19.171875 15.40625,19.421875 15.484375,19.734375 L13.25,20.09375 L12.71875,17.859375 L8.859375,17.859375 L9.078125,17.140625 L12.53125,17.140625 L11.875,14.65625 Z M15.140625,7.796875 L15.140625,5.71875 L10.984375,5.71875 L9.140625,6.5 L9.140625,2.25 L6.71875,2.25 L6.90625,1.5625 L15.140625,1.5625 L15.140625,-1.84375 L15.453125,-1.84375 C16.03125,-1.84375 16.734375,-1.53125 16.734375,-1.375 L16.734375,1.5625 L22.5625,1.5625 C22.890625,1.5625 23.109375,1.6875 23.15625,1.9375 C22.4375,2.609375 21.234375,3.578125 21.234375,3.578125 L20.15625,2.25 L16.734375,2.25 L16.734375,5.015625 L21.59375,5.015625 C21.9375,5.015625 22.15625,5.140625 22.21875,5.40625 C21.5,6.078125 20.296875,7.015625 20.296875,7.015625 L19.296875,5.71875 L16.734375,5.71875 L16.734375,7.03125 C17.1875,7.109375 17.359375,7.265625 17.40625,7.53125 Z M10.703125,2.25 L10.703125,5.015625 L15.140625,5.015625 L15.140625,2.25 Z M6.09375,20.09375 C4.890625,15.546875 2.78125,11.015625 0.765625,8.15625 L1.109375,7.921875 C2.140625,8.921875 3.125,10.15625 4.03125,11.515625 L4.03125,-1.875 L4.3125,-1.875 C4.921875,-1.875 5.59375,-1.46875 5.609375,-1.34375 L5.609375,12.984375 C6.03125,13.03125 6.234375,13.203125 6.3125,13.421875 L5.375,13.78125 C6.234375,15.34375 7.015625,17.0625 7.65625,18.84375 C8.1875,18.8125 8.46875,19.03125 8.59375,19.3125 Z" transform="translate(0, 20.09375) scale(1, -1)"/>
</svg>