<svg height="21.984375" viewBox="0 0 24 21.984375" width="24" xmlns="http://www.w3.org/2000/svg">
<path d="M7.78125,18.3125 L7.96875,17.640625 L22.3125,17.640625 C22.65625,17.640625 22.890625,17.765625 22.9375,18.03125 C22.15625,18.75 20.859375,19.78125 20.859375,19.78125 L19.703125,18.3125 Z M19.578125,14.609375 L19.578125,11.6875 L10.203125,11.6875 L10.203125,12.1875 L10.203125,14.609375 Z M8.6875,15.28125 L8.6875,12.171875 C8.6875,8.1875 8.359375,3.484375 5.8125,-0.484375 L6.171875,-0.75 C7.875,1.015625 8.859375,3.125 9.4375,5.25 L9.4375,-1.875 L9.671875,-1.875 C10.265625,-1.875 10.828125,-1.53125 10.828125,-1.390625 L10.828125,3.578125 L13.109375,3.578125 L13.109375,-1.46875 L13.296875,-1.46875 C13.9375,-1.46875 14.40625,-1.15625 14.40625,-1.0625 L14.40625,3.578125 L16.6875,3.578125 L16.6875,-1.46875 L16.875,-1.46875 C17.5625,-1.46875 18.03125,-1.15625 18.03125,-1.0625 L18.03125,3.578125 L20.375,3.578125 L20.375,0.3125 C20.375,0.03125 20.296875,-0.09375 20.015625,-0.09375 C19.703125,-0.09375 18.59375,-0.03125 18.59375,-0.03125 L18.59375,-0.359375 C19.203125,-0.484375 19.515625,-0.625 19.703125,-0.84375 C19.890625,-1.078125 19.9375,-1.46875 19.984375,-1.875 C21.640625,-1.703125 21.859375,-1.03125 21.859375,0.140625 L21.859375,7.625 C22.34375,7.703125 22.75,7.921875 22.890625,8.09375 L20.90625,9.546875 L20.140625,8.609375 L10.9375,8.609375 L10.078125,9.03125 C10.125,9.703125 10.171875,10.375 10.171875,10.96875 L19.578125,10.96875 L19.578125,10.125 L19.796875,10.125 C20.296875,10.125 21.09375,10.4375 21.125,10.609375 L21.125,14.328125 C21.578125,14.421875 21.953125,14.609375 22.125,14.8125 L20.203125,16.25 L19.34375,15.3125 L10.4375,15.3125 L8.6875,16.078125 Z M10.828125,4.265625 L10.828125,7.921875 L13.109375,7.921875 L13.109375,4.265625 Z M14.40625,4.265625 L14.40625,7.921875 L16.6875,7.921875 L16.6875,4.265625 Z M18.03125,4.265625 L18.03125,7.921875 L20.375,7.921875 L20.375,4.265625 Z M5.421875,20.109375 C4.4375,15.59375 2.65625,10.9375 0.859375,7.96875 L1.21875,7.734375 C2.109375,8.734375 2.96875,9.9375 3.75,11.28125 L3.75,-1.875 L4.015625,-1.875 C4.578125,-1.875 5.203125,-1.484375 5.234375,-1.375 L5.234375,12.953125 C5.65625,13.015625 5.875,13.171875 5.953125,13.390625 L5.015625,13.734375 C5.78125,15.359375 6.453125,17.109375 7.015625,18.890625 C7.5625,18.859375 7.828125,19.078125 7.921875,19.390625 Z" transform="translate(0.1015625, 20.109375) scale(1, -1)"/>
</svg>