<svg height="22" viewBox="0 0 24 22" width="24" xmlns="http://www.w3.org/2000/svg">
<path d="M7.390625,18.671875 L7.390625,-1.84375 L7.65625,-1.84375 C8.40625,-1.84375 8.90625,-1.4375 8.90625,-1.21875 L8.90625,3.53125 L13.609375,3.53125 C13.9375,3.53125 14.15625,3.640625 14.234375,3.90625 C13.53125,4.609375 12.359375,5.546875 12.359375,5.546875 L11.359375,4.203125 L8.90625,4.203125 L8.90625,8.0625 L13.515625,8.0625 C13.84375,8.0625 14.046875,8.1875 14.109375,8.453125 C13.46875,9.140625 12.3125,10.0625 12.3125,10.0625 L11.328125,8.765625 L8.90625,8.765625 L8.90625,12.578125 L12.703125,12.578125 L12.703125,11.328125 L12.953125,11.328125 C13.484375,11.328125 14.28125,11.6875 14.296875,11.828125 L14.296875,17.734375 C14.734375,17.828125 15.09375,18 15.21875,18.171875 L13.34375,19.609375 L12.484375,18.671875 L9.03125,18.671875 L7.390625,19.46875 Z M12.703125,13.265625 L8.90625,13.265625 L8.90625,18.03125 L12.703125,18.03125 Z M15.40625,13.125 L15.625,12.4375 L20.203125,12.4375 L20.203125,11.328125 L20.453125,11.328125 C21,11.328125 21.8125,11.6875 21.84375,11.859375 L21.84375,17.734375 C22.265625,17.828125 22.625,18 22.75,18.171875 L20.859375,19.625 L19.984375,18.671875 L15.4375,18.671875 L15.640625,17.96875 L20.203125,17.96875 L20.203125,13.125 Z M20.421875,8.859375 C19.984375,6.984375 19.296875,5.28125 18.3125,3.75 C17.296875,5.203125 16.53125,6.90625 16.078125,8.859375 Z M14.359375,9.578125 L14.5625,8.859375 L15.578125,8.859375 C15.984375,6.5 16.625,4.46875 17.59375,2.734375 C16.25,1.0625 14.453125,-0.359375 12.125,-1.4375 L12.34375,-1.796875 C14.828125,-0.90625 16.734375,0.28125 18.1875,1.734375 C19.15625,0.265625 20.359375,-0.9375 21.8125,-1.890625 C22.078125,-1.21875 22.609375,-0.765625 23.234375,-0.71875 L23.28125,-0.5 C21.671875,0.265625 20.25,1.375 19.078125,2.734375 C20.5,4.4375 21.40625,6.453125 22.03125,8.6875 C22.5625,8.734375 22.828125,8.78125 22.984375,8.96875 L21.28125,10.515625 L20.328125,9.578125 Z M4.78125,20.109375 C3.890625,15.796875 2.359375,11.25 0.765625,8.296875 L1.109375,8.0625 C1.890625,9.046875 2.640625,10.21875 3.34375,11.5 L3.34375,-1.875 L3.59375,-1.875 C4.15625,-1.875 4.796875,-1.484375 4.828125,-1.375 L4.828125,12.953125 C5.234375,13.015625 5.46875,13.171875 5.546875,13.390625 L4.46875,13.78125 C5.1875,15.40625 5.8125,17.15625 6.3125,18.90625 C6.84375,18.90625 7.125,19.125 7.203125,19.421875 Z" transform="translate(-0.0234375, 20.109375) scale(1, -1)"/>
</svg>