<svg height="21.984375" viewBox="0 0 24 21.984375" width="24" xmlns="http://www.w3.org/2000/svg">
<path d="M10.484375,4.828125 L10.6875,4.125 L15.171875,4.125 L15.171875,0.84375 L15.484375,0.84375 C16.03125,0.84375 16.6875,1.203125 16.6875,1.421875 L16.6875,4.125 L22.15625,4.125 C22.484375,4.125 22.734375,4.21875 22.796875,4.484375 C22.03125,5.203125 20.8125,6.140625 20.8125,6.140625 L19.75,4.828125 L16.6875,4.828125 L16.6875,7.3125 L21.171875,7.3125 C21.5,7.3125 21.71875,7.4375 21.765625,7.703125 C21.046875,8.40625 19.875,9.3125 19.875,9.3125 L18.859375,8.046875 L16.6875,8.046875 L16.6875,10.515625 L19.46875,10.515625 L19.46875,10.015625 L19.6875,10.015625 C20.140625,10.015625 20.859375,10.34375 20.875,10.484375 L20.875,13.75 L22.828125,13.75 C23.15625,13.75 23.359375,13.875 23.421875,14.140625 C22.828125,14.8125 21.796875,15.703125 21.796875,15.703125 L20.953125,14.453125 L20.875,14.453125 L20.875,16.625 C21.359375,16.734375 21.71875,16.890625 21.890625,17.09375 L20.046875,18.484375 L19.25,17.609375 L16.6875,17.609375 L16.6875,19.15625 C17.28125,19.25 17.46875,19.484375 17.546875,19.828125 L15.171875,20.09375 L15.171875,17.609375 L11.859375,17.609375 L12.078125,16.890625 L15.171875,16.890625 L15.171875,14.453125 L10.421875,14.453125 L10.578125,13.75 L15.171875,13.75 L15.171875,11.234375 L11.8125,11.234375 L12.03125,10.515625 L15.171875,10.515625 L15.171875,8.046875 L11.328125,8.046875 L11.515625,7.3125 L15.171875,7.3125 L15.171875,4.828125 Z M16.6875,16.890625 L19.46875,16.890625 L19.46875,14.453125 L16.6875,14.453125 Z M16.6875,11.234375 L16.6875,13.75 L19.46875,13.75 L19.46875,11.234375 Z M7.75,7.75 L8.328125,8.65625 L7.46875,8.875 L7.3125,7.890625 C6.765625,7.25 5.765625,6.234375 5.1875,5.734375 L6.453125,4.515625 C6.578125,4.65625 6.625,4.84375 6.484375,5.046875 C6.765625,5.546875 7.15625,6.40625 7.46875,7.078125 C7.734375,5.8125 8.015625,4.703125 8.375,3.765625 C7.703125,1.78125 6.703125,-0.046875 5.140625,-1.53125 L5.40625,-1.875 C7.03125,-0.671875 8.1875,0.796875 9,2.375 C10.578125,-0.53125 12.953125,-1.21875 16.625,-1.21875 C18,-1.21875 20.875,-1.21875 22.109375,-1.21875 C22.15625,-0.578125 22.46875,-0.046875 23.0625,0.046875 L23.0625,0.390625 C21.5,0.34375 18.21875,0.34375 16.75,0.34375 C13.265625,0.34375 10.96875,0.84375 9.40625,3.234375 C10.390625,5.515625 10.796875,7.984375 11.046875,10.421875 C11.515625,10.46875 11.765625,10.53125 11.921875,10.75 L10.296875,12.21875 L9.390625,11.296875 L8.046875,11.296875 C8.859375,13.296875 9.71875,15.578125 10.21875,16.9375 C10.734375,16.984375 11.1875,17.09375 11.359375,17.28125 L9.578125,18.8125 L8.765625,17.953125 L6.21875,17.953125 L6.4375,17.234375 L8.765625,17.234375 C8.0625,15.140625 6.90625,12.140625 5.875,9.796875 C6.53125,9.546875 6.984375,9.53125 7.34375,9.671875 L7.75,10.609375 L9.578125,10.609375 C9.4375,8.609375 9.1875,6.59375 8.65625,4.703125 C8.296875,5.546875 7.984375,6.53125 7.734375,7.703125 Z M4.78125,20.109375 C3.890625,15.765625 2.328125,11.203125 0.75,8.234375 L1.078125,8.015625 C1.890625,9.03125 2.640625,10.203125 3.34375,11.5 L3.34375,-1.84375 L3.59375,-1.84375 C4.15625,-1.84375 4.796875,-1.46875 4.828125,-1.34375 L4.828125,12.9375 C5.234375,12.984375 5.46875,13.15625 5.546875,13.375 L4.4375,13.78125 C5.15625,15.40625 5.78125,17.140625 6.28125,18.90625 C6.8125,18.90625 7.109375,19.109375 7.171875,19.421875 Z" transform="translate(-0.0859375, 20.109375) scale(1, -1)"/>
</svg>