<svg height="21.953125" viewBox="0 0 24 21.953125" width="24" xmlns="http://www.w3.org/2000/svg">
<path d="M11.546875,4.78125 L11.203125,4.65625 C11.59375,3.546875 11.828125,1.875 11.546875,0.53125 C12.71875,-0.953125 14.609375,1.9375 11.546875,4.78125 Z M13.828125,5.09375 L13.53125,4.9375 C14.25,4.078125 14.953125,2.640625 14.921875,1.515625 C16.25,0.3125 17.71875,3.28125 13.828125,5.09375 Z M9.265625,19.890625 L8.96875,19.75 C9.703125,18.8125 10.421875,17.359375 10.4375,16.171875 C11.828125,14.859375 13.46875,17.921875 9.265625,19.890625 Z M16.484375,5.609375 L16.203125,5.421875 C16.9375,4.75 17.8125,3.625 18.03125,2.71875 C19.390625,1.828125 20.40625,4.53125 16.484375,5.609375 Z M9.28125,4.6875 C9.21875,3.1875 8.359375,1.625 7.53125,1.03125 C7.125,0.703125 6.890625,0.171875 7.125,-0.265625 C7.4375,-0.71875 8.28125,-0.546875 8.765625,-0.078125 C9.484375,0.640625 10.203125,2.328125 9.71875,4.65625 Z M14.296875,20.109375 C13.984375,18.546875 13.578125,16.921875 13.03125,15.265625 L7.6875,15.265625 L7.890625,14.5625 L12.796875,14.5625 C11.328125,10.46875 9.03125,6.359375 5.71875,3.453125 L5.96875,3.171875 C7.421875,4.171875 8.6875,5.359375 9.796875,6.640625 L20.875,6.640625 C20.65625,3.078125 20.234375,0.84375 19.65625,0.359375 C19.46875,0.171875 19.25,0.125 18.84375,0.125 C18.359375,0.125 16.890625,0.265625 16.078125,0.3125 L16.078125,-0.09375 C16.84375,-0.21875 17.65625,-0.40625 17.953125,-0.640625 C18.234375,-0.890625 18.34375,-1.3125 18.34375,-1.78125 C19.25,-1.78125 20.0625,-1.53125 20.65625,-1.03125 C21.625,-0.234375 22.203125,2.234375 22.4375,6.453125 C22.921875,6.5 23.1875,6.625 23.359375,6.8125 L21.578125,8.28125 L20.6875,7.34375 L20.640625,7.34375 L21.09375,10.46875 C21.484375,10.484375 21.671875,10.53125 21.84375,10.703125 L20.296875,12.046875 L19.5625,11.28125 L18.890625,11.28125 L19.421875,14.453125 C19.78125,14.46875 19.984375,14.546875 20.140625,14.71875 L18.578125,16.0625 L17.828125,15.265625 L14.71875,15.265625 C15.21875,16.5625 15.59375,17.828125 15.90625,19.0625 C16.5625,19.0625 16.796875,19.21875 16.875,19.515625 Z M14.453125,14.5625 L17.921875,14.5625 L17.375,11.28125 L12.9375,11.28125 C13.515625,12.359375 14.015625,13.46875 14.453125,14.5625 Z M12.53125,10.5625 L19.625,10.5625 L19.15625,7.34375 L10.375,7.34375 C11.1875,8.375 11.90625,9.453125 12.53125,10.5625 Z M6.234375,20.09375 C4.984375,15.53125 2.859375,10.9375 0.8125,8.09375 L1.15625,7.828125 C2.1875,8.828125 3.140625,10.03125 4.0625,11.40625 L4.0625,-1.84375 L4.34375,-1.84375 C4.9375,-1.84375 5.59375,-1.4375 5.609375,-1.3125 L5.609375,12.984375 C6.03125,13.03125 6.265625,13.203125 6.34375,13.421875 L5.46875,13.734375 C6.359375,15.34375 7.125,17.046875 7.796875,18.84375 C8.328125,18.796875 8.609375,19.03125 8.71875,19.296875 Z" transform="translate(-0.0859375, 20.109375) scale(1, -1)"/>
</svg>