<svg height="21.96875" viewBox="0 0 24 21.96875" width="24" xmlns="http://www.w3.org/2000/svg">
<path d="M7.609375,17.046875 L7.78125,16.375 L11.453125,16.375 L11.453125,14.140625 L11.6875,14.140625 C12.390625,14.140625 12.90625,14.375 12.90625,14.515625 L12.90625,16.375 L16.921875,16.375 L16.921875,14.1875 L17.1875,14.1875 C18.03125,14.203125 18.40625,14.5 18.40625,14.609375 L18.40625,16.375 L22.3125,16.375 C22.65625,16.375 22.875,16.484375 22.9375,16.75 C22.21875,17.40625 21.078125,18.3125 21.078125,18.3125 L20.0625,17.046875 L18.40625,17.046875 L18.40625,19.171875 C18.953125,19.25 19.171875,19.484375 19.203125,19.828125 L16.921875,20.046875 L16.921875,17.046875 L12.90625,17.046875 L12.90625,19.171875 C13.46875,19.25 13.6875,19.484375 13.703125,19.828125 L11.453125,20.046875 L11.453125,17.046875 Z M8.921875,13.484375 L8.921875,7.578125 L9.171875,7.578125 C9.796875,7.578125 10.484375,7.9375 10.484375,8.09375 L10.484375,8.6875 L14.15625,8.6875 L14.15625,6.171875 L8.140625,6.171875 L8.328125,5.5 L14.15625,5.5 L14.15625,2.953125 L8.828125,2.953125 L9,2.25 L14.15625,2.25 L14.15625,-0.5 L7.203125,-0.5 L7.375,-1.203125 L22.53125,-1.203125 C22.890625,-1.203125 23.140625,-1.078125 23.1875,-0.8125 C22.34375,-0.078125 21,1.015625 21,1.015625 L19.828125,-0.5 L15.71875,-0.5 L15.71875,2.25 L21.28125,2.25 C21.625,2.25 21.84375,2.375 21.90625,2.609375 C21.140625,3.3125 19.9375,4.203125 19.9375,4.203125 L18.890625,2.953125 L15.71875,2.953125 L15.71875,5.5 L21.859375,5.5 C22.203125,5.5 22.4375,5.59375 22.484375,5.859375 C21.71875,6.546875 20.5,7.4375 20.5,7.4375 L19.4375,6.171875 L15.71875,6.171875 L15.71875,8.6875 L19.5625,8.6875 L19.5625,7.78125 L19.78125,7.78125 C20.328125,7.78125 21.09375,8.15625 21.125,8.359375 L21.125,12.546875 C21.546875,12.625 21.890625,12.8125 22.015625,12.984375 L20.1875,14.40625 L19.34375,13.484375 L10.625,13.484375 L8.921875,14.234375 Z M14.15625,9.390625 L10.484375,9.390625 L10.484375,12.765625 L14.15625,12.765625 Z M15.71875,9.390625 L15.71875,12.765625 L19.5625,12.765625 L19.5625,9.390625 Z M6.09375,20.09375 C4.890625,15.546875 2.78125,11.015625 0.765625,8.15625 L1.109375,7.921875 C2.15625,8.953125 3.171875,10.203125 4.109375,11.640625 L4.109375,-1.875 L4.390625,-1.875 C4.984375,-1.875 5.65625,-1.46875 5.6875,-1.34375 L5.6875,12.984375 C6.09375,13.03125 6.3125,13.203125 6.390625,13.421875 L5.40625,13.78125 C6.234375,15.359375 7.015625,17.0625 7.65625,18.84375 C8.1875,18.8125 8.46875,19.03125 8.59375,19.3125 Z" transform="translate(0.0234375, 20.09375) scale(1, -1)"/>
</svg>