<svg height="22.0625" viewBox="0 0 24 22.0625" width="24" xmlns="http://www.w3.org/2000/svg">
<path d="M10.3125,20.046875 L10.078125,19.875 C10.875,19.0625 11.875,17.6875 12.09375,16.609375 C13.703125,15.484375 14.953125,18.703125 10.3125,20.046875 Z M19.21875,6.28125 L19.21875,3.703125 L11.015625,3.703125 L11.015625,6.28125 Z M9.453125,7.015625 L9.453125,-1.828125 L9.71875,-1.828125 C10.375,-1.828125 11.015625,-1.46875 11.015625,-1.3125 L11.015625,-0.53125 L19.21875,-0.53125 L19.21875,-1.75 L19.46875,-1.75 C19.96875,-1.75 20.765625,-1.390625 20.78125,-1.25 L20.78125,6.046875 C21.21875,6.125 21.578125,6.34375 21.703125,6.5 L19.828125,7.921875 L19.015625,7.015625 L11.140625,7.015625 L9.453125,7.75 Z M11.015625,2.96875 L19.21875,2.96875 L19.21875,0.1875 L11.015625,0.1875 Z M20.46875,15.625 L20.46875,13.03125 L15.765625,13.03125 L15.765625,15.625 Z M18.03125,20.1875 C17.609375,19.078125 16.96875,17.515625 16.46875,16.34375 L9.8125,16.34375 L8.140625,17.09375 L8.140625,7.578125 L8.40625,7.578125 C9.03125,7.578125 9.703125,7.9375 9.703125,8.09375 L9.703125,8.953125 L20.46875,8.953125 L20.46875,8.015625 L20.71875,8.015625 C21.21875,8.015625 22.015625,8.359375 22.03125,8.515625 L22.03125,15.34375 C22.484375,15.4375 22.875,15.625 23.046875,15.8125 L21.09375,17.28125 L20.234375,16.34375 L17.1875,16.34375 C18.09375,17.1875 19.0625,18.171875 19.6875,18.90625 C20.1875,18.84375 20.5,19.0625 20.609375,19.3125 Z M9.703125,12.3125 L14.234375,12.3125 L14.234375,9.671875 L9.703125,9.671875 Z M9.703125,13.03125 L9.703125,15.625 L14.234375,15.625 L14.234375,13.03125 Z M20.46875,12.3125 L20.46875,9.671875 L15.765625,9.671875 L15.765625,12.3125 Z M5.96875,20.09375 C4.78125,15.546875 2.6875,11.015625 0.640625,8.15625 L0.984375,7.921875 C2.015625,8.921875 3,10.15625 3.90625,11.515625 L3.90625,-1.875 L4.203125,-1.875 C4.796875,-1.875 5.46875,-1.46875 5.5,-1.34375 L5.5,12.984375 C5.921875,13.03125 6.125,13.203125 6.1875,13.421875 L5.25,13.78125 C6.125,15.34375 6.890625,17.0625 7.53125,18.84375 C8.0625,18.8125 8.375,19.03125 8.46875,19.3125 Z" transform="translate(0.15625, 20.1875) scale(1, -1)"/>
</svg>