<svg height="21.71875" viewBox="0 0 24 21.71875" width="24" xmlns="http://www.w3.org/2000/svg">
<path d="M16.734375,19.515625 L14.296875,19.796875 L14.296875,1.125 C14.296875,-0.265625 14.78125,-0.75 16.625,-0.75 L18.8125,-0.75 C22.25,-0.75 23.09375,-0.453125 23.09375,0.28125 C23.09375,0.59375 22.9375,0.8125 22.375,1.015625 L22.296875,5.203125 L21.984375,5.203125 C21.671875,3.484375 21.359375,1.609375 21.1875,1.171875 C21.078125,0.953125 20.953125,0.859375 20.71875,0.84375 C20.421875,0.796875 19.78125,0.765625 18.8125,0.765625 L16.9375,0.765625 C16.03125,0.765625 15.890625,1.015625 15.890625,1.5625 L15.890625,18.859375 C16.46875,18.953125 16.703125,19.203125 16.734375,19.515625 Z M9.28125,19.515625 L6.859375,19.75 L6.859375,10.484375 C6.859375,5.421875 5.6875,1.25 0.796875,-1.578125 L1.0625,-1.921875 C7.015625,0.703125 8.421875,5.203125 8.453125,10.484375 L8.453125,18.84375 C9.046875,18.9375 9.234375,19.171875 9.28125,19.515625 Z" transform="translate(0.0546875, 19.796875) scale(1, -1)"/>
</svg>