<svg height="22.0625" viewBox="0 0 24 22.0625" width="24" xmlns="http://www.w3.org/2000/svg">
<path d="M15.984375,6.40625 L15.75,6.21875 C16.78125,5.328125 18.09375,3.765625 18.4375,2.5625 C19.984375,1.484375 21.078125,4.75 15.984375,6.40625 Z M18.484375,13.703125 L18.484375,8.59375 L12.703125,8.59375 L12.703125,13.703125 Z M19.375,20.140625 C15.53125,18.984375 8.25,17.78125 2.328125,17.375 L2.375,16.890625 C5.25,16.921875 8.296875,17.109375 11.15625,17.375 L11.15625,14.40625 L5.65625,14.40625 L3.953125,15.1875 L3.953125,6.546875 L4.171875,6.546875 C4.84375,6.546875 5.515625,6.90625 5.515625,7.078125 L5.515625,7.875 L8.59375,7.875 C8.09375,3.21875 6.21875,0.453125 1.109375,-1.53125 L1.25,-1.921875 C7.203125,-0.265625 9.546875,2.546875 10.296875,7.875 L13.125,7.875 L13.125,0.28125 C13.125,-0.9375 13.53125,-1.296875 15.484375,-1.296875 L18.265625,-1.296875 C22.203125,-1.296875 22.9375,-1.03125 22.9375,-0.34375 C22.9375,0 22.828125,0.1875 22.265625,0.359375 L22.21875,3.8125 L21.90625,3.8125 C21.625,2.296875 21.359375,0.90625 21.171875,0.484375 C21.078125,0.234375 20.96875,0.1875 20.65625,0.140625 C20.296875,0.125 19.421875,0.09375 18.28125,0.09375 L15.71875,0.09375 C14.765625,0.09375 14.65625,0.21875 14.65625,0.625 L14.65625,7.875 L18.484375,7.875 L18.484375,6.953125 L18.71875,6.953125 C19.25,6.953125 20.015625,7.3125 20.046875,7.46875 L20.046875,13.421875 C20.546875,13.484375 20.921875,13.703125 21.078125,13.890625 L19.125,15.359375 L18.234375,14.40625 L12.703125,14.40625 L12.703125,17.515625 C15.34375,17.8125 17.78125,18.171875 19.796875,18.546875 C20.40625,18.28125 20.859375,18.28125 21.078125,18.484375 Z M5.515625,8.59375 L5.515625,13.703125 L11.15625,13.703125 L11.15625,8.59375 Z" transform="translate(-0.0234375, 20.140625) scale(1, -1)"/>
</svg>