<svg height="22.140625" viewBox="0 0 24 22.140625" width="24" xmlns="http://www.w3.org/2000/svg">
<path d="M11.1875,7.625 L5.71875,7.625 L5.71875,12.84375 L11.1875,12.84375 Z M12.71875,7.625 L12.71875,12.84375 L18.484375,12.84375 L18.484375,7.625 Z M8.140625,20.203125 C6.75,17.1875 3.9375,13.578125 1.171875,11.59375 L1.46875,11.28125 C2.40625,11.78125 3.3125,12.4375 4.171875,13.125 L4.171875,5.28125 L4.421875,5.28125 C5.1875,5.28125 5.71875,5.734375 5.71875,5.875 L5.71875,6.9375 L8.59375,6.9375 C8.140625,2.5 6.359375,0.171875 1.03125,-1.578125 L1.171875,-1.9375 C7.375,-0.625 9.71875,1.796875 10.34375,6.9375 L13.3125,6.9375 L13.3125,0.171875 C13.3125,-1.0625 13.703125,-1.421875 15.640625,-1.421875 L18.390625,-1.421875 C22.3125,-1.421875 23.0625,-1.125 23.0625,-0.4375 C23.0625,-0.09375 22.921875,0.09375 22.390625,0.265625 L22.3125,3.546875 L22.015625,3.546875 C21.71875,2.109375 21.453125,0.8125 21.265625,0.390625 C21.171875,0.140625 21.09375,0.078125 20.78125,0.046875 C20.421875,0.03125 19.5625,0.03125 18.40625,0.03125 L15.90625,0.03125 C14.96875,0.03125 14.875,0.125 14.875,0.5 L14.875,6.9375 L18.484375,6.9375 L18.484375,5.765625 L18.71875,5.765625 C19.25,5.765625 20.015625,6.125 20.046875,6.28125 L20.046875,12.53125 C20.546875,12.625 20.921875,12.8125 21.078125,13.015625 L19.125,14.5 L18.234375,13.53125 L11.734375,13.53125 C13.078125,14.453125 14.46875,15.84375 15.40625,16.78125 C15.890625,16.796875 16.171875,16.84375 16.375,17.015625 L14.609375,18.59375 L13.65625,17.640625 L8.515625,17.640625 C8.921875,18.171875 9.28125,18.703125 9.59375,19.203125 C10.203125,19.109375 10.421875,19.21875 10.515625,19.46875 Z M13.5625,16.9375 C12.9375,15.890625 11.96875,14.5 11.09375,13.53125 L6,13.53125 L5.09375,13.890625 C6.140625,14.859375 7.125,15.890625 7.96875,16.9375 Z" transform="translate(-0.046875, 20.203125) scale(1, -1)"/>
</svg>