<svg height="22.09375" viewBox="0 0 24 22.09375" width="24" xmlns="http://www.w3.org/2000/svg">
<path d="M15.578125,6.140625 L15.34375,5.921875 C16.484375,5.015625 17.96875,3.359375 18.40625,2.09375 C20.046875,1.0625 21.03125,4.421875 15.578125,6.140625 Z M9.9375,19.53125 L7.53125,20.25 C6.1875,17.234375 3.453125,13.625 0.765625,11.5625 L1.0625,11.28125 C2.109375,11.90625 3.140625,12.671875 4.125,13.53125 L4.125,6.046875 L4.375,6.046875 C5.109375,6.046875 5.640625,6.484375 5.640625,6.640625 L5.640625,7.484375 L10.75,7.484375 C9.90625,3.890625 7.5625,0.90625 0.90625,-1.4375 L1.15625,-1.84375 C8.765625,0.4375 11.359375,3.53125 12.3125,7.484375 L12.640625,7.484375 L12.640625,0.34375 C12.640625,-0.890625 13.078125,-1.25 15.140625,-1.25 L18.140625,-1.25 C22.421875,-1.25 23.1875,-0.984375 23.1875,-0.265625 C23.1875,0.046875 23.046875,0.234375 22.484375,0.40625 L22.421875,3.578125 L22.109375,3.578125 C21.84375,2.1875 21.546875,0.90625 21.390625,0.53125 C21.265625,0.28125 21.171875,0.21875 20.859375,0.1875 C20.453125,0.140625 19.4375,0.140625 18.171875,0.140625 L15.34375,0.140625 C14.28125,0.140625 14.15625,0.234375 14.15625,0.671875 L14.15625,7.484375 L18.640625,7.484375 L18.640625,6.5 L18.890625,6.5 C19.421875,6.5 20.1875,6.859375 20.203125,7.015625 L20.203125,12.8125 C20.6875,12.9375 21.078125,13.109375 21.234375,13.296875 L19.296875,14.78125 L18.40625,13.828125 L12.8125,13.828125 C14.25,14.6875 15.796875,15.953125 16.78125,16.890625 C17.25,16.890625 17.5625,16.96875 17.765625,17.109375 L15.984375,18.75 L14.96875,17.765625 L7.984375,17.765625 C8.375,18.28125 8.71875,18.796875 9.03125,19.296875 C9.625,19.203125 9.84375,19.296875 9.9375,19.53125 Z M4.921875,14.25 C5.828125,15.140625 6.703125,16.078125 7.4375,17.046875 L14.78125,17.046875 C14.109375,16.03125 13.109375,14.71875 12.140625,13.828125 L5.921875,13.828125 Z M5.640625,13.109375 L11.28125,13.109375 C11.234375,11.359375 11.1875,9.71875 10.890625,8.1875 L5.640625,8.1875 Z M12.90625,13.109375 L18.640625,13.109375 L18.640625,8.1875 L12.453125,8.1875 C12.765625,9.703125 12.84375,11.359375 12.90625,13.109375 Z" transform="translate(0.0234375, 20.25) scale(1, -1)"/>
</svg>