<svg height="22.90625" viewBox="0 0 24 22.90625" width="24" xmlns="http://www.w3.org/2000/svg">
<path d="M14.734375,19.828125 L14.328125,19.65625 C15.796875,14.734375 18.4375,10.796875 21.546875,8.546875 C21.8125,9.28125 22.390625,9.796875 23.09375,9.859375 L23.15625,10.125 C19.84375,11.859375 16.421875,15.625 14.734375,19.828125 Z M7.609375,19.421875 C6.21875,14.859375 3.640625,10.875 1.015625,8.5 L1.296875,8.234375 C4.515625,10.265625 7.296875,13.625 9.140625,18.046875 C9.671875,18 9.953125,18.1875 10.078125,18.484375 Z M10.015625,12.140625 C9.234375,8.875 7.796875,4.484375 6.359375,1.21875 C4.6875,1.125 3.28125,1.0625 2.296875,1.03125 L3.21875,-1.203125 C3.453125,-1.15625 3.71875,-0.953125 3.84375,-0.703125 C9.9375,0.125 14.421875,0.859375 17.875,1.5625 C18.5,0.484375 19.03125,-0.546875 19.265625,-1.484375 C21.390625,-3.078125 22.484375,1.96875 14.15625,6.9375 L13.84375,6.75 C15.046875,5.5 16.46875,3.765625 17.5625,2.046875 C13.734375,1.734375 10.015625,1.4375 7.0625,1.265625 C8.953125,4.296875 10.734375,8.140625 11.71875,10.9375 C12.265625,10.9375 12.53125,11.1875 12.59375,11.46875 Z" transform="translate(-0.0859375, 19.828125) scale(1, -1)"/>
</svg>