<svg height="21.5" viewBox="0 0 24 21.5" width="24" xmlns="http://www.w3.org/2000/svg">
<path d="M10.625,18.078125 L5.515625,18.078125 L5.65625,17.375 L11.15625,17.375 L11.15625,15.578125 C10.375,7.171875 6.34375,1.3125 0.984375,-1.53125 L1.25,-1.890625 C6.703125,0.625 10.46875,5.015625 12.03125,11.140625 C13.125,4.984375 17.296875,0.34375 21.328125,-1.890625 C21.703125,-1.015625 22.203125,-0.546875 23.046875,-0.53125 L23.140625,-0.234375 C16.390625,2.515625 12.703125,8.140625 11.90625,15.640625 L11.875,16.796875 C13.109375,16.921875 13.9375,17.1875 14.296875,17.640625 L11.640625,19.609375 Z" transform="translate(-0.0625, 19.609375) scale(1, -1)"/>
</svg>