<svg height="21.265625" viewBox="0 0 24 21.265625" width="24" xmlns="http://www.w3.org/2000/svg">
<path d="M12.578125,18.8125 C14.296875,15.21875 18,11.90625 21.890625,9.84375 C22.0625,10.4375 22.625,10.984375 23.359375,11.140625 L23.40625,11.46875 C19.203125,13.296875 15.1875,15.984375 13.03125,19.109375 C13.625,19.171875 13.921875,19.265625 13.984375,19.5625 L11.140625,20.28125 C9.8125,16.75 4.890625,11.6875 0.84375,9.28125 L1.03125,8.921875 C5.546875,11.140625 10.296875,15.234375 12.578125,18.8125 Z M1.578125,-0.28125 L1.78125,-0.984375 L22.03125,-0.984375 C22.375,-0.984375 22.609375,-0.859375 22.6875,-0.625 C21.8125,0.171875 20.453125,1.21875 20.453125,1.21875 L19.25,-0.28125 L12.75,-0.28125 L12.75,4.84375 L19.609375,4.84375 C19.9375,4.84375 20.15625,4.96875 20.234375,5.234375 C19.421875,5.953125 18.125,6.90625 18.125,6.90625 L16.96875,5.5625 L12.75,5.5625 L12.75,10.109375 L18.71875,10.109375 C19.0625,10.109375 19.3125,10.21875 19.375,10.46875 C18.578125,11.1875 17.359375,12.09375 17.359375,12.09375 L16.25,10.796875 L5.015625,10.796875 L5.203125,10.109375 L11.140625,10.109375 L11.140625,5.5625 L4.625,5.5625 L4.828125,4.84375 L11.140625,4.84375 L11.140625,-0.28125 Z" transform="translate(-0.125, 20.28125) scale(1, -1)"/>
</svg>