<svg height="21.25" viewBox="0 0 24 21.25" width="24" xmlns="http://www.w3.org/2000/svg">
<path d="M1.84375,-0.453125 L2.0625,-1.15625 L21.9375,-1.15625 C22.265625,-1.15625 22.484375,-1.03125 22.5625,-0.765625 C21.71875,-0.03125 20.40625,1.03125 20.40625,1.03125 L19.203125,-0.453125 L12.75,-0.453125 L12.75,4.6875 L19.75,4.6875 C20.0625,4.6875 20.296875,4.796875 20.359375,5.0625 C19.5625,5.78125 18.265625,6.75 18.265625,6.75 L17.15625,5.40625 L12.75,5.40625 L12.75,9.890625 L18.546875,9.890625 C18.890625,9.890625 19.109375,10.015625 19.171875,10.265625 C18.390625,10.9375 17.15625,11.875 17.15625,11.875 L16.078125,10.5625 L4.9375,10.5625 L5.140625,9.890625 L11.140625,9.890625 L11.140625,5.40625 L4.265625,5.40625 L4.46875,4.6875 L11.140625,4.6875 L11.140625,-0.453125 Z M4.890625,18.9375 L5.109375,18.234375 L10.15625,18.234375 C8.296875,14.90625 4.65625,11.5 0.8125,9.265625 L1.015625,8.921875 C5.59375,10.984375 9.90625,14.296875 12.390625,18.1875 C14.1875,14.859375 17.953125,11.78125 21.765625,9.8125 C22.015625,10.484375 22.625,11.046875 23.359375,11.1875 L23.40625,11.453125 C19.078125,12.890625 14.828125,15.703125 13.109375,18.171875 C13.875,18.21875 14.46875,18.359375 14.71875,18.625 L12.53125,20.09375 L11.765625,18.9375 Z" transform="translate(-0.109375, 20.09375) scale(1, -1)"/>
</svg>