<svg height="21.46875" viewBox="0 0 24 21.46875" width="24" xmlns="http://www.w3.org/2000/svg">
<path d="M15.4375,10.9375 L13.84375,10.9375 L13.96875,10.265625 L15.671875,10.265625 L15.703125,9.59375 C15.34375,7.078125 14.09375,4.375 12.765625,3.078125 L12.984375,2.828125 C14.421875,3.75 15.625,5.40625 16.25,7.203125 C16.625,5.421875 17.515625,3.703125 18.546875,2.828125 C18.703125,3.5 19.03125,4.109375 19.46875,4.296875 L19.484375,4.53125 C17.78125,5.546875 16.65625,7.296875 16.3125,9.640625 L16.296875,10.203125 C16.875,10.265625 17.296875,10.4375 17.5,10.625 L15.984375,11.8125 Z M7.125,10.9375 L5.71875,10.9375 L5.8125,10.265625 L7.375,10.265625 L7.375,9.59375 C7.109375,7.0625 5.96875,4.3125 4.734375,3 L4.9375,2.765625 C6.265625,3.703125 7.375,5.359375 7.921875,7.109375 C8.25,5.359375 9.046875,3.640625 9.953125,2.765625 C10.109375,3.453125 10.421875,4.078125 10.84375,4.265625 L10.890625,4.484375 C9.3125,5.546875 8.296875,7.296875 7.984375,9.640625 L7.984375,10.203125 C8.59375,10.265625 9,10.4375 9.1875,10.625 L7.6875,11.8125 Z M2.859375,13.984375 L2.859375,-1.890625 L3.125,-1.890625 C3.8125,-1.890625 4.375,-1.484375 4.375,-1.296875 L4.375,13.296875 L11.15625,13.296875 L11.15625,-1.625 L11.40625,-1.625 C12.1875,-1.625 12.703125,-1.21875 12.703125,-1.109375 L12.703125,13.296875 L19.53125,13.296875 L19.53125,0.625 C19.53125,0.234375 19.4375,0.125 18.984375,0.125 C18.484375,0.125 16.15625,0.28125 16.15625,0.28125 L16.15625,-0.09375 C17.15625,-0.21875 17.765625,-0.4375 18.09375,-0.671875 C18.4375,-0.9375 18.546875,-1.34375 18.625,-1.828125 C20.828125,-1.578125 21.09375,-0.796875 21.09375,0.4375 L21.09375,13.015625 C21.578125,13.078125 21.953125,13.296875 22.125,13.46875 L20.109375,14.96875 L19.296875,13.984375 L12.703125,13.984375 L12.703125,17.359375 L22.265625,17.359375 C22.609375,17.359375 22.875,17.46875 22.921875,17.734375 C22.0625,18.53125 20.640625,19.578125 20.640625,19.578125 L19.421875,18.078125 L1.25,18.078125 L1.46875,17.359375 L11.15625,17.359375 L11.15625,13.984375 L4.53125,13.984375 L2.859375,14.78125 Z" transform="translate(-0.0859375, 19.578125) scale(1, -1)"/>
</svg>