<svg height="22.515625" viewBox="0 0 24 22.515625" width="24" xmlns="http://www.w3.org/2000/svg">
<path d="M14.296875,2.90625 L14.140625,2.515625 C17.296875,1.265625 19.53125,-0.234375 20.734375,-1.5625 C22.421875,-2.953125 24.90625,0.8125 14.296875,2.90625 Z M8.515625,3.390625 C7.0625,1.828125 3.90625,-0.359375 1.109375,-1.53125 L1.296875,-1.921875 C4.421875,-1.015625 7.703125,0.640625 9.59375,1.984375 C10.21875,1.890625 10.5625,1.9375 10.734375,2.203125 Z M7.421875,14.46875 L16.703125,14.46875 L16.703125,11.734375 L7.421875,11.734375 Z M7.421875,15.140625 L7.421875,17.859375 L16.703125,17.859375 L16.703125,15.140625 Z M5.96875,18.546875 L5.96875,4.578125 L0.984375,4.578125 L1.203125,3.90625 L22.4375,3.90625 C22.796875,3.90625 23.046875,4.03125 23.109375,4.265625 C22.265625,5.0625 20.90625,6.171875 20.90625,6.171875 L19.734375,4.578125 L18.28125,4.578125 L18.28125,17.5625 C18.765625,17.65625 19.15625,17.859375 19.3125,18.046875 L17.40625,19.5625 L16.46875,18.546875 L7.6875,18.546875 L5.96875,19.296875 Z M7.421875,11.046875 L16.703125,11.046875 L16.703125,8.25 L7.421875,8.25 Z M7.421875,7.53125 L16.703125,7.53125 L16.703125,4.578125 L7.421875,4.578125 Z" transform="translate(-0.9453125, 19.5625) scale(1, -1)"/>
</svg>