<svg height="20.984375" viewBox="0 0 24 20.984375" width="24" xmlns="http://www.w3.org/2000/svg">
<path d="M19.015625,17.375 L19.015625,9.703125 L15.28125,9.703125 L15.28125,17.375 Z M0.59375,9.703125 L0.796875,9 L3.578125,9 L3.578125,-1.875 L3.859375,-1.875 C4.5625,-1.875 5.109375,-1.46875 5.109375,-1.21875 L5.109375,9 L8.609375,9 L8.609375,-1.421875 L8.828125,-1.421875 C9.59375,-1.421875 10.109375,-1.03125 10.109375,-0.90625 L10.109375,9 L13.796875,9 L13.796875,-1.421875 L14.046875,-1.421875 C14.8125,-1.421875 15.28125,-1.03125 15.28125,-0.90625 L15.28125,9 L19.015625,9 L19.015625,0.625 C19.015625,0.265625 18.90625,0.125 18.53125,0.125 C18.125,0.125 16.296875,0.28125 16.296875,0.28125 L16.296875,-0.09375 C17.109375,-0.21875 17.609375,-0.390625 17.921875,-0.671875 C18.140625,-0.90625 18.265625,-1.375 18.3125,-1.828125 C20.328125,-1.625 20.5625,-0.84375 20.5625,0.4375 L20.5625,9 L22.9375,9 C23.25,9 23.5,9.125 23.546875,9.390625 C22.96875,10.15625 21.84375,11.296875 21.84375,11.296875 L20.875,9.703125 L20.5625,9.703125 L20.5625,17.09375 C21.046875,17.15625 21.453125,17.375 21.59375,17.5625 L19.578125,19.109375 L18.765625,18.09375 L5.25,18.09375 L3.578125,18.890625 L3.578125,9.703125 Z M5.109375,9.703125 L5.109375,17.375 L8.609375,17.375 L8.609375,9.703125 Z M10.109375,17.375 L13.796875,17.375 L13.796875,9.703125 L10.109375,9.703125 Z" transform="translate(-0.0703125, 19.109375) scale(1, -1)"/>
</svg>