<svg height="21.9375" viewBox="0 0 24 21.9375" width="24" xmlns="http://www.w3.org/2000/svg">
<path d="M18.140625,15.453125 L18.140625,11.421875 L12.625,11.421875 L12.625,15.453125 Z M11.046875,20.09375 L11.046875,16.171875 L6.03125,16.171875 L4.125,16.9375 L4.125,11.421875 L1.03125,11.421875 L1.25,10.734375 L4.125,10.734375 L4.125,6.34375 L0.890625,6.34375 L1.109375,5.640625 L4.125,5.640625 L4.125,-1.828125 L4.390625,-1.828125 C5.1875,-1.828125 5.71875,-1.390625 5.71875,-1.265625 L5.71875,5.640625 L18.140625,5.640625 L18.140625,0.703125 C18.140625,0.28125 18,0.140625 17.546875,0.140625 C16.984375,0.140625 14.234375,0.359375 14.234375,0.359375 L14.234375,-0.03125 C15.4375,-0.1875 16.109375,-0.390625 16.484375,-0.640625 C16.84375,-0.90625 16.984375,-1.34375 17.09375,-1.84375 C19.46875,-1.609375 19.75,-0.765625 19.75,0.484375 L19.75,5.640625 L22.65625,5.640625 C22.984375,5.640625 23.203125,5.734375 23.28125,6 C22.5625,6.75 21.328125,7.78125 21.328125,7.78125 L20.25,6.34375 L19.75,6.34375 L19.75,10.734375 L22.421875,10.734375 C22.75,10.734375 22.984375,10.84375 23.0625,11.109375 C22.34375,11.828125 21.171875,12.8125 21.171875,12.8125 L20.09375,11.421875 L19.75,11.421875 L19.75,15.078125 C20.28125,15.171875 20.71875,15.390625 20.90625,15.59375 L18.75,17.234375 L17.875,16.171875 L12.625,16.171875 L12.625,19.171875 C13.21875,19.265625 13.4375,19.515625 13.515625,19.84375 Z M5.71875,15.453125 L11.046875,15.453125 L11.046875,11.421875 L5.71875,11.421875 Z M18.140625,6.34375 L12.625,6.34375 L12.625,10.734375 L18.140625,10.734375 Z M5.71875,6.34375 L5.71875,10.734375 L11.046875,10.734375 L11.046875,6.34375 Z" transform="translate(-0.0859375, 20.09375) scale(1, -1)"/>
</svg>