<svg height="21.921875" viewBox="0 0 24 21.921875" width="24" xmlns="http://www.w3.org/2000/svg">
<path d="M11.296875,20.09375 C11.28125,18.546875 11.234375,17.109375 11.109375,15.765625 L4.46875,15.765625 L2.71875,16.578125 L2.71875,-1.828125 L3,-1.828125 C3.671875,-1.828125 4.296875,-1.421875 4.296875,-1.203125 L4.296875,15.078125 L11.0625,15.078125 C10.609375,10.875 9.3125,7.578125 5.1875,4.75 L5.5,4.3125 C9.1875,6.28125 10.984375,8.609375 11.90625,11.375 C13.828125,9.703125 16.078125,7.125 16.6875,5.046875 C18.625,3.71875 19.5625,8.28125 12.046875,11.859375 C12.34375,12.859375 12.53125,13.9375 12.640625,15.078125 L19.921875,15.078125 L19.921875,0.71875 C19.921875,0.34375 19.78125,0.171875 19.296875,0.171875 C18.671875,0.171875 15.8125,0.390625 15.8125,0.390625 L15.8125,0.03125 C17.046875,-0.140625 17.734375,-0.359375 18.171875,-0.625 C18.53125,-0.890625 18.703125,-1.3125 18.796875,-1.828125 C21.21875,-1.578125 21.5,-0.71875 21.5,0.546875 L21.5,14.765625 C21.984375,14.859375 22.375,15.078125 22.53125,15.21875 L20.515625,16.78125 L19.6875,15.765625 L12.71875,15.765625 C12.796875,16.84375 12.84375,18 12.890625,19.203125 C13.4375,19.25 13.6875,19.53125 13.75,19.84375 Z" transform="translate(-0.625, 20.09375) scale(1, -1)"/>
</svg>