<svg height="20.859375" viewBox="0 0 24 20.859375" width="24" xmlns="http://www.w3.org/2000/svg">
<path d="M19.703125,17.28125 L19.703125,9.359375 L12.75,9.359375 L12.75,17.28125 Z M2.8125,18 L2.8125,-1.84375 L3.09375,-1.84375 C3.8125,-1.84375 4.390625,-1.4375 4.390625,-1.21875 L4.390625,8.6875 L19.703125,8.6875 L19.703125,0.765625 C19.703125,0.34375 19.53125,0.140625 19.015625,0.140625 C18.390625,0.140625 15.234375,0.40625 15.234375,0.40625 L15.234375,0.03125 C16.578125,-0.140625 17.328125,-0.359375 17.78125,-0.59375 C18.1875,-0.84375 18.359375,-1.21875 18.4375,-1.703125 C20.96875,-1.46875 21.28125,-0.625 21.28125,0.59375 L21.28125,16.96875 C21.765625,17.046875 22.171875,17.25 22.3125,17.453125 L20.28125,19.015625 L19.484375,18 L4.515625,18 L2.8125,18.796875 Z M4.390625,9.359375 L4.390625,17.28125 L11.1875,17.28125 L11.1875,9.359375 Z" transform="translate(-0.5625, 19.015625) scale(1, -1)"/>
</svg>