<svg height="21.40625" viewBox="0 0 24 21.40625" width="24" xmlns="http://www.w3.org/2000/svg">
<path d="M16.9375,5.78125 L16.9375,3.4375 L7.21875,3.4375 L7.21875,5.78125 Z M16.9375,6.484375 L7.21875,6.484375 L7.21875,8.8125 L16.9375,8.8125 Z M18.578125,14.8125 L18.578125,12.34375 L5.453125,12.34375 L5.453125,14.8125 Z M18.578125,15.5 L5.453125,15.5 L5.453125,17.90625 L18.578125,17.90625 Z M3.90625,18.59375 L3.90625,10.46875 L4.125,10.46875 C4.78125,10.46875 5.453125,10.828125 5.453125,10.984375 L5.453125,11.640625 L18.578125,11.640625 L18.578125,10.703125 L18.8125,10.703125 C19.296875,10.703125 20.09375,11.015625 20.140625,11.15625 L20.140625,17.609375 C20.609375,17.71875 21,17.90625 21.171875,18.09375 L19.203125,19.578125 L18.34375,18.59375 L5.609375,18.59375 L3.90625,19.390625 Z M16.9375,2.71875 L16.9375,0.28125 L7.21875,0.28125 L7.21875,2.71875 Z M5.640625,9.5 L5.640625,-1.828125 L5.90625,-1.828125 C6.578125,-1.828125 7.21875,-1.4375 7.21875,-1.265625 L7.21875,-0.4375 L16.9375,-0.4375 L16.9375,-1.65625 L17.1875,-1.65625 C17.71875,-1.65625 18.5,-1.265625 18.53125,-1.125 L18.53125,8.59375 C18.9375,8.65625 19.296875,8.828125 19.4375,9 L17.59375,10.4375 L16.734375,9.5 L7.34375,9.5 L5.640625,10.296875 Z" transform="translate(-0.5390625, 19.578125) scale(1, -1)"/>
</svg>