<svg height="24" viewBox="0 0 24 24" width="24" xmlns="http://www.w3.org/2000/svg">
<path d="M4.203125,14.234375 L3.765625,14.234375 C3.796875,12.3125 2.71875,10.625 1.609375,9.984375 C1.125,9.640625 0.84375,9.125 1.078125,8.609375 C1.375,8.09375 2.296875,8.203125 2.90625,8.6875 C3.625,9.265625 4.421875,10.46875 4.421875,12.3125 L20.28125,12.3125 C19.9375,11.0625 19.390625,9.40625 18.9375,8.359375 L19.25,8.15625 C20.25,9.171875 21.484375,10.84375 22.125,12.046875 C22.609375,12.09375 22.875,12.125 23.0625,12.28125 L21.21875,14.0625 L20.1875,13.03125 L4.390625,13.03125 C4.375,13.421875 4.296875,13.796875 4.203125,14.234375 Z" transform="translate(0.046875, 14.234375) scale(1, -1)"/>
</svg>