<svg height="21.765625" viewBox="0 0 24 21.765625" width="24" xmlns="http://www.w3.org/2000/svg">
<path d="M15.640625,15.34375 L14.71875,14.296875 L6.453125,14.296875 L6.640625,13.578125 L16.75,13.578125 C17.09375,13.578125 17.328125,13.703125 17.375,13.96875 C16.6875,14.59375 15.640625,15.34375 15.640625,15.34375 Z M15.53125,17.59375 L14.640625,16.609375 L6.59375,16.609375 L6.796875,15.890625 L16.609375,15.890625 C16.921875,15.890625 17.140625,16.015625 17.203125,16.265625 C16.53125,16.875 15.53125,17.59375 15.53125,17.59375 Z M5.953125,3.9375 L5.953125,4.703125 L10.703125,4.703125 C9.765625,2.234375 7.34375,0.171875 0.890625,-1.484375 L1.109375,-1.921875 C8.59375,-0.3125 11.25,1.875 12.3125,4.703125 L13.203125,4.703125 L13.203125,0.265625 C13.203125,-0.890625 13.53125,-1.21875 15.484375,-1.21875 L18.34375,-1.21875 C22.34375,-1.21875 23.0625,-0.953125 23.0625,-0.265625 C23.0625,0.046875 22.921875,0.21875 22.390625,0.390625 L22.34375,3.046875 L22.03125,3.046875 C21.765625,1.875 21.53125,0.84375 21.328125,0.453125 C21.234375,0.234375 21.171875,0.1875 20.859375,0.171875 C20.46875,0.140625 19.53125,0.140625 18.390625,0.140625 L15.75,0.140625 C14.78125,0.140625 14.6875,0.21875 14.6875,0.53125 L14.6875,4.703125 L18.4375,4.703125 L18.4375,3.796875 L18.640625,3.796875 C19.15625,3.796875 19.921875,4.125 19.9375,4.265625 L19.9375,8.09375 C20.421875,8.1875 20.8125,8.375 20.96875,8.5625 L19.0625,10.03125 L18.1875,9.078125 L12.984375,9.078125 C13.921875,9.546875 14.859375,10.171875 15.5,10.625 C15.984375,10.65625 16.265625,10.703125 16.46875,10.84375 L14.734375,12.484375 L13.78125,11.5 L8.828125,11.5 L9.59375,12.28125 C10.25,12.265625 10.515625,12.40625 10.625,12.671875 L8.40625,13.46875 C7.0625,11.296875 3.984375,8.40625 0.890625,6.765625 L1.15625,6.453125 C2.296875,6.890625 3.4375,7.46875 4.46875,8.09375 L4.46875,3.4375 L4.734375,3.4375 C5.453125,3.4375 5.953125,3.8125 5.953125,3.9375 Z M5.140625,12.453125 L5.140625,18.171875 L18.625,18.171875 L18.625,12.3125 L18.859375,12.3125 C19.375,12.3125 20.140625,12.671875 20.15625,12.796875 L20.15625,17.90625 C20.640625,18 21.046875,18.171875 21.21875,18.359375 L19.265625,19.84375 L18.390625,18.890625 L5.296875,18.890625 L3.625,19.65625 L3.625,11.953125 L3.84375,11.953125 C4.484375,11.953125 5.140625,12.28125 5.140625,12.453125 Z M12.046875,9.078125 L6.234375,9.078125 L6.078125,9.140625 C6.796875,9.671875 7.46875,10.21875 8.0625,10.78125 L13.53125,10.78125 C13.125,10.21875 12.578125,9.578125 12.046875,9.078125 Z M10.9375,5.421875 L5.953125,5.421875 L5.953125,8.375 L11.328125,8.375 C11.28125,7.34375 11.1875,6.359375 10.9375,5.421875 Z M12.53125,5.421875 C12.765625,6.34375 12.890625,7.3125 12.953125,8.375 L18.4375,8.375 L18.4375,5.421875 Z" transform="translate(0.0234375, 19.84375) scale(1, -1)"/>
</svg>