<svg height="22.6875" viewBox="0 0 24 22.6875" width="24" xmlns="http://www.w3.org/2000/svg">
<path d="M9.09375,7.171875 L8.96875,6.8125 C11.5,5.90625 13.609375,4.5625 14.5,3.75 C16.171875,3.1875 16.78125,6.53125 9.09375,7.171875 Z M5.65625,2.953125 L5.59375,2.5625 C10.578125,1.46875 14.859375,-0.40625 16.703125,-1.78125 C18.796875,-2.359375 19.125,1.9375 5.65625,2.953125 Z M16.34375,16.421875 C15.359375,14.6875 14.015625,13.109375 12.40625,11.65625 C10.75,12.84375 9.40625,14.203125 8.453125,15.84375 L8.921875,16.421875 Z M9.265625,20.328125 C7.796875,16.875 4.75,12.984375 1.625,10.78125 L1.890625,10.484375 C4.15625,11.65625 6.28125,13.4375 8.0625,15.40625 C8.921875,13.65625 10.078125,12.171875 11.5,10.890625 C8.609375,8.609375 4.984375,6.796875 0.9375,5.5625 L1.125,5.1875 C5.6875,6.1875 9.5,7.828125 12.578125,10.015625 C15.140625,8.015625 18.390625,6.671875 22.015625,5.828125 C22.25,6.640625 22.796875,7.15625 23.546875,7.265625 L23.5625,7.53125 C19.9375,8.109375 16.515625,9.1875 13.6875,10.84375 C15.59375,12.390625 17.15625,14.15625 18.390625,16.109375 C18.984375,16.125 19.25,16.203125 19.46875,16.421875 L17.640625,18.171875 L16.4375,17.09375 L9.453125,17.09375 C10.015625,17.828125 10.515625,18.578125 10.921875,19.296875 C11.546875,19.203125 11.734375,19.296875 11.859375,19.578125 Z" transform="translate(-0.25, 20.328125) scale(1, -1)"/>
</svg>