<svg height="21.3125" viewBox="0 0 24 21.3125" width="24" xmlns="http://www.w3.org/2000/svg">
<path d="M2.15625,7.015625 C1.890625,7.015625 1.0625,7.015625 1.0625,7.015625 L1.0625,6.453125 C1.578125,6.40625 1.921875,6.34375 2.25,6.125 C2.765625,5.8125 2.90625,4.03125 2.59375,1.609375 C2.609375,0.859375 2.875,0.453125 3.28125,0.453125 C4.078125,0.453125 4.515625,1.03125 4.5625,2.046875 C4.625,3.890625 4.03125,5.015625 4.015625,6 C4.015625,6.578125 4.203125,7.25 4.390625,7.875 C4.734375,8.8125 6.75,13.34375 7.703125,15.71875 L7.296875,15.84375 C3.234375,8.203125 3.234375,8.203125 2.78125,7.4375 C2.515625,7.015625 2.453125,7.015625 2.15625,7.015625 Z M1.734375,18.796875 L1.484375,18.59375 C2.609375,17.6875 3.9375,16.109375 4.296875,14.8125 C6.046875,13.625 7.265625,17.296875 1.734375,18.796875 Z M8.359375,18.4375 L8.359375,10.578125 C8.359375,5.90625 7.796875,1.703125 4.421875,-1.515625 L4.75,-1.796875 C9.3125,1.34375 9.84375,6.140625 9.84375,10.609375 L9.84375,17.734375 L20.28125,17.734375 L20.28125,0.640625 C20.28125,0.265625 20.15625,0.078125 19.6875,0.078125 C19.171875,0.078125 16.609375,0.3125 16.609375,0.3125 L16.609375,-0.09375 C17.734375,-0.234375 18.34375,-0.4375 18.71875,-0.703125 C19.078125,-0.953125 19.21875,-1.375 19.296875,-1.875 C21.546875,-1.625 21.796875,-0.796875 21.796875,0.453125 L21.796875,17.453125 C22.265625,17.546875 22.65625,17.734375 22.828125,17.921875 L20.828125,19.4375 L20.046875,18.4375 L10.125,18.4375 L8.359375,19.21875 Z M14.109375,17.0625 L14.109375,14.40625 L11.015625,14.40625 L11.203125,13.6875 L14.109375,13.6875 L14.109375,11.25 L10.53125,11.25 L10.703125,10.5625 L14.109375,10.5625 L14.109375,8.828125 L14.40625,8.828125 C14.921875,8.828125 15.53125,9.171875 15.53125,9.34375 L15.53125,10.5625 L19.125,10.5625 C19.46875,10.5625 19.6875,10.6875 19.734375,10.9375 C19.125,11.5625 18.140625,12.390625 18.140625,12.390625 L17.25,11.25 L15.53125,11.25 L15.53125,13.6875 L18.640625,13.6875 C18.984375,13.6875 19.203125,13.796875 19.25,14.0625 C18.640625,14.6875 17.6875,15.5 17.6875,15.5 L16.84375,14.40625 L15.53125,14.40625 L15.53125,16.21875 C16.109375,16.296875 16.3125,16.515625 16.375,16.828125 Z M11.515625,8.046875 L11.515625,1.0625 L11.734375,1.0625 C12.28125,1.0625 12.859375,1.390625 12.859375,1.515625 L12.859375,3.046875 L16.921875,3.046875 L16.921875,1.609375 L17.109375,1.609375 C17.5625,1.609375 18.234375,1.9375 18.265625,2.09375 L18.265625,7.21875 C18.59375,7.265625 18.9375,7.4375 19.0625,7.578125 L17.453125,8.828125 L16.734375,8.046875 L12.953125,8.046875 L11.515625,8.734375 Z M12.859375,3.75 L12.859375,7.34375 L16.921875,7.34375 L16.921875,3.75 Z" transform="translate(0.0546875, 19.4375) scale(1, -1)"/>
</svg>