<svg height="22" viewBox="0 0 24 22" width="24" xmlns="http://www.w3.org/2000/svg">
<path d="M8.46875,15.5 C8.1875,12.359375 7.609375,9.234375 6.53125,6.40625 C5.8125,8.09375 5.234375,10.25 4.78125,12.984375 C5.0625,13.828125 5.328125,14.65625 5.5625,15.5 Z M4.875,20.109375 C4.296875,15.1875 2.859375,9.90625 0.890625,6.796875 L1.265625,6.578125 C2.515625,8.046875 3.578125,9.984375 4.4375,12.125 C4.828125,9.28125 5.375,7.03125 6.078125,5.28125 C4.890625,2.640625 3.234375,0.28125 0.859375,-1.5625 L1.171875,-1.890625 C3.671875,-0.34375 5.453125,1.625 6.75,3.8125 C8.828125,-0.046875 12.125,-1.015625 17.09375,-1.015625 C18.4375,-1.015625 21.09375,-1.015625 22.296875,-1.015625 C22.34375,-0.359375 22.703125,0.171875 23.375,0.28125 L23.375,0.625 C21.796875,0.59375 18.703125,0.578125 17.28125,0.578125 C12.53125,0.578125 9.40625,1.375 7.3125,4.875 C8.921875,8.0625 9.625,11.65625 10.0625,15.265625 C10.578125,15.34375 10.78125,15.40625 10.96875,15.625 L9.265625,17.1875 L8.328125,16.21875 L5.765625,16.21875 C6.03125,17.1875 6.234375,18.140625 6.40625,19.109375 C6.90625,19.125 7.203125,19.375 7.265625,19.6875 Z M12.640625,18.125 L12.640625,13.515625 C12.640625,9.765625 12.21875,5.875 9.34375,2.734375 L9.671875,2.46875 C13.75,5.515625 14.140625,10.0625 14.140625,13.53125 L14.140625,17.40625 L17.328125,17.40625 L17.328125,4.84375 C17.328125,3.84375 17.59375,3.359375 18.953125,3.359375 L20.15625,3.359375 C22.34375,3.359375 22.984375,3.703125 22.984375,4.34375 C22.984375,4.625 22.921875,4.796875 22.421875,4.984375 L22.34375,9.390625 L22.03125,9.390625 C21.765625,7.703125 21.453125,5.59375 21.3125,5.15625 C21.265625,4.921875 21.171875,4.84375 21.03125,4.84375 C20.875,4.828125 20.59375,4.828125 20.1875,4.828125 L19.34375,4.828125 C18.90625,4.828125 18.859375,4.921875 18.859375,5.28125 L18.859375,17.109375 C19.375,17.1875 19.65625,17.296875 19.796875,17.5 L17.96875,19.078125 L17.109375,18.125 L14.421875,18.125 L12.640625,18.890625 Z" transform="translate(-0.1171875, 20.109375) scale(1, -1)"/>
</svg>