<svg height="20.328125" viewBox="0 0 24 20.328125" width="24" xmlns="http://www.w3.org/2000/svg">
<path d="M18.3125,16.625 C18.09375,12.03125 17.765625,7.921875 17.28125,5.015625 C14.8125,5.875 12.53125,7.03125 10.609375,8.453125 C11.546875,11.15625 11.765625,13.96875 11.875,16.625 Z M6.046875,13.625 L7.015625,14.828125 L6,15.1875 L5.5625,13.796875 C4.75,12.984375 3.390625,11.859375 2.59375,11.28125 L3.953125,9.71875 C4.125,9.890625 4.203125,10.125 4.03125,10.421875 C4.484375,11.0625 5.203125,12.234375 5.765625,13.125 C6.578125,11.375 7.65625,9.84375 8.96875,8.46875 C7.875,5.015625 5.640625,1.5625 1.015625,-1.484375 L1.34375,-1.890625 C6.234375,0.796875 8.8125,3.984375 10.203125,7.3125 C12.125,5.65625 14.421875,4.375 16.96875,3.359375 C16.65625,2.015625 16.296875,1.109375 15.90625,0.75 C15.578125,0.4375 15.34375,0.34375 14.78125,0.34375 C14.15625,0.34375 12.09375,0.546875 10.796875,0.703125 L10.78125,0.265625 C11.90625,0.046875 13.125,-0.234375 13.5625,-0.546875 C13.9375,-0.8125 14.046875,-1.296875 14.046875,-1.828125 C15.390625,-1.828125 16.4375,-1.4375 17.234375,-0.53125 C17.734375,0.03125 18.171875,1.15625 18.53125,2.78125 C19.65625,2.40625 20.859375,2.0625 22.0625,1.796875 C22.265625,2.5625 22.828125,3.03125 23.5625,3.125 L23.609375,3.40625 C22.015625,3.671875 20.40625,4.03125 18.859375,4.484375 C19.390625,7.515625 19.75,11.640625 19.9375,16.390625 C20.46875,16.4375 20.78125,16.578125 20.96875,16.78125 L19.0625,18.4375 L18.078125,17.328125 L2.5,17.328125 L2.71875,16.625 L10.078125,16.625 C10.03125,14.375 9.90625,11.953125 9.28125,9.53125 C7.9375,10.734375 6.84375,12.09375 6.046875,13.625 Z" transform="translate(-0.3125, 18.4375) scale(1, -1)"/>
</svg>