<svg height="20.25" viewBox="0 0 24 20.25" width="24" xmlns="http://www.w3.org/2000/svg">
<path d="M3.765625,12.09375 L3.59375,11.734375 C5.859375,10.875 7.828125,9.84375 9.4375,8.765625 C8.375,5.1875 6.09375,1.625 1.15625,-1.484375 L1.46875,-1.890625 C6.8125,0.90625 9.453125,4.265625 10.78125,7.828125 C12.171875,6.765625 13.203125,5.765625 13.828125,4.921875 C15.453125,4.109375 16.3125,6.71875 11.296875,9.40625 C11.921875,11.78125 12.09375,14.1875 12.1875,16.53125 L19.390625,16.53125 C19.21875,8.421875 18.796875,1.75 17.78125,0.765625 C17.46875,0.484375 17.28125,0.40625 16.734375,0.40625 C16.125,0.40625 14.015625,0.625 12.71875,0.75 L12.671875,0.3125 C13.84375,0.125 15.09375,-0.1875 15.578125,-0.484375 C15.9375,-0.75 16.0625,-1.25 16.0625,-1.78125 C17.40625,-1.78125 18.390625,-1.34375 19.109375,-0.484375 C20.359375,1.03125 20.828125,7.578125 21.03125,16.296875 C21.546875,16.375 21.84375,16.515625 22.03125,16.703125 L20.109375,18.359375 L19.15625,17.234375 L2.640625,17.234375 L2.859375,16.53125 L10.390625,16.53125 C10.34375,14.46875 10.25,12.3125 9.796875,10.15625 C8.234375,10.828125 6.234375,11.5 3.765625,12.09375 Z" transform="translate(0.40625, 18.359375) scale(1, -1)"/>
</svg>