<svg height="22.0625" viewBox="0 0 24 22.0625" width="24" xmlns="http://www.w3.org/2000/svg">
<path d="M4.421875,19.6875 L4.125,19.484375 C5.15625,18.53125 6.265625,16.9375 6.453125,15.59375 C8.109375,14.359375 9.484375,17.953125 4.421875,19.6875 Z M16.875,19.890625 C15.953125,18.171875 14.828125,16.34375 13.9375,15.21875 L14.109375,15.09375 L11.140625,15.09375 C11.59375,16.390625 11.921875,17.71875 12.1875,19.0625 C12.671875,19.0625 13.015625,19.25 13.078125,19.609375 L10.4375,20.140625 C10.203125,18.4375 9.84375,16.734375 9.3125,15.09375 L2.09375,15.09375 L2.296875,14.40625 L9.078125,14.40625 C8.65625,13.296875 8.1875,12.21875 7.578125,11.203125 L1.109375,11.203125 L1.3125,10.515625 L7.15625,10.515625 C5.6875,8.234375 3.640625,6.234375 0.84375,4.75 L1.03125,4.46875 C2.8125,5.1875 4.3125,6.078125 5.59375,7.078125 L5.71875,6.71875 L9.984375,6.71875 C9.265625,2.8125 7.109375,0.28125 2.5625,-1.53125 L2.734375,-1.921875 C8.09375,-0.40625 10.796875,2.1875 11.859375,6.71875 L16.21875,6.71875 C16.03125,3.140625 15.578125,0.84375 15.03125,0.3125 C14.8125,0.140625 14.59375,0.09375 14.1875,0.09375 C13.6875,0.09375 12.046875,0.21875 11.109375,0.3125 L11.109375,-0.09375 C11.953125,-0.21875 12.890625,-0.4375 13.21875,-0.703125 C13.53125,-0.953125 13.625,-1.390625 13.625,-1.828125 C14.59375,-1.828125 15.4375,-1.578125 16.0625,-1.078125 C17.015625,-0.265625 17.5625,2.328125 17.8125,6.5 C18.3125,6.59375 18.578125,6.703125 18.75,6.859375 L16.9375,8.375 L16.03125,7.421875 L6.03125,7.421875 C7.125,8.359375 8.0625,9.390625 8.828125,10.515625 L15.578125,10.515625 C17.1875,8.140625 19.34375,6.234375 21.765625,5.046875 C21.9375,5.734375 22.515625,6.140625 23.28125,6.34375 L23.328125,6.59375 C21.09375,7.390625 18.796875,8.734375 16.96875,10.515625 L22.3125,10.515625 C22.65625,10.515625 22.890625,10.625 22.96875,10.890625 C22.125,11.640625 20.828125,12.640625 20.828125,12.640625 L19.65625,11.203125 L16.296875,11.203125 C15.4375,12.171875 14.71875,13.25 14.1875,14.40625 L21.359375,14.40625 C21.671875,14.40625 21.90625,14.515625 21.953125,14.78125 C21.1875,15.53125 19.890625,16.515625 19.890625,16.515625 L18.796875,15.09375 L14.453125,15.09375 C15.640625,15.90625 16.984375,17.1875 18.140625,18.390625 C18.625,18.28125 18.953125,18.453125 19.078125,18.671875 Z M10.890625,14.40625 L13.578125,14.40625 C13.984375,13.265625 14.515625,12.1875 15.125,11.203125 L9.3125,11.203125 C9.9375,12.21875 10.46875,13.296875 10.890625,14.40625 Z" transform="translate(-0.0859375, 20.140625) scale(1, -1)"/>
</svg>