<svg height="22.078125" viewBox="0 0 24 22.078125" width="24" xmlns="http://www.w3.org/2000/svg">
<path d="M15.640625,19.5625 L15.390625,19.34375 C16.984375,18.078125 19.21875,15.859375 19.9375,14.25 C21.84375,13.203125 22.6875,17.0625 15.640625,19.5625 Z M6.703125,19.65625 C5.90625,17.828125 4.171875,15.390625 2.328125,13.890625 L2.5625,13.5625 C4.875,14.765625 6.90625,16.703125 8.015625,18.28125 C8.5625,18.1875 8.765625,18.3125 8.90625,18.578125 Z M10.84375,20.15625 C10.578125,18.4375 10.171875,16.734375 9.59375,15.078125 L5.515625,15.078125 L5.71875,14.359375 L9.34375,14.359375 C8.875,13.21875 8.328125,12.125 7.65625,11.0625 L1.171875,11.0625 L1.390625,10.390625 L7.203125,10.390625 C5.6875,8.234375 3.640625,6.34375 0.90625,4.890625 L1.15625,4.625 C2.828125,5.296875 4.296875,6.125 5.546875,7.0625 L5.71875,6.40625 L9.796875,6.40625 C9.140625,2.640625 7.171875,0.21875 2.875,-1.53125 L3.03125,-1.921875 C8.15625,-0.453125 10.6875,1.984375 11.609375,6.40625 L16.15625,6.40625 C15.953125,2.96875 15.546875,0.765625 15,0.28125 C14.828125,0.125 14.609375,0.078125 14.1875,0.078125 C13.703125,0.078125 12.078125,0.1875 11.15625,0.265625 L11.15625,-0.125 C11.96875,-0.265625 12.90625,-0.484375 13.25,-0.71875 C13.5625,-0.984375 13.65625,-1.421875 13.65625,-1.84375 C14.609375,-1.84375 15.4375,-1.609375 16.0625,-1.125 C16.984375,-0.34375 17.515625,2.15625 17.734375,6.1875 C18.21875,6.28125 18.5,6.390625 18.671875,6.546875 L16.84375,8.046875 L15.953125,7.109375 L5.59375,7.109375 C6.90625,8.09375 7.984375,9.1875 8.875,10.390625 L15.484375,10.390625 C17.09375,8.234375 19.171875,6.578125 21.484375,5.546875 C21.625,6.21875 22.21875,6.625 23.015625,6.8125 L23.0625,7.109375 C20.953125,7.75 18.796875,8.875 17.046875,10.390625 L22.25,10.390625 C22.578125,10.390625 22.828125,10.484375 22.890625,10.75 C22.0625,11.515625 20.734375,12.5 20.734375,12.5 L19.578125,11.0625 L16.296875,11.0625 C15.34375,12.03125 14.515625,13.125 13.9375,14.359375 L17.96875,14.359375 C18.3125,14.359375 18.53125,14.46875 18.59375,14.734375 C17.859375,15.4375 16.625,16.421875 16.625,16.421875 L15.546875,15.078125 L11.40625,15.078125 C11.875,16.375 12.234375,17.71875 12.53125,19.0625 C13.03125,19.0625 13.34375,19.21875 13.46875,19.578125 Z M11.109375,14.359375 L13.34375,14.359375 C13.78125,13.171875 14.359375,12.078125 15.03125,11.0625 L9.359375,11.0625 C10.0625,12.09375 10.625,13.203125 11.109375,14.359375 Z" transform="translate(0.015625, 20.15625) scale(1, -1)"/>
</svg>