<svg height="21.953125" viewBox="0 0 24 21.953125" width="24" xmlns="http://www.w3.org/2000/svg">
<path d="M1.78125,19.171875 L1.484375,19.03125 C2.328125,17.90625 3.34375,16.0625 3.5,14.65625 C4.96875,13.390625 6.390625,16.6875 1.78125,19.171875 Z M11.765625,19.4375 C11.203125,17.65625 10.4375,15.703125 9.859375,14.453125 L10.21875,14.234375 C11.203125,15.234375 12.3125,16.75 13.203125,18.125 C13.65625,18.09375 13.96875,18.265625 14.0625,18.53125 Z M15.859375,18.046875 L15.859375,3 L16.15625,3 C16.703125,3 17.359375,3.34375 17.359375,3.546875 L17.359375,17.140625 C17.953125,17.203125 18.171875,17.453125 18.21875,17.78125 Z M20.328125,19.703125 L20.328125,0.578125 C20.328125,0.1875 20.203125,0.046875 19.75,0.046875 C19.296875,0.046875 16.9375,0.234375 16.9375,0.234375 L16.9375,-0.140625 C17.96875,-0.28125 18.546875,-0.484375 18.890625,-0.71875 C19.21875,-1.015625 19.34375,-1.421875 19.421875,-1.890625 C21.59375,-1.6875 21.84375,-0.859375 21.84375,0.40625 L21.84375,18.765625 C22.421875,18.84375 22.65625,19.078125 22.734375,19.421875 Z M3.90625,12.40625 L11.28125,12.40625 L11.28125,9.265625 L3.90625,9.265625 Z M6.75,20.0625 L6.75,13.109375 L4.21875,13.109375 L2.421875,13.875 L2.421875,-1.828125 L2.65625,-1.828125 C3.40625,-1.828125 3.90625,-1.4375 3.90625,-1.3125 L3.90625,4.625 L11.28125,4.625 L11.28125,0.28125 C11.28125,0.03125 11.15625,-0.046875 10.828125,-0.046875 C9.953125,-0.046875 8.46875,0.046875 8.46875,0.078125 L8.46875,-0.28125 C9.34375,-0.40625 9.90625,-0.578125 10.15625,-0.8125 C10.421875,-1.0625 10.5625,-1.421875 10.5625,-1.828125 C12.4375,-1.6875 12.765625,-0.984375 12.765625,0.1875 L12.765625,12.09375 C13.125,12.171875 13.515625,12.359375 13.65625,12.53125 L12,13.984375 L11.40625,13.109375 L8.25,13.109375 L8.25,19.171875 C8.859375,19.25 9.078125,19.484375 9.125,19.828125 Z M3.90625,8.5625 L11.28125,8.5625 L11.28125,5.328125 L3.90625,5.328125 Z" transform="translate(-0.109375, 20.0625) scale(1, -1)"/>
</svg>