<svg height="21.546875" viewBox="0 0 24 21.546875" width="24" xmlns="http://www.w3.org/2000/svg">
<path d="M9.078125,5.28125 L8.828125,5.046875 C10.46875,4.078125 12.640625,2.296875 13.46875,0.9375 C15.28125,0.046875 15.84375,3.640625 9.078125,5.28125 Z M2.5625,9.859375 L2.296875,9.703125 C3.1875,8.765625 4.25,7.203125 4.4375,5.953125 C5.90625,4.796875 7.203125,7.9375 2.5625,9.859375 Z M0.8125,2.421875 L2.09375,0.671875 C2.28125,0.796875 2.421875,1.03125 2.453125,1.3125 C4.4375,2.78125 5.953125,4.03125 6.984375,4.796875 L6.8125,5.140625 C4.375,3.953125 1.890625,2.8125 0.8125,2.421875 Z M12.03125,10.015625 C11.5625,9.03125 10.421875,7.171875 9.53125,6 L9.765625,5.8125 C11.0625,6.625 12.484375,7.78125 13.21875,8.5 C13.6875,8.359375 14.015625,8.515625 14.109375,8.71875 Z M16.03125,18.078125 L16.03125,3 L16.3125,3 C16.84375,3 17.5,3.34375 17.5,3.546875 L17.5,17.15625 C18.078125,17.234375 18.28125,17.46875 18.359375,17.8125 Z M20.296875,19.65625 L20.296875,0.546875 C20.296875,0.1875 20.1875,0.046875 19.78125,0.046875 C19.3125,0.046875 17.0625,0.21875 17.0625,0.21875 L17.0625,-0.171875 C18.046875,-0.28125 18.625,-0.484375 18.9375,-0.71875 C19.265625,-1.015625 19.390625,-1.390625 19.4375,-1.875 C21.546875,-1.65625 21.796875,-0.859375 21.796875,0.40625 L21.796875,18.75 C22.375,18.8125 22.609375,19.0625 22.6875,19.390625 Z M0.9375,11.5625 L1.125,10.875 L7.203125,10.875 L7.203125,0.390625 C7.203125,0.09375 7.109375,-0.03125 6.796875,-0.03125 C6.40625,-0.03125 4.78125,0.09375 4.78125,0.09375 L4.78125,-0.265625 C5.5625,-0.390625 6,-0.53125 6.265625,-0.796875 C6.5,-1.03125 6.578125,-1.46875 6.59375,-1.890625 C8.453125,-1.703125 8.71875,-0.84375 8.71875,0.359375 L8.71875,10.875 L14.921875,10.875 C15.234375,10.875 15.484375,10.984375 15.546875,11.25 C14.859375,11.96875 13.703125,12.953125 13.703125,12.953125 L12.671875,11.5625 L11.8125,11.5625 L12.140625,17.828125 C12.546875,17.875 12.75,17.953125 12.90625,18.140625 L11.234375,19.53125 L10.4375,18.640625 L2.640625,18.640625 L2.859375,17.953125 L10.609375,17.953125 L10.46875,15.1875 L3.078125,15.1875 L3.28125,14.46875 L10.4375,14.46875 L10.296875,11.5625 Z" transform="translate(0.25, 19.65625) scale(1, -1)"/>
</svg>