<svg height="21.984375" viewBox="0 0 24 21.984375" width="24" xmlns="http://www.w3.org/2000/svg">
<path d="M16.65625,18.046875 L16.65625,3.078125 L16.921875,3.078125 C17.46875,3.078125 18.078125,3.40625 18.078125,3.625 L18.078125,17.15625 C18.640625,17.234375 18.84375,17.46875 18.90625,17.78125 Z M20.421875,19.65625 L20.421875,0.53125 C20.421875,0.171875 20.296875,0.03125 19.890625,0.03125 C19.4375,0.03125 17.1875,0.21875 17.1875,0.21875 L17.1875,-0.171875 C18.171875,-0.28125 18.75,-0.484375 19.0625,-0.71875 C19.390625,-1.015625 19.515625,-1.390625 19.5625,-1.875 C21.671875,-1.65625 21.90625,-0.859375 21.90625,0.40625 L21.90625,18.75 C22.484375,18.8125 22.734375,19.0625 22.796875,19.390625 Z M0.890625,8.203125 L1.75,6.640625 C1.96875,6.71875 2.140625,6.90625 2.1875,7.203125 C3,7.734375 3.703125,8.1875 4.21875,8.5625 L4.21875,6.453125 L4.484375,6.453125 C4.984375,6.453125 5.5625,6.765625 5.5625,6.9375 L5.5625,12.9375 C6,13.015625 6.171875,13.203125 6.21875,13.46875 L4.21875,13.6875 L4.21875,11.8125 L1.171875,11.8125 L1.390625,11.09375 L4.21875,11.09375 L4.21875,9.171875 C2.875,8.765625 1.5625,8.359375 0.890625,8.203125 Z M1.078125,15.078125 L1.265625,14.359375 L7.375,14.359375 L7.375,8.328125 C6.03125,5.09375 3.359375,1.875 0.703125,0 L0.890625,-0.359375 C3.34375,0.9375 5.6875,2.875 7.375,4.921875 L7.375,-1.84375 L7.578125,-1.84375 C8.296875,-1.84375 8.828125,-1.484375 8.828125,-1.375 L8.828125,5.640625 C10.390625,4.65625 12.3125,2.953125 12.953125,1.53125 C14.828125,0.53125 15.5,4.421875 8.828125,6.078125 L8.828125,14.359375 L14.65625,14.359375 C15,14.359375 15.234375,14.46875 15.28125,14.734375 C14.546875,15.453125 13.3125,16.421875 13.3125,16.421875 L12.21875,15.078125 L8.828125,15.078125 L8.828125,17.65625 C10.4375,17.90625 11.921875,18.1875 13.125,18.484375 C13.65625,18.265625 14.109375,18.234375 14.328125,18.453125 L12.546875,20.109375 C10.078125,19.109375 5.296875,17.90625 1.34375,17.359375 L1.4375,16.921875 C3.390625,16.984375 5.421875,17.1875 7.375,17.453125 L7.375,15.078125 Z M14.140625,12.640625 C13.5625,12.1875 12.671875,11.515625 11.921875,11.015625 L11.921875,12.796875 C12.3125,12.84375 12.546875,13.0625 12.578125,13.34375 L10.609375,13.578125 L10.609375,8.09375 C10.609375,7.21875 10.796875,6.890625 11.953125,6.890625 L12.953125,6.890625 C14.8125,6.890625 15.34375,7.15625 15.34375,7.6875 C15.34375,7.96875 15.1875,8.09375 14.78125,8.234375 L14.71875,9.59375 L14.453125,9.59375 C14.296875,9 14.109375,8.40625 13.984375,8.25 C13.921875,8.140625 13.84375,8.140625 13.734375,8.140625 C13.609375,8.109375 13.34375,8.109375 13.03125,8.109375 L12.28125,8.109375 C11.96875,8.109375 11.921875,8.1875 11.921875,8.453125 L11.921875,10.53125 C12.796875,10.75 13.921875,11.109375 14.5625,11.375 C14.96875,11.1875 15.171875,11.203125 15.3125,11.359375 Z" transform="translate(0.25, 20.109375) scale(1, -1)"/>
</svg>