<svg height="21.984375" viewBox="0 0 24 21.984375" width="24" xmlns="http://www.w3.org/2000/svg">
<path d="M16.578125,18.046875 L16.578125,3.078125 L16.875,3.078125 C17.40625,3.078125 18,3.40625 18,3.625 L18,17.15625 C18.578125,17.234375 18.796875,17.46875 18.84375,17.78125 Z M20.359375,19.65625 L20.359375,0.53125 C20.359375,0.171875 20.234375,0.03125 19.828125,0.03125 C19.375,0.03125 17.09375,0.21875 17.09375,0.21875 L17.09375,-0.171875 C18.09375,-0.28125 18.671875,-0.484375 18.984375,-0.71875 C19.3125,-1.015625 19.4375,-1.390625 19.484375,-1.875 C21.59375,-1.65625 21.84375,-0.859375 21.84375,0.40625 L21.84375,18.75 C22.421875,18.8125 22.65625,19.0625 22.734375,19.390625 Z M11.953125,6.671875 L11.953125,3.984375 L4.9375,3.984375 C5.015625,4.484375 5.046875,5.015625 5.046875,5.5 L5.046875,6.671875 Z M3.546875,9.265625 L3.546875,5.515625 C3.546875,3.125 3.1875,0.390625 1.078125,-1.53125 L1.390625,-1.828125 C3.578125,-0.5 4.484375,1.390625 4.84375,3.265625 L11.953125,3.265625 L11.953125,-1.84375 L12.234375,-1.84375 C12.8125,-1.84375 13.46875,-1.53125 13.46875,-1.3125 L13.46875,8.375 C14.046875,8.46875 14.25,8.6875 14.296875,9 L11.953125,9.265625 L11.953125,7.375 L5.046875,7.375 L5.046875,8.421875 C5.59375,8.5 5.78125,8.71875 5.859375,9 Z M7.375,20.109375 L7.375,17.734375 L0.859375,17.734375 L1.03125,17.046875 L6.140625,17.046875 L5.953125,16.921875 C6.453125,16.421875 6.984375,15.5 7.078125,14.78125 C7.25,14.640625 7.421875,14.59375 7.5625,14.59375 L7.5625,9.265625 L7.828125,9.265625 C8.28125,9.265625 8.828125,9.546875 8.828125,9.71875 L8.828125,13.828125 C9.359375,13.921875 9.578125,14.109375 9.625,14.453125 L9.28125,14.46875 C9.84375,15 10.375,15.625 10.734375,16.15625 C11.234375,16.125 11.546875,16.3125 11.65625,16.578125 L10.171875,17.046875 L15.1875,17.046875 C15.53125,17.046875 15.765625,17.15625 15.84375,17.421875 C15.046875,18.140625 13.828125,19.125 13.828125,19.125 L12.71875,17.734375 L8.90625,17.734375 L8.90625,19.21875 C9.453125,19.296875 9.703125,19.53125 9.75,19.875 Z M6.34375,17.046875 L9.75,17.046875 C9.484375,16.265625 9.078125,15.234375 8.734375,14.546875 L7.78125,14.640625 C8.359375,14.90625 8.421875,16.21875 6.34375,17.046875 Z M13.875,16.25 C13.390625,15.890625 12.640625,15.390625 11.953125,14.953125 L10.484375,15.28125 L10.484375,11.234375 L9.625,11.109375 L10.375,9.546875 C10.5625,9.625 10.75,9.765625 10.84375,10.078125 C12.171875,10.578125 13.265625,11.046875 14.0625,11.40625 C14.25,10.921875 14.40625,10.4375 14.40625,9.984375 C15.625,8.875 16.84375,11.8125 12.890625,13.796875 L12.59375,13.65625 C13.0625,13.171875 13.515625,12.53125 13.875,11.828125 L11.734375,11.453125 L11.734375,14.28125 C12.640625,14.5 13.828125,14.78125 14.546875,15 C15,14.875 15.1875,14.921875 15.3125,15.09375 Z M1.125,15.09375 L1.34375,14.375 L2.6875,14.375 C2.5625,12.890625 2.203125,11.140625 0.703125,9.578125 L1.078125,9.21875 C3.171875,10.6875 3.75,12.671875 3.953125,14.375 L5.109375,14.375 C5.046875,12.28125 4.921875,11.453125 4.75,11.1875 C4.703125,11.109375 4.65625,11.0625 4.53125,11.0625 C4.265625,11.0625 3.71875,11.09375 3.390625,11.140625 L3.390625,10.734375 C3.71875,10.65625 4.0625,10.5625 4.21875,10.421875 C4.4375,10.265625 4.5625,9.90625 4.5625,9.671875 C4.921875,9.703125 5.28125,9.796875 5.59375,10.0625 C6.125,10.53125 6.21875,11.59375 6.3125,14.28125 C6.71875,14.328125 7.015625,14.453125 7.171875,14.609375 L5.609375,15.84375 L4.890625,15.09375 Z" transform="translate(0.28125, 20.109375) scale(1, -1)"/>
</svg>