<svg height="21.953125" viewBox="0 0 24 21.953125" width="24" xmlns="http://www.w3.org/2000/svg">
<path d="M8.640625,14.5 L8.40625,14.296875 C9.53125,13.3125 10.84375,11.65625 11.15625,10.296875 C12.84375,9.125 14.015625,12.75 8.640625,14.5 Z M4.609375,14.8125 C4.015625,13.109375 2.6875,10.625 1.21875,9.03125 L1.53125,8.734375 C3.390625,10.03125 5.015625,12 5.921875,13.484375 C6.484375,13.390625 6.703125,13.515625 6.84375,13.75 Z M0.953125,16.203125 L1.15625,15.5 L13.03125,15.5 C13.375,15.5 13.609375,15.625 13.65625,15.890625 C12.890625,16.625 11.609375,17.609375 11.609375,17.609375 L10.484375,16.203125 L7.875,16.203125 L7.875,19.203125 C8.46875,19.296875 8.71875,19.53125 8.765625,19.875 L6.34375,20.109375 L6.34375,16.203125 Z M8.421875,10.578125 C8.140625,9.4375 7.75,8.234375 7.25,7.0625 C6.21875,7.734375 4.9375,8.421875 3.390625,9.09375 L3.09375,8.859375 C4.21875,8.0625 5.515625,6.984375 6.703125,5.8125 C5.328125,3.03125 3.390625,0.359375 0.84375,-1.53125 L1.078125,-1.84375 C4.015625,-0.21875 6.171875,2.1875 7.734375,4.703125 C8.6875,3.625 9.484375,2.5 9.890625,1.484375 C11.453125,0.578125 12.125,3.125 8.515625,6.09375 C9.125,7.21875 9.59375,8.359375 9.953125,9.40625 C10.578125,9.390625 10.78125,9.53125 10.890625,9.8125 Z M15.5,19.890625 C15.5,17.859375 15.53125,15.890625 15.484375,14.046875 L12.265625,14.046875 L12.484375,13.34375 L15.453125,13.34375 C15.28125,7.296875 14.375,2.296875 9.9375,-1.4375 L10.265625,-1.84375 C15.75,1.875 16.75,7.078125 16.984375,13.34375 L20.46875,13.34375 C20.328125,5.640625 20.015625,1.25 19.25,0.453125 C19.03125,0.234375 18.84375,0.171875 18.390625,0.171875 C17.921875,0.171875 16.484375,0.28125 15.59375,0.359375 L15.578125,-0.046875 C16.421875,-0.1875 17.25,-0.40625 17.5625,-0.640625 C17.875,-0.90625 17.953125,-1.34375 17.953125,-1.828125 C18.90625,-1.828125 19.828125,-1.515625 20.421875,-0.765625 C21.453125,0.4375 21.84375,4.734375 21.984375,13.15625 C22.515625,13.203125 22.796875,13.34375 22.96875,13.515625 L21.171875,15.046875 L20.234375,14.046875 L17.015625,14.046875 L17.09375,18.953125 C17.65625,19.03125 17.875,19.296875 17.953125,19.609375 Z" transform="translate(0.09375, 20.109375) scale(1, -1)"/>
</svg>