<svg height="21.921875" viewBox="0 0 24 21.921875" width="24" xmlns="http://www.w3.org/2000/svg">
<path d="M6.953125,14.15625 L4.171875,14.15625 L3.671875,14.375 C4.375,15.234375 4.984375,16.203125 5.546875,17.140625 L8.375,17.140625 C8.015625,16.203125 7.484375,15 6.953125,14.15625 Z M5.1875,20.09375 C4.34375,17.359375 2.609375,13.9375 0.765625,12 L1.078125,11.765625 C1.53125,12.125 2.015625,12.53125 2.453125,12.984375 L2.453125,6.859375 L2.65625,6.859375 C3.390625,6.859375 3.890625,7.25 3.890625,7.375 L3.890625,8.25 L5.1875,8.25 C5.09375,4.9375 4.65625,1.390625 0.75,-1.4375 L1.078125,-1.828125 C5.859375,0.859375 6.484375,4.578125 6.703125,8.25 L8.296875,8.25 L8.296875,0.640625 C8.296875,-0.84375 8.875,-1.15625 11.5625,-1.15625 L16.109375,-1.171875 C22.171875,-1.171875 23.140625,-0.9375 23.140625,-0.09375 C23.140625,0.234375 22.921875,0.40625 22.265625,0.578125 L22.21875,3.9375 L21.90625,3.9375 C21.59375,2.328125 21.328125,1.171875 21.09375,0.703125 C20.953125,0.453125 20.828125,0.34375 20.375,0.3125 C19.734375,0.265625 18.171875,0.234375 16.15625,0.234375 L11.59375,0.234375 C9.953125,0.234375 9.796875,0.390625 9.796875,0.90625 L9.796875,8.25 L11.203125,8.25 L11.203125,7.25 L11.453125,7.25 C11.953125,7.25 12.703125,7.578125 12.71875,7.734375 L12.71875,13.21875 C13.125,13.296875 13.484375,13.515625 13.625,13.65625 L11.828125,15.046875 L10.984375,14.15625 L7.6875,14.15625 C8.546875,15 9.4375,16.203125 10.03125,16.96875 C10.484375,16.984375 10.75,17.046875 10.9375,17.203125 L9.265625,18.765625 L8.375,17.859375 L5.953125,17.859375 C6.1875,18.34375 6.4375,18.796875 6.625,19.25 C7.21875,19.21875 7.421875,19.3125 7.46875,19.578125 Z M6.796875,8.953125 L3.890625,8.953125 L3.890625,13.46875 L6.796875,13.46875 Z M8.234375,8.953125 L8.234375,13.46875 L11.203125,13.46875 L11.203125,8.953125 Z M12.984375,14.953125 L13.203125,14.25 L15.90625,14.25 C15.71875,9.359375 14.875,5.109375 11.234375,1.84375 L11.59375,1.4375 C16.171875,4.734375 17.15625,9.21875 17.421875,14.25 L20.28125,14.25 C20.109375,7.796875 19.703125,4.53125 19.03125,3.859375 C18.796875,3.640625 18.625,3.59375 18.21875,3.59375 C17.78125,3.59375 16.578125,3.703125 15.859375,3.765625 L15.859375,3.34375 C16.53125,3.21875 17.203125,3.03125 17.46875,2.8125 C17.765625,2.546875 17.828125,2.15625 17.828125,1.703125 C18.671875,1.6875 19.515625,1.9375 20.09375,2.59375 C21.09375,3.625 21.578125,6.90625 21.75,14.0625 C22.25,14.140625 22.53125,14.234375 22.734375,14.453125 L20.921875,15.90625 L20.0625,14.953125 L17.453125,14.953125 C17.5,16.265625 17.515625,17.609375 17.546875,18.984375 C18.125,19.0625 18.3125,19.3125 18.390625,19.625 L15.984375,19.890625 C15.984375,18.1875 15.984375,16.53125 15.9375,14.953125 Z" transform="translate(0.0546875, 20.09375) scale(1, -1)"/>
</svg>