<svg height="21.953125" viewBox="0 0 24 21.953125" width="24" xmlns="http://www.w3.org/2000/svg">
<path d="M0.9375,16.9375 L1.109375,16.25 L4.078125,16.25 L4.078125,13.921875 L4.390625,13.921875 C5.0625,13.921875 5.59375,14.1875 5.59375,14.328125 L5.59375,16.25 L8.65625,16.25 L8.65625,13.96875 L9,13.96875 C9.796875,13.984375 10.203125,14.296875 10.203125,14.40625 L10.203125,16.25 L13.625,16.25 C13.9375,16.25 14.15625,16.375 14.234375,16.625 C13.53125,17.359375 12.40625,18.28125 12.40625,18.28125 L11.46875,16.9375 L10.203125,16.9375 L10.203125,19.203125 C10.703125,19.265625 10.921875,19.5625 10.96875,19.875 L8.65625,20.0625 L8.65625,16.9375 L5.59375,16.9375 L5.59375,19.203125 C6.09375,19.296875 6.3125,19.53125 6.34375,19.875 L4.078125,20.0625 L4.078125,16.9375 Z M15.8125,20.046875 C15.8125,17.96875 15.84375,16.03125 15.8125,14.15625 L13.203125,14.15625 L13.421875,13.484375 L15.796875,13.484375 C15.703125,8.78125 15.234375,4.75 13.296875,1.4375 L13.25,1.78125 L7.875,1.25 L7.875,3.390625 L12.265625,3.390625 C12.578125,3.390625 12.796875,3.5 12.859375,3.765625 C12.21875,4.390625 11.1875,5.203125 11.1875,5.203125 L10.265625,4.109375 L7.875,4.109375 L7.875,6.171875 L12.578125,6.171875 C12.90625,6.171875 13.125,6.28125 13.171875,6.546875 C12.53125,7.203125 11.421875,8.0625 11.421875,8.0625 L10.46875,6.859375 L7.875,6.859375 L7.875,8.921875 L10.984375,8.921875 L10.984375,8.25 L11.234375,8.25 C11.921875,8.25 12.484375,8.59375 12.484375,8.6875 L12.484375,12.3125 C12.9375,12.390625 13.171875,12.5 13.3125,12.703125 L11.6875,13.9375 L10.921875,13.109375 L3.71875,13.109375 L1.984375,13.828125 L1.984375,7.96875 L2.234375,7.96875 C2.96875,7.96875 3.453125,8.296875 3.453125,8.421875 L3.453125,8.921875 L6.390625,8.921875 L6.390625,6.859375 L1.4375,6.859375 L1.625,6.171875 L6.390625,6.171875 L6.390625,4.109375 L1.84375,4.109375 L2.046875,3.390625 L6.390625,3.390625 L6.390625,1.109375 C4.0625,0.890625 2.15625,0.71875 1.03125,0.671875 L1.84375,-1.390625 C2.109375,-1.34375 2.328125,-1.15625 2.46875,-0.859375 C7.21875,0.046875 10.6875,0.796875 13.25,1.375 C12.640625,0.359375 11.921875,-0.578125 11.015625,-1.4375 L11.359375,-1.84375 C16.265625,1.875 17.140625,7.125 17.296875,13.484375 L20.515625,13.484375 C20.40625,5.5 20.1875,1.171875 19.46875,0.4375 C19.265625,0.1875 19.078125,0.125 18.640625,0.125 C18.171875,0.125 16.84375,0.234375 16.015625,0.34375 L15.984375,-0.09375 C16.78125,-0.234375 17.59375,-0.453125 17.875,-0.703125 C18.171875,-0.953125 18.234375,-1.390625 18.234375,-1.890625 C19.171875,-1.890625 20.0625,-1.5625 20.65625,-0.8125 C21.625,0.359375 21.9375,4.515625 22.015625,13.265625 C22.53125,13.34375 22.828125,13.46875 23.015625,13.65625 L21.171875,15.21875 L20.234375,14.15625 L17.328125,14.15625 L17.375,19.125 C17.96875,19.21875 18.1875,19.46875 18.265625,19.796875 Z M3.453125,9.640625 L3.453125,12.390625 L6.390625,12.390625 L6.390625,9.640625 Z M10.984375,9.640625 L7.875,9.640625 L7.875,12.390625 L10.984375,12.390625 Z" transform="translate(0.0234375, 20.0625) scale(1, -1)"/>
</svg>