<svg height="21.921875" viewBox="0 0 24 21.921875" width="24" xmlns="http://www.w3.org/2000/svg">
<path d="M9.1875,19.171875 L6.625,20.09375 C5.40625,15.75 3.140625,11.65625 0.90625,9.140625 L1.21875,8.90625 C3.1875,10.421875 4.96875,12.5 6.453125,15.046875 L20.046875,15.046875 C19.6875,8.40625 18.90625,1.703125 17.734375,0.671875 C17.40625,0.359375 17.140625,0.265625 16.53125,0.265625 C15.859375,0.265625 13.3125,0.53125 11.765625,0.703125 L11.734375,0.265625 C13.0625,0.046875 14.5625,-0.28125 15.09375,-0.59375 C15.53125,-0.859375 15.671875,-1.34375 15.671875,-1.828125 C17.140625,-1.828125 18.171875,-1.4375 18.953125,-0.578125 C20.40625,0.953125 21.28125,7.828125 21.640625,14.859375 C22.15625,14.859375 22.515625,15.03125 22.6875,15.1875 L20.8125,16.828125 L19.828125,15.75 L6.84375,15.75 C7.375,16.703125 7.828125,17.6875 8.25,18.75 C8.8125,18.71875 9.09375,18.9375 9.1875,19.171875 Z" transform="translate(0.203125, 20.09375) scale(1, -1)"/>
</svg>