<svg height="22.84375" viewBox="0 0 24 22.84375" width="24" xmlns="http://www.w3.org/2000/svg">
<path d="M4.484375,3 C4.296875,1.390625 2.90625,0.21875 1.78125,-0.171875 C1.25,-0.4375 0.890625,-0.890625 1.078125,-1.421875 C1.3125,-1.984375 2.1875,-2.015625 2.859375,-1.65625 C3.984375,-1.109375 5.328125,0.390625 4.890625,2.96875 Z M8.15625,2.859375 L7.84375,2.734375 C8.28125,1.65625 8.734375,0 8.71875,-1.265625 C10.0625,-2.65625 11.8125,0.1875 8.15625,2.859375 Z M12.71875,2.859375 L12.4375,2.6875 C13.3125,1.6875 14.40625,-0.03125 14.640625,-1.3125 C16.25,-2.515625 17.546875,0.859375 12.71875,2.859375 Z M17.5625,3.140625 L17.328125,2.90625 C18.890625,1.828125 20.921875,-0.1875 21.59375,-1.75 C23.515625,-2.6875 24.1875,1.34375 17.5625,3.140625 Z M15.953125,20.09375 C15.953125,18.359375 15.953125,16.703125 15.890625,15.125 L12.765625,15.125 L12.984375,14.453125 L15.84375,14.453125 C15.53125,10.125 14.421875,6.359375 10.265625,3.453125 L10.609375,3.046875 C15.71875,5.953125 16.96875,9.953125 17.328125,14.453125 L20.5,14.453125 C20.375,8.953125 20.140625,6.09375 19.5625,5.546875 C19.390625,5.359375 19.21875,5.296875 18.84375,5.296875 C18.390625,5.296875 17.15625,5.40625 16.421875,5.46875 L16.421875,5.046875 C17.09375,4.9375 17.828125,4.734375 18.09375,4.515625 C18.359375,4.265625 18.4375,3.859375 18.4375,3.4375 C19.296875,3.4375 20.109375,3.671875 20.640625,4.21875 C21.53125,5.15625 21.84375,8.0625 21.953125,14.25 C22.46875,14.328125 22.75,14.453125 22.921875,14.609375 L21.140625,16.078125 L20.28125,15.125 L17.375,15.125 C17.453125,16.46875 17.46875,17.828125 17.5,19.21875 C18.046875,19.296875 18.265625,19.53125 18.34375,19.875 Z M10.890625,20.15625 C8.765625,19.515625 4.78125,18.625 1.578125,18.234375 L1.703125,17.8125 C3.171875,17.828125 4.703125,17.921875 6.21875,18.078125 L6.21875,16.65625 L1.015625,16.65625 L1.203125,15.953125 L6.21875,15.953125 L6.234375,14.515625 L3.890625,14.515625 L2.328125,15.21875 L2.328125,8.515625 L2.515625,8.515625 C3.125,8.515625 3.765625,8.828125 3.765625,8.953125 L3.765625,9.171875 L6.21875,9.171875 L6.21875,7.65625 L1.703125,7.65625 L1.890625,6.953125 L6.21875,6.953125 L6.21875,5.375 C4.015625,5.1875 2.15625,5.046875 1.03125,4.984375 L2.234375,3.078125 C2.453125,3.140625 2.65625,3.28125 2.765625,3.59375 C7.25,4.421875 10.375,5.046875 12.546875,5.5625 L12.5,5.953125 L7.703125,5.515625 L7.703125,6.953125 L12,6.953125 C12.28125,6.953125 12.53125,7.078125 12.578125,7.3125 C11.875,7.96875 10.78125,8.734375 10.78125,8.734375 L9.8125,7.65625 L7.703125,7.65625 L7.703125,9.171875 L10.203125,9.171875 L10.203125,8.78125 L10.421875,8.78125 C10.890625,8.78125 11.640625,9.09375 11.65625,9.234375 L11.65625,13.609375 C12.046875,13.6875 12.40625,13.875 12.546875,14.046875 L10.78125,15.359375 L10.015625,14.515625 L7.703125,14.515625 L7.703125,15.953125 L12.578125,15.953125 C12.890625,15.953125 13.125,16.078125 13.203125,16.34375 C12.453125,16.984375 11.296875,17.828125 11.296875,17.828125 L10.265625,16.65625 L7.703125,16.65625 L7.703125,18.21875 C9.03125,18.359375 10.265625,18.5 11.296875,18.671875 C11.828125,18.453125 12.21875,18.4375 12.4375,18.59375 Z M10.203125,11.515625 L10.203125,9.890625 L7.65625,9.890625 L7.65625,11.515625 Z M10.203125,12.1875 L7.65625,12.1875 L7.65625,13.828125 L10.203125,13.828125 Z M3.765625,11.515625 L6.234375,11.515625 L6.234375,9.890625 L3.765625,9.890625 Z M3.765625,12.1875 L3.765625,13.828125 L6.234375,13.828125 L6.234375,12.1875 Z" transform="translate(-0.5390625, 20.15625) scale(1, -1)"/>
</svg>