<svg height="21.8125" viewBox="0 0 24 21.8125" width="24" xmlns="http://www.w3.org/2000/svg">
<path d="M3.84375,15.1875 L4.015625,14.5 L6.40625,14.5 L6.40625,13.265625 L6.640625,13.265625 C7.34375,13.265625 7.78125,13.515625 7.78125,13.625 L7.78125,14.5 L10.15625,14.5 L10.15625,13.296875 L10.390625,13.296875 C11.203125,13.3125 11.515625,13.609375 11.515625,13.703125 L11.515625,14.5 L14.203125,14.5 C14.546875,14.5 14.734375,14.609375 14.8125,14.875 C14.234375,15.453125 13.265625,16.25 13.265625,16.25 L12.4375,15.1875 L11.515625,15.1875 L11.515625,16.390625 C12.03125,16.46875 12.21875,16.734375 12.234375,17.046875 L10.15625,17.234375 L10.15625,15.1875 L7.78125,15.1875 L7.78125,16.390625 C8.28125,16.484375 8.5,16.734375 8.515625,17.046875 L6.40625,17.234375 L6.40625,15.1875 Z M16.625,19.875 L16.65625,14.28125 L14.109375,14.28125 L14.328125,13.609375 L16.625,13.609375 C16.609375,7.34375 16.21875,2.234375 13.734375,-1.5625 L14.109375,-1.9375 C17.515625,1.875 18.03125,7.203125 18.125,13.609375 L20.65625,13.609375 C20.5625,5.328125 20.421875,1.21875 19.734375,0.484375 C19.53125,0.265625 19.390625,0.1875 18.953125,0.1875 C18.5,0.1875 17.328125,0.28125 16.5625,0.390625 L16.53125,-0.046875 C17.25,-0.1875 17.96875,-0.390625 18.234375,-0.59375 C18.53125,-0.859375 18.59375,-1.265625 18.59375,-1.78125 C19.46875,-1.78125 20.359375,-1.46875 20.90625,-0.75 C21.8125,0.4375 22.0625,4.34375 22.125,13.390625 C22.65625,13.46875 22.9375,13.578125 23.109375,13.78125 L21.28125,15.3125 L20.40625,14.28125 L18.140625,14.28125 L18.171875,18.9375 C18.71875,19.03125 18.9375,19.265625 19.015625,19.609375 Z M2.203125,18.3125 L2.203125,11.421875 C2.203125,7.25 2.25,2.515625 0.84375,-1.203125 L1.25,-1.421875 C3.625,2.28125 3.59375,7.5625 3.59375,11.453125 L3.59375,17.609375 L14.5,17.609375 C14.828125,17.609375 15.046875,17.734375 15.125,18 C14.328125,18.71875 13.078125,19.734375 13.078125,19.734375 L11.96875,18.3125 L3.890625,18.3125 L2.203125,19.078125 Z M6.28125,9.75 L8.421875,9.75 L8.421875,8.15625 L6.28125,8.15625 Z M6.28125,10.4375 L6.28125,12 L8.421875,12 L8.421875,10.4375 Z M11.921875,9.75 L11.921875,8.15625 L9.796875,8.15625 L9.796875,9.75 Z M11.921875,10.4375 L9.796875,10.4375 L9.796875,12 L11.921875,12 Z M4.171875,5.59375 L4.171875,-1.84375 L4.390625,-1.84375 C5.09375,-1.84375 5.5625,-1.484375 5.5625,-1.375 L5.5625,4.875 L8.421875,4.875 L8.421875,2.5625 L5.953125,2.328125 L6.671875,0.59375 C6.90625,0.671875 7.109375,0.8125 7.21875,1.109375 C8.828125,1.625 10.109375,2.09375 11.046875,2.421875 C11.140625,2.015625 11.1875,1.625 11.15625,1.265625 C12.140625,0.265625 13.46875,2.40625 10.625,4.421875 L10.3125,4.265625 C10.53125,3.890625 10.75,3.390625 10.921875,2.859375 L9.796875,2.71875 L9.796875,4.875 L12.484375,4.875 L12.484375,0.453125 C12.484375,0.140625 12.390625,0 12.046875,0 C11.640625,0 9.9375,0.140625 9.9375,0.140625 L9.9375,-0.234375 C10.734375,-0.34375 11.1875,-0.53125 11.46875,-0.703125 C11.71875,-0.9375 11.8125,-1.296875 11.859375,-1.703125 C13.65625,-1.515625 13.84375,-0.8125 13.84375,0.28125 L13.84375,4.578125 C14.328125,4.65625 14.734375,4.875 14.90625,5.0625 L12.984375,6.453125 L12.234375,5.59375 L9.796875,5.59375 L9.796875,7.4375 L11.921875,7.4375 L11.921875,6.859375 L12.140625,6.859375 C12.765625,6.859375 13.296875,7.171875 13.296875,7.25 L13.296875,11.953125 C13.734375,12 13.96875,12.125 14.109375,12.28125 L12.546875,13.53125 L11.875,12.703125 L6.546875,12.703125 L4.96875,13.421875 L4.96875,6.640625 L5.1875,6.640625 C5.828125,6.640625 6.28125,6.953125 6.28125,7.078125 L6.28125,7.4375 L8.421875,7.4375 L8.421875,5.59375 L5.859375,5.59375 L4.171875,6.3125 Z" transform="translate(0.0234375, 19.875) scale(1, -1)"/>
</svg>