<svg height="21.796875" viewBox="0 0 24 21.796875" width="24" xmlns="http://www.w3.org/2000/svg">
<path d="M4.625,12.75 L4.625,0.703125 C4.625,-1.171875 5.5625,-1.5625 8.6875,-1.5625 L14.203125,-1.5625 C21.5,-1.5625 22.75,-1.375 22.75,-0.390625 C22.75,-0.046875 22.484375,0.125 21.796875,0.3125 L21.75,4.515625 L21.453125,4.515625 C21,2.328125 20.6875,1.109375 20.40625,0.5 C20.234375,0.21875 20.0625,0.078125 19.53125,0 C18.75,-0.078125 16.84375,-0.09375 14.25,-0.09375 L8.640625,-0.09375 C6.5,-0.09375 6.1875,0.171875 6.1875,0.9375 L6.1875,6.796875 L12.640625,6.796875 L12.640625,5.453125 L12.890625,5.453125 C13.421875,5.453125 14.15625,5.8125 14.1875,5.96875 L14.1875,11.765625 C14.6875,11.859375 15.078125,12.046875 15.234375,12.234375 L13.296875,13.734375 L12.4375,12.765625 L6.4375,12.765625 L4.875,13.46875 C5.453125,14.1875 6,15 6.5,15.84375 L18.890625,15.84375 C18.71875,9.5 18.3125,5.875 17.609375,5.15625 C17.375,4.96875 17.1875,4.890625 16.75,4.890625 C16.296875,4.890625 14.875,5.015625 14.046875,5.09375 L14.015625,4.6875 C14.8125,4.53125 15.625,4.3125 15.9375,4.078125 C16.25,3.796875 16.3125,3.390625 16.3125,2.875 C17.25,2.859375 18.171875,3.140625 18.796875,3.84375 C19.84375,4.890625 20.296875,8.59375 20.5,15.625 C21,15.703125 21.28125,15.84375 21.453125,16.015625 L19.609375,17.5625 L18.640625,16.5625 L6.90625,16.5625 C7.3125,17.296875 7.703125,18.09375 8.0625,18.90625 C8.59375,18.84375 8.875,19.0625 9,19.3125 L6.578125,20.234375 C5.328125,16.21875 3.140625,12.5 0.953125,10.25 L1.296875,9.984375 C2.46875,10.828125 3.59375,11.90625 4.625,13.171875 Z M12.640625,7.484375 L6.1875,7.484375 L6.1875,12.046875 L12.640625,12.046875 Z" transform="translate(0.1484375, 20.234375) scale(1, -1)"/>
</svg>