<svg height="21.90625" viewBox="0 0 24 21.90625" width="24" xmlns="http://www.w3.org/2000/svg">
<path d="M19.703125,15.890625 C18.234375,13.75 16.015625,11.296875 13.390625,9.046875 L13.390625,18.765625 C13.96875,18.859375 14.203125,19.109375 14.25,19.4375 L11.8125,19.734375 L11.8125,7.75 C10.171875,6.453125 8.453125,5.25 6.71875,4.265625 L6.953125,3.953125 C8.640625,4.703125 10.265625,5.59375 11.8125,6.546875 L11.8125,0.90625 C11.8125,-0.703125 12.484375,-1.171875 14.71875,-1.171875 L17.6875,-1.171875 C22.109375,-1.171875 23.109375,-0.90625 23.109375,-0.09375 C23.109375,0.234375 22.9375,0.40625 22.3125,0.640625 L22.25,4.203125 L21.9375,4.203125 C21.59375,2.59375 21.28125,1.15625 21.078125,0.75 C20.953125,0.53125 20.8125,0.453125 20.5,0.40625 C20.0625,0.390625 19.078125,0.359375 17.734375,0.359375 L14.875,0.359375 C13.65625,0.359375 13.390625,0.625 13.390625,1.296875 L13.390625,7.609375 C16.4375,9.71875 19.015625,12.125 20.78125,14.203125 C21.328125,13.984375 21.59375,14.046875 21.796875,14.28125 Z M7.21875,20.0625 C5.65625,15.1875 3.03125,10.390625 0.53125,7.46875 L0.859375,7.25 C2.109375,8.28125 3.3125,9.578125 4.4375,11.046875 L4.4375,-1.84375 L4.75,-1.84375 C5.328125,-1.84375 6,-1.484375 6.03125,-1.375 L6.03125,12.453125 C6.453125,12.53125 6.671875,12.703125 6.765625,12.90625 L5.96875,13.21875 C7.03125,14.90625 8.015625,16.75 8.828125,18.71875 C9.390625,18.671875 9.671875,18.890625 9.796875,19.15625 Z" transform="translate(0.1796875, 20.0625) scale(1, -1)"/>
</svg>