<svg height="20.75" viewBox="0 0 24 20.75" width="24" xmlns="http://www.w3.org/2000/svg">
<path d="M2.65625,17.40625 L2.65625,-1.890625 L2.90625,-1.890625 C3.71875,-1.890625 4.25,-1.46875 4.25,-1.3125 L4.25,0.34375 L22.34375,0.34375 C22.6875,0.34375 22.921875,0.453125 22.96875,0.71875 C22.109375,1.515625 20.6875,2.609375 20.6875,2.609375 L19.46875,1.03125 L4.25,1.03125 L4.25,16.734375 L9.171875,16.734375 C9.078125,11.921875 8.859375,7.703125 4.5625,4.484375 L4.890625,4.109375 C10.203125,7.171875 10.609375,11.546875 10.75,16.734375 L14.140625,16.734375 L14.140625,7.5625 C14.140625,6.390625 14.5,5.96875 16.203125,5.96875 L18.3125,5.96875 C21.578125,5.96875 22.296875,6.28125 22.296875,6.953125 C22.296875,7.296875 22.15625,7.46875 21.625,7.65625 L21.546875,10.3125 L21.265625,10.3125 C21.046875,9.1875 20.765625,8.015625 20.609375,7.703125 C20.5,7.53125 20.40625,7.484375 20.1875,7.46875 C19.890625,7.4375 19.25,7.4375 18.390625,7.4375 L16.515625,7.4375 C15.75,7.4375 15.640625,7.5625 15.640625,7.921875 L15.640625,16.734375 L21.625,16.734375 C21.953125,16.734375 22.171875,16.84375 22.25,17.09375 C21.453125,17.859375 20.09375,18.859375 20.09375,18.859375 L18.9375,17.40625 L4.53125,17.40625 L2.65625,18.234375 Z" transform="translate(-0.8125, 18.859375) scale(1, -1)"/>
</svg>