<svg height="22.140625" viewBox="0 0 24 22.140625" width="24" xmlns="http://www.w3.org/2000/svg">
<path d="M11.1875,16.78125 L11.1875,13.421875 L5.640625,13.421875 L5.640625,16.78125 Z M12.71875,16.78125 L18.40625,16.78125 L18.40625,13.421875 L12.71875,13.421875 Z M11.109375,20.296875 C10.890625,19.484375 10.515625,18.28125 10.25,17.46875 L5.8125,17.46875 L4.078125,18.265625 L4.078125,7.46875 L4.34375,7.46875 C5.015625,7.46875 5.640625,7.828125 5.640625,7.984375 L5.640625,8.5625 L18.40625,8.5625 L18.40625,7.65625 L18.640625,7.65625 C19.203125,7.65625 19.984375,8.046875 20.015625,8.203125 L20.015625,16.484375 C20.46875,16.578125 20.859375,16.75 21.03125,16.9375 L19.0625,18.4375 L18.171875,17.46875 L11.25,17.46875 C11.765625,18.03125 12.390625,18.703125 12.796875,19.21875 C13.296875,19.203125 13.609375,19.390625 13.703125,19.734375 Z M11.1875,9.265625 L5.640625,9.265625 L5.640625,12.703125 L11.1875,12.703125 Z M12.71875,9.265625 L12.71875,12.703125 L18.40625,12.703125 L18.40625,9.265625 Z M8.15625,7.96875 C7.6875,6.75 6.984375,5.015625 6.484375,3.890625 L0.953125,3.890625 L1.171875,3.171875 L13.984375,3.171875 L13.984375,-1.84375 L14.28125,-1.84375 C14.875,-1.84375 15.546875,-1.484375 15.546875,-1.3125 L15.546875,3.171875 L22.34375,3.171875 C22.6875,3.171875 22.9375,3.28125 23.015625,3.546875 C22.109375,4.34375 20.6875,5.421875 20.6875,5.421875 L19.46875,3.890625 L15.546875,3.890625 L15.546875,7.171875 C16.15625,7.25 16.375,7.484375 16.421875,7.796875 L13.984375,8.0625 L13.984375,3.890625 L7.375,3.890625 C8.109375,4.75 9.09375,5.921875 9.765625,6.796875 C10.265625,6.765625 10.609375,6.9375 10.734375,7.25 Z" transform="translate(0.015625, 20.296875) scale(1, -1)"/>
</svg>