<svg height="22" viewBox="0 0 24 22" width="24" xmlns="http://www.w3.org/2000/svg">
<path d="M10.25,4.34375 L10.03125,4.15625 C10.984375,3.40625 12.046875,2.09375 12.28125,0.953125 C13.875,-0.140625 15.078125,3.1875 10.25,4.34375 Z M17.28125,19.828125 L17.0625,19.578125 C17.90625,19.21875 18.75,18.4375 19.015625,17.6875 C20.46875,16.875 21.28125,19.78125 17.28125,19.828125 Z M9.046875,14.546875 L9.046875,6.453125 L9.265625,6.453125 C9.90625,6.453125 10.5625,6.8125 10.5625,6.953125 L10.5625,7.703125 L19.65625,7.703125 L19.65625,6.90625 L19.875,6.90625 C20.359375,6.90625 21.140625,7.265625 21.171875,7.421875 L21.171875,13.65625 C21.546875,13.734375 21.84375,13.890625 21.953125,14.0625 L20.234375,15.40625 L19.4375,14.546875 L15.75,14.546875 L15.75,16.390625 L22.34375,16.390625 C22.6875,16.390625 22.921875,16.515625 22.96875,16.78125 C22.296875,17.453125 21.171875,18.390625 21.171875,18.390625 L20.15625,17.09375 L15.75,17.09375 L15.75,19.203125 C16.3125,19.296875 16.53125,19.53125 16.609375,19.875 L14.234375,20.109375 L14.234375,17.09375 L7.734375,17.09375 L7.921875,16.390625 L14.234375,16.390625 L14.234375,14.546875 L10.6875,14.546875 L9.046875,15.28125 Z M16.96875,7.34375 L16.96875,5.359375 L7.125,5.359375 L7.296875,4.625 L16.96875,4.625 L16.96875,0.4375 C16.96875,0.09375 16.84375,-0.046875 16.4375,-0.046875 C15.9375,-0.046875 13.4375,0.140625 13.4375,0.140625 L13.4375,-0.234375 C14.515625,-0.390625 15.125,-0.546875 15.484375,-0.796875 C15.796875,-1.0625 15.9375,-1.4375 16.015625,-1.890625 C18.21875,-1.65625 18.484375,-0.90625 18.484375,0.34375 L18.484375,4.625 L22.578125,4.625 C22.921875,4.625 23.109375,4.75 23.1875,5.015625 C22.46875,5.734375 21.28125,6.640625 21.28125,6.640625 L20.25,5.359375 L18.484375,5.359375 L18.484375,6.5 C19.015625,6.578125 19.21875,6.765625 19.296875,7.109375 Z M14.234375,10.828125 L14.234375,8.421875 L10.5625,8.421875 L10.5625,10.828125 Z M14.234375,11.546875 L10.5625,11.546875 L10.5625,13.828125 L14.234375,13.828125 Z M15.75,10.828125 L19.65625,10.828125 L19.65625,8.421875 L15.75,8.421875 Z M15.75,11.546875 L15.75,13.828125 L19.65625,13.828125 L19.65625,11.546875 Z M3.75,20.109375 L3.75,13.296875 L0.859375,13.296875 L1.03125,12.59375 L3.75,12.59375 L3.75,-1.875 L4.03125,-1.875 C4.609375,-1.875 5.28125,-1.484375 5.28125,-1.25 L5.28125,12.59375 L8.28125,12.59375 C8.59375,12.59375 8.828125,12.71875 8.875,12.984375 C8.203125,13.65625 7.078125,14.640625 7.078125,14.640625 L6.078125,13.296875 L5.28125,13.296875 L5.28125,19.171875 C5.90625,19.265625 6.078125,19.53125 6.140625,19.875 Z" transform="translate(-0.0234375, 20.109375) scale(1, -1)"/>
</svg>