<svg height="22.03125" viewBox="0 0 24 22.03125" width="24" xmlns="http://www.w3.org/2000/svg">
<path d="M4.0625,19.828125 L3.8125,19.625 C4.796875,18.71875 5.953125,17.203125 6.265625,15.984375 C7.84375,14.875 9.046875,18.265625 4.0625,19.828125 Z M9.75,20.109375 L9.484375,19.96875 C10.34375,19.03125 11.296875,17.453125 11.46875,16.21875 C13.015625,14.953125 14.421875,18.265625 9.75,20.109375 Z M4.078125,15.03125 L4.078125,5.375 L4.34375,5.375 C4.984375,5.375 5.65625,5.71875 5.65625,5.875 L5.65625,6.546875 L11.1875,6.546875 L11.1875,3.640625 L0.84375,3.640625 L1.03125,2.921875 L11.1875,2.921875 L11.1875,-1.921875 L11.421875,-1.921875 C12.234375,-1.921875 12.765625,-1.515625 12.765625,-1.390625 L12.765625,2.921875 L22.484375,2.921875 C22.828125,2.921875 23.09375,3.046875 23.140625,3.3125 C22.25,4.109375 20.828125,5.203125 20.828125,5.203125 L19.5625,3.640625 L12.765625,3.640625 L12.765625,6.546875 L18.265625,6.546875 L18.265625,5.5625 L18.53125,5.5625 C19.0625,5.5625 19.84375,5.953125 19.875,6.125 L19.875,14.015625 C20.328125,14.109375 20.6875,14.296875 20.859375,14.5 L18.90625,15.953125 L18.03125,15.03125 L15.453125,15.03125 C16.703125,15.9375 18.046875,17.296875 19.15625,18.640625 C19.6875,18.546875 19.984375,18.75 20.09375,18.984375 L17.78125,20.109375 C16.875,18.21875 15.671875,16.21875 14.734375,15.03125 L5.8125,15.03125 L4.078125,15.796875 Z M11.1875,14.296875 L11.1875,11.1875 L5.65625,11.1875 L5.65625,14.296875 Z M12.765625,14.296875 L18.265625,14.296875 L18.265625,11.1875 L12.765625,11.1875 Z M11.1875,7.25 L5.65625,7.25 L5.65625,10.484375 L11.1875,10.484375 Z M12.765625,7.25 L12.765625,10.484375 L18.265625,10.484375 L18.265625,7.25 Z" transform="translate(0.0078125, 20.109375) scale(1, -1)"/>
</svg>