<svg height="20.609375" viewBox="0 0 24 20.609375" width="24" xmlns="http://www.w3.org/2000/svg">
<path d="M6.8125,18.71875 L6.8125,-1.84375 L7.0625,-1.84375 C7.796875,-1.84375 8.296875,-1.4375 8.296875,-1.3125 L8.296875,17.0625 L16.921875,17.0625 L16.921875,4.265625 C16.921875,3.890625 16.78125,3.71875 16.3125,3.71875 C15.75,3.71875 12.9375,3.953125 12.9375,3.953125 L12.9375,3.546875 C14.140625,3.40625 14.8125,3.1875 15.21875,2.90625 C15.578125,2.609375 15.71875,2.1875 15.8125,1.625 C18.1875,1.890625 18.4375,2.765625 18.4375,4.03125 L18.4375,16.78125 C18.90625,16.84375 19.3125,17.046875 19.46875,17.234375 L17.46875,18.765625 L16.6875,17.765625 L8.609375,17.765625 Z" transform="translate(-1.140625, 18.765625) scale(1, -1)"/>
</svg>