<svg height="21.984375" viewBox="0 0 24 21.984375" width="24" xmlns="http://www.w3.org/2000/svg">
<path d="M7.265625,20.109375 C6.28125,19.21875 5.09375,18.265625 4.078125,17.59375 L2.421875,18.359375 L2.421875,5.421875 L0.859375,5.015625 L1.984375,3.125 C2.203125,3.21875 2.40625,3.40625 2.46875,3.71875 C3.84375,4.53125 4.96875,5.234375 5.828125,5.78125 C5.421875,2.921875 4.203125,0.359375 1.203125,-1.53125 L1.484375,-1.875 C6.390625,0.546875 7.390625,4.484375 7.4375,8.640625 L7.4375,14.65625 C8.015625,14.765625 8.203125,14.96875 8.28125,15.28125 L6.03125,15.53125 L6.03125,8.65625 C6.03125,7.921875 6,7.203125 5.921875,6.484375 L3.84375,5.828125 L3.84375,16.890625 L3.9375,16.921875 C4.203125,16.9375 4.421875,16.984375 4.515625,17.09375 C5.609375,17.453125 6.859375,17.953125 7.9375,18.5 C8.375,18.28125 8.609375,18.3125 8.8125,18.484375 Z M16.578125,18.234375 L16.578125,-1.84375 L16.875,-1.84375 C17.546875,-1.84375 18.03125,-1.46875 18.03125,-1.25 L18.03125,17.546875 L20.640625,17.546875 L20.640625,4.53125 C20.640625,4.25 20.546875,4.125 20.234375,4.125 C19.875,4.125 18.390625,4.25 18.390625,4.25 L18.390625,3.859375 C19.109375,3.75 19.515625,3.578125 19.75,3.3125 C19.96875,3.046875 20.0625,2.59375 20.09375,2.15625 C21.859375,2.328125 22.078125,3.09375 22.078125,4.34375 L22.078125,17.28125 C22.53125,17.375 22.890625,17.5625 23.0625,17.765625 L21.140625,19.171875 L20.40625,18.234375 L18.140625,18.234375 L16.578125,19.015625 Z M13.65625,13.3125 L13.65625,9.75 L10.578125,9.75 L10.578125,13.3125 Z M13.65625,14.015625 L10.578125,14.015625 L10.578125,17.515625 L13.65625,17.515625 Z M9.171875,18.1875 L9.171875,2.140625 L7.390625,1.625 L8.609375,-0.34375 C8.828125,-0.234375 9,0 9.078125,0.28125 C11.140625,1.421875 12.75,2.375 13.921875,3.09375 C14.15625,2.359375 14.328125,1.609375 14.359375,0.9375 C15.84375,-0.5 17.234375,3.265625 12.390625,6.953125 L12.078125,6.8125 C12.640625,5.921875 13.296875,4.78125 13.75,3.578125 L10.578125,2.5625 L10.578125,9.046875 L13.65625,9.046875 L13.65625,8.09375 L13.875,8.09375 C14.328125,8.09375 15.046875,8.453125 15.078125,8.59375 L15.078125,17.234375 C15.53125,17.328125 15.90625,17.515625 16.078125,17.71875 L14.25,19.109375 L13.421875,18.1875 L10.6875,18.1875 L9.171875,18.9375 Z" transform="translate(0.0390625, 20.109375) scale(1, -1)"/>
</svg>