<svg height="22.03125" viewBox="0 0 24 22.03125" width="24" xmlns="http://www.w3.org/2000/svg">
<path d="M7.84375,20.15625 C6.53125,17.046875 3.75,13.5625 0.890625,11.609375 L1.15625,11.296875 C2.28125,11.875 3.390625,12.625 4.421875,13.4375 L4.421875,9.40625 C4.421875,5.609375 3.9375,1.65625 0.953125,-1.578125 L1.265625,-1.875 C5.546875,1.25 5.953125,5.875 5.953125,9.40625 L5.953125,13.15625 L22.03125,13.15625 C22.375,13.15625 22.609375,13.265625 22.6875,13.53125 C21.8125,14.296875 20.453125,15.359375 20.453125,15.359375 L19.265625,13.84375 L12.40625,13.84375 C13.65625,14.65625 14.921875,15.890625 15.765625,16.734375 C16.25,16.78125 16.53125,16.796875 16.734375,16.984375 L14.90625,18.640625 L13.875,17.640625 L8.421875,17.640625 C8.8125,18.140625 9.140625,18.640625 9.4375,19.15625 C10.0625,19.0625 10.265625,19.171875 10.375,19.421875 Z M6.234375,13.84375 L5.359375,14.25 C6.265625,15.09375 7.125,16.015625 7.875,16.921875 L13.78125,16.921875 C13.25,15.953125 12.484375,14.71875 11.765625,13.84375 Z M8.46875,10.421875 L8.46875,0.4375 C8.46875,-1.109375 9.09375,-1.46875 11.71875,-1.46875 L15.984375,-1.46875 C21.75,-1.46875 22.75,-1.25 22.75,-0.40625 C22.75,-0.09375 22.5625,0.078125 21.90625,0.234375 L21.84375,3.21875 L21.546875,3.21875 C21.234375,1.796875 20.953125,0.75 20.71875,0.34375 C20.5625,0.125 20.421875,0.03125 19.984375,0 C19.4375,-0.046875 17.953125,-0.078125 16.03125,-0.078125 L11.765625,-0.078125 C10.203125,-0.078125 9.984375,0.09375 9.984375,0.703125 L9.984375,9.703125 L16.84375,9.703125 C16.796875,7.078125 16.703125,5.5625 16.421875,5.234375 C16.265625,5.09375 16.078125,5.0625 15.71875,5.0625 C15.265625,5.0625 13.828125,5.15625 13.015625,5.234375 L12.984375,4.828125 C13.75,4.703125 14.609375,4.515625 14.90625,4.296875 C15.21875,4.078125 15.28125,3.640625 15.28125,3.234375 C16.125,3.234375 16.890625,3.4375 17.375,3.859375 C18.125,4.484375 18.3125,6.234375 18.390625,9.53125 C18.8125,9.578125 19.109375,9.703125 19.25,9.859375 L17.5,11.28125 L16.625,10.421875 L10.296875,10.421875 L8.46875,11.1875 Z" transform="translate(0.1796875, 20.15625) scale(1, -1)"/>
</svg>