<svg height="21.84375" viewBox="0 0 24 21.84375" width="24" xmlns="http://www.w3.org/2000/svg">
<path d="M14.15625,17.71875 L14.15625,-1.875 L14.40625,-1.875 C15.171875,-1.875 15.671875,-1.46875 15.671875,-1.3125 L15.671875,17.015625 L20.40625,17.015625 L20.40625,4.609375 C20.40625,4.265625 20.296875,4.125 19.875,4.125 C19.421875,4.125 17.203125,4.296875 17.203125,4.296875 L17.203125,3.9375 C18.1875,3.796875 18.765625,3.578125 19.078125,3.34375 C19.390625,3.078125 19.515625,2.640625 19.578125,2.15625 C21.703125,2.375 21.9375,3.171875 21.9375,4.421875 L21.9375,16.703125 C22.421875,16.796875 22.828125,16.984375 22.984375,17.1875 L20.96875,18.703125 L20.15625,17.71875 L15.953125,17.71875 L14.15625,18.640625 Z M0.796875,2.203125 L1.78125,0.09375 C1.984375,0.171875 2.234375,0.359375 2.359375,0.640625 C6.09375,1.53125 8.875,2.25 10.9375,2.828125 C11.203125,2.0625 11.375,1.296875 11.40625,0.578125 C13.109375,-0.953125 14.65625,3.40625 8.953125,6.953125 L8.65625,6.765625 C9.4375,5.859375 10.21875,4.578125 10.75,3.265625 L4.734375,2.59375 C5.65625,4.484375 6.75,7.21875 7.484375,9.453125 L13.21875,9.453125 C13.53125,9.453125 13.78125,9.578125 13.828125,9.84375 C13.0625,10.578125 11.765625,11.609375 11.765625,11.609375 L10.609375,10.15625 L7.875,10.15625 L7.875,14.6875 L12.671875,14.6875 C13.015625,14.6875 13.25,14.8125 13.3125,15.078125 C12.53125,15.8125 11.25,16.828125 11.25,16.828125 L10.15625,15.390625 L7.875,15.390625 L7.875,19.0625 C8.46875,19.15625 8.71875,19.390625 8.765625,19.734375 L6.34375,19.96875 L6.34375,15.390625 L1.46875,15.390625 L1.65625,14.6875 L6.34375,14.6875 L6.34375,10.15625 L0.953125,10.15625 L1.15625,9.453125 L5.5625,9.453125 C5.15625,7.34375 4.484375,4.4375 3.9375,2.5 C2.59375,2.359375 1.515625,2.25 0.796875,2.203125 Z" transform="translate(0.109375, 19.96875) scale(1, -1)"/>
</svg>