<svg height="21.796875" viewBox="0 0 24 21.796875" width="24" xmlns="http://www.w3.org/2000/svg">
<path d="M13.46875,15.5 L13.625,14.8125 L18.265625,14.8125 C18.171875,12.671875 17.953125,10.734375 17.5625,8.921875 L15.671875,8.921875 L15.671875,13.171875 C16.109375,13.25 16.296875,13.4375 16.34375,13.6875 L14.328125,13.921875 L14.328125,8.921875 L13.015625,8.921875 L13.203125,8.234375 L17.40625,8.234375 C16.375,4.265625 14.328125,1.078125 10.375,-1.5625 L10.578125,-1.875 C13.875,-0.1875 16.015625,1.890625 17.40625,4.421875 L17.40625,-0.046875 C17.40625,-1.03125 17.640625,-1.421875 18.984375,-1.421875 L20.359375,-1.421875 C22.625,-1.421875 23.203125,-1.078125 23.203125,-0.484375 C23.203125,-0.1875 23.140625,0 22.6875,0.171875 L22.609375,2.8125 L22.296875,2.8125 C22.078125,1.734375 21.859375,0.53125 21.71875,0.234375 C21.625,0.046875 21.546875,0.03125 21.390625,0 C21.265625,0 20.875,-0.03125 20.40625,-0.03125 L19.34375,-0.03125 C18.90625,-0.03125 18.84375,0.078125 18.84375,0.359375 L18.84375,6.796875 C19.296875,6.859375 19.484375,7.078125 19.53125,7.34375 L18.671875,7.4375 L18.890625,8.234375 L22.53125,8.234375 C22.875,8.234375 23.09375,8.359375 23.140625,8.609375 C22.4375,9.3125 21.265625,10.25 21.265625,10.25 L20.25,8.921875 L19.0625,8.921875 C19.484375,10.703125 19.734375,12.671875 19.875,14.8125 L22.3125,14.8125 C22.65625,14.8125 22.890625,14.921875 22.9375,15.171875 C22.203125,15.890625 21,16.84375 21,16.84375 L19.921875,15.5 Z M11.203125,14.015625 L11.203125,11.65625 L7.390625,11.65625 L7.390625,14.015625 Z M8.71875,17.359375 C8.609375,16.609375 8.40625,15.4375 8.234375,14.71875 L7.515625,14.71875 L5.921875,15.453125 L5.921875,-1.84375 L6.1875,-1.84375 C6.84375,-1.84375 7.390625,-1.515625 7.390625,-1.296875 L7.390625,1.484375 L12.984375,1.484375 C13.3125,1.484375 13.5625,1.609375 13.625,1.875 C12.90625,2.515625 11.8125,3.390625 11.8125,3.390625 L10.84375,2.203125 L7.390625,2.203125 L7.390625,4.75 L12.75,4.75 C13.078125,4.75 13.3125,4.875 13.375,5.140625 C12.671875,5.765625 11.59375,6.59375 11.59375,6.59375 L10.625,5.453125 L7.390625,5.453125 L7.390625,7.875 L11.203125,7.875 L11.203125,7.109375 L11.421875,7.109375 C11.90625,7.109375 12.625,7.421875 12.640625,7.578125 L12.640625,13.796875 C13.03125,13.875 13.390625,14.0625 13.53125,14.234375 L11.78125,15.578125 L10.984375,14.71875 L9.03125,14.71875 C9.40625,15.234375 9.90625,15.890625 10.21875,16.375 C10.703125,16.421875 10.984375,16.609375 11.09375,16.921875 Z M7.390625,10.96875 L11.203125,10.96875 L11.203125,8.5625 L7.390625,8.5625 Z M3.078125,18.4375 L3.078125,12.40625 C3.078125,7.75 2.921875,2.5625 0.859375,-1.609375 L1.265625,-1.84375 C4.421875,2.296875 4.578125,8.1875 4.578125,12.4375 L4.578125,17.734375 L22.390625,17.734375 C22.734375,17.734375 22.96875,17.859375 23.046875,18.125 C22.171875,18.859375 20.828125,19.921875 20.828125,19.921875 L19.625,18.4375 L4.875,18.4375 L3.078125,19.265625 Z" transform="translate(-0.03125, 19.921875) scale(1, -1)"/>
</svg>