<svg height="22.34375" viewBox="0 0 24 22.34375" width="24" xmlns="http://www.w3.org/2000/svg">
<path d="M10.65625,19.484375 C9.53125,14.1875 7.4375,7.109375 5.296875,1.75 C3.671875,1.65625 2.296875,1.578125 1.3125,1.5625 L2.359375,-0.671875 C2.609375,-0.625 2.828125,-0.4375 3,-0.171875 C10.390625,0.8125 15.765625,1.578125 19.78125,2.296875 C20.359375,1.203125 20.765625,0.078125 20.953125,-0.9375 C23.28125,-2.859375 24.546875,3.40625 15.078125,9.390625 L14.765625,9.171875 C16.390625,7.484375 18.234375,5.15625 19.515625,2.8125 C14.375,2.421875 9.546875,2.046875 5.921875,1.796875 C8.6875,6.9375 11.1875,13.53125 12.453125,18.21875 C13.03125,18.21875 13.296875,18.4375 13.421875,18.75 Z" transform="translate(-0.9296875, 19.484375) scale(1, -1)"/>
</svg>