<svg height="21.890625" viewBox="0 0 24 21.890625" width="24" xmlns="http://www.w3.org/2000/svg">
<path d="M5.25,19.703125 L4.984375,19.53125 C5.71875,18.671875 6.671875,17.25 6.9375,16.203125 C8.453125,15.09375 9.71875,18.046875 5.25,19.703125 Z M10.84375,20.015625 L10.5625,19.890625 C11.203125,18.953125 11.90625,17.515625 12,16.375 C13.484375,15.125 14.96875,18.171875 10.84375,20.015625 Z M4.078125,1.421875 L5.203125,-0.34375 C5.421875,-0.265625 5.609375,-0.09375 5.71875,0.21875 C8.09375,0.84375 9.890625,1.375 11.234375,1.78125 L11.234375,-1.875 L11.453125,-1.875 C12.1875,-1.875 12.671875,-1.484375 12.671875,-1.375 L12.671875,10.109375 L14.1875,10.109375 C14.515625,10.109375 14.765625,10.21875 14.8125,10.46875 C14.1875,11.109375 13.15625,11.953125 13.15625,11.953125 L12.234375,10.796875 L10.25,10.796875 L10.25,12.75 L13.203125,12.75 C13.53125,12.75 13.75,12.859375 13.796875,13.125 C13.171875,13.75 12.140625,14.59375 12.140625,14.59375 L11.25,13.46875 L5.734375,13.46875 L5.921875,12.75 L8.765625,12.75 L8.765625,10.796875 L4.75,10.796875 L4.75,15.09375 L22.296875,15.09375 C22.65625,15.09375 22.890625,15.21875 22.96875,15.484375 C22.15625,16.21875 20.859375,17.203125 20.859375,17.203125 L19.703125,15.8125 L16.578125,15.8125 C17.515625,16.796875 18.5,18 19.125,18.90625 C19.65625,18.90625 19.96875,19.109375 20.0625,19.390625 L17.65625,20.015625 C17.234375,18.765625 16.53125,17.09375 15.9375,15.8125 L5.0625,15.8125 L3.265625,16.65625 L3.265625,10.4375 C3.265625,6.40625 3.09375,2.015625 1.0625,-1.578125 L1.421875,-1.84375 C4.484375,1.5625 4.734375,6.4375 4.75,10.109375 L6.390625,10.109375 L6.390625,1.6875 Z M15.8125,14.640625 C15.3125,11.515625 14.296875,8.515625 13.0625,6.5 L13.4375,6.234375 C14.15625,6.984375 14.828125,7.890625 15.40625,8.921875 C15.796875,6.859375 16.34375,4.9375 17.15625,3.265625 C16.171875,1.46875 14.828125,-0.125 13.03125,-1.515625 L13.265625,-1.828125 C15.171875,-0.71875 16.625,0.59375 17.78125,2.140625 C18.75,0.53125 20.015625,-0.8125 21.71875,-1.875 C21.90625,-1.15625 22.390625,-0.796875 23.046875,-0.640625 L23.109375,-0.40625 C21.171875,0.453125 19.6875,1.734375 18.53125,3.265625 C19.78125,5.328125 20.546875,7.703125 20.96875,10.421875 L22.125,10.421875 C22.46875,10.421875 22.6875,10.53125 22.75,10.796875 C22.03125,11.5 20.90625,12.390625 20.90625,12.390625 L19.890625,11.140625 L16.4375,11.140625 C16.75,11.90625 17.015625,12.71875 17.25,13.5625 C17.78125,13.5625 18.03125,13.796875 18.125,14.09375 Z M15.765625,9.625 L16.125,10.421875 L19.375,10.421875 C19.078125,8.25 18.578125,6.265625 17.765625,4.4375 C16.84375,5.953125 16.21875,7.734375 15.765625,9.625 Z M11.234375,10.109375 L11.234375,7.9375 L7.796875,7.9375 L7.796875,10.109375 Z M11.234375,7.25 L11.234375,5.046875 L7.796875,5.046875 L7.796875,7.25 Z M11.234375,4.3125 L11.234375,2.328125 L7.796875,1.84375 L7.796875,4.3125 Z" transform="translate(-0.0859375, 20.015625) scale(1, -1)"/>
</svg>