<svg height="21.25" viewBox="0 0 24 21.25" width="24" xmlns="http://www.w3.org/2000/svg">
<path d="M14.1875,17.734375 C13.734375,15.671875 12.9375,12.59375 12.21875,10.25 C13.015625,10.0625 13.515625,10.078125 13.921875,10.25 L14.328125,11.734375 L18.390625,11.734375 C17.515625,8.859375 16.15625,6.34375 14.203125,4.21875 C10.734375,7.3125 8.609375,11.734375 7.78125,17.734375 Z M1.9375,18.40625 L2.15625,17.734375 L6.078125,17.734375 C6.078125,10.015625 5.359375,3.75 0.796875,-1.609375 L1.078125,-1.875 C6.140625,2.46875 7.296875,8.015625 7.625,14.90625 C8.515625,9.796875 10.265625,5.921875 13.015625,3.078125 C10.828125,1.125 8.046875,-0.390625 4.5625,-1.4375 L4.78125,-1.796875 C8.609375,-0.9375 11.5625,0.4375 13.875,2.234375 C15.859375,0.453125 18.28125,-0.890625 21.234375,-1.875 C21.59375,-1.078125 22.296875,-0.625 23.109375,-0.625 L23.203125,-0.359375 C20.0625,0.484375 17.40625,1.703125 15.21875,3.390625 C17.546875,5.59375 19.078125,8.296875 20.140625,11.453125 C20.71875,11.5 20.96875,11.546875 21.171875,11.78125 L19.421875,13.46875 L18.3125,12.4375 L14.515625,12.4375 C15.03125,14.25 15.5,16.21875 15.765625,17.421875 C16.265625,17.46875 16.6875,17.609375 16.84375,17.8125 L14.921875,19.375 L14.09375,18.40625 Z" transform="translate(0, 19.375) scale(1, -1)"/>
</svg>