<svg height="20.484375" viewBox="0 0 24 20.484375" width="24" xmlns="http://www.w3.org/2000/svg">
<path d="M17.6875,16.734375 C16.578125,12.9375 14.78125,9.453125 12.265625,6.453125 C9.625,9.265625 7.609375,12.71875 6.453125,16.734375 Z M2.203125,17.453125 L2.421875,16.734375 L5.90625,16.734375 C6.9375,12.234375 8.78125,8.453125 11.296875,5.375 C8.609375,2.5 5.1875,0.125 0.984375,-1.5625 L1.21875,-1.9375 C5.875,-0.5 9.484375,1.625 12.265625,4.25 C14.734375,1.609375 17.734375,-0.453125 21.1875,-1.875 C21.546875,-1.109375 22.265625,-0.671875 23.0625,-0.671875 L23.15625,-0.40625 C19.46875,0.84375 16.125,2.78125 13.375,5.359375 C16.34375,8.515625 18.265625,12.28125 19.578125,16.390625 C20.1875,16.4375 20.453125,16.515625 20.640625,16.734375 L18.75,18.546875 L17.640625,17.453125 Z" transform="translate(-0.0703125, 18.546875) scale(1, -1)"/>
</svg>