<svg height="21.90625" viewBox="0 0 24 21.90625" width="24" xmlns="http://www.w3.org/2000/svg">
<path d="M20.0625,16.78125 C19.390625,12.890625 18.21875,9.140625 16.265625,5.859375 C14.296875,8.8125 13.015625,12.453125 12.390625,16.78125 Z M9.84375,17.46875 L10.0625,16.78125 L11.78125,16.78125 C12.359375,11.96875 13.578125,7.890625 15.484375,4.609375 C13.84375,2.203125 11.78125,0.09375 9.171875,-1.5625 L9.484375,-1.890625 C12.28125,-0.453125 14.46875,1.375 16.203125,3.453125 C17.65625,1.265625 19.484375,-0.53125 21.640625,-1.890625 C21.859375,-1.21875 22.46875,-0.8125 23.140625,-0.75 L23.203125,-0.5 C20.8125,0.765625 18.765625,2.5 17.109375,4.65625 C19.578125,8.1875 20.90625,12.3125 21.71875,16.515625 C22.265625,16.5625 22.515625,16.625 22.703125,16.84375 L20.921875,18.5 L19.9375,17.46875 Z M0.890625,3.71875 L1.796875,1.875 C2.015625,1.9375 2.203125,2.15625 2.28125,2.421875 C4.25,3.34375 5.859375,4.125 7.125,4.78125 L7.125,-1.84375 L7.4375,-1.84375 C8.015625,-1.84375 8.6875,-1.4375 8.6875,-1.171875 L8.6875,19.109375 C9.234375,19.203125 9.4375,19.4375 9.484375,19.75 L7.125,20.015625 L7.125,5.375 L4.015625,4.515625 L4.015625,16.734375 C4.53125,16.828125 4.703125,17.015625 4.78125,17.328125 L2.5,17.5625 L2.5,4.125 Z" transform="translate(-0.046875, 20.015625) scale(1, -1)"/>
</svg>