<svg height="22.078125" viewBox="0 0 24 22.078125" width="24" xmlns="http://www.w3.org/2000/svg">
<path d="M12.125,9.84375 C9.859375,7.34375 6.765625,5.40625 3.671875,4.0625 L3.9375,3.625 C7.3125,4.703125 10.578125,6.390625 13.109375,8.546875 C13.609375,8.421875 13.828125,8.46875 13.984375,8.6875 Z M15.125,7.578125 C12.171875,4.6875 8.421875,2.859375 4.4375,1.609375 L4.625,1.15625 C8.90625,2.140625 12.8125,3.671875 16.0625,6.234375 C16.578125,6.09375 16.828125,6.140625 16.984375,6.359375 Z M18.1875,5.09375 C14.0625,0.953125 9.171875,-0.453125 3.40625,-1.421875 L3.53125,-1.875 C9.625,-1.296875 14.5625,-0.140625 19.125,3.640625 C19.703125,3.5 19.984375,3.546875 20.15625,3.765625 Z M18.953125,13.53125 L18.703125,13.3125 C19.078125,12.984375 19.515625,12.5 19.875,12 L16.296875,11.8125 C16.984375,12.59375 17.65625,13.484375 18.125,14.234375 C18.625,14.203125 18.90625,14.421875 19.015625,14.71875 L16.828125,15.265625 C16.53125,14.203125 16.03125,12.84375 15.53125,11.78125 L14.28125,11.765625 L14.640625,11.140625 C13.890625,11.65625 13.25,12.21875 12.671875,12.8125 C13.3125,12.90625 13.578125,13.015625 13.625,13.296875 L11.0625,13.9375 C10.609375,13.125 9.953125,12.265625 9.1875,11.421875 C9.03125,12.03125 8.328125,12.75 6.765625,13.25 L6.484375,13.078125 C6.84375,12.75 7.21875,12.265625 7.515625,11.765625 L4.375,11.546875 C5.09375,12.390625 5.78125,13.3125 6.21875,14.109375 C6.71875,14.09375 7.03125,14.296875 7.125,14.59375 L4.984375,15.140625 C4.6875,14.046875 4.15625,12.59375 3.59375,11.5 L1.65625,11.421875 L2.46875,9.71875 C2.71875,9.765625 2.90625,9.90625 3.046875,10.203125 C5.109375,10.625 6.640625,11.015625 7.78125,11.28125 C7.875,11.046875 7.96875,10.796875 8.015625,10.578125 L8.234375,10.46875 C6.21875,8.5625 3.59375,6.796875 0.890625,5.59375 L0.984375,5.234375 C5.828125,6.8125 10.0625,9.859375 12.234375,12.578125 C14.203125,9.59375 17.71875,7.203125 21.859375,5.640625 C22.03125,6.234375 22.484375,6.796875 23.1875,7.015625 L23.234375,7.375 C20.46875,8.046875 17.859375,9.09375 15.71875,10.421875 L15.8125,10.53125 C17.6875,10.921875 19.125,11.234375 20.234375,11.5 C20.515625,10.984375 20.765625,10.484375 20.875,10.03125 C22.265625,9.03125 23.375,11.96875 18.953125,13.53125 Z M9.03125,20.203125 C8.65625,19.15625 8.0625,17.8125 7.4375,16.75 L3.03125,16.734375 L4.109375,14.71875 C4.34375,14.765625 4.5625,14.90625 4.703125,15.171875 C10.3125,15.625 14.421875,16.015625 17.453125,16.34375 C18.140625,15.8125 18.75,15.265625 19.125,14.734375 C21.078125,14.15625 20.875,18.03125 13.4375,19.0625 L13.25,18.75 C14.296875,18.3125 15.546875,17.65625 16.6875,16.890625 L8.40625,16.75 C9.234375,17.515625 10.078125,18.390625 10.609375,19.125 C11.109375,19.109375 11.421875,19.3125 11.515625,19.609375 Z" transform="translate(-0.1328125, 20.203125) scale(1, -1)"/>
</svg>