<svg height="22.046875" viewBox="0 0 24 22.046875" width="24" xmlns="http://www.w3.org/2000/svg">
<path d="M9.03125,19.984375 C8.40625,19.515625 7.15625,18.71875 6,18.046875 L4.0625,18.71875 L4.0625,7.875 L4.25,7.875 C5.140625,7.875 5.5625,8.203125 5.59375,8.359375 L5.59375,9.59375 L11.1875,9.59375 L11.1875,7.171875 L11.5,7.171875 C12.078125,7.171875 12.71875,7.515625 12.71875,7.734375 L12.71875,9.59375 L18.40625,9.59375 L18.40625,8.0625 L18.640625,8.0625 C19.15625,8.0625 19.9375,8.453125 19.96875,8.59375 L19.96875,17.140625 C20.421875,17.234375 20.8125,17.421875 20.96875,17.609375 L19.0625,19.109375 L18.171875,18.140625 L13.65625,18.140625 L13.84375,17.453125 L18.40625,17.453125 L18.40625,14.140625 L13.890625,14.140625 L14.109375,13.4375 L18.40625,13.4375 L18.40625,10.3125 L12.71875,10.3125 L12.71875,19.25 C13.34375,19.3125 13.5625,19.578125 13.609375,19.890625 L11.1875,20.15625 L11.1875,10.3125 L5.59375,10.3125 L5.59375,13.4375 L10.03125,13.4375 C10.34375,13.4375 10.5625,13.53125 10.625,13.796875 C9.953125,14.5 8.859375,15.359375 8.859375,15.359375 L7.890625,14.140625 L5.59375,14.140625 L5.59375,17.234375 C7.21875,17.546875 8.96875,18.078125 9.890625,18.40625 C10.203125,18.265625 10.4375,18.265625 10.578125,18.390625 Z M16.796875,6 C15.625,4.578125 14.0625,3.359375 12.1875,2.296875 C10.0625,3.234375 8.28125,4.4375 7.03125,6 Z M2.1875,6.703125 L2.40625,6 L6.390625,6 C7.484375,4.171875 9,2.734375 10.828125,1.578125 C7.96875,0.1875 4.578125,-0.8125 0.953125,-1.46875 L1.125,-1.875 C5.28125,-1.421875 8.96875,-0.5 12.09375,0.859375 C14.78125,-0.53125 18.046875,-1.390625 21.671875,-1.890625 C21.859375,-1.078125 22.375,-0.53125 23.109375,-0.359375 L23.140625,-0.125 C19.78125,0.140625 16.53125,0.71875 13.75,1.6875 C15.796875,2.78125 17.515625,4.125 18.890625,5.71875 C19.53125,5.734375 19.828125,5.8125 20.015625,6 L18.265625,7.703125 L17.0625,6.703125 Z" transform="translate(-0.046875, 20.15625) scale(1, -1)"/>
</svg>