<svg height="22.03125" viewBox="0 0 24 22.03125" width="24" xmlns="http://www.w3.org/2000/svg">
<path d="M9.453125,7.015625 L9.171875,6.84375 C10.03125,5.65625 10.984375,3.765625 11.09375,2.28125 C12.578125,0.90625 14.109375,4.34375 9.453125,7.015625 Z M3.234375,7.078125 C2.765625,4.828125 1.890625,2.546875 0.984375,1.0625 L1.34375,0.84375 C2.65625,2.046875 3.84375,3.890625 4.65625,5.921875 C5.15625,5.90625 5.421875,6.125 5.515625,6.40625 Z M7.828125,18.859375 C8.46875,18.859375 8.734375,19.015625 8.8125,19.296875 L6.28125,20.140625 C5.359375,17.609375 3,13.84375 0.625,11.734375 L0.890625,11.5 C3.71875,13.25 6.1875,16.203125 7.65625,18.59375 C9.390625,17.140625 10.625,15.390625 11.140625,14.109375 C12.5,13.015625 14.5,16.109375 7.828125,18.859375 Z M1.3125,9.1875 L1.515625,8.5 L6.40625,8.5 L6.40625,0.5 C6.40625,0.1875 6.3125,0.078125 5.90625,0.078125 C5.46875,0.078125 3.53125,0.21875 3.53125,0.21875 L3.53125,-0.140625 C4.46875,-0.265625 4.9375,-0.4375 5.28125,-0.703125 C5.515625,-0.953125 5.609375,-1.390625 5.65625,-1.875 C7.65625,-1.625 7.921875,-0.75 7.921875,0.484375 L7.921875,8.5 L12.484375,8.5 C12.8125,8.5 13.0625,8.609375 13.109375,8.859375 C12.359375,9.578125 11.15625,10.578125 11.15625,10.578125 L10.109375,9.1875 L7.921875,9.1875 L7.921875,12.3125 L11.09375,12.3125 C11.421875,12.3125 11.65625,12.4375 11.734375,12.703125 C11.015625,13.390625 9.859375,14.28125 9.859375,14.28125 L8.859375,13.03125 L3.21875,13.03125 L3.40625,12.3125 L6.40625,12.3125 L6.40625,9.1875 Z M20.09375,16.84375 C19.578125,13.203125 18.671875,9.671875 17.109375,6.546875 C15.703125,9.4375 14.78125,12.890625 14.359375,16.84375 Z M12.34375,17.5625 L12.546875,16.84375 L13.75,16.84375 C14.140625,12.359375 14.96875,8.421875 16.390625,5.203125 C14.828125,2.5625 12.765625,0.28125 10.015625,-1.484375 L10.296875,-1.828125 C13.21875,-0.34375 15.40625,1.578125 17.0625,3.765625 C18.265625,1.46875 19.828125,-0.4375 21.75,-1.890625 C21.9375,-1.21875 22.53125,-0.796875 23.25,-0.703125 L23.296875,-0.484375 C21.125,0.90625 19.34375,2.78125 17.953125,5.0625 C20.109375,8.5 21.171875,12.5 21.8125,16.578125 C22.34375,16.625 22.578125,16.6875 22.78125,16.921875 L20.953125,18.625 L19.9375,17.5625 Z" transform="translate(0.0390625, 20.140625) scale(1, -1)"/>
</svg>