<svg height="21.9375" viewBox="0 0 24 21.9375" width="24" xmlns="http://www.w3.org/2000/svg">
<path d="M11.28125,20.015625 L11.28125,15.8125 L5.328125,15.8125 L3.59375,16.609375 L3.59375,6.84375 L3.859375,6.84375 C4.484375,6.84375 5.15625,7.203125 5.15625,7.375 L5.15625,8.8125 L11.25,8.8125 C11.109375,6.84375 10.65625,5.140625 9.71875,3.671875 C8.359375,4.6875 7.265625,5.921875 6.5,7.4375 L6.125,7.15625 C6.859375,5.421875 7.875,4.03125 9.125,2.859375 C7.53125,0.984375 4.96875,-0.4375 1.03125,-1.46875 L1.15625,-1.921875 C5.421875,-1.0625 8.25,0.265625 10.0625,2.0625 C12.890625,-0.125 16.734375,-1.265625 21.53125,-1.84375 C21.71875,-1.0625 22.25,-0.53125 22.96875,-0.390625 L22.984375,-0.125 C18.125,0.21875 13.921875,1.078125 10.828125,2.921875 C12.09375,4.5625 12.671875,6.53125 12.8125,8.8125 L19.03125,8.8125 L19.03125,7.078125 L19.265625,7.078125 C19.796875,7.078125 20.59375,7.4375 20.609375,7.578125 L20.609375,14.828125 C21.09375,14.921875 21.484375,15.09375 21.625,15.28125 L19.6875,16.796875 L18.796875,15.8125 L12.859375,15.8125 L12.859375,19.109375 C13.46875,19.203125 13.65625,19.4375 13.734375,19.75 Z M19.03125,15.140625 L19.03125,9.5 L12.859375,9.5 L12.859375,9.984375 L12.859375,15.140625 Z M5.15625,9.5 L5.15625,15.140625 L11.28125,15.140625 L11.28125,9.953125 L11.28125,9.5 Z" transform="translate(-0.0078125, 20.015625) scale(1, -1)"/>
</svg>