<svg height="22.1875" viewBox="0 0 24 22.1875" width="24" xmlns="http://www.w3.org/2000/svg">
<path d="M14.96875,17.0625 L14.71875,16.828125 C15.984375,15.8125 17.421875,14.359375 18.59375,12.859375 C14.109375,12.640625 9.859375,12.4375 6.546875,12.3125 C8.421875,14.40625 10.34375,17.046875 11.515625,18.953125 C12.046875,18.90625 12.34375,19.109375 12.453125,19.390625 L9.796875,20.296875 C8.78125,17.921875 7.125,14.6875 5.640625,12.28125 C3.9375,12.21875 2.546875,12.1875 1.5625,12.1875 L2.203125,10.015625 C2.453125,10.0625 2.71875,10.21875 2.875,10.484375 C9.796875,11.1875 14.96875,11.78125 19.015625,12.3125 C19.6875,11.40625 20.203125,10.484375 20.5,9.640625 C22.578125,8.328125 23.46875,13.171875 14.96875,17.0625 Z M17.78125,7.171875 L17.78125,0.9375 L6.265625,0.9375 L6.265625,7.171875 Z M4.65625,7.890625 L4.65625,-1.890625 L4.921875,-1.890625 C5.59375,-1.890625 6.265625,-1.53125 6.265625,-1.375 L6.265625,0.234375 L17.78125,0.234375 L17.78125,-1.65625 L18,-1.65625 C18.546875,-1.65625 19.375,-1.296875 19.390625,-1.15625 L19.390625,6.859375 C19.890625,6.953125 20.28125,7.15625 20.453125,7.34375 L18.4375,8.90625 L17.546875,7.890625 L6.390625,7.890625 L4.65625,8.6875 Z" transform="translate(-0.515625, 20.296875) scale(1, -1)"/>
</svg>