<svg height="21.59375" viewBox="0 0 24 21.59375" width="24" xmlns="http://www.w3.org/2000/svg">
<path d="M4.890625,18.71875 L4.890625,11.203125 L5.140625,11.203125 C5.78125,11.203125 6.453125,11.59375 6.453125,11.734375 L6.453125,12.75 L17.609375,12.75 L17.609375,11.546875 L17.859375,11.546875 C18.359375,11.546875 19.15625,11.875 19.203125,12.03125 L19.203125,17.734375 C19.6875,17.828125 20.046875,18.03125 20.203125,18.21875 L18.234375,19.703125 L17.375,18.71875 L6.59375,18.71875 L4.890625,19.515625 Z M6.453125,13.46875 L6.453125,18.046875 L17.609375,18.046875 L17.609375,13.46875 Z M1.03125,10.015625 L1.25,9.28125 L6.625,9.28125 C6.09375,7.625 5.046875,4.984375 4.34375,3.765625 C4.984375,3.5 5.640625,3.5 6.03125,3.671875 L6.890625,5.6875 L18,5.6875 C17.5625,3.03125 16.78125,0.8125 16.0625,0.265625 C15.75,0.078125 15.5,0.03125 14.96875,0.03125 C14.421875,0.03125 12.140625,0.21875 10.921875,0.3125 L10.890625,-0.09375 C12,-0.234375 13.203125,-0.5 13.609375,-0.75 C14.015625,-1.015625 14.15625,-1.4375 14.140625,-1.890625 C15.28125,-1.890625 16.25,-1.625 16.921875,-1.125 C18.125,-0.3125 19.109375,2.40625 19.5625,5.5 C20.09375,5.546875 20.375,5.640625 20.515625,5.828125 L18.75,7.3125 L17.859375,6.390625 L7.203125,6.390625 C7.609375,7.390625 8.015625,8.421875 8.328125,9.28125 L22.375,9.28125 C22.703125,9.28125 22.9375,9.40625 22.984375,9.671875 C22.203125,10.4375 20.90625,11.453125 20.90625,11.453125 L19.75,10.015625 Z" transform="translate(-0.0078125, 19.703125) scale(1, -1)"/>
</svg>