<svg height="21.96875" viewBox="0 0 24 21.96875" width="24" xmlns="http://www.w3.org/2000/svg">
<path d="M1.390625,16.875 L1.609375,16.171875 L11.25,16.171875 L11.25,13.4375 L5.875,13.4375 L4.15625,14.203125 L4.15625,5.96875 L4.390625,5.96875 C5.0625,5.96875 5.734375,6.34375 5.734375,6.5 L5.734375,7.25 L11.0625,7.25 C10.828125,5.765625 10.3125,4.4375 9.484375,3.28125 C8.328125,4.078125 7.375,5.015625 6.640625,6.171875 L6.265625,5.875 C6.953125,4.578125 7.84375,3.484375 8.90625,2.5625 C7.3125,0.8125 4.828125,-0.5 1.0625,-1.46875 L1.171875,-1.921875 C5.28125,-1.125 8.046875,0.125 9.859375,1.796875 C12.796875,-0.3125 16.828125,-1.34375 21.75,-1.84375 C21.90625,-1.0625 22.390625,-0.546875 23.109375,-0.390625 L23.140625,-0.125 C18.1875,0.09375 13.828125,0.859375 10.609375,2.59375 C11.734375,3.90625 12.359375,5.46875 12.640625,7.25 L18.5,7.25 L18.5,6.21875 L18.75,6.21875 C19.265625,6.21875 20.0625,6.578125 20.09375,6.75 L20.09375,12.40625 C20.5625,12.5 20.953125,12.71875 21.09375,12.90625 L19.15625,14.40625 L18.265625,13.4375 L12.84375,13.4375 L12.84375,16.171875 L22.078125,16.171875 C22.421875,16.171875 22.6875,16.296875 22.75,16.5625 C21.859375,17.328125 20.5,18.390625 20.5,18.390625 L19.3125,16.875 L12.84375,16.875 L12.84375,19.125 C13.4375,19.21875 13.625,19.484375 13.703125,19.796875 L11.25,20.046875 L11.25,16.875 Z M18.5,12.71875 L18.5,7.9375 L12.75,7.9375 C12.8125,8.546875 12.84375,9.140625 12.84375,9.796875 L12.84375,12.71875 Z M5.734375,7.9375 L5.734375,12.71875 L11.25,12.71875 L11.25,9.765625 C11.25,9.140625 11.234375,8.515625 11.15625,7.9375 Z" transform="translate(-0.1015625, 20.046875) scale(1, -1)"/>
</svg>