<svg height="21.96875" viewBox="0 0 24 21.96875" width="24" xmlns="http://www.w3.org/2000/svg">
<path d="M7.21875,6 L7.703125,6.546875 L6.984375,6.90625 L6.8125,6.1875 C6.1875,5.640625 5.015625,4.75 4.34375,4.296875 L5.46875,2.953125 C5.59375,3.09375 5.6875,3.28125 5.546875,3.53125 C5.90625,4.015625 6.53125,4.921875 6.953125,5.5625 C7.53125,4.515625 8.25,3.59375 9.09375,2.8125 C7.53125,0.953125 4.984375,-0.453125 1.078125,-1.46875 L1.203125,-1.921875 C5.453125,-1.078125 8.234375,0.234375 10.03125,2.015625 C12.90625,-0.21875 16.890625,-1.296875 21.8125,-1.828125 C21.984375,-1.03125 22.484375,-0.5 23.1875,-0.359375 L23.1875,-0.09375 C18.234375,0.140625 13.875,0.9375 10.734375,2.765625 C11.78125,4.109375 12.390625,5.65625 12.640625,7.46875 L18.484375,7.46875 L18.484375,6.359375 L18.71875,6.359375 C19.25,6.359375 20.046875,6.75 20.0625,6.890625 L20.0625,12.53125 C20.546875,12.625 20.921875,12.8125 21.09375,13.015625 L19.125,14.5 L18.234375,13.53125 L12.8125,13.53125 L12.8125,16.3125 L21.9375,16.3125 C22.265625,16.3125 22.515625,16.4375 22.578125,16.703125 C21.71875,17.46875 20.359375,18.53125 20.359375,18.53125 L19.15625,17.015625 L12.8125,17.015625 L12.8125,19.125 C13.421875,19.21875 13.609375,19.484375 13.6875,19.796875 L11.234375,20.046875 L11.234375,17.015625 L1.421875,17.015625 L1.625,16.3125 L11.234375,16.3125 L11.234375,13.53125 L5.875,13.53125 L4.15625,14.296875 L4.15625,6.4375 L4.390625,6.4375 C5.0625,6.4375 5.734375,6.796875 5.734375,6.9375 L5.734375,7.46875 L11.0625,7.46875 C10.84375,5.96875 10.390625,4.65625 9.59375,3.5 C8.65625,4.203125 7.84375,5.046875 7.21875,6 Z M18.484375,12.84375 L18.484375,8.1875 L12.75,8.1875 C12.796875,8.71875 12.8125,9.234375 12.8125,9.796875 L12.8125,12.84375 Z M5.734375,8.1875 L5.734375,12.84375 L11.234375,12.84375 L11.234375,9.765625 C11.234375,9.21875 11.203125,8.6875 11.15625,8.1875 Z" transform="translate(-0.1328125, 20.046875) scale(1, -1)"/>
</svg>