<svg height="21.953125" viewBox="0 0 24 21.953125" width="24" xmlns="http://www.w3.org/2000/svg">
<path d="M17.640625,6.21875 L17.640625,0.59375 L6.546875,0.59375 L6.546875,6.21875 Z M4.984375,6.9375 L4.984375,-1.84375 L5.25,-1.84375 C5.859375,-1.84375 6.546875,-1.46875 6.546875,-1.34375 L6.546875,-0.09375 L17.640625,-0.09375 L17.640625,-1.734375 L17.875,-1.734375 C18.390625,-1.734375 19.203125,-1.375 19.21875,-1.203125 L19.21875,5.90625 C19.703125,6 20.09375,6.21875 20.25,6.40625 L18.28125,7.890625 L17.40625,6.9375 L6.671875,6.9375 L4.984375,7.703125 Z M11.203125,20.109375 L11.203125,16.03125 L6.625,16.03125 C7.078125,16.84375 7.484375,17.71875 7.828125,18.546875 C8.328125,18.53125 8.609375,18.75 8.71875,19.015625 L6.265625,19.734375 C5.546875,16.828125 4.15625,13.703125 2.59375,11.875 L2.953125,11.640625 C4.171875,12.578125 5.28125,13.875 6.1875,15.3125 L11.203125,15.3125 L11.203125,11.234375 L1.21875,11.234375 L1.4375,10.53125 L11.203125,10.53125 L11.203125,7.53125 L11.5,7.53125 C12.09375,7.53125 12.796875,7.890625 12.796875,8.09375 L12.796875,10.53125 L22.0625,10.53125 C22.390625,10.53125 22.625,10.65625 22.703125,10.921875 C21.859375,11.6875 20.5,12.75 20.5,12.75 L19.296875,11.234375 L12.796875,11.234375 L12.796875,15.3125 L20.421875,15.3125 C20.765625,15.3125 21,15.4375 21.046875,15.703125 C20.203125,16.484375 18.84375,17.546875 18.84375,17.546875 L17.640625,16.03125 L12.796875,16.03125 L12.796875,19.203125 C13.421875,19.265625 13.609375,19.515625 13.6875,19.84375 Z" transform="translate(0.0390625, 20.109375) scale(1, -1)"/>
</svg>