<svg height="21.3125" viewBox="0 0 24 21.3125" width="24" xmlns="http://www.w3.org/2000/svg">
<path d="M20.0625,10.984375 C19.375,8.515625 18.265625,6.265625 16.703125,4.3125 C15.125,6.140625 13.921875,8.375 13.21875,10.984375 Z M8.453125,18.578125 L8.65625,17.90625 L11.359375,17.90625 C11.28125,11.015625 11.109375,3.984375 4.65625,-1.34375 L5.015625,-1.78125 C10.078125,1.734375 11.828125,6.171875 12.484375,10.984375 L12.703125,10.984375 C13.3125,7.9375 14.375,5.421875 15.859375,3.34375 C13.984375,1.34375 11.59375,-0.28125 8.59375,-1.484375 L8.78125,-1.875 C12.078125,-0.84375 14.59375,0.59375 16.5625,2.40625 C18.046875,0.625 19.890625,-0.796875 22.109375,-1.84375 C22.421875,-1.125 22.96875,-0.703125 23.65625,-0.640625 L23.71875,-0.40625 C21.359375,0.453125 19.265625,1.734375 17.5625,3.390625 C19.515625,5.5 20.8125,8.015625 21.71875,10.78125 C22.265625,10.796875 22.515625,10.875 22.703125,11.09375 L21.03125,12.640625 L20.015625,11.71875 L18.40625,11.71875 L19.34375,17.78125 C19.78125,17.8125 19.96875,17.859375 20.140625,18.046875 L18.484375,19.4375 L17.734375,18.578125 Z M12.890625,17.90625 L17.8125,17.90625 L16.796875,11.71875 L12.578125,11.71875 C12.796875,13.734375 12.84375,15.796875 12.890625,17.90625 Z M6.625,16.984375 L6.625,6.71875 L3.34375,6.71875 L3.34375,16.984375 Z M1.890625,17.6875 L1.890625,2.453125 L2.140625,2.453125 C2.8125,2.453125 3.34375,2.8125 3.34375,3 L3.34375,6.03125 L6.625,6.03125 L6.625,3.859375 L6.84375,3.859375 C7.34375,3.859375 8.0625,4.265625 8.09375,4.421875 L8.09375,16.703125 C8.5625,16.796875 8.953125,16.984375 9.09375,17.1875 L7.21875,18.640625 L6.390625,17.6875 L3.453125,17.6875 L1.890625,18.4375 Z" transform="translate(-0.8046875, 19.4375) scale(1, -1)"/>
</svg>