<svg height="21.984375" viewBox="0 0 24 21.984375" width="24" xmlns="http://www.w3.org/2000/svg">
<path d="M17.40625,6.4375 L17.40625,0.59375 L6.546875,0.59375 L6.546875,6.4375 Z M4.984375,7.125 L4.984375,-1.875 L5.234375,-1.875 C5.875,-1.875 6.546875,-1.484375 6.546875,-1.34375 L6.546875,-0.09375 L17.40625,-0.09375 L17.40625,-1.78125 L17.640625,-1.78125 C18.171875,-1.78125 18.953125,-1.390625 18.984375,-1.25 L18.984375,6.125 C19.46875,6.21875 19.84375,6.40625 20.015625,6.59375 L18.078125,8.109375 L17.15625,7.125 L6.671875,7.125 L4.984375,7.890625 Z M5.96875,19.875 C5.375,16.9375 4.15625,13.703125 2.8125,11.765625 L3.171875,11.546875 C4.25,12.53125 5.234375,13.875 6.046875,15.3125 L11.203125,15.3125 L11.203125,10.6875 L1.0625,10.6875 L1.265625,9.984375 L22.3125,9.984375 C22.65625,9.984375 22.890625,10.109375 22.96875,10.375 C22.125,11.140625 20.765625,12.21875 20.765625,12.21875 L19.53125,10.6875 L12.796875,10.6875 L12.796875,15.3125 L20.421875,15.3125 C20.765625,15.3125 21,15.4375 21.046875,15.703125 C20.203125,16.46875 18.84375,17.515625 18.84375,17.515625 L17.640625,16.015625 L12.796875,16.015625 L12.796875,19.203125 C13.390625,19.296875 13.625,19.53125 13.6875,19.875 L11.203125,20.109375 L11.203125,16.015625 L6.4375,16.015625 C6.859375,16.890625 7.25,17.8125 7.5625,18.703125 C8.0625,18.703125 8.359375,18.90625 8.421875,19.203125 Z" transform="translate(-0.015625, 20.109375) scale(1, -1)"/>
</svg>