<svg height="20.515625" viewBox="0 0 24 20.515625" width="24" xmlns="http://www.w3.org/2000/svg">
<path d="M6.34375,10.609375 L6.34375,11.71875 L17.640625,11.71875 L17.640625,10.625 L17.875,10.625 C18.390625,10.625 19.171875,10.984375 19.203125,11.140625 L19.203125,17.28125 C19.703125,17.375 20.09375,17.5625 20.234375,17.765625 L18.28125,19.25 L17.40625,18.28125 L6.484375,18.28125 L4.78125,19.0625 L4.78125,10.078125 L5.015625,10.078125 C5.65625,10.078125 6.34375,10.4375 6.34375,10.609375 Z M17.640625,17.5625 L17.640625,12.40625 L6.34375,12.40625 L6.34375,17.5625 Z M20.5,0.9375 L19.3125,-0.546875 L12.75,-0.546875 L12.75,3.71875 L20.09375,3.71875 C20.421875,3.71875 20.65625,3.84375 20.6875,4.109375 C19.921875,4.875 18.625,5.875 18.625,5.875 L17.5,4.4375 L12.75,4.4375 L12.75,8.015625 C15.09375,8.234375 17.296875,8.5 19.125,8.8125 C19.734375,8.546875 20.140625,8.515625 20.375,8.734375 L18.671875,10.421875 C15.125,9.4375 8.5,8.375 3.09375,8.015625 L3.171875,7.5625 C5.78125,7.5625 8.515625,7.6875 11.140625,7.875 L11.140625,4.4375 L3.71875,4.4375 L3.90625,3.71875 L11.140625,3.71875 L11.140625,-0.546875 L1.375,-0.546875 L1.578125,-1.265625 L22.0625,-1.265625 C22.390625,-1.265625 22.609375,-1.15625 22.6875,-0.890625 C21.84375,-0.125 20.5,0.9375 20.5,0.9375 Z" transform="translate(-0.03125, 19.25) scale(1, -1)"/>
</svg>