<svg height="22" viewBox="0 0 24 22" width="24" xmlns="http://www.w3.org/2000/svg">
<path d="M16.75,6.359375 L16.75,0.859375 L7.078125,0.859375 L7.078125,6.359375 Z M16.578125,7.0625 L7.203125,7.0625 L6.125,7.5625 C7.875,8.96875 9.265625,10.625 10.34375,12.5 L13.890625,12.5 C14.765625,10.703125 16.015625,9.09375 17.5,7.78125 L17.375,7.875 Z M18,20.109375 C14.515625,18.8125 7.78125,17.40625 2.28125,16.84375 L2.328125,16.390625 C4.890625,16.46875 7.609375,16.6875 10.171875,16.984375 C9.859375,15.671875 9.40625,14.40625 8.828125,13.203125 L1.0625,13.203125 L1.265625,12.5 L8.46875,12.5 C6.8125,9.4375 4.25,6.796875 0.71875,4.828125 L0.90625,4.484375 C2.640625,5.234375 4.171875,6.09375 5.515625,7.109375 L5.515625,-1.890625 L5.765625,-1.890625 C6.40625,-1.890625 7.078125,-1.53125 7.078125,-1.390625 L7.078125,0.140625 L16.75,0.140625 L16.75,-1.703125 L16.984375,-1.703125 C17.546875,-1.703125 18.34375,-1.3125 18.359375,-1.15625 L18.359375,6.265625 C18.625,6.34375 18.859375,6.453125 18.984375,6.59375 C19.84375,6 20.765625,5.5 21.703125,5.09375 C21.84375,5.78125 22.4375,6.234375 23.234375,6.484375 L23.28125,6.75 C20.0625,7.65625 16.34375,9.703125 14.5625,12.5 L22.3125,12.5 C22.65625,12.5 22.890625,12.625 22.96875,12.890625 C22.078125,13.65625 20.640625,14.71875 20.640625,14.71875 L19.421875,13.203125 L10.734375,13.203125 C11.375,14.46875 11.90625,15.8125 12.3125,17.25 C14.640625,17.59375 16.796875,17.96875 18.578125,18.390625 C19.21875,18.125 19.65625,18.125 19.890625,18.34375 Z" transform="translate(0, 20.109375) scale(1, -1)"/>
</svg>