<svg height="21.265625" viewBox="0 0 24 21.265625" width="24" xmlns="http://www.w3.org/2000/svg">
<path d="M3.84375,18.28125 L3.84375,11.25 C3.84375,6.703125 3.53125,2.0625 0.90625,-1.578125 L1.265625,-1.84375 C5.0625,1.75 5.375,7.03125 5.375,11.28125 L5.375,17.59375 L19.15625,17.59375 L19.15625,0.703125 C19.15625,0.3125 19.03125,0.140625 18.546875,0.140625 C18.046875,0.140625 15.53125,0.34375 15.53125,0.34375 L15.53125,-0.046875 C16.625,-0.1875 17.28125,-0.359375 17.640625,-0.640625 C17.953125,-0.890625 18.09375,-1.3125 18.171875,-1.828125 C20.453125,-1.609375 20.71875,-0.765625 20.71875,0.5 L20.71875,17.1875 C21.3125,17.28125 21.75,17.515625 21.953125,17.734375 L19.734375,19.421875 L18.859375,18.28125 L5.65625,18.28125 L3.84375,19.109375 Z M11.09375,16.921875 L11.09375,14.328125 L6.84375,14.328125 L7.03125,13.609375 L11.09375,13.609375 L11.09375,10.734375 L6.34375,10.734375 L6.53125,10.0625 L17.453125,10.0625 C17.765625,10.0625 18,10.171875 18.046875,10.421875 C17.328125,11.09375 16.171875,12 16.171875,12 L15.140625,10.734375 L12.578125,10.734375 L12.578125,13.609375 L16.875,13.609375 C17.203125,13.609375 17.421875,13.734375 17.5,13.984375 C16.796875,14.640625 15.703125,15.4375 15.703125,15.4375 L14.765625,14.328125 L12.578125,14.328125 L12.578125,16.15625 C13.0625,16.21875 13.21875,16.421875 13.265625,16.703125 Z M7.796875,7.78125 L7.796875,0.75 L8.046875,0.75 C8.65625,0.75 9.28125,1.078125 9.28125,1.21875 L9.28125,2.5625 L14.8125,2.5625 L14.8125,1.25 L15.03125,1.25 C15.53125,1.25 16.265625,1.609375 16.296875,1.78125 L16.296875,6.90625 C16.703125,6.984375 16.984375,7.15625 17.140625,7.265625 L15.40625,8.640625 L14.609375,7.78125 L9.40625,7.78125 L7.796875,8.515625 Z M9.28125,3.265625 L9.28125,7.078125 L14.8125,7.078125 L14.8125,3.265625 Z" transform="translate(0.5703125, 19.421875) scale(1, -1)"/>
</svg>