<svg height="21.921875" viewBox="0 0 24 21.921875" width="24" xmlns="http://www.w3.org/2000/svg">
<path d="M9.890625,18.9375 L9.625,18.75 C10.609375,17.65625 11.734375,15.84375 11.953125,14.40625 C13.609375,13.078125 15.078125,16.703125 9.890625,18.9375 Z M20.328125,19.0625 C19.703125,17.296875 18.859375,15.40625 18.21875,14.234375 L18.546875,13.984375 C19.625,14.921875 20.828125,16.34375 21.8125,17.71875 C22.3125,17.640625 22.609375,17.828125 22.734375,18.09375 Z M10.625,12.671875 L10.625,-1.828125 L10.890625,-1.828125 C11.5625,-1.828125 12.171875,-1.46875 12.171875,-1.265625 L12.171875,4.3125 L19.96875,4.3125 L19.96875,0.671875 C19.96875,0.28125 19.84375,0.140625 19.4375,0.140625 C18.90625,0.140625 16.484375,0.34375 16.484375,0.34375 L16.484375,-0.03125 C17.5625,-0.171875 18.140625,-0.359375 18.53125,-0.640625 C18.84375,-0.90625 18.953125,-1.3125 19.03125,-1.828125 C21.28125,-1.578125 21.546875,-0.796875 21.546875,0.453125 L21.546875,11.6875 C22.015625,11.78125 22.390625,11.953125 22.5625,12.140625 L20.546875,13.6875 L19.734375,12.671875 L16.734375,12.671875 L16.734375,19.203125 C17.296875,19.296875 17.515625,19.515625 17.5625,19.84375 L15.171875,20.09375 L15.171875,12.671875 L12.3125,12.671875 L10.625,13.46875 Z M12.171875,8.15625 L19.96875,8.15625 L19.96875,5.046875 L12.171875,5.046875 Z M12.171875,8.859375 L12.171875,11.96875 L19.96875,11.96875 L19.96875,8.859375 Z M6.90625,16.203125 L6.90625,6.453125 L3.53125,6.453125 L3.53125,16.203125 Z M2.046875,16.890625 L2.046875,2.546875 L2.296875,2.546875 C2.953125,2.546875 3.53125,2.90625 3.53125,3.09375 L3.53125,5.734375 L6.90625,5.734375 L6.90625,3.75 L7.125,3.75 C7.625,3.75 8.40625,4.109375 8.421875,4.25 L8.421875,15.90625 C8.90625,16.015625 9.28125,16.203125 9.453125,16.390625 L7.53125,17.875 L6.671875,16.890625 L3.640625,16.890625 L2.046875,17.65625 Z" transform="translate(-0.390625, 20.09375) scale(1, -1)"/>
</svg>