<svg height="21.859375" viewBox="0 0 24 21.859375" width="24" xmlns="http://www.w3.org/2000/svg">
<path d="M18.40625,18.21875 L18.171875,18.03125 C19.515625,16.84375 21.21875,14.875 21.671875,13.34375 C23.46875,12.125 24.640625,15.953125 18.40625,18.21875 Z M12.125,18.546875 C11.25,16.15625 9.890625,13.796875 8.71875,12.34375 L9,12.078125 C10.6875,13.25 12.34375,15.09375 13.578125,17.15625 C14.09375,17.0625 14.375,17.25 14.5,17.515625 Z M10.890625,12.671875 L10.890625,-1.828125 L11.15625,-1.828125 C11.828125,-1.828125 12.4375,-1.46875 12.4375,-1.265625 L12.4375,4.3125 L19.75,4.3125 L19.75,0.578125 C19.75,0.21875 19.625,0.078125 19.21875,0.078125 C18.703125,0.078125 16.296875,0.265625 16.296875,0.265625 L16.296875,-0.125 C17.359375,-0.28125 17.953125,-0.453125 18.3125,-0.71875 C18.625,-0.984375 18.75,-1.421875 18.8125,-1.921875 C21.078125,-1.6875 21.328125,-0.859375 21.328125,0.390625 L21.328125,11.6875 C21.796875,11.78125 22.171875,11.953125 22.3125,12.140625 L20.328125,13.6875 L19.53125,12.671875 L16.875,12.671875 L16.875,19.0625 C17.453125,19.15625 17.65625,19.375 17.71875,19.703125 L15.3125,19.9375 L15.3125,12.671875 L12.546875,12.671875 L10.890625,13.46875 Z M12.4375,8.15625 L19.75,8.15625 L19.75,5.046875 L12.4375,5.046875 Z M12.4375,8.859375 L12.4375,11.96875 L19.75,11.96875 L19.75,8.859375 Z M6.75,16.21875 L6.75,6.28125 L3.359375,6.28125 L3.359375,16.21875 Z M1.875,16.890625 L1.875,2.203125 L2.140625,2.203125 C2.78125,2.203125 3.359375,2.5625 3.359375,2.765625 L3.359375,5.59375 L6.75,5.59375 L6.75,3.4375 L6.984375,3.4375 C7.484375,3.4375 8.25,3.84375 8.28125,4.015625 L8.28125,15.90625 C8.765625,16.015625 9.125,16.203125 9.28125,16.390625 L7.375,17.875 L6.5,16.890625 L3.484375,16.890625 L1.875,17.6875 Z" transform="translate(-1.2578125, 19.9375) scale(1, -1)"/>
</svg>