<svg height="22.03125" viewBox="0 0 24 22.03125" width="24" xmlns="http://www.w3.org/2000/svg">
<path d="M3.390625,17.15625 L3.390625,11.15625 C3.390625,6.859375 3.171875,2.28125 0.890625,-1.4375 L1.25,-1.703125 C4.421875,1.6875 4.875,6.4375 4.921875,10.25 L12.046875,10.25 L12.046875,7.734375 L6.09375,7.734375 L6.3125,7.03125 L17.859375,7.03125 L17.859375,6.125 L18.09375,6.125 C18.578125,6.125 19.34375,6.453125 19.375,6.625 L19.375,10.25 L22.609375,10.25 C22.9375,10.25 23.15625,10.375 23.203125,10.609375 C22.53125,11.328125 21.359375,12.265625 21.359375,12.265625 L20.328125,10.9375 L19.375,10.9375 L19.375,12.890625 C19.875,12.984375 20.234375,13.171875 20.40625,13.375 L18.453125,14.828125 L17.609375,13.875 L13.609375,13.875 L13.609375,15.09375 C14.15625,15.1875 14.40625,15.40625 14.453125,15.75 L12.046875,15.984375 L12.046875,13.875 L6.359375,13.875 L6.578125,13.171875 L12.046875,13.171875 L12.046875,10.9375 L4.921875,10.9375 L4.921875,11.1875 L4.921875,16.46875 L22.375,16.46875 C22.703125,16.46875 22.9375,16.578125 22.984375,16.828125 C22.171875,17.59375 20.859375,18.640625 20.859375,18.640625 L19.6875,17.15625 L13.34375,17.15625 L13.34375,19.21875 C13.921875,19.296875 14.1875,19.53125 14.203125,19.875 L11.78125,20.109375 L11.78125,17.15625 L5.203125,17.15625 L3.390625,17.96875 Z M13.609375,10.25 L17.859375,10.25 L17.859375,7.734375 L13.609375,7.734375 Z M13.609375,10.9375 L13.609375,13.171875 L17.859375,13.171875 L17.859375,10.9375 Z M7.015625,4.6875 L7.015625,-1.921875 L7.25,-1.921875 C7.984375,-1.921875 8.46875,-1.578125 8.46875,-1.46875 L8.46875,-0.578125 L17.96875,-0.578125 L17.96875,-1.828125 L18.21875,-1.828125 C18.9375,-1.828125 19.515625,-1.484375 19.515625,-1.375 L19.515625,3.890625 C19.984375,3.984375 20.203125,4.109375 20.359375,4.265625 L18.671875,5.5625 L17.90625,4.6875 L8.765625,4.6875 L7.015625,5.421875 Z M8.46875,0.140625 L8.46875,3.984375 L17.96875,3.984375 L17.96875,0.140625 Z" transform="translate(-0.046875, 20.109375) scale(1, -1)"/>
</svg>