<svg height="22.78125" viewBox="0 0 24 22.78125" width="24" xmlns="http://www.w3.org/2000/svg">
<path d="M16.890625,11.109375 L16.6875,10.921875 C17.78125,9.953125 18.984375,8.296875 19.203125,6.90625 C20.875,5.65625 22.171875,9.40625 16.890625,11.109375 Z M15.84375,4.078125 L15.59375,3.84375 C17.40625,2.59375 19.609375,0.390625 20.1875,-1.46875 C22.25,-2.71875 23.203125,1.828125 15.84375,4.078125 Z M19.15625,18.71875 C19.65625,15.390625 20.90625,12.890625 22.421875,11.015625 C22.53125,11.640625 22.984375,12.140625 23.5625,12.34375 L23.609375,12.59375 C21.8125,13.984375 20.203125,16.203125 19.515625,19.015625 C19.984375,19.0625 20.15625,19.15625 20.234375,19.390625 L17.734375,19.9375 C17.59375,18.453125 17.109375,16.734375 16.4375,15.078125 C15.703125,15.796875 14.5625,16.75 14.5625,16.75 L13.53125,15.34375 L11.859375,15.34375 L11.859375,19.171875 C12.4375,19.265625 12.671875,19.515625 12.71875,19.84375 L10.390625,20.0625 L10.390625,15.34375 L7.109375,15.34375 L7.109375,16.484375 C7.5625,16.578125 7.9375,16.75 8.109375,16.9375 L6.234375,18.4375 L5.421875,17.46875 L3.34375,17.46875 L1.796875,18.21875 L1.796875,1.75 L2.0625,1.75 C2.6875,1.75 3.21875,2.109375 3.21875,2.28125 L3.21875,4.9375 L5.640625,4.9375 L5.640625,3.078125 L5.859375,3.078125 C6.359375,3.078125 7.078125,3.4375 7.109375,3.625 L7.109375,14.734375 L7.125,14.640625 L9.703125,14.640625 C9.71875,8.1875 9.140625,2.953125 5.515625,-1.5625 L5.828125,-1.84375 C9.484375,1.46875 10.625,5.546875 11.015625,10.5625 L13.3125,10.5625 C13.125,4.25 12.671875,1.15625 11.96875,0.484375 C11.765625,0.265625 11.5625,0.1875 11.15625,0.1875 C10.734375,0.1875 9.625,0.28125 8.921875,0.359375 L8.90625,-0.046875 C9.546875,-0.171875 10.171875,-0.359375 10.4375,-0.578125 C10.703125,-0.8125 10.75,-1.203125 10.75,-1.65625 C11.59375,-1.65625 12.40625,-1.390625 13.015625,-0.765625 C13.96875,0.234375 14.546875,3.40625 14.734375,10.390625 C15.234375,10.46875 15.5,10.578125 15.671875,10.78125 L15.140625,11.203125 C16.96875,13.0625 18.453125,15.71875 19.15625,18.71875 Z M13.109375,11.28125 L11.09375,11.28125 C11.15625,12.359375 11.1875,13.46875 11.234375,14.640625 L15.859375,14.640625 C16.109375,14.640625 16.265625,14.6875 16.34375,14.828125 C15.859375,13.65625 15.28125,12.53125 14.6875,11.59375 L13.921875,12.21875 Z M5.640625,16.75 L5.640625,5.65625 L3.21875,5.65625 L3.21875,16.75 Z" transform="translate(-0.703125, 20.0625) scale(1, -1)"/>
</svg>