<svg height="21.671875" viewBox="0 0 24 21.671875" width="24" xmlns="http://www.w3.org/2000/svg">
<path d="M21.171875,14.6875 C20.515625,13.65625 19.109375,11.875 17.828125,10.5625 C17.1875,12.671875 16.75,15.046875 16.53125,17.640625 L22.46875,17.640625 C22.796875,17.640625 23.015625,17.765625 23.09375,18.03125 C22.25,18.796875 20.875,19.84375 20.875,19.84375 L19.6875,18.34375 L7.203125,18.34375 L7.375,17.640625 L13.46875,17.640625 C12.09375,15.40625 9.90625,13.265625 7.390625,11.765625 L7.65625,11.375 C9.359375,12.140625 10.9375,13.0625 12.28125,14.140625 C12.671875,13.625 13.015625,13.109375 13.3125,12.546875 C12.703125,11.640625 11.875,10.703125 10.96875,9.84375 C10.421875,10.421875 9.703125,10.9375 8.875,11.421875 L8.640625,11.25 C9.21875,10.625 9.703125,9.8125 10.03125,9 C9.171875,8.28125 8.234375,7.625 7.34375,7.125 L7.515625,6.71875 C8.453125,7.125 9.4375,7.609375 10.375,8.140625 C10.53125,7.65625 10.625,7.171875 10.6875,6.796875 C11.15625,5.234375 12.8125,6.078125 12.3125,7.703125 C12.1875,8.140625 11.96875,8.546875 11.6875,8.96875 C12.59375,9.578125 13.421875,10.203125 14.109375,10.828125 C14.375,10.171875 14.5625,9.5 14.734375,8.828125 C12.671875,5.609375 8.8125,2.546875 5.140625,0.8125 L5.359375,0.4375 C9.03125,1.78125 12.71875,4.0625 15.140625,6.484375 C15.40625,3.765625 15,1.390625 14.203125,0.390625 C14.015625,0.140625 13.78125,0.125 13.390625,0.125 C12.765625,0.125 10.921875,0.21875 9.859375,0.3125 L9.859375,-0.09375 C10.84375,-0.265625 11.78125,-0.484375 12.078125,-0.71875 C12.390625,-0.9375 12.578125,-1.3125 12.59375,-1.828125 C14.015625,-1.828125 14.90625,-1.53125 15.4375,-0.890625 C17.5625,1.46875 17.65625,9.578125 12.671875,14.453125 C13.796875,15.40625 14.765625,16.46875 15.5,17.640625 L16.03125,17.640625 C16.46875,9.84375 17.859375,4.34375 21.546875,0.71875 C21.953125,1.4375 22.609375,1.875 23.328125,1.84375 L23.421875,2.046875 C20.921875,3.890625 19.15625,6.59375 18,10.015625 C19.65625,10.921875 21.40625,12.1875 22.3125,12.984375 C22.796875,12.796875 23.15625,12.9375 23.296875,13.15625 Z M1.890625,17.046875 L1.890625,2.28125 L2.140625,2.28125 C2.765625,2.28125 3.3125,2.640625 3.3125,2.8125 L3.3125,5.46875 L5.859375,5.46875 L5.859375,3.265625 L6.078125,3.265625 C6.578125,3.265625 7.296875,3.640625 7.34375,3.8125 L7.34375,16.078125 C7.78125,16.171875 8.15625,16.375 8.328125,16.53125 L6.453125,18 L5.609375,17.046875 L3.4375,17.046875 L1.890625,17.78125 Z M5.859375,16.375 L5.859375,6.171875 L3.3125,6.171875 L3.3125,16.375 Z" transform="translate(-0.65625, 19.84375) scale(1, -1)"/>
</svg>