<svg height="21.671875" viewBox="0 0 24 21.671875" width="24" xmlns="http://www.w3.org/2000/svg">
<path d="M21.1875,14.6875 C20.546875,13.6875 19.171875,11.953125 17.90625,10.625 C17.28125,12.71875 16.84375,15.078125 16.625,17.640625 L22.46875,17.640625 C22.796875,17.640625 23.046875,17.765625 23.09375,18.03125 C22.25,18.796875 20.90625,19.84375 20.90625,19.84375 L19.6875,18.34375 L7.53125,18.34375 L7.734375,17.640625 L13.578125,17.640625 C12.234375,15.4375 10.171875,13.34375 7.78125,11.859375 L8.015625,11.5 C9.625,12.21875 11.140625,13.109375 12.4375,14.140625 C12.765625,13.65625 13.0625,13.15625 13.3125,12.640625 C12.046875,10.609375 9.75,8.5 7.578125,7.21875 L7.796875,6.859375 C10.0625,7.828125 12.453125,9.390625 14.09375,10.890625 C14.296875,10.296875 14.46875,9.703125 14.609375,9.09375 C12.640625,5.859375 9.046875,2.859375 5.515625,1.109375 L5.71875,0.75 C9.21875,2.0625 12.703125,4.34375 15.03125,6.75 C15.34375,3.90625 14.921875,1.421875 14.1875,0.390625 C14.015625,0.125 13.75,0.09375 13.390625,0.09375 C12.765625,0.09375 10.984375,0.21875 9.9375,0.28125 L9.9375,-0.09375 C10.875,-0.28125 11.8125,-0.5 12.078125,-0.71875 C12.390625,-0.953125 12.578125,-1.3125 12.59375,-1.828125 C14.015625,-1.828125 14.90625,-1.515625 15.390625,-0.890625 C17.40625,1.4375 17.515625,9.578125 12.8125,14.453125 C13.9375,15.40625 14.90625,16.46875 15.625,17.640625 L16.125,17.640625 C16.5625,9.84375 17.953125,4.34375 21.640625,0.71875 C22.0625,1.4375 22.703125,1.875 23.421875,1.84375 L23.515625,2.046875 C21,3.890625 19.25,6.59375 18.09375,10.0625 C19.734375,10.96875 21.4375,12.21875 22.34375,12.984375 C22.828125,12.796875 23.1875,12.9375 23.328125,13.15625 Z M6,16.21875 L6,5.921875 L3.3125,5.921875 L3.3125,16.21875 Z M1.890625,16.921875 L1.890625,2.140625 L2.140625,2.140625 C2.765625,2.140625 3.3125,2.5 3.3125,2.65625 L3.3125,5.234375 L6,5.234375 L6,3.5 L6.21875,3.5 C6.75,3.5 7.46875,3.890625 7.484375,4.0625 L7.484375,15.953125 C7.9375,16.03125 8.328125,16.21875 8.46875,16.421875 L6.625,17.859375 L5.765625,16.921875 L3.4375,16.921875 L1.890625,17.65625 Z" transform="translate(-0.703125, 19.84375) scale(1, -1)"/>
</svg>