<svg height="21.96875" viewBox="0 0 24 21.96875" width="24" xmlns="http://www.w3.org/2000/svg">
<path d="M1.203125,18.390625 L1.390625,17.6875 L12.03125,17.6875 C12.34375,17.6875 12.59375,17.8125 12.640625,18.078125 C11.875,18.796875 10.609375,19.78125 10.609375,19.78125 L9.5,18.390625 Z M17.328125,5.90625 L17.328125,0.5 L6.59375,0.5 L6.59375,5.90625 Z M5.046875,6.59375 L5.046875,-1.875 L5.28125,-1.875 C5.90625,-1.875 6.59375,-1.484375 6.59375,-1.34375 L6.59375,-0.1875 L17.328125,-0.1875 L17.328125,-1.796875 L17.5625,-1.796875 C18.09375,-1.796875 18.890625,-1.421875 18.90625,-1.25 L18.90625,5.65625 C19.3125,5.734375 19.6875,5.921875 19.828125,6.09375 L17.953125,7.53125 L17.09375,6.59375 L6.75,6.59375 L5.046875,7.375 Z M9.3125,14.875 L9.3125,11.515625 L4.15625,11.515625 C4.203125,12.03125 4.203125,12.53125 4.203125,12.984375 L4.203125,14.875 Z M2.6875,15.578125 L2.6875,12.953125 C2.6875,10.609375 2.5625,8.015625 0.9375,5.828125 L1.21875,5.546875 C3.171875,7.015625 3.84375,9 4.078125,10.828125 L9.3125,10.828125 L9.3125,9.578125 L9.546875,9.578125 C10.0625,9.578125 10.796875,9.9375 10.828125,10.109375 L10.828125,14.65625 C11.234375,14.734375 11.609375,14.921875 11.734375,15.09375 L9.9375,16.46875 L9.09375,15.578125 L4.46875,15.578125 L2.6875,16.375 Z M14.828125,20.09375 C14.15625,17.25 12.859375,14.234375 11.375,12.484375 L11.71875,12.234375 C12.71875,13.015625 13.625,14.046875 14.40625,15.1875 C14.859375,13.703125 15.4375,12.359375 16.21875,11.1875 C14.71875,9.671875 12.671875,8.46875 9.953125,7.53125 L10.125,7.171875 C12.953125,7.890625 15.1875,8.875 16.890625,10.25 C18.09375,8.734375 19.734375,7.53125 21.953125,6.671875 C22.109375,7.421875 22.5625,7.828125 23.1875,7.984375 L23.234375,8.234375 C20.921875,8.828125 19.171875,9.796875 17.8125,11.046875 C19.21875,12.40625 20.1875,14.09375 20.78125,16.171875 L22.375,16.171875 C22.703125,16.171875 22.9375,16.296875 22.984375,16.5625 C22.21875,17.28125 20.96875,18.3125 20.96875,18.3125 L19.875,16.875 L15.390625,16.875 C15.75,17.546875 16.0625,18.234375 16.3125,18.90625 C16.796875,18.90625 17.09375,19.125 17.15625,19.421875 Z M16.921875,11.96875 C15.984375,13.0625 15.28125,14.328125 14.734375,15.75 L15,16.171875 L18.984375,16.171875 C18.578125,14.5625 17.90625,13.171875 16.921875,11.96875 Z" transform="translate(-0.0859375, 20.09375) scale(1, -1)"/>
</svg>