<svg height="21.578125" viewBox="0 0 24 21.578125" width="24" xmlns="http://www.w3.org/2000/svg">
<path d="M18.984375,18.078125 L18.984375,15.546875 L11.5625,15.546875 L11.5625,18.078125 Z M10.109375,18.765625 L10.109375,10.390625 L10.34375,10.390625 C10.9375,10.390625 11.5625,10.734375 11.5625,10.84375 L11.5625,11.640625 L18.984375,11.640625 L18.984375,10.609375 L19.21875,10.609375 C19.734375,10.609375 20.5,10.9375 20.515625,11.09375 L20.515625,17.765625 C21,17.859375 21.390625,18.046875 21.546875,18.234375 L19.625,19.734375 L18.75,18.765625 L11.71875,18.765625 L10.109375,19.484375 Z M11.5625,14.875 L18.984375,14.875 L18.984375,12.34375 L11.5625,12.34375 Z M6.234375,16.921875 L6.234375,8.046875 L3.3125,8.046875 L3.3125,16.921875 Z M1.875,17.609375 L1.875,4.265625 L2.109375,4.265625 C2.765625,4.265625 3.3125,4.625 3.3125,4.796875 L3.3125,7.34375 L6.234375,7.34375 L6.234375,5.546875 L6.484375,5.546875 C6.984375,5.546875 7.703125,5.90625 7.75,6.046875 L7.75,16.625 C8.234375,16.703125 8.609375,16.921875 8.78125,17.109375 L6.859375,18.578125 L6,17.609375 L3.4375,17.609375 L1.875,18.390625 Z M16.15625,7.296875 C15.21875,6.546875 13.3125,5.296875 11.71875,4.46875 L11.71875,6.796875 C12.125,6.84375 12.34375,7.0625 12.390625,7.34375 L11.609375,7.4375 L12.28125,8.234375 L20.640625,8.234375 C20.40625,3.625 19.984375,0.859375 19.390625,0.28125 C19.15625,0.125 18.953125,0.046875 18.53125,0.046875 C18.09375,0.046875 16.625,0.171875 15.796875,0.265625 L15.765625,-0.140625 C16.578125,-0.28125 17.375,-0.484375 17.6875,-0.75 C18,-0.984375 18.078125,-1.421875 18.078125,-1.84375 C18.984375,-1.84375 19.828125,-1.609375 20.421875,-1.0625 C21.40625,-0.171875 21.953125,2.734375 22.15625,8.046875 C22.65625,8.09375 22.9375,8.203125 23.109375,8.40625 L21.3125,9.890625 L20.40625,8.90625 L12.8125,8.90625 C13.203125,9.4375 13.53125,9.953125 13.84375,10.46875 C14.453125,10.390625 14.640625,10.46875 14.734375,10.734375 L12.34375,11.453125 C11.109375,8.46875 8.46875,5.1875 5.6875,3.34375 L5.953125,3 C7.484375,3.765625 8.953125,4.84375 10.25,6.046875 L10.25,2.921875 C10.25,1.3125 10.53125,0.9375 12.34375,0.9375 L16.0625,0.9375 C17.6875,0.9375 18.265625,1.34375 18.265625,1.9375 C18.265625,2.234375 18.171875,2.28125 17.59375,2.546875 L17.546875,4.078125 L17.234375,4.078125 C17.046875,3.234375 16.875,2.65625 16.734375,2.46875 C16.625,2.28125 16.421875,2.28125 16.078125,2.28125 L12.40625,2.28125 C11.734375,2.28125 11.71875,2.328125 11.71875,2.875 L11.71875,4.015625 C13.65625,4.484375 15.859375,5.359375 16.984375,5.859375 C17.328125,5.71875 17.5625,5.71875 17.6875,5.875 Z" transform="translate(-0.4921875, 19.734375) scale(1, -1)"/>
</svg>