<svg height="21.640625" viewBox="0 0 24 21.640625" width="24" xmlns="http://www.w3.org/2000/svg">
<path d="M1.875,17.6875 L1.875,2.90625 L2.109375,2.90625 C2.734375,2.90625 3.265625,3.265625 3.265625,3.4375 L3.265625,6.640625 L5.8125,6.640625 L5.8125,4.484375 L6,4.484375 C6.5,4.484375 7.203125,4.84375 7.21875,4.984375 L7.21875,16.734375 C7.53125,16.78125 7.828125,16.890625 7.984375,17.015625 L8.09375,16.625 L10.375,16.625 L10.4375,14.453125 L7.984375,14.453125 L8.1875,13.734375 L10.46875,13.734375 L10.53125,11.546875 C9.171875,11.28125 8.015625,11.0625 7.34375,10.96875 L8.140625,9.171875 C8.359375,9.234375 8.5625,9.4375 8.65625,9.71875 L10.5625,10.390625 L10.625,8.359375 L10.890625,8.359375 C11.453125,8.359375 12.046875,8.6875 12.046875,8.90625 L11.96875,10.890625 L15.078125,12.09375 L15,12.453125 L11.953125,11.828125 L11.90625,13.734375 L14.5,13.734375 C14.8125,13.734375 15.03125,13.84375 15.09375,14.109375 C14.46875,14.71875 13.515625,15.5 13.515625,15.5 L12.640625,14.453125 L11.875,14.453125 L11.8125,16.625 L14.59375,16.625 C14.90625,16.625 15.125,16.75 15.1875,16.984375 C14.5625,17.609375 13.578125,18.40625 13.578125,18.40625 L12.71875,17.328125 L11.78125,17.328125 L11.734375,18.953125 C12.234375,19.078125 12.4375,19.296875 12.484375,19.609375 L10.265625,19.75 L10.34375,17.328125 L8.015625,17.328125 L6.390625,18.59375 L5.5625,17.6875 L3.359375,17.6875 L1.875,18.4375 Z M5.8125,16.96875 L5.8125,7.34375 L3.265625,7.34375 L3.265625,16.96875 Z M14.90625,18.359375 L15.09375,17.6875 L16.9375,17.6875 C16.84375,14.15625 16.375,10.84375 12.03125,8.25 L12.359375,7.875 C12.859375,8.109375 13.3125,8.359375 13.75,8.59375 C13.78125,7.515625 13.703125,6.5 13.53125,5.546875 L7.296875,5.546875 L7.484375,4.828125 L13.375,4.828125 C12.59375,2.015625 10.515625,-0.171875 5.59375,-1.5625 L5.734375,-1.890625 C11.6875,-0.625 14.09375,1.75 14.953125,4.828125 L15.125,4.828125 C16.3125,1.390625 18.59375,-0.625 22.125,-1.84375 C22.3125,-1.0625 22.796875,-0.53125 23.46875,-0.390625 L23.46875,-0.171875 C19.96875,0.578125 17.109375,2.140625 15.671875,4.828125 L22.484375,4.828125 C22.828125,4.828125 23.0625,4.9375 23.109375,5.203125 C22.296875,5.953125 21,6.984375 21,6.984375 L19.828125,5.546875 L15.125,5.546875 C15.3125,6.390625 15.390625,7.265625 15.40625,8.203125 C15.90625,8.25 16.21875,8.421875 16.265625,8.828125 L14.359375,9 C17.78125,11.328125 18.34375,14.375 18.5,17.6875 L20.78125,17.6875 C20.6875,13.125 20.421875,11.09375 19.96875,10.65625 C19.796875,10.484375 19.65625,10.46875 19.3125,10.46875 C18.90625,10.46875 18.03125,10.515625 17.453125,10.5625 L17.453125,10.125 C17.96875,10.03125 18.484375,9.890625 18.703125,9.671875 C18.953125,9.453125 19.015625,9.03125 19.015625,8.609375 C19.78125,8.609375 20.46875,8.828125 21,9.3125 C21.765625,10.078125 22.15625,12.1875 22.25,17.5 C22.734375,17.5625 23.015625,17.6875 23.15625,17.859375 L21.40625,19.296875 L20.5625,18.359375 Z" transform="translate(-0.671875, 19.75) scale(1, -1)"/>
</svg>