<svg height="21.640625" viewBox="0 0 24 21.640625" width="24" xmlns="http://www.w3.org/2000/svg">
<path d="M14.90625,18.359375 L15.09375,17.6875 L16.9375,17.6875 C16.84375,14.15625 16.375,10.84375 12.03125,8.25 L12.359375,7.875 C12.9375,8.140625 13.46875,8.421875 13.921875,8.71875 C13.96875,7.578125 13.921875,6.5 13.703125,5.5 L7.65625,5.5 L7.84375,4.796875 L13.53125,4.796875 C12.765625,2.015625 10.65625,-0.171875 5.78125,-1.5625 L5.953125,-1.890625 C11.859375,-0.59375 14.203125,1.75 15.125,4.796875 C16.3125,1.375 18.59375,-0.625 22.125,-1.875 C22.3125,-1.0625 22.796875,-0.546875 23.453125,-0.40625 L23.46875,-0.1875 C19.9375,0.546875 17.109375,2.109375 15.671875,4.796875 L22.296875,4.796875 C22.625,4.796875 22.875,4.921875 22.9375,5.1875 C22.109375,5.921875 20.8125,6.9375 20.8125,6.9375 L19.625,5.5 L15.28125,5.5 C15.484375,6.34375 15.578125,7.25 15.59375,8.1875 C16.109375,8.234375 16.421875,8.421875 16.46875,8.828125 L14.375,9 C17.78125,11.359375 18.34375,14.375 18.5,17.6875 L20.765625,17.6875 C20.65625,13.109375 20.40625,11.046875 19.9375,10.578125 C19.78125,10.4375 19.625,10.390625 19.296875,10.390625 C18.890625,10.390625 18,10.46875 17.421875,10.515625 L17.421875,10.078125 C17.953125,9.984375 18.453125,9.84375 18.671875,9.625 C18.9375,9.390625 18.984375,8.96875 18.984375,8.5625 C19.734375,8.5625 20.453125,8.765625 20.96875,9.265625 C21.75,10.03125 22.125,12.140625 22.21875,17.5 C22.703125,17.5625 22.984375,17.6875 23.15625,17.859375 L21.390625,19.296875 L20.546875,18.359375 Z M10.484375,19.75 L10.484375,17.328125 L7.875,17.328125 L8.0625,16.625 L10.484375,16.625 L10.484375,14.28125 L7.984375,14.28125 L8.1875,13.578125 L10.484375,13.578125 L10.484375,10.84375 C9.125,10.515625 7.96875,10.265625 7.265625,10.15625 L8.328125,8.328125 C8.5625,8.40625 8.765625,8.609375 8.828125,8.875 C11.59375,10.015625 13.625,10.9375 15.09375,11.609375 L14.96875,11.96875 L11.921875,11.1875 L11.921875,13.578125 L14.5,13.578125 C14.828125,13.578125 15.046875,13.6875 15.09375,13.9375 C14.46875,14.5625 13.4375,15.390625 13.4375,15.390625 L12.546875,14.28125 L11.921875,14.28125 L11.921875,16.625 L14.59375,16.625 C14.921875,16.625 15.140625,16.75 15.1875,16.984375 C14.546875,17.640625 13.515625,18.453125 13.515625,18.453125 L12.578125,17.328125 L11.921875,17.328125 L11.921875,18.9375 C12.4375,19.015625 12.640625,19.21875 12.703125,19.515625 Z M5.8125,17.40625 L5.8125,6.3125 L3.265625,6.3125 L3.265625,17.40625 Z M1.875,18.09375 L1.875,1.78125 L2.140625,1.78125 C2.765625,1.78125 3.265625,2.109375 3.265625,2.296875 L3.265625,5.609375 L5.8125,5.609375 L5.8125,3.3125 L6.03125,3.3125 C6.53125,3.3125 7.21875,3.703125 7.25,3.859375 L7.25,17.140625 C7.6875,17.234375 8.0625,17.421875 8.203125,17.59375 L6.40625,19.015625 L5.5625,18.09375 L3.40625,18.09375 L1.875,18.8125 Z" transform="translate(-0.671875, 19.75) scale(1, -1)"/>
</svg>