<svg height="22.046875" viewBox="0 0 24 22.046875" width="24" xmlns="http://www.w3.org/2000/svg">
<path d="M12.234375,14.875 L12.4375,14.15625 L17.96875,14.15625 C18.3125,14.15625 18.53125,14.28125 18.578125,14.546875 C17.859375,15.234375 16.65625,16.203125 16.65625,16.203125 L15.578125,14.875 Z M10.265625,12.453125 L10.265625,0.71875 C8.828125,0.390625 7.625,0.125 6.90625,0 L7.96875,-1.9375 C8.203125,-1.875 8.375,-1.6875 8.46875,-1.375 C11.765625,-0.09375 14.1875,0.984375 15.90625,1.734375 L15.8125,2.09375 L11.78125,1.078125 L11.78125,6 L14.25,6 C15.59375,1.9375 18.078125,-0.625 22.078125,-1.921875 C22.25,-1.125 22.75,-0.59375 23.40625,-0.453125 L23.421875,-0.21875 C21.265625,0.1875 19.34375,1.0625 17.78125,2.28125 C18.984375,2.78125 20.359375,3.546875 21.53125,4.390625 C21.984375,4.203125 22.21875,4.25 22.421875,4.4375 L20.65625,6 C19.6875,4.75 18.390625,3.484375 17.328125,2.65625 C16.25,3.59375 15.390625,4.734375 14.78125,6 L18.984375,6 L18.984375,5.359375 L19.203125,5.359375 C19.734375,5.359375 20.453125,5.734375 20.46875,5.875 L20.46875,11.46875 C20.953125,11.5625 21.328125,11.765625 21.484375,11.921875 L19.609375,13.390625 L18.75,12.453125 L11.90625,12.453125 L10.265625,13.21875 Z M18.984375,11.765625 L18.984375,9.59375 L11.78125,9.59375 L11.78125,11.765625 Z M18.984375,8.90625 L18.984375,6.703125 L11.78125,6.703125 L11.78125,8.90625 Z M6.34375,16.34375 L6.34375,6.265625 L3.34375,6.265625 L3.34375,16.34375 Z M15.84375,18.890625 C17.0625,16.515625 19.515625,14.40625 22.0625,13.109375 C22.171875,13.703125 22.6875,14.234375 23.328125,14.40625 L23.359375,14.71875 C20.59375,15.640625 17.734375,17.203125 16.21875,19.15625 C16.78125,19.203125 16.984375,19.3125 17.0625,19.5625 L14.453125,20.109375 C13.609375,17.8125 10.53125,14.640625 7.828125,12.984375 L7.828125,16.0625 C8.296875,16.15625 8.6875,16.34375 8.859375,16.53125 L6.953125,18.03125 L6.09375,17.046875 L3.453125,17.046875 L1.890625,17.8125 L1.890625,2.421875 L2.140625,2.421875 C2.78125,2.421875 3.34375,2.765625 3.34375,2.953125 L3.34375,5.5625 L6.34375,5.5625 L6.34375,3.796875 L6.546875,3.796875 C7.078125,3.796875 7.796875,4.15625 7.828125,4.3125 L7.828125,12.53125 C10.984375,13.921875 14.25,16.46875 15.84375,18.890625 Z" transform="translate(-0.65625, 20.109375) scale(1, -1)"/>
</svg>