<svg height="21.859375" viewBox="0 0 24 21.859375" width="24" xmlns="http://www.w3.org/2000/svg">
<path d="M1.875,17.515625 L1.875,2.59375 L2.109375,2.59375 C2.734375,2.59375 3.265625,2.953125 3.265625,3.125 L3.265625,5.15625 L6.03125,5.15625 L6.03125,3.578125 L6.234375,3.578125 C6.765625,3.578125 7.484375,3.953125 7.484375,4.109375 L7.484375,16.609375 C7.84375,16.6875 8.1875,16.828125 8.328125,16.96875 L8.375,16.828125 L11.828125,16.828125 L11.828125,14.375 L12.09375,14.375 C12.640625,14.375 13.296875,14.6875 13.296875,14.859375 L13.296875,16.828125 L16.65625,16.828125 L16.65625,14.5 L16.921875,14.5 C17.5,14.5 18.171875,14.859375 18.171875,15.03125 L18.171875,16.828125 L22.4375,16.828125 C22.78125,16.828125 22.984375,16.9375 23.0625,17.203125 C22.3125,17.90625 21.125,18.84375 21.125,18.84375 L20.0625,17.515625 L18.171875,17.515625 L18.171875,19.109375 C18.75,19.203125 18.953125,19.390625 19.015625,19.75 L16.65625,19.9375 L16.65625,17.515625 L13.296875,17.515625 L13.296875,19.109375 C13.875,19.203125 14.09375,19.421875 14.15625,19.75 L11.828125,19.96875 L11.828125,17.515625 L8.1875,17.515625 L8.296875,17.09375 L6.640625,18.40625 L5.8125,17.515625 L3.390625,17.515625 L1.875,18.265625 Z M9.046875,13.796875 L9.046875,7.984375 L9.265625,7.984375 C9.859375,7.984375 10.484375,8.328125 10.484375,8.453125 L10.484375,9.125 L14.203125,9.125 C14.1875,8.328125 14.15625,7.5625 14.09375,6.859375 L8.5,6.859375 L8.6875,6.171875 L14.015625,6.171875 C13.921875,5.375 13.75,4.625 13.53125,3.953125 L7.65625,3.953125 L7.84375,3.234375 L13.25,3.234375 C12.28125,1.125 10.375,-0.34375 6.578125,-1.46875 L6.859375,-1.890625 C11.46875,-0.796875 13.703125,0.796875 14.765625,3.234375 L15.40625,3.234375 C16.6875,0.546875 18.859375,-1.0625 22.0625,-1.875 C22.171875,-1.078125 22.6875,-0.578125 23.328125,-0.4375 L23.328125,-0.171875 C20.28125,0.1875 17.515625,1.3125 15.984375,3.234375 L22.53125,3.234375 C22.875,3.234375 23.09375,3.359375 23.140625,3.625 C22.375,4.34375 21.078125,5.359375 21.078125,5.359375 L19.921875,3.953125 L15.046875,3.953125 C15.265625,4.625 15.4375,5.375 15.53125,6.171875 L21.890625,6.171875 C22.21875,6.171875 22.4375,6.28125 22.515625,6.546875 C21.71875,7.265625 20.5,8.1875 20.5,8.1875 L19.421875,6.859375 L15.59375,6.859375 C15.671875,7.5625 15.71875,8.328125 15.75,9.125 L19.53125,9.125 L19.53125,8.328125 L19.78125,8.328125 C20.25,8.328125 20.96875,8.734375 21,8.875 L21,12.8125 C21.453125,12.90625 21.84375,13.109375 21.984375,13.296875 L20.140625,14.6875 L19.296875,13.796875 L10.625,13.796875 L9.046875,14.515625 Z M19.53125,13.109375 L19.53125,9.84375 L15.75,9.84375 L15.765625,13.109375 Z M10.484375,9.84375 L10.484375,13.109375 L14.203125,13.109375 L14.203125,9.84375 Z M6.03125,16.796875 L6.03125,5.828125 L3.265625,5.828125 L3.265625,16.796875 Z" transform="translate(-0.6015625, 19.96875) scale(1, -1)"/>
</svg>