<svg height="21.703125" viewBox="0 0 24 21.703125" width="24" xmlns="http://www.w3.org/2000/svg">
<path d="M10.53125,6.1875 L10.203125,6.046875 C10.921875,4.796875 11.640625,2.828125 11.5625,1.3125 C12.859375,-0.09375 14.5,3.21875 10.53125,6.1875 Z M20.40625,6.359375 C19.921875,4.4375 19.21875,2.40625 18.546875,1.03125 L18.90625,0.84375 C19.984375,1.921875 21.046875,3.546875 21.8125,5.140625 C22.3125,5.109375 22.578125,5.296875 22.703125,5.59375 Z M16.78125,7.65625 L16.78125,-0.453125 L15,-0.453125 L15,6.890625 C15.484375,6.984375 15.671875,7.15625 15.71875,7.46875 L13.609375,7.6875 L13.609375,-0.453125 L8.609375,-0.453125 L8.8125,-1.15625 L22.875,-1.15625 C23.1875,-1.15625 23.40625,-1.03125 23.46875,-0.765625 C22.734375,-0.078125 21.53125,0.90625 21.53125,0.90625 L20.46875,-0.453125 L18.1875,-0.453125 L18.1875,6.859375 C18.703125,6.9375 18.890625,7.125 18.9375,7.421875 Z M8.78125,15.578125 L8.78125,10.421875 C8.78125,6.265625 8.328125,2.015625 5.25,-1.4375 L5.5625,-1.734375 C9.84375,1.625 10.265625,6.578125 10.265625,10.4375 L10.265625,14.875 L20.640625,14.875 C20.421875,14.203125 20.140625,13.421875 19.921875,12.890625 L20.25,12.703125 C20.921875,13.203125 21.8125,14.015625 22.3125,14.640625 C22.78125,14.65625 23.0625,14.71875 23.203125,14.875 L21.5,16.5625 L20.5625,15.578125 L15.53125,15.578125 L15.53125,17.046875 L21.125,17.046875 C21.453125,17.046875 21.671875,17.15625 21.71875,17.421875 C21,18.125 19.828125,19.0625 19.828125,19.0625 L18.765625,17.734375 L15.53125,17.734375 L15.53125,19.078125 C16.078125,19.15625 16.3125,19.390625 16.375,19.734375 L14.015625,19.96875 L14.015625,15.578125 L10.5625,15.578125 L8.78125,16.421875 Z M13.53125,14.46875 L13.53125,12.09375 L10.46875,11.78125 L10.703125,11.109375 L13.53125,11.40625 L13.53125,10.375 C13.53125,8.78125 13.84375,8.453125 15.71875,8.453125 L19.984375,8.453125 C21.71875,8.453125 22.3125,8.8125 22.3125,9.40625 C22.3125,9.640625 22.21875,9.75 21.640625,9.953125 L21.59375,11.421875 L21.3125,11.421875 C21.09375,10.625 20.90625,10.109375 20.78125,9.890625 C20.640625,9.71875 20.40625,9.71875 20.046875,9.71875 L15.796875,9.71875 C15.03125,9.71875 15,9.75 15,10.34375 L15,11.546875 L19.375,11.96875 C19.6875,11.96875 19.890625,12.125 19.921875,12.40625 C19.25,12.90625 18.171875,13.65625 18.171875,13.65625 L17.375,12.484375 L15,12.234375 L15,13.65625 C15.40625,13.703125 15.625,13.890625 15.671875,14.1875 Z M5.78125,16.421875 L5.78125,6.578125 L3.234375,6.578125 L3.234375,16.421875 Z M1.875,17.109375 L1.875,2.71875 L2.109375,2.71875 C2.71875,2.71875 3.234375,3.046875 3.234375,3.234375 L3.234375,5.859375 L5.78125,5.859375 L5.78125,3.984375 L6,3.984375 C6.5,3.984375 7.203125,4.3125 7.21875,4.484375 L7.21875,16.15625 C7.65625,16.25 8.046875,16.4375 8.1875,16.625 L6.390625,18.03125 L5.546875,17.109375 L3.34375,17.109375 L1.875,17.859375 Z" transform="translate(-0.671875, 19.96875) scale(1, -1)"/>
</svg>