<svg height="21.9375" viewBox="0 0 24 21.9375" width="24" xmlns="http://www.w3.org/2000/svg">
<path d="M5.640625,16.890625 L5.640625,6 L3.171875,6 L3.171875,16.890625 Z M1.796875,17.609375 L1.796875,1.609375 L2.046875,1.609375 C2.65625,1.609375 3.171875,1.96875 3.171875,2.140625 L3.171875,5.296875 L5.640625,5.296875 L5.640625,3.765625 L5.859375,3.765625 C6.359375,3.765625 7.0625,4.125 7.078125,4.265625 L7.078125,16.65625 C7.515625,16.734375 7.890625,16.921875 8.0625,17.109375 L6.234375,18.53125 L5.421875,17.609375 L3.3125,17.609375 L1.796875,18.359375 Z M9.796875,9.75 L13.734375,9.75 L13.734375,7.203125 L9.796875,7.203125 Z M9.796875,10.4375 L9.796875,12.890625 L13.734375,12.890625 L13.734375,10.4375 Z M16.53125,18.40625 L16.53125,9.625 C16.53125,7.484375 16.46875,5.453125 16.078125,3.546875 C15.359375,4.21875 14.453125,4.921875 14.453125,4.921875 L13.375,3.578125 L12.453125,3.578125 L12.453125,6.5 L13.734375,6.5 L13.734375,5.6875 L13.984375,5.6875 C14.5,5.6875 15.046875,6.03125 15.09375,6.125 L15.09375,12.640625 C15.453125,12.71875 15.796875,12.90625 15.953125,13.078125 L14.5,14.40625 L13.796875,13.609375 L12.453125,13.609375 L12.453125,15.953125 L15.671875,15.953125 C16.015625,15.953125 16.25,16.078125 16.3125,16.34375 C15.578125,17.015625 14.40625,17.953125 14.40625,17.953125 L13.390625,16.6875 L12.453125,16.6875 L12.453125,19.203125 C13.03125,19.265625 13.265625,19.515625 13.3125,19.84375 L10.984375,20.09375 L10.984375,16.6875 L7.875,16.6875 L8.0625,15.953125 L10.984375,15.953125 L10.984375,13.609375 L9.90625,13.609375 L8.46875,14.25 L8.46875,5.453125 L8.6875,5.453125 C9.234375,5.453125 9.796875,5.765625 9.796875,5.875 L9.796875,6.5 L10.984375,6.5 L10.984375,3.578125 L7.171875,3.578125 L7.375,2.875 L10.984375,2.875 L10.984375,-1.828125 L11.203125,-1.828125 C11.96875,-1.828125 12.4375,-1.484375 12.453125,-1.390625 L12.453125,2.875 L15.765625,2.875 L15.9375,2.90625 C15.53125,1.25 14.828125,-0.265625 13.703125,-1.578125 L14.09375,-1.84375 C17.375,0.890625 17.859375,4.9375 17.90625,8.859375 C18.640625,8.15625 19.484375,7.0625 19.6875,6.140625 C20.09375,5.859375 20.46875,5.921875 20.65625,6.234375 L20.65625,0.5 C20.65625,0.171875 20.5625,0.03125 20.1875,0.03125 C19.78125,0.03125 17.90625,0.171875 17.90625,0.171875 L17.90625,-0.21875 C18.75,-0.34375 19.25,-0.484375 19.53125,-0.71875 C19.78125,-0.953125 19.890625,-1.390625 19.9375,-1.84375 C21.890625,-1.625 22.109375,-0.890625 22.109375,0.34375 L22.109375,17.5 C22.53125,17.59375 22.921875,17.765625 23.0625,17.953125 L21.1875,19.34375 L20.453125,18.40625 L18.171875,18.40625 L16.53125,19.171875 Z M18.078125,14.5 L17.90625,14.359375 L17.90625,17.71875 L20.65625,17.71875 L20.65625,12.578125 C20.421875,13.21875 19.65625,13.96875 18.078125,14.5 Z M18.03125,9.140625 L17.90625,9.078125 L17.90625,9.671875 L17.90625,14.1875 C18.640625,13.53125 19.4375,12.40625 19.625,11.546875 C20.0625,11.203125 20.5,11.328125 20.65625,11.6875 L20.65625,7.3125 C20.359375,7.9375 19.578125,8.640625 18.03125,9.140625 Z" transform="translate(-0.4296875, 20.09375) scale(1, -1)"/>
</svg>