<svg height="21.34375" viewBox="0 0 24 21.34375" width="24" xmlns="http://www.w3.org/2000/svg">
<path d="M11.546875,10.515625 L11.546875,5.828125 L11.734375,5.828125 C12.28125,5.828125 12.859375,6.140625 12.859375,6.265625 L12.859375,7.109375 L15.703125,7.109375 L15.703125,5.25 L12.09375,5.25 L10.5625,5.921875 L10.5625,-1.875 L10.75,-1.875 C11.359375,-1.875 11.953125,-1.53125 11.953125,-1.390625 L11.953125,4.53125 L15.703125,4.53125 L15.703125,2.296875 C14.328125,2.234375 13.171875,2.1875 12.484375,2.15625 L13.3125,0.40625 C13.5625,0.453125 13.78125,0.59375 13.890625,0.890625 C16.171875,1.375 17.875,1.78125 19.109375,2.09375 C19.21875,1.734375 19.3125,1.34375 19.3125,1.015625 C20.40625,0.046875 21.625,2.40625 18.40625,3.984375 L18.125,3.8125 C18.40625,3.484375 18.703125,3 18.90625,2.515625 L17.0625,2.40625 L17.0625,4.53125 L20.875,4.53125 L20.875,0.234375 C20.875,-0.09375 20.78125,-0.21875 20.375,-0.21875 C19.921875,-0.21875 17.90625,-0.078125 17.90625,-0.078125 L17.90625,-0.453125 C18.796875,-0.546875 19.34375,-0.71875 19.65625,-0.9375 C19.921875,-1.125 20.015625,-1.46875 20.09375,-1.84375 C22.015625,-1.6875 22.25,-1.015625 22.25,0.046875 L22.25,4.265625 C22.734375,4.34375 23.109375,4.5625 23.25,4.75 L21.390625,6.125 L20.640625,5.25 L17.0625,5.25 L17.0625,7.109375 L19.96875,7.109375 L19.96875,6.125 L20.15625,6.125 C20.609375,6.125 21.328125,6.4375 21.359375,6.578125 L21.359375,9.578125 C21.796875,9.671875 22.171875,9.859375 22.34375,10.03125 L20.515625,11.375 L19.75,10.515625 L17.0625,10.515625 L17.0625,12.28125 C18.34375,12.40625 19.484375,12.578125 20.453125,12.75 C20.96875,12.5 21.40625,12.5 21.625,12.671875 L20.609375,13.6875 C21.125,13.6875 21.90625,14.015625 21.9375,14.15625 L21.9375,17.5 C22.390625,17.609375 22.828125,17.8125 22.984375,18 L21,19.46875 L20.140625,18.53125 L10.6875,18.53125 L8.921875,19.34375 L8.921875,12.265625 C8.921875,7.375 8.40625,2.46875 4.96875,-1.46875 L5.328125,-1.734375 C9.890625,2.140625 10.390625,7.78125 10.390625,12.28125 L10.390625,14.515625 L20.375,14.515625 L20.375,13.921875 L20.015625,14.28125 C17.96875,13.53125 14.09375,12.71875 10.84375,12.484375 L10.921875,12.03125 C12.484375,12 14.140625,12.046875 15.703125,12.171875 L15.703125,10.515625 L12.984375,10.515625 L11.546875,11.1875 Z M15.703125,7.796875 L12.859375,7.796875 L12.859375,9.84375 L15.703125,9.84375 Z M17.0625,7.796875 L17.0625,9.84375 L19.96875,9.84375 L19.96875,7.796875 Z M20.375,17.828125 L20.375,15.21875 L10.390625,15.21875 L10.390625,17.828125 Z M5.875,16.96875 L5.875,6.859375 L3.171875,6.859375 L3.171875,16.96875 Z M1.796875,17.6875 L1.796875,3.21875 L2.046875,3.21875 C2.640625,3.21875 3.171875,3.546875 3.171875,3.71875 L3.171875,6.140625 L5.875,6.140625 L5.875,4.578125 L6.09375,4.578125 C6.578125,4.578125 7.296875,4.9375 7.3125,5.09375 L7.3125,16.734375 C7.75,16.828125 8.140625,16.984375 8.28125,17.1875 L6.484375,18.59375 L5.640625,17.6875 L3.28125,17.6875 L1.796875,18.40625 Z" transform="translate(-0.5234375, 19.46875) scale(1, -1)"/>
</svg>