<svg height="22.046875" viewBox="0 0 24 22.046875" width="24" xmlns="http://www.w3.org/2000/svg">
<path d="M10.875,19.984375 L10.609375,19.84375 C11.453125,18.90625 12.4375,17.375 12.640625,16.203125 C14.203125,15 15.578125,18.265625 10.875,19.984375 Z M14.828125,15.03125 L14.828125,12.484375 L10.75,12.484375 L10.75,15.03125 Z M16.34375,15.03125 L20.453125,15.03125 L20.453125,12.484375 L16.34375,12.484375 Z M14.828125,9.234375 L10.75,9.234375 L10.75,11.8125 L14.828125,11.8125 Z M16.34375,9.234375 L16.34375,11.8125 L20.453125,11.8125 L20.453125,9.234375 Z M9.265625,15.71875 L9.265625,7.296875 L9.5,7.296875 C10.125,7.296875 10.75,7.625 10.75,7.78125 L10.75,8.546875 L20.453125,8.546875 L20.453125,7.65625 L20.65625,7.65625 C21.171875,7.65625 21.90625,8.015625 21.9375,8.1875 L21.9375,14.734375 C22.421875,14.828125 22.796875,15.03125 22.96875,15.1875 L21.078125,16.65625 L20.203125,15.71875 L17.46875,15.71875 C18.578125,16.703125 19.703125,17.921875 20.375,18.890625 C20.875,18.84375 21.171875,19.03125 21.28125,19.296875 L18.796875,20.15625 C18.34375,18.765625 17.5625,16.984375 16.828125,15.71875 L10.890625,15.71875 L9.265625,16.46875 Z M6.1875,16.375 L6.1875,6.703125 L3.265625,6.703125 L3.265625,16.375 Z M1.84375,17.0625 L1.84375,2.859375 L2.09375,2.859375 C2.71875,2.859375 3.265625,3.1875 3.265625,3.390625 L3.265625,6 L6.1875,6 L6.1875,4.203125 L6.40625,4.203125 C6.90625,4.203125 7.625,4.5625 7.65625,4.734375 L7.65625,16.078125 C8.140625,16.171875 8.515625,16.375 8.65625,16.5625 L6.8125,18.03125 L5.953125,17.0625 L3.359375,17.0625 L1.84375,17.8125 Z M19.296875,5.78125 L19.296875,3.34375 L11.953125,3.34375 L11.953125,5.78125 Z M10.46875,6.5 L10.46875,-1.890625 L10.703125,-1.890625 C11.328125,-1.890625 11.953125,-1.53125 11.953125,-1.421875 L11.953125,-0.625 L19.296875,-0.625 L19.296875,-1.796875 L19.515625,-1.796875 C19.984375,-1.796875 20.765625,-1.46875 20.78125,-1.296875 L20.78125,5.515625 C21.28125,5.59375 21.640625,5.78125 21.8125,5.96875 L19.890625,7.4375 L19.0625,6.5 L12.078125,6.5 L10.46875,7.25 Z M11.953125,2.609375 L19.296875,2.609375 L19.296875,0.09375 L11.953125,0.09375 Z" transform="translate(-0.40625, 20.15625) scale(1, -1)"/>
</svg>