<svg height="22.578125" viewBox="0 0 24 22.578125" width="24" xmlns="http://www.w3.org/2000/svg">
<path d="M19.46875,2.6875 L19.203125,2.46875 C20.296875,1.46875 21.625,-0.234375 21.9375,-1.578125 C23.5625,-2.734375 24.75,0.765625 19.46875,2.6875 Z M17.015625,2.65625 C16.171875,1.25 14.375,-0.53125 12.53125,-1.515625 L12.765625,-1.84375 C14.96875,-1.171875 17.0625,0.171875 18.21875,1.390625 C18.71875,1.296875 18.90625,1.390625 19.078125,1.625 Z M15.5,15.03125 L15.5,2.71875 L15.75,2.71875 C16.34375,2.71875 16.921875,3.078125 16.921875,3.21875 L16.921875,3.84375 L20.5,3.84375 L20.5,3.03125 L20.71875,3.03125 C21.1875,3.03125 21.890625,3.390625 21.90625,3.546875 L21.90625,14.046875 C22.375,14.140625 22.78125,14.328125 22.921875,14.515625 L21.09375,15.9375 L20.25,15.03125 L18.28125,15.03125 C18.703125,15.75 19.15625,16.734375 19.53125,17.59375 L22.65625,17.59375 C22.984375,17.59375 23.203125,17.71875 23.28125,17.96875 C22.515625,18.671875 21.28125,19.65625 21.28125,19.65625 L20.15625,18.28125 L14.28125,18.28125 L14.46875,17.59375 L17.921875,17.59375 C17.8125,16.75 17.65625,15.75 17.546875,15.03125 L17.015625,15.03125 L15.5,15.71875 Z M10.3125,19.84375 L10.3125,16.34375 C9.140625,15.90625 7.875,15.53125 6.75,15.234375 L6.890625,14.828125 C7.984375,14.921875 9.1875,15.125 10.3125,15.34375 L10.3125,7.15625 L9.03125,7.15625 L9.03125,12.9375 C9.453125,13.015625 9.640625,13.171875 9.703125,13.46875 L7.796875,13.65625 L7.796875,3.953125 L8.046875,3.953125 C8.5,3.953125 9.03125,4.25 9.03125,4.4375 L9.03125,6.484375 L10.3125,6.484375 L10.3125,1.84375 C10.3125,0.9375 10.515625,0.484375 11.734375,0.484375 L12.625,0.484375 C14.453125,0.484375 15.03125,0.75 15.03125,1.3125 C15.03125,1.609375 14.875,1.75 14.421875,1.921875 L14.328125,4.03125 L14.046875,4.03125 C13.875,3.234375 13.65625,2.140625 13.53125,1.96875 C13.46875,1.84375 13.390625,1.828125 13.265625,1.828125 C13.15625,1.796875 12.890625,1.796875 12.625,1.796875 L12.046875,1.796875 C11.6875,1.796875 11.65625,1.921875 11.65625,2.296875 L11.65625,6.484375 L12.953125,6.484375 L12.953125,4.828125 L13.203125,4.828125 C13.6875,4.828125 14.203125,5.140625 14.203125,5.296875 L14.203125,12.90625 C14.640625,12.984375 14.828125,13.171875 14.875,13.4375 L12.953125,13.65625 L12.953125,7.15625 L11.65625,7.15625 L11.65625,15.625 C12.578125,15.84375 13.4375,16.0625 14.109375,16.265625 C14.640625,16.0625 15.046875,16.0625 15.265625,16.25 L13.5625,17.765625 C13.0625,17.5 12.40625,17.1875 11.65625,16.875 L11.65625,18.90625 C12.21875,19.03125 12.40625,19.265625 12.453125,19.578125 Z M5.203125,16.65625 L5.203125,5.59375 L3.046875,5.59375 L3.046875,16.65625 Z M1.734375,17.328125 L1.734375,1.84375 L1.96875,1.84375 C2.5625,1.84375 3.046875,2.1875 3.046875,2.359375 L3.046875,4.890625 L5.203125,4.890625 L5.203125,3.046875 L5.40625,3.046875 C5.875,3.046875 6.53125,3.453125 6.546875,3.625 L6.546875,16.390625 C7.03125,16.46875 7.390625,16.65625 7.5625,16.828125 L5.78125,18.234375 L4.96875,17.328125 L3.171875,17.328125 L1.734375,18.046875 Z M20.5,14.296875 L20.5,11.59375 L16.921875,11.59375 L16.921875,14.296875 Z M16.921875,10.890625 L20.5,10.890625 L20.5,8.0625 L16.921875,8.0625 Z M16.921875,7.375 L20.5,7.375 L20.5,4.53125 L16.921875,4.53125 Z" transform="translate(-1.2421875, 19.84375) scale(1, -1)"/>
</svg>