<svg height="22.0625" viewBox="0 0 24 22.0625" width="24" xmlns="http://www.w3.org/2000/svg">
<path d="M12.984375,11.953125 L12.984375,8.5625 L13.203125,8.5625 C13.78125,8.5625 14.453125,8.875 14.453125,9.03125 L14.453125,9.234375 L18.078125,9.234375 L18.078125,8.734375 L18.3125,8.734375 C18.796875,8.734375 19.5625,9.03125 19.578125,9.171875 L19.578125,11.015625 C19.796875,11.0625 19.984375,11.109375 20.140625,11.203125 L20.46875,11.015625 C21.09375,11.40625 21.9375,12.03125 22.4375,12.5 C22.875,12.53125 23.140625,12.546875 23.296875,12.75 L21.546875,14.453125 L20.59375,13.484375 L12.765625,13.484375 L12.765625,14.359375 L17.59375,14.359375 L17.59375,13.84375 L17.828125,13.84375 C18.3125,13.84375 19.078125,14.203125 19.109375,14.359375 L19.109375,16.015625 C19.484375,16.078125 19.828125,16.265625 19.9375,16.421875 L18.171875,17.734375 L17.375,16.890625 L12.765625,16.890625 L12.765625,17.828125 L22.15625,17.828125 C22.484375,17.828125 22.734375,17.953125 22.78125,18.21875 C22.015625,18.890625 20.765625,19.828125 20.765625,19.828125 L19.6875,18.5 L12.765625,18.5 L12.765625,19.21875 C13.375,19.3125 13.609375,19.5625 13.65625,19.890625 L11.1875,20.140625 L11.1875,18.5 L1.265625,18.5 L1.484375,17.828125 L11.1875,17.828125 L11.1875,16.890625 L6.484375,16.890625 L4.84375,17.640625 L4.84375,13.734375 L5.09375,13.734375 C5.6875,13.734375 6.359375,14.046875 6.359375,14.1875 L6.359375,14.359375 L11.1875,14.359375 L11.1875,13.484375 L3.703125,13.484375 C3.640625,13.78125 3.59375,14.0625 3.5,14.375 L3.09375,14.359375 C3.125,13.484375 2.453125,12.59375 1.78125,12.28125 C1.265625,12.078125 0.953125,11.59375 1.125,11.09375 C1.375,10.53125 2.140625,10.515625 2.640625,10.796875 C3.171875,11.109375 3.625,11.8125 3.703125,12.765625 L10.125,12.765625 L9.359375,11.953125 L5.96875,11.953125 L4.390625,12.625 L4.390625,8.453125 L4.609375,8.453125 C5.203125,8.453125 5.875,8.78125 5.875,8.90625 L5.875,9.234375 L9.578125,9.234375 L9.578125,8.828125 L7.828125,9 L7.828125,7.84375 L2.40625,7.84375 L2.59375,7.15625 L7.828125,7.15625 L7.828125,6.140625 L3.1875,6.140625 L3.390625,5.46875 L7.828125,5.46875 L7.828125,4.46875 L1.03125,4.46875 L1.25,3.765625 L9.34375,3.765625 C7.0625,2.59375 3.984375,1.6875 0.8125,1.078125 L0.953125,0.671875 C3.09375,0.90625 5.203125,1.265625 7.125,1.796875 L7.125,0.234375 L3.859375,-0.078125 L4.984375,-1.921875 C5.203125,-1.84375 5.40625,-1.703125 5.546875,-1.390625 C9.453125,-0.546875 12.21875,0.125 14.1875,0.640625 L14.109375,1.03125 L8.65625,0.40625 L8.65625,2.28125 C9.890625,2.6875 11.015625,3.1875 11.96875,3.765625 L12.265625,3.765625 C14.15625,0.859375 17.609375,-0.796875 21.8125,-1.65625 C21.953125,-0.953125 22.390625,-0.484375 23.015625,-0.359375 L23.046875,-0.09375 C20.71875,0.171875 18.453125,0.640625 16.5625,1.4375 C17.78125,1.734375 19.0625,2.09375 19.875,2.421875 C20.375,2.25 20.5625,2.359375 20.765625,2.546875 L18.984375,3.765625 L22.34375,3.765625 C22.6875,3.765625 22.9375,3.890625 22.984375,4.125 C22.21875,4.796875 21.03125,5.71875 20.953125,5.765625 C21.03125,5.765625 21.03125,5.78125 21.046875,5.828125 C20.421875,6.359375 19.5625,7.015625 19.375,7.15625 L21.328125,7.15625 C21.640625,7.15625 21.890625,7.25 21.9375,7.515625 C21.234375,8.15625 20.09375,8.953125 20.09375,8.953125 L19.125,7.84375 L16.109375,7.84375 L16.109375,8.234375 C16.484375,8.296875 16.65625,8.5 16.6875,8.765625 L14.5625,8.953125 L14.5625,7.84375 L9.359375,7.84375 L9.359375,8.28125 C9.71875,8.375 9.90625,8.546875 9.9375,8.78125 L9.703125,8.8125 L9.796875,8.8125 C10.296875,8.8125 11.046875,9.125 11.0625,9.265625 L11.0625,11.015625 C11.46875,11.09375 11.828125,11.28125 11.953125,11.453125 L10.171875,12.765625 L18.640625,12.765625 L17.875,11.953125 L14.546875,11.953125 L12.984375,12.625 Z M11.1875,16.203125 L11.1875,15.078125 L6.359375,15.078125 L6.359375,16.203125 Z M12.765625,16.203125 L17.59375,16.203125 L17.59375,15.078125 L12.765625,15.078125 Z M9.359375,4.46875 L9.359375,5.46875 L14.5625,5.46875 L14.5625,4.46875 Z M9.359375,7.15625 L14.5625,7.15625 L14.5625,6.140625 L9.359375,6.140625 Z M16.109375,4.46875 L16.109375,5.46875 L20.421875,5.46875 C20.5625,5.46875 20.6875,5.5 20.765625,5.546875 L19.875,4.46875 Z M16.109375,7.15625 L19.203125,7.15625 L18.3125,6.140625 L16.109375,6.140625 Z M12.9375,3.765625 L18.9375,3.765625 C18.234375,3.21875 16.921875,2.359375 15.796875,1.78125 C14.65625,2.328125 13.703125,2.96875 12.9375,3.765625 Z M20.65625,12.765625 L20.28125,11.59375 L18.703125,12.765625 Z M9.578125,11.234375 L9.578125,9.953125 L5.875,9.953125 L5.875,11.234375 Z M18.078125,11.234375 L18.078125,9.953125 L14.453125,9.953125 L14.453125,11.234375 Z" transform="translate(-0.0546875, 20.140625) scale(1, -1)"/>
</svg>