<svg height="21.78125" viewBox="0 0 24 21.78125" width="24" xmlns="http://www.w3.org/2000/svg">
<path d="M10.96875,14.25 L11.15625,13.53125 L14.6875,13.53125 C15,13.53125 15.21875,13.65625 15.265625,13.921875 C14.765625,14.453125 13.984375,15.078125 13.984375,15.078125 L13.34375,14.25 Z M10.96875,12.5 L11.15625,11.8125 L14.6875,11.8125 C15,11.8125 15.21875,11.921875 15.265625,12.171875 C14.78125,12.703125 14.015625,13.3125 14.015625,13.3125 L13.34375,12.5 Z M17.875,14.234375 L18.078125,13.515625 L21.625,13.515625 C21.9375,13.515625 22.15625,13.625 22.203125,13.890625 C21.703125,14.421875 20.953125,15.046875 20.953125,15.046875 L20.25,14.234375 Z M17.875,12.5 L18.078125,11.8125 L21.640625,11.8125 C21.953125,11.8125 22.203125,11.921875 22.25,12.171875 C21.71875,12.703125 20.96875,13.3125 20.96875,13.3125 L20.28125,12.5 Z M15.796875,15.265625 L15.796875,11.359375 L16.0625,11.359375 C16.5625,11.359375 17.15625,11.65625 17.15625,11.828125 L17.15625,14.5 C17.609375,14.59375 17.8125,14.78125 17.828125,15.046875 Z M11.046875,10.703125 L11.046875,6.953125 L11.25,6.953125 C11.765625,6.953125 12.390625,7.25 12.390625,7.34375 L12.390625,7.609375 L12.9375,7.609375 C12.03125,6.21875 10.703125,4.875 9.1875,3.84375 L9.5,3.4375 C10.15625,3.765625 10.78125,4.125 11.359375,4.515625 L11.359375,1.125 L11.546875,1.125 C12.140625,1.125 12.546875,1.484375 12.546875,1.578125 L12.546875,1.84375 L14.5,1.84375 L14.5,0.453125 C12.578125,0.359375 10.9375,0.28125 10.015625,0.265625 L10.828125,-1.390625 C11.046875,-1.34375 11.25,-1.21875 11.375,-0.90625 C13.984375,-0.53125 16.03125,-0.171875 17.546875,0.09375 C17.734375,-0.234375 17.875,-0.59375 17.921875,-0.9375 C18.359375,-1.265625 18.796875,-1.125 18.953125,-0.796875 C19.125,-0.84375 19.25,-0.90625 19.3125,-0.984375 C19.53125,-1.171875 19.65625,-1.53125 19.65625,-1.84375 C20.1875,-1.828125 20.640625,-1.6875 21.03125,-1.3125 C21.765625,-0.625 21.984375,1.296875 22.125,5.734375 C22.578125,5.8125 22.875,5.921875 23.046875,6.09375 L21.359375,7.4375 L20.5625,6.59375 L13.796875,6.59375 C14.09375,6.90625 14.359375,7.25 14.59375,7.609375 L20.203125,7.609375 L20.203125,7.15625 L20.421875,7.15625 C20.90625,7.15625 21.578125,7.53125 21.59375,7.734375 L21.59375,9.765625 C22.015625,9.859375 22.390625,10.0625 22.53125,10.21875 L20.78125,11.546875 L19.96875,10.703125 L12.5,10.703125 L11.046875,11.359375 Z M14.5,5.734375 L14.5,4.5625 L12.84375,4.5625 L11.96875,4.9375 C12.359375,5.234375 12.75,5.546875 13.078125,5.875 L20.78125,5.875 C20.640625,2.046875 20.421875,0.34375 20.0625,-0.09375 C19.984375,-0.21875 19.890625,-0.265625 19.703125,-0.265625 L19.03125,-0.234375 C18.9375,0.390625 18.28125,1.203125 16.65625,1.734375 L16.390625,1.515625 C16.6875,1.265625 16.96875,0.953125 17.234375,0.59375 L15.71875,0.5 L15.71875,1.84375 L17.6875,1.84375 L17.6875,1.375 L17.875,1.375 C18.265625,1.375 18.890625,1.625 18.90625,1.796875 L18.90625,3.890625 C19.171875,3.9375 19.390625,4.0625 19.484375,4.15625 L18.171875,5.1875 L17.546875,4.5625 L15.71875,4.5625 L15.71875,5.109375 C16.03125,5.1875 16.171875,5.359375 16.203125,5.546875 Z M14.140625,8.328125 L12.390625,8.328125 L12.390625,10.015625 L14.140625,10.015625 Z M15.390625,8.328125 L15.390625,10.015625 L17.1875,10.015625 L17.1875,8.328125 Z M18.40625,8.328125 L18.40625,10.015625 L20.203125,10.015625 L20.203125,8.328125 Z M14.5,3.859375 L14.5,2.546875 L12.546875,2.546875 L12.546875,3.859375 Z M15.71875,3.859375 L17.6875,3.859375 L17.6875,2.546875 L15.71875,2.546875 Z M10.109375,18.34375 L20.453125,18.34375 L20.453125,16.375 L10.109375,16.375 Z M8.65625,19.03125 L8.65625,11.734375 C8.65625,6.796875 8.09375,2.15625 4.53125,-1.53125 L4.890625,-1.796875 C9.546875,1.78125 10.109375,7.125 10.109375,11.78125 L10.109375,15.640625 L20.453125,15.640625 L20.453125,15.125 L20.6875,15.125 C21.171875,15.125 21.90625,15.453125 21.9375,15.59375 L21.9375,18.078125 C22.390625,18.171875 22.796875,18.34375 22.96875,18.53125 L21.046875,19.9375 L20.203125,19.03125 L10.390625,19.03125 L8.65625,19.84375 Z M5.65625,17.59375 L5.65625,6.765625 L3.21875,6.765625 L3.21875,17.59375 Z M1.84375,18.28125 L1.84375,2.78125 L2.09375,2.78125 C2.71875,2.78125 3.21875,3.140625 3.21875,3.34375 L3.21875,6.046875 L5.65625,6.046875 L5.65625,4.125 L5.875,4.125 C6.390625,4.125 7.078125,4.515625 7.109375,4.65625 L7.109375,17.359375 C7.53125,17.421875 7.921875,17.609375 8.0625,17.8125 L6.265625,19.203125 L5.453125,18.28125 L3.359375,18.28125 L1.84375,19.03125 Z" transform="translate(-0.4453125, 19.9375) scale(1, -1)"/>
</svg>