<svg height="21.3125" viewBox="0 0 24 21.3125" width="24" xmlns="http://www.w3.org/2000/svg">
<path d="M7.46875,10.84375 L7.171875,10.6875 C8.15625,9.546875 9.265625,7.6875 9.40625,6.1875 C10.96875,4.875 12.453125,8.40625 7.46875,10.84375 Z M13.828125,16.703125 L13.828125,12.75 L4.96875,12.75 L5.15625,12.046875 L13.828125,12.046875 L13.828125,4.078125 C13.828125,3.671875 13.6875,3.546875 13.171875,3.546875 C12.59375,3.546875 9.703125,3.75 9.703125,3.75 L9.703125,3.359375 C10.921875,3.21875 11.640625,3.03125 12.046875,2.78125 C12.40625,2.5625 12.578125,2.1875 12.640625,1.75 C15.03125,1.96875 15.28125,2.734375 15.28125,3.984375 L15.28125,12.046875 L18.640625,12.046875 C18.984375,12.046875 19.203125,12.171875 19.265625,12.4375 C18.578125,13.15625 17.453125,14.09375 17.453125,14.09375 L16.4375,12.75 L15.28125,12.75 L15.28125,15.8125 C15.859375,15.890625 16.078125,16.109375 16.15625,16.46875 Z M2.421875,18.390625 L2.421875,-1.890625 L2.71875,-1.890625 C3.40625,-1.890625 3.984375,-1.484375 3.984375,-1.265625 L3.984375,-0.1875 L19.96875,-0.1875 L19.96875,-1.6875 L20.1875,-1.6875 C20.765625,-1.6875 21.53125,-1.25 21.546875,-1.0625 L21.546875,17.40625 C22.015625,17.5 22.421875,17.6875 22.578125,17.875 L20.609375,19.421875 L19.734375,18.390625 L4.15625,18.390625 L2.421875,19.203125 Z M19.96875,0.53125 L3.984375,0.53125 L3.984375,17.6875 L19.96875,17.6875 Z" transform="translate(-0.5, 19.421875) scale(1, -1)"/>
</svg>