<svg height="21.5" viewBox="0 0 24 21.5" width="24" xmlns="http://www.w3.org/2000/svg">
<path d="M13.84375,12.359375 L13.84375,8.09375 L10.15625,8.09375 C10.21875,8.640625 10.25,9.21875 10.25,9.8125 L10.25,12.359375 Z M8.78125,16.890625 L8.78125,13.078125 L5.203125,13.078125 L5.40625,12.359375 L8.78125,12.359375 L8.78125,9.8125 C8.78125,9.21875 8.765625,8.640625 8.71875,8.09375 L4.6875,8.09375 L4.875,7.390625 L8.609375,7.390625 C8.28125,5.203125 7.375,3.359375 5.234375,1.875 L5.546875,1.5625 C8.375,3.046875 9.59375,5.0625 10.03125,7.390625 L13.84375,7.390625 L13.84375,1.5625 L14.140625,1.5625 C14.71875,1.5625 15.3125,1.890625 15.3125,2.109375 L15.3125,7.390625 L18.890625,7.390625 C19.21875,7.390625 19.4375,7.515625 19.515625,7.78125 C18.8125,8.453125 17.71875,9.359375 17.71875,9.359375 L16.734375,8.09375 L15.3125,8.09375 L15.3125,12.359375 L18.390625,12.359375 C18.703125,12.359375 18.9375,12.484375 18.984375,12.75 C18.34375,13.4375 17.234375,14.296875 17.234375,14.296875 L16.296875,13.078125 L15.3125,13.078125 L15.3125,16.015625 C15.9375,16.078125 16.125,16.3125 16.203125,16.65625 L13.84375,16.921875 L13.84375,13.078125 L10.25,13.078125 L10.25,16.03125 C10.796875,16.125 10.984375,16.34375 11.046875,16.6875 Z M2.453125,18.640625 L2.453125,-1.84375 L2.734375,-1.84375 C3.4375,-1.84375 4.015625,-1.4375 4.015625,-1.21875 L4.015625,-0.171875 L19.9375,-0.171875 L19.9375,-1.78125 L20.1875,-1.78125 C20.734375,-1.78125 21.484375,-1.34375 21.5,-1.171875 L21.5,17.640625 C21.984375,17.734375 22.375,17.921875 22.53125,18.125 L20.59375,19.65625 L19.703125,18.640625 L4.15625,18.640625 L2.453125,19.4375 Z M19.9375,0.53125 L4.015625,0.53125 L4.015625,17.953125 L19.9375,17.953125 Z" transform="translate(-0.4921875, 19.65625) scale(1, -1)"/>
</svg>