<svg height="21.671875" viewBox="0 0 24 21.671875" width="24" xmlns="http://www.w3.org/2000/svg">
<path d="M12.21875,7.921875 L12.21875,6.453125 L8.734375,6.453125 L7.15625,7.203125 C6.953125,5.953125 6.453125,3.8125 6.078125,2.25 C6.796875,2.0625 7.171875,2.109375 7.5625,2.296875 L7.75,3.1875 L12.21875,3.1875 L12.21875,0.796875 L12.5,0.796875 C13.03125,0.796875 13.6875,1.109375 13.6875,1.296875 L13.6875,3.1875 L18.265625,3.1875 C18.59375,3.1875 18.8125,3.3125 18.859375,3.578125 C18.21875,4.21875 17.203125,4.984375 17.203125,5.015625 L16.296875,3.90625 L13.6875,3.90625 L13.6875,5.734375 L17.71875,5.734375 C18.03125,5.734375 18.234375,5.859375 18.28125,6.125 C17.6875,6.75 16.703125,7.515625 16.703125,7.515625 L15.859375,6.453125 L13.6875,6.453125 L13.6875,7.171875 C14.109375,7.265625 14.28125,7.4375 14.328125,7.703125 Z M14.90625,13.4375 L10.78125,13.4375 L11.28125,15.078125 L14.90625,15.078125 Z M10.515625,17.59375 L10.03125,15.75 L6.234375,15.75 L6.453125,15.078125 L9.859375,15.078125 L9.390625,13.4375 L4.75,13.4375 L4.9375,12.75 L18.640625,12.75 C18.953125,12.75 19.171875,12.859375 19.25,13.125 C18.625,13.703125 17.65625,14.421875 17.65625,14.421875 L16.828125,13.4375 L16.3125,13.4375 L16.3125,14.953125 C16.6875,15.03125 16.96875,15.140625 17.09375,15.28125 L15.484375,16.53125 L14.734375,15.75 L11.5,15.75 L11.78125,16.6875 C12.234375,16.6875 12.546875,16.890625 12.625,17.234375 Z M6.984375,11.453125 L6.984375,7.46875 L7.203125,7.46875 C7.75,7.46875 8.40625,7.796875 8.40625,7.921875 L8.40625,8.28125 L15.546875,8.28125 L15.546875,7.734375 L15.765625,7.734375 C16.25,7.734375 16.9375,8.0625 16.96875,8.203125 L16.96875,10.609375 C17.328125,10.65625 17.640625,10.84375 17.765625,10.984375 L16.125,12.21875 L15.359375,11.453125 L8.515625,11.453125 L6.984375,12.140625 Z M15.546875,8.96875 L8.40625,8.96875 L8.40625,10.734375 L15.546875,10.734375 Z M12.21875,3.90625 L7.890625,3.90625 L8.25,5.734375 L12.21875,5.734375 Z M2.359375,18.703125 L2.359375,-1.9375 L2.609375,-1.9375 C3.3125,-1.9375 3.859375,-1.53125 3.859375,-1.296875 L3.859375,-0.484375 L20.109375,-0.484375 L20.109375,-1.6875 L20.328125,-1.6875 C20.875,-1.6875 21.625,-1.25 21.625,-1.078125 L21.625,17.71875 C22.109375,17.8125 22.515625,18 22.6875,18.1875 L20.765625,19.734375 L19.875,18.703125 L4.015625,18.703125 L2.359375,19.515625 Z M20.109375,0.21875 L3.859375,0.21875 L3.859375,18 L20.109375,18 Z" transform="translate(-0.5234375, 19.734375) scale(1, -1)"/>
</svg>