<svg height="21.625" viewBox="0 0 24 21.625" width="24" xmlns="http://www.w3.org/2000/svg">
<path d="M14.6875,17.5625 L14.46875,17.328125 C15.234375,16.875 16.15625,16.015625 16.484375,15.265625 C17.8125,14.546875 18.625,17.109375 14.6875,17.5625 Z M4.515625,4.625 L5.59375,2.828125 C5.8125,2.90625 6,3.078125 6.078125,3.390625 C8.90625,4.296875 10.9375,5.09375 12.359375,5.640625 L12.265625,6 C9.078125,5.375 5.921875,4.828125 4.515625,4.625 Z M11.96875,17.65625 C11.96875,16.53125 12.03125,15.4375 12.09375,14.359375 L4.65625,14.359375 L4.84375,13.65625 L12.140625,13.65625 C12.390625,10.9375 12.859375,8.46875 13.78125,6.359375 C12.359375,4.390625 10.65625,2.828125 8.828125,1.734375 L9.125,1.390625 C11.0625,2.28125 12.84375,3.546875 14.359375,5.234375 C14.953125,4.125 15.671875,3.140625 16.578125,2.328125 C17.40625,1.578125 18.59375,0.953125 19.109375,1.578125 C19.3125,1.84375 19.25,2.15625 18.671875,2.96875 L19.015625,6.046875 L18.671875,6.09375 C18.4375,5.25 18.125,4.3125 17.90625,3.8125 C17.734375,3.40625 17.609375,3.40625 17.28125,3.75 C16.46875,4.4375 15.8125,5.359375 15.28125,6.359375 C16.34375,7.75 17.234375,9.359375 17.921875,11.203125 C18.4375,11.140625 18.71875,11.359375 18.859375,11.609375 L16.734375,12.453125 C16.21875,10.734375 15.53125,9.171875 14.71875,7.78125 C14.0625,9.546875 13.734375,11.59375 13.578125,13.65625 L18.8125,13.65625 C19.15625,13.65625 19.390625,13.78125 19.46875,14.046875 C18.796875,14.6875 17.71875,15.53125 17.71875,15.53125 L16.78125,14.359375 L13.53125,14.359375 C13.515625,15.125 13.484375,15.890625 13.484375,16.65625 C13.96875,16.65625 14.203125,16.890625 14.25,17.1875 Z M5.953125,11.78125 L5.953125,6.28125 L6.140625,6.28125 C6.703125,6.28125 7.265625,6.59375 7.265625,6.71875 L7.265625,7.53125 L9.8125,7.53125 L9.8125,6.765625 L10.015625,6.765625 C10.4375,6.765625 11.109375,7.109375 11.140625,7.265625 L11.140625,10.9375 C11.5,10.984375 11.8125,11.15625 11.921875,11.328125 L10.34375,12.5 L9.625,11.78125 L7.390625,11.78125 L5.953125,12.40625 Z M7.265625,8.25 L7.265625,11.0625 L9.8125,11.0625 L9.8125,8.25 Z M2.359375,18.71875 L2.359375,-1.890625 L2.609375,-1.890625 C3.3125,-1.890625 3.859375,-1.484375 3.859375,-1.265625 L3.859375,-0.28125 L20.140625,-0.28125 L20.140625,-1.6875 L20.359375,-1.6875 C20.90625,-1.6875 21.640625,-1.25 21.640625,-1.078125 L21.640625,17.734375 C22.125,17.828125 22.53125,18.03125 22.703125,18.21875 L20.78125,19.734375 L19.890625,18.71875 L4.015625,18.71875 L2.359375,19.53125 Z M20.140625,0.4375 L3.859375,0.4375 L3.859375,18.03125 L20.140625,18.03125 Z" transform="translate(-0.53125, 19.734375) scale(1, -1)"/>
</svg>