<svg height="21.578125" viewBox="0 0 24 21.578125" width="24" xmlns="http://www.w3.org/2000/svg">
<path d="M6.578125,16.984375 L6.28125,16.828125 C6.90625,16.171875 7.609375,15.046875 7.78125,14.1875 C9,13.21875 10.265625,15.640625 6.578125,16.984375 Z M15.5,17.0625 C14.953125,15.859375 14.25,14.6875 13.734375,13.921875 L14.0625,13.625 C14.859375,14.15625 15.765625,15.03125 16.53125,15.796875 C17.015625,15.703125 17.328125,15.890625 17.453125,16.125 Z M7.96875,6.21875 L7.96875,2.953125 C7.96875,1.921875 8.28125,1.609375 10.109375,1.609375 L12.8125,1.609375 C16.609375,1.609375 17.296875,1.84375 17.296875,2.515625 C17.296875,2.78125 17.15625,2.921875 16.65625,3.09375 L16.609375,5.015625 L16.296875,5.015625 C16.109375,4.15625 15.859375,3.40625 15.71875,3.125 C15.59375,2.953125 15.5,2.90625 15.234375,2.90625 C14.921875,2.875 13.984375,2.859375 12.859375,2.859375 L10.34375,2.859375 C9.4375,2.859375 9.359375,2.921875 9.359375,3.21875 L9.359375,5.515625 L13.484375,5.515625 L13.484375,4.609375 L13.703125,4.609375 C14.15625,4.609375 14.875,4.9375 14.90625,5.09375 L14.90625,7.921875 C15.21875,7.96875 15.5,8.140625 15.625,8.25 L14.046875,9.4375 L13.3125,8.71875 L8.5625,8.71875 C9.03125,9.234375 9.453125,9.796875 9.84375,10.34375 L14.109375,10.34375 C15.1875,8.59375 16.625,7.15625 18.265625,6.125 C18.484375,6.75 18.890625,7.15625 19.4375,7.203125 L19.484375,7.4375 C17.96875,8.09375 16.515625,9.09375 15.3125,10.34375 L18.84375,10.34375 C19.15625,10.34375 19.375,10.4375 19.4375,10.703125 C18.75,11.328125 17.734375,12.078125 17.734375,12.078125 L16.828125,11.046875 L14.65625,11.046875 C14.203125,11.59375 13.796875,12.1875 13.484375,12.8125 L18.171875,12.8125 C18.484375,12.8125 18.703125,12.9375 18.75,13.203125 C18.09375,13.796875 17.09375,14.515625 17.09375,14.515625 L16.21875,13.515625 L11.546875,13.515625 C11.921875,14.421875 12.21875,15.359375 12.453125,16.265625 C12.984375,16.265625 13.265625,16.4375 13.375,16.75 L11.140625,17.296875 C10.890625,16.0625 10.5625,14.78125 10.078125,13.515625 L5.296875,13.515625 L5.5,12.8125 L9.796875,12.8125 C9.53125,12.21875 9.265625,11.609375 8.921875,11.046875 L4.5625,11.046875 L4.75,10.34375 L8.515625,10.34375 C7.484375,8.65625 6.140625,7.15625 4.390625,5.96875 L4.6875,5.6875 C6.1875,6.5 7.46875,7.515625 8.5,8.640625 L8.6875,8.015625 L13.484375,8.015625 L13.484375,6.21875 L9.640625,6.21875 L7.96875,6.953125 Z M12.90625,12.8125 C13.125,12.1875 13.390625,11.609375 13.703125,11.046875 L10.296875,11.046875 C10.65625,11.609375 10.96875,12.21875 11.234375,12.8125 Z M2.359375,18.671875 L2.359375,-1.875 L2.609375,-1.875 C3.3125,-1.875 3.859375,-1.484375 3.859375,-1.25 L3.859375,-0.390625 L20.109375,-0.390625 L20.109375,-1.625 L20.359375,-1.625 C20.90625,-1.625 21.625,-1.203125 21.640625,-1.0625 L21.640625,17.6875 C22.125,17.78125 22.53125,17.96875 22.703125,18.171875 L20.78125,19.703125 L19.875,18.671875 L4.015625,18.671875 L2.359375,19.484375 Z M20.109375,0.34375 L3.859375,0.34375 L3.859375,17.96875 L20.109375,17.96875 Z" transform="translate(-0.53125, 19.703125) scale(1, -1)"/>
</svg>