<svg height="21.578125" viewBox="0 0 24 21.578125" width="24" xmlns="http://www.w3.org/2000/svg">
<path d="M15.078125,16.828125 L14.8125,16.625 C15.765625,15.796875 16.921875,14.28125 17.1875,13.125 C18.578125,12.140625 19.609375,15.125 15.078125,16.828125 Z M7.9375,16.96875 C7.265625,15.3125 6.34375,13.75 5.46875,12.765625 L5.8125,12.484375 C6.90625,13.21875 8.09375,14.453125 8.953125,15.796875 C9.40625,15.71875 9.71875,15.90625 9.84375,16.15625 Z M8.359375,8.375 L8.359375,3.125 C8.359375,2.046875 8.6875,1.703125 10.46875,1.703125 L13.0625,1.703125 C16.734375,1.703125 17.421875,1.984375 17.421875,2.640625 C17.421875,2.90625 17.28125,3.078125 16.78125,3.21875 L16.703125,5.203125 L16.4375,5.203125 C16.203125,4.3125 15.984375,3.53125 15.8125,3.265625 C15.71875,3.09375 15.59375,3.078125 15.359375,3.046875 C15.046875,3.03125 14.1875,3 13.109375,3 L10.703125,3 C9.84375,3 9.75,3.09375 9.75,3.40625 L9.75,7.6875 L13.84375,7.6875 C13.75,6.578125 13.65625,6 13.46875,5.828125 C13.375,5.71875 13.203125,5.6875 12.90625,5.6875 C12.546875,5.6875 11.65625,5.765625 11.09375,5.8125 L11.09375,5.40625 C11.5625,5.296875 12.078125,5.1875 12.28125,5.015625 C12.53125,4.828125 12.59375,4.484375 12.59375,4.171875 C13.21875,4.171875 13.796875,4.296875 14.203125,4.578125 C14.828125,4.984375 15.046875,5.8125 15.125,7.5625 C15.546875,7.625 15.8125,7.734375 15.984375,7.890625 L14.40625,9.140625 L13.65625,8.375 L10.03125,8.375 L8.78125,8.921875 C9.140625,9.390625 9.5,9.84375 9.8125,10.3125 L14.15625,10.3125 C15.234375,8.609375 16.6875,7.171875 18.28125,6.1875 C18.5,6.8125 18.90625,7.203125 19.46875,7.265625 L19.515625,7.515625 C18.03125,8.140625 16.578125,9.125 15.390625,10.3125 L18.671875,10.3125 C19.015625,10.3125 19.21875,10.4375 19.265625,10.703125 C18.59375,11.296875 17.59375,12.09375 17.59375,12.09375 L16.6875,11.015625 L14.734375,11.015625 C14.25,11.609375 13.828125,12.234375 13.484375,12.90625 L16.15625,12.90625 C16.484375,12.90625 16.6875,13.03125 16.75,13.296875 C16.125,13.875 15.09375,14.640625 15.09375,14.640625 L14.234375,13.578125 L11.515625,13.578125 C11.875,14.46875 12.171875,15.359375 12.390625,16.25 C12.890625,16.25 13.203125,16.421875 13.265625,16.734375 L11.046875,17.28125 C10.828125,16.0625 10.484375,14.8125 10.03125,13.578125 L7.34375,13.578125 L7.53125,12.90625 L9.796875,12.90625 C9.53125,12.265625 9.234375,11.640625 8.90625,11.015625 L4.625,11.015625 L4.828125,10.3125 L8.5,10.3125 C7.484375,8.609375 6.140625,7.078125 4.4375,5.875 L4.6875,5.609375 C6.140625,6.40625 7.34375,7.375 8.359375,8.453125 Z M12.890625,12.90625 C13.125,12.265625 13.421875,11.609375 13.734375,11.015625 L10.265625,11.015625 C10.625,11.640625 10.9375,12.265625 11.234375,12.90625 Z M2.359375,18.671875 L2.359375,-1.875 L2.609375,-1.875 C3.3125,-1.875 3.859375,-1.484375 3.859375,-1.25 L3.859375,-0.390625 L20.140625,-0.390625 L20.140625,-1.625 L20.359375,-1.625 C20.921875,-1.625 21.640625,-1.203125 21.671875,-1.0625 L21.671875,17.6875 C22.15625,17.78125 22.5625,17.96875 22.734375,18.171875 L20.78125,19.703125 L19.890625,18.671875 L4.015625,18.671875 L2.359375,19.484375 Z M20.140625,0.34375 L3.859375,0.34375 L3.859375,17.96875 L20.140625,17.96875 Z" transform="translate(-0.546875, 19.703125) scale(1, -1)"/>
</svg>