<svg height="20.734375" viewBox="0 0 24 20.734375" width="24" xmlns="http://www.w3.org/2000/svg">
<path d="M2.421875,11.765625 L2.609375,11.046875 L11.15625,11.046875 L11.15625,0.03125 L0.984375,0.03125 L1.203125,-0.671875 L22.375,-0.671875 C22.734375,-0.671875 22.96875,-0.546875 23.046875,-0.28125 C22.15625,0.5 20.734375,1.578125 20.734375,1.578125 L19.484375,0.03125 L12.765625,0.03125 L12.765625,11.046875 L21,11.046875 C21.359375,11.046875 21.578125,11.15625 21.640625,11.421875 C20.8125,12.1875 19.390625,13.265625 19.390625,13.265625 L18.171875,11.765625 L12.765625,11.765625 L12.765625,19.125 C13.375,19.21875 13.578125,19.46875 13.65625,19.796875 L11.15625,20.0625 L11.15625,11.765625 Z" transform="translate(-0.015625, 20.0625) scale(1, -1)"/>
</svg>