<svg height="21.578125" viewBox="0 0 24 21.578125" width="24" xmlns="http://www.w3.org/2000/svg">
<path d="M10.015625,4.296875 C8.953125,3.28125 6.796875,1.96875 4.796875,1.265625 L4.96875,0.90625 C7.15625,1.296875 9.453125,2.203125 10.78125,3 C11.296875,2.875 11.65625,2.921875 11.828125,3.140625 Z M12.953125,3.859375 L12.84375,3.453125 C15.078125,2.828125 16.65625,2.015625 17.546875,1.171875 C18.984375,0.046875 21.1875,3.09375 12.953125,3.859375 Z M7.484375,16.46875 L7.484375,12.625 L7.703125,12.625 C8.28125,12.625 8.921875,12.953125 8.921875,13.078125 L8.921875,13.421875 L15.03125,13.421875 L15.03125,12.765625 L15.234375,12.765625 C15.71875,12.765625 16.46875,13.078125 16.484375,13.21875 L16.484375,15.59375 C16.828125,15.671875 17.140625,15.84375 17.25,16.015625 L15.59375,17.25 L14.828125,16.46875 L9.046875,16.46875 L7.484375,17.140625 Z M15.03125,14.109375 L8.921875,14.109375 L8.921875,15.75 L15.03125,15.75 Z M15.90625,9.03125 L15.90625,7.484375 L8.0625,7.484375 L8.0625,9.03125 Z M15.90625,9.71875 L8.0625,9.71875 L8.0625,11.234375 L15.90625,11.234375 Z M15.90625,6.796875 L15.90625,5.234375 L8.0625,5.234375 L8.0625,6.796875 Z M6.625,11.921875 L6.625,3.578125 L6.859375,3.578125 C7.46875,3.578125 8.0625,3.90625 8.0625,4.0625 L8.0625,4.53125 L15.90625,4.53125 L15.90625,3.796875 L16.125,3.796875 C16.578125,3.796875 17.328125,4.125 17.359375,4.265625 L17.359375,11.09375 C17.71875,11.140625 18.03125,11.296875 18.140625,11.46875 L16.46875,12.75 L15.71875,11.921875 L8.1875,11.921875 L6.625,12.640625 Z M2.328125,18.671875 L2.328125,-1.875 L2.59375,-1.875 C3.28125,-1.875 3.84375,-1.46875 3.84375,-1.25 L3.84375,-0.40625 L20.109375,-0.40625 L20.109375,-1.625 L20.328125,-1.625 C20.90625,-1.625 21.625,-1.203125 21.625,-1.03125 L21.625,17.6875 C22.109375,17.78125 22.515625,17.96875 22.6875,18.171875 L20.765625,19.703125 L19.875,18.671875 L3.984375,18.671875 L2.328125,19.484375 Z M20.109375,0.3125 L3.84375,0.3125 L3.84375,17.96875 L20.109375,17.96875 Z" transform="translate(-0.5078125, 19.703125) scale(1, -1)"/>
</svg>