<svg height="22.109375" viewBox="0 0 24 22.109375" width="24" xmlns="http://www.w3.org/2000/svg">
<path d="M20.609375,12.671875 C20.0625,10.296875 19.390625,8.25 18.53125,6.484375 C17.859375,8.953125 17.515625,11.8125 17.40625,14.71875 L22.484375,14.71875 C22.828125,14.71875 23.0625,14.828125 23.109375,15.09375 C22.34375,15.796875 21.125,16.78125 21.125,16.78125 L20.015625,15.40625 L17.375,15.40625 C17.359375,16.5625 17.328125,17.734375 17.359375,18.890625 C17.640625,18.9375 17.828125,19.015625 17.96875,19.125 L17.828125,18.984375 C18.640625,18.4375 19.625,17.421875 19.921875,16.5625 C21.453125,15.703125 22.4375,18.703125 18.046875,19.203125 C18.171875,19.296875 18.21875,19.421875 18.21875,19.5625 L15.75,19.875 C15.75,18.359375 15.765625,16.84375 15.84375,15.40625 L10.5625,15.40625 L8.765625,16.203125 L8.765625,9.765625 C8.765625,5.640625 8.203125,1.609375 4.75,-1.5625 L5.09375,-1.84375 C9.75,1.21875 10.265625,5.875 10.265625,9.796875 L10.265625,10.203125 L13.203125,10.203125 C13.125,6.34375 12.984375,4.390625 12.625,3.953125 C12.53125,3.84375 12.4375,3.796875 12.1875,3.796875 C11.859375,3.796875 10.75,3.859375 10.125,3.90625 L10.125,3.53125 C10.734375,3.40625 11.40625,3.21875 11.65625,3.03125 C11.90625,2.828125 12.03125,2.453125 12.03125,2.140625 C12.640625,2.140625 13.21875,2.328125 13.625,2.6875 C14.375,3.4375 14.546875,5.59375 14.640625,10.0625 C15.09375,10.109375 15.359375,10.25 15.5,10.390625 L13.796875,11.78125 L12.984375,10.890625 L10.265625,10.890625 L10.265625,14.71875 L15.890625,14.71875 C16.078125,10.96875 16.5625,7.5625 17.546875,4.65625 C16.015625,2.140625 13.984375,0.234375 11.328125,-1.34375 L11.5625,-1.78125 C14.296875,-0.484375 16.421875,1.125 18.078125,3.265625 C18.671875,1.890625 19.375,0.671875 20.25,-0.390625 C21.078125,-1.375 22.390625,-2.234375 23.0625,-1.609375 C23.328125,-1.375 23.25,-0.9375 22.65625,0.09375 L23.09375,3.8125 L22.78125,3.859375 C22.515625,2.921875 22.109375,1.796875 21.84375,1.25 C21.625,0.75 21.5,0.75 21.21875,1.171875 C20.359375,2.140625 19.65625,3.359375 19.125,4.734375 C20.296875,6.625 21.234375,8.859375 21.984375,11.546875 C22.625,11.515625 22.84375,11.640625 22.9375,11.90625 Z M0.796875,4.078125 L1.9375,2.0625 C2.15625,2.1875 2.359375,2.40625 2.40625,2.71875 C5.109375,4.25 7.15625,5.546875 8.5625,6.40625 L8.421875,6.75 L5.375,5.609375 L5.375,12.546875 L8.046875,12.546875 C8.375,12.546875 8.59375,12.671875 8.65625,12.9375 C7.96875,13.65625 6.84375,14.640625 6.84375,14.640625 L5.828125,13.265625 L5.375,13.265625 L5.375,18.671875 C5.96875,18.765625 6.1875,19.015625 6.234375,19.34375 L3.84375,19.609375 L3.84375,13.265625 L0.984375,13.265625 L1.171875,12.546875 L3.84375,12.546875 L3.84375,5.09375 C2.515625,4.609375 1.4375,4.25 0.796875,4.078125 Z" transform="translate(-0.0625, 19.875) scale(1, -1)"/>
</svg>