<svg height="21.875" viewBox="0 0 24 21.875" width="24" xmlns="http://www.w3.org/2000/svg">
<path d="M0.71875,4.796875 L1.734375,2.765625 C1.9375,2.875 2.140625,3.140625 2.1875,3.4375 C5.203125,5.234375 7.515625,6.796875 9.171875,7.84375 L9.03125,8.1875 L5.5,6.671875 L5.5,12.9375 L8.40625,12.9375 C8.734375,12.9375 8.953125,13.0625 9.03125,13.3125 C8.328125,14.015625 7.171875,15.046875 7.171875,15.046875 L6.140625,13.625 L5.5,13.625 L5.5,18.84375 C6.09375,18.953125 6.3125,19.171875 6.359375,19.515625 L3.9375,19.78125 L3.9375,13.625 L0.984375,13.625 L1.171875,12.9375 L3.9375,12.9375 L3.9375,6.046875 C2.515625,5.46875 1.390625,5.015625 0.71875,4.796875 Z M19.375,7.390625 L19.375,4.265625 L12.40625,4.265625 L12.40625,7.0625 L12.796875,7.390625 Z M20.28125,19.5625 C19.75,18.453125 19.125,17.328125 18.40625,16.171875 C17.71875,16.828125 16.796875,17.546875 16.796875,17.546875 L15.796875,16.21875 L14.28125,16.21875 L14.28125,19.109375 C14.875,19.171875 15.125,19.421875 15.171875,19.75 L12.75,19.984375 L12.75,16.21875 L8.25,16.21875 L8.453125,15.53125 L12.75,15.53125 L12.75,12.28125 L7.484375,12.28125 L7.6875,11.609375 L15.171875,11.609375 C14.25,10.484375 13.265625,9.359375 12.21875,8.296875 L10.84375,8.90625 L10.84375,6.953125 C9.125,5.328125 7.21875,3.84375 5.25,2.5625 L5.515625,2.25 C7.421875,3.265625 9.1875,4.46875 10.84375,5.765625 L10.84375,-1.890625 L11.109375,-1.890625 C11.90625,-1.890625 12.40625,-1.484375 12.40625,-1.375 L12.40625,-0.28125 L19.375,-0.28125 L19.375,-1.78125 L19.609375,-1.78125 C20.109375,-1.78125 20.921875,-1.390625 20.953125,-1.25 L20.953125,7.109375 C21.4375,7.171875 21.796875,7.375 21.953125,7.5625 L20.015625,9.046875 L19.125,8.09375 L13.5625,8.09375 C14.359375,8.828125 15.125,9.59375 15.84375,10.390625 C16.625,9.890625 17.546875,9.078125 17.953125,8.46875 C19.390625,7.828125 20.109375,10.4375 16.203125,10.796875 L16.921875,11.609375 L22.578125,11.609375 C22.921875,11.609375 23.140625,11.734375 23.203125,11.96875 C22.46875,12.703125 21.21875,13.6875 21.21875,13.6875 L20.109375,12.28125 L17.5,12.28125 C19.125,14.28125 20.5,16.3125 21.546875,18.1875 C22.171875,18.078125 22.4375,18.171875 22.578125,18.4375 Z M19.375,3.578125 L19.375,0.40625 L12.40625,0.40625 L12.40625,3.578125 Z M14.28125,15.53125 L18,15.53125 C17.296875,14.453125 16.53125,13.375 15.703125,12.28125 L14.28125,12.28125 Z" transform="translate(0.0390625, 19.984375) scale(1, -1)"/>
</svg>