<svg height="21.6875" viewBox="0 0 24 21.6875" width="24" xmlns="http://www.w3.org/2000/svg">
<path d="M0.75,5.015625 L1.703125,2.96875 C1.9375,3.078125 2.109375,3.3125 2.15625,3.625 C5.046875,5.328125 7.265625,6.8125 8.8125,7.828125 L8.65625,8.140625 L5.453125,6.8125 L5.453125,13.109375 L8.140625,13.109375 C8.453125,13.109375 8.65625,13.21875 8.71875,13.46875 C8.046875,14.25 6.890625,15.21875 6.890625,15.21875 L5.875,13.828125 L5.453125,13.828125 L5.453125,18.90625 C6.078125,19.015625 6.28125,19.25 6.34375,19.578125 L3.90625,19.84375 L3.90625,13.828125 L1.03125,13.828125 L1.203125,13.109375 L3.90625,13.109375 L3.90625,6.1875 C2.546875,5.640625 1.390625,5.203125 0.75,5.015625 Z M10.421875,19.5625 L10.03125,19.578125 C9.90625,17.71875 9.21875,16.578125 8.328125,16.109375 C7.015625,14.421875 10.703125,13.46875 10.625,17.71875 L20.421875,17.71875 C20.109375,16.890625 19.65625,15.90625 19.3125,15.28125 L19.625,15.09375 C20.5,15.703125 21.703125,16.734375 22.34375,17.453125 C22.828125,17.46875 23.09375,17.5 23.25,17.6875 L21.453125,19.46875 L20.421875,18.4375 L10.578125,18.4375 C10.5625,18.765625 10.484375,19.15625 10.421875,19.5625 Z M23.296875,9.984375 L21.140625,11.640625 C20.5625,10.78125 19.265625,9.234375 18.171875,8.140625 C17.453125,9.671875 16.890625,11.40625 16.5625,13.265625 L22.4375,13.265625 C22.78125,13.265625 23.015625,13.390625 23.0625,13.625 C22.25,14.46875 20.921875,15.453125 20.921875,15.453125 L19.75,13.984375 L8.859375,13.984375 L9.03125,13.265625 L13.734375,13.265625 C11.953125,11.6875 9.484375,10.171875 6.953125,9.09375 L7.21875,8.71875 C9.21875,9.34375 11.203125,10.171875 12.953125,11.15625 C13.203125,10.828125 13.4375,10.46875 13.65625,10.109375 C11.90625,7.921875 8.8125,5.65625 6.046875,4.375 L6.234375,3.984375 C9.171875,5.015625 12.34375,6.796875 14.421875,8.515625 C14.609375,8.0625 14.765625,7.578125 14.875,7.125 C12.640625,4.34375 9,1.4375 5.46875,-0.09375 L5.640625,-0.453125 C9.234375,0.671875 12.84375,2.953125 15.234375,5.109375 C15.453125,2.953125 15.09375,1.0625 14.421875,0.265625 C14.25,0.078125 14.046875,0.046875 13.734375,0.046875 C13.125,0.046875 11.359375,0.140625 10.390625,0.234375 L10.390625,-0.171875 C11.28125,-0.34375 12.140625,-0.546875 12.453125,-0.765625 C12.75,-1.015625 12.890625,-1.34375 12.90625,-1.84375 C14.296875,-1.84375 15.140625,-1.609375 15.640625,-1.03125 C17.546875,0.890625 17.734375,7.484375 13.375,11.421875 C14.328125,11.96875 15.171875,12.59375 15.90625,13.265625 L16.0625,13.265625 C16.796875,7.421875 18.625,2.953125 21.71875,0.078125 C22.078125,0.84375 22.703125,1.296875 23.453125,1.3125 L23.515625,1.5625 C21.4375,2.953125 19.65625,5.0625 18.390625,7.6875 C19.84375,8.359375 21.453125,9.234375 22.3125,9.84375 C22.78125,9.640625 23.15625,9.796875 23.296875,9.984375 Z" transform="translate(-0.1328125, 19.84375) scale(1, -1)"/>
</svg>