<svg height="22.890625" viewBox="0 0 24 22.890625" width="24" xmlns="http://www.w3.org/2000/svg">
<path d="M17.109375,1.796875 L16.96875,1.421875 C19.21875,0.546875 20.6875,-0.546875 21.40625,-1.53125 C22.921875,-2.953125 25.5625,0.671875 17.109375,1.796875 Z M13.46875,2.0625 C12.3125,0.859375 9.84375,-0.703125 7.515625,-1.484375 L7.65625,-1.875 C10.265625,-1.4375 12.9375,-0.453125 14.515625,0.5 C15.09375,0.359375 15.484375,0.40625 15.640625,0.640625 Z M0.796875,3.75 L1.84375,1.703125 C2.0625,1.796875 2.25,2.046875 2.328125,2.328125 C5.234375,3.90625 7.421875,5.234375 8.953125,6.140625 L8.828125,6.484375 L5.5625,5.296875 L5.5625,12.90625 L8.453125,12.90625 C8.765625,12.90625 9,13.03125 9.046875,13.296875 C8.375,14.015625 7.21875,15.03125 7.21875,15.03125 L6.1875,13.609375 L5.5625,13.609375 L5.5625,18.890625 C6.171875,18.984375 6.390625,19.21875 6.4375,19.5625 L4.015625,19.828125 L4.015625,13.609375 L1.03125,13.609375 L1.21875,12.90625 L4.015625,12.90625 L4.015625,4.75 C2.609375,4.296875 1.46875,3.90625 0.796875,3.75 Z M19.21875,19.84375 C17.59375,18.90625 14.453125,17.859375 11.828125,17.234375 L11.828125,19.125 C12.28125,19.203125 12.5,19.421875 12.53125,19.6875 L10.390625,19.9375 L10.390625,15.890625 C10.390625,14.71875 10.828125,14.421875 13.125,14.421875 L16.96875,14.421875 C22.15625,14.421875 22.9375,14.59375 22.9375,15.34375 C22.9375,15.59375 22.75,15.75 22.203125,15.90625 L22.125,18.03125 L21.8125,18.03125 C21.59375,17.046875 21.390625,16.265625 21.171875,15.953125 C21.078125,15.765625 20.921875,15.71875 20.5625,15.703125 C20.09375,15.671875 18.703125,15.640625 17.015625,15.640625 L13.21875,15.640625 C11.953125,15.640625 11.828125,15.71875 11.828125,16.0625 L11.828125,16.78125 C14.734375,17.046875 18.140625,17.71875 19.984375,18.4375 C20.46875,18.234375 20.65625,18.265625 20.875,18.453125 Z M14.015625,9.703125 L19.6875,9.703125 L19.6875,8.0625 L14.015625,8.0625 Z M14.015625,10.390625 L14.015625,12.046875 L19.6875,12.046875 L19.6875,10.390625 Z M14.015625,7.34375 L19.6875,7.34375 L19.6875,5.6875 L14.015625,5.6875 Z M12.546875,12.75 L12.546875,3.8125 L12.765625,3.8125 C13.515625,3.8125 14.015625,4.171875 14.015625,4.296875 L14.015625,5.015625 L19.6875,5.015625 L19.6875,4.078125 L19.875,4.078125 C20.375,4.078125 21.125,4.421875 21.140625,4.5625 L21.140625,11.859375 C21.546875,11.921875 21.890625,12.09375 22.03125,12.265625 L20.25,13.625 L19.46875,12.75 L14.296875,12.75 L12.546875,13.515625 Z M9.125,12.453125 L9.125,1.25 L9.40625,1.25 C9.953125,1.25 10.609375,1.578125 10.609375,1.78125 L10.609375,2.5 L22.46875,2.5 C22.796875,2.5 23.015625,2.609375 23.09375,2.875 C22.375,3.578125 21.1875,4.46875 21.1875,4.46875 L20.15625,3.1875 L10.609375,3.1875 L10.609375,11.59375 C11.15625,11.65625 11.375,11.90625 11.421875,12.1875 Z" transform="translate(-1.1796875, 19.9375) scale(1, -1)"/>
</svg>