<svg height="21.265625" viewBox="0 0 24 21.265625" width="24" xmlns="http://www.w3.org/2000/svg">
<path d="M11.5,20.140625 C10.875,17.59375 9.8125,15.1875 8.609375,13.375 C7.921875,14.046875 6.890625,14.96875 6.890625,14.96875 L5.875,13.578125 L5.375,13.578125 L5.375,18.8125 C5.96875,18.890625 6.1875,19.125 6.265625,19.46875 L3.84375,19.75 L3.84375,13.578125 L1.015625,13.578125 L1.203125,12.890625 L3.84375,12.890625 L3.84375,5.15625 C2.46875,4.65625 1.375,4.25 0.71875,4.078125 L1.65625,1.984375 C1.875,2.09375 2.0625,2.359375 2.109375,2.609375 C4.96875,4.265625 7.171875,5.71875 8.71875,6.640625 L8.59375,6.984375 L5.375,5.734375 L5.375,12.890625 L8.09375,12.890625 L8.296875,12.90625 C8.0625,12.546875 7.828125,12.234375 7.5625,11.921875 L7.890625,11.6875 C8.828125,12.40625 9.71875,13.3125 10.53125,14.40625 C10.984375,14.96875 11.40625,15.578125 11.765625,16.25 L22.125,16.25 C22.46875,16.25 22.703125,16.375 22.78125,16.625 C21.984375,17.328125 20.765625,18.34375 20.765625,18.34375 L19.6875,16.9375 L12.140625,16.9375 C12.484375,17.5625 12.765625,18.21875 13.03125,18.90625 C13.5625,18.890625 13.84375,19.109375 13.9375,19.375 Z M10.53125,13.65625 L10.53125,7.9375 L10.78125,7.9375 C11.375,7.9375 12.046875,8.28125 12.046875,8.421875 L12.046875,9.09375 L18.5,9.09375 L18.5,8.0625 L18.75,8.0625 C19.21875,8.0625 20.015625,8.375 20.046875,8.46875 L20.046875,12.671875 C20.5,12.765625 20.90625,12.953125 21.078125,13.15625 L19.125,14.59375 L18.265625,13.65625 L12.171875,13.65625 L10.53125,14.40625 Z M12.046875,9.8125 L12.046875,12.953125 L18.5,12.953125 L18.5,9.8125 Z M12.59375,-0.4375 L10.4375,-0.4375 L10.4375,5.609375 L12.59375,5.609375 Z M13.890625,-0.4375 L13.890625,5.609375 L16.109375,5.609375 L16.109375,-0.4375 Z M17.40625,-0.4375 L17.40625,5.609375 L19.625,5.609375 L19.625,-0.4375 Z M9,6.28125 L9,-0.4375 L5.609375,-0.4375 L5.78125,-1.125 L22.78125,-1.125 C23.09375,-1.125 23.28125,-1.015625 23.328125,-0.75 C22.890625,-0.046875 21.90625,1.03125 21.90625,1.03125 L21.09375,-0.4375 L21.09375,5.421875 C21.703125,5.5 22.015625,5.609375 22.171875,5.859375 L20.15625,7.34375 L19.375,6.28125 L10.703125,6.28125 L9,7.0625 Z" transform="translate(-0.0234375, 20.140625) scale(1, -1)"/>
</svg>