<svg height="23.109375" viewBox="0 0 24 23.109375" width="24" xmlns="http://www.w3.org/2000/svg">
<path d="M6.3125,3.625 L6.5,2.921875 L22.515625,2.921875 C22.84375,2.921875 23.09375,3.046875 23.140625,3.3125 C22.34375,4.0625 21.03125,5.0625 21.03125,5.0625 L19.890625,3.625 Z M16.578125,2.234375 L16.4375,1.84375 C18.84375,0.8125 20.515625,-0.453125 21.390625,-1.515625 C22.9375,-3 25.6875,0.625 16.578125,2.234375 Z M12.21875,2.5 C10.890625,1.171875 8.140625,-0.578125 5.640625,-1.515625 L5.765625,-1.875 C8.609375,-1.296875 11.5625,-0.078125 13.296875,1.015625 C13.890625,0.90625 14.234375,0.9375 14.421875,1.171875 Z M19.0625,10.984375 L19.0625,9 L11.734375,9 L11.734375,10.984375 Z M19.0625,11.71875 L11.734375,11.71875 L11.734375,13.703125 L19.0625,13.703125 Z M19.0625,8.296875 L19.0625,6.234375 L11.734375,6.234375 L11.734375,8.296875 Z M10.203125,14.40625 L10.203125,4.3125 L10.4375,4.3125 C11.09375,4.3125 11.734375,4.6875 11.734375,4.84375 L11.734375,5.546875 L19.0625,5.546875 L19.0625,4.53125 L19.296875,4.53125 C19.828125,4.53125 20.5625,4.96875 20.59375,5.140625 L20.59375,13.421875 C21.078125,13.515625 21.484375,13.6875 21.625,13.875 L19.703125,15.359375 L18.8125,14.40625 L16.03125,14.40625 L16.03125,16.578125 L22.484375,16.578125 C22.828125,16.578125 23.046875,16.703125 23.09375,16.9375 C22.3125,17.6875 21.078125,18.703125 21.078125,18.703125 L19.9375,17.28125 L16.03125,17.28125 L16.03125,19.21875 C16.625,19.296875 16.875,19.53125 16.921875,19.875 L14.5,20.109375 L14.5,17.28125 L8.0625,17.28125 L8.25,16.578125 L14.5,16.578125 L14.5,14.40625 L11.859375,14.40625 L10.203125,15.171875 Z M0.765625,4.078125 L1.734375,2.046875 C1.96875,2.140625 2.15625,2.375 2.203125,2.65625 C5.328125,4.375 7.6875,5.828125 9.359375,6.859375 L9.234375,7.171875 L5.546875,5.765625 L5.546875,12.953125 L8.421875,12.953125 C8.734375,12.953125 9,13.078125 9.046875,13.34375 C8.359375,14.046875 7.203125,15.078125 7.203125,15.078125 L6.1875,13.65625 L5.546875,13.65625 L5.546875,18.9375 C6.140625,19.03125 6.34375,19.265625 6.40625,19.609375 L3.984375,19.875 L3.984375,13.65625 L1.015625,13.65625 L1.203125,12.953125 L3.984375,12.953125 L3.984375,5.1875 C2.5625,4.6875 1.4375,4.265625 0.765625,4.078125 Z" transform="translate(-1.2265625, 20.109375) scale(1, -1)"/>
</svg>