<svg height="21.375" viewBox="0 0 24 21.375" width="24" xmlns="http://www.w3.org/2000/svg">
<path d="M11.109375,20.0625 L10.828125,19.921875 C11.5625,19.171875 12.28125,17.90625 12.34375,16.84375 C13.75,15.703125 15.1875,18.71875 11.109375,20.0625 Z M1.015625,-0.578125 L1.203125,-1.265625 L22.34375,-1.265625 C22.6875,-1.265625 22.921875,-1.15625 22.984375,-0.890625 C22.15625,-0.125 20.8125,0.9375 20.8125,0.9375 L19.625,-0.578125 L12.765625,-0.578125 L12.765625,2.5 L20.109375,2.5 C20.453125,2.5 20.6875,2.59375 20.765625,2.859375 C19.9375,3.625 18.640625,4.609375 18.640625,4.609375 L17.515625,3.1875 L12.765625,3.1875 L12.765625,4.53125 C13.3125,4.625 13.53125,4.875 13.578125,5.1875 L11.203125,5.421875 L11.203125,3.1875 L3.671875,3.1875 L3.859375,2.5 L11.203125,2.5 L11.203125,-0.578125 Z M20.765625,15.078125 C20.015625,14.046875 19.015625,12.90625 18.234375,12.171875 C17.609375,13.25 17.140625,14.453125 16.796875,15.8125 L22.0625,15.8125 C22.390625,15.8125 22.625,15.9375 22.703125,16.203125 C21.90625,16.921875 20.65625,17.875 20.65625,17.875 L19.609375,16.53125 L16.65625,16.53125 C17.515625,17.296875 18.40625,18.265625 19.015625,19.015625 C19.53125,19.015625 19.828125,19.203125 19.921875,19.484375 L17.46875,20.109375 C17.109375,19.0625 16.515625,17.59375 15.984375,16.53125 L8.15625,16.53125 L8.359375,15.8125 L13.078125,15.8125 C11.828125,14.5625 10.125,13.421875 8.28125,12.578125 L8.515625,12.171875 C10.3125,12.71875 12.046875,13.46875 13.46875,14.421875 L14.046875,13.703125 C12.890625,12.21875 10.890625,10.796875 9.046875,9.984375 L9.1875,9.578125 C11.1875,10.21875 13.3125,11.328125 14.78125,12.484375 L15.125,11.71875 C13.578125,9.59375 10.84375,7.75 8.28125,6.71875 L8.421875,6.34375 C10.984375,7.0625 13.6875,8.421875 15.546875,9.953125 C15.75,8.59375 15.546875,7.46875 15.125,6.953125 C15,6.796875 14.859375,6.765625 14.5625,6.765625 C14.0625,6.765625 12.484375,6.84375 11.59375,6.90625 L11.609375,6.5 C12.34375,6.390625 13.125,6.1875 13.421875,6 C13.703125,5.8125 13.84375,5.546875 13.890625,5.109375 C15.125,5.109375 15.859375,5.375 16.296875,5.875 C17.609375,7.3125 17.5,11.953125 13.921875,14.71875 C14.40625,15.046875 14.828125,15.4375 15.234375,15.8125 L16.265625,15.8125 C17.015625,11.359375 18.671875,8.328125 21.75,6.359375 C22.015625,7.0625 22.484375,7.46875 23.109375,7.53125 L23.15625,7.78125 C21.21875,8.640625 19.65625,9.953125 18.53125,11.71875 C19.46875,12.171875 20.609375,12.8125 21.59375,13.515625 C22.0625,13.375 22.265625,13.421875 22.46875,13.609375 Z M2.203125,18.34375 L2.203125,4.484375 L2.421875,4.484375 C3.171875,4.484375 3.640625,4.890625 3.640625,4.984375 L3.640625,17.640625 L6.484375,17.640625 C5.96875,16.25 5.234375,14.328125 4.6875,13.21875 C6.390625,11.921875 7.125,10.6875 7.125,9.359375 C7.125,8.734375 6.953125,8.421875 6.625,8.234375 C6.4375,8.109375 6.265625,8.09375 5.953125,8.09375 C5.5625,8.09375 4.65625,8.09375 4.15625,8.09375 L4.15625,7.734375 C4.6875,7.625 5.15625,7.515625 5.359375,7.390625 C5.546875,7.203125 5.640625,6.765625 5.640625,6.34375 C7.828125,6.4375 8.640625,7.265625 8.640625,9.046875 C8.609375,10.53125 7.625,11.96875 5.296875,13.296875 C6.1875,14.328125 7.421875,16.21875 8.09375,17.28125 C8.640625,17.28125 8.953125,17.328125 9.140625,17.515625 L7.4375,19.296875 L6.453125,18.34375 L3.9375,18.34375 L2.203125,19.109375 Z" transform="translate(-0.0859375, 20.109375) scale(1, -1)"/>
</svg>