<svg height="21.046875" viewBox="0 0 24 21.046875" width="24" xmlns="http://www.w3.org/2000/svg">
<path d="M8.546875,7.46875 L8.203125,7.375 C8.421875,6.578125 8.546875,5.328125 8.40625,4.3125 C9.484375,2.921875 11.46875,5.25 8.546875,7.46875 Z M13.46875,7.578125 L13.203125,7.421875 C13.875,6.671875 14.640625,5.375 14.734375,4.296875 C16.15625,3.140625 17.59375,6.09375 13.46875,7.578125 Z M18.34375,7.625 L18.09375,7.421875 C19.296875,6.59375 20.71875,5.109375 21.078125,3.84375 C22.828125,2.8125 23.734375,6.453125 18.34375,7.625 Z M4.171875,7.484375 C4.078125,6.265625 2.96875,5.328125 2.046875,4.984375 C1.5625,4.75 1.203125,4.34375 1.375,3.859375 C1.578125,3.34375 2.40625,3.3125 2.96875,3.625 C3.90625,4.0625 4.984375,5.328125 4.609375,7.484375 Z M4.46875,18.796875 L4.46875,12.03125 L4.703125,12.03125 C5.5,12.03125 6,12.40625 6,12.53125 L6,13.015625 L11.203125,13.015625 L11.203125,11.203125 L3.3125,11.203125 L3.53125,10.484375 L11.203125,10.484375 L11.203125,8.6875 L1.3125,8.6875 L1.53125,7.96875 L22.125,7.96875 C22.46875,7.96875 22.703125,8.09375 22.75,8.359375 C21.984375,9.078125 20.71875,10.03125 20.71875,10.03125 L19.625,8.6875 L12.75,8.6875 L12.75,10.484375 L20.328125,10.484375 C20.65625,10.484375 20.875,10.609375 20.953125,10.875 C20.203125,11.5625 19.0625,12.40625 19.0625,12.40625 L18.03125,11.203125 L12.75,11.203125 L12.75,13.015625 L17.90625,13.015625 L17.90625,12.390625 L18.125,12.390625 C18.640625,12.390625 19.4375,12.765625 19.46875,12.90625 L19.46875,17.8125 C19.921875,17.90625 20.296875,18.09375 20.46875,18.265625 L18.53125,19.78125 L17.65625,18.796875 L6.3125,18.796875 L4.46875,19.578125 Z M6,18.09375 L11.203125,18.09375 L11.203125,16.25 L6,16.25 Z M17.90625,18.09375 L17.90625,16.25 L12.75,16.25 L12.75,18.09375 Z M6,15.53125 L11.203125,15.53125 L11.203125,13.703125 L6,13.703125 Z M17.90625,15.53125 L17.90625,13.703125 L12.75,13.703125 L12.75,15.53125 Z M1.0625,-0.578125 L1.265625,-1.265625 L22.390625,-1.265625 C22.75,-1.265625 22.984375,-1.15625 23.046875,-0.890625 C22.21875,-0.125 20.875,0.9375 20.875,0.9375 L19.6875,-0.578125 L12.765625,-0.578125 L12.765625,2.25 L20.109375,2.25 C20.453125,2.25 20.6875,2.375 20.765625,2.609375 C19.9375,3.390625 18.640625,4.390625 18.640625,4.390625 L17.515625,2.953125 L12.765625,2.953125 L12.765625,4.375 C13.3125,4.46875 13.53125,4.6875 13.578125,4.984375 L11.203125,5.234375 L11.203125,2.953125 L3.59375,2.953125 L3.796875,2.25 L11.203125,2.25 L11.203125,-0.578125 Z" transform="translate(-0.3984375, 19.78125) scale(1, -1)"/>
</svg>