<svg height="21.890625" viewBox="0 0 24 21.890625" width="24" xmlns="http://www.w3.org/2000/svg">
<path d="M12.234375,16.625 C11.421875,15.453125 9.546875,13.84375 7.75,12.984375 L7.96875,12.625 C10.0625,13.21875 12.21875,14.359375 13.375,15.28125 C13.9375,15.234375 14.296875,15.3125 14.453125,15.546875 Z M16.484375,16.4375 L16.34375,16.078125 C18.53125,15.140625 20.28125,13.78125 20.953125,12.9375 C22.6875,12.28125 23.40625,15.796875 16.484375,16.4375 Z M20.515625,5.609375 C19.890625,4.890625 18.703125,3.796875 17.65625,2.953125 C16.875,3.75 16.203125,4.65625 15.703125,5.65625 L22.484375,5.65625 C22.796875,5.65625 23.046875,5.765625 23.09375,6.03125 C22.34375,6.71875 21.171875,7.6875 21.171875,7.6875 L20.109375,6.359375 L18.046875,6.359375 L18.046875,8.328125 L21.484375,8.328125 C21.796875,8.328125 22.015625,8.453125 22.0625,8.71875 C21.390625,9.390625 20.234375,10.296875 20.234375,10.296875 L19.25,9.03125 L18.046875,9.03125 L18.046875,10.921875 L21.71875,10.921875 C22.0625,10.921875 22.265625,11.046875 22.34375,11.296875 C21.625,11.96875 20.5,12.859375 20.5,12.859375 L19.53125,11.609375 L18.046875,11.609375 L18.046875,13.109375 C18.53125,13.203125 18.703125,13.390625 18.75,13.65625 L16.578125,13.890625 L16.578125,11.609375 L13.171875,11.609375 L13.171875,13.109375 C13.65625,13.171875 13.875,13.375 13.890625,13.65625 L11.734375,13.890625 L11.734375,11.609375 L8.015625,11.609375 L8.203125,10.921875 L11.734375,10.921875 L11.734375,9.03125 L8.40625,9.03125 L8.59375,8.328125 L11.734375,8.328125 L11.734375,6.359375 L7.578125,6.359375 L8.421875,6.890625 L8.28125,7.21875 L5.296875,6.09375 L5.296875,13.03125 L7.578125,13.03125 C7.890625,13.03125 8.140625,13.15625 8.1875,13.421875 C7.53125,14.09375 6.390625,15.09375 6.390625,15.09375 L5.421875,13.703125 L5.296875,13.703125 L5.296875,18.890625 C5.921875,18.953125 6.125,19.203125 6.1875,19.53125 L3.796875,19.796875 L3.796875,13.703125 L0.9375,13.703125 L1.125,13.03125 L3.796875,13.03125 L3.796875,5.5625 C2.453125,5.09375 1.34375,4.734375 0.703125,4.53125 L1.6875,2.46875 C1.921875,2.5625 2.109375,2.828125 2.15625,3.125 C4.34375,4.34375 6.140625,5.46875 7.515625,6.3125 L7.6875,5.65625 L12.453125,5.65625 C10.703125,4.203125 8.25,2.921875 5.59375,2.09375 L5.78125,1.6875 C7.6875,2.09375 9.5,2.6875 11.109375,3.4375 L11.109375,0.484375 C9.765625,0.234375 8.65625,0.046875 7.9375,-0.046875 L9,-1.875 C9.21875,-1.796875 9.40625,-1.625 9.53125,-1.3125 C12.9375,-0.28125 15.390625,0.625 17.15625,1.25 L17.09375,1.625 L12.53125,0.75 L12.53125,4.15625 C13.3125,4.609375 14.046875,5.109375 14.6875,5.65625 L15.140625,5.65625 C16.4375,2.046875 18.671875,-0.5 21.90625,-1.875 C22.109375,-1.109375 22.578125,-0.640625 23.203125,-0.53125 L23.234375,-0.28125 C21.28125,0.234375 19.53125,1.21875 18.09375,2.546875 C19.3125,3.046875 20.65625,3.71875 21.53125,4.203125 C22.015625,4.0625 22.21875,4.109375 22.390625,4.34375 Z M14.109375,20.015625 L14.109375,17.546875 L7.75,17.546875 L7.9375,16.828125 L22.296875,16.828125 C22.625,16.828125 22.84375,16.9375 22.921875,17.203125 C22.125,17.953125 20.859375,18.9375 20.859375,18.9375 L19.734375,17.546875 L15.640625,17.546875 L15.640625,19.125 C16.25,19.203125 16.484375,19.4375 16.53125,19.78125 Z M13.171875,10.921875 L16.578125,10.921875 L16.578125,9.03125 L13.171875,9.03125 Z M13.171875,8.328125 L16.578125,8.328125 L16.578125,6.359375 L13.171875,6.359375 Z" transform="translate(-0.0546875, 20.015625) scale(1, -1)"/>
</svg>