<svg height="21.125" viewBox="0 0 24 21.125" width="24" xmlns="http://www.w3.org/2000/svg">
<path d="M17.609375,15.640625 L17.609375,13.828125 L12.8125,13.828125 L12.8125,15.640625 Z M17.609375,16.375 L12.8125,16.375 L12.8125,18.171875 L17.609375,18.171875 Z M6.671875,15.640625 L11.296875,15.640625 L11.296875,13.828125 L6.671875,13.828125 Z M6.671875,16.375 L6.671875,18.171875 L11.296875,18.171875 L11.296875,16.375 Z M5.140625,18.859375 L5.140625,12.046875 L5.359375,12.046875 C5.96875,12.046875 6.671875,12.390625 6.671875,12.53125 L6.671875,13.125 L17.609375,13.125 L17.609375,12.125 L17.859375,12.125 C18.34375,12.125 19.125,12.484375 19.15625,12.625 L19.15625,17.859375 C19.65625,17.953125 20.046875,18.171875 20.1875,18.34375 L18.234375,19.828125 L17.375,18.859375 L6.796875,18.859375 L5.140625,19.609375 Z M9.1875,8.1875 L9.1875,6.265625 L7.078125,6.265625 L7.078125,8.1875 Z M9.1875,8.875 L7.078125,8.875 L7.078125,10.78125 L9.1875,10.78125 Z M3.796875,8.1875 L5.828125,8.1875 L5.828125,6.265625 L3.796875,6.265625 Z M3.796875,8.875 L3.796875,10.78125 L5.828125,10.78125 L5.828125,8.875 Z M2.359375,11.46875 L2.359375,4.46875 L2.5625,4.46875 C3.171875,4.46875 3.796875,4.796875 3.796875,4.9375 L3.796875,5.5625 L9.1875,5.5625 L9.1875,4.703125 L9.40625,4.703125 C9.890625,4.703125 10.609375,5.046875 10.625,5.1875 L10.625,10.53125 C11.046875,10.609375 11.40625,10.796875 11.546875,10.984375 L9.765625,12.34375 L8.953125,11.46875 L3.90625,11.46875 L2.359375,12.171875 Z M20.359375,8.1875 L20.359375,6.265625 L18.125,6.265625 L18.125,8.1875 Z M20.359375,8.875 L18.125,8.875 L18.125,10.75 L20.359375,10.75 Z M14.6875,8.1875 L16.84375,8.1875 L16.84375,6.265625 L14.6875,6.265625 Z M14.6875,8.875 L14.6875,10.75 L16.84375,10.75 L16.84375,8.875 Z M11.140625,5.28125 L11.140625,2.8125 L3.140625,2.8125 L3.359375,2.140625 L11.140625,2.140625 L11.140625,-0.625 L0.984375,-0.625 L1.203125,-1.296875 L22.421875,-1.296875 C22.78125,-1.296875 22.984375,-1.171875 23.0625,-0.90625 C22.25,-0.140625 20.875,0.953125 20.875,0.953125 L19.703125,-0.625 L12.703125,-0.625 L12.703125,2.140625 L20.515625,2.140625 C20.859375,2.140625 21.125,2.25 21.1875,2.5 C20.375,3.234375 19.0625,4.21875 19.0625,4.21875 L17.953125,2.8125 L12.703125,2.8125 L12.703125,4.46875 C12.984375,4.53125 13.171875,4.625 13.25,4.78125 L13.25,4.625 L13.4375,4.625 C14.0625,4.625 14.6875,4.9375 14.6875,5.09375 L14.6875,5.59375 L20.359375,5.59375 L20.359375,4.734375 L20.5625,4.734375 C21.046875,4.734375 21.796875,5.0625 21.8125,5.203125 L21.8125,10.484375 C22.265625,10.578125 22.65625,10.78125 22.828125,10.9375 L20.953125,12.390625 L20.109375,11.46875 L14.8125,11.46875 L13.25,12.171875 L13.25,5.0625 Z" transform="translate(-0.0234375, 19.828125) scale(1, -1)"/>
</svg>