<svg height="21.9375" viewBox="0 0 24 21.9375" width="24" xmlns="http://www.w3.org/2000/svg">
<path d="M8.234375,9.5 L8.421875,8.8125 L12.75,8.8125 C13.0625,8.8125 13.265625,8.90625 13.3125,9.171875 C12.765625,9.71875 11.90625,10.375 11.90625,10.375 L11.15625,9.5 Z M8.1875,7.21875 L8.375,6.5 L12.765625,6.5 C13.109375,6.5 13.3125,6.625 13.390625,6.890625 C12.796875,7.421875 11.921875,8.109375 11.921875,8.109375 L11.1875,7.21875 Z M16.921875,9.5 L17.109375,8.8125 L21.546875,8.8125 C21.859375,8.8125 22.0625,8.90625 22.125,9.171875 C21.578125,9.71875 20.734375,10.375 20.734375,10.375 L19.96875,9.5 Z M16.9375,7.21875 L17.140625,6.5 L21.765625,6.5 C22.078125,6.5 22.296875,6.625 22.375,6.890625 C21.796875,7.421875 20.921875,8.109375 20.921875,8.109375 L20.15625,7.21875 Z M14.296875,20.09375 L14.296875,17.5 L7.421875,17.5 L7.609375,16.78125 L22.421875,16.78125 C22.75,16.78125 22.984375,16.890625 23.0625,17.15625 C22.25,17.921875 20.921875,18.953125 20.921875,18.953125 L19.78125,17.5 L15.8125,17.5 L15.8125,19.203125 C16.390625,19.296875 16.65625,19.53125 16.703125,19.875 Z M20.65625,6.046875 C19.84375,5.25 18.5,4.0625 17.421875,3.1875 C16.6875,3.9375 16.03125,4.78125 15.546875,5.71875 L15.625,5.765625 C16.296875,5.734375 16.65625,5.859375 16.75,6.09375 L15.09375,6.59375 C15.484375,6.71875 15.796875,6.90625 15.796875,7.03125 L15.796875,10.015625 C16.296875,10.109375 16.46875,10.296875 16.484375,10.53125 L14.328125,10.78125 L14.328125,6.84375 C12.546875,5.046875 8.953125,2.875 5.1875,1.6875 L5.40625,1.296875 C7.421875,1.75 9.359375,2.421875 11.109375,3.21875 L11.109375,0.453125 C9.796875,0.234375 8.6875,0.078125 7.984375,-0.03125 L9.046875,-1.84375 C9.28125,-1.78125 9.453125,-1.578125 9.578125,-1.265625 C12.796875,-0.3125 15.09375,0.5 16.734375,1.109375 L16.6875,1.46875 L12.578125,0.71875 L12.578125,3.90625 C13.5625,4.421875 14.421875,4.921875 15.171875,5.453125 C16.4375,2.0625 18.671875,-0.234375 21.765625,-1.515625 C21.953125,-0.765625 22.4375,-0.34375 23.0625,-0.21875 L23.09375,0.046875 C21.125,0.578125 19.25,1.53125 17.8125,2.859375 C19.078125,3.390625 20.640625,4.078125 21.578125,4.578125 C22.03125,4.4375 22.25,4.46875 22.375,4.65625 Z M16.0625,12.03125 L13.6875,12.03125 L13.6875,14.546875 L16.0625,14.546875 Z M17.421875,12.03125 L17.421875,14.546875 L19.796875,14.546875 L19.796875,12.03125 Z M12.3125,12.03125 L10.21875,12.03125 L10.21875,14.546875 L12.3125,14.546875 Z M8.8125,15.234375 L8.8125,10.390625 L9,10.390625 C9.578125,10.390625 10.21875,10.6875 10.21875,10.796875 L10.21875,11.296875 L19.796875,11.296875 L19.796875,10.53125 L20.015625,10.53125 C20.5,10.53125 21.234375,10.84375 21.265625,10.984375 L21.265625,14.328125 C21.671875,14.40625 22.03125,14.59375 22.171875,14.765625 L20.375,16.109375 L19.609375,15.234375 L10.34375,15.234375 L8.8125,15.953125 Z M0.703125,4.484375 L1.796875,2.5 C2.046875,2.609375 2.203125,2.875 2.234375,3.171875 C4.796875,4.921875 6.765625,6.4375 8.109375,7.390625 L7.9375,7.734375 L5.328125,6.5 L5.328125,12.953125 L7.796875,12.953125 C8.140625,12.953125 8.375,13.078125 8.421875,13.34375 C7.75,14.046875 6.625,15.046875 6.625,15.046875 L5.640625,13.65625 L5.328125,13.65625 L5.328125,18.8125 C5.953125,18.90625 6.140625,19.15625 6.21875,19.484375 L3.8125,19.75 L3.8125,13.65625 L0.984375,13.65625 L1.171875,12.953125 L3.8125,12.953125 L3.8125,5.8125 C2.46875,5.203125 1.3125,4.703125 0.703125,4.484375 Z" transform="translate(0.1015625, 20.09375) scale(1, -1)"/>
</svg>