<svg height="20.421875" viewBox="0 0 24 20.421875" width="24" xmlns="http://www.w3.org/2000/svg">
<path d="M2.40625,0.03125 L2.59375,-0.671875 L21.03125,-0.671875 C21.390625,-0.671875 21.59375,-0.546875 21.671875,-0.28125 C20.8125,0.5 19.390625,1.5625 19.390625,1.5625 L18.171875,0.03125 L12.8125,0.03125 L12.8125,10.96875 L22.34375,10.96875 C22.703125,10.96875 22.921875,11.09375 22.984375,11.359375 C22.125,12.125 20.71875,13.203125 20.71875,13.203125 L19.484375,11.65625 L12.8125,11.65625 L12.8125,18.8125 C13.421875,18.90625 13.609375,19.15625 13.6875,19.484375 L11.15625,19.75 L11.15625,11.65625 L1.03125,11.65625 L1.25,10.96875 L11.15625,10.96875 L11.15625,0.03125 Z" transform="translate(-0.0078125, 19.75) scale(1, -1)"/>
</svg>