<svg height="21.890625" viewBox="0 0 24 21.890625" width="24" xmlns="http://www.w3.org/2000/svg">
<path d="M14.25,20.0625 L14.25,17.96875 L7.515625,17.96875 L7.703125,17.25 L22.46875,17.25 C22.828125,17.25 23.0625,17.375 23.109375,17.640625 C22.3125,18.390625 21.09375,19.34375 21.09375,19.34375 L19.96875,17.96875 L15.796875,17.96875 L15.796875,19.171875 C16.390625,19.25 16.625,19.484375 16.6875,19.828125 Z M7.9375,-0.03125 L8.953125,-1.828125 C9.140625,-1.75 9.359375,-1.578125 9.4375,-1.296875 C12.71875,-0.265625 15.140625,0.578125 16.84375,1.203125 L16.78125,1.578125 L12.625,0.796875 L12.625,3.40625 C13.421875,3.8125 14.140625,4.265625 14.765625,4.75 L15.34375,4.75 C16.609375,1.484375 18.8125,-0.59375 22.109375,-1.703125 C22.265625,-0.953125 22.75,-0.5 23.359375,-0.359375 L23.359375,-0.125 C21.4375,0.265625 19.6875,1.03125 18.265625,2.09375 C19.3125,2.515625 20.640625,3.09375 21.40625,3.5 C21.859375,3.359375 22.078125,3.40625 22.203125,3.59375 L20.6875,4.75 L22.515625,4.75 C22.828125,4.75 23.0625,4.875 23.109375,5.140625 C22.375,5.8125 21.1875,6.75 21.1875,6.75 L20.140625,5.453125 L17.953125,5.453125 L17.953125,7.078125 L21.546875,7.078125 C21.859375,7.078125 22.078125,7.203125 22.125,7.4375 C21.453125,8.109375 20.328125,9 20.328125,9 L19.34375,7.78125 L17.953125,7.78125 L17.953125,9.34375 L21.984375,9.34375 C22.3125,9.34375 22.53125,9.453125 22.609375,9.71875 C21.890625,10.390625 20.765625,11.28125 20.765625,11.28125 L19.78125,10.0625 L17.953125,10.0625 L17.953125,10.78125 C18.4375,10.875 18.59375,11.0625 18.625,11.359375 L16.46875,11.59375 L16.46875,10.0625 L13.171875,10.0625 L13.171875,10.796875 C13.6875,10.890625 13.875,11.109375 13.921875,11.40625 L11.71875,11.640625 L11.71875,10.0625 L7.828125,10.0625 L8.015625,9.34375 L11.71875,9.34375 L11.71875,7.78125 L8.328125,7.78125 L8.515625,7.078125 L11.71875,7.078125 L11.71875,5.453125 L7.4375,5.453125 L7.625,4.75 L12.4375,4.75 C10.6875,3.484375 8.28125,2.359375 5.765625,1.578125 L5.953125,1.15625 C7.78125,1.53125 9.578125,2.0625 11.15625,2.734375 L11.15625,0.5 C9.796875,0.265625 8.65625,0.078125 7.9375,-0.03125 Z M13.171875,9.34375 L16.46875,9.34375 L16.46875,7.78125 L13.171875,7.78125 Z M13.171875,7.078125 L16.46875,7.078125 L16.46875,5.453125 L13.171875,5.453125 Z M15.890625,4.75 L20.25,4.75 C19.625,4.078125 18.625,3.09375 17.859375,2.421875 C17.0625,3.09375 16.421875,3.890625 15.890625,4.75 Z M15.953125,15.859375 L15.953125,11.5625 L16.171875,11.5625 L16.46875,11.59375 C16.96875,11.65625 17.28125,11.90625 17.28125,12 L17.28125,12.453125 L19.921875,12.453125 L19.921875,11.921875 L20.140625,11.921875 C20.734375,11.921875 21.28125,12.234375 21.28125,12.34375 L21.28125,15.125 C21.71875,15.1875 21.953125,15.28125 22.109375,15.484375 L20.546875,16.6875 L19.875,15.859375 L17.546875,15.859375 L15.953125,16.578125 Z M9.03125,15.859375 L9.03125,11.515625 L9.234375,11.515625 C9.90625,11.515625 10.375,11.828125 10.375,11.953125 L10.375,12.484375 L12.8125,12.484375 L12.8125,11.90625 L13.015625,11.90625 C13.625,11.90625 14.140625,12.1875 14.140625,12.28125 L14.140625,15.125 C14.59375,15.1875 14.828125,15.28125 14.96875,15.484375 L13.421875,16.6875 L12.75,15.859375 L10.625,15.859375 L9.03125,16.578125 Z M10.375,13.171875 L10.375,15.1875 L12.8125,15.1875 L12.8125,13.171875 Z M17.28125,13.171875 L17.28125,15.1875 L19.921875,15.1875 L19.921875,13.171875 Z M0.703125,4.53125 L1.6875,2.46875 C1.921875,2.5625 2.109375,2.828125 2.15625,3.125 C4.875,4.65625 6.984375,6 8.421875,6.890625 L8.28125,7.21875 L5.296875,6.09375 L5.296875,13.03125 L7.578125,13.03125 C7.890625,13.03125 8.140625,13.15625 8.1875,13.421875 C7.53125,14.09375 6.390625,15.09375 6.390625,15.09375 L5.421875,13.703125 L5.296875,13.703125 L5.296875,18.890625 C5.921875,18.953125 6.125,19.203125 6.1875,19.53125 L3.796875,19.796875 L3.796875,13.703125 L0.9375,13.703125 L1.125,13.03125 L3.796875,13.03125 L3.796875,5.5625 C2.453125,5.09375 1.34375,4.734375 0.703125,4.53125 Z" transform="translate(-0.03125, 20.0625) scale(1, -1)"/>
</svg>