<svg height="22.109375" viewBox="0 0 24 22.109375" width="24" xmlns="http://www.w3.org/2000/svg">
<path d="M1.203125,6.984375 L1.421875,6.265625 L22.296875,6.265625 C22.625,6.265625 22.875,6.390625 22.9375,6.640625 C22.171875,7.3125 21,8.234375 21,8.234375 L19.96875,6.984375 Z M12.578125,3.34375 L12.28125,3.171875 C12.953125,2.5 13.703125,1.3125 13.828125,0.359375 C15.1875,-0.796875 16.734375,2.015625 12.578125,3.34375 Z M3.21875,9.078125 L3.4375,8.40625 L20.15625,8.40625 C20.46875,8.40625 20.6875,8.515625 20.765625,8.78125 C20.046875,9.40625 18.9375,10.21875 18.9375,10.21875 L17.953125,9.078125 L12.703125,9.078125 L12.703125,10.75 L18.21875,10.75 C18.53125,10.75 18.75,10.875 18.8125,11.140625 C18.09375,11.765625 17.046875,12.5 17.046875,12.5 L16.078125,11.46875 L4.625,11.46875 L4.828125,10.75 L11.140625,10.75 L11.140625,9.078125 Z M17.421875,5.90625 L17.421875,4.265625 L10.921875,4.265625 L11.109375,3.578125 L17.421875,3.578125 L17.421875,0.34375 C17.421875,0.03125 17.328125,-0.078125 16.984375,-0.078125 C16.609375,-0.078125 14.71875,0.078125 14.71875,0.078125 L14.71875,-0.3125 C15.546875,-0.4375 16.03125,-0.59375 16.3125,-0.84375 C16.609375,-1.078125 16.6875,-1.484375 16.734375,-1.921875 C18.703125,-1.734375 18.9375,-1.015625 18.9375,0.265625 L18.9375,3.578125 L22.03125,3.578125 C22.34375,3.578125 22.5625,3.703125 22.625,3.953125 C22.015625,4.578125 21,5.40625 21,5.40625 L20.109375,4.265625 L18.9375,4.265625 L18.9375,5.09375 C19.46875,5.1875 19.6875,5.359375 19.75,5.65625 Z M1.578125,13.53125 L1.796875,12.84375 L20.40625,12.84375 C20.109375,12.125 19.734375,11.28125 19.421875,10.734375 L19.703125,10.53125 C20.546875,11.046875 21.625,11.90625 22.21875,12.578125 C22.6875,12.59375 22.96875,12.640625 23.109375,12.8125 L21.359375,14.515625 L20.40625,13.53125 Z M11.109375,20.1875 L11.109375,18.171875 L1.65625,18.171875 L1.875,17.46875 L11.109375,17.46875 L11.109375,15.671875 L3.859375,15.671875 L4.03125,14.96875 L19.984375,14.96875 C20.328125,14.96875 20.5625,15.09375 20.609375,15.34375 C19.828125,16.078125 18.5,17.0625 18.5,17.0625 L17.40625,15.671875 L12.75,15.671875 L12.75,17.46875 L21.71875,17.46875 C22.0625,17.46875 22.296875,17.59375 22.375,17.859375 C21.53125,18.578125 20.203125,19.609375 20.203125,19.609375 L19.078125,18.171875 L12.75,18.171875 L12.75,19.296875 C13.3125,19.375 13.5625,19.609375 13.609375,19.9375 Z M2.953125,4.703125 L2.953125,-1.265625 L3.1875,-1.265625 C3.796875,-1.265625 4.421875,-0.9375 4.421875,-0.8125 L4.421875,0.5 L8.296875,0.5 L8.296875,-0.640625 L8.546875,-0.640625 C9,-0.640625 9.765625,-0.3125 9.796875,-0.171875 L9.796875,3.765625 C10.21875,3.84375 10.5625,4.03125 10.703125,4.203125 L8.875,5.5625 L8.09375,4.703125 L4.53125,4.703125 L2.953125,5.40625 Z M4.421875,1.203125 L4.421875,4.015625 L8.296875,4.015625 L8.296875,1.203125 Z" transform="translate(-0.15625, 20.1875) scale(1, -1)"/>
</svg>