<svg height="21.5" viewBox="0 0 24 21.5" width="24" xmlns="http://www.w3.org/2000/svg">
<path d="M11.109375,20.109375 L11.109375,17.40625 L2.203125,17.40625 L2.40625,16.703125 L11.109375,16.703125 L11.109375,13.9375 L4.0625,13.9375 L4.25,13.25 L20.109375,13.25 C20.453125,13.25 20.6875,13.375 20.765625,13.609375 C19.9375,14.359375 18.625,15.390625 18.625,15.390625 L17.5,13.9375 L12.71875,13.9375 L12.71875,16.703125 L21.453125,16.703125 C21.796875,16.703125 22.015625,16.828125 22.078125,17.09375 C21.265625,17.859375 19.921875,18.890625 19.921875,18.890625 L18.75,17.40625 L12.71875,17.40625 L12.71875,19.203125 C13.34375,19.296875 13.578125,19.53125 13.625,19.875 Z M3.578125,12.125 C3.71875,10.53125 2.921875,9 1.984375,8.40625 C1.515625,8.09375 1.203125,7.578125 1.4375,7.109375 C1.75,6.53125 2.609375,6.59375 3.1875,7.078125 C3.8125,7.5625 4.390625,8.59375 4.375,10.109375 L20.015625,10.109375 C19.625,9.171875 19.078125,7.984375 18.625,7.25 L18.9375,7.0625 C19.890625,7.75 21.21875,8.953125 21.890625,9.84375 C22.390625,9.859375 22.65625,9.90625 22.828125,10.078125 L21.03125,11.828125 L20.015625,10.796875 L4.296875,10.796875 C4.25,11.203125 4.15625,11.65625 4.015625,12.140625 Z M16.078125,8.109375 C14.40625,6.984375 11.109375,5.421875 8.296875,4.46875 L8.296875,8.0625 C8.78125,8.140625 9.03125,8.375 9.078125,8.65625 L6.75,8.921875 L6.75,0.390625 C6.75,-1.0625 7.3125,-1.390625 9.84375,-1.390625 L13.921875,-1.390625 C19.4375,-1.390625 20.375,-1.171875 20.375,-0.34375 C20.375,-0.03125 20.1875,0.140625 19.578125,0.34375 L19.515625,3.59375 L19.203125,3.59375 C18.890625,2.0625 18.59375,0.890625 18.359375,0.453125 C18.234375,0.21875 18.125,0.125 17.71875,0.078125 C17.1875,0.03125 15.765625,0 13.9375,0 L9.9375,0 C8.46875,0 8.296875,0.171875 8.296875,0.640625 L8.296875,3.953125 C11.375,4.5625 14.6875,5.640625 16.828125,6.484375 C17.375,6.265625 17.8125,6.265625 18.03125,6.484375 Z" transform="translate(-0.015625, 20.109375) scale(1, -1)"/>
</svg>