<svg height="21.40625" viewBox="0 0 24 21.40625" width="24" xmlns="http://www.w3.org/2000/svg">
<path d="M11.140625,20.140625 L11.140625,17.609375 L1.6875,17.609375 L1.890625,16.921875 L11.140625,16.921875 L11.140625,14.453125 L3.578125,14.453125 L3.765625,13.734375 L20.328125,13.734375 C20.65625,13.734375 20.875,13.84375 20.953125,14.109375 C20.140625,14.859375 18.84375,15.890625 18.84375,15.890625 L17.6875,14.453125 L12.71875,14.453125 L12.71875,16.921875 L21.625,16.921875 C21.9375,16.921875 22.171875,17.046875 22.25,17.296875 C21.4375,18.078125 20.09375,19.109375 20.09375,19.109375 L18.90625,17.609375 L12.71875,17.609375 L12.71875,19.21875 C13.3125,19.3125 13.5625,19.5625 13.609375,19.890625 Z M4.5625,7.890625 L4.5625,1.484375 L4.796875,1.484375 C5.421875,1.484375 6.078125,1.84375 6.078125,1.984375 L6.078125,3.125 L9.03125,3.125 L9.03125,-0.578125 L1.21875,-0.578125 L1.4375,-1.265625 L22.21875,-1.265625 C22.5625,-1.265625 22.796875,-1.15625 22.875,-0.890625 C22.03125,-0.125 20.65625,0.984375 20.65625,0.984375 L19.484375,-0.578125 L15,-0.578125 L15,3.125 L17.921875,3.125 L17.921875,1.78125 L18.140625,1.78125 C18.640625,1.78125 19.4375,2.09375 19.46875,2.25 L19.46875,6.90625 C19.921875,7.015625 20.296875,7.203125 20.46875,7.375 L18.546875,8.859375 L17.6875,7.890625 L15,7.890625 L15,10.828125 L19.984375,10.828125 C19.734375,10.078125 19.375,9.171875 19.078125,8.59375 L19.390625,8.421875 C20.15625,8.96875 21.21875,9.890625 21.796875,10.578125 C22.25,10.609375 22.515625,10.625 22.703125,10.796875 L20.953125,12.53125 L19.96875,11.546875 L4.109375,11.546875 C4.0625,11.90625 3.953125,12.3125 3.84375,12.71875 L3.40625,12.703125 C3.546875,11.203125 2.828125,9.765625 1.9375,9.265625 C1.46875,8.953125 1.15625,8.46875 1.390625,7.984375 C1.6875,7.4375 2.515625,7.515625 3.03125,7.921875 C3.640625,8.40625 4.203125,9.390625 4.171875,10.828125 L9.03125,10.828125 L9.03125,7.890625 L6.21875,7.890625 L4.5625,8.640625 Z M10.515625,-0.578125 L10.515625,3.125 L13.515625,3.125 L13.515625,-0.578125 Z M10.515625,10.828125 L13.515625,10.828125 L13.515625,7.890625 L10.515625,7.890625 Z M6.078125,3.8125 L6.078125,7.203125 L9.03125,7.203125 L9.03125,3.8125 Z M17.921875,3.8125 L15,3.8125 L15,7.203125 L17.921875,7.203125 Z M10.515625,3.8125 L10.515625,7.203125 L13.515625,7.203125 L13.515625,3.8125 Z" transform="translate(-0.015625, 20.140625) scale(1, -1)"/>
</svg>