<svg height="21.921875" viewBox="0 0 24 21.921875" width="24" xmlns="http://www.w3.org/2000/svg">
<path d="M5.71875,20.046875 L5.71875,17.546875 L1.65625,17.546875 L1.84375,16.84375 L5.71875,16.84375 L5.71875,14.28125 L2.09375,14.28125 L2.28125,13.578125 L5.71875,13.578125 L5.71875,10.578125 C3.75,10.203125 2.09375,9.90625 1.078125,9.765625 L2.375,7.9375 C2.59375,8.046875 2.765625,8.203125 2.859375,8.5 C6.90625,9.71875 9.796875,10.65625 11.78125,11.40625 L11.6875,11.78125 L7.25,10.890625 L7.25,13.578125 L11.046875,13.578125 C11.375,13.578125 11.59375,13.703125 11.65625,13.96875 C10.9375,14.640625 9.796875,15.53125 9.796875,15.53125 L8.765625,14.28125 L7.25,14.28125 L7.25,16.84375 L11.25,16.84375 C11.59375,16.84375 11.828125,16.96875 11.90625,17.234375 C11.15625,17.90625 9.984375,18.8125 9.984375,18.8125 L8.96875,17.546875 L7.25,17.546875 L7.25,19.15625 C7.84375,19.25 8.0625,19.46875 8.140625,19.796875 Z M11.953125,18.59375 L12.171875,17.90625 L15.21875,17.90625 C15.078125,14.546875 14.5,11.15625 9.53125,8.46875 L9.859375,8.09375 C15.796875,10.609375 16.65625,14.15625 16.9375,17.90625 L20.1875,17.90625 C19.984375,13.578125 19.65625,11.046875 19.125,10.53125 C18.9375,10.375 18.75,10.3125 18.34375,10.3125 C17.875,10.3125 16.46875,10.4375 15.671875,10.515625 L15.640625,10.078125 C16.421875,9.953125 17.203125,9.765625 17.5,9.53125 C17.8125,9.265625 17.875,8.859375 17.875,8.421875 C18.75,8.421875 19.578125,8.65625 20.15625,9.1875 C21.09375,10.0625 21.546875,12.703125 21.703125,17.71875 C22.171875,17.8125 22.46875,17.90625 22.625,18.09375 L20.828125,19.5625 L19.96875,18.59375 Z M10.703125,8.359375 C10.65625,7.25 10.5625,6.234375 10.3125,5.328125 L1.21875,5.328125 L1.4375,4.625 L10.109375,4.625 C9.21875,2.09375 6.953125,0.21875 0.890625,-1.390625 L1.078125,-1.875 C8.65625,-0.34375 10.984375,1.75 11.859375,4.625 L12.4375,4.625 C14.1875,1.015625 17.375,-0.84375 21.90625,-1.875 C22.109375,-1.109375 22.5625,-0.59375 23.203125,-0.453125 L23.234375,-0.21875 C18.765625,0.359375 15,1.78125 13.0625,4.625 L22.21875,4.625 C22.5625,4.625 22.78125,4.75 22.84375,5.015625 C22.03125,5.765625 20.6875,6.796875 20.6875,6.796875 L19.53125,5.328125 L12.03125,5.328125 C12.171875,6 12.265625,6.71875 12.34375,7.46875 C12.859375,7.515625 13.125,7.78125 13.171875,8.09375 Z" transform="translate(-0.0625, 20.046875) scale(1, -1)"/>
</svg>