<svg height="22.875" viewBox="0 0 24 22.875" width="24" xmlns="http://www.w3.org/2000/svg">
<path d="M0.953125,7.984375 L1.171875,7.265625 L7.875,7.265625 C6.703125,5.28125 5.328125,3.1875 4.375,1.96875 C4.921875,1.625 5.59375,1.53125 6,1.65625 L7.015625,3.171875 C8.875,2.78125 10.578125,2.40625 12.140625,1.96875 C9.59375,0.234375 5.96875,-0.75 1.109375,-1.421875 L1.203125,-1.84375 C7.109375,-1.375 11.09375,-0.40625 13.828125,1.46875 C16.875,0.53125 19.25,-0.53125 20.96875,-1.65625 C22.921875,-2.734375 24.75,0.34375 15.125,2.5 C16.4375,3.75 17.421875,5.296875 18.140625,7.265625 L22.421875,7.265625 C22.75,7.265625 22.96875,7.390625 23.046875,7.65625 C22.203125,8.421875 20.90625,9.4375 20.90625,9.4375 L19.734375,7.984375 L10.0625,7.984375 C10.5625,8.859375 11.015625,9.625 11.296875,10.171875 C11.921875,10.15625 12.1875,10.34375 12.28125,10.65625 L10.0625,11.203125 L13.25,11.1875 C19.984375,11.1875 20.90625,11.359375 20.90625,12.171875 C20.90625,12.484375 20.6875,12.671875 19.96875,12.8125 L19.84375,12.84375 L19.625,12.84375 C19.390625,12.75 19.109375,12.703125 18.890625,12.671875 C18.671875,12.625 18.390625,12.59375 18.03125,12.578125 C17.296875,12.53125 15.40625,12.53125 13.3125,12.53125 L8.09375,12.53125 C6.34375,12.53125 6.234375,12.625 6.234375,13.0625 L6.234375,16.578125 L22.296875,16.578125 C22.625,16.578125 22.875,16.703125 22.921875,16.9375 C22.125,17.71875 20.859375,18.671875 20.859375,18.671875 L19.703125,17.28125 L12.765625,17.28125 L12.765625,19.25 C13.34375,19.34375 13.578125,19.578125 13.625,19.921875 L11.1875,20.140625 L11.1875,17.28125 L1.015625,17.28125 L1.21875,16.578125 L4.6875,16.578125 L4.6875,12.859375 C4.6875,11.421875 5.28125,11.203125 8.140625,11.203125 L10.015625,11.203125 C9.625,10.390625 9.03125,9.234375 8.28125,7.984375 Z M9.625,7.265625 L16.203125,7.265625 C15.578125,5.46875 14.609375,4.03125 13.3125,2.859375 C11.609375,3.171875 9.640625,3.453125 7.375,3.703125 C8.109375,4.84375 8.90625,6.125 9.625,7.265625 Z" transform="translate(-0.8515625, 20.140625) scale(1, -1)"/>
</svg>