<svg height="22.921875" viewBox="0 0 24 22.921875" width="24" xmlns="http://www.w3.org/2000/svg">
<path d="M16.5625,17.421875 L16.3125,17.203125 C18.03125,15.8125 20.25,13.4375 20.953125,11.609375 C22.921875,10.46875 23.765625,14.65625 16.5625,17.421875 Z M10.390625,16.921875 L10.109375,16.78125 C10.96875,15.5 11.875,13.5625 11.859375,11.96875 C13.484375,10.421875 15.28125,14.1875 10.390625,16.921875 Z M4.96875,18.40625 C4.15625,15.40625 2.6875,12.53125 1.25,10.703125 L1.578125,10.46875 C3.53125,11.96875 5.25,14.328125 6.484375,17.0625 C10.6875,17.328125 15.390625,17.96875 18.5,18.546875 C19.078125,18.3125 19.515625,18.28125 19.75,18.484375 L18.046875,20.140625 C15.546875,19.3125 10.984375,18.265625 7.078125,17.65625 Z M9.953125,11.515625 C9.578125,10.734375 8.921875,9.59375 8.1875,8.359375 L0.953125,8.359375 L1.171875,7.625 L7.734375,7.625 C6.5,5.6875 5.109375,3.625 4.125,2.421875 C4.65625,2.0625 5.328125,1.984375 5.734375,2.109375 L6.8125,3.625 C8.640625,3.171875 10.296875,2.71875 11.78125,2.203125 C9.359375,0.40625 5.96875,-0.671875 1.421875,-1.4375 L1.515625,-1.875 C7.015625,-1.296875 10.734375,-0.21875 13.34375,1.65625 C16.15625,0.625 18.28125,-0.484375 19.828125,-1.609375 C21.703125,-2.78125 23.46875,0.28125 14.5625,2.6875 C15.9375,3.984375 16.9375,5.609375 17.765625,7.625 L22.421875,7.625 C22.75,7.625 22.96875,7.75 23.046875,8.015625 C22.203125,8.78125 20.90625,9.796875 20.90625,9.796875 L19.734375,8.359375 L9.953125,8.359375 C10.515625,9.1875 10.9375,9.9375 11.25,10.484375 C11.859375,10.4375 12.140625,10.65625 12.234375,10.96875 Z M9.5,7.625 L15.8125,7.625 C15.125,5.8125 14.15625,4.3125 12.859375,3.09375 C11.25,3.453125 9.359375,3.796875 7.15625,4.109375 C7.9375,5.203125 8.78125,6.484375 9.5,7.625 Z" transform="translate(-0.359375, 20.140625) scale(1, -1)"/>
</svg>