<svg height="22.03125" viewBox="0 0 24 22.03125" width="24" xmlns="http://www.w3.org/2000/svg">
<path d="M11.453125,12.03125 L19.578125,12.03125 L19.578125,7.25 L11.453125,7.25 Z M11.453125,12.75 L11.453125,17.46875 L15.03125,17.46875 L15.03125,12.75 Z M11.453125,6.578125 L15.03125,6.578125 L15.03125,0.859375 L11.453125,0.859375 Z M9.9375,18.1875 L9.9375,-1.921875 L10.171875,-1.921875 C10.9375,-1.921875 11.453125,-1.484375 11.453125,-1.375 L11.453125,0.1875 L22.5625,0.1875 C22.875,0.1875 23.109375,0.3125 23.15625,0.578125 C22.390625,1.296875 21.140625,2.28125 21.140625,2.28125 L20.046875,0.859375 L16.53125,0.859375 L16.53125,6.578125 L19.578125,6.578125 L19.578125,4.78125 L19.828125,4.78125 C20.296875,4.78125 21.078125,5.15625 21.09375,5.296875 L21.09375,11.765625 C21.578125,11.859375 21.953125,12.03125 22.125,12.21875 L20.203125,13.703125 L19.34375,12.75 L16.53125,12.75 L16.53125,17.46875 L21.71875,17.46875 C22.0625,17.46875 22.296875,17.59375 22.375,17.859375 C21.59375,18.546875 20.375,19.53125 20.375,19.53125 L19.296875,18.1875 L11.734375,18.1875 L9.9375,18.953125 Z M4.078125,20.109375 C3.953125,18.765625 3.640625,16.796875 3.265625,14.6875 L0.890625,14.6875 L1.109375,13.984375 L3.140625,13.984375 C2.515625,10.578125 1.703125,6.890625 1.0625,4.875 C1.734375,4.6875 2.328125,4.734375 2.640625,4.9375 L3,6.4375 C3.703125,5.953125 4.46875,5.359375 5.15625,4.734375 C4.25,2.421875 2.875,0.34375 0.75,-1.296875 L1.015625,-1.625 C3.4375,-0.140625 5.046875,1.734375 6.125,3.84375 C6.953125,3 7.6875,2.140625 8.046875,1.34375 C9.53125,0.578125 10.15625,2.90625 6.71875,5.1875 C7.78125,7.84375 8.15625,10.796875 8.421875,13.75 C8.90625,13.828125 9.125,13.890625 9.28125,14.109375 L7.578125,15.640625 L6.671875,14.6875 L4.703125,14.6875 C5.015625,16.46875 5.296875,18.078125 5.46875,19.171875 C6.046875,19.203125 6.265625,19.4375 6.34375,19.75 Z M4.5625,13.984375 L6.859375,13.984375 C6.703125,11.15625 6.390625,8.375 5.5625,5.859375 C4.875,6.234375 4.0625,6.59375 3.125,6.9375 C3.59375,9.078125 4.125,11.640625 4.5625,13.984375 Z" transform="translate(0.046875, 20.109375) scale(1, -1)"/>
</svg>