<svg height="22.75" viewBox="0 0 24 22.75" width="24" xmlns="http://www.w3.org/2000/svg">
<path d="M1.03125,11.0625 L2.328125,9.3125 C2.515625,9.40625 2.6875,9.59375 2.765625,9.890625 C5.640625,11.234375 7.734375,12.3125 9.1875,13.109375 L9.078125,13.46875 C5.765625,12.390625 2.5,11.40625 1.03125,11.0625 Z M1.53125,17.109375 L1.734375,16.421875 L7.9375,16.421875 C8.28125,16.421875 8.5,16.53125 8.5625,16.78125 C7.78125,17.546875 6.5,18.546875 6.5,18.546875 L5.375,17.109375 Z M11.5625,20.09375 C10.875,17.96875 9.40625,15.59375 7.6875,14.25 L7.9375,13.984375 C9.21875,14.609375 10.375,15.546875 11.296875,16.609375 L13.46875,16.609375 C13.265625,13.5625 12.40625,10.890625 5.6875,8.765625 L5.96875,8.40625 C12.765625,10.125 14.421875,12.53125 14.96875,15.453125 C15.625,12.34375 17.15625,9.84375 21.578125,8.453125 C21.71875,9.265625 22.203125,9.5 22.984375,9.625 L23.015625,9.90625 C17.71875,11.15625 15.90625,13.421875 15.265625,16.609375 L19.890625,16.609375 C19.390625,15.59375 18.59375,14.296875 18,13.515625 L18.3125,13.3125 C19.46875,14.0625 20.921875,15.359375 21.71875,16.375 C22.203125,16.390625 22.484375,16.421875 22.6875,16.609375 L20.921875,18.28125 L19.9375,17.28125 L11.875,17.28125 C12.359375,17.90625 12.796875,18.53125 13.125,19.15625 C13.734375,19.125 13.875,19.21875 13.96875,19.46875 Z M10.46875,9.390625 C10.0625,8.71875 9.390625,7.703125 8.59375,6.625 L0.984375,6.625 L1.171875,5.921875 L8.0625,5.921875 C6.9375,4.421875 5.65625,2.859375 4.75,1.890625 C5.234375,1.53125 5.875,1.390625 6.34375,1.46875 L7.34375,2.65625 C9,2.296875 10.515625,1.9375 11.921875,1.5625 C9.4375,0.03125 6,-0.84375 1.515625,-1.4375 L1.609375,-1.890625 C7.078125,-1.46875 10.875,-0.59375 13.5625,1.0625 C16.171875,0.21875 18.234375,-0.703125 19.75,-1.65625 C21.546875,-2.65625 23.28125,0.03125 14.875,2.015625 C16.078125,3.046875 17.015625,4.34375 17.765625,5.921875 L22.484375,5.921875 C22.828125,5.921875 23.046875,6.046875 23.09375,6.3125 C22.296875,7.0625 21,8.046875 21,8.046875 L19.828125,6.625 L10.46875,6.625 C10.96875,7.296875 11.40625,7.890625 11.6875,8.328125 C12.28125,8.28125 12.546875,8.46875 12.703125,8.78125 Z M9.9375,5.921875 L15.84375,5.921875 C15.1875,4.515625 14.28125,3.34375 13.109375,2.40625 C11.59375,2.6875 9.84375,2.953125 7.78125,3.1875 Z" transform="translate(-0.1328125, 20.09375) scale(1, -1)"/>
</svg>