<svg height="22" viewBox="0 0 24 22" width="24" xmlns="http://www.w3.org/2000/svg">
<path d="M19.78125,13.375 L15.21875,13.375 L15.21875,17.90625 L19.78125,17.90625 Z M15.21875,11.640625 L15.21875,12.671875 L19.78125,12.671875 L19.78125,11.46875 L20.015625,11.46875 C20.546875,11.46875 21.28125,11.859375 21.3125,11.96875 L21.3125,17.609375 C21.796875,17.71875 22.171875,17.921875 22.3125,18.09375 L20.40625,19.5625 L19.53125,18.625 L15.359375,18.625 L13.75,19.3125 L13.75,11.140625 L13.96875,11.140625 C14.609375,11.140625 15.21875,11.5 15.21875,11.640625 Z M16.828125,7.296875 L14.46875,7.53125 C14.453125,6.71875 14.359375,5.90625 14.1875,5.109375 L8.421875,5.109375 L8.59375,4.421875 L14.015625,4.421875 C13.34375,2.015625 11.734375,-0.171875 7.890625,-1.53125 L8.140625,-1.890625 C13.125,-0.5 14.90625,1.875 15.640625,4.421875 L15.84375,4.421875 C17.015625,1.21875 19.203125,-0.90625 21.890625,-1.875 C22.015625,-1.15625 22.578125,-0.671875 23.359375,-0.390625 L23.375,-0.09375 C20.546875,0.40625 17.8125,1.796875 16.484375,4.421875 L22.875,4.421875 C23.1875,4.421875 23.40625,4.53125 23.46875,4.78125 C22.75,5.5625 21.578125,6.546875 21.578125,6.546875 L20.5,5.109375 L20.203125,5.109375 L20.203125,8.8125 C20.65625,8.875 21.046875,9.09375 21.1875,9.265625 L19.375,10.6875 L18.484375,9.765625 L11.5625,9.765625 L11.5625,17.109375 C12.140625,17.203125 12.359375,17.40625 12.40625,17.765625 L10.125,17.96875 L10.125,7.171875 L10.421875,7.171875 C10.9375,7.171875 11.5625,7.53125 11.5625,7.703125 L11.5625,9.046875 L18.71875,9.046875 L18.71875,5.109375 L15.8125,5.109375 C15.9375,5.640625 16.015625,6.1875 16.078125,6.71875 C16.578125,6.765625 16.78125,7.015625 16.828125,7.296875 Z M6.359375,19.734375 L4.109375,20.109375 C3.953125,18.765625 3.671875,16.796875 3.28125,14.6875 L0.90625,14.6875 L1.125,13.984375 L3.140625,13.984375 C2.515625,10.5625 1.703125,6.890625 1.078125,4.84375 C1.734375,4.6875 2.359375,4.703125 2.640625,4.9375 L3,6.4375 C3.703125,5.953125 4.46875,5.359375 5.15625,4.734375 C4.25,2.421875 2.875,0.34375 0.75,-1.3125 L1.03125,-1.625 C3.453125,-0.140625 5.0625,1.734375 6.125,3.84375 C6.984375,3 7.6875,2.109375 8.0625,1.34375 C9.53125,0.578125 10.15625,2.875 6.71875,5.1875 C7.78125,7.84375 8.15625,10.796875 8.421875,13.75 C8.90625,13.828125 9.125,13.921875 9.28125,14.109375 L7.578125,15.671875 L6.671875,14.6875 L4.703125,14.6875 C5.046875,16.46875 5.296875,18.046875 5.46875,19.15625 C6.078125,19.171875 6.28125,19.421875 6.359375,19.734375 Z M4.5625,13.984375 L6.859375,13.984375 C6.703125,11.15625 6.390625,8.375 5.5625,5.859375 C4.875,6.234375 4.0625,6.59375 3.125,6.9375 C3.59375,9.078125 4.125,11.640625 4.5625,13.984375 Z" transform="translate(-0.109375, 20.109375) scale(1, -1)"/>
</svg>