<svg height="22.828125" viewBox="0 0 24 22.828125" width="24" xmlns="http://www.w3.org/2000/svg">
<path d="M16.75,3.4375 L16.515625,3.21875 C18.234375,2.109375 20.40625,0.078125 21.046875,-1.65625 C22.984375,-2.71875 23.6875,1.53125 16.75,3.4375 Z M13.109375,3.71875 C11.96875,1.921875 9.546875,-0.28125 7.125,-1.5625 L7.34375,-1.890625 C10.21875,-0.953125 12.9375,0.765625 14.375,2.359375 C14.90625,2.25 15.125,2.328125 15.265625,2.546875 Z M13.65625,18.640625 L13.65625,11.0625 L13.84375,11.0625 C14.46875,11.0625 15.125,11.421875 15.125,11.5625 L15.125,12.5 L19.890625,12.5 L19.890625,11.28125 L20.140625,11.28125 C20.640625,11.28125 21.4375,11.640625 21.4375,11.8125 L21.4375,17.640625 C21.90625,17.734375 22.296875,17.921875 22.46875,18.125 L20.515625,19.609375 L19.65625,18.640625 L15.234375,18.640625 L13.65625,19.375 Z M19.890625,13.21875 L15.125,13.21875 L15.125,17.953125 L19.890625,17.953125 Z M8.234375,5.109375 L8.421875,4.421875 L22.78125,4.421875 C23.109375,4.421875 23.296875,4.53125 23.375,4.796875 C22.6875,5.515625 21.5,6.546875 21.5,6.546875 L20.453125,5.109375 L19.828125,5.109375 L19.828125,8.609375 C20.25,8.71875 20.65625,8.875 20.828125,9.078125 L18.953125,10.515625 L18.046875,9.578125 L11.546875,9.578125 L11.546875,17.140625 C12.125,17.203125 12.34375,17.453125 12.390625,17.765625 L10.078125,18.03125 L10.078125,7.203125 L10.34375,7.203125 C10.890625,7.203125 11.546875,7.53125 11.546875,7.75 L11.546875,8.875 L18.28125,8.875 L18.28125,5.109375 Z M4.078125,20.109375 C3.953125,18.765625 3.640625,16.796875 3.265625,14.6875 L0.890625,14.6875 L1.109375,13.984375 L3.140625,13.984375 C2.515625,10.578125 1.703125,6.890625 1.0625,4.875 C1.734375,4.6875 2.328125,4.734375 2.640625,4.9375 L3,6.4375 C3.703125,5.953125 4.46875,5.359375 5.15625,4.734375 C4.25,2.421875 2.875,0.34375 0.75,-1.296875 L1.015625,-1.625 C3.4375,-0.140625 5.046875,1.734375 6.125,3.84375 C6.953125,3 7.6875,2.140625 8.046875,1.34375 C9.53125,0.578125 10.15625,2.90625 6.71875,5.1875 C7.78125,7.84375 8.15625,10.796875 8.421875,13.75 C8.90625,13.828125 9.125,13.890625 9.28125,14.109375 L7.578125,15.640625 L6.671875,14.6875 L4.703125,14.6875 C5.015625,16.46875 5.296875,18.078125 5.46875,19.171875 C6.046875,19.203125 6.265625,19.4375 6.34375,19.75 Z M4.5625,13.984375 L6.859375,13.984375 C6.703125,11.15625 6.390625,8.375 5.5625,5.859375 C4.875,6.234375 4.0625,6.59375 3.125,6.9375 C3.59375,9.078125 4.125,11.640625 4.5625,13.984375 Z" transform="translate(-0.21875, 20.109375) scale(1, -1)"/>
</svg>