<svg height="21.90625" viewBox="0 0 24 21.90625" width="24" xmlns="http://www.w3.org/2000/svg">
<path d="M20.296875,12.953125 L20.296875,8.046875 L16.828125,8.046875 L16.828125,12.953125 Z M13.203125,20.015625 C12.265625,17.046875 10.375,13.3125 8.375,11.1875 L8.6875,10.921875 C9.28125,11.40625 9.890625,11.953125 10.4375,12.546875 L10.4375,5.78125 L10.65625,5.78125 C11.40625,5.78125 11.875,6.21875 11.875,6.34375 L11.875,7.3125 L13.515625,7.3125 C13.078125,3.078125 11.546875,0.5 7.0625,-1.515625 L7.203125,-1.890625 C12.484375,-0.21875 14.515625,2.453125 15.171875,7.3125 L16.921875,7.3125 L16.921875,0.078125 C16.921875,-0.953125 17.15625,-1.375 18.640625,-1.375 L20.1875,-1.375 C22.734375,-1.375 23.328125,-1.078125 23.328125,-0.453125 C23.328125,-0.171875 23.234375,0.03125 22.78125,0.21875 L22.703125,3.53125 L22.390625,3.53125 C22.15625,2.15625 21.890625,0.703125 21.71875,0.3125 C21.640625,0.09375 21.578125,0.046875 21.359375,0.03125 C21.21875,0 20.765625,0 20.234375,0 L19.015625,0 C18.5,0 18.453125,0.09375 18.453125,0.40625 L18.453125,7.3125 L20.296875,7.3125 L20.296875,6.234375 L20.546875,6.234375 C21.046875,6.234375 21.796875,6.640625 21.8125,6.796875 L21.8125,12.703125 C22.265625,12.796875 22.65625,12.984375 22.796875,13.15625 L20.921875,14.59375 L20.09375,13.65625 L16.4375,13.65625 C17.296875,14.5625 18.34375,15.796875 18.9375,16.53125 C19.421875,16.5625 19.703125,16.609375 19.875,16.78125 L18.09375,18.453125 L17.09375,17.453125 L13.921875,17.453125 C14.234375,18.03125 14.515625,18.59375 14.765625,19.15625 C15.390625,19.125 15.578125,19.25 15.625,19.515625 Z M11.875,12.953125 L15.3125,12.953125 L15.3125,8.046875 L11.875,8.046875 Z M12.171875,13.65625 L11.59375,13.921875 C12.28125,14.8125 12.9375,15.765625 13.515625,16.734375 L17.0625,16.734375 C16.703125,15.8125 16.203125,14.59375 15.75,13.65625 Z M4.078125,20.015625 C3.953125,18.671875 3.640625,16.703125 3.265625,14.59375 L0.890625,14.59375 L1.109375,13.890625 L3.140625,13.890625 C2.515625,10.484375 1.703125,6.796875 1.0625,4.78125 C1.734375,4.578125 2.328125,4.625 2.640625,4.84375 L3,6.34375 C3.703125,5.859375 4.46875,5.28125 5.15625,4.65625 C4.25,2.328125 2.875,0.265625 0.75,-1.390625 L1.015625,-1.734375 C3.4375,-0.234375 5.046875,1.625 6.125,3.75 C6.953125,2.90625 7.6875,2.015625 8.046875,1.25 C9.53125,0.484375 10.15625,2.8125 6.71875,5.09375 C7.78125,7.75 8.15625,10.703125 8.421875,13.65625 C8.90625,13.734375 9.125,13.796875 9.28125,14.015625 L7.578125,15.546875 L6.671875,14.59375 L4.703125,14.59375 C5.015625,16.375 5.296875,17.96875 5.46875,19.078125 C6.046875,19.109375 6.265625,19.34375 6.34375,19.65625 Z M4.5625,13.890625 L6.859375,13.890625 C6.703125,11.0625 6.390625,8.296875 5.5625,5.78125 C4.875,6.140625 4.0625,6.5 3.125,6.84375 C3.59375,9 4.125,11.5625 4.5625,13.890625 Z" transform="translate(-0.0390625, 20.015625) scale(1, -1)"/>
</svg>