<svg height="21.96875" viewBox="0 0 24 21.96875" width="24" xmlns="http://www.w3.org/2000/svg">
<path d="M10.03125,13.578125 L10.25,12.890625 L19.375,12.890625 L19.375,12 L19.609375,12 C20.09375,12 20.859375,12.390625 20.875,12.53125 L20.875,17.96875 C21.390625,18.078125 21.75,18.265625 21.90625,18.453125 L19.984375,19.9375 L19.125,18.984375 L10.265625,18.984375 L10.484375,18.265625 L19.375,18.265625 L19.375,16.34375 L10.84375,16.34375 L11.0625,15.640625 L19.375,15.640625 L19.375,13.578125 Z M15,9.671875 L15,7.21875 L12.265625,7.21875 L10.484375,7.96875 L10.484375,-0.4375 L10.734375,-0.4375 C11.46875,-0.4375 11.96875,-0.046875 11.96875,0.09375 L11.96875,6.5 L15,6.5 L15,-1.875 L15.28125,-1.875 C15.84375,-1.875 16.515625,-1.515625 16.515625,-1.3125 L16.515625,6.5 L19.796875,6.5 L19.796875,1.96875 C19.796875,1.65625 19.734375,1.53125 19.421875,1.53125 C19.0625,1.53125 17.59375,1.65625 17.59375,1.65625 L17.59375,1.265625 C18.3125,1.171875 18.71875,1.015625 18.9375,0.796875 C19.171875,0.546875 19.25,0.140625 19.296875,-0.28125 C21.078125,-0.09375 21.265625,0.625 21.265625,1.796875 L21.265625,6.28125 C21.671875,6.359375 22.03125,6.546875 22.171875,6.71875 L20.296875,8.09375 L19.609375,7.21875 L16.515625,7.21875 L16.515625,8.875 C16.96875,8.96875 17.140625,9.171875 17.1875,9.4375 Z M10.203125,11.859375 C10.25,10.75 9.671875,9.5 9.03125,9.03125 C8.609375,8.71875 8.328125,8.234375 8.5625,7.796875 C8.859375,7.3125 9.59375,7.421875 10.03125,7.796875 C10.515625,8.234375 10.875,9.078125 10.875,10.21875 L20.875,10.21875 C20.765625,9.546875 20.59375,8.765625 20.453125,8.234375 L20.8125,8.0625 C21.359375,8.546875 22.0625,9.359375 22.46875,9.953125 C22.921875,9.984375 23.1875,10.03125 23.359375,10.21875 L21.625,11.875 L20.71875,10.921875 L10.828125,10.921875 C10.78125,11.203125 10.734375,11.515625 10.625,11.859375 Z M3.859375,20.09375 C3.75,18.8125 3.484375,16.921875 3.140625,14.859375 L0.859375,14.859375 L1.0625,14.15625 L3.03125,14.15625 C2.421875,10.75 1.65625,7.0625 1.078125,5.0625 C1.734375,4.875 2.359375,4.9375 2.65625,5.15625 L2.953125,6.5 C3.640625,5.96875 4.390625,5.359375 5.0625,4.6875 C4.171875,2.421875 2.859375,0.40625 0.8125,-1.21875 L1.078125,-1.5625 C3.40625,-0.125 4.9375,1.6875 5.96875,3.703125 C6.765625,2.8125 7.375,1.875 7.65625,1.015625 C9.09375,0.140625 9.8125,2.5625 6.59375,5.046875 C7.703125,7.796875 8.046875,10.875 8.28125,13.9375 C8.765625,13.984375 9,14.0625 9.140625,14.28125 L7.421875,15.8125 L6.5,14.859375 L4.5625,14.859375 C4.84375,16.578125 5.09375,18.125 5.234375,19.171875 C5.859375,19.21875 6.046875,19.484375 6.125,19.796875 Z M4.4375,14.15625 L6.71875,14.15625 C6.578125,11.25 6.265625,8.40625 5.453125,5.828125 C4.78125,6.234375 3.984375,6.640625 3.078125,7.015625 C3.53125,9.171875 4.015625,11.78125 4.4375,14.15625 Z" transform="translate(-0.0859375, 20.09375) scale(1, -1)"/>
</svg>