<svg height="22.015625" viewBox="0 0 24 22.015625" width="24" xmlns="http://www.w3.org/2000/svg">
<path d="M14.640625,17.328125 L14.359375,17.203125 C14.734375,16.375 15.09375,15.03125 15.03125,13.921875 C16.296875,12.53125 18.265625,15.21875 14.640625,17.328125 Z M19.15625,17.734375 L18.890625,17.546875 C19.921875,16.421875 21.21875,14.515625 21.5,13.0625 C23.203125,11.78125 24.578125,15.4375 19.15625,17.734375 Z M8.765625,9.671875 L8.953125,8.96875 L12.53125,8.96875 C11.65625,4.84375 9.84375,1.296875 6.453125,-1.53125 L6.71875,-1.84375 C9.953125,0.1875 11.96875,2.8125 13.21875,5.953125 C13.828125,4.296875 14.65625,2.90625 15.71875,1.78125 C14.1875,0.40625 12.265625,-0.71875 10.015625,-1.53125 L10.203125,-1.921875 C12.75,-1.25 14.828125,-0.265625 16.53125,1.015625 C17.96875,-0.265625 19.796875,-1.203125 21.984375,-1.875 C22.203125,-1.125 22.6875,-0.640625 23.328125,-0.546875 L23.359375,-0.28125 C21.140625,0.140625 19.203125,0.859375 17.5625,1.875 C18.859375,3.046875 19.890625,4.421875 20.640625,5.921875 C21.1875,5.953125 21.453125,6.03125 21.640625,6.21875 L19.96875,7.734375 L18.984375,6.8125 L13.53125,6.8125 C13.78125,7.515625 13.96875,8.234375 14.15625,8.96875 L22.390625,8.96875 C22.734375,8.96875 22.9375,9.09375 23.015625,9.359375 C22.21875,10.078125 21,11.046875 21,11.046875 L19.890625,9.671875 L14.296875,9.671875 C14.5,10.515625 14.640625,11.375 14.734375,12.265625 L20.65625,12.265625 C21,12.265625 21.234375,12.390625 21.3125,12.640625 C20.515625,13.375 19.296875,14.296875 19.296875,14.296875 L18.171875,12.953125 L10.296875,12.953125 L10.484375,12.265625 L13.03125,12.265625 C12.9375,11.375 12.8125,10.515625 12.671875,9.671875 Z M16.5625,2.5625 C15.359375,3.53125 14.40625,4.6875 13.75,6.09375 L18.9375,6.09375 C18.359375,4.796875 17.5625,3.625 16.5625,2.5625 Z M10.6875,18.5 C10.4375,16.015625 9.703125,13.703125 8.65625,12.171875 L9,11.90625 C10.53125,13.125 11.65625,14.96875 12.359375,17.328125 C15.171875,17.546875 18.3125,18.078125 20.359375,18.484375 C20.90625,18.265625 21.328125,18.265625 21.546875,18.453125 L19.78125,20.09375 C18.234375,19.4375 15.484375,18.625 12.953125,18.03125 Z M3.859375,20.09375 C3.75,18.84375 3.5,17.046875 3.171875,15.046875 L0.859375,15.046875 L1.0625,14.359375 L3.046875,14.359375 C2.453125,10.890625 1.65625,7.078125 1.0625,5.046875 C1.734375,4.875 2.359375,4.921875 2.65625,5.15625 L3.03125,6.75 C3.703125,6.265625 4.4375,5.6875 5.109375,5.0625 C4.21875,2.71875 2.875,0.640625 0.8125,-1.03125 L1.078125,-1.375 C3.453125,0.125 5.015625,1.984375 6.078125,4.078125 C6.796875,3.28125 7.375,2.46875 7.65625,1.703125 C9.078125,0.90625 9.75,3.21875 6.671875,5.46875 C7.703125,8.15625 8.046875,11.140625 8.28125,14.109375 C8.765625,14.1875 9,14.25 9.140625,14.46875 L7.421875,16.015625 L6.5,15.046875 L4.578125,15.046875 C4.875,16.703125 5.09375,18.171875 5.234375,19.203125 C5.859375,19.25 6.046875,19.484375 6.125,19.796875 Z M4.46875,14.359375 L6.71875,14.359375 C6.578125,11.5 6.265625,8.734375 5.5,6.21875 C4.828125,6.578125 4.0625,6.9375 3.125,7.265625 C3.578125,9.4375 4.0625,12.03125 4.46875,14.359375 Z" transform="translate(-0.6953125, 20.09375) scale(1, -1)"/>
</svg>