<svg height="22.03125" viewBox="0 0 24 22.03125" width="24" xmlns="http://www.w3.org/2000/svg">
<path d="M14.0625,17.46875 L13.78125,17.359375 C14.359375,16.46875 14.96875,15.046875 14.96875,13.890625 C16.25,12.703125 17.8125,15.484375 14.0625,17.46875 Z M10.34375,16.96875 L10.0625,16.828125 C10.6875,16.015625 11.40625,14.71875 11.46875,13.65625 C12.796875,12.53125 14.203125,15.265625 10.34375,16.96875 Z M20.46875,20.109375 C17.78125,19.296875 12.71875,18.234375 8.734375,17.78125 L8.8125,17.328125 C12.984375,17.46875 17.765625,18.046875 20.90625,18.578125 C21.453125,18.34375 21.890625,18.34375 22.109375,18.53125 Z M19.625,17.8125 C19.0625,16.34375 18.078125,14.375 17.1875,12.984375 L8.953125,12.984375 L9.140625,12.28125 L12.8125,12.28125 C12.75,11.40625 12.640625,10.5625 12.53125,9.71875 L8.6875,9.71875 L8.875,9 L12.390625,9 C11.609375,4.796875 9.859375,1.25 6.359375,-1.578125 L6.59375,-1.875 C10.015625,0.1875 12,2.828125 13.171875,6.078125 C13.78125,4.375 14.609375,2.921875 15.71875,1.78125 C14.15625,0.40625 12.1875,-0.71875 9.890625,-1.515625 L10.109375,-1.921875 C12.703125,-1.25 14.8125,-0.265625 16.515625,1.015625 C17.953125,-0.265625 19.78125,-1.203125 21.953125,-1.890625 C22.171875,-1.125 22.625,-0.671875 23.28125,-0.578125 L23.28125,-0.3125 C21.09375,0.125 19.15625,0.84375 17.546875,1.84375 C18.84375,3.03125 19.875,4.390625 20.609375,5.921875 C21.171875,5.96875 21.40625,6.046875 21.59375,6.234375 L19.9375,7.734375 L18.9375,6.8125 L13.421875,6.8125 C13.65625,7.515625 13.828125,8.25 13.984375,9 L22.484375,9 C22.828125,9 23.0625,9.125 23.109375,9.390625 C22.34375,10.109375 21.09375,11.0625 21.09375,11.0625 L19.984375,9.71875 L14.140625,9.71875 C14.296875,10.53125 14.421875,11.40625 14.515625,12.28125 L22.203125,12.28125 C22.53125,12.28125 22.75,12.40625 22.828125,12.671875 C22.0625,13.390625 20.828125,14.296875 20.828125,14.296875 L19.75,12.984375 L17.859375,12.984375 C18.984375,14.109375 20.15625,15.546875 20.921875,16.65625 C21.453125,16.625 21.75,16.828125 21.84375,17.09375 Z M16.53125,2.5625 C15.34375,3.53125 14.375,4.703125 13.734375,6.125 L18.90625,6.125 C18.34375,4.828125 17.546875,3.625 16.53125,2.5625 Z M3.859375,20.09375 C3.75,18.84375 3.5,17.046875 3.171875,15.046875 L0.859375,15.046875 L1.0625,14.359375 L3.046875,14.359375 C2.453125,10.890625 1.65625,7.078125 1.0625,5.046875 C1.734375,4.875 2.359375,4.921875 2.65625,5.15625 L3.03125,6.75 C3.703125,6.265625 4.4375,5.6875 5.109375,5.0625 C4.21875,2.71875 2.875,0.640625 0.8125,-1.03125 L1.078125,-1.375 C3.453125,0.125 5.015625,1.984375 6.078125,4.078125 C6.796875,3.28125 7.375,2.46875 7.65625,1.703125 C9.078125,0.90625 9.75,3.21875 6.671875,5.46875 C7.703125,8.15625 8.046875,11.140625 8.28125,14.109375 C8.765625,14.1875 9,14.25 9.140625,14.46875 L7.421875,16.015625 L6.5,15.046875 L4.578125,15.046875 C4.875,16.703125 5.09375,18.171875 5.234375,19.203125 C5.859375,19.25 6.046875,19.484375 6.125,19.796875 Z M4.46875,14.359375 L6.71875,14.359375 C6.578125,11.5 6.265625,8.734375 5.5,6.21875 C4.828125,6.578125 4.0625,6.9375 3.125,7.265625 C3.578125,9.4375 4.0625,12.03125 4.46875,14.359375 Z" transform="translate(-0.046875, 20.109375) scale(1, -1)"/>
</svg>