<svg height="21.96875" viewBox="0 0 24 21.96875" width="24" xmlns="http://www.w3.org/2000/svg">
<path d="M16.78125,20.046875 L16.78125,17.546875 L13.703125,17.546875 L13.703125,19.109375 C14.28125,19.203125 14.515625,19.4375 14.546875,19.78125 L12.1875,20.015625 L12.1875,17.546875 L8.5625,17.546875 L8.765625,16.828125 L12.1875,16.828125 L12.1875,15.046875 L9.28125,15.046875 L9.484375,14.359375 L12.1875,14.359375 L12.1875,12.265625 L8.28125,12.265625 L8.46875,11.5625 L14.609375,11.5625 L14.609375,9.890625 L11.640625,9.890625 L10.0625,10.625 L10.0625,3.859375 L8.140625,3.859375 L8.328125,3.171875 L10.0625,3.171875 L10.0625,-1.875 L10.296875,-1.875 C10.921875,-1.875 11.515625,-1.53125 11.515625,-1.34375 L11.515625,3.171875 L19.265625,3.171875 L19.265625,0.453125 C19.265625,0.09375 19.171875,-0.078125 18.71875,-0.078125 C18.1875,-0.078125 15.765625,0.125 15.765625,0.125 L15.765625,-0.234375 C16.84375,-0.390625 17.453125,-0.578125 17.8125,-0.796875 C18.09375,-1.03125 18.234375,-1.390625 18.3125,-1.828125 C20.515625,-1.609375 20.78125,-0.890625 20.78125,0.265625 L20.78125,3.171875 L22.78125,3.171875 C23.109375,3.171875 23.296875,3.28125 23.359375,3.546875 C22.828125,4.21875 21.8125,5.140625 21.8125,5.140625 L20.96875,3.859375 L20.78125,3.859375 L20.78125,8.90625 C21.265625,8.96875 21.625,9.1875 21.796875,9.390625 L19.828125,10.84375 L19.03125,9.890625 L16.078125,9.890625 L16.078125,11.5625 L22.515625,11.5625 C22.84375,11.5625 23.0625,11.6875 23.140625,11.953125 C22.421875,12.625 21.28125,13.5625 21.28125,13.5625 L20.25,12.265625 L18.28125,12.265625 L18.28125,14.359375 L21.578125,14.359375 C21.90625,14.359375 22.125,14.46875 22.203125,14.734375 C21.53125,15.390625 20.421875,16.265625 20.421875,16.265625 L19.484375,15.046875 L18.28125,15.046875 L18.28125,16.828125 L22.0625,16.828125 C22.375,16.828125 22.609375,16.9375 22.6875,17.203125 C21.953125,17.875 20.859375,18.765625 20.859375,18.765625 L19.890625,17.546875 L18.28125,17.546875 L18.28125,19.15625 C18.859375,19.25 19.078125,19.484375 19.125,19.796875 Z M13.703125,16.828125 L16.78125,16.828125 L16.78125,15.046875 L13.703125,15.046875 Z M13.703125,14.359375 L16.78125,14.359375 L16.78125,12.265625 L13.703125,12.265625 Z M11.515625,3.859375 L11.515625,6.1875 L14.609375,6.1875 L14.609375,3.859375 Z M16.078125,3.859375 L16.078125,6.1875 L19.265625,6.1875 L19.265625,3.859375 Z M11.515625,6.90625 L11.515625,9.1875 L14.609375,9.1875 L14.609375,6.90625 Z M16.078125,9.1875 L19.265625,9.1875 L19.265625,6.90625 L16.078125,6.90625 Z M3.859375,20.09375 C3.75,18.8125 3.484375,16.921875 3.140625,14.859375 L0.859375,14.859375 L1.0625,14.15625 L3.03125,14.15625 C2.421875,10.75 1.65625,7.03125 1.0625,5.046875 C1.734375,4.875 2.359375,4.921875 2.65625,5.15625 L2.953125,6.484375 C3.640625,5.921875 4.375,5.28125 5.015625,4.578125 C4.15625,2.359375 2.828125,0.390625 0.8125,-1.21875 L1.078125,-1.5625 C3.34375,-0.171875 4.875,1.578125 5.90625,3.546875 C6.578125,2.71875 7.109375,1.828125 7.3125,1.015625 C8.71875,0.125 9.484375,2.453125 6.546875,4.921875 C7.6875,7.703125 8.046875,10.828125 8.28125,13.9375 C8.765625,13.984375 9,14.0625 9.140625,14.28125 L7.421875,15.8125 L6.5,14.859375 L4.5625,14.859375 C4.84375,16.578125 5.09375,18.125 5.234375,19.203125 C5.859375,19.25 6.046875,19.484375 6.125,19.796875 Z M4.4375,14.15625 L6.71875,14.15625 C6.578125,11.203125 6.265625,8.359375 5.421875,5.734375 C4.78125,6.171875 3.984375,6.59375 3.078125,7.015625 C3.53125,9.140625 4.015625,11.78125 4.4375,14.15625 Z" transform="translate(-0.0859375, 20.09375) scale(1, -1)"/>
</svg>