<svg height="22.0625" viewBox="0 0 24 22.0625" width="24" xmlns="http://www.w3.org/2000/svg">
<path d="M3.078125,12.28125 C3.03125,10.75 2.1875,9.71875 1.609375,9.40625 C0.1875,8.59375 1.15625,7.15625 2.453125,7.84375 C3.28125,8.28125 3.71875,9.234375 3.703125,10.53125 L20.140625,10.53125 C19.84375,9.84375 19.484375,8.96875 19.21875,8.46875 L19.53125,8.296875 C20.296875,8.78125 21.453125,9.671875 22.078125,10.296875 C22.53125,10.296875 22.796875,10.3125 22.984375,10.484375 L21.140625,12.265625 L20.140625,11.25 L19.515625,11.25 L19.96875,18 C20.375,18.046875 20.59375,18.09375 20.734375,18.265625 L19.078125,19.703125 L18.28125,18.8125 L15.09375,18.8125 L15.3125,18.125 L18.484375,18.125 L18.359375,16.296875 L15.265625,16.296875 L15.484375,15.59375 L18.3125,15.59375 L18.171875,13.75 L15.234375,13.75 L15.453125,13.0625 L18.125,13.0625 L18,11.25 L5.90625,11.25 L5.828125,13.0625 L8.921875,13.0625 C9.21875,13.0625 9.4375,13.171875 9.5,13.4375 C8.921875,14.015625 8.0625,14.734375 8.0625,14.734375 L7.265625,13.75 L5.8125,13.75 L5.734375,15.59375 L8.78125,15.59375 C9.078125,15.59375 9.28125,15.71875 9.359375,15.984375 C8.828125,16.53125 7.9375,17.203125 7.9375,17.203125 L7.203125,16.296875 L5.6875,16.296875 L5.609375,18.078125 C6.859375,18.28125 8.140625,18.59375 8.921875,18.84375 C9.234375,18.71875 9.484375,18.75 9.578125,18.890625 L8.015625,20.140625 C7.515625,19.796875 6.671875,19.25 5.828125,18.8125 L4.109375,19.296875 L4.421875,11.25 L3.640625,11.25 C3.59375,11.59375 3.53125,11.921875 3.4375,12.28125 Z M13.125,19.921875 C12.859375,19.46875 12.53125,18.984375 12.125,18.53125 C11.640625,18.71875 11.046875,18.90625 10.3125,19.0625 L10.109375,18.796875 C10.5625,18.578125 11.0625,18.234375 11.546875,17.875 C10.890625,17.203125 10.171875,16.578125 9.453125,16.109375 L9.71875,15.75 C10.578125,16.125 11.5,16.65625 12.28125,17.234375 C12.671875,16.875 12.984375,16.515625 13.203125,16.203125 C14.0625,15.8125 14.515625,16.9375 13.15625,17.953125 C13.515625,18.265625 13.796875,18.578125 14.046875,18.890625 C14.453125,18.765625 14.71875,18.8125 14.828125,19.0625 Z M13.515625,15.84375 C13.25,15.359375 12.890625,14.859375 12.453125,14.375 C11.90625,14.640625 11.234375,14.875 10.390625,15.078125 L10.171875,14.8125 C10.703125,14.515625 11.28125,14.140625 11.78125,13.6875 C11.0625,12.984375 10.25,12.359375 9.4375,11.859375 L9.703125,11.46875 C10.625,11.859375 11.640625,12.40625 12.484375,13.015625 C12.859375,12.625 13.171875,12.1875 13.34375,11.8125 C14.296875,11.328125 14.78125,12.578125 13.421875,13.75 C13.828125,14.109375 14.1875,14.46875 14.453125,14.828125 C14.859375,14.71875 15.125,14.765625 15.234375,15 Z M5.59375,8.46875 L5.78125,7.78125 L15.390625,7.78125 C14.640625,7.203125 13.6875,6.53125 12.796875,6 L11.25,6.171875 L11.25,4.421875 L1.375,4.421875 L1.578125,3.71875 L11.25,3.71875 L11.25,0.53125 C11.25,0.171875 11.140625,0.046875 10.703125,0.046875 C10.203125,0.046875 7.5625,0.21875 7.5625,0.21875 L7.5625,-0.140625 C8.6875,-0.3125 9.34375,-0.484375 9.703125,-0.75 C10.0625,-1.015625 10.203125,-1.421875 10.25,-1.921875 C12.53125,-1.703125 12.8125,-0.890625 12.8125,0.40625 L12.8125,3.71875 L21.953125,3.71875 C22.296875,3.71875 22.515625,3.84375 22.578125,4.078125 C21.796875,4.84375 20.46875,5.875 20.46875,5.875 L19.34375,4.421875 L12.8125,4.421875 L12.8125,5.328125 C13.34375,5.421875 13.5625,5.59375 13.625,5.90625 L13.578125,5.90625 C15.078125,6.390625 16.6875,7.0625 17.78125,7.578125 C18.28125,7.609375 18.578125,7.65625 18.765625,7.828125 L16.9375,9.484375 L15.90625,8.46875 Z" transform="translate(0.4140625, 20.140625) scale(1, -1)"/>
</svg>