<svg height="22.03125" viewBox="0 0 24 22.03125" width="24" xmlns="http://www.w3.org/2000/svg">
<path d="M11.1875,15.34375 L11.1875,12.8125 L3.84375,12.8125 L4.03125,12.125 L11.1875,12.125 L11.1875,10.15625 L11.1875,9.4375 L4.078125,9.4375 L4.265625,8.765625 L11.140625,8.765625 C11.0625,7.734375 10.890625,6.71875 10.578125,5.78125 L1.515625,5.78125 L1.734375,5.09375 L10.34375,5.09375 C9.1875,2.359375 6.625,0.09375 1.21875,-1.4375 L1.375,-1.875 C7.796875,-0.453125 10.6875,2.046875 11.90625,5.09375 L12.671875,5.09375 C14.234375,1.265625 17.28125,-0.75 21.703125,-1.921875 C21.890625,-1.109375 22.375,-0.578125 23.09375,-0.4375 L23.109375,-0.1875 C18.703125,0.484375 15.03125,2.0625 13.21875,5.09375 L21.765625,5.09375 C22.125,5.09375 22.375,5.203125 22.4375,5.46875 C21.625,6.1875 20.328125,7.203125 20.328125,7.203125 L19.203125,5.78125 L12.171875,5.78125 C12.453125,6.75 12.625,7.734375 12.71875,8.765625 L19.6875,8.765625 C20.015625,8.765625 20.25,8.859375 20.328125,9.125 C19.53125,9.8125 18.265625,10.734375 18.265625,10.734375 L17.1875,9.4375 L12.75,9.4375 L12.765625,10.109375 L12.765625,12.125 L19.9375,12.125 C20.25,12.125 20.46875,12.234375 20.546875,12.5 C19.796875,13.171875 18.546875,14.0625 18.546875,14.0625 L17.5,12.8125 L12.765625,12.8125 L12.765625,14.453125 C13.375,14.546875 13.53125,14.78125 13.609375,15.09375 Z M3.890625,18.453125 C4.03125,16.796875 3.09375,15.34375 2.0625,14.8125 C1.5625,14.5 1.21875,13.984375 1.4375,13.46875 C1.734375,12.890625 2.59375,12.90625 3.234375,13.34375 C3.9375,13.796875 4.625,14.859375 4.625,16.484375 L20.15625,16.484375 C19.875,15.703125 19.421875,14.765625 19.078125,14.140625 L19.390625,13.9375 C20.28125,14.5 21.453125,15.453125 22.109375,16.203125 C22.5625,16.21875 22.84375,16.265625 23.015625,16.4375 L21.171875,18.234375 L20.140625,17.1875 L12.765625,17.1875 L12.765625,19.21875 C13.375,19.296875 13.609375,19.53125 13.65625,19.875 L11.1875,20.109375 L11.1875,17.1875 L4.578125,17.1875 C4.53125,17.59375 4.4375,18.03125 4.296875,18.484375 Z" transform="translate(-0.1640625, 20.109375) scale(1, -1)"/>
</svg>