<svg height="21.984375" viewBox="0 0 24 21.984375" width="24" xmlns="http://www.w3.org/2000/svg">
<path d="M6.09375,15.3125 L5.828125,15.140625 C6.671875,14.28125 7.65625,12.796875 7.875,11.640625 C9.3125,10.515625 10.609375,13.578125 6.09375,15.3125 Z M16.375,15.390625 C15.71875,13.921875 14.953125,12.390625 14.328125,11.421875 L14.6875,11.1875 C15.59375,11.90625 16.734375,13.015625 17.609375,14.046875 C18.125,13.96875 18.40625,14.15625 18.5,14.40625 Z M7.015625,6.75 L17.0625,6.75 L17.0625,4.0625 L7.015625,4.0625 Z M7.015625,7.4375 L7.015625,9.984375 L17.0625,9.984375 L17.0625,7.4375 Z M5.46875,10.6875 L5.46875,-1.875 L5.6875,-1.875 C6.390625,-1.875 7.015625,-1.484375 7.015625,-1.296875 L7.015625,3.34375 L17.0625,3.34375 L17.0625,0.578125 C17.0625,0.21875 16.9375,0.09375 16.484375,0.09375 C15.984375,0.09375 13.4375,0.265625 13.4375,0.265625 L13.4375,-0.09375 C14.546875,-0.265625 15.171875,-0.453125 15.546875,-0.71875 C15.890625,-0.953125 16.015625,-1.390625 16.078125,-1.890625 C18.359375,-1.65625 18.625,-0.84375 18.625,0.390625 L18.625,9.765625 C19.03125,9.84375 19.375,10.03125 19.515625,10.203125 L17.609375,11.609375 L16.84375,10.6875 L12.75,10.6875 L12.75,14.90625 C13.265625,15 13.484375,15.1875 13.53125,15.5 L11.203125,15.75 L11.203125,10.6875 L7.125,10.6875 L5.46875,11.453125 Z M3.71875,18.53125 C3.859375,16.78125 2.96875,15.140625 2.015625,14.515625 C1.53125,14.1875 1.21875,13.703125 1.46875,13.203125 C1.75,12.640625 2.640625,12.71875 3.234375,13.203125 C3.90625,13.703125 4.5625,14.859375 4.484375,16.53125 L20.140625,16.53125 C19.796875,15.625 19.3125,14.40625 18.9375,13.65625 L19.265625,13.484375 C20.15625,14.1875 21.328125,15.390625 21.953125,16.25 C22.4375,16.296875 22.734375,16.3125 22.890625,16.484375 L21.09375,18.234375 L20.09375,17.203125 L12.765625,17.203125 L12.765625,19.203125 C13.375,19.265625 13.609375,19.515625 13.65625,19.84375 L11.1875,20.09375 L11.1875,17.203125 L4.421875,17.203125 C4.375,17.609375 4.265625,18.078125 4.125,18.53125 Z" transform="translate(-0.0546875, 20.09375) scale(1, -1)"/>
</svg>