<svg height="22.015625" viewBox="0 0 24 22.015625" width="24" xmlns="http://www.w3.org/2000/svg">
<path d="M4.96875,4.890625 L4.96875,-1.875 L5.203125,-1.875 C5.828125,-1.875 6.53125,-1.53125 6.53125,-1.375 L6.53125,-0.53125 L17.71875,-0.53125 L17.71875,-1.703125 L17.953125,-1.703125 C18.4375,-1.703125 19.21875,-1.375 19.25,-1.21875 L19.25,3.890625 C19.734375,3.984375 20.109375,4.171875 20.28125,4.375 L18.34375,5.828125 L17.46875,4.890625 L6.640625,4.890625 L4.96875,5.640625 Z M6.53125,0.1875 L6.53125,4.171875 L17.71875,4.171875 L17.71875,0.1875 Z M3.765625,18.453125 C3.8125,16.921875 2.875,15.5 1.9375,15 C1.46875,14.6875 1.15625,14.203125 1.375,13.734375 C1.65625,13.171875 2.515625,13.21875 3.078125,13.625 C3.71875,14.09375 4.375,15.09375 4.421875,16.5625 L19.84375,16.5625 C19.53125,15.796875 19.109375,14.828125 18.765625,14.1875 L17.875,15.09375 C16.5625,14.71875 14.78125,14.328125 12.765625,14.015625 L12.765625,15.359375 C13.375,15.4375 13.609375,15.671875 13.65625,16.015625 L11.1875,16.265625 L11.1875,13.78125 C8.65625,13.4375 5.90625,13.171875 3.40625,13.109375 L3.484375,12.625 C6.03125,12.546875 8.6875,12.625 11.1875,12.796875 L11.1875,10.734375 L3.75,10.734375 L3.953125,10.03125 L11.1875,10.03125 L11.1875,7.875 L1.3125,7.875 L1.515625,7.203125 L11.1875,7.203125 L11.1875,5.46875 L11.5,5.46875 C12.078125,5.46875 12.765625,5.8125 12.765625,5.96875 L12.765625,7.203125 L22.25,7.203125 C22.578125,7.203125 22.796875,7.296875 22.875,7.5625 C22.109375,8.25 20.875,9.171875 20.875,9.171875 L19.796875,7.875 L12.765625,7.875 L12.765625,10.03125 L20.296875,10.03125 C20.640625,10.03125 20.859375,10.15625 20.921875,10.390625 C20.1875,11.0625 19.03125,11.953125 19.03125,11.953125 L18,10.734375 L12.765625,10.734375 L12.765625,12.90625 C14.8125,13.078125 16.703125,13.3125 18.265625,13.5625 C18.8125,13.3125 19.25,13.3125 19.46875,13.484375 L18.984375,13.96875 L19.03125,13.9375 C19.96875,14.515625 21.265625,15.5 21.953125,16.25 C22.46875,16.265625 22.703125,16.3125 22.890625,16.484375 L20.921875,18.390625 L19.828125,17.25 L12.765625,17.25 L12.765625,19.25 C13.375,19.34375 13.609375,19.578125 13.65625,19.921875 L11.1875,20.140625 L11.1875,17.25 L4.390625,17.25 C4.375,17.640625 4.296875,18.03125 4.171875,18.453125 Z" transform="translate(-0.0234375, 20.140625) scale(1, -1)"/>
</svg>