<svg height="22.28125" viewBox="0 0 24 22.28125" width="24" xmlns="http://www.w3.org/2000/svg">
<path d="M8.953125,6.234375 L8.8125,5.859375 C11.0625,5.09375 12.484375,4.109375 13.171875,3.125 C14.640625,1.75 16.984375,5.296875 8.953125,6.234375 Z M6.34375,-0.078125 L7.625,-2.1875 C7.875,-2.109375 8.09375,-1.921875 8.1875,-1.625 C12.984375,-0.046875 16.375,1.203125 18.796875,2.1875 L18.71875,2.546875 C13.484375,1.375 8.5,0.28125 6.34375,-0.078125 Z M3.859375,18.4375 C3.890625,16.9375 2.90625,15.71875 1.921875,15.3125 C1.46875,15.046875 1.125,14.59375 1.3125,14.109375 C1.5625,13.578125 2.375,13.578125 2.96875,13.9375 C3.671875,14.328125 4.390625,15.234375 4.46875,16.6875 L20.234375,16.6875 C20.015625,16.078125 19.75,15.390625 19.484375,14.78125 L19.25,14.96875 L18.21875,13.75 L15.75,13.75 L15.75,15.1875 C16.265625,15.28125 16.484375,15.5 16.53125,15.8125 L14.203125,16.0625 L14.203125,13.75 L9.75,13.75 L9.75,15.1875 C10.265625,15.28125 10.484375,15.5 10.53125,15.8125 L8.203125,16.0625 L8.203125,13.75 L3.046875,13.75 L3.265625,13.0625 L8.203125,13.0625 L8.203125,11.09375 L3.984375,11.09375 L4.15625,10.390625 L8.203125,10.390625 L8.203125,8.203125 L1.109375,8.203125 L1.296875,7.515625 L7.609375,7.515625 C6.234375,5.28125 3.671875,3.171875 0.890625,1.796875 L1.109375,1.4375 C4.515625,2.71875 7.734375,4.78125 9.625,7.515625 L14.875,7.515625 C16.390625,4.96875 19.171875,2.875 21.984375,1.609375 C22.203125,2.328125 22.65625,2.8125 23.25,2.875 L23.296875,3.140625 C20.515625,3.9375 17.296875,5.546875 15.546875,7.515625 L22.3125,7.515625 C22.65625,7.515625 22.875,7.625 22.9375,7.890625 C22.15625,8.640625 20.875,9.625 20.875,9.625 L19.75,8.203125 L15.75,8.203125 L15.75,10.390625 L19.984375,10.390625 C20.328125,10.390625 20.546875,10.484375 20.609375,10.75 C19.890625,11.453125 18.75,12.28125 18.75,12.28125 L17.765625,11.09375 L15.75,11.09375 L15.75,13.0625 L20.5,13.0625 C20.8125,13.0625 21.046875,13.171875 21.125,13.4375 L20.046875,14.359375 C20.8125,14.953125 21.671875,15.75 22.203125,16.375 C22.65625,16.390625 22.9375,16.4375 23.109375,16.609375 L21.21875,18.4375 L20.1875,17.359375 L12.765625,17.359375 L12.765625,19.203125 C13.375,19.265625 13.609375,19.515625 13.65625,19.84375 L11.1875,20.09375 L11.1875,17.359375 L4.46875,17.359375 C4.4375,17.6875 4.375,18.046875 4.265625,18.4375 Z M9.75,8.203125 L9.75,10.390625 L14.203125,10.390625 L14.203125,8.203125 Z M9.75,13.0625 L14.203125,13.0625 L14.203125,11.09375 L9.75,11.09375 Z" transform="translate(-0.09375, 20.09375) scale(1, -1)"/>
</svg>