<svg height="22.984375" viewBox="0 0 24 22.984375" width="24" xmlns="http://www.w3.org/2000/svg">
<path d="M9.71875,5.640625 L9.59375,5.25 C11.5625,4.5625 12.8125,3.671875 13.421875,2.8125 C14.78125,1.515625 17.046875,4.828125 9.71875,5.640625 Z M7.5625,1.625 L7.46875,1.21875 C11.046875,0.53125 13.484375,-0.53125 14.953125,-1.578125 C16.875,-2.875 19.421875,1.0625 7.5625,1.625 Z M14.140625,15.984375 L14.140625,13.609375 L9.75,13.609375 L9.75,15.140625 C10.265625,15.21875 10.484375,15.40625 10.53125,15.75 L8.203125,15.984375 L8.203125,13.609375 L3.765625,13.609375 L3.953125,12.90625 L8.203125,12.90625 L8.203125,10.875 L3.984375,10.875 L4.15625,10.171875 L8.203125,10.171875 L8.203125,7.921875 L1.21875,7.921875 L1.4375,7.25 L7.578125,7.25 C6.234375,4.84375 3.59375,2.46875 0.71875,0.953125 L0.9375,0.625 C4.4375,1.984375 7.734375,4.265625 9.59375,7.25 L14.65625,7.25 C16.15625,4.578125 19.0625,2.421875 21.953125,1.15625 C22.171875,1.921875 22.65625,2.421875 23.296875,2.515625 L23.328125,2.78125 C20.40625,3.578125 17.046875,5.1875 15.3125,7.25 L22.171875,7.25 C22.484375,7.25 22.734375,7.34375 22.796875,7.609375 C22.015625,8.359375 20.734375,9.34375 20.734375,9.34375 L19.609375,7.921875 L15.671875,7.921875 L15.671875,10.171875 L19.734375,10.171875 C20.0625,10.171875 20.25,10.296875 20.328125,10.53125 C19.609375,11.234375 18.453125,12.09375 18.453125,12.09375 L17.46875,10.875 L15.671875,10.875 L15.671875,12.90625 L19.828125,12.90625 C20.140625,12.90625 20.359375,13.03125 20.421875,13.296875 C19.703125,13.96875 18.53125,14.828125 18.53125,14.828125 L17.546875,13.609375 L15.671875,13.609375 L15.671875,15.140625 C16.21875,15.21875 16.421875,15.40625 16.46875,15.75 Z M9.75,7.921875 L9.75,10.171875 L14.140625,10.171875 L14.140625,7.921875 Z M9.75,12.90625 L14.140625,12.90625 L14.140625,10.875 L9.75,10.875 Z M3.890625,18.59375 C3.90625,16.984375 2.96875,15.546875 2.046875,15.03125 C1.578125,14.734375 1.25,14.25 1.484375,13.78125 C1.75,13.296875 2.546875,13.34375 3.125,13.75 C3.796875,14.203125 4.46875,15.21875 4.515625,16.75 L20.1875,16.75 C19.921875,16.015625 19.5625,15.125 19.25,14.546875 L19.5625,14.359375 C20.40625,14.875 21.53125,15.765625 22.171875,16.46875 C22.625,16.484375 22.921875,16.53125 23.09375,16.6875 L21.1875,18.5 L20.15625,17.453125 L12.765625,17.453125 L12.765625,19.21875 C13.375,19.296875 13.609375,19.53125 13.65625,19.875 L11.1875,20.109375 L11.1875,17.453125 L4.515625,17.453125 C4.46875,17.8125 4.390625,18.1875 4.296875,18.59375 Z" transform="translate(-0.0234375, 20.109375) scale(1, -1)"/>
</svg>