<svg height="22.015625" viewBox="0 0 24 22.015625" width="24" xmlns="http://www.w3.org/2000/svg">
<path d="M16.03125,2.90625 L15.8125,2.65625 C16.734375,2.140625 17.90625,1.125 18.390625,0.40625 C19.84375,-0.265625 20.515625,2.453125 16.03125,2.90625 Z M4.53125,14.046875 L4.703125,13.34375 L8.640625,13.34375 L8.640625,11.90625 L8.953125,11.90625 C9.625,11.90625 10.171875,12.125 10.171875,12.265625 L10.171875,13.34375 L13.65625,13.34375 L13.65625,11.921875 L14.015625,11.921875 C14.8125,11.953125 15.1875,12.234375 15.1875,12.34375 L15.1875,13.34375 L19.484375,13.34375 C19.828125,13.34375 20.046875,13.46875 20.09375,13.734375 C19.375,14.453125 18.171875,15.359375 18.171875,15.359375 L17.140625,14.046875 L15.1875,14.046875 L15.1875,15.4375 C15.75,15.5 15.953125,15.765625 15.984375,16.078125 L13.65625,16.3125 L13.65625,14.046875 L10.171875,14.046875 L10.171875,15.453125 C10.734375,15.53125 10.9375,15.765625 10.984375,16.078125 L8.640625,16.3125 L8.640625,14.046875 Z M5.359375,11.5 L5.359375,2.46875 L5.59375,2.46875 C6.234375,2.46875 6.90625,2.828125 6.90625,3 L6.90625,3.71875 L9,3.71875 C8.5625,1.609375 7.25,-0.140625 1.078125,-1.46875 L1.296875,-1.875 C8.828125,-0.75 10.21875,1.109375 10.78125,3.71875 L13.21875,3.71875 L13.21875,-0.125 C13.21875,-1.21875 13.5625,-1.5625 15.484375,-1.5625 L18.234375,-1.5625 C22.203125,-1.5625 22.890625,-1.296875 22.890625,-0.625 C22.890625,-0.34375 22.78125,-0.171875 22.25,0 L22.171875,2.609375 L21.859375,2.609375 C21.59375,1.4375 21.359375,0.4375 21.21875,0.078125 C21.09375,-0.125 21,-0.171875 20.71875,-0.1875 C20.359375,-0.234375 19.421875,-0.234375 18.3125,-0.234375 L15.75,-0.234375 C14.828125,-0.234375 14.734375,-0.171875 14.734375,0.140625 L14.734375,3.71875 L17.1875,3.71875 L17.1875,2.921875 L17.421875,2.921875 C17.953125,2.921875 18.71875,3.3125 18.75,3.484375 L18.75,10.515625 C19.203125,10.609375 19.578125,10.796875 19.75,10.984375 L17.828125,12.453125 L16.9375,11.5 L7.03125,11.5 L5.359375,12.265625 Z M17.1875,4.421875 L6.90625,4.421875 L6.90625,6.078125 L17.1875,6.078125 Z M17.1875,6.796875 L6.90625,6.796875 L6.90625,8.453125 L17.1875,8.453125 Z M17.1875,9.125 L6.90625,9.125 L6.90625,10.796875 L17.1875,10.796875 Z M3.71875,18.765625 C3.890625,17.203125 3.140625,15.75 2.234375,15.234375 C1.734375,14.921875 1.421875,14.421875 1.609375,13.921875 C1.890625,13.375 2.734375,13.390625 3.34375,13.796875 C3.984375,14.25 4.5625,15.28125 4.515625,16.78125 L20.359375,16.78125 C20.09375,16.015625 19.734375,15.03125 19.46875,14.421875 L19.78125,14.234375 C20.5625,14.8125 21.625,15.796875 22.171875,16.515625 C22.65625,16.53125 22.921875,16.578125 23.09375,16.75 L21.28125,18.484375 L20.296875,17.46875 L12.796875,17.46875 L12.796875,19.25 C13.375,19.3125 13.609375,19.5625 13.65625,19.890625 L11.203125,20.140625 L11.203125,17.46875 L4.4375,17.46875 C4.390625,17.875 4.296875,18.3125 4.125,18.765625 Z" transform="translate(-0.0859375, 20.140625) scale(1, -1)"/>
</svg>