<svg height="22.0625" viewBox="0 0 24 22.0625" width="24" xmlns="http://www.w3.org/2000/svg">
<path d="M3.796875,18.71875 C3.953125,17.09375 3.265625,15.53125 2.359375,14.875 C1.875,14.5625 1.5625,14.0625 1.796875,13.5625 C2.109375,13.015625 2.953125,13.078125 3.53125,13.53125 C4.15625,14.046875 4.703125,15.125 4.609375,16.703125 L20.0625,16.703125 C19.828125,16.015625 19.484375,15.171875 19.203125,14.5625 L18.1875,15.34375 L17.203125,14.140625 L15.171875,14.140625 L15.171875,15.5 C15.671875,15.578125 15.84375,15.796875 15.890625,16.078125 L13.6875,16.34375 L13.6875,14.140625 L10.25,14.140625 L10.25,15.5 C10.734375,15.578125 10.890625,15.796875 10.96875,16.078125 L8.765625,16.34375 L8.765625,14.140625 L4.78125,14.140625 L4.96875,13.4375 L8.765625,13.4375 L8.765625,11.59375 L7.3125,11.59375 L5.640625,12.34375 L5.640625,2.25 L5.875,2.25 C6.53125,2.25 7.203125,2.609375 7.203125,2.765625 L7.203125,3.34375 L9.171875,3.34375 C8.203125,0.5 5.71875,-0.71875 0.984375,-1.515625 L1.078125,-1.921875 C6.5,-1.421875 9.703125,-0.1875 10.84375,3.34375 L13.34375,3.34375 L13.34375,-0.09375 C13.34375,-1.171875 13.65625,-1.53125 15.546875,-1.53125 L18.28125,-1.53125 C22.15625,-1.53125 22.84375,-1.25 22.84375,-0.546875 C22.84375,-0.28125 22.734375,-0.09375 22.203125,0.078125 L22.15625,2.6875 L21.8125,2.6875 C21.578125,1.515625 21.328125,0.5 21.171875,0.140625 C21.046875,-0.046875 21,-0.125 20.71875,-0.125 C20.359375,-0.171875 19.421875,-0.171875 18.34375,-0.171875 L15.8125,-0.171875 C14.953125,-0.171875 14.859375,-0.125 14.859375,0.1875 L14.859375,3.34375 L16.984375,3.34375 L16.984375,2.5 L17.234375,2.5 C17.78125,2.5 18.53125,2.875 18.546875,3.03125 L18.546875,10.609375 C19.015625,10.703125 19.390625,10.875 19.53125,11.0625 L17.640625,12.5 L16.78125,11.59375 L15.171875,11.59375 L15.171875,13.4375 L19.515625,13.4375 C19.84375,13.4375 20.0625,13.5625 20.140625,13.796875 L19.515625,14.296875 C20.328125,14.859375 21.390625,15.765625 21.90625,16.4375 C22.390625,16.46875 22.65625,16.515625 22.84375,16.6875 L21.03125,18.4375 L20.046875,17.40625 L12.796875,17.40625 L12.796875,19.25 C13.375,19.3125 13.609375,19.5625 13.65625,19.890625 L11.203125,20.140625 L11.203125,17.40625 L4.53125,17.40625 C4.46875,17.8125 4.34375,18.265625 4.171875,18.75 Z M16.984375,4.03125 L7.203125,4.03125 L7.203125,5.875 L16.984375,5.875 Z M16.984375,6.59375 L7.203125,6.59375 L7.203125,8.40625 L16.984375,8.40625 Z M16.984375,9.09375 L7.203125,9.09375 L7.203125,10.875 L16.984375,10.875 Z M10.25,11.59375 L10.25,13.4375 L13.6875,13.4375 L13.6875,11.59375 Z" transform="translate(0.0859375, 20.140625) scale(1, -1)"/>
</svg>