<svg height="22.046875" viewBox="0 0 24 22.046875" width="24" xmlns="http://www.w3.org/2000/svg">
<path d="M3.40625,18.84375 C3.5,17.421875 2.765625,16.109375 1.875,15.625 C1.390625,15.359375 1.109375,14.90625 1.296875,14.40625 C1.5625,13.890625 2.375,13.921875 2.90625,14.296875 C3.53125,14.734375 4.109375,15.671875 4.109375,17.0625 L20.5,17.0625 C20.28125,16.421875 20.015625,15.640625 19.796875,15.140625 L18.84375,15.859375 L18.03125,15.046875 L10.734375,15.046875 L10.9375,14.328125 L18.21875,14.328125 L18.21875,12.703125 L8.921875,12.703125 L9.09375,12 L18.21875,12 L18.21875,10.296875 L10.625,10.296875 L10.84375,9.578125 L18.21875,9.578125 L18.21875,8.828125 L18.453125,8.828125 C18.953125,8.828125 19.734375,9.1875 19.75,9.359375 L19.75,12 L22.78125,12 C23.09375,12 23.28125,12.125 23.359375,12.390625 C22.703125,13.015625 21.671875,13.796875 21.671875,13.796875 L20.734375,12.703125 L19.75,12.703125 L19.75,14.1875 C20.109375,14.234375 20.421875,14.40625 20.546875,14.5625 L20.09375,14.90625 C20.828125,15.40625 21.71875,16.21875 22.25,16.796875 C22.734375,16.828125 22.984375,16.890625 23.15625,17.0625 L21.390625,18.765625 L20.421875,17.78125 L12.75,17.78125 L12.75,19.265625 C13.34375,19.34375 13.578125,19.578125 13.65625,19.921875 L11.1875,20.15625 L11.1875,17.78125 L4.0625,17.78125 C4.015625,18.125 3.9375,18.484375 3.8125,18.859375 Z M17.875,4.78125 C17.359375,3.8125 16.625,2.953125 15.765625,2.15625 C14.59375,2.875 13.609375,3.75 12.859375,4.78125 Z M10.21875,9.078125 C10.34375,7.984375 9.796875,6.859375 9.078125,6.453125 C8.640625,6.1875 8.328125,5.765625 8.546875,5.296875 C8.78125,4.796875 9.5,4.84375 9.984375,5.1875 L10.21875,5.40625 L10.390625,4.78125 L12.234375,4.78125 C12.90625,3.453125 13.796875,2.359375 14.875,1.421875 C13.21875,0.1875 11.15625,-0.765625 8.765625,-1.4375 L8.921875,-1.84375 C11.65625,-1.3125 13.9375,-0.453125 15.765625,0.71875 C17.515625,-0.484375 19.703125,-1.3125 22.171875,-1.890625 C22.375,-1.125 22.828125,-0.640625 23.46875,-0.53125 L23.5,-0.265625 C21.078125,0.078125 18.8125,0.640625 16.921875,1.5625 C18.03125,2.453125 18.90625,3.453125 19.609375,4.625 C20.15625,4.65625 20.421875,4.703125 20.609375,4.921875 L18.984375,6.390625 L17.96875,5.5 L10.296875,5.5 C10.625,5.875 10.875,6.453125 10.890625,7.21875 L20.6875,7.21875 C20.5,6.671875 20.234375,6.046875 20.046875,5.640625 L20.375,5.5 C21.03125,5.828125 21.890625,6.484375 22.390625,6.984375 C22.828125,7.015625 23.09375,7.03125 23.25,7.171875 L21.578125,8.875 L20.640625,7.890625 L10.890625,7.890625 C10.84375,8.25 10.78125,8.65625 10.625,9.09375 Z M1.375,6 L1.578125,5.296875 L3.5,5.296875 C3.453125,3 3.1875,0.59375 1.25,-1.375 L1.625,-1.75 C4.3125,0.125 4.84375,2.71875 4.984375,5.296875 L6.859375,5.296875 L6.859375,-1.84375 L7.125,-1.84375 C7.6875,-1.84375 8.328125,-1.484375 8.328125,-1.296875 L8.328125,14.90625 C8.921875,15 9.09375,15.21875 9.140625,15.53125 L6.859375,15.796875 L6.859375,9.53125 L4.46875,9.53125 L4.46875,13.390625 C5.046875,13.484375 5.25,13.6875 5.296875,14.015625 L3.046875,14.234375 L3.046875,7.734375 L3.34375,7.734375 C3.859375,7.734375 4.46875,8.0625 4.46875,8.234375 L4.46875,8.828125 L6.859375,8.828125 L6.859375,6 Z" transform="translate(-0.3046875, 20.15625) scale(1, -1)"/>
</svg>