<svg height="22.15625" viewBox="0 0 24 22.15625" width="24" xmlns="http://www.w3.org/2000/svg">
<path d="M8.15625,3.625 L7.828125,3.53125 C8.1875,2.46875 8.5,0.90625 8.359375,-0.34375 C9.484375,-1.703125 11.25,0.9375 8.15625,3.625 Z M11.28125,3.859375 L10.984375,3.71875 C11.609375,2.78125 12.390625,1.296875 12.5,0.140625 C13.84375,-0.953125 15.21875,1.828125 11.28125,3.859375 Z M14.1875,4.25 L13.9375,4.015625 C15,3.390625 16.421875,2.203125 16.9375,1.296875 C18.484375,0.59375 19.125,3.53125 14.1875,4.25 Z M5.515625,3.578125 C5.375,2.296875 4.265625,1.25 3.359375,0.890625 C2.875,0.59375 2.5625,0.140625 2.734375,-0.34375 C2.96875,-0.859375 3.796875,-0.859375 4.390625,-0.5 C5.28125,0 6.3125,1.375 5.921875,3.546875 Z M3.703125,18.75 C3.75,17.375 2.734375,16.25 1.75,15.859375 C1.25,15.59375 0.890625,15.171875 1.109375,14.640625 C1.3125,14.09375 2.15625,14.046875 2.78125,14.375 C3.484375,14.765625 4.203125,15.59375 4.296875,16.921875 L20.203125,16.921875 C19.984375,16.125 19.65625,15.140625 19.421875,14.515625 L17.953125,15.640625 L17.09375,14.71875 L13.015625,14.71875 L13.21875,13.984375 L17.328125,13.984375 L17.328125,11.71875 L13.296875,11.71875 L13.515625,10.984375 L17.328125,10.984375 L17.328125,8.65625 L6.59375,8.65625 L6.59375,10.984375 L10.875,10.984375 C11.203125,10.984375 11.421875,11.109375 11.46875,11.375 C10.828125,11.96875 9.8125,12.75 9.8125,12.75 L8.90625,11.71875 L6.59375,11.71875 L6.59375,13.875 C8.234375,14.203125 10.015625,14.734375 11.109375,15.140625 C11.65625,15 12.046875,15.03125 12.21875,15.21875 L10.375,16.625 C9.625,16.03125 8.25,15.234375 6.9375,14.609375 L5.09375,15.171875 L5.09375,6.953125 L5.296875,6.953125 C6.125,6.953125 6.59375,7.375 6.59375,7.46875 L6.59375,7.9375 L8.25,7.9375 C6.765625,6 4.078125,3.796875 1.15625,2.421875 L1.375,2.109375 C3.578125,2.8125 5.609375,3.890625 7.265625,5.09375 L19.96875,5.09375 C19.734375,2.359375 19.296875,0.640625 18.8125,0.234375 C18.59375,0.078125 18.390625,0.046875 18,0.046875 C17.5625,0.046875 16.125,0.140625 15.34375,0.21875 L15.3125,-0.1875 C16.078125,-0.3125 16.828125,-0.484375 17.140625,-0.71875 C17.453125,-0.953125 17.515625,-1.390625 17.515625,-1.828125 C18.359375,-1.828125 19.171875,-1.609375 19.75,-1.15625 C20.65625,-0.484375 21.234375,1.53125 21.5,4.890625 C21.953125,4.96875 22.25,5.09375 22.421875,5.25 L20.640625,6.703125 L19.78125,5.78125 L8.203125,5.78125 C8.90625,6.34375 9.546875,6.90625 10.078125,7.46875 C10.734375,7.46875 11.046875,7.578125 11.109375,7.84375 L10.734375,7.9375 L17.328125,7.9375 L17.328125,7.078125 L17.5625,7.078125 C18.078125,7.078125 18.84375,7.390625 18.859375,7.5625 L18.859375,13.703125 C19.34375,13.796875 19.734375,13.984375 19.875,14.1875 L19.65625,14.359375 L19.734375,14.296875 C20.5,14.921875 21.5,15.9375 22.03125,16.65625 C22.515625,16.6875 22.78125,16.703125 22.96875,16.890625 L21.140625,18.640625 L20.140625,17.640625 L12.765625,17.640625 L12.765625,19.421875 C13.375,19.515625 13.609375,19.75 13.65625,20.0625 L11.203125,20.328125 L11.203125,17.640625 L4.296875,17.640625 C4.265625,17.96875 4.203125,18.359375 4.109375,18.75 Z" transform="translate(0.0703125, 20.328125) scale(1, -1)"/>
</svg>