<svg height="21.921875" viewBox="0 0 24 21.921875" width="24" xmlns="http://www.w3.org/2000/svg">
<path d="M13.015625,11.203125 L12.703125,11.046875 C13.625,9.625 14.609375,7.421875 14.59375,5.65625 C16.171875,4.109375 17.828125,7.984375 13.015625,11.203125 Z M2.5625,11.90625 L2.25,11.65625 C3.703125,10.375 5.359375,8.59375 6.703125,6.75 C5.46875,3.578125 3.53125,0.796875 0.59375,-1.484375 L0.84375,-1.796875 C4.015625,0.125 6.171875,2.546875 7.625,5.375 C8.375,4.171875 8.953125,2.953125 9.1875,1.875 C10.78125,0.671875 11.6875,3.359375 8.421875,7.15625 C9.3125,9.359375 9.859375,11.8125 10.203125,14.453125 L12.625,14.453125 C12.953125,14.453125 13.171875,14.5625 13.25,14.828125 C12.453125,15.546875 11.203125,16.5625 11.203125,16.5625 L10.109375,15.140625 L7.625,15.140625 L7.625,19.15625 C8.234375,19.21875 8.46875,19.46875 8.515625,19.796875 L6.09375,20.046875 L6.09375,15.140625 L1.0625,15.140625 L1.25,14.453125 L8.421875,14.453125 C8.234375,12.3125 7.875,10.265625 7.265625,8.375 C6.09375,9.5 4.5625,10.703125 2.5625,11.90625 Z M18.484375,19.796875 L18.484375,13.65625 L11.609375,13.65625 L11.8125,12.953125 L18.484375,12.953125 L18.484375,0.640625 C18.484375,0.234375 18.34375,0.09375 17.875,0.09375 C17.328125,0.09375 14.71875,0.3125 14.71875,0.3125 L14.71875,-0.078125 C15.84375,-0.21875 16.484375,-0.40625 16.875,-0.703125 C17.203125,-0.953125 17.375,-1.375 17.453125,-1.875 C19.75,-1.625 20.015625,-0.796875 20.015625,0.484375 L20.015625,12.953125 L22.75,12.953125 C23.0625,12.953125 23.28125,13.078125 23.359375,13.34375 C22.625,14.09375 21.4375,15.125 21.4375,15.125 L20.375,13.65625 L20.015625,13.65625 L20.015625,18.890625 C20.59375,18.953125 20.828125,19.203125 20.90625,19.53125 Z" transform="translate(0.0234375, 20.046875) scale(1, -1)"/>
</svg>