<svg height="22.140625" viewBox="0 0 24 22.140625" width="24" xmlns="http://www.w3.org/2000/svg">
<path d="M10.515625,20.25 C10.421875,19.265625 10.296875,18.265625 10.125,17.25 L2.46875,17.25 L2.6875,16.5625 L10.03125,16.5625 C9.859375,15.703125 9.703125,14.828125 9.484375,13.984375 L3.765625,13.984375 L3.953125,13.3125 L9.3125,13.3125 C9.078125,12.40625 8.78125,11.5 8.46875,10.609375 L0.890625,10.609375 L1.078125,9.90625 L8.203125,9.90625 C7.796875,8.90625 7.34375,7.921875 6.84375,6.984375 L1.203125,6.984375 L1.421875,6.265625 L6.4375,6.265625 C5.0625,3.953125 3.28125,1.921875 0.984375,0.265625 L1.296875,-0.03125 C3.765625,1.421875 5.6875,3.234375 7.203125,5.28125 C8.203125,4.171875 9.40625,2.5 9.75,1.203125 C11.5,-0.078125 12.859375,3.4375 7.421875,5.5625 L7.875,6.265625 L15.796875,6.265625 L15.796875,0.53125 C15.796875,0.140625 15.671875,0.03125 15.171875,0.03125 C14.640625,0.03125 11.828125,0.21875 11.828125,0.21875 L11.828125,-0.171875 C13.03125,-0.3125 13.734375,-0.5 14.109375,-0.75 C14.46875,-1.015625 14.609375,-1.421875 14.71875,-1.890625 C17.09375,-1.65625 17.375,-0.859375 17.375,0.4375 L17.375,6.265625 L22.203125,6.265625 C22.53125,6.265625 22.75,6.390625 22.828125,6.640625 C22.03125,7.390625 20.71875,8.453125 20.71875,8.453125 L19.5625,6.984375 L17.375,6.984375 L17.375,8.734375 C17.921875,8.828125 18.171875,9 18.21875,9.34375 L15.796875,9.59375 L15.796875,6.984375 L8.328125,6.984375 C8.90625,7.921875 9.390625,8.90625 9.8125,9.90625 L22.484375,9.90625 C22.828125,9.90625 23.09375,10.03125 23.109375,10.296875 C22.296875,11.046875 20.921875,12.09375 20.921875,12.09375 L19.703125,10.609375 L10.109375,10.609375 C10.46875,11.5 10.75,12.40625 11.015625,13.3125 L19.703125,13.3125 C20.046875,13.3125 20.25,13.4375 20.328125,13.6875 C19.515625,14.421875 18.21875,15.40625 18.21875,15.40625 L17.0625,13.984375 L11.203125,13.984375 C11.453125,14.859375 11.640625,15.703125 11.8125,16.5625 L21.265625,16.5625 C21.578125,16.5625 21.8125,16.6875 21.890625,16.921875 C21.078125,17.6875 19.703125,18.703125 19.703125,18.703125 L18.53125,17.25 L11.953125,17.25 L12.28125,19.3125 C13.03125,19.375 13.25,19.53125 13.3125,19.875 Z" transform="translate(0, 20.25) scale(1, -1)"/>
</svg>