<svg height="22.84375" viewBox="0 0 24 22.84375" width="24" xmlns="http://www.w3.org/2000/svg">
<path d="M9.390625,1.75 C7.796875,0.578125 4.5625,-0.796875 1.609375,-1.4375 L1.75,-1.84375 C4.875,-1.5625 8.15625,-0.671875 10.15625,0.265625 C10.6875,0.09375 11.09375,0.140625 11.28125,0.34375 Z M13.3125,1.265625 L13.21875,0.890625 C16.421875,0.21875 18.796875,-0.71875 20.234375,-1.609375 C22.078125,-2.734375 24.71875,0.640625 13.3125,1.265625 Z M5.28125,9.359375 L5.28125,0.75 L5.515625,0.75 C6.140625,0.75 6.8125,1.078125 6.8125,1.21875 L6.8125,1.828125 L17.46875,1.828125 L17.46875,1.0625 L17.71875,1.0625 C18.21875,1.0625 19.015625,1.421875 19.03125,1.578125 L19.03125,8.515625 C19.390625,8.5625 19.703125,8.734375 19.828125,8.875 L18.09375,10.25 L17.28125,9.359375 L6.953125,9.359375 L5.359375,10.109375 C8.015625,10.625 10.015625,11.09375 11.453125,11.421875 L11.40625,11.828125 L8.046875,11.5 L8.046875,12.8125 L10.5625,12.8125 C10.890625,12.8125 11.09375,12.9375 11.15625,13.203125 C10.609375,13.6875 9.796875,14.28125 9.796875,14.28125 L9.09375,13.53125 L8.046875,13.53125 L8.046875,15.03125 L10.890625,15.03125 C11.203125,15.03125 11.421875,15.140625 11.5,15.390625 C10.84375,15.953125 9.90625,16.625 9.90625,16.625 L9.078125,15.71875 L3.890625,15.71875 C4.109375,16.15625 4.25,16.703125 4.265625,17.359375 L20.1875,17.359375 L19.609375,16.15625 L19.15625,16.484375 L18.359375,15.59375 L14.09375,15.59375 L14.59375,16.265625 C15.140625,16.203125 15.34375,16.265625 15.40625,16.515625 L13.46875,17.140625 C13.15625,16.21875 12.546875,14.90625 11.953125,14.15625 L12.28125,13.9375 C12.703125,14.203125 13.078125,14.546875 13.4375,14.90625 L15.859375,14.90625 L15.859375,13.75 L11.40625,13.75 L11.59375,13.078125 L15.859375,13.078125 L15.859375,11.25 L13.84375,11.25 L13.84375,11.875 C14.25,11.953125 14.40625,12.09375 14.421875,12.359375 L12.5,12.546875 L12.5,9.75 L12.765625,9.75 C13.25,9.75 13.84375,10.0625 13.84375,10.203125 L13.84375,10.53125 L19.3125,10.53125 L19.3125,9.796875 L19.578125,9.796875 C20.0625,9.796875 20.6875,10.109375 20.6875,10.25 L20.6875,11.875 C21.09375,11.953125 21.265625,12.09375 21.28125,12.359375 L19.3125,12.546875 L19.3125,11.25 L17.28125,11.25 L17.28125,13.078125 L21.578125,13.078125 C21.890625,13.078125 22.109375,13.203125 22.15625,13.46875 C21.5,13.984375 20.546875,14.65625 20.546875,14.65625 L19.6875,13.75 L17.28125,13.75 L17.28125,14.90625 L20.09375,14.90625 C20.40625,14.90625 20.609375,15.03125 20.6875,15.265625 L20.140625,15.71875 C20.8125,16.125 21.578125,16.65625 22.03125,17.09375 C22.46875,17.140625 22.78125,17.15625 22.9375,17.328125 L21.171875,19.03125 L20.1875,18.078125 L12.75,18.078125 L12.75,19.21875 C13.34375,19.3125 13.609375,19.5625 13.65625,19.890625 L11.15625,20.109375 L11.15625,18.078125 L4.265625,18.078125 C4.21875,18.4375 4.171875,18.796875 4.0625,19.203125 L3.625,19.203125 C3.671875,18.03125 3,16.734375 2.328125,16.25 C1.84375,15.90625 1.5625,15.4375 1.796875,15 C2.0625,14.46875 2.828125,14.5625 3.3125,14.96875 C3.453125,15.09375 3.59375,15.265625 3.75,15.484375 L3.859375,15.03125 L6.59375,15.03125 L6.59375,13.53125 L3.75,13.53125 L3.9375,12.8125 L6.59375,12.8125 L6.59375,11.359375 C4.75,11.15625 3.1875,11.015625 2.25,10.96875 L3.265625,9.28125 C3.5,9.359375 3.671875,9.5 3.796875,9.796875 L5.28125,10.078125 Z M17.46875,6.4375 L17.46875,4.828125 L6.8125,4.828125 L6.8125,6.4375 Z M17.46875,7.15625 L6.8125,7.15625 L6.8125,8.65625 L17.46875,8.65625 Z M17.46875,4.125 L17.46875,2.546875 L6.8125,2.546875 L6.8125,4.125 Z" transform="translate(-1.140625, 20.109375) scale(1, -1)"/>
</svg>