<svg height="22.078125" viewBox="0 0 24 22.078125" width="24" xmlns="http://www.w3.org/2000/svg">
<path d="M6.21875,2.78125 L6.03125,2.5625 C7.171875,1.890625 8.59375,0.640625 9.078125,-0.484375 C10.921875,-1.375 11.6875,2.328125 6.21875,2.78125 Z M2.71875,19.46875 L2.5,19.265625 C3.53125,18.5 4.703125,17.140625 5.015625,15.953125 C6.71875,14.953125 7.78125,18.5 2.71875,19.46875 Z M9.34375,15.21875 L9.34375,7.609375 L9.546875,7.609375 C10.203125,7.609375 10.828125,7.96875 10.828125,8.109375 L10.828125,8.515625 L18.90625,8.515625 L18.90625,7.65625 L19.15625,7.65625 C19.65625,7.65625 20.40625,8.046875 20.421875,8.1875 L20.421875,14.25 C20.875,14.359375 21.265625,14.546875 21.40625,14.71875 L19.53125,16.15625 L18.671875,15.21875 L14.28125,15.21875 C14.65625,15.671875 15.046875,16.25 15.390625,16.75 L22.390625,16.75 C22.75,16.75 22.96875,16.875 23.046875,17.140625 C22.265625,17.828125 21.078125,18.71875 21.078125,18.71875 L20.015625,17.46875 L16.890625,17.46875 C17.59375,17.96875 18.34375,18.546875 18.84375,19.078125 C19.375,19.0625 19.6875,19.25 19.78125,19.53125 L17.328125,20.15625 C17.046875,19.375 16.53125,18.28125 16.109375,17.46875 L12.796875,17.46875 C13.53125,17.96875 13.390625,19.734375 10.375,20.109375 L10.125,19.921875 C10.84375,19.390625 11.609375,18.390625 11.765625,17.515625 L11.859375,17.46875 L7.078125,17.46875 L7.265625,16.75 L13.625,16.75 L13.203125,15.21875 L10.9375,15.21875 L9.34375,15.953125 Z M15.90625,5.640625 L15.90625,3.890625 L1.015625,3.890625 L1.21875,3.171875 L15.90625,3.171875 L15.90625,0.453125 C15.90625,0.09375 15.796875,-0.046875 15.28125,-0.046875 C14.6875,-0.046875 11.5625,0.140625 11.5625,0.171875 L11.5625,-0.21875 C12.859375,-0.390625 13.609375,-0.546875 14.0625,-0.8125 C14.421875,-1.0625 14.609375,-1.4375 14.6875,-1.921875 C17.15625,-1.65625 17.453125,-0.859375 17.453125,0.390625 L17.453125,3.171875 L22.34375,3.171875 C22.65625,3.171875 22.890625,3.28125 22.9375,3.546875 C22.203125,4.25 21.03125,5.15625 21.03125,5.15625 L19.9375,3.890625 L17.453125,3.890625 L17.453125,4.796875 C18,4.890625 18.21875,5.0625 18.28125,5.40625 Z M5.96875,12.578125 C6.625,12.703125 6.984375,12.890625 7.15625,13.0625 L5.109375,14.765625 L4.171875,13.515625 L1.125,13.515625 L1.265625,12.84375 L4.515625,12.84375 L4.515625,8.328125 C3,7.734375 1.65625,7.21875 0.984375,7.015625 L1.9375,5.15625 C2.1875,5.25 2.359375,5.5 2.40625,5.765625 C3.765625,6.796875 4.890625,7.6875 5.6875,8.328125 C7.25,6.1875 9.09375,5.640625 12.4375,5.640625 L22.21875,5.640625 C22.25,6.21875 22.5625,6.625 23.109375,6.71875 L23.109375,7.0625 C20.71875,6.984375 14.828125,6.984375 12.4375,6.984375 C9.28125,6.984375 7.421875,7.171875 5.96875,8.65625 Z M18.90625,12.53125 L18.90625,11.234375 L10.828125,11.234375 L10.828125,12.53125 Z M18.90625,13.21875 L10.828125,13.21875 L10.828125,14.515625 L18.90625,14.515625 Z M18.90625,10.53125 L18.90625,9.21875 L10.828125,9.21875 L10.828125,10.53125 Z" transform="translate(-0.046875, 20.15625) scale(1, -1)"/>
</svg>