<svg height="22.078125" viewBox="0 0 24 22.078125" width="24" xmlns="http://www.w3.org/2000/svg">
<path d="M6.3125,2.78125 L6.09375,2.59375 C7.203125,1.875 8.5,0.578125 8.90625,-0.546875 C10.703125,-1.484375 11.59375,2.1875 6.3125,2.78125 Z M2.875,19.875 L2.640625,19.65625 C3.703125,18.953125 5.046875,17.71875 5.546875,16.703125 C7.25,15.9375 7.9375,19.25 2.875,19.875 Z M1.921875,16.6875 L1.703125,16.4375 C2.78125,15.8125 4.203125,14.6875 4.75,13.75 C6.453125,13.109375 7.015625,16.34375 1.921875,16.6875 Z M9.3125,15.21875 L9.3125,7.609375 L9.53125,7.609375 C10.15625,7.609375 10.828125,7.96875 10.828125,8.109375 L10.828125,8.5 L18.984375,8.5 L18.984375,7.734375 L19.21875,7.734375 C19.734375,7.734375 20.5,8.109375 20.515625,8.25 L20.515625,14.25 C20.96875,14.359375 21.328125,14.546875 21.5,14.71875 L19.609375,16.15625 L18.765625,15.21875 L14.28125,15.21875 C14.65625,15.671875 15.046875,16.25 15.390625,16.75 L22.390625,16.75 C22.75,16.75 22.96875,16.875 23.046875,17.140625 C22.265625,17.828125 21.078125,18.71875 21.078125,18.71875 L20.015625,17.46875 L16.921875,17.46875 C17.609375,17.96875 18.390625,18.578125 18.890625,19.109375 C19.421875,19.0625 19.703125,19.265625 19.828125,19.5625 L17.375,20.1875 C17.0625,19.375 16.578125,18.265625 16.15625,17.46875 L12.796875,17.46875 C13.515625,17.96875 13.390625,19.703125 10.375,20.09375 L10.125,19.921875 C10.84375,19.390625 11.609375,18.390625 11.765625,17.515625 L11.859375,17.46875 L7.078125,17.46875 L7.265625,16.75 L13.625,16.75 L13.203125,15.21875 L10.921875,15.21875 L9.3125,15.953125 Z M6.046875,11.359375 C6.71875,11.453125 7.078125,11.640625 7.21875,11.828125 L5.1875,13.515625 L4.265625,12.28125 L1.203125,12.28125 L1.34375,11.59375 L4.578125,11.59375 L4.578125,8.234375 C3.046875,7.703125 1.6875,7.25 0.953125,7.03125 L1.96875,5.1875 C2.203125,5.28125 2.375,5.5 2.421875,5.78125 C3.859375,6.796875 5.046875,7.65625 5.828125,8.25 C7.421875,6.171875 9.3125,5.640625 12.71875,5.640625 L15.765625,5.640625 L15.765625,3.890625 L1.015625,3.890625 L1.21875,3.171875 L15.765625,3.171875 L15.765625,0.484375 C15.765625,0.09375 15.625,-0.03125 15.125,-0.03125 C14.546875,-0.03125 11.40625,0.171875 11.40625,0.171875 L11.40625,-0.1875 C12.71875,-0.359375 13.4375,-0.53125 13.890625,-0.796875 C14.28125,-1.0625 14.453125,-1.421875 14.546875,-1.890625 C16.984375,-1.65625 17.296875,-0.84375 17.296875,0.390625 L17.296875,3.171875 L22.34375,3.171875 C22.65625,3.171875 22.890625,3.28125 22.9375,3.546875 C22.203125,4.25 21.03125,5.15625 21.03125,5.15625 L19.9375,3.890625 L17.296875,3.890625 L17.296875,4.828125 C17.859375,4.921875 18.078125,5.09375 18.140625,5.453125 L16.25,5.640625 L22.375,5.640625 C22.390625,6.1875 22.703125,6.59375 23.25,6.703125 L23.25,7.03125 C20.875,6.953125 15.078125,6.953125 12.71875,6.953125 C9.484375,6.953125 7.515625,7.15625 6.046875,8.640625 Z M18.984375,12.53125 L18.984375,11.234375 L10.828125,11.234375 L10.828125,12.53125 Z M18.984375,13.25 L10.828125,13.25 L10.828125,14.515625 L18.984375,14.515625 Z M18.984375,10.53125 L18.984375,9.1875 L10.828125,9.1875 L10.828125,10.53125 Z" transform="translate(-0.1015625, 20.1875) scale(1, -1)"/>
</svg>