<svg height="21.90625" viewBox="0 0 24 21.90625" width="24" xmlns="http://www.w3.org/2000/svg">
<path d="M9.171875,15.9375 L8.859375,15.8125 C9.53125,14.765625 10.296875,13.109375 10.4375,11.8125 C11.8125,10.578125 13.203125,13.5625 9.171875,15.9375 Z M10.875,7.03125 L10.609375,6.84375 C11.59375,5.8125 12.84375,4.109375 13.109375,2.71875 C14.734375,1.5625 15.984375,5.015625 10.875,7.03125 Z M13.4375,16.625 L13.125,16.53125 C13.625,15.40625 14.296875,13.703125 14.375,12.40625 C15.671875,11.1875 17.15625,13.96875 13.4375,16.625 Z M20.09375,19.984375 C17.40625,18.984375 12.265625,17.8125 8.09375,17.28125 L8.15625,16.84375 C12.53125,16.984375 17.453125,17.640625 20.65625,18.34375 C21.265625,18.078125 21.671875,18.09375 21.90625,18.28125 Z M20.140625,17.0625 C19.25,15.21875 17.421875,12.546875 15.59375,10.828125 L15.890625,10.515625 C18.125,11.953125 20.234375,14.109375 21.4375,15.71875 C21.953125,15.59375 22.15625,15.71875 22.3125,15.984375 Z M1.5625,16.203125 L1.265625,16.03125 C2.28125,14.90625 3.34375,13.0625 3.4375,11.5625 C5.015625,10.15625 6.578125,13.828125 1.5625,16.203125 Z M17.953125,11.515625 L17.953125,8.78125 L7.875,8.78125 L8.0625,8.09375 L17.953125,8.09375 L17.953125,0.484375 C17.953125,0.09375 17.8125,-0.078125 17.296875,-0.078125 C16.75,-0.078125 13.875,0.140625 13.875,0.140625 L13.875,-0.21875 C15.09375,-0.359375 15.796875,-0.546875 16.21875,-0.8125 C16.578125,-1.0625 16.734375,-1.4375 16.796875,-1.921875 C19.203125,-1.6875 19.484375,-0.859375 19.484375,0.359375 L19.484375,8.09375 L22.703125,8.09375 C23.046875,8.09375 23.25,8.203125 23.328125,8.46875 C22.609375,9.171875 21.40625,10.171875 21.40625,10.171875 L20.359375,8.78125 L19.484375,8.78125 L19.484375,10.625 C20.046875,10.734375 20.25,10.921875 20.296875,11.25 Z M5.8125,19.984375 L5.8125,8.09375 C3.765625,6.703125 1.78125,5.421875 0.9375,4.9375 L2.25,3.09375 C2.46875,3.234375 2.59375,3.578125 2.59375,3.84375 C3.890625,5.203125 4.984375,6.453125 5.8125,7.375 L5.8125,-1.828125 L6.125,-1.828125 C6.71875,-1.828125 7.390625,-1.421875 7.390625,-1.171875 L7.390625,19.078125 C7.96875,19.171875 8.15625,19.421875 8.234375,19.75 Z" transform="translate(-0.1328125, 19.984375) scale(1, -1)"/>
</svg>