<svg height="22.078125" viewBox="0 0 24 22.078125" width="24" xmlns="http://www.w3.org/2000/svg">
<path d="M5.953125,3.09375 L5.734375,2.859375 C6.953125,2.15625 8.421875,0.796875 8.875,-0.390625 C10.6875,-1.296875 11.5,2.40625 5.953125,3.09375 Z M15.28125,6.234375 L15.28125,4.390625 L0.984375,4.390625 L1.203125,3.71875 L15.28125,3.71875 L15.28125,0.484375 C15.28125,0.125 15.171875,-0.03125 14.734375,-0.03125 C14.1875,-0.03125 11.421875,0.171875 11.421875,0.171875 L11.421875,-0.1875 C12.59375,-0.34375 13.265625,-0.53125 13.65625,-0.796875 C13.984375,-1.0625 14.15625,-1.4375 14.234375,-1.921875 C16.5625,-1.6875 16.828125,-0.890625 16.828125,0.390625 L16.828125,3.71875 L22.4375,3.71875 C22.78125,3.71875 22.984375,3.84375 23.0625,4.078125 C22.25,4.828125 20.96875,5.828125 20.96875,5.828125 L19.828125,4.390625 L16.828125,4.390625 L16.828125,5.40625 C17.359375,5.5 17.5625,5.640625 17.640625,6 Z M15.046875,20.15625 C14.71875,19.25 14.109375,18 13.625,17.0625 L9.890625,17.0625 C10.578125,17.609375 10.15625,19.578125 6.546875,20.09375 L6.34375,19.875 C7.265625,19.25 8.453125,18.078125 8.828125,17.0625 L1.078125,17.0625 L1.296875,16.375 L9.265625,16.375 L9.265625,14.78125 L9.265625,14.515625 L5.765625,14.515625 L4.109375,15.28125 L4.109375,5.15625 L4.34375,5.15625 C4.96875,5.15625 5.59375,5.5 5.59375,5.65625 L5.59375,6.28125 L18.578125,6.28125 L18.578125,5.515625 L18.8125,5.515625 C19.3125,5.515625 20.0625,5.875 20.09375,6.046875 L20.09375,13.5625 C20.515625,13.625 20.875,13.84375 21.03125,14.015625 L19.203125,15.40625 L18.359375,14.515625 L14.359375,14.515625 L14.359375,16.375 L22.375,16.375 C22.703125,16.375 22.9375,16.484375 22.984375,16.75 C22.203125,17.5 20.953125,18.484375 20.953125,18.484375 L19.828125,17.0625 L14.40625,17.0625 C15.265625,17.6875 16.171875,18.40625 16.78125,18.984375 C17.296875,18.9375 17.59375,19.125 17.71875,19.390625 Z M12.953125,16.375 L12.953125,14.515625 L10.6875,14.515625 L10.6875,14.78125 L10.6875,16.375 Z M18.578125,13.796875 L18.578125,9.359375 L5.59375,9.359375 L5.59375,13.796875 L9.1875,13.796875 C9,12.453125 8.25,11.203125 5.90625,10.171875 L6.125,9.796875 C9.484375,10.75 10.390625,12.28125 10.609375,13.796875 L12.953125,13.796875 L12.953125,11.859375 C12.953125,10.96875 13.15625,10.609375 14.40625,10.609375 L15.578125,10.609375 C17.65625,10.609375 18.171875,10.78125 18.171875,11.296875 C18.171875,11.5625 18.078125,11.6875 17.640625,11.859375 L17.546875,13.375 L17.28125,13.375 C17.109375,12.703125 16.921875,12.03125 16.78125,11.859375 C16.703125,11.734375 16.609375,11.71875 16.484375,11.71875 C16.375,11.6875 16.015625,11.6875 15.640625,11.6875 L14.78125,11.6875 C14.40625,11.6875 14.359375,11.765625 14.359375,12.03125 L14.359375,13.796875 Z M18.578125,8.65625 L18.578125,7.015625 L5.59375,7.015625 L5.59375,8.65625 Z" transform="translate(-0.0234375, 20.15625) scale(1, -1)"/>
</svg>