<svg height="21.96875" viewBox="0 0 24 21.96875" width="24" xmlns="http://www.w3.org/2000/svg">
<path d="M14.546875,10.828125 L14.234375,10.6875 C15,9.3125 15.75,7.25 15.640625,5.5625 C17.109375,4.03125 18.84375,7.703125 14.546875,10.828125 Z M1.609375,19.25 L1.3125,19.109375 C2.046875,18.125 2.78125,16.53125 2.828125,15.234375 C4.171875,13.984375 5.71875,17.046875 1.609375,19.25 Z M11.765625,19.375 C11.203125,17.828125 10.484375,16.171875 9.953125,15.140625 L10.3125,14.921875 C11.234375,15.703125 12.28125,16.890625 13.171875,18.03125 C13.65625,17.96875 13.921875,18.171875 14.046875,18.40625 Z M18.8125,19.78125 L18.8125,13.421875 L13.34375,13.421875 L13.515625,12.71875 L18.8125,12.71875 L18.8125,0.59375 C18.8125,0.21875 18.671875,0.078125 18.234375,0.078125 C17.734375,0.078125 15.265625,0.265625 15.265625,0.265625 L15.265625,-0.125 C16.375,-0.265625 16.96875,-0.4375 17.328125,-0.71875 C17.65625,-0.953125 17.78125,-1.390625 17.859375,-1.875 C20.09375,-1.65625 20.328125,-0.8125 20.328125,0.4375 L20.328125,12.71875 L22.84375,12.71875 C23.1875,12.71875 23.375,12.84375 23.453125,13.109375 C22.75,13.796875 21.59375,14.78125 21.59375,14.78125 L20.59375,13.421875 L20.328125,13.421875 L20.328125,18.859375 C20.90625,18.9375 21.140625,19.171875 21.21875,19.515625 Z M1.15625,0.75 L2.140625,-1.390625 C2.40625,-1.3125 2.59375,-1.125 2.71875,-0.84375 C7.484375,0.21875 10.890625,1.078125 13.34375,1.78125 L13.296875,2.1875 L7.984375,1.484375 L7.984375,4.875 L11.96875,4.875 C12.265625,4.875 12.5,4.984375 12.546875,5.25 C11.875,5.90625 10.734375,6.8125 10.734375,6.8125 L9.765625,5.5625 L7.984375,5.5625 L7.984375,8.8125 L12.640625,8.8125 C12.984375,8.8125 13.21875,8.921875 13.296875,9.1875 C12.578125,9.859375 11.46875,10.734375 11.46875,10.734375 L10.46875,9.53125 L8.734375,9.53125 C9.53125,10.53125 10.421875,11.765625 10.9375,12.640625 C11.453125,12.625 11.765625,12.84375 11.859375,13.125 L10.03125,13.609375 L13.703125,13.609375 C14.046875,13.609375 14.25,13.734375 14.328125,13.984375 C13.609375,14.6875 12.4375,15.59375 12.4375,15.59375 L11.421875,14.328125 L9.5,14.328125 L9.5,19.21875 C10.0625,19.296875 10.3125,19.53125 10.34375,19.84375 L8.140625,20.09375 L8.140625,14.328125 L6.390625,14.328125 L6.390625,19.21875 C6.90625,19.3125 7.125,19.53125 7.171875,19.84375 L5.015625,20.09375 L5.015625,14.328125 L0.9375,14.328125 L1.125,13.609375 L3.3125,13.609375 L3.265625,13.578125 C3.90625,12.625 4.53125,11.0625 4.484375,9.84375 C4.6875,9.640625 4.890625,9.546875 5.09375,9.53125 L1.875,9.53125 L2.0625,8.8125 L6.453125,8.8125 L6.453125,5.5625 L2.453125,5.5625 L2.640625,4.875 L6.453125,4.875 L6.453125,1.3125 C4.15625,1.03125 2.25,0.84375 1.15625,0.75 Z M3.765625,13.609375 L9.359375,13.609375 C9.046875,12.359375 8.546875,10.734375 8.140625,9.53125 L5.234375,9.53125 C6.21875,9.625 6.71875,11.828125 3.765625,13.609375 Z" transform="translate(-0.1953125, 20.09375) scale(1, -1)"/>
</svg>