<svg height="22.03125" viewBox="0 0 24 22.03125" width="24" xmlns="http://www.w3.org/2000/svg">
<path d="M11.28125,6.28125 L10.984375,6.09375 C12.046875,5.140625 13.25,3.484375 13.515625,2.15625 C15.09375,0.984375 16.375,4.4375 11.28125,6.28125 Z M17.859375,11.609375 L17.859375,7.9375 L8.96875,7.9375 L9.171875,7.25 L17.859375,7.25 L17.859375,0.59375 C17.859375,0.21875 17.71875,0.078125 17.1875,0.078125 C16.5625,0.078125 13.4375,0.28125 13.4375,0.28125 L13.4375,-0.09375 C14.78125,-0.234375 15.5,-0.453125 15.953125,-0.71875 C16.34375,-0.953125 16.515625,-1.34375 16.609375,-1.84375 C19.109375,-1.578125 19.375,-0.765625 19.375,0.5 L19.375,7.25 L22.703125,7.25 C23.046875,7.25 23.25,7.375 23.296875,7.625 C22.609375,8.375 21.40625,9.390625 21.40625,9.390625 L20.359375,7.9375 L19.375,7.9375 L19.375,10.734375 C19.9375,10.796875 20.140625,10.984375 20.203125,11.359375 Z M14.546875,20.140625 C13.34375,17.78125 10.921875,15.1875 8.515625,13.6875 L8.734375,13.390625 C9.453125,13.6875 10.15625,14.0625 10.84375,14.46875 C11.71875,13.890625 12.671875,12.859375 12.9375,12 C14.375,11.109375 15.3125,13.9375 11.140625,14.640625 C11.875,15.125 12.59375,15.640625 13.265625,16.203125 C14.1875,15.671875 15.28125,14.734375 15.75,14.046875 C17.203125,13.4375 17.765625,16.0625 13.609375,16.484375 L14.328125,17.140625 L19.890625,17.140625 C17.421875,13.3125 13.75,10.828125 8.734375,9 L8.953125,8.640625 C15.046875,10.296875 18.953125,12.953125 21.75,16.921875 C22.296875,16.9375 22.65625,17.015625 22.828125,17.203125 L21.09375,18.71875 L20.1875,17.859375 L15.03125,17.859375 C15.40625,18.265625 15.75,18.671875 16.0625,19.078125 C16.65625,18.953125 16.84375,19.0625 16.9375,19.296875 Z M0.859375,8.234375 L1.078125,7.515625 L2.859375,7.515625 C2.828125,4.3125 2.71875,1.078125 0.984375,-1.515625 L1.34375,-1.890625 C3.953125,0.59375 4.296875,4.015625 4.390625,7.515625 L6.625,7.515625 L6.625,-1.78125 L6.9375,-1.78125 C7.484375,-1.78125 8.140625,-1.421875 8.140625,-1.171875 L8.140625,19.015625 C8.765625,19.109375 8.953125,19.34375 9,19.6875 L6.625,19.96875 L6.625,12.8125 L3.703125,12.8125 L3.703125,18.078125 C4.296875,18.171875 4.515625,18.359375 4.5625,18.703125 L2.234375,18.953125 L2.234375,10.421875 L2.46875,10.421875 C3.046875,10.421875 3.703125,10.75 3.703125,10.9375 L3.703125,12.125 L6.625,12.125 L6.625,8.234375 L4.421875,8.234375 Z" transform="translate(-0.078125, 20.140625) scale(1, -1)"/>
</svg>