<svg height="21.859375" viewBox="0 0 24 21.859375" width="24" xmlns="http://www.w3.org/2000/svg">
<path d="M5.96875,4.015625 L5.734375,3.765625 C7.078125,2.921875 8.65625,1.34375 9.125,0 C10.96875,-1.03125 11.859375,2.875 5.96875,4.015625 Z M15.125,7.3125 L15.125,5.453125 L1.34375,5.453125 L1.5625,4.734375 L15.125,4.734375 L15.125,0.578125 C15.125,0.1875 14.96875,0.046875 14.515625,0.046875 C13.9375,0.046875 10.984375,0.265625 10.984375,0.265625 L10.984375,-0.125 C12.21875,-0.265625 12.953125,-0.453125 13.375,-0.71875 C13.734375,-0.984375 13.875,-1.390625 13.96875,-1.875 C16.390625,-1.625 16.6875,-0.8125 16.6875,0.453125 L16.6875,4.734375 L22.125,4.734375 C22.46875,4.734375 22.6875,4.84375 22.75,5.109375 C21.953125,5.859375 20.65625,6.90625 20.65625,6.90625 L19.515625,5.453125 L16.6875,5.453125 L16.6875,6.484375 C17.203125,6.546875 17.421875,6.71875 17.5,7.078125 Z M17.78125,14.109375 L17.78125,11.734375 L12.671875,11.734375 L12.671875,14.109375 Z M1.875,17.59375 L2.0625,16.875 L11.140625,16.875 L11.140625,14.828125 L6.484375,14.828125 L4.828125,15.59375 L4.828125,6.671875 L5.0625,6.671875 C5.6875,6.671875 6.359375,7.03125 6.359375,7.203125 L6.359375,7.921875 L17.78125,7.921875 L17.78125,7.015625 L18.03125,7.015625 C18.53125,7.015625 19.296875,7.390625 19.3125,7.53125 L19.3125,13.875 C19.75,13.96875 20.109375,14.15625 20.25,14.328125 L18.390625,15.75 L17.5625,14.828125 L12.671875,14.828125 L12.671875,16.875 L21.703125,16.875 C22.03125,16.875 22.25,16.984375 22.3125,17.25 C21.53125,18.03125 20.25,19.03125 20.25,19.03125 L19.125,17.59375 L12.671875,17.59375 L12.671875,19.078125 C13.265625,19.171875 13.484375,19.421875 13.5625,19.75 L11.140625,19.984375 L11.140625,17.59375 Z M17.78125,11.046875 L17.78125,8.609375 L12.671875,8.609375 L12.671875,11.046875 Z M6.359375,11.046875 L11.140625,11.046875 L11.140625,8.609375 L6.359375,8.609375 Z M6.359375,11.734375 L6.359375,14.109375 L11.140625,14.109375 L11.140625,11.734375 Z" transform="translate(-0.046875, 19.984375) scale(1, -1)"/>
</svg>