<svg height="21.984375" viewBox="0 0 24 21.984375" width="24" xmlns="http://www.w3.org/2000/svg">
<path d="M15.546875,18.484375 L15.3125,18.265625 C17.28125,16.9375 19.9375,14.609375 20.90625,12.8125 C22.984375,11.78125 23.515625,16.03125 15.546875,18.484375 Z M3.28125,12.4375 L3.28125,-1.890625 L3.546875,-1.890625 C4.21875,-1.890625 4.828125,-1.515625 4.828125,-1.3125 L4.828125,11.765625 L19.125,11.765625 L19.125,0.578125 C19.125,0.21875 19.015625,0.046875 18.546875,0.046875 C17.96875,0.046875 15.40625,0.265625 15.40625,0.265625 L15.40625,-0.140625 C16.53125,-0.265625 17.1875,-0.484375 17.5625,-0.71875 C17.90625,-0.984375 18.03125,-1.421875 18.09375,-1.890625 C20.40625,-1.65625 20.6875,-0.84375 20.6875,0.40625 L20.6875,11.453125 C21.171875,11.515625 21.578125,11.734375 21.71875,11.90625 L19.6875,13.4375 L18.890625,12.4375 L12.671875,12.4375 L12.671875,19.203125 C13.265625,19.265625 13.515625,19.515625 13.5625,19.84375 L11.09375,20.09375 L11.09375,12.4375 L5.015625,12.4375 L3.390625,13.203125 C5.0625,14.234375 6.71875,15.59375 8.046875,17.28125 C8.546875,17.109375 8.90625,17.28125 9.046875,17.5 L6.9375,18.859375 C5.375,16.15625 3.046875,13.796875 1.078125,12.53125 L1.3125,12.140625 C1.96875,12.4375 2.640625,12.765625 3.28125,13.15625 Z M14.6875,8.25 L14.6875,3.9375 L9.1875,3.9375 L9.1875,8.25 Z M7.703125,8.953125 L7.703125,1.421875 L7.9375,1.421875 C8.5625,1.421875 9.1875,1.78125 9.1875,1.921875 L9.1875,3.21875 L14.6875,3.21875 L14.6875,1.890625 L14.875,1.890625 C15.390625,1.890625 16.15625,2.25 16.171875,2.40625 L16.171875,7.96875 C16.65625,8.0625 17.015625,8.25 17.1875,8.453125 L15.28125,9.90625 L14.453125,8.953125 L9.28125,8.953125 L7.703125,9.703125 Z" transform="translate(-0.296875, 20.09375) scale(1, -1)"/>
</svg>