<svg height="21.96875" viewBox="0 0 24 21.96875" width="24" xmlns="http://www.w3.org/2000/svg">
<path d="M16.015625,14.96875 L16.015625,12.21875 L12.703125,12.21875 L12.703125,16.203125 L20.71875,16.203125 C21.046875,16.203125 21.265625,16.3125 21.328125,16.578125 C20.546875,17.28125 19.265625,18.265625 19.265625,18.265625 L18.171875,16.875 L12.703125,16.875 L12.703125,19.203125 C13.296875,19.265625 13.53125,19.515625 13.578125,19.84375 L11.140625,20.09375 L11.140625,16.875 L3,16.875 L3.1875,16.203125 L11.140625,16.203125 L11.140625,12.21875 L7.828125,12.21875 L7.828125,14.109375 C8.375,14.203125 8.5625,14.421875 8.609375,14.734375 L6.28125,14.96875 L6.28125,12.21875 L1.078125,12.21875 L1.265625,11.515625 L6.28125,11.515625 L6.28125,7.6875 L1.390625,7.6875 L1.609375,6.984375 L8.109375,6.984375 C7.625,2.734375 5.921875,0.3125 1.109375,-1.515625 L1.25,-1.875 C6.9375,-0.4375 9.21875,2.09375 9.890625,6.984375 L13.796875,6.984375 L13.796875,0.265625 C13.796875,-0.953125 14.1875,-1.3125 16.0625,-1.3125 L18.625,-1.3125 C22.34375,-1.3125 23.0625,-1.03125 23.0625,-0.34375 C23.0625,0 22.9375,0.171875 22.421875,0.359375 L22.34375,3.59375 L22.03125,3.59375 C21.75,2.203125 21.484375,0.859375 21.28125,0.453125 C21.1875,0.234375 21.140625,0.171875 20.828125,0.140625 C20.515625,0.125 19.703125,0.09375 18.671875,0.09375 L16.34375,0.09375 C15.453125,0.09375 15.359375,0.1875 15.359375,0.578125 L15.359375,6.984375 L22.109375,6.984375 C22.4375,6.984375 22.65625,7.109375 22.734375,7.375 C21.9375,8.09375 20.6875,9.03125 20.6875,9.03125 L19.609375,7.6875 L17.5625,7.6875 L17.5625,11.515625 L22.46875,11.515625 C22.78125,11.515625 23.015625,11.640625 23.09375,11.90625 C22.296875,12.625 21.078125,13.578125 21.078125,13.578125 L19.9375,12.21875 L17.5625,12.21875 L17.5625,14.109375 C18.125,14.203125 18.3125,14.421875 18.359375,14.734375 Z M7.828125,7.6875 L7.828125,11.515625 L16.015625,11.515625 L16.015625,7.6875 Z" transform="translate(-0.0859375, 20.09375) scale(1, -1)"/>
</svg>