<svg height="20.953125" viewBox="0 0 24 20.953125" width="24" xmlns="http://www.w3.org/2000/svg">
<path d="M19.375,17.421875 L19.375,12.359375 L5.546875,12.359375 L5.546875,17.421875 Z M3.984375,18.140625 L3.984375,12 C3.984375,7.3125 3.671875,2.40625 1.03125,-1.609375 L1.390625,-1.84375 C5.15625,1.96875 5.515625,7.421875 5.546875,11.6875 L19.375,11.6875 L19.375,10.265625 L19.609375,10.265625 C20.140625,10.265625 20.921875,10.609375 20.953125,10.75 L20.953125,17.109375 C21.453125,17.234375 21.8125,17.421875 21.984375,17.609375 L20.015625,19.109375 L19.125,18.140625 L5.859375,18.140625 L3.984375,18.9375 Z" transform="translate(0.4921875, 19.109375) scale(1, -1)"/>
</svg>