<svg height="22.03125" viewBox="0 0 24 22.03125" width="24" xmlns="http://www.w3.org/2000/svg">
<path d="M8.359375,8.875 L8.1875,8.59375 C9.953125,7.875 12.359375,6.40625 13.34375,5.109375 C15.28125,4.53125 15.28125,8.328125 8.359375,8.875 Z M6.34375,3.34375 L6.21875,2.921875 C10.75,1.703125 14.421875,-0.359375 15.984375,-1.78125 C18.09375,-2.515625 18.640625,1.9375 6.34375,3.34375 Z M5.328125,18.53125 L5.328125,14.609375 C5.328125,10.21875 4.6875,5.40625 0.9375,1.46875 L1.25,1.171875 C5.359375,4.25 6.5,8.546875 6.796875,12.21875 L13.84375,12.21875 C14.6875,9.5 16.578125,5.109375 21.8125,2.328125 C22.015625,3.171875 22.515625,3.40625 23.296875,3.5 L23.359375,3.796875 C17.828125,6.234375 15.390625,9.75 14.375,12.21875 L18.4375,12.21875 L18.4375,10.828125 L18.671875,10.828125 C19.203125,10.828125 19.984375,11.1875 20.015625,11.359375 L20.015625,17.546875 C20.5,17.640625 20.875,17.828125 21.03125,18.03125 L19.078125,19.515625 L18.1875,18.53125 L7.171875,18.53125 L5.328125,19.34375 Z M6.84375,12.9375 L6.890625,14.640625 L6.890625,17.828125 L18.4375,17.828125 L18.4375,12.9375 Z" transform="translate(-0.1484375, 19.515625) scale(1, -1)"/>
</svg>