<svg height="21.625" viewBox="0 0 24 21.625" width="24" xmlns="http://www.w3.org/2000/svg">
<path d="M8.90625,3.484375 L9.09375,2.78125 L18.859375,2.78125 C19.171875,2.78125 19.421875,2.90625 19.46875,3.171875 C18.8125,3.84375 17.71875,4.703125 17.71875,4.703125 L16.78125,3.484375 L14.65625,3.484375 L14.65625,8.109375 L18.796875,8.109375 C19.125,8.109375 19.34375,8.234375 19.421875,8.5 C18.765625,9.125 17.734375,9.984375 17.734375,9.984375 L16.828125,8.8125 L14.65625,8.8125 L14.65625,11.921875 C15.1875,12.03125 15.390625,12.21875 15.40625,12.546875 L13.15625,12.796875 L13.15625,8.8125 L8.90625,8.8125 L9.09375,8.109375 L13.15625,8.109375 L13.15625,3.484375 Z M20.1875,10.984375 L20.1875,0.53125 L7.78125,0.53125 L7.78125,10.15625 C8.328125,10.25 8.515625,10.4375 8.5625,10.75 L6.28125,10.984375 L6.28125,-1.890625 L6.578125,-1.890625 C7.15625,-1.890625 7.78125,-1.53125 7.78125,-1.34375 L7.78125,-0.1875 L20.1875,-0.1875 L20.1875,-1.578125 L20.5,-1.578125 C21.078125,-1.578125 21.75,-1.21875 21.75,-1.015625 L21.75,10.125 C22.265625,10.21875 22.484375,10.4375 22.53125,10.734375 Z M19.484375,18.046875 L19.484375,14.296875 L5.28125,14.296875 L5.28125,18.046875 Z M3.71875,18.75 L3.71875,13.109375 C3.71875,8.203125 3.4375,2.828125 0.84375,-1.578125 L1.203125,-1.828125 C5.015625,2.5 5.28125,8.65625 5.28125,13.109375 L5.28125,13.578125 L19.484375,13.578125 L19.484375,12.578125 L19.703125,12.578125 C20.234375,12.578125 21.03125,12.9375 21.078125,13.078125 L21.078125,17.734375 C21.53125,17.828125 21.90625,18.046875 22.078125,18.234375 L20.109375,19.734375 L19.25,18.75 L5.59375,18.75 L3.71875,19.5625 Z" transform="translate(0.3125, 19.734375) scale(1, -1)"/>
</svg>