<svg height="21.578125" viewBox="0 0 24 21.578125" width="24" xmlns="http://www.w3.org/2000/svg">
<path d="M19.53125,18.046875 L19.53125,14.765625 L5.015625,14.765625 L5.015625,18.046875 Z M3.4375,18.75 L3.4375,12.28125 C3.4375,7.609375 3.234375,2.515625 0.953125,-1.578125 L1.34375,-1.828125 C4.796875,2.234375 5.015625,7.984375 5.015625,12.3125 L5.015625,14.0625 L19.53125,14.0625 L19.53125,13.265625 L19.75,13.265625 C20.25,13.265625 21.078125,13.609375 21.09375,13.734375 L21.09375,17.734375 C21.578125,17.828125 21.953125,18.046875 22.125,18.234375 L20.15625,19.703125 L19.296875,18.75 L5.296875,18.75 L3.4375,19.5625 Z M4.984375,4.625 L6.03125,2.859375 C6.265625,2.953125 6.4375,3.140625 6.53125,3.453125 L8.71875,4.296875 C8.515625,2.1875 7.796875,0.140625 5.40625,-1.5625 L5.65625,-1.875 C9.390625,-0.140625 10.125,2.46875 10.265625,4.9375 L13.625,6.359375 L13.53125,6.71875 L10.296875,5.875 L10.296875,9.234375 L12.984375,9.234375 C13.296875,9.234375 13.515625,9.34375 13.578125,9.578125 L13.6875,9.234375 L16.5625,9.234375 L16.5625,5.109375 L12.5,5.109375 L12.703125,4.390625 L16.5625,4.390625 L16.5625,-1.875 L16.796875,-1.875 C17.59375,-1.875 18.125,-1.484375 18.125,-1.390625 L18.125,4.390625 L22.390625,4.390625 C22.75,4.390625 22.96875,4.515625 23.046875,4.78125 C22.296875,5.5 21.09375,6.40625 21.09375,6.40625 L20.046875,5.109375 L18.125,5.109375 L18.125,9.234375 L21.75,9.234375 C22.078125,9.234375 22.296875,9.359375 22.375,9.625 C21.640625,10.3125 20.46875,11.203125 20.46875,11.203125 L19.46875,9.953125 L16.703125,9.953125 C17.375,10.796875 18.046875,11.78125 18.5,12.53125 C19.015625,12.53125 19.265625,12.75 19.375,13.03125 L17.015625,13.609375 C16.796875,12.53125 16.421875,11.046875 16.078125,9.953125 L13.484375,9.953125 L13.5625,9.703125 C12.859375,10.34375 11.828125,11.140625 11.828125,11.140625 L10.875,9.953125 L9.03125,9.953125 C9.625,10.796875 10.265625,11.8125 10.703125,12.578125 C11.1875,12.578125 11.46875,12.796875 11.5625,13.078125 L9.21875,13.609375 C9.03125,12.53125 8.6875,11.046875 8.40625,9.953125 L5.765625,9.953125 L5.921875,9.234375 L8.765625,9.234375 L8.765625,5.78125 L8.765625,5.5 C7.125,5.09375 5.78125,4.78125 4.984375,4.625 Z" transform="translate(0, 19.703125) scale(1, -1)"/>
</svg>