<svg height="21.765625" viewBox="0 0 24 21.765625" width="24" xmlns="http://www.w3.org/2000/svg">
<path d="M18.671875,13.5625 C17.859375,12.03125 16.828125,10.46875 16.078125,9.53125 L16.390625,9.234375 C17.46875,9.9375 18.765625,11.015625 19.84375,12.125 C20.328125,12 20.640625,12.171875 20.78125,12.40625 Z M7.34375,13.21875 L7.109375,13.03125 C8.0625,12.234375 9.1875,10.875 9.53125,9.75 C11.0625,8.71875 12.1875,11.953125 7.34375,13.21875 Z M8.6875,5.46875 L18.71875,5.46875 L18.71875,3.03125 L8.6875,3.03125 Z M8.6875,6.171875 L8.6875,8.421875 L18.71875,8.421875 L18.71875,6.171875 Z M12.859375,13.796875 L12.859375,9.125 L8.828125,9.125 L7.15625,9.890625 L7.15625,-1.96875 L7.421875,-1.96875 C8.046875,-1.96875 8.6875,-1.578125 8.6875,-1.421875 L8.6875,2.328125 L18.71875,2.328125 L18.71875,0.171875 C18.71875,-0.09375 18.578125,-0.171875 18.21875,-0.171875 C17.109375,-0.171875 15.140625,-0.03125 15.140625,-0.03125 L15.140625,-0.359375 C16.21875,-0.484375 16.9375,-0.703125 17.25,-0.90625 C17.5625,-1.171875 17.765625,-1.484375 17.765625,-1.9375 C19.875,-1.796875 20.25,-1.078125 20.25,0.046875 L20.25,8.109375 C20.640625,8.1875 21,8.375 21.140625,8.546875 L19.515625,10.015625 L18.890625,9.125 L14.40625,9.125 L14.40625,12.953125 C14.921875,13.0625 15.140625,13.265625 15.171875,13.5625 Z M19.515625,18.140625 L19.515625,14.953125 L5.09375,14.953125 L5.09375,18.140625 Z M3.53125,18.84375 L3.53125,13.171875 C3.53125,8.296875 3.265625,2.921875 0.765625,-1.515625 L1.109375,-1.734375 C4.84375,2.609375 5.09375,8.765625 5.09375,13.171875 L5.09375,14.234375 L19.515625,14.234375 L19.515625,13.390625 L19.75,13.390625 C20.25,13.390625 21.078125,13.703125 21.09375,13.84375 L21.09375,17.828125 C21.546875,17.921875 21.9375,18.125 22.109375,18.3125 L20.140625,19.796875 L19.265625,18.84375 L5.40625,18.84375 L3.53125,19.65625 Z" transform="translate(0.5625, 19.796875) scale(1, -1)"/>
</svg>