<svg height="21.6875" viewBox="0 0 24 21.6875" width="24" xmlns="http://www.w3.org/2000/svg">
<path d="M16.46875,13.125 L16.25,12.859375 C17.90625,12 20.140625,10.34375 20.96875,9.046875 C22.84375,8.234375 23.296875,11.921875 16.46875,13.125 Z M10.109375,13.5625 C8.609375,11.5625 6.671875,9.703125 5.203125,8.6875 L5.46875,8.296875 C6.171875,8.59375 6.9375,8.96875 7.703125,9.4375 L7.703125,-1.84375 L7.96875,-1.84375 C8.640625,-1.84375 9.265625,-1.46875 9.265625,-1.296875 L9.265625,2.59375 L18.71875,2.59375 L18.71875,0.265625 C18.71875,0.03125 18.59375,-0.078125 18.21875,-0.078125 C17.140625,-0.078125 15.1875,0.046875 15.171875,0.046875 L15.171875,-0.265625 C16.21875,-0.390625 16.9375,-0.59375 17.25,-0.84375 C17.5625,-1.078125 17.765625,-1.390625 17.765625,-1.84375 C19.890625,-1.703125 20.28125,-0.984375 20.28125,0.140625 L20.28125,8.328125 C20.640625,8.40625 21,8.59375 21.171875,8.734375 L19.515625,10.21875 L18.890625,9.34375 L14.78125,9.34375 L14.78125,13.109375 C15.3125,13.203125 15.5,13.421875 15.546875,13.703125 L13.25,13.9375 L13.25,9.34375 L9.390625,9.34375 L8.328125,9.8125 C9.28125,10.421875 10.25,11.140625 11.109375,11.921875 C11.640625,11.734375 12.03125,11.875 12.171875,12.09375 Z M9.265625,5.65625 L18.71875,5.65625 L18.71875,3.265625 L9.265625,3.265625 Z M9.265625,6.390625 L9.265625,8.640625 L18.71875,8.640625 L18.71875,6.390625 Z M19.515625,18.140625 L19.515625,15.125 L5.296875,15.125 L5.296875,18.140625 Z M3.75,18.84375 L3.75,13.125 C3.75,8.203125 3.4375,2.78125 0.84375,-1.65625 L1.203125,-1.890625 C5.046875,2.46875 5.296875,8.640625 5.296875,13.15625 L5.296875,14.40625 L19.515625,14.40625 L19.515625,13.375 L19.734375,13.375 C20.25,13.375 21.046875,13.6875 21.09375,13.828125 L21.09375,17.828125 C21.546875,17.921875 21.9375,18.125 22.109375,18.3125 L20.140625,19.796875 L19.265625,18.84375 L5.609375,18.84375 L3.75,19.65625 Z" transform="translate(-0.0703125, 19.796875) scale(1, -1)"/>
</svg>