<svg height="21.640625" viewBox="0 0 24 21.640625" width="24" xmlns="http://www.w3.org/2000/svg">
<path d="M19.46875,18.09375 L19.46875,15.28125 L5.234375,15.28125 L5.234375,18.09375 Z M3.703125,18.765625 L3.703125,12.484375 C3.703125,7.6875 3.34375,2.59375 0.59375,-1.484375 L0.953125,-1.75 C4.890625,2.28125 5.234375,8.09375 5.234375,12.5 L5.234375,14.59375 L19.46875,14.59375 L19.46875,13.578125 L19.703125,13.578125 C20.203125,13.578125 20.96875,13.921875 21,14.0625 L21,17.8125 C21.453125,17.875 21.84375,18.09375 22.015625,18.265625 L20.09375,19.703125 L19.21875,18.765625 L5.546875,18.765625 L3.703125,19.578125 Z M17.859375,14.09375 C15.28125,13.484375 10.578125,12.796875 6.84375,12.53125 L6.9375,12.046875 C8.765625,12.046875 10.734375,12.125 12.59375,12.234375 L12.59375,10.484375 L8.8125,10.484375 L7.171875,11.234375 L7.171875,5.90625 L7.390625,5.90625 C7.984375,5.90625 8.65625,6.234375 8.65625,6.359375 L8.65625,6.953125 L12.59375,6.953125 L12.59375,5.0625 L7.609375,5.0625 L5.96875,5.8125 L5.96875,-1.84375 L6.21875,-1.84375 C6.84375,-1.84375 7.484375,-1.515625 7.484375,-1.375 L7.484375,4.375 L12.59375,4.375 L12.59375,2.40625 C10.734375,2.328125 9.140625,2.28125 8.203125,2.296875 L8.96875,0.484375 C9.21875,0.53125 9.40625,0.671875 9.546875,0.953125 C12.765625,1.390625 15.21875,1.78125 17.0625,2.109375 C17.40625,1.625 17.640625,1.15625 17.734375,0.71875 C19.015625,-0.234375 20.09375,2.453125 15.90625,3.859375 L15.640625,3.671875 C16.015625,3.390625 16.375,3 16.703125,2.5625 L14.09375,2.453125 L14.09375,4.375 L19.625,4.375 L19.625,0.234375 C19.625,-0.046875 19.515625,-0.1875 19.125,-0.1875 C18.640625,-0.1875 16.6875,-0.046875 16.6875,-0.046875 L16.6875,-0.4375 C17.59375,-0.53125 18.09375,-0.71875 18.390625,-0.9375 C18.671875,-1.15625 18.796875,-1.53125 18.84375,-1.9375 C20.875,-1.75 21.125,-1.03125 21.125,0.09375 L21.125,4.0625 C21.59375,4.125 21.984375,4.375 22.125,4.53125 L20.140625,5.96875 L19.390625,5.0625 L14.09375,5.0625 L14.09375,6.953125 L18.140625,6.953125 L18.140625,6.1875 L18.359375,6.1875 C18.859375,6.1875 19.625,6.5 19.65625,6.640625 L19.65625,9.59375 C20.0625,9.671875 20.40625,9.859375 20.546875,10.03125 L18.75,11.375 L17.921875,10.484375 L14.09375,10.484375 L14.09375,12.34375 C15.59375,12.453125 17.015625,12.59375 18.1875,12.75 C18.703125,12.5 19.078125,12.484375 19.3125,12.671875 Z M12.59375,7.65625 L8.65625,7.65625 L8.65625,9.8125 L12.59375,9.8125 Z M14.09375,7.65625 L14.09375,9.8125 L18.140625,9.8125 L18.140625,7.65625 Z" transform="translate(0.640625, 19.703125) scale(1, -1)"/>
</svg>