<svg height="22.359375" viewBox="0 0 24 22.359375" width="24" xmlns="http://www.w3.org/2000/svg">
<path d="M16.375,3.59375 C15.8125,2.65625 15.078125,1.890625 14.15625,1.265625 C12.90625,1.390625 11.453125,1.515625 9.765625,1.578125 L11.5625,3.59375 Z M12.53125,15.265625 L12.53125,14.015625 L8.78125,14.015625 L7.203125,14.765625 L7.203125,12.28125 L5.046875,12.28125 L5.234375,11.59375 L7.203125,11.59375 L7.203125,9.046875 L7.421875,9.046875 C7.984375,9.046875 8.65625,9.390625 8.65625,9.5 L8.65625,9.859375 L12.53125,9.859375 L12.53125,8.546875 L8.203125,8.546875 L6.625,9.234375 L6.625,4.96875 L6.84375,4.96875 C7.4375,4.96875 8.09375,5.296875 8.09375,5.421875 L8.09375,5.765625 L11.5,5.765625 C11.1875,5.359375 10.78125,4.828125 10.3125,4.265625 L5.109375,4.265625 L5.296875,3.59375 L9.75,3.59375 C8.78125,2.46875 7.6875,1.265625 6.890625,0.546875 C7.34375,0.1875 7.921875,0.03125 8.359375,0.078125 L9.3125,1.078125 C10.5625,0.90625 11.734375,0.71875 12.8125,0.5 C10.75,-0.484375 8.046875,-1.03125 4.65625,-1.4375 L4.75,-1.890625 C9.140625,-1.609375 12.3125,-1.0625 14.609375,0.125 C16.84375,-0.40625 18.640625,-1.015625 19.984375,-1.65625 C21.8125,-2.5625 23.734375,-0.1875 16.03125,1.015625 C16.9375,1.703125 17.65625,2.5625 18.234375,3.59375 L21.890625,3.59375 C22.21875,3.59375 22.4375,3.71875 22.515625,3.984375 C21.765625,4.65625 20.59375,5.5625 20.59375,5.5625 L19.53125,4.265625 L12.140625,4.265625 L13.34375,5.765625 L18.546875,5.765625 L18.546875,5.203125 L18.765625,5.203125 C19.25,5.203125 19.984375,5.515625 20.015625,5.65625 L20.015625,7.703125 C20.375,7.75 20.6875,7.9375 20.8125,8.09375 L19.125,9.34375 L18.359375,8.546875 L13.984375,8.546875 L13.984375,9.859375 L17.921875,9.859375 L17.921875,9.34375 L18.140625,9.34375 C18.625,9.34375 19.390625,9.671875 19.421875,9.8125 L19.421875,11.59375 L22.03125,11.59375 C22.34375,11.59375 22.578125,11.71875 22.65625,11.96875 C21.953125,12.625 20.859375,13.53125 20.859375,13.53125 L19.890625,12.28125 L19.421875,12.28125 L19.421875,13.203125 C19.75,13.25 20.0625,13.421875 20.1875,13.5625 L18.5,14.828125 L17.734375,14.015625 L13.984375,14.015625 L13.984375,14.5 C14.453125,14.5625 14.640625,14.765625 14.6875,15.046875 Z M8.65625,11.59375 L12.53125,11.59375 L12.53125,10.5625 L8.65625,10.5625 Z M8.65625,12.28125 L8.65625,13.34375 L12.53125,13.34375 L12.53125,12.28125 Z M17.921875,11.59375 L17.921875,10.5625 L13.984375,10.5625 L13.984375,11.59375 Z M17.921875,12.28125 L13.984375,12.28125 L13.984375,13.34375 L17.921875,13.34375 Z M19.5625,18.171875 L19.5625,16.203125 L4.875,16.203125 L4.875,18.171875 Z M3.34375,18.84375 L3.34375,12.890625 C3.34375,8.140625 3.09375,2.953125 0.703125,-1.296875 L1.0625,-1.53125 C4.65625,2.65625 4.875,8.5625 4.875,12.90625 L4.875,15.484375 L19.5625,15.484375 L19.5625,14.921875 L19.796875,14.921875 C20.296875,14.921875 21.09375,15.265625 21.125,15.40625 L21.125,17.859375 C21.59375,17.953125 21.984375,18.140625 22.15625,18.34375 L20.1875,19.796875 L19.34375,18.84375 L5.1875,18.84375 L3.34375,19.65625 Z M8.09375,6.484375 L8.09375,7.828125 L12.53125,7.828125 L12.53125,6.484375 Z M18.546875,6.484375 L13.984375,6.484375 L13.984375,7.828125 L18.546875,7.828125 Z" transform="translate(-0.21875, 19.796875) scale(1, -1)"/>
</svg>