<svg height="21.53125" viewBox="0 0 24 21.53125" width="24" xmlns="http://www.w3.org/2000/svg">
<path d="M18.796875,13.875 C18.28125,13.21875 17.71875,12.546875 17.0625,11.875 C16.390625,12.5 15.546875,13.171875 15.546875,13.171875 L14.59375,11.953125 L12.8125,11.953125 L12.8125,13.421875 C13.34375,13.515625 13.53125,13.703125 13.578125,14.015625 L11.28125,14.25 L11.28125,11.953125 L6.3125,11.953125 L6.5,11.234375 L11.28125,11.234375 L11.28125,8.953125 L5.46875,8.953125 L5.65625,8.25 L12.765625,8.25 C11.765625,7.53125 10.703125,6.84375 9.59375,6.1875 L8.71875,6.59375 L8.71875,5.6875 C7.25,4.875 5.734375,4.125 4.203125,3.53125 C5.25,6.796875 5.359375,10.296875 5.359375,13.109375 L5.359375,14.5 L19.390625,14.5 L19.390625,13.4375 Z M12.8125,11.234375 L16.390625,11.234375 C15.578125,10.46875 14.6875,9.703125 13.703125,8.953125 L12.8125,8.953125 Z M3.796875,18.765625 L3.796875,13.109375 C3.796875,8.1875 3.484375,2.8125 0.90625,-1.578125 L1.265625,-1.828125 C2.546875,-0.390625 3.40625,1.25 4.015625,2.953125 C5.640625,3.453125 7.203125,4.078125 8.71875,4.78125 L8.71875,-1.828125 L8.90625,-1.828125 C9.546875,-1.828125 10.21875,-1.46875 10.21875,-1.3125 L10.21875,-0.671875 L18.578125,-0.671875 L18.578125,-1.796875 L18.8125,-1.796875 C19.3125,-1.796875 20.109375,-1.4375 20.140625,-1.296875 L20.140625,4.9375 C20.515625,5.015625 20.859375,5.203125 21,5.375 L19.171875,6.765625 L18.359375,5.859375 L10.890625,5.859375 C11.875,6.390625 12.84375,6.953125 13.75,7.53125 C14.59375,7.203125 15.59375,6.53125 16.109375,5.953125 C17.59375,5.515625 18.078125,8.109375 14.328125,7.921875 L14.828125,8.25 L22.421875,8.25 C22.75,8.25 22.984375,8.375 23.046875,8.640625 C22.265625,9.34375 21.046875,10.34375 21.046875,10.34375 L19.9375,8.953125 L15.796875,8.953125 C17.328125,10.109375 18.640625,11.296875 19.6875,12.484375 C20.203125,12.28125 20.453125,12.34375 20.65625,12.546875 L19.46875,13.390625 L19.625,13.390625 C20.109375,13.390625 20.90625,13.75 20.921875,13.875 L20.921875,17.765625 C21.40625,17.859375 21.765625,18.078125 21.9375,18.265625 L19.984375,19.703125 L19.15625,18.765625 L5.65625,18.765625 L3.796875,19.578125 Z M19.390625,18.078125 L19.390625,15.1875 L5.359375,15.1875 L5.359375,18.078125 Z M18.578125,2.375 L18.578125,0.03125 L10.21875,0.03125 L10.21875,2.375 Z M18.578125,3.078125 L10.21875,3.078125 L10.21875,5.15625 L18.578125,5.15625 Z" transform="translate(0.0234375, 19.703125) scale(1, -1)"/>
</svg>