<svg height="22.34375" viewBox="0 0 24 22.34375" width="24" xmlns="http://www.w3.org/2000/svg">
<path d="M8.25,13.796875 L8.015625,13.609375 C8.734375,12.984375 9.640625,11.859375 9.859375,10.921875 C11.28125,9.953125 12.453125,12.75 8.25,13.796875 Z M17.71875,13.890625 C17.40625,13.109375 16.65625,11.71875 16.015625,10.703125 L14.421875,10.703125 L14.421875,13.375 C14.96875,13.4375 15.171875,13.625 15.234375,13.9375 L12.90625,14.1875 L12.90625,10.703125 L5.90625,10.703125 L6.09375,10.015625 L11.296875,10.015625 C9.75,8.5 7.5625,7.15625 5.1875,6.171875 L5.421875,5.78125 C8.296875,6.640625 10.984375,7.921875 12.90625,9.59375 L12.90625,6.671875 L12,6.90625 C11.6875,6.390625 11.140625,5.5625 10.484375,4.703125 L5.40625,4.703125 L5.59375,4.03125 L9.984375,4.03125 C9.140625,2.90625 8.1875,1.75 7.484375,1.03125 C7.96875,0.71875 8.5625,0.578125 8.96875,0.671875 L9.703125,1.515625 C10.96875,1.296875 12.140625,1.0625 13.21875,0.796875 C11.15625,-0.34375 8.359375,-0.984375 4.796875,-1.4375 L4.890625,-1.875 C9.390625,-1.53125 12.578125,-0.90625 14.875,0.390625 C17.1875,-0.234375 19.0625,-0.9375 20.421875,-1.65625 C22.21875,-2.609375 24.21875,-0.171875 16.21875,1.296875 C17.109375,2.046875 17.859375,2.921875 18.4375,4.03125 L22.25,4.03125 C22.578125,4.03125 22.828125,4.125 22.890625,4.390625 C22.125,5.09375 20.953125,5.96875 20.953125,5.96875 L19.921875,4.703125 L12.265625,4.703125 L13.125,5.875 C13.734375,5.828125 13.984375,6.03125 14.109375,6.34375 L13.375,6.53125 C13.875,6.578125 14.421875,6.890625 14.421875,7.03125 L14.421875,10.015625 L14.5,10.015625 C16.109375,8.15625 18.90625,6.765625 21.578125,5.921875 C21.75,6.671875 22.171875,7.125 22.78125,7.25 L22.78125,7.53125 C20.25,7.890625 17.234375,8.765625 15.390625,10.015625 L21.953125,10.015625 C22.296875,10.015625 22.53125,10.125 22.609375,10.375 C21.859375,11.0625 20.6875,11.96875 20.6875,11.96875 L19.65625,10.703125 L16.609375,10.703125 C17.46875,11.40625 18.390625,12.1875 18.90625,12.75 C19.390625,12.671875 19.6875,12.890625 19.75,13.125 Z M11.734375,4.03125 L16.578125,4.03125 C16.0625,3.046875 15.34375,2.25 14.453125,1.578125 C13.203125,1.75 11.765625,1.890625 10.125,2.015625 Z M19.5625,18.09375 L19.5625,15.21875 L5.15625,15.21875 L5.15625,18.09375 Z M3.625,18.796875 L3.625,13.109375 C3.625,8.203125 3.359375,2.828125 0.859375,-1.578125 L1.21875,-1.828125 C4.921875,2.515625 5.15625,8.6875 5.15625,13.109375 L5.15625,14.515625 L19.5625,14.515625 L19.5625,13.703125 L19.796875,13.703125 C20.296875,13.703125 21.078125,14.0625 21.09375,14.203125 L21.09375,17.78125 C21.578125,17.875 21.953125,18.09375 22.125,18.28125 L20.15625,19.734375 L19.3125,18.796875 L5.46875,18.796875 L3.625,19.578125 Z" transform="translate(-0.5390625, 19.734375) scale(1, -1)"/>
</svg>