<svg height="21.53125" viewBox="0 0 24 21.53125" width="24" xmlns="http://www.w3.org/2000/svg">
<path d="M19.015625,13.84375 C18.546875,13.203125 18,12.578125 17.40625,11.921875 C16.78125,12.484375 16.078125,13.015625 16.078125,13.015625 L15.125,11.78125 L12.890625,11.78125 L12.890625,13.375 C13.421875,13.46875 13.625,13.65625 13.6875,13.96875 L11.375,14.203125 L11.375,11.78125 L6.5,11.78125 L6.703125,11.09375 L11.375,11.09375 L11.375,8.515625 L5.1875,8.515625 C5.328125,10.15625 5.359375,11.71875 5.359375,13.109375 L5.359375,14.5 L19.375,14.5 L19.375,13.609375 Z M12.890625,11.09375 L16.578125,11.09375 C15.703125,10.21875 14.6875,9.359375 13.609375,8.515625 L12.890625,8.515625 Z M8.921875,5.78125 L8.921875,5.40625 C7.4375,4.5625 5.875,3.796875 4.296875,3.140625 L4.484375,2.78125 C6.03125,3.265625 7.515625,3.859375 8.921875,4.53125 L8.921875,-1.828125 L9.140625,-1.828125 C9.796875,-1.828125 10.46875,-1.46875 10.46875,-1.3125 L10.46875,-0.671875 L18.453125,-0.671875 L18.453125,-1.796875 L18.703125,-1.796875 C19.203125,-1.796875 19.984375,-1.421875 20.015625,-1.265625 L20.015625,4.875 C20.421875,4.9375 20.78125,5.140625 20.921875,5.296875 L19.078125,6.703125 L18.234375,5.78125 L11.40625,5.78125 C12.546875,6.4375 13.65625,7.109375 14.6875,7.828125 L22.25,7.828125 C22.578125,7.828125 22.796875,7.9375 22.875,8.203125 C22.078125,8.90625 20.828125,9.90625 20.828125,9.90625 L19.734375,8.515625 L15.640625,8.515625 C17.375,9.796875 18.84375,11.15625 19.9375,12.453125 C20.46875,12.265625 20.71875,12.3125 20.90625,12.53125 L19.421875,13.5625 L19.609375,13.5625 C20.109375,13.5625 20.90625,13.921875 20.921875,14.0625 L20.921875,17.765625 C21.390625,17.859375 21.765625,18.078125 21.9375,18.265625 L19.984375,19.703125 L19.125,18.765625 L5.640625,18.765625 L3.765625,19.578125 L3.765625,13.109375 C3.765625,8.1875 3.5,2.8125 0.953125,-1.578125 L1.3125,-1.828125 C3.890625,1.15625 4.828125,4.9375 5.15625,8.5 L5.359375,7.828125 L12.671875,7.828125 C11.828125,7.203125 10.921875,6.59375 10.015625,6.046875 L8.921875,6.53125 Z M19.375,18.078125 L19.375,15.1875 L5.359375,15.1875 L5.359375,18.078125 Z M18.453125,2.25 L18.453125,0.03125 L10.46875,0.03125 L10.46875,2.25 Z M18.453125,2.953125 L10.46875,2.953125 L10.46875,5.09375 L18.453125,5.09375 Z" transform="translate(0.0859375, 19.703125) scale(1, -1)"/>
</svg>