<svg height="21.328125" viewBox="0 0 24 21.328125" width="24" xmlns="http://www.w3.org/2000/svg">
<path d="M19.53125,14.421875 L19.53125,1.828125 L12.703125,1.828125 L12.703125,18.578125 C13.296875,18.671875 13.53125,18.90625 13.578125,19.265625 L11.09375,19.53125 L11.09375,1.828125 L4.375,1.828125 L4.375,13.421875 C4.96875,13.484375 5.1875,13.734375 5.25,14.0625 L2.765625,14.328125 L2.765625,-1.796875 L3.078125,-1.796875 C3.703125,-1.796875 4.375,-1.4375 4.375,-1.21875 L4.375,1.109375 L19.53125,1.109375 L19.53125,-1.421875 L19.84375,-1.421875 C20.46875,-1.421875 21.171875,-1.03125 21.171875,-0.8125 L21.171875,13.515625 C21.765625,13.578125 21.984375,13.796875 22.03125,14.140625 Z" transform="translate(-0.3984375, 19.53125) scale(1, -1)"/>
</svg>