<svg height="22.078125" viewBox="0 0 24 22.078125" width="24" xmlns="http://www.w3.org/2000/svg">
<path d="M11.421875,13.921875 C11.015625,10.796875 10.03125,8.046875 8.65625,6.125 L8.65625,15.125 C9.1875,15.1875 9.390625,15.4375 9.453125,15.75 L7.34375,15.984375 L7.34375,3.859375 L5.859375,3.859375 L5.859375,18.484375 C6.40625,18.546875 6.59375,18.765625 6.640625,19.125 L4.53125,19.34375 L4.53125,3.859375 L3.03125,3.859375 L3.03125,15.046875 C3.640625,15.09375 3.84375,15.34375 3.90625,15.671875 L1.734375,15.9375 L1.734375,0.359375 L1.984375,0.359375 C2.5,0.359375 3.03125,0.671875 3.03125,0.84375 L3.03125,3.140625 L7.34375,3.140625 L7.34375,1.421875 L7.609375,1.421875 C8.09375,1.421875 8.65625,1.734375 8.65625,1.9375 L8.65625,5.96875 L8.921875,5.78125 C10.171875,6.8125 11.1875,8.296875 11.953125,10.109375 C12.5,9.34375 13.015625,8.296875 13.109375,7.484375 C14.25,6.484375 15.53125,8.8125 12.171875,10.6875 C12.4375,11.375 12.640625,12.125 12.84375,12.890625 C13.34375,12.90625 13.609375,13.125 13.6875,13.4375 Z M19.46875,13.96875 C19.109375,11.46875 18.3125,9.171875 17.25,7.484375 C16.921875,8.609375 16.6875,9.84375 16.515625,11.1875 L16.53125,12.40625 L16.53125,15.359375 L22.578125,15.359375 C22.9375,15.359375 23.15625,15.484375 23.203125,15.75 C22.4375,16.484375 21.171875,17.5 21.171875,17.5 L20.046875,16.078125 L16.53125,16.078125 L16.53125,19.265625 C17.109375,19.375 17.296875,19.609375 17.375,19.921875 L15,20.1875 L15,16.078125 L9.359375,16.078125 L9.453125,15.75 L9.546875,15.359375 L15,15.359375 L15,12.390625 C15,6.703125 13.796875,1.65625 7.265625,-1.515625 L7.515625,-1.890625 C13.421875,0.359375 15.59375,4.203125 16.265625,8.59375 C17.109375,3.53125 18.890625,0.046875 22.015625,-1.875 C22.125,-1.171875 22.734375,-0.640625 23.421875,-0.453125 L23.46875,-0.1875 C20.546875,1.15625 18.578125,3.453125 17.421875,6.90625 C18.359375,7.734375 19.125,8.828125 19.78125,10.125 C20.65625,9.21875 21.59375,7.921875 21.8125,6.84375 C23.234375,5.78125 24.390625,8.8125 19.96875,10.5625 C20.328125,11.296875 20.609375,12.09375 20.859375,12.9375 C21.390625,12.953125 21.640625,13.171875 21.71875,13.46875 Z" transform="translate(-1.0625, 20.1875) scale(1, -1)"/>
</svg>