<svg height="22.03125" viewBox="0 0 24 22.03125" width="24" xmlns="http://www.w3.org/2000/svg">
<path d="M8.921875,12.078125 L8.921875,9 L4.4375,9 L4.4375,12.078125 Z M2.953125,12.765625 L2.953125,7.84375 C2.953125,4.53125 2.734375,1.109375 0.71875,-1.625 L1.015625,-1.921875 C3.125,-0.140625 3.9375,2.15625 4.25,4.421875 L8.921875,4.421875 L8.921875,0.4375 C8.921875,0.09375 8.8125,-0.046875 8.453125,-0.046875 C7.96875,-0.046875 6,0.09375 6,0.09375 L6,-0.28125 C6.9375,-0.359375 7.421875,-0.546875 7.75,-0.796875 C8.015625,-1.03125 8.140625,-1.390625 8.1875,-1.828125 C10.21875,-1.609375 10.46875,-0.90625 10.46875,0.28125 L10.46875,11.78125 C10.921875,11.859375 11.328125,12.046875 11.5,12.21875 L9.5,13.734375 L8.6875,12.765625 L4.734375,12.765625 L2.953125,13.5625 Z M8.921875,8.296875 L8.921875,5.140625 L4.3125,5.140625 C4.421875,6.078125 4.4375,7.015625 4.4375,7.875 L4.4375,8.296875 Z M19.828125,12.078125 L19.828125,9 L15.09375,9 L15.09375,12.078125 Z M13.5625,12.765625 L13.5625,7.75 C13.5625,4.421875 13.265625,1.078125 10.890625,-1.5625 L11.203125,-1.84375 C13.578125,-0.125 14.515625,2.15625 14.875,4.421875 L19.828125,4.421875 L19.828125,0.4375 C19.828125,0.09375 19.734375,-0.046875 19.3125,-0.046875 C18.84375,-0.046875 16.703125,0.09375 16.703125,0.09375 L16.703125,-0.265625 C17.6875,-0.359375 18.21875,-0.546875 18.546875,-0.796875 C18.84375,-1.03125 18.953125,-1.421875 19.03125,-1.84375 C21.125,-1.625 21.390625,-0.90625 21.390625,0.28125 L21.390625,11.78125 C21.84375,11.859375 22.25,12.046875 22.421875,12.21875 L20.40625,13.75 L19.609375,12.765625 L15.390625,12.765625 L13.5625,13.5625 Z M19.828125,8.296875 L19.828125,5.140625 L14.96875,5.140625 C15.078125,6.03125 15.09375,6.90625 15.09375,7.75 L15.09375,8.296875 Z M19.296875,19.171875 L19.296875,15.90625 L12.703125,15.90625 L12.703125,19.203125 C13.296875,19.296875 13.53125,19.53125 13.578125,19.875 L11.140625,20.109375 L11.140625,15.90625 L4.65625,15.90625 L4.65625,18.28125 C5.28125,18.359375 5.5,18.59375 5.5625,18.9375 L3.125,19.171875 L3.125,13.796875 L3.40625,13.796875 C4.015625,13.796875 4.65625,14.109375 4.65625,14.28125 L4.65625,15.1875 L19.296875,15.1875 L19.296875,14.109375 L19.578125,14.109375 C20.1875,14.109375 20.859375,14.40625 20.859375,14.5625 L20.859375,18.28125 C21.484375,18.359375 21.671875,18.59375 21.75,18.9375 Z" transform="translate(0.4296875, 20.109375) scale(1, -1)"/>
</svg>