<svg height="22" viewBox="0 0 24 22" width="24" xmlns="http://www.w3.org/2000/svg">
<path d="M4.921875,10.265625 L4.6875,10.03125 C5.65625,9.453125 6.796875,8.359375 7.171875,7.46875 C8.609375,6.671875 9.40625,9.453125 4.921875,10.265625 Z M4.78125,6.34375 L4.5625,6.09375 C5.5625,5.46875 6.8125,4.25 7.203125,3.28125 C8.640625,2.453125 9.484375,5.328125 4.78125,6.34375 Z M15.390625,10.296875 L15.171875,10.0625 C16.171875,9.4375 17.46875,8.296875 17.90625,7.390625 C19.34375,6.625 20.109375,9.453125 15.390625,10.296875 Z M15.21875,6.359375 L15,6.125 C16.078125,5.453125 17.453125,4.203125 17.90625,3.1875 C19.375,2.375 20.15625,5.296875 15.21875,6.359375 Z M2.921875,12.765625 L2.921875,7.796875 C2.921875,4.53125 2.765625,1.203125 0.796875,-1.484375 L1.109375,-1.75 C4.25,0.859375 4.4375,4.75 4.4375,7.828125 L4.4375,12.078125 L8.921875,12.078125 L8.921875,0.359375 C8.921875,0.03125 8.8125,-0.125 8.453125,-0.125 C7.96875,-0.125 6,0.03125 6,0.03125 L6,-0.359375 C6.9375,-0.4375 7.421875,-0.625 7.734375,-0.859375 C8.015625,-1.078125 8.109375,-1.46875 8.15625,-1.890625 C10.203125,-1.6875 10.46875,-0.953125 10.46875,0.21875 L10.46875,11.78125 C10.921875,11.859375 11.328125,12.046875 11.5,12.21875 L9.5,13.734375 L8.6875,12.765625 L4.734375,12.765625 L2.921875,13.5625 Z M13.25,12.765625 L13.25,7.65625 C13.25,4.390625 13.015625,1.125 10.75,-1.484375 L11.09375,-1.78125 C14.46875,0.796875 14.765625,4.5625 14.765625,7.65625 L14.765625,12.078125 L19.703125,12.078125 L19.703125,0.390625 C19.703125,0.046875 19.578125,-0.09375 19.171875,-0.09375 C18.703125,-0.09375 16.5625,0.046875 16.5625,0.046875 L16.5625,-0.3125 C17.546875,-0.40625 18.078125,-0.59375 18.40625,-0.84375 C18.703125,-1.078125 18.8125,-1.4375 18.890625,-1.890625 C20.96875,-1.6875 21.234375,-0.9375 21.234375,0.234375 L21.234375,11.78125 C21.71875,11.859375 22.125,12.046875 22.265625,12.21875 L20.28125,13.75 L19.46875,12.765625 L15.046875,12.765625 L13.25,13.5625 Z M19.296875,19.203125 L19.296875,15.859375 L12.703125,15.859375 L12.703125,19.203125 C13.296875,19.296875 13.53125,19.53125 13.578125,19.875 L11.140625,20.109375 L11.140625,15.859375 L4.6875,15.859375 L4.6875,18.28125 C5.296875,18.359375 5.515625,18.59375 5.59375,18.9375 L3.140625,19.171875 L3.140625,13.78125 L3.4375,13.78125 C4.03125,13.78125 4.6875,14.09375 4.6875,14.25 L4.6875,15.1875 L19.296875,15.1875 L19.296875,14.09375 L19.578125,14.09375 C20.15625,14.09375 20.859375,14.40625 20.859375,14.5625 L20.859375,18.28125 C21.453125,18.390625 21.671875,18.59375 21.71875,18.953125 Z" transform="translate(0.46875, 20.109375) scale(1, -1)"/>
</svg>