<svg height="22.046875" viewBox="0 0 24 22.046875" width="24" xmlns="http://www.w3.org/2000/svg">
<path d="M8.46875,13.578125 L8.65625,12.890625 L14.203125,12.890625 C14.546875,12.890625 14.765625,13.015625 14.8125,13.265625 C14.15625,13.875 13.109375,14.6875 13.109375,14.6875 L12.1875,13.578125 Z M7.390625,11.375 L7.578125,10.6875 L15.21875,10.6875 C15.546875,10.6875 15.796875,10.796875 15.84375,11.0625 C15.171875,11.6875 14.109375,12.484375 14.109375,12.484375 L13.21875,11.375 Z M8.46875,9.125 L8.65625,8.421875 L14.25,8.421875 C14.5625,8.421875 14.78125,8.546875 14.828125,8.8125 C14.203125,9.40625 13.265625,10.15625 13.265625,10.15625 L12.40625,9.125 Z M8.46875,6.90625 L8.65625,6.1875 L14.203125,6.1875 C14.546875,6.1875 14.765625,6.3125 14.828125,6.578125 C14.203125,7.171875 13.25,7.890625 13.25,7.890625 L12.40625,6.90625 Z M19.84375,13.921875 L19.578125,13.75 C20.203125,13.171875 20.875,12.140625 20.953125,11.296875 C22.265625,10.296875 23.515625,12.953125 19.84375,13.921875 Z M17.375,14.765625 L17.375,9.984375 L17.375,9.8125 L14.90625,9.8125 L15.09375,9.09375 L17.375,9.09375 C17.28125,5.375 16.609375,1.25 13.390625,-1.578125 L13.703125,-1.890625 C16.96875,0.21875 18.1875,3.390625 18.640625,6.53125 C19.03125,2.875 19.890625,0.09375 21.75,-1.9375 C22.03125,-1.265625 22.53125,-0.859375 23.15625,-0.8125 L23.203125,-0.59375 C20.6875,1.375 19.375,4.734375 18.90625,9.09375 L22.390625,9.09375 C22.703125,9.09375 22.9375,9.21875 23.015625,9.484375 C22.34375,10.15625 21.265625,11.015625 21.265625,11.015625 L20.296875,9.8125 L18.859375,9.8125 L18.859375,9.953125 L18.859375,13.84375 C19.46875,13.9375 19.625,14.1875 19.703125,14.5 Z M8.421875,4.53125 L8.421875,-0.9375 L8.640625,-0.9375 C9.1875,-0.9375 9.8125,-0.625 9.8125,-0.5 L9.8125,0.484375 L12.953125,0.484375 L12.953125,-0.28125 L13.171875,-0.28125 C13.625,-0.28125 14.328125,0.03125 14.359375,0.1875 L14.359375,3.640625 C14.765625,3.71875 15.125,3.90625 15.234375,4.0625 L13.515625,5.375 L12.75,4.53125 L9.9375,4.53125 L8.421875,5.234375 Z M12.953125,1.171875 L9.8125,1.171875 L9.8125,3.84375 L12.953125,3.84375 Z M6.484375,14.765625 C6,13.796875 5.421875,12.890625 4.796875,12.046875 C4.125,12.84375 3.234375,13.578125 2.140625,14.234375 L1.796875,13.921875 C2.859375,13.078125 3.640625,12.1875 4.203125,11.28125 C3.21875,10.109375 2.140625,9.125 1.109375,8.421875 L1.390625,8.09375 C2.515625,8.609375 3.671875,9.359375 4.734375,10.296875 C5.015625,9.71875 5.203125,9.125 5.359375,8.5 C4.390625,6.390625 2.734375,4.3125 1.03125,3.046875 L1.203125,2.65625 C2.828125,3.59375 4.4375,4.921875 5.640625,6.3125 L5.65625,5.046875 C5.65625,3.03125 5.421875,0.953125 4.875,0.1875 C4.703125,-0.046875 4.5625,-0.09375 4.203125,-0.09375 C3.4375,-0.09375 1.890625,0.046875 1.890625,0.046875 L1.890625,-0.359375 C2.5625,-0.484375 3.078125,-0.671875 3.359375,-0.859375 C3.59375,-1.0625 3.71875,-1.375 3.71875,-1.84375 C4.734375,-1.84375 5.46875,-1.609375 5.875,-1.0625 C6.84375,0.1875 7.109375,2.640625 7.078125,5.015625 C7.0625,7.25 6.671875,9.28125 5.546875,11.0625 C6.234375,11.765625 6.859375,12.53125 7.4375,13.390625 C7.921875,13.296875 8.25,13.4375 8.40625,13.65625 Z M19.25,19.375 L19.25,16.34375 L12.703125,16.34375 L12.703125,19.21875 C13.296875,19.296875 13.53125,19.53125 13.578125,19.875 L11.140625,20.109375 L11.140625,16.34375 L4.734375,16.34375 L4.734375,18.453125 C5.359375,18.546875 5.5625,18.765625 5.640625,19.125 L3.1875,19.375 L3.1875,14.40625 L3.484375,14.40625 C4.078125,14.40625 4.734375,14.71875 4.734375,14.875 L4.734375,15.625 L19.25,15.625 L19.25,14.65625 L19.515625,14.65625 C20.140625,14.65625 20.8125,14.96875 20.8125,15.140625 L20.8125,18.453125 C21.40625,18.546875 21.625,18.765625 21.703125,19.125 Z" transform="translate(-0.2734375, 20.109375) scale(1, -1)"/>
</svg>