<svg height="22.125" viewBox="0 0 24 22.125" width="24" xmlns="http://www.w3.org/2000/svg">
<path d="M10.34375,16.3125 L10.078125,16.125 C10.734375,15.453125 11.453125,14.328125 11.546875,13.421875 C12.84375,12.359375 14.15625,15.09375 10.34375,16.3125 Z M7.515625,5.5625 L11.046875,5.5625 L11.046875,3.90625 L7.515625,3.90625 Z M7.515625,6.265625 L7.515625,7.921875 L11.046875,7.921875 L11.046875,6.265625 Z M7.515625,3.1875 L11.046875,3.1875 L11.046875,1.75 L7.515625,1.265625 Z M5.65625,16.078125 L5.40625,15.859375 C6.21875,15.265625 7.171875,14.15625 7.390625,13.21875 L7.578125,13.125 L4.578125,13.125 L2.8125,13.921875 L2.8125,8.765625 C2.8125,5.328125 2.65625,1.53125 0.75,-1.578125 L1.0625,-1.828125 C4.0625,1.109375 4.3125,5.375 4.3125,8.515625 L4.484375,7.921875 L6.09375,7.921875 L6.09375,1.078125 L3.765625,0.84375 L4.625,-0.9375 C4.84375,-0.890625 5.0625,-0.71875 5.1875,-0.4375 C7.625,0.234375 9.578125,0.796875 11.046875,1.21875 L11.046875,-1.890625 L11.25,-1.890625 C12,-1.890625 12.453125,-1.53125 12.453125,-1.4375 L12.453125,7.921875 L13.984375,7.921875 C14.328125,7.921875 14.546875,8.046875 14.609375,8.296875 C13.921875,8.90625 12.859375,9.71875 12.859375,9.71875 L11.953125,8.609375 L9.953125,8.609375 L9.953125,10.3125 L13.484375,10.3125 C13.796875,10.3125 14.015625,10.421875 14.09375,10.6875 C13.421875,11.296875 12.40625,12.078125 12.40625,12.078125 L11.46875,11.015625 L4.984375,11.015625 L5.1875,10.3125 L8.515625,10.3125 L8.515625,8.609375 L4.3125,8.609375 L4.3125,8.78125 L4.3125,12.4375 L21.984375,12.4375 C22.3125,12.4375 22.5625,12.546875 22.609375,12.8125 C21.859375,13.53125 20.609375,14.515625 20.609375,14.515625 L19.5625,13.125 L15.90625,13.125 C16.75,13.75 17.609375,14.515625 18.1875,15.125 C18.671875,15.046875 19.015625,15.1875 19.125,15.453125 L17.0625,16.375 C16.609375,15.359375 15.84375,14.0625 15.171875,13.125 L8.28125,13.125 C9.046875,13.53125 8.875,15.40625 5.65625,16.078125 Z M15.859375,12.03125 C15.265625,9.03125 14.15625,6.140625 12.859375,4.265625 L13.25,4.0625 C14.046875,4.796875 14.78125,5.734375 15.4375,6.796875 C15.859375,5.1875 16.4375,3.703125 17.234375,2.40625 C16.203125,0.890625 14.71875,-0.390625 12.625,-1.484375 L12.8125,-1.84375 C15.03125,-0.984375 16.6875,0.078125 17.90625,1.421875 C18.90625,0.09375 20.203125,-1.015625 21.953125,-1.84375 C22.125,-1.0625 22.578125,-0.640625 23.203125,-0.453125 L23.28125,-0.234375 C21.390625,0.390625 19.890625,1.296875 18.75,2.421875 C19.84375,4.015625 20.5,5.875 20.859375,8.1875 L22.3125,8.1875 C22.65625,8.1875 22.890625,8.296875 22.9375,8.5625 C22.203125,9.265625 21.03125,10.21875 21.03125,10.21875 L19.9375,8.875 L16.484375,8.875 C16.78125,9.53125 17.046875,10.203125 17.25,10.890625 C17.78125,10.890625 18.046875,11.109375 18.140625,11.40625 Z M17.859375,3.40625 C16.9375,4.5625 16.265625,5.90625 15.765625,7.390625 L16.171875,8.1875 L19.25,8.1875 C19.015625,6.390625 18.578125,4.796875 17.859375,3.40625 Z M19.203125,19.625 L19.203125,17.0625 L12.703125,17.0625 L12.703125,19.390625 C13.25,19.46875 13.46875,19.6875 13.515625,20.015625 L11.140625,20.234375 L11.140625,17.0625 L4.828125,17.0625 L4.828125,18.71875 C5.421875,18.8125 5.640625,19.03125 5.6875,19.375 L3.28125,19.609375 L3.28125,15.234375 L3.578125,15.234375 C4.171875,15.234375 4.828125,15.53125 4.828125,15.703125 L4.828125,16.375 L19.203125,16.375 L19.203125,15.671875 L19.484375,15.671875 C20.09375,15.671875 20.765625,15.984375 20.765625,16.125 L20.765625,18.75 C21.359375,18.8125 21.59375,19.0625 21.625,19.390625 Z" transform="translate(-0.015625, 20.234375) scale(1, -1)"/>
</svg>