<svg height="21.46875" viewBox="0 0 24 21.46875" width="24" xmlns="http://www.w3.org/2000/svg">
<path d="M22.375,18.09375 L19.78125,19.015625 C19.0625,17.140625 16.53125,12.21875 14.96875,9.390625 C17.875,6.40625 20.109375,1.65625 20.65625,-0.890625 C22.46875,-2.421875 24.265625,2.609375 15.75,9.484375 C17.5,11.859375 20.453125,16.390625 21.40625,17.765625 C21.984375,17.65625 22.21875,17.8125 22.375,18.09375 Z M15.53125,18.171875 L12.953125,19.015625 C12.3125,17.1875 10.03125,12.3125 8.546875,9.453125 C11.25,6.484375 13.296875,1.78125 13.78125,-0.71875 C15.4375,-2.25 17.25,2.65625 9.28125,9.546875 C10.96875,11.953125 13.703125,16.46875 14.5625,17.8125 C15.140625,17.71875 15.390625,17.875 15.53125,18.171875 Z M9.140625,18.1875 L6.578125,19.015625 C6,17.1875 3.90625,12.265625 2.546875,9.390625 C5.09375,6.34375 6.890625,1.609375 7.265625,-0.859375 C8.875,-2.453125 10.734375,2.515625 3.265625,9.453125 C4.828125,11.90625 7.390625,16.46875 8.203125,17.828125 C8.765625,17.765625 9.03125,17.90625 9.140625,18.1875 Z" transform="translate(-1.40625, 19.015625) scale(1, -1)"/>
</svg>