<svg height="22.125" viewBox="0 0 24 22.125" width="24" xmlns="http://www.w3.org/2000/svg">
<path d="M13.265625,15.453125 L13.265625,11.921875 L13.484375,11.921875 C14.046875,11.921875 14.65625,12.234375 14.65625,12.359375 L14.65625,12.703125 L18.640625,12.703125 L18.640625,12.03125 L18.859375,12.03125 C19.3125,12.03125 20.046875,12.390625 20.0625,12.53125 L20.0625,14.59375 C20.453125,14.65625 20.765625,14.828125 20.875,14.96875 L19.5625,15.984375 L19.65625,15.984375 C20.25,15.984375 20.921875,16.296875 20.921875,16.46875 L20.921875,18.796875 C21.546875,18.890625 21.75,19.109375 21.796875,19.4375 L19.375,19.6875 L19.375,17.359375 L12.703125,17.359375 L12.703125,19.375 C13.25,19.4375 13.46875,19.6875 13.515625,19.984375 L11.140625,20.234375 L11.140625,17.359375 L4.625,17.359375 L4.625,18.796875 C5.234375,18.890625 5.453125,19.109375 5.5,19.4375 L3.09375,19.6875 L3.09375,15.75 L3.390625,15.75 C3.859375,15.75 4.34375,15.9375 4.53125,16.078125 L4.53125,11.90625 L4.75,11.90625 C5.296875,11.90625 5.90625,12.21875 5.90625,12.34375 L5.90625,12.703125 L9.890625,12.703125 L9.890625,12.09375 L10.109375,12.09375 C10.53125,12.09375 11.25,12.4375 11.28125,12.578125 L11.28125,14.609375 C11.640625,14.6875 11.921875,14.859375 12.046875,15 L10.421875,16.21875 L9.703125,15.453125 L6.03125,15.453125 L4.5625,16.125 C4.609375,16.15625 4.625,16.171875 4.625,16.203125 L4.625,16.65625 L19.375,16.65625 L19.375,16.125 L19.21875,16.25 L18.453125,15.453125 L14.78125,15.453125 L13.265625,16.125 Z M7.515625,4.609375 L10.75,4.609375 L10.75,3.28125 L7.515625,3.28125 Z M7.515625,5.328125 L7.515625,6.625 L10.75,6.625 L10.75,5.328125 Z M7.515625,2.5625 L10.75,2.5625 L10.75,1.46875 L7.515625,1.125 Z M2.90625,11.421875 L2.90625,7.484375 C2.90625,4.484375 2.765625,1.265625 0.90625,-1.375 L1.25,-1.65625 C4.203125,0.90625 4.4375,4.703125 4.4375,7.484375 L4.4375,10.703125 L21.90625,10.703125 C22.25,10.703125 22.46875,10.828125 22.53125,11.09375 C21.765625,11.78125 20.5625,12.640625 20.5625,12.640625 L19.515625,11.421875 L4.703125,11.421875 L2.90625,12.1875 Z M3.890625,0.8125 L4.75,-0.890625 C4.984375,-0.859375 5.1875,-0.703125 5.296875,-0.390625 C7.578125,0.125 9.390625,0.546875 10.75,0.90625 L10.75,-1.875 L10.96875,-1.875 C11.71875,-1.875 12.1875,-1.53125 12.1875,-1.4375 L12.1875,6.625 L13.9375,6.625 C14.25,6.625 14.46875,6.75 14.546875,7.015625 C13.875,7.609375 12.84375,8.40625 12.84375,8.40625 L11.953125,7.3125 L9.90625,7.3125 L9.90625,8.8125 L13.3125,8.8125 C13.65625,8.8125 13.875,8.90625 13.921875,9.171875 C13.265625,9.8125 12.234375,10.5625 12.234375,10.5625 L11.359375,9.5 L5.0625,9.5 L5.25,8.8125 L8.453125,8.8125 L8.453125,7.3125 L4.703125,7.3125 L4.890625,6.625 L6.125,6.625 L6.125,0.984375 Z M15.640625,10.4375 C15.1875,7.921875 14.28125,5.5625 13.171875,4.015625 L13.5625,3.765625 C14.234375,4.3125 14.828125,5.046875 15.390625,5.859375 C15.8125,4.53125 16.34375,3.34375 17.0625,2.234375 C16.03125,0.796875 14.609375,-0.4375 12.71875,-1.46875 L12.90625,-1.796875 C14.921875,-0.984375 16.515625,0.03125 17.734375,1.296875 C18.75,0.03125 20.046875,-1.0625 21.765625,-1.890625 C21.9375,-1.109375 22.375,-0.671875 23.015625,-0.5 L23.0625,-0.265625 C21.21875,0.34375 19.75,1.203125 18.578125,2.28125 C19.609375,3.640625 20.328125,5.28125 20.765625,7.203125 L22.203125,7.203125 C22.53125,7.203125 22.78125,7.3125 22.828125,7.578125 C22.109375,8.25 20.96875,9.1875 20.96875,9.1875 L19.9375,7.890625 L16.484375,7.890625 C16.703125,8.359375 16.875,8.828125 17.046875,9.3125 C17.5625,9.3125 17.828125,9.53125 17.90625,9.8125 Z M17.65625,3.1875 C16.84375,4.125 16.203125,5.203125 15.703125,6.390625 L16.15625,7.203125 L19.109375,7.203125 C18.8125,5.71875 18.359375,4.390625 17.65625,3.1875 Z M9.890625,13.390625 L5.90625,13.390625 L5.90625,14.765625 L9.890625,14.765625 Z M18.640625,13.390625 L14.65625,13.390625 L14.65625,14.765625 L18.640625,14.765625 Z" transform="translate(0.015625, 20.234375) scale(1, -1)"/>
</svg>