<svg height="21.984375" viewBox="0 0 24 21.984375" width="24" xmlns="http://www.w3.org/2000/svg">
<path d="M9.703125,20.109375 L9.4375,19.9375 C10.21875,19.0625 11.09375,17.515625 11.15625,16.3125 C12.703125,15.03125 14.203125,18.390625 9.703125,20.109375 Z M4.296875,19.875 L4.03125,19.6875 C4.9375,18.796875 6.046875,17.28125 6.359375,16.109375 C7.921875,15.03125 9.140625,18.234375 4.296875,19.875 Z M17.71875,19.96875 C16.84375,18.53125 15.453125,16.65625 14.25,15.34375 L6.125,15.34375 L4.4375,16.125 L4.4375,6.890625 L4.6875,6.890625 C5.328125,6.890625 5.96875,7.25 5.96875,7.390625 L5.96875,7.921875 L11.140625,7.921875 L11.140625,5.65625 L1.109375,5.65625 L1.3125,4.96875 L9.4375,4.96875 C7.46875,2.59375 4.390625,0.453125 0.90625,-0.953125 L1.109375,-1.375 C5.234375,-0.125 8.78125,1.890625 11.140625,4.515625 L11.140625,-1.875 L11.375,-1.875 C12.171875,-1.875 12.703125,-1.484375 12.703125,-1.375 L12.703125,4.96875 L12.953125,4.96875 C14.875,2.0625 18.21875,-0.125 21.640625,-1.25 C21.84375,-0.5 22.375,-0.03125 23.015625,0.09375 L23.046875,0.359375 C19.625,1.0625 15.8125,2.765625 13.625,4.96875 L22.296875,4.96875 C22.625,4.96875 22.875,5.09375 22.9375,5.359375 C22.078125,6.125 20.734375,7.171875 20.734375,7.171875 L19.53125,5.65625 L12.703125,5.65625 L12.703125,7.921875 L17.90625,7.921875 L17.90625,7.125 L18.140625,7.125 C18.671875,7.125 19.46875,7.484375 19.484375,7.625 L19.484375,14.421875 C19.875,14.515625 20.203125,14.6875 20.359375,14.859375 L18.53125,16.25 L17.6875,15.34375 L15,15.34375 C16.46875,16.3125 18.03125,17.59375 19.015625,18.578125 C19.515625,18.484375 19.875,18.625 20.015625,18.890625 Z M11.140625,14.640625 L11.140625,12.03125 L5.96875,12.03125 L5.96875,14.640625 Z M12.703125,14.640625 L17.90625,14.640625 L17.90625,12.03125 L12.703125,12.03125 Z M11.140625,11.328125 L11.140625,8.640625 L5.96875,8.640625 L5.96875,11.328125 Z M12.703125,11.328125 L17.90625,11.328125 L17.90625,8.640625 L12.703125,8.640625 Z" transform="translate(0.0234375, 20.109375) scale(1, -1)"/>
</svg>