<svg height="21.59375" viewBox="0 0 24 21.59375" width="24" xmlns="http://www.w3.org/2000/svg">
<path d="M2.109375,19.390625 L1.84375,19.203125 C3.046875,18.140625 4.46875,16.296875 4.78125,14.8125 C6.546875,13.484375 7.84375,17.453125 2.109375,19.390625 Z M10.296875,19.796875 C9.984375,18.171875 8.71875,13.734375 7.734375,11.09375 C9.71875,8.40625 11.0625,4.0625 11.25,1.890625 C12.75,0.4375 14.5625,4.921875 8.40625,11.1875 C9.59375,13.484375 11.40625,17.59375 11.953125,18.71875 C12.484375,18.671875 12.71875,18.84375 12.8125,19.125 Z M15.078125,19.796875 C14.6875,18.140625 13.21875,13.75 12.171875,11.140625 C14.359375,8.5 15.90625,4.125 16.203125,1.96875 C17.734375,0.546875 19.515625,5.015625 12.84375,11.234375 C14.109375,13.46875 16.109375,17.59375 16.703125,18.703125 C17.234375,18.640625 17.46875,18.8125 17.5625,19.109375 Z M20.0625,19.796875 C19.609375,18.140625 17.96875,13.734375 16.828125,11.140625 C19.15625,8.515625 20.90625,4.15625 21.265625,1.9375 C22.890625,0.546875 24.625,5.0625 17.515625,11.234375 C18.859375,13.46875 21.03125,17.546875 21.703125,18.671875 C22.25,18.625 22.484375,18.75 22.578125,19.0625 Z M5.734375,8.921875 C6.390625,9.03125 6.75,9.21875 6.890625,9.390625 L4.84375,11.109375 L3.90625,9.859375 L0.984375,9.859375 L1.125,9.171875 L4.21875,9.171875 L4.21875,1.96875 C3,1.21875 1.734375,0.5 0.890625,0.125 L2.046875,-1.796875 C2.25,-1.703125 2.359375,-1.53125 2.296875,-1.25 C3.171875,-0.484375 4.53125,0.953125 5.421875,2.015625 C7.125,-0.71875 9.09375,-1.265625 13.515625,-1.265625 C16.203125,-1.265625 19.53125,-1.265625 21.9375,-1.265625 C22.03125,-0.546875 22.4375,-0.125 23.140625,0.03125 L23.140625,0.359375 C20.203125,0.265625 16.34375,0.265625 13.484375,0.265625 C9.3125,0.265625 7.46875,0.546875 5.734375,2.515625 Z" transform="translate(-0.7578125, 19.796875) scale(1, -1)"/>
</svg>