<svg height="20.125" viewBox="0 0 24 20.125" width="24" xmlns="http://www.w3.org/2000/svg">
<path d="M16.734375,12.359375 L16.734375,6.671875 L5.859375,6.671875 L5.859375,12.359375 Z M1.21875,0.390625 L1.4375,-0.34375 L22.21875,-0.34375 C22.578125,-0.34375 22.796875,-0.21875 22.875,0.046875 C21.953125,0.859375 20.5,1.96875 20.5,1.96875 L19.21875,0.390625 L5.859375,0.390625 L5.859375,5.96875 L16.734375,5.96875 L16.734375,3.75 L16.96875,3.75 C17.5,3.75 18.3125,4.109375 18.34375,4.21875 L18.34375,11.921875 C18.859375,12.046875 19.34375,12.265625 19.53125,12.484375 L17.375,14.140625 L16.4375,13.0625 L5.859375,13.0625 L5.859375,17.515625 L21.328125,17.515625 C21.640625,17.515625 21.90625,17.640625 21.984375,17.90625 C21.09375,18.703125 19.65625,19.78125 19.65625,19.78125 L18.40625,18.21875 L1.4375,18.21875 L1.65625,17.515625 L4.25,17.515625 L4.25,0.390625 Z" transform="translate(-0.046875, 19.78125) scale(1, -1)"/>
</svg>