<svg height="22.015625" viewBox="0 0 24 22.015625" width="24" xmlns="http://www.w3.org/2000/svg">
<path d="M6.359375,20.140625 C5.921875,19.5625 4.53125,18.03125 3.765625,17.234375 C5.15625,16.46875 6.171875,15.28125 6.640625,14.40625 C7.984375,13.65625 9.484375,15.90625 4.5625,17.296875 C5.453125,17.8125 6.953125,18.671875 7.53125,19.125 C7.875,19.03125 8.0625,19.15625 8.140625,19.296875 Z M12.046875,20.140625 C11.640625,19.5625 10.171875,18.046875 9.390625,17.25 C10.828125,16.53125 11.90625,15.359375 12.40625,14.5 C13.78125,13.75 15.21875,16.03125 10.21875,17.359375 C11.109375,17.859375 12.625,18.703125 13.203125,19.125 C13.53125,19.03125 13.734375,19.125 13.828125,19.296875 Z M17.828125,20.140625 C17.328125,19.5625 15.765625,18 14.953125,17.203125 C16.46875,16.46875 17.65625,15.34375 18.234375,14.453125 L17.421875,13.5625 L6.390625,13.5625 L4.703125,14.328125 L4.703125,5.765625 L4.9375,5.765625 C5.59375,5.765625 6.265625,6.125 6.265625,6.265625 L6.265625,6.8125 L11.140625,6.8125 L11.140625,4.875 L1.3125,4.875 L1.53125,4.171875 L9.265625,4.171875 C7.265625,2.109375 4.296875,0.265625 0.984375,-0.9375 L1.203125,-1.34375 C5.15625,-0.265625 8.734375,1.46875 11.140625,3.8125 L11.140625,-1.875 L11.375,-1.875 C12.171875,-1.875 12.703125,-1.515625 12.703125,-1.390625 L12.703125,4.171875 L13.0625,4.171875 C15,1.65625 18.28125,-0.234375 21.671875,-1.21875 C21.859375,-0.484375 22.390625,0 23.046875,0.125 L23.09375,0.390625 C19.78125,0.9375 16.015625,2.328125 13.796875,4.171875 L22.109375,4.171875 C22.4375,4.171875 22.65625,4.296875 22.734375,4.5625 C21.859375,5.328125 20.5,6.359375 20.5,6.359375 L19.3125,4.875 L12.703125,4.875 L12.703125,6.8125 L17.640625,6.8125 L17.640625,6.046875 L17.90625,6.046875 C18.40625,6.046875 19.203125,6.4375 19.21875,6.59375 L19.21875,12.640625 C19.609375,12.71875 19.96875,12.90625 20.09375,13.0625 L18.453125,14.328125 C19.796875,13.875 20.8125,16.0625 15.8125,17.296875 C16.75,17.8125 18.359375,18.671875 18.953125,19.109375 C19.265625,19.015625 19.484375,19.109375 19.5625,19.25 Z M11.140625,12.859375 L11.140625,10.578125 L6.265625,10.578125 L6.265625,12.859375 Z M12.703125,12.859375 L17.640625,12.859375 L17.640625,10.578125 L12.703125,10.578125 Z M11.140625,9.890625 L11.140625,7.515625 L6.265625,7.515625 L6.265625,9.890625 Z M12.703125,9.890625 L17.640625,9.890625 L17.640625,7.515625 L12.703125,7.515625 Z" transform="translate(-0.0390625, 20.140625) scale(1, -1)"/>
</svg>