<svg height="22.515625" viewBox="0 0 24 22.515625" width="24" xmlns="http://www.w3.org/2000/svg">
<path d="M13.984375,2.453125 L13.875,2.046875 C16.921875,0.984375 19.078125,-0.390625 20.25,-1.578125 C21.890625,-2.859375 24.28125,0.671875 13.984375,2.453125 Z M8.6875,2.734375 C7.21875,1.375 4.078125,-0.53125 1.34375,-1.53125 L1.515625,-1.890625 C4.515625,-1.21875 7.75,0.171875 9.625,1.34375 C10.21875,1.171875 10.578125,1.21875 10.75,1.484375 Z M2.96875,16.0625 L2.96875,12.59375 C2.96875,11.5625 3.265625,11.234375 4.9375,11.234375 L7.25,11.234375 C10.5625,11.234375 11.25,11.5 11.25,12.125 C11.25,12.40625 11.109375,12.578125 10.609375,12.75 L10.53125,14.421875 L10.265625,14.421875 C10.0625,13.65625 9.859375,13.015625 9.703125,12.765625 C9.59375,12.625 9.484375,12.578125 9.234375,12.578125 C9,12.546875 8.234375,12.546875 7.34375,12.546875 L5.25,12.546875 C4.515625,12.546875 4.4375,12.59375 4.4375,12.890625 L4.4375,15.34375 L8.765625,15.34375 L8.765625,14.515625 L9,14.515625 C9.484375,14.515625 10.25,14.859375 10.265625,15 L10.265625,17.921875 C10.625,18.03125 10.9375,18.1875 11.0625,18.3125 L9.359375,19.65625 L8.5625,18.796875 L2.515625,18.796875 L2.734375,18.125 L8.765625,18.125 L8.765625,16.0625 L4.734375,16.0625 L2.96875,16.828125 Z M12.984375,16.0625 L12.984375,12.625 C12.984375,11.5625 13.265625,11.234375 15.046875,11.234375 L17.515625,11.234375 C21.046875,11.234375 21.71875,11.5 21.71875,12.125 C21.71875,12.40625 21.578125,12.578125 21.078125,12.75 L21,14.46875 L20.734375,14.46875 C20.515625,13.703125 20.28125,13.015625 20.140625,12.765625 C20.015625,12.625 19.921875,12.578125 19.703125,12.578125 C19.390625,12.546875 18.578125,12.546875 17.59375,12.546875 L15.34375,12.546875 C14.515625,12.546875 14.453125,12.59375 14.453125,12.890625 L14.453125,15.34375 L18.703125,15.34375 L18.703125,14.515625 L18.9375,14.515625 C19.421875,14.515625 20.1875,14.859375 20.203125,15 L20.203125,17.921875 C20.59375,18 20.90625,18.1875 21.03125,18.3125 L19.296875,19.65625 L18.5,18.796875 L12.4375,18.796875 L12.640625,18.125 L18.703125,18.125 L18.703125,16.0625 L14.734375,16.0625 L12.984375,16.828125 Z M14.421875,11.046875 L14.421875,8.1875 L9.34375,8.1875 L9.34375,10.25 C9.8125,10.296875 10.015625,10.515625 10.0625,10.796875 L7.78125,11.046875 L7.78125,8.1875 L2.546875,8.1875 L2.765625,7.46875 L7.78125,7.46875 L7.78125,4.109375 L1.3125,4.109375 L1.53125,3.4375 L22.03125,3.4375 C22.375,3.4375 22.609375,3.546875 22.6875,3.8125 C21.84375,4.53125 20.515625,5.5625 20.515625,5.5625 L19.375,4.109375 L15.984375,4.109375 L15.984375,7.46875 L21,7.46875 C21.328125,7.46875 21.578125,7.578125 21.625,7.84375 C20.859375,8.59375 19.578125,9.546875 19.578125,9.546875 L18.453125,8.1875 L15.984375,8.1875 L15.984375,10.25 C16.46875,10.296875 16.65625,10.515625 16.703125,10.796875 Z M9.34375,4.109375 L9.34375,7.46875 L14.421875,7.46875 L14.421875,4.109375 Z" transform="translate(-0.796875, 19.65625) scale(1, -1)"/>
</svg>