<svg height="21.75" viewBox="0 0 24 21.75" width="24" xmlns="http://www.w3.org/2000/svg">
<path d="M4.4375,19.6875 L4.15625,19.46875 C5.15625,18.53125 6.265625,16.9375 6.453125,15.640625 C8.109375,14.40625 9.484375,17.96875 4.4375,19.6875 Z M16.84375,19.890625 C15.9375,18.140625 14.8125,16.34375 13.921875,15.21875 L14.015625,15.140625 L11.1875,15.140625 C11.609375,16.421875 11.921875,17.734375 12.1875,19.0625 C12.671875,19.0625 13.015625,19.25 13.078125,19.609375 L10.4375,20.140625 C10.21875,18.453125 9.859375,16.78125 9.359375,15.140625 L2.46875,15.140625 L2.6875,14.46875 L9.125,14.46875 C8.765625,13.4375 8.328125,12.453125 7.796875,11.5 L1.078125,11.5 L1.296875,10.796875 L7.390625,10.796875 C5.90625,8.359375 3.796875,6.234375 0.84375,4.65625 L1.0625,4.34375 C3.453125,5.328125 5.359375,6.59375 6.859375,8.09375 L7.015625,7.578125 L14.65625,7.578125 L14.65625,4.609375 L7.828125,4.609375 L5.96875,5.421875 L5.96875,0 C5.96875,-1.34375 6.484375,-1.609375 9.046875,-1.609375 L13.46875,-1.609375 C19.296875,-1.609375 20.203125,-1.421875 20.203125,-0.578125 C20.203125,-0.265625 19.984375,-0.09375 19.390625,0.078125 L19.34375,3.046875 L19.015625,3.046875 C18.703125,1.65625 18.453125,0.625 18.21875,0.1875 C18.125,-0.078125 18,-0.140625 17.5625,-0.1875 C17.015625,-0.234375 15.484375,-0.265625 13.515625,-0.265625 L9.125,-0.265625 C7.65625,-0.265625 7.53125,-0.171875 7.53125,0.234375 L7.53125,3.90625 L14.65625,3.90625 L14.65625,2.6875 L14.875,2.6875 C15.40625,2.6875 16.203125,3.046875 16.21875,3.1875 L16.21875,7.375 C16.625,7.4375 16.96875,7.625 17.109375,7.796875 L15.265625,9.171875 L14.453125,8.296875 L7.078125,8.296875 C7.84375,9.09375 8.5,9.90625 9.078125,10.796875 L15.390625,10.796875 C17.046875,8.25 19.296875,6.265625 21.859375,5.015625 C22.015625,5.71875 22.609375,6.125 23.375,6.28125 L23.421875,6.578125 C21.03125,7.421875 18.578125,8.859375 16.703125,10.796875 L22.34375,10.796875 C22.6875,10.796875 22.921875,10.921875 22.984375,11.1875 C22.15625,11.921875 20.828125,12.9375 20.828125,12.9375 L19.6875,11.5 L16.0625,11.5 C15.28125,12.40625 14.640625,13.390625 14.15625,14.46875 L20.875,14.46875 C21.21875,14.46875 21.4375,14.59375 21.5,14.859375 C20.71875,15.578125 19.4375,16.5625 19.4375,16.5625 L18.3125,15.140625 L14.5,15.140625 C15.671875,15.953125 16.984375,17.1875 18.125,18.390625 C18.59375,18.28125 18.9375,18.453125 19.0625,18.671875 Z M10.921875,14.46875 L13.5625,14.46875 C13.9375,13.421875 14.40625,12.4375 14.953125,11.5 L9.5,11.5 C10.078125,12.453125 10.53125,13.4375 10.921875,14.46875 Z" transform="translate(-0.1328125, 20.140625) scale(1, -1)"/>
</svg>