<svg height="21.515625" viewBox="0 0 24 21.515625" width="24" xmlns="http://www.w3.org/2000/svg">
<path d="M14.8125,20.09375 L14.8125,16.515625 L9.078125,16.515625 L9.078125,19.25 C9.578125,19.34375 9.796875,19.53125 9.84375,19.875 L7.484375,20.09375 L7.484375,16.515625 L2.46875,16.515625 L2.65625,15.8125 L7.484375,15.8125 L7.484375,12.3125 L1.015625,12.3125 L1.21875,11.640625 L7.21875,11.640625 C6.03125,9.046875 3.5,6.484375 0.625,4.796875 L0.84375,4.4375 C2.90625,5.359375 4.84375,6.578125 6.453125,8.09375 L6.453125,0.4375 C6.453125,-1.078125 7.078125,-1.421875 9.765625,-1.421875 L14.25,-1.421875 C20.296875,-1.421875 21.3125,-1.25 21.3125,-0.4375 C21.3125,-0.09375 21.078125,0.046875 20.453125,0.21875 L20.359375,2.859375 L20.0625,2.859375 C19.75,1.578125 19.46875,0.640625 19.25,0.28125 C19.109375,0.09375 18.9375,0 18.5,-0.03125 C17.953125,-0.078125 16.25,-0.09375 14.328125,-0.09375 L9.8125,-0.09375 C8.1875,-0.09375 7.984375,0.046875 7.984375,0.59375 L7.984375,4.109375 L16.015625,4.109375 L16.015625,3.140625 L16.25,3.140625 C16.734375,3.140625 17.546875,3.484375 17.546875,3.625 L17.546875,7.828125 C17.71875,7.84375 17.875,7.890625 18.03125,7.96875 C19.21875,6.84375 20.59375,5.921875 22.0625,5.28125 C22.21875,6.046875 22.75,6.53125 23.40625,6.625 L23.421875,6.890625 C20.65625,7.6875 17.59375,9.4375 15.8125,11.640625 L22.34375,11.640625 C22.6875,11.640625 22.9375,11.765625 22.984375,12.03125 C22.15625,12.765625 20.78125,13.796875 20.78125,13.796875 L19.578125,12.3125 L16.375,12.3125 L16.375,15.8125 L21.078125,15.8125 C21.40625,15.8125 21.625,15.9375 21.703125,16.203125 C20.875,16.921875 19.5625,17.96875 19.5625,17.96875 L18.390625,16.515625 L16.375,16.515625 L16.375,19.25 C16.921875,19.34375 17.09375,19.53125 17.140625,19.875 Z M9.078125,12.3125 L9.078125,15.8125 L14.8125,15.8125 L14.8125,12.3125 Z M15.234375,11.640625 C15.625,10.890625 16.0625,10.203125 16.5625,9.546875 L15.796875,8.734375 L8.296875,8.734375 L7.46875,9.09375 C8.1875,9.890625 8.78125,10.734375 9.28125,11.640625 Z M16.015625,4.796875 L7.984375,4.796875 L7.984375,8.046875 L16.015625,8.046875 Z" transform="translate(-0.0234375, 20.09375) scale(1, -1)"/>
</svg>