<svg height="19.96875" viewBox="0 0 24 19.96875" width="24" xmlns="http://www.w3.org/2000/svg">
<path d="M3.640625,17.90625 L3.640625,1.65625 C3.640625,-0.453125 5.09375,-1.0625 7.921875,-1.0625 L17.65625,-1.0625 C21.84375,-1.0625 22.921875,-0.546875 22.921875,0.265625 C22.921875,0.625 22.65625,0.71875 21.796875,0.953125 L21.765625,5.421875 L21.484375,5.421875 C21.21875,4.015625 20.71875,1.921875 20.421875,1.265625 C20.0625,0.53125 19.390625,0.4375 17.546875,0.4375 L7.78125,0.4375 C6.125,0.4375 5.203125,0.625 5.203125,1.609375 L5.203125,9.703125 L17.875,9.703125 L17.875,7.921875 L18.09375,7.921875 C18.625,7.921875 19.421875,8.296875 19.4375,8.453125 L19.4375,16.796875 C19.984375,16.890625 20.40625,17.140625 20.59375,17.359375 L18.5,18.90625 L17.609375,17.90625 L5.515625,17.90625 L3.640625,18.703125 Z M17.875,10.421875 L5.203125,10.421875 L5.203125,17.1875 L17.875,17.1875 Z" transform="translate(-1.28125, 18.90625) scale(1, -1)"/>
</svg>