<svg height="21.625" viewBox="0 0 24 21.625" width="24" xmlns="http://www.w3.org/2000/svg">
<path d="M6.125,4.984375 L6.125,0.125 C6.125,-1.25 6.640625,-1.53125 9.265625,-1.53125 L13.734375,-1.53125 C19.6875,-1.53125 20.59375,-1.296875 20.59375,-0.484375 C20.59375,-0.171875 20.375,0 19.75,0.171875 L19.703125,2.96875 L19.390625,2.96875 C19.078125,1.65625 18.8125,0.703125 18.59375,0.265625 C18.453125,0.03125 18.359375,-0.046875 17.921875,-0.09375 C17.359375,-0.140625 15.796875,-0.140625 13.78125,-0.140625 L9.34375,-0.140625 C7.828125,-0.140625 7.6875,-0.046875 7.6875,0.359375 L7.6875,4.265625 L14.609375,4.265625 L14.609375,3.171875 L14.859375,3.171875 C15.34375,3.171875 16.109375,3.53125 16.125,3.671875 L16.125,7.828125 C16.53125,7.890625 16.875,8.09375 17.015625,8.25 L15.1875,9.59375 L14.40625,8.734375 L7.15625,8.734375 C7.984375,9.625 8.765625,10.578125 9.359375,11.59375 L15.1875,11.59375 C16.703125,8.5625 19.25,6.28125 22.0625,4.984375 C22.265625,5.765625 22.796875,6.234375 23.421875,6.34375 L23.46875,6.59375 C20.609375,7.4375 17.46875,9.28125 15.765625,11.59375 L22.3125,11.59375 C22.65625,11.59375 22.890625,11.71875 22.96875,11.96875 C22.109375,12.71875 20.734375,13.75 20.734375,13.75 L19.5625,12.265625 L16.125,12.265625 L16.125,15.71875 L21.078125,15.71875 C21.40625,15.71875 21.625,15.84375 21.703125,16.109375 C20.875,16.84375 19.5625,17.875 19.5625,17.875 L18.390625,16.421875 L16.125,16.421875 L16.125,19.25 C16.6875,19.34375 16.875,19.53125 16.921875,19.875 L14.546875,20.09375 L14.546875,16.421875 L9.234375,16.421875 L9.234375,19.25 C9.765625,19.34375 9.953125,19.53125 10.015625,19.875 L7.65625,20.09375 L7.65625,16.421875 L2.46875,16.421875 L2.65625,15.71875 L7.65625,15.71875 L7.65625,12.265625 L1.203125,12.265625 L1.421875,11.59375 L7.3125,11.59375 C5.96875,9 3.265625,6.1875 0.53125,4.390625 L0.765625,4.0625 C2.78125,5.0625 4.78125,6.4375 6.453125,8.046875 L14.609375,8.046875 L14.609375,4.984375 L7.96875,4.984375 L6.125,5.78125 Z M9.234375,12.265625 L9.234375,15.71875 L14.546875,15.71875 L14.546875,12.265625 Z" transform="translate(0, 20.09375) scale(1, -1)"/>
</svg>