<svg height="22.140625" viewBox="0 0 24 22.140625" width="24" xmlns="http://www.w3.org/2000/svg">
<path d="M7.109375,16.5625 L6.8125,16.4375 C7.46875,15.4375 8.15625,13.84375 8.1875,12.625 C9.625,11.28125 11.28125,14.421875 7.109375,16.5625 Z M11.15625,10.828125 L11.15625,7.890625 L6.390625,7.890625 L4.6875,8.6875 L4.6875,-0.28125 L4.921875,-0.28125 C5.5625,-0.28125 6.234375,0.078125 6.234375,0.234375 L6.234375,7.203125 L11.15625,7.203125 L11.15625,-1.984375 L11.453125,-1.984375 C12.046875,-1.984375 12.71875,-1.65625 12.71875,-1.4375 L12.71875,7.203125 L18.03125,7.203125 L18.03125,2.109375 C18.03125,1.75 17.921875,1.625 17.5,1.625 C16.984375,1.625 14.609375,1.796875 14.609375,1.796875 L14.609375,1.421875 C15.671875,1.296875 16.265625,1.078125 16.609375,0.8125 C16.921875,0.578125 17.046875,0.125 17.109375,-0.34375 C19.34375,-0.140625 19.609375,0.671875 19.609375,1.875 L19.609375,6.890625 C20.09375,6.984375 20.46875,7.171875 20.640625,7.375 L18.578125,8.875 L17.78125,7.890625 L12.71875,7.890625 L12.71875,9.953125 C13.265625,10.0625 13.46875,10.265625 13.515625,10.5625 Z M3.171875,13.515625 C3.28125,11.90625 2.5625,10.265625 1.734375,9.640625 C1.21875,9.3125 0.9375,8.8125 1.203125,8.296875 C1.515625,7.78125 2.375,7.875 2.90625,8.375 C3.484375,8.875 3.984375,9.9375 3.9375,11.453125 L20.453125,11.453125 C20.140625,10.609375 19.6875,9.546875 19.375,8.875 L19.65625,8.71875 C20.5,9.34375 21.71875,10.421875 22.375,11.140625 C22.84375,11.1875 23.109375,11.203125 23.28125,11.375 L21.453125,13.171875 L20.421875,12.125 L14.5625,12.125 C15.640625,13.171875 16.734375,14.46875 17.40625,15.484375 C17.90625,15.453125 18.1875,15.640625 18.3125,15.9375 L15.984375,16.609375 L21.546875,16.609375 C21.859375,16.609375 22.109375,16.734375 22.171875,16.96875 C21.359375,17.734375 19.984375,18.765625 19.984375,18.765625 L18.84375,17.296875 L12.75,17.296875 L12.75,19.3125 C13.296875,19.421875 13.484375,19.625 13.53125,19.921875 L11.15625,20.15625 L11.15625,17.296875 L2.015625,17.296875 L2.234375,16.609375 L15.71875,16.609375 C15.265625,15.265625 14.5625,13.4375 13.890625,12.125 L3.890625,12.125 C3.8125,12.546875 3.71875,13.015625 3.578125,13.515625 Z" transform="translate(-0.109375, 20.15625) scale(1, -1)"/>
</svg>