<svg height="21.8125" viewBox="0 0 24 21.8125" width="24" xmlns="http://www.w3.org/2000/svg">
<path d="M4.0625,11.921875 L3.703125,11.953125 C3.640625,10.109375 2.640625,8.921875 2.046875,8.546875 C0.625,7.65625 1.578125,6.34375 2.875,7.078125 C3.71875,7.53125 4.21875,8.546875 4.265625,9.953125 L20.09375,9.953125 C19.84375,9.171875 19.5625,8.1875 19.296875,7.5625 L19.609375,7.375 C20.328125,7.96875 21.3125,8.96875 21.859375,9.671875 C22.3125,9.703125 22.578125,9.75 22.75,9.90625 L21,11.640625 L19.984375,10.625 L4.25,10.625 C4.21875,11.046875 4.15625,11.46875 4.0625,11.921875 Z M16.703125,19.84375 L16.703125,16.703125 L14.765625,16.703125 L14.765625,19.015625 C15.34375,19.109375 15.578125,19.3125 15.625,19.65625 L13.296875,19.921875 L13.296875,16.703125 L10.484375,16.703125 L10.484375,19.015625 C11.0625,19.109375 11.296875,19.3125 11.359375,19.65625 L9.03125,19.921875 L9.03125,16.703125 L7.015625,16.703125 L7.015625,18.953125 C7.5625,19.0625 7.734375,19.265625 7.78125,19.578125 L5.515625,19.828125 L5.515625,16.78125 L5.515625,16.703125 L1.34375,16.703125 L1.53125,15.984375 L5.46875,15.984375 C5.28125,14.28125 4.34375,12.640625 1.4375,11.546875 L1.6875,11.203125 C2.453125,11.421875 3.125,11.65625 3.703125,11.953125 C5.96875,13.03125 6.75,14.5 6.953125,15.984375 L9.03125,15.984375 L9.03125,11.359375 L9.3125,11.359375 C9.859375,11.359375 10.484375,11.65625 10.484375,11.859375 L10.484375,12.640625 L13.296875,12.640625 L13.296875,11.59375 L13.578125,11.59375 C14.140625,11.59375 14.765625,11.875 14.765625,12.078125 L14.765625,15.984375 L16.703125,15.984375 L16.703125,13.421875 C16.703125,12.453125 16.921875,12.078125 18.265625,12.078125 L19.53125,12.078125 C21.703125,12.078125 22.3125,12.34375 22.3125,12.9375 C22.3125,13.21875 22.171875,13.390625 21.71875,13.5625 L21.640625,15.125 L21.390625,15.125 C21.21875,14.453125 21,13.75 20.859375,13.5625 C20.78125,13.4375 20.6875,13.4375 20.546875,13.421875 C20.40625,13.421875 20.015625,13.421875 19.625,13.421875 L18.640625,13.421875 C18.234375,13.421875 18.1875,13.484375 18.1875,13.75 L18.1875,15.984375 L22.3125,15.984375 C22.65625,15.984375 22.890625,16.109375 22.9375,16.375 C22.25,17.09375 21.078125,18.125 21.078125,18.125 L20.015625,16.703125 L18.1875,16.703125 L18.1875,19.015625 C18.578125,19.078125 18.8125,19.296875 18.84375,19.578125 Z M10.484375,15.984375 L13.296875,15.984375 L13.296875,13.375 L10.484375,13.375 Z M11.15625,9.4375 L11.15625,6.953125 L6.9375,6.953125 L5.25,7.734375 L5.25,-0.765625 L5.5,-0.765625 C6.125,-0.765625 6.796875,-0.4375 6.796875,-0.265625 L6.796875,6.265625 L11.15625,6.265625 L11.15625,-1.890625 L11.453125,-1.890625 C12.03125,-1.890625 12.703125,-1.53125 12.703125,-1.375 L12.703125,6.265625 L17.5,6.265625 L17.5,1.625 C17.5,1.296875 17.375,1.171875 16.96875,1.171875 C16.46875,1.171875 14.359375,1.3125 14.359375,1.3125 L14.359375,0.953125 C15.3125,0.84375 15.890625,0.640625 16.203125,0.4375 C16.484375,0.21875 16.578125,-0.140625 16.65625,-0.578125 C18.796875,-0.359375 19.0625,0.3125 19.0625,1.421875 L19.0625,5.921875 C19.5625,6.03125 19.96875,6.234375 20.109375,6.4375 L18.078125,7.9375 L17.234375,6.953125 L12.703125,6.953125 L12.703125,8.59375 C13.25,8.6875 13.4375,8.875 13.484375,9.1875 Z" transform="translate(0.21875, 19.921875) scale(1, -1)"/>
</svg>