<svg height="21.890625" viewBox="0 0 24 21.890625" width="24" xmlns="http://www.w3.org/2000/svg">
<path d="M12.703125,5.515625 L19.984375,5.515625 L19.984375,3.234375 L12.703125,3.234375 Z M12.703125,6.21875 L12.703125,8.5625 L19.984375,8.5625 L19.984375,6.21875 Z M12.703125,2.546875 L19.984375,2.546875 L19.984375,0.21875 L12.703125,0.21875 Z M11.1875,9.234375 L11.1875,-1.875 L11.421875,-1.875 C12.21875,-1.875 12.703125,-1.515625 12.703125,-1.375 L12.703125,-0.5 L19.984375,-0.5 L19.984375,-1.75 L20.234375,-1.75 C20.96875,-1.75 21.546875,-1.375 21.546875,-1.265625 L21.546875,8.421875 C22.0625,8.5 22.3125,8.65625 22.484375,8.828125 L20.71875,10.21875 L19.890625,9.234375 L12.984375,9.234375 L11.1875,10.03125 Z M12.046875,14.78125 L20.640625,14.78125 L20.640625,12.234375 L12.046875,12.234375 Z M12.046875,15.484375 L12.046875,18.03125 L20.640625,18.03125 L20.640625,15.484375 Z M10.53125,18.71875 L10.53125,10.4375 L10.78125,10.4375 C11.5625,10.4375 12.046875,10.78125 12.046875,10.921875 L12.046875,11.546875 L20.640625,11.546875 L20.640625,10.6875 L20.875,10.6875 C21.59375,10.6875 22.171875,11.046875 22.171875,11.140625 L22.171875,17.921875 C22.65625,18 22.890625,18.140625 23.0625,18.3125 L21.3125,19.65625 L20.546875,18.71875 L12.34375,18.71875 L10.53125,19.484375 Z M1.75,15.984375 L1.75,2.921875 L1.984375,2.921875 C2.59375,2.921875 3.140625,3.28125 3.140625,3.4375 L3.140625,15.265625 L4.6875,15.265625 L4.6875,-1.828125 L4.890625,-1.828125 C5.515625,-1.828125 6.03125,-1.4375 6.046875,-1.3125 L6.046875,15.265625 L7.75,15.265625 L7.75,5.515625 C7.75,5.234375 7.703125,5.140625 7.46875,5.140625 C7.21875,5.140625 6.28125,5.203125 6.28125,5.203125 L6.28125,4.828125 C6.796875,4.734375 7.0625,4.578125 7.25,4.375 C7.421875,4.125 7.46875,3.75 7.46875,3.359375 C8.96875,3.53125 9.125,4.15625 9.125,5.328125 L9.125,15 C9.59375,15.09375 10.015625,15.265625 10.171875,15.453125 L8.25,16.890625 L7.515625,15.984375 L6.125,15.984375 L6.125,19.125 C6.75,19.21875 6.953125,19.4375 6.984375,19.78125 L4.609375,20.015625 L4.609375,15.984375 L3.265625,15.984375 L1.75,16.703125 Z" transform="translate(-0.40625, 20.015625) scale(1, -1)"/>
</svg>