<svg height="21.9375" viewBox="0 0 24 21.9375" width="24" xmlns="http://www.w3.org/2000/svg">
<path d="M8.359375,14.15625 L8.015625,14.015625 C8.546875,13.25 9.078125,12 9.125,11.046875 C10.15625,10.078125 11.359375,12.265625 8.359375,14.15625 Z M9.1875,19.109375 L8.96875,18.859375 C9.796875,18.390625 10.796875,17.546875 11.421875,16.78125 L11.203125,16.921875 L10.484375,16.03125 L7.890625,16.03125 L7.890625,19.203125 C8.46875,19.296875 8.65625,19.484375 8.71875,19.828125 L6.4375,20.0625 L6.4375,16.03125 L3.71875,16.03125 L2.96875,16.390625 C3.8125,16.96875 4.53125,17.609375 5.015625,18.1875 C5.546875,18.09375 5.765625,18.1875 5.875,18.40625 L3.90625,19.46875 C3.3125,18.28125 2.046875,16.578125 0.796875,15.53125 L1.0625,15.21875 C1.46875,15.40625 1.875,15.640625 2.25,15.890625 L2.25,7.6875 L2.5,7.6875 C3.03125,7.6875 3.59375,8.015625 3.59375,8.15625 L3.59375,15.34375 L6.53125,15.34375 L6.53125,13.796875 L4.890625,14.203125 C4.734375,12.796875 4.34375,11.296875 3.890625,10.296875 L4.265625,10.109375 C4.984375,10.875 5.5625,12.078125 5.953125,13.265625 C6.21875,13.265625 6.40625,13.34375 6.53125,13.4375 L6.53125,8.015625 L6.71875,8.015625 C7.3125,8.015625 7.78125,8.375 7.796875,8.46875 L7.796875,15.34375 L10.734375,15.34375 L10.734375,10.125 C10.734375,9.84375 10.65625,9.75 10.34375,9.75 C10.03125,9.75 8.765625,9.84375 8.765625,9.84375 L8.765625,9.453125 C9.359375,9.359375 9.71875,9.1875 9.953125,8.96875 C10.203125,8.765625 10.25,8.375 10.265625,7.96875 C11.875,8.140625 12.078125,8.828125 12.078125,9.984375 L12.078125,15.078125 C12.546875,15.125 12.953125,15.34375 13.109375,15.5 L12.359375,16.0625 C13.53125,16.109375 13.53125,18.546875 9.1875,19.109375 Z M11.15625,8.109375 L11.15625,6.359375 L6.21875,6.359375 L4.515625,7.15625 L4.515625,-1.0625 L4.75,-1.0625 C5.40625,-1.0625 6.046875,-0.703125 6.046875,-0.546875 L6.046875,5.65625 L11.15625,5.65625 L11.15625,-1.875 L11.453125,-1.875 C12.03125,-1.875 12.71875,-1.53125 12.71875,-1.34375 L12.71875,5.65625 L17.921875,5.65625 L17.921875,1.25 C17.921875,0.9375 17.8125,0.8125 17.421875,0.8125 C16.921875,0.8125 14.828125,0.953125 14.828125,0.953125 L14.828125,0.59375 C15.796875,0.453125 16.3125,0.265625 16.625,0.03125 C16.921875,-0.1875 17.046875,-0.578125 17.09375,-1.015625 C19.21875,-0.8125 19.484375,-0.09375 19.484375,1.078125 L19.484375,5.328125 C19.96875,5.453125 20.375,5.640625 20.546875,5.828125 L18.484375,7.375 L17.65625,6.359375 L12.71875,6.359375 L12.71875,7.25 C13.25,7.34375 13.46875,7.5625 13.515625,7.84375 Z M15.53125,20.0625 C14.921875,17.234375 13.703125,14.65625 12.3125,13.03125 L12.671875,12.765625 C13.515625,13.390625 14.296875,14.203125 15,15.1875 C15.453125,13.796875 16.03125,12.546875 16.796875,11.46875 C15.703125,10.375 14.234375,9.453125 12.34375,8.6875 L12.484375,8.296875 C14.5,8.90625 16.125,9.671875 17.453125,10.65625 C18.53125,9.40625 19.984375,8.421875 21.953125,7.703125 C22.109375,8.46875 22.5625,8.875 23.140625,9.046875 L23.203125,9.28125 C21.1875,9.765625 19.625,10.515625 18.40625,11.5 C19.625,12.703125 20.46875,14.1875 20.96875,16.03125 L22.4375,16.03125 C22.78125,16.03125 23.015625,16.15625 23.0625,16.421875 C22.3125,17.109375 21.09375,18.125 21.09375,18.125 L20.015625,16.703125 L15.9375,16.703125 C16.296875,17.40625 16.625,18.140625 16.921875,18.9375 C17.421875,18.90625 17.71875,19.125 17.8125,19.390625 Z M17.5,12.3125 C16.578125,13.265625 15.890625,14.40625 15.359375,15.71875 L15.546875,16.03125 L19.25,16.03125 C18.90625,14.609375 18.34375,13.375 17.5,12.3125 Z" transform="translate(0, 20.0625) scale(1, -1)"/>
</svg>