<svg height="21.6875" viewBox="0 0 24 21.6875" width="24" xmlns="http://www.w3.org/2000/svg">
<path d="M4.703125,16.078125 L4.375,15.9375 C5.421875,14.25 6.671875,11.65625 6.8125,9.671875 C8.515625,8.0625 10.0625,12.1875 4.703125,16.078125 Z M18,16.125 C17.109375,13.6875 15.90625,10.984375 14.921875,9.34375 L15.265625,9.09375 C16.75,10.515625 18.3125,12.640625 19.515625,14.765625 C20.015625,14.71875 20.296875,14.921875 20.40625,15.171875 Z M2.28125,18.28125 L2.46875,17.59375 L11.203125,17.59375 L11.203125,7.78125 L1.015625,7.78125 L1.21875,7.078125 L11.203125,7.078125 L11.203125,-1.890625 L11.453125,-1.890625 C12.265625,-1.890625 12.796875,-1.484375 12.796875,-1.34375 L12.796875,7.078125 L22.34375,7.078125 C22.703125,7.078125 22.9375,7.203125 22.984375,7.4375 C22.125,8.234375 20.734375,9.28125 20.734375,9.28125 L19.484375,7.78125 L12.796875,7.78125 L12.796875,17.59375 L21.3125,17.59375 C21.625,17.59375 21.859375,17.71875 21.9375,17.96875 C21.078125,18.75 19.6875,19.796875 19.6875,19.796875 L18.4375,18.28125 Z" transform="translate(0, 19.796875) scale(1, -1)"/>
</svg>