<svg height="21.953125" viewBox="0 0 24 21.953125" width="24" xmlns="http://www.w3.org/2000/svg">
<path d="M3.390625,16.4375 L3.390625,10.484375 C3.390625,6.359375 3.171875,1.9375 0.9375,-1.609375 L1.296875,-1.84375 C4.703125,1.625 4.9375,6.671875 4.9375,10.515625 L4.9375,15.71875 L22.21875,15.71875 C22.578125,15.71875 22.828125,15.84375 22.890625,16.109375 C22.0625,16.875 20.734375,17.921875 20.734375,17.921875 L19.5625,16.4375 L13.375,16.4375 L13.375,19.21875 C13.9375,19.3125 14.1875,19.5625 14.234375,19.890625 L11.78125,20.109375 L11.78125,16.4375 L5.234375,16.4375 L3.390625,17.234375 Z" transform="translate(0.0859375, 20.109375) scale(1, -1)"/>
</svg>