<svg height="22" viewBox="0 0 24 22" width="24" xmlns="http://www.w3.org/2000/svg">
<path d="M12.90625,14.953125 L12.90625,10.875 L5.640625,10.875 L5.828125,10.171875 L11.96875,10.171875 C10.515625,6.3125 7.890625,2.65625 4.375,0.140625 L4.625,-0.21875 C8.328125,1.890625 11.140625,4.78125 12.90625,8.203125 L12.90625,-1.890625 L13.203125,-1.890625 C13.78125,-1.890625 14.453125,-1.53125 14.453125,-1.3125 L14.453125,9.640625 C16.109375,5.546875 18.8125,2.234375 21.703125,0.3125 C21.953125,1.0625 22.515625,1.515625 23.15625,1.609375 L23.203125,1.84375 C20.09375,3.359375 16.6875,6.578125 14.78125,10.171875 L22.03125,10.171875 C22.375,10.171875 22.609375,10.296875 22.6875,10.53125 C21.890625,11.28125 20.65625,12.265625 20.65625,12.265625 L19.578125,10.875 L14.453125,10.875 L14.453125,13.984375 C15.078125,14.09375 15.28125,14.328125 15.359375,14.65625 Z M3.28125,16.609375 L3.28125,10.734375 C3.28125,6.53125 3.078125,2.0625 0.859375,-1.5625 L1.203125,-1.828125 C4.578125,1.75 4.828125,6.859375 4.828125,10.75 L4.828125,15.890625 L22.375,15.890625 C22.703125,15.890625 22.9375,16.015625 22.984375,16.265625 C22.171875,17.046875 20.859375,18.09375 20.859375,18.09375 L19.6875,16.609375 L13.34375,16.609375 L13.34375,19.21875 C13.921875,19.3125 14.1875,19.5625 14.203125,19.890625 L11.78125,20.109375 L11.78125,16.609375 L5.109375,16.609375 L3.28125,17.40625 Z" transform="translate(-0.03125, 20.109375) scale(1, -1)"/>
</svg>