<svg height="23.0625" viewBox="0 0 24 23.0625" width="24" xmlns="http://www.w3.org/2000/svg">
<path d="M4.65625,1.125 L5.59375,-1.0625 C5.8125,-1.015625 6.046875,-0.84375 6.1875,-0.546875 C11.921875,0.40625 16.15625,1.203125 19.34375,1.890625 C19.9375,0.796875 20.40625,-0.3125 20.59375,-1.296875 C22.703125,-2.953125 23.90625,2.421875 15.75,7.34375 L15.4375,7.15625 C16.65625,5.875 18.03125,4.125 19.078125,2.375 C15.5,2.015625 12.125,1.6875 9.390625,1.46875 C11.25,5.046875 12.9375,9.484375 13.84375,12.71875 C14.375,12.75 14.65625,13.015625 14.734375,13.3125 L12,13.828125 C11.328125,10.15625 10.0625,5.203125 8.765625,1.421875 C7.03125,1.265625 5.609375,1.15625 4.65625,1.125 Z M3.703125,16.296875 L3.703125,11.953125 C3.703125,7.53125 3.359375,2.546875 0.84375,-1.625 L1.171875,-1.875 C4.9375,2.203125 5.25,7.984375 5.25,11.96875 L5.25,15.578125 L22.3125,15.578125 C22.6875,15.578125 22.921875,15.703125 22.984375,15.953125 C22.15625,16.734375 20.8125,17.78125 20.8125,17.78125 L19.65625,16.296875 L13.375,16.296875 L13.375,19.21875 C13.9375,19.3125 14.1875,19.5625 14.234375,19.890625 L11.78125,20.109375 L11.78125,16.296875 L5.546875,16.296875 L3.703125,17.09375 Z" transform="translate(-0.375, 20.109375) scale(1, -1)"/>
</svg>