<svg height="22.03125" viewBox="0 0 24 22.03125" width="24" xmlns="http://www.w3.org/2000/svg">
<path d="M9.390625,15.84375 C8.421875,12.4375 6.71875,9.21875 5.046875,7.21875 L5.375,6.984375 C6.9375,8.203125 8.375,9.984375 9.578125,12.078125 L19.390625,12.078125 C19.265625,7.21875 19.015625,4.890625 18.5,4.421875 C18.34375,4.21875 18.171875,4.203125 17.8125,4.203125 C17.40625,4.203125 16.34375,4.265625 15.671875,4.3125 L15.671875,3.90625 C16.265625,3.8125 16.875,3.625 17.140625,3.40625 C17.40625,3.171875 17.453125,2.765625 17.453125,2.328125 C18.265625,2.296875 19.015625,2.546875 19.5625,3.078125 C20.40625,3.890625 20.765625,6.3125 20.90625,11.875 C21.390625,11.953125 21.640625,12.046875 21.8125,12.234375 L20.046875,13.734375 L19.171875,12.765625 L9.9375,12.765625 C10.25,13.34375 10.53125,13.96875 10.796875,14.59375 C11.296875,14.546875 11.59375,14.765625 11.71875,15.046875 Z M8.515625,9.90625 L8.734375,9.1875 L14.109375,9.1875 L14.109375,5.71875 L10.109375,5.71875 L8.296875,6.484375 L8.296875,0.265625 C8.296875,-1.125 8.828125,-1.421875 11.421875,-1.421875 L15.890625,-1.421875 C21.8125,-1.421875 22.75,-1.203125 22.75,-0.359375 C22.75,-0.046875 22.53125,0.09375 21.90625,0.28125 L21.859375,3.171875 L21.546875,3.171875 C21.265625,1.828125 21,0.8125 20.765625,0.390625 C20.640625,0.140625 20.5,0.078125 20.0625,0.03125 C19.515625,-0.03125 17.96875,-0.046875 15.9375,-0.046875 L11.46875,-0.046875 C9.953125,-0.046875 9.8125,0.078125 9.8125,0.5 L9.8125,4.984375 L14.109375,4.984375 L14.109375,3.8125 L14.359375,3.8125 C14.859375,3.8125 15.625,4.15625 15.640625,4.296875 L15.640625,8.96875 C16.03125,9.046875 16.390625,9.234375 16.53125,9.40625 L14.71875,10.75 L13.890625,9.90625 Z M3.3125,16.75 L3.3125,10.796875 C3.3125,6.59375 3.140625,2.046875 1.015625,-1.65625 L1.375,-1.921875 C4.65625,1.734375 4.84375,6.9375 4.84375,10.828125 L4.84375,16.0625 L22.375,16.0625 C22.703125,16.0625 22.9375,16.171875 23.015625,16.4375 C22.203125,17.1875 20.875,18.234375 20.875,18.234375 L19.6875,16.75 L13.3125,16.75 L13.3125,19.203125 C13.890625,19.296875 14.140625,19.53125 14.1875,19.875 L11.765625,20.109375 L11.765625,16.75 L5.15625,16.75 L3.3125,17.546875 Z" transform="translate(-0.015625, 20.109375) scale(1, -1)"/>
</svg>