<svg height="22.03125" viewBox="0 0 24 22.03125" width="24" xmlns="http://www.w3.org/2000/svg">
<path d="M9.390625,15.8125 C8.453125,12.40625 6.75,9.21875 5.0625,7.21875 L5.40625,6.953125 C6.359375,7.75 7.296875,8.71875 8.140625,9.859375 L8.140625,0.453125 C8.140625,-1.078125 8.8125,-1.421875 11.453125,-1.421875 L15.890625,-1.421875 C21.859375,-1.421875 22.875,-1.21875 22.875,-0.390625 C22.875,-0.046875 22.6875,0.09375 22.015625,0.28125 L21.953125,3.078125 L21.671875,3.078125 C21.359375,1.734375 21.078125,0.75 20.828125,0.390625 C20.6875,0.171875 20.515625,0.078125 20.09375,0.03125 C19.53125,-0.03125 17.953125,-0.046875 15.953125,-0.046875 L11.5,-0.046875 C9.859375,-0.046875 9.640625,0.140625 9.640625,0.703125 L9.640625,4.96875 L13.9375,4.96875 L13.9375,3.703125 L14.1875,3.703125 C14.65625,3.703125 15.4375,4.03125 15.4375,4.171875 L15.4375,8.953125 C15.84375,9.03125 16.203125,9.21875 16.34375,9.390625 L14.546875,10.703125 L13.734375,9.859375 L9.953125,9.859375 L8.5625,10.46875 C8.921875,10.96875 9.265625,11.515625 9.578125,12.078125 L19.390625,12.078125 C19.265625,7.21875 19.015625,4.890625 18.53125,4.421875 C18.359375,4.25 18.1875,4.203125 17.828125,4.203125 C17.421875,4.203125 16.421875,4.265625 15.765625,4.34375 L15.765625,3.90625 C16.375,3.8125 16.9375,3.640625 17.1875,3.40625 C17.453125,3.1875 17.5,2.78125 17.5,2.359375 C18.3125,2.328125 19.03125,2.5625 19.578125,3.078125 C20.40625,3.890625 20.765625,6.28125 20.90625,11.875 C21.390625,11.953125 21.640625,12.046875 21.796875,12.234375 L20.015625,13.703125 L19.171875,12.765625 L9.953125,12.765625 C10.25,13.34375 10.53125,13.96875 10.796875,14.59375 C11.296875,14.546875 11.59375,14.765625 11.71875,15.03125 Z M13.9375,5.65625 L9.640625,5.65625 L9.640625,9.140625 L13.9375,9.140625 Z M3.3125,16.75 L3.3125,10.78125 C3.3125,6.578125 3.140625,2.015625 1.015625,-1.65625 L1.375,-1.921875 C4.65625,1.703125 4.84375,6.90625 4.84375,10.796875 L4.84375,16.0625 L22.375,16.0625 C22.703125,16.0625 22.9375,16.171875 22.984375,16.4375 C22.171875,17.1875 20.859375,18.234375 20.859375,18.234375 L19.6875,16.75 L13.3125,16.75 L13.3125,19.203125 C13.890625,19.296875 14.140625,19.53125 14.1875,19.875 L11.765625,20.109375 L11.765625,16.75 L5.15625,16.75 L3.3125,17.546875 Z" transform="translate(0, 20.109375) scale(1, -1)"/>
</svg>