<svg height="21.9375" viewBox="0 0 24 21.9375" width="24" xmlns="http://www.w3.org/2000/svg">
<path d="M7.296875,5.78125 L7.84375,6.578125 L7.078125,6.84375 L6.859375,5.953125 C6.34375,5.359375 5.375,4.46875 4.828125,3.984375 L5.953125,2.859375 C6.078125,3 6.125,3.171875 5.96875,3.390625 C6.265625,3.84375 6.71875,4.65625 7.03125,5.28125 C7.3125,4.390625 7.609375,3.59375 7.9375,2.921875 C6.953125,1.15625 5.515625,-0.359375 3.484375,-1.515625 L3.671875,-1.875 C5.875,-0.953125 7.46875,0.28125 8.609375,1.75 C10.25,-0.671875 12.59375,-1.25 16.265625,-1.25 C17.734375,-1.25 20.875,-1.25 22.21875,-1.25 C22.265625,-0.625 22.578125,-0.140625 23.15625,-0.078125 L23.15625,0.28125 C21.484375,0.234375 17.90625,0.234375 16.375,0.234375 C12.984375,0.234375 10.6875,0.59375 9.078125,2.40625 C10.171875,4.03125 10.796875,5.875 11.234375,7.875 C11.59375,7.890625 11.828125,7.9375 11.96875,8.0625 L16.171875,8.0625 L16.171875,3.140625 L11.96875,3.140625 L12.140625,2.46875 L22.03125,2.46875 C22.375,2.46875 22.609375,2.59375 22.6875,2.828125 C21.9375,3.546875 20.71875,4.515625 20.71875,4.515625 L19.65625,3.140625 L17.65625,3.140625 L17.65625,8.0625 L22.34375,8.0625 C22.6875,8.0625 22.921875,8.1875 22.96875,8.453125 C22.21875,9.140625 21.03125,10.125 21.03125,10.125 L19.9375,8.78125 L17.65625,8.78125 L17.65625,12.890625 C18.890625,13.125 20.046875,13.390625 20.953125,13.625 C21.484375,13.4375 21.859375,13.4375 22.078125,13.609375 L20.421875,15.125 C18.53125,14.203125 14.828125,13.109375 11.78125,12.546875 L11.90625,12.125 C13.296875,12.21875 14.78125,12.40625 16.171875,12.625 L16.171875,8.78125 L11.765625,8.78125 L11.859375,8.453125 L10.46875,9.671875 L9.53125,8.765625 L7.921875,8.765625 C8.78125,10.21875 9.671875,11.8125 10.203125,12.796875 C10.703125,12.84375 11.15625,12.9375 11.328125,13.125 L9.625,14.6875 L8.734375,13.78125 L5.359375,13.78125 L5.5625,13.078125 L8.640625,13.078125 C7.796875,11.421875 6.546875,9.125 5.46875,7.3125 C6.078125,7.03125 6.53125,6.984375 6.90625,7.078125 L7.484375,8.046875 L9.625,8.046875 C9.359375,6.4375 8.921875,4.921875 8.25,3.546875 C7.890625,4.171875 7.578125,4.921875 7.296875,5.78125 Z M3.21875,16.984375 L3.21875,11.015625 C3.21875,6.765625 3.078125,2.15625 1.03125,-1.5625 L1.390625,-1.796875 C4.578125,1.84375 4.78125,7.125 4.78125,11.015625 L4.78125,16.296875 L22.21875,16.296875 C22.5625,16.296875 22.78125,16.421875 22.84375,16.6875 C22.03125,17.453125 20.71875,18.484375 20.71875,18.484375 L19.5625,16.984375 L13.3125,16.984375 L13.3125,19.15625 C13.890625,19.25 14.140625,19.484375 14.1875,19.828125 L11.765625,20.0625 L11.765625,16.984375 L5.0625,16.984375 L3.21875,17.8125 Z" transform="translate(-0.09375, 20.0625) scale(1, -1)"/>
</svg>