<svg height="22.09375" viewBox="0 0 24 22.09375" width="24" xmlns="http://www.w3.org/2000/svg">
<path d="M4.109375,0.671875 L5.1875,-1.25 C5.421875,-1.171875 5.609375,-0.953125 5.6875,-0.703125 C8.359375,0.4375 10.390625,1.375 11.921875,2.109375 C12.3125,1.390625 12.578125,0.671875 12.671875,0.03125 C14.28125,-1.296875 15.578125,2.515625 10.125,5.109375 L9.84375,4.921875 C10.46875,4.296875 11.140625,3.453125 11.65625,2.546875 L7.609375,1.484375 L7.609375,6.53125 L12.1875,6.53125 L12.1875,5.46875 L12.4375,5.46875 C12.90625,5.46875 13.6875,5.8125 13.6875,5.953125 L13.6875,12.3125 C14.109375,12.40625 14.5,12.59375 14.640625,12.765625 L12.8125,14.15625 L11.96875,13.265625 L10.4375,13.265625 L10.4375,15.171875 C10.96875,15.265625 11.1875,15.484375 11.234375,15.796875 L9.03125,16.03125 L9.03125,13.265625 L7.703125,13.265625 L6.171875,13.984375 L6.171875,1.125 C5.296875,0.90625 4.609375,0.765625 4.109375,0.671875 Z M12.1875,12.578125 L12.1875,10.265625 L7.609375,10.265625 L7.609375,12.578125 Z M7.609375,9.546875 L12.1875,9.546875 L12.1875,7.21875 L7.609375,7.21875 Z M15.4375,14.359375 L15.4375,-1.984375 L15.703125,-1.984375 C16.375,-1.984375 16.890625,-1.625 16.890625,-1.4375 L16.890625,13.625 L20.25,13.625 C19.84375,12 19.171875,9.640625 18.75,8.375 C20.375,6.84375 21.125,5.375 21.125,3.75 C21.125,2.96875 20.953125,2.609375 20.640625,2.375 C20.46875,2.28125 20.328125,2.25 20.0625,2.25 C19.6875,2.25 18.703125,2.25 18.21875,2.25 L18.21875,1.890625 C18.75,1.796875 19.203125,1.6875 19.390625,1.515625 C19.578125,1.3125 19.6875,0.84375 19.6875,0.40625 C21.90625,0.5 22.6875,1.390625 22.6875,3.453125 C22.6875,5.1875 21.671875,6.859375 19.34375,8.453125 C20.1875,9.671875 21.3125,12 21.9375,13.265625 C22.46875,13.296875 22.78125,13.34375 22.96875,13.53125 L21.1875,15.34375 L20.1875,14.359375 L17.015625,14.359375 L15.4375,15.09375 Z M3,17.453125 L3,11.328125 C3,7.015625 2.8125,2.359375 0.75,-1.4375 L1.109375,-1.6875 C4.34375,2.046875 4.515625,7.34375 4.515625,11.359375 L4.515625,16.734375 L22.375,16.734375 C22.703125,16.734375 22.9375,16.84375 23.015625,17.109375 C22.203125,17.875 20.875,18.90625 20.875,18.90625 L19.734375,17.453125 L13.296875,17.453125 L13.296875,19.21875 C13.875,19.296875 14.109375,19.53125 14.15625,19.875 L11.765625,20.109375 L11.765625,17.453125 L4.796875,17.453125 L3,18.234375 Z" transform="translate(0.1171875, 20.109375) scale(1, -1)"/>
</svg>