<svg height="22.9375" viewBox="0 0 24 22.9375" width="24" xmlns="http://www.w3.org/2000/svg">
<path d="M14.921875,1.375 L14.8125,0.984375 C17.40625,0.1875 19.390625,-0.796875 20.5,-1.703125 C22.171875,-2.875 24.9375,0.359375 14.921875,1.375 Z M10.609375,1.703125 C9.234375,0.640625 6.453125,-0.75 3.953125,-1.46875 L4.109375,-1.84375 C6.796875,-1.484375 9.703125,-0.625 11.421875,0.1875 C12,0.03125 12.390625,0.046875 12.546875,0.265625 Z M8.609375,4.609375 L12.59375,4.609375 L12.59375,2.59375 L8.609375,2.59375 Z M8.609375,5.296875 L8.609375,7.265625 L12.59375,7.265625 L12.59375,5.296875 Z M18.125,4.609375 L18.125,2.59375 L14.140625,2.59375 L14.140625,4.609375 Z M18.125,5.296875 L14.140625,5.296875 L14.140625,7.265625 L18.125,7.265625 Z M4.890625,10.203125 L5.09375,9.484375 L12.59375,9.484375 L12.59375,7.984375 L8.765625,7.984375 L7.125,8.734375 L7.125,0.84375 L7.34375,0.84375 C7.96875,0.84375 8.609375,1.171875 8.609375,1.34375 L8.609375,1.921875 L18.125,1.921875 L18.125,1.109375 L18.359375,1.109375 C18.859375,1.109375 19.65625,1.46875 19.6875,1.609375 L19.6875,7.15625 C20.046875,7.203125 20.359375,7.34375 20.46875,7.515625 L18.75,8.859375 L17.953125,7.984375 L14.140625,7.984375 L14.140625,9.484375 L22.15625,9.484375 C22.484375,9.484375 22.734375,9.59375 22.796875,9.859375 C21.984375,10.578125 20.734375,11.59375 20.734375,11.59375 L19.625,10.203125 Z M5.5625,14.515625 L5.765625,13.828125 L9.8125,13.828125 L9.8125,10.578125 L10.125,10.578125 C10.6875,10.578125 11.328125,10.875 11.328125,11.046875 L11.328125,11.46875 L15.34375,11.46875 L15.34375,10.65625 L15.640625,10.65625 C16.21875,10.65625 16.890625,10.9375 16.890625,11.109375 L16.890625,13.828125 L21.578125,13.828125 C21.90625,13.828125 22.125,13.9375 22.203125,14.203125 C21.453125,14.90625 20.234375,15.84375 20.234375,15.84375 L19.203125,14.515625 L16.890625,14.515625 L16.890625,15.484375 C17.328125,15.578125 17.515625,15.765625 17.5625,16.03125 L15.34375,16.265625 L15.34375,14.515625 L11.328125,14.515625 L11.328125,15.453125 C11.8125,15.546875 11.96875,15.75 12.03125,16.015625 L9.8125,16.25 L9.8125,14.515625 Z M11.328125,12.171875 L11.328125,13.828125 L15.34375,13.828125 L15.34375,12.171875 Z M3.28125,17.28125 L3.28125,11.1875 C3.28125,6.859375 3.09375,2.25 0.890625,-1.484375 L1.265625,-1.75 C4.609375,1.9375 4.828125,7.203125 4.828125,11.203125 L4.828125,16.578125 L22.21875,16.578125 C22.5625,16.578125 22.796875,16.703125 22.875,16.9375 C22.0625,17.71875 20.765625,18.71875 20.765625,18.71875 L19.609375,17.28125 L13.296875,17.28125 L13.296875,19.171875 C13.875,19.25 14.109375,19.484375 14.15625,19.828125 L11.765625,20.0625 L11.765625,17.28125 L5.109375,17.28125 L3.28125,18.078125 Z" transform="translate(-0.9140625, 20.0625) scale(1, -1)"/>
</svg>