<svg height="22.109375" viewBox="0 0 24 22.109375" width="24" xmlns="http://www.w3.org/2000/svg">
<path d="M2.734375,17.546875 L2.734375,11.296875 C2.734375,6.984375 2.65625,2.25 0.859375,-1.609375 L1.25,-1.84375 C4.15625,1.96875 4.25,7.34375 4.25,11.296875 L4.25,16.84375 L22.390625,16.84375 C22.734375,16.84375 22.96875,16.96875 23.046875,17.234375 C22.21875,17.96875 20.90625,19.015625 20.90625,19.015625 L19.75,17.546875 L13.0625,17.546875 L13.0625,19.25 C13.65625,19.3125 13.890625,19.5625 13.921875,19.890625 L11.5,20.140625 L11.5,17.546875 L4.53125,17.546875 L2.734375,18.359375 Z M16.4375,16.3125 C16.125,12.9375 15.34375,9.4375 14.28125,7.015625 L14.6875,6.796875 C15.28125,7.5625 15.8125,8.5 16.296875,9.53125 C16.609375,7.4375 17.09375,5.46875 17.78125,3.71875 C16.78125,1.703125 15.390625,-0.09375 13.421875,-1.65625 L13.625,-1.96875 C15.671875,-0.71875 17.203125,0.71875 18.359375,2.40625 C19.203125,0.765625 20.296875,-0.671875 21.796875,-1.796875 C21.984375,-1.078125 22.515625,-0.703125 23.15625,-0.578125 L23.203125,-0.34375 C21.453125,0.640625 20.140625,1.984375 19.125,3.625 C20.40625,5.921875 21.078125,8.609375 21.453125,11.71875 L22.390625,11.71875 C22.734375,11.71875 22.9375,11.828125 23.015625,12.078125 C22.25,12.796875 21.03125,13.78125 21.03125,13.78125 L19.9375,12.40625 L17.359375,12.40625 C17.640625,13.3125 17.875,14.28125 18.09375,15.265625 C18.625,15.3125 18.859375,15.53125 18.9375,15.84375 Z M18.359375,5.015625 C17.5625,6.625 17.046875,8.453125 16.65625,10.390625 L17.140625,11.71875 L19.796875,11.71875 C19.578125,9.265625 19.15625,7.03125 18.359375,5.015625 Z M7.609375,8.203125 L7.609375,1.75 L7.78125,1.75 C8.234375,1.75 8.6875,1.984375 8.6875,2.109375 L8.6875,3.3125 L10.125,3.3125 L10.125,2.296875 L10.265625,2.296875 C10.625,2.296875 11.1875,2.5625 11.203125,2.734375 L11.203125,7.46875 C11.515625,7.53125 11.8125,7.6875 11.90625,7.796875 L10.578125,8.859375 L9.953125,8.203125 L8.8125,8.203125 L7.609375,8.8125 Z M10.125,4.03125 L8.6875,4.03125 L8.6875,7.515625 L10.125,7.515625 Z M5.203125,10.984375 L5.203125,-1.84375 L5.421875,-1.84375 C6.03125,-1.84375 6.578125,-1.515625 6.578125,-1.34375 L6.578125,10.296875 L12.390625,10.296875 L12.390625,0.28125 C12.390625,-0.03125 12.28125,-0.171875 11.953125,-0.171875 C11.546875,-0.171875 9.859375,-0.03125 9.859375,-0.03125 L9.859375,-0.40625 C10.625,-0.484375 11.09375,-0.640625 11.359375,-0.859375 C11.59375,-1.109375 11.71875,-1.46875 11.765625,-1.875 C13.5625,-1.703125 13.78125,-1.015625 13.78125,0.140625 L13.78125,10.0625 C14.234375,10.125 14.59375,10.3125 14.765625,10.484375 L13.609375,11.359375 C14.609375,11.375 14.875,13.65625 11.15625,15.1875 L10.890625,15.03125 C11.609375,14.234375 12.546875,12.9375 12.90625,11.859375 L12.859375,11.90625 L12.140625,10.984375 L10.203125,10.984375 L10.203125,15.625 C10.75,15.703125 10.984375,15.9375 11.046875,16.25 L8.765625,16.515625 L8.765625,10.984375 L6.703125,10.984375 L5.640625,11.5 C6.40625,12.234375 7.125,13.171875 7.65625,14.1875 C8.15625,14.15625 8.453125,14.359375 8.546875,14.609375 L6.453125,15.359375 C5.953125,13.6875 5.234375,12.078125 4.46875,11.0625 L4.828125,10.796875 L5.203125,11.109375 Z" transform="translate(-0.03125, 20.140625) scale(1, -1)"/>
</svg>