<svg height="20.890625" viewBox="0 0 24 20.890625" width="24" xmlns="http://www.w3.org/2000/svg">
<path d="M9.546875,18.078125 L9.546875,1.625 L9.796875,1.625 C10.46875,1.625 11.015625,1.984375 11.015625,2.1875 L11.015625,3.28125 L19.921875,3.28125 L19.921875,1.796875 L20.140625,1.796875 C20.65625,1.796875 21.40625,2.203125 21.4375,2.375 L21.4375,17.09375 C21.890625,17.1875 22.296875,17.375 22.4375,17.5625 L20.546875,19.0625 L19.6875,18.078125 L11.140625,18.078125 L9.546875,18.84375 Z M19.921875,4.015625 L11.015625,4.015625 L11.015625,17.375 L19.921875,17.375 Z M12.984375,14.453125 L12.984375,5.96875 L13.203125,5.96875 C13.6875,5.96875 14.203125,6.265625 14.203125,6.40625 L14.203125,7.5625 L16.65625,7.5625 L16.65625,6.28125 L16.84375,6.28125 C17.25,6.28125 17.90625,6.625 17.921875,6.765625 L17.921875,13.609375 C18.28125,13.65625 18.625,13.828125 18.765625,13.984375 L17.1875,15.21875 L16.46875,14.453125 L14.328125,14.453125 L12.984375,15.09375 Z M16.65625,8.25 L14.203125,8.25 L14.203125,13.734375 L16.65625,13.734375 Z M1.265625,18.140625 L1.484375,17.421875 L5.234375,17.421875 C4.265625,15.1875 2.765625,11.921875 1.4375,9.40625 C2.0625,9.171875 2.5,9.140625 2.875,9.21875 L3.703125,10.78125 L6.171875,10.78125 C5.953125,8.546875 5.59375,6.359375 4.875,4.34375 C4.3125,5.234375 3.84375,6.265625 3.4375,7.53125 L4.0625,8.359375 L3.265625,8.6875 L2.96875,7.734375 C2.375,7.15625 1.265625,6.3125 0.640625,5.875 L1.796875,4.484375 C1.9375,4.609375 2.015625,4.796875 1.890625,5.046875 L3.171875,7.078125 C3.578125,5.71875 4.03125,4.5625 4.5625,3.578125 C3.75,1.625 2.546875,-0.09375 0.796875,-1.484375 L1.0625,-1.828125 C2.96875,-0.671875 4.3125,0.765625 5.296875,2.40625 C7.53125,-0.671875 10.828125,-1.375 16.0625,-1.375 C17.5625,-1.375 20.765625,-1.375 22.125,-1.375 C22.171875,-0.71875 22.53125,-0.21875 23.1875,-0.09375 L23.1875,0.21875 C21.4375,0.171875 17.8125,0.171875 16.171875,0.171875 C11.203125,0.171875 7.9375,0.640625 5.734375,3.171875 C6.90625,5.453125 7.4375,8.015625 7.75,10.578125 C8.234375,10.625 8.46875,10.734375 8.640625,10.921875 L6.9375,12.453125 L6,11.5 L4.0625,11.5 C5.109375,13.53125 6.171875,15.765625 6.8125,17.140625 C7.375,17.1875 7.78125,17.28125 7.96875,17.5 L6.171875,19.0625 L5.296875,18.140625 Z" transform="translate(0.0859375, 19.0625) scale(1, -1)"/>
</svg>