<svg height="21.96875" viewBox="0 0 24 21.96875" width="24" xmlns="http://www.w3.org/2000/svg">
<path d="M10.734375,13.6875 L10.734375,3.9375 L8.296875,3.9375 L8.5,3.21875 L22.25,3.21875 C22.578125,3.21875 22.84375,3.34375 22.921875,3.59375 C22.078125,4.375 20.78125,5.453125 20.78125,5.453125 L19.609375,3.9375 L16.703125,3.9375 L16.703125,10.96875 L21.703125,10.96875 C22.03125,10.96875 22.265625,11.09375 22.34375,11.359375 C21.578125,12.09375 20.296875,13.15625 20.296875,13.15625 L19.21875,11.65625 L16.703125,11.65625 L16.703125,17.5 C18.234375,17.8125 19.65625,18.140625 20.8125,18.484375 C21.390625,18.234375 21.796875,18.234375 22.015625,18.453125 L20.1875,20.09375 C17.765625,18.9375 13.015625,17.5625 9.046875,16.921875 L9.171875,16.484375 C11.15625,16.609375 13.21875,16.875 15.171875,17.203125 L15.171875,3.9375 L12.21875,3.9375 L12.21875,12.796875 C12.765625,12.890625 13.015625,13.125 13.0625,13.4375 Z M3,8.1875 L2.640625,8.015625 C3.1875,6.03125 3.859375,4.46875 4.65625,3.21875 C3.796875,1.390625 2.5625,-0.21875 0.84375,-1.53125 L1.0625,-1.875 C3,-0.765625 4.390625,0.625 5.40625,2.1875 C7.75,-0.625 11.15625,-1.265625 16.390625,-1.265625 C17.8125,-1.265625 20.78125,-1.265625 22.0625,-1.265625 C22.109375,-0.625 22.46875,-0.140625 23.109375,-0.03125 L23.109375,0.3125 C21.4375,0.265625 18.078125,0.265625 16.53125,0.265625 C11.59375,0.265625 8.234375,0.71875 5.90625,2.96875 C7.15625,5.234375 7.75,7.828125 8.109375,10.46875 C8.609375,10.515625 8.859375,10.609375 9,10.796875 L7.265625,12.34375 L6.359375,11.375 L4.15625,11.375 C5.328125,13.4375 6.546875,15.71875 7.265625,17.140625 C7.828125,17.1875 8.28125,17.28125 8.46875,17.46875 L6.671875,19.0625 L5.78125,18.140625 L1.390625,18.140625 L1.609375,17.421875 L5.6875,17.421875 C4.65625,15.21875 2.96875,12 1.5625,9.546875 C2.140625,9.265625 2.59375,9.234375 2.96875,9.3125 L3.75,10.65625 L6.5,10.65625 C6.265625,8.328125 5.828125,6.046875 4.984375,4.015625 C4.203125,5.0625 3.546875,6.4375 3,8.1875 Z" transform="translate(0.0234375, 20.09375) scale(1, -1)"/>
</svg>