<svg height="21.671875" viewBox="0 0 24 21.671875" width="24" xmlns="http://www.w3.org/2000/svg">
<path d="M0.953125,11.234375 L1.171875,10.515625 L7.390625,10.515625 C7.25,5.859375 6.1875,1.484375 2.015625,-1.53125 L2.296875,-1.84375 C7.4375,0.984375 8.78125,5.640625 8.96875,10.515625 L15.984375,10.515625 L15.984375,-1.875 L16.296875,-1.875 C16.890625,-1.875 17.5625,-1.484375 17.5625,-1.21875 L17.5625,10.515625 L22.484375,10.515625 C22.84375,10.515625 23.09375,10.625 23.140625,10.890625 C22.296875,11.6875 20.953125,12.75 20.953125,12.75 L19.734375,11.234375 L17.5625,11.234375 L17.5625,18.84375 C18.1875,18.9375 18.390625,19.171875 18.453125,19.515625 L15.984375,19.796875 L15.984375,11.234375 L9,11.234375 L9,11.6875 L9,18.8125 C9.59375,18.90625 9.796875,19.15625 9.84375,19.484375 L7.421875,19.75 L7.421875,11.71875 L7.421875,11.234375 Z" transform="translate(-0.046875, 19.796875) scale(1, -1)"/>
</svg>