<svg height="21.9375" viewBox="0 0 24 21.9375" width="24" xmlns="http://www.w3.org/2000/svg">
<path d="M8.421875,14.046875 L8.109375,13.921875 C8.5625,13.203125 9.046875,12.03125 9.09375,11.09375 C10.109375,10.15625 11.328125,12.21875 8.421875,14.046875 Z M2.40625,19.484375 L2.140625,19.296875 C2.859375,18.578125 3.671875,17.359375 3.8125,16.375 C5.203125,15.28125 6.484375,18.171875 2.40625,19.484375 Z M10.4375,19.65625 C9.90625,18.390625 9.265625,17.140625 8.78125,16.3125 L9.125,16.078125 C9.890625,16.65625 10.84375,17.5 11.609375,18.3125 C12.09375,18.265625 12.390625,18.4375 12.5,18.671875 Z M4.65625,14.046875 C4.515625,12.703125 4.203125,11.296875 3.8125,10.296875 L4.203125,10.109375 C4.84375,10.875 5.359375,12.03125 5.6875,13.078125 C6.078125,13.078125 6.3125,13.25 6.40625,13.484375 L6.40625,8.09375 L6.578125,8.09375 C7.203125,8.09375 7.65625,8.421875 7.6875,8.546875 L7.6875,14.96875 L10.625,14.96875 L10.625,9.75 C10.625,9.453125 10.5625,9.34375 10.21875,9.34375 C9.8125,9.34375 8.40625,9.4375 8.40625,9.453125 L8.40625,9.078125 C9.09375,8.96875 9.5,8.828125 9.75,8.65625 C9.984375,8.46875 10.0625,8.15625 10.078125,7.828125 C11.78125,8.015625 12,8.609375 12,9.640625 L12,14.71875 C12.484375,14.78125 12.890625,15 13.03125,15.140625 L11.109375,16.578125 L10.390625,15.671875 L7.75,15.671875 L7.75,19.171875 C8.328125,19.25 8.546875,19.4375 8.59375,19.78125 L6.34375,20.015625 L6.34375,15.671875 L3.703125,15.671875 L2.0625,16.421875 L2.0625,7.6875 L2.25,7.6875 C2.921875,7.6875 3.390625,8.046875 3.390625,8.15625 L3.390625,14.96875 L6.40625,14.96875 L6.40625,13.609375 Z M15.34375,20.09375 C14.828125,17.296875 13.75,14.765625 12.453125,13.109375 L12.796875,12.84375 C13.53125,13.421875 14.203125,14.140625 14.8125,15 C15.265625,13.578125 15.8125,12.3125 16.578125,11.203125 C15.359375,9.90625 13.75,8.828125 11.71875,7.921875 L11.90625,7.5625 C14.0625,8.25 15.84375,9.171875 17.25,10.34375 C18.34375,9.09375 19.75,8.09375 21.671875,7.34375 C21.796875,8.09375 22.25,8.5 22.875,8.65625 L22.921875,8.90625 C20.953125,9.4375 19.421875,10.203125 18.1875,11.203125 C19.4375,12.5 20.328125,14.09375 20.875,15.984375 L22.265625,15.984375 C22.609375,15.984375 22.84375,16.109375 22.890625,16.375 C22.15625,17.0625 20.90625,18.046875 20.90625,18.046875 L19.84375,16.6875 L15.8125,16.6875 C16.171875,17.40625 16.515625,18.171875 16.78125,18.953125 C17.25,18.953125 17.546875,19.171875 17.640625,19.46875 Z M17.28125,12.046875 C16.375,13.0625 15.703125,14.203125 15.140625,15.53125 L15.4375,15.984375 L19.15625,15.984375 C18.765625,14.515625 18.171875,13.203125 17.28125,12.046875 Z M7.75,7.390625 L7.75,4.96875 L7.75,4.625 L1.109375,4.625 L1.3125,3.9375 L7.6875,3.9375 C7.375,1.828125 5.90625,-0.1875 1.25,-1.46875 L1.4375,-1.828125 C7.21875,-0.640625 8.828125,1.625 9.1875,3.9375 L14.71875,3.9375 L14.71875,-1.84375 L15,-1.84375 C15.59375,-1.84375 16.265625,-1.53125 16.265625,-1.3125 L16.265625,3.9375 L22.3125,3.9375 C22.65625,3.9375 22.875,4.0625 22.9375,4.296875 C22.15625,5.046875 20.875,6 20.875,6 L19.78125,4.625 L16.265625,4.625 L16.265625,6.546875 C16.875,6.640625 17.09375,6.859375 17.140625,7.203125 L14.71875,7.4375 L14.71875,4.625 L9.265625,4.625 L9.28125,4.921875 L9.28125,6.578125 C9.859375,6.640625 10.03125,6.890625 10.078125,7.171875 Z" transform="translate(-0.0234375, 20.09375) scale(1, -1)"/>
</svg>