<svg height="22.265625" viewBox="0 0 24 22.265625" width="24" xmlns="http://www.w3.org/2000/svg">
<path d="M14.203125,18.859375 L14.015625,18.59375 C15.34375,17.921875 17.046875,16.578125 17.609375,15.390625 C19.421875,14.5625 19.984375,18.21875 14.203125,18.859375 Z M1.03125,11.78125 L1.296875,11.09375 L10.875,11.859375 C11.953125,5.8125 14.46875,1.109375 19.5625,-1.125 C21.046875,-1.875 22.5625,-2.28125 22.984375,-1.46875 C23.140625,-1.15625 23.09375,-0.890625 22.203125,-0.140625 L22.578125,3.359375 L22.265625,3.4375 C21.953125,2.421875 21.453125,1.21875 21.171875,0.59375 C20.921875,0.140625 20.71875,0.140625 20.15625,0.40625 C15.5,2.296875 13.296875,6.703125 12.40625,11.96875 L22.3125,12.765625 C22.65625,12.796875 22.890625,12.9375 22.9375,13.203125 C22.015625,13.921875 20.546875,14.90625 20.546875,14.90625 L19.46875,13.25 L12.28125,12.671875 C12,14.71875 11.875,16.875 11.90625,19.0625 C12.484375,19.15625 12.703125,19.421875 12.75,19.734375 L10.25,19.984375 C10.25,17.375 10.421875,14.875 10.78125,12.546875 Z" transform="translate(-0.0859375, 19.984375) scale(1, -1)"/>
</svg>