<svg height="22.078125" viewBox="0 0 24 22.078125" width="24" xmlns="http://www.w3.org/2000/svg">
<path d="M0.984375,8.328125 L1.171875,7.625 L7.828125,7.625 C7.625,4.21875 6.484375,0.71875 1.828125,-1.5625 L2.0625,-1.890625 C7.78125,0.21875 9.125,4.03125 9.359375,7.625 L14.78125,7.625 L14.78125,-1.84375 L15.078125,-1.84375 C15.703125,-1.84375 16.375,-1.484375 16.375,-1.296875 L16.375,7.625 L22.4375,7.625 C22.796875,7.625 23.046875,7.75 23.09375,8.015625 C22.25,8.8125 20.90625,9.859375 20.90625,9.859375 L19.65625,8.328125 L16.375,8.328125 L16.375,12.09375 C16.984375,12.171875 17.15625,12.40625 17.234375,12.75 L14.78125,13.015625 L14.78125,8.328125 L9.40625,8.328125 L9.40625,8.734375 L9.40625,11.8125 C9.984375,11.875 10.171875,12.09375 10.21875,12.40625 L7.84375,12.671875 L7.84375,8.78125 L7.84375,8.328125 Z M14.546875,18.125 L14.28125,17.859375 C15.34375,17.234375 16.578125,16.3125 17.640625,15.3125 L7.96875,14.78125 C9.3125,16.125 10.625,17.734375 11.453125,19.015625 C11.96875,18.953125 12.265625,19.171875 12.390625,19.46875 L9.859375,20.1875 C9.1875,18.546875 8.109375,16.4375 7.078125,14.765625 C5.25,14.65625 3.75,14.609375 2.734375,14.59375 L3.546875,12.5 C3.796875,12.546875 4.0625,12.71875 4.171875,13.015625 C10.21875,13.703125 14.734375,14.28125 18.171875,14.8125 C18.9375,13.984375 19.5625,13.15625 19.890625,12.390625 C21.859375,11.359375 22.34375,15.765625 14.546875,18.125 Z" transform="translate(-0.0390625, 20.1875) scale(1, -1)"/>
</svg>