<svg height="21.171875" viewBox="0 0 24 21.171875" width="24" xmlns="http://www.w3.org/2000/svg">
<path d="M3.890625,18.28125 L4.078125,17.5625 L18.09375,17.5625 L18.09375,12.953125 L6.8125,12.953125 L5.015625,13.78125 C4.609375,11.875 3.765625,8.421875 3.046875,6.03125 C3.890625,5.78125 4.34375,5.8125 4.734375,6.03125 L5.09375,7.296875 L19.3125,7.296875 C18.890625,3.984375 18.09375,0.984375 17.28125,0.34375 C16.96875,0.125 16.703125,0.046875 16.171875,0.046875 C15.546875,0.046875 13.125,0.28125 11.765625,0.40625 L11.734375,-0.03125 C12.9375,-0.1875 14.296875,-0.484375 14.765625,-0.75 C15.171875,-0.984375 15.28125,-1.4375 15.28125,-1.890625 C16.515625,-1.921875 17.515625,-1.609375 18.234375,-1.03125 C19.515625,-0.078125 20.46875,3.359375 20.90625,7.109375 C21.40625,7.15625 21.71875,7.265625 21.890625,7.46875 L20.0625,9 L19.125,8.015625 L5.25,8.015625 C5.640625,9.5 6.03125,11.109375 6.265625,12.234375 L18.09375,12.234375 L18.09375,10.921875 L18.34375,10.921875 C18.890625,10.921875 19.6875,11.28125 19.703125,11.453125 L19.703125,17.28125 C20.15625,17.375 20.546875,17.5625 20.71875,17.765625 L18.765625,19.25 L17.859375,18.28125 Z" transform="translate(-0.46875, 19.25) scale(1, -1)"/>
</svg>