<svg height="22.3125" viewBox="0 0 24 22.3125" width="24" xmlns="http://www.w3.org/2000/svg">
<path d="M16.734375,18.75 L16.515625,18.484375 C17.6875,17.921875 19.125,16.734375 19.578125,15.640625 C21.234375,14.859375 21.859375,18.1875 16.734375,18.75 Z M3.4375,17.5625 L3.625,16.875 L11.953125,16.875 C12.265625,16.875 12.5,16.984375 12.578125,17.25 C11.8125,17.96875 10.609375,18.890625 10.609375,18.890625 L9.546875,17.5625 Z M1.421875,1.109375 L2.59375,-0.71875 C2.78125,-0.640625 3,-0.453125 3.078125,-0.171875 C7.78125,1.390625 11.1875,2.609375 13.65625,3.578125 L13.5625,3.984375 C8.453125,2.65625 3.546875,1.46875 1.421875,1.109375 Z M2.609375,8.609375 L2.8125,7.890625 L12.640625,7.890625 C12.984375,7.890625 13.21875,8.015625 13.265625,8.28125 C12.53125,8.96875 11.296875,9.9375 11.296875,9.9375 L10.21875,8.609375 Z M13.75,20.0625 C13.75,17.828125 13.828125,15.671875 13.984375,13.625 L1.078125,13.625 L1.296875,12.9375 L14.046875,12.9375 C14.640625,6.84375 16.171875,1.9375 19.875,-0.75 C20.953125,-1.578125 22.375,-2.25 22.9375,-1.515625 C23.15625,-1.25 23.09375,-0.859375 22.390625,0.03125 L22.796875,3.671875 L22.484375,3.71875 C22.171875,2.734375 21.75,1.578125 21.453125,1.015625 C21.234375,0.53125 21.125,0.5 20.71875,0.859375 C17.453125,3.078125 16.109375,7.65625 15.640625,12.9375 L22.3125,12.9375 C22.65625,12.9375 22.890625,13.0625 22.96875,13.3125 C22.125,14.0625 20.8125,15.09375 20.8125,15.09375 L19.625,13.625 L15.578125,13.625 C15.453125,15.40625 15.40625,17.25 15.4375,19.109375 C16.03125,19.203125 16.25,19.484375 16.296875,19.78125 Z" transform="translate(-0.1171875, 20.0625) scale(1, -1)"/>
</svg>