<svg height="21.609375" viewBox="0 0 24 21.609375" width="24" xmlns="http://www.w3.org/2000/svg">
<path d="M10.921875,14.828125 L10.625,14.640625 C11.234375,14.0625 11.859375,13.0625 11.953125,12.21875 C13.109375,11.296875 14.25,13.6875 10.921875,14.828125 Z M18.046875,14.90625 L17.78125,14.71875 C18.453125,14.140625 19.25,13.109375 19.390625,12.265625 C20.609375,11.40625 21.671875,13.84375 18.046875,14.90625 Z M10.875,8.859375 L10.578125,8.6875 C11.234375,8.0625 11.90625,6.984375 12,6.125 C13.21875,5.1875 14.375,7.65625 10.875,8.859375 Z M18.046875,8.921875 L17.765625,8.78125 C18.453125,8.140625 19.25,7.015625 19.390625,6.125 C20.609375,5.203125 21.75,7.734375 18.046875,8.921875 Z M9.140625,18.546875 L9.140625,11.109375 C9.140625,6.59375 8.953125,1.96875 6.703125,-1.65625 L7.109375,-1.890625 C10.3125,1.703125 10.484375,6.90625 10.484375,11.140625 L10.484375,17.859375 L13.265625,17.859375 L13.265625,0.4375 C13.265625,0.078125 13.15625,-0.046875 12.75,-0.046875 C12.34375,-0.046875 10.390625,0.09375 10.390625,0.09375 L10.390625,-0.28125 C11.25,-0.40625 11.78125,-0.546875 12.078125,-0.796875 C12.34375,-1.03125 12.453125,-1.421875 12.5,-1.84375 C14.453125,-1.625 14.65625,-0.90625 14.65625,0.28125 L14.65625,17.59375 C15.125,17.6875 15.484375,17.875 15.640625,18.078125 L13.75,19.515625 L13.03125,18.546875 L10.78125,18.546875 L9.140625,19.3125 Z M16.34375,18.546875 L16.34375,10.78125 C16.34375,6.53125 16.34375,1.9375 14.828125,-1.65625 L15.234375,-1.875 C17.71875,1.703125 17.71875,6.84375 17.71875,10.78125 L17.71875,17.859375 L20.65625,17.859375 L20.65625,0.453125 C20.65625,0.09375 20.5625,-0.03125 20.15625,-0.03125 C19.734375,-0.03125 17.828125,0.125 17.828125,0.125 L17.828125,-0.265625 C18.703125,-0.390625 19.203125,-0.53125 19.515625,-0.765625 C19.78125,-1.015625 19.875,-1.421875 19.921875,-1.84375 C21.859375,-1.625 22.109375,-0.90625 22.109375,0.3125 L22.109375,17.59375 C22.5625,17.6875 22.9375,17.875 23.09375,18.078125 L21.1875,19.515625 L20.421875,18.546875 L18,18.546875 L16.34375,19.3125 Z M1.03125,18.71875 L1.25,18.03125 L5.859375,18.03125 L5.859375,13.296875 L3.578125,13.296875 L1.96875,14.0625 C1.84375,12.125 1.484375,8.59375 1.15625,6.125 C1.9375,6 2.28125,6.046875 2.640625,6.265625 L2.765625,7.484375 L5.859375,7.484375 C5.71875,3.03125 5.375,0.640625 4.828125,0.125 C4.625,-0.078125 4.46875,-0.125 4.0625,-0.125 C3.625,-0.125 2.375,0 1.609375,0.046875 L1.578125,-0.359375 C2.28125,-0.453125 3,-0.640625 3.28125,-0.890625 C3.578125,-1.109375 3.640625,-1.484375 3.640625,-1.921875 C4.46875,-1.921875 5.25,-1.703125 5.78125,-1.15625 C6.703125,-0.359375 7.15625,2.234375 7.296875,7.3125 C7.78125,7.390625 8.0625,7.484375 8.234375,7.6875 L6.484375,9.09375 L5.640625,8.203125 L2.828125,8.203125 L3.21875,12.59375 L5.859375,12.59375 L5.859375,11.515625 L6.078125,11.515625 C6.546875,11.515625 7.296875,11.859375 7.3125,12 L7.3125,17.71875 C7.796875,17.828125 8.203125,18.03125 8.375,18.21875 L6.484375,19.6875 L5.609375,18.71875 Z" transform="translate(-0.0625, 19.6875) scale(1, -1)"/>
</svg>