<svg height="21.703125" viewBox="0 0 24 21.703125" width="24" xmlns="http://www.w3.org/2000/svg">
<path d="M10.375,17.953125 L13.203125,17.953125 L13.203125,13.515625 L10.375,13.515625 Z M9.03125,18.625 L9.03125,10.875 C9.03125,6.453125 8.828125,1.9375 6.625,-1.578125 L7.03125,-1.828125 C9.3125,0.671875 10.03125,4.015625 10.265625,7.21875 L13.203125,7.21875 L13.203125,0.71875 C13.203125,0.390625 13.078125,0.234375 12.703125,0.234375 C12.265625,0.234375 10.3125,0.40625 10.3125,0.40625 L10.3125,0.03125 C11.203125,-0.09375 11.71875,-0.28125 12,-0.5 C12.265625,-0.75 12.390625,-1.171875 12.4375,-1.609375 C14.375,-1.390625 14.59375,-0.640625 14.59375,0.546875 L14.59375,17.6875 C15.046875,17.78125 15.40625,17.953125 15.578125,18.140625 L13.6875,19.578125 L12.953125,18.625 L10.6875,18.625 L9.03125,19.390625 Z M10.375,12.796875 L13.203125,12.796875 L13.203125,7.921875 L10.296875,7.921875 C10.375,8.921875 10.375,9.9375 10.375,10.890625 Z M17.65625,12.796875 L20.640625,12.796875 L20.640625,7.921875 L17.65625,7.921875 L17.65625,9.671875 Z M17.65625,13.515625 L17.65625,17.953125 L20.640625,17.953125 L20.640625,13.515625 Z M16.265625,18.625 L16.265625,9.640625 C16.265625,5.65625 16.3125,1.515625 14.78125,-1.578125 L15.1875,-1.796875 C17.15625,0.625 17.5625,3.984375 17.640625,7.21875 L20.640625,7.21875 L20.640625,0.53125 C20.640625,0.171875 20.546875,0.046875 20.15625,0.046875 C19.734375,0.046875 17.8125,0.1875 17.8125,0.1875 L17.8125,-0.1875 C18.671875,-0.3125 19.203125,-0.484375 19.484375,-0.75 C19.75,-0.953125 19.84375,-1.390625 19.890625,-1.84375 C21.859375,-1.625 22.078125,-0.859375 22.078125,0.34375 L22.078125,17.6875 C22.53125,17.765625 22.921875,17.953125 23.09375,18.140625 L21.171875,19.578125 L20.421875,18.625 L17.953125,18.625 L16.265625,19.390625 Z M1.015625,18.71875 L1.21875,18.03125 L5.828125,18.03125 L5.828125,13.734375 L3.546875,13.734375 L1.9375,14.515625 C1.828125,12.546875 1.46875,9.03125 1.125,6.578125 C1.921875,6.4375 2.25,6.5 2.609375,6.71875 L2.765625,7.96875 L5.859375,7.96875 C5.65625,3.21875 5.296875,0.59375 4.734375,0.046875 C4.515625,-0.125 4.34375,-0.171875 3.9375,-0.171875 C3.484375,-0.171875 2.203125,-0.078125 1.421875,0 L1.390625,-0.40625 C2.09375,-0.53125 2.859375,-0.71875 3.125,-0.9375 C3.40625,-1.171875 3.5,-1.578125 3.484375,-2.015625 C4.3125,-2.015625 5.15625,-1.78125 5.71875,-1.21875 C6.625,-0.359375 7.109375,2.40625 7.296875,7.796875 C7.75,7.875 8.046875,7.984375 8.203125,8.1875 L6.484375,9.59375 L5.609375,8.6875 L2.828125,8.6875 L3.1875,13.03125 L5.828125,13.03125 L5.828125,11.921875 L6.046875,11.921875 C6.5,11.921875 7.25,12.234375 7.265625,12.390625 L7.265625,17.71875 C7.75,17.828125 8.15625,18.03125 8.328125,18.21875 L6.4375,19.6875 L5.5625,18.71875 Z" transform="translate(-0.0546875, 19.6875) scale(1, -1)"/>
</svg>