<svg height="21.90625" viewBox="0 0 24 21.90625" width="24" xmlns="http://www.w3.org/2000/svg">
<path d="M9.75,19.53125 L9.484375,19.375 C10.265625,18.40625 11.15625,16.875 11.28125,15.625 C12.71875,14.40625 14.15625,17.59375 9.75,19.53125 Z M14.046875,20.015625 L13.75,19.890625 C14.421875,18.859375 15.078125,17.234375 15.046875,15.9375 C16.46875,14.609375 18.125,17.8125 14.046875,20.015625 Z M20.5,19.84375 C19.84375,18.453125 18.703125,16.25 17.6875,14.6875 L17.96875,14.40625 C19.34375,15.640625 21.078125,17.40625 21.9375,18.53125 C22.34375,18.4375 22.625,18.484375 22.75,18.71875 Z M9.9375,14.046875 L9.9375,5.0625 L10.15625,5.0625 C10.890625,5.0625 11.375,5.40625 11.375,5.546875 L11.375,6.453125 L14.90625,6.453125 L14.90625,3.625 L8.203125,3.625 L8.40625,2.921875 L14.90625,2.921875 L14.90625,-1.890625 L15.140625,-1.890625 C15.890625,-1.890625 16.390625,-1.515625 16.390625,-1.390625 L16.390625,2.921875 L22.65625,2.921875 C22.96875,2.921875 23.1875,3.046875 23.25,3.3125 C22.484375,4.03125 21.234375,4.984375 21.234375,4.984375 L20.140625,3.625 L16.390625,3.625 L16.390625,6.453125 L20.1875,6.453125 L20.1875,5.40625 L20.40625,5.40625 C21.09375,5.40625 21.671875,5.734375 21.671875,5.828125 L21.671875,13.25 C22.125,13.3125 22.390625,13.46875 22.5625,13.625 L20.859375,14.953125 L20.09375,14.046875 L11.640625,14.046875 L9.9375,14.78125 Z M14.90625,9.9375 L14.90625,7.15625 L11.375,7.15625 L11.375,9.9375 Z M14.90625,10.625 L11.375,10.625 L11.375,13.34375 L14.90625,13.34375 Z M16.390625,9.9375 L20.1875,9.9375 L20.1875,7.15625 L16.390625,7.15625 Z M16.390625,10.625 L16.390625,13.34375 L20.1875,13.34375 L20.1875,10.625 Z M1.03125,18.75 L1.25,18.046875 L6.484375,18.046875 L6.484375,13.734375 L3.640625,13.734375 L2.015625,14.375 C1.875,12.5 1.53125,9.046875 1.171875,6.625 C1.96875,6.5 2.328125,6.546875 2.71875,6.765625 L2.828125,7.984375 L6.640625,7.984375 C6.40625,3.53125 5.875,0.859375 5.234375,0.265625 C4.96875,0.078125 4.78125,0.03125 4.34375,0.03125 C3.890625,0.03125 2.453125,0.140625 1.609375,0.21875 L1.578125,-0.21875 C2.359375,-0.34375 3.140625,-0.5 3.453125,-0.75 C3.75,-0.984375 3.84375,-1.421875 3.84375,-1.84375 C4.734375,-1.84375 5.59375,-1.578125 6.171875,-1.0625 C7.203125,-0.140625 7.84375,2.765625 8.109375,7.828125 C8.609375,7.875 8.90625,7.984375 9.09375,8.1875 L7.296875,9.640625 L6.453125,8.71875 L2.90625,8.71875 L3.28125,13.03125 L6.484375,13.03125 L6.484375,11.953125 L6.71875,11.953125 C7.203125,11.953125 7.9375,12.265625 7.96875,12.4375 L7.96875,17.765625 C8.46875,17.859375 8.859375,18.046875 9.03125,18.234375 L7.109375,19.703125 L6.234375,18.75 Z" transform="translate(-0.140625, 20.015625) scale(1, -1)"/>
</svg>