<svg height="21.734375" viewBox="0 0 24 21.734375" width="24" xmlns="http://www.w3.org/2000/svg">
<path d="M3.59375,8.65625 L3.359375,8.46875 C4.171875,7.78125 5.140625,6.578125 5.359375,5.609375 C6.859375,4.578125 8.046875,7.609375 3.59375,8.65625 Z M1.3125,2.765625 L2.46875,0.9375 C2.640625,1.015625 2.828125,1.25 2.90625,1.53125 C5.5,2.859375 7.390625,3.984375 8.734375,4.75 L8.609375,5.09375 C5.59375,4.078125 2.59375,3.078125 1.3125,2.765625 Z M14.28125,8.65625 L14.046875,8.453125 C14.953125,7.78125 16.0625,6.546875 16.34375,5.5625 C17.96875,4.5625 19.0625,7.75 14.28125,8.65625 Z M12.046875,2.921875 L13.25,1.078125 C13.46875,1.171875 13.609375,1.390625 13.6875,1.6875 C16.46875,3.09375 18.5,4.25 19.921875,5.0625 L19.78125,5.40625 C16.609375,4.3125 13.421875,3.28125 12.046875,2.921875 Z M1.734375,18.9375 L1.9375,18.234375 L8.953125,18.234375 L8.953125,14.546875 L4.921875,14.546875 L3.125,15.390625 C2.90625,13.75 2.375,10.796875 1.9375,8.765625 C2.78125,8.5625 3.21875,8.609375 3.625,8.828125 L3.765625,9.640625 L9.171875,9.640625 C8.953125,4.4375 8.5625,0.953125 7.875,0.234375 C7.703125,0.078125 7.53125,0.03125 7.171875,0.03125 C6.75,0.03125 5.140625,0.140625 4.203125,0.234375 L4.203125,-0.171875 C5.0625,-0.3125 6,-0.546875 6.359375,-0.796875 C6.671875,-1.03125 6.796875,-1.46875 6.796875,-1.84375 C7.6875,-1.828125 8.421875,-1.5625 8.953125,-1.0625 C10.03125,-0.03125 10.484375,3.71875 10.703125,9.453125 C11.203125,9.5 11.5,9.640625 11.65625,9.84375 L9.84375,11.296875 L8.921875,10.34375 L3.90625,10.34375 L4.46875,13.828125 L8.953125,13.828125 L8.953125,12.4375 L9.171875,12.4375 C9.703125,12.4375 10.484375,12.765625 10.515625,12.90625 L10.515625,17.953125 C10.9375,18.046875 11.359375,18.234375 11.515625,18.40625 L9.578125,19.890625 L8.71875,18.9375 Z M12.40625,18.9375 L12.625,18.234375 L19.65625,18.234375 L19.65625,14.546875 L15.453125,14.546875 L13.625,15.390625 C13.4375,13.734375 12.984375,10.703125 12.59375,8.59375 C13.46875,8.421875 13.84375,8.46875 14.28125,8.71875 L14.453125,9.640625 L20.359375,9.640625 C20.109375,4.46875 19.703125,0.953125 19.015625,0.234375 C18.8125,0.078125 18.640625,0.03125 18.28125,0.03125 C17.859375,0.03125 16.21875,0.171875 15.28125,0.234375 L15.28125,-0.171875 C16.15625,-0.3125 17.109375,-0.546875 17.46875,-0.796875 C17.78125,-1.03125 17.90625,-1.46875 17.90625,-1.84375 C18.796875,-1.828125 19.5625,-1.5625 20.09375,-1.03125 C21.1875,0 21.625,3.75 21.859375,9.453125 C22.375,9.5 22.65625,9.640625 22.828125,9.84375 L21.03125,11.296875 L20.109375,10.34375 L14.546875,10.34375 L15.03125,13.828125 L19.65625,13.828125 L19.65625,12.4375 L19.875,12.4375 C20.375,12.4375 21.1875,12.765625 21.21875,12.90625 L21.21875,17.953125 C21.640625,18.046875 22.0625,18.234375 22.21875,18.40625 L20.28125,19.890625 L19.421875,18.9375 Z" transform="translate(-0.0703125, 19.890625) scale(1, -1)"/>
</svg>