<svg height="21.71875" viewBox="0 0 24 21.71875" width="24" xmlns="http://www.w3.org/2000/svg">
<path d="M1.203125,18.75 L1.421875,18.046875 L6.171875,18.046875 L6.171875,13.734375 L3.703125,13.734375 L2.0625,14.421875 C1.96875,12.53125 1.625,9.09375 1.34375,6.71875 C2.140625,6.578125 2.46875,6.640625 2.828125,6.859375 L2.953125,7.984375 L6.3125,7.984375 C6.078125,3.28125 5.65625,0.640625 5.09375,0.09375 C4.875,-0.09375 4.6875,-0.140625 4.25,-0.140625 C3.84375,-0.140625 2.5,-0.03125 1.703125,0.046875 L1.6875,-0.359375 C2.40625,-0.484375 3.171875,-0.703125 3.4375,-0.90625 C3.75,-1.15625 3.8125,-1.578125 3.8125,-2.015625 C4.6875,-2.015625 5.5,-1.78125 6.078125,-1.21875 C7.03125,-0.34375 7.5625,2.453125 7.78125,7.796875 C8.25,7.875 8.546875,7.984375 8.71875,8.1875 L6.953125,9.640625 L6.09375,8.71875 L3.03125,8.71875 C3.171875,10.21875 3.28125,11.90625 3.34375,13.03125 L6.171875,13.03125 L6.171875,11.953125 L6.390625,11.953125 C6.890625,11.953125 7.625,12.265625 7.65625,12.4375 L7.65625,17.765625 C8.140625,17.859375 8.515625,18.046875 8.6875,18.234375 L6.796875,19.703125 L5.921875,18.75 Z M9.21875,18.890625 L9.21875,13.421875 L9.4375,13.421875 C9.984375,13.421875 10.609375,13.734375 10.609375,13.84375 L10.609375,14.609375 L13.375,14.609375 L13.375,13.578125 L13.5625,13.578125 C14.046875,13.578125 14.734375,13.921875 14.765625,14.09375 L14.765625,18.078125 C15.125,18.125 15.40625,18.28125 15.53125,18.4375 L13.921875,19.6875 L13.171875,18.890625 L10.734375,18.890625 L9.21875,19.578125 Z M10.609375,15.3125 L10.609375,18.21875 L13.375,18.21875 L13.375,15.3125 Z M14.78125,8.6875 L14.78125,6.234375 L11.453125,6.234375 L11.453125,8.6875 Z M16.3125,8.6875 L19.734375,8.6875 L19.734375,6.234375 L16.3125,6.234375 Z M14.78125,9.390625 L11.453125,9.390625 L11.453125,11.859375 L14.78125,11.859375 Z M16.3125,9.390625 L16.3125,11.859375 L19.734375,11.859375 L19.734375,9.390625 Z M9.953125,12.546875 L9.953125,4.15625 L10.203125,4.15625 C10.796875,4.15625 11.453125,4.515625 11.453125,4.65625 L11.453125,5.546875 L14.78125,5.546875 L14.78125,3.125 L8.15625,3.125 L8.359375,2.421875 L14.78125,2.421875 L14.78125,-1.828125 L15.03125,-1.828125 C15.8125,-1.828125 16.3125,-1.46875 16.3125,-1.34375 L16.3125,2.421875 L22.6875,2.421875 C23.015625,2.421875 23.234375,2.515625 23.28125,2.78125 C22.53125,3.5 21.3125,4.390625 21.3125,4.390625 L20.234375,3.125 L16.3125,3.125 L16.3125,5.546875 L19.734375,5.546875 L19.734375,4.578125 L19.96875,4.578125 C20.46875,4.578125 21.234375,4.96875 21.265625,5.109375 L21.265625,11.6875 C21.625,11.765625 21.9375,11.921875 22.0625,12.078125 L20.328125,13.421875 L19.53125,12.546875 L11.5625,12.546875 L9.953125,13.296875 Z M16.25,18.890625 L16.25,13.46875 L16.46875,13.46875 C17.015625,13.46875 17.640625,13.78125 17.640625,13.890625 L17.640625,14.609375 L20.546875,14.609375 L20.546875,13.578125 L20.765625,13.578125 C21.234375,13.578125 21.9375,13.921875 21.953125,14.09375 L21.953125,18.078125 C22.296875,18.125 22.625,18.28125 22.734375,18.4375 L21.125,19.6875 L20.359375,18.890625 L17.765625,18.890625 L16.25,19.578125 Z M17.640625,15.3125 L17.640625,18.21875 L20.546875,18.21875 L20.546875,15.3125 Z" transform="translate(-0.2421875, 19.703125) scale(1, -1)"/>
</svg>