<svg height="21.65625" viewBox="0 0 24 21.65625" width="24" xmlns="http://www.w3.org/2000/svg">
<path d="M15.765625,19.921875 C12.59375,16.6875 8.421875,14.28125 4.296875,12.578125 L4.515625,12.140625 C9,13.515625 13.375,15.578125 16.828125,18.34375 C17.375,18.1875 17.609375,18.21875 17.828125,18.4375 Z M17.359375,14.328125 C13.984375,10.375 9.578125,7.875 4.84375,6.09375 L5.046875,5.6875 C10.171875,7.109375 14.78125,9.21875 18.5,12.796875 C19.0625,12.640625 19.3125,12.671875 19.484375,12.90625 Z M19.421875,7.96875 C15.21875,2.515625 9.703125,0.3125 3.453125,-1.265625 L3.578125,-1.734375 C10.296875,-0.59375 15.890625,1.3125 20.5625,6.390625 C21.171875,6.21875 21.4375,6.265625 21.640625,6.5 Z" transform="translate(-0.546875, 19.921875) scale(1, -1)"/>
</svg>