<svg height="21.796875" viewBox="0 0 24 21.796875" width="24" xmlns="http://www.w3.org/2000/svg">
<path d="M1.96875,15.90625 L1.6875,15.75 C2.40625,14.8125 3.1875,13.296875 3.1875,12.046875 C4.5625,10.78125 6.078125,13.84375 1.96875,15.90625 Z M5.8125,16.625 L5.515625,16.484375 C6.1875,15.5 6.890625,13.890625 6.859375,12.640625 C8.234375,11.375 9.796875,14.421875 5.8125,16.625 Z M11.640625,19.921875 C9.390625,18.84375 5.015625,17.59375 1.3125,17.046875 L1.421875,16.65625 C5.296875,16.796875 9.546875,17.5 12.265625,18.234375 C12.859375,18.03125 13.296875,18.03125 13.515625,18.21875 Z M11.828125,16.796875 C11.203125,14.90625 10.265625,12.890625 9.484375,11.609375 L9.8125,11.375 C10.984375,12.390625 12.234375,13.921875 13.203125,15.453125 C13.65625,15.390625 13.96875,15.546875 14.09375,15.8125 Z M20.328125,19.828125 C18.453125,17.328125 15.90625,15.078125 13.3125,13.484375 L13.5625,13.109375 C16.515625,14.359375 19.4375,16.25 21.578125,18.3125 C22.109375,18.21875 22.3125,18.265625 22.484375,18.5 Z M20.59375,13.78125 C18.671875,10.9375 16.03125,8.609375 13.171875,6.953125 L13.4375,6.53125 C16.6875,7.875 19.6875,9.890625 21.890625,12.34375 C22.421875,12.234375 22.65625,12.28125 22.796875,12.53125 Z M21,7.125 C18.625,3.03125 15.40625,0.4375 11.46875,-1.4375 L11.640625,-1.875 C16.109375,-0.359375 19.625,1.96875 22.375,5.6875 C22.921875,5.609375 23.15625,5.6875 23.296875,5.921875 Z M6.71875,11.828125 L6.71875,8.78125 L1.203125,8.78125 L1.390625,8.09375 L6,8.09375 C4.9375,5.109375 3.140625,2.203125 0.765625,0.078125 L1.0625,-0.28125 C3.4375,1.3125 5.359375,3.3125 6.71875,5.65625 L6.71875,-1.875 L7.0625,-1.875 C7.578125,-1.875 8.25,-1.53125 8.25,-1.3125 L8.25,6.09375 C9.640625,5.203125 11.296875,3.75 11.8125,2.453125 C13.65625,1.4375 14.40625,5.203125 8.25,6.484375 L8.25,8.09375 L13.265625,8.09375 C13.609375,8.09375 13.828125,8.203125 13.875,8.46875 C13.15625,9.171875 11.921875,10.15625 11.921875,10.15625 L10.875,8.78125 L8.25,8.78125 L8.25,10.921875 C8.859375,11.015625 9.09375,11.234375 9.125,11.59375 Z" transform="translate(-0.03125, 19.921875) scale(1, -1)"/>
</svg>