<svg height="21.890625" viewBox="0 0 24 21.890625" width="24" xmlns="http://www.w3.org/2000/svg">
<path d="M20.609375,5.296875 C16.3125,1.109375 11.234375,-0.359375 5.328125,-1.375 L5.453125,-1.828125 C11.6875,-1.203125 16.796875,0 21.53125,3.84375 C22.109375,3.671875 22.375,3.71875 22.5625,3.9375 Z M15.890625,11.78125 C13.921875,9.890625 9.90625,7.828125 6.359375,6.765625 L6.546875,6.40625 C10.46875,7.125 14.609375,8.765625 16.828125,10.34375 C17.296875,10.171875 17.515625,10.21875 17.71875,10.4375 Z M18.09375,8.65625 C15.765625,6.1875 10.9375,3.90625 6.359375,2.828125 L6.5,2.453125 C11.46875,3.125 16.46875,5.09375 19.015625,7.25 C19.515625,7.078125 19.734375,7.109375 19.921875,7.34375 Z M3.703125,12.59375 L3.703125,9.578125 C3.703125,6.046875 3.40625,1.96875 1.078125,-1.515625 L1.390625,-1.78125 C4.9375,1.5625 5.25,6.40625 5.25,9.59375 L5.25,11.90625 L22.125,11.90625 C22.46875,11.90625 22.703125,12 22.78125,12.265625 C21.9375,13.015625 20.609375,14.015625 20.609375,14.015625 L19.484375,12.59375 L14.921875,12.59375 C15.796875,13.46875 16.6875,14.5 17.234375,15.28125 C17.734375,15.28125 18.046875,15.5 18.140625,15.765625 L16.015625,16.34375 L21.1875,16.34375 C21.53125,16.34375 21.75,16.46875 21.8125,16.734375 C21.03125,17.46875 19.703125,18.453125 19.703125,18.453125 L18.578125,17.046875 L12.796875,17.046875 L12.796875,19.21875 C13.3125,19.3125 13.53125,19.53125 13.578125,19.84375 L11.234375,20.0625 L11.234375,17.046875 L2.5,17.046875 L2.71875,16.34375 L7.421875,16.34375 L7.3125,16.296875 C7.890625,15.390625 8.609375,13.9375 8.765625,12.84375 C8.921875,12.71875 9.078125,12.625 9.234375,12.59375 L5.5625,12.59375 L3.703125,13.421875 Z M7.734375,16.34375 L15.71875,16.34375 C15.390625,15.21875 14.78125,13.703125 14.25,12.59375 L9.640625,12.59375 C10.578125,12.84375 10.828125,14.859375 7.734375,16.34375 Z" transform="translate(0.0703125, 20.0625) scale(1, -1)"/>
</svg>