<svg height="21.859375" viewBox="0 0 24 21.859375" width="24" xmlns="http://www.w3.org/2000/svg">
<path d="M9.625,17.234375 L9.34375,17.015625 C10.5625,15.859375 11.921875,13.84375 12.09375,12.21875 C13.65625,10.9375 14.96875,14.78125 9.625,17.234375 Z M6.3125,16.609375 L6,16.484375 C6.546875,15.453125 7.0625,13.84375 6.9375,12.59375 C8.234375,11.203125 9.984375,14.15625 6.3125,16.609375 Z M19.75,19.6875 C18.3125,17.40625 16.3125,15.265625 14.1875,13.75 L14.46875,13.375 C16.921875,14.546875 19.34375,16.34375 21.078125,18.171875 C21.59375,18.09375 21.796875,18.140625 21.9375,18.390625 Z M20.25,13.6875 C18.703125,10.9375 16.515625,8.640625 14.015625,6.953125 L14.25,6.546875 C17.15625,7.890625 19.78125,9.90625 21.640625,12.265625 C22.15625,12.171875 22.375,12.21875 22.515625,12.484375 Z M20.921875,6.8125 C18.859375,2.96875 15.984375,0.4375 12.40625,-1.390625 L12.625,-1.796875 C16.703125,-0.359375 19.890625,1.921875 22.3125,5.421875 C22.875,5.328125 23.109375,5.421875 23.234375,5.640625 Z M6.90625,11.546875 L6.90625,8.296875 L1.296875,8.296875 L1.484375,7.578125 L6.171875,7.578125 C5.0625,4.84375 3.21875,2.1875 0.859375,0.265625 L1.109375,-0.09375 C3.53125,1.375 5.5,3.21875 6.90625,5.40625 L6.90625,-1.875 L7.21875,-1.875 C7.796875,-1.875 8.46875,-1.515625 8.46875,-1.3125 L8.46875,5.59375 C9.890625,4.65625 11.609375,3.09375 12.1875,1.828125 C13.96875,0.84375 14.765625,4.484375 8.46875,5.96875 L8.46875,7.578125 L13.53125,7.578125 C13.84375,7.578125 14.0625,7.703125 14.140625,7.96875 C13.390625,8.6875 12.171875,9.625 12.171875,9.625 L11.109375,8.296875 L8.46875,8.296875 L8.46875,10.625 C9.046875,10.734375 9.265625,10.9375 9.3125,11.28125 Z M3.09375,18.390625 C2.828125,15.671875 2.0625,13.125 1.015625,11.328125 L1.375,11.109375 C2.875,12.484375 4.015625,14.640625 4.6875,17.140625 C7.3125,17.328125 10.125,17.828125 11.953125,18.28125 C12.5,18.078125 12.90625,18.046875 13.15625,18.265625 L11.28125,19.984375 C9.953125,19.296875 7.609375,18.4375 5.375,17.859375 Z" transform="translate(-0.046875, 19.984375) scale(1, -1)"/>
</svg>