<svg height="22.03125" viewBox="0 0 24 22.03125" width="24" xmlns="http://www.w3.org/2000/svg">
<path d="M20.296875,5.46875 C15.984375,1.265625 10.703125,-0.390625 4.84375,-1.484375 L4.96875,-1.96875 C11.1875,-1.21875 16.484375,0.171875 21.21875,3.984375 C21.765625,3.8125 22.03125,3.859375 22.21875,4.078125 Z M16.296875,11.515625 C14.234375,9.90625 10.171875,8.0625 6.765625,7.078125 L6.953125,6.703125 C10.6875,7.3125 14.90625,8.734375 17.15625,10.078125 C17.640625,9.859375 17.859375,9.90625 18.078125,10.125 Z M18.3125,8.8125 C15.890625,6.578125 10.921875,4.34375 6.5,3.265625 L6.640625,2.875 C11.46875,3.59375 16.53125,5.46875 19.171875,7.375 C19.6875,7.15625 19.890625,7.203125 20.09375,7.421875 Z M6.640625,16.578125 L6.546875,16.15625 C8.296875,15.765625 9.9375,15.28125 11.40625,14.765625 C9.59375,14.015625 7.5625,13.390625 5.5625,13.015625 L5.6875,12.578125 C8.234375,12.859375 10.75,13.4375 12.90625,14.1875 C14.328125,13.578125 15.484375,12.984375 16.203125,12.484375 C17.375,12.171875 17.875,13.578125 14.8125,14.90625 C15.5,15.1875 16.15625,15.5 16.6875,15.8125 C17.25,15.703125 17.640625,15.75 17.8125,15.953125 L16.53125,16.796875 L21.1875,16.796875 C21.53125,16.796875 21.75,16.921875 21.8125,17.1875 C21.03125,17.921875 19.703125,18.90625 19.703125,18.90625 L18.578125,17.5 L12.796875,17.5 L12.796875,19.21875 C13.3125,19.3125 13.53125,19.53125 13.578125,19.84375 L11.234375,20.0625 L11.234375,17.5 L2.5,17.5 L2.71875,16.796875 L15.234375,16.796875 C14.640625,16.375 13.875,15.9375 13.0625,15.5 C11.5,15.953125 9.40625,16.34375 6.640625,16.578125 Z M1.265625,12.359375 L1.484375,11.65625 L4.421875,11.65625 C4.375,6.984375 4.171875,2.25 0.84375,-1.421875 L1.203125,-1.796875 C5.546875,1.703125 5.90625,6.59375 6.03125,11.65625 L22.125,11.65625 C22.46875,11.65625 22.703125,11.78125 22.78125,12.046875 C21.953125,12.765625 20.609375,13.796875 20.609375,13.796875 L19.484375,12.359375 Z" transform="translate(0.1875, 20.0625) scale(1, -1)"/>
</svg>