<svg height="21.921875" viewBox="0 0 24 21.921875" width="24" xmlns="http://www.w3.org/2000/svg">
<path d="M5.921875,20.046875 C4.96875,18.234375 2.90625,15.59375 0.90625,13.890625 L1.203125,13.609375 C3.625,14.953125 5.96875,17.0625 7.296875,18.671875 C7.828125,18.546875 8.046875,18.671875 8.1875,18.90625 Z M7.34375,-0.3125 L7.53125,-1.015625 L22.625,-1.015625 C22.96875,-1.015625 23.15625,-0.890625 23.234375,-0.640625 C22.46875,0.09375 21.21875,1.078125 21.21875,1.078125 L20.09375,-0.3125 L15.703125,-0.3125 L15.703125,4.796875 L21.359375,4.796875 C21.703125,4.796875 21.90625,4.921875 21.984375,5.1875 C21.21875,5.90625 19.96875,6.890625 19.96875,6.890625 L18.890625,5.515625 L15.703125,5.515625 L15.703125,8.46875 C16.21875,8.5625 16.4375,8.765625 16.484375,9.078125 L14.109375,9.3125 L14.109375,5.515625 L8.46875,5.515625 L8.65625,4.796875 L14.109375,4.796875 L14.109375,-0.3125 Z M18.4375,17.859375 C17.640625,16.3125 16.515625,14.90625 15.140625,13.609375 C13.625,14.765625 12.40625,16.171875 11.59375,17.859375 Z M8.6875,18.546875 L8.90625,17.859375 L11.046875,17.859375 C11.8125,15.84375 12.890625,14.203125 14.25,12.84375 C12.34375,11.25 9.984375,9.9375 7.3125,8.96875 L7.53125,8.609375 C10.515625,9.40625 13.0625,10.578125 15.140625,12.046875 C16.96875,10.5625 19.171875,9.484375 21.765625,8.734375 C21.984375,9.453125 22.484375,9.890625 23.1875,10.015625 L23.1875,10.265625 C20.59375,10.78125 18.21875,11.640625 16.25,12.859375 C17.953125,14.25 19.296875,15.859375 20.296875,17.640625 C20.875,17.65625 21.171875,17.734375 21.359375,17.953125 L19.609375,19.5625 L18.5,18.546875 Z M6.34375,15.265625 C5.25,12.84375 2.953125,9.34375 0.640625,7.03125 L0.90625,6.75 C2.015625,7.53125 3.09375,8.46875 4.078125,9.453125 L4.078125,-1.875 L4.375,-1.875 C4.96875,-1.875 5.609375,-1.46875 5.640625,-1.296875 L5.640625,10.15625 C6.03125,10.25 6.234375,10.390625 6.34375,10.609375 L5.453125,10.9375 C6.359375,12 7.125,13.03125 7.703125,13.921875 C8.296875,13.828125 8.515625,13.9375 8.640625,14.203125 Z" transform="translate(0.0625, 20.046875) scale(1, -1)"/>
</svg>