<svg height="21.96875" viewBox="0 0 24 21.96875" width="24" xmlns="http://www.w3.org/2000/svg">
<path d="M5.96875,20.09375 C4.96875,18.28125 2.921875,15.578125 1.03125,13.796875 L1.3125,13.515625 C3.625,14.96875 5.953125,17.109375 7.265625,18.671875 C7.828125,18.546875 8.015625,18.671875 8.1875,18.890625 Z M6.3125,15.40625 C5.28125,12.984375 3.03125,9.453125 0.796875,7.125 L1.03125,6.84375 C2.140625,7.625 3.1875,8.59375 4.15625,9.578125 L4.15625,-1.875 L4.4375,-1.875 C5.046875,-1.875 5.6875,-1.46875 5.71875,-1.3125 L5.71875,10.421875 C6.09375,10.484375 6.3125,10.625 6.40625,10.84375 L5.59375,11.1875 C6.4375,12.1875 7.15625,13.15625 7.6875,14.015625 C8.25,13.921875 8.46875,14.046875 8.609375,14.296875 Z M14.65625,11.421875 L14.65625,0.890625 C13.015625,1.625 11.828125,2.96875 10.96875,5.296875 C11.28125,6.5 11.46875,7.734375 11.59375,8.90625 C12.125,8.921875 12.390625,9.140625 12.453125,9.5 L9.9375,9.90625 C9.84375,5.90625 8.96875,1.25 6.3125,-1.5625 L6.546875,-1.84375 C8.734375,-0.21875 10.015625,2.109375 10.75,4.5625 C12.3125,-0.265625 14.921875,-1.515625 19.53125,-1.515625 C20.296875,-1.515625 21.890625,-1.515625 22.578125,-1.515625 C22.609375,-0.84375 22.890625,-0.3125 23.453125,-0.234375 L23.453125,0.09375 C22.4375,0.078125 20.5625,0.078125 19.703125,0.078125 C18.390625,0.078125 17.234375,0.140625 16.21875,0.390625 L16.21875,6.34375 L22.03125,6.34375 C22.375,6.34375 22.578125,6.453125 22.65625,6.71875 C21.859375,7.421875 20.609375,8.421875 20.609375,8.421875 L19.515625,7.03125 L16.21875,7.03125 L16.21875,10.53125 C16.78125,10.609375 16.96875,10.84375 17.015625,11.1875 Z M11.5,20.09375 C10.890625,17.234375 9.453125,13.3125 7.3125,10.796875 L7.578125,10.515625 C9.390625,11.953125 10.78125,13.9375 11.78125,15.890625 C12.59375,15.125 13.421875,14.0625 13.65625,13.171875 C15.125,12.1875 16.21875,14.96875 12.078125,16.46875 C12.484375,17.296875 12.84375,18.140625 13.109375,18.90625 C13.734375,18.859375 13.921875,19.03125 13.984375,19.296875 Z M18.265625,20.09375 C17.65625,17.421875 16.203125,13.796875 14.109375,11.515625 L14.375,11.234375 C16.015625,12.453125 17.359375,14.15625 18.390625,15.84375 C19.65625,14.765625 21.09375,13.21875 21.59375,11.96875 C23.28125,10.984375 24.171875,14.359375 18.640625,16.3125 C19.15625,17.203125 19.578125,18.09375 19.890625,18.890625 C20.453125,18.859375 20.65625,19.015625 20.765625,19.265625 Z" transform="translate(-0.484375, 20.09375) scale(1, -1)"/>
</svg>