<svg height="21.984375" viewBox="0 0 24 21.984375" width="24" xmlns="http://www.w3.org/2000/svg">
<path d="M5.90625,20.109375 C4.921875,18.28125 2.828125,15.578125 0.890625,13.796875 L1.171875,13.515625 C3.53125,14.953125 5.859375,17.09375 7.171875,18.640625 C7.703125,18.53125 7.921875,18.625 8.0625,18.890625 Z M10.625,19.921875 L10.34375,19.75 C11.25,18.59375 12.359375,16.78125 12.578125,15.34375 C14.109375,14.0625 15.53125,17.453125 10.625,19.921875 Z M6.40625,15.34375 C5.328125,12.8125 3.03125,9.171875 0.703125,6.75 L0.953125,6.453125 C2.09375,7.296875 3.1875,8.296875 4.171875,9.359375 L4.171875,-1.875 L4.46875,-1.875 C5.0625,-1.875 5.71875,-1.46875 5.734375,-1.3125 L5.734375,10.4375 C6.09375,10.515625 6.34375,10.65625 6.4375,10.875 L5.734375,11.140625 C6.546875,12.140625 7.21875,13.109375 7.75,13.9375 C8.359375,13.84375 8.5625,13.96875 8.6875,14.203125 Z M18.953125,20.09375 C18.390625,18.4375 17.359375,16.15625 16.46875,14.546875 L8.921875,14.546875 L9.125,13.828125 L14.78125,13.828125 L14.78125,0.984375 C13.109375,1.703125 11.875,3.046875 11.015625,5.421875 C11.296875,6.75 11.453125,8.0625 11.546875,9.359375 C12.078125,9.4375 12.3125,9.625 12.390625,10.015625 L9.890625,10.296875 C9.9375,6.078125 9.1875,1.265625 6.40625,-1.609375 L6.671875,-1.875 C8.921875,-0.21875 10.15625,2.140625 10.828125,4.65625 C12.359375,-0.078125 14.90625,-1.296875 19.421875,-1.296875 C20.1875,-1.296875 21.84375,-1.296875 22.5625,-1.296875 C22.578125,-0.640625 22.875,-0.140625 23.421875,-0.046875 L23.421875,0.28125 C22.390625,0.265625 20.453125,0.265625 19.5625,0.265625 C18.34375,0.265625 17.28125,0.34375 16.3125,0.53125 L16.3125,7.515625 L21.796875,7.515625 C22.125,7.515625 22.375,7.625 22.421875,7.890625 C21.640625,8.640625 20.40625,9.625 20.40625,9.625 L19.296875,8.234375 L16.3125,8.234375 L16.3125,13.828125 L22.609375,13.828125 C22.921875,13.828125 23.140625,13.9375 23.203125,14.203125 C22.4375,14.953125 21.171875,15.9375 21.171875,15.9375 L20.046875,14.546875 L17.046875,14.546875 C18.390625,15.84375 19.703125,17.546875 20.515625,18.859375 C21.03125,18.8125 21.328125,19.015625 21.453125,19.296875 Z" transform="translate(-0.0625, 20.109375) scale(1, -1)"/>
</svg>