<svg height="21.96875" viewBox="0 0 24 21.96875" width="24" xmlns="http://www.w3.org/2000/svg">
<path d="M5.875,20.09375 C4.875,18.265625 2.8125,15.453125 0.90625,13.609375 L1.203125,13.3125 C3.5,14.859375 5.828125,17.09375 7.15625,18.671875 C7.703125,18.53125 7.890625,18.640625 8.0625,18.890625 Z M8.109375,18.3125 L8.296875,17.609375 L22.484375,17.609375 C22.828125,17.609375 23.046875,17.734375 23.09375,18 C22.3125,18.71875 21.09375,19.6875 21.09375,19.6875 L20.015625,18.3125 Z M10.625,16.84375 C10.3125,16.03125 9.171875,13.734375 8.46875,12.453125 C9.75,11.109375 10.53125,9.171875 10.734375,8.015625 C11.96875,6.984375 13.65625,9.75 9.09375,12.53125 C10.015625,13.515625 11.453125,15.234375 12.03125,15.90625 C12.40625,15.84375 12.625,15.953125 12.703125,16.171875 Z M15.046875,16.875 C14.765625,16.03125 13.578125,13.734375 12.890625,12.453125 C14.203125,11.140625 15.140625,9.171875 15.390625,8.015625 C16.625,7.015625 18.3125,9.796875 13.53125,12.53125 C14.453125,13.515625 15.90625,15.234375 16.46875,15.90625 C16.84375,15.84375 17.0625,15.984375 17.140625,16.171875 Z M19.53125,16.890625 C19.203125,16.078125 17.96875,13.796875 17.25,12.546875 C18.59375,11.234375 19.515625,9.3125 19.75,8.15625 C21,7.15625 22.6875,9.90625 17.953125,12.625 C18.84375,13.5625 20.328125,15.28125 20.875,15.953125 C21.28125,15.890625 21.5,15.984375 21.59375,16.203125 Z M6.390625,15.28125 C5.296875,12.84375 3.046875,9.21875 0.796875,6.84375 L1.078125,6.546875 C2.09375,7.3125 3.078125,8.234375 3.984375,9.171875 L3.984375,-1.875 L4.296875,-1.875 C4.890625,-1.875 5.515625,-1.46875 5.546875,-1.3125 L5.546875,10.34375 C5.953125,10.421875 6.140625,10.578125 6.234375,10.796875 L5.640625,11.046875 C6.484375,12.046875 7.203125,13.03125 7.75,13.875 C8.328125,13.78125 8.546875,13.875 8.6875,14.140625 Z M6.796875,-0.546875 L6.984375,-1.25 L22.75,-1.25 C23.09375,-1.25 23.296875,-1.125 23.375,-0.859375 C22.578125,-0.140625 21.3125,0.859375 21.3125,0.859375 L20.203125,-0.546875 L15.71875,-0.546875 L15.71875,5.421875 L21.859375,5.421875 C22.171875,5.421875 22.421875,5.546875 22.484375,5.78125 C21.703125,6.53125 20.453125,7.515625 20.453125,7.515625 L19.34375,6.125 L8.296875,6.125 L8.5,5.421875 L14.140625,5.421875 L14.140625,-0.546875 Z" transform="translate(-0.0859375, 20.09375) scale(1, -1)"/>
</svg>