<svg height="21.96875" viewBox="0 0 24 21.96875" width="24" xmlns="http://www.w3.org/2000/svg">
<path d="M7.484375,7.46875 L7.6875,6.765625 L22.5625,6.765625 C22.890625,6.765625 23.109375,6.890625 23.1875,7.15625 C22.375,7.84375 21.125,8.78125 21.125,8.78125 L19.984375,7.46875 Z M11.375,5.296875 L11.375,0.046875 C11.375,-1.015625 11.6875,-1.34375 13.375,-1.34375 L15.53125,-1.34375 C18.765625,-1.34375 19.46875,-1.078125 19.46875,-0.4375 C19.46875,-0.140625 19.34375,0.03125 18.859375,0.1875 L18.796875,2.734375 L18.453125,2.734375 C18.265625,1.625 18.03125,0.578125 17.859375,0.265625 C17.78125,0.046875 17.6875,0.03125 17.453125,0 C17.1875,-0.03125 16.515625,-0.03125 15.59375,-0.03125 L13.65625,-0.03125 C12.90625,-0.03125 12.84375,0.046875 12.84375,0.34375 L12.84375,4.46875 C13.265625,4.53125 13.515625,4.75 13.53125,5.046875 Z M13.265625,6.4375 L13.03125,6.21875 C14.046875,5.46875 15.3125,4.15625 15.671875,3.03125 C17.25,2.140625 18.1875,5.359375 13.265625,6.4375 Z M18.9375,5.09375 L18.671875,4.890625 C19.9375,3.703125 21.453125,1.625 21.703125,-0.03125 C23.359375,-1.3125 24.625,2.5625 18.9375,5.09375 Z M9.3125,4.578125 C9.171875,3.171875 8.109375,1.78125 7.265625,1.25 C6.796875,0.90625 6.53125,0.40625 6.796875,-0.046875 C7.078125,-0.546875 7.96875,-0.40625 8.453125,0.046875 C9.234375,0.71875 10.078125,2.28125 9.71875,4.5625 Z M5.828125,20.09375 C4.84375,18.140625 2.8125,15.3125 0.859375,13.46875 L1.125,13.171875 C3.5,14.6875 5.8125,16.984375 7.125,18.703125 C7.65625,18.546875 7.84375,18.671875 8.015625,18.90625 Z M14.328125,19.984375 L14.203125,17.0625 L7.625,17.0625 L7.828125,16.375 L14.1875,16.375 L14.046875,14.359375 L10.5625,14.359375 L8.8125,15.09375 L8.8125,8.328125 L9.03125,8.328125 C9.796875,8.328125 10.265625,8.65625 10.265625,8.78125 L10.265625,9.34375 L19.921875,9.34375 L19.921875,8.65625 L20.15625,8.65625 C20.875,8.65625 21.453125,9 21.453125,9.09375 L21.453125,13.578125 C21.890625,13.65625 22.125,13.75 22.296875,13.9375 L20.609375,15.234375 L19.84375,14.359375 L15.3125,14.359375 L15.578125,16.375 L22.484375,16.375 C22.828125,16.375 23.046875,16.484375 23.109375,16.75 C22.296875,17.46875 21.03125,18.484375 21.03125,18.484375 L19.890625,17.0625 L15.671875,17.0625 L15.90625,19.15625 C16.421875,19.203125 16.6875,19.4375 16.734375,19.796875 Z M10.265625,10.0625 L10.265625,13.65625 L12.625,13.65625 L12.625,10.0625 Z M19.921875,10.0625 L17.5625,10.0625 L17.5625,13.65625 L19.921875,13.65625 Z M13.9375,13.65625 L16.25,13.65625 L16.25,10.0625 L13.9375,10.0625 Z M5.71875,15.234375 C4.828125,12.640625 2.875,8.875 0.75,6.40625 L1.015625,6.125 C2.140625,7.0625 3.1875,8.15625 4.125,9.3125 L4.125,-1.875 L4.421875,-1.875 C5.015625,-1.875 5.65625,-1.46875 5.6875,-1.3125 L5.6875,10.34375 C6.046875,10.421875 6.28125,10.578125 6.390625,10.796875 L5.5,11.140625 C6.140625,12.125 6.71875,13.0625 7.171875,13.875 C7.75,13.828125 7.96875,13.921875 8.09375,14.1875 Z" transform="translate(-0.6875, 20.09375) scale(1, -1)"/>
</svg>