<svg height="22.03125" viewBox="0 0 24 22.03125" width="24" xmlns="http://www.w3.org/2000/svg">
<path d="M12.671875,3.90625 L12.390625,3.75 C13.078125,3 13.875,1.796875 14.09375,0.859375 C15.4375,-0.09375 16.625,2.515625 12.671875,3.90625 Z M8.234375,4.015625 C7.75,2.25 7.015625,0.546875 6.234375,-0.578125 L6.59375,-0.8125 C7.65625,0.046875 8.65625,1.421875 9.359375,2.875 C9.859375,2.859375 10.125,3.078125 10.25,3.3125 Z M4.921875,20.09375 C4.171875,18.390625 2.59375,15.84375 1.0625,14.15625 L1.34375,13.875 C3.28125,15.234375 5.140625,17.28125 6.171875,18.71875 C6.75,18.625 6.9375,18.75 7.078125,18.984375 Z M17.65625,20.0625 C17.109375,16.109375 15.953125,12.078125 14.609375,9.3125 L15,9.09375 C15.546875,9.84375 16.078125,10.6875 16.53125,11.609375 C16.78125,9 17.1875,6.546875 17.875,4.375 C16.78125,2.109375 15.1875,0.125 12.9375,-1.625 L13.203125,-1.9375 C15.484375,-0.53125 17.15625,1.109375 18.40625,3 C19.203125,1.078125 20.296875,-0.578125 21.84375,-1.84375 C22.0625,-1.125 22.578125,-0.765625 23.25,-0.640625 L23.328125,-0.40625 C21.5,0.75 20.15625,2.359375 19.171875,4.296875 C20.640625,7.0625 21.359375,10.296875 21.703125,14.015625 L22.6875,14.015625 C23.015625,14.015625 23.203125,14.140625 23.28125,14.40625 C22.5625,15.09375 21.4375,15.9375 21.4375,15.9375 L20.46875,14.734375 L17.875,14.734375 C18.359375,16.109375 18.765625,17.546875 19.109375,19.015625 C19.65625,19.03125 19.921875,19.265625 19.984375,19.5625 Z M16.921875,12.390625 C17.15625,12.90625 17.40625,13.46875 17.609375,14.015625 L20.1875,14.015625 C19.96875,10.96875 19.484375,8.234375 18.5,5.78125 C17.734375,7.75 17.25,9.984375 16.921875,12.390625 Z M12.890625,7.78125 L12.625,7.609375 C12.953125,7.21875 13.34375,6.71875 13.65625,6.1875 L9.8125,5.921875 C11.25,7.15625 12.625,8.59375 13.46875,9.59375 C13.984375,9.453125 14.1875,9.578125 14.359375,9.8125 L12.484375,10.84375 C11.765625,9.484375 10.296875,7.421875 8.921875,5.875 L6.5,5.78125 L7.078125,4.015625 C7.3125,4.03125 7.53125,4.171875 7.6875,4.46875 L10.5625,5.015625 L10.5625,-1.828125 L10.78125,-1.828125 C11.46875,-1.828125 11.953125,-1.484375 11.953125,-1.390625 L11.953125,5.296875 L13.9375,5.71875 C14.1875,5.25 14.375,4.78125 14.46875,4.375 C15.796875,3.359375 16.984375,6.03125 12.890625,7.78125 Z M5.1875,15.265625 C4.375,12.953125 2.59375,9.4375 0.796875,7.0625 L1.078125,6.796875 C1.921875,7.5625 2.734375,8.453125 3.484375,9.390625 L3.484375,-1.875 L3.765625,-1.875 C4.3125,-1.875 4.9375,-1.515625 4.96875,-1.390625 L4.96875,10.3125 C5.375,10.390625 5.59375,10.53125 5.6875,10.75 L4.78125,11.109375 C5.46875,12.125 6.078125,13.109375 6.53125,13.921875 C7.078125,13.828125 7.296875,13.921875 7.421875,14.15625 L7.46875,14.15625 C7.9375,14.15625 8.515625,14.453125 8.515625,14.609375 L8.515625,14.96875 L14.015625,14.96875 L14.015625,14.546875 L14.25,14.546875 C14.765625,14.546875 15.3125,14.8125 15.3125,14.96875 L15.3125,18.078125 C15.84375,18.140625 16.03125,18.34375 16.078125,18.640625 L14.015625,18.859375 L14.015625,15.671875 L11.96875,15.671875 L11.96875,19.171875 C12.484375,19.265625 12.671875,19.484375 12.71875,19.78125 L10.609375,19.984375 L10.609375,15.671875 L8.515625,15.671875 L8.515625,18.078125 C9.046875,18.140625 9.234375,18.34375 9.28125,18.640625 L7.21875,18.859375 L7.21875,14.328125 Z M6.859375,13.25 L7.0625,12.53125 L10.296875,12.53125 C10.03125,11.734375 9.53125,10.65625 9.03125,9.8125 C8.59375,10.078125 8.015625,10.296875 7.25,10.46875 L7.03125,10.265625 C7.78125,9.640625 8.65625,8.5625 8.921875,7.6875 C9.984375,7.03125 10.828125,8.375 9.5,9.5 C10.296875,10.15625 11.0625,10.984375 11.546875,11.59375 C12.09375,11.46875 12.265625,11.5625 12.40625,11.828125 L11.0625,12.53125 L15.265625,12.53125 C15.578125,12.53125 15.796875,12.640625 15.859375,12.90625 C15.1875,13.53125 14.1875,14.296875 14.1875,14.296875 L13.296875,13.25 Z" transform="translate(-0.0625, 20.09375) scale(1, -1)"/>
</svg>