<svg height="21.96875" viewBox="0 0 24 21.96875" width="24" xmlns="http://www.w3.org/2000/svg">
<path d="M5.015625,20.09375 C4.21875,18.390625 2.59375,15.8125 0.953125,14.140625 L1.25,13.84375 C3.28125,15.1875 5.203125,17.234375 6.3125,18.703125 C6.859375,18.578125 7.0625,18.703125 7.21875,18.9375 Z M13.53125,10.0625 C12.03125,9.34375 9.171875,8.421875 6.84375,7.96875 L6.984375,7.515625 C8.046875,7.578125 9.171875,7.734375 10.265625,7.890625 L10.265625,5.640625 L6.234375,5.640625 L6.4375,4.921875 L10.265625,4.921875 L10.265625,2.1875 C8.765625,1.921875 7.515625,1.734375 6.796875,1.625 L7.46875,-0.09375 C7.6875,-0.03125 7.890625,0.171875 7.984375,0.453125 C11.140625,1.34375 13.5625,2.15625 15.34375,2.71875 L15.234375,3.09375 L11.734375,2.453125 L11.734375,4.921875 L15.40625,4.921875 C15.71875,4.921875 15.953125,5.046875 16.03125,5.296875 C15.359375,5.953125 14.328125,6.796875 14.328125,6.796875 L13.4375,5.640625 L11.734375,5.640625 L11.734375,8.15625 C12.578125,8.328125 13.34375,8.5 13.96875,8.65625 C14.46875,8.46875 14.859375,8.453125 15.046875,8.640625 Z M5.40625,15.28125 C4.53125,12.9375 2.609375,9.4375 0.625,7.15625 L0.890625,6.859375 C1.828125,7.609375 2.71875,8.5 3.53125,9.40625 L3.53125,-1.875 L3.796875,-1.875 C4.34375,-1.875 4.984375,-1.53125 5.015625,-1.390625 L5.015625,9.625 C5.421875,9.703125 5.65625,9.859375 5.765625,10.078125 L4.46875,10.53125 C5.40625,11.71875 6.1875,12.890625 6.765625,13.875 L7.109375,13.84375 L7.109375,12.21875 L7.34375,12.21875 C7.875,12.21875 8.453125,12.53125 8.453125,12.703125 L8.453125,13.53125 L13.6875,13.53125 L13.6875,12.59375 L13.9375,12.59375 C14.46875,12.59375 15.046875,12.90625 15.046875,13.078125 L15.046875,17.59375 C15.625,17.6875 15.84375,17.90625 15.890625,18.234375 L13.6875,18.4375 L13.6875,14.25 L11.765625,14.25 L11.765625,19.015625 C12.265625,19.109375 12.484375,19.3125 12.53125,19.625 L10.34375,19.84375 L10.34375,14.25 L8.453125,14.25 L8.453125,17.515625 C9.03125,17.609375 9.234375,17.828125 9.28125,18.171875 L7.109375,18.390625 L7.109375,14.40625 Z M17.5,20.0625 C17.109375,17.046875 16.421875,13.890625 15.53125,11.375 C14.921875,11.90625 14.25,12.40625 14.25,12.40625 L13.375,11.328125 L6.53125,11.328125 L6.71875,10.625 L15.265625,10.625 L14.765625,9.453125 L15.171875,9.234375 C15.671875,9.9375 16.125,10.734375 16.53125,11.609375 C16.78125,9.046875 17.15625,6.640625 17.828125,4.5625 C16.515625,2.15625 14.515625,0.1875 11.46875,-1.53125 L11.6875,-1.875 C14.734375,-0.53125 16.875,1.109375 18.359375,3.125 C19.171875,1.15625 20.359375,-0.5 21.984375,-1.75 C22.203125,-1.03125 22.703125,-0.640625 23.375,-0.53125 L23.453125,-0.3125 C21.53125,0.796875 20.15625,2.375 19.15625,4.3125 C20.71875,7.015625 21.390625,10.265625 21.671875,14.28125 L22.828125,14.28125 C23.140625,14.28125 23.359375,14.40625 23.40625,14.65625 C22.734375,15.34375 21.578125,16.296875 21.578125,16.296875 L20.5625,14.96875 L17.875,14.96875 C18.3125,16.265625 18.671875,17.640625 18.953125,19.03125 C19.484375,19.0625 19.75,19.296875 19.828125,19.578125 Z M16.921875,12.4375 C17.1875,13.03125 17.421875,13.65625 17.640625,14.28125 L20.109375,14.28125 C19.9375,11.015625 19.484375,8.25 18.453125,5.828125 C17.6875,7.796875 17.234375,10.03125 16.921875,12.4375 Z" transform="translate(-0.0390625, 20.09375) scale(1, -1)"/>
</svg>