<svg height="21.984375" viewBox="0 0 24 21.984375" width="24" xmlns="http://www.w3.org/2000/svg">
<path d="M4.890625,20.0625 C4.109375,18.390625 2.515625,15.8125 0.953125,14.140625 L1.25,13.828125 C3.21875,15.1875 5.109375,17.203125 6.171875,18.671875 C6.75,18.546875 6.9375,18.671875 7.109375,18.90625 Z M17.375,19.96875 C17.046875,16.4375 16.25,12.859375 15.1875,10.125 C14.5,10.75 13.625,11.453125 13.625,11.453125 L12.625,10.203125 L6.640625,10.203125 L6.84375,9.484375 L9.984375,9.484375 L9.984375,6.3125 L7.015625,6.3125 L7.203125,5.640625 L9.984375,5.640625 L9.984375,1.96875 C8.375,1.625 7.0625,1.390625 6.265625,1.265625 L6.984375,-0.546875 C7.203125,-0.484375 7.4375,-0.28125 7.515625,0 C10.9375,1.109375 13.578125,2.09375 15.5,2.765625 L15.4375,3.140625 L11.453125,2.28125 L11.453125,5.640625 L14.6875,5.640625 C15,5.640625 15.234375,5.734375 15.3125,6 C14.609375,6.671875 13.53125,7.5625 13.53125,7.5625 L12.578125,6.3125 L11.453125,6.3125 L11.453125,9.484375 L14.828125,9.484375 L14.921875,9.484375 L14.734375,9.03125 L15.125,8.828125 C15.59375,9.5 16.03125,10.265625 16.4375,11.09375 C16.703125,8.828125 17.140625,6.640625 17.859375,4.65625 C16.5625,2.234375 14.5625,0.1875 11.515625,-1.53125 L11.734375,-1.875 C14.8125,-0.5 16.9375,1.15625 18.40625,3.21875 C19.265625,1.25 20.46875,-0.5 22.125,-1.921875 C22.3125,-1.109375 22.703125,-0.5 23.203125,-0.3125 L23.28125,-0.09375 C21.53125,1.03125 20.203125,2.59375 19.203125,4.421875 C20.6875,7.078125 21.3125,10.3125 21.59375,14.25 L22.78125,14.25 C23.109375,14.25 23.359375,14.375 23.40625,14.640625 C22.65625,15.34375 21.484375,16.25 21.484375,16.25 L20.46875,14.953125 L17.921875,14.953125 C18.3125,16.21875 18.625,17.5625 18.890625,18.90625 C19.421875,18.953125 19.65625,19.203125 19.75,19.484375 Z M5.359375,15.265625 C4.46875,12.90625 2.59375,9.40625 0.625,7.125 L0.890625,6.84375 C1.828125,7.578125 2.71875,8.46875 3.5,9.40625 L3.5,-1.875 L3.796875,-1.875 C4.34375,-1.875 4.96875,-1.53125 4.984375,-1.390625 L4.984375,9.625 C5.421875,9.703125 5.640625,9.859375 5.734375,10.078125 L4.4375,10.53125 C5.359375,11.71875 6.140625,12.890625 6.703125,13.84375 C6.890625,13.828125 7.03125,13.796875 7.15625,13.828125 L7.15625,11.25 L7.390625,11.25 C7.890625,11.25 8.5,11.546875 8.5,11.71875 L8.5,12.578125 L13.46875,12.578125 L13.46875,11.78125 L13.734375,11.78125 C14.234375,11.78125 14.8125,12.078125 14.8125,12.265625 L14.8125,17.546875 C15.359375,17.640625 15.578125,17.828125 15.640625,18.171875 L13.46875,18.390625 L13.46875,13.296875 L11.5625,13.296875 L11.5625,19.125 C12.09375,19.21875 12.265625,19.4375 12.3125,19.734375 L10.25,19.9375 L10.25,13.296875 L8.5,13.296875 L8.5,17.5 C9.046875,17.59375 9.265625,17.78125 9.34375,18.125 L7.15625,18.34375 L7.15625,14.359375 Z M17.71875,14.25 L20.015625,14.25 C19.875,11.0625 19.4375,8.328125 18.453125,5.953125 C17.6875,7.75 17.15625,9.765625 16.796875,11.875 C17.140625,12.625 17.421875,13.421875 17.71875,14.25 Z" transform="translate(-0.015625, 20.0625) scale(1, -1)"/>
</svg>