<svg height="21.984375" viewBox="0 0 24 21.984375" width="24" xmlns="http://www.w3.org/2000/svg">
<path d="M5.875,20.109375 L5.875,-1.875 L6.1875,-1.875 C6.796875,-1.875 7.4375,-1.515625 7.4375,-1.296875 L7.4375,19.171875 C8.046875,19.265625 8.234375,19.53125 8.296875,19.875 Z M3.5,15.34375 C3.4375,13.53125 2.5625,11.5625 1.78125,10.78125 C1.296875,10.375 1.0625,9.796875 1.375,9.34375 C1.78125,8.8125 2.65625,9.03125 3.171875,9.640625 C3.90625,10.53125 4.515625,12.625 3.90625,15.34375 Z M8.46875,16.4375 L8.1875,16.265625 C9,15.234375 9.890625,13.609375 10.015625,12.28125 C11.5,10.984375 13.03125,14.28125 8.46875,16.4375 Z" transform="translate(4.953125, 20.109375) scale(1, -1)"/>
</svg>