<svg height="20.734375" viewBox="0 0 24 20.734375" width="24" xmlns="http://www.w3.org/2000/svg">
<path d="M9.546875,8.234375 L9.28125,7.984375 C10.734375,7.078125 12.484375,5.328125 12.953125,3.84375 C14.8125,2.78125 15.640625,6.796875 9.546875,8.234375 Z M7.21875,6.21875 L7.21875,0.390625 C7.21875,-0.859375 7.65625,-1.203125 9.8125,-1.203125 L13.109375,-1.203125 C17.640625,-1.203125 18.453125,-0.953125 18.453125,-0.1875 C18.453125,0.09375 18.3125,0.28125 17.734375,0.484375 L17.65625,3.40625 L17.375,3.40625 C17.09375,2.0625 16.828125,0.953125 16.625,0.578125 C16.515625,0.34375 16.4375,0.265625 16.078125,0.234375 C15.671875,0.21875 14.5625,0.21875 13.15625,0.21875 L10.015625,0.21875 C8.921875,0.21875 8.8125,0.28125 8.8125,0.640625 L8.8125,5.40625 C9.234375,5.46875 9.453125,5.6875 9.5,5.96875 Z M4.078125,5.765625 C4.15625,3.71875 3.046875,2.015625 1.890625,1.390625 C1.421875,1.078125 1.078125,0.59375 1.3125,0.09375 C1.609375,-0.4375 2.515625,-0.359375 3.140625,0.125 C4.171875,0.84375 5.328125,2.65625 4.484375,5.765625 Z M17.65625,6.140625 L17.40625,5.953125 C19.0625,4.578125 20.953125,2.234375 21.328125,0.3125 C23.28125,-1.109375 24.53125,3.40625 17.65625,6.140625 Z M4.9375,16.03125 L4.84375,15.625 C6.578125,15.140625 8.15625,14.515625 9.5,13.84375 C8.0625,11.109375 5.515625,9.140625 1.375,7.6875 L1.515625,7.296875 C6.171875,8.46875 9.125,10.296875 10.890625,13.125 C12.359375,12.28125 13.484375,11.421875 14.140625,10.734375 C15.703125,10.15625 16.3125,12.578125 11.609375,14.46875 C12.09375,15.484375 12.4375,16.609375 12.703125,17.859375 L19.375,17.859375 C18.984375,13.5625 18.1875,10.5625 17.375,9.890625 C17.09375,9.671875 16.875,9.59375 16.421875,9.59375 C15.859375,9.59375 14.1875,9.765625 13.25,9.84375 L13.21875,9.4375 C14.109375,9.28125 15.03125,9.046875 15.359375,8.8125 C15.703125,8.546875 15.796875,8.140625 15.765625,7.65625 C16.828125,7.65625 17.71875,7.921875 18.40625,8.515625 C19.625,9.53125 20.546875,12.796875 20.90625,17.65625 C21.40625,17.71875 21.703125,17.828125 21.859375,18.03125 L20.0625,19.53125 L19.15625,18.546875 L2.609375,18.546875 L2.828125,17.859375 L10.828125,17.859375 C10.65625,16.828125 10.390625,15.890625 10.0625,15 C8.6875,15.40625 7.015625,15.765625 4.9375,16.03125 Z" transform="translate(-0.8046875, 19.53125) scale(1, -1)"/>
</svg>