<svg height="21.515625" viewBox="0 0 24 21.515625" width="24" xmlns="http://www.w3.org/2000/svg">
<path d="M10.109375,8.359375 L9.859375,8.140625 C11.28125,7.15625 13.0625,5.359375 13.578125,3.890625 C15.4375,2.828125 16.3125,6.703125 10.109375,8.359375 Z M7.296875,6.625 L7.296875,0.234375 C7.296875,-1.03125 7.703125,-1.375 9.890625,-1.375 L13.125,-1.375 C17.640625,-1.375 18.453125,-1.109375 18.453125,-0.34375 C18.453125,-0.046875 18.3125,0.171875 17.734375,0.34375 L17.6875,3.265625 L17.375,3.265625 C17.0625,1.9375 16.828125,0.84375 16.609375,0.4375 C16.515625,0.1875 16.421875,0.125 16.078125,0.09375 C15.671875,0.078125 14.59375,0.078125 13.171875,0.078125 L10.078125,0.078125 C8.96875,0.078125 8.859375,0.171875 8.859375,0.546875 L8.859375,5.78125 C9.3125,5.859375 9.53125,6.078125 9.578125,6.359375 Z M4.203125,6.265625 C4.15625,4.21875 2.96875,2.453125 1.84375,1.78125 C1.375,1.4375 1.0625,0.9375 1.3125,0.453125 C1.625,-0.09375 2.515625,0.03125 3.140625,0.546875 C4.15625,1.265625 5.296875,3.21875 4.625,6.234375 Z M17.90625,6.59375 L17.640625,6.390625 C19.3125,5.0625 21.125,2.734375 21.328125,0.796875 C23.28125,-0.75 24.671875,4.0625 17.90625,6.59375 Z M3.9375,16.734375 L3.9375,11.296875 C3.9375,9.765625 4.578125,9.5 7.609375,9.5 L13.078125,9.5 C20.234375,9.5 21.234375,9.71875 21.234375,10.578125 C21.234375,10.875 20.96875,11.015625 20.234375,11.203125 L20.140625,11.234375 L19.890625,11.234375 C19.65625,11.140625 19.34375,11.09375 19.125,11.0625 C18.90625,11.015625 18.59375,10.96875 18.1875,10.9375 C17.515625,10.921875 15.390625,10.890625 13.15625,10.890625 L7.53125,10.890625 C5.609375,10.890625 5.5,11.046875 5.5,11.5 L5.5,16.015625 L21.671875,16.015625 C22.03125,16.015625 22.25,16.125 22.3125,16.390625 C21.5,17.140625 20.15625,18.1875 20.15625,18.1875 L18.984375,16.734375 L12.71875,16.734375 L12.71875,19.25 C13.3125,19.3125 13.5625,19.5625 13.609375,19.890625 L11.15625,20.140625 L11.15625,16.734375 L5.8125,16.734375 L3.9375,17.515625 Z" transform="translate(-0.8671875, 20.140625) scale(1, -1)"/>
</svg>