<svg height="21.515625" viewBox="0 0 24 21.515625" width="24" xmlns="http://www.w3.org/2000/svg">
<path d="M10.203125,8.28125 L9.953125,8.0625 C11.359375,7.0625 13.125,5.296875 13.65625,3.859375 C15.484375,2.8125 16.375,6.640625 10.203125,8.28125 Z M7.296875,6.625 L7.296875,0.234375 C7.296875,-1.03125 7.703125,-1.375 9.890625,-1.375 L13.125,-1.375 C17.640625,-1.375 18.453125,-1.109375 18.453125,-0.34375 C18.453125,-0.046875 18.3125,0.171875 17.734375,0.34375 L17.6875,3.265625 L17.375,3.265625 C17.0625,1.9375 16.828125,0.84375 16.609375,0.4375 C16.515625,0.1875 16.421875,0.125 16.078125,0.09375 C15.671875,0.078125 14.59375,0.078125 13.171875,0.078125 L10.078125,0.078125 C8.96875,0.078125 8.859375,0.171875 8.859375,0.546875 L8.859375,5.78125 C9.3125,5.859375 9.53125,6.078125 9.578125,6.359375 Z M4.203125,6.265625 C4.15625,4.21875 2.96875,2.453125 1.84375,1.78125 C1.375,1.4375 1.0625,0.9375 1.3125,0.453125 C1.625,-0.09375 2.515625,0.03125 3.140625,0.546875 C4.15625,1.265625 5.296875,3.21875 4.625,6.234375 Z M17.90625,6.59375 L17.640625,6.390625 C19.3125,5.0625 21.125,2.734375 21.328125,0.796875 C23.28125,-0.75 24.671875,4.0625 17.90625,6.59375 Z M1.296875,16.6875 L1.515625,15.953125 L5.5,15.953125 L5.5,11.109375 C5.5,9.671875 6.078125,9.40625 8.828125,9.40625 L13.53125,9.390625 C19.875,9.390625 20.78125,9.578125 20.78125,10.421875 C20.78125,10.734375 20.546875,10.921875 19.84375,11.0625 L19.75,11.09375 L19.515625,11.09375 C19.265625,10.984375 19.015625,10.9375 18.796875,10.921875 C18.59375,10.890625 18.3125,10.875 18,10.828125 C17.328125,10.796875 15.546875,10.78125 13.609375,10.78125 L8.828125,10.78125 C7.203125,10.78125 7.078125,10.890625 7.078125,11.359375 L7.078125,15.953125 L22.171875,15.953125 C22.515625,15.953125 22.75,16.078125 22.828125,16.34375 C21.984375,17.09375 20.640625,18.140625 20.640625,18.140625 L19.46875,16.6875 L12.71875,16.6875 L12.71875,19.25 C13.3125,19.3125 13.5625,19.5625 13.609375,19.890625 L11.15625,20.140625 L11.15625,16.6875 Z" transform="translate(-0.8671875, 20.140625) scale(1, -1)"/>
</svg>