<svg height="21.984375" viewBox="0 0 24 21.984375" width="24" xmlns="http://www.w3.org/2000/svg">
<path d="M4.75,20.109375 L4.75,-1.875 L5.0625,-1.875 C5.640625,-1.875 6.28125,-1.515625 6.28125,-1.296875 L6.28125,19.171875 C6.890625,19.265625 7.078125,19.53125 7.15625,19.875 Z M2.734375,15.484375 C2.78125,13.828125 2.140625,11.90625 1.46875,11.140625 C1.03125,10.703125 0.84375,10.15625 1.15625,9.71875 C1.5625,9.234375 2.421875,9.53125 2.8125,10.125 C3.40625,10.984375 3.8125,12.984375 3.171875,15.453125 Z M6.953125,16.4375 L6.640625,16.296875 C7.25,15.3125 7.875,13.734375 7.890625,12.53125 C9.1875,11.28125 10.734375,14.140625 6.953125,16.4375 Z M10.53125,15 L10.53125,0.984375 C10.53125,-0.578125 11.1875,-0.984375 13.53125,-0.984375 L17.0625,-0.984375 C22.015625,-0.984375 23.015625,-0.75 23.015625,0.03125 C23.015625,0.359375 22.796875,0.5 22.15625,0.71875 L21.765625,0.71875 C21.546875,0.671875 21.3125,0.59375 21.140625,0.578125 C20.953125,0.546875 20.734375,0.53125 20.453125,0.5 C20.015625,0.484375 18.71875,0.453125 17.1875,0.453125 L13.703125,0.453125 C12.3125,0.453125 12.09375,0.671875 12.09375,1.296875 L12.09375,14.296875 L22.578125,14.296875 C22.921875,14.296875 23.140625,14.421875 23.203125,14.6875 C22.421875,15.40625 21.140625,16.421875 21.140625,16.421875 L19.984375,15 L16.875,15 L16.875,18.953125 C17.40625,19.0625 17.59375,19.265625 17.640625,19.578125 L15.3125,19.828125 L15.3125,15 L12.390625,15 L10.53125,15.796875 Z" transform="translate(-0.0234375, 20.109375) scale(1, -1)"/>
</svg>