<svg height="20.984375" viewBox="0 0 24 20.984375" width="24" xmlns="http://www.w3.org/2000/svg">
<path d="M13.3125,15.140625 L13.078125,14.921875 C14.09375,14.109375 15.3125,12.703125 15.640625,11.609375 C17.1875,10.5625 18.34375,13.6875 13.3125,15.140625 Z M10.296875,7.796875 L10.0625,7.578125 C11.421875,6.703125 12.984375,5.015625 13.375,3.578125 C15.171875,2.453125 16.15625,6.40625 10.296875,7.796875 Z M7.34375,5.953125 L7.34375,0.1875 C7.34375,-1.03125 7.75,-1.375 9.890625,-1.375 L13.078125,-1.375 C17.5,-1.375 18.34375,-1.125 18.34375,-0.390625 C18.34375,-0.078125 18.171875,0.09375 17.59375,0.265625 L17.546875,3.125 L17.234375,3.125 C16.9375,1.84375 16.6875,0.765625 16.515625,0.390625 C16.390625,0.140625 16.296875,0.09375 15.953125,0.078125 C15.578125,0.03125 14.515625,0.03125 13.125,0.03125 L10.109375,0.03125 C9.03125,0.03125 8.921875,0.09375 8.921875,0.484375 L8.921875,5.140625 C9.359375,5.203125 9.578125,5.421875 9.625,5.734375 Z M4.109375,5.5 C4.171875,3.53125 3.078125,1.875 1.890625,1.296875 C1.4375,0.984375 1.078125,0.5 1.3125,0 C1.609375,-0.53125 2.5,-0.484375 3.125,-0.03125 C4.15625,0.671875 5.328125,2.46875 4.515625,5.5 Z M17.6875,5.875 L17.453125,5.6875 C19.15625,4.390625 21.03125,2.1875 21.265625,0.21875 C23.203125,-1.25 24.5,3.53125 17.6875,5.875 Z M11.296875,18.671875 L11.296875,15.1875 C11.296875,12.125 10.3125,9.359375 5.5,7.171875 L5.71875,6.859375 C12.03125,8.859375 12.8125,12.234375 12.8125,15.21875 L12.8125,17.96875 L17.59375,17.96875 L17.59375,9.28125 C17.59375,8.28125 17.8125,7.875 19.125,7.875 L20.328125,7.875 C22.421875,7.875 23.046875,8.1875 23.046875,8.828125 C23.046875,9.09375 22.96875,9.265625 22.515625,9.453125 L22.4375,13.015625 L22.109375,13.015625 C21.890625,11.609375 21.59375,9.953125 21.453125,9.578125 C21.390625,9.359375 21.3125,9.3125 21.171875,9.28125 C21.046875,9.28125 20.734375,9.28125 20.375,9.28125 L19.53125,9.28125 C19.171875,9.28125 19.109375,9.359375 19.109375,9.640625 L19.109375,17.734375 C19.5625,17.78125 19.828125,17.921875 19.96875,18.078125 L18.234375,19.609375 L17.375,18.671875 L13.109375,18.671875 L11.296875,19.46875 Z M0.90625,10.390625 L2.234375,8.453125 C2.453125,8.546875 2.609375,8.734375 2.6875,9.046875 C6.078125,10.578125 8.5,11.828125 10.203125,12.71875 L10.109375,13.0625 L6.453125,11.953125 L6.453125,17.40625 L9.90625,17.40625 C10.25,17.40625 10.484375,17.515625 10.515625,17.78125 C9.765625,18.484375 8.546875,19.46875 8.546875,19.46875 L7.4375,18.09375 L1.4375,18.09375 L1.625,17.40625 L4.9375,17.40625 L4.9375,11.5 C3.21875,10.984375 1.75,10.578125 0.90625,10.390625 Z" transform="translate(-0.703125, 19.609375) scale(1, -1)"/>
</svg>