<svg height="21.984375" viewBox="0 0 24 21.984375" width="24" xmlns="http://www.w3.org/2000/svg">
<path d="M8.59375,18 L8.78125,17.28125 L22.125,17.28125 C22.4375,17.28125 22.6875,17.40625 22.75,17.65625 C21.9375,18.40625 20.640625,19.4375 20.640625,19.4375 L19.484375,18 Z M7.515625,-0.078125 L7.703125,-0.765625 L22.734375,-0.765625 C23.0625,-0.765625 23.28125,-0.640625 23.359375,-0.390625 C22.5625,0.359375 21.265625,1.375 21.265625,1.375 L20.140625,-0.078125 Z M4.5625,20.109375 L4.5625,-1.875 L4.875,-1.875 C5.453125,-1.875 6.09375,-1.515625 6.09375,-1.296875 L6.09375,19.171875 C6.71875,19.265625 6.890625,19.53125 6.953125,19.875 Z M2.78125,15.453125 C2.8125,13.75 2.109375,11.828125 1.4375,11.046875 C1.03125,10.625 0.8125,10.078125 1.125,9.671875 C1.53125,9.21875 2.375,9.484375 2.765625,10.078125 C3.390625,10.9375 3.84375,12.90625 3.21875,15.4375 Z M6.796875,16.171875 L6.453125,16.03125 C7.078125,15.078125 7.6875,13.484375 7.703125,12.28125 C9,11.0625 10.515625,13.875 6.796875,16.171875 Z M11.734375,8.765625 L18.8125,8.765625 L18.8125,4.4375 L11.734375,4.4375 Z M11.734375,9.4375 L11.734375,13.65625 L18.8125,13.65625 L18.8125,9.4375 Z M10.203125,14.359375 L10.203125,2.15625 L10.4375,2.15625 C11.140625,2.15625 11.734375,2.515625 11.734375,2.71875 L11.734375,3.75 L18.8125,3.75 L18.8125,2.375 L19.03125,2.375 C19.609375,2.375 20.359375,2.765625 20.375,2.921875 L20.375,13.421875 C20.8125,13.484375 21.171875,13.6875 21.3125,13.84375 L19.46875,15.3125 L18.578125,14.359375 L11.859375,14.359375 L10.203125,15.140625 Z" transform="translate(-0.0859375, 20.109375) scale(1, -1)"/>
</svg>