<svg height="21.984375" viewBox="0 0 24 21.984375" width="24" xmlns="http://www.w3.org/2000/svg">
<path d="M4.21875,20.109375 L4.21875,-1.875 L4.515625,-1.875 C5.09375,-1.875 5.734375,-1.53125 5.734375,-1.296875 L5.734375,19.203125 C6.34375,19.296875 6.5,19.53125 6.578125,19.875 Z M2.515625,15.40625 C2.59375,13.75 1.984375,11.859375 1.34375,11.09375 C0.9375,10.6875 0.765625,10.125 1.0625,9.71875 C1.4375,9.265625 2.28125,9.53125 2.65625,10.109375 C3.265625,10.96875 3.625,12.9375 2.96875,15.390625 Z M12.671875,13.703125 C12.765625,12.09375 12.1875,10.109375 11.609375,9.28125 C11.203125,8.90625 11.015625,8.359375 11.328125,7.9375 C11.71875,7.515625 12.53125,7.828125 12.859375,8.421875 C13.421875,9.28125 13.75,11.25 13.109375,13.703125 Z M6.34375,16.203125 L6.03125,16.0625 C6.578125,15.171875 7.203125,13.65625 7.21875,12.5 C8.5,11.328125 9.9375,14.046875 6.34375,16.203125 Z M9.03125,18.34375 L9.03125,12.265625 C9.03125,7.78125 8.8125,2.875 6.640625,-1.078125 L7.03125,-1.3125 C10.34375,2.5625 10.53125,8.1875 10.53125,12.265625 L10.53125,17.640625 L22.484375,17.640625 C22.796875,17.640625 23.046875,17.765625 23.09375,18.03125 C22.296875,18.765625 21.03125,19.78125 21.03125,19.78125 L19.875,18.34375 L10.796875,18.34375 L9.03125,19.125 Z M16.890625,15.765625 C17.421875,15.84375 17.65625,16.109375 17.71875,16.421875 L15.390625,16.65625 C15.359375,8.765625 15.640625,2.859375 9,-1.15625 L9.3125,-1.609375 C14.90625,1.21875 16.3125,5.203125 16.703125,10.0625 C17.234375,4.421875 18.53125,0.578125 21.9375,-1.578125 C22.125,-0.71875 22.65625,-0.34375 23.40625,-0.1875 L23.453125,0.046875 C20.375,1.625 18.71875,3.953125 17.859375,7.421875 C19.25,8.5625 20.609375,10.375 21.671875,12.171875 C22.171875,12.09375 22.484375,12.3125 22.578125,12.546875 L20.328125,13.609375 C19.65625,11.546875 18.640625,9.40625 17.71875,7.96875 C17.234375,10.125 17.015625,12.703125 16.890625,15.765625 Z" transform="translate(-0.109375, 20.109375) scale(1, -1)"/>
</svg>