<svg height="21.984375" viewBox="0 0 24 21.984375" width="24" xmlns="http://www.w3.org/2000/svg">
<path d="M4.15625,20.109375 L4.15625,-1.875 L4.46875,-1.875 C5.046875,-1.875 5.65625,-1.53125 5.65625,-1.296875 L5.65625,19.203125 C6.265625,19.296875 6.453125,19.53125 6.53125,19.875 Z M2.296875,15.390625 C2.421875,13.75 1.875,11.828125 1.265625,11.046875 C0.859375,10.625 0.703125,10.078125 0.984375,9.671875 C1.390625,9.21875 2.234375,9.5 2.5625,10.109375 C3.125,10.96875 3.4375,12.9375 2.71875,15.359375 Z M6.359375,16.03125 L6.03125,15.90625 C6.578125,14.90625 7.109375,13.34375 7.078125,12.09375 C8.28125,10.84375 9.796875,13.609375 6.359375,16.03125 Z M19.421875,18.1875 L19.421875,13.734375 L14.515625,13.734375 L14.515625,18.1875 Z M13.03125,18.859375 L13.03125,11.859375 L13.25,11.859375 C13.875,11.859375 14.515625,12.171875 14.515625,12.34375 L14.515625,13.03125 L19.421875,13.03125 L19.421875,11.953125 L19.625,11.953125 C20.140625,11.953125 20.90625,12.28125 20.921875,12.453125 L20.921875,17.875 C21.40625,17.96875 21.765625,18.171875 21.9375,18.34375 L20.015625,19.828125 L19.171875,18.859375 L14.640625,18.859375 L13.03125,19.609375 Z M14.1875,8.96875 C14.140625,7.875 14.046875,6.8125 13.796875,5.78125 L7.609375,5.78125 L7.796875,5.09375 L13.609375,5.09375 C12.890625,2.71875 11.234375,0.546875 7.375,-1.375 L7.65625,-1.84375 C12.625,0.140625 14.421875,2.515625 15.171875,5.09375 L15.59375,5.09375 C16.3125,2.96875 17.90625,0.078125 21.859375,-1.65625 C22.03125,-0.8125 22.484375,-0.59375 23.234375,-0.484375 L23.25,-0.234375 C19.078125,1.21875 17.0625,3.3125 16.15625,5.09375 L22.78125,5.09375 C23.09375,5.09375 23.328125,5.203125 23.40625,5.46875 C22.734375,6.1875 21.546875,7.21875 21.546875,7.21875 L20.5625,5.78125 L20.0625,5.78125 L20.0625,9.40625 C20.5,9.5 20.90625,9.703125 21.046875,9.859375 L19.171875,11.296875 L18.265625,10.390625 L10.9375,10.390625 L10.9375,17.046875 C11.515625,17.140625 11.734375,17.359375 11.78125,17.65625 L9.453125,17.921875 L9.453125,8.203125 L9.75,8.203125 C10.296875,8.203125 10.9375,8.546875 10.9375,8.734375 L10.9375,9.671875 L18.5,9.671875 L18.5,5.78125 L15.34375,5.78125 C15.5,6.53125 15.59375,7.296875 15.671875,8.09375 C16.203125,8.140625 16.46875,8.421875 16.515625,8.734375 Z" transform="translate(-0.0546875, 20.109375) scale(1, -1)"/>
</svg>