<svg height="21.984375" viewBox="0 0 24 21.984375" width="24" xmlns="http://www.w3.org/2000/svg">
<path d="M9.1875,18.890625 L8.859375,18.71875 C9.84375,17.375 11.015625,15.234375 11.25,13.609375 C12.796875,12.265625 14.140625,15.8125 9.1875,18.890625 Z M13.21875,19.875 L12.90625,19.734375 C13.796875,18.265625 14.90625,16.015625 15.046875,14.296875 C16.609375,12.890625 18.046875,16.515625 13.21875,19.875 Z M20.765625,19.578125 C19.96875,17.546875 18.3125,14.46875 16.578125,12.453125 L16.875,12.171875 C19.125,13.84375 21.140625,16.390625 22.25,18.21875 C22.828125,18.171875 23.015625,18.265625 23.140625,18.53125 Z M4.53125,20.109375 L4.53125,-1.875 L4.828125,-1.875 C5.421875,-1.875 6.046875,-1.515625 6.046875,-1.296875 L6.046875,19.203125 C6.640625,19.265625 6.84375,19.53125 6.90625,19.875 Z M2.609375,15.625 C2.640625,13.875 1.96875,11.921875 1.296875,11.15625 C0.890625,10.734375 0.71875,10.203125 1.015625,9.796875 C1.390625,9.359375 2.203125,9.640625 2.59375,10.25 C3.1875,11.109375 3.671875,13.078125 3.046875,15.59375 Z M6.71875,16.171875 L6.40625,16.03125 C7.03125,15.09375 7.65625,13.515625 7.703125,12.3125 C8.96875,11.109375 10.421875,13.921875 6.71875,16.171875 Z M20.609375,11.59375 L20.609375,0.765625 L10.375,0.765625 L10.375,10.6875 C10.9375,10.75 11.15625,10.984375 11.234375,11.296875 L8.859375,11.5625 L8.859375,-1.75 L9.140625,-1.75 C9.71875,-1.75 10.375,-1.390625 10.375,-1.21875 L10.375,0.046875 L20.609375,0.046875 L20.609375,-1.578125 L20.90625,-1.578125 C21.484375,-1.578125 22.125,-1.265625 22.125,-1.0625 L22.125,10.6875 C22.734375,10.75 22.9375,10.984375 22.984375,11.328125 Z M17.40625,12.265625 C16.96875,10.96875 16.34375,9.53125 15.546875,8.0625 C14.5625,8.78125 13.375,9.5 11.859375,10.21875 L11.59375,9.953125 C12.625,9.1875 13.84375,8.140625 14.921875,6.984375 C13.828125,5.140625 12.453125,3.34375 10.921875,1.9375 L11.1875,1.65625 C12.9375,2.875 14.46875,4.46875 15.71875,6.125 C16.703125,4.984375 17.46875,3.8125 17.828125,2.78125 C19.265625,1.875 19.9375,4.296875 16.5625,7.265625 C17.453125,8.59375 18.1875,9.90625 18.71875,11.09375 C19.3125,11.046875 19.53125,11.15625 19.65625,11.453125 Z" transform="translate(0.0703125, 20.109375) scale(1, -1)"/>
</svg>