<svg height="22.03125" viewBox="0 0 24 22.03125" width="24" xmlns="http://www.w3.org/2000/svg">
<path d="M4.625,20.109375 L4.625,-1.875 L4.9375,-1.875 C5.515625,-1.875 6.171875,-1.515625 6.171875,-1.296875 L6.171875,19.171875 C6.796875,19.265625 6.953125,19.53125 7.03125,19.875 Z M2.65625,15.453125 C2.71875,13.796875 2.0625,11.875 1.4375,11.109375 C1.015625,10.65625 0.84375,10.109375 1.15625,9.703125 C1.5625,9.21875 2.453125,9.5 2.8125,10.109375 C3.359375,11.046875 3.703125,13.015625 3.09375,15.4375 Z M6.859375,16.46875 L6.53125,16.34375 C7.078125,15.34375 7.625,13.734375 7.609375,12.5 C8.859375,11.25 10.4375,14.046875 6.859375,16.46875 Z M10.84375,19.921875 L10.5625,19.78125 C11.546875,18.640625 12.625,16.875 12.8125,15.4375 C14.46875,14.140625 15.90625,17.78125 10.84375,19.921875 Z M9.8125,14.859375 L9.8125,6.953125 L10.0625,6.953125 C10.6875,6.953125 11.359375,7.3125 11.359375,7.46875 L11.359375,8.0625 L12.625,8.0625 C12.359375,3.640625 11.234375,0.765625 7.203125,-1.5625 L7.34375,-1.921875 C12.265625,0.046875 13.875,3.03125 14.28125,8.0625 L16.34375,8.0625 L16.34375,0.03125 C16.34375,-1.0625 16.609375,-1.46875 18.171875,-1.46875 L19.875,-1.46875 C22.609375,-1.46875 23.234375,-1.15625 23.234375,-0.5 C23.234375,-0.21875 23.140625,-0.03125 22.6875,0.171875 L22.609375,3.578125 L22.265625,3.578125 C22.03125,2.15625 21.765625,0.640625 21.59375,0.265625 C21.53125,0.046875 21.4375,0 21.265625,-0.03125 C21.03125,-0.046875 20.546875,-0.046875 19.921875,-0.046875 L18.53125,-0.046875 C17.953125,-0.046875 17.875,0.046875 17.875,0.390625 L17.875,8.0625 L19.46875,8.0625 L19.46875,7.15625 L19.6875,7.15625 C20.1875,7.15625 20.96875,7.484375 21,7.625 L21,13.890625 C21.40625,13.984375 21.75,14.1875 21.890625,14.359375 L20.0625,15.75 L19.25,14.859375 L16.84375,14.859375 C18.03125,16.0625 19.25,17.59375 19.984375,18.75 C20.46875,18.703125 20.78125,18.890625 20.875,19.15625 L18.34375,20.046875 C17.859375,18.484375 16.984375,16.390625 16.21875,14.859375 L11.46875,14.859375 L9.8125,15.578125 Z M11.359375,8.765625 L11.359375,14.140625 L19.46875,14.140625 L19.46875,8.765625 Z" transform="translate(-0.0390625, 20.109375) scale(1, -1)"/>
</svg>