<svg height="21.5625" viewBox="0 0 24 21.5625" width="24" xmlns="http://www.w3.org/2000/svg">
<path d="M9.984375,7.203125 L9.75,6.984375 C10.984375,6.078125 12.5,4.4375 12.890625,3.078125 C14.65625,2.0625 15.578125,5.828125 9.984375,7.203125 Z M4.921875,5.25 C4.734375,3.21875 3.28125,1.65625 2.046875,1.078125 C1.5625,0.765625 1.203125,0.28125 1.421875,-0.1875 C1.703125,-0.75 2.5625,-0.703125 3.28125,-0.265625 C4.390625,0.40625 5.828125,2.234375 5.328125,5.234375 Z M17.59375,5.859375 L17.328125,5.65625 C18.953125,4.296875 20.90625,1.9375 21.328125,0.046875 C23.296875,-1.296875 24.453125,3.1875 17.59375,5.859375 Z M7.46875,5.96875 L7.46875,0.171875 C7.46875,-1.078125 7.890625,-1.421875 9.984375,-1.421875 L13.15625,-1.421875 C17.515625,-1.421875 18.34375,-1.125 18.34375,-0.390625 C18.34375,-0.078125 18.1875,0.09375 17.640625,0.28125 L17.5625,3.671875 L17.25,3.671875 C16.9375,2.15625 16.703125,0.859375 16.515625,0.40625 C16.390625,0.140625 16.3125,0.078125 15.984375,0.03125 C15.59375,0 14.546875,0 13.203125,0 L10.203125,0 C9.125,0 9.03125,0.09375 9.03125,0.453125 L9.03125,5.15625 C9.453125,5.234375 9.703125,5.453125 9.71875,5.734375 Z M13.609375,20.140625 L13.609375,6.59375 L13.890625,6.59375 C14.5,6.59375 15.140625,6.90625 15.140625,7.125 L15.140625,9.59375 L22.03125,9.59375 C22.390625,9.59375 22.609375,9.71875 22.6875,9.984375 C21.859375,10.703125 20.609375,11.65625 20.609375,11.65625 L19.53125,10.3125 L15.140625,10.3125 L15.140625,13.15625 L20.78125,13.15625 C21.125,13.15625 21.328125,13.265625 21.40625,13.53125 C20.65625,14.203125 19.515625,15.125 19.515625,15.125 L18.484375,13.84375 L15.140625,13.84375 L15.140625,16.5625 L21.59375,16.5625 C21.9375,16.5625 22.171875,16.6875 22.25,16.921875 C21.453125,17.65625 20.234375,18.59375 20.234375,18.59375 L19.15625,17.25 L15.140625,17.25 L15.140625,19.25 C15.75,19.3125 15.953125,19.5625 16.03125,19.890625 Z M1.421875,10.109375 L2.40625,8.15625 C2.609375,8.203125 2.8125,8.375 2.921875,8.65625 C5.140625,9.21875 6.890625,9.71875 8.25,10.125 C7.46875,8.234375 5.734375,6.71875 2.421875,5.59375 L2.609375,5.234375 C8.90625,6.890625 10.390625,9.84375 10.421875,13.609375 L10.421875,19.25 C10.984375,19.34375 11.15625,19.5625 11.203125,19.890625 L8.875,20.140625 L8.875,17.25 L1.9375,17.25 L2.15625,16.5625 L8.875,16.5625 L8.875,13.84375 L2.734375,13.84375 L2.953125,13.15625 L8.875,13.15625 C8.828125,12.3125 8.734375,11.5 8.5,10.75 C5.515625,10.4375 2.71875,10.171875 1.421875,10.109375 Z" transform="translate(-0.828125, 20.140625) scale(1, -1)"/>
</svg>