<svg height="21.984375" viewBox="0 0 24 21.984375" width="24" xmlns="http://www.w3.org/2000/svg">
<path d="M10.796875,19.921875 C10.515625,19.125 9.4375,16.96875 8.78125,15.8125 C10.0625,14.609375 10.96875,12.796875 11.1875,11.71875 C12.453125,10.734375 14.109375,13.4375 9.4375,15.890625 C10.296875,16.78125 11.6875,18.34375 12.21875,18.953125 C12.59375,18.890625 12.8125,19.015625 12.890625,19.21875 Z M15.40625,19.921875 C15.09375,19.125 13.921875,16.984375 13.25,15.84375 C14.546875,14.65625 15.484375,12.859375 15.71875,11.78125 C17.046875,10.796875 18.71875,13.53125 13.921875,15.90625 C14.8125,16.75 16.265625,18.28125 16.84375,18.90625 C17.203125,18.84375 17.421875,18.953125 17.515625,19.171875 Z M20.140625,19.921875 C19.75,19.109375 18.40625,16.921875 17.640625,15.765625 C19.125,14.609375 20.234375,12.765625 20.5625,11.609375 C21.984375,10.65625 23.59375,13.515625 18.34375,15.84375 C19.3125,16.703125 20.953125,18.265625 21.578125,18.890625 C21.953125,18.796875 22.171875,18.90625 22.25,19.125 Z M4.15625,20.109375 L4.15625,-1.875 L4.46875,-1.875 C5.015625,-1.875 5.65625,-1.53125 5.65625,-1.296875 L5.65625,19.203125 C6.234375,19.296875 6.4375,19.53125 6.5,19.875 Z M2.296875,15.390625 C2.421875,13.75 1.875,11.828125 1.265625,11.046875 C0.859375,10.625 0.703125,10.078125 0.984375,9.671875 C1.390625,9.21875 2.234375,9.5 2.5625,10.109375 C3.125,10.96875 3.4375,12.9375 2.71875,15.359375 Z M6.3125,16.03125 L5.96875,15.90625 C6.53125,14.90625 7.078125,13.34375 7.03125,12.09375 C8.234375,10.84375 9.765625,13.609375 6.3125,16.03125 Z M13.875,12 C13.65625,11.25 13.265625,10.171875 13.015625,9.40625 L10.734375,9.40625 L9.078125,10.171875 L9.078125,-1.84375 L9.34375,-1.84375 C9.953125,-1.84375 10.578125,-1.46875 10.578125,-1.3125 L10.578125,-0.28125 L20.421875,-0.28125 L20.421875,-1.65625 L20.65625,-1.65625 C21.171875,-1.65625 21.90625,-1.296875 21.9375,-1.125 L21.9375,8.421875 C22.421875,8.515625 22.828125,8.6875 22.96875,8.875 L21.078125,10.375 L20.1875,9.40625 L13.796875,9.40625 C14.25,9.890625 14.8125,10.421875 15.171875,10.84375 C15.640625,10.78125 15.984375,10.890625 16.109375,11.203125 Z M20.421875,0.40625 L10.578125,0.40625 L10.578125,8.6875 L20.421875,8.6875 Z M16.984375,8.421875 C16.625,7.5625 16.078125,6.59375 15.4375,5.65625 C14.5,6.09375 13.34375,6.53125 11.953125,6.90625 L11.734375,6.625 C12.640625,6.140625 13.734375,5.46875 14.765625,4.75 C13.75,3.484375 12.546875,2.296875 11.25,1.421875 L11.5,1.078125 C13.0625,1.828125 14.5,2.90625 15.671875,4.0625 C16.609375,3.28125 17.421875,2.5 17.875,1.75 C19.21875,1.171875 19.609375,3.125 16.578125,5.015625 C17.234375,5.765625 17.78125,6.53125 18.21875,7.21875 C18.765625,7.125 18.984375,7.25 19.109375,7.515625 Z" transform="translate(-0.1484375, 20.109375) scale(1, -1)"/>
</svg>