<svg height="21.828125" viewBox="0 0 24 21.828125" width="24" xmlns="http://www.w3.org/2000/svg">
<path d="M10.53125,4.390625 L10.296875,4.15625 C11.421875,3.5 12.765625,2.203125 13.171875,1.125 C14.765625,0.34375 15.40625,3.640625 10.53125,4.390625 Z M17.6875,3.953125 L17.46875,3.71875 C19.015625,2.78125 20.90625,1.03125 21.390625,-0.5 C23.296875,-1.53125 24.046875,2.609375 17.6875,3.953125 Z M7.171875,3.796875 L7.171875,0.125 C7.171875,-1.03125 7.53125,-1.3125 9.640625,-1.3125 L12.84375,-1.3125 C17.25,-1.3125 18.03125,-1.109375 18.03125,-0.390625 C18.03125,-0.09375 17.875,0.078125 17.328125,0.234375 L17.25,2.5625 L16.9375,2.5625 C16.703125,1.515625 16.484375,0.640625 16.3125,0.3125 C16.171875,0.09375 16.109375,0.046875 15.75,0.03125 C15.390625,0 14.28125,0 12.90625,0 L9.84375,0 C8.78125,0 8.6875,0.046875 8.6875,0.359375 L8.6875,2.96875 C9.125,3.046875 9.34375,3.265625 9.359375,3.546875 Z M4.46875,3.578125 C4.34375,1.984375 3.03125,0.90625 1.84375,0.578125 C1.390625,0.34375 1.0625,-0.046875 1.203125,-0.53125 C1.421875,-1.03125 2.203125,-1.0625 2.859375,-0.765625 C3.984375,-0.3125 5.359375,1.03125 4.875,3.578125 Z M5.90625,11.640625 L5.71875,11.359375 C6.640625,10.984375 7.75,10.265625 8.234375,9.59375 C9.578125,9.046875 10.0625,11.609375 5.90625,11.640625 Z M5.8125,9.03125 L5.609375,8.765625 C6.53125,8.40625 7.625,7.578125 8.0625,6.890625 C9.5,6.28125 9.984375,9 5.8125,9.03125 Z M14.859375,13.875 C14.46875,12.9375 13.0625,10.515625 12.28125,9.1875 C13.828125,7.796875 14.921875,5.734375 15.359375,4.4375 C16.609375,3.53125 18.40625,5.90625 13.015625,9.28125 C13.9375,10.3125 15.546875,12.09375 16.21875,12.9375 C16.578125,12.890625 16.796875,12.953125 16.875,13.171875 Z M18.953125,13.703125 C18.4375,12.765625 16.65625,10.390625 15.71875,9.140625 C17.59375,7.796875 18.9375,5.828125 19.5625,4.484375 C20.921875,3.59375 22.625,6.140625 16.53125,9.234375 C17.59375,10.171875 19.515625,11.875 20.25,12.671875 C20.609375,12.59375 20.828125,12.703125 20.921875,12.890625 Z M5.15625,19.203125 L5.375,18.5 L9.640625,18.5 C7.578125,16.296875 4.421875,14.375 0.859375,13.109375 L1.03125,12.703125 C1.984375,12.953125 2.921875,13.25 3.84375,13.5625 L3.84375,4.171875 L4.0625,4.171875 C4.6875,4.171875 5.296875,4.53125 5.296875,4.65625 L5.296875,12.28125 L9.84375,12.28125 L9.84375,6.34375 C9.84375,6.03125 9.75,5.875 9.390625,5.875 C8.953125,5.875 7.3125,6.03125 7.3125,6.03125 L7.3125,5.640625 C8.140625,5.5625 8.5625,5.375 8.828125,5.203125 C9.078125,4.984375 9.171875,4.65625 9.1875,4.296875 C11.0625,4.484375 11.28125,5.109375 11.28125,6.21875 L11.28125,12 C11.78125,12.078125 12.171875,12.28125 12.3125,12.484375 L10.375,13.921875 L9.59375,13.015625 L5.421875,13.015625 L4.03125,13.625 C5.28125,14.109375 6.453125,14.640625 7.53125,15.234375 L7.734375,14.59375 L15.359375,14.59375 C15.703125,14.59375 15.90625,14.71875 15.984375,14.96875 C15.265625,15.625 14.109375,16.515625 14.109375,16.515625 L13.125,15.265625 L7.609375,15.265625 C9.234375,16.171875 10.6875,17.25 11.8125,18.5 L12.8125,18.5 C14.59375,16.296875 18.3125,14.40625 21.75,13.25 C21.9375,13.875 22.515625,14.421875 23.15625,14.59375 L23.203125,14.859375 C19.296875,15.5 15.171875,17.015625 13.515625,18.5 C14.203125,18.546875 14.78125,18.671875 15,18.953125 L12.890625,20.296875 L12.140625,19.203125 Z" transform="translate(-0.453125, 20.296875) scale(1, -1)"/>
</svg>