<svg height="21.8125" viewBox="0 0 24 21.8125" width="24" xmlns="http://www.w3.org/2000/svg">
<path d="M12.265625,18.9375 C14.28125,16.4375 17.859375,14.515625 21.9375,13.3125 C22.078125,13.9375 22.515625,14.5625 23.234375,14.78125 L23.28125,15.140625 C19.0625,15.765625 15.046875,17.28125 12.671875,19.171875 C13.375,19.25 13.609375,19.375 13.6875,19.625 L11.0625,20.296875 C9.359375,17.71875 5.140625,14.859375 0.859375,13.3125 L0.9375,12.9375 C5.71875,14.15625 10.03125,16.6875 12.265625,18.9375 Z M7.53125,15.4375 L7.734375,14.765625 L15.34375,14.765625 C15.671875,14.765625 15.890625,14.875 15.9375,15.125 C15.21875,15.765625 14.0625,16.5625 14.0625,16.5625 L13.078125,15.4375 Z M13.78125,13.0625 L13.78125,6.359375 L14.046875,6.359375 C14.609375,6.359375 15.265625,6.703125 15.265625,6.890625 L15.265625,12.234375 C15.796875,12.3125 15.984375,12.53125 16.03125,12.84375 Z M18.53125,13.609375 L18.53125,6.71875 C18.53125,6.40625 18.4375,6.28125 18.078125,6.28125 C17.71875,6.28125 15.8125,6.4375 15.8125,6.4375 L15.8125,6.046875 C16.65625,5.921875 17.140625,5.78125 17.421875,5.546875 C17.6875,5.296875 17.8125,4.890625 17.859375,4.484375 C19.796875,4.65625 20.046875,5.375 20.046875,6.625 L20.046875,12.765625 C20.5625,12.84375 20.78125,13.015625 20.859375,13.375 Z M10.78125,4.96875 L10.53125,4.75 C11.65625,4.03125 13.03125,2.640625 13.46875,1.484375 C15.09375,0.59375 15.90625,3.953125 10.78125,4.96875 Z M17.59375,3.9375 L17.375,3.703125 C18.953125,2.78125 20.90625,1.03125 21.4375,-0.5 C23.359375,-1.515625 24.078125,2.6875 17.59375,3.9375 Z M7.15625,3.8125 L7.15625,0.09375 C7.15625,-1.109375 7.53125,-1.390625 9.640625,-1.390625 L12.84375,-1.390625 C17.234375,-1.390625 18.03125,-1.109375 18.03125,-0.390625 C18.03125,-0.078125 17.875,0.09375 17.328125,0.265625 L17.25,2.640625 L16.9375,2.640625 C16.703125,1.5625 16.484375,0.703125 16.296875,0.359375 C16.15625,0.140625 16.0625,0.09375 15.75,0.078125 C15.359375,0.046875 14.296875,0.03125 12.90625,0.03125 L9.84375,0.03125 C8.8125,0.03125 8.71875,0.078125 8.71875,0.40625 L8.71875,3 C9.125,3.078125 9.359375,3.28125 9.390625,3.578125 Z M4.515625,3.578125 C4.375,2.046875 3,1.015625 1.875,0.671875 C1.375,0.453125 1.015625,0.046875 1.15625,-0.453125 C1.34375,-0.953125 2.1875,-1.015625 2.859375,-0.75 C3.953125,-0.28125 5.359375,1.0625 4.9375,3.578125 Z M5.15625,10.21875 L9.640625,10.21875 L9.640625,8.734375 L5.15625,8.734375 Z M5.15625,10.921875 L5.15625,12.390625 L9.640625,12.390625 L9.640625,10.921875 Z M3.703125,13.078125 L3.703125,4.578125 L3.9375,4.578125 C4.53125,4.578125 5.15625,4.921875 5.15625,5.0625 L5.15625,8.046875 L9.640625,8.046875 L9.640625,6.578125 C9.640625,6.28125 9.546875,6.140625 9.1875,6.140625 C8.765625,6.140625 7.125,6.265625 7.125,6.265625 L7.125,5.90625 C7.9375,5.8125 8.375,5.640625 8.640625,5.453125 C8.875,5.234375 8.96875,4.890625 9,4.484375 C10.890625,4.65625 11.140625,5.328125 11.140625,6.453125 L11.140625,12.078125 C11.609375,12.171875 12.03125,12.390625 12.140625,12.546875 L10.171875,14.015625 L9.40625,13.078125 L5.28125,13.078125 L3.8125,13.75 L3.703125,13.6875 Z" transform="translate(-0.46875, 20.296875) scale(1, -1)"/>
</svg>