<svg height="22.5625" viewBox="0 0 24 22.5625" width="24" xmlns="http://www.w3.org/2000/svg">
<path d="M7.25,3.71875 L7.421875,3 L22.5625,3 C22.890625,3 23.140625,3.125 23.1875,3.390625 C22.390625,4.125 21.140625,5.109375 21.140625,5.109375 L20.015625,3.71875 Z M16.828125,2.296875 L16.625,2.015625 C18.28125,1.15625 20.65625,-0.53125 21.59375,-1.796875 C23.546875,-2.453125 23.8125,1.21875 16.828125,2.296875 Z M12.484375,2.71875 C10.75,0.9375 8.453125,-0.625 6.59375,-1.484375 L6.75,-1.875 C8.8125,-1.390625 11.359375,-0.3125 13.296875,1.15625 C13.734375,0.953125 13.984375,1.015625 14.15625,1.203125 Z M4.53125,20.109375 L4.53125,-1.875 L4.828125,-1.875 C5.40625,-1.875 6.03125,-1.515625 6.03125,-1.296875 L6.03125,19.203125 C6.640625,19.296875 6.84375,19.53125 6.90625,19.875 Z M2.609375,15.625 C2.640625,13.875 1.96875,11.921875 1.296875,11.15625 C0.890625,10.734375 0.71875,10.203125 1.015625,9.796875 C1.390625,9.359375 2.203125,9.640625 2.59375,10.25 C3.1875,11.109375 3.671875,13.078125 3.046875,15.59375 Z M6.71875,16.171875 L6.40625,16.03125 C7.015625,15.078125 7.625,13.484375 7.65625,12.28125 C8.921875,11.0625 10.421875,13.875 6.71875,16.171875 Z M10.03125,14.515625 L10.03125,4.5625 L10.265625,4.5625 C10.890625,4.5625 11.546875,4.921875 11.546875,5.09375 L11.546875,5.65625 L18.8125,5.65625 L18.8125,4.890625 L19.0625,4.890625 C19.5625,4.890625 20.328125,5.28125 20.359375,5.453125 L20.359375,13.5625 C20.78125,13.625 21.140625,13.828125 21.28125,14.015625 L19.4375,15.4375 L18.59375,14.515625 L15.84375,14.515625 L15.84375,16.625 L22.3125,16.625 C22.65625,16.625 22.890625,16.75 22.96875,16.984375 C22.171875,17.71875 20.90625,18.703125 20.90625,18.703125 L19.78125,17.328125 L15.84375,17.328125 L15.84375,19.21875 C16.375,19.3125 16.578125,19.53125 16.609375,19.84375 L14.28125,20.0625 L14.28125,17.328125 L7.984375,17.328125 L8.1875,16.625 L14.28125,16.625 L14.28125,14.515625 L11.65625,14.515625 L10.03125,15.265625 Z M18.8125,11.140625 L18.8125,9.09375 L11.546875,9.09375 L11.546875,11.140625 Z M18.8125,11.828125 L11.546875,11.828125 L11.546875,13.796875 L18.8125,13.796875 Z M18.8125,8.421875 L18.8125,6.390625 L11.546875,6.390625 L11.546875,8.421875 Z" transform="translate(-0.265625, 20.109375) scale(1, -1)"/>
</svg>