<svg height="21.875" viewBox="0 0 24 21.875" width="24" xmlns="http://www.w3.org/2000/svg">
<path d="M9.953125,4.9375 L9.75,4.6875 C10.9375,4.03125 12.546875,2.65625 13.078125,1.5625 C14.828125,0.84375 15.3125,4.3125 9.953125,4.9375 Z M17.78125,4.15625 L17.546875,3.9375 C19.15625,2.921875 21.078125,1.0625 21.546875,-0.59375 C23.5,-1.734375 24.359375,2.609375 17.78125,4.15625 Z M7.15625,4.203125 L7.15625,0 C7.15625,-1.171875 7.53125,-1.484375 9.640625,-1.484375 L12.84375,-1.484375 C17.28125,-1.484375 18.046875,-1.25 18.046875,-0.5 C18.046875,-0.21875 17.90625,-0.046875 17.359375,0.125 L17.28125,2.609375 L16.96875,2.609375 C16.703125,1.46875 16.484375,0.546875 16.296875,0.1875 C16.171875,-0.03125 16.078125,-0.078125 15.75,-0.09375 C15.390625,-0.125 14.28125,-0.125 12.90625,-0.125 L9.84375,-0.125 C8.78125,-0.125 8.6875,-0.078125 8.6875,0.265625 L8.6875,3.40625 C9.125,3.453125 9.34375,3.703125 9.390625,3.953125 Z M4.4375,3.984375 C4.34375,2.296875 2.96875,1.15625 1.796875,0.75 C1.296875,0.5 0.953125,0.09375 1.125,-0.390625 C1.375,-0.90625 2.203125,-0.9375 2.859375,-0.625 C3.953125,-0.09375 5.359375,1.3125 4.875,3.984375 Z M3.765625,6.265625 L3.984375,5.5625 L17.78125,5.5625 L17.78125,4.53125 L18.03125,4.53125 C18.53125,4.53125 19.296875,4.890625 19.3125,5.0625 L19.3125,10.171875 C19.78125,10.265625 20.15625,10.4375 20.296875,10.625 L18.40625,12.09375 L17.546875,11.15625 L3.953125,11.15625 L4.15625,10.46875 L17.78125,10.46875 L17.78125,8.734375 L4.46875,8.734375 L4.6875,8.015625 L17.78125,8.015625 L17.78125,6.265625 Z M1.609375,13.890625 L2.59375,12.125 C2.828125,12.171875 3.03125,12.3125 3.171875,12.625 L6.34375,13.109375 L6.34375,11.5 L6.625,11.5 C7.171875,11.5 7.84375,11.8125 7.84375,12 L7.84375,13.3125 C9.484375,13.578125 10.796875,13.796875 11.859375,13.984375 L11.828125,14.421875 L7.84375,14.1875 L7.84375,15.390625 L11.09375,15.390625 C11.421875,15.390625 11.640625,15.5 11.71875,15.765625 C11.0625,16.375 10.0625,17.15625 10.0625,17.15625 L9.1875,16.078125 L7.84375,16.078125 L7.84375,17.5 L11.15625,17.5 C11.5,17.5 11.71875,17.609375 11.78125,17.875 C11.09375,18.5 9.984375,19.390625 9.984375,19.390625 L9.03125,18.1875 L7.84375,18.1875 L7.84375,19.265625 C8.421875,19.375 8.65625,19.578125 8.71875,19.890625 L6.34375,20.140625 L6.34375,18.1875 L1.890625,18.1875 L2.09375,17.5 L6.34375,17.5 L6.34375,16.078125 L2.296875,16.078125 L2.46875,15.390625 L6.34375,15.390625 L6.34375,14.09375 C4.3125,13.984375 2.640625,13.921875 1.609375,13.890625 Z M15.640625,20.140625 L15.640625,18.1875 L12.078125,18.1875 L12.265625,17.5 L15.640625,17.5 L15.640625,16.078125 L12.578125,16.078125 L12.765625,15.390625 L15.640625,15.390625 L15.640625,13.921875 L11.90625,13.921875 L12.078125,13.21875 L15.640625,13.21875 L15.640625,11.609375 L15.9375,11.609375 C16.515625,11.609375 17.15625,11.953125 17.15625,12.125 L17.15625,13.21875 L22.03125,13.21875 C22.375,13.21875 22.609375,13.34375 22.6875,13.609375 C21.953125,14.28125 20.828125,15.140625 20.828125,15.140625 L19.828125,13.921875 L17.15625,13.921875 L17.15625,15.390625 L21.21875,15.390625 C21.546875,15.390625 21.75,15.5 21.796875,15.765625 C21.140625,16.421875 20.0625,17.234375 20.0625,17.234375 L19.15625,16.078125 L17.15625,16.078125 L17.15625,17.5 L21.59375,17.5 C21.9375,17.5 22.15625,17.609375 22.21875,17.875 C21.484375,18.53125 20.359375,19.4375 20.359375,19.4375 L19.375,18.1875 L17.15625,18.1875 L17.15625,19.265625 C17.765625,19.375 17.96875,19.578125 18.03125,19.890625 Z" transform="translate(-0.65625, 20.140625) scale(1, -1)"/>
</svg>