<svg height="21.984375" viewBox="0 0 24 21.984375" width="24" xmlns="http://www.w3.org/2000/svg">
<path d="M3.90625,20.09375 L3.90625,-1.890625 L4.203125,-1.890625 C4.78125,-1.890625 5.421875,-1.53125 5.421875,-1.3125 L5.421875,19.171875 C6,19.265625 6.1875,19.515625 6.265625,19.84375 Z M2.140625,15.53125 C2.296875,13.921875 1.796875,11.96875 1.21875,11.1875 C0.84375,10.75 0.671875,10.203125 0.984375,9.8125 C1.375,9.390625 2.203125,9.671875 2.546875,10.265625 C3.046875,11.1875 3.265625,13.125 2.5625,15.53125 Z M5.8125,16.25 L5.5,16.125 C6.046875,15.171875 6.640625,13.578125 6.671875,12.359375 C7.875,11.1875 9.3125,13.890625 5.8125,16.25 Z M6.40625,2.421875 L7.484375,0.53125 C7.703125,0.625 7.890625,0.8125 7.9375,1.109375 C10.125,2.28125 11.828125,3.28125 13.078125,4.015625 C13.21875,3.546875 13.34375,3.09375 13.375,2.6875 C14.828125,1.390625 16.296875,4.578125 11.828125,7.21875 L11.515625,7.0625 C12,6.359375 12.53125,5.40625 12.90625,4.4375 L9.640625,3.390625 L9.640625,8.59375 L12.3125,8.59375 L12.3125,7.609375 L12.53125,7.609375 C13.015625,7.609375 13.703125,7.96875 13.734375,8.109375 L13.734375,17.734375 C14.109375,17.8125 14.46875,18 14.59375,18.140625 L12.90625,19.46875 L12.09375,18.625 L9.765625,18.625 L8.234375,19.375 L8.234375,2.953125 Z M9.640625,13.296875 L12.3125,13.296875 L12.3125,9.265625 L9.640625,9.265625 Z M9.640625,13.984375 L9.640625,17.921875 L12.3125,17.921875 L12.3125,13.984375 Z M14.015625,9.59375 L14.203125,8.875 L18.078125,8.875 C16.890625,4.46875 14.375,1.125 9.09375,-1.5625 L9.34375,-1.875 C13.890625,-0.09375 16.609375,2.234375 18.21875,5.25 L18.21875,-0.3125 C18.21875,-1.265625 18.4375,-1.65625 19.6875,-1.65625 L20.6875,-1.65625 C22.578125,-1.65625 23.140625,-1.3125 23.140625,-0.71875 C23.140625,-0.4375 23.0625,-0.265625 22.625,-0.09375 L22.5625,2.859375 L22.25,2.859375 C22.03125,1.6875 21.796875,0.3125 21.640625,0 C21.578125,-0.21875 21.53125,-0.234375 21.390625,-0.234375 C21.28125,-0.265625 21.046875,-0.265625 20.734375,-0.265625 L20.0625,-0.265625 C19.734375,-0.265625 19.6875,-0.1875 19.6875,0.09375 L19.6875,6.578125 C20.109375,6.640625 20.328125,6.859375 20.375,7.15625 L19.109375,7.296875 C19.296875,7.796875 19.4375,8.328125 19.578125,8.875 L22.53125,8.875 C22.875,8.875 23.109375,9 23.1875,9.265625 C22.4375,10.015625 21.265625,10.984375 21.265625,10.984375 L20.234375,9.59375 L19.75,9.59375 C20.28125,12.03125 20.46875,14.78125 20.546875,17.921875 L22.203125,17.921875 C22.53125,17.921875 22.78125,18.046875 22.84375,18.28125 C22.0625,19.015625 20.8125,19.96875 20.8125,19.96875 L19.703125,18.625 L14.609375,18.625 L14.8125,17.921875 L15.546875,17.921875 L15.546875,9.59375 Z M16.921875,17.921875 L18.984375,17.921875 C18.953125,14.78125 18.796875,12.03125 18.234375,9.59375 L16.921875,9.59375 Z" transform="translate(0.0703125, 20.09375) scale(1, -1)"/>
</svg>