<svg height="21.765625" viewBox="0 0 24 21.765625" width="24" xmlns="http://www.w3.org/2000/svg">
<path d="M7.75,19.890625 L7.515625,19.65625 C8.65625,18.984375 10.109375,17.734375 10.515625,16.609375 C12.1875,15.75 12.890625,19.203125 7.75,19.890625 Z M4.53125,20.109375 C3.953125,18.75 2.640625,16.828125 1.25,15.671875 L1.515625,15.34375 C3.28125,16.21875 4.890625,17.640625 5.8125,18.8125 C6.34375,18.71875 6.53125,18.8125 6.671875,19.078125 Z M17.59375,4.390625 L17.375,4.171875 C19.015625,3.125 20.96875,1.203125 21.453125,-0.484375 C23.421875,-1.65625 24.3125,2.78125 17.59375,4.390625 Z M7.15625,4.515625 L7.15625,0.140625 C7.15625,-1.0625 7.5625,-1.375 9.671875,-1.375 L12.90625,-1.375 C17.359375,-1.375 18.140625,-1.109375 18.140625,-0.390625 C18.140625,-0.09375 18,0.09375 17.453125,0.265625 L17.375,2.78125 L17.0625,2.78125 C16.796875,1.65625 16.5625,0.703125 16.375,0.34375 C16.25,0.125 16.15625,0.078125 15.8125,0.046875 C15.4375,0.03125 14.359375,0 12.953125,0 L9.859375,0 C8.8125,0 8.71875,0.078125 8.71875,0.40625 L8.71875,3.71875 C9.140625,3.796875 9.359375,4.015625 9.40625,4.265625 Z M4.4375,4.109375 C4.375,2.375 3.046875,1.171875 1.875,0.75 C1.390625,0.5 1.03125,0.078125 1.203125,-0.4375 C1.421875,-0.953125 2.25,-0.984375 2.953125,-0.640625 C4.0625,-0.125 5.421875,1.375 4.875,4.109375 Z M10.265625,5.46875 L10.0625,5.234375 C11.234375,4.46875 12.75,3.046875 13.25,1.921875 C14.953125,1.078125 15.640625,4.484375 10.265625,5.46875 Z M7.296875,15.90625 C7.890625,15.90625 8.1875,16.0625 8.25,16.3125 L5.875,17.09375 C5.015625,15.09375 2.96875,12.265625 0.84375,10.65625 L1.078125,10.375 C1.9375,10.796875 2.765625,11.328125 3.5,11.90625 L3.5,5.15625 L3.75,5.15625 C4.4375,5.15625 4.9375,5.546875 4.9375,5.65625 L4.9375,6.90625 L8.953125,6.90625 L8.953125,5.828125 L9.1875,5.828125 C9.671875,5.828125 10.4375,6.171875 10.46875,6.3125 L10.46875,10.84375 C10.828125,10.890625 11.140625,11.0625 11.25,11.234375 L9.546875,12.5 L8.765625,11.6875 L5.234375,11.6875 L3.9375,12.265625 C5.234375,13.34375 6.34375,14.5625 7.125,15.671875 C8.90625,14.6875 10.25,13.265625 10.75,12.140625 C11.40625,11.765625 12.046875,12.21875 11.953125,12.953125 C12.984375,13.75 13.84375,14.8125 14.5625,15.953125 L15.765625,15.953125 C15.703125,12.234375 15.28125,8.8125 11.09375,6.140625 L11.421875,5.765625 C15.640625,7.84375 16.828125,10.609375 17.234375,13.796875 C17.65625,10.03125 18.765625,6.890625 21.546875,5.15625 C21.71875,6 22.203125,6.3125 22.96875,6.4375 L22.984375,6.71875 C19.125,8.59375 17.921875,11.6875 17.5,15.953125 L20.296875,15.953125 C19.96875,14.875 19.421875,13.46875 19.015625,12.59375 L19.34375,12.40625 C20.234375,13.265625 21.453125,14.734375 22.0625,15.71875 C22.53125,15.75 22.828125,15.765625 22.984375,15.9375 L21.21875,17.640625 L20.25,16.6875 L15,16.6875 C15.453125,17.515625 15.84375,18.40625 16.15625,19.265625 C16.75,19.265625 16.921875,19.390625 16.984375,19.65625 L14.40625,20.09375 C14.015625,17.8125 13.078125,15.125 11.828125,13.4375 C11.421875,14.28125 10.15625,15.28125 7.296875,15.90625 Z M4.9375,10.984375 L8.953125,10.984375 L8.953125,7.609375 L4.9375,7.609375 Z" transform="translate(-0.578125, 20.109375) scale(1, -1)"/>
</svg>