<svg height="21.984375" viewBox="0 0 24 21.984375" width="24" xmlns="http://www.w3.org/2000/svg">
<path d="M9.28125,19.265625 L9.03125,19.109375 C9.84375,18.3125 10.875,16.9375 11.15625,15.90625 C12.625,14.90625 13.796875,17.859375 9.28125,19.265625 Z M19.015625,19.515625 C18.21875,18.171875 17.203125,16.796875 16.515625,15.953125 L16.796875,15.671875 C17.78125,16.25 19.015625,17.15625 20.0625,18.046875 C20.5,17.921875 20.828125,18.09375 20.96875,18.28125 Z M3.984375,20.09375 L3.984375,-1.890625 L4.265625,-1.890625 C4.84375,-1.890625 5.46875,-1.53125 5.46875,-1.3125 L5.46875,19.171875 C6.078125,19.265625 6.234375,19.515625 6.3125,19.84375 Z M2.375,15.34375 C2.46875,13.734375 1.9375,11.765625 1.390625,10.984375 C0.953125,10.578125 0.8125,10.015625 1.125,9.59375 C1.53125,9.171875 2.375,9.484375 2.71875,10.078125 C3.21875,10.96875 3.453125,12.9375 2.78125,15.34375 Z M6,16.078125 L5.6875,15.953125 C6.171875,15.03125 6.640625,13.5625 6.578125,12.4375 C7.796875,11.1875 9.40625,13.84375 6,16.078125 Z M16.203125,7.15625 L17.96875,7.15625 L17.96875,3.640625 L15.71875,3.640625 Z M17.96875,10.3125 L17.96875,7.84375 L16.625,7.84375 L14.953125,8.640625 C14.78125,6.9375 14.328125,3.9375 13.921875,1.796875 C14.71875,1.65625 15.09375,1.6875 15.453125,1.890625 L15.625,2.953125 L17.96875,2.953125 L17.96875,-1.84375 L18.28125,-1.84375 C18.8125,-1.84375 19.421875,-1.578125 19.421875,-1.421875 L19.421875,2.953125 L23.046875,2.953125 C23.359375,2.953125 23.5625,3.078125 23.640625,3.34375 C22.9375,4.03125 21.75,5.015625 21.75,5.015625 L20.71875,3.640625 L19.421875,3.640625 L19.421875,7.15625 L22.34375,7.15625 C22.65625,7.15625 22.890625,7.25 22.9375,7.515625 C22.25,8.15625 21.1875,8.953125 21.1875,8.953125 L20.25,7.84375 L19.421875,7.84375 L19.421875,9.484375 C19.9375,9.578125 20.140625,9.796875 20.1875,10.078125 Z M9.53125,10.296875 C8.734375,7.484375 7.421875,4.875 6,3.234375 L6.359375,2.96875 C7.171875,3.625 7.96875,4.46875 8.65625,5.453125 C9.265625,4.9375 9.84375,4.203125 9.984375,3.546875 C11.28125,2.6875 12.34375,5.109375 8.921875,5.828125 C9.3125,6.359375 9.640625,6.9375 9.953125,7.53125 L12.359375,7.53125 C11.609375,3.796875 9.890625,0.578125 6.265625,-1.484375 L6.5,-1.875 C10.96875,0.125 12.8125,3.53125 13.75,7.421875 C14.25,7.4375 14.5,7.484375 14.65625,7.703125 L13.125,9.09375 L12.234375,8.25 L10.3125,8.25 L10.703125,9.140625 C11.203125,9.125 11.5,9.3125 11.59375,9.578125 Z M13.921875,20.0625 L13.921875,15.234375 L7.84375,15.234375 L8.046875,14.546875 L12.671875,14.546875 C11.234375,12.71875 9.078125,11.09375 6.59375,9.9375 L6.84375,9.5 C9.671875,10.515625 12.171875,11.921875 13.921875,13.78125 L13.921875,9.671875 L14.234375,9.671875 C14.78125,9.671875 15.40625,9.9375 15.40625,10.078125 L15.40625,14.546875 L15.5,14.546875 C17.015625,12.390625 19.484375,10.703125 21.953125,9.796875 C22.125,10.46875 22.578125,10.890625 23.1875,10.96875 L23.1875,11.234375 C20.765625,11.78125 17.921875,12.984375 16.203125,14.546875 L22.0625,14.546875 C22.390625,14.546875 22.625,14.65625 22.703125,14.921875 C21.9375,15.625 20.765625,16.53125 20.765625,16.53125 L19.703125,15.234375 L15.40625,15.234375 L15.40625,19.203125 C16.015625,19.265625 16.21875,19.515625 16.265625,19.828125 Z" transform="translate(-0.2265625, 20.09375) scale(1, -1)"/>
</svg>