<svg height="21.921875" viewBox="0 0 24 21.921875" width="24" xmlns="http://www.w3.org/2000/svg">
<path d="M9.4375,4.171875 L9.4375,0.078125 C9.4375,-1.03125 9.765625,-1.34375 11.65625,-1.34375 L14.453125,-1.34375 C18.359375,-1.34375 19.078125,-1.078125 19.078125,-0.40625 C19.078125,-0.140625 18.90625,0.03125 18.40625,0.1875 L18.34375,2.15625 L18.046875,2.15625 C17.859375,1.265625 17.609375,0.5 17.453125,0.21875 C17.328125,0.078125 17.234375,0.03125 16.9375,0 C16.625,-0.03125 15.671875,-0.03125 14.5,-0.03125 L11.90625,-0.03125 C10.96875,-0.03125 10.890625,0.046875 10.890625,0.34375 L10.890625,3.390625 C11.296875,3.453125 11.546875,3.671875 11.5625,3.953125 Z M11.25,5.234375 L11.0625,4.96875 C12.34375,4.421875 13.9375,3.34375 14.609375,2.359375 C16.390625,1.78125 16.609375,5.203125 11.25,5.234375 Z M18.21875,4.203125 L17.953125,3.984375 C19.375,2.96875 21.078125,1.203125 21.546875,-0.265625 C23.40625,-1.34375 24.328125,2.5625 18.21875,4.203125 Z M7.25,3.84375 C7.109375,2.46875 6.03125,1.265625 5.09375,0.859375 C4.609375,0.578125 4.265625,0.125 4.484375,-0.359375 C4.734375,-0.890625 5.5625,-0.84375 6.140625,-0.5 C7.078125,0.046875 8.109375,1.515625 7.65625,3.8125 Z M15.890625,13.515625 L15.890625,11.8125 L12.796875,11.8125 L12.796875,13.515625 Z M12.4375,16.6875 C11.59375,14.28125 10.25,12.09375 8.953125,10.78125 L9.265625,10.515625 C9.984375,10.984375 10.703125,11.59375 11.375,12.34375 L11.375,5.40625 L11.609375,5.40625 C12.3125,5.40625 12.796875,5.8125 12.796875,5.921875 L12.796875,6.140625 L22.3125,6.140625 C22.625,6.140625 22.84375,6.265625 22.921875,6.53125 C22.21875,7.15625 21.21875,7.890625 21.21875,7.890625 L20.296875,6.859375 L17.296875,6.859375 L17.296875,8.65625 L21.265625,8.65625 C21.59375,8.65625 21.796875,8.78125 21.859375,9.03125 C21.234375,9.625 20.25,10.34375 20.25,10.34375 L19.421875,9.359375 L17.296875,9.359375 L17.296875,11.109375 L21.234375,11.109375 C21.578125,11.109375 21.796875,11.234375 21.859375,11.5 C21.21875,12.078125 20.234375,12.796875 20.234375,12.796875 L19.390625,11.8125 L17.296875,11.8125 L17.296875,13.515625 L21.859375,13.515625 C22.203125,13.515625 22.421875,13.609375 22.484375,13.875 C21.8125,14.5 20.765625,15.34375 20.765625,15.34375 L19.84375,14.203125 L16.484375,14.203125 C16.921875,14.640625 17.359375,15.09375 17.6875,15.484375 C18.1875,15.453125 18.5,15.671875 18.59375,15.9375 L16.5625,16.53125 L15.71875,14.203125 L13.078125,14.203125 L12.890625,14.28125 C13.15625,14.65625 13.375,15.078125 13.578125,15.484375 C14.09375,15.40625 14.375,15.625 14.5,15.859375 Z M15.890625,11.109375 L15.890625,9.359375 L12.796875,9.359375 L12.796875,11.109375 Z M15.890625,6.859375 L12.796875,6.859375 L12.796875,8.65625 L15.890625,8.65625 Z M8.46875,16.6875 C7.53125,13.890625 5.96875,11.359375 4.421875,9.8125 L4.75,9.53125 C5.5625,10.078125 6.390625,10.796875 7.125,11.65625 L7.125,5.015625 L7.375,5.015625 C7.921875,5.015625 8.515625,5.375 8.5625,5.5 L8.5625,12.75 C8.953125,12.8125 9.1875,12.984375 9.265625,13.203125 L8.515625,13.46875 C8.921875,14.109375 9.3125,14.765625 9.640625,15.453125 C10.171875,15.40625 10.46875,15.59375 10.578125,15.890625 Z M2.8125,17.609375 L2.8125,11.359375 C2.8125,7.015625 2.6875,2.25 0.765625,-1.578125 L1.125,-1.828125 C4.203125,1.96875 4.34375,7.34375 4.34375,11.375 L4.34375,16.921875 L22.390625,16.921875 C22.734375,16.921875 22.96875,17.046875 23.046875,17.296875 C22.21875,18.046875 20.90625,19.078125 20.90625,19.078125 L19.75,17.609375 L13.109375,17.609375 L13.109375,19.203125 C13.703125,19.265625 13.9375,19.515625 13.96875,19.84375 L11.59375,20.09375 L11.59375,17.609375 L4.609375,17.609375 L2.8125,18.40625 Z" transform="translate(-0.546875, 20.09375) scale(1, -1)"/>
</svg>