<svg height="22.0625" viewBox="0 0 24 22.0625" width="24" xmlns="http://www.w3.org/2000/svg">
<path d="M4.65625,20.09375 C3.984375,18.703125 2.59375,16.703125 1.171875,15.4375 L1.46875,15.140625 C3.21875,16.109375 4.890625,17.609375 5.828125,18.8125 C6.390625,18.703125 6.578125,18.8125 6.71875,19.0625 Z M17.765625,3.765625 L17.515625,3.546875 C19.015625,2.5 20.90625,0.640625 21.453125,-0.890625 C23.359375,-1.96875 24.21875,2.015625 17.765625,3.765625 Z M7.21875,4.015625 L7.21875,-0.03125 C7.21875,-1.203125 7.578125,-1.515625 9.671875,-1.515625 L12.890625,-1.515625 C17.296875,-1.515625 18.09375,-1.25 18.09375,-0.5 C18.09375,-0.234375 17.921875,-0.078125 17.375,0.09375 L17.296875,2.515625 L17.015625,2.515625 C16.75,1.4375 16.53125,0.53125 16.34375,0.171875 C16.21875,-0.046875 16.125,-0.09375 15.796875,-0.125 C15.4375,-0.140625 14.328125,-0.171875 12.953125,-0.171875 L9.890625,-0.171875 C8.828125,-0.171875 8.734375,-0.09375 8.734375,0.234375 L8.734375,3.1875 C9.140625,3.234375 9.359375,3.484375 9.40625,3.765625 Z M4.75,3.625 C4.484375,1.96875 2.96875,0.8125 1.828125,0.390625 C1.34375,0.125 0.984375,-0.3125 1.171875,-0.765625 C1.421875,-1.3125 2.28125,-1.296875 2.953125,-0.9375 C4.03125,-0.40625 5.453125,1.03125 5.1875,3.59375 Z M10.078125,4.734375 L9.84375,4.515625 C10.96875,3.765625 12.453125,2.375 12.984375,1.265625 C14.640625,0.5 15.3125,3.796875 10.078125,4.734375 Z M4.890625,16.125 C4.203125,14.203125 2.640625,11.546875 0.90625,9.8125 L1.203125,9.53125 C1.96875,10.0625 2.71875,10.6875 3.390625,11.359375 L3.390625,4.65625 L3.640625,4.65625 C4.203125,4.65625 4.828125,4.984375 4.84375,5.140625 L4.84375,12.09375 C5.25,12.171875 5.515625,12.3125 5.59375,12.53125 L4.734375,12.84375 C5.28125,13.5625 5.765625,14.25 6.125,14.875 C6.703125,14.78125 6.890625,14.90625 7.03125,15.140625 Z M12.984375,13.203125 C11.59375,12.546875 8.875,11.734375 6.71875,11.328125 L6.84375,10.890625 C7.84375,10.9375 8.921875,11.046875 9.984375,11.15625 L9.984375,9.53125 L6.078125,9.53125 L6.265625,8.828125 L9.984375,8.828125 L9.984375,6.75 L6.53125,6.75 L6.71875,6.03125 L14.5625,6.03125 C14.1875,5.765625 13.78125,5.5 13.34375,5.234375 L13.5625,4.890625 C15.671875,5.828125 17.28125,6.953125 18.5,8.359375 C19.25,6.859375 20.296875,5.609375 21.796875,4.703125 C21.953125,5.453125 22.421875,5.859375 23.0625,6 L23.109375,6.21875 C21.453125,6.953125 20.203125,8.046875 19.296875,9.390625 C20.515625,11.1875 21.234375,13.34375 21.59375,15.953125 L22.484375,15.953125 C22.828125,15.953125 23.0625,16.078125 23.140625,16.34375 C22.390625,17.046875 21.265625,17.953125 21.265625,17.953125 L20.234375,16.6875 L17.6875,16.6875 C17.953125,17.453125 18.171875,18.234375 18.359375,19.078125 C18.890625,19.078125 19.125,19.3125 19.203125,19.609375 L16.796875,20.09375 C16.578125,17.828125 16.078125,15.59375 15.359375,13.78125 C14.875,14.234375 14.203125,14.78125 13.921875,15 C14.234375,15.078125 14.46875,15.234375 14.46875,15.34375 L14.46875,18.34375 C15,18.390625 15.21875,18.59375 15.265625,18.90625 L13.171875,19.125 L13.171875,16.171875 L11.421875,16.171875 L11.421875,19.21875 C11.953125,19.3125 12.171875,19.515625 12.1875,19.828125 L10.109375,20.046875 L10.109375,16.171875 L8.359375,16.171875 L8.359375,18.359375 C8.859375,18.40625 9.046875,18.59375 9.09375,18.90625 L7.03125,19.125 L7.03125,14.546875 L7.296875,14.546875 C7.78125,14.546875 8.359375,14.828125 8.359375,14.96875 L8.359375,15.484375 L13.171875,15.484375 L13.171875,14.875 L13.421875,14.875 L13.65625,14.90625 L12.953125,14.046875 L6.625,14.046875 L6.8125,13.34375 L14.8125,13.34375 C15,13.34375 15.171875,13.390625 15.234375,13.515625 C15.03125,12.953125 14.78125,12.484375 14.546875,12.03125 L14.921875,11.8125 C15.625,12.546875 16.25,13.46875 16.78125,14.5 C17.015625,12.703125 17.375,11.015625 17.953125,9.546875 C17.25,8.40625 16.3125,7.375 15.125,6.4375 C14.515625,7.03125 13.625,7.75 13.625,7.75 L12.765625,6.75 L11.421875,6.75 L11.421875,8.828125 L15.21875,8.828125 C15.53125,8.828125 15.75,8.921875 15.796875,9.1875 C15.21875,9.796875 14.234375,10.5625 14.234375,10.5625 L13.390625,9.53125 L11.421875,9.53125 L11.421875,11.375 C12.171875,11.5 12.84375,11.609375 13.421875,11.734375 C13.921875,11.546875 14.328125,11.515625 14.546875,11.71875 Z M18.546875,10.65625 C17.875,12 17.453125,13.5625 17.109375,15.265625 L17.421875,15.953125 L19.96875,15.953125 C19.75,13.96875 19.3125,12.21875 18.546875,10.65625 Z" transform="translate(-0.5625, 20.09375) scale(1, -1)"/>
</svg>