<svg height="22.078125" viewBox="0 0 24 22.078125" width="24" xmlns="http://www.w3.org/2000/svg">
<path d="M4.734375,4.4375 C4.484375,2.203125 3.359375,0.9375 2.1875,0.453125 C0.796875,-1.21875 5.859375,-2.109375 5.109375,4.421875 Z M9.71875,5.828125 L9.5,5.59375 C10.84375,4.984375 12.59375,3.796875 13.265625,2.765625 C15.046875,2.1875 15.265625,5.640625 9.71875,5.828125 Z M17.453125,4.515625 L17.203125,4.25 C18.75,3.3125 20.546875,1.484375 20.953125,-0.09375 C22.828125,-1.21875 23.65625,2.96875 17.453125,4.515625 Z M7.296875,4.828125 L7.296875,0.234375 C7.296875,-0.90625 7.6875,-1.21875 9.71875,-1.21875 L12.84375,-1.21875 C17.140625,-1.21875 17.90625,-1.015625 17.90625,-0.28125 C17.90625,0 17.734375,0.171875 17.203125,0.34375 L17.140625,2.765625 L16.828125,2.765625 C16.609375,1.6875 16.390625,0.75 16.203125,0.40625 C16.078125,0.21875 15.984375,0.140625 15.640625,0.125 C15.28125,0.09375 14.234375,0.09375 12.890625,0.09375 L9.9375,0.09375 C8.90625,0.09375 8.8125,0.140625 8.8125,0.484375 L8.8125,4.03125 C9.234375,4.0625 9.453125,4.296875 9.5,4.578125 Z M6.3125,10.875 L6,10.734375 C6.484375,9.90625 7.015625,8.5625 6.984375,7.515625 C8.0625,6.453125 9.4375,8.8125 6.3125,10.875 Z M8.734375,18.859375 L8.90625,18.171875 L14.28125,18.171875 C14.59375,18.171875 14.8125,18.265625 14.875,18.53125 C14.234375,19.125 13.265625,19.84375 13.265625,19.84375 L12.40625,18.859375 Z M8.90625,14.90625 L9.09375,14.203125 L14.40625,14.203125 C14.71875,14.203125 14.921875,14.328125 14.96875,14.59375 C14.40625,15.125 13.484375,15.765625 13.484375,15.765625 L12.71875,14.90625 Z M8.921875,12.90625 L9.125,12.1875 L14.40625,12.1875 C14.71875,12.1875 14.921875,12.3125 14.96875,12.578125 C14.40625,13.125 13.46875,13.75 13.46875,13.75 L12.703125,12.90625 Z M20.734375,10.796875 L20.40625,10.65625 C21,9.75 21.59375,8.234375 21.625,7.078125 C22.78125,5.953125 24.140625,8.59375 20.734375,10.796875 Z M16.421875,10.84375 C16.0625,9.21875 15.453125,7.5625 14.875,6.453125 L15.234375,6.234375 C16.125,7.109375 16.921875,8.46875 17.5,9.8125 C17.96875,9.8125 18.21875,10.03125 18.3125,10.265625 Z M4.25,19.9375 C3.859375,18.953125 3.3125,17.6875 2.8125,16.78125 C2.40625,17.015625 1.875,17.203125 1.203125,17.359375 L0.9375,17.109375 C1.734375,16.609375 2.609375,15.578125 2.859375,14.78125 C3.796875,14.203125 4.484375,15.4375 3.28125,16.4375 C4.03125,17.140625 4.78125,18.078125 5.296875,18.8125 C5.765625,18.796875 6.03125,18.9375 6.140625,19.203125 Z M1.015625,12.71875 L1.75,11.109375 C1.96875,11.15625 2.15625,11.28125 2.296875,11.59375 L4.171875,11.90625 L4.171875,5.6875 L4.375,5.6875 C5.0625,5.6875 5.515625,6.03125 5.515625,6.125 L5.515625,12.140625 L6.84375,12.390625 C6.984375,12.046875 7.109375,11.6875 7.15625,11.375 C8.28125,10.4375 9.40625,12.8125 5.921875,14.328125 L5.65625,14.15625 C5.953125,13.828125 6.28125,13.375 6.578125,12.890625 L3.53125,12.765625 C4.75,13.890625 6.03125,15.265625 6.796875,16.34375 C7.296875,16.265625 7.609375,16.421875 7.75,16.625 L5.875,17.59375 C5.109375,16.125 3.890625,14.15625 2.78125,12.75 Z M9.03125,10.84375 L9.03125,6.265625 L9.21875,6.265625 C9.75,6.265625 10.34375,6.546875 10.34375,6.671875 L10.34375,7.296875 L13.125,7.296875 L13.125,6.4375 L13.3125,6.4375 C13.734375,6.4375 14.421875,6.75 14.453125,6.890625 L14.453125,10.03125 C14.78125,10.078125 15.125,10.25 15.21875,10.390625 L13.625,11.59375 L12.9375,10.84375 L10.4375,10.84375 L9.03125,11.5 Z M10.34375,8.015625 L10.34375,10.15625 L13.125,10.15625 L13.125,8.015625 Z M18.578125,19.96875 C18.171875,18.953125 17.546875,17.65625 17.015625,16.75 C16.609375,16.984375 16.109375,17.203125 15.4375,17.359375 L15.171875,17.15625 L14.1875,17.921875 L13.265625,16.890625 L7.984375,16.890625 L8.1875,16.203125 L15.234375,16.203125 C15.546875,16.203125 15.796875,16.3125 15.84375,16.578125 C16.390625,16.03125 16.875,15.34375 17.0625,14.734375 C17.96875,14.140625 18.71875,15.40625 17.46875,16.4375 C18.28125,17.109375 19.109375,18.078125 19.703125,18.796875 C20.109375,18.765625 20.421875,18.90625 20.515625,19.171875 Z M15.765625,16.65625 L15.21875,17.140625 C15.390625,16.984375 15.578125,16.828125 15.765625,16.65625 Z M2.234375,10.84375 C1.921875,9.171875 1.390625,7.421875 0.84375,6.265625 L1.21875,6.046875 C2.0625,6.984375 2.8125,8.453125 3.34375,9.8125 C3.84375,9.8125 4.109375,10.0625 4.171875,10.3125 Z M15.171875,12.765625 L15.90625,11.140625 C16.125,11.1875 16.34375,11.296875 16.484375,11.609375 L18.453125,11.921875 L18.453125,5.6875 L18.671875,5.6875 C19.375,5.6875 19.828125,6.03125 19.828125,6.125 L19.828125,12.140625 L21.359375,12.4375 C21.546875,12.046875 21.703125,11.640625 21.75,11.28125 C22.984375,10.3125 24.140625,12.890625 20.359375,14.328125 L20.09375,14.140625 C20.421875,13.796875 20.78125,13.375 21.078125,12.90625 L17.828125,12.796875 C19.125,13.890625 20.421875,15.234375 21.265625,16.265625 C21.75,16.171875 22.078125,16.296875 22.25,16.5625 L20.375,17.546875 C19.5625,16.078125 18.21875,14.1875 17.046875,12.796875 Z" transform="translate(-0.46875, 19.96875) scale(1, -1)"/>
</svg>