<svg height="21.984375" viewBox="0 0 24 21.984375" width="24" xmlns="http://www.w3.org/2000/svg">
<path d="M15.125,9.953125 L14.90625,9.71875 C15.9375,9.1875 17.1875,8.15625 17.640625,7.25 C19.25,6.453125 20.015625,9.59375 15.125,9.953125 Z M19.296875,14.78125 L19.296875,11.609375 L5.328125,11.609375 L5.328125,14.78125 Z M18.796875,20.0625 C15.703125,19.265625 10.0625,18.34375 5.328125,17.90625 L3.796875,18.578125 L3.796875,11.609375 C3.796875,7.03125 3.4375,2.25 0.71875,-1.609375 L1.0625,-1.875 C3.359375,0.34375 4.4375,3.140625 4.921875,5.921875 L11.515625,5.921875 C10.875,2.71875 9.09375,0.484375 3.671875,-1.421875 L3.90625,-1.875 C10.578125,-0.09375 12.5,2.359375 13.171875,5.859375 C13.9375,2.78125 15.75,-0.234375 21.53125,-1.921875 C21.671875,-0.984375 22.21875,-0.671875 23.09375,-0.546875 L23.140625,-0.265625 C16.96875,1.0625 14.546875,3.3125 13.65625,5.921875 L22.21875,5.921875 C22.5625,5.921875 22.78125,6.046875 22.84375,6.3125 C22.03125,7.0625 20.8125,8.015625 20.8125,8.015625 L19.6875,6.640625 L13.3125,6.640625 C13.4375,7.484375 13.515625,8.375 13.5625,9.34375 C14.09375,9.390625 14.328125,9.640625 14.375,9.953125 L11.859375,10.203125 C11.828125,8.90625 11.78125,7.734375 11.640625,6.640625 L5.046875,6.640625 C5.25,8.109375 5.296875,9.578125 5.328125,10.921875 L19.296875,10.921875 L19.296875,10.125 L19.53125,10.125 C20.046875,10.125 20.859375,10.4375 20.875,10.609375 L20.875,14.515625 C21.28125,14.609375 21.671875,14.8125 21.796875,14.96875 L19.890625,16.375 L19.078125,15.453125 L5.328125,15.453125 L5.328125,17.375 C10.203125,17.453125 15.578125,17.90625 19.25,18.453125 C19.84375,18.171875 20.28125,18.171875 20.5,18.359375 Z" transform="translate(0.0703125, 20.0625) scale(1, -1)"/>
</svg>