<svg height="21.984375" viewBox="0 0 24 21.984375" width="24" xmlns="http://www.w3.org/2000/svg">
<path d="M1.703125,18.703125 L1.921875,18 L22.15625,18 C22.484375,18 22.734375,18.125 22.796875,18.359375 C21.984375,19.109375 20.6875,20.09375 20.6875,20.09375 L19.53125,18.703125 Z M18.84375,14.921875 L18.84375,11.59375 L5.46875,11.59375 L5.46875,14.921875 Z M12.171875,10.203125 C12.140625,9.046875 12.09375,7.984375 11.96875,7.03125 L5.28125,7.03125 C5.453125,8.328125 5.46875,9.578125 5.46875,10.703125 L5.46875,10.890625 L18.84375,10.890625 L18.84375,9.765625 L19.078125,9.765625 C19.609375,9.765625 20.40625,10.109375 20.421875,10.25 L20.421875,14.65625 C20.828125,14.765625 21.21875,14.953125 21.359375,15.125 L19.46875,16.53125 L18.625,15.625 L5.765625,15.625 L3.90625,16.421875 L3.90625,10.703125 C3.90625,6.546875 3.5,2.09375 0.703125,-1.53125 L1.03125,-1.796875 C3.671875,0.484375 4.75,3.453125 5.1875,6.3125 L11.875,6.3125 C11.328125,2.765625 9.59375,0.484375 3.71875,-1.421875 L3.953125,-1.890625 C11.234375,-0.125 12.984375,2.40625 13.578125,6.3125 C14.234375,2.90625 15.90625,-0.1875 21.59375,-1.890625 C21.765625,-0.953125 22.296875,-0.625 23.15625,-0.5 L23.1875,-0.21875 C17.15625,1.109375 14.875,3.40625 14.046875,6.3125 L21.796875,6.3125 C22.125,6.3125 22.34375,6.4375 22.421875,6.703125 C21.625,7.421875 20.359375,8.40625 20.359375,8.40625 L19.21875,7.03125 L13.65625,7.03125 C13.75,7.75 13.796875,8.5 13.84375,9.3125 C14.375,9.359375 14.609375,9.625 14.65625,9.9375 Z" transform="translate(0.0546875, 20.09375) scale(1, -1)"/>
</svg>