<svg height="21.53125" viewBox="0 0 24 21.53125" width="24" xmlns="http://www.w3.org/2000/svg">
<path d="M1.5625,18.125 L1.78125,17.40625 L22.015625,17.40625 C22.34375,17.40625 22.609375,17.515625 22.65625,17.78125 C21.796875,18.546875 20.421875,19.609375 20.421875,19.609375 L19.203125,18.125 Z M4.21875,14.109375 L4.21875,9.53125 C4.21875,5.6875 3.796875,1.625 0.703125,-1.625 L0.984375,-1.921875 C4.53125,0.59375 5.546875,4.109375 5.78125,7.25 L18.359375,7.25 L18.359375,5.59375 L18.59375,5.59375 C19.125,5.59375 19.96875,5.953125 19.984375,6.09375 L19.984375,13.109375 C20.453125,13.203125 20.828125,13.390625 21,13.5625 L19.03125,15.09375 L18.125,14.109375 L6.140625,14.109375 L4.21875,14.96875 Z M5.828125,7.921875 L5.875,9.546875 L5.875,13.421875 L18.359375,13.421875 L18.359375,7.921875 Z" transform="translate(0.3203125, 19.609375) scale(1, -1)"/>
</svg>