<svg height="22.015625" viewBox="0 0 24 22.015625" width="24" xmlns="http://www.w3.org/2000/svg">
<path d="M18.984375,20.1875 C15.8125,19.390625 9.953125,18.40625 5.25,18.03125 L3.859375,18.625 L3.859375,11.609375 C3.859375,7.078125 3.5,2.359375 0.703125,-1.4375 L1.0625,-1.703125 C3.796875,0.8125 4.828125,4.15625 5.203125,7.375 L10.875,7.375 C10.6875,4.34375 9.859375,1.171875 3.984375,-1.421875 L4.296875,-1.828125 C9.140625,-0.125 11.140625,2.0625 12,4.421875 L18.265625,4.421875 C18.046875,2.234375 17.640625,0.640625 17.140625,0.265625 C16.9375,0.125 16.703125,0.078125 16.296875,0.078125 C15.796875,0.078125 13.96875,0.21875 12.984375,0.28125 L12.984375,-0.125 C13.890625,-0.234375 14.90625,-0.453125 15.21875,-0.703125 C15.578125,-0.9375 15.671875,-1.375 15.671875,-1.828125 C16.625,-1.828125 17.5,-1.578125 18.09375,-1.15625 C19.015625,-0.484375 19.609375,1.484375 19.84375,4.21875 C20.296875,4.296875 20.609375,4.390625 20.765625,4.5625 L18.984375,6.03125 L18.078125,5.109375 L12.21875,5.109375 C12.4375,5.859375 12.546875,6.59375 12.625,7.375 L22.265625,7.375 C22.609375,7.375 22.84375,7.484375 22.921875,7.75 C22.125,8.5 20.90625,9.4375 20.90625,9.4375 L19.796875,8.09375 L13.484375,8.09375 L13.484375,10.03125 C13.9375,10.109375 14.109375,10.296875 14.15625,10.5625 L11.921875,10.796875 L11.921875,8.09375 L5.28125,8.09375 C5.375,9.171875 5.421875,10.21875 5.421875,11.203125 L19.296875,11.203125 L19.296875,10.203125 L19.53125,10.203125 C20.046875,10.203125 20.859375,10.5625 20.875,10.703125 L20.875,14.609375 C21.28125,14.6875 21.640625,14.875 21.796875,15.046875 L19.890625,16.46875 L19.078125,15.546875 L5.421875,15.546875 L5.421875,17.515625 C10.265625,17.5625 15.75,18 19.46875,18.484375 C20.046875,18.1875 20.5,18.171875 20.734375,18.390625 Z M19.296875,14.859375 L19.296875,11.90625 L5.421875,11.90625 L5.421875,14.859375 Z" transform="translate(0.1875, 20.1875) scale(1, -1)"/>
</svg>