<svg height="22.015625" viewBox="0 0 24 22.015625" width="24" xmlns="http://www.w3.org/2000/svg">
<path d="M1.6875,18.671875 L1.890625,17.96875 L22.3125,17.96875 C22.65625,17.96875 22.890625,18.09375 22.9375,18.359375 C22.125,19.109375 20.828125,20.09375 20.828125,20.09375 L19.6875,18.671875 Z M19.53125,15.1875 L19.53125,12.4375 L5.328125,12.4375 L5.328125,15.1875 Z M3.765625,15.890625 L3.765625,11.015625 C3.765625,6.8125 3.453125,2.203125 0.84375,-1.578125 L1.15625,-1.828125 C5.015625,1.828125 5.328125,7.171875 5.328125,11.046875 L5.328125,11.734375 L19.53125,11.734375 L19.53125,10.78125 L19.75,10.78125 C20.28125,10.78125 21.078125,11.140625 21.09375,11.296875 L21.09375,14.953125 C21.53125,15.03125 21.859375,15.21875 22.015625,15.390625 L20.140625,16.796875 L19.296875,15.890625 L5.609375,15.890625 L3.765625,16.703125 Z M14.65625,10.921875 L14.65625,-1.84375 L14.96875,-1.84375 C15.53125,-1.84375 16.203125,-1.515625 16.203125,-1.3125 L16.203125,1.921875 L22.375,1.921875 C22.703125,1.921875 22.9375,2.046875 22.984375,2.296875 C22.25,3 21.09375,3.90625 21.09375,3.90625 L20.0625,2.609375 L16.203125,2.609375 L16.203125,5.09375 L21.578125,5.09375 C21.859375,5.09375 22.109375,5.203125 22.15625,5.46875 C21.5,6.09375 20.421875,6.953125 20.421875,6.953125 L19.484375,5.78125 L16.203125,5.78125 L16.203125,8.140625 L21.859375,8.140625 C22.203125,8.140625 22.421875,8.25 22.484375,8.515625 C21.796875,9.171875 20.65625,10.0625 20.65625,10.0625 L19.6875,8.828125 L16.203125,8.828125 L16.203125,10.078125 C16.75,10.171875 16.9375,10.390625 16.984375,10.6875 Z M4.484375,2.375 L5.5625,0.703125 C5.765625,0.75 5.921875,0.9375 6.03125,1.21875 C7.734375,1.84375 9.046875,2.375 10.078125,2.8125 C9.53125,1.03125 8.15625,-0.4375 5.296875,-1.5625 L5.546875,-1.921875 C10.78125,-0.359375 11.96875,2.28125 12,5.421875 L12,10.0625 C12.546875,10.15625 12.71875,10.34375 12.796875,10.65625 L10.4375,10.921875 L10.4375,8.8125 L5.8125,8.8125 L6,8.140625 L10.4375,8.140625 L10.4375,5.828125 L5.921875,5.828125 L6.140625,5.140625 L10.4375,5.140625 C10.421875,4.5625 10.375,3.984375 10.25,3.453125 C7.875,2.953125 5.59375,2.515625 4.484375,2.375 Z" transform="translate(0.0859375, 20.09375) scale(1, -1)"/>
</svg>