<svg height="21.65625" viewBox="0 0 24 21.65625" width="24" xmlns="http://www.w3.org/2000/svg">
<path d="M19.21875,15.28125 L19.21875,13.21875 L5.015625,13.21875 L5.015625,15.28125 Z M18.890625,20.09375 C15.796875,19.3125 10.203125,18.40625 5.5,17.921875 L3.5,18.59375 L3.5,10.734375 C3.5,6.5 3.265625,2.15625 0.9375,-1.3125 L1.296875,-1.5625 C4.796875,1.796875 5.015625,6.71875 5.015625,10.734375 L5.015625,12.5 L19.21875,12.5 L19.21875,11.859375 L19.46875,11.859375 C19.9375,11.859375 20.71875,12.171875 20.734375,12.3125 L20.734375,15.046875 C21.171875,15.140625 21.53125,15.34375 21.640625,15.5 L19.828125,16.84375 L19.015625,15.984375 L5.015625,15.984375 L5.015625,17.359375 C9.984375,17.5 15.5,18.03125 19.265625,18.578125 C19.828125,18.3125 20.25,18.28125 20.46875,18.484375 Z M19.109375,5.453125 L19.109375,3.28125 L14.109375,3.28125 L14.109375,5.453125 Z M6.1875,1.015625 L6.1875,0.75 C6.1875,-1.0625 6.625,-1.25 9.796875,-1.25 L19.171875,-1.25 C22.515625,-1.25 23.015625,-1.03125 23.015625,-0.359375 C23.015625,-0.09375 22.890625,-0.03125 21.984375,0.21875 L21.9375,2.59375 L21.71875,2.59375 C21.265625,1.203125 20.875,0.4375 20.640625,0.21875 C20.40625,0.03125 19.984375,0.03125 19.390625,0.03125 L9.671875,0.03125 C7.796875,0.03125 7.703125,0.046875 7.703125,0.765625 L7.703125,2.5625 L19.109375,2.5625 L19.109375,1.78125 L19.34375,1.78125 C19.84375,1.78125 20.59375,2.109375 20.609375,2.25 L20.609375,5.25 C21,5.328125 21.359375,5.515625 21.5,5.65625 L19.703125,7.015625 L18.890625,6.140625 L7.984375,6.140625 L6.1875,6.9375 Z M7.703125,5.453125 L12.578125,5.453125 L12.578125,3.28125 L7.703125,3.28125 Z M17.421875,10.3125 L17.421875,8.40625 L9.21875,8.40625 L9.21875,10.3125 Z M7.734375,11.015625 L7.734375,6.84375 L7.9375,6.84375 C8.71875,6.84375 9.21875,7.203125 9.21875,7.34375 L9.21875,7.703125 L17.421875,7.703125 L17.421875,7.03125 L17.65625,7.03125 C18.140625,7.03125 18.90625,7.34375 18.9375,7.515625 L18.9375,10.125 C19.3125,10.203125 19.6875,10.375 19.796875,10.515625 L18.03125,11.859375 L17.234375,11.015625 L9.484375,11.015625 L7.734375,11.78125 Z" transform="translate(0.0234375, 20.09375) scale(1, -1)"/>
</svg>