<svg height="21.453125" viewBox="0 0 24 21.453125" width="24" xmlns="http://www.w3.org/2000/svg">
<path d="M1.484375,18.703125 L1.703125,18 L22.171875,18 C22.515625,18 22.734375,18.125 22.796875,18.359375 C21.953125,19.109375 20.65625,20.0625 20.65625,20.0625 L19.53125,18.703125 Z M19.15625,15.40625 L19.15625,13.296875 L5.203125,13.296875 L5.203125,15.40625 Z M3.703125,16.125 L3.703125,11.421875 C3.703125,7.21875 3.40625,2.640625 0.890625,-1.125 L1.21875,-1.390625 C4.921875,2.296875 5.203125,7.625 5.203125,11.453125 L5.203125,12.578125 L19.15625,12.578125 L19.15625,11.921875 L19.390625,11.921875 C19.84375,11.921875 20.640625,12.234375 20.65625,12.390625 L20.65625,15.1875 C21.078125,15.265625 21.4375,15.453125 21.546875,15.625 L19.734375,16.984375 L18.9375,16.125 L5.515625,16.125 L3.703125,16.890625 Z M19.109375,5.5 L19.109375,3.3125 L14.109375,3.3125 L14.109375,5.5 Z M6.1875,1.03125 L6.1875,0.703125 C6.1875,-1.078125 6.59375,-1.265625 9.796875,-1.265625 L19.171875,-1.265625 C22.515625,-1.265625 23.015625,-1.078125 23.015625,-0.40625 C23.015625,-0.171875 22.890625,-0.078125 21.984375,0.171875 L21.9375,2.40625 L21.71875,2.40625 C21.265625,1.078125 20.859375,0.359375 20.609375,0.140625 C20.40625,-0.046875 19.96875,-0.046875 19.390625,-0.046875 L9.671875,-0.046875 C7.796875,-0.046875 7.703125,-0.046875 7.703125,0.703125 L7.703125,2.59375 L19.109375,2.59375 L19.109375,1.984375 L19.34375,1.984375 C19.84375,1.984375 20.59375,2.328125 20.609375,2.5 L20.609375,5.296875 C21,5.375 21.359375,5.546875 21.5,5.6875 L19.703125,7.03125 L18.890625,6.1875 L7.984375,6.1875 L6.1875,6.953125 Z M7.703125,5.5 L12.578125,5.5 L12.578125,3.3125 L7.703125,3.3125 Z M17.421875,10.375 L17.421875,8.453125 L9.21875,8.453125 L9.21875,10.375 Z M7.734375,11.0625 L7.734375,7.015625 L7.9375,7.015625 C8.71875,7.015625 9.21875,7.375 9.21875,7.484375 L9.21875,7.75 L17.421875,7.75 L17.421875,7.109375 L17.65625,7.109375 C18.140625,7.109375 18.90625,7.4375 18.9375,7.578125 L18.9375,10.171875 C19.3125,10.25 19.6875,10.421875 19.796875,10.5625 L18.03125,11.90625 L17.234375,11.0625 L9.484375,11.0625 L7.734375,11.828125 Z" transform="translate(0.046875, 20.0625) scale(1, -1)"/>
</svg>