<svg height="21.921875" viewBox="0 0 24 21.921875" width="24" xmlns="http://www.w3.org/2000/svg">
<path d="M1.25,18.140625 L1.4375,17.453125 L12.046875,17.453125 C12.359375,17.453125 12.59375,17.5625 12.671875,17.828125 C11.90625,18.546875 10.625,19.53125 10.625,19.5625 L9.5,18.140625 Z M9.1875,13.375 L9.1875,8.328125 L4.375,8.328125 L4.390625,9.90625 L4.390625,13.375 Z M2.859375,14.0625 L2.859375,9.90625 C2.859375,6.140625 2.6875,1.875 0.8125,-1.6875 L1.125,-1.9375 C3.546875,0.84375 4.171875,4.515625 4.34375,7.609375 L9.1875,7.609375 L9.1875,6.1875 L9.40625,6.1875 C9.90625,6.1875 10.65625,6.53125 10.6875,6.671875 L10.6875,13.078125 C11.1875,13.171875 11.5625,13.375 11.734375,13.53125 L9.8125,15.03125 L8.953125,14.0625 L4.6875,14.0625 L2.859375,14.921875 Z M20.640625,19.984375 C19.375,19.21875 17.015625,18.125 14.859375,17.359375 L13.21875,17.90625 L13.21875,11.46875 C13.21875,6.84375 12.546875,2.203125 8.65625,-1.5625 L9,-1.84375 C14.15625,1.75 14.765625,7.15625 14.765625,11.453125 L14.765625,11.5 L18.4375,11.5 L18.4375,-1.921875 L18.703125,-1.921875 C19.515625,-1.921875 20.015625,-1.515625 20.015625,-1.390625 L20.015625,11.5 L22.6875,11.5 C23.015625,11.5 23.203125,11.609375 23.28125,11.875 C22.515625,12.578125 21.28125,13.609375 21.28125,13.609375 L20.1875,12.171875 L14.765625,12.171875 L14.765625,16.734375 C17.203125,17.09375 19.796875,17.734375 21.5,18.265625 C22.078125,18.046875 22.515625,18.078125 22.734375,18.28125 Z" transform="translate(-0.046875, 19.984375) scale(1, -1)"/>
</svg>