<svg height="21.890625" viewBox="0 0 24 21.890625" width="24" xmlns="http://www.w3.org/2000/svg">
<path d="M1.609375,18.671875 L1.828125,17.96875 L21.890625,17.96875 C22.21875,17.96875 22.484375,18.09375 22.53125,18.359375 C21.703125,19.0625 20.40625,20.015625 20.40625,20.015625 L19.25,18.671875 Z M18.9375,14.953125 L18.9375,11.6875 L5.5,11.6875 L5.5,14.953125 Z M3.9375,15.625 L3.9375,11.203125 C3.9375,7.015625 3.546875,2.359375 0.765625,-1.484375 L1.109375,-1.75 C5.046875,1.921875 5.46875,7.109375 5.5,10.96875 L18.9375,10.96875 L18.9375,9.984375 L19.171875,9.984375 C19.6875,9.984375 20.46875,10.34375 20.5,10.484375 L20.5,14.6875 C20.921875,14.78125 21.28125,14.96875 21.4375,15.140625 L19.53125,16.5625 L18.71875,15.625 L5.78125,15.625 L3.9375,16.4375 Z M5.640625,8.46875 L5.640625,-1.84375 L5.859375,-1.84375 C6.453125,-1.84375 7.0625,-1.515625 7.0625,-1.34375 L7.0625,3.703125 L10.21875,3.703125 L10.21875,-1.609375 L10.4375,-1.609375 C11.1875,-1.609375 11.6875,-1.25 11.6875,-1.15625 L11.6875,3.703125 L14.875,3.703125 L14.875,-1.609375 L15.125,-1.609375 C15.859375,-1.609375 16.375,-1.25 16.375,-1.15625 L16.375,3.703125 L19.578125,3.703125 L19.578125,0.359375 C19.578125,0.078125 19.515625,-0.078125 19.171875,-0.078125 C18.796875,-0.078125 17.296875,0.046875 17.296875,0.046875 L17.296875,-0.34375 C18.046875,-0.40625 18.453125,-0.59375 18.703125,-0.8125 C18.9375,-1.0625 19.015625,-1.4375 19.0625,-1.875 C20.921875,-1.703125 21.140625,-0.984375 21.140625,0.1875 L21.140625,7.46875 C21.625,7.53125 22.03125,7.75 22.171875,7.921875 L20.15625,9.40625 L19.375,8.46875 L7.203125,8.46875 L5.640625,9.1875 Z M19.578125,4.390625 L16.375,4.390625 L16.375,7.75 L19.578125,7.75 Z M7.0625,4.390625 L7.0625,7.75 L10.21875,7.75 L10.21875,4.390625 Z M11.6875,4.390625 L11.6875,7.75 L14.875,7.75 L14.875,4.390625 Z" transform="translate(0.3515625, 20.015625) scale(1, -1)"/>
</svg>