<svg height="22.015625" viewBox="0 0 24 22.015625" width="24" xmlns="http://www.w3.org/2000/svg">
<path d="M19.203125,14.515625 L19.203125,11.5625 L5.1875,11.5625 L5.1875,12.078125 L5.1875,14.515625 Z M19.25,20.09375 C16.0625,19.34375 10.375,18.484375 5.59375,18.078125 L3.625,18.75 L3.625,12.09375 C3.625,7.625 3.359375,2.765625 0.859375,-1.21875 L1.203125,-1.484375 C4.5625,2.015625 5.109375,6.890625 5.1875,10.84375 L19.203125,10.84375 L19.203125,9.859375 L19.4375,9.859375 C19.9375,9.859375 20.734375,10.25 20.765625,10.390625 L20.765625,14.28125 C21.1875,14.359375 21.546875,14.5625 21.703125,14.734375 L19.796875,16.125 L18.984375,15.21875 L5.1875,15.21875 L5.1875,17.5 C10.15625,17.609375 15.75,18.078125 19.609375,18.5 C20.140625,18.234375 20.59375,18.21875 20.828125,18.4375 Z M5.546875,8.296875 L5.546875,-1.875 L5.765625,-1.875 C6.390625,-1.875 6.953125,-1.53125 6.953125,-1.390625 L6.953125,3.59375 L10.203125,3.59375 L10.203125,-1.609375 L10.421875,-1.609375 C11.15625,-1.609375 11.640625,-1.25 11.640625,-1.15625 L11.640625,3.59375 L14.90625,3.59375 L14.90625,-1.609375 L15.125,-1.609375 C15.890625,-1.609375 16.375,-1.25 16.375,-1.15625 L16.375,3.59375 L19.734375,3.59375 L19.734375,0.3125 C19.734375,0.03125 19.625,-0.125 19.3125,-0.125 C18.90625,-0.125 17.421875,0 17.421875,0 L17.421875,-0.390625 C18.171875,-0.453125 18.578125,-0.640625 18.8125,-0.859375 C19.0625,-1.109375 19.125,-1.46875 19.171875,-1.921875 C21.046875,-1.734375 21.265625,-1.015625 21.265625,0.171875 L21.265625,7.296875 C21.75,7.390625 22.15625,7.609375 22.296875,7.78125 L20.28125,9.265625 L19.515625,8.296875 L7.109375,8.296875 L5.546875,9.03125 Z M19.734375,4.296875 L16.375,4.296875 L16.375,7.609375 L19.734375,7.609375 Z M6.953125,4.296875 L6.953125,7.609375 L10.203125,7.609375 L10.203125,4.296875 Z M11.640625,4.296875 L11.640625,7.609375 L14.90625,7.609375 L14.90625,4.296875 Z" transform="translate(0.421875, 20.09375) scale(1, -1)"/>
</svg>