<svg height="22.25" viewBox="0 0 24 22.25" width="24" xmlns="http://www.w3.org/2000/svg">
<path d="M9.8125,5.234375 C8.734375,3.4375 6.59375,1.21875 4.625,-0.171875 L4.875,-0.53125 C7.125,0.625 9.640625,2.421875 10.921875,4.015625 L10.921875,0.1875 C10.921875,-0.140625 10.828125,-0.28125 10.390625,-0.28125 C9.90625,-0.28125 7.734375,-0.125 7.734375,-0.125 L7.734375,-0.484375 C8.71875,-0.59375 9.265625,-0.796875 9.59375,-1.03125 C9.890625,-1.25 10.015625,-1.625 10.078125,-2.0625 C12.1875,-1.875 12.40625,-1.109375 12.40625,0.046875 L12.40625,7.921875 C12.890625,7.984375 13.296875,8.203125 13.4375,8.375 L11.46875,9.84375 L10.6875,8.90625 L5.46875,8.90625 L5.6875,8.203125 L8.6875,8.203125 C7.828125,6.953125 6.4375,5.5 5.15625,4.46875 L5.421875,4.125 C7.078125,5.015625 9.03125,6.359375 10.03125,7.4375 C10.4375,7.3125 10.703125,7.375 10.828125,7.578125 L9.71875,8.203125 L10.921875,8.203125 L10.921875,4.625 Z M18.3125,5.421875 C17.234375,3.640625 15.078125,1.46875 13.125,0.078125 L13.375,-0.28125 C15.625,0.84375 18.171875,2.65625 19.46875,4.203125 L19.5625,4.171875 L19.5625,0.390625 C19.5625,0.046875 19.4375,-0.09375 19.015625,-0.09375 C18.484375,-0.09375 16.171875,0.078125 16.171875,0.078125 L16.171875,-0.3125 C17.203125,-0.4375 17.8125,-0.59375 18.140625,-0.84375 C18.4375,-1.0625 18.578125,-1.46875 18.640625,-1.890625 C20.8125,-1.6875 21.078125,-0.9375 21.078125,0.234375 L21.078125,7.921875 C21.546875,7.984375 21.9375,8.203125 22.109375,8.375 L20.09375,9.859375 L19.3125,8.90625 L13.78125,8.90625 L13.984375,8.203125 L16.796875,8.203125 C15.984375,6.953125 14.609375,5.515625 13.390625,4.484375 L13.65625,4.15625 C15.265625,5.015625 17.15625,6.359375 18.140625,7.4375 C18.5,7.3125 18.796875,7.375 18.9375,7.609375 L17.859375,8.203125 L19.5625,8.203125 L19.5625,4.734375 Z M19.015625,14.921875 L19.015625,11.90625 L5.1875,11.90625 L5.1875,12.90625 L5.1875,14.921875 Z M3.640625,18.640625 L3.640625,12.953125 C3.640625,8.28125 3.34375,2.921875 0.765625,-1.578125 L1.15625,-1.84375 C4.4375,1.9375 5.0625,7.125 5.15625,11.1875 L19.015625,11.1875 L19.015625,10.15625 L19.25,10.15625 C19.78125,10.15625 20.546875,10.515625 20.5625,10.65625 L20.5625,14.6875 C21,14.765625 21.359375,14.953125 21.484375,15.09375 L19.625,16.515625 L18.796875,15.59375 L5.1875,15.59375 L5.1875,17.5 C10.203125,17.5625 15.8125,17.96875 19.703125,18.453125 C20.25,18.171875 20.734375,18.140625 20.96875,18.34375 L19.21875,20.1875 C16.03125,19.390625 10.21875,18.484375 5.40625,18.046875 Z" transform="translate(0.5625, 20.1875) scale(1, -1)"/>
</svg>