<svg height="21.984375" viewBox="0 0 24 21.984375" width="24" xmlns="http://www.w3.org/2000/svg">
<path d="M19.171875,14.90625 L19.171875,12.125 L5.109375,12.125 L5.109375,14.90625 Z M19.0625,20.09375 C15.859375,19.34375 10.125,18.4375 5.375,17.90625 L3.578125,18.5 L3.578125,10.203125 C3.578125,6.03125 3.390625,1.84375 1.03125,-1.4375 L1.421875,-1.703125 C4.875,1.484375 5.109375,6.1875 5.109375,10.203125 L5.109375,11.421875 L19.171875,11.421875 L19.171875,10.484375 L19.421875,10.484375 C19.921875,10.484375 20.71875,10.84375 20.734375,10.984375 L20.734375,14.6875 C21.140625,14.765625 21.5,14.953125 21.640625,15.09375 L19.78125,16.515625 L18.953125,15.59375 L5.109375,15.59375 L5.109375,17.328125 C10.03125,17.515625 15.59375,18.046875 19.421875,18.53125 C19.984375,18.234375 20.421875,18.21875 20.65625,18.40625 Z M14.734375,10.796875 L14.734375,-1.875 L15.046875,-1.875 C15.59375,-1.875 16.265625,-1.53125 16.265625,-1.3125 L16.265625,1.890625 L22.265625,1.890625 C22.578125,1.890625 22.828125,2.015625 22.875,2.28125 C22.15625,2.96875 20.96875,3.890625 20.96875,3.890625 L19.9375,2.59375 L16.265625,2.59375 L16.265625,5.09375 L21.234375,5.09375 C21.578125,5.09375 21.796875,5.203125 21.84375,5.46875 C21.171875,6.09375 20.09375,6.9375 20.09375,6.9375 L19.171875,5.78125 L16.265625,5.78125 L16.265625,8.015625 L21.703125,8.015625 C22.03125,8.015625 22.25,8.140625 22.3125,8.40625 C21.59375,9.078125 20.5,9.9375 20.5,9.9375 L19.515625,8.734375 L16.265625,8.734375 L16.265625,9.953125 C16.828125,10.0625 17.015625,10.265625 17.0625,10.5625 Z M4.609375,2.6875 L5.546875,0.859375 C5.78125,0.9375 5.953125,1.078125 6.09375,1.375 L9.84375,2.25 C9.1875,0.71875 7.828125,-0.578125 5.234375,-1.5625 L5.46875,-1.890625 C9.125,-0.84375 10.796875,0.75 11.5,2.65625 L13.078125,3.078125 L13.03125,3.453125 L11.71875,3.3125 C11.859375,3.953125 11.921875,4.625 11.921875,5.328125 L11.921875,9.9375 C12.5,10.03125 12.671875,10.25 12.71875,10.5625 L10.390625,10.796875 L10.390625,8.78125 L5.328125,8.78125 L5.546875,8.0625 L10.390625,8.0625 L10.390625,5.875 L5.734375,5.875 L5.921875,5.1875 L10.390625,5.1875 C10.390625,4.484375 10.3125,3.796875 10.15625,3.171875 C7.78125,2.921875 5.71875,2.734375 4.609375,2.6875 Z" transform="translate(0.046875, 20.09375) scale(1, -1)"/>
</svg>