<svg height="23.328125" viewBox="0 0 24 23.328125" width="24" xmlns="http://www.w3.org/2000/svg">
<path d="M14.515625,19.484375 C13.703125,14.140625 12.140625,7.03125 10.484375,1.53125 C9.171875,1.390625 8.09375,1.3125 7.3125,1.265625 L8.328125,-1.015625 C8.5625,-0.953125 8.8125,-0.796875 8.921875,-0.5 C13.875,0.546875 17.515625,1.375 20.28125,2.0625 C20.78125,0.84375 21.171875,-0.34375 21.359375,-1.375 C23.5,-3.21875 24.546875,2.234375 16.9375,9.140625 L16.578125,8.96875 C17.6875,7.203125 19.03125,4.84375 20.046875,2.59375 C16.75,2.1875 13.5625,1.828125 11.09375,1.578125 C13.390625,6.9375 15.3125,13.5625 16.296875,18.28125 C16.890625,18.3125 17.140625,18.59375 17.203125,18.90625 Z M0.640625,7.515625 L1.46875,5.46875 C1.6875,5.5625 1.890625,5.78125 1.96875,6.078125 L4.78125,7.390625 L4.78125,0.578125 C4.78125,0.21875 4.65625,0.125 4.25,0.125 C3.8125,0.125 1.65625,0.265625 1.65625,0.265625 L1.65625,-0.125 C2.59375,-0.234375 3.140625,-0.40625 3.484375,-0.671875 C3.796875,-0.9375 3.90625,-1.375 3.953125,-1.84375 C6.046875,-1.625 6.28125,-0.84375 6.28125,0.453125 L6.28125,8.140625 L10.375,10.203125 L10.265625,10.5625 L6.28125,9.21875 L6.28125,13.921875 L9.703125,13.921875 C10.03125,13.921875 10.25,14.046875 10.3125,14.296875 C9.59375,15.03125 8.46875,15.984375 8.46875,15.984375 L7.4375,14.609375 L6.28125,14.609375 L6.28125,19.203125 C6.890625,19.265625 7.125,19.515625 7.171875,19.84375 L4.78125,20.109375 L4.78125,14.609375 L1.0625,14.609375 L1.25,13.921875 L4.78125,13.921875 L4.78125,8.734375 C2.96875,8.140625 1.484375,7.703125 0.640625,7.515625 Z" transform="translate(-0.59375, 20.109375) scale(1, -1)"/>
</svg>