<svg height="21.984375" viewBox="0 0 24 21.984375" width="24" xmlns="http://www.w3.org/2000/svg">
<path d="M17.109375,17.609375 C16.734375,15.5 16.0625,12.40625 15.40625,10.0625 C16.109375,9.890625 16.578125,9.9375 16.9375,10.109375 L17.375,11.8125 L20.140625,11.8125 C19.53125,9.125 18.53125,6.625 17.046875,4.46875 C14.859375,7.0625 13.265625,10.734375 12.59375,16.296875 L12.625,17.609375 Z M9.265625,18.3125 L9.484375,17.609375 L11.0625,17.609375 C11.015625,11.15625 10.984375,4.03125 7.015625,-1.4375 L7.421875,-1.828125 C11.46875,2.515625 12.3125,8.15625 12.53125,13.875 C13.203125,9.09375 14.421875,5.78125 16.15625,3.28125 C14.5625,1.375 12.53125,-0.265625 9.953125,-1.484375 L10.203125,-1.84375 C13.03125,-0.796875 15.1875,0.625 16.890625,2.328125 C18.3125,0.59375 20.015625,-0.703125 22.015625,-1.84375 C22.265625,-1.0625 22.796875,-0.53125 23.46875,-0.40625 L23.515625,-0.171875 C21.453125,0.765625 19.5625,1.890625 17.953125,3.484375 C19.84375,5.8125 21.046875,8.5625 21.84375,11.546875 C22.390625,11.59375 22.625,11.65625 22.828125,11.875 L21.078125,13.484375 L20.046875,12.484375 L17.546875,12.484375 C17.96875,14.25 18.390625,16.125 18.625,17.328125 C19.125,17.375 19.53125,17.5 19.703125,17.71875 L17.828125,19.21875 L17.015625,18.3125 Z M0.625,7.53125 L1.390625,5.5 C1.625,5.5625 1.828125,5.8125 1.890625,6.09375 L4.578125,7.390625 L4.578125,0.578125 C4.578125,0.21875 4.46875,0.09375 4.0625,0.09375 C3.625,0.09375 1.53125,0.234375 1.53125,0.234375 L1.53125,-0.140625 C2.453125,-0.265625 3,-0.4375 3.3125,-0.703125 C3.59375,-0.953125 3.71875,-1.390625 3.796875,-1.875 C5.859375,-1.625 6.09375,-0.859375 6.09375,0.4375 L6.09375,8.15625 L9.546875,9.984375 L9.4375,10.34375 L6.09375,9.21875 L6.09375,13.921875 L9.046875,13.921875 C9.390625,13.921875 9.59375,14.046875 9.671875,14.296875 C9,15.03125 7.875,15.953125 7.875,15.953125 L6.890625,14.609375 L6.09375,14.609375 L6.09375,19.203125 C6.671875,19.265625 6.90625,19.515625 6.984375,19.84375 L4.578125,20.109375 L4.578125,14.609375 L0.984375,14.609375 L1.171875,13.921875 L4.578125,13.921875 L4.578125,8.734375 C2.859375,8.15625 1.421875,7.734375 0.625,7.53125 Z" transform="translate(-0.0703125, 20.109375) scale(1, -1)"/>
</svg>