<svg height="21.984375" viewBox="0 0 24 21.984375" width="24" xmlns="http://www.w3.org/2000/svg">
<path d="M12.484375,19.9375 C12.453125,18.359375 12.40625,16.75 12.28125,15.125 L9.578125,15.125 L9.765625,14.40625 L12.234375,14.40625 C11.765625,8.40625 10.421875,2.421875 6.265625,-1.375 L6.625,-1.75 C10.34375,0.984375 12.171875,4.96875 13.109375,9.265625 C13.65625,6.953125 14.5,5.046875 15.59375,3.4375 C13.921875,1.390625 11.609375,-0.265625 8.640625,-1.4375 L8.828125,-1.796875 C12.09375,-0.8125 14.546875,0.625 16.375,2.421875 C17.8125,0.75 19.609375,-0.53125 21.84375,-1.484375 C22.109375,-0.75 22.65625,-0.28125 23.359375,-0.21875 L23.40625,0.046875 C21.03125,0.796875 18.953125,1.921875 17.328125,3.453125 C18.859375,5.296875 19.921875,7.46875 20.65625,9.84375 C21.234375,9.859375 21.484375,9.9375 21.640625,10.15625 L19.890625,11.765625 L18.859375,10.78125 L13.390625,10.78125 C13.578125,11.96875 13.75,13.203125 13.84375,14.40625 L22.484375,14.40625 C22.828125,14.40625 23.0625,14.515625 23.109375,14.78125 C22.296875,15.546875 20.953125,16.625 20.953125,16.625 L19.75,15.125 L13.921875,15.125 C14.015625,16.4375 14.09375,17.734375 14.15625,18.984375 C14.765625,19.0625 14.953125,19.296875 15.03125,19.65625 Z M16.375,4.421875 C15.046875,5.953125 14.046875,7.84375 13.4375,10.078125 L18.953125,10.078125 C18.40625,7.984375 17.5625,6.09375 16.375,4.421875 Z M0.625,7.53125 L1.390625,5.5 C1.625,5.5625 1.828125,5.8125 1.890625,6.09375 L4.65625,7.4375 L4.65625,0.578125 C4.65625,0.21875 4.53125,0.09375 4.125,0.09375 C3.71875,0.09375 1.609375,0.234375 1.609375,0.234375 L1.609375,-0.140625 C2.515625,-0.265625 3.078125,-0.4375 3.390625,-0.703125 C3.703125,-0.953125 3.796875,-1.390625 3.84375,-1.875 C5.921875,-1.625 6.171875,-0.859375 6.171875,0.4375 L6.171875,8.1875 L9.8125,10.078125 L9.71875,10.421875 L6.171875,9.21875 L6.171875,13.921875 L9.046875,13.921875 C9.390625,13.921875 9.59375,14.046875 9.671875,14.296875 C9,15.03125 7.875,15.953125 7.875,15.953125 L6.890625,14.609375 L6.171875,14.609375 L6.171875,19.203125 C6.75,19.265625 6.984375,19.515625 7.0625,19.84375 L4.65625,20.109375 L4.65625,14.609375 L0.984375,14.609375 L1.171875,13.921875 L4.65625,13.921875 L4.65625,8.734375 C2.875,8.15625 1.421875,7.734375 0.625,7.53125 Z" transform="translate(-0.015625, 20.109375) scale(1, -1)"/>
</svg>