<svg height="21.9375" viewBox="0 0 24 21.9375" width="24" xmlns="http://www.w3.org/2000/svg">
<path d="M21.046875,1.78125 L19.921875,0.28125 L7.65625,0.28125 L7.84375,-0.40625 L22.5625,-0.40625 C22.890625,-0.40625 23.109375,-0.28125 23.1875,-0.03125 C22.390625,0.75 21.046875,1.78125 21.046875,1.78125 Z M19.15625,11.640625 L11.828125,11.640625 L11.828125,17.1875 L19.15625,17.1875 Z M19.15625,10.921875 L19.15625,5.46875 L11.828125,5.46875 L11.828125,10.921875 Z M11.828125,3.09375 L11.828125,4.75 L19.15625,4.75 L19.15625,3.09375 L19.390625,3.09375 C19.9375,3.09375 20.65625,3.484375 20.71875,3.640625 L20.71875,16.890625 C21.1875,16.984375 21.578125,17.15625 21.75,17.359375 L19.796875,18.859375 L18.90625,17.875 L11.953125,17.875 L10.296875,18.671875 L10.296875,2.546875 L10.5625,2.546875 C11.28125,2.546875 11.828125,2.90625 11.828125,3.09375 Z M7.75,16.015625 L6.796875,14.71875 L6.09375,14.71875 L6.09375,19.21875 C6.671875,19.296875 6.90625,19.515625 6.984375,19.84375 L4.578125,20.109375 L4.578125,14.71875 L1.078125,14.71875 L1.265625,13.984375 L4.578125,13.984375 L4.578125,8.828125 C2.921875,8.234375 1.53125,7.75 0.796875,7.53125 L1.6875,5.5625 C1.890625,5.65625 2.09375,5.90625 2.15625,6.1875 L4.578125,7.484375 L4.578125,0.703125 C4.578125,0.34375 4.4375,0.1875 4.015625,0.1875 C3.53125,0.1875 1.125,0.390625 1.125,0.390625 L1.125,-0.03125 C2.203125,-0.140625 2.78125,-0.34375 3.140625,-0.625 C3.453125,-0.90625 3.59375,-1.34375 3.671875,-1.828125 C5.859375,-1.609375 6.09375,-0.765625 6.09375,0.5 L6.09375,8.359375 L9.53125,10.3125 L9.40625,10.65625 L6.09375,9.40625 L6.09375,13.984375 L8.921875,13.984375 C9.265625,13.984375 9.484375,14.109375 9.546875,14.375 C8.875,15.09375 7.75,16.015625 7.75,16.015625 Z" transform="translate(0.0078125, 20.109375) scale(1, -1)"/>
</svg>