<svg height="21.984375" viewBox="0 0 24 21.984375" width="24" xmlns="http://www.w3.org/2000/svg">
<path d="M8.875,-0.21875 L9.046875,-0.890625 L22.421875,-0.890625 C22.75,-0.890625 22.96875,-0.796875 23.046875,-0.53125 C22.21875,0.21875 20.953125,1.203125 20.953125,1.203125 L19.828125,-0.21875 L11.953125,-0.21875 L11.953125,5.5625 L19.21875,5.5625 L19.21875,4.6875 L19.46875,4.6875 C19.984375,4.6875 20.765625,5.046875 20.78125,5.203125 L20.78125,11.921875 C21.28125,12.03125 21.703125,12.234375 21.84375,12.4375 L19.875,13.9375 L18.984375,12.953125 L11.953125,12.953125 L11.953125,17.609375 L22.0625,17.609375 C22.390625,17.609375 22.65625,17.734375 22.703125,18 C21.90625,18.71875 20.609375,19.75 20.609375,19.75 L19.484375,18.3125 L9,18.3125 L9.1875,17.609375 L10.421875,17.609375 L10.421875,-0.21875 Z M19.21875,6.234375 L11.953125,6.234375 L11.953125,12.265625 L19.21875,12.265625 Z M0.625,7.515625 L1.421875,5.46875 C1.625,5.5625 1.84375,5.765625 1.921875,6.078125 L4.4375,7.296875 L4.4375,0.578125 C4.4375,0.21875 4.34375,0.09375 3.90625,0.09375 C3.5,0.09375 1.390625,0.234375 1.390625,0.234375 L1.390625,-0.140625 C2.359375,-0.265625 2.859375,-0.4375 3.1875,-0.703125 C3.484375,-0.953125 3.59375,-1.390625 3.671875,-1.875 C5.734375,-1.625 5.953125,-0.859375 5.953125,0.4375 L5.953125,8.09375 L9.53125,9.9375 L9.40625,10.296875 L5.953125,9.140625 L5.953125,13.921875 L8.859375,13.921875 C9.171875,13.921875 9.390625,14.046875 9.453125,14.296875 C8.8125,15.03125 7.65625,15.953125 7.65625,15.953125 L6.671875,14.609375 L5.953125,14.609375 L5.953125,19.203125 C6.546875,19.265625 6.796875,19.515625 6.84375,19.84375 L4.4375,20.109375 L4.4375,14.609375 L0.984375,14.609375 L1.171875,13.921875 L4.4375,13.921875 L4.4375,8.640625 C2.765625,8.109375 1.390625,7.6875 0.625,7.515625 Z" transform="translate(0.1640625, 20.109375) scale(1, -1)"/>
</svg>