<svg height="22" viewBox="0 0 24 22" width="24" xmlns="http://www.w3.org/2000/svg">
<path d="M0.625,7.5625 L1.390625,5.515625 C1.625,5.59375 1.84375,5.8125 1.921875,6.125 L4.703125,7.46875 L4.703125,0.578125 C4.703125,0.21875 4.578125,0.09375 4.171875,0.09375 C3.765625,0.09375 1.65625,0.234375 1.65625,0.234375 L1.65625,-0.140625 C2.5625,-0.265625 3.125,-0.4375 3.453125,-0.703125 C3.75,-0.953125 3.859375,-1.390625 3.90625,-1.875 C5.96875,-1.625 6.21875,-0.859375 6.21875,0.4375 L6.21875,8.234375 L9.546875,9.953125 L9.453125,10.3125 L6.21875,9.265625 L6.21875,13.890625 L9.09375,13.890625 C9.4375,13.890625 9.640625,14.015625 9.71875,14.28125 C9.03125,14.96875 7.890625,15.9375 7.890625,15.9375 L6.90625,14.59375 L6.21875,14.59375 L6.21875,19.203125 C6.796875,19.265625 7.03125,19.515625 7.109375,19.84375 L4.703125,20.109375 L4.703125,14.59375 L0.984375,14.59375 L1.171875,13.890625 L4.703125,13.890625 L4.703125,8.78125 C2.90625,8.203125 1.421875,7.75 0.625,7.5625 Z M10.796875,18.703125 L10.796875,10.53125 L11.046875,10.53125 C11.6875,10.53125 12.34375,10.890625 12.34375,11.0625 L12.34375,11.8125 L19.796875,11.8125 L19.796875,10.703125 L20.046875,10.703125 C20.546875,10.703125 21.328125,11.09375 21.359375,11.25 L21.359375,17.71875 C21.8125,17.8125 22.203125,18 22.375,18.1875 L20.421875,19.65625 L19.5625,18.703125 L12.4375,18.703125 L10.796875,19.4375 Z M19.796875,12.5 L12.34375,12.5 L12.34375,18 L19.796875,18 Z M14.25,10.984375 C14.25,9.953125 14.203125,8.921875 14.0625,7.921875 L9.3125,7.921875 L9.53125,7.25 L13.96875,7.25 C13.390625,3.703125 11.78125,0.484375 8.09375,-1.578125 L8.296875,-1.890625 C12.953125,0.09375 14.8125,3.5 15.546875,7.25 L20.40625,7.25 C20.234375,3.21875 19.890625,0.75 19.34375,0.234375 C19.15625,0.046875 18.953125,0 18.53125,0 C18.078125,0 16.5625,0.125 15.671875,0.1875 L15.640625,-0.21875 C16.46875,-0.34375 17.328125,-0.53125 17.65625,-0.765625 C17.96875,-1.03125 18.078125,-1.4375 18.046875,-1.875 C18.953125,-1.890625 19.796875,-1.65625 20.375,-1.125 C21.28125,-0.28125 21.75,2.359375 21.90625,7.0625 C22.390625,7.125 22.6875,7.203125 22.84375,7.390625 L21.046875,8.875 L20.15625,7.921875 L15.671875,7.921875 C15.796875,8.609375 15.859375,9.34375 15.90625,10.0625 C16.421875,10.109375 16.734375,10.3125 16.796875,10.6875 Z" transform="translate(0.265625, 20.109375) scale(1, -1)"/>
</svg>