<svg height="21.8125" viewBox="0 0 24 21.8125" width="24" xmlns="http://www.w3.org/2000/svg">
<path d="M9.03125,19.921875 C7.34375,18.75 3.953125,17.109375 1.171875,16.265625 L1.3125,15.890625 C2.71875,16.109375 4.21875,16.46875 5.609375,16.84375 L5.609375,12.625 L1.4375,12.625 L1.625,11.921875 L5.609375,11.921875 L5.609375,10.578125 C5.609375,9.703125 5.59375,8.8125 5.515625,7.9375 C3.578125,7.390625 1.9375,6.984375 1.03125,6.796875 L2.109375,4.84375 C2.328125,4.9375 2.515625,5.140625 2.59375,5.421875 L5.375,6.578125 C4.96875,3.625 3.890625,0.8125 1.203125,-1.578125 L1.515625,-1.875 C5.359375,0.5 6.625,3.890625 7.03125,7.296875 L11.25,9.171875 L11.140625,9.53125 L7.125,8.375 C7.171875,9.140625 7.203125,9.890625 7.203125,10.625 L7.203125,11.921875 L10.875,11.921875 C11.203125,11.921875 11.453125,12.03125 11.515625,12.28125 C10.75,13.015625 9.546875,13.96875 9.546875,13.96875 L8.5,12.625 L7.203125,12.625 L7.203125,17.328125 C8.203125,17.640625 9.125,17.96875 9.859375,18.265625 C10.15625,18.171875 10.390625,18.125 10.609375,18.140625 L10.78125,17.46875 L15.71875,17.46875 L15.71875,13.578125 L11.1875,13.578125 L11.375,12.890625 L15.71875,12.890625 L15.71875,9 L11.0625,9 L11.25,8.328125 L15.71875,8.328125 L15.71875,4.46875 L9.71875,4.46875 L9.90625,3.765625 L15.71875,3.765625 L15.71875,-1.890625 L15.984375,-1.890625 C16.796875,-1.890625 17.296875,-1.515625 17.296875,-1.390625 L17.296875,3.765625 L22.734375,3.765625 C23.046875,3.765625 23.25,3.890625 23.328125,4.125 C22.578125,4.875 21.328125,5.828125 21.328125,5.828125 L20.234375,4.46875 L17.296875,4.46875 L17.296875,8.328125 L21.859375,8.328125 C22.203125,8.328125 22.4375,8.453125 22.484375,8.71875 C21.75,9.40625 20.515625,10.390625 20.515625,10.390625 L19.46875,9 L17.296875,9 L17.296875,12.890625 L21.578125,12.890625 C21.890625,12.890625 22.125,13.015625 22.203125,13.265625 C21.453125,13.984375 20.1875,14.96875 20.1875,14.96875 L19.109375,13.578125 L17.296875,13.578125 L17.296875,17.46875 L22.21875,17.46875 C22.5625,17.46875 22.796875,17.59375 22.84375,17.859375 C22.078125,18.546875 20.859375,19.53125 20.859375,19.53125 L19.78125,18.1875 L10.890625,18.1875 C10.96875,18.21875 11.015625,18.265625 11.0625,18.3125 Z" transform="translate(-0.1796875, 19.921875) scale(1, -1)"/>
</svg>