<svg height="22" viewBox="0 0 24 22" width="24" xmlns="http://www.w3.org/2000/svg">
<path d="M16.203125,19.25 L15.953125,19.015625 C17.09375,18.34375 18.546875,17.0625 19.15625,16.125 C20.828125,15.34375 21.53125,18.53125 16.203125,19.25 Z M0.59375,7.578125 L1.46875,5.59375 C1.703125,5.65625 1.890625,5.875 1.96875,6.1875 L4.515625,7.4375 L4.515625,0.546875 C4.515625,0.1875 4.421875,0.078125 3.984375,0.078125 C3.578125,0.078125 1.484375,0.21875 1.484375,0.21875 L1.484375,-0.171875 C2.40625,-0.28125 2.921875,-0.453125 3.265625,-0.71875 C3.546875,-0.984375 3.671875,-1.390625 3.75,-1.890625 C5.78125,-1.65625 6.03125,-0.859375 6.03125,0.40625 L6.03125,8.234375 L9.3125,9.953125 L9.1875,10.3125 L6.03125,9.234375 L6.03125,13.921875 L8.65625,13.921875 C8.875,13.921875 9.078125,13.984375 9.140625,14.1875 L9.234375,13.84375 L12.34375,13.84375 C11.921875,7.78125 10.421875,2.0625 6.75,-1.625 L7.109375,-1.84375 C11.0625,1.25 12.84375,6.03125 13.609375,11.28125 C14.046875,8.40625 14.734375,6 15.796875,3.984375 C14.421875,1.78125 12.546875,-0.140625 10.0625,-1.53125 L10.296875,-1.875 C12.9375,-0.71875 14.953125,0.9375 16.46875,2.828125 C17.71875,0.859375 19.375,-0.671875 21.5,-1.84375 C21.859375,-1.109375 22.484375,-0.640625 23.203125,-0.625 L23.28125,-0.40625 C20.828125,0.625 18.859375,2.09375 17.359375,4.0625 C18.84375,6.28125 19.75,8.78125 20.328125,11.234375 C20.96875,11.25 21.1875,11.40625 21.28125,11.71875 L18.765625,12.265625 C18.390625,9.859375 17.65625,7.4375 16.53125,5.25 C15.171875,7.421875 14.296875,10.078125 13.84375,13.265625 L13.890625,13.84375 L22.5625,13.84375 C22.890625,13.84375 23.140625,13.96875 23.1875,14.234375 C22.390625,14.96875 21.140625,15.953125 21.140625,15.953125 L20.015625,14.5625 L13.96875,14.5625 C14.0625,16.0625 14.109375,17.546875 14.140625,19.03125 C14.640625,19.109375 14.96875,19.3125 15.03125,19.78125 L12.453125,19.9375 C12.5,18.171875 12.484375,16.34375 12.390625,14.5625 L9.046875,14.5625 L9.078125,14.5 C8.421875,15.171875 7.484375,15.984375 7.484375,15.984375 L6.53125,14.609375 L6.03125,14.609375 L6.03125,19.203125 C6.59375,19.265625 6.84375,19.515625 6.90625,19.84375 L4.515625,20.109375 L4.515625,14.609375 L0.984375,14.609375 L1.171875,13.921875 L4.515625,13.921875 L4.515625,8.765625 C2.8125,8.203125 1.390625,7.78125 0.59375,7.578125 Z" transform="translate(0.0625, 20.109375) scale(1, -1)"/>
</svg>