<svg height="22.125" viewBox="0 0 24 22.125" width="24" xmlns="http://www.w3.org/2000/svg">
<path d="M4.4375,19.703125 L4.171875,19.515625 C5.15625,18.578125 6.28125,16.984375 6.453125,15.671875 C8.109375,14.421875 9.484375,18.03125 4.4375,19.703125 Z M16.890625,19.890625 C16.03125,18.21875 14.96875,16.46875 14.09375,15.359375 L11.109375,15.359375 C11.6875,16.5625 12.125,17.8125 12.484375,19.0625 C12.953125,19.03125 13.296875,19.203125 13.421875,19.5625 L10.84375,20.234375 C10.484375,18.59375 9.984375,16.9375 9.265625,15.359375 L2.09375,15.359375 L2.296875,14.65625 L8.921875,14.65625 C8.5,13.78125 7.96875,12.890625 7.390625,12.046875 L1.25,12.046875 L1.4375,11.359375 L6.859375,11.359375 C5.359375,9.390625 3.390625,7.65625 0.84375,6.3125 L1.0625,6.03125 C4.3125,7.375 6.75,9.21875 8.546875,11.359375 L15.578125,11.359375 C17.234375,9.28125 19.375,7.609375 21.671875,6.546875 C21.84375,7.203125 22.4375,7.578125 23.1875,7.75 L23.25,8.046875 C21.1875,8.71875 18.953125,9.859375 17.109375,11.359375 L22.125,11.359375 C22.46875,11.359375 22.703125,11.46875 22.75,11.734375 C21.9375,12.484375 20.609375,13.484375 20.609375,13.484375 L19.46875,12.046875 L16.296875,12.046875 C15.4375,12.84375 14.6875,13.734375 14.140625,14.65625 L21.359375,14.65625 C21.671875,14.65625 21.90625,14.78125 21.953125,15.046875 C21.1875,15.765625 19.921875,16.734375 19.921875,16.734375 L18.8125,15.359375 L14.828125,15.359375 C15.9375,16.171875 17.140625,17.296875 18.171875,18.390625 C18.640625,18.3125 18.984375,18.484375 19.109375,18.703125 Z M10.75,14.65625 L13.53125,14.65625 C13.9375,13.75 14.46875,12.859375 15.046875,12.046875 L9.09375,12.046875 C9.75,12.890625 10.296875,13.75 10.75,14.65625 Z M15.234375,10.3125 C13.296875,9.796875 9.625,9.09375 6.75,8.78125 L6.84375,8.328125 C8.234375,8.359375 9.71875,8.421875 11.140625,8.546875 L11.140625,6.40625 L5.046875,6.40625 L5.234375,5.6875 L11.140625,5.6875 L11.140625,3.703125 L2.609375,3.703125 L2.828125,2.96875 L11.140625,2.96875 L11.140625,0.484375 C11.140625,0.140625 11.015625,0 10.5625,0 C10.03125,0 7.3125,0.1875 7.3125,0.1875 L7.3125,-0.171875 C8.515625,-0.3125 9.171875,-0.484375 9.546875,-0.765625 C9.890625,-1.015625 10.0625,-1.4375 10.109375,-1.890625 C12.359375,-1.6875 12.703125,-0.796875 12.703125,0.4375 L12.703125,2.96875 L21,2.96875 C21.328125,2.96875 21.578125,3.09375 21.640625,3.359375 C20.828125,4.109375 19.53125,5.09375 19.53125,5.09375 L18.390625,3.703125 L12.703125,3.703125 L12.703125,5.6875 L18.546875,5.6875 C18.890625,5.6875 19.125,5.8125 19.203125,6.078125 C18.4375,6.765625 17.234375,7.703125 17.234375,7.703125 L16.203125,6.40625 L12.703125,6.40625 L12.703125,8.6875 C13.734375,8.78125 14.71875,8.875 15.53125,9 C16.015625,8.765625 16.421875,8.734375 16.625,8.90625 Z" transform="translate(-0.046875, 20.234375) scale(1, -1)"/>
</svg>