<svg height="22.03125" viewBox="0 0 24 22.03125" width="24" xmlns="http://www.w3.org/2000/svg">
<path d="M4.34375,19.890625 L4.078125,19.703125 C5.109375,18.75 6.21875,17.0625 6.359375,15.71875 C7.96875,14.453125 9.359375,18.03125 4.34375,19.890625 Z M9.8125,20.1875 L9.53125,19.984375 C10.421875,18.984375 11.296875,17.25 11.28125,15.84375 C12.8125,14.453125 14.46875,18.03125 9.8125,20.1875 Z M1.25,14.96875 L1.46875,14.25 L7.421875,14.25 C6.171875,11.640625 3.640625,9.09375 0.84375,7.421875 L1.03125,7.078125 C4.5625,8.640625 7.75,11.109375 9.546875,14.25 L14.859375,14.25 C16.265625,11.359375 18.796875,8.90625 21.640625,7.609375 C21.796875,8.296875 22.375,8.734375 23.140625,8.953125 L23.203125,9.265625 C20.375,10.0625 17.140625,11.828125 15.53125,14.25 L22.265625,14.25 C22.578125,14.25 22.828125,14.375 22.890625,14.640625 C22.109375,15.390625 20.828125,16.375 20.828125,16.375 L19.703125,14.96875 L15.265625,14.96875 C16.734375,16.109375 18.28125,17.59375 19.21875,18.71875 C19.78125,18.703125 20.09375,18.859375 20.1875,19.125 L17.6875,20.015625 C16.9375,18.5 15.671875,16.4375 14.546875,14.96875 Z M1.421875,4.484375 L1.625,3.8125 L11.234375,3.8125 L11.234375,0.484375 C11.234375,0.125 11.09375,-0.03125 10.578125,-0.03125 C9.953125,-0.03125 6.890625,0.1875 6.890625,0.1875 L6.890625,-0.171875 C8.234375,-0.34375 8.953125,-0.5 9.390625,-0.765625 C9.765625,-1.015625 9.953125,-1.390625 10.03125,-1.84375 C12.4375,-1.625 12.765625,-0.765625 12.765625,0.4375 L12.765625,3.8125 L22.109375,3.8125 C22.4375,3.8125 22.6875,3.9375 22.75,4.171875 C21.9375,4.875 20.65625,5.828125 20.65625,5.828125 L19.53125,4.484375 L12.765625,4.484375 L12.765625,7.078125 L18.640625,7.078125 C18.984375,7.078125 19.21875,7.171875 19.265625,7.4375 C18.5,8.140625 17.328125,8.96875 17.328125,8.96875 L16.296875,7.78125 L12.765625,7.78125 L12.765625,10.484375 C13.734375,10.65625 14.609375,10.828125 15.359375,10.984375 C15.890625,10.78125 16.3125,10.75 16.53125,10.96875 L14.828125,12.546875 C13.015625,11.734375 9.453125,10.734375 6.578125,10.265625 L6.671875,9.84375 C8.15625,9.890625 9.75,10.0625 11.234375,10.25 L11.234375,7.78125 L4.703125,7.78125 L4.890625,7.078125 L11.234375,7.078125 L11.234375,4.484375 Z" transform="translate(-0.0234375, 20.1875) scale(1, -1)"/>
</svg>