<svg height="22.03125" viewBox="0 0 24 22.03125" width="24" xmlns="http://www.w3.org/2000/svg">
<path d="M10.21875,14.203125 L9.90625,14.0625 C10.609375,12.765625 11.359375,10.734375 11.203125,9.140625 C12.59375,7.703125 14.28125,11.140625 10.21875,14.203125 Z M19.265625,14.28125 C18.75,12.390625 18.046875,10.21875 17.5,8.8125 L17.859375,8.640625 C18.84375,9.796875 19.9375,11.5 20.8125,13.015625 C21.28125,12.984375 21.546875,13.171875 21.671875,13.46875 Z M14.546875,20.015625 L14.546875,15.953125 L8.953125,15.953125 L9.140625,15.234375 L14.546875,15.234375 C14.546875,12.453125 14.46875,10.03125 14.109375,7.890625 L7.890625,7.890625 L8.09375,7.203125 L13.96875,7.203125 C13.171875,3.40625 11.296875,0.625 6.984375,-1.484375 L7.25,-1.921875 C12.484375,0.1875 14.609375,3.125 15.5,7.203125 L15.8125,7.203125 C16.828125,2.921875 18.625,-0.140625 21.84375,-1.84375 C22.03125,-1.125 22.515625,-0.703125 23.09375,-0.578125 L23.109375,-0.3125 C19.875,0.859375 17.515625,3.71875 16.34375,7.203125 L22.484375,7.203125 C22.828125,7.203125 23.0625,7.296875 23.140625,7.5625 C22.3125,8.296875 21.046875,9.34375 21.046875,9.34375 L19.875,7.890625 L15.625,7.890625 C16.015625,10.03125 16.078125,12.453125 16.109375,15.234375 L21.84375,15.234375 C22.203125,15.234375 22.421875,15.359375 22.484375,15.625 C21.703125,16.375 20.421875,17.375 20.421875,17.375 L19.3125,15.953125 L16.109375,15.953125 L16.125,19.109375 C16.703125,19.203125 16.9375,19.421875 16.984375,19.78125 Z M0.59375,7.578125 L1.46875,5.59375 C1.703125,5.65625 1.890625,5.875 1.96875,6.1875 L4.515625,7.46875 L4.515625,0.546875 C4.515625,0.1875 4.421875,0.078125 3.984375,0.078125 C3.578125,0.078125 1.484375,0.21875 1.484375,0.21875 L1.484375,-0.171875 C2.40625,-0.28125 2.921875,-0.453125 3.265625,-0.71875 C3.546875,-0.984375 3.671875,-1.390625 3.75,-1.890625 C5.78125,-1.65625 6.03125,-0.859375 6.03125,0.40625 L6.03125,8.234375 L9.171875,9.9375 L9.046875,10.296875 L6.03125,9.265625 L6.03125,13.921875 L8.65625,13.921875 C8.953125,13.921875 9.1875,14.046875 9.234375,14.296875 C8.609375,15.03125 7.484375,15.984375 7.484375,15.984375 L6.53125,14.609375 L6.03125,14.609375 L6.03125,19.203125 C6.59375,19.265625 6.84375,19.515625 6.90625,19.84375 L4.515625,20.109375 L4.515625,14.609375 L0.984375,14.609375 L1.171875,13.921875 L4.515625,13.921875 L4.515625,8.765625 C2.8125,8.203125 1.390625,7.78125 0.59375,7.578125 Z" transform="translate(0.1328125, 20.109375) scale(1, -1)"/>
</svg>