<svg height="22.03125" viewBox="0 0 24 22.03125" width="24" xmlns="http://www.w3.org/2000/svg">
<path d="M0.75,7.6875 L1.609375,5.640625 C1.84375,5.734375 2.046875,5.953125 2.109375,6.234375 L4.375,7.375 L4.375,0.578125 C4.375,0.21875 4.265625,0.09375 3.84375,0.09375 C3.4375,0.09375 1.375,0.234375 1.375,0.234375 L1.375,-0.140625 C2.28125,-0.265625 2.8125,-0.4375 3.140625,-0.703125 C3.4375,-0.953125 3.53125,-1.390625 3.59375,-1.875 C5.65625,-1.625 5.90625,-0.859375 5.90625,0.4375 L5.90625,8.15625 L9.046875,9.8125 L8.921875,10.15625 L5.90625,9.1875 L5.90625,14.234375 L8.921875,14.234375 C9.234375,14.234375 9.484375,14.359375 9.53125,14.609375 C8.875,15.3125 7.734375,16.25 7.734375,16.25 L6.765625,14.953125 L5.90625,14.953125 L5.90625,19.203125 C6.484375,19.265625 6.71875,19.515625 6.796875,19.84375 L4.375,20.109375 L4.375,14.953125 L0.9375,14.953125 L1.125,14.234375 L4.375,14.234375 L4.375,8.71875 C2.78125,8.234375 1.484375,7.84375 0.75,7.6875 Z M16.734375,16.734375 C16.3125,15.765625 15.703125,14.453125 15.140625,13.5625 L11.328125,13.5625 L10.6875,13.84375 C11.46875,14.765625 12.171875,15.71875 12.796875,16.734375 Z M12.625,20.15625 C11.5,16.9375 9.53125,13.53125 7.5625,11.5 L7.921875,11.234375 C8.515625,11.65625 9.09375,12.1875 9.671875,12.765625 L9.671875,5.5625 L9.90625,5.5625 C10.5625,5.5625 11.1875,5.90625 11.1875,6.078125 L11.1875,6.984375 L14.109375,6.984375 C13.375,3.765625 11.5625,0.9375 7.0625,-1.4375 L7.375,-1.84375 C12.71875,0.484375 14.78125,3.453125 15.640625,6.984375 L15.890625,6.984375 L15.890625,0.125 C15.890625,-0.953125 16.171875,-1.34375 17.765625,-1.34375 L19.65625,-1.34375 C22.578125,-1.34375 23.234375,-1.03125 23.234375,-0.390625 C23.234375,-0.078125 23.109375,0.125 22.65625,0.28125 L22.578125,3.21875 L22.25,3.21875 C22.03125,1.984375 21.765625,0.71875 21.625,0.390625 C21.5,0.171875 21.453125,0.125 21.234375,0.125 C21,0.09375 20.40625,0.078125 19.703125,0.078125 L18.09375,0.078125 C17.421875,0.078125 17.359375,0.171875 17.359375,0.5 L17.359375,6.984375 L20.0625,6.984375 L20.0625,5.921875 L20.28125,5.921875 C20.8125,5.921875 21.578125,6.28125 21.59375,6.4375 L21.59375,12.578125 C22.078125,12.671875 22.46875,12.859375 22.625,13.0625 L20.6875,14.515625 L19.828125,13.5625 L15.75,13.5625 C16.796875,14.421875 17.921875,15.71875 18.671875,16.53125 C19.15625,16.578125 19.421875,16.609375 19.609375,16.78125 L17.78125,18.484375 L16.734375,17.421875 L13.21875,17.421875 C13.515625,17.921875 13.796875,18.4375 14.046875,18.9375 C14.546875,18.90625 14.875,19.109375 14.953125,19.390625 Z M11.1875,7.6875 L11.1875,12.859375 L14.640625,12.859375 C14.609375,11.0625 14.546875,9.34375 14.25,7.6875 Z M20.0625,7.6875 L15.796875,7.6875 C16.125,9.3125 16.21875,11.046875 16.265625,12.859375 L20.0625,12.859375 Z" transform="translate(0.0078125, 20.15625) scale(1, -1)"/>
</svg>