<svg height="21.984375" viewBox="0 0 24 21.984375" width="24" xmlns="http://www.w3.org/2000/svg">
<path d="M20.90625,19.3125 C19.125,18.40625 15.671875,17.28125 12.765625,16.75 L12.890625,16.34375 C14.234375,16.421875 15.640625,16.578125 16.984375,16.78125 L16.984375,11.421875 L13.15625,11.421875 L12.4375,12.078125 L11.5,11.109375 L10.03125,11.109375 C10.75,13.3125 11.5,15.84375 11.90625,17.359375 C12.40625,17.421875 12.8125,17.515625 13.015625,17.71875 L11.15625,19.25 L10.3125,18.34375 L7.15625,18.34375 L7.375,17.640625 L10.390625,17.640625 C9.796875,15.390625 8.8125,12 7.890625,9.4375 C8.609375,9.234375 9.09375,9.234375 9.484375,9.390625 L9.8125,10.421875 L11.65625,10.421875 C11.40625,8.15625 10.96875,5.96875 10.125,4.03125 C9.640625,4.9375 9.234375,6.09375 8.875,7.515625 L9.4375,8.453125 L8.5625,8.6875 L8.40625,7.65625 C7.828125,6.984375 6.796875,5.921875 6.21875,5.421875 L7.53125,4.203125 C7.65625,4.34375 7.703125,4.53125 7.53125,4.75 C7.828125,5.28125 8.28125,6.1875 8.609375,6.90625 C8.921875,5.421875 9.28125,4.203125 9.75,3.1875 C8.828125,1.375 7.53125,-0.21875 5.71875,-1.484375 L5.921875,-1.84375 C7.875,-0.8125 9.3125,0.5 10.375,1.984375 C11.953125,-0.640625 14.359375,-1.34375 17.90625,-1.34375 C18.984375,-1.34375 21.265625,-1.34375 22.21875,-1.34375 C22.25,-0.59375 22.578125,-0.046875 23.15625,0.078125 L23.15625,0.390625 C21.859375,0.359375 19.21875,0.359375 18.078125,0.359375 C14.765625,0.359375 12.5,0.84375 10.890625,2.828125 C12.21875,5.046875 12.859375,7.578125 13.25,10.21875 C13.75,10.265625 13.96875,10.34375 14.140625,10.5625 L13.96875,10.703125 L16.984375,10.703125 L16.984375,4.109375 L13.78125,4.109375 L13.96875,3.390625 L22.078125,3.390625 C22.421875,3.390625 22.65625,3.5 22.703125,3.765625 C22.0625,4.46875 20.90625,5.453125 20.90625,5.453125 L19.921875,4.109375 L18.53125,4.109375 L18.53125,10.703125 L22.578125,10.703125 C22.921875,10.703125 23.15625,10.828125 23.203125,11.09375 C22.484375,11.828125 21.265625,12.84375 21.265625,12.84375 L20.203125,11.421875 L18.53125,11.421875 L18.53125,17.046875 C19.625,17.25 20.65625,17.5 21.484375,17.734375 C22.03125,17.515625 22.46875,17.515625 22.65625,17.71875 Z M0.671875,8.09375 L1.53125,6.171875 C1.75,6.265625 1.9375,6.5 2.015625,6.796875 L3.90625,7.890625 L3.90625,0.546875 C3.90625,0.1875 3.8125,0.078125 3.4375,0.078125 C3,0.078125 0.953125,0.21875 0.953125,0.21875 L0.953125,-0.171875 C1.875,-0.28125 2.375,-0.453125 2.6875,-0.71875 C2.96875,-0.953125 3.09375,-1.390625 3.171875,-1.875 C5.1875,-1.625 5.421875,-0.859375 5.421875,0.40625 L5.421875,8.8125 L8.203125,10.515625 L8.0625,10.828125 L5.421875,9.8125 L5.421875,14.234375 L8.15625,14.234375 C8.46875,14.234375 8.71875,14.359375 8.765625,14.609375 C8.109375,15.3125 7.03125,16.265625 7.03125,16.265625 L6.078125,14.953125 L5.421875,14.953125 L5.421875,19.203125 C6,19.265625 6.234375,19.515625 6.3125,19.84375 L3.90625,20.109375 L3.90625,14.953125 L0.9375,14.953125 L1.125,14.234375 L3.90625,14.234375 L3.90625,9.234375 C2.5,8.71875 1.3125,8.28125 0.671875,8.09375 Z" transform="translate(0.0625, 20.109375) scale(1, -1)"/>
</svg>