<svg height="21.984375" viewBox="0 0 24 21.984375" width="24" xmlns="http://www.w3.org/2000/svg">
<path d="M16.84375,17.96875 L16.84375,3.125 L17.140625,3.125 C17.640625,3.125 18.234375,3.453125 18.234375,3.640625 L18.234375,17.109375 C18.796875,17.1875 18.984375,17.421875 19.0625,17.734375 Z M20.40625,19.875 L20.40625,0.625 C20.40625,0.21875 20.25,0.078125 19.796875,0.078125 C19.296875,0.078125 16.734375,0.28125 16.734375,0.28125 L16.734375,-0.125 C17.859375,-0.234375 18.453125,-0.4375 18.84375,-0.71875 C19.171875,-0.984375 19.3125,-1.390625 19.390625,-1.875 C21.625,-1.625 21.859375,-0.8125 21.859375,0.453125 L21.859375,18.953125 C22.4375,19.03125 22.6875,19.265625 22.75,19.609375 Z M8.015625,18.453125 L8.015625,14.59375 C7.390625,15.265625 6.484375,16.015625 6.484375,16.015625 L5.5625,14.765625 L5.328125,14.765625 L5.328125,19.203125 C5.875,19.265625 6.125,19.515625 6.1875,19.84375 L3.859375,20.109375 L3.859375,14.765625 L0.984375,14.765625 L1.171875,14.046875 L3.859375,14.046875 L3.859375,8.765625 C2.5625,8.28125 1.484375,7.921875 0.84375,7.734375 L1.875,5.859375 C2.09375,5.921875 2.28125,6.171875 2.296875,6.453125 L3.859375,7.375 L3.859375,0.546875 C3.859375,0.1875 3.75,0.09375 3.359375,0.09375 C2.921875,0.09375 0.9375,0.234375 0.9375,0.234375 L0.9375,-0.140625 C1.84375,-0.265625 2.359375,-0.4375 2.640625,-0.703125 C2.921875,-0.953125 3.046875,-1.390625 3.09375,-1.875 C5.09375,-1.6875 5.328125,-0.859375 5.328125,0.390625 L5.328125,8.234375 L8.140625,9.953125 L7.984375,10.296875 L5.328125,9.28125 L5.328125,14.046875 L7.5625,14.046875 C7.75,14.046875 7.921875,14.09375 8.015625,14.1875 L8.015625,10.921875 L8.234375,10.921875 C8.828125,10.921875 9.4375,11.25 9.4375,11.40625 L9.4375,11.875 L9.9375,11.875 C9.859375,7.625 9.578125,2.59375 5.90625,-1.3125 L6.28125,-1.734375 C9.546875,1.078125 10.65625,4.625 11.09375,8.15625 L13.484375,8.15625 C13.3125,3.359375 12.9375,0.765625 12.34375,0.1875 C12.125,0.03125 11.921875,-0.03125 11.5625,-0.03125 C11.109375,-0.03125 9.890625,0.078125 9.125,0.140625 L9.09375,-0.28125 C9.796875,-0.40625 10.484375,-0.578125 10.78125,-0.796875 C11.0625,-1.015625 11.109375,-1.421875 11.109375,-1.84375 C11.921875,-1.84375 12.75,-1.609375 13.3125,-1.0625 C14.234375,-0.171875 14.734375,2.546875 14.90625,7.984375 C15.390625,8.0625 15.671875,8.1875 15.84375,8.375 L14.109375,9.796875 L13.265625,8.859375 L11.1875,8.859375 C11.28125,9.890625 11.328125,10.890625 11.375,11.875 L13.53125,11.875 L13.53125,11.0625 L13.75,11.0625 C14.234375,11.0625 14.953125,11.421875 14.96875,11.59375 L14.96875,17.546875 C15.390625,17.609375 15.75,17.8125 15.890625,17.96875 L14.109375,19.3125 L13.3125,18.453125 L9.546875,18.453125 L8.015625,19.15625 Z M9.4375,12.578125 L9.4375,17.765625 L13.53125,17.765625 L13.53125,12.578125 Z" transform="translate(0.203125, 20.109375) scale(1, -1)"/>
</svg>