<svg height="21.984375" viewBox="0 0 24 21.984375" width="24" xmlns="http://www.w3.org/2000/svg">
<path d="M20.109375,9.359375 C17.5625,2.71875 13.890625,0.3125 8.1875,-1.421875 L8.359375,-1.875 C14.65625,-0.578125 18.53125,1.703125 21.5,8.15625 C22.125,8.09375 22.34375,8.1875 22.484375,8.46875 Z M11.359375,10.5625 C10.65625,8.8125 9.125,6.484375 7.421875,5.09375 L7.6875,4.78125 C9.796875,5.875 11.609375,7.75 12.59375,9.28125 C13.171875,9.1875 13.34375,9.34375 13.484375,9.578125 Z M0.59375,7.578125 L1.46875,5.59375 C1.703125,5.65625 1.890625,5.875 1.96875,6.1875 L4.34375,7.375 L4.34375,0.546875 C4.34375,0.1875 4.21875,0.078125 3.8125,0.078125 C3.40625,0.078125 1.3125,0.21875 1.3125,0.21875 L1.3125,-0.171875 C2.25,-0.28125 2.765625,-0.453125 3.09375,-0.71875 C3.390625,-0.953125 3.5,-1.390625 3.578125,-1.875 C5.609375,-1.625 5.828125,-0.859375 5.828125,0.40625 L5.828125,8.15625 L9.140625,9.9375 L9.03125,10.265625 L5.828125,9.1875 L5.828125,13.921875 L8.515625,13.921875 C8.859375,13.921875 9.046875,14.046875 9.125,14.296875 C8.46875,15.03125 7.375,15.984375 7.375,15.984375 L6.390625,14.609375 L5.828125,14.609375 L5.828125,19.203125 C6.40625,19.265625 6.640625,19.515625 6.71875,19.84375 L4.34375,20.109375 L4.34375,14.609375 L0.984375,14.609375 L1.171875,13.921875 L4.34375,13.921875 L4.34375,8.71875 C2.71875,8.1875 1.375,7.75 0.59375,7.578125 Z M10.484375,17.921875 L10.484375,12.03125 L7.984375,12.03125 L8.1875,11.359375 L14.71875,11.359375 L14.71875,5.921875 C14.71875,5.640625 14.609375,5.515625 14.25,5.515625 C13.84375,5.515625 12.09375,5.65625 12.09375,5.65625 L12.09375,5.28125 C12.9375,5.15625 13.390625,4.96875 13.625,4.75 C13.921875,4.515625 13.984375,4.109375 14.046875,3.671875 C15.984375,3.859375 16.203125,4.578125 16.203125,5.828125 L16.203125,10.625 C16.65625,10.6875 16.84375,10.84375 16.921875,11.15625 L14.953125,11.359375 L22.34375,11.359375 C22.703125,11.359375 22.9375,11.46875 22.984375,11.734375 C22.21875,12.453125 20.921875,13.46875 20.921875,13.46875 L19.828125,12.03125 L16.21875,12.03125 L16.21875,15.625 L21.484375,15.625 C21.796875,15.625 22.03125,15.75 22.078125,16.015625 C21.359375,16.734375 20.140625,17.65625 20.140625,17.65625 L19.109375,16.3125 L16.21875,16.3125 L16.21875,19.03125 C16.78125,19.125 16.96875,19.34375 17.015625,19.65625 L14.734375,19.890625 L14.734375,12.03125 L11.96875,12.03125 L11.96875,17.09375 C12.484375,17.1875 12.671875,17.40625 12.71875,17.6875 Z" transform="translate(0.2109375, 20.109375) scale(1, -1)"/>
</svg>