<svg height="22.015625" viewBox="0 0 24 22.015625" width="24" xmlns="http://www.w3.org/2000/svg">
<path d="M15.703125,18.859375 C16.921875,16.109375 19.421875,13.703125 22.0625,12.171875 C22.203125,12.796875 22.703125,13.3125 23.328125,13.46875 L23.375,13.796875 C20.46875,14.96875 17.609375,16.796875 16.078125,19.15625 C16.625,19.203125 16.890625,19.3125 16.9375,19.5625 L14.296875,20.140625 C13.4375,17.421875 10.15625,13.609375 7.3125,11.71875 L7.484375,11.375 C10.734375,13.03125 14.09375,16.03125 15.703125,18.859375 Z M0.84375,7.6875 L1.734375,5.6875 C1.9375,5.78125 2.140625,6 2.203125,6.3125 L4.390625,7.484375 L4.390625,0.578125 C4.390625,0.21875 4.265625,0.09375 3.859375,0.09375 C3.4375,0.09375 1.34375,0.234375 1.34375,0.234375 L1.34375,-0.140625 C2.28125,-0.265625 2.8125,-0.4375 3.125,-0.703125 C3.4375,-0.953125 3.53125,-1.390625 3.59375,-1.875 C5.65625,-1.625 5.90625,-0.859375 5.90625,0.4375 L5.90625,8.328125 L9.171875,10.203125 L9.046875,10.5625 L5.90625,9.390625 L5.90625,14.1875 L9,14.1875 C9.3125,14.1875 9.546875,14.296875 9.59375,14.5625 C8.953125,15.265625 7.796875,16.21875 7.796875,16.21875 L6.8125,14.90625 L5.90625,14.90625 L5.90625,19.203125 C6.484375,19.265625 6.71875,19.515625 6.796875,19.84375 L4.390625,20.109375 L4.390625,14.90625 L0.953125,14.90625 L1.15625,14.1875 L4.390625,14.1875 L4.390625,8.859375 C2.828125,8.296875 1.5625,7.875 0.84375,7.6875 Z M9.84375,5.828125 L9.84375,-1.796875 L10.0625,-1.796875 C10.703125,-1.796875 11.375,-1.46875 11.375,-1.296875 L11.375,-0.21875 L19.078125,-0.21875 L19.078125,-1.578125 L19.296875,-1.578125 C19.828125,-1.578125 20.59375,-1.21875 20.609375,-1.078125 L20.609375,4.828125 C21.09375,4.9375 21.484375,5.140625 21.640625,5.328125 L19.703125,6.796875 L18.84375,5.828125 L15.953125,5.828125 L15.953125,8.6875 L22.34375,8.6875 C22.6875,8.6875 22.921875,8.78125 22.984375,9.046875 C22.21875,9.796875 20.96875,10.78125 20.96875,10.78125 L19.875,9.390625 L15.953125,9.390625 L15.953125,12.625 L19.109375,12.625 C19.4375,12.625 19.65625,12.75 19.703125,13.015625 C19.109375,13.625 18.09375,14.46875 18.09375,14.46875 L17.203125,13.34375 L10.734375,13.34375 L10.921875,12.625 L14.421875,12.625 L14.421875,9.390625 L8.28125,9.390625 L8.46875,8.6875 L14.421875,8.6875 L14.421875,5.828125 L11.5,5.828125 L9.84375,6.578125 Z M11.375,0.5 L11.375,5.140625 L19.078125,5.140625 L19.078125,0.5 Z" transform="translate(-0.109375, 20.140625) scale(1, -1)"/>
</svg>