<svg height="22" viewBox="0 0 24 22" width="24" xmlns="http://www.w3.org/2000/svg">
<path d="M18.546875,18.90625 L18.28125,18.703125 C19.4375,17.59375 20.921875,15.71875 21.3125,14.28125 C22.984375,13.15625 24.125,16.65625 18.546875,18.90625 Z M10.78125,19.109375 C10.3125,17.546875 9.640625,16.015625 8.921875,14.765625 C8.28125,15.4375 7.3125,16.296875 7.3125,16.296875 L6.359375,14.953125 L5.640625,14.953125 L5.640625,19.171875 C6.21875,19.25 6.453125,19.484375 6.53125,19.84375 L4.125,20.09375 L4.125,14.953125 L0.90625,14.953125 L1.109375,14.234375 L4.125,14.234375 L4.125,8.59375 C2.6875,8.140625 1.515625,7.796875 0.8125,7.625 L1.6875,5.640625 C1.890625,5.71875 2.109375,5.953125 2.15625,6.234375 L4.125,7.21875 L4.125,0.53125 C4.125,0.171875 4.03125,0.046875 3.625,0.046875 C3.1875,0.046875 1.109375,0.21875 1.109375,0.21875 L1.109375,-0.1875 C2.046875,-0.28125 2.5625,-0.453125 2.875,-0.75 C3.171875,-0.984375 3.28125,-1.421875 3.359375,-1.890625 C5.40625,-1.65625 5.640625,-0.890625 5.640625,0.390625 L5.640625,8.015625 L8.8125,9.71875 L8.734375,10.078125 L5.640625,9.078125 L5.640625,14.234375 L8.46875,14.234375 L8.640625,14.25 L8.0625,13.390625 L8.40625,13.125 C8.96875,13.578125 9.546875,14.140625 10.109375,14.78125 L10.265625,14.15625 L12.953125,14.15625 C12.640625,13.125 12.265625,12.09375 11.78125,11.140625 L7.484375,11.140625 L7.6875,10.46875 L11.421875,10.46875 C10.3125,8.40625 8.828125,6.578125 6.8125,5.1875 L7.078125,4.875 C8.46875,5.640625 9.640625,6.546875 10.65625,7.578125 L10.65625,0.140625 C10.65625,-1.15625 11.109375,-1.46875 13.21875,-1.46875 L16.46875,-1.46875 C20.953125,-1.46875 21.765625,-1.21875 21.765625,-0.484375 C21.765625,-0.1875 21.625,0 21.078125,0.171875 L21,3.046875 L20.6875,3.046875 C20.421875,1.75 20.140625,0.640625 19.9375,0.265625 C19.828125,0.046875 19.75,-0.03125 19.390625,-0.046875 C19.015625,-0.09375 17.90625,-0.09375 16.515625,-0.09375 L13.4375,-0.09375 C12.3125,-0.09375 12.1875,0 12.1875,0.4375 L12.1875,6.71875 L17.78125,6.71875 C17.71875,4.96875 17.5625,4.078125 17.328125,3.859375 C17.1875,3.75 17.046875,3.703125 16.734375,3.703125 C16.390625,3.703125 15.390625,3.765625 14.78125,3.8125 L14.78125,3.40625 C15.28125,3.3125 15.859375,3.1875 16.109375,2.96875 C16.375,2.765625 16.421875,2.40625 16.421875,2.046875 C17.09375,2.046875 17.71875,2.234375 18.171875,2.515625 C18.8125,3.03125 19.0625,4.15625 19.125,6.59375 C19.578125,6.640625 19.875,6.765625 19.984375,6.9375 L18.34375,8.234375 L17.5625,7.421875 L12.453125,7.421875 L11.0625,8.015625 C11.734375,8.78125 12.34375,9.59375 12.859375,10.46875 L17.640625,10.46875 C18.578125,8.6875 19.984375,6.8125 22.109375,5.421875 C22.25,6.21875 22.703125,6.4375 23.421875,6.53125 L23.46875,6.8125 C21.484375,7.890625 20.015625,9.1875 18.9375,10.46875 L22.53125,10.46875 C22.875,10.46875 23.109375,10.5625 23.15625,10.828125 C22.421875,11.546875 21.171875,12.53125 21.171875,12.53125 L20.09375,11.140625 L18.390625,11.140625 C17.59375,12.21875 17.046875,13.265625 16.703125,14.15625 L20.0625,14.15625 C20.40625,14.15625 20.609375,14.28125 20.6875,14.546875 C19.921875,15.234375 18.703125,16.203125 18.703125,16.203125 L17.640625,14.875 L14.828125,14.875 C15.28125,16.3125 15.59375,17.765625 15.84375,19.171875 C16.515625,19.21875 16.734375,19.421875 16.796875,19.734375 L14.140625,20.109375 C13.96875,18.390625 13.65625,16.609375 13.171875,14.875 L10.203125,14.875 C10.9375,15.765625 11.609375,16.78125 12.171875,17.859375 C12.640625,17.828125 12.9375,18.03125 13.03125,18.265625 Z M14.5625,14.15625 L16.171875,14.15625 C16.421875,13.3125 16.78125,12.265625 17.296875,11.140625 L13.25,11.140625 C13.78125,12.125 14.203125,13.125 14.5625,14.15625 Z" transform="translate(-0.46875, 20.109375) scale(1, -1)"/>
</svg>