<svg height="22.015625" viewBox="0 0 24 22.015625" width="24" xmlns="http://www.w3.org/2000/svg">
<path d="M9.71875,19.578125 L9.4375,19.46875 C9.984375,18.484375 10.6875,16.96875 10.796875,15.84375 C12.125,14.609375 13.65625,17.359375 9.71875,19.578125 Z M18.71875,19.796875 C18.4375,18.765625 17.71875,16.78125 17.109375,15.5 L17.375,15.359375 C18.4375,16.390625 19.5625,17.71875 20.140625,18.5 C20.609375,18.4375 20.90625,18.703125 20.953125,18.890625 Z M0.75,7.6875 L1.578125,5.6875 C1.796875,5.78125 1.984375,6.03125 2.0625,6.3125 L4.34375,7.515625 L4.34375,0.546875 C4.34375,0.1875 4.21875,0.078125 3.8125,0.078125 C3.40625,0.078125 1.3125,0.21875 1.3125,0.21875 L1.3125,-0.171875 C2.25,-0.28125 2.765625,-0.453125 3.09375,-0.71875 C3.390625,-0.953125 3.5,-1.390625 3.578125,-1.875 C5.609375,-1.625 5.828125,-0.859375 5.828125,0.40625 L5.828125,8.296875 L9.078125,10.125 L8.953125,10.46875 L5.828125,9.359375 L5.828125,14.1875 L8.59375,14.1875 C8.875,14.1875 9.125,14.296875 9.171875,14.5625 C8.546875,15.28125 7.421875,16.265625 7.421875,16.265625 L6.453125,14.90625 L5.828125,14.90625 L5.828125,19.203125 C6.40625,19.265625 6.640625,19.515625 6.71875,19.84375 L4.34375,20.109375 L4.34375,14.90625 L0.9375,14.90625 L1.125,14.1875 L4.34375,14.1875 L4.34375,8.828125 C2.765625,8.28125 1.46875,7.875 0.75,7.6875 Z M10.34375,4.4375 L10.34375,-0.046875 C10.34375,-1.25 10.703125,-1.578125 12.859375,-1.578125 L16.25,-1.578125 C20.828125,-1.578125 21.625,-1.3125 21.625,-0.578125 C21.625,-0.3125 21.453125,-0.125 20.90625,0.046875 L20.859375,2.6875 L20.546875,2.6875 C20.28125,1.484375 20.015625,0.5 19.828125,0.125 C19.734375,-0.09375 19.625,-0.140625 19.296875,-0.171875 C18.890625,-0.1875 17.734375,-0.21875 16.265625,-0.21875 L13.0625,-0.21875 C11.953125,-0.21875 11.828125,-0.140625 11.828125,0.1875 L11.828125,3.75 L17.109375,3.75 L17.109375,2.90625 L17.359375,2.90625 C17.828125,2.90625 18.546875,3.234375 18.578125,3.40625 L18.578125,7.078125 C18.9375,7.15625 19.25,7.296875 19.375,7.4375 L17.6875,8.734375 L16.921875,7.921875 L10.96875,7.921875 C11.734375,8.78125 12.390625,9.71875 12.9375,10.703125 L17.5,10.703125 C18.4375,8.828125 19.828125,6.8125 21.953125,5.328125 C22.15625,6.171875 22.609375,6.390625 23.328125,6.484375 L23.375,6.765625 C21.328125,7.9375 19.828125,9.34375 18.75,10.703125 L22.515625,10.703125 C22.84375,10.703125 23.0625,10.828125 23.140625,11.09375 C22.375,11.828125 21.09375,12.8125 21.09375,12.8125 L20.015625,11.40625 L18.21875,11.40625 C17.5,12.40625 17.015625,13.390625 16.6875,14.203125 L21.765625,14.203125 C22.125,14.203125 22.34375,14.328125 22.421875,14.59375 C21.703125,15.28125 20.5,16.25 20.5,16.25 L19.46875,14.921875 L14.71875,14.921875 C15.140625,16.375 15.453125,17.8125 15.671875,19.203125 C16.375,19.25 16.5625,19.421875 16.65625,19.75 L14.109375,20.140625 C13.9375,18.40625 13.65625,16.65625 13.203125,14.921875 L9.171875,14.921875 L9.359375,14.203125 L12.984375,14.203125 C12.703125,13.25 12.34375,12.3125 11.921875,11.40625 L8.0625,11.40625 L8.25,10.703125 L11.59375,10.703125 C10.484375,8.546875 8.96875,6.59375 6.90625,5.140625 L7.15625,4.84375 C8.46875,5.59375 9.59375,6.484375 10.5625,7.46875 L10.625,7.21875 L17.109375,7.21875 L17.109375,4.4375 L12.125,4.4375 L10.34375,5.234375 Z M14.46875,14.203125 L16.171875,14.203125 C16.390625,13.421875 16.703125,12.453125 17.15625,11.40625 L13.296875,11.40625 C13.78125,12.3125 14.15625,13.25 14.46875,14.203125 Z" transform="translate(-0.0625, 20.140625) scale(1, -1)"/>
</svg>