<svg height="21.984375" viewBox="0 0 24 21.984375" width="24" xmlns="http://www.w3.org/2000/svg">
<path d="M9.046875,16.25 L9.234375,15.53125 L18.953125,15.53125 L18.953125,13.421875 L10.484375,13.421875 L10.703125,12.71875 L18.953125,12.71875 L18.953125,11.78125 L19.203125,11.78125 C19.734375,11.78125 20.46875,12.140625 20.5,12.28125 L20.5,15.53125 L22.75,15.53125 C23.09375,15.53125 23.296875,15.640625 23.375,15.90625 C22.703125,16.609375 21.640625,17.46875 21.640625,17.46875 L20.71875,16.25 L20.5,16.25 L20.5,18.09375 C20.90625,18.171875 21.265625,18.359375 21.40625,18.53125 L19.578125,19.921875 L18.75,19.015625 L10.484375,19.015625 L10.703125,18.3125 L18.953125,18.3125 L18.953125,16.25 Z M0.578125,8.1875 L1.484375,6.21875 C1.703125,6.3125 1.890625,6.578125 1.9375,6.84375 L4.34375,8.140625 L4.34375,0.546875 C4.34375,0.1875 4.21875,0.078125 3.8125,0.078125 C3.40625,0.078125 1.3125,0.21875 1.3125,0.21875 L1.3125,-0.171875 C2.25,-0.28125 2.765625,-0.453125 3.09375,-0.71875 C3.390625,-0.953125 3.5,-1.390625 3.578125,-1.875 C5.609375,-1.625 5.828125,-0.859375 5.828125,0.40625 L5.828125,8.96875 L8.546875,10.5625 L8.421875,10.875 L5.828125,9.953125 L5.828125,14.234375 L8.828125,14.234375 C9.140625,14.234375 9.390625,14.359375 9.453125,14.609375 C8.8125,15.3125 7.6875,16.296875 7.6875,16.296875 L6.71875,14.953125 L5.828125,14.953125 L5.828125,19.203125 C6.40625,19.265625 6.640625,19.515625 6.71875,19.84375 L4.34375,20.109375 L4.34375,14.953125 L0.984375,14.953125 L1.171875,14.234375 L4.34375,14.234375 L4.34375,9.4375 C2.6875,8.859375 1.3125,8.40625 0.578125,8.1875 Z M9.703125,11.828125 C9.578125,10.609375 8.71875,9.59375 8.203125,9.265625 C6.859375,8.359375 7.9375,7.0625 9.125,7.828125 C9.8125,8.25 10.203125,9.03125 10.265625,9.984375 L20.6875,9.984375 L19.890625,7.984375 L19.21875,7.171875 L15.984375,7.171875 L15.984375,8.46875 C16.515625,8.5625 16.734375,8.78125 16.75,9.078125 L14.5,9.34375 L14.5,7.171875 L11.453125,7.171875 L9.8125,7.890625 L9.8125,-0.359375 L10.0625,-0.359375 C10.65625,-0.359375 11.296875,-0.03125 11.296875,0.140625 L11.296875,6.453125 L14.5,6.453125 L14.5,-1.875 L14.78125,-1.875 C15.34375,-1.875 15.984375,-1.515625 15.984375,-1.34375 L15.984375,6.453125 L19.4375,6.453125 L19.4375,1.734375 C19.4375,1.421875 19.34375,1.296875 19.015625,1.296875 C18.59375,1.296875 16.9375,1.421875 16.9375,1.421875 L16.9375,1.078125 C17.765625,0.9375 18.1875,0.765625 18.4375,0.53125 C18.671875,0.3125 18.765625,-0.09375 18.8125,-0.53125 C20.71875,-0.359375 20.921875,0.359375 20.921875,1.5625 L20.921875,6.21875 C21.359375,6.3125 21.703125,6.5 21.84375,6.671875 L20.109375,7.921875 L20.25,7.875 C20.859375,8.328125 21.90625,9.1875 22.46875,9.71875 C22.921875,9.765625 23.1875,9.796875 23.359375,9.953125 L21.625,11.65625 L20.6875,10.6875 L10.25,10.6875 C10.21875,11.046875 10.171875,11.421875 10.0625,11.828125 Z" transform="translate(0.0234375, 20.109375) scale(1, -1)"/>
</svg>