<svg height="22.03125" viewBox="0 0 24 22.03125" width="24" xmlns="http://www.w3.org/2000/svg">
<path d="M16.65625,8.734375 L16.375,8.5625 C16.96875,7.875 17.6875,6.75 17.875,5.875 C19.03125,4.96875 20.1875,7.265625 16.65625,8.734375 Z M10.796875,4.25 L10.984375,3.546875 L19.703125,3.546875 C19.984375,3.546875 20.234375,3.671875 20.28125,3.9375 C19.6875,4.578125 18.625,5.453125 18.625,5.453125 L17.734375,4.25 L15.765625,4.25 L15.765625,9.4375 L18.8125,9.4375 C19.15625,9.4375 19.375,9.546875 19.4375,9.8125 C18.84375,10.421875 17.90625,11.25 17.90625,11.25 L17.0625,10.15625 L15.765625,10.15625 L15.765625,14.203125 L19.265625,14.203125 C19.609375,14.203125 19.796875,14.328125 19.875,14.59375 C19.296875,15.21875 18.265625,16.0625 18.265625,16.0625 L17.40625,14.921875 L11.09375,14.921875 L11.28125,14.203125 L14.328125,14.203125 L14.328125,10.15625 L11.5,10.15625 L11.6875,9.4375 L14.328125,9.4375 L14.328125,4.25 Z M0.75,7.734375 L1.5625,5.6875 C1.796875,5.78125 1.984375,6.046875 2.046875,6.3125 L4.109375,7.46875 L4.109375,0.546875 C4.109375,0.21875 3.984375,0.09375 3.59375,0.09375 C3.171875,0.09375 1.125,0.234375 1.125,0.234375 L1.125,-0.140625 C2.046875,-0.265625 2.546875,-0.4375 2.875,-0.703125 C3.140625,-0.953125 3.265625,-1.390625 3.34375,-1.875 C5.375,-1.625 5.640625,-0.859375 5.640625,0.4375 L5.640625,8.359375 L8.28125,9.9375 L8.15625,10.265625 L5.640625,9.359375 L5.640625,14.09375 L8.1875,14.09375 C8.46875,14.09375 8.6875,14.1875 8.765625,14.40625 L8.765625,-1.921875 L9.03125,-1.921875 C9.71875,-1.921875 10.21875,-1.515625 10.21875,-1.296875 L10.21875,0.125 L20.609375,0.125 L20.609375,-1.625 L20.828125,-1.625 C21.390625,-1.625 22.078125,-1.21875 22.109375,-1.03125 L22.109375,17.453125 C22.625,17.546875 23.09375,17.765625 23.25,17.96875 L21.265625,19.5625 L20.359375,18.5 L10.375,18.5 L8.765625,19.296875 L8.765625,14.515625 C8.09375,15.234375 7.03125,16.109375 7.03125,16.109375 L6.078125,14.8125 L5.640625,14.8125 L5.640625,19.203125 C6.1875,19.265625 6.4375,19.515625 6.5,19.84375 L4.109375,20.109375 L4.109375,14.8125 L0.890625,14.8125 L1.078125,14.09375 L4.109375,14.09375 L4.109375,8.8125 C2.640625,8.296875 1.421875,7.921875 0.75,7.734375 Z M10.21875,0.8125 L10.21875,17.8125 L20.609375,17.8125 L20.609375,0.8125 Z" transform="translate(0, 20.109375) scale(1, -1)"/>
</svg>