<svg height="21.984375" viewBox="0 0 24 21.984375" width="24" xmlns="http://www.w3.org/2000/svg">
<path d="M10.484375,10.015625 L10.25,9.8125 C10.875,9.265625 11.6875,8.328125 11.921875,7.578125 C13.109375,6.796875 14.09375,9.078125 10.484375,10.015625 Z M10.46875,6.234375 L10.203125,6.046875 C10.875,5.515625 11.71875,4.515625 11.90625,3.75 C13.125,2.875 14.140625,5.296875 10.46875,6.234375 Z M16.625,12.5 L16.625,2.15625 L16.921875,2.15625 C17.421875,2.15625 18.03125,2.46875 18.03125,2.65625 L18.03125,11.734375 C18.5,11.8125 18.703125,12 18.75,12.265625 Z M20.328125,13.296875 L20.328125,0.59375 C20.328125,0.28125 20.203125,0.1875 19.875,0.1875 C19.484375,0.1875 17.71875,0.3125 17.71875,0.3125 L17.71875,-0.046875 C18.53125,-0.171875 18.984375,-0.34375 19.265625,-0.546875 C19.53125,-0.796875 19.625,-1.15625 19.65625,-1.5625 C21.53125,-1.390625 21.765625,-0.703125 21.765625,0.5 L21.765625,12.40625 C22.3125,12.484375 22.5625,12.703125 22.609375,13.03125 Z M10.703125,19.78125 L10.421875,19.625 C11.140625,18.703125 11.953125,17.203125 12.140625,16.03125 C13.6875,14.8125 15.171875,17.953125 10.703125,19.78125 Z M0.59375,7.578125 L1.484375,5.59375 C1.734375,5.65625 1.890625,5.90625 1.96875,6.1875 L4.125,7.3125 L4.125,0.578125 C4.125,0.21875 4.03125,0.09375 3.625,0.09375 C3.1875,0.09375 1.109375,0.234375 1.109375,0.234375 L1.109375,-0.140625 C2.046875,-0.265625 2.5625,-0.4375 2.875,-0.703125 C3.171875,-0.953125 3.28125,-1.390625 3.359375,-1.875 C5.421875,-1.625 5.6875,-0.859375 5.6875,0.4375 L5.6875,8.15625 L8.59375,9.765625 L8.453125,10.125 L5.6875,9.1875 L5.6875,13.921875 L8.359375,13.921875 C8.65625,13.921875 8.90625,14.046875 8.953125,14.296875 L8.59375,14.6875 L22.5625,14.6875 C22.890625,14.6875 23.109375,14.8125 23.15625,15.046875 C22.390625,15.8125 21.125,16.828125 21.125,16.828125 L19.96875,15.390625 L16.96875,15.390625 C18.078125,16.46875 19.21875,17.828125 19.9375,18.84375 C20.421875,18.8125 20.734375,19.015625 20.859375,19.265625 L18.28125,20.046875 C17.828125,18.671875 17.015625,16.75 16.296875,15.390625 L8.1875,15.390625 L8.296875,14.96875 L7.203125,15.984375 L6.21875,14.609375 L5.6875,14.609375 L5.6875,19.203125 C6.234375,19.265625 6.484375,19.515625 6.546875,19.84375 L4.125,20.109375 L4.125,14.609375 L0.984375,14.609375 L1.171875,13.921875 L4.125,13.921875 L4.125,8.65625 C2.59375,8.15625 1.3125,7.75 0.59375,7.578125 Z M8.59375,12.453125 L8.59375,-1.6875 L8.78125,-1.6875 C9.53125,-1.6875 10.015625,-1.296875 10.015625,-1.15625 L10.015625,11.765625 L13.25,11.765625 L13.25,0.8125 C13.25,0.53125 13.15625,0.40625 12.859375,0.40625 C12.546875,0.40625 11.234375,0.53125 11.234375,0.53125 L11.234375,0.140625 C11.875,0.03125 12.234375,-0.125 12.453125,-0.390625 C12.671875,-0.625 12.75,-1.078125 12.765625,-1.515625 C14.453125,-1.34375 14.640625,-0.625 14.640625,0.625 L14.640625,11.5625 C15.03125,11.640625 15.359375,11.828125 15.484375,11.96875 L13.734375,13.3125 L13.03125,12.453125 L10.25,12.453125 L8.59375,13.171875 Z" transform="translate(0.125, 20.109375) scale(1, -1)"/>
</svg>