<svg height="21.984375" viewBox="0 0 24 21.984375" width="24" xmlns="http://www.w3.org/2000/svg">
<path d="M10.703125,19.515625 L10.421875,19.375 C11.140625,18.4375 11.953125,16.9375 12.140625,15.765625 C13.6875,14.546875 15.171875,17.6875 10.703125,19.515625 Z M16.625,12.234375 L16.625,1.890625 L16.921875,1.890625 C17.421875,1.890625 18.03125,2.203125 18.03125,2.40625 L18.03125,11.46875 C18.5,11.546875 18.703125,11.734375 18.75,12.03125 Z M20.328125,13.03125 L20.328125,0.34375 C20.328125,0.03125 20.203125,-0.078125 19.875,-0.078125 C19.484375,-0.078125 17.71875,0.046875 17.71875,0.046875 L17.71875,-0.3125 C18.53125,-0.40625 18.984375,-0.578125 19.265625,-0.8125 C19.53125,-1.0625 19.625,-1.421875 19.65625,-1.84375 C21.53125,-1.65625 21.765625,-0.953125 21.765625,0.234375 L21.765625,12.140625 C22.3125,12.21875 22.5625,12.4375 22.609375,12.765625 Z M0.59375,7.578125 L1.484375,5.59375 C1.734375,5.65625 1.890625,5.90625 1.96875,6.1875 L4.125,7.3125 L4.125,0.578125 C4.125,0.21875 4.03125,0.09375 3.625,0.09375 C3.1875,0.09375 1.109375,0.234375 1.109375,0.234375 L1.109375,-0.140625 C2.046875,-0.265625 2.5625,-0.4375 2.875,-0.703125 C3.171875,-0.953125 3.28125,-1.390625 3.359375,-1.875 C5.421875,-1.625 5.6875,-0.859375 5.6875,0.4375 L5.6875,8.15625 L8.59375,9.765625 L8.453125,10.125 L5.6875,9.1875 L5.6875,13.921875 L8.359375,13.921875 C8.65625,13.921875 8.90625,14.046875 8.953125,14.296875 L8.828125,14.421875 L22.5625,14.421875 C22.890625,14.421875 23.109375,14.546875 23.15625,14.8125 C22.390625,15.546875 21.125,16.5625 21.125,16.5625 L19.96875,15.125 L16.96875,15.125 C18.078125,16.203125 19.21875,17.546875 19.9375,18.578125 C20.421875,18.546875 20.734375,18.75 20.859375,19.015625 L18.28125,19.796875 C17.828125,18.4375 17.015625,16.515625 16.296875,15.125 L8.1875,15.125 L8.203125,15.078125 L7.203125,15.984375 L6.21875,14.609375 L5.6875,14.609375 L5.6875,19.203125 C6.234375,19.265625 6.484375,19.515625 6.546875,19.84375 L4.125,20.109375 L4.125,14.609375 L0.984375,14.609375 L1.171875,13.921875 L4.125,13.921875 L4.125,8.65625 C2.59375,8.15625 1.3125,7.75 0.59375,7.578125 Z M13.21875,8.046875 L13.21875,4.984375 L10.03125,4.984375 L10.03125,8.046875 Z M13.21875,8.734375 L10.03125,8.734375 L10.03125,11.5 L13.21875,11.5 Z M8.59375,12.1875 L8.59375,-1.78125 L8.78125,-1.78125 C9.53125,-1.78125 10.03125,-1.390625 10.03125,-1.265625 L10.03125,4.265625 L13.21875,4.265625 L13.21875,0.546875 C13.21875,0.265625 13.125,0.140625 12.84375,0.140625 C12.53125,0.140625 11.203125,0.265625 11.203125,0.265625 L11.203125,-0.125 C11.859375,-0.234375 12.21875,-0.390625 12.4375,-0.625 C12.640625,-0.890625 12.71875,-1.34375 12.765625,-1.796875 C14.453125,-1.609375 14.640625,-0.859375 14.640625,0.359375 L14.640625,11.296875 C15.03125,11.375 15.359375,11.5625 15.484375,11.71875 L13.703125,13.0625 L13.015625,12.1875 L10.265625,12.1875 L8.59375,12.9375 Z" transform="translate(0.125, 20.109375) scale(1, -1)"/>
</svg>