<svg height="21.984375" viewBox="0 0 24 21.984375" width="24" xmlns="http://www.w3.org/2000/svg">
<path d="M13.21875,12.265625 C12.71875,11.828125 11.765625,11.046875 10.890625,10.4375 L9,11.015625 L9,-1.828125 L9.21875,-1.828125 C10.03125,-1.828125 10.46875,-1.4375 10.484375,-1.3125 L10.484375,0.046875 L20.609375,0.046875 L20.609375,-1.625 L20.828125,-1.625 C21.359375,-1.625 22.109375,-1.265625 22.125,-1.109375 L22.125,9.625 C22.5625,9.703125 22.890625,9.890625 23.046875,10.0625 L21.234375,11.5 L20.375,10.5625 L17.28125,10.5625 L17.5,9.859375 L20.609375,9.859375 L20.609375,5.71875 L17.40625,5.71875 L17.609375,4.984375 L20.609375,4.984375 L20.609375,0.75 L16.390625,0.75 L16.390625,13.5625 L22.515625,13.5625 C22.84375,13.5625 23.0625,13.6875 23.140625,13.9375 C22.34375,14.6875 21.078125,15.703125 21.078125,15.703125 L19.921875,14.28125 L16.390625,14.28125 L16.390625,17.515625 C18.125,17.828125 19.703125,18.171875 21,18.5 C21.546875,18.265625 21.953125,18.265625 22.171875,18.484375 L20.421875,20.046875 C17.875,18.984375 12.90625,17.640625 8.921875,16.984375 L9.03125,16.5625 C10.921875,16.703125 12.9375,16.9375 14.859375,17.25 L14.859375,14.28125 L9.125,14.28125 C9.28125,14.328125 9.40625,14.453125 9.4375,14.609375 C8.8125,15.3125 7.6875,16.296875 7.6875,16.296875 L6.71875,14.953125 L5.828125,14.953125 L5.828125,19.203125 C6.40625,19.265625 6.640625,19.515625 6.71875,19.84375 L4.34375,20.109375 L4.34375,14.953125 L0.9375,14.953125 L1.125,14.234375 L4.34375,14.234375 L4.34375,8.90625 C2.828125,8.46875 1.5625,8.109375 0.8125,7.96875 L1.78125,5.953125 C2.015625,6.046875 2.203125,6.234375 2.28125,6.53125 L4.34375,7.5625 L4.34375,0.546875 C4.34375,0.1875 4.21875,0.078125 3.8125,0.078125 C3.40625,0.078125 1.3125,0.21875 1.3125,0.21875 L1.3125,-0.171875 C2.25,-0.28125 2.765625,-0.453125 3.09375,-0.71875 C3.390625,-0.953125 3.5,-1.390625 3.578125,-1.875 C5.609375,-1.625 5.828125,-0.859375 5.828125,0.40625 L5.828125,8.296875 C7.015625,8.921875 7.984375,9.453125 8.78125,9.90625 L8.65625,10.21875 L5.828125,9.359375 L5.828125,14.234375 L8.46875,14.234375 L8.640625,13.5625 L14.859375,13.5625 L14.859375,0.75 L10.484375,0.75 L10.484375,5.015625 L13.484375,5.015625 C13.78125,5.015625 14.015625,5.140625 14.0625,5.40625 C13.484375,6 12.5,6.890625 12.5,6.890625 L11.640625,5.6875 L10.484375,5.6875 L10.484375,9.71875 C11.78125,10.015625 13.25,10.484375 14.015625,10.796875 C14.296875,10.65625 14.546875,10.6875 14.65625,10.828125 Z" transform="translate(0.0234375, 20.109375) scale(1, -1)"/>
</svg>