<svg height="22" viewBox="0 0 24 22" width="24" xmlns="http://www.w3.org/2000/svg">
<path d="M21.671875,18.28125 L19.875,20.015625 C17.515625,19.125 13.03125,18.09375 9.28125,17.734375 L9.359375,17.296875 C13.265625,17.296875 17.609375,17.765625 20.421875,18.34375 C20.96875,18.078125 21.4375,18.09375 21.671875,18.28125 Z M9.9375,16.609375 L9.640625,16.4375 C10.375,15.578125 11.25,14.140625 11.46875,13.0625 C12.84375,12 14.09375,14.71875 9.9375,16.609375 Z M13.65625,17.203125 L13.375,17.0625 C14.015625,16.078125 14.765625,14.546875 14.859375,13.34375 C16.203125,12.171875 17.65625,15 13.65625,17.203125 Z M20.28125,13.703125 L19.296875,12.484375 L17.734375,12.484375 C18.640625,13.5625 19.609375,15 20.40625,16.296875 C20.90625,16.25 21.1875,16.46875 21.28125,16.703125 L19.0625,17.546875 C18.453125,15.765625 17.71875,13.796875 17.0625,12.484375 L9.125,12.484375 L9.3125,11.765625 L12.484375,11.765625 C12.390625,10.9375 12.265625,10.15625 12.125,9.359375 L7.96875,9.359375 L8.15625,8.65625 L11.96875,8.65625 C11.09375,4.78125 9.3125,1.375 6.125,-1.296875 L6.390625,-1.578125 C9.40625,0.359375 11.359375,2.859375 12.59375,5.828125 C13.25,4.21875 14.15625,2.875 15.28125,1.78125 C13.609375,0.359375 11.421875,-0.75 8.765625,-1.515625 L8.953125,-1.890625 C11.921875,-1.296875 14.28125,-0.3125 16.125,1.03125 C17.640625,-0.21875 19.515625,-1.125 21.703125,-1.78125 C21.90625,-1.0625 22.390625,-0.578125 23.046875,-0.453125 L23.046875,-0.21875 C20.875,0.21875 18.859375,0.90625 17.1875,1.890625 C18.4375,3.03125 19.421875,4.34375 20.140625,5.875 C20.6875,5.875 20.953125,5.953125 21.140625,6.171875 L19.484375,7.6875 L18.5,6.765625 L12.953125,6.765625 C13.171875,7.390625 13.375,8.015625 13.5625,8.65625 L22.484375,8.65625 C22.828125,8.65625 23.0625,8.78125 23.109375,9.046875 C22.375,9.75 21.1875,10.6875 21.1875,10.6875 L20.140625,9.359375 L13.734375,9.359375 C13.890625,10.125 14.046875,10.9375 14.15625,11.765625 L21.5,11.765625 C21.84375,11.765625 22.078125,11.875 22.125,12.140625 C21.40625,12.84375 20.28125,13.703125 20.28125,13.703125 Z M13.078125,6.046875 L18.453125,6.046875 C17.90625,4.75 17.109375,3.59375 16.125,2.5625 C14.859375,3.5 13.796875,4.65625 13.078125,6.046875 Z M7.828125,16.015625 L6.84375,14.65625 L5.859375,14.65625 L5.859375,19.21875 C6.453125,19.296875 6.703125,19.515625 6.75,19.84375 L4.34375,20.109375 L4.34375,14.65625 L1.109375,14.65625 L1.296875,13.96875 L4.34375,13.96875 L4.34375,8.90625 C2.859375,8.25 1.625,7.75 0.9375,7.515625 L1.921875,5.5625 C2.140625,5.6875 2.296875,5.953125 2.359375,6.21875 L4.34375,7.46875 L4.34375,0.671875 C4.34375,0.34375 4.21875,0.21875 3.8125,0.21875 C3.359375,0.21875 1.203125,0.390625 1.203125,0.390625 L1.203125,0 C2.15625,-0.140625 2.71875,-0.34375 3.046875,-0.625 C3.34375,-0.890625 3.453125,-1.3125 3.53125,-1.828125 C5.609375,-1.609375 5.859375,-0.796875 5.859375,0.5 L5.859375,8.46875 L9.046875,10.609375 L8.90625,10.9375 L5.859375,9.578125 L5.859375,13.96875 L9,13.96875 C9.34375,13.96875 9.578125,14.09375 9.625,14.359375 C8.953125,15.046875 7.828125,16.015625 7.828125,16.015625 Z" transform="translate(-0.0234375, 20.109375) scale(1, -1)"/>
</svg>