<svg height="22.078125" viewBox="0 0 24 22.078125" width="24" xmlns="http://www.w3.org/2000/svg">
<path d="M14.5625,17.515625 L14.25,17.40625 C14.765625,16.5625 15.21875,15.140625 15.140625,14.09375 C16.34375,12.84375 17.96875,15.390625 14.5625,17.515625 Z M19.015625,17.859375 L18.75,17.640625 C19.828125,16.625 21.234375,14.90625 21.578125,13.5625 C23.140625,12.484375 24.234375,15.765625 19.015625,17.859375 Z M8.296875,9.484375 L8.5,8.78125 L12.140625,8.78125 C11.296875,4.734375 9.59375,1.21875 6.3125,-1.578125 L6.578125,-1.890625 C9.703125,0.09375 11.640625,2.65625 12.84375,5.734375 C13.46875,4.203125 14.28125,2.921875 15.3125,1.84375 C13.703125,0.484375 11.6875,-0.640625 9.359375,-1.46875 L9.546875,-1.84375 C12.1875,-1.203125 14.375,-0.1875 16.15625,1.0625 C17.734375,-0.265625 19.65625,-1.203125 21.953125,-1.875 C22.15625,-1.125 22.625,-0.640625 23.28125,-0.546875 L23.296875,-0.28125 C21.03125,0.140625 18.9375,0.84375 17.234375,1.890625 C18.578125,3.046875 19.65625,4.375 20.46875,5.859375 C21.046875,5.90625 21.3125,5.96875 21.484375,6.171875 L19.78125,7.703125 L18.75,6.765625 L13.203125,6.765625 C13.421875,7.421875 13.609375,8.09375 13.75,8.78125 L22.609375,8.78125 C22.9375,8.78125 23.1875,8.875 23.234375,9.140625 C22.484375,9.890625 21.234375,10.875 21.234375,10.875 L20.140625,9.484375 L13.921875,9.484375 C14.0625,10.296875 14.203125,11.140625 14.328125,12 L21.234375,12 C21.546875,12 21.796875,12.125 21.859375,12.390625 C21.125,13.109375 19.890625,14.046875 19.890625,14.0625 L18.84375,12.71875 L10.078125,12.71875 L10.265625,12 L12.59375,12 C12.53125,11.140625 12.40625,10.296875 12.265625,9.484375 Z M0.8125,7.84375 L1.84375,5.90625 C2.0625,6 2.25,6.234375 2.296875,6.53125 L4.296875,7.625 L4.296875,0.625 C4.296875,0.265625 4.171875,0.140625 3.796875,0.140625 C3.34375,0.140625 1.25,0.3125 1.25,0.3125 L1.25,-0.09375 C2.1875,-0.21875 2.71875,-0.390625 3.03125,-0.671875 C3.3125,-0.9375 3.4375,-1.375 3.5,-1.875 C5.5625,-1.625 5.828125,-0.84375 5.828125,0.453125 L5.828125,8.546875 L9.09375,10.515625 L8.953125,10.84375 L5.828125,9.640625 L5.828125,14.109375 L8.59375,14.109375 C8.734375,14.109375 8.859375,14.140625 8.921875,14.1875 C8.640625,13.6875 8.328125,13.25 7.984375,12.859375 L8.359375,12.578125 C9.9375,13.734375 11.296875,15.59375 12.21875,17.8125 C15.1875,17.875 18.4375,18.265625 20.5625,18.703125 C21.078125,18.484375 21.5,18.484375 21.703125,18.671875 L20.0625,20.1875 C18.4375,19.5625 15.453125,18.8125 12.75,18.390625 L10.9375,19.03125 C10.53125,17.40625 9.890625,15.8125 9.140625,14.546875 C8.5,15.234375 7.390625,16.125 7.390625,16.125 L6.4375,14.828125 L5.828125,14.828125 L5.828125,19.171875 C6.390625,19.25 6.625,19.484375 6.703125,19.84375 L4.296875,20.09375 L4.296875,14.828125 L1.0625,14.828125 L1.25,14.109375 L4.296875,14.109375 L4.296875,9.078125 C2.78125,8.5 1.53125,8.0625 0.8125,7.84375 Z M18.640625,6.046875 C18.046875,4.796875 17.203125,3.640625 16.15625,2.609375 C14.921875,3.53125 13.9375,4.6875 13.265625,6.046875 Z" transform="translate(-0.5234375, 20.1875) scale(1, -1)"/>
</svg>