<svg height="22" viewBox="0 0 24 22" width="24" xmlns="http://www.w3.org/2000/svg">
<path d="M9.90625,9.671875 L9.90625,3.5 L7.46875,3.5 L7.65625,2.78125 L9.90625,2.78125 L9.90625,-1.84375 L10.15625,-1.84375 C10.78125,-1.84375 11.40625,-1.484375 11.40625,-1.3125 L11.40625,2.78125 L19.4375,2.78125 L19.4375,0.453125 C19.4375,0.125 19.3125,0 18.9375,0 C18.4375,0 16.3125,0.140625 16.3125,0.140625 L16.3125,-0.234375 C17.296875,-0.359375 17.828125,-0.546875 18.140625,-0.796875 C18.453125,-1.03125 18.546875,-1.4375 18.625,-1.890625 C20.71875,-1.6875 20.953125,-0.90625 20.953125,0.28125 L20.953125,2.78125 L23.0625,2.78125 C23.40625,2.78125 23.609375,2.90625 23.6875,3.171875 C23.0625,3.84375 22.03125,4.734375 22.03125,4.734375 L21.140625,3.5 L20.953125,3.5 L20.953125,8.6875 C21.453125,8.765625 21.84375,8.96875 21.984375,9.140625 L19.96875,10.625 L19.203125,9.671875 L16.0625,9.671875 L16.0625,11.421875 L22.515625,11.421875 C22.84375,11.421875 23.0625,11.546875 23.140625,11.8125 C22.390625,12.53125 21.1875,13.484375 21.1875,13.484375 L20.140625,12.125 L18.5,12.125 L18.5,14.28125 L21.703125,14.28125 C22.03125,14.28125 22.25,14.40625 22.3125,14.65625 C21.640625,15.3125 20.546875,16.203125 20.546875,16.203125 L19.609375,15 L18.5,15 L18.5,16.890625 L22.171875,16.890625 C22.515625,16.890625 22.75,17.015625 22.796875,17.28125 C22.078125,17.96875 20.90625,18.90625 20.90625,18.90625 L19.890625,17.59375 L18.5,17.59375 L18.5,19.125 C19.03125,19.21875 19.21875,19.4375 19.265625,19.75 L16.984375,19.96875 L16.984375,17.59375 L13.421875,17.59375 L13.421875,19.15625 C13.921875,19.25 14.109375,19.46875 14.15625,19.75 L11.90625,19.96875 L11.90625,17.59375 L8.78125,17.59375 L8.953125,16.890625 L11.90625,16.890625 L11.90625,15 L9.4375,15 L9.53125,14.640625 L9.625,14.28125 L11.90625,14.28125 L11.90625,12.125 L8.015625,12.125 L8.203125,11.421875 L14.59375,11.421875 L14.59375,9.671875 L11.546875,9.671875 L9.90625,10.46875 Z M0.8125,7.6875 L1.625,5.609375 C1.890625,5.71875 2.0625,5.953125 2.15625,6.21875 L4.34375,7.296875 L4.34375,0.578125 C4.34375,0.21875 4.21875,0.09375 3.8125,0.09375 C3.40625,0.09375 1.3125,0.234375 1.3125,0.234375 L1.3125,-0.140625 C2.25,-0.265625 2.78125,-0.4375 3.09375,-0.703125 C3.390625,-0.953125 3.5,-1.390625 3.578125,-1.875 C5.640625,-1.625 5.859375,-0.859375 5.859375,0.4375 L5.859375,8.0625 L8.921875,9.671875 L8.859375,10.015625 L5.859375,9.09375 L5.859375,14.25 L8.90625,14.25 C9.234375,14.25 9.484375,14.375 9.53125,14.640625 C8.859375,15.34375 7.703125,16.296875 7.703125,16.296875 L6.75,14.96875 L5.859375,14.96875 L5.859375,19.203125 C6.4375,19.265625 6.671875,19.515625 6.75,19.84375 L4.34375,20.109375 L4.34375,14.96875 L1.03125,14.96875 L1.21875,14.25 L4.34375,14.25 L4.34375,8.65625 C2.8125,8.203125 1.53125,7.84375 0.8125,7.6875 Z M13.421875,16.890625 L16.984375,16.890625 L16.984375,15 L13.421875,15 Z M13.421875,14.28125 L16.984375,14.28125 L16.984375,12.125 L13.421875,12.125 Z M14.59375,3.5 L11.40625,3.5 L11.40625,5.921875 L14.59375,5.921875 Z M16.0625,3.5 L16.0625,5.921875 L19.4375,5.921875 L19.4375,3.5 Z M14.59375,8.96875 L14.59375,6.625 L11.40625,6.625 L11.40625,8.96875 Z M16.0625,8.96875 L19.4375,8.96875 L19.4375,6.625 L16.0625,6.625 Z" transform="translate(-0.25, 20.109375) scale(1, -1)"/>
</svg>