<svg height="21.984375" viewBox="0 0 24 21.984375" width="24" xmlns="http://www.w3.org/2000/svg">
<path d="M0.546875,8.140625 L1.4375,6.140625 C1.6875,6.234375 1.875,6.484375 1.9375,6.765625 L4.34375,7.984375 L4.34375,0.578125 C4.34375,0.21875 4.21875,0.09375 3.8125,0.09375 C3.40625,0.09375 1.3125,0.234375 1.3125,0.234375 L1.3125,-0.140625 C2.25,-0.265625 2.765625,-0.4375 3.09375,-0.703125 C3.390625,-0.953125 3.5,-1.390625 3.578125,-1.875 C5.640625,-1.625 5.859375,-0.859375 5.859375,0.4375 L5.859375,8.78125 L9.09375,10.53125 L8.96875,10.875 L5.859375,9.796875 L5.859375,13.921875 L8.515625,13.921875 L8.71875,13.9375 L8.328125,13.703125 L8.5625,13.375 C9.125,13.578125 9.640625,13.84375 10.171875,14.140625 C11.0625,13.609375 12.09375,12.625 12.484375,11.828125 C13.84375,11.109375 14.609375,13.703125 10.65625,14.40625 C11.375,14.828125 12.078125,15.28125 12.71875,15.796875 C13.703125,15.265625 14.8125,14.40625 15.265625,13.6875 C16.703125,13.125 17.203125,15.75 13.203125,16.15625 L14.140625,16.9375 L19.3125,16.9375 C16.796875,13.265625 13.015625,10.78125 7.96875,9.03125 L8.203125,8.65625 C9.640625,9.03125 10.96875,9.453125 12.1875,9.90625 C11.5,8.65625 10.5625,7.3125 9.703125,6.4375 L9.984375,6.1875 C11.046875,6.8125 12.125,7.734375 13.03125,8.65625 L15.125,8.65625 L15.125,5.765625 L8.375,5.765625 L8.5625,5.046875 L15.125,5.046875 L15.125,0.390625 L11.640625,0.390625 L11.640625,3.046875 C12.21875,3.125 12.40625,3.34375 12.484375,3.671875 L10.109375,3.90625 L10.109375,-1.828125 L10.390625,-1.828125 C10.96875,-1.828125 11.640625,-1.484375 11.640625,-1.3125 L11.640625,-0.34375 L20.140625,-0.34375 L20.140625,-1.75 L20.421875,-1.75 C21.03125,-1.75 21.671875,-1.46875 21.671875,-1.265625 L21.671875,2.90625 C22.296875,3 22.515625,3.21875 22.578125,3.578125 L20.140625,3.8125 L20.140625,0.390625 L16.6875,0.390625 L16.6875,5.046875 L22.6875,5.046875 C23.015625,5.046875 23.234375,5.15625 23.28125,5.421875 C22.5625,6.140625 21.3125,7.109375 21.3125,7.109375 L20.25,5.765625 L16.6875,5.765625 L16.6875,8.65625 L21.328125,8.65625 C21.640625,8.65625 21.890625,8.78125 21.9375,9.03125 C21.21875,9.75 19.96875,10.734375 19.96875,10.734375 L18.90625,9.34375 L13.6875,9.34375 L14.328125,10.125 C14.921875,10.078125 15.09375,10.171875 15.1875,10.421875 L14.015625,10.734375 C17.109375,12.234375 19.4375,14.203125 21.28125,16.6875 C21.84375,16.703125 22.203125,16.796875 22.390625,16.984375 L20.546875,18.546875 L19.609375,17.640625 L14.875,17.640625 C15.3125,18.09375 15.71875,18.546875 16.078125,18.984375 C16.6875,18.890625 16.875,18.953125 16.96875,19.203125 L14.6875,20.09375 C13.484375,17.96875 11.25,15.640625 9,14.140625 C9.078125,14.15625 9.09375,14.234375 9.125,14.296875 C8.46875,15.03125 7.375,15.984375 7.375,15.984375 L6.390625,14.609375 L5.859375,14.609375 L5.859375,19.203125 C6.453125,19.265625 6.703125,19.515625 6.75,19.84375 L4.34375,20.109375 L4.34375,14.609375 L0.984375,14.609375 L1.171875,13.921875 L4.34375,13.921875 L4.34375,9.28125 C2.6875,8.765625 1.3125,8.328125 0.546875,8.140625 Z" transform="translate(0.0859375, 20.109375) scale(1, -1)"/>
</svg>