<svg height="22" viewBox="0 0 24 22" width="24" xmlns="http://www.w3.org/2000/svg">
<path d="M0.8125,7.6875 L1.828125,5.765625 C2.046875,5.859375 2.234375,6.078125 2.28125,6.390625 L4.34375,7.484375 L4.34375,0.546875 C4.34375,0.1875 4.21875,0.078125 3.8125,0.078125 C3.40625,0.078125 1.3125,0.21875 1.3125,0.21875 L1.3125,-0.171875 C2.25,-0.28125 2.765625,-0.453125 3.09375,-0.71875 C3.390625,-0.953125 3.5,-1.390625 3.578125,-1.875 C5.609375,-1.625 5.828125,-0.859375 5.828125,0.40625 L5.828125,8.328125 L8.859375,10.109375 L8.765625,10.4375 L5.828125,9.359375 L5.828125,14.234375 L8.828125,14.234375 C9.140625,14.234375 9.390625,14.359375 9.4375,14.609375 C8.8125,15.3125 7.6875,16.296875 7.6875,16.296875 L6.71875,14.953125 L5.828125,14.953125 L5.828125,19.203125 C6.40625,19.265625 6.640625,19.515625 6.71875,19.84375 L4.34375,20.109375 L4.34375,14.953125 L0.9375,14.953125 L1.125,14.234375 L4.34375,14.234375 L4.34375,8.828125 C2.8125,8.296875 1.53125,7.890625 0.8125,7.6875 Z M13.015625,19.171875 C12.625,18.765625 11.953125,18.125 11.328125,17.59375 L9.578125,18.09375 L9.578125,8.09375 L9.796875,8.09375 C10.578125,8.09375 11.046875,8.46875 11.0625,8.609375 L11.0625,9.765625 L14.828125,9.765625 L14.828125,7.375 L15.09375,7.375 C15.671875,7.375 16.296875,7.6875 16.296875,7.890625 L16.296875,9.765625 L20.15625,9.765625 L20.15625,8.453125 L20.375,8.453125 C20.875,8.453125 21.640625,8.8125 21.640625,8.953125 L21.640625,16.6875 C22.0625,16.75 22.4375,16.921875 22.5625,17.109375 L20.765625,18.5 L19.921875,17.59375 L17.0625,17.59375 L17.28125,16.890625 L20.15625,16.890625 L20.15625,14.015625 L17.015625,14.015625 L17.234375,13.3125 L20.15625,13.3125 L20.15625,10.46875 L16.296875,10.46875 L16.296875,19.171875 C16.84375,19.265625 17.046875,19.484375 17.09375,19.796875 L14.828125,20.046875 L14.828125,10.46875 L11.0625,10.46875 L11.0625,13.3125 L13.78125,13.3125 C14.109375,13.3125 14.328125,13.4375 14.375,13.6875 C13.84375,14.28125 13.015625,15.03125 13.015625,15.03125 L12.265625,14.015625 L11.0625,14.015625 L11.0625,16.921875 L11.359375,16.984375 L11.515625,17.046875 C12.484375,17.28125 13.4375,17.640625 13.984375,17.90625 C14.328125,17.8125 14.546875,17.859375 14.65625,18 Z M18.859375,6.078125 C18.09375,4.578125 17.015625,3.28125 15.640625,2.203125 C13.984375,3.1875 12.640625,4.46875 11.734375,6.078125 Z M8.328125,6.796875 L8.546875,6.078125 L11.15625,6.078125 C11.953125,4.15625 13.078125,2.609375 14.546875,1.421875 C12.546875,0.125 10.109375,-0.8125 7.203125,-1.46875 L7.34375,-1.875 C10.609375,-1.375 13.3125,-0.53125 15.484375,0.703125 C17.203125,-0.484375 19.296875,-1.3125 21.75,-1.890625 C21.953125,-1.109375 22.46875,-0.578125 23.15625,-0.453125 L23.15625,-0.21875 C20.828125,0.140625 18.671875,0.71875 16.84375,1.578125 C18.453125,2.734375 19.703125,4.171875 20.65625,5.875 C21.234375,5.875 21.53125,5.953125 21.703125,6.171875 L19.984375,7.734375 L18.9375,6.796875 Z" transform="translate(0.015625, 20.109375) scale(1, -1)"/>
</svg>