<svg height="22.890625" viewBox="0 0 24 22.890625" width="24" xmlns="http://www.w3.org/2000/svg">
<path d="M13.84375,17.828125 L13.6875,17.59375 C14.328125,17.140625 14.875,16.296875 15.046875,15.765625 C15.75,14.765625 16.796875,15.703125 16.296875,16.578125 C15.890625,17.234375 14.96875,17.640625 13.84375,17.828125 Z M18.5,2.71875 L18.234375,2.5 C18.796875,2.046875 19.421875,1.46875 19.96875,0.8125 L16.109375,0.671875 L16.109375,4.21875 L19.578125,4.21875 L19.578125,3.265625 L19.796875,3.265625 C20.328125,3.265625 21.09375,3.640625 21.125,3.8125 L21.125,7.921875 C21.484375,7.96875 21.796875,8.140625 21.90625,8.296875 L20.1875,9.625 L19.390625,8.8125 L16.109375,8.8125 L16.109375,10.34375 C16.625,10.421875 16.828125,10.609375 16.875,10.921875 L14.59375,11.15625 L14.59375,8.8125 L11.328125,8.8125 L9.71875,9.5 L9.71875,2.765625 L9.953125,2.765625 C10.5625,2.765625 11.203125,3.09375 11.203125,3.21875 L11.203125,4.21875 L14.59375,4.21875 L14.59375,0.625 C11.6875,0.53125 9.265625,0.484375 7.84375,0.484375 L8.765625,-1.5625 C9,-1.515625 9.234375,-1.375 9.390625,-1.078125 C14.15625,-0.546875 17.71875,-0.09375 20.375,0.3125 C20.921875,-0.359375 21.328125,-1.0625 21.546875,-1.6875 C23.25,-2.78125 24.28125,0.84375 18.5,2.71875 Z M19.109375,18.09375 C18.21875,16.625 16.9375,15.3125 15.390625,14.1875 C13.84375,15.171875 12.640625,16.4375 11.828125,18.09375 Z M8.90625,18.796875 L9.09375,18.09375 L11.28125,18.09375 C12,16.203125 13.03125,14.6875 14.375,13.515625 C12.453125,12.3125 10.171875,11.359375 7.6875,10.6875 L7.875,10.296875 C10.6875,10.84375 13.15625,11.6875 15.21875,12.8125 C17.046875,11.5 19.3125,10.65625 22.125,10.078125 C22.3125,10.78125 22.78125,11.25 23.421875,11.375 L23.453125,11.640625 C20.734375,11.96875 18.40625,12.578125 16.484375,13.5625 C18.3125,14.765625 19.796875,16.203125 20.921875,17.90625 C21.53125,17.921875 21.765625,18 21.953125,18.1875 L20.296875,19.734375 L19.265625,18.796875 Z M19.578125,8.09375 L19.578125,4.921875 L16.109375,4.921875 L16.109375,8.09375 Z M11.203125,4.921875 L11.203125,8.09375 L14.59375,8.09375 L14.59375,4.921875 Z M0.625,7.515625 L1.34375,5.453125 C1.578125,5.515625 1.796875,5.734375 1.875,6.046875 L4.578125,7.3125 L4.578125,0.578125 C4.578125,0.21875 4.46875,0.09375 4.0625,0.09375 C3.625,0.09375 1.53125,0.234375 1.53125,0.234375 L1.53125,-0.140625 C2.453125,-0.265625 3,-0.4375 3.3125,-0.703125 C3.59375,-0.953125 3.71875,-1.390625 3.796875,-1.875 C5.859375,-1.625 6.09375,-0.859375 6.09375,0.4375 L6.09375,8.046875 L9.53125,9.765625 L9.4375,10.109375 L6.09375,9.078125 L6.09375,13.921875 L8.90625,13.921875 L9,13.9375 C8.609375,13.265625 9.3125,12.59375 10.171875,13.109375 C11.140625,13.625 11.375,15.078125 10.890625,16.828125 L10.515625,16.828125 C10.515625,15.53125 9.90625,14.640625 9.453125,14.375 C8.765625,15.078125 7.6875,15.953125 7.6875,15.953125 L6.71875,14.609375 L6.09375,14.609375 L6.09375,19.203125 C6.671875,19.265625 6.90625,19.515625 6.984375,19.84375 L4.578125,20.109375 L4.578125,14.609375 L0.984375,14.609375 L1.171875,13.921875 L4.578125,13.921875 L4.578125,8.609375 C2.828125,8.09375 1.421875,7.6875 0.625,7.515625 Z" transform="translate(-0.453125, 20.109375) scale(1, -1)"/>
</svg>