<svg height="21.984375" viewBox="0 0 24 21.984375" width="24" xmlns="http://www.w3.org/2000/svg">
<path d="M0.703125,7.484375 L1.5625,5.5 C1.796875,5.5625 1.984375,5.78125 2.0625,6.09375 L4.34375,7.25 L4.34375,0.578125 C4.34375,0.21875 4.21875,0.09375 3.8125,0.09375 C3.40625,0.09375 1.3125,0.234375 1.3125,0.234375 L1.3125,-0.140625 C2.25,-0.265625 2.765625,-0.4375 3.09375,-0.703125 C3.390625,-0.953125 3.5,-1.390625 3.578125,-1.875 C5.640625,-1.625 5.859375,-0.859375 5.859375,0.4375 L5.859375,8.046875 L9.1875,9.8125 L9.078125,10.15625 L5.859375,9.078125 L5.859375,13.921875 L8.515625,13.921875 L8.59375,13.921875 C8.28125,13.484375 7.9375,13.078125 7.578125,12.71875 L7.828125,12.40625 C8.734375,13.03125 9.546875,13.796875 10.265625,14.640625 L10.265625,6.984375 L10.484375,6.984375 C11.234375,6.984375 11.734375,7.390625 11.734375,7.515625 L11.734375,8.375 L22.171875,8.375 C22.515625,8.375 22.75,8.5 22.828125,8.765625 C22.078125,9.453125 20.859375,10.390625 20.859375,10.390625 L19.796875,9.078125 L16.75,9.078125 L16.75,11.0625 L21.1875,11.0625 C21.53125,11.0625 21.71875,11.1875 21.796875,11.453125 C21.125,12.09375 20.015625,12.953125 20.015625,12.953125 L19.078125,11.765625 L16.75,11.765625 L16.75,13.625 L21.171875,13.625 C21.5,13.625 21.703125,13.75 21.765625,14.015625 C21.09375,14.65625 19.984375,15.53125 19.984375,15.53125 L19.0625,14.328125 L16.75,14.328125 L16.75,16.21875 L21.9375,16.21875 C22.265625,16.21875 22.515625,16.34375 22.5625,16.609375 C21.859375,17.28125 20.6875,18.21875 20.6875,18.21875 L19.6875,16.890625 L15.84375,16.890625 C16.4375,17.5625 17.046875,18.3125 17.421875,18.953125 C17.921875,18.984375 18.21875,19.21875 18.28125,19.515625 L15.9375,19.9375 C15.75,19.03125 15.40625,17.828125 15.09375,16.890625 L12.03125,16.890625 L11.90625,16.9375 C12.28125,17.59375 12.625,18.234375 12.859375,18.84375 C13.4375,18.8125 13.625,18.9375 13.75,19.203125 L11.375,19.984375 C10.96875,18.3125 10.125,16.21875 8.96875,14.46875 C8.328125,15.171875 7.375,15.984375 7.375,15.984375 L6.390625,14.609375 L5.859375,14.609375 L5.859375,19.203125 C6.453125,19.265625 6.703125,19.515625 6.75,19.84375 L4.34375,20.109375 L4.34375,14.609375 L0.984375,14.609375 L1.171875,13.921875 L4.34375,13.921875 L4.34375,8.59375 C2.765625,8.0625 1.4375,7.65625 0.703125,7.484375 Z M11.734375,16.21875 L15.234375,16.21875 L15.234375,14.328125 L11.734375,14.328125 Z M11.734375,13.625 L15.234375,13.625 L15.234375,11.765625 L11.734375,11.765625 Z M11.734375,11.0625 L15.234375,11.0625 L15.234375,9.078125 L11.734375,9.078125 Z M8.40625,6.640625 L8.609375,5.921875 L12,5.921875 C11.8125,3.4375 11.09375,0.765625 6.859375,-1.46875 L7.15625,-1.828125 C12.265625,0.265625 13.3125,3.125 13.65625,5.921875 L16.9375,5.921875 C16.75,4.9375 16.46875,3.640625 16.171875,2.609375 C16.84375,2.5 17.28125,2.515625 17.640625,2.65625 L17.90625,3.671875 L20.734375,3.671875 C20.515625,1.796875 20.15625,0.4375 19.734375,0.09375 C19.53125,-0.046875 19.3125,-0.09375 18.890625,-0.09375 C18.390625,-0.09375 16.484375,0.078125 15.40625,0.171875 L15.40625,-0.265625 C16.375,-0.390625 17.40625,-0.59375 17.765625,-0.8125 C18.125,-1.0625 18.21875,-1.484375 18.21875,-1.875 C19.171875,-1.875 20.015625,-1.65625 20.5625,-1.296875 C21.453125,-0.671875 21.984375,1.078125 22.21875,3.5 C22.703125,3.546875 22.984375,3.640625 23.15625,3.84375 L21.40625,5.234375 L20.5625,4.34375 L18.078125,4.34375 L18.390625,5.65625 C18.84375,5.71875 19.25,5.859375 19.421875,6.03125 L17.609375,7.484375 L16.875,6.640625 Z" transform="translate(0.0703125, 20.109375) scale(1, -1)"/>
</svg>