<svg height="22.015625" viewBox="0 0 24 22.015625" width="24" xmlns="http://www.w3.org/2000/svg">
<path d="M17.65625,17.203125 L17.421875,16.984375 C18.046875,16.625 18.703125,15.90625 18.90625,15.3125 C20.0625,14.59375 21,16.78125 17.65625,17.203125 Z M10.0625,5.296875 L11.015625,3.640625 C11.234375,3.71875 11.40625,3.890625 11.5,4.171875 C13.0625,4.84375 14.234375,5.40625 15,5.765625 L14.921875,6.125 C13.015625,5.734375 10.96875,5.40625 10.0625,5.296875 Z M0.84375,7.6875 L1.84375,5.765625 C2.0625,5.859375 2.25,6.09375 2.296875,6.390625 L3.859375,7.3125 L3.859375,0.5 C3.859375,0.171875 3.75,0.046875 3.359375,0.046875 C2.96875,0.046875 1.078125,0.21875 1.078125,0.21875 L1.078125,-0.1875 C1.9375,-0.3125 2.40625,-0.453125 2.71875,-0.71875 C2.96875,-0.984375 3.078125,-1.390625 3.125,-1.875 C5.09375,-1.65625 5.328125,-0.890625 5.328125,0.359375 L5.328125,8.203125 L7.96875,9.859375 L7.828125,10.203125 L5.328125,9.234375 L5.328125,14.234375 L7.984375,14.234375 L8.0625,14.234375 L8.0625,-1.921875 L8.359375,-1.921875 C9.03125,-1.921875 9.546875,-1.53125 9.546875,-1.3125 L9.546875,-0.046875 L20.546875,-0.046875 L20.546875,-1.65625 L20.765625,-1.65625 C21.28125,-1.65625 22.015625,-1.25 22.03125,-1.0625 L22.03125,17.40625 C22.53125,17.5 22.984375,17.71875 23.15625,17.921875 L21.171875,19.484375 L20.28125,18.453125 L9.671875,18.453125 L8.0625,19.25 L8.0625,15.171875 L6.90625,16.203125 L5.96875,14.953125 L5.328125,14.953125 L5.328125,19.203125 C5.90625,19.265625 6.140625,19.515625 6.1875,19.84375 L3.859375,20.09375 L3.859375,14.953125 L0.984375,14.953125 L1.171875,14.234375 L3.859375,14.234375 L3.859375,8.71875 C2.546875,8.234375 1.46875,7.84375 0.84375,7.6875 Z M9.546875,0.640625 L9.546875,17.765625 L20.546875,17.765625 L20.546875,0.640625 Z M15.078125,17.15625 L15.09375,14.328125 L10.078125,14.328125 L10.265625,13.625 L15.125,13.625 C15.1875,10.890625 15.40625,8.40625 15.953125,6.265625 C14.609375,4.171875 12.9375,2.5625 11.046875,1.46875 L11.328125,1.109375 C13.25,1.984375 14.953125,3.265625 16.34375,4.984375 C16.6875,4.0625 17.109375,3.171875 17.65625,2.40625 C18.234375,1.609375 19.34375,0.984375 19.796875,1.515625 C20.015625,1.734375 19.9375,2.046875 19.46875,2.8125 L19.75,5.875 L19.484375,5.90625 C19.265625,5.140625 18.984375,4.203125 18.765625,3.75 C18.59375,3.3125 18.53125,3.28125 18.3125,3.640625 C17.828125,4.34375 17.453125,5.203125 17.1875,6.140625 C18.125,7.5625 18.890625,9.1875 19.46875,11.09375 C19.984375,11.046875 20.25,11.25 20.359375,11.5625 L18.40625,12.171875 C18.03125,10.53125 17.46875,9.078125 16.828125,7.75 C16.484375,9.546875 16.390625,11.59375 16.375,13.625 L19.78125,13.625 C20.09375,13.625 20.328125,13.75 20.375,14.015625 C19.75,14.609375 18.796875,15.40625 18.796875,15.40625 L17.90625,14.328125 L16.375,14.328125 L16.390625,16.296875 C16.921875,16.375 17.109375,16.65625 17.15625,16.890625 Z M10.625,11.875 L10.625,6.484375 L10.78125,6.484375 C11.234375,6.484375 11.734375,6.765625 11.734375,6.859375 L11.734375,7.75 L13.375,7.75 L13.375,6.984375 L13.53125,6.984375 C13.890625,6.984375 14.46875,7.296875 14.46875,7.4375 L14.46875,11.09375 C14.8125,11.140625 15.125,11.296875 15.21875,11.453125 L13.828125,12.5 L13.203125,11.875 L11.828125,11.875 L10.625,12.4375 Z M11.734375,8.46875 L11.734375,11.15625 L13.375,11.15625 L13.375,8.46875 Z" transform="translate(0, 20.09375) scale(1, -1)"/>
</svg>