<svg height="22" viewBox="0 0 24 22" width="24" xmlns="http://www.w3.org/2000/svg">
<path d="M11.015625,13.421875 L11.015625,9.265625 L11.25,9.265625 C11.65625,9.265625 12.171875,9.578125 12.171875,9.75 L12.171875,12.671875 C12.625,12.75 12.796875,12.9375 12.84375,13.21875 Z M6.1875,13.375 C6.171875,12.265625 6.125,10.484375 4.890625,9 L5.28125,8.640625 C7.109375,9.953125 7.296875,11.78125 7.421875,12.640625 C7.828125,12.703125 8.046875,12.953125 8.0625,13.203125 Z M14.328125,13.375 C14.296875,12 14.234375,10.4375 12.75,9.125 L13.109375,8.765625 C15.234375,9.9375 15.359375,11.5625 15.484375,12.640625 C15.90625,12.703125 16.125,12.953125 16.15625,13.203125 Z M19.125,13.375 L19.125,10.875 C19.125,9.640625 19.3125,9.265625 20.421875,9.265625 L21.28125,9.265625 C22.296875,9.265625 22.703125,9.578125 22.703125,10.125 C22.703125,10.34375 22.625,10.421875 22.21875,10.578125 L22.203125,11.78125 L21.859375,11.78125 C21.75,11.1875 21.59375,10.703125 21.5,10.5625 C21.40625,10.390625 21.328125,10.390625 21.234375,10.390625 L20.546875,10.390625 C20.328125,10.390625 20.359375,10.46875 20.359375,10.890625 L20.359375,12.59375 C20.65625,12.640625 20.953125,12.84375 20.96875,13.125 Z M2.8125,17.609375 L2.8125,11.359375 C2.8125,7.015625 2.6875,2.25 0.765625,-1.578125 L1.125,-1.828125 C4.203125,1.96875 4.34375,7.34375 4.34375,11.375 L4.34375,16.921875 L22.390625,16.921875 C22.734375,16.921875 22.96875,17.046875 23.046875,17.296875 C22.21875,18.046875 20.90625,19.078125 20.90625,19.078125 L19.75,17.609375 L13.125,17.609375 L13.125,19.21875 C13.703125,19.3125 13.9375,19.5625 13.984375,19.890625 L11.59375,20.109375 L11.59375,17.609375 L4.609375,17.609375 L2.8125,18.40625 Z M16.484375,16.578125 L16.484375,14.734375 L13.46875,14.734375 L13.65625,14.015625 L16.484375,14.015625 L16.484375,8.828125 C13.9375,8.140625 9.953125,7.421875 6.59375,7.15625 L6.703125,6.671875 C8.609375,6.703125 10.625,6.84375 12.53125,7.015625 L12.53125,5.28125 L5.78125,5.28125 L5.953125,4.5625 L12.53125,4.5625 L12.53125,2.875 L4.125,2.875 L4.3125,2.1875 L12.53125,2.1875 L12.53125,0.390625 C12.53125,0.046875 12.4375,-0.078125 11.96875,-0.078125 C11.46875,-0.078125 8.96875,0.125 8.96875,0.125 L8.96875,-0.265625 C10.109375,-0.390625 10.734375,-0.546875 11.09375,-0.796875 C11.40625,-1.03125 11.546875,-1.4375 11.5625,-1.890625 C13.78125,-1.6875 14.0625,-0.84375 14.0625,0.34375 L14.0625,2.1875 L22.109375,2.1875 C22.4375,2.1875 22.65625,2.296875 22.734375,2.5625 C22.015625,3.21875 20.90625,4.125 20.90625,4.125 L19.875,2.875 L14.0625,2.875 L14.0625,4.5625 L20.0625,4.5625 C20.40625,4.5625 20.640625,4.6875 20.6875,4.9375 C19.984375,5.609375 18.890625,6.484375 18.890625,6.484375 L17.90625,5.28125 L14.0625,5.28125 L14.0625,7.171875 C15.453125,7.34375 16.734375,7.53125 17.78125,7.734375 C18.3125,7.515625 18.703125,7.515625 18.890625,7.6875 L17.609375,8.921875 C17.78125,9.03125 17.875,9.09375 17.875,9.171875 L17.875,14.015625 L21.953125,14.015625 C22.265625,14.015625 22.515625,14.140625 22.5625,14.40625 C21.90625,15.046875 20.859375,15.90625 20.859375,15.90625 L19.921875,14.734375 L17.875,14.734375 L17.875,15.8125 C18.3125,15.90625 18.5,16.109375 18.546875,16.34375 Z M8.421875,16.578125 L8.421875,14.734375 L5.046875,14.734375 L5.234375,14.015625 L8.421875,14.015625 L8.421875,8.453125 L8.6875,8.453125 C9.1875,8.453125 9.796875,8.765625 9.796875,8.921875 L9.796875,14.015625 L12.71875,14.015625 C13.03125,14.015625 13.265625,14.140625 13.3125,14.40625 C12.71875,15.03125 11.734375,15.84375 11.734375,15.84375 L10.875,14.734375 L9.796875,14.734375 L9.796875,15.8125 C10.21875,15.90625 10.421875,16.109375 10.46875,16.34375 Z" transform="translate(0.09375, 20.109375) scale(1, -1)"/>
</svg>