<svg height="22.046875" viewBox="0 0 24 22.046875" width="24" xmlns="http://www.w3.org/2000/svg">
<path d="M16.203125,17.25 L15.984375,16.96875 C17.09375,16.25 17.734375,15.03125 18.171875,14.25 C19.484375,13.34375 20.25,16.46875 16.203125,17.25 Z M8.765625,17.234375 L8.59375,16.9375 C9.796875,16.296875 10.578125,15.140625 11.0625,14.375 C12.5,13.5625 12.984375,16.75 8.765625,17.234375 Z M15.3125,11.875 L16.3125,10.21875 C16.53125,10.34375 16.6875,10.578125 16.703125,10.875 C18.28125,12.046875 19.578125,13.125 20.546875,13.921875 L20.546875,11.734375 C20.546875,11.453125 20.46875,11.328125 20.109375,11.328125 C19.734375,11.328125 18.09375,11.453125 18.09375,11.453125 L18.09375,11.0625 C18.859375,10.9375 19.3125,10.78125 19.578125,10.5625 C19.828125,10.3125 19.890625,9.9375 19.921875,9.53125 C21.765625,9.703125 22.015625,10.421875 22.015625,11.5625 L22.015625,17.59375 C22.484375,17.6875 22.890625,17.875 23.046875,18.046875 L21.078125,19.53125 L20.296875,18.578125 L15.453125,18.578125 L15.671875,17.875 L20.546875,17.875 L20.546875,14.5 C18.359375,13.34375 16.21875,12.28125 15.3125,11.875 Z M9.40625,8.421875 L9.40625,-1.9375 L9.640625,-1.9375 C10.421875,-1.9375 10.890625,-1.609375 10.890625,-1.46875 L10.890625,-0.234375 L19.390625,-0.234375 L19.390625,-1.6875 L19.625,-1.6875 C20.359375,-1.6875 20.953125,-1.296875 20.953125,-1.21875 L20.953125,6.8125 C21.4375,6.90625 21.671875,7.03125 21.84375,7.21875 L20.09375,8.59375 L19.3125,7.625 L14.328125,7.625 C14.828125,8.203125 15.359375,8.875 15.71875,9.390625 C16.21875,9.390625 16.515625,9.578125 16.609375,9.90625 L14.328125,10.34375 C14.46875,10.65625 14.5,11.015625 14.5,11.46875 L14.5,17.640625 C14.96875,17.71875 15.390625,17.90625 15.53125,18.078125 L13.578125,19.53125 L12.8125,18.625 L7.890625,18.625 L8.109375,17.90625 L13.0625,17.90625 L13.0625,14.1875 C10.921875,13.03125 8.875,12.03125 7.984375,11.609375 L9.03125,9.953125 C9.265625,10.078125 9.390625,10.3125 9.40625,10.609375 C10.875,11.765625 12.09375,12.796875 13.0625,13.5625 L13.0625,11.59375 C13.0625,11.328125 12.984375,11.203125 12.625,11.203125 C12.234375,11.203125 10.609375,11.328125 10.609375,11.328125 L10.609375,10.9375 C11.375,10.828125 11.828125,10.625 12.09375,10.4375 C12.34375,10.203125 12.40625,9.8125 12.453125,9.40625 C13.21875,9.484375 13.703125,9.640625 13.984375,9.90625 C13.875,9.1875 13.6875,8.296875 13.515625,7.625 L11.1875,7.625 Z M10.890625,0.484375 L10.890625,3.4375 L19.390625,3.4375 L19.390625,0.484375 Z M10.890625,4.15625 L10.890625,6.9375 L19.390625,6.9375 L19.390625,4.15625 Z M7.3125,15.9375 L6.40625,14.71875 L5.765625,14.71875 L5.765625,19.21875 C6.34375,19.296875 6.578125,19.515625 6.640625,19.84375 L4.25,20.109375 L4.25,14.71875 L1.03125,14.71875 L1.21875,14.015625 L4.25,14.015625 L4.25,8.90625 C2.765625,8.296875 1.53125,7.828125 0.859375,7.609375 L1.796875,5.6875 C2.015625,5.78125 2.1875,6.046875 2.234375,6.34375 L4.25,7.578125 L4.25,0.59375 C4.25,0.28125 4.125,0.171875 3.765625,0.171875 C3.34375,0.171875 1.375,0.34375 1.375,0.34375 L1.375,-0.046875 C2.25,-0.1875 2.765625,-0.359375 3.078125,-0.640625 C3.34375,-0.90625 3.453125,-1.34375 3.5,-1.84375 C5.5,-1.625 5.765625,-0.84375 5.765625,0.453125 L5.765625,8.546875 L8.28125,10.21875 L8.1875,10.5625 L5.765625,9.53125 L5.765625,14.015625 L8.40625,14.015625 C8.734375,14.015625 8.953125,14.140625 9.03125,14.40625 C8.40625,15.078125 7.3125,15.9375 7.3125,15.9375 Z" transform="translate(0.046875, 20.109375) scale(1, -1)"/>
</svg>