<svg height="21.984375" viewBox="0 0 24 21.984375" width="24" xmlns="http://www.w3.org/2000/svg">
<path d="M9.265625,18.4375 C9.3125,17.6875 8.90625,16.703125 8.453125,16.34375 C8.0625,16.0625 7.84375,15.59375 8.09375,15.265625 C8.359375,14.875 9,15.03125 9.3125,15.3125 C9.796875,15.84375 10.078125,16.96875 9.703125,18.4375 Z M16.484375,18.4375 C16.5625,17.59375 16.125,16.515625 15.703125,16.109375 C15.28125,15.796875 15.125,15.359375 15.34375,15 C15.625,14.59375 16.3125,14.765625 16.609375,15.09375 C17.0625,15.640625 17.296875,16.84375 16.890625,18.40625 Z M13.796875,18.40625 C13.65625,17.6875 13.21875,16.375 12.890625,15.5 L13.203125,15.359375 C13.796875,16.03125 14.46875,16.78125 14.828125,17.28125 C15.3125,17.234375 15.578125,17.46875 15.625,17.65625 Z M21.453125,18.484375 C21.21875,17.765625 20.640625,16.34375 20.1875,15.453125 L20.46875,15.28125 C21.21875,15.953125 21.984375,16.734375 22.4375,17.234375 C22.890625,17.140625 23.1875,17.359375 23.234375,17.546875 Z M0.84375,7.890625 L1.78125,5.953125 C1.984375,6.046875 2.1875,6.3125 2.203125,6.59375 L3.953125,7.609375 L3.953125,0.546875 C3.953125,0.1875 3.859375,0.078125 3.453125,0.078125 C3.03125,0.078125 0.9375,0.21875 0.9375,0.21875 L0.9375,-0.171875 C1.875,-0.28125 2.40625,-0.453125 2.71875,-0.71875 C3,-0.953125 3.125,-1.390625 3.1875,-1.875 C5.234375,-1.625 5.46875,-0.859375 5.46875,0.40625 L5.46875,8.515625 L8.25,10.296875 L8.109375,10.578125 L5.46875,9.578125 L5.46875,13.796875 L8.15625,13.796875 C8.5,13.796875 8.71875,13.921875 8.78125,14.1875 C8.109375,14.90625 7.015625,15.859375 7.015625,15.859375 L6.03125,14.515625 L5.46875,14.515625 L5.46875,19.203125 C6.046875,19.265625 6.28125,19.515625 6.34375,19.84375 L3.953125,20.109375 L3.953125,14.515625 L0.953125,14.515625 L1.15625,13.796875 L3.953125,13.796875 L3.953125,9 C2.59375,8.5 1.46875,8.09375 0.84375,7.890625 Z M11.15625,19.828125 L11.15625,18.125 C11.15625,16.0625 10.578125,13.3125 7.734375,11.546875 L8.046875,11.203125 C10.0625,12.125 11.15625,13.375 11.78125,14.6875 C12.484375,14.015625 13.21875,13.109375 13.515625,12.359375 C14.78125,11.515625 15.796875,13.875 11.953125,15.09375 C12.359375,16.125 12.484375,17.1875 12.5,18.078125 L12.5,18.984375 C13.078125,19.0625 13.265625,19.296875 13.296875,19.578125 Z M18.28125,19.828125 L18.28125,17.328125 C18.28125,15.359375 17.734375,13.109375 14.875,11.609375 L15.125,11.25 C17.328125,12.125 18.484375,13.3125 19.078125,14.59375 C20.109375,13.796875 21.3125,12.671875 21.703125,11.734375 C23.140625,10.875 23.90625,13.6875 19.265625,15.046875 C19.53125,15.796875 19.625,16.5625 19.625,17.28125 L19.625,18.953125 C20.203125,19.0625 20.375,19.265625 20.421875,19.578125 Z M9.390625,11.71875 C9.3125,10.375 8.5625,9.125 8.109375,8.734375 C6.9375,7.734375 8.0625,6.640625 9.09375,7.484375 C9.671875,7.96875 9.984375,8.828125 10.015625,9.84375 L20.328125,9.84375 C20.109375,9.140625 19.796875,8.28125 19.578125,7.734375 L19.921875,7.5625 C20.59375,8.0625 21.546875,8.953125 22.078125,9.578125 C22.515625,9.625 22.796875,9.640625 22.984375,9.84375 L21.21875,11.515625 L20.28125,10.53125 L9.953125,10.53125 C9.9375,10.921875 9.859375,11.296875 9.765625,11.71875 Z M13.296875,9.390625 C13.25,8.296875 13.203125,7.265625 13.0625,6.34375 L8.203125,6.34375 L8.421875,5.609375 L12.9375,5.609375 C12.359375,2.78125 10.84375,0.578125 6.546875,-1.375 L6.8125,-1.84375 C12.28125,0.09375 13.890625,2.546875 14.5,5.609375 L19.4375,5.609375 C19.15625,2.6875 18.625,0.703125 18.09375,0.234375 C17.859375,0.046875 17.640625,0 17.203125,0 C16.703125,0 15.125,0.171875 14.1875,0.234375 L14.1875,-0.1875 C15.03125,-0.3125 15.90625,-0.5 16.21875,-0.75 C16.5625,-0.984375 16.65625,-1.390625 16.65625,-1.796875 C17.546875,-1.828125 18.40625,-1.578125 18.984375,-1.109375 C19.96875,-0.359375 20.640625,1.96875 20.921875,5.46875 C21.40625,5.515625 21.703125,5.609375 21.84375,5.78125 L20.09375,7.25 L19.25,6.34375 L14.640625,6.34375 C14.734375,7.03125 14.8125,7.75 14.859375,8.515625 C15.359375,8.5625 15.59375,8.828125 15.640625,9.125 Z" transform="translate(-0.375, 20.109375) scale(1, -1)"/>
</svg>