<svg height="22" viewBox="0 0 24 22" width="24" xmlns="http://www.w3.org/2000/svg">
<path d="M9.953125,19.703125 L9.671875,19.5625 C10.3125,18.671875 11.140625,17.28125 11.28125,16.21875 C12.703125,15.046875 14.140625,17.921875 9.953125,19.703125 Z M13.703125,19.96875 L13.421875,19.875 C14.015625,18.984375 14.6875,17.5625 14.78125,16.46875 C16.15625,15.21875 17.6875,18.09375 13.703125,19.96875 Z M9.75,16.78125 C9.703125,15.9375 9.390625,15.234375 9,14.734375 C8.359375,15.40625 7.34375,16.296875 7.34375,16.296875 L6.390625,14.953125 L5.828125,14.953125 L5.828125,19.203125 C6.40625,19.265625 6.640625,19.515625 6.71875,19.84375 L4.34375,20.109375 L4.34375,14.953125 L1.015625,14.953125 L1.203125,14.234375 L4.34375,14.234375 L4.34375,8.734375 C2.8125,8.234375 1.53125,7.84375 0.8125,7.6875 L1.625,5.6875 C1.875,5.765625 2.0625,6 2.15625,6.28125 L4.34375,7.390625 L4.34375,0.546875 C4.34375,0.1875 4.21875,0.078125 3.8125,0.078125 C3.40625,0.078125 1.3125,0.21875 1.3125,0.21875 L1.3125,-0.171875 C2.25,-0.28125 2.765625,-0.453125 3.09375,-0.71875 C3.390625,-0.953125 3.5,-1.390625 3.578125,-1.875 C5.609375,-1.625 5.828125,-0.859375 5.828125,0.40625 L5.828125,8.1875 L8.90625,9.859375 L8.8125,10.203125 L5.828125,9.21875 L5.828125,14.234375 L8.515625,14.234375 L8.59375,14.234375 L8.234375,13.9375 C6.9375,13.0625 7.96875,11.8125 9.140625,12.578125 C9.84375,13.015625 10.25,13.828125 10.3125,14.859375 L20.46875,14.859375 L19.796875,13.203125 L19.3125,13.5625 L18.453125,12.625 L11.875,12.625 L10.25,13.375 L10.25,3.03125 L10.46875,3.03125 C11.109375,3.03125 11.765625,3.390625 11.765625,3.546875 L11.765625,4.15625 L12.71875,4.15625 C12.140625,1.375 10.53125,-0.28125 7.078125,-1.515625 L7.21875,-1.890625 C11.375,-0.9375 13.625,0.765625 14.421875,4.15625 L16.25,4.15625 L16.25,-0.078125 C16.25,-1.078125 16.484375,-1.4375 18.03125,-1.4375 L19.78125,-1.4375 C22.484375,-1.4375 23.109375,-1.15625 23.109375,-0.53125 C23.109375,-0.234375 23.015625,-0.046875 22.5625,0.140625 L22.484375,2.8125 L22.171875,2.8125 C21.9375,1.65625 21.671875,0.53125 21.53125,0.1875 C21.4375,0 21.359375,-0.046875 21.171875,-0.078125 C20.953125,-0.078125 20.421875,-0.078125 19.828125,-0.078125 L18.390625,-0.078125 C17.8125,-0.078125 17.765625,-0.03125 17.765625,0.265625 L17.765625,4.15625 L18.703125,4.15625 L18.703125,3.171875 L18.9375,3.171875 C19.4375,3.171875 20.203125,3.53125 20.234375,3.703125 L20.234375,11.65625 C20.6875,11.765625 21.078125,11.953125 21.21875,12.09375 L20.140625,12.9375 C20.734375,13.375 21.71875,14.140625 22.265625,14.59375 C22.703125,14.609375 22.984375,14.65625 23.15625,14.828125 L21.4375,16.515625 L20.46875,15.546875 L17.953125,15.546875 C19.015625,16.578125 20.0625,17.828125 20.71875,18.84375 C21.234375,18.796875 21.53125,18.984375 21.640625,19.265625 L19.265625,20.015625 C18.8125,18.671875 18.03125,16.890625 17.25,15.546875 L10.3125,15.546875 C10.296875,15.9375 10.21875,16.34375 10.125,16.75 Z M11.765625,9.28125 L18.703125,9.28125 L18.703125,7.421875 L11.765625,7.421875 Z M11.765625,10.015625 L11.765625,11.921875 L18.703125,11.921875 L18.703125,10.015625 Z M11.765625,6.71875 L18.703125,6.71875 L18.703125,4.828125 L11.765625,4.828125 Z" transform="translate(0.015625, 20.109375) scale(1, -1)"/>
</svg>