<svg height="22.609375" viewBox="0 0 24 22.609375" width="24" xmlns="http://www.w3.org/2000/svg">
<path d="M16.390625,2.6875 L16.15625,2.453125 C17.765625,1.4375 20.046875,-0.40625 20.921875,-1.734375 C22.796875,-2.5 23.28125,1.109375 16.390625,2.6875 Z M14.234375,1.75 L12.140625,2.90625 C11.140625,1.421875 9,-0.484375 6.9375,-1.5625 L7.203125,-1.890625 C9.625,-1.15625 12.03125,0.265625 13.34375,1.53125 C13.875,1.390625 14.0625,1.515625 14.234375,1.75 Z M8.875,19.609375 L8.875,14.8125 C8.234375,15.453125 7.390625,16.15625 7.390625,16.15625 L6.4375,14.828125 L6,14.828125 L6,19.21875 C6.578125,19.296875 6.8125,19.515625 6.890625,19.84375 L4.484375,20.109375 L4.484375,14.828125 L1.078125,14.828125 L1.265625,14.140625 L4.484375,14.140625 L4.484375,8.78125 C3,8.015625 1.78125,7.390625 1.109375,7.109375 L2.15625,5.234375 C2.375,5.375 2.515625,5.640625 2.546875,5.921875 L4.484375,7.34375 L4.484375,0.640625 C4.484375,0.28125 4.390625,0.171875 3.953125,0.171875 C3.5,0.171875 1.296875,0.359375 1.296875,0.359375 L1.296875,-0.046875 C2.28125,-0.1875 2.828125,-0.359375 3.171875,-0.640625 C3.484375,-0.90625 3.578125,-1.34375 3.640625,-1.84375 C5.765625,-1.625 6,-0.8125 6,0.484375 L6,8.5 L8.734375,10.65625 L8.5625,10.96875 L6,9.59375 L6,14.140625 L8.5625,14.140625 C8.6875,14.140625 8.78125,14.15625 8.875,14.203125 L8.875,12.359375 C8.875,11.40625 9.125,11.046875 10.5625,11.046875 L12.21875,11.046875 C14.8125,11.046875 15.4375,11.328125 15.4375,11.90625 C15.4375,12.171875 15.265625,12.34375 14.8125,12.484375 L14.734375,13.984375 L14.46875,13.984375 C14.296875,13.375 14.09375,12.671875 13.96875,12.484375 C13.875,12.390625 13.78125,12.359375 13.609375,12.34375 C13.390625,12.34375 12.890625,12.34375 12.265625,12.34375 L10.890625,12.34375 C10.3125,12.34375 10.25,12.40625 10.25,12.703125 L10.25,15 L13.390625,15 L13.390625,14.234375 L13.578125,14.234375 C14.046875,14.234375 14.6875,14.546875 14.71875,14.6875 L14.71875,18.03125 C15.140625,18.09375 15.5,18.265625 15.59375,18.4375 L13.9375,19.734375 L13.171875,18.90625 L10.53125,18.90625 L8.875,19.65625 Z M16.78125,4.03125 L13.265625,4.03125 L13.265625,7.25 L16.78125,7.25 Z M20.453125,9.21875 L19.46875,7.96875 L18.265625,7.96875 L18.265625,9.640625 C18.765625,9.71875 18.984375,9.9375 19.03125,10.21875 L16.78125,10.46875 L16.78125,7.96875 L13.265625,7.96875 L13.265625,9.640625 C13.796875,9.71875 13.984375,9.9375 14.046875,10.21875 L11.78125,10.46875 L11.78125,7.96875 L8.421875,7.96875 L8.609375,7.25 L11.78125,7.25 L11.78125,4.03125 L7.625,4.03125 L7.828125,3.3125 L22.484375,3.3125 C22.828125,3.3125 23.046875,3.4375 23.09375,3.703125 C22.390625,4.390625 21.234375,5.296875 21.234375,5.296875 L20.234375,4.03125 L18.265625,4.03125 L18.265625,7.25 L21.640625,7.25 C21.984375,7.25 22.203125,7.375 22.25,7.625 C21.578125,8.296875 20.453125,9.21875 20.453125,9.21875 Z M17.28125,18.21875 L20.40625,18.21875 L20.40625,15.765625 L17.28125,15.765625 Z M15.90625,19.625 L15.90625,12.359375 C15.90625,11.375 16.171875,11.015625 17.640625,11.015625 L19.421875,11.015625 C22.125,11.015625 22.75,11.28125 22.75,11.875 C22.75,12.140625 22.609375,12.3125 22.125,12.453125 L22.0625,14.015625 L21.765625,14.015625 C21.59375,13.375 21.40625,12.640625 21.265625,12.453125 C21.1875,12.34375 21.078125,12.3125 20.90625,12.3125 C20.6875,12.28125 20.140625,12.28125 19.46875,12.28125 L17.953125,12.28125 C17.359375,12.28125 17.28125,12.359375 17.28125,12.671875 L17.28125,15.046875 L20.40625,15.046875 L20.40625,14.140625 L20.609375,14.140625 C21.046875,14.140625 21.71875,14.46875 21.75,14.609375 L21.75,18.03125 C22.171875,18.09375 22.53125,18.28125 22.65625,18.4375 L20.953125,19.75 L20.1875,18.9375 L17.5625,18.9375 L15.90625,19.6875 Z M10.25,18.1875 L13.390625,18.1875 L13.390625,15.71875 L10.25,15.71875 Z" transform="translate(-0.1796875, 20.109375) scale(1, -1)"/>
</svg>