<svg height="22.015625" viewBox="0 0 24 22.015625" width="24" xmlns="http://www.w3.org/2000/svg">
<path d="M12.453125,6.71875 L12.640625,6 L20.59375,6 C20.90625,6 21.125,6.125 21.1875,6.390625 C20.59375,6.984375 19.65625,7.734375 19.65625,7.734375 L18.796875,6.71875 Z M12.484375,4.78125 L12.671875,4.078125 L20.609375,4.078125 C20.921875,4.078125 21.140625,4.203125 21.21875,4.46875 C20.609375,5.046875 19.65625,5.78125 19.65625,5.78125 L18.8125,4.78125 Z M10.9375,8.65625 L11.140625,7.9375 L22.421875,7.9375 C22.75,7.9375 22.984375,8.0625 23.046875,8.328125 C22.390625,8.921875 21.40625,9.71875 21.40625,9.71875 L20.515625,8.65625 Z M0.8125,7.6875 L1.6875,5.71875 C1.890625,5.8125 2.09375,6.078125 2.140625,6.359375 L3.953125,7.421875 L3.953125,0.546875 C3.953125,0.1875 3.859375,0.078125 3.453125,0.078125 C3.03125,0.078125 0.9375,0.21875 0.9375,0.21875 L0.9375,-0.171875 C1.875,-0.28125 2.40625,-0.453125 2.71875,-0.71875 C3,-0.953125 3.125,-1.390625 3.1875,-1.875 C5.234375,-1.625 5.46875,-0.859375 5.46875,0.40625 L5.46875,8.328125 L8.5,10.21875 L8.375,10.53125 L5.46875,9.390625 L5.46875,14.234375 L8.234375,14.234375 C8.5625,14.234375 8.78125,14.359375 8.859375,14.609375 C8.1875,15.3125 7.078125,16.296875 7.078125,16.296875 L6.09375,14.953125 L5.46875,14.953125 L5.46875,19.203125 C6.046875,19.265625 6.28125,19.515625 6.34375,19.84375 L3.953125,20.109375 L3.953125,14.953125 L0.9375,14.953125 L1.125,14.234375 L3.953125,14.234375 L3.953125,8.8125 C2.59375,8.28125 1.46875,7.875 0.8125,7.6875 Z M12.1875,20.140625 C11.421875,17.6875 9.59375,14.5 7.296875,12.53125 L7.5625,12.21875 C8.234375,12.625 8.875,13.078125 9.484375,13.609375 L9.484375,10.0625 C9.453125,5.875 9.046875,1.5625 6.453125,-1.578125 L6.796875,-1.875 C10.4375,1.171875 10.9375,5.921875 10.9375,10.53125 L10.9375,14.5 L13.890625,14.5 C13.625,12.75 12.859375,11.546875 11.0625,10.578125 L11.203125,10.21875 C13.515625,10.96875 14.921875,12.21875 15.453125,14.5 L17.28125,14.5 L17.28125,12.5 C17.28125,11.609375 17.5,11.28125 18.75,11.28125 L19.03125,11.28125 L18.359375,10.4375 L13.109375,10.4375 L13.296875,9.765625 L20.1875,9.765625 C20.515625,9.765625 20.734375,9.890625 20.78125,10.15625 L19.46875,11.28125 L20.0625,11.28125 C22.25,11.28125 22.78125,11.546875 22.78125,12.09375 C22.78125,12.359375 22.65625,12.5 22.25,12.671875 L22.171875,14.109375 L21.890625,14.109375 C21.703125,13.46875 21.53125,12.859375 21.40625,12.671875 C21.328125,12.546875 21.234375,12.53125 21.09375,12.5 C20.921875,12.5 20.5625,12.5 20.140625,12.5 L19.125,12.5 C18.71875,12.5 18.671875,12.53125 18.671875,12.765625 L18.671875,14.5 L22.390625,14.5 C22.734375,14.5 22.984375,14.609375 23.046875,14.875 C22.25,15.59375 21,16.609375 21,16.609375 L19.84375,15.1875 L15.84375,15.1875 C16.65625,15.8125 17.515625,16.6875 18.09375,17.25 C18.53125,17.28125 18.84375,17.328125 19.015625,17.5 L17.328125,19.078125 L16.421875,18.140625 L13.203125,18.140625 L13.6875,19.0625 C14.234375,19.0625 14.421875,19.203125 14.546875,19.46875 Z M12.765625,17.421875 L16.34375,17.421875 C16.015625,16.703125 15.546875,15.84375 15.125,15.1875 L11.234375,15.1875 L11.140625,15.234375 C11.765625,15.953125 12.28125,16.703125 12.765625,17.421875 Z M12,2.8125 L12,-1.828125 L12.21875,-1.828125 C12.984375,-1.828125 13.484375,-1.4375 13.484375,-1.3125 L13.484375,-0.59375 L19.84375,-0.59375 L19.84375,-1.65625 L20.0625,-1.65625 C20.5625,-1.65625 21.328125,-1.265625 21.359375,-1.125 L21.359375,1.984375 C21.703125,2.046875 21.984375,2.203125 22.078125,2.375 L20.421875,3.59375 L19.6875,2.8125 L13.734375,2.8125 L12,3.578125 Z M13.484375,0.125 L13.484375,2.109375 L19.84375,2.109375 L19.84375,0.125 Z" transform="translate(0.0703125, 20.140625) scale(1, -1)"/>
</svg>