<svg height="21.984375" viewBox="0 0 24 21.984375" width="24" xmlns="http://www.w3.org/2000/svg">
<path d="M12.125,15.859375 C11.234375,14.5625 9.390625,12.84375 7.6875,11.8125 L7.9375,11.46875 C9.9375,12.234375 11.96875,13.5625 13.109375,14.65625 L13.25,14.640625 L13.25,11.203125 L13.4375,11.203125 C13.9375,11.203125 14.6875,11.59375 14.71875,11.765625 L14.71875,18.046875 C15.1875,18.140625 15.546875,18.3125 15.71875,18.5 L13.84375,19.9375 L13.015625,19.03125 L8.28125,19.03125 L8.5,18.34375 L11.046875,18.34375 C10.4375,17.46875 9.34375,16.265625 8.234375,15.578125 L8.546875,15.21875 C9.90625,15.71875 11.328125,16.5625 12.09375,17.296875 C12.640625,17.15625 12.8125,17.25 12.984375,17.5 L11.40625,18.34375 L13.25,18.34375 L13.25,15.234375 Z M19.515625,15.90625 C18.71875,14.71875 17.015625,13.078125 15.4375,12.09375 L15.703125,11.765625 C17.5625,12.484375 19.484375,13.6875 20.515625,14.6875 L20.515625,11.15625 L20.765625,11.15625 C21.234375,11.15625 21.984375,11.5 22.015625,11.65625 L22.015625,18.03125 C22.484375,18.125 22.890625,18.3125 23.046875,18.5 L21.140625,19.96875 L20.28125,19.03125 L15.75,19.03125 L15.953125,18.34375 L18.453125,18.34375 C17.78125,17.453125 16.515625,16.25 15.359375,15.546875 L15.625,15.21875 C17.109375,15.703125 18.671875,16.53125 19.53125,17.25 C20.046875,17.140625 20.234375,17.203125 20.375,17.453125 L18.8125,18.34375 L20.515625,18.34375 L20.515625,15.359375 Z M0.640625,7.484375 L1.484375,5.5 C1.703125,5.59375 1.890625,5.875 1.9375,6.140625 L3.953125,7.375 L3.953125,0.546875 C3.953125,0.1875 3.859375,0.078125 3.453125,0.078125 C3.03125,0.078125 0.9375,0.21875 0.9375,0.21875 L0.9375,-0.171875 C1.875,-0.28125 2.40625,-0.453125 2.71875,-0.71875 C3,-0.953125 3.125,-1.390625 3.1875,-1.875 C5.234375,-1.625 5.46875,-0.859375 5.46875,0.40625 L5.46875,8.328125 L8.59375,10.3125 L8.453125,10.625 L5.46875,9.390625 L5.46875,14.1875 L8.234375,14.1875 C8.5625,14.1875 8.78125,14.296875 8.859375,14.5625 C8.1875,15.28125 7.078125,16.265625 7.078125,16.265625 L6.09375,14.90625 L5.46875,14.90625 L5.46875,19.203125 C6.046875,19.265625 6.28125,19.515625 6.34375,19.84375 L3.953125,20.109375 L3.953125,14.90625 L0.9375,14.90625 L1.125,14.1875 L3.953125,14.1875 L3.953125,8.765625 C2.5,8.15625 1.296875,7.703125 0.640625,7.484375 Z M15.359375,11.5625 C15.1875,10.875 14.96875,9.953125 14.734375,9.265625 L11.28125,9.265625 L11.109375,9.34375 C11.46875,9.9375 11.78125,10.515625 12.046875,11.046875 C12.625,10.984375 12.8125,11.140625 12.90625,11.40625 L10.625,12.1875 C9.953125,9.90625 8.421875,6.765625 6.5,4.75 L6.765625,4.4375 C7.78125,5.1875 8.6875,6.125 9.5,7.078125 L9.5,-1.875 L9.75,-1.875 C10.484375,-1.875 10.984375,-1.484375 10.984375,-1.34375 L10.984375,-0.484375 L22.484375,-0.484375 C22.828125,-0.484375 23.09375,-0.359375 23.140625,-0.09375 C22.34375,0.640625 21.078125,1.65625 21.078125,1.65625 L19.9375,0.21875 L16.4375,0.21875 L16.4375,2.609375 L21.390625,2.609375 C21.671875,2.609375 21.90625,2.734375 21.984375,3 C21.3125,3.671875 20.203125,4.53125 20.203125,4.53125 L19.296875,3.34375 L16.4375,3.34375 L16.4375,5.65625 L21.28125,5.65625 C21.625,5.65625 21.84375,5.78125 21.890625,6.046875 C21.234375,6.71875 20.140625,7.578125 20.140625,7.578125 L19.203125,6.390625 L16.4375,6.390625 L16.4375,8.5625 L21.890625,8.5625 C22.203125,8.5625 22.46875,8.6875 22.515625,8.921875 C21.765625,9.640625 20.640625,10.5625 20.640625,10.5625 L19.625,9.265625 L15.578125,9.265625 C16.03125,9.703125 16.4375,10.15625 16.796875,10.53125 C17.25,10.53125 17.5625,10.75 17.65625,11.015625 Z M10.984375,8.5625 L14.953125,8.5625 L14.953125,6.390625 L10.984375,6.390625 Z M10.984375,0.21875 L10.984375,2.609375 L14.953125,2.609375 L14.953125,0.21875 Z M10.984375,5.65625 L14.953125,5.65625 L14.953125,3.34375 L10.984375,3.34375 Z" transform="translate(0.109375, 20.109375) scale(1, -1)"/>
</svg>