<svg height="22" viewBox="0 0 24 22" width="24" xmlns="http://www.w3.org/2000/svg">
<path d="M3.71875,19.375 L4.078125,11.359375 L1.015625,11.359375 L1.21875,10.625 L6.625,10.625 C5.40625,8.5625 3.171875,6.453125 0.84375,5.09375 L1.03125,4.75 C4.0625,6 7.03125,8.046875 8.828125,10.625 L16.0625,10.625 C17.328125,8.234375 19.578125,6.09375 21.9375,4.9375 C22.078125,5.609375 22.515625,6.046875 23.203125,6.28125 L23.25,6.59375 C21,7.296875 18.21875,8.765625 16.75,10.625 L22.46875,10.625 C22.796875,10.625 23.046875,10.75 23.09375,11.015625 C22.421875,11.71875 21.3125,12.640625 21.3125,12.640625 L20.296875,11.359375 L19.84375,11.359375 L20.28125,18.1875 C20.6875,18.1875 20.90625,18.28125 21.046875,18.453125 L19.421875,19.84375 L18.625,18.984375 L15.171875,18.984375 L15.390625,18.28125 L18.8125,18.28125 L18.703125,16.484375 L15.484375,16.484375 L15.703125,15.796875 L18.640625,15.796875 L18.53125,13.921875 L15.28125,13.921875 L15.5,13.21875 L18.484375,13.21875 L18.359375,11.359375 L14.25,11.359375 L14.25,15.046875 C14.609375,15.125 14.921875,15.265625 15.046875,15.40625 L13.46875,16.625 L12.71875,15.859375 L11.140625,15.859375 L11.140625,17.46875 L14.328125,17.46875 C14.65625,17.46875 14.875,17.59375 14.921875,17.859375 C14.375,18.40625 13.515625,19.125 13.515625,19.125 L12.765625,18.1875 L11.140625,18.1875 L11.140625,19.34375 C11.59375,19.4375 11.78125,19.625 11.828125,19.890625 L9.796875,20.09375 L9.796875,14.734375 L10.0625,14.734375 C10.53125,14.734375 11.09375,15.03125 11.109375,15.171875 L12.90625,15.171875 L12.90625,11.359375 L11.140625,11.359375 L11.140625,13.484375 C11.515625,13.578125 11.6875,13.734375 11.71875,13.984375 L9.765625,14.1875 L9.765625,11.359375 L5.5625,11.359375 L5.46875,13.203125 L8.546875,13.203125 C8.859375,13.203125 9.046875,13.3125 9.09375,13.578125 C8.609375,14.140625 7.796875,14.8125 7.796875,14.8125 L7.125,13.890625 L5.453125,13.890625 L5.359375,15.765625 L8.453125,15.765625 C8.765625,15.765625 8.953125,15.890625 9.03125,16.15625 C8.5625,16.703125 7.75,17.375 7.75,17.375 L7.109375,16.484375 L5.328125,16.484375 L5.234375,18.125 C6.5,18.3125 7.84375,18.625 8.609375,18.84375 C8.921875,18.703125 9.125,18.703125 9.234375,18.8125 L7.984375,20.15625 C7.46875,19.828125 6.5,19.265625 5.5625,18.8125 Z M15.171875,9.859375 C13.25,9.140625 9.578125,8.28125 6.625,7.84375 L6.75,7.390625 C8.1875,7.46875 9.75,7.578125 11.234375,7.75 L11.234375,5.90625 L5.0625,5.90625 L5.25,5.203125 L11.234375,5.203125 L11.234375,3.34375 L1.25,3.34375 L1.46875,2.609375 L11.234375,2.609375 L11.234375,0.40625 C11.234375,0.09375 11.140625,-0.03125 10.65625,-0.03125 C10.15625,-0.03125 7.53125,0.171875 7.53125,0.171875 L7.53125,-0.21875 C8.6875,-0.34375 9.34375,-0.5 9.703125,-0.765625 C10.03125,-1.015625 10.203125,-1.390625 10.21875,-1.84375 C12.453125,-1.625 12.796875,-0.8125 12.796875,0.390625 L12.796875,2.609375 L22.125,2.609375 C22.46875,2.609375 22.6875,2.734375 22.75,3 C21.953125,3.703125 20.765625,4.578125 20.765625,4.578125 L19.703125,3.34375 L12.796875,3.34375 L12.796875,5.203125 L18.28125,5.203125 C18.59375,5.203125 18.84375,5.328125 18.890625,5.59375 C18.140625,6.234375 17.015625,7.0625 17.015625,7.0625 L16.015625,5.90625 L12.796875,5.90625 L12.796875,7.9375 C13.828125,8.09375 14.78125,8.234375 15.59375,8.375 C16.125,8.140625 16.53125,8.140625 16.734375,8.328125 Z" transform="translate(-0.046875, 20.15625) scale(1, -1)"/>
</svg>