<svg height="21.984375" viewBox="0 0 24 21.984375" width="24" xmlns="http://www.w3.org/2000/svg">
<path d="M0.625,7.625 L1.484375,5.640625 C1.703125,5.734375 1.890625,6.03125 1.9375,6.28125 L3.953125,7.53125 L3.953125,0.546875 C3.953125,0.1875 3.859375,0.078125 3.453125,0.078125 C3.03125,0.078125 0.9375,0.21875 0.9375,0.21875 L0.9375,-0.171875 C1.875,-0.28125 2.40625,-0.453125 2.71875,-0.71875 C3,-0.953125 3.125,-1.390625 3.1875,-1.875 C5.234375,-1.625 5.46875,-0.859375 5.46875,0.40625 L5.46875,8.46875 L8.59375,10.484375 L8.453125,10.796875 L5.46875,9.53125 L5.46875,14.234375 L8.234375,14.234375 C8.5625,14.234375 8.78125,14.359375 8.859375,14.609375 C8.1875,15.3125 7.078125,16.296875 7.078125,16.296875 L6.09375,14.953125 L5.46875,14.953125 L5.46875,19.203125 C6.046875,19.265625 6.28125,19.515625 6.34375,19.84375 L3.953125,20.109375 L3.953125,14.953125 L0.9375,14.953125 L1.125,14.234375 L3.953125,14.234375 L3.953125,8.90625 C2.5,8.296875 1.296875,7.828125 0.625,7.625 Z M8.515625,13.375 L8.734375,12.640625 L13.15625,12.640625 L13.15625,11.78125 L13.390625,11.78125 C13.84375,11.78125 14.609375,12.125 14.640625,12.265625 L14.640625,17.875 C15.046875,17.96875 15.390625,18.171875 15.53125,18.3125 L13.734375,19.6875 L12.9375,18.8125 L8.515625,18.8125 L8.734375,18.125 L13.15625,18.125 L13.15625,16.203125 L8.953125,16.203125 L9.171875,15.484375 L13.15625,15.484375 L13.15625,13.375 Z M15.640625,13.375 L15.859375,12.640625 L20.453125,12.640625 L20.453125,11.78125 L20.65625,11.78125 C21.171875,11.78125 21.9375,12.125 21.953125,12.265625 L21.953125,17.875 C22.375,17.96875 22.703125,18.171875 22.84375,18.3125 L21.046875,19.6875 L20.234375,18.8125 L15.703125,18.8125 L15.90625,18.125 L20.453125,18.125 L20.453125,16.203125 L15.984375,16.203125 L16.203125,15.484375 L20.453125,15.484375 L20.453125,13.375 Z M15.359375,12.1875 C15.21875,11.328125 14.96875,10.125 14.734375,9.3125 L11.28125,9.3125 L11.0625,9.40625 C11.46875,10.0625 11.8125,10.6875 12.078125,11.25 C12.671875,11.203125 12.859375,11.328125 12.953125,11.59375 L10.6875,12.40625 C10.015625,10.109375 8.453125,6.90625 6.53125,4.875 L6.8125,4.5625 C7.796875,5.296875 8.71875,6.234375 9.5,7.203125 L9.5,-1.875 L9.75,-1.875 C10.484375,-1.875 10.984375,-1.46875 10.984375,-1.34375 L10.984375,-0.484375 L22.484375,-0.484375 C22.828125,-0.484375 23.09375,-0.359375 23.140625,-0.09375 C22.34375,0.671875 21.078125,1.65625 21.078125,1.65625 L19.9375,0.234375 L16.4375,0.234375 L16.4375,2.640625 L21.390625,2.640625 C21.671875,2.640625 21.90625,2.765625 21.984375,3.03125 C21.3125,3.703125 20.203125,4.5625 20.203125,4.5625 L19.296875,3.359375 L16.4375,3.359375 L16.4375,5.71875 L21.28125,5.71875 C21.625,5.71875 21.84375,5.828125 21.890625,6.09375 C21.234375,6.765625 20.140625,7.609375 20.140625,7.609375 L19.203125,6.40625 L16.4375,6.40625 L16.4375,8.609375 L21.890625,8.609375 C22.203125,8.609375 22.46875,8.734375 22.515625,8.96875 C21.765625,9.671875 20.640625,10.609375 20.640625,10.609375 L19.625,9.3125 L15.359375,9.3125 C15.90625,9.90625 16.4375,10.578125 16.84375,11.1875 C17.328125,11.1875 17.59375,11.40625 17.6875,11.71875 Z M10.984375,8.609375 L14.953125,8.609375 L14.953125,6.40625 L10.984375,6.40625 Z M10.984375,0.234375 L10.984375,2.640625 L14.953125,2.640625 L14.953125,0.234375 Z M10.984375,5.71875 L14.953125,5.71875 L14.953125,3.359375 L10.984375,3.359375 Z" transform="translate(0.1171875, 20.109375) scale(1, -1)"/>
</svg>