<svg height="22.96875" viewBox="0 0 24 22.96875" width="24" xmlns="http://www.w3.org/2000/svg">
<path d="M17.15625,1.484375 L17.046875,1.078125 C19.125,0.34375 20.515625,-0.625 21.265625,-1.53125 C22.703125,-2.859375 25.203125,0.4375 17.15625,1.484375 Z M13.65625,1.75 C12.59375,0.640625 10.46875,-0.71875 8.421875,-1.46875 L8.5625,-1.84375 C10.875,-1.484375 13.21875,-0.625 14.609375,0.21875 C15.1875,0.09375 15.578125,0.140625 15.75,0.359375 Z M10.78125,8.09375 L10.78125,1.171875 L10.984375,1.171875 C11.59375,1.171875 12.21875,1.484375 12.21875,1.65625 L12.21875,2.375 L19.984375,2.375 L19.984375,1.375 L20.203125,1.375 C20.6875,1.375 21.4375,1.703125 21.453125,1.84375 L21.453125,7.203125 C21.8125,7.265625 22.171875,7.4375 22.3125,7.578125 L20.5625,8.953125 L19.75,8.09375 L16.796875,8.09375 L16.796875,9.625 L22.46875,9.625 C22.796875,9.625 23.046875,9.75 23.109375,10.015625 C22.34375,10.734375 21.09375,11.71875 21.09375,11.71875 L20.015625,10.34375 L9.953125,10.34375 L9.984375,12.03125 L9.984375,13.96875 L12.8125,13.96875 L12.8125,10.6875 L13.078125,10.6875 C13.609375,10.6875 14.203125,10.984375 14.203125,11.15625 L14.203125,11.875 L17.765625,11.875 L17.765625,10.921875 L18.03125,10.921875 C18.546875,10.921875 19.171875,11.28125 19.171875,11.453125 L19.171875,13.96875 L22.296875,13.96875 C22.625,13.96875 22.84375,14.09375 22.921875,14.359375 C22.25,15 21.171875,15.859375 21.171875,15.859375 L20.234375,14.65625 L19.171875,14.65625 L19.171875,15.671875 C19.6875,15.75 19.875,15.953125 19.890625,16.25 L17.765625,16.46875 L17.765625,14.65625 L14.203125,14.65625 L14.203125,15.640625 C14.71875,15.71875 14.90625,15.9375 14.953125,16.21875 L12.8125,16.46875 L12.8125,14.65625 L9.984375,14.65625 L9.984375,16.828125 L22.46875,16.828125 C22.796875,16.828125 23.046875,16.9375 23.09375,17.203125 C22.3125,17.953125 21.078125,18.9375 21.078125,18.9375 L19.96875,17.546875 L16.6875,17.546875 L16.6875,19.078125 C17.234375,19.203125 17.421875,19.421875 17.46875,19.734375 L15.140625,19.96875 L15.140625,17.546875 L10.265625,17.546875 L8.515625,18.34375 L8.515625,14.875 C7.875,15.53125 7.03125,16.265625 7.03125,16.265625 L6.078125,14.953125 L5.453125,14.953125 L5.453125,19.203125 C6.03125,19.265625 6.265625,19.515625 6.34375,19.84375 L3.953125,20.109375 L3.953125,14.953125 L0.9375,14.953125 L1.125,14.234375 L3.953125,14.234375 L3.953125,8.921875 C2.546875,8.453125 1.34375,8.0625 0.671875,7.875 L1.625,5.953125 C1.84375,6.046875 2.046875,6.265625 2.09375,6.578125 L3.953125,7.5625 L3.953125,0.546875 C3.953125,0.1875 3.859375,0.078125 3.4375,0.078125 C3,0.078125 0.90625,0.21875 0.90625,0.21875 L0.90625,-0.171875 C1.84375,-0.28125 2.375,-0.453125 2.6875,-0.71875 C2.96875,-0.953125 3.09375,-1.390625 3.171875,-1.875 C5.203125,-1.625 5.453125,-0.859375 5.453125,0.40625 L5.453125,8.40625 L8.40625,10.109375 L8.28125,10.4375 L5.453125,9.4375 L5.453125,14.234375 L8.15625,14.234375 C8.296875,14.234375 8.421875,14.25 8.515625,14.296875 L8.515625,12 C8.515625,7.65625 8.328125,2.875 6.21875,-1.03125 L6.625,-1.265625 C9.1875,1.84375 9.796875,6.046875 9.9375,9.625 L15.359375,9.625 L15.359375,8.09375 L12.34375,8.09375 L10.78125,8.78125 Z M14.203125,13.96875 L17.765625,13.96875 L17.765625,12.546875 L14.203125,12.546875 Z M12.21875,4.921875 L15.359375,4.921875 L15.359375,3.078125 L12.21875,3.078125 Z M12.21875,5.609375 L12.21875,7.375 L15.359375,7.375 L15.359375,5.609375 Z M19.984375,4.921875 L19.984375,3.078125 L16.796875,3.078125 L16.796875,4.921875 Z M19.984375,5.609375 L16.796875,5.609375 L16.796875,7.375 L19.984375,7.375 Z" transform="translate(-0.9375, 20.109375) scale(1, -1)"/>
</svg>