<svg height="21.9375" viewBox="0 0 24 21.9375" width="24" xmlns="http://www.w3.org/2000/svg">
<path d="M16.5625,10.4375 C15.53125,7.984375 13.984375,5.859375 11.96875,4.0625 C9.84375,5.6875 8.203125,7.796875 7.171875,10.4375 Z M10.703125,20.09375 L10.703125,11.109375 L3,11.109375 L3.21875,10.4375 L6.671875,10.4375 C7.609375,7.484375 9.046875,5.109375 10.984375,3.234375 C8.375,1.171875 5.046875,-0.390625 1.03125,-1.4375 L1.21875,-1.84375 C5.6875,-1.015625 9.1875,0.4375 11.953125,2.375 C14.453125,0.34375 17.640625,-1.015625 21.484375,-1.84375 C21.71875,-1.078125 22.296875,-0.59375 23.0625,-0.5 L23.109375,-0.265625 C19.21875,0.359375 15.84375,1.515625 13.109375,3.265625 C15.40625,5.15625 17.109375,7.46875 18.390625,10.15625 C18.984375,10.171875 19.25,10.21875 19.46875,10.4375 L17.6875,12.140625 L16.53125,11.109375 L12.28125,11.109375 L12.28125,15.234375 L20.8125,15.234375 C21.140625,15.234375 21.390625,15.359375 21.453125,15.625 C20.59375,16.390625 19.21875,17.453125 19.21875,17.453125 L18,15.953125 L12.28125,15.953125 L12.28125,19.171875 C12.859375,19.265625 13.125,19.515625 13.15625,19.84375 Z" transform="translate(-0.0703125, 20.09375) scale(1, -1)"/>
</svg>