<svg height="21.984375" viewBox="0 0 24 21.984375" width="24" xmlns="http://www.w3.org/2000/svg">
<path d="M1.078125,11.296875 L1.265625,10.578125 L4.703125,10.578125 C3.765625,8.78125 2.5,7.03125 0.953125,5.765625 L1.203125,5.453125 C2.25,6.09375 3.21875,6.859375 4.0625,7.75 L4.078125,7.6875 L9.171875,7.6875 C8.734375,7.171875 8.1875,6.625 7.65625,6.171875 L6.53125,6.28125 L6.53125,4.5625 C4.3125,4.34375 2.5,4.203125 1.390625,4.125 L2.328125,2.296875 C2.5625,2.328125 2.78125,2.5 2.90625,2.78125 L6.53125,3.453125 L6.53125,0.265625 C6.53125,-0.078125 6.4375,-0.171875 6.046875,-0.171875 C5.609375,-0.171875 3.59375,-0.03125 3.59375,-0.03125 L3.59375,-0.40625 C4.515625,-0.5 5.015625,-0.671875 5.328125,-0.890625 C5.609375,-1.125 5.6875,-1.484375 5.765625,-1.875 C7.796875,-1.703125 8.046875,-1.015625 8.046875,0.1875 L8.046875,3.75 C10.078125,4.15625 11.765625,4.484375 13.125,4.796875 L13.078125,5.234375 L8.046875,4.703125 L8.046875,5.453125 C8.5625,5.515625 8.8125,5.6875 8.859375,6.03125 L8.375,6.078125 C9.390625,6.5 10.390625,7.078125 11.140625,7.53125 C11.59375,7.5625 11.90625,7.578125 12.078125,7.75 L10.390625,9.3125 L9.484375,8.375 L4.625,8.375 C5.25,9.09375 5.8125,9.84375 6.28125,10.578125 L12.125,10.578125 C12.4375,10.578125 12.671875,10.703125 12.75,10.96875 C12,11.6875 10.828125,12.625 10.828125,12.625 L9.796875,11.296875 L6.71875,11.296875 C7.0625,11.921875 7.375,12.53125 7.609375,13.125 C8.203125,13.078125 8.40625,13.21875 8.515625,13.46875 L6.21875,14.328125 C5.953125,13.375 5.5625,12.34375 5.0625,11.296875 Z M2.453125,18.953125 L2.359375,18.578125 C3.9375,18 5.40625,17.296875 6.671875,16.609375 C4.9375,15.390625 2.953125,14.25 1.03125,13.46875 L1.25,13.109375 C3.578125,13.78125 5.859375,14.8125 7.796875,15.9375 C9.046875,15.171875 10.015625,14.421875 10.578125,13.828125 C11.859375,13.3125 12.546875,15.078125 9.21875,16.84375 C10.125,17.46875 10.9375,18.125 11.5625,18.75 C12.09375,18.578125 12.3125,18.640625 12.484375,18.859375 L10.5625,20.109375 C9.890625,19.25 8.921875,18.359375 7.828125,17.46875 C6.484375,18.03125 4.734375,18.53125 2.453125,18.953125 Z M15.21875,20.0625 C14.65625,15.90625 13.421875,11.78125 11.875,8.96875 L12.234375,8.765625 C13.0625,9.71875 13.828125,10.875 14.46875,12.140625 C14.90625,9.390625 15.578125,6.8125 16.609375,4.5625 C15.21875,2.203125 13.296875,0.171875 10.625,-1.5625 L10.875,-1.875 C13.65625,-0.484375 15.75,1.203125 17.28125,3.1875 C18.390625,1.203125 19.84375,-0.5 21.796875,-1.875 C22.015625,-1.15625 22.5625,-0.796875 23.28125,-0.703125 L23.359375,-0.453125 C21.125,0.75 19.421875,2.40625 18.125,4.375 C19.875,7.125 20.78125,10.390625 21.265625,14.15625 L22.578125,14.15625 C22.890625,14.15625 23.140625,14.28125 23.203125,14.546875 C22.421875,15.265625 21.140625,16.296875 21.140625,16.296875 L19.984375,14.875 L15.671875,14.875 C16.171875,16.15625 16.578125,17.515625 16.921875,18.90625 C17.421875,18.9375 17.6875,19.171875 17.78125,19.46875 Z M17.28125,5.78125 C16.125,7.921875 15.390625,10.34375 14.875,12.953125 L15.40625,14.15625 L19.46875,14.15625 C19.15625,11.09375 18.484375,8.28125 17.28125,5.78125 Z" transform="translate(-0.15625, 20.109375) scale(1, -1)"/>
</svg>