<svg height="21.984375" viewBox="0 0 24 21.984375" width="24" xmlns="http://www.w3.org/2000/svg">
<path d="M9.078125,7.15625 L8.78125,7.015625 C9.640625,5.8125 10.625,3.9375 10.75,2.453125 C12.265625,1.109375 13.78125,4.53125 9.078125,7.15625 Z M3.484375,7.109375 C2.875,4.78125 1.875,2.515625 0.859375,1.0625 L1.203125,0.8125 C2.59375,2.015625 3.90625,3.890625 4.796875,5.921875 C5.296875,5.90625 5.5625,6.125 5.65625,6.390625 Z M1.34375,9.234375 L1.53125,8.5625 L6.3125,8.5625 L6.3125,0.4375 C6.3125,0.125 6.21875,-0.03125 5.8125,-0.03125 C5.40625,-0.03125 3.484375,0.125 3.484375,0.125 L3.484375,-0.234375 C4.375,-0.34375 4.890625,-0.5 5.1875,-0.765625 C5.453125,-0.984375 5.515625,-1.390625 5.5625,-1.84375 C7.5625,-1.65625 7.828125,-0.796875 7.828125,0.390625 L7.828125,8.5625 L11.859375,8.5625 C12.171875,8.5625 12.40625,8.6875 12.453125,8.921875 C11.765625,9.625 10.578125,10.578125 10.578125,10.578125 L9.546875,9.234375 L7.828125,9.234375 L7.828125,12.4375 L10.84375,12.4375 C11.1875,12.4375 11.40625,12.546875 11.46875,12.8125 C10.75,13.484375 9.625,14.359375 9.625,14.359375 L8.640625,13.15625 L3.4375,13.15625 L3.625,12.4375 L6.3125,12.4375 L6.3125,9.234375 Z M7.34375,19.109375 C7.9375,19.125 8.1875,19.265625 8.25,19.5625 L5.8125,20.09375 C4.984375,17.515625 2.921875,13.84375 0.796875,11.6875 L1.078125,11.421875 C3.640625,13.25 5.859375,16.296875 7.171875,18.765625 C8.8125,17.28125 10.0625,15.546875 10.65625,14.40625 C12.078125,13.3125 14.0625,16.25 7.3125,19.078125 Z M15.703125,20.09375 L15.703125,10.984375 L11.765625,10.984375 L11.953125,10.296875 L13.296875,10.296875 C13.84375,7.421875 14.78125,5.015625 16.109375,3.046875 C14.46875,1.203125 12.359375,-0.359375 9.75,-1.515625 L9.953125,-1.875 C12.8125,-0.890625 15.046875,0.453125 16.78125,2.109375 C18.125,0.4375 19.78125,-0.890625 21.765625,-1.890625 C22.078125,-1.15625 22.65625,-0.71875 23.328125,-0.671875 L23.375,-0.40625 C21.21875,0.40625 19.3125,1.578125 17.78125,3.140625 C19.5625,5.140625 20.734375,7.515625 21.546875,10.078125 C22.078125,10.109375 22.34375,10.171875 22.53125,10.390625 L20.828125,11.953125 L19.828125,10.984375 L17.234375,10.984375 L17.234375,14.96875 L22.421875,14.96875 C22.75,14.96875 22.96875,15.09375 23.046875,15.34375 C22.265625,16.0625 21.046875,17.046875 21.046875,17.046875 L19.9375,15.671875 L17.234375,15.671875 L17.234375,19.171875 C17.828125,19.265625 18.078125,19.515625 18.125,19.84375 Z M16.921875,4.078125 C15.5,5.78125 14.453125,7.875 13.796875,10.296875 L19.890625,10.296875 C19.265625,8.046875 18.3125,5.921875 16.921875,4.078125 Z" transform="translate(-0.0859375, 20.09375) scale(1, -1)"/>
</svg>