<svg height="21.9375" viewBox="0 0 24 21.9375" width="24" xmlns="http://www.w3.org/2000/svg">
<path d="M8.296875,14.515625 L8.046875,14.296875 C9.09375,13.46875 10.390625,11.90625 10.703125,10.625 C12.34375,9.546875 13.4375,13.0625 8.296875,14.515625 Z M4.46875,14.71875 C3.890625,13.0625 2.515625,10.65625 1.0625,9.125 L1.3125,8.8125 C3.21875,10.03125 4.875,11.921875 5.8125,13.421875 C6.34375,13.3125 6.546875,13.4375 6.671875,13.6875 Z M1.078125,16.078125 L1.265625,15.390625 L12.796875,15.390625 C13.125,15.390625 13.390625,15.5 13.4375,15.765625 C12.640625,16.484375 11.375,17.5 11.375,17.5 L10.25,16.078125 L7.6875,16.078125 L7.6875,18.84375 C8.28125,18.9375 8.515625,19.171875 8.5625,19.515625 L6.140625,19.75 L6.140625,16.078125 Z M8.015625,10.6875 C7.75,9.53125 7.390625,8.296875 6.90625,7.078125 C5.953125,7.609375 4.796875,8.109375 3.4375,8.59375 L3.1875,8.328125 C4.203125,7.703125 5.359375,6.859375 6.4375,5.921875 C5.15625,3.125 3.3125,0.390625 0.84375,-1.53125 L1.078125,-1.84375 C3.953125,-0.171875 6.078125,2.28125 7.5625,4.875 C8.65625,3.765625 9.578125,2.609375 10.03125,1.5625 C11.71875,0.625 12.40625,3.453125 8.28125,6.265625 C8.828125,7.375 9.265625,8.5 9.59375,9.546875 C10.21875,9.53125 10.4375,9.671875 10.5625,9.953125 Z M15.21875,20.0625 C14.65625,15.90625 13.421875,11.78125 11.875,8.96875 L12.234375,8.765625 C13.0625,9.71875 13.828125,10.875 14.46875,12.140625 C14.90625,9.390625 15.578125,6.8125 16.609375,4.5625 C15.21875,2.203125 13.296875,0.171875 10.625,-1.5625 L10.875,-1.875 C13.65625,-0.484375 15.75,1.203125 17.28125,3.1875 C18.390625,1.203125 19.84375,-0.5 21.796875,-1.875 C22.015625,-1.15625 22.5625,-0.796875 23.28125,-0.703125 L23.359375,-0.453125 C21.125,0.75 19.421875,2.40625 18.125,4.375 C19.875,7.125 20.78125,10.390625 21.265625,14.15625 L22.578125,14.15625 C22.890625,14.15625 23.140625,14.28125 23.203125,14.546875 C22.421875,15.265625 21.140625,16.296875 21.140625,16.296875 L19.984375,14.875 L15.671875,14.875 C16.171875,16.15625 16.578125,17.515625 16.921875,18.90625 C17.421875,18.9375 17.6875,19.171875 17.78125,19.46875 Z M17.28125,5.78125 C16.125,7.921875 15.390625,10.34375 14.875,12.953125 L15.40625,14.15625 L19.46875,14.15625 C19.15625,11.09375 18.484375,8.28125 17.28125,5.78125 Z" transform="translate(-0.1015625, 20.0625) scale(1, -1)"/>
</svg>