<svg height="21.953125" viewBox="0 0 24 21.953125" width="24" xmlns="http://www.w3.org/2000/svg">
<path d="M0.9375,13.296875 L1.125,12.578125 L7.65625,12.578125 C7.015625,11.71875 6.3125,10.875 5.5625,10.0625 L1.96875,10.0625 L2.1875,9.34375 L4.890625,9.34375 C3.59375,8.046875 2.203125,6.84375 0.703125,5.828125 L0.953125,5.546875 C2.90625,6.59375 4.625,7.890625 6.1875,9.34375 L9.21875,9.34375 C8.828125,8.734375 8.328125,8.046875 7.828125,7.484375 L6.703125,7.609375 L6.703125,5.1875 C4.375,4.84375 2.421875,4.5625 1.3125,4.46875 L2.140625,2.5625 C2.375,2.609375 2.59375,2.8125 2.6875,3.09375 L6.703125,4.0625 L6.703125,0.5 C6.703125,0.171875 6.578125,0.046875 6.140625,0.046875 C5.65625,0.046875 3.21875,0.21875 3.21875,0.21875 L3.21875,-0.140625 C4.265625,-0.28125 4.875,-0.484375 5.234375,-0.71875 C5.546875,-0.984375 5.65625,-1.390625 5.734375,-1.875 C7.9375,-1.65625 8.203125,-0.859375 8.203125,0.40625 L8.203125,4.4375 C10.109375,4.921875 11.6875,5.359375 13.015625,5.734375 L12.9375,6.125 L8.203125,5.40625 L8.203125,6.765625 C8.765625,6.859375 8.96875,7.03125 9.03125,7.375 L8.5625,7.421875 C9.484375,7.96875 10.390625,8.6875 11.015625,9.171875 C11.5,9.21875 11.78125,9.265625 11.96875,9.40625 L10.265625,10.96875 L9.390625,10.0625 L6.9375,10.0625 C7.75,10.875 8.515625,11.71875 9.1875,12.578125 L12.796875,12.578125 C13.125,12.578125 13.34375,12.703125 13.421875,12.953125 C12.71875,13.625 11.609375,14.515625 11.609375,14.515625 L10.609375,13.296875 L9.765625,13.296875 C11.0625,15 12.09375,16.734375 12.890625,18.359375 C13.515625,18.265625 13.734375,18.359375 13.875,18.640625 L11.640625,19.625 C11.28125,18.71875 10.875,17.78125 10.375,16.84375 C9.703125,17.46875 8.71875,18.265625 8.71875,18.265625 L7.75,17.015625 L7.265625,17.015625 L7.265625,19.171875 C7.84375,19.265625 8.109375,19.484375 8.15625,19.84375 L5.765625,20.0625 L5.765625,17.015625 L2.046875,17.015625 L2.234375,16.34375 L5.765625,16.34375 L5.765625,13.296875 Z M10.109375,16.375 C9.53125,15.34375 8.90625,14.296875 8.1875,13.296875 L7.265625,13.296875 L7.265625,16.34375 L9.890625,16.34375 Z M15.390625,20.046875 C14.734375,15.359375 13.25,10.75 11.5,7.625 L11.859375,7.390625 C12.890625,8.5625 13.78125,10.03125 14.5625,11.640625 C14.96875,9.265625 15.546875,7.015625 16.4375,5.015625 C14.78125,2.375 12.34375,0.1875 8.765625,-1.5625 L8.96875,-1.890625 C12.671875,-0.53125 15.28125,1.296875 17.109375,3.59375 C18.28125,1.46875 19.875,-0.359375 22.03125,-1.78125 C22.25,-1.03125 22.796875,-0.671875 23.5,-0.546875 L23.5625,-0.34375 C21.125,0.890625 19.296875,2.609375 17.921875,4.703125 C19.65625,7.3125 20.5625,10.46875 21.046875,14.15625 L22.6875,14.15625 C23.015625,14.15625 23.234375,14.28125 23.296875,14.546875 C22.515625,15.265625 21.234375,16.296875 21.234375,16.296875 L20.109375,14.875 L15.90625,14.875 C16.375,16.171875 16.75,17.515625 17.0625,18.90625 C17.59375,18.9375 17.875,19.15625 17.953125,19.46875 Z M17.09375,6.171875 C16.109375,8.046875 15.4375,10.171875 14.953125,12.453125 C15.1875,13.015625 15.4375,13.578125 15.640625,14.15625 L19.25,14.15625 C18.9375,11.15625 18.28125,8.5 17.09375,6.171875 Z" transform="translate(-0.1328125, 20.0625) scale(1, -1)"/>
</svg>