<svg height="21.984375" viewBox="0 0 24 21.984375" width="24" xmlns="http://www.w3.org/2000/svg">
<path d="M2.71875,17.8125 L2.71875,15.453125 L0.890625,15.453125 L1.078125,14.765625 L2.71875,14.765625 L2.71875,11.640625 L2.921875,11.640625 C3.640625,11.640625 4.125,11.96875 4.125,12.078125 L4.125,12.40625 L6.546875,12.40625 L6.546875,10.796875 L4.015625,10.796875 L2.296875,11.5625 L2.296875,6.484375 L2.515625,6.484375 C3.234375,6.484375 3.71875,6.84375 3.71875,6.953125 L3.71875,7.390625 L6,7.390625 C5.8125,6.9375 5.515625,6.3125 5.203125,5.65625 C3.390625,5.609375 1.890625,5.59375 0.9375,5.609375 L1.484375,3.796875 C1.734375,3.8125 1.96875,3.984375 2.109375,4.25 L4.578125,4.484375 C3.953125,3.3125 3.265625,2.140625 2.734375,1.421875 C3.28125,1.125 3.859375,1.078125 4.21875,1.21875 L4.921875,2.375 C5.734375,2.0625 6.5,1.703125 7.203125,1.3125 C5.71875,0.03125 3.75,-0.953125 1.390625,-1.46875 L1.484375,-1.875 C4.265625,-1.515625 6.546875,-0.59375 8.25,0.71875 C9.3125,0.046875 10.125,-0.59375 10.578125,-1.125 C11.90625,-1.609375 12.546875,0.3125 9.40625,1.734375 C10.203125,2.546875 10.828125,3.453125 11.25,4.421875 C11.859375,4.390625 12.046875,4.515625 12.140625,4.78125 L10.9375,5.15625 L14.09375,5.546875 L14.0625,5.96875 L6.8125,5.71875 L7.3125,6.671875 C7.875,6.671875 8.15625,6.890625 8.25,7.203125 L7.375,7.390625 L10.875,7.390625 L10.875,6.71875 L11.09375,6.71875 C11.546875,6.71875 12.265625,7.0625 12.28125,7.203125 L12.28125,9.984375 C12.640625,10.03125 12.953125,10.21875 13.078125,10.375 L11.453125,11.59375 L10.6875,10.796875 L7.984375,10.796875 L7.984375,12.40625 L10.484375,12.40625 L10.484375,11.8125 L10.703125,11.8125 C11.15625,11.8125 11.90625,12.125 11.921875,12.265625 L11.921875,14.765625 L14.203125,14.765625 C14.546875,14.765625 14.765625,14.875 14.8125,15.140625 C14.1875,15.75 13.203125,16.5625 13.203125,16.5625 L12.3125,15.453125 L11.921875,15.453125 L11.921875,16.921875 C12.3125,16.984375 12.640625,17.15625 12.796875,17.328125 L11.046875,18.625 L10.265625,17.8125 L7.984375,17.8125 L7.984375,19.203125 C8.5625,19.296875 8.8125,19.53125 8.875,19.875 L6.546875,20.109375 L6.546875,17.8125 L4.421875,17.8125 L2.71875,18.546875 Z M5.203125,2.859375 L6.234375,4.65625 L9.8125,5.046875 C9.40625,4.015625 8.828125,3.078125 8.09375,2.234375 C7.296875,2.46875 6.359375,2.6875 5.203125,2.859375 Z M6.546875,17.109375 L6.546875,15.453125 L4.125,15.453125 L4.125,17.109375 Z M7.984375,17.109375 L10.484375,17.109375 L10.484375,15.453125 L7.984375,15.453125 Z M6.546875,13.109375 L4.125,13.109375 L4.125,14.765625 L6.546875,14.765625 Z M7.984375,13.109375 L7.984375,14.765625 L10.484375,14.765625 L10.484375,13.109375 Z M6.546875,10.125 L6.546875,8.09375 L3.71875,8.09375 L3.71875,10.125 Z M7.984375,10.125 L10.875,10.125 L10.875,8.09375 L7.984375,8.09375 Z M16.0625,20.0625 C15.53125,16.015625 14.375,11.90625 12.984375,9.125 L13.34375,8.875 C14.09375,9.796875 14.734375,10.875 15.34375,12.078125 C15.71875,9.34375 16.296875,6.765625 17.25,4.484375 C16.03125,2.203125 14.296875,0.1875 11.90625,-1.5625 L12.140625,-1.875 C14.640625,-0.484375 16.484375,1.171875 17.875,3.125 C18.859375,1.171875 20.15625,-0.5 21.859375,-1.875 C22.109375,-1.15625 22.625,-0.8125 23.296875,-0.71875 L23.375,-0.5 C21.390625,0.71875 19.84375,2.375 18.671875,4.34375 C20.296875,7.125 21.140625,10.421875 21.578125,14.15625 L22.609375,14.15625 C22.9375,14.15625 23.15625,14.28125 23.234375,14.546875 C22.46875,15.265625 21.1875,16.296875 21.1875,16.296875 L20.09375,14.875 L16.53125,14.875 C16.984375,16.171875 17.375,17.546875 17.6875,18.953125 C18.21875,18.953125 18.484375,19.203125 18.546875,19.515625 Z M17.875,5.8125 C16.875,7.9375 16.203125,10.34375 15.75,12.90625 L16.25,14.15625 L19.828125,14.15625 C19.5625,11.09375 18.984375,8.296875 17.875,5.8125 Z" transform="translate(-0.1328125, 20.109375) scale(1, -1)"/>
</svg>