<svg height="21.984375" viewBox="0 0 24 21.984375" width="24" xmlns="http://www.w3.org/2000/svg">
<path d="M8.5625,15 L8.25,14.859375 C8.640625,14.15625 9.078125,12.984375 9.078125,12.09375 C10.015625,11.140625 11.234375,13.125 8.5625,15 Z M4.015625,19.78125 C3.140625,18.046875 1.890625,16.484375 0.8125,15.578125 L1.109375,15.234375 C1.5625,15.484375 2.046875,15.75 2.515625,16.078125 L2.515625,8.90625 L2.734375,8.90625 C3.4375,8.90625 3.890625,9.265625 3.890625,9.390625 L3.890625,15.9375 L6.578125,15.9375 L6.578125,14.71875 L5.015625,15.046875 C4.875,13.65625 4.53125,12.234375 4.109375,11.234375 L4.484375,11.046875 C5.15625,11.8125 5.71875,12.984375 6.03125,14.140625 C6.265625,14.140625 6.453125,14.203125 6.578125,14.296875 L6.578125,9.140625 L6.765625,9.140625 C7.375,9.140625 7.84375,9.484375 7.875,9.59375 L7.875,15.9375 L10.6875,15.9375 L10.6875,11.15625 C10.6875,10.875 10.609375,10.75 10.3125,10.75 C10.015625,10.75 8.765625,10.84375 8.765625,10.84375 L8.765625,10.484375 C9.359375,10.390625 9.71875,10.21875 9.9375,10.015625 C10.15625,9.796875 10.21875,9.40625 10.25,9.03125 C11.828125,9.1875 12.03125,9.859375 12.03125,10.984375 L12.03125,15.8125 C12.359375,15.890625 12.671875,16.0625 12.765625,16.203125 L12.234375,16.578125 C13.15625,16.796875 13.03125,18.859375 9.3125,19.390625 L9.078125,19.15625 C9.765625,18.75 10.609375,18.046875 11.140625,17.375 L11.109375,17.40625 L10.484375,16.65625 L7.96875,16.65625 L7.96875,19.203125 C8.546875,19.296875 8.734375,19.46875 8.78125,19.796875 L6.5,20.046875 L6.5,16.65625 L4.125,16.65625 L3.578125,16.890625 C4.078125,17.359375 4.578125,17.875 5.015625,18.4375 C5.5,18.28125 5.8125,18.453125 5.921875,18.703125 Z M15.59375,20.0625 C15,17.515625 13.796875,15.171875 12.546875,13.65625 L12.90625,13.421875 C13.6875,13.96875 14.40625,14.71875 15.046875,15.578125 C15.53125,14.359375 16.125,13.265625 16.875,12.3125 C15.75,11.0625 14.25,10.03125 12.390625,9.1875 L12.546875,8.828125 C14.5625,9.5 16.21875,10.375 17.5625,11.46875 C18.640625,10.3125 20.015625,9.40625 21.8125,8.6875 C21.953125,9.390625 22.390625,9.75 22.96875,9.890625 L23.046875,10.15625 C21.171875,10.65625 19.65625,11.375 18.453125,12.28125 C19.5625,13.421875 20.375,14.78125 20.875,16.390625 L22.484375,16.390625 C22.828125,16.390625 23.046875,16.515625 23.109375,16.78125 C22.3125,17.46875 21.09375,18.453125 21.09375,18.453125 L19.984375,17.09375 L16.0625,17.09375 C16.390625,17.65625 16.703125,18.265625 16.96875,18.90625 C17.453125,18.890625 17.71875,19.078125 17.8125,19.375 Z M17.515625,13.109375 C16.65625,13.96875 15.953125,14.953125 15.40625,16.0625 L15.625,16.390625 L19.15625,16.390625 C18.796875,15.1875 18.265625,14.09375 17.515625,13.109375 Z M1.9375,7.625 L2.15625,6.9375 L6.578125,6.9375 C5.421875,5.234375 3.4375,3.453125 1.421875,2.328125 L1.65625,1.96875 C2.609375,2.359375 3.546875,2.828125 4.484375,3.40625 C5.140625,2.875 5.828125,2.09375 6.09375,1.390625 C7.34375,0.671875 8.234375,2.96875 4.96875,3.71875 L6.03125,4.46875 L9.890625,4.46875 C8.28125,1.703125 5.140625,-0.359375 1.15625,-1.53125 L1.34375,-1.921875 C6.265625,-0.90625 9.71875,1.171875 11.6875,4.296875 C12.234375,4.34375 12.484375,4.390625 12.671875,4.578125 L11.046875,6.078125 L10.03125,5.15625 L6.859375,5.15625 C7.484375,5.71875 8.046875,6.3125 8.515625,6.9375 L21.546875,6.9375 C21.859375,6.9375 22.109375,7.0625 22.171875,7.3125 C21.40625,7.984375 20.1875,8.859375 20.1875,8.859375 L19.109375,7.625 Z M12.953125,6.625 L12.953125,0.1875 C12.953125,-0.953125 13.34375,-1.3125 15.28125,-1.3125 L18.140625,-1.3125 C22.15625,-1.3125 22.921875,-1.109375 22.921875,-0.390625 C22.921875,-0.078125 22.78125,0.09375 22.203125,0.265625 L22.15625,2.546875 L21.859375,2.546875 C21.625,1.53125 21.390625,0.625 21.1875,0.3125 C21.09375,0.140625 20.953125,0.09375 20.6875,0.078125 C20.328125,0.046875 19.390625,0.03125 18.21875,0.03125 L15.546875,0.03125 C14.59375,0.03125 14.5,0.125 14.5,0.5 L14.5,2.6875 C16.75,3.078125 19.109375,3.84375 20.5625,4.46875 C21.09375,4.296875 21.5,4.3125 21.703125,4.515625 L19.84375,5.921875 C18.71875,5.0625 16.5625,3.9375 14.5,3.21875 L14.5,5.8125 C14.921875,5.875 15.171875,6.078125 15.1875,6.390625 Z" transform="translate(0.0390625, 20.0625) scale(1, -1)"/>
</svg>