<svg height="22" viewBox="0 0 24 22" width="24" xmlns="http://www.w3.org/2000/svg">
<path d="M11.1875,9.640625 L11.1875,7.0625 L1.0625,7.0625 L1.25,6.359375 L6.265625,6.359375 C7.4375,4.375 9.046875,2.78125 11.046875,1.5625 C8.453125,0.140625 5.0625,-0.796875 0.984375,-1.421875 L1.078125,-1.828125 C5.546875,-1.375 9.28125,-0.546875 12.21875,0.90625 C14.90625,-0.5 18.1875,-1.375 21.84375,-1.890625 C22.03125,-1.078125 22.53125,-0.578125 23.25,-0.40625 L23.28125,-0.140625 C19.828125,0.140625 16.53125,0.75 13.734375,1.75 C15.578125,2.921875 17.015625,4.4375 18,6.359375 L22.296875,6.359375 C22.625,6.359375 22.875,6.484375 22.9375,6.75 C22.125,7.46875 20.828125,8.46875 20.828125,8.46875 L19.6875,7.0625 L12.71875,7.0625 L12.71875,8.859375 C13.203125,8.921875 13.375,9.125 13.421875,9.40625 Z M6.890625,6.359375 L15.9375,6.359375 C15.125,4.75 13.921875,3.40625 12.3125,2.328125 C10.0625,3.34375 8.1875,4.65625 6.890625,6.359375 Z M9.046875,20.109375 L9.046875,17.640625 L1.875,17.640625 L2.09375,16.921875 L9.046875,16.921875 L9.046875,15.078125 L9.046875,14.828125 L2.453125,14.828125 L2.640625,14.109375 L9,14.109375 C8.953125,13.46875 8.828125,12.8125 8.59375,12.21875 C5.5,11.90625 2.515625,11.65625 1.125,11.59375 L2.234375,9.703125 C2.46875,9.765625 2.609375,9.90625 2.765625,10.21875 C5.1875,10.796875 6.984375,11.28125 8.359375,11.65625 C7.65625,10.296875 6.390625,9.09375 4.109375,8.1875 L4.3125,7.84375 C9.453125,9.390625 10.5625,12.046875 10.578125,15.078125 L10.578125,19.25 C11.15625,19.34375 11.328125,19.5625 11.40625,19.875 Z M13.78125,20.109375 L13.78125,8.515625 L14.0625,8.515625 C14.640625,8.515625 15.3125,8.859375 15.3125,9.046875 L15.3125,11.09375 L22.171875,11.09375 C22.515625,11.09375 22.75,11.203125 22.796875,11.46875 C22.0625,12.140625 20.875,13.078125 20.875,13.078125 L19.828125,11.78125 L15.3125,11.78125 L15.3125,14.109375 L21.1875,14.109375 C21.53125,14.109375 21.75,14.234375 21.796875,14.5 C21.125,15.171875 20.015625,15.984375 20.015625,15.984375 L19.078125,14.828125 L15.3125,14.828125 L15.3125,16.921875 L21.765625,16.921875 C22.109375,16.921875 22.34375,17.046875 22.421875,17.296875 C21.640625,18.03125 20.5,18.90625 20.5,18.90625 L19.484375,17.640625 L15.3125,17.640625 L15.3125,19.203125 C15.90625,19.265625 16.125,19.53125 16.171875,19.875 Z" transform="translate(-0.1328125, 20.109375) scale(1, -1)"/>
</svg>