<svg height="21.9375" viewBox="0 0 24 21.9375" width="24" xmlns="http://www.w3.org/2000/svg">
<path d="M13.734375,19.796875 L13.578125,19.4375 C16.609375,18.234375 18.9375,16.515625 19.828125,15.34375 C21.703125,14.59375 22.375,18.578125 13.734375,19.796875 Z M8.640625,20.09375 C7.34375,18.53125 4.703125,16.53125 2.359375,15.34375 L2.59375,15.03125 C5.296875,15.859375 8.140625,17.375 9.703125,18.671875 C10.21875,18.53125 10.421875,18.59375 10.609375,18.84375 Z M15.3125,17.328125 C14.453125,16.25 13.296875,15.21875 11.90625,14.28125 C10.828125,14.875 9.890625,15.546875 9.171875,16.296875 L9.953125,17.046875 L9.21875,17.46875 L8.765625,16.53125 C7.96875,15.9375 6.625,15.078125 5.828125,14.609375 L6.84375,13.171875 C7.015625,13.296875 7.109375,13.515625 6.984375,13.75 L8.875,15.9375 C9.484375,15.125 10.21875,14.40625 11.09375,13.75 C8.25,11.96875 4.6875,10.53125 0.984375,9.71875 L1.109375,9.3125 C5.28125,9.90625 9.21875,11.234375 12.28125,12.9375 C14.921875,11.28125 18.3125,10.21875 21.84375,9.59375 C22.015625,10.375 22.484375,10.875 23.15625,11.015625 L23.1875,11.28125 C19.78125,11.609375 16.21875,12.359375 13.390625,13.578125 C14.546875,14.296875 15.53125,15.078125 16.3125,15.890625 C16.828125,15.703125 17.046875,15.75 17.25,15.953125 Z M15.625,10.96875 C13.828125,10.296875 10.578125,9.484375 7.609375,8.96875 L5.65625,9.59375 L5.65625,5.765625 C5.65625,3.21875 5.140625,0.625 1.890625,-1.4375 L2.15625,-1.796875 C6.484375,0.046875 7.171875,2.96875 7.25,5.328125 L13.578125,5.328125 L13.578125,-1.84375 L13.828125,-1.84375 C14.65625,-1.84375 15.1875,-1.515625 15.1875,-1.421875 L15.1875,5.328125 L21.59375,5.328125 C21.9375,5.328125 22.15625,5.453125 22.21875,5.6875 C21.390625,6.453125 20.015625,7.484375 20.015625,7.484375 L18.8125,6.03125 L7.25,6.03125 L7.25,8.375 C10.4375,8.46875 13.828125,8.875 16.15625,9.34375 C16.703125,9.09375 17.140625,9.078125 17.359375,9.265625 Z" transform="translate(-0.0859375, 20.09375) scale(1, -1)"/>
</svg>