<svg height="21.96875" viewBox="0 0 24 21.96875" width="24" xmlns="http://www.w3.org/2000/svg">
<path d="M4.734375,17.46875 L4.390625,17.359375 C4.921875,16.25 5.46875,14.46875 5.40625,13.125 C6.546875,11.90625 7.9375,14.640625 4.734375,17.46875 Z M10.78125,17.65625 C10.421875,16.015625 9.953125,14.15625 9.546875,12.953125 L9.953125,12.765625 C10.65625,13.78125 11.453125,15.265625 12.046875,16.53125 C12.53125,16.53125 12.796875,16.75 12.890625,17.046875 Z M7.515625,19.5625 L7.515625,12.1875 L3.8125,12.1875 L4.015625,11.5 L7.078125,11.5 C6.40625,8.828125 5.28125,6.171875 3.703125,4.109375 L4.015625,3.765625 C5.453125,5.140625 6.625,6.75 7.515625,8.546875 L7.515625,2.421875 L7.78125,2.421875 C8.296875,2.421875 8.90625,2.734375 8.90625,2.96875 L8.90625,10.0625 C9.796875,9 10.78125,7.484375 11.015625,6.3125 C12.40625,5.203125 13.578125,8.28125 8.90625,10.5625 L8.90625,11.5 L12.71875,11.5 C13.0625,11.5 13.265625,11.609375 13.34375,11.859375 C12.703125,12.5 11.65625,13.375 11.65625,13.375 L10.75,12.1875 L8.90625,12.1875 L8.90625,18.625 C9.5,18.71875 9.71875,18.953125 9.796875,19.296875 Z M20.78125,20.09375 C19.625,19.375 17.46875,18.359375 15.53125,17.6875 L13.84375,18.28125 L13.84375,10.03125 C13.84375,7.015625 13.625,4.125 12.484375,1.609375 L10.96875,2.859375 L9.90625,1.515625 L3.59375,1.515625 L3.59375,18.234375 C4.203125,18.34375 4.375,18.546875 4.4375,18.859375 L2.15625,19.125 L2.15625,-0.953125 L2.421875,-0.953125 C2.96875,-0.953125 3.59375,-0.625 3.59375,-0.390625 L3.59375,0.8125 L12.078125,0.8125 C11.59375,-0.03125 11.015625,-0.84375 10.265625,-1.578125 L10.609375,-1.875 C14.90625,1.203125 15.359375,5.8125 15.359375,10.03125 L15.359375,11.359375 L18.703125,11.359375 L18.703125,-1.875 L18.9375,-1.875 C19.75,-1.875 20.234375,-1.484375 20.234375,-1.375 L20.234375,11.359375 L22.6875,11.359375 C23.015625,11.359375 23.234375,11.46875 23.296875,11.734375 C22.53125,12.453125 21.28125,13.46875 21.28125,13.46875 L20.1875,12.046875 L15.359375,12.046875 L15.359375,17.0625 C17.5625,17.359375 20.015625,17.90625 21.546875,18.359375 C22.125,18.171875 22.5625,18.171875 22.78125,18.390625 Z" transform="translate(-0.7265625, 20.09375) scale(1, -1)"/>
</svg>