<svg height="21.96875" viewBox="0 0 24 21.96875" width="24" xmlns="http://www.w3.org/2000/svg">
<path d="M20.921875,20.09375 C19.84375,19.375 17.78125,18.359375 15.953125,17.65625 L14.203125,18.28125 L14.203125,9.953125 C14.203125,6.84375 14.015625,3.8125 12.8125,1.203125 C12.21875,1.734375 11.546875,2.234375 11.546875,2.234375 L10.609375,1.0625 L3.484375,1.0625 L3.484375,9.90625 L12.765625,9.90625 C13.109375,9.90625 13.3125,10.03125 13.375,10.296875 C12.71875,10.921875 11.65625,11.765625 11.65625,11.765625 L10.734375,10.609375 L3.484375,10.609375 L3.484375,18.21875 C4.0625,18.3125 4.25,18.5 4.296875,18.84375 L2.015625,19.109375 L2.015625,-1.625 L2.328125,-1.625 C2.828125,-1.625 3.484375,-1.265625 3.484375,-1.03125 L3.484375,0.359375 L12.40625,0.359375 C12.046875,-0.3125 11.59375,-0.953125 11.0625,-1.5625 L11.40625,-1.875 C15.34375,1.21875 15.703125,5.828125 15.703125,9.953125 L15.703125,11.015625 L18.984375,11.015625 L18.984375,-1.875 L19.21875,-1.875 C20.015625,-1.875 20.5,-1.484375 20.5,-1.375 L20.5,11.015625 L22.65625,11.015625 C22.984375,11.015625 23.203125,11.140625 23.28125,11.40625 C22.53125,12.09375 21.3125,13.078125 21.3125,13.078125 L20.234375,11.734375 L15.703125,11.734375 L15.703125,17.046875 C17.828125,17.359375 20.234375,17.90625 21.71875,18.390625 C22.296875,18.1875 22.734375,18.21875 22.9375,18.40625 Z M5.828125,19.53125 C5.640625,18.890625 5.234375,17.71875 4.828125,16.828125 C4.5625,16.96875 4.25,17.109375 3.890625,17.234375 L3.59375,17.015625 C4.15625,16.53125 4.78125,15.671875 4.9375,14.96875 C5.765625,14.328125 6.546875,15.546875 5.203125,16.578125 C5.875,17.203125 6.5,17.953125 6.890625,18.453125 C7.34375,18.40625 7.609375,18.625 7.65625,18.84375 Z M11.546875,17.234375 C11.140625,16.171875 10.265625,14.296875 9.5,12.859375 L8.546875,12.8125 C8.296875,13.296875 7.828125,13.84375 6.9375,14.328125 L6.625,14.15625 C6.84375,13.875 7.0625,13.484375 7.25,13.0625 L5.46875,12.90625 C6.359375,14.0625 7.21875,15.359375 7.734375,16.171875 C8.203125,16.109375 8.5,16.3125 8.546875,16.53125 L6.890625,17.234375 C6.5,16.171875 5.609375,14.28125 4.875,12.859375 L3.640625,12.8125 L4.265625,11.359375 C4.484375,11.421875 4.6875,11.515625 4.796875,11.828125 C5.90625,12.09375 6.796875,12.359375 7.421875,12.578125 C7.515625,12.234375 7.578125,11.90625 7.578125,11.59375 C8.203125,11.015625 8.90625,11.59375 8.640625,12.53125 L9.234375,11.328125 C9.453125,11.375 9.625,11.5 9.75,11.8125 C10.828125,12.078125 11.71875,12.34375 12.359375,12.53125 C12.484375,12.21875 12.546875,11.921875 12.546875,11.640625 C13.5625,10.734375 14.78125,12.859375 11.734375,14.328125 L11.453125,14.15625 C11.6875,13.875 11.921875,13.484375 12.140625,13.0625 L10.15625,12.90625 C11.0625,14.046875 11.953125,15.28125 12.453125,16.078125 C12.9375,15.984375 13.21875,16.21875 13.296875,16.421875 Z M5.59375,9.890625 C5.421875,9.28125 5.0625,8.203125 4.703125,7.375 C4.4375,7.484375 4.125,7.609375 3.765625,7.734375 L3.5,7.53125 C4.109375,7.03125 4.796875,6.09375 4.96875,5.359375 C5.234375,5.15625 5.46875,5.140625 5.65625,5.234375 C5.359375,4.484375 5.015625,3.75 4.6875,3.09375 L3.640625,3.03125 L4.265625,1.578125 C4.484375,1.625 4.703125,1.75 4.828125,2.0625 L7.203125,2.78125 C7.25,2.546875 7.296875,2.296875 7.296875,2.09375 C7.9375,1.46875 8.65625,2.09375 8.359375,3.046875 L8.96875,1.84375 C9.1875,1.890625 9.390625,2.015625 9.5,2.328125 L11.96875,3.09375 C12,2.859375 12.03125,2.640625 12.03125,2.453125 C13.0625,1.515625 14.296875,3.625 11.453125,5.046875 L11.140625,4.875 C11.40625,4.53125 11.640625,4.109375 11.8125,3.640625 L9.703125,3.4375 C10.625,4.53125 11.5,5.8125 12,6.59375 C12.5,6.53125 12.796875,6.765625 12.84375,6.984375 L11.0625,7.75 C10.890625,7.25 10.609375,6.578125 10.265625,5.828125 C10.3125,6.1875 10.15625,6.703125 9.546875,7.125 C10.15625,7.734375 10.734375,8.375 11.0625,8.8125 C11.546875,8.78125 11.8125,9.03125 11.859375,9.234375 L9.953125,9.90625 C9.8125,9.3125 9.4375,8.28125 9.078125,7.4375 C8.8125,7.578125 8.453125,7.734375 8.046875,7.84375 L7.78125,7.625 C8.40625,7.15625 9.078125,6.1875 9.234375,5.46875 C9.625,5.1875 9.984375,5.25 10.15625,5.546875 C9.8125,4.796875 9.4375,4.03125 9.078125,3.390625 L8.234375,3.3125 C8.015625,3.765625 7.53125,4.265625 6.71875,4.734375 L6.40625,4.578125 C6.625,4.25 6.859375,3.765625 7.03125,3.28125 L5.234375,3.140625 C6.140625,4.34375 7.03125,5.734375 7.5625,6.59375 C8.015625,6.546875 8.328125,6.796875 8.375,7.015625 L6.640625,7.703125 C6.5,7.25 6.265625,6.640625 6,6 C5.921875,6.34375 5.6875,6.71875 5.15625,7.109375 C5.765625,7.6875 6.34375,8.359375 6.671875,8.828125 C7.15625,8.78125 7.421875,9 7.4375,9.21875 Z M10.296875,19.53125 C10.125,18.890625 9.703125,17.734375 9.3125,16.84375 C9.03125,16.984375 8.65625,17.109375 8.25,17.234375 L7.984375,17.015625 C8.15625,16.890625 8.359375,16.734375 8.546875,16.53125 C8.96875,16.078125 9.390625,15.453125 9.53125,14.921875 C10.421875,14.28125 11.203125,15.59375 9.75,16.609375 C10.390625,17.234375 11.015625,17.953125 11.40625,18.4375 C11.859375,18.40625 12.125,18.625 12.171875,18.84375 Z" transform="translate(-0.6484375, 20.09375) scale(1, -1)"/>
</svg>