<svg height="22.03125" viewBox="0 0 24 22.03125" width="24" xmlns="http://www.w3.org/2000/svg">
<path d="M11.15625,20.140625 L11.15625,15.53125 L1.03125,15.53125 L1.21875,14.828125 L8.859375,14.828125 C8.59375,7.75 7.0625,2.375 1.203125,-1.609375 L1.421875,-1.890625 C6.84375,0.796875 9.140625,4.625 10.15625,9.71875 L17.46875,9.71875 C17.234375,5.140625 16.6875,1.15625 15.890625,0.453125 C15.59375,0.21875 15.359375,0.171875 14.859375,0.171875 C14.25,0.171875 11.953125,0.390625 10.65625,0.5 L10.65625,0.078125 C11.8125,-0.09375 13.15625,-0.359375 13.578125,-0.640625 C13.984375,-0.90625 14.109375,-1.375 14.109375,-1.828125 C15.28125,-1.84375 16.265625,-1.515625 16.96875,-0.859375 C18.140625,0.21875 18.765625,4.4375 19.0625,9.5 C19.578125,9.578125 19.875,9.703125 20.046875,9.890625 L18.1875,11.421875 L17.25,10.4375 L10.265625,10.4375 C10.515625,11.8125 10.6875,13.265625 10.78125,14.828125 L22.390625,14.828125 C22.734375,14.828125 22.96875,14.953125 23.046875,15.21875 C22.171875,15.984375 20.78125,17.046875 20.78125,17.046875 L19.578125,15.53125 L12.75,15.53125 L12.75,19.25 C13.34375,19.3125 13.578125,19.5625 13.625,19.890625 Z" transform="translate(-0.0390625, 20.140625) scale(1, -1)"/>
</svg>