<svg height="20.796875" viewBox="0 0 24 20.796875" width="24" xmlns="http://www.w3.org/2000/svg">
<path d="M3.078125,19.171875 L3.078125,-1.625 L3.390625,-1.625 C3.984375,-1.625 4.625,-1.21875 4.625,-0.984375 L4.625,18.234375 C5.234375,18.34375 5.421875,18.546875 5.5,18.890625 Z M19.625,17.203125 L19.625,9.84375 L10.46875,9.84375 L10.46875,17.203125 Z M8.90625,17.921875 L8.90625,-1.34375 L9.1875,-1.34375 C9.90625,-1.34375 10.46875,-0.9375 10.46875,-0.71875 L10.46875,0.859375 L19.625,0.859375 L19.625,-1.171875 L19.84375,-1.171875 C20.421875,-1.171875 21.1875,-0.75 21.21875,-0.578125 L21.21875,16.796875 C21.796875,16.921875 22.21875,17.140625 22.4375,17.359375 L20.296875,19.03125 L19.375,17.921875 L10.609375,17.921875 L8.90625,18.71875 Z M10.46875,9.125 L19.625,9.125 L19.625,1.53125 L10.46875,1.53125 Z" transform="translate(-0.7578125, 19.171875) scale(1, -1)"/>
</svg>