<svg height="21.5" viewBox="0 0 24 21.5" width="24" xmlns="http://www.w3.org/2000/svg">
<path d="M12.078125,18.578125 L12.078125,10.125 C12.078125,5.203125 11.28125,1.34375 7.015625,-1.609375 L7.296875,-1.921875 C11.515625,0.21875 12.953125,3.3125 13.421875,6.75 L18.84375,6.75 C19.171875,6.75 19.390625,6.859375 19.4375,7.125 C18.796875,7.78125 17.734375,8.65625 17.734375,8.65625 L16.796875,7.4375 L13.484375,7.4375 C13.578125,8.328125 13.609375,9.234375 13.609375,10.15625 L13.609375,12.390625 L18.8125,12.390625 C19.15625,12.390625 19.375,12.5 19.421875,12.765625 C18.765625,13.421875 17.734375,14.28125 17.734375,14.28125 L16.796875,13.078125 L13.609375,13.078125 L13.609375,17.875 L20.0625,17.875 L20.0625,0.671875 C20.0625,0.234375 19.921875,0.09375 19.4375,0.09375 C18.84375,0.09375 15.953125,0.3125 15.953125,0.3125 L15.953125,-0.078125 C17.203125,-0.234375 17.921875,-0.4375 18.3125,-0.703125 C18.671875,-0.953125 18.84375,-1.375 18.9375,-1.875 C21.328125,-1.65625 21.59375,-0.796875 21.59375,0.484375 L21.59375,17.5625 C22.078125,17.65625 22.484375,17.859375 22.65625,18.078125 L20.609375,19.578125 L19.828125,18.578125 L13.890625,18.578125 L12.078125,19.375 Z M3.453125,17.421875 L7.78125,17.421875 L7.78125,12.03125 L3.453125,12.03125 Z M1.96875,18.140625 L1.96875,2.1875 L2.1875,2.1875 C2.953125,2.1875 3.453125,2.59375 3.453125,2.71875 L3.453125,5.015625 L7.78125,5.015625 L7.78125,3.4375 L7.984375,3.4375 C8.546875,3.4375 9.265625,3.859375 9.28125,4.015625 L9.28125,17.140625 C9.765625,17.234375 10.15625,17.421875 10.3125,17.609375 L8.40625,19.109375 L7.53125,18.140625 L3.765625,18.140625 L1.96875,18.90625 Z M3.453125,11.328125 L7.78125,11.328125 L7.78125,5.71875 L3.453125,5.71875 Z" transform="translate(-0.3125, 19.578125) scale(1, -1)"/>
</svg>