<svg height="21.578125" viewBox="0 0 24 21.578125" width="24" xmlns="http://www.w3.org/2000/svg">
<path d="M3.859375,16.78125 L3.578125,16.625 C4.4375,15.484375 5.421875,13.6875 5.546875,12.234375 C7.109375,10.890625 8.65625,14.375 3.859375,16.78125 Z M18.4375,16.84375 C17.734375,15.125 16.84375,13.265625 16.125,12.125 L16.484375,11.875 C17.5625,12.765625 18.84375,14.15625 19.828125,15.453125 C20.328125,15.390625 20.609375,15.578125 20.734375,15.84375 Z M1.015625,11.09375 L1.21875,10.390625 L22.296875,10.390625 C22.65625,10.390625 22.890625,10.515625 22.9375,10.78125 C22.15625,11.5 20.90625,12.484375 20.90625,12.484375 L19.78125,11.09375 L14.96875,11.09375 L14.96875,17.640625 L21.453125,17.640625 C21.765625,17.640625 22.015625,17.765625 22.0625,18.03125 C21.28125,18.75 20.046875,19.734375 20.046875,19.734375 L18.9375,18.34375 L2.28125,18.34375 L2.46875,17.640625 L8.8125,17.640625 L8.8125,11.09375 Z M10.3125,17.640625 L13.4375,17.640625 L13.4375,11.09375 L10.3125,11.09375 Z M17.203125,3.671875 L17.203125,0.4375 L6.859375,0.4375 L6.859375,3.671875 Z M17.203125,4.375 L6.859375,4.375 L6.859375,7.484375 L17.203125,7.484375 Z M5.296875,8.203125 L5.296875,-1.84375 L5.5625,-1.84375 C6.21875,-1.84375 6.859375,-1.484375 6.859375,-1.3125 L6.859375,-0.28125 L17.203125,-0.28125 L17.203125,-1.828125 L17.453125,-1.828125 C17.953125,-1.828125 18.75,-1.4375 18.765625,-1.296875 L18.765625,7.171875 C19.25,7.265625 19.625,7.484375 19.796875,7.6875 L17.859375,9.171875 L16.96875,8.203125 L6.984375,8.203125 L5.296875,8.953125 Z" transform="translate(0.0234375, 19.734375) scale(1, -1)"/>
</svg>