<svg height="21.71875" viewBox="0 0 24 21.71875" width="24" xmlns="http://www.w3.org/2000/svg">
<path d="M2.28125,18.453125 L2.46875,17.765625 L21.453125,17.765625 C21.796875,17.765625 22.03125,17.875 22.078125,18.140625 C21.3125,18.859375 20.046875,19.84375 20.046875,19.84375 L18.9375,18.453125 Z M1.03125,10.65625 L1.21875,9.984375 L22.34375,9.984375 C22.6875,9.984375 22.921875,10.109375 22.96875,10.34375 C22.203125,11.0625 20.953125,12.046875 20.953125,12.046875 L19.828125,10.65625 Z M6.703125,17.5625 C6.34375,16.296875 5.734375,14.59375 5.15625,13.25 L3.046875,13.15625 L3.9375,11.359375 C4.15625,11.40625 4.375,11.546875 4.515625,11.828125 C6.640625,12.3125 8.25,12.703125 9.453125,13.015625 C9.671875,12.546875 9.8125,12.125 9.890625,11.71875 C11.234375,10.578125 12.546875,13.484375 8.25,15.21875 L7.984375,15.078125 C8.375,14.65625 8.8125,14.09375 9.171875,13.484375 L5.953125,13.296875 C6.796875,14.328125 7.5625,15.5 8.09375,16.4375 C8.59375,16.390625 8.90625,16.578125 8.96875,16.84375 Z M15.265625,17.5625 C14.90625,16.265625 14.296875,14.5625 13.703125,13.203125 L11.859375,13.125 L12.765625,11.328125 C12.984375,11.375 13.203125,11.515625 13.3125,11.828125 C15.484375,12.28125 17.140625,12.640625 18.390625,12.953125 C18.59375,12.546875 18.75,12.140625 18.8125,11.765625 C20.203125,10.65625 21.5,13.609375 17.109375,15.3125 L16.84375,15.140625 C17.28125,14.71875 17.734375,14.109375 18.09375,13.484375 L14.515625,13.25 C15.359375,14.28125 16.171875,15.484375 16.703125,16.421875 C17.1875,16.390625 17.5,16.5625 17.59375,16.796875 Z M17.015625,3.484375 L17.015625,0.359375 L6.984375,0.359375 L6.984375,3.484375 Z M17.015625,4.171875 L6.984375,4.171875 L6.984375,7.15625 L17.015625,7.15625 Z M5.453125,7.84375 L5.453125,-1.875 L5.6875,-1.875 C6.34375,-1.875 6.984375,-1.484375 6.984375,-1.3125 L6.984375,-0.34375 L17.015625,-0.34375 L17.015625,-1.734375 L17.25,-1.734375 C17.78125,-1.734375 18.578125,-1.34375 18.59375,-1.203125 L18.59375,6.84375 C19.078125,6.9375 19.46875,7.15625 19.625,7.3125 L17.65625,8.828125 L16.78125,7.84375 L7.125,7.84375 L5.453125,8.640625 Z" transform="translate(0, 19.84375) scale(1, -1)"/>
</svg>