<svg height="21.984375" viewBox="0 0 24 21.984375" width="24" xmlns="http://www.w3.org/2000/svg">
<path d="M15.546875,12.125 L15.34375,11.875 C16.15625,11.46875 17.140625,10.625 17.46875,9.953125 C18.8125,9.21875 19.65625,11.8125 15.546875,12.125 Z M18.359375,15.359375 L18.359375,13.265625 L6.140625,13.265625 L6.140625,15.359375 Z M18.359375,16.0625 L6.140625,16.0625 L6.140625,18.078125 L18.359375,18.078125 Z M4.578125,18.75 L4.578125,11.09375 L4.828125,11.09375 C5.46875,11.09375 6.140625,11.453125 6.140625,11.609375 L6.140625,12.546875 L18.359375,12.546875 L18.359375,11.6875 L18.59375,11.6875 C19.125,11.6875 19.921875,12.03125 19.9375,12.140625 L19.9375,17.765625 C20.421875,17.859375 20.8125,18.046875 20.953125,18.234375 L19.015625,19.734375 L18.125,18.75 L6.265625,18.75 L4.578125,19.53125 Z M3.765625,9.5 L3.765625,6.5 C3.765625,3.796875 3.4375,0.8125 0.953125,-1.578125 L1.21875,-1.875 C4.578125,0.21875 5.234375,3.234375 5.328125,5.6875 L9.3125,5.6875 C9.21875,3.125 9.078125,1.75 8.734375,1.4375 C8.609375,1.296875 8.453125,1.25 8.09375,1.25 C7.703125,1.25 6.484375,1.34375 5.78125,1.421875 L5.78125,1.03125 C6.4375,0.90625 7.125,0.71875 7.375,0.5 C7.65625,0.28125 7.75,-0.125 7.75,-0.546875 C8.515625,-0.546875 9.21875,-0.34375 9.71875,0.046875 C10.46875,0.671875 10.734375,2.25 10.796875,5.515625 C11.28125,5.5625 11.546875,5.6875 11.71875,5.859375 L9.953125,7.265625 L9.09375,6.390625 L5.359375,6.390625 L5.359375,6.53125 L5.359375,8.8125 L12.8125,8.8125 C13.25,6.453125 14.0625,4.3125 15.390625,2.515625 C13.65625,0.703125 11.609375,-0.640625 9.484375,-1.515625 L9.71875,-1.890625 C12.078125,-1.203125 14.28125,-0.078125 16.171875,1.5625 C17.203125,0.4375 18.484375,-0.53125 20.046875,-1.265625 C21.21875,-1.84375 22.53125,-2.25 22.9375,-1.515625 C23.09375,-1.203125 23.046875,-0.9375 22.3125,-0.3125 L22.578125,2.515625 L22.296875,2.5625 C22.03125,1.734375 21.671875,0.796875 21.40625,0.3125 C21.265625,-0.046875 21.046875,-0.046875 20.640625,0.171875 C19.265625,0.765625 18.140625,1.609375 17.25,2.59375 C18.40625,3.796875 19.390625,5.203125 20.234375,6.890625 C20.765625,6.765625 21.09375,6.9375 21.234375,7.21875 L19.03125,8.28125 C18.34375,6.546875 17.453125,5.015625 16.390625,3.703125 C15.359375,5.203125 14.71875,6.984375 14.375,8.8125 L22.125,8.8125 C22.484375,8.8125 22.734375,8.921875 22.78125,9.171875 C22.03125,9.890625 20.78125,10.828125 20.78125,10.828125 L19.734375,9.5 L14.25,9.5 C14.15625,10.171875 14.109375,10.84375 14.09375,11.515625 C14.59375,11.609375 14.78125,11.875 14.8125,12.125 L12.453125,12.359375 C12.484375,11.375 12.578125,10.4375 12.703125,9.5 L5.65625,9.5 L3.765625,10.3125 Z" transform="translate(-0.0234375, 19.734375) scale(1, -1)"/>
</svg>