<svg height="21.375" viewBox="0 0 24 21.375" width="24" xmlns="http://www.w3.org/2000/svg">
<path d="M0.953125,-0.53125 L1.171875,-1.21875 L22.421875,-1.21875 C22.75,-1.21875 22.984375,-1.109375 23.046875,-0.84375 C22.21875,-0.125 20.921875,0.890625 20.921875,0.890625 L19.75,-0.53125 Z M4.03125,13.484375 L4.25,12.765625 L11.0625,12.765625 L11.0625,11.0625 L3.4375,11.0625 L3.640625,10.375 L11.0625,10.375 L11.0625,8.71875 L1.015625,8.71875 L1.21875,8.015625 L22.34375,8.015625 C22.703125,8.015625 22.921875,8.140625 22.984375,8.40625 C22.203125,9.078125 21,10.03125 21,10.03125 L19.921875,8.71875 L12.625,8.71875 L12.625,10.375 L19.734375,10.375 C20.046875,10.375 20.28125,10.484375 20.328125,10.75 C19.578125,11.421875 18.359375,12.234375 18.359375,12.234375 L17.328125,11.0625 L12.625,11.0625 L12.625,12.765625 L17.359375,12.765625 L17.359375,12.125 L17.59375,12.125 C18.125,12.125 18.890625,12.5 18.90625,12.640625 L18.90625,15.125 L22.4375,15.125 C22.78125,15.125 22.984375,15.21875 23.0625,15.484375 C22.3125,16.203125 21.125,17.140625 21.125,17.140625 L20.046875,15.8125 L18.90625,15.8125 L18.90625,17.109375 C19.375,17.203125 19.78125,17.40625 19.921875,17.59375 L18,19.0625 L17.109375,18.125 L12.625,18.125 L12.625,19.296875 C13.15625,19.375 13.375,19.578125 13.421875,19.921875 L11.0625,20.15625 L11.0625,18.125 L4.03125,18.125 L4.25,17.40625 L11.0625,17.40625 L11.0625,15.8125 L1.015625,15.8125 L1.21875,15.125 L11.0625,15.125 L11.0625,13.484375 Z M12.625,15.125 L17.359375,15.125 L17.359375,13.484375 L12.625,13.484375 Z M12.625,15.8125 L12.625,17.40625 L17.359375,17.40625 L17.359375,15.8125 Z M17.140625,3.4375 L17.140625,1.734375 L6.8125,1.734375 L6.8125,3.4375 Z M17.140625,4.109375 L6.8125,4.109375 L6.8125,5.765625 L17.140625,5.765625 Z M5.25,6.453125 L5.25,0 L5.5,0 C6.125,0 6.8125,0.359375 6.8125,0.5 L6.8125,1.03125 L17.140625,1.03125 L17.140625,0.140625 L17.375,0.140625 C17.90625,0.140625 18.671875,0.546875 18.703125,0.71875 L18.703125,5.546875 C19.109375,5.609375 19.484375,5.78125 19.609375,5.953125 L17.765625,7.375 L16.921875,6.453125 L6.9375,6.453125 L5.25,7.21875 Z" transform="translate(-0.0078125, 20.15625) scale(1, -1)"/>
</svg>