<svg height="21.984375" viewBox="0 0 24 21.984375" width="24" xmlns="http://www.w3.org/2000/svg">
<path d="M15.1875,13.34375 L11.546875,13.34375 L10.734375,13.703125 C11.515625,14.59375 12.265625,15.625 12.9375,16.734375 L16.75,16.734375 C16.34375,15.703125 15.75,14.28125 15.1875,13.34375 Z M12.640625,20.09375 C11.59375,16.796875 9.8125,13.734375 8.015625,11.828125 L8.015625,16.46875 C8.5,16.5625 8.90625,16.75 9.046875,16.9375 L7.15625,18.4375 L6.28125,17.453125 L3.59375,17.453125 L1.828125,18.21875 L1.828125,0.984375 L2.0625,0.984375 C2.8125,0.984375 3.3125,1.390625 3.3125,1.515625 L3.3125,3.71875 L6.53125,3.71875 L6.53125,2.09375 L6.75,2.09375 C7.296875,2.09375 7.984375,2.5 8.015625,2.640625 L8.015625,11.65625 L8.25,11.46875 C8.8125,11.859375 9.34375,12.28125 9.84375,12.796875 L9.84375,5.921875 L10.0625,5.921875 C10.75,5.921875 11.25,6.34375 11.25,6.484375 L11.25,7.21875 L12.890625,7.21875 C12.4375,2.875 10.78125,0.390625 5.96875,-1.515625 L6.125,-1.890625 C11.78125,-0.359375 13.9375,2.203125 14.5625,7.21875 L16.515625,7.21875 L16.515625,0 C16.515625,-1.0625 16.75,-1.4375 18.28125,-1.4375 L19.984375,-1.4375 C22.75,-1.4375 23.328125,-1.125 23.328125,-0.484375 C23.328125,-0.1875 23.234375,0 22.78125,0.1875 L22.703125,3.546875 L22.390625,3.546875 C22.15625,2.140625 21.890625,0.640625 21.75,0.265625 C21.640625,0.046875 21.578125,0 21.390625,-0.03125 C21.1875,-0.046875 20.65625,-0.046875 20.015625,-0.046875 L18.59375,-0.046875 C18.03125,-0.046875 17.953125,0.03125 17.953125,0.359375 L17.953125,7.21875 L20.234375,7.21875 L20.234375,6.09375 L20.46875,6.09375 C20.96875,6.09375 21.71875,6.453125 21.75,6.625 L21.75,12.359375 C22.21875,12.453125 22.609375,12.640625 22.78125,12.84375 L20.875,14.28125 L19.984375,13.34375 L15.75,13.34375 C16.796875,14.25 17.921875,15.640625 18.640625,16.53125 C19.125,16.578125 19.390625,16.609375 19.578125,16.78125 L17.765625,18.453125 L16.75,17.453125 L13.34375,17.453125 C13.578125,17.90625 13.828125,18.359375 14.046875,18.84375 C14.546875,18.765625 14.859375,18.984375 14.953125,19.25 Z M14.90625,12.640625 L14.90625,7.921875 L11.25,7.921875 L11.25,12.640625 Z M16.375,12.640625 L20.234375,12.640625 L20.234375,7.921875 L16.375,7.921875 Z M3.3125,16.734375 L6.53125,16.734375 L6.53125,10.96875 L3.3125,10.96875 Z M3.3125,10.265625 L6.53125,10.265625 L6.53125,4.421875 L3.3125,4.421875 Z" transform="translate(-0.578125, 20.09375) scale(1, -1)"/>
</svg>