<svg height="21.953125" viewBox="0 0 24 21.953125" width="24" xmlns="http://www.w3.org/2000/svg">
<path d="M18.171875,15.484375 L18.171875,12.75 L14.953125,12.75 L14.953125,16.0625 L21.28125,16.0625 C21.59375,16.0625 21.84375,16.171875 21.90625,16.4375 C21.140625,17.15625 19.875,18.125 19.875,18.125 L18.796875,16.75 L14.515625,16.75 C15.40625,17.453125 16.390625,18.28125 17.046875,18.9375 C17.5625,18.90625 17.90625,19.078125 18,19.34375 L15.53125,20.109375 C15.078125,19.125 14.375,17.765625 13.75,16.75 L9.53125,16.75 C10.25,17.328125 9.984375,19.25 6.640625,20.0625 L6.40625,19.890625 C7.21875,19.15625 8.1875,17.859375 8.421875,16.78125 L8.46875,16.75 L2.421875,16.75 L2.640625,16.0625 L8.859375,16.0625 L8.859375,12.75 L5.78125,12.75 L5.78125,14.59375 C6.359375,14.6875 6.59375,14.90625 6.671875,15.234375 L4.34375,15.484375 L4.34375,10.6875 L4.609375,10.6875 C5.15625,10.6875 5.78125,10.96875 5.78125,11.140625 L5.78125,12.046875 L8.859375,12.046875 L8.859375,9.9375 L1.015625,9.9375 L1.21875,9.234375 L22.3125,9.234375 C22.65625,9.234375 22.890625,9.359375 22.9375,9.625 C22.15625,10.375 20.90625,11.328125 20.90625,11.328125 L19.78125,9.9375 L14.953125,9.9375 L14.953125,12.046875 L18.171875,12.046875 L18.171875,10.6875 L18.4375,10.6875 C18.984375,10.6875 19.609375,10.96875 19.609375,11.140625 L19.609375,14.59375 C20.1875,14.6875 20.421875,14.90625 20.5,15.234375 Z M10.375,16.0625 L13.421875,16.0625 L13.421875,9.9375 L10.375,9.9375 Z M16.890625,3.140625 L16.890625,0.265625 L7.0625,0.265625 L7.0625,3.140625 Z M16.890625,3.84375 L7.0625,3.84375 L7.0625,6.53125 L16.890625,6.53125 Z M5.5,7.203125 L5.5,-1.84375 L5.734375,-1.84375 C6.40625,-1.84375 7.0625,-1.484375 7.0625,-1.34375 L7.0625,-0.453125 L16.890625,-0.453125 L16.890625,-1.84375 L17.140625,-1.84375 C17.65625,-1.84375 18.453125,-1.46875 18.484375,-1.3125 L18.484375,6.21875 C18.9375,6.3125 19.3125,6.5 19.484375,6.703125 L17.546875,8.1875 L16.65625,7.203125 L7.203125,7.203125 L5.5,7.984375 Z" transform="translate(0.0234375, 20.109375) scale(1, -1)"/>
</svg>