<svg height="22" viewBox="0 0 24 22" width="24" xmlns="http://www.w3.org/2000/svg">
<path d="M14.328125,20.015625 L14.328125,16.875 L8.78125,16.875 L8.96875,16.203125 L14.328125,16.203125 L14.328125,12.796875 L14.609375,12.796875 C15.1875,12.796875 15.8125,13.109375 15.8125,13.265625 L15.8125,16.203125 L21.75,16.203125 C22.078125,16.203125 22.3125,16.3125 22.375,16.578125 C21.59375,17.28125 20.328125,18.265625 20.328125,18.265625 L19.25,16.875 L15.8125,16.875 L15.8125,19.109375 C16.4375,19.203125 16.65625,19.4375 16.734375,19.78125 Z M17.78125,15.09375 L17.78125,11.765625 L12.28125,11.765625 L12.28125,14.296875 C12.75,14.375 12.9375,14.5625 12.984375,14.859375 L10.796875,15.09375 L10.796875,11.765625 L8.203125,11.765625 L8.40625,11.0625 L10.796875,11.0625 L10.796875,7.390625 L8.203125,7.390625 L8.40625,6.703125 L12.21875,6.703125 C11.859375,2.515625 10.4375,0.21875 5.8125,-1.609375 L5.921875,-1.984375 C11.40625,-0.578125 13.46875,1.84375 13.9375,6.703125 L16.203125,6.703125 L16.203125,-0.125 C16.203125,-1.171875 16.484375,-1.5625 18,-1.5625 L19.75,-1.5625 C22.484375,-1.5625 23.109375,-1.25 23.109375,-0.59375 C23.109375,-0.3125 23.046875,-0.125 22.5625,0.078125 L22.484375,3.234375 L22.171875,3.234375 C21.90625,1.921875 21.671875,0.546875 21.5,0.171875 C21.40625,-0.078125 21.359375,-0.125 21.171875,-0.125 C20.921875,-0.140625 20.421875,-0.140625 19.796875,-0.140625 L18.390625,-0.140625 C17.78125,-0.140625 17.734375,-0.078125 17.734375,0.234375 L17.734375,6.703125 L22.34375,6.703125 C22.6875,6.703125 22.890625,6.8125 22.96875,7.078125 C22.25,7.78125 21.09375,8.78125 21.09375,8.78125 L20.0625,7.390625 L19.25,7.390625 L19.25,11.0625 L22.5625,11.0625 C22.890625,11.0625 23.109375,11.1875 23.1875,11.453125 C22.515625,12.125 21.40625,13.0625 21.40625,13.0625 L20.421875,11.765625 L19.25,11.765625 L19.25,14.328125 C19.703125,14.40625 19.890625,14.59375 19.9375,14.875 Z M12.28125,11.0625 L17.78125,11.0625 L17.78125,7.390625 L12.28125,7.390625 Z M3.28125,17.203125 L6.234375,17.203125 L6.234375,10.84375 L3.28125,10.84375 Z M1.828125,17.921875 L1.828125,0.125 L2.046875,0.125 C2.8125,0.125 3.28125,0.53125 3.28125,0.671875 L3.28125,2.96875 L6.234375,2.96875 L6.234375,1.25 L6.453125,1.25 C7.015625,1.25 7.703125,1.625 7.734375,1.828125 L7.734375,16.921875 C8.203125,17.015625 8.609375,17.203125 8.765625,17.40625 L6.859375,18.890625 L6,17.921875 L3.59375,17.921875 L1.828125,18.671875 Z M3.28125,10.15625 L6.234375,10.15625 L6.234375,3.671875 L3.28125,3.671875 Z" transform="translate(-0.5078125, 20.015625) scale(1, -1)"/>
</svg>