<svg height="21.671875" viewBox="0 0 24 21.671875" width="24" xmlns="http://www.w3.org/2000/svg">
<path d="M17.640625,4.75 L17.640625,2.859375 L8.359375,2.859375 L8.359375,4.6875 L8.5625,4.75 Z M20.109375,13.203125 C19.203125,12.28125 18.234375,11.46875 17.234375,10.6875 C16.484375,11.359375 15.3125,12.21875 15.3125,12.21875 L14.28125,10.984375 L11.734375,10.984375 L11.734375,12.140625 C12.265625,12.234375 12.453125,12.453125 12.5,12.75 L10.15625,12.984375 L10.15625,10.984375 L3.53125,10.984375 L3.71875,10.3125 L10.15625,10.3125 L10.15625,8.15625 L1.0625,8.15625 L1.25,7.46875 L12.140625,7.46875 C10.875,6.796875 9.546875,6.171875 8.203125,5.59375 L6.796875,6.21875 L6.796875,4.984375 C4.875,4.21875 2.921875,3.546875 1.015625,2.953125 L1.125,2.515625 C3.046875,3 4.9375,3.53125 6.796875,4.125 L6.796875,-1.875 L7.015625,-1.875 C7.65625,-1.875 8.359375,-1.515625 8.359375,-1.375 L8.359375,-0.546875 L17.640625,-0.546875 L17.640625,-1.828125 L17.90625,-1.828125 C18.40625,-1.828125 19.203125,-1.46875 19.21875,-1.3125 L19.21875,4.53125 C19.65625,4.609375 19.984375,4.796875 20.140625,4.96875 L18.265625,6.390625 L17.421875,5.46875 L10.4375,5.46875 C11.90625,6.078125 13.3125,6.71875 14.71875,7.46875 L22.4375,7.46875 C22.78125,7.46875 23.015625,7.578125 23.09375,7.84375 C22.296875,8.5625 21.03125,9.484375 21.03125,9.484375 L19.890625,8.15625 L15.9375,8.15625 C17.6875,9.171875 19.3125,10.3125 20.859375,11.640625 C21.40625,11.40625 21.703125,11.40625 21.9375,11.640625 Z M8.359375,2.15625 L17.640625,2.15625 L17.640625,0.171875 L8.359375,0.171875 Z M11.734375,10.3125 L16.625,10.3125 L16.75,10.3125 C15.671875,9.546875 14.546875,8.828125 13.390625,8.15625 L11.734375,8.15625 Z M17.640625,15.59375 L17.640625,13.734375 L6.28125,13.734375 L6.28125,15.59375 Z M17.640625,16.3125 L6.28125,16.3125 L6.28125,18.140625 L17.640625,18.140625 Z M4.75,18.84375 L4.75,12.09375 L4.96875,12.09375 C5.640625,12.09375 6.28125,12.4375 6.28125,12.59375 L6.28125,13.03125 L17.640625,13.03125 L17.640625,12.34375 L17.875,12.34375 C18.390625,12.34375 19.171875,12.703125 19.203125,12.84375 L19.203125,17.859375 C19.65625,17.953125 20.046875,18.140625 20.203125,18.3125 L18.265625,19.796875 L17.40625,18.84375 L6.4375,18.84375 L4.75,19.578125 Z" transform="translate(-0.0546875, 19.796875) scale(1, -1)"/>
</svg>