<svg height="22.046875" viewBox="0 0 24 22.046875" width="24" xmlns="http://www.w3.org/2000/svg">
<path d="M14.515625,17.203125 L14.203125,17.09375 C14.65625,16.171875 15.140625,14.765625 15.125,13.609375 C16.375,12.34375 18.046875,15.078125 14.515625,17.203125 Z M18.84375,17.8125 L18.578125,17.640625 C19.5625,16.578125 20.859375,14.875 21.1875,13.578125 C22.78125,12.484375 23.921875,15.671875 18.84375,17.8125 Z M11.1875,19.03125 C10.734375,17.1875 9.640625,14.546875 8.25,12.84375 L8.546875,12.53125 C10.296875,13.9375 11.65625,16.109375 12.390625,17.734375 C15.03125,17.859375 18,18.1875 19.984375,18.546875 C20.515625,18.28125 20.921875,18.28125 21.140625,18.484375 L19.515625,20.109375 C18,19.5625 15.3125,18.8125 12.890625,18.34375 Z M8.296875,9.21875 L8.5,8.515625 L12.3125,8.515625 C11.359375,4.421875 9.453125,1.0625 5.90625,-1.53125 L6.1875,-1.875 C9.234375,-0.046875 11.28125,2.1875 12.59375,4.828125 C13.21875,3.4375 14.0625,2.28125 15.078125,1.3125 C13.53125,0.125 11.59375,-0.84375 9.28125,-1.53125 L9.484375,-1.9375 C12.09375,-1.375 14.234375,-0.53125 15.953125,0.59375 C17.515625,-0.546875 19.484375,-1.375 21.890625,-1.9375 C22.078125,-1.21875 22.53125,-0.765625 23.15625,-0.671875 L23.1875,-0.40625 C20.828125,-0.078125 18.765625,0.53125 17.046875,1.421875 C18.390625,2.5 19.421875,3.796875 20.1875,5.28125 C20.734375,5.328125 21,5.375 21.1875,5.5625 L19.484375,7.109375 L18.453125,6.140625 L13.171875,6.140625 C13.484375,6.90625 13.734375,7.703125 13.9375,8.515625 L22.390625,8.515625 C22.734375,8.515625 22.96875,8.640625 23.046875,8.90625 C22.25,9.625 21.03125,10.609375 21.03125,10.609375 L19.9375,9.21875 L14.109375,9.21875 C14.28125,10.03125 14.421875,10.875 14.515625,11.765625 L21.75,11.765625 C22.078125,11.765625 22.3125,11.875 22.375,12.125 C21.640625,12.8125 20.515625,13.703125 20.515625,13.703125 L19.515625,12.453125 L9.171875,12.453125 L9.359375,11.765625 L12.84375,11.765625 C12.75,10.875 12.625,10.03125 12.453125,9.21875 Z M15.9375,2.0625 C14.640625,2.921875 13.609375,4.03125 12.890625,5.421875 L12.859375,5.453125 L18.4375,5.453125 C17.828125,4.171875 16.984375,3.046875 15.9375,2.0625 Z M3.3125,17.0625 L6.703125,17.0625 L6.703125,11.25 L3.3125,11.25 Z M1.828125,17.78125 L1.828125,1.125 L2.0625,1.125 C2.8125,1.125 3.3125,1.53125 3.3125,1.65625 L3.3125,3.8125 L6.703125,3.8125 L6.703125,2.234375 L6.90625,2.234375 C7.421875,2.234375 8.140625,2.609375 8.1875,2.78125 L8.1875,16.796875 C8.640625,16.890625 9.03125,17.09375 9.171875,17.28125 L7.296875,18.75 L6.453125,17.78125 L3.59375,17.78125 L1.828125,18.546875 Z M3.3125,10.53125 L6.703125,10.53125 L6.703125,4.515625 L3.3125,4.515625 Z" transform="translate(-0.875, 20.109375) scale(1, -1)"/>
</svg>