<svg height="21.796875" viewBox="0 0 24 21.796875" width="24" xmlns="http://www.w3.org/2000/svg">
<path d="M8.65625,17.296875 L8.65625,14.359375 L5.359375,14.359375 L5.546875,13.65625 L8.140625,13.65625 C7.4375,11.640625 6.359375,9.75 4.921875,8.203125 L5.234375,7.828125 C6.59375,8.859375 7.78125,10.109375 8.65625,11.515625 L8.65625,7.5625 L8.953125,7.5625 C9.484375,7.5625 10.078125,7.875 10.078125,8.0625 L10.078125,12.09375 C10.78125,11.59375 11.5,10.75 11.734375,10.0625 C13.03125,9.1875 13.984375,11.875 10.078125,12.484375 L10.078125,13.65625 L12.796875,13.65625 C13.125,13.65625 13.34375,13.78125 13.390625,14.046875 C12.75,14.6875 11.6875,15.53125 11.6875,15.53125 L10.75,14.359375 L10.078125,14.359375 L10.078125,16.390625 C10.6875,16.484375 10.890625,16.734375 10.96875,17.046875 Z M18.34375,14.359375 L18.28125,14.359375 L18.28125,16.296875 C18.890625,16.390625 19.125,16.609375 19.171875,16.921875 L16.84375,17.1875 L16.84375,14.359375 L13.34375,14.359375 L13.53125,13.65625 L16.109375,13.65625 C15.171875,11.640625 13.796875,9.75 12.03125,8.296875 L12.3125,7.921875 C14.15625,9.046875 15.71875,10.4375 16.84375,12.046875 L16.84375,7.5625 L17.109375,7.5625 C17.65625,7.5625 18.28125,7.875 18.28125,8.0625 L18.28125,13.125 C19.109375,10.875 20.375,9.078125 21.75,7.921875 C21.9375,8.640625 22.390625,9.078125 22.96875,9.140625 L23.015625,9.390625 C21.40625,10.21875 19.6875,11.765625 18.671875,13.65625 L22.25,13.65625 C22.5625,13.65625 22.796875,13.78125 22.84375,14.046875 C22.171875,14.71875 21.078125,15.59375 21.078125,15.59375 L20.109375,14.359375 Z M18.796875,2.8125 L18.796875,0.234375 L8.71875,0.234375 L8.71875,2.8125 Z M18.796875,3.53125 L8.71875,3.53125 L8.71875,6.046875 L18.796875,6.046875 Z M7.171875,6.765625 L7.171875,-1.875 L7.421875,-1.875 C8.046875,-1.875 8.71875,-1.515625 8.71875,-1.375 L8.71875,-0.484375 L18.796875,-0.484375 L18.796875,-1.78125 L19.03125,-1.78125 C19.53125,-1.78125 20.296875,-1.390625 20.328125,-1.25 L20.328125,5.765625 C20.8125,5.859375 21.1875,6.046875 21.328125,6.234375 L19.4375,7.6875 L18.546875,6.765625 L8.828125,6.765625 L7.171875,7.515625 Z M3.359375,18.4375 L3.359375,12.40625 C3.359375,7.703125 3.171875,2.5625 0.890625,-1.609375 L1.296875,-1.84375 C4.65625,2.296875 4.890625,8.140625 4.890625,12.4375 L4.890625,17.734375 L22.125,17.734375 C22.46875,17.734375 22.703125,17.859375 22.78125,18.125 C21.9375,18.859375 20.59375,19.921875 20.59375,19.921875 L19.390625,18.4375 L5.1875,18.4375 L3.359375,19.265625 Z" transform="translate(0.046875, 19.921875) scale(1, -1)"/>
</svg>