<svg height="21.796875" viewBox="0 0 24 21.796875" width="24" xmlns="http://www.w3.org/2000/svg">
<path d="M3.28125,17.15625 L6.09375,17.15625 L6.09375,10.96875 L3.28125,10.96875 Z M1.828125,17.859375 L1.828125,1.078125 L2.046875,1.078125 C2.8125,1.078125 3.28125,1.46875 3.28125,1.609375 L3.28125,3.265625 L6.09375,3.265625 L6.09375,1.875 L6.3125,1.875 C6.859375,1.875 7.5625,2.28125 7.578125,2.421875 L7.578125,16.875 C8.0625,16.96875 8.46875,17.15625 8.609375,17.359375 L6.71875,18.8125 L5.859375,17.859375 L3.59375,17.859375 L1.828125,18.625 Z M3.28125,10.265625 L6.09375,10.265625 L6.09375,3.984375 L3.28125,3.984375 Z M14.328125,19.921875 L14.328125,17.859375 L9.625,17.859375 L9.8125,17.140625 L14.328125,17.140625 L14.328125,14.90625 L8.765625,14.90625 L8.921875,14.203125 L22.078125,14.203125 C22.421875,14.203125 22.625,14.328125 22.703125,14.59375 C21.9375,15.265625 20.734375,16.21875 20.734375,16.21875 L19.6875,14.90625 L15.84375,14.90625 L15.84375,17.140625 L20.859375,17.140625 C21.1875,17.140625 21.40625,17.25 21.484375,17.515625 C20.765625,18.21875 19.609375,19.109375 19.609375,19.109375 L18.578125,17.859375 L15.84375,17.859375 L15.84375,19.0625 C16.375,19.15625 16.578125,19.375 16.625,19.6875 Z M7.78125,5.953125 L7.96875,5.28125 L12.21875,5.28125 C12.09375,2.5625 11.5625,0.3125 6.40625,-1.484375 L6.703125,-1.875 C12.859375,-0.21875 13.6875,2.1875 13.9375,5.28125 L16.34375,5.28125 L16.34375,0.046875 C16.34375,-1.015625 16.609375,-1.375 18.125,-1.375 L19.875,-1.375 C22.65625,-1.375 23.25,-1.078125 23.25,-0.453125 C23.25,-0.171875 23.15625,0.046875 22.703125,0.1875 L22.625,2.640625 L22.3125,2.640625 C22.078125,1.578125 21.859375,0.546875 21.703125,0.265625 C21.59375,0.078125 21.53125,0.03125 21.359375,0.03125 C21.125,0 20.59375,0 19.96875,0 L18.484375,0 C17.90625,0 17.828125,0.078125 17.828125,0.359375 L17.828125,5.28125 L22.625,5.28125 C22.96875,5.28125 23.1875,5.40625 23.25,5.65625 C22.53125,6.34375 21.3125,7.265625 21.3125,7.265625 L20.28125,5.953125 Z M10.828125,13.734375 L10.828125,11.59375 L8.296875,11.59375 L8.5,10.875 L10.828125,10.875 L10.828125,8.78125 L7.984375,8.359375 L8.90625,6.578125 C9.09375,6.640625 9.3125,6.8125 9.40625,7.125 C11.921875,7.9375 13.828125,8.640625 15.09375,9.125 L15.03125,9.5 L12.3125,9.03125 L12.3125,10.875 L14.734375,10.875 C15.078125,10.875 15.28125,10.984375 15.34375,11.25 C14.8125,11.8125 13.984375,12.453125 13.984375,12.453125 L13.296875,11.59375 L12.3125,11.59375 L12.3125,12.9375 C12.8125,13.03125 13.03125,13.21875 13.0625,13.515625 Z M17.78125,13.734375 L17.78125,11.59375 L15.4375,11.59375 L15.625,10.875 L17.78125,10.875 L17.78125,8.375 L14.515625,8.375 L14.71875,7.6875 L22.375,7.6875 C22.703125,7.6875 22.890625,7.796875 22.96875,8.0625 C22.390625,8.65625 21.484375,9.40625 21.484375,9.40625 L20.6875,8.375 L19.25,8.375 L19.25,10.875 L21.796875,10.875 C22.109375,10.875 22.296875,10.984375 22.375,11.25 C21.84375,11.828125 21,12.53125 21,12.53125 L20.25,11.59375 L19.25,11.59375 L19.25,12.90625 C19.75,12.984375 19.96875,13.203125 19.984375,13.515625 Z" transform="translate(-0.5390625, 19.921875) scale(1, -1)"/>
</svg>