<svg height="21.8125" viewBox="0 0 24 21.8125" width="24" xmlns="http://www.w3.org/2000/svg">
<path d="M19.921875,17.375 C18.5,16.75 15.8125,15.859375 13.65625,15.4375 L13.78125,15 C14.78125,15.078125 15.859375,15.1875 16.890625,15.34375 L16.890625,13.515625 L13.375,13.515625 L13.421875,13.296875 C12.765625,13.890625 11.8125,14.65625 11.8125,14.65625 L10.875,13.515625 L10.125,13.515625 L10.125,15.59375 C10.75,15.71875 11.328125,15.859375 11.8125,15.984375 C12.3125,15.765625 12.703125,15.765625 12.90625,15.953125 L11.359375,17.375 C10.109375,16.75 7.609375,15.8125 5.65625,15.34375 L5.78125,14.953125 C6.71875,15.03125 7.734375,15.171875 8.71875,15.34375 L8.71875,13.515625 L5.1875,13.515625 L5.375,12.8125 L8.140625,12.8125 C7.421875,11.046875 6.3125,9.34375 4.921875,7.984375 L5.234375,7.609375 C6.625,8.546875 7.796875,9.671875 8.71875,10.984375 L8.71875,7.296875 L8.921875,7.296875 C9.625,7.296875 10.125,7.65625 10.125,7.75 L10.125,11.734375 C10.75,11.203125 11.40625,10.390625 11.609375,9.75 C12.890625,8.875 13.9375,11.359375 10.125,12.171875 L10.125,12.8125 L12.90625,12.8125 C13.203125,12.8125 13.390625,12.90625 13.484375,13.125 L13.5625,12.8125 L16.109375,12.8125 C15.21875,11.015625 13.828125,9.34375 12.140625,8.046875 L12.40625,7.65625 C14.203125,8.640625 15.75,9.890625 16.890625,11.375 L16.890625,7.34375 L17.140625,7.34375 C17.859375,7.34375 18.359375,7.703125 18.359375,7.828125 L18.359375,12.3125 C19.15625,10.3125 20.375,8.734375 21.703125,7.78125 C21.890625,8.46875 22.3125,8.90625 22.890625,8.96875 L22.921875,9.21875 C21.4375,9.890625 19.75,11.1875 18.765625,12.8125 L22.46875,12.8125 C22.796875,12.8125 23.015625,12.9375 23.09375,13.203125 C22.375,13.84375 21.28125,14.765625 21.28125,14.765625 L20.296875,13.515625 L18.359375,13.515625 L18.359375,15.546875 C19.109375,15.703125 19.78125,15.84375 20.359375,15.953125 C20.859375,15.71875 21.265625,15.71875 21.453125,15.90625 Z M18.75,2.5625 L18.75,0.21875 L8.71875,0.21875 L8.71875,2.5625 Z M18.75,3.28125 L8.71875,3.28125 L8.71875,5.609375 L18.75,5.609375 Z M7.171875,6.3125 L7.171875,-1.828125 L7.390625,-1.828125 C8.046875,-1.828125 8.71875,-1.46875 8.71875,-1.296875 L8.71875,-0.5 L18.75,-0.5 L18.75,-1.703125 L18.984375,-1.703125 C19.484375,-1.703125 20.28125,-1.34375 20.296875,-1.171875 L20.296875,5.328125 C20.765625,5.421875 21.140625,5.59375 21.3125,5.78125 L19.390625,7.265625 L18.5,6.3125 L8.828125,6.3125 L7.171875,7.078125 Z M3.359375,18.453125 L3.359375,12.40625 C3.359375,7.734375 3.140625,2.5625 0.90625,-1.609375 L1.296875,-1.84375 C4.65625,2.28125 4.875,8.15625 4.875,12.4375 L4.875,17.765625 L22.390625,17.765625 C22.734375,17.765625 22.96875,17.875 23.046875,18.140625 C22.171875,18.890625 20.828125,19.96875 20.828125,19.96875 L19.625,18.453125 L5.15625,18.453125 L3.359375,19.3125 Z" transform="translate(0, 19.96875) scale(1, -1)"/>
</svg>