<svg height="21.625" viewBox="0 0 24 21.625" width="24" xmlns="http://www.w3.org/2000/svg">
<path d="M12.765625,16.03125 C11.90625,14.6875 10.109375,12.84375 8.421875,11.734375 L8.71875,11.421875 C10.484375,12.1875 12.3125,13.46875 13.4375,14.546875 L13.4375,11.953125 L13.625,11.953125 C14.09375,11.953125 14.8125,12.265625 14.828125,12.40625 L14.828125,17.90625 C15.3125,18 15.671875,18.1875 15.84375,18.359375 L13.984375,19.78125 L13.203125,18.859375 L8.90625,18.859375 L9.09375,18.171875 L11.28125,18.171875 C10.703125,17.203125 9.546875,15.90625 8.46875,15.140625 L8.765625,14.78125 C10.15625,15.34375 11.546875,16.296875 12.3125,17.0625 C12.859375,16.9375 13.0625,17.015625 13.203125,17.25 L11.515625,18.171875 L13.4375,18.171875 L13.4375,15.640625 Z M19.78125,16.0625 C18.953125,14.828125 17.234375,13.15625 15.671875,12.140625 L15.9375,11.8125 C17.640625,12.5 19.421875,13.609375 20.5,14.59375 L20.5,11.6875 L20.71875,11.6875 C21.171875,11.6875 21.890625,12.03125 21.90625,12.140625 L21.90625,17.90625 C22.375,18 22.75,18.1875 22.921875,18.359375 L21.078125,19.78125 L20.25,18.859375 L15.8125,18.859375 L16.03125,18.171875 L18.3125,18.171875 C17.78125,17.28125 16.65625,16.078125 15.59375,15.34375 L15.890625,15 C17.234375,15.484375 18.59375,16.34375 19.390625,17.046875 C19.890625,16.921875 20.09375,16.984375 20.234375,17.234375 L18.546875,18.171875 L20.5,18.171875 L20.5,15.640625 Z M11.921875,5.546875 L15.21875,5.546875 L15.21875,3.390625 L11.921875,3.390625 Z M11.921875,6.21875 L11.921875,8.359375 L15.21875,8.359375 L15.21875,6.21875 Z M11.921875,2.65625 L15.21875,2.65625 L15.21875,0.265625 L11.921875,0.265625 Z M11.875,12.1875 C10.84375,9.1875 9.265625,6.28125 7.75,4.484375 L8.09375,4.25 C8.90625,4.921875 9.703125,5.734375 10.4375,6.703125 L10.4375,-1.84375 L10.703125,-1.84375 C11.453125,-1.84375 11.921875,-1.484375 11.921875,-1.390625 L11.921875,-0.4375 L22.171875,-0.4375 C22.515625,-0.4375 22.75,-0.3125 22.828125,-0.046875 C22.015625,0.671875 20.78125,1.625 20.78125,1.625 L19.703125,0.265625 L16.6875,0.265625 L16.6875,2.65625 L20.953125,2.65625 C21.265625,2.65625 21.53125,2.78125 21.578125,3.046875 C20.859375,3.75 19.703125,4.625 19.703125,4.625 L18.703125,3.390625 L16.6875,3.390625 L16.6875,5.546875 L20.921875,5.546875 C21.265625,5.546875 21.484375,5.640625 21.546875,5.90625 C20.8125,6.59375 19.65625,7.484375 19.65625,7.484375 L18.625,6.21875 L16.6875,6.21875 L16.6875,8.359375 L21.75,8.359375 C22.078125,8.359375 22.3125,8.46875 22.375,8.734375 C21.59375,9.4375 20.359375,10.390625 20.359375,10.390625 L19.265625,9.046875 L16.25,9.046875 C16.78125,9.546875 17.28125,10.109375 17.65625,10.5625 C18.171875,10.53125 18.4375,10.734375 18.546875,10.984375 L16.25,11.6875 C16.109375,10.875 15.84375,9.8125 15.546875,9.046875 L12.21875,9.046875 L12.078125,9.125 C12.4375,9.71875 12.765625,10.34375 13.0625,10.984375 C13.5625,10.921875 13.84375,11.140625 13.96875,11.40625 Z M3.28125,17.203125 L6.21875,17.203125 L6.21875,11.09375 L3.28125,11.09375 Z M1.828125,17.921875 L1.828125,0.359375 L2.046875,0.359375 C2.8125,0.359375 3.28125,0.765625 3.28125,0.890625 L3.28125,3.40625 L6.21875,3.40625 L6.21875,1.484375 L6.4375,1.484375 C6.953125,1.484375 7.6875,1.890625 7.703125,2.046875 L7.703125,16.921875 C8.1875,17.015625 8.5625,17.203125 8.71875,17.40625 L6.84375,18.890625 L5.96875,17.921875 L3.59375,17.921875 L1.828125,18.671875 Z M3.28125,10.390625 L6.21875,10.390625 L6.21875,4.109375 L3.28125,4.109375 Z" transform="translate(-0.375, 19.78125) scale(1, -1)"/>
</svg>