<svg height="21.640625" viewBox="0 0 24 21.640625" width="24" xmlns="http://www.w3.org/2000/svg">
<path d="M8.765625,13.78125 L8.953125,13.109375 L13.296875,13.109375 L13.296875,12.171875 L13.484375,12.171875 C13.96875,12.171875 14.71875,12.484375 14.734375,12.625 L14.734375,17.90625 C15.1875,18 15.546875,18.1875 15.71875,18.359375 L13.875,19.796875 L13.0625,18.859375 L8.96875,18.859375 L9.1875,18.171875 L13.296875,18.171875 L13.296875,16.375 L9.1875,16.375 L9.40625,15.640625 L13.296875,15.640625 L13.296875,13.78125 Z M15.890625,13.78125 L16.109375,13.109375 L20.453125,13.109375 L20.453125,11.921875 L20.65625,11.921875 C21.140625,11.921875 21.890625,12.265625 21.90625,12.40625 L21.90625,17.90625 C22.390625,18 22.78125,18.1875 22.9375,18.359375 L21.046875,19.796875 L20.203125,18.859375 L16.015625,18.859375 L16.21875,18.171875 L20.453125,18.171875 L20.453125,16.34375 L16.34375,16.34375 L16.5625,15.640625 L20.453125,15.640625 L20.453125,13.78125 Z M11.546875,6.046875 L15.1875,6.046875 L15.1875,3.765625 L11.546875,3.765625 Z M11.546875,6.765625 L11.546875,8.96875 L15.1875,8.96875 L15.1875,6.765625 Z M11.546875,3.046875 L15.1875,3.046875 L15.1875,0.484375 L11.546875,0.484375 Z M1.828125,17.921875 L1.828125,0.359375 L2.046875,0.359375 C2.8125,0.359375 3.28125,0.765625 3.28125,0.890625 L3.28125,3.40625 L6.21875,3.40625 L6.21875,1.484375 L6.4375,1.484375 C6.953125,1.484375 7.6875,1.890625 7.703125,2.046875 L7.703125,6.03125 L7.96875,5.8125 C8.6875,6.3125 9.390625,6.953125 10.0625,7.703125 L10.0625,-1.84375 L10.3125,-1.84375 C11.046875,-1.84375 11.546875,-1.484375 11.546875,-1.375 L11.546875,-0.234375 L22.484375,-0.234375 C22.828125,-0.234375 23.046875,-0.125 23.109375,0.140625 C22.3125,0.859375 21.078125,1.828125 21.078125,1.828125 L19.96875,0.484375 L16.625,0.484375 L16.625,3.046875 L21.546875,3.046875 C21.890625,3.046875 22.109375,3.171875 22.171875,3.4375 C21.453125,4.109375 20.296875,5.015625 20.296875,5.015625 L19.296875,3.765625 L16.625,3.765625 L16.625,6.046875 L21.546875,6.046875 C21.859375,6.046875 22.078125,6.171875 22.15625,6.4375 C21.40625,7.125 20.234375,8.046875 20.234375,8.046875 L19.21875,6.765625 L16.625,6.765625 L16.625,8.96875 L22.015625,8.96875 C22.375,8.96875 22.578125,9.09375 22.65625,9.359375 C21.859375,10.078125 20.640625,11.046875 20.640625,11.046875 L19.5625,9.703125 L16.03125,9.703125 C16.578125,10.3125 17.09375,10.96875 17.421875,11.546875 C17.921875,11.515625 18.21875,11.734375 18.3125,12 L16.078125,12.578125 C15.859375,11.734375 15.546875,10.609375 15.1875,9.703125 L11.828125,9.703125 L11.65625,9.765625 C12.046875,10.34375 12.40625,10.9375 12.75,11.5625 C13.25,11.515625 13.53125,11.71875 13.65625,11.953125 L11.5,12.84375 C10.5625,10.203125 9.078125,7.6875 7.703125,6.125 L7.703125,16.921875 C8.1875,17.015625 8.5625,17.203125 8.71875,17.40625 L6.84375,18.890625 L5.96875,17.921875 L3.59375,17.921875 L1.828125,18.671875 Z M3.28125,17.203125 L6.21875,17.203125 L6.21875,11.09375 L3.28125,11.09375 Z M3.28125,10.390625 L6.21875,10.390625 L6.21875,4.109375 L3.28125,4.109375 Z" transform="translate(-0.46875, 19.796875) scale(1, -1)"/>
</svg>