<svg height="21.703125" viewBox="0 0 24 21.703125" width="24" xmlns="http://www.w3.org/2000/svg">
<path d="M7.4375,5.375 L7.96875,5.953125 L7.21875,6.3125 L7.015625,5.5625 C6.34375,4.9375 5.0625,3.984375 4.3125,3.5 L5.515625,2.046875 C5.65625,2.1875 5.765625,2.40625 5.609375,2.609375 C6.03125,3.1875 6.703125,4.203125 7.15625,4.921875 C7.6875,4.0625 8.25,3.3125 8.953125,2.640625 C7.4375,1.0625 5.046875,-0.265625 1.3125,-1.46875 L1.515625,-1.875 C5.515625,-0.953125 8.15625,0.265625 9.859375,1.828125 C12.671875,-0.390625 16.625,-1.375 21.703125,-1.84375 C21.84375,-1.109375 22.3125,-0.578125 22.984375,-0.4375 L23.015625,-0.171875 C17.921875,0 13.609375,0.703125 10.5625,2.5 C11.734375,3.84375 12.359375,5.40625 12.640625,7.15625 L18.3125,7.15625 L18.3125,5.953125 L18.546875,5.953125 C19.078125,5.953125 19.875,6.3125 19.890625,6.453125 L19.890625,13.921875 C20.375,14.015625 20.765625,14.203125 20.921875,14.40625 L18.953125,15.890625 L18.078125,14.921875 L12.859375,14.921875 L12.859375,17.609375 L22.0625,17.609375 C22.390625,17.609375 22.65625,17.734375 22.703125,18 C21.84375,18.765625 20.46875,19.828125 20.46875,19.828125 L19.25,18.3125 L1.390625,18.3125 L1.578125,17.609375 L11.296875,17.609375 L11.296875,14.921875 L5.96875,14.921875 L4.25,15.703125 L4.25,5.765625 L4.484375,5.765625 C5.140625,5.765625 5.8125,6.125 5.8125,6.28125 L5.8125,7.15625 L11.09375,7.15625 C10.84375,5.65625 10.34375,4.390625 9.453125,3.234375 C8.65625,3.84375 7.984375,4.5625 7.4375,5.375 Z M18.3125,14.234375 L18.3125,11.453125 L12.859375,11.453125 L12.859375,14.234375 Z M5.8125,7.84375 L5.8125,10.734375 L11.296875,10.734375 L11.296875,10.0625 C11.296875,9.265625 11.28125,8.546875 11.1875,7.84375 Z M5.8125,11.453125 L5.8125,14.234375 L11.296875,14.234375 L11.296875,11.453125 Z M18.3125,7.84375 L12.75,7.84375 C12.84375,8.5625 12.859375,9.34375 12.859375,10.125 L12.859375,10.734375 L18.3125,10.734375 Z" transform="translate(-0.1640625, 19.828125) scale(1, -1)"/>
</svg>