<svg height="21.140625" viewBox="0 0 24 21.140625" width="24" xmlns="http://www.w3.org/2000/svg">
<path d="M5.96875,18.265625 L5.96875,10.734375 C5.96875,5.921875 5.296875,1.703125 1.390625,-1.578125 L1.703125,-1.84375 C5.375,0.390625 6.765625,3.453125 7.296875,6.671875 L15.5,6.671875 C15.84375,6.671875 16.0625,6.796875 16.125,7.0625 C15.390625,7.75 14.15625,8.765625 14.15625,8.765625 L13.078125,7.34375 L7.390625,7.34375 C7.515625,8.46875 7.5625,9.625 7.5625,10.75 L7.5625,12.140625 L15.484375,12.140625 C15.8125,12.140625 16.03125,12.265625 16.109375,12.53125 C15.359375,13.25 14.15625,14.234375 14.15625,14.234375 L13.078125,12.859375 L7.5625,12.859375 L7.5625,17.546875 L16.984375,17.546875 L16.984375,0.71875 C16.984375,0.3125 16.84375,0.140625 16.34375,0.140625 C15.75,0.140625 12.8125,0.359375 12.8125,0.359375 L12.8125,-0.03125 C14.0625,-0.1875 14.8125,-0.390625 15.21875,-0.671875 C15.578125,-0.9375 15.75,-1.34375 15.84375,-1.875 C18.3125,-1.625 18.578125,-0.765625 18.578125,0.53125 L18.578125,17.234375 C19.0625,17.296875 19.46875,17.515625 19.625,17.71875 L17.5625,19.265625 L16.75,18.265625 L7.875,18.265625 L5.96875,19.0625 Z" transform="translate(1.4921875, 19.265625) scale(1, -1)"/>
</svg>