<svg height="21.0625" viewBox="0 0 24 21.0625" width="24" xmlns="http://www.w3.org/2000/svg">
<path d="M5.109375,14.59375 L4.875,14.359375 C5.96875,13.703125 7.296875,12.453125 7.703125,11.453125 C9.265625,10.5625 10.0625,13.75 5.109375,14.59375 Z M5.109375,9.140625 L4.875,8.921875 C5.921875,8.25 7.15625,6.953125 7.484375,5.875 C9.03125,4.96875 9.9375,8.15625 5.109375,9.140625 Z M15.71875,14.65625 L15.5,14.421875 C16.625,13.75 18,12.484375 18.390625,11.421875 C19.9375,10.53125 20.734375,13.75 15.71875,14.65625 Z M15.75,9.1875 L15.5,8.96875 C16.609375,8.25 17.90625,6.890625 18.234375,5.78125 C19.828125,4.84375 20.765625,8.046875 15.75,9.1875 Z M13.53125,18.171875 L13.53125,10.171875 C13.53125,5.875 13.34375,1.703125 11.046875,-1.53125 L11.453125,-1.78125 C14.8125,1.390625 15.046875,6.09375 15.046875,10.203125 L15.046875,17.46875 L20.015625,17.46875 L20.015625,0.578125 C20.015625,0.1875 19.875,0.046875 19.46875,0.046875 C18.953125,0.046875 16.5625,0.234375 16.5625,0.234375 L16.5625,-0.140625 C17.609375,-0.28125 18.1875,-0.484375 18.546875,-0.75 C18.859375,-0.984375 19.015625,-1.390625 19.078125,-1.890625 C21.28125,-1.65625 21.546875,-0.859375 21.546875,0.40625 L21.546875,17.15625 C22.015625,17.25 22.421875,17.46875 22.578125,17.65625 L20.5625,19.171875 L19.78125,18.171875 L15.34375,18.171875 L13.53125,18.953125 Z M3.1875,18.171875 L3.1875,10.125 C3.1875,5.828125 2.953125,1.65625 0.640625,-1.5625 L1.03125,-1.828125 C4.4375,1.34375 4.6875,6.046875 4.6875,10.15625 L4.6875,17.46875 L9.359375,17.46875 L9.359375,0.59375 C9.359375,0.234375 9.265625,0.09375 8.828125,0.09375 C8.40625,0.09375 6.234375,0.265625 6.234375,0.265625 L6.234375,-0.125 C7.203125,-0.265625 7.75,-0.4375 8.09375,-0.703125 C8.375,-0.9375 8.5,-1.375 8.5625,-1.84375 C10.625,-1.625 10.890625,-0.84375 10.890625,0.4375 L10.890625,17.15625 C11.375,17.25 11.78125,17.46875 11.953125,17.65625 L9.9375,19.171875 L9.125,18.171875 L4.96875,18.171875 L3.1875,18.953125 Z" transform="translate(0.390625, 19.171875) scale(1, -1)"/>
</svg>