<svg height="21.65625" viewBox="0 0 24 21.65625" width="24" xmlns="http://www.w3.org/2000/svg">
<path d="M4.609375,4.53125 C3.75,2.0625 2.28125,-0.171875 0.84375,-1.515625 L1.15625,-1.796875 C3,-0.765625 4.734375,0.953125 5.96875,3.1875 C6.453125,3.125 6.765625,3.28125 6.890625,3.578125 Z M8.421875,4.3125 L8.15625,4.125 C9.140625,3.21875 10.34375,1.65625 10.625,0.40625 C12.1875,-0.75 13.421875,2.59375 8.421875,4.3125 Z M14.5,18.59375 L14.5,10.296875 C14.5,5.765625 14.09375,1.609375 11.0625,-1.5625 L11.421875,-1.828125 C14.59375,0.53125 15.578125,3.8125 15.859375,7.203125 L19.625,7.203125 C19.921875,7.203125 20.15625,7.296875 20.203125,7.5625 C19.625,8.1875 18.625,8.96875 18.625,8.96875 L17.8125,7.890625 L15.90625,7.890625 C15.953125,8.71875 15.984375,9.53125 15.984375,10.3125 L15.984375,12.625 L19.625,12.625 C19.921875,12.625 20.15625,12.75 20.203125,13.015625 C19.625,13.609375 18.625,14.421875 18.625,14.421875 L17.8125,13.34375 L15.984375,13.34375 L15.984375,17.90625 L20.546875,17.90625 L20.546875,0.671875 C20.546875,0.28125 20.40625,0.140625 19.96875,0.140625 C19.484375,0.140625 17.109375,0.3125 17.109375,0.3125 L17.109375,-0.078125 C18.140625,-0.21875 18.75,-0.390625 19.109375,-0.640625 C19.421875,-0.890625 19.5625,-1.3125 19.609375,-1.828125 C21.8125,-1.578125 22.0625,-0.796875 22.0625,0.484375 L22.0625,17.609375 C22.53125,17.6875 22.9375,17.90625 23.09375,18.09375 L21.09375,19.609375 L20.296875,18.59375 L16.265625,18.59375 L14.5,19.390625 Z M9.453125,19.828125 L9.453125,16.375 L5.046875,16.375 L5.046875,18.9375 C5.59375,19.03125 5.78125,19.25 5.828125,19.53125 L3.546875,19.796875 L3.546875,16.375 L1.25,16.375 L1.4375,15.640625 L3.546875,15.640625 L3.546875,5.8125 L0.796875,5.8125 L0.984375,5.109375 L13.4375,5.109375 C13.75,5.109375 13.96875,5.234375 14.046875,5.5 C13.375,6.1875 12.265625,7.125 12.265625,7.125 L11.296875,5.8125 L10.96875,5.8125 L10.96875,15.640625 L13.203125,15.640625 C13.53125,15.640625 13.734375,15.765625 13.78125,16.03125 C13.203125,16.6875 12.140625,17.5625 12.140625,17.5625 L11.28125,16.375 L10.96875,16.375 L10.96875,18.890625 C11.546875,18.984375 11.765625,19.21875 11.828125,19.5625 Z M5.046875,15.640625 L9.453125,15.640625 L9.453125,13.03125 L5.046875,13.03125 Z M5.046875,5.8125 L5.046875,8.828125 L9.453125,8.828125 L9.453125,5.8125 Z M5.046875,12.34375 L9.453125,12.34375 L9.453125,9.53125 L5.046875,9.53125 Z" transform="translate(0.0546875, 19.828125) scale(1, -1)"/>
</svg>