<svg height="21.984375" viewBox="0 0 24 21.984375" width="24" xmlns="http://www.w3.org/2000/svg">
<path d="M12.1875,18.03125 C11.734375,16.03125 10.53125,13.4375 8.859375,11.828125 L9.09375,11.546875 C11.25,12.8125 12.8125,15 13.703125,16.78125 C14.234375,16.734375 14.421875,16.84375 14.546875,17.109375 Z M9.34375,7.578125 L9.53125,6.890625 L14.5,6.890625 C13.96875,3.578125 12.53125,0.765625 8.40625,-1.53125 L8.734375,-1.9375 C13.703125,0.28125 15.4375,3.234375 16.078125,6.890625 L16.125,6.890625 C16.65625,3.859375 17.96875,0.234375 21.84375,-1.796875 C22.015625,-0.859375 22.484375,-0.578125 23.28125,-0.453125 L23.359375,-0.1875 C19.0625,1.5625 17.296875,4.21875 16.625,6.890625 L22.625,6.890625 C22.96875,6.890625 23.1875,7.015625 23.25,7.265625 C22.484375,7.984375 21.234375,9.03125 21.234375,9.03125 L20.140625,7.578125 L16.203125,7.578125 C16.390625,8.953125 16.4375,10.421875 16.484375,11.953125 L20.15625,11.953125 C20.5,11.953125 20.734375,12.078125 20.8125,12.34375 C20.046875,13.0625 18.84375,14.015625 18.84375,14.015625 L17.8125,12.671875 L11.453125,12.671875 L11.640625,11.953125 L14.828125,11.953125 C14.8125,10.421875 14.765625,8.953125 14.59375,7.578125 Z M4.015625,18.046875 L7.125,18.046875 L7.125,12.9375 C6.890625,13.578125 6.03125,14.40625 4.015625,14.78125 Z M2.515625,18.75 L2.515625,11.640625 C2.515625,7.171875 2.5,2.25 0.8125,-1.6875 L1.203125,-1.890625 C3.34375,1.109375 3.84375,5.0625 3.953125,8.609375 C4.84375,7.828125 5.765625,6.71875 6,5.78125 C6.546875,5.375 7.0625,5.609375 7.125,6.171875 L7.125,0.59375 C7.125,0.234375 7.015625,0.09375 6.578125,0.09375 C6.140625,0.09375 4.015625,0.265625 4.015625,0.265625 L4.015625,-0.125 C4.96875,-0.265625 5.515625,-0.4375 5.8125,-0.703125 C6.125,-0.9375 6.21875,-1.390625 6.28125,-1.84375 C8.375,-1.625 8.609375,-0.84375 8.609375,0.40625 L8.609375,17.8125 C9.078125,17.90625 9.40625,18.078125 9.578125,18.234375 L7.65625,19.734375 L6.90625,18.75 L4.3125,18.75 L2.515625,19.53125 Z M4.015625,14.296875 C4.875,13.734375 5.78125,12.84375 6.125,12.046875 C6.59375,11.765625 7.015625,11.90625 7.125,12.265625 L7.125,6.546875 C6.984375,7.3125 6.140625,8.40625 3.984375,9.140625 L4.015625,11.640625 Z M12.984375,18.984375 L13.203125,18.28125 L17.875,18.28125 C18.5,15.765625 19.921875,13.578125 21.953125,12.09375 C22.125,12.703125 22.703125,13.203125 23.296875,13.375 L23.359375,13.625 C21.125,14.640625 19.265625,16.421875 18.5,18.234375 C19.21875,18.265625 19.796875,18.4375 20.0625,18.703125 L18.09375,20.046875 L17.375,18.984375 Z" transform="translate(-0.0859375, 20.046875) scale(1, -1)"/>
</svg>