<svg height="21.703125" viewBox="0 0 24 21.703125" width="24" xmlns="http://www.w3.org/2000/svg">
<path d="M4.578125,4.21875 C3.71875,1.796875 2.28125,-0.34375 0.84375,-1.5625 L1.15625,-1.875 C2.953125,-0.890625 4.703125,0.71875 5.921875,2.859375 C6.4375,2.78125 6.75,2.953125 6.859375,3.21875 Z M8.40625,4.078125 L8.140625,3.890625 C9.09375,3 10.25,1.484375 10.515625,0.28125 C12.09375,-0.84375 13.3125,2.453125 8.40625,4.078125 Z M9.390625,19.828125 L9.390625,16.375 L5.046875,16.375 L5.046875,18.9375 C5.59375,19.03125 5.78125,19.25 5.828125,19.53125 L3.546875,19.796875 L3.546875,16.375 L1.25,16.375 L1.4375,15.640625 L3.546875,15.640625 L3.546875,5.59375 L0.796875,5.59375 L0.984375,4.890625 L13.4375,4.890625 C13.75,4.890625 13.96875,5.015625 14.046875,5.28125 C13.375,5.953125 12.265625,6.90625 12.265625,6.90625 L11.296875,5.59375 L10.890625,5.59375 L10.890625,15.640625 L13.203125,15.640625 C13.53125,15.640625 13.734375,15.765625 13.78125,16.03125 C13.203125,16.6875 12.140625,17.5625 12.140625,17.5625 L11.28125,16.375 L10.890625,16.375 L10.890625,18.890625 C11.5,18.984375 11.71875,19.21875 11.765625,19.5625 Z M5.046875,15.640625 L9.390625,15.640625 L9.390625,12.9375 L5.046875,12.9375 Z M5.046875,5.59375 L5.046875,8.65625 L9.390625,8.65625 L9.390625,5.59375 Z M5.046875,12.234375 L9.390625,12.234375 L9.390625,9.359375 L5.046875,9.359375 Z M20.546875,17.90625 L20.546875,13.375 L16.03125,13.375 L16.03125,17.90625 Z M14.515625,18.59375 L14.515625,10.296875 C14.515625,5.765625 14.109375,1.609375 11.09375,-1.5625 L11.453125,-1.828125 C14.609375,0.53125 15.625,3.796875 15.90625,7.171875 L20.546875,7.171875 L20.546875,0.671875 C20.546875,0.28125 20.40625,0.140625 19.96875,0.140625 C19.484375,0.140625 17.109375,0.3125 17.109375,0.3125 L17.109375,-0.078125 C18.140625,-0.21875 18.75,-0.390625 19.109375,-0.640625 C19.421875,-0.890625 19.5625,-1.3125 19.609375,-1.828125 C21.8125,-1.578125 22.0625,-0.796875 22.0625,0.484375 L22.0625,17.609375 C22.53125,17.6875 22.9375,17.90625 23.09375,18.09375 L21.09375,19.609375 L20.296875,18.59375 L16.3125,18.59375 L14.515625,19.390625 Z M20.546875,12.640625 L20.546875,7.84375 L15.953125,7.84375 C16.015625,8.65625 16.03125,9.5 16.03125,10.3125 L16.03125,12.640625 Z" transform="translate(0.0546875, 19.828125) scale(1, -1)"/>
</svg>