<svg height="21.984375" viewBox="0 0 24 21.984375" width="24" xmlns="http://www.w3.org/2000/svg">
<path d="M13.703125,18.1875 L13.703125,10.109375 C13.703125,5.5 13.171875,1.46875 9.71875,-1.625 L10.0625,-1.921875 C14.046875,0.671875 14.96875,4.421875 15.171875,8.25 C16.421875,7.4375 17.90625,6.125 18.390625,4.984375 C19.984375,4.0625 20.765625,7.34375 15.1875,8.6875 L15.21875,10.125 L15.21875,13.78125 C16.484375,13.109375 18,12.03125 18.625,11.0625 C20.234375,10.296875 20.765625,13.390625 15.21875,14.15625 L15.21875,17.46875 L20.28125,17.46875 L20.28125,0.578125 C20.28125,0.1875 20.140625,0.03125 19.6875,0.03125 C19.171875,0.03125 16.6875,0.234375 16.6875,0.234375 L16.6875,-0.140625 C17.78125,-0.28125 18.390625,-0.484375 18.75,-0.75 C19.109375,-0.984375 19.25,-1.390625 19.296875,-1.875 C21.546875,-1.625 21.796875,-0.84375 21.796875,0.40625 L21.796875,17.109375 C22.3125,17.203125 22.75,17.421875 22.9375,17.640625 L20.828125,19.21875 L20.015625,18.1875 L15.5,18.1875 L13.703125,18.953125 Z M2.359375,13.890625 L2.359375,5.46875 L2.59375,5.46875 C3.1875,5.46875 3.84375,5.78125 3.84375,5.953125 L3.84375,6.703125 L6.03125,6.703125 L6.03125,3.984375 L1.03125,3.984375 L1.21875,3.265625 L6.03125,3.265625 L6.03125,-1.890625 L6.265625,-1.890625 C7.0625,-1.890625 7.5625,-1.515625 7.5625,-1.390625 L7.5625,3.265625 L12.234375,3.265625 C12.578125,3.265625 12.8125,3.390625 12.890625,3.640625 C12.140625,4.3125 10.984375,5.25 10.984375,5.25 L10.015625,3.984375 L7.5625,3.984375 L7.5625,6.703125 L9.765625,6.703125 L9.765625,5.6875 L10.015625,5.6875 C10.515625,5.6875 11.28125,6.078125 11.296875,6.234375 L11.296875,12.9375 C11.78125,13.015625 12.171875,13.21875 12.28125,13.390625 L10.390625,14.859375 L9.53125,13.890625 L7.5625,13.890625 L7.5625,16.3125 L12.359375,16.3125 C12.703125,16.3125 12.9375,16.4375 13.015625,16.703125 C12.234375,17.40625 11.015625,18.40625 11.015625,18.40625 L9.9375,17.015625 L7.5625,17.015625 L7.5625,19.21875 C8.109375,19.3125 8.328125,19.53125 8.375,19.84375 L6.03125,20.0625 L6.03125,17.015625 L1.03125,17.015625 L1.21875,16.3125 L6.03125,16.3125 L6.03125,13.890625 L3.953125,13.890625 L2.359375,14.640625 Z M9.765625,7.375 L3.84375,7.375 L3.84375,9.953125 L9.765625,9.953125 Z M9.765625,10.625 L3.84375,10.625 L3.84375,13.21875 L9.765625,13.21875 Z" transform="translate(0.015625, 20.0625) scale(1, -1)"/>
</svg>