<svg height="21.984375" viewBox="0 0 24 21.984375" width="24" xmlns="http://www.w3.org/2000/svg">
<path d="M5.25,15.140625 L4.96875,15 C5.875,13.75 6.9375,11.828125 7.03125,10.296875 C8.640625,8.859375 10.203125,12.5 5.25,15.140625 Z M17.1875,15.125 C16.4375,13.21875 15.390625,11.234375 14.5625,10.015625 L14.90625,9.765625 C16.125,10.703125 17.515625,12.21875 18.59375,13.703125 C19.078125,13.609375 19.421875,13.796875 19.53125,14.0625 Z M11.140625,20.109375 L11.140625,16.296875 L2.28125,16.296875 L2.46875,15.578125 L11.140625,15.578125 L11.140625,9.28125 L1.109375,9.28125 L1.3125,8.59375 L9.984375,8.59375 C8.015625,5.25 4.65625,1.890625 0.84375,-0.34375 L1.078125,-0.71875 C5.234375,1.171875 8.765625,3.953125 11.140625,7.265625 L11.140625,-1.875 L11.453125,-1.875 C12.046875,-1.875 12.71875,-1.46875 12.71875,-1.21875 L12.71875,8.28125 C14.6875,4.375 18.078125,1.265625 21.671875,-0.40625 C21.859375,0.34375 22.4375,0.84375 23.109375,0.9375 L23.140625,1.171875 C19.421875,2.421875 15.34375,5.28125 13.125,8.59375 L22.21875,8.59375 C22.578125,8.59375 22.796875,8.71875 22.875,8.953125 C21.984375,9.765625 20.59375,10.796875 20.59375,10.796875 L19.375,9.28125 L12.71875,9.28125 L12.71875,15.578125 L21.1875,15.578125 C21.53125,15.578125 21.75,15.703125 21.8125,15.953125 C20.96875,16.75 19.625,17.765625 19.625,17.765625 L18.40625,16.296875 L12.71875,16.296875 L12.71875,19.171875 C13.34375,19.265625 13.53125,19.515625 13.609375,19.84375 Z" transform="translate(0.0078125, 20.109375) scale(1, -1)"/>
</svg>