<svg height="22.921875" viewBox="0 0 24 22.921875" width="24" xmlns="http://www.w3.org/2000/svg">
<path d="M13.0625,19.84375 C12.453125,15.90625 11.09375,12.3125 9.34375,9.953125 L9.703125,9.71875 C11.953125,11.734375 13.625,14.90625 14.609375,18.703125 C15.140625,18.703125 15.4375,18.9375 15.484375,19.21875 Z M18,20.046875 L17.515625,19.828125 C18.1875,15.984375 19.6875,12.03125 21.84375,9.625 C21.984375,10.34375 22.484375,10.84375 23.203125,11.109375 L23.28125,11.40625 C20.96875,13.265625 18.8125,16.609375 18,20.046875 Z M5.046875,20.0625 L5.046875,14.546875 L1.125,14.546875 L1.3125,13.828125 L4.703125,13.828125 C3.953125,10.21875 2.640625,6.640625 0.640625,3.9375 L0.953125,3.625 C2.71875,5.40625 4.0625,7.484375 5.046875,9.796875 L5.046875,-1.84375 L5.375,-1.84375 C5.921875,-1.84375 6.59375,-1.484375 6.59375,-1.265625 L6.59375,10.015625 C7.53125,9 8.59375,7.53125 8.875,6.4375 C10.421875,5.328125 11.59375,8.421875 6.59375,10.484375 L6.59375,13.828125 L10.015625,13.828125 C10.34375,13.828125 10.53125,13.9375 10.609375,14.203125 C9.9375,14.921875 8.78125,15.90625 8.78125,15.90625 L7.75,14.546875 L6.59375,14.546875 L6.59375,19.15625 C7.203125,19.25 7.390625,19.46875 7.46875,19.828125 Z M17.828125,6.34375 L17.5,6.171875 C18.34375,4.984375 19.34375,3.453125 20.109375,1.921875 L12.671875,1.25 C14.140625,4.265625 15.5,7.96875 16.21875,10.6875 C16.796875,10.703125 17.046875,10.9375 17.109375,11.234375 L14.5625,11.765625 C14.0625,8.609375 13.078125,4.421875 12.078125,1.203125 C10.6875,1.109375 9.546875,1.015625 8.765625,0.984375 L9.890625,-1.078125 C10.109375,-1.03125 10.34375,-0.859375 10.46875,-0.59375 C14.8125,0.21875 18,0.890625 20.359375,1.421875 C20.8125,0.484375 21.140625,-0.484375 21.28125,-1.296875 C23.15625,-2.859375 24.40625,1.625 17.828125,6.34375 Z" transform="translate(-0.5234375, 20.0625) scale(1, -1)"/>
</svg>