<svg height="22.125" viewBox="0 0 24 22.125" width="24" xmlns="http://www.w3.org/2000/svg">
<path d="M4.828125,20.234375 L4.828125,14.59375 L1.03125,14.59375 L1.21875,13.890625 L4.484375,13.890625 C3.84375,10.34375 2.609375,6.765625 0.765625,4.015625 L1.109375,3.703125 C2.6875,5.453125 3.90625,7.46875 4.828125,9.703125 L4.828125,-1.890625 L5.140625,-1.890625 C5.71875,-1.890625 6.359375,-1.53125 6.359375,-1.296875 L6.359375,10.421875 C7.125,9.4375 8.046875,8.015625 8.328125,6.984375 C9.796875,5.90625 10.984375,8.78125 6.359375,10.921875 L6.359375,13.890625 L9.484375,13.890625 C9.8125,13.890625 10.03125,14.015625 10.109375,14.28125 C9.40625,15 8.25,15.984375 8.25,15.984375 L7.25,14.59375 L6.359375,14.59375 L6.359375,19.296875 C6.984375,19.390625 7.15625,19.609375 7.21875,19.9375 Z M19.9375,13.109375 L19.9375,7.609375 L12.359375,7.609375 C12.40625,8.546875 12.4375,9.453125 12.4375,10.34375 L12.4375,13.109375 Z M20.046875,19.921875 C18.390625,19.15625 15.28125,18.140625 12.59375,17.5 L10.875,18.09375 L10.875,10.34375 C10.875,6.09375 10.578125,1.828125 8.0625,-1.578125 L8.421875,-1.84375 C11.140625,0.546875 12.03125,3.796875 12.3125,6.90625 L19.9375,6.90625 L19.9375,5.359375 L20.1875,5.359375 C20.6875,5.359375 21.484375,5.71875 21.5,5.828125 L21.5,12.8125 C21.953125,12.90625 22.34375,13.109375 22.515625,13.296875 L20.59375,14.765625 L19.703125,13.796875 L12.4375,13.796875 L12.4375,16.921875 C15.34375,17.203125 18.5,17.8125 20.59375,18.3125 C21.171875,18.09375 21.59375,18.078125 21.796875,18.265625 Z" transform="translate(0.359375, 20.234375) scale(1, -1)"/>
</svg>