<svg height="22.125" viewBox="0 0 24 22.125" width="24" xmlns="http://www.w3.org/2000/svg">
<path d="M13.03125,6.90625 L12.859375,6.546875 C14.765625,5.640625 16.21875,4.3125 16.75,3.53125 C18.4375,2.8125 19.3125,6.1875 13.03125,6.90625 Z M11.0625,0.09375 L12.390625,-1.84375 C12.59375,-1.78125 12.796875,-1.5625 12.859375,-1.265625 C17.046875,0.3125 19.96875,1.609375 22.0625,2.546875 L21.953125,2.90625 C17.375,1.6875 12.984375,0.5 11.0625,0.09375 Z M4.796875,20.203125 L4.796875,14.71875 L1.109375,14.71875 L1.296875,13.984375 L4.484375,13.984375 C3.796875,10.421875 2.59375,6.859375 0.71875,4.109375 L1.0625,3.796875 C2.65625,5.546875 3.890625,7.5625 4.796875,9.765625 L4.796875,-1.921875 L5.140625,-1.921875 C5.71875,-1.921875 6.34375,-1.5625 6.34375,-1.3125 L6.34375,11.1875 C7.125,10.171875 8.046875,8.78125 8.328125,7.75 C9.796875,6.640625 11.015625,9.546875 6.34375,11.6875 L6.34375,13.984375 L9.453125,13.984375 C9.796875,13.984375 10.015625,14.109375 10.078125,14.375 C9.390625,15.09375 8.234375,16.078125 8.234375,16.078125 L7.25,14.71875 L6.34375,14.71875 L6.34375,19.265625 C6.953125,19.375 7.15625,19.578125 7.21875,19.9375 Z M18.59375,16.21875 C17.921875,14.609375 17.015625,13.078125 15.859375,11.65625 C14.734375,12.71875 13.796875,13.875 13.0625,15.09375 L13.828125,16.21875 Z M13.75,20.140625 C12.59375,16.5625 10.5625,13.3125 8.5,11.40625 L8.8125,11.109375 C10.203125,12 11.515625,13.171875 12.671875,14.609375 C13.34375,13.265625 14.15625,12 15.140625,10.84375 C13.15625,8.65625 10.609375,6.84375 7.609375,5.546875 L7.828125,5.1875 C11.1875,6.3125 13.875,7.921875 16.015625,9.890625 C17.5625,8.25 19.53125,6.84375 21.984375,5.71875 C22.171875,6.5 22.6875,6.9375 23.359375,7.109375 L23.40625,7.375 C20.828125,8.203125 18.671875,9.359375 16.890625,10.78125 C18.390625,12.359375 19.5625,14.109375 20.421875,16.015625 C21,16.03125 21.265625,16.078125 21.453125,16.3125 L19.703125,17.921875 L18.625,16.921875 L14.25,16.921875 C14.609375,17.515625 14.921875,18.140625 15.234375,18.8125 C15.75,18.765625 16.03125,18.953125 16.15625,19.21875 Z" transform="translate(-0.0625, 20.203125) scale(1, -1)"/>
</svg>