<svg height="21.90625" viewBox="0 0 24 21.90625" width="24" xmlns="http://www.w3.org/2000/svg">
<path d="M9.75,13.921875 L9.75,-1.828125 L10.015625,-1.828125 C10.65625,-1.828125 11.1875,-1.4375 11.1875,-1.25 L11.1875,13.21875 L14.953125,13.21875 C14.8125,10.296875 14.1875,6.984375 11.546875,4.203125 L11.828125,3.90625 C14.296875,5.71875 15.453125,8.046875 15.984375,10.296875 C17.15625,8.640625 18.4375,6.453125 18.765625,4.78125 C20.296875,3.453125 21.4375,7.015625 16.109375,10.984375 C16.25,11.765625 16.3125,12.5 16.375,13.21875 L20.65625,13.21875 L20.65625,0.625 C20.65625,0.265625 20.546875,0.09375 20.09375,0.09375 C19.578125,0.09375 17.046875,0.3125 17.046875,0.3125 L17.046875,-0.09375 C18.140625,-0.234375 18.75,-0.4375 19.125,-0.671875 C19.46875,-0.9375 19.609375,-1.34375 19.6875,-1.828125 C21.90625,-1.578125 22.15625,-0.765625 22.15625,0.4375 L22.15625,12.9375 C22.625,13.03125 23.015625,13.21875 23.1875,13.421875 L21.21875,14.90625 L20.421875,13.921875 L16.390625,13.921875 L16.390625,14.65625 L16.390625,17.5625 L22.703125,17.5625 C23.0625,17.5625 23.28125,17.6875 23.359375,17.953125 C22.53125,18.703125 21.1875,19.75 21.1875,19.75 L20.046875,18.265625 L9,18.265625 L9.1875,17.5625 L14.96875,17.5625 L14.96875,14.65625 L14.96875,13.921875 L11.328125,13.921875 L9.75,14.6875 Z M4.421875,20.0625 L4.421875,14.453125 L0.9375,14.453125 L1.125,13.75 L4.125,13.75 C3.5,10.171875 2.328125,6.671875 0.453125,3.9375 L0.84375,3.59375 C2.375,5.28125 3.546875,7.171875 4.421875,9.265625 L4.421875,-1.84375 L4.75,-1.84375 C5.328125,-1.84375 5.96875,-1.515625 5.96875,-1.265625 L5.96875,10.421875 C6.703125,9.453125 7.484375,8.109375 7.75,7.109375 C9.171875,5.96875 10.484375,8.828125 5.96875,10.96875 L5.96875,13.75 L8.875,13.75 C9.171875,13.75 9.40625,13.875 9.484375,14.140625 C8.765625,14.859375 7.53125,15.84375 7.53125,15.84375 L6.5,14.453125 L5.96875,14.453125 L5.96875,19.125 C6.578125,19.21875 6.765625,19.4375 6.84375,19.796875 Z" transform="translate(0.09375, 20.0625) scale(1, -1)"/>
</svg>