<svg height="22.5625" viewBox="0 0 24 22.5625" width="24" xmlns="http://www.w3.org/2000/svg">
<path d="M10.421875,2.65625 L10.375,2.28125 C14.546875,1.21875 18,-0.578125 19.46875,-1.84375 C21.578125,-2.421875 21.9375,1.9375 10.421875,2.65625 Z M12.984375,6.859375 L12.859375,6.484375 C14.953125,5.71875 16.609375,4.5625 17.25,3.796875 C18.953125,3.1875 19.609375,6.640625 12.984375,6.859375 Z M4.796875,20.0625 L4.796875,14.71875 L1.109375,14.71875 L1.296875,13.984375 L4.484375,13.984375 C3.796875,10.421875 2.59375,6.859375 0.71875,4.109375 L1.0625,3.796875 C2.65625,5.546875 3.890625,7.5625 4.796875,9.765625 L4.796875,-1.84375 L5.140625,-1.84375 C5.71875,-1.84375 6.34375,-1.484375 6.34375,-1.265625 L6.34375,11.15625 C7.109375,10.171875 8.015625,8.78125 8.296875,7.75 C9.796875,6.640625 11.015625,9.578125 6.34375,11.6875 L6.34375,13.984375 L9.453125,13.984375 C9.796875,13.984375 10.015625,14.109375 10.078125,14.375 C9.390625,15.09375 8.234375,16.078125 8.234375,16.078125 L7.25,14.71875 L6.34375,14.71875 L6.34375,19.15625 C6.953125,19.25 7.15625,19.46875 7.21875,19.828125 Z M18.59375,16.21875 C17.921875,14.609375 17.015625,13.109375 15.859375,11.6875 C14.734375,12.75 13.796875,13.890625 13.0625,15.125 L13.828125,16.21875 Z M13.734375,20.140625 C12.59375,16.53125 10.5625,13.3125 8.46875,11.40625 L8.8125,11.109375 C10.203125,11.96875 11.515625,13.171875 12.703125,14.640625 C13.375,13.296875 14.15625,12.03125 15.140625,10.875 C13.15625,8.6875 10.609375,6.84375 7.609375,5.546875 L7.828125,5.1875 C11.15625,6.3125 13.875,7.921875 16.015625,9.890625 C17.5625,8.25 19.53125,6.84375 21.984375,5.71875 C22.15625,6.5 22.6875,6.9375 23.359375,7.109375 L23.40625,7.34375 C20.828125,8.1875 18.671875,9.359375 16.890625,10.796875 C18.390625,12.359375 19.5625,14.140625 20.421875,16.015625 C21.03125,16.03125 21.265625,16.078125 21.453125,16.3125 L19.703125,17.921875 L18.625,16.921875 L14.25,16.921875 C14.609375,17.515625 14.921875,18.171875 15.234375,18.84375 C15.75,18.765625 16.0625,18.953125 16.15625,19.25 Z" transform="translate(-0.0625, 20.140625) scale(1, -1)"/>
</svg>