<svg height="22.125" viewBox="0 0 24 22.125" width="24" xmlns="http://www.w3.org/2000/svg">
<path d="M4.125,20.1875 L4.125,14.375 L0.9375,14.375 L1.125,13.6875 L3.796875,13.6875 C3.28125,10.21875 2.40625,6.75 0.84375,3.953125 L1.203125,3.671875 C2.453125,5.296875 3.40625,7.125 4.125,9.125 L4.125,-1.84375 L4.4375,-1.84375 C4.96875,-1.84375 5.609375,-1.46875 5.609375,-1.25 L5.609375,9.84375 C6.21875,8.96875 6.8125,7.828125 6.953125,6.90625 C8.234375,5.828125 9.5,8.515625 5.609375,10.421875 L5.609375,13.6875 L8.296875,13.6875 C8.609375,13.6875 8.828125,13.796875 8.90625,14.0625 C8.25,14.734375 7.171875,15.625 7.171875,15.625 L6.234375,14.375 L5.609375,14.375 L5.609375,19.265625 C6.1875,19.375 6.390625,19.578125 6.453125,19.921875 Z M9.34375,18.359375 L9.34375,10.875 L9.34375,10.4375 L7.203125,10.4375 L7.390625,9.71875 L9.34375,9.71875 C9.28125,5.71875 8.96875,1.6875 6.953125,-1.53125 L7.34375,-1.78125 C10.21875,1.375 10.65625,5.859375 10.734375,9.71875 L12.8125,9.71875 L12.8125,0.625 C12.8125,0.265625 12.703125,0.140625 12.34375,0.140625 C11.921875,0.140625 10.171875,0.28125 10.171875,0.28125 L10.171875,-0.09375 C10.984375,-0.1875 11.453125,-0.390625 11.734375,-0.59375 C11.96875,-0.796875 12.09375,-1.171875 12.125,-1.578125 C13.96875,-1.390625 14.203125,-0.703125 14.203125,0.484375 L14.203125,9.71875 L15.953125,9.71875 L15.953125,8.828125 C15.953125,4.984375 16.015625,1.078125 14.5,-1.703125 L14.875,-1.9375 C17.359375,0.84375 17.359375,5.0625 17.359375,8.859375 L17.359375,9.71875 L19.65625,9.71875 L19.65625,0.34375 C19.65625,0.03125 19.5625,-0.125 19.203125,-0.125 C18.796875,-0.125 17.109375,0.03125 17.109375,0.03125 L17.109375,-0.359375 C17.921875,-0.453125 18.34375,-0.625 18.640625,-0.84375 C18.890625,-1.078125 18.953125,-1.4375 19.015625,-1.875 C20.859375,-1.6875 21.09375,-0.953125 21.09375,0.21875 L21.09375,9.71875 L22.96875,9.71875 C23.25,9.71875 23.46875,9.84375 23.546875,10.109375 C23.015625,10.734375 22.0625,11.59375 22.0625,11.59375 L21.28125,10.4375 L21.09375,10.4375 L21.09375,17.359375 C21.578125,17.453125 21.953125,17.65625 22.125,17.828125 L20.1875,19.34375 L19.421875,18.359375 L17.640625,18.359375 L15.953125,19.125 L15.953125,10.4375 L14.203125,10.4375 L14.203125,17.359375 C14.71875,17.453125 15.09375,17.65625 15.234375,17.828125 L13.34375,19.3125 L12.578125,18.359375 L10.984375,18.359375 L9.34375,19.109375 Z M17.359375,10.4375 L17.359375,17.65625 L19.65625,17.65625 L19.65625,10.4375 Z M10.734375,10.4375 L10.734375,10.890625 L10.734375,17.65625 L12.8125,17.65625 L12.8125,10.4375 Z" transform="translate(-0.1953125, 20.1875) scale(1, -1)"/>
</svg>