<svg height="22.015625" viewBox="0 0 24 22.015625" width="24" xmlns="http://www.w3.org/2000/svg">
<path d="M10.34375,18.3125 L10.34375,11.0625 C10.34375,6.625 9.953125,2.0625 7.109375,-1.578125 L7.46875,-1.875 C11.453125,1.6875 11.828125,6.890625 11.828125,11.0625 L11.828125,13.3125 L15.09375,13.3125 C14.96875,7.25 14.140625,2.421875 10.15625,-1.578125 L10.421875,-1.875 C14.1875,0.890625 15.703125,4.390625 16.34375,8.78125 L19.96875,8.78125 C19.828125,4.109375 19.5625,1.0625 18.984375,0.484375 C18.765625,0.28125 18.578125,0.234375 18.125,0.234375 C17.640625,0.234375 16.015625,0.390625 15.046875,0.453125 L15.046875,0.046875 C15.90625,-0.078125 16.875,-0.34375 17.203125,-0.546875 C17.546875,-0.8125 17.609375,-1.25 17.609375,-1.734375 C18.578125,-1.734375 19.46875,-1.4375 20.046875,-0.890625 C21.03125,0.046875 21.40625,3.234375 21.546875,8.5625 C22.03125,8.640625 22.3125,8.765625 22.484375,8.921875 L20.640625,10.46875 L19.75,9.453125 L16.4375,9.453125 C16.578125,10.6875 16.6875,11.953125 16.75,13.3125 L22.484375,13.3125 C22.828125,13.3125 23.0625,13.4375 23.109375,13.6875 C22.34375,14.421875 21.09375,15.40625 21.09375,15.40625 L19.984375,14.015625 L11.828125,14.015625 L11.828125,17.1875 C15.09375,17.28125 18.671875,17.734375 21.03125,18.234375 C21.59375,17.96875 22.0625,18 22.296875,18.1875 L20.296875,20.09375 C18.484375,19.265625 15.078125,18.265625 12.078125,17.734375 Z M4.578125,20.140625 L4.578125,14.453125 L1.015625,14.453125 L1.203125,13.75 L4.265625,13.75 C3.671875,10.171875 2.515625,6.703125 0.703125,3.9375 L1.03125,3.59375 C2.5625,5.25 3.71875,7.15625 4.578125,9.234375 L4.578125,-1.875 L4.890625,-1.875 C5.46875,-1.875 6.125,-1.515625 6.125,-1.296875 L6.125,10.6875 C6.859375,9.71875 7.6875,8.375 7.96875,7.296875 C9.359375,6.21875 10.6875,9.078125 6.125,11.1875 L6.125,13.75 L9.21875,13.75 C9.53125,13.75 9.765625,13.875 9.84375,14.140625 C9.09375,14.859375 7.921875,15.84375 7.921875,15.84375 L6.859375,14.453125 L6.125,14.453125 L6.125,19.203125 C6.75,19.296875 6.90625,19.515625 6.984375,19.875 Z" transform="translate(0.09375, 20.140625) scale(1, -1)"/>
</svg>