<svg height="22.125" viewBox="0 0 24 22.125" width="24" xmlns="http://www.w3.org/2000/svg">
<path d="M4.828125,20.1875 L4.828125,14.515625 L1.109375,14.515625 L1.296875,13.796875 L4.484375,13.796875 C3.8125,10.21875 2.609375,6.671875 0.765625,3.9375 L1.109375,3.625 C2.6875,5.375 3.90625,7.390625 4.828125,9.59375 L4.828125,-1.9375 L5.140625,-1.9375 C5.71875,-1.9375 6.359375,-1.5625 6.359375,-1.34375 L6.359375,10.125 C7.125,9.140625 8.046875,7.75 8.328125,6.71875 C9.796875,5.59375 11.046875,8.515625 6.359375,10.65625 L6.359375,13.796875 L9.4375,13.796875 C9.75,13.796875 9.984375,13.921875 10.03125,14.1875 C9.359375,14.921875 8.203125,15.890625 8.203125,15.890625 L7.203125,14.515625 L6.359375,14.515625 L6.359375,19.265625 C6.984375,19.375 7.15625,19.578125 7.21875,19.921875 Z M9.9375,19.015625 L10.15625,18.28125 L13.875,18.28125 C12.625,15.4375 10.5625,12.59375 8.09375,10.5625 L8.40625,10.21875 C11.5625,12.171875 14.140625,14.90625 15.640625,18.078125 C16.796875,15.21875 19.171875,12.59375 21.890625,10.84375 C22.078125,11.5 22.6875,12 23.328125,12.140625 L23.375,12.4375 C20.28125,13.703125 17.421875,16.0625 16.265625,18.234375 C16.984375,18.28125 17.59375,18.4375 17.828125,18.71875 L15.75,20.109375 L15.03125,19.015625 Z M8.296875,-0.09375 L8.5,-0.796875 L22.5625,-0.796875 C22.890625,-0.796875 23.140625,-0.671875 23.15625,-0.40625 C22.421875,0.34375 21.171875,1.34375 21.171875,1.34375 L20.046875,-0.09375 L16.3125,-0.09375 L16.3125,5.015625 L21.21875,5.015625 C21.546875,5.015625 21.796875,5.140625 21.84375,5.40625 C21.09375,6.125 19.84375,7.15625 19.84375,7.15625 L18.71875,5.6875 L16.3125,5.6875 L16.3125,10.015625 L20.546875,10.015625 C20.875,10.015625 21.125,10.125 21.1875,10.390625 C20.453125,11.0625 19.265625,12.046875 19.265625,12.046875 L18.21875,10.6875 L10.3125,10.6875 L10.484375,10.015625 L14.78125,10.015625 L14.78125,5.6875 L9.9375,5.6875 L10.125,5.015625 L14.78125,5.015625 L14.78125,-0.09375 Z" transform="translate(-0.0703125, 20.1875) scale(1, -1)"/>
</svg>