<svg height="22.078125" viewBox="0 0 24 22.078125" width="24" xmlns="http://www.w3.org/2000/svg">
<path d="M17.46875,14.28125 L17.234375,14.046875 C18.703125,12.9375 20.65625,10.96875 21.28125,9.453125 C23.109375,8.46875 23.875,12.234375 17.46875,14.28125 Z M13.078125,14.5 C12.40625,12.9375 10.96875,10.703125 9.40625,9.34375 L9.671875,9.03125 C11.640625,10.109375 13.390625,11.828125 14.359375,13.171875 C14.921875,13.109375 15.125,13.203125 15.265625,13.4375 Z M13.703125,9.171875 L14.421875,10.0625 L13.609375,10.390625 L13.265625,9.359375 C12.59375,8.71875 11.421875,7.734375 10.734375,7.25 L11.859375,5.96875 C12,6.125 12.078125,6.3125 11.921875,6.546875 C12.28125,7.03125 12.84375,7.84375 13.265625,8.515625 C13.75,6.84375 14.40625,5.296875 15.21875,3.984375 C13.5625,1.75 11.15625,-0.1875 7.703125,-1.5625 L7.921875,-1.890625 C11.546875,-0.75 14.109375,0.90625 15.953125,2.859375 C17.546875,0.671875 19.609375,-0.9375 22.015625,-1.890625 C22.125,-1.171875 22.5625,-0.625 23.25,-0.359375 L23.296875,-0.09375 C20.859375,0.59375 18.546875,1.890625 16.75,3.765625 C18.03125,5.375 18.890625,7.125 19.46875,8.921875 C19.921875,8.875 20.234375,9.03125 20.375,9.390625 L18.03125,10.078125 C17.5625,8.28125 16.875,6.53125 15.8125,4.875 C14.90625,6.09375 14.15625,7.515625 13.6875,9.125 Z M15.078125,19.9375 L15.078125,16.125 L9.234375,16.125 L9.4375,15.40625 L22.515625,15.40625 C22.84375,15.40625 23.09375,15.53125 23.140625,15.796875 C22.375,16.53125 21.125,17.546875 21.125,17.546875 L19.96875,16.125 L16.625,16.125 L16.625,19.078125 C17.15625,19.171875 17.359375,19.390625 17.40625,19.703125 Z M4.796875,20.1875 L4.796875,14.375 L1.109375,14.375 L1.296875,13.6875 L4.46875,13.6875 C3.765625,10.109375 2.515625,6.59375 0.546875,3.90625 L0.859375,3.578125 C2.5625,5.28125 3.84375,7.25 4.796875,9.4375 L4.796875,-1.84375 L5.140625,-1.84375 C5.71875,-1.84375 6.34375,-1.484375 6.34375,-1.265625 L6.34375,10.53125 C7.171875,9.484375 8.109375,7.96875 8.359375,6.8125 C9.84375,5.640625 11.140625,8.8125 6.34375,11.0625 L6.34375,13.6875 L9.71875,13.6875 C10.0625,13.6875 10.265625,13.796875 10.34375,14.0625 C9.578125,14.78125 8.375,15.765625 8.375,15.765625 L7.265625,14.375 L6.34375,14.375 L6.34375,19.25 C6.953125,19.34375 7.15625,19.578125 7.203125,19.921875 Z" transform="translate(-0.2109375, 20.1875) scale(1, -1)"/>
</svg>