<svg height="22.28125" viewBox="0 0 24 22.28125" width="24" xmlns="http://www.w3.org/2000/svg">
<path d="M4.625,20.046875 L4.625,14.453125 L1.109375,14.453125 L1.296875,13.75 L4.3125,13.75 C3.640625,10.203125 2.421875,6.671875 0.484375,3.9375 L0.8125,3.59375 C2.453125,5.328125 3.703125,7.296875 4.625,9.484375 L4.625,-1.875 L4.96875,-1.875 C5.546875,-1.875 6.171875,-1.515625 6.171875,-1.296875 L6.171875,10.203125 C6.90625,9.21875 7.78125,7.875 8.0625,6.84375 C9.5,5.734375 10.78125,8.640625 6.171875,10.65625 L6.171875,13.75 L9.140625,13.75 C9.453125,13.75 9.703125,13.875 9.765625,14.140625 C9.046875,14.859375 7.84375,15.859375 7.84375,15.859375 L6.796875,14.453125 L6.171875,14.453125 L6.171875,19.125 C6.796875,19.21875 6.984375,19.4375 7.03125,19.796875 Z M9.453125,7.78125 L9.71875,7.109375 L14.46875,7.609375 C14.859375,6.046875 15.359375,4.625 16.03125,3.390625 C13.78125,1.625 10.984375,0.171875 8.140625,-0.71875 L8.28125,-1.109375 C11.375,-0.53125 14.328125,0.671875 16.734375,2.203125 C17.59375,0.9375 18.671875,-0.09375 20.015625,-0.890625 C21.140625,-1.65625 22.578125,-2.234375 23.09375,-1.421875 C23.28125,-1.125 23.203125,-0.796875 22.484375,0.03125 L22.875,3.625 L22.5625,3.671875 C22.265625,2.65625 21.8125,1.515625 21.53125,0.890625 C21.328125,0.4375 21.1875,0.4375 20.765625,0.71875 C19.6875,1.3125 18.796875,2.140625 18.078125,3.140625 C19.21875,4.015625 20.203125,4.96875 20.953125,5.953125 C21.4375,5.828125 21.71875,5.875 21.84375,6.125 L19.734375,7.3125 C19.109375,6.34375 18.265625,5.359375 17.28125,4.4375 C16.75,5.453125 16.34375,6.578125 16.0625,7.78125 L22.609375,8.5 C22.921875,8.515625 23.109375,8.6875 23.140625,8.953125 C22.34375,9.578125 21.03125,10.4375 21.03125,10.4375 L20.046875,8.90625 L15.890625,8.46875 C15.671875,9.40625 15.5,10.421875 15.390625,11.46875 L21.671875,12.078125 C21.984375,12.09375 22.21875,12.265625 22.25,12.53125 C21.453125,13.171875 20.109375,14.0625 20.109375,14.0625 L19.109375,12.53125 L15.3125,12.171875 C15.21875,13.109375 15.171875,14.046875 15.125,15.03125 L21.796875,15.640625 C22.109375,15.671875 22.3125,15.84375 22.375,16.109375 C21.546875,16.75 20.234375,17.640625 20.234375,17.640625 L20.1875,17.546875 C20.328125,18.28125 19.515625,19.4375 16.734375,19.515625 L16.53125,19.265625 C17.421875,18.796875 18.546875,17.859375 18.953125,17.0625 C19.34375,16.890625 19.65625,16.9375 19.875,17.109375 L19.21875,16.109375 L15.09375,15.703125 C15.078125,16.78125 15.078125,17.859375 15.078125,18.953125 C15.671875,19.0625 15.890625,19.3125 15.9375,19.625 L13.390625,19.921875 C13.390625,18.40625 13.421875,16.9375 13.484375,15.546875 L9.5,15.171875 L9.765625,14.515625 L13.515625,14.875 C13.5625,13.890625 13.625,12.9375 13.734375,12.03125 L9.75,11.640625 L10.015625,10.9375 L13.828125,11.296875 C13.9375,10.25 14.109375,9.234375 14.328125,8.296875 Z" transform="translate(0.1171875, 20.046875) scale(1, -1)"/>
</svg>