<svg height="23.015625" viewBox="0 0 24 23.015625" width="24" xmlns="http://www.w3.org/2000/svg">
<path d="M11.140625,11.65625 L11.328125,10.9375 L19.984375,10.9375 C20.328125,10.9375 20.5625,11.0625 20.640625,11.328125 C19.84375,12.03125 18.640625,12.90625 18.640625,12.90625 L17.59375,11.65625 Z M16.296875,18.890625 C17.46875,16.03125 19.875,13.375 22.375,11.609375 C22.515625,12.1875 22.984375,12.703125 23.609375,12.84375 L23.6875,13.15625 C20.875,14.59375 18.140625,16.75 16.6875,19.171875 C17.203125,19.203125 17.453125,19.34375 17.515625,19.578125 L14.921875,20.15625 C14.0625,17.375 10.796875,13.25 8.203125,11.1875 L8.421875,10.84375 C11.421875,12.75 14.6875,15.9375 16.296875,18.890625 Z M8.515625,0.703125 L9.640625,-1.46875 C9.890625,-1.421875 10.125,-1.25 10.25,-0.9375 C14.609375,-0.140625 17.78125,0.5 20.15625,1.0625 C20.71875,0.1875 21.171875,-0.671875 21.359375,-1.46875 C23.328125,-2.859375 24.546875,1.4375 17.71875,4.53125 L17.453125,4.34375 C18.21875,3.59375 19.078125,2.59375 19.828125,1.5625 L12.484375,0.9375 C13.53125,2.515625 14.734375,4.921875 15.59375,6.9375 L22.0625,6.9375 C22.390625,6.9375 22.625,7.0625 22.703125,7.3125 C21.953125,8.046875 20.734375,9.046875 20.734375,9.046875 L19.625,7.625 L9.484375,7.625 L9.671875,6.9375 L13.484375,6.9375 C13.078125,5.046875 12.3125,2.5 11.6875,0.890625 C10.375,0.796875 9.28125,0.71875 8.515625,0.703125 Z M4.625,20.09375 L4.625,14.453125 L1.171875,14.453125 L1.375,13.75 L4.3125,13.75 C3.640625,10.203125 2.421875,6.671875 0.484375,3.9375 L0.84375,3.59375 C2.453125,5.328125 3.71875,7.296875 4.625,9.484375 L4.625,-1.828125 L4.96875,-1.828125 C5.515625,-1.828125 6.171875,-1.46875 6.171875,-1.25 L6.171875,10.9375 C6.90625,9.953125 7.78125,8.609375 8.0625,7.578125 C9.5,6.53125 10.78125,9.390625 6.171875,11.453125 L6.171875,13.75 L9.265625,13.75 C9.59375,13.75 9.84375,13.875 9.890625,14.140625 C9.171875,14.859375 7.96875,15.859375 7.96875,15.859375 L6.9375,14.453125 L6.171875,14.453125 L6.171875,19.15625 C6.796875,19.25 6.953125,19.484375 7.03125,19.84375 Z" transform="translate(-0.515625, 20.15625) scale(1, -1)"/>
</svg>