<svg height="22.015625" viewBox="0 0 24 22.015625" width="24" xmlns="http://www.w3.org/2000/svg">
<path d="M7.21875,16.609375 L7.21875,1.484375 L7.515625,1.484375 C8.0625,1.484375 8.6875,1.84375 8.6875,2.0625 L8.6875,15.75 C9.21875,15.84375 9.40625,16.0625 9.453125,16.375 Z M13.46875,20.140625 C12.53125,17.234375 10.984375,14.453125 9.484375,12.75 L9.8125,12.484375 C10.890625,13.25 11.953125,14.296875 12.890625,15.546875 C13.578125,14.375 14.40625,13.3125 15.359375,12.40625 C13.75,10.9375 11.65625,9.75 9.171875,8.859375 L9.34375,8.5 C12.046875,9.234375 14.375,10.265625 16.25,11.65625 C17.734375,10.484375 19.609375,9.578125 22.015625,8.875 C22.15625,9.640625 22.609375,10.0625 23.203125,10.21875 L23.25,10.484375 C20.859375,10.890625 18.890625,11.5625 17.25,12.484375 C18.484375,13.5625 19.4375,14.828125 20.15625,16.296875 L22.296875,16.296875 C22.625,16.296875 22.875,16.421875 22.921875,16.6875 C22.125,17.40625 20.875,18.40625 20.875,18.40625 L19.75,16.96875 L13.84375,16.96875 C14.234375,17.5625 14.5625,18.1875 14.875,18.84375 C15.390625,18.796875 15.671875,18.984375 15.796875,19.25 Z M16.125,13.15625 C14.953125,13.96875 13.984375,14.921875 13.21875,16.015625 L13.421875,16.296875 L18.265625,16.296875 C17.765625,15.171875 17.046875,14.109375 16.125,13.15625 Z M15.03125,9.625 L15.03125,6.53125 L9.4375,6.53125 L9.625,5.8125 L13.84375,5.8125 C12.59375,3.390625 10.578125,1.15625 8.109375,-0.4375 L8.359375,-0.796875 C11.15625,0.5 13.4375,2.296875 15.03125,4.53125 L15.03125,-1.84375 L15.3125,-1.84375 C15.890625,-1.84375 16.5625,-1.515625 16.5625,-1.3125 L16.5625,5.546875 C17.78125,2.765625 19.75,0.546875 21.859375,-0.796875 C22.109375,0 22.625,0.5 23.28125,0.625 L23.296875,0.859375 C21.046875,1.75 18.5,3.59375 17.046875,5.8125 L22.390625,5.8125 C22.75,5.8125 22.96875,5.921875 23.046875,6.1875 C22.265625,6.9375 21.03125,7.890625 21.03125,7.890625 L19.9375,6.53125 L16.5625,6.53125 L16.5625,8.765625 C17.15625,8.8125 17.375,9.046875 17.421875,9.359375 Z M5.40625,20.109375 C4.421875,15.59375 2.640625,10.96875 0.859375,7.96875 L1.21875,7.75 C2.109375,8.765625 2.953125,9.984375 3.71875,11.296875 L3.71875,-1.875 L3.984375,-1.875 C4.53125,-1.875 5.1875,-1.484375 5.203125,-1.375 L5.203125,12.84375 C5.640625,12.90625 5.859375,13.0625 5.921875,13.296875 L4.9375,13.65625 C5.71875,15.28125 6.40625,17.0625 6.953125,18.859375 C7.484375,18.859375 7.75,19.078125 7.84375,19.375 Z" transform="translate(-0.078125, 20.140625) scale(1, -1)"/>
</svg>