<svg height="22" viewBox="0 0 24 22" width="24" xmlns="http://www.w3.org/2000/svg">
<path d="M4.578125,20.109375 L4.578125,14.453125 L1.0625,14.453125 L1.25,13.75 L4.265625,13.75 C3.640625,10.203125 2.46875,6.671875 0.59375,3.9375 L0.90625,3.59375 C2.5,5.28125 3.703125,7.21875 4.578125,9.359375 L4.578125,-1.828125 L4.890625,-1.828125 C5.46875,-1.828125 6.125,-1.46875 6.125,-1.25 L6.125,10.265625 C6.859375,9.265625 7.6875,7.921875 7.96875,6.890625 C9.359375,5.765625 10.6875,8.640625 6.125,10.734375 L6.125,13.75 L9.09375,13.75 C9.4375,13.75 9.671875,13.875 9.71875,14.140625 C9,14.859375 7.796875,15.84375 7.796875,15.84375 L6.765625,14.453125 L6.125,14.453125 L6.125,19.171875 C6.75,19.265625 6.90625,19.515625 6.984375,19.875 Z M12.140625,5.046875 L13.203125,6.234375 L12.265625,6.640625 L11.734375,5.234375 C11.046875,4.578125 9.9375,3.796875 9.3125,3.359375 L10.375,2.046875 C10.515625,2.15625 10.5625,2.359375 10.4375,2.546875 C10.84375,3.09375 11.453125,3.9375 11.875,4.625 C12.265625,3.859375 12.703125,3.171875 13.171875,2.546875 C12,1.015625 10.125,-0.34375 7.265625,-1.515625 L7.515625,-1.890625 C10.5625,-0.953125 12.625,0.234375 13.984375,1.6875 C15.90625,-0.171875 18.578125,-1.21875 21.953125,-1.890625 C22.15625,-1.078125 22.609375,-0.53125 23.328125,-0.390625 L23.328125,-0.09375 C19.890625,0.234375 16.84375,0.984375 14.640625,2.453125 C15.671875,3.796875 16.203125,5.328125 16.4375,7.03125 L20.296875,7.03125 L20.296875,5.859375 L20.515625,5.859375 C21.234375,5.859375 21.765625,6.21875 21.765625,6.3125 L21.765625,13.96875 C22.265625,14.046875 22.53125,14.15625 22.6875,14.359375 L20.96875,15.671875 L20.203125,14.78125 L16.625,14.78125 L16.625,17.71875 L22.578125,17.71875 C22.921875,17.71875 23.109375,17.828125 23.1875,18.09375 C22.421875,18.8125 21.1875,19.796875 21.1875,19.796875 L20.109375,18.40625 L8.859375,18.40625 L9.03125,17.71875 L15.125,17.71875 L15.125,14.78125 L11.6875,14.78125 L9.953125,15.5 L9.953125,5.78125 L10.203125,5.78125 C10.9375,5.78125 11.421875,6.125 11.421875,6.265625 L11.421875,7.03125 L14.953125,7.03125 C14.734375,5.609375 14.359375,4.375 13.625,3.21875 C13.0625,3.75 12.546875,4.34375 12.140625,5.046875 Z M11.421875,10.578125 L15.125,10.578125 L15.125,9.90625 C15.125,9.140625 15.09375,8.421875 15.03125,7.734375 L11.421875,7.734375 Z M20.296875,10.578125 L20.296875,7.734375 L16.53125,7.734375 C16.609375,8.453125 16.625,9.1875 16.625,9.953125 L16.625,10.578125 Z M11.421875,11.296875 L11.421875,14.0625 L15.125,14.0625 L15.125,11.296875 Z M20.296875,11.296875 L16.625,11.296875 L16.625,14.0625 L20.296875,14.0625 Z" transform="translate(0.0390625, 20.109375) scale(1, -1)"/>
</svg>