<svg height="22.015625" viewBox="0 0 24 22.015625" width="24" xmlns="http://www.w3.org/2000/svg">
<path d="M14.40625,20.09375 C14.359375,19.109375 14.296875,18.09375 14.1875,17.09375 L9.40625,17.09375 L9.59375,16.390625 L14.109375,16.390625 C14.046875,15.59375 13.921875,14.8125 13.796875,14.015625 L10.34375,14.015625 L10.515625,13.3125 L13.65625,13.3125 C13.515625,12.484375 13.3125,11.640625 13.109375,10.828125 L8.65625,10.828125 L8.859375,10.125 L12.90625,10.125 C12.59375,9.078125 12.21875,8.046875 11.78125,7.03125 L9.078125,7.03125 L9.265625,6.3125 L11.453125,6.3125 C10.390625,4.125 9,2.15625 7.15625,0.546875 L7.46875,0.28125 C9.234375,1.53125 10.65625,3.046875 11.78125,4.703125 C12.671875,3.8125 13.625,2.46875 13.890625,1.375 C15.390625,0.265625 16.609375,3.359375 12.03125,5.09375 C12.28125,5.5 12.53125,5.90625 12.75,6.3125 L18.03125,6.3125 L18.03125,0.453125 C18.03125,0.125 17.921875,-0.03125 17.515625,-0.03125 C17.0625,-0.03125 14.859375,0.171875 14.859375,0.171875 L14.859375,-0.21875 C15.84375,-0.359375 16.390625,-0.53125 16.703125,-0.765625 C16.984375,-1.015625 17.109375,-1.390625 17.15625,-1.84375 C19.3125,-1.65625 19.578125,-0.890625 19.578125,0.359375 L19.578125,6.3125 L22.484375,6.3125 C22.828125,6.3125 23.0625,6.4375 23.109375,6.703125 C22.390625,7.390625 21.21875,8.359375 21.21875,8.359375 L20.1875,7.03125 L19.578125,7.03125 L19.578125,8.59375 C20.109375,8.65625 20.359375,8.828125 20.40625,9.1875 L18.03125,9.4375 L18.03125,7.03125 L13.109375,7.03125 C13.609375,8.046875 14.015625,9.078125 14.375,10.125 L22.5625,10.125 C22.890625,10.125 23.140625,10.25 23.1875,10.484375 C22.421875,11.234375 21.171875,12.21875 21.171875,12.21875 L20.046875,10.828125 L14.59375,10.828125 C14.828125,11.640625 15.046875,12.484375 15.21875,13.3125 L21.328125,13.3125 C21.640625,13.3125 21.859375,13.4375 21.9375,13.6875 C21.1875,14.40625 19.9375,15.359375 19.9375,15.359375 L18.859375,14.015625 L15.359375,14.015625 C15.53125,14.8125 15.640625,15.59375 15.765625,16.390625 L22.109375,16.390625 C22.4375,16.390625 22.6875,16.515625 22.75,16.78125 C21.984375,17.5 20.734375,18.484375 20.734375,18.484375 L19.65625,17.09375 L15.859375,17.09375 L16.109375,19.25 C16.84375,19.3125 17.046875,19.515625 17.109375,19.875 Z M4.578125,20.140625 L4.578125,14.421875 L1.125,14.421875 L1.3125,13.703125 L4.265625,13.703125 C3.625,10.109375 2.421875,6.59375 0.484375,3.890625 L0.84375,3.546875 C2.453125,5.25 3.671875,7.203125 4.578125,9.359375 L4.578125,-1.875 L4.890625,-1.875 C5.46875,-1.875 6.125,-1.515625 6.125,-1.296875 L6.125,10.4375 C6.796875,9.4375 7.515625,8.015625 7.625,6.890625 C9.046875,5.65625 10.46875,8.71875 6.125,10.984375 L6.125,13.703125 L9.234375,13.703125 C9.578125,13.703125 9.796875,13.828125 9.859375,14.09375 C9.125,14.828125 7.9375,15.796875 7.9375,15.796875 L6.890625,14.421875 L6.125,14.421875 L6.125,19.203125 C6.75,19.296875 6.90625,19.515625 6.984375,19.875 Z" transform="translate(0.1640625, 20.140625) scale(1, -1)"/>
</svg>