<svg height="21.921875" viewBox="0 0 24 21.921875" width="24" xmlns="http://www.w3.org/2000/svg">
<path d="M20.609375,18.046875 L20.609375,13.21875 L17.6875,13.21875 L17.6875,18.046875 Z M16.296875,18.71875 L16.296875,9.859375 C16.296875,5.78125 16.296875,1.578125 14.734375,-1.578125 L15.125,-1.828125 C17.046875,0.578125 17.515625,3.796875 17.640625,6.90625 L20.609375,6.90625 L20.609375,0.53125 C20.609375,0.171875 20.5,0.046875 20.109375,0.046875 C19.6875,0.046875 17.734375,0.1875 17.734375,0.1875 L17.734375,-0.1875 C18.59375,-0.3125 19.125,-0.484375 19.421875,-0.71875 C19.6875,-0.953125 19.796875,-1.375 19.84375,-1.796875 C21.796875,-1.609375 22.03125,-0.859375 22.03125,0.359375 L22.03125,17.765625 C22.515625,17.828125 22.921875,18.046875 23.09375,18.21875 L21.125,19.703125 L20.375,18.71875 L17.953125,18.71875 L16.296875,19.484375 Z M20.609375,12.5 L20.609375,7.609375 L17.65625,7.609375 L17.6875,9.890625 L17.6875,12.5 Z M13.078125,18.046875 L13.078125,13.21875 L10.3125,13.21875 L10.3125,18.046875 Z M8.953125,18.71875 L8.953125,10.75 C8.953125,6.359375 8.78125,1.875 6.703125,-1.578125 L7.078125,-1.84375 C9.265625,0.578125 9.984375,3.796875 10.203125,6.90625 L13.078125,6.90625 L13.078125,0.8125 C13.078125,0.484375 12.984375,0.34375 12.578125,0.34375 C12.140625,0.34375 10.203125,0.5 10.203125,0.5 L10.203125,0.09375 C11.0625,-0.03125 11.59375,-0.1875 11.875,-0.453125 C12.140625,-0.640625 12.265625,-1.078125 12.3125,-1.484375 C14.25,-1.296875 14.46875,-0.578125 14.46875,0.640625 L14.46875,17.765625 C14.953125,17.859375 15.34375,18.046875 15.5,18.21875 L13.578125,19.6875 L12.84375,18.71875 L10.609375,18.71875 L8.953125,19.484375 Z M13.078125,12.5 L13.078125,7.609375 L10.25,7.609375 C10.3125,8.6875 10.3125,9.75 10.3125,10.75 L10.3125,12.5 Z M4.109375,20.046875 L4.109375,14.46875 L0.984375,14.46875 L1.171875,13.78125 L3.796875,13.78125 C3.265625,10.265625 2.359375,6.75 0.84375,3.9375 L1.203125,3.625 C2.421875,5.25 3.390625,7.078125 4.109375,9.03125 L4.109375,-1.875 L4.421875,-1.875 C4.9375,-1.875 5.59375,-1.484375 5.59375,-1.265625 L5.59375,9.984375 C6.28125,9.03125 7.015625,7.734375 7.171875,6.71875 C8.46875,5.640625 9.71875,8.453125 5.59375,10.5625 L5.59375,13.78125 L8.328125,13.78125 C8.640625,13.78125 8.875,13.890625 8.921875,14.15625 C8.28125,14.859375 7.171875,15.859375 7.171875,15.859375 L6.21875,14.46875 L5.59375,14.46875 L5.59375,19.125 C6.171875,19.21875 6.359375,19.4375 6.4375,19.796875 Z" transform="translate(0.03125, 20.046875) scale(1, -1)"/>
</svg>