<svg height="22.796875" viewBox="0 0 24 22.796875" width="24" xmlns="http://www.w3.org/2000/svg">
<path d="M19.65625,19.3125 C19.3125,18.4375 18.484375,16.796875 17.828125,15.75 L18.09375,15.578125 C19.171875,16.34375 20.40625,17.359375 21.046875,18 C21.53125,17.90625 21.8125,18.125 21.90625,18.34375 Z M10.390625,19.21875 L10.125,19.03125 C10.875,18.265625 11.765625,16.890625 11.96875,15.859375 C13.421875,14.78125 14.765625,17.640625 10.390625,19.21875 Z M15,19.984375 L15,15.125 L8.96875,15.125 L9.046875,14.859375 L7.9375,15.796875 L6.890625,14.421875 L6.140625,14.421875 L6.140625,19.203125 C6.75,19.296875 6.9375,19.515625 7.015625,19.875 L4.609375,20.140625 L4.609375,14.421875 L1.03125,14.421875 L1.21875,13.703125 L4.296875,13.703125 C3.703125,10.125 2.5625,6.640625 0.75,3.90625 L1.078125,3.578125 C2.59375,5.234375 3.75,7.125 4.609375,9.21875 L4.609375,-1.875 L4.921875,-1.875 C5.5,-1.875 6.140625,-1.515625 6.140625,-1.296875 L6.140625,10.796875 C6.859375,9.84375 7.703125,8.5 7.96875,7.4375 C9.390625,6.34375 10.703125,9.1875 6.140625,11.328125 L6.140625,13.703125 L9.234375,13.703125 C9.546875,13.703125 9.796875,13.828125 9.859375,14.09375 L9.5,14.421875 L14.0625,14.421875 C12.8125,12.578125 10.9375,10.875 8.734375,9.625 L8.96875,9.234375 C11.375,10.21875 13.46875,11.546875 15,13.203125 L15,9.140625 L15.28125,9.140625 C15.859375,9.140625 16.515625,9.453125 16.515625,9.671875 L16.515625,14.28125 C17.828125,12.046875 19.921875,10.34375 22.03125,9.34375 C22.203125,10.0625 22.6875,10.484375 23.25,10.578125 L23.28125,10.828125 C21.125,11.453125 18.625,12.765625 17.09375,14.421875 L22.3125,14.421875 C22.6875,14.421875 22.921875,14.546875 22.96875,14.8125 C22.21875,15.484375 21.03125,16.421875 21.03125,16.421875 L19.984375,15.125 L16.53125,15.125 L16.515625,19.109375 C17.109375,19.171875 17.328125,19.421875 17.375,19.75 Z M13.921875,9.09375 C13.6875,8.453125 13.203125,7.484375 12.640625,6.4375 L8.15625,6.4375 L8.359375,5.71875 L12.265625,5.71875 C11.46875,4.25 10.5625,2.71875 9.90625,1.828125 C10.484375,1.515625 11.109375,1.4375 11.5,1.609375 L12.125,2.640625 C13.296875,2.28125 14.359375,1.890625 15.3125,1.484375 C13.5625,0.09375 11.0625,-0.796875 7.6875,-1.4375 L7.796875,-1.875 C11.875,-1.390625 14.6875,-0.53125 16.625,0.890625 C18.34375,0.09375 19.65625,-0.765625 20.59375,-1.578125 C22.078125,-2.65625 23.8125,-0.234375 17.71875,1.828125 C18.75,2.859375 19.46875,4.15625 19.984375,5.71875 L22.484375,5.71875 C22.828125,5.71875 23.0625,5.828125 23.140625,6.09375 C22.375,6.8125 21.140625,7.78125 21.140625,7.78125 L20.0625,6.4375 L14.28125,6.4375 L15.171875,8.109375 C15.75,8.109375 16.015625,8.328125 16.125,8.65625 Z M13.890625,5.71875 L18.21875,5.71875 C17.78125,4.34375 17.109375,3.21875 16.21875,2.28125 C15.140625,2.59375 13.875,2.859375 12.40625,3.125 Z" transform="translate(-0.28125, 20.140625) scale(1, -1)"/>
</svg>