<svg height="22.046875" viewBox="0 0 24 22.046875" width="24" xmlns="http://www.w3.org/2000/svg">
<path d="M16.625,12.9375 L16.421875,12.640625 C18.140625,11.78125 20.546875,10.03125 21.484375,8.6875 C23.46875,7.9375 23.8125,11.828125 16.625,12.9375 Z M2.15625,18.359375 L1.921875,18.140625 C3.140625,17.1875 4.734375,15.53125 5.234375,14.234375 C7.03125,13.171875 8.046875,16.796875 2.15625,18.359375 Z M1.125,10.015625 L2.46875,8.15625 C2.6875,8.28125 2.8125,8.515625 2.859375,8.8125 C5.046875,10.375 6.671875,11.71875 7.78125,12.578125 L7.625,12.90625 C4.96875,11.640625 2.28125,10.421875 1.125,10.015625 Z M20.109375,18.625 C19.3125,17.453125 17.828125,15.546875 16.703125,14.25 L16.96875,13.9375 C18.453125,14.921875 20.546875,16.265625 21.625,17.109375 C21.984375,16.984375 22.265625,17.015625 22.390625,17.203125 Z M9.546875,13.0625 L14.421875,13.0625 L14.421875,10.015625 L9.546875,10.015625 Z M9.546875,13.75 L9.546875,16.6875 L14.421875,16.6875 L14.421875,13.75 Z M11.25,20.203125 C11.140625,19.421875 10.890625,18.21875 10.703125,17.375 L9.671875,17.375 L8.0625,18.125 L8.0625,8.09375 L8.296875,8.09375 C8.921875,8.09375 9.546875,8.453125 9.546875,8.59375 L9.546875,9.3125 L14.421875,9.3125 L14.421875,8.296875 L14.65625,8.296875 C15.171875,8.296875 15.9375,8.6875 15.953125,8.828125 L15.953125,16.421875 C16.4375,16.484375 16.828125,16.6875 16.96875,16.84375 L15.046875,18.34375 L14.1875,17.375 L11.546875,17.375 C11.96875,17.953125 12.53125,18.671875 12.890625,19.21875 C13.390625,19.21875 13.6875,19.421875 13.78125,19.78125 Z M11.15625,8.359375 L11.15625,6.046875 L1.015625,6.046875 L1.21875,5.359375 L9.265625,5.359375 C7.296875,2.921875 4.25,0.640625 0.8125,-0.84375 L1.015625,-1.21875 C5.15625,0.09375 8.78125,2.15625 11.15625,4.875 L11.15625,-1.84375 L11.46875,-1.84375 C12.078125,-1.84375 12.765625,-1.515625 12.765625,-1.3125 L12.765625,5.359375 L12.90625,5.359375 C14.90625,2.328125 18.265625,0.078125 21.84375,-1.125 C22.015625,-0.390625 22.578125,0.125 23.234375,0.234375 L23.25,0.5 C19.78125,1.25 15.84375,3.078125 13.578125,5.359375 L22.34375,5.359375 C22.6875,5.359375 22.921875,5.46875 22.96875,5.734375 C22.125,6.5 20.765625,7.5625 20.765625,7.5625 L19.5625,6.046875 L12.765625,6.046875 L12.765625,7.4375 C13.390625,7.53125 13.609375,7.75 13.65625,8.09375 Z" transform="translate(-0.3125, 20.203125) scale(1, -1)"/>
</svg>