<svg height="21.90625" viewBox="0 0 24 21.90625" width="24" xmlns="http://www.w3.org/2000/svg">
<path d="M14.5625,7.109375 C14.296875,6.546875 13.890625,5.734375 13.53125,5.09375 C13.03125,5.609375 12.40625,6.171875 11.65625,6.703125 L11.359375,6.546875 C12,5.609375 12.71875,4.34375 13.265625,3.078125 L10.265625,2.203125 L10.265625,8.5625 L13.78125,8.5625 L13.78125,7.484375 L14.0625,7.484375 C14.59375,7.484375 15.140625,7.796875 15.1875,7.890625 L15.1875,15.578125 C15.578125,15.640625 15.90625,15.8125 16.078125,15.984375 L14.640625,17.375 L13.9375,16.5625 L12.640625,16.5625 L12.640625,19.078125 C13.171875,19.171875 13.390625,19.390625 13.421875,19.703125 L11.234375,19.921875 L11.234375,16.5625 L10.5625,16.5625 L8.859375,17.28125 L8.859375,1.828125 L7.015625,1.375 L8.234375,-0.71875 C8.453125,-0.625 8.640625,-0.40625 8.71875,-0.125 C10.734375,0.9375 12.28125,1.84375 13.484375,2.546875 C13.78125,1.75 13.984375,0.984375 14.0625,0.28125 C15.40625,-0.90625 16.5625,1.5625 13.921875,4.65625 L15.5,5.640625 C15.953125,5.515625 16.203125,5.59375 16.296875,5.734375 Z M16.609375,18.3125 L16.609375,-1.84375 L16.828125,-1.84375 C17.5625,-1.84375 18.046875,-1.4375 18.046875,-1.3125 L18.046875,17.640625 L20.65625,17.640625 C20.234375,15.671875 19.53125,12.625 19.0625,11.0625 C20.640625,9.171875 21.265625,7.296875 21.265625,5.375 C21.265625,4.34375 21.09375,3.84375 20.71875,3.578125 C20.5625,3.484375 20.421875,3.453125 20.203125,3.453125 C19.796875,3.453125 18.90625,3.453125 18.40625,3.453125 L18.40625,3.078125 C18.953125,3 19.421875,2.875 19.578125,2.6875 C19.78125,2.5 19.875,1.984375 19.875,1.515625 C22.109375,1.609375 22.84375,2.59375 22.84375,5.0625 C22.84375,7.078125 21.90625,9.140625 19.625,11.140625 C20.5,12.703125 21.703125,15.703125 22.34375,17.25 C22.875,17.28125 23.1875,17.296875 23.375,17.515625 L21.53125,19.3125 L20.546875,18.3125 L18.265625,18.3125 L16.609375,19.0625 Z M10.265625,12.234375 L13.78125,12.234375 L13.78125,9.265625 L10.265625,9.265625 Z M10.265625,12.953125 L10.265625,15.84375 L13.78125,15.84375 L13.78125,12.953125 Z M4.109375,20.0625 L4.109375,14.46875 L1.015625,14.46875 L1.203125,13.78125 L3.796875,13.78125 C3.21875,10.25 2.203125,6.703125 0.59375,3.90625 L0.9375,3.59375 C2.28125,5.28125 3.3125,7.171875 4.109375,9.234375 L4.109375,-1.84375 L4.421875,-1.84375 C4.9375,-1.84375 5.59375,-1.46875 5.59375,-1.25 L5.59375,10.703125 C6.28125,9.765625 7.015625,8.453125 7.171875,7.4375 C8.46875,6.359375 9.71875,9.171875 5.59375,11.25 L5.59375,13.78125 L8.1875,13.78125 C8.515625,13.78125 8.734375,13.890625 8.78125,14.15625 C8.140625,14.859375 7.0625,15.859375 7.0625,15.859375 L6.078125,14.46875 L5.59375,14.46875 L5.59375,19.15625 C6.171875,19.25 6.359375,19.46875 6.4375,19.828125 Z" transform="translate(0.015625, 20.0625) scale(1, -1)"/>
</svg>