<svg height="22.03125" viewBox="0 0 24 22.03125" width="24" xmlns="http://www.w3.org/2000/svg">
<path d="M9.171875,19.53125 L8.921875,19.3125 C9.859375,18.546875 10.96875,17.203125 11.25,16.125 C12.8125,15.078125 13.96875,18.28125 9.171875,19.53125 Z M11.78125,2.234375 L11.78125,8.046875 C12.1875,8.109375 12.53125,8.296875 12.671875,8.46875 L10.96875,9.796875 L10.171875,8.921875 L8.15625,8.921875 L8.234375,8.6875 C7.828125,9.359375 7.0625,10.109375 5.734375,10.78125 L5.734375,13.78125 L8.453125,13.78125 C8.78125,13.78125 8.96875,13.890625 9.046875,14.15625 C9.84375,13.375 10.609375,12.140625 10.796875,11.109375 C12.28125,10.03125 13.625,13.15625 9.140625,14.5 L8.90625,14.296875 C8.234375,14.96875 7.25,15.8125 7.25,15.8125 L6.234375,14.46875 L5.734375,14.46875 L5.734375,19.125 C6.34375,19.21875 6.53125,19.4375 6.59375,19.796875 L4.25,20.0625 L4.25,14.46875 L1.015625,14.46875 L1.203125,13.78125 L3.859375,13.78125 C3.28125,10.265625 2.234375,6.765625 0.53125,4.03125 L0.859375,3.75 C2.328125,5.453125 3.4375,7.390625 4.25,9.5 L4.25,-1.875 L4.5625,-1.875 C5.109375,-1.875 5.734375,-1.515625 5.734375,-1.296875 L5.734375,10.203125 C6.390625,9.265625 7.078125,7.96875 7.265625,6.953125 C8.109375,6.265625 8.90625,7.03125 8.453125,8.234375 L10.375,8.234375 L10.375,1.625 C9.34375,0.90625 8.25,0.21875 7.53125,-0.171875 L8.640625,-1.921875 C8.8125,-1.796875 8.90625,-1.625 8.859375,-1.375 C9.578125,-0.625 10.75,0.75 11.515625,1.734375 C12.578125,-0.859375 14.015625,-1.421875 16.96875,-1.421875 C18.796875,-1.421875 20.78125,-1.421875 22.421875,-1.421875 C22.484375,-0.765625 22.796875,-0.34375 23.328125,-0.234375 L23.328125,0.09375 C21.40625,0.046875 18.9375,0.046875 16.984375,0.046875 C14.28125,0.046875 12.984375,0.34375 11.78125,2.234375 Z M16.828125,20.109375 C16.578125,19.15625 16.203125,17.8125 15.90625,16.890625 L15.265625,16.890625 L13.6875,17.640625 L13.6875,1.484375 L13.9375,1.484375 C14.609375,1.484375 15.140625,1.875 15.140625,2.046875 L15.140625,3 L20.46875,3 L20.46875,1.84375 L20.71875,1.84375 C21.1875,1.84375 21.90625,2.203125 21.9375,2.359375 L21.9375,7.75 C22.421875,7.84375 22.796875,8.046875 22.96875,8.234375 L21.09375,9.640625 L20.234375,8.765625 L15.140625,8.765625 L15.140625,11.375 L20.015625,11.375 L20.015625,10.390625 L20.25,10.390625 C20.734375,10.390625 21.484375,10.734375 21.5,10.875 L21.5,15.90625 C21.9375,16.015625 22.34375,16.203125 22.484375,16.390625 L20.640625,17.8125 L19.78125,16.890625 L16.65625,16.890625 L18.40625,19.0625 C18.890625,19.03125 19.203125,19.21875 19.296875,19.5625 Z M15.140625,12.046875 L15.140625,16.203125 L20.015625,16.203125 L20.015625,12.046875 Z M15.140625,3.71875 L15.140625,8.046875 L20.46875,8.046875 L20.46875,3.71875 Z" transform="translate(0.0703125, 20.109375) scale(1, -1)"/>
</svg>