<svg height="23.015625" viewBox="0 0 24 23.015625" width="24" xmlns="http://www.w3.org/2000/svg">
<path d="M17.09375,1.796875 L16.9375,1.421875 C19.203125,0.546875 20.640625,-0.546875 21.390625,-1.53125 C22.890625,-2.953125 25.515625,0.671875 17.09375,1.796875 Z M13.515625,2.0625 C12.359375,0.859375 9.890625,-0.703125 7.5625,-1.484375 L7.703125,-1.875 C10.3125,-1.4375 12.984375,-0.453125 14.546875,0.5 C15.140625,0.359375 15.53125,0.40625 15.703125,0.640625 Z M19.15625,19.828125 C17.515625,18.890625 14.453125,17.828125 11.828125,17.203125 L11.828125,19.109375 C12.265625,19.171875 12.453125,19.390625 12.5,19.65625 L10.390625,19.921875 L10.390625,15.71875 C10.390625,14.546875 10.796875,14.234375 13.078125,14.234375 L16.796875,14.234375 C21.859375,14.234375 22.65625,14.453125 22.65625,15.171875 C22.65625,15.4375 22.484375,15.59375 21.890625,15.75 L21.84375,17.40625 L21.546875,17.40625 C21.328125,16.65625 21.09375,16.015625 20.90625,15.75 C20.78125,15.625 20.609375,15.546875 20.28125,15.546875 C19.828125,15.5 18.484375,15.5 16.875,15.5 L13.203125,15.5 C11.921875,15.5 11.828125,15.578125 11.828125,15.90625 L11.828125,16.78125 C14.734375,17.015625 18.09375,17.71875 19.9375,18.390625 C20.40625,18.1875 20.59375,18.234375 20.8125,18.4375 Z M14.09375,9.703125 L19.625,9.703125 L19.625,8.0625 L14.09375,8.0625 Z M14.09375,10.390625 L14.09375,12.046875 L19.625,12.046875 L19.625,10.390625 Z M14.09375,7.34375 L19.625,7.34375 L19.625,5.71875 L14.09375,5.71875 Z M12.640625,12.75 L12.640625,3.796875 L12.859375,3.796875 C13.609375,3.796875 14.09375,4.15625 14.09375,4.265625 L14.09375,5.015625 L19.625,5.015625 L19.625,4.0625 L19.828125,4.0625 C20.328125,4.0625 21.078125,4.390625 21.09375,4.53125 L21.09375,11.859375 C21.5,11.921875 21.84375,12.09375 21.984375,12.265625 L20.1875,13.625 L19.421875,12.75 L14.375,12.75 L12.640625,13.515625 Z M9.125,12.640625 L9.125,1.171875 L9.40625,1.171875 C9.9375,1.171875 10.578125,1.53125 10.578125,1.703125 L10.578125,2.5 L22.46875,2.5 C22.796875,2.5 23.015625,2.609375 23.09375,2.875 C22.375,3.578125 21.1875,4.46875 21.1875,4.46875 L20.15625,3.1875 L10.578125,3.1875 L10.578125,11.78125 C11.140625,11.859375 11.375,12.078125 11.421875,12.390625 Z M4.203125,20.0625 L4.203125,14.46875 L1.078125,14.46875 L1.265625,13.78125 L3.859375,13.78125 C3.359375,10.265625 2.359375,6.8125 0.71875,4.0625 L1.0625,3.765625 C2.40625,5.375 3.4375,7.171875 4.203125,9.171875 L4.203125,-1.84375 L4.53125,-1.84375 C5.09375,-1.84375 5.734375,-1.515625 5.734375,-1.296875 L5.734375,10.0625 C6.40625,9.125 7.171875,7.796875 7.421875,6.796875 C8.828125,5.65625 10.125,8.515625 5.734375,10.609375 L5.734375,13.78125 L8.5625,13.78125 C8.90625,13.78125 9.125,13.890625 9.1875,14.15625 C8.5,14.859375 7.34375,15.84375 7.34375,15.84375 L6.3125,14.46875 L5.734375,14.46875 L5.734375,19.125 C6.34375,19.21875 6.53125,19.4375 6.578125,19.796875 Z" transform="translate(-1.1171875, 20.0625) scale(1, -1)"/>
</svg>