<svg height="22.03125" viewBox="0 0 24 22.03125" width="24" xmlns="http://www.w3.org/2000/svg">
<path d="M4.484375,20.15625 L4.484375,14.421875 L0.9375,14.421875 L1.125,13.703125 L4.125,13.703125 C3.546875,10.125 2.46875,6.640625 0.71875,3.90625 L1.03125,3.578125 C2.515625,5.25 3.640625,7.125 4.484375,9.21875 L4.484375,-1.875 L4.828125,-1.875 C5.375,-1.875 6,-1.515625 6,-1.3125 L6,11.234375 C6.71875,10.25 7.5625,8.90625 7.84375,7.890625 C9.265625,6.84375 10.515625,9.640625 6,11.71875 L6,13.703125 L9.078125,13.703125 C9.40625,13.703125 9.640625,13.828125 9.703125,14.09375 C8.96875,14.8125 7.796875,15.796875 7.796875,15.796875 L6.765625,14.421875 L6,14.421875 L6,19.21875 C6.59375,19.3125 6.796875,19.53125 6.859375,19.890625 Z M8.09375,6.59375 L8.28125,5.90625 L9.75,5.90625 L9.75,3.390625 L7.515625,3.390625 L7.703125,2.6875 L9.75,2.6875 L9.75,-1.828125 L10.015625,-1.828125 C10.609375,-1.828125 11.234375,-1.46875 11.234375,-1.296875 L11.234375,2.6875 L19.4375,2.6875 L19.4375,0.453125 C19.4375,0.09375 19.34375,-0.03125 18.953125,-0.03125 C18.484375,-0.03125 16.484375,0.125 16.484375,0.125 L16.484375,-0.265625 C17.40625,-0.390625 17.921875,-0.546875 18.21875,-0.765625 C18.5,-0.984375 18.59375,-1.375 18.640625,-1.796875 C20.65625,-1.578125 20.90625,-0.859375 20.90625,0.265625 L20.90625,2.6875 L22.75,2.6875 C23.09375,2.6875 23.28125,2.8125 23.328125,3.078125 C22.78125,3.71875 21.796875,4.609375 21.796875,4.609375 L20.90625,3.390625 L20.90625,5.90625 L22.5625,5.90625 C22.890625,5.90625 23.109375,6.03125 23.15625,6.28125 C22.609375,6.90625 21.640625,7.78125 21.640625,7.78125 L20.90625,6.75 L20.90625,8.59375 C21.4375,8.6875 21.890625,8.90625 22.0625,9.078125 L19.96875,10.65625 L19.15625,9.625 L15.953125,9.625 L15.953125,11.40625 L22.4375,11.40625 C22.75,11.40625 22.984375,11.515625 23.046875,11.78125 C22.34375,12.453125 21.21875,13.375 21.21875,13.375 L20.203125,12.09375 L18.1875,12.09375 L18.1875,14.15625 L21.578125,14.15625 C21.859375,14.15625 22.109375,14.28125 22.15625,14.546875 C21.5,15.1875 20.421875,16.0625 20.421875,16.0625 L19.484375,14.875 L18.1875,14.875 L18.1875,16.828125 L22.109375,16.828125 C22.4375,16.828125 22.6875,16.9375 22.75,17.203125 C22.03125,17.875 20.875,18.765625 20.875,18.765625 L19.875,17.515625 L18.1875,17.515625 L18.1875,19.078125 C18.71875,19.171875 18.984375,19.390625 19.015625,19.734375 L16.734375,19.96875 L16.734375,17.515625 L13.484375,17.515625 L13.484375,19.109375 C14.046875,19.203125 14.25,19.421875 14.296875,19.75 L12.03125,19.984375 L12.03125,17.515625 L8.71875,17.515625 L8.875,16.828125 L12.03125,16.828125 L12.03125,14.875 L9.59375,14.875 L9.796875,14.15625 L12.03125,14.15625 L12.03125,12.09375 L8.203125,12.09375 L8.40625,11.40625 L14.5,11.40625 L14.5,9.625 L11.359375,9.625 L9.75,10.390625 L9.75,6.59375 Z M13.484375,16.828125 L16.734375,16.828125 L16.734375,14.875 L13.484375,14.875 Z M13.484375,14.15625 L16.734375,14.15625 L16.734375,12.09375 L13.484375,12.09375 Z M14.5,3.390625 L11.234375,3.390625 L11.234375,5.90625 L14.5,5.90625 Z M15.953125,3.390625 L15.953125,5.90625 L19.4375,5.90625 L19.4375,3.390625 Z M14.5,8.953125 L14.5,6.59375 L11.234375,6.59375 L11.234375,8.953125 Z M15.953125,8.953125 L19.4375,8.953125 L19.4375,6.59375 L15.953125,6.59375 Z" transform="translate(-0.0234375, 20.15625) scale(1, -1)"/>
</svg>