<svg height="23.109375" viewBox="0 0 24 23.109375" width="24" xmlns="http://www.w3.org/2000/svg">
<path d="M8.15625,3.71875 L8.359375,3 L22.75,3 C23.0625,3 23.296875,3.125 23.375,3.390625 C22.578125,4.125 21.3125,5.09375 21.3125,5.09375 L20.15625,3.71875 Z M17.015625,2.28125 L16.84375,1.890625 C19.109375,0.84375 20.640625,-0.453125 21.390625,-1.5625 C22.875,-3.046875 25.515625,0.546875 17.015625,2.28125 Z M13.109375,2.546875 C12.046875,1.21875 9.765625,-0.578125 7.609375,-1.53125 L7.796875,-1.890625 C10.296875,-1.25 12.84375,0.03125 14.25,1.125 C14.859375,1.03125 15.21875,1.125 15.359375,1.34375 Z M12.234375,11.109375 L19.109375,11.109375 L19.109375,9.09375 L12.234375,9.09375 Z M12.234375,11.828125 L12.234375,13.78125 L19.109375,13.78125 L19.109375,11.828125 Z M12.234375,8.421875 L19.109375,8.421875 L19.109375,6.359375 L12.234375,6.359375 Z M10.703125,14.46875 L10.703125,4.4375 L10.9375,4.4375 C11.734375,4.4375 12.234375,4.84375 12.234375,4.96875 L12.234375,5.640625 L19.109375,5.640625 L19.109375,4.625 L19.34375,4.625 C19.84375,4.625 20.640625,4.984375 20.65625,5.15625 L20.65625,13.484375 C21.140625,13.5625 21.53125,13.75 21.703125,13.9375 L19.75,15.4375 L18.859375,14.46875 L16.34375,14.46875 L16.34375,16.5625 L22.3125,16.5625 C22.65625,16.5625 22.875,16.6875 22.9375,16.921875 C22.171875,17.65625 20.90625,18.671875 20.90625,18.671875 L19.796875,17.25 L16.34375,17.25 L16.34375,19.171875 C16.921875,19.25 17.15625,19.484375 17.203125,19.796875 L14.8125,20.046875 L14.8125,17.25 L8.921875,17.25 L9.09375,16.5625 L14.8125,16.5625 L14.8125,14.46875 L12.53125,14.46875 L10.703125,15.265625 Z M7.984375,6.703125 C9.40625,5.59375 10.734375,8.453125 6.140625,10.53125 L6.140625,13.75 L9.234375,13.75 C9.578125,13.75 9.8125,13.875 9.890625,14.140625 C9.140625,14.859375 7.9375,15.84375 7.9375,15.84375 L6.890625,14.453125 L6.140625,14.453125 L6.140625,19.125 C6.765625,19.21875 6.953125,19.4375 7.03125,19.796875 L4.609375,20.0625 L4.609375,14.453125 L0.984375,14.453125 L1.171875,13.75 L4.3125,13.75 C3.703125,10.171875 2.46875,6.671875 0.578125,3.9375 L0.90625,3.59375 C2.5,5.28125 3.71875,7.203125 4.609375,9.34375 L4.609375,-1.875 L4.9375,-1.875 C5.515625,-1.875 6.140625,-1.515625 6.140625,-1.296875 L6.140625,10.109375 C6.859375,9.125 7.734375,7.75 7.984375,6.703125 Z" transform="translate(-1.046875, 20.0625) scale(1, -1)"/>
</svg>