<svg height="21.96875" viewBox="0 0 24 21.96875" width="24" xmlns="http://www.w3.org/2000/svg">
<path d="M10.109375,13.0625 L13.78125,13.0625 L13.78125,10.03125 L10.109375,10.03125 Z M10.109375,13.75 L10.109375,16.703125 L13.78125,16.703125 L13.78125,13.75 Z M11.15625,20.09375 C11.09375,19.3125 10.921875,18.171875 10.78125,17.40625 L10.21875,17.40625 L8.71875,18.125 L8.71875,8.046875 L8.921875,8.046875 C9.53125,8.046875 10.109375,8.375 10.109375,8.515625 L10.109375,9.34375 L13.78125,9.34375 L13.78125,8.28125 L13.984375,8.28125 C14.46875,8.28125 15.1875,8.640625 15.21875,8.78125 L15.21875,16.46875 C15.671875,16.5625 16.03125,16.734375 16.203125,16.890625 L14.375,18.3125 L13.5625,17.40625 L11.5625,17.40625 L12.765625,19.109375 C13.265625,19.15625 13.53125,19.375 13.625,19.6875 Z M4.5625,19.984375 C4.25,19.0625 3.703125,17.421875 3.21875,16.171875 C2.765625,16.421875 2.203125,16.625 1.484375,16.78125 L1.25,16.5625 C2.1875,15.90625 3.171875,14.765625 3.390625,13.734375 C4.515625,12.9375 5.421875,14.640625 3.703125,15.890625 C4.46875,16.890625 5.40625,18.125 5.90625,18.8125 C6.484375,18.765625 6.703125,18.90625 6.765625,19.15625 Z M6.171875,16.578125 C5.453125,14.90625 4.078125,11.953125 3,9.90625 L0.859375,9.703125 L1.875,7.890625 C2.09375,7.96875 2.28125,8.109375 2.375,8.421875 C4.171875,9.03125 5.515625,9.5 6.5,9.890625 C6.671875,9.359375 6.796875,8.828125 6.8125,8.375 C8.046875,7.15625 9.5,9.9375 5.78125,12.34375 L5.46875,12.21875 C5.78125,11.71875 6.09375,11.046875 6.359375,10.34375 L3.578125,9.984375 C4.921875,11.734375 6.53125,14.015625 7.421875,15.359375 C7.9375,15.3125 8.1875,15.40625 8.28125,15.640625 Z M11.15625,8.296875 L11.15625,6.046875 L1.015625,6.046875 L1.21875,5.359375 L9.3125,5.359375 C7.3125,2.90625 4.25,0.640625 0.765625,-0.84375 L0.953125,-1.25 C5.15625,0.078125 8.78125,2.140625 11.15625,4.828125 L11.15625,-1.875 L11.46875,-1.875 C12.078125,-1.875 12.765625,-1.53125 12.765625,-1.3125 L12.765625,5.359375 L12.90625,5.359375 C14.90625,2.328125 18.265625,0.046875 21.84375,-1.15625 C22.015625,-0.390625 22.578125,0.125 23.234375,0.234375 L23.25,0.5 C19.78125,1.25 15.84375,3.078125 13.578125,5.359375 L22.34375,5.359375 C22.6875,5.359375 22.921875,5.46875 22.96875,5.71875 C22.125,6.5 20.765625,7.53125 20.765625,7.53125 L19.5625,6.046875 L12.765625,6.046875 L12.765625,7.375 C13.390625,7.46875 13.609375,7.703125 13.65625,8.015625 Z M18.671875,19.984375 C18.359375,19.03125 17.78125,17.328125 17.28125,16.109375 C16.890625,16.296875 16.421875,16.484375 15.84375,16.625 L15.59375,16.421875 C16.4375,15.796875 17.25,14.65625 17.375,13.6875 C18.484375,12.890625 19.46875,14.59375 17.734375,15.8125 C18.546875,16.796875 19.53125,18.046875 20.0625,18.75 C20.609375,18.703125 20.828125,18.8125 20.90625,19.0625 Z M20.515625,16.625 C19.734375,14.90625 18.28125,11.96875 17.15625,9.9375 L15.484375,9.75 L16.484375,7.984375 C16.734375,8.0625 16.890625,8.203125 16.984375,8.515625 C18.703125,9.078125 19.984375,9.578125 20.921875,9.9375 C21.21875,9.359375 21.4375,8.765625 21.5,8.25 C22.875,7.078125 24.1875,9.984375 19.921875,12.28125 L19.625,12.140625 C19.984375,11.65625 20.375,11.046875 20.71875,10.390625 L17.765625,10.015625 C19.15625,11.734375 20.78125,14.015625 21.703125,15.34375 C22.25,15.265625 22.484375,15.390625 22.578125,15.59375 Z" transform="translate(-0.4765625, 20.09375) scale(1, -1)"/>
</svg>