<svg height="21.921875" viewBox="0 0 24 21.921875" width="24" xmlns="http://www.w3.org/2000/svg">
<path d="M8.421875,19.015625 L8.15625,18.8125 C9.125,18.03125 10.25,16.625 10.515625,15.484375 C12.125,14.40625 13.3125,17.734375 8.421875,19.015625 Z M7.796875,13.484375 L7.5625,13.296875 C8.515625,12.578125 9.640625,11.296875 9.953125,10.265625 C11.546875,9.265625 12.59375,12.5 7.796875,13.484375 Z M7.3125,8.28125 C8.65625,7.203125 9.90625,10.15625 5.59375,11.921875 L5.59375,13.6875 L8.359375,13.6875 C8.6875,13.6875 8.90625,13.796875 8.96875,14.0625 C8.328125,14.78125 7.21875,15.796875 7.21875,15.796875 L6.234375,14.40625 L5.59375,14.40625 L5.59375,19.171875 C6.171875,19.265625 6.359375,19.484375 6.4375,19.84375 L4.109375,20.09375 L4.109375,14.40625 L0.953125,14.40625 L1.15625,13.6875 L3.796875,13.6875 C3.234375,10.078125 2.234375,6.40625 0.59375,3.546875 L0.953125,3.234375 C2.296875,4.9375 3.34375,6.859375 4.109375,8.953125 L4.109375,-1.828125 L4.421875,-1.828125 C4.9375,-1.828125 5.59375,-1.46875 5.59375,-1.21875 L5.59375,11.5 C6.390625,10.609375 7.203125,9.34375 7.3125,8.28125 Z M10.96875,2.234375 L10.96875,6.625 C11.359375,6.703125 11.71875,6.859375 11.859375,7.03125 L10.125,8.359375 L9.3125,7.515625 L6.9375,7.515625 L7.15625,6.8125 L9.53125,6.8125 L9.53125,1.65625 C8.5625,1.015625 7.53125,0.359375 6.859375,0 L7.9375,-1.78125 C8.109375,-1.65625 8.234375,-1.515625 8.1875,-1.25 C8.875,-0.53125 9.953125,0.796875 10.6875,1.75 C11.875,-0.75 13.34375,-1.296875 16.46875,-1.296875 C18.359375,-1.296875 20.546875,-1.296875 22.296875,-1.296875 C22.34375,-0.59375 22.6875,-0.171875 23.25,-0.078125 L23.25,0.265625 C21.1875,0.21875 18.53125,0.21875 16.46875,0.21875 C13.578125,0.21875 12.21875,0.484375 10.96875,2.234375 Z M12.09375,18.8125 L12.3125,18.140625 L19.625,18.140625 C19.03125,17.46875 18.21875,16.6875 17.5625,16.078125 C16.875,16.484375 15.859375,16.84375 14.46875,17.046875 L14.25,16.796875 C15.4375,16.15625 16.96875,14.921875 17.65625,13.875 L14.046875,13.875 L12.546875,14.59375 L12.546875,1.4375 L12.796875,1.4375 C13.390625,1.4375 13.921875,1.78125 13.921875,1.921875 L13.921875,6.21875 L16.421875,6.21875 L16.421875,1.828125 L16.625,1.828125 C17.328125,1.828125 17.78125,2.15625 17.78125,2.25 L17.78125,6.21875 L20.46875,6.21875 L20.46875,3.765625 C20.46875,3.453125 20.375,3.34375 20.0625,3.34375 C19.734375,3.34375 18.359375,3.453125 18.359375,3.453125 L18.359375,3.046875 C19.03125,2.96875 19.421875,2.8125 19.65625,2.59375 C19.875,2.328125 19.921875,1.9375 19.96875,1.484375 C21.671875,1.6875 21.890625,2.40625 21.890625,3.59375 L21.890625,12.890625 C22.375,12.953125 22.78125,13.171875 22.921875,13.375 L20.96875,14.8125 L20.234375,13.875 L18.796875,13.875 C19.0625,14.28125 18.90625,15.046875 18.03125,15.75 C19.296875,16.34375 20.921875,17.203125 21.84375,17.859375 C22.34375,17.90625 22.609375,17.921875 22.828125,18.09375 L20.96875,19.875 L19.921875,18.8125 Z M13.921875,9.75 L16.421875,9.75 L16.421875,6.9375 L13.921875,6.9375 Z M13.921875,10.4375 L13.921875,13.171875 L16.421875,13.171875 L16.421875,10.4375 Z M17.78125,9.75 L20.46875,9.75 L20.46875,6.9375 L17.78125,6.9375 Z M17.78125,10.4375 L17.78125,13.171875 L20.46875,13.171875 L20.46875,10.4375 Z" transform="translate(0.078125, 20.09375) scale(1, -1)"/>
</svg>