<svg height="21.9375" viewBox="0 0 24 21.9375" width="24" xmlns="http://www.w3.org/2000/svg">
<path d="M8.140625,18.765625 L7.875,18.578125 C8.8125,17.609375 9.859375,15.953125 10.0625,14.65625 C11.71875,13.390625 13.125,16.96875 8.140625,18.765625 Z M11.90625,18.8125 L12.125,18.140625 L19.625,18.140625 C19.03125,17.46875 18.1875,16.65625 17.515625,16.0625 C16.828125,16.484375 15.8125,16.84375 14.375,17.0625 L14.15625,16.796875 C15.34375,16.171875 16.84375,14.921875 17.546875,13.875 L14.015625,13.875 L12.484375,14.609375 L12.484375,1.4375 L12.71875,1.4375 C13.34375,1.4375 13.890625,1.78125 13.890625,1.9375 L13.890625,6.125 L16.390625,6.125 L16.390625,1.828125 L16.609375,1.828125 C17.296875,1.828125 17.765625,2.15625 17.765625,2.25 L17.765625,6.125 L20.421875,6.125 L20.421875,3.71875 C20.421875,3.40625 20.359375,3.28125 20.046875,3.28125 C19.6875,3.28125 18.3125,3.40625 18.3125,3.40625 L18.3125,3.03125 C19.015625,2.921875 19.375,2.765625 19.609375,2.546875 C19.828125,2.28125 19.890625,1.875 19.921875,1.4375 C21.671875,1.625 21.859375,2.359375 21.859375,3.546875 L21.859375,12.890625 C22.34375,12.953125 22.75,13.171875 22.921875,13.375 L20.953125,14.8125 L20.1875,13.875 L18.671875,13.875 C18.9375,14.28125 18.8125,15.03125 17.96875,15.71875 C19.25,16.296875 20.90625,17.203125 21.84375,17.859375 C22.34375,17.90625 22.609375,17.921875 22.796875,18.09375 L20.96875,19.875 L19.921875,18.8125 Z M13.890625,9.703125 L16.390625,9.703125 L16.390625,6.84375 L13.890625,6.84375 Z M13.890625,10.390625 L13.890625,13.171875 L16.390625,13.171875 L16.390625,10.390625 Z M17.765625,9.703125 L20.421875,9.703125 L20.421875,6.84375 L17.765625,6.84375 Z M17.765625,10.390625 L17.765625,13.171875 L20.421875,13.171875 L20.421875,10.390625 Z M4.109375,20.09375 L4.109375,14.40625 L0.9375,14.40625 L1.125,13.6875 L3.796875,13.6875 C3.265625,10.203125 2.359375,6.640625 0.84375,3.859375 L1.21875,3.546875 C2.421875,5.15625 3.390625,6.953125 4.109375,8.921875 L4.109375,-1.84375 L4.421875,-1.84375 C4.9375,-1.84375 5.59375,-1.484375 5.59375,-1.25 L5.59375,9.671875 C6.28125,8.71875 7.015625,7.421875 7.171875,6.40625 C8.46875,5.328125 9.71875,8.140625 5.59375,10.25 L5.59375,13.6875 L8.359375,13.6875 C8.65625,13.6875 8.90625,13.796875 8.953125,14.0625 C8.328125,14.78125 7.203125,15.765625 7.203125,15.765625 L6.234375,14.40625 L5.59375,14.40625 L5.59375,19.171875 C6.171875,19.265625 6.359375,19.484375 6.4375,19.84375 Z M10.796875,2.453125 L10.796875,9.125 C11.28125,9.21875 11.65625,9.40625 11.828125,9.59375 L10.03125,10.984375 L9.171875,10.109375 L7.03125,10.109375 L7.25,9.40625 L9.40625,9.40625 L9.40625,1.78125 C8.46875,1.078125 7.484375,0.359375 6.8125,-0.03125 L7.9375,-1.828125 C8.140625,-1.703125 8.203125,-1.53125 8.15625,-1.265625 C8.828125,-0.5 9.890625,0.90625 10.5625,1.921875 C11.71875,-0.765625 13.203125,-1.34375 16.3125,-1.34375 C18.21875,-1.34375 20.328125,-1.34375 22.0625,-1.34375 C22.125,-0.625 22.46875,-0.1875 23.0625,-0.078125 L23.0625,0.234375 C21,0.1875 18.390625,0.1875 16.34375,0.1875 C13.4375,0.1875 12.078125,0.5 10.796875,2.453125 Z" transform="translate(0.046875, 20.09375) scale(1, -1)"/>
</svg>