<svg height="21.953125" viewBox="0 0 24 21.953125" width="24" xmlns="http://www.w3.org/2000/svg">
<path d="M8.90625,18.28125 L8.90625,14.375 C8.234375,15.046875 7.3125,15.8125 7.3125,15.8125 L6.3125,14.46875 L5.734375,14.46875 L5.734375,19.125 C6.3125,19.21875 6.5,19.4375 6.578125,19.796875 L4.21875,20.0625 L4.21875,14.46875 L1.03125,14.46875 L1.21875,13.78125 L3.859375,13.78125 C3.34375,10.296875 2.40625,6.8125 0.765625,4.0625 L1.125,3.75 C2.453125,5.40625 3.484375,7.25 4.21875,9.265625 L4.21875,-1.875 L4.53125,-1.875 C5.09375,-1.875 5.734375,-1.515625 5.734375,-1.296875 L5.734375,10.484375 C6.40625,9.546875 7.171875,8.234375 7.421875,7.21875 C8.8125,6.140625 10.0625,8.921875 5.734375,11.0625 L5.734375,13.78125 L8.515625,13.78125 C8.6875,13.78125 8.8125,13.796875 8.90625,13.875 L8.90625,-1.890625 L9.140625,-1.890625 C9.90625,-1.890625 10.421875,-1.46875 10.421875,-1.34375 L10.421875,-0.1875 L22.65625,-0.1875 C22.984375,-0.1875 23.203125,-0.078125 23.25,0.1875 C22.515625,0.890625 21.265625,1.875 21.265625,1.875 L20.1875,0.5 L10.421875,0.5 L10.421875,17.5625 L21.984375,17.5625 C22.3125,17.5625 22.53125,17.6875 22.609375,17.953125 C21.84375,18.671875 20.59375,19.65625 20.59375,19.65625 L19.515625,18.28125 L10.703125,18.28125 L8.90625,19.03125 Z M13.484375,15.796875 L13.484375,9.859375 L13.703125,9.859375 C14.25,9.859375 14.859375,10.203125 14.859375,10.3125 L14.859375,10.984375 L18.71875,10.984375 L18.71875,10.171875 L18.9375,10.171875 C19.390625,10.171875 20.09375,10.46875 20.09375,10.625 L20.09375,14.921875 C20.46875,15 20.8125,15.140625 20.921875,15.3125 L19.265625,16.578125 L18.53125,15.796875 L14.953125,15.796875 L13.484375,16.46875 Z M14.859375,11.71875 L14.859375,15.09375 L18.71875,15.09375 L18.71875,11.71875 Z M11.640625,8.65625 L11.640625,2.046875 L11.828125,2.046875 C12.34375,2.046875 12.859375,2.328125 12.859375,2.421875 L12.859375,3.21875 L14.953125,3.21875 L14.953125,2.421875 L15.140625,2.421875 C15.546875,2.421875 16.171875,2.734375 16.203125,2.875 L16.203125,7.875 C16.5625,7.921875 16.875,8.0625 16.96875,8.234375 L15.453125,9.359375 L14.78125,8.65625 L12.984375,8.65625 L11.640625,9.28125 Z M12.859375,3.9375 L12.859375,7.96875 L14.953125,7.96875 L14.953125,3.9375 Z M17.46875,8.65625 L17.46875,2.15625 L17.65625,2.15625 C18.21875,2.15625 18.71875,2.453125 18.71875,2.546875 L18.71875,3.21875 L20.921875,3.21875 L20.921875,2.421875 L21.125,2.421875 C21.53125,2.421875 22.171875,2.734375 22.203125,2.875 L22.203125,7.84375 C22.5625,7.890625 22.875,8.0625 22.984375,8.203125 L21.4375,9.390625 L20.734375,8.65625 L18.84375,8.65625 L17.46875,9.28125 Z M18.71875,3.9375 L18.71875,7.96875 L20.921875,7.96875 L20.921875,3.9375 Z" transform="translate(-0.0078125, 20.0625) scale(1, -1)"/>
</svg>