<svg height="22.65625" viewBox="0 0 24 22.65625" width="24" xmlns="http://www.w3.org/2000/svg">
<path d="M4.25,20.046875 L4.25,14.46875 L1.0625,14.46875 L1.25,13.78125 L3.859375,13.78125 C3.3125,10.265625 2.28125,6.796875 0.59375,4.0625 L0.9375,3.75 C2.375,5.40625 3.453125,7.265625 4.25,9.34375 L4.25,-1.875 L4.5625,-1.875 C5.140625,-1.875 5.765625,-1.515625 5.765625,-1.296875 L5.765625,10.9375 C6.4375,10.015625 7.21875,8.65625 7.4375,7.625 C8.859375,6.53125 10.15625,9.359375 5.765625,11.46875 L5.765625,13.78125 L8.46875,13.78125 C8.8125,13.78125 9.046875,13.890625 9.078125,14.15625 C8.40625,14.859375 7.25,15.84375 7.25,15.84375 L6.234375,14.46875 L5.765625,14.46875 L5.765625,19.125 C6.359375,19.21875 6.546875,19.4375 6.625,19.796875 Z M14.59375,14.78125 L14.59375,13.015625 L11.421875,13.015625 L11.421875,14.78125 Z M16.03125,14.78125 L19.265625,14.78125 L19.265625,13.015625 L16.03125,13.015625 Z M14.59375,15.453125 L11.421875,15.453125 L11.421875,17.203125 L14.59375,17.203125 Z M16.03125,15.453125 L16.03125,17.203125 L19.265625,17.203125 L19.265625,15.453125 Z M9.546875,10.625 L9.546875,6.234375 L9.765625,6.234375 C10.34375,6.234375 10.984375,6.578125 10.984375,6.71875 L10.984375,7.34375 L19.703125,7.34375 L19.703125,6.453125 L19.9375,6.453125 C20.453125,6.453125 21.171875,6.84375 21.171875,7.015625 L21.171875,9.671875 C21.640625,9.765625 22.015625,9.953125 22.15625,10.125 L20.296875,11.515625 L19.484375,10.625 L16.03125,10.625 L16.03125,12.28125 L19.265625,12.28125 L19.265625,11.515625 L19.484375,11.515625 C19.96875,11.515625 20.6875,11.921875 20.6875,12.09375 L20.6875,14.78125 L22.625,14.78125 C22.9375,14.78125 23.15625,14.90625 23.203125,15.140625 C22.625,15.765625 21.625,16.578125 21.625,16.578125 L20.8125,15.453125 L20.6875,15.453125 L20.6875,16.9375 C21.171875,17.046875 21.578125,17.234375 21.703125,17.421875 L19.84375,18.8125 L19.03125,17.921875 L16.03125,17.921875 L16.03125,19.15625 C16.609375,19.25 16.84375,19.484375 16.890625,19.828125 L14.59375,20.0625 L14.59375,17.921875 L11.546875,17.921875 L10.015625,18.625 L10.015625,15.453125 L8.359375,15.453125 L8.546875,14.78125 L10.015625,14.78125 L10.015625,11.359375 L10.21875,11.359375 C10.828125,11.359375 11.421875,11.6875 11.421875,11.828125 L11.421875,12.28125 L14.59375,12.28125 L14.59375,10.625 L11.109375,10.625 L9.546875,11.359375 Z M13.625,7.34375 C13.375,6.796875 12.90625,5.921875 12.390625,5.015625 L7.75,5.015625 L7.9375,4.3125 L11.953125,4.3125 C11.203125,3.125 10.390625,1.890625 9.796875,1.15625 C10.296875,0.84375 10.921875,0.75 11.328125,0.859375 L11.90625,1.6875 C12.984375,1.421875 13.984375,1.15625 14.90625,0.859375 C13.203125,-0.21875 10.84375,-0.90625 7.75,-1.421875 L7.875,-1.84375 C11.734375,-1.484375 14.46875,-0.8125 16.390625,0.390625 C18.1875,-0.265625 19.625,-0.9375 20.6875,-1.609375 C22.296875,-2.59375 24.1875,-0.28125 17.609375,1.296875 C18.5,2.109375 19.171875,3.09375 19.6875,4.3125 L22.46875,4.3125 C22.796875,4.3125 23.046875,4.4375 23.109375,4.703125 C22.3125,5.421875 21.09375,6.390625 21.09375,6.390625 L19.984375,5.015625 L14.09375,5.015625 L14.875,6.3125 C15.484375,6.3125 15.75,6.53125 15.859375,6.84375 Z M13.65625,4.3125 L17.828125,4.3125 C17.375,3.265625 16.78125,2.375 15.9375,1.65625 C14.875,1.84375 13.65625,2.015625 12.234375,2.15625 Z M14.59375,8.0625 L10.984375,8.0625 L10.984375,9.9375 L14.59375,9.9375 Z M16.03125,8.0625 L16.03125,9.9375 L19.703125,9.9375 L19.703125,8.0625 Z" transform="translate(-0.390625, 20.0625) scale(1, -1)"/>
</svg>