<svg height="22.21875" viewBox="0 0 24 22.21875" width="24" xmlns="http://www.w3.org/2000/svg">
<path d="M10.25,2.765625 L10.03125,2.546875 C10.984375,1.921875 12.140625,0.75 12.484375,-0.265625 C14.140625,-1.171875 15.09375,2.140625 10.25,2.765625 Z M10.984375,18.671875 C10.515625,17.1875 9.671875,15.640625 8.734375,14.46875 C8.0625,15.125 7.21875,15.84375 7.21875,15.84375 L6.21875,14.46875 L5.765625,14.46875 L5.765625,19.125 C6.359375,19.21875 6.546875,19.4375 6.625,19.796875 L4.25,20.046875 L4.25,14.46875 L1.03125,14.46875 L1.21875,13.78125 L3.859375,13.78125 C3.28125,10.265625 2.234375,6.796875 0.53125,4.0625 L0.859375,3.75 C2.296875,5.421875 3.4375,7.3125 4.25,9.40625 L4.25,-1.875 L4.5625,-1.875 C5.140625,-1.875 5.765625,-1.515625 5.765625,-1.296875 L5.765625,11.046875 C6.4375,10.109375 7.21875,8.734375 7.4375,7.734375 C8.859375,6.640625 10.15625,9.453125 5.765625,11.5625 L5.765625,13.78125 L8.140625,13.78125 L7.6875,13.3125 L7.984375,13.03125 C8.515625,13.296875 9,13.65625 9.484375,14.046875 L9.484375,5.140625 L9.71875,5.140625 C10.296875,5.140625 10.921875,5.5 10.921875,5.609375 L10.921875,6.234375 L19.96875,6.234375 L19.96875,5.453125 L20.1875,5.453125 C20.65625,5.453125 21.40625,5.8125 21.4375,5.921875 L21.4375,12.90625 C21.796875,12.984375 22.15625,13.15625 22.265625,13.3125 L20.546875,14.640625 L19.75,13.78125 L17.296875,13.78125 L17.296875,15.5 L19.25,15.5 C19.515625,15.5 19.734375,15.578125 19.796875,15.765625 C20.375,15.03125 21.09375,14.375 21.90625,13.828125 C22.0625,14.453125 22.625,14.921875 23.234375,15.078125 L23.25,15.34375 C21.359375,16.03125 19.6875,17.234375 18.9375,18.5 C19.625,18.546875 20.1875,18.71875 20.421875,18.984375 L18.5,20.28125 L17.859375,19.265625 L12.625,19.265625 L12.84375,18.546875 L18.359375,18.546875 C18.578125,17.765625 18.9375,17.015625 19.390625,16.3125 L17.953125,17.5 L16.890625,16.203125 L11.546875,16.203125 C11.828125,16.609375 12.09375,17.015625 12.34375,17.421875 C12.8125,17.375 13.109375,17.5625 13.21875,17.828125 Z M16.015625,15.5 L16.015625,13.78125 L14.453125,13.78125 L14.453125,15.5 Z M13.15625,15.5 L13.15625,13.78125 L11.046875,13.78125 L9.84375,14.359375 C10.390625,14.828125 10.890625,15.359375 11.328125,15.90625 L11.453125,15.5 Z M17.0625,6.09375 L17.0625,4.0625 L7.34375,4.0625 L7.515625,3.359375 L17.0625,3.359375 L17.0625,0.390625 C17.0625,0.078125 16.96875,-0.046875 16.609375,-0.046875 C16.203125,-0.046875 14.109375,0.125 14.109375,0.125 L14.109375,-0.265625 C15.046875,-0.390625 15.53125,-0.546875 15.84375,-0.8125 C16.15625,-1.078125 16.25,-1.484375 16.3125,-1.9375 C18.34375,-1.734375 18.578125,-0.953125 18.578125,0.3125 L18.578125,3.359375 L22.78125,3.359375 C23.109375,3.359375 23.296875,3.484375 23.375,3.75 C22.625,4.421875 21.4375,5.359375 21.4375,5.359375 L20.40625,4.0625 L18.578125,4.0625 L18.578125,5.25 C19.109375,5.359375 19.34375,5.515625 19.390625,5.859375 Z M19.96875,8.25 L19.96875,6.953125 L10.921875,6.953125 L10.921875,8.25 Z M19.96875,8.921875 L10.921875,8.921875 L10.921875,13.109375 L13.171875,13.109375 C13.125,12.21875 12.796875,10.984375 11.046875,9.984375 L11.28125,9.625 C13.921875,10.53125 14.359375,12.140625 14.421875,13.109375 L16.015625,13.109375 L16.015625,11.5625 C16.015625,10.75 16.171875,10.4375 17.28125,10.4375 L18.28125,10.4375 C19.078125,10.4375 19.609375,10.46875 19.96875,10.5625 Z M19.96875,11.65625 L19.75,11.65625 C19.6875,11.640625 19.484375,11.609375 19.390625,11.59375 C19.34375,11.59375 19.21875,11.59375 19.125,11.59375 C18.984375,11.59375 18.71875,11.59375 18.4375,11.59375 L17.640625,11.59375 C17.328125,11.59375 17.28125,11.65625 17.28125,11.875 L17.28125,13.109375 L19.96875,13.109375 Z" transform="translate(0.046875, 20.28125) scale(1, -1)"/>
</svg>