<svg height="21.984375" viewBox="0 0 24 21.984375" width="24" xmlns="http://www.w3.org/2000/svg">
<path d="M4.25,20.09375 L4.25,14.46875 L1.03125,14.46875 L1.21875,13.78125 L3.859375,13.78125 C3.359375,10.296875 2.40625,6.8125 0.765625,4.078125 L1.109375,3.765625 C2.453125,5.375 3.484375,7.203125 4.25,9.1875 L4.25,-1.828125 L4.5625,-1.828125 C5.140625,-1.828125 5.765625,-1.484375 5.765625,-1.25 L5.765625,11.015625 C6.4375,10.078125 7.21875,8.734375 7.46875,7.75 C8.875,6.671875 10.15625,9.484375 5.765625,11.546875 L5.765625,13.78125 L8.59375,13.78125 C8.921875,13.78125 9.125,13.890625 9.1875,14.15625 C8.5,14.859375 7.375,15.84375 7.375,15.84375 L6.34375,14.46875 L5.765625,14.46875 L5.765625,19.15625 C6.359375,19.25 6.546875,19.484375 6.625,19.84375 Z M16.796875,17.25 C16.46875,16.53125 16.015625,15.625 15.546875,14.953125 L11.765625,14.953125 L11.453125,15.078125 C12.09375,15.765625 12.71875,16.515625 13.25,17.25 Z M12.9375,20.15625 C11.921875,17.421875 9.8125,14.25 7.5625,12.484375 L7.84375,12.1875 C8.59375,12.625 9.3125,13.125 9.984375,13.703125 L9.984375,9.5 L10.21875,9.5 C10.96875,9.5 11.46875,9.890625 11.46875,10.015625 L11.46875,10.5625 L14.203125,10.5625 C12.578125,9 10.3125,7.578125 7.921875,6.546875 L8.15625,6.140625 C10.171875,6.796875 12.078125,7.609375 13.703125,8.640625 C13.921875,8.375 14.140625,8.109375 14.328125,7.84375 C12.75,6.171875 10.015625,4.390625 7.625,3.359375 L7.828125,2.953125 C10.34375,3.796875 13.171875,5.234375 15.046875,6.578125 C15.21875,6.234375 15.359375,5.875 15.484375,5.546875 C13.484375,3.4375 10.296875,1.125 7.3125,-0.078125 L7.46875,-0.4375 C10.484375,0.4375 13.65625,2.203125 15.859375,3.890625 C16.078125,2.234375 15.8125,0.796875 15.234375,0.1875 C15.09375,0.03125 14.921875,0 14.640625,0 C14.109375,0 12.453125,0.09375 11.59375,0.140625 L11.59375,-0.234375 C12.359375,-0.390625 13.171875,-0.578125 13.46875,-0.796875 C13.75,-1.015625 13.890625,-1.3125 13.921875,-1.828125 C15.265625,-1.828125 16.0625,-1.578125 16.53125,-1.0625 C18.171875,0.59375 18.140625,5.859375 14.09375,8.90625 C14.859375,9.40625 15.546875,9.953125 16.15625,10.5625 L16.265625,10.5625 C17.09375,5.921875 18.890625,2.40625 21.8125,0.125 C22.109375,0.796875 22.609375,1.203125 23.234375,1.25 L23.28125,1.46875 C21.453125,2.515625 19.875,4.078125 18.703125,6.03125 C20.140625,6.53125 21.703125,7.296875 22.515625,7.75 C22.828125,7.625 23.046875,7.65625 23.15625,7.796875 L21.59375,9.1875 C20.96875,8.515625 19.578125,7.265625 18.453125,6.40625 C17.734375,7.65625 17.1875,9.046875 16.796875,10.5625 L20.25,10.5625 L20.25,9.765625 L20.5,9.765625 C21,9.765625 21.75,10.109375 21.765625,10.25 L21.765625,13.96875 C22.21875,14.0625 22.609375,14.234375 22.78125,14.421875 L20.875,15.84375 L20.015625,14.953125 L16.265625,14.953125 C17.15625,15.59375 18.03125,16.515625 18.625,17.09375 C19.0625,17.140625 19.375,17.15625 19.53125,17.328125 L17.8125,18.9375 L16.84375,17.96875 L13.75,17.96875 C14.015625,18.40625 14.28125,18.84375 14.5,19.25 C15.125,19.203125 15.3125,19.296875 15.390625,19.53125 Z M11.46875,11.28125 L11.46875,14.234375 L15.078125,14.234375 L15.078125,11.28125 Z M16.53125,11.28125 L16.53125,14.234375 L20.25,14.234375 L20.25,11.28125 Z" transform="translate(-0.0234375, 20.15625) scale(1, -1)"/>
</svg>