<svg height="22.5625" viewBox="0 0 24 22.5625" width="24" xmlns="http://www.w3.org/2000/svg">
<path d="M12.953125,2.609375 C11.921875,1.296875 9.71875,-0.5 7.578125,-1.484375 L7.78125,-1.84375 C10.25,-1.171875 12.75,0.125 14.109375,1.21875 C14.71875,1.125 15.09375,1.203125 15.21875,1.46875 Z M16.734375,2.296875 L16.53125,2.046875 C18.140625,1.125 20.421875,-0.546875 21.390625,-1.75 C23.375,-2.375 23.640625,1.3125 16.734375,2.296875 Z M17.421875,20.0625 L17.421875,17.28125 L13.609375,17.28125 L13.609375,19.171875 C14.1875,19.265625 14.40625,19.484375 14.46875,19.84375 L12.09375,20.0625 L12.09375,17.28125 L8.640625,17.28125 L8.828125,16.578125 L12.09375,16.578125 L12.09375,12.890625 L12.390625,12.890625 C12.953125,12.890625 13.609375,13.203125 13.609375,13.390625 L13.609375,14.140625 L17.421875,14.140625 L17.421875,13.03125 L17.71875,13.03125 C18.28125,13.03125 18.90625,13.3125 18.90625,13.515625 L18.90625,16.578125 L22.296875,16.578125 C22.625,16.578125 22.875,16.703125 22.921875,16.9375 C22.203125,17.65625 20.96875,18.59375 20.96875,18.59375 L19.9375,17.28125 L18.90625,17.28125 L18.90625,19.171875 C19.515625,19.265625 19.75,19.484375 19.796875,19.84375 Z M13.609375,16.578125 L17.421875,16.578125 L17.421875,14.828125 L13.609375,14.828125 Z M9.8125,9.90625 L9.8125,2.15625 L10.0625,2.15625 C10.796875,2.15625 11.28125,2.46875 11.28125,2.609375 L11.28125,3.09375 L19.9375,3.09375 L19.9375,2.40625 L20.15625,2.40625 C20.875,2.40625 21.484375,2.71875 21.484375,2.828125 L21.484375,9.09375 C21.9375,9.1875 22.15625,9.34375 22.3125,9.5 L20.609375,10.796875 L19.875,9.90625 L16.3125,9.90625 L16.3125,11.609375 L22.5625,11.609375 C22.890625,11.609375 23.109375,11.734375 23.1875,12 C22.421875,12.71875 21.1875,13.703125 21.1875,13.703125 L20.09375,12.3125 L8.375,12.3125 L8.5625,11.609375 L14.859375,11.609375 L14.859375,9.90625 L11.5625,9.90625 L9.8125,10.65625 Z M11.28125,6.28125 L14.859375,6.28125 L14.859375,3.8125 L11.28125,3.8125 Z M19.9375,6.28125 L19.9375,3.8125 L16.3125,3.8125 L16.3125,6.28125 Z M11.28125,7.015625 L11.28125,9.21875 L14.859375,9.21875 L14.859375,7.015625 Z M19.9375,7.015625 L16.3125,7.015625 L16.3125,9.21875 L19.9375,9.21875 Z M4.65625,20.1875 L4.65625,14.453125 L1.078125,14.453125 L1.265625,13.75 L4.34375,13.75 C3.75,10.203125 2.609375,6.703125 0.8125,3.953125 L1.125,3.59375 C2.640625,5.25 3.796875,7.15625 4.65625,9.234375 L4.65625,-1.84375 L4.96875,-1.84375 C5.546875,-1.84375 6.1875,-1.46875 6.1875,-1.265625 L6.1875,10.0625 C6.9375,9.078125 7.78125,7.734375 8.046875,6.703125 C9.4375,5.59375 10.75,8.453125 6.1875,10.5625 L6.1875,13.75 L9.3125,13.75 C9.625,13.75 9.859375,13.875 9.9375,14.140625 C9.1875,14.859375 8.015625,15.84375 8.015625,15.84375 L6.953125,14.453125 L6.1875,14.453125 L6.1875,19.265625 C6.796875,19.375 6.984375,19.578125 7.0625,19.921875 Z" transform="translate(-0.2265625, 20.1875) scale(1, -1)"/>
</svg>