<svg height="21.90625" viewBox="0 0 24 21.90625" width="24" xmlns="http://www.w3.org/2000/svg">
<path d="M12.03125,14.59375 L12.1875,13.875 L18.34375,13.875 C18.625,13.875 18.859375,13.984375 18.90625,14.25 C18.234375,14.875 17.203125,15.640625 17.203125,15.640625 L16.265625,14.59375 Z M12.09375,11.296875 L11.78125,11.140625 C12.21875,10.53125 12.75,9.53125 12.796875,8.734375 C13.75,7.875 14.875,9.8125 12.09375,11.296875 Z M17.640625,11.296875 C17.515625,10.625 17.109375,9.359375 16.796875,8.546875 L17.09375,8.40625 C17.6875,9.046875 18.265625,9.8125 18.578125,10.3125 C19.0625,10.265625 19.296875,10.515625 19.34375,10.703125 Z M15.796875,18.859375 C16.96875,16.4375 19.375,14.15625 21.90625,12.796875 C22.03125,13.375 22.53125,13.875 23.15625,13.984375 L23.1875,14.328125 C20.5,15.34375 17.640625,17.15625 16.15625,19.125 C16.703125,19.171875 16.9375,19.296875 16.984375,19.53125 L14.46875,20.046875 C13.609375,17.6875 10.421875,14.453125 7.703125,12.84375 L7.890625,12.484375 C10.96875,13.890625 14.234375,16.4375 15.796875,18.859375 Z M11.859375,2.28125 L18.953125,2.28125 L18.953125,0.125 L11.859375,0.125 Z M11.859375,2.96875 L11.859375,5.0625 L18.953125,5.0625 L18.953125,2.96875 Z M14.6875,7.984375 L11.015625,7.984375 L11.015625,11.765625 L14.6875,11.765625 Z M16.03125,7.984375 L16.03125,11.765625 L19.78125,11.765625 L19.78125,7.984375 Z M10.390625,5.765625 L10.390625,-1.78125 L10.609375,-1.78125 C11.375,-1.78125 11.859375,-1.390625 11.859375,-1.265625 L11.859375,-0.578125 L18.953125,-0.578125 L18.953125,-1.578125 L19.171875,-1.578125 C19.703125,-1.578125 20.421875,-1.25 20.453125,-1.109375 L20.453125,4.828125 C20.875,4.921875 21.234375,5.09375 21.390625,5.28125 L19.578125,6.671875 L18.71875,5.765625 L12.171875,5.765625 L10.46875,6.5 C10.828125,6.625 11.015625,6.8125 11.015625,6.890625 L11.015625,7.265625 L19.78125,7.265625 L19.78125,6.53125 L20.015625,6.53125 C20.5,6.53125 21.234375,6.859375 21.265625,7.015625 L21.265625,11.609375 C21.625,11.65625 21.9375,11.828125 22.0625,11.96875 L20.375,13.265625 L19.609375,12.453125 L11.296875,12.453125 L9.546875,13.21875 L9.546875,6.390625 L9.796875,6.390625 C10.03125,6.390625 10.21875,6.4375 10.390625,6.484375 Z M4.265625,20.0625 L4.265625,14.46875 L1.015625,14.46875 L1.203125,13.78125 L3.953125,13.78125 C3.40625,10.296875 2.375,6.796875 0.71875,4.03125 L1.078125,3.75 C2.453125,5.375 3.484375,7.21875 4.265625,9.234375 L4.265625,-1.84375 L4.609375,-1.84375 C5.15625,-1.84375 5.8125,-1.515625 5.8125,-1.296875 L5.8125,10.0625 C6.453125,9.125 7.25,7.796875 7.46875,6.796875 C8.90625,5.65625 10.21875,8.515625 5.8125,10.578125 L5.8125,13.78125 L8.59375,13.78125 C8.921875,13.78125 9.140625,13.890625 9.1875,14.15625 C8.5,14.859375 7.34375,15.8125 7.34375,15.8125 L6.3125,14.46875 L5.8125,14.46875 L5.8125,19.125 C6.40625,19.21875 6.59375,19.4375 6.671875,19.796875 Z" transform="translate(0.046875, 20.0625) scale(1, -1)"/>
</svg>