<svg height="22.78125" viewBox="0 0 24 22.78125" width="24" xmlns="http://www.w3.org/2000/svg">
<path d="M11.359375,13.515625 L11.546875,12.8125 L18.453125,12.8125 C18.796875,12.8125 19.015625,12.9375 19.078125,13.203125 C18.390625,13.84375 17.296875,14.734375 17.296875,14.734375 L16.34375,13.515625 Z M15.4375,18.890625 C16.796875,16.0625 19.296875,13.625 22.109375,12.046875 C22.25,12.71875 22.625,13.3125 23.28125,13.53125 L23.296875,13.875 C20.328125,14.921875 17.46875,16.875 15.765625,19.125 C16.375,19.203125 16.578125,19.296875 16.6875,19.578125 L13.890625,20.1875 C12.9375,17.421875 10.296875,14.015625 7.484375,12.234375 L7.6875,11.875 C10.96875,13.421875 13.890625,16.078125 15.4375,18.890625 Z M4.21875,20.0625 L4.21875,14.46875 L1.03125,14.46875 L1.21875,13.78125 L3.859375,13.78125 C3.34375,10.296875 2.40625,6.8125 0.765625,4.0625 L1.125,3.75 C2.453125,5.40625 3.484375,7.25 4.21875,9.265625 L4.21875,-1.84375 L4.53125,-1.84375 C5.09375,-1.84375 5.734375,-1.515625 5.734375,-1.265625 L5.734375,10.6875 C6.40625,9.75 7.171875,8.421875 7.421875,7.421875 C8.8125,6.34375 10.0625,9.125 5.734375,11.25 L5.734375,13.78125 L8.515625,13.78125 C8.859375,13.78125 9.046875,13.890625 9.125,14.15625 C8.453125,14.859375 7.3125,15.8125 7.3125,15.8125 L6.3125,14.46875 L5.734375,14.46875 L5.734375,19.15625 C6.3125,19.25 6.5,19.46875 6.578125,19.828125 Z M9.140625,10.828125 L9.140625,4.828125 L9.34375,4.828125 C9.9375,4.828125 10.53125,5.15625 10.53125,5.28125 L10.53125,6.046875 L13.078125,6.046875 L13.078125,5.140625 L13.296875,5.140625 C13.734375,5.140625 14.453125,5.46875 14.46875,5.640625 L14.46875,10.015625 C14.828125,10.0625 15.140625,10.21875 15.265625,10.390625 L13.625,11.609375 L12.890625,10.828125 L10.625,10.828125 L9.140625,11.515625 Z M10.53125,6.75 L10.53125,10.15625 L13.078125,10.15625 L13.078125,6.75 Z M16.0625,10.828125 L16.0625,4.828125 L16.265625,4.828125 C16.84375,4.828125 17.453125,5.15625 17.453125,5.28125 L17.453125,6.046875 L20.25,6.046875 L20.25,5.140625 L20.5,5.140625 C20.953125,5.140625 21.703125,5.46875 21.71875,5.640625 L21.71875,10.015625 C22.0625,10.0625 22.34375,10.21875 22.46875,10.390625 L20.828125,11.609375 L20.0625,10.828125 L17.546875,10.828125 L16.0625,11.515625 Z M17.453125,6.75 L17.453125,10.15625 L20.25,10.15625 L20.25,6.75 Z M11.328125,5.1875 C10.75,2.90625 9.359375,0.125 7.34375,-1.53125 L7.5625,-1.875 C9.265625,-0.9375 10.65625,0.484375 11.609375,1.96875 C12.390625,1.265625 13.109375,0.34375 13.34375,-0.453125 C14.765625,-1.3125 15.671875,1.421875 11.921875,2.421875 C12.234375,2.96875 12.53125,3.5 12.75,4.015625 C13.34375,3.984375 13.515625,4.109375 13.625,4.375 Z M18.21875,5.1875 C17.640625,2.78125 16.203125,-0.03125 13.96875,-1.625 L14.15625,-1.96875 C15.984375,-1.109375 17.375,0.265625 18.390625,1.734375 C19.625,0.765625 20.96875,-0.625 21.453125,-1.734375 C23.09375,-2.59375 23.8125,0.59375 18.703125,2.203125 C19.078125,2.8125 19.390625,3.4375 19.65625,4.03125 C20.234375,4.015625 20.40625,4.125 20.5,4.390625 Z" transform="translate(-0.2890625, 20.1875) scale(1, -1)"/>
</svg>