<svg height="21.96875" viewBox="0 0 24 21.96875" width="24" xmlns="http://www.w3.org/2000/svg">
<path d="M13.578125,8.78125 L13.578125,6.75 L10.0625,6.75 L10.0625,8.78125 Z M13.578125,9.484375 L10.0625,9.484375 L10.0625,11.546875 L13.578125,11.546875 Z M10.203125,20.09375 C9.8125,18.265625 9.046875,16.03125 8.09375,14.453125 C7.4375,15.125 6.59375,15.859375 6.59375,15.859375 L5.640625,14.5 L5.46875,14.5 L5.5,19.15625 C6.09375,19.25 6.28125,19.46875 6.359375,19.828125 L4.03125,20.0625 L4.03125,14.5 L1.109375,14.5 L1.296875,13.78125 L3.796875,13.78125 C3.1875,10.3125 2.15625,6.8125 0.53125,4.0625 L0.890625,3.75 C2.203125,5.359375 3.234375,7.171875 4.03125,9.171875 L4.03125,-1.84375 L4.3125,-1.84375 C4.875,-1.84375 5.5,-1.484375 5.5,-1.25 L5.5,10.84375 C6.09375,9.90625 6.71875,8.609375 6.890625,7.625 C8.1875,6.53125 9.484375,9.234375 5.5,11.46875 L5.5,13.78125 L7.65625,13.78125 L7.515625,13.578125 L7.84375,13.375 C8.875,14.234375 9.796875,15.453125 10.515625,16.734375 L10.890625,16.734375 C11.328125,16.03125 11.65625,15.140625 11.6875,14.375 C11.828125,14.25 11.96875,14.15625 12.125,14.140625 L10.96875,14.296875 C10.921875,13.734375 10.84375,12.859375 10.75,12.234375 L10.15625,12.234375 L8.640625,12.984375 L8.640625,-1.84375 L8.875,-1.84375 C9.5,-1.84375 10.0625,-1.484375 10.0625,-1.3125 L10.0625,0.703125 L15.03125,0.703125 C15.34375,0.703125 15.546875,0.8125 15.625,1.0625 C14.953125,1.734375 13.828125,2.609375 13.828125,2.609375 L12.890625,1.390625 L10.0625,1.390625 L10.0625,3.390625 L14.6875,3.390625 C15.03125,3.390625 15.21875,3.5 15.28125,3.765625 C14.609375,4.390625 13.515625,5.203125 13.515625,5.203125 L12.546875,4.0625 L10.0625,4.0625 L10.0625,6.03125 L13.578125,6.03125 L13.578125,5.46875 L13.875,5.46875 C14.359375,5.46875 14.953125,5.71875 15,5.8125 L15,11.28125 C15.359375,11.359375 15.703125,11.546875 15.859375,11.71875 L14.421875,13.03125 L13.734375,12.234375 L11.515625,12.234375 C11.8125,12.625 12.140625,13.0625 12.34375,13.390625 C12.84375,13.4375 13.125,13.625 13.203125,13.96875 L12.28125,14.109375 C13.109375,14.09375 13.578125,15.5 11.96875,16.734375 L15.21875,16.734375 C15.5,16.734375 15.75,16.828125 15.796875,17.09375 C15.140625,17.78125 13.984375,18.703125 13.984375,18.703125 L13.03125,17.421875 L10.890625,17.421875 C11.203125,18.046875 11.5,18.703125 11.71875,19.296875 C12.3125,19.296875 12.484375,19.421875 12.546875,19.6875 Z M16.796875,20.09375 C16.34375,18.09375 15.28125,15.546875 14.09375,14.109375 L14.40625,13.890625 C15.359375,14.640625 16.21875,15.640625 16.9375,16.734375 L17.875,16.734375 C18.484375,15.984375 18.953125,14.96875 19.015625,14.140625 C20.1875,13.203125 21.359375,15.21875 19.125,16.734375 L22.53125,16.734375 C22.875,16.734375 23.109375,16.828125 23.15625,17.09375 C22.4375,17.8125 21.28125,18.75 21.28125,18.75 L20.234375,17.421875 L17.40625,17.421875 C17.765625,18.046875 18.078125,18.671875 18.34375,19.265625 C18.90625,19.25 19.109375,19.375 19.171875,19.625 Z M16.484375,12.953125 L16.484375,-1.875 L16.6875,-1.875 C17.40625,-1.875 17.875,-1.484375 17.875,-1.375 L17.875,12.234375 L20.859375,12.234375 L20.859375,3.140625 C20.859375,2.8125 20.78125,2.71875 20.453125,2.71875 C20.09375,2.71875 18.578125,2.828125 18.578125,2.828125 L18.578125,2.453125 C19.296875,2.359375 19.734375,2.15625 19.9375,1.890625 C20.1875,1.625 20.28125,1.171875 20.296875,0.75 C22.078125,0.90625 22.265625,1.6875 22.265625,2.921875 L22.265625,12.09375 C22.625,12.171875 22.9375,12.34375 23.09375,12.484375 L21.328125,13.75 L20.65625,12.953125 L18.1875,12.953125 L16.484375,13.6875 Z" transform="translate(0.15625, 20.09375) scale(1, -1)"/>
</svg>