<svg height="21.984375" viewBox="0 0 24 21.984375" width="24" xmlns="http://www.w3.org/2000/svg">
<path d="M10.203125,20.09375 C9.8125,18.265625 9.046875,16.03125 8.09375,14.453125 C7.4375,15.125 6.59375,15.859375 6.59375,15.859375 L5.640625,14.5 L5.46875,14.5 L5.5,19.203125 C6.09375,19.296875 6.28125,19.515625 6.359375,19.875 L4.03125,20.109375 L4.03125,14.5 L1.109375,14.5 L1.296875,13.78125 L3.796875,13.78125 C3.1875,10.3125 2.15625,6.8125 0.53125,4.0625 L0.890625,3.75 C2.203125,5.359375 3.234375,7.171875 4.03125,9.171875 L4.03125,-1.828125 L4.3125,-1.828125 C4.875,-1.828125 5.5,-1.46875 5.5,-1.21875 L5.5,10.84375 C6.09375,9.90625 6.71875,8.609375 6.890625,7.625 C8.1875,6.53125 9.484375,9.234375 5.5,11.46875 L5.5,13.78125 L7.65625,13.78125 L7.515625,13.578125 L7.84375,13.375 C8.875,14.234375 9.796875,15.453125 10.515625,16.734375 L10.890625,16.734375 C11.296875,16.015625 11.640625,15.03125 11.640625,14.25 C12.703125,13.25 13.96875,15.125 11.921875,16.734375 L15.21875,16.734375 C15.5,16.734375 15.75,16.828125 15.796875,17.09375 C15.140625,17.78125 13.984375,18.703125 13.984375,18.703125 L13.03125,17.421875 L10.890625,17.421875 C11.203125,18.046875 11.5,18.703125 11.71875,19.296875 C12.3125,19.296875 12.484375,19.421875 12.546875,19.6875 Z M8.921875,13.015625 L8.921875,1.375 C8.15625,1.203125 7.515625,1.078125 7.078125,1.015625 L7.984375,-0.890625 C8.234375,-0.8125 8.421875,-0.640625 8.5,-0.34375 C10.609375,0.578125 12.28125,1.390625 13.53125,1.984375 C13.828125,1.375 14.015625,0.75 14.0625,0.171875 C15.5,-1.078125 16.921875,2.15625 12.390625,4.53125 L12.078125,4.375 C12.5,3.84375 12.953125,3.140625 13.3125,2.421875 L10.3125,1.703125 L10.3125,5.734375 L13.515625,5.734375 L13.515625,4.9375 L13.734375,4.9375 C14.1875,4.9375 14.921875,5.28125 14.921875,5.453125 L14.921875,12.046875 C15.359375,12.140625 15.75,12.3125 15.890625,12.5 L14.09375,13.875 L13.296875,13.015625 L10.4375,13.015625 L8.921875,13.703125 Z M16.484375,12.953125 L16.484375,-1.875 L16.6875,-1.875 C17.40625,-1.875 17.875,-1.484375 17.875,-1.375 L17.875,12.234375 L20.859375,12.234375 L20.859375,3.140625 C20.859375,2.8125 20.78125,2.71875 20.453125,2.71875 C20.09375,2.71875 18.578125,2.828125 18.578125,2.828125 L18.578125,2.453125 C19.296875,2.359375 19.734375,2.15625 19.9375,1.890625 C20.1875,1.625 20.28125,1.171875 20.296875,0.75 C22.078125,0.90625 22.265625,1.6875 22.265625,2.921875 L22.265625,12.09375 C22.625,12.171875 22.9375,12.34375 23.09375,12.484375 L21.328125,13.75 L20.65625,12.953125 L18.1875,12.953125 L16.484375,13.6875 Z M13.515625,9.125 L13.515625,6.453125 L10.3125,6.453125 L10.3125,9.125 Z M13.515625,9.84375 L10.3125,9.84375 L10.3125,12.28125 L13.515625,12.28125 Z M16.796875,20.09375 C16.34375,18.09375 15.28125,15.546875 14.09375,14.109375 L14.40625,13.890625 C15.359375,14.640625 16.21875,15.640625 16.9375,16.734375 L17.875,16.734375 C18.484375,15.984375 18.953125,14.96875 19.015625,14.140625 C20.1875,13.203125 21.359375,15.21875 19.125,16.734375 L22.53125,16.734375 C22.875,16.734375 23.109375,16.828125 23.15625,17.09375 C22.4375,17.8125 21.28125,18.75 21.28125,18.75 L20.234375,17.421875 L17.40625,17.421875 C17.765625,18.046875 18.078125,18.671875 18.34375,19.265625 C18.90625,19.25 19.109375,19.375 19.171875,19.625 Z" transform="translate(0.15625, 20.109375) scale(1, -1)"/>
</svg>