<svg height="21.96875" viewBox="0 0 24 21.96875" width="24" xmlns="http://www.w3.org/2000/svg">
<path d="M15.125,7.0625 L15.125,5.203125 L11.78125,5.203125 L11.78125,7.0625 Z M15.890625,10.25 L15.171875,7.75 L12.078125,7.75 L12,7.78125 C12.3125,8.234375 12.59375,8.6875 12.859375,9.171875 C13.390625,9.078125 13.703125,9.265625 13.828125,9.5 L11.65625,10.484375 C10.578125,7.78125 8.90625,5.296875 7.3125,3.84375 L7.65625,3.53125 C8.5625,4.109375 9.484375,4.84375 10.34375,5.765625 L10.34375,-1.875 L10.5625,-1.875 C11.28125,-1.875 11.78125,-1.53125 11.78125,-1.421875 L11.78125,-0.75 L22.375,-0.75 C22.703125,-0.75 22.921875,-0.640625 22.984375,-0.390625 C22.21875,0.359375 21,1.34375 21,1.34375 L19.890625,-0.046875 L16.578125,-0.046875 L16.578125,1.890625 L21.234375,1.890625 C21.578125,1.890625 21.796875,2.015625 21.859375,2.28125 C21.140625,2.953125 19.984375,3.890625 19.984375,3.890625 L18.984375,2.59375 L16.578125,2.59375 L16.578125,4.515625 L21.3125,4.515625 C21.625,4.515625 21.84375,4.625 21.90625,4.890625 C21.21875,5.5625 20.0625,6.484375 20.0625,6.484375 L19.078125,5.203125 L16.578125,5.203125 L16.578125,7.0625 L21.9375,7.0625 C22.25,7.0625 22.484375,7.171875 22.5625,7.421875 C21.796875,8.140625 20.59375,9.09375 20.59375,9.09375 L19.515625,7.75 L16.015625,7.75 C16.4375,8.234375 16.921875,8.765625 17.234375,9.1875 C17.734375,9.171875 18.078125,9.34375 18.171875,9.671875 L16.5625,10.078125 L16.609375,10.078125 C17.140625,10.078125 17.765625,10.375 17.765625,10.46875 L17.765625,10.96875 L20.421875,10.96875 L20.421875,10.03125 L20.640625,10.03125 C21.09375,10.03125 21.796875,10.375 21.8125,10.484375 L21.8125,14.015625 C22.203125,14.09375 22.5625,14.25 22.6875,14.421875 L20.96875,15.703125 L20.203125,14.90625 L17.828125,14.90625 L16.390625,15.546875 L16.390625,10.125 Z M15.125,4.515625 L15.125,2.59375 L11.78125,2.59375 L11.78125,4.515625 Z M15.125,1.890625 L15.125,-0.046875 L11.78125,-0.046875 L11.78125,1.890625 Z M9.4375,14.90625 L9.4375,9.796875 L9.625,9.796875 C10.203125,9.796875 10.78125,10.125 10.78125,10.25 L10.78125,10.96875 L13.421875,10.96875 L13.421875,10.25 L13.609375,10.25 C14.046875,10.25 14.734375,10.5625 14.765625,10.703125 L14.765625,14.015625 C15.171875,14.09375 15.5,14.28125 15.625,14.421875 L13.9375,15.703125 L13.203125,14.90625 L10.875,14.90625 L9.4375,15.546875 Z M10.78125,11.65625 L10.78125,14.1875 L13.421875,14.1875 L13.421875,11.65625 Z M17.765625,11.65625 L17.765625,14.1875 L20.421875,14.1875 L20.421875,11.65625 Z M4.265625,20.09375 L4.265625,14.46875 L1.078125,14.46875 L1.265625,13.78125 L3.90625,13.78125 C3.40625,10.296875 2.453125,6.8125 0.84375,4.0625 L1.171875,3.75 C2.515625,5.40625 3.53125,7.25 4.265625,9.234375 L4.265625,-1.84375 L4.578125,-1.84375 C5.15625,-1.84375 5.78125,-1.515625 5.78125,-1.265625 L5.78125,10.171875 C6.453125,9.21875 7.25,7.890625 7.46875,6.890625 C8.859375,5.78125 10.109375,8.59375 5.78125,10.703125 L5.78125,13.78125 L8.5625,13.78125 C8.90625,13.78125 9.09375,13.890625 9.171875,14.15625 C8.5,14.859375 7.34375,15.8125 7.34375,15.8125 L6.359375,14.46875 L5.78125,14.46875 L5.78125,19.171875 C6.390625,19.265625 6.578125,19.484375 6.625,19.84375 Z M12.09375,20.0625 L12.09375,17.953125 L8.203125,17.953125 L8.40625,17.25 L12.09375,17.25 L12.09375,15.578125 L12.390625,15.578125 C12.9375,15.578125 13.5625,15.859375 13.5625,16.03125 L13.5625,17.25 L16.96875,17.25 L16.96875,15.625 L17.25,15.625 C17.8125,15.625 18.453125,15.90625 18.453125,16.078125 L18.453125,17.25 L22.484375,17.25 C22.828125,17.25 23.046875,17.375 23.109375,17.640625 C22.375,18.34375 21.1875,19.296875 21.1875,19.296875 L20.109375,17.953125 L18.453125,17.953125 L18.453125,19.171875 C19.0625,19.265625 19.296875,19.484375 19.34375,19.84375 L16.96875,20.0625 L16.96875,17.953125 L13.5625,17.953125 L13.5625,19.171875 C14.15625,19.265625 14.40625,19.484375 14.453125,19.84375 Z" transform="translate(0.0234375, 20.09375) scale(1, -1)"/>
</svg>