<svg height="21.984375" viewBox="0 0 24 21.984375" width="24" xmlns="http://www.w3.org/2000/svg">
<path d="M1.15625,4.5625 L2.609375,2.65625 C2.828125,2.8125 2.96875,3.046875 3,3.359375 C6,5.453125 8.234375,7.171875 9.75,8.40625 L9.578125,8.71875 C6.078125,6.90625 2.59375,5.15625 1.15625,4.5625 Z M1.515625,15.046875 L1.703125,14.375 L8.09375,14.375 C8.421875,14.375 8.65625,14.5 8.734375,14.765625 C7.921875,15.5 6.640625,16.5625 6.640625,16.5625 L5.5,15.046875 Z M11.5,20.140625 C10.796875,15.84375 9.234375,11.875 7.375,9.234375 L7.703125,9 C9.28125,10.4375 10.609375,12.359375 11.65625,14.65625 L14.203125,14.65625 C14.0625,8.65625 13.609375,2.96875 4.875,-1.421875 L5.1875,-1.84375 C13.078125,1.515625 15,6.046875 15.546875,11.140625 C16.109375,5.59375 17.5625,0.9375 21.75,-1.796875 C21.953125,-0.90625 22.46875,-0.546875 23.25,-0.453125 L23.328125,-0.171875 C17.71875,2.859375 16.21875,7.828125 15.796875,14.5625 L15.796875,14.65625 L20.546875,14.65625 C20.15625,13.015625 19.4375,10.78125 18.765625,9.28125 L19.078125,9.09375 C20.328125,10.515625 21.671875,12.71875 22.390625,14.359375 C22.875,14.375 23.15625,14.421875 23.328125,14.609375 L21.453125,16.421875 L20.40625,15.34375 L11.953125,15.34375 C12.4375,16.46875 12.84375,17.6875 13.171875,18.984375 C13.734375,18.984375 13.96875,19.21875 14.0625,19.53125 Z" transform="translate(-0.2421875, 20.140625) scale(1, -1)"/>
</svg>