<svg height="22.0625" viewBox="0 0 24 22.0625" width="24" xmlns="http://www.w3.org/2000/svg">
<path d="M0.859375,4.9375 L2.1875,2.953125 C2.40625,3.078125 2.546875,3.359375 2.5625,3.640625 C5.65625,5.828125 7.984375,7.703125 9.59375,8.96875 L9.4375,9.28125 C5.859375,7.390625 2.296875,5.546875 0.859375,4.9375 Z M2.328125,18.046875 L2.109375,17.8125 C3.546875,16.890625 5.328125,15.265625 5.90625,13.875 C7.875,12.8125 8.8125,16.84375 2.328125,18.046875 Z M11.546875,20.1875 C10.609375,15.953125 8.71875,12.09375 6.640625,9.703125 L6.984375,9.4375 C8.609375,10.703125 10.0625,12.4375 11.25,14.5 L13.984375,14.5 C13.6875,6.640625 11.71875,1.84375 3.90625,-1.515625 L4.078125,-1.84375 C12.078125,0.703125 14.59375,4.984375 15.390625,11.96875 C15.859375,6.046875 17.234375,1.03125 21.640625,-1.875 C21.84375,-0.984375 22.375,-0.625 23.15625,-0.5 L23.234375,-0.234375 C17.609375,2.8125 16.125,7.75 15.671875,14.421875 L15.59375,14.40625 L15.59375,14.5 L20.515625,14.5 C20.046875,13.015625 19.203125,11.09375 18.4375,9.796875 L18.71875,9.546875 C20.109375,10.78125 21.625,12.71875 22.421875,14.203125 C22.890625,14.234375 23.15625,14.28125 23.359375,14.453125 L21.5,16.25 L20.453125,15.1875 L11.640625,15.1875 C12.234375,16.34375 12.796875,17.59375 13.25,18.90625 C13.78125,18.890625 14.015625,19.109375 14.140625,19.421875 Z" transform="translate(-0.109375, 20.1875) scale(1, -1)"/>
</svg>