<svg height="21.984375" viewBox="0 0 24 21.984375" width="24" xmlns="http://www.w3.org/2000/svg">
<path d="M7.828125,19.25 L7.5625,19.0625 C8.78125,18.03125 10.3125,16.21875 10.75,14.828125 C12.40625,13.75 13.421875,17.28125 7.828125,19.25 Z M4.921875,19.4375 C3.9375,17.109375 2.515625,14.875 1.25,13.515625 L1.578125,13.25 C3.21875,14.328125 4.890625,16.0625 6.171875,18.046875 C6.640625,17.96875 6.984375,18.140625 7.109375,18.359375 Z M9.234375,7.65625 L9.234375,2.28125 L4.96875,2.28125 L4.96875,7.65625 Z M9,8.359375 L5.28125,8.359375 L3.84375,8.953125 C5.25,10.4375 6.453125,12.125 7.296875,13.609375 C9.046875,12.171875 10.296875,10.421875 10.78125,9.125 C12.171875,8.046875 14.0625,11.234375 7.46875,13.875 C8.046875,13.875 8.328125,14.046875 8.40625,14.28125 L6.125,15.09375 C5.234375,12.546875 2.953125,8.828125 0.671875,6.75 L0.953125,6.484375 C1.828125,7.0625 2.65625,7.78125 3.453125,8.5625 L3.453125,-0.75 L3.703125,-0.75 C4.46875,-0.75 4.96875,-0.359375 4.96875,-0.21875 L4.96875,1.578125 L9.234375,1.578125 L9.234375,0.09375 L9.453125,0.09375 C9.984375,0.09375 10.75,0.484375 10.78125,0.625 L10.78125,7.421875 C11.1875,7.484375 11.546875,7.6875 11.6875,7.84375 L9.84375,9.265625 Z M14.953125,20.109375 C14.375,16.6875 13.109375,13.34375 11.65625,11.15625 L12,10.9375 C13.015625,11.875 13.9375,13.078125 14.71875,14.46875 L15.890625,14.46875 C15.8125,8.421875 15.625,2.78125 10.21875,-1.46875 L10.5625,-1.875 C15.5,1.265625 16.84375,5.421875 17.25,10.15625 C17.734375,4.96875 18.859375,0.671875 21.75,-1.875 C21.9375,-1.015625 22.4375,-0.640625 23.15625,-0.53125 L23.203125,-0.265625 C18.984375,2.765625 17.859375,7.6875 17.46875,14.46875 L20.5625,14.46875 C20.15625,13.125 19.484375,11.234375 18.953125,10.0625 L19.296875,9.890625 C20.328125,11.015625 21.671875,12.9375 22.390625,14.1875 C22.84375,14.203125 23.140625,14.25 23.296875,14.453125 L21.484375,16.203125 L20.46875,15.171875 L15.09375,15.171875 C15.703125,16.3125 16.203125,17.609375 16.609375,18.953125 C17.140625,18.953125 17.40625,19.171875 17.46875,19.46875 Z" transform="translate(0.015625, 20.109375) scale(1, -1)"/>
</svg>