<svg height="21.984375" viewBox="0 0 24 21.984375" width="24" xmlns="http://www.w3.org/2000/svg">
<path d="M15.359375,20.109375 C14.8125,16.625 13.5625,13.265625 12.125,11.046875 L12.484375,10.796875 C13.53125,11.8125 14.46875,13.109375 15.234375,14.609375 L16.109375,14.609375 C16.0625,9.671875 15.953125,5.015625 13.25,1.15625 C12.578125,1.75 11.765625,2.40625 11.765625,2.40625 L10.78125,1.125 L8.8125,1.125 L8.8125,3.578125 L12.234375,3.578125 C12.546875,3.578125 12.765625,3.703125 12.84375,3.953125 C12.234375,4.5625 11.25,5.375 11.25,5.375 L10.390625,4.265625 L8.8125,4.265625 L8.8125,6.53125 L12.1875,6.53125 C12.5,6.53125 12.75,6.640625 12.796875,6.90625 C12.1875,7.484375 11.234375,8.296875 11.234375,8.296875 L10.390625,7.203125 L8.8125,7.203125 L8.8125,9.4375 L12.390625,9.4375 C12.71875,9.4375 12.9375,9.546875 13.015625,9.8125 C12.34375,10.4375 11.28125,11.28125 11.28125,11.28125 L10.375,10.15625 L7.890625,10.15625 C8.375,10.65625 8.859375,11.25 9.1875,11.765625 C9.703125,11.78125 9.984375,12 10.0625,12.28125 L7.734375,12.75 C7.625,12 7.421875,10.921875 7.21875,10.15625 L5.015625,10.15625 L4.4375,10.390625 C5.09375,11.28125 5.65625,12.21875 6.171875,13.203125 L12.546875,13.203125 C12.890625,13.203125 13.109375,13.3125 13.15625,13.5625 C12.453125,14.25 11.296875,15.1875 11.296875,15.1875 L10.265625,13.890625 L6.484375,13.890625 C6.890625,14.78125 7.25,15.71875 7.515625,16.65625 L12.140625,16.65625 C12.453125,16.65625 12.703125,16.78125 12.765625,17.046875 C12,17.78125 10.828125,18.671875 10.828125,18.671875 L9.765625,17.375 L4.515625,17.375 C4.828125,17.859375 5.109375,18.359375 5.375,18.859375 C5.875,18.84375 6.140625,19.03125 6.234375,19.3125 L3.9375,20.140625 C3.34375,17.953125 2.296875,15.796875 1.296875,14.421875 L1.625,14.1875 C2.46875,14.8125 3.28125,15.671875 4.015625,16.65625 L5.65625,16.65625 C5.46875,15.75 5.203125,14.8125 4.84375,13.890625 L1.015625,13.890625 L1.203125,13.203125 L4.578125,13.203125 C3.625,10.921875 2.28125,8.765625 0.640625,7.0625 L0.90625,6.75 C1.75,7.390625 2.515625,8.109375 3.21875,8.875 L3.21875,-1.484375 L3.484375,-1.484375 C4.21875,-1.484375 4.734375,-1.078125 4.734375,-0.953125 L4.734375,0.4375 L12.703125,0.4375 C12.171875,-0.21875 11.546875,-0.859375 10.828125,-1.46875 L11.1875,-1.84375 C15.8125,1.296875 17.0625,5.453125 17.453125,10.203125 C17.921875,4.9375 19.0625,0.671875 21.859375,-1.84375 C22.078125,-0.984375 22.5625,-0.625 23.296875,-0.53125 L23.375,-0.234375 C19.15625,2.765625 18.078125,7.703125 17.6875,14.609375 L20.65625,14.609375 C20.28125,13.265625 19.609375,11.375 19.109375,10.203125 L19.4375,10.03125 C20.421875,11.15625 21.71875,13.078125 22.421875,14.328125 C22.875,14.359375 23.140625,14.40625 23.328125,14.59375 L21.53125,16.3125 L20.546875,15.28125 L15.578125,15.28125 C16.125,16.421875 16.578125,17.640625 16.9375,18.9375 C17.46875,18.9375 17.765625,19.171875 17.859375,19.46875 Z M4.734375,9.4375 L7.34375,9.4375 L7.34375,7.203125 L4.734375,7.203125 Z M4.734375,6.53125 L7.34375,6.53125 L7.34375,4.265625 L4.734375,4.265625 Z M4.734375,3.578125 L7.34375,3.578125 L7.34375,1.125 L4.734375,1.125 Z" transform="translate(-0.0078125, 20.140625) scale(1, -1)"/>
</svg>