<svg height="21.953125" viewBox="0 0 24 21.953125" width="24" xmlns="http://www.w3.org/2000/svg">
<path d="M7.0625,15 L9.671875,15 L9.671875,11.78125 L7.0625,11.78125 Z M5.734375,15.703125 L5.734375,10.015625 L5.921875,10.015625 C6.59375,10.015625 7.0625,10.34375 7.0625,10.484375 L7.0625,11.0625 L9.671875,11.0625 L9.671875,10.21875 L9.859375,10.21875 C10.3125,10.21875 10.96875,10.515625 10.984375,10.65625 L10.984375,14.765625 C11.453125,14.859375 11.828125,15.046875 12,15.1875 L10.21875,16.53125 L9.4375,15.703125 L7.375,15.703125 L5.734375,16.421875 Z M15.453125,20.109375 C15,16.828125 13.9375,13.5625 12.703125,11.375 L13.0625,11.15625 C13.9375,12.09375 14.734375,13.265625 15.40625,14.609375 L16.109375,14.609375 C16.0625,9.703125 16.015625,5.015625 13.703125,1.15625 C12.90625,1.84375 11.734375,2.78125 11.734375,2.78125 L10.609375,1.421875 L3.453125,1.421875 L3.453125,17.234375 L12.953125,17.234375 C13.296875,17.234375 13.53125,17.359375 13.609375,17.609375 C12.84375,18.359375 11.59375,19.296875 11.59375,19.296875 L10.515625,17.953125 L3.75,17.953125 L2.015625,18.703125 L2.015625,-1.390625 L2.234375,-1.390625 C2.96875,-1.390625 3.453125,-1.015625 3.453125,-0.890625 L3.453125,0.75 L13.125,0.75 C13.265625,0.75 13.421875,0.765625 13.515625,0.8125 C13.015625,0.03125 12.390625,-0.75 11.65625,-1.46875 L12.046875,-1.84375 C16.03125,1.265625 17.109375,5.375 17.46875,10.015625 C17.953125,4.828125 19.078125,0.640625 21.859375,-1.84375 C22.078125,-0.984375 22.5625,-0.625 23.296875,-0.53125 L23.375,-0.234375 C19.15625,2.765625 18.078125,7.703125 17.6875,14.609375 L20.65625,14.609375 C20.28125,13.265625 19.609375,11.375 19.109375,10.203125 L19.4375,10.03125 C20.421875,11.15625 21.71875,13.078125 22.421875,14.328125 C22.875,14.359375 23.140625,14.40625 23.328125,14.59375 L21.53125,16.3125 L20.546875,15.28125 L15.75,15.28125 C16.25,16.4375 16.703125,17.65625 17.046875,18.953125 C17.5625,18.953125 17.859375,19.203125 17.921875,19.484375 Z M5.5,8.203125 L6.796875,8.203125 L6.796875,4.5625 L5.5,4.5625 Z M4.4375,8.90625 L4.4375,2.609375 L4.578125,2.609375 C5.109375,2.609375 5.5,2.921875 5.5,3.03125 L5.5,3.890625 L6.796875,3.890625 L6.796875,3.046875 L6.9375,3.046875 C7.296875,3.046875 7.828125,3.34375 7.84375,3.484375 L7.84375,8.1875 C8.15625,8.234375 8.453125,8.375 8.546875,8.5 L7.25,9.5 L6.625,8.90625 L5.8125,8.90625 L4.4375,9.53125 Z M9.953125,8.203125 L11.296875,8.203125 L11.296875,4.5625 L9.953125,4.5625 Z M8.90625,8.90625 L8.90625,2.8125 L9.03125,2.8125 C9.578125,2.8125 9.953125,3.140625 9.953125,3.234375 L9.953125,3.890625 L11.296875,3.890625 L11.296875,3.046875 L11.46875,3.046875 C11.828125,3.046875 12.390625,3.34375 12.390625,3.484375 L12.390625,8.109375 C12.75,8.1875 13.0625,8.359375 13.171875,8.46875 L11.765625,9.546875 L11.140625,8.90625 L10.25,8.90625 L8.90625,9.53125 Z" transform="translate(-0.6953125, 20.109375) scale(1, -1)"/>
</svg>