<svg height="21.96875" viewBox="0 0 24 21.96875" width="24" xmlns="http://www.w3.org/2000/svg">
<path d="M7.015625,12.34375 L6.71875,12.171875 C7.421875,11.375 8.1875,10.0625 8.296875,9 C9.625,7.890625 10.96875,10.6875 7.015625,12.34375 Z M15.703125,12.5 C15.234375,11.5625 14.421875,9.890625 13.828125,8.875 L14.09375,8.65625 C14.953125,9.4375 16.25,10.578125 16.890625,11.28125 C17.453125,11.203125 17.65625,11.296875 17.765625,11.546875 Z M11.1875,12.984375 L11.1875,8.28125 L5.546875,8.28125 L5.734375,7.5625 L10.203125,7.5625 C9.21875,5.59375 7.3125,3.484375 5.328125,2.109375 L5.59375,1.78125 C7.65625,2.8125 9.71875,4.375 11.1875,6.234375 L11.1875,1.296875 L11.5,1.296875 C12.03125,1.296875 12.640625,1.625 12.640625,1.828125 L12.640625,6.28125 C14.09375,5.328125 15.984375,3.671875 16.625,2.453125 C18.28125,1.5625 18.890625,4.9375 12.640625,6.671875 L12.640625,7.5625 L18.1875,7.5625 C18.5,7.5625 18.75,7.6875 18.796875,7.9375 C18.078125,8.609375 16.921875,9.484375 16.921875,9.484375 L15.9375,8.28125 L12.640625,8.28125 L12.640625,12.078125 C13.265625,12.171875 13.484375,12.390625 13.53125,12.71875 Z M5.71875,18.953125 L5.71875,14.328125 L1.03125,14.328125 L1.21875,13.625 L22.390625,13.625 C22.734375,13.625 22.96875,13.75 23.046875,14.015625 C22.203125,14.78125 20.828125,15.8125 20.828125,15.8125 L19.625,14.328125 L12.90625,14.328125 L12.90625,16.796875 L19.75,16.796875 C20.09375,16.796875 20.296875,16.921875 20.375,17.1875 C19.609375,17.921875 18.3125,18.890625 18.3125,18.890625 L17.203125,17.515625 L12.90625,17.515625 L12.90625,19.203125 C13.484375,19.296875 13.703125,19.515625 13.78125,19.84375 L11.359375,20.09375 L11.359375,14.328125 L7.21875,14.328125 L7.21875,18.125 C7.75,18.1875 7.96875,18.390625 8.015625,18.71875 Z M19.5625,12.28125 L19.5625,0.53125 L4.46875,0.53125 L4.46875,11.46875 C5.0625,11.546875 5.25,11.78125 5.328125,12.09375 L2.953125,12.359375 L2.953125,-1.875 L3.234375,-1.875 C3.8125,-1.875 4.46875,-1.53125 4.46875,-1.3125 L4.46875,-0.171875 L19.5625,-0.171875 L19.5625,-1.875 L19.84375,-1.875 C20.453125,-1.875 21.09375,-1.515625 21.09375,-1.296875 L21.09375,11.375 C21.703125,11.453125 21.890625,11.6875 21.953125,12.03125 Z" transform="translate(-0.0390625, 20.09375) scale(1, -1)"/>
</svg>