<svg height="20.609375" viewBox="0 0 24 20.609375" width="24" xmlns="http://www.w3.org/2000/svg">
<path d="M0.984375,-0.171875 L1.203125,-0.859375 L22.375,-0.859375 C22.734375,-0.859375 22.96875,-0.75 23.046875,-0.484375 C22.15625,0.3125 20.734375,1.375 20.734375,1.375 L19.484375,-0.171875 L13.3125,-0.171875 L13.3125,10.25 L20.828125,10.25 C21.171875,10.25 21.4375,10.375 21.5,10.609375 C20.609375,11.40625 19.21875,12.484375 19.21875,12.484375 L17.96875,10.9375 L13.3125,10.9375 L13.3125,18.796875 C13.921875,18.890625 14.109375,19.125 14.1875,19.46875 L11.71875,19.75 L11.71875,-0.171875 L6.75,-0.171875 L6.75,13.3125 C7.34375,13.421875 7.5625,13.625 7.609375,13.984375 L5.109375,14.25 L5.109375,-0.171875 Z" transform="translate(-0.015625, 19.75) scale(1, -1)"/>
</svg>