<svg height="21.984375" viewBox="0 0 24 21.984375" width="24" xmlns="http://www.w3.org/2000/svg">
<path d="M10.46875,15.90625 L10.65625,15.21875 L19.03125,15.21875 L19.03125,13.296875 L11.765625,13.296875 L11.96875,12.578125 L19.03125,12.578125 L19.03125,11.8125 L19.25,11.8125 C19.75,11.8125 20.46875,12.125 20.5,12.265625 L20.5,15.21875 L22.734375,15.21875 C23.0625,15.21875 23.25,15.34375 23.328125,15.59375 C22.703125,16.265625 21.625,17.15625 21.625,17.15625 L20.6875,15.90625 L20.5,15.90625 L20.5,17.515625 C20.953125,17.609375 21.359375,17.8125 21.5,18 L19.65625,19.421875 L18.796875,18.5 L11.875,18.5 L12.078125,17.8125 L19.03125,17.8125 L19.03125,15.90625 Z M7.890625,16.734375 L7.890625,14.453125 L3.71875,14.453125 L3.71875,16.734375 Z M4.828125,20.109375 L4.421875,17.421875 L4.015625,17.421875 L2.296875,18.171875 L2.296875,7.296875 L2.515625,7.296875 C3.234375,7.296875 3.71875,7.65625 3.71875,7.796875 L3.71875,8.234375 L5.25,8.234375 L5.25,1.03125 L3.578125,0.796875 L3.578125,5.640625 C4.125,5.734375 4.34375,5.90625 4.390625,6.234375 L2.234375,6.484375 L2.234375,0.59375 L0.953125,0.453125 L1.9375,-1.484375 C2.1875,-1.4375 2.375,-1.265625 2.5,-0.953125 C6.046875,0.03125 8.65625,0.859375 10.484375,1.46875 L10.4375,1.84375 L6.671875,1.25 L6.671875,4.203125 L9.71875,4.203125 C10.0625,4.203125 10.265625,4.3125 10.34375,4.578125 C9.703125,5.234375 8.609375,6.140625 8.609375,6.140625 L7.65625,4.890625 L6.671875,4.890625 L6.671875,8.234375 L8.046875,8.234375 L8.046875,7.65625 L8.25,7.65625 C8.734375,7.65625 9.4375,8.015625 9.453125,8.15625 L9.453125,11.140625 C9.859375,11.203125 10.21875,11.40625 10.375,11.546875 L8.609375,12.859375 L7.828125,12.046875 L3.71875,12.046875 L3.71875,13.75 L7.890625,13.75 L7.890625,13.109375 L8.109375,13.109375 C8.59375,13.109375 9.28125,13.4375 9.3125,13.609375 L9.3125,16.53125 C9.71875,16.609375 10.078125,16.78125 10.203125,16.9375 L8.46875,18.265625 L7.6875,17.421875 L5.28125,17.421875 L6.3125,19.125 C6.8125,19.15625 7.109375,19.375 7.171875,19.703125 Z M8.046875,11.328125 L8.046875,8.921875 L3.71875,8.921875 L3.71875,11.328125 Z M15.5,9.453125 L15.5,7.15625 L13.125,7.15625 L11.40625,7.890625 L11.40625,-0.34375 L11.609375,-0.34375 C12.34375,-0.34375 12.8125,0.078125 12.8125,0.1875 L12.8125,6.4375 L15.5,6.4375 L15.5,-1.875 L15.796875,-1.875 C16.375,-1.875 17.015625,-1.53125 17.015625,-1.375 L17.015625,6.4375 L19.734375,6.4375 L19.734375,2.015625 C19.734375,1.703125 19.6875,1.578125 19.375,1.578125 C19.03125,1.578125 17.8125,1.6875 17.8125,1.703125 L17.8125,1.296875 C18.40625,1.203125 18.765625,1.0625 19.015625,0.8125 C19.203125,0.578125 19.25,0.171875 19.296875,-0.28125 C20.96875,-0.09375 21.1875,0.625 21.1875,1.796875 L21.1875,6.234375 C21.578125,6.3125 21.9375,6.5 22.0625,6.640625 L20.203125,7.984375 L19.515625,7.15625 L17.015625,7.15625 L17.015625,8.59375 C17.546875,8.6875 17.765625,8.875 17.8125,9.21875 Z M11.421875,11.515625 C11.5,10.625 10.984375,9.640625 10.390625,9.28125 C9.9375,9.03125 9.640625,8.5625 9.859375,8.109375 C10.109375,7.609375 10.84375,7.65625 11.28125,7.96875 C11.734375,8.328125 12.078125,9.03125 12.09375,9.984375 L20.78125,9.984375 C20.609375,9.3125 20.40625,8.515625 20.25,7.984375 L20.59375,7.828125 C21.1875,8.296875 21.953125,9.140625 22.4375,9.75 C22.875,9.765625 23.15625,9.796875 23.296875,9.953125 L21.578125,11.640625 L20.65625,10.6875 L12.046875,10.6875 C12,10.9375 11.953125,11.234375 11.859375,11.515625 Z" transform="translate(-0.140625, 20.109375) scale(1, -1)"/>
</svg>