<svg height="21.78125" viewBox="0 0 24 21.78125" width="24" xmlns="http://www.w3.org/2000/svg">
<path d="M3.09375,18.453125 L3.09375,12.40625 C3.09375,7.78125 2.921875,2.59375 0.890625,-1.609375 L1.265625,-1.84375 C4.4375,2.296875 4.609375,8.203125 4.609375,12.4375 L4.609375,17.765625 L22.390625,17.765625 C22.734375,17.765625 22.96875,17.875 23.046875,18.140625 C22.171875,18.890625 20.828125,19.9375 20.828125,19.9375 L19.625,18.453125 L4.890625,18.453125 L3.09375,19.296875 Z M3.671875,-0.4375 L3.859375,-1.125 L22.4375,-1.125 C22.78125,-1.125 23.015625,-1.015625 23.09375,-0.75 C22.25,0.03125 20.875,1.03125 20.875,1.03125 L19.6875,-0.4375 L14.515625,-0.4375 L14.515625,3.40625 L20.65625,3.40625 C21,3.40625 21.234375,3.53125 21.28125,3.796875 C20.515625,4.484375 19.296875,5.453125 19.296875,5.453125 L18.1875,4.109375 L14.515625,4.109375 L14.515625,6.171875 C15.078125,6.265625 15.265625,6.484375 15.3125,6.796875 L13.015625,7.03125 L13.015625,-0.4375 L9.28125,-0.4375 L9.28125,4.578125 C9.8125,4.6875 10.03125,4.890625 10.0625,5.203125 L7.75,5.453125 L7.75,-0.4375 Z M19.78125,17.203125 C18.359375,16.578125 15.671875,15.703125 13.515625,15.265625 L13.625,14.828125 C14.640625,14.90625 15.71875,15.03125 16.78125,15.171875 L16.78125,13.109375 L13.265625,13.109375 L13.34375,12.859375 C12.703125,13.484375 11.71875,14.25 11.71875,14.25 L10.78125,13.109375 L9.984375,13.109375 L9.984375,15.40625 C10.5625,15.53125 11.09375,15.640625 11.546875,15.765625 C12.046875,15.578125 12.4375,15.546875 12.640625,15.75 L11.09375,17.1875 C9.8125,16.53125 7.34375,15.625 5.40625,15.140625 L5.515625,14.734375 C6.5,14.828125 7.5625,14.96875 8.5625,15.140625 L8.5625,13.109375 L5.109375,13.109375 L5.296875,12.390625 L8.015625,12.390625 C7.3125,10.578125 6.21875,8.90625 4.828125,7.578125 L5.140625,7.203125 C6.5,8.109375 7.65625,9.234375 8.5625,10.515625 L8.5625,6.75 L8.78125,6.75 C9.484375,6.75 9.984375,7.078125 9.984375,7.203125 L9.984375,11.453125 C10.6875,10.828125 11.421875,9.953125 11.71875,9.265625 C12.984375,8.46875 14.015625,10.875 9.984375,11.859375 L9.984375,12.390625 L12.8125,12.390625 C13.109375,12.390625 13.296875,12.484375 13.390625,12.703125 L13.46875,12.390625 L16.0625,12.390625 C15.125,10.578125 13.78125,8.90625 12.078125,7.609375 L12.34375,7.25 C14.109375,8.203125 15.625,9.4375 16.78125,10.875 L16.78125,6.75 L16.984375,6.75 C17.734375,6.75 18.234375,7.109375 18.234375,7.21875 L18.234375,11.90625 C19.03125,9.90625 20.25,8.328125 21.578125,7.34375 C21.765625,8.0625 22.203125,8.46875 22.78125,8.5625 L22.796875,8.828125 C21.3125,9.484375 19.65625,10.75 18.671875,12.390625 L22.203125,12.390625 C22.53125,12.390625 22.78125,12.5 22.828125,12.765625 C22.125,13.4375 21.03125,14.328125 21.03125,14.328125 L20.0625,13.109375 L18.234375,13.109375 L18.234375,15.40625 C18.984375,15.53125 19.65625,15.671875 20.203125,15.796875 C20.71875,15.578125 21.125,15.546875 21.3125,15.75 Z" transform="translate(0.0078125, 19.9375) scale(1, -1)"/>
</svg>