<svg height="21.734375" viewBox="0 0 24 21.734375" width="24" xmlns="http://www.w3.org/2000/svg">
<path d="M8.859375,14.734375 C7.75,11.640625 5.1875,8.15625 2.09375,6.03125 L2.28125,5.6875 C4.171875,6.59375 5.90625,7.890625 7.3125,9.34375 C9.03125,8.328125 11.046875,6.578125 11.734375,5.140625 C13.734375,4.15625 14.359375,8.09375 7.65625,9.71875 C8.15625,10.25 8.59375,10.78125 9,11.328125 L17.65625,11.328125 C15.40625,4.890625 10.25,0.640625 1.796875,-1.4375 L1.96875,-1.84375 C11.859375,-0.171875 16.921875,4.296875 19.609375,10.984375 C20.203125,11.046875 20.46875,11.09375 20.65625,11.296875 L18.8125,13.109375 L17.609375,12.03125 L13.796875,12.03125 L13.796875,15.546875 L21.796875,15.546875 C22.125,15.546875 22.375,15.671875 22.421875,15.9375 C21.671875,16.6875 20.453125,17.640625 20.453125,17.640625 L19.34375,16.265625 L13.796875,16.265625 L13.796875,19.0625 C14.296875,19.125 14.515625,19.34375 14.546875,19.65625 L12.21875,19.890625 L12.21875,12.03125 L9.484375,12.03125 C9.796875,12.53125 10.078125,13.03125 10.3125,13.515625 C10.78125,13.46875 11.0625,13.515625 11.15625,13.78125 Z" transform="translate(-0.109375, 19.890625) scale(1, -1)"/>
</svg>