<svg height="21.765625" viewBox="0 0 24 21.765625" width="24" xmlns="http://www.w3.org/2000/svg">
<path d="M3.09375,18.4375 L3.09375,12.40625 C3.09375,7.78125 2.921875,2.59375 0.890625,-1.609375 L1.265625,-1.84375 C4.4375,2.296875 4.609375,8.1875 4.609375,12.4375 L4.609375,17.734375 L22.125,17.734375 C22.484375,17.734375 22.703125,17.859375 22.78125,18.125 C21.9375,18.859375 20.59375,19.921875 20.59375,19.921875 L19.390625,18.4375 L4.890625,18.4375 L3.09375,19.265625 Z M8.71875,17.046875 L8.71875,14.09375 L4.96875,14.09375 L5.15625,13.390625 L8.1875,13.390625 C7.46875,11.1875 6.359375,9.09375 4.75,7.46875 L5.0625,7.109375 C6.578125,8.234375 7.796875,9.578125 8.71875,11.109375 L8.71875,6.8125 L8.96875,6.8125 C9.53125,6.8125 10.125,7.15625 10.125,7.3125 L10.125,12.125 C10.796875,11.5 11.515625,10.5625 11.765625,9.8125 C13.15625,8.90625 14.234375,11.609375 10.125,12.546875 L10.125,13.390625 L12.765625,13.390625 C13.078125,13.390625 13.3125,13.515625 13.375,13.75 C12.71875,14.421875 11.6875,15.234375 11.6875,15.234375 L10.75,14.09375 L10.125,14.09375 L10.125,16.171875 C10.703125,16.265625 10.9375,16.484375 10.984375,16.796875 Z M16.734375,16.984375 L16.734375,14.09375 L13.421875,14.09375 L13.578125,13.390625 L15.859375,13.390625 C15.125,11.359375 13.9375,9.484375 12.28125,8.015625 L12.578125,7.609375 C14.359375,8.765625 15.75,10.171875 16.734375,11.859375 L16.734375,6.765625 L17.015625,6.765625 C17.5625,6.765625 18.1875,7.109375 18.1875,7.265625 L18.1875,12.890625 C19.015625,10.515625 20.328125,8.640625 21.859375,7.4375 C22.0625,8.1875 22.484375,8.609375 23.109375,8.71875 L23.109375,8.953125 C21.390625,9.765625 19.625,11.40625 18.59375,13.390625 L22.125,13.390625 C22.46875,13.390625 22.6875,13.515625 22.75,13.75 C22.078125,14.453125 20.96875,15.34375 20.96875,15.34375 L19.984375,14.09375 L18.1875,14.09375 L18.1875,16.125 C18.765625,16.21875 18.984375,16.4375 19.03125,16.75 Z M3.671875,-0.4375 L3.859375,-1.125 L22.4375,-1.125 C22.78125,-1.125 23.015625,-1.015625 23.09375,-0.75 C22.25,0.03125 20.875,1.03125 20.875,1.03125 L19.6875,-0.4375 L14.5,-0.4375 L14.5,3.359375 L20.859375,3.359375 C21.1875,3.359375 21.40625,3.484375 21.484375,3.75 C20.71875,4.4375 19.484375,5.421875 19.484375,5.421875 L18.390625,4.0625 L14.5,4.0625 L14.5,6.09375 C15.046875,6.1875 15.234375,6.40625 15.28125,6.71875 L12.984375,6.953125 L12.984375,-0.4375 L9.28125,-0.4375 L9.28125,4.5625 C9.8125,4.65625 10.03125,4.84375 10.0625,5.1875 L7.75,5.40625 L7.75,-0.4375 Z" transform="translate(0, 19.921875) scale(1, -1)"/>
</svg>