<svg height="22.265625" viewBox="0 0 24 22.265625" width="24" xmlns="http://www.w3.org/2000/svg">
<path d="M9.625,7.5625 L9.90625,6.890625 L14.765625,7.4375 C15.140625,5.859375 15.671875,4.4375 16.3125,3.1875 C14.15625,1.34375 11.328125,-0.140625 8.1875,-1.0625 L8.328125,-1.4375 C11.71875,-0.796875 14.65625,0.484375 16.984375,2.109375 C17.8125,0.859375 18.84375,-0.140625 20.09375,-0.90625 C21.1875,-1.6875 22.609375,-2.25 23.109375,-1.484375 C23.296875,-1.21875 23.234375,-0.859375 22.515625,-0.046875 L22.890625,3.53125 L22.578125,3.578125 C22.296875,2.59375 21.859375,1.421875 21.578125,0.8125 C21.390625,0.359375 21.234375,0.34375 20.8125,0.640625 C19.78125,1.25 18.90625,2.046875 18.21875,3.046875 C19.421875,4.03125 20.375,5.109375 21.09375,6.21875 C21.671875,6.09375 21.890625,6.1875 22.03125,6.453125 L19.921875,7.515625 C19.3125,6.390625 18.5,5.28125 17.5,4.25 C16.96875,5.25 16.578125,6.390625 16.265625,7.609375 L22.21875,8.28125 C22.515625,8.296875 22.75,8.5 22.78125,8.765625 C21.953125,9.34375 20.609375,10.21875 20.609375,10.21875 L19.625,8.71875 L16.109375,8.296875 C15.90625,9.21875 15.75,10.15625 15.625,11.15625 L21.390625,11.734375 C21.671875,11.765625 21.90625,11.921875 21.953125,12.171875 C21.140625,12.8125 19.796875,13.703125 19.796875,13.703125 L18.8125,12.171875 L15.546875,11.859375 C15.484375,12.75 15.40625,13.6875 15.359375,14.609375 L21.40625,15.171875 C21.671875,15.1875 21.90625,15.359375 21.9375,15.625 C21.171875,16.25 19.828125,17.140625 19.828125,17.140625 L18.8125,15.640625 L15.34375,15.34375 C15.3125,16.53125 15.28125,17.78125 15.3125,19.0625 C15.890625,19.15625 16.109375,19.421875 16.15625,19.734375 L13.65625,20.015625 C13.65625,18.34375 13.6875,16.734375 13.75,15.1875 L9.90625,14.828125 L10.171875,14.140625 L13.796875,14.46875 C13.875,13.515625 13.9375,12.59375 14.046875,11.6875 L10.484375,11.359375 L10.734375,10.65625 L14.109375,10.984375 C14.25,10.015625 14.40625,9.046875 14.609375,8.140625 Z M17.0625,19.734375 L16.875,19.46875 C17.921875,18.984375 19.296875,18 19.828125,17.140625 C21.5,16.515625 21.984375,19.734375 17.0625,19.734375 Z M1.171875,18.28125 L1.375,17.59375 L4.375,17.59375 C3.765625,13.78125 2.65625,9.9375 0.890625,6.953125 L1.25,6.671875 C2.046875,7.609375 2.71875,8.609375 3.3125,9.671875 C4.25,8.90625 5.15625,7.828125 5.40625,6.859375 C7.015625,5.8125 8.046875,8.96875 3.59375,10.21875 C4.109375,11.15625 4.53125,12.171875 4.921875,13.203125 L8.09375,13.203125 C7.484375,7.625 5.859375,2.0625 1.625,-1.5625 L1.9375,-1.875 C7.3125,1.703125 8.921875,7.4375 9.671875,12.984375 C10.203125,13.03125 10.4375,13.109375 10.578125,13.3125 L8.859375,14.875 L7.921875,13.890625 L5.140625,13.890625 C5.515625,15.078125 5.828125,16.3125 6.078125,17.59375 L10.578125,17.59375 C10.890625,17.59375 11.15625,17.71875 11.203125,17.96875 C10.4375,18.703125 9.125,19.6875 9.125,19.6875 L8.046875,18.28125 Z" transform="translate(-0.09375, 20.015625) scale(1, -1)"/>
</svg>