<svg height="22.046875" viewBox="0 0 24 22.046875" width="24" xmlns="http://www.w3.org/2000/svg">
<path d="M16.21875,19.796875 L16.015625,19.53125 C16.890625,19.15625 17.875,18.3125 18.234375,17.5625 C19.75,16.84375 20.40625,19.78125 16.21875,19.796875 Z M15.8125,9.8125 L15.625,9.578125 C16.5625,9.125 17.640625,8.203125 17.96875,7.375 C19.515625,6.578125 20.25,9.671875 15.8125,9.8125 Z M9.453125,15.8125 L9.71875,15.171875 L13.84375,15.578125 C14.203125,14.546875 14.734375,13.609375 15.4375,12.765625 C13.78125,11.859375 11.90625,11.109375 10.0625,10.609375 L10.25,10.21875 C12.3125,10.578125 14.359375,11.203125 16.15625,11.96875 C17.15625,11.046875 18.40625,10.21875 20.015625,9.625 C21.140625,9.171875 22.3125,8.921875 22.65625,9.640625 C22.78125,9.953125 22.734375,10.15625 22.03125,10.703125 L22.25,13.125 L21.9375,13.171875 C21.71875,12.4375 21.40625,11.5625 21.21875,11.1875 C21.078125,10.875 20.875,10.875 20.5,11.015625 C19.3125,11.421875 18.359375,11.96875 17.5625,12.640625 C18.75,13.25 19.734375,13.890625 20.46875,14.5625 C20.96875,14.421875 21.1875,14.46875 21.359375,14.71875 L19.578125,15.84375 C18.890625,15.03125 17.875,14.234375 16.734375,13.515625 C16.125,14.1875 15.671875,14.921875 15.359375,15.75 L22.34375,16.4375 C22.65625,16.4375 22.875,16.609375 22.890625,16.84375 C22.15625,17.421875 20.921875,18.21875 20.921875,18.21875 L20.015625,16.84375 L15.125,16.375 C14.828125,17.234375 14.65625,18.140625 14.609375,19.03125 C15.078125,19.125 15.265625,19.390625 15.3125,19.65625 L13.03125,19.84375 C13.109375,18.546875 13.265625,17.359375 13.625,16.21875 Z M8.46875,5.828125 L8.734375,5.1875 L13.125,5.609375 C13.625,4.3125 14.328125,3.125 15.265625,2.046875 C12.984375,0.625 10.21875,-0.578125 7.4375,-1.296875 L7.609375,-1.6875 C10.734375,-1.15625 13.703125,-0.125 16.15625,1.15625 C17.203125,0.171875 18.53125,-0.703125 20.109375,-1.375 C21.265625,-1.875 22.5625,-2.203125 22.921875,-1.4375 C23.0625,-1.15625 23.015625,-0.90625 22.296875,-0.34375 L22.53125,2.203125 L22.25,2.25 C22.015625,1.515625 21.640625,0.625 21.4375,0.21875 C21.265625,-0.125 21.078125,-0.125 20.65625,0.078125 C19.4375,0.546875 18.390625,1.171875 17.515625,1.921875 C18.71875,2.65625 19.734375,3.453125 20.5,4.25 C21.03125,4.078125 21.265625,4.15625 21.4375,4.390625 L19.515625,5.640625 C18.765625,4.6875 17.734375,3.75 16.53125,2.875 C15.71875,3.765625 15.125,4.75 14.6875,5.78125 L22.5625,6.546875 C22.84375,6.578125 23.09375,6.75 23.109375,7.015625 C22.375,7.53125 21.140625,8.359375 21.140625,8.359375 L20.203125,7.015625 L14.453125,6.4375 C14.140625,7.3125 13.96875,8.203125 13.921875,9.078125 C14.375,9.171875 14.5625,9.40625 14.59375,9.671875 L12.265625,9.890625 C12.34375,8.640625 12.546875,7.421875 12.90625,6.28125 Z M1.171875,18.28125 L1.375,17.59375 L4.375,17.59375 C3.765625,13.78125 2.65625,9.9375 0.890625,6.953125 L1.25,6.671875 C2.046875,7.609375 2.71875,8.609375 3.3125,9.671875 C4.25,8.90625 5.15625,7.828125 5.40625,6.859375 C7.015625,5.8125 8.046875,8.96875 3.59375,10.21875 C4.109375,11.15625 4.53125,12.171875 4.921875,13.203125 L8.09375,13.203125 C7.484375,7.625 5.859375,2.0625 1.625,-1.5625 L1.9375,-1.875 C7.3125,1.703125 8.921875,7.4375 9.671875,12.984375 C10.203125,13.03125 10.4375,13.109375 10.578125,13.3125 L8.859375,14.875 L7.921875,13.890625 L5.140625,13.890625 C5.515625,15.078125 5.828125,16.3125 6.078125,17.59375 L10.578125,17.59375 C10.890625,17.59375 11.15625,17.71875 11.203125,17.96875 C10.4375,18.703125 9.125,19.6875 9.125,19.6875 L8.046875,18.28125 Z" transform="translate(0, 19.84375) scale(1, -1)"/>
</svg>