<svg height="21.890625" viewBox="0 0 24 21.890625" width="24" xmlns="http://www.w3.org/2000/svg">
<path d="M3.640625,7.796875 L3.640625,6.078125 C3.640625,3.703125 3.359375,0.9375 1.125,-1.421875 L1.4375,-1.75 C4.78125,0.53125 5.109375,3.90625 5.109375,6.078125 L5.109375,7.109375 L7.9375,7.109375 L7.9375,2.15625 C7.9375,1.21875 8.109375,0.84375 9.28125,0.84375 L10.296875,0.84375 C12.078125,0.84375 12.640625,1.15625 12.640625,1.78125 C12.640625,2.046875 12.546875,2.234375 12.140625,2.421875 L12.078125,4.734375 L11.765625,4.734375 C11.5625,3.75 11.359375,2.6875 11.203125,2.453125 C11.140625,2.28125 11.0625,2.25 10.9375,2.234375 C10.828125,2.234375 10.609375,2.234375 10.375,2.234375 L9.71875,2.234375 C9.4375,2.234375 9.390625,2.28125 9.390625,2.515625 L9.390625,6.90625 C9.796875,6.953125 10.03125,7.078125 10.171875,7.25 L8.546875,8.6875 L7.734375,7.796875 L5.375,7.796875 L3.640625,8.59375 Z M13.578125,18.671875 L13.578125,16.5625 C13.578125,14.640625 13.4375,12.546875 12.21875,10.703125 L10.65625,12.21875 L9.75,11.25 L3.28125,11.25 C3.265625,11.59375 3.1875,11.96875 3.09375,12.359375 L2.65625,12.359375 C2.71875,11.140625 2.109375,9.8125 1.421875,9.28125 C0.984375,9 0.75,8.515625 0.953125,8.09375 C1.25,7.609375 2.015625,7.734375 2.46875,8.140625 C2.921875,8.546875 3.3125,9.390625 3.34375,10.5625 L9.859375,10.5625 L9.390625,8.65625 L9.71875,8.5 C10.265625,8.953125 11.0625,9.75 11.515625,10.3125 L11.96875,10.375 L11.515625,9.8125 L11.8125,9.5 C14.765625,11.515625 15.046875,14.5 15.046875,16.5625 L15.046875,17.96875 L17.875,17.96875 L17.875,12.890625 C17.875,11.921875 18.078125,11.59375 19.3125,11.59375 L20.5,11.59375 C22.4375,11.59375 23.046875,11.875 23.046875,12.484375 C23.046875,12.765625 22.9375,12.9375 22.515625,13.109375 L22.4375,15.625 L22.125,15.625 C21.9375,14.5625 21.703125,13.46875 21.546875,13.15625 C21.484375,12.953125 21.40625,12.9375 21.28125,12.90625 C21.171875,12.90625 20.875,12.90625 20.546875,12.90625 L19.734375,12.90625 C19.390625,12.90625 19.3125,12.984375 19.3125,13.21875 L19.3125,17.765625 C19.75,17.828125 19.984375,17.953125 20.109375,18.125 L18.484375,19.53125 L17.65625,18.671875 L15.34375,18.671875 L13.578125,19.46875 Z M5.734375,20.015625 L5.734375,17.296875 L1.125,17.296875 L1.3125,16.609375 L5.734375,16.609375 L5.734375,14.09375 L1.984375,14.09375 L2.1875,13.390625 L11.15625,13.390625 C11.5,13.390625 11.71875,13.515625 11.78125,13.78125 C11.046875,14.453125 9.890625,15.359375 9.890625,15.359375 L8.875,14.09375 L7.265625,14.09375 L7.265625,16.609375 L11.828125,16.609375 C12.140625,16.609375 12.359375,16.734375 12.4375,16.984375 C11.71875,17.6875 10.484375,18.578125 10.484375,18.578125 L9.484375,17.296875 L7.265625,17.296875 L7.265625,19.125 C7.84375,19.203125 8.09375,19.4375 8.140625,19.78125 Z M19.203125,8.8125 C18.640625,6.984375 17.859375,5.328125 16.75,3.890625 C15.578125,5.25 14.6875,6.90625 14.109375,8.8125 Z M12.09375,9.5 L12.3125,8.8125 L13.578125,8.8125 C14.109375,6.53125 14.921875,4.609375 16.03125,3 C14.328125,1.109375 12.03125,-0.40625 9.03125,-1.484375 L9.21875,-1.875 C12.453125,-1.015625 14.90625,0.3125 16.75,2.015625 C18.125,0.390625 19.84375,-0.90625 21.953125,-1.84375 C22.203125,-1.15625 22.703125,-0.703125 23.359375,-0.640625 L23.40625,-0.40625 C21.171875,0.3125 19.21875,1.4375 17.65625,2.921875 C19.15625,4.53125 20.1875,6.453125 20.921875,8.609375 C21.484375,8.640625 21.71875,8.6875 21.890625,8.875 L20.15625,10.515625 L19.15625,9.5 Z" transform="translate(-0.078125, 20.015625) scale(1, -1)"/>
</svg>