<svg height="21.40625" viewBox="0 0 24 21.40625" width="24" xmlns="http://www.w3.org/2000/svg">
<path d="M2.109375,17.875 L2.109375,-0.75 L2.359375,-0.75 C3.125,-0.75 3.625,-0.34375 3.625,-0.21875 L3.625,1.578125 L11.921875,1.578125 C12.234375,1.578125 12.484375,1.703125 12.546875,1.96875 C11.765625,2.6875 10.46875,3.71875 10.46875,3.71875 L9.34375,2.296875 L3.625,2.296875 L3.625,17.15625 L11.421875,17.15625 C11.78125,17.15625 12,17.28125 12.078125,17.546875 C11.296875,18.28125 10.03125,19.25 10.03125,19.25 L8.921875,17.875 L3.90625,17.875 L2.109375,18.640625 Z M8.546875,16.15625 C8.296875,14.765625 7.96875,13.171875 7.484375,11.59375 C6.625,12.34375 5.5625,13.125 4.265625,13.921875 L3.953125,13.703125 C4.9375,12.796875 6.078125,11.5625 7.0625,10.25 C6.234375,7.921875 5.15625,5.609375 3.796875,3.84375 L4.078125,3.578125 C5.65625,5.140625 6.890625,7.109375 7.84375,9.125 C8.546875,8.0625 9.078125,7.015625 9.28125,6.078125 C10.625,5.09375 11.421875,7.390625 8.5,10.578125 C9.140625,12.171875 9.640625,13.734375 10.015625,15.09375 C10.625,15.078125 10.828125,15.21875 10.921875,15.53125 Z M19.125,8.78125 C18.53125,6.9375 17.640625,5.25 16.4375,3.765625 C15.171875,5.15625 14.1875,6.8125 13.5625,8.78125 Z M11.453125,9.484375 L11.65625,8.78125 L13.03125,8.78125 C13.578125,6.453125 14.46875,4.484375 15.671875,2.875 C13.96875,1.0625 11.765625,-0.40625 9.03125,-1.46875 L9.234375,-1.84375 C12.234375,-0.953125 14.59375,0.3125 16.421875,1.921875 C17.859375,0.3125 19.65625,-0.9375 21.859375,-1.84375 C22.15625,-1.125 22.65625,-0.671875 23.296875,-0.625 L23.359375,-0.359375 C21.046875,0.34375 19.015625,1.390625 17.375,2.859375 C18.953125,4.515625 20.09375,6.4375 20.90625,8.5625 C21.453125,8.609375 21.703125,8.65625 21.890625,8.875 L20.140625,10.484375 L19.109375,9.484375 Z M13.03125,18.671875 L13.03125,16.625 C13.03125,14.609375 12.8125,12.34375 10.984375,10.421875 L11.25,10.109375 C14.203125,11.921875 14.5,14.734375 14.5,16.65625 L14.5,17.96875 L17.765625,17.96875 L17.765625,12.890625 C17.765625,11.921875 17.96875,11.546875 19.21875,11.546875 L20.40625,11.546875 C22.421875,11.546875 22.984375,11.859375 22.984375,12.4375 C22.984375,12.75 22.890625,12.890625 22.4375,13.078125 L22.375,15.125 L22.078125,15.125 C21.890625,14.234375 21.671875,13.375 21.53125,13.109375 C21.4375,12.953125 21.390625,12.9375 21.234375,12.90625 C21.125,12.90625 20.8125,12.90625 20.46875,12.90625 L19.65625,12.90625 C19.296875,12.90625 19.25,12.984375 19.25,13.21875 L19.25,17.765625 C19.6875,17.828125 19.921875,17.953125 20.09375,18.125 L18.390625,19.5625 L17.5625,18.671875 L14.78125,18.671875 L13.03125,19.46875 Z" transform="translate(-0.734375, 19.5625) scale(1, -1)"/>
</svg>