<svg height="21.984375" viewBox="0 0 24 21.984375" width="24" xmlns="http://www.w3.org/2000/svg">
<path d="M5.375,12.453125 L5.375,8.96875 L1.078125,8.96875 L1.265625,8.28125 L4.875,8.28125 C4.03125,5.546875 2.640625,2.921875 0.640625,0.9375 L0.90625,0.59375 C2.8125,1.921875 4.265625,3.53125 5.375,5.40625 L5.375,-1.875 L5.6875,-1.875 C6.234375,-1.875 6.890625,-1.515625 6.890625,-1.296875 L6.890625,6.71875 C7.875,5.828125 9,4.484375 9.34375,3.390625 C10.9375,2.296875 12.03125,5.6875 6.890625,7.15625 L6.890625,8.28125 L10.296875,8.28125 C10.609375,8.28125 10.84375,8.40625 10.890625,8.65625 C10.21875,9.359375 9.046875,10.296875 9.046875,10.296875 L8.046875,8.96875 L6.890625,8.96875 L6.890625,11.59375 C7.484375,11.6875 7.6875,11.90625 7.75,12.21875 Z M8.1875,20.109375 C7.75,19.109375 7.125,18 6.359375,16.921875 C5.203125,17.453125 3.765625,17.921875 1.96875,18.3125 L1.75,18.03125 C2.921875,17.515625 4.3125,16.75 5.59375,15.890625 C4.265625,14.234375 2.65625,12.671875 0.9375,11.546875 L1.171875,11.234375 C3.265625,12.21875 5.140625,13.625 6.640625,15.125 C7.6875,14.328125 8.5625,13.484375 9.078125,12.671875 C10.578125,12.140625 10.875,14.28125 7.6875,16.21875 C8.421875,17.09375 9.046875,17.96875 9.546875,18.796875 C10.125,18.71875 10.34375,18.8125 10.484375,19.078125 Z M19.125,8.78125 C18.453125,6.9375 17.453125,5.25 16.15625,3.75 C14.859375,5.140625 13.875,6.796875 13.21875,8.78125 Z M10.9375,9.484375 L11.15625,8.78125 L12.703125,8.78125 C13.265625,6.453125 14.15625,4.515625 15.34375,2.90625 C13.515625,1.078125 11.15625,-0.40625 8.328125,-1.484375 L8.546875,-1.875 C11.65625,-0.984375 14.140625,0.34375 16.109375,1.96875 C17.59375,0.3125 19.515625,-0.9375 21.859375,-1.84375 C22.109375,-1.125 22.625,-0.640625 23.296875,-0.59375 L23.359375,-0.34375 C20.875,0.359375 18.765625,1.390625 17.09375,2.859375 C18.75,4.515625 19.984375,6.4375 20.875,8.5625 C21.453125,8.609375 21.703125,8.65625 21.890625,8.875 L20.15625,10.46875 L19.109375,9.484375 Z M12.53125,18.640625 L12.53125,16.65625 C12.53125,14.609375 12.3125,12.3125 10.390625,10.390625 L10.65625,10.078125 C13.734375,11.90625 14.015625,14.734375 14.015625,16.6875 L14.015625,17.96875 L17.328125,17.96875 L17.328125,12.859375 C17.328125,11.875 17.515625,11.515625 18.84375,11.515625 L20.140625,11.515625 C22.265625,11.515625 22.890625,11.8125 22.890625,12.4375 C22.890625,12.71875 22.828125,12.890625 22.375,13.0625 L22.296875,15.84375 L21.984375,15.84375 C21.765625,14.6875 21.5,13.46875 21.390625,13.125 C21.3125,12.9375 21.234375,12.90625 21.09375,12.90625 C20.953125,12.890625 20.59375,12.890625 20.203125,12.890625 L19.25,12.890625 C18.859375,12.890625 18.796875,12.9375 18.796875,13.203125 L18.796875,17.765625 C19.21875,17.828125 19.46875,17.953125 19.609375,18.09375 L17.953125,19.5625 L17.109375,18.640625 L14.296875,18.640625 L12.53125,19.4375 Z" transform="translate(0, 20.109375) scale(1, -1)"/>
</svg>