<svg height="21.9375" viewBox="0 0 24 21.9375" width="24" xmlns="http://www.w3.org/2000/svg">
<path d="M3.28125,9.75 L3.484375,9.03125 L9.125,9.03125 C9.453125,9.03125 9.671875,9.140625 9.71875,9.40625 C9.09375,10.03125 8.109375,10.828125 8.109375,10.828125 L7.21875,9.75 Z M13.578125,18.671875 L13.578125,16.625 C13.578125,15.046875 13.46875,13.265625 12.5,11.65625 L10.890625,13.21875 L9.984375,12.234375 L3.09375,12.234375 C3.078125,12.5 3,12.796875 2.921875,13.109375 L2.515625,13.109375 C2.546875,12.171875 1.9375,11.140625 1.3125,10.75 C0.890625,10.46875 0.625,10.03125 0.84375,9.59375 C1.078125,9.140625 1.84375,9.21875 2.25,9.546875 C2.6875,9.890625 3.078125,10.578125 3.125,11.5625 L10.125,11.5625 C10.03125,10.9375 9.90625,10.171875 9.796875,9.71875 L10.15625,9.546875 C10.65625,9.984375 11.359375,10.78125 11.734375,11.296875 C12,11.328125 12.1875,11.359375 12.359375,11.40625 C12.125,11.0625 11.875,10.734375 11.5625,10.421875 L11.828125,10.109375 C14.765625,11.921875 15.046875,14.734375 15.046875,16.65625 L15.046875,17.96875 L18.078125,17.96875 L18.078125,12.890625 C18.078125,11.921875 18.234375,11.5625 19.484375,11.5625 L20.546875,11.5625 C22.4375,11.5625 22.984375,11.859375 22.984375,12.453125 C22.984375,12.75 22.890625,12.90625 22.46875,13.078125 L22.390625,15.09375 L22.109375,15.09375 C21.890625,14.234375 21.703125,13.34375 21.546875,13.109375 C21.484375,12.9375 21.40625,12.9375 21.28125,12.90625 C21.171875,12.90625 20.90625,12.90625 20.609375,12.90625 L19.890625,12.90625 C19.578125,12.90625 19.515625,12.984375 19.515625,13.21875 L19.515625,17.765625 C19.96875,17.828125 20.1875,17.953125 20.328125,18.125 L18.671875,19.53125 L17.875,18.671875 L15.34375,18.671875 L13.578125,19.46875 Z M6.75,1.109375 L7.796875,-0.703125 C7.984375,-0.59375 8.1875,-0.359375 8.234375,-0.078125 C10.625,1.25 12.453125,2.40625 13.734375,3.140625 L13.578125,3.5 L9.625,2.0625 L9.625,6.265625 C10.0625,6.34375 10.421875,6.53125 10.5625,6.71875 L8.765625,8.0625 L7.9375,7.21875 L5.296875,7.21875 L3.578125,7.96875 L3.578125,5.453125 C3.578125,3.234375 3.3125,0.703125 1.171875,-1.484375 L1.46875,-1.796875 C4.703125,0.28125 5.046875,3.40625 5.046875,5.46875 L5.046875,6.5 L8.15625,6.5 L8.15625,1.5625 Z M5.71875,20.046875 L5.71875,17.5625 L1.0625,17.5625 L1.25,16.84375 L5.71875,16.84375 L5.71875,14.640625 L2.046875,14.640625 L2.234375,13.9375 L11.046875,13.9375 C11.359375,13.9375 11.59375,14.0625 11.640625,14.328125 C10.921875,15 9.765625,15.90625 9.765625,15.90625 L8.734375,14.640625 L7.21875,14.640625 L7.21875,16.84375 L11.765625,16.84375 C12.09375,16.84375 12.3125,16.96875 12.390625,17.234375 C11.640625,17.921875 10.4375,18.84375 10.4375,18.84375 L9.4375,17.5625 L7.21875,17.5625 L7.21875,19.15625 C7.796875,19.21875 8.0625,19.46875 8.09375,19.796875 Z M19.375,8.78125 C18.84375,6.953125 18.03125,5.25 16.921875,3.71875 C15.671875,5.140625 14.71875,6.8125 14.09375,8.78125 Z M12.09375,9.484375 L12.3125,8.78125 L13.578125,8.78125 C14.140625,6.4375 15,4.4375 16.171875,2.78125 C14.6875,1.03125 12.75,-0.4375 10.3125,-1.53125 L10.53125,-1.890625 C13.21875,-0.984375 15.3125,0.28125 16.921875,1.84375 C18.265625,0.28125 19.96875,-0.9375 22.015625,-1.84375 C22.265625,-1.15625 22.78125,-0.703125 23.421875,-0.640625 L23.46875,-0.40625 C21.28125,0.3125 19.375,1.375 17.828125,2.8125 C19.3125,4.484375 20.359375,6.453125 21.078125,8.59375 C21.59375,8.609375 21.859375,8.6875 22.03125,8.875 L20.296875,10.46875 L19.296875,9.484375 Z" transform="translate(-0.046875, 20.046875) scale(1, -1)"/>
</svg>