<svg height="22.125" viewBox="0 0 24 22.125" width="24" xmlns="http://www.w3.org/2000/svg">
<path d="M11.859375,12.90625 C11.65625,11.609375 11.40625,10.015625 11.109375,8.40625 L6.84375,8.40625 L7.84375,12.90625 Z M1.0625,8.40625 L1.265625,7.6875 L5.09375,7.6875 C4.515625,5.359375 3.90625,2.921875 3.359375,0.953125 C4.203125,0.71875 4.625,0.75 5.015625,0.953125 L5.359375,2.25 L16.3125,2.25 C16.0625,1.265625 15.75,0.59375 15.4375,0.3125 C15.09375,0.046875 14.875,-0.046875 14.375,-0.046875 C13.796875,-0.046875 12.046875,0.140625 11.015625,0.234375 L10.984375,-0.1875 C11.90625,-0.34375 12.90625,-0.578125 13.296875,-0.84375 C13.609375,-1.078125 13.703125,-1.484375 13.703125,-1.9375 C14.859375,-1.96875 15.8125,-1.6875 16.578125,-0.890625 C17.109375,-0.390625 17.5625,0.703125 17.953125,2.25 L22.171875,2.25 C22.484375,2.25 22.75,2.375 22.796875,2.609375 C22.0625,3.359375 20.859375,4.34375 20.859375,4.34375 L19.796875,2.953125 L18.125,2.953125 C18.40625,4.25 18.640625,5.828125 18.84375,7.6875 L22.5625,7.6875 C22.890625,7.6875 23.109375,7.796875 23.1875,8.0625 C22.4375,8.8125 21.234375,9.765625 21.234375,9.765625 L20.15625,8.40625 L18.90625,8.40625 C19.03125,9.71875 19.125,11.140625 19.203125,12.703125 C19.75,12.765625 20.0625,12.890625 20.234375,13.078125 L18.390625,14.640625 L17.453125,13.609375 L8.359375,13.609375 L6.578125,14.375 C6.265625,12.84375 5.78125,10.6875 5.25,8.40625 Z M13.4375,12.90625 L17.65625,12.90625 C17.5625,11.28125 17.46875,9.765625 17.328125,8.40625 L12.671875,8.40625 Z M10.984375,7.6875 C10.703125,5.953125 10.375,4.265625 10.109375,2.953125 L5.515625,2.953125 L6.671875,7.6875 Z M12.546875,7.6875 L17.25,7.6875 C17.046875,5.78125 16.78125,4.171875 16.515625,2.953125 L11.609375,2.953125 C11.90625,4.265625 12.234375,5.953125 12.546875,7.6875 Z M7.25,20.15625 C5.953125,16.75 3.84375,13.65625 1.828125,11.859375 L2.109375,11.5625 C3.953125,12.671875 5.765625,14.328125 7.265625,16.4375 L21.84375,16.4375 C22.171875,16.4375 22.421875,16.5625 22.46875,16.828125 C21.59375,17.609375 20.296875,18.578125 20.296875,18.578125 L19.15625,17.140625 L7.75,17.140625 C8.109375,17.6875 8.453125,18.265625 8.765625,18.859375 C9.28125,18.8125 9.578125,19.03125 9.671875,19.296875 Z" transform="translate(-0.125, 20.15625) scale(1, -1)"/>
</svg>