<svg height="21.3125" viewBox="0 0 24 21.3125" width="24" xmlns="http://www.w3.org/2000/svg">
<path d="M9.09375,16.109375 L8.875,15.84375 C10.296875,15.140625 12.046875,13.734375 12.671875,12.5 C14.515625,11.65625 15.140625,15.40625 9.09375,16.109375 Z M8.375,8.453125 L8.15625,8.203125 C9.703125,7.390625 11.65625,5.828125 12.34375,4.53125 C14.25,3.671875 14.828125,7.5625 8.375,8.453125 Z M17.6875,17.609375 C17.609375,15.03125 17.515625,12.625 17.40625,10.484375 L5.90625,10.484375 C6.28125,13.21875 6.59375,15.796875 6.84375,17.609375 Z M0.71875,10.484375 L0.90625,9.796875 L4.25,9.796875 C3.765625,6.5 3.234375,3.09375 2.71875,0.34375 C3.640625,0.140625 4.03125,0.1875 4.390625,0.453125 L4.65625,1.96875 L16.421875,1.96875 C16.21875,1.265625 16.03125,0.765625 15.796875,0.546875 C15.453125,0.265625 15.265625,0.171875 14.734375,0.171875 C14.140625,0.171875 12.234375,0.390625 11.046875,0.484375 L10.984375,0.046875 C12.078125,-0.125 13.203125,-0.390625 13.609375,-0.671875 C13.984375,-0.9375 14.09375,-1.390625 14.09375,-1.875 C15.390625,-1.875 16.390625,-1.515625 17.15625,-0.59375 C17.546875,-0.140625 17.859375,0.71875 18.125,1.96875 L22.25,1.96875 C22.578125,1.96875 22.828125,2.09375 22.875,2.359375 C22.125,3.078125 20.90625,4.078125 20.90625,4.078125 L19.828125,2.65625 L18.234375,2.65625 C18.578125,4.4375 18.8125,6.859375 18.984375,9.796875 L22.6875,9.796875 C23.046875,9.796875 23.25,9.90625 23.328125,10.171875 C22.5625,10.921875 21.265625,11.96875 21.265625,11.96875 L20.140625,10.484375 L19.03125,10.484375 C19.15625,12.546875 19.21875,14.859375 19.296875,17.375 C19.828125,17.453125 20.140625,17.5625 20.328125,17.78125 L18.40625,19.4375 L17.453125,18.3125 L7.265625,18.3125 L5.46875,19.109375 C5.234375,16.890625 4.828125,13.78125 4.34375,10.484375 Z M17.375,9.796875 C17.1875,6.75 16.921875,4.296875 16.578125,2.65625 L4.75,2.65625 C5.109375,4.84375 5.46875,7.375 5.8125,9.796875 Z" transform="translate(-0.0234375, 19.4375) scale(1, -1)"/>
</svg>