<svg height="21.3125" viewBox="0 0 24 21.3125" width="24" xmlns="http://www.w3.org/2000/svg">
<path d="M11.328125,17.609375 C11.234375,15.703125 11.09375,13.265625 10.890625,10.828125 L6,10.828125 C6.28125,13.4375 6.53125,15.859375 6.671875,17.609375 Z M0.796875,10.828125 L0.984375,10.125 L4.375,10.125 C3.984375,6.75 3.53125,3.1875 3.078125,0.34375 C4.015625,0.171875 4.375,0.234375 4.734375,0.484375 L4.984375,2.40625 L16.65625,2.40625 C16.46875,1.46875 16.265625,0.859375 16.015625,0.59375 C15.71875,0.3125 15.546875,0.21875 15.046875,0.21875 C14.515625,0.21875 12.8125,0.390625 11.734375,0.5 L11.71875,0.078125 C12.703125,-0.125 13.703125,-0.359375 14.0625,-0.671875 C14.40625,-0.9375 14.5,-1.375 14.5,-1.890625 C15.671875,-1.890625 16.65625,-1.515625 17.328125,-0.625 C17.71875,-0.125 18.03125,0.890625 18.265625,2.40625 L21.984375,2.40625 C22.3125,2.40625 22.53125,2.515625 22.609375,2.765625 C21.890625,3.484375 20.640625,4.46875 20.640625,4.46875 L19.578125,3.078125 L18.359375,3.078125 C18.59375,4.84375 18.765625,7.21875 18.890625,10.125 L22.65625,10.125 C22.984375,10.125 23.1875,10.25 23.25,10.515625 C22.515625,11.234375 21.3125,12.234375 21.3125,12.234375 L20.203125,10.828125 L18.90625,10.828125 C18.984375,12.765625 19.03125,14.953125 19.078125,17.375 C19.625,17.46875 19.921875,17.59375 20.09375,17.8125 L18.21875,19.421875 L17.25,18.3125 L7.078125,18.3125 L5.28125,19.109375 C5.109375,16.984375 4.828125,13.984375 4.46875,10.828125 Z M12.84375,17.609375 L17.515625,17.609375 C17.46875,15.125 17.40625,12.84375 17.328125,10.828125 L12.40625,10.828125 C12.578125,13.25 12.75,15.703125 12.84375,17.609375 Z M10.84375,10.125 C10.65625,7.53125 10.4375,4.984375 10.25,3.078125 L5.09375,3.078125 C5.359375,5.25 5.640625,7.75 5.90625,10.125 Z M12.359375,10.125 L17.296875,10.125 C17.1875,7.125 17.015625,4.734375 16.75,3.078125 L11.765625,3.078125 C11.953125,4.984375 12.171875,7.53125 12.359375,10.125 Z" transform="translate(-0.0234375, 19.421875) scale(1, -1)"/>
</svg>