<svg height="21.109375" viewBox="0 0 24 21.109375" width="24" xmlns="http://www.w3.org/2000/svg">
<path d="M18.140625,14.515625 L17.046875,12.765625 L11.765625,12.09375 L11.765625,16.0625 L11.765625,16.484375 C14.515625,17.0625 17.0625,17.71875 19.078125,18.359375 C19.6875,18.125 20.109375,18.140625 20.328125,18.359375 L18.4375,19.984375 C14.78125,18.28125 7.609375,16.3125 1.5625,15.484375 L1.65625,15.03125 C4.46875,15.234375 7.390625,15.671875 10.125,16.171875 L10.125,11.90625 L2.328125,10.921875 L2.609375,10.25 L10.125,11.1875 L10.125,6.8125 L0.8125,5.734375 L1.109375,5.046875 L10.125,6.09375 L10.125,0.984375 C10.125,-0.703125 10.890625,-1.125 13.3125,-1.125 L16.921875,-1.125 C22.109375,-1.125 23.109375,-0.890625 23.109375,-0.03125 C23.109375,0.34375 22.921875,0.5 22.296875,0.703125 L22.21875,4.65625 L21.90625,4.65625 C21.546875,2.8125 21.1875,1.3125 20.953125,0.84375 C20.828125,0.59375 20.65625,0.5 20.328125,0.453125 C19.78125,0.4375 18.625,0.390625 16.96875,0.390625 L13.4375,0.390625 C12,0.390625 11.765625,0.625 11.765625,1.34375 L11.765625,6.28125 L22.703125,7.578125 C23.015625,7.609375 23.25,7.78125 23.28125,8.046875 C22.296875,8.734375 20.65625,9.671875 20.65625,9.671875 L19.53125,7.921875 L11.765625,7.015625 L11.765625,11.40625 L20.109375,12.453125 C20.421875,12.484375 20.65625,12.671875 20.71875,12.9375 C19.734375,13.609375 18.140625,14.515625 18.140625,14.515625 Z" transform="translate(-0.046875, 19.984375) scale(1, -1)"/>
</svg>