<svg height="22.203125" viewBox="0 0 24 22.203125" width="24" xmlns="http://www.w3.org/2000/svg">
<path d="M18.625,20.015625 C15.890625,19.03125 10.921875,17.8125 6.546875,17.09375 L4.421875,17.859375 L4.421875,0.671875 C3.125,0.4375 2.046875,0.234375 1.296875,0.140625 L2.359375,-1.828125 C2.59375,-1.78125 2.8125,-1.5625 2.875,-1.25 C7.6875,0.140625 11.140625,1.265625 13.734375,2.1875 L13.65625,2.5625 L6,0.984375 L6,9.859375 L13.109375,9.859375 C14.046875,5.109375 16.03125,1.203125 19.703125,-0.9375 C20.953125,-1.703125 22.296875,-2.1875 22.78125,-1.4375 C22.984375,-1.125 22.890625,-0.765625 22.21875,-0.046875 L22.5625,3.359375 L22.265625,3.40625 C21.984375,2.46875 21.578125,1.421875 21.3125,0.859375 C21.125,0.4375 20.90625,0.40625 20.46875,0.640625 C17.375,2.203125 15.546875,5.78125 14.640625,9.859375 L22.109375,9.859375 C22.4375,9.859375 22.6875,9.984375 22.75,10.25 C21.890625,11.015625 20.5,12.09375 20.5,12.09375 L19.265625,10.53125 L14.5,10.53125 C14.0625,12.796875 13.875,15.171875 13.921875,17.421875 C15.859375,17.734375 17.6875,18.078125 19.171875,18.390625 C19.78125,18.140625 20.1875,18.140625 20.421875,18.34375 Z M6,10.53125 L6,16.46875 C8.09375,16.609375 10.265625,16.875 12.359375,17.1875 C12.40625,14.875 12.59375,12.625 12.953125,10.53125 Z" transform="translate(-0.140625, 20.015625) scale(1, -1)"/>
</svg>