<svg height="22.34375" viewBox="0 0 24 22.34375" width="24" xmlns="http://www.w3.org/2000/svg">
<path d="M6.546875,14.234375 L6.75,13.53125 L19.921875,13.53125 C20.234375,13.53125 20.46875,13.65625 20.546875,13.921875 C19.75,14.640625 18.453125,15.640625 18.453125,15.640625 L17.328125,14.234375 Z M3.703125,11.09375 L3.90625,10.390625 L17.140625,10.390625 C17.25,5.40625 17.921875,0.625 20.78125,-1.203125 C21.59375,-1.796875 22.65625,-2.15625 23.09375,-1.5625 C23.328125,-1.21875 23.1875,-0.84375 22.703125,-0.1875 L22.9375,2.71875 L22.65625,2.765625 C22.4375,1.984375 22.203125,1.21875 21.953125,0.59375 C21.84375,0.3125 21.75,0.28125 21.453125,0.453125 C19.34375,1.75 18.75,6.484375 18.765625,10.15625 C19.25,10.21875 19.5625,10.375 19.734375,10.515625 L17.8125,12.09375 L16.875,11.09375 Z M7.15625,20.1875 C5.78125,16.171875 3.359375,12.625 0.984375,10.53125 L1.265625,10.25 C3.59375,11.640625 5.765625,13.796875 7.46875,16.5625 L21.59375,16.5625 C21.9375,16.5625 22.171875,16.65625 22.25,16.921875 C21.390625,17.734375 20.046875,18.71875 20.046875,18.71875 L18.859375,17.25 L7.875,17.25 C8.15625,17.765625 8.421875,18.28125 8.6875,18.8125 C9.171875,18.75 9.484375,18.953125 9.59375,19.21875 Z M4.703125,8.328125 L4.46875,7.9375 C6.34375,6.8125 7.984375,5.609375 9.359375,4.390625 C7.15625,2.015625 4.296875,-0.09375 1.0625,-1.5625 L1.25,-1.921875 C4.890625,-0.703125 7.984375,1.25 10.375,3.453125 C12.046875,1.84375 13.21875,0.3125 13.828125,-0.859375 C15.359375,-2.015625 16.65625,0.671875 11.453125,4.53125 C12.625,5.765625 13.578125,7.0625 14.296875,8.328125 C14.90625,8.203125 15.09375,8.296875 15.265625,8.5625 L12.984375,9.671875 C12.3125,8.234375 11.375,6.765625 10.21875,5.40625 C8.78125,6.34375 6.984375,7.3125 4.703125,8.328125 Z" transform="translate(-0.15625, 20.1875) scale(1, -1)"/>
</svg>