<svg height="21.84375" viewBox="0 0 24 21.84375" width="24" xmlns="http://www.w3.org/2000/svg">
<path d="M7.875,20.015625 L7.78125,19.65625 C10.890625,18.71875 13.21875,17.140625 14.109375,16.015625 C15.984375,15.34375 16.34375,19.375 7.875,20.015625 Z M1.375,10.484375 L1.578125,9.8125 L7.46875,9.8125 C6.5,6.09375 4.296875,2.5 0.8125,0.265625 L1.03125,-0.09375 C5.546875,2.109375 7.890625,5.765625 9.125,9.640625 C9.671875,9.671875 9.890625,9.75 10.078125,9.953125 L8.40625,11.453125 L7.390625,10.484375 Z M19.6875,14.28125 C18.625,12.75 16.578125,10.46875 14.71875,8.90625 C13.96875,10.265625 13.375,11.828125 12.953125,13.6875 L12.953125,13.75 C13.46875,13.84375 13.875,14.046875 14.046875,14.25 L11.953125,15.8125 L11.140625,14.8125 L4.875,14.8125 L5.09375,14.09375 L11.375,14.09375 L11.375,0.671875 C11.375,0.28125 11.25,0.09375 10.75,0.09375 C10.171875,0.09375 7.34375,0.34375 7.34375,0.34375 L7.34375,-0.046875 C8.5625,-0.21875 9.234375,-0.40625 9.671875,-0.671875 C10.03125,-0.90625 10.171875,-1.3125 10.25,-1.828125 C12.671875,-1.578125 12.953125,-0.75 12.953125,0.484375 L12.953125,12.21875 C14.46875,5.546875 17.65625,2.296875 21.765625,-0.09375 C21.984375,0.671875 22.515625,1.203125 23.1875,1.296875 L23.25,1.53125 C20.140625,2.859375 17.046875,4.875 14.921875,8.46875 C17.1875,9.71875 19.53125,11.5 20.90625,12.796875 C21.4375,12.625 21.640625,12.71875 21.8125,12.953125 Z" transform="translate(-0.03125, 20.015625) scale(1, -1)"/>
</svg>