<svg height="21.6875" viewBox="0 0 24 21.6875" width="24" xmlns="http://www.w3.org/2000/svg">
<path d="M2.96875,19.6875 L2.765625,19.4375 C3.9375,18.71875 5.359375,17.375 5.8125,16.25 C7.609375,15.3125 8.453125,18.9375 2.96875,19.6875 Z M1.109375,14.5625 L0.859375,14.328125 C1.9375,13.6875 3.1875,12.484375 3.59375,11.40625 C5.359375,10.46875 6.234375,13.984375 1.109375,14.5625 Z M2.5625,4.84375 C2.296875,4.84375 1.484375,4.84375 1.484375,4.84375 L1.484375,4.3125 C1.984375,4.296875 2.375,4.21875 2.65625,4.015625 C3.21875,3.640625 3.359375,1.796875 3.03125,-0.640625 C3.078125,-1.421875 3.359375,-1.84375 3.8125,-1.84375 C4.609375,-1.84375 5.09375,-1.21875 5.140625,-0.1875 C5.203125,1.75 4.53125,2.8125 4.515625,3.90625 C4.515625,4.46875 4.703125,5.234375 4.921875,5.96875 C5.296875,7.15625 7.53125,12.859375 8.71875,15.90625 L8.28125,16.03125 C3.640625,6.21875 3.640625,6.21875 3.1875,5.359375 C2.921875,4.875 2.859375,4.84375 2.5625,4.84375 Z M18.453125,8.546875 C17.6875,6.625 16.53125,4.9375 15.03125,3.484375 C13.375,4.828125 12.09375,6.484375 11.25,8.546875 Z M8.40625,9.21875 L8.609375,8.546875 L10.703125,8.546875 C11.46875,6.140625 12.59375,4.203125 14.09375,2.640625 C11.953125,0.859375 9.265625,-0.5 6.03125,-1.46875 L6.234375,-1.84375 C9.84375,-1.078125 12.703125,0.140625 14.953125,1.796875 C16.78125,0.171875 19.109375,-1.015625 21.890625,-1.796875 C22.125,-0.984375 22.6875,-0.5 23.40625,-0.390625 L23.453125,-0.140625 C20.640625,0.4375 18.140625,1.34375 16.109375,2.71875 C17.875,4.265625 19.25,6.140625 20.234375,8.296875 C20.828125,8.328125 21.09375,8.40625 21.28125,8.609375 L19.53125,10.21875 L18.484375,9.21875 Z M10.921875,18.9375 L10.921875,16.734375 C10.921875,14.453125 10.390625,12 7.296875,10.03125 L7.53125,9.71875 C11.96875,11.59375 12.453125,14.5625 12.453125,16.75 L12.453125,18.234375 L16.828125,18.234375 L16.828125,12.578125 C16.828125,11.546875 17.09375,11.15625 18.53125,11.15625 L20.09375,11.15625 C22.53125,11.15625 23.15625,11.46875 23.15625,12.125 C23.15625,12.40625 23.09375,12.59375 22.625,12.796875 L22.5625,15.765625 L22.25,15.765625 C22.015625,14.5 21.75,13.21875 21.59375,12.859375 C21.5,12.640625 21.453125,12.625 21.265625,12.59375 C21.09375,12.578125 20.65625,12.578125 20.140625,12.578125 L18.9375,12.578125 C18.453125,12.578125 18.390625,12.640625 18.390625,12.90625 L18.390625,18.03125 C18.796875,18.078125 19.0625,18.21875 19.203125,18.34375 L17.46875,19.84375 L16.609375,18.9375 L12.75,18.9375 L10.921875,19.734375 Z" transform="translate(-0.15625, 19.84375) scale(1, -1)"/>
</svg>