<svg height="21.65625" viewBox="0 0 24 21.65625" width="24" xmlns="http://www.w3.org/2000/svg">
<path d="M3.046875,19.828125 L2.828125,19.609375 C3.90625,18.859375 5.234375,17.546875 5.59375,16.421875 C7.421875,15.453125 8.328125,19.03125 3.046875,19.828125 Z M1.109375,14.40625 L0.890625,14.15625 C1.96875,13.53125 3.21875,12.3125 3.625,11.28125 C5.359375,10.3125 6.234375,13.796875 1.109375,14.40625 Z M2.40625,5.109375 C2.15625,5.109375 1.296875,5.109375 1.296875,5.109375 L1.296875,4.578125 C1.828125,4.53125 2.1875,4.46875 2.5,4.21875 C3.046875,3.890625 3.21875,2.0625 2.875,-0.390625 C2.921875,-1.15625 3.1875,-1.609375 3.640625,-1.609375 C4.46875,-1.609375 4.921875,-0.984375 4.96875,0.046875 C5.0625,1.984375 4.375,3.046875 4.375,4.125 C4.375,4.703125 4.53125,5.453125 4.796875,6.171875 C5.203125,7.296875 7.5625,12.859375 8.78125,15.8125 L8.359375,15.953125 C3.53125,6.4375 3.53125,6.4375 3.046875,5.59375 C2.78125,5.109375 2.71875,5.109375 2.40625,5.109375 Z M19.4375,17.609375 L19.4375,10.734375 L11.28125,10.734375 L11.296875,12.046875 L11.296875,17.609375 Z M9.765625,18.28125 L9.765625,12.03125 C9.765625,7.171875 9.21875,2.359375 5.6875,-1.5625 L6.03125,-1.828125 C10.125,1.421875 11.0625,5.953125 11.25,10.03125 L15.34375,10.03125 C16.171875,4.5625 18.1875,0.640625 21.671875,-1.828125 C21.984375,-1.078125 22.515625,-0.625 23.1875,-0.578125 L23.25,-0.359375 C19.53125,1.53125 16.890625,5.1875 15.859375,10.03125 L19.4375,10.03125 L19.4375,8.46875 L19.6875,8.46875 C20.1875,8.46875 20.96875,8.8125 21,8.96875 L21,17.296875 C21.484375,17.40625 21.84375,17.59375 22.015625,17.78125 L20.0625,19.265625 L19.203125,18.28125 L11.609375,18.28125 L9.765625,19.15625 Z" transform="translate(-0.0703125, 19.828125) scale(1, -1)"/>
</svg>