<svg height="21.9375" viewBox="0 0 24 21.9375" width="24" xmlns="http://www.w3.org/2000/svg">
<path d="M2.6875,19.875 L2.46875,19.65625 C3.5,18.90625 4.78125,17.59375 5.15625,16.46875 C6.90625,15.484375 7.890625,19.015625 2.6875,19.875 Z M1.015625,14.453125 L0.796875,14.203125 C1.828125,13.578125 3.03125,12.359375 3.359375,11.328125 C5.046875,10.3125 6.046875,13.703125 1.015625,14.453125 Z M2.359375,4.921875 C2.09375,4.921875 1.265625,4.921875 1.265625,4.921875 L1.265625,4.390625 C1.796875,4.34375 2.140625,4.296875 2.46875,4.078125 C2.96875,3.71875 3.125,1.84375 2.78125,-0.625 C2.828125,-1.390625 3.125,-1.828125 3.546875,-1.828125 C4.34375,-1.828125 4.796875,-1.203125 4.84375,-0.171875 C4.9375,1.796875 4.296875,2.90625 4.25,3.984375 C4.25,4.5625 4.421875,5.296875 4.609375,6.078125 C4.96875,7.25 7.03125,12.9375 8.0625,15.984375 L7.625,16.078125 C3.359375,6.28125 3.359375,6.28125 2.921875,5.421875 C2.6875,4.9375 2.609375,4.921875 2.359375,4.921875 Z M11.40625,20.109375 C10.6875,17.328125 9,13.484375 6.84375,10.96875 L7.109375,10.703125 C7.734375,11.1875 8.328125,11.734375 8.875,12.34375 L8.875,0.59375 C8.875,-0.984375 9.578125,-1.375 12.140625,-1.375 L16.375,-1.375 C22.0625,-1.375 23.109375,-1.171875 23.109375,-0.34375 C23.109375,-0.03125 22.921875,0.140625 22.265625,0.34375 L22.203125,3.671875 L21.90625,3.671875 C21.546875,2.0625 21.234375,0.890625 21.03125,0.453125 C20.90625,0.21875 20.734375,0.125 20.296875,0.09375 C19.75,0.03125 18.28125,0.03125 16.390625,0.03125 L12.21875,0.03125 C10.625,0.03125 10.390625,0.21875 10.390625,0.859375 L10.390625,7.078125 L15.1875,7.078125 L15.1875,6.078125 L15.4375,6.078125 C15.9375,6.078125 16.703125,6.4375 16.734375,6.578125 L16.734375,11.765625 C17.109375,11.859375 17.453125,12.03125 17.5625,12.171875 L15.796875,13.53125 L14.96875,12.671875 L10.703125,12.671875 L9.59375,13.15625 C10.296875,13.984375 10.921875,14.875 11.46875,15.765625 L20.203125,15.765625 C20.09375,9.796875 19.828125,6.28125 19.203125,5.65625 C18.984375,5.453125 18.796875,5.375 18.359375,5.375 C17.875,5.375 16.390625,5.515625 15.484375,5.609375 L15.453125,5.1875 C16.296875,5.0625 17.1875,4.828125 17.5,4.578125 C17.8125,4.34375 17.90625,3.90625 17.90625,3.453125 C18.84375,3.453125 19.734375,3.71875 20.296875,4.375 C21.234375,5.375 21.59375,8.90625 21.71875,15.578125 C22.21875,15.625 22.53125,15.765625 22.703125,15.953125 L20.90625,17.453125 L19.96875,16.484375 L11.875,16.484375 C12.390625,17.328125 12.796875,18.171875 13.109375,18.90625 C13.703125,18.890625 13.875,19.03125 13.984375,19.3125 Z M10.390625,7.78125 L10.390625,11.96875 L15.1875,11.96875 L15.1875,7.78125 Z" transform="translate(0.046875, 20.109375) scale(1, -1)"/>
</svg>