<svg height="21.984375" viewBox="0 0 24 21.984375" width="24" xmlns="http://www.w3.org/2000/svg">
<path d="M2.875,19.65625 L2.65625,19.4375 C3.75,18.703125 5.046875,17.375 5.453125,16.25 C7.21875,15.265625 8.15625,18.859375 2.875,19.65625 Z M1.125,14.421875 L0.90625,14.1875 C1.96875,13.53125 3.234375,12.34375 3.625,11.296875 C5.375,10.34375 6.234375,13.828125 1.125,14.421875 Z M2.5,4.828125 C2.25,4.828125 1.46875,4.828125 1.46875,4.828125 L1.46875,4.3125 C1.984375,4.265625 2.328125,4.203125 2.609375,3.984375 C3.125,3.625 3.265625,1.703125 2.921875,-0.671875 C2.96875,-1.4375 3.265625,-1.875 3.703125,-1.875 C4.515625,-1.875 4.96875,-1.21875 5.015625,-0.21875 C5.109375,1.734375 4.4375,2.828125 4.421875,3.90625 C4.390625,4.484375 4.5625,5.25 4.734375,6 C5.015625,7.15625 6.671875,12.625 7.515625,15.59375 L7.0625,15.703125 C3.453125,6.1875 3.453125,6.1875 3.078125,5.359375 C2.859375,4.84375 2.765625,4.828125 2.5,4.828125 Z M13.75,20.109375 L13.75,15.21875 L7.703125,15.21875 L7.890625,14.515625 L22.109375,14.515625 C22.4375,14.515625 22.65625,14.640625 22.734375,14.90625 C21.9375,15.640625 20.65625,16.6875 20.65625,16.6875 L19.5625,15.21875 L15.359375,15.21875 L15.359375,19.21875 C15.9375,19.296875 16.171875,19.53125 16.21875,19.875 Z M13.75,14.46875 L13.75,8.09375 L7.96875,8.09375 L8.15625,7.375 L13.75,7.375 L13.75,-0.140625 L6.484375,-0.140625 L6.671875,-0.84375 L22.484375,-0.84375 C22.796875,-0.84375 23.046875,-0.75 23.109375,-0.484375 C22.3125,0.28125 21.03125,1.296875 21.03125,1.296875 L19.875,-0.140625 L15.359375,-0.140625 L15.359375,7.375 L21.578125,7.375 C21.90625,7.375 22.15625,7.484375 22.21875,7.75 C21.453125,8.5 20.1875,9.484375 20.1875,9.484375 L19.078125,8.09375 L15.359375,8.09375 L15.359375,13.53125 C15.9375,13.625 16.15625,13.875 16.203125,14.203125 Z" transform="translate(-0.0078125, 20.109375) scale(1, -1)"/>
</svg>