<svg height="21.96875" viewBox="0 0 24 21.96875" width="24" xmlns="http://www.w3.org/2000/svg">
<path d="M11.5,20.09375 L11.25,19.890625 C12.5,18.90625 13.9375,17.1875 14.28125,15.75 C16.171875,14.546875 17.359375,18.625 11.5,20.09375 Z M2.875,19.625 L2.65625,19.421875 C3.75,18.703125 5.046875,17.359375 5.453125,16.21875 C7.21875,15.265625 8.15625,18.859375 2.875,19.625 Z M1.171875,14.453125 L0.953125,14.203125 C2.015625,13.5625 3.28125,12.359375 3.703125,11.296875 C5.421875,10.34375 6.28125,13.84375 1.171875,14.453125 Z M2.546875,4.828125 C2.296875,4.828125 1.484375,4.828125 1.484375,4.828125 L1.484375,4.3125 C2.015625,4.265625 2.359375,4.203125 2.65625,3.984375 C3.1875,3.625 3.34375,1.75 3,-0.671875 C3.046875,-1.4375 3.3125,-1.875 3.796875,-1.875 C4.578125,-1.875 5.0625,-1.25 5.09375,-0.21875 C5.1875,1.734375 4.484375,2.828125 4.484375,3.890625 C4.484375,4.484375 4.625,5.25 4.84375,6 C5.1875,7.171875 7.171875,12.859375 8.203125,15.90625 L7.78125,16.03125 C3.578125,6.1875 3.578125,6.1875 3.140625,5.328125 C2.921875,4.84375 2.828125,4.828125 2.546875,4.828125 Z M6.578125,-0.3125 L6.765625,-1.015625 L22.5625,-1.015625 C22.890625,-1.015625 23.140625,-0.890625 23.1875,-0.640625 C22.390625,0.125 21.09375,1.125 21.09375,1.125 L19.96875,-0.3125 L15.578125,-0.3125 L15.578125,7.265625 L21.625,7.265625 C21.953125,7.265625 22.203125,7.375 22.25,7.625 C21.5,8.375 20.203125,9.359375 20.203125,9.359375 L19.125,7.9375 L15.578125,7.9375 L15.578125,14.1875 L22.21875,14.1875 C22.5625,14.1875 22.828125,14.296875 22.875,14.5625 C22.078125,15.3125 20.8125,16.34375 20.8125,16.34375 L19.65625,14.90625 L7.96875,14.90625 L8.15625,14.1875 L13.984375,14.1875 L13.984375,7.9375 L8.015625,7.9375 L8.203125,7.265625 L13.984375,7.265625 L13.984375,-0.3125 Z" transform="translate(-0.0703125, 20.09375) scale(1, -1)"/>
</svg>