<svg height="21.828125" viewBox="0 0 24 21.828125" width="24" xmlns="http://www.w3.org/2000/svg">
<path d="M2.28125,4.921875 C2.015625,4.921875 1.203125,4.921875 1.203125,4.921875 L1.203125,4.390625 C1.734375,4.34375 2.0625,4.265625 2.40625,4.0625 C2.90625,3.71875 3.046875,1.796875 2.71875,-0.671875 C2.765625,-1.4375 3.046875,-1.875 3.484375,-1.875 C4.265625,-1.875 4.734375,-1.25 4.78125,-0.21875 C4.875,1.75 4.203125,2.875 4.171875,3.953125 C4.171875,4.53125 4.3125,5.296875 4.515625,6.03125 C4.875,7.171875 6.796875,12.671875 7.796875,15.625 L7.34375,15.75 C3.265625,6.265625 3.265625,6.265625 2.859375,5.421875 C2.609375,4.9375 2.546875,4.921875 2.28125,4.921875 Z M2.734375,19.9375 L2.515625,19.75 C3.546875,19.03125 4.796875,17.734375 5.234375,16.625 C6.953125,15.703125 7.890625,19.125 2.734375,19.9375 Z M1.0625,14.5625 L0.859375,14.359375 C1.828125,13.703125 2.953125,12.53125 3.265625,11.515625 C4.9375,10.515625 6,13.890625 1.0625,14.5625 Z M21.1875,10.828125 C20.5,9.90625 19.3125,8.640625 18.265625,7.625 C17.765625,9.3125 17.375,11.109375 17.140625,12.90625 C18.53125,13.125 19.828125,13.375 20.90625,13.609375 C21.484375,13.421875 21.890625,13.421875 22.109375,13.609375 L20.328125,15.234375 C18.046875,14.328125 13.75,13.265625 10.03125,12.703125 L10.03125,16.6875 C13.875,16.96875 17.96875,17.640625 20.734375,18.234375 C21.3125,18.046875 21.71875,18.046875 21.953125,18.234375 L20.140625,19.890625 C17.96875,19.015625 14.0625,17.96875 10.53125,17.328125 L10.5625,17.359375 L8.546875,18.140625 L8.546875,11.328125 C8.546875,6.8125 8.0625,2.25 4.96875,-1.53125 L5.296875,-1.828125 C9.625,1.84375 10.03125,7.125 10.03125,11.328125 L10.03125,12.171875 C11.015625,12.21875 12.03125,12.3125 13.03125,12.40625 L13.03125,-1.65625 L13.25,-1.65625 C13.96875,-1.65625 14.5,-1.296875 14.5,-1.171875 L14.5,12.546875 L16.6875,12.84375 C17.234375,6.3125 18.5,1.125 21.984375,-1.890625 C22.21875,-1.125 22.75,-0.640625 23.296875,-0.5 L23.359375,-0.265625 C21.078125,1.171875 19.515625,3.859375 18.453125,7.03125 C19.796875,7.78125 21.4375,8.734375 22.296875,9.484375 C22.6875,9.359375 22.9375,9.390625 23.09375,9.59375 Z" transform="translate(-0.109375, 19.9375) scale(1, -1)"/>
</svg>