<svg height="21.984375" viewBox="0 0 24 21.984375" width="24" xmlns="http://www.w3.org/2000/svg">
<path d="M2.296875,4.921875 C2.046875,4.921875 1.21875,4.921875 1.21875,4.921875 L1.21875,4.390625 C1.734375,4.34375 2.09375,4.265625 2.40625,4.0625 C2.921875,3.71875 3.078125,1.796875 2.734375,-0.671875 C2.78125,-1.4375 3.078125,-1.875 3.5,-1.875 C4.296875,-1.875 4.75,-1.25 4.796875,-0.21875 C4.890625,1.75 4.21875,2.875 4.203125,3.953125 C4.203125,4.53125 4.34375,5.296875 4.53125,6.03125 C4.890625,7.171875 6.859375,12.703125 7.875,15.671875 L7.421875,15.765625 C3.28125,6.265625 3.28125,6.265625 2.875,5.421875 C2.640625,4.9375 2.5625,4.921875 2.296875,4.921875 Z M2.6875,19.9375 L2.453125,19.75 C3.484375,19.03125 4.75,17.734375 5.15625,16.65625 C6.90625,15.71875 7.84375,19.125 2.6875,19.9375 Z M1.0625,14.59375 L0.84375,14.375 C1.828125,13.734375 2.953125,12.546875 3.265625,11.546875 C4.9375,10.53125 5.96875,13.921875 1.0625,14.59375 Z M19.9375,20.109375 C17.90625,19.171875 14.140625,18.09375 10.6875,17.46875 L8.6875,18.21875 L8.6875,11.875 C8.6875,7.390625 8.328125,2.515625 5.5625,-1.484375 L5.921875,-1.78125 C9.84375,2.15625 10.171875,7.734375 10.171875,11.859375 L10.171875,16.875 C13.921875,17.109375 17.953125,17.828125 20.5625,18.5 C21.140625,18.28125 21.546875,18.28125 21.765625,18.5 Z M9.640625,0.03125 L10.46875,-1.875 C10.6875,-1.78125 10.890625,-1.578125 10.96875,-1.296875 C14.09375,-0.03125 16.484375,1.0625 18.21875,1.828125 L18.125,2.1875 L13.796875,1.03125 L13.796875,12.28125 C14.640625,12.4375 15.5,12.625 16.34375,12.84375 C16.984375,6.34375 18.40625,1.171875 22.03125,-1.796875 C22.296875,-1.0625 22.78125,-0.59375 23.359375,-0.484375 L23.40625,-0.265625 C20.96875,1.203125 19.296875,3.953125 18.1875,7.171875 C19.65625,7.921875 21.3125,8.921875 22.21875,9.765625 C22.609375,9.625 22.890625,9.671875 22.984375,9.890625 L21.046875,11.015625 C20.359375,10.03125 19.125,8.734375 18,7.75 C17.46875,9.40625 17.09375,11.1875 16.828125,12.984375 C18.4375,13.421875 19.9375,13.9375 21.03125,14.421875 C21.578125,14.28125 21.984375,14.28125 22.171875,14.515625 L20.25,15.9375 C18.984375,15.03125 16.5625,13.796875 14.28125,12.984375 L12.3125,13.6875 L12.3125,0.640625 C11.15625,0.359375 10.21875,0.140625 9.640625,0.03125 Z" transform="translate(-0.125, 20.109375) scale(1, -1)"/>
</svg>