<svg height="22.015625" viewBox="0 0 24 22.015625" width="24" xmlns="http://www.w3.org/2000/svg">
<path d="M3.28125,19.890625 L3.078125,19.703125 C4.125,18.984375 5.421875,17.65625 5.8125,16.5625 C7.578125,15.578125 8.515625,19.15625 3.28125,19.890625 Z M1.125,14.734375 L0.890625,14.5 C1.9375,13.84375 3.171875,12.671875 3.546875,11.640625 C5.25,10.65625 6.1875,14.09375 1.125,14.734375 Z M2.421875,4.84375 C2.1875,4.84375 1.390625,4.84375 1.390625,4.84375 L1.390625,4.3125 C1.890625,4.296875 2.25,4.21875 2.546875,4.015625 C3.078125,3.640625 3.21875,1.78125 2.875,-0.671875 C2.953125,-1.421875 3.21875,-1.84375 3.671875,-1.84375 C4.46875,-1.84375 4.921875,-1.21875 4.96875,-0.21875 C5.0625,1.75 4.375,2.828125 4.375,3.90625 C4.34375,4.484375 4.515625,5.25 4.734375,6.03125 C5.0625,7.171875 7.0625,12.859375 8.0625,15.90625 L7.609375,16.03125 C3.453125,6.21875 3.453125,6.21875 3.03125,5.359375 C2.8125,4.875 2.71875,4.84375 2.421875,4.84375 Z M11.96875,20.140625 C10.78125,16.796875 8.828125,13.578125 7.03125,11.59375 L7.375,11.328125 C7.9375,11.765625 8.5,12.265625 9.078125,12.8125 L13.53125,12.8125 L13.53125,9.640625 L6.390625,9.640625 L6.578125,8.953125 L13.53125,8.953125 L13.53125,5.609375 L7.5625,5.609375 L7.78125,4.921875 L13.53125,4.921875 L13.53125,0.53125 C13.53125,0.171875 13.421875,0.046875 12.953125,0.046875 C12.4375,0.046875 9.8125,0.234375 9.8125,0.234375 L9.8125,-0.140625 C10.9375,-0.265625 11.609375,-0.453125 12,-0.71875 C12.3125,-0.984375 12.484375,-1.421875 12.53125,-1.875 C14.78125,-1.65625 15.09375,-0.75 15.09375,0.484375 L15.09375,4.921875 L19.296875,4.921875 L19.296875,3.59375 L19.515625,3.59375 C19.984375,3.59375 20.78125,3.90625 20.8125,4.0625 L20.8125,8.953125 L23.0625,8.953125 C23.375,8.953125 23.59375,9.078125 23.65625,9.34375 C23.09375,10.0625 22.03125,11.09375 22.03125,11.09375 L21.140625,9.640625 L20.8125,9.640625 L20.8125,12.5 C21.28125,12.59375 21.671875,12.796875 21.84375,13.015625 L19.890625,14.5 L19.0625,13.53125 L15.640625,13.53125 C16.703125,14.46875 17.78125,15.859375 18.5,16.75 C18.984375,16.796875 19.265625,16.828125 19.4375,16.984375 L17.640625,18.671875 L16.625,17.65625 L12.765625,17.65625 L13.46875,18.9375 C13.984375,18.890625 14.28125,19.125 14.375,19.390625 Z M15.09375,8.953125 L19.296875,8.953125 L19.296875,5.609375 L15.09375,5.609375 Z M15.09375,9.640625 L15.09375,12.8125 L19.296875,12.8125 L19.296875,9.640625 Z M13.53125,13.53125 L9.75,13.53125 C10.6875,14.546875 11.546875,15.671875 12.34375,16.9375 L16.625,16.9375 C16.21875,15.90625 15.625,14.5 15.03125,13.53125 Z" transform="translate(-0.2734375, 20.140625) scale(1, -1)"/>
</svg>