<svg height="21.78125" viewBox="0 0 24 21.78125" width="24" xmlns="http://www.w3.org/2000/svg">
<path d="M2.921875,19.828125 L2.71875,19.609375 C3.796875,18.890625 5.09375,17.5625 5.46875,16.4375 C7.25,15.484375 8.15625,19.0625 2.921875,19.828125 Z M1.109375,14.546875 L0.890625,14.296875 C1.921875,13.65625 3.140625,12.484375 3.53125,11.421875 C5.25,10.46875 6.171875,13.890625 1.109375,14.546875 Z M2.25,4.875 C1.984375,4.875 1.15625,4.875 1.15625,4.875 L1.15625,4.34375 C1.6875,4.3125 2.046875,4.25 2.359375,4.03125 C2.875,3.671875 3,1.796875 2.6875,-0.640625 C2.734375,-1.421875 3.03125,-1.84375 3.453125,-1.84375 C4.265625,-1.84375 4.734375,-1.21875 4.78125,-0.1875 C4.84375,1.75 4.203125,2.859375 4.171875,3.9375 C4.15625,4.515625 4.3125,5.25 4.53125,5.96875 C4.875,7.125 6.90625,12.625 7.921875,15.546875 L7.46875,15.671875 C3.28125,6.21875 3.28125,6.21875 2.828125,5.375 C2.59375,4.890625 2.515625,4.875 2.25,4.875 Z M10.078125,19.34375 C9.765625,16.9375 8.921875,13.5625 7.609375,11.140625 L7.875,10.84375 C8.8125,11.921875 9.640625,13.21875 10.3125,14.546875 L14.328125,14.546875 L14.328125,10.25 L6.625,10.25 L6.8125,9.546875 L22.625,9.546875 C22.9375,9.546875 23.1875,9.671875 23.25,9.9375 C22.484375,10.65625 21.21875,11.6875 21.21875,11.6875 L20.09375,10.25 L15.859375,10.25 L15.859375,14.546875 L21.9375,14.546875 C22.265625,14.546875 22.484375,14.65625 22.5625,14.921875 C21.796875,15.640625 20.546875,16.6875 20.546875,16.6875 L19.4375,15.234375 L15.859375,15.234375 L15.859375,19.015625 C16.46875,19.109375 16.703125,19.34375 16.75,19.6875 L14.328125,19.9375 L14.328125,15.234375 L10.65625,15.234375 C11.140625,16.296875 11.515625,17.328125 11.78125,18.234375 C12.234375,18.1875 12.484375,18.28125 12.546875,18.53125 Z M9.3125,6.75 L9.3125,-1.84375 L9.546875,-1.84375 C10.34375,-1.84375 10.828125,-1.515625 10.828125,-1.375 L10.828125,-0.171875 L19.390625,-0.171875 L19.390625,-1.734375 L19.625,-1.734375 C20.359375,-1.734375 20.953125,-1.390625 20.953125,-1.296875 L20.953125,5.921875 C21.4375,6 21.703125,6.140625 21.8125,6.3125 L20.09375,7.65625 L19.3125,6.75 L11.09375,6.75 L9.3125,7.484375 Z M10.828125,0.53125 L10.828125,6.03125 L19.390625,6.03125 L19.390625,0.53125 Z" transform="translate(-0.0703125, 19.9375) scale(1, -1)"/>
</svg>