<svg height="21.96875" viewBox="0 0 24 21.96875" width="24" xmlns="http://www.w3.org/2000/svg">
<path d="M2.96875,19.875 L2.734375,19.65625 C3.75,18.9375 4.96875,17.609375 5.359375,16.53125 C7.078125,15.53125 8.09375,18.90625 2.96875,19.875 Z M1.125,14.359375 L0.890625,14.140625 C1.921875,13.46875 3.09375,12.21875 3.453125,11.15625 C5.140625,10.15625 6.140625,13.5625 1.125,14.359375 Z M2.359375,4.921875 C2.109375,4.921875 1.3125,4.921875 1.3125,4.921875 L1.3125,4.390625 C1.828125,4.34375 2.1875,4.265625 2.46875,4.0625 C3.03125,3.71875 3.140625,1.796875 2.8125,-0.671875 C2.859375,-1.421875 3.140625,-1.875 3.578125,-1.875 C4.34375,-1.875 4.796875,-1.25 4.84375,-0.21875 C4.9375,1.75 4.25,2.875 4.25,3.953125 C4.25,4.53125 4.390625,5.296875 4.609375,6.03125 C4.9375,7.15625 6.859375,12.640625 7.875,15.59375 L7.390625,15.71875 C3.359375,6.265625 3.359375,6.265625 2.953125,5.421875 C2.734375,4.9375 2.640625,4.921875 2.359375,4.921875 Z M14.515625,12.71875 C14.40625,11.453125 14.203125,9.890625 14.015625,8.328125 L10.703125,8.328125 L11.40625,12.71875 Z M15.90625,12.71875 L19.15625,12.71875 C19.109375,11.109375 19.03125,9.640625 18.9375,8.328125 L15.453125,8.328125 Z M5.96875,8.328125 L6.171875,7.625 L9.03125,7.625 C8.59375,5.15625 8.109375,2.5625 7.65625,0.484375 C8.515625,0.28125 8.921875,0.34375 9.3125,0.546875 L9.671875,2.359375 L18.265625,2.359375 C18.046875,1.296875 17.78125,0.625 17.5,0.359375 C17.234375,0.125 17.015625,0.03125 16.53125,0.03125 C16.03125,0.03125 14.375,0.21875 13.390625,0.28125 L13.375,-0.140625 C14.25,-0.28125 15.21875,-0.484375 15.578125,-0.765625 C15.890625,-1.015625 15.984375,-1.390625 15.984375,-1.84375 C17.015625,-1.84375 17.96875,-1.53125 18.625,-0.796875 C19.109375,-0.28125 19.484375,0.75 19.78125,2.359375 L22.75,2.359375 C23.09375,2.359375 23.328125,2.46875 23.375,2.71875 C22.6875,3.484375 21.453125,4.515625 21.453125,4.515625 L20.421875,3.046875 L19.890625,3.046875 C20.09375,4.296875 20.25,5.828125 20.375,7.625 L23.015625,7.625 C23.328125,7.625 23.546875,7.75 23.609375,8.015625 C22.921875,8.71875 21.75,9.703125 21.75,9.703125 L20.71875,8.328125 L20.421875,8.328125 C20.5,9.59375 20.546875,11.015625 20.59375,12.53125 C21.140625,12.59375 21.4375,12.71875 21.578125,12.90625 L19.796875,14.421875 L18.90625,13.4375 L11.828125,13.4375 L10.078125,14.25 C9.859375,12.71875 9.53125,10.578125 9.140625,8.328125 Z M11.0625,20.09375 C10.171875,16.78125 8.5625,13.625 6.9375,11.6875 L7.25,11.421875 C8.6875,12.53125 10.015625,14.09375 11.109375,15.9375 L22.3125,15.9375 C22.6875,15.9375 22.921875,16.0625 22.96875,16.3125 C22.203125,17.046875 20.953125,18.046875 20.953125,18.046875 L19.828125,16.65625 L11.515625,16.65625 C11.90625,17.359375 12.234375,18.078125 12.546875,18.84375 C13.078125,18.796875 13.375,19.015625 13.46875,19.265625 Z M13.921875,7.625 C13.703125,5.953125 13.484375,4.3125 13.296875,3.046875 L9.796875,3.046875 L10.578125,7.625 Z M15.390625,7.625 L18.890625,7.625 C18.75,5.78125 18.59375,4.25 18.390625,3.046875 L14.8125,3.046875 C15,4.3125 15.1875,5.953125 15.390625,7.625 Z" transform="translate(-0.25, 20.09375) scale(1, -1)"/>
</svg>