<svg height="22.03125" viewBox="0 0 24 22.03125" width="24" xmlns="http://www.w3.org/2000/svg">
<path d="M17.859375,18.34375 L17.59375,18.140625 C18.984375,16.828125 20.859375,14.59375 21.359375,12.9375 C23.15625,11.6875 24.28125,15.59375 17.859375,18.34375 Z M11.203125,18.546875 C10.375,16.15625 9.046875,13.828125 7.828125,12.390625 L8.1875,12.125 C9.796875,13.296875 11.453125,15.09375 12.640625,17.203125 C13.15625,17.140625 13.4375,17.328125 13.5625,17.59375 Z M2.78125,19.78125 L2.5625,19.53125 C3.71875,18.765625 5.09375,17.40625 5.5,16.21875 C7.296875,15.1875 8.28125,18.796875 2.78125,19.78125 Z M1.109375,14.15625 L0.890625,13.9375 C1.921875,13.25 3.140625,12.03125 3.546875,10.9375 C5.28125,9.984375 6.265625,13.46875 1.109375,14.15625 Z M2.359375,4.734375 C2.09375,4.734375 1.25,4.734375 1.25,4.734375 L1.25,4.203125 C1.75,4.15625 2.140625,4.109375 2.46875,3.859375 C3,3.53125 3.140625,1.703125 2.8125,-0.75 C2.875,-1.484375 3.171875,-1.9375 3.59375,-1.9375 C4.4375,-1.9375 4.921875,-1.296875 4.96875,-0.28125 C5.0625,1.65625 4.375,2.71875 4.375,3.765625 C4.34375,4.34375 4.53125,5.09375 4.78125,5.828125 C5.15625,6.984375 7.5625,12.71875 8.765625,15.765625 L8.328125,15.890625 C3.484375,6.046875 3.484375,6.046875 3,5.203125 C2.734375,4.75 2.640625,4.734375 2.359375,4.734375 Z M9.765625,12.4375 L9.765625,-1.875 L10.03125,-1.875 C10.703125,-1.875 11.296875,-1.484375 11.296875,-1.296875 L11.296875,4.015625 L19.4375,4.015625 L19.4375,0.59375 C19.4375,0.234375 19.3125,0.125 18.9375,0.125 C18.453125,0.125 16.296875,0.28125 16.296875,0.28125 L16.296875,-0.09375 C17.234375,-0.234375 17.78125,-0.4375 18.125,-0.671875 C18.40625,-0.9375 18.53125,-1.375 18.59375,-1.875 C20.734375,-1.65625 20.96875,-0.84375 20.96875,0.40625 L20.96875,11.421875 C21.453125,11.515625 21.84375,11.734375 22.015625,11.921875 L19.984375,13.421875 L19.203125,12.4375 L16.125,12.4375 L16.125,19.171875 C16.703125,19.265625 16.96875,19.515625 16.984375,19.84375 L14.5625,20.09375 L14.5625,12.4375 L11.421875,12.4375 L9.765625,13.21875 Z M19.4375,7.875 L19.4375,4.703125 L11.296875,4.703125 L11.296875,7.875 Z M19.4375,8.59375 L11.296875,8.59375 L11.296875,11.734375 L19.4375,11.734375 Z" transform="translate(-0.5859375, 20.09375) scale(1, -1)"/>
</svg>