<svg height="22" viewBox="0 0 24 22" width="24" xmlns="http://www.w3.org/2000/svg">
<path d="M3,4.890625 C2.734375,4.890625 1.921875,4.890625 1.921875,4.890625 L1.921875,4.375 C2.421875,4.3125 2.8125,4.265625 3.125,4.0625 C3.671875,3.703125 3.796875,1.796875 3.453125,-0.640625 C3.53125,-1.421875 3.8125,-1.84375 4.25,-1.84375 C5.09375,-1.84375 5.5625,-1.203125 5.609375,-0.171875 C5.6875,1.796875 4.984375,2.859375 4.984375,3.9375 C4.96875,4.53125 5.140625,5.296875 5.375,6.046875 C5.734375,7.21875 7.890625,12.953125 8.96875,16.015625 L8.5625,16.125 C4.078125,6.265625 4.078125,6.265625 3.625,5.40625 C3.390625,4.921875 3.28125,4.890625 3,4.890625 Z M1.265625,14.5 L1.0625,14.28125 C2.09375,13.609375 3.359375,12.40625 3.75,11.359375 C5.5,10.390625 6.4375,13.921875 1.265625,14.5 Z M3.171875,19.75 L2.953125,19.515625 C4.078125,18.8125 5.46875,17.453125 5.90625,16.296875 C7.703125,15.3125 8.640625,18.9375 3.171875,19.75 Z M22.296875,17.96875 L20.0625,19.125 C19.65625,17.734375 18.71875,15.390625 17.828125,13.796875 L18.125,13.515625 C19.421875,14.828125 20.640625,16.53125 21.390625,17.71875 C21.9375,17.609375 22.15625,17.71875 22.296875,17.96875 Z M9.125,18.71875 L8.828125,18.53125 C9.984375,17.421875 11.375,15.53125 11.6875,14.0625 C13.265625,12.859375 14.46875,16.421875 9.125,18.71875 Z M19.796875,4.828125 L10.828125,4.828125 L10.828125,8.015625 L19.796875,8.015625 Z M10.828125,-1.265625 L10.828125,4.109375 L19.796875,4.109375 L19.796875,0.53125 C19.796875,0.171875 19.6875,0.046875 19.25,0.046875 C18.796875,0.046875 16.625,0.1875 16.625,0.1875 L16.625,-0.1875 C17.609375,-0.3125 18.140625,-0.5 18.5,-0.75 C18.796875,-1.015625 18.90625,-1.4375 18.953125,-1.890625 C21.078125,-1.703125 21.328125,-0.9375 21.328125,0.359375 L21.328125,11.6875 C21.8125,11.765625 22.21875,11.96875 22.390625,12.140625 L20.375,13.65625 L19.5625,12.671875 L16.125,12.671875 L16.125,19.25 C16.65625,19.34375 16.875,19.5625 16.921875,19.875 L14.59375,20.109375 L14.59375,12.671875 L10.96875,12.671875 L9.3125,13.46875 L9.3125,-1.84375 L9.546875,-1.84375 C10.25,-1.84375 10.828125,-1.46875 10.828125,-1.265625 Z M19.796875,8.71875 L10.828125,8.71875 L10.828125,11.96875 L19.796875,11.96875 Z" transform="translate(0.2734375, 20.109375) scale(1, -1)"/>
</svg>