<svg height="21.953125" viewBox="0 0 24 21.953125" width="24" xmlns="http://www.w3.org/2000/svg">
<path d="M2.609375,19.828125 L2.421875,19.609375 C3.453125,18.890625 4.75,17.5625 5.140625,16.46875 C6.90625,15.484375 7.84375,19.0625 2.609375,19.828125 Z M1.015625,14.65625 L0.796875,14.421875 C1.828125,13.78125 3.046875,12.59375 3.4375,11.5625 C5.15625,10.578125 6.09375,14.015625 1.015625,14.65625 Z M2.40625,4.84375 C2.140625,4.84375 1.3125,4.84375 1.3125,4.84375 L1.3125,4.3125 C1.84375,4.296875 2.1875,4.21875 2.5,4.015625 C3,3.640625 3.171875,1.78125 2.828125,-0.671875 C2.875,-1.421875 3.140625,-1.84375 3.59375,-1.84375 C4.390625,-1.84375 4.875,-1.25 4.921875,-0.21875 C4.984375,1.75 4.3125,2.828125 4.3125,3.90625 C4.3125,4.484375 4.4375,5.25 4.65625,5.96875 C4.984375,7.125 6.9375,12.59375 7.921875,15.53125 L7.46875,15.640625 C3.40625,6.1875 3.40625,6.1875 2.96875,5.359375 C2.734375,4.875 2.640625,4.84375 2.40625,4.84375 Z M16.03125,8.515625 L16.03125,0.09375 C16.03125,-1.015625 16.3125,-1.421875 17.90625,-1.421875 L19.703125,-1.421875 C22.515625,-1.421875 23.203125,-1.109375 23.203125,-0.453125 C23.203125,-0.125 23.109375,0.078125 22.578125,0.234375 L22.515625,3.125 L22.21875,3.125 C21.984375,1.921875 21.71875,0.640625 21.578125,0.3125 C21.484375,0.125 21.390625,0.078125 21.1875,0.078125 C20.96875,0.046875 20.453125,0.03125 19.75,0.03125 L18.265625,0.03125 C17.640625,0.03125 17.5625,0.125 17.5625,0.484375 L17.5625,7.6875 C18,7.75 18.234375,7.96875 18.265625,8.28125 Z M11.5625,8.453125 C11.734375,4.3125 10.78125,0.578125 5.609375,-1.5625 L5.78125,-1.890625 C11.859375,-0.046875 13.078125,3.53125 13.3125,7.484375 C13.828125,7.53125 14.09375,7.734375 14.15625,8.140625 Z M14.015625,20.0625 L14.015625,17.328125 L7.625,17.328125 L7.828125,16.625 L14.015625,16.625 L14.015625,13.875 L8.46875,13.875 L8.65625,13.171875 L21.671875,13.171875 C22.015625,13.171875 22.21875,13.296875 22.296875,13.5625 C21.53125,14.28125 20.28125,15.28125 20.28125,15.28125 L19.203125,13.875 L15.546875,13.875 L15.546875,16.625 L22.3125,16.625 C22.65625,16.625 22.890625,16.734375 22.96875,16.984375 C22.203125,17.734375 20.953125,18.71875 20.953125,18.71875 L19.828125,17.328125 L15.546875,17.328125 L15.546875,19.171875 C16.15625,19.25 16.390625,19.484375 16.4375,19.828125 Z M9.03125,11.921875 C8.859375,10.25 8.046875,9.1875 7.125,8.765625 C5.78125,7.0625 9.546875,6.140625 9.59375,10.15625 L20.46875,10.15625 L19.796875,7.703125 L20.140625,7.5625 C20.71875,8.15625 21.703125,9.234375 22.25,9.890625 C22.703125,9.90625 22.96875,9.9375 23.140625,10.109375 L21.359375,11.859375 L20.375,10.84375 L9.546875,10.84375 C9.53125,11.1875 9.484375,11.515625 9.40625,11.90625 Z" transform="translate(0, 20.0625) scale(1, -1)"/>
</svg>