<svg height="21.8125" viewBox="0 0 24 21.8125" width="24" xmlns="http://www.w3.org/2000/svg">
<path d="M7.65625,18.265625 L7.84375,17.546875 L22.421875,17.546875 C22.75,17.546875 22.984375,17.65625 23.046875,17.921875 C22.265625,18.640625 21,19.65625 21,19.65625 L19.84375,18.265625 Z M2.375,4.9375 C2.109375,4.9375 1.3125,4.9375 1.3125,4.9375 L1.3125,4.421875 C1.828125,4.375 2.1875,4.296875 2.5,4.078125 C3.03125,3.71875 3.140625,1.796875 2.8125,-0.671875 C2.859375,-1.421875 3.140625,-1.84375 3.578125,-1.84375 C4.375,-1.84375 4.828125,-1.21875 4.875,-0.1875 C4.96875,1.78125 4.296875,2.90625 4.296875,3.984375 C4.296875,4.5625 4.421875,5.328125 4.609375,6.078125 C4.96875,7.21875 6.859375,12.765625 7.84375,15.765625 L7.421875,15.859375 C3.359375,6.28125 3.359375,6.28125 2.953125,5.453125 C2.734375,4.96875 2.640625,4.9375 2.375,4.9375 Z M2.71875,19.890625 L2.5,19.6875 C3.53125,18.953125 4.78125,17.65625 5.203125,16.609375 C6.9375,15.640625 7.890625,19.0625 2.71875,19.890625 Z M1.109375,14.515625 L0.859375,14.296875 C1.875,13.65625 3,12.484375 3.3125,11.46875 C4.984375,10.46875 6.03125,13.828125 1.109375,14.515625 Z M10.5625,14.25 L19.921875,14.25 L19.921875,10.921875 L10.5625,10.921875 Z M14.71875,9.59375 C14.6875,8.40625 14.640625,7.296875 14.515625,6.28125 L10.34375,6.28125 C10.515625,7.578125 10.5625,8.859375 10.5625,10.015625 L10.5625,10.21875 L19.921875,10.21875 L19.921875,9.09375 L20.15625,9.09375 C20.640625,9.09375 21.4375,9.4375 21.453125,9.578125 L21.453125,13.984375 C21.890625,14.0625 22.265625,14.28125 22.421875,14.453125 L20.515625,15.859375 L19.6875,14.953125 L10.84375,14.953125 L9.046875,15.75 L9.046875,9.984375 C9.046875,6 8.640625,1.890625 5.734375,-1.421875 L6.046875,-1.703125 C8.65625,0.34375 9.765625,3 10.21875,5.609375 L14.453125,5.609375 C13.96875,2.59375 12.640625,0.4375 8.59375,-1.390625 L8.828125,-1.875 C14.015625,-0.03125 15.4375,2.359375 15.9375,5.609375 L16.078125,5.609375 C17.0625,1.984375 18.859375,-0.5 21.75,-1.921875 C21.9375,-1.078125 22.4375,-0.578125 23.109375,-0.4375 L23.140625,-0.1875 C20.203125,0.671875 17.8125,2.828125 16.578125,5.609375 L22.203125,5.609375 C22.5625,5.609375 22.78125,5.71875 22.84375,5.96875 C22.078125,6.71875 20.8125,7.703125 20.8125,7.703125 L19.703125,6.28125 L16.03125,6.28125 C16.125,7.0625 16.171875,7.875 16.21875,8.734375 C16.75,8.8125 16.984375,9.046875 17.046875,9.359375 Z" transform="translate(0, 19.890625) scale(1, -1)"/>
</svg>