<svg height="21.984375" viewBox="0 0 24 21.984375" width="24" xmlns="http://www.w3.org/2000/svg">
<path d="M2.28125,4.921875 C2.015625,4.921875 1.203125,4.921875 1.203125,4.921875 L1.203125,4.390625 C1.703125,4.34375 2.0625,4.296875 2.40625,4.078125 C2.90625,3.71875 3.046875,1.796875 2.71875,-0.671875 C2.765625,-1.421875 3.046875,-1.875 3.484375,-1.875 C4.296875,-1.875 4.734375,-1.25 4.78125,-0.21875 C4.875,1.75 4.203125,2.875 4.171875,3.984375 C4.171875,4.53125 4.3125,5.296875 4.53125,6.046875 C4.875,7.203125 6.84375,12.765625 7.84375,15.75 L7.390625,15.859375 C3.28125,6.28125 3.28125,6.28125 2.859375,5.421875 C2.609375,4.9375 2.546875,4.921875 2.28125,4.921875 Z M2.453125,19.75 L2.203125,19.53125 C3.234375,18.8125 4.484375,17.515625 4.921875,16.46875 C6.640625,15.5 7.609375,18.90625 2.453125,19.75 Z M1.03125,14.328125 L0.8125,14.109375 C1.796875,13.46875 2.90625,12.28125 3.234375,11.28125 C4.921875,10.265625 5.953125,13.625 1.03125,14.328125 Z M13.46875,16.796875 L13.171875,16.65625 C13.890625,15.84375 14.59375,14.46875 14.59375,13.34375 C15.9375,12.046875 17.546875,15.046875 13.46875,16.796875 Z M18.21875,17.09375 L17.953125,16.84375 C19.3125,15.953125 20.859375,14.296875 21.1875,12.859375 C22.890625,11.78125 23.828125,15.640625 18.21875,17.09375 Z M18.9375,7.734375 L18.9375,4.734375 L15.21875,4.734375 L15.21875,7.734375 Z M8.375,4.734375 L8.59375,4.0625 L13.6875,4.0625 L13.6875,0.5 C13.6875,0.140625 13.5625,0.03125 13.109375,0.03125 C12.578125,0.03125 9.953125,0.21875 9.953125,0.21875 L9.953125,-0.171875 C11.109375,-0.3125 11.734375,-0.484375 12.140625,-0.765625 C12.453125,-1.015625 12.625,-1.4375 12.671875,-1.890625 C14.90625,-1.6875 15.21875,-0.765625 15.21875,0.453125 L15.21875,4.0625 L18.9375,4.0625 L18.9375,2.828125 L19.171875,2.828125 C19.703125,2.828125 20.453125,3.1875 20.46875,3.34375 L20.46875,7.734375 L22.921875,7.734375 C23.234375,7.734375 23.453125,7.84375 23.515625,8.109375 C22.84375,8.828125 21.671875,9.796875 21.671875,9.796875 L20.65625,8.421875 L20.46875,8.421875 L20.46875,11.140625 C20.921875,11.234375 21.28125,11.421875 21.453125,11.59375 L19.578125,13.015625 L18.71875,12.09375 L9,12.09375 L9.21875,11.40625 L13.6875,11.40625 L13.6875,8.421875 L6.3125,8.421875 L6.5,7.734375 L13.6875,7.734375 L13.6875,4.734375 Z M18.9375,8.421875 L15.21875,8.421875 L15.21875,11.40625 L18.9375,11.40625 Z M9.625,18.34375 C9.140625,15.8125 8.234375,13.265625 7.25,11.609375 L7.578125,11.375 C9.046875,12.75 10.296875,14.8125 11.109375,17.109375 C14.234375,17.28125 17.515625,17.828125 19.6875,18.390625 C20.234375,18.171875 20.65625,18.171875 20.875,18.390625 L19.03125,20.09375 C17.40625,19.265625 14.421875,18.3125 11.609375,17.765625 Z" transform="translate(-0.3203125, 20.09375) scale(1, -1)"/>
</svg>