<svg height="21.984375" viewBox="0 0 24 21.984375" width="24" xmlns="http://www.w3.org/2000/svg">
<path d="M13.734375,16.46875 L13.4375,16.3125 C14.109375,15.28125 14.71875,13.65625 14.59375,12.34375 C15.953125,10.921875 17.734375,14.15625 13.734375,16.46875 Z M9.234375,16.03125 L8.921875,15.890625 C9.71875,14.875 10.46875,13.203125 10.390625,11.828125 C11.828125,10.46875 13.484375,13.796875 9.234375,16.03125 Z M20.109375,20.109375 C17.296875,19.03125 11.859375,17.71875 7.390625,17.15625 L7.515625,16.703125 C12.140625,16.921875 17.328125,17.71875 20.65625,18.484375 C21.265625,18.234375 21.671875,18.265625 21.90625,18.453125 Z M2.28125,4.921875 C2.015625,4.921875 1.21875,4.921875 1.21875,4.921875 L1.21875,4.390625 C1.734375,4.34375 2.09375,4.265625 2.40625,4.0625 C2.90625,3.71875 3.046875,1.796875 2.71875,-0.671875 C2.765625,-1.421875 3.046875,-1.875 3.484375,-1.875 C4.265625,-1.875 4.734375,-1.25 4.78125,-0.21875 C4.875,1.75 4.203125,2.859375 4.203125,3.953125 C4.171875,4.515625 4.3125,5.28125 4.53125,5.96875 C4.875,7.109375 6.8125,12.4375 7.796875,15.3125 L7.375,15.40625 C3.3125,6.234375 3.3125,6.234375 2.875,5.421875 C2.640625,4.9375 2.546875,4.921875 2.28125,4.921875 Z M2.65625,19.9375 L2.453125,19.734375 C3.484375,19.015625 4.734375,17.71875 5.15625,16.625 C6.890625,15.703125 7.828125,19.125 2.65625,19.9375 Z M1.078125,14.640625 L0.859375,14.421875 C1.875,13.78125 3,12.59375 3.34375,11.59375 C5.015625,10.609375 6.03125,13.984375 1.078125,14.640625 Z M19.828125,16.9375 C19.109375,15.03125 18.125,12.984375 17.296875,11.71875 L17.640625,11.453125 C18.859375,12.453125 20.1875,14.015625 21.265625,15.578125 C21.71875,15.5 22.03125,15.703125 22.15625,15.953125 Z M19.984375,11.6875 C17.328125,10.609375 12.140625,9.40625 7.875,8.90625 L7.9375,8.46875 C9.9375,8.546875 12.03125,8.734375 13.984375,8.96875 L13.984375,5.15625 L6.625,5.15625 L6.8125,4.4375 L13.984375,4.4375 L13.984375,-0.3125 L7.46875,-0.3125 L7.65625,-1.015625 L22.03125,-1.015625 C22.375,-1.015625 22.609375,-0.890625 22.6875,-0.625 C21.859375,0.125 20.59375,1.15625 20.59375,1.15625 L19.4375,-0.3125 L15.546875,-0.3125 L15.546875,4.4375 L22.53125,4.4375 C22.875,4.4375 23.109375,4.5625 23.15625,4.828125 C22.375,5.5625 21.09375,6.578125 21.09375,6.578125 L19.96875,5.15625 L15.546875,5.15625 L15.546875,9.1875 C17.40625,9.484375 19.109375,9.8125 20.5,10.125 C21.078125,9.90625 21.5,9.90625 21.703125,10.078125 Z" transform="translate(-0.0078125, 20.109375) scale(1, -1)"/>
</svg>