<svg height="21.9375" viewBox="0 0 24 21.9375" width="24" xmlns="http://www.w3.org/2000/svg">
<path d="M2.28125,4.921875 C2.015625,4.921875 1.21875,4.921875 1.21875,4.921875 L1.21875,4.390625 C1.734375,4.34375 2.09375,4.265625 2.40625,4.0625 C2.90625,3.71875 3.046875,1.796875 2.71875,-0.671875 C2.765625,-1.421875 3.046875,-1.875 3.484375,-1.875 C4.265625,-1.875 4.734375,-1.25 4.78125,-0.21875 C4.875,1.75 4.203125,2.859375 4.203125,3.953125 C4.171875,4.515625 4.3125,5.28125 4.53125,5.96875 C4.875,7.109375 6.8125,12.4375 7.796875,15.3125 L7.375,15.40625 C3.3125,6.234375 3.3125,6.234375 2.875,5.421875 C2.640625,4.9375 2.546875,4.921875 2.28125,4.921875 Z M2.734375,19.9375 L2.5,19.75 C3.53125,19.03125 4.796875,17.734375 5.203125,16.625 C6.953125,15.703125 7.890625,19.125 2.734375,19.9375 Z M1.0625,14.5625 L0.84375,14.359375 C1.828125,13.703125 2.953125,12.53125 3.265625,11.515625 C4.9375,10.515625 5.96875,13.890625 1.0625,14.5625 Z M13.828125,16.578125 L13.53125,16.46875 C14.0625,15.390625 14.609375,13.734375 14.5625,12.4375 C15.859375,11.0625 17.609375,13.984375 13.828125,16.578125 Z M18.8125,17.15625 L18.53125,16.984375 C19.65625,15.75 20.953125,13.6875 21.1875,12.09375 C22.84375,10.796875 24.171875,14.546875 18.8125,17.15625 Z M19.734375,11.71875 C17.046875,10.6875 11.828125,9.484375 7.53125,9 L7.625,8.5625 C9.71875,8.640625 11.921875,8.828125 13.984375,9.09375 L13.984375,5.1875 L6.625,5.1875 L6.8125,4.46875 L13.984375,4.46875 L13.984375,-0.3125 L7.296875,-0.3125 L7.484375,-1.015625 L22.0625,-1.015625 C22.390625,-1.015625 22.625,-0.890625 22.6875,-0.640625 C21.890625,0.125 20.609375,1.125 20.609375,1.125 L19.46875,-0.3125 L15.578125,-0.3125 L15.578125,4.46875 L22.421875,4.46875 C22.75,4.46875 22.984375,4.578125 23.046875,4.84375 C22.265625,5.609375 20.96875,6.625 20.96875,6.625 L19.84375,5.1875 L15.578125,5.1875 L15.578125,9.3125 C17.296875,9.546875 18.90625,9.84375 20.234375,10.125 C20.78125,9.9375 21.234375,9.90625 21.453125,10.109375 Z M9.546875,18.359375 C9.21875,15.703125 8.5,13.03125 7.515625,11.203125 L7.875,11.015625 C9.359375,12.484375 10.46875,14.71875 11.15625,17.203125 C14.453125,17.40625 18.078125,17.921875 20.375,18.453125 C20.953125,18.234375 21.359375,18.234375 21.578125,18.4375 L19.796875,20.0625 C18,19.3125 14.765625,18.390625 11.828125,17.828125 Z" transform="translate(-0.5078125, 20.0625) scale(1, -1)"/>
</svg>