<svg height="21.78125" viewBox="0 0 24 21.78125" width="24" xmlns="http://www.w3.org/2000/svg">
<path d="M2.78125,19.9375 L2.5625,19.75 C3.59375,19.03125 4.84375,17.734375 5.28125,16.625 C7.015625,15.703125 7.96875,19.125 2.78125,19.9375 Z M1.15625,14.5625 L0.90625,14.359375 C1.921875,13.703125 3.046875,12.53125 3.359375,11.515625 C5.046875,10.515625 6.046875,13.875 1.15625,14.5625 Z M2.25,4.984375 C1.984375,4.984375 1.203125,4.984375 1.203125,4.984375 L1.203125,4.484375 C1.734375,4.4375 2.046875,4.375 2.375,4.15625 C2.859375,3.796875 3.03125,1.875 2.6875,-0.578125 C2.734375,-1.34375 3,-1.78125 3.453125,-1.78125 C4.25,-1.78125 4.703125,-1.15625 4.75,-0.125 C4.84375,1.84375 4.171875,2.96875 4.15625,4.0625 C4.15625,4.625 4.296875,5.375 4.46875,6.09375 C4.796875,7.21875 6.59375,12.625 7.53125,15.53125 L7.109375,15.640625 C3.234375,6.34375 3.234375,6.34375 2.828125,5.5 C2.59375,5.015625 2.5,4.984375 2.25,4.984375 Z M9.953125,6.640625 C9.625,4.421875 8.40625,3.03125 7.15625,2.46875 C5.78125,0.75 10.9375,-0.046875 10.375,6.59375 Z M15.765625,6.40625 L15.4375,6.265625 C16.109375,4.96875 16.734375,2.921875 16.609375,1.34375 C18,-0.125 19.734375,3.34375 15.765625,6.40625 Z M18.546875,6.84375 L18.265625,6.640625 C19.65625,5.296875 21.171875,3 21.328125,1.15625 C23.09375,-0.21875 24.453125,4.03125 18.546875,6.84375 Z M12.59375,9.59375 L12.59375,0.546875 C12.59375,0.1875 12.5,0.078125 12.046875,0.078125 C11.5625,0.078125 9.078125,0.234375 9.078125,0.234375 L9.078125,-0.140625 C10.15625,-0.28125 10.75,-0.453125 11.109375,-0.71875 C11.453125,-0.953125 11.5625,-1.375 11.640625,-1.84375 C13.84375,-1.625 14.09375,-0.84375 14.09375,0.4375 L14.09375,8.765625 C14.640625,8.828125 14.875,9 14.953125,9.359375 Z M7.890625,18.265625 L8.09375,17.59375 L12.90625,17.59375 C12.703125,16.15625 12.359375,14.8125 11.859375,13.578125 L7.296875,13.578125 L7.484375,12.859375 L11.546875,12.859375 C10.296875,10.203125 8.234375,8.015625 5.09375,6.28125 L5.28125,5.953125 C9.1875,7.578125 11.65625,9.84375 13.171875,12.859375 L15.90625,12.859375 C17.28125,9.984375 19.5625,7.703125 22.0625,6.40625 C22.25,7.171875 22.75,7.625 23.375,7.734375 L23.40625,7.96875 C20.90625,8.828125 18.09375,10.65625 16.515625,12.859375 L22.46875,12.859375 C22.796875,12.859375 23.015625,12.984375 23.09375,13.25 C22.296875,13.984375 21,15.03125 21,15.03125 L19.875,13.578125 L13.515625,13.578125 C14.046875,14.8125 14.421875,16.125 14.71875,17.59375 L20.953125,17.59375 C21.28125,17.59375 21.5,17.71875 21.546875,17.96875 C20.78125,18.703125 19.53125,19.703125 19.53125,19.703125 L18.40625,18.265625 Z" transform="translate(-0.6796875, 19.9375) scale(1, -1)"/>
</svg>