<svg height="22.109375" viewBox="0 0 24 22.109375" width="24" xmlns="http://www.w3.org/2000/svg">
<path d="M14.765625,19.65625 L14.515625,19.421875 C15.40625,18.9375 16.578125,18.03125 17.046875,17.25 C18.53125,16.6875 19.03125,19.484375 14.765625,19.65625 Z M14.859375,9.546875 L14.65625,9.3125 C15.640625,8.859375 16.84375,7.890625 17.328125,7.109375 C18.84375,6.5 19.296875,9.484375 14.859375,9.546875 Z M2.6875,19.796875 L2.46875,19.578125 C3.546875,18.890625 4.796875,17.59375 5.1875,16.484375 C6.9375,15.5 7.875,19.0625 2.6875,19.796875 Z M1.109375,14.359375 L0.890625,14.109375 C1.9375,13.484375 3.171875,12.28125 3.546875,11.25 C5.25,10.265625 6.1875,13.703125 1.109375,14.359375 Z M2.5,4.875 C2.25,4.875 1.421875,4.875 1.421875,4.875 L1.421875,4.34375 C1.9375,4.296875 2.296875,4.21875 2.59375,4.015625 C3.125,3.671875 3.28125,1.796875 2.953125,-0.671875 C3,-1.421875 3.28125,-1.84375 3.71875,-1.84375 C4.484375,-1.84375 4.96875,-1.25 5.046875,-0.21875 C5.109375,1.734375 4.4375,2.828125 4.421875,3.890625 C4.421875,4.4375 4.609375,5.1875 4.828125,5.859375 C5.15625,6.90625 7.21875,12.03125 8.25,14.71875 L7.796875,14.859375 C3.59375,6.171875 3.59375,6.171875 3.125,5.359375 C2.875,4.875 2.78125,4.875 2.5,4.875 Z M18.140625,15.546875 C17.515625,14.8125 16.65625,14.0625 15.59375,13.34375 C14.765625,14.09375 14.15625,14.90625 13.703125,15.8125 L22.21875,16.484375 C22.53125,16.515625 22.796875,16.6875 22.828125,16.9375 C22.03125,17.546875 20.734375,18.40625 20.734375,18.40625 L19.734375,16.984375 L13.421875,16.484375 C13.078125,17.375 12.90625,18.28125 12.84375,19.21875 C13.296875,19.3125 13.484375,19.5625 13.53125,19.84375 L11.203125,20.015625 C11.28125,18.71875 11.46875,17.5 11.859375,16.375 L7.46875,16.03125 L7.703125,15.34375 L12.125,15.703125 C12.59375,14.515625 13.296875,13.46875 14.28125,12.546875 C12.34375,11.46875 9.953125,10.5625 7.46875,10.015625 L7.609375,9.578125 C10.46875,9.953125 13.109375,10.75 15.265625,11.734375 C16.4375,10.890625 17.90625,10.203125 19.734375,9.71875 C21.078125,9.359375 22.296875,9.1875 22.578125,9.953125 C22.703125,10.265625 22.609375,10.46875 21.890625,10.9375 L22.0625,13.375 L21.765625,13.421875 C21.546875,12.625 21.21875,11.765625 21,11.359375 C20.828125,11.046875 20.640625,11.046875 20.140625,11.15625 C18.8125,11.46875 17.71875,11.921875 16.796875,12.484375 C17.71875,13.015625 18.53125,13.5625 19.171875,14.140625 C19.78125,13.984375 20.15625,14.0625 20.28125,14.296875 Z M18.59375,5.328125 C17.96875,4.296875 17.015625,3.3125 15.796875,2.40625 C14.859375,3.28125 14.203125,4.34375 13.75,5.46875 L22.4375,6.1875 C22.75,6.21875 22.984375,6.390625 23.015625,6.640625 C22.203125,7.265625 20.875,8.109375 20.875,8.109375 L19.84375,6.671875 L13.53125,6.140625 C13.21875,7.15625 13.0625,8.234375 13.015625,9.3125 C13.484375,9.40625 13.65625,9.640625 13.703125,9.9375 L11.296875,10.15625 C11.359375,8.65625 11.546875,7.296875 11.90625,6.03125 L7.015625,5.609375 L7.25,4.9375 L12.125,5.359375 C12.625,3.890625 13.375,2.59375 14.46875,1.484375 C12.4375,0.234375 9.890625,-0.796875 7.015625,-1.390625 L7.125,-1.828125 C10.375,-1.390625 13.171875,-0.5 15.4375,0.671875 C16.609375,-0.234375 18.125,-0.984375 19.96875,-1.484375 C21.328125,-1.921875 22.625,-2.09375 22.9375,-1.265625 C23.0625,-0.953125 22.984375,-0.765625 22.203125,-0.265625 L22.421875,2.296875 L22.125,2.359375 C21.859375,1.53125 21.5,0.640625 21.28125,0.21875 C21.125,-0.140625 20.90625,-0.140625 20.40625,0 C19.015625,0.359375 17.859375,0.859375 16.890625,1.515625 C18.078125,2.25 19.03125,3.078125 19.796875,3.953125 C20.40625,3.859375 20.765625,3.9375 20.90625,4.15625 Z" transform="translate(0.0234375, 20.015625) scale(1, -1)"/>
</svg>