<svg height="21.859375" viewBox="0 0 24 21.859375" width="24" xmlns="http://www.w3.org/2000/svg">
<path d="M2.78125,19.921875 L2.5625,19.734375 C3.59375,19.015625 4.84375,17.71875 5.28125,16.625 C7.015625,15.671875 7.96875,19.109375 2.78125,19.921875 Z M1.125,14.5625 L0.890625,14.359375 C1.890625,13.6875 3.03125,12.5 3.34375,11.515625 C5.015625,10.515625 6.046875,13.875 1.125,14.5625 Z M2.15625,4.984375 C1.890625,4.984375 1.125,4.984375 1.125,4.984375 L1.125,4.46875 C1.625,4.421875 1.984375,4.34375 2.296875,4.125 C2.78125,3.796875 2.921875,1.84375 2.59375,-0.59375 C2.640625,-1.34375 2.921875,-1.796875 3.359375,-1.796875 C4.171875,-1.796875 4.609375,-1.171875 4.6875,-0.140625 C4.75,1.828125 4.078125,2.96875 4.078125,4.03125 C4.0625,4.625 4.203125,5.375 4.390625,6.09375 C4.6875,7.21875 6.4375,12.625 7.34375,15.53125 L6.90625,15.640625 C3.140625,6.34375 3.140625,6.34375 2.734375,5.5 C2.515625,5.015625 2.453125,4.984375 2.15625,4.984375 Z M9.953125,6.640625 C9.625,4.421875 8.40625,3.03125 7.15625,2.46875 C5.78125,0.75 10.9375,-0.046875 10.375,6.59375 Z M15.765625,6.40625 L15.4375,6.265625 C16.109375,4.96875 16.75,2.921875 16.625,1.34375 C18.03125,-0.125 19.734375,3.34375 15.765625,6.40625 Z M18.546875,6.8125 L18.265625,6.625 C19.65625,5.28125 21.171875,2.96875 21.328125,1.125 C23.09375,-0.265625 24.484375,3.984375 18.546875,6.8125 Z M12.59375,9.59375 L12.59375,0.546875 C12.59375,0.1875 12.5,0.078125 12.046875,0.078125 C11.5625,0.078125 9.078125,0.234375 9.078125,0.234375 L9.078125,-0.140625 C10.15625,-0.28125 10.75,-0.453125 11.109375,-0.71875 C11.453125,-0.953125 11.5625,-1.375 11.640625,-1.84375 C13.84375,-1.625 14.09375,-0.84375 14.09375,0.4375 L14.09375,8.765625 C14.640625,8.828125 14.875,9 14.953125,9.359375 Z M7.078125,13.5625 L7.265625,12.859375 L11.421875,12.859375 C10.171875,10.203125 8.140625,8.015625 5.09375,6.28125 L5.28125,5.953125 C9.125,7.5625 11.640625,9.84375 13.171875,12.859375 L16.03125,12.859375 C17.359375,9.953125 19.578125,7.6875 22.015625,6.359375 C22.203125,7.109375 22.703125,7.578125 23.328125,7.6875 L23.359375,7.921875 C20.921875,8.78125 18.1875,10.609375 16.65625,12.859375 L22.375,12.859375 C22.734375,12.859375 22.96875,12.984375 23.046875,13.25 C22.21875,13.96875 20.953125,15 20.953125,15 L19.796875,13.5625 L13.484375,13.5625 C14.015625,14.734375 14.40625,15.984375 14.6875,17.375 C16.65625,17.640625 18.453125,17.96875 19.890625,18.3125 C20.46875,18.078125 20.90625,18.078125 21.125,18.265625 L19.265625,20.015625 C16.734375,18.90625 11.71875,17.734375 7.515625,17.25 L7.578125,16.828125 C9.28125,16.84375 11.046875,16.96875 12.75,17.140625 C12.53125,15.859375 12.1875,14.6875 11.734375,13.5625 Z" transform="translate(-0.6875, 20.015625) scale(1, -1)"/>
</svg>