<svg height="21.875" viewBox="0 0 24 21.875" width="24" xmlns="http://www.w3.org/2000/svg">
<path d="M2.875,19.875 L2.640625,19.65625 C3.703125,18.90625 4.96875,17.59375 5.328125,16.46875 C7.078125,15.484375 8.09375,19.015625 2.875,19.875 Z M1.015625,14.453125 L0.796875,14.203125 C1.828125,13.578125 3.03125,12.359375 3.359375,11.328125 C5.046875,10.3125 6.046875,13.703125 1.015625,14.453125 Z M2.40625,4.890625 C2.140625,4.890625 1.34375,4.890625 1.34375,4.890625 L1.34375,4.375 C1.84375,4.3125 2.203125,4.25 2.5,4.03125 C3.03125,3.671875 3.140625,1.78125 2.828125,-0.671875 C2.875,-1.421875 3.140625,-1.875 3.578125,-1.875 C4.375,-1.875 4.84375,-1.25 4.875,-0.21875 C4.96875,1.734375 4.3125,2.859375 4.3125,3.9375 C4.296875,4.515625 4.4375,5.25 4.625,5.96875 C4.96875,7.078125 6.8125,12.453125 7.78125,15.34375 L7.34375,15.453125 C3.40625,6.21875 3.40625,6.21875 2.96875,5.40625 C2.734375,4.890625 2.640625,4.890625 2.40625,4.890625 Z M18.703125,7.625 L18.703125,4.484375 L11.90625,4.484375 L11.90625,7.625 Z M20.734375,19.390625 C19.421875,16.9375 17.453125,14.359375 15.078125,11.90625 L13.796875,11.90625 L13.796875,15.71875 L17.953125,15.71875 C18.265625,15.71875 18.5,15.84375 18.546875,16.109375 C17.859375,16.828125 16.625,17.859375 16.625,17.859375 L15.578125,16.4375 L13.796875,16.4375 L13.796875,19.078125 C14.40625,19.171875 14.640625,19.421875 14.6875,19.75 L12.234375,19.984375 L12.234375,16.4375 L7.828125,16.4375 L8.015625,15.71875 L12.234375,15.71875 L12.234375,11.90625 L7.078125,11.90625 L7.265625,11.1875 L14.359375,11.1875 C13.46875,10.296875 12.53125,9.453125 11.515625,8.640625 L10.34375,9.125 L10.34375,7.703125 C8.65625,6.40625 6.859375,5.234375 4.984375,4.25 L5.234375,3.890625 C7.03125,4.6875 8.734375,5.609375 10.34375,6.625 L10.34375,-1.890625 L10.578125,-1.890625 C11.375,-1.890625 11.90625,-1.484375 11.90625,-1.375 L11.90625,-0.140625 L18.703125,-0.140625 L18.703125,-1.78125 L18.9375,-1.78125 C19.4375,-1.78125 20.203125,-1.421875 20.25,-1.25 L20.25,7.34375 C20.734375,7.4375 21.125,7.625 21.28125,7.828125 L19.34375,9.3125 L18.453125,8.359375 L12.8125,8.359375 C14.015625,9.265625 15.140625,10.203125 16.203125,11.1875 L22.515625,11.1875 C22.84375,11.1875 23.09375,11.296875 23.140625,11.5625 C22.375,12.3125 21.09375,13.3125 21.09375,13.3125 L19.984375,11.90625 L16.9375,11.90625 C18.984375,13.921875 20.65625,16.015625 21.9375,17.96875 C22.515625,17.828125 22.78125,17.90625 22.96875,18.171875 Z M18.703125,3.796875 L18.703125,0.578125 L11.90625,0.578125 L11.90625,3.796875 Z" transform="translate(0.03125, 19.984375) scale(1, -1)"/>
</svg>