<svg height="21.96875" viewBox="0 0 24 21.96875" width="24" xmlns="http://www.w3.org/2000/svg">
<path d="M12.890625,16.734375 L12.578125,16.5625 C13.375,15.625 14.15625,14.09375 14.1875,12.84375 C15.578125,11.5625 17.140625,14.734375 12.890625,16.734375 Z M8.59375,16.21875 L8.296875,16.078125 C9.078125,15.03125 9.9375,13.3125 9.984375,11.96875 C11.40625,10.65625 12.953125,13.875 8.59375,16.21875 Z M20.046875,20.046875 C17.25,19.03125 11.90625,17.953125 7.4375,17.546875 L7.515625,17.109375 C12.171875,17.140625 17.25,17.734375 20.546875,18.40625 C21.125,18.140625 21.546875,18.140625 21.796875,18.359375 Z M2.203125,4.921875 C1.9375,4.921875 1.15625,4.921875 1.15625,4.921875 L1.15625,4.390625 C1.65625,4.34375 2.015625,4.265625 2.328125,4.0625 C2.859375,3.71875 2.96875,1.796875 2.640625,-0.671875 C2.71875,-1.421875 2.96875,-1.875 3.40625,-1.875 C4.21875,-1.875 4.6875,-1.25 4.734375,-0.21875 C4.796875,1.75 4.15625,2.875 4.125,3.953125 C4.125,4.53125 4.265625,5.28125 4.46875,6 C4.796875,7.125 6.71875,12.5 7.703125,15.40625 L7.265625,15.53125 C3.21875,6.234375 3.21875,6.234375 2.8125,5.421875 C2.5625,4.9375 2.515625,4.921875 2.203125,4.921875 Z M2.640625,19.9375 L2.421875,19.75 C3.453125,19.03125 4.703125,17.734375 5.140625,16.625 C6.859375,15.703125 7.828125,19.125 2.640625,19.9375 Z M1.0625,14.5625 L0.859375,14.359375 C1.828125,13.703125 2.953125,12.53125 3.265625,11.515625 C4.9375,10.515625 6,13.890625 1.0625,14.5625 Z M20.140625,16.984375 C19.34375,15.03125 18.21875,12.90625 17.359375,11.640625 L17.6875,11.375 C18.953125,12.40625 20.375,14.015625 21.484375,15.625 C21.984375,15.546875 22.265625,15.71875 22.390625,15.984375 Z M13.625,11.828125 L13.609375,9.21875 L7.296875,9.21875 L7.484375,8.546875 L13.578125,8.546875 C13.53125,7.46875 13.421875,6.484375 13.203125,5.546875 L6.640625,5.546875 L6.84375,4.84375 L13.015625,4.84375 C12.171875,2.203125 10.125,0.171875 5.1875,-1.390625 L5.453125,-1.828125 C11.421875,-0.234375 13.65625,1.96875 14.5625,4.84375 L14.859375,4.84375 C15.578125,2.65625 17.25,-0.265625 21.484375,-1.921875 C21.625,-0.984375 22.125,-0.71875 22.96875,-0.546875 L22.984375,-0.265625 C18.53125,1.0625 16.34375,3.078125 15.40625,4.84375 L22.375,4.84375 C22.6875,4.84375 22.921875,4.96875 22.984375,5.234375 C22.203125,5.953125 20.921875,6.984375 20.921875,6.984375 L19.78125,5.546875 L14.734375,5.546875 C14.953125,6.484375 15.078125,7.484375 15.125,8.546875 L21.625,8.546875 C21.953125,8.546875 22.203125,8.65625 22.265625,8.90625 C21.484375,9.640625 20.203125,10.65625 20.203125,10.65625 L19.078125,9.21875 L15.171875,9.21875 L15.21875,10.96875 C15.71875,11.015625 15.90625,11.28125 15.953125,11.5625 Z" transform="translate(0.078125, 20.046875) scale(1, -1)"/>
</svg>