<svg height="21.8125" viewBox="0 0 24 21.8125" width="24" xmlns="http://www.w3.org/2000/svg">
<path d="M2.109375,4.9375 C1.84375,4.9375 1.03125,4.9375 1.03125,4.9375 L1.03125,4.390625 C1.53125,4.34375 1.890625,4.265625 2.203125,4.078125 C2.71875,3.75 2.875,1.84375 2.5625,-0.625 C2.59375,-1.390625 2.828125,-1.84375 3.265625,-1.84375 C4.03125,-1.84375 4.4375,-1.21875 4.484375,-0.21875 C4.5625,1.734375 3.9375,2.90625 3.9375,3.953125 C3.9375,4.5625 4.109375,5.28125 4.296875,6 C4.625,7.125 6.703125,12.59375 7.75,15.578125 L7.296875,15.703125 C3.125,6.265625 3.125,6.265625 2.6875,5.453125 C2.453125,4.96875 2.375,4.9375 2.109375,4.9375 Z M2.78125,19.96875 L2.546875,19.78125 C3.578125,19.03125 4.78125,17.734375 5.1875,16.625 C6.890625,15.640625 7.890625,19.03125 2.78125,19.96875 Z M1.078125,14.59375 L0.890625,14.375 C1.84375,13.734375 2.96875,12.546875 3.28125,11.546875 C4.96875,10.53125 6,13.890625 1.078125,14.59375 Z M10.296875,14.328125 L18.359375,14.328125 L18.359375,11.359375 L10.296875,11.359375 Z M10.296875,15.046875 L10.296875,17.96875 L18.359375,17.96875 L18.359375,15.046875 Z M8.78125,18.671875 L8.78125,9.1875 L9.03125,9.1875 C9.8125,9.1875 10.296875,9.53125 10.296875,9.671875 L10.296875,10.625 L18.359375,10.625 L18.359375,9.40625 L18.59375,9.40625 C19.3125,9.40625 19.890625,9.765625 19.890625,9.859375 L19.890625,17.875 C20.375,17.953125 20.609375,18.09375 20.78125,18.265625 L19.0625,19.609375 L18.265625,18.671875 L10.578125,18.671875 L8.78125,19.4375 Z M11.546875,-0.3125 L9.09375,-0.3125 L9.09375,6.890625 L11.546875,6.890625 Z M12.890625,-0.3125 L12.890625,6.890625 L15.28125,6.890625 L15.28125,-0.3125 Z M16.65625,-0.3125 L16.65625,6.890625 L19.15625,6.890625 L19.15625,-0.3125 Z M7.609375,7.578125 L7.609375,-0.3125 L5.140625,-0.3125 L5.328125,-0.984375 L22.875,-0.984375 C23.1875,-0.984375 23.40625,-0.859375 23.46875,-0.625 C22.875,0.09375 21.796875,1.078125 21.796875,1.078125 L20.875,-0.3125 L20.640625,-0.3125 L20.640625,6.703125 C21.234375,6.765625 21.546875,6.90625 21.71875,7.15625 L19.6875,8.65625 L18.859375,7.578125 L9.359375,7.578125 L7.609375,8.359375 Z" transform="translate(-0.1796875, 19.96875) scale(1, -1)"/>
</svg>