<svg height="21.828125" viewBox="0 0 24 21.828125" width="24" xmlns="http://www.w3.org/2000/svg">
<path d="M2.515625,4.921875 C2.28125,4.921875 1.484375,4.921875 1.484375,4.921875 L1.484375,4.390625 C2.015625,4.34375 2.359375,4.265625 2.640625,4.0625 C3.171875,3.71875 3.3125,1.78125 2.96875,-0.671875 C3.03125,-1.4375 3.3125,-1.875 3.75,-1.875 C4.53125,-1.875 5.015625,-1.25 5.0625,-0.21875 C5.140625,1.75 4.4375,2.90625 4.4375,3.953125 C4.4375,4.5625 4.578125,5.296875 4.78125,6.078125 C5.0625,7.21875 6.890625,12.75 7.828125,15.75 L7.375,15.84375 C3.53125,6.265625 3.53125,6.265625 3.125,5.421875 C2.90625,4.9375 2.8125,4.921875 2.515625,4.921875 Z M2.78125,19.9375 L2.5625,19.75 C3.59375,19.03125 4.84375,17.734375 5.28125,16.625 C7.015625,15.703125 7.96875,19.125 2.78125,19.9375 Z M1.0625,14.5625 L0.859375,14.359375 C1.828125,13.703125 2.953125,12.53125 3.265625,11.515625 C4.9375,10.515625 6,13.890625 1.0625,14.5625 Z M10.875,14.734375 L19.125,14.734375 L19.125,12.09375 L10.875,12.09375 Z M10.875,15.4375 L10.875,18 L19.125,18 L19.125,15.4375 Z M9.40625,18.671875 L9.40625,10.265625 L9.625,10.265625 C10.390625,10.265625 10.875,10.609375 10.875,10.734375 L10.875,11.421875 L11.546875,11.421875 C10.34375,8.765625 8.0625,5.640625 5.359375,3.71875 L5.59375,3.390625 C6.890625,4.03125 8.0625,4.875 9.125,5.8125 L9.125,-0.625 L9.390625,-0.625 C9.90625,-0.625 10.53125,-0.359375 10.53125,-0.171875 L10.53125,0.84375 L18.4375,0.84375 C18.765625,0.84375 19.015625,0.953125 19.078125,1.203125 C18.359375,1.890625 17.28125,2.78125 17.28125,2.78125 L16.3125,1.53125 L10.53125,1.53125 L10.53125,6.140625 C11.109375,6.234375 11.328125,6.453125 11.375,6.765625 L10.265625,6.890625 C10.65625,7.265625 10.984375,7.6875 11.328125,8.0625 L20.375,8.0625 C20.140625,3.53125 19.65625,0.84375 18.984375,0.234375 C18.765625,0.078125 18.578125,0 18.171875,0 C17.71875,0 16.34375,0.125 15.53125,0.1875 L15.5,-0.21875 C16.265625,-0.34375 17.046875,-0.53125 17.328125,-0.765625 C17.609375,-1.03125 17.6875,-1.4375 17.6875,-1.890625 C18.578125,-1.890625 19.4375,-1.65625 20.046875,-1.109375 C21.078125,-0.171875 21.671875,2.65625 21.890625,7.875 C22.390625,7.9375 22.6875,8.0625 22.84375,8.25 L21.078125,9.71875 L20.140625,8.765625 L11.875,8.765625 C12.359375,9.390625 12.765625,10.015625 13.109375,10.578125 C13.6875,10.515625 13.84375,10.625 13.984375,10.890625 L12.8125,11.421875 L19.125,11.421875 L19.125,10.515625 L19.390625,10.515625 C20.0625,10.515625 20.640625,10.84375 20.640625,10.96875 L20.640625,17.875 C21.125,17.96875 21.390625,18.125 21.546875,18.28125 L19.796875,19.609375 L19.0625,18.671875 L11.140625,18.671875 L9.40625,19.4375 Z M14.015625,7.921875 C13.65625,6.046875 12.640625,3.859375 10.984375,2.609375 L11.1875,2.25 C12.484375,2.875 13.515625,3.859375 14.25,4.9375 C15,4.34375 15.765625,3.5 16.0625,2.78125 C17.375,2.015625 18.21875,4.484375 14.546875,5.375 C14.859375,5.875 15.125,6.40625 15.3125,6.90625 C15.859375,6.890625 16.0625,7.015625 16.15625,7.265625 Z" transform="translate(0.1484375, 19.9375) scale(1, -1)"/>
</svg>