<svg height="21.8125" viewBox="0 0 24 21.8125" width="24" xmlns="http://www.w3.org/2000/svg">
<path d="M2.71875,4.875 C2.453125,4.875 1.703125,4.875 1.703125,4.875 L1.703125,4.34375 C2.203125,4.296875 2.546875,4.21875 2.859375,4.015625 C3.359375,3.671875 3.484375,1.703125 3.140625,-0.703125 C3.1875,-1.4375 3.484375,-1.890625 3.90625,-1.890625 C4.75,-1.890625 5.234375,-1.25 5.28125,-0.234375 C5.375,1.734375 4.6875,2.828125 4.625,3.9375 C4.625,4.53125 4.78125,5.28125 4.9375,6.03125 C5.234375,7.203125 6.8125,12.703125 7.625,15.671875 L7.171875,15.765625 C3.640625,6.21875 3.640625,6.21875 3.28125,5.40625 C3.09375,4.890625 3,4.875 2.71875,4.875 Z M0.984375,14.453125 L0.75,14.234375 C1.75,13.578125 2.953125,12.40625 3.3125,11.40625 C5.09375,10.4375 6.03125,13.890625 0.984375,14.453125 Z M2.296875,19.828125 L2.09375,19.609375 C3.1875,18.90625 4.53125,17.59375 4.984375,16.484375 C6.765625,15.5 7.703125,19.078125 2.296875,19.828125 Z M16.0625,14.859375 L13.609375,14.859375 L13.609375,17.828125 L16.0625,17.828125 Z M16.109375,14.15625 L16.109375,9.625 L13.578125,9.625 L13.578125,14.15625 Z M17.421875,14.15625 L19.875,14.15625 L19.875,9.625 L17.421875,9.625 Z M21,19.921875 L19.890625,18.546875 L7.296875,18.546875 L7.484375,17.828125 L12.21875,17.828125 L12.21875,14.859375 L9.8125,14.859375 L8.203125,15.59375 L8.203125,7.484375 L8.421875,7.484375 C9.078125,7.484375 9.703125,7.828125 9.703125,7.984375 L9.703125,8.921875 L19.875,8.921875 L19.875,7.75 L20.09375,7.75 C20.59375,7.75 21.328125,8.09375 21.359375,8.234375 L21.359375,13.875 C21.859375,13.96875 22.25,14.15625 22.421875,14.359375 L20.5,15.8125 L19.609375,14.859375 L17.46875,14.859375 L17.46875,17.828125 L22.390625,17.828125 C22.703125,17.828125 22.9375,17.953125 23.015625,18.21875 C22.25,18.9375 21,19.921875 21,19.921875 Z M12.265625,14.15625 L12.265625,9.625 L9.703125,9.625 L9.703125,14.15625 Z M21.140625,1.609375 L20.015625,0.171875 L15.5,0.171875 L15.5,4.296875 L20.90625,4.296875 C21.234375,4.296875 21.484375,4.421875 21.546875,4.6875 C20.765625,5.421875 19.46875,6.4375 19.46875,6.4375 L18.34375,4.984375 L15.5,4.984375 L15.5,7.296875 C16.078125,7.390625 16.34375,7.609375 16.375,7.9375 L13.9375,8.203125 L13.9375,4.984375 L8.140625,4.984375 L8.328125,4.296875 L13.9375,4.296875 L13.9375,0.171875 L6.34375,0.171875 L6.53125,-0.546875 L22.578125,-0.546875 C22.921875,-0.546875 23.15625,-0.4375 23.234375,-0.171875 C22.421875,0.578125 21.140625,1.609375 21.140625,1.609375 Z" transform="translate(0.0078125, 19.921875) scale(1, -1)"/>
</svg>