<svg height="21.859375" viewBox="0 0 24 21.859375" width="24" xmlns="http://www.w3.org/2000/svg">
<path d="M18.625,15.359375 L18.390625,15.140625 C19.578125,14.28125 21,12.71875 21.328125,11.453125 C23.015625,10.390625 23.96875,13.921875 18.625,15.359375 Z M2.40625,4.9375 C2.140625,4.9375 1.34375,4.9375 1.34375,4.9375 L1.34375,4.421875 C1.84375,4.375 2.203125,4.3125 2.5,4.109375 C3,3.75 3.171875,1.828125 2.828125,-0.625 C2.859375,-1.390625 3.140625,-1.828125 3.59375,-1.828125 C4.375,-1.828125 4.84375,-1.203125 4.890625,-0.171875 C4.96875,1.78125 4.3125,2.921875 4.296875,4.015625 C4.296875,4.578125 4.421875,5.328125 4.609375,6.078125 C4.921875,7.203125 6.765625,12.640625 7.6875,15.59375 L7.25,15.71875 C3.390625,6.28125 3.390625,6.28125 2.953125,5.453125 C2.734375,4.96875 2.640625,4.9375 2.40625,4.9375 Z M2.78125,19.890625 L2.546875,19.6875 C3.578125,18.953125 4.828125,17.65625 5.25,16.609375 C6.984375,15.640625 7.9375,19.0625 2.78125,19.890625 Z M1.109375,14.515625 L0.859375,14.296875 C1.875,13.65625 3,12.484375 3.3125,11.46875 C4.984375,10.46875 6.03125,13.828125 1.109375,14.515625 Z M9.890625,15.9375 C9.390625,14.609375 8.28125,12.59375 7.15625,11.28125 L7.4375,10.96875 C8.875,12 10.265625,13.53125 11.046875,14.65625 C11.59375,14.5625 11.78125,14.65625 11.921875,14.921875 Z M14.109375,19.984375 L14.109375,17.328125 L6.953125,17.328125 L7.15625,16.625 L12.71875,16.625 L12.71875,15.625 C12.703125,13.796875 12.234375,11.71875 9.046875,10.015625 L9.28125,9.640625 C13.703125,11.1875 14.15625,13.78125 14.1875,15.625 L14.1875,16.625 L16.53125,16.625 L16.53125,12.046875 C16.53125,11.78125 16.4375,11.640625 16.078125,11.640625 C15.703125,11.640625 13.9375,11.78125 13.9375,11.78125 L13.9375,11.40625 C14.8125,11.296875 15.234375,11.140625 15.5,10.921875 C15.75,10.6875 15.859375,10.3125 15.890625,9.9375 C17.71875,10.125 18,10.875 18,12.046875 L18,16.625 L22.4375,16.625 C22.78125,16.625 23.015625,16.75 23.09375,17.015625 C22.296875,17.765625 21.046875,18.75 21.046875,18.75 L19.921875,17.328125 L15.671875,17.328125 L15.671875,19.109375 C16.25,19.203125 16.515625,19.4375 16.53125,19.78125 Z M7.609375,8.953125 L7.828125,8.25 L19.484375,8.25 L19.484375,6.234375 L10.875,6.234375 L9.09375,7.078125 C8.78125,5.765625 8.015625,3.359375 7.421875,1.75 C8.203125,1.46875 8.6875,1.484375 9.09375,1.6875 L9.484375,2.828125 L19.875,2.828125 C19.515625,1.46875 18.984375,0.453125 18.53125,0.171875 C18.28125,0.046875 18.09375,0 17.6875,0 C17.1875,0 15.625,0.125 14.734375,0.21875 L14.71875,-0.21875 C15.578125,-0.34375 16.3125,-0.5 16.625,-0.75 C16.9375,-0.984375 17.015625,-1.4375 17.015625,-1.875 C17.921875,-1.875 18.765625,-1.6875 19.375,-1.296875 C20.328125,-0.75 21.09375,0.765625 21.5,2.65625 C21.984375,2.6875 22.296875,2.828125 22.46875,3 L20.71875,4.4375 L19.78125,3.546875 L9.703125,3.546875 L10.296875,5.546875 L19.484375,5.546875 L19.484375,4.78125 L19.703125,4.78125 C20.203125,4.78125 20.96875,5.09375 21,5.25 L21,8.0625 C21.40625,8.15625 21.703125,8.328125 21.8125,8.5 L20.09375,9.8125 L19.296875,8.953125 Z" transform="translate(-0.4140625, 19.984375) scale(1, -1)"/>
</svg>