<svg height="21.984375" viewBox="0 0 24 21.984375" width="24" xmlns="http://www.w3.org/2000/svg">
<path d="M2.359375,4.921875 C2.09375,4.921875 1.296875,4.921875 1.296875,4.921875 L1.296875,4.390625 C1.796875,4.34375 2.15625,4.265625 2.46875,4.0625 C3,3.71875 3.125,1.796875 2.78125,-0.671875 C2.859375,-1.4375 3.125,-1.875 3.546875,-1.875 C4.375,-1.875 4.828125,-1.25 4.84375,-0.21875 C4.9375,1.75 4.265625,2.875 4.265625,3.953125 C4.265625,4.53125 4.390625,5.296875 4.609375,6.03125 C4.9375,7.171875 6.859375,12.640625 7.84375,15.578125 L7.390625,15.703125 C3.359375,6.265625 3.359375,6.265625 2.921875,5.421875 C2.71875,4.9375 2.640625,4.921875 2.359375,4.921875 Z M2.515625,19.84375 L2.296875,19.625 C3.34375,18.90625 4.578125,17.609375 5.015625,16.53125 C6.75,15.578125 7.703125,19.015625 2.515625,19.84375 Z M1.15625,14.234375 L0.90625,14.015625 C1.921875,13.375 3.046875,12.171875 3.359375,11.1875 C5.046875,10.171875 6.078125,13.53125 1.15625,14.234375 Z M8.71875,9.765625 L8.71875,3.453125 L6.21875,3.453125 L6.40625,2.734375 L8.71875,2.734375 L8.71875,-1.875 L8.953125,-1.875 C9.59375,-1.875 10.21875,-1.484375 10.21875,-1.3125 L10.21875,2.734375 L19.203125,2.734375 L19.203125,0.5 C19.203125,0.171875 19.078125,0.03125 18.671875,0.03125 C18.21875,0.03125 16.0625,0.1875 16.0625,0.1875 L16.0625,-0.1875 C16.984375,-0.3125 17.546875,-0.5 17.875,-0.75 C18.171875,-0.984375 18.28125,-1.421875 18.359375,-1.875 C20.453125,-1.65625 20.71875,-0.90625 20.71875,0.3125 L20.71875,2.734375 L22.75,2.734375 C23.09375,2.734375 23.28125,2.859375 23.359375,3.125 C22.703125,3.8125 21.625,4.75 21.625,4.75 L20.71875,3.484375 L20.71875,8.765625 C21.1875,8.828125 21.578125,9.046875 21.71875,9.234375 L19.734375,10.703125 L18.953125,9.765625 L15.390625,9.765625 L15.390625,11.46875 L22.4375,11.46875 C22.78125,11.46875 23.015625,11.59375 23.09375,11.859375 C22.296875,12.578125 21.078125,13.5625 21.078125,13.5625 L19.96875,12.171875 L17.921875,12.171875 L17.921875,14.40625 L21.890625,14.40625 C22.21875,14.40625 22.4375,14.515625 22.515625,14.78125 C21.75,15.453125 20.546875,16.421875 20.546875,16.421875 L19.515625,15.09375 L17.921875,15.09375 L17.921875,17.09375 L22.171875,17.09375 C22.515625,17.09375 22.75,17.203125 22.828125,17.46875 C22.0625,18.171875 20.859375,19.125 20.859375,19.125 L19.78125,17.78125 L17.921875,17.78125 L17.921875,19.21875 C18.484375,19.3125 18.703125,19.53125 18.75,19.875 L16.4375,20.109375 L16.4375,17.78125 L12.75,17.78125 L12.75,19.21875 C13.296875,19.3125 13.53125,19.53125 13.578125,19.875 L11.25,20.109375 L11.25,17.78125 L7.265625,17.78125 L7.4375,17.09375 L11.25,17.09375 L11.25,15.09375 L8.109375,15.09375 L8.296875,14.40625 L11.25,14.40625 L11.25,12.171875 L7.078125,12.171875 L7.25,11.46875 L13.890625,11.46875 L13.890625,9.765625 L10.34375,9.765625 L8.71875,10.53125 Z M12.75,17.09375 L16.4375,17.09375 L16.4375,15.09375 L12.75,15.09375 Z M12.75,14.40625 L16.4375,14.40625 L16.4375,12.171875 L12.75,12.171875 Z M13.890625,3.453125 L10.21875,3.453125 L10.21875,5.921875 L13.890625,5.921875 Z M15.390625,3.453125 L15.390625,5.921875 L19.203125,5.921875 L19.203125,3.453125 Z M13.890625,6.640625 L10.21875,6.640625 L10.21875,9.046875 L13.890625,9.046875 Z M15.390625,6.640625 L15.390625,9.046875 L19.203125,9.046875 L19.203125,6.640625 Z" transform="translate(-0.1328125, 20.109375) scale(1, -1)"/>
</svg>