<svg height="21.984375" viewBox="0 0 24 21.984375" width="24" xmlns="http://www.w3.org/2000/svg">
<path d="M2.71875,19.78125 L2.5,19.5625 C3.4375,18.859375 4.5625,17.609375 4.9375,16.578125 C6.625,15.546875 7.6875,18.890625 2.71875,19.78125 Z M1.0625,14.765625 L0.84375,14.546875 C1.78125,13.921875 2.8125,12.796875 3.125,11.8125 C4.78125,10.796875 5.859375,14.15625 1.0625,14.765625 Z M2.015625,4.796875 C1.75,4.796875 0.984375,4.796875 0.984375,4.796875 L0.984375,4.265625 C1.515625,4.21875 1.828125,4.171875 2.140625,3.9375 C2.640625,3.59375 2.78125,1.703125 2.46875,-0.71875 C2.515625,-1.4375 2.734375,-1.921875 3.1875,-1.921875 C3.984375,-1.921875 4.421875,-1.265625 4.46875,-0.28125 C4.53125,1.6875 3.890625,2.8125 3.859375,3.859375 C3.859375,4.46875 4.015625,5.234375 4.203125,5.96875 C4.46875,7.15625 6.21875,12.796875 7.109375,15.84375 L6.671875,15.9375 C2.96875,6.171875 2.96875,6.171875 2.5625,5.328125 C2.375,4.828125 2.296875,4.796875 2.015625,4.796875 Z M9.125,19.75 L8.828125,19.609375 C9.796875,18.484375 10.796875,16.6875 10.921875,15.234375 C12.578125,13.84375 14.109375,17.515625 9.125,19.75 Z M17.71875,20.0625 C17.1875,18.5 16.34375,16.296875 15.671875,14.71875 L7.171875,14.71875 L7.34375,14.015625 L11.1875,14.015625 C10.296875,10.828125 8.25,7.609375 5.5625,5.359375 L5.78125,5.015625 C6.765625,5.609375 7.6875,6.3125 8.515625,7.078125 L8.515625,-0.484375 L5.71875,-0.484375 L5.875,-1.171875 L22.703125,-1.171875 C23.046875,-1.171875 23.25,-1.0625 23.328125,-0.8125 C22.6875,-0.078125 21.578125,0.9375 21.578125,0.9375 L20.609375,-0.484375 L20.5,-0.484375 L20.5,6.765625 L20.765625,6.84375 C21.21875,6.484375 21.703125,6.140625 22.171875,5.859375 C22.390625,6.625 22.921875,7.109375 23.5625,7.203125 L23.59375,7.46875 C20.78125,8.59375 18.046875,11.0625 16.625,14.015625 L22.46875,14.015625 C22.796875,14.015625 23.015625,14.140625 23.09375,14.40625 C22.296875,15.140625 21.046875,16.125 21.046875,16.125 L19.9375,14.71875 L16.265625,14.71875 C17.359375,16.03125 18.578125,17.6875 19.34375,18.796875 C19.875,18.765625 20.1875,18.953125 20.25,19.21875 Z M16.109375,14.015625 C16.84375,11.734375 17.921875,9.796875 19.265625,8.25 L18.71875,7.65625 L10.3125,7.65625 L9.484375,8.046875 C11.09375,9.765625 12.359375,11.78125 13.15625,14.015625 Z M12.078125,-0.484375 L10.03125,-0.484375 L10.03125,6.984375 L12.078125,6.984375 Z M13.34375,-0.484375 L13.34375,6.984375 L15.453125,6.984375 L15.453125,-0.484375 Z M16.734375,-0.484375 L16.734375,6.984375 L18.9375,6.984375 L18.9375,-0.484375 Z" transform="translate(-0.21875, 20.0625) scale(1, -1)"/>
</svg>