<svg height="21.859375" viewBox="0 0 24 21.859375" width="24" xmlns="http://www.w3.org/2000/svg">
<path d="M2.09375,5.015625 C1.828125,5.015625 1.03125,5.015625 1.03125,5.015625 L1.03125,4.484375 C1.53125,4.421875 1.890625,4.375 2.203125,4.15625 C2.6875,3.8125 2.828125,1.84375 2.515625,-0.640625 C2.546875,-1.421875 2.78125,-1.84375 3.21875,-1.84375 C3.984375,-1.84375 4.421875,-1.25 4.46875,-0.21875 C4.5625,1.78125 3.90625,2.96875 3.90625,4.0625 C3.90625,4.625 4.03125,5.328125 4.21875,6.046875 C4.484375,7.109375 6.171875,12.1875 7.03125,14.96875 L6.578125,15.078125 C3.046875,6.34375 3.046875,6.34375 2.640625,5.515625 C2.453125,5.015625 2.359375,5.015625 2.09375,5.015625 Z M2.453125,20.015625 L2.234375,19.796875 C3.1875,19.078125 4.390625,17.859375 4.78125,16.78125 C6.453125,15.8125 7.484375,19.125 2.453125,20.015625 Z M1.0625,14.609375 L0.84375,14.40625 C1.78125,13.78125 2.8125,12.625 3.09375,11.640625 C4.75,10.625 5.8125,13.9375 1.0625,14.609375 Z M9.984375,9.140625 C9.09375,7.796875 7.296875,5.953125 5.640625,4.84375 L5.90625,4.515625 C7.84375,5.40625 9.84375,6.84375 10.875,7.96875 C11.40625,7.84375 11.609375,7.921875 11.765625,8.15625 Z M10.109375,5.734375 C9.140625,4.109375 7.078125,1.84375 5.15625,0.484375 L5.40625,0.140625 C7.65625,1.296875 9.890625,3.140625 11.0625,4.578125 C11.59375,4.4375 11.78125,4.53125 11.953125,4.78125 Z M18.484375,9.140625 C17.609375,7.9375 15.765625,6.265625 14.140625,5.234375 L14.421875,4.921875 C16.3125,5.65625 18.3125,6.984375 19.390625,7.96875 C19.890625,7.84375 20.09375,7.921875 20.28125,8.15625 Z M6.75,18.890625 L6.953125,18.21875 L12.09375,18.21875 L12.09375,14.46875 L9.453125,14.46875 L7.796875,15.234375 C7.578125,13.578125 7.15625,10.515625 6.75,8.421875 C7.515625,8.25 7.890625,8.296875 8.28125,8.515625 L8.46875,9.625 L12.1875,9.625 C12.046875,3.546875 11.71875,0.859375 11.140625,0.234375 C10.9375,0.078125 10.78125,0.03125 10.390625,0.03125 C10.015625,0.03125 9.046875,0.078125 8.421875,0.140625 L8.421875,-0.28125 C8.96875,-0.390625 9.53125,-0.53125 9.765625,-0.765625 C10.03125,-0.984375 10.078125,-1.390625 10.078125,-1.828125 C10.84375,-1.828125 11.609375,-1.578125 12.171875,-1.015625 C13.0625,-0.078125 13.484375,2.640625 13.65625,9.4375 C14.109375,9.53125 14.40625,9.625 14.5625,9.8125 L12.8125,11.25 L11.953125,10.34375 L8.5625,10.34375 C8.765625,11.546875 8.921875,12.84375 9.046875,13.78125 L12.09375,13.78125 L12.09375,12.21875 L12.34375,12.21875 C12.84375,12.21875 13.578125,12.59375 13.609375,12.796875 L13.609375,17.96875 C13.984375,18.046875 14.359375,18.234375 14.5,18.40625 L12.71875,19.78125 L11.875,18.890625 Z M18.796875,5.96875 C17.765625,4.421875 15.640625,2.28125 13.6875,0.953125 L13.9375,0.625 C16.21875,1.703125 18.5,3.4375 19.75,4.78125 C20.140625,4.6875 20.359375,4.734375 20.5,4.875 C20.296875,2.1875 20.015625,0.703125 19.625,0.28125 C19.421875,0.09375 19.21875,0.03125 18.84375,0.03125 C18.390625,0.03125 17.25,0.140625 16.53125,0.1875 L16.515625,-0.21875 C17.15625,-0.34375 17.859375,-0.5 18.125,-0.75 C18.359375,-0.984375 18.4375,-1.390625 18.4375,-1.828125 C19.265625,-1.828125 20.09375,-1.578125 20.65625,-0.984375 C21.59375,-0.046875 21.984375,2.921875 22.15625,9.4375 C22.625,9.5 22.9375,9.625 23.109375,9.8125 L21.328125,11.25 L20.46875,10.34375 L16.515625,10.34375 L16.875,13.78125 L20.359375,13.78125 L20.359375,12.265625 L20.5625,12.265625 C21.09375,12.265625 21.8125,12.671875 21.84375,12.859375 L21.84375,17.953125 C22.296875,18.03125 22.65625,18.21875 22.796875,18.390625 L20.953125,19.796875 L20.109375,18.890625 L14.65625,18.890625 L14.875,18.21875 L20.359375,18.21875 L20.359375,14.46875 L17.28125,14.46875 L15.59375,15.234375 C15.4375,13.609375 15.078125,10.578125 14.734375,8.5 C15.5,8.328125 15.890625,8.40625 16.265625,8.609375 L16.421875,9.625 L20.6875,9.625 C20.640625,7.84375 20.59375,6.34375 20.5,5.0625 Z" transform="translate(0.0234375, 20.015625) scale(1, -1)"/>
</svg>