<svg height="21.9375" viewBox="0 0 24 21.9375" width="24" xmlns="http://www.w3.org/2000/svg">
<path d="M2.765625,19.921875 L2.515625,19.703125 C3.578125,19.015625 4.84375,17.71875 5.296875,16.65625 C7.0625,15.75 7.9375,19.203125 2.765625,19.921875 Z M1.109375,14.546875 L0.890625,14.328125 C1.890625,13.6875 3.046875,12.5 3.390625,11.515625 C5.09375,10.53125 6.078125,13.96875 1.109375,14.546875 Z M19.21875,6.40625 L19.21875,3.796875 L15.046875,3.796875 L15.046875,6.40625 Z M19.21875,7.109375 L15.046875,7.109375 L15.046875,9.671875 L19.21875,9.671875 Z M13.5625,6.40625 L13.5625,3.796875 L9.765625,3.796875 L9.765625,6.40625 Z M13.5625,7.109375 L9.765625,7.109375 L9.765625,9.671875 L13.5625,9.671875 Z M8.25,10.375 L8.25,1.296875 L8.515625,1.296875 C9.140625,1.296875 9.765625,1.65625 9.765625,1.828125 L9.765625,3.09375 L13.5625,3.09375 L13.5625,0.140625 C13.5625,-1.0625 13.984375,-1.4375 15.890625,-1.4375 L18.53125,-1.4375 C22.390625,-1.4375 23.140625,-1.21875 23.140625,-0.53125 C23.140625,-0.234375 22.984375,-0.078125 22.46875,0.125 L22.375,2.375 L22.078125,2.375 C21.84375,1.375 21.578125,0.4375 21.40625,0.140625 C21.3125,0 21.171875,-0.046875 20.90625,-0.078125 C20.5625,-0.09375 19.703125,-0.125 18.578125,-0.125 L16.125,-0.125 C15.1875,-0.125 15.046875,0.03125 15.046875,0.453125 L15.046875,3.09375 L19.21875,3.09375 L19.21875,1.9375 L19.4375,1.9375 C19.9375,1.9375 20.71875,2.296875 20.734375,2.453125 L20.734375,9.4375 C21.140625,9.5 21.5,9.703125 21.625,9.859375 L19.796875,11.25 L18.984375,10.375 L9.890625,10.375 L8.25,11.109375 Z M2.28125,4.921875 C2.015625,4.921875 1.21875,4.921875 1.21875,4.921875 L1.21875,4.390625 C1.734375,4.34375 2.0625,4.296875 2.375,4.078125 C2.90625,3.71875 3.046875,1.796875 2.71875,-0.640625 C2.765625,-1.390625 3.046875,-1.84375 3.484375,-1.84375 C4.296875,-1.84375 4.75,-1.21875 4.796875,-0.1875 C4.890625,1.78125 4.203125,2.875 4.203125,3.984375 C4.203125,4.53125 4.34375,5.296875 4.53125,6.03125 C4.796875,6.859375 5.921875,10.15625 6.90625,12.953125 L7.078125,12.3125 L22.4375,12.3125 C22.78125,12.3125 23.046875,12.4375 23.09375,12.703125 C22.265625,13.421875 21.03125,14.359375 21.03125,14.359375 L19.875,13.03125 L16.5625,13.03125 C17.296875,13.890625 18.046875,14.921875 18.546875,15.71875 C19.03125,15.703125 19.3125,15.90625 19.421875,16.203125 L17.296875,16.75 L21.859375,16.75 C22.203125,16.75 22.4375,16.84375 22.515625,17.109375 C21.703125,17.828125 20.46875,18.765625 20.46875,18.765625 L19.375,17.453125 L15.09375,17.453125 L15.09375,19.25 C15.625,19.34375 15.84375,19.5625 15.890625,19.875 L13.53125,20.09375 L13.53125,17.453125 L7.265625,17.453125 L7.4375,16.75 L10.53125,16.75 L10.34375,16.65625 C10.890625,15.796875 11.421875,14.40625 11.359375,13.296875 C11.46875,13.171875 11.609375,13.078125 11.734375,13.03125 L6.9375,13.03125 L7.78125,15.484375 L7.34375,15.59375 C3.28125,6.265625 3.28125,6.265625 2.859375,5.421875 C2.640625,4.9375 2.546875,4.921875 2.28125,4.921875 Z M16.984375,16.75 C16.734375,15.640625 16.296875,14.140625 15.890625,13.03125 L12.359375,13.03125 C13.171875,13.390625 13.390625,15.3125 10.734375,16.75 Z" transform="translate(-0.015625, 20.09375) scale(1, -1)"/>
</svg>