<svg height="21.984375" viewBox="0 0 24 21.984375" width="24" xmlns="http://www.w3.org/2000/svg">
<path d="M2.453125,19.84375 L2.25,19.625 C3.21875,18.9375 4.4375,17.734375 4.84375,16.734375 C6.546875,15.796875 7.53125,19.15625 2.453125,19.84375 Z M1.15625,14.71875 L0.9375,14.5 C1.875,13.875 2.90625,12.765625 3.21875,11.78125 C4.890625,10.78125 5.96875,14.140625 1.15625,14.71875 Z M2.140625,4.921875 C1.875,4.921875 1.109375,4.921875 1.109375,4.921875 L1.109375,4.390625 C1.609375,4.34375 1.9375,4.296875 2.25,4.078125 C2.765625,3.71875 2.875,1.84375 2.546875,-0.59375 C2.59375,-1.34375 2.859375,-1.78125 3.28125,-1.78125 C4.078125,-1.78125 4.515625,-1.15625 4.5625,-0.140625 C4.625,1.796875 4.015625,2.921875 4.015625,3.984375 C3.984375,4.5625 4.125,5.296875 4.296875,6 C4.578125,7.109375 6.265625,12.34375 7.15625,15.140625 L6.71875,15.265625 C3.09375,6.234375 3.09375,6.234375 2.6875,5.421875 C2.46875,4.921875 2.40625,4.921875 2.140625,4.921875 Z M7.625,11.828125 C7.484375,10.015625 6.8125,8.875 5.921875,8.375 C4.609375,6.703125 8.234375,5.78125 8.234375,9.859375 L13.578125,9.859375 L13.578125,7.03125 L10.3125,7.03125 L8.5625,7.796875 L8.5625,-0.578125 L8.78125,-0.578125 C9.53125,-0.578125 10.03125,-0.21875 10.03125,-0.09375 L10.03125,6.34375 L13.578125,6.34375 L13.578125,-1.890625 L13.828125,-1.890625 C14.609375,-1.890625 15.09375,-1.515625 15.125,-1.421875 L15.125,6.34375 L18.859375,6.34375 L18.859375,1.75 C18.859375,1.421875 18.796875,1.296875 18.390625,1.296875 C17.96875,1.296875 16.078125,1.4375 16.078125,1.4375 L16.078125,1.0625 C16.9375,0.953125 17.453125,0.765625 17.734375,0.5 C18,0.265625 18.125,-0.140625 18.171875,-0.578125 C20.140625,-0.390625 20.375,0.359375 20.375,1.53125 L20.375,6.03125 C20.859375,6.125 21.265625,6.3125 21.4375,6.5 L19.421875,7.984375 L18.625,7.03125 L15.125,7.03125 L15.125,9.859375 L20.59375,9.859375 L20.015625,7.875 L20.375,7.734375 C20.921875,8.1875 21.8125,9.078125 22.34375,9.59375 C22.78125,9.625 23.0625,9.671875 23.203125,9.84375 L21.484375,11.546875 L20.515625,10.5625 L8.203125,10.5625 C8.15625,10.9375 8.109375,11.359375 8.015625,11.8125 Z M13.609375,20.09375 L13.609375,16.65625 L10.65625,16.65625 L10.65625,18.953125 C11.234375,19.0625 11.453125,19.265625 11.5,19.609375 L9.1875,19.84375 L9.1875,16.65625 L6.28125,16.65625 L6.484375,15.953125 L9.1875,15.953125 L9.1875,11.25 L9.484375,11.25 C10.03125,11.25 10.65625,11.5625 10.65625,11.765625 L10.65625,12.75 L18.140625,12.75 L18.140625,11.46875 L18.4375,11.46875 C18.984375,11.46875 19.625,11.78125 19.625,11.96875 L19.625,15.953125 L22.609375,15.953125 C22.9375,15.953125 23.140625,16.078125 23.203125,16.34375 C22.53125,17.046875 21.390625,18.03125 21.390625,18.03125 L20.375,16.65625 L19.625,16.65625 L19.625,18.953125 C20.1875,19.0625 20.421875,19.265625 20.453125,19.609375 L18.140625,19.84375 L18.140625,16.65625 L15.078125,16.65625 L15.078125,19.25 C15.578125,19.34375 15.765625,19.5625 15.8125,19.875 Z M10.65625,13.46875 L10.65625,15.953125 L13.609375,15.953125 L13.609375,13.46875 Z M18.140625,13.46875 L15.078125,13.46875 L15.078125,15.953125 L18.140625,15.953125 Z" transform="translate(-0.0703125, 20.09375) scale(1, -1)"/>
</svg>