<svg height="22.28125" viewBox="0 0 24 22.28125" width="24" xmlns="http://www.w3.org/2000/svg">
<path d="M2.1875,5.015625 C1.921875,5.015625 1.15625,5.015625 1.15625,5.015625 L1.15625,4.484375 C1.65625,4.421875 1.984375,4.375 2.296875,4.15625 C2.78125,3.8125 2.921875,1.84375 2.609375,-0.640625 C2.640625,-1.390625 2.875,-1.84375 3.3125,-1.84375 C4.078125,-1.84375 4.515625,-1.25 4.5625,-0.21875 C4.65625,1.78125 4.015625,2.96875 4.015625,4.03125 C4.015625,4.625 4.125,5.328125 4.296875,6.03125 C4.578125,7.0625 6.234375,12.046875 7.078125,14.765625 L6.640625,14.875 C3.140625,6.3125 3.140625,6.3125 2.765625,5.515625 C2.515625,5.015625 2.453125,5.015625 2.1875,5.015625 Z M2.375,19.890625 L2.140625,19.6875 C3.125,18.953125 4.3125,17.734375 4.734375,16.65625 C6.40625,15.71875 7.421875,19.03125 2.375,19.890625 Z M1.171875,14.234375 L0.9375,14.015625 C1.875,13.421875 2.921875,12.265625 3.21875,11.25 C4.84375,10.265625 5.921875,13.5625 1.171875,14.234375 Z M6.890625,18.234375 L6.625,18.078125 C7.484375,17.203125 8.453125,15.71875 8.59375,14.515625 C10.125,13.375 11.46875,16.703125 6.890625,18.234375 Z M12.953125,10.484375 L15.578125,10.484375 L15.578125,8.1875 L12.953125,8.1875 Z M12.953125,11.1875 L12.953125,13.46875 L15.578125,13.46875 L15.578125,11.1875 Z M19.734375,10.484375 L19.734375,8.1875 L16.984375,8.1875 L16.984375,10.484375 Z M19.734375,11.1875 L16.984375,11.1875 L16.984375,13.46875 L19.734375,13.46875 Z M15.546875,20.359375 L15.546875,17.09375 L10.65625,17.09375 L10.84375,16.390625 L15.546875,16.390625 L15.546875,14.15625 L13.25,14.15625 L11.546875,14.90625 L11.546875,6.28125 L11.765625,6.28125 C12.484375,6.28125 12.953125,6.625 12.953125,6.75 L12.953125,7.484375 L15.546875,7.484375 L15.546875,4.84375 L10.25,4.84375 L10.4375,4.171875 L15.546875,4.171875 L15.546875,0.53125 L15.765625,0.53125 C16.53125,0.53125 17.046875,0.90625 17.046875,1.03125 L17.046875,4.171875 L22.3125,4.171875 C22.65625,4.171875 22.875,4.265625 22.9375,4.53125 C22.15625,5.28125 20.90625,6.265625 20.90625,6.265625 L19.796875,4.84375 L17.046875,4.84375 L17.046875,7.484375 L19.734375,7.484375 L19.734375,6.59375 L19.96875,6.59375 C20.640625,6.59375 21.21875,6.9375 21.21875,7.03125 L21.21875,13.375 C21.671875,13.4375 21.90625,13.578125 22.078125,13.75 L20.40625,15.046875 L19.65625,14.15625 L17.046875,14.15625 L17.046875,16.390625 L22.0625,16.390625 C22.390625,16.390625 22.609375,16.515625 22.6875,16.78125 C21.90625,17.5 20.65625,18.484375 20.65625,18.484375 L19.578125,17.09375 L17.046875,17.09375 L17.046875,19.46875 C17.609375,19.53125 17.859375,19.78125 17.90625,20.09375 Z M9.71875,8.546875 C10.375,8.640625 10.703125,8.8125 10.875,8.96875 L8.859375,10.6875 L7.9375,9.484375 L6.140625,9.484375 L6.28125,8.78125 L8.28125,8.78125 L8.28125,1.875 C7.265625,1.125 6.21875,0.390625 5.515625,-0.03125 L6.71875,-1.921875 C6.890625,-1.796875 7.015625,-1.65625 6.9375,-1.375 C7.625,-0.546875 8.734375,0.9375 9.453125,2.046875 C10.6875,-0.84375 12.28125,-1.4375 15.75,-1.4375 C17.78125,-1.4375 20.109375,-1.4375 21.953125,-1.4375 C22.0625,-0.671875 22.390625,-0.1875 23.046875,-0.078125 L23.046875,0.234375 C20.828125,0.1875 17.96875,0.1875 15.75,0.1875 C12.546875,0.1875 11.0625,0.5 9.71875,2.546875 Z" transform="translate(0.0078125, 20.359375) scale(1, -1)"/>
</svg>