<svg height="21.9375" viewBox="0 0 24 21.9375" width="24" xmlns="http://www.w3.org/2000/svg">
<path d="M2.28125,4.921875 C2.015625,4.921875 1.203125,4.921875 1.203125,4.921875 L1.203125,4.390625 C1.734375,4.34375 2.09375,4.265625 2.40625,4.0625 C2.921875,3.703125 3.046875,1.796875 2.71875,-0.671875 C2.78125,-1.421875 3.046875,-1.875 3.484375,-1.875 C4.296875,-1.875 4.734375,-1.25 4.78125,-0.21875 C4.875,1.75 4.203125,2.859375 4.203125,3.953125 C4.203125,4.53125 4.3125,5.28125 4.53125,6.03125 C4.890625,7.15625 6.859375,12.625 7.875,15.578125 L7.421875,15.671875 C3.28125,6.265625 3.28125,6.265625 2.859375,5.421875 C2.640625,4.9375 2.546875,4.921875 2.28125,4.921875 Z M2.640625,19.9375 L2.40625,19.75 C3.4375,19.03125 4.703125,17.734375 5.109375,16.625 C6.859375,15.703125 7.796875,19.125 2.640625,19.9375 Z M1.078125,14.5625 L0.859375,14.359375 C1.84375,13.703125 2.96875,12.53125 3.28125,11.515625 C4.96875,10.515625 6,13.890625 1.078125,14.5625 Z M7.03125,17.328125 L7.203125,16.65625 L11.25,16.65625 L11.25,14.71875 L11.546875,14.71875 C12.1875,14.71875 12.75,14.953125 12.75,15.09375 L12.75,16.65625 L16.484375,16.65625 L16.484375,14.734375 L16.78125,14.734375 C17.5625,14.765625 17.96875,15.078125 17.96875,15.171875 L17.96875,16.65625 L22.375,16.65625 C22.703125,16.65625 22.9375,16.78125 23.015625,17.015625 C22.265625,17.734375 21.09375,18.671875 21.09375,18.671875 L20.046875,17.328125 L17.96875,17.328125 L17.96875,19.203125 C18.546875,19.265625 18.75,19.53125 18.796875,19.875 L16.484375,20.0625 L16.484375,17.328125 L12.75,17.328125 L12.75,19.203125 C13.296875,19.296875 13.515625,19.53125 13.5625,19.875 L11.25,20.0625 L11.25,17.328125 Z M8.1875,13.875 L8.1875,7.890625 L8.421875,7.890625 C9.03125,7.890625 9.671875,8.234375 9.671875,8.359375 L9.671875,9.078125 L13.78125,9.078125 L13.78125,7.484375 L13.75,6.8125 L7.390625,6.8125 L7.578125,6.125 L13.703125,6.125 C13.625,5.328125 13.484375,4.609375 13.21875,3.9375 L6.4375,3.9375 L6.625,3.21875 L12.890625,3.21875 C11.859375,1.296875 9.71875,-0.1875 5.59375,-1.4375 L5.765625,-1.84375 C10.96875,-0.71875 13.390625,1.015625 14.5,3.21875 L15.3125,3.21875 C16.578125,0.5 18.796875,-1.0625 22.03125,-1.875 C22.203125,-1.0625 22.703125,-0.5 23.375,-0.34375 L23.375,-0.09375 C20.25,0.21875 17.46875,1.296875 15.9375,3.21875 L22.3125,3.21875 C22.6875,3.21875 22.890625,3.34375 22.96875,3.59375 C22.15625,4.3125 20.90625,5.296875 20.90625,5.296875 L19.78125,3.9375 L14.78125,3.9375 C15.03125,4.625 15.171875,5.359375 15.234375,6.125 L21.625,6.125 C21.953125,6.125 22.203125,6.234375 22.265625,6.5 C21.484375,7.21875 20.234375,8.15625 20.234375,8.15625 L19.15625,6.8125 L15.28125,6.8125 L15.3125,7.515625 L15.3125,9.078125 L19.609375,9.078125 L19.609375,8.25 L19.84375,8.25 C20.359375,8.25 21.140625,8.59375 21.171875,8.734375 L21.171875,12.90625 C21.59375,13.015625 21.984375,13.203125 22.125,13.375 L20.234375,14.8125 L19.390625,13.875 L9.796875,13.875 L8.1875,14.609375 Z M19.609375,9.796875 L15.3125,9.796875 L15.3125,13.171875 L19.609375,13.171875 Z M13.78125,9.796875 L9.671875,9.796875 L9.671875,13.171875 L13.78125,13.171875 Z" transform="translate(-0.1171875, 20.0625) scale(1, -1)"/>
</svg>