<svg height="22.015625" viewBox="0 0 24 22.015625" width="24" xmlns="http://www.w3.org/2000/svg">
<path d="M2.359375,4.9375 C2.09375,4.9375 1.265625,4.9375 1.265625,4.9375 L1.265625,4.421875 C1.796875,4.375 2.140625,4.296875 2.46875,4.078125 C2.96875,3.75 3.125,1.796875 2.78125,-0.640625 C2.828125,-1.421875 3.09375,-1.84375 3.546875,-1.84375 C4.34375,-1.84375 4.796875,-1.21875 4.84375,-0.1875 C4.9375,1.796875 4.265625,2.90625 4.25,3.984375 C4.25,4.578125 4.390625,5.359375 4.578125,6.09375 C4.921875,7.265625 6.796875,12.9375 7.75,15.984375 L7.3125,16.109375 C3.34375,6.3125 3.34375,6.3125 2.90625,5.46875 C2.6875,4.96875 2.59375,4.9375 2.359375,4.9375 Z M2.78125,19.9375 L2.5625,19.75 C3.59375,19.03125 4.84375,17.734375 5.28125,16.625 C7.015625,15.703125 7.96875,19.125 2.78125,19.9375 Z M1.125,14.5625 L0.890625,14.359375 C1.890625,13.703125 3.03125,12.53125 3.34375,11.515625 C5.015625,10.515625 6.046875,13.890625 1.125,14.5625 Z M15.84375,12.890625 C15.671875,12.046875 15.390625,10.875 15.125,9.9375 L11.78125,9.9375 L11.609375,10.015625 C12.28125,10.96875 12.859375,11.96875 13.390625,13.03125 L22.296875,13.03125 C22.625,13.03125 22.890625,13.15625 22.9375,13.421875 C22.171875,14.140625 20.90625,15.171875 20.90625,15.171875 L19.75,13.734375 L13.703125,13.734375 C14.15625,14.734375 14.5625,15.765625 14.875,16.828125 L21.59375,16.828125 C21.9375,16.828125 22.171875,16.9375 22.25,17.203125 C21.484375,17.921875 20.25,18.890625 20.25,18.890625 L19.171875,17.515625 L11.15625,17.515625 C11.453125,18 11.71875,18.484375 11.953125,18.984375 C12.453125,18.953125 12.75,19.171875 12.8125,19.46875 L10.515625,20.140625 C9.90625,17.921875 8.953125,15.71875 8.015625,14.328125 L8.375,14.0625 C9.21875,14.78125 10.015625,15.75 10.734375,16.828125 L13.125,16.828125 C12.859375,15.796875 12.53125,14.765625 12.09375,13.734375 L7.265625,13.734375 L7.4375,13.03125 L11.8125,13.03125 C10.34375,9.765625 8.140625,6.671875 5.453125,4.3125 L5.71875,4.03125 C7.3125,5.140625 8.765625,6.453125 10.015625,7.890625 L10.015625,-1.875 L10.25,-1.875 C10.96875,-1.875 11.46875,-1.484375 11.46875,-1.375 L11.46875,-0.71875 L22.421875,-0.71875 C22.75,-0.71875 22.96875,-0.625 23.046875,-0.359375 C22.25,0.390625 21,1.375 21,1.375 L19.890625,-0.03125 L16.625,-0.03125 L16.625,2.609375 L21.359375,2.609375 C21.640625,2.609375 21.890625,2.734375 21.9375,3 C21.234375,3.71875 20.0625,4.609375 20.0625,4.609375 L19.078125,3.34375 L16.625,3.34375 L16.625,6.03125 L21.390625,6.03125 C21.671875,6.03125 21.90625,6.140625 21.953125,6.40625 C21.265625,7.125 20.09375,8.046875 20.09375,8.046875 L19.109375,6.75 L16.625,6.75 L16.625,9.21875 L22.03125,9.21875 C22.375,9.21875 22.609375,9.34375 22.65625,9.59375 C21.890625,10.3125 20.640625,11.296875 20.640625,11.296875 L19.578125,9.9375 L15.90625,9.9375 C16.46875,10.578125 17.015625,11.296875 17.40625,11.90625 C17.90625,11.90625 18.1875,12.09375 18.28125,12.40625 Z M15.125,9.21875 L15.125,6.75 L11.46875,6.75 L11.46875,9.21875 Z M15.125,-0.03125 L11.46875,-0.03125 L11.46875,2.609375 L15.125,2.609375 Z M15.125,6.03125 L15.125,3.34375 L11.46875,3.34375 L11.46875,6.03125 Z" transform="translate(0.03125, 20.140625) scale(1, -1)"/>
</svg>