<svg height="22.03125" viewBox="0 0 24 22.03125" width="24" xmlns="http://www.w3.org/2000/svg">
<path d="M2.359375,19.75 L2.109375,19.53125 C3.09375,18.8125 4.296875,17.59375 4.703125,16.5625 C6.390625,15.578125 7.390625,18.90625 2.359375,19.75 Z M1.15625,14.15625 L0.9375,13.9375 C1.875,13.34375 2.90625,12.1875 3.1875,11.203125 C4.828125,10.203125 5.90625,13.53125 1.15625,14.15625 Z M2.28125,4.796875 C2.015625,4.796875 1.25,4.796875 1.25,4.796875 L1.25,4.265625 C1.78125,4.21875 2.109375,4.171875 2.40625,3.9375 C2.875,3.59375 3.03125,1.703125 2.71875,-0.71875 C2.765625,-1.46875 3,-1.921875 3.40625,-1.921875 C4.171875,-1.921875 4.609375,-1.296875 4.65625,-0.28125 C4.75,1.65625 4.125,2.8125 4.109375,3.84375 C4.078125,4.4375 4.21875,5.1875 4.390625,5.875 C4.6875,6.953125 6.28125,12.171875 7.078125,14.953125 L6.625,15.046875 C3.21875,6.125 3.21875,6.125 2.859375,5.296875 C2.609375,4.796875 2.546875,4.796875 2.28125,4.796875 Z M10.5625,3.3125 L19.0625,3.3125 L19.0625,0.359375 L10.5625,0.359375 Z M10.5625,4.03125 L10.5625,6.796875 L19.0625,6.796875 L19.0625,4.03125 Z M9.046875,7.46875 L9.046875,-1.921875 L9.28125,-1.921875 C10.0625,-1.921875 10.5625,-1.578125 10.5625,-1.4375 L10.5625,-0.359375 L19.0625,-0.359375 L19.0625,-1.6875 L19.3125,-1.6875 C19.984375,-1.6875 20.59375,-1.34375 20.59375,-1.21875 L20.59375,6.671875 C21.09375,6.75 21.328125,6.890625 21.5,7.078125 L19.75,8.40625 L18.984375,7.46875 L10.828125,7.46875 L9.046875,8.234375 Z M15.046875,16.78125 C15,15.859375 14.6875,13.734375 14.40625,12.890625 C14.953125,12.71875 15.453125,12.796875 15.703125,12.984375 L15.8125,13.6875 L17.328125,13.6875 C16.78125,11.609375 15.625,9.765625 13.25,8.234375 L13.578125,7.84375 C15.890625,9.03125 17.234375,10.46875 18.03125,12.03125 L18.03125,9.9375 C18.03125,9.078125 18.1875,8.765625 19.390625,8.765625 L20.546875,8.765625 C22.53125,8.765625 23.0625,9.03125 23.0625,9.578125 C23.0625,9.8125 22.96875,9.984375 22.578125,10.125 L22.484375,12.046875 L22.203125,12.046875 C22.015625,11.203125 21.8125,10.421875 21.703125,10.15625 C21.59375,10.015625 21.546875,9.984375 21.4375,9.984375 C21.3125,9.953125 20.96875,9.953125 20.59375,9.953125 L19.734375,9.953125 C19.390625,9.953125 19.3125,10.015625 19.3125,10.25 L19.3125,12.453125 C19.6875,12.53125 19.921875,12.75 19.96875,13.015625 L18.5,13.203125 L18.671875,13.6875 L22.46875,13.6875 C22.78125,13.6875 23.015625,13.796875 23.09375,14.0625 C22.4375,14.6875 21.40625,15.5 21.40625,15.5 L20.515625,14.375 L18.84375,14.375 C19.03125,15.265625 19.125,16.203125 19.171875,17.140625 L22.171875,17.140625 C22.515625,17.140625 22.734375,17.25 22.78125,17.515625 C22.15625,18.1875 21.125,19.03125 21.125,19.03125 L20.203125,17.859375 L19.21875,17.859375 L19.265625,19.296875 C19.796875,19.375 19.984375,19.609375 20.046875,19.921875 L17.859375,20.109375 L17.828125,17.859375 L14.8125,17.859375 L15,17.140625 L17.8125,17.140625 C17.765625,16.171875 17.65625,15.265625 17.5,14.375 L15.9375,14.375 L16.15625,15.90625 C16.75,15.984375 16.96875,16.21875 17.046875,16.5625 Z M7.96875,16.734375 C7.890625,15.796875 7.515625,13.578125 7.21875,12.671875 C7.796875,12.53125 8.296875,12.578125 8.5625,12.765625 L8.71875,13.65625 L10.0625,13.65625 C9.5,11.453125 8.375,9.390625 6.046875,7.65625 L6.40625,7.265625 C8.921875,8.765625 10.265625,10.578125 11.015625,12.53125 L11.015625,10.15625 L10.15625,9.9375 L10.984375,8.5 C11.203125,8.5625 11.375,8.765625 11.453125,9.046875 C13.03125,9.796875 14.234375,10.46875 15.046875,10.921875 L14.953125,11.28125 L12.3125,10.484375 L12.3125,12.484375 C12.8125,12.546875 13.03125,12.75 13.078125,13.03125 L11.25,13.21875 L11.375,13.65625 L14.046875,13.65625 C14.375,13.65625 14.59375,13.78125 14.640625,14.046875 C14.046875,14.6875 13.03125,15.546875 13.03125,15.546875 L12.140625,14.375 L11.546875,14.375 C11.734375,15.28125 11.828125,16.203125 11.90625,17.109375 L14.234375,17.109375 C14.5625,17.109375 14.78125,17.234375 14.859375,17.5 C14.203125,18.140625 13.25,18.953125 13.25,18.953125 L12.359375,17.828125 L11.953125,17.828125 L12,19.296875 C12.53125,19.375 12.71875,19.609375 12.765625,19.921875 L10.578125,20.109375 L10.53125,17.828125 L7.078125,17.828125 L7.25,17.109375 L10.515625,17.109375 C10.46875,16.171875 10.375,15.265625 10.203125,14.375 L8.8125,14.375 L9.03125,15.890625 C9.625,15.953125 9.859375,16.203125 9.9375,16.53125 Z" transform="translate(-0.015625, 20.109375) scale(1, -1)"/>
</svg>