<svg height="21.9375" viewBox="0 0 24 21.9375" width="24" xmlns="http://www.w3.org/2000/svg">
<path d="M2.609375,19.84375 L2.40625,19.625 C3.359375,18.90625 4.5625,17.6875 4.9375,16.609375 C6.625,15.640625 7.625,18.953125 2.609375,19.84375 Z M1.15625,14.6875 L0.9375,14.46875 C1.875,13.828125 2.90625,12.703125 3.1875,11.71875 C4.828125,10.703125 5.90625,14.015625 1.15625,14.6875 Z M2.109375,4.875 C1.84375,4.875 1.078125,4.875 1.078125,4.875 L1.078125,4.3125 C1.578125,4.296875 1.921875,4.21875 2.234375,4.015625 C2.734375,3.640625 2.859375,1.78125 2.546875,-0.640625 C2.5625,-1.421875 2.828125,-1.84375 3.265625,-1.84375 C4.03125,-1.84375 4.46875,-1.25 4.515625,-0.234375 C4.578125,1.734375 3.953125,2.859375 3.9375,3.90625 C3.9375,4.484375 4.078125,5.234375 4.265625,5.953125 C4.53125,7.0625 6.234375,12.40625 7.125,15.28125 L6.671875,15.390625 C3.046875,6.171875 3.046875,6.171875 2.65625,5.375 C2.46875,4.875 2.375,4.875 2.109375,4.875 Z M16.9375,2.953125 L16.734375,2.71875 C18.21875,1.78125 20.359375,0.046875 21.21875,-1.15625 C23.046875,-1.890625 23.5625,1.53125 16.9375,2.953125 Z M10.4375,3.265625 C9.578125,1.921875 7.734375,0.09375 5.96875,-0.953125 L6.234375,-1.296875 C8.328125,-0.546875 10.4375,0.8125 11.59375,1.96875 C12.125,1.84375 12.28125,1.9375 12.453125,2.1875 Z M6.359375,11.609375 L7.21875,9.796875 C7.4375,9.859375 7.65625,10.0625 7.75,10.3125 C10.875,11.234375 13.203125,12.03125 14.828125,12.546875 L14.765625,12.9375 L11.40625,12.359375 L11.40625,14.421875 L14.109375,14.421875 C14.421875,14.421875 14.640625,14.546875 14.71875,14.8125 C14.09375,15.40625 13.109375,16.25 13.109375,16.25 L12.21875,15.125 L11.40625,15.125 L11.40625,17.0625 L14.375,17.0625 C14.71875,17.0625 14.921875,17.1875 15,17.453125 C14.328125,18.125 13.296875,18.9375 13.296875,18.9375 L12.359375,17.78125 L11.40625,17.78125 L11.40625,19.25 C11.921875,19.3125 12.140625,19.53125 12.171875,19.84375 L9.984375,20.046875 L9.984375,17.78125 L7.015625,17.78125 L7.203125,17.0625 L9.984375,17.0625 L9.984375,15.125 L7.4375,15.125 L7.625,14.421875 L9.984375,14.421875 L9.984375,12.140625 C8.421875,11.90625 7.125,11.71875 6.359375,11.609375 Z M14.859375,18.546875 L15.078125,17.859375 L17.0625,17.859375 C16.9375,15.703125 16.484375,13.078125 14.015625,10.828125 L14.375,10.4375 C17.59375,12.546875 18.34375,15.4375 18.59375,17.859375 L20.828125,17.859375 C20.71875,14.234375 20.421875,12.40625 19.96875,12 C19.796875,11.828125 19.65625,11.8125 19.265625,11.8125 C18.859375,11.8125 17.765625,11.875 17.09375,11.921875 L17.09375,11.515625 C17.71875,11.421875 18.34375,11.234375 18.578125,11.046875 C18.84375,10.828125 18.90625,10.4375 18.90625,10.03125 C19.6875,10.03125 20.40625,10.25 20.90625,10.6875 C21.703125,11.40625 22.109375,13.421875 22.25,17.71875 C22.703125,17.765625 22.984375,17.859375 23.140625,18.046875 L21.4375,19.4375 L20.609375,18.546875 Z M6.40625,5.25 L7.171875,3.390625 C7.375,3.4375 7.625,3.578125 7.796875,3.859375 L13.578125,4.3125 L13.578125,-1.875 L13.875,-1.875 C14.6875,-1.875 15.21875,-1.515625 15.21875,-1.421875 L15.21875,4.46875 L20.09375,4.9375 C20.5625,4.375 20.96875,3.796875 21.1875,3.265625 C22.921875,2.296875 23.6875,5.921875 17.90625,7.375 L17.640625,7.15625 C18.265625,6.71875 18.984375,6.125 19.609375,5.453125 L13.21875,5.296875 C14.8125,6.453125 16.53125,7.84375 17.6875,8.859375 C18.234375,8.765625 18.578125,8.875 18.75,9.140625 L16.734375,10.21875 C15.546875,8.8125 13.78125,6.8125 12.28125,5.296875 C9.765625,5.25 7.6875,5.234375 6.40625,5.25 Z M12.640625,11.203125 C12.078125,10.21875 11.40625,9.21875 10.84375,8.375 C10.25,8.6875 9.40625,8.953125 8.296875,9.09375 L8.09375,8.859375 C9.140625,8.25 10.578125,7.03125 11.109375,6.09375 C12.1875,5.65625 12.765625,6.90625 11.5,7.9375 L13.65625,9.796875 C14.140625,9.671875 14.453125,9.84375 14.59375,10.0625 Z" transform="translate(-0.3125, 20.046875) scale(1, -1)"/>
</svg>