<svg height="21.703125" viewBox="0 0 24 21.703125" width="24" xmlns="http://www.w3.org/2000/svg">
<path d="M2.5625,19.828125 L2.359375,19.625 C3.3125,18.890625 4.515625,17.65625 4.890625,16.609375 C6.578125,15.625 7.578125,18.9375 2.5625,19.828125 Z M1.125,14.71875 L0.890625,14.5 C1.828125,13.875 2.859375,12.75 3.140625,11.765625 C4.796875,10.75 5.859375,14.0625 1.125,14.71875 Z M2.15625,4.84375 C1.890625,4.84375 1.125,4.84375 1.125,4.84375 L1.125,4.3125 C1.65625,4.265625 1.96875,4.203125 2.28125,3.984375 C2.734375,3.640625 2.90625,1.734375 2.5625,-0.671875 C2.609375,-1.421875 2.859375,-1.875 3.28125,-1.875 C4.0625,-1.875 4.46875,-1.25 4.515625,-0.265625 C4.609375,1.703125 3.984375,2.859375 3.953125,3.890625 C3.953125,4.484375 4.078125,5.203125 4.265625,5.921875 C4.515625,7.015625 6.09375,12.1875 6.90625,15 L6.453125,15.125 C3.078125,6.171875 3.078125,6.171875 2.71875,5.359375 C2.46875,4.84375 2.421875,4.84375 2.15625,4.84375 Z M12.046875,14.8125 L12.046875,12.40625 L8.609375,12.40625 L8.609375,14.8125 Z M12.046875,15.484375 L8.609375,15.484375 L8.609375,17.90625 L12.046875,17.90625 Z M7.15625,18.578125 L7.15625,-1.84375 L7.421875,-1.84375 C8.109375,-1.84375 8.609375,-1.46875 8.609375,-1.25 L8.609375,11.71875 L12.046875,11.71875 L12.046875,10.375 L12.265625,10.375 C12.75,10.375 13.4375,10.6875 13.46875,10.828125 L13.46875,17.640625 C13.921875,17.734375 14.296875,17.921875 14.453125,18.09375 L12.640625,19.484375 L11.828125,18.578125 L8.71875,18.578125 L7.15625,19.375 Z M16.734375,14.8125 L20.421875,14.8125 L20.421875,12.40625 L16.734375,12.40625 Z M16.734375,15.484375 L16.734375,17.90625 L20.421875,17.90625 L20.421875,15.484375 Z M15.28125,18.578125 L15.28125,10.46875 L15.5,10.46875 C16.109375,10.46875 16.734375,10.796875 16.734375,10.9375 L16.734375,11.71875 L20.421875,11.71875 L20.421875,0.546875 C20.421875,0.171875 20.28125,-0.03125 19.796875,-0.03125 C19.265625,-0.03125 16.703125,0.1875 16.703125,0.1875 L16.703125,-0.1875 C17.859375,-0.34375 18.484375,-0.53125 18.84375,-0.765625 C19.203125,-1.015625 19.3125,-1.421875 19.390625,-1.875 C21.640625,-1.625 21.890625,-0.8125 21.890625,0.390625 L21.890625,17.59375 C22.390625,17.6875 22.78125,17.90625 22.9375,18.078125 L20.96875,19.578125 L20.1875,18.578125 L16.828125,18.578125 L15.28125,19.296875 Z M17.359375,10.484375 C15.71875,9.75 12.578125,8.875 9.90625,8.5625 L10.015625,8.140625 C11.1875,8.140625 12.4375,8.234375 13.609375,8.375 L13.609375,5.78125 L9.34375,5.78125 L9.53125,5.09375 L13.609375,5.09375 L13.609375,1.984375 L9.71875,1.984375 L9.90625,1.265625 L18.9375,1.265625 C19.25,1.265625 19.484375,1.390625 19.5625,1.65625 C18.84375,2.359375 17.6875,3.28125 17.6875,3.28125 L16.65625,1.984375 L15.046875,1.984375 L15.046875,5.09375 L19.515625,5.09375 C19.828125,5.09375 20.046875,5.203125 20.109375,5.46875 C19.421875,6.140625 18.28125,7.0625 18.28125,7.0625 L17.296875,5.78125 L15.046875,5.78125 L15.046875,8.546875 C16.078125,8.71875 17.015625,8.875 17.78125,9.046875 C18.265625,8.859375 18.671875,8.828125 18.859375,9 Z" transform="translate(0.0859375, 19.828125) scale(1, -1)"/>
</svg>