<svg height="21.953125" viewBox="0 0 24 21.953125" width="24" xmlns="http://www.w3.org/2000/svg">
<path d="M2.0625,4.96875 C1.796875,4.96875 1.03125,4.96875 1.03125,4.96875 L1.03125,4.4375 C1.53125,4.390625 1.875,4.34375 2.203125,4.125 C2.65625,3.765625 2.8125,1.828125 2.5,-0.671875 C2.515625,-1.4375 2.765625,-1.890625 3.1875,-1.890625 C3.953125,-1.890625 4.421875,-1.265625 4.4375,-0.265625 C4.53125,1.734375 3.890625,2.921875 3.890625,4.015625 C3.890625,4.578125 4.015625,5.28125 4.203125,5.96875 C4.46875,7.03125 6.09375,12.03125 6.9375,14.734375 L6.484375,14.828125 C3.03125,6.28125 3.03125,6.28125 2.640625,5.46875 C2.421875,4.96875 2.328125,4.96875 2.0625,4.96875 Z M2.421875,20.015625 L2.203125,19.796875 C3.1875,19.078125 4.390625,17.859375 4.796875,16.796875 C6.484375,15.84375 7.484375,19.171875 2.421875,20.015625 Z M1.0625,14.609375 L0.84375,14.40625 C1.75,13.78125 2.78125,12.625 3.078125,11.640625 C4.734375,10.625 5.78125,13.9375 1.0625,14.609375 Z M8.46875,9.71875 L12.75,9.71875 L12.75,7.296875 L8.46875,7.296875 Z M8.46875,10.421875 L8.46875,12.8125 L12.75,12.8125 L12.75,10.421875 Z M7.078125,13.53125 L7.078125,5.65625 L7.265625,5.65625 C7.875,5.65625 8.46875,5.96875 8.46875,6.125 L8.46875,6.59375 L9.84375,6.59375 L9.84375,3.703125 L5.15625,3.703125 L5.359375,2.96875 L9.84375,2.96875 L9.84375,-1.828125 L10.0625,-1.828125 C10.796875,-1.828125 11.28125,-1.515625 11.28125,-1.390625 L11.28125,2.96875 L14.921875,2.96875 L14.953125,2.96875 C14.46875,1.296875 13.65625,-0.265625 12.390625,-1.625 L12.75,-1.890625 C15.8125,0.453125 16.78125,3.703125 17.046875,7.03125 L20.453125,7.03125 L20.453125,0.53125 C20.453125,0.171875 20.359375,0.03125 19.921875,0.03125 C19.484375,0.03125 17.375,0.1875 17.375,0.1875 L17.375,-0.1875 C18.3125,-0.3125 18.859375,-0.5 19.171875,-0.75 C19.46875,-0.984375 19.578125,-1.421875 19.625,-1.875 C21.671875,-1.65625 21.90625,-0.890625 21.90625,0.34375 L21.90625,17.40625 C22.390625,17.5 22.796875,17.6875 22.96875,17.875 L21,19.375 L20.203125,18.390625 L17.453125,18.390625 L15.75,19.15625 L15.75,10.203125 C15.75,7.921875 15.640625,5.734375 15.171875,3.71875 C14.5,4.375 13.6875,5.046875 13.6875,5.046875 L12.671875,3.703125 L11.28125,3.703125 L11.28125,6.59375 L12.75,6.59375 L12.75,5.828125 L13.03125,5.828125 C13.5625,5.828125 14.140625,6.171875 14.15625,6.265625 L14.15625,12.546875 C14.5625,12.625 14.90625,12.8125 15.078125,12.984375 L13.578125,14.359375 L12.859375,13.53125 L11.28125,13.53125 L11.28125,16.15625 L14.765625,16.15625 C15.09375,16.15625 15.3125,16.265625 15.359375,16.53125 C14.6875,17.203125 13.515625,18.1875 13.515625,18.1875 L12.53125,16.84375 L11.28125,16.84375 L11.28125,19.203125 C11.828125,19.296875 12.078125,19.515625 12.125,19.828125 L9.8125,20.0625 L9.8125,16.84375 L6.3125,16.84375 L6.5,16.15625 L9.8125,16.15625 L9.8125,13.53125 L8.59375,13.53125 L7.078125,14.203125 Z M20.453125,17.6875 L20.453125,13.125 L17.15625,13.125 L17.15625,17.6875 Z M20.453125,12.4375 L20.453125,7.734375 L17.09375,7.734375 C17.140625,8.5625 17.15625,9.40625 17.15625,10.21875 L17.15625,12.4375 Z" transform="translate(0.09375, 20.0625) scale(1, -1)"/>
</svg>