<svg height="21.953125" viewBox="0 0 24 21.953125" width="24" xmlns="http://www.w3.org/2000/svg">
<path d="M2.546875,19.734375 L2.328125,19.515625 C3.34375,18.8125 4.5625,17.59375 4.984375,16.5625 C6.71875,15.640625 7.65625,19.03125 2.546875,19.734375 Z M1.15625,14.5 L0.9375,14.28125 C1.875,13.65625 2.90625,12.53125 3.21875,11.546875 C4.875,10.53125 5.953125,13.890625 1.15625,14.5 Z M2.28125,4.921875 C2.015625,4.921875 1.25,4.921875 1.25,4.921875 L1.25,4.390625 C1.75,4.34375 2.0625,4.265625 2.40625,4.0625 C2.875,3.703125 3.03125,1.828125 2.6875,-0.59375 C2.734375,-1.375 3,-1.796875 3.4375,-1.796875 C4.203125,-1.796875 4.625,-1.203125 4.6875,-0.171875 C4.75,1.78125 4.125,2.90625 4.125,3.953125 C4.109375,4.53125 4.25,5.28125 4.421875,6 C4.734375,7.109375 6.4375,12.453125 7.3125,15.3125 L6.890625,15.4375 C3.21875,6.21875 3.21875,6.21875 2.828125,5.421875 C2.59375,4.921875 2.515625,4.921875 2.28125,4.921875 Z M6.578125,9.703125 L6.765625,8.96875 L10.421875,8.96875 L10.34375,8.921875 C10.921875,8.234375 11.5,7.03125 11.46875,6.03125 L11.5625,5.953125 L7.03125,5.953125 L7.21875,5.25 L13.96875,5.25 L13.96875,2.8125 L7.703125,2.8125 L7.890625,2.109375 L13.96875,2.109375 L13.96875,-1.890625 L14.203125,-1.890625 C15,-1.890625 15.5,-1.5625 15.5,-1.46875 L15.5,2.109375 L21.671875,2.109375 C22.015625,2.109375 22.21875,2.234375 22.296875,2.46875 C21.53125,3.21875 20.25,4.15625 20.25,4.15625 L19.171875,2.8125 L15.5,2.8125 L15.5,5.25 L22.515625,5.25 C22.84375,5.25 23.09375,5.375 23.140625,5.609375 C22.390625,6.34375 21.140625,7.296875 21.140625,7.296875 L20.0625,5.953125 L17.140625,5.953125 C17.765625,6.625 18.40625,7.390625 18.859375,7.96875 C19.34375,7.9375 19.65625,8.109375 19.75,8.375 L18.078125,8.96875 L22.6875,8.96875 C23.046875,8.96875 23.25,9.09375 23.296875,9.359375 C22.5625,10.078125 21.3125,11.046875 21.3125,11.046875 L20.203125,9.703125 L15.4375,9.703125 L15.4375,11.71875 L21.328125,11.71875 C21.640625,11.71875 21.890625,11.828125 21.9375,12.078125 C21.1875,12.796875 19.9375,13.734375 19.9375,13.734375 L18.859375,12.40625 L15.4375,12.40625 L15.4375,13.515625 C16.015625,13.5625 16.25,13.796875 16.296875,14.109375 L13.921875,14.375 L13.921875,12.40625 L8.15625,12.40625 L8.359375,11.71875 L13.921875,11.71875 L13.921875,9.703125 Z M12.578125,5.953125 C13.171875,6.453125 13.125,7.9375 10.890625,8.96875 L17.5,8.96875 C17.203125,8.046875 16.796875,6.859375 16.4375,5.953125 Z M16.109375,15.390625 L13.515625,15.390625 L13.515625,18.5 L16.109375,18.5 Z M17.421875,15.390625 L17.421875,18.5 L20.0625,18.5 L20.0625,15.390625 Z M8.140625,19.203125 L8.140625,13.515625 L8.375,13.515625 C9.09375,13.515625 9.578125,13.84375 9.578125,13.984375 L9.578125,14.6875 L20.0625,14.6875 L20.0625,13.75 L20.296875,13.75 C21,13.75 21.578125,14.09375 21.578125,14.1875 L21.578125,18.40625 C22.015625,18.5 22.25,18.625 22.421875,18.796875 L20.734375,20.0625 L19.984375,19.203125 L9.859375,19.203125 L8.140625,19.9375 Z M9.578125,15.390625 L9.578125,18.5 L12.1875,18.5 L12.1875,15.390625 Z" transform="translate(-0.1171875, 20.0625) scale(1, -1)"/>
</svg>