<svg height="22.890625" viewBox="0 0 24 22.890625" width="24" xmlns="http://www.w3.org/2000/svg">
<path d="M2.46875,19.796875 L2.28125,19.578125 C3.265625,18.890625 4.515625,17.65625 4.9375,16.609375 C6.671875,15.703125 7.609375,19.109375 2.46875,19.796875 Z M1.171875,14.40625 L0.9375,14.1875 C1.875,13.578125 2.921875,12.453125 3.21875,11.46875 C4.890625,10.46875 5.96875,13.796875 1.171875,14.40625 Z M2.234375,4.921875 C1.96875,4.921875 1.171875,4.921875 1.171875,4.921875 L1.171875,4.390625 C1.703125,4.34375 2.046875,4.296875 2.359375,4.0625 C2.859375,3.71875 3,1.84375 2.6875,-0.59375 C2.71875,-1.34375 2.96875,-1.796875 3.40625,-1.796875 C4.203125,-1.796875 4.609375,-1.171875 4.65625,-0.171875 C4.75,1.78125 4.109375,2.90625 4.109375,3.953125 C4.078125,4.5625 4.25,5.296875 4.4375,6 C4.78125,7.125 6.703125,12.53125 7.65625,15.4375 L7.21875,15.546875 C3.21875,6.234375 3.21875,6.234375 2.8125,5.421875 C2.59375,4.921875 2.5,4.921875 2.234375,4.921875 Z M9.34375,2.859375 C8.953125,1.15625 7.75,0.03125 6.59375,-0.453125 C5.140625,-2.359375 10.34375,-3.09375 9.71875,2.8125 Z M12.03125,2.71875 L11.6875,2.59375 C12.09375,1.578125 12.40625,0.03125 12.21875,-1.203125 C13.515625,-2.6875 15.484375,0.21875 12.03125,2.71875 Z M15.3125,2.71875 L15.03125,2.5625 C15.84375,1.609375 16.75,0 16.875,-1.25 C18.390625,-2.46875 19.828125,0.84375 15.3125,2.71875 Z M19.15625,3 L18.890625,2.8125 C20.015625,1.75 21.359375,-0.046875 21.703125,-1.46875 C23.46875,-2.6875 24.75,1.15625 19.15625,3 Z M10.203125,15.546875 L19.421875,15.546875 L19.421875,13.609375 L10.203125,13.609375 Z M10.203125,16.25 L10.203125,18.140625 L19.421875,18.140625 L19.421875,16.25 Z M8.734375,18.84375 L8.734375,11.828125 L8.953125,11.828125 C9.71875,11.828125 10.203125,12.171875 10.203125,12.28125 L10.203125,12.90625 L19.421875,12.90625 L19.421875,12.03125 L19.625,12.03125 C20.328125,12.03125 20.90625,12.390625 20.90625,12.484375 L20.90625,18.046875 C21.390625,18.140625 21.625,18.265625 21.765625,18.4375 L20.09375,19.734375 L19.3125,18.84375 L10.484375,18.84375 L8.734375,19.578125 Z M7.5625,9.890625 L7.34375,9.671875 C8.25,9.078125 9.3125,7.984375 9.625,7.0625 C10.78125,6.40625 11.546875,7.984375 9.90625,9.078125 C10.65625,9.640625 11.46875,10.4375 12.171875,11.1875 C12.640625,11.140625 12.9375,11.328125 13.0625,11.546875 L10.890625,12.5 C10.4375,11.375 9.890625,10.203125 9.4375,9.359375 C8.953125,9.59375 8.328125,9.765625 7.5625,9.890625 Z M6.71875,4.96875 L7.578125,3 C7.84375,3.046875 8.0625,3.1875 8.1875,3.5 C10.34375,4.015625 11.96875,4.4375 13.203125,4.78125 C13.421875,4.296875 13.578125,3.796875 13.625,3.34375 C14.953125,2.234375 16.3125,4.9375 12.40625,6.765625 L12.09375,6.625 C12.390625,6.234375 12.703125,5.765625 12.953125,5.25 L10.171875,5.09375 C11.515625,6.234375 12.890625,7.578125 13.78125,8.6875 C14.234375,8.609375 14.59375,8.765625 14.71875,9 L12.640625,9.984375 C11.859375,8.46875 10.5625,6.53125 9.359375,5.0625 C8.25,4.984375 7.3125,4.96875 6.71875,4.96875 Z M14.6875,9.984375 L14.453125,9.765625 C15.34375,9.171875 16.421875,8.09375 16.734375,7.15625 C17.859375,6.53125 18.625,8.046875 17.109375,9.125 C17.859375,9.671875 18.671875,10.390625 19.375,11.109375 C19.84375,11.046875 20.15625,11.234375 20.28125,11.46875 L18.171875,12.484375 C17.6875,11.40625 17.09375,10.25 16.609375,9.4375 C16.125,9.671875 15.484375,9.859375 14.6875,9.984375 Z M14.8125,5.1875 L15.671875,3.21875 C15.90625,3.265625 16.125,3.40625 16.265625,3.71875 C18.390625,4.21875 20.015625,4.65625 21.171875,5.015625 C21.484375,4.46875 21.703125,3.890625 21.796875,3.390625 C23.15625,2.328125 24.40625,5.203125 20.1875,6.953125 L19.890625,6.796875 C20.203125,6.4375 20.5625,5.96875 20.875,5.46875 L17.453125,5.28125 C18.84375,6.359375 20.296875,7.75 21.21875,8.828125 C21.703125,8.765625 22.03125,8.875 22.171875,9.125 L20.140625,10.171875 C19.265625,8.640625 17.875,6.671875 16.65625,5.25 Z" transform="translate(-0.84375, 19.796875) scale(1, -1)"/>
</svg>