<svg height="21.984375" viewBox="0 0 24 21.984375" width="24" xmlns="http://www.w3.org/2000/svg">
<path d="M2.453125,19.75 L2.234375,19.53125 C3.21875,18.84375 4.421875,17.609375 4.828125,16.578125 C6.53125,15.640625 7.484375,18.953125 2.453125,19.75 Z M1.078125,14.5 L0.84375,14.28125 C1.78125,13.65625 2.8125,12.546875 3.09375,11.5625 C4.734375,10.5625 5.78125,13.84375 1.078125,14.5 Z M2.1875,4.96875 C1.921875,4.96875 1.15625,4.96875 1.15625,4.96875 L1.15625,4.421875 C1.6875,4.390625 1.984375,4.3125 2.296875,4.109375 C2.765625,3.75 2.921875,1.84375 2.59375,-0.546875 C2.640625,-1.3125 2.875,-1.75 3.3125,-1.75 C4.078125,-1.75 4.484375,-1.15625 4.53125,-0.140625 C4.625,1.828125 4.015625,2.953125 3.984375,4.015625 C3.984375,4.609375 4.125,5.359375 4.265625,6.078125 C4.53125,7.203125 6.125,12.578125 6.9375,15.453125 L6.484375,15.546875 C3.09375,6.28125 3.09375,6.28125 2.71875,5.46875 C2.5,4.96875 2.453125,4.96875 2.1875,4.96875 Z M13.78125,13.6875 L13.78125,8.8125 L14.046875,8.8125 C14.515625,8.8125 15.125,9.09375 15.125,9.265625 L15.125,12.9375 C15.546875,13.015625 15.75,13.203125 15.765625,13.46875 L15.125,13.53125 C15.8125,14.15625 16.53125,15.03125 17.09375,15.859375 C17.5625,15.8125 17.859375,16.015625 17.953125,16.25 L16.125,16.96875 L22.375,16.96875 C22.703125,16.96875 22.9375,17.09375 23.015625,17.359375 C22.203125,18.09375 20.921875,19.0625 20.921875,19.0625 L19.796875,17.6875 L15.28125,17.6875 L15.28125,19.265625 C15.796875,19.375 16.015625,19.578125 16.0625,19.890625 L13.703125,20.109375 L13.703125,17.6875 L6.984375,17.6875 L7.171875,16.96875 L16.0625,16.96875 C15.59375,15.703125 15.078125,14.40625 14.515625,13.609375 Z M12,16.890625 L11.765625,16.734375 C12.28125,16.171875 12.90625,15.171875 13.015625,14.375 L11.5,15.546875 L10.78125,14.8125 L7.0625,14.8125 L7.25,14.09375 L8.5,14.09375 C8.375,12.453125 7.984375,10.484375 6.125,8.8125 L6.484375,8.453125 C8.921875,10.0625 9.546875,12.234375 9.765625,14.09375 L11.015625,14.09375 C10.96875,11.78125 10.84375,10.828125 10.609375,10.609375 C10.515625,10.515625 10.375,10.484375 10.125,10.484375 C9.796875,10.484375 9.140625,10.53125 8.71875,10.5625 L8.71875,10.109375 C9.046875,10.0625 9.4375,9.953125 9.59375,9.796875 C9.84375,9.59375 9.890625,9.234375 9.890625,8.921875 C10.4375,8.921875 10.96875,9.078125 11.375,9.40625 C11.96875,9.890625 12.171875,10.984375 12.21875,13.96875 C12.625,14.046875 12.890625,14.109375 13.03125,14.296875 C14.1875,13.375 15.390625,15.703125 12,16.890625 Z M18.640625,6.03125 L18.640625,3.53125 L10.578125,3.53125 C10.703125,4.125 10.75,4.75 10.75,5.328125 L10.75,6.03125 Z M9.1875,8.65625 L9.1875,5.375 C9.1875,3.03125 8.765625,0.28125 6.1875,-1.5625 L6.484375,-1.84375 C8.875,-0.671875 9.953125,1.0625 10.4375,2.8125 L18.640625,2.8125 L18.640625,-1.875 L18.9375,-1.875 C19.53125,-1.875 20.1875,-1.515625 20.1875,-1.34375 L20.1875,7.734375 C20.8125,7.828125 21.03125,8.046875 21.078125,8.375 L18.640625,8.640625 L18.640625,6.75 L10.75,6.75 L10.75,7.796875 C11.296875,7.875 11.46875,8.109375 11.546875,8.421875 Z M21.046875,16.125 C20.453125,15.71875 19.515625,15.09375 18.671875,14.609375 L17.015625,15.046875 L17.015625,10.609375 L15.9375,10.390625 L16.6875,8.8125 C16.890625,8.859375 17.046875,9.046875 17.140625,9.34375 C18.578125,9.984375 19.734375,10.5625 20.5625,10.96875 C21,10.109375 21.53125,9.40625 22.171875,8.859375 C22.34375,9.53125 22.75,9.90625 23.28125,10.03125 L23.296875,10.296875 C21.859375,10.96875 20.65625,12.40625 20.015625,14.328125 C20.71875,14.515625 21.390625,14.71875 21.859375,14.859375 C22.375,14.734375 22.609375,14.8125 22.703125,15.03125 Z M18.3125,10.890625 L18.3125,13.921875 L19.5625,14.203125 C19.75,13.15625 20.046875,12.21875 20.375,11.40625 Z" transform="translate(-0.0703125, 20.109375) scale(1, -1)"/>
</svg>