<svg height="21.703125" viewBox="0 0 24 21.703125" width="24" xmlns="http://www.w3.org/2000/svg">
<path d="M2.6875,19.828125 L2.46875,19.609375 C3.484375,18.90625 4.703125,17.6875 5.140625,16.625 C6.859375,15.71875 7.796875,19.125 2.6875,19.828125 Z M1.15625,14.640625 L0.9375,14.421875 C1.875,13.796875 2.921875,12.671875 3.21875,11.6875 C4.890625,10.6875 5.96875,14.0625 1.15625,14.640625 Z M2.15625,4.875 C1.890625,4.875 1.109375,4.875 1.109375,4.875 L1.109375,4.34375 C1.609375,4.296875 1.9375,4.21875 2.28125,4.015625 C2.78125,3.671875 2.90625,1.78125 2.5625,-0.640625 C2.609375,-1.421875 2.875,-1.84375 3.3125,-1.84375 C4.109375,-1.84375 4.5625,-1.21875 4.609375,-0.21875 C4.6875,1.734375 4.03125,2.859375 4.03125,3.90625 C4.03125,4.515625 4.171875,5.25 4.34375,6 C4.65625,7.125 6.453125,12.59375 7.421875,15.53125 L6.953125,15.625 C3.125,6.1875 3.125,6.1875 2.71875,5.375 C2.46875,4.875 2.421875,4.875 2.15625,4.875 Z M15.578125,16.125 L15.796875,15.40625 L19.984375,15.40625 L19.984375,13.296875 L15,13.296875 L15.1875,12.578125 L19.984375,12.578125 L19.984375,11.609375 L20.234375,11.609375 C20.734375,11.609375 21.578125,11.90625 21.59375,12.03125 L21.59375,17.921875 C22.03125,18 22.375,18.1875 22.515625,18.34375 L20.609375,19.796875 L19.78125,18.84375 L15.125,18.84375 L15.3125,18.171875 L19.984375,18.171875 L19.984375,16.125 Z M9.796875,12.21875 C9,9.859375 7.265625,6.546875 5.296875,4.390625 L5.59375,4.078125 C6.765625,4.984375 7.890625,6.140625 8.828125,7.34375 L8.828125,-1.875 L9.078125,-1.875 C9.8125,-1.875 10.3125,-1.46875 10.3125,-1.34375 L10.3125,-0.546875 L22.421875,-0.546875 C22.75,-0.546875 22.984375,-0.4375 23.0625,-0.171875 C22.25,0.578125 20.96875,1.578125 20.96875,1.578125 L19.84375,0.171875 L15.890625,0.171875 L15.890625,2.546875 L21.265625,2.546875 C21.578125,2.546875 21.8125,2.65625 21.890625,2.921875 C21.125,3.640625 19.875,4.609375 19.875,4.609375 L18.8125,3.234375 L15.890625,3.234375 L15.890625,5.515625 L21.3125,5.515625 C21.625,5.515625 21.859375,5.609375 21.9375,5.875 C21.171875,6.625 19.921875,7.578125 19.921875,7.578125 L18.84375,6.21875 L15.890625,6.21875 L15.890625,8.421875 L21.890625,8.421875 C22.21875,8.421875 22.46875,8.546875 22.515625,8.78125 C21.75,9.53125 20.46875,10.515625 20.46875,10.515625 L19.375,9.09375 L15,9.09375 C15.578125,9.71875 16.203125,10.421875 16.65625,10.984375 C17.15625,10.984375 17.453125,11.203125 17.546875,11.5 L15.1875,12.03125 C14.96875,11.1875 14.609375,9.984375 14.296875,9.09375 L10.625,9.09375 L10.203125,9.28125 C10.609375,9.9375 10.96875,10.53125 11.234375,11.109375 C11.828125,11.109375 12.03125,11.25 12.125,11.515625 Z M14.40625,8.421875 L14.40625,6.21875 L10.3125,6.21875 L10.3125,8.421875 Z M14.40625,5.515625 L14.40625,3.234375 L10.3125,3.234375 L10.3125,5.515625 Z M14.40625,2.546875 L14.40625,0.171875 L10.3125,0.171875 L10.3125,2.546875 Z M8.1875,16.125 L8.40625,15.40625 L12.5,15.40625 L12.5,13.296875 L7.5625,13.296875 L7.78125,12.578125 L12.5,12.578125 L12.5,11.609375 L12.75,11.609375 C13.25,11.609375 14.09375,11.90625 14.109375,12.03125 L14.109375,17.921875 C14.546875,18 14.875,18.1875 15.03125,18.34375 L13.15625,19.796875 L12.28125,18.84375 L7.6875,18.84375 L7.890625,18.171875 L12.5,18.171875 L12.5,16.125 Z" transform="translate(0, 19.828125) scale(1, -1)"/>
</svg>