<svg height="21.765625" viewBox="0 0 24 21.765625" width="24" xmlns="http://www.w3.org/2000/svg">
<path d="M2.5625,19.84375 L2.375,19.625 C3.359375,18.9375 4.609375,17.71875 5.015625,16.65625 C6.765625,15.75 7.6875,19.15625 2.5625,19.84375 Z M0.90625,14.921875 L0.703125,14.71875 C1.609375,14.09375 2.65625,12.953125 2.953125,11.96875 C4.625,10.984375 5.71875,14.359375 0.90625,14.921875 Z M2.234375,4.78125 C1.96875,4.78125 1.171875,4.78125 1.171875,4.78125 L1.171875,4.25 C1.6875,4.203125 2.015625,4.171875 2.328125,3.9375 C2.828125,3.578125 2.96875,1.703125 2.640625,-0.75 C2.6875,-1.484375 2.953125,-1.921875 3.390625,-1.921875 C4.171875,-1.921875 4.625,-1.296875 4.65625,-0.28125 C4.734375,1.65625 4.109375,2.78125 4.109375,3.84375 C4.109375,4.421875 4.25,5.15625 4.421875,5.90625 C4.734375,7.03125 6.53125,12.5 7.46875,15.453125 L7.03125,15.546875 C3.1875,6.125 3.1875,6.125 2.78125,5.28125 C2.546875,4.78125 2.46875,4.78125 2.234375,4.78125 Z M11.5,15.625 C10.65625,14.25 8.921875,12.390625 7.3125,11.25 L7.5625,10.921875 C9.5,11.8125 11.453125,13.265625 12.484375,14.453125 L12.640625,14.421875 L12.640625,11.09375 L12.859375,11.09375 C13.375,11.09375 14.09375,11.46875 14.109375,11.640625 L14.109375,17.90625 C14.59375,18 14.96875,18.1875 15.125,18.390625 L13.25,19.828125 L12.40625,18.890625 L7.46875,18.890625 L7.65625,18.1875 L10.21875,18.1875 C9.71875,17.28125 8.65625,16.015625 7.65625,15.234375 L7.9375,14.921875 C9.234375,15.453125 10.578125,16.390625 11.328125,17.140625 C11.859375,17.046875 12.03125,17.140625 12.1875,17.359375 L10.578125,18.1875 L12.640625,18.1875 L12.640625,15.03125 Z M9.859375,11.8125 C9.234375,9.59375 7.84375,6.546875 6.046875,4.578125 L6.359375,4.265625 C7.265625,4.984375 8.109375,5.875 8.828125,6.8125 L8.828125,-1.84375 L9.046875,-1.84375 C9.765625,-1.84375 10.265625,-1.46875 10.265625,-1.34375 L10.265625,-0.5 L22.125,-0.5 C22.46875,-0.5 22.703125,-0.390625 22.78125,-0.125 C21.984375,0.59375 20.734375,1.578125 20.734375,1.578125 L19.65625,0.1875 L15.890625,0.1875 L15.890625,2.5 L21.140625,2.5 C21.484375,2.5 21.703125,2.609375 21.765625,2.875 C21,3.59375 19.796875,4.5625 19.796875,4.5625 L18.703125,3.21875 L15.890625,3.21875 L15.890625,5.40625 L21.09375,5.40625 C21.4375,5.40625 21.640625,5.515625 21.71875,5.765625 C20.96875,6.484375 19.78125,7.4375 19.78125,7.4375 L18.703125,6.09375 L15.890625,6.09375 L15.890625,8.296875 L21.59375,8.296875 C21.90625,8.296875 22.15625,8.421875 22.203125,8.65625 C21.453125,9.390625 20.203125,10.375 20.203125,10.375 L19.125,9 L15.1875,9 L16.5625,10.625 C17.046875,10.625 17.359375,10.828125 17.453125,11.140625 L15.5,11.5625 C17.203125,12.3125 18.90625,13.4375 19.921875,14.40625 L19.921875,11.015625 L20.140625,11.015625 C20.640625,11.015625 21.40625,11.375 21.4375,11.515625 L21.4375,17.90625 C21.890625,18 22.265625,18.1875 22.4375,18.359375 L20.546875,19.84375 L19.703125,18.890625 L15.140625,18.890625 L15.34375,18.1875 L17.71875,18.1875 C17.140625,17.28125 16.03125,16.0625 15.03125,15.28125 L15.265625,14.96875 C16.65625,15.5 18.046875,16.390625 18.8125,17.140625 C19.34375,17.046875 19.53125,17.109375 19.6875,17.359375 L18.125,18.1875 L19.921875,18.1875 L19.921875,15.1875 L19.03125,15.703125 C18.1875,14.5 16.484375,12.796875 14.90625,11.78125 L15.125,11.5 C14.921875,10.75 14.65625,9.71875 14.453125,9 L10.5625,9 L10.375,9.09375 C10.65625,9.625 10.921875,10.125 11.140625,10.609375 C11.71875,10.53125 11.921875,10.6875 12.046875,10.9375 Z M14.40625,8.296875 L14.40625,6.09375 L10.265625,6.09375 L10.265625,8.296875 Z M14.40625,5.40625 L14.40625,3.21875 L10.265625,3.21875 L10.265625,5.40625 Z M14.40625,2.5 L14.40625,0.1875 L10.265625,0.1875 L10.265625,2.5 Z" transform="translate(0.2578125, 19.84375) scale(1, -1)"/>
</svg>