<svg height="22.75" viewBox="0 0 24 22.75" width="24" xmlns="http://www.w3.org/2000/svg">
<path d="M2.46875,19.828125 L2.28125,19.609375 C3.265625,18.90625 4.484375,17.6875 4.921875,16.625 C6.625,15.71875 7.5625,19.078125 2.46875,19.828125 Z M1.171875,14.203125 L0.9375,13.984375 C1.890625,13.390625 2.953125,12.265625 3.265625,11.28125 C4.921875,10.3125 5.921875,13.6875 1.171875,14.203125 Z M2.234375,4.796875 C1.96875,4.796875 1.171875,4.796875 1.171875,4.796875 L1.171875,4.265625 C1.6875,4.21875 2.046875,4.171875 2.359375,3.9375 C2.828125,3.59375 2.96875,1.75 2.640625,-0.71875 C2.6875,-1.46875 2.921875,-1.921875 3.359375,-1.921875 C4.125,-1.921875 4.5625,-1.296875 4.609375,-0.28125 C4.703125,1.625 4.078125,2.8125 4.0625,3.8125 C4.0625,4.390625 4.203125,5.09375 4.375,5.765625 C4.6875,6.75 6.4375,11.46875 7.296875,13.984375 L6.859375,14.109375 C3.234375,6.046875 3.234375,6.046875 2.8125,5.28125 C2.59375,4.796875 2.46875,4.796875 2.234375,4.796875 Z M12.53125,1.84375 C11.375,0.75 8.875,-0.75 6.59375,-1.46875 L6.765625,-1.875 C9.265625,-1.421875 11.859375,-0.453125 13.375,0.453125 C13.921875,0.3125 14.296875,0.359375 14.46875,0.578125 Z M16.296875,1.578125 L16.15625,1.203125 C18.3125,0.390625 19.9375,-0.671875 20.859375,-1.5625 C22.375,-2.828125 25.125,0.359375 16.296875,1.578125 Z M11.234375,13.921875 C10.421875,12.890625 8.859375,11.734375 7.484375,10.96875 L7.734375,10.609375 C9.34375,11.09375 11.234375,11.96875 12.1875,12.796875 C12.578125,12.671875 12.859375,12.703125 13.015625,12.90625 Z M9.578125,10.015625 L9.578125,9.546875 C8.40625,9.1875 7.21875,8.875 6.046875,8.640625 L6.140625,8.203125 C7.296875,8.375 8.453125,8.5625 9.578125,8.828125 L9.578125,1.109375 L9.8125,1.109375 C10.578125,1.109375 11.09375,1.484375 11.09375,1.625 L11.09375,2.234375 L19.015625,2.234375 L19.015625,1.3125 L19.25,1.3125 C19.78125,1.3125 20.515625,1.6875 20.546875,1.84375 L20.546875,9.03125 C21,9.125 21.390625,9.3125 21.546875,9.5 L19.65625,10.9375 L18.765625,10.03125 L13.921875,10.03125 C16.484375,10.890625 18.765625,11.90625 20.453125,12.890625 C21.046875,12.71875 21.4375,12.75 21.59375,12.984375 L19.703125,14.25 C18.71875,13.46875 17.328125,12.640625 15.703125,11.875 L15.703125,14.46875 L19.78125,14.46875 C20.109375,14.46875 20.328125,14.59375 20.40625,14.859375 C19.6875,15.484375 18.53125,16.265625 18.53125,16.265625 L17.5625,15.1875 L9.859375,15.1875 L10.0625,14.46875 L14.203125,14.46875 L14.203125,11.203125 C13.265625,10.796875 12.265625,10.421875 11.234375,10.078125 L9.578125,10.78125 Z M11.09375,6.953125 L19.015625,6.953125 L19.015625,5.296875 L11.09375,5.296875 Z M11.09375,7.65625 L11.09375,9.1875 L11.546875,9.3125 L19.015625,9.3125 L19.015625,7.65625 Z M11.09375,4.578125 L19.015625,4.578125 L19.015625,2.921875 L11.09375,2.921875 Z M9,18.546875 C8.96875,17.59375 8.328125,16.484375 7.734375,16.0625 C7.25,15.71875 7.015625,15.234375 7.203125,14.78125 C7.484375,14.25 8.296875,14.328125 8.765625,14.71875 C9.1875,15.09375 9.546875,15.84375 9.59375,16.875 L20.375,16.875 L20.046875,15.40625 L20.359375,15.28125 C20.90625,15.546875 21.75,16.203125 22.265625,16.578125 C22.703125,16.609375 22.984375,16.65625 23.140625,16.796875 L21.3125,18.625 L20.25,17.5625 L15.75,17.5625 L15.75,19.03125 C16.3125,19.109375 16.53125,19.34375 16.609375,19.65625 L14.234375,19.921875 L14.234375,17.5625 L9.59375,17.5625 C9.578125,17.875 9.5,18.21875 9.4375,18.546875 Z" transform="translate(-1.03125, 19.921875) scale(1, -1)"/>
</svg>