<svg height="22.96875" viewBox="0 0 24 22.96875" width="24" xmlns="http://www.w3.org/2000/svg">
<path d="M2.546875,19.890625 L2.328125,19.6875 C3.359375,18.9375 4.625,17.609375 5.015625,16.484375 C6.765625,15.5 7.75,19.03125 2.546875,19.890625 Z M1.078125,14.296875 L0.859375,14.0625 C1.875,13.421875 3.078125,12.21875 3.4375,11.15625 C5.109375,10.15625 6.09375,13.5625 1.078125,14.296875 Z M2.328125,4.890625 C2.0625,4.890625 1.265625,4.890625 1.265625,4.890625 L1.265625,4.375 C1.78125,4.3125 2.109375,4.265625 2.453125,4.03125 C2.953125,3.71875 3.078125,1.875 2.765625,-0.53125 C2.8125,-1.265625 3.09375,-1.703125 3.53125,-1.703125 C4.34375,-1.703125 4.796875,-1.078125 4.828125,-0.078125 C4.890625,1.84375 4.25,2.90625 4.25,3.953125 C4.21875,4.53125 4.375,5.296875 4.578125,6.046875 C4.9375,7.203125 6.953125,12.796875 7.96875,15.765625 L7.53125,15.890625 C3.34375,6.234375 3.34375,6.234375 2.90625,5.40625 C2.6875,4.921875 2.59375,4.890625 2.328125,4.890625 Z M12.75,1.6875 C10.96875,0.390625 8.546875,-0.71875 6.4375,-1.421875 L6.71875,-1.84375 C9.046875,-1.4375 11.71875,-0.640625 13.703125,0.34375 C14.15625,0.21875 14.375,0.234375 14.546875,0.484375 Z M16.4375,1.375 L16.3125,0.984375 C18.578125,0.234375 20.25,-0.71875 21.1875,-1.5625 C22.84375,-2.828125 25.703125,0.4375 16.4375,1.375 Z M14.203125,20.140625 L14.203125,18.125 L7.6875,18.125 L7.875,17.421875 L14.203125,17.421875 L14.203125,15.8125 L8.609375,15.8125 L8.8125,15.125 L21.390625,15.125 C21.703125,15.125 21.9375,15.21875 21.984375,15.484375 C21.265625,16.171875 20.046875,17.09375 20.046875,17.09375 L19.015625,15.8125 L15.765625,15.8125 L15.765625,17.421875 L22.375,17.421875 C22.703125,17.421875 22.921875,17.546875 22.984375,17.8125 C22.21875,18.5 20.96875,19.484375 20.96875,19.484375 L19.875,18.125 L15.765625,18.125 L15.765625,19.21875 C16.34375,19.3125 16.609375,19.5625 16.625,19.890625 Z M19.375,7.609375 L19.375,6.40625 L10.796875,6.40625 L10.796875,7.609375 Z M8.421875,13.796875 L8.421875,8.78125 L8.640625,8.78125 C8.859375,8.78125 9.09375,8.828125 9.28125,8.875 L9.28125,1.125 L9.53125,1.125 C10.15625,1.125 10.796875,1.46875 10.796875,1.625 L10.796875,1.890625 L19.375,1.890625 L19.375,1.265625 L19.578125,1.265625 C20.09375,1.265625 20.859375,1.609375 20.875,1.734375 L20.875,7.4375 C21.265625,7.515625 21.578125,7.6875 21.71875,7.84375 L19.9375,9.171875 L19.15625,8.328125 L10.921875,8.328125 L9.484375,8.953125 C9.703125,9.046875 9.84375,9.140625 9.84375,9.1875 L9.84375,9.640625 L20.25,9.640625 L20.25,8.96875 L20.46875,8.96875 C20.953125,8.96875 21.671875,9.34375 21.703125,9.5 L21.703125,12.90625 C22.109375,12.984375 22.46875,13.171875 22.578125,13.34375 L20.828125,14.640625 L20.046875,13.796875 L9.984375,13.796875 L8.421875,14.515625 Z M10.796875,5.71875 L19.375,5.71875 L19.375,4.484375 L10.796875,4.484375 Z M10.796875,3.8125 L19.375,3.8125 L19.375,2.59375 L10.796875,2.59375 Z M20.25,13.109375 L20.25,12.34375 L20.15625,12.34375 L19.9375,12.34375 C19.84375,12.3125 19.6875,12.265625 19.609375,12.265625 C19.5625,12.265625 19.4375,12.265625 19.34375,12.265625 C19.203125,12.234375 18.84375,12.234375 18.484375,12.234375 L17.515625,12.234375 C17.15625,12.234375 17.109375,12.3125 17.109375,12.53125 L17.109375,13.109375 Z M9.84375,10.3125 L9.84375,13.109375 L12.703125,13.109375 C12.53125,12.359375 11.96875,11.734375 10.03125,11.140625 L10.34375,10.75 C13.0625,11.296875 13.84375,12.078125 14.109375,13.109375 L15.90625,13.109375 L15.90625,12.359375 C15.90625,11.609375 16.109375,11.296875 17.203125,11.296875 L18.359375,11.296875 C19.296875,11.296875 19.890625,11.328125 20.25,11.40625 L20.25,10.3125 Z" transform="translate(-1.28125, 20.140625) scale(1, -1)"/>
</svg>