<svg height="22.765625" viewBox="0 0 24 22.765625" width="24" xmlns="http://www.w3.org/2000/svg">
<path d="M0.9375,14.421875 L0.703125,14.203125 C1.484375,13.484375 2.46875,12.21875 2.78125,11.25 C4.3125,10.203125 5.515625,13.25 0.9375,14.421875 Z M2.109375,19.75 L1.890625,19.53125 C2.8125,18.859375 3.890625,17.65625 4.25,16.65625 C5.8125,15.703125 6.84375,18.8125 2.109375,19.75 Z M19.015625,2.609375 L18.71875,2.453125 C19.875,1.421875 21.28125,-0.34375 21.703125,-1.703125 C23.25,-2.71875 24.265625,0.578125 19.015625,2.609375 Z M11.828125,9.9375 L11.515625,9.765625 C12.234375,8.921875 13.078125,7.4375 13.21875,6.34375 C14.5625,5.234375 15.859375,8.0625 11.828125,9.9375 Z M9.5,11.09375 L9.5,5.734375 C9.5,5.421875 9.40625,5.328125 9.078125,5.328125 C8.71875,5.328125 7.03125,5.453125 7.03125,5.453125 L7.03125,5.0625 C7.796875,4.9375 8.25,4.796875 8.5,4.5625 C8.765625,4.3125 8.828125,3.90625 8.875,3.53125 C10.65625,3.75 10.84375,4.421875 10.84375,5.640625 L10.84375,10.25 C11.40625,10.34375 11.609375,10.515625 11.6875,10.84375 Z M12.40625,5.78125 C10.796875,2.109375 8.59375,0.03125 5.203125,-1.421875 L5.40625,-1.890625 C9.1875,-0.71875 11.71875,1.203125 13.625,4.65625 C14.1875,4.578125 14.40625,4.6875 14.546875,4.9375 Z M6.765625,10.109375 C6.3125,8.046875 5.546875,6.03125 4.65625,4.75 L5.015625,4.484375 C6.21875,5.546875 7.3125,7.171875 8.046875,8.96875 C8.546875,8.953125 8.8125,9.171875 8.90625,9.4375 Z M16.296875,2.6875 C15.34375,1.15625 13.21875,-0.578125 11.109375,-1.515625 L11.296875,-1.875 C13.828125,-1.25 16.203125,0.078125 17.46875,1.390625 C18,1.296875 18.21875,1.390625 18.359375,1.625 Z M14.78125,14.875 L14.78125,11.59375 L12.984375,13.171875 L11.953125,11.828125 L10.890625,11.828125 L10.890625,15.09375 L14.015625,15.09375 C14.359375,15.09375 14.5625,15.1875 14.640625,15.453125 C13.984375,16.109375 12.953125,16.9375 12.953125,16.9375 L12.046875,15.796875 L10.890625,15.796875 L10.890625,19.15625 C11.5,19.25 11.734375,19.484375 11.78125,19.828125 L9.546875,20.046875 L9.546875,11.828125 L8.203125,11.828125 L8.203125,17.046875 C8.765625,17.109375 8.96875,17.328125 9,17.640625 L6.953125,17.875 L6.953125,11.828125 L5.640625,11.828125 L6.34375,14.5 L5.875,14.59375 C2.953125,6.140625 2.953125,6.140625 2.609375,5.375 C2.421875,4.875 2.328125,4.875 2.09375,4.875 C1.828125,4.875 1.078125,4.875 1.078125,4.875 L1.078125,4.3125 C1.578125,4.265625 1.890625,4.21875 2.203125,4.015625 C2.65625,3.640625 2.8125,1.703125 2.46875,-0.71875 C2.515625,-1.515625 2.765625,-1.921875 3.171875,-1.921875 C3.9375,-1.921875 4.375,-1.3125 4.390625,-0.3125 C4.484375,1.625 3.859375,2.875 3.859375,3.90625 C3.84375,4.515625 3.953125,5.203125 4.125,5.90625 C4.25,6.59375 4.921875,9.140625 5.5625,11.515625 L5.65625,11.109375 L14.25,11.109375 C14.515625,11.109375 14.71875,11.1875 14.78125,11.375 L14.78125,2.359375 L15,2.359375 C15.703125,2.359375 16.203125,2.6875 16.203125,2.8125 L16.203125,3.84375 L20.25,3.84375 L20.25,2.640625 L20.5,2.640625 C21.171875,2.640625 21.71875,3.03125 21.71875,3.125 L21.71875,14.046875 C22.21875,14.109375 22.515625,14.25 22.6875,14.453125 L20.953125,15.796875 L20.15625,14.875 L18,14.875 C18.453125,15.703125 19.015625,16.75 19.4375,17.6875 L22.578125,17.6875 C22.921875,17.6875 23.140625,17.8125 23.1875,18.078125 C22.4375,18.765625 21.1875,19.75 21.1875,19.75 L20.109375,18.390625 L13.53125,18.390625 L13.734375,17.6875 L17.6875,17.6875 C17.546875,16.796875 17.328125,15.703125 17.15625,14.875 L16.46875,14.875 L14.78125,15.578125 Z M16.203125,10.75 L20.25,10.75 L20.25,8.046875 L16.203125,8.046875 Z M16.203125,11.46875 L16.203125,14.15625 L20.25,14.15625 L20.25,11.46875 Z M16.203125,7.3125 L20.25,7.3125 L20.25,4.515625 L16.203125,4.515625 Z" transform="translate(-0.484375, 20.046875) scale(1, -1)"/>
</svg>