<svg height="22.03125" viewBox="0 0 24 22.03125" width="24" xmlns="http://www.w3.org/2000/svg">
<path d="M1.015625,14.546875 L0.765625,14.359375 C1.5625,13.609375 2.546875,12.359375 2.859375,11.375 C4.390625,10.34375 5.59375,13.390625 1.015625,14.546875 Z M2.0625,19.75 L1.828125,19.53125 C2.734375,18.859375 3.84375,17.65625 4.171875,16.65625 C5.734375,15.703125 6.765625,18.8125 2.0625,19.75 Z M17.015625,17.09375 L16.6875,16.984375 C16.9375,16.21875 17.140625,14.96875 16.9375,13.984375 C17.875,12.796875 19.5625,14.921875 17.015625,17.09375 Z M19.3125,17.46875 L19.03125,17.296875 C19.84375,16.46875 20.8125,15 20.953125,13.875 C22.265625,12.859375 23.453125,15.703125 19.3125,17.46875 Z M2.140625,4.921875 C1.875,4.921875 1.125,4.921875 1.125,4.921875 L1.125,4.390625 C1.65625,4.3125 1.9375,4.265625 2.25,4.0625 C2.71875,3.71875 2.859375,1.734375 2.515625,-0.671875 C2.546875,-1.4375 2.8125,-1.875 3.234375,-1.875 C3.984375,-1.875 4.390625,-1.25 4.4375,-0.265625 C4.53125,1.703125 3.9375,2.921875 3.90625,3.953125 C3.890625,4.5625 4.015625,5.28125 4.15625,5.96875 C4.375,7.015625 5.640625,11.90625 6.28125,14.5625 L5.8125,14.640625 C2.96875,6.234375 2.96875,6.234375 2.640625,5.421875 C2.453125,4.921875 2.40625,4.921875 2.140625,4.921875 Z M19.875,8.421875 L19.875,5.359375 L17.96875,5.359375 L17.96875,8.421875 Z M19.875,9.125 L17.96875,9.125 L17.96875,12.09375 L19.875,12.09375 Z M6.3125,9.21875 L6.3125,-1.921875 L6.53125,-1.921875 C7.125,-1.921875 7.65625,-1.578125 7.65625,-1.4375 L7.65625,4.0625 L11.859375,4.0625 L11.859375,0.34375 C11.859375,0.03125 11.765625,-0.09375 11.375,-0.09375 C10.96875,-0.09375 9.234375,0.03125 9.234375,0.03125 L9.234375,-0.359375 C10.0625,-0.453125 10.515625,-0.625 10.78125,-0.84375 C11.046875,-1.078125 11.140625,-1.46875 11.1875,-1.890625 C13.015625,-1.703125 13.21875,-0.984375 13.21875,0.1875 L13.21875,8.234375 C13.46875,8.25 13.6875,8.359375 13.875,8.421875 L16.53125,8.421875 L16.53125,5.359375 L13.703125,5.359375 L13.921875,4.625 L16.53125,4.625 L16.53125,0.453125 C16.53125,0.125 16.4375,0.03125 16.078125,0.03125 C15.703125,0.03125 13.921875,0.140625 13.921875,0.140625 L13.921875,-0.21875 C14.78125,-0.3125 15.234375,-0.484375 15.53125,-0.75 C15.75,-0.984375 15.859375,-1.421875 15.859375,-1.84375 C17.734375,-1.609375 17.96875,-0.75 17.96875,0.40625 L17.96875,4.625 L19.875,4.625 L19.875,3.40625 L20.09375,3.40625 C20.546875,3.40625 21.234375,3.765625 21.265625,3.90625 L21.265625,8.421875 L22.84375,8.421875 C23.15625,8.421875 23.375,8.546875 23.421875,8.78125 C22.9375,9.4375 21.984375,10.34375 21.984375,10.34375 L21.265625,9.1875 L21.265625,11.96875 C21.625,12.03125 21.9375,12.1875 22.078125,12.359375 L20.421875,13.609375 L19.6875,12.8125 L14.046875,12.8125 L14.25,12.09375 L16.53125,12.09375 L16.53125,9.125 L13.6875,9.125 L12.34375,10.125 L11.609375,9.21875 L7.78125,9.21875 L6.3125,9.90625 Z M14.8125,18.890625 C14.640625,17.640625 14.28125,16.0625 13.78125,14.609375 C13.125,15.265625 12.125,16.0625 12.125,16.0625 L11.203125,14.875 L10.4375,14.875 L10.4375,16.84375 L13.734375,16.84375 C14.046875,16.84375 14.28125,16.96875 14.328125,17.234375 C13.6875,17.921875 12.546875,18.8125 12.546875,18.8125 L11.59375,17.5625 L10.4375,17.5625 L10.4375,19.203125 C11.015625,19.296875 11.28125,19.53125 11.296875,19.875 L9,20.109375 L9,17.5625 L5.828125,17.5625 L6.03125,16.84375 L9,16.84375 L9,14.875 L6.390625,14.875 L6.578125,14.15625 L9,14.15625 L9,11.875 L5.65625,11.875 L5.828125,11.1875 L13.75,11.1875 C14.09375,11.1875 14.296875,11.296875 14.375,11.5625 C13.6875,12.234375 12.578125,13.15625 12.578125,13.15625 L11.59375,11.875 L10.4375,11.875 L10.4375,14.15625 L13.25,14.15625 C13.390625,14.15625 13.53125,14.1875 13.625,14.234375 L13.203125,13.296875 L13.484375,12.953125 C14.609375,14.296875 15.546875,16.125 16.0625,17.546875 C17.765625,17.6875 19.5625,18.03125 20.71875,18.34375 C21.21875,18.140625 21.625,18.125 21.8125,18.3125 L20.203125,19.84375 C19.375,19.34375 17.875,18.703125 16.4375,18.234375 Z M7.65625,4.78125 L7.65625,8.546875 L9.171875,8.546875 L9.171875,4.78125 Z M11.859375,4.78125 L10.3125,4.78125 L10.3125,8.546875 L11.859375,8.546875 Z" transform="translate(-0.109375, 20.109375) scale(1, -1)"/>
</svg>