<svg height="21.875" viewBox="0 0 24 21.875" width="24" xmlns="http://www.w3.org/2000/svg">
<path d="M1.015625,14.546875 L0.765625,14.328125 C1.5625,13.578125 2.546875,12.34375 2.859375,11.375 C4.375,10.3125 5.59375,13.375 1.015625,14.546875 Z M1.890625,19.734375 L1.6875,19.515625 C2.59375,18.84375 3.703125,17.640625 4.03125,16.625 C5.609375,15.703125 6.59375,18.8125 1.890625,19.734375 Z M12.59375,14.609375 C12.078125,13.78125 11.203125,12.578125 10.46875,11.640625 C10.078125,12.546875 9.578125,13.421875 9,14.1875 C9.984375,15.234375 10.796875,16.390625 11.453125,17.640625 L14.421875,17.640625 C14.734375,17.640625 15,17.765625 15.046875,18.03125 C14.296875,18.71875 13.125,19.65625 13.125,19.65625 L12.09375,18.34375 L5.828125,18.34375 L6.03125,17.640625 L9.671875,17.640625 C8.765625,15.640625 7.421875,13.65625 5.8125,12.09375 L6.765625,15.625 L6.28125,15.703125 C2.96875,6.1875 2.96875,6.1875 2.609375,5.375 C2.453125,4.875 2.359375,4.84375 2.109375,4.84375 C1.84375,4.84375 1.109375,4.84375 1.109375,4.84375 L1.109375,4.3125 C1.609375,4.25 1.921875,4.203125 2.234375,3.984375 C2.71875,3.640625 2.828125,1.6875 2.515625,-0.75 C2.5625,-1.515625 2.8125,-1.9375 3.21875,-1.9375 C4.015625,-1.9375 4.421875,-1.34375 4.46875,-0.34375 C4.53125,1.65625 3.90625,2.828125 3.890625,3.890625 C3.859375,4.515625 4.015625,5.25 4.171875,5.96875 C4.3125,6.71875 5.015625,9.21875 5.6875,11.734375 L5.859375,11.546875 C6.859375,12.21875 7.796875,12.953125 8.609375,13.796875 C8.875,13.3125 9.09375,12.796875 9.3125,12.265625 C8.359375,10.515625 6.671875,8.5625 5.015625,7.296875 L5.203125,7.03125 C6.953125,7.890625 8.640625,9.234375 9.84375,10.484375 C9.984375,9.90625 10.109375,9.3125 10.203125,8.734375 C9.046875,6.53125 7.03125,3.9375 4.921875,2.296875 L5.15625,1.96875 C7.125,3.140625 9.03125,4.828125 10.4375,6.40625 C10.5625,3.640625 10.15625,1.21875 9.578125,0.234375 C9.40625,0 9.171875,-0.03125 8.8125,-0.03125 C8.234375,-0.03125 6.546875,0.078125 5.59375,0.140625 L5.59375,-0.265625 C6.484375,-0.40625 7.34375,-0.640625 7.609375,-0.8125 C7.875,-1.0625 8.015625,-1.375 8.046875,-1.84375 C9.4375,-1.84375 10.25,-1.53125 10.703125,-0.890625 C11.421875,0.078125 11.90625,2.203125 11.875,4.6875 L12.140625,4.421875 C13.125,5.109375 14.046875,5.875 14.875,6.703125 L14.875,-1.921875 L15.078125,-1.921875 C15.8125,-1.921875 16.3125,-1.53125 16.3125,-1.421875 L16.3125,-0.34375 L20.421875,-0.34375 L20.421875,-1.734375 L20.65625,-1.734375 C21.140625,-1.734375 21.859375,-1.375 21.890625,-1.21875 L21.890625,7.078125 C22.375,7.15625 22.75,7.34375 22.890625,7.515625 L21.046875,8.953125 L20.1875,8.046875 L16.609375,8.046875 L16.296875,8.1875 C16.9375,8.875 17.515625,9.625 18.078125,10.390625 C18.703125,9.859375 19.34375,9.078125 19.578125,8.421875 C20.921875,7.65625 21.859375,10.109375 18.359375,10.78125 L18.625,11.15625 L22.515625,11.15625 C22.84375,11.15625 23.09375,11.28125 23.140625,11.546875 C22.4375,12.21875 21.265625,13.171875 21.265625,13.171875 L20.234375,11.875 L19.109375,11.875 C20.453125,13.921875 21.484375,16.015625 22.21875,17.859375 C22.875,17.78125 23.09375,17.90625 23.203125,18.1875 L21,18.984375 C20.71875,18.09375 20.359375,17.15625 19.9375,16.21875 C19.390625,16.78125 18.71875,17.328125 18.71875,17.328125 L17.859375,16.171875 L17.40625,16.171875 L17.40625,19.03125 C17.96875,19.125 18.21875,19.34375 18.265625,19.6875 L15.984375,19.9375 L15.984375,16.171875 L12.984375,16.171875 L13.171875,15.453125 L15.984375,15.453125 L15.984375,11.875 L12.640625,11.875 L12.84375,11.15625 L17.28125,11.15625 C16.703125,10.265625 16.109375,9.390625 15.453125,8.546875 L14.875,8.78125 L14.875,7.828125 C13.9375,6.703125 12.9375,5.640625 11.875,4.734375 C11.859375,6.453125 11.59375,8.375 10.984375,10.203125 C12,9.484375 13.03125,8.453125 13.46875,7.609375 C14.921875,6.9375 15.5,9.75 10.75,10.890625 L10.6875,11.109375 C11.6875,11.828125 12.984375,12.765625 13.65625,13.390625 C14.046875,13.265625 14.328125,13.296875 14.46875,13.515625 Z M20.421875,7.3125 L20.421875,4.296875 L16.3125,4.296875 L16.3125,7.3125 Z M20.421875,3.59375 L20.421875,0.390625 L16.3125,0.390625 L16.3125,3.59375 Z M17.40625,15.453125 L19.609375,15.453125 C19.078125,14.28125 18.4375,13.0625 17.734375,11.875 L17.40625,11.875 Z" transform="translate(0.015625, 19.9375) scale(1, -1)"/>
</svg>