<svg height="21.984375" viewBox="0 0 24 21.984375" width="24" xmlns="http://www.w3.org/2000/svg">
<path d="M1.03125,14.90625 L0.8125,14.71875 C1.609375,13.96875 2.59375,12.71875 2.90625,11.734375 C4.421875,10.703125 5.609375,13.734375 1.03125,14.90625 Z M2.234375,19.9375 L2.015625,19.734375 C2.921875,19.03125 4.015625,17.859375 4.375,16.84375 C5.921875,15.890625 6.9375,19.015625 2.234375,19.9375 Z M2.046875,4.984375 C1.78125,4.984375 1.03125,4.984375 1.03125,4.984375 L1.03125,4.46875 C1.53125,4.390625 1.84375,4.375 2.15625,4.125 C2.609375,3.796875 2.765625,1.828125 2.453125,-0.59375 C2.46875,-1.34375 2.71875,-1.796875 3.140625,-1.796875 C3.90625,-1.796875 4.34375,-1.171875 4.390625,-0.1875 C4.46875,1.796875 3.8125,2.96875 3.8125,4.0625 C3.8125,4.625 3.9375,5.359375 4.078125,6.078125 C4.3125,7.15625 5.734375,12.28125 6.484375,15.09375 L6,15.1875 C2.90625,6.3125 2.90625,6.3125 2.546875,5.5 C2.375,4.984375 2.28125,4.984375 2.046875,4.984375 Z M20.25,7.9375 L20.25,4.6875 L16.171875,4.6875 L16.171875,7.9375 Z M12.8125,14.8125 C12.28125,13.96875 11.40625,12.75 10.625,11.78125 C10.21875,12.71875 9.75,13.609375 9.140625,14.40625 C10.078125,15.390625 10.890625,16.46875 11.5,17.640625 L14.359375,17.640625 C14.65625,17.640625 14.90625,17.765625 14.953125,18.03125 C14.203125,18.71875 13.0625,19.65625 13.0625,19.65625 L12,18.34375 L6.03125,18.34375 L6.21875,17.640625 L9.765625,17.640625 C8.859375,15.703125 7.4375,13.78125 5.765625,12.28125 L6.046875,11.90625 C7.03125,12.53125 7.96875,13.25 8.78125,14.046875 C9.078125,13.46875 9.34375,12.859375 9.546875,12.234375 C8.609375,10.53125 7.015625,8.609375 5.375,7.34375 L5.59375,7.0625 C7.25,7.890625 8.90625,9.21875 10.0625,10.421875 C10.21875,9.765625 10.3125,9.125 10.421875,8.5 C9.3125,6.453125 7.3125,4.125 5.359375,2.640625 L5.546875,2.328125 C7.421875,3.3125 9.21875,4.78125 10.578125,6.1875 C10.6875,3.53125 10.265625,1.203125 9.703125,0.265625 C9.546875,-0.03125 9.28125,-0.046875 8.921875,-0.046875 C8.375,-0.046875 6.671875,0.046875 5.6875,0.140625 L5.6875,-0.265625 C6.59375,-0.4375 7.46875,-0.640625 7.734375,-0.84375 C8.015625,-1.0625 8.15625,-1.375 8.1875,-1.875 C9.546875,-1.875 10.390625,-1.5625 10.84375,-0.90625 C11.5625,0.078125 12.046875,2.1875 12.03125,4.6875 L12.28125,4.4375 C13.15625,5.0625 13.9375,5.734375 14.71875,6.453125 L14.71875,-1.921875 L14.953125,-1.921875 C15.671875,-1.921875 16.171875,-1.515625 16.171875,-1.390625 L16.171875,-0.21875 L20.25,-0.21875 L20.25,-1.609375 L20.46875,-1.609375 C20.953125,-1.609375 21.671875,-1.25 21.703125,-1.078125 L21.703125,7.75 C22.109375,7.84375 22.46875,8.015625 22.578125,8.1875 L20.828125,9.53125 L20.046875,8.65625 L16.78125,8.65625 C17.46875,9.484375 18.09375,10.3125 18.703125,11.15625 L22.703125,11.15625 C23.046875,11.15625 23.25,11.28125 23.296875,11.546875 C22.609375,12.21875 21.453125,13.15625 21.453125,13.15625 L20.453125,11.875 L19.171875,11.875 C20.546875,13.96875 21.625,16.078125 22.375,17.953125 C23.015625,17.875 23.234375,18 23.359375,18.28125 L21.125,19.109375 C20.8125,18.1875 20.453125,17.203125 20.015625,16.21875 C19.46875,16.78125 18.8125,17.296875 18.8125,17.296875 L17.96875,16.15625 L17.515625,16.15625 L17.515625,19.15625 C18.09375,19.25 18.34375,19.484375 18.359375,19.828125 L16.078125,20.0625 L16.078125,16.15625 L13.421875,16.15625 L13.609375,15.4375 L16.078125,15.4375 L16.078125,11.875 L12.640625,11.875 L12.84375,11.15625 L17.328125,11.15625 C16.875,10.390625 16.34375,9.640625 15.8125,8.921875 L14.71875,9.40625 L14.71875,7.53125 C13.875,6.546875 12.984375,5.609375 12.03125,4.78125 C12,6.625 11.71875,8.6875 11.0625,10.609375 C12.03125,9.890625 13.015625,8.8125 13.375,7.921875 C14.859375,7.109375 15.59375,10.078125 10.875,11.140625 L10.84375,11.25 C11.859375,12 13.15625,12.9375 13.875,13.5625 C14.25,13.46875 14.546875,13.46875 14.65625,13.6875 Z M20.25,3.984375 L20.25,0.5 L16.171875,0.5 L16.171875,3.984375 Z M17.515625,15.4375 L19.65625,15.4375 C19.109375,14.25 18.484375,13.0625 17.78125,11.875 L17.515625,11.875 Z" transform="translate(-0.0859375, 20.0625) scale(1, -1)"/>
</svg>