<svg height="22.03125" viewBox="0 0 24 22.03125" width="24" xmlns="http://www.w3.org/2000/svg">
<path d="M2.1875,19.921875 L1.9375,19.703125 C2.921875,18.984375 4.15625,17.765625 4.578125,16.703125 C6.28125,15.765625 7.265625,19.15625 2.1875,19.921875 Z M1.15625,14.109375 L0.9375,13.890625 C1.875,13.296875 2.90625,12.140625 3.21875,11.15625 C4.875,10.15625 5.953125,13.53125 1.15625,14.109375 Z M2.25,4.9375 C1.984375,4.9375 1.171875,4.9375 1.171875,4.9375 L1.171875,4.421875 C1.703125,4.375 2.046875,4.296875 2.359375,4.078125 C2.859375,3.75 3,1.84375 2.6875,-0.578125 C2.71875,-1.34375 2.96875,-1.78125 3.40625,-1.78125 C4.203125,-1.78125 4.609375,-1.15625 4.65625,-0.140625 C4.75,1.796875 4.109375,2.921875 4.109375,3.984375 C4.078125,4.5625 4.25,5.296875 4.421875,6.046875 C4.734375,7.15625 6.625,12.625 7.5625,15.53125 L7.125,15.640625 C3.21875,6.265625 3.21875,6.265625 2.8125,5.453125 C2.59375,4.96875 2.5,4.9375 2.25,4.9375 Z M6.640625,17.71875 L6.8125,17.015625 L11.28125,17.015625 L11.28125,15.453125 L11.546875,15.453125 C12.21875,15.453125 12.75,15.703125 12.75,15.84375 L12.75,17.015625 L16.5625,17.015625 L16.5625,15.5 L16.796875,15.5 C17.609375,15.53125 18,15.8125 18,15.9375 L18,17.015625 L22.703125,17.015625 C23.046875,17.015625 23.25,17.140625 23.328125,17.40625 C22.578125,18.078125 21.390625,18.984375 21.390625,18.984375 L20.359375,17.71875 L18,17.71875 L18,19.203125 C18.59375,19.296875 18.796875,19.53125 18.84375,19.84375 L16.5625,20.09375 L16.5625,17.71875 L12.75,17.71875 L12.75,19.203125 C13.34375,19.296875 13.5625,19.53125 13.609375,19.84375 L11.28125,20.09375 L11.28125,17.71875 Z M8.453125,15.046875 L8.453125,10.203125 L8.640625,10.203125 C9.3125,10.203125 9.765625,10.484375 9.765625,10.609375 L9.765625,11.25 L12.625,11.25 L12.625,10.390625 L12.859375,10.390625 C13.46875,10.390625 13.984375,10.703125 13.984375,10.796875 L13.984375,14.25 C14.453125,14.328125 14.6875,14.46875 14.828125,14.640625 L13.25,15.84375 L12.578125,15.046875 L10.0625,15.046875 L8.453125,15.75 Z M9.765625,11.96875 L9.765625,14.328125 L12.625,14.328125 L12.625,11.96875 Z M10.015625,10.96875 C9.1875,8.875 7.4375,5.875 5.5625,4.015625 L5.8125,3.671875 C6.90625,4.4375 7.9375,5.375 8.859375,6.359375 L8.859375,-1.9375 L9.09375,-1.9375 C9.859375,-1.9375 10.375,-1.578125 10.375,-1.46875 L10.375,-0.671875 L22.484375,-0.671875 C22.828125,-0.671875 23.0625,-0.546875 23.140625,-0.28125 C22.3125,0.453125 21.078125,1.421875 21.078125,1.421875 L19.9375,0.046875 L15.859375,0.046875 L15.859375,2.15625 L21.234375,2.15625 C21.578125,2.15625 21.796875,2.28125 21.859375,2.515625 C21.09375,3.234375 19.890625,4.171875 19.890625,4.171875 L18.8125,2.859375 L15.859375,2.859375 L15.859375,4.875 L21.28125,4.875 C21.625,4.875 21.84375,4.984375 21.890625,5.25 C21.171875,5.921875 19.9375,6.90625 19.9375,6.90625 L18.859375,5.5625 L15.859375,5.5625 L15.859375,7.609375 L21.765625,7.609375 C22.109375,7.609375 22.34375,7.734375 22.421875,7.984375 C21.625,8.71875 20.375,9.703125 20.375,9.703125 L19.296875,8.296875 L15.234375,8.296875 C15.671875,8.71875 16.125,9.125 16.46875,9.484375 C16.984375,9.4375 17.25,9.640625 17.359375,9.90625 L16.21875,10.25 C16.734375,10.3125 17.015625,10.53125 17.015625,10.625 L17.015625,11.25 L19.84375,11.25 L19.84375,10.421875 L20.09375,10.421875 C20.71875,10.421875 21.265625,10.734375 21.265625,10.828125 L21.265625,14.25 C21.703125,14.328125 21.90625,14.46875 22.0625,14.640625 L20.5,15.84375 L19.796875,15.046875 L17.28125,15.046875 L15.671875,15.75 L15.671875,10.421875 L15.03125,10.609375 C14.875,9.953125 14.609375,9.03125 14.40625,8.296875 L10.65625,8.296875 L10.515625,8.375 C10.828125,8.8125 11.109375,9.234375 11.359375,9.640625 C11.921875,9.546875 12.125,9.671875 12.265625,9.90625 Z M17.015625,11.96875 L17.015625,14.328125 L19.84375,14.328125 L19.84375,11.96875 Z M14.375,7.609375 L14.375,5.5625 L10.375,5.5625 L10.375,7.609375 Z M14.375,4.875 L14.375,2.859375 L10.375,2.859375 L10.375,4.875 Z M14.375,2.15625 L14.375,0.046875 L10.375,0.046875 L10.375,2.15625 Z" transform="translate(-0.1328125, 20.09375) scale(1, -1)"/>
</svg>