<svg height="22.1875" viewBox="0 0 24 22.1875" width="24" xmlns="http://www.w3.org/2000/svg">
<path d="M1.03125,14.59375 L0.796875,14.40625 C1.578125,13.625 2.5625,12.390625 2.875,11.421875 C4.421875,10.390625 5.609375,13.421875 1.03125,14.59375 Z M1.921875,19.734375 L1.703125,19.515625 C2.609375,18.84375 3.71875,17.640625 4.0625,16.625 C5.609375,15.703125 6.625,18.8125 1.921875,19.734375 Z M2.109375,4.96875 C1.84375,4.96875 1.109375,4.96875 1.109375,4.96875 L1.109375,4.4375 C1.609375,4.375 1.921875,4.34375 2.234375,4.109375 C2.6875,3.765625 2.828125,1.796875 2.5,-0.625 C2.546875,-1.390625 2.78125,-1.828125 3.1875,-1.828125 C3.953125,-1.828125 4.375,-1.203125 4.421875,-0.1875 C4.515625,1.75 3.890625,2.96875 3.890625,4.03125 C3.890625,4.609375 3.984375,5.328125 4.15625,6 C4.375,7.03125 5.71875,11.90625 6.40625,14.515625 L5.921875,14.609375 C2.96875,6.265625 2.96875,6.265625 2.640625,5.46875 C2.453125,4.96875 2.375,4.96875 2.109375,4.96875 Z M18.5,14.8125 L18.5,10.609375 L16.734375,10.609375 L16.734375,14.8125 Z M16.34375,20.09375 C16.015625,17.109375 15.265625,14.09375 14.296875,11.828125 L12.953125,12.84375 L12.265625,12.125 L10.703125,12.125 L10.703125,14.109375 L11.25,14.109375 L11.25,13.515625 L11.515625,13.515625 C12,13.515625 12.59375,13.875 12.59375,14.0625 L12.59375,16.875 L14.8125,16.875 C15.140625,16.875 15.34375,16.984375 15.390625,17.25 C14.828125,17.875 13.84375,18.71875 13.84375,18.71875 L13.03125,17.59375 L12.59375,17.59375 L12.59375,19.078125 C13.109375,19.15625 13.296875,19.34375 13.34375,19.625 L11.25,19.84375 L11.25,17.59375 L9.03125,17.59375 L9.03125,19.078125 C9.5,19.15625 9.71875,19.34375 9.765625,19.625 L7.6875,19.84375 L7.6875,17.59375 L5.71875,17.59375 L5.90625,16.875 L7.6875,16.875 L7.6875,13.296875 L7.9375,13.296875 C8.421875,13.296875 9.03125,13.65625 9.03125,13.84375 L9.03125,14.109375 L9.390625,14.109375 L9.390625,12.125 L7.625,12.125 L6.234375,12.765625 L6.234375,7.203125 L6.4375,7.203125 C6.953125,7.203125 7.515625,7.484375 7.515625,7.609375 L7.515625,8.203125 L9.390625,8.203125 L9.390625,7.015625 L9.390625,6.390625 L5.734375,6.390625 L5.921875,5.65625 L9.359375,5.65625 C9.3125,5.0625 9.265625,4.515625 9.140625,3.984375 L5.421875,3.984375 L5.609375,3.265625 L8.96875,3.265625 C8.453125,1.3125 7.25,-0.21875 4.6875,-1.484375 L4.984375,-1.828125 C7.625,-0.84375 9.078125,0.484375 9.859375,2.09375 C10.9375,1.21875 12.09375,-0.046875 12.453125,-1.125 C14.0625,-2.09375 14.921875,1.171875 10.078125,2.609375 L10.296875,3.265625 L14.421875,3.265625 C14.734375,3.265625 14.953125,3.390625 15.03125,3.640625 C14.40625,4.25 13.421875,5.0625 13.421875,5.0625 L12.546875,3.984375 L10.46875,3.984375 C10.5625,4.515625 10.625,5.09375 10.65625,5.65625 L13.984375,5.65625 C14.296875,5.65625 14.515625,5.78125 14.5625,6.046875 C14.046875,6.625 13.171875,7.296875 13.171875,7.296875 L12.40625,6.390625 L10.703125,6.390625 L10.703125,7.03125 L10.703125,8.203125 L12.4375,8.203125 L12.4375,7.46875 L12.625,7.46875 C13.0625,7.46875 13.703125,7.78125 13.734375,7.921875 L13.734375,11.359375 C13.890625,11.375 14.046875,11.453125 14.140625,11.5 L13.9375,11.0625 L14.328125,10.875 C14.71875,11.328125 15.046875,11.859375 15.390625,12.40625 L15.390625,-1.828125 L15.59375,-1.828125 C16.265625,-1.828125 16.734375,-1.4375 16.734375,-1.3125 L16.734375,0.125 L22.65625,0.125 C22.984375,0.125 23.1875,0.234375 23.234375,0.5 C22.609375,1.171875 21.5,2.109375 21.5,2.109375 L20.546875,0.84375 L19.890625,0.84375 L19.890625,5.015625 L22.25,5.015625 C22.578125,5.015625 22.796875,5.140625 22.875,5.40625 C22.25,6.078125 21.1875,6.953125 21.1875,6.953125 L20.25,5.71875 L19.890625,5.71875 L19.890625,9.90625 L22.171875,9.90625 C22.515625,9.90625 22.734375,10.03125 22.78125,10.296875 C22.15625,10.9375 21.09375,11.828125 21.09375,11.828125 L20.1875,10.609375 L19.890625,10.609375 L19.890625,14.8125 L22.4375,14.8125 C22.78125,14.8125 22.984375,14.921875 23.0625,15.171875 C22.390625,15.84375 21.3125,16.75 21.3125,16.75 L20.359375,15.5 L19.25,15.5 C19.875,16.515625 20.515625,17.6875 20.953125,18.546875 C21.453125,18.546875 21.75,18.765625 21.84375,19.0625 L19.65625,19.625 C19.375,18.4375 18.9375,16.75 18.59375,15.5 L17.015625,15.5 L16.84375,15.578125 C17.25,16.6875 17.59375,17.828125 17.859375,19.015625 C18.390625,19.03125 18.625,19.25 18.703125,19.53125 Z M18.5,9.90625 L18.5,5.71875 L16.734375,5.71875 L16.734375,9.90625 Z M18.5,5.015625 L18.5,0.84375 L16.734375,0.84375 L16.734375,5.015625 Z M9.390625,14.8125 L9.03125,14.8125 L9.03125,16.875 L11.25,16.875 L11.25,14.8125 Z M9.390625,8.90625 L7.515625,8.90625 L7.515625,11.421875 L9.390625,11.421875 Z M10.703125,8.90625 L10.703125,11.421875 L12.4375,11.421875 L12.4375,8.90625 Z" transform="translate(-0.015625, 20.09375) scale(1, -1)"/>
</svg>