<svg height="21.8125" viewBox="0 0 24 21.8125" width="24" xmlns="http://www.w3.org/2000/svg">
<path d="M5.59375,15.5 C5.78125,12.625 4.515625,10.25 3.09375,9.3125 C2.609375,8.953125 2.359375,8.375 2.65625,7.890625 C3.046875,7.390625 4.015625,7.578125 4.703125,8.234375 C5.8125,9.21875 7.125,11.59375 6,15.53125 Z M19.6875,15.71875 C18.453125,13.78125 16.03125,10.890625 13.84375,8.90625 C12.9375,11.5625 12.53125,14.765625 12.34375,18.625 L12.34375,19.015625 C12.90625,19.078125 13.125,19.34375 13.203125,19.6875 L10.65625,19.96875 C10.625,10.109375 11.140625,3.234375 0.9375,-1.421875 L1.203125,-1.84375 C10.171875,1.5625 11.828125,6.671875 12.1875,13.3125 C12.953125,5.953125 15.140625,1.109375 21.4375,-1.828125 C21.671875,-0.9375 22.265625,-0.546875 23.109375,-0.484375 L23.15625,-0.21875 C18.21875,1.6875 15.5,4.4375 14.015625,8.46875 C16.734375,10.109375 19.4375,12.484375 21.03125,14.15625 C21.546875,14.015625 21.765625,14.109375 21.9375,14.359375 Z" transform="translate(-0.046875, 19.96875) scale(1, -1)"/>
</svg>