<svg height="21.6875" viewBox="0 0 24 21.6875" width="24" xmlns="http://www.w3.org/2000/svg">
<path d="M3.078125,14.6875 C3.078125,12.359375 2.09375,10.875 1.484375,10.4375 C0.125,9.359375 1.21875,8.140625 2.453125,9.046875 C3.59375,9.859375 4.03125,11.828125 3.4375,14.6875 Z M8.640625,17.859375 L8.828125,17.140625 L16.5625,17.140625 L16.5625,0.796875 C16.5625,0.40625 16.4375,0.28125 15.953125,0.28125 C15.40625,0.28125 12.765625,0.484375 12.765625,0.484375 L12.765625,0.125 C13.9375,-0.046875 14.59375,-0.28125 15,-0.578125 C15.3125,-0.8125 15.453125,-1.3125 15.5,-1.84375 C17.8125,-1.578125 18.09375,-0.546875 18.09375,0.71875 L18.09375,17.140625 L22.53125,17.140625 C22.875,17.140625 23.09375,17.25 23.140625,17.515625 C22.390625,18.265625 21.140625,19.25 21.140625,19.25 L20.046875,17.859375 Z M9.3125,15.40625 C8.828125,14.453125 7.703125,12.640625 6.75,11.375 C6.84375,13.609375 6.796875,16.125 6.8125,18.9375 C7.390625,19.015625 7.609375,19.25 7.6875,19.578125 L5.296875,19.84375 C5.296875,9.1875 5.828125,2.78125 0.859375,-1.3125 L1.15625,-1.734375 C3.953125,0.09375 5.375,2.421875 6.09375,5.421875 C7.515625,4.171875 9.03125,2.375 9.453125,0.9375 C11.234375,-0.1875 12.234375,3.546875 6.21875,5.953125 C6.5,7.4375 6.640625,9.046875 6.71875,10.828125 C8.140625,11.78125 9.671875,13.0625 10.484375,13.84375 C10.921875,13.6875 11.28125,13.875 11.375,14.046875 Z" transform="translate(0.3671875, 19.84375) scale(1, -1)"/>
</svg>