<svg height="21.921875" viewBox="0 0 24 21.921875" width="24" xmlns="http://www.w3.org/2000/svg">
<path d="M9.90625,8.921875 L10.109375,8.25 L18.484375,8.25 C18.8125,8.25 19.03125,8.375 19.109375,8.640625 C18.34375,9.359375 17.0625,10.375 17.0625,10.375 L15.953125,8.921875 Z M2.6875,14.71875 C2.734375,12.3125 1.9375,10.703125 1.390625,10.21875 C0.171875,9.140625 1.25,8.0625 2.359375,9 C3.34375,9.859375 3.671875,11.8125 3.078125,14.71875 Z M12.75,20.09375 C12.046875,16.15625 10.46875,12.046875 8.515625,9.640625 L8.859375,9.40625 C10.484375,10.78125 11.828125,12.71875 12.890625,14.859375 L20.515625,14.859375 C20.296875,6.90625 19.828125,1.46875 18.859375,0.578125 C18.59375,0.3125 18.390625,0.21875 17.90625,0.21875 C17.359375,0.21875 15.59375,0.390625 14.5,0.5 L14.46875,0.078125 C15.453125,-0.078125 16.484375,-0.359375 16.84375,-0.59375 C17.203125,-0.859375 17.296875,-1.3125 17.296875,-1.828125 C18.4375,-1.828125 19.390625,-1.484375 20.09375,-0.671875 C21.28125,0.71875 21.84375,6.078125 22.0625,14.609375 C22.578125,14.71875 22.890625,14.828125 23.09375,15.03125 L21.21875,16.609375 L20.25,15.546875 L13.21875,15.546875 C13.734375,16.65625 14.140625,17.78125 14.46875,18.90625 C14.96875,18.90625 15.265625,19.171875 15.34375,19.46875 Z M5.046875,19.921875 C5.046875,9.390625 5.546875,2.953125 0.84375,-1.203125 L1.171875,-1.625 C3.765625,0.171875 5.109375,2.453125 5.8125,5.328125 C7.125,4.078125 8.59375,2.25 8.953125,0.796875 C10.65625,-0.40625 11.78125,3.359375 5.90625,5.8125 C6.28125,7.53125 6.4375,9.5 6.5,11.6875 C7.75,12.578125 9.09375,13.703125 9.8125,14.421875 C10.25,14.25 10.578125,14.421875 10.703125,14.609375 L8.640625,16.0625 C8.234375,15.1875 7.34375,13.625 6.53125,12.4375 C6.578125,14.421875 6.546875,16.578125 6.578125,18.984375 C7.15625,19.0625 7.34375,19.3125 7.421875,19.65625 Z" transform="translate(0.3671875, 20.09375) scale(1, -1)"/>
</svg>