<svg height="23.015625" viewBox="0 0 24 23.015625" width="24" xmlns="http://www.w3.org/2000/svg">
<path d="M4.421875,3.890625 C4.421875,1.84375 3.078125,0.390625 1.75,-0.140625 C1.25,-0.40625 0.890625,-0.890625 1.109375,-1.390625 C1.375,-1.96875 2.25,-1.9375 2.96875,-1.53125 C4.15625,-0.90625 5.5625,0.796875 4.84375,3.890625 Z M8.609375,3.796875 L8.296875,3.703125 C8.734375,2.375 9.09375,0.40625 8.90625,-1.15625 C10.25,-2.71875 12.171875,0.546875 8.609375,3.796875 Z M12.953125,3.890625 L12.640625,3.71875 C13.625,2.453125 14.8125,0.390625 15,-1.203125 C16.625,-2.546875 18.046875,1.078125 12.953125,3.890625 Z M17.734375,3.953125 L17.46875,3.75 C19.03125,2.453125 20.96875,0.1875 21.4375,-1.609375 C23.296875,-2.859375 24.390625,1.375 17.734375,3.953125 Z M4.65625,12.3125 L4.65625,4.46875 L4.890625,4.46875 C5.546875,4.46875 6.21875,4.828125 6.21875,4.984375 L6.21875,5.90625 L17.8125,5.90625 L17.8125,4.625 L18.046875,4.625 C18.578125,4.625 19.375,4.984375 19.390625,5.15625 L19.390625,11.296875 C19.875,11.40625 20.234375,11.59375 20.40625,11.78125 L18.4375,13.296875 L17.5625,12.3125 L12.453125,12.3125 L12.453125,15.75 L21.28125,15.75 C21.59375,15.75 21.84375,15.859375 21.90625,16.125 C21.09375,16.890625 19.78125,17.953125 19.78125,17.953125 L18.625,16.46875 L12.453125,16.46875 L12.453125,19.21875 C13.109375,19.3125 13.34375,19.578125 13.390625,19.921875 L10.84375,20.15625 L10.84375,12.3125 L6.359375,12.3125 L4.65625,13.109375 Z M6.21875,6.625 L6.21875,11.609375 L17.8125,11.609375 L17.8125,6.625 Z" transform="translate(-0.640625, 20.15625) scale(1, -1)"/>
</svg>