<svg height="22.140625" viewBox="0 0 24 22.140625" width="24" xmlns="http://www.w3.org/2000/svg">
<path d="M4.921875,19.984375 L4.65625,19.84375 C5.59375,18.890625 6.703125,17.296875 6.90625,16.03125 C8.515625,14.859375 9.84375,18.234375 4.921875,19.984375 Z M5.203125,4.34375 C5.1875,2.59375 4.0625,1.125 2.96875,0.578125 C2.5,0.28125 2.1875,-0.171875 2.40625,-0.640625 C2.65625,-1.15625 3.5,-1.109375 4.15625,-0.703125 C5.109375,-0.078125 6.28125,1.609375 5.609375,4.34375 Z M8.25,4.515625 L7.921875,4.421875 C8.25,3.21875 8.515625,1.4375 8.28125,0.03125 C9.453125,-1.46875 11.359375,1.4375 8.25,4.515625 Z M11.296875,4.75 L11.015625,4.609375 C11.734375,3.703125 12.484375,2.203125 12.53125,1.015625 C13.921875,-0.21875 15.4375,2.828125 11.296875,4.75 Z M14.65625,5.15625 L14.421875,4.9375 C15.28125,4.296875 16.390625,3.125 16.6875,2.1875 C18.171875,1.265625 19.109375,4.265625 14.65625,5.15625 Z M11.375,20.25 C10.96875,18.546875 10.390625,16.75 9.671875,14.96875 L2.375,14.96875 L2.59375,14.25 L9.359375,14.25 C7.515625,9.984375 4.703125,5.828125 0.8125,2.90625 L1.078125,2.640625 C2.765625,3.671875 4.25,4.890625 5.546875,6.21875 L20.78125,6.21875 C20.453125,2.96875 19.78125,0.71875 19.109375,0.21875 C18.84375,0.03125 18.625,-0.03125 18.1875,-0.03125 C17.6875,-0.03125 16.078125,0.09375 15.140625,0.1875 L15.140625,-0.21875 C16.015625,-0.34375 16.84375,-0.546875 17.15625,-0.796875 C17.46875,-1.03125 17.59375,-1.46875 17.59375,-1.890625 C18.5,-1.890625 19.421875,-1.65625 20.046875,-1.15625 C21.125,-0.34375 21.9375,2.234375 22.296875,6.03125 C22.78125,6.09375 23.09375,6.1875 23.25,6.390625 L21.484375,7.828125 L20.59375,6.90625 L19.109375,6.90625 L19.6875,10.203125 C20.046875,10.21875 20.25,10.265625 20.421875,10.4375 L18.90625,11.765625 L18.1875,10.984375 L16.84375,10.984375 L17.5,14.15625 C17.90625,14.1875 18.125,14.234375 18.28125,14.421875 L16.75,15.75 L16.03125,14.96875 L11.328125,14.96875 C11.953125,16.390625 12.453125,17.78125 12.859375,19.125 C13.53125,19.125 13.75,19.25 13.84375,19.578125 Z M17.6875,6.90625 L6.1875,6.90625 C7.171875,7.984375 8.046875,9.125 8.8125,10.296875 L18.28125,10.296875 Z M15.359375,10.984375 L9.234375,10.984375 C9.90625,12.078125 10.484375,13.15625 11.015625,14.25 L16.078125,14.25 Z" transform="translate(-0.03125, 20.25) scale(1, -1)"/>
</svg>