<svg height="21.8125" viewBox="0 0 24 21.8125" width="24" xmlns="http://www.w3.org/2000/svg">
<path d="M2.421875,14.765625 C2.5,12.671875 1.84375,10.984375 1.34375,10.4375 C0.171875,9.21875 1.390625,8.140625 2.453125,9.1875 C3.359375,10.15625 3.484375,12.171875 2.8125,14.765625 Z M17.609375,14.953125 L17.609375,11.453125 L12.140625,11.453125 L12.140625,14.109375 C12.625,14.1875 12.84375,14.40625 12.890625,14.71875 L10.625,14.953125 L10.625,11.453125 L7.125,11.453125 L7.3125,10.75 L10.625,10.75 L10.625,7.0625 L7.4375,7.0625 L7.625,6.359375 L11.765625,6.359375 C11.609375,3.3125 11.0625,0.625 5.6875,-1.515625 L5.96875,-1.921875 C12.3125,0.046875 13.15625,2.90625 13.4375,6.359375 L16.3125,6.359375 L16.3125,-0.078125 C16.3125,-1.109375 16.578125,-1.484375 18.140625,-1.484375 L19.890625,-1.484375 C22.703125,-1.484375 23.296875,-1.203125 23.296875,-0.546875 C23.296875,-0.28125 23.203125,-0.09375 22.75,0.078125 L22.6875,2.921875 L22.34375,2.921875 C22.125,1.734375 21.890625,0.484375 21.71875,0.140625 C21.625,-0.046875 21.546875,-0.09375 21.359375,-0.125 C21.140625,-0.125 20.609375,-0.125 19.9375,-0.125 L18.484375,-0.125 C17.875,-0.125 17.8125,-0.046875 17.8125,0.265625 L17.8125,6.359375 L22.5625,6.359375 C22.890625,6.359375 23.140625,6.484375 23.1875,6.75 C22.515625,7.4375 21.328125,8.40625 21.328125,8.40625 L20.328125,7.0625 L19.078125,7.0625 L19.078125,10.75 L22.703125,10.75 C23.015625,10.75 23.234375,10.875 23.28125,11.140625 C22.625,11.828125 21.5,12.765625 21.5,12.765625 L20.515625,11.453125 L19.078125,11.453125 L19.078125,14.109375 C19.609375,14.1875 19.796875,14.40625 19.84375,14.71875 Z M12.140625,10.75 L17.609375,10.75 L17.609375,7.0625 L12.140625,7.0625 Z M14.1875,19.890625 L14.1875,16.96875 L7.984375,16.96875 L8.1875,16.265625 L14.1875,16.265625 L14.1875,12.9375 L14.46875,12.9375 C15.046875,12.9375 15.703125,13.265625 15.703125,13.4375 L15.703125,16.265625 L22.21875,16.265625 C22.5625,16.265625 22.796875,16.390625 22.875,16.65625 C22.125,17.359375 20.953125,18.3125 20.953125,18.3125 L19.890625,16.96875 L15.703125,16.96875 L15.703125,18.984375 C16.3125,19.0625 16.5625,19.265625 16.625,19.625 Z M7.578125,15.4375 C7.25,14.6875 6.53125,13.3125 5.875,12.21875 C5.90625,14.25 5.90625,16.484375 5.90625,18.90625 C6.453125,18.984375 6.703125,19.203125 6.765625,19.5625 L4.375,19.828125 C4.375,9.484375 4.84375,2.953125 0.890625,-1.296875 L1.21875,-1.703125 C3.671875,0.265625 4.828125,2.78125 5.375,6 C6.4375,4.828125 7.53125,3.171875 7.78125,1.828125 C9.359375,0.59375 10.609375,4.0625 5.46875,6.53125 C5.6875,8.015625 5.8125,9.625 5.859375,11.40625 C6.90625,12.1875 8.09375,13.25 8.734375,13.921875 C9.1875,13.78125 9.53125,13.96875 9.625,14.15625 Z" transform="translate(0.265625, 19.890625) scale(1, -1)"/>
</svg>