<svg height="21.9375" viewBox="0 0 24 21.9375" width="24" xmlns="http://www.w3.org/2000/svg">
<path d="M2.59375,14.953125 C2.640625,12.765625 1.890625,11.109375 1.390625,10.609375 C0.21875,9.5 1.34375,8.453125 2.40625,9.40625 C3.34375,10.3125 3.578125,12.265625 3,14.953125 Z M13.15625,20.015625 C12.265625,15.890625 10.34375,12.5 8.046875,10.390625 L8.328125,10.125 C10.6875,11.546875 12.59375,13.78125 13.9375,16.796875 L20.015625,16.796875 C19.75,14.515625 19.265625,13.078125 18.796875,12.71875 C18.59375,12.59375 18.40625,12.546875 18.03125,12.546875 C17.59375,12.546875 16.296875,12.640625 15.53125,12.703125 L15.53125,12.28125 C16.21875,12.1875 16.890625,12.03125 17.15625,11.78125 C17.46875,11.546875 17.546875,11.140625 17.546875,10.734375 C18.359375,10.734375 19.15625,10.921875 19.734375,11.296875 C20.640625,11.96875 21.265625,13.734375 21.546875,16.625 C22.015625,16.6875 22.296875,16.78125 22.46875,16.96875 L20.71875,18.40625 L19.84375,17.5 L14.234375,17.5 L14.71875,18.8125 C15.265625,18.796875 15.5,19.015625 15.59375,19.296875 Z M14.65625,11.328125 C13.984375,10.75 12.578125,9.765625 11.359375,9.078125 L9.796875,9.578125 L9.796875,-1.875 L9.984375,-1.875 C10.828125,-1.875 11.234375,-1.53125 11.28125,-1.421875 L11.28125,-0.140625 L20.046875,-0.140625 L20.046875,-1.703125 L20.25,-1.703125 C20.765625,-1.703125 21.53125,-1.390625 21.546875,-1.25 L21.546875,8.109375 C22.03125,8.203125 22.4375,8.40625 22.609375,8.59375 L20.65625,10.078125 L19.796875,9.09375 L16.625,9.09375 L16.796875,8.515625 L20.046875,8.515625 L20.046875,4.875 L16.6875,4.875 L16.875,4.15625 L20.046875,4.15625 L20.046875,0.546875 L11.28125,0.546875 L11.28125,4.078125 L14.921875,4.078125 C15.265625,4.078125 15.453125,4.203125 15.5,4.46875 C14.90625,5.140625 13.875,5.96875 13.875,5.96875 L12.984375,4.796875 L11.28125,4.796875 L11.28125,8.375 C11.8125,8.453125 12.09375,8.59375 12.171875,8.78125 C13.46875,9.140625 14.78125,9.59375 15.484375,9.890625 C15.796875,9.75 16.015625,9.75 16.15625,9.890625 Z M8.046875,15.71875 C7.625,14.8125 6.75,13.171875 5.96875,11.953125 C6.03125,14.09375 6,16.4375 6.03125,19.03125 C6.59375,19.125 6.8125,19.34375 6.890625,19.703125 L4.484375,19.9375 C4.484375,9.4375 4.984375,2.8125 0.8125,-1.515625 L1.15625,-1.921875 C3.640625,0.046875 4.875,2.59375 5.453125,5.8125 C6.453125,4.6875 7.53125,3.140625 7.796875,1.890625 C9.34375,0.671875 10.5625,4.015625 5.546875,6.390625 C5.78125,7.875 5.90625,9.53125 5.953125,11.328125 C7.125,12.21875 8.40625,13.46875 9.125,14.203125 C9.546875,14.09375 9.890625,14.25 9.984375,14.453125 Z" transform="translate(0.5859375, 20.015625) scale(1, -1)"/>
</svg>