<svg height="23" viewBox="0 0 24 23" width="24" xmlns="http://www.w3.org/2000/svg">
<path d="M13.9375,14.28125 L13.9375,6.390625 L14.234375,6.390625 C14.8125,6.390625 15.4375,6.703125 15.4375,6.890625 L15.4375,13.421875 C16.015625,13.515625 16.21875,13.703125 16.265625,14.015625 Z M18.859375,14.765625 L18.859375,5.90625 C18.859375,5.59375 18.765625,5.46875 18.390625,5.46875 C18,5.46875 16.015625,5.609375 16.015625,5.609375 L16.015625,5.234375 C16.890625,5.109375 17.40625,4.9375 17.6875,4.734375 C18,4.515625 18.078125,4.15625 18.125,3.75 C20.15625,3.9375 20.40625,4.609375 20.40625,5.859375 L20.40625,13.890625 C20.953125,13.96875 21.1875,14.15625 21.265625,14.5 Z M4.484375,3.09375 C4.34375,1.515625 3.046875,0.3125 1.9375,-0.125 C1.421875,-0.390625 1.03125,-0.859375 1.25,-1.390625 C1.484375,-1.984375 2.375,-2.015625 3.046875,-1.625 C4.125,-1.078125 5.40625,0.484375 4.890625,3.09375 Z M8.140625,3 L7.828125,2.875 C8.328125,1.78125 8.859375,0.078125 8.859375,-1.21875 C10.25,-2.609375 11.953125,0.34375 8.140625,3 Z M12.796875,3 L12.5,2.828125 C13.421875,1.78125 14.546875,0.046875 14.8125,-1.265625 C16.46875,-2.546875 17.8125,0.953125 12.796875,3 Z M17.921875,3.3125 L17.65625,3.09375 C19.078125,1.9375 20.828125,-0.078125 21.3125,-1.6875 C23.1875,-2.8125 24.171875,1.21875 17.921875,3.3125 Z M9.625,10.625 L9.625,8.5625 L4.75,8.5625 L4.75,10.625 Z M9.625,11.359375 L4.75,11.359375 L4.75,13.421875 L9.625,13.421875 Z M3.28125,14.109375 L3.28125,3.703125 L3.53125,3.703125 C4.15625,3.703125 4.75,4.0625 4.75,4.171875 L4.75,7.875 L9.625,7.875 L9.625,5.875 C9.625,5.5625 9.546875,5.453125 9.1875,5.453125 C8.765625,5.453125 7.0625,5.59375 7.0625,5.59375 L7.0625,5.1875 C7.875,5.09375 8.328125,4.921875 8.59375,4.703125 C8.828125,4.484375 8.921875,4.125 8.96875,3.75 C10.875,3.90625 11.09375,4.609375 11.09375,5.765625 L11.09375,13.125 C11.59375,13.203125 11.96875,13.421875 12.125,13.578125 L10.171875,15.046875 L9.390625,14.109375 L4.875,14.109375 L3.28125,14.859375 Z M6.40625,20.046875 L6.140625,19.890625 C6.984375,19.109375 7.96875,17.8125 8.25,16.75 L8.359375,16.703125 L1.078125,16.703125 L1.265625,15.984375 L22.25,15.984375 C22.578125,15.984375 22.796875,16.109375 22.875,16.375 C22.0625,17.109375 20.765625,18.171875 20.765625,18.171875 L19.609375,16.703125 L14.375,16.703125 C15.28125,17.421875 16.171875,18.28125 16.796875,19.015625 C17.328125,18.984375 17.609375,19.171875 17.71875,19.46875 L15.1875,20.1875 C14.8125,19.15625 14.15625,17.734375 13.5625,16.703125 L9.34375,16.703125 C10.109375,17.25 9.859375,19.21875 6.40625,20.046875 Z" transform="translate(-0.6015625, 20.1875) scale(1, -1)"/>
</svg>