<svg height="23" viewBox="0 0 24 23" width="24" xmlns="http://www.w3.org/2000/svg">
<path d="M13.9375,14.28125 L13.9375,6.390625 L14.234375,6.390625 C14.8125,6.390625 15.4375,6.703125 15.4375,6.890625 L15.4375,13.421875 C16.015625,13.515625 16.21875,13.703125 16.265625,14.015625 Z M18.859375,14.65625 L18.859375,5.90625 C18.859375,5.59375 18.765625,5.453125 18.390625,5.453125 C18,5.453125 16.015625,5.609375 16.015625,5.609375 L16.015625,5.234375 C16.890625,5.109375 17.40625,4.9375 17.6875,4.734375 C18,4.484375 18.078125,4.15625 18.125,3.71875 C20.15625,3.9375 20.40625,4.609375 20.40625,5.828125 L20.40625,13.796875 C20.953125,13.875 21.1875,14.0625 21.265625,14.40625 Z M5.609375,12.546875 L5.375,12.3125 C6.21875,11.859375 7.171875,10.890625 7.46875,10.125 C8.921875,9.34375 9.796875,12.1875 5.609375,12.546875 Z M5.59375,9.484375 L5.359375,9.265625 C6.171875,8.765625 7.109375,7.734375 7.390625,6.9375 C8.859375,6.046875 9.796875,8.953125 5.59375,9.484375 Z M4.484375,3.09375 C4.34375,1.515625 3.046875,0.3125 1.9375,-0.125 C1.421875,-0.390625 1.03125,-0.859375 1.25,-1.390625 C1.484375,-1.984375 2.375,-2.015625 3.046875,-1.625 C4.125,-1.078125 5.40625,0.484375 4.890625,3.09375 Z M8.15625,3 L7.84375,2.90625 C8.328125,1.78125 8.859375,0.09375 8.828125,-1.21875 C10.203125,-2.640625 11.921875,0.3125 8.15625,3 Z M12.796875,3 L12.53125,2.859375 C13.421875,1.78125 14.515625,0.078125 14.78125,-1.265625 C16.421875,-2.546875 17.78125,0.9375 12.796875,3 Z M17.921875,3.3125 L17.65625,3.09375 C19.078125,1.9375 20.828125,-0.078125 21.3125,-1.6875 C23.1875,-2.8125 24.171875,1.21875 17.921875,3.3125 Z M6.40625,20.046875 L6.140625,19.890625 C6.984375,19.109375 7.96875,17.8125 8.25,16.75 L8.359375,16.703125 L1.078125,16.703125 L1.265625,15.984375 L22.25,15.984375 C22.578125,15.984375 22.796875,16.109375 22.875,16.375 C22.0625,17.109375 20.765625,18.171875 20.765625,18.171875 L19.609375,16.703125 L14.375,16.703125 C15.28125,17.421875 16.171875,18.28125 16.796875,19.015625 C17.328125,18.984375 17.609375,19.171875 17.71875,19.46875 L15.1875,20.1875 C14.8125,19.15625 14.15625,17.734375 13.5625,16.703125 L9.34375,16.703125 C10.109375,17.25 9.859375,19.21875 6.40625,20.046875 Z M3.3125,14.109375 L3.3125,3.703125 L3.546875,3.703125 C4.171875,3.703125 4.796875,4.0625 4.796875,4.171875 L4.796875,13.421875 L9.859375,13.421875 L9.859375,5.875 C9.859375,5.5625 9.765625,5.453125 9.40625,5.453125 C8.96875,5.453125 7.296875,5.59375 7.296875,5.59375 L7.296875,5.1875 C8.109375,5.09375 8.546875,4.921875 8.8125,4.703125 C9.078125,4.484375 9.140625,4.125 9.1875,3.75 C11.09375,3.90625 11.296875,4.609375 11.296875,5.765625 L11.296875,13.125 C11.8125,13.203125 12.1875,13.421875 12.34375,13.578125 L10.375,15.046875 L9.625,14.109375 L4.921875,14.109375 L3.3125,14.859375 Z" transform="translate(-0.6015625, 20.1875) scale(1, -1)"/>
</svg>