<svg height="22" viewBox="0 0 24 22" width="24" xmlns="http://www.w3.org/2000/svg">
<path d="M2.59375,14.96875 C2.65625,12.625 1.96875,11.046875 1.421875,10.53125 C0.1875,9.484375 1.265625,8.375 2.359375,9.3125 C3.34375,10.171875 3.625,12.09375 2.96875,14.96875 Z M18.578125,14.28125 L14.015625,14.28125 L14.65625,17.09375 L18.578125,17.09375 Z M13.75,20.109375 L13.296875,17.78125 L10.078125,17.78125 L10.296875,17.09375 L13.171875,17.09375 L12.546875,14.28125 L8.859375,14.28125 L9.03125,13.578125 L22.6875,13.578125 C23.015625,13.578125 23.203125,13.703125 23.28125,13.96875 C22.609375,14.65625 21.5,15.546875 21.5,15.546875 L20.546875,14.28125 L20.09375,14.28125 L20.09375,16.796875 C20.546875,16.890625 20.953125,17.09375 21.09375,17.28125 L19.21875,18.703125 L18.34375,17.78125 L14.828125,17.78125 L15.140625,19.21875 C15.59375,19.25 15.90625,19.484375 15.984375,19.828125 Z M10.515625,12.046875 L10.515625,7.078125 L10.734375,7.078125 C11.328125,7.078125 12,7.390625 12,7.515625 L12,8.15625 L19.25,8.15625 L19.25,7.421875 L19.484375,7.421875 C19.984375,7.421875 20.734375,7.78125 20.765625,7.9375 L20.765625,11.09375 C21.21875,11.1875 21.625,11.359375 21.75,11.546875 L19.84375,12.953125 L19.03125,12.046875 L12.125,12.046875 L10.515625,12.765625 Z M19.25,8.828125 L12,8.828125 L12,11.359375 L19.25,11.359375 Z M10.296875,5.5625 L10.296875,1.84375 L8.234375,1.84375 L8.421875,1.15625 L15.9375,1.15625 L15.9375,-1.890625 L16.21875,-1.890625 C16.796875,-1.890625 17.453125,-1.5625 17.453125,-1.375 L17.453125,1.15625 L22.6875,1.15625 C23.015625,1.15625 23.203125,1.265625 23.28125,1.53125 C22.578125,2.234375 21.453125,3.125 21.453125,3.125 L20.453125,1.84375 L17.453125,1.84375 L17.453125,4.890625 L21.890625,4.890625 C22.203125,4.890625 22.4375,5.015625 22.484375,5.28125 C21.796875,5.90625 20.65625,6.71875 20.65625,6.71875 L19.734375,5.5625 L17.453125,5.5625 L17.453125,6.90625 C18.03125,7.015625 18.234375,7.21875 18.28125,7.515625 L15.9375,7.78125 L15.9375,5.5625 L12.09375,5.5625 L10.296875,6.359375 Z M15.9375,1.84375 L11.78125,1.84375 L11.78125,4.890625 L15.9375,4.890625 Z M7.984375,16.203125 C7.625,15.34375 6.84375,13.75 6.125,12.53125 C6.171875,14.5 6.140625,16.65625 6.171875,19.015625 C6.71875,19.078125 6.9375,19.34375 6.984375,19.6875 L4.609375,19.9375 C4.609375,9.84375 5.09375,3.5 0.9375,-0.671875 L1.265625,-1.0625 C3.859375,0.890625 5.0625,3.390625 5.640625,6.59375 C6.59375,5.609375 7.578125,4.265625 7.890625,3.1875 C9.390625,2.109375 10.46875,5.203125 5.734375,7.25 C5.953125,8.640625 6.046875,10.171875 6.09375,11.859375 C7.25,12.765625 8.46875,13.984375 9.140625,14.765625 C9.59375,14.640625 9.90625,14.828125 10.015625,15.03125 Z" transform="translate(0.265625, 20.109375) scale(1, -1)"/>
</svg>