<svg height="22.953125" viewBox="0 0 24 22.953125" width="24" xmlns="http://www.w3.org/2000/svg">
<path d="M4.796875,3.390625 C4.625,1.578125 3.265625,0.234375 2.09375,-0.234375 C1.578125,-0.5 1.265625,-0.9375 1.484375,-1.421875 C1.734375,-1.921875 2.5625,-1.890625 3.21875,-1.515625 C4.296875,-0.90625 5.65625,0.640625 5.234375,3.390625 Z M8.515625,3.09375 L8.203125,3 C8.6875,1.890625 9.03125,0.21875 8.78125,-1.125 C10.03125,-2.5625 11.875,0.453125 8.515625,3.09375 Z M12.859375,3.234375 L12.546875,3.078125 C13.4375,1.96875 14.453125,0.171875 14.59375,-1.21875 C16.078125,-2.5 17.453125,0.859375 12.859375,3.234375 Z M17.5625,3.265625 L17.296875,3.046875 C18.796875,1.96875 20.5625,0 21.03125,-1.625 C22.875,-2.765625 23.828125,1.3125 17.5625,3.265625 Z M7.78125,7.53125 L17.25,7.53125 L17.25,5.28125 L7.78125,5.28125 Z M7.78125,8.234375 L7.78125,9.8125 L8.96875,10.390625 L17.25,10.390625 L17.25,8.234375 Z M18.953125,19.890625 C18.34375,19.078125 17.59375,18.234375 16.78125,17.421875 C16.03125,18.09375 15.046875,18.859375 15.046875,18.859375 L13.96875,17.5 L11.140625,17.5 L11.140625,19.296875 C11.734375,19.375 11.953125,19.609375 12,19.921875 L9.546875,20.1875 L9.546875,17.5 L3.703125,17.5 L3.859375,16.796875 L9.546875,16.796875 L9.546875,13.9375 L1.265625,13.9375 L1.484375,13.25 L11.640625,13.25 C10.53125,12.5 9.390625,11.765625 8.15625,11.09375 L7.890625,11.09375 L6.21875,11.859375 L6.21875,10.0625 C4.484375,9.1875 2.65625,8.421875 0.84375,7.78125 L1.015625,7.375 C2.78125,7.84375 4.53125,8.453125 6.21875,9.140625 L6.21875,3.234375 L6.453125,3.234375 C7.109375,3.234375 7.78125,3.59375 7.78125,3.765625 L7.78125,4.5625 L17.25,4.5625 L17.25,3.5 L17.5,3.5 C18,3.5 18.75,3.84375 18.765625,3.984375 L18.765625,10.109375 C19.265625,10.203125 19.65625,10.375 19.828125,10.5625 L17.875,12.046875 L17.015625,11.09375 L10.34375,11.09375 C11.609375,11.765625 12.84375,12.5 13.96875,13.25 L22.0625,13.25 C22.390625,13.25 22.625,13.375 22.6875,13.609375 C21.859375,14.359375 20.59375,15.34375 20.59375,15.34375 L19.46875,13.9375 L14.96875,13.9375 C17.046875,15.40625 18.765625,16.9375 20.046875,18.484375 C20.609375,18.3125 20.875,18.390625 21.046875,18.640625 Z M11.140625,16.796875 L16.125,16.796875 C15.078125,15.8125 13.890625,14.859375 12.625,13.9375 L11.140625,13.9375 Z" transform="translate(-0.3359375, 20.1875) scale(1, -1)"/>
</svg>