<svg height="21.875" viewBox="0 0 24 21.875" width="24" xmlns="http://www.w3.org/2000/svg">
<path d="M7.828125,18.40625 L8.015625,17.71875 L22.515625,17.71875 C22.84375,17.71875 23.0625,17.828125 23.140625,18.09375 C22.3125,18.84375 21.078125,19.84375 21.078125,19.84375 L19.921875,18.40625 Z M2.328125,14.953125 C2.40625,12.9375 1.78125,11.0625 1.375,10.484375 C0.28125,9.265625 1.515625,8.296875 2.421875,9.40625 C3.234375,10.390625 3.28125,12.484375 2.6875,14.953125 Z M18.703125,8.40625 C18.234375,7.296875 17.203125,5.609375 16.15625,4.578125 L16.46875,4.265625 C17.765625,5.0625 19.015625,6.3125 19.703125,7.21875 C20.234375,7.125 20.421875,7.21875 20.5625,7.46875 Z M10.625,14.828125 L19.875,14.828125 L19.875,12.265625 L10.625,12.265625 Z M13.15625,5.375 C12.5,3.75 11.09375,1.484375 9.546875,0.078125 L9.8125,-0.234375 C11.6875,0.9375 13.34375,2.78125 14.203125,4.21875 L14.421875,4.203125 L14.421875,0.453125 C14.421875,0.125 14.296875,-0.03125 13.921875,-0.03125 C13.46875,-0.03125 11.46875,0.140625 11.46875,0.140625 L11.46875,-0.234375 C12.359375,-0.359375 12.890625,-0.53125 13.21875,-0.765625 C13.484375,-1.015625 13.5625,-1.421875 13.625,-1.875 C15.625,-1.65625 15.859375,-0.90625 15.859375,0.265625 L15.859375,8.296875 C16.203125,8.375 16.484375,8.515625 16.625,8.65625 L14.90625,9.9375 L14.234375,9.125 L10.625,9.125 L10.625,9.890625 L10.625,11.5625 L19.875,11.5625 L19.875,10.609375 L20.109375,10.609375 C20.609375,10.609375 21.390625,10.96875 21.40625,11.109375 L21.40625,14.515625 C21.859375,14.609375 22.265625,14.828125 22.4375,15 L20.5,16.4375 L19.625,15.5 L10.890625,15.5 L9.125,16.296875 L9.125,9.859375 C9.125,5.90625 8.8125,1.703125 6.34375,-1.65625 L6.671875,-1.890625 C8.6875,-0.125 9.703125,2.15625 10.171875,4.46875 L10.4375,4.21875 C11.6875,5.046875 12.859375,6.28125 13.515625,7.21875 C14.0625,7.125 14.234375,7.25 14.40625,7.484375 L12.5,8.40625 C12.078125,7.296875 11.1875,5.640625 10.203125,4.578125 C10.46875,5.875 10.5625,7.203125 10.609375,8.421875 L14.421875,8.421875 L14.421875,4.796875 Z M3.984375,19.984375 C3.984375,9.484375 4.484375,2.828125 0.9375,-1.484375 L1.265625,-1.890625 C3.40625,0.03125 4.484375,2.453125 4.984375,5.515625 C5.8125,4.484375 6.578125,3.1875 6.71875,2.109375 C8.140625,0.9375 9.390625,3.984375 5.109375,6.1875 C5.328125,7.75 5.421875,9.484375 5.5,11.359375 C6.53125,12.390625 7.625,13.734375 8.234375,14.546875 C8.6875,14.453125 9,14.640625 9.09375,14.8125 L7.125,16.0625 C6.796875,15.125 6.09375,13.390625 5.5,12.078125 C5.546875,14.1875 5.515625,16.515625 5.546875,19.0625 C6.09375,19.15625 6.3125,19.390625 6.390625,19.734375 Z M19.484375,5.59375 C18.84375,3.953125 17.46875,1.75 15.9375,0.359375 L16.203125,0.03125 C18.078125,1.171875 19.6875,3 20.546875,4.421875 L20.609375,4.421875 L20.609375,0.484375 C20.609375,0.140625 20.515625,0 20.109375,0 C19.65625,0 17.609375,0.171875 17.609375,0.171875 L17.609375,-0.21875 C18.546875,-0.34375 19.078125,-0.5 19.390625,-0.765625 C19.6875,-1.015625 19.78125,-1.421875 19.828125,-1.84375 C21.859375,-1.65625 22.109375,-0.90625 22.109375,0.28125 L22.109375,8.296875 C22.4375,8.375 22.734375,8.515625 22.84375,8.65625 L21.125,9.953125 L20.421875,9.125 L16.578125,9.125 L16.796875,8.421875 L20.609375,8.421875 L20.609375,5.0625 Z" transform="translate(0.2890625, 19.984375) scale(1, -1)"/>
</svg>