<svg height="22.609375" viewBox="0 0 24 22.609375" width="24" xmlns="http://www.w3.org/2000/svg">
<path d="M4.6875,3.796875 C4.4375,1.890625 3.03125,0.390625 1.828125,-0.140625 C1.296875,-0.453125 0.953125,-0.9375 1.171875,-1.4375 C1.46875,-2.046875 2.375,-1.984375 3.078125,-1.5625 C4.171875,-0.890625 5.5625,0.890625 5.0625,3.796875 Z M17.8125,3.90625 L17.515625,3.703125 C18.9375,2.375 20.6875,0.140625 21.125,-1.625 C23.015625,-2.921875 24.1875,1.265625 17.8125,3.90625 Z M8.28125,3.625 L7.96875,3.53125 C8.515625,2.28125 9.078125,0.390625 8.96875,-1.109375 C10.375,-2.609375 12.1875,0.671875 8.28125,3.625 Z M12.8125,3.625 L12.53125,3.453125 C13.53125,2.25 14.78125,0.3125 15.03125,-1.171875 C16.703125,-2.5 18.03125,1.125 12.8125,3.625 Z M5.015625,14.734375 L5.015625,8.5625 L5.234375,8.5625 C5.78125,8.5625 6.34375,8.875 6.34375,8.96875 L6.34375,9.578125 L7.171875,9.578125 L7.171875,5.875 L3.765625,5.875 L3.765625,17.765625 L7.203125,17.765625 L7.203125,14.734375 L6.453125,14.734375 L5.015625,15.390625 Z M2.328125,18.453125 L2.328125,3.40625 L2.546875,3.40625 C3.28125,3.40625 3.765625,3.796875 3.765625,3.90625 L3.765625,5.1875 L12.703125,5.1875 C13.03125,5.1875 13.265625,5.296875 13.3125,5.5625 C12.59375,6.265625 11.453125,7.171875 11.453125,7.171875 L10.4375,5.875 L8.59375,5.875 L8.59375,9.578125 L9.71875,9.578125 L9.71875,8.875 L9.984375,8.875 C10.53125,8.875 11.09375,9.1875 11.140625,9.28125 L11.140625,13.78125 C11.515625,13.84375 11.859375,14.046875 12,14.203125 L10.515625,15.53125 L9.796875,14.734375 L8.59375,14.734375 L8.59375,17.765625 L12.21875,17.765625 C12.546875,17.765625 12.796875,17.875 12.859375,18.140625 C12.125,18.8125 10.984375,19.6875 10.984375,19.6875 L9.984375,18.453125 L4.0625,18.453125 L2.328125,19.21875 Z M19.734375,17.78125 L19.734375,12.8125 L15.03125,12.8125 L15.03125,17.78125 Z M13.5625,18.484375 L13.5625,6.34375 C13.5625,5.109375 13.96875,4.703125 15.84375,4.703125 L18.3125,4.6875 C21.953125,4.6875 22.75,4.9375 22.75,5.640625 C22.75,5.921875 22.609375,6.078125 22.0625,6.265625 L21.984375,8.8125 L21.671875,8.8125 C21.453125,7.703125 21.1875,6.625 21.03125,6.34375 C20.921875,6.140625 20.8125,6.09375 20.546875,6.078125 C20.203125,6.078125 19.421875,6.046875 18.359375,6.046875 L16.0625,6.046875 C15.140625,6.046875 15.03125,6.1875 15.03125,6.671875 L15.03125,12.09375 L19.734375,12.09375 L19.734375,10.84375 L19.9375,10.84375 C20.421875,10.84375 21.1875,11.15625 21.234375,11.25 L21.234375,17.5 C21.703125,17.59375 22.078125,17.78125 22.25,17.96875 L20.328125,19.421875 L19.515625,18.484375 L15.3125,18.484375 L13.5625,19.25 Z M6.34375,10.265625 L6.34375,14.015625 L9.71875,14.015625 L9.71875,10.265625 Z" transform="translate(-0.5703125, 19.6875) scale(1, -1)"/>
</svg>