<svg height="21.671875" viewBox="0 0 24 21.671875" width="24" xmlns="http://www.w3.org/2000/svg">
<path d="M11.140625,12.390625 L11.328125,11.6875 L18.21875,11.6875 C18.53125,11.6875 18.765625,11.8125 18.84375,12.046875 C18.140625,12.75 16.96875,13.65625 16.96875,13.65625 L15.984375,12.390625 Z M11.421875,4.015625 L11.109375,3.890625 C11.65625,2.90625 12.1875,1.421875 12.140625,0.234375 C13.53125,-1.15625 15.28125,1.796875 11.421875,4.015625 Z M2.328125,14.546875 C2.40625,12.453125 1.734375,10.78125 1.21875,10.21875 C0.046875,9 1.265625,7.921875 2.328125,8.96875 C3.234375,9.9375 3.359375,11.953125 2.6875,14.546875 Z M16.921875,4.125 C16.578125,2.765625 15.90625,0.9375 15.234375,-0.390625 L6.859375,-0.390625 L7.0625,-1.078125 L22.53125,-1.078125 C22.875,-1.078125 23.109375,-0.953125 23.140625,-0.71875 C22.390625,0.03125 21.171875,1.015625 21.171875,1.015625 L20.0625,-0.390625 L15.84375,-0.390625 C16.84375,0.640625 17.828125,1.9375 18.453125,3 C18.953125,2.96875 19.21875,3.1875 19.3125,3.453125 Z M9.71875,9.671875 L9.71875,3.859375 L9.953125,3.859375 C10.734375,3.859375 11.203125,4.171875 11.203125,4.3125 L11.203125,5.140625 L18.4375,5.140625 L18.4375,4.25 L18.671875,4.25 C19.390625,4.25 19.96875,4.578125 19.96875,4.6875 L19.96875,8.875 C20.421875,8.953125 20.65625,9.078125 20.8125,9.265625 L19.125,10.5625 L18.359375,9.671875 L11.46875,9.671875 L9.71875,10.421875 Z M11.203125,5.828125 L11.203125,8.953125 L18.4375,8.953125 L18.4375,5.828125 Z M8.109375,17.15625 L7.875,16.921875 C8.734375,16.390625 9.75,15.3125 10.078125,14.5 C10.4375,14.296875 10.75,14.296875 10.96875,14.46875 C9.84375,12.671875 8.359375,11.0625 6.5,9.890625 L6.765625,9.53125 C10.65625,11.46875 13.015625,14.609375 14.234375,17.921875 C14.78125,17.96875 15.03125,18.03125 15.21875,18.21875 L13.5625,19.6875 L12.625,18.765625 L8.0625,18.765625 L8.28125,18.078125 L12.640625,18.078125 C12.3125,16.984375 11.828125,15.90625 11.234375,14.90625 C11.375,15.59375 10.65625,16.75 8.109375,17.15625 Z M21.140625,17.40625 C20.6875,16.75 19.734375,15.59375 18.859375,14.71875 C18.390625,15.21875 17.953125,15.796875 17.546875,16.375 C18.53125,16.921875 19.53125,17.5625 20.140625,18.03125 C20.5625,17.859375 20.921875,18 21.046875,18.171875 L19.265625,19.484375 C18.859375,18.8125 18.03125,17.6875 17.25,16.828125 C16.625,17.8125 16.109375,18.859375 15.71875,19.96875 L15.3125,19.796875 C16.53125,15.265625 18.796875,11.875 22.03125,10.015625 C22.21875,10.703125 22.734375,11.109375 23.296875,11.203125 L23.328125,11.453125 C21.84375,12.078125 20.453125,13.0625 19.25,14.296875 C20.28125,14.859375 21.359375,15.5 21.953125,15.984375 C22.421875,15.765625 22.796875,15.9375 22.890625,16.109375 Z M7.375,15.21875 C7.03125,14.46875 6.34375,13.15625 5.6875,12.078125 C5.734375,14.15625 5.71875,16.4375 5.734375,18.953125 C6.28125,19.03125 6.5,19.265625 6.578125,19.625 L4.171875,19.890625 C4.171875,9.5 4.6875,2.96875 0.765625,-1.296875 L1.125,-1.703125 C3.359375,0.140625 4.515625,2.46875 5.09375,5.40625 C6.125,4.296875 7.203125,2.8125 7.484375,1.609375 C9.046875,0.453125 10.171875,3.71875 5.1875,5.921875 C5.46875,7.53125 5.59375,9.3125 5.65625,11.296875 C6.71875,12.09375 7.84375,13.15625 8.453125,13.75 C8.921875,13.625 9.234375,13.828125 9.3125,14.015625 Z" transform="translate(0.3125, 19.96875) scale(1, -1)"/>
</svg>