<svg height="21.9375" viewBox="0 0 24 21.9375" width="24" xmlns="http://www.w3.org/2000/svg">
<path d="M2.453125,14.921875 C2.515625,12.71875 1.84375,11.015625 1.390625,10.46875 C0.21875,9.28125 1.375,8.28125 2.40625,9.28125 C3.28125,10.21875 3.453125,12.234375 2.828125,14.921875 Z M12.59375,15.859375 C11.71875,14.421875 9.890625,12.703125 8.28125,11.546875 L8.546875,11.1875 C10.34375,12.046875 12.453125,13.421875 13.53125,14.65625 L13.53125,11.5 L13.75,11.5 C14.25,11.5 15.03125,11.828125 15.046875,11.953125 L15.046875,17.859375 C15.5,17.953125 15.890625,18.140625 16.0625,18.34375 L14.15625,19.796875 L13.296875,18.84375 L8.8125,18.84375 L9.03125,18.140625 L11.40625,18.140625 C10.78125,17.234375 9.8125,16.203125 8.90625,15.4375 L9.171875,15.09375 C10.4375,15.703125 11.96875,16.609375 12.75,17.421875 C13.125,17.328125 13.421875,17.359375 13.515625,17.5625 L12.484375,18.140625 L13.53125,18.140625 L13.53125,15.359375 Z M19.796875,16.25 C18.9375,14.875 17.1875,13.203125 15.640625,12.09375 L15.90625,11.765625 L16.265625,11.921875 C16.078125,11.25 15.71875,10.078125 15.40625,9.21875 L11.78125,9.21875 L11.71875,9.234375 C12.046875,9.796875 12.359375,10.3125 12.640625,10.84375 C13.109375,10.796875 13.421875,10.984375 13.515625,11.25 L11.296875,12.078125 C10.4375,9.53125 8.875,6.75 7.390625,5.09375 L7.734375,4.828125 C8.546875,5.421875 9.3125,6.171875 10.03125,7.015625 L10.03125,-1.75 L10.265625,-1.75 C10.96875,-1.75 11.46875,-1.375 11.46875,-1.25 L11.46875,-0.453125 L22.4375,-0.453125 C22.78125,-0.453125 23.015625,-0.34375 23.0625,-0.078125 C22.265625,0.703125 21,1.6875 21,1.6875 L19.875,0.265625 L16.75,0.265625 L16.75,2.65625 L21.53125,2.65625 C21.859375,2.65625 22.078125,2.78125 22.125,3.046875 C21.484375,3.71875 20.359375,4.578125 20.359375,4.578125 L19.375,3.359375 L16.75,3.359375 L16.75,5.65625 L21.59375,5.65625 C21.9375,5.65625 22.15625,5.78125 22.21875,6.046875 C21.53125,6.71875 20.453125,7.609375 20.453125,7.609375 L19.46875,6.390625 L16.75,6.390625 L16.75,8.515625 L22.21875,8.515625 C22.5625,8.515625 22.78125,8.640625 22.84375,8.90625 C22.078125,9.59375 20.90625,10.53125 20.90625,10.53125 L19.828125,9.21875 L16.0625,9.21875 L17.515625,10.890625 C18.09375,10.875 18.3125,10.984375 18.390625,11.234375 L16.296875,11.953125 C17.921875,12.75 19.734375,13.890625 20.71875,14.953125 L20.71875,11.328125 L20.921875,11.328125 C21.40625,11.328125 22.171875,11.6875 22.203125,11.859375 L22.203125,17.828125 C22.6875,17.921875 23.09375,18.140625 23.25,18.3125 L21.3125,19.796875 L20.453125,18.84375 L15.9375,18.84375 L16.15625,18.140625 L18.234375,18.140625 C17.609375,17.1875 16.625,16.0625 15.75,15.234375 L16.015625,14.90625 C17.296875,15.546875 18.796875,16.609375 19.578125,17.421875 C19.96875,17.328125 20.234375,17.359375 20.359375,17.5625 L19.296875,18.140625 L20.71875,18.140625 L20.71875,15.75 Z M11.46875,8.515625 L15.234375,8.515625 L15.234375,6.390625 L11.46875,6.390625 Z M11.46875,5.65625 L15.234375,5.65625 L15.234375,3.359375 L11.46875,3.359375 Z M11.46875,2.65625 L15.234375,2.65625 L15.234375,0.265625 L11.46875,0.265625 Z M7.6875,15.84375 C7.3125,15 6.53125,13.53125 5.78125,12.28125 C5.8125,14.359375 5.8125,16.625 5.8125,19.125 C6.390625,19.21875 6.59375,19.46875 6.671875,19.796875 L4.265625,20.046875 C4.265625,9.5 4.78125,2.828125 0.890625,-1.484375 L1.21875,-1.890625 C3.578125,0.078125 4.734375,2.5625 5.28125,5.734375 C6.140625,4.625 6.953125,3.1875 7.109375,2.046875 C8.5625,0.8125 9.84375,3.953125 5.375,6.453125 C5.59375,7.921875 5.71875,9.546875 5.765625,11.328125 C6.9375,12.34375 8.109375,13.578125 8.78125,14.359375 C9.234375,14.234375 9.578125,14.421875 9.671875,14.609375 Z" transform="translate(0.265625, 20.046875) scale(1, -1)"/>
</svg>