<svg height="21.9375" viewBox="0 0 24 21.9375" width="24" xmlns="http://www.w3.org/2000/svg">
<path d="M2.453125,14.921875 C2.515625,12.71875 1.84375,11.015625 1.390625,10.46875 C0.21875,9.28125 1.375,8.28125 2.40625,9.28125 C3.28125,10.21875 3.453125,12.234375 2.828125,14.921875 Z M8.921875,13.390625 L9.140625,12.703125 L13.3125,12.703125 L13.3125,11.6875 L13.53125,11.6875 C14.015625,11.6875 14.8125,12 14.828125,12.125 L14.828125,17.8125 C15.3125,17.90625 15.671875,18.09375 15.84375,18.265625 L13.921875,19.734375 L13.078125,18.796875 L8.875,18.796875 L9.09375,18.09375 L13.3125,18.09375 L13.3125,16.21875 L9.34375,16.21875 L9.546875,15.5 L13.3125,15.5 L13.3125,13.390625 Z M15.984375,13.390625 L16.203125,12.703125 L20.421875,12.703125 L20.421875,11.546875 L20.640625,11.546875 C21.125,11.546875 21.890625,11.859375 21.90625,12 L21.90625,17.765625 C22.421875,17.859375 22.828125,18.078125 22.984375,18.265625 L21.03125,19.75 L20.15625,18.796875 L15.984375,18.796875 L16.203125,18.09375 L20.421875,18.09375 L20.421875,16.21875 L16.34375,16.21875 L16.5625,15.5 L20.421875,15.5 L20.421875,13.390625 Z M15.859375,12.171875 C15.703125,11.359375 15.390625,10.109375 15.171875,9.34375 L11.5625,9.34375 L11.5,9.359375 C11.875,9.953125 12.234375,10.53125 12.53125,11.0625 C13.078125,10.96875 13.296875,11.09375 13.4375,11.359375 L11.140625,12.40625 C10.46875,10.34375 9,7.296875 7.375,5.28125 L7.65625,5.015625 C8.453125,5.65625 9.1875,6.40625 9.859375,7.21875 L9.859375,-1.84375 L10.109375,-1.84375 C10.796875,-1.84375 11.296875,-1.46875 11.296875,-1.34375 L11.296875,-0.453125 L22.484375,-0.453125 C22.828125,-0.453125 23.0625,-0.34375 23.109375,-0.078125 C22.3125,0.703125 21.046875,1.6875 21.046875,1.6875 L19.921875,0.265625 L16.703125,0.265625 L16.703125,2.65625 L21.5,2.65625 C21.8125,2.65625 22.0625,2.78125 22.109375,3.046875 C21.4375,3.71875 20.296875,4.609375 20.296875,4.609375 L19.34375,3.390625 L16.703125,3.390625 L16.703125,5.65625 L21.5,5.65625 C21.8125,5.65625 22.0625,5.78125 22.109375,6.046875 C21.4375,6.703125 20.296875,7.578125 20.296875,7.578125 L19.34375,6.359375 L16.703125,6.359375 L16.703125,8.640625 L22.0625,8.640625 C22.390625,8.640625 22.625,8.765625 22.6875,9 C21.9375,9.703125 20.734375,10.625 20.734375,10.625 L19.703125,9.34375 L15.84375,9.34375 C16.3125,9.890625 16.96875,10.578125 17.359375,11.15625 C17.859375,11.15625 18.171875,11.328125 18.265625,11.65625 Z M11.296875,8.640625 L15.21875,8.640625 L15.21875,6.359375 L11.296875,6.359375 Z M11.296875,5.65625 L15.21875,5.65625 L15.21875,3.390625 L11.296875,3.390625 Z M11.296875,2.65625 L15.21875,2.65625 L15.21875,0.265625 L11.296875,0.265625 Z M7.6875,15.84375 C7.3125,15 6.53125,13.53125 5.78125,12.28125 C5.8125,14.359375 5.8125,16.625 5.8125,19.125 C6.390625,19.21875 6.59375,19.46875 6.671875,19.796875 L4.265625,20.046875 C4.265625,9.5 4.78125,2.828125 0.890625,-1.484375 L1.21875,-1.890625 C3.578125,0.078125 4.734375,2.5625 5.28125,5.734375 C6.140625,4.625 6.953125,3.1875 7.109375,2.046875 C8.5625,0.8125 9.84375,3.953125 5.375,6.453125 C5.59375,7.921875 5.71875,9.546875 5.765625,11.328125 C6.9375,12.34375 8.109375,13.578125 8.78125,14.359375 C9.234375,14.234375 9.578125,14.421875 9.671875,14.609375 Z" transform="translate(0.3359375, 20.046875) scale(1, -1)"/>
</svg>