<svg height="22.015625" viewBox="0 0 24 22.015625" width="24" xmlns="http://www.w3.org/2000/svg">
<path d="M4.34375,17.921875 L4.34375,12.484375 C4.34375,7.890625 3.9375,2.734375 0.859375,-1.578125 L1.25,-1.875 C5.515625,2.328125 5.921875,8.28125 5.921875,12.453125 L5.921875,16.75 C7.609375,16.84375 9.34375,16.984375 11.046875,17.1875 L11.046875,-1.46875 L11.28125,-1.46875 C12.09375,-1.46875 12.59375,-1.078125 12.625,-0.953125 L12.625,17.359375 C14.328125,17.5625 15.953125,17.828125 17.421875,18.078125 C17.640625,11.46875 18.4375,3.03125 21.625,-1.84375 C21.90625,-0.84375 22.4375,-0.359375 23.25,-0.234375 L23.359375,0.03125 C19.375,4.734375 18.234375,11.734375 17.90625,18.171875 L19.203125,18.40625 C19.796875,18.171875 20.234375,18.171875 20.46875,18.390625 L18.625,20.140625 C15.84375,19.125 10.65625,17.921875 6.140625,17.328125 Z" transform="translate(-0.109375, 20.140625) scale(1, -1)"/>
</svg>