<svg height="22.390625" viewBox="0 0 24 22.390625" width="24" xmlns="http://www.w3.org/2000/svg">
<path d="M5.453125,17.5625 L5.1875,17.40625 C5.859375,16.78125 6.578125,15.703125 6.640625,14.8125 C7.96875,13.734375 9.34375,16.46875 5.453125,17.5625 Z M13.3125,5.875 L13.03125,5.71875 C13.796875,4.84375 14.6875,3.40625 14.8125,2.25 C16.203125,1.078125 17.5625,4.109375 13.3125,5.875 Z M19.75,20.109375 C15.59375,19.25 7.890625,18.3125 1.828125,18.03125 L1.890625,17.546875 C4.5625,17.515625 7.375,17.59375 10.078125,17.734375 C10.609375,17.046875 11.15625,15.859375 11.15625,14.921875 C12.390625,13.78125 13.890625,16.21875 10.625,17.765625 C14.109375,17.953125 17.453125,18.21875 20.109375,18.5 C20.6875,18.21875 21.171875,18.1875 21.40625,18.390625 Z M3.09375,14.546875 L3.09375,9.84375 L3.3125,9.84375 C3.9375,9.84375 4.609375,10.171875 4.609375,10.296875 L4.609375,10.703125 L19.375,10.703125 L19.375,10.015625 L19.609375,10.015625 C20.09375,10.015625 20.859375,10.375 20.875,10.484375 L20.875,13.625 C21.28125,13.703125 21.625,13.890625 21.765625,14.0625 L19.9375,15.40625 L19.15625,14.546875 L15.359375,14.546875 C16.34375,15.234375 17.296875,16.171875 17.953125,16.890625 C18.453125,16.828125 18.765625,16.984375 18.890625,17.25 L16.703125,18.140625 C16.21875,17.015625 15.40625,15.546875 14.6875,14.546875 L4.78125,14.546875 L3.09375,15.3125 Z M18,9.765625 L18,7.375 L11.765625,7.375 L11.953125,6.671875 L18,6.671875 L18,0.5 C18,0.140625 17.875,0.03125 17.421875,0.03125 C16.890625,0.03125 14.28125,0.21875 14.28125,0.21875 L14.28125,-0.171875 C15.390625,-0.3125 16.0625,-0.5 16.4375,-0.75 C16.75,-1.015625 16.890625,-1.390625 16.96875,-1.875 C19.25,-1.625 19.515625,-0.84375 19.515625,0.40625 L19.515625,6.671875 L22.515625,6.671875 C22.84375,6.671875 23.0625,6.796875 23.140625,7.0625 C22.515625,7.734375 21.4375,8.65625 21.4375,8.65625 L20.5,7.375 L19.515625,7.375 L19.515625,8.875 C20.0625,8.96875 20.28125,9.171875 20.359375,9.5 Z M1.203125,0.140625 L2.234375,-1.796875 C2.46875,-1.75 2.65625,-1.578125 2.765625,-1.265625 C5.734375,-0.5 7.96875,0.125 9.625,0.640625 C10.109375,0.03125 10.515625,-0.625 10.6875,-1.21875 C12.34375,-2.28125 13.3125,1.296875 7.78125,2.90625 L7.53125,2.6875 C8.09375,2.28125 8.6875,1.734375 9.234375,1.109375 L5.046875,0.578125 L5.046875,3.640625 L9.765625,3.640625 L9.765625,2.78125 L10.015625,2.78125 C10.46875,2.78125 11.25,3.125 11.28125,3.265625 L11.28125,8.1875 C11.6875,8.25 12.03125,8.421875 12.140625,8.59375 L10.34375,9.953125 L9.546875,9.078125 L5.15625,9.078125 L3.546875,9.8125 L3.546875,0.40625 Z M4.609375,11.421875 L4.609375,13.84375 L8.453125,13.84375 L8.453125,11.421875 Z M19.375,11.421875 L15.359375,11.421875 L15.359375,13.84375 L19.375,13.84375 Z M9.90625,11.421875 L9.90625,13.84375 L13.890625,13.84375 L13.890625,11.421875 Z M5.046875,6.046875 L9.765625,6.046875 L9.765625,4.34375 L5.046875,4.34375 Z M5.046875,6.75 L5.046875,8.40625 L9.765625,8.40625 L9.765625,6.75 Z" transform="translate(-0.171875, 20.109375) scale(1, -1)"/>
</svg>