<svg height="21.9375" viewBox="0 0 24 21.9375" width="24" xmlns="http://www.w3.org/2000/svg">
<path d="M15.984375,18.03125 L15.71875,17.78125 C17.15625,16.703125 19.0625,14.78125 19.625,13.296875 C21.4375,12.28125 22.25,16.0625 15.984375,18.03125 Z M7.015625,4.171875 C7.03125,2.515625 6.078125,1.015625 5.09375,0.453125 C4.625,0.140625 4.34375,-0.3125 4.578125,-0.765625 C4.84375,-1.265625 5.65625,-1.15625 6.21875,-0.765625 C7.125,-0.09375 8.046875,1.5625 7.421875,4.171875 Z M9.71875,4.078125 L9.390625,4.015625 C9.75,2.859375 10.015625,1.125 9.8125,-0.1875 C10.921875,-1.5625 12.625,1.15625 9.71875,4.078125 Z M12.3125,4.296875 L12,4.15625 C12.75,3.234375 13.515625,1.78125 13.578125,0.59375 C14.90625,-0.53125 16.21875,2.296875 12.3125,4.296875 Z M15,4.609375 L14.8125,4.390625 C15.71875,3.796875 16.890625,2.6875 17.28125,1.796875 C18.75,1.03125 19.515625,3.90625 15,4.609375 Z M11.0625,14.59375 C12.359375,13.390625 13.921875,16.15625 9.953125,17.78125 L9.703125,17.640625 C10.3125,16.84375 10.984375,15.59375 11.0625,14.59375 Z M4.921875,18.90625 C4.03125,16.21875 2.46875,13.875 0.859375,12.484375 L1.15625,12.1875 C3.171875,13.296875 4.984375,15.140625 6.21875,17.640625 L6.3125,17.640625 L6.4375,17.640625 C7.578125,17.65625 8.78125,17.71875 9.953125,17.78125 C13.078125,17.953125 16.15625,18.265625 18.453125,18.59375 C18.984375,18.34375 19.421875,18.34375 19.65625,18.53125 L18.03125,20.09375 C15.390625,19.421875 10.703125,18.625 6.625,18.21875 Z M4.875,13.984375 L4.875,12.046875 C4.875,8.015625 4.34375,3.046875 1.03125,-1.125 L1.34375,-1.4375 C3.640625,0.59375 4.921875,3.078125 5.59375,5.46875 L20.46875,5.46875 C20.1875,2.59375 19.609375,0.703125 19.078125,0.21875 C18.84375,0.046875 18.625,0 18.21875,0 C17.734375,0 16.265625,0.125 15.4375,0.1875 L15.4375,-0.21875 C16.203125,-0.34375 16.984375,-0.53125 17.28125,-0.765625 C17.59375,-0.984375 17.6875,-1.421875 17.6875,-1.84375 C18.546875,-1.84375 19.390625,-1.625 19.984375,-1.171875 C20.96875,-0.40625 21.671875,1.796875 21.984375,5.28125 C22.46875,5.359375 22.78125,5.453125 22.921875,5.609375 L21.171875,7.078125 L20.28125,6.140625 L18.953125,6.140625 L19.203125,9.3125 C19.578125,9.34375 19.796875,9.40625 19.96875,9.578125 L18.390625,10.890625 L17.640625,10.125 L16.4375,10.125 L16.703125,13.203125 C17.0625,13.21875 17.28125,13.296875 17.421875,13.4375 L15.859375,14.78125 L15.140625,13.984375 L6.71875,13.984375 L4.875,14.78125 Z M15.28125,13.296875 L15,10.125 L6.359375,10.125 C6.390625,10.828125 6.40625,11.46875 6.40625,12.078125 L6.40625,13.296875 Z M17.515625,6.140625 L5.78125,6.140625 C6.046875,7.265625 6.21875,8.40625 6.3125,9.4375 L17.8125,9.4375 Z" transform="translate(0.109375, 20.09375) scale(1, -1)"/>
</svg>