<svg height="21.53125" viewBox="0 0 24 21.53125" width="24" xmlns="http://www.w3.org/2000/svg">
<path d="M7.65625,19.6875 C6.625,17.0625 4.34375,13.6875 1.703125,11.5625 L1.9375,11.25 C5.140625,13.03125 7.703125,15.953125 9.125,18.3125 C9.703125,18.21875 9.890625,18.34375 10.03125,18.59375 Z M14.28125,19.390625 L14.015625,19.15625 C16.421875,17.40625 19.578125,14.296875 20.59375,11.96875 C22.828125,10.65625 23.546875,15.59375 14.28125,19.390625 Z M8.203125,11.96875 L9.046875,13.015625 L8.140625,13.390625 L7.734375,12.171875 C6.953125,11.421875 5.546875,10.265625 4.734375,9.671875 L6.03125,8.1875 C6.21875,8.359375 6.28125,8.5625 6.140625,8.828125 C6.59375,9.484375 7.3125,10.578125 7.875,11.421875 C8.609375,8.921875 9.71875,6.765625 11.15625,4.921875 C8.65625,2.25 5.40625,0.03125 1.265625,-1.46875 L1.46875,-1.828125 C5.921875,-0.59375 9.390625,1.421875 12.03125,3.890625 C14.40625,1.25 17.5,-0.625 21.171875,-1.84375 C21.453125,-1.109375 22.0625,-0.59375 22.828125,-0.546875 L22.875,-0.3125 C19.03125,0.671875 15.59375,2.375 12.9375,4.78125 C15.046875,7.015625 16.5625,9.53125 17.59375,12.171875 C18.234375,12.125 18.453125,12.234375 18.578125,12.5 L16.125,13.4375 C15.234375,10.703125 13.84375,8.109375 11.90625,5.78125 C10.265625,7.53125 9,9.59375 8.203125,11.96875 Z" transform="translate(-0.40625, 19.6875) scale(1, -1)"/>
</svg>