<svg height="22.03125" viewBox="0 0 24 22.03125" width="24" xmlns="http://www.w3.org/2000/svg">
<path d="M4.6875,19.15625 L2.40625,19.390625 L2.40625,7.4375 C2.40625,3.546875 2.140625,0.953125 0.9375,-1.515625 L1.3125,-1.75 C3.28125,0.765625 3.8125,3.53125 3.84375,7.4375 L3.84375,7.96875 L6.953125,7.96875 L6.953125,-1.578125 L7.171875,-1.578125 C7.703125,-1.578125 8.40625,-1.171875 8.421875,-1.015625 L8.421875,7.6875 C8.90625,7.78125 9.3125,7.96875 9.453125,8.15625 L7.578125,9.625 L6.71875,8.65625 L3.84375,8.65625 L3.84375,12.5 L9.8125,12.5 C10.125,12.5 10.34375,12.625 10.421875,12.890625 C9.890625,13.53125 8.96875,14.453125 8.96875,14.453125 L8.203125,13.21875 L8.015625,13.21875 L8.015625,19.15625 C8.59375,19.21875 8.828125,19.4375 8.875,19.78125 L6.546875,20.015625 L6.546875,13.21875 L3.84375,13.21875 L3.84375,18.5 C4.4375,18.578125 4.625,18.8125 4.6875,19.15625 Z M12.125,8.203125 L12.125,8.875 L14.59375,8.875 C13.890625,7.46875 12.59375,6.171875 10.296875,5.046875 L10.53125,4.703125 C13.65625,5.78125 15.234375,7.25 16.0625,8.875 L20.015625,8.875 L20.015625,7.984375 L20.25,7.984375 C20.734375,7.984375 21.484375,8.328125 21.5,8.46875 L21.5,16.3125 C21.953125,16.421875 22.375,16.578125 22.515625,16.78125 L20.609375,18.234375 L19.78125,17.28125 L15.59375,17.28125 C16.0625,17.828125 16.609375,18.5 16.984375,19.0625 C17.5,19.0625 17.78125,19.21875 17.875,19.578125 L15.3125,20.109375 C15.171875,19.296875 14.875,18.09375 14.6875,17.28125 L12.265625,17.28125 L10.65625,18.03125 L10.65625,7.703125 L10.890625,7.703125 C11.515625,7.703125 12.125,8.046875 12.125,8.203125 Z M16.828125,16.578125 L20.015625,16.578125 L20.015625,13.484375 L16.828125,13.484375 Z M15.390625,16.578125 L15.390625,13.484375 L12.125,13.484375 L12.125,16.578125 Z M12.125,9.578125 L12.125,12.765625 L15.390625,12.765625 C15.390625,11.65625 15.265625,10.578125 14.875,9.578125 Z M16.34375,9.578125 C16.703125,10.609375 16.828125,11.6875 16.828125,12.765625 L20.015625,12.765625 L20.015625,9.578125 Z M21.140625,5.875 L20.046875,4.421875 L17.765625,4.421875 L17.765625,7.265625 C18.390625,7.34375 18.59375,7.5625 18.640625,7.890625 L16.265625,8.15625 L16.265625,4.421875 L9.140625,4.421875 L9.34375,3.703125 L16.265625,3.703125 L16.265625,-1.921875 L16.5625,-1.921875 C17.140625,-1.921875 17.765625,-1.609375 17.765625,-1.421875 L17.765625,3.703125 L22.578125,3.703125 C22.890625,3.703125 23.109375,3.8125 23.1875,4.078125 C22.421875,4.84375 21.140625,5.875 21.140625,5.875 Z" transform="translate(-0.0625, 20.109375) scale(1, -1)"/>
</svg>