<svg height="22.015625" viewBox="0 0 24 22.015625" width="24" xmlns="http://www.w3.org/2000/svg">
<path d="M0.84375,8.15625 L1.03125,7.46875 L2.78125,7.46875 C2.765625,4.3125 2.640625,1.078125 0.890625,-1.515625 L1.265625,-1.875 C3.890625,0.59375 4.21875,4.015625 4.3125,7.46875 L6.765625,7.46875 L6.765625,-1.921875 L7.0625,-1.921875 C7.625,-1.921875 8.296875,-1.515625 8.296875,-1.265625 L8.296875,1.75 L8.359375,1.703125 C11.25,4.078125 13.390625,7.109375 14.78125,10.53125 L14.78125,-1.78125 L15.078125,-1.78125 C15.671875,-1.78125 16.34375,-1.390625 16.34375,-1.15625 L16.34375,12.234375 C17.515625,7.875 19.46875,4.25 21.890625,2.046875 C22.15625,2.765625 22.703125,3.21875 23.296875,3.265625 L23.359375,3.5 C20.5625,5.359375 18,9.171875 16.578125,13.296875 L22.609375,13.296875 C22.96875,13.296875 23.15625,13.421875 23.234375,13.65625 C22.46875,14.40625 21.21875,15.40625 21.21875,15.40625 L20.09375,13.984375 L16.34375,13.984375 L16.34375,19.0625 C16.9375,19.15625 17.109375,19.390625 17.1875,19.734375 L14.78125,19.984375 L14.78125,13.984375 L8.8125,13.984375 L8.96875,13.296875 L13.984375,13.296875 C12.9375,9.28125 11.015625,5.296875 8.296875,2.359375 L8.296875,19.15625 C8.90625,19.25 9.078125,19.484375 9.140625,19.828125 L6.765625,20.09375 L6.765625,12.796875 L3.53125,12.796875 L3.53125,18.171875 C4.15625,18.234375 4.375,18.453125 4.390625,18.796875 L2.0625,19.03125 L2.0625,10.3125 L2.359375,10.3125 C2.875,10.3125 3.53125,10.65625 3.53125,10.84375 L3.53125,12.09375 L6.765625,12.09375 L6.765625,8.15625 Z" transform="translate(-0.1015625, 20.09375) scale(1, -1)"/>
</svg>