<svg height="22.28125" viewBox="0 0 24 22.28125" width="24" xmlns="http://www.w3.org/2000/svg">
<path d="M18.5,9.640625 L18.28125,9.453125 C18.9375,8.921875 19.703125,8.0625 19.921875,7.3125 C21.28125,6.484375 22.390625,9.03125 18.5,9.640625 Z M11.328125,20.09375 L11.0625,19.921875 C11.734375,19.21875 12.484375,18.03125 12.578125,17.046875 C13.984375,15.9375 15.4375,18.8125 11.328125,20.09375 Z M18.140625,20.046875 C17.78125,19.0625 17.15625,17.6875 16.625,16.734375 L9.09375,16.734375 L9.28125,16.03125 L14.546875,16.03125 L14.546875,14.015625 L10.015625,14.015625 L10.203125,13.3125 L14.546875,13.3125 L14.546875,11.203125 L8.15625,11.203125 L8.359375,10.484375 L22.421875,10.484375 C22.734375,10.484375 22.96875,10.609375 23.015625,10.875 C22.296875,11.59375 21.09375,12.5 21.09375,12.5 L20.046875,11.203125 L16.109375,11.203125 L16.109375,13.3125 L21.171875,13.3125 C21.5,13.3125 21.71875,13.4375 21.765625,13.6875 C21.046875,14.375 19.890625,15.28125 19.890625,15.28125 L18.859375,14.015625 L16.109375,14.015625 L16.109375,16.03125 L21.9375,16.03125 C22.265625,16.03125 22.484375,16.15625 22.5625,16.421875 C21.765625,17.109375 20.5625,18.078125 20.5625,18.078125 L19.515625,16.734375 L17.328125,16.734375 C18.140625,17.421875 18.984375,18.28125 19.578125,18.953125 C20.0625,18.9375 20.375,19.125 20.5,19.421875 Z M13.734375,10.25 C12.484375,9.4375 9.984375,8.328125 7.96875,7.734375 L8.109375,7.34375 C9.171875,7.484375 10.3125,7.734375 11.375,7.984375 L11.375,6.171875 L7.6875,6.171875 L7.875,5.5 L11.375,5.5 L11.375,3.671875 C9.625,3.40625 8.15625,3.21875 7.3125,3.140625 L8.109375,1.390625 C8.359375,1.4375 8.546875,1.609375 8.65625,1.890625 L11.375,2.640625 L11.375,0.078125 C11.375,-0.21875 11.296875,-0.34375 10.9375,-0.34375 C10.53125,-0.34375 8.875,-0.21875 8.875,-0.21875 L8.875,-0.578125 C9.71875,-0.671875 10.15625,-0.8125 10.390625,-1.015625 C10.625,-1.21875 10.734375,-1.5625 10.75,-1.890625 C12.59375,-1.703125 12.859375,-1.0625 12.859375,0.046875 L12.859375,3.078125 L15.703125,3.9375 L15.625,4.3125 L12.859375,3.890625 L12.859375,5.5 L16.515625,5.5 C16.75,4.109375 17.109375,2.828125 17.6875,1.75 C16.421875,0.546875 15.03125,-0.359375 13.625,-1.015625 L13.796875,-1.421875 C15.34375,-0.9375 16.875,-0.1875 18.265625,0.8125 C18.890625,-0.046875 19.6875,-0.765625 20.6875,-1.34375 C21.53125,-1.84375 22.703125,-2.1875 23.0625,-1.515625 C23.203125,-1.203125 23.15625,-0.953125 22.609375,-0.359375 L22.828125,2.203125 L22.515625,2.28125 C22.296875,1.484375 22.015625,0.640625 21.796875,0.21875 C21.640625,-0.125 21.5,-0.125 21.234375,0.078125 C20.46875,0.484375 19.875,1.0625 19.390625,1.734375 C20.109375,2.375 20.78125,3.125 21.359375,3.9375 C21.8125,3.8125 22.0625,3.890625 22.203125,4.078125 L20.5,5.28125 C19.984375,4.390625 19.390625,3.578125 18.765625,2.859375 C18.40625,3.640625 18.140625,4.53125 18,5.5 L22.421875,5.5 C22.734375,5.5 22.96875,5.609375 23.046875,5.859375 C22.3125,6.53125 21.1875,7.421875 21.1875,7.421875 L20.203125,6.171875 L17.875,6.171875 C17.765625,7.171875 17.71875,8.203125 17.71875,9.265625 C18.1875,9.34375 18.390625,9.59375 18.40625,9.890625 L16.15625,10.109375 C16.171875,8.71875 16.25,7.390625 16.421875,6.171875 L12.859375,6.171875 L12.859375,8.40625 L14.25,8.859375 C14.78125,8.65625 15.1875,8.6875 15.359375,8.875 Z M1.828125,18.1875 C1.78125,15.3125 1.46875,12.140625 0.90625,9.8125 L1.34375,9.640625 C1.921875,10.796875 2.375,12.265625 2.734375,13.796875 L4.484375,13.796875 L4.484375,8.25 C2.921875,7.828125 1.625,7.484375 0.890625,7.34375 L1.828125,5.1875 C2.0625,5.28125 2.25,5.5 2.359375,5.78125 L4.484375,6.8125 L4.484375,-1.921875 L4.796875,-1.921875 C5.375,-1.921875 6,-1.53125 6,-1.296875 L6,7.578125 L9.171875,9.234375 L9.078125,9.578125 L6,8.6875 L6,13.796875 L8.734375,13.796875 C9.078125,13.796875 9.28125,13.921875 9.359375,14.1875 C8.734375,14.90625 7.609375,15.9375 7.609375,15.9375 L6.671875,14.515625 L6,14.515625 L6,19.171875 C6.625,19.25 6.8125,19.515625 6.859375,19.84375 L4.484375,20.09375 L4.484375,14.515625 L2.875,14.515625 C3.046875,15.40625 3.1875,16.34375 3.3125,17.234375 C3.84375,17.28125 4.078125,17.546875 4.15625,17.828125 Z" transform="translate(-0.046875, 20.09375) scale(1, -1)"/>
</svg>