<svg height="22.015625" viewBox="0 0 24 22.015625" width="24" xmlns="http://www.w3.org/2000/svg">
<path d="M17.765625,18.84375 L17.515625,18.625 C18.453125,17.828125 19.625,16.421875 19.9375,15.265625 C21.578125,14.25 22.6875,17.515625 17.765625,18.84375 Z M14.5625,19.984375 C14.546875,17.1875 14.546875,14.65625 14.40625,12.359375 L8.875,12.359375 L9.046875,11.65625 L14.359375,11.65625 C13.9375,6.171875 12.71875,2.015625 8.875,-1.46875 L9.265625,-1.84375 C13.921875,1.515625 15.359375,5.6875 15.84375,11.203125 C16.375,7.125 17.734375,1.6875 21.75,-1.6875 C21.953125,-0.796875 22.46875,-0.5 23.203125,-0.40625 L23.25,-0.125 C18.640625,3.09375 16.921875,7.78125 16.265625,11.65625 L22.625,11.65625 C22.96875,11.65625 23.1875,11.78125 23.25,12.046875 C22.484375,12.765625 21.234375,13.78125 21.234375,13.78125 L20.109375,12.359375 L15.9375,12.359375 C16.0625,14.40625 16.078125,16.625 16.125,19.0625 C16.703125,19.125 16.9375,19.390625 17.015625,19.75 Z M0.890625,8.15625 L1.109375,7.4375 L2.8125,7.4375 C2.78125,4.296875 2.65625,1.078125 0.90625,-1.4375 L1.296875,-1.828125 C3.890625,0.625 4.21875,3.984375 4.34375,7.4375 L6.890625,7.4375 L6.890625,-1.921875 L7.171875,-1.921875 C7.75,-1.921875 8.421875,-1.484375 8.421875,-1.21875 L8.421875,19.15625 C9.046875,19.25 9.21875,19.484375 9.28125,19.828125 L6.890625,20.09375 L6.890625,12.796875 L3.578125,12.796875 L3.578125,18.171875 C4.203125,18.234375 4.390625,18.453125 4.4375,18.796875 L2.09375,19.0625 L2.09375,10.6875 L2.375,10.6875 C2.921875,10.6875 3.578125,11.015625 3.578125,11.203125 L3.578125,12.09375 L6.890625,12.09375 L6.890625,8.15625 Z" transform="translate(-0.0703125, 20.09375) scale(1, -1)"/>
</svg>