<svg height="21.921875" viewBox="0 0 24 21.921875" width="24" xmlns="http://www.w3.org/2000/svg">
<path d="M11.953125,14.8125 C11.203125,13.0625 9.59375,10.6875 7.828125,9.234375 L8.09375,8.921875 C10.296875,10.03125 12.265625,11.875 13.34375,13.421875 C13.890625,13.34375 14.09375,13.4375 14.203125,13.6875 Z M16.9375,14.46875 L16.703125,14.25 C18.28125,13.109375 20.375,11.0625 21.046875,9.484375 C22.9375,8.421875 23.71875,12.453125 16.9375,14.46875 Z M17.46875,10.734375 C16.96875,8.6875 16.171875,6.765625 15,5.015625 C13.9375,6.234375 13.109375,7.625 12.546875,9.171875 L13.53125,10.21875 L12.671875,10.609375 L12.125,9.390625 C11.375,8.734375 10.15625,7.84375 9.453125,7.390625 L10.515625,6.09375 C10.65625,6.21875 10.734375,6.4375 10.609375,6.640625 C11.046875,7.15625 11.6875,7.984375 12.1875,8.6875 C12.71875,7.015625 13.46875,5.5 14.40625,4.171875 C12.59375,1.796875 10.0625,-0.171875 6.703125,-1.4375 L6.859375,-1.796875 C10.515625,-0.796875 13.21875,0.9375 15.234375,3.078125 C16.984375,0.9375 19.25,-0.671875 21.8125,-1.796875 C22.078125,-1.078125 22.609375,-0.640625 23.25,-0.578125 L23.296875,-0.3125 C20.5625,0.546875 18,1.984375 16.015625,3.9375 C17.40625,5.65625 18.390625,7.578125 19.03125,9.59375 C19.6875,9.546875 19.890625,9.71875 20.015625,9.984375 Z M14.375,19.96875 L14.375,16.171875 L7.875,16.171875 L8.0625,15.453125 L22.515625,15.453125 C22.84375,15.453125 23.0625,15.578125 23.140625,15.84375 C22.34375,16.578125 21.078125,17.59375 21.078125,17.59375 L19.921875,16.171875 L15.9375,16.171875 L15.9375,19.109375 C16.484375,19.203125 16.6875,19.421875 16.734375,19.734375 Z M7.3125,20.046875 C6.8125,18.90625 6.046875,17.609375 5.140625,16.375 C4.296875,17.421875 3.234375,18.4375 1.875,19.34375 L1.484375,19.015625 C2.8125,17.875 3.765625,16.703125 4.46875,15.453125 C3.359375,14.09375 2.109375,12.765625 0.796875,11.765625 L1.015625,11.46875 C2.453125,12.265625 3.796875,13.296875 4.984375,14.375 C5.359375,13.53125 5.609375,12.671875 5.8125,11.78125 C4.734375,9.171875 2.78125,6.4375 0.625,4.578125 L0.859375,4.296875 C3,5.546875 4.96875,7.390625 6.171875,9.09375 C6.1875,8.421875 6.21875,7.75 6.21875,7.0625 C6.21875,4.375 5.90625,1.46875 5.203125,0.484375 C5.015625,0.21875 4.828125,0.125 4.421875,0.125 C3.4375,0.125 1.53125,0.28125 1.53125,0.28125 L1.53125,-0.125 C2.375,-0.265625 3,-0.5 3.390625,-0.75 C3.703125,-0.953125 3.84375,-1.3125 3.84375,-1.875 C4.984375,-1.875 5.828125,-1.609375 6.34375,-0.9375 C7.515625,0.671875 7.796875,3.984375 7.75,7.078125 C7.703125,10.0625 7.296875,12.8125 5.875,15.234375 C7.03125,16.421875 7.984375,17.609375 8.6875,18.703125 C9.234375,18.59375 9.4375,18.703125 9.59375,18.953125 Z" transform="translate(-0.171875, 20.046875) scale(1, -1)"/>
</svg>