<svg height="21.875" viewBox="0 0 24 21.875" width="24" xmlns="http://www.w3.org/2000/svg">
<path d="M16.34375,8.046875 C16.015625,9.234375 15.796875,10.53125 15.671875,11.875 L15.671875,12.03125 L15.671875,15.4375 L22.609375,15.4375 C22.9375,15.4375 23.1875,15.546875 23.234375,15.8125 C22.4375,16.578125 21.125,17.609375 21.125,17.609375 L19.9375,16.15625 L15.671875,16.15625 L15.671875,19.125 C16.265625,19.21875 16.46875,19.46875 16.53125,19.796875 L14.109375,20.046875 L14.109375,16.15625 L7.734375,16.15625 L7.921875,15.4375 L14.109375,15.4375 L14.109375,12.03125 C14.109375,6.484375 12.9375,1.625 6.796875,-1.46875 L7.03125,-1.828125 C12.984375,0.5 14.96875,4.515625 15.5,9.09375 C16.109375,4.65625 17.5625,0.59375 21.578125,-1.828125 C21.796875,-0.90625 22.296875,-0.578125 23.109375,-0.453125 L23.15625,-0.171875 C19.375,1.6875 17.46875,4.34375 16.484375,7.515625 C17.59375,8.28125 18.484375,9.34375 19.125,10.65625 C20.046875,9.796875 21.046875,8.46875 21.390625,7.46875 C22.84375,6.5 23.90625,9.359375 19.3125,11.0625 C19.625,11.78125 19.890625,12.578125 20.109375,13.4375 C20.609375,13.4375 20.875,13.6875 20.953125,13.96875 L18.640625,14.46875 C18.40625,11.828125 17.5625,9.59375 16.34375,8.046875 Z M10.375,14.40625 C10.078125,11.28125 9.046875,8.6875 7.5625,6.9375 L7.921875,6.671875 C9.140625,7.578125 10.109375,8.90625 10.828125,10.53125 C11.46875,9.859375 12.09375,8.875 12.21875,8.0625 C13.4375,7.0625 14.609375,9.59375 11.015625,11.015625 C11.296875,11.765625 11.546875,12.578125 11.734375,13.4375 C12.234375,13.4375 12.484375,13.65625 12.546875,13.9375 Z M7.3125,20.046875 C6.796875,18.890625 6.03125,17.5625 5.0625,16.265625 C4.265625,17.40625 3.234375,18.453125 1.890625,19.390625 L1.53125,19.078125 C2.8125,17.90625 3.71875,16.65625 4.375,15.359375 C3.28125,14.015625 2.0625,12.75 0.796875,11.765625 L1.015625,11.46875 C2.40625,12.234375 3.703125,13.203125 4.84375,14.25 C5.203125,13.375 5.453125,12.453125 5.59375,11.546875 C4.5625,9.046875 2.6875,6.4375 0.625,4.703125 L0.859375,4.390625 C2.90625,5.515625 4.75,7.203125 5.90625,8.78125 L5.921875,7.109375 C5.921875,4.4375 5.65625,1.46875 4.96875,0.5 C4.796875,0.234375 4.609375,0.171875 4.21875,0.171875 C3.34375,0.171875 1.6875,0.3125 1.6875,0.3125 L1.6875,-0.09375 C2.421875,-0.234375 2.96875,-0.453125 3.3125,-0.671875 C3.578125,-0.890625 3.703125,-1.265625 3.703125,-1.828125 C4.828125,-1.828125 5.640625,-1.5625 6.09375,-0.890625 C7.25,0.671875 7.515625,4.015625 7.46875,7.125 C7.4375,10.0625 7.0625,12.765625 5.78125,15.125 C6.984375,16.34375 7.984375,17.59375 8.6875,18.703125 C9.234375,18.59375 9.4375,18.703125 9.59375,18.953125 Z" transform="translate(-0.265625, 20.046875) scale(1, -1)"/>
</svg>