<svg height="21.96875" viewBox="0 0 24 21.96875" width="24" xmlns="http://www.w3.org/2000/svg">
<path d="M19.125,7.9375 L19.125,4.53125 L12.640625,4.53125 L12.640625,7.9375 Z M7.015625,20.015625 C6.5,18.984375 5.765625,17.78125 4.875,16.578125 C4.078125,17.609375 3.078125,18.578125 1.78125,19.4375 L1.421875,19.109375 C2.640625,18.03125 3.53125,16.890625 4.203125,15.71875 C3.140625,14.421875 1.96875,13.171875 0.75,12.1875 L0.984375,11.90625 C2.328125,12.671875 3.59375,13.609375 4.734375,14.640625 C5.0625,13.875 5.328125,13.109375 5.5,12.3125 C4.578125,9.671875 2.78125,6.75 0.75,4.796875 L1.015625,4.515625 C3.03125,5.828125 4.875,7.75 5.921875,9.453125 C5.96875,8.65625 6,7.890625 6,7.078125 C6,4.421875 5.71875,1.46875 5.046875,0.484375 C4.84375,0.21875 4.65625,0.140625 4.25,0.140625 C3.28125,0.140625 1.46875,0.3125 1.46875,0.3125 L1.46875,-0.09375 C2.296875,-0.265625 2.90625,-0.484375 3.234375,-0.71875 C3.53125,-0.9375 3.671875,-1.296875 3.671875,-1.875 C4.84375,-1.875 5.6875,-1.578125 6.140625,-0.9375 C7.15625,0.40625 7.484375,2.921875 7.53125,5.546875 L7.609375,5.453125 C8.828125,6 10.015625,6.625 11.140625,7.296875 L11.140625,-1.828125 L11.375,-1.828125 C12.171875,-1.828125 12.640625,-1.421875 12.640625,-1.296875 L12.640625,-0.390625 L19.125,-0.390625 L19.125,-1.796875 L19.375,-1.796875 C19.875,-1.796875 20.640625,-1.421875 20.65625,-1.265625 L20.65625,7.65625 C21.171875,7.75 21.53125,7.9375 21.703125,8.140625 L19.78125,9.625 L18.890625,8.65625 L13.203125,8.65625 C14.515625,9.625 15.75,10.65625 16.875,11.734375 L22.4375,11.734375 C22.78125,11.734375 22.984375,11.859375 23.0625,12.09375 C22.296875,12.8125 21.046875,13.796875 21.046875,13.796875 L19.9375,12.40625 L17.546875,12.40625 C19.3125,14.234375 20.765625,16.125 21.8125,17.953125 C22.421875,17.828125 22.65625,17.921875 22.828125,18.1875 L20.640625,19.265625 C20.203125,18.390625 19.6875,17.453125 19.078125,16.53125 L17.5,17.875 L16.4375,16.515625 L14.8125,16.515625 L14.8125,19.25 C15.34375,19.34375 15.546875,19.5625 15.59375,19.875 L13.265625,20.09375 L13.265625,16.515625 L8.765625,16.515625 L8.953125,15.8125 L13.265625,15.8125 L13.265625,12.40625 L7.796875,12.40625 L7.984375,11.734375 L15.171875,11.734375 C14.25,10.78125 13.25,9.859375 12.171875,9 L11.140625,9.4375 L11.140625,8.1875 C10.015625,7.34375 8.8125,6.578125 7.5625,5.875 L7.5625,7.109375 C7.515625,10.171875 7.109375,13.015625 5.609375,15.484375 C6.71875,16.5625 7.65625,17.65625 8.328125,18.625 C8.859375,18.53125 9.078125,18.625 9.234375,18.859375 Z M19.125,3.84375 L19.125,0.34375 L12.640625,0.34375 L12.640625,3.84375 Z M14.8125,15.8125 L18.578125,15.8125 C17.765625,14.65625 16.84375,13.515625 15.8125,12.40625 L14.8125,12.40625 Z" transform="translate(0.09375, 20.09375) scale(1, -1)"/>
</svg>