<svg height="21.9375" viewBox="0 0 24 21.9375" width="24" xmlns="http://www.w3.org/2000/svg">
<path d="M19.15625,18.765625 L18.890625,18.578125 C19.75,17.78125 20.6875,16.375 20.828125,15.234375 C22.296875,14.0625 23.640625,17.1875 19.15625,18.765625 Z M3.125,19.96875 L2.828125,19.796875 C3.578125,18.859375 4.3125,17.328125 4.34375,16.125 C5.71875,14.875 7.203125,17.921875 3.125,19.96875 Z M12.703125,12.9375 L12.890625,12.234375 L16.34375,12.234375 C16.125,6.796875 15.265625,2.140625 11.859375,-1.46875 L12.1875,-1.875 C16.21875,1.484375 17.421875,5.921875 17.8125,11.0625 C18.234375,5.46875 19.3125,1.078125 21.84375,-1.875 C22.171875,-1.25 22.703125,-0.890625 23.296875,-0.890625 L23.40625,-0.703125 C20.359375,1.9375 18.71875,6.625 18.21875,12.234375 L22.4375,12.234375 C22.78125,12.234375 22.984375,12.359375 23.0625,12.625 C22.296875,13.34375 21.078125,14.296875 21.078125,14.296875 L19.984375,12.9375 L17.90625,12.9375 C17.96875,14.90625 17.96875,16.9375 18,19.0625 C18.578125,19.15625 18.796875,19.421875 18.84375,19.734375 L16.421875,19.984375 C16.421875,17.515625 16.4375,15.171875 16.375,12.9375 Z M3.484375,11.59375 L4.921875,11.59375 L4.921875,11.5 C4.921875,9.453125 4.84375,7.375 3.484375,5.65625 Z M9.046875,20.0625 C8.71875,18.671875 8.109375,16.78125 7.578125,15.390625 L0.953125,15.390625 L1.15625,14.6875 L4.921875,14.6875 L4.921875,12.28125 L3.765625,12.28125 L2.109375,13.015625 L2.109375,-1.796875 L2.328125,-1.796875 C3,-1.796875 3.484375,-1.421875 3.484375,-1.296875 L3.484375,0.140625 L10.84375,0.140625 L10.84375,-0.8125 L11.0625,-0.8125 C11.546875,-0.8125 12.234375,-0.453125 12.234375,-0.28125 L12.234375,11.296875 C12.71875,11.40625 13.109375,11.59375 13.265625,11.78125 L11.453125,13.203125 L10.625,12.28125 L9.09375,12.28125 L9.09375,14.6875 L13.296875,14.6875 C13.609375,14.6875 13.84375,14.8125 13.890625,15.078125 C13.125,15.796875 11.90625,16.734375 11.90625,16.734375 L10.828125,15.390625 L8.1875,15.390625 C9.078125,16.515625 9.984375,17.90625 10.578125,18.953125 C11.09375,18.9375 11.40625,19.125 11.46875,19.421875 Z M10.84375,11.59375 L10.84375,8.046875 L10.625,8.046875 C10.515625,8.015625 10.390625,7.984375 10.265625,7.96875 C10.21875,7.96875 10.15625,7.96875 10.078125,7.96875 C9.984375,7.96875 9.8125,7.96875 9.703125,7.96875 L9.34375,7.96875 C9.140625,7.96875 9.09375,8.0625 9.09375,8.296875 L9.09375,11.59375 Z M6.234375,11.59375 L7.796875,11.59375 L7.796875,7.890625 C7.796875,7.078125 7.9375,6.703125 8.953125,6.703125 L9.578125,6.703125 C10.125,6.703125 10.53125,6.71875 10.84375,6.796875 L10.84375,4.25 L3.484375,4.25 L3.484375,5.296875 L3.625,5.15625 C6.078125,6.8125 6.21875,9.34375 6.234375,11.515625 Z M6.234375,12.28125 L6.234375,14.6875 L7.796875,14.6875 L7.796875,12.28125 Z M3.484375,3.546875 L10.84375,3.546875 L10.84375,0.859375 L3.484375,0.859375 Z" transform="translate(-0.296875, 20.0625) scale(1, -1)"/>
</svg>