<svg height="21.921875" viewBox="0 0 24 21.921875" width="24" xmlns="http://www.w3.org/2000/svg">
<path d="M1.78125,19.65625 L1.484375,19.484375 C2.15625,18.71875 2.859375,17.453125 3,16.4375 C4.375,15.34375 5.734375,18.140625 1.78125,19.65625 Z M5.375,20.046875 L5.09375,19.921875 C5.59375,19.109375 6.171875,17.8125 6.21875,16.75 C7.484375,15.578125 9.046875,18.265625 5.375,20.046875 Z M0.890625,7.203125 L1.078125,6.5 L13.34375,6.5 C13.65625,6.5 13.875,6.625 13.9375,6.890625 C13.25,7.53125 12.09375,8.421875 12.09375,8.421875 L11.140625,7.203125 Z M19.125,18.765625 L18.859375,18.59375 C19.703125,17.78125 20.609375,16.375 20.734375,15.21875 C22.21875,14.0625 23.609375,17.203125 19.125,18.765625 Z M3.578125,14.65625 L6.390625,14.65625 L6.390625,12.484375 L3.578125,12.484375 Z M10.21875,20.015625 C9.8125,18.578125 9.09375,16.703125 8.421875,15.34375 L3.859375,15.34375 L2.109375,16.125 L2.109375,7.890625 L2.328125,7.890625 C3.078125,7.890625 3.578125,8.28125 3.578125,8.40625 L3.578125,8.828125 L10.703125,8.828125 L10.703125,8.28125 L10.921875,8.28125 C11.421875,8.28125 12.1875,8.640625 12.21875,8.8125 L12.21875,14.453125 C12.59375,14.515625 12.953125,14.71875 13.078125,14.875 L11.296875,16.21875 L10.484375,15.34375 L9.03125,15.34375 C10.0625,16.421875 11.109375,17.734375 11.765625,18.75 C12.265625,18.71875 12.578125,18.90625 12.671875,19.171875 Z M10.703125,14.65625 L10.703125,12.484375 L7.796875,12.484375 L7.796875,14.65625 Z M3.578125,11.78125 L6.390625,11.78125 L6.390625,9.53125 L3.578125,9.53125 Z M10.703125,11.78125 L10.703125,9.53125 L7.796875,9.53125 L7.796875,11.78125 Z M4.25,4.125 L10.0625,4.125 L10.0625,0.859375 L4.25,0.859375 Z M2.71875,4.84375 L2.71875,-1.796875 L2.953125,-1.796875 C3.75,-1.796875 4.25,-1.421875 4.25,-1.296875 L4.25,0.171875 L10.0625,0.171875 L10.0625,-1.015625 L10.265625,-1.015625 C10.78125,-1.015625 11.5625,-0.640625 11.5625,-0.5 L11.5625,3.9375 C12,4.015625 12.34375,4.171875 12.484375,4.34375 L10.65625,5.734375 L9.84375,4.84375 L4.53125,4.84375 L2.71875,5.640625 Z M12.703125,12.9375 L12.890625,12.234375 L16.265625,12.234375 C16.078125,6.75 15.1875,2.109375 11.765625,-1.46875 L12.09375,-1.875 C16.171875,1.4375 17.375,5.859375 17.734375,11.046875 C18.1875,5.453125 19.296875,1.078125 21.8125,-1.875 C22.15625,-1.25 22.6875,-0.859375 23.28125,-0.890625 L23.375,-0.703125 C20.296875,1.9375 18.671875,6.625 18.140625,12.234375 L22.4375,12.234375 C22.78125,12.234375 22.984375,12.359375 23.0625,12.625 C22.296875,13.34375 21.078125,14.296875 21.078125,14.296875 L19.984375,12.9375 L17.828125,12.9375 C17.90625,14.875 17.90625,16.9375 17.921875,19.0625 C18.5,19.15625 18.703125,19.421875 18.765625,19.734375 L16.34375,19.984375 C16.34375,17.515625 16.375,15.171875 16.296875,12.9375 Z" transform="translate(-0.25, 20.046875) scale(1, -1)"/>
</svg>