<svg height="21.984375" viewBox="0 0 24 21.984375" width="24" xmlns="http://www.w3.org/2000/svg">
<path d="M4.15625,10.703125 L4.3125,10.015625 L12.390625,10.015625 C12.71875,10.015625 12.9375,10.125 13.015625,10.390625 C12.390625,10.96875 11.5,11.6875 11.5,11.6875 L10.6875,10.703125 Z M19.15625,18.765625 L18.890625,18.578125 C19.75,17.78125 20.6875,16.375 20.828125,15.234375 C22.296875,14.0625 23.640625,17.1875 19.15625,18.765625 Z M5.828125,1.921875 L6.03125,1.203125 L7.578125,1.203125 L7.578125,-1.4375 L7.78125,-1.4375 C8.421875,-1.4375 8.859375,-1.15625 8.859375,-1.0625 L8.859375,1.203125 L10.3125,1.203125 C10.609375,1.203125 10.828125,1.3125 10.875,1.578125 C10.4375,2.0625 9.765625,2.59375 9.765625,2.59375 L9.171875,1.921875 Z M5.109375,9.125 L5.109375,5.859375 L5.296875,5.859375 C5.921875,5.859375 6.359375,6.171875 6.359375,6.28125 L6.359375,6.546875 L10.484375,6.546875 L10.484375,6 L10.6875,6 C11.25,6 11.765625,6.3125 11.765625,6.40625 L11.765625,8.359375 C12.21875,8.421875 12.4375,8.5625 12.578125,8.734375 L11.0625,9.859375 L10.4375,9.125 L6.640625,9.125 L5.109375,9.8125 Z M6.359375,7.25 L6.359375,8.421875 L10.484375,8.421875 L10.484375,7.25 Z M3.859375,5.375 L3.859375,-1.875 L4.078125,-1.875 C4.75,-1.875 5.203125,-1.625 5.203125,-1.53125 L5.203125,4.6875 L6.625,4.6875 C6.546875,3.9375 6.28125,3.21875 5.375,2.515625 L5.765625,2.15625 C7.125,2.8125 7.53125,3.71875 7.6875,4.6875 L8.734375,4.6875 L8.734375,3.796875 C8.734375,3.140625 8.875,2.859375 9.703125,2.859375 L10.34375,2.859375 C10.78125,2.859375 11.140625,2.875 11.375,2.90625 L11.375,0.3125 C11.375,0.03125 11.296875,-0.078125 11.046875,-0.078125 C10.703125,-0.078125 9.640625,0 9.640625,0 L9.640625,-0.390625 C10.203125,-0.453125 10.515625,-0.625 10.703125,-0.8125 C10.921875,-1.03125 10.96875,-1.4375 10.984375,-1.828125 C12.53125,-1.625 12.71875,-0.953125 12.71875,0.171875 L12.71875,4.390625 C13.203125,4.46875 13.609375,4.6875 13.75,4.84375 L11.859375,6.234375 L11.140625,5.375 L5.359375,5.375 L3.859375,6.03125 Z M11.375,4.6875 L11.375,3.84375 L11.25,3.84375 C11.1875,3.8125 11.046875,3.796875 10.96875,3.796875 C10.921875,3.796875 10.84375,3.796875 10.78125,3.796875 C10.703125,3.796875 10.5625,3.796875 10.4375,3.796875 L9.984375,3.796875 C9.8125,3.796875 9.765625,3.859375 9.765625,4.0625 L9.765625,4.6875 Z M2.1875,16.3125 L2.1875,10.796875 C2.1875,6.90625 2.203125,2.46875 0.8125,-1.15625 L1.171875,-1.375 C3.578125,2.1875 3.59375,7.25 3.59375,10.796875 L3.59375,15.59375 L6.125,15.59375 L6.125,14.140625 L3.8125,13.921875 L4.0625,13.265625 L6.125,13.4375 L6.125,12.8125 C6.125,12 6.359375,11.71875 7.6875,11.71875 L9.40625,11.71875 C12.046875,11.71875 12.578125,11.875 12.578125,12.40625 C12.578125,12.640625 12.40625,12.75 12,12.890625 L11.921875,13.828125 L11.65625,13.828125 C11.515625,13.421875 11.359375,13.015625 11.234375,12.859375 C11.140625,12.765625 11.015625,12.765625 10.875,12.75 C10.6875,12.75 10.109375,12.75 9.453125,12.75 L7.921875,12.75 C7.375,12.75 7.3125,12.796875 7.3125,13.03125 L7.3125,13.53125 L10.46875,13.796875 C10.734375,13.828125 10.9375,13.984375 10.96875,14.25 C10.484375,14.6875 9.59375,15.3125 9.59375,15.3125 L8.96875,14.40625 L7.3125,14.25 L7.3125,14.953125 C7.65625,15 7.890625,15.21875 7.921875,15.453125 L6.9375,15.59375 L11.8125,15.59375 C11.65625,15.078125 11.5,14.5 11.375,14.140625 L11.71875,13.96875 C12.21875,14.296875 12.984375,14.953125 13.4375,15.390625 C13.84375,15.40625 14.140625,15.4375 14.296875,15.59375 L12.59375,17.25 L11.71875,16.3125 L7.875,16.3125 L7.875,17.46875 L12.234375,17.46875 C12.578125,17.46875 12.8125,17.59375 12.859375,17.859375 C12.171875,18.5 11.0625,19.375 11.0625,19.375 L10.109375,18.1875 L7.875,18.1875 L7.875,19.21875 C8.453125,19.296875 8.6875,19.53125 8.734375,19.875 L6.359375,20.109375 L6.359375,16.3125 L3.890625,16.3125 L2.1875,17.0625 Z M13.0625,12.9375 L13.25,12.234375 L16.375,12.234375 C16.171875,6.796875 15.4375,2.140625 12.453125,-1.46875 L12.84375,-1.84375 C16.421875,1.4375 17.46875,5.859375 17.8125,10.921875 C18.234375,5.40625 19.34375,1.0625 21.84375,-1.875 C22.171875,-1.25 22.703125,-0.890625 23.296875,-0.890625 L23.40625,-0.703125 C20.359375,1.9375 18.71875,6.625 18.21875,12.234375 L22.46875,12.234375 C22.796875,12.234375 23.046875,12.359375 23.09375,12.625 C22.34375,13.34375 21.125,14.296875 21.125,14.296875 L20.046875,12.9375 L17.90625,12.9375 C17.96875,14.90625 17.96875,16.9375 18,19.0625 C18.578125,19.15625 18.796875,19.421875 18.84375,19.734375 L16.421875,19.984375 C16.421875,17.515625 16.4375,15.171875 16.390625,12.9375 Z" transform="translate(-0.2265625, 20.109375) scale(1, -1)"/>
</svg>