<svg height="22.296875" viewBox="0 0 24 22.296875" width="24" xmlns="http://www.w3.org/2000/svg">
<path d="M11.203125,6.59375 L10.96875,6.359375 C11.5625,6.03125 12.21875,5.40625 12.5,4.890625 C13.578125,4.296875 14.296875,6.28125 11.203125,6.59375 Z M11.140625,4.015625 L10.890625,3.765625 C11.5,3.453125 12.21875,2.8125 12.5,2.328125 C13.609375,1.75 14.296875,3.765625 11.140625,4.015625 Z M16.125,6.4375 L15.890625,6.1875 C16.53125,5.859375 17.25,5.234375 17.5625,4.703125 C18.625,4.125 19.34375,6.140625 16.125,6.4375 Z M16.078125,3.859375 L15.84375,3.625 C16.515625,3.265625 17.28125,2.5625 17.609375,1.984375 C18.703125,1.390625 19.390625,3.453125 16.078125,3.859375 Z M10.734375,20.09375 C10.515625,19.5625 9.75,18.125 9.28125,17.359375 C10.203125,16.609375 10.75,15.5 10.875,14.765625 C12.125,13.890625 13.921875,16.125 9.90625,17.421875 C10.609375,17.90625 11.734375,18.75 12.1875,19.15625 C12.53125,19.078125 12.75,19.203125 12.8125,19.390625 Z M15.078125,20.09375 C14.859375,19.5625 14.015625,18.125 13.53125,17.359375 C14.46875,16.609375 15.078125,15.484375 15.21875,14.765625 C16.421875,13.9375 18.046875,16.03125 14.1875,17.421875 C14.875,17.921875 15.984375,18.765625 16.421875,19.171875 C16.78125,19.125 16.96875,19.25 17.046875,19.4375 Z M18.953125,7.484375 C18.984375,4.078125 19.078125,0.953125 21.078125,-1.21875 C21.578125,-1.75 22.703125,-2.203125 23.109375,-1.578125 C23.296875,-1.296875 23.25,-1.03125 22.828125,-0.40625 L23.046875,1.9375 L22.734375,1.984375 C22.53125,1.34375 22.265625,0.578125 22.109375,0.234375 C21.953125,-0.078125 21.859375,-0.078125 21.71875,0.140625 C20.359375,1.734375 20.359375,4.4375 20.40625,6.71875 C20.859375,6.796875 21.046875,7.03125 21.09375,7.265625 Z M12.140625,12.9375 L12,12.5 C12.90625,12.21875 13.78125,11.859375 14.546875,11.5 C13.390625,10.84375 12.125,10.265625 10.984375,9.859375 L11.203125,9.453125 C12.625,9.8125 14.1875,10.375 15.546875,10.984375 C16.578125,10.46875 17.421875,9.90625 17.90625,9.5 C18.765625,9.1875 19.21875,10.34375 16.65625,11.5625 C17.203125,11.875 17.6875,12.1875 18.078125,12.5 C18.453125,12.359375 18.75,12.390625 18.890625,12.59375 L17.515625,13.4375 L20.15625,13.4375 L20.15625,9.234375 L10.171875,9.234375 L10.171875,13.4375 L17.28125,13.4375 C16.796875,12.953125 16.171875,12.5 15.484375,12.046875 C14.59375,12.359375 13.515625,12.671875 12.140625,12.9375 Z M19.515625,20.09375 C19.21875,19.578125 18.234375,18.125 17.71875,17.40625 C18.703125,16.65625 19.34375,15.578125 19.53125,14.828125 C19.84375,14.609375 20.1875,14.59375 20.453125,14.6875 L19.9375,14.140625 L10.484375,14.140625 L8.734375,14.90625 L8.734375,7.609375 L8.953125,7.609375 C9.703125,7.609375 10.171875,7.984375 10.171875,8.109375 L10.171875,8.546875 L20.15625,8.546875 L20.15625,7.734375 L20.40625,7.734375 C20.90625,7.734375 21.625,8.109375 21.640625,8.28125 L21.640625,13.171875 C22.125,13.265625 22.515625,13.46875 22.65625,13.625 L20.859375,15.03125 C21.21875,15.59375 20.859375,16.703125 18.359375,17.453125 C19.125,17.921875 20.375,18.71875 20.859375,19.109375 C21.234375,19.03125 21.4375,19.15625 21.5,19.3125 Z M6.9375,0.03125 L7.84375,-1.796875 C8.09375,-1.734375 8.25,-1.5625 8.359375,-1.25 C10.65625,-0.34375 12.390625,0.4375 13.578125,0.953125 L13.484375,1.296875 L10.609375,0.71875 L10.609375,6.75 C11.0625,6.8125 11.25,7.03125 11.28125,7.265625 L9.171875,7.484375 L9.171875,0.4375 Z M13.203125,0.09375 L14.0625,-1.734375 C14.28125,-1.6875 14.5,-1.484375 14.5625,-1.171875 C16.65625,-0.34375 18.21875,0.390625 19.265625,0.890625 L19.203125,1.21875 L15.625,0.53125 L15.625,6.765625 C16.078125,6.84375 16.265625,7.03125 16.296875,7.296875 L14.296875,7.484375 L14.296875,0.28125 Z M6.625,20.015625 C6.171875,19.015625 5.5,17.828125 4.703125,16.65625 C3.9375,17.65625 2.96875,18.578125 1.78125,19.4375 L1.421875,19.109375 C2.5625,18.046875 3.4375,16.9375 4.078125,15.796875 C3.078125,14.421875 1.9375,13.125 0.765625,12.09375 L1.015625,11.8125 C2.296875,12.59375 3.53125,13.609375 4.625,14.65625 C4.984375,13.828125 5.234375,12.984375 5.421875,12.09375 C4.484375,9.53125 2.734375,6.703125 0.75,4.796875 L1.015625,4.515625 C2.953125,5.78125 4.734375,7.609375 5.78125,9.234375 C5.828125,8.515625 5.859375,7.796875 5.859375,7.0625 C5.859375,4.390625 5.5625,1.390625 4.890625,0.40625 C4.734375,0.171875 4.53125,0.078125 4.15625,0.078125 C3.21875,0.078125 1.46875,0.234375 1.46875,0.234375 L1.46875,-0.171875 C2.25,-0.3125 2.828125,-0.546875 3.171875,-0.765625 C3.4375,-0.984375 3.578125,-1.3125 3.578125,-1.875 C4.734375,-1.875 5.515625,-1.609375 6,-0.953125 C7.125,0.640625 7.421875,3.984375 7.375,7.078125 C7.34375,10.203125 6.90625,13.03125 5.46875,15.53125 C6.484375,16.578125 7.3125,17.6875 7.9375,18.625 C8.515625,18.546875 8.71875,18.640625 8.859375,18.890625 Z" transform="translate(-0.0234375, 20.09375) scale(1, -1)"/>
</svg>