<svg height="22" viewBox="0 0 24 22" width="24" xmlns="http://www.w3.org/2000/svg">
<path d="M16.53125,11.234375 L16.296875,10.96875 C17.734375,10.203125 19.609375,8.6875 20.25,7.4375 C21.984375,6.640625 22.484375,10.15625 16.53125,11.234375 Z M16.46875,14.734375 L16.296875,14.453125 C17.6875,13.875 19.53125,12.671875 20.28125,11.6875 C21.984375,11.140625 22.15625,14.421875 16.46875,14.734375 Z M6.3125,11.765625 C5.40625,10.3125 3.4375,8.359375 1.625,7.15625 L1.890625,6.84375 C3.984375,7.78125 6.125,9.34375 7.265625,10.5625 C7.78125,10.4375 7.984375,10.53125 8.140625,10.78125 Z M5.90625,15.359375 C5.15625,14.28125 3.546875,12.75 2.109375,11.828125 L2.375,11.515625 C4.078125,12.140625 5.859375,13.265625 6.859375,14.1875 C7.078125,14.109375 7.25,14.09375 7.375,14.109375 C8.25,13.375 9.265625,12.078125 9.53125,11.046875 C10.6875,10.265625 11.609375,11.859375 10.03125,13.203125 C10.78125,13.828125 11.59375,14.5625 12.28125,15.28125 C12.75,15.234375 13.0625,15.40625 13.171875,15.625 L11.90625,16.265625 L21.75,16.265625 C22.078125,16.265625 22.3125,16.390625 22.390625,16.65625 C21.53125,17.421875 20.15625,18.4375 20.15625,18.453125 L18.9375,16.96875 L12.765625,16.96875 L12.765625,19.265625 C13.296875,19.375 13.515625,19.578125 13.53125,19.890625 L11.15625,20.109375 L11.15625,16.96875 L1.65625,16.96875 L1.875,16.265625 L10.796875,16.265625 C10.375,15.3125 9.859375,14.375 9.40625,13.625 C8.96875,13.890625 8.40625,14.140625 7.703125,14.328125 L7.734375,14.359375 Z M13.65625,14.375 C12.578125,12.53125 10.796875,10.125 9.21875,8.359375 L6.890625,8.28125 L7.9375,6.359375 C8.15625,6.40625 8.375,6.578125 8.515625,6.859375 L11.15625,7.34375 L11.15625,4.53125 L0.984375,4.53125 L1.203125,3.859375 L11.15625,3.859375 L11.15625,-1.890625 L11.46875,-1.890625 C12.078125,-1.890625 12.765625,-1.578125 12.765625,-1.375 L12.765625,3.859375 L22.3125,3.859375 C22.6875,3.859375 22.921875,3.953125 22.96875,4.21875 C22.109375,5.015625 20.734375,6.046875 20.734375,6.046875 L19.515625,4.53125 L12.765625,4.53125 L12.765625,6.5 C13.296875,6.578125 13.515625,6.8125 13.5625,7.109375 L11.203125,7.34375 C12.796875,7.625 14.09375,7.875 15.125,8.109375 C15.34375,7.625 15.5,7.15625 15.546875,6.71875 C17.140625,5.40625 18.59375,8.828125 13.6875,10.78125 L13.4375,10.609375 C13.921875,10.109375 14.453125,9.390625 14.859375,8.640625 L10.03125,8.40625 C11.8125,9.8125 13.6875,11.65625 14.8125,13.078125 C15.34375,12.984375 15.640625,13.15625 15.796875,13.390625 Z" transform="translate(0.0234375, 20.109375) scale(1, -1)"/>
</svg>