<svg height="23.1875" viewBox="0 0 24 23.1875" width="24" xmlns="http://www.w3.org/2000/svg">
<path d="M3.4375,11.640625 L3.171875,11.421875 C4.921875,10.125 7.21875,7.84375 7.984375,6.046875 C9.5,5.234375 10.3125,7.46875 7.515625,9.625 C8.875,10.921875 10.3125,12.625 11.5,14.296875 C12,14.203125 12.3125,14.40625 12.4375,14.65625 L11.046875,15.28125 L22.34375,15.28125 C22.6875,15.28125 22.9375,15.40625 22.984375,15.671875 C22.125,16.46875 20.71875,17.546875 20.71875,17.546875 L19.46875,15.984375 L12.703125,15.984375 L12.703125,19.265625 C13.296875,19.375 13.53125,19.609375 13.578125,19.921875 L11.109375,20.1875 L11.109375,15.984375 L1.015625,15.984375 L1.21875,15.28125 L9.75,15.28125 C8.90625,13.421875 7.875,11.453125 7.015625,10.015625 C6.125,10.578125 4.9375,11.15625 3.4375,11.640625 Z M15.71875,12.9375 C13.609375,9.4375 10.109375,4.6875 7.0625,1.21875 C4.875,1.15625 3.078125,1.078125 1.84375,1.078125 L2.875,-1.171875 C3.140625,-1.125 3.390625,-0.953125 3.546875,-0.703125 C10.5625,0.078125 15.59375,0.703125 19.34375,1.21875 C19.96875,0.28125 20.46875,-0.640625 20.71875,-1.515625 C22.828125,-3 23.90625,1.96875 15.796875,5.8125 L15.5,5.609375 C16.625,4.609375 17.953125,3.21875 18.984375,1.78125 C14.90625,1.5625 11.046875,1.375 7.875,1.25 C11.28125,4.3125 14.96875,8.5 17.15625,11.546875 C17.71875,11.46875 18.078125,11.640625 18.21875,11.90625 Z" transform="translate(-0.4609375, 20.1875) scale(1, -1)"/>
</svg>