<svg height="21.765625" viewBox="0 0 24 21.765625" width="24" xmlns="http://www.w3.org/2000/svg">
<path d="M20.5,19.96875 C17.921875,19.109375 12.984375,18.125 9,17.71875 L9.078125,17.28125 C13.21875,17.28125 17.90625,17.78125 21,18.28125 C21.546875,18.046875 21.984375,18.046875 22.21875,18.21875 Z M9.40625,16.265625 L9.140625,16.109375 C9.890625,15.1875 10.703125,13.703125 10.796875,12.5 C12.28125,11.28125 13.796875,14.46875 9.40625,16.265625 Z M13.53125,16.75 L13.265625,16.625 C13.96875,15.703125 14.6875,14.1875 14.734375,12.984375 C16.171875,11.65625 17.78125,14.828125 13.53125,16.75 Z M20.046875,17.359375 C19.21875,15.234375 18.078125,13.109375 17.09375,11.78125 L17.421875,11.546875 C18.8125,12.578125 20.296875,14.203125 21.453125,15.953125 C21.953125,15.859375 22.25,16.0625 22.375,16.296875 Z M20.015625,4.9375 L20.015625,0.625 L16.203125,0.625 L16.203125,6.59375 L22.5625,6.59375 C22.890625,6.59375 23.140625,6.71875 23.1875,6.984375 C22.421875,7.6875 21.171875,8.71875 21.171875,8.71875 L20.09375,7.265625 L16.203125,7.265625 L16.203125,10.375 L22.03125,10.375 C22.375,10.375 22.609375,10.484375 22.65625,10.75 C21.90625,11.46875 20.6875,12.453125 20.6875,12.453125 L19.609375,11.09375 L9.125,11.09375 L9.3125,10.375 L14.65625,10.375 L14.65625,7.265625 L8.28125,7.265625 L8.46875,6.59375 L14.65625,6.59375 L14.65625,0.625 L10.75,0.625 L10.75,4.0625 C11.328125,4.15625 11.546875,4.375 11.59375,4.6875 L9.234375,4.9375 L9.234375,-1.796875 L9.53125,-1.796875 C10.109375,-1.796875 10.75,-1.484375 10.75,-1.3125 L10.75,-0.09375 L20.015625,-0.09375 L20.015625,-1.703125 L20.296875,-1.703125 C20.90625,-1.703125 21.578125,-1.390625 21.578125,-1.21875 L21.578125,4.015625 C22.171875,4.109375 22.390625,4.34375 22.46875,4.6875 Z M0.703125,2.296875 L1.75,0.453125 C1.96875,0.546875 2.140625,0.796875 2.15625,1.078125 C4.9375,2.71875 7.078125,4.125 8.515625,5.09375 L8.375,5.453125 L5.5,4.21875 L5.5,10.3125 L8.109375,10.3125 C8.453125,10.3125 8.65625,10.421875 8.734375,10.6875 C8.0625,11.40625 6.984375,12.359375 6.984375,12.359375 L6,11.015625 L5.5,11.015625 L5.5,16.828125 L8.15625,16.828125 C8.5,16.828125 8.734375,16.9375 8.8125,17.203125 C8.046875,17.921875 6.859375,18.90625 6.859375,18.90625 L5.78125,17.546875 L1.03125,17.546875 L1.21875,16.828125 L3.953125,16.828125 L3.953125,11.015625 L1.171875,11.015625 L1.375,10.3125 L3.953125,10.3125 L3.953125,3.578125 C2.546875,2.96875 1.375,2.515625 0.703125,2.296875 Z" transform="translate(0.0546875, 19.96875) scale(1, -1)"/>
</svg>