<svg height="21.796875" viewBox="0 0 24 21.796875" width="24" xmlns="http://www.w3.org/2000/svg">
<path d="M7.984375,12.671875 L8.1875,11.96875 L22.390625,11.96875 C22.734375,11.96875 22.9375,12.078125 23.015625,12.34375 C22.21875,13.03125 21.03125,13.890625 21.03125,13.890625 L19.9375,12.671875 Z M12.625,14.96875 L10.390625,14.96875 L10.390625,18.28125 L12.625,18.28125 Z M13.921875,14.96875 L13.921875,18.28125 L16.25,18.28125 L16.25,14.96875 Z M17.515625,14.96875 L17.515625,18.28125 L19.828125,18.28125 L19.828125,14.96875 Z M8.90625,18.984375 L8.90625,13.265625 L9.125,13.265625 C9.71875,13.265625 10.390625,13.609375 10.390625,13.734375 L10.390625,14.28125 L19.828125,14.28125 L19.828125,13.796875 L20.046875,13.796875 C20.546875,13.796875 21.3125,14.15625 21.328125,14.296875 L21.328125,18 C21.765625,18.09375 22.171875,18.265625 22.34375,18.453125 L20.421875,19.921875 L19.578125,18.984375 L10.515625,18.984375 L8.90625,19.734375 Z M20.6875,5.953125 C19.9375,5.09375 18.890625,4.078125 17.96875,3.3125 C17.140625,4.125 16.4375,5.0625 15.890625,6.046875 L19.078125,6.046875 L19.078125,5.40625 L19.3125,5.40625 C19.84375,5.40625 20.59375,5.78125 20.609375,5.921875 L20.609375,9.28125 C21.09375,9.390625 21.5,9.578125 21.640625,9.765625 L19.703125,11.203125 L18.84375,10.296875 L11.28125,10.296875 L9.671875,11.015625 L9.671875,5.09375 L9.890625,5.09375 C10.515625,5.09375 11.15625,5.453125 11.15625,5.5625 L11.15625,6.046875 L13.65625,6.046875 C11.78125,3.671875 8.90625,1.5625 5.609375,0.09375 L5.828125,-0.3125 C8.71875,0.640625 11.328125,1.984375 13.375,3.703125 L13.375,-1.875 L13.578125,-1.875 C14.359375,-1.875 14.90625,-1.53125 14.90625,-1.390625 L14.90625,5.15625 L15.4375,5.765625 C16.796875,2.40625 19.109375,-0.078125 21.984375,-1.484375 C22.15625,-0.75 22.625,-0.3125 23.234375,-0.21875 L23.25,0.046875 C21.546875,0.59375 19.890625,1.5625 18.5,2.8125 C19.625,3.3125 20.90625,4.015625 21.765625,4.5625 C22.203125,4.46875 22.390625,4.484375 22.53125,4.703125 Z M14.1875,6.765625 L11.15625,6.765625 L11.15625,9.578125 L19.078125,9.578125 L19.078125,6.765625 Z M0.703125,2.296875 L1.75,0.453125 C1.96875,0.546875 2.140625,0.796875 2.15625,1.078125 C4.9375,2.71875 7.078125,4.125 8.515625,5.09375 L8.375,5.453125 L5.5,4.21875 L5.5,10.3125 L8.109375,10.3125 C8.453125,10.3125 8.65625,10.421875 8.734375,10.6875 C8.0625,11.40625 6.984375,12.359375 6.984375,12.359375 L6,11.015625 L5.5,11.015625 L5.5,16.828125 L8.15625,16.828125 C8.5,16.828125 8.734375,16.9375 8.8125,17.203125 C8.046875,17.921875 6.859375,18.90625 6.859375,18.90625 L5.78125,17.546875 L1.03125,17.546875 L1.21875,16.828125 L3.953125,16.828125 L3.953125,11.015625 L1.171875,11.015625 L1.375,10.3125 L3.953125,10.3125 L3.953125,3.578125 C2.546875,2.96875 1.375,2.515625 0.703125,2.296875 Z" transform="translate(0.0234375, 19.921875) scale(1, -1)"/>
</svg>