<svg height="22.328125" viewBox="0 0 24 22.328125" width="24" xmlns="http://www.w3.org/2000/svg">
<path d="M2.859375,19.96875 L2.546875,19.828125 C3.390625,18.71875 4.265625,16.9375 4.3125,15.546875 C5.765625,14.234375 7.3125,17.546875 2.859375,19.96875 Z M15.453125,10.390625 L15.140625,10.25 C15.890625,8.90625 16.65625,6.765625 16.625,5.15625 C17.953125,3.796875 19.4375,7.109375 15.453125,10.390625 Z M7.875,14.234375 L7.875,8.859375 L5.203125,8.859375 L5.203125,8.90625 L5.203125,14.234375 Z M8.609375,20.140625 C8.234375,18.578125 7.578125,16.46875 6.953125,14.921875 L1.265625,14.921875 L1.46875,14.234375 L3.75,14.234375 L3.75,8.859375 L0.984375,8.859375 L1.171875,8.15625 L3.75,8.15625 C3.703125,4.828125 3.34375,1.25 0.953125,-1.578125 L1.296875,-1.875 C4.65625,0.8125 5.15625,4.75 5.203125,8.15625 L7.875,8.15625 L7.875,-1.875 L8.109375,-1.875 C8.875,-1.875 9.359375,-1.484375 9.359375,-1.375 L9.359375,8.15625 L12.078125,8.15625 C12.390625,8.15625 12.625,8.28125 12.671875,8.546875 C11.96875,9.234375 10.828125,10.171875 10.828125,10.171875 L9.8125,8.859375 L9.359375,8.859375 L9.359375,14.234375 L11.65625,14.234375 C12,14.234375 12.21875,14.359375 12.28125,14.609375 C11.5625,15.28125 10.390625,16.21875 10.390625,16.21875 L9.359375,14.921875 L7.5625,14.921875 C8.59375,16.203125 9.578125,17.765625 10.21875,18.890625 C10.703125,18.859375 11.015625,19.0625 11.109375,19.3125 Z M11.515625,18.09375 L11.71875,17.40625 L13.609375,17.40625 C13.515625,13.03125 12.84375,4.921875 12.1875,0.765625 L10.265625,0.34375 L11.28125,-1.625 C11.5,-1.5625 11.6875,-1.34375 11.78125,-1.0625 C14.96875,0.265625 17.296875,1.375 18.984375,2.15625 L18.890625,2.515625 L13.75,1.15625 C14.15625,4.421875 14.546875,8.953125 14.828125,12.890625 L18.984375,12.890625 C19.015625,7.609375 19.203125,1.890625 20.765625,-0.59375 C21.28125,-1.515625 22.21875,-2.1875 22.890625,-1.703125 C23.1875,-1.4375 23.09375,-0.953125 22.703125,-0.125 L23.0625,3.265625 L22.78125,3.3125 C22.5625,2.609375 22.3125,1.796875 22.0625,1.03125 C21.953125,0.75 21.859375,0.71875 21.71875,0.953125 C20.65625,2.734375 20.40625,8.609375 20.59375,12.59375 C21.09375,12.671875 21.4375,12.8125 21.59375,12.984375 L19.703125,14.59375 L18.765625,13.609375 L14.875,13.609375 L15.125,17.40625 L22.375,17.40625 C22.703125,17.40625 22.9375,17.515625 23.015625,17.78125 C22.203125,18.5 20.953125,19.515625 20.953125,19.515625 L19.828125,18.09375 Z" transform="translate(-0.0703125, 20.140625) scale(1, -1)"/>
</svg>