<svg height="22.375" viewBox="0 0 24 22.375" width="24" xmlns="http://www.w3.org/2000/svg">
<path d="M15.9375,10.171875 L15.59375,10.0625 C16.3125,8.6875 17.09375,6.578125 17.046875,4.96875 C18.359375,3.578125 19.84375,6.890625 15.9375,10.171875 Z M0.71875,8.140625 L1.75,6.359375 C1.96875,6.4375 2.140625,6.640625 2.203125,6.9375 L3.671875,7.75 C3.59375,4.5625 3.21875,1.203125 1.21875,-1.5625 L1.5625,-1.828125 C4.78125,0.984375 5.15625,5.140625 5.1875,8.609375 L7.609375,10.03125 L7.515625,10.375 L5.1875,9.546875 L5.1875,14.71875 L8.5625,14.71875 L8.5625,8.28125 L6.140625,8.28125 L6.34375,7.578125 L8.5625,7.578125 L8.5625,-1.875 L8.8125,-1.875 C9.578125,-1.875 10.078125,-1.484375 10.078125,-1.375 L10.078125,7.578125 L12.703125,7.578125 C13.03125,7.578125 13.25,7.703125 13.3125,7.96875 C12.640625,8.640625 11.546875,9.578125 11.546875,9.578125 L10.5625,8.28125 L10.078125,8.28125 L10.078125,14.71875 L12.4375,14.71875 C12.75,14.71875 12.953125,14.828125 13.03125,15.09375 C12.40625,15.75 11.359375,16.625 11.359375,16.625 L10.4375,15.4375 L9.046875,15.4375 C9.9375,16.578125 10.875,18.03125 11.46875,19.109375 C12,19.125 12.265625,19.375 12.34375,19.6875 L9.75,20.140625 C9.4375,18.75 8.921875,16.828125 8.46875,15.4375 L7.296875,15.4375 C6.703125,16.015625 6,16.578125 6,16.578125 L5.140625,15.4375 L4.484375,15.4375 C5.203125,16.609375 5.953125,18.09375 6.390625,19.15625 C6.90625,19.203125 7.171875,19.4375 7.21875,19.75 L4.65625,20.140625 C4.484375,18.765625 4.21875,16.828125 3.9375,15.4375 L1.296875,15.4375 L1.484375,14.71875 L3.703125,14.71875 L3.703125,9.1875 L3.703125,9.078125 C2.40625,8.640625 1.34375,8.296875 0.71875,8.140625 Z M15.703125,18.09375 L11.859375,18.09375 L12.046875,17.40625 L14.203125,17.40625 C14.140625,13.03125 13.46875,4.9375 12.890625,0.765625 L10.796875,0.28125 L11.828125,-1.6875 C12.046875,-1.609375 12.234375,-1.390625 12.3125,-1.109375 C15.359375,0.21875 17.59375,1.34375 19.171875,2.109375 L19.078125,2.46875 L14.40625,1.171875 C14.78125,4.4375 15.171875,9 15.40625,12.9375 L19.25,12.9375 C19.203125,7.625 19.34375,1.875 20.78125,-0.640625 C21.3125,-1.5625 22.25,-2.234375 22.890625,-1.75 C23.1875,-1.515625 23.09375,-1.015625 22.703125,-0.171875 L23.0625,3.234375 L22.78125,3.28125 C22.609375,2.59375 22.34375,1.78125 22.078125,0.984375 C21.953125,0.703125 21.90625,0.671875 21.75,0.90625 C20.859375,2.6875 20.640625,8.609375 20.828125,12.625 C21.328125,12.703125 21.671875,12.859375 21.8125,13.015625 L19.921875,14.640625 L19.03125,13.625 L15.453125,13.625 L15.671875,17.40625 L22.4375,17.40625 C22.78125,17.40625 23.015625,17.515625 23.0625,17.78125 C22.265625,18.53125 21,19.515625 21,19.515625 L19.875,18.09375 Z" transform="translate(0.046875, 20.140625) scale(1, -1)"/>
</svg>