<svg height="22.234375" viewBox="0 0 24 22.234375" width="24" xmlns="http://www.w3.org/2000/svg">
<path d="M3,20.0625 L2.71875,19.921875 C3.40625,19.078125 4.171875,17.65625 4.265625,16.5625 C5.640625,15.40625 7.015625,18.3125 3,20.0625 Z M16.296875,10.203125 L15.953125,10.0625 C16.703125,8.71875 17.46875,6.578125 17.40625,4.9375 C18.703125,3.578125 20.234375,6.90625 16.296875,10.203125 Z M8.96875,20.09375 C8.65625,18.9375 8.109375,17.375 7.578125,16.25 L3.59375,16.25 L1.875,16.984375 L1.875,7.984375 L2.09375,7.984375 C2.8125,7.984375 3.3125,8.375 3.3125,8.5 L3.3125,9.046875 L10.515625,9.046875 L10.515625,8.40625 L10.734375,8.40625 C11.203125,8.40625 11.953125,8.765625 11.96875,8.90625 L11.96875,15.265625 C12.4375,15.359375 12.796875,15.546875 12.953125,15.75 L11.109375,17.140625 L10.265625,16.25 L8.25,16.25 C9.09375,17.109375 9.953125,18.171875 10.515625,18.984375 C10.984375,18.984375 11.296875,19.171875 11.40625,19.484375 Z M3.3125,9.765625 L3.3125,12.453125 L6.09375,12.453125 L6.09375,9.765625 Z M10.515625,9.765625 L7.46875,9.765625 L7.46875,12.453125 L10.515625,12.453125 Z M3.3125,15.53125 L6.09375,15.53125 L6.09375,13.15625 L3.3125,13.15625 Z M10.515625,15.53125 L10.515625,13.15625 L7.46875,13.15625 L7.46875,15.53125 Z M4.296875,6.484375 L9.484375,6.484375 L9.484375,3.984375 L4.296875,3.984375 Z M2.8125,7.203125 L2.8125,-1.796875 L3.046875,-1.796875 C3.796875,-1.796875 4.296875,-1.4375 4.296875,-1.3125 L4.296875,-0.03125 L9.484375,-0.03125 L9.484375,-1.0625 L9.71875,-1.0625 C10.203125,-1.0625 10.921875,-0.71875 10.9375,-0.578125 L10.9375,6.1875 C11.421875,6.28125 11.8125,6.484375 11.96875,6.671875 L10.109375,8.09375 L9.234375,7.203125 L4.5625,7.203125 L2.8125,7.9375 Z M4.296875,3.265625 L9.484375,3.265625 L9.484375,0.671875 L4.296875,0.671875 Z M12.234375,18.09375 L12.4375,17.40625 L14.6875,17.40625 C14.59375,12.984375 13.9375,4.796875 13.375,0.640625 L11.28125,0.34375 L12.1875,-1.734375 C12.40625,-1.6875 12.59375,-1.484375 12.71875,-1.203125 C15.9375,-0.09375 18.3125,0.8125 20.015625,1.484375 L19.921875,1.84375 L14.859375,0.90625 C15.234375,4.203125 15.625,8.859375 15.859375,12.90625 L19.515625,12.90625 C19.484375,7.65625 19.609375,1.890625 21.03125,-0.578125 C21.53125,-1.46875 22.46875,-2.140625 23.09375,-1.6875 C23.40625,-1.4375 23.296875,-0.953125 22.921875,-0.125 L23.28125,3.265625 L23.015625,3.34375 C22.828125,2.609375 22.5625,1.796875 22.296875,1.03125 C22.171875,0.765625 22.109375,0.71875 21.953125,0.953125 C21.078125,2.71875 20.859375,8.609375 21.078125,12.625 C21.578125,12.671875 21.890625,12.84375 22.0625,13.015625 L20.1875,14.59375 L19.265625,13.609375 L15.90625,13.609375 L16.109375,17.40625 L22.5625,17.40625 C22.921875,17.40625 23.15625,17.515625 23.234375,17.78125 C22.421875,18.5 21.171875,19.515625 21.171875,19.515625 L20.015625,18.09375 Z" transform="translate(-0.640625, 20.09375) scale(1, -1)"/>
</svg>