<svg height="21.953125" viewBox="0 0 24 21.953125" width="24" xmlns="http://www.w3.org/2000/svg">
<path d="M7.625,16.65625 L7.34375,16.515625 C7.9375,15.625 8.609375,14.234375 8.65625,13.125 C10.125,11.828125 11.8125,14.8125 7.625,16.65625 Z M2.46875,17.359375 L2.6875,16.6875 L21.3125,16.6875 C21.625,16.6875 21.84375,16.78125 21.90625,17.046875 C21.125,17.78125 19.828125,18.75 19.828125,18.75 L18.71875,17.359375 L12.8125,17.359375 L12.8125,19.265625 C13.375,19.375 13.5625,19.578125 13.609375,19.890625 L11.25,20.109375 L11.25,17.359375 Z M12.640625,11.40625 L12.640625,8.375 L8.875,8.375 C9.21875,8.96875 9.5,9.59375 9.765625,10.25 C10.296875,10.25 10.5625,10.421875 10.65625,10.6875 L8.421875,11.40625 C7.78125,8.78125 6.578125,6.34375 5.296875,4.796875 L5.640625,4.53125 C6.671875,5.296875 7.65625,6.390625 8.46875,7.6875 L12.640625,7.6875 L12.640625,4.25 L7.375,4.25 L7.5625,3.578125 L12.640625,3.578125 L12.640625,-0.34375 L4.5625,-0.34375 L4.78125,-1.03125 L22.171875,-1.03125 C22.53125,-1.03125 22.75,-0.90625 22.828125,-0.671875 C22.015625,0.09375 20.71875,1.0625 20.71875,1.0625 L19.578125,-0.34375 L14.203125,-0.34375 L14.203125,3.578125 L20.015625,3.578125 C20.328125,3.578125 20.5625,3.703125 20.640625,3.953125 C19.875,4.625 18.640625,5.59375 18.640625,5.59375 L17.59375,4.25 L14.203125,4.25 L14.203125,7.6875 L20.46875,7.6875 C20.8125,7.6875 21.03125,7.796875 21.09375,8.0625 C20.28125,8.828125 19.078125,9.75 19.078125,9.75 L17.96875,8.375 L14.203125,8.375 L14.203125,10.53125 C14.734375,10.609375 14.953125,10.828125 15,11.15625 Z M3.40625,12.703125 L3.40625,9.8125 C3.40625,6.21875 3.140625,1.984375 0.796875,-1.5625 L1.109375,-1.84375 C4.65625,1.609375 4.9375,6.59375 4.9375,9.8125 L4.9375,12 L22.21875,12 C22.5625,12 22.796875,12.09375 22.84375,12.359375 C22.0625,13.109375 20.734375,14.09375 20.734375,14.09375 L19.578125,12.671875 L14.734375,12.671875 C15.625,13.5625 16.5625,14.6875 17.109375,15.53125 C17.609375,15.484375 17.90625,15.703125 18,15.984375 L15.625,16.65625 C15.28125,15.453125 14.6875,13.796875 14.140625,12.671875 L4.9375,12.671875 L5.25,12.703125 L3.40625,13.515625 Z" transform="translate(0.1796875, 20.109375) scale(1, -1)"/>
</svg>