<svg height="21.890625" viewBox="0 0 24 21.890625" width="24" xmlns="http://www.w3.org/2000/svg">
<path d="M6.890625,16.703125 L6.765625,16.3125 C8.5,15.890625 10.125,15.359375 11.5625,14.8125 C9.53125,13.96875 7.296875,13.25 5.234375,12.796875 L5.40625,12.40625 C7.921875,12.75 10.625,13.421875 12.953125,14.234375 C14.515625,13.53125 15.796875,12.8125 16.5625,12.234375 C17.78125,11.90625 18.3125,13.484375 14.828125,14.953125 C15.84375,15.390625 16.734375,15.84375 17.421875,16.296875 C17.921875,16.109375 18.140625,16.15625 18.34375,16.375 L17.296875,17.09375 L21.3125,17.09375 C21.640625,17.09375 21.859375,17.203125 21.9375,17.46875 C21.140625,18.21875 19.84375,19.203125 19.84375,19.203125 L18.71875,17.8125 L12.796875,17.8125 L12.796875,19.25 C13.3125,19.34375 13.53125,19.5625 13.578125,19.875 L11.234375,20.09375 L11.234375,17.8125 L2.71875,17.8125 L2.921875,17.09375 L15.90625,17.09375 C15.140625,16.5625 14.203125,16.03125 13.171875,15.53125 C11.609375,16.015625 9.578125,16.421875 6.890625,16.703125 Z M12.8125,10.6875 L12.8125,7.625 L9,7.625 C9.265625,8.15625 9.53125,8.6875 9.765625,9.265625 C10.265625,9.21875 10.5625,9.4375 10.65625,9.71875 L8.421875,10.421875 C7.828125,7.9375 6.75,5.640625 5.59375,4.125 L5.921875,3.90625 C6.890625,4.65625 7.796875,5.71875 8.5625,6.9375 L12.8125,6.9375 L12.8125,3.8125 L7.875,3.8125 L8.0625,3.09375 L12.8125,3.09375 L12.8125,-0.53125 L4.75,-0.53125 L4.9375,-1.21875 L22.265625,-1.21875 C22.609375,-1.21875 22.828125,-1.109375 22.890625,-0.84375 C22.078125,-0.125 20.78125,0.890625 20.78125,0.890625 L19.65625,-0.53125 L14.375,-0.53125 L14.375,3.09375 L19.75,3.09375 C20.0625,3.09375 20.28125,3.21875 20.359375,3.484375 C19.609375,4.171875 18.390625,5.109375 18.390625,5.109375 L17.328125,3.8125 L14.375,3.8125 L14.375,6.9375 L20.296875,6.9375 C20.640625,6.9375 20.859375,7.0625 20.921875,7.3125 C20.109375,8.0625 18.90625,9 18.90625,9 L17.8125,7.625 L14.375,7.625 L14.375,9.84375 C14.90625,9.90625 15.125,10.125 15.171875,10.4375 Z M3.4375,11.765625 L3.4375,9.078125 C3.4375,5.71875 3.171875,1.796875 0.9375,-1.53125 L1.25,-1.796875 C4.65625,1.421875 4.921875,6.078125 4.921875,9.078125 L4.921875,11.0625 L22.109375,11.0625 C22.4375,11.0625 22.6875,11.1875 22.75,11.453125 C21.9375,12.171875 20.609375,13.171875 20.609375,13.171875 L19.484375,11.765625 L5.25,11.765625 L3.4375,12.53125 Z" transform="translate(0.0859375, 20.09375) scale(1, -1)"/>
</svg>