<svg height="21.890625" viewBox="0 0 24 21.890625" width="24" xmlns="http://www.w3.org/2000/svg">
<path d="M3.765625,5.0625 L4.5625,6.03125 L3.703125,6.390625 L3.34375,5.25 C2.6875,4.625 1.5625,3.75 0.90625,3.28125 L2.0625,2.015625 C2.1875,2.140625 2.25,2.359375 2.109375,2.5625 C2.5,3.09375 3.078125,3.953125 3.5,4.65625 C3.9375,3.890625 4.390625,3.21875 4.875,2.640625 C4.078125,1.078125 2.875,-0.3125 1.0625,-1.5625 L1.375,-1.875 C3.359375,-0.859375 4.75,0.359375 5.71875,1.75 C8.328125,-0.703125 12.03125,-1.25 17.828125,-1.25 C18.84375,-1.25 21.046875,-1.25 21.984375,-1.25 C22.03125,-0.625 22.34375,-0.125 23.015625,-0.03125 L23.015625,0.34375 C21.640625,0.3125 19.125,0.3125 17.96875,0.3125 C12.40625,0.3125 8.6875,0.640625 6.140625,2.453125 C7.015625,3.953125 7.421875,5.640625 7.609375,7.390625 L10.4375,7.390625 L10.4375,6.125 L10.65625,6.125 C11.140625,6.125 11.875,6.484375 11.90625,6.625 L11.90625,14.40625 C12.28125,14.46875 12.640625,14.65625 12.796875,14.828125 L11.015625,16.203125 L10.21875,15.3125 L7.734375,15.3125 L7.734375,17.953125 L12.625,17.953125 C12.953125,17.953125 13.203125,18.078125 13.265625,18.34375 C12.5,19.0625 11.28125,20.015625 11.28125,20.015625 L10.203125,18.640625 L1.078125,18.640625 L1.265625,17.953125 L6.28125,17.953125 L6.28125,15.3125 L3.71875,15.3125 L2.1875,16.03125 L2.1875,6.1875 L2.421875,6.1875 C3.03125,6.1875 3.59375,6.546875 3.59375,6.703125 L3.59375,7.390625 L6.171875,7.390625 C6.03125,5.921875 5.71875,4.53125 5.15625,3.234375 C4.625,3.765625 4.171875,4.375 3.765625,5.0625 Z M10.4375,14.609375 L10.4375,11.78125 L7.734375,11.78125 L7.734375,14.609375 Z M3.59375,8.109375 L3.59375,11.09375 L6.28125,11.09375 L6.28125,10.25 C6.28125,9.53125 6.265625,8.8125 6.21875,8.109375 Z M3.59375,11.78125 L3.59375,14.609375 L6.28125,14.609375 L6.28125,11.78125 Z M10.4375,8.109375 L7.65625,8.109375 C7.703125,8.828125 7.734375,9.546875 7.734375,10.265625 L7.734375,11.09375 L10.4375,11.09375 Z M14.359375,18.71875 C14.140625,16.015625 13.5625,13.203125 12.765625,11.203125 L13.171875,10.984375 C13.84375,11.921875 14.40625,13.109375 14.859375,14.40625 L17.046875,14.40625 L17.046875,9.9375 L13.625,9.9375 L13.828125,9.234375 L17.046875,9.234375 L17.046875,3.59375 L12.171875,3.59375 L12.359375,2.90625 L22.796875,2.90625 C23.140625,2.90625 23.359375,3.03125 23.421875,3.28125 C22.703125,4.015625 21.484375,4.984375 21.484375,4.984375 L20.421875,3.59375 L18.53125,3.59375 L18.53125,9.234375 L21.84375,9.234375 C22.171875,9.234375 22.421875,9.359375 22.484375,9.625 C21.765625,10.34375 20.609375,11.28125 20.609375,11.28125 L19.625,9.9375 L18.53125,9.9375 L18.53125,14.40625 L22.21875,14.40625 C22.5625,14.40625 22.796875,14.515625 22.84375,14.78125 C22.125,15.484375 20.96875,16.4375 20.96875,16.4375 L19.9375,15.09375 L18.53125,15.09375 L18.53125,18.859375 C19.109375,18.953125 19.3125,19.203125 19.375,19.53125 L17.046875,19.796875 L17.046875,15.09375 L15.09375,15.09375 C15.359375,15.9375 15.578125,16.828125 15.765625,17.71875 C16.265625,17.734375 16.515625,17.96875 16.609375,18.234375 Z" transform="translate(-0.1640625, 20.015625) scale(1, -1)"/>
</svg>