<svg height="21.109375" viewBox="0 0 24 21.109375" width="24" xmlns="http://www.w3.org/2000/svg">
<path d="M11.140625,17.515625 L11.140625,12.859375 L4.734375,12.859375 L4.734375,17.515625 Z M3.171875,18.21875 L3.171875,4.828125 L3.4375,4.828125 C4.125,4.828125 4.734375,5.203125 4.734375,5.375 L4.734375,6.625 L11.140625,6.625 L11.140625,-1.890625 L11.40625,-1.890625 C12.21875,-1.890625 12.75,-1.484375 12.75,-1.34375 L12.75,6.625 L19.203125,6.625 L19.203125,5.140625 L19.4375,5.140625 C19.96875,5.140625 20.765625,5.546875 20.78125,5.65625 L20.78125,17.234375 C21.28125,17.328125 21.640625,17.515625 21.8125,17.71875 L19.84375,19.21875 L18.953125,18.21875 L4.890625,18.21875 L3.171875,19.015625 Z M12.75,17.515625 L19.203125,17.515625 L19.203125,12.859375 L12.75,12.859375 Z M11.140625,7.3125 L4.734375,7.3125 L4.734375,12.140625 L11.140625,12.140625 Z M12.75,7.3125 L12.75,12.140625 L19.203125,12.140625 L19.203125,7.3125 Z" transform="translate(-0.4921875, 19.21875) scale(1, -1)"/>
</svg>