<svg height="19.953125" viewBox="0 0 24 19.953125" width="24" xmlns="http://www.w3.org/2000/svg">
<path d="M11.1875,16.796875 L11.1875,9.59375 L4.6875,9.59375 L4.6875,16.796875 Z M12.75,16.796875 L19.484375,16.796875 L19.484375,9.59375 L12.75,9.59375 Z M11.1875,8.90625 L11.1875,1.3125 L4.6875,1.3125 L4.6875,8.90625 Z M12.75,8.90625 L19.484375,8.90625 L19.484375,1.3125 L12.75,1.3125 Z M3.140625,17.5 L3.140625,-1.421875 L3.40625,-1.421875 C4.125,-1.421875 4.6875,-1.03125 4.6875,-0.796875 L4.6875,0.625 L19.484375,0.625 L19.484375,-1.265625 L19.703125,-1.265625 C20.28125,-1.265625 21.03125,-0.84375 21.078125,-0.703125 L21.078125,16.484375 C21.546875,16.578125 21.9375,16.78125 22.109375,16.96875 L20.140625,18.53125 L19.25,17.5 L4.84375,17.5 L3.140625,18.3125 Z" transform="translate(-0.625, 18.53125) scale(1, -1)"/>
</svg>