<svg height="21.765625" viewBox="0 0 24 21.765625" width="24" xmlns="http://www.w3.org/2000/svg">
<path d="M10.6875,18.890625 L10.375,18.765625 C11.15625,17.234375 12.125,14.875 12.171875,13.109375 C13.609375,11.65625 15.078125,15.1875 10.6875,18.890625 Z M19.984375,18.9375 C19.421875,16.78125 18.546875,14.40625 17.859375,12.890625 L18.234375,12.703125 C19.375,13.96875 20.515625,15.890625 21.4375,17.65625 C21.90625,17.640625 22.203125,17.859375 22.296875,18.125 Z M15.125,19.9375 L15.125,11.375 L10.109375,11.375 L10.296875,10.6875 L15.125,10.6875 L15.125,6.125 L9.390625,6.125 L9.578125,5.421875 L15.125,5.421875 L15.125,-1.828125 L15.40625,-1.828125 C15.984375,-1.828125 16.609375,-1.4375 16.609375,-1.203125 L16.609375,5.421875 L22.5625,5.421875 C22.875,5.421875 23.109375,5.546875 23.15625,5.8125 C22.390625,6.53125 21.125,7.515625 21.125,7.515625 L19.984375,6.125 L16.609375,6.125 L16.609375,10.6875 L21.890625,10.6875 C22.21875,10.6875 22.4375,10.796875 22.515625,11.0625 C21.71875,11.78125 20.5,12.75 20.5,12.75 L19.390625,11.375 L16.609375,11.375 L16.609375,19.015625 C17.1875,19.109375 17.375,19.34375 17.453125,19.6875 Z M7.890625,17.328125 L7.890625,10.796875 L6.1875,10.796875 L6.1875,17.328125 Z M1.828125,18.03125 L1.828125,0.625 L2.09375,0.625 C2.71875,0.625 3.1875,0.984375 3.1875,1.15625 L3.1875,2.640625 L7.890625,2.640625 L7.890625,1.265625 L8.09375,1.265625 C8.59375,1.265625 9.234375,1.6875 9.265625,1.828125 L9.265625,17.0625 C9.75,17.140625 10.125,17.328125 10.265625,17.515625 L8.46875,18.953125 L7.65625,18.03125 L3.3125,18.03125 L1.828125,18.765625 Z M4.921875,17.328125 L4.921875,10.796875 L3.1875,10.796875 L3.1875,17.328125 Z M3.1875,10.125 L4.921875,10.125 L4.921875,3.359375 L3.1875,3.359375 Z M7.890625,10.125 L7.890625,3.359375 L6.1875,3.359375 L6.1875,10.125 Z" transform="translate(-0.4921875, 19.9375) scale(1, -1)"/>
</svg>