<svg height="21.5" viewBox="0 0 24 21.5" width="24" xmlns="http://www.w3.org/2000/svg">
<path d="M7.703125,3.625 L16.21875,3.625 L16.21875,0.21875 L7.703125,0.21875 Z M7.984375,4.3125 L7.265625,4.625 C8.921875,5.15625 10.515625,5.78125 11.96875,6.5 C13.34375,5.828125 14.875,5.25 16.46875,4.796875 L16.015625,4.3125 Z M4.53125,18.703125 L4.53125,11.5 L4.75,11.5 C5.40625,11.5 6.078125,11.875 6.078125,12 L6.078125,12.671875 L9.359375,12.671875 C7.796875,10.75 4.890625,8.46875 1.78125,7.109375 L1.984375,6.765625 C4.078125,7.421875 6.046875,8.40625 7.703125,9.484375 C8.546875,8.59375 9.578125,7.828125 10.734375,7.15625 C7.921875,5.65625 4.53125,4.46875 1.203125,3.671875 L1.390625,3.265625 C3.046875,3.53125 4.65625,3.890625 6.1875,4.3125 L6.1875,-1.84375 L6.4375,-1.84375 C7.203125,-1.84375 7.703125,-1.4375 7.703125,-1.3125 L7.703125,-0.484375 L16.21875,-0.484375 L16.21875,-1.78125 L16.46875,-1.78125 C16.96875,-1.78125 17.765625,-1.4375 17.78125,-1.265625 L17.78125,3.4375 C18.171875,3.5 18.484375,3.703125 18.625,3.84375 L17.78125,4.46875 C19.015625,4.15625 20.28125,3.90625 21.53125,3.71875 C21.703125,4.421875 22.15625,4.875 22.796875,5.015625 L22.828125,5.28125 C19.5625,5.5625 16.15625,6.1875 13.25,7.171875 C14.78125,8.015625 16.125,9 17.25,10.078125 C17.90625,10.078125 18.1875,10.15625 18.390625,10.34375 L16.703125,11.921875 L15.578125,10.96875 L9.75,10.96875 C10.171875,11.328125 10.5625,11.65625 10.921875,12 C11.59375,12 11.90625,12.125 12,12.390625 L10.84375,12.671875 L17.921875,12.671875 L17.921875,11.8125 L18.140625,11.8125 C18.671875,11.8125 19.46875,12.125 19.484375,12.265625 L19.484375,17.71875 C19.96875,17.8125 20.328125,18 20.5,18.1875 L18.546875,19.65625 L17.6875,18.703125 L6.21875,18.703125 L4.53125,19.46875 Z M15.171875,10.265625 C14.234375,9.359375 13.0625,8.515625 11.734375,7.734375 C10.34375,8.296875 9.125,8.96875 8.15625,9.765625 L8.859375,10.265625 Z M17.921875,15.359375 L17.921875,13.375 L12.71875,13.375 L12.71875,15.359375 Z M17.921875,16.078125 L12.71875,16.078125 L12.71875,18 L17.921875,18 Z M6.078125,15.359375 L11.203125,15.359375 L11.203125,13.375 L6.078125,13.375 Z M6.078125,16.078125 L6.078125,18 L11.203125,18 L11.203125,16.078125 Z" transform="translate(-0.015625, 19.65625) scale(1, -1)"/>
</svg>