<svg height="21.953125" viewBox="0 0 24 21.953125" width="24" xmlns="http://www.w3.org/2000/svg">
<path d="M14.015625,20.109375 C12.984375,16.828125 11.1875,13.84375 9.34375,12.03125 L9.34375,17.0625 C9.796875,17.15625 10.203125,17.359375 10.34375,17.515625 L8.546875,18.953125 L7.703125,18.03125 L3.3125,18.03125 L1.828125,18.765625 L1.828125,0.640625 L2.09375,0.640625 C2.71875,0.640625 3.1875,0.984375 3.1875,1.15625 L3.1875,2.640625 L7.9375,2.640625 L7.9375,1.03125 L8.15625,1.03125 C8.640625,1.03125 9.3125,1.4375 9.34375,1.578125 L9.34375,6.3125 L9.40625,6.21875 C10.203125,6.5 10.9375,6.84375 11.65625,7.171875 L11.65625,-1.84375 L11.875,-1.84375 C12.625,-1.84375 13.109375,-1.515625 13.109375,-1.390625 L13.109375,-0.1875 L19.125,-0.1875 L19.125,-1.65625 L19.34375,-1.65625 C20.046875,-1.65625 20.609375,-1.3125 20.609375,-1.203125 L20.609375,5.90625 C21.09375,5.96875 21.328125,6.140625 21.5,6.3125 L19.796875,7.609375 L19.0625,6.71875 L13.390625,6.71875 L11.953125,7.34375 C13.6875,8.234375 15.140625,9.28125 16.375,10.484375 C17.859375,9.046875 19.734375,7.84375 22.15625,6.9375 C22.3125,7.6875 22.828125,8.09375 23.453125,8.25 L23.515625,8.515625 C20.96875,9.171875 18.90625,10.15625 17.234375,11.40625 C18.59375,12.9375 19.625,14.609375 20.421875,16.4375 C21,16.46875 21.265625,16.53125 21.453125,16.703125 L19.78125,18.265625 L18.75,17.296875 L14.59375,17.296875 C14.875,17.8125 15.140625,18.3125 15.390625,18.84375 C15.859375,18.796875 16.15625,19.015625 16.265625,19.25 Z M13.109375,0.5 L13.109375,6 L19.125,6 L19.125,0.5 Z M7.9375,17.328125 L7.9375,10.828125 L6.1875,10.828125 L6.1875,17.328125 Z M4.890625,17.328125 L4.890625,10.828125 L3.1875,10.828125 L3.1875,17.328125 Z M3.1875,10.125 L4.890625,10.125 L4.890625,3.359375 L3.1875,3.359375 Z M7.9375,10.125 L7.9375,3.359375 L6.1875,3.359375 L6.1875,10.125 Z M9.34375,6.703125 L9.34375,11.96875 L9.640625,11.734375 C10.890625,12.59375 12.09375,13.734375 13.15625,15.09375 C13.796875,13.734375 14.59375,12.484375 15.546875,11.359375 C13.921875,9.484375 11.8125,7.875 9.34375,6.703125 Z M18.765625,16.625 C18.171875,15.078125 17.328125,13.578125 16.25,12.21875 C15.140625,13.203125 14.25,14.359375 13.515625,15.59375 L14.203125,16.625 Z" transform="translate(-0.671875, 20.109375) scale(1, -1)"/>
</svg>