<svg height="20.90625" viewBox="0 0 24 20.90625" width="24" xmlns="http://www.w3.org/2000/svg">
<path d="M17.609375,15.28125 L17.609375,13.21875 L12.703125,13.21875 L12.703125,15.28125 Z M17.609375,15.984375 L12.703125,15.984375 L12.703125,18 L17.609375,18 Z M6.5,15.28125 L11.1875,15.28125 L11.1875,13.21875 L6.5,13.21875 Z M6.5,15.984375 L6.5,18 L11.1875,18 L11.1875,15.984375 Z M4.9375,18.703125 L4.9375,11.40625 L5.1875,11.40625 C5.8125,11.40625 6.5,11.765625 6.5,11.921875 L6.5,12.53125 L17.609375,12.53125 L17.609375,11.640625 L17.859375,11.640625 C18.359375,11.640625 19.171875,11.96875 19.203125,12.140625 L19.203125,17.6875 C19.6875,17.78125 20.046875,18 20.203125,18.1875 L18.265625,19.65625 L17.375,18.703125 L6.625,18.703125 L4.9375,19.46875 Z M7.75,4.515625 L16.4375,4.515625 L16.4375,2.375 L7.75,2.375 Z M7.75,5.234375 L7.75,7.3125 L16.4375,7.3125 L16.4375,5.234375 Z M7.75,1.65625 L16.4375,1.65625 L16.4375,-0.546875 L7.75,-0.546875 Z M6.234375,8.046875 L6.234375,-0.546875 L1.03125,-0.546875 L1.25,-1.25 L22.53125,-1.25 C22.875,-1.25 23.09375,-1.125 23.15625,-0.859375 C22.34375,-0.09375 21.03125,1.03125 21.03125,1.03125 L19.828125,-0.546875 L18.03125,-0.546875 L18.03125,7.15625 C18.59375,7.21875 18.9375,7.34375 19.109375,7.578125 L17.015625,9.125 L16.171875,8.046875 L8.046875,8.046875 L6.234375,8.828125 Z M3.234375,11.90625 C3.390625,10.484375 2.6875,9.09375 1.890625,8.5625 C1.421875,8.28125 1.078125,7.78125 1.296875,7.296875 C1.578125,6.75 2.375,6.796875 2.921875,7.171875 C3.546875,7.625 4.078125,8.609375 4.03125,10.0625 L20.296875,10.0625 C20.09375,9.3125 19.78125,8.375 19.53125,7.78125 L19.84375,7.609375 C20.59375,8.15625 21.546875,9.09375 22.109375,9.796875 C22.5625,9.8125 22.84375,9.84375 23.015625,10.015625 L21.21875,11.78125 L20.234375,10.75 L3.953125,10.75 C3.90625,11.109375 3.8125,11.515625 3.671875,11.921875 Z" transform="translate(-0.09375, 19.65625) scale(1, -1)"/>
</svg>