<svg height="21.265625" viewBox="0 0 24 21.265625" width="24" xmlns="http://www.w3.org/2000/svg">
<path d="M17.234375,16.421875 L17.234375,15.21875 L12.890625,15.21875 L12.890625,16.421875 Z M17.234375,17.109375 L12.890625,17.109375 L12.890625,18.265625 L17.234375,18.265625 Z M7.125,16.421875 L11.359375,16.421875 L11.359375,15.21875 L7.125,15.21875 Z M7.125,17.109375 L7.125,18.265625 L11.359375,18.265625 L11.359375,17.109375 Z M5.59375,18.984375 L5.59375,13.625 L5.828125,13.625 C6.453125,13.625 7.125,13.984375 7.125,14.140625 L7.125,14.515625 L17.234375,14.515625 L17.234375,13.796875 L17.46875,13.796875 C17.96875,13.796875 18.75,14.140625 18.765625,14.296875 L18.765625,17.96875 C19.25,18.078125 19.65625,18.265625 19.796875,18.453125 L17.859375,19.921875 L16.984375,18.984375 L7.265625,18.984375 L5.59375,19.734375 Z M10.03125,10.625 L10.03125,9.4375 L8.046875,9.4375 L8.046875,10.625 Z M10.03125,11.359375 L8.046875,11.359375 L8.046875,12.53125 L10.03125,12.53125 Z M4.921875,10.625 L6.796875,10.625 L6.796875,9.4375 L4.921875,9.4375 Z M4.921875,11.359375 L4.921875,12.53125 L6.796875,12.53125 L6.796875,11.359375 Z M3.28125,8.28125 C3.453125,7.0625 2.90625,5.828125 2.09375,5.375 C1.609375,5.109375 1.265625,4.6875 1.484375,4.171875 C1.734375,3.640625 2.46875,3.640625 3.03125,3.984375 C3.671875,4.390625 4.171875,5.328125 4.078125,6.703125 L20.234375,6.703125 C19.96875,5.953125 19.609375,5.046875 19.34375,4.4375 L19.65625,4.265625 C20.421875,4.828125 21.4375,5.765625 21.9375,6.453125 C22.421875,6.484375 22.6875,6.5 22.84375,6.703125 L21.125,8.359375 L20.1875,7.390625 L3.984375,7.390625 L3.84375,7.921875 C4.375,7.96875 4.921875,8.25 4.921875,8.375 L4.921875,8.71875 L10.03125,8.71875 L10.03125,8.015625 L10.21875,8.015625 C10.6875,8.015625 11.421875,8.359375 11.421875,8.5 L11.421875,12.34375 C11.828125,12.40625 12.171875,12.59375 12.28125,12.75 L10.578125,14.046875 L9.8125,13.21875 L5.046875,13.21875 L3.5,13.890625 L3.5,8.296875 Z M19.625,10.625 L19.625,9.4375 L17.71875,9.4375 L17.71875,10.625 Z M19.625,11.359375 L17.71875,11.359375 L17.71875,12.53125 L19.625,12.53125 Z M14.328125,10.625 L16.46875,10.625 L16.46875,9.4375 L14.328125,9.4375 Z M14.328125,11.359375 L14.328125,12.53125 L16.46875,12.53125 L16.46875,11.359375 Z M12.90625,13.21875 L12.90625,7.84375 L13.125,7.84375 C13.6875,7.84375 14.328125,8.1875 14.328125,8.328125 L14.328125,8.71875 L19.625,8.71875 L19.625,8.015625 L19.84375,8.015625 C20.296875,8.015625 21.046875,8.359375 21.078125,8.5 L21.078125,12.28125 C21.5,12.359375 21.859375,12.546875 22.03125,12.75 L20.234375,14.09375 L19.421875,13.21875 L14.453125,13.21875 L12.90625,13.921875 Z M8.015625,2.6875 L16.375,2.6875 L16.375,1.390625 L8.015625,1.390625 Z M8.015625,3.390625 L8.015625,4.65625 L16.375,4.65625 L16.375,3.390625 Z M8.015625,0.703125 L16.375,0.703125 L16.375,-0.640625 L8.015625,-0.640625 Z M6.453125,5.375 L6.453125,-0.640625 L1.109375,-0.640625 L1.296875,-1.34375 L22.34375,-1.34375 C22.6875,-1.34375 22.921875,-1.21875 22.984375,-0.953125 C22.203125,-0.1875 20.859375,0.90625 20.859375,0.90625 L19.703125,-0.640625 L18,-0.640625 L18,4.484375 C18.578125,4.53125 18.890625,4.6875 19.078125,4.921875 L16.9375,6.453125 L16.125,5.375 L8.28125,5.375 L6.453125,6.140625 Z" transform="translate(-0.046875, 19.921875) scale(1, -1)"/>
</svg>