<svg height="20.65625" viewBox="0 0 24 20.65625" width="24" xmlns="http://www.w3.org/2000/svg">
<path d="M2.046875,17.734375 L2.25,17.046875 L11.1875,17.046875 L11.1875,0.984375 C8.828125,1.75 7.25,3.34375 6.125,6.546875 C6.546875,8.1875 6.796875,9.84375 6.953125,11.453125 C7.484375,11.5 7.75,11.6875 7.84375,12.046875 L5.25,12.40625 C5.09375,7.53125 4.03125,1.84375 0.890625,-1.578125 L1.171875,-1.84375 C3.640625,0.09375 5.09375,2.875 5.921875,5.828125 C7.796875,-0.046875 10.921875,-1.265625 16.890625,-1.265625 C18.21875,-1.265625 20.96875,-1.265625 22.125,-1.265625 C22.171875,-0.59375 22.53125,-0.09375 23.140625,0.046875 L23.140625,0.359375 C21.578125,0.34375 18.4375,0.34375 16.984375,0.34375 C15.390625,0.34375 13.984375,0.40625 12.765625,0.59375 L12.765625,8.71875 L20.1875,8.71875 C20.515625,8.71875 20.78125,8.828125 20.828125,9.078125 C20.015625,9.84375 18.671875,10.875 18.671875,10.875 L17.5,9.40625 L12.765625,9.40625 L12.765625,17.046875 L19.3125,17.046875 C18.8125,15.671875 17.875,13.78125 17.1875,12.625 L17.46875,12.40625 C18.765625,13.5625 20.421875,15.40625 21.3125,16.734375 C21.8125,16.75 22.078125,16.796875 22.25,16.96875 L20.375,18.8125 L19.296875,17.734375 Z" transform="translate(-0.015625, 18.8125) scale(1, -1)"/>
</svg>