<svg height="22.03125" viewBox="0 0 24 22.03125" width="24" xmlns="http://www.w3.org/2000/svg">
<path d="M11.359375,5.828125 L11.203125,5.46875 C13.078125,4.625 14.5625,3.4375 15.125,2.6875 C16.78125,2.046875 17.515625,5.296875 11.359375,5.828125 Z M9.390625,-0.03125 L10.75,-1.921875 C10.96875,-1.828125 11.140625,-1.65625 11.25,-1.34375 C15.765625,0.09375 18.9375,1.21875 21.171875,2.109375 L21.078125,2.5 C16.171875,1.375 11.46875,0.3125 9.390625,-0.03125 Z M1.53125,15.75 L1.21875,15.59375 C1.890625,14.40625 2.5625,12.53125 2.546875,11.0625 C3.890625,9.703125 5.515625,12.90625 1.53125,15.75 Z M17.015625,12.8125 C16.296875,11.6875 15.390625,10.625 14.296875,9.640625 C13.203125,10.390625 12.234375,11.25 11.515625,12.265625 L12.046875,12.8125 Z M12.40625,16.375 C11.421875,13.890625 9.21875,11.046875 6.8125,9.234375 L7.03125,8.90625 C8.515625,9.640625 9.9375,10.703125 11.140625,11.875 C11.765625,10.78125 12.546875,9.796875 13.484375,8.953125 C11.40625,7.21875 8.765625,5.8125 5.921875,4.828125 L6.140625,4.4375 C9.390625,5.25 12.1875,6.53125 14.46875,8.140625 C16.46875,6.640625 18.9375,5.59375 21.671875,4.890625 C21.890625,5.65625 22.375,6.140625 23.0625,6.265625 L23.09375,6.53125 C20.359375,6.953125 17.71875,7.75 15.53125,8.921875 C16.890625,10.03125 18.03125,11.28125 18.9375,12.625 C19.5625,12.640625 19.828125,12.71875 19.984375,12.90625 L18.28125,14.515625 L17.15625,13.53125 L12.640625,13.53125 C13.109375,14.109375 13.515625,14.6875 13.828125,15.265625 C14.25,15.171875 14.515625,15.234375 14.609375,15.484375 Z M0.625,6.71875 L1.625,4.78125 C1.84375,4.9375 1.96875,5.234375 1.984375,5.5 L4.75,8.40625 C4.484375,4.84375 3.59375,1.4375 0.9375,-1.375 L1.25,-1.65625 C5.875,1.75 6.359375,6.859375 6.359375,11.140625 L6.359375,16.75 L22.375,16.75 C22.703125,16.75 22.921875,16.875 22.984375,17.140625 C22.203125,17.875 20.921875,18.859375 20.921875,18.859375 L19.796875,17.46875 L14.109375,17.46875 L14.109375,19.25 C14.6875,19.34375 14.90625,19.5625 14.953125,19.890625 L12.5,20.109375 L12.5,17.46875 L6.640625,17.46875 L4.828125,18.34375 L4.828125,11.109375 L4.78125,9.1875 C3.03125,8.09375 1.3125,7.078125 0.625,6.71875 Z" transform="translate(0.140625, 20.109375) scale(1, -1)"/>
</svg>