<svg height="22.390625" viewBox="0 0 24 22.390625" width="24" xmlns="http://www.w3.org/2000/svg">
<path d="M9.34375,1.890625 L9.234375,1.484375 C13.125,0.703125 16.46875,-0.765625 17.90625,-1.84375 C19.890625,-2.28125 20.1875,1.6875 9.34375,1.890625 Z M12,5.6875 L11.90625,5.296875 C13.890625,4.65625 15.640625,3.703125 16.421875,3.046875 C18.03125,2.5625 18.59375,5.734375 12,5.6875 Z M1.53125,15.75 L1.21875,15.59375 C1.890625,14.40625 2.5625,12.53125 2.546875,11.0625 C3.890625,9.703125 5.515625,12.90625 1.53125,15.75 Z M17.015625,13.109375 C16.296875,11.953125 15.359375,10.84375 14.25,9.84375 C13.171875,10.578125 12.265625,11.421875 11.5625,12.40625 L12.21875,13.109375 Z M12.3125,16.3125 C11.28125,13.84375 9.078125,11.015625 6.59375,9.234375 L6.8125,8.90625 C8.40625,9.703125 9.90625,10.796875 11.1875,12 C11.78125,10.9375 12.546875,9.984375 13.4375,9.171875 C11.359375,7.46875 8.734375,6.03125 5.875,5.046875 L6.09375,4.65625 C9.34375,5.46875 12.125,6.75 14.40625,8.328125 C16.421875,6.796875 18.890625,5.71875 21.671875,4.984375 C21.890625,5.765625 22.375,6.234375 23.0625,6.359375 L23.09375,6.625 C20.296875,7.078125 17.640625,7.890625 15.4375,9.125 C16.84375,10.25 18.03125,11.515625 18.9375,12.90625 C19.53125,12.90625 19.796875,12.984375 19.984375,13.203125 L18.265625,14.8125 L17.15625,13.796875 L12.765625,13.796875 C13.125,14.25 13.4375,14.734375 13.703125,15.1875 C14.140625,15.09375 14.421875,15.1875 14.515625,15.4375 Z M0.625,6.71875 L1.625,4.78125 C1.84375,4.9375 1.96875,5.234375 1.984375,5.5 L4.75,8.421875 C4.515625,4.828125 3.625,1.390625 0.953125,-1.4375 L1.296875,-1.734375 C5.875,1.703125 6.359375,6.84375 6.359375,11.09375 L6.359375,16.75 L22.375,16.75 C22.703125,16.75 22.921875,16.875 22.984375,17.140625 C22.203125,17.875 20.921875,18.859375 20.921875,18.859375 L19.796875,17.46875 L14.109375,17.46875 L14.109375,19.25 C14.6875,19.34375 14.90625,19.5625 14.953125,19.890625 L12.5,20.109375 L12.5,17.46875 L6.640625,17.46875 L4.828125,18.34375 L4.828125,11.0625 L4.78125,9.1875 C3.03125,8.09375 1.3125,7.078125 0.625,6.71875 Z" transform="translate(0.140625, 20.109375) scale(1, -1)"/>
</svg>