<svg height="21.984375" viewBox="0 0 24 21.984375" width="24" xmlns="http://www.w3.org/2000/svg">
<path d="M1.53125,15.75 L1.21875,15.59375 C1.890625,14.40625 2.5625,12.53125 2.546875,11.0625 C3.890625,9.703125 5.515625,12.90625 1.53125,15.75 Z M7.96875,9.90625 L7.96875,-1.828125 L8.234375,-1.828125 C8.859375,-1.828125 9.453125,-1.46875 9.453125,-1.265625 L9.453125,9.21875 L13.65625,9.21875 C13.34375,6.546875 12.40625,4.25 9.796875,2.40625 L10.125,2.015625 C12.578125,3.34375 13.890625,4.96875 14.59375,6.859375 C15.90625,5.765625 17.453125,4.109375 17.90625,2.78125 C19.5625,1.6875 20.546875,5.109375 14.765625,7.296875 C14.953125,7.921875 15.09375,8.546875 15.1875,9.21875 L20.046875,9.21875 L20.046875,0.3125 C20.046875,-0.03125 19.9375,-0.171875 19.5625,-0.171875 C19.0625,-0.171875 16.984375,-0.03125 16.984375,-0.03125 L16.984375,-0.359375 C17.953125,-0.484375 18.453125,-0.640625 18.796875,-0.859375 C19.078125,-1.078125 19.203125,-1.390625 19.265625,-1.78125 C21.3125,-1.609375 21.578125,-0.9375 21.578125,0.171875 L21.578125,8.90625 C22.0625,9 22.4375,9.21875 22.609375,9.40625 L20.59375,10.875 L19.796875,9.90625 L15.28125,9.90625 C15.390625,10.890625 15.4375,11.921875 15.453125,13.03125 L22.203125,13.03125 C22.53125,13.03125 22.75,13.15625 22.828125,13.421875 C22.03125,14.140625 20.765625,15.140625 20.765625,15.140625 L19.65625,13.734375 L7.421875,13.734375 L7.578125,13.03125 L13.875,13.03125 C13.84375,11.953125 13.828125,10.890625 13.75,9.90625 L9.578125,9.90625 L7.96875,10.65625 Z M0.625,6.71875 L1.625,4.78125 C1.84375,4.9375 1.96875,5.234375 1.984375,5.5 L4.75,8.421875 C4.515625,4.78125 3.671875,1.265625 1.015625,-1.609375 L1.3125,-1.875 C5.90625,1.5625 6.359375,6.75 6.359375,11.046875 L6.359375,16.75 L22.375,16.75 C22.703125,16.75 22.921875,16.875 22.984375,17.140625 C22.203125,17.875 20.921875,18.859375 20.921875,18.859375 L19.796875,17.46875 L14.109375,17.46875 L14.109375,19.25 C14.6875,19.34375 14.90625,19.5625 14.953125,19.890625 L12.5,20.109375 L12.5,17.46875 L6.640625,17.46875 L4.828125,18.34375 L4.828125,11.015625 L4.796875,9.1875 C3.03125,8.09375 1.3125,7.078125 0.625,6.71875 Z" transform="translate(0.1953125, 20.109375) scale(1, -1)"/>
</svg>