<svg height="22" viewBox="0 0 24 22" width="24" xmlns="http://www.w3.org/2000/svg">
<path d="M1.46875,15.75 L1.15625,15.59375 C1.796875,14.40625 2.421875,12.5 2.359375,11.0625 C3.75,9.640625 5.40625,12.859375 1.46875,15.75 Z M13.5625,13.609375 L13.5625,11.46875 L9.671875,11.46875 L9.671875,13.609375 Z M7.265625,5.515625 L7.46875,4.796875 L10.015625,4.796875 C10.84375,3.28125 11.921875,2.0625 13.265625,1.125 C10.84375,-0.078125 7.9375,-0.90625 4.828125,-1.46875 L4.984375,-1.875 C8.5625,-1.484375 11.71875,-0.75 14.375,0.4375 C16.421875,-0.71875 18.953125,-1.4375 21.984375,-1.890625 C22.15625,-1.21875 22.609375,-0.765625 23.203125,-0.640625 L23.234375,-0.359375 C20.40625,-0.140625 17.875,0.3125 15.765625,1.109375 C17.5,2.046875 18.953125,3.1875 20.109375,4.578125 C20.71875,4.609375 20.96875,4.6875 21.1875,4.875 L19.53125,6.453125 L18.390625,5.515625 L15.046875,5.515625 L15.046875,7.890625 L19.125,7.890625 L19.125,6.890625 L19.34375,6.890625 C19.84375,6.890625 20.609375,7.25 20.640625,7.375 L20.640625,13.4375 C21.03125,13.484375 21.359375,13.6875 21.484375,13.84375 L19.734375,15.21875 L18.90625,14.328125 L15.046875,14.328125 L15.046875,15.71875 C15.546875,15.8125 15.75,16.03125 15.796875,16.3125 L13.5625,16.5625 L13.5625,14.328125 L9.8125,14.328125 L8.1875,15.078125 L8.1875,6.53125 L8.40625,6.53125 C9.046875,6.53125 9.671875,6.890625 9.671875,7.03125 L9.671875,7.890625 L13.5625,7.890625 L13.5625,5.515625 Z M15.046875,13.609375 L19.125,13.609375 L19.125,11.46875 L15.046875,11.46875 Z M13.5625,10.75 L13.5625,8.59375 L9.671875,8.59375 L9.671875,10.75 Z M15.046875,10.75 L19.125,10.75 L19.125,8.59375 L15.046875,8.59375 Z M18.140625,4.796875 C17.1875,3.59375 15.90625,2.5625 14.375,1.703125 C12.8125,2.46875 11.546875,3.484375 10.625,4.796875 Z M0.625,6.75 L1.625,4.84375 C1.84375,4.984375 1.984375,5.28125 1.984375,5.546875 C3.03125,6.546875 3.90625,7.484375 4.625,8.234375 C4.390625,4.625 3.546875,1.203125 0.984375,-1.609375 L1.3125,-1.890625 C5.765625,1.5625 6.21875,6.703125 6.21875,10.984375 L6.21875,16.96875 L22.421875,16.96875 C22.75,16.96875 22.984375,17.09375 23.046875,17.359375 C22.265625,18.078125 21,19.0625 21,19.0625 L19.875,17.65625 L14.0625,17.65625 L14.0625,19.25 C14.609375,19.34375 14.828125,19.5625 14.875,19.890625 L12.53125,20.109375 L12.53125,17.65625 L6.5,17.65625 L4.703125,18.5 L4.703125,10.96875 L4.6875,9.078125 C2.953125,8.015625 1.3125,7.078125 0.625,6.75 Z" transform="translate(0.0703125, 20.109375) scale(1, -1)"/>
</svg>