<svg height="22" viewBox="0 0 24 22" width="24" xmlns="http://www.w3.org/2000/svg">
<path d="M10.6875,6.59375 L10.6875,-1.890625 L10.921875,-1.890625 C11.6875,-1.890625 12.1875,-1.5625 12.1875,-1.421875 L12.1875,-0.3125 L19.484375,-0.3125 L19.484375,-1.65625 L19.703125,-1.65625 C20.421875,-1.65625 21,-1.3125 21,-1.21875 L21,5.78125 C21.5,5.859375 21.71875,6 21.890625,6.171875 L20.15625,7.515625 L19.390625,6.59375 L12.453125,6.59375 L10.6875,7.34375 Z M12.1875,0.40625 L12.1875,5.875 L19.484375,5.875 L19.484375,0.40625 Z M15.046875,20.109375 L15.046875,15.796875 L12,15.796875 C12.28125,16.5625 12.546875,17.375 12.765625,18.1875 C13.265625,18.21875 13.515625,18.4375 13.578125,18.75 L11.15625,19.265625 C10.875,16.53125 10.171875,13.734375 9.28125,11.8125 L9.640625,11.59375 C10.46875,12.53125 11.15625,13.734375 11.734375,15.09375 L15.046875,15.09375 L15.046875,10.703125 L8.515625,10.703125 L8.71875,10.015625 L15.046875,10.015625 L15.046875,7.21875 L15.359375,7.21875 C15.9375,7.21875 16.609375,7.53125 16.609375,7.75 L16.609375,10.015625 L22.53125,10.015625 C22.875,10.015625 23.09375,10.125 23.15625,10.390625 C22.390625,11.109375 21.140625,12.09375 21.140625,12.09375 L20.046875,10.703125 L16.609375,10.703125 L16.609375,15.09375 L21.578125,15.09375 C21.890625,15.09375 22.109375,15.1875 22.171875,15.453125 C21.4375,16.203125 20.1875,17.140625 20.1875,17.140625 L19.109375,15.796875 L16.609375,15.796875 L16.609375,19.203125 C17.203125,19.265625 17.421875,19.515625 17.46875,19.84375 Z M6.671875,9.28125 L6.671875,3.40625 L3.265625,3.40625 L3.265625,9.28125 Z M6.671875,10.015625 L3.265625,10.015625 L3.265625,15.40625 L6.671875,15.40625 Z M1.796875,16.109375 L1.796875,0.28125 L2.0625,0.28125 C2.71875,0.28125 3.265625,0.671875 3.265625,0.859375 L3.265625,2.71875 L6.671875,2.71875 L6.671875,1.375 L6.890625,1.375 C7.390625,1.375 8.109375,1.75 8.140625,1.921875 L8.140625,15.171875 C8.5625,15.234375 8.953125,15.4375 9.078125,15.625 L7.265625,17.046875 L6.453125,16.109375 L4.6875,16.109375 C5.140625,17.015625 5.71875,18.234375 6.078125,19.15625 C6.578125,19.171875 6.84375,19.390625 6.90625,19.734375 L4.5625,20.09375 L3.984375,16.109375 L3.390625,16.109375 L1.796875,16.875 Z" transform="translate(-0.4765625, 20.109375) scale(1, -1)"/>
</svg>