<svg height="21.890625" viewBox="0 0 24 21.890625" width="24" xmlns="http://www.w3.org/2000/svg">
<path d="M4.171875,16.109375 L4.171875,10.609375 C4.171875,6.390625 3.8125,1.984375 0.984375,-1.53125 L1.3125,-1.796875 C5.1875,1.484375 5.71875,6.234375 5.765625,10.0625 L7.65625,10.0625 C8.59375,7.203125 10.03125,4.890625 11.921875,3.078125 C9.640625,1.15625 6.796875,-0.359375 3.359375,-1.421875 L3.546875,-1.796875 C7.390625,-0.90625 10.4375,0.453125 12.859375,2.234375 C15.171875,0.359375 18.03125,-0.953125 21.40625,-1.828125 C21.671875,-1.0625 22.21875,-0.578125 22.96875,-0.484375 L23.015625,-0.21875 C19.578125,0.4375 16.515625,1.53125 13.984375,3.171875 C16.109375,5.015625 17.65625,7.21875 18.796875,9.796875 C19.375,9.8125 19.625,9.890625 19.828125,10.109375 L18.078125,11.765625 L16.96875,10.734375 L12.953125,10.734375 L12.953125,15.40625 L19.15625,15.40625 C18.796875,14.453125 18.28125,13.125 17.96875,12.390625 L18.3125,12.234375 C19.109375,12.953125 20.421875,14.296875 21.125,15.09375 C21.59375,15.125 21.859375,15.171875 22.03125,15.34375 L20.15625,17.15625 L19.125,16.109375 L12.953125,16.109375 L12.953125,19.15625 C13.5625,19.25 13.796875,19.484375 13.84375,19.828125 L11.375,20.0625 L11.375,16.109375 L6.046875,16.109375 L4.171875,16.890625 Z M12.890625,3.9375 C10.828125,5.515625 9.21875,7.5625 8.203125,10.0625 L16.984375,10.0625 C16.078125,7.75 14.71875,5.6875 12.890625,3.9375 Z M7.9375,10.734375 L5.765625,10.734375 L5.765625,15.40625 L11.375,15.40625 L11.375,10.734375 Z" transform="translate(0, 20.0625) scale(1, -1)"/>
</svg>