<svg height="18.453125" viewBox="0 0 24 18.453125" width="24" xmlns="http://www.w3.org/2000/svg">
<path d="M8.609375,16.390625 L8.609375,0.4375 L5.234375,0.4375 L5.234375,16.390625 Z M10.109375,16.390625 L13.5625,16.390625 L13.5625,0.4375 L10.109375,0.4375 Z M0.859375,0.4375 L1.0625,-0.265625 L22.578125,-0.265625 C22.921875,-0.265625 23.109375,-0.140625 23.1875,0.125 C22.5625,0.890625 21.390625,2.0625 21.390625,2.0625 L20.375,0.4375 L20.109375,0.4375 L20.109375,16.15625 C20.6875,16.203125 21.046875,16.375 21.21875,16.578125 L19.109375,18.1875 L18.265625,17.09375 L5.515625,17.09375 L3.71875,17.875 L3.71875,0.4375 Z M15.078125,16.390625 L18.546875,16.390625 L18.546875,0.4375 L15.078125,0.4375 Z" transform="translate(-0.0234375, 18.1875) scale(1, -1)"/>
</svg>