<svg height="21.265625" viewBox="0 0 24 21.265625" width="24" xmlns="http://www.w3.org/2000/svg">
<path d="M6.03125,19.9375 L5.765625,19.75 C6.9375,18.640625 8.234375,16.78125 8.40625,15.21875 C10.125,13.875 11.546875,17.859375 6.03125,19.9375 Z M9,-0.484375 L6.34375,-0.484375 L6.34375,6.34375 L9,6.34375 Z M10.515625,-0.484375 L10.515625,6.34375 L13.265625,6.34375 L13.265625,-0.484375 Z M14.765625,-0.484375 L14.765625,6.34375 L17.453125,6.34375 L17.453125,-0.484375 Z M15.859375,20.109375 C15.28125,18.53125 14.28125,16.375 13.375,14.8125 L1.625,14.8125 L1.84375,14.109375 L8.359375,14.109375 C6.8125,10.890625 4.15625,7.875 0.8125,5.8125 L1.03125,5.46875 C2.40625,6.09375 3.671875,6.84375 4.828125,7.6875 L4.828125,-0.484375 L1.03125,-0.484375 L1.25,-1.15625 L22.46875,-1.15625 C22.796875,-1.15625 23.015625,-1.03125 23.09375,-0.765625 C22.34375,-0.046875 21.125,1.03125 21.125,1.03125 L20.015625,-0.484375 L18.984375,-0.484375 L18.984375,6.125 C19.578125,6.21875 19.890625,6.34375 20.09375,6.59375 L18.03125,8.109375 L17.1875,7.03125 L6.59375,7.03125 L4.9375,7.75 C7.3125,9.484375 9.1875,11.640625 10.421875,14.109375 L13.9375,14.109375 C15.453125,10.515625 18.265625,7.53125 21.53125,5.96875 C21.671875,6.640625 22.25,7.109375 23.015625,7.3125 L23.0625,7.609375 C19.78125,8.6875 16.25,11.015625 14.59375,14.109375 L21.796875,14.109375 C22.125,14.109375 22.375,14.234375 22.4375,14.5 C21.59375,15.234375 20.296875,16.265625 20.296875,16.265625 L19.15625,14.8125 L13.96875,14.8125 C15.28125,16.0625 16.625,17.640625 17.421875,18.8125 C17.953125,18.765625 18.234375,18.9375 18.359375,19.203125 Z" transform="translate(0.046875, 20.109375) scale(1, -1)"/>
</svg>