<svg height="21.34375" viewBox="0 0 24 21.34375" width="24" xmlns="http://www.w3.org/2000/svg">
<path d="M15.21875,19.9375 L15,19.734375 C16.015625,19.21875 17.234375,18.21875 17.65625,17.328125 C19.21875,16.578125 19.875,19.703125 15.21875,19.9375 Z M18.640625,15.34375 C18.078125,13.984375 17.234375,12.671875 16.171875,11.421875 C15.234375,12.84375 14.59375,14.46875 14.15625,16.171875 L21.9375,16.171875 C22.296875,16.171875 22.53125,16.296875 22.578125,16.5625 C21.8125,17.28125 20.59375,18.265625 20.59375,18.265625 L19.484375,16.875 L13.984375,16.875 C13.828125,17.65625 13.6875,18.453125 13.578125,19.25 C14.09375,19.34375 14.28125,19.609375 14.296875,19.890625 L11.828125,20.09375 C11.96875,18.984375 12.171875,17.90625 12.40625,16.875 L5.515625,16.875 L3.703125,17.65625 L3.703125,13.984375 C3.703125,11.203125 3.34375,8.140625 0.8125,5.640625 L1.078125,5.328125 C4.21875,7.34375 5.015625,10.21875 5.1875,12.625 L9.140625,12.625 C9,10.46875 8.734375,9.1875 8.421875,8.859375 C8.28125,8.734375 8.15625,8.65625 7.875,8.65625 C7.484375,8.65625 6.171875,8.765625 5.453125,8.828125 L5.453125,8.46875 C6.125,8.359375 6.9375,8.140625 7.203125,7.9375 C7.46875,7.734375 7.578125,7.34375 7.578125,7.015625 C8.234375,7.015625 8.90625,7.171875 9.34375,7.515625 C10.078125,8.09375 10.4375,9.59375 10.65625,12.625 L12.234375,12.625 C12.578125,12.625 12.8125,12.75 12.859375,13.015625 C12.1875,13.65625 11.140625,14.46875 11.140625,14.46875 L10.203125,13.3125 L5.234375,13.3125 L5.234375,14.015625 L5.234375,16.171875 L12.578125,16.171875 C13.125,13.984375 13.9375,12 15.125,10.3125 C13.75,8.96875 12.140625,7.828125 10.375,6.984375 L10.515625,6.625 C12.5,7.265625 14.296875,8.234375 15.859375,9.40625 C16.9375,8.15625 18.28125,7.15625 19.96875,6.453125 C21.234375,5.921875 22.578125,5.5625 22.96875,6.34375 C23.09375,6.625 23.015625,6.890625 22.265625,7.46875 L22.4375,10.375 L22.15625,10.421875 C21.90625,9.53125 21.578125,8.5625 21.359375,8.0625 C21.1875,7.703125 20.96875,7.703125 20.515625,7.875 C19.078125,8.40625 17.921875,9.265625 16.984375,10.34375 C18.28125,11.5 19.3125,12.796875 20.046875,14.109375 C20.5,14.015625 20.78125,14.09375 20.875,14.359375 Z M8.859375,-0.578125 L5.859375,-0.578125 L5.859375,5.015625 L8.859375,5.015625 Z M10.375,-0.578125 L10.375,5.015625 L13.421875,5.015625 L13.421875,-0.578125 Z M14.90625,-0.578125 L14.90625,5.015625 L18,5.015625 L18,-0.578125 Z M4.3125,5.6875 L4.3125,-0.578125 L1.03125,-0.578125 L1.25,-1.25 L22.421875,-1.25 C22.75,-1.25 22.96875,-1.125 23.046875,-0.859375 C22.34375,-0.171875 21.140625,0.8125 21.140625,0.8125 L20.109375,-0.578125 L19.5625,-0.578125 L19.5625,4.828125 C20.140625,4.890625 20.453125,5.046875 20.640625,5.28125 L18.578125,6.796875 L17.734375,5.6875 L6.09375,5.6875 L4.3125,6.484375 Z" transform="translate(0.046875, 20.09375) scale(1, -1)"/>
</svg>