<svg height="21.1875" viewBox="0 0 24 21.1875" width="24" xmlns="http://www.w3.org/2000/svg">
<path d="M17.828125,17.546875 L17.828125,12.53125 L6.34375,12.53125 L6.34375,17.546875 Z M4.734375,18.234375 L4.734375,-1.84375 L5.046875,-1.84375 C5.765625,-1.84375 6.34375,-1.4375 6.34375,-1.203125 L6.34375,0.125 L17.828125,0.125 L17.828125,-1.75 L18.046875,-1.75 C18.640625,-1.75 19.421875,-1.296875 19.46875,-1.125 L19.46875,17.15625 C19.984375,17.25 20.40625,17.46875 20.59375,17.6875 L18.5,19.34375 L17.5625,18.234375 L6.484375,18.234375 L4.734375,19.0625 Z M6.34375,11.828125 L17.828125,11.828125 L17.828125,6.71875 L6.34375,6.71875 Z M6.34375,6.03125 L17.828125,6.03125 L17.828125,0.8125 L6.34375,0.8125 Z" transform="translate(-0.6640625, 19.34375) scale(1, -1)"/>
</svg>