<svg height="20.921875" viewBox="0 0 24 20.921875" width="24" xmlns="http://www.w3.org/2000/svg">
<path d="M11.453125,20.109375 L11.453125,16.875 L1.0625,16.875 L1.265625,16.171875 L11.453125,16.171875 L11.453125,13.578125 L9.140625,13.578125 L7.46875,14.359375 L7.46875,1.796875 L7.734375,1.796875 C8.375,1.796875 9,2.1875 9,2.359375 L9,3.09375 L17.296875,3.09375 L17.296875,1.921875 L17.546875,1.921875 C18.078125,1.921875 18.84375,2.328125 18.859375,2.5 L18.859375,12.578125 C19.34375,12.671875 19.703125,12.859375 19.875,13.0625 L17.953125,14.5625 L17.0625,13.578125 L13.015625,13.578125 L13.015625,16.171875 L22.296875,16.171875 C22.625,16.171875 22.890625,16.296875 22.9375,16.5625 C22.078125,17.359375 20.65625,18.4375 20.65625,18.4375 L19.421875,16.875 L13.015625,16.875 L13.015625,19.21875 C13.609375,19.296875 13.84375,19.53125 13.890625,19.875 Z M17.296875,12.890625 L17.296875,10.390625 L9,10.390625 L9,12.890625 Z M9,3.8125 L9,6.4375 L17.296875,6.4375 L17.296875,3.8125 Z M9,7.125 L9,9.671875 L17.296875,9.671875 L17.296875,7.125 Z M2.6875,1.65625 L2.6875,1.296875 C2.6875,-0.546875 3.1875,-0.8125 6.90625,-0.8125 L18.1875,-0.8125 C22.25,-0.8125 22.796875,-0.59375 22.796875,0.125 C22.796875,0.40625 22.625,0.5 21.578125,0.75 L21.453125,0.765625 L21.3125,0.765625 C20.78125,0.640625 20.296875,0.59375 20.046875,0.59375 C19.734375,0.59375 19.078125,0.59375 18.484375,0.59375 L6.671875,0.59375 C4.34375,0.59375 4.25,0.625 4.25,1.3125 L4.25,12.4375 C4.796875,12.5 4.984375,12.75 5.046875,13.078125 L2.6875,13.3125 Z" transform="translate(0, 20.109375) scale(1, -1)"/>
</svg>