<svg height="21.953125" viewBox="0 0 24 21.953125" width="24" xmlns="http://www.w3.org/2000/svg">
<path d="M2.90625,13.3125 L2.90625,-1.84375 L3.21875,-1.84375 C3.8125,-1.84375 4.46875,-1.484375 4.46875,-1.265625 L4.46875,-0.34375 L22.4375,-0.34375 C22.796875,-0.34375 23.046875,-0.21875 23.109375,0.046875 C22.21875,0.84375 20.828125,1.890625 20.828125,1.890625 L19.578125,0.390625 L4.46875,0.390625 L4.46875,12.390625 C5.0625,12.453125 5.28125,12.71875 5.359375,13.0625 Z M7.78125,13.6875 L7.78125,1.828125 L8.015625,1.828125 C8.6875,1.828125 9.28125,2.203125 9.28125,2.40625 L9.28125,3.046875 L17.296875,3.046875 L17.296875,1.96875 L17.546875,1.96875 C18.09375,1.96875 18.84375,2.375 18.859375,2.546875 L18.859375,12.703125 C19.34375,12.796875 19.734375,12.984375 19.890625,13.171875 L17.953125,14.65625 L17.0625,13.6875 L12.703125,13.6875 L12.90625,16.265625 L21.890625,16.265625 C22.21875,16.265625 22.484375,16.390625 22.5625,16.65625 C21.671875,17.421875 20.25,18.5 20.25,18.5 L19.015625,16.9375 L12.984375,16.9375 L13.171875,19.25 C13.65625,19.34375 13.921875,19.578125 13.96875,19.921875 L11.546875,20.109375 L11.421875,16.9375 L1.390625,16.9375 L1.609375,16.265625 L11.40625,16.265625 L11.25,13.6875 L9.4375,13.6875 L7.78125,14.46875 Z M17.296875,12.984375 L17.296875,10.421875 L9.28125,10.421875 L9.28125,12.984375 Z M9.28125,3.765625 L9.28125,6.4375 L17.296875,6.4375 L17.296875,3.765625 Z M9.28125,7.15625 L9.28125,9.75 L17.296875,9.75 L17.296875,7.15625 Z" transform="translate(-0.25, 20.109375) scale(1, -1)"/>
</svg>