<svg height="21.859375" viewBox="0 0 24 21.859375" width="24" xmlns="http://www.w3.org/2000/svg">
<path d="M15.234375,4.484375 L15.03125,4.21875 C17.046875,3.03125 19.84375,0.765625 20.90625,-0.90625 C22.984375,-1.828125 23.421875,2.328125 15.234375,4.484375 Z M7.265625,4.703125 C6.078125,2.859375 3.59375,0.453125 1.21875,-0.984375 L1.46875,-1.3125 C4.265625,-0.21875 7.03125,1.703125 8.515625,3.3125 C9.046875,3.171875 9.234375,3.265625 9.40625,3.5 Z M2.90625,18 L2.90625,4.078125 L3.1875,4.078125 C3.796875,4.078125 4.4375,4.421875 4.4375,4.625 L4.4375,5.5625 L11.296875,5.5625 L11.296875,-1.890625 L11.546875,-1.890625 C12.34375,-1.890625 12.859375,-1.5625 12.859375,-1.46875 L12.859375,5.5625 L22.390625,5.5625 C22.734375,5.5625 22.96875,5.6875 23.015625,5.921875 C22.171875,6.703125 20.8125,7.734375 20.8125,7.734375 L19.609375,6.265625 L4.4375,6.265625 L4.4375,17.09375 C5.046875,17.15625 5.25,17.40625 5.296875,17.734375 Z M9.171875,15.1875 L17.59375,15.1875 L17.59375,12.8125 L9.171875,12.8125 Z M9.171875,15.90625 L9.171875,18.28125 L17.59375,18.28125 L17.59375,15.90625 Z M9.171875,12.125 L17.59375,12.125 L17.59375,9.703125 L9.171875,9.703125 Z M7.609375,18.984375 L7.609375,7.4375 L7.875,7.4375 C8.546875,7.4375 9.171875,7.796875 9.171875,7.984375 L9.171875,8.96875 L17.59375,8.96875 L17.59375,7.625 L17.828125,7.625 C18.359375,7.625 19.125,8.046875 19.15625,8.203125 L19.15625,18 C19.625,18.09375 20.015625,18.265625 20.15625,18.453125 L18.234375,19.96875 L17.359375,18.984375 L9.3125,18.984375 L7.609375,19.78125 Z" transform="translate(-0.3203125, 19.96875) scale(1, -1)"/>
</svg>