<svg height="22" viewBox="0 0 24 22" width="24" xmlns="http://www.w3.org/2000/svg">
<path d="M15.625,20.109375 C15.234375,19.125 14.640625,17.859375 14.0625,16.875 L9.34375,16.875 C10.015625,17.453125 9.75,19.25 6.578125,20.0625 L6.3125,19.890625 C7.078125,19.15625 7.9375,17.921875 8.203125,16.875 L2.546875,16.875 L2.734375,16.171875 L11.140625,16.171875 L11.140625,14.09375 L3.40625,14.09375 L3.59375,13.390625 L11.140625,13.390625 L11.140625,11.234375 L1.484375,11.234375 L1.703125,10.53125 L7.171875,10.53125 C5.953125,6.859375 3.765625,3.28125 0.796875,0.71875 L1.078125,0.390625 C3.59375,2.015625 5.609375,4.078125 7.125,6.484375 L7.125,-1.890625 L7.375,-1.890625 C8.046875,-1.890625 8.6875,-1.53125 8.6875,-1.375 L8.6875,-0.3125 L17.96875,-0.3125 L17.96875,-1.796875 L18.21875,-1.796875 C18.71875,-1.796875 19.53125,-1.4375 19.5625,-1.265625 L19.5625,7.703125 C19.984375,7.78125 20.359375,7.984375 20.515625,8.1875 L18.59375,9.640625 L17.765625,8.6875 L8.828125,8.6875 L8.453125,8.859375 C8.6875,9.40625 8.921875,9.953125 9.125,10.53125 L21.984375,10.53125 C22.3125,10.53125 22.5625,10.65625 22.625,10.921875 C21.84375,11.640625 20.546875,12.640625 20.546875,12.640625 L19.4375,11.234375 L12.71875,11.234375 L12.71875,13.390625 L20.421875,13.390625 C20.765625,13.390625 20.96875,13.515625 21.046875,13.78125 C20.296875,14.46875 19.109375,15.359375 19.109375,15.359375 L18.078125,14.09375 L12.71875,14.09375 L12.71875,16.171875 L21.3125,16.171875 C21.640625,16.171875 21.859375,16.296875 21.9375,16.5625 C21.171875,17.25 19.875,18.234375 19.875,18.234375 L18.796875,16.875 L14.921875,16.875 C15.75,17.546875 16.578125,18.34375 17.140625,18.984375 C17.65625,18.953125 17.953125,19.15625 18.078125,19.421875 Z M8.6875,5.25 L17.96875,5.25 L17.96875,3.1875 L8.6875,3.1875 Z M8.6875,5.953125 L8.6875,7.96875 L17.96875,7.96875 L17.96875,5.953125 Z M8.6875,2.46875 L17.96875,2.46875 L17.96875,0.390625 L8.6875,0.390625 Z" transform="translate(0.2890625, 20.109375) scale(1, -1)"/>
</svg>