<svg height="21.96875" viewBox="0 0 24 21.96875" width="24" xmlns="http://www.w3.org/2000/svg">
<path d="M8.734375,14.296875 L8.40625,14.1875 C8.78125,13.484375 9.171875,12.28125 9.171875,11.40625 C10.078125,10.4375 11.328125,12.40625 8.734375,14.296875 Z M2.875,19.734375 L2.59375,19.5625 C3.265625,18.859375 3.953125,17.71875 4.0625,16.75 C5.40625,15.703125 6.71875,18.484375 2.875,19.734375 Z M10.34375,19.890625 C9.8125,18.625 9.1875,17.375 8.71875,16.609375 L9.046875,16.34375 C9.84375,16.890625 10.78125,17.734375 11.546875,18.53125 C12.03125,18.453125 12.34375,18.640625 12.4375,18.890625 Z M4.796875,14.328125 C4.703125,13.03125 4.421875,11.65625 4.0625,10.6875 L4.4375,10.484375 C5.0625,11.25 5.546875,12.34375 5.828125,13.4375 C6.28125,13.46875 6.5,13.625 6.578125,13.890625 L6.578125,9.078125 L6.765625,9.078125 C7.34375,9.078125 7.828125,9.40625 7.84375,9.5 L7.84375,15.28125 L10.828125,15.28125 L10.828125,10.65625 C10.828125,10.390625 10.75,10.265625 10.484375,10.265625 C10.15625,10.265625 8.96875,10.390625 8.96875,10.390625 L8.96875,9.984375 C9.578125,9.890625 9.90625,9.75 10.15625,9.53125 C10.34375,9.28125 10.390625,8.90625 10.421875,8.515625 C12,8.71875 12.171875,9.359375 12.171875,10.515625 L12.171875,15.046875 C12.671875,15.09375 13.078125,15.3125 13.21875,15.484375 L11.328125,16.875 L10.578125,16.015625 L7.921875,16.015625 L7.921875,19.203125 C8.5,19.265625 8.71875,19.46875 8.765625,19.796875 L6.484375,20.046875 L6.484375,16.015625 L4.03125,16.015625 L2.40625,16.75 L2.40625,8.421875 L2.5625,8.421875 C3.265625,8.421875 3.75,8.78125 3.75,8.90625 L3.75,15.28125 L6.578125,15.28125 L6.578125,13.96875 Z M15.453125,20.09375 C14.859375,17.359375 13.703125,14.734375 12.453125,13.0625 L12.8125,12.796875 C13.65625,13.484375 14.453125,14.40625 15.125,15.453125 C15.578125,14.109375 16.125,12.90625 16.84375,11.875 C15.671875,10.65625 14.140625,9.625 12.1875,8.8125 L12.359375,8.453125 C14.453125,9.09375 16.15625,9.9375 17.515625,11.015625 C18.578125,9.84375 19.96875,8.90625 21.859375,8.25 C22.015625,8.96875 22.4375,9.390625 23.0625,9.578125 L23.09375,9.84375 C21.140625,10.265625 19.65625,10.9375 18.453125,11.859375 C19.625,13.03125 20.453125,14.453125 21,16.15625 L22.4375,16.15625 C22.78125,16.15625 22.984375,16.265625 23.0625,16.53125 C22.296875,17.25 21.078125,18.21875 21.078125,18.21875 L19.984375,16.84375 L15.953125,16.84375 C16.296875,17.515625 16.609375,18.21875 16.890625,18.9375 C17.40625,18.90625 17.65625,19.125 17.765625,19.421875 Z M17.546875,12.703125 C16.65625,13.609375 15.984375,14.71875 15.453125,15.984375 L15.546875,16.15625 L19.25,16.15625 C18.890625,14.859375 18.34375,13.703125 17.546875,12.703125 Z M17.15625,7.0625 L17.15625,5.25 L6.859375,5.25 L6.859375,7.0625 Z M5.328125,7.75 L5.328125,-1.875 L5.5625,-1.875 C6.21875,-1.875 6.859375,-1.515625 6.859375,-1.34375 L6.859375,-0.53125 L17.15625,-0.53125 L17.15625,-1.703125 L17.40625,-1.703125 C17.921875,-1.703125 18.703125,-1.34375 18.71875,-1.171875 L18.71875,6.8125 C19.125,6.890625 19.484375,7.078125 19.625,7.25 L17.78125,8.65625 L16.9375,7.75 L7.015625,7.75 L5.328125,8.515625 Z M6.859375,0.171875 L6.859375,2.046875 L17.15625,2.046875 L17.15625,0.171875 Z M6.859375,4.5625 L17.15625,4.5625 L17.15625,2.734375 L6.859375,2.734375 Z" transform="translate(-0.75, 20.09375) scale(1, -1)"/>
</svg>