<svg height="21.515625" viewBox="0 0 24 21.515625" width="24" xmlns="http://www.w3.org/2000/svg">
<path d="M0.9375,11.5625 L1.15625,10.84375 L10.5625,10.84375 C8.421875,7.3125 4.875,3.578125 0.9375,1.109375 L1.203125,0.765625 C5.46875,2.875 9.21875,5.96875 11.734375,9.484375 L11.734375,0.578125 C11.734375,0.1875 11.59375,0.078125 11.046875,0.078125 C10.421875,0.078125 7.21875,0.28125 7.21875,0.28125 L7.21875,-0.078125 C8.609375,-0.234375 9.359375,-0.4375 9.8125,-0.703125 C10.203125,-0.953125 10.390625,-1.390625 10.4375,-1.890625 C12.9375,-1.65625 13.296875,-0.71875 13.296875,0.53125 L13.296875,10.84375 L19.984375,10.84375 C19.03125,9.28125 17.40625,7.21875 16.15625,6 L16.46875,5.78125 C18.34375,6.984375 20.8125,9.046875 22.078125,10.5625 C22.609375,10.578125 22.921875,10.625 23.109375,10.828125 L21.234375,12.625 L20.140625,11.5625 L14.25,11.5625 C14.640625,12.046875 14.46875,13.15625 13.109375,14.234375 C15.21875,15.171875 17.828125,16.515625 19.296875,17.5625 C19.84375,17.59375 20.109375,17.640625 20.328125,17.828125 L18.453125,19.625 L17.296875,18.546875 L3.71875,18.546875 L3.9375,17.859375 L16.890625,17.859375 C15.765625,16.796875 14.046875,15.5 12.671875,14.546875 C11.640625,15.234375 10.078125,15.90625 7.828125,16.375 L7.6875,15.984375 C10.390625,14.65625 12.3125,12.796875 13.0625,11.5625 Z" transform="translate(-0.0234375, 19.625) scale(1, -1)"/>
</svg>