<svg height="21.921875" viewBox="0 0 24 21.921875" width="24" xmlns="http://www.w3.org/2000/svg">
<path d="M11.5625,17.953125 L11.5625,-1.828125 L11.8125,-1.828125 C12.578125,-1.828125 13.109375,-1.390625 13.109375,-1.265625 L13.109375,0 L22.796875,0 C23.109375,0 23.359375,0.125 23.421875,0.390625 C22.625,1.109375 21.328125,2.109375 21.328125,2.109375 L20.203125,0.703125 L13.109375,0.703125 L13.109375,5.953125 L19.515625,5.953125 L19.515625,4.734375 L19.734375,4.734375 C20.234375,4.734375 21.03125,5.109375 21.046875,5.25 L21.046875,11.875 C21.484375,11.953125 21.8125,12.140625 21.953125,12.34375 L20.109375,13.734375 L19.265625,12.8125 L13.109375,12.8125 L13.109375,17.234375 L22.34375,17.234375 C22.6875,17.234375 22.921875,17.359375 22.96875,17.609375 C22.171875,18.359375 20.90625,19.34375 20.90625,19.34375 L19.78125,17.953125 L13.390625,17.953125 L11.5625,18.71875 Z M13.109375,12.125 L19.515625,12.125 L19.515625,6.640625 L13.109375,6.640625 Z M4.03125,20.09375 C3.5,16.703125 2.359375,13.484375 0.953125,11.328125 L1.3125,11.109375 C2.40625,12.171875 3.34375,13.578125 4.125,15.1875 L5.421875,15.1875 L5.421875,11.0625 L5.421875,10.171875 L0.984375,10.171875 L1.171875,9.484375 L5.375,9.484375 C5.203125,5.921875 4.3125,2.15625 0.8125,-0.984375 L1.078125,-1.296875 C4.0625,0.59375 5.546875,3.046875 6.265625,5.515625 C7.53125,4.296875 8.78125,2.5625 9.046875,1.109375 C10.78125,-0.171875 12,3.703125 6.4375,6.09375 C6.71875,7.21875 6.84375,8.375 6.90625,9.484375 L10.578125,9.484375 C10.921875,9.484375 11.15625,9.59375 11.234375,9.859375 C10.515625,10.5625 9.34375,11.546875 9.34375,11.546875 L8.296875,10.171875 L6.9375,10.171875 L6.953125,11.0625 L6.953125,15.1875 L10.390625,15.1875 C10.703125,15.1875 10.9375,15.3125 11.015625,15.578125 C10.265625,16.296875 9.03125,17.28125 9.03125,17.28125 L7.96875,15.90625 L4.46875,15.90625 C4.875,16.875 5.234375,17.90625 5.546875,18.953125 C6.046875,18.953125 6.3125,19.203125 6.390625,19.484375 Z" transform="translate(-0.1171875, 20.09375) scale(1, -1)"/>
</svg>