<svg height="21.484375" viewBox="0 0 24 21.484375" width="24" xmlns="http://www.w3.org/2000/svg">
<path d="M18.171875,17.328125 L18.171875,10.078125 L14.453125,10.078125 L14.453125,10.3125 L14.453125,17.328125 Z M1.015625,18.171875 L1.203125,17.46875 L4.34375,17.46875 C3.75,13.34375 2.5625,9.1875 0.640625,6 L0.984375,5.71875 C1.796875,6.703125 2.5,7.75 3.125,8.875 L3.125,-0.125 L3.390625,-0.125 C4.109375,-0.125 4.578125,0.265625 4.578125,0.40625 L4.578125,2.515625 L7.609375,2.515625 L7.609375,0.953125 L7.828125,0.953125 C8.328125,0.953125 9.09375,1.296875 9.09375,1.421875 L9.09375,10.53125 C9.546875,10.625 9.90625,10.828125 10.078125,10.984375 L8.203125,12.40625 L7.375,11.515625 L4.875,11.515625 L4.4375,11.71875 C5.15625,13.515625 5.65625,15.453125 6,17.46875 L9.90625,17.46875 C10.21875,17.46875 10.4375,17.5625 10.515625,17.8125 L10.625,17.328125 L12.9375,17.328125 L12.9375,10.296875 L12.9375,10.078125 L9.9375,10.078125 L10.125,9.359375 L12.9375,9.359375 C12.8125,5.140625 11.953125,1.390625 7.875,-1.609375 L8.15625,-1.921875 C13.3125,0.84375 14.328125,5.046875 14.453125,9.359375 L18.171875,9.359375 L18.171875,-1.828125 L18.40625,-1.828125 C19.203125,-1.828125 19.734375,-1.4375 19.734375,-1.3125 L19.734375,9.359375 L22.734375,9.359375 C23.0625,9.359375 23.25,9.484375 23.328125,9.75 C22.625,10.46875 21.40625,11.5 21.40625,11.5 L20.359375,10.078125 L19.734375,10.078125 L19.734375,17.328125 L22.375,17.328125 C22.703125,17.328125 22.9375,17.453125 23.015625,17.71875 C22.21875,18.4375 20.96875,19.46875 20.96875,19.46875 L19.84375,18.046875 L10.4375,18.046875 L10.484375,17.90625 C9.703125,18.625 8.46875,19.5625 8.46875,19.5625 L7.375,18.171875 Z M7.609375,10.796875 L7.609375,3.21875 L4.578125,3.21875 L4.578125,10.796875 Z" transform="translate(0.015625, 19.5625) scale(1, -1)"/>
</svg>