<svg height="21.484375" viewBox="0 0 24 21.484375" width="24" xmlns="http://www.w3.org/2000/svg">
<path d="M12.4375,20.09375 C11.78125,16.828125 10.484375,13.65625 9.078125,11.640625 L9.4375,11.40625 C10.6875,12.53125 11.78125,14.109375 12.703125,15.90625 L20.609375,15.90625 C20.5,9.59375 20.234375,6.03125 19.578125,5.40625 C19.375,5.1875 19.203125,5.109375 18.765625,5.109375 C18.28125,5.109375 16.921875,5.234375 16.078125,5.328125 L16.078125,4.890625 C16.828125,4.78125 17.65625,4.5625 17.953125,4.3125 C18.234375,4.109375 18.3125,3.703125 18.3125,3.234375 C19.21875,3.234375 20.0625,3.53125 20.640625,4.15625 C21.578125,5.203125 21.90625,8.765625 22.0625,15.75 C22.5625,15.796875 22.84375,15.90625 23.015625,16.109375 L21.234375,17.5625 L20.375,16.625 L13.03125,16.625 C13.375,17.359375 13.6875,18.125 13.9375,18.90625 C14.46875,18.90625 14.734375,19.125 14.828125,19.4375 Z M11.046875,8.640625 L11.046875,0.4375 C11.046875,-0.90625 11.546875,-1.25 13.796875,-1.25 L17.40625,-1.25 C22.34375,-1.25 23.203125,-1.015625 23.203125,-0.234375 C23.203125,0.046875 23.046875,0.21875 22.46875,0.390625 L22.390625,3.3125 L22.078125,3.3125 C21.8125,1.984375 21.546875,0.890625 21.328125,0.5 C21.21875,0.265625 21.09375,0.1875 20.765625,0.171875 C20.296875,0.125 19.0625,0.09375 17.453125,0.09375 L13.9375,0.09375 C12.671875,0.09375 12.5,0.234375 12.5,0.71875 L12.5,7.921875 L16.265625,7.921875 L16.265625,6.703125 L16.484375,6.703125 C16.96875,6.703125 17.71875,7.03125 17.734375,7.203125 L17.734375,12.125 C18.171875,12.1875 18.5,12.390625 18.640625,12.546875 L16.84375,13.890625 L16.0625,13.0625 L11.015625,13.0625 L11.234375,12.34375 L16.265625,12.34375 L16.265625,8.640625 L12.8125,8.640625 L11.046875,9.390625 Z M0.984375,18.171875 L1.171875,17.453125 L4.203125,17.453125 C3.671875,13.25 2.65625,9.09375 0.8125,5.828125 L1.15625,5.515625 C1.796875,6.359375 2.40625,7.25 2.90625,8.1875 L2.90625,-1.390625 L3.171875,-1.390625 C3.890625,-1.390625 4.34375,-1.015625 4.34375,-0.890625 L4.34375,1.421875 L7.484375,1.421875 L7.484375,-0.140625 L7.703125,-0.140625 C8.203125,-0.140625 8.953125,0.171875 8.96875,0.3125 L8.96875,9.625 C9.4375,9.71875 9.796875,9.90625 9.953125,10.109375 L8.09375,11.515625 L7.25,10.578125 L4.65625,10.578125 L4.125,10.828125 C4.9375,12.890625 5.5,15.09375 5.859375,17.453125 L10.0625,17.453125 C10.421875,17.453125 10.609375,17.5625 10.6875,17.828125 C9.90625,18.546875 8.65625,19.515625 8.65625,19.515625 L7.5625,18.171875 Z M7.484375,9.90625 L7.484375,2.140625 L4.34375,2.140625 L4.34375,9.90625 Z" transform="translate(-0.0078125, 20.09375) scale(1, -1)"/>
</svg>