<svg height="21.5" viewBox="0 0 24 21.5" width="24" xmlns="http://www.w3.org/2000/svg">
<path d="M10.625,18.1875 L10.625,10.625 C10.625,6.09375 10.25,1.75 7.21875,-1.625 L7.5625,-1.890625 C11.765625,1.390625 12.140625,6.34375 12.140625,10.6875 L12.140625,13.0625 L15.171875,13.0625 C15.125,7.96875 14.921875,2.609375 11.140625,-1.46875 L11.515625,-1.875 C14.90625,0.984375 16.03125,4.625 16.4375,8.515625 L20.140625,8.515625 C19.921875,3.75 19.53125,0.90625 18.90625,0.34375 C18.671875,0.125 18.484375,0.078125 18.078125,0.078125 C17.59375,0.078125 16.15625,0.21875 15.3125,0.265625 L15.3125,-0.140625 C16.0625,-0.265625 16.875,-0.484375 17.1875,-0.703125 C17.46875,-0.90625 17.5625,-1.3125 17.5625,-1.75 C18.4375,-1.75 19.296875,-1.515625 19.890625,-0.9375 C20.859375,-0.03125 21.390625,2.953125 21.578125,8.359375 C22.03125,8.421875 22.34375,8.515625 22.515625,8.734375 L20.765625,10.15625 L19.890625,9.21875 L16.515625,9.21875 C16.625,10.484375 16.6875,11.765625 16.703125,13.0625 L22.421875,13.0625 C22.75,13.0625 22.96875,13.171875 23.046875,13.4375 C22.25,14.140625 21,15.140625 21,15.140625 L19.921875,13.75 L12.140625,13.75 L12.140625,17.46875 L22.078125,17.46875 C22.421875,17.46875 22.65625,17.59375 22.734375,17.859375 C21.890625,18.59375 20.5625,19.609375 20.5625,19.609375 L19.421875,18.1875 L12.4375,18.1875 L10.625,18.953125 Z M0.984375,17.96875 L1.171875,17.25 L4.15625,17.25 C3.625,13.296875 2.609375,9.359375 0.84375,6.265625 L1.203125,5.96875 C1.84375,6.796875 2.421875,7.625 2.921875,8.546875 L2.921875,-0.53125 L3.171875,-0.53125 C3.890625,-0.53125 4.375,-0.171875 4.375,-0.046875 L4.375,2.359375 L7.15625,2.359375 L7.15625,0.859375 L7.34375,0.859375 C7.828125,0.859375 8.5625,1.125 8.59375,1.265625 L8.59375,10.203125 C9.046875,10.296875 9.40625,10.484375 9.578125,10.65625 L7.734375,12.09375 L6.90625,11.1875 L4.65625,11.1875 L4.25,11.359375 C4.96875,13.203125 5.46875,15.171875 5.828125,17.25 L9.546875,17.25 C9.890625,17.25 10.125,17.375 10.203125,17.640625 C9.40625,18.359375 8.15625,19.3125 8.15625,19.3125 L7.0625,17.96875 Z M7.15625,10.484375 L7.15625,3.046875 L4.375,3.046875 L4.375,10.484375 Z" transform="translate(0.0546875, 19.609375) scale(1, -1)"/>
</svg>