<svg height="21.484375" viewBox="0 0 24 21.484375" width="24" xmlns="http://www.w3.org/2000/svg">
<path d="M9.453125,9.03125 L10.421875,7.265625 C10.625,7.375 10.78125,7.609375 10.84375,7.890625 L12.71875,8.859375 C12.546875,4.84375 11.59375,1.296875 7.703125,-1.578125 L8.015625,-1.890625 C13.25,0.9375 14.15625,5.28125 14.25,9.703125 L17.015625,11.1875 L16.875,11.546875 L14.25,10.609375 L14.25,17.328125 L16.390625,17.328125 L16.625,17.359375 L18.40625,17.328125 L18.40625,9.8125 L15.640625,9.8125 L15.84375,9.09375 L18.40625,9.09375 L18.40625,-1.921875 L18.640625,-1.921875 C19.4375,-1.921875 19.96875,-1.53125 19.96875,-1.390625 L19.96875,9.09375 L22.9375,9.09375 C23.25,9.09375 23.46875,9.21875 23.546875,9.484375 C22.828125,10.21875 21.625,11.234375 21.625,11.234375 L20.5625,9.8125 L19.96875,9.8125 L19.96875,17.328125 L22.734375,17.328125 C23.0625,17.328125 23.28125,17.453125 23.359375,17.71875 C22.578125,18.4375 21.328125,19.4375 21.328125,19.4375 L20.25,18.046875 L16.65625,18.046875 C15.9375,18.71875 15.03125,19.4375 15.03125,19.4375 L13.921875,18.046875 L10.3125,18.046875 L10.484375,17.328125 L12.75,17.328125 L12.75,10.375 L12.75,10.109375 C11.328125,9.59375 10.125,9.21875 9.453125,9.03125 Z M1.0625,18.171875 L1.25,17.46875 L4.265625,17.46875 C3.703125,13.421875 2.609375,9.34375 0.796875,6.171875 L1.125,5.875 C1.84375,6.765625 2.46875,7.703125 3.03125,8.71875 L3.03125,-0.09375 L3.28125,-0.09375 C4.015625,-0.09375 4.484375,0.28125 4.484375,0.4375 L4.484375,2.375 L7.4375,2.375 L7.4375,1.015625 L7.65625,1.015625 C8.15625,1.015625 8.921875,1.3125 8.953125,1.46875 L8.953125,10.390625 C9.390625,10.484375 9.75,10.65625 9.90625,10.84375 L8.046875,12.265625 L7.203125,11.359375 L4.796875,11.359375 L4.34375,11.546875 C5.0625,13.390625 5.59375,15.390625 5.921875,17.46875 L9.703125,17.46875 C10.03125,17.46875 10.265625,17.59375 10.34375,17.859375 C9.53125,18.578125 8.28125,19.5625 8.28125,19.5625 L7.15625,18.171875 Z M7.4375,10.65625 L7.4375,3.078125 L4.484375,3.078125 L4.484375,10.65625 Z" transform="translate(-0.171875, 19.5625) scale(1, -1)"/>
</svg>