<svg height="21.921875" viewBox="0 0 24 21.921875" width="24" xmlns="http://www.w3.org/2000/svg">
<path d="M11.359375,19.0625 L11.0625,18.890625 C11.953125,17.78125 12.890625,15.953125 12.9375,14.5 C14.421875,13.125 15.953125,16.6875 11.359375,19.0625 Z M20.640625,19.15625 C20.015625,17.40625 19.265625,15.4375 18.671875,14.203125 L19.03125,14.015625 C19.984375,15.03125 21.09375,16.515625 21.984375,17.828125 C22.484375,17.78125 22.78125,17.96875 22.890625,18.234375 Z M1.015625,17.6875 L1.203125,16.96875 L4.53125,16.96875 C3.859375,12.75 2.59375,8.453125 0.59375,5.15625 L0.953125,4.875 C1.828125,5.921875 2.59375,7.0625 3.234375,8.25 L3.234375,-1.25 L3.453125,-1.25 C4.203125,-1.25 4.6875,-0.859375 4.6875,-0.75 L4.6875,1.296875 L7.890625,1.296875 L7.890625,-0.234375 L8.109375,-0.234375 C8.609375,-0.234375 9.359375,0.078125 9.390625,0.21875 L9.390625,10.078125 C9.859375,10.171875 10.25,10.375 10.421875,10.53125 L8.515625,12.03125 L7.65625,11.0625 L4.96875,11.0625 L4.609375,11.234375 C5.296875,13.03125 5.828125,14.953125 6.1875,16.96875 L10.296875,16.96875 C10.609375,16.96875 10.828125,17.09375 10.890625,17.359375 C10.15625,18.09375 8.875,19.078125 8.875,19.078125 L7.828125,17.6875 Z M7.890625,10.375 L7.890625,2.015625 L4.6875,2.015625 L4.6875,10.375 Z M11.5625,12.640625 L11.5625,-1.875 L11.8125,-1.875 C12.578125,-1.875 13.078125,-1.484375 13.078125,-1.34375 L13.078125,4.171875 L20.296875,4.171875 L20.296875,0.578125 C20.296875,0.234375 20.203125,0.09375 19.796875,0.09375 C19.375,0.09375 17.328125,0.265625 17.328125,0.265625 L17.328125,-0.125 C18.234375,-0.265625 18.765625,-0.4375 19.078125,-0.703125 C19.375,-0.953125 19.46875,-1.375 19.53125,-1.84375 C21.59375,-1.65625 21.84375,-0.859375 21.84375,0.390625 L21.84375,11.6875 C22.3125,11.78125 22.6875,11.953125 22.84375,12.140625 L20.859375,13.625 L20.0625,12.640625 L17.40625,12.640625 L17.40625,19.15625 C18,19.21875 18.234375,19.46875 18.28125,19.796875 L15.890625,20.046875 L15.890625,12.640625 L13.390625,12.640625 L11.5625,13.4375 Z M13.078125,11.96875 L20.296875,11.96875 L20.296875,8.78125 L13.078125,8.78125 Z M13.078125,8.0625 L20.296875,8.0625 L20.296875,4.875 L13.078125,4.875 Z" transform="translate(0.2578125, 20.046875) scale(1, -1)"/>
</svg>