<svg height="21.46875" viewBox="0 0 24 21.46875" width="24" xmlns="http://www.w3.org/2000/svg">
<path d="M12.40625,5.96875 L12.03125,5.765625 C12.453125,4.484375 13.03125,3.4375 13.734375,2.515625 C12.578125,0.859375 10.625,-0.40625 7.375,-1.53125 L7.578125,-1.890625 C10.984375,-1.0625 13.203125,0.09375 14.5625,1.578125 C16.3125,-0.140625 18.75,-1.171875 21.9375,-1.828125 C22.109375,-1.0625 22.5625,-0.53125 23.234375,-0.390625 L23.25,-0.140625 C19.96875,0.21875 17.234375,1.015625 15.265625,2.453125 C16.0625,3.640625 16.46875,5.015625 16.625,6.59375 L20.234375,6.59375 L20.234375,5.359375 L20.453125,5.359375 C21.140625,5.359375 21.671875,5.71875 21.671875,5.78125 L21.671875,13.921875 C22.171875,13.984375 22.4375,14.140625 22.609375,14.328125 L20.90625,15.625 L20.140625,14.734375 L16.75,14.734375 L16.75,17.46875 L22.65625,17.46875 C22.984375,17.46875 23.203125,17.59375 23.28125,17.859375 C22.515625,18.578125 21.265625,19.578125 21.265625,19.578125 L20.140625,18.171875 L9.859375,18.171875 L10.0625,17.46875 L15.21875,17.46875 L15.21875,14.734375 L12.1875,14.734375 L10.46875,15.453125 L10.46875,5.09375 L10.6875,5.09375 C11.453125,5.09375 11.90625,5.453125 11.90625,5.5625 L11.90625,6.59375 L15.125,6.59375 C14.96875,5.375 14.71875,4.296875 14.203125,3.34375 C13.46875,4.0625 12.859375,4.9375 12.40625,5.96875 Z M11.90625,10.375 L15.21875,10.375 L15.21875,8.8125 L15.171875,7.296875 L11.90625,7.296875 Z M20.234375,10.375 L20.234375,7.296875 L16.703125,7.296875 C16.734375,7.796875 16.75,8.328125 16.75,8.859375 L16.75,10.375 Z M11.90625,11.0625 L11.90625,14.015625 L15.21875,14.015625 L15.21875,11.0625 Z M20.234375,11.0625 L16.75,11.0625 L16.75,14.015625 L20.234375,14.015625 Z M0.984375,18.046875 L1.171875,17.328125 L4.15625,17.328125 C3.546875,13.375 2.421875,9.359375 0.640625,6.265625 L1.015625,5.96875 C1.734375,6.859375 2.359375,7.828125 2.90625,8.828125 L2.90625,-0.4375 L3.140625,-0.4375 C3.859375,-0.4375 4.34375,-0.046875 4.34375,0.09375 L4.34375,2.296875 L7.375,2.296875 L7.375,0.546875 L7.578125,0.546875 C8.0625,0.546875 8.8125,0.859375 8.828125,1.015625 L8.828125,10.734375 C9.28125,10.828125 9.671875,11.015625 9.84375,11.203125 L7.9375,12.640625 L7.125,11.71875 L4.625,11.71875 L4.296875,11.859375 C4.9375,13.578125 5.421875,15.40625 5.78125,17.328125 L9.234375,17.328125 C9.546875,17.328125 9.8125,17.453125 9.890625,17.71875 C9.09375,18.4375 7.875,19.421875 7.875,19.421875 L6.765625,18.046875 Z M7.375,11.015625 L7.375,3 L4.34375,3 L4.34375,11.015625 Z" transform="translate(0.0390625, 19.578125) scale(1, -1)"/>
</svg>