<svg height="21.40625" viewBox="0 0 24 21.40625" width="24" xmlns="http://www.w3.org/2000/svg">
<path d="M10.375,10.625 L10.03125,10.46875 C10.375,9.984375 10.75,9.40625 11.109375,8.78125 C10.296875,8.015625 9.453125,7.3125 8.65625,6.796875 L8.828125,6.40625 C9.75,6.859375 10.65625,7.421875 11.546875,8.015625 C12.03125,7.125 12.484375,6.171875 12.796875,5.25 C11.359375,3.671875 9.640625,2.28125 7.890625,1.3125 L8.09375,1.015625 C9.90625,1.703125 11.65625,2.8125 13.15625,4.03125 L13.25,3.359375 C14.046875,2.640625 14.6875,3.4375 14.296875,5.0625 C14.921875,5.65625 15.484375,6.28125 15.9375,6.890625 C16.421875,3.984375 16.078125,1.375 15.359375,0.28125 C15.234375,0.046875 14.96875,0.03125 14.609375,0.03125 C14.015625,0.03125 12.28125,0.125 11.25,0.1875 L11.25,-0.21875 C12.1875,-0.359375 13.109375,-0.59375 13.390625,-0.796875 C13.6875,-1.03125 13.890625,-1.375 13.921875,-1.875 C15.3125,-1.875 16.171875,-1.5625 16.625,-0.90625 C18.484375,1.4375 18.359375,9.578125 13.390625,14.1875 C14.5625,15.140625 15.578125,16.21875 16.375,17.421875 L16.390625,17.421875 C17.140625,10.421875 18.640625,4.734375 21.984375,1.34375 C22.265625,2.09375 22.828125,2.5625 23.421875,2.640625 L23.5,2.859375 C21.328125,4.46875 19.734375,7.265625 18.59375,10.578125 C19.734375,11.296875 21.265625,12.265625 22.109375,12.90625 C22.5625,12.765625 22.78125,12.8125 22.921875,12.984375 L21.09375,14.5 C20.421875,13.578125 19.3125,12.125 18.4375,11.0625 C17.765625,13.078125 17.25,15.265625 16.921875,17.421875 L22.265625,17.421875 C22.609375,17.421875 22.828125,17.546875 22.890625,17.8125 C22.109375,18.53125 20.828125,19.53125 20.828125,19.53125 L19.703125,18.140625 L9.671875,18.140625 L9.71875,17.921875 C8.953125,18.625 7.828125,19.515625 7.828125,19.515625 L6.75,18.171875 L0.90625,18.171875 L1.109375,17.453125 L4.125,17.453125 C3.546875,13.21875 2.46875,8.921875 0.640625,5.609375 L1.03125,5.359375 C1.75,6.3125 2.375,7.34375 2.921875,8.421875 L2.921875,-0.484375 L3.171875,-0.484375 C3.890625,-0.484375 4.34375,-0.09375 4.34375,0.03125 L4.34375,2.421875 L6.8125,2.421875 L6.8125,1.15625 L7.03125,1.15625 C7.515625,1.15625 8.234375,1.4375 8.25,1.578125 L8.25,10.609375 C8.71875,10.703125 9.078125,10.890625 9.21875,11.0625 L7.390625,12.484375 L6.578125,11.5625 L4.625,11.5625 L4.3125,11.71875 C4.96875,13.515625 5.421875,15.4375 5.734375,17.453125 L9.21875,17.453125 C9.5,17.453125 9.71875,17.546875 9.765625,17.734375 L9.859375,17.421875 L14.375,17.421875 C13.0625,15.34375 11.09375,13.34375 8.8125,11.921875 L9.046875,11.546875 C10.46875,12.1875 11.8125,12.984375 12.984375,13.875 C13.375,13.390625 13.734375,12.890625 14.046875,12.359375 C13.4375,11.359375 12.59375,10.3125 11.6875,9.359375 C11.28125,9.765625 10.84375,10.203125 10.375,10.625 Z M6.8125,10.875 L6.8125,3.140625 L4.34375,3.140625 L4.34375,10.875 Z M14.828125,10.78125 C15.078125,10.203125 15.28125,9.59375 15.453125,9.03125 C15,8.140625 14.421875,7.265625 13.78125,6.4375 C13.4375,7.078125 12.984375,7.828125 12.34375,8.609375 C13.265625,9.3125 14.140625,10.0625 14.828125,10.78125 Z" transform="translate(-0.0703125, 19.53125) scale(1, -1)"/>
</svg>