<svg height="21.8125" viewBox="0 0 24 21.8125" width="24" xmlns="http://www.w3.org/2000/svg">
<path d="M0.953125,18.171875 L1.15625,17.453125 L4.15625,17.453125 C3.59375,13.265625 2.546875,9.078125 0.75,5.8125 L1.109375,5.515625 C1.796875,6.4375 2.40625,7.390625 2.921875,8.40625 L2.921875,-1.21875 L3.171875,-1.21875 C3.890625,-1.21875 4.34375,-0.84375 4.34375,-0.703125 L4.34375,1.75 L7.3125,1.75 L7.3125,-0.21875 L7.53125,-0.21875 C8.046875,-0.21875 8.78125,0.125 8.8125,0.265625 L8.8125,10.296875 C9.234375,10.375 9.625,10.5625 9.796875,10.75 L7.9375,12.21875 L7.109375,11.28125 L4.65625,11.28125 L4.265625,11.453125 C4.96875,13.3125 5.453125,15.34375 5.78125,17.453125 L9.859375,17.453125 C10.203125,17.453125 10.421875,17.5625 10.484375,17.828125 C9.703125,18.546875 8.453125,19.53125 8.453125,19.53125 L7.34375,18.171875 Z M7.3125,10.5625 L7.3125,2.421875 L4.34375,2.421875 L4.34375,10.5625 Z M14.96875,19.984375 L14.96875,16.84375 L9.3125,16.84375 L9.5,16.15625 L22.25,16.15625 C22.5625,16.15625 22.796875,16.265625 22.875,16.53125 C22.078125,17.25 20.828125,18.234375 20.828125,18.234375 L19.703125,16.84375 L16.53125,16.84375 L16.53125,19.109375 C17.109375,19.171875 17.359375,19.421875 17.40625,19.75 Z M14.96875,7.828125 L14.96875,5.25 L9.234375,5.25 L9.4375,4.5625 L14.96875,4.5625 L14.96875,-1.828125 L15.265625,-1.828125 C15.859375,-1.828125 16.53125,-1.515625 16.53125,-1.3125 L16.53125,4.5625 L22.515625,4.5625 C22.875,4.5625 23.109375,4.6875 23.15625,4.9375 C22.375,5.6875 21.09375,6.671875 21.09375,6.671875 L19.96875,5.25 L16.53125,5.25 L16.53125,6.84375 C17.1875,6.9375 17.453125,7.171875 17.5,7.5625 Z M12.1875,15.53125 C11.859375,13.015625 10.875,9.546875 9.1875,7.3125 L9.453125,7.03125 C10.9375,8.328125 12.046875,10.125 12.8125,11.875 C13.46875,11.1875 14.0625,10.203125 14.234375,9.390625 C15.625,8.375 16.875,11.09375 13.03125,12.40625 C13.3125,13.109375 13.5625,13.796875 13.75,14.453125 C14.328125,14.421875 14.515625,14.5625 14.640625,14.859375 Z M18.4375,15.5 C18.078125,13.109375 16.96875,10.078125 15.046875,8.25 L15.28125,7.9375 C16.84375,8.90625 18.03125,10.3125 18.84375,11.8125 C19.875,10.828125 20.921875,9.453125 21.28125,8.375 C22.828125,7.375 23.78125,10.4375 19.109375,12.34375 C19.46875,13.0625 19.75,13.75 19.96875,14.453125 C20.546875,14.40625 20.734375,14.5625 20.828125,14.828125 Z" transform="translate(-0.265625, 19.984375) scale(1, -1)"/>
</svg>