<svg height="22.125" viewBox="0 0 24 22.125" width="24" xmlns="http://www.w3.org/2000/svg">
<path d="M1.03125,18.140625 L1.21875,17.421875 L4.078125,17.421875 C3.53125,13.421875 2.46875,9.390625 0.71875,6.21875 L1.0625,5.921875 C1.734375,6.796875 2.328125,7.703125 2.859375,8.6875 L2.859375,-1.296875 L3.09375,-1.296875 C3.8125,-1.296875 4.3125,-0.890625 4.3125,-0.796875 L4.3125,1.734375 L7.171875,1.734375 L7.171875,-0.3125 L7.390625,-0.3125 C7.890625,-0.3125 8.609375,0.03125 8.640625,0.171875 L8.640625,10.375 C9.09375,10.46875 9.484375,10.65625 9.640625,10.84375 L7.78125,12.28125 L6.953125,11.359375 L4.578125,11.359375 L4.171875,11.546875 C4.875,13.390625 5.375,15.359375 5.71875,17.421875 L9.453125,17.421875 C9.796875,17.421875 10.03125,17.546875 10.109375,17.8125 C9.34375,18.53125 8.09375,19.53125 8.09375,19.53125 L7.03125,18.140625 Z M7.171875,10.65625 L7.171875,2.421875 L4.3125,2.421875 L4.3125,10.65625 Z M13.15625,7.34375 C12.796875,6.234375 12.234375,4.65625 11.875,3.640625 L8.875,3.640625 L9.046875,2.921875 L17.015625,2.921875 L17.015625,-1.875 L17.296875,-1.875 C17.875,-1.875 18.53125,-1.5625 18.53125,-1.375 L18.53125,2.921875 L22.65625,2.921875 C22.984375,2.921875 23.1875,3.046875 23.25,3.3125 C22.515625,4.0625 21.265625,5.09375 21.265625,5.09375 L20.140625,3.640625 L18.53125,3.640625 L18.53125,6.8125 C19.109375,6.90625 19.3125,7.125 19.390625,7.4375 L17.015625,7.703125 L17.015625,3.640625 L12.75,3.640625 C13.3125,4.421875 14.0625,5.5 14.59375,6.265625 C15.09375,6.21875 15.390625,6.40625 15.5,6.71875 Z M20.40625,12.578125 L20.40625,9.140625 L16.875,9.140625 L16.875,12.578125 Z M20.40625,13.296875 L16.875,13.296875 L16.875,16.609375 L20.40625,16.609375 Z M15.4375,12.578125 L15.4375,9.140625 L12.078125,9.140625 L12.078125,12.578125 Z M15.4375,13.296875 L12.078125,13.296875 L12.078125,16.609375 L15.4375,16.609375 Z M10.578125,17.28125 L10.578125,6.953125 L10.828125,6.953125 C11.453125,6.953125 12.078125,7.3125 12.078125,7.46875 L12.078125,8.453125 L20.40625,8.453125 L20.40625,7.34375 L20.609375,7.34375 C21.125,7.34375 21.859375,7.6875 21.890625,7.796875 L21.890625,16.3125 C22.34375,16.421875 22.734375,16.609375 22.890625,16.78125 L21,18.234375 L20.15625,17.28125 L15.703125,17.28125 C16.15625,17.875 16.75,18.625 17.140625,19.203125 C17.640625,19.21875 17.953125,19.421875 18.046875,19.75 L15.5,20.25 C15.3125,19.390625 15,18.125 14.765625,17.28125 L12.1875,17.28125 L10.578125,18.046875 Z" transform="translate(0.015625, 20.25) scale(1, -1)"/>
</svg>