<svg height="21.984375" viewBox="0 0 24 21.984375" width="24" xmlns="http://www.w3.org/2000/svg">
<path d="M2.828125,17.46875 L2.828125,11.328125 C2.828125,7.03125 2.65625,2.359375 0.625,-1.4375 L0.953125,-1.6875 C4.203125,2.046875 4.375,7.375 4.375,11.359375 L4.375,16.75 L22.3125,16.75 C22.65625,16.75 22.890625,16.875 22.96875,17.140625 C22.15625,17.90625 20.828125,18.953125 20.828125,18.953125 L19.65625,17.46875 L13.078125,17.46875 L13.078125,19.21875 C13.6875,19.296875 13.890625,19.53125 13.9375,19.875 L11.546875,20.109375 L11.546875,17.46875 L4.625,17.46875 L2.828125,18.265625 Z M8.609375,16.390625 L8.609375,13.890625 L5.140625,13.890625 L5.328125,13.203125 L8.046875,13.203125 C7.296875,11.5625 6.21875,10.03125 4.828125,8.8125 L5.109375,8.40625 C6.5,9.265625 7.703125,10.34375 8.609375,11.59375 L8.609375,8.09375 L8.875,8.09375 C9.40625,8.09375 10.0625,8.421875 10.0625,8.59375 L10.0625,12.1875 C10.828125,11.6875 11.609375,10.875 11.859375,10.171875 C13.171875,9.359375 14.046875,11.96875 10.0625,12.625 L10.0625,13.203125 L13.0625,13.203125 C13.375,13.203125 13.5625,13.3125 13.625,13.5625 L13.734375,13.203125 L16.015625,13.203125 C15.21875,11.59375 14.0625,10.109375 12.59375,8.953125 L12.859375,8.546875 C14.46875,9.4375 15.796875,10.5625 16.78125,11.875 L16.78125,8.0625 L17.0625,8.0625 C17.59375,8.0625 18.234375,8.40625 18.234375,8.5625 L18.234375,12.9375 C19.109375,11.109375 20.453125,9.640625 21.75,8.734375 C21.9375,9.390625 22.3125,9.765625 22.890625,9.84375 L22.921875,10.109375 C21.5,10.703125 19.828125,11.8125 18.765625,13.203125 L22.0625,13.203125 C22.390625,13.203125 22.609375,13.3125 22.65625,13.578125 C22.015625,14.234375 20.921875,15.125 20.921875,15.125 L19.984375,13.890625 L18.234375,13.890625 L18.234375,15.59375 C18.671875,15.703125 18.84375,15.890625 18.890625,16.125 L16.78125,16.375 L16.78125,13.890625 L13.5625,13.890625 L13.625,13.609375 C13.015625,14.234375 12.046875,15.03125 12.046875,15.03125 L11.15625,13.890625 L10.0625,13.890625 L10.0625,15.625 C10.484375,15.71875 10.6875,15.90625 10.734375,16.15625 Z M4.984375,7.203125 L5.1875,6.5 L9.484375,6.5 C8.40625,3.953125 6.21875,1.421875 3.703125,-0.28125 L3.953125,-0.625 C5.609375,0.234375 7.15625,1.34375 8.46875,2.65625 L8.46875,-1.875 L8.734375,-1.875 C9.484375,-1.875 10.015625,-1.46875 10.015625,-1.34375 L10.015625,-0.5 L18.75,-0.5 L18.75,-1.78125 L18.984375,-1.78125 C19.484375,-1.78125 20.25,-1.421875 20.28125,-1.265625 L20.28125,3.234375 C20.6875,3.3125 21.046875,3.5 21.1875,3.671875 L19.34375,5.046875 L18.5,4.15625 L10.296875,4.15625 L9.90625,4.3125 C10.4375,5.015625 10.890625,5.734375 11.28125,6.5 L21.953125,6.5 C22.296875,6.5 22.5625,6.625 22.609375,6.890625 C21.84375,7.5625 20.65625,8.46875 20.65625,8.46875 L19.625,7.203125 Z M18.75,3.453125 L18.75,0.21875 L10.015625,0.21875 L10.015625,3.453125 Z" transform="translate(0.203125, 20.109375) scale(1, -1)"/>
</svg>