<svg height="22.34375" viewBox="0 0 24 22.34375" width="24" xmlns="http://www.w3.org/2000/svg">
<path d="M18.140625,9.796875 L17.90625,9.59375 C18.484375,9.140625 19.078125,8.28125 19.171875,7.578125 C20.40625,6.640625 21.640625,9.03125 18.140625,9.796875 Z M10.984375,9.265625 C10.984375,8.609375 10.9375,7.9375 10.890625,7.296875 L8.59375,7.296875 L8.78125,6.59375 L10.828125,6.59375 C10.4375,3.625 9.390625,0.703125 7.078125,-1.484375 L7.21875,-1.875 C9.703125,-0.234375 11.09375,1.984375 11.859375,4.421875 C12.71875,3.703125 13.609375,2.59375 13.84375,1.703125 C15.40625,0.71875 16.484375,3.765625 12,4.875 C12.171875,5.421875 12.28125,6.03125 12.390625,6.59375 L15.640625,6.59375 C15.984375,5.046875 16.421875,3.640625 17.046875,2.46875 C15.359375,0.765625 13.421875,-0.5 11.46875,-1.34375 L11.65625,-1.75 C13.796875,-1.125 15.890625,-0.09375 17.6875,1.390625 C18.390625,0.34375 19.265625,-0.5 20.359375,-1.109375 C21.390625,-1.75 22.703125,-2.25 23.140625,-1.515625 C23.296875,-1.25 23.234375,-0.953125 22.5625,-0.234375 L22.890625,3.28125 L22.5625,3.34375 C22.3125,2.328125 21.9375,1.203125 21.671875,0.578125 C21.484375,0.125 21.359375,0.078125 20.953125,0.359375 C20.0625,0.84375 19.34375,1.515625 18.765625,2.375 C19.484375,3.09375 20.15625,3.890625 20.734375,4.796875 C21.265625,4.65625 21.5,4.734375 21.640625,4.96875 L19.78125,6.171875 C19.265625,5.234375 18.703125,4.390625 18.046875,3.59375 C17.640625,4.484375 17.296875,5.5 17.0625,6.59375 L22.78125,6.59375 C23.109375,6.59375 23.328125,6.71875 23.40625,6.984375 C22.6875,7.6875 21.5,8.640625 21.5,8.640625 L20.46875,7.296875 L16.890625,7.296875 C16.25,10.609375 16.171875,14.71875 16.21875,19.15625 C16.828125,19.25 17.046875,19.515625 17.09375,19.828125 L14.71875,20.09375 L14.765625,15.9375 C14.8125,13.890625 14.90625,12 15.078125,10.25 C15,10.96875 14.421875,11.921875 12.890625,12.71875 L12.578125,12.578125 C12.84375,12.21875 13.109375,11.734375 13.3125,11.234375 L11.015625,10.984375 C12,12.34375 13.03125,13.984375 13.84375,15.53125 C14.359375,15.484375 14.640625,15.671875 14.765625,15.9375 L12.703125,16.75 C11.96875,14.765625 11.046875,12.53125 10.25,10.9375 L8.8125,10.84375 L9.671875,9.171875 C9.890625,9.21875 10.078125,9.34375 10.203125,9.671875 C11.59375,10.078125 12.703125,10.4375 13.515625,10.703125 C13.625,10.265625 13.734375,9.8125 13.734375,9.40625 C14.40625,8.765625 15.140625,9.28125 15.09375,10.203125 C15.1875,9.171875 15.34375,8.203125 15.5,7.296875 L12.5,7.296875 L12.625,8.40625 C13.171875,8.421875 13.421875,8.5625 13.46875,8.828125 Z M8.6875,16.484375 L8.421875,16.3125 C9.09375,15.671875 9.890625,14.609375 10.078125,13.75 C11.109375,13.03125 12.046875,14.46875 10.4375,15.671875 C11.109375,16.53125 11.875,17.6875 12.5,18.671875 C12.984375,18.671875 13.25,18.859375 13.34375,19.125 L11.1875,19.875 C10.796875,18.546875 10.34375,17.09375 9.90625,15.984375 C9.578125,16.171875 9.171875,16.34375 8.6875,16.484375 Z M16.5625,11.296875 L17.25,9.546875 C17.5,9.59375 17.6875,9.75 17.8125,10.0625 C19.3125,10.46875 20.515625,10.84375 21.390625,11.140625 C21.578125,10.625 21.71875,10.109375 21.71875,9.625 C22.96875,8.515625 24.390625,11.15625 20.734375,12.953125 L20.421875,12.8125 C20.6875,12.484375 20.953125,12.078125 21.171875,11.609375 L18.90625,11.453125 C19.890625,12.671875 20.90625,14.1875 21.765625,15.578125 C22.265625,15.53125 22.5625,15.75 22.6875,15.984375 L20.640625,16.875 C19.890625,14.96875 18.90625,12.890625 18.09375,11.375 Z M16.65625,16.734375 L16.390625,16.5625 C16.984375,15.890625 17.6875,14.765625 17.859375,13.875 C18.84375,13.109375 19.796875,14.515625 18.28125,15.8125 C18.953125,16.625 19.734375,17.65625 20.359375,18.578125 C20.828125,18.53125 21.140625,18.75 21.234375,19.015625 L19.109375,19.796875 C18.703125,18.546875 18.21875,17.203125 17.765625,16.203125 C17.453125,16.390625 17.09375,16.5625 16.65625,16.734375 Z M1.015625,17.921875 L1.203125,17.234375 L3.890625,17.234375 C3.359375,13.4375 2.421875,9.625 0.84375,6.59375 L1.203125,6.3125 C1.75,7.03125 2.234375,7.796875 2.65625,8.59375 L2.65625,-0.84375 L2.875,-0.84375 C3.578125,-0.84375 4.0625,-0.484375 4.0625,-0.359375 L4.0625,2.046875 L6.640625,2.046875 L6.640625,0.578125 L6.84375,0.578125 C7.296875,0.578125 8.015625,0.890625 8.046875,1.015625 L8.046875,9.890625 C8.5,9.984375 8.859375,10.171875 9.03125,10.34375 L7.203125,11.734375 L6.40625,10.84375 L4.34375,10.84375 L3.8125,11.09375 C4.578125,12.984375 5.109375,15.046875 5.46875,17.234375 L9.140625,17.234375 C9.484375,17.234375 9.71875,17.359375 9.765625,17.609375 C9.03125,18.3125 7.78125,19.265625 7.78125,19.265625 L6.71875,17.921875 Z M6.640625,10.15625 L6.640625,2.71875 L4.0625,2.71875 L4.0625,10.15625 Z" transform="translate(-0.6171875, 20.09375) scale(1, -1)"/>
</svg>