<svg height="21.21875" viewBox="0 0 24 21.21875" width="24" xmlns="http://www.w3.org/2000/svg">
<path d="M3.71875,17.859375 L3.90625,17.15625 L19.84375,17.15625 C20.1875,17.15625 20.421875,17.28125 20.5,17.546875 C19.65625,18.28125 18.28125,19.34375 18.28125,19.34375 L17.09375,17.859375 Z M16.296875,8.734375 L15.984375,8.546875 C17.921875,6.59375 20.515625,3.40625 21.1875,1.0625 C23.1875,-0.359375 24.171875,4.25 16.296875,8.734375 Z M6.03125,8.96875 C5.140625,6.5 3.125,3.09375 0.84375,0.890625 L1.109375,0.625 C3.90625,2.46875 6.21875,5.40625 7.46875,7.625 C8.046875,7.5625 8.234375,7.6875 8.375,7.9375 Z M1.0625,12.140625 L1.265625,11.453125 L11.234375,11.453125 L11.234375,0.625 C11.234375,0.265625 11.09375,0.140625 10.609375,0.140625 C10.078125,0.140625 7.21875,0.34375 7.21875,0.34375 L7.21875,-0.03125 C8.5,-0.171875 9.171875,-0.390625 9.578125,-0.640625 C9.9375,-0.90625 10.109375,-1.375 10.15625,-1.875 C12.484375,-1.625 12.8125,-0.703125 12.8125,0.578125 L12.8125,11.453125 L22.34375,11.453125 C22.6875,11.453125 22.921875,11.5625 22.984375,11.828125 C22.125,12.59375 20.734375,13.6875 20.734375,13.6875 L19.484375,12.140625 Z" transform="translate(-0.5078125, 19.34375) scale(1, -1)"/>
</svg>