<svg height="21.953125" viewBox="0 0 24 21.953125" width="24" xmlns="http://www.w3.org/2000/svg">
<path d="M2.40625,15.1875 L2.609375,14.515625 L11.65625,14.515625 C9.640625,11.09375 5.203125,7.203125 0.984375,5.09375 L1.21875,4.75 C3.453125,5.65625 5.6875,6.953125 7.703125,8.421875 L7.703125,-1.890625 L7.9375,-1.890625 C8.71875,-1.890625 9.265625,-1.46875 9.265625,-1.296875 L9.265625,9.171875 C11.0625,8.15625 13.3125,6.453125 14.15625,5.0625 C16.078125,4.203125 16.421875,7.984375 9.265625,9.625 C10.984375,11.09375 12.453125,12.671875 13.4375,14.234375 C14.0625,14.28125 14.375,14.328125 14.609375,14.515625 L12.84375,16.21875 L11.71875,15.1875 L9.265625,15.1875 L9.265625,19.171875 C9.890625,19.25 10.109375,19.484375 10.171875,19.828125 L7.6875,20.0625 L7.6875,15.1875 Z" transform="translate(3.296875, 20.0625) scale(1, -1)"/>
</svg>