<svg height="21.921875" viewBox="0 0 24 21.921875" width="24" xmlns="http://www.w3.org/2000/svg">
<path d="M20.15625,19.921875 C18.640625,19.03125 15.890625,17.90625 13.421875,17.15625 L11.515625,17.828125 L11.515625,10.4375 C11.515625,6.09375 11.0625,1.828125 8.0625,-1.5625 L8.421875,-1.84375 C12.59375,1.4375 13.015625,6.34375 13.015625,10.421875 L13.015625,11.296875 L17.765625,11.296875 L17.765625,-1.828125 L18.03125,-1.828125 C18.8125,-1.828125 19.34375,-1.4375 19.34375,-1.3125 L19.34375,11.296875 L22.578125,11.296875 C22.921875,11.296875 23.140625,11.421875 23.1875,11.6875 C22.421875,12.390625 21.171875,13.421875 21.171875,13.421875 L20.0625,11.96875 L13.015625,11.96875 L13.015625,16.5625 C15.796875,16.875 18.90625,17.59375 20.90625,18.1875 C21.484375,17.96875 21.890625,17.96875 22.109375,18.21875 Z M1.015625,15.453125 L1.21875,14.765625 L7.625,14.765625 C6.265625,11.765625 3.28125,8.09375 0.453125,5.859375 L0.75,5.59375 C2.1875,6.453125 3.625,7.578125 4.9375,8.859375 L4.9375,-1.875 L5.203125,-1.875 C5.953125,-1.875 6.5,-1.484375 6.5,-1.3125 L6.5,10.21875 C7.484375,9.40625 8.59375,8.1875 9,7.21875 C10.53125,6.3125 11.5,9.3125 6.703125,10.6875 C7.796875,11.921875 8.734375,13.25 9.390625,14.5 C9.953125,14.546875 10.25,14.59375 10.46875,14.765625 L8.78125,16.484375 L7.734375,15.453125 L6.359375,15.453125 L6.359375,19.15625 C6.953125,19.21875 7.203125,19.46875 7.25,19.796875 L4.828125,20.046875 L4.828125,15.453125 Z" transform="translate(0.1796875, 20.046875) scale(1, -1)"/>
</svg>