<svg height="21.921875" viewBox="0 0 24 21.921875" width="24" xmlns="http://www.w3.org/2000/svg">
<path d="M8.015625,-0.265625 L8.203125,-0.953125 L22.625,-0.953125 C22.984375,-0.953125 23.1875,-0.84375 23.25,-0.578125 C22.484375,0.171875 21.234375,1.171875 21.234375,1.171875 L20.109375,-0.265625 L17.203125,-0.265625 L17.203125,10.46875 L22.078125,10.46875 C22.421875,10.46875 22.625,10.578125 22.703125,10.84375 C21.9375,11.609375 20.71875,12.625 20.71875,12.625 L19.625,11.1875 L17.203125,11.1875 L17.203125,18.8125 C17.8125,18.90625 18.03125,19.15625 18.078125,19.484375 L15.640625,19.78125 L15.640625,-0.265625 L12.625,-0.265625 L12.625,13.296875 C13.203125,13.390625 13.4375,13.625 13.515625,13.96875 L11.09375,14.234375 L11.09375,-0.265625 Z M1.109375,15.453125 L1.3125,14.765625 L7.46875,14.765625 C6.125,11.765625 3.265625,8.09375 0.53125,5.859375 L0.84375,5.59375 C2.25,6.484375 3.671875,7.65625 4.96875,8.953125 L4.96875,-1.875 L5.234375,-1.875 C5.96875,-1.875 6.53125,-1.484375 6.53125,-1.3125 L6.53125,10.109375 C7.4375,9.28125 8.375,8.15625 8.6875,7.25 C10.21875,6.28125 11.234375,9.234375 6.578125,10.703125 C7.65625,11.953125 8.5625,13.265625 9.1875,14.515625 C9.765625,14.546875 10.0625,14.59375 10.265625,14.765625 L8.59375,16.46875 L7.53125,15.453125 L6.4375,15.453125 L6.4375,19.15625 C7.03125,19.21875 7.265625,19.46875 7.3125,19.796875 L4.921875,20.046875 L4.921875,15.453125 Z" transform="translate(0.109375, 20.046875) scale(1, -1)"/>
</svg>