<svg height="22.015625" viewBox="0 0 24 22.015625" width="24" xmlns="http://www.w3.org/2000/svg">
<path d="M12.859375,18.34375 L12.859375,-1.921875 L13.125,-1.921875 C13.921875,-1.921875 14.46875,-1.46875 14.46875,-1.34375 L14.46875,17.71875 L19.6875,17.71875 C18.859375,15.59375 17.546875,12.5 16.734375,10.875 C19.421875,8.828125 20.5,6.890625 20.5,5.015625 C20.5,3.984375 20.15625,3.4375 19.5625,3.171875 C19.296875,3.03125 19.125,3 18.796875,3 C18.1875,3 16.75,3 15.9375,3 L15.9375,2.609375 C16.75,2.546875 17.453125,2.40625 17.71875,2.203125 C17.96875,1.984375 18.09375,1.484375 18.09375,0.90625 C21.078125,1.0625 22.15625,2.296875 22.15625,4.609375 C22.15625,6.640625 20.828125,8.90625 17.328125,10.9375 C18.59375,12.484375 20.515625,15.53125 21.546875,17.203125 C22.109375,17.203125 22.484375,17.28125 22.6875,17.46875 L20.734375,19.390625 L19.6875,18.40625 L14.59375,18.40625 L12.859375,19.125 Z M1.21875,15.484375 L1.4375,14.78125 L8.5625,14.78125 C7.03125,11.6875 3.796875,8.046875 0.671875,5.875 L0.9375,5.59375 C2.46875,6.4375 4.015625,7.515625 5.421875,8.734375 L5.421875,-1.84375 L5.6875,-1.84375 C6.453125,-1.84375 7.015625,-1.375 7.015625,-1.21875 L7.015625,9.890625 C8.25,8.859375 9.75,7.34375 10.265625,6.171875 C11.96875,5.15625 12.890625,8.5 7.15625,10.34375 C8.46875,11.71875 9.578125,13.125 10.34375,14.515625 C10.921875,14.546875 11.234375,14.59375 11.421875,14.78125 L9.71875,16.484375 L8.640625,15.484375 L6.9375,15.484375 L6.9375,19.171875 C7.53125,19.265625 7.78125,19.515625 7.828125,19.84375 L5.375,20.09375 L5.375,15.484375 Z" transform="translate(0.3203125, 20.09375) scale(1, -1)"/>
</svg>