<svg height="21.9375" viewBox="0 0 24 21.9375" width="24" xmlns="http://www.w3.org/2000/svg">
<path d="M12.28125,10.53125 L12.28125,17.8125 L19.6875,17.8125 L19.6875,10.53125 Z M19.46875,18.53125 L19.6875,18.5 L12.40625,18.5 L10.75,19.25 L10.75,8.828125 L10.984375,8.828125 C11.640625,8.828125 12.28125,9.21875 12.28125,9.359375 L12.28125,9.84375 L12.953125,9.84375 C12.84375,4.609375 11.953125,1.25 7.515625,-1.5625 L7.6875,-1.890625 C13.109375,0.453125 14.375,3.953125 14.640625,9.84375 L16.703125,9.84375 L16.703125,-0.046875 C16.703125,-1.15625 16.96875,-1.5625 18.453125,-1.5625 L20.046875,-1.5625 C22.609375,-1.5625 23.234375,-1.296875 23.234375,-0.625 C23.234375,-0.34375 23.140625,-0.140625 22.6875,0.046875 L22.609375,3.9375 L22.265625,3.9375 C22.015625,2.375 21.71875,0.59375 21.578125,0.1875 C21.5,-0.046875 21.40625,-0.09375 21.234375,-0.125 C21.046875,-0.140625 20.609375,-0.140625 20.046875,-0.140625 L18.84375,-0.140625 C18.28125,-0.140625 18.21875,-0.046875 18.21875,0.3125 L18.21875,9.84375 L19.6875,9.84375 L19.6875,9.140625 L19.921875,9.140625 C20.40625,9.140625 21.21875,9.453125 21.234375,9.578125 L21.234375,17.5625 C21.640625,17.65625 22.015625,17.859375 22.15625,18.03125 L20.296875,19.4375 Z M7.34375,19.78125 L4.921875,20.046875 L4.921875,15.453125 L1.109375,15.453125 L1.3125,14.765625 L7.46875,14.765625 C6.125,11.765625 3.265625,8.109375 0.53125,5.859375 L0.84375,5.59375 C2.25,6.484375 3.671875,7.65625 4.96875,8.921875 L4.96875,-1.875 L5.234375,-1.875 C6,-1.875 6.53125,-1.46875 6.53125,-1.3125 L6.53125,10.078125 C7.421875,9.28125 8.375,8.140625 8.734375,7.25 C10.265625,6.3125 11.234375,9.265625 6.578125,10.65625 C7.65625,11.921875 8.5625,13.25 9.21875,14.5 C9.765625,14.515625 10.078125,14.5625 10.296875,14.734375 L8.59375,16.46875 L7.53125,15.453125 L6.453125,15.453125 L6.453125,19.125 C7.0625,19.203125 7.296875,19.4375 7.34375,19.78125 Z" transform="translate(0.1171875, 20.046875) scale(1, -1)"/>
</svg>