<svg height="21.921875" viewBox="0 0 24 21.921875" width="24" xmlns="http://www.w3.org/2000/svg">
<path d="M12.859375,11.59375 L18.953125,11.59375 L18.953125,6.09375 L12.859375,6.09375 Z M12.859375,12.28125 L12.859375,17.609375 L18.953125,17.609375 L18.953125,12.28125 Z M12.859375,5.40625 L18.953125,5.40625 L18.953125,-0.5 L12.859375,-0.5 Z M11.375,18.28125 L11.375,-0.5 L8.140625,-0.5 L8.328125,-1.203125 L22.796875,-1.203125 C23.109375,-1.203125 23.328125,-1.078125 23.375,-0.8125 C22.828125,-0.125 21.796875,0.890625 21.796875,0.890625 L20.90625,-0.5 L20.46875,-0.5 L20.46875,17.359375 C21.078125,17.421875 21.390625,17.546875 21.578125,17.78125 L19.515625,19.390625 L18.671875,18.28125 L13.15625,18.28125 L11.375,19.078125 Z M1.109375,15.453125 L1.3125,14.765625 L7.46875,14.765625 C6.125,11.734375 3.28125,8.0625 0.53125,5.8125 L0.8125,5.546875 C2.234375,6.4375 3.671875,7.609375 4.96875,8.90625 L4.96875,-1.875 L5.234375,-1.875 C5.96875,-1.875 6.53125,-1.484375 6.53125,-1.3125 L6.53125,10.078125 C7.421875,9.21875 8.375,8.015625 8.65625,7.0625 C10.15625,6.046875 11.203125,9 6.59375,10.65625 C7.65625,11.921875 8.5625,13.25 9.1875,14.515625 C9.765625,14.546875 10.0625,14.59375 10.265625,14.765625 L8.609375,16.46875 L7.53125,15.453125 L6.4375,15.453125 L6.4375,19.15625 C7.03125,19.21875 7.265625,19.46875 7.3125,19.796875 L4.921875,20.046875 L4.921875,15.453125 Z" transform="translate(0.046875, 20.046875) scale(1, -1)"/>
</svg>