<svg height="21.96875" viewBox="0 0 24 21.96875" width="24" xmlns="http://www.w3.org/2000/svg">
<path d="M1.109375,15.453125 L1.3125,14.765625 L7.46875,14.765625 C6.125,11.765625 3.265625,8.09375 0.53125,5.859375 L0.84375,5.59375 C2.25,6.484375 3.671875,7.65625 4.96875,8.953125 L4.96875,-1.875 L5.234375,-1.875 C5.96875,-1.875 6.53125,-1.484375 6.53125,-1.3125 L6.53125,10.109375 C7.4375,9.28125 8.40625,8.15625 8.734375,7.25 C10.265625,6.3125 11.234375,9.265625 6.578125,10.6875 C7.65625,11.953125 8.5625,13.265625 9.1875,14.515625 C9.71875,14.546875 10.015625,14.59375 10.203125,14.71875 L10.265625,14.46875 L13.25,14.46875 C12.390625,10.109375 10.703125,5.765625 7.65625,2.6875 L7.96875,2.46875 C9.859375,3.890625 11.28125,5.65625 12.390625,7.609375 L12.390625,-1.65625 L12.625,-1.65625 C13.421875,-1.65625 13.890625,-1.265625 13.890625,-1.125 L13.890625,0.171875 L19.984375,0.171875 L19.984375,-1.53125 L20.25,-1.53125 C20.96875,-1.53125 21.578125,-1.15625 21.578125,-1.015625 L21.578125,8.28125 C22.0625,8.359375 22.34375,8.515625 22.515625,8.6875 L20.546875,10.203125 L19.796875,9.21875 L14.1875,9.21875 L13.375,9.578125 C14.0625,11.1875 14.59375,12.84375 14.96875,14.46875 L22.484375,14.46875 C22.828125,14.46875 23.09375,14.59375 23.140625,14.859375 C22.34375,15.59375 21.046875,16.609375 21.046875,16.609375 L19.890625,15.171875 L15.140625,15.171875 C15.453125,16.53125 15.671875,17.859375 15.84375,19.125 C16.53125,19.203125 16.75,19.390625 16.828125,19.734375 L13.984375,20.09375 C13.875,18.5 13.703125,16.84375 13.390625,15.171875 L10.078125,15.171875 L10.15625,14.875 L8.609375,16.46875 L7.53125,15.453125 L6.4375,15.453125 L6.4375,19.15625 C7.03125,19.21875 7.265625,19.46875 7.3125,19.796875 L4.921875,20.046875 L4.921875,15.453125 Z M19.984375,0.859375 L13.890625,0.859375 L13.890625,8.546875 L19.984375,8.546875 Z" transform="translate(0.1640625, 20.09375) scale(1, -1)"/>
</svg>