<svg height="22.015625" viewBox="0 0 24 22.015625" width="24" xmlns="http://www.w3.org/2000/svg">
<path d="M11.59375,19.96875 L11.296875,19.828125 C12.09375,18.703125 13.078125,16.890625 13.25,15.5 C14.828125,14.15625 16.34375,17.546875 11.59375,19.96875 Z M10.390625,14.90625 L10.5625,14.1875 L15.40625,14.1875 L15.40625,10.34375 L10.53125,10.34375 L10.734375,9.625 L15.40625,9.625 L15.40625,5.0625 L9.4375,5.0625 L9.625,4.34375 L15.40625,4.34375 L15.40625,-1.828125 L15.671875,-1.828125 C16.484375,-1.828125 16.984375,-1.4375 16.984375,-1.3125 L16.984375,4.34375 L22.65625,4.34375 C22.96875,4.34375 23.203125,4.46875 23.28125,4.734375 C22.484375,5.453125 21.265625,6.40625 21.265625,6.40625 L20.140625,5.0625 L16.984375,5.0625 L16.984375,9.625 L21.796875,9.625 C22.125,9.625 22.375,9.75 22.4375,10.015625 C21.640625,10.703125 20.453125,11.65625 20.453125,11.65625 L19.390625,10.34375 L16.984375,10.34375 L16.984375,14.1875 L22.3125,14.1875 C22.65625,14.1875 22.890625,14.296875 22.9375,14.5625 C22.203125,15.265625 20.96875,16.21875 20.96875,16.21875 L19.890625,14.90625 L17.765625,14.90625 C18.8125,16.171875 19.921875,17.8125 20.609375,18.984375 C21.125,18.984375 21.40625,19.171875 21.5,19.484375 L19.03125,20.140625 C18.59375,18.578125 17.875,16.4375 17.203125,14.90625 Z M1.109375,15.453125 L1.3125,14.765625 L7.46875,14.765625 C6.125,11.765625 3.265625,8.09375 0.53125,5.859375 L0.84375,5.59375 C2.25,6.484375 3.671875,7.65625 4.96875,8.953125 L4.96875,-1.875 L5.234375,-1.875 C5.96875,-1.875 6.53125,-1.484375 6.53125,-1.3125 L6.53125,10.109375 C7.4375,9.28125 8.40625,8.15625 8.734375,7.25 C10.265625,6.3125 11.234375,9.265625 6.578125,10.6875 C7.65625,11.953125 8.5625,13.265625 9.1875,14.515625 C9.765625,14.546875 10.0625,14.59375 10.265625,14.765625 L8.609375,16.46875 L7.53125,15.453125 L6.4375,15.453125 L6.4375,19.15625 C7.03125,19.21875 7.265625,19.46875 7.3125,19.796875 L4.921875,20.046875 L4.921875,15.453125 Z" transform="translate(0.09375, 20.140625) scale(1, -1)"/>
</svg>