<svg height="21.921875" viewBox="0 0 24 21.921875" width="24" xmlns="http://www.w3.org/2000/svg">
<path d="M12.484375,5.40625 L12.34375,5.28125 L12.9375,6.4375 L18.125,6.4375 L18.125,0.484375 C18.125,0.140625 18.03125,0 17.59375,0 C17.09375,0 14.640625,0.1875 14.640625,0.1875 L14.640625,-0.1875 C15.703125,-0.34375 16.296875,-0.484375 16.65625,-0.75 C16.96875,-1.015625 17.09375,-1.390625 17.1875,-1.875 C19.390625,-1.625 19.65625,-0.890625 19.65625,0.390625 L19.65625,6.4375 L22.515625,6.4375 C22.84375,6.4375 23.09375,6.546875 23.140625,6.8125 C22.4375,7.515625 21.3125,8.453125 21.3125,8.453125 L20.328125,7.15625 L19.65625,7.15625 L19.65625,8.859375 C20.1875,8.921875 20.421875,9.125 20.5,9.453125 L18.125,9.71875 L18.125,7.15625 L13.265625,7.15625 C13.734375,8.15625 14.09375,9.21875 14.40625,10.265625 L22.484375,10.265625 C22.828125,10.265625 23.0625,10.390625 23.140625,10.625 C22.34375,11.359375 21.125,12.34375 21.125,12.34375 L19.984375,10.9375 L14.5625,10.9375 C14.78125,11.78125 14.953125,12.640625 15.125,13.484375 L21.484375,13.484375 C21.796875,13.484375 22.015625,13.609375 22.078125,13.84375 C21.3125,14.546875 20.140625,15.40625 20.140625,15.40625 L19.078125,14.1875 L15.21875,14.1875 C15.359375,14.96875 15.453125,15.796875 15.53125,16.578125 L22.0625,16.578125 C22.390625,16.578125 22.625,16.703125 22.703125,16.9375 C21.90625,17.6875 20.6875,18.625 20.6875,18.625 L19.625,17.28125 L15.59375,17.28125 L15.75,19.171875 C16.53125,19.25 16.734375,19.46875 16.78125,19.828125 L14.046875,20.046875 C14.015625,19.125 13.984375,18.21875 13.9375,17.28125 L9.234375,17.28125 L9.4375,16.578125 L13.875,16.578125 C13.828125,15.796875 13.75,14.96875 13.625,14.1875 L9.890625,14.1875 L10.078125,13.484375 L13.53125,13.484375 C13.421875,12.625 13.25,11.78125 13.0625,10.9375 L8.65625,10.9375 L8.859375,10.265625 L12.90625,10.265625 C12.640625,9.1875 12.3125,8.15625 11.921875,7.15625 L8.875,7.15625 L9.046875,6.4375 L11.609375,6.4375 C10.609375,4.0625 9.171875,1.9375 7.171875,0.234375 L7.484375,-0.03125 C9.546875,1.390625 11.109375,3.171875 12.265625,5.140625 C13.171875,4.390625 14.203125,3.09375 14.46875,2.046875 C16.078125,0.9375 17.296875,4.171875 12.484375,5.40625 Z M1.109375,15.453125 L1.3125,14.765625 L6.765625,14.765625 C5.546875,11.875 2.921875,8.25 0.453125,6.046875 L0.765625,5.78125 C2.015625,6.640625 3.28125,7.734375 4.4375,8.921875 L4.4375,-1.84375 L4.6875,-1.84375 C5.421875,-1.84375 5.953125,-1.46875 5.953125,-1.3125 L5.953125,10.109375 C6.71875,9.3125 7.515625,8.234375 7.78125,7.3125 C9.21875,6.390625 10.265625,9.1875 5.96875,10.6875 C7.015625,11.953125 7.890625,13.265625 8.5,14.515625 C9.046875,14.546875 9.34375,14.59375 9.546875,14.765625 L7.875,16.46875 L6.84375,15.453125 L5.96875,15.453125 L5.96875,19.15625 C6.546875,19.21875 6.796875,19.46875 6.84375,19.796875 L4.484375,20.046875 L4.484375,15.453125 Z" transform="translate(0.203125, 20.046875) scale(1, -1)"/>
</svg>