<svg height="21.921875" viewBox="0 0 24 21.921875" width="24" xmlns="http://www.w3.org/2000/svg">
<path d="M9.359375,18.5 L9.546875,17.8125 L22.3125,17.8125 C22.65625,17.8125 22.890625,17.921875 22.9375,18.1875 C22.171875,18.890625 20.921875,19.875 20.921875,19.875 L19.828125,18.5 Z M10.875,15.625 L10.875,9.859375 L11.109375,9.859375 C11.875,9.859375 12.359375,10.203125 12.359375,10.3125 L12.359375,10.890625 L19.25,10.890625 L19.25,10.0625 L19.515625,10.0625 C20.1875,10.0625 20.765625,10.390625 20.765625,10.484375 L20.765625,14.859375 C21.234375,14.953125 21.484375,15.078125 21.625,15.21875 L19.921875,16.53125 L19.171875,15.625 L12.625,15.625 L10.875,16.390625 Z M12.359375,11.609375 L12.359375,14.953125 L19.25,14.953125 L19.25,11.609375 Z M11.15625,3.953125 L15.03125,3.953125 L15.03125,0.40625 L11.15625,0.40625 Z M11.15625,4.65625 L11.15625,7.84375 L15.03125,7.84375 L15.03125,4.65625 Z M20.46875,3.953125 L20.46875,0.40625 L16.515625,0.40625 L16.515625,3.953125 Z M20.46875,4.65625 L16.515625,4.65625 L16.515625,7.84375 L20.46875,7.84375 Z M9.703125,8.5625 L9.703125,-1.875 L9.9375,-1.875 C10.703125,-1.875 11.15625,-1.515625 11.15625,-1.390625 L11.15625,-0.28125 L20.46875,-0.28125 L20.46875,-1.734375 L20.71875,-1.734375 C21.4375,-1.734375 22.015625,-1.375 22.015625,-1.25 L22.015625,7.75 C22.515625,7.828125 22.78125,7.9375 22.921875,8.15625 L21.1875,9.484375 L20.40625,8.5625 L11.453125,8.5625 L9.703125,9.3125 Z M1.109375,15.453125 L1.3125,14.765625 L6.765625,14.765625 C5.546875,11.875 2.921875,8.25 0.453125,6.046875 L0.765625,5.78125 C2.015625,6.640625 3.28125,7.734375 4.4375,8.921875 L4.4375,-1.84375 L4.6875,-1.84375 C5.421875,-1.84375 5.953125,-1.46875 5.953125,-1.3125 L5.953125,10.109375 C6.71875,9.3125 7.515625,8.234375 7.78125,7.3125 C9.21875,6.390625 10.265625,9.1875 5.96875,10.6875 C7.015625,11.953125 7.890625,13.265625 8.5,14.515625 C9.046875,14.546875 9.34375,14.59375 9.546875,14.765625 L7.84375,16.46875 L6.8125,15.453125 L5.96875,15.453125 L5.96875,19.15625 C6.546875,19.21875 6.796875,19.46875 6.84375,19.796875 L4.484375,20.046875 L4.484375,15.453125 Z" transform="translate(0.3046875, 20.046875) scale(1, -1)"/>
</svg>