<svg height="21.921875" viewBox="0 0 24 21.921875" width="24" xmlns="http://www.w3.org/2000/svg">
<path d="M9.859375,9.546875 L9.59375,9.34375 C10.53125,8.515625 11.59375,7.03125 11.78125,5.828125 C13.265625,4.6875 14.546875,7.9375 9.859375,9.546875 Z M20.734375,9.984375 C20.15625,9.03125 18.859375,7.296875 17.8125,6.09375 C17.234375,7.15625 16.78125,8.40625 16.484375,9.9375 L16.484375,11.140625 L22.65625,11.140625 C22.984375,11.140625 23.1875,11.25 23.25,11.515625 C22.625,12.234375 21.5,13.34375 21.5,13.34375 L20.546875,11.828125 L19.875,11.828125 L19.875,17.71875 C20.359375,17.8125 20.765625,18 20.921875,18.21875 L18.984375,19.703125 L18.078125,18.703125 L10.15625,18.703125 L10.375,18.03125 L18.3125,18.03125 L18.3125,15.265625 L10.796875,15.265625 L11.015625,14.59375 L18.3125,14.59375 L18.3125,11.828125 L8.78125,11.828125 L8.953125,11.140625 L14.953125,11.140625 L14.953125,5.59375 C11.953125,3.984375 9,2.453125 7.75,1.921875 L9.046875,0.21875 C9.21875,0.359375 9.359375,0.59375 9.390625,0.890625 C11.765625,2.5625 13.625,4.0625 14.953125,5.09375 L14.953125,0.34375 C14.953125,0.03125 14.859375,-0.09375 14.453125,-0.09375 C14.015625,-0.09375 12,0.046875 12,0.046875 L12,-0.3125 C12.953125,-0.40625 13.46875,-0.59375 13.78125,-0.84375 C14.046875,-1.0625 14.140625,-1.46875 14.1875,-1.875 C16.203125,-1.6875 16.484375,-0.890625 16.484375,0.3125 L16.484375,8.109375 C17.453125,3.640625 19.21875,1.46875 21.9375,-0.28125 C22.15625,0.484375 22.609375,1.0625 23.234375,1.171875 L23.25,1.421875 C21.265625,2.28125 19.375,3.5 18.03125,5.734375 C19.421875,6.578125 20.921875,7.6875 21.75,8.40625 C22.203125,8.203125 22.5625,8.375 22.6875,8.5625 Z M1.109375,15.453125 L1.3125,14.765625 L6.765625,14.765625 C5.546875,11.875 2.921875,8.25 0.453125,6.046875 L0.765625,5.78125 C2.015625,6.640625 3.28125,7.734375 4.4375,8.921875 L4.4375,-1.84375 L4.6875,-1.84375 C5.421875,-1.84375 5.953125,-1.46875 5.953125,-1.3125 L5.953125,10.109375 C6.71875,9.3125 7.515625,8.234375 7.78125,7.3125 C9.21875,6.390625 10.265625,9.1875 5.96875,10.6875 C7.015625,11.953125 7.890625,13.265625 8.5,14.515625 C9.046875,14.546875 9.34375,14.59375 9.546875,14.765625 L7.875,16.46875 L6.84375,15.453125 L5.96875,15.453125 L5.96875,19.15625 C6.546875,19.21875 6.796875,19.46875 6.84375,19.796875 L4.484375,20.046875 L4.484375,15.453125 Z" transform="translate(0.1484375, 20.046875) scale(1, -1)"/>
</svg>