<svg height="21.96875" viewBox="0 0 24 21.96875" width="24" xmlns="http://www.w3.org/2000/svg">
<path d="M9.1875,10.796875 L9.1875,-1.84375 L9.4375,-1.84375 C10.078125,-1.84375 10.65625,-1.484375 10.65625,-1.3125 L10.65625,10.109375 L20.6875,10.109375 L20.6875,0.140625 C20.6875,-0.09375 20.5625,-0.171875 20.234375,-0.171875 C19.3125,-0.171875 17.734375,-0.078125 17.734375,-0.078125 L17.734375,-0.390625 C18.625,-0.5 19.25,-0.71875 19.515625,-0.9375 C19.75,-1.171875 19.890625,-1.484375 19.890625,-1.921875 C21.859375,-1.796875 22.171875,-1.078125 22.171875,0.046875 L22.171875,9.71875 C22.53125,9.796875 22.921875,10.015625 23.09375,10.171875 L21.578125,11.640625 L21,10.796875 L20.234375,10.796875 L20.234375,17.609375 C20.8125,17.65625 21.140625,17.8125 21.328125,18.046875 L19.296875,19.5625 L18.484375,18.5 L12.84375,18.5 L11.140625,19.25 L11.140625,10.796875 L10.78125,10.796875 L9.1875,11.546875 Z M15.03125,15.234375 L15.03125,10.796875 L12.578125,10.796875 L12.578125,17.8125 L18.765625,17.8125 L18.765625,15.234375 L16.625,15.234375 L15.03125,15.953125 Z M18.765625,10.796875 L16.296875,10.796875 L16.296875,14.546875 L18.765625,14.546875 Z M12.796875,7.84375 L12.796875,0.84375 L12.984375,0.84375 C13.53125,0.84375 14.046875,1.109375 14.046875,1.25 L14.046875,2.453125 L17.359375,2.453125 L17.359375,1.296875 L17.546875,1.296875 C17.953125,1.296875 18.59375,1.609375 18.625,1.75 L18.625,7.0625 C18.953125,7.109375 19.265625,7.265625 19.390625,7.421875 L17.875,8.59375 L17.1875,7.84375 L14.15625,7.84375 L12.796875,8.5 Z M17.359375,3.140625 L14.046875,3.140625 L14.046875,7.171875 L17.359375,7.171875 Z M1.25,15.453125 L1.46875,14.765625 L6.890625,14.765625 C5.65625,11.828125 3.03125,8.25 0.453125,6.046875 L0.75,5.78125 C1.96875,6.578125 3.1875,7.578125 4.3125,8.71875 L4.3125,-1.84375 L4.578125,-1.84375 C5.296875,-1.84375 5.828125,-1.46875 5.828125,-1.3125 L5.828125,10.0625 C6.59375,9.21875 7.375,8.109375 7.609375,7.203125 C9.03125,6.234375 10.109375,8.953125 6.046875,10.609375 C7.109375,11.90625 7.984375,13.25 8.609375,14.515625 C9.140625,14.546875 9.453125,14.609375 9.671875,14.765625 L7.984375,16.46875 L6.984375,15.453125 L5.875,15.453125 L5.875,19.15625 C6.453125,19.21875 6.703125,19.46875 6.75,19.796875 L4.375,20.046875 L4.375,15.453125 Z" transform="translate(0.2265625, 20.046875) scale(1, -1)"/>
</svg>