<svg height="21.5625" viewBox="0 0 24 21.5625" width="24" xmlns="http://www.w3.org/2000/svg">
<path d="M1.9375,11.25 L1.9375,7.6875 C1.9375,5.546875 1.84375,2.8125 0.984375,0.8125 L1.375,0.546875 C2.90625,2.546875 3.171875,5.46875 3.171875,7.65625 L3.171875,10.4375 C3.765625,10.484375 3.9375,10.703125 3.984375,11.015625 Z M7.5625,11.28125 L7.5625,1.65625 L7.796875,1.65625 C8.296875,1.65625 8.875,1.984375 8.875,2.1875 L8.875,10.46875 C9.390625,10.53125 9.59375,10.75 9.640625,11.0625 Z M1.625,18.28125 L1.828125,17.5625 L8.765625,17.5625 C9.09375,17.5625 9.34375,17.6875 9.40625,17.953125 C8.59375,18.671875 7.3125,19.65625 7.3125,19.65625 L6.234375,18.28125 Z M10.828125,12.5 L10.828125,4.109375 L11.0625,4.109375 C11.8125,4.109375 12.28125,4.4375 12.28125,4.578125 L12.28125,5.421875 L15.359375,5.421875 L15.359375,3.046875 L9.53125,3.046875 L9.71875,2.359375 L15.359375,2.359375 L15.359375,-1.875 L15.59375,-1.875 C16.375,-1.875 16.875,-1.515625 16.875,-1.390625 L16.875,2.359375 L22.625,2.359375 C22.9375,2.359375 23.15625,2.453125 23.234375,2.71875 C22.53125,3.4375 21.328125,4.34375 21.328125,4.34375 L20.359375,3.046875 L16.875,3.046875 L16.875,5.421875 L19.921875,5.421875 L19.921875,4.4375 L20.15625,4.4375 C20.859375,4.4375 21.40625,4.796875 21.40625,4.921875 L21.40625,11.6875 C21.890625,11.78125 22.125,11.921875 22.296875,12.078125 L20.59375,13.421875 L19.84375,12.5 L12.546875,12.5 L10.828125,13.25 Z M10.109375,18.859375 L10.109375,13.34375 L10.3125,13.34375 C10.984375,13.34375 11.421875,13.65625 11.421875,13.75 L11.421875,14.546875 L14.15625,14.546875 L14.15625,13.53125 L14.359375,13.53125 C14.96875,13.53125 15.5,13.84375 15.5,13.9375 L15.5,18.09375 C15.953125,18.171875 16.203125,18.28125 16.34375,18.453125 L14.78125,19.65625 L14.09375,18.859375 L11.71875,18.859375 L10.109375,19.5625 Z M11.421875,15.234375 L11.421875,18.171875 L14.15625,18.171875 L14.15625,15.234375 Z M12.28125,8.609375 L15.359375,8.609375 L15.359375,6.125 L12.28125,6.125 Z M12.28125,9.3125 L12.28125,11.8125 L15.359375,11.8125 L15.359375,9.3125 Z M19.921875,8.609375 L19.921875,6.125 L16.875,6.125 L16.875,8.609375 Z M19.921875,9.3125 L16.875,9.3125 L16.875,11.8125 L19.921875,11.8125 Z M16.9375,18.859375 L16.9375,13.375 L17.140625,13.375 C17.859375,13.375 18.28125,13.6875 18.28125,13.78125 L18.28125,14.546875 L20.921875,14.546875 L20.921875,13.5625 L21.171875,13.5625 C21.765625,13.5625 22.3125,13.875 22.3125,13.96875 L22.3125,18.09375 C22.75,18.171875 22.984375,18.28125 23.15625,18.453125 L21.546875,19.6875 L20.875,18.859375 L18.546875,18.859375 L16.9375,19.5625 Z M18.28125,15.234375 L18.28125,18.171875 L20.921875,18.171875 L20.921875,15.234375 Z M1.015625,13.984375 L1.203125,13.296875 L4.703125,13.296875 L4.703125,-1.828125 L4.9375,-1.828125 C5.6875,-1.828125 6.140625,-1.46875 6.140625,-1.34375 L6.140625,13.296875 L9.4375,13.296875 C9.765625,13.296875 10.015625,13.421875 10.0625,13.6875 C9.3125,14.40625 8.109375,15.40625 8.109375,15.40625 L7.0625,13.984375 Z" transform="translate(-0.109375, 19.6875) scale(1, -1)"/>
</svg>