<svg height="21.9375" viewBox="0 0 24 21.9375" width="24" xmlns="http://www.w3.org/2000/svg">
<path d="M18,17.0625 L17.78125,16.796875 C19.109375,16.125 20.921875,14.765625 21.640625,13.703125 C23.25,13.078125 23.59375,16.203125 18,17.0625 Z M9.453125,13.203125 L9.453125,-1.890625 L9.703125,-1.890625 C10.34375,-1.890625 10.875,-1.53125 10.875,-1.375 L10.875,12.484375 L14.96875,12.484375 L14.96875,10.96875 L13.421875,11.609375 C13.265625,11.140625 13.078125,10.53125 12.8125,9.9375 C12.390625,10.171875 11.859375,10.390625 11.203125,10.578125 L10.96875,10.3125 C11.453125,10.03125 12,9.625 12.484375,9.171875 C12.078125,8.28125 11.59375,7.421875 11.0625,6.71875 L11.375,6.390625 C12,7.015625 12.59375,7.78125 13.078125,8.546875 C13.421875,8.15625 13.65625,7.796875 13.796875,7.4375 C14.6875,6.9375 15.21875,8.234375 13.625,9.4375 L14.25,10.609375 C14.640625,10.5625 14.859375,10.578125 14.96875,10.75 L14.96875,5.46875 L13.390625,6.09375 C13.25,5.5625 13.0625,4.96875 12.84375,4.3125 C12.390625,4.5625 11.859375,4.78125 11.203125,4.96875 L10.96875,4.734375 C11.46875,4.4375 12.03125,4.015625 12.5,3.53125 C12.09375,2.5 11.5625,1.46875 10.984375,0.640625 L11.328125,0.34375 C12,1.078125 12.625,1.984375 13.125,2.875 C13.421875,2.515625 13.65625,2.15625 13.796875,1.84375 C14.6875,1.3125 15.21875,2.609375 13.625,3.84375 C13.875,4.296875 14.0625,4.75 14.234375,5.15625 C14.65625,5.09375 14.875,5.109375 14.96875,5.28125 L14.96875,-1.609375 L15.171875,-1.609375 C15.84375,-1.609375 16.296875,-1.265625 16.296875,-1.15625 L16.296875,4.703125 C16.796875,4.390625 17.359375,3.953125 17.859375,3.484375 C17.46875,2.515625 17.015625,1.578125 16.515625,0.8125 L16.828125,0.5 C17.453125,1.171875 18,2.015625 18.453125,2.828125 C18.75,2.5 18.953125,2.15625 19.109375,1.84375 C19.984375,1.34375 20.515625,2.59375 18.984375,3.796875 C19.203125,4.265625 19.421875,4.734375 19.5625,5.140625 C20.109375,5.0625 20.296875,5.15625 20.453125,5.421875 L18.71875,6.09375 C18.578125,5.5625 18.40625,4.96875 18.171875,4.3125 C17.71875,4.5625 17.1875,4.78125 16.515625,4.96875 L16.296875,4.75 L16.296875,10.296875 C16.78125,10.03125 17.296875,9.625 17.765625,9.171875 C17.375,8.28125 16.890625,7.421875 16.375,6.71875 L16.6875,6.390625 C17.296875,7.015625 17.875,7.75 18.390625,8.515625 C18.703125,8.15625 18.953125,7.78125 19.109375,7.4375 C19.984375,6.9375 20.515625,8.203125 18.9375,9.4375 L19.5625,10.609375 C20.09375,10.53125 20.28125,10.625 20.421875,10.890625 L18.703125,11.609375 C18.546875,11.140625 18.359375,10.5625 18.125,9.953125 C17.65625,10.171875 17.140625,10.390625 16.515625,10.578125 L16.296875,10.34375 L16.296875,12.484375 L20.46875,12.484375 L20.46875,0.4375 C20.46875,0.09375 20.359375,-0.03125 19.96875,-0.03125 C19.53125,-0.03125 17.5625,0.125 17.5625,0.125 L17.5625,-0.265625 C18.453125,-0.390625 18.984375,-0.546875 19.265625,-0.796875 C19.5625,-1.015625 19.65625,-1.421875 19.703125,-1.84375 C21.640625,-1.625 21.890625,-0.890625 21.890625,0.265625 L21.890625,12.234375 C22.34375,12.3125 22.734375,12.5 22.875,12.703125 L20.96875,14.09375 L20.234375,13.203125 L16.34375,13.203125 L16.34375,17.78125 L22.515625,17.78125 C22.84375,17.78125 23.09375,17.90625 23.140625,18.171875 C22.3125,18.90625 20.96875,19.890625 20.96875,19.890625 L19.78125,18.453125 L8.46875,18.453125 L8.65625,17.78125 L14.921875,17.78125 L14.921875,13.203125 L10.984375,13.203125 L9.890625,13.734375 C11.1875,14.453125 12.4375,15.34375 13.21875,16.078125 C13.75,15.9375 13.9375,16.0625 14.109375,16.265625 L12.21875,17.359375 C11.421875,16.171875 9.8125,14.46875 8.359375,13.4375 L8.640625,13.109375 L9.453125,13.484375 Z M0.9375,15.1875 L1.15625,14.5 L6.640625,14.5 C5.5,11.5 3.125,7.703125 0.71875,5.421875 L1.015625,5.140625 C2.046875,5.90625 3.078125,6.84375 4.015625,7.875 L4.015625,-1.84375 L4.265625,-1.84375 C4.96875,-1.84375 5.5,-1.46875 5.5,-1.3125 L5.5,8.8125 C6.4375,7.9375 7.53125,6.671875 7.921875,5.6875 C9.453125,4.734375 10.515625,7.703125 5.5,9.265625 L5.5,9.625 C6.671875,11.140625 7.65625,12.75 8.28125,14.234375 C8.859375,14.25 9.140625,14.296875 9.34375,14.5 L7.609375,16.171875 L6.59375,15.1875 L5.515625,15.1875 L5.515625,19.15625 C6.09375,19.21875 6.34375,19.46875 6.390625,19.796875 L4.03125,20.046875 L4.03125,15.1875 Z" transform="translate(0.0703125, 20.046875) scale(1, -1)"/>
</svg>