<svg height="21.765625" viewBox="0 0 24 21.765625" width="24" xmlns="http://www.w3.org/2000/svg">
<path d="M1.75,11.328125 L1.75,7.875 C1.75,5.828125 1.6875,3.1875 0.953125,1.265625 L1.34375,1.015625 C2.6875,2.953125 2.90625,5.78125 2.90625,7.84375 L2.90625,10.515625 C3.5,10.578125 3.671875,10.796875 3.71875,11.109375 Z M7.15625,11.375 L7.15625,2.15625 L7.375,2.15625 C7.828125,2.15625 8.359375,2.46875 8.359375,2.6875 L8.359375,10.53125 C8.875,10.609375 9.078125,10.828125 9.125,11.140625 Z M1.484375,18.28125 L1.6875,17.5625 L8.328125,17.5625 C8.65625,17.5625 8.875,17.6875 8.921875,17.953125 C8.203125,18.640625 7.03125,19.609375 7.03125,19.609375 L5.96875,18.28125 Z M0.90625,14.15625 L1.109375,13.46875 L4.34375,13.46875 L4.34375,-1.828125 L4.5625,-1.828125 C5.28125,-1.828125 5.765625,-1.46875 5.765625,-1.34375 L5.765625,13.46875 L8.734375,13.46875 C8.96875,13.46875 9.171875,13.53125 9.234375,13.703125 L9.28125,13.65625 L9.75,13.84375 L9.75,-1.828125 L9.984375,-1.828125 C10.578125,-1.828125 11.109375,-1.46875 11.109375,-1.296875 L11.109375,13.15625 L15.28125,13.15625 L15.28125,11.515625 L13.609375,12.1875 C13.46875,11.6875 13.265625,11.109375 13.015625,10.515625 C12.578125,10.734375 12.046875,10.9375 11.421875,11.140625 L11.15625,10.875 C11.640625,10.578125 12.1875,10.171875 12.671875,9.71875 C12.265625,8.859375 11.765625,7.984375 11.25,7.296875 L11.59375,6.984375 C12.21875,7.578125 12.796875,8.328125 13.265625,9.078125 C13.578125,8.71875 13.84375,8.328125 13.984375,7.984375 C14.875,7.46875 15.4375,8.78125 13.828125,9.984375 C14.09375,10.4375 14.296875,10.84375 14.46875,11.203125 C14.953125,11.140625 15.171875,11.203125 15.28125,11.453125 L15.28125,5.765625 L13.578125,6.453125 C13.46875,5.921875 13.25,5.296875 13.015625,4.65625 C12.578125,4.875 12.046875,5.09375 11.421875,5.28125 L11.15625,5.015625 C11.65625,4.734375 12.21875,4.296875 12.703125,3.84375 C12.28125,2.828125 11.765625,1.796875 11.203125,1.015625 L11.515625,0.703125 C12.1875,1.421875 12.796875,2.296875 13.296875,3.1875 C13.609375,2.828125 13.84375,2.46875 13.984375,2.140625 C14.875,1.609375 15.4375,2.921875 13.828125,4.15625 C14.0625,4.625 14.28125,5.09375 14.453125,5.5 C14.96875,5.421875 15.171875,5.515625 15.28125,5.734375 L15.28125,-1.578125 L15.484375,-1.578125 C16.15625,-1.578125 16.609375,-1.21875 16.609375,-1.125 L16.609375,13.15625 L20.828125,13.15625 L20.828125,5.765625 L19.125,6.453125 C18.984375,5.921875 18.796875,5.296875 18.578125,4.625 C18.125,4.875 17.5625,5.09375 16.921875,5.28125 L16.6875,5.015625 C17.1875,4.703125 17.734375,4.265625 18.234375,3.796875 C17.875,2.859375 17.421875,1.890625 16.921875,1.15625 L17.234375,0.859375 C17.859375,1.53125 18.390625,2.359375 18.859375,3.140625 C19.15625,2.8125 19.375,2.453125 19.515625,2.140625 C20.40625,1.609375 20.921875,2.90625 19.375,4.109375 C19.609375,4.609375 19.796875,5.09375 19.96875,5.5 C20.5,5.421875 20.6875,5.515625 20.828125,5.734375 L20.828125,0.484375 C20.828125,0.140625 20.734375,0 20.328125,0 C19.890625,0 17.953125,0.171875 17.953125,0.171875 L17.953125,-0.21875 C18.8125,-0.359375 19.34375,-0.5 19.65625,-0.765625 C19.890625,-1.015625 20.015625,-1.390625 20.0625,-1.84375 C22.015625,-1.625 22.25,-0.890625 22.25,0.28125 L22.25,12.90625 C22.703125,12.984375 23.09375,13.171875 23.234375,13.375 L22.4375,13.9375 C23.359375,14.296875 22.84375,16.53125 18.28125,17.203125 L18.09375,16.921875 C19.109375,16.421875 20.40625,15.5 21.234375,14.609375 L20.609375,13.84375 L16.65625,13.84375 L16.65625,17.8125 L22.796875,17.8125 C23.109375,17.8125 23.359375,17.921875 23.421875,18.1875 C22.578125,18.9375 21.234375,19.921875 21.234375,19.921875 L20.046875,18.5 L9.265625,18.5 L9.453125,17.8125 L15.234375,17.8125 L15.234375,13.84375 L11.25,13.84375 L10.515625,14.203125 C11.6875,14.8125 12.8125,15.53125 13.515625,16.171875 C14.046875,16.03125 14.203125,16.125 14.40625,16.34375 L12.5,17.421875 C11.828125,16.4375 10.421875,14.96875 9.09375,14.0625 C8.375,14.765625 7.390625,15.53125 7.390625,15.53125 L6.34375,14.15625 Z M19.109375,12.1875 C18.953125,11.6875 18.765625,11.109375 18.5,10.515625 C18.078125,10.734375 17.546875,10.9375 16.921875,11.140625 L16.6875,10.875 C17.15625,10.578125 17.6875,10.171875 18.171875,9.71875 C17.765625,8.859375 17.28125,7.984375 16.75,7.296875 L17.09375,6.984375 C17.71875,7.578125 18.28125,8.328125 18.765625,9.078125 C19.109375,8.71875 19.375,8.328125 19.515625,7.984375 C20.40625,7.46875 20.921875,8.765625 19.3125,9.984375 C19.5625,10.4375 19.78125,10.84375 19.9375,11.203125 C20.5,11.140625 20.6875,11.234375 20.828125,11.5 Z" transform="translate(-0.1640625, 19.921875) scale(1, -1)"/>
</svg>