<svg height="22.078125" viewBox="0 0 24 22.078125" width="24" xmlns="http://www.w3.org/2000/svg">
<path d="M11.421875,20.140625 C11.1875,18.71875 10.875,17.109375 10.484375,15.484375 L4.625,15.484375 L2.90625,16.3125 L2.90625,-1.84375 L3.1875,-1.84375 C3.859375,-1.84375 4.46875,-1.46875 4.46875,-1.25 L4.46875,14.8125 L10.34375,14.8125 C9.71875,12.171875 8.96875,9.453125 8.234375,7.171875 L5.734375,7.0625 L6.765625,4.921875 C7.015625,4.984375 7.25,5.140625 7.375,5.421875 C11.15625,6.171875 13.9375,6.796875 15.953125,7.25 C16.3125,6.5 16.578125,5.734375 16.703125,5.0625 C18.390625,3.640625 19.578125,7.6875 13.5625,11.828125 L13.265625,11.640625 C14.0625,10.578125 15.03125,9.171875 15.75,7.734375 L8.828125,7.21875 C9.9375,9.578125 10.9375,12.28125 11.765625,14.8125 L19.578125,14.8125 L19.578125,0.625 C19.578125,0.21875 19.4375,0.078125 18.953125,0.078125 C18.34375,0.078125 15.453125,0.28125 15.453125,0.28125 L15.453125,-0.09375 C16.703125,-0.265625 17.40625,-0.453125 17.8125,-0.75 C18.1875,-1.015625 18.359375,-1.421875 18.453125,-1.9375 C20.875,-1.703125 21.171875,-0.84375 21.171875,0.4375 L21.171875,14.5 C21.625,14.5625 22.03125,14.78125 22.203125,14.953125 L20.1875,16.515625 L19.34375,15.484375 L11.96875,15.484375 C12.359375,16.734375 12.703125,17.921875 12.953125,18.984375 C13.515625,19.015625 13.78125,19.25 13.84375,19.5625 Z" transform="translate(-0.5546875, 20.140625) scale(1, -1)"/>
</svg>