<svg height="21.8125" viewBox="0 0 24 21.8125" width="24" xmlns="http://www.w3.org/2000/svg">
<path d="M1.21875,11.71875 L1.4375,11.015625 L9.796875,11.015625 C7.9375,7.078125 4.65625,2.96875 0.8125,0.28125 L1.078125,-0.078125 C5.375,2.328125 8.90625,5.828125 11.140625,9.796875 L11.140625,-1.828125 L11.40625,-1.828125 C12.1875,-1.828125 12.71875,-1.4375 12.71875,-1.3125 L12.71875,11.015625 L12.765625,11.015625 C14.71875,6.21875 18.03125,2.375 21.671875,0.234375 C21.9375,1.03125 22.53125,1.515625 23.203125,1.609375 L23.28125,1.84375 C19.5625,3.4375 15.5,6.953125 13.3125,11.015625 L22.171875,11.015625 C22.515625,11.015625 22.75,11.140625 22.828125,11.40625 C21.953125,12.140625 20.5625,13.21875 20.5625,13.21875 L19.375,11.71875 L12.71875,11.71875 L12.71875,17.109375 C15.1875,17.46875 17.5,17.875 19.34375,18.3125 C19.9375,18.046875 20.40625,18.078125 20.609375,18.265625 L18.765625,19.984375 C15.171875,18.671875 8.296875,17.203125 2.5625,16.65625 L2.640625,16.203125 C5.453125,16.296875 8.375,16.53125 11.140625,16.890625 L11.140625,11.71875 Z" transform="translate(-0.046875, 19.984375) scale(1, -1)"/>
</svg>