<svg height="21.75" viewBox="0 0 24 21.75" width="24" xmlns="http://www.w3.org/2000/svg">
<path d="M10.65625,11.1875 C10.609375,9.125 9.703125,6.984375 8.828125,6.125 C8.40625,5.734375 8.1875,5.15625 8.515625,4.75 C8.875,4.265625 9.765625,4.53125 10.25,5.15625 C10.984375,6.09375 11.71875,8.25 11.09375,11.15625 Z M12.640625,19.703125 L12.40625,19.4375 C13.9375,18.53125 15.796875,16.796875 16.390625,15.34375 C18.34375,14.359375 19.03125,18.453125 12.640625,19.703125 Z M19.5625,11.5 L19.25,11.328125 C20.375,9.765625 21.625,7.3125 21.640625,5.375 C23.28125,3.8125 24.890625,7.984375 19.5625,11.5 Z M19.96875,18.859375 C18.765625,13.984375 16.75,9.84375 14.25,6.453125 L14.25,13.78125 C14.78125,13.875 15,14.109375 15.046875,14.421875 L12.75,14.6875 L12.75,4.5625 C11.109375,2.6875 9.34375,1.109375 7.4375,-0.171875 L7.734375,-0.5 C9.53125,0.453125 11.203125,1.625 12.75,3.03125 L12.75,0.484375 C12.75,-0.796875 13.171875,-1.21875 15,-1.21875 L17.25,-1.21875 C20.71875,-1.21875 21.484375,-0.9375 21.484375,-0.21875 C21.484375,0.09375 21.359375,0.28125 20.8125,0.484375 L20.734375,4.78125 L20.421875,4.78125 C20.140625,3 19.84375,1.078125 19.65625,0.625 C19.5625,0.390625 19.4375,0.28125 19.203125,0.265625 C18.90625,0.21875 18.21875,0.21875 17.25,0.21875 L15.265625,0.21875 C14.375,0.21875 14.25,0.390625 14.25,0.859375 L14.25,4.515625 C17.359375,7.796875 19.78125,12.09375 21.40625,17.46875 C21.9375,17.40625 22.25,17.59375 22.375,17.875 Z M7.609375,19.875 C6.171875,18.8125 3.28125,17.359375 0.90625,16.5625 L1.0625,16.171875 C2.234375,16.375 3.5,16.65625 4.703125,16.984375 L4.703125,12.90625 L1.078125,12.90625 L1.265625,12.1875 L4.3125,12.1875 C3.59375,8.859375 2.296875,5.46875 0.453125,2.921875 L0.796875,2.59375 C2.421875,4.25 3.71875,6.171875 4.703125,8.296875 L4.703125,-1.875 L4.9375,-1.875 C5.6875,-1.875 6.1875,-1.484375 6.1875,-1.34375 L6.1875,10.265625 C6.953125,9.40625 7.84375,8.203125 8.140625,7.265625 C9.53125,6.265625 10.734375,9 6.1875,10.734375 L6.1875,12.1875 L9.265625,12.1875 C9.59375,12.1875 9.8125,12.3125 9.890625,12.578125 C9.1875,13.296875 8.046875,14.234375 8.046875,14.234375 L7.03125,12.90625 L6.1875,12.90625 L6.1875,17.453125 C7.03125,17.71875 7.796875,18 8.421875,18.234375 C9.03125,18.046875 9.40625,18.09375 9.625,18.3125 Z" transform="translate(-0.671875, 19.875) scale(1, -1)"/>
</svg>