<svg height="21.765625" viewBox="0 0 24 21.765625" width="24" xmlns="http://www.w3.org/2000/svg">
<path d="M11.25,15.796875 L10.890625,15.703125 C11.5,14.046875 12.1875,11.640625 12.1875,9.8125 C13.625,8.296875 15.140625,11.8125 11.25,15.796875 Z M20.046875,16.171875 C19.75,14.5625 18.90625,11.328125 18.21875,9.265625 L18.484375,9.125 C19.734375,10.921875 20.96875,13.375 21.625,14.734375 C22.109375,14.65625 22.390625,14.90625 22.46875,15.125 Z M8.375,19.890625 C6.75,18.8125 3.5,17.375 0.859375,16.578125 L0.953125,16.203125 C2.328125,16.390625 3.796875,16.6875 5.15625,17.015625 L5.15625,12.890625 L1.03125,12.890625 L1.21875,12.171875 L4.609375,12.171875 C3.8125,8.78125 2.421875,5.40625 0.453125,2.828125 L0.796875,2.515625 C2.640625,4.296875 4.109375,6.40625 5.15625,8.765625 L5.15625,-1.84375 L5.40625,-1.84375 C6.140625,-1.84375 6.703125,-1.46875 6.703125,-1.3125 L6.703125,9.265625 C7.625,8.28125 8.6875,6.8125 9,5.6875 C9.9375,4.984375 10.75,5.953125 10.03125,7.25 L15.34375,7.25 L15.34375,-1.875 L15.578125,-1.875 C16.375,-1.875 16.875,-1.46875 16.890625,-1.34375 L16.890625,7.25 L22.6875,7.25 C23.046875,7.25 23.234375,7.375 23.296875,7.625 C22.53125,8.40625 21.265625,9.390625 21.265625,9.390625 L20.140625,7.96875 L16.890625,7.96875 L16.890625,17.296875 L22.078125,17.296875 C22.421875,17.296875 22.625,17.421875 22.703125,17.6875 C21.90625,18.40625 20.65625,19.4375 20.65625,19.4375 L19.5625,18.03125 L10.3125,18.03125 L10.484375,17.296875 L15.34375,17.296875 L15.34375,7.96875 L9.71875,7.96875 L9.84375,7.5625 C9.3125,8.28125 8.359375,9.078125 6.703125,9.75 L6.703125,12.171875 L10.15625,12.171875 C10.46875,12.171875 10.6875,12.28125 10.734375,12.546875 C10.0625,13.265625 8.875,14.203125 8.875,14.203125 L7.84375,12.890625 L6.703125,12.890625 L6.703125,17.453125 C7.609375,17.71875 8.453125,17.96875 9.140625,18.234375 C9.75,18.046875 10.125,18.078125 10.375,18.28125 Z" transform="translate(0.125, 19.890625) scale(1, -1)"/>
</svg>