<svg height="21.984375" viewBox="0 0 24 21.984375" width="24" xmlns="http://www.w3.org/2000/svg">
<path d="M20.40625,16.3125 L20.40625,13.296875 L16.84375,13.296875 L16.84375,16.3125 Z M15.34375,20.109375 L14.640625,17.015625 L12.03125,17.015625 L10.421875,17.78125 L10.421875,7.53125 L10.65625,7.53125 C11.296875,7.53125 11.90625,7.890625 11.90625,8.046875 L11.90625,8.859375 L20.40625,8.859375 L20.40625,7.78125 L20.609375,7.78125 C21.125,7.78125 21.859375,8.109375 21.890625,8.25 L21.890625,16.03125 C22.375,16.125 22.78125,16.3125 22.921875,16.515625 L21.03125,17.96875 L20.15625,17.015625 L15.390625,17.015625 C15.9375,17.609375 16.625,18.4375 17.0625,19.03125 C17.5625,19.03125 17.875,19.21875 17.96875,19.5625 Z M11.90625,12.578125 L15.390625,12.578125 L15.390625,9.578125 L11.90625,9.578125 Z M11.90625,13.296875 L11.90625,16.3125 L15.390625,16.3125 L15.390625,13.296875 Z M20.40625,12.578125 L20.40625,9.578125 L16.84375,9.578125 L16.84375,12.578125 Z M12.90625,7.84375 C12.578125,6.671875 12.078125,4.984375 11.734375,3.9375 L8.328125,3.9375 L8.515625,3.234375 L17.453125,3.234375 L17.453125,-1.84375 L17.765625,-1.84375 C18.3125,-1.84375 18.984375,-1.578125 18.984375,-1.421875 L18.984375,3.234375 L22.65625,3.234375 C22.984375,3.234375 23.1875,3.359375 23.25,3.625 C22.578125,4.296875 21.40625,5.25 21.40625,5.25 L20.40625,3.9375 L18.984375,3.9375 L18.984375,7.46875 C19.484375,7.53125 19.65625,7.75 19.703125,8.046875 L17.453125,8.28125 L17.453125,3.9375 L12.40625,3.9375 C13.03125,4.78125 13.84375,5.921875 14.359375,6.796875 C14.859375,6.796875 15.1875,6.953125 15.28125,7.265625 Z M7.625,19.875 C6.1875,18.8125 3.3125,17.359375 0.9375,16.5625 L1.078125,16.171875 C2.25,16.375 3.5,16.65625 4.703125,16.984375 L4.703125,12.84375 L1.078125,12.84375 L1.265625,12.125 L4.3125,12.125 C3.59375,8.78125 2.296875,5.40625 0.453125,2.859375 L0.796875,2.515625 C2.421875,4.171875 3.71875,6.09375 4.703125,8.234375 L4.703125,-1.875 L4.9375,-1.875 C5.6875,-1.875 6.1875,-1.484375 6.1875,-1.34375 L6.1875,9.1875 C6.984375,8.296875 7.890625,7.015625 8.203125,6.03125 C9.59375,4.984375 10.796875,7.796875 6.1875,9.671875 L6.1875,12.125 L9.4375,12.125 C9.765625,12.125 10.015625,12.234375 10.078125,12.5 C9.359375,13.21875 8.203125,14.15625 8.203125,14.15625 L7.21875,12.84375 L6.1875,12.84375 L6.1875,17.421875 C7.0625,17.71875 7.828125,17.96875 8.453125,18.234375 C9.046875,18.046875 9.4375,18.09375 9.640625,18.3125 Z" transform="translate(0.1484375, 20.109375) scale(1, -1)"/>
</svg>