<svg height="22.046875" viewBox="0 0 24 22.046875" width="24" xmlns="http://www.w3.org/2000/svg">
<path d="M11.765625,12.84375 L15.265625,12.84375 C15.171875,11.6875 14.96875,10.625 14.640625,9.671875 L11.765625,9.671875 Z M11.765625,13.53125 L11.765625,16.65625 L15.390625,16.65625 C15.390625,15.546875 15.359375,14.5 15.3125,13.53125 Z M20.453125,12.84375 L20.453125,9.671875 L16.078125,9.671875 C16.4375,10.625 16.625,11.6875 16.75,12.84375 Z M20.453125,13.53125 L16.828125,13.53125 C16.890625,14.5 16.921875,15.546875 16.9375,16.65625 L20.453125,16.65625 Z M15.078125,20.15625 L14.203125,17.328125 L11.875,17.328125 L10.296875,18.09375 L10.296875,7.609375 L10.515625,7.609375 C11.140625,7.609375 11.765625,7.96875 11.765625,8.109375 L11.765625,8.96875 L14.328125,8.96875 C13.609375,7.46875 12.34375,6.171875 10.171875,5.09375 L10.484375,4.6875 C13.3125,5.8125 14.875,7.203125 15.765625,8.96875 L20.453125,8.96875 L20.453125,7.84375 L20.65625,7.84375 C21.171875,7.84375 21.90625,8.203125 21.9375,8.359375 L21.9375,16.421875 C22.375,16.484375 22.734375,16.6875 22.875,16.84375 L21.046875,18.234375 L20.234375,17.328125 L15.078125,17.328125 L16.578125,19.109375 C17.09375,19.109375 17.375,19.296875 17.46875,19.609375 Z M17.46875,8.234375 L17.46875,3.9375 L8.296875,3.9375 L8.5,3.234375 L17.46875,3.234375 L17.46875,-1.890625 L17.765625,-1.890625 C18.34375,-1.890625 18.984375,-1.5625 18.984375,-1.375 L18.984375,3.234375 L22.65625,3.234375 C22.984375,3.234375 23.203125,3.359375 23.28125,3.625 C22.53125,4.34375 21.28125,5.359375 21.28125,5.359375 L20.203125,3.9375 L18.984375,3.9375 L18.984375,7.34375 C19.578125,7.4375 19.828125,7.65625 19.875,7.96875 Z M7.625,19.875 C6.1875,18.8125 3.3125,17.359375 0.9375,16.5625 L1.078125,16.171875 C2.25,16.375 3.5,16.65625 4.703125,16.984375 L4.703125,13.03125 L0.953125,13.03125 L1.15625,12.34375 L4.375,12.34375 C3.640625,8.921875 2.359375,5.46875 0.453125,2.859375 L0.796875,2.515625 C2.421875,4.171875 3.71875,6.09375 4.703125,8.234375 L4.703125,-1.875 L4.9375,-1.875 C5.6875,-1.875 6.1875,-1.484375 6.1875,-1.34375 L6.1875,9.390625 C6.984375,8.46875 7.890625,7.171875 8.203125,6.1875 C9.59375,5.15625 10.796875,7.96875 6.1875,9.84375 L6.1875,12.34375 L9.4375,12.34375 C9.765625,12.34375 9.984375,12.453125 10.0625,12.71875 C9.34375,13.421875 8.203125,14.375 8.203125,14.375 L7.171875,13.03125 L6.1875,13.03125 L6.1875,17.421875 C7.0625,17.71875 7.828125,17.96875 8.453125,18.234375 C9.046875,18.046875 9.4375,18.09375 9.640625,18.3125 Z" transform="translate(0.1328125, 20.15625) scale(1, -1)"/>
</svg>