<svg height="21.890625" viewBox="0 0 24 21.890625" width="24" xmlns="http://www.w3.org/2000/svg">
<path d="M14.734375,17.109375 L14.421875,16.96875 C14.90625,16.171875 15.453125,14.859375 15.53125,13.828125 C16.78125,12.640625 18.34375,15.140625 14.734375,17.109375 Z M18.671875,17.5625 L18.40625,17.359375 C19.625,16.296875 21.078125,14.421875 21.40625,13.015625 C23.015625,11.8125 24.1875,15.359375 18.671875,17.5625 Z M19.84375,10.53125 L19.84375,7.9375 L16.5625,7.9375 L16.5625,10.53125 Z M15.078125,13.390625 L15.078125,11.234375 L11.921875,11.234375 L10.3125,12 L10.3125,4.375 L7.796875,4.375 L7.984375,3.671875 L10.3125,3.671875 L10.3125,-1.828125 L10.5625,-1.828125 C11.234375,-1.828125 11.8125,-1.46875 11.8125,-1.296875 L11.8125,3.671875 L19.84375,3.671875 L19.84375,0.546875 C19.84375,0.21875 19.75,0.09375 19.421875,0.09375 C18.984375,0.09375 17.046875,0.21875 17.046875,0.234375 L17.046875,-0.140625 C17.90625,-0.28125 18.390625,-0.4375 18.703125,-0.671875 C18.984375,-0.90625 19.078125,-1.34375 19.15625,-1.796875 C21.078125,-1.578125 21.3125,-0.8125 21.3125,0.359375 L21.3125,3.671875 L23.0625,3.671875 C23.375,3.671875 23.59375,3.796875 23.65625,4.03125 C23.09375,4.75 22.015625,5.78125 22.015625,5.78125 L21.3125,4.703125 L21.3125,10.265625 C21.765625,10.34375 22.15625,10.53125 22.3125,10.734375 L20.375,12.171875 L19.609375,11.234375 L16.5625,11.234375 L16.5625,12.484375 C17.109375,12.578125 17.359375,12.8125 17.40625,13.125 Z M11.8125,7.21875 L15.078125,7.21875 L15.078125,4.375 L11.8125,4.375 Z M11.8125,7.9375 L11.8125,10.53125 L15.078125,10.53125 L15.078125,7.9375 Z M19.84375,7.21875 L19.84375,4.375 L16.5625,4.375 L16.5625,7.21875 Z M7.46875,19.875 C6.078125,18.84375 3.265625,17.40625 0.953125,16.609375 L1.109375,16.25 C2.234375,16.421875 3.40625,16.6875 4.53125,16.984375 L4.53125,12.84375 L0.984375,12.84375 L1.171875,12.125 L4.15625,12.125 C3.484375,8.8125 2.28125,5.421875 0.484375,2.859375 L0.8125,2.546875 C2.375,4.171875 3.59375,6.046875 4.53125,8.140625 L4.53125,-1.875 L4.78125,-1.875 C5.5,-1.875 6,-1.484375 6.03125,-1.375 L6.03125,9.484375 C6.796875,8.59375 7.6875,7.34375 7.9375,6.40625 C9.359375,5.359375 10.53125,8.15625 6.03125,10.015625 L6.03125,12.125 L8.953125,12.125 L8.734375,11.78125 L9.09375,11.5625 C10.65625,13.015625 11.96875,15.234375 12.8125,17.65625 C13.015625,17.640625 13.171875,17.65625 13.296875,17.71875 C16.03125,17.8125 18.9375,18.140625 20.609375,18.453125 C21,18.265625 21.328125,18.28125 21.484375,18.4375 L19.75,20.015625 C18.34375,19.46875 15.71875,18.71875 13.296875,18.234375 L11.421875,18.9375 C10.96875,16.6875 10.171875,14.421875 9.28125,12.71875 C8.609375,13.390625 7.65625,14.15625 7.65625,14.15625 L6.671875,12.84375 L6.03125,12.84375 L6.03125,17.453125 C6.890625,17.71875 7.65625,18 8.28125,18.234375 C8.859375,18.046875 9.234375,18.09375 9.484375,18.3125 Z" transform="translate(-0.0703125, 20.015625) scale(1, -1)"/>
</svg>