<svg height="21.890625" viewBox="0 0 24 21.890625" width="24" xmlns="http://www.w3.org/2000/svg">
<path d="M14.8125,17.109375 L14.5,16.984375 C14.96875,16.15625 15.5,14.8125 15.578125,13.78125 C16.828125,12.578125 18.40625,15.078125 14.8125,17.109375 Z M18.71875,17.59375 L18.453125,17.375 C19.6875,16.296875 21.140625,14.421875 21.4375,12.984375 C23.0625,11.765625 24.265625,15.359375 18.71875,17.59375 Z M19.84375,10.4375 L19.84375,7.84375 L16.53125,7.84375 L16.53125,10.4375 Z M19.75,20.015625 C18.34375,19.46875 15.71875,18.71875 13.296875,18.234375 L11.421875,18.9375 C10.96875,16.6875 10.171875,14.421875 9.28125,12.71875 C8.609375,13.390625 7.65625,14.15625 7.65625,14.15625 L6.671875,12.84375 L6.03125,12.84375 L6.03125,17.453125 C6.890625,17.71875 7.65625,18 8.28125,18.234375 C8.859375,18.046875 9.234375,18.09375 9.484375,18.3125 L7.46875,19.875 C6.078125,18.84375 3.265625,17.40625 0.953125,16.609375 L1.109375,16.25 C2.234375,16.421875 3.40625,16.6875 4.53125,16.984375 L4.53125,12.84375 L0.984375,12.84375 L1.171875,12.125 L4.15625,12.125 C3.484375,8.8125 2.28125,5.421875 0.484375,2.859375 L0.8125,2.546875 C2.375,4.171875 3.59375,6.046875 4.53125,8.140625 L4.53125,-1.875 L4.78125,-1.875 C5.5,-1.875 6,-1.484375 6.03125,-1.375 L6.03125,9.484375 C6.796875,8.59375 7.6875,7.34375 7.9375,6.40625 C8.65625,5.875 9.3125,6.34375 9.1875,7.15625 L10.3125,7.15625 L10.3125,4.15625 L7.921875,4.15625 L8.109375,3.453125 L10.3125,3.453125 L10.3125,-1.84375 L10.5625,-1.84375 C11.203125,-1.84375 11.78125,-1.46875 11.78125,-1.296875 L11.78125,3.453125 L19.84375,3.453125 L19.84375,0.484375 C19.84375,0.125 19.734375,0 19.34375,0 C18.859375,0 16.65625,0.171875 16.65625,0.171875 L16.65625,-0.21875 C17.640625,-0.359375 18.1875,-0.53125 18.5,-0.765625 C18.8125,-1.015625 18.9375,-1.421875 19.015625,-1.875 C21.046875,-1.65625 21.28125,-0.890625 21.28125,0.28125 L21.28125,3.453125 L23.203125,3.453125 C23.515625,3.453125 23.765625,3.578125 23.8125,3.84375 C23.203125,4.5625 22.15625,5.59375 22.15625,5.59375 L21.28125,4.203125 L21.28125,7.15625 L22.984375,7.15625 C23.296875,7.15625 23.515625,7.25 23.5625,7.515625 C23.046875,8.1875 22.0625,9.140625 22.0625,9.140625 L21.28125,7.96875 L21.28125,10.203125 C21.75,10.296875 22.125,10.46875 22.296875,10.65625 L20.359375,12.078125 L19.609375,11.15625 L16.53125,11.15625 L16.53125,12.359375 C17.046875,12.453125 17.25,12.640625 17.28125,12.984375 L15.078125,13.203125 L15.078125,11.15625 L11.921875,11.15625 L10.3125,11.90625 L10.3125,7.84375 L8.953125,7.84375 C8.546875,8.546875 7.65625,9.34375 6.03125,10.015625 L6.03125,12.125 L8.953125,12.125 L8.734375,11.78125 L9.09375,11.5625 C10.65625,13.015625 11.96875,15.234375 12.8125,17.65625 C13.015625,17.640625 13.171875,17.65625 13.296875,17.71875 C16.03125,17.8125 18.9375,18.140625 20.609375,18.453125 C21,18.265625 21.328125,18.28125 21.484375,18.4375 Z M11.78125,4.15625 L11.78125,7.15625 L15.078125,7.15625 L15.078125,4.15625 Z M11.78125,7.84375 L11.78125,10.4375 L15.078125,10.4375 L15.078125,7.84375 Z M19.84375,4.15625 L16.53125,4.15625 L16.53125,7.15625 L19.84375,7.15625 Z" transform="translate(-0.375, 20.015625) scale(1, -1)"/>
</svg>