<svg height="21.984375" viewBox="0 0 24 21.984375" width="24" xmlns="http://www.w3.org/2000/svg">
<path d="M20.1875,20.109375 C17.734375,19.25 13.125,18.125 9.453125,17.5625 L9.53125,17.140625 C13.390625,17.296875 17.875,17.921875 20.765625,18.484375 C21.328125,18.234375 21.765625,18.234375 21.984375,18.453125 Z M10.3125,4.15625 C10.25,2.8125 9.34375,1.578125 8.46875,1.125 C8.015625,0.859375 7.734375,0.4375 7.9375,-0.03125 C8.1875,-0.53125 8.96875,-0.453125 9.484375,-0.078125 C10.3125,0.484375 11.203125,1.9375 10.734375,4.125 Z M10.703125,16.875 L10.421875,16.734375 C10.890625,15.9375 11.5,14.65625 11.609375,13.65625 C12.84375,12.59375 14.28125,15.046875 10.703125,16.875 Z M14.109375,5.546875 L13.875,5.296875 C14.875,4.65625 16.171875,3.453125 16.65625,2.546875 C18.234375,1.796875 18.890625,4.875 14.109375,5.546875 Z M14.375,17.15625 L14.09375,17.046875 C14.5,16.25 15,14.953125 15.046875,13.96875 C16.21875,12.796875 17.78125,15.140625 14.375,17.15625 Z M19.703125,4.265625 L19.421875,4.109375 C20.328125,3.078125 21.40625,1.34375 21.640625,0.03125 C23.140625,-1.15625 24.453125,2.09375 19.703125,4.265625 Z M12.046875,4.875 L12.046875,-0.046875 C12.046875,-1.109375 12.359375,-1.4375 14.046875,-1.4375 L16.34375,-1.4375 C19.625,-1.4375 20.296875,-1.15625 20.296875,-0.53125 C20.296875,-0.234375 20.1875,-0.078125 19.703125,0.09375 L19.625,2.015625 L19.3125,2.015625 C19.125,1.15625 18.90625,0.390625 18.765625,0.09375 C18.640625,-0.046875 18.546875,-0.078125 18.3125,-0.09375 C18.078125,-0.125 17.296875,-0.125 16.390625,-0.125 L14.328125,-0.125 C13.578125,-0.125 13.515625,-0.046875 13.515625,0.265625 L13.515625,4.0625 C13.921875,4.109375 14.140625,4.3125 14.15625,4.609375 Z M19.78125,17.71875 C19.4375,16.625 18.59375,14.515625 17.921875,13.171875 L18.171875,13.015625 C19.3125,14.09375 20.515625,15.5 21.140625,16.390625 C21.625,16.3125 21.90625,16.53125 21.953125,16.734375 Z M10.109375,6.859375 L10.3125,6.140625 L20.109375,6.140625 L20.109375,5.28125 L20.40625,5.28125 C21.046875,5.28125 21.59375,5.6875 21.625,5.78125 L21.625,11.953125 C21.984375,12.03125 22.3125,12.21875 22.484375,12.390625 L20.953125,13.78125 L20.15625,12.9375 L10.203125,12.9375 L10.421875,12.21875 L20.109375,12.21875 L20.109375,9.953125 L10.5625,9.953125 L10.78125,9.234375 L20.109375,9.234375 L20.109375,6.859375 Z M7.65625,19.875 C6.21875,18.8125 3.28125,17.328125 0.90625,16.5625 L1.0625,16.171875 C2.234375,16.375 3.5,16.65625 4.703125,16.96875 L4.703125,12.84375 L1.078125,12.84375 L1.265625,12.125 L4.3125,12.125 C3.59375,8.78125 2.296875,5.40625 0.453125,2.859375 L0.796875,2.515625 C2.421875,4.171875 3.71875,6.09375 4.703125,8.234375 L4.703125,-1.875 L4.9375,-1.875 C5.6875,-1.875 6.1875,-1.484375 6.1875,-1.34375 L6.1875,9.1875 C6.984375,8.296875 7.890625,7.015625 8.203125,6.03125 C9.59375,4.984375 10.796875,7.796875 6.1875,9.671875 L6.1875,12.125 L9.265625,12.125 C9.59375,12.125 9.8125,12.234375 9.890625,12.5 C9.1875,13.21875 8.046875,14.15625 8.046875,14.15625 L7.03125,12.84375 L6.1875,12.84375 L6.1875,17.421875 C7.0625,17.6875 7.84375,17.96875 8.46875,18.234375 C9.078125,18.046875 9.453125,18.09375 9.671875,18.3125 Z" transform="translate(-0.453125, 20.109375) scale(1, -1)"/>
</svg>