<svg height="21.90625" viewBox="0 0 24 21.90625" width="24" xmlns="http://www.w3.org/2000/svg">
<path d="M12.953125,16.75 C12.09375,15.75 10.3125,14.453125 8.734375,13.734375 L8.96875,13.421875 C10.875,13.796875 12.890625,14.609375 14.015625,15.40625 C14.546875,15.265625 14.734375,15.359375 14.90625,15.578125 Z M16.578125,16.375 L16.421875,16.0625 C17.921875,15.5 20.015625,14.359375 21,13.46875 C22.65625,13.125 22.53125,16.171875 16.578125,16.375 Z M20.515625,5.546875 C19.96875,4.890625 18.8125,3.765625 17.828125,2.96875 C16.96875,3.90625 16.390625,4.875 16.0625,5.8125 L22.375,5.8125 C22.6875,5.8125 22.921875,5.921875 22.96875,6.1875 C22.265625,6.859375 21.140625,7.75 21.140625,7.75 L20.140625,6.53125 L18.140625,6.53125 L18.140625,8.453125 L21.5,8.453125 C21.796875,8.453125 22.03125,8.5625 22.078125,8.828125 C21.40625,9.484375 20.359375,10.34375 20.359375,10.34375 L19.421875,9.140625 L18.140625,9.140625 L18.140625,11.015625 L21.890625,11.015625 C22.21875,11.015625 22.4375,11.140625 22.484375,11.40625 C21.8125,12.03125 20.734375,12.90625 20.734375,12.90625 L19.796875,11.71875 L18.140625,11.71875 L18.140625,12.859375 C18.703125,12.953125 18.9375,13.171875 18.984375,13.484375 L16.65625,13.75 L16.65625,11.71875 L13.65625,11.71875 L13.65625,12.859375 C14.203125,12.953125 14.453125,13.171875 14.5,13.484375 L12.171875,13.75 L12.171875,11.71875 L8.640625,11.71875 L8.828125,11.015625 L12.171875,11.015625 L12.171875,9.140625 L9.234375,9.140625 L9.4375,8.453125 L12.171875,8.453125 L12.171875,6.53125 L8.1875,6.53125 L8.375,5.8125 L13.21875,5.8125 C11.65625,4.203125 9.34375,2.859375 6.75,1.9375 L6.9375,1.53125 C8.640625,1.96875 10.25,2.515625 11.6875,3.1875 L11.6875,0.3125 C10.609375,0.140625 9.71875,0 9.140625,-0.046875 L9.859375,-1.921875 C10.109375,-1.84375 10.3125,-1.6875 10.421875,-1.390625 C13.4375,-0.484375 15.75,0.34375 17.40625,0.90625 L17.328125,1.265625 L13.15625,0.546875 L13.15625,3.984375 C14.046875,4.53125 14.8125,5.140625 15.453125,5.8125 L15.546875,5.8125 C16.171875,3.28125 17.6875,0.03125 21.84375,-1.84375 C22.015625,-1.015625 22.46875,-0.75 23.234375,-0.640625 L23.28125,-0.359375 C21,0.453125 19.375,1.484375 18.1875,2.59375 C19.484375,3.09375 20.859375,3.796875 21.59375,4.21875 C21.9375,4.125 22.171875,4.171875 22.296875,4.34375 Z M13.65625,8.453125 L16.65625,8.453125 L16.65625,6.53125 L13.65625,6.53125 Z M13.65625,9.140625 L13.65625,11.015625 L16.65625,11.015625 L16.65625,9.140625 Z M14.40625,19.984375 L14.40625,17.71875 L8.453125,17.71875 L8.640625,17.015625 L22.34375,17.015625 C22.6875,17.015625 22.890625,17.140625 22.96875,17.40625 C22.171875,18.125 20.921875,19.125 20.921875,19.125 L19.828125,17.71875 L15.984375,17.71875 L15.984375,19.125 C16.5625,19.203125 16.796875,19.4375 16.84375,19.78125 Z M7.21875,19.921875 C5.875,18.953125 3.125,17.640625 0.859375,16.921875 L0.984375,16.5625 C2.09375,16.703125 3.234375,16.921875 4.34375,17.1875 L4.34375,13.25 L0.984375,13.25 L1.171875,12.53125 L4.015625,12.53125 C3.359375,9.140625 2.203125,5.71875 0.453125,3.078125 L0.796875,2.765625 C2.28125,4.390625 3.453125,6.234375 4.34375,8.28125 L4.34375,-1.890625 L4.578125,-1.890625 C5.328125,-1.890625 5.859375,-1.53125 5.859375,-1.375 L5.859375,10.421875 C6.53125,9.546875 7.25,8.40625 7.4375,7.46875 C8.828125,6.4375 10.03125,9.140625 5.859375,10.984375 L5.859375,12.53125 L8.734375,12.53125 C9.03125,12.53125 9.265625,12.640625 9.3125,12.90625 C8.65625,13.578125 7.53125,14.515625 7.53125,14.515625 L6.546875,13.25 L5.859375,13.25 L5.859375,17.5625 C6.671875,17.78125 7.4375,18.03125 8.046875,18.234375 C8.609375,18.046875 9.046875,18.046875 9.21875,18.28125 Z" transform="translate(0.1328125, 19.984375) scale(1, -1)"/>
</svg>