<svg height="21.984375" viewBox="0 0 24 21.984375" width="24" xmlns="http://www.w3.org/2000/svg">
<path d="M9.75,3.484375 C9.71875,2.28125 8.90625,1.109375 8.15625,0.640625 C7.703125,0.359375 7.4375,-0.09375 7.6875,-0.5 C7.9375,-0.953125 8.734375,-0.859375 9.1875,-0.5 C9.90625,0.09375 10.578125,1.4375 10.171875,3.453125 Z M14.25,17.90625 L13.96875,17.765625 C14.375,17.09375 14.828125,16.078125 14.90625,15.234375 C16.03125,14.15625 17.609375,16.34375 14.25,17.90625 Z M13.890625,4.390625 L13.65625,4.203125 C14.515625,3.578125 15.640625,2.46875 16.078125,1.625 C17.5625,0.90625 18.265625,3.71875 13.890625,4.390625 Z M18.75,18.21875 L18.484375,18.03125 C19.578125,17.109375 20.96875,15.546875 21.390625,14.359375 C22.921875,13.390625 23.828125,16.515625 18.75,18.21875 Z M19.3125,3.75 L19.0625,3.546875 C20.0625,2.609375 21.3125,1.0625 21.59375,-0.171875 C23.109375,-1.21875 24.265625,1.9375 19.3125,3.75 Z M11.515625,3.796875 L11.515625,-0.140625 C11.515625,-1.171875 11.828125,-1.484375 13.578125,-1.484375 L16.0625,-1.484375 C19.609375,-1.484375 20.25,-1.25 20.25,-0.59375 C20.25,-0.3125 20.109375,-0.171875 19.625,0 L19.5625,1.78125 L19.296875,1.78125 C19.078125,1.015625 18.859375,0.265625 18.703125,0.03125 C18.59375,-0.140625 18.484375,-0.171875 18.234375,-0.1875 C17.96875,-0.21875 17.140625,-0.21875 16.109375,-0.21875 L13.828125,-0.21875 C13.015625,-0.21875 12.9375,-0.171875 12.9375,0.140625 L12.9375,2.96875 C13.34375,3.046875 13.5625,3.265625 13.609375,3.546875 Z M10.21875,5.640625 L10.4375,4.9375 L19.0625,4.9375 L19.0625,4.109375 L19.265625,4.109375 C19.78125,4.109375 20.515625,4.421875 20.546875,4.578125 L20.546875,7.21875 L22.796875,7.21875 C23.109375,7.21875 23.328125,7.3125 23.40625,7.578125 C22.75,8.234375 21.640625,9.09375 21.640625,9.09375 L20.71875,7.921875 L20.546875,7.921875 L20.546875,9.234375 C20.953125,9.34375 21.328125,9.5 21.453125,9.671875 L19.65625,11.0625 L18.8125,10.171875 L10.25,10.171875 L10.46875,9.484375 L19.0625,9.484375 L19.0625,7.921875 L9.03125,7.921875 L9.21875,7.21875 L19.0625,7.21875 L19.0625,5.640625 Z M9.390625,12.171875 L9.578125,11.5 L21.890625,11.5 C22.21875,11.5 22.4375,11.609375 22.484375,11.875 C21.8125,12.5 20.78125,13.3125 20.78125,13.3125 L19.875,12.171875 L16.34375,12.171875 L16.34375,13.84375 L20.421875,13.84375 C20.734375,13.84375 20.96875,13.96875 21.03125,14.234375 C20.375,14.859375 19.375,15.640625 19.375,15.640625 L18.484375,14.5625 L10.484375,14.5625 L10.6875,13.84375 L14.859375,13.84375 L14.859375,12.171875 Z M19.296875,20.109375 C17.78125,19.53125 15.09375,18.84375 12.578125,18.390625 L10.796875,19.078125 C10.171875,17.109375 9.234375,15.21875 8.328125,14.015625 L8.6875,13.75 C9.9375,14.71875 11.203125,16.171875 12.140625,17.8125 C12.3125,17.8125 12.484375,17.8125 12.578125,17.859375 C15.4375,17.96875 18.34375,18.359375 20.109375,18.703125 C20.515625,18.546875 20.875,18.546875 21.03125,18.71875 Z M7.46875,19.890625 C6.078125,18.890625 3.265625,17.421875 0.953125,16.625 L1.109375,16.265625 C2.234375,16.4375 3.40625,16.734375 4.53125,17.046875 L4.53125,12.84375 L0.984375,12.84375 L1.171875,12.125 L4.15625,12.125 C3.484375,8.8125 2.28125,5.421875 0.484375,2.859375 L0.8125,2.546875 C2.375,4.171875 3.59375,6.046875 4.53125,8.140625 L4.53125,-1.875 L4.78125,-1.875 C5.5,-1.875 6,-1.484375 6.03125,-1.375 L6.03125,9.484375 C6.796875,8.59375 7.6875,7.34375 7.9375,6.40625 C9.359375,5.359375 10.53125,8.15625 6.03125,10.015625 L6.03125,12.125 L8.921875,12.125 C9.21875,12.125 9.453125,12.234375 9.5,12.5 C8.828125,13.21875 7.65625,14.15625 7.65625,14.15625 L6.671875,12.84375 L6.03125,12.84375 L6.03125,17.46875 C6.890625,17.734375 7.65625,18.03125 8.28125,18.265625 C8.859375,18.078125 9.234375,18.125 9.484375,18.34375 Z" transform="translate(-0.375, 20.109375) scale(1, -1)"/>
</svg>