<svg height="22.015625" viewBox="0 0 24 22.015625" width="24" xmlns="http://www.w3.org/2000/svg">
<path d="M10.03125,9.453125 L7.4375,10.203125 C6.40625,4.984375 3.953125,0.890625 0.9375,-1.625 L1.25,-1.921875 C4.84375,0.1875 7.578125,3.75 9.125,8.96875 C9.671875,8.953125 9.9375,9.171875 10.03125,9.453125 Z M4.3125,16.984375 L3.90625,16.984375 C3.984375,15.1875 2.96875,13.625 1.875,13.0625 C1.34375,12.75 1.03125,12.234375 1.265625,11.71875 C1.5625,11.109375 2.46875,11.15625 3.09375,11.609375 C3.859375,12.140625 4.609375,13.265625 4.609375,15.046875 L20.140625,15.046875 C19.875,14.046875 19.46875,12.703125 19.125,11.859375 L19.46875,11.65625 C20.328125,12.453125 21.453125,13.796875 22.109375,14.71875 C22.5625,14.765625 22.84375,14.8125 23.015625,14.96875 L21.09375,16.84375 L20.015625,15.75 L12.796875,15.75 L12.796875,19.171875 C13.421875,19.25 13.65625,19.484375 13.703125,19.828125 L11.203125,20.09375 L11.203125,15.75 L4.5625,15.75 C4.515625,16.125 4.4375,16.5625 4.3125,16.984375 Z M14.5625,10.984375 C15.53125,5.453125 17.65625,0.984375 21.59375,-1.875 C21.84375,-1.25 22.4375,-0.703125 23.15625,-0.53125 L23.25,-0.265625 C18.90625,2.015625 16.3125,6.390625 15.28125,10.78125 C16.125,10.828125 16.75,10.984375 17.046875,11.328125 L14.828125,12.90625 L14.046875,11.71875 L9.140625,11.71875 L9.359375,10.984375 Z" transform="translate(-0.09375, 20.09375) scale(1, -1)"/>
</svg>