<svg height="21.953125" viewBox="0 0 24 21.953125" width="24" xmlns="http://www.w3.org/2000/svg">
<path d="M11.25,11.203125 L8.59375,11.875 C7.578125,5.5625 4.734375,1.125 0.890625,-1.5625 L1.15625,-1.875 C5.65625,0.34375 8.765625,4.21875 10.3125,10.6875 C10.890625,10.6875 11.15625,10.890625 11.25,11.203125 Z M14.609375,11.78125 L14.109375,11.59375 C15.171875,5.640625 17.71875,0.796875 21.5,-1.890625 C21.671875,-1.125 22.25,-0.578125 23.0625,-0.359375 L23.140625,-0.09375 C19.109375,2.09375 15.8125,6.3125 14.609375,11.78125 Z M4.265625,17.09375 L3.859375,17.09375 C3.90625,15.359375 2.953125,13.703125 1.984375,13.078125 C1.484375,12.71875 1.171875,12.171875 1.421875,11.65625 C1.75,11.09375 2.65625,11.15625 3.28125,11.65625 C3.9375,12.21875 4.578125,13.375 4.5625,15.046875 L20.0625,15.046875 C19.625,13.9375 18.9375,12.484375 18.40625,11.5625 L18.71875,11.375 C19.84375,12.234375 21.3125,13.6875 22.109375,14.734375 C22.578125,14.765625 22.875,14.8125 23.0625,14.96875 L21.125,16.84375 L20.046875,15.75 L12.8125,15.75 L12.8125,19.15625 C13.421875,19.25 13.65625,19.484375 13.703125,19.828125 L11.203125,20.0625 L11.203125,15.75 L4.53125,15.75 C4.484375,16.171875 4.390625,16.609375 4.265625,17.09375 Z" transform="translate(-0.015625, 20.0625) scale(1, -1)"/>
</svg>