<svg height="21.9375" viewBox="0 0 24 21.9375" width="24" xmlns="http://www.w3.org/2000/svg">
<path d="M16.734375,9.390625 L16.734375,7.828125 L13.515625,7.828125 L13.515625,9.390625 Z M20.375,4.5625 C19.84375,3.953125 18.796875,2.859375 17.90625,2.140625 C16.875,2.921875 16.21875,3.8125 15.8125,4.6875 L22.421875,4.6875 C22.75,4.6875 22.96875,4.796875 23.046875,5.0625 C22.3125,5.71875 21.1875,6.53125 21.1875,6.53125 L20.203125,5.375 L18.171875,5.375 L18.171875,7.125 L21.28125,7.125 C21.59375,7.125 21.796875,7.25 21.859375,7.515625 C21.21875,8.140625 20.15625,8.953125 20.15625,8.953125 L19.265625,7.828125 L18.171875,7.828125 L18.171875,9.390625 L21.75,9.390625 C22.0625,9.390625 22.265625,9.5 22.34375,9.765625 C21.703125,10.390625 20.609375,11.234375 20.609375,11.234375 L19.703125,10.109375 L18.171875,10.109375 L18.171875,10.890625 C18.640625,10.96875 18.8125,11.15625 18.859375,11.453125 L16.734375,11.6875 L16.734375,10.109375 L13.515625,10.109375 L13.515625,10.9375 C13.96875,11.015625 14.15625,11.203125 14.203125,11.5 L12.046875,11.71875 L12.046875,10.109375 L8.5625,10.109375 L8.765625,9.390625 L12.046875,9.390625 L12.046875,7.828125 L9.1875,7.828125 L9.390625,7.125 L12.046875,7.125 L12.046875,5.375 L7.78125,5.375 L7.96875,4.6875 L13.015625,4.6875 C11.375,3.359375 9.125,2.234375 6.71875,1.421875 L6.9375,1.015625 C8.609375,1.390625 10.25,1.890625 11.71875,2.546875 L11.71875,0.21875 L9.265625,-0.1875 L10.109375,-1.890625 C10.3125,-1.828125 10.515625,-1.65625 10.609375,-1.34375 C13.375,-0.484375 15.40625,0.234375 16.890625,0.796875 L16.796875,1.15625 L13.125,0.453125 L13.125,3.21875 C13.921875,3.640625 14.640625,4.15625 15.265625,4.6875 L15.3125,4.6875 C15.984375,2.40625 17.546875,-0.28125 21.859375,-1.78125 C22.015625,-0.953125 22.46875,-0.71875 23.203125,-0.625 L23.25,-0.34375 C21.078125,0.265625 19.46875,1.015625 18.28125,1.84375 C19.484375,2.328125 20.71875,3 21.390625,3.453125 C21.703125,3.359375 21.9375,3.40625 22.03125,3.59375 Z M16.734375,7.125 L16.734375,5.375 L13.515625,5.375 L13.515625,7.125 Z M14.28125,20.046875 L14.28125,17.921875 L8.15625,17.921875 L8.359375,17.234375 L22.34375,17.234375 C22.6875,17.234375 22.921875,17.359375 22.984375,17.609375 C22.21875,18.3125 21.046875,19.265625 21.046875,19.265625 L19.96875,17.921875 L15.765625,17.921875 L15.765625,19.171875 C16.34375,19.25 16.578125,19.484375 16.625,19.828125 Z M9.390625,15.890625 L9.390625,11.5 L9.59375,11.5 C10.296875,11.5 10.75,11.859375 10.75,12 L10.75,12.578125 L13.203125,12.578125 L13.203125,11.875 L13.421875,11.875 C13.84375,11.875 14.546875,12.171875 14.5625,12.34375 L14.5625,15.046875 C14.921875,15.09375 15.265625,15.265625 15.359375,15.40625 L13.75,16.65625 L13.015625,15.890625 L11.046875,15.890625 L9.390625,16.609375 Z M10.75,13.265625 L10.75,15.171875 L13.203125,15.171875 L13.203125,13.265625 Z M16.171875,15.890625 L16.171875,11.6875 L16.390625,11.6875 C17.0625,11.6875 17.546875,12.03125 17.546875,12.140625 L17.546875,12.578125 L20.109375,12.578125 L20.109375,11.875 L20.328125,11.875 C20.765625,11.875 21.484375,12.171875 21.5,12.34375 L21.5,15.046875 C21.84375,15.09375 22.171875,15.265625 22.296875,15.40625 L20.65625,16.65625 L19.921875,15.890625 L17.828125,15.890625 L16.171875,16.609375 Z M17.546875,13.265625 L17.546875,15.171875 L20.109375,15.171875 L20.109375,13.265625 Z M6.9375,20.015625 C5.59375,19.171875 2.96875,17.921875 0.859375,17.234375 L0.984375,16.875 C2.046875,16.984375 3.171875,17.203125 4.25,17.46875 L4.25,13.25 L0.9375,13.25 L1.125,12.546875 L3.90625,12.546875 C3.28125,9.265625 2.15625,5.921875 0.484375,3.359375 L0.84375,3.046875 C2.25,4.625 3.390625,6.4375 4.25,8.421875 L4.25,-1.890625 L4.484375,-1.890625 C5.203125,-1.890625 5.734375,-1.515625 5.734375,-1.375 L5.734375,10.625 C6.359375,9.71875 7.015625,8.5 7.15625,7.484375 C8.46875,6.390625 9.75,9.140625 5.734375,11.234375 L5.734375,12.546875 L8.40625,12.546875 C8.734375,12.546875 8.953125,12.671875 9,12.9375 C8.359375,13.609375 7.25,14.515625 7.25,14.515625 L6.265625,13.25 L5.734375,13.25 L5.734375,17.828125 C6.453125,18.03125 7.109375,18.21875 7.625,18.40625 C8.203125,18.1875 8.609375,18.1875 8.828125,18.40625 Z" transform="translate(0.1328125, 20.046875) scale(1, -1)"/>
</svg>