<svg height="22.078125" viewBox="0 0 24 22.078125" width="24" xmlns="http://www.w3.org/2000/svg">
<path d="M7.984375,9.09375 L5.65625,9.453125 C5.40625,8.140625 4.421875,5.109375 3.765625,3.8125 C4.421875,3.59375 5.046875,3.59375 5.40625,3.796875 L6.03125,5.421875 L12.765625,5.421875 C9.984375,2.953125 5.734375,0.8125 1.125,-0.484375 L1.296875,-0.890625 C6.546875,0.1875 11.296875,2.109375 14.5,4.796875 L14.5,0.40625 C14.5,0.078125 14.375,-0.078125 13.890625,-0.078125 C13.3125,-0.078125 10.515625,0.140625 10.515625,0.140625 L10.515625,-0.234375 C11.765625,-0.359375 12.4375,-0.578125 12.84375,-0.8125 C13.171875,-1.0625 13.375,-1.4375 13.421875,-1.890625 C15.75,-1.703125 16.078125,-0.84375 16.078125,0.359375 L16.078125,5.421875 L22.375,5.421875 C22.6875,5.421875 22.921875,5.546875 22.984375,5.8125 C22.203125,6.546875 20.953125,7.515625 20.953125,7.515625 L19.84375,6.125 L16.078125,6.125 L16.078125,9.9375 L20.71875,9.9375 C21.046875,9.9375 21.265625,10.0625 21.328125,10.3125 C20.5625,11.046875 19.3125,11.953125 19.3125,11.953125 L18.265625,10.65625 L3.59375,10.65625 L3.796875,9.9375 L14.5,9.9375 L14.5,6.125 L6.265625,6.125 C6.59375,7.03125 6.90625,7.9375 7.078125,8.5 C7.65625,8.515625 7.890625,8.78125 7.984375,9.09375 Z M4.46875,18.53125 L4.078125,18.53125 C4.078125,17.09375 3.078125,15.953125 2.09375,15.578125 C1.578125,15.3125 1.203125,14.875 1.390625,14.328125 C1.609375,13.75 2.453125,13.734375 3.09375,14.0625 C3.84375,14.421875 4.609375,15.34375 4.6875,16.78125 L9.046875,16.78125 C8.15625,14.015625 5.96875,12.40625 2.09375,11.296875 L2.234375,10.921875 C6.8125,11.765625 9.703125,13.375 10.84375,16.78125 L13.5625,16.78125 L13.5625,13.6875 C13.5625,12.59375 13.875,12.28125 15.671875,12.28125 L18.046875,12.28125 C21.625,12.28125 22.265625,12.484375 22.265625,13.125 C22.265625,13.421875 22.109375,13.578125 21.578125,13.734375 L21.484375,14.953125 L21.234375,14.953125 C21.046875,14.375 20.8125,13.890625 20.65625,13.703125 C20.546875,13.609375 20.40625,13.578125 20.1875,13.5625 C19.875,13.53125 19.0625,13.53125 18.171875,13.53125 L15.953125,13.53125 C15.1875,13.53125 15.125,13.609375 15.125,13.890625 L15.125,16.78125 L19.75,16.78125 C19.4375,16.125 19.015625,15.359375 18.671875,14.859375 L18.984375,14.6875 C19.875,15.125 21.078125,15.890625 21.75,16.515625 C22.21875,16.53125 22.484375,16.5625 22.6875,16.75 L20.828125,18.5 L19.796875,17.46875 L12.765625,17.46875 L12.765625,19.265625 C13.34375,19.375 13.578125,19.578125 13.625,19.921875 L11.1875,20.1875 L11.1875,17.46875 L4.65625,17.46875 C4.625,17.8125 4.5625,18.140625 4.46875,18.53125 Z" transform="translate(-0.0546875, 20.1875) scale(1, -1)"/>
</svg>