<svg height="22.125" viewBox="0 0 24 22.125" width="24" xmlns="http://www.w3.org/2000/svg">
<path d="M10.03125,9.703125 L10.25,8.96875 L14.234375,8.96875 C14.09375,5.109375 13.46875,1.34375 7.65625,-1.5625 L7.984375,-1.9375 C14.734375,0.796875 15.625,4.703125 15.890625,8.96875 L20.375,8.96875 C20.109375,4.171875 19.65625,0.84375 19.015625,0.171875 C18.796875,0 18.625,-0.078125 18.265625,-0.078125 C17.8125,-0.078125 16.125,0.078125 15.140625,0.171875 L15.140625,-0.234375 C16.03125,-0.359375 17.015625,-0.625 17.375,-0.84375 C17.6875,-1.078125 17.828125,-1.515625 17.828125,-1.84375 C18.75,-1.84375 19.484375,-1.609375 19.984375,-1.109375 C21.09375,-0.09375 21.59375,3.53125 21.859375,8.78125 C22.375,8.859375 22.65625,8.96875 22.828125,9.171875 L21.046875,10.625 L20.140625,9.703125 Z M3.90625,10.65625 L3.90625,6.59375 L0.9375,6.140625 L1.21875,5.5 L3.90625,5.90625 L3.90625,1.796875 C3.90625,0.75 4.171875,0.34375 5.65625,0.34375 L7.21875,0.34375 C9.75,0.34375 10.421875,0.640625 10.421875,1.265625 C10.421875,1.5625 10.265625,1.734375 9.8125,1.921875 L9.75,4.34375 L9.4375,4.34375 C9.234375,3.34375 8.96875,2.25 8.828125,1.984375 C8.765625,1.828125 8.65625,1.796875 8.5,1.78125 C8.296875,1.75 7.84375,1.75 7.296875,1.75 L6.03125,1.75 C5.5,1.75 5.421875,1.84375 5.421875,2.1875 L5.421875,6.140625 L10.703125,6.953125 C10.984375,6.984375 11.203125,7.171875 11.234375,7.421875 C10.421875,7.96875 9.09375,8.71875 9.09375,8.71875 L8.234375,7.25 L5.421875,6.8125 L5.421875,9.8125 C5.875,9.890625 6.09375,10.125 6.140625,10.390625 Z M3.671875,18.765625 C3.8125,17.28125 3.078125,15.890625 2.15625,15.390625 C1.6875,15.125 1.375,14.640625 1.578125,14.140625 C1.828125,13.578125 2.640625,13.609375 3.234375,13.984375 C3.890625,14.421875 4.46875,15.390625 4.4375,16.796875 L8.609375,16.796875 C7.84375,13.578125 5.640625,11.828125 1.25,10.625 L1.375,10.25 C6.546875,11.140625 9.4375,12.9375 10.46875,16.796875 L13.578125,16.796875 L13.578125,13.078125 C13.578125,11.953125 13.890625,11.640625 15.765625,11.640625 L18.390625,11.640625 C22.15625,11.640625 22.828125,11.859375 22.828125,12.546875 C22.828125,12.859375 22.6875,13.015625 22.15625,13.171875 L22.078125,15 L21.796875,15 C21.546875,14.15625 21.328125,13.46875 21.1875,13.203125 C21.078125,13.0625 20.953125,13.03125 20.71875,13.015625 C20.359375,12.984375 19.484375,12.984375 18.453125,12.984375 L16.0625,12.984375 C15.1875,12.984375 15.125,13.03125 15.125,13.375 L15.125,16.796875 L20.09375,16.796875 C19.796875,16.109375 19.421875,15.28125 19.109375,14.765625 L19.390625,14.5625 C20.25,15.046875 21.40625,15.890625 22.0625,16.53125 C22.515625,16.5625 22.796875,16.609375 22.96875,16.75 L21.125,18.546875 L20.109375,17.515625 L12.765625,17.515625 L12.765625,19.296875 C13.34375,19.375 13.578125,19.609375 13.625,19.921875 L11.1875,20.1875 L11.1875,17.515625 L4.375,17.515625 C4.3125,17.90625 4.21875,18.34375 4.0625,18.796875 Z" transform="translate(0.046875, 20.1875) scale(1, -1)"/>
</svg>