<svg height="22.0625" viewBox="0 0 24 22.0625" width="24" xmlns="http://www.w3.org/2000/svg">
<path d="M10.421875,13.25 C10.203125,12.390625 9.8125,11.140625 9.53125,10.34375 L5.5625,10.34375 L3.796875,11.109375 L3.796875,-1.875 L4.03125,-1.875 C4.78125,-1.875 5.28125,-1.515625 5.28125,-1.390625 L5.28125,-0.125 L18.984375,-0.125 L18.984375,-1.609375 L19.21875,-1.609375 C19.921875,-1.609375 20.515625,-1.21875 20.515625,-1.125 L20.515625,9.53125 C21.046875,9.59375 21.3125,9.765625 21.484375,9.9375 L19.703125,11.328125 L18.890625,10.34375 L10.46875,10.34375 C10.96875,10.890625 11.59375,11.640625 12.03125,12.171875 C12.5,12.140625 12.8125,12.3125 12.90625,12.640625 Z M6.8125,7.15625 L6.703125,6.765625 C7.375,6.53125 8.046875,6.265625 8.65625,6 C7.890625,5.234375 7.03125,4.53125 6.140625,4.015625 L6.40625,3.640625 C7.53125,4.15625 8.609375,4.828125 9.546875,5.609375 C10.515625,5.15625 11.375,4.703125 12.171875,4.25 C10.578125,3 8.5625,2.015625 6.28125,1.34375 L6.5,0.90625 C9.140625,1.484375 11.375,2.40625 13.15625,3.625 C14.421875,2.8125 15.390625,1.984375 15.984375,1.34375 C17.1875,0.796875 17.78125,2.5 14.28125,4.484375 C15.140625,5.234375 15.859375,6.078125 16.46875,7.015625 C17.015625,7.015625 17.28125,7.0625 17.46875,7.25 L15.90625,8.65625 L14.921875,7.796875 L11.765625,7.796875 C12.046875,8.140625 12.28125,8.46875 12.5,8.8125 C13.109375,8.71875 13.296875,8.8125 13.390625,9.046875 L11.46875,9.671875 L18.984375,9.671875 L18.984375,0.59375 L5.28125,0.59375 L5.28125,9.671875 L11.296875,9.671875 C10.796875,8.609375 10.0625,7.515625 9.171875,6.53125 C8.453125,6.75 7.65625,6.953125 6.8125,7.15625 Z M11.15625,7.109375 L14.8125,7.109375 C14.359375,6.390625 13.796875,5.6875 13.15625,5.0625 C12.359375,5.453125 11.40625,5.828125 10.25,6.1875 C10.578125,6.5 10.890625,6.796875 11.15625,7.109375 Z M3.59375,18.5 C3.625,17.25 2.765625,16.25 1.84375,15.90625 C1.34375,15.671875 0.984375,15.234375 1.15625,14.6875 C1.390625,14.140625 2.1875,14.09375 2.8125,14.40625 C3.5,14.734375 4.15625,15.546875 4.25,16.828125 L8.46875,16.828125 C7.65625,13.84375 5.46875,12.140625 1.3125,10.96875 L1.421875,10.578125 C6.34375,11.453125 9.21875,13.171875 10.3125,16.828125 L13.84375,16.828125 L13.84375,13.46875 C13.84375,12.359375 14.15625,12.03125 15.984375,12.03125 L18.4375,12.03125 C22.0625,12.03125 22.734375,12.234375 22.734375,12.90625 C22.734375,13.203125 22.5625,13.34375 22.03125,13.515625 L21.9375,14.765625 L21.703125,14.765625 C21.484375,14.1875 21.28125,13.703125 21.125,13.515625 C21,13.390625 20.859375,13.375 20.640625,13.375 C20.296875,13.3125 19.484375,13.3125 18.53125,13.3125 L16.296875,13.3125 C15.484375,13.3125 15.40625,13.390625 15.40625,13.703125 L15.40625,16.828125 L20.109375,16.828125 C19.828125,16.125 19.421875,15.34375 19.125,14.8125 L19.421875,14.640625 C20.25,15.09375 21.40625,15.90625 22.0625,16.53125 C22.515625,16.578125 22.796875,16.609375 22.96875,16.78125 L21.125,18.546875 L20.109375,17.515625 L12.765625,17.515625 L12.765625,19.3125 C13.34375,19.390625 13.578125,19.625 13.625,19.9375 L11.1875,20.1875 L11.1875,17.515625 L4.21875,17.515625 C4.203125,17.828125 4.125,18.171875 4.03125,18.53125 Z" transform="translate(0.0234375, 20.1875) scale(1, -1)"/>
</svg>