<svg height="22.171875" viewBox="0 0 24 22.171875" width="24" xmlns="http://www.w3.org/2000/svg">
<path d="M2.515625,10.609375 L2.234375,10.46875 C2.765625,9.71875 3.265625,8.46875 3.21875,7.46875 C4.296875,6.359375 5.765625,8.78125 2.515625,10.609375 Z M9,10.9375 C8.765625,10.078125 8.203125,8.375 7.75,7.296875 L8.046875,7.15625 C8.859375,8.015625 9.703125,9.078125 10.171875,9.765625 C10.625,9.703125 10.921875,9.9375 10.96875,10.15625 Z M13.515625,5.296875 L13.515625,9.28125 L19.25,9.28125 L19.25,5.296875 Z M12.125,10.015625 L12.125,5.421875 L10.875,6 L10.875,-1.890625 L11.09375,-1.890625 C11.6875,-1.890625 12.3125,-1.5625 12.3125,-1.421875 L12.3125,4.578125 L15.234375,4.578125 C15.03125,3.75 14.765625,2.6875 14.5,1.96875 L12.8125,1.921875 L13.625,0.28125 C13.875,0.359375 14.046875,0.484375 14.1875,0.765625 C15.9375,1.125 17.25,1.421875 18.234375,1.625 C18.40625,1.296875 18.546875,0.984375 18.59375,0.671875 C19.703125,-0.21875 20.765625,2.0625 17.25,3.5 L16.96875,3.3125 C17.296875,3 17.65625,2.59375 17.953125,2.140625 L15.234375,1.984375 C15.703125,2.71875 16.21875,3.703125 16.625,4.578125 L20.609375,4.578125 L20.609375,0.078125 C20.609375,-0.1875 20.515625,-0.234375 20.234375,-0.234375 C19.515625,-0.234375 18.1875,-0.140625 18.1875,-0.140625 L18.1875,-0.484375 C18.9375,-0.546875 19.46875,-0.71875 19.703125,-0.984375 C19.890625,-1.203125 20.015625,-1.46875 20.015625,-1.875 C21.796875,-1.78125 22.078125,-1.125 22.078125,-0.078125 L22.078125,4.21875 C22.4375,4.296875 22.796875,4.484375 22.96875,4.65625 L21.5,6.09375 L20.953125,5.296875 L20.609375,5.296875 L20.609375,9.171875 C20.953125,9.234375 21.28125,9.40625 21.390625,9.546875 L19.828125,10.75 L19.0625,10.015625 L17.046875,10.015625 L17.046875,11.109375 L21.578125,11.109375 C21.90625,11.109375 22.125,11.234375 22.203125,11.5 C21.5,12.09375 20.40625,12.90625 20.40625,12.90625 L19.46875,11.828125 L17.046875,11.828125 L17.046875,12.484375 C17.46875,12.546875 17.65625,12.75 17.6875,13.03125 L15.546875,13.265625 L15.546875,10.015625 L13.796875,10.015625 L12.125,10.734375 Z M3.390625,18.984375 C3.4375,18 2.71875,17.09375 1.921875,16.828125 C1.4375,16.578125 1.109375,16.171875 1.265625,15.640625 C1.46875,15.125 2.234375,15.046875 2.78125,15.34375 C3.390625,15.625 3.90625,16.296875 4.015625,17.296875 L8.5625,17.296875 C7.609375,14.90625 5.203125,13.703125 1.21875,12.953125 L1.34375,12.578125 C6,13.0625 9.171875,14.203125 10.421875,17.296875 L13.53125,17.296875 L13.53125,15 C13.53125,13.9375 13.828125,13.609375 15.640625,13.609375 L18.21875,13.609375 C21.9375,13.609375 22.5625,13.828125 22.5625,14.453125 C22.5625,14.734375 22.421875,14.90625 21.859375,15.046875 L21.796875,16.15625 L21.53125,16.15625 C21.359375,15.625 21.140625,15.1875 20.96875,15.046875 C20.875,14.921875 20.71875,14.90625 20.5,14.875 C20.15625,14.859375 19.296875,14.859375 18.34375,14.859375 L15.953125,14.859375 C15.140625,14.859375 15.078125,14.921875 15.078125,15.1875 L15.078125,17.296875 L20.109375,17.296875 C19.875,16.734375 19.578125,16.0625 19.375,15.640625 L19.703125,15.4375 C20.375,15.8125 21.3125,16.53125 21.796875,17.0625 C22.25,17.09375 22.53125,17.109375 22.703125,17.296875 L21,18.9375 L20.09375,18 L12.765625,18 L12.765625,19.390625 C13.34375,19.46875 13.578125,19.703125 13.609375,20.015625 L11.203125,20.28125 L11.203125,18 L4.015625,18 C3.984375,18.3125 3.90625,18.640625 3.796875,19.015625 Z M15.890625,9.171875 C15.5,7.78125 14.8125,6.578125 13.984375,5.78125 L14.328125,5.5 C15.078125,5.90625 15.75,6.578125 16.265625,7.390625 C16.875,6.953125 17.46875,6.34375 17.6875,5.78125 C18.640625,5.203125 19.296875,6.984375 16.515625,7.78125 L16.734375,8.203125 C17.1875,8.15625 17.453125,8.359375 17.546875,8.609375 Z M1.109375,6.703125 L1.296875,5.96875 L4.96875,5.96875 C4.125,3.796875 2.78125,1.6875 1.015625,0.078125 L1.296875,-0.3125 C3.046875,0.84375 4.484375,2.234375 5.5625,3.859375 L5.5625,-1.875 L5.8125,-1.875 C6.53125,-1.875 7.0625,-1.515625 7.0625,-1.390625 L7.0625,4.484375 C7.9375,3.703125 8.921875,2.46875 9.1875,1.515625 C10.578125,0.546875 11.6875,3.4375 7.0625,4.921875 L7.0625,5.96875 L10.609375,5.96875 C10.9375,5.96875 11.15625,6.09375 11.234375,6.359375 C10.578125,6.953125 9.59375,7.703125 9.59375,7.703125 L8.734375,6.703125 L7.0625,6.703125 L7.0625,11.46875 C8.109375,11.640625 9.09375,11.828125 9.890625,12 C10.390625,11.8125 10.78125,11.78125 10.984375,12 L9.453125,13.46875 C7.6875,12.671875 4.265625,11.734375 1.4375,11.328125 L1.53125,10.890625 C2.859375,10.9375 4.25,11.09375 5.5625,11.25 L5.5625,6.703125 Z" transform="translate(0.0078125, 20.28125) scale(1, -1)"/>
</svg>