<svg height="20.59375" viewBox="0 0 24 20.59375" width="24" xmlns="http://www.w3.org/2000/svg">
<path d="M12.59375,12.578125 L12.21875,12.40625 C13.625,9.234375 13.734375,4.703125 13.484375,2.421875 C14.65625,0.28125 17.375,5.71875 12.59375,12.578125 Z M2.65625,13.078125 L2.296875,12.9375 C3.28125,10.34375 3.40625,6.53125 3.3125,4.609375 C4.296875,2.875 6.5,7.109375 2.65625,13.078125 Z M15.640625,20.046875 L15.640625,15 L11.203125,15 L11.40625,14.28125 L22.203125,14.28125 C22.53125,14.28125 22.78125,14.40625 22.84375,14.65625 C22.0625,15.40625 20.78125,16.4375 20.78125,16.4375 L19.6875,15 L17.25,15 L17.25,19.15625 C17.859375,19.21875 18.09375,19.46875 18.140625,19.796875 Z M18.859375,12.796875 C18.34375,9.09375 17.40625,3.90625 16.65625,0.140625 L9.046875,0.140625 L9.234375,-0.546875 L22.515625,-0.546875 C22.84375,-0.546875 23.109375,-0.4375 23.15625,-0.171875 C22.375,0.59375 21.046875,1.65625 21.046875,1.65625 L19.890625,0.140625 L17.140625,0.140625 C18.4375,3.765625 19.828125,8.46875 20.5625,11.59375 C21.140625,11.59375 21.40625,11.828125 21.5,12.125 Z M4.9375,19.984375 L4.9375,15.046875 L1.03125,15.046875 L1.21875,14.359375 L10.484375,14.359375 C10.828125,14.359375 11.0625,14.46875 11.140625,14.734375 C10.375,15.484375 9.125,16.53125 9.125,16.53125 L8.015625,15.046875 L6.484375,15.046875 L6.484375,19.125 C7.0625,19.21875 7.25,19.46875 7.296875,19.78125 Z M7.375,13.421875 C7.125,10.515625 6.5,6.53125 5.875,3.578125 C3.796875,2.859375 1.9375,2.296875 0.859375,2.015625 L1.875,0.03125 C2.09375,0.09375 2.296875,0.359375 2.359375,0.625 C5.90625,2.203125 8.6875,3.71875 10.734375,4.921875 L10.609375,5.25 C9.21875,4.734375 7.796875,4.21875 6.484375,3.765625 C7.515625,6.546875 8.46875,9.9375 8.96875,12.3125 C9.5,12.34375 9.765625,12.578125 9.84375,12.890625 Z" transform="translate(-0.0078125, 20.046875) scale(1, -1)"/>
</svg>