<svg height="21.984375" viewBox="0 0 24 21.984375" width="24" xmlns="http://www.w3.org/2000/svg">
<path d="M5.234375,20.109375 C4.375,15.796875 2.6875,11.734375 0.796875,9.078125 L1.125,8.8125 C2.515625,10.125 3.75,11.859375 4.78125,13.875 L6.171875,13.875 L6.171875,-1.84375 L6.4375,-1.84375 C7.25,-1.84375 7.75,-1.46875 7.75,-1.34375 L7.75,13.875 L11.734375,13.875 C12.078125,13.875 12.28125,13.984375 12.359375,14.25 C11.640625,15 10.390625,15.953125 10.390625,15.953125 L9.34375,14.59375 L5.109375,14.59375 C5.765625,15.9375 6.3125,17.421875 6.765625,18.953125 C7.296875,18.953125 7.5625,19.171875 7.65625,19.484375 Z M14.5625,20.140625 C13.65625,15.765625 11.828125,11.734375 9.796875,9.140625 L10.125,8.875 C11.609375,10.171875 12.953125,11.859375 14.0625,13.875 L17.28125,13.875 L17.28125,0.625 C17.28125,0.265625 17.15625,0.140625 16.703125,0.140625 C16.203125,0.140625 13.65625,0.3125 13.65625,0.3125 L13.65625,-0.046875 C14.8125,-0.1875 15.4375,-0.359375 15.8125,-0.671875 C16.125,-0.9375 16.265625,-1.375 16.296875,-1.84375 C18.546875,-1.625 18.859375,-0.703125 18.859375,0.546875 L18.859375,13.875 L22.65625,13.875 C22.984375,13.875 23.203125,13.984375 23.28125,14.25 C22.484375,15.03125 21.21875,16.03125 21.21875,16.03125 L20.0625,14.59375 L14.453125,14.59375 C15.140625,15.90625 15.75,17.375 16.21875,18.90625 C16.78125,18.890625 17.0625,19.125 17.109375,19.390625 Z" transform="translate(-0.0390625, 20.140625) scale(1, -1)"/>
</svg>