<svg height="22.109375" viewBox="0 0 24 22.109375" width="24" xmlns="http://www.w3.org/2000/svg">
<path d="M3.09375,12.859375 L3.3125,12.140625 L7.078125,12.140625 C6.703125,6.53125 5.15625,1.890625 0.890625,-1.65625 L1.125,-1.96875 C4.984375,0.390625 7.015625,3.53125 8.0625,7.4375 C9.1875,5.15625 10.875,3.34375 12.90625,1.875 C10.625,0.390625 7.78125,-0.71875 4.4375,-1.46875 L4.609375,-1.875 C8.375,-1.296875 11.46875,-0.265625 13.96875,1.171875 C16.25,-0.21875 18.9375,-1.21875 21.890625,-1.890625 C22.125,-1.078125 22.65625,-0.578125 23.375,-0.453125 L23.421875,-0.1875 C20.5625,0.234375 17.8125,1.015625 15.390625,2.109375 C17.40625,3.546875 18.953125,5.359375 20.109375,7.484375 C20.6875,7.484375 20.96875,7.5625 21.171875,7.78125 L19.421875,9.40625 L18.28125,8.421875 L15.484375,8.421875 L16.3125,12 C16.75,12.046875 16.9375,12.09375 17.109375,12.265625 L15.484375,13.703125 L14.65625,12.859375 Z M8.875,12.140625 L14.71875,12.140625 L13.828125,8.421875 L8.296875,8.421875 C8.5625,9.59375 8.734375,10.84375 8.875,12.140625 Z M14.140625,2.734375 C11.734375,4.015625 9.765625,5.65625 8.46875,7.734375 L18.234375,7.734375 C17.296875,5.78125 15.90625,4.109375 14.140625,2.734375 Z M5.015625,20.140625 C4.03125,17.0625 2.40625,14.15625 0.859375,12.390625 L1.171875,12.09375 C2.640625,13.203125 4.03125,14.828125 5.1875,16.703125 L6.34375,16.703125 C6.9375,15.9375 7.46875,14.78125 7.4375,13.828125 C8.6875,12.71875 10.078125,15.078125 7.296875,16.703125 L12.046875,16.703125 C12.390625,16.703125 12.59375,16.796875 12.671875,17.0625 C11.96875,17.734375 10.875,18.625 10.875,18.625 L9.890625,17.375 L5.59375,17.375 C5.859375,17.859375 6.125,18.359375 6.359375,18.859375 C6.859375,18.84375 7.15625,19.03125 7.25,19.296875 Z M14.234375,20.140625 C13.484375,17.640625 12.265625,15.21875 11.09375,13.703125 L11.421875,13.4375 C12.453125,14.25 13.484375,15.390625 14.359375,16.703125 L15.671875,16.703125 C16.4375,15.90625 17.140625,14.71875 17.234375,13.6875 C18.59375,12.59375 19.921875,15.140625 16.796875,16.703125 L22.203125,16.703125 C22.53125,16.703125 22.75,16.796875 22.828125,17.0625 C22.0625,17.78125 20.8125,18.75 20.8125,18.75 L19.734375,17.375 L14.78125,17.375 C15.078125,17.859375 15.359375,18.359375 15.59375,18.890625 C16.109375,18.84375 16.390625,19.0625 16.484375,19.3125 Z" transform="translate(-0.140625, 20.140625) scale(1, -1)"/>
</svg>