<svg height="21.984375" viewBox="0 0 24 21.984375" width="24" xmlns="http://www.w3.org/2000/svg">
<path d="M4.34375,15.21875 L4.109375,15.03125 C4.96875,14.328125 5.96875,13.0625 6.1875,12.046875 C7.65625,10.984375 8.90625,13.984375 4.34375,15.21875 Z M9.75,15.4375 L9.484375,15.234375 C10.21875,14.5 11.046875,13.25 11.1875,12.1875 C12.578125,11.046875 14.046875,13.921875 9.75,15.4375 Z M5.65625,7.890625 L11.1875,7.890625 L11.1875,5.5625 L5.65625,5.5625 Z M5.65625,8.609375 L5.65625,10.890625 L11.1875,10.890625 L11.1875,8.609375 Z M18.3125,7.890625 L18.3125,5.5625 L12.71875,5.5625 L12.71875,7.890625 Z M18.3125,8.609375 L12.71875,8.609375 L12.71875,10.890625 L18.3125,10.890625 Z M14.28125,20.140625 C13.5625,18.078125 12.453125,16.0625 11.453125,14.8125 L11.78125,14.546875 C12.625,15.171875 13.484375,16.03125 14.28125,17.046875 L15.359375,17.046875 C15.890625,16.375 16.390625,15.40625 16.484375,14.640625 C16.734375,14.453125 16.9375,14.375 17.15625,14.40625 C16.5625,13.421875 15.8125,12.359375 15.171875,11.59375 L5.8125,11.59375 L4.125,12.359375 L4.125,3.703125 L4.375,3.703125 C4.984375,3.703125 5.65625,4.03125 5.65625,4.203125 L5.65625,4.84375 L11.1875,4.84375 L11.1875,2.5625 L0.953125,2.5625 L1.171875,1.875 L11.1875,1.875 L11.1875,-1.84375 L11.421875,-1.84375 C12.1875,-1.84375 12.71875,-1.484375 12.71875,-1.375 L12.71875,1.875 L22.390625,1.875 C22.734375,1.875 22.9375,1.984375 23.015625,2.25 C22.21875,2.96875 20.953125,4.015625 20.953125,4.015625 L19.828125,2.5625 L12.71875,2.5625 L12.71875,4.84375 L18.3125,4.84375 L18.3125,3.90625 L18.546875,3.90625 C19.0625,3.90625 19.84375,4.21875 19.875,4.375 L19.875,10.625 C20.28125,10.734375 20.65625,10.921875 20.8125,11.09375 L18.9375,12.53125 L18.09375,11.59375 L15.84375,11.59375 C16.984375,12.34375 18.28125,13.375 19.109375,14.15625 C19.609375,14.109375 19.921875,14.234375 20.0625,14.515625 L17.90625,15.3125 C17.875,15.84375 17.515625,16.484375 16.5625,17.046875 L22.109375,17.046875 C22.4375,17.046875 22.6875,17.15625 22.75,17.421875 C21.953125,18.171875 20.734375,19.109375 20.734375,19.109375 L19.625,17.765625 L14.78125,17.765625 C15.046875,18.140625 15.3125,18.53125 15.53125,18.9375 C16.03125,18.890625 16.3125,19.109375 16.421875,19.34375 Z M4.6875,20.140625 C3.796875,17.5625 2.328125,15.125 0.9375,13.65625 L1.25,13.421875 C2.546875,14.25 3.796875,15.53125 4.828125,17.046875 L6.359375,17.046875 C6.859375,16.375 7.34375,15.390625 7.4375,14.640625 C8.59375,13.6875 9.84375,15.625 7.421875,17.046875 L12.21875,17.046875 C12.53125,17.046875 12.796875,17.15625 12.84375,17.421875 C12.140625,18.125 11.015625,19.015625 11.015625,19.015625 L10.0625,17.765625 L5.296875,17.765625 L5.953125,18.859375 C6.453125,18.8125 6.75,19.015625 6.84375,19.25 Z" transform="translate(0.0234375, 20.140625) scale(1, -1)"/>
</svg>