<svg height="22.03125" viewBox="0 0 24 22.03125" width="24" xmlns="http://www.w3.org/2000/svg">
<path d="M14.375,9.75 L14.375,1.3125 L14.640625,1.3125 C15.1875,1.3125 15.84375,1.625 15.84375,1.84375 L15.84375,8.828125 C16.4375,8.921875 16.65625,9.140625 16.703125,9.484375 Z M19.109375,10.21875 L19.109375,0.390625 C19.109375,0.046875 19.015625,-0.09375 18.578125,-0.09375 C18.09375,-0.09375 15.8125,0.078125 15.8125,0.078125 L15.8125,-0.28125 C16.828125,-0.40625 17.40625,-0.578125 17.765625,-0.8125 C18.03125,-1.0625 18.140625,-1.4375 18.21875,-1.875 C20.375,-1.6875 20.65625,-0.9375 20.65625,0.3125 L20.65625,9.34375 C21.1875,9.4375 21.4375,9.59375 21.5,9.953125 Z M5.546875,7.75 L5.328125,7.484375 C6.21875,7.03125 7.421875,6.078125 7.921875,5.328125 C9.359375,4.65625 10.078125,7.390625 5.546875,7.75 Z M5.28125,4.484375 L5.0625,4.25 C6.046875,3.75 7.296875,2.6875 7.734375,1.828125 C9.21875,1.109375 9.9375,3.984375 5.28125,4.484375 Z M14.1875,20.140625 C13.21875,17.859375 11.71875,15.765625 10.3125,14.5625 L10.609375,14.25 C11.78125,14.875 12.984375,15.84375 14.046875,17.046875 L15.53125,17.046875 C16.078125,16.375 16.578125,15.40625 16.65625,14.640625 L16.734375,14.59375 L15.21875,15.140625 C14.875,14.25 14.359375,13.0625 13.84375,12.1875 L8.8125,12.1875 C9.484375,12.796875 9.09375,14.609375 5.78125,14.96875 L5.546875,14.765625 C6.390625,14.1875 7.390625,13.109375 7.75,12.1875 L0.984375,12.1875 L1.203125,11.5 L22.421875,11.5 C22.75,11.5 23.015625,11.609375 23.09375,11.875 C22.25,12.640625 20.953125,13.625 20.953125,13.625 L19.78125,12.1875 L14.609375,12.1875 C15.359375,12.75 16.109375,13.390625 16.625,13.921875 C17.09375,13.875 17.421875,14.046875 17.546875,14.296875 L17.28125,14.40625 C18.21875,14.375 18.703125,15.9375 16.75,17.046875 L22.34375,17.046875 C22.6875,17.046875 22.890625,17.15625 22.96875,17.421875 C22.203125,18.171875 20.953125,19.109375 20.953125,19.109375 L19.875,17.765625 L14.640625,17.765625 C14.90625,18.125 15.1875,18.5 15.4375,18.890625 C15.90625,18.796875 16.203125,18.984375 16.3125,19.21875 Z M3.265625,9.453125 L3.265625,-1.84375 L3.5,-1.84375 C4.15625,-1.84375 4.75,-1.46875 4.75,-1.3125 L4.75,8.765625 L9.953125,8.765625 L9.953125,0.21875 C9.953125,-0.125 9.84375,-0.265625 9.453125,-0.265625 C8.96875,-0.265625 7.109375,-0.125 7.109375,-0.125 L7.109375,-0.484375 C7.984375,-0.578125 8.5,-0.765625 8.78125,-0.953125 C9.046875,-1.15625 9.140625,-1.515625 9.21875,-1.890625 C11.203125,-1.703125 11.46875,-1.03125 11.46875,0.078125 L11.46875,8.46875 C11.953125,8.546875 12.34375,8.734375 12.484375,8.90625 L10.484375,10.421875 L9.71875,9.453125 L4.875,9.453125 L3.265625,10.21875 Z M4.84375,20.140625 C3.9375,17.640625 2.40625,15.390625 0.90625,14.046875 L1.21875,13.75 C2.546875,14.515625 3.84375,15.625 4.921875,17.046875 L6.28125,17.046875 C6.765625,16.375 7.25,15.453125 7.34375,14.71875 C8.46875,13.78125 9.671875,15.671875 7.34375,17.046875 L11.90625,17.046875 C12.21875,17.046875 12.453125,17.15625 12.53125,17.421875 C11.828125,18.125 10.703125,19.015625 10.703125,19.015625 L9.71875,17.765625 L5.453125,17.765625 C5.6875,18.09375 5.90625,18.453125 6.09375,18.84375 C6.625,18.765625 6.9375,18.953125 7.03125,19.21875 Z" transform="translate(0, 20.140625) scale(1, -1)"/>
</svg>