<svg height="22.015625" viewBox="0 0 24 22.015625" width="24" xmlns="http://www.w3.org/2000/svg">
<path d="M17.609375,5.375 L17.609375,3.140625 L7.828125,3.140625 L7.828125,5.375 Z M20.046875,14.375 C19.3125,13.625 18.453125,12.859375 17.515625,12.125 C16.75,12.8125 15.625,13.625 15.625,13.625 L14.59375,12.40625 L11.359375,12.40625 L11.359375,13.96875 C11.90625,14.0625 12.09375,14.28125 12.140625,14.5625 L9.8125,14.8125 L9.8125,12.40625 L4.0625,12.40625 L4.25,11.71875 L9.8125,11.71875 L9.8125,9.09375 L1.03125,9.09375 L1.25,8.40625 L11.859375,8.40625 C10.484375,7.625 9.078125,6.90625 7.609375,6.234375 L6.3125,6.84375 L6.3125,5.65625 C4.53125,4.921875 2.734375,4.21875 0.953125,3.671875 L1.125,3.265625 C2.875,3.703125 4.609375,4.21875 6.3125,4.828125 L6.3125,-1.875 L6.53125,-1.875 C7.171875,-1.875 7.828125,-1.515625 7.828125,-1.375 L7.828125,-0.625 L17.609375,-0.625 L17.609375,-1.65625 L17.859375,-1.65625 C18.359375,-1.65625 19.15625,-1.296875 19.171875,-1.15625 L19.171875,5.09375 C19.65625,5.1875 20.046875,5.375 20.1875,5.5625 L18.234375,7.0625 L17.375,6.078125 L9.53125,6.078125 C11.203125,6.796875 12.84375,7.578125 14.328125,8.40625 L22.421875,8.40625 C22.75,8.40625 22.96875,8.515625 23.046875,8.78125 C22.25,9.484375 21.03125,10.390625 21.03125,10.390625 L19.921875,9.09375 L15.546875,9.09375 C17.640625,10.3125 19.46875,11.609375 20.828125,12.890625 C21.359375,12.640625 21.625,12.703125 21.84375,12.9375 Z M7.828125,2.453125 L17.609375,2.453125 L17.609375,0.09375 L7.828125,0.09375 Z M11.359375,11.71875 L16.9375,11.71875 L16.984375,11.71875 C15.796875,10.828125 14.46875,9.9375 13.0625,9.09375 L11.359375,9.09375 Z M5.046875,20.140625 C4.109375,17.453125 2.546875,15 1.03125,13.484375 L1.34375,13.21875 C2.65625,14.0625 3.953125,15.3125 5.046875,16.796875 L6.21875,16.796875 C6.671875,16.078125 7.125,15.078125 7.15625,14.234375 C8.296875,13.203125 9.625,15.234375 7.15625,16.796875 L12.078125,16.796875 C12.40625,16.796875 12.640625,16.921875 12.703125,17.1875 C12,17.859375 10.890625,18.75 10.890625,18.75 L9.90625,17.5 L5.515625,17.5 C5.8125,17.921875 6.078125,18.390625 6.3125,18.859375 C6.8125,18.8125 7.125,19.015625 7.21875,19.25 Z M14.1875,20.140625 C13.421875,18.125 12.265625,16.171875 11.15625,14.96875 L11.5,14.71875 C12.3125,15.234375 13.125,15.953125 13.875,16.796875 L15.4375,16.796875 C16.015625,16.078125 16.609375,15.03125 16.703125,14.15625 C17.953125,13.203125 19.171875,15.34375 16.609375,16.796875 L22.34375,16.796875 C22.6875,16.796875 22.890625,16.921875 22.96875,17.1875 C22.203125,17.90625 20.953125,18.859375 20.953125,18.859375 L19.875,17.5 L14.46875,17.5 C14.8125,17.953125 15.140625,18.40625 15.4375,18.90625 C15.953125,18.859375 16.25,19.0625 16.375,19.3125 Z" transform="translate(0, 20.140625) scale(1, -1)"/>
</svg>