<svg height="22.0625" viewBox="0 0 24 22.0625" width="24" xmlns="http://www.w3.org/2000/svg">
<path d="M18.75,10.515625 L18.75,8.40625 L5.78125,8.40625 L5.8125,9.453125 L5.8125,10.515625 Z M14.328125,20.140625 C13.46875,17.90625 12.09375,15.84375 10.828125,14.609375 L11.140625,14.296875 C12.21875,14.953125 13.296875,15.890625 14.25,17.046875 L15.796875,17.046875 C16.34375,16.390625 16.84375,15.4375 16.96875,14.65625 C13.828125,14.140625 9.703125,13.609375 6.09375,13.3125 L4.265625,13.984375 L4.265625,9.453125 C4.265625,5.96875 3.84375,2.15625 0.84375,-1.03125 L1.125,-1.34375 C3.625,0.4375 4.796875,2.734375 5.359375,4.984375 L5.359375,-1.875 L5.5625,-1.875 C6.171875,-1.875 6.796875,-1.53125 6.796875,-1.375 L6.796875,2.109375 L10.03125,2.109375 L10.03125,-1.703125 L10.25,-1.703125 C10.96875,-1.703125 11.453125,-1.34375 11.453125,-1.25 L11.453125,2.109375 L14.765625,2.109375 L14.765625,-1.703125 L14.96875,-1.703125 C15.703125,-1.703125 16.171875,-1.34375 16.171875,-1.25 L16.171875,2.109375 L19.53125,2.109375 L19.53125,0.28125 C19.53125,0 19.46875,-0.140625 19.125,-0.140625 C18.703125,-0.140625 17.1875,-0.03125 17.1875,-0.03125 L17.1875,-0.390625 C17.921875,-0.484375 18.34375,-0.640625 18.59375,-0.859375 C18.84375,-1.109375 18.90625,-1.484375 18.953125,-1.921875 C20.8125,-1.703125 21.03125,-1.015625 21.03125,0.140625 L21.03125,4.796875 C21.5,4.875 21.90625,5.09375 22.0625,5.28125 L20.0625,6.71875 L19.296875,5.78125 L6.953125,5.78125 L5.609375,6.4375 L5.765625,7.6875 L18.75,7.6875 L18.75,7.0625 L18.984375,7.0625 C19.484375,7.0625 20.25,7.390625 20.28125,7.53125 L20.28125,10.296875 C20.6875,10.375 21.046875,10.5625 21.1875,10.734375 L19.375,12.09375 L18.53125,11.234375 L5.8125,11.234375 L5.8125,12.75 C10.625,12.84375 15.9375,13.21875 19.703125,13.625 C20.234375,13.421875 20.6875,13.375 20.90625,13.53125 L19.421875,15.140625 L18.34375,14.921875 C18.53125,15.484375 18.234375,16.34375 17.015625,17.046875 L22.296875,17.046875 C22.625,17.046875 22.84375,17.15625 22.921875,17.421875 C22.15625,18.171875 20.90625,19.109375 20.90625,19.109375 L19.828125,17.765625 L14.8125,17.765625 C15.09375,18.125 15.34375,18.5 15.578125,18.90625 C16.078125,18.84375 16.390625,19.0625 16.515625,19.296875 Z M19.53125,2.8125 L16.171875,2.8125 L16.171875,5.109375 L19.53125,5.109375 Z M6.796875,2.8125 L6.796875,5.109375 L10.03125,5.109375 L10.03125,2.8125 Z M11.453125,2.8125 L11.453125,5.109375 L14.765625,5.109375 L14.765625,2.8125 Z M5.109375,20.140625 C4.109375,17.421875 2.515625,15 0.953125,13.515625 L1.296875,13.25 C2.71875,14.109375 4.109375,15.4375 5.234375,17.046875 L6.671875,17.046875 C7.109375,16.375 7.46875,15.4375 7.515625,14.6875 C8.640625,13.703125 9.90625,15.59375 7.6875,17.046875 L12.3125,17.046875 C12.640625,17.046875 12.859375,17.15625 12.9375,17.421875 C12.234375,18.125 11.140625,19.015625 11.140625,19.015625 L10.15625,17.765625 L5.71875,17.765625 L6.34375,18.84375 C6.859375,18.765625 7.171875,18.953125 7.265625,19.21875 Z" transform="translate(0.1171875, 20.140625) scale(1, -1)"/>
</svg>