<svg height="22.25" viewBox="0 0 24 22.25" width="24" xmlns="http://www.w3.org/2000/svg">
<path d="M13.65625,12.796875 L13.65625,-1.921875 L13.890625,-1.921875 C14.6875,-1.921875 15.1875,-1.484375 15.1875,-1.375 L15.1875,12.09375 L20.046875,12.09375 L20.046875,3.078125 C20.046875,2.765625 19.9375,2.609375 19.53125,2.609375 C19.078125,2.609375 16.890625,2.78125 16.890625,2.78125 L16.890625,2.40625 C17.875,2.28125 18.40625,2.0625 18.75,1.796875 C19.03125,1.53125 19.15625,1.125 19.21875,0.640625 C21.359375,0.859375 21.59375,1.65625 21.59375,2.859375 L21.59375,11.8125 C22.078125,11.90625 22.46875,12.078125 22.625,12.265625 L20.59375,13.78125 L19.796875,12.796875 L15.484375,12.796875 L13.65625,13.578125 Z M4.703125,12.09375 L9.953125,12.09375 L9.953125,9.578125 L4.703125,9.578125 Z M0.9375,0.34375 L1.921875,-1.625 C2.140625,-1.5625 2.359375,-1.375 2.453125,-1.078125 C5.5,0 7.84375,0.90625 9.578125,1.609375 C10.109375,0.796875 10.484375,-0.078125 10.609375,-0.84375 C12.234375,-2.109375 13.4375,1.78125 7.703125,4.421875 L7.421875,4.203125 C8.046875,3.625 8.71875,2.875 9.28125,2.046875 L4.703125,1.0625 L4.703125,5.5 L9.953125,5.5 L9.953125,4.578125 L10.15625,4.578125 C10.65625,4.578125 11.453125,4.828125 11.46875,4.9375 L11.46875,11.90625 C11.859375,11.96875 12.171875,12.140625 12.28125,12.3125 L10.53125,13.6875 L9.75,12.796875 L5.015625,12.796875 L3.1875,13.578125 L3.1875,0.75 Z M4.703125,8.859375 L9.953125,8.859375 L9.953125,6.1875 L4.703125,6.1875 Z M4.828125,20.140625 C3.890625,17.359375 2.328125,14.765625 0.8125,13.171875 L1.125,12.890625 C2.453125,13.796875 3.75,15.125 4.84375,16.703125 L5.953125,16.703125 C6.578125,15.9375 7.109375,14.78125 7.078125,13.828125 C8.296875,12.71875 9.703125,15.078125 6.90625,16.703125 L11.78125,16.703125 C12.09375,16.703125 12.3125,16.796875 12.390625,17.0625 C11.71875,17.734375 10.578125,18.625 10.578125,18.625 L9.59375,17.375 L5.28125,17.375 C5.59375,17.859375 5.859375,18.34375 6.125,18.84375 C6.625,18.796875 6.9375,18.984375 7.0625,19.25 Z M14.234375,20.140625 C13.4375,17.8125 12.1875,15.53125 11.015625,14.140625 L11.359375,13.84375 C12.34375,14.5625 13.3125,15.546875 14.1875,16.703125 L15.84375,16.703125 C16.5625,15.90625 17.234375,14.765625 17.328125,13.734375 C18.671875,12.640625 19.984375,15.140625 16.984375,16.703125 L22.46875,16.703125 C22.796875,16.703125 23.046875,16.796875 23.09375,17.0625 C22.3125,17.78125 21.09375,18.75 21.09375,18.75 L19.984375,17.375 L14.65625,17.375 C14.96875,17.859375 15.28125,18.359375 15.546875,18.859375 C16.078125,18.8125 16.375,19.015625 16.484375,19.265625 Z" transform="translate(0.046875, 20.140625) scale(1, -1)"/>
</svg>