<svg height="22.03125" viewBox="0 0 24 22.03125" width="24" xmlns="http://www.w3.org/2000/svg">
<path d="M4.84375,20.140625 C3.890625,17.5625 2.359375,15.09375 0.953125,13.5625 L1.265625,13.3125 C2.5625,14.203125 3.859375,15.53125 4.9375,17.046875 L6.3125,17.046875 C6.71875,16.390625 7.109375,15.484375 7.125,14.765625 C7.46875,14.453125 7.828125,14.421875 8.09375,14.59375 L8.09375,13.515625 L3.1875,13.515625 L3.40625,12.84375 L8.09375,12.84375 L8.09375,11.375 L3.640625,11.375 L3.859375,10.65625 L8.09375,10.65625 L8.09375,9.140625 L1.34375,9.140625 L1.5625,8.453125 L11.1875,8.453125 L11.1875,7.109375 L6.71875,7.109375 L5.0625,7.84375 L5.0625,4.9375 L1.421875,4.9375 L1.625,4.21875 L5.0625,4.21875 L5.0625,2.65625 L1.390625,2.65625 L1.578125,1.96875 L5.0625,1.96875 L5.0625,-1.84375 L5.296875,-1.84375 C5.921875,-1.84375 6.578125,-1.484375 6.578125,-1.34375 L6.578125,1.96875 L17.46875,1.96875 L17.46875,0.390625 C17.46875,0.046875 17.375,-0.09375 16.921875,-0.09375 C16.375,-0.09375 13.796875,0.09375 13.796875,0.09375 L13.796875,-0.28125 C14.921875,-0.40625 15.546875,-0.625 15.9375,-0.84375 C16.265625,-1.0625 16.421875,-1.46875 16.46875,-1.890625 C18.75,-1.6875 19.015625,-0.90625 19.015625,0.21875 L19.015625,1.96875 L22.296875,1.96875 C22.625,1.96875 22.84375,2.09375 22.921875,2.359375 C22.203125,3.03125 21.09375,3.859375 21.09375,3.859375 L20.109375,2.65625 L19.015625,2.65625 L19.015625,4.21875 L22.171875,4.21875 C22.515625,4.21875 22.734375,4.34375 22.796875,4.609375 C22.109375,5.25 21.03125,6.078125 21.03125,6.078125 L20.0625,4.9375 L19.015625,4.9375 L19.015625,6.09375 C19.515625,6.171875 19.890625,6.390625 20.046875,6.546875 L18.046875,8.046875 L17.234375,7.109375 L12.71875,7.109375 L12.71875,8.453125 L22.203125,8.453125 C22.53125,8.453125 22.78125,8.5625 22.828125,8.8125 C22.078125,9.453125 20.953125,10.265625 20.953125,10.265625 L19.96875,9.140625 L15.9375,9.140625 L15.9375,10.65625 L20.359375,10.65625 C20.6875,10.65625 20.90625,10.78125 20.96875,11.046875 C20.296875,11.640625 19.296875,12.359375 19.296875,12.359375 L18.40625,11.375 L15.9375,11.375 L15.9375,12.84375 L20.875,12.84375 C21.1875,12.84375 21.4375,12.953125 21.484375,13.21875 C20.78125,13.828125 19.703125,14.609375 19.703125,14.609375 L18.71875,13.515625 L15.9375,13.515625 L15.9375,14.328125 C16.375,14.421875 16.5625,14.609375 16.609375,14.875 L14.40625,15.125 L14.40625,13.515625 L9.625,13.515625 L9.625,14.328125 C10.0625,14.40625 10.21875,14.59375 10.265625,14.859375 L8.46875,15.046875 C8.640625,15.578125 8.40625,16.375 7.34375,17.046875 L12.078125,17.046875 C12.40625,17.046875 12.640625,17.15625 12.703125,17.421875 C12,18.125 10.890625,19.015625 10.890625,19.015625 L9.90625,17.765625 L5.453125,17.765625 L6.09375,18.84375 C6.625,18.765625 6.9375,18.984375 7.03125,19.21875 Z M6.578125,2.65625 L6.578125,4.21875 L11.1875,4.21875 L11.1875,2.65625 Z M17.46875,2.65625 L12.71875,2.65625 L12.71875,4.21875 L17.46875,4.21875 Z M6.578125,4.9375 L6.578125,6.390625 L11.1875,6.390625 L11.1875,4.9375 Z M17.46875,4.9375 L12.71875,4.9375 L12.71875,6.390625 L17.46875,6.390625 Z M9.625,12.84375 L14.40625,12.84375 L14.40625,11.375 L9.625,11.375 Z M11.1875,9.140625 L9.625,9.140625 L9.625,10.65625 L14.40625,10.65625 L14.40625,9.140625 Z M14.1875,20.140625 C13.421875,18.078125 12.265625,16.109375 11.15625,14.90625 L11.5,14.609375 C12.40625,15.21875 13.3125,16.0625 14.109375,17.046875 L15.625,17.046875 C16.125,16.390625 16.625,15.484375 16.734375,14.734375 C17.921875,13.796875 19.125,15.75 16.875,17.046875 L22.34375,17.046875 C22.6875,17.046875 22.890625,17.15625 22.96875,17.421875 C22.203125,18.171875 20.953125,19.109375 20.953125,19.109375 L19.875,17.765625 L14.65625,17.765625 C14.921875,18.125 15.1875,18.5 15.40625,18.90625 C15.9375,18.859375 16.21875,19.0625 16.34375,19.296875 Z" transform="translate(0.0390625, 20.140625) scale(1, -1)"/>
</svg>