<svg height="22.015625" viewBox="0 0 24 22.015625" width="24" xmlns="http://www.w3.org/2000/svg">
<path d="M9.890625,11.109375 L4.890625,11.109375 L4.890625,13.34375 L7.9375,13.34375 C8.59375,12.84375 9.3125,11.96875 9.578125,11.25 C9.671875,11.1875 9.796875,11.140625 9.890625,11.109375 Z M10.390625,11.109375 C11.140625,11.359375 11.25,12.75 9.09375,13.34375 L15.359375,13.34375 C15.03125,12.59375 14.59375,11.734375 14.1875,11.109375 Z M18.265625,5.609375 L18.265625,3.890625 L15.265625,3.890625 L15.265625,5.609375 Z M18.265625,6.3125 L15.265625,6.3125 L15.265625,8.046875 L18.265625,8.046875 Z M14.046875,20.140625 C13.109375,17.953125 11.65625,15.953125 10.3125,14.78125 L10.65625,14.46875 L11.40625,14.921875 L11.40625,14.015625 L5.1875,14.015625 L3.34375,14.828125 L3.34375,9 C3.34375,5.359375 3.046875,1.484375 0.671875,-1.609375 L0.984375,-1.875 C3.484375,0.1875 4.390625,2.96875 4.734375,5.609375 L9.484375,5.609375 L9.484375,3.890625 L5.40625,3.890625 L5.609375,3.171875 L8.78125,3.171875 C7.390625,1.4375 5.375,-0.140625 3.078125,-1.25 L3.3125,-1.65625 C5.71875,-0.8125 7.84375,0.359375 9.484375,1.875 L9.484375,-1.84375 L9.71875,-1.84375 C10.484375,-1.84375 10.984375,-1.484375 10.984375,-1.390625 L10.984375,3.171875 L13.75,3.171875 L13.75,-1.84375 L13.984375,-1.84375 C14.78125,-1.84375 15.265625,-1.484375 15.265625,-1.390625 L15.265625,3.078125 C16.734375,0.859375 19.15625,-0.75 21.671875,-1.625 C21.84375,-0.890625 22.3125,-0.40625 22.9375,-0.3125 L22.96875,-0.078125 C20.421875,0.4375 17.59375,1.609375 15.90625,3.171875 L18.265625,3.171875 L18.265625,2.40625 L18.5,2.40625 C18.984375,2.40625 19.75,2.71875 19.78125,2.875 L19.78125,5.609375 L22.4375,5.609375 C22.75,5.609375 22.96875,5.734375 23.046875,6 C22.421875,6.625 21.40625,7.484375 21.40625,7.484375 L20.546875,6.3125 L19.78125,6.3125 L19.78125,7.890625 C20.140625,7.9375 20.453125,8.109375 20.5625,8.28125 L18.859375,9.546875 L18.09375,8.765625 L15.265625,8.765625 L15.265625,10.421875 L21.3125,10.421875 C21.640625,10.421875 21.84375,10.53125 21.90625,10.796875 C21.1875,11.46875 20.015625,12.34375 20.015625,12.34375 L18.984375,11.109375 L14.921875,11.109375 C15.578125,11.515625 16.25,12.03125 16.734375,12.453125 C17.203125,12.40625 17.546875,12.53125 17.6875,12.8125 L16.3125,13.34375 L22.078125,13.34375 C22.421875,13.34375 22.65625,13.46875 22.734375,13.703125 C21.90625,14.453125 20.65625,15.484375 20.65625,15.484375 L19.53125,14.015625 L12.9375,14.015625 L12.9375,14.640625 C13.484375,14.734375 13.6875,14.953125 13.734375,15.234375 L12.09375,15.40625 C12.75,15.90625 13.390625,16.484375 13.984375,17.15625 L15.1875,17.15625 C15.796875,16.484375 16.390625,15.546875 16.5625,14.78125 C17.78125,13.84375 18.953125,15.890625 16.515625,17.15625 L22.375,17.15625 C22.6875,17.15625 22.921875,17.28125 22.96875,17.546875 C22.21875,18.265625 21,19.21875 21,19.21875 L19.921875,17.859375 L14.59375,17.859375 C14.828125,18.171875 15.078125,18.484375 15.28125,18.8125 C15.796875,18.703125 16.109375,18.90625 16.21875,19.15625 Z M5.46875,8.765625 L5.6875,8.046875 L9.484375,8.046875 L9.484375,6.3125 L4.796875,6.3125 C4.875,7.25 4.890625,8.15625 4.890625,9.03125 L4.890625,10.421875 L9.484375,10.421875 L9.484375,8.765625 Z M10.984375,5.609375 L13.75,5.609375 L13.75,3.890625 L10.984375,3.890625 Z M10.984375,6.3125 L10.984375,8.046875 L13.75,8.046875 L13.75,6.3125 Z M10.984375,10.421875 L13.75,10.421875 L13.75,8.765625 L10.984375,8.765625 Z M4.796875,20.140625 C3.890625,17.734375 2.453125,15.546875 1.0625,14.234375 L1.390625,13.9375 C2.640625,14.71875 3.859375,15.796875 4.921875,17.15625 L6.03125,17.15625 C6.546875,16.515625 7.078125,15.625 7.171875,14.875 C8.328125,13.9375 9.53125,15.8125 7.171875,17.15625 L11.828125,17.15625 C12.140625,17.15625 12.359375,17.28125 12.4375,17.546875 C11.765625,18.21875 10.65625,19.078125 10.65625,19.078125 L9.703125,17.859375 L5.421875,17.859375 L6.03125,18.84375 C6.53125,18.796875 6.84375,18.984375 6.953125,19.21875 Z" transform="translate(0.140625, 20.140625) scale(1, -1)"/>
</svg>