<svg height="22.015625" viewBox="0 0 24 22.015625" width="24" xmlns="http://www.w3.org/2000/svg">
<path d="M2.859375,3.359375 C2.59375,3.359375 1.78125,3.359375 1.78125,3.359375 L1.78125,2.8125 C2.234375,2.78125 2.546875,2.71875 2.859375,2.546875 C3.34375,2.28125 3.484375,1.03125 3.21875,-0.9375 C3.265625,-1.53125 3.53125,-1.875 3.90625,-1.875 C4.6875,-1.875 5.0625,-1.34375 5.109375,-0.546875 C5.1875,0.890625 4.578125,1.6875 4.578125,2.515625 C4.578125,3 4.78125,3.671875 4.96875,4.296875 C5.296875,5.15625 7.25,9.53125 8.109375,11.609375 L7.6875,11.765625 C3.859375,4.484375 3.859375,4.484375 3.4375,3.796875 C3.21875,3.359375 3.125,3.359375 2.859375,3.359375 Z M3.359375,14.359375 L3.09375,14.15625 C3.984375,13.53125 5.0625,12.359375 5.40625,11.421875 C6.9375,10.53125 7.890625,13.515625 3.359375,14.359375 Z M10.375,2.78125 L10.125,2.5625 C11.0625,1.9375 12.171875,0.796875 12.5,-0.1875 C14.09375,-1.0625 15,2.109375 10.375,2.78125 Z M1.15625,10.828125 L0.9375,10.625 C1.890625,9.984375 3.03125,8.8125 3.40625,7.875 C4.890625,6.953125 5.828125,10.03125 1.15625,10.828125 Z M14.109375,15.390625 L14.109375,13.5625 L7.5625,13.5625 L7.75,12.890625 L14.109375,12.890625 L14.109375,11.328125 L10.734375,11.328125 L9.125,12.046875 L9.125,4.609375 L9.34375,4.609375 C9.953125,4.609375 10.578125,4.921875 10.578125,5.0625 L10.578125,5.5 L17.09375,5.5 L17.09375,3.796875 L6.890625,3.796875 L7.078125,3.078125 L17.09375,3.078125 L17.09375,0.265625 C17.09375,-0.03125 16.96875,-0.171875 16.578125,-0.171875 C16.109375,-0.171875 13.890625,-0.03125 13.890625,-0.03125 L13.890625,-0.390625 C14.921875,-0.484375 15.5,-0.640625 15.796875,-0.890625 C16.078125,-1.078125 16.21875,-1.46875 16.265625,-1.84375 C18.34375,-1.6875 18.625,-0.9375 18.625,0.21875 L18.625,3.078125 L22.75,3.078125 C23.09375,3.078125 23.296875,3.1875 23.375,3.453125 C22.65625,4.15625 21.5,5.015625 21.5,5.015625 L20.5,3.796875 L18.625,3.796875 L18.625,5.5 L19.21875,5.5 L19.21875,4.890625 L19.4375,4.890625 C19.921875,4.890625 20.6875,5.234375 20.71875,5.40625 L20.71875,10.390625 C21.125,10.46875 21.484375,10.65625 21.625,10.828125 L19.796875,12.1875 L19.015625,11.328125 L15.546875,11.328125 L15.546875,12.890625 L22.21875,12.890625 C22.53125,12.890625 22.78125,13.015625 22.828125,13.265625 C22.125,13.875 21.046875,14.65625 21,14.6875 C21.21875,15.34375 20.5625,16.421875 18.1875,16.4375 L17.953125,16.21875 C18.71875,15.8125 19.609375,15.03125 19.921875,14.328125 C20.203125,14.1875 20.453125,14.1875 20.640625,14.296875 L19.984375,13.5625 L15.546875,13.5625 L15.546875,14.546875 C16.078125,14.640625 16.296875,14.859375 16.3125,15.140625 Z M19.21875,8.09375 L19.21875,6.1875 L15.546875,6.1875 L15.546875,8.09375 Z M19.21875,8.78125 L15.546875,8.78125 L15.546875,10.609375 L19.21875,10.609375 Z M10.578125,8.09375 L14.109375,8.09375 L14.109375,6.1875 L10.578125,6.1875 Z M10.578125,8.78125 L10.578125,10.609375 L14.109375,10.609375 L14.109375,8.78125 Z M4.890625,20.140625 C3.9375,17.65625 2.421875,15.453125 0.953125,14.140625 L1.265625,13.84375 C2.59375,14.59375 3.890625,15.75 4.984375,17.15625 L5.71875,17.15625 C6.265625,16.515625 6.84375,15.578125 7.015625,14.828125 C8.1875,13.9375 9.3125,15.90625 6.890625,17.15625 L11.8125,17.15625 C12.09375,17.15625 12.34375,17.28125 12.390625,17.546875 C11.734375,18.21875 10.609375,19.078125 10.609375,19.078125 L9.671875,17.859375 L5.5,17.859375 L6.125,18.84375 C6.59375,18.75 6.90625,18.9375 7.03125,19.203125 Z M13.75,20.140625 C12.859375,17.96875 11.546875,15.9375 10.296875,14.765625 L10.609375,14.453125 C11.6875,15.09375 12.796875,16.03125 13.78125,17.15625 L15.390625,17.15625 C16.015625,16.484375 16.609375,15.546875 16.78125,14.78125 C18.046875,13.921875 19.15625,15.9375 16.703125,17.15625 L22.390625,17.15625 C22.734375,17.15625 22.96875,17.28125 23.046875,17.546875 C22.265625,18.265625 21.046875,19.21875 21.046875,19.21875 L19.9375,17.859375 L14.328125,17.859375 L15,18.796875 C15.484375,18.703125 15.796875,18.890625 15.90625,19.125 Z" transform="translate(-0.15625, 20.140625) scale(1, -1)"/>
</svg>