<svg height="22.0625" viewBox="0 0 24 22.0625" width="24" xmlns="http://www.w3.org/2000/svg">
<path d="M4.84375,20.140625 C3.90625,17.609375 2.40625,15.34375 0.9375,13.984375 L1.265625,13.6875 C2.5625,14.46875 3.84375,15.625 4.921875,17.046875 L6.21875,17.046875 C6.59375,16.46875 6.9375,15.703125 7.03125,15.03125 L5.375,15.1875 L5.375,12.890625 C4.0625,12.59375 2.640625,12.359375 1.3125,12.21875 L1.421875,11.765625 C2.71875,11.765625 4.078125,11.828125 5.375,11.953125 L5.375,9.890625 L1.921875,9.890625 L2.109375,9.171875 L5.375,9.171875 L5.375,7.03125 L1.125,7.03125 L1.3125,6.34375 L4.890625,6.34375 C4.015625,4.203125 2.65625,2.109375 0.984375,0.5 L1.265625,0.125 C2.90625,1.21875 4.296875,2.5625 5.375,4.109375 L5.375,-1.921875 L5.65625,-1.921875 C6.21875,-1.921875 6.890625,-1.53125 6.890625,-1.34375 L6.890625,4.828125 C7.921875,4.015625 9.03125,2.71875 9.3125,1.625 C10.875,0.59375 11.90625,3.90625 6.890625,5.234375 L6.890625,6.34375 L10.703125,6.34375 C11.046875,6.34375 11.25,6.453125 11.328125,6.71875 C10.625,7.34375 9.578125,8.1875 9.578125,8.1875 L8.640625,7.03125 L6.890625,7.03125 L6.890625,9.171875 L10.078125,9.171875 C10.421875,9.171875 10.625,9.28125 10.6875,9.546875 C10.078125,10.171875 9.046875,10.96875 9.046875,10.96875 L8.1875,9.890625 L6.890625,9.890625 L6.890625,12.125 C7.921875,12.234375 8.875,12.40625 9.671875,12.578125 C10.171875,12.359375 10.578125,12.34375 10.75,12.5 L9.234375,14.015625 C8.609375,13.75 7.796875,13.484375 6.890625,13.25 L6.890625,14.359375 C7.109375,14.375 7.25,14.421875 7.34375,14.5 C8.359375,13.984375 9.28125,15.71875 7.21875,17.046875 L11.90625,17.046875 C12.21875,17.046875 12.453125,17.15625 12.53125,17.421875 C11.828125,18.125 10.703125,19.015625 10.703125,19.015625 L9.71875,17.765625 L5.421875,17.765625 C5.65625,18.125 5.875,18.484375 6.09375,18.859375 C6.59375,18.765625 6.9375,18.953125 7.03125,19.21875 Z M18.1875,15.140625 L18.1875,12.484375 L15.140625,12.484375 L15.140625,14.375 C15.578125,14.46875 15.75,14.65625 15.796875,14.921875 L13.65625,15.140625 L13.65625,12.484375 L11.1875,12.484375 L11.375,11.8125 L13.65625,11.8125 L13.65625,8.71875 L10.6875,8.71875 L10.875,8.015625 L22.5625,8.015625 C22.890625,8.015625 23.109375,8.140625 23.15625,8.40625 C22.484375,9.046875 21.4375,9.90625 21.4375,9.90625 L20.5,8.71875 L19.6875,8.71875 L19.6875,11.8125 L22.203125,11.8125 C22.53125,11.8125 22.75,11.90625 22.796875,12.171875 C22.171875,12.796875 21.171875,13.609375 21.171875,13.609375 L20.28125,12.484375 L19.6875,12.484375 L19.6875,14.375 C20.140625,14.453125 20.296875,14.640625 20.359375,14.921875 Z M15.140625,11.8125 L18.1875,11.8125 L18.1875,8.71875 L15.140625,8.71875 Z M19.75,2.6875 L19.75,0.21875 L13.921875,0.21875 L13.921875,2.6875 Z M19.75,3.390625 L13.921875,3.390625 L13.921875,5.6875 L19.75,5.6875 Z M12.40625,6.40625 L12.40625,-1.890625 L12.640625,-1.890625 C13.265625,-1.890625 13.921875,-1.53125 13.921875,-1.390625 L13.921875,-0.484375 L19.75,-0.484375 L19.75,-1.78125 L19.984375,-1.78125 C20.5,-1.78125 21.265625,-1.421875 21.28125,-1.25 L21.28125,5.5 C21.703125,5.5625 22.0625,5.734375 22.203125,5.90625 L20.375,7.3125 L19.5625,6.40625 L14.015625,6.40625 L12.40625,7.15625 Z M14.1875,20.140625 C13.21875,17.859375 11.765625,15.765625 10.421875,14.5625 L10.703125,14.25 C11.828125,14.90625 13.015625,15.859375 14.046875,17.046875 L15.625,17.046875 C16.15625,16.375 16.65625,15.40625 16.75,14.640625 C17.96875,13.703125 19.203125,15.703125 16.84375,17.046875 L22.34375,17.046875 C22.6875,17.046875 22.890625,17.15625 22.96875,17.421875 C22.203125,18.171875 20.953125,19.109375 20.953125,19.109375 L19.875,17.765625 L14.640625,17.765625 C14.90625,18.125 15.1875,18.5 15.4375,18.890625 C15.90625,18.8125 16.21875,19.015625 16.3125,19.25 Z" transform="translate(-0.046875, 20.140625) scale(1, -1)"/>
</svg>