<svg height="22.03125" viewBox="0 0 24 22.03125" width="24" xmlns="http://www.w3.org/2000/svg">
<path d="M4.84375,20.140625 C3.90625,17.609375 2.40625,15.34375 0.9375,13.984375 L1.265625,13.6875 C2.5625,14.46875 3.84375,15.625 4.921875,17.046875 L6.21875,17.046875 C6.640625,16.390625 7.03125,15.484375 7.078125,14.734375 L5.40625,14.90625 L5.40625,12.40625 L1.625,12.40625 L1.828125,11.71875 L5.40625,11.71875 L5.40625,9.71875 L1.890625,9.71875 L2.09375,9 L5.40625,9 L5.40625,6.859375 L1.171875,6.859375 L1.375,6.171875 L4.9375,6.171875 C4.03125,3.9375 2.609375,1.75 0.859375,0.09375 L1.15625,-0.28125 C2.828125,0.859375 4.265625,2.28125 5.40625,3.890625 L5.40625,-1.875 L5.71875,-1.875 C6.265625,-1.875 6.9375,-1.484375 6.9375,-1.296875 L6.9375,4.46875 C7.96875,3.640625 9.078125,2.375 9.34375,1.265625 C10.921875,0.265625 11.953125,3.546875 6.9375,4.875 L6.9375,6.171875 L10.796875,6.171875 C11.140625,6.171875 11.359375,6.28125 11.421875,6.546875 C10.734375,7.203125 9.640625,8.015625 9.640625,8.015625 L8.6875,6.859375 L6.9375,6.859375 L6.9375,9 L10.171875,9 C10.515625,9 10.703125,9.125 10.78125,9.390625 C10.15625,10.015625 9.140625,10.796875 9.140625,10.796875 L8.28125,9.71875 L6.9375,9.71875 L6.9375,11.71875 L10.296875,11.71875 C10.625,11.71875 10.84375,11.828125 10.890625,12.078125 C10.265625,12.71875 9.21875,13.515625 9.21875,13.515625 L8.359375,12.40625 L6.9375,12.40625 L6.9375,14.046875 C7.3125,14.09375 7.515625,14.234375 7.609375,14.421875 C8.5,14.296875 9.09375,15.84375 7.21875,17.046875 L11.90625,17.046875 C12.21875,17.046875 12.453125,17.15625 12.53125,17.421875 C11.828125,18.125 10.703125,19.015625 10.703125,19.015625 L9.71875,17.765625 L5.421875,17.765625 C5.65625,18.125 5.875,18.484375 6.09375,18.859375 C6.59375,18.765625 6.9375,18.953125 7.03125,19.21875 Z M18.1875,14.90625 L18.1875,12.28125 L15.125,12.28125 L15.125,14.140625 C15.53125,14.234375 15.71875,14.421875 15.765625,14.6875 L13.65625,14.921875 L13.65625,12.28125 L11.09375,12.28125 L11.28125,11.59375 L13.65625,11.59375 L13.65625,8.765625 L10.703125,8.765625 L10.890625,8.0625 L22.609375,8.0625 C22.921875,8.0625 23.109375,8.1875 23.1875,8.453125 C22.53125,9.09375 21.453125,9.953125 21.453125,9.953125 L20.546875,8.765625 L19.65625,8.765625 L19.65625,11.59375 L22.375,11.59375 C22.703125,11.59375 22.921875,11.71875 22.96875,11.953125 C22.34375,12.59375 21.328125,13.421875 21.328125,13.421875 L20.453125,12.28125 L19.65625,12.28125 L19.65625,14.109375 C20.09375,14.203125 20.28125,14.40625 20.328125,14.65625 Z M15.125,11.59375 L18.1875,11.59375 L18.1875,8.765625 L15.125,8.765625 Z M19.703125,2.71875 L19.703125,0.234375 L13.9375,0.234375 L13.9375,2.71875 Z M19.703125,3.4375 L13.9375,3.4375 L13.9375,5.6875 L19.703125,5.6875 Z M12.453125,6.390625 L12.453125,-1.890625 L12.703125,-1.890625 C13.3125,-1.890625 13.9375,-1.53125 13.9375,-1.375 L13.9375,-0.453125 L19.703125,-0.453125 L19.703125,-1.796875 L19.9375,-1.796875 C20.453125,-1.796875 21.21875,-1.421875 21.234375,-1.265625 L21.234375,5.46875 C21.640625,5.546875 22.015625,5.734375 22.15625,5.90625 L20.328125,7.296875 L19.515625,6.390625 L14.0625,6.390625 L12.453125,7.125 Z M14.1875,20.140625 C13.21875,17.859375 11.765625,15.765625 10.421875,14.5625 L10.703125,14.25 C11.828125,14.90625 13.015625,15.859375 14.046875,17.046875 L15.625,17.046875 C16.15625,16.375 16.65625,15.40625 16.75,14.640625 C17.96875,13.703125 19.203125,15.703125 16.84375,17.046875 L22.34375,17.046875 C22.6875,17.046875 22.890625,17.15625 22.96875,17.421875 C22.203125,18.171875 20.953125,19.109375 20.953125,19.109375 L19.875,17.765625 L14.640625,17.765625 C14.90625,18.125 15.1875,18.5 15.4375,18.890625 C15.90625,18.8125 16.21875,19.015625 16.3125,19.25 Z" transform="translate(-0.0234375, 20.140625) scale(1, -1)"/>
</svg>