<svg height="21.984375" viewBox="0 0 24 21.984375" width="24" xmlns="http://www.w3.org/2000/svg">
<path d="M4.75,20.140625 C3.765625,17.8125 2.25,15.640625 0.84375,14.375 L1.15625,14.0625 C2.40625,14.78125 3.640625,15.859375 4.734375,17.15625 L6,17.15625 C6.5,16.609375 6.984375,15.796875 7.125,15.125 L6.046875,15.234375 L6.046875,13.390625 L1.65625,13.390625 L1.84375,12.703125 L3.8125,12.703125 L3.71875,12.640625 C4.109375,11.953125 4.484375,10.828125 4.46875,9.9375 C5.5625,8.828125 7.109375,11.046875 4.171875,12.703125 L8.5,12.703125 C8.28125,11.765625 7.9375,10.5625 7.609375,9.625 L1.03125,9.625 L1.21875,8.90625 L12.171875,8.90625 C12.484375,8.90625 12.71875,9.03125 12.765625,9.28125 C12.125,9.890625 11.109375,10.65625 11.109375,10.65625 L10.21875,9.625 L8.328125,9.625 C8.875,10.3125 9.40625,11.0625 9.796875,11.65625 C10.265625,11.640625 10.5625,11.828125 10.65625,12.09375 L8.8125,12.703125 L11.859375,12.703125 C12.171875,12.703125 12.40625,12.8125 12.453125,13.078125 C11.78125,13.703125 10.703125,14.515625 10.703125,14.515625 L9.765625,13.390625 L7.53125,13.390625 L7.53125,14.5 C7.9375,14.5625 8.109375,14.71875 8.15625,14.921875 C8.6875,15.3125 8.71875,16.390625 7.21875,17.15625 L12.125,17.15625 C12.453125,17.15625 12.703125,17.28125 12.75,17.546875 C12.078125,18.21875 10.96875,19.078125 10.96875,19.078125 L10.015625,17.859375 L5.28125,17.859375 L5.921875,18.8125 C6.40625,18.71875 6.71875,18.890625 6.84375,19.125 Z M13.4375,8.96875 L13.4375,0.046875 C13.4375,-1.171875 13.828125,-1.53125 15.765625,-1.53125 L18.5,-1.53125 C22.4375,-1.53125 23.203125,-1.3125 23.203125,-0.59375 C23.203125,-0.3125 23.0625,-0.171875 22.53125,0.03125 L22.46875,2.234375 L22.15625,2.234375 C21.9375,1.25 21.640625,0.34375 21.484375,0.046875 C21.390625,-0.125 21.265625,-0.171875 21,-0.1875 C20.640625,-0.1875 19.734375,-0.21875 18.578125,-0.21875 L16.03125,-0.21875 C15.046875,-0.21875 14.921875,-0.09375 14.921875,0.34375 L14.921875,1.53125 L21.28125,1.53125 C21.578125,1.53125 21.8125,1.65625 21.859375,1.921875 C21.3125,2.5 20.40625,3.1875 20.40625,3.1875 L19.625,2.234375 L14.921875,2.234375 L14.921875,3.765625 L21.046875,3.765625 C21.359375,3.765625 21.578125,3.890625 21.640625,4.15625 C21.09375,4.703125 20.203125,5.40625 20.203125,5.40625 L19.4375,4.46875 L14.921875,4.46875 L14.921875,5.953125 L21.046875,5.953125 C21.359375,5.953125 21.578125,6.078125 21.59375,6.34375 C21.078125,6.890625 20.1875,7.578125 20.1875,7.578125 L19.4375,6.671875 L14.921875,6.671875 L14.921875,8.296875 L20.015625,8.296875 L20.015625,7.734375 L20.25,7.734375 C20.765625,7.734375 21.5,8.046875 21.53125,8.234375 L21.53125,10.5625 C21.890625,10.609375 22.203125,10.796875 22.3125,10.9375 L20.609375,12.21875 L19.828125,11.421875 L14.953125,11.421875 L14.953125,12.90625 L22.15625,12.90625 C22.484375,12.90625 22.734375,13.03125 22.796875,13.296875 C22.0625,13.9375 20.921875,14.859375 20.921875,14.859375 L19.921875,13.609375 L14.953125,13.609375 L14.953125,14.46875 C15.5,14.546875 15.671875,14.765625 15.71875,15.046875 L13.4375,15.28125 L13.4375,9.90625 L13.734375,9.90625 C14.28125,9.90625 14.953125,10.203125 14.953125,10.34375 L14.953125,10.703125 L20.015625,10.703125 L20.015625,8.96875 L15.234375,8.96875 L13.4375,9.765625 Z M9.40625,4.53125 L9.40625,2.875 L4.421875,2.875 L4.421875,4.53125 Z M9.40625,5.234375 L4.421875,5.234375 L4.421875,6.796875 L9.40625,6.796875 Z M2.953125,7.484375 L2.953125,-1.84375 L3.1875,-1.84375 C3.8125,-1.84375 4.421875,-1.484375 4.421875,-1.34375 L4.421875,2.1875 L9.40625,2.1875 L9.40625,0.3125 C9.40625,0 9.3125,-0.125 8.96875,-0.125 C8.546875,-0.125 6.953125,-0.03125 6.953125,0 L6.953125,-0.390625 C7.734375,-0.484375 8.15625,-0.625 8.421875,-0.84375 C8.640625,-1.078125 8.765625,-1.4375 8.8125,-1.84375 C10.65625,-1.65625 10.890625,-0.984375 10.890625,0.171875 L10.890625,6.5 C11.375,6.578125 11.78125,6.796875 11.921875,6.984375 L9.953125,8.453125 L9.171875,7.484375 L4.53125,7.484375 L2.953125,8.234375 Z M14.09375,20.140625 C13.390625,18.171875 12.3125,16.21875 11.296875,15.03125 L11.65625,14.765625 C12.53125,15.359375 13.390625,16.203125 14.1875,17.15625 L15.671875,17.15625 C16.25,16.53125 16.828125,15.671875 16.96875,14.96875 C18.171875,14.109375 19.25,16.03125 17.046875,17.15625 L22.296875,17.15625 C22.609375,17.15625 22.84375,17.28125 22.890625,17.546875 C22.15625,18.265625 20.921875,19.21875 20.921875,19.21875 L19.84375,17.859375 L14.71875,17.859375 C14.96875,18.1875 15.1875,18.53125 15.40625,18.890625 C15.890625,18.8125 16.203125,19.03125 16.296875,19.296875 Z" transform="translate(-0.0234375, 20.140625) scale(1, -1)"/>
</svg>