<svg height="21.984375" viewBox="0 0 24 21.984375" width="24" xmlns="http://www.w3.org/2000/svg">
<path d="M3.625,18.5 L3.34375,18.3125 C4.6875,16.890625 6.359375,14.5625 6.71875,12.75 C8.453125,11.421875 9.671875,15.4375 3.625,18.5 Z M18.578125,18.796875 C17.375,16.515625 15.75,14.046875 14.546875,12.59375 L14.859375,12.3125 C16.515625,13.484375 18.4375,15.359375 19.96875,17.234375 C20.453125,17.109375 20.78125,17.28125 20.921875,17.546875 Z M11.140625,20.109375 L11.140625,11.09375 L1.125,11.09375 L1.34375,10.375 L9.9375,10.375 C7.9375,6.703125 4.53125,2.953125 0.640625,0.53125 L0.890625,0.171875 C5.1875,2.28125 8.78125,5.421875 11.140625,9.046875 L11.140625,-1.875 L11.46875,-1.875 C12.046875,-1.875 12.71875,-1.515625 12.71875,-1.265625 L12.71875,10.171875 C14.734375,5.859375 18.171875,2.359375 21.703125,0.40625 C21.953125,1.171875 22.53125,1.65625 23.203125,1.734375 L23.25,1.984375 C19.578125,3.4375 15.484375,6.671875 13.203125,10.375 L22.296875,10.375 C22.625,10.375 22.875,10.484375 22.9375,10.75 C22.078125,11.546875 20.6875,12.578125 20.6875,12.578125 L19.484375,11.09375 L12.71875,11.09375 L12.71875,19.171875 C13.34375,19.265625 13.53125,19.515625 13.609375,19.84375 Z" transform="translate(0.0546875, 20.109375) scale(1, -1)"/>
</svg>