<svg height="22.03125" viewBox="0 0 24 22.03125" width="24" xmlns="http://www.w3.org/2000/svg">
<path d="M1.734375,18.21875 L1.375,18.09375 C1.875,16.78125 2.453125,14.78125 2.421875,13.265625 C3.71875,11.875 5.234375,14.90625 1.734375,18.21875 Z M8.6875,18.53125 C8.25,16.578125 7.578125,14.375 7.0625,12.953125 L7.4375,12.765625 C8.375,13.9375 9.34375,15.71875 10.109375,17.296875 C10.609375,17.28125 10.84375,17.46875 10.9375,17.734375 L11.046875,17.40625 L14.375,17.40625 C14.359375,15.1875 14.296875,12.84375 13.96875,10.515625 C13.0625,11.203125 11.953125,11.921875 10.609375,12.640625 L10.34375,12.40625 C11.40625,11.515625 12.625,10.296875 13.734375,9.03125 C13.03125,5.296875 11.515625,1.625 8.203125,-1.53125 L8.59375,-1.921875 C12.125,0.859375 13.9375,4.125 14.90625,7.578125 C15.640625,6.578125 16.265625,5.59375 16.578125,4.734375 C18.078125,3.765625 18.859375,6.140625 15.3125,9.40625 C15.84375,12.046875 15.9375,14.765625 16.015625,17.40625 L20.46875,17.40625 C20.328125,7.390625 20.046875,1.53125 19.15625,0.578125 C18.890625,0.28125 18.71875,0.21875 18.21875,0.21875 C17.71875,0.21875 16.21875,0.359375 15.265625,0.484375 L15.234375,0.03125 C16.15625,-0.140625 17.046875,-0.359375 17.375,-0.640625 C17.6875,-0.90625 17.765625,-1.34375 17.765625,-1.890625 C18.84375,-1.890625 19.828125,-1.515625 20.46875,-0.640625 C21.578125,0.859375 21.890625,6.453125 22.015625,17.1875 C22.5625,17.234375 22.875,17.40625 23.046875,17.59375 L21.171875,19.203125 L20.203125,18.125 L10.828125,18.125 L10.921875,17.8125 Z M4.984375,20.109375 L4.984375,11.59375 L0.984375,11.59375 L1.171875,10.875 L4.4375,10.875 C3.71875,7.6875 2.421875,4.390625 0.71875,1.890625 L1.03125,1.578125 C2.65625,3.265625 4.015625,5.203125 4.984375,7.390625 L4.984375,-1.890625 L5.296875,-1.890625 C5.859375,-1.890625 6.5,-1.53125 6.5,-1.3125 L6.5,8.828125 C7.421875,7.84375 8.375,6.453125 8.640625,5.359375 C10.171875,4.171875 11.421875,7.390625 6.5,9.390625 L6.5,10.875 L10.0625,10.875 C10.390625,10.875 10.609375,10.984375 10.6875,11.25 C9.9375,11.96875 8.765625,12.90625 8.765625,12.90625 L7.703125,11.59375 L6.5,11.59375 L6.5,19.171875 C7.125,19.265625 7.3125,19.515625 7.375,19.84375 Z" transform="translate(0.1171875, 20.109375) scale(1, -1)"/>
</svg>