<svg height="22.078125" viewBox="0 0 24 22.078125" width="24" xmlns="http://www.w3.org/2000/svg">
<path d="M12.453125,17.859375 C11.875,14.359375 10.578125,11.1875 9,9.125 L9.359375,8.875 C11.421875,10.609375 13.03125,13.390625 13.96875,16.703125 C14.515625,16.703125 14.78125,16.921875 14.859375,17.234375 Z M1.5625,18.21875 L1.21875,18.125 C1.6875,16.796875 2.1875,14.78125 2.15625,13.296875 C3.359375,11.921875 4.84375,14.859375 1.5625,18.21875 Z M8.015625,18.53125 C7.609375,16.6875 7.109375,14.453125 6.703125,13.0625 L7.109375,12.859375 C7.890625,14.09375 8.78125,15.859375 9.5,17.328125 C9.984375,17.328125 10.25,17.5625 10.34375,17.828125 Z M10.875,10.03125 L11.09375,9.34375 L13.578125,9.34375 C13.25,4.828125 12.03125,1.203125 8.515625,-1.625 L8.734375,-1.9375 C13.109375,0.59375 14.765625,4.265625 15.34375,9.34375 L19.203125,9.34375 C19.03125,3.890625 18.625,0.953125 18,0.34375 C17.8125,0.140625 17.609375,0.09375 17.1875,0.09375 C16.75,0.09375 15.453125,0.21875 14.71875,0.28125 L14.6875,-0.140625 C15.390625,-0.265625 16.125,-0.453125 16.421875,-0.703125 C16.703125,-0.953125 16.78125,-1.375 16.78125,-1.828125 C17.6875,-1.828125 18.484375,-1.578125 19.078125,-0.984375 C20.0625,-0.046875 20.546875,2.96875 20.734375,9.125 C21.21875,9.21875 21.5,9.3125 21.671875,9.53125 L19.875,11.015625 L18.984375,10.03125 Z M14.09375,19.0625 L14.296875,18.34375 L18,18.34375 C18.59375,14.8125 19.9375,11.640625 22.125,9.390625 C22.3125,10.015625 22.890625,10.515625 23.515625,10.65625 L23.609375,10.921875 C21.21875,12.640625 19.421875,15.484375 18.640625,18.21875 C19.421875,18.28125 19.984375,18.4375 20.25,18.71875 L18.21875,20.140625 L17.5,19.0625 Z M0.984375,11.640625 L1.171875,10.9375 L4.0625,10.9375 C3.359375,7.75 2.203125,4.421875 0.546875,1.921875 L0.90625,1.578125 C2.421875,3.265625 3.671875,5.234375 4.609375,7.421875 L4.609375,-1.921875 L4.921875,-1.921875 C5.5,-1.921875 6.125,-1.5625 6.125,-1.34375 L6.125,9.078125 C6.890625,8.046875 7.734375,6.578125 7.9375,5.453125 C9.40625,4.21875 10.75,7.375 6.125,9.59375 L6.125,10.9375 L9.5,10.9375 C9.84375,10.9375 10.0625,11.0625 10.125,11.328125 C9.40625,12.03125 8.234375,12.953125 8.234375,12.953125 L7.203125,11.640625 L6.125,11.640625 L6.125,19.21875 C6.640625,19.296875 6.8125,19.53125 6.859375,19.84375 L4.609375,20.09375 L4.609375,11.640625 Z" transform="translate(-0.078125, 20.140625) scale(1, -1)"/>
</svg>