<svg height="22.015625" viewBox="0 0 24 22.015625" width="24" xmlns="http://www.w3.org/2000/svg">
<path d="M1.6875,18.234375 L1.3125,18.140625 C1.78125,16.796875 2.296875,14.8125 2.25,13.296875 C3.5,11.953125 4.96875,14.875 1.6875,18.234375 Z M8.1875,18.53125 C7.828125,16.65625 7.296875,14.453125 6.859375,13.03125 L7.25,12.859375 C8.109375,14.046875 9,15.796875 9.640625,17.328125 C10.15625,17.328125 10.4375,17.515625 10.53125,17.8125 Z M15.125,9.9375 L15.125,5.6875 L9.5,5.6875 L9.703125,4.984375 L15.125,4.984375 L15.125,-1.890625 L15.4375,-1.890625 C16.03125,-1.890625 16.703125,-1.53125 16.703125,-1.34375 L16.703125,4.984375 L22.4375,4.984375 C22.78125,4.984375 22.984375,5.109375 23.0625,5.375 C22.265625,6.125 20.96875,7.203125 20.96875,7.203125 L19.828125,5.6875 L16.703125,5.6875 L16.703125,9 C17.296875,9.09375 17.515625,9.34375 17.5625,9.671875 Z M14.0625,20.046875 C14.046875,18.9375 14.046875,17.8125 13.9375,16.734375 L10.484375,16.734375 L10.703125,16.015625 L13.875,16.015625 C13.515625,13.296875 12.53125,10.75 9.53125,8.65625 L9.84375,8.296875 C13.796875,10.390625 14.96875,13.171875 15.390625,16.015625 L18.40625,16.015625 L18.40625,10.6875 C18.40625,9.765625 18.59375,9.359375 19.828125,9.359375 L20.8125,9.359375 C22.65625,9.359375 23.15625,9.625 23.15625,10.21875 C23.15625,10.53125 23.0625,10.6875 22.625,10.828125 L22.5625,12.546875 L22.265625,12.546875 C22.078125,11.828125 21.890625,11.046875 21.765625,10.84375 C21.671875,10.734375 21.59375,10.734375 21.5,10.703125 C21.359375,10.703125 21.140625,10.703125 20.875,10.703125 L20.234375,10.703125 C19.9375,10.703125 19.890625,10.78125 19.890625,10.984375 L19.890625,15.796875 C20.296875,15.84375 20.5625,15.953125 20.71875,16.125 L19.03125,17.59375 L18.21875,16.734375 L15.484375,16.734375 C15.578125,17.5625 15.59375,18.40625 15.640625,19.21875 C16.15625,19.265625 16.34375,19.53125 16.390625,19.828125 Z M0.984375,11.609375 L1.171875,10.921875 L4.25,10.921875 C3.53125,7.734375 2.28125,4.375 0.625,1.875 L0.953125,1.5625 C2.5,3.21875 3.765625,5.15625 4.734375,7.296875 L4.734375,-1.921875 L5.046875,-1.921875 C5.609375,-1.921875 6.234375,-1.5625 6.234375,-1.34375 L6.234375,9.171875 C6.953125,8.1875 7.6875,6.890625 7.84375,5.859375 C9.28125,4.6875 10.625,7.65625 6.234375,9.859375 L6.234375,10.921875 L9.546875,10.921875 C9.890625,10.921875 10.125,11.046875 10.171875,11.296875 C9.4375,12 8.28125,12.9375 8.28125,12.9375 L7.25,11.609375 L6.234375,11.609375 L6.234375,19.21875 C6.796875,19.296875 6.953125,19.53125 7.015625,19.84375 L4.734375,20.09375 L4.734375,11.609375 Z" transform="translate(0.109375, 20.09375) scale(1, -1)"/>
</svg>