<svg height="22.015625" viewBox="0 0 24 22.015625" width="24" xmlns="http://www.w3.org/2000/svg">
<path d="M10.53125,18.125 L10.734375,17.40625 L22.46875,17.40625 C22.796875,17.40625 23.015625,17.515625 23.09375,17.78125 C22.296875,18.53125 21.03125,19.5625 21.03125,19.5625 L19.875,18.125 Z M1.6875,18.234375 L1.3125,18.140625 C1.78125,16.796875 2.296875,14.8125 2.25,13.296875 C3.5,11.953125 4.96875,14.875 1.6875,18.234375 Z M8.203125,18.5 C7.84375,16.65625 7.3125,14.46875 6.890625,13.078125 L7.296875,12.890625 C8.140625,14.0625 9.03125,15.796875 9.671875,17.296875 C10.171875,17.28125 10.46875,17.5 10.5625,17.765625 Z M11.25,14.046875 L11.25,9.703125 C11.25,5.875 10.921875,1.828125 8.25,-1.515625 L8.609375,-1.796875 C11.59375,0.71875 12.484375,4.15625 12.703125,7.203125 L20.203125,7.203125 L20.203125,5.546875 L20.421875,5.546875 C20.953125,5.546875 21.71875,5.90625 21.75,6.046875 L21.75,13.0625 C22.21875,13.15625 22.609375,13.34375 22.78125,13.53125 L20.828125,15.03125 L19.96875,14.046875 L13.078125,14.046875 L11.25,14.859375 Z M12.75,7.890625 L12.796875,9.703125 L12.796875,13.375 L20.203125,13.375 L20.203125,7.890625 Z M0.984375,11.609375 L1.171875,10.921875 L4.25,10.921875 C3.53125,7.734375 2.28125,4.375 0.625,1.875 L0.953125,1.5625 C2.5,3.21875 3.765625,5.15625 4.734375,7.296875 L4.734375,-1.921875 L5.046875,-1.921875 C5.609375,-1.921875 6.234375,-1.5625 6.234375,-1.34375 L6.234375,8.875 C7.078125,7.875 7.96875,6.53125 8.234375,5.46875 C9.75,4.3125 10.9375,7.390625 6.234375,9.53125 L6.234375,10.921875 L9.546875,10.921875 C9.890625,10.921875 10.125,11.046875 10.171875,11.296875 C9.4375,12 8.28125,12.9375 8.28125,12.9375 L7.25,11.609375 L6.234375,11.609375 L6.234375,19.21875 C6.796875,19.296875 6.953125,19.53125 7.015625,19.84375 L4.734375,20.09375 L4.734375,11.609375 Z" transform="translate(0.140625, 20.09375) scale(1, -1)"/>
</svg>