<svg height="22.109375" viewBox="0 0 24 22.109375" width="24" xmlns="http://www.w3.org/2000/svg">
<path d="M19.15625,11.046875 L19.15625,-1.828125 L19.4375,-1.828125 C20.015625,-1.828125 20.6875,-1.484375 20.6875,-1.265625 L20.6875,10.125 C21.3125,10.203125 21.5,10.4375 21.578125,10.75 Z M3.484375,11.0625 L3.484375,7.296875 C3.484375,4.4375 3.125,0.90625 0.859375,-1.515625 L1.203125,-1.796875 C4.421875,0.5 4.96875,4.3125 5.015625,7.25 L5.015625,10.21875 C5.59375,10.3125 5.78125,10.515625 5.8125,10.828125 Z M6.984375,10.84375 L6.703125,10.6875 C7.4375,9.84375 8.28125,8.421875 8.375,7.265625 C9.671875,6.1875 10.96875,8.96875 6.984375,10.84375 Z M15.5,11.015625 C14.828125,9.578125 13.96875,8.0625 13.3125,7.125 L13.65625,6.890625 C14.59375,7.578125 15.640625,8.71875 16.53125,9.75 C17.015625,9.640625 17.328125,9.8125 17.453125,10.0625 Z M17.875,17.359375 L17.875,15.53125 L12.546875,15.53125 L12.546875,17.359375 Z M11.046875,20.234375 L11.046875,18.046875 L3.578125,18.046875 L3.796875,17.359375 L11.046875,17.359375 L11.046875,15.53125 L1.15625,15.53125 L1.375,14.828125 L11.046875,14.828125 L11.046875,12.984375 L3.390625,12.984375 L3.59375,12.265625 L11.046875,12.265625 L11.046875,6.484375 L5.5625,6.484375 L5.765625,5.765625 L10.03125,5.765625 C8.78125,3.3125 6.765625,0.953125 4.296875,-0.703125 L4.5625,-1.0625 C7.203125,0.265625 9.4375,2.015625 11.046875,4.15625 L11.046875,-1.875 L11.328125,-1.875 C11.90625,-1.875 12.546875,-1.484375 12.546875,-1.25 L12.546875,4.3125 C14.046875,3.3125 15.859375,1.6875 16.4375,0.3125 C18.234375,-0.71875 19.015625,3.046875 12.546875,4.734375 L12.546875,5.765625 L17.953125,5.765625 C18.265625,5.765625 18.5,5.875 18.546875,6.140625 C17.875,6.8125 16.78125,7.6875 16.78125,7.6875 L15.8125,6.484375 L12.546875,6.484375 L12.546875,12.265625 L17.875,12.265625 L17.875,11.15625 L18.09375,11.15625 C18.59375,11.15625 19.390625,11.515625 19.421875,11.65625 L19.421875,14.828125 L22.515625,14.828125 C22.84375,14.828125 23.0625,14.953125 23.140625,15.1875 C22.421875,15.890625 21.28125,16.796875 21.28125,16.796875 L20.28125,15.53125 L19.421875,15.53125 L19.421875,17.109375 C19.828125,17.1875 20.1875,17.375 20.296875,17.546875 L18.484375,18.953125 L17.65625,18.046875 L12.546875,18.046875 L12.546875,19.3125 C13.15625,19.421875 13.34375,19.625 13.421875,19.96875 Z M17.875,12.984375 L12.546875,12.984375 L12.546875,14.828125 L17.875,14.828125 Z" transform="translate(0, 20.234375) scale(1, -1)"/>
</svg>