<svg height="22.015625" viewBox="0 0 24 22.015625" width="24" xmlns="http://www.w3.org/2000/svg">
<path d="M1.6875,18.234375 L1.3125,18.140625 C1.78125,16.796875 2.296875,14.8125 2.25,13.296875 C3.5,11.953125 4.96875,14.875 1.6875,18.234375 Z M8.1875,18.53125 C7.828125,16.65625 7.296875,14.453125 6.859375,13.03125 L7.25,12.859375 C8.109375,14.046875 9,15.796875 9.640625,17.328125 C10.15625,17.328125 10.4375,17.515625 10.53125,17.8125 Z M20.515625,19.921875 C18.84375,19.171875 15.8125,18.1875 13.078125,17.5625 L11.25,18.359375 L11.25,10.46875 C11.25,6.1875 10.96875,1.890625 8.40625,-1.5625 L8.765625,-1.828125 C11.40625,0.5 12.3125,3.59375 12.625,6.625 L20.359375,6.625 L20.359375,5.25 L20.59375,5.25 C21.09375,5.25 21.859375,5.609375 21.890625,5.765625 L21.890625,12.75 C22.375,12.84375 22.75,13.03125 22.921875,13.21875 L20.96875,14.71875 L20.109375,13.734375 L12.796875,13.734375 L12.796875,16.9375 C15.765625,17.203125 19.03125,17.78125 21.1875,18.28125 C21.71875,18.046875 22.15625,18.078125 22.390625,18.28125 Z M20.359375,7.3125 L12.703125,7.3125 C12.765625,8.40625 12.796875,9.453125 12.796875,10.46875 L12.796875,13.0625 L20.359375,13.0625 Z M0.984375,11.609375 L1.171875,10.921875 L4.25,10.921875 C3.53125,7.734375 2.28125,4.375 0.625,1.875 L0.953125,1.5625 C2.5,3.21875 3.765625,5.15625 4.734375,7.296875 L4.734375,-1.921875 L5.046875,-1.921875 C5.609375,-1.921875 6.234375,-1.5625 6.234375,-1.34375 L6.234375,8.875 C7.078125,7.875 7.96875,6.53125 8.234375,5.46875 C9.75,4.3125 10.9375,7.390625 6.234375,9.53125 L6.234375,10.921875 L9.546875,10.921875 C9.890625,10.921875 10.125,11.046875 10.171875,11.296875 C9.4375,12 8.28125,12.9375 8.28125,12.9375 L7.25,11.609375 L6.234375,11.609375 L6.234375,19.21875 C6.796875,19.296875 6.953125,19.53125 7.015625,19.84375 L4.734375,20.09375 L4.734375,11.609375 Z" transform="translate(0.2265625, 20.09375) scale(1, -1)"/>
</svg>