<svg height="22" viewBox="0 0 24 22" width="24" xmlns="http://www.w3.org/2000/svg">
<path d="M1.53125,18.3125 L1.203125,18.21875 C1.734375,16.84375 2.359375,14.8125 2.375,13.265625 C3.703125,11.875 5.203125,14.96875 1.53125,18.3125 Z M9.03125,18.59375 C8.46875,16.65625 7.734375,14.359375 7.203125,12.90625 L7.578125,12.71875 C8.546875,13.9375 9.59375,15.765625 10.46875,17.328125 C10.921875,17.296875 11.234375,17.515625 11.328125,17.765625 Z M19.890625,7.484375 L19.890625,0.8125 L12.40625,0.8125 L12.40625,7.484375 Z M14.96875,19.890625 L14.96875,8.203125 L12.5,8.203125 L10.875,8.953125 L10.875,-1.796875 L11.140625,-1.796875 C11.765625,-1.796875 12.40625,-1.4375 12.40625,-1.265625 L12.40625,0.09375 L19.890625,0.09375 L19.890625,-1.734375 L20.109375,-1.734375 C20.640625,-1.734375 21.4375,-1.375 21.453125,-1.203125 L21.453125,7.15625 C21.953125,7.21875 22.390625,7.4375 22.5625,7.65625 L20.515625,9.21875 L19.625,8.203125 L16.5625,8.203125 L16.5625,13.609375 L22.421875,13.609375 C22.75,13.609375 22.96875,13.734375 23.046875,13.984375 C22.25,14.734375 20.96875,15.71875 20.96875,15.71875 L19.875,14.296875 L16.5625,14.296875 L16.5625,18.9375 C17.140625,19.0625 17.375,19.296875 17.421875,19.625 Z M6.640625,8.859375 L6.59375,8.828125 L6.59375,10.796875 L10.53125,10.796875 C10.84375,10.796875 11.09375,10.921875 11.140625,11.1875 C10.421875,11.90625 9.1875,12.859375 9.1875,12.859375 L8.140625,11.5 L6.59375,11.5 L6.59375,19.171875 C7.21875,19.265625 7.421875,19.515625 7.484375,19.84375 L5.0625,20.109375 L5.0625,11.5 L0.984375,11.5 L1.171875,10.796875 L4.296875,10.796875 C3.546875,7.625 2.28125,4.296875 0.578125,1.796875 L0.890625,1.46875 C2.640625,3.28125 4.0625,5.453125 5.0625,7.828125 L5.0625,-1.890625 L5.375,-1.890625 C5.953125,-1.890625 6.59375,-1.53125 6.59375,-1.296875 L6.59375,8.421875 C7.578125,7.375 8.6875,5.828125 9.03125,4.65625 C10.578125,3.53125 11.78125,6.75 6.640625,8.859375 Z" transform="translate(0.1875, 20.109375) scale(1, -1)"/>
</svg>