<svg height="22.015625" viewBox="0 0 24 22.015625" width="24" xmlns="http://www.w3.org/2000/svg">
<path d="M10.265625,18.59375 L10.46875,17.921875 L21.984375,17.921875 C22.34375,17.921875 22.578125,18.046875 22.625,18.28125 C21.84375,19.015625 20.59375,19.984375 20.59375,19.984375 L19.484375,18.59375 Z M1.6875,18.234375 L1.3125,18.140625 C1.78125,16.796875 2.296875,14.8125 2.25,13.296875 C3.5,11.953125 4.96875,14.875 1.6875,18.234375 Z M8.15625,18.4375 C7.828125,16.578125 7.296875,14.421875 6.859375,13.03125 L7.265625,12.859375 C8.09375,14.046875 8.953125,15.71875 9.625,17.1875 C10.109375,17.140625 10.390625,17.359375 10.515625,17.640625 Z M19.625,14.78125 L19.625,12.140625 L12.453125,12.140625 L12.453125,14.78125 Z M8.140625,0.046875 L9.28125,-1.921875 C9.5,-1.828125 9.71875,-1.65625 9.8125,-1.375 C13.078125,-0.125 15.453125,0.859375 17.109375,1.5625 L17.046875,1.9375 L12.453125,0.90625 L12.453125,8.015625 L15.234375,8.015625 C16.203125,3.21875 18.3125,0.171875 22.0625,-1.703125 C22.3125,-0.953125 22.828125,-0.5 23.46875,-0.40625 L23.515625,-0.1875 C21.265625,0.59375 19.421875,1.84375 18.03125,3.546875 C19.265625,4.0625 20.921875,4.890625 22.203125,5.71875 C22.703125,5.546875 22.921875,5.609375 23.09375,5.8125 L21.234375,7.265625 C20.140625,6.078125 18.75,4.78125 17.6875,3.984375 C16.828125,5.140625 16.171875,6.484375 15.71875,8.015625 L19.625,8.015625 L19.625,7.109375 L19.875,7.109375 C20.40625,7.109375 21.140625,7.46875 21.171875,7.625 L21.171875,14.46875 C21.671875,14.5625 22.03125,14.78125 22.203125,14.96875 L20.28125,16.4375 L19.421875,15.484375 L12.75,15.484375 L10.9375,16.46875 L10.9375,0.59375 C9.765625,0.34375 8.78125,0.140625 8.140625,0.046875 Z M19.625,11.46875 L19.625,8.734375 L12.453125,8.734375 L12.453125,11.46875 Z M0.984375,11.609375 L1.171875,10.921875 L4.25,10.921875 C3.53125,7.734375 2.28125,4.375 0.625,1.875 L0.953125,1.5625 C2.5,3.21875 3.765625,5.15625 4.734375,7.296875 L4.734375,-1.921875 L5.046875,-1.921875 C5.609375,-1.921875 6.234375,-1.5625 6.234375,-1.34375 L6.234375,8.875 C7.078125,7.875 7.96875,6.53125 8.234375,5.46875 C9.75,4.3125 10.9375,7.390625 6.234375,9.53125 L6.234375,10.921875 L9.546875,10.921875 C9.890625,10.921875 10.125,11.046875 10.171875,11.296875 C9.4375,12 8.28125,12.9375 8.28125,12.9375 L7.25,11.609375 L6.234375,11.609375 L6.234375,19.21875 C6.796875,19.296875 6.953125,19.53125 7.015625,19.84375 L4.734375,20.09375 L4.734375,11.609375 Z" transform="translate(-0.0703125, 20.09375) scale(1, -1)"/>
</svg>