<svg height="22.015625" viewBox="0 0 24 22.015625" width="24" xmlns="http://www.w3.org/2000/svg">
<path d="M1.6875,18.234375 L1.3125,18.140625 C1.78125,16.796875 2.296875,14.8125 2.25,13.296875 C3.5,11.953125 4.96875,14.875 1.6875,18.234375 Z M8.1875,18.53125 C7.828125,16.65625 7.296875,14.453125 6.859375,13.03125 L7.25,12.859375 C8.109375,14.046875 9,15.796875 9.640625,17.328125 C10.15625,17.328125 10.4375,17.515625 10.53125,17.8125 Z M12.390625,12.390625 L19.578125,12.390625 L19.578125,9.09375 L12.390625,9.09375 Z M12.390625,13.109375 L12.390625,16.375 L19.578125,16.375 L19.578125,13.109375 Z M21.171875,7.578125 C20.46875,6.796875 18.953125,5.28125 17.6875,4.25 C16.734375,5.5 15.953125,6.90625 15.40625,8.421875 L19.578125,8.421875 L19.578125,7.34375 L19.796875,7.34375 C20.28125,7.34375 21.046875,7.65625 21.09375,7.796875 L21.09375,16.0625 C21.578125,16.15625 21.9375,16.34375 22.109375,16.53125 L20.1875,18 L19.34375,17.046875 L16.53125,17.046875 L16.53125,19.15625 C17.109375,19.25 17.328125,19.46875 17.375,19.796875 L15,20.046875 L15,17.046875 L12.5,17.046875 L10.875,17.828125 L10.875,0.59375 C9.671875,0.34375 8.6875,0.125 8.0625,0.03125 L9.125,-1.921875 C9.359375,-1.84375 9.53125,-1.625 9.625,-1.34375 C12.953125,-0.078125 15.359375,0.984375 17.109375,1.734375 L17.015625,2.09375 L12.390625,0.953125 L12.390625,8.421875 L14.90625,8.421875 C16.078125,3.625 18.3125,0.234375 22.078125,-1.609375 C22.296875,-0.8125 22.828125,-0.34375 23.453125,-0.234375 L23.46875,0.03125 C21.3125,0.75 19.46875,2.109375 18,3.859375 C19.609375,4.484375 21.359375,5.46875 22.25,6.03125 C22.609375,5.90625 22.84375,5.921875 22.96875,6.078125 Z M0.984375,11.609375 L1.171875,10.921875 L4.25,10.921875 C3.53125,7.734375 2.28125,4.375 0.625,1.875 L0.953125,1.5625 C2.5,3.21875 3.765625,5.15625 4.734375,7.296875 L4.734375,-1.921875 L5.046875,-1.921875 C5.609375,-1.921875 6.234375,-1.5625 6.234375,-1.34375 L6.234375,8.875 C7.078125,7.875 7.96875,6.53125 8.234375,5.46875 C9.75,4.3125 10.9375,7.390625 6.234375,9.53125 L6.234375,10.921875 L9.546875,10.921875 C9.890625,10.921875 10.125,11.046875 10.171875,11.296875 C9.4375,12 8.28125,12.9375 8.28125,12.9375 L7.25,11.609375 L6.234375,11.609375 L6.234375,19.21875 C6.796875,19.296875 6.953125,19.53125 7.015625,19.84375 L4.734375,20.09375 L4.734375,11.609375 Z" transform="translate(-0.046875, 20.09375) scale(1, -1)"/>
</svg>