<svg height="22.015625" viewBox="0 0 24 22.015625" width="24" xmlns="http://www.w3.org/2000/svg">
<path d="M1.5625,18.21875 L1.21875,18.125 C1.6875,16.796875 2.1875,14.78125 2.15625,13.296875 C3.359375,11.921875 4.84375,14.859375 1.5625,18.21875 Z M8.015625,18.53125 C7.609375,16.6875 7.109375,14.453125 6.703125,13.0625 L7.109375,12.859375 C7.890625,14.09375 8.78125,15.859375 9.5,17.328125 C9.984375,17.328125 10.25,17.5625 10.34375,17.828125 Z M15.078125,19.9375 L15.078125,16.84375 L9.890625,16.84375 L10.078125,16.15625 L22.03125,16.15625 C22.375,16.15625 22.578125,16.265625 22.65625,16.53125 C21.859375,17.28125 20.59375,18.28125 20.59375,18.28125 L19.46875,16.84375 L16.609375,16.84375 L16.609375,19.078125 C17.15625,19.15625 17.40625,19.390625 17.453125,19.734375 Z M15.125,8.140625 L15.125,5.203125 L9.3125,5.203125 L9.5,4.484375 L15.125,4.484375 L15.125,-1.890625 L15.40625,-1.890625 C16.015625,-1.890625 16.65625,-1.578125 16.65625,-1.421875 L16.65625,4.484375 L22.53125,4.484375 C22.84375,4.484375 23.09375,4.609375 23.15625,4.875 C22.390625,5.609375 21.140625,6.59375 21.140625,6.59375 L20.015625,5.203125 L16.65625,5.203125 L16.65625,7.21875 C17.25,7.3125 17.46875,7.53125 17.515625,7.875 Z M0.984375,11.640625 L1.171875,10.9375 L4.0625,10.9375 C3.359375,7.75 2.203125,4.421875 0.546875,1.921875 L0.90625,1.578125 C2.421875,3.265625 3.671875,5.234375 4.609375,7.421875 L4.609375,-1.921875 L4.921875,-1.921875 C5.5,-1.921875 6.125,-1.5625 6.125,-1.34375 L6.125,9.078125 C6.890625,8.046875 7.75,6.578125 7.96875,5.421875 C9.4375,4.203125 10.75,7.34375 6.125,9.59375 L6.125,10.9375 L9.5,10.9375 C9.84375,10.9375 10.0625,11.0625 10.125,11.328125 C9.40625,12.03125 8.234375,12.953125 8.234375,12.953125 L7.203125,11.640625 L6.125,11.640625 L6.125,19.21875 C6.671875,19.296875 6.84375,19.53125 6.890625,19.84375 L4.609375,20.09375 L4.609375,11.640625 Z M12.265625,15.640625 C11.71875,12.546875 10.46875,9.765625 8.96875,7.921875 L9.34375,7.6875 C10.609375,8.65625 11.71875,10.109375 12.578125,11.8125 C13.203125,11.140625 13.875,10.21875 14.140625,9.53125 C15.40625,8.6875 16.484375,11.015625 12.8125,12.3125 C13.125,13.015625 13.4375,13.75 13.6875,14.546875 C14.1875,14.546875 14.421875,14.765625 14.515625,15.078125 Z M18.234375,15.671875 C17.640625,12.453125 16.171875,9.90625 14.359375,8.328125 L14.65625,8.046875 C16.171875,8.875 17.453125,10.125 18.4375,11.765625 C19.484375,10.890625 20.6875,9.59375 21.140625,8.59375 C22.734375,7.703125 23.640625,10.6875 18.671875,12.1875 C19.0625,12.90625 19.390625,13.6875 19.6875,14.515625 C20.1875,14.5 20.453125,14.71875 20.546875,15.03125 Z" transform="translate(-0.09375, 20.09375) scale(1, -1)"/>
</svg>