<svg height="21.5625" viewBox="0 0 24 21.5625" width="24" xmlns="http://www.w3.org/2000/svg">
<path d="M3.390625,4.390625 L2.953125,4.390625 C3.046875,2.8125 2.375,1.0625 1.6875,0.359375 C1.25,-0.03125 1.015625,-0.546875 1.296875,-1.015625 C1.625,-1.46875 2.515625,-1.265625 2.921875,-0.71875 C3.578125,0.09375 4.015625,1.921875 3.390625,4.390625 Z M8.65625,5.59375 L8.359375,5.453125 C9.046875,4.375 9.75,2.609375 9.75,1.265625 C11.09375,-0.03125 12.625,3.09375 8.65625,5.59375 Z M5.953125,4.9375 L5.59375,4.84375 C5.921875,3.59375 6.140625,1.734375 5.921875,0.28125 C7.109375,-1.15625 8.875,1.703125 5.953125,4.9375 Z M8.375,10.734375 L8.0625,10.578125 C8.515625,9.859375 9,8.90625 9.359375,7.96875 C7.015625,7.734375 4.75,7.515625 3.1875,7.421875 C5.765625,9.359375 8.65625,12.28125 10.171875,14.296875 C10.65625,14.1875 10.984375,14.359375 11.109375,14.5625 L8.953125,15.9375 C8.546875,15.140625 7.890625,14.140625 7.125,13.078125 C5.546875,13.0625 4.015625,13.0625 2.859375,13.0625 C4.65625,14.640625 6.640625,16.921875 7.78125,18.546875 C8.25,18.453125 8.546875,18.640625 8.65625,18.859375 L6.4375,20.09375 C5.65625,18.234375 3.578125,14.78125 1.921875,13.34375 C1.75,13.21875 1.296875,13.125 1.296875,13.125 L2.15625,10.984375 C2.375,11.0625 2.5625,11.234375 2.734375,11.515625 C4.125,11.78125 5.46875,12.078125 6.578125,12.34375 C5.203125,10.53125 3.578125,8.71875 2.203125,7.6875 C1.984375,7.53125 1.515625,7.4375 1.515625,7.4375 L2.328125,5.28125 C2.546875,5.359375 2.734375,5.5 2.875,5.765625 C5.5,6.359375 7.921875,7.015625 9.53125,7.46875 C9.671875,7.015625 9.765625,6.546875 9.8125,6.140625 C11.1875,4.890625 12.59375,7.96875 8.375,10.734375 Z" transform="translate(5.1796875, 20.09375) scale(1, -1)"/>
</svg>