<svg height="22.125" viewBox="0 0 24 22.125" width="24" xmlns="http://www.w3.org/2000/svg">
<path d="M15.53125,6.078125 L15.234375,5.859375 C17.25,4.375 19.828125,1.75 20.5,-0.359375 C22.515625,-1.6875 23.375,3 15.53125,6.078125 Z M6.953125,6.1875 C5.859375,4.0625 3.5,1.25 1.078125,-0.53125 L1.375,-0.84375 C4.171875,0.625 6.8125,3 8.203125,4.890625 C8.765625,4.75 8.953125,4.875 9.09375,5.109375 Z M15.796875,18.078125 C13.84375,15.359375 10.703125,11.65625 7.984375,8.96875 C5.203125,8.921875 2.90625,8.90625 1.4375,8.90625 L2.296875,6.890625 C2.546875,6.9375 2.8125,7.078125 2.953125,7.375 L11.234375,7.984375 L11.234375,-1.875 L11.46875,-1.875 C12.234375,-1.875 12.796875,-1.484375 12.796875,-1.375 L12.796875,8.140625 C15.390625,8.359375 17.609375,8.5625 19.5625,8.765625 C20.140625,8.0625 20.609375,7.34375 20.859375,6.671875 C22.796875,5.546875 23.5,9.9375 15.984375,12.4375 L15.75,12.1875 C16.828125,11.46875 18.078125,10.4375 19.078125,9.3125 C15.359375,9.1875 11.828125,9.078125 8.8125,9 C11.78125,11.28125 15.09375,14.375 17.046875,16.578125 C17.546875,16.46875 17.90625,16.609375 18.078125,16.84375 Z M9.90625,20.25 C8.90625,18.359375 7.65625,16.34375 6.578125,14.875 C5.71875,15.40625 4.5625,15.90625 3.09375,16.3125 L2.859375,16.078125 C4.609375,14.96875 6.90625,12.90625 7.625,11.25 C9.046875,10.53125 9.765625,12.59375 7.125,14.515625 C8.5,15.703125 9.984375,17.25 11.234375,18.796875 C11.734375,18.671875 12.046875,18.859375 12.1875,19.109375 Z" transform="translate(-0.2890625, 20.25) scale(1, -1)"/>
</svg>