<svg height="22.015625" viewBox="0 0 24 22.015625" width="24" xmlns="http://www.w3.org/2000/svg">
<path d="M7.578125,6.640625 L7.25,6.546875 C7.796875,5.40625 8.453125,3.578125 8.515625,2.234375 C9.8125,0.9375 11.28125,3.84375 7.578125,6.640625 Z M2.421875,6.484375 C2.15625,4.21875 1.53125,1.875 0.8125,0.234375 L1.21875,0.046875 C2.296875,1.390625 3.140625,3.4375 3.71875,5.453125 C4.21875,5.453125 4.484375,5.640625 4.5625,5.953125 Z M1.3125,16.203125 L1.078125,16.015625 C2.0625,15.21875 3.1875,13.84375 3.484375,12.765625 C4.625,11.96875 5.546875,13.703125 3.640625,15.125 C4.609375,16.171875 5.65625,17.546875 6.5,18.8125 C7.015625,18.765625 7.3125,18.984375 7.390625,19.21875 L5.140625,20.140625 C4.53125,18.546875 3.765625,16.75 3.140625,15.453125 C2.65625,15.75 2.0625,15.984375 1.3125,16.203125 Z M7.25,11.953125 L6.984375,11.8125 C7.34375,11.296875 7.75,10.625 8.0625,9.90625 L4.15625,9.71875 C5.859375,11.6875 7.703125,14.15625 8.828125,15.9375 C9.34375,15.859375 9.640625,16.015625 9.796875,16.296875 L7.5625,17.1875 C6.53125,15 4.828125,11.96875 3.40625,9.703125 L0.953125,9.625 L1.703125,7.828125 C1.9375,7.875 2.15625,7.984375 2.28125,8.296875 L4.9375,8.765625 L4.9375,-1.875 L5.1875,-1.875 C5.90625,-1.875 6.4375,-1.484375 6.4375,-1.375 L6.4375,9.03125 L8.296875,9.390625 C8.515625,8.859375 8.65625,8.328125 8.71875,7.875 C10.109375,6.640625 11.5,9.640625 7.25,11.953125 Z M15.4375,19.84375 C15.4375,18.390625 15.4375,16.921875 15.390625,15.484375 L11.96875,15.484375 L10.34375,16.265625 L10.34375,-1.84375 L10.625,-1.84375 C11.28125,-1.84375 11.859375,-1.484375 11.859375,-1.296875 L11.859375,14.8125 L15.359375,14.8125 C15.171875,10.875 14.46875,7.15625 11.921875,4.171875 L12.28125,3.8125 C14.515625,5.765625 15.671875,8.140625 16.25,10.65625 C17.46875,9.046875 18.640625,6.90625 18.8125,5.203125 C20.375,3.84375 21.640625,7.625 16.421875,11.359375 C16.625,12.484375 16.75,13.65625 16.828125,14.8125 L20.59375,14.8125 L20.59375,0.640625 C20.59375,0.265625 20.453125,0.125 20.015625,0.125 C19.515625,0.125 17.0625,0.3125 17.0625,0.3125 L17.0625,-0.078125 C18.125,-0.21875 18.75,-0.40625 19.109375,-0.671875 C19.4375,-0.90625 19.5625,-1.3125 19.609375,-1.796875 C21.859375,-1.578125 22.109375,-0.765625 22.109375,0.453125 L22.109375,14.5625 C22.53125,14.640625 22.890625,14.8125 23.046875,15 L21.140625,16.4375 L20.375,15.484375 L16.875,15.484375 C16.921875,16.65625 16.9375,17.828125 16.96875,18.984375 C17.515625,19.0625 17.71875,19.296875 17.765625,19.609375 Z" transform="translate(0.0703125, 20.140625) scale(1, -1)"/>
</svg>