<svg height="21.953125" viewBox="0 0 24 21.953125" width="24" xmlns="http://www.w3.org/2000/svg">
<path d="M13.25,11.0625 L12.953125,10.890625 C14.09375,9.625 15.34375,7.515625 15.453125,5.828125 C17.140625,4.390625 18.640625,8.328125 13.25,11.0625 Z M7.9375,7.078125 L7.625,6.9375 C8.296875,5.6875 9.125,3.796875 9.265625,2.359375 C10.6875,1.015625 12.171875,4.203125 7.9375,7.078125 Z M2.609375,7.015625 C2.28125,4.609375 1.578125,2.09375 0.8125,0.390625 L1.203125,0.1875 C2.359375,1.625 3.3125,3.796875 3.9375,5.90625 C4.4375,5.90625 4.6875,6.125 4.78125,6.4375 Z M13.265625,19.984375 C12.625,16.5625 11.421875,13.03125 10.125,10.703125 L10.46875,10.46875 C11.40625,11.515625 12.265625,12.84375 13.03125,14.296875 L20.328125,14.296875 C20.140625,7.265625 19.65625,1.515625 18.71875,0.625 C18.4375,0.34375 18.234375,0.265625 17.71875,0.265625 C17.109375,0.265625 14.96875,0.484375 13.703125,0.59375 L13.65625,0.171875 C14.8125,-0.03125 16.078125,-0.3125 16.515625,-0.59375 C16.890625,-0.84375 17.015625,-1.296875 16.984375,-1.796875 C18.265625,-1.796875 19.25,-1.4375 19.96875,-0.640625 C21.171875,0.75 21.671875,6.546875 21.890625,14.109375 C22.421875,14.15625 22.734375,14.296875 22.890625,14.5 L21.046875,16.0625 L20.09375,15.03125 L13.375,15.03125 C13.9375,16.21875 14.453125,17.5 14.859375,18.796875 C15.359375,18.796875 15.625,19.015625 15.71875,19.296875 Z M1.515625,16.3125 L1.265625,16.078125 C2.25,15.3125 3.453125,13.9375 3.796875,12.8125 C4.9375,12.078125 5.78125,13.78125 3.859375,15.21875 C4.796875,16.21875 5.78125,17.59375 6.546875,18.859375 C7.0625,18.8125 7.34375,19.03125 7.4375,19.296875 L5.140625,20.109375 C4.625,18.546875 3.953125,16.828125 3.359375,15.546875 C2.859375,15.84375 2.25,16.109375 1.515625,16.3125 Z M7.578125,12.3125 L7.296875,12.140625 C7.6875,11.640625 8.109375,10.984375 8.5,10.3125 L4.375,10.015625 C6.140625,11.875 7.921875,14.28125 9.03125,16.0625 C9.53125,15.984375 9.859375,16.171875 9.984375,16.4375 L7.734375,17.359375 C6.75,15.125 5.09375,12.140625 3.59375,9.9375 C2.5,9.859375 1.578125,9.8125 0.984375,9.8125 L1.53125,7.984375 C1.796875,8.046875 2.015625,8.203125 2.140625,8.5 L5.234375,9.078125 L5.234375,-1.84375 L5.46875,-1.84375 C6.1875,-1.84375 6.71875,-1.46875 6.71875,-1.34375 L6.71875,9.390625 L8.765625,9.8125 C9.046875,9.171875 9.28125,8.546875 9.390625,7.984375 C10.84375,6.796875 12.1875,9.9375 7.578125,12.3125 Z" transform="translate(0.1484375, 20.109375) scale(1, -1)"/>
</svg>