<svg height="21.984375" viewBox="0 0 24 21.984375" width="24" xmlns="http://www.w3.org/2000/svg">
<path d="M7.984375,6.53125 L7.6875,6.40625 C8.28125,5.203125 9,3.28125 9.09375,1.84375 C10.515625,0.53125 12.03125,3.625 7.984375,6.53125 Z M2.515625,6.484375 C2.234375,4.25 1.609375,1.890625 0.890625,0.28125 L1.265625,0.078125 C2.359375,1.421875 3.234375,3.453125 3.84375,5.40625 C4.3125,5.421875 4.578125,5.609375 4.6875,5.875 Z M9.21875,14.90625 L9.40625,14.203125 L11.875,14.203125 C12.40625,10.125 13.46875,6.765625 15.125,4.078125 C13.46875,1.921875 11.296875,0.03125 8.515625,-1.515625 L8.765625,-1.84375 C11.71875,-0.546875 14.015625,1.109375 15.8125,3.046875 C17.28125,0.984375 19.15625,-0.625 21.453125,-1.875 C21.8125,-1.15625 22.4375,-0.75 23.140625,-0.71875 L23.234375,-0.484375 C20.640625,0.578125 18.484375,2.140625 16.78125,4.171875 C18.953125,6.984375 20.234375,10.34375 20.953125,14.203125 L22.53125,14.203125 C22.875,14.203125 23.109375,14.328125 23.140625,14.59375 C22.375,15.3125 21.078125,16.34375 21.078125,16.34375 L19.921875,14.90625 L16.78125,14.90625 L16.78125,18.90625 C17.359375,18.984375 17.59375,19.21875 17.640625,19.5625 L15.1875,19.828125 L15.1875,14.90625 Z M12.390625,14.203125 L19.203125,14.203125 C18.671875,10.875 17.640625,7.875 15.9375,5.234375 C14.203125,7.65625 13.015625,10.65625 12.390625,14.203125 Z M1.203125,16.203125 L0.9375,16.015625 C1.921875,15.1875 3.078125,13.828125 3.359375,12.71875 C4.5625,11.921875 5.46875,13.6875 3.578125,15.125 C4.515625,16.15625 5.5,17.5625 6.34375,18.8125 C6.8125,18.765625 7.125,18.953125 7.21875,19.25 L4.890625,20.109375 C4.34375,18.53125 3.640625,16.734375 3.078125,15.453125 C2.59375,15.71875 1.96875,15.984375 1.203125,16.203125 Z M7.515625,11.90625 L7.25,11.734375 C7.65625,11.234375 8.109375,10.578125 8.5,9.890625 L4.171875,9.71875 C6,11.78125 8.046875,14.421875 9.21875,16.25 C9.75,16.203125 10.078125,16.34375 10.203125,16.609375 L7.96875,17.59375 C6.84375,15.28125 4.984375,12.09375 3.453125,9.703125 L1.03125,9.640625 L1.734375,7.796875 C1.96875,7.828125 2.203125,7.96875 2.328125,8.28125 L5.203125,8.734375 L5.203125,-1.875 L5.453125,-1.875 C6.171875,-1.875 6.703125,-1.484375 6.703125,-1.375 L6.703125,9 L8.765625,9.390625 C9.03125,8.828125 9.21875,8.28125 9.3125,7.796875 C10.796875,6.59375 12.171875,9.75 7.515625,11.90625 Z" transform="translate(-0.0625, 20.109375) scale(1, -1)"/>
</svg>