<svg height="22.0625" viewBox="0 0 24 22.0625" width="24" xmlns="http://www.w3.org/2000/svg">
<path d="M7.421875,6.859375 L7.125,6.75 C7.65625,5.640625 8.296875,3.90625 8.296875,2.5625 C9.578125,1.265625 11.140625,4.203125 7.421875,6.859375 Z M2.359375,6.5 C2.109375,4.265625 1.578125,1.921875 0.9375,0.265625 L1.34375,0.078125 C2.359375,1.4375 3.140625,3.5 3.703125,5.46875 C4.203125,5.5 4.421875,5.71875 4.515625,5.96875 Z M9.484375,18.59375 L9.703125,17.90625 L11.734375,17.90625 C11.71875,11.234375 11.734375,4.0625 8.140625,-1.3125 L8.5625,-1.703125 C12,2.375 12.8125,7.625 13.0625,13.109375 C13.609375,8.921875 14.640625,5.5625 16.390625,2.921875 C14.96875,1.171875 13.171875,-0.34375 10.890625,-1.515625 L11.140625,-1.875 C13.609375,-0.859375 15.546875,0.4375 17.09375,1.984375 C18.28125,0.40625 19.796875,-0.859375 21.671875,-1.921875 C22.03125,-1.203125 22.6875,-0.796875 23.375,-0.796875 L23.46875,-0.578125 C21.328125,0.359375 19.578125,1.625 18.171875,3.21875 C20.0625,5.5625 21.1875,8.375 21.90625,11.375 C22.46875,11.421875 22.703125,11.46875 22.890625,11.71875 L21.1875,13.265625 L20.1875,12.28125 L17.875,12.28125 C18.390625,14.203125 18.890625,16.3125 19.171875,17.609375 C19.6875,17.65625 20.0625,17.8125 20.234375,18 L18.34375,19.53125 L17.546875,18.59375 Z M13.203125,17.90625 L17.640625,17.90625 C17.234375,15.859375 16.515625,12.84375 15.84375,10.515625 C16.5625,10.34375 17.015625,10.375 17.40625,10.515625 L17.6875,11.59375 L20.28125,11.59375 C19.734375,8.90625 18.796875,6.40625 17.359375,4.21875 C14.875,7.515625 13.609375,12.03125 13.171875,17.78125 Z M7.078125,12 L6.796875,11.859375 C7.125,11.296875 7.515625,10.609375 7.796875,9.890625 L4.125,9.71875 C5.78125,11.765625 7.5625,14.25 8.65625,16.0625 C9.140625,15.984375 9.484375,16.171875 9.59375,16.4375 L7.3125,17.359375 C6.34375,15.125 4.75,12.03125 3.40625,9.703125 L1.015625,9.625 L1.734375,7.796875 C1.9375,7.84375 2.1875,7.984375 2.328125,8.296875 L4.875,8.765625 L4.875,-1.875 L5.09375,-1.875 C5.828125,-1.875 6.359375,-1.484375 6.359375,-1.375 L6.359375,9.046875 L7.984375,9.359375 C8.15625,8.859375 8.28125,8.359375 8.296875,7.890625 C9.671875,6.625 11.1875,9.625 7.078125,12 Z M1.15625,16.203125 L0.890625,16.015625 C1.796875,15.234375 2.8125,13.921875 3.078125,12.84375 C4.203125,12.046875 5.140625,13.703125 3.4375,15.09375 C4.3125,16.15625 5.296875,17.5625 6.09375,18.8125 C6.578125,18.796875 6.890625,18.984375 6.984375,19.265625 L4.625,20.140625 C4.109375,18.546875 3.453125,16.75 2.90625,15.453125 C2.453125,15.75 1.875,15.984375 1.15625,16.203125 Z" transform="translate(-0.1796875, 20.140625) scale(1, -1)"/>
</svg>