<svg height="22.609375" viewBox="0 0 24 22.609375" width="24" xmlns="http://www.w3.org/2000/svg">
<path d="M13.9375,7.25 L13.75,6.984375 C15.171875,6.359375 17.09375,5.0625 17.859375,4.0625 C19.578125,3.5 19.78125,6.8125 13.9375,7.25 Z M12.03125,2.8125 L11.921875,2.453125 C15.640625,1.296875 18.546875,-0.546875 19.75,-1.796875 C21.796875,-2.5 22.296875,1.84375 12.03125,2.8125 Z M7.9375,6.796875 L7.625,6.671875 C8.234375,5.453125 8.953125,3.546875 9.03125,2.109375 C10.4375,0.765625 11.96875,3.890625 7.9375,6.796875 Z M2.515625,6.484375 C2.234375,4.25 1.609375,1.890625 0.890625,0.28125 L1.265625,0.078125 C2.359375,1.421875 3.234375,3.453125 3.84375,5.40625 C4.34375,5.421875 4.578125,5.609375 4.6875,5.90625 Z M14.359375,16.390625 L19.0625,16.390625 C18.40625,14.8125 17.515625,13.3125 16.375,11.921875 C15.3125,13.015625 14.453125,14.25 13.84375,15.640625 Z M14.359375,20.09375 C13.25,16.75 11.375,13.6875 9.5,11.828125 L9.8125,11.546875 C11.140625,12.453125 12.390625,13.65625 13.46875,15.125 C14.015625,13.625 14.765625,12.28125 15.671875,11.109375 C13.9375,9.21875 11.78125,7.578125 9.234375,6.390625 L9.484375,6 C12.28125,7.03125 14.59375,8.46875 16.4375,10.203125 C17.953125,8.515625 19.84375,7.203125 22.015625,6.28125 C22.25,6.953125 22.734375,7.421875 23.359375,7.484375 L23.40625,7.703125 C21.140625,8.421875 19.03125,9.546875 17.296875,11.046875 C18.796875,12.59375 19.921875,14.359375 20.78125,16.203125 C21.328125,16.21875 21.59375,16.296875 21.765625,16.515625 L20.09375,18.046875 L19.078125,17.09375 L14.78125,17.09375 C15.09375,17.640625 15.40625,18.21875 15.671875,18.8125 C16.171875,18.75 16.515625,18.953125 16.609375,19.203125 Z M1.203125,16.203125 L0.9375,16.015625 C1.921875,15.1875 3.078125,13.828125 3.359375,12.71875 C4.5625,11.921875 5.46875,13.6875 3.578125,15.125 C4.515625,16.15625 5.5,17.5625 6.34375,18.8125 C6.8125,18.765625 7.125,18.953125 7.21875,19.25 L4.890625,20.109375 C4.34375,18.53125 3.640625,16.734375 3.078125,15.453125 C2.59375,15.71875 1.96875,15.984375 1.203125,16.203125 Z M7.34375,12.125 L7.0625,12 C7.46875,11.46875 7.9375,10.796875 8.328125,10.109375 L4.21875,9.796875 C6.078125,11.875 8.0625,14.46875 9.265625,16.296875 C9.765625,16.21875 10.125,16.390625 10.21875,16.65625 L7.96875,17.59375 C6.84375,15.28125 5.015625,12.125 3.484375,9.75 L1.03125,9.59375 L1.796875,7.796875 C2.015625,7.84375 2.234375,8.015625 2.359375,8.296875 L5.203125,8.875 L5.203125,-1.875 L5.453125,-1.875 C6.171875,-1.875 6.703125,-1.484375 6.703125,-1.375 L6.703125,9.1875 L8.5625,9.625 C8.828125,9.125 9.03125,8.59375 9.09375,8.140625 C10.53125,6.953125 11.921875,10.0625 7.34375,12.125 Z" transform="translate(-0.1484375, 20.109375) scale(1, -1)"/>
</svg>