<svg height="21.984375" viewBox="0 0 24 21.984375" width="24" xmlns="http://www.w3.org/2000/svg">
<path d="M13.875,7.21875 L13.65625,6.953125 C15.03125,6.234375 16.78125,4.828125 17.453125,3.765625 C19.078125,3.125 19.4375,6.359375 13.875,7.21875 Z M12.09375,-0.046875 L13.484375,-1.828125 C13.703125,-1.734375 13.84375,-1.484375 13.890625,-1.203125 C17.640625,0.75 20.375,2.296875 22.296875,3.453125 L22.15625,3.8125 C17.953125,2.09375 13.828125,0.484375 12.09375,-0.046875 Z M7.84375,6.765625 L7.53125,6.640625 C8.140625,5.421875 8.859375,3.53125 8.921875,2.09375 C10.375,0.75 11.875,3.859375 7.84375,6.765625 Z M2.515625,6.484375 C2.234375,4.25 1.609375,1.890625 0.890625,0.28125 L1.265625,0.078125 C2.359375,1.421875 3.234375,3.453125 3.859375,5.453125 C4.34375,5.46875 4.609375,5.65625 4.6875,5.96875 Z M1.203125,16.203125 L0.9375,16.015625 C1.921875,15.1875 3.078125,13.828125 3.359375,12.71875 C4.5625,11.921875 5.46875,13.6875 3.578125,15.125 C4.515625,16.15625 5.5,17.5625 6.34375,18.8125 C6.8125,18.765625 7.125,18.953125 7.21875,19.25 L4.890625,20.109375 C4.34375,18.53125 3.640625,16.734375 3.078125,15.453125 C2.59375,15.71875 1.96875,15.984375 1.203125,16.203125 Z M7.484375,12.1875 L7.21875,12.03125 C7.609375,11.515625 8.046875,10.828125 8.40625,10.109375 L4.21875,9.796875 C6.078125,11.875 8.0625,14.46875 9.265625,16.296875 C9.765625,16.21875 10.125,16.390625 10.21875,16.65625 L7.96875,17.59375 C6.84375,15.28125 5.015625,12.125 3.484375,9.75 L1.03125,9.59375 L1.796875,7.796875 C2.015625,7.84375 2.234375,8.015625 2.359375,8.296875 L5.15625,8.859375 L5.15625,-1.875 L5.40625,-1.875 C6.140625,-1.875 6.671875,-1.484375 6.671875,-1.375 L6.671875,9.1875 L8.609375,9.640625 C8.828125,9.140625 8.96875,8.640625 9.046875,8.1875 C10.484375,6.984375 11.90625,10.0625 7.484375,12.1875 Z M14.359375,16.390625 L19.0625,16.390625 C18.40625,14.8125 17.515625,13.3125 16.375,11.921875 C15.3125,13.015625 14.453125,14.25 13.84375,15.640625 Z M14.359375,20.09375 C13.25,16.75 11.375,13.6875 9.5,11.828125 L9.8125,11.546875 C11.140625,12.453125 12.390625,13.65625 13.46875,15.125 C14.015625,13.625 14.765625,12.28125 15.671875,11.109375 C13.9375,9.21875 11.78125,7.578125 9.234375,6.390625 L9.484375,6 C12.28125,7.03125 14.59375,8.46875 16.4375,10.203125 C17.953125,8.515625 19.84375,7.203125 22.015625,6.28125 C22.25,6.953125 22.734375,7.421875 23.359375,7.484375 L23.40625,7.703125 C21.140625,8.421875 19.03125,9.546875 17.296875,11.046875 C18.796875,12.59375 19.921875,14.359375 20.78125,16.203125 C21.328125,16.21875 21.59375,16.296875 21.765625,16.515625 L20.09375,18.046875 L19.078125,17.09375 L14.78125,17.09375 C15.09375,17.640625 15.40625,18.21875 15.671875,18.8125 C16.171875,18.75 16.515625,18.953125 16.609375,19.203125 Z" transform="translate(-0.1484375, 20.109375) scale(1, -1)"/>
</svg>