<svg height="22.0625" viewBox="0 0 24 22.0625" width="24" xmlns="http://www.w3.org/2000/svg">
<path d="M17.546875,14.375 L17.296875,14.15625 C18.796875,13.0625 20.71875,11.0625 21.3125,9.53125 C23.1875,8.46875 24.03125,12.4375 17.546875,14.375 Z M7.421875,6.578125 L7.125,6.453125 C7.6875,5.328125 8.296875,3.546875 8.328125,2.1875 C9.625,0.859375 11.1875,3.84375 7.421875,6.578125 Z M2.359375,6.5 C2.109375,4.265625 1.578125,1.921875 0.9375,0.265625 L1.34375,0.078125 C2.359375,1.4375 3.140625,3.5 3.703125,5.46875 C4.171875,5.5 4.421875,5.6875 4.515625,5.96875 Z M6.984375,11.90625 L6.671875,11.78125 C7.015625,11.234375 7.390625,10.5625 7.6875,9.859375 L4.203125,9.703125 C5.828125,11.734375 7.578125,14.28125 8.65625,16.0625 C9.140625,15.984375 9.484375,16.171875 9.59375,16.4375 L7.3125,17.359375 C6.359375,15.125 4.796875,12 3.484375,9.671875 L1.015625,9.625 L1.703125,7.796875 C1.9375,7.84375 2.15625,7.984375 2.296875,8.296875 L4.875,8.765625 L4.875,-1.875 L5.09375,-1.875 C5.828125,-1.875 6.359375,-1.484375 6.359375,-1.375 L6.359375,9.03125 L7.890625,9.34375 C8.140625,8.71875 8.296875,8.09375 8.359375,7.53125 C9.1875,6.765625 10.0625,7.578125 9.703125,8.90625 L9.765625,8.828125 C11.421875,9.765625 13.0625,11.359375 14.203125,13.265625 C14.6875,13.203125 15.03125,13.390625 15.125,13.625 L12.953125,14.609375 C12.125,12.453125 10.828125,10.46875 9.578125,9.234375 C9.234375,10.0625 8.46875,11.015625 6.984375,11.90625 Z M15.125,19.875 L15.125,16.25 L9.453125,16.25 L9.640625,15.53125 L22.515625,15.53125 C22.84375,15.53125 23.09375,15.640625 23.140625,15.90625 C22.296875,16.734375 20.921875,17.78125 20.921875,17.78125 L19.703125,16.25 L16.703125,16.25 L16.703125,19.03125 C17.234375,19.125 17.421875,19.34375 17.46875,19.65625 Z M13.03125,9.984375 L12.59375,9.765625 C13.109375,7.390625 13.875,5.40625 14.953125,3.703125 C13.21875,1.515625 10.84375,-0.3125 7.734375,-1.515625 L7.921875,-1.875 C11.234375,-0.9375 13.796875,0.640625 15.71875,2.59375 C17.234375,0.625 19.203125,-0.859375 21.640625,-1.921875 C21.9375,-1.15625 22.484375,-0.671875 23.203125,-0.59375 L23.234375,-0.34375 C20.609375,0.484375 18.359375,1.78125 16.609375,3.578125 C18.03125,5.25 19.015625,7.15625 19.6875,9.125 C20.28125,9.09375 20.5,9.234375 20.59375,9.5 L18.125,10.25 C17.609375,8.25 16.828125,6.359375 15.640625,4.65625 C14.46875,6.140625 13.5625,7.921875 13.03125,9.984375 Z M1.15625,16.203125 L0.890625,16.015625 C1.796875,15.234375 2.8125,13.921875 3.078125,12.84375 C4.203125,12.046875 5.140625,13.703125 3.4375,15.09375 C4.3125,16.15625 5.296875,17.5625 6.09375,18.8125 C6.578125,18.796875 6.890625,18.984375 6.984375,19.265625 L4.625,20.140625 C4.109375,18.546875 3.453125,16.75 2.90625,15.453125 C2.453125,15.75 1.875,15.984375 1.15625,16.203125 Z" transform="translate(-0.4609375, 20.140625) scale(1, -1)"/>
</svg>