<svg height="21.984375" viewBox="0 0 24 21.984375" width="24" xmlns="http://www.w3.org/2000/svg">
<path d="M19.484375,6.578125 L19.171875,6.4375 C20.1875,5.0625 21.328125,2.921875 21.484375,1.265625 C23.015625,-0.125 24.5,3.5 19.484375,6.578125 Z M13.625,6.59375 C13.171875,4.3125 12.359375,2.046875 11.46875,0.53125 L11.859375,0.28125 C13.109375,1.515625 14.234375,3.453125 15.046875,5.5 C15.53125,5.46875 15.796875,5.65625 15.859375,5.953125 Z M8.375,6.578125 L8.0625,6.4375 C8.71875,5.234375 9.5,3.34375 9.625,1.921875 C11.046875,0.59375 12.53125,3.71875 8.375,6.578125 Z M2.765625,6.546875 C2.375,4.296875 1.6875,1.984375 0.890625,0.453125 L1.25,0.21875 C2.453125,1.515625 3.453125,3.453125 4.15625,5.46875 C4.625,5.46875 4.890625,5.65625 4.984375,5.96875 Z M11.90625,16.375 L11.65625,16.15625 C12.71875,15.34375 13.984375,13.875 14.359375,12.71875 C15.546875,11.953125 16.4375,13.734375 14.46875,15.1875 C15.4375,16.203125 16.484375,17.546875 17.40625,18.765625 C17.90625,18.703125 18.1875,18.890625 18.3125,19.15625 L15.984375,20.109375 C15.359375,18.546875 14.59375,16.796875 13.9375,15.546875 C13.421875,15.859375 12.75,16.125 11.90625,16.375 Z M19.375,12.03125 L19.078125,11.875 C19.5625,11.359375 20.09375,10.6875 20.515625,9.953125 L15.21875,9.703125 C17.25,11.71875 19.46875,14.25 20.8125,16.078125 C21.3125,16.015625 21.671875,16.171875 21.765625,16.4375 L19.484375,17.46875 C18.21875,15.171875 16.203125,12 14.453125,9.640625 L11.640625,9.546875 L12.28125,7.703125 C12.53125,7.75 12.765625,7.890625 12.90625,8.203125 L16.53125,8.765625 L16.53125,-1.875 L16.78125,-1.875 C17.515625,-1.875 18.046875,-1.484375 18.046875,-1.375 L18.046875,9 L20.8125,9.484375 C21.171875,8.859375 21.40625,8.203125 21.53125,7.65625 C23.140625,6.40625 24.5,9.890625 19.375,12.03125 Z M1.171875,16.203125 L0.90625,15.984375 C1.890625,15.1875 3.078125,13.84375 3.390625,12.71875 C4.515625,11.96875 5.359375,13.5625 3.671875,14.96875 C4.625,16.0625 5.6875,17.5 6.546875,18.8125 C7.03125,18.765625 7.34375,18.984375 7.4375,19.25 L5.15625,20.109375 C4.5625,18.484375 3.8125,16.65625 3.1875,15.34375 C2.6875,15.640625 2.015625,15.953125 1.171875,16.203125 Z M8.109375,11.875 L7.828125,11.734375 C8.203125,11.234375 8.609375,10.578125 8.953125,9.90625 L4.375,9.640625 C6.1875,11.734375 8.203125,14.328125 9.390625,16.171875 C9.90625,16.109375 10.25,16.265625 10.375,16.5625 L8.109375,17.46875 C7.015625,15.171875 5.1875,12 3.625,9.625 L1.015625,9.53125 L1.6875,7.703125 C1.921875,7.75 2.140625,7.890625 2.28125,8.1875 L5.546875,8.734375 L5.546875,-1.875 L5.78125,-1.875 C6.53125,-1.875 7.0625,-1.484375 7.0625,-1.375 L7.0625,9 L9.1875,9.4375 C9.453125,8.828125 9.640625,8.203125 9.71875,7.6875 C11.1875,6.453125 12.578125,9.59375 8.109375,11.875 Z" transform="translate(-0.6953125, 20.109375) scale(1, -1)"/>
</svg>