<svg height="21.984375" viewBox="0 0 24 21.984375" width="24" xmlns="http://www.w3.org/2000/svg">
<path d="M7.421875,6.703125 L7.125,6.578125 C7.6875,5.453125 8.296875,3.640625 8.328125,2.296875 C9.625,0.984375 11.1875,3.953125 7.421875,6.703125 Z M2.359375,6.5 C2.109375,4.265625 1.578125,1.921875 0.9375,0.265625 L1.34375,0.078125 C2.359375,1.4375 3.140625,3.53125 3.703125,5.515625 C4.203125,5.515625 4.421875,5.734375 4.515625,6.046875 Z M13.53125,16.578125 L17.25,16.578125 C16.828125,15.53125 16.15625,14.09375 15.5,13.078125 L12.671875,13.078125 L11.546875,13.578125 C12.265625,14.5 12.9375,15.5 13.53125,16.578125 Z M13.21875,20.140625 C12.171875,16.75 10.46875,13.390625 8.828125,11.296875 L9.171875,11.0625 C9.75,11.5625 10.3125,12.140625 10.875,12.765625 L10.875,0.40625 C10.875,-1.0625 11.46875,-1.46875 13.78125,-1.46875 L17.234375,-1.46875 C22.109375,-1.46875 23.0625,-1.21875 23.0625,-0.4375 C23.0625,-0.125 22.875,0.046875 22.265625,0.234375 L22.203125,3.265625 L21.890625,3.265625 C21.59375,1.875 21.3125,0.703125 21.125,0.34375 C20.96875,0.125 20.828125,0.046875 20.5,0.03125 C20.015625,-0.03125 18.859375,-0.046875 17.28125,-0.046875 L13.890625,-0.046875 C12.578125,-0.046875 12.390625,0.140625 12.390625,0.71875 L12.390625,6.484375 L20.28125,6.484375 L20.28125,5.359375 L20.515625,5.359375 C21.03125,5.359375 21.796875,5.6875 21.8125,5.828125 L21.8125,12.140625 C22.25,12.234375 22.578125,12.40625 22.734375,12.59375 L20.90625,13.96875 L20.0625,13.078125 L16.125,13.078125 C17.15625,14.046875 18.28125,15.5 18.984375,16.390625 C19.46875,16.421875 19.75,16.46875 19.9375,16.625 L18.21875,18.234375 L17.25,17.25 L13.890625,17.25 C14.1875,17.78125 14.453125,18.34375 14.6875,18.890625 C15.21875,18.859375 15.484375,19.078125 15.578125,19.34375 Z M12.390625,7.203125 L12.390625,12.390625 L15.546875,12.390625 L15.546875,7.203125 Z M16.96875,7.203125 L16.96875,12.390625 L20.28125,12.390625 L20.28125,7.203125 Z M7.015625,12.171875 L6.703125,12.046875 C7.078125,11.46875 7.46875,10.703125 7.78125,9.90625 L3.984375,9.71875 C5.71875,11.765625 7.5625,14.296875 8.65625,16.078125 C9.171875,16.015625 9.484375,16.203125 9.59375,16.46875 L7.3125,17.359375 C6.3125,15.125 4.65625,12.03125 3.265625,9.703125 L1.015625,9.640625 L1.6875,7.828125 C1.921875,7.875 2.15625,8.015625 2.296875,8.328125 L4.875,8.78125 L4.875,-1.84375 L5.09375,-1.84375 C5.828125,-1.84375 6.359375,-1.484375 6.359375,-1.375 L6.359375,9.078125 L7.96875,9.390625 C8.15625,8.875 8.28125,8.375 8.296875,7.921875 C9.703125,6.640625 11.1875,9.703125 7.015625,12.171875 Z M1.15625,16.203125 L0.90625,16.015625 C1.875,15.171875 3.046875,13.703125 3.3125,12.53125 C4.53125,11.6875 5.515625,13.5625 3.4375,15.125 C4.3125,16.171875 5.296875,17.5625 6.09375,18.8125 C6.59375,18.796875 6.890625,19.015625 7.015625,19.265625 L4.625,20.140625 C4.109375,18.546875 3.453125,16.75 2.90625,15.453125 C2.453125,15.71875 1.875,15.984375 1.15625,16.203125 Z" transform="translate(0.015625, 20.140625) scale(1, -1)"/>
</svg>