<svg height="22.015625" viewBox="0 0 24 22.015625" width="24" xmlns="http://www.w3.org/2000/svg">
<path d="M12.890625,6.625 L12.890625,0.078125 C12.890625,-0.984375 13.171875,-1.34375 14.8125,-1.34375 L16.796875,-1.34375 C19.84375,-1.34375 20.515625,-1.0625 20.515625,-0.40625 C20.515625,-0.125 20.40625,0.046875 19.890625,0.21875 L19.828125,2.546875 L19.53125,2.546875 C19.34375,1.53125 19.109375,0.546875 18.9375,0.265625 C18.84375,0.09375 18.765625,0.046875 18.546875,0.03125 C18.28125,0.03125 17.65625,0.03125 16.84375,0.03125 L15.09375,0.03125 C14.40625,0.03125 14.328125,0.09375 14.328125,0.40625 L14.328125,5.8125 C14.765625,5.875 15,6.09375 15.046875,6.390625 Z M10.890625,5.859375 C10.875,4.109375 9.984375,2.328125 9.09375,1.609375 C8.65625,1.265625 8.40625,0.75 8.65625,0.3125 C8.96875,-0.1875 9.84375,0.03125 10.34375,0.53125 C11.09375,1.265625 11.90625,3.1875 11.328125,5.828125 Z M19.703125,6.234375 L19.390625,6.078125 C20.421875,4.6875 21.59375,2.46875 21.703125,0.75 C23.234375,-0.671875 24.71875,3.125 19.703125,6.234375 Z M13.484375,8.609375 L13.265625,8.359375 C14.6875,7.65625 16.46875,6.265625 17.046875,5.046875 C18.796875,4.296875 19.203125,7.9375 13.484375,8.609375 Z M7.4375,7.078125 L7.15625,6.953125 C7.6875,5.875 8.296875,4.171875 8.296875,2.859375 C9.578125,1.578125 11.140625,4.4375 7.4375,7.078125 Z M2.359375,6.5 C2.109375,4.265625 1.578125,1.921875 0.9375,0.265625 L1.34375,0.078125 C2.359375,1.4375 3.140625,3.53125 3.703125,5.515625 C4.203125,5.515625 4.421875,5.734375 4.515625,6.046875 Z M6.984375,12.078125 L6.703125,11.953125 C7.109375,11.40625 7.53125,10.6875 7.890625,9.9375 L3.953125,9.703125 C5.65625,11.71875 7.515625,14.25 8.609375,16.0625 C9.125,15.953125 9.453125,16.125 9.59375,16.421875 L7.3125,17.359375 C6.28125,15.09375 4.625,11.96875 3.234375,9.640625 L1.015625,9.546875 L1.65625,7.78125 C1.921875,7.828125 2.140625,7.9375 2.25,8.25 L4.875,8.765625 L4.875,-1.875 L5.09375,-1.875 C5.828125,-1.875 6.359375,-1.484375 6.359375,-1.375 L6.359375,9.078125 L8.109375,9.453125 C8.359375,8.921875 8.5,8.421875 8.5625,7.96875 C9.234375,7.390625 9.890625,7.75 9.953125,8.5625 L10.15625,8.328125 C12.671875,9.765625 14.140625,11.453125 15,13.203125 C15.796875,12.625 16.484375,12.046875 16.921875,11.5 C18.359375,11.140625 18.578125,13.109375 15.578125,14.59375 C15.9375,15.703125 16.125,16.828125 16.21875,17.875 L20.5,17.875 C20.375,13.53125 20.109375,11.046875 19.609375,10.5625 C19.390625,10.375 19.203125,10.3125 18.8125,10.3125 C18.359375,10.3125 16.984375,10.46875 16.171875,10.515625 L16.15625,10.109375 C16.890625,9.984375 17.71875,9.796875 18.03125,9.546875 C18.28125,9.3125 18.390625,8.90625 18.390625,8.5 C19.21875,8.5 20.046875,8.734375 20.59375,9.234375 C21.484375,10.078125 21.84375,12.703125 21.953125,17.71875 C22.46875,17.78125 22.734375,17.90625 22.890625,18.09375 L21.140625,19.515625 L20.28125,18.578125 L10.15625,18.578125 L10.375,17.875 L14.515625,17.875 C14.453125,17.015625 14.359375,16.109375 14.140625,15.171875 C13.203125,15.484375 12.046875,15.75 10.6875,15.90625 L10.515625,15.578125 C11.5,15.21875 12.703125,14.640625 13.796875,13.96875 C13.171875,12.21875 12.078125,10.4375 9.9375,8.8125 C9.859375,9.703125 9.09375,10.96875 6.984375,12.078125 Z M1.15625,16.203125 L0.890625,16.015625 C1.796875,15.234375 2.8125,13.921875 3.078125,12.84375 C4.203125,12.046875 5.140625,13.703125 3.4375,15.09375 C4.3125,16.15625 5.296875,17.5625 6.09375,18.8125 C6.578125,18.796875 6.890625,18.984375 6.984375,19.265625 L4.625,20.140625 C4.109375,18.546875 3.453125,16.75 2.90625,15.453125 C2.453125,15.75 1.875,15.984375 1.15625,16.203125 Z" transform="translate(-0.8046875, 20.140625) scale(1, -1)"/>
</svg>