<svg height="22.015625" viewBox="0 0 24 22.015625" width="24" xmlns="http://www.w3.org/2000/svg">
<path d="M12.21875,16.46875 C12.171875,15.3125 11.359375,14.25 10.53125,13.875 C10.109375,13.609375 9.796875,13.15625 9.984375,12.71875 C10.21875,12.21875 10.96875,12.234375 11.5,12.578125 C12.28125,13.078125 13.078125,14.421875 12.625,16.46875 Z M7.4375,7.0625 L7.15625,6.9375 C7.6875,5.859375 8.296875,4.15625 8.296875,2.828125 C9.578125,1.5625 11.140625,4.421875 7.4375,7.0625 Z M2.359375,6.5 C2.109375,4.265625 1.578125,1.921875 0.9375,0.265625 L1.34375,0.078125 C2.359375,1.4375 3.140625,3.53125 3.703125,5.515625 C4.203125,5.515625 4.421875,5.734375 4.515625,6.046875 Z M12.890625,6.578125 L12.890625,0.078125 C12.890625,-0.984375 13.171875,-1.34375 14.8125,-1.34375 L16.796875,-1.34375 C19.84375,-1.34375 20.515625,-1.0625 20.515625,-0.40625 C20.515625,-0.125 20.40625,0.046875 19.890625,0.21875 L19.828125,2.546875 L19.53125,2.546875 C19.34375,1.53125 19.109375,0.546875 18.9375,0.265625 C18.84375,0.09375 18.765625,0.046875 18.546875,0.046875 C18.28125,0.03125 17.65625,0.03125 16.84375,0.03125 L15.09375,0.03125 C14.40625,0.03125 14.328125,0.09375 14.328125,0.40625 L14.328125,5.734375 C14.765625,5.8125 15,6.03125 15.046875,6.3125 Z M10.890625,5.859375 C10.875,4.109375 9.984375,2.328125 9.09375,1.609375 C8.65625,1.265625 8.40625,0.75 8.65625,0.3125 C8.96875,-0.1875 9.84375,0.03125 10.34375,0.53125 C11.09375,1.265625 11.90625,3.1875 11.328125,5.828125 Z M19.703125,6.234375 L19.390625,6.078125 C20.421875,4.6875 21.59375,2.46875 21.703125,0.75 C23.234375,-0.671875 24.71875,3.125 19.703125,6.234375 Z M13.484375,8.609375 L13.265625,8.359375 C14.6875,7.65625 16.46875,6.265625 17.046875,5.046875 C18.796875,4.296875 19.203125,7.9375 13.484375,8.609375 Z M10.265625,18.578125 L10.46875,17.875 L15.3125,17.875 C15.140625,15.046875 14.40625,11.609375 10.03125,8.734375 L10.375,8.40625 C15.640625,11.0625 16.703125,14.6875 17.015625,17.875 L20.46875,17.875 C20.328125,13.578125 20.0625,11.109375 19.5625,10.625 C19.375,10.46875 19.203125,10.421875 18.765625,10.421875 C18.34375,10.421875 16.9375,10.53125 16.15625,10.609375 L16.125,10.171875 C16.875,10.0625 17.6875,9.859375 17.96875,9.625 C18.265625,9.390625 18.34375,8.953125 18.34375,8.546875 C19.203125,8.546875 20.015625,8.765625 20.5625,9.28125 C21.453125,10.125 21.8125,12.75 21.953125,17.71875 C22.46875,17.78125 22.734375,17.875 22.890625,18.09375 L21.125,19.53125 L20.25,18.578125 Z M6.984375,11.96875 L6.703125,11.828125 C7.0625,11.296875 7.484375,10.609375 7.828125,9.890625 L3.953125,9.703125 C5.6875,11.734375 7.53125,14.25 8.609375,16.03125 C9.125,15.9375 9.453125,16.125 9.578125,16.390625 L7.3125,17.359375 C6.28125,15.125 4.65625,12 3.265625,9.671875 L1.015625,9.625 L1.734375,7.796875 C1.9375,7.84375 2.1875,7.984375 2.328125,8.296875 L4.875,8.765625 L4.875,-1.875 L5.09375,-1.875 C5.828125,-1.875 6.359375,-1.484375 6.359375,-1.375 L6.359375,9.046875 L8.0625,9.390625 C8.28125,8.859375 8.421875,8.328125 8.5,7.875 C9.890625,6.671875 11.296875,9.703125 6.984375,11.96875 Z M1.15625,16.203125 L0.890625,16.015625 C1.796875,15.234375 2.8125,13.921875 3.078125,12.84375 C4.203125,12.046875 5.140625,13.703125 3.4375,15.09375 C4.3125,16.15625 5.296875,17.5625 6.09375,18.8125 C6.578125,18.796875 6.890625,18.984375 6.984375,19.265625 L4.625,20.140625 C4.109375,18.546875 3.453125,16.75 2.90625,15.453125 C2.453125,15.75 1.875,15.984375 1.15625,16.203125 Z" transform="translate(-0.8046875, 20.140625) scale(1, -1)"/>
</svg>