<svg height="22.03125" viewBox="0 0 24 22.03125" width="24" xmlns="http://www.w3.org/2000/svg">
<path d="M12.859375,8.421875 C13.109375,4.421875 12.390625,0.640625 7.9375,-1.53125 L8.140625,-1.875 C13.421875,0.046875 14.375,3.703125 14.5,7.46875 C15.046875,7.515625 15.28125,7.703125 15.359375,8.09375 Z M16.796875,8.453125 L16.796875,0.046875 C16.796875,-0.984375 17.09375,-1.421875 18.546875,-1.421875 L20.109375,-1.421875 C22.65625,-1.421875 23.296875,-1.078125 23.296875,-0.4375 C23.296875,-0.140625 23.234375,0.046875 22.75,0.234375 L22.6875,3.859375 L22.375,3.859375 C22.125,2.375 21.84375,0.765625 21.703125,0.390625 C21.59375,0.125 21.53125,0.078125 21.359375,0.078125 C21.171875,0.046875 20.734375,0.046875 20.15625,0.046875 L18.9375,0.046875 C18.40625,0.046875 18.34375,0.125 18.34375,0.4375 L18.34375,7.578125 C18.765625,7.65625 19.015625,7.890625 19.03125,8.1875 Z M7.171875,7.21875 L6.859375,7.109375 C7.421875,5.90625 8.09375,4.109375 8.109375,2.6875 C9.4375,1.375 10.96875,4.421875 7.171875,7.21875 Z M2.328125,6.890625 C2.0625,4.5625 1.484375,2.0625 0.8125,0.34375 L1.203125,0.140625 C2.25,1.609375 3.09375,3.765625 3.640625,5.859375 C4.15625,5.859375 4.390625,6.078125 4.484375,6.359375 Z M14.921875,20.015625 L14.921875,17.109375 L9.640625,17.109375 L9.84375,16.421875 L14.921875,16.421875 L14.921875,13.65625 L10.46875,13.65625 L10.65625,12.953125 L21.484375,12.953125 C21.796875,12.953125 22.03125,13.078125 22.078125,13.34375 C21.390625,14.046875 20.1875,14.96875 20.1875,14.96875 L19.171875,13.65625 L16.484375,13.65625 L16.484375,16.421875 L22.296875,16.421875 C22.625,16.421875 22.84375,16.53125 22.921875,16.796875 C22.125,17.515625 20.90625,18.5 20.90625,18.5 L19.796875,17.109375 L16.484375,17.109375 L16.484375,19.171875 C17.015625,19.265625 17.203125,19.484375 17.25,19.796875 Z M10.6875,11.765625 C10.734375,10.65625 10.125,9.390625 9.546875,8.875 C9.09375,8.546875 8.859375,8.015625 9.125,7.53125 C9.40625,7.0625 10.265625,7.203125 10.65625,7.609375 C11.0625,8.046875 11.375,8.875 11.375,9.984375 L20.765625,9.984375 C20.46875,9.1875 20.0625,8.234375 19.796875,7.625 L20.109375,7.4375 C20.875,8.046875 21.90625,9.046875 22.46875,9.75 C22.921875,9.765625 23.1875,9.8125 23.359375,9.984375 L21.640625,11.640625 L20.71875,10.6875 L11.328125,10.6875 C11.28125,11.015625 11.203125,11.375 11.109375,11.734375 Z M7.015625,12.59375 L6.671875,12.484375 C6.984375,11.875 7.296875,11.109375 7.484375,10.296875 L3.890625,9.953125 C5.65625,11.8125 7.375,14.140625 8.375,15.90625 C8.859375,15.84375 9.171875,16.015625 9.3125,16.265625 L7.0625,17.234375 C6.171875,15 4.609375,12.046875 3.140625,9.890625 L0.953125,9.71875 L1.578125,7.96875 C1.828125,8.015625 2.046875,8.15625 2.1875,8.46875 L4.625,9.03125 L4.625,-1.875 L4.875,-1.875 C5.609375,-1.875 6.125,-1.484375 6.125,-1.34375 L6.125,9.390625 L7.578125,9.765625 C7.65625,9.390625 7.6875,9 7.65625,8.640625 C8.953125,7.3125 10.578125,10.171875 7.015625,12.59375 Z M1.4375,16.484375 L1.203125,16.296875 C2.140625,15.484375 3.21875,14.109375 3.484375,12.984375 C4.65625,12.140625 5.5625,13.921875 3.703125,15.40625 C4.578125,16.375 5.515625,17.609375 6.265625,18.84375 C6.765625,18.8125 7.0625,19.015625 7.15625,19.265625 L4.78125,20.15625 C4.3125,18.640625 3.71875,17.015625 3.140625,15.765625 C2.6875,16.03125 2.140625,16.265625 1.4375,16.484375 Z" transform="translate(-0.0859375, 20.15625) scale(1, -1)"/>
</svg>