<svg height="22.078125" viewBox="0 0 24 22.078125" width="24" xmlns="http://www.w3.org/2000/svg">
<path d="M1.171875,18.578125 L1.375,17.875 L11.96875,17.875 C12.28125,17.875 12.53125,18 12.578125,18.265625 C11.8125,18.984375 10.578125,19.921875 10.578125,19.921875 L9.5,18.578125 Z M14.875,2.828125 L14.6875,2.515625 C16.734375,1.703125 19.609375,0 20.859375,-1.421875 C22.921875,-1.9375 22.734375,1.96875 14.875,2.828125 Z M7.21875,2.96875 C5.96875,1.625 3.484375,-0.125 1.265625,-1.125 L1.515625,-1.46875 C4.0625,-0.796875 6.8125,0.484375 8.296875,1.578125 C8.828125,1.421875 9,1.515625 9.1875,1.734375 Z M9.34375,15.4375 L9.34375,13.03125 L4.171875,13.03125 C4.25,13.65625 4.265625,14.234375 4.265625,14.734375 L4.265625,15.4375 Z M2.734375,16.15625 L2.734375,14.734375 C2.734375,12.578125 2.59375,10.03125 0.859375,7.796875 L1.15625,7.484375 C2.96875,8.859375 3.75,10.6875 4.0625,12.3125 L9.34375,12.3125 L9.34375,11.6875 L9.578125,11.6875 C10.0625,11.6875 10.828125,12 10.84375,12.171875 L10.84375,15.21875 C11.25,15.28125 11.609375,15.484375 11.734375,15.640625 L9.9375,16.984375 L9.125,16.15625 L4.53125,16.15625 L2.734375,16.984375 Z M14.921875,20.140625 C14.296875,17.546875 13.078125,15.171875 11.734375,13.6875 L12.046875,13.4375 C12.9375,14.015625 13.75,14.765625 14.46875,15.671875 C14.96875,14.515625 15.546875,13.46875 16.296875,12.53125 C15.171875,11.46875 13.75,10.609375 12.09375,9.890625 L12.265625,9.53125 C14.0625,10.109375 15.625,10.828125 16.9375,11.765625 C18.1875,10.4375 19.828125,9.390625 22.03125,8.609375 C22.171875,9.34375 22.625,9.75 23.203125,9.90625 L23.28125,10.171875 C21.046875,10.6875 19.296875,11.453125 17.90625,12.5 C19.171875,13.578125 20.15625,14.90625 20.828125,16.46875 L22.390625,16.46875 C22.703125,16.46875 22.9375,16.578125 23.015625,16.828125 C22.21875,17.5625 20.96875,18.546875 20.96875,18.546875 L19.828125,17.15625 L15.484375,17.15625 C15.796875,17.71875 16.109375,18.3125 16.375,18.9375 C16.875,18.90625 17.140625,19.125 17.234375,19.390625 Z M17.015625,13.25 C16.109375,14.09375 15.390625,15.078125 14.828125,16.15625 L15.03125,16.46875 L19.015625,16.46875 C18.546875,15.28125 17.875,14.203125 17.015625,13.25 Z M14.453125,9.859375 C13.078125,8.546875 10.5625,6.578125 8.359375,5.09375 C5.640625,5.09375 3.40625,5.09375 1.9375,5.109375 L3.078125,3.140625 C3.3125,3.1875 3.546875,3.359375 3.703125,3.625 L11.15625,4.078125 L11.15625,-1.890625 L11.40625,-1.890625 C12.171875,-1.890625 12.703125,-1.53125 12.703125,-1.4375 L12.703125,4.171875 C15.140625,4.34375 17.1875,4.484375 18.890625,4.65625 C19.4375,4.109375 19.890625,3.546875 20.15625,3.046875 C21.9375,2.28125 22.375,5.90625 16.15625,7.125 L15.90625,6.859375 C16.65625,6.4375 17.515625,5.859375 18.28125,5.1875 L9.640625,5.109375 C11.828125,6.1875 14.0625,7.484375 15.4375,8.46875 C15.9375,8.296875 16.15625,8.375 16.34375,8.59375 Z M10.15625,11.71875 C9.484375,10.796875 8.359375,9.484375 7.375,8.5 C6.640625,8.8125 5.6875,9.078125 4.421875,9.21875 L4.21875,8.921875 C5.5625,8.296875 7.390625,7.015625 8.09375,5.953125 C9.28125,5.515625 9.796875,7.03125 7.9375,8.1875 C9.140625,8.875 10.5625,9.75 11.359375,10.34375 C11.734375,10.203125 12.03125,10.21875 12.171875,10.4375 Z" transform="translate(-0.0703125, 20.140625) scale(1, -1)"/>
</svg>