<svg height="22.015625" viewBox="0 0 24 22.015625" width="24" xmlns="http://www.w3.org/2000/svg">
<path d="M7.34375,6.59375 L7.03125,6.484375 C7.578125,5.359375 8.203125,3.578125 8.234375,2.234375 C9.5,0.9375 11.046875,3.859375 7.34375,6.59375 Z M2.328125,6.5 C2.09375,4.296875 1.5625,1.9375 0.9375,0.265625 L1.34375,0.078125 C2.328125,1.46875 3.125,3.5 3.640625,5.5 C4.125,5.5 4.375,5.71875 4.46875,6 Z M10.203125,10.84375 L10.390625,10.15625 L13.296875,10.15625 L13.296875,8.609375 C13.296875,7.828125 13.265625,7.0625 13.203125,6.34375 L9.34375,5.609375 L10.25,3.90625 C10.46875,3.984375 10.625,4.15625 10.734375,4.46875 L13.109375,5.734375 C12.703125,2.6875 11.453125,0.359375 8.8125,-1.515625 L9.09375,-1.828125 C13.484375,0.53125 14.8125,3.9375 14.828125,8.640625 L14.828125,18.953125 C15.40625,19.0625 15.59375,19.3125 15.640625,19.65625 L13.296875,19.890625 L13.296875,15.578125 L9.765625,15.578125 L9.984375,14.875 L13.296875,14.875 L13.296875,10.84375 Z M17.375,19.875 L17.375,-1.796875 L17.6875,-1.796875 C18.265625,-1.796875 18.90625,-1.421875 18.90625,-1.171875 L18.90625,5.0625 L22.796875,5.0625 C23.140625,5.0625 23.359375,5.1875 23.421875,5.453125 C22.75,6.125 21.671875,7.0625 21.671875,7.0625 L20.71875,5.765625 L18.90625,5.765625 L18.90625,10.203125 L22.078125,10.203125 C22.421875,10.203125 22.625,10.3125 22.703125,10.5625 C22.0625,11.234375 21,12.140625 21,12.140625 L20.046875,10.875 L18.90625,10.875 L18.90625,14.875 L22.390625,14.875 C22.703125,14.875 22.9375,15 23.015625,15.234375 C22.375,15.9375 21.28125,16.84375 21.28125,16.84375 L20.328125,15.578125 L18.90625,15.578125 L18.90625,18.9375 C19.53125,19.03125 19.734375,19.265625 19.796875,19.609375 Z M6.90625,12.03125 L6.59375,11.875 C6.953125,11.328125 7.3125,10.609375 7.609375,9.890625 L3.84375,9.703125 C5.546875,11.71875 7.375,14.234375 8.5,16.03125 C8.96875,15.9375 9.3125,16.109375 9.4375,16.375 L7.171875,17.359375 C6.171875,15.09375 4.515625,11.96875 3.125,9.671875 L1.015625,9.625 L1.703125,7.796875 C1.9375,7.84375 2.15625,7.96875 2.296875,8.28125 L4.796875,8.734375 L4.796875,-1.875 L5.015625,-1.875 C5.734375,-1.875 6.265625,-1.515625 6.265625,-1.375 L6.265625,9.03125 L7.828125,9.34375 C7.984375,8.828125 8.109375,8.359375 8.140625,7.890625 C9.484375,6.640625 10.921875,9.59375 6.90625,12.03125 Z M1.125,16.25 L0.890625,16.03125 C1.75,15.28125 2.765625,13.984375 2.96875,12.90625 C4.078125,12.125 5.046875,13.734375 3.359375,15.125 C4.25,16.171875 5.234375,17.5625 6,18.84375 C6.5,18.8125 6.796875,19.015625 6.90625,19.265625 L4.53125,20.140625 C4.03125,18.546875 3.40625,16.78125 2.859375,15.5 C2.421875,15.765625 1.84375,16.03125 1.125,16.25 Z" transform="translate(-0.15625, 20.140625) scale(1, -1)"/>
</svg>