<svg height="22.015625" viewBox="0 0 24 22.015625" width="24" xmlns="http://www.w3.org/2000/svg">
<path d="M7.296875,6.59375 L6.984375,6.484375 C7.53125,5.359375 8.1875,3.578125 8.1875,2.234375 C9.453125,0.9375 11.015625,3.859375 7.296875,6.59375 Z M2.296875,6.5 C2.046875,4.296875 1.53125,1.9375 0.90625,0.265625 L1.296875,0.078125 C2.296875,1.46875 3.09375,3.53125 3.625,5.515625 C4.109375,5.546875 4.34375,5.765625 4.4375,6.046875 Z M10.203125,10.796875 L10.390625,10.109375 L13.296875,10.109375 L13.296875,8.609375 C13.296875,7.828125 13.265625,7.0625 13.203125,6.34375 C11.609375,6 10.265625,5.734375 9.5,5.640625 L10.4375,3.9375 C10.625,4.015625 10.828125,4.203125 10.921875,4.484375 L13.0625,5.296875 C12.578125,2.46875 11.328125,0.265625 8.8125,-1.515625 L9.09375,-1.828125 C12.59375,0.046875 14.15625,2.609375 14.640625,5.953125 L16.125,6.578125 L16.03125,6.953125 L14.734375,6.671875 C14.8125,7.296875 14.828125,7.9375 14.828125,8.640625 L14.828125,18.953125 C15.40625,19.0625 15.59375,19.3125 15.640625,19.65625 L13.296875,19.890625 L13.296875,15.5 L9.75,15.5 L9.953125,14.8125 L13.296875,14.8125 L13.296875,10.796875 Z M17.375,19.875 L17.375,-1.796875 L17.6875,-1.796875 C18.265625,-1.796875 18.90625,-1.421875 18.90625,-1.171875 L18.90625,5.046875 L22.828125,5.046875 C23.140625,5.046875 23.359375,5.15625 23.421875,5.421875 C22.78125,6.09375 21.671875,7.03125 21.671875,7.03125 L20.71875,5.734375 L18.90625,5.734375 L18.90625,10.15625 L22.078125,10.15625 C22.421875,10.15625 22.625,10.265625 22.703125,10.515625 C22.0625,11.1875 21,12.078125 21,12.078125 L20.046875,10.828125 L18.90625,10.828125 L18.90625,14.8125 L22.375,14.8125 C22.703125,14.8125 22.921875,14.921875 22.984375,15.171875 C22.34375,15.84375 21.28125,16.75 21.28125,16.75 L20.328125,15.5 L18.90625,15.5 L18.90625,18.9375 C19.53125,19.03125 19.734375,19.265625 19.796875,19.609375 Z M7.0625,12.125 L6.765625,12 C7.125,11.421875 7.515625,10.6875 7.796875,9.90625 L3.859375,9.703125 C5.5625,11.71875 7.4375,14.28125 8.5625,16.078125 C9.046875,15.984375 9.390625,16.15625 9.5,16.421875 L7.25,17.40625 C6.234375,15.125 4.5625,12 3.171875,9.671875 L0.984375,9.625 L1.65625,7.796875 C1.890625,7.84375 2.109375,7.984375 2.28125,8.296875 L4.75,8.765625 L4.75,-1.875 L4.984375,-1.875 C5.71875,-1.875 6.21875,-1.515625 6.21875,-1.375 L6.21875,9.046875 L7.984375,9.40625 C8.15625,8.921875 8.25,8.453125 8.28125,8.015625 C9.625,6.796875 11.09375,9.75 7.0625,12.125 Z M1.125,16.25 L0.890625,16.03125 C1.75,15.28125 2.765625,13.96875 2.96875,12.890625 C4.109375,12.09375 5.046875,13.734375 3.390625,15.125 C4.265625,16.171875 5.234375,17.5625 6.03125,18.84375 C6.53125,18.8125 6.8125,19.015625 6.9375,19.265625 L4.5625,20.140625 C4.0625,18.546875 3.4375,16.75 2.90625,15.484375 C2.453125,15.765625 1.875,16.03125 1.125,16.25 Z" transform="translate(-0.15625, 20.140625) scale(1, -1)"/>
</svg>