<svg height="22.03125" viewBox="0 0 24 22.03125" width="24" xmlns="http://www.w3.org/2000/svg">
<path d="M7.25,7.0625 L6.9375,6.953125 C7.421875,5.96875 7.9375,4.4375 7.921875,3.265625 C9.125,2.046875 10.6875,4.65625 7.25,7.0625 Z M2.328125,6.8125 C2.09375,4.578125 1.5625,2.234375 0.9375,0.578125 L1.34375,0.390625 C2.328125,1.75 3.125,3.8125 3.671875,5.8125 C4.15625,5.8125 4.375,6.046875 4.46875,6.359375 Z M20.546875,20.0625 C18.625,19.390625 15.125,18.546875 12.046875,18.140625 L10.46875,18.84375 L10.46875,12.359375 C10.46875,7.921875 10.21875,3.125 7.796875,-0.796875 L8.1875,-1.03125 C10.015625,0.953125 10.96875,3.4375 11.453125,5.90625 L11.453125,-1.84375 L11.65625,-1.84375 C12.234375,-1.84375 12.796875,-1.53125 12.796875,-1.390625 L12.796875,3.390625 L14.59375,3.390625 L14.59375,-1.703125 L14.78125,-1.703125 C15.40625,-1.703125 15.84375,-1.375 15.84375,-1.25 L15.84375,3.390625 L17.65625,3.390625 L17.65625,-1.609375 L17.859375,-1.609375 C18.484375,-1.609375 18.90625,-1.265625 18.9375,-1.171875 L18.9375,3.390625 L20.90625,3.390625 L20.90625,0.3125 C20.90625,0.03125 20.828125,-0.09375 20.515625,-0.09375 C20.203125,-0.09375 18.984375,0 18.984375,0 L18.984375,-0.390625 C19.609375,-0.453125 19.9375,-0.59375 20.15625,-0.84375 C20.375,-1.078125 20.421875,-1.484375 20.46875,-1.890625 C22.078125,-1.734375 22.25,-1.03125 22.25,0.140625 L22.25,7.3125 C22.6875,7.390625 23.015625,7.578125 23.140625,7.734375 L21.359375,9.046875 L20.6875,8.234375 L12.90625,8.234375 L11.828125,8.734375 L11.921875,10.609375 L20.09375,10.609375 L20.09375,9.625 L20.328125,9.625 C20.828125,9.625 21.59375,9.984375 21.625,10.15625 L21.625,14.359375 C22.0625,14.453125 22.46875,14.640625 22.625,14.828125 L20.71875,16.25 L19.84375,15.34375 L11.953125,15.34375 L11.953125,17.609375 C15.1875,17.6875 18.671875,18.046875 21.046875,18.453125 C21.59375,18.234375 21.984375,18.21875 22.21875,18.40625 Z M11.953125,11.328125 L11.953125,12.359375 L11.953125,14.640625 L20.09375,14.640625 L20.09375,11.328125 Z M7.078125,12.234375 L6.765625,12.125 C7.125,11.546875 7.515625,10.78125 7.796875,9.984375 L3.953125,9.8125 C5.640625,11.78125 7.421875,14.234375 8.5,15.9375 C8.96875,15.859375 9.34375,16.015625 9.453125,16.265625 L7.21875,17.296875 C6.21875,15.125 4.609375,12.078125 3.21875,9.765625 L0.890625,9.71875 L1.609375,7.890625 C1.828125,7.9375 2.0625,8.09375 2.203125,8.40625 L4.75,8.859375 L4.75,-1.875 L4.984375,-1.875 C5.71875,-1.875 6.21875,-1.515625 6.21875,-1.375 L6.21875,9.125 L7.96875,9.484375 C8.109375,9.03125 8.203125,8.5625 8.234375,8.15625 C9.578125,6.90625 11.046875,9.8125 7.078125,12.234375 Z M1.125,16.25 L0.890625,16.03125 C1.75,15.28125 2.765625,13.984375 2.96875,12.90625 C4.078125,12.125 5.046875,13.734375 3.359375,15.125 C4.25,16.171875 5.234375,17.5625 6,18.84375 C6.5,18.8125 6.796875,19.015625 6.90625,19.265625 L4.53125,20.140625 C4.03125,18.546875 3.40625,16.78125 2.859375,15.5 C2.421875,15.765625 1.84375,16.03125 1.125,16.25 Z M12.796875,4.078125 L12.796875,7.515625 L14.59375,7.515625 L14.59375,4.078125 Z M20.90625,4.078125 L18.9375,4.078125 L18.9375,7.515625 L20.90625,7.515625 Z M15.84375,4.078125 L15.84375,7.515625 L17.65625,7.515625 L17.65625,4.078125 Z" transform="translate(-0.015625, 20.140625) scale(1, -1)"/>
</svg>