<svg height="22.03125" viewBox="0 0 24 22.03125" width="24" xmlns="http://www.w3.org/2000/svg">
<path d="M7.515625,6.71875 L7.171875,6.59375 C7.75,5.5 8.453125,3.75 8.5,2.421875 C9.796875,1.125 11.28125,4.0625 7.515625,6.71875 Z M2.296875,6.640625 C2.0625,4.4375 1.53125,2.09375 0.90625,0.4375 L1.34375,0.234375 C2.296875,1.609375 3.09375,3.703125 3.59375,5.640625 C4.109375,5.640625 4.34375,5.875 4.421875,6.171875 Z M10.265625,14.28125 L10.265625,5.765625 L10.484375,5.765625 C11.09375,5.765625 11.734375,6.125 11.734375,6.234375 L11.734375,7.015625 L14.1875,7.015625 C12.84375,4.203125 10.609375,1.609375 7.734375,-0.21875 L7.96875,-0.59375 C11.046875,0.859375 13.46875,2.90625 15.125,5.40625 L15.125,-1.890625 L15.40625,-1.890625 C15.984375,-1.890625 16.65625,-1.515625 16.65625,-1.265625 L16.65625,6.9375 C17.828125,3.796875 19.828125,1.203125 21.953125,-0.34375 C22.203125,0.453125 22.703125,0.890625 23.328125,1.015625 L23.375,1.25 C21.125,2.328125 18.625,4.484375 17.1875,7.015625 L20.140625,7.015625 L20.140625,5.96875 L20.359375,5.96875 C20.859375,5.96875 21.59375,6.359375 21.625,6.5 L21.625,13.34375 C22.0625,13.4375 22.421875,13.578125 22.5625,13.78125 L20.734375,15.171875 L19.890625,14.28125 L16.65625,14.28125 L16.65625,16.46875 L22.515625,16.46875 C22.84375,16.46875 23.0625,16.578125 23.109375,16.828125 C22.421875,17.546875 21.21875,18.5 21.21875,18.5 L20.15625,17.15625 L16.65625,17.15625 L16.65625,19.15625 C17.15625,19.21875 17.359375,19.4375 17.40625,19.78125 L15.125,19.984375 L15.125,17.15625 L9.28125,17.15625 L9.484375,16.515625 L9.484375,16.46875 L15.125,16.46875 L15.125,14.28125 L11.859375,14.28125 L10.265625,15 Z M7.015625,11.96875 L6.71875,11.8125 C7.0625,11.28125 7.4375,10.578125 7.75,9.859375 L4.0625,9.75 C5.6875,11.765625 7.484375,14.28125 8.546875,16.078125 C9.046875,16.03125 9.359375,16.21875 9.484375,16.515625 L7.15625,17.296875 C6.21875,15.09375 4.65625,12.03125 3.34375,9.71875 L1.015625,9.671875 L1.703125,7.84375 C1.96875,7.875 2.1875,8.046875 2.296875,8.328125 L4.828125,8.765625 L4.828125,-1.875 L5.046875,-1.875 C5.765625,-1.875 6.28125,-1.515625 6.28125,-1.375 L6.28125,9.046875 L7.9375,9.359375 C8.140625,8.828125 8.28125,8.296875 8.296875,7.828125 C9.671875,6.59375 11.09375,9.546875 7.015625,11.96875 Z M15.125,10.3125 L15.125,7.6875 L11.734375,7.6875 L11.734375,10.3125 Z M15.125,10.984375 L11.734375,10.984375 L11.734375,13.578125 L15.125,13.578125 Z M16.65625,10.3125 L20.140625,10.3125 L20.140625,7.6875 L16.65625,7.6875 Z M16.65625,10.984375 L16.65625,13.578125 L20.140625,13.578125 L20.140625,10.984375 Z M1.0625,16.21875 L0.8125,16.015625 C1.78125,15.21875 2.859375,13.828125 3.125,12.703125 C4.265625,11.875 5.25,13.6875 3.234375,15.171875 C4.125,16.21875 5.09375,17.59375 5.859375,18.84375 C6.34375,18.8125 6.640625,19.015625 6.75,19.265625 L4.390625,20.140625 C3.90625,18.578125 3.265625,16.796875 2.734375,15.5 C2.28125,15.765625 1.734375,16.015625 1.0625,16.21875 Z" transform="translate(-0.09375, 20.140625) scale(1, -1)"/>
</svg>