<svg height="22.015625" viewBox="0 0 24 22.015625" width="24" xmlns="http://www.w3.org/2000/svg">
<path d="M7.390625,6.84375 L7.078125,6.71875 C7.625,5.609375 8.25,3.859375 8.25,2.515625 C9.546875,1.21875 11.109375,4.15625 7.390625,6.84375 Z M2.359375,6.5 C2.109375,4.265625 1.578125,1.921875 0.9375,0.265625 L1.34375,0.078125 C2.359375,1.4375 3.140625,3.5 3.703125,5.46875 C4.171875,5.5 4.421875,5.6875 4.515625,5.96875 Z M21.21875,10.578125 C20.6875,9.796875 19.578125,8.421875 18.640625,7.390625 C18.03125,8.8125 17.546875,10.34375 17.1875,11.921875 L22.515625,11.921875 C22.84375,11.921875 23.0625,12.046875 23.140625,12.28125 C22.46875,12.984375 21.359375,13.890625 21.359375,13.890625 L20.375,12.59375 L19.75,12.59375 L19.75,17.96875 C20.15625,18.046875 20.5,18.21875 20.609375,18.359375 L18.859375,19.734375 L18.03125,18.84375 L10.5625,18.84375 L10.78125,18.140625 L18.234375,18.140625 L18.234375,15.765625 L11.15625,15.765625 L11.375,15.09375 L18.234375,15.09375 L18.234375,12.59375 L8.875,12.59375 L9.078125,11.921875 L14.90625,11.921875 C13.53125,10.4375 11.5625,9.046875 9.546875,8.015625 L9.8125,7.609375 C11.25,8.15625 12.640625,8.828125 13.890625,9.625 C14.140625,9.3125 14.359375,8.96875 14.5625,8.65625 C13.390625,7.109375 11.46875,5.59375 9.703125,4.703125 L9.859375,4.3125 C11.78125,4.984375 13.828125,6.140625 15.21875,7.34375 C15.40625,6.859375 15.578125,6.40625 15.703125,5.953125 C13.984375,3.640625 11.203125,1.3125 8.359375,0.171875 L8.5,-0.21875 C11.359375,0.625 14.09375,2.40625 16.03125,4.203125 C16.25,2.359375 15.984375,0.75 15.453125,0.078125 C15.3125,-0.140625 15.125,-0.171875 14.828125,-0.171875 C14.296875,-0.171875 12.640625,-0.078125 11.734375,0 L11.734375,-0.390625 C12.546875,-0.53125 13.375,-0.75 13.65625,-0.90625 C13.921875,-1.125 14.09375,-1.390625 14.109375,-1.84375 C15.390625,-1.84375 16.15625,-1.578125 16.578125,-1.0625 C18.09375,0.703125 18.09375,6.453125 14.359375,9.90625 C15.234375,10.484375 16.03125,11.140625 16.703125,11.828125 C17.5,6.53125 19.03125,2.375 22.0625,-0.078125 C22.296875,0.640625 22.796875,1.109375 23.375,1.21875 L23.421875,1.46875 C21.5,2.5625 19.96875,4.53125 18.859375,6.90625 C20.09375,7.578125 21.390625,8.46875 22.078125,9 C22.5625,8.828125 22.9375,8.953125 23.0625,9.140625 Z M6.9375,12.078125 L6.640625,11.953125 C6.953125,11.421875 7.3125,10.75 7.609375,10.078125 L4.0625,9.8125 C5.734375,11.8125 7.515625,14.25 8.59375,16.015625 C9.09375,15.90625 9.4375,16.078125 9.578125,16.34375 L7.3125,17.359375 C6.3125,15.140625 4.6875,12.078125 3.3125,9.75 L1.015625,9.625 L1.75,7.84375 C1.984375,7.890625 2.1875,8.046875 2.328125,8.359375 L4.828125,8.859375 L4.828125,-1.875 L5.0625,-1.875 C5.8125,-1.875 6.3125,-1.484375 6.3125,-1.375 L6.3125,9.1875 L7.828125,9.546875 C8.015625,9 8.140625,8.46875 8.1875,7.984375 C9.546875,6.71875 11.046875,9.71875 6.9375,12.078125 Z M1.15625,16.203125 L0.890625,16.015625 C1.796875,15.234375 2.8125,13.921875 3.078125,12.84375 C4.203125,12.046875 5.140625,13.703125 3.4375,15.09375 C4.3125,16.15625 5.296875,17.5625 6.09375,18.8125 C6.578125,18.796875 6.890625,18.984375 6.984375,19.265625 L4.625,20.140625 C4.109375,18.546875 3.453125,16.75 2.90625,15.453125 C2.453125,15.75 1.875,15.984375 1.15625,16.203125 Z" transform="translate(-0.15625, 20.140625) scale(1, -1)"/>
</svg>