<svg height="22.0625" viewBox="0 0 24 22.0625" width="24" xmlns="http://www.w3.org/2000/svg">
<path d="M18.3125,20.046875 L18.078125,19.84375 C18.8125,19.421875 19.703125,18.578125 19.96875,17.859375 C21.453125,17.109375 22.265625,19.921875 18.3125,20.046875 Z M11.90625,4.21875 L11.65625,4.0625 C12.359375,3.265625 13.109375,1.96875 13.203125,0.90625 C14.65625,-0.359375 16.265625,2.765625 11.90625,4.21875 Z M7.34375,6.578125 L7.03125,6.453125 C7.578125,5.328125 8.203125,3.546875 8.234375,2.203125 C9.5,0.90625 11.046875,3.84375 7.34375,6.578125 Z M2.328125,6.5 C2.09375,4.296875 1.5625,1.9375 0.9375,0.265625 L1.34375,0.078125 C2.328125,1.46875 3.125,3.5 3.640625,5.5 C4.125,5.5 4.375,5.71875 4.46875,6 Z M10.3125,14.609375 L10.3125,6.484375 L10.53125,6.484375 C11.1875,6.484375 11.828125,6.84375 11.828125,7.015625 L11.828125,7.703125 L20.46875,7.703125 L20.46875,6.953125 L20.71875,6.953125 C21.234375,6.953125 21.984375,7.3125 22.015625,7.46875 L22.015625,13.6875 C22.421875,13.75 22.78125,13.9375 22.921875,14.109375 L21.09375,15.5 L20.25,14.609375 L16.9375,14.609375 L16.9375,16.53125 L22.734375,16.53125 C23.046875,16.53125 23.25,16.65625 23.328125,16.890625 C22.625,17.59375 21.484375,18.453125 21.484375,18.453125 L20.5,17.234375 L16.9375,17.234375 L16.9375,19.296875 C17.375,19.375 17.5625,19.5625 17.609375,19.84375 L15.390625,20.09375 L15.390625,17.234375 L9.546875,17.234375 L9.75,16.53125 L15.390625,16.53125 L15.390625,14.609375 L11.96875,14.609375 L10.3125,15.34375 Z M17.6875,7.21875 L17.6875,5.375 L9.4375,5.375 L9.625,4.65625 L17.6875,4.65625 L17.6875,0.390625 C17.6875,0.046875 17.5625,-0.046875 17.15625,-0.046875 C16.734375,-0.046875 14.59375,0.09375 14.59375,0.09375 L14.59375,-0.28125 C15.546875,-0.40625 16.078125,-0.59375 16.390625,-0.8125 C16.6875,-1.0625 16.796875,-1.484375 16.84375,-1.921875 C18.9375,-1.703125 19.171875,-0.953125 19.171875,0.28125 L19.171875,4.65625 L22.578125,4.65625 C22.921875,4.65625 23.15625,4.78125 23.234375,5.046875 C22.515625,5.71875 21.40625,6.578125 21.40625,6.578125 L20.375,5.375 L19.171875,5.375 L19.171875,6.359375 C19.734375,6.453125 19.9375,6.625 20.015625,6.953125 Z M15.390625,10.875 L15.390625,8.421875 L11.828125,8.421875 L11.828125,10.875 Z M16.9375,10.875 L20.46875,10.875 L20.46875,8.421875 L16.9375,8.421875 Z M15.390625,11.5625 L11.828125,11.5625 L11.828125,13.890625 L15.390625,13.890625 Z M16.9375,11.5625 L16.9375,13.890625 L20.46875,13.890625 L20.46875,11.5625 Z M6.9375,11.921875 L6.640625,11.78125 C7.015625,11.25 7.421875,10.578125 7.75,9.890625 L3.859375,9.703125 C5.5625,11.71875 7.421875,14.25 8.546875,16.078125 C9.03125,16.015625 9.359375,16.171875 9.5,16.4375 L7.203125,17.359375 C6.1875,15.09375 4.53125,12 3.140625,9.671875 L1.015625,9.625 L1.703125,7.796875 C1.9375,7.84375 2.15625,7.96875 2.296875,8.28125 L4.796875,8.734375 L4.796875,-1.875 L5.015625,-1.875 C5.734375,-1.875 6.265625,-1.515625 6.265625,-1.375 L6.265625,9.03125 L7.984375,9.390625 C8.203125,8.828125 8.375,8.296875 8.453125,7.828125 C9.8125,6.640625 11.1875,9.59375 6.9375,11.921875 Z M1.125,16.25 L0.890625,16.03125 C1.75,15.28125 2.765625,13.984375 2.96875,12.90625 C4.078125,12.125 5.046875,13.734375 3.359375,15.125 C4.25,16.171875 5.234375,17.5625 6,18.84375 C6.5,18.8125 6.796875,19.015625 6.90625,19.265625 L4.53125,20.140625 C4.03125,18.546875 3.40625,16.78125 2.859375,15.5 C2.421875,15.765625 1.84375,16.03125 1.125,16.25 Z" transform="translate(-0.109375, 20.140625) scale(1, -1)"/>
</svg>