<svg height="22.015625" viewBox="0 0 24 22.015625" width="24" xmlns="http://www.w3.org/2000/svg">
<path d="M11.296875,19.921875 C10.4375,17.453125 9.140625,14.96875 7.96875,13.4375 L8.296875,13.171875 C9.890625,14.453125 11.46875,16.46875 12.640625,18.625 C13.15625,18.546875 13.4375,18.75 13.5625,19.015625 Z M14.40625,19.84375 L14.09375,19.703125 C14.78125,18.4375 15.53125,16.484375 15.53125,14.953125 C16.9375,13.5625 18.53125,16.890625 14.40625,19.84375 Z M6.59375,7.0625 L6.265625,6.9375 C6.765625,5.6875 7.25,3.796875 7.171875,2.328125 C8.421875,0.9375 10.015625,3.984375 6.59375,7.0625 Z M11.5625,15.28125 C10.703125,12.078125 9.1875,8.96875 7.65625,7.0625 L8.015625,6.8125 C8.765625,7.4375 9.453125,8.1875 10.125,9.046875 L10.125,-1.828125 L10.390625,-1.828125 C10.984375,-1.828125 11.546875,-1.296875 11.546875,-1.125 L11.546875,10.25 C11.96875,10.3125 12.1875,10.46875 12.28125,10.65625 L11.421875,10.984375 C12,11.953125 12.53125,12.984375 12.953125,14.0625 C13.46875,14.015625 13.78125,14.234375 13.84375,14.5 Z M13.796875,9.953125 C13.78125,6.453125 13.828125,1.875 11.921875,-1.53125 L12.3125,-1.875 C13.703125,-0.265625 14.421875,1.703125 14.78125,3.671875 C15.75,-0.171875 17.46875,-1.21875 20.15625,-1.21875 C20.78125,-1.21875 22.03125,-1.21875 22.609375,-1.21875 C22.609375,-0.59375 22.84375,-0.09375 23.328125,0 L23.328125,0.34375 C22.515625,0.3125 21,0.3125 20.28125,0.3125 C19.625,0.3125 19.0625,0.359375 18.53125,0.5 L18.53125,7.46875 L22.25,7.46875 C22.578125,7.46875 22.796875,7.578125 22.875,7.84375 C22.171875,8.546875 21.09375,9.484375 21.09375,9.484375 L20.109375,8.15625 L18.53125,8.15625 L18.53125,13.390625 L22.421875,13.390625 C22.75,13.390625 22.984375,13.484375 23.046875,13.75 C22.34375,14.46875 21.21875,15.4375 21.21875,15.4375 L20.1875,14.09375 L18.59375,14.09375 C19.734375,15.546875 20.734375,17.40625 21.390625,18.8125 C21.859375,18.796875 22.15625,19.015625 22.25,19.265625 L19.890625,19.9375 C19.53125,18.171875 18.796875,15.796875 18.03125,14.09375 L13.5625,14.09375 L13.75,13.390625 L17.046875,13.390625 L17.046875,1.203125 C16.171875,1.875 15.5,3 14.96875,4.84375 C15.1875,6.390625 15.21875,7.875 15.265625,9.140625 C15.75,9.1875 15.953125,9.4375 16.015625,9.75 Z M2.015625,6.859375 C1.84375,4.609375 1.421875,2.15625 0.84375,0.40625 L1.265625,0.21875 C2.1875,1.6875 2.875,3.859375 3.3125,5.828125 C3.75,5.859375 4.015625,6.03125 4.109375,6.265625 L4.109375,-1.84375 L4.34375,-1.84375 C5.0625,-1.84375 5.59375,-1.484375 5.59375,-1.34375 L5.59375,9.3125 L7.109375,9.703125 C7.21875,9.234375 7.3125,8.78125 7.3125,8.375 C8.59375,7.171875 10.03125,9.953125 6.34375,12.234375 L6.03125,12.125 C6.34375,11.5625 6.703125,10.875 6.9375,10.171875 L3.546875,9.90625 C5.1875,11.71875 6.796875,13.984375 7.734375,15.75 C8.234375,15.671875 8.546875,15.84375 8.65625,16.109375 L6.546875,16.984375 C5.6875,14.8125 4.25,11.953125 2.859375,9.859375 L0.859375,9.765625 L1.421875,7.96875 C1.65625,8.015625 1.875,8.15625 2.015625,8.46875 L4.109375,8.953125 L4.109375,6.390625 Z M1.3125,16.421875 L1.0625,16.21875 C1.890625,15.453125 2.8125,14.109375 2.96875,13.03125 C4.109375,12.171875 5.109375,13.9375 3.171875,15.453125 C3.984375,16.390625 4.875,17.734375 5.5625,18.90625 C6.03125,18.890625 6.3125,19.109375 6.4375,19.375 L4.171875,20.140625 C3.765625,18.59375 3.21875,16.921875 2.734375,15.75 C2.359375,15.984375 1.890625,16.21875 1.3125,16.421875 Z" transform="translate(-0.0859375, 20.140625) scale(1, -1)"/>
</svg>