<svg height="22.015625" viewBox="0 0 24 22.015625" width="24" xmlns="http://www.w3.org/2000/svg">
<path d="M8.328125,19.125 L8.0625,18.9375 C8.90625,18 9.953125,16.375 10.171875,15.125 C11.640625,13.9375 12.9375,17.140625 8.328125,19.125 Z M6.4375,7.203125 L6.09375,7.109375 C6.671875,5.828125 7.3125,3.9375 7.3125,2.46875 C8.640625,1.125 10.171875,4.21875 6.4375,7.203125 Z M1.84375,6.90625 C1.703125,4.65625 1.3125,2.109375 0.84375,0.34375 L1.265625,0.171875 C2.140625,1.65625 2.765625,3.890625 3.1875,5.875 C3.671875,5.90625 3.9375,6.125 4.015625,6.40625 Z M19.265625,17.140625 C18.8125,16.390625 18.234375,15.671875 17.5625,14.96875 C16.6875,15.3125 15.671875,15.625 14.515625,15.9375 C14.953125,16.3125 15.34375,16.734375 15.71875,17.140625 Z M15.890625,20.109375 C14.921875,17.953125 13.03125,15.40625 11.09375,13.96875 L11.359375,13.6875 C12.3125,14.1875 13.21875,14.8125 14.09375,15.546875 C15.046875,15.125 15.953125,14.6875 16.796875,14.234375 C15.40625,12.9375 13.734375,11.765625 11.953125,10.890625 L10.890625,11.78125 L10.015625,10.578125 L8.328125,10.578125 L8.453125,10.0625 C8.09375,10.734375 7.421875,11.46875 6.3125,12.1875 L6,12.078125 C6.3125,11.546875 6.625,10.890625 6.890625,10.203125 L3.578125,9.984375 C5.109375,11.71875 6.71875,13.921875 7.65625,15.546875 C8.15625,15.5 8.46875,15.703125 8.59375,15.953125 L6.390625,16.796875 C5.5625,14.734375 4.171875,11.96875 2.875,9.9375 L0.859375,9.84375 L1.578125,8.0625 C1.796875,8.09375 2.015625,8.234375 2.15625,8.546875 L4.15625,8.96875 L4.15625,-1.875 L4.375,-1.875 C5.109375,-1.875 5.640625,-1.515625 5.640625,-1.375 L5.640625,9.3125 L7.078125,9.640625 C7.25,9.09375 7.375,8.515625 7.390625,8.015625 C8.296875,7.171875 9.265625,8.296875 8.515625,9.890625 L10.375,9.890625 L10.375,1.96875 C9.390625,1.25 8.328125,0.5 7.65625,0.09375 L8.78125,-1.703125 C8.953125,-1.578125 9.03125,-1.421875 8.96875,-1.15625 C9.671875,-0.390625 10.78125,1.03125 11.46875,2.09375 C12.546875,-0.625 13.9375,-1.203125 16.9375,-1.203125 C18.71875,-1.203125 20.71875,-1.203125 22.34375,-1.203125 C22.421875,-0.5 22.703125,-0.03125 23.28125,0.078125 L23.28125,0.40625 C21.359375,0.359375 18.90625,0.359375 16.9375,0.359375 C14.203125,0.359375 12.9375,0.640625 11.734375,2.59375 L11.734375,9.671875 C12.359375,9.765625 12.71875,9.9375 12.890625,10.125 L12.359375,10.5625 C14.421875,11.359375 16.265625,12.4375 17.8125,13.65625 C19.578125,12.59375 20.96875,11.546875 21.71875,10.734375 C23.09375,10.15625 23.78125,12.3125 18.796875,14.5 C19.65625,15.28125 20.40625,16.15625 21,17.015625 C21.578125,17.046875 21.8125,17.109375 22.015625,17.296875 L20.453125,18.71875 L19.4375,17.859375 L16.34375,17.859375 C16.703125,18.28125 17.015625,18.71875 17.28125,19.15625 C17.875,19.0625 18.078125,19.15625 18.171875,19.390625 Z M13.15625,7.265625 L13.34375,6.546875 L16.421875,6.546875 L16.421875,4.5625 L12.390625,4.5625 L12.578125,3.859375 L16.421875,3.859375 L16.421875,1.015625 L16.703125,1.015625 C17.234375,1.015625 17.859375,1.296875 17.859375,1.484375 L17.859375,3.859375 L22.109375,3.859375 C22.421875,3.859375 22.625,3.984375 22.703125,4.21875 C22.0625,4.875 21,5.734375 21,5.734375 L20.09375,4.5625 L17.859375,4.5625 L17.859375,6.546875 L21.21875,6.546875 C21.53125,6.546875 21.765625,6.671875 21.796875,6.9375 C21.21875,7.53125 20.203125,8.328125 20.203125,8.328125 L19.375,7.265625 L17.859375,7.265625 L17.859375,9.09375 L21.5,9.09375 C21.796875,9.09375 22.015625,9.21875 22.078125,9.484375 C21.4375,10.109375 20.40625,10.921875 20.40625,10.921875 L19.484375,9.8125 L17.859375,9.8125 L17.859375,11.09375 C18.453125,11.15625 18.671875,11.40625 18.71875,11.71875 L16.421875,11.96875 L16.421875,9.8125 L12.859375,9.8125 L13.0625,9.09375 L16.421875,9.09375 L16.421875,7.265625 Z M1.484375,16.4375 L1.21875,16.21875 C2.046875,15.453125 2.953125,14.15625 3.125,13.078125 C4.265625,12.1875 5.328125,14.109375 3.1875,15.625 C4.03125,16.484375 4.890625,17.71875 5.59375,18.90625 C6.078125,18.890625 6.34375,19.109375 6.453125,19.34375 L4.15625,20.140625 C3.765625,18.640625 3.21875,17.046875 2.734375,15.890625 C2.375,16.078125 1.96875,16.265625 1.484375,16.4375 Z" transform="translate(-0.3125, 20.140625) scale(1, -1)"/>
</svg>