<svg height="22.109375" viewBox="0 0 24 22.109375" width="24" xmlns="http://www.w3.org/2000/svg">
<path d="M11.203125,19.9375 C10.375,17.40625 9.078125,14.859375 7.890625,13.296875 L8.25,13.03125 C9.84375,14.375 11.40625,16.4375 12.578125,18.640625 C13.0625,18.625 13.375,18.8125 13.484375,19.0625 Z M6.53125,6.53125 L6.1875,6.40625 C6.703125,5.25 7.203125,3.453125 7.171875,2.09375 C8.453125,0.765625 9.984375,3.703125 6.53125,6.53125 Z M1.734375,6.4375 C1.609375,4.34375 1.296875,1.984375 0.859375,0.34375 L1.265625,0.171875 C2.0625,1.5625 2.65625,3.625 3.046875,5.46875 C3.578125,5.515625 3.796875,5.734375 3.859375,6.03125 Z M19.3125,19.9375 C19.203125,17.953125 18.84375,15.625 17.96875,13.6875 C17.953125,14.296875 17.421875,15.1875 15.890625,15.84375 C16.25,16.890625 16.515625,17.953125 16.703125,18.859375 C17.296875,18.890625 17.5,19.03125 17.59375,19.3125 L15.140625,19.9375 C14.96875,17.28125 14.359375,13.484375 12.84375,11.015625 L13.125,10.703125 C14.296875,11.96875 15.125,13.609375 15.703125,15.234375 C16.171875,14.59375 16.609375,13.734375 16.6875,13.0625 C17.015625,12.765625 17.375,12.75 17.59375,12.90625 C17.28125,12.3125 16.890625,11.765625 16.4375,11.28125 L16.65625,10.9375 C18.171875,12.03125 19.171875,13.5625 19.875,15.1875 C20.640625,14.1875 21.4375,12.859375 21.671875,11.828125 C23.046875,10.75 24.234375,13.578125 20.09375,15.75 C20.5,16.828125 20.765625,17.921875 20.96875,18.953125 C21.59375,18.984375 21.765625,19.171875 21.8125,19.4375 Z M17.328125,11.0625 L17.328125,0.796875 C16.4375,1.421875 15.75,2.5 15.234375,4.265625 C15.4375,5.65625 15.453125,6.984375 15.5,8.109375 C16.015625,8.1875 16.21875,8.421875 16.25,8.71875 L14.09375,8.921875 C14.0625,5.734375 14.09375,1.53125 12.21875,-1.609375 L12.59375,-1.96875 C13.96875,-0.484375 14.65625,1.34375 15.046875,3.140625 C15.984375,-0.453125 17.6875,-1.515625 20.296875,-1.515625 C20.859375,-1.515625 22.015625,-1.515625 22.515625,-1.515625 C22.53125,-0.859375 22.78125,-0.390625 23.234375,-0.3125 L23.234375,0.03125 C22.46875,0 21.09375,0 20.421875,0 C19.828125,0 19.265625,0.046875 18.765625,0.171875 L18.765625,5.78125 L22.375,5.78125 C22.6875,5.78125 22.921875,5.90625 22.984375,6.171875 C22.296875,6.890625 21.1875,7.84375 21.1875,7.84375 L20.203125,6.5 L18.765625,6.5 L18.765625,10.125 C19.390625,10.21875 19.609375,10.46875 19.65625,10.796875 Z M11.453125,15.125 C10.609375,11.921875 9.234375,8.5625 7.921875,6.40625 L8.296875,6.1875 C9,6.9375 9.640625,7.828125 10.265625,8.8125 L10.265625,-1.828125 L10.5625,-1.828125 C11.15625,-1.828125 11.71875,-1.375 11.734375,-1.21875 L11.734375,10.296875 C12.125,10.390625 12.34375,10.53125 12.4375,10.75 L11.546875,11.09375 C12,12 12.4375,12.953125 12.796875,13.9375 C13.3125,13.921875 13.609375,14.140625 13.703125,14.421875 Z M6.09375,12.046875 L5.78125,11.921875 C6.140625,11.359375 6.53125,10.609375 6.796875,9.84375 L3.53125,9.671875 C4.96875,11.65625 6.53125,14.09375 7.46875,15.8125 C7.984375,15.765625 8.296875,15.953125 8.421875,16.25 L6.265625,17.015625 C5.40625,14.875 4.015625,11.875 2.8125,9.640625 L0.8125,9.625 L1.484375,7.796875 C1.703125,7.84375 1.9375,7.96875 2.0625,8.28125 L3.9375,8.65625 L3.9375,-1.890625 L4.171875,-1.890625 C4.921875,-1.890625 5.421875,-1.515625 5.421875,-1.390625 L5.421875,8.96875 L6.953125,9.34375 C7.078125,8.90625 7.15625,8.46875 7.171875,8.09375 C8.46875,6.890625 9.890625,9.71875 6.09375,12.046875 Z M1.109375,16.21875 L0.859375,16.03125 C1.609375,15.3125 2.46875,14.0625 2.609375,13.0625 C3.71875,12.21875 4.734375,13.890625 2.921875,15.28125 C3.75,16.3125 4.609375,17.6875 5.328125,18.90625 C5.828125,18.890625 6.078125,19.078125 6.1875,19.375 L3.953125,20.140625 C3.53125,18.59375 2.921875,16.875 2.453125,15.625 C2.09375,15.84375 1.625,16.0625 1.109375,16.21875 Z" transform="translate(-0.5234375, 20.140625) scale(1, -1)"/>
</svg>