<svg height="22.03125" viewBox="0 0 24 22.03125" width="24" xmlns="http://www.w3.org/2000/svg">
<path d="M12.984375,5.40625 L12.984375,0 C12.984375,-1.015625 13.265625,-1.375 14.859375,-1.375 L16.828125,-1.375 C19.796875,-1.375 20.453125,-1.109375 20.453125,-0.484375 C20.453125,-0.1875 20.328125,-0.03125 19.84375,0.125 L19.796875,2.109375 L19.515625,2.109375 C19.296875,1.21875 19.078125,0.4375 18.90625,0.171875 C18.8125,0.03125 18.75,-0.03125 18.53125,-0.03125 C18.28125,-0.046875 17.65625,-0.046875 16.875,-0.046875 L15.171875,-0.046875 C14.5,-0.046875 14.421875,0.03125 14.421875,0.3125 L14.421875,4.578125 C14.828125,4.625 15.078125,4.84375 15.09375,5.15625 Z M11.0625,4.828125 C11.09375,3.34375 10.296875,1.84375 9.453125,1.296875 C9,0.984375 8.734375,0.5 8.953125,0.078125 C9.234375,-0.4375 10.078125,-0.3125 10.5625,0.125 C11.359375,0.796875 12.078125,2.421875 11.5,4.828125 Z M13.921875,7.125 L13.734375,6.765625 C15.390625,5.875 16.5625,4.65625 16.9375,3.890625 C18.4375,3.09375 19.421875,6.234375 13.921875,7.125 Z M19.578125,5.375 L19.296875,5.1875 C20.375,4.015625 21.578125,1.984375 21.703125,0.4375 C23.234375,-0.90625 24.625,2.734375 19.578125,5.375 Z M7.375,6.796875 L7.0625,6.703125 C7.609375,5.59375 8.234375,3.859375 8.234375,2.546875 C9.5,1.265625 11.046875,4.125 7.375,6.796875 Z M2.328125,6.5 C2.09375,4.296875 1.5625,1.9375 0.9375,0.28125 L1.34375,0.125 C2.328125,1.46875 3.125,3.546875 3.671875,5.515625 C4.15625,5.546875 4.375,5.765625 4.46875,6.046875 Z M12.53125,14.15625 L12.34375,13.828125 L13.578125,13.265625 C13.15625,12.625 12.703125,12.078125 12.234375,11.609375 L12.578125,11.328125 C13.203125,11.71875 13.828125,12.234375 14.40625,12.84375 C15,12.53125 15.59375,12.171875 16.171875,11.8125 C15.1875,10.6875 13.96875,9.765625 12.453125,9.03125 L12.75,8.6875 C14.5625,9.34375 15.953125,10.15625 17.0625,11.1875 C17.71875,10.703125 18.234375,10.203125 18.59375,9.75 C19.65625,9.40625 19.875,10.625 17.875,12.03125 C18.4375,12.640625 18.890625,13.34375 19.296875,14.109375 C19.828125,14.140625 20.109375,14.234375 20.28125,14.40625 L18.671875,15.71875 L17.921875,14.953125 L15.984375,14.953125 L16.3125,15.546875 C16.828125,15.5 17.09375,15.71875 17.1875,15.953125 L15.453125,16.625 L20.6875,16.625 L20.6875,8.5625 L11.5625,8.5625 L11.5625,16.625 L15.234375,16.625 C14.90625,15.59375 14.453125,14.640625 13.921875,13.796875 Z M14.921875,13.46875 L15.53125,14.25 L17.765625,14.25 C17.5,13.6875 17.1875,13.15625 16.84375,12.640625 C16.296875,12.9375 15.671875,13.203125 14.921875,13.46875 Z M15.34375,20.15625 L14.40625,17.328125 L11.859375,17.328125 L10.125,18.078125 L10.125,6.21875 L10.375,6.21875 C11.09375,6.21875 11.5625,6.578125 11.5625,6.703125 L11.5625,7.84375 L20.6875,7.84375 L20.6875,6.578125 L20.921875,6.578125 C21.59375,6.578125 22.171875,6.90625 22.171875,7.03125 L22.171875,16.515625 C22.6875,16.578125 22.921875,16.734375 23.09375,16.921875 L21.359375,18.265625 L20.609375,17.328125 L15.28125,17.328125 L16.796875,19.109375 C17.28125,19.078125 17.609375,19.25 17.71875,19.578125 Z M6.90625,12.046875 L6.59375,11.90625 C6.953125,11.359375 7.390625,10.625 7.734375,9.890625 L3.890625,9.703125 C5.59375,11.734375 7.4375,14.28125 8.546875,16.078125 C9.046875,16.015625 9.359375,16.203125 9.484375,16.46875 L7.21875,17.359375 C6.1875,15.09375 4.5625,12 3.171875,9.671875 L1.015625,9.625 L1.703125,7.828125 C1.9375,7.875 2.15625,7.984375 2.296875,8.296875 L4.796875,8.734375 L4.796875,-1.875 L5.015625,-1.875 C5.734375,-1.875 6.265625,-1.515625 6.265625,-1.375 L6.265625,9.03125 L7.9375,9.359375 C8.15625,8.8125 8.328125,8.25 8.375,7.75 C9.75,6.53125 11.140625,9.546875 6.90625,12.046875 Z M1.125,16.25 L0.890625,16.03125 C1.75,15.28125 2.765625,13.96875 2.96875,12.90625 C4.109375,12.09375 5.046875,13.75 3.34375,15.140625 C4.21875,16.203125 5.203125,17.59375 5.96875,18.84375 C6.484375,18.8125 6.765625,19.015625 6.890625,19.265625 L4.53125,20.140625 C4.03125,18.546875 3.390625,16.796875 2.859375,15.5 C2.40625,15.765625 1.84375,16.03125 1.125,16.25 Z" transform="translate(-0.7578125, 20.15625) scale(1, -1)"/>
</svg>