<svg height="22.34375" viewBox="0 0 24 22.34375" width="24" xmlns="http://www.w3.org/2000/svg">
<path d="M8.6875,10.0625 L8.359375,9.984375 C8.6875,8.6875 9,6.71875 8.90625,5.234375 C9.984375,3.984375 11.375,6.71875 8.6875,10.0625 Z M19.625,18.59375 L19.34375,18.4375 C20.046875,17.71875 20.8125,16.484375 21,15.53125 C22.34375,14.46875 23.640625,17.203125 19.625,18.59375 Z M6.3125,7.078125 L5.96875,6.984375 C6.484375,5.78125 7.015625,3.953125 6.9375,2.546875 C8.203125,1.203125 9.75,4.15625 6.3125,7.078125 Z M1.796875,6.859375 C1.6875,4.5625 1.296875,2.015625 0.796875,0.21875 L1.203125,0.03125 C2.09375,1.578125 2.71875,3.84375 3.125,5.828125 C3.59375,5.859375 3.859375,6.078125 3.9375,6.359375 Z M17.046875,20.09375 C17.046875,17.609375 17.0625,15.234375 17.1875,12.984375 L13.375,12.984375 L13.375,15.90625 L16.375,15.90625 C16.703125,15.90625 16.890625,16.03125 16.96875,16.296875 C16.34375,16.9375 15.234375,17.859375 15.234375,17.859375 L14.328125,16.625 L13.375,16.625 L13.375,19.078125 C13.890625,19.171875 14.09375,19.390625 14.140625,19.703125 L11.828125,19.9375 L11.828125,16.625 L8.734375,16.625 L8.921875,15.90625 L11.828125,15.90625 L11.828125,12.984375 L7.296875,12.984375 L7.484375,12.265625 L10.625,12.265625 L10.625,1.96875 C9.265625,1.6875 8.140625,1.4375 7.4375,1.3125 L8.25,-0.546875 C8.46875,-0.484375 8.6875,-0.28125 8.765625,0.03125 C12.3125,1.25 15.03125,2.328125 16.96875,3.078125 L16.875,3.453125 L14.5625,2.90625 L14.5625,12.265625 L17.234375,12.265625 L17.421875,9.859375 L15.484375,10.265625 C15.34375,8.5 15.125,6.390625 14.859375,4.9375 L15.265625,4.796875 C15.859375,6.03125 16.421875,7.796875 16.828125,9.234375 C17.140625,9.265625 17.359375,9.390625 17.453125,9.578125 C17.640625,7.78125 17.921875,6.078125 18.34375,4.53125 C17.046875,2.1875 15.234375,0.046875 12.90625,-1.46875 L13.125,-1.796875 C15.5,-0.546875 17.375,1.171875 18.796875,3.09375 C19.21875,1.84375 19.78125,0.703125 20.453125,-0.28125 C21.140625,-1.3125 22.421875,-2.203125 23.0625,-1.609375 C23.28125,-1.390625 23.203125,-0.953125 22.6875,0.046875 L23.109375,3.8125 L22.78125,3.859375 C22.53125,2.90625 22.15625,1.796875 21.90625,1.25 C21.703125,0.75 21.625,0.71875 21.359375,1.171875 C20.6875,2.109375 20.1875,3.265625 19.796875,4.578125 C20.78125,6.234375 21.484375,7.9375 21.984375,9.578125 C22.625,9.546875 22.84375,9.703125 22.9375,9.984375 L20.640625,10.609375 C20.359375,9.265625 19.890625,7.875 19.3125,6.53125 C18.953125,8.28125 18.765625,10.21875 18.671875,12.265625 L22.390625,12.265625 C22.734375,12.265625 22.984375,12.390625 23.046875,12.640625 C22.265625,13.375 21.078125,14.359375 21.078125,14.359375 L19.96875,12.984375 L18.640625,12.984375 C18.578125,15 18.578125,17.09375 18.59375,19.125 C19.21875,19.203125 19.4375,19.484375 19.46875,19.796875 Z M11.953125,12.265625 L13.265625,12.265625 L13.265625,2.59375 L11.953125,2.28125 Z M6.171875,12.171875 L5.828125,12.046875 C6.125,11.546875 6.40625,10.890625 6.625,10.21875 L3.484375,9.953125 C5.0625,11.78125 6.625,14.109375 7.53125,15.859375 C8.046875,15.796875 8.359375,15.984375 8.46875,16.25 L6.3125,17.09375 C5.515625,14.90625 4.125,12.03125 2.8125,9.90625 L0.9375,9.8125 L1.578125,8.015625 C1.796875,8.0625 2.046875,8.234375 2.15625,8.515625 L4.015625,8.96875 L4.015625,-1.890625 L4.21875,-1.890625 C4.96875,-1.890625 5.5,-1.515625 5.5,-1.390625 L5.5,9.359375 L6.796875,9.703125 C6.9375,9.171875 7.03125,8.640625 7.03125,8.1875 C8.28125,6.984375 9.71875,9.765625 6.171875,12.171875 Z M1.390625,16.5625 L1.125,16.34375 C1.984375,15.546875 2.921875,14.1875 3.09375,13.109375 C4.21875,12.1875 5.25,14.0625 3.171875,15.625 C4.015625,16.515625 4.875,17.734375 5.546875,18.90625 C6.03125,18.90625 6.3125,19.109375 6.40625,19.390625 L4.15625,20.140625 C3.765625,18.640625 3.234375,17.046875 2.765625,15.90625 C2.375,16.15625 1.921875,16.375 1.390625,16.5625 Z" transform="translate(-0.21875, 20.140625) scale(1, -1)"/>
</svg>