<svg height="22.4375" viewBox="0 0 24 22.4375" width="24" xmlns="http://www.w3.org/2000/svg">
<path d="M7.609375,2.296875 C6.34375,1.15625 3.765625,-0.359375 1.609375,-1.203125 L1.84375,-1.5625 C4.25,-0.984375 7.015625,0.078125 8.46875,1.015625 C8.96875,0.84375 9.171875,0.90625 9.359375,1.125 Z M14.6875,2.0625 L14.5625,1.65625 C17.375,0.765625 19.5625,-0.703125 20.453125,-1.65625 C22.109375,-2.234375 22.515625,1.25 14.6875,2.0625 Z M15.234375,20.109375 C14.734375,18.03125 13.78125,16.0625 12.765625,14.828125 L13.125,14.5625 C13.6875,14.953125 14.203125,15.453125 14.6875,16.03125 C15.1875,14.421875 15.8125,13.015625 16.6875,11.78125 C15.484375,10.5625 13.9375,9.5 12,8.65625 L12.21875,8.28125 C14.25,8.96875 15.9375,9.84375 17.296875,10.96875 C18.4375,9.671875 19.921875,8.640625 21.953125,7.890625 C22.109375,8.5625 22.515625,8.921875 23.0625,9.078125 L23.140625,9.28125 C21.03125,9.8125 19.421875,10.65625 18.171875,11.734375 C19.46875,13.03125 20.421875,14.59375 21.03125,16.484375 L22.375,16.484375 C22.703125,16.484375 22.9375,16.609375 22.984375,16.84375 C22.265625,17.546875 21.140625,18.4375 21.140625,18.4375 L20.140625,17.1875 L15.546875,17.1875 C15.90625,17.734375 16.21875,18.34375 16.515625,18.984375 C17.015625,18.953125 17.28125,19.15625 17.375,19.421875 Z M17.328125,12.546875 C16.34375,13.65625 15.59375,14.96875 15.046875,16.46875 L19.3125,16.484375 C18.90625,15.03125 18.265625,13.703125 17.328125,12.546875 Z M4.734375,15.5 L6.765625,15.5 L6.53125,13.78125 L4.4375,13.78125 Z M1.03125,13.78125 L1.21875,13.078125 L2.96875,13.078125 L2.25,9.71875 C2.921875,9.546875 3.28125,9.578125 3.640625,9.765625 L3.8125,10.578125 L9.40625,10.578125 C9.3125,10.296875 9.1875,10.109375 9.078125,9.984375 C8.875,9.84375 8.734375,9.796875 8.40625,9.796875 C8.015625,9.796875 7.125,9.84375 6.59375,9.890625 L6.578125,9.453125 C7.078125,9.40625 7.53125,9.28125 7.75,9.125 C7.96875,8.921875 8.046875,8.734375 8.046875,8.421875 C8.71875,8.421875 9.390625,8.5 9.890625,8.90625 C10.21875,9.21875 10.515625,9.71875 10.75,10.578125 L12.953125,10.578125 C13.296875,10.578125 13.515625,10.703125 13.5625,10.96875 C13.015625,11.5625 12.125,12.28125 12.125,12.28125 L11.328125,11.296875 L10.921875,11.296875 C11.015625,11.8125 11.09375,12.390625 11.15625,13.078125 L13.46875,13.078125 C13.75,13.078125 13.984375,13.203125 14.046875,13.46875 C13.484375,14.015625 12.59375,14.71875 12.59375,14.71875 L11.828125,13.78125 L11.234375,13.78125 L11.328125,15.359375 C11.78125,15.4375 12.09375,15.53125 12.21875,15.71875 L10.609375,17.015625 L9.890625,16.203125 L5.1875,16.203125 L3.671875,16.890625 C3.546875,16.078125 3.34375,14.953125 3.125,13.78125 Z M7.96875,15.5 L10.109375,15.5 L9.984375,13.78125 L7.734375,13.78125 Z M4.3125,13.078125 L6.4375,13.078125 L6.125,11.296875 L3.953125,11.296875 Z M7.609375,13.078125 L9.90625,13.078125 C9.8125,12.359375 9.71875,11.765625 9.625,11.296875 L7.3125,11.296875 Z M14.6875,8.1875 C13.4375,7.015625 11.09375,5.296875 9.09375,4.0625 C5.90625,4.03125 3.265625,4.03125 1.578125,4.0625 L2.609375,2.25 C2.828125,2.28125 3.078125,2.453125 3.21875,2.71875 L11.109375,3.09375 L11.109375,-1.875 L11.359375,-1.875 C12.140625,-1.875 12.671875,-1.53125 12.671875,-1.4375 L12.671875,3.1875 C15.390625,3.34375 17.640625,3.484375 19.515625,3.59375 C20.09375,3.140625 20.59375,2.6875 20.90625,2.234375 C22.625,1.609375 22.78125,5.046875 16.3125,5.953125 L16.109375,5.65625 C16.921875,5.296875 17.875,4.78125 18.75,4.171875 L10.34375,4.0625 C12.3125,4.984375 14.328125,6.125 15.53125,6.984375 C16.0625,6.8125 16.25,6.859375 16.4375,7.078125 Z M10.109375,9.03125 C9.578125,8.375 8.765625,7.484375 7.96875,6.75 C7.203125,7.15625 6.03125,7.46875 4.34375,7.484375 L4.15625,7.203125 C5.5625,6.703125 7.484375,5.59375 8.328125,4.625 C9.34375,4.375 9.75,5.453125 8.5625,6.359375 C9.53125,6.84375 10.53125,7.390625 11.140625,7.828125 C11.515625,7.703125 11.78125,7.734375 11.921875,7.9375 Z M4.203125,20.203125 C3.53125,18.34375 2.40625,16.703125 1.34375,15.71875 L1.65625,15.40625 C2.515625,15.90625 3.40625,16.625 4.203125,17.546875 L12.34375,17.546875 C12.671875,17.546875 12.890625,17.65625 12.9375,17.921875 C12.28125,18.578125 11.203125,19.4375 11.203125,19.4375 L10.265625,18.265625 L4.78125,18.265625 L5.328125,19.078125 C5.875,19.0625 6.125,19.265625 6.21875,19.515625 Z" transform="translate(-0.0859375, 20.203125) scale(1, -1)"/>
</svg>