<svg height="21.984375" viewBox="0 0 24 21.984375" width="24" xmlns="http://www.w3.org/2000/svg">
<path d="M12.265625,9.984375 L11.96875,9.84375 C12.484375,9.03125 13.078125,7.734375 13.125,6.75 C14.203125,5.71875 15.484375,8.0625 12.265625,9.984375 Z M9.703125,10.703125 L9.703125,6.796875 C9.703125,4.109375 9.453125,0.796875 7.78125,-1.5625 L8.140625,-1.84375 C10.625,0.4375 11.046875,4.03125 11.0625,6.75 L11.0625,9.859375 C11.640625,9.953125 11.828125,10.171875 11.875,10.484375 Z M6.953125,6.578125 L6.625,6.453125 C7.15625,5.40625 7.65625,3.71875 7.625,2.40625 C8.921875,1.109375 10.484375,3.953125 6.953125,6.578125 Z M2.15625,6.453125 C1.921875,4.265625 1.421875,1.9375 0.8125,0.3125 L1.203125,0.09375 C2.1875,1.484375 2.953125,3.5 3.453125,5.421875 C3.9375,5.453125 4.203125,5.640625 4.265625,5.921875 Z M18.09375,10.0625 C17.875,9.21875 17.328125,7.609375 16.890625,6.578125 L17.1875,6.453125 C17.953125,7.25 18.75,8.234375 19.171875,8.859375 C19.65625,8.78125 19.921875,9.03125 19.984375,9.1875 Z M11.234375,5.71875 L11.421875,5.015625 L14.15625,5.015625 C13.375,2.953125 12.125,1.03125 10.421875,-0.453125 L10.6875,-0.84375 C12.5,0.34375 13.921875,1.75 14.953125,3.453125 L14.953125,-1.703125 L15.21875,-1.703125 C15.75,-1.703125 16.34375,-1.34375 16.34375,-1.125 L16.34375,3.765625 C17.25,2.828125 18.34375,1.46875 18.671875,0.4375 C20.09375,-0.546875 21.140625,2.359375 16.34375,4.25 L16.34375,5.015625 L19.78125,5.015625 C20.09375,5.015625 20.296875,5.140625 20.375,5.40625 C19.78125,5.96875 18.8125,6.765625 18.8125,6.765625 L18,5.71875 L16.34375,5.71875 L16.34375,11.765625 L19.65625,11.765625 L19.65625,10.796875 L19.875,10.796875 C20.328125,10.796875 21.046875,11.140625 21.078125,11.28125 L21.078125,14.546875 L22.875,14.546875 C23.1875,14.546875 23.40625,14.65625 23.46875,14.921875 C22.9375,15.546875 21.953125,16.421875 21.953125,16.421875 L21.171875,15.234375 L21.078125,15.234375 L21.078125,17.0625 C21.453125,17.140625 21.75,17.296875 21.890625,17.453125 L20.203125,18.75 L19.46875,17.953125 L16.34375,17.953125 L16.34375,19.203125 C16.890625,19.265625 17.0625,19.515625 17.109375,19.828125 L14.953125,20.046875 L14.953125,17.953125 L10.015625,17.953125 L10.21875,17.234375 L14.953125,17.234375 L14.953125,15.234375 L8.71875,15.234375 L8.875,14.546875 L14.953125,14.546875 L14.953125,12.453125 L9.8125,12.453125 L10.03125,11.765625 L14.953125,11.765625 L14.953125,5.71875 Z M19.65625,12.453125 L16.34375,12.453125 L16.34375,14.546875 L19.65625,14.546875 Z M19.65625,15.234375 L16.34375,15.234375 L16.34375,17.234375 L19.65625,17.234375 Z M20.375,10.578125 L20.375,-1.875 L20.640625,-1.875 C21.1875,-1.875 21.765625,-1.53125 21.765625,-1.34375 L21.765625,9.671875 C22.375,9.75 22.578125,9.984375 22.65625,10.3125 Z M6.578125,11.859375 L6.265625,11.734375 C6.59375,11.203125 6.953125,10.515625 7.21875,9.796875 L3.578125,9.640625 C5.28125,11.71875 7.171875,14.296875 8.296875,16.171875 C8.828125,16.109375 9.125,16.296875 9.234375,16.53125 L6.984375,17.453125 C5.953125,15.171875 4.296875,11.96875 2.875,9.625 L0.859375,9.59375 L1.53125,7.78125 C1.78125,7.796875 1.984375,7.9375 2.140625,8.25 L4.375,8.65625 L4.375,-1.890625 L4.578125,-1.890625 C5.328125,-1.890625 5.859375,-1.515625 5.859375,-1.390625 L5.859375,8.953125 L7.4375,9.265625 C7.609375,8.734375 7.734375,8.203125 7.75,7.75 C9.078125,6.53125 10.5625,9.453125 6.578125,11.859375 Z M1.109375,16.21875 L0.859375,16.03125 C1.6875,15.3125 2.609375,14.0625 2.828125,13.0625 C3.9375,12.265625 4.890625,13.890625 3.1875,15.234375 C4.0625,16.25 5.015625,17.5625 5.8125,18.796875 C6.28125,18.75 6.578125,18.953125 6.671875,19.21875 L4.3125,20.09375 C3.84375,18.546875 3.21875,16.84375 2.6875,15.578125 C2.25,15.8125 1.75,16.03125 1.109375,16.21875 Z" transform="translate(-0.140625, 20.09375) scale(1, -1)"/>
</svg>