<svg height="22.25" viewBox="0 0 24 22.25" width="24" xmlns="http://www.w3.org/2000/svg">
<path d="M6.984375,2.296875 C5.6875,1.15625 3.171875,-0.359375 1.03125,-1.203125 L1.265625,-1.5625 C3.671875,-0.984375 6.390625,0.078125 7.828125,1.015625 C8.328125,0.84375 8.546875,0.890625 8.734375,1.109375 Z M15.21875,2.203125 L15.125,1.796875 C17.953125,0.890625 20.140625,-0.578125 21.078125,-1.53125 C22.734375,-2.109375 23.109375,1.375 15.21875,2.203125 Z M4.125,7.375 L3.953125,7.078125 C5.375,6.546875 7.25,5.46875 8.09375,4.515625 C9.09375,4.21875 9.484375,5.28125 8.359375,6.1875 C9.3125,6.75 10.34375,7.34375 10.9375,7.78125 C11.328125,7.65625 11.59375,7.6875 11.734375,7.890625 L10.78125,8.46875 C10.984375,8.546875 11.140625,8.65625 11.140625,8.734375 L11.140625,10.21875 C11.71875,10.296875 11.953125,10.484375 12,10.828125 L9.71875,11.046875 L9.71875,9.34375 L7.390625,9.34375 L7.390625,11.296875 L12.359375,11.296875 C12.671875,11.296875 12.90625,11.421875 12.953125,11.6875 C12.265625,12.28125 11.203125,13.078125 11.203125,13.078125 L10.265625,12 L7.390625,12 L7.390625,13.125 L9.796875,13.125 L9.796875,12.640625 L9.984375,12.640625 C10.4375,12.640625 11.15625,12.953125 11.1875,13.125 L11.1875,16.171875 C11.46875,16.25 11.765625,16.390625 11.859375,16.53125 L10.3125,17.6875 L9.625,16.9375 L7.390625,16.9375 L7.390625,17.78125 L11.71875,17.78125 C12.03125,17.78125 12.234375,17.90625 12.3125,18.171875 C11.65625,18.796875 10.578125,19.65625 10.578125,19.65625 L9.703125,18.484375 L7.390625,18.484375 L7.390625,19.296875 C7.890625,19.375 8.09375,19.578125 8.140625,19.921875 L5.921875,20.140625 L5.921875,18.484375 L1.25,18.484375 L1.4375,17.78125 L5.921875,17.78125 L5.921875,16.9375 L3.703125,16.9375 L2.234375,17.609375 L2.234375,12.4375 L2.421875,12.4375 C2.953125,12.4375 3.578125,12.75 3.578125,12.859375 L3.578125,13.125 L5.921875,13.125 L5.921875,12 L1.03125,12 L1.21875,11.296875 L5.921875,11.296875 L5.921875,9.34375 L3.578125,9.34375 L3.578125,10.21875 C4.171875,10.296875 4.390625,10.484375 4.4375,10.828125 L2.1875,11.046875 L2.1875,7.703125 L2.453125,7.703125 C2.96875,7.703125 3.578125,8.015625 3.578125,8.15625 L3.578125,8.640625 L9.671875,8.640625 C9.140625,8.015625 8.421875,7.25 7.78125,6.59375 C6.984375,7.015625 5.8125,7.3125 4.125,7.375 Z M3.578125,14.71875 L5.921875,14.71875 L5.921875,13.828125 L3.578125,13.828125 Z M3.578125,15.390625 L3.578125,16.25 L5.921875,16.25 L5.921875,15.390625 Z M9.796875,16.25 L9.796875,15.390625 L7.390625,15.390625 L7.390625,16.25 Z M9.796875,14.71875 L9.796875,13.828125 L7.390625,13.828125 L7.390625,14.71875 Z M13.96875,19.109375 L13.96875,18.28125 C13.96875,17.015625 13.734375,15.625 11.859375,14.40625 L12.09375,14.046875 C15.046875,15.171875 15.359375,17.046875 15.359375,18.28125 L15.359375,18.390625 L18.046875,18.390625 L18.046875,16.375 C18.046875,15.5 18.1875,15.171875 19.375,15.171875 L20.421875,15.171875 C22.265625,15.171875 22.796875,15.34375 22.796875,15.90625 C22.796875,16.171875 22.703125,16.3125 22.265625,16.46875 L22.203125,17.90625 L21.90625,17.90625 C21.765625,17.25 21.578125,16.65625 21.4375,16.46875 C21.390625,16.3125 21.3125,16.3125 21.171875,16.3125 C21.078125,16.296875 20.8125,16.3125 20.515625,16.3125 L19.796875,16.3125 C19.484375,16.3125 19.4375,16.34375 19.4375,16.5625 L19.4375,18.21875 C19.796875,18.265625 20.046875,18.359375 20.1875,18.5 L18.625,19.921875 L17.828125,19.109375 L15.625,19.109375 L13.96875,19.875 Z M12.625,14.015625 L12.84375,13.3125 L13.984375,13.3125 C14.515625,12.140625 15.21875,11.140625 16.109375,10.296875 C14.859375,9.453125 13.390625,8.78125 11.78125,8.28125 L12,7.890625 C13.84375,8.296875 15.484375,8.875 16.84375,9.640625 C18.171875,8.59375 19.84375,7.84375 21.8125,7.296875 C21.953125,7.9375 22.375,8.359375 22.9375,8.453125 L22.96875,8.71875 C21.078125,9.03125 19.34375,9.546875 17.921875,10.3125 C19.109375,11.109375 20.046875,12.09375 20.765625,13.203125 C21.3125,13.21875 21.578125,13.296875 21.75,13.484375 L20.1875,14.875 L19.25,14.015625 Z M14.59375,13.3125 L19.109375,13.3125 C18.546875,12.4375 17.8125,11.609375 16.921875,10.921875 C15.953125,11.5625 15.171875,12.359375 14.59375,13.3125 Z M14.59375,8.1875 C13.34375,6.984375 11.015625,5.25 9.046875,4.03125 C5.859375,4.015625 3.234375,4.015625 1.578125,4.03125 L2.5625,2.203125 C2.765625,2.234375 3.03125,2.40625 3.171875,2.6875 L11.109375,3.046875 L11.109375,-1.84375 L11.359375,-1.84375 C12.140625,-1.84375 12.671875,-1.53125 12.671875,-1.4375 L12.671875,3.140625 C15.5,3.28125 17.875,3.4375 19.875,3.59375 C20.375,3.125 20.8125,2.65625 21.078125,2.203125 C22.828125,1.515625 23.109375,4.984375 16.78125,6.09375 L16.5625,5.828125 C17.40625,5.421875 18.359375,4.796875 19.21875,4.125 L10.296875,4.03125 C12.234375,4.96875 14.28125,6.09375 15.484375,6.953125 C16.015625,6.796875 16.203125,6.859375 16.390625,7.078125 Z" transform="translate(-0.0703125, 20.140625) scale(1, -1)"/>
</svg>