<svg height="22.015625" viewBox="0 0 24 22.015625" width="24" xmlns="http://www.w3.org/2000/svg">
<path d="M7.15625,6.546875 L6.8125,6.4375 C7.265625,5.359375 7.828125,3.625 7.828125,2.359375 C9,1.125 10.4375,3.796875 7.15625,6.546875 Z M2.375,6.484375 C2.109375,4.21875 1.515625,1.875 0.8125,0.265625 L1.203125,0.046875 C2.25,1.390625 3.09375,3.453125 3.671875,5.46875 C4.203125,5.5 4.421875,5.6875 4.484375,6 Z M20.5625,18.125 L20.5625,15.09375 L18.03125,15.09375 L18.03125,18.125 Z M12.90625,12.953125 C12.53125,12.640625 11.859375,12.1875 11.203125,11.8125 L9.53125,12.359375 L9.53125,1.609375 L9.71875,1.609375 C10.484375,1.609375 10.890625,2.046875 10.921875,2.1875 L10.921875,3.484375 L13.484375,3.484375 L13.484375,0.40625 C13.484375,-0.9375 14.046875,-1.421875 15.984375,-1.421875 L18.59375,-1.421875 C22.484375,-1.421875 23.328125,-1.203125 23.328125,-0.5 C23.328125,-0.1875 23.15625,-0.03125 22.625,0.140625 L22.53125,2.546875 L22.21875,2.546875 C22.015625,1.484375 21.71875,0.4375 21.546875,0.1875 C21.40625,0.046875 21.28125,-0.03125 21.03125,-0.046875 C20.65625,-0.078125 19.796875,-0.09375 18.625,-0.09375 L16.171875,-0.09375 C15.078125,-0.09375 14.90625,0.140625 14.90625,0.765625 L14.90625,18.125 L16.625,18.125 L16.625,0.59375 L16.828125,0.59375 C17.546875,0.59375 18.03125,0.953125 18.03125,1.0625 L18.03125,3.484375 L20.65625,3.484375 L20.65625,2.25 L20.875,2.25 C21.359375,2.25 22.0625,2.59375 22.078125,2.734375 L22.078125,11.09375 C22.4375,11.140625 22.75,11.296875 22.875,11.46875 L21.234375,12.71875 L20.46875,11.921875 L18.03125,11.921875 L18.03125,14.421875 L20.5625,14.421875 L20.5625,13.5625 L20.78125,13.5625 C21.265625,13.5625 21.953125,13.890625 21.984375,14.0625 L21.984375,17.921875 C22.390625,18 22.734375,18.1875 22.875,18.34375 L21.140625,19.625 L20.359375,18.8125 L11.15625,18.8125 L9.671875,19.515625 L9.671875,13.296875 L9.890625,13.296875 C10.4375,13.296875 11.046875,13.609375 11.046875,13.734375 L11.046875,14.421875 L13.484375,14.421875 L13.484375,12.5 Z M11.046875,15.125 L11.046875,18.125 L13.484375,18.125 L13.484375,15.125 Z M20.65625,11.203125 L20.65625,8.109375 L18.03125,8.109375 L18.03125,11.203125 Z M20.65625,7.390625 L20.65625,4.171875 L18.03125,4.171875 L18.03125,7.390625 Z M10.921875,7.390625 L13.484375,7.390625 L13.484375,4.171875 L10.921875,4.171875 Z M10.921875,8.109375 L10.921875,11.015625 C11.8125,11.140625 12.84375,11.40625 13.484375,11.5625 L13.484375,8.109375 Z M1.125,16.296875 L0.890625,16.109375 C1.78125,15.34375 2.78125,13.984375 3.03125,12.890625 C4.125,12.09375 5.0625,13.703125 3.359375,15.140625 C4.265625,16.203125 5.25,17.5625 6.046875,18.84375 C6.546875,18.8125 6.859375,19.015625 6.953125,19.25 L4.6875,20.140625 C4.125,18.546875 3.453125,16.78125 2.875,15.5 C2.421875,15.796875 1.84375,16.078125 1.125,16.296875 Z M6.8125,11.921875 L6.5,11.8125 C6.8125,11.28125 7.125,10.578125 7.375,9.859375 L3.546875,9.703125 C5.359375,11.78125 7.34375,14.421875 8.546875,16.265625 C9.046875,16.203125 9.359375,16.390625 9.5,16.625 L7.265625,17.546875 C6.140625,15.234375 4.375,12.046875 2.828125,9.671875 L0.953125,9.625 L1.703125,7.796875 C1.921875,7.84375 2.15625,7.96875 2.28125,8.28125 L4.65625,8.734375 L4.65625,-1.875 L4.875,-1.875 C5.609375,-1.875 6.125,-1.515625 6.125,-1.375 L6.125,9.03125 L7.53125,9.34375 C7.6875,8.8125 7.78125,8.28125 7.78125,7.828125 C9.03125,6.59375 10.515625,9.4375 6.8125,11.921875 Z" transform="translate(-0.0703125, 20.140625) scale(1, -1)"/>
</svg>