<svg height="22.328125" viewBox="0 0 24 22.328125" width="24" xmlns="http://www.w3.org/2000/svg">
<path d="M19.65625,18.5 L19.390625,18.34375 C20.140625,17.609375 20.96875,16.390625 21.171875,15.40625 C22.578125,14.328125 23.859375,17.203125 19.65625,18.5 Z M6.53125,6.53125 L6.1875,6.40625 C6.703125,5.25 7.203125,3.453125 7.171875,2.09375 C8.453125,0.765625 9.984375,3.703125 6.53125,6.53125 Z M1.734375,6.4375 C1.609375,4.34375 1.296875,1.984375 0.859375,0.34375 L1.265625,0.171875 C2.0625,1.5625 2.65625,3.625 3.046875,5.46875 C3.578125,5.515625 3.796875,5.734375 3.859375,6.03125 Z M10.4375,19.875 C10.109375,17.90625 9.1875,15.171875 7.828125,13.4375 L8.09375,13.125 C9.125,14.015625 9.984375,15.1875 10.625,16.375 C11.140625,15.90625 11.5625,15.265625 11.6875,14.71875 C12.890625,13.921875 13.828125,16.109375 10.890625,16.890625 C11.234375,17.546875 11.5,18.1875 11.71875,18.765625 C12.265625,18.71875 12.453125,18.859375 12.578125,19.125 Z M14.328125,19.890625 C14.046875,17.90625 13.265625,15.140625 11.875,13.46875 L12.140625,13.15625 C13.171875,14.015625 13.984375,15.140625 14.59375,16.3125 C15.234375,15.703125 15.8125,14.859375 15.9375,14.140625 C17.1875,13.25 18.1875,15.71875 14.859375,16.828125 C15.171875,17.515625 15.4375,18.1875 15.625,18.8125 C16.203125,18.796875 16.375,18.9375 16.484375,19.203125 Z M18.546875,4.296875 C18.125,3.484375 17.609375,2.71875 17.046875,1.984375 L14.90625,1.703125 L14.90625,3.765625 L17.015625,3.765625 C17.328125,3.765625 17.546875,3.890625 17.59375,4.15625 C17.140625,4.65625 16.390625,5.359375 16.390625,5.359375 L15.71875,4.4375 L14.90625,4.4375 L14.90625,6.59375 L16.828125,6.59375 C17.140625,6.59375 17.328125,6.71875 17.40625,6.984375 C16.9375,7.484375 16.203125,8.15625 16.203125,8.15625 L15.546875,7.296875 L14.90625,7.296875 L14.90625,9.34375 L16.984375,9.34375 C17.296875,9.34375 17.515625,9.453125 17.5625,9.71875 C17.109375,10.265625 16.375,10.921875 16.375,10.921875 L15.703125,10.03125 L14.90625,10.03125 L14.90625,12.03125 L17.59375,12.03125 C17.734375,9.140625 18,6.53125 18.546875,4.296875 Z M7.46875,0.765625 L8.375,-1.109375 C8.609375,-1.0625 8.828125,-0.890625 8.953125,-0.59375 C12.171875,0.21875 14.640625,0.859375 16.53125,1.390625 C15.53125,0.265625 14.375,-0.71875 13.015625,-1.53125 L13.25,-1.84375 C15.703125,-0.703125 17.5625,0.984375 18.953125,2.875 C19.375,1.625 19.890625,0.546875 20.546875,-0.390625 C21.1875,-1.34375 22.4375,-2.1875 23.0625,-1.578125 C23.28125,-1.375 23.203125,-0.953125 22.6875,0 L23.09375,3.75 L22.78125,3.796875 C22.53125,2.828125 22.171875,1.734375 21.9375,1.15625 C21.75,0.640625 21.640625,0.625 21.40625,1.0625 C20.78125,1.9375 20.296875,3.046875 19.9375,4.34375 C20.953125,6.046875 21.640625,7.875 22.125,9.640625 C22.796875,9.640625 22.984375,9.796875 23.09375,10.078125 L20.8125,10.625 C20.546875,9.171875 20.109375,7.6875 19.515625,6.234375 C19.203125,7.984375 19.0625,9.953125 18.984375,12.03125 L22.484375,12.03125 C22.828125,12.03125 23.046875,12.125 23.109375,12.390625 C22.390625,13.109375 21.171875,14.09375 21.171875,14.09375 L20.109375,12.71875 L18.953125,12.71875 C18.90625,14.78125 18.9375,16.9375 18.953125,19.078125 C19.578125,19.171875 19.796875,19.4375 19.828125,19.75 L17.46875,20.015625 C17.46875,17.453125 17.46875,15 17.5625,12.71875 L7.375,12.71875 L7.5625,12.03125 L10.84375,12.03125 L10.84375,10.0625 L8.5625,10.0625 L8.78125,9.359375 L10.84375,9.359375 L10.84375,7.296875 L8.875,7.296875 L9.09375,6.59375 L10.84375,6.59375 L10.84375,4.4375 L8.71875,4.4375 L8.90625,3.75 L10.84375,3.75 L10.84375,1.15625 C9.40625,0.953125 8.234375,0.84375 7.46875,0.765625 Z M12.1875,12.03125 L13.53125,12.03125 L13.53125,1.515625 L12.1875,1.3125 Z M6.171875,11.734375 L5.875,11.5625 C6.1875,11.09375 6.546875,10.46875 6.84375,9.8125 L3.484375,9.671875 C4.9375,11.640625 6.53125,14.09375 7.484375,15.84375 C7.984375,15.765625 8.296875,15.953125 8.421875,16.25 L6.265625,17.015625 C5.40625,14.875 4.015625,11.875 2.8125,9.640625 L0.984375,9.625 L1.65625,7.796875 C1.890625,7.84375 2.140625,7.96875 2.25,8.28125 L3.9375,8.609375 L3.9375,-1.890625 L4.171875,-1.890625 C4.921875,-1.890625 5.421875,-1.515625 5.421875,-1.390625 L5.421875,8.921875 L7.03125,9.3125 C7.25,8.765625 7.375,8.234375 7.421875,7.75 C8.71875,6.59375 10.078125,9.40625 6.171875,11.734375 Z M1.109375,16.21875 L0.859375,16.03125 C1.609375,15.3125 2.46875,14.0625 2.609375,13.0625 C3.71875,12.21875 4.734375,13.890625 2.921875,15.28125 C3.75,16.3125 4.609375,17.6875 5.328125,18.90625 C5.828125,18.890625 6.078125,19.078125 6.1875,19.375 L3.953125,20.140625 C3.53125,18.59375 2.921875,16.875 2.453125,15.625 C2.09375,15.84375 1.625,16.0625 1.109375,16.21875 Z" transform="translate(-0.359375, 20.140625) scale(1, -1)"/>
</svg>