<svg height="21.984375" viewBox="0 0 24 21.984375" width="24" xmlns="http://www.w3.org/2000/svg">
<path d="M18.578125,8.046875 L18.578125,1.078125 L12.75,1.078125 L12.75,10.171875 L22.15625,10.171875 C22.484375,10.171875 22.75,10.296875 22.796875,10.53125 C21.90625,11.328125 20.546875,12.390625 20.546875,12.390625 L19.3125,10.875 L12.75,10.875 L12.75,15.84375 L20.515625,15.84375 C20.859375,15.84375 21.078125,15.953125 21.140625,16.21875 C20.296875,16.984375 18.90625,18.046875 18.90625,18.046875 L17.6875,16.5625 L6.90625,16.5625 C7.34375,17.296875 7.78125,18.078125 8.140625,18.890625 C8.65625,18.859375 8.953125,19.078125 9.078125,19.3125 L6.578125,20.1875 C5.5625,16.9375 3.9375,13.78125 2.328125,11.828125 L2.640625,11.59375 C4.015625,12.640625 5.328125,14.109375 6.453125,15.84375 L11.15625,15.84375 L11.15625,10.875 L1.203125,10.875 L1.421875,10.171875 L11.15625,10.171875 L11.15625,1.078125 L5.40625,1.078125 L5.40625,7.15625 C6,7.25 6.21875,7.4375 6.265625,7.78125 L3.84375,8.046875 L3.84375,-1.796875 L4.109375,-1.796875 C4.734375,-1.796875 5.40625,-1.46875 5.40625,-1.265625 L5.40625,0.390625 L18.578125,0.390625 L18.578125,-1.53125 L18.859375,-1.53125 C19.484375,-1.53125 20.140625,-1.203125 20.140625,-1.015625 L20.140625,7.15625 C20.765625,7.25 20.96875,7.4375 21.03125,7.78125 Z" transform="translate(0, 20.1875) scale(1, -1)"/>
</svg>