<svg height="21.953125" viewBox="0 0 24 21.953125" width="24" xmlns="http://www.w3.org/2000/svg">
<path d="M14.71875,20.109375 L14.71875,15.890625 L10.84375,15.890625 C10.96875,15.9375 11.015625,16.03125 11.046875,16.15625 C10.3125,16.84375 9.09375,17.828125 9.09375,17.828125 L8.046875,16.46875 L4.125,16.46875 C4.46875,17.234375 4.75,18.046875 5.015625,18.890625 C5.515625,18.890625 5.8125,19.125 5.875,19.421875 L3.5,19.984375 C3.046875,17.046875 2.0625,14.1875 0.859375,12.265625 L1.21875,12.046875 C2.234375,13.015625 3.09375,14.28125 3.8125,15.765625 L5.40625,15.765625 L5.40625,11.328125 L0.890625,11.328125 L1.078125,10.609375 L5.40625,10.609375 L5.40625,2.15625 L3.28125,2.15625 L3.28125,7.890625 C3.8125,7.96875 4.015625,8.1875 4.0625,8.46875 L1.921875,8.71875 L1.921875,-1.015625 L2.1875,-1.015625 C2.6875,-1.015625 3.28125,-0.703125 3.28125,-0.53125 L3.28125,1.46875 L8.78125,1.46875 L8.78125,-0.03125 L9.09375,-0.03125 C9.59375,-0.03125 10.203125,0.265625 10.203125,0.40625 L10.203125,7.890625 C10.65625,7.96875 10.828125,8.15625 10.875,8.421875 L8.78125,8.65625 L8.78125,2.15625 L6.890625,2.15625 L6.890625,10.609375 L11.203125,10.609375 C11.546875,10.609375 11.765625,10.734375 11.828125,10.984375 C11.109375,11.71875 9.9375,12.671875 9.9375,12.671875 L8.875,11.328125 L6.890625,11.328125 L6.890625,15.765625 L10.4375,15.765625 C10.578125,15.765625 10.734375,15.796875 10.828125,15.859375 L11.046875,15.171875 L14.71875,15.171875 L14.71875,12.28125 C14.71875,11.359375 14.6875,10.421875 14.59375,9.5 L10.34375,9.5 L10.53125,8.8125 L14.515625,8.8125 C14.0625,4.734375 12.484375,1.078125 8.140625,-1.484375 L8.375,-1.84375 C13.578125,0.546875 15.4375,4.421875 16.015625,8.6875 C16.890625,3.765625 18.59375,0.265625 21.984375,-1.734375 C22.171875,-0.9375 22.6875,-0.453125 23.28125,-0.3125 L23.328125,-0.078125 C19.875,1.3125 17.546875,4.796875 16.484375,8.8125 L22.78125,8.8125 C23.109375,8.8125 23.328125,8.90625 23.375,9.171875 C22.796875,9.890625 21.71875,10.921875 21.71875,10.921875 L20.8125,9.5 L20.59375,9.5 L20.59375,14.90625 C21.078125,15 21.453125,15.1875 21.59375,15.390625 L19.75,16.84375 L18.84375,15.890625 L16.21875,15.890625 L16.21875,19.203125 C16.84375,19.296875 17.015625,19.53125 17.0625,19.875 Z M19.078125,15.171875 L19.078125,9.5 L16.109375,9.5 C16.171875,10.421875 16.21875,11.328125 16.21875,12.265625 L16.21875,15.171875 Z" transform="translate(-0.1171875, 20.109375) scale(1, -1)"/>
</svg>