<svg height="21.984375" viewBox="0 0 24 21.984375" width="24" xmlns="http://www.w3.org/2000/svg">
<path d="M15.890625,7.828125 L15.890625,5.6875 L12.796875,5.6875 L12.796875,7.828125 Z M12.546875,11.140625 C11.734375,8.90625 10.4375,6.859375 9.140625,5.59375 L9.140625,8.09375 C9.671875,8.1875 9.859375,8.40625 9.90625,8.6875 L7.796875,8.921875 L7.796875,1.84375 L6.1875,1.84375 L6.1875,10.78125 L9.640625,10.78125 C9.984375,10.78125 10.203125,10.890625 10.265625,11.15625 C9.546875,11.859375 8.40625,12.765625 8.40625,12.765625 L7.375,11.46875 L6.1875,11.46875 L6.1875,15.765625 L9.1875,15.765625 C9.53125,15.765625 9.765625,15.890625 9.8125,16.15625 C9.09375,16.828125 7.890625,17.8125 7.890625,17.8125 L6.890625,16.46875 L3.75,16.46875 C4.078125,17.296875 4.375,18.1875 4.609375,19.078125 C5.109375,19.078125 5.359375,19.3125 5.453125,19.609375 L3.125,20.140625 C2.71875,17.203125 1.890625,14.28125 0.84375,12.265625 L1.21875,12.046875 C2.09375,13.03125 2.828125,14.328125 3.453125,15.765625 L4.75,15.765625 L4.75,11.46875 L0.90625,11.46875 L1.109375,10.78125 L4.75,10.78125 L4.75,1.84375 L3.09375,1.84375 L3.09375,8.0625 C3.671875,8.140625 3.90625,8.359375 3.9375,8.6875 L1.75,8.921875 L1.75,-1.125 L2.015625,-1.125 C2.515625,-1.125 3.09375,-0.796875 3.09375,-0.640625 L3.09375,1.125 L7.796875,1.125 L7.796875,-0.1875 L8.09375,-0.1875 C8.5625,-0.1875 9.140625,0.09375 9.140625,0.234375 L9.140625,5.28125 L9.28125,5.140625 C10.015625,5.5625 10.734375,6.125 11.40625,6.765625 L11.40625,-1.84375 L11.609375,-1.84375 C12.3125,-1.84375 12.796875,-1.484375 12.796875,-1.34375 L12.796875,-0.75 L22.4375,-0.75 C22.78125,-0.75 22.984375,-0.625 23.0625,-0.359375 C22.3125,0.34375 21.140625,1.265625 21.140625,1.265625 L20.09375,-0.046875 L17.328125,-0.046875 L17.328125,2.203125 L21.578125,2.203125 C21.90625,2.203125 22.125,2.328125 22.203125,2.5625 C21.53125,3.21875 20.453125,4.078125 20.453125,4.078125 L19.515625,2.90625 L17.328125,2.90625 L17.328125,4.984375 L21.546875,4.984375 C21.859375,4.984375 22.078125,5.109375 22.15625,5.375 C21.5,6 20.5,6.84375 20.5,6.84375 L19.578125,5.6875 L17.328125,5.6875 L17.328125,7.828125 L22.03125,7.828125 C22.375,7.828125 22.578125,7.9375 22.65625,8.203125 C21.953125,8.859375 20.875,9.71875 20.875,9.71875 L19.890625,8.546875 L16.84375,8.546875 L17.96875,9.453125 C18.453125,9.40625 18.796875,9.546875 18.90625,9.84375 L17.15625,10.46875 C17.609375,10.515625 18.046875,10.75 18.046875,10.84375 L18.046875,11.359375 L20.296875,11.359375 L20.296875,10.578125 L20.5,10.578125 C20.953125,10.578125 21.640625,10.921875 21.671875,11.0625 L21.671875,14.140625 C22.0625,14.203125 22.390625,14.375 22.53125,14.546875 L20.859375,15.8125 L20.09375,15.03125 L18.171875,15.03125 L16.75,15.640625 L16.75,10.4375 L16.796875,10.4375 C16.578125,9.90625 16.25,9.125 15.953125,8.546875 L13.078125,8.546875 L12.984375,8.59375 C13.265625,8.96875 13.53125,9.40625 13.796875,9.84375 C14.25,9.765625 14.59375,9.953125 14.71875,10.203125 Z M15.890625,4.984375 L15.890625,2.90625 L12.796875,2.90625 L12.796875,4.984375 Z M15.890625,2.203125 L15.890625,-0.046875 L12.796875,-0.046875 L12.796875,2.203125 Z M10.65625,14.96875 L10.65625,10.46875 L10.84375,10.46875 C11.375,10.46875 11.953125,10.75 11.953125,10.875 L11.953125,11.328125 L14.15625,11.328125 L14.15625,10.75 L14.359375,10.75 C14.78125,10.75 15.453125,11.0625 15.484375,11.203125 L15.484375,14.09375 C15.859375,14.15625 16.21875,14.359375 16.375,14.515625 L14.6875,15.75 L13.9375,14.96875 L12.078125,14.96875 L10.65625,15.625 Z M11.953125,12.03125 L11.953125,14.28125 L14.15625,14.28125 L14.15625,12.03125 Z M18.046875,12.046875 L18.046875,14.296875 L20.296875,14.296875 L20.296875,12.046875 Z M17.46875,20.046875 L17.46875,17.828125 L14.453125,17.828125 L14.453125,19.171875 C15.046875,19.265625 15.265625,19.484375 15.3125,19.828125 L13.03125,20.046875 L13.03125,17.828125 L9.40625,17.828125 L9.59375,17.109375 L13.03125,17.109375 L13.03125,15.703125 L13.3125,15.703125 C13.828125,15.703125 14.453125,15.9375 14.453125,16.078125 L14.453125,17.109375 L17.46875,17.109375 L17.46875,15.71875 L17.765625,15.71875 C18.28125,15.71875 18.890625,15.953125 18.890625,16.109375 L18.890625,17.109375 L22.53125,17.109375 C22.875,17.109375 23.09375,17.234375 23.15625,17.5 C22.484375,18.171875 21.40625,19.03125 21.40625,19.03125 L20.46875,17.828125 L18.890625,17.828125 L18.890625,19.171875 C19.484375,19.265625 19.703125,19.484375 19.75,19.796875 Z" transform="translate(0, 20.140625) scale(1, -1)"/>
</svg>