<svg height="24" viewBox="0 0 24 24" width="24" xmlns="http://www.w3.org/2000/svg">
<path d="M5.015625,9.703125 L5.015625,11.203125 L19.4375,11.203125 L19.4375,9.546875 L19.6875,9.546875 C20.1875,9.546875 20.953125,9.90625 20.96875,10.0625 L20.96875,16.9375 C21.484375,17.0625 21.859375,17.234375 22.03125,17.421875 L20.09375,18.90625 L19.203125,17.953125 L5.1875,17.953125 L3.484375,18.71875 L3.484375,9.1875 L3.75,9.1875 C4.375,9.1875 5.015625,9.546875 5.015625,9.703125 Z M14.234375,17.234375 L14.234375,11.90625 L10.46875,11.90625 L10.46875,17.234375 Z M15.71875,17.234375 L19.4375,17.234375 L19.4375,11.90625 L15.71875,11.90625 Z M8.96875,17.234375 L8.96875,11.90625 L5.015625,11.90625 L5.015625,17.234375 Z" transform="translate(-0.7578125, 18.90625) scale(1, -1)"/>
</svg>