<svg height="21.703125" viewBox="0 0 24 21.703125" width="24" xmlns="http://www.w3.org/2000/svg">
<path d="M7.203125,3.140625 L6.90625,3.03125 C7.25,2.09375 7.609375,0.578125 7.515625,-0.59375 C8.6875,-1.921875 10.390625,0.671875 7.203125,3.140625 Z M10.484375,3.359375 L10.25,3.171875 C10.9375,2.359375 11.734375,0.953125 11.8125,-0.140625 C13.15625,-1.296875 14.546875,1.625 10.484375,3.359375 Z M14.296875,3.390625 L14.046875,3.1875 C14.828125,2.5625 15.75,1.46875 15.984375,0.578125 C17.359375,-0.3125 18.390625,2.453125 14.296875,3.390625 Z M4.015625,3.28125 C4.03125,1.796875 3.046875,0.546875 2.09375,0.09375 C1.578125,-0.1875 1.25,-0.640625 1.4375,-1.125 C1.703125,-1.65625 2.5,-1.65625 3.125,-1.296875 C4.109375,-0.75 5.09375,0.8125 4.421875,3.3125 Z M3.03125,18.84375 L3.03125,13.75 L3.234375,13.75 C3.859375,13.75 4.53125,14.09375 4.53125,14.203125 L4.53125,14.71875 L19.4375,14.71875 L19.4375,13.96875 L19.65625,13.96875 C20.15625,13.96875 20.953125,14.296875 20.96875,14.453125 L20.96875,17.828125 C21.4375,17.953125 21.8125,18.140625 21.984375,18.3125 L20.015625,19.78125 L19.203125,18.84375 L4.734375,18.84375 L3.03125,19.609375 Z M4.53125,15.40625 L4.53125,18.140625 L8.421875,18.140625 L8.421875,15.40625 Z M19.4375,15.40625 L15.359375,15.40625 L15.359375,18.140625 L19.4375,18.140625 Z M9.890625,15.40625 L9.890625,18.140625 L13.890625,18.140625 L13.890625,15.40625 Z M5.109375,12.90625 L5.109375,3.28125 L5.375,3.28125 C6.140625,3.28125 6.671875,3.640625 6.671875,3.75 L6.671875,4.15625 L19.78125,4.15625 C19.53125,1.9375 19.109375,0.484375 18.625,0.125 C18.4375,-0.03125 18.21875,-0.078125 17.828125,-0.078125 C17.375,-0.078125 15.90625,0.046875 15.125,0.125 L15.09375,-0.28125 C15.859375,-0.40625 16.65625,-0.578125 16.921875,-0.796875 C17.234375,-1.03125 17.296875,-1.46875 17.296875,-1.875 C18.171875,-1.875 18.953125,-1.65625 19.515625,-1.25 C20.421875,-0.59375 21,1.171875 21.28125,4.015625 C21.75,4.0625 22.03125,4.15625 22.203125,4.3125 L20.46875,5.765625 L19.609375,4.875 L12.75,4.875 L12.75,6.859375 L18.984375,6.859375 C19.3125,6.859375 19.53125,6.984375 19.609375,7.25 C18.890625,7.890625 17.8125,8.71875 17.8125,8.71875 L16.84375,7.5625 L12.75,7.5625 L12.75,9.546875 L18.84375,9.546875 C19.171875,9.546875 19.390625,9.671875 19.46875,9.9375 C18.765625,10.5625 17.6875,11.359375 17.6875,11.359375 L16.75,10.265625 L12.75,10.265625 L12.75,12.21875 L19.578125,12.21875 C19.890625,12.21875 20.109375,12.34375 20.1875,12.59375 C19.46875,13.25 18.28125,14.09375 18.28125,14.09375 L17.296875,12.90625 L6.953125,12.90625 L5.109375,13.734375 Z M6.671875,4.875 L6.671875,6.859375 L11.203125,6.859375 L11.203125,4.875 Z M6.671875,12.21875 L11.203125,12.21875 L11.203125,10.265625 L6.671875,10.265625 Z M6.671875,9.546875 L11.203125,9.546875 L11.203125,7.5625 L6.671875,7.5625 Z" transform="translate(0.2734375, 19.78125) scale(1, -1)"/>
</svg>