<svg height="21.671875" viewBox="0 0 24 21.671875" width="24" xmlns="http://www.w3.org/2000/svg">
<path d="M9.71875,14.453125 L9.71875,12.265625 L3.53125,12.265625 L3.71875,11.5625 L9.71875,11.5625 L9.71875,9.078125 L1.3125,9.078125 L1.53125,8.375 L12.3125,8.375 C11.09375,7.609375 9.765625,6.890625 8.421875,6.1875 L6.984375,6.84375 L6.984375,5.46875 C4.984375,4.53125 2.953125,3.703125 0.9375,3 L1.125,2.59375 C3.09375,3.125 5.09375,3.796875 6.984375,4.53125 L6.984375,-1.875 L7.21875,-1.875 C7.890625,-1.875 8.5625,-1.515625 8.5625,-1.34375 L8.5625,-0.578125 L17.734375,-0.578125 L17.734375,-1.6875 L17.96875,-1.6875 C18.5,-1.6875 19.3125,-1.34375 19.34375,-1.203125 L19.34375,5.0625 C19.828125,5.1875 20.1875,5.375 20.359375,5.5625 L18.390625,7.0625 L17.5,6.078125 L10.46875,6.078125 C11.96875,6.796875 13.421875,7.578125 14.734375,8.375 L22.25,8.375 C22.578125,8.375 22.84375,8.5 22.890625,8.734375 C22.125,9.453125 20.875,10.390625 20.875,10.390625 L19.78125,9.078125 L15.84375,9.078125 C17.59375,10.21875 19.109375,11.40625 20.28125,12.546875 C20.828125,12.34375 21.09375,12.390625 21.28125,12.640625 L19.53125,13.828125 C19.9375,13.921875 20.359375,14.140625 20.375,14.234375 L20.375,17.859375 C20.828125,17.96875 21.234375,18.171875 21.40625,18.34375 L19.4375,19.796875 L18.578125,18.859375 L5.046875,18.859375 L3.34375,19.625 L3.34375,13.46875 L3.578125,13.46875 C4.171875,13.46875 4.875,13.828125 4.875,13.9375 L4.875,14.6875 L18.8125,14.6875 L18.8125,13.75 L19.0625,13.75 L19.25,13.78125 C17.765625,12.1875 15.75,10.578125 13.421875,9.078125 L11.25,9.078125 L11.25,11.5625 L16.265625,11.5625 C16.609375,11.5625 16.796875,11.6875 16.875,11.921875 C16.125,12.625 14.921875,13.515625 14.921875,13.515625 L13.890625,12.265625 L11.25,12.265625 L11.25,13.578125 C11.78125,13.6875 12,13.890625 12.046875,14.203125 Z M4.875,15.359375 L4.875,18.171875 L8.421875,18.171875 L8.421875,15.359375 Z M18.8125,15.359375 L15.125,15.359375 L15.125,18.171875 L18.8125,18.171875 Z M9.890625,15.359375 L9.890625,18.171875 L13.625,18.171875 L13.625,15.359375 Z M17.734375,5.375 L17.734375,3.140625 L8.5625,3.140625 L8.5625,5.203125 L8.953125,5.375 Z M8.5625,2.46875 L17.734375,2.46875 L17.734375,0.125 L8.5625,0.125 Z" transform="translate(0.0859375, 19.796875) scale(1, -1)"/>
</svg>