<svg height="21.4375" viewBox="0 0 24 21.4375" width="24" xmlns="http://www.w3.org/2000/svg">
<path d="M6.5,9.1875 L6.265625,8.96875 C7.0625,8.5 7.9375,7.53125 8.25,6.765625 L8.5,6.671875 L2.40625,6.671875 L2.59375,5.96875 L11.140625,5.96875 L11.140625,4.21875 L3.53125,4.21875 L3.71875,3.53125 L11.140625,3.53125 L11.140625,1.75 L1.296875,1.75 L1.515625,1.0625 L11.140625,1.0625 L11.140625,-1.78125 L11.40625,-1.78125 C12.21875,-1.78125 12.75,-1.4375 12.75,-1.3125 L12.75,1.0625 L22.25,1.0625 C22.5625,1.0625 22.828125,1.171875 22.875,1.4375 C22.078125,2.15625 20.828125,3.09375 20.828125,3.09375 L19.703125,1.75 L12.75,1.75 L12.75,3.53125 L20.09375,3.53125 C20.421875,3.53125 20.65625,3.640625 20.71875,3.90625 C19.96875,4.578125 18.796875,5.46875 18.796875,5.46875 L17.78125,4.21875 L12.75,4.21875 L12.75,5.96875 L21.078125,5.96875 C21.40625,5.96875 21.625,6.09375 21.703125,6.359375 C20.921875,7.0625 19.734375,7.9375 19.734375,7.9375 L18.671875,6.671875 L14.78125,6.671875 C15.53125,7.15625 16.265625,7.703125 16.734375,8.0625 C17.15625,7.984375 17.46875,8.1875 17.546875,8.375 L16.015625,9.140625 L18.265625,9.140625 L18.265625,8.46875 L18.5,8.46875 C19.015625,8.46875 19.796875,8.828125 19.828125,9 L19.828125,11.453125 C20.25,11.546875 20.640625,11.734375 20.78125,11.90625 L18.859375,13.3125 L18.03125,12.40625 L9.09375,12.40625 L8.375,12.71875 C8.765625,13.078125 9.125,13.4375 9.4375,13.828125 L16.9375,13.828125 L16.9375,13.109375 L17.1875,13.109375 C17.71875,13.109375 18.453125,13.46875 18.484375,13.625 L18.484375,15.9375 L22.296875,15.9375 C22.609375,15.9375 22.84375,16.0625 22.921875,16.3125 C22.15625,17.015625 20.921875,17.953125 20.921875,17.953125 L19.828125,16.65625 L18.484375,16.65625 L18.484375,17.78125 C18.9375,17.875 19.3125,18.078125 19.46875,18.265625 L17.5625,19.65625 L16.734375,18.75 L4.015625,18.75 L4.21875,18.046875 L10.015625,18.046875 C9.859375,17.5625 9.671875,17.109375 9.484375,16.65625 L1.265625,16.65625 L1.484375,15.9375 L9.140625,15.9375 C8.875,15.453125 8.59375,14.96875 8.25,14.515625 L3.8125,14.515625 L4.03125,13.828125 L7.734375,13.828125 C6.171875,11.90625 3.953125,10.375 1.109375,9.171875 L1.265625,8.8125 C3.71875,9.578125 5.765625,10.609375 7.421875,11.875 L7.421875,9.046875 C7.15625,9.125 6.84375,9.171875 6.5,9.1875 Z M11.140625,6.671875 L9.03125,6.671875 C9.640625,6.90625 9.796875,7.96875 8.515625,8.65625 C8.765625,8.765625 8.921875,8.875 8.921875,8.953125 L8.921875,9.140625 L15.390625,9.140625 C15.078125,8.453125 14.546875,7.421875 14.09375,6.671875 Z M10.890625,15.9375 L16.9375,15.9375 L16.9375,14.515625 L9.984375,14.515625 C10.3125,14.96875 10.609375,15.4375 10.890625,15.9375 Z M11.25,16.65625 C11.46875,17.109375 11.65625,17.5625 11.828125,18.046875 L16.9375,18.046875 L16.9375,16.65625 Z M18.265625,11.71875 L18.265625,9.859375 L8.921875,9.859375 L8.921875,11.71875 Z" transform="translate(-0.015625, 19.65625) scale(1, -1)"/>
</svg>