<svg height="22.03125" viewBox="0 0 24 22.03125" width="24" xmlns="http://www.w3.org/2000/svg">
<path d="M13.6875,19.96875 L13.421875,19.84375 C14.109375,18.84375 14.90625,17.1875 14.875,15.90625 C16.265625,14.5625 17.875,17.71875 13.6875,19.96875 Z M9.265625,17.765625 L9.265625,14.59375 L6.34375,14.59375 C6.4375,15.671875 6.484375,16.734375 6.5,17.765625 Z M19.484375,20.09375 C19.0625,18.59375 18.359375,16.484375 17.734375,14.96875 L12.90625,14.96875 L12.984375,14.734375 C12.40625,15.3125 11.78125,15.859375 11.78125,15.859375 L10.84375,14.59375 L10.78125,14.59375 L10.78125,17.46875 C11.25,17.5625 11.640625,17.765625 11.8125,17.953125 L9.890625,19.421875 L9.03125,18.453125 L1.796875,18.453125 L2.015625,17.765625 L4.96875,17.765625 C4.9375,16.75 4.921875,15.703125 4.84375,14.59375 L0.9375,14.59375 L1.125,13.875 L4.78125,13.875 C4.703125,12.84375 4.5625,11.765625 4.375,10.703125 L1.515625,10.703125 L1.734375,10.03125 L4.21875,10.03125 C3.671875,7.4375 2.65625,4.875 0.8125,2.5625 L1.171875,2.203125 C2.234375,3.234375 3.078125,4.34375 3.75,5.5 L3.75,-1.75 L3.984375,-1.75 C4.734375,-1.75 5.203125,-1.375 5.203125,-1.21875 L5.203125,0.125 L9.578125,0.125 L9.578125,-1.421875 L9.8125,-1.421875 C10.3125,-1.421875 11.09375,-1.03125 11.109375,-0.890625 L11.109375,6.125 C11.59375,6.21875 11.953125,6.40625 12.125,6.59375 L10.203125,8.046875 L9.34375,7.109375 L5.5,7.109375 L4.703125,7.4375 C5.0625,8.28125 5.359375,9.171875 5.5625,10.03125 L9.265625,10.03125 L9.265625,9 L9.484375,9 C9.984375,9 10.75,9.390625 10.78125,9.53125 L10.78125,13.875 L12.84375,13.875 C13.15625,13.875 13.375,13.984375 13.4375,14.25 L16.5625,14.25 L16.5625,10.109375 L12.75,10.109375 L12.9375,9.390625 L16.5625,9.390625 L16.5625,4.65625 L12.09375,4.65625 L12.28125,3.953125 L16.5625,3.953125 L16.5625,-1.9375 L16.828125,-1.9375 C17.609375,-1.9375 18.140625,-1.5625 18.140625,-1.421875 L18.140625,3.953125 L22.6875,3.953125 C23.015625,3.953125 23.234375,4.078125 23.296875,4.34375 C22.5625,5.0625 21.328125,6.046875 21.328125,6.046875 L20.234375,4.65625 L18.140625,4.65625 L18.140625,9.390625 L22.078125,9.390625 C22.421875,9.390625 22.65625,9.5 22.703125,9.765625 C21.953125,10.484375 20.71875,11.46875 20.71875,11.46875 L19.65625,10.109375 L18.140625,10.109375 L18.140625,14.25 L22.46875,14.25 C22.796875,14.25 23.015625,14.375 23.09375,14.640625 C22.3125,15.359375 21.078125,16.34375 21.078125,16.34375 L19.96875,14.96875 L18.359375,14.96875 C19.3125,16.25 20.296875,17.765625 20.953125,18.90625 C21.484375,18.859375 21.765625,19.078125 21.859375,19.34375 Z M9.265625,10.703125 L5.734375,10.703125 C5.96875,11.765625 6.140625,12.8125 6.265625,13.875 L9.265625,13.875 Z M9.578125,6.40625 L9.578125,0.84375 L5.203125,0.84375 L5.203125,6.40625 Z" transform="translate(-0.0546875, 20.09375) scale(1, -1)"/>
</svg>