<svg height="22.109375" viewBox="0 0 24 22.109375" width="24" xmlns="http://www.w3.org/2000/svg">
<path d="M7.4375,20.140625 C6.265625,17.921875 3.671875,15.359375 0.859375,13.890625 L1.0625,13.5625 C4.3125,14.6875 7.21875,16.828125 8.734375,18.796875 C9.265625,18.703125 9.484375,18.796875 9.625,19.03125 Z M14.875,20.09375 L14.46875,19.890625 C15.90625,17.1875 18.8125,15.125 21.84375,13.890625 C22.03125,14.65625 22.484375,15.140625 23.140625,15.265625 L23.15625,15.53125 C20.015625,16.265625 16.421875,17.953125 14.875,20.09375 Z M3.265625,7.84375 L3.046875,7.609375 C4.109375,7.015625 5.296875,5.828125 5.640625,4.75 C7.265625,3.796875 8.234375,7.21875 3.265625,7.84375 Z M0.984375,1.625 L2.453125,-0.046875 C2.65625,0.03125 2.78125,0.234375 2.828125,0.546875 C5.46875,1.9375 7.3125,3.078125 8.609375,3.859375 L8.46875,4.21875 C5.421875,3.078125 2.375,2.015625 0.984375,1.625 Z M13.46875,7.84375 L13.25,7.578125 C14.421875,7.015625 15.796875,5.8125 16.21875,4.6875 C17.953125,3.765625 18.765625,7.34375 13.46875,7.84375 Z M11.421875,1.6875 L12.859375,-0.03125 C13.078125,0.078125 13.21875,0.265625 13.265625,0.578125 C16.125,2.046875 18.171875,3.234375 19.578125,4.078125 L19.4375,4.390625 C16.15625,3.21875 12.859375,2.0625 11.421875,1.6875 Z M10.125,17.59375 C9.671875,16.25 8.875,14.359375 8.109375,13.015625 C6.171875,12.9375 4.53125,12.90625 3.453125,12.90625 L4.703125,10.921875 C4.921875,10.984375 5.140625,11.140625 5.28125,11.421875 C10.484375,11.96875 14.203125,12.40625 16.796875,12.796875 C17.359375,12.21875 17.78125,11.609375 18.03125,11.0625 C19.828125,10.171875 20.40625,13.96875 14.09375,15.390625 L13.875,15.171875 C14.640625,14.6875 15.53125,14.046875 16.296875,13.296875 L8.953125,13.03125 C9.953125,14.15625 10.984375,15.578125 11.71875,16.6875 C12.28125,16.65625 12.453125,16.78125 12.546875,17.046875 Z M1.421875,9.453125 L1.625,8.765625 L9,8.765625 L9,0.359375 C9,0.046875 8.90625,-0.09375 8.5,-0.09375 C8.046875,-0.09375 6,0.046875 6,0.046875 L6,-0.34375 C6.9375,-0.4375 7.4375,-0.625 7.78125,-0.859375 C8.046875,-1.109375 8.15625,-1.484375 8.234375,-1.9375 C10.265625,-1.75 10.515625,-0.984375 10.515625,0.21875 L10.515625,8.453125 C10.984375,8.515625 11.40625,8.734375 11.546875,8.90625 L9.546875,10.421875 L8.765625,9.453125 Z M12.078125,9.453125 L12.28125,8.765625 L19.9375,8.765625 L19.9375,0.40625 C19.9375,0.078125 19.84375,-0.078125 19.421875,-0.078125 C18.890625,-0.078125 16.578125,0.09375 16.578125,0.09375 L16.578125,-0.28125 C17.640625,-0.390625 18.1875,-0.59375 18.546875,-0.84375 C18.859375,-1.109375 18.984375,-1.484375 19.0625,-1.96875 C21.234375,-1.734375 21.53125,-0.953125 21.53125,0.265625 L21.53125,8.453125 C21.984375,8.515625 22.390625,8.734375 22.53125,8.90625 L20.515625,10.421875 L19.703125,9.453125 Z" transform="translate(-0.0078125, 20.140625) scale(1, -1)"/>
</svg>