<svg height="22.046875" viewBox="0 0 24 22.046875" width="24" xmlns="http://www.w3.org/2000/svg">
<path d="M2.234375,19.984375 L1.9375,19.84375 C2.609375,18.8125 3.53125,17.15625 3.765625,15.953125 C5.109375,14.78125 6.4375,17.640625 2.234375,19.984375 Z M0.84375,6.21875 L1.78125,4.265625 C2.015625,4.34375 2.203125,4.5625 2.296875,4.84375 L4.96875,5.78125 C4.65625,3.046875 3.75,0.5 1.171875,-1.625 L1.46875,-1.9375 C5.15625,0.1875 6.21875,3.265625 6.484375,6.359375 L10.421875,7.890625 L10.375,8.25 L6.546875,7.390625 L6.578125,8.609375 L6.578125,10.46875 L9.765625,10.46875 C10.109375,10.46875 10.3125,10.578125 10.390625,10.84375 L10.109375,11.109375 C11.40625,11.953125 12.703125,13.203125 13.625,14.65625 L13.9375,14.640625 L13.9375,9.09375 L12.546875,9.671875 C11.640625,6.9375 10.0625,4.609375 8.40625,3.234375 L8.71875,2.921875 C10.6875,4.03125 12.546875,5.90625 13.78125,8.40625 L13.9375,8.375 L13.9375,0.546875 C13.9375,0.125 13.796875,-0.046875 13.265625,-0.046875 C12.71875,-0.046875 9.890625,0.171875 9.890625,0.1875 L9.890625,-0.1875 C11.09375,-0.359375 11.8125,-0.53125 12.1875,-0.765625 C12.578125,-1.015625 12.71875,-1.390625 12.796875,-1.84375 C15.140625,-1.625 15.390625,-0.796875 15.390625,0.390625 L15.390625,17.453125 C15.8125,17.515625 16.171875,17.6875 16.3125,17.875 L14.46875,19.265625 L13.734375,18.359375 L9.640625,18.359375 L9.859375,17.65625 L13.9375,17.65625 L13.9375,15.28125 L12.484375,15.953125 C11.8125,14.1875 10.734375,12.53125 9.71875,11.46875 L8.609375,12.390625 L7.625,11.15625 L6.578125,11.15625 L6.578125,14.640625 L9.9375,14.640625 C10.265625,14.640625 10.484375,14.765625 10.5625,15.03125 C9.859375,15.671875 8.765625,16.53125 8.765625,16.53125 L7.796875,15.3125 L6.640625,15.3125 C7.5625,16.484375 8.546875,17.921875 9.140625,18.953125 C9.671875,18.90625 9.953125,19.109375 10.078125,19.390625 L7.796875,20.109375 C7.375,18.703125 6.640625,16.734375 6.078125,15.3125 L1.109375,15.3125 L1.296875,14.640625 L5.09375,14.640625 L5.09375,11.15625 L1.53125,11.15625 L1.734375,10.46875 L5.09375,10.46875 L5.09375,8.609375 L5.0625,7.0625 C3.234375,6.671875 1.734375,6.359375 0.84375,6.21875 Z M19.171875,9.703125 C18.5,7.171875 17.359375,4.828125 16.078125,3.34375 L16.421875,3.078125 C18.046875,4.265625 19.515625,6.21875 20.515625,8.515625 L20.515625,0.578125 C20.515625,0.140625 20.375,-0.03125 19.875,-0.03125 C19.34375,-0.03125 16.609375,0.1875 16.609375,0.1875 L16.609375,-0.1875 C17.78125,-0.34375 18.453125,-0.53125 18.84375,-0.765625 C19.203125,-1.015625 19.34375,-1.390625 19.421875,-1.84375 C21.71875,-1.625 21.984375,-0.8125 21.984375,0.390625 L21.984375,17.421875 C22.421875,17.5 22.796875,17.65625 22.9375,17.859375 L21.046875,19.296875 L20.296875,18.34375 L16.421875,18.34375 L16.625,17.640625 L20.515625,17.640625 L20.515625,15.40625 L19.21875,15.984375 C18.453125,14.09375 17.328125,12.265625 16.3125,11.1875 L16.65625,10.890625 C18,11.734375 19.375,13.125 20.375,14.71875 L20.515625,14.6875 L20.515625,9.234375 Z" transform="translate(0.109375, 20.109375) scale(1, -1)"/>
</svg>