<svg height="21.359375" viewBox="0 0 24 21.359375" width="24" xmlns="http://www.w3.org/2000/svg">
<path d="M8.203125,15.703125 C6.84375,13.796875 3.953125,11.453125 1.296875,10.0625 L1.515625,9.703125 C4.53125,10.828125 7.53125,12.8125 9.125,14.5 L9.125,11.46875 C9.125,11.15625 9.03125,11.046875 8.65625,11.046875 C8.234375,11.046875 6.4375,11.15625 6.4375,11.15625 L6.4375,10.78125 C7.265625,10.6875 7.75,10.46875 8.046875,10.265625 C8.296875,10.03125 8.421875,9.625 8.46875,9.171875 C10.390625,9.359375 10.625,10.109375 10.625,11.296875 L10.625,17.546875 C11.109375,17.609375 11.515625,17.828125 11.65625,18.03125 L9.671875,19.484375 L8.875,18.53125 L1.6875,18.53125 L1.890625,17.859375 L6.40625,17.859375 C5.328125,16.515625 3.453125,14.96875 1.703125,14.015625 L1.9375,13.65625 C4.15625,14.46875 6.40625,15.859375 7.609375,17.046875 C8.15625,16.890625 8.359375,16.984375 8.515625,17.234375 L7.421875,17.859375 L9.125,17.859375 L9.125,15.171875 Z M18.9375,15.796875 C17.5625,14.0625 14.765625,12 12.1875,10.75 L12.4375,10.4375 C15.28125,11.375 18.265625,13.078125 19.828125,14.546875 L19.890625,14.515625 L19.890625,11.46875 C19.890625,11.15625 19.796875,11.046875 19.46875,11.046875 C19.015625,11.046875 17.109375,11.15625 17.109375,11.15625 L17.109375,10.78125 C18,10.6875 18.453125,10.46875 18.765625,10.265625 C19.0625,10.03125 19.15625,9.625 19.203125,9.140625 C21.171875,9.359375 21.4375,10.109375 21.4375,11.296875 L21.4375,17.546875 C21.890625,17.609375 22.296875,17.828125 22.4375,18 L20.453125,19.484375 L19.65625,18.53125 L12.28125,18.53125 L12.5,17.859375 L17.09375,17.859375 C15.984375,16.578125 13.96875,15.09375 12.1875,14.1875 L12.453125,13.828125 C14.6875,14.5625 17.015625,15.859375 18.28125,16.96875 C18.8125,16.828125 19.015625,16.890625 19.171875,17.140625 L17.953125,17.859375 L19.890625,17.859375 L19.890625,15.1875 Z M17.28125,3.390625 L17.28125,0.140625 L6.890625,0.140625 L6.890625,3.390625 Z M17.28125,4.078125 L6.890625,4.078125 L6.890625,7.171875 L17.28125,7.171875 Z M11.015625,10.21875 C10.84375,9.546875 10.53125,8.59375 10.34375,7.890625 L7.015625,7.890625 L5.328125,8.6875 L5.328125,-1.875 L5.5625,-1.875 C6.21875,-1.875 6.890625,-1.484375 6.890625,-1.34375 L6.890625,-0.578125 L17.28125,-0.578125 L17.28125,-1.828125 L17.515625,-1.828125 C18.046875,-1.828125 18.84375,-1.46875 18.859375,-1.3125 L18.859375,6.953125 C19.265625,7.03125 19.65625,7.21875 19.796875,7.390625 L17.90625,8.828125 L17.0625,7.890625 L11.40625,7.890625 L12.546875,9.171875 C13.0625,9.171875 13.375,9.359375 13.46875,9.671875 Z" transform="translate(0.1328125, 19.484375) scale(1, -1)"/>
</svg>