<svg height="21.53125" viewBox="0 0 24 21.53125" width="24" xmlns="http://www.w3.org/2000/svg">
<path d="M13.65625,18.171875 L13.84375,17.453125 L21.640625,17.453125 C21.984375,17.453125 22.21875,17.5625 22.296875,17.828125 C21.53125,18.578125 20.28125,19.578125 20.28125,19.578125 L19.203125,18.171875 Z M12.765625,12.390625 L12.953125,11.6875 L14.8125,11.6875 C14.78125,5.515625 14.8125,1.390625 10.734375,-1.46875 L11.09375,-1.875 C16.171875,0.890625 16.25,5.109375 16.34375,11.6875 L18.21875,11.6875 L18.21875,0.140625 C18.21875,-0.859375 18.4375,-1.3125 19.734375,-1.3125 L20.828125,-1.3125 C22.875,-1.3125 23.421875,-0.9375 23.421875,-0.34375 C23.421875,0 23.296875,0.21875 22.875,0.390625 L22.796875,3.953125 L22.484375,3.953125 C22.25,2.609375 21.984375,0.890625 21.84375,0.53125 C21.75,0.28125 21.703125,0.265625 21.546875,0.234375 C21.4375,0.234375 21.1875,0.234375 20.828125,0.234375 L20.140625,0.234375 C19.75,0.234375 19.734375,0.34375 19.734375,0.640625 L19.734375,11.6875 L22.53125,11.6875 C22.84375,11.6875 23.09375,11.8125 23.140625,12.078125 C22.375,12.796875 21.140625,13.75 21.140625,13.75 L20.046875,12.390625 Z M9.890625,3.671875 L9.890625,0.890625 L4.078125,0.890625 L4.078125,3.671875 Z M9.890625,4.375 L4.078125,4.375 L4.078125,6.984375 L9.890625,6.984375 Z M9.84375,15.484375 C9.28125,14.28125 8.140625,12.53125 6.90625,11.46875 L7.203125,11.140625 C8.6875,12 10.078125,13.3125 10.796875,14.375 L11.109375,14.328125 L11.109375,11.234375 C11.109375,10.96875 11.046875,10.875 10.78125,10.875 C10.46875,10.875 9.5,10.9375 9.5,10.9375 L9.5,10.578125 C10.0625,10.484375 10.3125,10.34375 10.515625,10.15625 C10.703125,9.953125 10.75,9.59375 10.78125,9.265625 C12.34375,9.4375 12.546875,10.03125 12.546875,11.109375 L12.546875,17.734375 C13.03125,17.8125 13.4375,18.03125 13.578125,18.1875 L11.609375,19.65625 L10.875,18.71875 L7.078125,18.71875 L5.8125,19.65625 L5.0625,18.71875 L1.125,18.71875 L1.34375,18.03125 L3.484375,18.03125 C3,17.046875 2.0625,15.71875 1.078125,14.90625 L1.34375,14.59375 C2.59375,15.171875 3.8125,16.15625 4.484375,16.96875 C4.96875,16.84375 5.1875,16.921875 5.296875,17.140625 L5.296875,14.546875 L4.109375,15.171875 C3.53125,13.890625 2.25,12.125 0.953125,10.984375 L1.25,10.65625 C2.78125,11.5625 4.25,12.9375 5.0625,14.015625 L5.296875,13.96875 L5.296875,11.296875 C5.296875,11.046875 5.234375,10.921875 4.96875,10.921875 C4.65625,10.921875 3.640625,11.015625 3.640625,11.015625 L3.640625,10.609375 C4.203125,10.5625 4.484375,10.421875 4.6875,10.21875 C4.875,10.03125 4.921875,9.703125 4.96875,9.34375 C5.71875,9.40625 6.140625,9.59375 6.390625,9.890625 C6.234375,9.1875 5.96875,8.328125 5.765625,7.6875 L4.203125,7.6875 L2.5625,8.421875 L2.5625,-1.703125 L2.828125,-1.703125 C3.453125,-1.703125 4.078125,-1.34375 4.078125,-1.171875 L4.078125,0.1875 L9.890625,0.1875 L9.890625,-0.859375 L10.109375,-0.859375 C10.609375,-0.859375 11.375,-0.453125 11.40625,-0.3125 L11.40625,6.75 C11.8125,6.8125 12.1875,7.015625 12.3125,7.171875 L10.46875,8.59375 L9.640625,7.6875 L6.59375,7.6875 C7.0625,8.109375 7.484375,8.609375 7.796875,9.03125 C8.328125,9.03125 8.59375,9.234375 8.6875,9.53125 L6.453125,9.984375 C6.671875,10.296875 6.71875,10.703125 6.71875,11.203125 L6.71875,17.734375 C7.03125,17.78125 7.3125,17.90625 7.515625,18.03125 L9.046875,18.03125 C8.65625,17.0625 7.75,15.765625 6.84375,14.921875 L7.15625,14.59375 C8.296875,15.1875 9.4375,16.203125 10.078125,16.9375 C10.578125,16.828125 10.78125,16.9375 10.9375,17.1875 L9.28125,18.03125 L11.109375,18.03125 L11.109375,14.875 Z M5.296875,18.03125 L5.296875,17.203125 L3.71875,18.03125 Z" transform="translate(-0.1875, 19.65625) scale(1, -1)"/>
</svg>