<svg height="21.59375" viewBox="0 0 24 21.59375" width="24" xmlns="http://www.w3.org/2000/svg">
<path d="M2.046875,18.75 L2.25,18.046875 L5.921875,18.046875 C4.9375,16.984375 3.390625,15.796875 1.9375,15.078125 L2.1875,14.734375 C4.203125,15.265625 6.3125,16.34375 7.4375,17.296875 C7.9375,17.1875 8.15625,17.28125 8.296875,17.5 L7.34375,18.046875 L9.453125,18.046875 L9.453125,15.046875 L7.75,16.015625 C6.625,14.5 4.21875,12.703125 2.015625,11.65625 L2.234375,11.328125 C4.796875,12.03125 7.390625,13.4375 8.78125,14.765625 C9.125,14.65625 9.34375,14.65625 9.453125,14.765625 L9.453125,11.546875 L9.703125,11.546875 C10.203125,11.546875 10.96875,11.90625 10.984375,12.03125 L10.984375,17.78125 C11.453125,17.875 11.828125,18.078125 11.96875,18.265625 L10.078125,19.6875 L9.21875,18.75 Z M12.09375,18.75 L12.3125,18.046875 L16.203125,18.046875 C15.21875,17.046875 13.6875,15.9375 12.234375,15.265625 L12.5,14.953125 C14.5,15.40625 16.578125,16.390625 17.734375,17.296875 C18.234375,17.15625 18.4375,17.25 18.59375,17.46875 L17.609375,18.046875 L19.625,18.046875 L19.625,15.125 L17.828125,16.171875 C16.828125,14.828125 14.65625,13.15625 12.625,12.21875 L12.890625,11.875 C15.1875,12.5 17.609375,13.75 18.90625,14.90625 C19.296875,14.8125 19.515625,14.828125 19.625,14.953125 L19.625,11.546875 L19.875,11.546875 C20.40625,11.546875 21.171875,11.90625 21.1875,12.03125 L21.1875,17.78125 C21.640625,17.859375 22.03125,18.078125 22.203125,18.234375 L20.28125,19.703125 L19.421875,18.75 Z M11.1875,11.8125 L11.1875,10.015625 L2.453125,10.015625 L2.65625,9.3125 L7.25,9.3125 C6.4375,7.484375 4.703125,5.375 2.734375,4.125 L2.953125,3.8125 C4.734375,4.515625 6.34375,5.65625 7.484375,6.859375 C8.359375,6.1875 9.3125,5.234375 9.703125,4.4375 C11.203125,3.640625 12.171875,6.359375 7.875,7.296875 C8.15625,7.625 8.40625,7.96875 8.609375,8.28125 C9.171875,8.203125 9.359375,8.328125 9.5,8.5625 L7.828125,9.3125 L15.578125,9.3125 C14.875,7.734375 13.4375,5.921875 11.71875,4.890625 L11.828125,4.703125 L11.1875,4.78125 L11.1875,3.1875 L0.953125,3.1875 L1.171875,2.5 L11.1875,2.5 L11.1875,-1.890625 L11.46875,-1.890625 C12.046875,-1.890625 12.765625,-1.578125 12.765625,-1.390625 L12.765625,2.5 L22.421875,2.5 C22.75,2.5 22.984375,2.609375 23.0625,2.875 C22.21875,3.625 20.921875,4.609375 20.921875,4.609375 L19.75,3.1875 L12.765625,3.1875 L12.765625,3.984375 C13.21875,4.078125 13.390625,4.265625 13.4375,4.53125 L12.265625,4.65625 C13.5625,5.15625 14.71875,5.90625 15.625,6.75 C16.875,6.03125 18.3125,4.921875 18.984375,4.0625 C20.640625,3.4375 21.078125,6.3125 16.125,7.21875 C16.46875,7.578125 16.75,7.9375 16.984375,8.296875 C17.515625,8.203125 17.734375,8.359375 17.859375,8.59375 L16.171875,9.3125 L20.96875,9.3125 C21.3125,9.3125 21.53125,9.4375 21.59375,9.703125 C20.78125,10.390625 19.53125,11.296875 19.53125,11.296875 L18.40625,10.015625 L12.765625,10.015625 L12.765625,11.0625 C13.15625,11.15625 13.3125,11.328125 13.34375,11.59375 Z" transform="translate(-0.0078125, 19.703125) scale(1, -1)"/>
</svg>