<svg height="21.5625" viewBox="0 0 24 21.5625" width="24" xmlns="http://www.w3.org/2000/svg">
<path d="M1.6875,13.03125 L2.90625,11.453125 C3.125,11.546875 3.265625,11.71875 3.34375,12 C5.765625,13.109375 7.53125,13.96875 8.765625,14.59375 L8.640625,14.96875 C5.8125,14.109375 2.953125,13.3125 1.6875,13.03125 Z M3.703125,17.6875 L3.484375,17.46875 C4.34375,16.890625 5.453125,15.859375 5.875,15.046875 C7.421875,14.25 8.328125,17.15625 3.703125,17.6875 Z M11.734375,13.25 L12.9375,11.59375 C13.15625,11.65625 13.3125,11.828125 13.390625,12.140625 C15.859375,13.171875 17.65625,14.015625 18.890625,14.609375 L18.796875,14.96875 C15.90625,14.203125 13.03125,13.484375 11.734375,13.25 Z M13.84375,17.6875 L13.609375,17.453125 C14.515625,16.921875 15.703125,15.890625 16.125,15.125 C17.65625,14.359375 18.5,17.28125 13.84375,17.6875 Z M11.1875,11.453125 L11.1875,9.671875 L2.453125,9.671875 L2.65625,8.953125 L7.21875,8.953125 C6.40625,7.125 4.6875,5.0625 2.734375,3.84375 L2.953125,3.5 C4.75,4.203125 6.359375,5.375 7.515625,6.59375 C8.359375,5.90625 9.3125,4.9375 9.703125,4.171875 C11.203125,3.359375 12.171875,6.09375 7.890625,7.03125 C8.15625,7.34375 8.421875,7.6875 8.609375,7.984375 C9.171875,7.890625 9.359375,8.015625 9.5,8.25 L7.9375,8.953125 L15.546875,8.953125 C14.828125,7.390625 13.421875,5.609375 11.71875,4.578125 L11.765625,4.515625 L11.1875,4.578125 L11.1875,3.046875 L0.953125,3.046875 L1.171875,2.375 L11.1875,2.375 L11.1875,-1.875 L11.46875,-1.875 C12.046875,-1.875 12.765625,-1.53125 12.765625,-1.375 L12.765625,2.375 L22.421875,2.375 C22.75,2.375 22.984375,2.46875 23.0625,2.734375 C22.21875,3.484375 20.921875,4.46875 20.921875,4.46875 L19.75,3.046875 L12.765625,3.046875 L12.765625,3.8125 C13.21875,3.90625 13.390625,4.078125 13.4375,4.34375 L12.5,4.4375 C13.703125,4.9375 14.78125,5.65625 15.640625,6.453125 C16.890625,5.71875 18.3125,4.65625 18.984375,3.796875 C20.640625,3.171875 21.078125,6.046875 16.15625,6.953125 C16.484375,7.296875 16.78125,7.65625 16.984375,7.984375 C17.515625,7.921875 17.734375,8.046875 17.859375,8.28125 L16.296875,8.953125 L20.96875,8.953125 C21.3125,8.953125 21.53125,9.078125 21.59375,9.34375 C20.78125,10.0625 19.53125,10.96875 19.53125,10.96875 L18.40625,9.671875 L12.765625,9.671875 L12.765625,10.703125 C13.15625,10.796875 13.3125,10.96875 13.34375,11.234375 Z M2.046875,18.75 L2.25,18.046875 L9.53125,18.046875 L9.53125,13.078125 C9.53125,12.765625 9.453125,12.625 9.078125,12.625 C8.59375,12.625 6.75,12.765625 6.75,12.765625 L6.75,12.390625 C7.625,12.28125 8.109375,12.125 8.40625,11.921875 C8.65625,11.71875 8.765625,11.375 8.828125,10.984375 C10.75,11.15625 10.984375,11.859375 10.984375,12.953125 L10.984375,17.765625 C11.5,17.828125 11.90625,18.046875 12.03125,18.234375 L10.078125,19.6875 L9.28125,18.75 Z M12.171875,18.75 L12.390625,18.046875 L19.703125,18.046875 L19.703125,13.078125 C19.703125,12.765625 19.609375,12.625 19.25,12.625 C18.75,12.625 16.828125,12.765625 16.828125,12.765625 L16.828125,12.390625 C17.734375,12.3125 18.234375,12.125 18.53125,11.921875 C18.8125,11.71875 18.90625,11.375 18.953125,10.984375 C20.921875,11.15625 21.1875,11.859375 21.1875,12.953125 L21.1875,17.765625 C21.640625,17.828125 22.0625,18.046875 22.203125,18.234375 L20.234375,19.6875 L19.484375,18.75 Z" transform="translate(-0.0078125, 19.6875) scale(1, -1)"/>
</svg>