<svg height="22" viewBox="0 0 24 22" width="24" xmlns="http://www.w3.org/2000/svg">
<path d="M2.78125,17.109375 L2.46875,16.984375 C2.96875,16.21875 3.578125,15 3.625,14.015625 C4.75,13.015625 6.078125,15.3125 2.78125,17.109375 Z M9.40625,17.515625 C9.171875,16.65625 8.5625,14.953125 8.0625,13.84375 L8.328125,13.6875 C9.171875,14.546875 10.0625,15.59375 10.53125,16.265625 C11.015625,16.203125 11.296875,16.4375 11.359375,16.609375 Z M14.25,10.203125 C13.6875,8.203125 12.40625,5.359375 10.921875,3.390625 L10.921875,6.640625 C11.328125,6.71875 11.6875,6.90625 11.828125,7.078125 L10.109375,8.375 L9.34375,7.53125 L3.859375,7.53125 L2.8125,8.015625 C4.03125,9.03125 5.09375,10.171875 5.921875,11.453125 L5.921875,8.09375 L6.140625,8.09375 C6.84375,8.09375 7.3125,8.453125 7.3125,8.5625 L7.3125,11.734375 C8.453125,10.828125 9.859375,9.5 10.484375,8.59375 C12,7.828125 12.75,10.578125 7.3125,12.265625 L7.3125,12.671875 L11.8125,12.671875 C12.09375,12.671875 12.3125,12.796875 12.390625,13.0625 C11.765625,13.65625 10.75,14.46875 10.75,14.46875 L9.859375,13.390625 L7.3125,13.390625 L7.3125,18 C8.421875,18.171875 9.453125,18.390625 10.265625,18.578125 C10.65625,18.4375 10.984375,18.390625 11.234375,18.484375 L11.40625,17.921875 L15.265625,17.921875 L15.265625,15.84375 L14.234375,16.34375 C13.625,14.765625 12.390625,12.3125 11.09375,10.734375 L11.40625,10.421875 C12.953125,11.6875 14.40625,13.53125 15.265625,14.90625 L15.265625,9.765625 Z M2.375,7.53125 L2.375,-1.890625 L2.59375,-1.890625 C3.171875,-1.890625 3.75,-1.5625 3.75,-1.421875 L3.75,-0.125 L9.546875,-0.125 L9.546875,-1.53125 L9.75,-1.53125 C10.21875,-1.53125 10.890625,-1.171875 10.921875,-1.03125 L10.921875,3.171875 L11.140625,2.96875 C12.90625,4.5625 14.40625,6.84375 15.265625,8.59375 L15.265625,0.5 C15.265625,0.140625 15.140625,0.03125 14.765625,0.03125 C14.328125,0.03125 12.28125,0.171875 12.28125,0.171875 L12.28125,-0.21875 C13.203125,-0.34375 13.734375,-0.484375 14.046875,-0.71875 C14.296875,-0.953125 14.421875,-1.375 14.5,-1.796875 C16.46875,-1.578125 16.703125,-0.84375 16.703125,0.359375 L16.703125,3.171875 L16.78125,3.09375 C18.4375,4.6875 19.828125,6.890625 20.65625,8.59375 L20.65625,0.53125 C20.65625,0.171875 20.546875,0.046875 20.140625,0.046875 C19.734375,0.046875 17.71875,0.1875 17.71875,0.1875 L17.71875,-0.1875 C18.59375,-0.3125 19.125,-0.484375 19.46875,-0.71875 C19.703125,-0.9375 19.796875,-1.34375 19.875,-1.78125 C21.859375,-1.578125 22.109375,-0.8125 22.109375,0.390625 L22.109375,17.6875 C22.53125,17.78125 22.890625,17.953125 23.046875,18.140625 L21.1875,19.53125 L20.453125,18.59375 L17.328125,18.59375 L17.421875,18.28125 L15.765625,19.53125 L15.046875,18.59375 L11.40625,18.59375 L9.703125,20.109375 C7.828125,19.265625 4.171875,18.234375 1.171875,17.765625 L1.296875,17.328125 C2.8125,17.40625 4.421875,17.5625 5.921875,17.78125 L5.921875,13.390625 L0.90625,13.390625 L1.109375,12.671875 L4.9375,12.671875 C3.953125,10.609375 2.46875,8.5625 0.640625,7.0625 L0.90625,6.671875 C1.421875,6.984375 1.921875,7.3125 2.375,7.6875 Z M19.609375,16.34375 C19.0625,14.828125 17.921875,12.625 16.703125,11.046875 L16.703125,17.71875 C17.046875,17.78125 17.359375,17.90625 17.5,18.078125 L17.546875,17.921875 L20.65625,17.921875 L20.65625,15.84375 Z M19.625,10.203125 C19.15625,8.328125 18.03125,5.609375 16.703125,3.703125 L16.703125,10.4375 L16.734375,10.421875 C18.34375,11.734375 19.796875,13.5625 20.65625,14.953125 L20.65625,9.765625 Z M5.921875,3.53125 L5.921875,0.578125 L3.75,0.578125 L3.75,3.53125 Z M7.25,3.53125 L9.546875,3.53125 L9.546875,0.578125 L7.25,0.578125 Z M5.921875,4.203125 L3.75,4.203125 L3.75,6.84375 L5.921875,6.84375 Z M7.25,4.203125 L7.25,6.84375 L9.546875,6.84375 L9.546875,4.203125 Z" transform="translate(0.15625, 20.109375) scale(1, -1)"/>
</svg>