<svg height="22" viewBox="0 0 24 22" width="24" xmlns="http://www.w3.org/2000/svg">
<path d="M12.21875,15.1875 L11.90625,15 C12.890625,13.625 13.25,11.546875 13.375,10.390625 C14.375,9.125 16.015625,12.1875 12.21875,15.1875 Z M17.59375,15.1875 L17.28125,15 C18.1875,13.65625 18.53125,11.5625 18.640625,10.46875 C19.625,9.140625 21.328125,12.1875 17.59375,15.1875 Z M2.78125,17.109375 L2.46875,16.984375 C2.96875,16.21875 3.578125,15 3.625,14.015625 C4.75,13.015625 6.078125,15.3125 2.78125,17.109375 Z M9.40625,17.515625 C9.171875,16.65625 8.5625,14.953125 8.0625,13.84375 L8.328125,13.6875 C9.171875,14.546875 10.0625,15.59375 10.53125,16.265625 C11.015625,16.203125 11.296875,16.4375 11.359375,16.609375 Z M2.375,7.53125 L2.375,-1.890625 L2.59375,-1.890625 C3.171875,-1.890625 3.75,-1.5625 3.75,-1.421875 L3.75,-0.125 L9.546875,-0.125 L9.546875,-1.53125 L9.75,-1.53125 C10.21875,-1.53125 10.890625,-1.171875 10.921875,-1.03125 L10.921875,6.640625 C11.328125,6.71875 11.6875,6.90625 11.828125,7.078125 L10.109375,8.375 L9.34375,7.53125 L3.859375,7.53125 L2.8125,8.015625 C4.03125,9.03125 5.09375,10.171875 5.921875,11.453125 L5.921875,8.09375 L6.140625,8.09375 C6.84375,8.09375 7.3125,8.453125 7.3125,8.5625 L7.3125,11.734375 C8.453125,10.828125 9.859375,9.5 10.484375,8.59375 C12,7.828125 12.75,10.578125 7.3125,12.265625 L7.3125,12.671875 L11.8125,12.671875 C12.09375,12.671875 12.3125,12.796875 12.390625,13.0625 C11.765625,13.65625 10.75,14.46875 10.75,14.46875 L9.859375,13.390625 L7.3125,13.390625 L7.3125,18 C8.421875,18.171875 9.453125,18.390625 10.265625,18.578125 C10.796875,18.390625 11.1875,18.390625 11.40625,18.578125 L11.609375,17.921875 L15.28125,17.921875 L15.28125,8.40625 C13.5625,7.15625 11.828125,5.96875 11.09375,5.546875 L12.171875,3.796875 C12.359375,3.9375 12.484375,4.25 12.484375,4.515625 C13.625,5.8125 14.59375,6.953125 15.28125,7.796875 L15.28125,0.4375 C15.28125,0.046875 15.171875,-0.09375 14.78125,-0.09375 C14.328125,-0.09375 12.234375,0.078125 12.234375,0.09375 L12.234375,-0.3125 C13.171875,-0.4375 13.703125,-0.578125 14.046875,-0.8125 C14.296875,-1.03125 14.421875,-1.421875 14.5,-1.84375 C16.484375,-1.625 16.734375,-0.890625 16.734375,0.265625 L16.734375,17.6875 C17.140625,17.78125 17.5,17.953125 17.640625,18.140625 L15.796875,19.53125 L15.078125,18.59375 L11.40625,18.59375 L9.703125,20.109375 C7.828125,19.265625 4.171875,18.234375 1.171875,17.765625 L1.296875,17.328125 C2.8125,17.40625 4.421875,17.5625 5.921875,17.78125 L5.921875,13.390625 L0.90625,13.390625 L1.109375,12.671875 L4.9375,12.671875 C3.953125,10.609375 2.46875,8.5625 0.640625,7.0625 L0.90625,6.671875 C1.421875,6.984375 1.921875,7.3125 2.375,7.6875 Z M17.5,18.59375 L17.71875,17.921875 L20.65625,17.921875 L20.65625,8.453125 C19.109375,7.21875 17.5625,6.140625 16.921875,5.734375 L18.078125,3.984375 C18.28125,4.15625 18.359375,4.46875 18.34375,4.734375 C19.265625,5.828125 20.0625,6.84375 20.65625,7.625 L20.65625,0.4375 C20.65625,0.078125 20.5625,-0.078125 20.140625,-0.078125 C19.6875,-0.078125 17.609375,0.09375 17.609375,0.09375 L17.609375,-0.28125 C18.546875,-0.40625 19.078125,-0.578125 19.421875,-0.796875 C19.6875,-1.03125 19.796875,-1.390625 19.875,-1.828125 C21.859375,-1.625 22.109375,-0.890625 22.109375,0.28125 L22.109375,17.6875 C22.53125,17.765625 22.921875,17.953125 23.0625,18.140625 L21.1875,19.53125 L20.453125,18.59375 Z M5.921875,3.53125 L5.921875,0.578125 L3.75,0.578125 L3.75,3.53125 Z M7.25,3.53125 L9.546875,3.53125 L9.546875,0.578125 L7.25,0.578125 Z M5.921875,4.203125 L3.75,4.203125 L3.75,6.84375 L5.921875,6.84375 Z M7.25,4.203125 L7.25,6.84375 L9.546875,6.84375 L9.546875,4.203125 Z" transform="translate(0.1484375, 20.109375) scale(1, -1)"/>
</svg>