<svg height="22.75" viewBox="0 0 24 22.75" width="24" xmlns="http://www.w3.org/2000/svg">
<path d="M13.734375,1.53125 L13.625,1.15625 C16.625,0.390625 18.765625,-0.640625 19.984375,-1.625 C21.8125,-2.90625 24.53125,0.765625 13.734375,1.53125 Z M9.953125,0.765625 C10.625,0.75 10.96875,0.8125 11.09375,1.03125 L8.59375,1.890625 C7.21875,0.71875 4.421875,-0.71875 1.609375,-1.5625 L1.796875,-1.921875 C4.984375,-1.4375 8.046875,-0.34375 9.953125,0.765625 Z M8.09375,17.0625 C6.640625,15.640625 3.71875,13.921875 1.25,12.953125 L1.484375,12.59375 C4.21875,13.3125 7.265625,14.65625 8.90625,15.84375 L9.125,15.765625 L9.125,14.6875 C9.125,14.421875 9.046875,14.296875 8.765625,14.296875 C8.421875,14.296875 7.3125,14.375 7.3125,14.375 L7.3125,13.984375 C7.921875,13.921875 8.25,13.78125 8.453125,13.578125 C8.640625,13.390625 8.6875,13.0625 8.734375,12.703125 C10.390625,12.84375 10.609375,13.46875 10.609375,14.5625 L10.609375,17.921875 C11.09375,18 11.5,18.21875 11.640625,18.359375 L9.640625,19.84375 L8.875,18.90625 L1.625,18.90625 L1.84375,18.21875 L5.359375,18.21875 C4.3125,17.40625 2.828125,16.484375 1.578125,15.890625 L1.875,15.53125 C3.671875,16.03125 5.734375,16.890625 6.859375,17.609375 C7.34375,17.453125 7.5625,17.515625 7.734375,17.765625 L7.015625,18.21875 L9.125,18.21875 L9.125,16.390625 Z M19.171875,17.28125 C17.640625,15.84375 14.5,14.109375 11.828125,13.203125 L12.046875,12.84375 C15,13.484375 18.265625,14.8125 19.984375,16.015625 L20.0625,15.984375 L20.0625,14.71875 C20.0625,14.453125 19.984375,14.328125 19.65625,14.328125 C19.296875,14.328125 17.953125,14.421875 17.953125,14.421875 L17.953125,14.046875 C18.640625,13.9375 19.015625,13.796875 19.25,13.578125 C19.46875,13.421875 19.53125,13.078125 19.5625,12.703125 C21.328125,12.859375 21.578125,13.484375 21.578125,14.609375 L21.578125,17.921875 C22.0625,18 22.46875,18.21875 22.609375,18.359375 L20.59375,19.84375 L19.828125,18.90625 L12.28125,18.90625 L12.5,18.21875 L15.9375,18.21875 C14.921875,17.40625 13.4375,16.484375 12.171875,15.90625 L12.4375,15.546875 C14.28125,16.03125 16.375,16.875 17.46875,17.609375 C18,17.453125 18.1875,17.515625 18.34375,17.734375 L17.5625,18.21875 L20.0625,18.21875 L20.0625,16.6875 Z M6.28125,9.140625 L11.25,9.140625 L11.25,7.484375 L6.28125,7.484375 Z M6.28125,9.84375 L6.28125,11.46875 L11.25,11.46875 L11.25,9.84375 Z M1.109375,2.71875 L1.296875,2.015625 L22.296875,2.015625 C22.625,2.015625 22.875,2.140625 22.921875,2.40625 C22.171875,3.09375 21,4.015625 21,4.015625 L19.9375,2.71875 L16.125,2.71875 L16.125,4.65625 L21.484375,4.65625 C21.8125,4.65625 22.03125,4.78125 22.078125,5.046875 C21.390625,5.71875 20.203125,6.625 20.203125,6.625 L19.171875,5.375 L16.125,5.375 L16.125,6.796875 L17.875,6.796875 L17.875,6.265625 L18.125,6.265625 C18.625,6.265625 19.4375,6.59375 19.46875,6.765625 L19.46875,11.328125 C19.828125,11.375 20.109375,11.546875 20.234375,11.71875 L18.484375,13.03125 L17.6875,12.171875 L6.4375,12.171875 L4.75,12.9375 L4.75,5.953125 L4.984375,5.953125 C5.640625,5.953125 6.28125,6.3125 6.28125,6.453125 L6.28125,6.796875 L8.046875,6.796875 L8.046875,5.375 L2.5625,5.375 L2.78125,4.65625 L8.046875,4.65625 L8.046875,2.71875 Z M17.875,11.46875 L17.875,9.84375 L12.796875,9.84375 L12.796875,11.46875 Z M17.875,9.140625 L17.875,7.484375 L12.796875,7.484375 L12.796875,9.140625 Z M9.546875,6.796875 L14.59375,6.796875 L14.59375,5.375 L9.546875,5.375 Z M9.546875,4.65625 L14.59375,4.65625 L14.59375,2.71875 L9.546875,2.71875 Z" transform="translate(-0.8203125, 19.84375) scale(1, -1)"/>
</svg>