<svg height="22.75" viewBox="0 0 24 22.75" width="24" xmlns="http://www.w3.org/2000/svg">
<path d="M3.59375,17.859375 L3.390625,17.609375 C4.21875,17.234375 5.203125,16.4375 5.609375,15.796875 C7.125,15.21875 7.625,18 3.59375,17.859375 Z M1.828125,14.1875 L3.03125,12.578125 C3.21875,12.640625 3.390625,12.8125 3.484375,13.15625 C5.859375,14.09375 7.609375,14.90625 8.78125,15.4375 L8.71875,15.8125 C5.90625,15.09375 3.09375,14.421875 1.828125,14.1875 Z M13.15625,17.859375 L12.9375,17.609375 C13.78125,17.203125 14.78125,16.4375 15.21875,15.765625 C16.6875,15.171875 17.203125,17.921875 13.15625,17.859375 Z M11.8125,14.296875 L13.03125,12.75 C13.25,12.84375 13.390625,13.015625 13.46875,13.3125 C15.8125,14.359375 17.515625,15.171875 18.703125,15.765625 L18.59375,16.15625 C15.84375,15.34375 13.0625,14.5625 11.8125,14.296875 Z M13.828125,1.53125 L13.734375,1.125 C16.734375,0.390625 18.859375,-0.640625 20.09375,-1.625 C21.90625,-2.90625 24.640625,0.765625 13.828125,1.53125 Z M9.953125,0.765625 C10.625,0.71875 10.984375,0.8125 11.09375,1.03125 L8.59375,1.921875 C7.203125,0.71875 4.390625,-0.71875 1.5625,-1.53125 L1.75,-1.921875 C4.96875,-1.4375 8.046875,-0.34375 9.953125,0.765625 Z M1.875,18.90625 L2.09375,18.21875 L9.21875,18.21875 L9.21875,14.8125 C9.21875,14.515625 9.140625,14.40625 8.859375,14.40625 C8.5,14.40625 7.296875,14.5 7.296875,14.5 L7.296875,14.109375 C7.9375,14.015625 8.28125,13.890625 8.5,13.703125 C8.6875,13.515625 8.734375,13.203125 8.78125,12.84375 C10.484375,13.015625 10.703125,13.609375 10.703125,14.6875 L10.703125,17.921875 C11.1875,18 11.59375,18.21875 11.734375,18.359375 L9.75,19.84375 L8.96875,18.90625 Z M12.09375,18.90625 L12.3125,18.21875 L19.625,18.21875 L19.625,14.8125 C19.625,14.515625 19.578125,14.40625 19.25,14.40625 C18.859375,14.40625 17.46875,14.515625 17.46875,14.515625 L17.46875,14.140625 C18.1875,14.046875 18.546875,13.890625 18.8125,13.6875 C19.03125,13.515625 19.109375,13.171875 19.15625,12.8125 C20.921875,12.984375 21.171875,13.578125 21.171875,14.71875 L21.171875,17.921875 C21.640625,18 22.03125,18.21875 22.171875,18.359375 L20.1875,19.84375 L19.421875,18.90625 Z M6.265625,9.140625 L11.203125,9.140625 L11.203125,7.484375 L6.265625,7.484375 Z M6.265625,9.84375 L6.265625,11.46875 L11.203125,11.46875 L11.203125,9.84375 Z M1.109375,2.71875 L1.296875,2.015625 L22.296875,2.015625 C22.625,2.015625 22.875,2.140625 22.921875,2.40625 C22.171875,3.09375 21,4.015625 21,4.015625 L19.9375,2.71875 L16.15625,2.71875 L16.15625,4.65625 L21.484375,4.65625 C21.8125,4.65625 22.03125,4.78125 22.078125,5.046875 C21.390625,5.71875 20.203125,6.625 20.203125,6.625 L19.171875,5.375 L16.15625,5.375 L16.15625,6.796875 L17.859375,6.796875 L17.859375,6.28125 L18.078125,6.28125 C18.59375,6.28125 19.390625,6.625 19.421875,6.796875 L19.421875,11.328125 C19.78125,11.375 20.09375,11.546875 20.203125,11.71875 L18.453125,13.03125 L17.65625,12.171875 L6.40625,12.171875 L4.703125,12.9375 L4.703125,6.09375 L4.9375,6.09375 C5.59375,6.09375 6.265625,6.453125 6.265625,6.59375 L6.265625,6.796875 L7.96875,6.796875 L7.96875,5.375 L2.5625,5.375 L2.78125,4.65625 L7.96875,4.65625 L7.96875,2.71875 Z M17.859375,11.46875 L17.859375,9.84375 L12.75,9.84375 L12.75,11.46875 Z M17.859375,9.140625 L17.859375,7.484375 L12.75,7.484375 L12.75,9.140625 Z M9.484375,6.796875 L14.609375,6.796875 L14.609375,5.375 L9.484375,5.375 Z M9.484375,4.65625 L14.609375,4.65625 L14.609375,2.71875 L9.484375,2.71875 Z" transform="translate(-0.875, 19.84375) scale(1, -1)"/>
</svg>