<svg height="21.9375" viewBox="0 0 24 21.9375" width="24" xmlns="http://www.w3.org/2000/svg">
<path d="M1.703125,18.390625 L1.3125,18.28125 C1.875,16.828125 2.46875,14.640625 2.421875,12.953125 C3.640625,11.65625 5.015625,14.765625 1.703125,18.390625 Z M8.1875,18.484375 C7.984375,17.140625 7.46875,14.421875 7.015625,12.671875 L7.296875,12.53125 C8.203125,14.09375 9.09375,16.125 9.578125,17.28125 C10.078125,17.28125 10.34375,17.546875 10.390625,17.765625 Z M13.203125,15.71875 C12.578125,14.5625 11.328125,12.9375 10.078125,11.921875 L10.375,11.59375 C11.859375,12.359375 13.3125,13.578125 14.140625,14.5625 L14.375,14.546875 L14.375,11.359375 L14.59375,11.359375 C15.078125,11.359375 15.765625,11.71875 15.796875,11.859375 L15.796875,17.953125 C16.25,18.046875 16.625,18.234375 16.796875,18.40625 L14.96875,19.796875 L14.140625,18.90625 L10.390625,18.90625 L10.578125,18.21875 L12.21875,18.21875 C11.8125,17.328125 11.046875,16.125 10.21875,15.390625 L10.515625,15.046875 C11.609375,15.59375 12.671875,16.53125 13.25,17.25 C13.78125,17.140625 13.9375,17.234375 14.109375,17.46875 L12.625,18.21875 L14.375,18.21875 L14.375,15.125 Z M19.390625,15.765625 C18.8125,14.6875 17.59375,13.125 16.421875,12.171875 L16.6875,11.859375 C18.140625,12.578125 19.578125,13.703125 20.359375,14.609375 L20.65625,14.5625 L20.65625,11.1875 L20.90625,11.1875 C21.390625,11.1875 22.109375,11.515625 22.125,11.6875 L22.125,17.953125 C22.578125,18.046875 22.96875,18.234375 23.109375,18.40625 L21.28125,19.828125 L20.453125,18.90625 L16.78125,18.90625 L16.984375,18.21875 L18.53125,18.21875 C18.078125,17.40625 17.25,16.296875 16.515625,15.546875 L16.828125,15.21875 C17.875,15.765625 18.9375,16.578125 19.578125,17.203125 C20.0625,17.09375 20.25,17.1875 20.421875,17.421875 L18.984375,18.21875 L20.65625,18.21875 L20.65625,15.125 Z M12.765625,11.921875 C11.78125,9.28125 10.265625,6.796875 8.875,5.28125 L9.1875,4.984375 C9.9375,5.515625 10.6875,6.1875 11.375,6.953125 L11.375,-1.890625 L11.609375,-1.890625 C12.34375,-1.890625 12.84375,-1.578125 12.84375,-1.515625 L12.84375,-0.4375 L22.5625,-0.4375 C22.890625,-0.4375 23.109375,-0.3125 23.15625,-0.046875 C22.421875,0.671875 21.171875,1.625 21.171875,1.625 L20.09375,0.28125 L17.328125,0.28125 L17.328125,2.609375 L21.40625,2.609375 C21.703125,2.609375 21.9375,2.734375 21.984375,3 C21.359375,3.640625 20.25,4.484375 20.25,4.484375 L19.3125,3.34375 L17.328125,3.34375 L17.328125,5.546875 L21.40625,5.546875 C21.703125,5.546875 21.9375,5.640625 21.984375,5.90625 C21.359375,6.546875 20.25,7.390625 20.25,7.390625 L19.3125,6.21875 L17.328125,6.21875 L17.328125,8.25 L21.9375,8.25 C22.265625,8.25 22.484375,8.375 22.5625,8.640625 C21.84375,9.3125 20.71875,10.203125 20.71875,10.203125 L19.734375,8.921875 L16.625,8.921875 C17.15625,9.453125 17.6875,10.078125 18.078125,10.5625 C18.546875,10.53125 18.84375,10.734375 18.9375,11.015625 L16.625,11.71875 C16.515625,10.84375 16.25,9.75 15.953125,8.921875 L13.125,8.921875 L12.984375,9 C13.34375,9.5 13.6875,10.0625 13.984375,10.609375 C14.46875,10.53125 14.78125,10.734375 14.875,10.984375 Z M12.84375,8.25 L15.859375,8.25 L15.859375,6.21875 L12.84375,6.21875 Z M12.84375,5.546875 L15.859375,5.546875 L15.859375,3.34375 L12.84375,3.34375 Z M12.84375,2.609375 L15.859375,2.609375 L15.859375,0.28125 L12.84375,0.28125 Z M5.140625,2.421875 L6.125,0.546875 C6.34375,0.640625 6.53125,0.859375 6.546875,1.15625 C8.40625,2.375 9.796875,3.40625 10.703125,4.109375 L10.578125,4.421875 L7.921875,3.390625 L7.921875,10.625 L10.015625,10.625 C10.34375,10.625 10.53125,10.75 10.609375,11.015625 C9.90625,11.6875 8.78125,12.53125 8.78125,12.53125 L7.796875,11.359375 L6.234375,11.359375 L6.234375,19.21875 C6.765625,19.3125 6.953125,19.515625 7.015625,19.828125 L4.78125,20.046875 L4.78125,11.359375 L0.984375,11.359375 L1.171875,10.625 L3.125,10.625 C3.09375,6.453125 3.03125,1.96875 1.015625,-1.53125 L1.421875,-1.890625 C4.25,1.484375 4.515625,6.09375 4.609375,10.625 L6.5,10.625 L6.5,2.875 Z" transform="translate(-0.0703125, 20.046875) scale(1, -1)"/>
</svg>