<svg height="21.953125" viewBox="0 0 24 21.953125" width="24" xmlns="http://www.w3.org/2000/svg">
<path d="M19.34375,19.375 C18.640625,18.453125 17.8125,17.515625 16.875,16.578125 C16.0625,17.296875 14.875,18.1875 14.875,18.1875 L13.75,16.78125 L10.984375,16.78125 L10.984375,19.25 C11.546875,19.34375 11.734375,19.5625 11.78125,19.875 L9.4375,20.109375 L9.4375,16.78125 L3.234375,16.78125 L3.4375,16.078125 L9.4375,16.078125 L9.4375,12.890625 L1.125,12.890625 L1.34375,12.171875 L11.765625,12.171875 C10.921875,11.546875 10.0625,10.921875 9.171875,10.3125 L8.015625,10.796875 L7.703125,9.390625 C5.46875,7.984375 3.09375,6.71875 0.71875,5.6875 L0.890625,5.296875 C3.125,6.078125 5.328125,7.03125 7.390625,8.09375 C7.015625,6.484375 6.53125,4.625 6.09375,3.1875 C6.953125,2.953125 7.390625,2.96875 7.796875,3.1875 L8.203125,4.6875 L17.609375,4.6875 C17.234375,2.46875 16.578125,0.703125 16.015625,0.234375 C15.75,0.078125 15.484375,0.03125 15,0.03125 C14.453125,0.03125 12.359375,0.1875 11.25,0.28125 L11.25,-0.125 C12.265625,-0.265625 13.390625,-0.484375 13.75,-0.75 C14.109375,-0.984375 14.234375,-1.421875 14.234375,-1.84375 C15.265625,-1.84375 16.203125,-1.609375 16.84375,-1.171875 C17.921875,-0.4375 18.765625,1.796875 19.171875,4.484375 C19.6875,4.53125 19.9375,4.65625 20.109375,4.828125 L18.359375,6.28125 L17.46875,5.375 L8.375,5.375 L8.921875,7.65625 C12.34375,7.890625 16.078125,8.453125 18.625,8.921875 C19.171875,8.71875 19.578125,8.71875 19.828125,8.875 L18.140625,10.46875 C16.078125,9.71875 12.28125,8.78125 9.046875,8.234375 L9.234375,9.09375 C10.96875,10.0625 12.578125,11.09375 14.0625,12.171875 L22.3125,12.171875 C22.65625,12.171875 22.890625,12.28125 22.96875,12.546875 C22.125,13.3125 20.8125,14.359375 20.8125,14.359375 L19.625,12.890625 L15.046875,12.890625 C17.234375,14.546875 19.109375,16.25 20.515625,17.859375 C21.078125,17.65625 21.328125,17.71875 21.5,17.96875 Z M10.984375,16.078125 L16.34375,16.078125 L16.375,16.078125 C15.265625,15 14.046875,13.9375 12.703125,12.890625 L10.984375,12.890625 Z" transform="translate(0.15625, 20.109375) scale(1, -1)"/>
</svg>