<svg height="21.046875" viewBox="0 0 24 21.046875" width="24" xmlns="http://www.w3.org/2000/svg">
<path d="M20.734375,19.15625 L19.484375,17.609375 L1.0625,17.609375 L1.265625,16.890625 L10.75,16.890625 C10.5625,15.671875 10.25,14.140625 10.015625,13.078125 L4.703125,13.078125 L3,13.890625 L3,-1.890625 L3.234375,-1.890625 C3.9375,-1.890625 4.53125,-1.515625 4.53125,-1.3125 L4.53125,12.390625 L8.46875,12.390625 L8.46875,-0.84375 L8.71875,-0.84375 C9.484375,-0.84375 9.953125,-0.484375 9.953125,-0.390625 L9.953125,12.390625 L13.984375,12.390625 L13.984375,-0.4375 L14.234375,-0.4375 C15,-0.4375 15.484375,-0.09375 15.484375,0.046875 L15.484375,12.390625 L19.515625,12.390625 L19.515625,0.59375 C19.515625,0.265625 19.421875,0.125 19.03125,0.125 C18.578125,0.125 16.625,0.265625 16.625,0.265625 L16.625,-0.125 C17.515625,-0.21875 18.046875,-0.4375 18.359375,-0.703125 C18.625,-0.953125 18.71875,-1.390625 18.796875,-1.890625 C20.828125,-1.6875 21.078125,-0.859375 21.078125,0.40625 L21.078125,12.09375 C21.546875,12.171875 21.953125,12.359375 22.125,12.546875 L20.109375,14.0625 L19.265625,13.078125 L10.734375,13.078125 C11.421875,14.109375 12.21875,15.625 12.859375,16.890625 L22.375,16.890625 C22.703125,16.890625 22.9375,17.015625 22.984375,17.28125 C22.15625,18.09375 20.734375,19.15625 20.734375,19.15625 Z" transform="translate(-0.0234375, 19.15625) scale(1, -1)"/>
</svg>