<svg height="22.109375" viewBox="0 0 24 22.109375" width="24" xmlns="http://www.w3.org/2000/svg">
<path d="M18.078125,20.046875 L18.078125,14.734375 L14.6875,14.734375 L14.6875,19.125 C15.28125,19.21875 15.484375,19.46875 15.53125,19.796875 L13.203125,20.046875 L13.203125,14.734375 L10.265625,14.734375 L10.4375,14.015625 L13.203125,14.015625 L13.203125,9.4375 C13.203125,8.8125 13.171875,8.203125 13.15625,7.609375 L9.890625,7.609375 L10.078125,6.90625 L13.078125,6.90625 C12.71875,3.390625 11.46875,0.546875 8.46875,-1.609375 L8.78125,-1.921875 C12.578125,0.1875 14.109375,3.1875 14.546875,6.90625 L18.078125,6.90625 L18.078125,-1.875 L18.359375,-1.875 C18.9375,-1.875 19.609375,-1.484375 19.609375,-1.25 L19.609375,6.90625 L22.734375,6.90625 C23.046875,6.90625 23.25,7.03125 23.296875,7.265625 C22.6875,8.015625 21.546875,9.03125 21.546875,9.03125 L20.59375,7.609375 L19.609375,7.609375 L19.609375,14.015625 L22.296875,14.015625 C22.625,14.015625 22.84375,14.140625 22.921875,14.40625 C22.265625,15.125 21.1875,16.078125 21.1875,16.078125 L20.234375,14.734375 L19.609375,14.734375 L19.609375,19.109375 C20.1875,19.203125 20.375,19.4375 20.453125,19.78125 Z M14.6875,14.015625 L18.078125,14.015625 L18.078125,7.609375 L14.609375,7.609375 C14.65625,8.203125 14.6875,8.8125 14.6875,9.4375 Z M5.140625,20.1875 L5.140625,16.484375 L1.4375,16.484375 L1.625,15.796875 L5.140625,15.796875 L5.140625,13.0625 L1.65625,13.0625 L1.84375,12.359375 L5.140625,12.359375 L5.140625,9.5 L1.03125,9.5 L1.21875,8.8125 L4.515625,8.8125 C3.75,6.046875 2.515625,3.3125 0.84375,1.203125 L1.15625,0.84375 C2.8125,2.328125 4.15625,4.125 5.140625,6.125 L5.140625,-1.84375 L5.453125,-1.84375 C5.96875,-1.84375 6.59375,-1.484375 6.59375,-1.265625 L6.59375,7.03125 C7.578125,6.046875 8.65625,4.578125 8.953125,3.4375 C10.5625,2.296875 11.78125,5.640625 6.59375,7.46875 L6.59375,8.8125 L10.515625,8.8125 C10.828125,8.8125 11.0625,8.921875 11.140625,9.1875 C10.390625,9.890625 9.1875,10.84375 9.1875,10.84375 L8.140625,9.5 L6.59375,9.5 L6.59375,12.359375 L9.953125,12.359375 C10.265625,12.359375 10.484375,12.484375 10.53125,12.75 C9.890625,13.390625 8.828125,14.234375 8.828125,14.234375 L7.921875,13.0625 L6.59375,13.0625 L6.59375,15.796875 L10.375,15.796875 C10.6875,15.796875 10.890625,15.90625 10.96875,16.171875 C10.265625,16.84375 9.09375,17.78125 9.09375,17.78125 L8.09375,16.484375 L6.59375,16.484375 L6.59375,19.265625 C7.203125,19.375 7.375,19.578125 7.4375,19.921875 Z" transform="translate(-0.0703125, 20.1875) scale(1, -1)"/>
</svg>