<svg height="22.03125" viewBox="0 0 24 22.03125" width="24" xmlns="http://www.w3.org/2000/svg">
<path d="M10.4375,6.140625 L10.734375,5.5 L14.515625,6.125 L14.515625,0.546875 C14.515625,-0.75 15,-1.21875 16.796875,-1.21875 L18.984375,-1.21875 C22.421875,-1.21875 23.1875,-0.953125 23.1875,-0.234375 C23.1875,0.09375 23.0625,0.28125 22.515625,0.453125 L22.421875,3.578125 L22.125,3.578125 C21.859375,2.296875 21.578125,0.890625 21.40625,0.578125 C21.3125,0.390625 21.171875,0.3125 20.953125,0.3125 C20.640625,0.265625 19.9375,0.265625 19.03125,0.265625 L17.0625,0.265625 C16.21875,0.265625 16.078125,0.4375 16.078125,0.953125 L16.078125,6.359375 L22.515625,7.421875 C22.796875,7.4375 23.0625,7.625 23.0625,7.890625 C22.21875,8.46875 20.859375,9.265625 20.859375,9.265625 L19.96875,7.703125 L16.078125,7.0625 L16.078125,11.5 L21.578125,12.40625 C21.84375,12.4375 22.078125,12.625 22.078125,12.890625 C21.265625,13.46875 19.875,14.234375 19.875,14.234375 L19.015625,12.703125 L16.078125,12.21875 L16.078125,16.125 L16.078125,16.890625 C17.828125,17.359375 19.421875,17.875 20.609375,18.359375 C21.1875,18.1875 21.59375,18.21875 21.765625,18.4375 L19.875,19.96875 C18.046875,18.703125 14.25,17.109375 11.046875,16.34375 L11.15625,15.9375 C12.265625,16.078125 13.421875,16.296875 14.515625,16.53125 L14.515625,11.953125 L10.984375,11.359375 L11.28125,10.703125 L14.515625,11.234375 L14.515625,6.8125 Z M5.234375,20.1875 L5.234375,16.484375 L1.375,16.484375 L1.5625,15.796875 L5.234375,15.796875 L5.234375,13.0625 L1.6875,13.0625 L1.875,12.359375 L5.234375,12.359375 L5.234375,9.5 L1.078125,9.5 L1.265625,8.8125 L4.625,8.8125 C3.8125,6 2.46875,3.234375 0.671875,1.109375 L0.953125,0.765625 C2.734375,2.28125 4.171875,4.109375 5.234375,6.171875 L5.234375,-1.84375 L5.515625,-1.84375 C6.078125,-1.84375 6.703125,-1.484375 6.703125,-1.265625 L6.703125,6.984375 C7.65625,6.03125 8.765625,4.578125 9.046875,3.4375 C10.625,2.296875 11.859375,5.609375 6.703125,7.4375 L6.703125,8.8125 L10.703125,8.8125 C11.046875,8.8125 11.25,8.921875 11.328125,9.1875 C10.609375,9.890625 9.40625,10.84375 9.40625,10.84375 L8.375,9.5 L6.703125,9.5 L6.703125,12.359375 L10.0625,12.359375 C10.375,12.359375 10.578125,12.484375 10.65625,12.75 C10.015625,13.390625 8.921875,14.234375 8.921875,14.234375 L8.015625,13.0625 L6.703125,13.0625 L6.703125,15.796875 L10.34375,15.796875 C10.625,15.796875 10.875,15.90625 10.9375,16.171875 C10.25,16.84375 9.078125,17.78125 9.078125,17.78125 L8.0625,16.484375 L6.703125,16.484375 L6.703125,19.265625 C7.296875,19.375 7.46875,19.578125 7.53125,19.921875 Z" transform="translate(0.0703125, 20.1875) scale(1, -1)"/>
</svg>