<svg height="21.671875" viewBox="0 0 24 21.671875" width="24" xmlns="http://www.w3.org/2000/svg">
<path d="M13.484375,19.484375 C12.90625,17.515625 11.5625,14.859375 9.890625,13.171875 L10.15625,12.859375 C12.265625,14.25 13.9375,16.515625 14.859375,18.234375 C15.40625,18.1875 15.578125,18.28125 15.71875,18.546875 Z M18.078125,19.484375 L17.71875,19.296875 C18.59375,16.609375 20.203125,14.328125 21.765625,12.984375 C22.015625,13.78125 22.484375,14.234375 23.140625,14.328125 L23.15625,14.59375 C21.390625,15.53125 19.171875,17.359375 18.078125,19.484375 Z M13.5625,5.90625 L13.5625,-0.140625 C13.5625,-1.125 13.796875,-1.46875 15.265625,-1.46875 L17.015625,-1.46875 C19.703125,-1.46875 20.296875,-1.203125 20.296875,-0.546875 C20.296875,-0.28125 20.203125,-0.140625 19.75,0.03125 L19.6875,2.109375 L19.375,2.109375 C19.203125,1.21875 18.984375,0.3125 18.8125,0.078125 C18.75,-0.09375 18.640625,-0.125 18.453125,-0.125 C18.265625,-0.140625 17.734375,-0.140625 17.0625,-0.140625 L15.59375,-0.140625 C15.046875,-0.140625 14.96875,-0.078125 14.96875,0.21875 L14.96875,5.09375 C15.390625,5.15625 15.59375,5.375 15.625,5.65625 Z M11.515625,5.109375 C11.59375,3.703125 10.9375,2.109375 10.25,1.484375 C9.8125,1.15625 9.546875,0.625 9.8125,0.171875 C10.15625,-0.3125 10.9375,-0.140625 11.40625,0.34375 C12.078125,1.03125 12.578125,2.78125 11.953125,5.109375 Z M13.875,7.625 L13.6875,7.375 C15,6.859375 16.609375,5.765625 17.203125,4.78125 C18.984375,4.15625 19.25,7.609375 13.875,7.625 Z M19.890625,5.359375 L19.609375,5.15625 C20.640625,3.9375 21.671875,1.875 21.59375,0.265625 C23.109375,-1.21875 24.765625,2.640625 19.890625,5.359375 Z M17.96875,12.9375 L17.6875,12.765625 C18.1875,12.171875 18.765625,11.375 19.25,10.5625 L14.15625,10.265625 C15.125,11.6875 15.953125,13.3125 16.484375,14.609375 C17.015625,14.609375 17.25,14.828125 17.359375,15.125 L15.03125,15.671875 C14.71875,14.046875 14.109375,11.921875 13.484375,10.25 L10.796875,10.171875 L11.546875,8.15625 C11.78125,8.203125 12.03125,8.359375 12.171875,8.640625 C15.3125,9.1875 17.71875,9.703125 19.515625,10.078125 C19.84375,9.40625 20.109375,8.765625 20.234375,8.15625 C21.84375,6.890625 23.15625,10.390625 17.96875,12.9375 Z M0.8125,2.734375 L1.390625,0.75 C1.625,0.8125 1.84375,1.015625 1.9375,1.296875 C4.34375,2.25 6.28125,3.125 7.75,3.75 L7.75,-1.875 L7.984375,-1.875 C8.765625,-1.875 9.234375,-1.484375 9.234375,-1.375 L9.234375,17.71875 L11.46875,17.71875 C11.8125,17.71875 12.046875,17.828125 12.09375,18.09375 C11.296875,18.8125 10.03125,19.796875 10.03125,19.796875 L8.90625,18.40625 L0.984375,18.40625 L1.171875,17.71875 L2.859375,17.71875 L2.859375,3.125 Z M4.296875,17.71875 L7.75,17.71875 L7.75,13.6875 L4.296875,13.6875 Z M4.296875,12.984375 L7.75,12.984375 L7.75,8.78125 L4.296875,8.78125 Z M4.296875,8.0625 L7.75,8.0625 L7.75,4.21875 L4.296875,3.4375 Z" transform="translate(-0.7890625, 19.796875) scale(1, -1)"/>
</svg>