<svg height="21.953125" viewBox="0 0 24 21.953125" width="24" xmlns="http://www.w3.org/2000/svg">
<path d="M13.0625,5.609375 L13.0625,-0.03125 C13.0625,-1.0625 13.3125,-1.390625 14.875,-1.390625 L16.75,-1.390625 C19.625,-1.390625 20.28125,-1.125 20.28125,-0.5 C20.28125,-0.21875 20.140625,-0.078125 19.6875,0.09375 L19.609375,2.1875 L19.3125,2.1875 C19.109375,1.25 18.890625,0.390625 18.75,0.140625 C18.640625,-0.03125 18.546875,-0.078125 18.34375,-0.046875 C18.140625,-0.078125 17.515625,-0.078125 16.828125,-0.078125 L15.1875,-0.078125 C14.546875,-0.078125 14.46875,0 14.46875,0.28125 L14.46875,4.78125 C14.90625,4.84375 15.140625,5.0625 15.171875,5.359375 Z M11.046875,5.140625 C10.984375,3.671875 10.203125,2.09375 9.453125,1.46875 C9.03125,1.125 8.8125,0.59375 9.046875,0.1875 C9.390625,-0.3125 10.21875,-0.125 10.65625,0.359375 C11.328125,1.109375 11.953125,2.8125 11.46875,5.109375 Z M14.140625,7.296875 L13.890625,7.0625 C15.046875,6.359375 16.4375,5.0625 16.890625,4.0625 C18.5,3.171875 19.296875,6.34375 14.140625,7.296875 Z M19.609375,5.546875 L19.3125,5.359375 C20.359375,4.125 21.546875,2.09375 21.71875,0.5 C23.28125,-0.84375 24.671875,2.78125 19.609375,5.546875 Z M10.21875,13.890625 L10.21875,6.984375 L10.4375,6.984375 C11.15625,6.984375 11.609375,7.296875 11.609375,7.421875 L11.609375,8.140625 L20.234375,8.140625 L20.234375,7.21875 L20.453125,7.21875 C21.125,7.21875 21.640625,7.53125 21.640625,7.625 L21.640625,13.109375 C22.109375,13.203125 22.375,13.3125 22.515625,13.484375 L20.875,14.765625 L20.15625,13.890625 L16.578125,13.890625 L16.578125,16.390625 L22.46875,16.390625 C22.796875,16.390625 23.0625,16.515625 23.109375,16.75 C22.34375,17.46875 21.078125,18.453125 21.078125,18.453125 L19.96875,17.09375 L16.578125,17.09375 L16.578125,19.171875 C17.15625,19.25 17.40625,19.484375 17.453125,19.828125 L15.046875,20.0625 L15.046875,17.09375 L9.4375,17.09375 L9.625,16.390625 L15.046875,16.390625 L15.046875,13.890625 L11.875,13.890625 L10.21875,14.609375 Z M11.609375,8.828125 L11.609375,13.203125 L13.578125,13.203125 L13.578125,8.828125 Z M20.234375,8.828125 L18.1875,8.828125 L18.1875,13.203125 L20.234375,13.203125 Z M14.859375,8.828125 L14.859375,13.203125 L16.875,13.203125 L16.875,8.828125 Z M0.796875,2.765625 L1.375,0.75 C1.609375,0.8125 1.828125,1.03125 1.9375,1.3125 C4.03125,2.203125 5.734375,2.96875 7.078125,3.578125 L7.078125,-1.890625 L7.3125,-1.890625 C8.0625,-1.890625 8.546875,-1.515625 8.5625,-1.375 L8.5625,17.734375 L10.25,17.734375 C10.578125,17.734375 10.796875,17.859375 10.875,18.125 C10.109375,18.8125 8.828125,19.796875 8.828125,19.796875 L7.75,18.4375 L0.953125,18.4375 L1.15625,17.734375 L2.546875,17.734375 L2.546875,3.09375 Z M4.015625,17.734375 L7.078125,17.734375 L7.078125,13.6875 L4.015625,13.6875 Z M4.015625,12.984375 L7.078125,12.984375 L7.078125,8.78125 L4.015625,8.78125 Z M4.015625,8.0625 L7.078125,8.0625 L7.078125,4.125 L4.015625,3.40625 Z" transform="translate(-0.734375, 20.0625) scale(1, -1)"/>
</svg>