<svg height="22.25" viewBox="0 0 24 22.25" width="24" xmlns="http://www.w3.org/2000/svg">
<path d="M11.140625,12.234375 L11.140625,10.65625 L4.03125,10.65625 L4.21875,9.953125 L11.140625,9.953125 L11.140625,8.375 L1.078125,8.375 L1.265625,7.6875 L11.140625,7.6875 L11.140625,6.140625 L3.90625,6.140625 L4.109375,5.453125 L11.140625,5.453125 L11.140625,3.84375 L3.125,3.84375 L3.34375,3.140625 L11.140625,3.140625 L11.140625,1.53125 L1.0625,1.53125 L1.265625,0.859375 L11.140625,0.859375 L11.140625,-1.890625 L11.453125,-1.890625 C12,-1.890625 12.703125,-1.515625 12.703125,-1.3125 L12.703125,0.859375 L22.296875,0.859375 C22.625,0.859375 22.890625,0.953125 22.96875,1.21875 C22.109375,1.921875 20.828125,2.828125 20.828125,2.828125 L19.6875,1.53125 L12.703125,1.53125 L12.703125,3.140625 L20.375,3.140625 C20.71875,3.140625 20.953125,3.265625 21.03125,3.53125 C20.203125,4.203125 18.984375,5.0625 18.984375,5.0625 L17.875,3.84375 L12.703125,3.84375 L12.703125,5.453125 L17.546875,5.453125 L17.546875,4.96875 L17.78125,4.96875 C18.28125,4.96875 19.0625,5.296875 19.078125,5.453125 L19.078125,7.6875 L22.609375,7.6875 C22.9375,7.6875 23.1875,7.796875 23.203125,8.0625 C22.421875,8.765625 21.171875,9.671875 21.171875,9.671875 L20.046875,8.375 L19.078125,8.375 L19.078125,9.84375 C19.421875,9.90625 19.6875,10.0625 19.796875,10.203125 L18.171875,11.453125 L17.375,10.65625 L12.703125,10.65625 L12.703125,11.546875 C13.109375,11.609375 13.25,11.78125 13.296875,12.03125 L13.0625,12.046875 C14.296875,12.359375 15.4375,12.765625 16.46875,13.265625 C17.78125,12.140625 19.484375,11.328125 21.890625,10.78125 C22.015625,11.59375 22.4375,12.046875 23.0625,12.21875 L23.109375,12.484375 C20.859375,12.75 19.078125,13.21875 17.65625,13.9375 C18.890625,14.734375 19.875,15.75 20.5625,16.984375 L22.4375,16.984375 C22.75,16.984375 22.984375,17.109375 23.046875,17.375 C22.25,18.140625 21.046875,19.0625 21.046875,19.0625 L19.9375,17.71875 L15.28125,17.71875 C15.59375,18.140625 15.859375,18.59375 16.109375,19.078125 C16.625,19.015625 16.921875,19.203125 17.015625,19.46875 L14.78125,20.359375 C14.046875,18.03125 12.796875,15.9375 11.46875,14.6875 L11.78125,14.40625 C12.59375,14.859375 13.390625,15.484375 14.09375,16.21875 C14.59375,15.359375 15.125,14.59375 15.765625,13.921875 C14.71875,13.25 13.46875,12.671875 12.046875,12.21875 L12.078125,12.140625 Z M17.546875,7.6875 L17.546875,6.140625 L12.703125,6.140625 L12.703125,7.6875 Z M17.546875,8.375 L12.703125,8.375 L12.703125,9.953125 L17.546875,9.953125 Z M9.53125,16.109375 L9.53125,13.890625 L4.078125,13.890625 C4.15625,14.515625 4.171875,15.125 4.171875,15.671875 L4.171875,16.109375 Z M9.953125,20.25 C8.734375,19.734375 6.53125,19.03125 4.515625,18.625 L2.65625,19.21875 L2.65625,15.703125 C2.65625,13.65625 2.5625,11.453125 0.953125,9.640625 L1.25,9.3125 C2.921875,10.375 3.640625,11.8125 3.953125,13.203125 L9.53125,13.203125 L9.53125,12.59375 L9.75,12.59375 C10.25,12.59375 10.984375,12.9375 11.015625,13.078125 L11.015625,15.84375 C11.453125,15.9375 11.828125,16.125 11.96875,16.296875 L10.109375,17.65625 L9.28125,16.78125 L4.171875,16.78125 L4.171875,18.046875 C6.390625,18.09375 8.828125,18.390625 10.421875,18.671875 C10.9375,18.453125 11.359375,18.4375 11.59375,18.625 Z M16.625,14.546875 C15.765625,15.125 15.078125,15.84375 14.5,16.65625 L14.765625,16.984375 L18.703125,16.984375 C18.21875,16.0625 17.515625,15.265625 16.625,14.546875 Z" transform="translate(-0.078125, 20.359375) scale(1, -1)"/>
</svg>