<svg height="22.03125" viewBox="0 0 24 22.03125" width="24" xmlns="http://www.w3.org/2000/svg">
<path d="M20.71875,18.140625 L18.34375,19.34375 C17.375,17.328125 16.125,15.1875 15.1875,13.875 L15.5,13.625 C16.875,14.65625 18.484375,16.25 19.75,17.8125 C20.25,17.734375 20.5625,17.90625 20.71875,18.140625 Z M4.34375,19.171875 L4.078125,18.953125 C5.359375,17.828125 6.9375,15.859375 7.3125,14.296875 C9.171875,13.0625 10.390625,17.0625 4.34375,19.171875 Z M6.078125,-1.3125 L6.078125,4.34375 L18.03125,4.34375 L18.03125,0.625 C18.03125,0.234375 17.875,0.078125 17.421875,0.078125 C16.875,0.078125 14.109375,0.3125 14.109375,0.3125 L14.109375,-0.09375 C15.3125,-0.234375 15.953125,-0.453125 16.375,-0.75 C16.734375,-1.015625 16.875,-1.421875 16.9375,-1.9375 C19.3125,-1.703125 19.609375,-0.84375 19.609375,0.40625 L19.609375,12.046875 C20.09375,12.140625 20.46875,12.3125 20.640625,12.5 L18.59375,14.046875 L17.78125,13.0625 L12.9375,13.0625 L12.9375,19.203125 C13.53125,19.265625 13.78125,19.484375 13.828125,19.828125 L11.375,20.09375 L11.375,13.0625 L6.21875,13.0625 L4.515625,13.875 L4.515625,-1.921875 L4.78125,-1.921875 C5.5,-1.921875 6.078125,-1.515625 6.078125,-1.3125 Z M18.03125,5.046875 L6.078125,5.046875 L6.078125,8.359375 L18.03125,8.359375 Z M18.03125,9.046875 L6.078125,9.046875 L6.078125,12.34375 L18.03125,12.34375 Z" transform="translate(-0.3984375, 20.09375) scale(1, -1)"/>
</svg>