<svg height="21.9375" viewBox="0 0 24 21.9375" width="24" xmlns="http://www.w3.org/2000/svg">
<path d="M2.046875,18.640625 L2.25,17.953125 L21.53125,17.953125 C21.84375,17.953125 22.078125,18.078125 22.15625,18.3125 C21.328125,19.078125 19.984375,20.0625 19.984375,20.0625 L18.8125,18.640625 Z M18.765625,15.125 L18.765625,12.1875 L6.28125,12.1875 L6.28125,15.125 Z M4.75,15.8125 L4.75,12.1875 C4.75,7.78125 4.21875,2.765625 1.03125,-1.390625 L1.375,-1.6875 C5.609375,2.109375 6.234375,7.5625 6.28125,11.5 L18.765625,11.5 L18.765625,10.375 L19.015625,10.375 C19.53125,10.375 20.328125,10.75 20.359375,10.890625 L20.359375,14.90625 C20.765625,14.96875 21.125,15.140625 21.234375,15.3125 L19.390625,16.734375 L18.546875,15.8125 L6.578125,15.8125 L4.75,16.6875 Z M18.84375,5.515625 L18.84375,3.1875 L8.65625,3.1875 L8.65625,5.515625 Z M18.84375,6.21875 L8.65625,6.21875 L8.65625,8.46875 L18.84375,8.46875 Z M7.125,9.171875 L7.125,-1.875 L7.375,-1.875 C8.046875,-1.875 8.65625,-1.484375 8.65625,-1.3125 L8.65625,2.5 L18.84375,2.5 L18.84375,0.453125 C18.84375,0.125 18.71875,-0.03125 18.34375,-0.03125 C17.828125,-0.03125 15.703125,0.125 15.703125,0.125 L15.703125,-0.234375 C16.65625,-0.359375 17.203125,-0.53125 17.546875,-0.765625 C17.859375,-1.015625 17.953125,-1.390625 18,-1.828125 C20.140625,-1.625 20.40625,-0.890625 20.40625,0.28125 L20.40625,8.1875 C20.875,8.25 21.28125,8.46875 21.4375,8.640625 L19.421875,10.15625 L18.59375,9.171875 L8.8125,9.171875 L7.125,9.953125 Z" transform="translate(0.40625, 20.0625) scale(1, -1)"/>
</svg>