<svg height="22.0625" viewBox="0 0 24 22.0625" width="24" xmlns="http://www.w3.org/2000/svg">
<path d="M18.984375,14.65625 L18.984375,11.6875 L5.515625,11.6875 L5.515625,12.9375 L5.515625,14.65625 Z M18.703125,20.1875 C15.671875,19.375 10.109375,18.34375 5.5625,17.859375 L3.953125,18.546875 L3.953125,12.9375 C3.953125,8.234375 3.625,2.921875 0.953125,-1.421875 L1.3125,-1.65625 C4.625,1.96875 5.359375,6.953125 5.5,10.96875 L18.984375,10.96875 L18.984375,9.984375 L19.21875,9.984375 C19.75,9.984375 20.546875,10.34375 20.5625,10.46875 L20.5625,14.421875 C20.96875,14.5 21.359375,14.6875 21.5,14.859375 L19.609375,16.265625 L18.765625,15.359375 L5.515625,15.359375 L5.515625,17.375 C10.265625,17.453125 15.578125,17.921875 19.203125,18.40625 C19.796875,18.140625 20.25,18.125 20.5,18.34375 Z M18.71875,5.140625 L18.71875,2.90625 L8.359375,2.90625 L8.359375,5.140625 Z M18.71875,5.828125 L8.359375,5.828125 L8.359375,7.984375 L18.71875,7.984375 Z M6.8125,8.6875 L6.8125,-1.84375 L7.078125,-1.84375 C7.703125,-1.84375 8.359375,-1.484375 8.359375,-1.3125 L8.359375,2.203125 L18.71875,2.203125 L18.71875,0.390625 C18.71875,0.078125 18.625,-0.078125 18.21875,-0.078125 C17.71875,-0.078125 15.578125,0.078125 15.578125,0.078125 L15.578125,-0.28125 C16.5625,-0.390625 17.09375,-0.59375 17.421875,-0.8125 C17.734375,-1.0625 17.859375,-1.4375 17.90625,-1.875 C20.015625,-1.6875 20.28125,-0.953125 20.28125,0.234375 L20.28125,7.6875 C20.78125,7.75 21.171875,7.96875 21.3125,8.140625 L19.296875,9.640625 L18.484375,8.6875 L8.5,8.6875 L6.8125,9.453125 Z" transform="translate(0.7734375, 20.1875) scale(1, -1)"/>
</svg>