<svg height="22" viewBox="0 0 24 22" width="24" xmlns="http://www.w3.org/2000/svg">
<path d="M3.9375,18.046875 L6.71875,18.046875 L6.71875,13.34375 L3.9375,13.34375 Z M2.46875,18.75 L2.46875,12.03125 C2.46875,7.515625 2.453125,2.421875 0.859375,-1.6875 L1.265625,-1.890625 C2.921875,0.671875 3.546875,3.890625 3.796875,6.953125 L6.71875,6.953125 L6.71875,0.75 C6.71875,0.390625 6.59375,0.234375 6.171875,0.234375 C5.734375,0.234375 3.671875,0.40625 3.671875,0.40625 L3.671875,0.03125 C4.609375,-0.125 5.140625,-0.28125 5.453125,-0.53125 C5.734375,-0.765625 5.828125,-1.203125 5.90625,-1.65625 C7.9375,-1.4375 8.1875,-0.703125 8.1875,0.578125 L8.1875,17.828125 C8.59375,17.921875 8.953125,18.09375 9.078125,18.265625 L7.21875,19.6875 L6.5,18.75 L4.25,18.75 L2.46875,19.53125 Z M3.9375,12.625 L6.71875,12.625 L6.71875,7.65625 L3.84375,7.65625 C3.9375,9.21875 3.9375,10.703125 3.9375,12.046875 Z M13.890625,10.65625 L13.890625,0.53125 C13.890625,-0.703125 14.28125,-1.0625 16.125,-1.0625 L18.625,-1.078125 C22.265625,-1.078125 23.046875,-0.765625 23.046875,-0.09375 C23.046875,0.21875 22.890625,0.390625 22.390625,0.578125 L22.3125,3.703125 L21.984375,3.703125 C21.75,2.375 21.484375,1.03125 21.3125,0.671875 C21.21875,0.453125 21.09375,0.40625 20.828125,0.390625 C20.515625,0.359375 19.734375,0.359375 18.640625,0.359375 L16.390625,0.359375 C15.5,0.359375 15.390625,0.484375 15.390625,0.90625 L15.390625,9.953125 L19.484375,9.953125 L19.484375,5.734375 C19.484375,5.40625 19.390625,5.28125 18.984375,5.28125 C18.53125,5.28125 16.625,5.421875 16.625,5.421875 L16.625,5.0625 C17.515625,4.9375 18.03125,4.75 18.34375,4.53125 C18.578125,4.3125 18.703125,3.953125 18.71875,3.546875 C20.6875,3.75 20.921875,4.421875 20.921875,5.5625 L20.921875,9.796875 C21.28125,9.859375 21.59375,10.03125 21.71875,10.203125 L19.9375,11.46875 L19.296875,10.65625 L15.640625,10.65625 L13.890625,11.421875 Z M13.5625,17.0625 L17.203125,17.0625 C16.796875,16.109375 16.171875,14.828125 15.625,13.921875 L12.28125,13.921875 L11.515625,14.25 C12.28125,15.140625 12.953125,16.109375 13.5625,17.0625 Z M13.0625,20.109375 C12.21875,17.203125 10.34375,13.78125 8.25,11.875 L8.546875,11.609375 C9.234375,12.078125 9.890625,12.59375 10.515625,13.203125 L10.515625,8.109375 C10.515625,4.65625 10.3125,1.171875 8.234375,-1.578125 L8.5625,-1.84375 C11.765625,0.84375 11.96875,4.828125 11.96875,8.140625 L11.96875,13.25 L22.65625,13.25 C22.984375,13.25 23.203125,13.375 23.28125,13.609375 C22.53125,14.296875 21.3125,15.234375 21.3125,15.234375 L20.25,13.921875 L16.21875,13.921875 C17.234375,14.8125 18.34375,16.078125 19.03125,16.875 C19.515625,16.890625 19.796875,16.9375 19.984375,17.109375 L18.21875,18.75 L17.25,17.78125 L13.96875,17.78125 C14.234375,18.265625 14.46875,18.75 14.65625,19.203125 C15.265625,19.171875 15.453125,19.296875 15.546875,19.5625 Z" transform="translate(-0.0703125, 20.109375) scale(1, -1)"/>
</svg>