<svg height="21.984375" viewBox="0 0 24 21.984375" width="24" xmlns="http://www.w3.org/2000/svg">
<path d="M3.9375,18.046875 L6.890625,18.046875 L6.890625,13.421875 L3.9375,13.421875 Z M2.46875,18.75 L2.46875,12.03125 C2.46875,7.515625 2.453125,2.421875 0.859375,-1.6875 L1.265625,-1.890625 C2.96875,0.71875 3.578125,4.015625 3.8125,7.125 L6.890625,7.125 L6.890625,0.796875 C6.890625,0.453125 6.765625,0.3125 6.390625,0.3125 C5.96875,0.3125 4.0625,0.484375 4.0625,0.484375 L4.0625,0.09375 C4.9375,-0.046875 5.421875,-0.21875 5.71875,-0.484375 C5.96875,-0.703125 6.09375,-1.125 6.140625,-1.609375 C8.140625,-1.390625 8.359375,-0.640625 8.359375,0.625 L8.359375,17.828125 C8.765625,17.921875 9.125,18.09375 9.234375,18.265625 L7.390625,19.6875 L6.671875,18.75 L4.25,18.75 L2.46875,19.53125 Z M3.9375,12.703125 L6.890625,12.703125 L6.890625,7.828125 L3.84375,7.828125 C3.9375,9.3125 3.9375,10.75 3.9375,12.046875 Z M21.578125,11.640625 C20.953125,10.75 19.609375,9.234375 18.4375,8.109375 C18.03125,9.703125 17.734375,11.375 17.515625,13.015625 C19.109375,13.375 20.5,13.828125 21.59375,14.25 C22.15625,14.0625 22.5625,14.09375 22.75,14.28125 L20.96875,15.765625 C19.109375,14.59375 15.40625,13.25 11.921875,12.625 L11.921875,16.703125 C14.953125,17.046875 18.1875,17.78125 20.28125,18.484375 C20.859375,18.265625 21.265625,18.28125 21.484375,18.484375 L19.65625,20.0625 C18.078125,19.171875 15.09375,18.03125 12.34375,17.296875 L10.4375,17.953125 L10.4375,10.46875 C10.4375,6.28125 10.296875,1.890625 8.25,-1.609375 L8.640625,-1.875 C11.765625,1.578125 11.921875,6.53125 11.921875,10.4375 L11.921875,12.125 C12.640625,12.1875 13.390625,12.265625 14.109375,12.359375 L14.109375,-1.921875 L14.359375,-1.921875 C15.09375,-1.921875 15.59375,-1.53125 15.59375,-1.390625 L15.59375,12.59375 L17.0625,12.90625 C17.515625,6.359375 18.578125,1.203125 21.9375,-1.890625 C22.203125,-1.078125 22.703125,-0.578125 23.296875,-0.4375 L23.359375,-0.1875 C21.03125,1.34375 19.515625,4.25 18.578125,7.609375 C20.015625,8.328125 21.59375,9.28125 22.4375,9.90625 C22.890625,9.703125 23.25,9.8125 23.40625,9.984375 Z" transform="translate(-0.1328125, 20.0625) scale(1, -1)"/>
</svg>