<svg height="21.9375" viewBox="0 0 24 21.9375" width="24" xmlns="http://www.w3.org/2000/svg">
<path d="M3.9375,18.046875 L6.859375,18.046875 L6.859375,13.34375 L3.9375,13.34375 Z M2.46875,18.75 L2.46875,12.03125 C2.46875,7.515625 2.453125,2.421875 0.859375,-1.6875 L1.265625,-1.890625 C2.921875,0.671875 3.546875,3.890625 3.796875,6.953125 L6.859375,6.953125 L6.859375,0.578125 C6.859375,0.21875 6.75,0.078125 6.34375,0.078125 C5.90625,0.078125 3.84375,0.234375 3.84375,0.234375 L3.84375,-0.140625 C4.75,-0.28125 5.296875,-0.453125 5.59375,-0.703125 C5.875,-0.9375 5.96875,-1.375 6.046875,-1.84375 C8.09375,-1.625 8.328125,-0.859375 8.328125,0.390625 L8.328125,17.828125 C8.734375,17.921875 9.09375,18.09375 9.21875,18.265625 L7.375,19.6875 L6.640625,18.75 L4.25,18.75 L2.46875,19.53125 Z M3.9375,12.625 L6.859375,12.625 L6.859375,7.65625 L3.84375,7.65625 C3.9375,9.21875 3.9375,10.703125 3.9375,12.046875 Z M20.046875,20.046875 C18.34375,19.078125 15.1875,17.71875 12.359375,16.84375 L10.53125,17.46875 L10.53125,10.78125 C10.53125,6.625 10.375,2.09375 8.375,-1.625 L8.765625,-1.890625 C11.859375,1.75 12.03125,6.9375 12.03125,10.75 L12.03125,16.203125 C15.140625,16.75 18.53125,17.734375 20.734375,18.5 C21.3125,18.3125 21.71875,18.3125 21.90625,18.546875 Z M17.09375,12.84375 C17.40625,8.8125 17.921875,5.28125 19.109375,2.46875 L15.4375,1.375 L15.4375,12.5 Z M13.921875,13.796875 L13.921875,0.9375 L11.6875,0.359375 L12.75,-1.515625 C12.9375,-1.4375 13.15625,-1.21875 13.203125,-0.90625 C15.796875,0.265625 17.8125,1.265625 19.296875,2.046875 C19.96875,0.53125 20.859375,-0.765625 22.015625,-1.828125 C22.265625,-1.015625 22.796875,-0.5 23.375,-0.390625 L23.421875,-0.140625 C21.125,1.375 19.609375,4.25 18.640625,7.53125 C20.0625,8.234375 21.578125,9.171875 22.390625,9.75 C22.828125,9.546875 23.203125,9.671875 23.359375,9.84375 L21.53125,11.46875 C20.921875,10.609375 19.625,9.125 18.5,8.046875 C18.09375,9.625 17.78125,11.28125 17.5625,12.9375 C19.15625,13.3125 20.6875,13.78125 21.75,14.203125 C22.265625,14.046875 22.6875,14.0625 22.875,14.25 L21.046875,15.703125 C19.890625,14.90625 17.78125,13.875 15.765625,13.171875 Z" transform="translate(-0.140625, 20.046875) scale(1, -1)"/>
</svg>