<svg height="21.84375" viewBox="0 0 24 21.84375" width="24" xmlns="http://www.w3.org/2000/svg">
<path d="M12.859375,7.15625 L12.5,7.03125 C13.015625,5.90625 13.578125,4.46875 13.96875,3.03125 L10.3125,2.453125 C11.140625,4.46875 12,7.390625 12.546875,9.796875 L15.546875,9.796875 C15.890625,9.796875 16.109375,9.90625 16.171875,10.171875 C15.53125,10.828125 14.453125,11.71875 14.453125,11.71875 L13.53125,10.484375 L12.484375,10.484375 L12.484375,15.03125 L15.234375,15.03125 C15.578125,15.03125 15.796875,15.140625 15.859375,15.40625 C15.21875,16.0625 14.234375,16.875 14.234375,16.875 L13.34375,15.71875 L12.484375,15.71875 L12.484375,19.125 C13.015625,19.21875 13.203125,19.4375 13.25,19.75 L11.046875,19.96875 L11.046875,15.71875 L8.28125,15.71875 L8.46875,15.03125 L11.046875,15.03125 L11.046875,10.484375 L7.890625,10.484375 L8.09375,9.796875 L10.796875,9.796875 C10.515625,7.5625 10.015625,4.390625 9.53125,2.328125 L7.6875,2.109375 L8.765625,0.171875 C9,0.234375 9.171875,0.390625 9.28125,0.71875 C11.359375,1.4375 12.90625,2.046875 14.09375,2.5 C14.25,1.828125 14.375,1.15625 14.40625,0.546875 C15.90625,-0.9375 17.234375,2.765625 12.859375,7.15625 Z M16.421875,18.34375 L16.421875,-1.875 L16.65625,-1.875 C17.375,-1.875 17.875,-1.484375 17.875,-1.265625 L17.875,17.640625 L20.6875,17.640625 L20.6875,3.59375 C20.6875,3.265625 20.59375,3.125 20.234375,3.125 C19.875,3.125 18.28125,3.265625 18.28125,3.265625 L18.28125,2.875 C19.03125,2.78125 19.484375,2.609375 19.734375,2.359375 C19.9375,2.109375 20.0625,1.65625 20.09375,1.203125 C21.953125,1.421875 22.15625,2.15625 22.15625,3.40625 L22.15625,17.359375 C22.625,17.453125 23.046875,17.640625 23.15625,17.828125 L21.21875,19.296875 L20.453125,18.34375 L17.96875,18.34375 L16.421875,19.125 Z M3.53125,12.703125 L5.96875,12.703125 L5.96875,7.734375 L3.5,7.734375 L3.53125,10.65625 Z M3.53125,13.390625 L3.53125,18.046875 L5.96875,18.046875 L5.96875,13.390625 Z M2.109375,18.75 L2.109375,10.625 C2.109375,6.484375 2.203125,1.875 0.90625,-1.65625 L1.34375,-1.875 C2.953125,0.625 3.390625,3.9375 3.484375,7.03125 L5.96875,7.03125 L5.96875,0.578125 C5.96875,0.21875 5.859375,0.09375 5.515625,0.09375 C5.109375,0.09375 3.28125,0.234375 3.28125,0.234375 L3.28125,-0.140625 C4.125,-0.265625 4.609375,-0.4375 4.890625,-0.703125 C5.140625,-0.90625 5.25,-1.34375 5.296875,-1.828125 C7.21875,-1.609375 7.421875,-0.84375 7.421875,0.390625 L7.421875,17.8125 C7.875,17.875 8.25,18.078125 8.421875,18.265625 L6.484375,19.703125 L5.734375,18.75 L3.8125,18.75 L2.109375,19.515625 Z" transform="translate(-0.03125, 19.96875) scale(1, -1)"/>
</svg>