<svg height="21.84375" viewBox="0 0 24 21.84375" width="24" xmlns="http://www.w3.org/2000/svg">
<path d="M3.984375,18.046875 L7.125,18.046875 L7.125,13.34375 L3.984375,13.34375 Z M12.125,17.59375 C11.5625,15.84375 10.296875,13.65625 8.640625,12.28125 L8.640625,17.8125 C9.046875,17.90625 9.40625,18.09375 9.546875,18.265625 L7.6875,19.703125 L6.90625,18.75 L4.296875,18.75 L2.5,19.53125 L2.5,12.125 C2.5,7.578125 2.46875,2.46875 0.859375,-1.6875 L1.25,-1.890625 C2.953125,0.671875 3.59375,3.890625 3.84375,6.953125 L7.125,6.953125 L7.125,0.765625 C7.125,0.40625 7.015625,0.265625 6.59375,0.265625 C6.171875,0.265625 4.0625,0.4375 4.0625,0.4375 L4.0625,0.046875 C4.984375,-0.09375 5.546875,-0.28125 5.859375,-0.53125 C6.140625,-0.796875 6.234375,-1.21875 6.3125,-1.703125 C8.40625,-1.484375 8.640625,-0.703125 8.640625,0.578125 L8.640625,12.078125 L8.78125,11.875 C9.53125,12.234375 10.21875,12.703125 10.84375,13.21875 L10.84375,5.6875 L11.09375,5.6875 C11.828125,5.6875 12.34375,6.078125 12.34375,6.1875 L12.34375,6.9375 L13.484375,6.9375 C13.21875,3.078125 12.125,0.53125 8.5,-1.53125 L8.65625,-1.921875 C13.078125,-0.1875 14.6875,2.453125 15.171875,6.9375 L16.65625,6.9375 L16.65625,0.09375 C16.65625,-0.9375 16.921875,-1.34375 18.390625,-1.34375 L19.96875,-1.34375 C22.5625,-1.34375 23.15625,-1.015625 23.15625,-0.359375 C23.15625,-0.046875 23.0625,0.140625 22.625,0.3125 L22.5625,3.765625 L22.21875,3.765625 C21.953125,2.359375 21.71875,0.84375 21.546875,0.453125 C21.484375,0.21875 21.40625,0.171875 21.234375,0.140625 C21.046875,0.125 20.59375,0.125 20.015625,0.125 L18.75,0.125 C18.234375,0.125 18.171875,0.1875 18.171875,0.5 L18.171875,6.9375 L19.265625,6.9375 L19.265625,6.03125 L19.515625,6.03125 C19.984375,6.03125 20.78125,6.390625 20.8125,6.53125 L20.8125,12.484375 C21.171875,12.53125 21.484375,12.71875 21.578125,12.859375 L19.875,14.1875 L19.078125,13.34375 L12.625,13.34375 L11.546875,13.828125 C12.390625,14.609375 13.0625,15.5 13.53125,16.3125 C14.0625,16.265625 14.25,16.390625 14.375,16.609375 Z M3.984375,12.625 L7.125,12.625 L7.125,7.65625 L3.890625,7.65625 C3.984375,9.234375 3.984375,10.78125 3.984375,12.140625 Z M19.265625,12.640625 L19.265625,7.625 L12.34375,7.625 L12.34375,12.640625 Z M12.359375,18.859375 L12.578125,18.171875 L18.03125,18.171875 C18.59375,15.9375 19.984375,13.96875 21.90625,12.625 C22.078125,13.21875 22.625,13.734375 23.25,13.84375 L23.28125,14.140625 C21.1875,15.03125 19.390625,16.5625 18.625,18.125 C19.34375,18.171875 19.921875,18.34375 20.109375,18.59375 L18.21875,19.921875 L17.515625,18.859375 Z" transform="translate(-0.0703125, 19.921875) scale(1, -1)"/>
</svg>