<svg height="21.828125" viewBox="0 0 24 21.828125" width="24" xmlns="http://www.w3.org/2000/svg">
<path d="M10.375,18.140625 C10.421875,17.09375 9.765625,15.90625 9.140625,15.453125 C8.65625,15.171875 8.375,14.65625 8.609375,14.15625 C8.875,13.625 9.71875,13.6875 10.171875,14.09375 C10.65625,14.5 11.015625,15.28125 11.046875,16.390625 L13.109375,16.390625 C12.9375,12.9375 12.125,10.796875 8.90625,9.03125 L9.078125,8.65625 C12.9375,10.125 14.296875,12.34375 14.609375,16.390625 L16.65625,16.390625 L16.65625,11.25 C16.65625,10.265625 16.890625,9.9375 18.34375,9.9375 L19.875,9.9375 C22.390625,9.9375 22.984375,10.21875 22.984375,10.828125 C22.984375,11.140625 22.875,11.296875 22.390625,11.46875 L22.3125,13.5625 L22.03125,13.5625 C21.84375,12.671875 21.625,11.765625 21.484375,11.5 C21.40625,11.359375 21.3125,11.296875 21.140625,11.296875 C20.953125,11.28125 20.5,11.28125 19.9375,11.28125 L18.671875,11.28125 C18.171875,11.28125 18.125,11.359375 18.125,11.640625 L18.125,16.390625 L20.59375,16.390625 L20.09375,14.1875 L20.40625,14.015625 C21,14.5625 21.8125,15.5 22.265625,16.15625 C22.75,16.171875 23.015625,16.203125 23.1875,16.375 L21.453125,18.078125 L20.46875,17.09375 L16.515625,17.09375 L16.515625,19.171875 C16.96875,19.25 17.15625,19.4375 17.1875,19.734375 L14.953125,19.9375 L14.953125,17.09375 L10.984375,17.09375 C10.9375,17.421875 10.875,17.78125 10.78125,18.140625 Z M8.875,-0.046875 L9.078125,-0.765625 L22.625,-0.765625 C22.96875,-0.765625 23.15625,-0.640625 23.203125,-0.390625 C22.515625,0.34375 21.328125,1.25 21.328125,1.25 L20.328125,-0.046875 L16.484375,-0.046875 L16.484375,6.4375 L21.75,6.4375 C22.078125,6.4375 22.296875,6.546875 22.375,6.8125 C21.671875,7.484375 20.546875,8.359375 20.546875,8.359375 L19.5625,7.15625 L9.859375,7.15625 L10.0625,6.4375 L14.921875,6.4375 L14.921875,-0.046875 Z M3.9375,18.046875 L6.765625,18.046875 L6.765625,13.34375 L3.9375,13.34375 Z M2.46875,18.75 L2.46875,12.03125 C2.46875,7.515625 2.453125,2.421875 0.859375,-1.6875 L1.265625,-1.890625 C2.921875,0.671875 3.546875,3.890625 3.796875,6.953125 L6.765625,6.953125 L6.765625,0.59375 C6.765625,0.234375 6.640625,0.09375 6.21875,0.09375 C5.78125,0.09375 3.671875,0.265625 3.671875,0.265625 L3.671875,-0.125 C4.609375,-0.234375 5.15625,-0.4375 5.46875,-0.703125 C5.765625,-0.9375 5.875,-1.34375 5.921875,-1.828125 C7.984375,-1.609375 8.234375,-0.8125 8.234375,0.40625 L8.234375,17.828125 C8.65625,17.921875 9,18.09375 9.140625,18.265625 L7.265625,19.6875 L6.546875,18.75 L4.25,18.75 L2.46875,19.53125 Z M3.9375,12.625 L6.765625,12.625 L6.765625,7.65625 L3.84375,7.65625 C3.9375,9.21875 3.9375,10.703125 3.9375,12.046875 Z" transform="translate(-0.03125, 19.9375) scale(1, -1)"/>
</svg>