<svg height="21.859375" viewBox="0 0 24 21.859375" width="24" xmlns="http://www.w3.org/2000/svg">
<path d="M12.53125,13.578125 C11.859375,11.1875 10.484375,9.390625 8.90625,8.328125 L9.1875,8.015625 C11.09375,8.734375 12.75,10.171875 13.78125,12.359375 C14.25,12.3125 14.546875,12.5 14.65625,12.765625 Z M10.390625,18.3125 C10.4375,17.25 9.859375,16.078125 9.21875,15.625 C8.765625,15.28125 8.46875,14.828125 8.734375,14.328125 C8.96875,13.796875 9.8125,13.875 10.25,14.25 C10.703125,14.65625 11.0625,15.484375 11.0625,16.578125 L20.765625,16.578125 C20.5625,15.84375 20.296875,14.875 20.109375,14.359375 L20.46875,14.15625 C21.09375,14.71875 21.984375,15.671875 22.46875,16.3125 C22.9375,16.34375 23.1875,16.375 23.375,16.5625 L21.625,18.265625 L20.65625,17.25 L16.53125,17.25 L16.53125,19.203125 C16.984375,19.265625 17.1875,19.46875 17.203125,19.75 L14.953125,19.96875 L14.953125,17.25 L11.015625,17.25 C10.96875,17.59375 10.890625,17.953125 10.796875,18.3125 Z M8.875,-0.046875 L9.078125,-0.765625 L22.625,-0.765625 C22.96875,-0.765625 23.15625,-0.640625 23.203125,-0.390625 C22.515625,0.34375 21.328125,1.25 21.328125,1.25 L20.328125,-0.046875 L16.484375,-0.046875 L16.484375,6.4375 L21.359375,6.4375 C21.640625,6.4375 21.90625,6.546875 21.953125,6.8125 C21.265625,7.484375 20.109375,8.359375 20.109375,8.359375 L19.15625,7.15625 L10.15625,7.15625 L10.34375,6.4375 L14.921875,6.4375 L14.921875,-0.046875 Z M3.9375,18.046875 L6.8125,18.046875 L6.8125,13.34375 L3.9375,13.34375 Z M2.46875,18.75 L2.46875,12.03125 C2.46875,7.515625 2.453125,2.421875 0.859375,-1.6875 L1.265625,-1.890625 C2.921875,0.671875 3.546875,3.890625 3.796875,6.953125 L6.8125,6.953125 L6.8125,0.59375 C6.8125,0.234375 6.703125,0.09375 6.265625,0.09375 C5.828125,0.09375 3.75,0.265625 3.75,0.265625 L3.75,-0.125 C4.6875,-0.265625 5.234375,-0.4375 5.546875,-0.703125 C5.8125,-0.9375 5.921875,-1.375 6,-1.84375 C8.046875,-1.609375 8.28125,-0.84375 8.28125,0.40625 L8.28125,17.828125 C8.71875,17.921875 9.046875,18.09375 9.171875,18.265625 L7.3125,19.6875 L6.59375,18.75 L4.25,18.75 L2.46875,19.53125 Z M3.9375,12.625 L6.8125,12.625 L6.8125,7.65625 L3.84375,7.65625 C3.9375,9.21875 3.9375,10.703125 3.9375,12.046875 Z M13.515625,14.515625 L13.703125,13.828125 L17.546875,13.828125 C18.125,11.40625 19.5625,9.578125 21.90625,8.328125 C22.078125,8.875 22.578125,9.28125 23.109375,9.4375 L23.15625,9.75 C20.640625,10.53125 18.84375,12.078125 18.171875,13.796875 C18.84375,13.828125 19.390625,13.96875 19.625,14.234375 L17.765625,15.53125 L17.046875,14.515625 Z" transform="translate(-0.1171875, 19.96875) scale(1, -1)"/>
</svg>