<svg height="22.0625" viewBox="0 0 24 22.0625" width="24" xmlns="http://www.w3.org/2000/svg">
<path d="M9.8125,15.3125 L9.8125,8.515625 L10.03125,8.515625 C10.609375,8.515625 11.234375,8.8125 11.234375,8.96875 L11.234375,14.609375 L13.296875,14.609375 L13.296875,9.390625 L13.484375,9.390625 C14.15625,9.390625 14.640625,9.71875 14.640625,9.84375 L14.640625,10.703125 L16.84375,10.703125 L16.84375,9.546875 L17.046875,9.546875 C17.734375,9.546875 18.21875,9.90625 18.21875,10.03125 L18.21875,14.609375 L20.453125,14.609375 L20.453125,8.71875 L20.65625,8.71875 C21.171875,8.71875 21.890625,9.046875 21.90625,9.1875 L21.90625,14.375 C22.3125,14.46875 22.6875,14.65625 22.828125,14.828125 L21.03125,16.203125 L20.203125,15.3125 L18.21875,15.3125 L18.21875,17.71875 L22.4375,17.71875 C22.78125,17.71875 23.015625,17.828125 23.09375,18.09375 C22.3125,18.796875 21.078125,19.78125 21.078125,19.78125 L19.96875,18.40625 L9.40625,18.40625 L9.59375,17.71875 L13.296875,17.71875 L13.296875,15.3125 L11.375,15.3125 L9.8125,16.015625 Z M14.640625,11.40625 L14.640625,14.609375 L16.84375,14.609375 L16.84375,11.40625 Z M14.640625,17.71875 L16.84375,17.71875 L16.84375,15.3125 L14.640625,15.3125 Z M14.375,9.53125 C14.109375,8.828125 13.65625,7.796875 13.078125,6.703125 L8.78125,6.703125 L8.953125,5.96875 L12.71875,5.96875 C11.90625,4.390625 10.9375,2.734375 10.265625,1.796875 C10.84375,1.515625 11.46875,1.46875 11.859375,1.609375 L12.53125,2.765625 C13.703125,2.421875 14.78125,2.046875 15.765625,1.625 C14.140625,0.1875 11.8125,-0.796875 8.546875,-1.484375 L8.65625,-1.921875 C12.578125,-1.375 15.21875,-0.453125 17.046875,1.0625 C19.015625,0.125 20.46875,-0.890625 21.28125,-1.734375 C22.875,-2.28125 23.375,0.28125 18.078125,2.0625 C18.984375,3.140625 19.609375,4.421875 20.09375,5.96875 L22.515625,5.96875 C22.875,5.96875 23.09375,6.09375 23.15625,6.359375 C22.4375,7.0625 21.28125,7.96875 21.28125,7.96875 L20.28125,6.703125 L14.65625,6.703125 C15.046875,7.4375 15.359375,8.09375 15.546875,8.546875 C16.171875,8.546875 16.4375,8.734375 16.53125,9.046875 Z M14.296875,5.96875 L18.359375,5.96875 C17.96875,4.609375 17.421875,3.484375 16.609375,2.5 C15.53125,2.78125 14.25,3.03125 12.796875,3.21875 Z M3.9375,18.046875 L6.75,18.046875 L6.75,13.34375 L3.9375,13.34375 Z M2.46875,18.75 L2.46875,11.90625 C2.46875,7.390625 2.453125,2.375 0.859375,-1.6875 L1.265625,-1.890625 C2.953125,0.703125 3.578125,3.890625 3.796875,6.953125 L6.75,6.953125 L6.75,0.578125 C6.75,0.21875 6.640625,0.078125 6.21875,0.078125 C5.78125,0.078125 3.71875,0.234375 3.71875,0.234375 L3.71875,-0.140625 C4.65625,-0.28125 5.1875,-0.453125 5.5,-0.703125 C5.765625,-0.9375 5.875,-1.390625 5.921875,-1.875 C7.96875,-1.625 8.203125,-0.859375 8.203125,0.390625 L8.203125,17.828125 C8.640625,17.921875 8.96875,18.09375 9.125,18.265625 L7.25,19.6875 L6.53125,18.75 L4.25,18.75 L2.46875,19.53125 Z M3.9375,12.625 L6.75,12.625 L6.75,7.65625 L3.84375,7.65625 C3.9375,9.171875 3.9375,10.609375 3.9375,11.921875 Z" transform="translate(-0.1171875, 19.78125) scale(1, -1)"/>
</svg>