<svg height="22.171875" viewBox="0 0 24 22.171875" width="24" xmlns="http://www.w3.org/2000/svg">
<path d="M13.265625,10.421875 L11.1875,10.421875 L11.1875,14.609375 L13.265625,14.609375 Z M14.609375,10.421875 L14.609375,14.609375 L16.875,14.609375 L16.875,10.421875 Z M18.234375,10.421875 L18.234375,14.609375 L20.46875,14.609375 L20.46875,10.421875 Z M9.796875,15.3125 L9.796875,8.5625 L10.015625,8.5625 C10.578125,8.5625 11.1875,8.859375 11.1875,9.03125 L11.1875,9.71875 L20.46875,9.71875 L20.46875,8.78125 L20.6875,8.78125 C21.1875,8.78125 21.90625,9.140625 21.9375,9.34375 L21.9375,14.40625 C22.34375,14.46875 22.703125,14.65625 22.84375,14.828125 L21.046875,16.203125 L20.25,15.3125 L18.234375,15.3125 L18.234375,17.71875 L22.421875,17.71875 C22.75,17.71875 22.984375,17.828125 23.046875,18.09375 C22.265625,18.8125 21.03125,19.796875 21.03125,19.796875 L19.9375,18.40625 L9.390625,18.40625 L9.578125,17.71875 L13.265625,17.71875 L13.265625,15.3125 L11.359375,15.3125 L9.796875,16.03125 Z M14.609375,17.71875 L16.875,17.71875 L16.875,15.3125 L14.609375,15.3125 Z M14.328125,9.671875 C14.0625,8.96875 13.578125,7.921875 13.015625,6.796875 L8.765625,6.796875 L8.921875,6.078125 L12.640625,6.078125 C11.8125,4.484375 10.890625,2.859375 10.21875,1.9375 C10.796875,1.625 11.453125,1.5625 11.828125,1.734375 L12.484375,2.8125 C13.65625,2.46875 14.765625,2.0625 15.765625,1.625 C14.203125,0.1875 11.875,-0.765625 8.5625,-1.4375 L8.6875,-1.875 C12.625,-1.375 15.265625,-0.453125 17.0625,1.03125 C19.015625,0.078125 20.46875,-0.984375 21.28125,-1.828125 C22.84375,-2.375 23.375,0.1875 18.078125,2.0625 C18.953125,3.140625 19.578125,4.46875 19.984375,6.078125 L22.515625,6.078125 C22.84375,6.078125 23.0625,6.1875 23.140625,6.453125 C22.421875,7.15625 21.265625,8.046875 21.265625,8.046875 L20.25,6.796875 L14.609375,6.796875 C15.03125,7.5625 15.34375,8.234375 15.546875,8.6875 C16.15625,8.6875 16.4375,8.875 16.515625,9.21875 Z M14.25,6.078125 L18.234375,6.078125 C17.90625,4.65625 17.375,3.484375 16.609375,2.515625 C15.5,2.8125 14.234375,3.078125 12.75,3.28125 Z M4.015625,18.046875 L6.75,18.046875 L6.75,13.421875 L4.015625,13.421875 Z M2.546875,18.75 L2.546875,11.15625 C2.546875,6.796875 2.5,2.0625 0.84375,-1.6875 L1.21875,-1.890625 C3.125,0.671875 3.71875,3.984375 3.90625,7.125 L6.75,7.125 L6.75,0.578125 C6.75,0.21875 6.640625,0.078125 6.21875,0.078125 C5.78125,0.078125 3.71875,0.234375 3.71875,0.234375 L3.71875,-0.140625 C4.65625,-0.265625 5.1875,-0.453125 5.5,-0.71875 C5.765625,-0.9375 5.875,-1.375 5.953125,-1.828125 C7.984375,-1.609375 8.203125,-0.84375 8.203125,0.390625 L8.203125,17.828125 C8.640625,17.921875 8.96875,18.09375 9.125,18.265625 L7.265625,19.6875 L6.53125,18.75 L4.3125,18.75 L2.546875,19.53125 Z M4.015625,12.703125 L6.75,12.703125 L6.75,7.828125 L3.953125,7.828125 C4.015625,9 4.015625,10.125 4.015625,11.1875 Z" transform="translate(-0.109375, 19.796875) scale(1, -1)"/>
</svg>