<svg height="21.484375" viewBox="0 0 24 21.484375" width="24" xmlns="http://www.w3.org/2000/svg">
<path d="M9.390625,18.859375 L9.09375,18.71875 C9.8125,17.640625 10.609375,15.9375 10.65625,14.59375 C12.046875,13.3125 13.5625,16.421875 9.390625,18.859375 Z M19.6875,17.8125 L19.6875,15.078125 L15.171875,15.078125 L15.171875,17.8125 Z M21.578125,10.34375 C20.953125,9.625 19.609375,8.234375 18.484375,7.265625 C17.859375,8.328125 17.375,9.53125 17.046875,10.78125 L19.6875,10.78125 L19.6875,9.9375 L19.890625,9.9375 C20.421875,9.9375 21.171875,10.3125 21.1875,10.484375 L21.1875,17.609375 C21.578125,17.6875 21.90625,17.859375 22.03125,18.03125 L20.28125,19.390625 L19.484375,18.5 L15.28125,18.5 L13.703125,19.265625 L13.703125,3.8125 L12.234375,3.484375 L13.3125,1.6875 C13.515625,1.75 13.6875,1.96875 13.78125,2.25 C15.90625,3.21875 17.546875,4.015625 18.71875,4.609375 C19.53125,3.3125 20.59375,2.28125 21.9375,1.484375 C22.109375,2.1875 22.5625,2.59375 23.140625,2.734375 L23.15625,2.96875 C21.3125,3.71875 19.828125,5.109375 18.71875,6.859375 C20.09375,7.484375 21.625,8.40625 22.34375,8.875 C22.65625,8.734375 22.890625,8.765625 23.015625,8.90625 Z M15.171875,14.359375 L19.6875,14.359375 L19.6875,11.5 L15.171875,11.5 Z M15.171875,10.78125 L16.53125,10.78125 C16.96875,8.546875 17.5625,6.625 18.484375,5.046875 L15.171875,4.15625 Z M3.8125,18.046875 L6.4375,18.046875 L6.4375,13.4375 L3.8125,13.4375 Z M2.375,18.75 L2.375,10.78125 C2.375,6.578125 2.421875,1.984375 1.015625,-1.578125 L1.421875,-1.796875 C3.171875,0.71875 3.625,4.03125 3.765625,7.15625 L6.4375,7.15625 L6.4375,0.53125 C6.4375,0.1875 6.3125,0.078125 5.953125,0.078125 C5.546875,0.078125 3.8125,0.21875 3.8125,0.21875 L3.8125,-0.171875 C4.625,-0.28125 5.09375,-0.453125 5.375,-0.703125 C5.609375,-0.9375 5.71875,-1.375 5.734375,-1.796875 C7.6875,-1.609375 7.890625,-0.859375 7.890625,0.390625 L7.890625,17.828125 C8.296875,17.921875 8.65625,18.09375 8.8125,18.265625 L6.953125,19.6875 L6.21875,18.75 L4.125,18.75 L2.375,19.53125 Z M3.8125,12.75 L6.4375,12.75 L6.4375,7.875 L3.796875,7.875 L3.8125,10.796875 Z M11.640625,2.25 L11.609375,2.609375 L11.609375,9.265625 C12.03125,9.34375 12.359375,9.53125 12.5,9.703125 L10.828125,11.015625 L10.03125,10.171875 L8.109375,10.171875 L8.328125,9.484375 L10.25,9.484375 L10.25,1.515625 C9.484375,0.890625 8.6875,0.28125 8.15625,-0.046875 L9.21875,-1.703125 C9.40625,-1.578125 9.484375,-1.4375 9.4375,-1.171875 C9.953125,-0.484375 10.84375,0.796875 11.40625,1.734375 C12.484375,-0.71875 13.890625,-1.265625 16.84375,-1.265625 C18.640625,-1.265625 20.640625,-1.265625 22.296875,-1.265625 C22.375,-0.625 22.65625,-0.171875 23.203125,-0.09375 L23.203125,0.234375 C21.28125,0.1875 18.796875,0.1875 16.84375,0.1875 C14.140625,0.1875 12.8125,0.484375 11.640625,2.25 Z" transform="translate(-0.109375, 19.6875) scale(1, -1)"/>
</svg>