<svg height="22.125" viewBox="0 0 24 22.125" width="24" xmlns="http://www.w3.org/2000/svg">
<path d="M18.671875,16.65625 L18.4375,16.4375 C19.015625,15.984375 19.78125,15.21875 20.0625,14.640625 C21.265625,13.890625 22.265625,16.125 18.671875,16.65625 Z M12.28125,7.796875 L15.5,7.796875 L15.5,5.25 L12.28125,5.25 Z M12.28125,8.515625 L12.28125,10.5625 L13.65625,10.5625 L13.65625,8.515625 Z M15.390625,8.515625 L14.859375,8.515625 L14.859375,10.5625 L16.78125,10.5625 C17.015625,10.5625 17.203125,10.625 17.25,10.84375 C17.453125,8.28125 17.828125,5.90625 18.53125,3.8125 C18.21875,3.171875 17.859375,2.546875 17.46875,1.96875 C16.9375,2.46875 16.34375,2.96875 16.34375,2.96875 L15.578125,1.984375 L14.859375,1.984375 L14.859375,4.5625 L15.5,4.5625 L15.5,3.984375 L15.671875,3.984375 C16.078125,3.984375 16.6875,4.25 16.703125,4.390625 L16.703125,7.84375 C16.890625,7.890625 17.109375,8.015625 17.1875,8.109375 L15.984375,9.046875 Z M12.28125,4.5625 L13.65625,4.5625 L13.65625,1.984375 L12.28125,1.984375 Z M7.84375,17.609375 L8.046875,16.890625 L11.8125,16.890625 L11.8125,14.6875 L12.078125,14.6875 C12.59375,14.6875 13.25,15.03125 13.25,15.1875 L13.25,16.890625 L16.25,16.890625 L16.25,14.90625 L16.53125,14.90625 C16.703125,14.90625 16.921875,14.953125 17.09375,15 L17.109375,13.734375 L10.203125,13.734375 L8.5625,14.46875 L8.5625,7.421875 C8.5625,4.203125 8.515625,0.90625 6.9375,-1.578125 L7.296875,-1.875 C9.8125,0.640625 9.90625,4.3125 9.90625,7.4375 L9.90625,13.03125 L17.140625,13.03125 L17.25,11.015625 C16.734375,11.5625 15.984375,12.21875 15.984375,12.21875 L15.234375,11.28125 L12.578125,11.28125 L11.109375,11.953125 L11.109375,-0.40625 L11.28125,-0.40625 C11.875,-0.40625 12.28125,-0.078125 12.28125,0.03125 L12.28125,1.296875 L16.984375,1.296875 C16.265625,0.34375 15.453125,-0.53125 14.5,-1.25 L14.734375,-1.5625 C16.53125,-0.453125 17.90625,0.984375 18.953125,2.609375 C19.4375,1.4375 20.046875,0.390625 20.765625,-0.578125 C21.4375,-1.484375 22.625,-2.203125 23.1875,-1.625 C23.40625,-1.421875 23.328125,-1.0625 22.828125,-0.1875 L23.15625,3.046875 L22.84375,3.09375 C22.625,2.296875 22.296875,1.296875 22.078125,0.84375 C21.890625,0.390625 21.796875,0.390625 21.53125,0.765625 C20.78125,1.6875 20.234375,2.8125 19.796875,4.03125 C20.875,6.09375 21.53125,8.328125 21.9375,10.375 C22.609375,10.375 22.796875,10.515625 22.890625,10.828125 L20.65625,11.359375 C20.453125,9.5 20.015625,7.5625 19.3125,5.6875 C18.796875,7.984375 18.59375,10.5625 18.546875,13.03125 L22.421875,13.03125 C22.75,13.03125 22.96875,13.15625 23.046875,13.421875 C22.3125,14.0625 21.234375,14.921875 21.234375,14.921875 L20.25,13.734375 L18.546875,13.734375 L18.546875,14.546875 C19.078125,14.609375 19.265625,14.90625 19.3125,15.171875 L17.6875,15.359375 L17.734375,15.40625 L17.734375,16.890625 L22.203125,16.890625 C22.53125,16.890625 22.75,17.015625 22.828125,17.28125 C22.109375,17.96875 20.953125,18.890625 20.953125,18.890625 L19.9375,17.609375 L17.734375,17.609375 L17.734375,19.078125 C18.265625,19.15625 18.453125,19.375 18.53125,19.65625 L16.25,19.890625 L16.25,17.609375 L13.25,17.609375 L13.25,19.078125 C13.796875,19.15625 14.015625,19.375 14.0625,19.6875 L11.8125,19.921875 L11.8125,17.609375 Z M3.546875,12.75 L5.78125,12.75 L5.78125,7.84375 L3.546875,7.84375 L3.546875,9.9375 Z M3.546875,13.4375 L3.546875,18.046875 L5.78125,18.046875 L5.78125,13.4375 Z M2.140625,18.75 L2.140625,9.90625 C2.140625,5.953125 2.25,1.625 1.03125,-1.578125 L1.46875,-1.796875 C3.125,0.671875 3.453125,4.015625 3.53125,7.15625 L5.78125,7.15625 L5.78125,0.84375 C5.78125,0.484375 5.6875,0.359375 5.328125,0.359375 C4.9375,0.359375 3.171875,0.5 3.171875,0.5 L3.171875,0.125 C3.984375,0 4.4375,-0.1875 4.734375,-0.4375 C4.96875,-0.640625 5.09375,-1.078125 5.140625,-1.515625 C7.015625,-1.3125 7.21875,-0.59375 7.21875,0.640625 L7.21875,17.8125 C7.65625,17.875 8.0625,18.078125 8.234375,18.265625 L6.3125,19.703125 L5.546875,18.75 L3.8125,18.75 L2.140625,19.515625 Z" transform="translate(-0.21875, 19.921875) scale(1, -1)"/>
</svg>