<svg height="22.390625" viewBox="0 0 24 22.390625" width="24" xmlns="http://www.w3.org/2000/svg">
<path d="M3.3125,12.765625 L5.546875,12.765625 L5.546875,7.890625 L3.28125,7.890625 L3.3125,10.6875 Z M3.3125,13.46875 L3.3125,18.046875 L5.546875,18.046875 L5.546875,13.46875 Z M1.9375,18.75 L1.9375,10.65625 C1.9375,6.578125 2.09375,1.96875 0.890625,-1.578125 L1.296875,-1.796875 C2.8125,0.75 3.1875,4.078125 3.28125,7.203125 L5.546875,7.203125 L5.546875,0.453125 C5.546875,0.09375 5.453125,-0.03125 5.09375,-0.03125 C4.6875,-0.03125 2.953125,0.125 2.953125,0.125 L2.953125,-0.265625 C3.765625,-0.359375 4.21875,-0.53125 4.484375,-0.765625 C4.734375,-1.015625 4.84375,-1.4375 4.890625,-1.875 C6.75,-1.65625 6.9375,-0.90625 6.9375,0.265625 L6.9375,17.8125 C7.375,17.875 7.78125,18.078125 7.921875,18.265625 L6.046875,19.6875 L5.328125,18.75 L3.578125,18.75 L1.9375,19.515625 Z M19.109375,16.5625 L18.90625,16.171875 C19.84375,15.671875 20.6875,14.96875 21.078125,14.546875 L20.46875,13.828125 L19.03125,13.828125 L19.03125,14.78125 C19.609375,14.859375 19.796875,15.125 19.84375,15.390625 L17.96875,15.625 L18,15.640625 L18,16.984375 L22.53125,16.984375 C22.875,16.984375 23.109375,17.109375 23.15625,17.375 C22.421875,18.09375 21.21875,19.03125 21.21875,19.03125 L20.15625,17.6875 L18,17.6875 L18,19.125 C18.59375,19.21875 18.796875,19.4375 18.859375,19.796875 L16.515625,20.015625 L16.515625,17.6875 L13.171875,17.6875 L13.171875,19.21875 C13.78125,19.3125 13.984375,19.53125 14.046875,19.890625 L11.71875,20.109375 L11.71875,17.6875 L8.09375,17.6875 L8.28125,16.984375 L11.71875,16.984375 L11.71875,14.734375 L11.953125,14.734375 C12.53125,14.734375 13.171875,15.03125 13.171875,15.1875 L13.171875,16.984375 L16.515625,16.984375 L16.515625,15.1875 L16.78125,15.1875 C17.109375,15.1875 17.46875,15.28125 17.6875,15.40625 L17.71875,13.828125 L11.90625,13.828125 L10.296875,14.5625 L10.296875,9.90625 L9.078125,9.90625 L9.078125,13.25 C9.484375,13.34375 9.640625,13.484375 9.703125,13.734375 L7.890625,13.9375 L7.890625,7.78125 L8.140625,7.78125 C8.5625,7.78125 9.078125,8.09375 9.078125,8.25 L9.078125,9.1875 L10.296875,9.1875 L10.296875,8.328125 L10.296875,6.71875 L7.078125,6.71875 L7.296875,6 L8.25,6 C8.25,4.21875 8.1875,2.328125 7.53125,0.71875 L7.9375,0.34375 C9.125,1.890625 9.34375,4.015625 9.40625,6 L10.265625,6 C10.21875,3.3125 9.953125,0.578125 8.859375,-1.6875 L9.21875,-1.96875 C11.5625,0.953125 11.609375,5.1875 11.609375,8.328125 L11.609375,13.125 L17.71875,13.125 L17.8125,10.890625 C17.203125,11.453125 16.375,12.125 16.375,12.125 L15.578125,11.203125 L13.984375,11.203125 L12.390625,11.953125 L12.390625,0.390625 L12.546875,0.390625 C13.15625,0.390625 13.5625,0.84375 13.5625,0.984375 L13.5625,1.625 L17.46875,1.625 L17.640625,1.65625 C16.890625,0.4375 16.0625,-0.625 15.125,-1.53125 L15.4375,-1.84375 C16.921875,-0.75 18.1875,0.671875 19.25,2.421875 C19.625,1.3125 20.109375,0.3125 20.71875,-0.59375 C21.328125,-1.515625 22.484375,-2.28125 23.0625,-1.734375 C23.25,-1.515625 23.1875,-1.171875 22.703125,-0.3125 L23.0625,3 L22.75,3.046875 C22.515625,2.234375 22.203125,1.21875 21.984375,0.765625 C21.796875,0.28125 21.71875,0.28125 21.484375,0.703125 C20.859375,1.609375 20.40625,2.71875 20.046875,3.90625 C20.90625,5.734375 21.578125,7.84375 22.015625,10.21875 C22.5625,10.25 22.796875,10.46875 22.890625,10.78125 L20.734375,11.234375 C20.5,9.3125 20.109375,7.53125 19.578125,5.921875 C19.15625,8.1875 19.03125,10.703125 19.03125,13.125 L22.53125,13.125 C22.84375,13.125 23.09375,13.25 23.140625,13.515625 L21.90625,14.59375 C22.375,15.09375 21.953125,16.375 19.109375,16.5625 Z M13.5625,10.484375 L14.609375,10.484375 L14.609375,8.421875 L13.5625,8.421875 Z M17.8125,10.84375 C17.953125,8.296875 18.21875,5.96875 18.796875,3.859375 C18.53125,3.265625 18.234375,2.6875 17.921875,2.140625 C17.40625,2.65625 16.65625,3.3125 16.65625,3.3125 L15.90625,2.328125 L15.671875,2.328125 L15.671875,4.828125 L16.296875,4.828125 L16.296875,4.296875 L16.46875,4.296875 C16.828125,4.296875 17.40625,4.5625 17.421875,4.734375 L17.421875,7.78125 C17.640625,7.828125 17.859375,7.9375 17.921875,8.046875 L16.75,8.953125 L16.171875,8.421875 L15.671875,8.421875 L15.671875,10.484375 L17.234375,10.484375 C17.515625,10.484375 17.734375,10.578125 17.8125,10.84375 Z M13.5625,2.328125 L13.5625,4.828125 L14.609375,4.828125 L14.609375,2.328125 Z M13.5625,7.703125 L16.296875,7.703125 L16.296875,5.546875 L13.5625,5.546875 Z" transform="translate(-0.0703125, 20.109375) scale(1, -1)"/>
</svg>