<svg height="20.53125" viewBox="0 0 24 20.53125" width="24" xmlns="http://www.w3.org/2000/svg">
<path d="M14.453125,15.84375 L14.203125,15.578125 C15.40625,14.8125 16.84375,13.703125 18.078125,12.53125 C14.40625,12.3125 10.875,12.125 7.984375,12 C9.234375,13.46875 10.78125,15.640625 11.90625,17.515625 L21.9375,17.515625 C22.265625,17.515625 22.515625,17.640625 22.5625,17.90625 C21.703125,18.671875 20.328125,19.734375 20.328125,19.734375 L19.109375,18.234375 L1.5625,18.234375 L1.78125,17.515625 L9.75,17.515625 C9.078125,15.796875 7.984375,13.515625 7.125,11.96875 C5.09375,11.875 3.4375,11.828125 2.28125,11.828125 L3.265625,9.71875 C3.5,9.765625 3.75,9.9375 3.90625,10.171875 C10.296875,10.875 14.96875,11.453125 18.59375,11.96875 C19.390625,11.15625 20.046875,10.34375 20.421875,9.578125 C22.484375,8.515625 22.96875,13.03125 14.453125,15.84375 Z M1.015625,-0.09375 L1.203125,-0.796875 L22.4375,-0.796875 C22.78125,-0.796875 22.984375,-0.703125 23.0625,-0.4375 C22.171875,0.390625 20.765625,1.46875 20.765625,1.46875 L19.515625,-0.09375 L12.765625,-0.09375 L12.765625,5.421875 L20.328125,5.421875 C20.65625,5.421875 20.875,5.546875 20.953125,5.78125 C20.09375,6.578125 18.71875,7.625 18.71875,7.625 L17.5,6.125 L12.765625,6.125 L12.765625,9.125 C13.34375,9.21875 13.578125,9.453125 13.625,9.796875 L11.15625,10.0625 L11.15625,6.125 L3.359375,6.125 L3.546875,5.421875 L11.15625,5.421875 L11.15625,-0.09375 Z" transform="translate(-0.0390625, 19.734375) scale(1, -1)"/>
</svg>