<svg height="22.0625" viewBox="0 0 24 22.0625" width="24" xmlns="http://www.w3.org/2000/svg">
<path d="M11.359375,13.578125 L11.359375,12 L6.75,12 L6.75,13.578125 Z M11.71875,16.5625 L11.046875,14.296875 L7.0625,14.296875 L6.890625,14.375 C7.203125,14.828125 7.484375,15.265625 7.75,15.703125 C8.28125,15.625 8.46875,15.703125 8.546875,15.90625 C9.078125,15.953125 9.484375,16.109375 9.484375,16.25 L9.484375,17.328125 L14.359375,17.328125 L14.359375,15.9375 L14.609375,15.9375 C15.390625,15.9375 15.890625,16.203125 15.890625,16.3125 L15.890625,17.328125 L21.890625,17.328125 C22.21875,17.328125 22.484375,17.453125 22.53125,17.71875 C21.765625,18.4375 20.515625,19.390625 20.515625,19.390625 L19.4375,18.046875 L15.890625,18.046875 L15.890625,19.296875 C16.484375,19.390625 16.703125,19.609375 16.75,19.9375 L14.359375,20.1875 L14.359375,18.046875 L9.484375,18.046875 L9.484375,19.296875 C10.078125,19.390625 10.296875,19.609375 10.3125,19.921875 L7.9375,20.1875 L7.9375,18.046875 L1.46875,18.046875 L1.609375,17.328125 L7.9375,17.328125 L7.9375,16.171875 L6.40625,16.625 C5.40625,14.25 3.4375,11.453125 1.390625,9.84375 L1.6875,9.546875 C2.921875,10.265625 4.15625,11.28125 5.203125,12.390625 L5.203125,5.421875 L5.46875,5.421875 C6.234375,5.421875 6.75,5.8125 6.75,5.953125 L6.75,6.59375 L20.96875,6.59375 C21.28125,6.59375 21.53125,6.71875 21.578125,6.984375 C20.828125,7.625 19.6875,8.5 19.6875,8.5 L18.640625,7.296875 L12.859375,7.296875 L12.859375,8.953125 L18.8125,8.953125 C19.15625,8.953125 19.375,9.078125 19.4375,9.34375 C18.71875,9.953125 17.65625,10.75 17.65625,10.75 L16.703125,9.640625 L12.859375,9.640625 L12.859375,11.28125 L18.640625,11.28125 C18.984375,11.28125 19.21875,11.40625 19.296875,11.65625 C18.578125,12.28125 17.5,13.078125 17.5,13.078125 L16.53125,12 L12.859375,12 L12.859375,13.578125 L19.96875,13.578125 C20.28125,13.578125 20.5,13.703125 20.5625,13.96875 C19.828125,14.640625 18.625,15.484375 18.625,15.484375 L17.59375,14.296875 L12.09375,14.296875 L13.203125,15.53125 C13.703125,15.53125 13.984375,15.703125 14.09375,16.03125 Z M11.359375,7.296875 L6.75,7.296875 L6.75,8.953125 L11.359375,8.953125 Z M11.359375,11.28125 L11.359375,9.640625 L6.75,9.640625 L6.75,11.28125 Z M13.21875,2.46875 L13.4375,1.78125 L18.53125,1.78125 L18.53125,0.09375 L5.71875,0.09375 L5.71875,1.75 L11.375,1.75 C11.6875,1.75 11.90625,1.875 11.96875,2.140625 C11.328125,2.734375 10.265625,3.5 10.265625,3.5 L9.34375,2.46875 L5.71875,2.46875 L5.71875,3.984375 C7.53125,4.15625 9.5,4.53125 10.78125,4.890625 C11.28125,4.703125 11.65625,4.6875 11.859375,4.875 L10.34375,6.21875 C9.390625,5.734375 7.6875,5.09375 6.046875,4.609375 L4.171875,5.203125 L4.171875,-1.875 L4.390625,-1.875 C5.25,-1.875 5.65625,-1.515625 5.71875,-1.421875 L5.71875,-0.625 L18.53125,-0.625 L18.53125,-1.75 L18.765625,-1.75 C19.265625,-1.75 20.046875,-1.421875 20.0625,-1.25 L20.0625,3.890625 C20.46875,3.953125 20.859375,4.125 20.96875,4.296875 L19.15625,5.71875 L18.3125,4.796875 L12.859375,4.796875 L13.078125,4.109375 L18.53125,4.109375 L18.53125,2.46875 Z" transform="translate(0.0390625, 20.1875) scale(1, -1)"/>
</svg>