<svg height="22" viewBox="0 0 24 22" width="24" xmlns="http://www.w3.org/2000/svg">
<path d="M11.296875,18.1875 L11.5,17.46875 L22.78125,17.46875 C23.109375,17.46875 23.328125,17.59375 23.40625,17.859375 C22.609375,18.59375 21.328125,19.609375 21.328125,19.609375 L20.203125,18.1875 Z M5.59375,8.09375 L5.59375,1.921875 L5.828125,1.921875 C6.28125,1.921875 6.8125,2.203125 6.8125,2.375 L6.8125,7.34375 C7.25,7.421875 7.421875,7.609375 7.4375,7.875 Z M5.453125,15.171875 L5.140625,14.96875 C5.78125,13.828125 6.03125,12.171875 6.078125,11.25 C6.984375,10.03125 8.8125,12.640625 5.453125,15.171875 Z M12.390625,14.25 L12.390625,9.34375 C12.390625,5.640625 12.171875,1.625 9.984375,-1.578125 L10.296875,-1.875 C13.125,0.765625 13.75,4.421875 13.890625,7.53125 L20.46875,7.53125 L20.46875,5.859375 L20.71875,5.859375 C21.21875,5.859375 21.984375,6.1875 22.015625,6.359375 L22.015625,13.34375 C22.421875,13.421875 22.78125,13.578125 22.921875,13.75 L21.09375,15.171875 L20.25,14.25 L14.1875,14.25 L12.390625,15.078125 Z M13.921875,8.234375 L13.921875,9.34375 L13.921875,13.5625 L20.46875,13.5625 L20.46875,8.234375 Z M4.25,16.15625 L8.40625,16.15625 L8.40625,10.203125 L4.25,9.671875 Z M5.71875,20.109375 L5.140625,16.84375 L4.53125,16.84375 L2.828125,17.609375 L2.828125,16.84375 L2.828125,9.5 L0.90625,9.34375 L1.15625,7.421875 C1.390625,7.46875 1.65625,7.65625 1.78125,7.9375 L2.828125,8.15625 C2.78125,4.65625 2.515625,1.15625 0.90625,-1.625 L1.265625,-1.890625 C3.890625,0.9375 4.203125,4.96875 4.25,8.46875 L8.40625,9.453125 L8.40625,0.59375 C8.40625,0.265625 8.28125,0.125 7.890625,0.125 C7.46875,0.125 5.46875,0.28125 5.46875,0.28125 L5.46875,-0.09375 C6.390625,-0.234375 6.890625,-0.40625 7.171875,-0.640625 C7.46875,-0.890625 7.5625,-1.296875 7.625,-1.78125 C9.59375,-1.5625 9.8125,-0.796875 9.8125,0.4375 L9.8125,9.8125 L11.328125,10.171875 L11.28125,10.578125 L9.8125,10.390625 L9.8125,15.890625 C10.296875,15.953125 10.6875,16.15625 10.84375,16.375 L8.90625,17.8125 L8.15625,16.84375 L5.90625,16.84375 C6.390625,17.546875 6.9375,18.40625 7.3125,19.078125 C7.828125,19.109375 8.109375,19.296875 8.203125,19.625 Z" transform="translate(-0.15625, 20.109375) scale(1, -1)"/>
</svg>