<svg height="22.03125" viewBox="0 0 24 22.03125" width="24" xmlns="http://www.w3.org/2000/svg">
<path d="M5.46875,8.0625 L5.46875,1.890625 L5.6875,1.890625 C6.140625,1.890625 6.671875,2.1875 6.671875,2.359375 L6.671875,7.3125 C7.125,7.390625 7.296875,7.5625 7.296875,7.84375 Z M5.1875,15.078125 L4.875,14.90625 C5.59375,13.75 5.859375,12.09375 5.953125,11.15625 C6.90625,9.9375 8.640625,12.625 5.1875,15.078125 Z M20.78125,19.75 C19.25,19.015625 16.4375,18 13.921875,17.359375 L11.96875,18.046875 L11.96875,10.171875 C11.96875,6.09375 11.921875,1.78125 10.15625,-1.65625 L10.53125,-1.921875 C12.75,0.671875 13.3125,4.109375 13.46875,7.265625 L20.359375,7.265625 L20.359375,5.640625 L20.59375,5.640625 C21.09375,5.640625 21.859375,6 21.890625,6.140625 L21.890625,13.15625 C22.296875,13.25 22.65625,13.4375 22.796875,13.578125 L20.96875,15 L20.140625,14.09375 L13.515625,14.09375 L13.515625,16.734375 C16.296875,17.015625 19.34375,17.6875 21.328125,18.1875 C21.890625,17.96875 22.296875,17.96875 22.515625,18.171875 Z M20.359375,7.984375 L13.484375,7.984375 L13.515625,10.171875 L13.515625,13.390625 L20.359375,13.390625 Z M4.0625,16.15625 L8.328125,16.15625 L8.328125,10.203125 L4.0625,9.703125 Z M5.546875,20.109375 C5.421875,19.15625 5.1875,17.78125 4.984375,16.84375 L4.34375,16.84375 L2.609375,17.609375 L2.609375,9.546875 L0.90625,9.40625 L1.3125,7.53125 C1.5625,7.578125 1.828125,7.75 1.9375,8.046875 L2.609375,8.1875 C2.609375,4.6875 2.5,1.125 1.03125,-1.625 L1.421875,-1.875 C3.859375,0.9375 4.03125,4.96875 4.0625,8.46875 L8.328125,9.453125 L8.328125,0.4375 C8.328125,0.09375 8.234375,-0.03125 7.875,-0.03125 C7.4375,-0.03125 5.65625,0.125 5.65625,0.125 L5.65625,-0.265625 C6.5,-0.390625 6.953125,-0.546875 7.21875,-0.796875 C7.484375,-1.015625 7.609375,-1.390625 7.65625,-1.84375 C9.546875,-1.65625 9.765625,-0.90625 9.765625,0.28125 L9.765625,9.796875 L11.375,10.171875 L11.296875,10.5625 L9.765625,10.375 L9.765625,15.890625 C10.25,15.953125 10.625,16.15625 10.796875,16.375 L8.828125,17.8125 L8.109375,16.84375 L5.8125,16.84375 C6.265625,17.5625 6.84375,18.453125 7.203125,19.125 C7.6875,19.15625 7.984375,19.34375 8.0625,19.703125 Z" transform="translate(0.1484375, 20.109375) scale(1, -1)"/>
</svg>