<svg height="22.078125" viewBox="0 0 24 22.078125" width="24" xmlns="http://www.w3.org/2000/svg">
<path d="M4.890625,8.140625 L4.890625,1.875 L5.109375,1.875 C5.546875,1.875 6.03125,2.1875 6.03125,2.359375 L6.03125,7.421875 C6.453125,7.484375 6.625,7.65625 6.640625,7.9375 Z M4.65625,15.1875 L4.3125,15 C4.984375,13.828125 5.1875,12.125 5.234375,11.1875 C6.09375,9.953125 7.921875,12.53125 4.65625,15.1875 Z M5.234375,20.140625 C5.109375,19.15625 4.875,17.6875 4.6875,16.828125 L4.078125,16.828125 L2.46875,17.59375 L2.46875,9.484375 L0.84375,9.359375 L1.125,7.46875 C1.375,7.515625 1.625,7.6875 1.78125,7.96875 L2.46875,8.140625 C2.453125,4.6875 2.296875,1.125 0.90625,-1.65625 L1.3125,-1.890625 C3.546875,0.953125 3.796875,4.984375 3.8125,8.453125 L7.296875,9.3125 L7.296875,0.703125 C7.296875,0.34375 7.203125,0.1875 6.84375,0.1875 C6.40625,0.1875 4.578125,0.359375 4.578125,0.359375 L4.578125,-0.03125 C5.421875,-0.140625 5.90625,-0.28125 6.1875,-0.5 C6.453125,-0.703125 6.546875,-1.0625 6.625,-1.421875 C8.46875,-1.25 8.6875,-0.59375 8.6875,0.546875 L8.6875,9.640625 L9.890625,9.953125 L9.890625,9.984375 C10.46875,9.84375 10.828125,9.84375 11.15625,9.984375 L11.59375,11.203125 L13.15625,11.203125 C13.03125,8.765625 12.8125,6.40625 12.140625,4.265625 C11.765625,5.1875 11.453125,6.265625 11.15625,7.609375 L11.203125,7.75 L11.6875,8.78125 L10.84375,8.921875 L10.734375,7.875 C10.265625,7.078125 9.40625,5.921875 8.90625,5.359375 L10.21875,4.4375 C10.34375,4.609375 10.34375,4.78125 10.171875,4.96875 L10.890625,6.890625 C11.140625,5.46875 11.453125,4.296875 11.8125,3.34375 C11.09375,1.46875 9.953125,-0.21875 8.203125,-1.578125 L8.46875,-1.9375 C10.265625,-0.859375 11.546875,0.484375 12.4375,1.96875 C13.75,-0.453125 15.71875,-1.109375 18.546875,-1.109375 C19.5625,-1.109375 21.59375,-1.109375 22.515625,-1.109375 C22.53125,-0.5 22.828125,0 23.375,0.09375 L23.375,0.4375 C22.171875,0.40625 19.796875,0.40625 18.703125,0.40625 C16.0625,0.40625 14.203125,0.890625 12.890625,2.859375 C14.0625,5.28125 14.40625,8.046875 14.640625,10.875 L17.515625,10.875 L17.515625,3.84375 L14.28125,3.84375 L14.46875,3.140625 L22.25,3.140625 C22.578125,3.140625 22.796875,3.265625 22.875,3.53125 C22.171875,4.203125 21.03125,5.15625 21.03125,5.15625 L19.984375,3.84375 L18.984375,3.84375 L18.984375,10.875 L22.75,10.875 C23.09375,10.875 23.28125,10.984375 23.359375,11.25 C22.625,11.96875 21.484375,12.90625 21.484375,12.90625 L20.421875,11.59375 L18.984375,11.59375 L18.984375,17.0625 C20.0625,17.296875 21.046875,17.5625 21.765625,17.859375 C22.25,17.65625 22.46875,17.6875 22.65625,17.90625 L21,19.25 C19.421875,18.34375 16.265625,17.1875 13.828125,16.609375 L14.0625,16.25 C15.171875,16.375 16.375,16.53125 17.515625,16.75 L17.515625,11.59375 L15.265625,11.59375 L13.828125,12.84375 L12.9375,11.921875 L11.828125,11.921875 C12.5,13.890625 13.171875,16.0625 13.5625,17.375 C14.09375,17.421875 14.5,17.5625 14.6875,17.765625 L12.90625,19.25 L12.09375,18.359375 L9.265625,18.359375 L9.484375,17.65625 L12.140625,17.65625 C11.59375,15.640625 10.6875,12.703125 9.859375,10.375 L8.6875,10.21875 L8.6875,15.90625 C9.09375,16.015625 9.453125,16.171875 9.59375,16.375 L7.796875,17.734375 L7.078125,16.828125 L5.359375,16.828125 L6.71875,19.125 C7.203125,19.15625 7.484375,19.34375 7.5625,19.6875 Z M3.8125,16.15625 L7.296875,16.15625 L7.296875,10.03125 L3.8125,9.625 Z" transform="translate(-0.109375, 20.140625) scale(1, -1)"/>
</svg>