<svg height="22.109375" viewBox="0 0 24 22.109375" width="24" xmlns="http://www.w3.org/2000/svg">
<path d="M5.234375,8.140625 L5.234375,2.0625 L5.5,2.0625 C5.921875,2.0625 6.453125,2.359375 6.453125,2.515625 L6.453125,7.390625 C6.890625,7.46875 7.0625,7.65625 7.078125,7.921875 Z M5.046875,15.21875 L4.734375,15.03125 C5.421875,13.828125 5.609375,12.09375 5.65625,11.140625 C6.578125,9.890625 8.40625,12.546875 5.046875,15.21875 Z M14.25,19.296875 C13.890625,18.9375 13.21875,18.3125 12.578125,17.78125 L10.921875,18.34375 L10.921875,8.546875 L11.109375,8.546875 C11.90625,8.546875 12.3125,8.859375 12.3125,8.96875 L12.3125,9.90625 L15.8125,9.90625 L15.8125,7.25 L10.34375,7.25 L10.53125,6.53125 L12.671875,6.53125 C13.34375,4.5625 14.328125,2.96875 15.59375,1.6875 C13.875,0.34375 11.765625,-0.765625 9.3125,-1.5625 L9.53125,-1.96875 C12.265625,-1.296875 14.546875,-0.34375 16.421875,0.9375 C17.953125,-0.34375 19.875,-1.25 22.203125,-1.921875 C22.421875,-1.203125 22.875,-0.71875 23.546875,-0.59375 L23.5625,-0.34375 C21.265625,0.09375 19.25,0.796875 17.546875,1.796875 C19.125,3.09375 20.328125,4.609375 21.234375,6.34375 C21.8125,6.390625 22.0625,6.4375 22.25,6.625 L20.5625,8.15625 L19.5625,7.25 L17.25,7.25 L17.25,9.90625 L20.640625,9.90625 L20.640625,8.78125 L20.859375,8.78125 C21.328125,8.78125 22.0625,9.125 22.078125,9.28125 L22.078125,16.875 C22.46875,16.9375 22.796875,17.109375 22.921875,17.28125 L21.21875,18.59375 L20.421875,17.765625 L17.828125,17.765625 L18.046875,17.046875 L20.640625,17.046875 L20.640625,14.15625 L18.078125,14.15625 L18.28125,13.46875 L20.640625,13.46875 L20.640625,10.609375 L17.25,10.609375 L17.25,19.21875 C17.78125,19.296875 17.96875,19.515625 18.046875,19.84375 L15.8125,20.0625 L15.8125,10.609375 L12.3125,10.609375 L12.3125,13.46875 L14.90625,13.46875 C15.21875,13.46875 15.40625,13.578125 15.484375,13.84375 C15,14.40625 14.140625,15.140625 14.140625,15.140625 L13.4375,14.15625 L12.3125,14.15625 L12.3125,16.984375 C13.375,17.28125 14.515625,17.71875 15.125,18 C15.40625,17.875 15.625,17.90625 15.75,18.046875 Z M16.515625,2.5 C15.09375,3.546875 13.984375,4.875 13.21875,6.53125 L19.484375,6.53125 C18.796875,5.015625 17.78125,3.671875 16.515625,2.5 Z M3.953125,16.265625 L7.9375,16.265625 L7.9375,10.078125 L3.953125,9.59375 Z M5.46875,20.140625 C5.359375,19.21875 5.140625,17.828125 4.96875,16.96875 L4.21875,16.96875 L2.59375,17.71875 L2.59375,16.96875 L2.59375,9.453125 L0.890625,9.3125 L1.5625,7.46875 C1.796875,7.515625 2.015625,7.6875 2.140625,7.96875 L2.59375,8.0625 C2.5625,4.625 2.40625,1.15625 1.0625,-1.609375 L1.46875,-1.84375 C3.671875,0.984375 3.9375,4.9375 3.953125,8.375 L7.9375,9.359375 L7.9375,0.5 C7.9375,0.1875 7.84375,0.046875 7.515625,0.046875 C7.125,0.046875 5.453125,0.1875 5.453125,0.1875 L5.453125,-0.1875 C6.21875,-0.3125 6.671875,-0.484375 6.9375,-0.71875 C7.171875,-0.953125 7.265625,-1.390625 7.3125,-1.828125 C9.125,-1.625 9.34375,-0.890625 9.34375,0.3125 L9.34375,9.71875 L10.390625,9.984375 L10.3125,10.390625 L9.34375,10.265625 L9.34375,16.015625 C9.796875,16.109375 10.203125,16.265625 10.34375,16.484375 L8.453125,17.90625 L7.734375,16.96875 L5.6875,16.96875 C6.140625,17.609375 6.71875,18.5 7.109375,19.15625 C7.578125,19.171875 7.875,19.390625 7.9375,19.734375 Z" transform="translate(-0.2265625, 20.140625) scale(1, -1)"/>
</svg>