<svg height="21.65625" viewBox="0 0 24 21.65625" width="24" xmlns="http://www.w3.org/2000/svg">
<path d="M9.484375,16.75 L9.484375,6.765625 L7.171875,6.765625 C7.21875,7.3125 7.25,7.921875 7.25,8.515625 L7.25,18.890625 C7.84375,18.984375 8.046875,19.21875 8.09375,19.5625 L5.765625,19.796875 L5.765625,8.515625 C5.765625,7.921875 5.734375,7.3125 5.71875,6.765625 L3.578125,6.765625 L3.578125,15.859375 C4.15625,15.9375 4.3125,16.15625 4.390625,16.484375 L2.203125,16.734375 L2.203125,3.8125 L2.453125,3.8125 C2.96875,3.8125 3.578125,4.125 3.578125,4.34375 L3.578125,6.078125 L5.640625,6.078125 C5.28125,2.828125 4.078125,0.4375 1.375,-1.515625 L1.65625,-1.828125 C5.140625,0.125 6.640625,2.6875 7.109375,6.078125 L9.484375,6.078125 L9.484375,4.109375 L9.75,4.109375 C10.265625,4.109375 10.84375,4.46875 10.84375,4.65625 L10.84375,15.859375 C11.421875,15.9375 11.640625,16.171875 11.6875,16.484375 Z M20.375,16.75 L20.375,6.75 L18,6.75 L18,18.890625 C18.578125,18.984375 18.765625,19.21875 18.84375,19.5625 L16.484375,19.828125 L16.484375,6.75 L14.1875,6.75 L14.1875,15.859375 C14.765625,15.9375 14.96875,16.15625 15.03125,16.484375 L12.8125,16.734375 L12.8125,4.015625 L13.078125,4.015625 C13.578125,4.015625 14.1875,4.3125 14.1875,4.53125 L14.1875,6.03125 L16.484375,6.03125 L16.484375,-1.828125 L16.78125,-1.828125 C17.359375,-1.828125 18,-1.46875 18,-1.21875 L18,6.03125 L20.375,6.03125 L20.375,4.375 L20.640625,4.375 C21.171875,4.375 21.75,4.703125 21.75,4.921875 L21.75,15.859375 C22.34375,15.9375 22.53125,16.171875 22.609375,16.484375 Z" transform="translate(0.0078125, 19.828125) scale(1, -1)"/>
</svg>