<svg height="24" viewBox="0 0 24 24" width="24" xmlns="http://www.w3.org/2000/svg">
<path d="M14.515625,19.96875 L14.515625,15.890625 L9.046875,15.890625 L9.046875,19.0625 C9.625,19.15625 9.859375,19.390625 9.90625,19.734375 L7.46875,19.96875 L7.46875,15.890625 L1.015625,15.890625 L1.21875,15.1875 L7.46875,15.1875 L7.46875,11.25 L7.75,11.25 C8.359375,11.25 9.046875,11.5625 9.046875,11.765625 L9.046875,15.1875 L14.515625,15.1875 L14.515625,11.25 L14.8125,11.25 C15.40625,11.25 16.078125,11.5625 16.078125,11.765625 L16.078125,15.1875 L22.34375,15.1875 C22.6875,15.1875 22.890625,15.3125 22.96875,15.578125 C22.125,16.375 20.765625,17.453125 20.765625,17.453125 L19.5625,15.890625 L16.078125,15.890625 L16.078125,19.0625 C16.703125,19.15625 16.921875,19.390625 16.96875,19.734375 Z" transform="translate(0.0078125, 19.96875) scale(1, -1)"/>
</svg>