<svg height="21.40625" viewBox="0 0 24 21.40625" width="24" xmlns="http://www.w3.org/2000/svg">
<path d="M0.984375,17.15625 L1.15625,16.46875 L7.21875,16.46875 L7.21875,13.734375 L7.46875,13.734375 C8.09375,13.734375 8.78125,13.96875 8.78125,14.1875 L8.78125,16.46875 L14.96875,16.46875 L14.96875,13.796875 L15.234375,13.796875 C16.03125,13.828125 16.5625,14.109375 16.5625,14.296875 L16.5625,16.46875 L22.296875,16.46875 C22.625,16.46875 22.875,16.578125 22.921875,16.828125 C22.171875,17.5625 20.828125,18.625 20.828125,18.625 L19.6875,17.15625 L16.5625,17.15625 L16.5625,19.21875 C17.15625,19.296875 17.359375,19.53125 17.40625,19.875 L14.96875,20.109375 L14.96875,17.15625 L8.78125,17.15625 L8.78125,19.21875 C9.359375,19.296875 9.578125,19.53125 9.625,19.875 L7.21875,20.109375 L7.21875,17.15625 Z M3.640625,10.890625 L3.640625,0.84375 C3.640625,-0.953125 4.46875,-1.296875 7.578125,-1.296875 L13.015625,-1.296875 C20.203125,-1.296875 21.359375,-1.078125 21.359375,-0.171875 C21.359375,0.140625 21.125,0.3125 20.328125,0.53125 L20.203125,0.546875 L19.9375,0.546875 C19.703125,0.453125 19.375,0.390625 19.15625,0.34375 C18.90625,0.3125 18.578125,0.28125 18.171875,0.265625 C17.515625,0.1875 15.4375,0.171875 13.125,0.171875 L7.515625,0.171875 C5.46875,0.171875 5.234375,0.40625 5.234375,1.078125 L5.234375,10.203125 L21.171875,10.203125 C21.5,10.203125 21.71875,10.296875 21.796875,10.5625 C20.90625,11.375 19.46875,12.5 19.46875,12.5 L18.171875,10.890625 L12.75,10.890625 L12.75,13.703125 C13.296875,13.78125 13.515625,13.984375 13.5625,14.296875 L11.203125,14.5625 L11.203125,10.890625 L5.546875,10.890625 L3.640625,11.71875 Z" transform="translate(0.046875, 20.109375) scale(1, -1)"/>
</svg>