<svg height="21.28125" viewBox="0 0 24 21.28125" width="24" xmlns="http://www.w3.org/2000/svg">
<path d="M0.984375,17.15625 L1.15625,16.46875 L7.125,16.46875 L7.125,13.75 L7.390625,13.75 C8.015625,13.75 8.71875,13.984375 8.71875,14.203125 L8.71875,16.46875 L15.046875,16.46875 L15.046875,13.828125 L15.34375,13.828125 C16.078125,13.84375 16.625,14.140625 16.625,14.328125 L16.625,16.46875 L22.296875,16.46875 C22.625,16.46875 22.875,16.578125 22.921875,16.828125 C22.171875,17.5625 20.828125,18.625 20.828125,18.625 L19.6875,17.15625 L16.625,17.15625 L16.625,19.21875 C17.234375,19.296875 17.421875,19.53125 17.46875,19.875 L15.046875,20.109375 L15.046875,17.15625 L8.71875,17.15625 L8.71875,19.21875 C9.28125,19.296875 9.53125,19.53125 9.546875,19.875 L7.125,20.109375 L7.125,17.15625 Z M0.9375,10.96875 L1.15625,10.265625 L4.53125,10.265625 L4.53125,1.6875 C4.53125,-0.546875 6.125,-1.171875 9.078125,-1.171875 L16.15625,-1.171875 C20.5625,-1.171875 21.359375,-0.59375 21.359375,0.125 C21.359375,0.484375 21,0.578125 20.109375,0.765625 L19.75,0.765625 C19.4375,0.640625 18.9375,0.53125 18.53125,0.453125 C17.953125,0.359375 17.109375,0.28125 15.9375,0.28125 L8.921875,0.28125 C7.171875,0.28125 6.09375,0.5 6.09375,1.625 L6.09375,10.265625 L22.421875,10.265625 C22.75,10.265625 22.984375,10.390625 23.0625,10.65625 C22.21875,11.421875 20.875,12.453125 20.875,12.453125 L19.6875,10.96875 L12.703125,10.96875 L12.703125,13.84375 C13.21875,13.9375 13.4375,14.15625 13.484375,14.46875 L11.140625,14.71875 L11.140625,10.96875 Z" transform="translate(0, 20.109375) scale(1, -1)"/>
</svg>