<svg height="21.9375" viewBox="0 0 24 21.9375" width="24" xmlns="http://www.w3.org/2000/svg">
<path d="M1.828125,13.46875 L2.015625,12.765625 L21.59375,12.765625 C21.90625,12.765625 22.171875,12.890625 22.21875,13.15625 C21.453125,13.875 20.1875,14.859375 20.1875,14.859375 L19.0625,13.46875 Z M1.015625,17.328125 L1.171875,16.625 L7.484375,16.625 L7.484375,14.234375 L7.734375,14.234375 C8.375,14.234375 9.046875,14.46875 9.046875,14.65625 L9.046875,16.625 L14.78125,16.625 L14.78125,14.296875 L15.03125,14.296875 C15.796875,14.328125 16.34375,14.59375 16.34375,14.78125 L16.34375,16.625 L22.296875,16.625 C22.65625,16.625 22.890625,16.734375 22.9375,16.984375 C22.171875,17.71875 20.875,18.765625 20.875,18.765625 L19.734375,17.328125 L16.34375,17.328125 L16.34375,19.203125 C16.9375,19.265625 17.140625,19.515625 17.1875,19.84375 L14.78125,20.0625 L14.78125,17.328125 L9.046875,17.328125 L9.046875,19.203125 C9.625,19.265625 9.84375,19.515625 9.890625,19.84375 L7.484375,20.0625 L7.484375,17.328125 Z M18.234375,9.703125 L18.234375,5.765625 L6.140625,5.765625 C6.1875,6.3125 6.21875,6.84375 6.21875,7.34375 L6.21875,9.703125 Z M4.65625,10.390625 L4.65625,7.3125 C4.65625,4.265625 4.125,1.0625 0.953125,-1.5625 L1.21875,-1.875 C4.625,0.03125 5.734375,2.65625 6.078125,5.09375 L18.234375,5.09375 L18.234375,3.359375 L18.484375,3.359375 C19.015625,3.359375 19.796875,3.75 19.828125,3.890625 L19.828125,9.40625 C20.28125,9.5 20.65625,9.703125 20.828125,9.890625 L18.890625,11.375 L18,10.390625 L6.5,10.390625 L4.65625,11.203125 Z" transform="translate(0.0546875, 20.0625) scale(1, -1)"/>
</svg>