<svg height="23.0625" viewBox="0 0 24 23.0625" width="24" xmlns="http://www.w3.org/2000/svg">
<path d="M3.796875,12.3125 L3.953125,11.609375 L19.78125,11.609375 C20.0625,11.609375 20.328125,11.734375 20.40625,12 C19.609375,12.71875 18.3125,13.734375 18.3125,13.734375 L17.1875,12.3125 Z M0.984375,17.046875 L1.125,16.34375 L7.734375,16.34375 L7.734375,13.484375 L7.96875,13.484375 C8.5625,13.484375 9.265625,13.734375 9.265625,13.9375 L9.265625,16.34375 L14.515625,16.34375 L14.515625,13.5625 L14.78125,13.5625 C15.53125,13.578125 16.078125,13.875 16.078125,14.046875 L16.078125,16.34375 L22.265625,16.34375 C22.625,16.34375 22.875,16.46875 22.921875,16.734375 C22.171875,17.453125 20.828125,18.53125 20.828125,18.53125 L19.65625,17.046875 L16.078125,17.046875 L16.078125,19.21875 C16.6875,19.296875 16.890625,19.53125 16.9375,19.875 L14.515625,20.109375 L14.515625,17.046875 L9.265625,17.046875 L9.265625,19.21875 C9.859375,19.296875 10.078125,19.53125 10.125,19.875 L7.734375,20.109375 L7.734375,17.046875 Z M14.65625,5.359375 L14.40625,5.109375 C15.625,4.171875 17.046875,2.875 18.171875,1.515625 L7.4375,0.953125 C8.71875,2.6875 10.21875,5.203125 11.28125,7.3125 L22.265625,7.3125 C22.609375,7.3125 22.875,7.4375 22.921875,7.703125 C22.078125,8.46875 20.734375,9.53125 20.734375,9.53125 L19.53125,8.046875 L1.21875,8.046875 L1.421875,7.3125 L9.140625,7.3125 C8.546875,5.375 7.484375,2.71875 6.546875,0.90625 C4.5625,0.8125 2.921875,0.765625 1.828125,0.75 L2.765625,-1.421875 C3,-1.375 3.265625,-1.203125 3.40625,-0.890625 C10.109375,-0.171875 14.921875,0.453125 18.546875,1.03125 C19.25,0.125 19.796875,-0.765625 20.0625,-1.609375 C22.15625,-2.953125 23.015625,1.9375 14.65625,5.359375 Z" transform="translate(0, 20.109375) scale(1, -1)"/>
</svg>