<svg height="22.015625" viewBox="0 0 24 22.015625" width="24" xmlns="http://www.w3.org/2000/svg">
<path d="M1.03125,17.28125 L1.171875,16.578125 L7.734375,16.578125 L7.734375,14.046875 L7.96875,14.046875 C8.59375,14.046875 9.265625,14.28125 9.265625,14.46875 L9.265625,16.578125 L14.59375,16.578125 L14.59375,14.109375 L14.859375,14.109375 C15.59375,14.140625 16.15625,14.421875 16.15625,14.59375 L16.15625,16.578125 L22.3125,16.578125 C22.65625,16.578125 22.921875,16.703125 22.96875,16.96875 C22.203125,17.6875 20.875,18.75 20.875,18.75 L19.734375,17.28125 L16.15625,17.28125 L16.15625,19.265625 C16.75,19.34375 16.96875,19.578125 17.015625,19.921875 L14.59375,20.140625 L14.59375,17.28125 L9.265625,17.28125 L9.265625,19.265625 C9.890625,19.34375 10.078125,19.578125 10.125,19.921875 L7.734375,20.140625 L7.734375,17.28125 Z M19.390625,12.5 C17.828125,10.4375 16.015625,8.546875 14.140625,6.90625 L14.140625,12.984375 C14.6875,13.0625 14.90625,13.296875 14.921875,13.609375 L12.59375,13.875 L12.59375,5.65625 C11.046875,4.4375 9.484375,3.4375 8.046875,2.640625 L8.25,2.28125 C9.671875,2.859375 11.140625,3.578125 12.59375,4.4375 L12.59375,0.546875 C12.59375,-0.84375 13.109375,-1.25 15.171875,-1.25 L18.03125,-1.25 C22.15625,-1.25 23.015625,-1.015625 23.015625,-0.265625 C23.015625,0.046875 22.875,0.234375 22.296875,0.4375 L22.21875,4.21875 L21.90625,4.21875 C21.625,2.5625 21.3125,1.015625 21.125,0.578125 C21,0.34375 20.875,0.234375 20.59375,0.234375 C20.1875,0.1875 19.296875,0.171875 18.046875,0.171875 L15.40625,0.171875 C14.328125,0.171875 14.140625,0.359375 14.140625,0.890625 L14.140625,5.421875 C16.34375,6.90625 18.484375,8.765625 20.359375,10.875 C20.859375,10.6875 21.125,10.734375 21.3125,10.9375 Z M7.15625,14.109375 C5.546875,10.125 2.96875,6.4375 0.59375,4.265625 L0.890625,3.984375 C2.546875,5.0625 4.15625,6.53125 5.59375,8.296875 L5.59375,-1.875 L5.90625,-1.875 C6.484375,-1.875 7.15625,-1.5625 7.171875,-1.46875 L7.171875,9.078125 C7.578125,9.140625 7.796875,9.28125 7.890625,9.5 L6.8125,9.9375 C7.421875,10.796875 7.984375,11.734375 8.5,12.71875 C9.03125,12.640625 9.3125,12.84375 9.453125,13.109375 Z" transform="translate(0.1953125, 20.140625) scale(1, -1)"/>
</svg>