<svg height="21.984375" viewBox="0 0 24 21.984375" width="24" xmlns="http://www.w3.org/2000/svg">
<path d="M2.15625,13.25 L1.921875,13.03125 C3.21875,12.125 4.796875,10.484375 5.25,9.140625 C7.0625,8.109375 7.984375,11.90625 2.15625,13.25 Z M0.90625,2.328125 L2.203125,0.4375 C2.421875,0.546875 2.5625,0.796875 2.609375,1.078125 C5.546875,3.046875 7.75,4.6875 9.28125,5.8125 L9.125,6.125 C5.6875,4.4375 2.296875,2.828125 0.90625,2.328125 Z M1.0625,17.25 L1.21875,16.5625 L7.421875,16.5625 L7.421875,13.96875 L7.6875,13.96875 C8.296875,13.96875 8.96875,14.203125 8.96875,14.421875 L8.96875,16.5625 L14.953125,16.5625 L14.953125,14.046875 L15.1875,14.046875 C15.984375,14.0625 16.515625,14.359375 16.515625,14.515625 L16.515625,16.5625 L22.375,16.5625 C22.703125,16.5625 22.9375,16.6875 22.984375,16.921875 C22.25,17.640625 20.921875,18.703125 20.921875,18.703125 L19.78125,17.25 L16.515625,17.25 L16.515625,19.21875 C17.09375,19.296875 17.296875,19.53125 17.359375,19.875 L14.953125,20.09375 L14.953125,17.25 L8.96875,17.25 L8.96875,19.21875 C9.578125,19.296875 9.765625,19.53125 9.8125,19.875 L7.421875,20.09375 L7.421875,17.25 Z M11.234375,15.765625 C10.46875,12.265625 8.953125,9 7.296875,6.9375 L7.65625,6.671875 C9.03125,7.796875 10.25,9.359375 11.234375,11.203125 L13.5625,11.203125 C13.4375,6.140625 12.90625,1.796875 5.0625,-1.46875 L5.359375,-1.890625 C12.796875,0.671875 14.515625,4.25 15.046875,8.609375 C15.640625,3.765625 17.203125,0.1875 21.671875,-1.875 C21.859375,-0.953125 22.390625,-0.640625 23.1875,-0.53125 L23.25,-0.234375 C17.46875,1.828125 15.765625,5.5 15.265625,11.203125 L20.109375,11.203125 C19.578125,9.859375 18.703125,8.140625 17.96875,7.015625 L18.265625,6.8125 C19.578125,7.890625 21.171875,9.625 21.984375,10.9375 C22.46875,10.96875 22.75,11.015625 22.9375,11.1875 L21.125,12.9375 L20.09375,11.90625 L11.609375,11.90625 C12.03125,12.75 12.390625,13.625 12.71875,14.5625 C13.25,14.546875 13.53125,14.765625 13.625,15.046875 Z" transform="translate(-0.078125, 20.09375) scale(1, -1)"/>
</svg>