<svg height="22.015625" viewBox="0 0 24 22.015625" width="24" xmlns="http://www.w3.org/2000/svg">
<path d="M1.03125,17.25 L1.203125,16.5625 L4.53125,16.5625 L4.53125,14.515625 L4.828125,14.515625 C5.515625,14.515625 6.03125,14.78125 6.03125,14.921875 L6.03125,16.5625 L9.671875,16.5625 L9.671875,14.5625 L10.015625,14.5625 C10.796875,14.59375 11.203125,14.90625 11.203125,15 L11.203125,16.5625 L14.953125,16.5625 C15.265625,16.5625 15.5,16.6875 15.546875,16.9375 C14.828125,17.65625 13.703125,18.578125 13.703125,18.578125 L12.703125,17.25 L11.203125,17.25 L11.203125,19.21875 C11.734375,19.296875 11.953125,19.5625 12,19.875 L9.671875,20.09375 L9.671875,17.25 L6.03125,17.25 L6.03125,19.21875 C6.578125,19.3125 6.796875,19.5625 6.84375,19.875 L4.53125,20.09375 L4.53125,17.25 Z M16.0625,18.078125 L16.0625,3 L16.34375,3 C16.875,3 17.5,3.34375 17.5,3.546875 L17.5,17.15625 C18.09375,17.234375 18.3125,17.46875 18.390625,17.8125 Z M20.328125,19.65625 L20.328125,0.546875 C20.328125,0.1875 20.203125,0.046875 19.796875,0.046875 C19.34375,0.046875 17.09375,0.21875 17.09375,0.21875 L17.09375,-0.171875 C18.078125,-0.28125 18.640625,-0.484375 18.984375,-0.71875 C19.296875,-1.015625 19.421875,-1.390625 19.484375,-1.875 C21.578125,-1.65625 21.84375,-0.859375 21.84375,0.40625 L21.84375,18.75 C22.421875,18.8125 22.65625,19.0625 22.734375,19.390625 Z M0.8125,7.84375 L0.984375,7.15625 L4.484375,7.15625 C4.421875,4.015625 3.859375,0.859375 0.859375,-1.609375 L1.171875,-1.921875 C5.25,0.4375 5.875,3.9375 5.96875,7.15625 L10.0625,7.15625 L10.0625,-1.875 L10.265625,-1.875 C11.0625,-1.875 11.5625,-1.515625 11.5625,-1.375 L11.5625,7.15625 L14.859375,7.15625 C15.171875,7.15625 15.40625,7.265625 15.484375,7.53125 C14.78125,8.203125 13.65625,9.078125 13.65625,9.078125 L12.703125,7.84375 L11.5625,7.84375 L11.5625,12.484375 L14.375,12.484375 C14.71875,12.484375 14.921875,12.59375 15,12.859375 C14.28125,13.53125 13.109375,14.421875 13.109375,14.421875 L12.09375,13.203125 L1.4375,13.203125 L1.625,12.484375 L4.484375,12.484375 L4.484375,7.84375 Z M5.96875,12.484375 L10.0625,12.484375 L10.0625,7.84375 L5.96875,7.84375 Z" transform="translate(0.2265625, 20.09375) scale(1, -1)"/>
</svg>