<svg height="21.953125" viewBox="0 0 24 21.953125" width="24" xmlns="http://www.w3.org/2000/svg">
<path d="M1.03125,17.25 L1.171875,16.578125 L7.75,16.578125 L7.75,14.0625 L8.015625,14.0625 C8.609375,14.0625 9.3125,14.328125 9.3125,14.515625 L9.3125,16.578125 L14.5625,16.578125 L14.5625,14.140625 L14.828125,14.140625 C15.578125,14.15625 16.125,14.46875 16.125,14.640625 L16.125,16.578125 L22.3125,16.578125 C22.65625,16.578125 22.921875,16.703125 22.96875,16.9375 C22.203125,17.65625 20.875,18.71875 20.875,18.71875 L19.734375,17.25 L16.125,17.25 L16.125,19.203125 C16.734375,19.265625 16.9375,19.515625 16.96875,19.828125 L14.5625,20.0625 L14.5625,17.25 L9.3125,17.25 L9.3125,19.203125 C9.90625,19.265625 10.125,19.515625 10.15625,19.828125 L7.75,20.0625 L7.75,17.25 Z M15.09375,13.25 L15.09375,2.453125 L15.390625,2.453125 C15.9375,2.453125 16.578125,2.765625 16.578125,2.96875 L16.578125,12.40625 C17.09375,12.5 17.296875,12.71875 17.359375,13.015625 Z M19.921875,14.046875 L19.921875,0.578125 C19.921875,0.1875 19.796875,0.078125 19.375,0.078125 C18.84375,0.078125 16.25,0.265625 16.25,0.265625 L16.25,-0.125 C17.375,-0.265625 18,-0.453125 18.359375,-0.71875 C18.71875,-0.984375 18.859375,-1.390625 18.9375,-1.890625 C21.21875,-1.65625 21.484375,-0.84375 21.484375,0.4375 L21.484375,13.15625 C22.03125,13.21875 22.25,13.4375 22.3125,13.78125 Z M1.03125,7.65625 L1.21875,6.953125 L4.375,6.953125 C4.296875,3.90625 3.71875,0.859375 0.859375,-1.578125 L1.171875,-1.890625 C5.109375,0.40625 5.765625,3.8125 5.859375,6.953125 L9.359375,6.953125 L9.359375,-1.875 L9.59375,-1.875 C10.375,-1.875 10.875,-1.515625 10.875,-1.390625 L10.875,6.953125 L13.84375,6.953125 C14.1875,6.953125 14.40625,7.078125 14.46875,7.3125 C13.78125,8.015625 12.671875,8.90625 12.671875,8.90625 L11.71875,7.65625 L10.875,7.65625 L10.875,12.40625 L13.46875,12.40625 C13.796875,12.40625 14.015625,12.53125 14.09375,12.796875 C13.375,13.46875 12.171875,14.359375 12.171875,14.359375 L11.15625,13.109375 L1.375,13.109375 L1.5625,12.40625 L4.375,12.40625 L4.375,7.734375 L4.375,7.65625 Z M5.859375,12.40625 L9.359375,12.40625 L9.359375,7.65625 L5.859375,7.65625 L5.859375,7.734375 Z" transform="translate(0.0859375, 20.0625) scale(1, -1)"/>
</svg>