<svg height="21.9375" viewBox="0 0 24 21.9375" width="24" xmlns="http://www.w3.org/2000/svg">
<path d="M11.109375,7.109375 L11.109375,-1.0625 L11.40625,-1.0625 C12,-1.0625 12.640625,-0.75 12.640625,-0.578125 L12.640625,6.21875 C13.25,6.3125 13.46875,6.53125 13.515625,6.84375 Z M5.59375,7.296875 L5.59375,4.78125 C5.59375,2.5625 4.875,0.078125 1.203125,-1.53125 L1.4375,-1.84375 C6.21875,-0.359375 7.109375,2.40625 7.15625,4.734375 L7.15625,6.453125 C7.703125,6.53125 7.875,6.765625 7.921875,7.0625 Z M16.703125,7.3125 L16.703125,0.046875 C16.703125,-0.984375 16.96875,-1.375 18.40625,-1.375 L19.921875,-1.375 C22.375,-1.375 23.015625,-1.078125 23.015625,-0.453125 C23.015625,-0.171875 22.921875,0.03125 22.4375,0.21875 L22.375,3.28125 L22.0625,3.28125 C21.84375,2.015625 21.578125,0.671875 21.40625,0.3125 C21.328125,0.09375 21.28125,0.046875 21.078125,0.046875 C20.90625,0.03125 20.5,0.03125 19.96875,0.03125 L18.796875,0.03125 C18.34375,0.03125 18.265625,0.09375 18.265625,0.40625 L18.265625,6.5 C18.671875,6.578125 18.890625,6.796875 18.9375,7.109375 Z M1.0625,17.71875 L1.21875,16.984375 L7.3125,16.984375 L7.3125,15.125 L7.5625,15.125 C8.203125,15.125 8.859375,15.3125 8.859375,15.5 L8.859375,16.984375 L15,16.984375 L15,15.171875 L15.265625,15.171875 C16.0625,15.1875 16.5625,15.453125 16.5625,15.59375 L16.5625,16.984375 L22.34375,16.984375 C22.6875,16.984375 22.921875,17.109375 22.96875,17.375 C22.203125,18.09375 20.921875,19.078125 20.921875,19.078125 L19.796875,17.71875 L16.5625,17.71875 L16.5625,19.21875 C17.15625,19.296875 17.359375,19.53125 17.40625,19.875 L15,20.09375 L15,17.71875 L8.859375,17.71875 L8.859375,19.21875 C9.453125,19.296875 9.671875,19.53125 9.703125,19.875 L7.3125,20.09375 L7.3125,17.71875 Z M3.765625,13.625 L3.765625,9.984375 C3.765625,8.546875 4.34375,8.328125 7.34375,8.328125 L12.859375,8.328125 C20.0625,8.328125 21.03125,8.5 21.03125,9.28125 C21.03125,9.578125 20.765625,9.71875 20.046875,9.890625 L19.9375,9.90625 L19.734375,9.90625 C19.515625,9.84375 19.203125,9.765625 18.953125,9.75 C18.765625,9.71875 18.453125,9.671875 18.046875,9.640625 C17.375,9.59375 15.21875,9.578125 12.9375,9.578125 L7.265625,9.578125 C5.40625,9.578125 5.296875,9.703125 5.296875,10.109375 L5.296875,12.9375 L21.328125,12.9375 C21.640625,12.9375 21.90625,13.0625 21.984375,13.3125 C21.1875,14.046875 19.890625,15.078125 19.890625,15.078125 L18.796875,13.625 L12.640625,13.625 L12.640625,15.390625 C13.171875,15.484375 13.375,15.703125 13.421875,15.984375 L11.109375,16.21875 L11.109375,13.625 L5.59375,13.625 L3.765625,14.421875 Z" transform="translate(-0.0390625, 20.09375) scale(1, -1)"/>
</svg>