<svg height="21.9375" viewBox="0 0 24 21.9375" width="24" xmlns="http://www.w3.org/2000/svg">
<path d="M1.015625,17.734375 L1.15625,17.046875 L7.65625,17.046875 L7.65625,15.1875 L7.890625,15.1875 C8.546875,15.1875 9.1875,15.40625 9.1875,15.59375 L9.1875,17.046875 L14.640625,17.046875 L14.640625,15.265625 L14.90625,15.265625 C15.640625,15.28125 16.171875,15.546875 16.171875,15.703125 L16.171875,17.046875 L22.296875,17.046875 C22.625,17.046875 22.875,17.15625 22.9375,17.421875 C22.15625,18.140625 20.90625,19.125 20.90625,19.125 L19.78125,17.734375 L16.171875,17.734375 L16.171875,19.21875 C16.78125,19.296875 16.984375,19.53125 17.046875,19.875 L14.640625,20.09375 L14.640625,17.734375 L9.1875,17.734375 L9.1875,19.21875 C9.796875,19.296875 10.015625,19.5625 10.0625,19.875 L7.65625,20.09375 L7.65625,17.734375 Z M9.1875,6.234375 L9,5.953125 C10.515625,5.40625 12.4375,4.125 13.203125,2.921875 C15.171875,2.328125 15.28125,6.234375 9.1875,6.234375 Z M17.875,4.515625 L17.640625,4.296875 C19.203125,3.21875 20.921875,1.203125 21.21875,-0.53125 C23.109375,-1.84375 24.265625,2.640625 17.875,4.515625 Z M7.5625,4.6875 L7.5625,0.046875 C7.5625,-1.15625 7.9375,-1.46875 10.03125,-1.46875 L13.15625,-1.46875 C17.5,-1.46875 18.28125,-1.21875 18.28125,-0.484375 C18.28125,-0.1875 18.125,-0.03125 17.5625,0.140625 L17.515625,2.71875 L17.203125,2.71875 C16.9375,1.5625 16.6875,0.578125 16.53125,0.234375 C16.421875,0.03125 16.3125,-0.03125 15.984375,-0.046875 C15.625,-0.09375 14.5625,-0.09375 13.21875,-0.09375 L10.25,-0.09375 C9.1875,-0.09375 9.09375,-0.03125 9.09375,0.3125 L9.09375,3.859375 C9.53125,3.9375 9.75,4.15625 9.796875,4.421875 Z M4.734375,4.265625 C4.578125,2.5 3.1875,1.203125 1.984375,0.71875 C1.484375,0.453125 1.125,-0.03125 1.3125,-0.5 C1.5625,-1.0625 2.421875,-1.0625 3.125,-0.703125 C4.25,-0.140625 5.65625,1.46875 5.15625,4.25 Z M4.484375,12.078125 L4.390625,11.6875 C6.03125,11.296875 7.515625,10.796875 8.78125,10.25 C7.296875,8.15625 4.96875,6.625 1.609375,5.453125 L1.78125,5.109375 C5.5625,6.03125 8.296875,7.46875 10.125,9.625 C11.375,8.96875 12.359375,8.328125 12.984375,7.78125 C14.328125,7.375 14.8125,9.34375 10.96875,10.78125 C11.515625,11.65625 11.953125,12.640625 12.28125,13.75 L18.859375,13.75 C18.625,10.3125 18.171875,8.1875 17.640625,7.703125 C17.453125,7.53125 17.234375,7.484375 16.828125,7.484375 C16.375,7.484375 14.875,7.578125 14.046875,7.6875 L14.015625,7.296875 C14.8125,7.15625 15.625,6.9375 15.9375,6.703125 C16.25,6.453125 16.3125,6.046875 16.3125,5.640625 C17.234375,5.609375 18.046875,5.828125 18.625,6.3125 C19.609375,7.125 20.15625,9.53125 20.40625,13.5625 C20.875,13.625 21.171875,13.75 21.328125,13.921875 L19.53125,15.390625 L18.640625,14.46875 L2.828125,14.46875 L3.046875,13.75 L10.421875,13.75 C10.171875,12.859375 9.84375,12.03125 9.4375,11.28125 C8.140625,11.609375 6.5,11.90625 4.484375,12.078125 Z" transform="translate(-0.640625, 20.09375) scale(1, -1)"/>
</svg>