<svg height="21.9375" viewBox="0 0 24 21.9375" width="24" xmlns="http://www.w3.org/2000/svg">
<path d="M1.015625,17.734375 L1.15625,17.046875 L7.65625,17.046875 L7.65625,15.21875 L7.890625,15.21875 C8.546875,15.21875 9.1875,15.4375 9.1875,15.625 L9.1875,17.046875 L14.640625,17.046875 L14.640625,15.28125 L14.90625,15.28125 C15.640625,15.3125 16.171875,15.578125 16.171875,15.71875 L16.171875,17.046875 L22.296875,17.046875 C22.625,17.046875 22.875,17.15625 22.9375,17.421875 C22.15625,18.140625 20.90625,19.125 20.90625,19.125 L19.78125,17.734375 L16.171875,17.734375 L16.171875,19.203125 C16.78125,19.296875 16.984375,19.515625 17.046875,19.84375 L14.640625,20.09375 L14.640625,17.734375 L9.1875,17.734375 L9.1875,19.203125 C9.796875,19.296875 10.015625,19.515625 10.0625,19.84375 L7.65625,20.09375 L7.65625,17.734375 Z M6.234375,12.75 C6.046875,11.421875 4.75,10.46875 3.703125,10.15625 C3.234375,9.9375 2.875,9.5 3.046875,9.046875 C3.234375,8.515625 4.0625,8.5 4.6875,8.78125 C5.734375,9.21875 6.984375,10.484375 6.671875,12.75 Z M9.1875,6.234375 L9,5.953125 C10.515625,5.40625 12.4375,4.125 13.203125,2.921875 C15.171875,2.328125 15.28125,6.234375 9.1875,6.234375 Z M17.875,4.515625 L17.640625,4.296875 C19.203125,3.21875 20.921875,1.203125 21.21875,-0.53125 C23.109375,-1.84375 24.265625,2.640625 17.875,4.515625 Z M7.5625,4.6875 L7.5625,0.046875 C7.5625,-1.15625 7.9375,-1.46875 10.03125,-1.46875 L13.15625,-1.46875 C17.5,-1.46875 18.28125,-1.21875 18.28125,-0.484375 C18.28125,-0.1875 18.125,-0.03125 17.5625,0.140625 L17.515625,2.71875 L17.203125,2.71875 C16.9375,1.5625 16.6875,0.578125 16.53125,0.234375 C16.421875,0.03125 16.3125,-0.03125 15.984375,-0.046875 C15.625,-0.09375 14.5625,-0.09375 13.21875,-0.09375 L10.25,-0.09375 C9.1875,-0.09375 9.09375,-0.03125 9.09375,0.3125 L9.09375,3.859375 C9.53125,3.9375 9.75,4.15625 9.796875,4.421875 Z M4.734375,4.265625 C4.578125,2.5 3.1875,1.203125 1.984375,0.71875 C1.484375,0.453125 1.125,-0.03125 1.3125,-0.5 C1.5625,-1.0625 2.421875,-1.0625 3.125,-0.703125 C4.25,-0.140625 5.65625,1.46875 5.15625,4.25 Z M2.90625,14.40625 L3.125,13.703125 L11.015625,13.703125 C10.015625,9.53125 7.171875,7.0625 1.609375,5.453125 L1.75,5.0625 C8.1875,6.359375 11.5625,8.828125 12.859375,13.703125 L18.90625,13.703125 C18.640625,10.421875 18.125,8.28125 17.5625,7.796875 C17.328125,7.609375 17.140625,7.578125 16.703125,7.578125 C16.21875,7.578125 14.65625,7.703125 13.78125,7.75 L13.75,7.390625 C14.59375,7.25 15.4375,7.03125 15.75,6.796875 C16.078125,6.546875 16.171875,6.125 16.15625,5.6875 C17.0625,5.6875 17.921875,5.921875 18.53125,6.40625 C19.53125,7.21875 20.15625,9.640625 20.421875,13.515625 C20.921875,13.578125 21.21875,13.6875 21.390625,13.875 L19.609375,15.3125 L18.703125,14.40625 Z" transform="translate(-0.640625, 20.09375) scale(1, -1)"/>
</svg>