<svg height="21.40625" viewBox="0 0 24 21.40625" width="24" xmlns="http://www.w3.org/2000/svg">
<path d="M2.203125,14.140625 L2.421875,13.46875 L21.21875,13.46875 C21.578125,13.46875 21.765625,13.578125 21.84375,13.828125 C21.078125,14.546875 19.796875,15.53125 19.796875,15.53125 L18.703125,14.140625 Z M6.359375,13.109375 C6,12.359375 4.734375,10.390625 4.015625,9.359375 C5.40625,8.359375 6.4375,6.71875 6.765625,5.65625 C8.234375,4.734375 9.890625,7.515625 4.703125,9.4375 C5.640625,10.171875 7.25,11.5 7.828125,12.03125 C8.1875,11.921875 8.421875,12.078125 8.5,12.234375 Z M11.828125,13.109375 C11.46875,12.359375 10.171875,10.421875 9.453125,9.359375 C10.828125,8.359375 11.875,6.71875 12.234375,5.65625 C13.6875,4.734375 15.390625,7.53125 10.15625,9.4375 C11.09375,10.171875 12.71875,11.5 13.3125,12.03125 C13.6875,11.921875 13.875,12.046875 13.96875,12.234375 Z M1.015625,17.65625 L1.15625,16.96875 L7.578125,16.96875 L7.578125,15.03125 L7.828125,15.03125 C8.46875,15.03125 9.125,15.234375 9.125,15.40625 L9.125,16.96875 L14.71875,16.96875 L14.71875,15.09375 L14.96875,15.09375 C15.75,15.125 16.25,15.359375 16.25,15.5 L16.25,16.96875 L22.296875,16.96875 C22.625,16.96875 22.875,17.09375 22.9375,17.359375 C22.171875,18.078125 20.90625,19.0625 20.90625,19.0625 L19.78125,17.65625 L16.25,17.65625 L16.25,19.25 C16.84375,19.3125 17.046875,19.5625 17.09375,19.890625 L14.71875,20.109375 L14.71875,17.65625 L9.125,17.65625 L9.125,19.25 C9.71875,19.3125 9.9375,19.5625 9.953125,19.875 L7.578125,20.109375 L7.578125,17.65625 Z M17.46875,13.109375 C17.0625,12.359375 15.671875,10.390625 14.90625,9.359375 C16.4375,8.375 17.65625,6.75 18.09375,5.65625 C18.21875,5.59375 18.34375,5.546875 18.453125,5.515625 L17.828125,4.796875 L3.265625,4.796875 L3.484375,4.078125 L11.15625,4.078125 L11.15625,-0.625 L0.9375,-0.625 L1.15625,-1.296875 L22.390625,-1.296875 C22.734375,-1.296875 22.984375,-1.171875 23.046875,-0.90625 C22.203125,-0.171875 20.90625,0.859375 20.90625,0.859375 L19.703125,-0.625 L12.75,-0.625 L12.75,4.078125 L20.28125,4.078125 C20.609375,4.078125 20.859375,4.203125 20.90625,4.46875 C20.40625,4.921875 19.703125,5.453125 19.296875,5.734375 C19.9375,6.390625 19.53125,8.15625 15.625,9.453125 C16.625,10.171875 18.34375,11.46875 18.9375,12 C19.296875,11.90625 19.515625,12.03125 19.609375,12.21875 Z" transform="translate(0.0078125, 20.109375) scale(1, -1)"/>
</svg>