<svg height="22.03125" viewBox="0 0 24 22.03125" width="24" xmlns="http://www.w3.org/2000/svg">
<path d="M1.015625,17.46875 L1.171875,16.78125 L7.421875,16.78125 L7.421875,14.453125 L7.65625,14.453125 C8.296875,14.453125 8.96875,14.6875 8.96875,14.875 L8.96875,16.78125 L14.859375,16.78125 L14.859375,14.515625 L15.09375,14.515625 C15.890625,14.546875 16.421875,14.8125 16.421875,14.96875 L16.421875,16.78125 L22.296875,16.78125 C22.625,16.78125 22.875,16.890625 22.921875,17.15625 C22.15625,17.859375 20.875,18.90625 20.875,18.90625 L19.734375,17.46875 L16.421875,17.46875 L16.421875,19.296875 C17.015625,19.375 17.203125,19.609375 17.25,19.921875 L14.859375,20.15625 L14.859375,17.46875 L8.96875,17.46875 L8.96875,19.296875 C9.546875,19.375 9.765625,19.609375 9.8125,19.921875 L7.421875,20.15625 L7.421875,17.46875 Z M5.515625,12.046875 L5.25,11.875 C6.046875,10.796875 6.953125,9.09375 7.0625,7.78125 C8.59375,6.4375 10.15625,9.765625 5.515625,12.046875 Z M16.65625,12.046875 C16.171875,10.578125 15.265625,8.640625 14.453125,7.25 L12.703125,7.25 L12.703125,12.28125 L21,12.28125 C21.359375,12.28125 21.578125,12.40625 21.625,12.671875 C20.859375,13.421875 19.609375,14.40625 19.609375,14.40625 L18.484375,13.015625 L12.703125,13.015625 L12.703125,15.03125 C13.265625,15.125 13.46875,15.34375 13.515625,15.640625 L11.140625,15.90625 L11.140625,13.015625 L2.546875,13.015625 L2.765625,12.28125 L11.140625,12.28125 L11.140625,7.25 L1.21875,7.25 L1.4375,6.53125 L9.53125,6.53125 C7.5625,3.703125 4.375,1.015625 0.765625,-0.796875 L1.015625,-1.171875 C5.203125,0.4375 8.78125,2.859375 11.140625,5.90625 L11.140625,-1.875 L11.453125,-1.875 C12,-1.875 12.703125,-1.484375 12.703125,-1.265625 L12.703125,6.53125 L12.796875,6.53125 C14.765625,3.09375 18.171875,0.484375 21.8125,-0.890625 C22.03125,-0.140625 22.5625,0.34375 23.1875,0.4375 L23.234375,0.703125 C19.609375,1.609375 15.59375,3.796875 13.390625,6.53125 L22.21875,6.53125 C22.5625,6.53125 22.796875,6.640625 22.84375,6.90625 C22.078125,7.625 20.8125,8.640625 20.8125,8.640625 L19.6875,7.25 L15.125,7.25 C16.265625,8.359375 17.421875,9.765625 18.140625,10.828125 C18.640625,10.78125 18.9375,10.9375 19.0625,11.234375 Z" transform="translate(0, 20.15625) scale(1, -1)"/>
</svg>