<svg height="22.03125" viewBox="0 0 24 22.03125" width="24" xmlns="http://www.w3.org/2000/svg">
<path d="M15.984375,4.6875 L15.75,4.4375 C16.84375,3.75 18.3125,2.40625 18.8125,1.296875 C20.421875,0.453125 21.234375,3.640625 15.984375,4.6875 Z M8.921875,14.96875 C9.578125,14.96875 9.859375,15.09375 9.9375,15.34375 L8.96875,15.546875 C9.171875,15.59375 9.265625,15.703125 9.265625,15.765625 L9.265625,17.109375 L14.515625,17.109375 L14.515625,15.4375 L14.78125,15.4375 C15.53125,15.453125 16.0625,15.71875 16.0625,15.859375 L16.0625,17.109375 L22.265625,17.109375 C22.625,17.109375 22.875,17.234375 22.921875,17.5 C22.15625,18.21875 20.875,19.203125 20.875,19.203125 L19.75,17.8125 L16.0625,17.8125 L16.0625,19.25 C16.6875,19.3125 16.890625,19.5625 16.921875,19.890625 L14.515625,20.109375 L14.515625,17.8125 L9.265625,17.8125 L9.265625,19.25 C9.859375,19.3125 10.078125,19.5625 10.109375,19.890625 L7.734375,20.109375 L7.734375,17.8125 L0.984375,17.8125 L1.125,17.109375 L7.734375,17.109375 L7.734375,15.8125 L7.46875,15.859375 C6.21875,13.484375 3.53125,10.484375 0.53125,8.6875 L0.765625,8.359375 C2.046875,8.921875 3.234375,9.640625 4.3125,10.4375 L4.3125,4.578125 L4.578125,4.578125 C5.359375,4.578125 5.859375,4.96875 5.859375,5.09375 L5.859375,6.046875 L8.5625,6.046875 C8.0625,1.890625 6.125,-0.09375 0.890625,-1.53125 L1.015625,-1.921875 C7.03125,-0.890625 9.59375,1.171875 10.25,6.046875 L13.015625,6.046875 L13.015625,0.171875 C13.015625,-1.015625 13.390625,-1.3125 15.34375,-1.3125 L18.234375,-1.3125 C22.296875,-1.3125 23.046875,-1.078125 23.046875,-0.390625 C23.046875,-0.09375 22.875,0.09375 22.34375,0.234375 L22.265625,3.078125 L21.953125,3.078125 C21.71875,1.828125 21.453125,0.71875 21.28125,0.34375 C21.171875,0.125 21.09375,0.078125 20.78125,0.046875 C20.40625,0 19.4375,0 18.265625,0 L15.578125,0 C14.59375,0 14.5,0.09375 14.5,0.453125 L14.5,6.046875 L18.171875,6.046875 L18.171875,5.234375 L18.40625,5.234375 C18.90625,5.234375 19.703125,5.59375 19.734375,5.765625 L19.734375,10.390625 C20.15625,10.484375 20.546875,10.6875 20.71875,10.875 L18.796875,12.3125 L17.921875,11.40625 L12.125,11.40625 C13.21875,12.046875 14.296875,12.9375 15.09375,13.578125 C15.546875,13.609375 15.859375,13.625 16.0625,13.796875 L14.296875,15.40625 L13.34375,14.453125 L8.515625,14.453125 Z M18.171875,10.6875 L18.171875,6.75 L12.671875,6.75 L12.671875,10.6875 Z M11.359375,11.40625 L6.140625,11.40625 L5.734375,11.5625 C6.546875,12.265625 7.265625,13.015625 7.921875,13.734375 L13.171875,13.734375 C12.703125,12.984375 12,12.078125 11.359375,11.40625 Z M5.859375,10.6875 L11.1875,10.6875 L11.1875,6.75 L5.859375,6.75 Z" transform="translate(0.2109375, 20.109375) scale(1, -1)"/>
</svg>