<svg height="22.078125" viewBox="0 0 24 22.078125" width="24" xmlns="http://www.w3.org/2000/svg">
<path d="M15.859375,4.703125 L15.640625,4.46875 C16.75,3.75 18.171875,2.40625 18.671875,1.3125 C20.234375,0.453125 21.09375,3.59375 15.859375,4.703125 Z M9.796875,15.578125 C10.46875,15.578125 10.734375,15.75 10.796875,15.984375 L8.96875,16.375 L8.96875,17.109375 L14.875,17.109375 L14.875,15.4375 L15.125,15.4375 C15.90625,15.453125 16.421875,15.71875 16.421875,15.859375 L16.421875,17.109375 L22.34375,17.109375 C22.6875,17.109375 22.921875,17.234375 22.96875,17.5 C22.203125,18.21875 20.921875,19.203125 20.921875,19.203125 L19.828125,17.8125 L16.421875,17.8125 L16.421875,19.25 C17.015625,19.3125 17.234375,19.5625 17.25,19.890625 L14.875,20.109375 L14.875,17.8125 L8.96875,17.8125 L8.96875,19.25 C9.546875,19.3125 9.765625,19.5625 9.8125,19.890625 L7.421875,20.109375 L7.421875,17.8125 L0.984375,17.8125 L1.15625,17.109375 L7.421875,17.109375 L7.421875,15.359375 L7.65625,15.359375 C6.21875,12.9375 3.75,10.375 0.84375,8.6875 L1.078125,8.359375 C2.15625,8.8125 3.1875,9.359375 4.125,9.984375 L4.125,4.203125 L4.390625,4.203125 C5.15625,4.203125 5.6875,4.609375 5.6875,4.75 L5.6875,5.515625 L10.25,5.515625 C9.078125,2.1875 6.546875,-0.265625 0.9375,-1.53125 L1.15625,-1.96875 C7.6875,-0.703125 10.515625,1.78125 11.859375,5.515625 L12.859375,5.515625 L12.859375,0.09375 C12.859375,-1.109375 13.25,-1.421875 15.21875,-1.421875 L18.140625,-1.421875 C22.25,-1.421875 22.96875,-1.171875 22.96875,-0.484375 C22.96875,-0.171875 22.828125,0.03125 22.296875,0.1875 L22.21875,2.875 L21.90625,2.875 C21.640625,1.703125 21.390625,0.625 21.21875,0.265625 C21.125,0.078125 21.03125,0 20.71875,-0.03125 C20.328125,-0.046875 19.375,-0.046875 18.1875,-0.046875 L15.453125,-0.046875 C14.46875,-0.046875 14.375,0.03125 14.375,0.390625 L14.375,5.515625 L18.59375,5.515625 L18.59375,4.5625 L18.84375,4.5625 C19.34375,4.5625 20.109375,4.9375 20.140625,5.09375 L20.140625,9.84375 C20.59375,9.9375 20.96875,10.125 21.140625,10.296875 L19.21875,11.78125 L18.359375,10.828125 L14.421875,10.828125 C14.640625,10.890625 14.828125,10.96875 15,11.0625 C15.75,11.46875 16.25,12.40625 16.734375,13.796875 C17.203125,13.828125 17.46875,13.921875 17.640625,14.109375 L15.953125,15.484375 L15.09375,14.65625 L9.125,14.65625 Z M18.59375,10.125 L18.59375,6.1875 L12.078125,6.1875 C12.4375,7.390625 12.671875,8.6875 12.84375,10.125 Z M5.6875,10.125 L11.15625,10.125 C11.046875,8.71875 10.828125,7.390625 10.46875,6.1875 L5.6875,6.1875 Z M5.96875,10.828125 L5.546875,11.015625 C6.703125,11.921875 7.703125,12.9375 8.546875,13.9375 L15.125,13.9375 C14.859375,13.171875 14.546875,12.625 14.25,12.4375 C14.140625,12.34375 13.9375,12.28125 13.65625,12.28125 C13.21875,12.28125 11.6875,12.40625 10.890625,12.484375 L10.875,12.125 C11.71875,12 12.53125,11.78125 12.8125,11.5625 C13.0625,11.40625 13.203125,11.140625 13.21875,10.828125 Z" transform="translate(0.09375, 20.109375) scale(1, -1)"/>
</svg>