<svg height="21.96875" viewBox="0 0 24 21.96875" width="24" xmlns="http://www.w3.org/2000/svg">
<path d="M16.078125,13.375 L15.84375,13.171875 C17.234375,12.03125 19.015625,10.0625 19.484375,8.5 C21.3125,7.34375 22.296875,11.328125 16.078125,13.375 Z M10.21875,12.984375 L9.9375,12.8125 C10.578125,11.953125 11.296875,10.484375 11.375,9.3125 C12.8125,8.09375 14.375,11.140625 10.21875,12.984375 Z M5.609375,14.40625 C4.875,11.765625 3.53125,9.34375 2.140625,7.84375 L2.46875,7.578125 C4.25,8.734375 5.90625,10.609375 7.03125,12.953125 C11.25,13.0625 15.859375,13.515625 18.984375,14.046875 C19.515625,13.796875 19.96875,13.78125 20.15625,13.96875 L18.578125,15.546875 C16.109375,14.8125 11.71875,14.015625 7.78125,13.578125 Z M11.140625,8.65625 L11.140625,6.140625 L1.265625,6.140625 L1.484375,5.453125 L9.390625,5.453125 C7.484375,2.953125 4.53125,0.671875 1.109375,-0.859375 L1.3125,-1.25 C5.375,0.078125 8.828125,2.140625 11.140625,4.84375 L11.140625,-1.875 L11.453125,-1.875 C12.03125,-1.875 12.703125,-1.53125 12.703125,-1.34375 L12.703125,5.453125 L12.9375,5.453125 C14.8125,2.375 18.03125,0.046875 21.40625,-1.171875 C21.625,-0.40625 22.171875,0.125 22.875,0.234375 L22.890625,0.5 C19.5625,1.265625 15.765625,3.125 13.609375,5.453125 L22.125,5.453125 C22.46875,5.453125 22.703125,5.5625 22.75,5.8125 C21.9375,6.59375 20.59375,7.625 20.59375,7.625 L19.390625,6.140625 L12.703125,6.140625 L12.703125,7.78125 C13.296875,7.84375 13.515625,8.09375 13.5625,8.40625 Z M14.59375,20.09375 L14.59375,17.828125 L9.21875,17.828125 L9.21875,19.203125 C9.84375,19.296875 10.0625,19.515625 10.125,19.875 L7.703125,20.09375 L7.703125,17.828125 L0.984375,17.828125 L1.203125,17.109375 L7.703125,17.109375 L7.703125,14.96875 L7.984375,14.96875 C8.59375,14.96875 9.21875,15.265625 9.21875,15.4375 L9.21875,17.109375 L14.59375,17.109375 L14.59375,15.3125 L14.875,15.3125 C15.484375,15.3125 16.125,15.625 16.125,15.796875 L16.125,17.109375 L22.4375,17.109375 C22.78125,17.109375 22.984375,17.234375 23.0625,17.5 C22.21875,18.265625 20.921875,19.265625 20.921875,19.265625 L19.75,17.828125 L16.125,17.828125 L16.125,19.203125 C16.75,19.296875 16.96875,19.515625 17.015625,19.875 Z" transform="translate(-0.0234375, 20.09375) scale(1, -1)"/>
</svg>