<svg height="21.984375" viewBox="0 0 24 21.984375" width="24" xmlns="http://www.w3.org/2000/svg">
<path d="M1.4375,17.46875 L1.609375,16.78125 L7.484375,16.78125 L7.484375,14.453125 L7.75,14.453125 C8.375,14.453125 9.046875,14.6875 9.046875,14.875 L9.046875,16.78125 L14.765625,16.78125 L14.765625,14.515625 L15.03125,14.515625 C15.796875,14.546875 16.3125,14.8125 16.3125,14.96875 L16.3125,16.78125 L21.90625,16.78125 C22.25,16.78125 22.515625,16.890625 22.53125,17.15625 C21.796875,17.859375 20.5,18.90625 20.5,18.90625 L19.375,17.46875 L16.3125,17.46875 L16.3125,19.296875 C16.921875,19.375 17.109375,19.609375 17.140625,19.921875 L14.765625,20.15625 L14.765625,17.46875 L9.046875,17.46875 L9.046875,19.296875 C9.640625,19.375 9.859375,19.609375 9.90625,19.921875 L7.484375,20.15625 L7.484375,17.46875 Z M11.1875,15.8125 L11.1875,13.109375 L1.921875,13.109375 L2.109375,12.40625 L11.1875,12.40625 L11.1875,9.1875 C9.265625,4.96875 5.1875,1.265625 0.953125,-0.796875 L1.203125,-1.171875 C5.140625,0.34375 8.8125,2.90625 11.1875,5.78125 L11.1875,-1.828125 L11.46875,-1.828125 C12.046875,-1.828125 12.75,-1.46875 12.75,-1.25 L12.75,7.171875 C14.609375,3.3125 17.8125,0.53125 21.625,-0.953125 C21.8125,-0.21875 22.375,0.28125 23.046875,0.40625 L23.0625,0.671875 C19.796875,1.53125 16.609375,3.453125 14.375,5.953125 C15.484375,6.703125 16.421875,7.65625 17.140625,8.6875 C18.3125,7.828125 19.5625,6.5 19.9375,5.375 C21.546875,4.4375 22.390625,7.703125 17.421875,9.125 C17.78125,9.671875 18.09375,10.25 18.34375,10.78125 C18.890625,10.75 19.0625,10.875 19.171875,11.140625 L16.828125,11.921875 C16.46875,10.125 15.453125,7.890625 14.046875,6.359375 C13.53125,6.953125 13.109375,7.578125 12.75,8.25 L12.75,12.40625 L21.484375,12.40625 C21.8125,12.40625 22.0625,12.53125 22.109375,12.796875 C21.359375,13.53125 20.0625,14.546875 20.0625,14.546875 L18.953125,13.109375 L12.75,13.109375 L12.75,14.921875 C13.3125,15.03125 13.515625,15.21875 13.5625,15.546875 Z M5.953125,11.90625 C5.46875,9.578125 4.21875,6.640625 2.28125,4.921875 L2.515625,4.578125 C4.21875,5.59375 5.515625,7.125 6.453125,8.6875 C7.171875,7.921875 7.796875,6.90625 7.921875,6.03125 C9.28125,4.96875 10.484375,7.75 6.765625,9.265625 C7.0625,9.796875 7.296875,10.3125 7.484375,10.828125 C8.046875,10.796875 8.234375,10.9375 8.328125,11.203125 Z" transform="translate(-0.0078125, 20.15625) scale(1, -1)"/>
</svg>