<svg height="22" viewBox="0 0 24 22" width="24" xmlns="http://www.w3.org/2000/svg">
<path d="M1.03125,17.296875 L1.171875,16.609375 L7.75,16.609375 L7.75,14.109375 L8.015625,14.109375 C8.609375,14.109375 9.3125,14.375 9.3125,14.5625 L9.3125,16.609375 L14.5625,16.609375 L14.5625,14.1875 L14.828125,14.1875 C15.578125,14.203125 16.125,14.515625 16.125,14.65625 L16.125,16.609375 L22.3125,16.609375 C22.65625,16.609375 22.921875,16.734375 22.96875,16.984375 C22.203125,17.71875 20.875,18.75 20.875,18.75 L19.75,17.296875 L16.125,17.296875 L16.125,19.25 C16.734375,19.3125 16.9375,19.5625 16.96875,19.890625 L14.5625,20.109375 L14.5625,17.296875 L9.3125,17.296875 L9.3125,19.25 C9.90625,19.3125 10.125,19.5625 10.15625,19.890625 L7.75,20.109375 L7.75,17.296875 Z M4.171875,12.53125 L8.359375,12.53125 L8.359375,9.046875 L4.171875,9.046875 Z M2.65625,13.25 L2.65625,1.15625 L2.90625,1.15625 C3.671875,1.15625 4.171875,1.53125 4.171875,1.65625 L4.171875,4.0625 L8.359375,4.0625 L8.359375,2.609375 L8.5625,2.609375 C9.046875,2.609375 9.8125,2.96875 9.84375,3.125 L9.84375,12.3125 C10.25,12.390625 10.609375,12.578125 10.75,12.75 L8.953125,14.140625 L8.109375,13.25 L4.46875,13.25 L2.65625,13.984375 Z M4.171875,8.359375 L8.359375,8.359375 L8.359375,4.78125 L4.171875,4.78125 Z M19.609375,12.71875 L19.609375,9.5 L14.140625,9.5 L14.140625,12.71875 Z M12.625,13.4375 L12.625,8.40625 C12.625,4.515625 11.65625,1.125 6.859375,-1.515625 L7.125,-1.84375 C11.25,-0.171875 13.015625,2.1875 13.703125,4.6875 L19.609375,4.6875 L19.609375,0.625 C19.609375,0.21875 19.484375,0.078125 18.984375,0.078125 C18.40625,0.078125 15.5,0.28125 15.5,0.28125 L15.5,-0.09375 C16.75,-0.265625 17.453125,-0.4375 17.859375,-0.71875 C18.21875,-0.984375 18.390625,-1.390625 18.453125,-1.890625 C20.875,-1.65625 21.171875,-0.8125 21.171875,0.40625 L21.171875,12.4375 C21.640625,12.53125 22.015625,12.71875 22.171875,12.90625 L20.15625,14.421875 L19.390625,13.4375 L14.421875,13.4375 L12.625,14.203125 Z M19.609375,8.8125 L19.609375,5.40625 L13.875,5.40625 C14.09375,6.40625 14.140625,7.4375 14.140625,8.453125 L14.140625,8.8125 Z" transform="translate(0, 20.109375) scale(1, -1)"/>
</svg>