<svg height="21.9375" viewBox="0 0 24 21.9375" width="24" xmlns="http://www.w3.org/2000/svg">
<path d="M1.265625,17.765625 L1.421875,17.0625 L8.09375,17.0625 L8.09375,15.34375 L8.328125,15.34375 C8.921875,15.34375 9.625,15.546875 9.625,15.75 L9.625,17.0625 L14.203125,17.0625 L14.203125,15.40625 L14.46875,15.40625 C15.265625,15.4375 15.75,15.703125 15.75,15.8125 L15.75,17.0625 L22.0625,17.0625 C22.390625,17.0625 22.625,17.1875 22.6875,17.453125 C21.90625,18.171875 20.65625,19.125 20.65625,19.125 L19.5625,17.765625 L15.75,17.765625 L15.75,19.171875 C16.34375,19.25 16.5625,19.484375 16.609375,19.828125 L14.203125,20.0625 L14.203125,17.765625 L9.625,17.765625 L9.625,19.171875 C10.21875,19.265625 10.4375,19.484375 10.46875,19.828125 L8.09375,20.0625 L8.09375,17.765625 Z M13.890625,6.140625 C11.734375,5.109375 9.140625,4.296875 7.109375,3.796875 L7.109375,5.421875 C7.53125,5.46875 7.75,5.6875 7.796875,5.953125 L6.75,6.078125 L7.421875,6.75 L19.609375,6.75 C19.375,3.046875 18.84375,0.765625 18.234375,0.234375 C18,0.046875 17.8125,0 17.40625,0 C16.921875,0 15.5,0.125 14.71875,0.1875 L14.71875,-0.21875 C15.4375,-0.359375 16.21875,-0.53125 16.515625,-0.765625 C16.796875,-0.984375 16.875,-1.421875 16.875,-1.875 C17.765625,-1.875 18.578125,-1.625 19.203125,-1.125 C20.203125,-0.28125 20.875,2.25 21.140625,6.546875 C21.625,6.625 21.90625,6.71875 22.078125,6.90625 L20.296875,8.375 L19.4375,7.4375 L8.046875,7.4375 C8.40625,7.84375 8.71875,8.25 9,8.65625 C9.546875,8.546875 9.765625,8.640625 9.890625,8.859375 L8.71875,9.28125 L16.984375,9.28125 L16.984375,8.15625 L17.234375,8.15625 C17.734375,8.15625 18.5,8.5 18.53125,8.640625 L18.53125,14.15625 C18.953125,14.234375 19.3125,14.421875 19.4375,14.59375 L17.609375,16.015625 L16.78125,15.09375 L6.9375,15.09375 L5.28125,15.84375 L5.28125,8.328125 L5.5,8.328125 C6.125,8.328125 6.796875,8.65625 6.796875,8.8125 L6.796875,9.28125 L7.4375,9.28125 C6.078125,6.796875 3.546875,4.125 1.03125,2.5625 L1.265625,2.234375 C2.8125,2.921875 4.296875,3.9375 5.640625,5.0625 L5.640625,1.703125 C5.640625,0.546875 5.96875,0.234375 8.046875,0.234375 L11.15625,0.234375 C15.484375,0.234375 16.25,0.453125 16.25,1.15625 C16.25,1.46875 16.0625,1.625 15.53125,1.78125 L15.453125,3.75 L15.171875,3.75 C14.953125,2.828125 14.71875,2.09375 14.546875,1.828125 C14.40625,1.625 14.296875,1.609375 13.984375,1.578125 C13.609375,1.5625 12.546875,1.53125 11.234375,1.53125 L8.25,1.53125 C7.203125,1.53125 7.109375,1.609375 7.109375,1.9375 L7.109375,3.265625 C9.1875,3.453125 12,3.953125 14.25,4.703125 C14.59375,4.46875 14.828125,4.4375 15.046875,4.5625 Z M16.984375,10.015625 L6.796875,10.015625 L6.796875,11.8125 L16.984375,11.8125 Z M16.984375,12.5 L6.796875,12.5 L6.796875,14.40625 L16.984375,14.40625 Z" transform="translate(0.140625, 20.0625) scale(1, -1)"/>
</svg>