<svg height="21.921875" viewBox="0 0 24 21.921875" width="24" xmlns="http://www.w3.org/2000/svg">
<path d="M1.03125,17.765625 L1.171875,17.046875 L7.609375,17.046875 L7.609375,15.265625 L7.84375,15.265625 C8.5,15.265625 9.140625,15.484375 9.140625,15.640625 L9.140625,17.046875 L14.734375,17.046875 L14.734375,15.3125 L14.96875,15.3125 C15.75,15.34375 16.265625,15.59375 16.265625,15.765625 L16.265625,17.046875 L22.3125,17.046875 C22.65625,17.046875 22.890625,17.15625 22.9375,17.421875 C22.171875,18.171875 20.921875,19.15625 20.921875,19.15625 L19.78125,17.765625 L16.265625,17.765625 L16.265625,19.21875 C16.875,19.296875 17.0625,19.53125 17.109375,19.875 L14.734375,20.09375 L14.734375,17.765625 L9.140625,17.765625 L9.140625,19.21875 C9.75,19.296875 9.953125,19.53125 9.984375,19.875 L7.609375,20.09375 L7.609375,17.765625 Z M2.515625,15.625 L2.296875,15.40625 C3.40625,14.6875 4.75,13.34375 5.140625,12.171875 C6.8125,11.15625 7.796875,14.6875 2.515625,15.625 Z M12.34375,13.703125 L17.203125,13.703125 C16.5625,12.953125 15.75,12.265625 14.78125,11.640625 C13.65625,12.09375 12.640625,12.671875 11.875,13.296875 Z M12.578125,16.265625 C11.46875,14.328125 9.28125,12.09375 7.21875,10.828125 L7.46875,10.46875 C8.875,11.09375 10.265625,12 11.46875,12.984375 C12.140625,12.265625 12.953125,11.609375 13.890625,11.0625 C11.921875,9.890625 9.578125,8.953125 7.125,8.328125 L7.3125,7.921875 C10.203125,8.453125 12.8125,9.28125 15.03125,10.46875 C17.046875,9.4375 19.4375,8.71875 21.890625,8.25 C22.03125,8.90625 22.46875,9.28125 23.046875,9.40625 L23.046875,9.671875 C20.71875,9.9375 18.28125,10.421875 16.15625,11.109375 C17.296875,11.828125 18.28125,12.640625 19.109375,13.5625 C19.703125,13.578125 19.96875,13.65625 20.15625,13.84375 L18.578125,15.28125 L17.546875,14.40625 L13.0625,14.40625 C13.3125,14.6875 13.578125,14.96875 13.828125,15.265625 C14.40625,15.125 14.59375,15.21875 14.71875,15.453125 Z M9.21875,5.359375 L9.40625,4.625 L13.609375,4.625 L13.609375,3.046875 L7.796875,3.046875 L7.984375,2.359375 L13.609375,2.359375 L13.609375,0.5 L13.890625,0.5 C14.46875,0.5 15.171875,0.890625 15.171875,1.0625 L15.171875,2.359375 L21.171875,2.359375 C21.53125,2.359375 21.71875,2.46875 21.765625,2.71875 C21.078125,3.359375 19.9375,4.15625 19.9375,4.15625 L18.953125,3.046875 L15.171875,3.046875 L15.171875,4.625 L19.484375,4.625 C19.828125,4.625 20.015625,4.75 20.09375,5.015625 C19.4375,5.609375 18.4375,6.34375 18.4375,6.34375 L17.546875,5.359375 L15.171875,5.359375 L15.171875,6.890625 L19.578125,6.890625 C19.921875,6.890625 20.140625,7.015625 20.1875,7.265625 C19.515625,7.875 18.453125,8.640625 18.453125,8.640625 L17.546875,7.578125 L15.171875,7.578125 L15.171875,8.546875 C15.59375,8.609375 15.765625,8.8125 15.8125,9.078125 L13.609375,9.3125 L13.609375,7.578125 L8.6875,7.578125 L8.875,6.890625 L13.609375,6.890625 L13.609375,5.359375 Z M5.828125,8.203125 C6.453125,8.296875 6.8125,8.5 6.984375,8.65625 L4.921875,10.390625 L3.953125,9.140625 L1.03125,9.140625 L1.171875,8.453125 L4.296875,8.453125 L4.296875,1.9375 C3.125,1.171875 1.890625,0.40625 1.078125,0.03125 L2.203125,-1.828125 C2.40625,-1.703125 2.5,-1.53125 2.453125,-1.25 C3.3125,-0.453125 4.65625,0.953125 5.515625,2.046875 C7.203125,-0.703125 9.140625,-1.265625 13.515625,-1.265625 C16.203125,-1.265625 19.53125,-1.265625 21.9375,-1.265625 C22.03125,-0.578125 22.421875,-0.171875 23.09375,-0.078125 L23.09375,0.28125 C20.15625,0.1875 16.34375,0.1875 13.515625,0.1875 C9.390625,0.1875 7.484375,0.484375 5.828125,2.515625 Z" transform="translate(-0.0625, 20.09375) scale(1, -1)"/>
</svg>