<svg height="21.890625" viewBox="0 0 24 21.890625" width="24" xmlns="http://www.w3.org/2000/svg">
<path d="M3.171875,15.703125 L2.953125,15.453125 C4.0625,14.859375 5.375,13.578125 5.765625,12.53125 C7.484375,11.640625 8.28125,15.171875 3.171875,15.703125 Z M1.625,12.03125 L1.421875,11.78125 C2.5625,11.1875 3.953125,10.015625 4.421875,8.921875 C6.171875,8.109375 6.859375,11.640625 1.625,12.03125 Z M0.984375,6.8125 L1.203125,6.125 L4.296875,6.125 L4.296875,1.875 C3.09375,1.15625 1.828125,0.453125 0.984375,0.09375 L2.09375,-1.796875 C2.28125,-1.703125 2.40625,-1.53125 2.359375,-1.25 C3.21875,-0.5 4.609375,0.84375 5.5,1.84375 C7.25,-0.71875 9.171875,-1.25 13.5625,-1.25 C16.25,-1.25 19.625,-1.25 22.03125,-1.25 C22.109375,-0.546875 22.515625,-0.125 23.203125,0 L23.203125,0.34375 C20.25,0.234375 16.390625,0.234375 13.53125,0.234375 C9.359375,0.234375 7.515625,0.5 5.828125,2.328125 L5.828125,5.8125 C6.28125,5.90625 6.703125,6.09375 6.859375,6.28125 L4.96875,7.734375 L4.0625,6.8125 Z M12.578125,16.265625 C11.46875,14.328125 9.28125,12.09375 7.21875,10.828125 L7.46875,10.46875 C8.875,11.09375 10.265625,12 11.46875,12.984375 C12.140625,12.265625 12.953125,11.609375 13.890625,11.0625 C11.875,9.890625 9.484375,8.921875 6.984375,8.296875 L7.171875,7.890625 C10.109375,8.421875 12.765625,9.28125 15,10.46875 C17.046875,9.4375 19.4375,8.71875 21.890625,8.25 C22.03125,8.90625 22.46875,9.28125 23.046875,9.40625 L23.046875,9.671875 C20.71875,9.9375 18.28125,10.421875 16.15625,11.109375 C17.296875,11.828125 18.28125,12.640625 19.109375,13.5625 C19.703125,13.5625 19.96875,13.625 20.15625,13.84375 L18.578125,15.28125 L17.546875,14.40625 L13.0625,14.40625 C13.3125,14.6875 13.578125,14.96875 13.828125,15.265625 C14.234375,15.171875 14.453125,15.171875 14.546875,15.3125 L14.765625,15.3125 C15.53125,15.34375 16.03125,15.59375 16.03125,15.765625 L16.03125,17.046875 L22.3125,17.046875 C22.65625,17.046875 22.890625,17.15625 22.9375,17.421875 C22.171875,18.171875 20.921875,19.15625 20.921875,19.15625 L19.78125,17.765625 L16.03125,17.765625 L16.03125,19.21875 C16.625,19.296875 16.84375,19.53125 16.890625,19.875 L14.5,20.09375 L14.5,17.765625 L9.359375,17.765625 L9.359375,19.21875 C9.953125,19.296875 10.171875,19.53125 10.21875,19.875 L7.84375,20.09375 L7.84375,17.765625 L1.03125,17.765625 L1.171875,17.046875 L7.84375,17.046875 L7.84375,15.265625 L8.09375,15.265625 C8.734375,15.265625 9.359375,15.484375 9.359375,15.640625 L9.359375,17.046875 L14.5,17.046875 L14.5,15.53125 Z M12.34375,13.703125 L17.203125,13.703125 C16.5625,12.953125 15.71875,12.265625 14.78125,11.640625 C13.65625,12.125 12.640625,12.671875 11.875,13.296875 Z M9.21875,5.359375 L9.40625,4.625 L13.609375,4.625 L13.609375,3.046875 L7.796875,3.046875 L7.984375,2.359375 L13.609375,2.359375 L13.609375,0.5 L13.890625,0.5 C14.46875,0.5 15.171875,0.890625 15.171875,1.0625 L15.171875,2.359375 L21.171875,2.359375 C21.53125,2.359375 21.71875,2.46875 21.765625,2.71875 C21.078125,3.359375 19.9375,4.15625 19.9375,4.15625 L18.953125,3.046875 L15.171875,3.046875 L15.171875,4.625 L19.484375,4.625 C19.828125,4.625 20.015625,4.75 20.09375,5.015625 C19.4375,5.609375 18.4375,6.34375 18.4375,6.34375 L17.546875,5.359375 L15.171875,5.359375 L15.171875,6.890625 L19.578125,6.890625 C19.921875,6.890625 20.140625,7.015625 20.1875,7.265625 C19.515625,7.875 18.453125,8.640625 18.453125,8.640625 L17.546875,7.578125 L15.171875,7.578125 L15.171875,8.546875 C15.59375,8.609375 15.765625,8.8125 15.8125,9.078125 L13.609375,9.3125 L13.609375,7.578125 L8.6875,7.578125 L8.875,6.890625 L13.609375,6.890625 L13.609375,5.359375 Z" transform="translate(-0.09375, 20.09375) scale(1, -1)"/>
</svg>