<svg height="22.21875" viewBox="0 0 24 22.21875" width="24" xmlns="http://www.w3.org/2000/svg">
<path d="M1.03125,17.6875 L1.171875,16.96875 L7.890625,16.96875 L7.890625,15.078125 L8.15625,15.078125 C8.765625,15.078125 9.4375,15.28125 9.4375,15.453125 L9.4375,16.96875 L14.453125,16.96875 L14.453125,15.140625 L14.71875,15.140625 C15.453125,15.140625 15.984375,15.4375 15.984375,15.546875 L15.984375,16.96875 L22.3125,16.96875 C22.65625,16.96875 22.890625,17.09375 22.9375,17.359375 C22.171875,18.09375 20.921875,19.078125 20.921875,19.078125 L19.796875,17.6875 L15.984375,17.6875 L15.984375,19.25 C16.609375,19.3125 16.796875,19.5625 16.84375,19.890625 L14.453125,20.109375 L14.453125,17.6875 L9.4375,17.6875 L9.4375,19.25 C10.03125,19.3125 10.25,19.5625 10.296875,19.890625 L7.890625,20.109375 L7.890625,17.6875 Z M6.28125,5.1875 L6.09375,4.921875 C7.390625,4.25 9.03125,2.921875 9.625,1.796875 C11.28125,0.984375 11.90625,4.34375 6.28125,5.1875 Z M3.953125,14.78125 L3.953125,9.21875 L4.203125,9.21875 C4.796875,9.21875 5.5,9.578125 5.5,9.71875 L5.5,10.4375 L18.40625,10.4375 L18.40625,9.53125 L18.640625,9.53125 C19.15625,9.53125 19.921875,9.890625 19.9375,10.03125 L19.9375,13.78125 C20.375,13.875 20.78125,14.0625 20.953125,14.25 L19.03125,15.671875 L18.171875,14.78125 L5.65625,14.78125 L3.953125,15.5 Z M18.40625,11.140625 L15.03125,11.140625 L15.03125,14.0625 L18.40625,14.0625 Z M5.5,11.140625 L5.5,14.0625 L8.8125,14.0625 L8.8125,11.140625 Z M10.25,11.140625 L10.25,14.0625 L13.5625,14.0625 L13.5625,11.140625 Z M18.125,6.1875 C17.46875,5.140625 16.5625,4.109375 15.453125,3.140625 C14.5625,4.21875 13.921875,5.453125 13.46875,6.71875 L21.8125,6.71875 C22.125,6.71875 22.375,6.84375 22.421875,7.109375 C21.640625,7.796875 20.421875,8.734375 20.421875,8.734375 L19.375,7.421875 L17.59375,7.421875 C18.53125,7.5625 18.53125,9.4375 15.09375,9.703125 L14.859375,9.453125 C15.640625,9.03125 16.625,8.1875 17.046875,7.484375 L17.25,7.421875 L13.25,7.421875 C13.078125,7.9375 12.9375,8.5 12.84375,9.03125 C13.3125,9.125 13.515625,9.359375 13.53125,9.625 L11.0625,9.8125 C11.203125,9 11.40625,8.1875 11.640625,7.421875 L5.6875,7.421875 L3.90625,8.203125 L3.90625,5.1875 C3.90625,2.921875 3.546875,0.484375 1.125,-1.53125 L1.390625,-1.875 C5.015625,0.078125 5.40625,3.046875 5.40625,5.1875 L5.40625,6.71875 L11.859375,6.71875 C12.4375,5.0625 13.21875,3.53125 14.328125,2.25 C12.171875,0.640625 9.5,-0.640625 6.625,-1.46875 L6.796875,-1.828125 C9.9375,-1.21875 12.8125,-0.078125 15.140625,1.375 C16.390625,0.171875 18,-0.796875 19.984375,-1.421875 C21.3125,-1.875 22.625,-2.109375 22.921875,-1.34375 C23.0625,-1.03125 22.9375,-0.8125 22.21875,-0.34375 L22.34375,2.28125 L22.0625,2.328125 C21.8125,1.484375 21.5,0.59375 21.28125,0.140625 C21.171875,-0.171875 20.921875,-0.1875 20.421875,-0.046875 C18.75,0.40625 17.40625,1.203125 16.34375,2.1875 C17.5,3.046875 18.484375,3.953125 19.203125,4.921875 C19.75,4.78125 19.984375,4.875 20.140625,5.109375 Z" transform="translate(-0.046875, 20.109375) scale(1, -1)"/>
</svg>