<svg height="22.078125" viewBox="0 0 24 22.078125" width="24" xmlns="http://www.w3.org/2000/svg">
<path d="M10.75,4.6875 L10.515625,4.46875 C11.6875,3.75 12.984375,2.40625 13.34375,1.21875 C15.03125,0.21875 15.984375,3.75 10.75,4.6875 Z M1.015625,17.765625 L1.171875,17.046875 L7.265625,17.046875 L7.265625,15.125 L7.515625,15.125 C8.15625,15.125 8.828125,15.3125 8.828125,15.5 L8.828125,17.046875 L14.96875,17.046875 L14.96875,15.1875 L15.234375,15.1875 C16.015625,15.21875 16.53125,15.453125 16.53125,15.625 L16.53125,17.046875 L22.296875,17.046875 C22.625,17.046875 22.875,17.15625 22.921875,17.421875 C22.171875,18.171875 20.90625,19.15625 20.90625,19.15625 L19.75,17.765625 L16.53125,17.765625 L16.53125,19.3125 C17.109375,19.390625 17.328125,19.625 17.375,19.9375 L14.96875,20.1875 L14.96875,17.765625 L8.828125,17.765625 L8.828125,19.3125 C9.40625,19.390625 9.625,19.625 9.671875,19.9375 L7.265625,20.1875 L7.265625,17.765625 Z M17.859375,8.875 L17.859375,6.078125 L8.71875,6.078125 L8.875,5.40625 L17.859375,5.40625 L17.859375,0.484375 C17.859375,0.140625 17.734375,0.03125 17.296875,0.03125 C16.796875,0.03125 14.28125,0.1875 14.28125,0.1875 L14.28125,-0.1875 C15.34375,-0.34375 15.984375,-0.5 16.34375,-0.765625 C16.65625,-1.015625 16.796875,-1.421875 16.84375,-1.890625 C19.109375,-1.6875 19.375,-0.890625 19.375,0.390625 L19.375,5.40625 L22.53125,5.40625 C22.875,5.40625 23.109375,5.515625 23.15625,5.765625 C22.421875,6.484375 21.1875,7.4375 21.1875,7.4375 L20.109375,6.078125 L19.375,6.078125 L19.375,8.015625 C19.921875,8.09375 20.140625,8.28125 20.1875,8.609375 Z M1.078125,6.046875 L1.296875,5.359375 L3.140625,5.359375 C3.09375,2.921875 2.859375,0.5 0.984375,-1.515625 L1.34375,-1.875 C4.015625,0.03125 4.515625,2.65625 4.6875,5.359375 L6.625,5.359375 L6.625,-1.875 L6.9375,-1.875 C7.484375,-1.875 8.15625,-1.515625 8.15625,-1.296875 L8.15625,14.0625 C8.765625,14.15625 8.953125,14.40625 9.03125,14.71875 L6.625,15 L6.625,9.984375 L3.765625,9.984375 L3.765625,13.515625 C4.3125,13.609375 4.53125,13.796875 4.578125,14.140625 L2.296875,14.359375 L2.296875,7.734375 L2.546875,7.734375 C3.09375,7.734375 3.765625,8.09375 3.765625,8.28125 L3.765625,9.265625 L6.625,9.265625 L6.625,6.046875 Z M15.703125,14.1875 C16.34375,14.1875 16.65625,14.296875 16.75,14.546875 L14.28125,15.1875 C13.3125,13.75 11.359375,11.96875 9.21875,10.890625 L9.4375,10.578125 C10.015625,10.75 10.5625,10.96875 11.09375,11.1875 C11.71875,10.609375 12.3125,9.765625 12.4375,9.03125 C13.625,8.203125 14.59375,10.4375 11.71875,11.5 C12.1875,11.71875 12.640625,11.953125 13.078125,12.21875 C13.84375,11.734375 14.609375,10.96875 14.90625,10.3125 C16.171875,9.640625 16.84375,11.96875 13.65625,12.578125 L14.28125,13.015625 L19.203125,13.015625 C16.9375,10.0625 13.609375,8.40625 8.953125,7.21875 L9.171875,6.8125 C14.953125,7.796875 18.53125,9.578125 21.140625,12.8125 C21.671875,12.8125 22.015625,12.90625 22.203125,13.109375 L20.421875,14.59375 L19.53125,13.703125 L15.171875,13.703125 Z" transform="translate(-0.0703125, 20.1875) scale(1, -1)"/>
</svg>