<svg height="22.078125" viewBox="0 0 24 22.078125" width="24" xmlns="http://www.w3.org/2000/svg">
<path d="M8.78125,8.046875 L8.40625,7.9375 C8.875,6.625 9.453125,4.578125 9.40625,3.078125 C10.421875,1.9375 11.609375,4.609375 8.78125,8.046875 Z M18,14.71875 L15.578125,15.28125 C15.078125,12.09375 13.984375,8.859375 12.8125,6.703125 L13.203125,6.484375 C13.96875,7.34375 14.65625,8.375 15.28125,9.546875 C15.703125,7.3125 16.25,5.28125 17.109375,3.453125 C15.90625,1.5625 14.28125,-0.140625 12.140625,-1.5625 L12.390625,-1.890625 C14.640625,-0.75 16.390625,0.640625 17.734375,2.296875 C18.71875,0.640625 20.015625,-0.765625 21.765625,-1.828125 C21.984375,-1.0625 22.484375,-0.640625 23.1875,-0.5 L23.234375,-0.265625 C21.265625,0.625 19.75,1.875 18.578125,3.4375 C20.046875,5.609375 20.921875,8.1875 21.453125,11.109375 L22.421875,11.109375 C22.75,11.109375 22.96875,11.234375 23.046875,11.5 C22.296875,12.1875 21.078125,13.171875 21.078125,13.171875 L19.984375,11.8125 L16.3125,11.8125 C16.625,12.578125 16.890625,13.375 17.140625,14.1875 C17.640625,14.203125 17.90625,14.421875 18,14.71875 Z M1.015625,17.734375 L1.15625,17.046875 L7.75,17.046875 L7.75,15.09375 L7.984375,15.09375 C8.640625,15.09375 9.265625,15.3125 9.265625,15.484375 L9.265625,17.046875 L14.546875,17.046875 L14.546875,15.171875 L14.8125,15.171875 C15.09375,15.171875 15.359375,15.21875 15.578125,15.28125 C15.890625,15.359375 16.078125,15.5 16.078125,15.578125 L16.078125,17.046875 L22.296875,17.046875 C22.625,17.046875 22.875,17.15625 22.9375,17.421875 C22.15625,18.140625 20.90625,19.125 20.90625,19.125 L19.78125,17.734375 L16.078125,17.734375 L16.078125,19.296875 C16.703125,19.390625 16.890625,19.609375 16.9375,19.9375 L14.546875,20.1875 L14.546875,17.734375 L9.265625,17.734375 L9.265625,19.296875 C9.890625,19.390625 10.078125,19.609375 10.125,19.9375 L7.75,20.1875 L7.75,17.734375 Z M9.3125,13.984375 L9.078125,13.796875 C9.90625,13.125 10.875,12.046875 11.453125,11.046875 L10.78125,10.25 L7.9375,10.25 L7.9375,14.140625 C8.546875,14.234375 8.734375,14.421875 8.78125,14.765625 L6.5,15.03125 L6.5,10.25 L3.8125,10.25 L2.828125,10.6875 C3.625,11.296875 4.4375,12.09375 5.109375,12.9375 C5.59375,12.8125 5.90625,12.984375 6.03125,13.21875 L4.03125,14.28125 C3.1875,12.59375 2.046875,11.015625 1.078125,10.0625 L1.421875,9.75 L2.1875,10.21875 L2.1875,-1.875 L2.375,-1.875 C3.078125,-1.875 3.53125,-1.515625 3.53125,-1.421875 L3.53125,9.53125 L6.578125,9.53125 L6.578125,7.828125 L4.78125,8.109375 C4.65625,5.953125 4.3125,3.625 3.796875,1.96875 L4.25,1.78125 C5.015625,3.1875 5.5625,5.328125 5.875,7.21875 C6.234375,7.25 6.453125,7.390625 6.578125,7.578125 L6.578125,-1.703125 L6.765625,-1.703125 C7.375,-1.703125 7.84375,-1.34375 7.875,-1.21875 L7.875,9.53125 L10.984375,9.53125 L10.984375,0.265625 C10.984375,-0.03125 10.921875,-0.140625 10.578125,-0.140625 C10.25,-0.140625 8.921875,-0.046875 8.921875,-0.046875 L8.921875,-0.40625 C9.59375,-0.5 9.953125,-0.59375 10.203125,-0.796875 C10.390625,-0.953125 10.46875,-1.25 10.515625,-1.53125 C12.125,-1.390625 12.359375,-0.859375 12.359375,0.171875 L12.359375,9.34375 C12.75,9.40625 13.125,9.59375 13.25,9.765625 L12.8125,10.078125 C13.515625,10.625 13.125,12.75 9.3125,13.984375 Z M15.671875,10.296875 L16.03125,11.109375 L19.734375,11.109375 C19.421875,8.765625 18.796875,6.578125 17.78125,4.625 C16.796875,6.28125 16.125,8.203125 15.671875,10.296875 Z" transform="translate(-0.125, 20.1875) scale(1, -1)"/>
</svg>