<svg height="22.03125" viewBox="0 0 24 22.03125" width="24" xmlns="http://www.w3.org/2000/svg">
<path d="M10.796875,15 C10.3125,13.515625 9.671875,11.96875 9.140625,10.984375 L9.546875,10.78125 C10.390625,11.515625 11.328125,12.671875 12.09375,13.734375 C12.578125,13.6875 12.859375,13.875 12.953125,14.140625 Z M2.65625,14.96875 L2.375,14.8125 C3.09375,13.921875 3.890625,12.453125 3.9375,11.296875 C5.28125,10.125 6.703125,13.03125 2.65625,14.96875 Z M8.828125,7.984375 L8.46875,7.890625 C8.96875,6.578125 9.546875,4.46875 9.484375,2.953125 C10.515625,1.828125 11.71875,4.484375 8.828125,7.984375 Z M4.921875,8.09375 C4.796875,5.828125 4.390625,3.453125 3.84375,1.734375 L4.25,1.53125 C5.109375,3 5.6875,5.1875 6.03125,7.203125 C6.4375,7.21875 6.640625,7.375 6.71875,7.609375 L6.71875,-1.34375 L6.90625,-1.34375 C7.515625,-1.34375 7.984375,-0.984375 8.015625,-0.859375 L8.015625,9.671875 L11.046875,9.671875 L11.046875,0.34375 C11.046875,0.046875 10.96875,-0.078125 10.65625,-0.078125 C10.34375,-0.078125 9.03125,0.03125 9.03125,0.03125 L9.03125,-0.359375 C9.671875,-0.453125 10.03125,-0.59375 10.265625,-0.8125 C10.46875,-1.03125 10.5625,-1.4375 10.5625,-1.84375 C12.21875,-1.65625 12.40625,-0.984375 12.40625,0.171875 L12.40625,9.484375 C12.796875,9.546875 13.15625,9.75 13.296875,9.90625 L11.515625,11.203125 L10.828125,10.375 L8.109375,10.375 L8.109375,14.59375 C8.6875,14.65625 8.921875,14.875 8.953125,15.1875 L8.609375,15.234375 C8.953125,15.3125 9.21875,15.453125 9.21875,15.546875 L9.21875,17.046875 L14.609375,17.046875 L14.609375,15.21875 L14.875,15.21875 C15.078125,15.21875 15.234375,15.234375 15.40625,15.265625 C14.921875,11.96875 13.84375,8.734375 12.578125,6.578125 L12.953125,6.359375 C13.78125,7.21875 14.515625,8.28125 15.171875,9.5 C15.546875,7.4375 16.078125,5.546875 16.875,3.84375 C15.75,1.796875 14.203125,-0.03125 12.171875,-1.5625 L12.40625,-1.875 C14.546875,-0.625 16.21875,0.859375 17.5,2.609375 C18.546875,0.796875 19.9375,-0.71875 21.859375,-1.890625 C22.0625,-1.125 22.5625,-0.71875 23.25,-0.546875 L23.328125,-0.3125 C21.140625,0.640625 19.515625,2.046875 18.28125,3.765625 C19.609375,5.953125 20.421875,8.453125 20.921875,11.234375 L22.34375,11.234375 C22.6875,11.234375 22.890625,11.359375 22.96875,11.609375 C22.21875,12.3125 21,13.265625 21,13.265625 L19.921875,11.921875 L16.25,11.921875 C16.53125,12.703125 16.796875,13.515625 17.015625,14.359375 C17.546875,14.359375 17.8125,14.5625 17.875,14.859375 L15.75,15.359375 C16.015625,15.453125 16.15625,15.578125 16.15625,15.671875 L16.15625,17.046875 L22.296875,17.046875 C22.625,17.046875 22.875,17.15625 22.9375,17.421875 C22.15625,18.140625 20.90625,19.125 20.90625,19.125 L19.78125,17.734375 L16.15625,17.734375 L16.15625,19.265625 C16.75,19.34375 16.96875,19.578125 17.015625,19.921875 L14.609375,20.140625 L14.609375,17.734375 L9.21875,17.734375 L9.21875,19.265625 C9.8125,19.34375 10.03125,19.578125 10.078125,19.921875 L7.6875,20.140625 L7.6875,17.734375 L1.015625,17.734375 L1.15625,17.046875 L7.6875,17.046875 L7.6875,15.34375 L6.625,15.453125 L6.625,10.375 L4.0625,10.375 L2.40625,11.109375 L2.40625,-1.875 L2.59375,-1.875 C3.28125,-1.875 3.75,-1.515625 3.75,-1.390625 L3.75,9.671875 L6.71875,9.671875 L6.71875,7.78125 Z M15.53125,10.21875 L15.953125,11.234375 L19.203125,11.234375 C18.90625,9.03125 18.359375,6.9375 17.46875,5.046875 C16.609375,6.578125 15.984375,8.328125 15.53125,10.21875 Z" transform="translate(-0.171875, 20.140625) scale(1, -1)"/>
</svg>