<svg height="22.734375" viewBox="0 0 24 22.734375" width="24" xmlns="http://www.w3.org/2000/svg">
<path d="M4.984375,1.84375 C4.78125,0.703125 3.484375,-0.046875 2.5,-0.265625 C1.96875,-0.484375 1.609375,-0.890625 1.75,-1.390625 C1.9375,-1.9375 2.734375,-2.015625 3.40625,-1.78125 C4.4375,-1.421875 5.71875,-0.265625 5.40625,1.84375 Z M8.59375,1.828125 L8.28125,1.703125 C8.59375,0.9375 8.828125,-0.3125 8.71875,-1.265625 C9.859375,-2.5625 11.65625,-0.21875 8.59375,1.828125 Z M13.171875,1.828125 L12.890625,1.65625 C13.4375,0.890625 14.09375,-0.390625 14.203125,-1.390625 C15.53125,-2.515625 17.015625,0.1875 13.171875,1.828125 Z M17.640625,1.9375 L17.40625,1.703125 C18.703125,0.90625 20.328125,-0.578125 20.921875,-1.75 C22.6875,-2.59375 23.328125,0.90625 17.640625,1.9375 Z M1.3125,18 L1.484375,17.296875 L7.890625,17.296875 L7.890625,15.84375 L8.15625,15.84375 C8.8125,15.84375 9.4375,16.03125 9.4375,16.21875 L9.4375,17.296875 L14.40625,17.296875 L14.40625,16.03125 C11.15625,15.546875 7.171875,15.140625 3.8125,15 L3.890625,14.5 C6.234375,14.5 8.765625,14.5625 11.15625,14.71875 L11.15625,13.46875 L1.625,13.46875 L1.84375,12.75 L11.15625,12.75 L11.15625,11.5 L6.453125,11.5 L4.78125,12.21875 L4.78125,5.375 L5.015625,5.375 C5.65625,5.375 6.3125,5.734375 6.3125,5.828125 L6.3125,6.34375 L11.15625,6.34375 L11.15625,4.984375 L2.953125,4.984375 L3.171875,4.296875 L11.15625,4.296875 L11.15625,2.875 L1.0625,2.875 L1.25,2.1875 L22.203125,2.1875 C22.53125,2.1875 22.78125,2.296875 22.828125,2.546875 C22.0625,3.21875 20.875,4.0625 20.875,4.0625 L19.828125,2.875 L12.703125,2.875 L12.703125,4.296875 L20.8125,4.296875 C21.140625,4.296875 21.359375,4.421875 21.4375,4.6875 C20.6875,5.296875 19.578125,6.078125 19.578125,6.078125 L18.578125,4.984375 L12.703125,4.984375 L12.703125,6.34375 L17.59375,6.34375 L17.59375,5.609375 L17.828125,5.609375 C18.34375,5.609375 19.125,5.953125 19.15625,6.125 L19.15625,10.5625 C19.53125,10.625 19.890625,10.828125 20.015625,10.984375 L18.1875,12.359375 L17.375,11.5 L12.703125,11.5 L12.703125,12.75 L21.890625,12.75 C22.21875,12.75 22.46875,12.859375 22.53125,13.125 C21.765625,13.78125 20.59375,14.609375 20.59375,14.609375 L19.5625,13.46875 L12.703125,13.46875 L12.703125,14.8125 C14.828125,14.953125 16.828125,15.140625 18.484375,15.34375 C18.984375,15.078125 19.421875,15.046875 19.625,15.234375 L18.21875,16.703125 C17.5625,16.5625 16.796875,16.421875 15.9375,16.265625 L15.953125,17.296875 L22.03125,17.296875 C22.375,17.296875 22.609375,17.421875 22.65625,17.6875 C21.890625,18.390625 20.640625,19.375 20.640625,19.375 L19.53125,18 L15.953125,18 L15.953125,19.265625 C16.5625,19.34375 16.78125,19.578125 16.796875,19.921875 L14.40625,20.140625 L14.40625,18 L9.4375,18 L9.4375,19.265625 C10.03125,19.34375 10.265625,19.578125 10.296875,19.921875 L7.890625,20.140625 L7.890625,18 Z M11.15625,7.03125 L6.3125,7.03125 L6.3125,8.5625 L11.15625,8.5625 Z M12.703125,7.03125 L12.703125,8.5625 L17.59375,8.5625 L17.59375,7.03125 Z M11.15625,9.265625 L6.3125,9.265625 L6.3125,10.78125 L11.15625,10.78125 Z M12.703125,9.265625 L12.703125,10.78125 L17.59375,10.78125 L17.59375,9.265625 Z" transform="translate(-0.1953125, 20.140625) scale(1, -1)"/>
</svg>