<svg height="22.109375" viewBox="0 0 24 22.109375" width="24" xmlns="http://www.w3.org/2000/svg">
<path d="M8.0625,18.046875 L1.25,18.046875 L1.390625,17.328125 L8.0625,17.328125 L8.0625,15.765625 L8.28125,15.765625 C8.859375,15.765625 9.484375,15.953125 9.484375,16.15625 L9.484375,17.328125 L14.59375,17.328125 L14.59375,15.8125 L14.828125,15.8125 C15.546875,15.84375 16.0625,16.109375 16.0625,16.25 L16.0625,17.328125 L22.3125,17.328125 C22.65625,17.328125 22.890625,17.453125 22.9375,17.71875 C22.171875,18.40625 20.96875,19.390625 20.96875,19.390625 L19.84375,18.046875 L16.0625,18.046875 L16.0625,19.34375 C16.65625,19.421875 16.84375,19.65625 16.890625,19.984375 L14.59375,20.234375 L14.59375,18.046875 L9.484375,18.046875 L9.484375,19.34375 C10.078125,19.421875 10.296875,19.65625 10.34375,19.984375 L8.0625,20.234375 Z M8.28125,-1.375 L8.28125,-0.71875 L17.90625,-0.71875 L17.90625,-1.796875 L18.140625,-1.796875 C18.640625,-1.796875 19.421875,-1.4375 19.4375,-1.296875 L19.4375,3.984375 C19.84375,4.0625 20.203125,4.21875 20.359375,4.390625 L18.53125,5.8125 L17.6875,4.890625 L9.8125,4.890625 C11.328125,5.5 12.765625,6.140625 14.109375,6.8125 L22.21875,6.8125 C22.5625,6.8125 22.796875,6.9375 22.84375,7.203125 C22.078125,7.890625 20.859375,8.828125 20.859375,8.828125 L19.75,7.53125 L15.453125,7.53125 C16.78125,8.28125 17.921875,9.046875 18.890625,9.796875 C19.375,9.53125 19.609375,9.53125 19.84375,9.75 L18.3125,11.234375 C16.9375,9.984375 15.078125,8.71875 12.9375,7.53125 L10.921875,7.53125 L10.921875,9.390625 L15.390625,9.390625 C15.703125,9.390625 15.90625,9.5 15.953125,9.765625 C15.265625,10.421875 14.140625,11.234375 14.140625,11.234375 L13.171875,10.109375 L10.921875,10.109375 L10.921875,10.984375 C11.40625,11.09375 11.59375,11.28125 11.609375,11.5625 L9.390625,11.8125 L9.390625,10.109375 L3.5,10.109375 L3.703125,9.390625 L9.390625,9.390625 L9.390625,7.53125 L1.265625,7.53125 L1.484375,6.8125 L11.59375,6.8125 C10.421875,6.21875 9.1875,5.640625 7.921875,5.109375 L6.75,5.640625 L6.75,4.625 C4.921875,3.890625 3.078125,3.265625 1.265625,2.765625 L1.390625,2.359375 C3.1875,2.734375 4.984375,3.21875 6.75,3.796875 L6.75,-1.875 L6.984375,-1.875 C7.625,-1.875 8.28125,-1.53125 8.28125,-1.375 Z M17.90625,-0.03125 L8.28125,-0.03125 L8.28125,1.75 L17.90625,1.75 Z M17.90625,2.46875 L8.28125,2.46875 L8.28125,4.171875 L17.90625,4.171875 Z M5.46875,11.421875 L5.46875,11.90625 L18.53125,11.90625 L18.53125,11.375 L18.75,11.375 C19.25,11.375 19.984375,11.6875 20.015625,11.828125 L20.015625,14.515625 C20.46875,14.609375 20.828125,14.8125 20.96875,14.96875 L19.125,16.34375 L18.3125,15.453125 L5.640625,15.453125 L3.984375,16.203125 L3.984375,10.96875 L4.21875,10.96875 C4.828125,10.96875 5.46875,11.296875 5.46875,11.421875 Z M13.703125,14.765625 L13.703125,12.59375 L10.203125,12.59375 L10.203125,14.765625 Z M15.140625,14.765625 L18.53125,14.765625 L18.53125,12.59375 L15.140625,12.59375 Z M8.765625,14.765625 L8.765625,12.59375 L5.46875,12.59375 L5.46875,14.765625 Z" transform="translate(-0.09375, 20.234375) scale(1, -1)"/>
</svg>