<svg height="22.109375" viewBox="0 0 24 22.109375" width="24" xmlns="http://www.w3.org/2000/svg">
<path d="M1.265625,18.046875 L1.421875,17.328125 L8.1875,17.328125 L8.1875,15.890625 L8.421875,15.890625 C9.046875,15.890625 9.703125,16.109375 9.703125,16.25 L9.703125,17.328125 L14.1875,17.328125 L14.1875,15.9375 L14.453125,15.9375 C15.234375,15.9375 15.75,16.21875 15.75,16.34375 L15.75,17.328125 L22.125,17.328125 C22.46875,17.328125 22.703125,17.453125 22.75,17.71875 C21.984375,18.4375 20.765625,19.390625 20.765625,19.390625 L19.625,18.046875 L15.75,18.046875 L15.75,19.296875 C16.34375,19.390625 16.5625,19.609375 16.578125,19.9375 L14.1875,20.1875 L14.1875,18.046875 L9.703125,18.046875 L9.703125,19.296875 C10.3125,19.390625 10.515625,19.609375 10.5625,19.921875 L8.1875,20.1875 L8.1875,18.046875 Z M17.8125,3.90625 L17.8125,2.234375 L8.28125,2.234375 L8.28125,3.90625 Z M18.3125,11.1875 C16.921875,9.984375 15.046875,8.765625 12.859375,7.609375 L10.625,7.609375 L10.625,9.40625 L15.484375,9.40625 C15.796875,9.40625 16.0625,9.53125 16.109375,9.796875 C15.359375,10.4375 14.203125,11.28125 14.203125,11.28125 L13.171875,10.109375 L10.625,10.109375 L10.625,10.875 C11.140625,10.9375 11.296875,11.140625 11.359375,11.453125 L9.125,11.6875 L9.125,10.109375 L3.578125,10.109375 L3.765625,9.40625 L9.125,9.40625 L9.125,7.609375 L1.21875,7.609375 L1.4375,6.90625 L11.5,6.90625 C10.171875,6.265625 8.78125,5.65625 7.34375,5.09375 L6.765625,5.359375 L6.765625,4.875 C4.84375,4.125 2.90625,3.5 1.015625,3 L1.15625,2.59375 C3.03125,2.953125 4.921875,3.4375 6.765625,4.015625 L6.765625,-1.921875 L6.984375,-1.921875 C7.609375,-1.921875 8.28125,-1.578125 8.28125,-1.421875 L8.28125,-0.890625 L17.8125,-0.890625 L17.8125,-1.84375 L18.03125,-1.84375 C18.53125,-1.84375 19.3125,-1.515625 19.34375,-1.34375 L19.34375,3.671875 C19.75,3.75 20.09375,3.9375 20.234375,4.109375 L18.390625,5.515625 L17.5625,4.609375 L15.9375,4.609375 C16.828125,4.796875 16.6875,6.546875 13.25,6.453125 L14.1875,6.90625 L22.15625,6.90625 C22.484375,6.90625 22.75,7.03125 22.796875,7.265625 C22.03125,7.96875 20.8125,8.90625 20.8125,8.90625 L19.703125,7.609375 L15.546875,7.609375 C16.9375,8.359375 18.140625,9.125 19.109375,9.890625 C19.65625,9.71875 19.921875,9.75 20.109375,10.015625 Z M8.28125,1.515625 L17.8125,1.515625 L17.8125,-0.1875 L8.28125,-0.1875 Z M8.59375,4.609375 C10.109375,5.140625 11.546875,5.71875 12.890625,6.3125 L12.796875,6.140625 C13.6875,5.8125 14.875,5.109375 15.453125,4.625 L15.578125,4.609375 Z M4.015625,15.53125 L4.015625,10.875 L4.21875,10.875 C4.828125,10.875 5.515625,11.203125 5.515625,11.328125 L5.515625,11.96875 L18.5,11.96875 L18.5,11.15625 L18.75,11.15625 C19.25,11.15625 20.015625,11.515625 20.046875,11.6875 L20.046875,14.59375 C20.453125,14.6875 20.8125,14.875 20.953125,15.046875 L19.109375,16.421875 L18.28125,15.53125 L5.65625,15.53125 L4.015625,16.265625 Z M18.5,12.640625 L15.078125,12.640625 L15.078125,14.828125 L18.5,14.828125 Z M5.515625,12.640625 L5.515625,14.828125 L8.71875,14.828125 L8.71875,12.640625 Z M10.125,12.640625 L10.125,14.828125 L13.609375,14.828125 L13.609375,12.640625 Z" transform="translate(0.09375, 20.1875) scale(1, -1)"/>
</svg>