<svg height="22.734375" viewBox="0 0 24 22.734375" width="24" xmlns="http://www.w3.org/2000/svg">
<path d="M17.78125,1.96875 L17.546875,1.734375 C18.84375,0.953125 20.515625,-0.53125 21.140625,-1.75 C22.875,-2.546875 23.515625,0.9375 17.78125,1.96875 Z M13.03125,1.84375 L12.75,1.6875 C13.390625,0.90625 14.109375,-0.40625 14.25,-1.421875 C15.671875,-2.515625 17.046875,0.390625 13.03125,1.84375 Z M8.59375,1.828125 L8.28125,1.734375 C8.5625,0.953125 8.828125,-0.28125 8.6875,-1.25 C9.8125,-2.59375 11.71875,-0.21875 8.59375,1.828125 Z M5.28125,1.875 L4.875,1.890625 C4.625,0.75 3.3125,-0.03125 2.296875,-0.234375 C1.78125,-0.453125 1.421875,-0.859375 1.5625,-1.390625 C1.75,-1.9375 2.5625,-2.046875 3.234375,-1.78125 C4.296875,-1.390625 5.5625,-0.234375 5.28125,1.875 Z M7.46875,10.4375 L7.171875,10.25 C7.734375,9.703125 8.328125,8.734375 8.421875,7.9375 C9.578125,7.03125 10.78125,9.3125 7.46875,10.4375 Z M7.296875,18.03125 L1.015625,18.03125 L1.171875,17.328125 L7.296875,17.328125 L7.296875,15.90625 L7.53125,15.90625 C8.1875,15.90625 8.828125,16.109375 8.828125,16.265625 L8.828125,17.328125 L15,17.328125 L15,15.953125 L15.265625,15.953125 C16.0625,15.984375 16.53125,16.21875 16.53125,16.375 L16.53125,17.328125 L22.34375,17.328125 C22.6875,17.328125 22.890625,17.453125 22.9375,17.71875 C22.203125,18.4375 20.953125,19.375 20.953125,19.375 L19.828125,18.03125 L16.53125,18.03125 L16.53125,19.25 C17.15625,19.3125 17.359375,19.5625 17.40625,19.890625 L15,20.140625 L15,18.03125 L8.828125,18.03125 L8.828125,19.25 C9.4375,19.3125 9.625,19.5625 9.671875,19.890625 L7.296875,20.140625 Z M6.03125,6.171875 L6.03125,6.75 L11.15625,6.75 L11.15625,5.234375 L3.546875,5.234375 L3.765625,4.515625 L11.15625,4.515625 L11.15625,2.96875 L1.265625,2.96875 L1.484375,2.25 L22.203125,2.25 C22.53125,2.25 22.78125,2.375 22.84375,2.640625 C22.0625,3.34375 20.875,4.171875 20.875,4.171875 L19.828125,2.96875 L12.703125,2.96875 L12.703125,4.515625 L19.5625,4.515625 C19.875,4.515625 20.109375,4.625 20.1875,4.890625 C19.578125,5.40625 18.75,6.03125 18.484375,6.1875 C18.9375,6.28125 19.375,6.53125 19.390625,6.640625 L19.390625,10.421875 C19.796875,10.484375 20.15625,10.6875 20.296875,10.828125 L18.484375,12.21875 L17.65625,11.328125 L12.703125,11.328125 L12.703125,12.5 L21.671875,12.5 C21.984375,12.5 22.203125,12.625 22.265625,12.890625 C21.53125,13.5625 20.359375,14.40625 20.359375,14.40625 L19.34375,13.21875 L12.703125,13.21875 L12.703125,14.5 C14.8125,14.609375 16.78125,14.78125 18.40625,14.953125 C18.90625,14.6875 19.34375,14.6875 19.5625,14.859375 L18.140625,16.34375 C14.78125,15.640625 8.5625,14.96875 3.578125,14.828125 L3.640625,14.328125 C6.09375,14.28125 8.6875,14.328125 11.15625,14.421875 L11.15625,13.21875 L1.65625,13.21875 L1.875,12.5 L11.15625,12.5 L11.15625,11.328125 L6.140625,11.328125 L4.515625,12.078125 L4.515625,5.6875 L4.75,5.6875 C5.359375,5.6875 6.03125,6.03125 6.03125,6.171875 Z M17.109375,9.796875 L15.1875,10.5625 C14.875,9.625 14.328125,8.328125 13.875,7.4375 L12.703125,7.4375 L12.703125,10.625 L17.875,10.625 L17.875,7.4375 L14.5,7.4375 C15.125,8.109375 15.765625,8.859375 16.21875,9.4375 C16.6875,9.359375 17.015625,9.53125 17.109375,9.796875 Z M12.703125,5.234375 L12.703125,6.75 L17.875,6.75 L17.875,6.140625 L18.125,6.140625 L18.234375,6.140625 L17.375,5.234375 Z M11.15625,10.625 L11.15625,7.4375 L6.03125,7.4375 L6.03125,10.625 Z" transform="translate(-0.265625, 20.140625) scale(1, -1)"/>
</svg>