<svg height="22.78125" viewBox="0 0 24 22.78125" width="24" xmlns="http://www.w3.org/2000/svg">
<path d="M5.328125,5.46875 L5.515625,4.75 L18.75,4.75 C19.0625,4.75 19.296875,4.875 19.34375,5.140625 C18.59375,5.8125 17.40625,6.671875 17.40625,6.671875 L16.375,5.46875 Z M5.921875,10.484375 L5.921875,8.859375 L2.65625,8.859375 L2.859375,8.15625 L5.921875,8.15625 L5.921875,6.84375 C4.171875,6.703125 2.734375,6.578125 1.84375,6.53125 L2.5,4.875 C2.734375,4.921875 2.953125,5.0625 3.078125,5.359375 C6.71875,6 9.40625,6.546875 11.421875,6.984375 L11.40625,7.390625 L7.390625,6.984375 L7.390625,8.15625 L10.734375,8.15625 C11.0625,8.15625 11.28125,8.28125 11.359375,8.546875 C10.703125,9.09375 9.75,9.796875 9.75,9.796875 L8.90625,8.859375 L7.390625,8.859375 L7.390625,9.796875 C7.6875,9.84375 7.84375,9.953125 7.875,10.109375 C8.0625,9.984375 8.359375,9.9375 8.78125,9.9375 L9.796875,9.9375 C11.609375,9.9375 12.046875,10.125 12.046875,10.625 C12.046875,10.875 11.953125,10.984375 11.546875,11.140625 L11.46875,12.09375 L11.203125,12.09375 C11.0625,11.65625 10.890625,11.234375 10.78125,11.09375 C10.734375,11.015625 10.625,10.984375 10.515625,10.984375 C10.390625,10.984375 10.15625,10.984375 9.859375,10.984375 L9.140625,10.984375 C8.859375,10.984375 8.8125,11.015625 8.8125,11.25 L8.8125,12.171875 L11.609375,12.171875 C11.921875,12.171875 12.125,12.28125 12.1875,12.546875 C11.5625,13.15625 10.5625,13.84375 10.5625,13.84375 L9.71875,12.890625 L7.390625,12.890625 L7.390625,14.15625 L10.734375,14.15625 C11.0625,14.15625 11.28125,14.28125 11.328125,14.546875 C10.703125,15.125 9.75,15.796875 9.75,15.796875 L8.875,14.859375 L7.390625,14.859375 L7.390625,15.546875 C7.75,15.59375 7.921875,15.75 7.96875,15.9375 L8.203125,15.9375 C8.828125,15.9375 9.5,16.125 9.5,16.296875 L9.5,17.375 L14.5,17.375 L14.5,15.984375 L14.765625,15.984375 L15.09375,16.015625 L15.046875,13.984375 L12.140625,13.984375 L12.359375,13.296875 L15.03125,13.296875 C14.96875,12.625 14.875,11.953125 14.734375,11.328125 C14.140625,11.5625 13.421875,11.78125 12.578125,12 L12.390625,11.640625 C13.15625,11.234375 13.84375,10.796875 14.46875,10.34375 C13.921875,8.78125 12.890625,7.421875 10.9375,6.234375 L11.25,5.875 C13.484375,6.90625 14.765625,8.140625 15.484375,9.53125 C16.15625,8.953125 16.625,8.40625 16.890625,7.984375 C18.046875,7.34375 18.890625,9.140625 16.015625,10.75 C16.265625,11.5625 16.390625,12.40625 16.46875,13.296875 L18.40625,13.296875 C18.5,10.015625 18.9375,7.109375 20.71875,5.828125 C21.40625,5.375 22.34375,5.140625 22.6875,5.71875 C22.84375,6.046875 22.734375,6.34375 22.3125,6.796875 L22.53125,9.171875 L22.21875,9.1875 C22.03125,8.546875 21.8125,7.890625 21.625,7.421875 C21.53125,7.21875 21.453125,7.171875 21.28125,7.296875 C20.203125,8.09375 19.84375,10.875 19.890625,13.15625 C20.296875,13.203125 20.640625,13.34375 20.78125,13.484375 L19.0625,14.90625 L18.1875,13.984375 L16.515625,13.984375 L16.578125,15.3125 C17.0625,15.390625 17.25,15.625 17.296875,15.9375 L15.578125,16.109375 C15.859375,16.203125 16.03125,16.3125 16.03125,16.390625 L16.03125,17.375 L22.296875,17.375 C22.625,17.375 22.875,17.5 22.921875,17.765625 C22.15625,18.484375 20.90625,19.4375 20.90625,19.4375 L19.78125,18.09375 L16.03125,18.09375 L16.03125,19.34375 C16.65625,19.4375 16.875,19.65625 16.890625,19.984375 L14.5,20.234375 L14.5,18.09375 L9.5,18.09375 L9.5,19.34375 C10.109375,19.4375 10.296875,19.65625 10.34375,19.96875 L7.96875,20.234375 L7.96875,18.09375 L1.203125,18.09375 L1.34375,17.375 L7.96875,17.375 L7.96875,16.109375 L5.921875,16.34375 L5.921875,14.859375 L2.375,14.859375 L2.546875,14.15625 L5.921875,14.15625 L5.921875,12.890625 L1.296875,12.890625 L1.484375,12.171875 L4.4375,12.171875 C4.0625,10.890625 3.171875,10.015625 1.484375,9.390625 L1.625,8.96875 C3.765625,9.4375 5.296875,10.3125 5.953125,12.171875 L7.53125,12.171875 L7.53125,11.015625 C7.53125,10.703125 7.5625,10.46875 7.6875,10.3125 Z M14.25,2.109375 L14.109375,1.734375 C14.875,1.375 15.59375,0.984375 16.25,0.578125 L7.875,0.265625 C8.765625,0.90625 9.75,1.734375 10.578125,2.515625 L22.25,2.515625 C22.578125,2.515625 22.796875,2.609375 22.875,2.875 C22.078125,3.546875 20.859375,4.4375 20.859375,4.4375 L19.78125,3.1875 L1.3125,3.1875 L1.53125,2.515625 L8.515625,2.515625 C8.015625,1.78125 7.34375,0.90625 6.71875,0.234375 L2.828125,0.171875 L3.71875,-1.703125 C3.953125,-1.65625 4.203125,-1.484375 4.3125,-1.21875 C9.84375,-0.75 13.9375,-0.34375 17.0625,0.046875 C18.09375,-0.640625 18.90625,-1.34375 19.375,-1.84375 C21,-2.546875 21.953125,0.703125 14.25,2.109375 Z" transform="translate(-0.0625, 20.234375) scale(1, -1)"/>
</svg>