<svg height="22.078125" viewBox="0 0 24 22.078125" width="24" xmlns="http://www.w3.org/2000/svg">
<path d="M1.015625,18.09375 L1.15625,17.375 L7.578125,17.375 L7.578125,16.15625 L6.578125,16.265625 L6.578125,14.734375 L4.34375,14.734375 L2.8125,15.40625 L2.8125,12.625 L0.890625,12.625 L1.078125,11.953125 L2.8125,11.953125 L2.8125,9.1875 L3.03125,9.1875 C3.578125,9.1875 4.21875,9.53125 4.21875,9.640625 L4.21875,9.859375 L6.578125,9.859375 L6.578125,8.546875 L3.859375,8.546875 L2.328125,9.21875 L2.328125,4.9375 L2.515625,4.9375 C3.09375,4.9375 3.75,5.28125 3.75,5.40625 L3.75,5.65625 L5.765625,5.65625 C5.515625,5.25 5.203125,4.78125 4.828125,4.25 L0.90625,4.25 L1.109375,3.546875 L4.3125,3.546875 C3.640625,2.609375 2.875,1.6875 2.328125,1.078125 C2.765625,0.796875 3.34375,0.640625 3.703125,0.765625 L4.46875,1.703125 C5.453125,1.4375 6.3125,1.15625 7.078125,0.84375 C5.640625,-0.21875 3.640625,-0.9375 1.109375,-1.484375 L1.25,-1.890625 C4.125,-1.484375 6.5,-0.8125 8.234375,0.34375 C9.03125,-0.046875 9.671875,-0.453125 10.15625,-0.859375 C11.40625,-1.78125 12.953125,-0.03125 9.390625,1.25 C10.0625,1.890625 10.609375,2.65625 10.984375,3.546875 L13.703125,3.546875 C14.046875,3.546875 14.28125,3.671875 14.328125,3.9375 C13.609375,4.5625 12.5,5.375 12.5,5.375 L11.546875,4.25 L6.484375,4.25 C6.859375,4.75 7.203125,5.25 7.484375,5.65625 L10.921875,5.65625 L10.921875,5.046875 L11.109375,5.046875 C11.59375,5.046875 12.28125,5.375 12.3125,5.515625 L12.3125,7.703125 C12.671875,7.75 12.984375,7.9375 13.109375,8.09375 L11.46875,9.3125 L10.734375,8.546875 L7.96875,8.546875 L7.96875,9.859375 L10.421875,9.859375 L10.421875,9.3125 L10.609375,9.3125 C11.09375,9.3125 11.8125,9.671875 11.828125,9.8125 L11.828125,11.953125 L14.15625,11.953125 C14.46875,11.953125 14.6875,12.046875 14.765625,12.3125 C14.15625,12.890625 13.25,13.578125 13.25,13.578125 L12.453125,12.625 L11.828125,12.625 L11.828125,13.828125 C12.1875,13.890625 12.546875,14.09375 12.703125,14.25 L10.96875,15.53125 L10.203125,14.734375 L7.96875,14.734375 L7.96875,15.40625 C8.5,15.5 8.71875,15.703125 8.765625,16.03125 L8.734375,16.03125 C8.953125,16.109375 9.125,16.203125 9.125,16.296875 L9.125,17.375 L14.71875,17.375 L14.71875,15.984375 L14.96875,15.984375 C15.71875,16.015625 16.25,16.25 16.25,16.390625 L16.25,17.375 L22.296875,17.375 C22.625,17.375 22.875,17.5 22.921875,17.765625 C22.15625,18.453125 20.90625,19.4375 20.90625,19.4375 L19.796875,18.09375 L16.25,18.09375 L16.25,19.3125 C16.84375,19.390625 17.046875,19.625 17.09375,19.9375 L14.71875,20.1875 L14.71875,18.09375 L9.125,18.09375 L9.125,19.3125 C9.71875,19.390625 9.9375,19.65625 9.953125,19.9375 L7.578125,20.1875 L7.578125,18.09375 Z M6.578125,10.5625 L4.21875,10.5625 L4.21875,11.953125 L6.578125,11.953125 Z M7.96875,10.5625 L7.96875,11.953125 L10.421875,11.953125 L10.421875,10.5625 Z M6.578125,6.359375 L3.75,6.359375 L3.75,7.828125 L6.578125,7.828125 Z M7.96875,6.359375 L7.96875,7.828125 L10.921875,7.828125 L10.921875,6.359375 Z M6.578125,12.625 L4.21875,12.625 L4.21875,14.015625 L6.578125,14.015625 Z M7.96875,12.625 L7.96875,14.015625 L10.421875,14.015625 L10.421875,12.625 Z M15.984375,15.9375 C15.40625,12.4375 14.203125,9.03125 12.765625,6.796875 L13.125,6.53125 C13.921875,7.3125 14.640625,8.296875 15.265625,9.40625 C15.640625,7.34375 16.171875,5.453125 16.96875,3.765625 C15.625,1.6875 13.75,-0.078125 11.15625,-1.53125 L11.375,-1.875 C14.09375,-0.71875 16.109375,0.75 17.609375,2.546875 C18.640625,0.765625 20.046875,-0.703125 21.9375,-1.828125 C22.15625,-1.0625 22.65625,-0.640625 23.328125,-0.5 L23.40625,-0.265625 C21.265625,0.640625 19.65625,1.96875 18.4375,3.625 C19.890625,5.765625 20.765625,8.296875 21.265625,11.28125 L22.78125,11.28125 C23.09375,11.28125 23.328125,11.40625 23.40625,11.65625 C22.625,12.390625 21.390625,13.390625 21.390625,13.390625 L20.296875,12 L16.515625,12 C16.875,12.90625 17.203125,13.84375 17.46875,14.828125 C18,14.828125 18.265625,15.046875 18.34375,15.34375 Z M17.609375,4.875 C16.734375,6.40625 16.109375,8.15625 15.625,10.078125 L16.203125,11.28125 L19.515625,11.28125 C19.203125,8.90625 18.59375,6.765625 17.609375,4.875 Z M9.265625,3.546875 C8.953125,2.828125 8.546875,2.203125 8.015625,1.65625 C7.15625,1.875 6.125,2.046875 4.875,2.1875 L5.953125,3.546875 Z" transform="translate(-0.1484375, 20.1875) scale(1, -1)"/>
</svg>