<svg height="22.078125" viewBox="0 0 24 22.078125" width="24" xmlns="http://www.w3.org/2000/svg">
<path d="M18.546875,15.171875 C18.140625,13.890625 17.59375,12.59375 17.140625,11.78125 L17.515625,11.546875 C18.265625,12.125 19.125,13.0625 19.796875,13.921875 C20.28125,13.84375 20.5625,14.0625 20.65625,14.296875 Z M10.296875,15.125 L10.015625,14.953125 C10.578125,14.25 11.203125,13.0625 11.25,12.09375 C12.5,10.984375 13.921875,13.609375 10.296875,15.125 Z M8.875,0.71875 L9.984375,-0.890625 C10.203125,-0.8125 10.34375,-0.59375 10.390625,-0.3125 C12.09375,0.796875 13.421875,1.703125 14.25,2.28125 L14.140625,2.59375 C12.03125,1.796875 9.84375,1.015625 8.875,0.71875 Z M14.359375,15.265625 C14.140625,13.921875 13.828125,12.671875 13.421875,11.515625 L9.140625,11.515625 L9.34375,10.796875 L13.125,10.796875 C12.8125,9.984375 12.4375,9.21875 12,8.515625 L8.40625,8.515625 L8.59375,7.828125 L11.5625,7.828125 C10.53125,6.3125 9.28125,5.09375 7.875,4.125 L7.875,13.421875 C8.359375,13.484375 8.765625,13.703125 8.921875,13.890625 L6.984375,15.359375 L6.1875,14.421875 L4.265625,14.421875 L2.5625,15.171875 L2.5625,8.640625 C2.5625,5.109375 2.46875,1.390625 0.796875,-1.53125 L1.15625,-1.796875 C2.921875,0.125 3.59375,2.59375 3.859375,5.015625 L6.4375,5.015625 L6.4375,0.34375 C6.4375,0 6.359375,-0.125 6.03125,-0.125 C5.609375,-0.125 4.0625,0.03125 4.0625,0.03125 L4.0625,-0.390625 C4.796875,-0.453125 5.234375,-0.625 5.46875,-0.859375 C5.71875,-1.078125 5.78125,-1.46875 5.828125,-1.875 C7.625,-1.6875 7.875,-1.015625 7.875,0.171875 L7.875,3.671875 L7.890625,3.640625 C8.921875,4.125 9.890625,4.703125 10.75,5.421875 C11.25,4.796875 11.734375,3.84375 11.765625,3.03125 C12.890625,1.9375 14.359375,4.296875 11.046875,5.65625 C11.765625,6.28125 12.40625,7.015625 13.015625,7.828125 L17.5625,7.828125 C18.671875,6.21875 20.15625,4.9375 21.90625,4.03125 C22.109375,4.703125 22.53125,5.109375 23.140625,5.203125 L23.140625,5.46875 C21.59375,5.96875 20.1875,6.796875 19.015625,7.828125 L22.203125,7.828125 C22.53125,7.828125 22.78125,7.9375 22.84375,8.203125 C22.078125,8.875 20.921875,9.71875 20.921875,9.71875 L19.890625,8.515625 L18.28125,8.515625 C17.640625,9.1875 17.09375,9.953125 16.6875,10.796875 L21.53125,10.796875 C21.84375,10.796875 22.0625,10.921875 22.125,11.1875 C21.40625,11.828125 20.28125,12.640625 20.28125,12.640625 L19.296875,11.515625 L14.953125,11.515625 C15.265625,12.34375 15.546875,13.21875 15.765625,14.1875 C16.3125,14.15625 16.609375,14.40625 16.6875,14.6875 L14.734375,15.171875 C15.5,15.171875 16.0625,15.453125 16.0625,15.578125 L16.0625,17.046875 L22.296875,17.046875 C22.65625,17.046875 22.890625,17.15625 22.9375,17.421875 C22.171875,18.140625 20.90625,19.125 20.90625,19.125 L19.78125,17.734375 L16.0625,17.734375 L16.0625,19.296875 C16.65625,19.390625 16.875,19.609375 16.921875,19.9375 L14.5,20.1875 L14.5,17.734375 L9.3125,17.734375 L9.3125,19.296875 C9.90625,19.390625 10.125,19.609375 10.171875,19.9375 L7.796875,20.1875 L7.796875,17.734375 L1.015625,17.734375 L1.15625,17.046875 L7.796875,17.046875 L7.796875,15.09375 L8.046875,15.09375 C8.6875,15.09375 9.3125,15.3125 9.3125,15.484375 L9.3125,17.046875 L14.5,17.046875 L14.5,15.234375 Z M4.015625,13.703125 L6.4375,13.703125 L6.4375,10.171875 L4.015625,10.171875 Z M4.015625,9.484375 L6.4375,9.484375 L6.4375,5.6875 L3.90625,5.6875 C4.015625,6.71875 4.015625,7.703125 4.015625,8.640625 Z M14.65625,10.796875 L16.125,10.796875 C16.390625,9.984375 16.734375,9.21875 17.140625,8.515625 L13.484375,8.515625 C13.921875,9.21875 14.328125,9.984375 14.65625,10.796875 Z M18.3125,5.953125 C18.046875,5.1875 17.40625,3.71875 16.875,2.734375 L15.84375,2.953125 L15.84375,6.671875 C16.421875,6.765625 16.578125,6.9375 16.65625,7.25 L14.46875,7.484375 L14.46875,0.21875 C14.46875,-0.09375 14.375,-0.21875 14.015625,-0.21875 C13.65625,-0.21875 12.03125,-0.078125 12.03125,-0.078125 L12.03125,-0.484375 C12.796875,-0.546875 13.21875,-0.71875 13.484375,-0.90625 C13.734375,-1.125 13.796875,-1.515625 13.84375,-1.890625 C15.625,-1.703125 15.84375,-1.03125 15.84375,0.140625 L15.84375,2.515625 C17.421875,1.734375 19.390625,0.359375 20.15625,-0.8125 C21.765625,-1.46875 22.125,1.3125 17.28125,2.640625 C18.078125,3.3125 18.9375,4.125 19.421875,4.65625 C19.890625,4.53125 20.15625,4.75 20.234375,4.9375 Z" transform="translate(0.03125, 20.1875) scale(1, -1)"/>
</svg>