<svg height="21.96875" viewBox="0 0 24 21.96875" width="24" xmlns="http://www.w3.org/2000/svg">
<path d="M2.640625,9.703125 L2.828125,8.96875 L8.96875,8.96875 C9.28125,8.96875 9.5,9.09375 9.578125,9.359375 C8.921875,9.953125 7.9375,10.75 7.9375,10.75 L7.0625,9.703125 Z M2.640625,7.3125 L2.828125,6.625 L8.96875,6.625 C9.28125,6.625 9.5,6.75 9.578125,7.015625 C8.921875,7.609375 7.9375,8.40625 7.9375,8.40625 L7.0625,7.3125 Z M1.25,12.078125 L1.4375,11.375 L10.265625,11.375 C10.578125,11.375 10.828125,11.5 10.890625,11.765625 C10.171875,12.40625 9.03125,13.25 9.03125,13.25 L8.046875,12.078125 Z M20.109375,15.53125 C19.6875,14.640625 19.125,13.703125 18.5,12.765625 C17.828125,13.390625 16.921875,14.140625 16.921875,14.140625 L15.984375,12.953125 L15.265625,12.953125 L15.265625,14.640625 C15.765625,14.734375 15.953125,14.953125 16.015625,15.234375 L15.234375,15.3125 C15.703125,15.40625 15.984375,15.59375 15.984375,15.703125 L15.984375,17.046875 L22.21875,17.046875 C22.5625,17.046875 22.828125,17.15625 22.84375,17.421875 C22.109375,18.140625 20.828125,19.125 20.828125,19.125 L19.703125,17.734375 L15.984375,17.734375 L15.984375,19.21875 C16.578125,19.296875 16.796875,19.53125 16.84375,19.875 L14.453125,20.09375 L14.453125,17.734375 L9.5,17.734375 L9.5,19.21875 C10.109375,19.296875 10.3125,19.53125 10.34375,19.875 L7.96875,20.09375 L7.96875,17.734375 L1.203125,17.734375 L1.34375,17.046875 L7.96875,17.046875 L7.96875,15.4375 L7.890625,15.484375 L6.984375,14.359375 L2.78125,14.359375 L2.96875,13.625 L9.03125,13.625 C9.359375,13.625 9.59375,13.75 9.671875,14.015625 C9.234375,14.421875 8.640625,14.90625 8.25,15.1875 C8.875,15.21875 9.5,15.4375 9.5,15.59375 L9.5,17.046875 L14.453125,17.046875 L14.453125,15.40625 L13.75,15.484375 L13.75,12.953125 L10.578125,12.953125 L10.78125,12.265625 L13.75,12.265625 L13.75,9.796875 L9.671875,9.796875 L9.859375,9.09375 L15.625,9.09375 C15,8.421875 14.359375,7.75 13.6875,7.109375 L12.578125,7.609375 L12.578125,6.125 C11.515625,5.1875 10.390625,4.34375 9.234375,3.625 L9.5,3.3125 C10.578125,3.859375 11.59375,4.484375 12.578125,5.15625 L12.578125,-1.875 L12.8125,-1.875 C13.46875,-1.875 14.0625,-1.515625 14.0625,-1.390625 L14.0625,-0.28125 L19.0625,-0.28125 L19.0625,-1.6875 L19.296875,-1.6875 C19.828125,-1.6875 20.5625,-1.296875 20.59375,-1.15625 L20.59375,5.953125 C21,6.03125 21.359375,6.21875 21.5,6.390625 L19.6875,7.78125 L18.84375,6.890625 L14.859375,6.890625 C15.703125,7.609375 16.484375,8.328125 17.234375,9.09375 L22.484375,9.09375 C22.828125,9.09375 23.046875,9.21875 23.109375,9.484375 C22.4375,10.15625 21.390625,10.96875 21.390625,10.96875 L20.421875,9.796875 L17.875,9.796875 C19.265625,11.28125 20.40625,12.8125 21.265625,14.25 C21.8125,14.109375 22.0625,14.234375 22.21875,14.5 Z M7.75,4.109375 L7.75,0.546875 L4.125,0.546875 L4.125,4.109375 Z M2.6875,4.828125 L2.6875,-1.875 L2.90625,-1.875 C3.53125,-1.875 4.125,-1.5625 4.125,-1.421875 L4.125,-0.140625 L7.75,-0.140625 L7.75,-1.375 L7.984375,-1.375 C8.46875,-1.375 9.171875,-1.015625 9.1875,-0.859375 L9.1875,3.984375 C9.578125,4.015625 9.890625,4.171875 10.015625,4.34375 L8.359375,5.640625 L7.5625,4.828125 L4.25,4.828125 L2.6875,5.515625 Z M19.0625,6.171875 L19.0625,3.71875 L14.0625,3.71875 L14.0625,6.171875 Z M14.0625,3 L19.0625,3 L19.0625,0.40625 L14.0625,0.40625 Z M15.265625,12.265625 L18.03125,12.265625 L18.171875,12.28125 C17.59375,11.453125 16.9375,10.609375 16.25,9.796875 L15.265625,9.796875 Z" transform="translate(-0.15625, 20.09375) scale(1, -1)"/>
</svg>