<svg height="22.03125" viewBox="0 0 24 22.03125" width="24" xmlns="http://www.w3.org/2000/svg">
<path d="M1.03125,17.921875 L1.203125,17.203125 L7.296875,17.203125 L7.296875,15.59375 L7.53125,15.59375 C8.203125,15.59375 8.859375,15.8125 8.859375,15.984375 L8.859375,17.203125 L15,17.203125 L15,15.671875 L15.265625,15.671875 C16.0625,15.703125 16.5625,15.9375 16.5625,16.078125 L16.5625,17.203125 L22.3125,17.203125 C22.65625,17.203125 22.890625,17.328125 22.9375,17.59375 C22.171875,18.3125 20.921875,19.265625 20.921875,19.265625 L19.796875,17.921875 L16.5625,17.921875 L16.5625,19.25 C17.140625,19.3125 17.359375,19.5625 17.40625,19.890625 L15,20.109375 L15,17.921875 L8.859375,17.921875 L8.859375,19.25 C9.4375,19.3125 9.640625,19.5625 9.703125,19.890625 L7.296875,20.109375 L7.296875,17.921875 Z M7.484375,15.1875 L7.484375,12.53125 C7.484375,11.46875 7.78125,11.1875 9.671875,11.1875 L12.4375,11.1875 C16.296875,11.1875 16.984375,11.328125 16.984375,12.03125 C16.984375,12.28125 16.828125,12.453125 16.34375,12.59375 L16.265625,14.15625 L15.984375,14.15625 C15.765625,13.46875 15.546875,12.859375 15.390625,12.59375 C15.265625,12.453125 15.171875,12.4375 14.875,12.40625 C14.59375,12.40625 13.625,12.40625 12.5,12.40625 L9.9375,12.40625 C9.046875,12.40625 8.96875,12.453125 8.96875,12.71875 L8.96875,14.421875 C9.359375,14.5 9.59375,14.6875 9.625,14.96875 Z M4.609375,9.671875 L4.609375,6.40625 C4.609375,5.5625 4.796875,5.234375 5.953125,5.234375 L7.0625,5.234375 C8.953125,5.234375 9.5,5.5 9.5,6.046875 C9.5,6.28125 9.390625,6.453125 8.96875,6.59375 L8.90625,8.140625 L8.640625,8.140625 C8.46875,7.4375 8.28125,6.8125 8.15625,6.59375 C8.09375,6.484375 8.015625,6.453125 7.875,6.453125 C7.75,6.453125 7.46875,6.453125 7.125,6.453125 L6.34375,6.453125 C6,6.453125 5.953125,6.484375 5.953125,6.71875 L5.953125,8.875 C6.28125,8.953125 6.546875,9.171875 6.578125,9.4375 Z M5.765625,15.1875 C5.59375,14.0625 4.421875,13.25 3.5,13.015625 C3,12.765625 2.65625,12.359375 2.828125,11.90625 C3.03125,11.40625 3.796875,11.359375 4.390625,11.609375 C5.359375,12 6.5,13.171875 6.1875,15.171875 Z M3.046875,9.484375 C3.046875,8.59375 2.453125,7.625 1.78125,7.296875 C1.34375,7.0625 1.0625,6.625 1.21875,6.171875 C1.46875,5.6875 2.203125,5.71875 2.65625,6.03125 C3.359375,6.484375 3.953125,7.703125 3.484375,9.484375 Z M16.6875,15.140625 L16.46875,14.90625 C17.765625,14.15625 19.3125,12.765625 19.796875,11.5625 C21.546875,10.609375 22.3125,14.234375 16.6875,15.140625 Z M10.015625,16.296875 L9.8125,16.015625 C10.9375,15.53125 12.4375,14.515625 13.078125,13.6875 C14.734375,13.125 15.09375,16.25 10.015625,16.296875 Z M5.375,11.203125 L5.15625,10.984375 C5.875,10.5625 6.765625,9.796875 7.078125,9.125 C8.546875,8.421875 9.359375,11.109375 5.375,11.203125 Z M9.53125,9.53125 L9.265625,9.390625 C9.84375,8.734375 10.421875,7.625 10.53125,6.796875 C11.765625,5.734375 13.109375,8.203125 9.53125,9.53125 Z M15.28125,9.703125 L15.28125,6.453125 C15.28125,5.5625 15.5,5.234375 16.734375,5.234375 L17.96875,5.234375 C20.046875,5.234375 20.59375,5.5 20.59375,6.046875 C20.59375,6.34375 20.5,6.453125 20.046875,6.625 L19.984375,8.140625 L19.703125,8.140625 C19.53125,7.46875 19.375,6.84375 19.21875,6.625 C19.15625,6.5 19.0625,6.484375 18.90625,6.484375 C18.796875,6.484375 18.453125,6.484375 18.046875,6.484375 L17.09375,6.484375 C16.703125,6.484375 16.65625,6.5 16.65625,6.75 L16.65625,8.90625 C16.984375,8.96875 17.234375,9.171875 17.25,9.453125 Z M13.734375,9.453125 C13.78125,8.640625 13.171875,7.75 12.546875,7.4375 C12.140625,7.21875 11.875,6.765625 12.046875,6.390625 C12.28125,5.921875 13.015625,5.96875 13.421875,6.234375 C14.09375,6.703125 14.609375,7.796875 14.15625,9.453125 Z M15.984375,11.203125 L15.765625,10.96875 C16.609375,10.515625 17.609375,9.640625 18.03125,8.921875 C19.53125,8.234375 20.25,11.046875 15.984375,11.203125 Z M20.28125,9.546875 L20.015625,9.359375 C20.71875,8.515625 21.546875,7.125 21.71875,6.03125 C23.015625,4.921875 24.390625,7.65625 20.28125,9.546875 Z M11.15625,5.8125 L11.15625,3.84375 L1.0625,3.84375 L1.265625,3.140625 L9.125,3.140625 C7.015625,1.4375 3.9375,-0.078125 0.765625,-1.0625 L0.9375,-1.484375 C4.921875,-0.59375 8.609375,0.890625 11.15625,2.953125 L11.15625,-1.921875 L11.453125,-1.921875 C12.03125,-1.921875 12.703125,-1.578125 12.703125,-1.390625 L12.703125,3.140625 L13.03125,3.140625 C15.125,1.109375 18.625,-0.5 21.859375,-1.34375 C22.03125,-0.59375 22.5625,-0.125 23.1875,-0.03125 L23.203125,0.265625 C20.1875,0.703125 16.375,1.78125 13.984375,3.140625 L22.34375,3.140625 C22.6875,3.140625 22.921875,3.265625 22.984375,3.53125 C22.203125,4.171875 20.96875,5.0625 20.96875,5.0625 L19.890625,3.84375 L12.703125,3.84375 L12.703125,5.046875 C13.15625,5.140625 13.34375,5.328125 13.390625,5.5625 Z" transform="translate(-0.578125, 20.109375) scale(1, -1)"/>
</svg>