<svg height="22.03125" viewBox="0 0 24 22.03125" width="24" xmlns="http://www.w3.org/2000/svg">
<path d="M1.015625,18.046875 L1.15625,17.328125 L7.75,17.328125 L7.75,15.890625 L8.015625,15.890625 C8.65625,15.890625 9.28125,16.078125 9.28125,16.25 L9.28125,17.328125 L14.546875,17.328125 L14.546875,15.9375 L14.8125,15.9375 C15.546875,15.9375 16.078125,16.203125 16.078125,16.34375 L16.078125,17.328125 L22.296875,17.328125 C22.625,17.328125 22.875,17.453125 22.9375,17.71875 C22.171875,18.4375 20.921875,19.390625 20.921875,19.390625 L19.796875,18.046875 L16.078125,18.046875 L16.078125,19.296875 C16.6875,19.375 16.890625,19.609375 16.9375,19.921875 L14.546875,20.15625 L14.546875,18.046875 L9.28125,18.046875 L9.28125,19.296875 C9.890625,19.375 10.109375,19.609375 10.15625,19.921875 L7.75,20.15625 L7.75,18.046875 Z M19.921875,14.546875 L19.921875,13.125 L14.71875,13.125 L14.71875,14.546875 Z M11.234375,10.203125 L11.234375,8.78125 L5.875,8.78125 L6.078125,8.0625 L11.234375,8.0625 L11.234375,7.015625 L8.640625,7.015625 L7.15625,7.6875 L7.15625,1.828125 L7.34375,1.828125 C7.890625,1.828125 8.515625,2.140625 8.515625,2.25 L8.515625,2.609375 L10.46875,2.609375 C9.140625,1.25 7.265625,0.046875 5.15625,-0.8125 L5.421875,-1.265625 C7.65625,-0.578125 9.671875,0.390625 11.234375,1.65625 L11.234375,-1.6875 L11.5,-1.6875 C12,-1.6875 12.546875,-1.34375 12.546875,-1.15625 L12.546875,1.6875 C13.96875,1.03125 15.8125,-0.078125 16.609375,-0.90625 C18.046875,-1.46875 18.265625,1.203125 12.546875,2.140625 L12.546875,2.609375 L15.34375,2.609375 L15.34375,2.015625 L15.546875,2.015625 C16.015625,2.015625 16.703125,2.328125 16.734375,2.5 L16.734375,6.21875 C17.015625,6.28125 17.296875,6.4375 17.421875,6.578125 L15.890625,7.703125 L15.171875,7.015625 L12.546875,7.015625 L12.546875,8.0625 L17.46875,8.0625 C17.8125,8.0625 18.03125,8.1875 18.09375,8.453125 C17.46875,9 16.53125,9.703125 16.53125,9.703125 L15.703125,8.78125 L12.546875,8.78125 L12.546875,9.390625 C12.890625,9.4375 13.109375,9.53125 13.203125,9.703125 L13.203125,9.59375 L13.421875,9.59375 C14.015625,9.59375 14.71875,9.9375 14.71875,10.078125 L14.71875,10.203125 L19.921875,10.203125 L19.921875,0.5 C19.921875,0.171875 19.84375,0.078125 19.53125,0.078125 C19.171875,0.078125 17.734375,0.171875 17.734375,0.171875 L17.734375,-0.21875 C18.4375,-0.3125 18.84375,-0.484375 19.078125,-0.71875 C19.296875,-0.984375 19.390625,-1.390625 19.421875,-1.84375 C21.234375,-1.6875 21.484375,-0.9375 21.484375,0.3125 L21.484375,14.25 C21.9375,14.328125 22.34375,14.546875 22.515625,14.71875 L20.515625,16.21875 L19.6875,15.234375 L14.8125,15.234375 L13.203125,15.953125 L13.203125,10.015625 Z M19.921875,12.4375 L19.921875,10.890625 L14.71875,10.890625 L14.71875,12.4375 Z M4.078125,12.4375 L9.046875,12.4375 L9.046875,10.890625 L4.078125,10.890625 Z M4.078125,13.125 L4.078125,14.546875 L9.046875,14.546875 L9.046875,13.125 Z M2.5625,15.234375 L2.5625,-1.875 L2.859375,-1.875 C3.53125,-1.875 4.078125,-1.484375 4.078125,-1.296875 L4.078125,10.203125 L9.046875,10.203125 L9.046875,9.546875 L9.28125,9.546875 C9.796875,9.546875 10.53125,9.90625 10.53125,10.078125 L10.53125,14.40625 C10.890625,14.453125 11.234375,14.609375 11.359375,14.78125 L9.640625,16.078125 L8.859375,15.234375 L4.203125,15.234375 L2.5625,16.03125 Z M15.34375,4.484375 L15.34375,3.34375 L12.546875,3.34375 L12.546875,4.484375 Z M15.34375,5.203125 L12.546875,5.203125 L12.546875,6.28125 L15.34375,6.28125 Z M8.515625,4.484375 L11.234375,4.484375 L11.234375,3.34375 L8.515625,3.34375 Z M8.515625,5.203125 L8.515625,6.28125 L11.234375,6.28125 L11.234375,5.203125 Z" transform="translate(0.0234375, 20.15625) scale(1, -1)"/>
</svg>