<svg height="21.9375" viewBox="0 0 24 21.9375" width="24" xmlns="http://www.w3.org/2000/svg">
<path d="M14.40625,6.578125 L14.40625,0.078125 C14.40625,-1.0625 14.734375,-1.421875 16.53125,-1.421875 L18.84375,-1.421875 C22.25,-1.421875 22.984375,-1.15625 22.984375,-0.4375 C22.984375,-0.140625 22.875,0.03125 22.375,0.21875 L22.296875,3.234375 L21.984375,3.234375 C21.71875,1.9375 21.453125,0.703125 21.3125,0.3125 C21.1875,0.078125 21.125,0.03125 20.859375,0 C20.59375,0 19.84375,0 18.890625,0 L16.828125,0 C16.0625,0 15.953125,0.078125 15.953125,0.40625 L15.953125,5.734375 C16.390625,5.8125 16.625,6.03125 16.65625,6.3125 Z M9.34375,6.53125 C9.40625,3.234375 8.546875,0.265625 4.0625,-1.46875 L4.21875,-1.828125 C9.5,-0.3125 10.734375,2.5 11.015625,5.609375 C11.515625,5.640625 11.8125,5.828125 11.875,6.234375 Z M3.53125,14.90625 L3.53125,9.8125 C3.53125,5.953125 3.28125,1.84375 1.03125,-1.515625 L1.375,-1.78125 C4.796875,1.515625 5.0625,6.234375 5.0625,9.84375 L5.0625,14.1875 L20.1875,14.1875 C19.921875,13.421875 19.53125,12.484375 19.21875,11.90625 L19.578125,11.734375 C20.328125,12.265625 21.40625,13.25 21.953125,13.921875 C22.4375,13.9375 22.703125,13.984375 22.875,14.15625 L21.125,15.859375 L20.15625,14.90625 L12.9375,14.90625 L12.9375,16.875 L20.5,16.875 C20.828125,16.875 21.078125,16.984375 21.125,17.25 C20.296875,18.03125 18.984375,19.0625 18.984375,19.0625 L17.8125,17.59375 L12.9375,17.59375 L12.9375,19.21875 C13.53125,19.296875 13.75,19.53125 13.796875,19.875 L11.375,20.109375 L11.375,14.90625 L5.359375,14.90625 L3.53125,15.671875 Z M5.765625,10.796875 L6,10.125 L10.578125,10.578125 L10.578125,8.953125 C10.578125,7.75 10.984375,7.4375 13.109375,7.4375 L16.296875,7.4375 C20.765625,7.4375 21.546875,7.609375 21.546875,8.375 C21.546875,8.640625 21.359375,8.8125 20.8125,8.96875 L20.734375,10.828125 L20.453125,10.828125 C20.203125,9.984375 19.96875,9.265625 19.78125,9 C19.6875,8.859375 19.53125,8.78125 19.21875,8.78125 C18.84375,8.765625 17.71875,8.734375 16.390625,8.734375 L13.296875,8.734375 C12.21875,8.734375 12.125,8.828125 12.125,9.140625 L12.125,10.734375 L18.09375,11.328125 C18.390625,11.359375 18.625,11.515625 18.640625,11.78125 C17.875,12.359375 16.578125,13.171875 16.578125,13.171875 L15.671875,11.8125 L12.125,11.453125 L12.125,12.84375 C12.546875,12.90625 12.765625,13.125 12.8125,13.421875 L10.578125,13.65625 L10.578125,11.28125 Z" transform="translate(-0.0078125, 20.109375) scale(1, -1)"/>
</svg>