<svg height="21.921875" viewBox="0 0 24 21.921875" width="24" xmlns="http://www.w3.org/2000/svg">
<path d="M13.171875,12 L10.875,12.265625 L10.875,6.90625 L5.640625,6.234375 L5.921875,5.59375 L10.875,6.234375 L10.875,0.953125 C10.875,-0.4375 11.375,-0.8125 13.484375,-0.8125 L16.515625,-0.8125 C20.828125,-0.8125 21.671875,-0.546875 21.671875,0.265625 C21.671875,0.546875 21.53125,0.75 20.953125,0.90625 L20.90625,4.171875 L20.59375,4.171875 C20.28125,2.71875 19.984375,1.421875 19.796875,1.03125 C19.6875,0.8125 19.5625,0.75 19.25,0.71875 C18.859375,0.671875 17.859375,0.640625 16.53125,0.640625 L13.6875,0.640625 C12.546875,0.640625 12.40625,0.8125 12.40625,1.3125 L12.40625,6.4375 L19.890625,7.390625 C20.203125,7.421875 20.453125,7.578125 20.46875,7.84375 C19.609375,8.453125 18.21875,9.265625 18.21875,9.265625 L17.25,7.75 L12.40625,7.125 L12.40625,11.40625 C12.90625,11.46875 13.15625,11.71875 13.171875,12 Z M13.3125,19.875 L10.875,20.140625 L10.875,13.875 L5.25,13.875 L3.40625,14.6875 L3.40625,9.125 C3.40625,5.515625 3.171875,1.625 0.984375,-1.484375 L1.3125,-1.78125 C4.703125,1.3125 4.96875,5.78125 4.96875,9.140625 L4.96875,13.15625 L20.09375,13.15625 C19.84375,12.3125 19.46875,11.25 19.203125,10.625 L19.53125,10.46875 C20.28125,11.0625 21.328125,12.171875 21.859375,12.90625 C22.34375,12.9375 22.609375,12.984375 22.796875,13.125 L21.03125,14.859375 L20.046875,13.875 L12.4375,13.875 L12.4375,16.578125 L20.40625,16.578125 C20.71875,16.578125 20.953125,16.703125 21.03125,16.96875 C20.203125,17.734375 18.84375,18.765625 18.84375,18.765625 L17.6875,17.296875 L12.4375,17.296875 L12.4375,19.25 C13.03125,19.3125 13.265625,19.53125 13.3125,19.875 Z" transform="translate(0.109375, 20.140625) scale(1, -1)"/>
</svg>