<svg height="22.125" viewBox="0 0 24 22.125" width="24" xmlns="http://www.w3.org/2000/svg">
<path d="M6.4375,9.1875 L6.4375,3.234375 L6.71875,3.234375 C7.25,3.234375 7.875,3.578125 7.875,3.75 L7.875,4.203125 L12.53125,4.203125 C12.453125,3.625 12.34375,3.078125 12.09375,2.5625 L4.65625,2.5625 L4.875,1.875 L11.6875,1.875 C10.6875,0.53125 8.546875,-0.578125 3.796875,-1.46875 L3.984375,-1.890625 C10.03125,-1.0625 12.390625,0.171875 13.390625,1.875 L13.9375,1.875 C15.53125,-0.484375 18.078125,-1.390625 22.03125,-1.921875 C22.125,-1.25 22.515625,-0.796875 23.09375,-0.640625 L23.09375,-0.390625 C19.296875,-0.234375 16.390625,0.265625 14.640625,1.875 L22.625,1.875 C22.96875,1.875 23.1875,1.984375 23.234375,2.25 C22.53125,2.921875 21.390625,3.84375 21.390625,3.84375 L20.359375,2.5625 L18.9375,2.5625 L18.9375,4.078125 C19.3125,4.125 19.625,4.296875 19.75,4.4375 L18.09375,5.71875 L17.28125,4.890625 L7.875,4.890625 L7.875,8.40625 C8.40625,8.46875 8.59375,8.6875 8.640625,8.96875 Z M14.015625,2.5625 L13.734375,2.5625 C13.921875,3.078125 14.015625,3.625 14.109375,4.203125 L17.46875,4.203125 L17.46875,2.5625 Z M9.75,9.5 L9.75,5.546875 L9.953125,5.546875 C10.53125,5.546875 11.1875,5.859375 11.1875,5.96875 L11.1875,6.4375 L17.90625,6.4375 L17.90625,5.828125 L18.140625,5.828125 C18.59375,5.828125 19.375,6.171875 19.390625,6.3125 L19.390625,8.65625 C19.75,8.734375 20.0625,8.90625 20.1875,9.046875 L18.484375,10.34375 L17.71875,9.5 L11.296875,9.5 L9.75,10.203125 Z M17.90625,7.15625 L11.1875,7.15625 L11.1875,8.828125 L17.90625,8.828125 Z M5.6875,13.34375 L5.90625,12.640625 L9.890625,12.90625 L9.890625,12.171875 C9.890625,10.984375 10.265625,10.703125 12.484375,10.703125 L15.984375,10.703125 C20.828125,10.703125 21.578125,10.890625 21.578125,11.5625 C21.578125,11.859375 21.390625,12 20.8125,12.171875 L20.734375,13.578125 L20.46875,13.578125 C20.234375,12.890625 19.984375,12.390625 19.828125,12.140625 C19.6875,12.03125 19.53125,11.96875 19.21875,11.953125 C18.75,11.921875 17.46875,11.921875 16.0625,11.921875 L12.640625,11.921875 C11.46875,11.921875 11.375,12 11.375,12.28125 L11.375,13.03125 L17.375,13.4375 C17.6875,13.46875 17.921875,13.609375 17.953125,13.875 C17.375,14.328125 16.53125,14.921875 16.15625,15.1875 L19.515625,15.1875 C19.15625,14.453125 18.640625,13.53125 18.28125,13.015625 L18.640625,12.796875 C19.46875,13.34375 20.640625,14.28125 21.28125,14.96875 C21.71875,15 22.015625,15.03125 22.171875,15.1875 L20.5,16.828125 L19.609375,15.890625 L12.453125,15.890625 L12.453125,17.328125 L20.234375,17.328125 C20.5625,17.328125 20.8125,17.453125 20.875,17.71875 C20.0625,18.4375 18.796875,19.421875 18.796875,19.421875 L17.6875,18.046875 L12.453125,18.046875 L12.453125,19.375 C13.015625,19.46875 13.203125,19.6875 13.25,19.96875 L10.875,20.203125 L10.875,15.890625 L4.96875,15.890625 L3.140625,16.6875 L3.140625,10.515625 C3.140625,6.53125 2.953125,2.15625 0.84375,-1.390625 L1.203125,-1.65625 C4.46875,1.828125 4.6875,6.8125 4.6875,10.53125 L4.6875,15.1875 L9.890625,15.1875 L9.890625,13.625 Z M11.375,15.1875 L15.84375,15.1875 L14.953125,13.96875 L11.375,13.734375 Z" transform="translate(-0.0390625, 20.203125) scale(1, -1)"/>
</svg>