<svg height="23.015625" viewBox="0 0 24 23.015625" width="24" xmlns="http://www.w3.org/2000/svg">
<path d="M10.609375,1.78125 C9.234375,0.703125 6.40625,-0.71875 3.9375,-1.4375 L4.0625,-1.828125 C6.765625,-1.46875 9.703125,-0.546875 11.421875,0.3125 C11.96875,0.171875 12.359375,0.1875 12.53125,0.40625 Z M14.65625,1.265625 L14.5625,0.859375 C17.15625,0.1875 19.03125,-0.703125 20.140625,-1.609375 C21.796875,-2.8125 24.328125,0.484375 14.65625,1.265625 Z M9.75,9.4375 L9.75,5.46875 L9.953125,5.46875 C10.53125,5.46875 11.1875,5.78125 11.1875,5.90625 L11.1875,6.359375 L17.90625,6.359375 L17.90625,5.765625 L18.140625,5.765625 C18.59375,5.765625 19.375,6.078125 19.390625,6.234375 L19.390625,8.59375 C19.75,8.640625 20.0625,8.828125 20.1875,8.96875 L18.484375,10.25 L17.71875,9.4375 L11.296875,9.4375 L9.75,10.125 Z M17.90625,7.078125 L11.1875,7.078125 L11.1875,8.734375 L17.90625,8.734375 Z M4.421875,2.5 L4.625,1.796875 L22.46875,1.796875 C22.796875,1.796875 23.046875,1.921875 23.09375,2.1875 C22.390625,2.875 21.21875,3.8125 21.21875,3.8125 L20.1875,2.5 L18.953125,2.5 L18.953125,4.015625 C19.34375,4.0625 19.65625,4.21875 19.78125,4.375 L18.09375,5.65625 L17.28125,4.828125 L7.875,4.828125 L7.875,8.328125 C8.40625,8.40625 8.59375,8.609375 8.640625,8.875 L6.4375,9.125 L6.4375,3.171875 L6.71875,3.171875 C7.25,3.171875 7.875,3.484375 7.875,3.671875 L7.875,4.125 L17.46875,4.125 L17.46875,2.5 Z M5.6875,13.265625 L5.90625,12.578125 L9.890625,12.84375 L9.890625,12.09375 C9.890625,10.921875 10.265625,10.625 12.484375,10.625 L15.984375,10.625 C20.828125,10.625 21.578125,10.828125 21.578125,11.5 C21.578125,11.78125 21.390625,11.921875 20.8125,12.09375 L20.734375,13.515625 L20.46875,13.515625 C20.234375,12.8125 19.984375,12.28125 19.828125,12.078125 C19.6875,11.953125 19.53125,11.90625 19.21875,11.875 C18.75,11.859375 17.46875,11.859375 16.0625,11.859375 L12.640625,11.859375 C11.46875,11.859375 11.375,11.90625 11.375,12.21875 L11.375,12.953125 L17.375,13.375 C17.6875,13.390625 17.921875,13.53125 17.953125,13.796875 C17.375,14.25 16.53125,14.859375 16.15625,15.125 L19.515625,15.125 C19.15625,14.375 18.640625,13.46875 18.28125,12.9375 L18.640625,12.71875 C19.46875,13.265625 20.640625,14.203125 21.28125,14.90625 C21.71875,14.921875 22.015625,14.953125 22.171875,15.125 L20.5,16.75 L19.609375,15.8125 L12.453125,15.8125 L12.453125,17.25 L20.234375,17.25 C20.5625,17.25 20.8125,17.375 20.875,17.640625 C20.0625,18.359375 18.796875,19.34375 18.796875,19.34375 L17.6875,17.96875 L12.453125,17.96875 L12.453125,19.375 C13.015625,19.46875 13.203125,19.6875 13.25,19.96875 L10.875,20.203125 L10.875,15.8125 L4.96875,15.8125 L3.140625,16.609375 L3.140625,10.46875 C3.140625,6.484375 2.953125,2.140625 0.84375,-1.390625 L1.203125,-1.65625 C4.46875,1.828125 4.6875,6.796875 4.6875,10.484375 L4.6875,15.125 L9.890625,15.125 L9.890625,13.5625 Z M11.375,15.125 L15.84375,15.125 L14.953125,13.890625 L11.375,13.65625 Z" transform="translate(-0.5859375, 20.203125) scale(1, -1)"/>
</svg>