<svg height="21.984375" viewBox="0 0 24 21.984375" width="24" xmlns="http://www.w3.org/2000/svg">
<path d="M3.53125,15.140625 L3.53125,9.984375 C3.53125,6.09375 3.265625,1.9375 0.90625,-1.4375 L1.25,-1.703125 C4.796875,1.578125 5.0625,6.40625 5.0625,10.015625 L5.0625,14.421875 L20.1875,14.421875 C19.890625,13.6875 19.515625,12.765625 19.21875,12.1875 L19.5625,12 C20.296875,12.546875 21.390625,13.515625 21.953125,14.1875 C22.4375,14.203125 22.703125,14.234375 22.875,14.421875 L21.125,16.125 L20.15625,15.140625 L12.453125,15.140625 L12.453125,16.921875 L20.015625,16.921875 C20.296875,16.921875 20.5625,17.046875 20.609375,17.296875 C19.828125,18.046875 18.453125,19.0625 18.453125,19.0625 L17.296875,17.59375 L12.453125,17.59375 L12.453125,19.21875 C13.0625,19.296875 13.296875,19.53125 13.34375,19.875 L10.890625,20.109375 L10.890625,15.140625 L5.359375,15.140625 L3.53125,15.9375 Z M7.203125,6.390625 L7.203125,-1.875 L7.421875,-1.875 C8.234375,-1.875 8.765625,-1.484375 8.765625,-1.375 L8.765625,-0.671875 L21.234375,-0.671875 C21.578125,-0.671875 21.796875,-0.546875 21.859375,-0.28125 C21.078125,0.4375 19.796875,1.390625 19.796875,1.390625 L18.703125,0.03125 L8.765625,0.03125 L8.765625,2.5625 L20.25,2.5625 C20.59375,2.5625 20.828125,2.6875 20.875,2.953125 C20.15625,3.625 19.03125,4.484375 19.03125,4.484375 L18.046875,3.265625 L8.765625,3.265625 L8.765625,5.6875 L20.59375,5.6875 C20.921875,5.6875 21.140625,5.8125 21.21875,6.078125 C20.453125,6.765625 19.25,7.6875 19.25,7.6875 L18.1875,6.40625 L9,6.40625 L7.203125,7.203125 Z M5.734375,11.28125 L5.96875,10.578125 L10.0625,11.015625 L10.0625,9.59375 C10.0625,8.421875 10.421875,8.109375 12.5,8.109375 L15.640625,8.109375 C20.015625,8.109375 20.765625,8.328125 20.765625,9.046875 C20.765625,9.34375 20.609375,9.484375 20.046875,9.640625 L19.96875,11.25 L19.703125,11.25 C19.46875,10.53125 19.21875,9.890625 19.0625,9.671875 C18.90625,9.53125 18.765625,9.484375 18.484375,9.453125 C18.125,9.4375 17.015625,9.4375 15.71875,9.4375 L12.703125,9.4375 C11.65625,9.4375 11.5625,9.5 11.5625,9.84375 L11.5625,11.1875 L18.21875,11.875 C18.53125,11.90625 18.796875,12.078125 18.8125,12.3125 C18.03125,12.90625 16.703125,13.734375 16.703125,13.734375 L15.796875,12.3125 L11.5625,11.875 L11.5625,13.4375 C12,13.484375 12.234375,13.734375 12.28125,13.96875 L10.0625,14.234375 L10.0625,11.71875 Z" transform="translate(0.109375, 20.109375) scale(1, -1)"/>
</svg>