<svg height="22.09375" viewBox="0 0 24 22.09375" width="24" xmlns="http://www.w3.org/2000/svg">
<path d="M6.984375,9.34375 L6.984375,3.390625 L7.21875,3.390625 C7.828125,3.390625 8.5,3.71875 8.5,3.859375 L8.5,4.375 L12.484375,4.375 C12.40625,3.796875 12.28125,3.234375 12.046875,2.71875 L4.984375,2.71875 L5.203125,2.015625 L11.65625,2.015625 C10.734375,0.640625 8.6875,-0.53125 4.109375,-1.484375 L4.265625,-1.890625 C10.21875,-1.015625 12.5,0.265625 13.484375,2.015625 L19.609375,2.015625 C19.4375,0.9375 19.171875,0.1875 18.890625,0 C18.703125,-0.125 18.5,-0.171875 18.09375,-0.171875 C17.609375,-0.171875 15.75,-0.03125 14.765625,0.046875 L14.765625,-0.34375 C15.640625,-0.453125 16.6875,-0.640625 16.984375,-0.859375 C17.359375,-1.109375 17.453125,-1.46875 17.453125,-1.875 C18.359375,-1.875 19.203125,-1.6875 19.703125,-1.34375 C20.46875,-0.859375 20.90625,0.265625 21.09375,1.875 C21.578125,1.921875 21.84375,2.015625 22.015625,2.1875 L20.28125,3.546875 L19.484375,2.71875 L13.796875,2.71875 C13.984375,3.21875 14.109375,3.765625 14.203125,4.375 L18.71875,4.375 L18.71875,3.53125 L18.9375,3.53125 C19.46875,3.53125 20.203125,3.890625 20.234375,4.0625 L20.234375,8.421875 C20.640625,8.515625 20.96875,8.6875 21.125,8.828125 L19.3125,10.203125 L18.5,9.34375 L8.609375,9.34375 L6.984375,10.078125 Z M12.796875,5.09375 L8.5,5.09375 L8.5,6.53125 L12.796875,6.53125 Z M14.28125,5.09375 L14.28125,6.53125 L18.71875,6.53125 L18.71875,5.09375 Z M12.796875,7.25 L8.5,7.25 L8.5,8.640625 L12.796875,8.640625 Z M14.28125,7.25 L14.28125,8.640625 L18.71875,8.640625 L18.71875,7.25 Z M5.453125,13.015625 L5.71875,12.3125 L10.3125,12.71875 L10.3125,12.09375 C10.3125,10.921875 10.6875,10.625 12.890625,10.625 L16.390625,10.625 C21.234375,10.625 21.953125,10.828125 21.953125,11.5 C21.953125,11.78125 21.796875,11.921875 21.21875,12.09375 L21.125,13.515625 L20.875,13.515625 C20.640625,12.8125 20.40625,12.28125 20.203125,12.078125 C20.09375,11.953125 19.921875,11.90625 19.625,11.875 C19.15625,11.859375 17.90625,11.859375 16.484375,11.859375 L13.0625,11.859375 C11.90625,11.859375 11.8125,11.90625 11.8125,12.21875 L11.8125,12.859375 L17.65625,13.390625 C17.96875,13.421875 18.234375,13.5625 18.234375,13.828125 C17.5625,14.359375 16.53125,15.03125 16.3125,15.171875 L19.53125,15.171875 C19.21875,14.375 18.796875,13.390625 18.453125,12.796875 L18.796875,12.59375 C19.5625,13.203125 20.609375,14.234375 21.21875,14.953125 C21.671875,14.96875 21.9375,15 22.109375,15.171875 L20.421875,16.796875 L19.53125,15.859375 L12.59375,15.859375 L12.59375,17.296875 L20.359375,17.296875 C20.6875,17.296875 20.921875,17.421875 20.96875,17.6875 C20.1875,18.40625 18.890625,19.390625 18.890625,19.390625 L17.78125,18.03125 L12.59375,18.03125 L12.59375,19.375 C13.15625,19.46875 13.375,19.6875 13.421875,19.96875 L11.046875,20.203125 L11.046875,15.859375 L4.96875,15.859375 L3.140625,16.65625 L3.140625,10.515625 C3.140625,6.546875 3,2.1875 1.03125,-1.375 L1.390625,-1.625 C4.484375,1.875 4.6875,6.859375 4.6875,10.515625 L4.6875,15.171875 L10.3125,15.171875 L10.3125,13.4375 Z M11.8125,15.171875 L16.15625,15.171875 L15.265625,13.875 L11.8125,13.5625 Z" transform="translate(0.4296875, 20.203125) scale(1, -1)"/>
</svg>