<svg height="21.671875" viewBox="0 0 24 21.671875" width="24" xmlns="http://www.w3.org/2000/svg">
<path d="M18.40625,6.9375 L18.40625,3 L15.75,3 L15.75,6.5 C16.265625,6.59375 16.484375,6.8125 16.515625,7.125 L14.25,7.34375 L14.25,-0.625 L11.6875,-0.625 L11.6875,6.5 C12.21875,6.59375 12.40625,6.8125 12.453125,7.125 L10.21875,7.34375 L10.21875,3 L7.796875,3 L7.796875,6.03125 C8.40625,6.125 8.640625,6.34375 8.71875,6.703125 L6.40625,6.9375 L6.40625,0.71875 L6.671875,0.71875 C7.203125,0.71875 7.796875,1.03125 7.796875,1.203125 L7.796875,2.296875 L10.21875,2.296875 L10.21875,-0.625 L3.703125,-0.625 L3.890625,-1.3125 L22.375,-1.3125 C22.703125,-1.3125 22.921875,-1.203125 22.984375,-0.9375 C22.171875,-0.1875 20.875,0.8125 20.875,0.8125 L19.703125,-0.625 L15.75,-0.625 L15.75,2.296875 L18.40625,2.296875 L18.40625,1.109375 L18.671875,1.109375 C19.21875,1.109375 19.84375,1.390625 19.84375,1.5625 L19.84375,6.03125 C20.421875,6.125 20.65625,6.34375 20.734375,6.703125 Z M3.359375,15.21875 L3.359375,10.109375 C3.359375,6.234375 3.140625,2.0625 0.953125,-1.296875 L1.296875,-1.5625 C4.65625,1.75 4.890625,6.53125 4.890625,10.125 L4.890625,14.5 L20.109375,14.5 C19.796875,13.734375 19.375,12.765625 19.0625,12.1875 L19.390625,12 C20.1875,12.578125 21.3125,13.5625 21.90625,14.25 C22.375,14.28125 22.65625,14.296875 22.84375,14.46875 L21.078125,16.171875 L20.109375,15.21875 L12.484375,15.21875 L12.484375,16.9375 L20.015625,16.9375 C20.296875,16.9375 20.546875,17.0625 20.59375,17.328125 C19.796875,18.078125 18.453125,19.0625 18.453125,19.0625 L17.28125,17.609375 L12.484375,17.609375 L12.484375,19.21875 C13.078125,19.296875 13.3125,19.53125 13.375,19.875 L10.921875,20.109375 L10.921875,15.21875 L5.1875,15.21875 L3.359375,16.015625 Z M5.5,11.234375 L5.765625,10.578125 L10.25,11.046875 L10.25,9.671875 C10.25,8.46875 10.609375,8.15625 12.671875,8.15625 L15.84375,8.15625 C20.1875,8.15625 20.96875,8.359375 20.96875,9.09375 C20.96875,9.390625 20.78125,9.53125 20.234375,9.71875 L20.15625,11.5 L19.890625,11.5 C19.65625,10.6875 19.421875,9.984375 19.21875,9.71875 C19.125,9.546875 18.984375,9.53125 18.671875,9.5 C18.3125,9.453125 17.1875,9.453125 15.90625,9.453125 L12.890625,9.453125 C11.859375,9.453125 11.765625,9.53125 11.765625,9.859375 L11.765625,11.1875 L18.125,11.828125 C18.40625,11.859375 18.625,12.03125 18.640625,12.265625 C17.875,12.859375 16.53125,13.6875 16.53125,13.6875 L15.59375,12.265625 L11.765625,11.875 L11.765625,13.34375 C12.1875,13.421875 12.40625,13.625 12.453125,13.890625 L10.25,14.15625 L10.25,11.71875 Z" transform="translate(0.03125, 20.109375) scale(1, -1)"/>
</svg>