<svg height="21.671875" viewBox="0 0 24 21.671875" width="24" xmlns="http://www.w3.org/2000/svg">
<path d="M6.265625,6.03125 L5.953125,5.90625 C6.671875,4.6875 7.484375,2.765625 7.5625,1.3125 C8.921875,-0.03125 10.4375,3.140625 6.265625,6.03125 Z M19.15625,6.28125 C18.34375,4.390625 17.359375,2.328125 16.578125,1.03125 L16.921875,0.796875 C18.09375,1.84375 19.390625,3.453125 20.421875,4.96875 C20.921875,4.890625 21.234375,5.09375 21.359375,5.328125 Z M3.765625,-0.625 L3.984375,-1.3125 L22.421875,-1.3125 C22.75,-1.3125 22.984375,-1.203125 23.0625,-0.9375 C22.21875,-0.1875 20.921875,0.8125 20.921875,0.8125 L19.75,-0.625 L15.84375,-0.625 L15.84375,6.28125 C16.390625,6.390625 16.578125,6.59375 16.625,6.90625 L14.359375,7.15625 L14.359375,-0.625 L11.65625,-0.625 L11.65625,6.28125 C12.1875,6.390625 12.390625,6.59375 12.4375,6.90625 L10.15625,7.15625 L10.15625,-0.625 Z M3.359375,15.171875 L3.359375,10.0625 C3.359375,6.21875 3.140625,2.0625 0.953125,-1.296875 L1.296875,-1.5625 C4.65625,1.734375 4.890625,6.53125 4.890625,10.078125 L4.890625,14.453125 L20.109375,14.453125 C19.78125,13.6875 19.3125,12.75 18.984375,12.171875 L19.3125,11.96875 C20.140625,12.546875 21.3125,13.53125 21.9375,14.203125 C22.390625,14.234375 22.6875,14.25 22.875,14.453125 L21.09375,16.15625 L20.109375,15.171875 L12.484375,15.171875 L12.484375,16.9375 L19.96875,16.9375 C20.28125,16.9375 20.515625,17.0625 20.5625,17.328125 C19.75,18.078125 18.4375,19.109375 18.4375,19.109375 L17.25,17.640625 L12.484375,17.640625 L12.484375,19.21875 C13.078125,19.296875 13.3125,19.53125 13.375,19.875 L10.921875,20.109375 L10.921875,15.171875 L5.1875,15.171875 L3.359375,15.953125 Z M5.5,11.140625 L5.765625,10.484375 L10.265625,10.9375 L10.265625,9.484375 C10.265625,8.296875 10.625,7.984375 12.75,7.984375 L15.859375,7.984375 C20.203125,7.984375 21,8.1875 21,8.90625 C21,9.1875 20.828125,9.34375 20.25,9.5 L20.1875,11.359375 L19.921875,11.359375 C19.6875,10.515625 19.4375,9.796875 19.25,9.53125 C19.15625,9.390625 19.015625,9.34375 18.703125,9.3125 C18.3125,9.28125 17.203125,9.28125 15.9375,9.28125 L12.9375,9.28125 C11.875,9.28125 11.78125,9.359375 11.78125,9.703125 L11.78125,11.09375 L18.125,11.734375 C18.40625,11.765625 18.625,11.921875 18.640625,12.171875 C17.875,12.765625 16.53125,13.578125 16.53125,13.578125 L15.59375,12.171875 L11.78125,11.78125 L11.78125,13.3125 C12.234375,13.375 12.4375,13.578125 12.484375,13.84375 L10.265625,14.109375 L10.265625,11.609375 Z" transform="translate(-0.0078125, 20.109375) scale(1, -1)"/>
</svg>