<svg height="22.515625" viewBox="0 0 24 22.515625" width="24" xmlns="http://www.w3.org/2000/svg">
<path d="M15.9375,2.96875 L15.703125,2.71875 C16.4375,2.28125 17.28125,1.6875 18.078125,1.03125 L12.703125,0.8125 L12.703125,4.15625 L17.375,4.15625 L17.375,3.234375 L17.609375,3.234375 C18.140625,3.234375 18.9375,3.59375 18.9375,3.75 L18.9375,8.1875 C19.375,8.28125 19.75,8.46875 19.890625,8.640625 L18.09375,10.015625 C19.3125,9.453125 20.640625,9.046875 22.078125,8.71875 C22.25,9.4375 22.703125,9.90625 23.296875,10.03125 L23.328125,10.3125 C19.34375,10.78125 15.578125,12.03125 13.5625,14.234375 L21.046875,14.234375 C21.390625,14.234375 21.578125,14.359375 21.640625,14.609375 C20.859375,15.34375 19.53125,16.375 19.53125,16.375 L18.390625,14.921875 L11.640625,14.921875 C12.078125,15.890625 12.28125,16.890625 12.40625,17.90625 L22.109375,17.90625 C22.4375,17.90625 22.6875,18.03125 22.734375,18.28125 C21.90625,19.015625 20.65625,19.921875 20.65625,19.921875 L19.53125,18.59375 L1.390625,18.59375 L1.609375,17.90625 L10.578125,17.90625 C10.484375,16.921875 10.3125,15.90625 9.890625,14.921875 L2.765625,14.921875 L2.953125,14.234375 L9.53125,14.234375 C8.375,12.1875 5.96875,10.203125 0.765625,8.453125 L1.015625,8.046875 C2.546875,8.453125 3.859375,8.90625 5.015625,9.390625 L5.015625,2.78125 L5.234375,2.78125 C5.875,2.78125 6.546875,3.140625 6.546875,3.28125 L6.546875,4.15625 L11.09375,4.15625 L11.09375,0.75 C7.203125,0.59375 3.984375,0.5 2.109375,0.484375 L3.234375,-1.609375 C3.484375,-1.53125 3.71875,-1.390625 3.859375,-1.078125 C10.515625,-0.453125 15.265625,0.046875 18.671875,0.5 C19.53125,-0.265625 20.28125,-1.078125 20.71875,-1.78125 C22.5625,-2.59375 23.015625,1.15625 15.9375,2.96875 Z M11.09375,11.8125 L11.09375,9.140625 L6.703125,9.140625 L5.609375,9.625 C8.71875,10.984375 10.375,12.578125 11.296875,14.234375 L12.859375,14.234375 C14.046875,12.390625 15.796875,11.046875 17.96875,10.0625 L17.140625,9.140625 L12.703125,9.140625 L12.703125,10.9375 C13.21875,11.046875 13.4375,11.25 13.484375,11.546875 Z M17.375,4.84375 L12.703125,4.84375 L12.703125,8.453125 L17.375,8.453125 Z M6.546875,4.84375 L6.546875,8.453125 L11.09375,8.453125 L11.09375,4.84375 Z" transform="translate(-0.046875, 19.921875) scale(1, -1)"/>
</svg>