<svg height="22.8125" viewBox="0 0 24 22.8125" width="24" xmlns="http://www.w3.org/2000/svg">
<path d="M4.421875,19.75 L4.15625,19.5625 C5.15625,18.59375 6.28125,16.984375 6.453125,15.671875 C8.046875,14.453125 9.359375,17.953125 4.421875,19.75 Z M9.953125,20.15625 L9.671875,20.015625 C10.4375,18.984375 11.28125,17.296875 11.296875,15.9375 C12.796875,14.5625 14.46875,17.953125 9.953125,20.15625 Z M15.75,3.578125 L15.578125,3.28125 C16.5625,2.765625 17.46875,2.015625 18.1875,1.21875 L12.765625,0.90625 L12.765625,5.28125 L17.5,5.28125 L17.5,4.25 L17.734375,4.25 C18.234375,4.25 19.03125,4.609375 19.0625,4.75 L19.0625,9.546875 C19.515625,9.640625 19.921875,9.84375 20.0625,10.03125 L18.140625,11.5 L17.25,10.53125 L12.765625,10.53125 L12.765625,12.765625 C13.296875,12.859375 13.515625,13.078125 13.5625,13.390625 L11.234375,13.609375 L11.234375,10.53125 L6.71875,10.53125 L5.09375,11.28125 L5.09375,3.84375 L5.328125,3.84375 C5.921875,3.84375 6.59375,4.15625 6.59375,4.296875 L6.59375,5.28125 L11.234375,5.28125 L11.234375,0.8125 C7.375,0.625 4.203125,0.484375 2.421875,0.453125 L3.140625,-1.625 C3.390625,-1.578125 3.640625,-1.421875 3.796875,-1.125 C10.125,-0.453125 14.90625,0.140625 18.625,0.703125 C19.171875,0.03125 19.578125,-0.640625 19.828125,-1.203125 C20.875,-2.65625 22.171875,-1.265625 21.078125,0.3125 C20.140625,1.609375 18.28125,2.78125 15.75,3.578125 Z M17.5,5.96875 L12.765625,5.96875 L12.765625,9.84375 L17.5,9.84375 Z M6.59375,5.96875 L6.59375,9.84375 L11.234375,9.84375 L11.234375,5.96875 Z M18.03125,20.015625 C17.296875,18.453125 16.109375,16.375 14.96875,14.875 L4.390625,14.875 C4.34375,15.28125 4.25,15.71875 4.125,16.171875 L3.75,16.171875 C3.765625,14.6875 2.96875,13.15625 2.203125,12.546875 C1.703125,12.234375 1.421875,11.71875 1.6875,11.1875 C1.984375,10.625 2.828125,10.75 3.359375,11.234375 C3.90625,11.71875 4.421875,12.75 4.421875,14.15625 L20.09375,14.15625 C19.75,13.296875 19.265625,12.234375 18.90625,11.59375 L19.21875,11.40625 C20.140625,12 21.390625,13.078125 22.03125,13.875 C22.515625,13.890625 22.78125,13.9375 22.96875,14.109375 L21.125,15.90625 L20.0625,14.875 L15.71875,14.875 C17.15625,16.0625 18.59375,17.515625 19.515625,18.640625 C20.015625,18.578125 20.328125,18.71875 20.46875,18.984375 Z" transform="translate(-0.1953125, 20.15625) scale(1, -1)"/>
</svg>