<svg height="21.765625" viewBox="0 0 24 21.765625" width="24" xmlns="http://www.w3.org/2000/svg">
<path d="M7.515625,5.875 L7.15625,5.78125 C7.515625,4.984375 7.875,3.953125 8.0625,2.921875 L6.3125,2.46875 L6.3125,7.125 L8.015625,7.125 L8.015625,6.234375 L8.234375,6.234375 C8.65625,6.234375 9.3125,6.546875 9.34375,6.71875 L9.34375,14.453125 C9.765625,14.515625 10.125,14.6875 10.25,14.859375 L8.59375,16.15625 L7.828125,15.34375 L6.28125,15.34375 L6.28125,19.03125 C6.890625,19.125 7.15625,19.34375 7.203125,19.6875 L4.9375,19.921875 L4.9375,15.34375 L3.265625,15.34375 L1.84375,16.015625 L1.84375,5.78125 L2.046875,5.78125 C2.609375,5.78125 3.140625,6.125 3.140625,6.265625 L3.140625,7.125 L4.921875,7.125 L4.921875,2.140625 C3.125,1.703125 1.609375,1.375 0.765625,1.203125 L1.6875,-0.703125 C1.890625,-0.640625 2.109375,-0.4375 2.203125,-0.140625 C4.6875,0.84375 6.640625,1.703125 8.140625,2.40625 C8.1875,1.984375 8.203125,1.609375 8.1875,1.25 C9.40625,-0.046875 10.9375,2.875 7.515625,5.875 Z M5.015625,14.609375 L5.015625,7.84375 L3.140625,7.84375 L3.140625,14.609375 Z M6.21875,14.609375 L8.015625,14.609375 L8.015625,7.84375 L6.21875,7.84375 Z M11.328125,18.59375 L11.328125,10.734375 C11.328125,6.1875 10.9375,1.796875 8.09375,-1.578125 L8.453125,-1.84375 C12.40625,1.515625 12.796875,6.4375 12.796875,10.75 L12.796875,13.171875 L15.34375,13.171875 C15.28125,7.375 15.234375,2.328125 11.40625,-1.4375 L11.78125,-1.84375 C15.34375,0.859375 16.375,4.421875 16.703125,8.65625 L20.09375,8.65625 C19.9375,3.53125 19.65625,0.859375 19.125,0.34375 C18.9375,0.140625 18.75,0.09375 18.359375,0.09375 C17.921875,0.09375 16.734375,0.21875 16.015625,0.265625 L16.015625,-0.140625 C16.65625,-0.265625 17.359375,-0.453125 17.640625,-0.703125 C17.875,-0.890625 17.953125,-1.3125 17.953125,-1.75 C18.796875,-1.75 19.578125,-1.515625 20.140625,-0.953125 C21.03125,-0.078125 21.40625,2.640625 21.546875,8.5 C22.03125,8.546875 22.3125,8.65625 22.515625,8.859375 L20.734375,10.3125 L19.875,9.359375 L16.75,9.359375 C16.828125,10.578125 16.84375,11.859375 16.875,13.171875 L22.515625,13.171875 C22.84375,13.171875 23.09375,13.296875 23.15625,13.5625 C22.390625,14.296875 21.140625,15.265625 21.140625,15.265625 L20.0625,13.890625 L12.796875,13.890625 L12.796875,17.640625 L22.625,17.640625 C22.96875,17.640625 23.203125,17.765625 23.28125,18.03125 C22.484375,18.765625 21.1875,19.75 21.1875,19.75 L20.09375,18.359375 L13.078125,18.359375 L11.328125,19.125 Z" transform="translate(-0.0234375, 19.921875) scale(1, -1)"/>
</svg>