<svg height="21.984375" viewBox="0 0 24 21.984375" width="24" xmlns="http://www.w3.org/2000/svg">
<path d="M10.875,19.109375 L10.578125,18.9375 C11.453125,17.875 12.453125,16.109375 12.625,14.765625 C14.09375,13.484375 15.484375,16.75 10.875,19.109375 Z M20.609375,19.171875 C20.234375,18.03125 19.34375,15.765625 18.578125,14.328125 L18.84375,14.15625 C20.046875,15.3125 21.359375,16.84375 22.015625,17.765625 C22.515625,17.65625 22.828125,17.90625 22.875,18.125 Z M11.546875,13.3125 L11.546875,-1.875 L11.8125,-1.875 C12.484375,-1.875 13.0625,-1.484375 13.0625,-1.296875 L13.0625,4.484375 L19.921875,4.484375 L19.921875,0.578125 C19.921875,0.234375 19.796875,0.09375 19.4375,0.09375 C18.953125,0.09375 16.796875,0.265625 16.796875,0.265625 L16.796875,-0.125 C17.765625,-0.234375 18.3125,-0.4375 18.625,-0.703125 C18.9375,-0.9375 19.03125,-1.375 19.109375,-1.828125 C21.21875,-1.609375 21.453125,-0.84375 21.453125,0.390625 L21.453125,12.3125 C21.9375,12.390625 22.34375,12.59375 22.484375,12.796875 L20.46875,14.296875 L19.6875,13.3125 L17.234375,13.3125 L17.234375,19.21875 C17.8125,19.296875 18.046875,19.53125 18.09375,19.875 L15.71875,20.109375 L15.71875,13.3125 L13.171875,13.3125 L11.546875,14.09375 Z M19.921875,8.609375 L19.921875,5.203125 L13.0625,5.203125 L13.0625,8.609375 Z M19.921875,9.3125 L13.0625,9.3125 L13.0625,12.59375 L19.921875,12.59375 Z M2.09375,15.359375 L2.09375,5.921875 L2.328125,5.921875 C2.90625,5.921875 3.453125,6.265625 3.453125,6.40625 L3.453125,7.3125 L5.09375,7.3125 L5.09375,2.296875 C3.234375,1.890625 1.6875,1.5625 0.8125,1.4375 L1.734375,-0.4375 C1.96875,-0.359375 2.15625,-0.171875 2.25,0.140625 C5.09375,1.171875 7.203125,2.046875 8.765625,2.6875 C9,1.890625 9.171875,1.109375 9.171875,0.40625 C10.625,-1.0625 12.21875,2.40625 7.921875,5.65625 L7.609375,5.546875 C7.96875,4.875 8.328125,4.015625 8.640625,3.125 L6.53125,2.640625 L6.53125,7.3125 L8.203125,7.3125 L8.203125,6.4375 L8.421875,6.4375 C8.859375,6.4375 9.578125,6.796875 9.59375,6.9375 L9.59375,14.40625 C10.0625,14.5 10.4375,14.6875 10.578125,14.859375 L8.765625,16.25 L7.96875,15.359375 L6.546875,15.359375 L6.546875,19.078125 C7.15625,19.171875 7.390625,19.421875 7.4375,19.75 L5.109375,19.96875 L5.109375,15.359375 L3.578125,15.359375 L2.09375,16.0625 Z M8.203125,8.046875 L6.453125,8.046875 L6.453125,14.65625 L8.203125,14.65625 Z M5.15625,8.046875 L3.453125,8.046875 L3.453125,14.65625 L5.15625,14.65625 Z" transform="translate(0.15625, 20.109375) scale(1, -1)"/>
</svg>