<svg height="23.203125" viewBox="0 0 24 23.203125" width="24" xmlns="http://www.w3.org/2000/svg">
<path d="M13.75,13.984375 L16.4375,13.984375 L16.4375,7.65625 L13.75,7.65625 Z M11.140625,0.453125 L12.09375,-1.6875 C12.359375,-1.609375 12.578125,-1.4375 12.671875,-1.125 C16.296875,-0.171875 18.984375,0.625 20.953125,1.21875 C21.3125,0.3125 21.578125,-0.59375 21.640625,-1.421875 C23.25,-2.921875 24.703125,1.0625 19.390625,4.9375 L19.0625,4.78125 C19.625,3.90625 20.25,2.828125 20.734375,1.703125 L17.90625,1.296875 L17.90625,6.953125 L20.546875,6.953125 L20.546875,5.6875 L20.765625,5.6875 C21.234375,5.6875 21.953125,6.03125 21.984375,6.1875 L21.984375,13.734375 C22.46875,13.828125 22.84375,14.015625 23.015625,14.203125 L21.140625,15.59375 L20.296875,14.71875 L17.90625,14.71875 L17.90625,19.03125 C18.484375,19.109375 18.671875,19.375 18.75,19.703125 L16.4375,19.9375 L16.4375,14.71875 L14.046875,14.71875 L12.34375,15.453125 L12.34375,5.109375 L12.546875,5.109375 C13.296875,5.109375 13.75,5.5 13.75,5.609375 L13.75,6.953125 L16.4375,6.953125 L16.4375,1.109375 C14.140625,0.796875 12.21875,0.546875 11.140625,0.453125 Z M20.546875,13.984375 L20.546875,7.65625 L17.90625,7.65625 L17.90625,13.984375 Z M9.265625,9.71875 L9.265625,7.375 L4.625,7.375 L4.625,9.71875 Z M9.265625,10.421875 L4.625,10.421875 L4.625,12.703125 L9.265625,12.703125 Z M3.171875,13.390625 L3.171875,0.765625 L1.0625,0.265625 L2.15625,-1.75 C2.40625,-1.6875 2.59375,-1.46875 2.65625,-1.15625 C5.453125,0.09375 7.515625,1.125 9.046875,1.890625 C9.40625,1.203125 9.671875,0.5 9.765625,-0.125 C11.375,-1.421875 12.640625,2.359375 7.03125,5.375 L6.75,5.1875 C7.4375,4.421875 8.234375,3.390625 8.828125,2.296875 L4.625,1.15625 L4.625,6.671875 L9.265625,6.671875 L9.265625,5.828125 L9.53125,5.828125 C10.125,5.828125 10.65625,6.21875 10.703125,6.34375 L10.703125,12.4375 C11.09375,12.5 11.421875,12.703125 11.59375,12.859375 L10.109375,14.234375 L9.359375,13.390625 L7.609375,13.390625 L7.609375,15.359375 C8.0625,15.453125 8.25,15.640625 8.296875,15.90625 L6.171875,16.15625 L6.171875,13.390625 L4.75,13.390625 L3.53125,13.96875 C4.9375,15.546875 6.140625,17.375 6.9375,18.953125 C8.734375,17.8125 10.015625,16.25 10.4375,15.03125 C11.78125,14.015625 13.421875,17.375 7.078125,19.21875 C7.6875,19.25 7.9375,19.421875 7.984375,19.6875 L5.453125,20.28125 C4.703125,17.734375 2.765625,14.015625 0.703125,11.90625 L0.984375,11.640625 C1.75,12.1875 2.5,12.84375 3.171875,13.578125 Z" transform="translate(-0.703125, 20.28125) scale(1, -1)"/>
</svg>