<svg height="21.890625" viewBox="0 0 24 21.890625" width="24" xmlns="http://www.w3.org/2000/svg">
<path d="M8.59375,18.703125 L8.78125,18 L15.859375,18 C16.203125,18 16.421875,18.125 16.484375,18.359375 C15.765625,19.015625 14.71875,19.875 14.71875,19.875 L13.734375,18.703125 Z M14.015625,14.828125 L14.015625,12.3125 L10.875,12.3125 L10.875,14.828125 Z M15.03125,6.9375 C14.8125,6.34375 14.296875,5.328125 13.875,4.515625 C13.390625,5.046875 12.796875,5.5625 12.078125,6.125 L11.734375,5.953125 C12.453125,5.015625 13.203125,3.71875 13.734375,2.421875 L10.875,1.390625 L10.875,8.28125 L14.015625,8.28125 L14.015625,7.53125 L14.234375,7.53125 C14.65625,7.53125 15.34375,7.875 15.359375,8.015625 L15.359375,14.640625 C15.75,14.71875 16.109375,14.90625 16.25,15.078125 L14.5625,16.34375 L13.828125,15.53125 L11.109375,15.53125 L9.53125,16.21875 L9.53125,0.9375 L8.296875,0.53125 L9.484375,-1.296875 C9.671875,-1.171875 9.84375,-0.953125 9.90625,-0.671875 C11.5625,0.359375 12.90625,1.25 13.921875,1.9375 C14.1875,1.203125 14.375,0.484375 14.40625,-0.171875 C15.59375,-1.296875 16.6875,1.078125 14.25,4.078125 C14.875,4.609375 15.53125,5.1875 15.90625,5.609375 C16.375,5.5 16.65625,5.65625 16.734375,5.828125 Z M14.015625,11.609375 L14.015625,8.96875 L10.875,8.96875 L10.875,11.609375 Z M16.78125,18.4375 L16.78125,-1.828125 L16.984375,-1.828125 C17.65625,-1.828125 18.140625,-1.46875 18.140625,-1.3125 L18.140625,17.734375 L20.734375,17.734375 C20.296875,15.765625 19.625,12.796875 19.171875,11.25 C20.828125,9.390625 21.546875,7.53125 21.546875,5.59375 C21.546875,4.515625 21.359375,4.0625 21.03125,3.796875 C20.875,3.671875 20.734375,3.640625 20.5,3.640625 C20.09375,3.640625 19.078125,3.640625 18.59375,3.640625 L18.59375,3.234375 C19.15625,3.1875 19.609375,3.078125 19.78125,2.90625 C19.96875,2.71875 20.0625,2.25 20.0625,1.828125 C22.3125,1.921875 23.0625,2.828125 23.0625,5.296875 C23.0625,7.34375 22.0625,9.34375 19.75,11.328125 C20.5625,12.890625 21.71875,15.859375 22.34375,17.40625 C22.84375,17.40625 23.140625,17.453125 23.328125,17.65625 L21.578125,19.421875 L20.609375,18.4375 L18.4375,18.4375 L16.78125,19.171875 Z M1.78125,15.59375 L1.78125,5.859375 L1.984375,5.859375 C2.546875,5.859375 3.078125,6.171875 3.078125,6.3125 L3.078125,7.3125 L4.25,7.3125 L4.25,1.9375 C2.765625,1.5625 1.515625,1.265625 0.796875,1.15625 L1.703125,-0.71875 C1.921875,-0.640625 2.109375,-0.453125 2.203125,-0.171875 L7.375,2.25 C7.4375,1.796875 7.484375,1.34375 7.484375,0.9375 C8.734375,-0.40625 10.203125,2.546875 6.71875,5.6875 L6.359375,5.5625 C6.703125,4.796875 7.0625,3.75 7.265625,2.71875 L5.640625,2.296875 L5.640625,7.3125 L6.90625,7.3125 L6.90625,6.28125 L7.109375,6.28125 C7.515625,6.28125 8.1875,6.625 8.203125,6.765625 L8.203125,14.734375 C8.609375,14.8125 8.953125,15 9.09375,15.140625 L7.421875,16.4375 L6.703125,15.59375 L5.640625,15.59375 L5.640625,19.171875 C6.1875,19.265625 6.453125,19.484375 6.5,19.828125 L4.25,20.0625 L4.25,15.59375 L3.1875,15.59375 L1.78125,16.296875 Z M6.90625,8.046875 L5.546875,8.046875 L5.546875,14.921875 L6.90625,14.921875 Z M4.34375,8.046875 L3.078125,8.046875 L3.078125,14.921875 L4.34375,14.921875 Z" transform="translate(-0.0625, 20.0625) scale(1, -1)"/>
</svg>