<svg height="21.9375" viewBox="0 0 24 21.9375" width="24" xmlns="http://www.w3.org/2000/svg">
<path d="M14.921875,7.21875 C14.6875,6.640625 14.203125,5.640625 13.75,4.796875 C13.265625,5.28125 12.703125,5.765625 12,6.265625 L11.6875,6.09375 C12.4375,5.140625 13.265625,3.8125 13.828125,2.46875 L11.046875,1.46875 L11.046875,8.40625 L14.140625,8.40625 L14.140625,7.5625 L14.40625,7.5625 C14.921875,7.5625 15.453125,7.890625 15.5,7.984375 L15.5,15.796875 C15.890625,15.859375 16.25,16.03125 16.421875,16.21875 L14.953125,17.5625 L14.234375,16.75 L13.15625,16.75 L13.15625,19.25 C13.6875,19.34375 13.84375,19.53125 13.890625,19.84375 L11.78125,20.0625 L11.78125,16.75 L11.28125,16.75 L9.671875,17.453125 L9.671875,0.984375 L8.046875,0.453125 L9.09375,-1.421875 C9.3125,-1.3125 9.484375,-1.078125 9.546875,-0.8125 C11.421875,0.34375 12.90625,1.3125 14.015625,2.0625 C14.28125,1.375 14.46875,0.671875 14.515625,0.046875 C15.75,-1.0625 16.796875,1.375 14.140625,4.375 C14.8125,4.84375 15.453125,5.359375 15.890625,5.71875 C16.3125,5.5625 16.625,5.765625 16.734375,5.90625 Z M11.046875,16.0625 L14.140625,16.0625 L14.140625,13.015625 L11.046875,13.015625 Z M11.046875,12.28125 L14.140625,12.28125 L14.140625,9.09375 L11.046875,9.09375 Z M16.890625,18.359375 L16.890625,-1.875 L17.109375,-1.875 C17.828125,-1.875 18.3125,-1.484375 18.3125,-1.34375 L18.3125,17.65625 L20.828125,17.65625 C20.421875,15.59375 19.703125,12.4375 19.25,10.78125 C20.8125,8.8125 21.40625,6.8125 21.40625,4.796875 C21.40625,3.703125 21.21875,3.140625 20.859375,2.875 C20.71875,2.78125 20.59375,2.765625 20.359375,2.765625 C19.96875,2.765625 19.078125,2.765625 18.59375,2.765625 L18.59375,2.375 C19.125,2.28125 19.5625,2.15625 19.75,1.984375 C19.921875,1.796875 19.984375,1.3125 19.984375,0.890625 C22.21875,0.953125 22.9375,1.9375 22.9375,4.515625 C22.921875,6.625 22.0625,8.765625 19.828125,10.875 C20.65625,12.5 21.859375,15.671875 22.484375,17.296875 C23.015625,17.296875 23.296875,17.359375 23.5,17.5625 L21.703125,19.3125 L20.71875,18.359375 L18.578125,18.359375 L16.890625,19.109375 Z M1.78125,15.59375 L1.78125,5.859375 L1.984375,5.859375 C2.546875,5.859375 3.078125,6.171875 3.078125,6.3125 L3.078125,7.3125 L4.25,7.3125 L4.25,1.9375 C2.765625,1.5625 1.515625,1.265625 0.796875,1.15625 L1.703125,-0.71875 C1.921875,-0.640625 2.109375,-0.453125 2.203125,-0.171875 L7.375,2.25 C7.4375,1.796875 7.484375,1.34375 7.484375,0.9375 C8.734375,-0.40625 10.203125,2.546875 6.71875,5.6875 L6.359375,5.5625 C6.703125,4.796875 7.0625,3.75 7.265625,2.71875 L5.640625,2.296875 L5.640625,7.3125 L6.90625,7.3125 L6.90625,6.28125 L7.109375,6.28125 C7.515625,6.28125 8.1875,6.625 8.203125,6.765625 L8.203125,14.734375 C8.609375,14.8125 8.953125,15 9.09375,15.140625 L7.421875,16.4375 L6.703125,15.59375 L5.640625,15.59375 L5.640625,19.171875 C6.1875,19.265625 6.453125,19.484375 6.5,19.828125 L4.25,20.0625 L4.25,15.59375 L3.1875,15.59375 L1.78125,16.296875 Z M6.90625,8.046875 L5.546875,8.046875 L5.546875,14.921875 L6.90625,14.921875 Z M4.34375,8.046875 L3.078125,8.046875 L3.078125,14.921875 L4.34375,14.921875 Z" transform="translate(-0.1484375, 20.0625) scale(1, -1)"/>
</svg>