<svg height="22.703125" viewBox="0 0 24 22.703125" width="24" xmlns="http://www.w3.org/2000/svg">
<path d="M4.21875,18.953125 C4.203125,17.78125 3.453125,16.578125 2.734375,16.125 C2.359375,15.84375 2.109375,15.4375 2.328125,15.09375 C2.5625,14.6875 3.265625,14.828125 3.703125,15.140625 C4.34375,15.703125 5.046875,17.015625 4.6875,18.9375 Z M13.625,18.984375 C13.578125,17.8125 12.796875,16.625 12.03125,16.21875 C11.609375,15.953125 11.359375,15.53125 11.546875,15.171875 C11.8125,14.734375 12.5,14.828125 12.984375,15.171875 C13.703125,15.671875 14.5,16.984375 14.0625,18.953125 Z M10.25,19.03125 C9.59375,17.96875 8.859375,16.96875 8.28125,16.375 L8.609375,16.03125 C9.34375,16.4375 10.25,17.0625 11.015625,17.734375 C11.46875,17.59375 11.828125,17.734375 11.96875,17.953125 Z M20.140625,19.078125 C19.421875,17.90625 18.5,16.75 17.859375,16.03125 L18.1875,15.71875 C19.0625,16.171875 20.109375,16.921875 21.046875,17.6875 C21.5,17.546875 21.8125,17.71875 21.953125,17.921875 Z M15.75,2.8125 L15.59375,2.515625 C16.578125,2.0625 17.46875,1.421875 18.1875,0.71875 L12.71875,0.546875 L12.71875,3.75 L17.234375,3.75 L17.234375,2.640625 L17.46875,2.640625 C17.96875,2.640625 18.75,2.96875 18.765625,3.125 L18.765625,7.15625 C19.203125,7.25 19.5625,7.4375 19.703125,7.609375 L17.828125,9 L17.015625,8.109375 L12.71875,8.109375 L12.71875,9.40625 C13.203125,9.484375 13.390625,9.671875 13.4375,9.953125 L11.1875,10.203125 L11.1875,8.109375 L6.9375,8.109375 L5.28125,8.859375 L5.28125,2.234375 L5.515625,2.234375 C6.125,2.234375 6.796875,2.59375 6.796875,2.6875 L6.796875,3.75 L11.1875,3.75 L11.1875,0.5 C7.3125,0.40625 4.109375,0.34375 2.28125,0.359375 L3.171875,-1.6875 C3.40625,-1.625 3.671875,-1.46875 3.8125,-1.203125 C10.296875,-0.671875 15.078125,-0.265625 18.71875,0.171875 C19.203125,-0.390625 19.53125,-0.90625 19.75,-1.390625 C20.8125,-2.609375 21.890625,-1.265625 20.78125,0.125 C19.875,1.265625 18.125,2.25 15.75,2.8125 Z M17.234375,4.4375 L12.71875,4.4375 L12.71875,7.421875 L17.234375,7.421875 Z M6.796875,4.4375 L6.796875,7.421875 L11.1875,7.421875 L11.1875,4.4375 Z M15.953125,20.09375 C15.90625,16.734375 15.859375,14.15625 10.46875,12.3125 L10.703125,11.921875 C13.890625,12.765625 15.53125,13.875 16.390625,15.125 C17.828125,14.328125 19.484375,13.109375 20.234375,12.125 L19.578125,11.46875 L4.828125,11.46875 C4.828125,11.8125 4.78125,12.140625 4.6875,12.53125 L4.265625,12.53125 C4.21875,11.015625 3.140625,9.703125 2.15625,9.1875 C1.6875,8.921875 1.3125,8.453125 1.53125,7.9375 C1.796875,7.390625 2.609375,7.421875 3.234375,7.796875 C3.984375,8.25 4.734375,9.234375 4.828125,10.78125 L19.625,10.78125 C19.34375,10.015625 18.953125,9.09375 18.640625,8.5 L18.953125,8.328125 C19.796875,8.859375 20.953125,9.8125 21.546875,10.484375 C22.03125,10.515625 22.296875,10.53125 22.484375,10.734375 L21.046875,12.125 C21.859375,12.59375 21.1875,14.734375 16.703125,15.625 C17.25,16.75 17.359375,18 17.421875,19.3125 C17.90625,19.390625 18.125,19.625 18.140625,19.890625 Z M6.625,20.09375 C6.578125,16.625 6.578125,14.015625 1.65625,12.171875 L1.9375,11.8125 C5.09375,12.71875 6.546875,13.9375 7.265625,15.34375 C8.234375,14.734375 9.28125,13.78125 9.71875,12.9375 C11.203125,12.171875 11.90625,15.03125 7.484375,15.796875 C7.921875,16.875 7.96875,18.046875 8.046875,19.3125 C8.515625,19.390625 8.71875,19.625 8.765625,19.890625 Z" transform="translate(0.1015625, 20.09375) scale(1, -1)"/>
</svg>