<svg height="21.8125" viewBox="0 0 24 21.8125" width="24" xmlns="http://www.w3.org/2000/svg">
<path d="M12.265625,8.5625 L15.484375,8.5625 L15.484375,6.34375 L12.265625,6.34375 Z M20.234375,8.5625 L20.234375,6.34375 L16.984375,6.34375 L16.984375,8.5625 Z M12.265625,9.265625 L12.265625,11.46875 L15.484375,11.46875 L15.484375,9.265625 Z M20.234375,9.265625 L16.984375,9.265625 L16.984375,11.46875 L20.234375,11.46875 Z M9.59375,3.1875 L9.796875,2.5 L15.484375,2.5 L15.484375,-1.875 L15.71875,-1.875 C16.484375,-1.875 16.984375,-1.515625 16.984375,-1.421875 L16.984375,2.5 L22.65625,2.5 C22.984375,2.5 23.203125,2.609375 23.28125,2.875 C22.515625,3.59375 21.265625,4.578125 21.265625,4.578125 L20.1875,3.1875 L16.984375,3.1875 L16.984375,5.609375 L20.234375,5.609375 L20.234375,4.53125 L20.453125,4.53125 C21.171875,4.53125 21.71875,4.890625 21.71875,4.984375 L21.71875,11.359375 C22.203125,11.421875 22.4375,11.59375 22.609375,11.765625 L20.90625,13.0625 L20.140625,12.140625 L12.5,12.140625 L10.78125,12.90625 L10.78125,4.3125 L11.015625,4.3125 C11.78125,4.3125 12.265625,4.65625 12.265625,4.78125 L12.265625,5.609375 L15.484375,5.609375 L15.484375,3.1875 Z M10.25,19.078125 L10.25,13.21875 L10.46875,13.21875 C10.984375,13.21875 11.5625,13.53125 11.5625,13.625 L11.5625,14.59375 L14.25,14.59375 L14.25,13.515625 L14.453125,13.515625 C14.90625,13.515625 15.546875,13.875 15.578125,14.0625 L15.578125,18.265625 C15.90625,18.3125 16.21875,18.484375 16.34375,18.640625 L14.78125,19.84375 L14.0625,19.078125 L11.6875,19.078125 L10.25,19.75 Z M14.25,15.265625 L11.5625,15.265625 L11.5625,18.390625 L14.25,18.390625 Z M16.84375,19.078125 L16.84375,13.3125 L17.046875,13.3125 C17.609375,13.3125 18.21875,13.609375 18.21875,13.734375 L18.21875,14.59375 L20.96875,14.59375 L20.96875,13.578125 L21.1875,13.578125 C21.640625,13.578125 22.3125,13.96875 22.34375,14.140625 L22.34375,18.265625 C22.6875,18.3125 22.984375,18.484375 23.109375,18.625 L21.5,19.84375 L20.78125,19.078125 L18.3125,19.078125 L16.84375,19.75 Z M20.96875,15.265625 L18.21875,15.265625 L18.21875,18.390625 L20.96875,18.390625 Z M1.84375,15.265625 L1.84375,5.734375 L2.0625,5.734375 C2.640625,5.734375 3.1875,6.078125 3.1875,6.21875 L3.1875,7.109375 L4.734375,7.109375 L4.734375,1.78125 C3.03125,1.4375 1.578125,1.15625 0.765625,1.03125 L1.78125,-0.90625 C1.984375,-0.859375 2.203125,-0.640625 2.296875,-0.359375 C4.875,0.59375 6.84375,1.390625 8.296875,2.015625 C8.453125,1.296875 8.546875,0.578125 8.515625,-0.046875 C9.859375,-1.46875 11.40625,1.875 7.5625,5.296875 L7.21875,5.203125 C7.5625,4.4375 7.921875,3.484375 8.1875,2.5 L6.171875,2.09375 L6.171875,7.109375 L7.703125,7.109375 L7.703125,6.1875 L7.921875,6.1875 C8.375,6.1875 9.046875,6.546875 9.078125,6.703125 L9.078125,14.40625 C9.484375,14.46875 9.84375,14.640625 9.984375,14.8125 L8.28125,16.109375 L7.484375,15.265625 L6.140625,15.265625 L6.140625,19.0625 C6.75,19.125 6.984375,19.375 7.03125,19.703125 L4.734375,19.9375 L4.734375,15.265625 L3.3125,15.265625 L1.84375,15.953125 Z M7.703125,7.796875 L6.078125,7.796875 L6.078125,14.59375 L7.703125,14.59375 Z M4.828125,7.796875 L3.1875,7.796875 L3.1875,14.59375 L4.828125,14.59375 Z" transform="translate(-0.0234375, 19.9375) scale(1, -1)"/>
</svg>