<svg height="23" viewBox="0 0 24 23" width="24" xmlns="http://www.w3.org/2000/svg">
<path d="M15.359375,13.421875 L15.234375,13.03125 C16.203125,12.703125 17.0625,12.3125 17.828125,11.90625 L12.765625,11.828125 L12.765625,13.984375 L18.046875,13.984375 L18.046875,13.46875 L18.28125,13.46875 C18.796875,13.46875 19.5625,13.796875 19.578125,13.9375 L19.578125,16.9375 C20.046875,17.046875 20.40625,17.234375 20.5625,17.421875 L18.640625,18.8125 L17.828125,17.921875 L12.765625,17.921875 L12.765625,19.3125 C13.34375,19.390625 13.5625,19.609375 13.609375,19.9375 L11.203125,20.1875 L11.203125,17.921875 L6.125,17.921875 L4.515625,18.640625 L4.515625,13.109375 L4.734375,13.109375 C5.328125,13.109375 6,13.421875 6,13.53125 L6,13.984375 L11.203125,13.984375 L11.203125,11.8125 C7.25,11.765625 3.953125,11.765625 2.0625,11.78125 L2.953125,9.9375 C3.1875,9.984375 3.4375,10.15625 3.578125,10.421875 C10.203125,10.75 15.09375,11.046875 18.8125,11.328125 C19.828125,10.703125 20.59375,10.03125 21.03125,9.53125 C22.703125,8.859375 23.28125,12.453125 15.359375,13.421875 Z M18.046875,14.6875 L12.765625,14.6875 L12.765625,17.203125 L18.046875,17.203125 Z M6,14.6875 L6,17.203125 L11.203125,17.203125 L11.203125,14.6875 Z M8.921875,2.09375 L8.6875,1.921875 C9.03125,1.53125 9.40625,1.03125 9.703125,0.5 L7.3125,0.34375 L7.3125,3.125 L9.578125,3.125 L9.578125,2.59375 L9.765625,2.59375 C10.21875,2.59375 10.921875,2.90625 10.9375,3.046875 L10.9375,6.8125 C11.296875,6.859375 11.609375,7.03125 11.734375,7.203125 L10.125,8.421875 L9.390625,7.65625 L7.3125,7.65625 L7.3125,9.28125 C7.78125,9.359375 7.96875,9.578125 8.015625,9.859375 L5.921875,10.078125 L5.921875,7.65625 L3.890625,7.65625 L2.40625,8.328125 L2.40625,2.0625 L2.59375,2.0625 C3.140625,2.0625 3.765625,2.375 3.765625,2.5 L3.765625,3.125 L5.921875,3.125 L5.921875,0.265625 C3.796875,0.140625 1.984375,0.078125 0.984375,0.046875 L1.796875,-1.828125 C2.046875,-1.78125 2.25,-1.625 2.40625,-1.34375 C5.6875,-0.765625 8.15625,-0.3125 9.9375,0.046875 C10.203125,-0.484375 10.390625,-1.015625 10.4375,-1.515625 C11.8125,-2.640625 13.15625,0.3125 8.921875,2.09375 Z M9.578125,3.84375 L7.3125,3.84375 L7.3125,6.953125 L9.578125,6.953125 Z M3.765625,3.84375 L3.765625,6.953125 L5.921875,6.953125 L5.921875,3.84375 Z M19.625,2.328125 L19.34375,2.140625 C19.796875,1.6875 20.296875,1.109375 20.71875,0.453125 L17.8125,0.28125 L17.8125,3.125 L20.1875,3.125 L20.1875,2.515625 L20.40625,2.515625 C20.859375,2.515625 21.578125,2.828125 21.59375,2.96875 L21.59375,6.84375 C21.953125,6.890625 22.265625,7.0625 22.390625,7.21875 L20.765625,8.46875 L19.984375,7.6875 L17.8125,7.6875 L17.8125,9.3125 C18.28125,9.390625 18.453125,9.578125 18.484375,9.859375 L16.390625,10.109375 L16.390625,7.6875 L14.203125,7.6875 L12.703125,8.359375 L12.703125,2.28125 L12.90625,2.28125 C13.46875,2.28125 14.09375,2.59375 14.09375,2.71875 L14.09375,3.125 L16.390625,3.125 L16.390625,0.21875 C14.546875,0.125 13.015625,0.078125 12.078125,0.046875 L13.015625,-1.84375 C13.25,-1.78125 13.4375,-1.65625 13.578125,-1.34375 C16.828125,-0.8125 19.25,-0.390625 21.03125,-0.03125 C21.328125,-0.578125 21.546875,-1.125 21.640625,-1.65625 C23.15625,-2.8125 24.4375,0.453125 19.625,2.328125 Z M20.1875,3.84375 L17.8125,3.84375 L17.8125,6.984375 L20.1875,6.984375 Z M14.09375,3.84375 L14.09375,6.984375 L16.390625,6.984375 L16.390625,3.84375 Z" transform="translate(-0.7109375, 20.1875) scale(1, -1)"/>
</svg>