<svg height="22.21875" viewBox="0 0 24 22.21875" width="24" xmlns="http://www.w3.org/2000/svg">
<path d="M11.40625,5.921875 L11.15625,5.71875 C11.8125,5.375 12.53125,4.78125 12.84375,4.25 C13.890625,3.71875 14.5625,5.71875 11.40625,5.921875 Z M11.296875,3.40625 L11.09375,3.171875 C11.765625,2.859375 12.5,2.234375 12.84375,1.734375 C13.921875,1.203125 14.5625,3.21875 11.296875,3.40625 Z M16.3125,5.78125 L16.109375,5.515625 C16.75,5.203125 17.546875,4.578125 17.90625,4.078125 C18.953125,3.546875 19.609375,5.5625 16.3125,5.78125 Z M16.265625,3.265625 L16.03125,3.03125 C16.734375,2.65625 17.59375,1.9375 17.953125,1.421875 C19.03125,0.890625 19.6875,2.875 16.265625,3.265625 Z M10.890625,20.109375 C10.578125,19.53125 9.5,17.96875 8.90625,17.15625 C10.109375,16.375 10.984375,15.140625 11.328125,14.328125 C12.671875,13.484375 14.203125,15.890625 9.625,17.234375 C10.4375,17.78125 11.765625,18.703125 12.28125,19.125 C12.625,19.0625 12.8125,19.171875 12.890625,19.34375 Z M15.5,20.109375 C15.171875,19.53125 13.984375,17.953125 13.375,17.15625 C14.609375,16.375 15.546875,15.125 15.90625,14.296875 C17.15625,13.53125 18.625,15.8125 14.09375,17.234375 C14.90625,17.765625 16.21875,18.71875 16.75,19.171875 C17.09375,19.078125 17.28125,19.203125 17.359375,19.375 Z M19.203125,6.984375 C19.265625,3.75 19.4375,-0.21875 21.4375,-1.5625 C22.0625,-1.9375 22.890625,-2.109375 23.1875,-1.578125 C23.328125,-1.34375 23.15625,-0.90625 22.796875,-0.5 L23.015625,1.3125 L22.75,1.421875 C22.609375,1.015625 22.375,0.359375 22.171875,0.03125 C22.078125,-0.171875 21.984375,-0.171875 21.84375,-0.046875 C20.78125,0.859375 20.65625,4.078125 20.6875,6.1875 C21.125,6.28125 21.328125,6.5 21.359375,6.796875 Z M1.625,15.171875 L1.625,6.171875 L1.84375,6.171875 C2.40625,6.171875 2.921875,6.453125 2.921875,6.59375 L2.921875,7.6875 L4.03125,7.6875 L4.03125,2.140625 C2.609375,1.828125 1.4375,1.578125 0.765625,1.484375 L1.625,-0.390625 C1.875,-0.3125 2.0625,-0.125 2.140625,0.171875 C4.21875,0.984375 5.859375,1.734375 7.078125,2.28125 C7.171875,1.78125 7.25,1.296875 7.25,0.84375 C8.546875,-0.546875 10.0625,2.453125 6.5,5.6875 L6.171875,5.5625 C6.453125,4.796875 6.796875,3.765625 7.015625,2.765625 L5.421875,2.421875 L5.421875,7.6875 L6.59375,7.6875 L6.59375,6.625 L6.796875,6.625 C7.21875,6.625 7.890625,6.984375 7.921875,7.125 L7.921875,14.234375 C8.375,14.296875 8.765625,14.5 8.921875,14.6875 L7.171875,16.03125 L6.359375,15.171875 L5.421875,15.171875 L5.421875,19.0625 C6,19.15625 6.234375,19.390625 6.28125,19.734375 L4.015625,19.96875 L4.015625,15.171875 L3.046875,15.171875 L1.625,15.84375 Z M6.59375,8.40625 L5.328125,8.40625 L5.328125,14.46875 L6.59375,14.46875 Z M4.109375,8.40625 L2.921875,8.40625 L2.921875,14.46875 L4.109375,14.46875 Z M10.734375,13.03125 L19.828125,13.03125 L19.828125,8.640625 L10.734375,8.640625 Z M20.296875,20.109375 C19.84375,19.515625 18.4375,17.953125 17.640625,17.15625 C18.90625,16.46875 19.890625,15.4375 20.453125,14.640625 L19.609375,13.734375 L10.984375,13.734375 L9.28125,14.46875 L9.28125,7.125 L9.5,7.125 C10.21875,7.125 10.734375,7.484375 10.734375,7.609375 L10.734375,7.9375 L19.828125,7.9375 L19.828125,7.3125 L20.0625,7.3125 C20.546875,7.3125 21.28125,7.6875 21.3125,7.84375 L21.3125,12.75 C21.75,12.84375 22.15625,13.03125 22.296875,13.21875 L21.078125,14.15625 C22.296875,13.984375 22.984375,16.078125 18.4375,17.234375 C19.34375,17.71875 20.953125,18.640625 21.546875,19.0625 C21.890625,18.953125 22.078125,19.078125 22.171875,19.21875 Z M7.078125,0.046875 L7.921875,-1.75 C8.140625,-1.734375 8.359375,-1.53125 8.453125,-1.25 C10.828125,-0.484375 12.625,0.1875 13.84375,0.640625 L13.796875,1.03125 L10.828125,0.546875 L10.828125,6.3125 C11.28125,6.390625 11.453125,6.578125 11.5,6.8125 L9.453125,7.0625 L9.453125,0.359375 Z M13.421875,0.078125 L14.203125,-1.734375 C14.421875,-1.6875 14.609375,-1.515625 14.734375,-1.21875 C16.828125,-0.484375 18.390625,0.140625 19.484375,0.578125 L19.421875,0.9375 L15.796875,0.390625 L15.796875,6.3125 C16.25,6.390625 16.421875,6.578125 16.46875,6.8125 L14.5,7.0625 L14.5,0.1875 Z M17.453125,13.015625 C16.9375,12.5 16.265625,12.03125 15.53125,11.5625 C14.609375,11.828125 13.46875,12.078125 12.03125,12.28125 L11.921875,11.875 C12.859375,11.640625 13.78125,11.328125 14.59375,11.015625 C13.484375,10.421875 12.265625,9.890625 11.1875,9.5 L11.421875,9.09375 C12.796875,9.4375 14.359375,9.953125 15.703125,10.578125 C16.796875,10.109375 17.6875,9.59375 18.21875,9.1875 C19.109375,8.953125 19.484375,10.0625 16.796875,11.140625 C17.296875,11.421875 17.765625,11.71875 18.125,12 C18.484375,11.859375 18.765625,11.875 18.90625,12.078125 Z" transform="translate(-0.046875, 20.109375) scale(1, -1)"/>
</svg>