<svg height="22.75" viewBox="0 0 24 22.75" width="24" xmlns="http://www.w3.org/2000/svg">
<path d="M13.078125,18.90625 L13.078125,16.21875 L11.921875,16.21875 L11.953125,16.078125 C11.359375,16.65625 10.515625,17.25 10.515625,17.25 L9.640625,16.21875 L7.875,16.21875 C8.140625,16.84375 8.359375,17.515625 8.5,18.234375 L11.40625,18.234375 C11.734375,18.234375 11.953125,18.34375 12,18.59375 C11.328125,19.25 10.25,20.015625 10.25,20.015625 L9.3125,18.90625 L5.359375,18.90625 L3.71875,19.65625 L3.71875,16.21875 L1.875,16.21875 L2.0625,15.5 L6.125,15.5 C5.203125,13.75 3.671875,12.40625 1.265625,11.328125 L1.4375,10.9375 C3.03125,11.453125 4.296875,12.09375 5.328125,12.90625 C6.234375,13.625 6.953125,14.5 7.515625,15.5 L8.046875,15.5 L8.046875,13.84375 L7.15625,13.75 L7.96875,12.234375 C8.1875,12.3125 8.359375,12.453125 8.46875,12.765625 C10.265625,13.3125 11.59375,13.78125 12.484375,14.109375 L12.40625,14.5 L9.40625,14.046875 L9.40625,15.5 L11.59375,15.5 C11.828125,15.5 11.96875,15.546875 12.046875,15.703125 L12.09375,15.53125 L15.671875,15.53125 C14.6875,14.25 13.203125,13.296875 11.015625,12.53125 L11.109375,12.171875 L6.9375,12.171875 L5.328125,12.90625 L5.328125,12.171875 L5.328125,6.5 L5.515625,6.5 C5.6875,6.5 5.859375,6.53125 6.03125,6.578125 L6.03125,5.453125 L4.078125,5.453125 L2.609375,6.09375 L2.609375,1.015625 L2.8125,1.015625 C3.359375,1.015625 3.953125,1.3125 3.953125,1.421875 L3.953125,2.015625 L6.03125,2.015625 L6.03125,0 C3.890625,-0.078125 2.0625,-0.125 1.03125,-0.125 L1.921875,-1.890625 C2.140625,-1.84375 2.359375,-1.703125 2.5,-1.421875 C5.59375,-0.984375 7.9375,-0.625 9.640625,-0.359375 C9.859375,-0.765625 10.03125,-1.171875 10.109375,-1.53125 C11.453125,-2.5625 12.671875,0.171875 8.640625,1.421875 L8.375,1.21875 C8.6875,0.9375 9.046875,0.546875 9.34375,0.125 L7.375,0.046875 L7.375,2.015625 L9.5,2.015625 L9.5,1.421875 L9.703125,1.421875 C10.15625,1.421875 10.84375,1.75 10.84375,1.890625 L10.84375,4.609375 C11.234375,4.65625 11.546875,4.84375 11.65625,4.984375 L10.0625,6.21875 L9.3125,5.453125 L7.375,5.453125 L7.375,6.140625 C7.796875,6.21875 7.96875,6.390625 8.015625,6.640625 L6.59375,6.796875 C6.75,6.859375 6.8125,6.9375 6.8125,6.984375 L6.8125,7.421875 L17.609375,7.421875 L17.609375,6.8125 L16.484375,6.9375 L16.484375,5.453125 L14.40625,5.453125 L12.9375,6.09375 L12.9375,1.078125 L13.15625,1.078125 C13.6875,1.078125 14.28125,1.390625 14.28125,1.515625 L14.28125,1.921875 L16.484375,1.921875 L16.484375,-0.046875 C14.609375,-0.09375 13.03125,-0.125 12.09375,-0.09375 L12.984375,-1.890625 C13.21875,-1.84375 13.4375,-1.734375 13.5625,-1.421875 L21,-0.390625 C21.3125,-0.84375 21.53125,-1.296875 21.625,-1.734375 C23.046875,-2.6875 24.125,0.265625 19.78125,1.390625 L19.53125,1.203125 C19.890625,0.90625 20.296875,0.5 20.640625,0.09375 L17.859375,0 L17.859375,1.921875 L20.109375,1.921875 L20.109375,1.421875 L20.328125,1.421875 C20.78125,1.421875 21.484375,1.75 21.5,1.890625 L21.5,4.609375 C21.859375,4.65625 22.171875,4.84375 22.296875,4.984375 L20.65625,6.21875 L19.921875,5.453125 L17.859375,5.453125 L17.859375,6.1875 C18.3125,6.265625 18.453125,6.453125 18.5,6.71875 L17.96875,6.765625 C18.453125,6.8125 19.125,7.109375 19.15625,7.25 L19.15625,11.296875 C19.515625,11.375 19.84375,11.546875 19.96875,11.71875 L18.484375,12.8125 L18.703125,12.8125 L19.984375,12.8125 C22.125,12.8125 22.65625,12.984375 22.65625,13.53125 C22.65625,13.78125 22.515625,13.890625 22.109375,14.0625 L22.015625,15.046875 L21.765625,15.046875 C21.578125,14.59375 21.4375,14.1875 21.3125,14.046875 C21.21875,13.9375 21.125,13.921875 21,13.921875 C20.828125,13.921875 20.46875,13.921875 20.0625,13.921875 L19.078125,13.921875 C18.703125,13.921875 18.640625,13.96875 18.640625,14.203125 L18.640625,15.53125 L22.078125,15.53125 C22.390625,15.53125 22.625,15.640625 22.703125,15.90625 C22.015625,16.53125 20.953125,17.328125 20.953125,17.328125 L19.984375,16.21875 L17.609375,16.21875 C17.953125,16.828125 18.234375,17.46875 18.4375,18.21875 L21.359375,18.21875 C21.671875,18.21875 21.890625,18.34375 21.953125,18.59375 C21.234375,19.25 20.140625,20.0625 20.140625,20.0625 L19.15625,18.90625 L14.734375,18.90625 L13.078125,19.65625 Z M9.5,2.71875 L7.375,2.71875 L7.375,4.75 L9.5,4.75 Z M3.953125,2.71875 L3.953125,4.75 L6.03125,4.75 L6.03125,2.71875 Z M17.609375,9.453125 L17.609375,8.109375 L6.8125,8.109375 L6.8125,9.453125 Z M17.609375,10.171875 L6.8125,10.171875 L6.8125,11.46875 L17.609375,11.46875 Z M20.109375,2.609375 L17.859375,2.609375 L17.859375,4.75 L20.109375,4.75 Z M14.28125,2.609375 L14.28125,4.75 L16.484375,4.75 L16.484375,2.609375 Z M17.421875,12.171875 L11.328125,12.171875 C14.015625,12.859375 15.9375,13.890625 17.15625,15.53125 L17.28125,15.53125 L17.28125,13.984375 C17.28125,13.296875 17.40625,12.953125 18.078125,12.859375 Z M5.0625,18.234375 L7.03125,18.234375 C6.90625,17.515625 6.71875,16.84375 6.453125,16.21875 L5.0625,16.21875 Z M14.453125,18.21875 L16.9375,18.21875 C16.75,17.46875 16.484375,16.828125 16.125,16.21875 L14.453125,16.21875 Z" transform="translate(-0.578125, 20.0625) scale(1, -1)"/>
</svg>