<svg height="22.734375" viewBox="0 0 24 22.734375" width="24" xmlns="http://www.w3.org/2000/svg">
<path d="M6.359375,11.515625 L6.046875,11.375 C6.484375,10.65625 6.859375,9.453125 6.84375,8.546875 C7.84375,7.421875 9.34375,9.640625 6.359375,11.515625 Z M8.765625,19.0625 L8.921875,18.34375 L14.71875,18.34375 C15.03125,18.34375 15.21875,18.453125 15.265625,18.71875 C14.6875,19.296875 13.796875,19.9375 13.796875,19.9375 L13.03125,19.0625 Z M9,15.3125 L9.1875,14.609375 L14.359375,14.609375 C14.6875,14.609375 14.90625,14.734375 14.953125,15 C14.421875,15.53125 13.609375,16.125 13.609375,16.125 L12.9375,15.3125 Z M9.046875,13.5625 L9.234375,12.84375 L14.421875,12.84375 C14.765625,12.84375 14.96875,12.953125 15.03125,13.21875 C14.515625,13.75 13.703125,14.359375 13.703125,14.359375 L13.03125,13.5625 Z M8.046875,17.15625 L8.234375,16.46875 L15.453125,16.46875 C15.765625,16.46875 15.984375,16.578125 16.0625,16.828125 C15.453125,17.40625 14.59375,18.078125 14.59375,18.078125 L13.796875,17.15625 Z M2.140625,11.46875 C1.875,10.03125 1.421875,8.546875 0.90625,7.53125 L1.296875,7.3125 C2.046875,8.09375 2.6875,9.28125 3.140625,10.4375 C3.625,10.421875 3.890625,10.609375 4.015625,10.875 Z M20.921875,11.5 L20.640625,11.359375 C21.125,10.5625 21.640625,9.265625 21.640625,8.25 C22.78125,7.15625 24.234375,9.546875 20.921875,11.5 Z M16.484375,11.453125 C16.203125,10.078125 15.75,8.65625 15.265625,7.6875 L15.640625,7.46875 C16.390625,8.1875 17.0625,9.3125 17.5625,10.390625 C18.046875,10.375 18.28125,10.5625 18.40625,10.828125 Z M4.3125,20.140625 C3.796875,19.078125 3.140625,18 2.609375,17.234375 C2.28125,17.375 1.875,17.515625 1.375,17.609375 L1.109375,17.421875 C1.75,16.921875 2.515625,16.015625 2.734375,15.265625 C3.703125,14.640625 4.515625,15.9375 3.171875,16.921875 C3.84375,17.46875 4.5625,18.1875 5.203125,18.859375 C5.6875,18.765625 5.953125,18.9375 6.09375,19.171875 Z M1.078125,13.375 L1.78125,11.78125 C2.015625,11.828125 2.203125,11.96875 2.359375,12.234375 L4.078125,12.53125 L4.078125,7.078125 L4.265625,7.078125 C4.9375,7.078125 5.40625,7.390625 5.40625,7.484375 L5.40625,12.75 L6.796875,13.015625 C6.9375,12.703125 7.0625,12.390625 7.078125,12.09375 C8.25,11.15625 9.390625,13.578125 5.953125,14.8125 L5.6875,14.640625 C5.96875,14.328125 6.28125,13.9375 6.546875,13.515625 L3.59375,13.421875 C4.75,14.453125 5.921875,15.75 6.703125,16.734375 C7.203125,16.625 7.515625,16.78125 7.65625,17.015625 L5.859375,17.953125 C5.109375,16.53125 3.890625,14.734375 2.8125,13.390625 Z M8.90625,11.8125 L8.90625,8.0625 L9.09375,8.0625 C9.625,8.0625 10.203125,8.375 10.203125,8.46875 L10.203125,8.78125 L13.578125,8.78125 L13.578125,8.28125 L13.78125,8.28125 C14.203125,8.28125 14.90625,8.59375 14.921875,8.734375 L14.921875,11.09375 C15.1875,11.140625 15.40625,11.28125 15.5,11.375 L14.109375,12.4375 L13.4375,11.8125 L10.296875,11.8125 L8.90625,12.4375 Z M10.203125,9.453125 L10.203125,11.09375 L13.578125,11.09375 L13.578125,9.453125 Z M18.9375,20.140625 C18.4375,19.15625 17.859375,18.171875 17.359375,17.40625 C16.96875,17.609375 16.484375,17.78125 15.859375,17.921875 L15.59375,17.71875 C16.3125,17.1875 17.140625,16.203125 17.375,15.390625 C18.3125,14.765625 19.109375,15.984375 17.921875,17.015625 C18.578125,17.5625 19.25,18.234375 19.84375,18.859375 C20.296875,18.765625 20.609375,18.953125 20.765625,19.171875 Z M16.5625,2.09375 L16.421875,1.734375 C17.046875,1.390625 17.609375,1.03125 18.140625,0.640625 L12.71875,0.453125 L12.71875,2.78125 L18.03125,2.78125 L18.03125,2.09375 L18.28125,2.09375 C18.796875,2.09375 19.578125,2.453125 19.609375,2.5625 L19.609375,5.375 C20.0625,5.46875 20.453125,5.65625 20.609375,5.828125 L18.84375,7.15625 C19.484375,7.171875 19.890625,7.4375 19.890625,7.53125 L19.890625,12.703125 L21.4375,12.953125 C21.625,12.625 21.75,12.3125 21.8125,12 C23.046875,11.0625 24.140625,13.578125 20.421875,14.8125 L20.15625,14.609375 C20.5,14.296875 20.828125,13.890625 21.125,13.46875 L18.046875,13.375 C19.296875,14.421875 20.5625,15.71875 21.40625,16.75 C21.890625,16.625 22.21875,16.78125 22.375,17.046875 L20.515625,18 C19.734375,16.5625 18.40625,14.71875 17.234375,13.34375 L15.359375,13.3125 L16.078125,11.765625 C16.296875,11.8125 16.484375,11.90625 16.625,12.1875 L18.546875,12.484375 L18.546875,7.203125 L17.8125,6.359375 L12.71875,6.359375 L12.71875,7.3125 C13.25,7.390625 13.46875,7.609375 13.515625,7.921875 L11.15625,8.15625 L11.15625,6.359375 L6.03125,6.359375 L4.375,7.078125 L4.375,1.578125 L4.609375,1.578125 C5.203125,1.578125 5.90625,1.921875 5.90625,2.0625 L5.90625,2.78125 L11.15625,2.78125 L11.15625,0.40625 C7.109375,0.28125 3.71875,0.21875 1.75,0.21875 L2.875,-1.78125 C3.125,-1.703125 3.359375,-1.5625 3.5,-1.265625 C10.3125,-0.71875 15.265625,-0.3125 18.8125,0.09375 C19.625,-0.578125 20.203125,-1.25 20.515625,-1.75 C22.203125,-2.59375 23.234375,0.9375 16.5625,2.09375 Z M18.03125,3.5 L12.71875,3.5 L12.71875,5.65625 L18.03125,5.65625 Z M5.90625,3.5 L5.90625,5.65625 L11.15625,5.65625 L11.15625,3.5 Z" transform="translate(-0.5703125, 20.140625) scale(1, -1)"/>
</svg>