<svg height="21.9375" viewBox="0 0 24 21.9375" width="24" xmlns="http://www.w3.org/2000/svg">
<path d="M6.9375,20.046875 C5.765625,18.09375 3.390625,15.21875 1.15625,13.390625 L1.421875,13.078125 C4.078125,14.59375 6.71875,16.890625 8.1875,18.59375 C8.734375,18.484375 8.953125,18.578125 9.09375,18.8125 Z M10.375,17.90625 L10.53125,17.1875 L21.578125,17.1875 C21.890625,17.1875 22.125,17.296875 22.203125,17.5625 C21.4375,18.3125 20.140625,19.296875 20.140625,19.296875 L19.03125,17.90625 Z M7.109375,15.078125 C5.828125,12.546875 3.265625,8.921875 0.71875,6.578125 L0.984375,6.28125 C2.328125,7.171875 3.625,8.28125 4.796875,9.40625 L4.796875,-1.890625 L5.09375,-1.890625 C5.71875,-1.890625 6.34375,-1.515625 6.390625,-1.375 L6.390625,10.296875 C6.765625,10.375 7.015625,10.53125 7.109375,10.734375 L6.359375,11.015625 C7.171875,11.921875 7.890625,12.8125 8.453125,13.609375 C9.03125,13.515625 9.21875,13.609375 9.359375,13.84375 Z M9.046875,12.390625 L9.234375,11.6875 L17.0625,11.6875 L17.0625,0.71875 C17.0625,0.34375 16.890625,0.1875 16.375,0.1875 C15.71875,0.1875 12.34375,0.4375 12.34375,0.4375 L12.34375,0.046875 C13.78125,-0.125 14.59375,-0.34375 15.046875,-0.59375 C15.453125,-0.84375 15.671875,-1.265625 15.71875,-1.78125 C18.28125,-1.5625 18.640625,-0.59375 18.640625,0.640625 L18.640625,11.6875 L22.625,11.6875 C22.96875,11.6875 23.203125,11.8125 23.25,12.046875 C22.484375,12.796875 21.1875,13.796875 21.1875,13.796875 L20.0625,12.390625 Z" transform="translate(0.015625, 20.046875) scale(1, -1)"/>
</svg>