<svg height="22.03125" viewBox="0 0 24 22.03125" width="24" xmlns="http://www.w3.org/2000/svg">
<path d="M4.890625,20.140625 C4.109375,18.390625 2.453125,15.75 0.890625,13.984375 L1.15625,13.703125 C3.140625,15.140625 5.109375,17.296875 6.1875,18.796875 C6.75,18.703125 6.9375,18.8125 7.109375,19.0625 Z M16.375,18.046875 L16.5625,17.328125 L22.109375,17.328125 C22.421875,17.328125 22.65625,17.453125 22.734375,17.71875 C21.9375,18.4375 20.6875,19.421875 20.6875,19.421875 L19.578125,18.046875 Z M10.171875,20.09375 L9.796875,17.5625 L7.0625,17.5625 L7.265625,16.875 L9.703125,16.875 L9.21875,14.25 L7.296875,14.25 L5.15625,15.234375 C4.3125,12.9375 2.546875,9.4375 0.71875,7.078125 L1.015625,6.84375 C1.84375,7.578125 2.640625,8.421875 3.390625,9.3125 L3.390625,-1.875 L3.671875,-1.875 C4.203125,-1.875 4.84375,-1.515625 4.875,-1.390625 L4.875,10.375 C5.25,10.4375 5.5,10.578125 5.59375,10.796875 L4.78125,11.109375 C5.46875,12.125 6.078125,13.078125 6.53125,13.890625 L6.671875,13.875 L6.765625,13.5625 L17.515625,13.5625 C17.859375,13.5625 18.078125,13.6875 18.140625,13.9375 C17.453125,14.609375 16.375,15.53125 16.375,15.53125 L15.390625,14.25 L15,14.25 L15,16.609375 C15.4375,16.6875 15.859375,16.875 16.015625,17.0625 L14.1875,18.453125 L13.34375,17.5625 L11.25,17.5625 L11.515625,19.25 C12,19.265625 12.28125,19.53125 12.3125,19.84375 Z M16.078125,12.34375 L16.265625,11.65625 L19.296875,11.65625 L19.296875,0.484375 C19.296875,0.140625 19.171875,0 18.71875,0 C18.21875,0 15.765625,0.1875 15.765625,0.1875 L15.765625,-0.1875 C16.84375,-0.3125 17.46875,-0.5 17.859375,-0.765625 C18.140625,-1.015625 18.28125,-1.4375 18.3125,-1.890625 C20.5,-1.65625 20.78125,-0.765625 20.78125,0.4375 L20.78125,11.65625 L22.734375,11.65625 C23.09375,11.65625 23.28125,11.78125 23.359375,12.046875 C22.578125,12.765625 21.328125,13.78125 21.328125,13.78125 L20.203125,12.34375 Z M7.875,12.046875 L7.875,7.21875 L8.09375,7.21875 C8.65625,7.21875 9.3125,7.53125 9.3125,7.65625 L9.3125,8.359375 L14.0625,8.359375 L14.0625,7.625 L14.28125,7.625 C14.765625,7.625 15.484375,7.96875 15.5,8.140625 L15.5,11.203125 C15.890625,11.28125 16.21875,11.453125 16.34375,11.609375 L16.265625,11.65625 L14.640625,12.859375 L13.875,12.046875 L9.4375,12.046875 L7.875,12.75 Z M13.5625,14.25 L10.734375,14.25 L11.15625,16.875 L13.5625,16.875 Z M11.734375,7.6875 L11.734375,5.828125 L6.34375,5.828125 L6.53125,5.140625 L8.109375,5.140625 L8.109375,2.421875 L5.71875,2.421875 L5.875,1.734375 L11.734375,1.734375 L11.734375,-1.734375 L12,-1.734375 C12.53125,-1.734375 13.15625,-1.390625 13.15625,-1.21875 L13.15625,1.734375 L17.140625,1.734375 C17.46875,1.734375 17.6875,1.84375 17.765625,2.109375 C17.09375,2.765625 16.015625,3.640625 16.015625,3.640625 L15.078125,2.421875 L13.15625,2.421875 L13.15625,5.140625 L16.390625,5.140625 C16.734375,5.140625 16.921875,5.25 16.96875,5.515625 C16.34375,6.125 15.28125,6.984375 15.28125,6.984375 L14.375,5.828125 L13.15625,5.828125 L13.15625,6.84375 C13.734375,6.9375 13.921875,7.15625 13.96875,7.4375 Z M9.484375,5.140625 L11.734375,5.140625 L11.734375,2.421875 L9.484375,2.421875 Z M9.3125,9.046875 L9.3125,11.375 L14.0625,11.375 L14.0625,9.046875 Z" transform="translate(-0.0390625, 20.140625) scale(1, -1)"/>
</svg>