<svg height="21.984375" viewBox="0 0 24 21.984375" width="24" xmlns="http://www.w3.org/2000/svg">
<path d="M4.515625,20.109375 L4.25,19.921875 C5.15625,19.015625 6.28125,17.453125 6.546875,16.203125 C8.15625,15.03125 9.484375,18.359375 4.515625,20.109375 Z M7.3125,-1.296875 L7.3125,8.640625 C8.40625,7.578125 9.671875,6.125 10.109375,4.984375 C11.46875,4.109375 12.390625,6.359375 9.078125,8.359375 C9.796875,8.90625 10.515625,9.625 11.109375,10.3125 C11.546875,10.171875 11.875,10.296875 12.03125,10.515625 L10.375,11.6875 C9.796875,10.5625 9.125,9.484375 8.5,8.6875 C8.140625,8.859375 7.75,9.046875 7.3125,9.21875 L7.3125,10.3125 C8.328125,11.5625 9.1875,12.859375 9.796875,14.09375 C10.375,14.109375 10.65625,14.15625 10.875,14.328125 L9.09375,16.0625 L8.046875,15.046875 L1.6875,15.046875 L1.890625,14.328125 L8.046875,14.328125 C6.71875,11.203125 3.859375,7.515625 0.953125,5.234375 L1.25,4.96875 C2.828125,5.921875 4.390625,7.203125 5.765625,8.59375 L5.765625,-1.875 L6.03125,-1.875 C6.765625,-1.875 7.3125,-1.4375 7.3125,-1.296875 Z" transform="translate(5.328125, 20.109375) scale(1, -1)"/>
</svg>