<svg height="22.03125" viewBox="0 0 24 22.03125" width="24" xmlns="http://www.w3.org/2000/svg">
<path d="M1.375,17.96875 L1.578125,17.25 L21.984375,17.25 C22.34375,17.25 22.5625,17.375 22.625,17.640625 C21.84375,18.40625 20.515625,19.421875 20.515625,19.421875 L19.421875,17.96875 L12.75,17.96875 L12.75,19.21875 C13.34375,19.296875 13.578125,19.53125 13.625,19.875 L11.1875,20.109375 L11.1875,17.96875 Z M4.625,15.796875 L4.625,8.96875 L4.84375,8.96875 C5.5,8.96875 6.140625,9.3125 6.140625,9.453125 L6.140625,10.0625 L11.203125,10.0625 L11.203125,8.375 L2.90625,8.375 L3.125,7.65625 L11.203125,7.65625 L11.203125,5.875 L1.203125,5.875 L1.421875,5.203125 L9.671875,5.203125 C7.4375,3.703125 4.25,2.453125 0.84375,1.65625 L0.984375,1.21875 C3.28125,1.578125 5.515625,2.109375 7.484375,2.8125 L7.484375,0.453125 C5.875,0.21875 4.515625,0.046875 3.59375,-0.03125 L4.609375,-1.921875 C4.828125,-1.875 5.015625,-1.6875 5.140625,-1.375 C8.953125,-0.53125 11.78125,0.34375 13.9375,1.078125 L13.875,1.4375 L9.046875,0.671875 L9.046875,3.40625 C10.21875,3.9375 11.28125,4.515625 12.1875,5.203125 L12.40625,5.203125 C14.09375,1.421875 17.203125,-0.546875 21.765625,-1.609375 C21.953125,-0.84375 22.421875,-0.390625 23.09375,-0.234375 L23.109375,0.03125 C20.5,0.390625 18.171875,1.03125 16.296875,2.09375 C17.65625,2.59375 19.078125,3.28125 19.96875,3.84375 C20.46875,3.703125 20.65625,3.765625 20.828125,4.015625 L18.9375,5.203125 L22.265625,5.203125 C22.609375,5.203125 22.84375,5.328125 22.921875,5.59375 C22.125,6.234375 20.921875,7.125 20.921875,7.125 L19.875,5.875 L12.75,5.875 L12.75,7.65625 L20.734375,7.65625 C21.078125,7.65625 21.28125,7.78125 21.359375,8.046875 C20.59375,8.71875 19.4375,9.5 19.4375,9.5 L18.40625,8.375 L12.75,8.375 L12.75,10.0625 L17.828125,10.0625 L17.828125,9.4375 L18.078125,9.4375 C18.546875,9.4375 19.34375,9.796875 19.375,9.953125 L19.375,14.875 C19.796875,14.953125 20.140625,15.140625 20.28125,15.3125 L18.4375,16.703125 L17.609375,15.796875 L6.28125,15.796875 L4.625,16.578125 Z M12.984375,5.203125 L18.8125,5.203125 C18.140625,4.4375 16.875,3.28125 15.71875,2.453125 C14.59375,3.1875 13.65625,4.109375 12.984375,5.203125 Z M17.828125,15.125 L17.828125,13.3125 L12.75,13.3125 L12.75,15.125 Z M6.140625,12.59375 L11.203125,12.59375 L11.203125,10.75 L6.140625,10.75 Z M6.140625,13.3125 L6.140625,15.125 L11.203125,15.125 L11.203125,13.3125 Z M17.828125,12.59375 L17.828125,10.75 L12.75,10.75 L12.75,12.59375 Z" transform="translate(0.0234375, 20.109375) scale(1, -1)"/>
</svg>