<svg height="21.96875" viewBox="0 0 24 21.96875" width="24" xmlns="http://www.w3.org/2000/svg">
<path d="M2.421875,18.71875 L2.15625,18.53125 C3,17.71875 3.890625,16.34375 3.984375,15.1875 C5.5,13.96875 6.9375,17.140625 2.421875,18.71875 Z M9.28125,11.015625 L9.484375,10.3125 L21.984375,10.3125 C22.34375,10.3125 22.5625,10.4375 22.625,10.6875 C21.84375,11.421875 20.609375,12.390625 20.609375,12.390625 L19.53125,11.015625 L16.171875,11.015625 L16.171875,15.390625 L22.3125,15.390625 C22.65625,15.390625 22.875,15.5 22.9375,15.765625 C22.171875,16.515625 20.90625,17.46875 20.90625,17.46875 L19.796875,16.109375 L16.171875,16.109375 L16.171875,19.203125 C16.75,19.296875 16.984375,19.53125 17.046875,19.84375 L14.59375,20.09375 L14.59375,16.109375 L9.140625,16.109375 L9.34375,15.390625 L14.59375,15.390625 L14.59375,11.015625 Z M6.703125,20.046875 L6.703125,13.578125 C4.375,12.765625 2.09375,12 1.0625,11.71875 L2.234375,9.9375 C2.453125,10.0625 2.609375,10.25 2.640625,10.53125 C4.34375,11.546875 5.6875,12.390625 6.703125,13.0625 L6.703125,8.59375 L6.984375,8.59375 C7.5625,8.59375 8.203125,8.953125 8.203125,9.09375 L8.203125,19.15625 C8.828125,19.21875 9.046875,19.46875 9.09375,19.796875 Z M19.25,6.234375 C18.40625,5.40625 16.796875,4.171875 15.40625,3.34375 C14.40625,4.203125 13.53125,5.203125 12.890625,6.359375 L22.421875,6.359375 C22.75,6.359375 22.96875,6.484375 23.046875,6.75 C22.25,7.484375 21,8.46875 21,8.46875 L19.890625,7.078125 L12.75,7.078125 L12.75,8.59375 C13.296875,8.6875 13.484375,8.90625 13.53125,9.1875 L11.1875,9.4375 L11.1875,7.078125 L0.953125,7.078125 L1.171875,6.359375 L9.8125,6.359375 C7.609375,4.5625 4.375,2.953125 0.953125,1.890625 L1.15625,1.515625 C3.40625,1.984375 5.59375,2.65625 7.53125,3.5 L7.53125,0.5 C6.03125,0.3125 4.78125,0.140625 3.953125,0.078125 L5.140625,-1.875 C5.375,-1.796875 5.5625,-1.625 5.6875,-1.3125 C10.015625,-0.265625 13.03125,0.578125 15.171875,1.21875 L15.125,1.625 L9.09375,0.75 L9.09375,4.21875 C10.296875,4.84375 11.375,5.5625 12.28125,6.359375 L12.34375,6.359375 C14.015625,2.203125 17.375,-0.390625 21.765625,-1.875 C21.984375,-1.078125 22.484375,-0.59375 23.15625,-0.484375 L23.203125,-0.21875 C20.453125,0.390625 17.859375,1.4375 15.84375,3 C17.453125,3.453125 19.25,4.171875 20.296875,4.78125 C20.8125,4.625 21.03125,4.6875 21.21875,4.921875 Z" transform="translate(-0.078125, 20.09375) scale(1, -1)"/>
</svg>