<svg height="21.9375" viewBox="0 0 24 21.9375" width="24" xmlns="http://www.w3.org/2000/svg">
<path d="M9.03125,18.484375 L9.21875,17.78125 L22.421875,17.78125 C22.734375,17.78125 22.96875,17.90625 23.046875,18.171875 C22.25,18.859375 21.03125,19.828125 21.03125,19.828125 L19.890625,18.484375 Z M10.265625,15.703125 L10.265625,13.015625 C10.265625,8.6875 9.796875,3.625 6.578125,-0.671875 L6.90625,-0.953125 C8.96875,1.03125 10.171875,3.390625 10.84375,5.734375 L10.84375,-1.828125 L11.09375,-1.828125 C11.71875,-1.828125 12.265625,-1.484375 12.265625,-1.34375 L12.265625,4.03125 L14.1875,4.03125 L14.1875,-1.65625 L14.375,-1.65625 C15.03125,-1.65625 15.4375,-1.34375 15.4375,-1.21875 L15.4375,4.03125 L17.359375,4.03125 L17.359375,-1.53125 L17.515625,-1.53125 C18.171875,-1.53125 18.578125,-1.21875 18.578125,-1.125 L18.578125,4.03125 L20.640625,4.03125 L20.640625,0.40625 C20.640625,0.140625 20.5625,0 20.28125,0 C19.984375,0 18.953125,0.125 18.953125,0.125 L18.953125,-0.28125 C19.53125,-0.34375 19.796875,-0.5 19.984375,-0.75 C20.203125,-0.984375 20.25,-1.390625 20.28125,-1.796875 C21.859375,-1.625 22.078125,-0.953125 22.078125,0.234375 L22.078125,7.96875 C22.484375,8.046875 22.84375,8.234375 22.984375,8.40625 L21.140625,9.75 L20.421875,8.875 L12.390625,8.875 L11.546875,9.265625 C11.609375,9.953125 11.65625,10.625 11.6875,11.28125 L19.890625,11.28125 L19.890625,10.21875 L20.140625,10.21875 C20.78125,10.21875 21.359375,10.53125 21.359375,10.65625 L21.359375,14.8125 C21.765625,14.875 22.03125,15.03125 22.171875,15.171875 L20.375,16.5625 L19.703125,15.703125 L12.03125,15.703125 L10.265625,16.46875 Z M11.71875,12 L11.734375,13.03125 L11.734375,15 L19.890625,15 L19.890625,12 Z M12.265625,4.703125 L12.265625,8.1875 L14.1875,8.1875 L14.1875,4.703125 Z M20.640625,4.703125 L18.578125,4.703125 L18.578125,8.1875 L20.640625,8.1875 Z M15.4375,4.703125 L15.4375,8.1875 L17.359375,8.1875 L17.359375,4.703125 Z M7.703125,12.21875 C7.25,11.1875 6.640625,10.203125 6.140625,9.5 L5.515625,9.765625 L5.515625,10.15625 C6.625,11.65625 7.484375,13.265625 8.09375,14.78125 C8.640625,14.8125 8.90625,14.859375 9.078125,15.078125 L7.421875,16.5625 L6.4375,15.625 L5.359375,15.625 L5.359375,19.203125 C5.921875,19.296875 6.1875,19.53125 6.234375,19.875 L3.90625,20.09375 L3.90625,15.625 L1.03125,15.625 L1.25,14.921875 L6.453125,14.921875 C5.359375,11.765625 3.09375,8.1875 0.640625,5.78125 L0.9375,5.5 C2.109375,6.34375 3.171875,7.3125 4.109375,8.375 L4.109375,-1.84375 L4.3125,-1.84375 C5.015625,-1.84375 5.515625,-1.484375 5.515625,-1.34375 L5.515625,9.28125 C6.34375,8.453125 7.25,7.25 7.53125,6.3125 C8.765625,5.453125 9.75,7.578125 6.640625,9.265625 C7.265625,9.71875 7.890625,10.375 8.421875,10.921875 C8.859375,10.796875 9.171875,10.9375 9.3125,11.140625 Z" transform="translate(0.15625, 20.09375) scale(1, -1)"/>
</svg>