<svg height="22.015625" viewBox="0 0 24 22.015625" width="24" xmlns="http://www.w3.org/2000/svg">
<path d="M16.171875,7.015625 C15.21875,6.3125 13.53125,5.515625 12.078125,4.890625 L12.078125,6.75 C12.484375,6.796875 12.71875,7.015625 12.75,7.265625 L11.921875,7.375 L12.796875,8.421875 L20.71875,8.421875 C20.5,3.671875 19.984375,0.890625 19.34375,0.28125 C19.125,0.09375 18.9375,0.046875 18.5,0.046875 C18.046875,0.046875 16.609375,0.140625 15.75,0.21875 L15.75,-0.1875 C16.515625,-0.3125 17.296875,-0.5 17.609375,-0.75 C17.921875,-0.984375 18,-1.390625 18,-1.828125 C18.90625,-1.828125 19.78125,-1.578125 20.359375,-1.015625 C21.359375,-0.125 21.953125,2.859375 22.203125,8.234375 C22.6875,8.296875 22.96875,8.421875 23.140625,8.609375 L21.359375,10.0625 L20.5,9.125 L13.296875,9.125 C13.65625,9.640625 13.96875,10.171875 14.234375,10.703125 C14.6875,10.65625 14.953125,10.78125 15.03125,11.015625 L13.109375,11.59375 L19.484375,11.59375 L19.484375,10.78125 L19.734375,10.78125 C20.40625,10.78125 20.953125,11.140625 20.953125,11.234375 L20.953125,18.09375 C21.453125,18.1875 21.703125,18.3125 21.84375,18.484375 L20.15625,19.796875 L19.421875,18.890625 L12.234375,18.890625 L10.484375,19.65625 L10.484375,10.390625 L10.703125,10.390625 C11.46875,10.390625 11.953125,10.734375 11.953125,10.875 L11.953125,11.59375 L12.765625,11.59375 C11.828125,9.09375 9.859375,6.140625 7.5625,4.21875 L7.828125,3.90625 C8.828125,4.515625 9.796875,5.234375 10.65625,6.046875 L10.65625,2.25 C10.65625,1.203125 10.921875,0.84375 12.53125,0.84375 L14.59375,0.84375 C17.65625,0.84375 18.28125,1.15625 18.28125,1.78125 C18.28125,2.0625 18.171875,2.234375 17.6875,2.375 L17.609375,3.9375 L17.328125,3.9375 C17.140625,3.234375 16.921875,2.59375 16.78125,2.375 C16.6875,2.25 16.5625,2.234375 16.390625,2.234375 C16.15625,2.203125 15.453125,2.203125 14.65625,2.203125 L12.8125,2.203125 C12.140625,2.203125 12.078125,2.28125 12.078125,2.5625 L12.078125,4.3125 C13.734375,4.6875 15.75,5.25 16.890625,5.734375 C17.25,5.546875 17.546875,5.546875 17.71875,5.734375 Z M11.953125,14.828125 L19.484375,14.828125 L19.484375,12.28125 L11.953125,12.28125 Z M11.953125,15.53125 L11.953125,18.21875 L19.484375,18.21875 L19.484375,15.53125 Z M8.140625,12.171875 C7.6875,11.15625 7.125,10.171875 6.671875,9.5 C6.390625,9.640625 6.046875,9.796875 5.6875,9.90625 L5.6875,10.3125 C6.796875,11.78125 7.6875,13.3125 8.296875,14.8125 C8.859375,14.859375 9.09375,14.90625 9.28125,15.09375 L7.734375,16.578125 L6.75,15.640625 L5.734375,15.640625 L5.734375,19.25 C6.3125,19.3125 6.546875,19.5625 6.59375,19.890625 L4.25,20.140625 L4.25,15.640625 L1.03125,15.640625 L1.25,14.953125 L6.671875,14.953125 C5.46875,11.78125 3.125,8.234375 0.484375,5.90625 L0.765625,5.59375 C2.046875,6.4375 3.1875,7.46875 4.21875,8.5625 L4.21875,-1.875 L4.46875,-1.875 C5.1875,-1.875 5.6875,-1.484375 5.6875,-1.3125 L5.6875,9.4375 C6.59375,8.5625 7.578125,7.296875 7.890625,6.28125 C9.140625,5.46875 10.078125,7.578125 7.15625,9.234375 C7.75,9.71875 8.40625,10.34375 8.921875,10.890625 C9.359375,10.796875 9.671875,10.9375 9.8125,11.15625 Z" transform="translate(0.1875, 20.140625) scale(1, -1)"/>
</svg>