<svg height="22.0625" viewBox="0 0 24 22.0625" width="24" xmlns="http://www.w3.org/2000/svg">
<path d="M10.9375,10.125 C10.171875,9.03125 8.453125,7.5625 6.765625,6.765625 L6.953125,6.40625 C8.90625,6.90625 10.875,7.96875 11.953125,8.859375 C12.5,8.765625 12.859375,8.828125 13.015625,9.09375 Z M16.84375,9.84375 L16.734375,9.453125 C18.75,8.59375 20.25,7.296875 20.875,6.484375 C22.515625,5.765625 23.25,9.171875 16.84375,9.84375 Z M1.171875,17.921875 L1.375,17.203125 L22.25,17.203125 C22.578125,17.203125 22.796875,17.328125 22.875,17.59375 C22.078125,18.359375 20.78125,19.34375 20.78125,19.34375 L19.625,17.921875 L12.75,17.921875 L12.75,19.3125 C13.34375,19.390625 13.5625,19.625 13.625,19.9375 L11.1875,20.1875 L11.1875,17.921875 Z M9.59375,15.890625 L9.59375,11.546875 L9.84375,11.546875 C10.4375,11.546875 11.109375,11.875 11.109375,12.03125 L11.109375,12.4375 L13.875,12.4375 L13.875,11.0625 L7.109375,11.0625 L7.296875,10.390625 L13.875,10.390625 L13.875,6.3125 L14.109375,6.3125 C14.90625,6.3125 15.40625,6.703125 15.40625,6.796875 L15.40625,10.390625 L22.015625,10.390625 C22.34375,10.390625 22.5625,10.484375 22.625,10.75 C21.859375,11.421875 20.6875,12.265625 20.6875,12.265625 L19.625,11.0625 L15.40625,11.0625 L15.40625,12.4375 L18.1875,12.4375 L18.1875,11.90625 L18.4375,11.90625 C18.953125,11.90625 19.734375,12.265625 19.75,12.4375 L19.75,15 C20.140625,15.078125 20.46875,15.234375 20.609375,15.40625 L18.796875,16.78125 L18,15.890625 L11.234375,15.890625 L9.59375,16.609375 Z M18.1875,15.1875 L18.1875,13.125 L11.109375,13.125 L11.109375,15.1875 Z M6.265625,17.140625 C4.890625,14.328125 2.78125,11.953125 0.859375,10.578125 L1.125,10.296875 C2.203125,10.78125 3.28125,11.421875 4.296875,12.234375 L4.296875,5.875 L4.5625,5.875 C5.1875,5.875 5.78125,6.28125 5.8125,6.4375 L5.8125,12.796875 C6.1875,12.859375 6.453125,13.015625 6.53125,13.21875 L5.734375,13.53125 C6.359375,14.15625 6.9375,14.859375 7.46875,15.625 C7.96875,15.484375 8.296875,15.640625 8.453125,15.890625 Z M12.53125,6.140625 C13.265625,6.125 13.609375,6.234375 13.734375,6.484375 L11.234375,7.265625 C9.140625,5.296875 5.109375,3.078125 0.703125,1.890625 L0.859375,1.484375 C3.265625,1.921875 5.515625,2.609375 7.515625,3.4375 L7.515625,0.53125 C5.96875,0.3125 4.703125,0.140625 3.890625,0.046875 L5.0625,-1.875 C5.28125,-1.796875 5.5,-1.625 5.59375,-1.3125 C9.625,-0.28125 12.453125,0.546875 14.453125,1.171875 L14.359375,1.578125 L9.046875,0.75 L9.046875,4.125 C10.203125,4.6875 11.234375,5.25 12.125,5.859375 C13.890625,2.015625 17.328125,-0.390625 21.75,-1.703125 C21.953125,-0.90625 22.4375,-0.4375 23.09375,-0.34375 L23.109375,-0.078125 C20.328125,0.484375 17.65625,1.46875 15.59375,2.90625 C17.234375,3.59375 18.890625,4.484375 19.921875,5.203125 C20.453125,5.09375 20.640625,5.15625 20.8125,5.40625 L18.765625,6.671875 C18,5.71875 16.484375,4.296875 15.09375,3.28125 C14.046875,4.109375 13.171875,5.046875 12.53125,6.140625 Z" transform="translate(0.0234375, 20.1875) scale(1, -1)"/>
</svg>