<svg height="21.8125" viewBox="0 0 24 21.8125" width="24" xmlns="http://www.w3.org/2000/svg">
<path d="M14.09375,4.109375 L12.1875,4.96875 C11.328125,3.453125 9.84375,1.65625 7.9375,0.546875 L8.234375,0.234375 C9.640625,0.8125 10.890625,1.625 11.859375,2.453125 C12.53125,1.6875 13.34375,1.03125 14.296875,0.484375 C12.34375,-0.390625 10.015625,-1.03125 7.53125,-1.4375 L7.703125,-1.875 C10.625,-1.578125 13.265625,-1.03125 15.484375,-0.125 C17.296875,-0.9375 19.515625,-1.46875 21.890625,-1.828125 C22.03125,-1.109375 22.4375,-0.625 23.0625,-0.484375 L23.0625,-0.21875 C20.953125,-0.09375 18.859375,0.171875 17.015625,0.625 C18.046875,1.203125 18.9375,1.875 19.6875,2.640625 C20.28125,2.65625 20.546875,2.71875 20.734375,2.921875 L19.203125,4.375 L18.171875,3.484375 L12.90625,3.484375 L13.171875,3.765625 C13.625,3.703125 13.921875,3.84375 14.09375,4.109375 Z M12.21875,2.78125 L17.8125,2.78125 C17.15625,2.140625 16.375,1.578125 15.484375,1.078125 C14.1875,1.515625 13.0625,2.0625 12.21875,2.78125 Z M13.9375,15.546875 L13.9375,13.6875 L10.296875,13.6875 L10.296875,15.546875 Z M13.9375,16.265625 L10.296875,16.265625 L10.296875,17.859375 L13.9375,17.859375 Z M15.4375,15.546875 L19.109375,15.546875 L19.109375,13.6875 L15.4375,13.6875 Z M8.359375,12.171875 L6.859375,12.984375 L19.109375,12.984375 L19.109375,12.53125 L19.3125,12.53125 C19.828125,12.53125 20.59375,12.859375 20.609375,13.015625 L20.609375,15.359375 C21.03125,15.4375 21.390625,15.59375 21.53125,15.765625 L19.703125,17.15625 L18.859375,16.265625 L15.4375,16.265625 L15.4375,17.859375 L22.203125,17.859375 C22.515625,17.859375 22.78125,17.96875 22.84375,18.234375 C22.015625,18.984375 20.765625,19.921875 20.765625,19.921875 L19.625,18.578125 L1.46875,18.578125 L1.6875,17.859375 L8.8125,17.859375 L8.8125,16.265625 L5.046875,16.265625 L3.359375,17.015625 L3.359375,12.046875 L3.59375,12.046875 C4.203125,12.046875 4.875,12.359375 4.875,12.5 L4.875,12.984375 L6.265625,12.984375 C5.1875,11.421875 3.171875,9.4375 1.265625,8.203125 L1.53125,7.875 C3.859375,8.90625 6.1875,10.578125 7.484375,11.96875 C7.984375,11.828125 8.1875,11.921875 8.359375,12.171875 Z M8.8125,15.546875 L8.8125,13.6875 L4.875,13.6875 L4.875,15.546875 Z M8.546875,8.875 L6.546875,9.953125 C5.453125,7.96875 3.125,5.28125 0.890625,3.578125 L1.125,3.265625 C2.328125,3.90625 3.5,4.734375 4.5625,5.59375 L4.5625,-1.890625 L4.84375,-1.890625 C5.421875,-1.890625 6.046875,-1.53125 6.078125,-1.390625 L6.078125,6.28125 C6.484375,6.359375 6.71875,6.53125 6.796875,6.75 L6.140625,7.015625 C6.71875,7.578125 7.25,8.140625 7.65625,8.65625 C8.1875,8.546875 8.40625,8.640625 8.546875,8.875 Z M11.921875,4.734375 L11.921875,4.984375 L18.484375,4.984375 L18.484375,4.46875 L18.71875,4.46875 C19.21875,4.46875 19.96875,4.828125 19.984375,4.96875 L19.984375,8.609375 C20.40625,8.6875 20.765625,8.859375 20.875,9.03125 L19.109375,10.390625 L18.265625,9.53125 L12.046875,9.53125 L11.140625,9.9375 L11.71875,10.703125 L21.578125,10.703125 C21.890625,10.703125 22.109375,10.828125 22.171875,11.09375 C21.484375,11.78125 20.421875,12.578125 20.421875,12.578125 L19.484375,11.421875 L12.1875,11.421875 L12.484375,11.921875 C13.078125,11.921875 13.265625,12 13.34375,12.234375 L11.046875,12.84375 C10.421875,10.96875 9.140625,8.640625 7.84375,7.265625 L8.15625,7.0625 C8.96875,7.578125 9.75,8.296875 10.4375,9.078125 L10.4375,4.25 L10.65625,4.25 C11.28125,4.25 11.921875,4.609375 11.921875,4.734375 Z M18.484375,8.8125 L18.484375,7.625 L11.921875,7.625 L11.921875,8.8125 Z M18.484375,6.90625 L18.484375,5.6875 L11.921875,5.6875 L11.921875,6.90625 Z" transform="translate(0.0234375, 19.921875) scale(1, -1)"/>
</svg>