<svg height="24" viewBox="0 0 24 24" width="24" xmlns="http://www.w3.org/2000/svg">
<path d="M19.171875,14.359375 L19.171875,10.171875 L15.359375,10.171875 L15.359375,14.359375 Z M20.78125,20.09375 L19.609375,18.640625 L1.21875,18.640625 L1.4375,17.953125 L8.546875,17.953125 L8.546875,15.078125 L5.015625,15.078125 L3.3125,15.84375 L3.3125,8.609375 L3.53125,8.609375 C4.171875,8.609375 4.84375,8.96875 4.84375,9.125 L4.84375,9.484375 L19.171875,9.484375 L19.171875,8.78125 L19.421875,8.78125 C19.921875,8.78125 20.6875,9.125 20.71875,9.265625 L20.71875,14.0625 C21.1875,14.15625 21.59375,14.359375 21.765625,14.546875 L19.828125,16.03125 L18.9375,15.078125 L15.359375,15.078125 L15.359375,17.953125 L22.265625,17.953125 C22.609375,17.953125 22.84375,18.078125 22.921875,18.34375 C22.078125,19.078125 20.78125,20.09375 20.78125,20.09375 Z M4.84375,10.171875 L4.84375,14.359375 L8.546875,14.359375 L8.546875,10.171875 Z M13.828125,14.359375 L13.828125,10.171875 L10.078125,10.171875 L10.078125,14.359375 Z M13.828125,15.078125 L10.078125,15.078125 L10.078125,17.953125 L13.828125,17.953125 Z" transform="translate(-0.0703125, 20.09375) scale(1, -1)"/>
</svg>