<svg height="22.625" viewBox="0 0 24 22.625" width="24" xmlns="http://www.w3.org/2000/svg">
<path d="M0.984375,7.171875 L1.203125,6.484375 L7.703125,6.484375 C6.578125,4.828125 5.328125,3.09375 4.421875,2.0625 C4.96875,1.703125 5.65625,1.5625 6.078125,1.6875 L7.03125,2.953125 C8.78125,2.5625 10.375,2.1875 11.8125,1.78125 C9.265625,0.140625 5.71875,-0.796875 1.015625,-1.421875 L1.109375,-1.84375 C6.8125,-1.390625 10.734375,-0.5 13.4375,1.265625 C16.171875,0.390625 18.28125,-0.59375 19.828125,-1.609375 C21.671875,-2.6875 23.46875,0.21875 14.765625,2.25 C15.984375,3.390625 16.921875,4.75 17.65625,6.484375 L22.390625,6.484375 C22.734375,6.484375 22.9375,6.59375 23.015625,6.859375 C22.203125,7.609375 20.875,8.609375 20.875,8.609375 L19.734375,7.171875 L10.0625,7.171875 C10.5625,7.921875 10.984375,8.5625 11.28125,9.046875 C11.875,9 12.171875,9.1875 12.28125,9.53125 L10.03125,10.078125 L10.03125,10.5625 L13.78125,10.5625 L13.78125,9.625 L14.015625,9.625 C14.8125,9.625 15.3125,9.984375 15.3125,10.078125 L15.3125,14.59375 L19.0625,14.59375 L19.0625,9 L19.296875,9 C19.78125,9 20.59375,9.34375 20.609375,9.5 L20.609375,14.296875 C21.078125,14.40625 21.484375,14.59375 21.625,14.78125 L19.6875,16.25 L18.8125,15.28125 L15.3125,15.28125 L15.3125,17.8125 L22.21875,17.8125 C22.5625,17.8125 22.796875,17.921875 22.84375,18.1875 C22.03125,18.90625 20.734375,19.9375 20.734375,19.9375 L19.5625,18.484375 L1.15625,18.484375 L1.375,17.8125 L8.515625,17.8125 L8.515625,15.28125 L5.0625,15.28125 L3.359375,16.0625 L3.359375,8.78125 L3.59375,8.78125 C4.25,8.78125 4.890625,9.140625 4.890625,9.265625 L4.890625,14.59375 L8.515625,14.59375 L8.515625,9.484375 L8.765625,9.484375 C9.171875,9.484375 9.5,9.578125 9.71875,9.703125 C9.34375,9 8.78125,8.109375 8.15625,7.171875 Z M10.03125,17.8125 L13.78125,17.8125 L13.78125,15.28125 L10.03125,15.28125 Z M10.03125,11.28125 L10.03125,14.59375 L13.78125,14.59375 L13.78125,11.28125 Z M9.578125,6.484375 L15.75,6.484375 C15.125,4.921875 14.203125,3.671875 12.984375,2.640625 C11.421875,2.953125 9.578125,3.21875 7.421875,3.453125 C8.140625,4.421875 8.90625,5.5 9.578125,6.484375 Z" transform="translate(-0.2265625, 19.9375) scale(1, -1)"/>
</svg>