<svg height="21.90625" viewBox="0 0 24 21.90625" width="24" xmlns="http://www.w3.org/2000/svg">
<path d="M6.4375,13.34375 C5.40625,11.765625 3.28125,9.59375 1.296875,8.296875 L1.5625,7.9375 C3.890625,8.96875 6.1875,10.703125 7.46875,12.078125 C7.984375,11.953125 8.1875,12.046875 8.375,12.28125 Z M14.359375,4.375 C15,4.375 15.3125,4.484375 15.390625,4.703125 L13.984375,5.09375 L18.390625,5.09375 L18.390625,4.515625 L18.625,4.515625 C19.125,4.515625 19.875,4.875 19.890625,5.046875 L19.890625,8.734375 C20.28125,8.8125 20.640625,8.96875 20.78125,9.140625 L18.984375,10.515625 L18.171875,9.640625 L12.046875,9.640625 L11.15625,10.0625 L11.765625,10.828125 L21.671875,10.828125 C22.015625,10.828125 22.21875,10.9375 22.265625,11.203125 C21.640625,11.828125 20.765625,12.53125 20.59375,12.671875 C20.6875,12.671875 20.71875,12.703125 20.71875,12.71875 L20.71875,15.5 C21.140625,15.578125 21.5,15.765625 21.625,15.9375 L19.796875,17.296875 L18.984375,16.4375 L15.34375,16.4375 L15.34375,18 L22.21875,18 C22.5625,18 22.78125,18.125 22.84375,18.390625 C22.0625,19.078125 20.8125,20.015625 20.8125,20.015625 L19.703125,18.703125 L1.296875,18.703125 L1.515625,18 L8.765625,18 L8.765625,16.4375 L5.015625,16.4375 L3.359375,17.1875 L3.359375,12.03125 L3.578125,12.03125 C4.203125,12.03125 4.875,12.34375 4.875,12.484375 L4.875,15.75 L8.765625,15.75 L8.765625,12.703125 L8.96875,12.703125 C9.765625,12.703125 10.25,13.03125 10.25,13.125 L10.25,13.484375 L13.84375,13.484375 L13.84375,12.765625 L14.09375,12.765625 C14.859375,12.765625 15.34375,13.109375 15.34375,13.203125 L15.34375,15.75 L19.203125,15.75 L19.203125,12.265625 L19.4375,12.265625 C19.734375,12.265625 20.109375,12.390625 20.375,12.5 L19.578125,11.546875 L12.265625,11.546875 L12.84375,12.5 C13.46875,12.453125 13.625,12.546875 13.734375,12.8125 L11.421875,13.421875 C10.65625,11.328125 9.140625,8.78125 7.578125,7.3125 L7.875,7.078125 C8.765625,7.625 9.640625,8.40625 10.421875,9.21875 L10.421875,4.375 L10.65625,4.375 C11.25,4.375 11.921875,4.703125 11.921875,4.84375 L11.921875,5.09375 L13.0625,5.09375 C11.859375,3.625 9.625,1.84375 7.265625,0.796875 L7.515625,0.453125 C9.125,0.9375 10.609375,1.6875 11.90625,2.5 C12.5,1.78125 13.21875,1.171875 14.0625,0.640625 C12,-0.28125 9.546875,-0.953125 7.03125,-1.390625 L7.171875,-1.828125 C10.109375,-1.484375 12.84375,-0.890625 15.140625,0.046875 C17.0625,-0.890625 19.375,-1.484375 21.90625,-1.890625 C22.0625,-1.15625 22.46875,-0.671875 23.109375,-0.5 L23.109375,-0.265625 C20.828125,-0.125 18.578125,0.1875 16.625,0.71875 C17.78125,1.3125 18.765625,2.015625 19.609375,2.8125 C20.203125,2.828125 20.5,2.875 20.6875,3.078125 L19.109375,4.515625 L18.046875,3.640625 L13.515625,3.640625 Z M10.25,14.1875 L10.25,15.75 L13.84375,15.75 L13.84375,14.1875 Z M10.25,18 L13.84375,18 L13.84375,16.4375 L10.25,16.4375 Z M11.921875,5.78125 L11.921875,7.0625 L18.390625,7.0625 L18.390625,5.78125 Z M11.921875,7.734375 L11.921875,8.921875 L18.390625,8.921875 L18.390625,7.734375 Z M17.640625,2.921875 C16.9375,2.28125 16.125,1.703125 15.171875,1.203125 C14.0625,1.625 13.109375,2.140625 12.34375,2.78125 L12.546875,2.921875 Z M6.578125,10.0625 C5.46875,8.015625 3.234375,5.296875 0.9375,3.640625 L1.171875,3.34375 C2.375,3.9375 3.546875,4.75 4.578125,5.59375 L4.578125,-1.875 L4.875,-1.875 C5.46875,-1.875 6.078125,-1.53125 6.125,-1.390625 L6.125,6.359375 C6.5,6.4375 6.765625,6.578125 6.84375,6.796875 L6.171875,7.03125 C6.765625,7.625 7.296875,8.234375 7.703125,8.765625 C8.25,8.6875 8.453125,8.765625 8.609375,9 Z" transform="translate(-0.0234375, 20.015625) scale(1, -1)"/>
</svg>