<svg height="21.921875" viewBox="0 0 24 21.921875" width="24" xmlns="http://www.w3.org/2000/svg">
<path d="M6.28125,3.765625 L3.90625,3.765625 L3.90625,6.234375 L6.28125,6.234375 Z M7.6875,3.765625 L7.6875,6.234375 L10.15625,6.234375 L10.15625,3.765625 Z M2.515625,9.90625 L2.515625,6.9375 L0.765625,6.9375 L0.9375,6.234375 L2.515625,6.234375 L2.515625,3.765625 L0.71875,3.765625 L0.890625,3.078125 L2.515625,3.078125 L2.515625,-1.875 L2.734375,-1.875 C3.453125,-1.875 3.90625,-1.515625 3.90625,-1.375 L3.90625,3.078125 L10.15625,3.078125 L10.15625,0.625 C10.15625,0.28125 10.0625,0.171875 9.671875,0.171875 C9.234375,0.171875 7.25,0.3125 7.25,0.3125 L7.25,-0.078125 C8.140625,-0.1875 8.65625,-0.390625 8.953125,-0.625 C9.234375,-0.890625 9.34375,-1.3125 9.390625,-1.796875 C11.359375,-1.5625 11.5625,-0.796875 11.5625,0.40625 L11.5625,3.078125 L13.734375,3.078125 C14.0625,3.078125 14.28125,3.1875 14.328125,3.453125 C13.734375,4.109375 12.75,4.921875 12.75,4.921875 L11.859375,3.765625 L11.5625,3.765625 L11.5625,6.234375 L13.515625,6.234375 L13.609375,6.234375 L13.609375,4.890625 L13.828125,4.890625 C14.59375,4.890625 15.078125,5.25 15.078125,5.40625 L15.078125,6.046875 L15.484375,6.046875 C15.359375,2.5 14.5625,0.34375 11.296875,-1.484375 L11.453125,-1.875 C15.40625,-0.390625 16.75,1.890625 17.046875,6.046875 L18.3125,6.046875 L18.3125,-0.234375 C18.3125,-1.171875 18.53125,-1.5625 19.796875,-1.5625 L20.90625,-1.5625 C22.890625,-1.5625 23.421875,-1.21875 23.421875,-0.625 C23.421875,-0.359375 23.359375,-0.171875 22.9375,0.03125 L22.875,3.078125 L22.53125,3.078125 C22.3125,1.828125 22.078125,0.4375 21.953125,0.09375 C21.859375,-0.125 21.8125,-0.140625 21.671875,-0.171875 C21.53125,-0.171875 21.28125,-0.171875 20.921875,-0.171875 L20.15625,-0.171875 C19.796875,-0.171875 19.75,-0.125 19.75,0.140625 L19.75,6.046875 L20.328125,6.046875 L20.328125,5.40625 L20.5625,5.40625 C21.265625,5.40625 21.84375,5.765625 21.84375,5.859375 L21.84375,17.546875 C22.34375,17.609375 22.625,17.78125 22.796875,17.953125 L21.03125,19.34375 L20.234375,18.359375 L15.359375,18.359375 L13.609375,19.125 L13.609375,7.109375 L12.578125,8.046875 L11.765625,6.9375 L11.5625,6.9375 L11.5625,8.921875 C12.03125,9.03125 12.390625,9.21875 12.546875,9.40625 L10.65625,10.78125 L9.9375,9.90625 L7.6875,9.90625 L7.6875,11.5625 L12.75,11.5625 C13.078125,11.5625 13.296875,11.6875 13.375,11.953125 C12.71875,12.578125 11.71875,13.390625 11.71875,13.390625 L10.828125,12.265625 L9.9375,12.265625 L9.9375,14.359375 L12.265625,14.359375 C12.578125,14.359375 12.796875,14.46875 12.859375,14.734375 C12.265625,15.3125 11.328125,16.109375 11.328125,16.109375 L10.515625,15.046875 L9.9375,15.046875 L9.9375,16.75 L12.625,16.75 C12.9375,16.75 13.15625,16.875 13.21875,17.140625 C12.59375,17.765625 11.640625,18.578125 11.640625,18.578125 L10.75,17.453125 L9.9375,17.453125 L9.9375,19.203125 C10.46875,19.296875 10.65625,19.515625 10.703125,19.828125 L8.5,20.046875 L8.5,17.453125 L5.59375,17.453125 L5.59375,19.203125 C6.125,19.296875 6.3125,19.515625 6.359375,19.828125 L4.171875,20.046875 L4.171875,17.453125 L1.3125,17.453125 L1.515625,16.75 L4.171875,16.75 L4.171875,15.046875 L1.890625,15.046875 L2.09375,14.359375 L4.171875,14.359375 L4.171875,12.265625 L0.984375,12.265625 L1.171875,11.5625 L6.28125,11.5625 L6.28125,9.90625 L4.21875,9.90625 L2.515625,10.625 Z M6.28125,6.9375 L3.90625,6.9375 L3.90625,9.1875 L6.28125,9.1875 Z M7.6875,6.9375 L7.6875,9.1875 L10.15625,9.1875 L10.15625,6.9375 Z M15.078125,13.84375 L20.328125,13.84375 L20.328125,10.6875 L15.078125,10.6875 Z M15.078125,14.5625 L15.078125,17.6875 L20.328125,17.6875 L20.328125,14.5625 Z M15.078125,9.984375 L20.328125,9.984375 L20.328125,6.75 L15.078125,6.75 Z M5.59375,16.75 L8.5,16.75 L8.5,15.046875 L5.59375,15.046875 Z M5.59375,12.265625 L5.59375,14.359375 L8.5,14.359375 L8.5,12.265625 Z" transform="translate(-0.0703125, 20.046875) scale(1, -1)"/>
</svg>