<svg height="22.046875" viewBox="0 0 24 22.046875" width="24" xmlns="http://www.w3.org/2000/svg">
<path d="M7.390625,12.84375 C7.265625,12.078125 7.03125,10.96875 6.796875,10.171875 L5.0625,10.171875 L4.484375,10.421875 C5.203125,11.359375 5.859375,12.34375 6.40625,13.375 L12,13.375 C12.3125,13.375 12.546875,13.484375 12.625,13.734375 C11.875,14.421875 10.703125,15.359375 10.703125,15.359375 L9.703125,14.046875 L6.75,14.046875 C7.15625,14.90625 7.515625,15.8125 7.796875,16.734375 L11.375,16.734375 C11.734375,16.734375 11.953125,16.84375 12.03125,17.109375 C11.234375,17.859375 10.0625,18.75 10.0625,18.75 L9,17.453125 L4.578125,17.453125 C4.890625,17.921875 5.15625,18.4375 5.40625,18.953125 C5.90625,18.9375 6.171875,19.15625 6.265625,19.421875 L4.015625,20.15625 C3.53125,18.046875 2.609375,16.0625 1.609375,14.78125 L1.96875,14.515625 C2.734375,15.078125 3.484375,15.84375 4.109375,16.734375 L5.921875,16.734375 C5.734375,15.84375 5.453125,14.921875 5.09375,14.046875 L1.015625,14.046875 L1.203125,13.375 L4.796875,13.375 C3.765625,11.09375 2.328125,8.90625 0.578125,7.203125 L0.84375,6.890625 C1.734375,7.53125 2.546875,8.25 3.28125,9.046875 L3.28125,-1.46875 L3.53125,-1.46875 C4.265625,-1.46875 4.78125,-1.0625 4.78125,-0.9375 L4.78125,0.265625 L11.921875,0.265625 C12.234375,0.265625 12.484375,0.390625 12.546875,0.640625 C11.875,1.296875 10.75,2.1875 10.75,2.1875 L9.796875,0.953125 L8.375,0.953125 L8.375,3.4375 L11.40625,3.4375 C11.71875,3.4375 11.921875,3.546875 12,3.8125 C11.421875,4.390625 10.46875,5.15625 10.46875,5.15625 L9.671875,4.125 L8.375,4.125 L8.375,6.453125 L11.40625,6.453125 C11.71875,6.453125 11.921875,6.578125 12,6.84375 C11.421875,7.4375 10.46875,8.203125 10.46875,8.203125 L9.671875,7.171875 L8.375,7.171875 L8.375,9.484375 L11.5,9.484375 C11.828125,9.484375 12.046875,9.59375 12.09375,9.859375 C11.453125,10.46875 10.421875,11.28125 10.421875,11.28125 L9.53125,10.171875 L7.46875,10.171875 C7.96875,10.703125 8.421875,11.28125 8.78125,11.78125 C9.265625,11.765625 9.546875,11.96875 9.640625,12.234375 Z M4.78125,9.484375 L6.953125,9.484375 L6.953125,7.171875 L4.78125,7.171875 Z M4.78125,6.453125 L6.953125,6.453125 L6.953125,4.125 L4.78125,4.125 Z M4.78125,3.4375 L6.953125,3.4375 L6.953125,0.953125 L4.78125,0.953125 Z M14.5625,13.875 L19.921875,13.875 L19.921875,10.6875 L14.5625,10.6875 Z M14.5625,14.5625 L14.5625,17.71875 L19.921875,17.71875 L19.921875,14.5625 Z M14.5625,9.984375 L19.921875,9.984375 L19.921875,6.75 L14.5625,6.75 Z M13.078125,18.40625 L13.078125,4.703125 L13.3125,4.703125 C14.09375,4.703125 14.5625,5.09375 14.5625,5.203125 L14.5625,6.03125 L14.828125,6.03125 C14.515625,2.359375 13.203125,0.1875 9.3125,-1.515625 L9.453125,-1.890625 C14.09375,-0.546875 15.984375,1.6875 16.484375,6.03125 L17.6875,6.03125 L17.6875,-0.078125 C17.6875,-1.078125 17.90625,-1.46875 19.25,-1.46875 L20.546875,-1.46875 C22.75,-1.46875 23.296875,-1.109375 23.296875,-0.484375 C23.296875,-0.1875 23.25,0 22.796875,0.171875 L22.734375,3.21875 L22.421875,3.21875 C22.203125,1.9375 21.953125,0.59375 21.8125,0.234375 C21.71875,0.046875 21.640625,0 21.484375,-0.03125 C21.359375,-0.03125 21.03125,-0.03125 20.5625,-0.03125 L19.625,-0.03125 C19.203125,-0.03125 19.15625,0.03125 19.15625,0.3125 L19.15625,6.03125 L19.921875,6.03125 L19.921875,5.1875 L20.15625,5.1875 C20.875,5.1875 21.484375,5.5625 21.484375,5.65625 L21.484375,17.5625 C21.984375,17.640625 22.25,17.8125 22.4375,17.96875 L20.640625,19.390625 L19.828125,18.40625 L14.859375,18.40625 L13.078125,19.15625 Z" transform="translate(0.0625, 20.15625) scale(1, -1)"/>
</svg>