<svg height="21.984375" viewBox="0 0 24 21.984375" width="24" xmlns="http://www.w3.org/2000/svg">
<path d="M6.53125,12.953125 L11.609375,12.953125 L11.609375,9.40625 L6.53125,9.40625 Z M6.8125,13.65625 L5.6875,14.15625 C6.59375,15 7.46875,15.90625 8.203125,16.84375 L13.6875,16.84375 C13.203125,15.859375 12.453125,14.546875 11.8125,13.65625 Z M6.53125,8.71875 L11.609375,8.71875 L11.609375,5.015625 L6.21875,5.015625 C6.484375,6.234375 6.53125,7.484375 6.53125,8.65625 Z M8.234375,20.140625 C6.859375,16.96875 3.953125,13.421875 1.03125,11.375 L1.3125,11.09375 C2.59375,11.734375 3.8125,12.578125 4.96875,13.53125 L4.96875,8.640625 C4.96875,4.890625 4.375,1.3125 0.90625,-1.53125 L1.203125,-1.828125 C4.109375,-0.171875 5.453125,2.046875 6.046875,4.296875 L18.625,4.296875 L18.625,0.71875 C18.625,0.3125 18.5,0.140625 17.96875,0.140625 C17.40625,0.140625 14.375,0.390625 14.375,0.390625 L14.375,0 C15.671875,-0.171875 16.375,-0.390625 16.796875,-0.640625 C17.1875,-0.90625 17.359375,-1.3125 17.453125,-1.84375 C19.9375,-1.609375 20.203125,-0.75 20.203125,0.5 L20.203125,12.71875 C20.640625,12.796875 21,12.984375 21.140625,13.15625 L19.203125,14.609375 L18.40625,13.65625 L12.40625,13.65625 C13.5625,14.5 14.78125,15.796875 15.578125,16.65625 C16.0625,16.6875 16.34375,16.734375 16.53125,16.890625 L14.734375,18.546875 L13.734375,17.546875 L8.734375,17.546875 C9.125,18.078125 9.484375,18.59375 9.796875,19.125 C10.421875,19.0625 10.609375,19.15625 10.734375,19.390625 Z M18.625,12.953125 L18.625,9.40625 L13.125,9.40625 L13.125,12.953125 Z M18.625,8.71875 L18.625,5.015625 L13.125,5.015625 L13.125,8.71875 Z" transform="translate(0.9765625, 20.140625) scale(1, -1)"/>
</svg>