<svg height="22.0625" viewBox="0 0 24 22.0625" width="24" xmlns="http://www.w3.org/2000/svg">
<path d="M7.109375,16.984375 C6.796875,16.078125 6.3125,14.90625 5.828125,14.015625 L4.15625,14.015625 L3.234375,14.421875 C3.75,15.21875 4.21875,16.078125 4.65625,16.984375 Z M16.921875,3.8125 L16.65625,3.625 C16.984375,3.28125 17.375,2.828125 17.6875,2.328125 L15.859375,2.140625 L15.859375,4.609375 L17.734375,4.609375 L17.734375,3.890625 L17.921875,3.890625 C18.453125,3.890625 18.984375,4.171875 18.984375,4.265625 L18.984375,7.84375 C19.4375,7.921875 19.6875,8.046875 19.828125,8.203125 L18.28125,9.359375 L17.65625,8.609375 L15.859375,8.609375 L15.859375,9.90625 C16.390625,9.984375 16.578125,10.203125 16.625,10.46875 L14.640625,10.703125 L14.640625,8.609375 L13.125,8.609375 L11.953125,9.140625 C12.53125,9.75 13.109375,10.4375 13.578125,11.203125 L20.828125,11.203125 C20.71875,4.609375 20.515625,0.859375 19.875,0.21875 C19.65625,0 19.515625,-0.078125 19.078125,-0.078125 C18.59375,-0.078125 17.1875,0.046875 16.296875,0.140625 L16.265625,-0.28125 C17.0625,-0.40625 17.953125,-0.59375 18.234375,-0.84375 C18.546875,-1.078125 18.625,-1.484375 18.625,-1.890625 C19.5625,-1.890625 20.421875,-1.625 21,-0.984375 C21.890625,0.078125 22.15625,3.765625 22.265625,11.015625 C22.78125,11.0625 23.0625,11.203125 23.203125,11.40625 L21.4375,12.859375 L20.59375,11.90625 L14.015625,11.90625 C14.28125,12.34375 14.515625,12.8125 14.734375,13.296875 C15.265625,13.25 15.53125,13.4375 15.625,13.703125 L14.5625,14.109375 L20.46875,14.109375 L20.46875,13.25 L20.6875,13.25 C21.328125,13.25 21.890625,13.578125 21.890625,13.65625 L21.890625,17.96875 C22.3125,18.046875 22.5625,18.171875 22.734375,18.34375 L21.125,19.578125 L20.40625,18.75 L12.71875,18.75 L11.0625,19.46875 L11.0625,13.0625 L11.28125,13.0625 C12,13.0625 12.4375,13.390625 12.4375,13.515625 L12.4375,14.109375 L13.296875,14.109375 C12.5,11.71875 11.234375,9.578125 9.859375,8.109375 L9.859375,13.078125 C10.3125,13.15625 10.6875,13.34375 10.828125,13.53125 L8.953125,14.921875 L8.25,14.015625 L6.484375,14.015625 C7.296875,14.875 8.109375,16.078125 8.640625,16.828125 C9.078125,16.875 9.390625,16.890625 9.546875,17.0625 L7.9375,18.578125 L7.0625,17.6875 L4.96875,17.6875 L5.5,18.984375 C6,18.953125 6.265625,19.171875 6.359375,19.46875 L4.171875,20.140625 C3.4375,17.046875 2.140625,13.984375 0.8125,12.03125 L1.15625,11.8125 C1.609375,12.265625 2.0625,12.796875 2.5,13.375 L2.5,8.59375 C2.5,5.140625 2.453125,1.375 0.9375,-1.6875 L1.296875,-1.921875 C2.96875,0.125 3.578125,2.78125 3.765625,5.28125 L8.5,5.28125 L8.5,0.3125 C8.5,-0.078125 8.375,-0.21875 7.96875,-0.21875 C7.484375,-0.21875 5.421875,-0.03125 5.421875,-0.03125 L5.421875,-0.4375 C6.34375,-0.5 6.890625,-0.671875 7.203125,-0.90625 C7.484375,-1.15625 7.578125,-1.515625 7.65625,-1.921875 C9.625,-1.703125 9.859375,-0.984375 9.859375,0.140625 L9.859375,7.421875 C10.46875,7.828125 11.0625,8.28125 11.609375,8.8125 L11.609375,3.625 L11.78125,3.625 C12.40625,3.625 12.84375,3.9375 12.84375,4.0625 L12.84375,4.609375 L14.640625,4.609375 L14.640625,2.015625 C12.9375,1.828125 11.5,1.703125 10.6875,1.65625 L11.5,-0.09375 C11.71875,-0.046875 11.921875,0.09375 12.046875,0.40625 C14.5625,0.984375 16.515625,1.484375 17.953125,1.875 C18.140625,1.515625 18.28125,1.15625 18.34375,0.84375 C19.53125,-0.125 20.65625,2.375 16.921875,3.8125 Z M3.859375,13.3125 L5.5,13.3125 L5.5,10.125 L3.859375,10.125 Z M3.859375,9.40625 L5.5,9.40625 L5.5,5.96875 L3.8125,5.96875 C3.859375,6.890625 3.859375,7.78125 3.859375,8.59375 Z M8.5,13.3125 L8.5,10.125 L6.765625,10.125 L6.765625,13.3125 Z M8.5,9.40625 L8.5,5.96875 L6.765625,5.96875 L6.765625,9.40625 Z M12.4375,14.8125 L12.4375,18.046875 L14.28125,18.046875 L14.28125,14.8125 Z M20.46875,14.8125 L18.578125,14.8125 L18.578125,18.046875 L20.46875,18.046875 Z M15.484375,14.8125 L15.484375,18.046875 L17.375,18.046875 L17.375,14.8125 Z M12.84375,5.328125 L12.84375,7.921875 L14.640625,7.921875 L14.640625,5.328125 Z M17.734375,5.328125 L15.859375,5.328125 L15.859375,7.921875 L17.734375,7.921875 Z" transform="translate(-0.0078125, 20.140625) scale(1, -1)"/>
</svg>