<svg height="21.671875" viewBox="0 0 24 21.671875" width="24" xmlns="http://www.w3.org/2000/svg">
<path d="M4.921875,18.4375 L5.109375,17.734375 L18.640625,17.734375 C18.984375,17.734375 19.21875,17.859375 19.296875,18.125 C18.484375,18.84375 17.203125,19.796875 17.203125,19.796875 L16.078125,18.4375 Z M4.96875,11.96875 L5.15625,11.28125 L18.703125,11.28125 C19.03125,11.28125 19.265625,11.40625 19.3125,11.65625 C18.53125,12.359375 17.25,13.3125 17.25,13.3125 L16.171875,11.96875 Z M4.96875,8.71875 L5.15625,7.984375 L18.71875,7.984375 C19.0625,7.984375 19.296875,8.109375 19.34375,8.375 C18.578125,9.09375 17.296875,10.0625 17.296875,10.0625 L16.203125,8.71875 Z M1.171875,15.234375 L1.390625,14.546875 L22.171875,14.546875 C22.53125,14.546875 22.75,14.65625 22.828125,14.921875 C22.015625,15.671875 20.6875,16.6875 20.6875,16.6875 L19.53125,15.234375 Z M17.25,4.828125 L17.25,0.578125 L6.75,0.578125 L6.75,4.828125 Z M5.15625,5.515625 L5.15625,-1.875 L5.40625,-1.875 C6.046875,-1.875 6.75,-1.515625 6.75,-1.34375 L6.75,-0.140625 L17.25,-0.140625 L17.25,-1.625 L17.5,-1.625 C18.03125,-1.625 18.8125,-1.296875 18.84375,-1.15625 L18.84375,4.53125 C19.265625,4.625 19.65625,4.828125 19.796875,5.015625 L17.875,6.453125 L17.015625,5.515625 L6.859375,5.515625 L5.15625,6.265625 Z" transform="translate(0, 19.796875) scale(1, -1)"/>
</svg>