<svg height="23.015625" viewBox="0 0 24 23.015625" width="24" xmlns="http://www.w3.org/2000/svg">
<path d="M12.8125,17.5 C12.265625,14.25 11.1875,11.0625 9.9375,8.921875 L10.296875,8.6875 C12,10.53125 13.375,13.375 14.25,16.390625 C14.78125,16.390625 15.046875,16.609375 15.140625,16.890625 Z M2.109375,18.484375 L2.296875,17.78125 L9.171875,17.78125 C9.484375,17.78125 9.71875,17.90625 9.765625,18.171875 C9.046875,18.84375 7.875,19.796875 7.875,19.796875 L6.859375,18.484375 Z M1.984375,12.40625 L2.1875,11.71875 L8.96875,11.71875 C9.3125,11.71875 9.53125,11.828125 9.59375,12.078125 C8.921875,12.71875 7.84375,13.609375 7.84375,13.609375 L6.90625,12.40625 Z M1.984375,9.359375 L2.1875,8.65625 L8.953125,8.65625 C9.28125,8.65625 9.5,8.78125 9.546875,9.03125 C8.90625,9.703125 7.78125,10.5625 7.78125,10.5625 L6.8125,9.359375 Z M0.90625,15.453125 L1.109375,14.765625 L10.34375,14.765625 C10.65625,14.765625 10.890625,14.875 10.96875,15.140625 C10.25,15.8125 9.046875,16.75 9.046875,16.75 L8.015625,15.453125 Z M18.265625,6.359375 L17.921875,6.21875 C18.71875,5.0625 19.609375,3.53125 20.28125,1.984375 C17.765625,1.6875 15.34375,1.421875 13.375,1.21875 C14.8125,4.296875 16.125,8.140625 16.828125,10.3125 C17.359375,10.3125 17.609375,10.625 17.65625,10.890625 L15.125,11.5625 C14.765625,9.171875 13.75,4.515625 12.8125,1.15625 L9.9375,0.90625 L10.890625,-1.125 C11.109375,-1.0625 11.359375,-0.890625 11.46875,-0.625 C15.40625,0.265625 18.3125,0.984375 20.46875,1.515625 C20.875,0.546875 21.140625,-0.40625 21.234375,-1.25 C23.046875,-2.859375 24.359375,1.65625 18.265625,6.359375 Z M7.703125,5.5625 L7.703125,0.984375 L3.578125,0.984375 L3.578125,5.5625 Z M2.109375,6.265625 L2.109375,-1.84375 L2.328125,-1.84375 C2.953125,-1.84375 3.578125,-1.484375 3.578125,-1.34375 L3.578125,0.28125 L7.703125,0.28125 L7.703125,-1.109375 L7.921875,-1.109375 C8.453125,-1.109375 9.171875,-0.765625 9.1875,-0.59375 L9.1875,5.296875 C9.671875,5.375 10.0625,5.5625 10.203125,5.765625 L8.328125,7.203125 L7.46875,6.265625 L3.703125,6.265625 L2.109375,7.015625 Z M14.46875,19.0625 L14.6875,18.359375 L18.125,18.359375 C18.671875,14.71875 19.9375,11.375 22.0625,9 C22.265625,9.59375 22.875,10.109375 23.5,10.21875 L23.5625,10.515625 C21.265625,12.359375 19.515625,15.359375 18.75,18.21875 C19.515625,18.265625 20.09375,18.4375 20.375,18.75 L18.3125,20.15625 L17.59375,19.0625 Z" transform="translate(-0.6328125, 20.15625) scale(1, -1)"/>
</svg>