<svg height="21.71875" viewBox="0 0 24 21.71875" width="24" xmlns="http://www.w3.org/2000/svg">
<path d="M2.109375,18.5 L2.296875,17.8125 L8.921875,17.8125 C9.265625,17.8125 9.5,17.921875 9.578125,18.1875 C8.828125,18.859375 7.6875,19.828125 7.6875,19.828125 L6.671875,18.5 Z M2.015625,12.4375 L2.203125,11.734375 L8.8125,11.734375 C9.09375,11.734375 9.359375,11.859375 9.40625,12.09375 C8.765625,12.75 7.65625,13.625 7.65625,13.625 L6.71875,12.4375 Z M2.015625,9.390625 L2.203125,8.6875 L8.78125,8.6875 C9.09375,8.6875 9.3125,8.8125 9.390625,9.046875 C8.6875,9.71875 7.578125,10.578125 7.578125,10.578125 L6.625,9.390625 Z M0.859375,15.484375 L1.0625,14.78125 L10.015625,14.78125 C10.34375,14.78125 10.53125,14.90625 10.609375,15.171875 C9.890625,15.84375 8.734375,16.78125 8.734375,16.78125 L7.6875,15.484375 Z M12.75,16.15625 C12.546875,14.296875 11.6875,10.078125 11.09375,8.28125 C11.765625,8.0625 12.390625,8.109375 12.71875,8.328125 L13.21875,10.375 L17.296875,10.375 C15.53125,7.0625 12.546875,3.625 9.171875,1.3125 L9.4375,0.953125 C13.03125,2.875 16.125,5.59375 18.265625,8.6875 L18.265625,0.640625 C18.265625,0.265625 18.125,0.09375 17.640625,0.09375 C17.0625,0.09375 14.234375,0.3125 14.234375,0.3125 L14.234375,-0.046875 C15.484375,-0.1875 16.171875,-0.40625 16.578125,-0.703125 C16.921875,-0.953125 17.109375,-1.390625 17.15625,-1.890625 C19.53125,-1.65625 19.84375,-0.703125 19.84375,0.578125 L19.84375,10.375 L22.75,10.375 C23.0625,10.375 23.28125,10.46875 23.359375,10.734375 C22.6875,11.46875 21.5,12.546875 21.5,12.546875 L20.453125,11.046875 L19.84375,11.046875 L19.84375,17.5625 L22.390625,17.5625 C22.734375,17.5625 22.96875,17.6875 23.046875,17.953125 C22.25,18.671875 20.96875,19.6875 20.96875,19.6875 L19.875,18.265625 L10.65625,18.265625 L10.84375,17.5625 L18.265625,17.5625 L18.265625,11.046875 L13.375,11.046875 C13.734375,12.625 14.046875,14.28125 14.203125,15.21875 C14.8125,15.28125 15.046875,15.53125 15.09375,15.84375 Z M7.421875,5.640625 L7.421875,0.703125 L3.5,0.703125 L3.5,5.640625 Z M2.046875,6.34375 L2.046875,-1.828125 L2.28125,-1.828125 C2.875,-1.828125 3.5,-1.484375 3.5,-1.3125 L3.5,0 L7.421875,0 L7.421875,-1.421875 L7.625,-1.421875 C8.140625,-1.421875 8.875,-1.0625 8.90625,-0.90625 L8.90625,5.375 C9.359375,5.46875 9.75,5.640625 9.90625,5.828125 L8.046875,7.265625 L7.171875,6.34375 L3.625,6.34375 L2.046875,7.078125 Z" transform="translate(-0.109375, 19.828125) scale(1, -1)"/>
</svg>