<svg height="21.71875" viewBox="0 0 24 21.71875" width="24" xmlns="http://www.w3.org/2000/svg">
<path d="M1.9375,18.5 L2.140625,17.8125 L8.953125,17.8125 C9.265625,17.8125 9.5,17.921875 9.578125,18.1875 C8.828125,18.859375 7.6875,19.828125 7.6875,19.828125 L6.671875,18.5 Z M1.84375,12.4375 L2.046875,11.734375 L8.78125,11.734375 C9.09375,11.734375 9.34375,11.859375 9.40625,12.09375 C8.734375,12.75 7.625,13.625 7.625,13.625 L6.71875,12.4375 Z M1.84375,9.390625 L2.046875,8.6875 L8.765625,8.6875 C9.09375,8.6875 9.3125,8.8125 9.359375,9.046875 C8.6875,9.71875 7.578125,10.578125 7.578125,10.578125 L6.625,9.390625 Z M0.8125,15.484375 L0.984375,14.78125 L10.109375,14.78125 C10.4375,14.78125 10.625,14.90625 10.703125,15.171875 C10.015625,15.84375 8.8125,16.78125 8.8125,16.78125 L7.78125,15.484375 Z M12.28125,18.234375 L12.28125,10.796875 L9.890625,10.796875 L10.078125,10.109375 L17.375,10.109375 C15.640625,6.84375 12.75,3.484375 9.40625,1.171875 L9.703125,0.84375 C13.265625,2.734375 16.3125,5.453125 18.4375,8.546875 L18.4375,0.640625 C18.4375,0.265625 18.3125,0.09375 17.828125,0.09375 C17.25,0.09375 14.421875,0.3125 14.421875,0.3125 L14.421875,-0.046875 C15.640625,-0.1875 16.34375,-0.40625 16.75,-0.703125 C17.109375,-0.953125 17.296875,-1.390625 17.328125,-1.890625 C19.734375,-1.65625 20.046875,-0.703125 20.046875,0.578125 L20.046875,10.109375 L22.734375,10.109375 C23.0625,10.109375 23.25,10.21875 23.328125,10.46875 C22.65625,11.203125 21.453125,12.234375 21.453125,12.234375 L20.421875,10.796875 L20.046875,10.796875 L20.046875,17.515625 L22.109375,17.515625 C22.4375,17.515625 22.6875,17.640625 22.75,17.90625 C21.984375,18.625 20.765625,19.609375 20.765625,19.609375 L19.65625,18.234375 L14.0625,18.234375 L12.28125,18.984375 Z M18.4375,10.796875 L13.796875,10.796875 L13.796875,17.515625 L18.4375,17.515625 Z M7.484375,5.640625 L7.484375,0.75 L3.40625,0.75 L3.40625,5.640625 Z M1.9375,6.34375 L1.9375,-1.828125 L2.15625,-1.828125 C2.78125,-1.828125 3.40625,-1.484375 3.40625,-1.34375 L3.40625,0.046875 L7.484375,0.046875 L7.484375,-1.515625 L7.703125,-1.515625 C8.203125,-1.515625 8.921875,-1.15625 8.953125,-0.984375 L8.953125,5.375 C9.4375,5.453125 9.8125,5.640625 9.953125,5.8125 L8.09375,7.265625 L7.25,6.34375 L3.53125,6.34375 L1.9375,7.0625 Z" transform="translate(-0.0703125, 19.828125) scale(1, -1)"/>
</svg>