<svg height="22.609375" viewBox="0 0 24 22.609375" width="24" xmlns="http://www.w3.org/2000/svg">
<path d="M13.703125,19.703125 C12.984375,15.90625 11.515625,12.234375 9.890625,9.890625 L10.25,9.640625 C12.34375,11.734375 14.09375,14.921875 15.140625,18.484375 C15.640625,18.4375 15.9375,18.640625 16.03125,18.90625 Z M2.015625,18.484375 L2.203125,17.78125 L9.046875,17.78125 C9.359375,17.78125 9.59375,17.90625 9.640625,18.171875 C8.921875,18.84375 7.75,19.796875 7.75,19.796875 L6.75,18.484375 Z M1.921875,12.40625 L2.109375,11.71875 L8.875,11.71875 C9.1875,11.71875 9.40625,11.828125 9.484375,12.078125 C8.8125,12.71875 7.703125,13.609375 7.703125,13.609375 L6.796875,12.40625 Z M1.921875,9.359375 L2.109375,8.65625 L8.859375,8.65625 C9.171875,8.65625 9.390625,8.78125 9.4375,9.03125 C8.78125,9.703125 7.65625,10.5625 7.65625,10.5625 L6.703125,9.359375 Z M0.90625,15.453125 L1.109375,14.765625 L10.296875,14.765625 C10.625,14.765625 10.84375,14.875 10.921875,15.140625 C10.203125,15.8125 9,16.75 9,16.75 L7.96875,15.453125 Z M18.40625,19.828125 L17.953125,19.578125 C18.59375,16.03125 20.015625,12.234375 21.953125,9.90625 C22.125,10.609375 22.625,11.140625 23.359375,11.40625 L23.421875,11.6875 C21.328125,13.484375 19.203125,16.625 18.40625,19.828125 Z M15.046875,11.6875 C14.65625,8.546875 13.75,4.421875 12.75,1.203125 L9.8125,0.953125 L10.78125,-1.078125 C10.984375,-1.015625 11.234375,-0.859375 11.359375,-0.546875 C15.34375,0.28125 18.34375,0.953125 20.5625,1.53125 C20.953125,0.59375 21.21875,-0.34375 21.3125,-1.171875 C23.109375,-2.78125 24.40625,1.703125 18.359375,6.5 L18.046875,6.34375 C18.8125,5.140625 19.703125,3.59375 20.375,2.046875 L13.4375,1.265625 C14.921875,4.21875 16.171875,7.828125 16.84375,10.484375 C17.375,10.484375 17.640625,10.734375 17.734375,11.015625 Z M7.609375,5.5625 L7.609375,0.984375 L3.5,0.984375 L3.5,5.5625 Z M2.046875,6.265625 L2.046875,-1.84375 L2.25,-1.84375 C2.875,-1.84375 3.5,-1.484375 3.5,-1.34375 L3.5,0.28125 L7.609375,0.28125 L7.609375,-1.296875 L7.828125,-1.296875 C8.328125,-1.296875 9.046875,-0.90625 9.078125,-0.75 L9.078125,5.296875 C9.546875,5.40625 9.9375,5.5625 10.109375,5.765625 L8.203125,7.203125 L7.375,6.265625 L3.625,6.265625 L2.046875,7.015625 Z" transform="translate(-0.65625, 19.828125) scale(1, -1)"/>
</svg>