<svg height="21.625" viewBox="0 0 24 21.625" width="24" xmlns="http://www.w3.org/2000/svg">
<path d="M18.125,15.953125 L17.78125,15.8125 C18.84375,14.234375 20.28125,11.734375 20.609375,9.9375 C22.21875,8.59375 23.453125,12.234375 18.125,15.953125 Z M1.9375,18.453125 L2.140625,17.78125 L8.5,17.78125 C8.828125,17.78125 9.03125,17.90625 9.09375,18.171875 C8.40625,18.84375 7.21875,19.75 7.21875,19.75 L6.21875,18.453125 Z M2.015625,12.40625 L2.203125,11.71875 L8.65625,11.71875 C8.96875,11.71875 9.1875,11.828125 9.234375,12.078125 C8.59375,12.71875 7.53125,13.578125 7.53125,13.578125 L6.578125,12.40625 Z M2.015625,9.34375 L2.203125,8.640625 L8.65625,8.640625 C8.96875,8.640625 9.1875,8.765625 9.234375,9 C8.59375,9.671875 7.53125,10.53125 7.53125,10.53125 L6.578125,9.34375 Z M0.859375,15.453125 L1.0625,14.765625 L9.84375,14.765625 C10.15625,14.765625 10.390625,14.875 10.4375,15.140625 C9.71875,15.8125 8.546875,16.75 8.546875,16.75 L7.515625,15.453125 Z M12.21875,16.203125 C11.828125,14.25 11.015625,11.40625 9.9375,9.40625 L10.21875,9.09375 C11.71875,10.875 13.03125,13.296875 13.703125,15 C14.109375,14.953125 14.40625,15 14.5,15.234375 Z M9.234375,7.6875 L9.4375,6.984375 L15.1875,6.984375 L15.1875,-1.875 L15.4375,-1.875 C16.21875,-1.875 16.734375,-1.46875 16.75,-1.34375 L16.75,6.984375 L22.75,6.984375 C23.09375,6.984375 23.28125,7.109375 23.359375,7.34375 C22.5625,8.09375 21.28125,9.09375 21.28125,9.09375 L20.15625,7.6875 L16.75,7.6875 L16.75,17.546875 L21.75,17.546875 C22.109375,17.546875 22.3125,17.65625 22.390625,17.921875 C21.59375,18.640625 20.375,19.625 20.375,19.625 L19.25,18.265625 L10.125,18.265625 L10.3125,17.546875 L15.1875,17.546875 L15.1875,7.6875 Z M7.171875,5.546875 L7.171875,1.015625 L3.53125,1.015625 L3.53125,5.546875 Z M2.0625,6.234375 L2.0625,-1.875 L2.28125,-1.875 C2.875,-1.875 3.53125,-1.515625 3.53125,-1.375 L3.53125,0.3125 L7.171875,0.3125 L7.171875,-0.953125 L7.421875,-0.953125 C7.890625,-0.953125 8.640625,-0.59375 8.65625,-0.453125 L8.65625,5.28125 C9.125,5.375 9.5,5.5625 9.671875,5.734375 L7.796875,7.171875 L6.953125,6.234375 L3.640625,6.234375 L2.0625,6.984375 Z" transform="translate(-0.15625, 19.75) scale(1, -1)"/>
</svg>