<svg height="21.609375" viewBox="0 0 24 21.609375" width="24" xmlns="http://www.w3.org/2000/svg">
<path d="M13.515625,8.859375 L13.3125,8.609375 C14.71875,7.984375 16.4375,6.703125 17.046875,5.546875 C18.8125,4.828125 19.15625,8.5 13.515625,8.859375 Z M19.734375,6.453125 L19.4375,6.28125 C20.46875,4.890625 21.578125,2.640625 21.53125,0.84375 C23.140625,-0.71875 24.84375,3.34375 19.734375,6.453125 Z M13.15625,6.75 L13.15625,-0.03125 C13.15625,-1.078125 13.4375,-1.4375 15.046875,-1.4375 L17.046875,-1.4375 C20.0625,-1.4375 20.734375,-1.171875 20.734375,-0.5 C20.734375,-0.21875 20.609375,-0.078125 20.140625,0.09375 L20.0625,2.453125 L19.75,2.453125 C19.5625,1.4375 19.34375,0.4375 19.171875,0.140625 C19.078125,-0.03125 18.984375,-0.078125 18.796875,-0.078125 C18.53125,-0.09375 17.90625,-0.09375 17.109375,-0.09375 L15.34375,-0.09375 C14.65625,-0.09375 14.5625,0 14.5625,0.3125 L14.5625,5.90625 C15,5.96875 15.234375,6.1875 15.265625,6.5 Z M11.203125,5.96875 C11.28125,4.375 10.53125,2.734375 9.71875,2.09375 C9.265625,1.734375 9.03125,1.21875 9.28125,0.8125 C9.625,0.28125 10.46875,0.484375 10.921875,0.953125 C11.640625,1.734375 12.28125,3.484375 11.640625,5.96875 Z M1.84375,18.453125 L2.046875,17.765625 L8.40625,17.765625 C8.734375,17.765625 8.953125,17.875 9.03125,18.140625 C8.296875,18.8125 7.15625,19.734375 7.15625,19.734375 L6.125,18.453125 Z M1.921875,12.390625 L2.109375,11.6875 L8.5625,11.6875 C8.90625,11.6875 9.125,11.8125 9.171875,12.046875 C8.515625,12.71875 7.4375,13.578125 7.4375,13.578125 L6.5,12.390625 Z M1.921875,9.3125 L2.109375,8.609375 L8.5625,8.609375 C8.90625,8.609375 9.125,8.734375 9.171875,9 C8.515625,9.640625 7.4375,10.515625 7.4375,10.515625 L6.5,9.3125 Z M0.8125,15.4375 L0.984375,14.734375 L9.75,14.734375 C10.078125,14.734375 10.3125,14.859375 10.375,15.125 C9.625,15.796875 8.453125,16.75 8.453125,16.75 L7.4375,15.4375 Z M11.015625,16.078125 L10.828125,15.75 C11.765625,15.453125 12.84375,14.96875 13.84375,14.40625 C13.15625,12.1875 11.921875,10.3125 9.765625,8.8125 L10.015625,8.421875 C12.671875,9.71875 14.1875,11.5 15.140625,13.625 C15.90625,13.109375 16.609375,12.546875 17.046875,12 C18.5,11.65625 18.625,13.65625 15.640625,15 C15.9375,15.9375 16.171875,16.921875 16.375,17.96875 L20.5625,17.96875 C20.453125,13.6875 20.15625,11.328125 19.65625,10.84375 C19.515625,10.6875 19.3125,10.625 18.9375,10.625 C18.484375,10.625 17.1875,10.703125 16.4375,10.78125 L16.421875,10.390625 C17.109375,10.265625 17.875,10.0625 18.171875,9.84375 C18.4375,9.59375 18.5,9.1875 18.5,8.734375 C19.375,8.734375 20.140625,8.96875 20.6875,9.5 C21.578125,10.3125 21.9375,12.8125 22.078125,17.78125 C22.5625,17.875 22.84375,17.96875 23.015625,18.171875 L21.21875,19.609375 L20.359375,18.671875 L10.625,18.671875 L10.84375,17.96875 L14.609375,17.96875 C14.515625,17.140625 14.375,16.3125 14.1875,15.53125 C13.296875,15.796875 12.265625,15.984375 11.015625,16.078125 Z M7.109375,5.546875 L7.109375,0.984375 L3.4375,0.984375 L3.4375,5.546875 Z M1.96875,6.21875 L1.96875,-1.875 L2.203125,-1.875 C2.8125,-1.875 3.4375,-1.53125 3.4375,-1.390625 L3.4375,0.28125 L7.109375,0.28125 L7.109375,-0.953125 L7.3125,-0.953125 C7.828125,-0.953125 8.5625,-0.625 8.59375,-0.484375 L8.59375,5.25 C9.046875,5.359375 9.4375,5.546875 9.578125,5.71875 L7.703125,7.15625 L6.890625,6.21875 L3.546875,6.21875 L1.96875,6.953125 Z" transform="translate(-0.828125, 19.734375) scale(1, -1)"/>
</svg>