<svg height="21.671875" viewBox="0 0 24 21.671875" width="24" xmlns="http://www.w3.org/2000/svg">
<path d="M1.796875,18.53125 L1.984375,17.859375 L7.6875,17.859375 C7.984375,17.859375 8.234375,17.96875 8.28125,18.234375 C7.578125,18.90625 6.4375,19.828125 6.4375,19.828125 L5.453125,18.53125 Z M1.796875,12.484375 L1.984375,11.78125 L7.609375,11.78125 C7.9375,11.78125 8.15625,11.90625 8.234375,12.140625 C7.5625,12.796875 6.53125,13.625 6.53125,13.625 L5.59375,12.484375 Z M1.796875,9.40625 L1.984375,8.71875 L7.609375,8.71875 C7.9375,8.71875 8.15625,8.828125 8.234375,9.09375 C7.5625,9.71875 6.53125,10.5625 6.53125,10.5625 L5.59375,9.40625 Z M0.84375,15.53125 L1.03125,14.828125 L8.546875,14.828125 C8.859375,14.828125 9.09375,14.953125 9.140625,15.1875 C8.421875,15.890625 7.265625,16.828125 7.265625,16.828125 L6.265625,15.53125 Z M10.390625,7.703125 L10.78125,8.71875 L9.90625,8.78125 L9.90625,7.75 C9.5,6.984375 8.6875,5.78125 8.234375,5.15625 L9.703125,4.265625 C9.796875,4.421875 9.796875,4.625 9.59375,4.796875 C9.765625,5.28125 9.984375,6 10.15625,6.671875 C10.421875,5.515625 10.703125,4.53125 11.0625,3.671875 C10.421875,1.703125 9.359375,-0.078125 7.734375,-1.515625 L7.984375,-1.84375 C9.71875,-0.703125 10.890625,0.75 11.734375,2.328125 C13.265625,-0.3125 15.578125,-1.0625 18.953125,-1.0625 C19.828125,-1.0625 21.625,-1.0625 22.421875,-1.0625 C22.4375,-0.40625 22.734375,0.078125 23.28125,0.1875 L23.28125,0.5 C22.171875,0.484375 20.09375,0.484375 19.109375,0.484375 C15.90625,0.484375 13.703125,1.0625 12.171875,3.265625 C13.078125,5.453125 13.4375,7.875 13.65625,10.265625 C14.140625,10.3125 14.375,10.390625 14.546875,10.578125 L12.859375,12.046875 L11.96875,11.140625 L10.828125,11.140625 C11.5,13.15625 12.21875,15.390625 12.59375,16.734375 C13.109375,16.75 13.53125,16.890625 13.703125,17.0625 L11.953125,18.546875 L11.15625,17.6875 L8.71875,17.6875 L8.90625,16.984375 L11.203125,16.984375 C10.625,14.90625 9.703125,11.859375 8.8125,9.53125 C9.453125,9.34375 9.890625,9.34375 10.25,9.453125 L10.578125,10.4375 L12.1875,10.4375 C12.078125,8.453125 11.859375,6.484375 11.359375,4.65625 C10.984375,5.453125 10.65625,6.40625 10.375,7.5625 Z M14.828125,13.875 L14.828125,3.984375 C14.828125,2.875 15.171875,2.515625 16.84375,2.515625 L19.0625,2.515625 C22.375,2.515625 23.09375,2.71875 23.09375,3.359375 C23.09375,3.640625 22.875,3.765625 22.375,3.9375 L22.265625,3.953125 L22.03125,3.953125 C21.859375,3.90625 21.703125,3.84375 21.546875,3.84375 C21.40625,3.8125 21.3125,3.8125 21.125,3.796875 L19.296875,3.765625 L19.296875,10.34375 L22.25,10.34375 C22.578125,10.34375 22.828125,10.46875 22.875,10.734375 C22.171875,11.453125 21.03125,12.390625 21.03125,12.390625 L19.984375,11.046875 L19.296875,11.046875 L19.296875,17.421875 C20.203125,17.65625 21.046875,17.90625 21.71875,18.140625 C22.265625,17.953125 22.703125,17.96875 22.890625,18.171875 L21.078125,19.703125 C19.515625,18.75 16.390625,17.421875 13.828125,16.75 L13.96875,16.375 C15.21875,16.515625 16.578125,16.78125 17.859375,17.0625 L17.859375,3.765625 L17.09375,3.765625 C16.265625,3.765625 16.171875,3.90625 16.171875,4.3125 L16.171875,13.03125 C16.65625,13.109375 16.875,13.34375 16.921875,13.609375 Z M6.21875,5.609375 L6.21875,1.078125 L3.3125,1.078125 L3.3125,5.609375 Z M1.875,6.3125 L1.875,-1.78125 L2.09375,-1.78125 C2.6875,-1.78125 3.3125,-1.4375 3.3125,-1.296875 L3.3125,0.390625 L6.21875,0.390625 L6.21875,-0.9375 L6.4375,-0.9375 C6.9375,-0.9375 7.625,-0.59375 7.65625,-0.4375 L7.65625,5.375 C8.140625,5.46875 8.5,5.640625 8.65625,5.8125 L6.8125,7.21875 L6,6.3125 L3.4375,6.3125 L1.875,7.03125 Z" transform="translate(-0.0625, 19.828125) scale(1, -1)"/>
</svg>