<svg height="21.703125" viewBox="0 0 24 21.703125" width="24" xmlns="http://www.w3.org/2000/svg">
<path d="M1.828125,18.53125 L2.015625,17.859375 L7.703125,17.859375 C8.015625,17.859375 8.25,17.96875 8.296875,18.234375 C7.609375,18.90625 6.484375,19.828125 6.484375,19.828125 L5.46875,18.53125 Z M1.828125,12.484375 L2.015625,11.78125 L7.625,11.78125 C7.96875,11.78125 8.203125,11.90625 8.28125,12.140625 C7.609375,12.796875 6.546875,13.625 6.546875,13.625 L5.640625,12.484375 Z M1.828125,9.40625 L2.015625,8.71875 L7.625,8.71875 C7.96875,8.71875 8.203125,8.828125 8.28125,9.09375 C7.609375,9.71875 6.546875,10.5625 6.546875,10.5625 L5.640625,9.40625 Z M0.859375,15.53125 L1.0625,14.828125 L8.59375,14.828125 C8.875,14.828125 9.125,14.953125 9.171875,15.1875 C8.46875,15.890625 7.296875,16.828125 7.296875,16.828125 L6.3125,15.53125 Z M20.875,19.703125 C19.296875,18.71875 16.078125,17.453125 13.484375,16.75 L13.609375,16.375 C14.90625,16.515625 16.25,16.78125 17.546875,17.0625 L17.546875,3.078125 L15.859375,3.078125 L15.859375,13.15625 C16.390625,13.25 16.609375,13.484375 16.6875,13.78125 L14.515625,14.046875 L14.515625,3.078125 L12.859375,3.078125 L13.0625,2.375 L22.609375,2.375 C22.9375,2.375 23.140625,2.5 23.203125,2.734375 C22.515625,3.453125 21.3125,4.4375 21.3125,4.4375 L20.28125,3.078125 L18.953125,3.078125 L18.953125,10.34375 L22.125,10.34375 C22.4375,10.34375 22.6875,10.4375 22.75,10.703125 C22.03125,11.421875 20.90625,12.390625 20.90625,12.390625 L19.890625,11.046875 L18.953125,11.046875 L18.953125,17.40625 C19.921875,17.640625 20.8125,17.90625 21.53125,18.140625 C22.078125,17.953125 22.484375,17.921875 22.703125,18.140625 Z M9.21875,7.796875 L8.859375,7.609375 C9.28125,5.78125 9.8125,4.3125 10.46875,3.140625 C9.796875,1.390625 8.8125,-0.1875 7.3125,-1.515625 L7.5625,-1.875 C9.1875,-0.765625 10.34375,0.546875 11.15625,2.046875 C13.03125,-0.5 15.75,-1.265625 19.65625,-1.265625 C20.28125,-1.265625 21.625,-1.265625 22.25,-1.265625 C22.265625,-0.640625 22.5625,-0.140625 23.109375,-0.078125 L23.109375,0.28125 C22.203125,0.265625 20.59375,0.265625 19.828125,0.265625 C16.109375,0.265625 13.484375,0.859375 11.609375,2.953125 C12.640625,5.234375 13.03125,7.796875 13.265625,10.3125 C13.734375,10.375 13.96875,10.4375 14.140625,10.625 L12.4375,12.125 L11.59375,11.1875 L10.609375,11.1875 C11.28125,13.203125 12,15.4375 12.359375,16.78125 C12.859375,16.828125 13.296875,16.9375 13.46875,17.109375 L11.71875,18.59375 L10.921875,17.734375 L8.375,17.734375 L8.59375,17.046875 L10.96875,17.046875 C10.375,14.953125 9.453125,11.90625 8.609375,9.578125 C9.265625,9.390625 9.671875,9.390625 10.03125,9.53125 L10.375,10.484375 L11.78125,10.484375 C11.640625,8.28125 11.40625,6.09375 10.78125,4.078125 C10.171875,5.0625 9.640625,6.28125 9.21875,7.796875 Z M6.234375,5.609375 L6.234375,1.078125 L3.359375,1.078125 L3.359375,5.609375 Z M1.921875,6.3125 L1.921875,-1.78125 L2.140625,-1.78125 C2.734375,-1.78125 3.359375,-1.4375 3.359375,-1.296875 L3.359375,0.390625 L6.234375,0.390625 L6.234375,-0.8125 L6.453125,-0.8125 C6.953125,-0.8125 7.65625,-0.484375 7.6875,-0.3125 L7.6875,5.375 C8.140625,5.46875 8.515625,5.640625 8.6875,5.8125 L6.84375,7.21875 L6,6.3125 L3.453125,6.3125 L1.921875,7.03125 Z" transform="translate(-0.03125, 19.828125) scale(1, -1)"/>
</svg>