<svg height="22.03125" viewBox="0 0 24 22.03125" width="24" xmlns="http://www.w3.org/2000/svg">
<path d="M1.96875,18.53125 L2.15625,17.859375 L8.359375,17.859375 C8.6875,17.859375 8.921875,17.96875 8.96875,18.234375 C8.25,18.90625 7.125,19.828125 7.125,19.828125 L6.125,18.53125 Z M1.96875,12.484375 L2.15625,11.78125 L8.296875,11.78125 C8.640625,11.78125 8.859375,11.90625 8.90625,12.140625 C8.25,12.8125 7.203125,13.6875 7.203125,13.6875 L6.234375,12.484375 Z M1.96875,9.40625 L2.15625,8.71875 L8.296875,8.71875 C8.640625,8.71875 8.859375,8.828125 8.90625,9.09375 C8.25,9.75 7.203125,10.578125 7.203125,10.578125 L6.234375,9.40625 Z M0.984375,15.53125 L1.171875,14.828125 L9.359375,14.828125 C9.703125,14.828125 9.90625,14.953125 9.984375,15.1875 C9.265625,15.890625 8.109375,16.84375 8.109375,16.84375 L7.078125,15.53125 Z M16.875,8.71875 L16.875,0.09375 C16.875,-0.953125 17.140625,-1.375 18.59375,-1.375 L20.109375,-1.375 C22.609375,-1.375 23.234375,-1.0625 23.234375,-0.40625 C23.234375,-0.125 23.15625,0.046875 22.703125,0.234375 L22.625,3.546875 L22.296875,3.546875 C22.078125,2.234375 21.796875,0.71875 21.640625,0.34375 C21.578125,0.125 21.484375,0.078125 21.3125,0.078125 C21.140625,0.046875 20.71875,0.046875 20.15625,0.046875 L18.984375,0.046875 C18.484375,0.046875 18.40625,0.140625 18.40625,0.4375 L18.40625,7.84375 C18.84375,7.921875 19.078125,8.15625 19.109375,8.453125 Z M12.859375,8.71875 C13.109375,4.6875 12.4375,0.75 8.296875,-1.5625 L8.5,-1.890625 C13.53125,0.171875 14.453125,3.890625 14.59375,7.6875 C15.125,7.734375 15.359375,7.921875 15.453125,8.328125 Z M14.96875,20.140625 L14.96875,17.375 L9.671875,17.375 L9.859375,16.6875 L14.96875,16.6875 L14.96875,14.015625 L10.625,14.015625 L10.828125,13.3125 L21.234375,13.3125 C21.578125,13.3125 21.796875,13.4375 21.859375,13.703125 C21.125,14.421875 19.890625,15.359375 19.890625,15.359375 L18.84375,14.015625 L16.5625,14.015625 L16.5625,16.6875 L22.125,16.6875 C22.46875,16.6875 22.703125,16.78125 22.75,17.046875 C22.015625,17.765625 20.78125,18.71875 20.78125,18.71875 L19.703125,17.375 L16.5625,17.375 L16.5625,19.21875 C17.140625,19.3125 17.375,19.5625 17.421875,19.890625 Z M6.890625,5.6875 L6.890625,0.75 L3.53125,0.75 L3.53125,5.6875 Z M2.0625,6.390625 L2.0625,-1.78125 L2.28125,-1.78125 C2.875,-1.78125 3.53125,-1.4375 3.53125,-1.265625 L3.53125,0.046875 L6.890625,0.046875 L6.890625,-1.125 L7.125,-1.125 C7.609375,-1.125 8.359375,-0.75 8.359375,-0.59375 L8.359375,5.46875 C8.78125,5.546875 9.125,5.71875 9.265625,5.875 L7.46875,7.25 L6.671875,6.390625 L3.625,6.390625 L2.0625,7.125 Z M10.875,11.875 C10.84375,10.921875 10.21875,9.75 9.671875,9.28125 C9.234375,8.953125 9,8.453125 9.265625,8.015625 C9.578125,7.515625 10.390625,7.65625 10.75,8.0625 C11.15625,8.515625 11.453125,9.3125 11.46875,10.34375 L20.640625,10.34375 C20.40625,9.578125 20.046875,8.640625 19.78125,8.015625 L20.09375,7.828125 C20.90625,8.40625 21.90625,9.34375 22.484375,10.0625 C22.96875,10.078125 23.234375,10.109375 23.40625,10.3125 L21.546875,12.046875 L20.5625,11.015625 L11.421875,11.015625 C11.40625,11.28125 11.375,11.5625 11.296875,11.859375 Z" transform="translate(-0.1953125, 20.140625) scale(1, -1)"/>
</svg>