<svg height="21.984375" viewBox="0 0 24 21.984375" width="24" xmlns="http://www.w3.org/2000/svg">
<path d="M1.921875,18.546875 L2.109375,17.859375 L8.5625,17.859375 C8.90625,17.859375 9.125,17.96875 9.1875,18.234375 C8.46875,18.9375 7.296875,19.875 7.296875,19.875 L6.28125,18.546875 Z M1.828125,12.484375 L2.015625,11.78125 L8.40625,11.78125 C8.734375,11.78125 8.953125,11.90625 9,12.140625 C8.328125,12.8125 7.265625,13.6875 7.265625,13.6875 L6.3125,12.484375 Z M1.828125,9.4375 L2.015625,8.734375 L8.375,8.734375 C8.71875,8.734375 8.921875,8.828125 9,9.09375 C8.296875,9.765625 7.203125,10.625 7.203125,10.625 L6.21875,9.4375 Z M0.765625,15.53125 L0.9375,14.828125 L9.71875,14.828125 C10.03125,14.828125 10.265625,14.953125 10.3125,15.1875 C9.59375,15.890625 8.421875,16.84375 8.421875,16.84375 L7.390625,15.53125 Z M7.25,5.6875 L7.25,1.03125 L3.390625,1.03125 L3.390625,5.6875 Z M1.921875,6.390625 L1.921875,-1.78125 L2.140625,-1.78125 C2.765625,-1.78125 3.390625,-1.4375 3.390625,-1.265625 L3.390625,0.34375 L7.25,0.34375 L7.25,-0.9375 L7.46875,-0.9375 C7.96875,-0.9375 8.71875,-0.59375 8.734375,-0.453125 L8.734375,5.421875 C9.1875,5.515625 9.578125,5.6875 9.75,5.875 L7.875,7.3125 L7.03125,6.390625 L3.5,6.390625 L1.921875,7.125 Z M19.203125,12.75 L19.203125,7.75 L12.578125,7.75 L12.578125,12.75 Z M12.28125,17.78125 C11.8125,16.0625 10.625,13.828125 9.078125,12.484375 L9.3125,12.140625 C9.953125,12.484375 10.5625,12.90625 11.109375,13.375 L11.109375,5.78125 L11.359375,5.78125 C12.09375,5.78125 12.578125,6.140625 12.578125,6.28125 L12.578125,7.0625 L13.421875,7.0625 C13.203125,3.140625 12.21875,0.59375 8.65625,-1.53125 L8.828125,-1.890625 C13.171875,-0.125 14.6875,2.546875 15.09375,7.0625 L16.796875,7.0625 L16.796875,0.046875 C16.796875,-1.015625 17.0625,-1.390625 18.53125,-1.390625 L20.09375,-1.390625 C22.65625,-1.390625 23.25,-1.109375 23.25,-0.453125 C23.25,-0.140625 23.15625,0.03125 22.703125,0.21875 L22.625,3.140625 L22.3125,3.140625 C22.078125,1.921875 21.84375,0.625 21.703125,0.28125 C21.59375,0.09375 21.53125,0.046875 21.328125,0.03125 C21.171875,0.03125 20.71875,0.03125 20.140625,0.03125 L18.90625,0.03125 C18.390625,0.03125 18.3125,0.09375 18.3125,0.40625 L18.3125,7.0625 L19.203125,7.0625 L19.203125,6 L19.421875,6 C19.890625,6 20.6875,6.359375 20.71875,6.53125 L20.71875,12.59375 C21.078125,12.640625 21.390625,12.8125 21.5,12.984375 L19.78125,14.296875 L18.984375,13.46875 L12.890625,13.46875 L11.734375,13.9375 C12.578125,14.765625 13.25,15.671875 13.703125,16.515625 C14.25,16.46875 14.453125,16.609375 14.59375,16.828125 Z M12.53125,19.0625 L12.75,18.34375 L18.09375,18.34375 C18.640625,16.125 19.9375,14.15625 21.796875,12.796875 C21.953125,13.421875 22.53125,13.890625 23.15625,14.015625 L23.1875,14.328125 C21.140625,15.21875 19.4375,16.75 18.703125,18.3125 C19.421875,18.34375 19.96875,18.5 20.203125,18.765625 L18.265625,20.09375 L17.59375,19.0625 Z" transform="translate(-0.0078125, 20.09375) scale(1, -1)"/>
</svg>