<svg height="21.71875" viewBox="0 0 24 21.71875" width="24" xmlns="http://www.w3.org/2000/svg">
<path d="M1.875,18.453125 L2.0625,17.78125 L8.296875,17.78125 C8.640625,17.78125 8.859375,17.90625 8.921875,18.171875 C8.203125,18.84375 7.0625,19.75 7.0625,19.75 L6.046875,18.453125 Z M1.875,12.40625 L2.0625,11.71875 L8.25,11.71875 C8.59375,11.71875 8.828125,11.828125 8.875,12.078125 C8.203125,12.71875 7.15625,13.578125 7.15625,13.578125 L6.1875,12.40625 Z M1.875,9.34375 L2.0625,8.640625 L8.25,8.640625 C8.59375,8.640625 8.828125,8.765625 8.875,9 C8.203125,9.671875 7.15625,10.53125 7.15625,10.53125 L6.1875,9.34375 Z M0.859375,15.453125 L1.0625,14.765625 L9.34375,14.765625 C9.671875,14.765625 9.90625,14.875 9.984375,15.140625 C9.234375,15.8125 8.09375,16.75 8.09375,16.75 L7.0625,15.453125 Z M6.84375,5.546875 L6.84375,1.015625 L3.4375,1.015625 L3.4375,5.546875 Z M1.96875,6.234375 L1.96875,-1.875 L2.1875,-1.875 C2.8125,-1.875 3.4375,-1.515625 3.4375,-1.375 L3.4375,0.3125 L6.84375,0.3125 L6.84375,-0.953125 L7.0625,-0.953125 C7.5625,-0.953125 8.296875,-0.59375 8.296875,-0.453125 L8.296875,5.28125 C8.78125,5.375 9.140625,5.5625 9.3125,5.734375 L7.4375,7.171875 L6.59375,6.234375 L3.546875,6.234375 L1.96875,6.984375 Z M20.109375,18.1875 L20.109375,13.578125 L15.265625,13.578125 L15.265625,18.1875 Z M13.78125,18.890625 L13.78125,11.453125 L13.984375,11.453125 C14.609375,11.453125 15.265625,11.8125 15.265625,11.921875 L15.265625,12.890625 L20.109375,12.890625 L20.109375,11.65625 L20.359375,11.65625 C20.859375,11.65625 21.59375,12.03125 21.625,12.171875 L21.625,17.90625 C22.109375,18 22.484375,18.171875 22.65625,18.359375 L20.734375,19.84375 L19.875,18.890625 L15.359375,18.890625 L13.78125,19.609375 Z M14.71875,8.765625 C14.6875,7.578125 14.65625,6.484375 14.515625,5.421875 L9.140625,5.421875 L9.34375,4.703125 L14.375,4.703125 C13.84375,2.296875 12.40625,0.234375 8.28125,-1.421875 L8.59375,-1.796875 C13.734375,-0.125 15.3125,2.15625 15.859375,4.703125 L16.109375,4.703125 C17.140625,1.4375 19.015625,-0.71875 21.953125,-1.875 C22.125,-1.109375 22.625,-0.625 23.234375,-0.484375 L23.25,-0.234375 C20.328125,0.4375 17.921875,2.234375 16.65625,4.703125 L22.796875,4.703125 C23.140625,4.703125 23.328125,4.828125 23.375,5.09375 C22.828125,5.78125 21.8125,6.765625 21.8125,6.765625 L20.953125,5.421875 L20.421875,5.421875 L20.421875,9.359375 C20.875,9.453125 21.265625,9.640625 21.4375,9.84375 L19.578125,11.234375 L18.703125,10.3125 L11.734375,10.3125 L11.734375,16.703125 C12.3125,16.796875 12.53125,16.984375 12.578125,17.296875 L10.265625,17.5625 L10.265625,7.5625 L10.53125,7.5625 C11.09375,7.5625 11.734375,7.890625 11.734375,8.109375 L11.734375,9.625 L18.9375,9.625 L18.9375,5.421875 L16.015625,5.421875 C16.125,6.234375 16.171875,7.078125 16.21875,7.9375 C16.734375,8.015625 16.921875,8.25 16.9375,8.5625 Z" transform="translate(-0.1171875, 19.84375) scale(1, -1)"/>
</svg>