<svg height="21.90625" viewBox="0 0 24 21.90625" width="24" xmlns="http://www.w3.org/2000/svg">
<path d="M1.890625,18.453125 L2.09375,17.78125 L8.15625,17.78125 C8.5,17.78125 8.71875,17.90625 8.78125,18.171875 C8.0625,18.84375 6.9375,19.75 6.9375,19.75 L5.921875,18.453125 Z M1.890625,12.40625 L2.09375,11.71875 L8.140625,11.71875 C8.46875,11.71875 8.6875,11.828125 8.734375,12.078125 C8.09375,12.71875 7.03125,13.578125 7.03125,13.578125 L6.09375,12.40625 Z M1.890625,9.34375 L2.09375,8.640625 L8.140625,8.640625 C8.46875,8.640625 8.6875,8.765625 8.734375,9 C8.09375,9.640625 7.03125,10.515625 7.03125,10.515625 L6.09375,9.34375 Z M9.140625,5.296875 L10.03125,3.4375 C10.25,3.5 10.4375,3.703125 10.515625,3.953125 L13.0625,5.46875 C12.640625,2.546875 11.546875,0.265625 9.28125,-1.609375 L9.625,-1.890625 C13.515625,0.53125 14.6875,3.890625 14.71875,8.46875 L14.71875,19.109375 C15.3125,19.203125 15.484375,19.4375 15.53125,19.78125 L13.21875,20.015625 L13.21875,15.546875 L9.640625,15.546875 L9.765625,15.171875 C9.046875,15.84375 7.921875,16.75 7.921875,16.75 L6.890625,15.453125 L0.890625,15.453125 L1.078125,14.765625 L9.171875,14.765625 C9.5,14.765625 9.703125,14.875 9.765625,15.125 L9.859375,14.859375 L13.21875,14.859375 L13.21875,10.65625 L10.0625,10.65625 L10.265625,9.953125 L13.21875,9.953125 L13.21875,8.453125 C13.21875,7.609375 13.203125,6.8125 13.109375,6.078125 C11.5,5.734375 9.90625,5.421875 9.140625,5.296875 Z M6.765625,5.546875 L6.765625,1.015625 L3.4375,1.015625 L3.4375,5.546875 Z M1.96875,6.234375 L1.96875,-1.875 L2.203125,-1.875 C2.8125,-1.875 3.4375,-1.515625 3.4375,-1.375 L3.4375,0.3125 L6.765625,0.3125 L6.765625,-0.9375 L6.984375,-0.9375 C7.46875,-0.9375 8.203125,-0.59375 8.234375,-0.4375 L8.234375,5.28125 C8.6875,5.375 9.046875,5.5625 9.21875,5.734375 L7.375,7.171875 L6.53125,6.234375 L3.546875,6.234375 L1.96875,6.953125 Z M17.28125,19.984375 L17.28125,-1.84375 L17.609375,-1.84375 C18.171875,-1.84375 18.796875,-1.515625 18.796875,-1.265625 L18.796875,4.984375 L22.6875,4.984375 C23.015625,4.984375 23.203125,5.109375 23.28125,5.375 C22.609375,6.078125 21.484375,7.03125 21.484375,7.03125 L20.5,5.71875 L18.796875,5.71875 L18.796875,10.015625 L22.21875,10.015625 C22.53125,10.015625 22.75,10.125 22.828125,10.390625 C22.171875,11.046875 21.125,11.921875 21.125,11.921875 L20.203125,10.703125 L18.796875,10.703125 L18.796875,14.859375 L22.484375,14.859375 C22.828125,14.859375 23.046875,14.96875 23.109375,15.234375 C22.4375,15.9375 21.328125,16.84375 21.328125,16.84375 L20.375,15.546875 L18.796875,15.546875 L18.796875,18.984375 C19.4375,19.078125 19.6875,19.34375 19.75,19.734375 Z" transform="translate(-0.0859375, 20.015625) scale(1, -1)"/>
</svg>