<svg height="21.703125" viewBox="0 0 24 21.703125" width="24" xmlns="http://www.w3.org/2000/svg">
<path d="M1.890625,18.453125 L2.09375,17.78125 L8.15625,17.78125 C8.5,17.78125 8.71875,17.90625 8.78125,18.171875 C8.0625,18.84375 6.9375,19.75 6.9375,19.75 L5.921875,18.453125 Z M1.890625,12.40625 L2.09375,11.71875 L8.140625,11.71875 C8.46875,11.71875 8.6875,11.828125 8.734375,12.078125 C8.09375,12.71875 7.03125,13.578125 7.03125,13.578125 L6.09375,12.40625 Z M1.890625,9.34375 L2.09375,8.640625 L8.140625,8.640625 C8.46875,8.640625 8.6875,8.765625 8.734375,9 C8.09375,9.640625 7.03125,10.515625 7.03125,10.515625 L6.09375,9.34375 Z M0.890625,15.453125 L1.078125,14.765625 L9.125,14.765625 C9.453125,14.765625 9.671875,14.875 9.75,15.140625 C9.03125,15.8125 7.875,16.75 7.875,16.75 L6.84375,15.453125 Z M8.875,4.96875 L9.8125,3.171875 C10.03125,3.265625 10.21875,3.4375 10.296875,3.75 L13.015625,4.9375 C12.5,2.234375 11.28125,0.140625 8.90625,-1.609375 L9.21875,-1.921875 C12.578125,-0.078125 14.0625,2.421875 14.5625,5.6875 L16.265625,6.5 L16.171875,6.859375 L14.65625,6.4375 C14.71875,7.0625 14.765625,7.6875 14.765625,8.359375 L14.765625,18.859375 C15.34375,18.953125 15.53125,19.203125 15.578125,19.53125 L13.265625,19.78125 L13.265625,15.890625 L9.71875,15.890625 L9.9375,15.1875 L13.265625,15.1875 L13.265625,10.796875 L9.84375,10.796875 L10.0625,10.109375 L13.265625,10.109375 L13.265625,8.359375 C13.265625,7.53125 13.21875,6.75 13.15625,6.03125 C11.328125,5.546875 9.71875,5.140625 8.875,4.96875 Z M6.75,5.59375 L6.75,1.015625 L3.40625,1.015625 L3.40625,5.59375 Z M1.96875,6.28125 L1.96875,-1.875 L2.1875,-1.875 C2.78125,-1.875 3.40625,-1.515625 3.40625,-1.375 L3.40625,0.3125 L6.75,0.3125 L6.75,-0.9375 L6.984375,-0.9375 C7.4375,-0.9375 8.1875,-0.59375 8.203125,-0.4375 L8.203125,5.296875 C8.6875,5.40625 9.046875,5.59375 9.21875,5.765625 L7.34375,7.203125 L6.53125,6.28125 L3.53125,6.28125 L1.96875,7.015625 Z M17.375,19.75 L17.375,-1.828125 L17.71875,-1.828125 C18.265625,-1.828125 18.890625,-1.484375 18.890625,-1.265625 L18.890625,4.921875 L22.78125,4.921875 C23.109375,4.921875 23.296875,5.046875 23.375,5.296875 C22.703125,5.96875 21.546875,6.9375 21.546875,6.9375 L20.59375,5.609375 L18.890625,5.609375 L18.890625,10.125 L22.3125,10.125 C22.625,10.125 22.84375,10.25 22.921875,10.515625 C22.265625,11.15625 21.21875,12.078125 21.21875,12.078125 L20.296875,10.828125 L18.890625,10.828125 L18.890625,15.1875 L22.578125,15.1875 C22.921875,15.1875 23.109375,15.3125 23.1875,15.578125 C22.53125,16.265625 21.4375,17.15625 21.4375,17.15625 L20.46875,15.890625 L18.890625,15.890625 L18.890625,18.75 C19.53125,18.84375 19.78125,19.109375 19.84375,19.484375 Z" transform="translate(-0.1328125, 19.78125) scale(1, -1)"/>
</svg>