<svg height="21.96875" viewBox="0 0 24 21.96875" width="24" xmlns="http://www.w3.org/2000/svg">
<path d="M1.875,18.453125 L2.0625,17.78125 L8.421875,17.78125 C8.765625,17.78125 8.96875,17.90625 9.046875,18.171875 C8.328125,18.84375 7.171875,19.75 7.171875,19.75 L6.140625,18.453125 Z M1.9375,12.40625 L2.140625,11.71875 L8.59375,11.71875 C8.921875,11.71875 9.140625,11.828125 9.1875,12.078125 C8.546875,12.71875 7.46875,13.578125 7.46875,13.578125 L6.53125,12.40625 Z M1.9375,9.34375 L2.140625,8.640625 L8.59375,8.640625 C8.921875,8.640625 9.140625,8.765625 9.1875,9 C8.546875,9.671875 7.46875,10.53125 7.46875,10.53125 L6.53125,9.34375 Z M0.84375,15.453125 L1.015625,14.765625 L9.765625,14.765625 C10.078125,14.765625 10.3125,14.875 10.390625,15.140625 C9.640625,15.8125 8.46875,16.75 8.46875,16.75 L7.46875,15.453125 Z M7.125,5.546875 L7.125,1.015625 L3.453125,1.015625 L3.453125,5.546875 Z M1.984375,6.234375 L1.984375,-1.875 L2.234375,-1.875 C2.828125,-1.875 3.453125,-1.515625 3.453125,-1.375 L3.453125,0.3125 L7.125,0.3125 L7.125,-0.953125 L7.34375,-0.953125 C7.84375,-0.953125 8.59375,-0.59375 8.609375,-0.453125 L8.609375,5.28125 C9.078125,5.375 9.4375,5.5625 9.59375,5.734375 L7.734375,7.171875 L6.90625,6.234375 L3.578125,6.234375 L1.984375,6.984375 Z M9.671875,12.09375 L9.859375,11.421875 L22.46875,11.421875 C22.796875,11.421875 23.0625,11.546875 23.109375,11.8125 C22.375,12.484375 21.171875,13.46875 21.171875,13.46875 L20.109375,12.09375 L16.828125,12.09375 L16.828125,14.234375 L21.1875,14.234375 C21.53125,14.234375 21.71875,14.359375 21.796875,14.609375 C21.140625,15.265625 20.09375,16.109375 20.09375,16.109375 L19.171875,14.953125 L16.828125,14.953125 L16.828125,16.890625 L21.890625,16.890625 C22.21875,16.890625 22.4375,17.015625 22.484375,17.28125 C21.796875,18 20.640625,18.90625 20.640625,18.90625 L19.609375,17.609375 L16.828125,17.609375 L16.828125,19.171875 C17.40625,19.265625 17.640625,19.515625 17.6875,19.84375 L15.265625,20.09375 L15.265625,17.609375 L10.109375,17.609375 L10.296875,16.890625 L15.265625,16.890625 L15.265625,14.953125 L11.0625,14.953125 L11.25,14.234375 L15.265625,14.234375 L15.265625,12.09375 Z M15.390625,4.96875 L12.59375,4.96875 L12.59375,8.78125 L15.390625,8.78125 Z M16.75,4.96875 L16.75,8.78125 L19.625,8.78125 L19.625,4.96875 Z M11.140625,9.484375 L11.140625,-1.78125 L11.375,-1.78125 C12,-1.78125 12.59375,-1.390625 12.59375,-1.25 L12.59375,4.25 L19.625,4.25 L19.625,0.578125 C19.625,0.234375 19.53125,0.09375 19.125,0.09375 C18.703125,0.09375 16.65625,0.265625 16.65625,0.265625 L16.65625,-0.125 C17.5625,-0.234375 18.125,-0.4375 18.40625,-0.671875 C18.671875,-0.9375 18.796875,-1.3125 18.84375,-1.796875 C20.859375,-1.578125 21.09375,-0.8125 21.09375,0.390625 L21.09375,8.546875 C21.53125,8.609375 21.890625,8.8125 22.03125,8.96875 L20.140625,10.390625 L19.390625,9.484375 L12.71875,9.484375 L11.140625,10.21875 Z" transform="translate(0.0234375, 20.09375) scale(1, -1)"/>
</svg>