<svg height="21.8125" viewBox="0 0 24 21.8125" width="24" xmlns="http://www.w3.org/2000/svg">
<path d="M1.828125,18.59375 L2.015625,17.90625 L8.328125,17.90625 C8.65625,17.90625 8.875,18.03125 8.953125,18.28125 C8.234375,18.953125 7.0625,19.890625 7.0625,19.890625 L6.03125,18.59375 Z M1.875,12.53125 L2.0625,11.859375 L8.5,11.859375 C8.828125,11.859375 9.03125,11.96875 9.078125,12.21875 C8.421875,12.859375 7.375,13.703125 7.375,13.703125 L6.40625,12.53125 Z M1.875,9.484375 L2.0625,8.78125 L8.5,8.78125 C8.828125,8.78125 9.03125,8.875 9.078125,9.140625 C8.421875,9.796875 7.375,10.625 7.375,10.625 L6.40625,9.484375 Z M0.765625,15.578125 L0.9375,14.90625 L9.34375,14.90625 C9.640625,14.90625 9.890625,15.03125 9.9375,15.265625 C9.21875,15.953125 8.046875,16.875 8.046875,16.875 L7.03125,15.578125 Z M10.34375,14.140625 L10.34375,5.640625 L10.609375,5.640625 C11.203125,5.640625 11.828125,5.96875 11.828125,6.125 L11.828125,7.0625 L14.546875,7.0625 C13.296875,4.3125 11.25,1.703125 8.640625,-0.140625 L8.90625,-0.53125 C11.5,0.890625 13.609375,2.71875 15.140625,4.921875 L15.140625,-1.875 L15.453125,-1.875 C16.03125,-1.875 16.6875,-1.46875 16.6875,-1.21875 L16.6875,6.8125 C17.921875,3.765625 19.9375,1.296875 22.125,-0.21875 C22.375,0.59375 22.890625,1.078125 23.5625,1.171875 L23.59375,1.421875 C21.265625,2.46875 18.640625,4.578125 17.140625,7.0625 L20.09375,7.0625 L20.09375,6.046875 L20.328125,6.046875 C20.828125,6.046875 21.59375,6.40625 21.625,6.578125 L21.625,13.15625 C22.078125,13.25 22.46875,13.4375 22.609375,13.609375 L20.71875,15.078125 L19.84375,14.140625 L16.6875,14.140625 L16.6875,16.390625 L22.4375,16.390625 C22.78125,16.390625 22.984375,16.515625 23.0625,16.78125 C22.296875,17.5 21.046875,18.484375 21.046875,18.484375 L19.9375,17.09375 L16.6875,17.09375 L16.6875,19.015625 C17.28125,19.109375 17.46875,19.34375 17.546875,19.6875 L15.140625,19.9375 L15.140625,17.09375 L9.484375,17.09375 L9.671875,16.390625 L15.140625,16.390625 L15.140625,14.140625 L11.953125,14.140625 L10.34375,14.875 Z M15.140625,7.75 L11.828125,7.75 L11.828125,10.265625 L15.140625,10.265625 Z M16.75,7.75 L16.6875,7.75 L16.6875,10.265625 L20.09375,10.265625 L20.09375,7.75 Z M15.140625,13.4375 L15.140625,10.96875 L11.828125,10.96875 L11.828125,13.4375 Z M16.6875,13.4375 L20.09375,13.4375 L20.09375,10.96875 L16.6875,10.96875 Z M6.953125,5.65625 L6.953125,1.125 L3.40625,1.125 L3.40625,5.65625 Z M1.9375,6.390625 L1.9375,-1.734375 L2.15625,-1.734375 C2.765625,-1.734375 3.40625,-1.390625 3.40625,-1.21875 L3.40625,0.453125 L6.953125,0.453125 L6.953125,-0.765625 L7.171875,-0.765625 C7.6875,-0.765625 8.421875,-0.40625 8.453125,-0.265625 L8.453125,5.421875 C8.90625,5.5 9.265625,5.6875 9.4375,5.859375 L7.5625,7.296875 L6.75,6.390625 L3.5,6.390625 L1.9375,7.109375 Z" transform="translate(-0.1796875, 19.9375) scale(1, -1)"/>
</svg>