<svg height="21.84375" viewBox="0 0 24 21.84375" width="24" xmlns="http://www.w3.org/2000/svg">
<path d="M1.875,18.453125 L2.0625,17.78125 L8.421875,17.78125 C8.765625,17.78125 8.96875,17.90625 9.046875,18.171875 C8.328125,18.84375 7.171875,19.75 7.171875,19.75 L6.140625,18.453125 Z M1.9375,12.40625 L2.140625,11.71875 L8.59375,11.71875 C8.921875,11.71875 9.140625,11.828125 9.1875,12.078125 C8.546875,12.71875 7.46875,13.578125 7.46875,13.578125 L6.53125,12.40625 Z M1.9375,9.34375 L2.140625,8.640625 L8.59375,8.640625 C8.921875,8.640625 9.140625,8.765625 9.1875,9 C8.546875,9.671875 7.46875,10.53125 7.46875,10.53125 L6.53125,9.34375 Z M0.84375,15.453125 L1.015625,14.765625 L9.71875,14.765625 C10.03125,14.765625 10.296875,14.875 10.34375,15.140625 C9.59375,15.8125 8.421875,16.75 8.421875,16.75 L7.421875,15.453125 Z M15.390625,19.96875 L15.390625,17.765625 L10.3125,17.765625 L10.484375,17.046875 L15.390625,17.046875 L15.390625,15.09375 L11.046875,15.09375 L11.234375,14.375 L15.390625,14.375 L15.390625,12.28125 L9.71875,12.28125 L9.90625,11.59375 L22.5625,11.59375 C22.890625,11.59375 23.140625,11.71875 23.1875,11.96875 C22.421875,12.703125 21.1875,13.65625 21.1875,13.65625 L20.109375,12.28125 L16.9375,12.28125 L16.9375,14.375 L21.390625,14.375 C21.703125,14.375 21.90625,14.5 21.984375,14.765625 C21.265625,15.453125 20.09375,16.375 20.09375,16.375 L19.109375,15.09375 L16.9375,15.09375 L16.9375,17.046875 L22.03125,17.046875 C22.375,17.046875 22.578125,17.15625 22.65625,17.421875 C21.90625,18.140625 20.71875,19.078125 20.71875,19.078125 L19.65625,17.765625 L16.9375,17.765625 L16.9375,19.078125 C17.515625,19.15625 17.765625,19.390625 17.8125,19.734375 Z M13.0625,6.03125 L19.515625,6.03125 L19.515625,3.671875 L13.0625,3.671875 Z M13.0625,6.75 L13.0625,9.03125 L19.515625,9.03125 L19.515625,6.75 Z M11.546875,9.75 L11.546875,-1.84375 L11.78125,-1.84375 C12.40625,-1.84375 13.0625,-1.46875 13.0625,-1.296875 L13.0625,2.953125 L19.515625,2.953125 L19.515625,0.53125 C19.515625,0.21875 19.421875,0.09375 19.03125,0.09375 C18.625,0.09375 16.78125,0.21875 16.78125,0.21875 L16.78125,-0.140625 C17.640625,-0.28125 18.09375,-0.453125 18.390625,-0.71875 C18.640625,-0.953125 18.75,-1.390625 18.8125,-1.875 C20.8125,-1.6875 21.046875,-0.90625 21.046875,0.34375 L21.046875,8.765625 C21.5,8.828125 21.859375,9.03125 22.03125,9.21875 L20.046875,10.6875 L19.265625,9.75 L13.171875,9.75 L11.546875,10.515625 Z M7.125,5.546875 L7.125,1.015625 L3.453125,1.015625 L3.453125,5.546875 Z M1.984375,6.234375 L1.984375,-1.875 L2.234375,-1.875 C2.828125,-1.875 3.453125,-1.515625 3.453125,-1.375 L3.453125,0.3125 L7.125,0.3125 L7.125,-0.953125 L7.34375,-0.953125 C7.84375,-0.953125 8.59375,-0.59375 8.609375,-0.453125 L8.609375,5.28125 C9.078125,5.375 9.4375,5.5625 9.59375,5.734375 L7.734375,7.171875 L6.90625,6.234375 L3.578125,6.234375 L1.984375,6.984375 Z" transform="translate(-0.015625, 19.96875) scale(1, -1)"/>
</svg>