<svg height="21.765625" viewBox="0 0 24 21.765625" width="24" xmlns="http://www.w3.org/2000/svg">
<path d="M1.828125,18.484375 L2.015625,17.78125 L7.875,17.78125 C8.203125,17.78125 8.453125,17.90625 8.5,18.171875 C7.78125,18.84375 6.640625,19.78125 6.640625,19.78125 L5.640625,18.484375 Z M1.828125,12.4375 L2.015625,11.734375 L7.84375,11.734375 C8.1875,11.734375 8.40625,11.859375 8.46875,12.09375 C7.796875,12.75 6.765625,13.609375 6.765625,13.609375 L5.8125,12.4375 Z M1.828125,9.359375 L2.015625,8.65625 L7.84375,8.65625 C8.1875,8.65625 8.40625,8.78125 8.46875,9.03125 C7.796875,9.671875 6.765625,10.53125 6.765625,10.53125 L5.8125,9.359375 Z M0.84375,15.484375 L1.03125,14.78125 L8.8125,14.78125 C9.125,14.78125 9.34375,14.90625 9.40625,15.171875 C8.71875,15.84375 7.53125,16.78125 7.53125,16.78125 L6.53125,15.484375 Z M9.171875,18.5 L9.359375,17.828125 L22.46875,17.828125 C22.796875,17.828125 23.046875,17.953125 23.109375,18.21875 C22.3125,18.90625 21.078125,19.875 21.078125,19.875 L19.9375,18.5 Z M6.28125,5.609375 L6.28125,0.859375 L3.34375,0.859375 L3.34375,5.609375 Z M1.890625,6.3125 L1.890625,-1.84375 L2.109375,-1.84375 C2.71875,-1.84375 3.34375,-1.515625 3.34375,-1.34375 L3.34375,0.171875 L6.28125,0.171875 L6.28125,-1.203125 L6.5,-1.203125 C7.015625,-1.203125 7.734375,-0.84375 7.75,-0.671875 L7.75,5.328125 C8.203125,5.421875 8.59375,5.59375 8.765625,5.78125 L6.90625,7.21875 L6.046875,6.3125 L3.453125,6.3125 L1.890625,7.03125 Z M10.3125,15.671875 L10.3125,11.328125 C10.3125,7.078125 10.0625,2.328125 7.609375,-1.609375 L7.9375,-1.890625 C9.671875,0 10.625,2.296875 11.15625,4.578125 L11.15625,-1.875 L11.40625,-1.875 C11.96875,-1.875 12.53125,-1.53125 12.53125,-1.375 L12.53125,3.859375 L14.25,3.859375 L14.25,-1.53125 L14.453125,-1.53125 C15.09375,-1.53125 15.53125,-1.203125 15.53125,-1.109375 L15.53125,3.859375 L17.375,3.859375 L17.375,-1.53125 L17.5625,-1.53125 C18.234375,-1.53125 18.671875,-1.203125 18.671875,-1.109375 L18.671875,3.859375 L20.59375,3.859375 L20.59375,0.265625 C20.59375,0 20.515625,-0.125 20.25,-0.125 C19.984375,-0.125 18.984375,-0.03125 18.984375,-0.03125 L18.984375,-0.40625 C19.53125,-0.484375 19.828125,-0.640625 19.984375,-0.84375 C20.1875,-1.078125 20.234375,-1.484375 20.25,-1.875 C21.8125,-1.703125 22.015625,-1.0625 22.015625,0.125 L22.015625,8.140625 C22.421875,8.234375 22.78125,8.40625 22.921875,8.5625 L21.09375,9.90625 L20.375,9.046875 L12.671875,9.046875 L11.765625,9.484375 L11.78125,11.328125 L11.78125,11.5 L19.9375,11.5 L19.9375,10.296875 L20.15625,10.296875 C20.640625,10.296875 21.40625,10.625 21.4375,10.75 L21.4375,14.6875 C21.859375,14.78125 22.265625,14.96875 22.421875,15.140625 L20.515625,16.578125 L19.703125,15.671875 L12.078125,15.671875 L10.3125,16.4375 Z M12.53125,4.53125 L12.53125,8.359375 L14.25,8.359375 L14.25,4.53125 Z M15.53125,8.359375 L17.375,8.359375 L17.375,4.53125 L15.53125,4.53125 Z M18.671875,8.359375 L20.59375,8.359375 L20.59375,4.53125 L18.671875,4.53125 Z M19.9375,14.96875 L19.9375,12.1875 L11.78125,12.1875 L11.78125,14.96875 Z" transform="translate(0.0234375, 19.875) scale(1, -1)"/>
</svg>