<svg height="21.78125" viewBox="0 0 24 21.78125" width="24" xmlns="http://www.w3.org/2000/svg">
<path d="M1.84375,18.484375 L2.046875,17.78125 L7.890625,17.78125 C8.234375,17.78125 8.46875,17.90625 8.515625,18.171875 C7.796875,18.84375 6.671875,19.78125 6.671875,19.78125 L5.65625,18.484375 Z M1.84375,12.4375 L2.046875,11.734375 L7.875,11.734375 C8.203125,11.734375 8.421875,11.859375 8.5,12.09375 C7.828125,12.75 6.796875,13.609375 6.796875,13.609375 L5.828125,12.4375 Z M1.84375,9.359375 L2.046875,8.65625 L7.875,8.65625 C8.203125,8.65625 8.421875,8.78125 8.5,9.03125 C7.828125,9.671875 6.796875,10.53125 6.796875,10.53125 L5.828125,9.359375 Z M0.859375,15.484375 L1.0625,14.78125 L8.828125,14.78125 C9.140625,14.78125 9.359375,14.90625 9.4375,15.171875 C8.734375,15.84375 7.5625,16.78125 7.5625,16.78125 L6.546875,15.484375 Z M6.390625,5.5625 L6.390625,1.015625 L3.34375,1.015625 L3.34375,5.5625 Z M1.890625,6.265625 L1.890625,-1.84375 L2.109375,-1.84375 C2.71875,-1.84375 3.34375,-1.484375 3.34375,-1.34375 L3.34375,0.3125 L6.390625,0.3125 L6.390625,-1.125 L6.625,-1.125 C7.109375,-1.125 7.828125,-0.75 7.84375,-0.59375 L7.84375,5.296875 C8.328125,5.40625 8.71875,5.5625 8.859375,5.765625 L7.015625,7.203125 L6.140625,6.265625 L3.453125,6.265625 L1.890625,6.984375 Z M20.25,19.9375 C18.4375,19.15625 15.125,18.1875 12.1875,17.609375 L10.265625,18.28125 L10.265625,11.46875 C10.265625,7.25 10.125,2.609375 8.0625,-1.171875 L8.421875,-1.421875 C10.125,0.578125 10.9375,3.03125 11.359375,5.46875 L11.359375,-1.84375 L11.59375,-1.84375 C12.1875,-1.84375 12.75,-1.515625 12.75,-1.375 L12.75,3.796875 L14.421875,3.796875 L14.421875,-1.5625 L14.609375,-1.5625 C15.28125,-1.5625 15.71875,-1.21875 15.71875,-1.125 L15.71875,3.796875 L17.5,3.796875 L17.5,-1.5625 L17.6875,-1.5625 C18.359375,-1.5625 18.796875,-1.21875 18.796875,-1.125 L18.796875,3.796875 L20.609375,3.796875 L20.609375,0.34375 C20.609375,0.046875 20.546875,-0.078125 20.28125,-0.078125 C19.984375,-0.078125 19.015625,0.03125 19.015625,0.03125 L19.015625,-0.390625 C19.5625,-0.4375 19.828125,-0.578125 20.015625,-0.8125 C20.203125,-1.03125 20.25,-1.4375 20.28125,-1.828125 C21.8125,-1.65625 22.03125,-1.015625 22.03125,0.171875 L22.03125,7.78125 C22.4375,7.875 22.796875,8.015625 22.921875,8.203125 L21.125,9.546875 L20.40625,8.6875 L12.859375,8.6875 L11.71875,9.234375 L11.734375,11.046875 L19.9375,11.046875 L19.9375,9.9375 L20.15625,9.9375 C20.640625,9.9375 21.40625,10.265625 21.4375,10.421875 L21.4375,14.46875 C21.859375,14.5625 22.265625,14.765625 22.421875,14.953125 L20.515625,16.375 L19.703125,15.453125 L11.734375,15.453125 L11.734375,17.046875 C14.953125,17.234375 18.5,17.8125 20.8125,18.34375 C21.328125,18.09375 21.75,18.09375 21.953125,18.3125 Z M12.75,4.484375 L12.75,7.96875 L14.421875,7.96875 L14.421875,4.484375 Z M15.71875,7.96875 L17.5,7.96875 L17.5,4.484375 L15.71875,4.484375 Z M18.796875,7.96875 L20.609375,7.96875 L20.609375,4.484375 L18.796875,4.484375 Z M19.9375,14.765625 L19.9375,11.765625 L11.734375,11.765625 L11.734375,14.765625 Z" transform="translate(0.109375, 19.9375) scale(1, -1)"/>
</svg>