<svg height="21.9375" viewBox="0 0 24 21.9375" width="24" xmlns="http://www.w3.org/2000/svg">
<path d="M9.890625,18.859375 L9.625,18.703125 C10.34375,17.875 11.25,16.484375 11.453125,15.390625 C12.890625,14.25 14.25,17.1875 9.890625,18.859375 Z M8.96875,10.6875 L10.25,9 C10.4375,9.125 10.5625,9.390625 10.578125,9.640625 C12.03125,11.015625 13.125,12.171875 13.84375,12.9375 L13.6875,13.21875 C11.78125,12.125 9.8125,11.0625 8.96875,10.6875 Z M1.96875,18.453125 L2.15625,17.765625 L8.328125,17.765625 C8.65625,17.765625 8.875,17.875 8.921875,18.140625 C8.234375,18.8125 7.078125,19.734375 7.078125,19.734375 L6.078125,18.453125 Z M1.9375,12.390625 L2.140625,11.6875 L8.28125,11.6875 C8.609375,11.6875 8.828125,11.8125 8.875,12.046875 C8.203125,12.71875 7.15625,13.578125 7.15625,13.578125 L6.1875,12.390625 Z M1.9375,9.3125 L2.140625,8.609375 L8.28125,8.609375 C8.609375,8.609375 8.828125,8.734375 8.875,9 C8.203125,9.640625 7.15625,10.515625 7.15625,10.515625 L6.1875,9.3125 Z M0.9375,15.4375 L1.125,14.734375 L9.28125,14.734375 C9.625,14.734375 9.84375,14.859375 9.90625,15.125 C9.1875,15.796875 8.015625,16.75 8.015625,16.75 L7.015625,15.4375 Z M19.734375,5.859375 L19.734375,0.59375 L13.0625,0.59375 L13.0625,5.859375 Z M11.515625,6.578125 L11.515625,-1.796875 L11.765625,-1.796875 C12.390625,-1.796875 13.0625,-1.4375 13.0625,-1.265625 L13.0625,-0.09375 L19.734375,-0.09375 L19.734375,-1.625 L19.96875,-1.625 C20.46875,-1.625 21.28125,-1.265625 21.3125,-1.109375 L21.3125,5.609375 C21.71875,5.6875 22.078125,5.875 22.21875,6.078125 L20.359375,7.484375 L19.53125,6.578125 L13.171875,6.578125 L11.515625,7.3125 Z M18.265625,17.109375 L15.71875,17.109375 C16.015625,17.6875 16.265625,18.28125 16.515625,18.9375 C16.984375,18.9375 17.28125,19.15625 17.359375,19.4375 L15.03125,20.0625 C14.609375,17.640625 13.703125,15.34375 12.625,13.828125 L12.953125,13.578125 C13.875,14.296875 14.65625,15.28125 15.34375,16.421875 L16.5625,16.421875 C16.421875,13.015625 15.8125,9.890625 10.375,7.46875 L10.6875,7.0625 C16.265625,9.09375 17.59375,11.875 18.03125,15.09375 C18.4375,11.859375 19.375,8.90625 21.90625,7.3125 C22.078125,8.1875 22.515625,8.46875 23.25,8.609375 L23.28125,8.90625 C19.96875,10.484375 18.765625,13.125 18.34375,16.421875 L20.734375,16.421875 C20.515625,15.546875 20.203125,14.421875 19.96875,13.75 L20.296875,13.578125 C20.953125,14.28125 21.8125,15.40625 22.296875,16.203125 C22.75,16.21875 23.015625,16.25 23.1875,16.421875 L21.53125,18.046875 L20.640625,17.109375 Z M6.90625,5.546875 L6.90625,0.984375 L3.5,0.984375 L3.5,5.546875 Z M2.046875,6.21875 L2.046875,-1.875 L2.25,-1.875 C2.875,-1.875 3.5,-1.53125 3.5,-1.390625 L3.5,0.28125 L6.90625,0.28125 L6.90625,-0.953125 L7.15625,-0.953125 C7.625,-0.953125 8.375,-0.625 8.375,-0.484375 L8.375,5.25 C8.859375,5.359375 9.21875,5.546875 9.390625,5.71875 L7.515625,7.15625 L6.671875,6.21875 L3.625,6.21875 L2.046875,6.953125 Z" transform="translate(-0.109375, 20.0625) scale(1, -1)"/>
</svg>