<svg height="21.84375" viewBox="0 0 24 21.84375" width="24" xmlns="http://www.w3.org/2000/svg">
<path d="M1.828125,18.453125 L2.015625,17.765625 L8.046875,17.765625 C8.375,17.765625 8.609375,17.875 8.65625,18.140625 C7.96875,18.8125 6.8125,19.734375 6.8125,19.734375 L5.8125,18.453125 Z M1.828125,12.390625 L2.015625,11.6875 L8.015625,11.6875 C8.359375,11.6875 8.5625,11.8125 8.640625,12.046875 C7.96875,12.703125 6.90625,13.5625 6.90625,13.5625 L5.96875,12.390625 Z M1.828125,9.3125 L2.015625,8.609375 L8.015625,8.609375 C8.359375,8.609375 8.5625,8.734375 8.640625,9 C7.96875,9.640625 6.90625,10.484375 6.90625,10.484375 L5.96875,9.3125 Z M0.859375,15.4375 L1.03125,14.734375 L9.046875,14.734375 C9.390625,14.734375 9.625,14.859375 9.703125,15.125 C8.953125,15.796875 7.796875,16.734375 7.796875,16.734375 L6.8125,15.4375 Z M12.1875,12.1875 L11.90625,12.078125 C12.390625,11.234375 13.03125,9.90625 13.125,8.921875 C14.203125,7.921875 15.453125,10.171875 12.1875,12.1875 Z M18.234375,12.1875 C18.046875,11.359375 17.515625,9.71875 17.109375,8.65625 L17.40625,8.546875 C18.1875,9.390625 18.984375,10.4375 19.4375,11.109375 C19.921875,11.0625 20.15625,11.296875 20.203125,11.515625 Z M6.640625,5.59375 L6.640625,0.90625 L3.359375,0.90625 L3.359375,5.59375 Z M1.890625,6.265625 L1.890625,-1.875 L2.109375,-1.875 C2.71875,-1.875 3.359375,-1.53125 3.359375,-1.390625 L3.359375,0.1875 L6.640625,0.1875 L6.640625,-1.296875 L6.859375,-1.296875 C7.34375,-1.296875 8.0625,-0.90625 8.09375,-0.765625 L8.09375,5.296875 C8.5625,5.40625 8.953125,5.59375 9.09375,5.765625 L7.21875,7.203125 L6.40625,6.265625 L3.453125,6.265625 L1.890625,7.015625 Z M15.03125,19.96875 L15.03125,16.828125 L8.921875,16.828125 L9.125,16.125 L15.03125,16.125 L15.03125,13.65625 L11.609375,13.65625 L9.859375,14.421875 L9.859375,5.71875 L10.078125,5.71875 C10.828125,5.71875 11.296875,6.09375 11.296875,6.21875 L11.296875,7.03125 L14.046875,7.03125 C12.75,4.421875 10.65625,1.84375 8.140625,0.03125 L8.421875,-0.34375 C11.140625,1.125 13.421875,3.09375 15.03125,5.421875 L15.03125,-1.84375 L15.265625,-1.84375 C16.0625,-1.84375 16.5625,-1.46875 16.5625,-1.34375 L16.5625,6.796875 C17.78125,4.078125 19.890625,1.4375 22.296875,-0.03125 C22.421875,0.640625 22.75,1.125 23.359375,1.421875 L23.421875,1.6875 C20.921875,2.65625 18.484375,4.75 17.109375,7.03125 L20.296875,7.03125 L20.296875,5.953125 L20.515625,5.953125 C21.03125,5.953125 21.765625,6.28125 21.796875,6.4375 L21.796875,12.671875 C22.296875,12.765625 22.6875,12.984375 22.84375,13.171875 L20.921875,14.609375 L20.0625,13.65625 L16.5625,13.65625 L16.5625,16.125 L22.46875,16.125 C22.796875,16.125 23.046875,16.25 23.09375,16.515625 C22.3125,17.234375 21.09375,18.234375 21.09375,18.234375 L19.984375,16.828125 L16.5625,16.828125 L16.5625,19.125 C17.0625,19.21875 17.28125,19.4375 17.328125,19.75 Z M14.359375,7.703125 L11.296875,7.703125 L11.296875,12.984375 L15.125,12.984375 L15.125,7.703125 Z M20.296875,7.703125 L16.46875,7.703125 L16.46875,12.984375 L20.296875,12.984375 Z" transform="translate(-0.140625, 19.96875) scale(1, -1)"/>
</svg>