<svg height="21.9375" viewBox="0 0 24 21.9375" width="24" xmlns="http://www.w3.org/2000/svg">
<path d="M9,10.890625 L10.25,9.1875 C10.46875,9.3125 10.609375,9.546875 10.609375,9.8125 C12.234375,11.109375 13.515625,12.1875 14.359375,12.890625 L14.203125,13.203125 C12.078125,12.21875 9.953125,11.25 9,10.890625 Z M1.96875,18.453125 L2.15625,17.765625 L8.40625,17.765625 C8.734375,17.765625 8.953125,17.875 9,18.140625 C8.296875,18.8125 7.15625,19.734375 7.15625,19.734375 L6.140625,18.453125 Z M1.9375,12.390625 L2.140625,11.6875 L8.328125,11.6875 C8.65625,11.6875 8.90625,11.8125 8.953125,12.046875 C8.28125,12.71875 7.21875,13.578125 7.21875,13.578125 L6.265625,12.390625 Z M1.9375,9.3125 L2.140625,8.609375 L8.328125,8.609375 C8.65625,8.609375 8.90625,8.734375 8.953125,9 C8.28125,9.640625 7.21875,10.515625 7.21875,10.515625 L6.265625,9.3125 Z M0.9375,15.4375 L1.125,14.734375 L9.4375,14.734375 C9.765625,14.734375 9.984375,14.859375 10.0625,15.125 C9.3125,15.796875 8.15625,16.75 8.15625,16.75 L7.15625,15.4375 Z M9.546875,16.96875 L9.75,16.265625 L13.46875,16.265625 C13.78125,16.265625 13.984375,16.390625 14.0625,16.65625 C13.46875,17.328125 12.390625,18.234375 12.390625,18.234375 L11.46875,16.96875 Z M19.734375,5.859375 L19.734375,0.59375 L13.0625,0.59375 L13.0625,5.859375 Z M11.515625,6.546875 L11.515625,-1.828125 L11.78125,-1.828125 C12.40625,-1.828125 13.0625,-1.46875 13.0625,-1.296875 L13.0625,-0.09375 L19.734375,-0.09375 L19.734375,-1.609375 L19.9375,-1.609375 C20.46875,-1.609375 21.265625,-1.25 21.28125,-1.109375 L21.28125,5.59375 C21.71875,5.6875 22.078125,5.875 22.21875,6.046875 L20.359375,7.484375 L19.515625,6.546875 L13.171875,6.546875 L11.515625,7.3125 Z M15.078125,20.0625 C14.640625,17.734375 13.734375,15.40625 12.71875,13.9375 L13.078125,13.6875 C13.890625,14.40625 14.65625,15.34375 15.3125,16.421875 L16.6875,16.421875 C16.515625,13.03125 15.859375,9.9375 10.390625,7.46875 L10.65625,7.0625 C16.203125,9.046875 17.640625,11.78125 18.09375,14.921875 C18.5,11.8125 19.46875,8.953125 21.9375,7.375 C22.109375,8.25 22.53125,8.515625 23.28125,8.65625 L23.328125,8.953125 C20.046875,10.5625 18.84375,13.171875 18.40625,16.421875 L20.734375,16.421875 C20.515625,15.546875 20.203125,14.421875 19.96875,13.75 L20.296875,13.5625 C20.953125,14.25 21.8125,15.40625 22.296875,16.171875 C22.75,16.203125 23.015625,16.25 23.1875,16.421875 L21.53125,18.03125 L20.640625,17.109375 L15.71875,17.109375 C16.015625,17.6875 16.296875,18.28125 16.53125,18.9375 C17.015625,18.9375 17.28125,19.125 17.375,19.421875 Z M6.90625,5.546875 L6.90625,0.984375 L3.5,0.984375 L3.5,5.546875 Z M2.046875,6.21875 L2.046875,-1.875 L2.25,-1.875 C2.875,-1.875 3.5,-1.53125 3.5,-1.390625 L3.5,0.28125 L6.90625,0.28125 L6.90625,-0.953125 L7.15625,-0.953125 C7.625,-0.953125 8.375,-0.625 8.375,-0.484375 L8.375,5.25 C8.859375,5.359375 9.21875,5.546875 9.390625,5.71875 L7.515625,7.15625 L6.671875,6.21875 L3.625,6.21875 L2.046875,6.953125 Z" transform="translate(-0.1328125, 20.0625) scale(1, -1)"/>
</svg>