<svg height="21.859375" viewBox="0 0 24 21.859375" width="24" xmlns="http://www.w3.org/2000/svg">
<path d="M18.75,10.625 C16.96875,9.140625 14.59375,7.875 12.359375,7.078125 L12.625,6.640625 C15.125,7.15625 17.78125,8.0625 19.828125,9.21875 C20.296875,9.09375 20.515625,9.140625 20.6875,9.359375 Z M19.78125,7.625 C17.65625,5.59375 14.875,4.078125 12.046875,3.09375 L12.265625,2.65625 C15.40625,3.34375 18.484375,4.484375 20.921875,6.1875 C21.4375,6.078125 21.640625,6.125 21.8125,6.34375 Z M21.265625,4.421875 C18.40625,1.171875 14.96875,-0.359375 10.734375,-1.390625 L10.875,-1.84375 C15.453125,-1.171875 19.203125,0.078125 22.484375,3 C23.046875,2.875 23.28125,2.953125 23.453125,3.1875 Z M1.78125,18.703125 L1.96875,18 L8.0625,18 C8.40625,18 8.640625,18.125 8.6875,18.359375 C7.96875,19.0625 6.84375,19.96875 6.84375,19.96875 L5.828125,18.703125 Z M1.75,12.625 L1.9375,11.953125 L8.046875,11.953125 C8.375,11.953125 8.609375,12.046875 8.65625,12.3125 C7.984375,12.953125 6.953125,13.78125 6.953125,13.78125 L6,12.625 Z M1.75,9.546875 L1.9375,8.859375 L8.046875,8.859375 C8.375,8.859375 8.609375,8.96875 8.65625,9.234375 C7.984375,9.890625 6.953125,10.734375 6.953125,10.734375 L6,9.546875 Z M0.796875,15.671875 L0.953125,15 L8.921875,15 C9.21875,15 9.453125,15.125 9.5,15.359375 C8.8125,16.03125 7.625,16.96875 7.625,16.96875 L6.640625,15.671875 Z M12.21875,16.265625 L12.09375,15.859375 C13.34375,15.5 14.515625,15.046875 15.546875,14.5625 C14.140625,13.78125 12.546875,13.0625 11.046875,12.578125 L11.234375,12.1875 C13.15625,12.546875 15.125,13.203125 16.796875,13.96875 C17.875,13.390625 18.75,12.8125 19.265625,12.34375 C20.40625,12 20.921875,13.4375 18.3125,14.734375 C18.859375,15.046875 19.34375,15.359375 19.75,15.671875 C20.28125,15.53125 20.46875,15.59375 20.640625,15.84375 L18.90625,16.828125 L22.375,16.828125 C22.6875,16.828125 22.921875,16.9375 22.984375,17.203125 C22.21875,17.921875 21.03125,18.890625 21.03125,18.890625 L19.9375,17.546875 L17.015625,17.546875 L17.015625,19.0625 C17.609375,19.15625 17.859375,19.390625 17.90625,19.734375 L15.484375,19.9375 L15.484375,17.546875 L9.671875,17.546875 L9.859375,16.828125 L18.640625,16.828125 C18.171875,16.34375 17.515625,15.84375 16.796875,15.34375 C15.640625,15.71875 14.140625,16.0625 12.21875,16.265625 Z M9.984375,11.6875 L9.984375,8.296875 C9.984375,5.0625 9.8125,1.4375 7.890625,-1.609375 L8.203125,-1.890625 C11.234375,1.078125 11.453125,5.359375 11.453125,8.296875 L11.453125,10.96875 L22.421875,10.96875 C22.75,10.96875 22.984375,11.09375 23.0625,11.359375 C22.3125,12.046875 21.140625,12.984375 21.140625,12.984375 L20.109375,11.6875 L11.734375,11.6875 L9.984375,12.453125 Z M6.625,5.765625 L6.625,1.515625 L3.28125,1.515625 L3.28125,5.765625 Z M1.84375,6.484375 L1.84375,-1.625 L2.0625,-1.625 C2.65625,-1.625 3.28125,-1.296875 3.28125,-1.15625 L3.28125,0.8125 L6.625,0.8125 L6.625,-0.390625 L6.84375,-0.390625 C7.296875,-0.390625 8.046875,-0.03125 8.0625,0.140625 L8.0625,5.5 C8.515625,5.59375 8.90625,5.78125 9.046875,5.953125 L7.203125,7.375 L6.390625,6.484375 L3.40625,6.484375 L1.84375,7.203125 Z" transform="translate(-0.125, 19.96875) scale(1, -1)"/>
</svg>