<svg height="21.84375" viewBox="0 0 24 21.84375" width="24" xmlns="http://www.w3.org/2000/svg">
<path d="M1.875,18.453125 L2.0625,17.765625 L8.421875,17.765625 C8.765625,17.765625 8.953125,17.875 9.03125,18.140625 C8.328125,18.8125 7.171875,19.734375 7.171875,19.734375 L6.140625,18.453125 Z M1.9375,12.390625 L2.140625,11.6875 L8.59375,11.6875 C8.90625,11.6875 9.140625,11.8125 9.1875,12.046875 C8.546875,12.71875 7.46875,13.578125 7.46875,13.578125 L6.53125,12.390625 Z M1.9375,9.3125 L2.140625,8.609375 L8.59375,8.609375 C8.90625,8.609375 9.140625,8.734375 9.1875,9 C8.546875,9.640625 7.46875,10.515625 7.46875,10.515625 L6.53125,9.3125 Z M0.84375,15.4375 L1.015625,14.734375 L9.578125,14.734375 C9.90625,14.734375 10.125,14.859375 10.203125,15.125 C9.484375,15.796875 8.296875,16.75 8.296875,16.75 L7.265625,15.4375 Z M20.78125,19.421875 C20.40625,18.5 19.921875,17.5625 19.375,16.609375 L17.953125,17.90625 L16.921875,16.515625 L15.703125,16.515625 L15.703125,19.0625 C16.265625,19.15625 16.53125,19.390625 16.578125,19.734375 L14.15625,19.96875 L14.15625,16.515625 L10.390625,16.515625 L10.578125,15.8125 L14.15625,15.8125 L14.15625,12.1875 L9.453125,12.1875 L9.640625,11.5 L15.8125,11.5 C15.046875,10.5625 14.234375,9.671875 13.375,8.828125 L12.1875,9.34375 L12.1875,7.703125 C11.28125,6.90625 10.34375,6.171875 9.359375,5.5 L9.625,5.1875 C10.515625,5.6875 11.375,6.21875 12.1875,6.796875 L12.1875,-1.84375 L12.453125,-1.84375 C13.109375,-1.84375 13.734375,-1.484375 13.734375,-1.3125 L13.734375,-0.125 L19.796875,-0.125 L19.796875,-1.6875 L20.046875,-1.6875 C20.5625,-1.6875 21.328125,-1.34375 21.359375,-1.15625 L21.359375,7.609375 C21.84375,7.703125 22.21875,7.890625 22.390625,8.09375 L20.453125,9.578125 L19.5625,8.609375 L14.515625,8.609375 C15.578125,9.53125 16.5625,10.515625 17.46875,11.5 L22.78125,11.5 C23.109375,11.5 23.296875,11.609375 23.375,11.875 C22.625,12.578125 21.40625,13.5625 21.40625,13.5625 L20.328125,12.1875 L18.09375,12.1875 C19.78125,14.15625 21.140625,16.203125 22.125,18.078125 C22.734375,17.953125 22.96875,18.046875 23.109375,18.3125 Z M15.703125,12.1875 L15.703125,15.8125 L18.890625,15.8125 C18.171875,14.609375 17.328125,13.390625 16.390625,12.1875 Z M19.796875,7.890625 L19.796875,4.65625 L13.734375,4.65625 L13.734375,7.890625 Z M13.734375,0.578125 L13.734375,3.953125 L19.796875,3.953125 L19.796875,0.578125 Z M7.125,5.46875 L7.125,0.90625 L3.4375,0.90625 L3.4375,5.46875 Z M1.984375,6.171875 L1.984375,-1.875 L2.203125,-1.875 C2.828125,-1.875 3.4375,-1.515625 3.4375,-1.390625 L3.4375,0.21875 L7.125,0.21875 L7.125,-1.265625 L7.34375,-1.265625 C7.84375,-1.265625 8.59375,-0.890625 8.609375,-0.71875 L8.609375,5.25 C9.03125,5.359375 9.34375,5.515625 9.484375,5.65625 L7.703125,7.03125 L6.90625,6.171875 L3.546875,6.171875 L1.984375,6.90625 Z" transform="translate(-0.109375, 19.96875) scale(1, -1)"/>
</svg>