<svg height="21.78125" viewBox="0 0 24 21.78125" width="24" xmlns="http://www.w3.org/2000/svg">
<path d="M13.3125,18.359375 L12.984375,18.265625 C13.609375,16.921875 14.296875,14.859375 14.296875,13.265625 C15.640625,11.859375 17.203125,15.125 13.3125,18.359375 Z M1.828125,18.671875 L2.015625,17.96875 L7.78125,17.96875 C8.109375,17.96875 8.359375,18.09375 8.40625,18.34375 C7.703125,19.03125 6.578125,19.9375 6.578125,19.9375 L5.5625,18.671875 Z M1.828125,12.625 L2.015625,11.921875 L7.734375,11.921875 C8.0625,11.921875 8.296875,12.03125 8.359375,12.28125 C7.6875,12.9375 6.640625,13.75 6.640625,13.75 L5.71875,12.625 Z M1.828125,9.546875 L2.015625,8.828125 L7.734375,8.828125 C8.0625,8.828125 8.296875,8.953125 8.359375,9.21875 C7.6875,9.859375 6.640625,10.6875 6.640625,10.6875 L5.71875,9.546875 Z M0.859375,15.671875 L1.0625,14.96875 L8.6875,14.96875 C9,14.96875 9.234375,15.09375 9.3125,15.34375 C8.59375,16.03125 7.390625,16.96875 7.390625,16.96875 L6.390625,15.671875 Z M20.734375,18.5 C20.453125,17.1875 19.75,14.5625 19.171875,12.859375 L19.46875,12.75 C20.515625,14.203125 21.640625,16.125 22.21875,17.234375 C22.703125,17.1875 22.96875,17.453125 23.046875,17.6875 Z M9.4375,19.53125 L9.171875,19.375 C10.015625,18.578125 10.9375,17.234375 11.109375,16.203125 C12.578125,15.078125 13.875,18.171875 9.4375,19.53125 Z M8.875,14.5 L8.640625,14.296875 C9.4375,13.609375 10.34375,12.359375 10.578125,11.375 C12.046875,10.34375 13.265625,13.375 8.875,14.5 Z M16.890625,20.046875 L16.890625,11.5 L12.234375,11.5 L12.4375,10.78125 L16.25,10.78125 C15.359375,7.9375 13.9375,5.09375 12.09375,2.96875 L12.4375,2.640625 C14.28125,4.15625 15.765625,6.03125 16.890625,8.140625 L16.890625,1.03125 L17.1875,1.03125 C17.734375,1.03125 18.359375,1.390625 18.359375,1.609375 L18.359375,8.609375 C19.5625,7.390625 20.875,5.65625 21.265625,4.296875 C22.9375,3.140625 24.03125,6.75 18.359375,9.1875 L18.359375,10.78125 L22.46875,10.78125 C22.796875,10.78125 23.046875,10.890625 23.109375,11.15625 C22.375,11.859375 21.1875,12.765625 21.1875,12.765625 L20.1875,11.5 L18.359375,11.5 L18.359375,19.125 C18.953125,19.21875 19.15625,19.46875 19.203125,19.796875 Z M6.34375,5.734375 L6.34375,1.21875 L3.34375,1.21875 L3.34375,5.734375 Z M1.890625,6.453125 L1.890625,-1.65625 L2.109375,-1.65625 C2.71875,-1.65625 3.34375,-1.3125 3.34375,-1.15625 L3.34375,0.53125 L6.34375,0.53125 L6.34375,-0.765625 L6.546875,-0.765625 C7.0625,-0.765625 7.75,-0.40625 7.78125,-0.234375 L7.78125,5.5 C8.25,5.5625 8.609375,5.765625 8.78125,5.953125 L6.9375,7.34375 L6.09375,6.453125 L3.453125,6.453125 L1.890625,7.171875 Z M11.875,2.015625 L11.875,7.578125 C12.265625,7.65625 12.59375,7.84375 12.75,8.015625 L11.046875,9.34375 L10.21875,8.5 L8.359375,8.5 L8.5625,7.78125 L10.4375,7.78125 L10.4375,1.4375 C9.59375,0.859375 8.734375,0.34375 8.15625,0 L9.1875,-1.734375 C9.390625,-1.609375 9.484375,-1.46875 9.40625,-1.203125 C10.03125,-0.53125 10.96875,0.640625 11.609375,1.53125 C12.703125,-0.765625 14.0625,-1.265625 16.96875,-1.265625 C18.765625,-1.265625 20.765625,-1.265625 22.390625,-1.265625 C22.4375,-0.59375 22.75,-0.171875 23.328125,-0.046875 L23.328125,0.265625 C21.40625,0.21875 18.90625,0.21875 16.96875,0.21875 C14.328125,0.21875 13.03125,0.453125 11.875,2.015625 Z" transform="translate(-0.4453125, 20.046875) scale(1, -1)"/>
</svg>