<svg height="21.921875" viewBox="0 0 24 21.921875" width="24" xmlns="http://www.w3.org/2000/svg">
<path d="M1.828125,18.53125 L2.015625,17.859375 L7.84375,17.859375 C8.1875,17.859375 8.40625,17.96875 8.46875,18.234375 C7.75,18.90625 6.59375,19.828125 6.59375,19.828125 L5.609375,18.53125 Z M1.828125,12.484375 L2.015625,11.78125 L7.828125,11.78125 C8.15625,11.78125 8.375,11.90625 8.421875,12.140625 C7.78125,12.796875 6.71875,13.65625 6.71875,13.65625 L5.765625,12.484375 Z M1.828125,9.40625 L2.015625,8.71875 L7.828125,8.71875 C8.15625,8.71875 8.375,8.828125 8.421875,9.09375 C7.78125,9.71875 6.71875,10.5625 6.71875,10.5625 L5.765625,9.40625 Z M0.84375,15.53125 L1.015625,14.828125 L8.8125,14.828125 C9.125,14.828125 9.359375,14.953125 9.4375,15.1875 C8.71875,15.890625 7.5625,16.828125 7.5625,16.828125 L6.53125,15.53125 Z M16.9375,20.046875 L16.9375,17.515625 L13.875,17.515625 L13.875,19.15625 C14.453125,19.25 14.6875,19.484375 14.734375,19.828125 L12.390625,20.046875 L12.390625,17.515625 L9.3125,17.515625 L9.5,16.828125 L12.390625,16.828125 L12.390625,15.078125 L9.859375,15.078125 L10.0625,14.359375 L12.390625,14.359375 L12.390625,12.265625 L8.90625,12.265625 L9.09375,11.5625 L14.8125,11.5625 L14.8125,9.890625 L12.078125,9.890625 L10.484375,10.625 L10.484375,6.890625 L8.78125,6.890625 L8.953125,6.171875 L10.484375,6.171875 L10.484375,3.640625 L8.375,3.640625 L8.5625,2.953125 L10.484375,2.953125 L10.484375,-1.796875 L10.734375,-1.796875 C11.359375,-1.796875 11.953125,-1.46875 11.953125,-1.265625 L11.953125,2.953125 L19.203125,2.953125 L19.203125,0.546875 C19.203125,0.21875 19.109375,0.078125 18.671875,0.078125 C18.1875,0.078125 16.03125,0.234375 16.03125,0.234375 L16.03125,-0.125 C16.984375,-0.265625 17.5625,-0.4375 17.875,-0.703125 C18.171875,-0.9375 18.28125,-1.375 18.359375,-1.796875 C20.46875,-1.609375 20.71875,-0.84375 20.71875,0.390625 L20.71875,2.953125 L22.921875,2.953125 C23.203125,2.953125 23.421875,3.078125 23.5,3.34375 C22.9375,4.015625 21.9375,4.921875 21.9375,4.921875 L21.09375,3.640625 L20.71875,3.640625 L20.71875,6.171875 L22.625,6.171875 C22.96875,6.171875 23.15625,6.28125 23.203125,6.546875 C22.6875,7.171875 21.71875,8.046875 21.71875,8.046875 L20.90625,6.890625 L20.71875,6.890625 L20.71875,8.90625 C21.1875,8.96875 21.578125,9.1875 21.71875,9.390625 L19.75,10.828125 L18.953125,9.890625 L16.265625,9.890625 L16.265625,11.5625 L22.4375,11.5625 C22.78125,11.5625 22.984375,11.6875 23.0625,11.953125 C22.375,12.625 21.21875,13.5625 21.21875,13.5625 L20.1875,12.265625 L18.484375,12.265625 L18.484375,14.359375 L21.625,14.359375 C21.9375,14.359375 22.15625,14.46875 22.21875,14.734375 C21.546875,15.390625 20.453125,16.265625 20.453125,16.265625 L19.515625,15.078125 L18.484375,15.078125 L18.484375,16.828125 L21.953125,16.828125 C22.296875,16.828125 22.53125,16.9375 22.578125,17.203125 C21.890625,17.875 20.78125,18.765625 20.78125,18.765625 L19.828125,17.515625 L18.484375,17.515625 L18.484375,19.15625 C19.0625,19.25 19.265625,19.484375 19.3125,19.828125 Z M13.875,16.828125 L16.9375,16.828125 L16.9375,15.078125 L13.875,15.078125 Z M13.875,14.359375 L16.9375,14.359375 L16.9375,12.265625 L13.875,12.265625 Z M11.953125,3.640625 L11.953125,6.171875 L14.8125,6.171875 L14.8125,3.640625 Z M16.265625,3.640625 L16.265625,6.171875 L19.203125,6.171875 L19.203125,3.640625 Z M11.953125,6.890625 L11.953125,9.1875 L14.8125,9.1875 L14.8125,6.890625 Z M16.265625,6.890625 L16.265625,9.1875 L19.203125,9.1875 L19.203125,6.890625 Z M6.53125,5.65625 L6.53125,0.859375 L3.3125,0.859375 L3.3125,5.65625 Z M1.875,6.390625 L1.875,-1.875 L2.09375,-1.875 C2.6875,-1.875 3.3125,-1.53125 3.3125,-1.390625 L3.3125,0.1875 L6.53125,0.1875 L6.53125,-1.203125 L6.75,-1.203125 C7.25,-1.203125 7.9375,-0.84375 7.96875,-0.671875 L7.96875,5.46875 C8.375,5.546875 8.734375,5.71875 8.875,5.875 L7.125,7.25 L6.3125,6.390625 L3.40625,6.390625 L1.875,7.078125 Z" transform="translate(-0.171875, 20.046875) scale(1, -1)"/>
</svg>