<svg height="21.984375" viewBox="0 0 24 21.984375" width="24" xmlns="http://www.w3.org/2000/svg">
<path d="M11.234375,20.0625 L10.9375,19.9375 C11.640625,19.0625 12.4375,17.6875 12.578125,16.578125 C14.015625,15.40625 15.484375,18.359375 11.234375,20.0625 Z M1.828125,18.40625 L2.015625,17.734375 L7.796875,17.734375 C8.140625,17.734375 8.375,17.859375 8.453125,18.125 C7.734375,18.796875 6.578125,19.703125 6.578125,19.703125 L5.5625,18.40625 Z M1.796875,12.359375 L1.984375,11.65625 L7.796875,11.65625 C8.140625,11.65625 8.359375,11.78125 8.40625,12.03125 C7.734375,12.671875 6.703125,13.53125 6.703125,13.53125 L5.734375,12.359375 Z M1.796875,9.28125 L1.984375,8.59375 L7.796875,8.59375 C8.140625,8.59375 8.359375,8.71875 8.40625,8.96875 C7.734375,9.59375 6.703125,10.46875 6.703125,10.46875 L5.734375,9.28125 Z M0.84375,15.40625 L1.015625,14.71875 L8.734375,14.71875 C9.046875,14.71875 9.28125,14.828125 9.34375,15.09375 C8.640625,15.765625 7.46875,16.703125 7.46875,16.703125 L6.484375,15.40625 Z M19.578125,9.34375 L19.578125,6.75 L17.546875,6.75 L17.546875,9.34375 Z M17.734375,20.109375 C17.375,18.953125 16.78125,17.40625 16.203125,16.265625 L9.140625,16.265625 L9.34375,15.546875 L12.53125,15.546875 L12.53125,13.296875 L9.625,13.296875 L9.84375,12.578125 L12.53125,12.578125 L12.53125,10.0625 L8.59375,10.0625 L8.78125,9.34375 L12.53125,9.34375 L12.53125,6.75 L9.671875,6.75 L9.890625,6.03125 L11.96875,6.03125 C11.15625,3.53125 9.8125,1.21875 7.921875,-0.578125 L8.1875,-0.9375 C10.015625,0.3125 11.46875,1.875 12.53125,3.671875 L12.53125,-1.796875 L12.75,-1.796875 C13.484375,-1.796875 13.96875,-1.4375 13.96875,-1.3125 L13.96875,6.03125 L16.109375,6.03125 L16.109375,-1.796875 L16.3125,-1.796875 C17.0625,-1.796875 17.546875,-1.4375 17.546875,-1.3125 L17.546875,5.25 C18.5,2.609375 19.984375,0.53125 21.703125,-0.8125 C21.90625,-0.03125 22.421875,0.453125 23.0625,0.578125 L23.109375,0.8125 C21.125,1.78125 19.03125,3.71875 17.828125,6.03125 L19.578125,6.03125 L19.578125,5.015625 L19.78125,5.015625 C20.25,5.015625 20.96875,5.375 21,5.515625 L21,9.34375 L22.75,9.34375 C23.09375,9.34375 23.28125,9.453125 23.359375,9.71875 C22.78125,10.390625 21.75,11.296875 21.75,11.296875 L21,10.21875 L21,12.390625 C21.390625,12.453125 21.71875,12.640625 21.84375,12.8125 L20.140625,14.109375 L19.375,13.296875 L17.546875,13.296875 L17.546875,15.546875 L22.171875,15.546875 C22.515625,15.546875 22.75,15.671875 22.828125,15.9375 C22.078125,16.65625 20.875,17.5625 20.875,17.5625 L19.828125,16.265625 L16.875,16.265625 C17.765625,17.109375 18.640625,18.171875 19.25,18.9375 C19.78125,18.9375 20.046875,19.125 20.140625,19.390625 Z M19.578125,10.0625 L17.546875,10.0625 L17.546875,12.578125 L19.578125,12.578125 Z M13.96875,9.34375 L16.109375,9.34375 L16.109375,6.75 L13.96875,6.75 Z M13.96875,10.0625 L13.96875,12.578125 L16.109375,12.578125 L16.109375,10.0625 Z M13.96875,15.546875 L16.109375,15.546875 L16.109375,13.296875 L13.96875,13.296875 Z M6.390625,5.546875 L6.390625,0.984375 L3.34375,0.984375 L3.34375,5.546875 Z M1.890625,6.21875 L1.890625,-1.875 L2.109375,-1.875 C2.71875,-1.875 3.34375,-1.53125 3.34375,-1.390625 L3.34375,0.28125 L6.390625,0.28125 L6.390625,-0.953125 L6.625,-0.953125 C7.109375,-0.953125 7.828125,-0.59375 7.84375,-0.453125 L7.84375,5.25 C8.328125,5.359375 8.71875,5.546875 8.859375,5.71875 L7.015625,7.15625 L6.171875,6.21875 L3.453125,6.21875 L1.890625,6.953125 Z" transform="translate(-0.1015625, 20.109375) scale(1, -1)"/>
</svg>