<svg height="21.765625" viewBox="0 0 24 21.765625" width="24" xmlns="http://www.w3.org/2000/svg">
<path d="M10.296875,17.59375 L10.03125,17.421875 C10.5625,16.875 11.203125,15.9375 11.375,15.171875 C12.546875,14.28125 13.78125,16.578125 10.296875,17.59375 Z M17.015625,17.65625 L16.75,17.46875 C17.328125,16.9375 17.96875,15.984375 18.140625,15.234375 C19.34375,14.375 20.515625,16.703125 17.015625,17.65625 Z M1.796875,18.625 L1.984375,17.953125 L7.9375,17.953125 C8.28125,17.953125 8.515625,18.078125 8.59375,18.3125 C7.875,19.015625 6.71875,19.921875 6.71875,19.921875 L5.71875,18.625 Z M1.796875,12.578125 L1.984375,11.875 L7.890625,11.875 C8.234375,11.875 8.453125,11.96875 8.5,12.234375 C7.84375,12.890625 6.796875,13.75 6.796875,13.75 L5.828125,12.578125 Z M1.796875,9.5 L1.984375,8.8125 L7.890625,8.8125 C8.234375,8.8125 8.453125,8.921875 8.5,9.1875 C7.84375,9.84375 6.796875,10.6875 6.796875,10.6875 L5.828125,9.5 Z M0.796875,15.625 L0.984375,14.921875 L8.875,14.921875 C9.1875,14.921875 9.4375,15.046875 9.484375,15.28125 C8.78125,15.984375 7.609375,16.921875 7.609375,16.921875 L6.59375,15.625 Z M16.015625,8.15625 C14.765625,6.796875 12.9375,5.453125 11.296875,4.5625 L11.65625,4.125 C13.484375,4.796875 15.484375,5.875 16.890625,6.953125 C17.328125,6.859375 17.546875,6.90625 17.6875,7.125 Z M17.953125,6.046875 C16.0625,4.203125 13.515625,2.765625 10.96875,1.796875 L11.234375,1.34375 C13.984375,2.09375 16.78125,3.234375 18.859375,4.796875 C19.375,4.703125 19.578125,4.734375 19.75,4.96875 Z M20.15625,4.03125 C17.25,0.90625 13.921875,-0.484375 9.703125,-1.390625 L9.84375,-1.84375 C14.375,-1.265625 17.953125,-0.125 21.21875,2.71875 C21.765625,2.59375 22.015625,2.65625 22.171875,2.90625 Z M16.171875,10.515625 C17.421875,8.28125 19.65625,6.4375 22.15625,5.296875 C22.265625,5.875 22.609375,6.4375 23.15625,6.625 L23.1875,6.9375 C20.515625,7.609375 18.03125,9.03125 16.515625,10.75 C17.0625,10.78125 17.25,10.921875 17.296875,11.140625 L15.046875,11.71875 L14.96875,11.5625 L15,12 L15,17.859375 C15.453125,17.953125 15.859375,18.171875 16.015625,18.3125 L14.09375,19.78125 L13.34375,18.84375 L9.078125,18.84375 L9.28125,18.140625 L13.5625,18.140625 L13.5625,14.8125 C11.65625,14.109375 9.703125,13.46875 8.828125,13.21875 L9.765625,11.65625 C10.015625,11.734375 10.15625,11.921875 10.21875,12.21875 C11.640625,13.0625 12.765625,13.796875 13.5625,14.328125 L13.5625,12.125 C13.5625,11.828125 13.484375,11.71875 13.15625,11.71875 C12.75,11.71875 11.234375,11.828125 11.234375,11.828125 L11.234375,11.453125 C11.96875,11.359375 12.390625,11.1875 12.640625,10.984375 C12.890625,10.796875 12.953125,10.46875 13.015625,10.125 C13.625,10.171875 14.0625,10.296875 14.359375,10.484375 C13.109375,8.5625 10.984375,6.5 8.859375,5.296875 L8.96875,4.984375 C12,6.1875 14.765625,8.46875 16.171875,10.515625 Z M16.03125,18.84375 L16.25,18.140625 L20.59375,18.140625 L20.59375,15 C18.671875,14.296875 16.703125,13.6875 15.796875,13.4375 L16.84375,11.953125 C17.046875,12.046875 17.1875,12.234375 17.234375,12.53125 C18.671875,13.3125 19.796875,14.015625 20.59375,14.546875 L20.59375,12.125 C20.59375,11.828125 20.5,11.71875 20.140625,11.71875 C19.75,11.71875 18.21875,11.828125 18.21875,11.828125 L18.21875,11.453125 C18.953125,11.328125 19.390625,11.15625 19.625,10.9375 C19.875,10.734375 19.9375,10.375 19.984375,9.984375 C21.8125,10.171875 22.015625,10.828125 22.015625,11.96875 L22.015625,17.859375 C22.484375,17.953125 22.921875,18.171875 23.0625,18.3125 L21.09375,19.78125 L20.359375,18.84375 Z M6.453125,5.71875 L6.453125,1.171875 L3.359375,1.171875 L3.359375,5.71875 Z M1.890625,6.40625 L1.890625,-1.703125 L2.109375,-1.703125 C2.71875,-1.703125 3.359375,-1.34375 3.359375,-1.203125 L3.359375,0.484375 L6.453125,0.484375 L6.453125,-0.796875 L6.703125,-0.796875 C7.171875,-0.796875 7.921875,-0.4375 7.9375,-0.28125 L7.9375,5.453125 C8.40625,5.515625 8.78125,5.71875 8.953125,5.90625 L7.078125,7.3125 L6.234375,6.40625 L3.453125,6.40625 L1.890625,7.15625 Z" transform="translate(0.0078125, 19.921875) scale(1, -1)"/>
</svg>