<svg height="21.96875" viewBox="0 0 24 21.96875" width="24" xmlns="http://www.w3.org/2000/svg">
<path d="M1.890625,18.453125 L2.09375,17.765625 L8.328125,17.765625 C8.65625,17.765625 8.875,17.875 8.921875,18.140625 C8.234375,18.8125 7.078125,19.734375 7.078125,19.734375 L6.078125,18.453125 Z M1.890625,12.390625 L2.09375,11.6875 L8.28125,11.6875 C8.609375,11.6875 8.828125,11.8125 8.875,12.046875 C8.203125,12.71875 7.15625,13.578125 7.15625,13.578125 L6.1875,12.390625 Z M1.890625,9.3125 L2.09375,8.609375 L8.28125,8.609375 C8.609375,8.609375 8.828125,8.734375 8.875,9 C8.203125,9.640625 7.15625,10.515625 7.15625,10.515625 L6.1875,9.3125 Z M0.890625,15.4375 L1.078125,14.734375 L9.390625,14.734375 C9.71875,14.734375 9.9375,14.859375 10.015625,15.125 C9.28125,15.796875 8.140625,16.75 8.140625,16.75 L7.109375,15.4375 Z M14.859375,20.09375 C13.703125,17.859375 11.421875,15.3125 9.21875,13.875 L9.453125,13.5625 C10.015625,13.796875 10.53125,14.09375 11.0625,14.421875 C11.828125,13.875 12.71875,12.984375 13.015625,12.234375 C14.46875,11.46875 15.40625,14.09375 11.5,14.65625 C12.1875,15.125 12.859375,15.625 13.515625,16.15625 C14.359375,15.640625 15.34375,14.78125 15.75,14.109375 C17.203125,13.46875 17.828125,16.15625 13.875,16.46875 L14.546875,17.0625 L19.46875,17.0625 C17.1875,13.515625 13.703125,11.140625 9,9.40625 L9.265625,9.03125 C10.46875,9.34375 11.5625,9.703125 12.59375,10.109375 C11.875,8.8125 10.890625,7.34375 10.015625,6.4375 L10.296875,6.171875 C11.328125,6.8125 12.40625,7.75 13.3125,8.6875 L15.4375,8.6875 L15.4375,5.8125 L9.53125,5.8125 L9.71875,5.109375 L15.4375,5.109375 L15.4375,0.4375 L12.265625,0.4375 L12.265625,3.484375 C12.8125,3.546875 13.03125,3.765625 13.109375,4.109375 L10.796875,4.3125 L10.796875,-1.875 L11.0625,-1.875 C11.609375,-1.875 12.265625,-1.53125 12.265625,-1.34375 L12.265625,-0.28125 L20.234375,-0.28125 L20.234375,-1.734375 L20.515625,-1.734375 C21.09375,-1.734375 21.71875,-1.390625 21.71875,-1.203125 L21.71875,3.484375 C22.3125,3.578125 22.53125,3.796875 22.578125,4.125 L20.234375,4.34375 L20.234375,0.4375 L17.015625,0.4375 L17.015625,5.109375 L22.734375,5.109375 C23.09375,5.109375 23.296875,5.234375 23.359375,5.5 C22.609375,6.1875 21.359375,7.203125 21.359375,7.203125 L20.25,5.8125 L17.015625,5.8125 L17.015625,8.6875 L21.359375,8.6875 C21.703125,8.6875 21.9375,8.8125 21.984375,9.046875 C21.234375,9.765625 19.984375,10.75 19.984375,10.75 L18.9375,9.390625 L13.96875,9.390625 L14.59375,10.125 C15.171875,10.078125 15.34375,10.171875 15.4375,10.421875 L14.140625,10.75 C17.328125,12.265625 19.625,14.25 21.4375,16.828125 C21.984375,16.84375 22.3125,16.9375 22.515625,17.109375 L20.6875,18.671875 L19.75,17.765625 L15.234375,17.765625 C15.640625,18.1875 16.015625,18.625 16.3125,19.03125 C16.921875,18.9375 17.09375,19.015625 17.203125,19.25 Z M6.8125,5.59375 L6.8125,0.75 L3.40625,0.75 L3.40625,5.59375 Z M1.9375,6.265625 L1.9375,-1.875 L2.1875,-1.875 C2.78125,-1.875 3.40625,-1.53125 3.40625,-1.375 L3.40625,0.046875 L6.8125,0.046875 L6.8125,-1.46875 L7.03125,-1.46875 C7.53125,-1.46875 8.28125,-1.109375 8.28125,-0.953125 L8.28125,5.296875 C8.765625,5.40625 9.125,5.59375 9.28125,5.765625 L7.421875,7.203125 L6.578125,6.265625 L3.53125,6.265625 L1.9375,7.015625 Z" transform="translate(-0.125, 20.09375) scale(1, -1)"/>
</svg>