<svg height="21.984375" viewBox="0 0 24 21.984375" width="24" xmlns="http://www.w3.org/2000/svg">
<path d="M1.84375,18.453125 L2.046875,17.765625 L8.28125,17.765625 C8.609375,17.765625 8.828125,17.875 8.90625,18.140625 C8.1875,18.8125 7.0625,19.734375 7.0625,19.734375 L6.046875,18.453125 Z M1.84375,12.390625 L2.046875,11.6875 L8.234375,11.6875 C8.5625,11.6875 8.78125,11.8125 8.828125,12.046875 C8.15625,12.71875 7.125,13.578125 7.125,13.578125 L6.140625,12.390625 Z M1.84375,9.3125 L2.046875,8.609375 L8.234375,8.609375 C8.5625,8.609375 8.78125,8.734375 8.828125,9 C8.15625,9.640625 7.125,10.515625 7.125,10.515625 L6.140625,9.3125 Z M0.84375,15.4375 L1.015625,14.734375 L9.234375,14.734375 C9.578125,14.734375 9.796875,14.859375 9.859375,15.125 C9.140625,15.796875 7.984375,16.75 7.984375,16.75 L6.953125,15.4375 Z M10.796875,16.03125 L10.515625,15.90625 C11.0625,14.921875 11.765625,13.390625 11.859375,12.1875 C13.296875,10.921875 14.828125,13.796875 10.796875,16.03125 Z M14.609375,16.6875 L14.296875,16.5625 C14.78125,15.53125 15.359375,13.984375 15.4375,12.796875 C16.796875,11.5 18.4375,14.328125 14.609375,16.6875 Z M20.1875,20.109375 C17.859375,19.078125 13.3125,17.78125 9.671875,17.140625 L9.765625,16.734375 C13.578125,16.96875 18.03125,17.765625 20.828125,18.453125 C21.40625,18.21875 21.8125,18.234375 22.0625,18.4375 Z M19.984375,17.09375 C19.375,15 18.4375,12.765625 17.640625,11.359375 L18.03125,11.140625 C19.203125,12.265625 20.5,14.046875 21.484375,15.765625 C21.953125,15.71875 22.25,15.9375 22.34375,16.203125 Z M20.25,4.828125 L20.25,0.53125 L16.828125,0.53125 L16.828125,6.359375 L22.53125,6.359375 C22.875,6.359375 23.109375,6.484375 23.15625,6.75 C22.421875,7.4375 21.171875,8.421875 21.171875,8.421875 L20.09375,7.0625 L16.828125,7.0625 L16.828125,10.125 L22.015625,10.125 C22.34375,10.125 22.5625,10.25 22.625,10.515625 C21.859375,11.203125 20.65625,12.140625 20.65625,12.140625 L19.609375,10.828125 L10.109375,10.828125 L10.296875,10.125 L15.265625,10.125 L15.265625,7.0625 L9.390625,7.0625 L9.578125,6.359375 L15.265625,6.359375 L15.265625,0.53125 L11.921875,0.53125 L11.921875,3.953125 C12.5,4.0625 12.71875,4.25 12.796875,4.609375 L10.4375,4.828125 L10.4375,-1.875 L10.703125,-1.875 C11.28125,-1.875 11.921875,-1.53125 11.921875,-1.34375 L11.921875,-0.171875 L20.25,-0.171875 L20.25,-1.75 L20.546875,-1.75 C21.125,-1.75 21.765625,-1.4375 21.765625,-1.25 L21.765625,3.953125 C22.375,4.0625 22.578125,4.25 22.65625,4.578125 Z M6.796875,5.546875 L6.796875,0.984375 L3.390625,0.984375 L3.390625,5.546875 Z M1.921875,6.21875 L1.921875,-1.875 L2.15625,-1.875 C2.765625,-1.875 3.390625,-1.53125 3.390625,-1.390625 L3.390625,0.28125 L6.796875,0.28125 L6.796875,-0.953125 L7.03125,-0.953125 C7.515625,-0.953125 8.25,-0.625 8.28125,-0.484375 L8.28125,5.25 C8.734375,5.359375 9.09375,5.546875 9.265625,5.71875 L7.390625,7.15625 L6.578125,6.21875 L3.5,6.21875 L1.921875,6.953125 Z" transform="translate(0, 20.109375) scale(1, -1)"/>
</svg>