<svg height="21.8125" viewBox="0 0 24 21.8125" width="24" xmlns="http://www.w3.org/2000/svg">
<path d="M1.84375,18.453125 L2.046875,17.78125 L8.375,17.78125 C8.71875,17.78125 8.953125,17.90625 9,18.171875 C8.28125,18.84375 7.125,19.75 7.125,19.75 L6.09375,18.453125 Z M1.890625,12.40625 L2.09375,11.71875 L8.5625,11.71875 C8.90625,11.71875 9.09375,11.828125 9.140625,12.078125 C8.5,12.71875 7.4375,13.578125 7.4375,13.578125 L6.484375,12.40625 Z M1.890625,9.34375 L2.09375,8.640625 L8.5625,8.640625 C8.90625,8.640625 9.09375,8.765625 9.140625,9 C8.5,9.671875 7.4375,10.53125 7.4375,10.53125 L6.484375,9.34375 Z M0.796875,15.453125 L0.953125,14.765625 L9.546875,14.765625 C9.890625,14.765625 10.109375,14.875 10.171875,15.140625 C9.453125,15.8125 8.28125,16.75 8.28125,16.75 L7.21875,15.453125 Z M10.34375,13.515625 L10.34375,7.734375 L10.53125,7.734375 C11.15625,7.734375 11.8125,8.0625 11.8125,8.203125 L11.8125,8.90625 L15.171875,8.90625 L15.171875,6.40625 L10.109375,6.40625 L10.296875,5.71875 L15.171875,5.71875 L15.171875,3.1875 L10.53125,3.1875 L10.734375,2.46875 L15.171875,2.46875 L15.171875,-0.359375 L9.234375,-0.359375 L9.4375,-1.03125 L22.53125,-1.03125 C22.84375,-1.03125 23.09375,-0.90625 23.140625,-0.671875 C22.375,0.078125 21.125,1.0625 21.125,1.0625 L19.984375,-0.359375 L16.734375,-0.359375 L16.734375,2.46875 L21.234375,2.46875 C21.578125,2.46875 21.8125,2.59375 21.859375,2.859375 C21.140625,3.546875 19.9375,4.46875 19.9375,4.46875 L18.9375,3.1875 L16.734375,3.1875 L16.734375,5.71875 L21.765625,5.71875 C22.078125,5.71875 22.3125,5.828125 22.390625,6.09375 C21.640625,6.796875 20.453125,7.703125 20.453125,7.703125 L19.4375,6.40625 L16.734375,6.40625 L16.734375,8.90625 L20.203125,8.90625 L20.203125,7.96875 L20.453125,7.96875 C20.921875,7.96875 21.671875,8.296875 21.703125,8.453125 L21.703125,12.53125 C22.15625,12.625 22.5625,12.8125 22.734375,13.015625 L20.828125,14.421875 L19.96875,13.515625 L11.921875,13.515625 L10.34375,14.234375 Z M20.203125,12.8125 L20.203125,9.59375 L16.734375,9.59375 L16.734375,12.8125 Z M11.8125,9.59375 L11.8125,12.8125 L15.171875,12.8125 L15.171875,9.59375 Z M7.078125,5.546875 L7.078125,1.015625 L3.4375,1.015625 L3.4375,5.546875 Z M1.96875,6.234375 L1.96875,-1.875 L2.1875,-1.875 C2.78125,-1.875 3.4375,-1.515625 3.4375,-1.375 L3.4375,0.3125 L7.078125,0.3125 L7.078125,-0.953125 L7.296875,-0.953125 C7.796875,-0.953125 8.546875,-0.59375 8.5625,-0.453125 L8.5625,5.28125 C9.03125,5.375 9.40625,5.5625 9.578125,5.734375 L7.703125,7.171875 L6.859375,6.234375 L3.53125,6.234375 L1.96875,6.984375 Z M17.71875,19.9375 L17.71875,17.15625 L14.1875,17.15625 L14.1875,19.125 C14.734375,19.203125 14.921875,19.421875 14.96875,19.734375 L12.71875,19.9375 L12.71875,17.15625 L9.53125,17.15625 L9.71875,16.46875 L12.71875,16.46875 L12.71875,14.1875 L12.984375,14.1875 C13.5625,14.1875 14.1875,14.546875 14.1875,14.734375 L14.1875,16.46875 L17.71875,16.46875 L17.71875,14.203125 L18,14.203125 C18.546875,14.203125 19.203125,14.546875 19.203125,14.734375 L19.203125,16.46875 L22.421875,16.46875 C22.75,16.46875 22.96875,16.578125 23.046875,16.828125 C22.375,17.515625 21.265625,18.40625 21.265625,18.40625 L20.25,17.15625 L19.203125,17.15625 L19.203125,19.125 C19.734375,19.203125 19.9375,19.421875 19.984375,19.734375 Z" transform="translate(0.03125, 19.9375) scale(1, -1)"/>
</svg>