<svg height="21.890625" viewBox="0 0 24 21.890625" width="24" xmlns="http://www.w3.org/2000/svg">
<path d="M1.796875,18.453125 L1.984375,17.765625 L8.109375,17.765625 C8.453125,17.765625 8.65625,17.875 8.734375,18.140625 C8.015625,18.8125 6.890625,19.734375 6.890625,19.734375 L5.875,18.453125 Z M1.796875,12.390625 L1.984375,11.6875 L8.09375,11.6875 C8.421875,11.6875 8.640625,11.8125 8.71875,12.046875 C8.046875,12.703125 7.015625,13.5625 7.015625,13.5625 L6.046875,12.390625 Z M1.796875,9.3125 L1.984375,8.609375 L8.09375,8.609375 C8.421875,8.609375 8.640625,8.734375 8.71875,9 C8.046875,9.640625 7.015625,10.484375 7.015625,10.484375 L6.046875,9.3125 Z M0.8125,15.4375 L1.015625,14.734375 L9.125,14.734375 C9.453125,14.734375 9.671875,14.859375 9.75,15.125 C9.03125,15.796875 7.875,16.734375 7.875,16.734375 L6.84375,15.4375 Z M8.96875,17.140625 L9.140625,16.4375 L12.390625,16.4375 L12.390625,14.359375 L12.640625,14.359375 C13.421875,14.359375 13.890625,14.59375 13.890625,14.734375 L13.890625,16.4375 L17.28125,16.4375 L17.28125,14.375 L17.5625,14.375 C18.4375,14.40625 18.8125,14.71875 18.8125,14.828125 L18.8125,16.4375 L22.34375,16.4375 C22.6875,16.4375 22.890625,16.5625 22.9375,16.828125 C22.265625,17.46875 21.1875,18.359375 21.1875,18.359375 L20.234375,17.140625 L18.8125,17.140625 L18.8125,19.15625 C19.375,19.21875 19.5625,19.484375 19.609375,19.796875 L17.28125,20.015625 L17.28125,17.140625 L13.890625,17.140625 L13.890625,19.15625 C14.453125,19.21875 14.65625,19.46875 14.6875,19.796875 L12.390625,20.015625 L12.390625,17.140625 Z M6.703125,5.5625 L6.703125,0.796875 L3.34375,0.796875 L3.34375,5.5625 Z M1.875,6.265625 L1.875,-1.875 L2.09375,-1.875 C2.6875,-1.875 3.34375,-1.53125 3.34375,-1.390625 L3.34375,0.09375 L6.703125,0.09375 L6.703125,-1.484375 L6.90625,-1.484375 C7.390625,-1.484375 8.140625,-1.125 8.15625,-0.984375 L8.15625,5.28125 C8.609375,5.375 8.96875,5.5625 9.140625,5.734375 L7.265625,7.171875 L6.453125,6.265625 L3.4375,6.265625 L1.875,6.984375 Z M8.765625,10.0625 L8.953125,9.34375 L11.015625,9.34375 L11.015625,6.1875 L9.03125,6.1875 L9.21875,5.5 L14.828125,5.5 L14.828125,2.875 L9.3125,2.875 L9.5,2.1875 L14.828125,2.1875 L14.828125,-1.828125 L15.046875,-1.828125 C15.84375,-1.828125 16.34375,-1.4375 16.34375,-1.3125 L16.34375,2.1875 L21.859375,2.1875 C22.203125,2.1875 22.4375,2.296875 22.484375,2.546875 C21.765625,3.265625 20.59375,4.171875 20.59375,4.171875 L19.578125,2.875 L16.34375,2.875 L16.34375,5.5 L22.515625,5.5 C22.84375,5.5 23.0625,5.59375 23.140625,5.859375 C22.46875,6.53125 21.40625,7.421875 21.40625,7.421875 L20.46875,6.1875 L20.234375,6.1875 L20.234375,9.34375 L22.65625,9.34375 C22.984375,9.34375 23.1875,9.453125 23.234375,9.71875 C22.734375,10.375 21.765625,11.203125 21.765625,11.203125 L20.96875,10.0625 L20.234375,10.0625 L20.234375,13.015625 L22.125,13.015625 C22.46875,13.015625 22.6875,13.125 22.734375,13.390625 C22.0625,14.0625 20.921875,14.96875 20.921875,14.96875 L19.9375,13.703125 L9.078125,13.703125 L9.265625,13.015625 L11.015625,13.015625 L11.015625,10.0625 Z M12.484375,13.015625 L14.875,13.015625 L14.875,6.1875 L12.484375,6.1875 L12.484375,9.34375 L14.203125,9.34375 C14.515625,9.34375 14.734375,9.453125 14.78125,9.71875 C14.296875,10.3125 13.484375,11.09375 13.484375,11.09375 L12.75,10.0625 L12.484375,10.0625 Z M16.84375,10.0625 L17.015625,9.34375 L18.765625,9.34375 L18.765625,6.1875 L16.296875,6.1875 L16.296875,13.015625 L18.765625,13.015625 L18.765625,10.0625 Z" transform="translate(-0.0234375, 20.015625) scale(1, -1)"/>
</svg>