<svg height="21.859375" viewBox="0 0 24 21.859375" width="24" xmlns="http://www.w3.org/2000/svg">
<path d="M1.796875,18.453125 L1.984375,17.765625 L8.109375,17.765625 C8.453125,17.765625 8.65625,17.875 8.734375,18.140625 C8.015625,18.8125 6.890625,19.734375 6.890625,19.734375 L5.875,18.453125 Z M1.796875,12.390625 L1.984375,11.6875 L8.09375,11.6875 C8.421875,11.6875 8.640625,11.8125 8.71875,12.046875 C8.046875,12.703125 7.015625,13.5625 7.015625,13.5625 L6.046875,12.390625 Z M1.796875,9.3125 L1.984375,8.609375 L8.09375,8.609375 C8.421875,8.609375 8.640625,8.734375 8.71875,9 C8.046875,9.640625 7.015625,10.484375 7.015625,10.484375 L6.046875,9.3125 Z M0.8125,15.4375 L1.015625,14.734375 L9.125,14.734375 C9.453125,14.734375 9.671875,14.859375 9.75,15.125 C9.03125,15.796875 7.875,16.734375 7.875,16.734375 L6.84375,15.4375 Z M8.96875,17.0625 L9.140625,16.390625 L12.5,16.390625 L12.5,14.25 L12.765625,14.25 C13.53125,14.25 14.015625,14.5 14.015625,14.640625 L14.015625,16.390625 L17.1875,16.390625 L17.1875,14.28125 L17.46875,14.28125 C18.34375,14.296875 18.703125,14.609375 18.703125,14.734375 L18.703125,16.390625 L22.34375,16.390625 C22.6875,16.390625 22.890625,16.515625 22.9375,16.78125 C22.265625,17.40625 21.171875,18.3125 21.171875,18.3125 L20.203125,17.0625 L18.703125,17.0625 L18.703125,19.125 C19.25,19.203125 19.46875,19.46875 19.484375,19.75 L17.1875,19.984375 L17.1875,17.0625 L14.015625,17.0625 L14.015625,19.125 C14.5625,19.203125 14.78125,19.4375 14.8125,19.75 L12.5,19.984375 L12.5,17.0625 Z M6.671875,5.5625 L6.671875,0.71875 L3.3125,0.71875 L3.3125,5.5625 Z M1.875,6.265625 L1.875,-1.875 L2.09375,-1.875 C2.6875,-1.875 3.3125,-1.53125 3.3125,-1.390625 L3.3125,0.03125 L6.671875,0.03125 L6.671875,-1.484375 L6.890625,-1.484375 C7.375,-1.484375 8.109375,-1.125 8.140625,-0.984375 L8.140625,5.28125 C8.609375,5.375 8.96875,5.5625 9.125,5.734375 L7.265625,7.171875 L6.4375,6.265625 L3.4375,6.265625 L1.875,6.984375 Z M8.6875,10.015625 L8.875,9.3125 L11.234375,9.3125 L11.234375,6.140625 L9.046875,6.140625 L9.234375,5.46875 L14.828125,5.46875 L14.828125,2.953125 L9.265625,2.953125 L9.453125,2.25 L14.828125,2.25 L14.828125,-1.875 L15.046875,-1.875 C15.8125,-1.875 16.34375,-1.484375 16.34375,-1.390625 L16.34375,2.25 L22.15625,2.25 C22.484375,2.25 22.734375,2.375 22.796875,2.609375 C22.03125,3.34375 20.859375,4.265625 20.859375,4.265625 L19.78125,2.953125 L16.34375,2.953125 L16.34375,5.46875 L22.53125,5.46875 C22.875,5.46875 23.09375,5.59375 23.15625,5.828125 C22.484375,6.5 21.40625,7.421875 21.40625,7.421875 L20.453125,6.140625 L20.09375,6.140625 L20.09375,9.3125 L22.78125,9.3125 C23.09375,9.3125 23.328125,9.4375 23.375,9.703125 C22.734375,10.375 21.625,11.28125 21.625,11.28125 L20.65625,10.015625 L20.09375,10.015625 L20.09375,13.015625 L22.203125,13.015625 C22.53125,13.015625 22.75,13.125 22.796875,13.390625 C22.125,14.0625 21,14.96875 21,14.96875 L20.015625,13.703125 L9.078125,13.703125 L9.265625,13.015625 L11.234375,13.015625 L11.234375,10.015625 Z M12.671875,13.015625 L14.828125,13.015625 L14.828125,10.015625 L12.671875,10.015625 Z M18.578125,13.015625 L18.578125,10.015625 L16.34375,10.015625 L16.34375,13.015625 Z M12.671875,6.140625 L12.671875,9.3125 L14.828125,9.3125 L14.828125,6.140625 Z M18.578125,6.140625 L16.34375,6.140625 L16.34375,9.3125 L18.578125,9.3125 Z" transform="translate(-0.09375, 19.984375) scale(1, -1)"/>
</svg>