<svg height="22.015625" viewBox="0 0 24 22.015625" width="24" xmlns="http://www.w3.org/2000/svg">
<path d="M1.875,18.453125 L2.0625,17.78125 L8.296875,17.78125 C8.640625,17.78125 8.859375,17.90625 8.921875,18.171875 C8.203125,18.84375 7.0625,19.75 7.0625,19.75 L6.046875,18.453125 Z M1.84375,12.40625 L2.046875,11.71875 L8.25,11.71875 C8.59375,11.71875 8.8125,11.828125 8.859375,12.078125 C8.1875,12.71875 7.125,13.578125 7.125,13.578125 L6.171875,12.40625 Z M1.84375,9.34375 L2.046875,8.640625 L8.25,8.640625 C8.59375,8.640625 8.8125,8.765625 8.859375,9 C8.1875,9.671875 7.125,10.53125 7.125,10.53125 L6.171875,9.34375 Z M0.84375,15.453125 L1.03125,14.765625 L9.234375,14.765625 C9.578125,14.765625 9.796875,14.875 9.859375,15.140625 C9.140625,15.8125 7.96875,16.75 7.96875,16.75 L6.953125,15.453125 Z M12.078125,20.046875 L11.8125,19.921875 C12.4375,19.125 13.15625,17.859375 13.296875,16.828125 C14.71875,15.71875 16.078125,18.59375 12.078125,20.046875 Z M10.6875,15.046875 L10.375,14.90625 C10.875,13.9375 11.421875,12.40625 11.40625,11.234375 C12.59375,9.984375 14.1875,12.703125 10.6875,15.046875 Z M20.25,15.171875 C20.015625,14.15625 19.421875,12.21875 18.90625,10.96875 L19.203125,10.828125 C20.109375,11.828125 21.09375,13.109375 21.625,13.875 C22.0625,13.796875 22.34375,14.046875 22.421875,14.234375 Z M18.078125,20.140625 C17.8125,19.03125 17.328125,17.546875 16.890625,16.46875 L9.765625,16.46875 L9.953125,15.75 L13.515625,15.75 L13.515625,9.9375 L9.21875,9.9375 L9.40625,9.234375 L22.65625,9.234375 C22.984375,9.234375 23.203125,9.359375 23.28125,9.625 C22.515625,10.34375 21.3125,11.296875 21.3125,11.296875 L20.203125,9.9375 L18.28125,9.9375 L18.28125,15.75 L22.3125,15.75 C22.65625,15.75 22.890625,15.859375 22.96875,16.125 C22.203125,16.828125 21.03125,17.765625 21.03125,17.765625 L19.9375,16.46875 L17.546875,16.46875 C18.28125,17.296875 19.03125,18.3125 19.53125,19.0625 C20.046875,19.0625 20.328125,19.265625 20.421875,19.5625 Z M14.921875,15.75 L16.875,15.75 L16.875,9.9375 L14.921875,9.9375 Z M6.8125,5.546875 L6.8125,1.015625 L3.40625,1.015625 L3.40625,5.546875 Z M1.9375,6.234375 L1.9375,-1.875 L2.15625,-1.875 C2.78125,-1.875 3.40625,-1.515625 3.40625,-1.375 L3.40625,0.3125 L6.8125,0.3125 L6.8125,-0.953125 L7.0625,-0.953125 C7.53125,-0.953125 8.28125,-0.59375 8.296875,-0.453125 L8.296875,5.28125 C8.765625,5.375 9.125,5.5625 9.28125,5.734375 L7.421875,7.171875 L6.578125,6.234375 L3.53125,6.234375 L1.9375,6.984375 Z M19.34375,6.484375 L19.34375,3.953125 L12.71875,3.953125 L12.71875,6.484375 Z M11.203125,7.203125 L11.203125,-1.875 L11.46875,-1.875 C12.125,-1.875 12.71875,-1.484375 12.71875,-1.34375 L12.71875,-0.171875 L19.34375,-0.171875 L19.34375,-1.78125 L19.578125,-1.78125 C20.09375,-1.78125 20.875,-1.390625 20.90625,-1.21875 L20.90625,6.234375 C21.3125,6.34375 21.640625,6.53125 21.796875,6.703125 L19.96875,8.09375 L19.125,7.203125 L12.84375,7.203125 L11.203125,7.921875 Z M12.71875,3.265625 L19.34375,3.265625 L19.34375,0.546875 L12.71875,0.546875 Z" transform="translate(-0.0625, 20.140625) scale(1, -1)"/>
</svg>