<svg height="21.9375" viewBox="0 0 24 21.9375" width="24" xmlns="http://www.w3.org/2000/svg">
<path d="M1.84375,18.484375 L2.046875,17.78125 L7.96875,17.78125 C8.296875,17.78125 8.515625,17.90625 8.59375,18.171875 C7.875,18.84375 6.71875,19.78125 6.71875,19.78125 L5.71875,18.484375 Z M1.84375,12.4375 L2.046875,11.734375 L7.921875,11.734375 C8.25,11.734375 8.46875,11.859375 8.515625,12.09375 C7.84375,12.75 6.796875,13.609375 6.796875,13.609375 L5.828125,12.4375 Z M1.84375,9.359375 L2.046875,8.65625 L7.921875,8.65625 C8.25,8.65625 8.46875,8.78125 8.515625,9.03125 C7.84375,9.671875 6.796875,10.53125 6.796875,10.53125 L5.828125,9.359375 Z M0.84375,15.484375 L1.015625,14.78125 L8.90625,14.78125 C9.234375,14.78125 9.453125,14.90625 9.53125,15.171875 C8.828125,15.84375 7.65625,16.78125 7.65625,16.78125 L6.640625,15.484375 Z M6.390625,5.46875 L6.390625,0.796875 L3.28125,0.796875 L3.28125,5.46875 Z M20.734375,5.140625 C20.234375,4.515625 19.15625,3.390625 18.234375,2.65625 C17.453125,3.484375 16.9375,4.34375 16.625,5.1875 L22.703125,5.1875 C23.046875,5.1875 23.25,5.296875 23.296875,5.5625 C22.609375,6.1875 21.484375,7.0625 21.484375,7.0625 L20.5,5.875 L18.546875,5.875 L18.546875,7.390625 L21.59375,7.390625 C21.90625,7.390625 22.125,7.515625 22.203125,7.78125 C21.546875,8.40625 20.5,9.234375 20.5,9.234375 L19.609375,8.109375 L18.546875,8.109375 L18.546875,9.578125 L22.078125,9.578125 C22.390625,9.578125 22.609375,9.703125 22.6875,9.953125 C22.015625,10.578125 20.953125,11.421875 20.953125,11.421875 L20.015625,10.265625 L18.546875,10.265625 L18.546875,11.09375 C19.015625,11.15625 19.203125,11.359375 19.25,11.640625 L17.109375,11.875 L17.109375,10.265625 L14.15625,10.265625 L14.15625,11.140625 C14.65625,11.203125 14.828125,11.40625 14.875,11.6875 L12.75,11.921875 L12.75,10.265625 L9.171875,10.265625 L9.359375,9.578125 L12.75,9.578125 L12.75,8.109375 L9.8125,8.109375 L10.015625,7.390625 L12.75,7.390625 L12.75,5.875 L8.59375,5.875 L7.015625,7.109375 L6.171875,6.171875 L3.40625,6.171875 L1.828125,6.890625 L1.828125,-1.890625 L2.046875,-1.890625 C2.65625,-1.890625 3.28125,-1.53125 3.28125,-1.390625 L3.28125,0.09375 L6.390625,0.09375 L6.390625,-1.578125 L6.625,-1.578125 C7.125,-1.578125 7.84375,-1.21875 7.875,-1.0625 L7.875,5.203125 C8.15625,5.25 8.40625,5.359375 8.59375,5.46875 L8.65625,5.1875 L13.34375,5.1875 C11.953125,3.84375 9.984375,2.609375 7.875,1.75 L8.109375,1.34375 C9.578125,1.78125 10.984375,2.296875 12.265625,2.953125 L12.265625,0.265625 L9.796875,-0.125 L10.625,-1.890625 C10.84375,-1.84375 11.0625,-1.65625 11.15625,-1.34375 C13.890625,-0.453125 15.953125,0.28125 17.40625,0.84375 L17.328125,1.203125 L13.734375,0.53125 L13.734375,3.765625 C14.40625,4.203125 15,4.6875 15.53125,5.1875 L16.125,5.1875 C16.734375,2.78125 18.125,-0.09375 21.953125,-1.703125 C22.109375,-0.84375 22.5625,-0.59375 23.296875,-0.484375 L23.359375,-0.234375 C21.171875,0.453125 19.625,1.375 18.546875,2.359375 C19.828125,2.8125 21.140625,3.5 21.859375,3.9375 C22.21875,3.859375 22.4375,3.90625 22.5625,4.0625 Z M17.109375,9.578125 L17.109375,8.109375 L14.15625,8.109375 L14.15625,9.578125 Z M17.109375,7.390625 L17.109375,5.875 L14.15625,5.875 L14.15625,7.390625 Z M14.78125,20.046875 L14.78125,18 L8.6875,18 L8.875,17.296875 L22.84375,17.296875 C23.15625,17.296875 23.375,17.421875 23.453125,17.6875 C22.703125,18.390625 21.5,19.34375 21.5,19.34375 L20.453125,18 L16.296875,18 L16.296875,19.171875 C16.875,19.25 17.109375,19.484375 17.140625,19.796875 Z M10.078125,16.0625 L10.078125,11.6875 L10.296875,11.6875 C10.984375,11.6875 11.453125,12.046875 11.453125,12.171875 L11.453125,12.90625 L13.734375,12.90625 L13.734375,12.046875 L13.921875,12.046875 C14.375,12.046875 15.078125,12.390625 15.09375,12.53125 L15.09375,15.21875 C15.453125,15.265625 15.765625,15.453125 15.890625,15.59375 L14.28125,16.828125 L13.53125,16.0625 L11.734375,16.0625 L10.078125,16.796875 Z M11.453125,13.578125 L11.453125,15.34375 L13.734375,15.34375 L13.734375,13.578125 Z M16.625,16.0625 L16.625,11.875 L16.828125,11.875 C17.546875,11.875 18,12.234375 18,12.34375 L18,12.90625 L20.453125,12.90625 L20.453125,12.03125 L20.65625,12.03125 C21.125,12.03125 21.796875,12.3125 21.8125,12.453125 L21.8125,15.140625 C22.171875,15.1875 22.515625,15.390625 22.625,15.53125 L21,16.78125 L20.328125,16.0625 L18.28125,16.0625 L16.625,16.796875 Z M18,13.578125 L18,15.34375 L20.453125,15.34375 L20.453125,13.578125 Z" transform="translate(-0.1484375, 20.046875) scale(1, -1)"/>
</svg>