<svg height="21.09375" viewBox="0 0 24 21.09375" width="24" xmlns="http://www.w3.org/2000/svg">
<path d="M3.84375,20.109375 L3.578125,19.890625 C4.734375,18.90625 6.1875,17.15625 6.640625,15.84375 C8.40625,14.765625 9.484375,18.34375 3.84375,20.109375 Z M7.34375,12.546875 C7.78125,12.640625 8.015625,12.796875 8.1875,12.9375 L6.84375,14.46875 L6.1875,13.625 L1.171875,13.625 L1.390625,12.90625 L5.765625,12.90625 L5.765625,1.96875 C5.765625,1.53125 5.65625,1.375 4.96875,0.984375 L6.03125,-0.984375 C6.1875,-0.890625 6.390625,-0.703125 6.53125,-0.4375 C8.734375,1.6875 10.703125,3.859375 11.734375,4.921875 L11.5,5.203125 C10.03125,4.109375 8.546875,3.03125 7.34375,2.1875 Z" transform="translate(5.546875, 20.109375) scale(1, -1)"/>
</svg>