<svg height="20.4375" viewBox="0 0 24 20.4375" width="24" xmlns="http://www.w3.org/2000/svg">
<path d="M1.625,18.125 L1.84375,17.40625 L21.84375,17.40625 C22.171875,17.40625 22.421875,17.515625 22.484375,17.78125 C21.625,18.546875 20.234375,19.625 20.234375,19.625 L19.015625,18.125 Z M6.984375,5.6875 L6.671875,5.546875 C7.5625,4.265625 8.515625,2.296875 8.5625,0.71875 C10.125,-0.71875 11.734375,2.875 6.984375,5.6875 Z M15.28125,5.734375 C14.8125,3.984375 13.9375,1.578125 13.15625,-0.140625 L1.03125,-0.140625 L1.25,-0.8125 L22.421875,-0.8125 C22.78125,-0.8125 22.984375,-0.703125 23.0625,-0.453125 C22.171875,0.34375 20.78125,1.390625 20.78125,1.390625 L19.5625,-0.140625 L13.78125,-0.140625 C14.96875,1.34375 16.203125,3.265625 16.9375,4.65625 C17.46875,4.6875 17.734375,4.890625 17.8125,5.1875 Z M4.828125,13.875 L4.828125,5.765625 L5.0625,5.765625 C5.71875,5.765625 6.390625,6.125 6.390625,6.28125 L6.390625,7.34375 L17.46875,7.34375 L17.46875,6.125 L17.71875,6.125 C18.1875,6.125 19.015625,6.40625 19.0625,6.53125 L19.0625,12.859375 C19.53125,12.953125 19.921875,13.171875 20.0625,13.375 L18.09375,14.859375 L17.234375,13.875 L6.53125,13.875 L4.828125,14.65625 Z M17.46875,8.046875 L6.390625,8.046875 L6.390625,13.171875 L17.46875,13.171875 Z" transform="translate(-0.046875, 19.625) scale(1, -1)"/>
</svg>