<svg height="21.359375" viewBox="0 0 24 21.359375" width="24" xmlns="http://www.w3.org/2000/svg">
<path d="M14.546875,2.640625 C14.25,1.6875 13.796875,0.359375 13.390625,-0.59375 L9.40625,-0.59375 C10.296875,-0.3125 10.484375,1.53125 7.4375,2.609375 L7.203125,2.5 C7.75,1.78125 8.375,0.59375 8.46875,-0.359375 C8.609375,-0.484375 8.765625,-0.578125 8.90625,-0.59375 L1.0625,-0.59375 L1.265625,-1.265625 L22.34375,-1.265625 C22.6875,-1.265625 22.921875,-1.15625 22.96875,-0.890625 C22.171875,-0.1875 20.90625,0.8125 20.90625,0.8125 L19.75,-0.59375 L14.0625,-0.59375 C14.78125,0.09375 15.53125,0.90625 16.03125,1.5625 C16.53125,1.53125 16.84375,1.75 16.921875,2.046875 Z M19.5625,19.515625 L19.5625,11.40625 L16.484375,11.40625 L16.484375,13.078125 L18.640625,13.078125 C18.953125,13.078125 19.15625,13.203125 19.21875,13.4375 C18.765625,13.9375 18.078125,14.515625 18.078125,14.515625 L17.46875,13.75 L16.484375,13.75 L16.484375,15.140625 L18.21875,15.140625 C18.546875,15.140625 18.75,15.265625 18.796875,15.53125 C18.390625,16.015625 17.734375,16.5625 17.734375,16.5625 L17.15625,15.859375 L16.484375,15.859375 L16.484375,17.234375 L18.5,17.234375 C18.8125,17.234375 19.03125,17.359375 19.078125,17.609375 C18.640625,18.09375 17.953125,18.640625 17.953125,18.640625 L17.359375,17.921875 L16.484375,17.921875 L16.484375,18.984375 C16.921875,19.0625 17.109375,19.21875 17.15625,19.515625 L15.234375,19.734375 L15.234375,17.921875 L13.25,17.921875 L13.4375,17.234375 L15.234375,17.234375 L15.234375,15.859375 L13.53125,15.859375 L13.703125,15.140625 L15.234375,15.140625 L15.234375,13.75 L13.15625,13.75 L13.34375,13.078125 L15.234375,13.078125 L15.234375,11.40625 L12.703125,11.40625 L12.703125,19.25 C13.21875,19.34375 13.4375,19.53125 13.484375,19.875 L11.234375,20.09375 L11.234375,11.40625 L8.1875,11.40625 L8.1875,13.078125 L10.296875,13.078125 C10.578125,13.078125 10.78125,13.203125 10.84375,13.4375 C10.421875,13.921875 9.71875,14.5 9.71875,14.5 L9.125,13.75 L8.1875,13.75 L8.1875,15.140625 L9.953125,15.140625 C10.265625,15.140625 10.4375,15.265625 10.515625,15.53125 C10.109375,16.015625 9.453125,16.53125 9.453125,16.53125 L8.90625,15.859375 L8.1875,15.859375 L8.1875,17.234375 L10.171875,17.234375 C10.484375,17.234375 10.703125,17.359375 10.75,17.609375 C10.3125,18.09375 9.625,18.640625 9.625,18.640625 L9.046875,17.921875 L8.1875,17.921875 L8.1875,18.953125 C8.609375,19.03125 8.8125,19.21875 8.859375,19.515625 L6.9375,19.734375 L6.9375,17.921875 L5.0625,17.921875 L5.25,17.234375 L6.9375,17.234375 L6.9375,15.859375 L5.375,15.859375 L5.5625,15.140625 L6.9375,15.140625 L6.9375,13.75 L4.921875,13.75 L5.109375,13.078125 L6.9375,13.078125 L6.9375,11.40625 L4.4375,11.40625 L4.4375,18.640625 C4.96875,18.75 5.15625,18.953125 5.234375,19.265625 L2.96875,19.515625 L2.96875,9.640625 L3.234375,9.640625 C3.8125,9.640625 4.4375,9.953125 4.4375,10.15625 L4.4375,10.6875 L19.5625,10.6875 L19.5625,9.90625 L19.796875,9.90625 C19.96875,9.90625 20.140625,9.9375 20.28125,9.984375 L19.390625,8.859375 L1.65625,8.859375 L1.875,8.15625 L21.84375,8.15625 C22.15625,8.15625 22.390625,8.28125 22.46875,8.546875 C21.8125,9.140625 20.875,9.890625 20.609375,10.109375 C20.859375,10.21875 21.03125,10.375 21.03125,10.46875 L21.03125,18.640625 C21.546875,18.75 21.75,18.953125 21.8125,19.265625 Z M4.75,6.5 L4.75,1.890625 L4.984375,1.890625 C5.78125,1.890625 6.265625,2.234375 6.265625,2.359375 L6.265625,2.765625 L17.6875,2.765625 L17.6875,2.28125 L17.921875,2.28125 C18.640625,2.28125 19.25,2.609375 19.25,2.71875 L19.25,5.71875 C19.703125,5.78125 19.921875,5.921875 20.0625,6.125 L18.359375,7.390625 L17.640625,6.5 L6.53125,6.5 L4.75,7.265625 Z M6.265625,3.484375 L6.265625,5.78125 L17.6875,5.78125 L17.6875,3.484375 Z" transform="translate(-0.015625, 20.09375) scale(1, -1)"/>
</svg>