<svg height="22.0625" viewBox="0 0 24 22.0625" width="24" xmlns="http://www.w3.org/2000/svg">
<path d="M13.75,3.3125 L13.5625,3 C15.84375,1.921875 19.109375,-0.234375 20.421875,-1.828125 C22.515625,-2.453125 22.46875,1.53125 13.75,3.3125 Z M9.125,3.671875 C7.53125,1.890625 4.265625,-0.234375 1.390625,-1.484375 L1.609375,-1.828125 C4.921875,-0.9375 8.40625,0.75 10.25,2.296875 C10.75,2.140625 10.96875,2.234375 11.140625,2.421875 Z M17.375,17.90625 L17.375,14.109375 L6.859375,14.109375 L6.859375,17.90625 Z M5.296875,18.578125 L5.296875,3.125 L5.5625,3.125 C6.265625,3.125 6.859375,3.5 6.859375,3.703125 L6.859375,4.375 L17.375,4.375 L17.375,3.359375 L17.59375,3.359375 C18.171875,3.359375 18.90625,3.765625 18.9375,3.9375 L18.9375,17.59375 C19.421875,17.6875 19.828125,17.875 19.96875,18.078125 L18.03125,19.609375 L17.140625,18.578125 L7.015625,18.578125 L5.296875,19.390625 Z M6.859375,13.421875 L17.375,13.421875 L17.375,9.59375 L6.859375,9.59375 Z M6.859375,8.921875 L17.375,8.921875 L17.375,5.09375 L6.859375,5.09375 Z" transform="translate(0.046875, 19.609375) scale(1, -1)"/>
</svg>