<svg height="22.953125" viewBox="0 0 24 22.953125" width="24" xmlns="http://www.w3.org/2000/svg">
<path d="M9.28125,1.9375 C7.65625,0.71875 4.25,-0.75 1.203125,-1.46875 L1.3125,-1.875 C4.609375,-1.53125 8.015625,-0.59375 10.125,0.359375 C10.703125,0.1875 11.09375,0.21875 11.25,0.4375 Z M13.796875,1.5625 L13.6875,1.15625 C16.796875,0.390625 19.203125,-0.671875 20.59375,-1.609375 C22.46875,-2.8125 25.25,0.640625 13.796875,1.5625 Z M7.515625,20.140625 C6.28125,17.953125 3.71875,15.1875 0.984375,13.53125 L1.25,13.203125 C2.90625,13.875 4.515625,14.828125 5.875,15.890625 L5.875,12.1875 L6.140625,12.1875 C6.71875,12.1875 7.375,12.546875 7.421875,12.671875 L7.421875,16.125 C7.78125,16.171875 8.046875,16.34375 8.140625,16.5625 L7.125,16.921875 C7.84375,17.59375 8.46875,18.234375 8.953125,18.859375 C9.484375,18.765625 9.703125,18.890625 9.8125,19.15625 Z M19.6875,19.4375 C18.1875,18.546875 15.40625,17.296875 12.9375,16.515625 L12.9375,19.25 C13.390625,19.3125 13.609375,19.53125 13.65625,19.828125 L11.421875,20.0625 L11.421875,14.40625 C11.421875,13.203125 11.859375,12.859375 13.9375,12.859375 L17.203125,12.859375 C21.671875,12.859375 22.484375,13.078125 22.484375,13.796875 C22.484375,14.109375 22.3125,14.28125 21.75,14.453125 L21.671875,16.421875 L21.40625,16.421875 C21.140625,15.53125 20.921875,14.765625 20.71875,14.46875 C20.59375,14.296875 20.453125,14.25 20.140625,14.234375 C19.75,14.203125 18.625,14.1875 17.25,14.1875 L14.140625,14.1875 C13.03125,14.1875 12.9375,14.28125 12.9375,14.65625 L12.9375,15.9375 C15.625,16.390625 18.5,17.1875 20.359375,17.828125 C20.953125,17.640625 21.359375,17.640625 21.578125,17.859375 Z M5.421875,11.640625 L5.421875,1.21875 L5.65625,1.21875 C6.34375,1.21875 6.984375,1.609375 6.984375,1.78125 L6.984375,2.5 L17.5625,2.5 L17.5625,1.5625 L17.8125,1.5625 C18.3125,1.5625 19.125,1.921875 19.15625,2.09375 L19.15625,10.6875 C19.5625,10.78125 19.921875,10.96875 20.046875,11.140625 L18.1875,12.546875 L17.359375,11.640625 L7.125,11.640625 L5.875,12.1875 L5.421875,12.40625 Z M17.5625,8.15625 L17.5625,6.03125 L6.984375,6.03125 L6.984375,8.15625 Z M17.5625,8.859375 L6.984375,8.859375 L6.984375,10.921875 L17.5625,10.921875 Z M17.5625,5.359375 L17.5625,3.1875 L6.984375,3.1875 L6.984375,5.359375 Z" transform="translate(-1.1171875, 20.140625) scale(1, -1)"/>
</svg>