<svg height="22.34375" viewBox="0 0 24 22.34375" width="24" xmlns="http://www.w3.org/2000/svg">
<path d="M18.578125,19.375 L18.359375,19.15625 C19.25,18.640625 20.25,17.6875 20.5625,16.84375 C22.0625,16.109375 22.84375,19.03125 18.578125,19.375 Z M3.84375,3.796875 C3.390625,2.1875 2.296875,-0.125 1.015625,-1.5625 L1.265625,-1.875 C2.96875,-0.71875 4.375,1.109375 5.15625,2.5 C5.734375,2.421875 5.90625,2.546875 6.046875,2.78125 Z M6.359375,3.75 L6.078125,3.578125 C6.84375,2.515625 7.734375,0.859375 7.890625,-0.4375 C9.453125,-1.734375 10.9375,1.5625 6.359375,3.75 Z M9.359375,15.21875 L9.546875,14.515625 L15.75,14.515625 C15.984375,10.9375 16.515625,7.609375 17.515625,4.734375 C15.703125,2.203125 13.171875,0.046875 9.953125,-1.421875 L10.171875,-1.75 C13.484375,-0.546875 16.0625,1.296875 18,3.453125 C18.59375,2.0625 19.296875,0.796875 20.15625,-0.34375 C20.96875,-1.421875 22.34375,-2.328125 23.0625,-1.6875 C23.296875,-1.46875 23.203125,-0.984375 22.625,0.09375 L23.0625,3.859375 L22.78125,3.90625 C22.484375,2.96875 22.078125,1.84375 21.796875,1.296875 C21.578125,0.796875 21.453125,0.765625 21.140625,1.25 C20.328125,2.25 19.65625,3.453125 19.125,4.828125 C20.46875,6.640625 21.453125,8.609375 22.15625,10.578125 C22.796875,10.5625 23.015625,10.6875 23.140625,10.96875 L20.828125,11.8125 C20.359375,9.9375 19.609375,8.09375 18.59375,6.390625 C17.859375,8.859375 17.46875,11.6875 17.296875,14.515625 L22.609375,14.515625 C22.9375,14.515625 23.1875,14.640625 23.234375,14.90625 C22.46875,15.59375 21.234375,16.5625 21.234375,16.5625 L20.140625,15.21875 L17.25,15.21875 C17.203125,16.515625 17.1875,17.8125 17.203125,19.0625 C17.828125,19.15625 18.046875,19.421875 18.078125,19.734375 L15.546875,20.015625 C15.546875,18.390625 15.59375,16.78125 15.703125,15.21875 Z M11.859375,12.9375 L11.859375,8.828125 L9.390625,8.828125 L9.578125,8.140625 L11.859375,8.140625 L11.859375,2.015625 L12.140625,2.015625 C12.671875,2.015625 13.296875,2.359375 13.296875,2.515625 L13.296875,8.140625 L15.8125,8.140625 C16.15625,8.140625 16.375,8.25 16.421875,8.515625 C15.859375,9.125 14.953125,9.9375 14.953125,9.9375 L14.15625,8.828125 L13.296875,8.828125 L13.296875,12.125 C13.78125,12.21875 13.9375,12.40625 13.984375,12.703125 Z M3.75,13.703125 L7.484375,13.703125 L7.484375,10.0625 L3.75,10.0625 Z M3.75,14.40625 L3.75,17.96875 L7.484375,17.96875 L7.484375,14.40625 Z M3.75,9.34375 L7.484375,9.34375 L7.484375,5.5625 L3.75,5.5625 Z M2.28125,18.671875 L2.28125,3.21875 L2.5,3.21875 C3.265625,3.21875 3.75,3.59375 3.75,3.71875 L3.75,4.875 L7.484375,4.875 L7.484375,3.546875 L7.734375,3.546875 C8.421875,3.546875 9,3.9375 9,4.0625 L9,17.828125 C9.5,17.90625 9.8125,18.046875 9.984375,18.265625 L8.1875,19.65625 L7.390625,18.671875 L4.03125,18.671875 L2.28125,19.421875 Z" transform="translate(-0.15625, 20.015625) scale(1, -1)"/>
</svg>