<svg height="22.09375" viewBox="0 0 24 22.09375" width="24" xmlns="http://www.w3.org/2000/svg">
<path d="M16.515625,19.03125 L16.3125,18.75 C17.328125,18.359375 18.546875,17.5 19.0625,16.75 C20.59375,16.15625 21.078125,19.078125 16.515625,19.03125 Z M3.859375,3.796875 C3.390625,2.1875 2.296875,-0.125 0.984375,-1.5625 L1.25,-1.875 C2.96875,-0.71875 4.375,1.078125 5.1875,2.46875 C5.734375,2.421875 5.921875,2.546875 6.078125,2.78125 Z M6.5,3.75 L6.21875,3.578125 C7.015625,2.515625 7.890625,0.859375 8.09375,-0.4375 C9.640625,-1.734375 11.15625,1.578125 6.5,3.75 Z M9.796875,7.53125 L10.0625,6.890625 L14.828125,7.375 C15.234375,5.6875 15.8125,4.171875 16.5625,2.859375 C14.59375,1.078125 12.125,-0.453125 9.40625,-1.46875 L9.59375,-1.828125 C12.53125,-1.03125 15.125,0.28125 17.203125,1.84375 C18.03125,0.71875 18.984375,-0.1875 20.15625,-0.90625 C21.265625,-1.6875 22.6875,-2.203125 23.15625,-1.4375 C23.359375,-1.15625 23.25,-0.84375 22.5625,-0.03125 L22.9375,3.546875 L22.609375,3.59375 C22.34375,2.59375 21.890625,1.4375 21.625,0.84375 C21.40625,0.390625 21.28125,0.359375 20.828125,0.671875 C19.890625,1.21875 19.109375,1.9375 18.4375,2.828125 C19.625,3.859375 20.59375,4.96875 21.3125,6.078125 C21.859375,5.96875 22.078125,6.046875 22.25,6.3125 L20.15625,7.375 C19.5625,6.21875 18.71875,5.0625 17.6875,3.984375 C17.109375,5.015625 16.6875,6.21875 16.34375,7.515625 L22.578125,8.140625 C22.890625,8.15625 23.140625,8.328125 23.15625,8.59375 C22.375,9.21875 21.03125,10.109375 21.03125,10.109375 L20.015625,8.59375 L16.171875,8.1875 C15.953125,9.140625 15.796875,10.15625 15.671875,11.203125 L21.984375,11.8125 C22.265625,11.828125 22.53125,12 22.5625,12.265625 C21.75,12.890625 20.421875,13.78125 20.421875,13.78125 L19.421875,12.265625 L15.59375,11.90625 C15.5,12.796875 15.453125,13.703125 15.40625,14.640625 L22.265625,15.234375 C22.5625,15.265625 22.796875,15.4375 22.84375,15.703125 C22.03125,16.3125 20.71875,17.234375 20.71875,17.234375 L19.6875,15.703125 L15.390625,15.34375 C15.359375,16.515625 15.34375,17.71875 15.359375,18.9375 C15.953125,19.03125 16.171875,19.296875 16.203125,19.609375 L13.6875,19.890625 C13.6875,18.265625 13.703125,16.703125 13.78125,15.1875 L9.796875,14.859375 L10.0625,14.15625 L13.828125,14.5 C13.875,13.5625 13.96875,12.640625 14.0625,11.765625 L10.03125,11.375 L10.265625,10.703125 L14.140625,11.0625 C14.28125,10.015625 14.453125,9 14.65625,8.046875 Z M3.75,13.703125 L7.65625,13.703125 L7.65625,10.0625 L3.75,10.0625 Z M3.75,14.40625 L3.75,17.96875 L7.65625,17.96875 L7.65625,14.40625 Z M3.75,9.34375 L7.65625,9.34375 L7.65625,5.5625 L3.75,5.5625 Z M2.28125,18.671875 L2.28125,3.21875 L2.5,3.21875 C3.265625,3.21875 3.75,3.59375 3.75,3.71875 L3.75,4.875 L7.65625,4.875 L7.65625,3.53125 L7.875,3.53125 C8.59375,3.53125 9.171875,3.90625 9.171875,4.03125 L9.171875,17.828125 C9.671875,17.90625 9.984375,18.046875 10.15625,18.265625 L8.375,19.65625 L7.53125,18.671875 L4.03125,18.671875 L2.28125,19.421875 Z" transform="translate(-0.171875, 19.890625) scale(1, -1)"/>
</svg>