<svg height="23.15625" viewBox="0 0 24 23.15625" width="24" xmlns="http://www.w3.org/2000/svg">
<path d="M16.296875,14.46875 L16.078125,14.1875 C17.546875,13.484375 19.484375,12.046875 20.234375,10.890625 C21.9375,10.25 22.21875,13.625 16.296875,14.46875 Z M7.515625,14.609375 C6.578125,13.4375 4.515625,11.828125 2.546875,10.9375 L2.734375,10.578125 C4.9375,11.15625 7.203125,12.34375 8.46875,13.34375 C9.046875,13.25 9.390625,13.3125 9.546875,13.53125 Z M9.171875,1.984375 C7.5625,0.75 4.21875,-0.75 1.203125,-1.46875 L1.34375,-1.875 C4.578125,-1.53125 7.984375,-0.53125 10.03125,0.484375 C10.578125,0.3125 10.984375,0.359375 11.15625,0.578125 Z M13.828125,1.484375 L13.734375,1.078125 C17.046875,0.359375 19.484375,-0.671875 20.953125,-1.625 C22.890625,-2.859375 25.703125,0.765625 13.828125,1.484375 Z M5.8125,10.203125 L5.8125,10.109375 C4.203125,9.671875 2.59375,9.3125 1.015625,9.03125 L1.15625,8.59375 C2.71875,8.765625 4.265625,9.03125 5.8125,9.34375 L5.8125,1.21875 L6.078125,1.21875 C6.71875,1.21875 7.375,1.578125 7.375,1.75 L7.375,2.140625 L17.140625,2.140625 L17.140625,1.53125 L17.375,1.53125 C17.90625,1.53125 18.640625,1.921875 18.671875,2.09375 L18.671875,9.265625 C19.109375,9.34375 19.46875,9.53125 19.609375,9.703125 L17.765625,11.109375 L16.921875,10.203125 L9.359375,10.203125 C11.953125,10.890625 14.28125,11.734375 16.078125,12.53125 C16.6875,12.34375 17.0625,12.390625 17.234375,12.578125 L15.484375,13.890625 C14.734375,13.4375 13.796875,12.953125 12.71875,12.5 L12.71875,14.96875 L18.265625,14.96875 C18.578125,14.96875 18.796875,15.09375 18.859375,15.359375 C18.140625,16.015625 16.984375,16.828125 16.984375,16.828125 L16.015625,15.671875 L5.46875,15.671875 L5.640625,14.96875 L11.1875,14.96875 L11.1875,11.875 C9.890625,11.375 8.453125,10.875 6.953125,10.4375 L5.8125,10.96875 Z M17.140625,7.078125 L17.140625,5.328125 L7.375,5.328125 L7.375,7.078125 Z M17.140625,7.78125 L7.375,7.78125 L7.375,9.5 L17.140625,9.5 Z M17.140625,4.609375 L17.140625,2.828125 L7.375,2.828125 L7.375,4.609375 Z M3.890625,18.90625 C3.859375,17.515625 3,16.125 2.15625,15.625 C1.703125,15.3125 1.421875,14.859375 1.625,14.375 C1.921875,13.875 2.71875,13.96875 3.234375,14.375 C3.84375,14.828125 4.4375,15.8125 4.46875,17.234375 L20.234375,17.234375 C19.96875,16.46875 19.609375,15.53125 19.3125,14.921875 L19.625,14.734375 C20.421875,15.28125 21.453125,16.265625 22.015625,16.9375 C22.46875,16.984375 22.75,17.046875 22.921875,17.203125 L21.140625,18.90625 L20.1875,17.921875 L12.75,17.921875 L12.75,19.390625 C13.34375,19.484375 13.578125,19.734375 13.625,20.046875 L11.15625,20.296875 L11.15625,17.921875 L4.4375,17.921875 C4.421875,18.234375 4.375,18.578125 4.265625,18.90625 Z" transform="translate(-1.359375, 20.296875) scale(1, -1)"/>
</svg>