<svg height="22.921875" viewBox="0 0 24 22.921875" width="24" xmlns="http://www.w3.org/2000/svg">
<path d="M9.28125,1.9375 C7.625,0.765625 4.265625,-0.71875 1.296875,-1.46875 L1.421875,-1.84375 C4.625,-1.515625 8.140625,-0.578125 10.21875,0.359375 C10.796875,0.21875 11.203125,0.265625 11.40625,0.484375 Z M13.75,1.4375 L13.65625,1.03125 C16.78125,0.34375 19.15625,-0.703125 20.546875,-1.625 C22.421875,-2.8125 25.21875,0.640625 13.75,1.4375 Z M1.578125,15.71875 L1.78125,15.046875 L5.6875,15.046875 C5.140625,13.21875 3.953125,11.6875 1.3125,10.4375 L1.625,10.078125 C4.578125,11.140625 6.046875,12.5 6.8125,14.109375 C7.84375,13.421875 9.046875,12.40625 9.53125,11.640625 C11.046875,10.9375 11.71875,13.734375 7.015625,14.546875 L7.171875,15.046875 L11.234375,15.046875 C11.5625,15.046875 11.78125,15.140625 11.859375,15.40625 C11.140625,16.0625 10.015625,16.890625 10.015625,16.890625 L9.03125,15.71875 L7.34375,15.71875 C7.46875,16.265625 7.53125,16.84375 7.578125,17.421875 L10.921875,17.421875 C11.25,17.421875 11.46875,17.546875 11.546875,17.8125 C10.84375,18.453125 9.765625,19.265625 9.765625,19.265625 L8.8125,18.140625 L7.625,18.140625 L7.6875,19.296875 C8.1875,19.375 8.375,19.609375 8.421875,19.890625 L6.140625,20.109375 L6.09375,18.140625 L1.96875,18.140625 L2.15625,17.421875 L6.078125,17.421875 C6.03125,16.828125 5.953125,16.265625 5.859375,15.71875 Z M12.125,15.71875 L12.3125,15.046875 L15.234375,15.046875 C14.71875,13.6875 13.609375,12.578125 11.453125,11.65625 L11.734375,11.25 C14.734375,12.21875 16.109375,13.46875 16.75,15 C17.6875,13.015625 19.421875,11.59375 21.578125,10.6875 C21.765625,11.359375 22.15625,11.828125 22.734375,11.921875 L22.75,12.1875 C20.609375,12.640625 18.5,13.609375 17.359375,15.046875 L21.890625,15.046875 C22.21875,15.046875 22.4375,15.140625 22.515625,15.40625 C21.765625,16.078125 20.609375,16.96875 20.609375,16.96875 L19.609375,15.71875 L16.984375,15.71875 C17.15625,16.25 17.234375,16.828125 17.296875,17.421875 L21.28125,17.421875 C21.625,17.421875 21.84375,17.546875 21.90625,17.8125 C21.1875,18.453125 20.0625,19.34375 20.0625,19.34375 L19.078125,18.140625 L17.359375,18.140625 L17.40625,19.3125 C17.875,19.375 18.078125,19.625 18.125,19.890625 L15.8125,20.109375 L15.796875,18.140625 L12.359375,18.140625 L12.546875,17.421875 L15.75,17.421875 C15.703125,16.828125 15.625,16.25 15.484375,15.71875 Z M17.359375,7.796875 L17.359375,5.828125 L7.0625,5.828125 L7.0625,7.796875 Z M17.359375,8.515625 L7.0625,8.515625 L7.0625,10.4375 L17.359375,10.4375 Z M17.359375,5.140625 L17.359375,3.140625 L7.0625,3.140625 L7.0625,5.140625 Z M5.5,11.140625 L5.5,1.265625 L5.734375,1.265625 C6.390625,1.265625 7.0625,1.625 7.0625,1.796875 L7.0625,2.453125 L17.359375,2.453125 L17.359375,1.578125 L17.59375,1.578125 C18.125,1.578125 18.90625,1.96875 18.9375,2.109375 L18.9375,10.21875 C19.34375,10.265625 19.703125,10.46875 19.84375,10.625 L17.96875,12.078125 L17.140625,11.140625 L7.171875,11.140625 L5.5,11.921875 Z" transform="translate(-1.2578125, 20.109375) scale(1, -1)"/>
</svg>