<svg height="22.078125" viewBox="0 0 24 22.078125" width="24" xmlns="http://www.w3.org/2000/svg">
<path d="M3.765625,3.765625 C3.28125,2.203125 2.1875,-0.09375 0.890625,-1.5625 L1.171875,-1.875 C2.859375,-0.703125 4.25,1.109375 5.0625,2.5 C5.609375,2.40625 5.8125,2.515625 5.921875,2.765625 Z M6.265625,3.75 L6,3.59375 C6.796875,2.5625 7.703125,0.9375 7.890625,-0.34375 C9.484375,-1.578125 10.984375,1.734375 6.265625,3.75 Z M15.796875,19.796875 L15.59375,19.5625 C16.53125,19.078125 17.6875,18.140625 18.09375,17.328125 C19.609375,16.609375 20.25,19.5625 15.796875,19.796875 Z M15.53125,9.890625 L15.34375,9.625 C16.34375,9.140625 17.5625,8.15625 18,7.3125 C19.578125,6.578125 20.25,9.640625 15.53125,9.890625 Z M3.796875,13.703125 L7.25,13.703125 L7.25,10.0625 L3.796875,10.0625 Z M3.796875,14.40625 L3.796875,17.96875 L7.25,17.96875 L7.25,14.40625 Z M3.796875,9.359375 L7.25,9.359375 L7.25,5.5625 L3.796875,5.5625 Z M2.359375,18.671875 L2.359375,3.484375 L2.546875,3.484375 C3.3125,3.484375 3.796875,3.84375 3.796875,3.984375 L3.796875,4.875 L7.25,4.875 L7.25,3.703125 L7.484375,3.703125 C8.15625,3.703125 8.765625,4.078125 8.765625,4.203125 L8.765625,17.828125 C9.265625,17.90625 9.546875,18.046875 9.71875,18.265625 L7.96875,19.625 L7.15625,18.671875 L4.078125,18.671875 L2.359375,19.421875 Z M9.578125,16.015625 L9.8125,15.359375 L13.390625,15.703125 C13.796875,14.609375 14.375,13.609375 15.140625,12.71875 C13.515625,11.859375 11.71875,11.140625 9.9375,10.65625 L10.109375,10.296875 C12.09375,10.625 14.09375,11.234375 15.859375,11.953125 C16.890625,10.984375 18.1875,10.171875 19.796875,9.53125 C20.921875,9.046875 22.15625,8.8125 22.484375,9.5 C22.625,9.8125 22.5625,10.0625 21.890625,10.609375 L22.078125,13.0625 L21.796875,13.109375 C21.578125,12.359375 21.265625,11.5 21.03125,11.09375 C20.875,10.78125 20.6875,10.78125 20.296875,10.9375 C19.125,11.375 18.140625,11.953125 17.328125,12.625 C18.59375,13.265625 19.6875,13.96875 20.46875,14.65625 C20.96875,14.5 21.1875,14.5625 21.359375,14.78125 L19.5625,15.9375 C18.8125,15.09375 17.734375,14.234375 16.46875,13.46875 C15.8125,14.1875 15.3125,15 14.953125,15.859375 L22.3125,16.5625 C22.625,16.578125 22.84375,16.75 22.875,16.984375 C22.125,17.5625 20.859375,18.390625 20.859375,18.390625 L19.890625,16.984375 L14.6875,16.484375 C14.40625,17.359375 14.234375,18.234375 14.15625,19.109375 C14.640625,19.203125 14.828125,19.4375 14.859375,19.703125 L12.546875,19.921875 C12.625,18.671875 12.8125,17.46875 13.15625,16.34375 Z M9.4375,5.828125 L9.703125,5.203125 L13.109375,5.5625 C13.578125,4.171875 14.296875,2.921875 15.28125,1.828125 C13.296875,0.53125 10.890625,-0.53125 8.421875,-1.21875 L8.5625,-1.609375 C11.359375,-1.125 13.96875,-0.1875 16.15625,0.984375 C17.234375,0.03125 18.578125,-0.765625 20.234375,-1.390625 C21.4375,-1.875 22.6875,-2.15625 23.046875,-1.390625 C23.140625,-1.109375 23.109375,-0.859375 22.390625,-0.34375 L22.609375,2.234375 L22.296875,2.28125 C22.078125,1.484375 21.71875,0.625 21.5,0.1875 C21.359375,-0.140625 21.171875,-0.140625 20.734375,0.03125 C19.46875,0.453125 18.390625,1.0625 17.5,1.78125 C18.71875,2.5625 19.78125,3.40625 20.546875,4.296875 C21.078125,4.15625 21.28125,4.21875 21.453125,4.46875 L19.484375,5.65625 C18.765625,4.609375 17.734375,3.59375 16.515625,2.6875 C15.671875,3.59375 15.046875,4.625 14.640625,5.71875 L22.5625,6.546875 C22.875,6.578125 23.109375,6.75 23.140625,7.015625 C22.296875,7.609375 20.921875,8.46875 20.921875,8.46875 L19.9375,6.9375 L14.40625,6.359375 C14.140625,7.25 13.96875,8.15625 13.921875,9.078125 C14.40625,9.171875 14.59375,9.40625 14.609375,9.671875 L12.28125,9.890625 C12.359375,8.59375 12.546875,7.34375 12.890625,6.1875 Z" transform="translate(-0.015625, 19.921875) scale(1, -1)"/>
</svg>