<svg height="22.90625" viewBox="0 0 24 22.90625" width="24" xmlns="http://www.w3.org/2000/svg">
<path d="M9.28125,1.84375 C7.65625,0.703125 4.375,-0.75 1.46875,-1.4375 L1.578125,-1.84375 C4.703125,-1.515625 8.0625,-0.59375 10.109375,0.265625 C10.703125,0.09375 11.09375,0.125 11.28125,0.34375 Z M13.609375,1.390625 L13.515625,0.984375 C16.625,0.28125 18.984375,-0.71875 20.359375,-1.625 C22.21875,-2.8125 24.984375,0.703125 13.609375,1.390625 Z M6.265625,12.9375 L7.34375,11.25 C7.5625,11.328125 7.734375,11.5 7.796875,11.78125 C9.640625,12.578125 11.015625,13.21875 11.921875,13.65625 L11.828125,14.015625 L9.03125,13.4375 L9.03125,15.1875 L11.203125,15.1875 C11.546875,15.1875 11.765625,15.3125 11.828125,15.578125 C11.109375,16.21875 9.984375,17.0625 9.984375,17.0625 L9.03125,15.90625 L7.46875,15.90625 L7.46875,17.453125 L10.875,17.453125 C11.203125,17.453125 11.421875,17.5625 11.46875,17.828125 C10.796875,18.484375 9.765625,19.296875 9.765625,19.296875 L8.8125,18.140625 L7.46875,18.140625 L7.46875,19.265625 C7.96875,19.375 8.15625,19.578125 8.203125,19.890625 L6.046875,20.09375 L6.046875,18.140625 L4.4375,18.140625 C4.65625,18.484375 4.84375,18.8125 5.015625,19.125 C5.5625,19.078125 5.734375,19.203125 5.8125,19.46875 L3.671875,19.921875 C3.4375,18.71875 2.875,17.15625 2.203125,16.265625 L2.515625,16.0625 C3.046875,16.421875 3.53125,16.921875 3.953125,17.453125 L6.046875,17.453125 L6.046875,15.90625 L1.25,15.90625 L1.4375,15.1875 L4.5625,15.1875 C4.390625,13.734375 3.796875,12.171875 1.125,10.78125 L1.484375,10.390625 C4.921875,11.6875 5.78125,13.46875 6.078125,15.1875 L7.625,15.1875 L7.625,13.171875 Z M5.203125,11.140625 L5.203125,1.125 L5.46875,1.125 C6.09375,1.125 6.75,1.515625 6.75,1.65625 L6.75,2.328125 L17.515625,2.328125 L17.515625,1.4375 L17.765625,1.4375 C18.234375,1.4375 19.0625,1.796875 19.078125,1.9375 L19.078125,10.203125 C19.484375,10.265625 19.84375,10.4375 19.984375,10.609375 L18.453125,11.78125 L18.984375,11.765625 L20.1875,11.765625 C22.21875,11.765625 22.75,12 22.75,12.578125 C22.75,12.84375 22.625,13.015625 22.21875,13.15625 L22.15625,14.65625 L21.84375,14.65625 C21.703125,13.96875 21.5,13.375 21.390625,13.15625 C21.3125,13.015625 21.21875,13.015625 21.078125,12.984375 C20.953125,12.984375 20.609375,12.984375 20.234375,12.984375 L19.375,12.984375 C18.984375,12.984375 18.9375,13.03125 18.9375,13.265625 L18.9375,15.1875 L22.15625,15.1875 C22.484375,15.1875 22.703125,15.3125 22.78125,15.578125 C22.0625,16.25 20.953125,17.109375 20.953125,17.109375 L19.96875,15.90625 L17.5625,15.90625 L17.5625,17.453125 L21.125,17.453125 C21.453125,17.453125 21.671875,17.5625 21.71875,17.828125 C21.046875,18.484375 19.984375,19.3125 19.984375,19.3125 L19.03125,18.140625 L17.5625,18.140625 L17.5625,19.265625 C18.09375,19.375 18.28125,19.578125 18.34375,19.890625 L16.171875,20.09375 L16.171875,18.140625 L14.328125,18.140625 C14.546875,18.484375 14.734375,18.8125 14.875,19.125 C15.4375,19.109375 15.625,19.21875 15.671875,19.484375 L13.515625,19.921875 C13.296875,18.75 12.8125,17.15625 12.171875,16.296875 L12.53125,16.109375 C13.015625,16.46875 13.46875,16.9375 13.84375,17.453125 L16.171875,17.453125 L16.171875,15.90625 L11.78125,15.90625 L11.96875,15.1875 L14.640625,15.1875 C14.46875,13.96875 13.9375,12.765625 11.46875,11.6875 L11.8125,11.296875 C15.046875,12.28125 15.890625,13.703125 16.15625,15.1875 L17.5625,15.1875 L17.5625,12.984375 C17.5625,12.40625 17.640625,12.078125 18,11.90625 L17.28125,11.140625 L6.890625,11.140625 L5.203125,11.90625 Z M17.515625,7.78125 L17.515625,5.765625 L6.75,5.765625 L6.75,7.78125 Z M17.515625,8.46875 L6.75,8.46875 L6.75,10.421875 L17.515625,10.421875 Z M17.515625,5.0625 L17.515625,3.03125 L6.75,3.03125 L6.75,5.0625 Z" transform="translate(-1.0546875, 20.09375) scale(1, -1)"/>
</svg>