<svg height="22.109375" viewBox="0 0 24 22.109375" width="24" xmlns="http://www.w3.org/2000/svg">
<path d="M13.921875,14.90625 L11.25,15.578125 C11.140625,6.09375 10.890625,1.828125 0.9375,-1.46875 L1.15625,-1.921875 C12.53125,0.890625 12.625,5.5625 12.953125,14.40625 C13.5625,14.40625 13.828125,14.609375 13.921875,14.90625 Z M12.859375,5.140625 L12.640625,4.84375 C15.53125,3.34375 19.6875,0.4375 21.328125,-1.734375 C23.71875,-2.59375 23.765625,2.15625 12.859375,5.140625 Z M4.46875,19.265625 L4.46875,4.5625 L4.734375,4.5625 C5.546875,4.5625 6.046875,4.921875 6.046875,5.0625 L6.046875,17.859375 L17.828125,17.859375 L17.828125,4.890625 L18.078125,4.890625 C18.84375,4.890625 19.4375,5.296875 19.4375,5.40625 L19.4375,17.640625 C19.984375,17.71875 20.25,17.859375 20.421875,18.046875 L18.546875,19.515625 L17.71875,18.484375 L6.34375,18.484375 Z" transform="translate(-0.3515625, 19.515625) scale(1, -1)"/>
</svg>