<svg height="21.9375" viewBox="0 0 24 21.9375" width="24" xmlns="http://www.w3.org/2000/svg">
<path d="M17.1875,9.1875 L16.890625,9 C18.5,7.390625 20.5625,4.75 21.046875,2.71875 C22.9375,1.296875 24.125,5.71875 17.1875,9.1875 Z M5.015625,9.265625 C4.03125,6.53125 2.421875,3.984375 0.859375,2.453125 L1.171875,2.1875 C3.125,3.40625 4.984375,5.46875 6.28125,7.9375 C6.8125,7.890625 7.109375,8.09375 7.21875,8.328125 Z M11.1875,20.09375 L11.1875,16.3125 L3.171875,16.3125 L3.359375,15.59375 L11.1875,15.59375 L11.1875,12 L1.015625,12 L1.21875,11.296875 L9.03125,11.296875 C8.953125,6.1875 8.640625,1.875 3,-1.390625 L3.34375,-1.78125 C9.9375,1.296875 10.4375,5.765625 10.609375,11.296875 L13.875,11.296875 L13.875,0.578125 C13.875,0.234375 13.75,0.125 13.3125,0.125 C12.765625,0.125 10.203125,0.3125 10.171875,0.3125 L10.171875,-0.078125 C11.328125,-0.21875 11.953125,-0.40625 12.34375,-0.671875 C12.671875,-0.9375 12.8125,-1.375 12.859375,-1.84375 C15.125,-1.609375 15.4375,-0.703125 15.4375,0.546875 L15.4375,11.296875 L22.375,11.296875 C22.734375,11.296875 22.96875,11.421875 23.046875,11.6875 C22.171875,12.4375 20.78125,13.515625 20.78125,13.515625 L19.578125,12 L12.765625,12 L12.765625,15.59375 L20.5,15.59375 C20.859375,15.59375 21.078125,15.71875 21.140625,15.984375 C20.296875,16.75 18.953125,17.765625 18.953125,17.765625 L17.8125,16.3125 L12.765625,16.3125 L12.765625,19.171875 C13.375,19.265625 13.609375,19.515625 13.65625,19.84375 Z" transform="translate(-0.4921875, 20.09375) scale(1, -1)"/>
</svg>