<svg height="22" viewBox="0 0 24 22" width="24" xmlns="http://www.w3.org/2000/svg">
<path d="M13.390625,18.234375 L13.390625,4.375 C13.390625,3.046875 13.84375,2.609375 15.765625,2.609375 L18.28125,2.609375 C22.015625,2.609375 22.84375,2.875 22.84375,3.625 C22.84375,3.9375 22.703125,4.109375 22.15625,4.296875 L22.078125,7.46875 L21.765625,7.46875 C21.5,6.09375 21.21875,4.734375 21.046875,4.390625 C20.953125,4.203125 20.8125,4.125 20.546875,4.109375 C20.234375,4.0625 19.390625,4.0625 18.34375,4.0625 L16.015625,4.0625 C15.046875,4.0625 14.875,4.25 14.875,4.703125 L14.875,11.25 L19.921875,11.25 L19.921875,9.671875 L20.15625,9.671875 C20.65625,9.671875 21.453125,10.015625 21.484375,10.171875 L21.484375,17.234375 C21.953125,17.328125 22.34375,17.515625 22.515625,17.71875 L20.546875,19.203125 L19.6875,18.234375 L15.1875,18.234375 L13.390625,19.015625 Z M19.921875,11.96875 L14.875,11.96875 L14.875,17.546875 L19.921875,17.546875 Z M6.640625,11.1875 L6.640625,1.46875 C5.59375,2.140625 4.78125,3.1875 4.109375,4.828125 C4.34375,6.09375 4.484375,7.375 4.5625,8.546875 C5.0625,8.59375 5.359375,8.78125 5.421875,9.140625 L3.03125,9.53125 C3.125,5.734375 2.59375,1.15625 0.71875,-1.625 L0.984375,-1.890625 C2.546875,-0.359375 3.4375,1.796875 3.9375,4.03125 C5.609375,-0.34375 8.203125,-1.21875 13.0625,-1.21875 C15.28125,-1.21875 20.234375,-1.21875 22.25,-1.21875 C22.296875,-0.578125 22.625,-0.09375 23.28125,0.03125 L23.28125,0.34375 C20.90625,0.265625 15.453125,0.265625 13.125,0.265625 C11.09375,0.265625 9.453125,0.359375 8.140625,0.765625 L8.140625,6.125 L12.125,6.125 C12.453125,6.125 12.671875,6.234375 12.75,6.5 C12.03125,7.21875 10.828125,8.203125 10.828125,8.203125 L9.796875,6.8125 L8.140625,6.8125 L8.140625,10.25 C8.734375,10.34375 8.953125,10.578125 9.03125,10.921875 Z M1.015625,12.03125 L1.203125,11.328125 L12.265625,11.328125 C12.59375,11.328125 12.8125,11.453125 12.890625,11.71875 C12.140625,12.4375 10.921875,13.421875 10.921875,13.421875 L9.859375,12.03125 L7.828125,12.03125 L7.828125,15.765625 L11.71875,15.765625 C12.046875,15.765625 12.265625,15.890625 12.34375,16.15625 C11.609375,16.84375 10.375,17.8125 10.375,17.8125 L9.359375,16.484375 L7.828125,16.484375 L7.828125,19.203125 C8.375,19.296875 8.609375,19.53125 8.65625,19.875 L6.28125,20.109375 L6.28125,16.484375 L1.96875,16.484375 L2.15625,15.765625 L6.28125,15.765625 L6.28125,12.03125 Z" transform="translate(0, 20.109375) scale(1, -1)"/>
</svg>