<svg height="22" viewBox="0 0 24 22" width="24" xmlns="http://www.w3.org/2000/svg">
<path d="M13.3125,12.28125 L13.3125,4.34375 C13.3125,3.09375 13.703125,2.734375 15.59375,2.734375 L18.28125,2.734375 C22.078125,2.734375 22.875,3 22.875,3.71875 C22.875,4.015625 22.734375,4.203125 22.203125,4.375 L22.15625,7.46875 L21.84375,7.46875 C21.546875,6.09375 21.3125,4.84375 21.125,4.46875 C21.03125,4.25 20.921875,4.203125 20.640625,4.171875 C20.328125,4.125 19.4375,4.125 18.34375,4.125 L15.859375,4.125 C14.921875,4.125 14.8125,4.21875 14.8125,4.609375 L14.8125,11.59375 L19.75,11.59375 L19.75,9.953125 L19.984375,9.953125 C20.5,9.953125 21.265625,10.296875 21.28125,10.4375 L21.28125,17.421875 C21.765625,17.515625 22.15625,17.71875 22.3125,17.90625 L20.40625,19.375 L19.515625,18.40625 L12.890625,18.40625 L13.109375,17.734375 L19.75,17.734375 L19.75,12.28125 L15.125,12.28125 L13.3125,13.078125 Z M6.640625,11.1875 L6.640625,1.46875 C5.59375,2.140625 4.78125,3.1875 4.109375,4.828125 C4.34375,6.09375 4.484375,7.375 4.5625,8.546875 C5.0625,8.59375 5.359375,8.78125 5.421875,9.140625 L3.03125,9.53125 C3.125,5.734375 2.59375,1.15625 0.71875,-1.625 L0.984375,-1.890625 C2.546875,-0.359375 3.4375,1.796875 3.9375,4.03125 C5.609375,-0.34375 8.203125,-1.21875 13.0625,-1.21875 C15.28125,-1.21875 20.234375,-1.21875 22.25,-1.21875 C22.296875,-0.578125 22.625,-0.09375 23.28125,0.03125 L23.28125,0.34375 C20.90625,0.265625 15.453125,0.265625 13.125,0.265625 C11.09375,0.265625 9.453125,0.359375 8.140625,0.765625 L8.140625,6.125 L12.125,6.125 C12.453125,6.125 12.671875,6.234375 12.75,6.5 C12.03125,7.21875 10.828125,8.203125 10.828125,8.203125 L9.796875,6.8125 L8.140625,6.8125 L8.140625,10.25 C8.734375,10.34375 8.953125,10.578125 9.03125,10.921875 Z M1.015625,12.03125 L1.203125,11.328125 L12.265625,11.328125 C12.59375,11.328125 12.8125,11.453125 12.890625,11.71875 C12.140625,12.4375 10.921875,13.421875 10.921875,13.421875 L9.859375,12.03125 L7.828125,12.03125 L7.828125,15.765625 L11.71875,15.765625 C12.046875,15.765625 12.265625,15.890625 12.34375,16.15625 C11.609375,16.84375 10.375,17.8125 10.375,17.8125 L9.359375,16.484375 L7.828125,16.484375 L7.828125,19.203125 C8.375,19.296875 8.609375,19.53125 8.65625,19.875 L6.28125,20.109375 L6.28125,16.484375 L1.96875,16.484375 L2.15625,15.765625 L6.28125,15.765625 L6.28125,12.03125 Z" transform="translate(0, 20.109375) scale(1, -1)"/>
</svg>