<svg height="21.359375" viewBox="0 0 24 21.359375" width="24" xmlns="http://www.w3.org/2000/svg">
<path d="M17.640625,17.8125 L17.640625,12.3125 L6.359375,12.3125 L6.359375,17.8125 Z M5.734375,8.90625 C5.328125,5.234375 4.0625,0.953125 1.015625,-1.609375 L1.265625,-1.875 C3.890625,-0.265625 5.453125,2.109375 6.40625,4.578125 C8.40625,-0.1875 11.5,-1.25 17.1875,-1.25 C18.453125,-1.25 21.171875,-1.25 22.265625,-1.25 C22.296875,-0.59375 22.625,-0.125 23.234375,0 L23.234375,0.34375 C21.71875,0.28125 18.671875,0.28125 17.296875,0.28125 C15.578125,0.28125 14.09375,0.359375 12.796875,0.578125 L12.796875,6.140625 L20.59375,6.140625 C20.921875,6.140625 21.1875,6.265625 21.234375,6.53125 C20.421875,7.265625 19.078125,8.28125 19.078125,8.28125 L17.921875,6.84375 L12.796875,6.84375 L12.796875,11.609375 L17.640625,11.609375 L17.640625,10.265625 L17.875,10.265625 C18.390625,10.265625 19.203125,10.625 19.21875,10.796875 L19.21875,17.5 C19.703125,17.59375 20.0625,17.8125 20.234375,18 L18.265625,19.484375 L17.40625,18.5 L6.5,18.5 L4.796875,19.296875 L4.796875,10.109375 L5.0625,10.109375 C5.71875,10.109375 6.359375,10.4375 6.359375,10.609375 L6.359375,11.609375 L11.203125,11.609375 L11.203125,0.953125 C9.171875,1.609375 7.703125,2.875 6.640625,5.203125 C6.9375,6.09375 7.171875,6.984375 7.34375,7.84375 C7.84375,7.875 8.15625,8.0625 8.25,8.40625 Z" transform="translate(-0.125, 19.484375) scale(1, -1)"/>
</svg>