<svg height="21.296875" viewBox="0 0 24 21.296875" width="24" xmlns="http://www.w3.org/2000/svg">
<path d="M21.9375,11.546875 L21.140625,10.375 L20.875,10.375 L20.875,17.375 C21.390625,17.46875 21.796875,17.65625 21.953125,17.828125 L20.0625,19.296875 L19.3125,18.359375 L17.765625,18.359375 L16.171875,19.109375 L16.171875,10.375 L14.609375,10.375 L14.609375,17.375 C15.125,17.46875 15.5,17.65625 15.671875,17.828125 L13.796875,19.265625 L13.0625,18.359375 L11.5625,18.359375 L9.9375,19.109375 L9.9375,10.875 L9.9375,10.375 L8.015625,10.375 L8.203125,9.671875 L9.9375,9.671875 C9.890625,5.640625 9.546875,1.625 7.5625,-1.578125 L7.9375,-1.828125 C10.78125,1.34375 11.203125,5.8125 11.28125,9.671875 L13.296875,9.671875 L13.296875,1.03125 C13.296875,0.671875 13.171875,0.546875 12.8125,0.546875 C12.4375,0.546875 10.65625,0.71875 10.65625,0.71875 L10.65625,0.3125 C11.46875,0.21875 11.953125,0.046875 12.21875,-0.140625 C12.484375,-0.359375 12.578125,-0.71875 12.625,-1.109375 C14.40625,-0.90625 14.609375,-0.234375 14.609375,0.890625 L14.609375,9.671875 L16.171875,9.671875 L16.171875,8.78125 C16.171875,4.828125 16.0625,0.984375 14.140625,-1.75 L14.546875,-1.984375 C17.375,0.71875 17.46875,4.890625 17.46875,8.8125 L17.46875,9.671875 L19.5625,9.671875 L19.5625,0.265625 C19.5625,-0.046875 19.4375,-0.1875 19.109375,-0.1875 C18.71875,-0.1875 17.046875,-0.03125 17.046875,-0.03125 L17.046875,-0.4375 C17.8125,-0.53125 18.265625,-0.703125 18.546875,-0.90625 C18.796875,-1.125 18.859375,-1.484375 18.90625,-1.84375 C20.65625,-1.6875 20.875,-1.015625 20.875,0.140625 L20.875,9.671875 L22.796875,9.671875 C23.140625,9.671875 23.359375,9.796875 23.40625,10.0625 C22.875,10.6875 21.9375,11.546875 21.9375,11.546875 Z M13.296875,17.640625 L13.296875,10.375 L11.28125,10.375 L11.28125,10.890625 L11.28125,17.640625 Z M19.5625,17.640625 L19.5625,10.375 L17.46875,10.375 L17.46875,17.640625 Z M3.484375,12.578125 L3.484375,17.734375 L7.171875,17.734375 L7.171875,12.578125 Z M4.03125,9.078125 L2.140625,9.265625 L2.140625,0.8125 L0.90625,0.4375 L1.9375,-1.4375 C2.15625,-1.3125 2.359375,-1.109375 2.421875,-0.796875 C5.328125,0.703125 7.53125,1.96875 9.078125,2.828125 L8.953125,3.171875 L6.09375,2.15625 L6.09375,6.90625 L8.6875,6.90625 C9,6.90625 9.234375,7.03125 9.28125,7.296875 C8.71875,7.9375 7.734375,8.78125 7.734375,8.78125 L6.890625,7.625 L6.09375,7.625 L6.09375,11.859375 L7.171875,11.859375 L7.171875,11.234375 L7.375,11.234375 C7.828125,11.234375 8.515625,11.546875 8.546875,11.71875 L8.546875,17.515625 C9,17.609375 9.359375,17.765625 9.53125,17.953125 L7.75,19.3125 L6.9375,18.453125 L3.796875,18.453125 L2.109375,19.203125 L2.109375,10.734375 L2.328125,10.734375 C3.046875,10.734375 3.484375,11.109375 3.484375,11.203125 L3.484375,11.859375 L4.75,11.859375 L4.75,1.6875 L3.4375,1.21875 L3.4375,8.5625 C3.84375,8.640625 4.015625,8.8125 4.03125,9.078125 Z" transform="translate(-0.15625, 19.3125) scale(1, -1)"/>
</svg>