<svg height="21.328125" viewBox="0 0 24 21.328125" width="24" xmlns="http://www.w3.org/2000/svg">
<path d="M19.53125,12.09375 L19.53125,6.40625 L13.375,6.40625 L13.375,12.09375 Z M10.03125,-0.1875 L10.21875,-0.859375 L22.78125,-0.859375 C23.140625,-0.859375 23.328125,-0.75 23.40625,-0.5 C22.609375,0.265625 21.28125,1.25 21.28125,1.25 L20.140625,-0.1875 L13.375,-0.1875 L13.375,5.71875 L19.53125,5.71875 L19.53125,4.296875 L19.75,4.296875 C20.28125,4.296875 21.078125,4.6875 21.09375,4.84375 L21.09375,11.8125 C21.578125,11.90625 21.9375,12.078125 22.109375,12.265625 L20.15625,13.78125 L19.296875,12.796875 L13.375,12.796875 L13.375,17.5625 L22.375,17.5625 C22.703125,17.5625 22.9375,17.6875 22.984375,17.953125 C22.203125,18.703125 20.921875,19.703125 20.921875,19.703125 L19.78125,18.28125 L10.609375,18.28125 L10.796875,17.5625 L11.828125,17.5625 L11.828125,-0.1875 Z M8.015625,17.765625 L8.015625,12.765625 L3.671875,12.765625 L3.671875,17.765625 Z M2.203125,18.453125 L2.203125,10.578125 L2.421875,10.578125 C3.171875,10.578125 3.671875,10.96875 3.671875,11.09375 L3.671875,12.078125 L5.40625,12.078125 L5.40625,1.375 L3.578125,0.984375 L3.578125,8.6875 C4.0625,8.765625 4.25,8.96875 4.296875,9.234375 L2.203125,9.453125 L2.203125,0.71875 L0.671875,0.4375 L1.484375,-1.625 C1.734375,-1.5625 1.9375,-1.34375 2.046875,-1.0625 C5.8125,0.234375 8.609375,1.34375 10.625,2.140625 L10.5625,2.515625 L6.859375,1.6875 L6.859375,6.9375 L10.0625,6.9375 C10.390625,6.9375 10.609375,7.0625 10.6875,7.296875 C9.984375,7.984375 8.875,8.953125 8.875,8.953125 L7.875,7.625 L6.859375,7.625 L6.859375,12.078125 L8.015625,12.078125 L8.015625,10.9375 L8.234375,10.9375 C8.71875,10.9375 9.4375,11.25 9.484375,11.375 L9.484375,17.46875 C9.953125,17.5625 10.34375,17.765625 10.484375,17.953125 L8.609375,19.375 L7.78125,18.453125 L3.953125,18.453125 L2.203125,19.21875 Z" transform="translate(-0.0390625, 19.703125) scale(1, -1)"/>
</svg>