<svg height="21.859375" viewBox="0 0 24 21.859375" width="24" xmlns="http://www.w3.org/2000/svg">
<path d="M19.828125,11.96875 L19.484375,11.828125 C20.515625,10.03125 21.671875,7.296875 21.703125,5.1875 C23.296875,3.578125 24.84375,7.78125 19.828125,11.96875 Z M9.046875,15.625 L9.234375,14.921875 L13.46875,14.921875 C13.4375,7.46875 13.484375,2.203125 7.3125,-1.484375 L7.65625,-1.890625 C14.859375,1.625 14.953125,6.984375 15.046875,14.921875 L17.15625,14.921875 L17.15625,0.53125 C17.15625,0.1875 17.046875,0.078125 16.625,0.078125 C16.203125,0.078125 14.015625,0.21875 14.015625,0.21875 L14.015625,-0.140625 C15.03125,-0.265625 15.546875,-0.453125 15.890625,-0.71875 C16.171875,-0.984375 16.3125,-1.421875 16.34375,-1.890625 C18.390625,-1.6875 18.625,-0.71875 18.625,0.484375 L18.625,14.921875 L22.578125,14.921875 C22.921875,14.921875 23.140625,15.046875 23.203125,15.3125 C22.4375,16.03125 21.171875,17.046875 21.171875,17.046875 L20.0625,15.625 L16.53125,15.625 L16.53125,19.078125 C17.109375,19.15625 17.375,19.390625 17.40625,19.734375 L15.03125,19.96875 L15.03125,15.625 Z M0.671875,0.53125 L1.46875,-1.484375 C1.703125,-1.421875 1.921875,-1.171875 1.984375,-0.890625 C5.359375,0.453125 7.890625,1.65625 9.71875,2.46875 L9.625,2.8125 L6.34375,1.9375 L6.34375,6.953125 L8.96875,6.953125 C9.265625,6.953125 9.484375,7.0625 9.53125,7.25 C9.171875,6.265625 8.734375,5.375 8.28125,4.609375 L8.640625,4.390625 C10.21875,5.875 11.40625,8.203125 12.125,10.84375 C12.640625,10.875 12.890625,11.09375 12.984375,11.40625 L10.65625,11.953125 C10.4375,10.3125 10.0625,8.734375 9.546875,7.34375 C8.921875,8.046875 7.84375,9 7.84375,9 L6.890625,7.625 L6.34375,7.625 L6.34375,11.875 L7.34375,11.875 L7.34375,11.015625 L7.5625,11.015625 C8.046875,11.015625 8.78125,11.359375 8.8125,11.5 L8.8125,17.46875 C9.265625,17.5625 9.640625,17.765625 9.8125,17.953125 L7.9375,19.375 L7.125,18.453125 L3.8125,18.453125 L2.109375,19.203125 L2.109375,10.65625 L2.328125,10.65625 C3.046875,10.65625 3.53125,11.015625 3.53125,11.15625 L3.53125,11.875 L4.921875,11.875 L4.921875,1.5625 L3.359375,1.15625 L3.359375,8.59375 C3.859375,8.65625 4.078125,8.859375 4.125,9.125 L2.046875,9.359375 L2.046875,0.84375 Z M3.53125,17.765625 L7.34375,17.765625 L7.34375,12.578125 L3.53125,12.578125 Z" transform="translate(-0.7578125, 19.96875) scale(1, -1)"/>
</svg>