<svg height="22.21875" viewBox="0 0 24 22.21875" width="24" xmlns="http://www.w3.org/2000/svg">
<path d="M16.203125,19.65625 L15.984375,19.390625 C16.890625,19.03125 17.953125,18.21875 18.3125,17.453125 C19.890625,16.796875 20.40625,19.828125 16.203125,19.65625 Z M15.5,9.671875 L15.3125,9.4375 C16.265625,8.96875 17.359375,8.0625 17.765625,7.21875 C19.296875,6.53125 19.921875,9.59375 15.5,9.671875 Z M9.21875,16.15625 L9.453125,15.453125 L13.84375,15.796875 C14.203125,14.734375 14.71875,13.75 15.40625,12.859375 C13.515625,11.859375 11.296875,11.046875 9.1875,10.515625 L9.359375,10.125 C11.734375,10.46875 14.109375,11.15625 16.15625,12.03125 C17.15625,11.015625 18.453125,10.171875 20.09375,9.53125 C21.21875,9.078125 22.421875,8.828125 22.75,9.546875 C22.875,9.84375 22.828125,10.078125 22.125,10.609375 L22.34375,13.0625 L22.0625,13.109375 C21.84375,12.359375 21.5,11.5 21.3125,11.09375 C21.140625,10.78125 20.96875,10.78125 20.59375,10.921875 C19.375,11.359375 18.359375,11.953125 17.5625,12.703125 C18.59375,13.203125 19.484375,13.78125 20.15625,14.359375 C20.6875,14.1875 20.875,14.234375 21.078125,14.453125 L19.3125,15.625 C18.640625,14.921875 17.765625,14.234375 16.703125,13.578125 C16.125,14.296875 15.671875,15.09375 15.359375,15.90625 L21.765625,16.421875 C22.078125,16.4375 22.3125,16.609375 22.34375,16.84375 C21.671875,17.40625 20.546875,18.171875 20.546875,18.171875 L19.703125,16.9375 L15.125,16.609375 C14.859375,17.453125 14.71875,18.34375 14.65625,19.21875 C15.140625,19.3125 15.34375,19.5625 15.390625,19.828125 L13.109375,20.015625 C13.15625,18.765625 13.3125,17.59375 13.625,16.484375 Z M8.828125,6.234375 L9.078125,5.5625 L13.171875,5.859375 C13.65625,4.46875 14.359375,3.1875 15.3125,2.046875 C13.078125,0.625 10.390625,-0.578125 7.65625,-1.34375 L7.828125,-1.734375 C10.84375,-1.15625 13.75,-0.125 16.125,1.171875 C17.15625,0.1875 18.4375,-0.671875 19.96875,-1.34375 C21.125,-1.890625 22.390625,-2.203125 22.75,-1.46875 C22.890625,-1.171875 22.84375,-0.9375 22.125,-0.34375 L22.375,2.203125 L22.078125,2.25 C21.84375,1.484375 21.53125,0.625 21.28125,0.1875 C21.125,-0.125 20.921875,-0.125 20.546875,0.078125 C19.34375,0.546875 18.34375,1.203125 17.5,1.9375 C18.8125,2.78125 19.9375,3.703125 20.78125,4.609375 C21.328125,4.4375 21.546875,4.515625 21.703125,4.734375 L19.78125,5.96875 C18.984375,4.890625 17.875,3.859375 16.5625,2.90625 C15.75,3.84375 15.140625,4.875 14.734375,5.953125 L22.21875,6.484375 C22.515625,6.5 22.75,6.640625 22.78125,6.90625 C22.078125,7.484375 20.875,8.359375 20.875,8.359375 L19.9375,7.03125 L14.5,6.640625 C14.25,7.4375 14.109375,8.234375 14.0625,9 C14.546875,9.09375 14.765625,9.34375 14.78125,9.59375 L12.453125,9.8125 C12.5,8.6875 12.671875,7.578125 12.984375,6.53125 Z M3.59375,17.765625 L7.46875,17.765625 L7.46875,12.578125 L3.59375,12.578125 Z M0.703125,0.453125 L1.5625,-1.53125 C1.78125,-1.46875 1.984375,-1.21875 2.09375,-0.9375 C5.8125,0.5 8.59375,1.75 10.578125,2.640625 L10.484375,3 L6.5,1.921875 L6.5,6.953125 L9.359375,6.953125 C9.671875,6.953125 9.90625,7.078125 9.984375,7.3125 C9.3125,8.046875 8.1875,9.046875 8.1875,9.046875 L7.21875,7.625 L6.5,7.625 L6.5,11.875 L7.46875,11.875 L7.46875,11.015625 L7.703125,11.015625 C8.15625,11.015625 8.90625,11.359375 8.921875,11.5 L8.921875,17.46875 C9.390625,17.5625 9.765625,17.765625 9.9375,17.953125 L8.09375,19.375 L7.21875,18.453125 L3.90625,18.453125 L2.1875,19.203125 L2.1875,10.65625 L2.40625,10.65625 C3.125,10.65625 3.59375,11.015625 3.59375,11.15625 L3.59375,11.875 L5.0625,11.875 L5.0625,1.53125 L3.453125,1.125 L3.453125,8.59375 C3.9375,8.65625 4.15625,8.859375 4.171875,9.125 L2.140625,9.359375 L2.140625,0.796875 Z" transform="translate(0.203125, 20.015625) scale(1, -1)"/>
</svg>