<svg height="21.4375" viewBox="0 0 24 21.4375" width="24" xmlns="http://www.w3.org/2000/svg">
<path d="M16.625,16.078125 L16.828125,15.359375 L20.515625,15.359375 L20.515625,13.203125 L16.25,13.203125 L16.46875,12.484375 L20.515625,12.484375 L20.515625,11.5625 L20.734375,11.5625 C21.21875,11.5625 21.9375,11.859375 21.953125,12 L21.953125,17.8125 C22.390625,17.90625 22.75,18.09375 22.875,18.265625 L21.09375,19.609375 L20.28125,18.71875 L16.53125,18.71875 L16.75,18.03125 L20.515625,18.03125 L20.515625,16.078125 Z M11.859375,12.078125 C11.046875,9.34375 9.578125,6.84375 8.109375,5.296875 L8.421875,5.015625 C9.1875,5.515625 9.9375,6.1875 10.625,6.953125 L10.625,-1.828125 L10.84375,-1.828125 C11.59375,-1.828125 12.046875,-1.4375 12.046875,-1.3125 L12.046875,-0.578125 L22.46875,-0.578125 C22.796875,-0.578125 23.046875,-0.453125 23.109375,-0.1875 C22.3125,0.546875 21.078125,1.53125 21.078125,1.53125 L19.9375,0.140625 L17.0625,0.140625 L17.0625,2.546875 L21.578125,2.546875 C21.890625,2.546875 22.125,2.65625 22.171875,2.921875 C21.453125,3.625 20.28125,4.53125 20.28125,4.53125 L19.265625,3.265625 L17.0625,3.265625 L17.0625,5.5625 L21.546875,5.5625 C21.84375,5.5625 22.078125,5.65625 22.15625,5.921875 C21.4375,6.625 20.25,7.53125 20.25,7.53125 L19.21875,6.265625 L17.0625,6.265625 L17.0625,8.546875 L22.109375,8.546875 C22.4375,8.546875 22.65625,8.65625 22.734375,8.90625 C21.953125,9.625 20.78125,10.5625 20.78125,10.5625 L19.703125,9.21875 L16.3125,9.21875 C16.84375,9.796875 17.40625,10.421875 17.78125,10.9375 C18.3125,10.921875 18.578125,11.140625 18.671875,11.421875 L16.421875,12 C16.203125,11.1875 15.859375,10.0625 15.578125,9.21875 L12.28125,9.21875 C12.625,9.75 12.90625,10.265625 13.171875,10.84375 C13.6875,10.796875 13.9375,11.015625 14.0625,11.25 Z M15.625,8.546875 L15.625,6.265625 L12.046875,6.265625 L12.046875,8.546875 Z M15.625,5.5625 L15.625,3.265625 L12.046875,3.265625 L12.046875,5.5625 Z M15.625,2.546875 L15.625,0.140625 L12.046875,0.140625 L12.046875,2.546875 Z M10.109375,16.078125 L10.3125,15.359375 L13.75,15.359375 L13.75,13.203125 L9.625,13.203125 L9.84375,12.484375 L13.75,12.484375 L13.75,11.5625 L13.96875,11.5625 C14.421875,11.5625 15.171875,11.859375 15.1875,12 L15.1875,17.828125 C15.578125,17.90625 15.953125,18.09375 16.078125,18.265625 L14.328125,19.609375 L13.53125,18.71875 L9.84375,18.71875 L10.0625,18.03125 L13.75,18.03125 L13.75,16.078125 Z M3.484375,17.765625 L7.21875,17.765625 L7.21875,12.53125 L3.484375,12.53125 Z M0.671875,0.5 L1.515625,-1.46875 C1.75,-1.375 1.96875,-1.15625 2.015625,-0.859375 C5.359375,0.59375 7.890625,1.84375 9.71875,2.71875 L9.59375,3.078125 L6.140625,2.015625 L6.140625,6.953125 L8.859375,6.953125 C9.140625,6.953125 9.390625,7.078125 9.4375,7.3125 C8.8125,8.046875 7.6875,9.03125 7.6875,9.03125 L6.75,7.625 L6.140625,7.625 L6.140625,11.828125 L7.21875,11.828125 L7.21875,10.921875 L7.4375,10.921875 C7.890625,10.921875 8.609375,11.25 8.640625,11.40625 L8.640625,17.515625 C9.078125,17.59375 9.453125,17.78125 9.59375,17.96875 L7.796875,19.34375 L7.015625,18.453125 L3.765625,18.453125 L2.09375,19.203125 L2.09375,10.703125 L2.296875,10.703125 C3,10.703125 3.484375,11.09375 3.484375,11.203125 L3.484375,11.828125 L4.75,11.828125 L4.75,1.609375 L3.34375,1.203125 L3.34375,8.28125 C3.84375,8.359375 4.0625,8.546875 4.078125,8.859375 L2.046875,9.078125 L2.046875,0.84375 Z" transform="translate(0.109375, 19.609375) scale(1, -1)"/>
</svg>