<svg height="22.078125" viewBox="0 0 24 22.078125" width="24" xmlns="http://www.w3.org/2000/svg">
<path d="M3.75,16.53125 L6.9375,16.53125 L6.9375,14.09375 L3.75,14.09375 Z M10.15625,18.265625 L10.15625,10.5625 L8.5,11.25 L8.359375,10.875 L8.359375,16.25 C8.828125,16.3125 9.21875,16.53125 9.359375,16.703125 L7.4375,18.1875 L6.703125,17.203125 L4.984375,17.203125 C5.40625,17.859375 5.859375,18.671875 6.140625,19.265625 C6.640625,19.3125 6.90625,19.53125 6.984375,19.84375 L4.734375,20.203125 C4.625,19.34375 4.484375,18.078125 4.34375,17.203125 L3.984375,17.203125 L2.359375,17.953125 L2.359375,7.078125 L0.90625,6.953125 L1.78125,5.046875 C1.984375,5.09375 2.203125,5.25 2.328125,5.546875 L6.40625,6.890625 C4.96875,4.484375 3.046875,2.140625 0.84375,0.4375 L1.125,0.140625 C3.453125,1.578125 5.40625,3.53125 6.9375,5.5625 L6.9375,0.53125 C6.9375,0.140625 6.8125,0 6.390625,0 C5.90625,0 3.625,0.1875 3.625,0.1875 L3.625,-0.21875 C4.625,-0.34375 5.203125,-0.5 5.515625,-0.75 C5.828125,-0.984375 5.96875,-1.375 6.03125,-1.828125 C8.109375,-1.609375 8.359375,-0.84375 8.359375,0.34375 L8.359375,7.65625 C8.859375,8.5 9.28125,9.3125 9.640625,10.078125 C9.859375,10.0625 10.03125,10.0625 10.15625,10.078125 L10.15625,-1.875 L10.390625,-1.875 C11.109375,-1.875 11.59375,-1.46875 11.59375,-1.34375 L11.59375,-0.484375 L22.703125,-0.484375 C23.046875,-0.484375 23.25,-0.359375 23.328125,-0.09375 C22.5625,0.640625 21.3125,1.609375 21.3125,1.609375 L20.25,0.234375 L11.59375,0.234375 L11.59375,17.5625 L22.390625,17.5625 C22.703125,17.5625 22.9375,17.6875 23.015625,17.953125 C22.21875,18.671875 21,19.65625 21,19.65625 L19.890625,18.265625 L11.875,18.265625 L10.15625,19.03125 Z M3.75,13.390625 L6.9375,13.390625 L6.9375,10.890625 L3.75,10.890625 Z M3.75,10.21875 L6.9375,10.21875 L6.9375,7.828125 L6.8125,7.609375 L3.75,7.21875 Z M18.9375,15.046875 L18.9375,11.8125 L15.1875,11.8125 L15.1875,15.046875 Z M13.921875,15.75 L13.921875,9.90625 L14.140625,9.90625 C14.640625,9.90625 15.1875,10.21875 15.1875,10.3125 L15.1875,11.09375 L18.9375,11.09375 L18.9375,10.203125 L19.125,10.203125 C19.5625,10.203125 20.203125,10.484375 20.234375,10.65625 L20.234375,14.859375 C20.640625,14.921875 21,15.09375 21.140625,15.265625 L19.46875,16.53125 L18.71875,15.75 L15.3125,15.75 L13.921875,16.390625 Z M15.4375,8.046875 L15.4375,4.015625 L13.828125,4.015625 L13.828125,8.046875 Z M12.671875,8.765625 L12.671875,1.6875 L12.84375,1.6875 C13.34375,1.6875 13.828125,1.96875 13.828125,2.09375 L13.828125,3.3125 L15.4375,3.3125 L15.4375,2.234375 L15.59375,2.234375 C15.984375,2.234375 16.578125,2.546875 16.609375,2.6875 L16.609375,7.890625 C16.984375,7.96875 17.328125,8.140625 17.46875,8.296875 L15.9375,9.5 L15.265625,8.765625 L13.9375,8.765625 L12.671875,9.34375 Z M20.71875,8.046875 L20.71875,4.015625 L18.953125,4.015625 L18.953125,8.046875 Z M17.828125,8.765625 L17.828125,1.890625 L18.03125,1.890625 C18.5,1.890625 18.953125,2.140625 18.953125,2.28125 L18.953125,3.3125 L20.71875,3.3125 L20.71875,2.296875 L20.875,2.296875 C21.265625,2.296875 21.859375,2.609375 21.890625,2.765625 L21.890625,7.890625 C22.265625,7.96875 22.625,8.140625 22.78125,8.296875 L21.1875,9.5 L20.5,8.765625 L19.078125,8.765625 L17.828125,9.34375 Z" transform="translate(-0.0859375, 20.203125) scale(1, -1)"/>
</svg>