<svg height="23.015625" viewBox="0 0 24 23.015625" width="24" xmlns="http://www.w3.org/2000/svg">
<path d="M12.890625,17.453125 L13.078125,16.75 L21.765625,16.75 C22.109375,16.75 22.34375,16.84375 22.421875,17.109375 C21.59375,17.859375 20.359375,18.859375 20.359375,18.859375 L19.25,17.453125 Z M18.578125,6.125 L18.234375,5.953125 C19.03125,4.78125 19.9375,3.21875 20.59375,1.625 L13.890625,0.953125 C15.125,3.390625 16.5625,7.109375 17.515625,10.03125 L22.484375,10.03125 C22.828125,10.03125 23.0625,10.15625 23.140625,10.421875 C22.34375,11.15625 21.046875,12.1875 21.046875,12.1875 L19.921875,10.734375 L11.828125,10.734375 L12,10.03125 L15.4375,10.03125 C14.921875,7.296875 13.921875,3.359375 13.125,0.890625 L10.703125,0.703125 L11.71875,-1.390625 C11.953125,-1.34375 12.140625,-1.171875 12.28125,-0.890625 C16.015625,-0.03125 18.75,0.640625 20.765625,1.203125 C21.078125,0.34375 21.28125,-0.53125 21.359375,-1.296875 C23.15625,-2.90625 24.546875,1.609375 18.578125,6.125 Z M2.015625,13.921875 L2.015625,5.25 L2.25,5.25 C2.8125,5.25 3.4375,5.59375 3.4375,5.734375 L3.4375,6.453125 L5.640625,6.453125 L5.640625,3.671875 L0.9375,3.671875 L1.125,2.96875 L5.640625,2.96875 L5.640625,-1.84375 L5.875,-1.84375 C6.671875,-1.84375 7.171875,-1.46875 7.171875,-1.375 L7.171875,2.96875 L11.65625,2.96875 C12,2.96875 12.1875,3.09375 12.265625,3.359375 C11.515625,4.0625 10.296875,5.046875 10.296875,5.046875 L9.1875,3.671875 L7.171875,3.671875 L7.171875,6.453125 L9.34375,6.453125 L9.34375,5.515625 L9.546875,5.515625 C10.03125,5.515625 10.734375,5.859375 10.75,6 L10.75,13.015625 C11.1875,13.109375 11.546875,13.296875 11.6875,13.46875 L9.90625,14.8125 L9.125,13.921875 L7.171875,13.921875 L7.171875,16.0625 L11.28125,16.0625 C11.609375,16.0625 11.859375,16.171875 11.921875,16.4375 C11.140625,17.15625 9.9375,18.171875 9.9375,18.171875 L8.859375,16.78125 L7.171875,16.78125 L7.171875,19.25 C7.703125,19.34375 7.921875,19.5625 7.96875,19.890625 L5.640625,20.109375 L5.640625,16.78125 L1.109375,16.78125 L1.296875,16.0625 L5.640625,16.0625 L5.640625,13.921875 L3.546875,13.921875 L2.015625,14.640625 Z M5.71875,9.9375 L5.71875,7.15625 L3.4375,7.15625 L3.4375,9.9375 Z M7.125,9.9375 L9.34375,9.9375 L9.34375,7.15625 L7.125,7.15625 Z M5.71875,10.625 L3.4375,10.625 L3.4375,13.21875 L5.71875,13.21875 Z M7.125,10.625 L7.125,13.21875 L9.34375,13.21875 L9.34375,10.625 Z" transform="translate(-0.7421875, 20.109375) scale(1, -1)"/>
</svg>