<svg height="21.984375" viewBox="0 0 24 21.984375" width="24" xmlns="http://www.w3.org/2000/svg">
<path d="M18.625,14.515625 L18.34375,14.359375 C19.53125,13.0625 21.09375,10.890625 21.484375,9.28125 C23.15625,8.109375 24.3125,11.765625 18.625,14.515625 Z M14.234375,14.609375 C13.4375,12.3125 12.140625,10.203125 10.875,8.921875 L11.203125,8.65625 C12.8125,9.640625 14.375,11.328125 15.453125,13.3125 C15.953125,13.25 16.25,13.421875 16.375,13.6875 Z M1.984375,13.984375 L1.984375,5.421875 L2.234375,5.421875 C2.8125,5.421875 3.4375,5.734375 3.4375,5.90625 L3.4375,6.640625 L5.453125,6.640625 L5.453125,3.890625 L0.890625,3.890625 L1.078125,3.171875 L5.453125,3.171875 L5.453125,-1.828125 L5.65625,-1.828125 C6.4375,-1.828125 6.9375,-1.4375 6.9375,-1.3125 L6.9375,3.171875 L11.421875,3.171875 C11.734375,3.171875 11.96875,3.28125 12.046875,3.546875 C11.28125,4.265625 10.03125,5.234375 10.03125,5.234375 L8.953125,3.890625 L6.9375,3.890625 L6.9375,6.640625 L9.03125,6.640625 L9.03125,5.765625 L9.234375,5.765625 C9.75,5.765625 10.46875,6.140625 10.484375,6.28125 L10.484375,13.15625 C10.828125,13.21875 11.15625,13.390625 11.28125,13.53125 L9.625,14.828125 L8.828125,13.984375 L6.9375,13.984375 L6.9375,16.171875 L11.140625,16.171875 L11.25,16.203125 L11.453125,15.5 L22.484375,15.5 C22.796875,15.5 23.046875,15.625 23.109375,15.890625 C22.3125,16.625 21.078125,17.640625 21.078125,17.640625 L19.9375,16.203125 L17.59375,16.203125 L17.59375,19.15625 C18.140625,19.25 18.359375,19.46875 18.40625,19.796875 L16.03125,20.015625 L16.03125,16.203125 L11.375,16.203125 C11.5625,16.25 11.71875,16.375 11.765625,16.5625 C10.984375,17.25 9.75,18.234375 9.75,18.234375 L8.640625,16.875 L6.9375,16.875 L6.9375,19.25 C7.484375,19.34375 7.6875,19.5625 7.734375,19.875 L5.453125,20.09375 L5.453125,16.875 L1.03125,16.875 L1.21875,16.171875 L5.453125,16.171875 L5.453125,13.984375 L3.546875,13.984375 L1.984375,14.71875 Z M18.59375,10.15625 C18.171875,7.96875 17.5,6.125 16.578125,4.53125 C15.453125,6.046875 14.640625,7.875 14.140625,9.984375 L13.703125,9.796875 C14.15625,7.3125 14.875,5.234375 15.90625,3.484375 C14.25,1.15625 12.046875,-0.484375 9.453125,-1.53125 L9.703125,-1.890625 C12.5,-1.109375 14.828125,0.234375 16.6875,2.328125 C17.96875,0.546875 19.703125,-0.8125 21.859375,-1.84375 C22.15625,-1.0625 22.703125,-0.578125 23.421875,-0.5 L23.46875,-0.265625 C21.09375,0.53125 19.078125,1.75 17.515625,3.40625 C18.578125,4.890625 19.421875,6.71875 20.015625,8.921875 C20.546875,8.90625 20.828125,9.125 20.921875,9.4375 Z M5.5,9.953125 L5.5,7.34375 L3.4375,7.34375 L3.4375,9.953125 Z M6.90625,9.953125 L9.03125,9.953125 L9.03125,7.34375 L6.90625,7.34375 Z M5.5,10.65625 L3.4375,10.65625 L3.4375,13.3125 L5.5,13.3125 Z M6.90625,10.65625 L6.90625,13.3125 L9.03125,13.3125 L9.03125,10.65625 Z" transform="translate(-0.6015625, 20.09375) scale(1, -1)"/>
</svg>