<svg height="22.015625" viewBox="0 0 24 22.015625" width="24" xmlns="http://www.w3.org/2000/svg">
<path d="M14.1875,19.921875 C13.34375,16.828125 11.8125,13.921875 10.203125,12.140625 L10.53125,11.90625 C10.890625,12.171875 11.25,12.453125 11.59375,12.765625 L11.59375,6.09375 L11.828125,6.09375 C12.578125,6.09375 13.0625,6.546875 13.0625,6.71875 L13.0625,7.5625 L15.75,7.5625 C15.125,4.109375 13.4375,1.015625 8.78125,-1.515625 L9.09375,-1.921875 C13.703125,0.171875 15.796875,2.78125 16.78125,5.828125 L16.78125,0.171875 C16.78125,-0.84375 17.046875,-1.21875 18.484375,-1.21875 L20.015625,-1.21875 C22.5625,-1.21875 23.140625,-0.953125 23.140625,-0.34375 C23.140625,-0.046875 23.0625,0.171875 22.578125,0.3125 L22.515625,3.03125 L22.21875,3.03125 C21.984375,1.890625 21.75,0.703125 21.59375,0.390625 C21.5,0.1875 21.4375,0.171875 21.265625,0.140625 C21.078125,0.140625 20.640625,0.140625 20.0625,0.140625 L18.84375,0.140625 C18.3125,0.140625 18.234375,0.234375 18.234375,0.53125 L18.234375,7.5625 L20.78125,7.5625 L20.78125,6.28125 L21.03125,6.28125 C21.53125,6.28125 22.25,6.703125 22.265625,6.890625 L22.265625,12.640625 C22.625,12.71875 22.9375,12.890625 23.0625,13.0625 L21.359375,14.359375 L20.59375,13.515625 L16.75,13.515625 C17.8125,14.421875 18.953125,15.765625 19.6875,16.578125 C20.15625,16.609375 20.421875,16.65625 20.609375,16.828125 L18.84375,18.484375 L17.828125,17.5 L15.09375,17.5 L15.625,18.625 C16.15625,18.59375 16.4375,18.8125 16.5625,19.109375 Z M15.84375,8.28125 L13.0625,8.28125 L13.0625,12.8125 L16.125,12.8125 C16.109375,11.25 16.0625,9.75 15.84375,8.28125 Z M17.359375,8.28125 C17.5625,9.703125 17.640625,11.234375 17.6875,12.8125 L20.78125,12.8125 L20.78125,8.28125 Z M14.71875,16.796875 L17.8125,16.796875 C17.375,15.8125 16.734375,14.453125 16.125,13.515625 L13.34375,13.515625 L12.625,13.828125 C13.390625,14.6875 14.09375,15.703125 14.71875,16.796875 Z M1.984375,13.984375 L1.984375,5.109375 L2.203125,5.109375 C2.8125,5.109375 3.390625,5.453125 3.390625,5.5625 L3.390625,6.546875 L5.1875,6.546875 L5.1875,3.75 L0.890625,3.75 L1.078125,3.046875 L5.1875,3.046875 L5.1875,-1.828125 L5.421875,-1.828125 C6.1875,-1.828125 6.671875,-1.4375 6.671875,-1.3125 L6.671875,3.046875 L11.046875,3.046875 C11.359375,3.046875 11.59375,3.171875 11.65625,3.4375 C10.890625,4.125 9.703125,5.109375 9.703125,5.109375 L8.640625,3.75 L6.671875,3.75 L6.671875,6.546875 L8.546875,6.546875 L8.546875,5.421875 L8.734375,5.421875 C9.21875,5.421875 9.9375,5.78125 9.953125,5.953125 L9.953125,13.15625 C10.3125,13.203125 10.625,13.375 10.75,13.53125 L9.09375,14.8125 L8.359375,13.984375 L6.703125,13.984375 L6.703125,16.15625 L10.796875,16.15625 C11.140625,16.15625 11.359375,16.265625 11.421875,16.53125 C10.65625,17.234375 9.40625,18.234375 9.40625,18.234375 L8.328125,16.84375 L6.703125,16.84375 L6.703125,19.25 C7.21875,19.34375 7.46875,19.5625 7.484375,19.875 L5.203125,20.09375 L5.203125,16.84375 L1.03125,16.84375 L1.21875,16.15625 L5.203125,16.15625 L5.203125,13.984375 L3.5,13.984375 L1.984375,14.6875 Z M5.234375,9.984375 L5.234375,7.25 L3.390625,7.25 L3.390625,9.984375 Z M6.625,9.984375 L8.546875,9.984375 L8.546875,7.25 L6.625,7.25 Z M5.234375,10.6875 L3.390625,10.6875 L3.390625,13.296875 L5.234375,13.296875 Z M6.625,10.6875 L6.625,13.296875 L8.546875,13.296875 L8.546875,10.6875 Z" transform="translate(-0.015625, 20.09375) scale(1, -1)"/>
</svg>