<svg height="21.953125" viewBox="0 0 24 21.953125" width="24" xmlns="http://www.w3.org/2000/svg">
<path d="M10.6875,18.265625 L10.875,17.5625 L22.5625,17.5625 C22.875,17.5625 23.109375,17.6875 23.1875,17.953125 C22.390625,18.640625 21.171875,19.625 21.171875,19.625 L20.0625,18.265625 Z M12.765625,16.6875 C12.53125,15.796875 11.546875,13.390625 10.921875,12.03125 C12.09375,10.609375 12.84375,8.59375 12.984375,7.375 C14.234375,6.28125 16.0625,9.1875 11.546875,12.09375 C12.40625,13.15625 13.75,15.03125 14.28125,15.703125 C14.65625,15.640625 14.90625,15.765625 15,15.984375 Z M16.46875,16.5625 C16.171875,15.703125 15.078125,13.375 14.453125,12.046875 C15.703125,10.734375 16.53125,8.765625 16.703125,7.53125 C18,6.5 19.734375,9.390625 15.078125,12.125 C15.953125,13.125 17.40625,14.90625 17.953125,15.546875 C18.3125,15.5 18.53125,15.625 18.625,15.84375 Z M20.09375,16.4375 C19.828125,15.59375 18.765625,13.34375 18.125,12.09375 C19.421875,10.828125 20.28125,8.875 20.515625,7.734375 C21.859375,6.71875 23.546875,9.578125 18.75,12.171875 C19.65625,13.125 21.078125,14.828125 21.59375,15.453125 C21.953125,15.390625 22.203125,15.53125 22.296875,15.71875 Z M9.484375,-0.40625 L9.671875,-1.109375 L22.703125,-1.109375 C23.015625,-1.109375 23.234375,-0.984375 23.296875,-0.75 C22.53125,0 21.28125,1.015625 21.28125,1.015625 L20.140625,-0.40625 L17.09375,-0.40625 L17.09375,5.203125 L22.0625,5.203125 C22.390625,5.203125 22.609375,5.328125 22.6875,5.59375 C21.984375,6.234375 20.875,7.15625 20.875,7.15625 L19.921875,5.90625 L10.84375,5.90625 L11.046875,5.203125 L15.5,5.203125 L15.5,-0.40625 Z M1.984375,14.015625 L1.984375,5.25 L2.234375,5.25 C2.78125,5.25 3.390625,5.5625 3.390625,5.6875 L3.390625,6.625 L5.1875,6.625 L5.1875,3.75 L0.953125,3.75 L1.15625,3.046875 L5.1875,3.046875 L5.1875,-1.84375 L5.421875,-1.84375 C6.171875,-1.84375 6.671875,-1.46875 6.703125,-1.34375 L6.703125,3.046875 L10.84375,3.046875 C11.15625,3.046875 11.40625,3.171875 11.453125,3.4375 C10.6875,4.125 9.484375,5.09375 9.484375,5.09375 L8.421875,3.75 L6.703125,3.75 L6.703125,6.625 L8.515625,6.625 L8.515625,5.46875 L8.71875,5.46875 C9.21875,5.46875 9.890625,5.859375 9.90625,6.046875 L9.90625,13.109375 C10.3125,13.171875 10.6875,13.375 10.828125,13.53125 L9.09375,14.875 L8.296875,14.015625 L6.703125,14.015625 L6.703125,16.109375 L10.75,16.109375 C11.09375,16.109375 11.328125,16.21875 11.375,16.484375 C10.65625,17.1875 9.453125,18.140625 9.453125,18.140625 L8.40625,16.796875 L6.703125,16.796875 L6.703125,19.265625 C7.21875,19.34375 7.4375,19.5625 7.484375,19.890625 L5.1875,20.109375 L5.1875,16.796875 L1.0625,16.796875 L1.25,16.109375 L5.1875,16.109375 L5.1875,14.015625 L3.484375,14.015625 L1.984375,14.71875 Z M5.25,9.984375 L5.25,7.3125 L3.390625,7.3125 L3.390625,9.984375 Z M6.625,9.984375 L8.515625,9.984375 L8.515625,7.3125 L6.625,7.3125 Z M5.25,10.6875 L3.390625,10.6875 L3.390625,13.3125 L5.25,13.3125 Z M6.625,10.6875 L6.625,13.3125 L8.515625,13.3125 L8.515625,10.6875 Z" transform="translate(-0.25, 20.109375) scale(1, -1)"/>
</svg>