<svg height="22" viewBox="0 0 24 22" width="24" xmlns="http://www.w3.org/2000/svg">
<path d="M13.03125,13.65625 L13.21875,12.953125 L19.46875,12.953125 C19.78125,12.953125 19.984375,13.078125 20.046875,13.34375 C19.375,13.96875 18.265625,14.859375 18.265625,14.859375 L17.296875,13.65625 Z M17.46875,10.796875 L17.46875,1.78125 L17.734375,1.78125 C18.21875,1.78125 18.765625,2.09375 18.765625,2.28125 L18.765625,10.03125 C19.265625,10.109375 19.4375,10.296875 19.515625,10.578125 Z M20.546875,11.640625 L20.546875,0.28125 C20.546875,-0.03125 20.453125,-0.140625 20.09375,-0.140625 C19.703125,-0.140625 17.953125,-0.03125 17.953125,-0.03125 L17.953125,-0.390625 C18.75,-0.484375 19.203125,-0.625 19.484375,-0.859375 C19.734375,-1.109375 19.828125,-1.484375 19.875,-1.890625 C21.703125,-1.703125 21.9375,-1.015625 21.9375,0.1875 L21.9375,10.78125 C22.484375,10.875 22.703125,11.0625 22.75,11.40625 Z M17.015625,18.859375 C18.03125,16.390625 20.046875,14.09375 22.203125,12.640625 C22.34375,13.21875 22.796875,13.6875 23.375,13.84375 L23.421875,14.140625 C21.046875,15.265625 18.640625,17.046875 17.375,19.15625 C17.90625,19.171875 18.125,19.296875 18.1875,19.53125 L15.71875,20.046875 C15,17.609375 12.28125,14.1875 9.984375,12.4375 L10.203125,12.125 C12.890625,13.65625 15.671875,16.296875 17.015625,18.859375 Z M12.140625,6.890625 L14.46875,6.890625 L14.46875,4.125 L12.140625,4.125 Z M12.140625,7.578125 L12.140625,10.203125 L14.46875,10.203125 L14.46875,7.578125 Z M1.96875,13.890625 L1.96875,5.203125 L2.1875,5.203125 C2.734375,5.203125 3.34375,5.546875 3.34375,5.65625 L3.34375,6.453125 L4.9375,6.453125 L4.9375,3.671875 L0.9375,3.671875 L1.125,2.953125 L4.9375,2.953125 L4.9375,-1.828125 L5.15625,-1.828125 C5.90625,-1.828125 6.390625,-1.46875 6.390625,-1.34375 L6.390625,2.953125 L10.203125,2.953125 C10.515625,2.953125 10.734375,3.046875 10.796875,3.3125 L10.796875,-1.875 L11.046875,-1.875 C11.640625,-1.875 12.140625,-1.5625 12.140625,-1.421875 L12.140625,3.453125 L14.46875,3.453125 L14.46875,0.34375 C14.46875,0.046875 14.40625,-0.046875 14.15625,-0.046875 C13.890625,-0.046875 13.015625,0.046875 13.015625,0.046875 L13.015625,-0.359375 C13.484375,-0.4375 13.78125,-0.578125 13.921875,-0.765625 C14.109375,-1.015625 14.15625,-1.4375 14.1875,-1.828125 C15.625,-1.65625 15.8125,-0.984375 15.8125,0.171875 L15.8125,10.078125 C16.125,10.15625 16.4375,10.296875 16.53125,10.4375 L14.921875,11.640625 L14.28125,10.875 L12.234375,10.875 L10.796875,11.59375 L10.796875,3.359375 C10.078125,4.0625 8.90625,4.96875 8.90625,4.96875 L7.84375,3.671875 L6.390625,3.671875 L6.390625,6.453125 L8.234375,6.453125 L8.234375,5.453125 L8.421875,5.453125 C8.90625,5.453125 9.546875,5.859375 9.578125,6.03125 L9.578125,13.015625 C9.984375,13.078125 10.34375,13.265625 10.484375,13.421875 L8.78125,14.734375 L8.015625,13.890625 L6.390625,13.890625 L6.390625,16.015625 L10.265625,16.015625 C10.578125,16.015625 10.796875,16.125 10.875,16.390625 C10.15625,17.109375 8.921875,18.046875 8.921875,18.046875 L7.890625,16.734375 L6.390625,16.734375 L6.390625,19.265625 C6.9375,19.34375 7.15625,19.5625 7.203125,19.890625 L4.9375,20.109375 L4.9375,16.734375 L1.03125,16.734375 L1.21875,16.015625 L4.9375,16.015625 L4.9375,13.890625 L3.453125,13.890625 L1.96875,14.59375 Z M4.984375,9.8125 L4.984375,7.15625 L3.34375,7.15625 L3.34375,9.8125 Z M6.34375,9.8125 L8.234375,9.8125 L8.234375,7.15625 L6.34375,7.15625 Z M4.984375,10.515625 L3.34375,10.515625 L3.34375,13.203125 L4.984375,13.203125 Z M6.34375,10.515625 L6.34375,13.203125 L8.234375,13.203125 L8.234375,10.515625 Z" transform="translate(-0.1796875, 20.109375) scale(1, -1)"/>
</svg>