<svg height="21.984375" viewBox="0 0 24 21.984375" width="24" xmlns="http://www.w3.org/2000/svg">
<path d="M15.703125,15.75 L15.703125,13.375 L11.71875,13.375 L11.90625,12.671875 L15.703125,12.671875 L15.703125,10.6875 L12.125,10.6875 L12.3125,9.984375 L15.703125,9.984375 L15.703125,7.890625 L10.84375,7.890625 L11.046875,7.203125 L22.265625,7.203125 C22.578125,7.203125 22.828125,7.296875 22.875,7.5625 C22.171875,8.25 21,9.1875 21,9.1875 L19.96875,7.890625 L17.203125,7.890625 L17.203125,9.984375 L20.875,9.984375 C21.21875,9.984375 21.4375,10.109375 21.5,10.375 C20.828125,10.984375 19.78125,11.859375 19.78125,11.859375 L18.84375,10.6875 L17.203125,10.6875 L17.203125,12.671875 L21.40625,12.671875 C21.75,12.671875 21.953125,12.796875 22.015625,13.0625 C21.359375,13.6875 20.25,14.5625 20.25,14.5625 L19.3125,13.375 L17.203125,13.375 L17.203125,14.90625 C17.734375,15 17.953125,15.171875 18.03125,15.5 Z M12.234375,5.328125 L12.234375,-1.875 L12.484375,-1.875 C13.265625,-1.875 13.75,-1.515625 13.75,-1.390625 L13.75,-0.484375 L19.484375,-0.484375 L19.484375,-1.75 L19.734375,-1.75 C20.453125,-1.75 21.03125,-1.421875 21.03125,-1.3125 L21.03125,4.515625 C21.5,4.609375 21.71875,4.75 21.890625,4.921875 L20.15625,6.234375 L19.421875,5.328125 L14.015625,5.328125 L12.234375,6.078125 Z M13.75,0.234375 L13.75,4.625 L19.484375,4.625 L19.484375,0.234375 Z M12.234375,18.28125 C12.265625,17.40625 11.71875,16.3125 11.1875,15.90625 C10.734375,15.578125 10.4375,15.09375 10.6875,14.65625 C10.9375,14.15625 11.734375,14.25 12.125,14.609375 C12.484375,14.953125 12.796875,15.59375 12.859375,16.46875 L20.6875,16.46875 C20.546875,15.859375 20.359375,15.125 20.203125,14.6875 L20.546875,14.5 C21.125,14.921875 21.90625,15.671875 22.375,16.203125 C22.828125,16.21875 23.09375,16.265625 23.25,16.46875 L21.5,18.140625 L20.5625,17.15625 L17.203125,17.15625 L17.203125,19.125 C17.828125,19.21875 18.078125,19.46875 18.125,19.796875 L15.703125,20.015625 L15.703125,17.15625 L12.859375,17.15625 C12.84375,17.515625 12.765625,17.875 12.671875,18.28125 Z M1.96875,13.984375 L1.96875,5.40625 L2.203125,5.40625 C2.765625,5.40625 3.359375,5.71875 3.359375,5.859375 L3.359375,6.640625 L5.109375,6.640625 L5.109375,3.859375 L0.953125,3.859375 L1.15625,3.140625 L5.109375,3.140625 L5.109375,-1.828125 L5.328125,-1.828125 C6.078125,-1.828125 6.578125,-1.46875 6.578125,-1.34375 L6.578125,3.140625 L10.625,3.140625 C10.96875,3.140625 11.1875,3.265625 11.25,3.53125 C10.515625,4.21875 9.28125,5.1875 9.28125,5.1875 L8.203125,3.859375 L6.578125,3.859375 L6.578125,6.640625 L8.5,6.640625 L8.5,5.609375 L8.71875,5.609375 C9.1875,5.609375 9.90625,6.03125 9.9375,6.1875 L9.9375,13.078125 C10.34375,13.15625 10.6875,13.34375 10.828125,13.515625 L9.09375,14.859375 L8.28125,13.984375 L6.578125,13.984375 L6.578125,16.125 L10.46875,16.125 C10.796875,16.125 11.015625,16.25 11.09375,16.515625 C10.34375,17.203125 9.125,18.171875 9.125,18.171875 L8.09375,16.828125 L6.578125,16.828125 L6.578125,19.265625 C7.125,19.34375 7.34375,19.5625 7.390625,19.890625 L5.109375,20.109375 L5.109375,16.828125 L1.0625,16.828125 L1.25,16.125 L5.109375,16.125 L5.109375,13.984375 L3.484375,13.984375 L1.96875,14.6875 Z M5.15625,9.953125 L5.15625,7.3125 L3.359375,7.3125 L3.359375,9.953125 Z M6.53125,9.953125 L8.5,9.953125 L8.5,7.3125 L6.53125,7.3125 Z M5.15625,10.65625 L3.359375,10.65625 L3.359375,13.296875 L5.15625,13.296875 Z M6.53125,10.65625 L6.53125,13.296875 L8.5,13.296875 L8.5,10.65625 Z" transform="translate(-0.1015625, 20.109375) scale(1, -1)"/>
</svg>