<svg height="21.984375" viewBox="0 0 24 21.984375" width="24" xmlns="http://www.w3.org/2000/svg">
<path d="M12.140625,19.21875 L9.859375,20.109375 C9.453125,19.0625 8.78125,17.546875 8.015625,15.9375 L1.65625,15.9375 L1.875,15.21875 L7.6875,15.21875 C6.71875,13.265625 5.6875,11.25 4.84375,9.84375 C4.4375,9.75 3.984375,9.578125 3.703125,9.40625 L5.40625,7.890625 L6.265625,8.71875 L11.71875,8.71875 L11.71875,4.734375 L0.9375,4.734375 L1.15625,4.03125 L11.71875,4.03125 L11.71875,-1.875 L11.96875,-1.875 C12.796875,-1.875 13.3125,-1.484375 13.3125,-1.390625 L13.3125,4.03125 L22.484375,4.03125 C22.828125,4.03125 23.046875,4.15625 23.109375,4.421875 C22.265625,5.1875 20.859375,6.21875 20.859375,6.21875 L19.65625,4.734375 L13.3125,4.734375 L13.3125,8.71875 L20.375,8.71875 C20.734375,8.71875 20.953125,8.828125 21.03125,9.09375 C20.234375,9.84375 18.890625,10.875 18.890625,10.875 L17.765625,9.40625 L13.3125,9.40625 L13.3125,12.703125 C13.921875,12.765625 14.109375,12.984375 14.1875,13.3125 L11.71875,13.609375 L11.71875,9.40625 L6.40625,9.40625 C7.296875,11.015625 8.421875,13.203125 9.4375,15.21875 L21.671875,15.21875 C21.984375,15.21875 22.21875,15.34375 22.265625,15.59375 C21.5,16.34375 20.1875,17.328125 20.1875,17.328125 L19.0625,15.9375 L9.765625,15.9375 C10.3125,17.0625 10.796875,18.09375 11.140625,18.890625 C11.71875,18.765625 12,18.984375 12.140625,19.21875 Z" transform="translate(-0.0234375, 20.109375) scale(1, -1)"/>
</svg>