<svg height="21.984375" viewBox="0 0 24 21.984375" width="24" xmlns="http://www.w3.org/2000/svg">
<path d="M6.625,15.546875 L6.34375,15.40625 C7.109375,14.140625 8.015625,12.1875 8.09375,10.65625 C9.671875,9.1875 11.375,12.765625 6.625,15.546875 Z M15.890625,15.671875 C15.34375,13.984375 14.453125,11.734375 13.578125,10.125 L1.03125,10.125 L1.25,9.40625 L11.15625,9.40625 L11.15625,5.28125 L2.1875,5.28125 L2.375,4.5625 L11.15625,4.5625 L11.15625,-1.875 L11.421875,-1.875 C12.234375,-1.875 12.765625,-1.484375 12.765625,-1.375 L12.765625,4.5625 L21.265625,4.5625 C21.59375,4.5625 21.84375,4.6875 21.890625,4.9375 C21.078125,5.734375 19.65625,6.765625 19.65625,6.765625 L18.453125,5.28125 L12.765625,5.28125 L12.765625,9.40625 L22.46875,9.40625 C22.796875,9.40625 23.046875,9.53125 23.109375,9.796875 C22.21875,10.5625 20.859375,11.640625 20.859375,11.640625 L19.625,10.125 L14.1875,10.125 C15.4375,11.453125 16.703125,13.125 17.46875,14.40625 C17.96875,14.328125 18.265625,14.515625 18.390625,14.78125 Z M11.15625,20.109375 L11.15625,16.421875 L2.609375,16.421875 L2.828125,15.703125 L20.953125,15.703125 C21.28125,15.703125 21.546875,15.8125 21.59375,16.078125 C20.734375,16.84375 19.375,17.90625 19.375,17.90625 L18.171875,16.421875 L12.765625,16.421875 L12.765625,19.25 C13.3125,19.375 13.515625,19.578125 13.5625,19.875 Z" transform="translate(-0.0703125, 20.109375) scale(1, -1)"/>
</svg>