<svg height="21.90625" viewBox="0 0 24 21.90625" width="24" xmlns="http://www.w3.org/2000/svg">
<path d="M15.53125,15.1875 L15.21875,15.046875 C15.796875,14.015625 16.390625,12.390625 16.375,11.109375 C17.59375,9.859375 19.125,12.671875 15.53125,15.1875 Z M12.34375,19.5625 L12.34375,11.234375 C12.34375,6.359375 11.453125,1.921875 7.125,-1.109375 L7.4375,-1.4375 C12.640625,1.4375 13.75,6.1875 13.78125,11.203125 L13.78125,18.640625 C14.40625,18.75 14.5625,18.984375 14.640625,19.3125 Z M2.359375,15.28125 L2.015625,15.171875 C2.609375,14.140625 3.171875,12.484375 3.078125,11.203125 C4.3125,9.859375 5.96875,12.84375 2.359375,15.28125 Z M10.34375,14.5625 C10.484375,12.984375 10.25,11.203125 9.84375,9.984375 C9.1875,10.625 8.328125,11.359375 8.328125,11.359375 L7.375,10.125 L6.078125,10.125 C6.984375,11.421875 7.78125,12.953125 8.25,14.15625 C8.765625,14.140625 9.046875,14.359375 9.140625,14.609375 L6.859375,15.28125 C6.59375,13.75 6.046875,11.65625 5.5,10.125 L0.9375,10.125 L1.125,9.40625 L4.53125,9.40625 L4.53125,6.390625 L4.53125,6.03125 C3,5.78125 1.734375,5.59375 0.953125,5.515625 L1.84375,3.546875 C2.0625,3.625 2.28125,3.8125 2.40625,4.078125 L4.484375,4.75 C4.3125,2.59375 3.703125,0.359375 1.625,-1.53125 L1.921875,-1.84375 C5.140625,0.046875 5.8125,2.8125 5.953125,5.234375 L9.40625,6.453125 L9.34375,6.84375 L5.96875,6.265625 L5.96875,6.390625 L5.96875,9.40625 L9.4375,9.40625 L9.625,9.4375 L9.40625,9.03125 C9.046875,8.546875 8.921875,7.984375 9.234375,7.65625 C9.671875,7.296875 10.421875,7.734375 10.75,8.40625 C11.25,9.40625 11.546875,11.734375 10.796875,14.5625 Z M4.515625,20.015625 L4.515625,16.421875 L1.15625,16.421875 L1.34375,15.703125 L9.390625,15.703125 C9.71875,15.703125 9.9375,15.8125 10.015625,16.078125 C9.34375,16.75 8.28125,17.59375 8.28125,17.59375 L7.3125,16.421875 L5.953125,16.421875 L5.953125,19.171875 C6.5,19.265625 6.703125,19.484375 6.75,19.796875 Z M17.59375,20.0625 L17.59375,16.421875 L14.296875,16.421875 L14.5,15.703125 L22.5625,15.703125 C22.890625,15.703125 23.09375,15.8125 23.15625,16.078125 C22.46875,16.75 21.390625,17.640625 21.390625,17.640625 L20.421875,16.421875 L19.0625,16.421875 L19.0625,19.21875 C19.578125,19.3125 19.796875,19.53125 19.84375,19.84375 Z M19.875,15.1875 C19.65625,13.65625 19.15625,11.640625 18.59375,10.109375 L14.140625,10.109375 L14.328125,9.390625 L17.59375,9.390625 L17.59375,5.46875 L14.140625,5.46875 L14.328125,4.75 L17.59375,4.75 L17.59375,-1.828125 L17.828125,-1.828125 C18.546875,-1.828125 19.0625,-1.46875 19.0625,-1.375 L19.0625,4.75 L22.484375,4.75 C22.828125,4.75 23.046875,4.875 23.09375,5.140625 C22.4375,5.8125 21.359375,6.703125 21.359375,6.703125 L20.421875,5.46875 L19.0625,5.46875 L19.0625,9.390625 L22.734375,9.390625 C23.0625,9.390625 23.25,9.5 23.328125,9.765625 C22.6875,10.4375 21.59375,11.296875 21.59375,11.296875 L20.6875,10.109375 L19.203125,10.109375 C20.0625,11.375 20.859375,12.90625 21.3125,14.046875 C21.796875,14.046875 22.078125,14.234375 22.171875,14.515625 Z" transform="translate(-0.1328125, 20.0625) scale(1, -1)"/>
</svg>