<svg height="21.90625" viewBox="0 0 24 21.90625" width="24" xmlns="http://www.w3.org/2000/svg">
<path d="M2.25,15.265625 L1.921875,15.171875 C2.421875,14.109375 2.90625,12.484375 2.8125,11.203125 C4.0625,9.890625 5.71875,12.75 2.25,15.265625 Z M15.859375,15.21875 L15.53125,15.078125 C16.125,14.046875 16.65625,12.40625 16.578125,11.140625 C17.859375,9.8125 19.46875,12.75 15.859375,15.21875 Z M4.265625,20.015625 L4.265625,16.375 L1.078125,16.375 L1.265625,15.671875 L8.46875,15.671875 L8.5625,15.703125 C9.234375,15 10.0625,13.875 10.21875,12.953125 C11.328125,12.1875 12.234375,13.796875 10.484375,15.09375 C11.234375,16.03125 12.046875,17.328125 12.703125,18.453125 C13.203125,18.4375 13.46875,18.625 13.578125,18.890625 L11.375,19.65625 C10.96875,18.21875 10.4375,16.609375 9.984375,15.4375 C9.703125,15.578125 9.34375,15.75 8.921875,15.890625 C9,15.90625 9.03125,15.984375 9.046875,16.0625 C8.40625,16.703125 7.34375,17.546875 7.34375,17.546875 L6.40625,16.375 L5.734375,16.375 L5.734375,19.171875 C6.265625,19.265625 6.453125,19.484375 6.5,19.796875 Z M20.15625,15.265625 C19.875,13.703125 19.375,11.640625 18.8125,10.078125 L14.8125,10.078125 C14.421875,10.609375 13.828125,11.1875 12.90625,11.734375 L12.59375,11.59375 C12.90625,11.09375 13.25,10.421875 13.515625,9.75 L10.625,9.484375 C11.953125,11.296875 13.3125,13.421875 14.09375,14.828125 C14.515625,14.734375 14.8125,14.78125 14.921875,15.03125 L12.890625,16.03125 C12.234375,14.25 11.0625,11.546875 9.9375,9.4375 L8.046875,9.28125 L8.78125,7.578125 C9,7.625 9.1875,7.78125 9.3125,8.0625 L11.140625,8.515625 L11.140625,6.578125 L8.96875,7.03125 C8.765625,4.625 8.1875,2.234375 7.390625,0.578125 L7.78125,0.34375 C8.96875,1.734375 9.84375,3.8125 10.390625,6.03125 C10.828125,6.046875 11.0625,6.234375 11.140625,6.5 L11.140625,-1.84375 L11.359375,-1.84375 C12.046875,-1.84375 12.53125,-1.484375 12.53125,-1.375 L12.53125,8.875 L13.734375,9.21875 C13.875,8.765625 13.96875,8.328125 14.015625,7.9375 C14.859375,7.21875 15.703125,8.0625 15.1875,9.359375 L17.921875,9.359375 L17.921875,5.46875 L14.734375,5.46875 L14.8125,5.203125 C14.453125,5.765625 13.9375,6.390625 13.25,6.984375 L12.90625,6.859375 C13.515625,5.59375 14.140625,3.640625 14.0625,2.15625 C15.03125,1.15625 16.125,2.609375 15.046875,4.75 L17.921875,4.75 L17.921875,-1.84375 L18.171875,-1.84375 C18.90625,-1.84375 19.390625,-1.484375 19.390625,-1.375 L19.390625,4.75 L22.625,4.75 C22.96875,4.75 23.1875,4.875 23.25,5.140625 C22.578125,5.8125 21.5,6.703125 21.5,6.703125 L20.5625,5.46875 L19.390625,5.46875 L19.390625,9.359375 L22.6875,9.359375 C23.015625,9.359375 23.203125,9.484375 23.28125,9.75 C22.625,10.421875 21.546875,11.25 21.546875,11.25 L20.640625,10.078125 L19.421875,10.078125 C20.25,11.359375 21.078125,12.90625 21.546875,14.046875 C22.0625,14.015625 22.34375,14.203125 22.4375,14.46875 Z M0.859375,5.421875 L1.78125,3.484375 C1.984375,3.546875 2.203125,3.75 2.296875,4.015625 L4.21875,4.6875 C4.03125,2.546875 3.40625,0.34375 1.3125,-1.515625 L1.609375,-1.796875 C4.84375,0.078125 5.546875,2.78125 5.6875,5.203125 L8.71875,6.359375 L8.640625,6.71875 L5.734375,6.1875 L5.734375,6.359375 L5.734375,9.40625 L8.921875,9.40625 C9.234375,9.40625 9.453125,9.53125 9.53125,9.796875 C8.875,10.4375 7.796875,11.328125 7.796875,11.328125 L6.859375,10.109375 L5.609375,10.109375 C6.4375,11.421875 7.25,12.984375 7.734375,14.1875 C8.234375,14.15625 8.515625,14.359375 8.609375,14.640625 L6.34375,15.3125 C6.046875,13.78125 5.5625,11.640625 5.09375,10.109375 L0.90625,10.109375 L1.109375,9.40625 L4.265625,9.40625 L4.265625,6.359375 L4.265625,5.953125 C2.8125,5.6875 1.578125,5.515625 0.859375,5.421875 Z M17.953125,20.0625 L17.953125,16.390625 L14.828125,16.390625 L15.03125,15.671875 L22.5625,15.671875 C22.890625,15.671875 23.09375,15.796875 23.140625,16.0625 C22.46875,16.734375 21.390625,17.609375 21.390625,17.609375 L20.421875,16.390625 L19.390625,16.390625 L19.390625,19.21875 C19.921875,19.3125 20.109375,19.53125 20.15625,19.84375 Z" transform="translate(-0.0703125, 20.0625) scale(1, -1)"/>
</svg>