<svg height="21.90625" viewBox="0 0 24 21.90625" width="24" xmlns="http://www.w3.org/2000/svg">
<path d="M15.859375,15.21875 L15.53125,15.078125 C16.125,14.046875 16.65625,12.40625 16.578125,11.140625 C17.859375,9.8125 19.46875,12.75 15.859375,15.21875 Z M2.25,15.265625 L1.921875,15.171875 C2.421875,14.109375 2.90625,12.484375 2.8125,11.203125 C4.0625,9.890625 5.71875,12.75 2.25,15.265625 Z M0.859375,5.421875 L1.78125,3.484375 C1.984375,3.546875 2.203125,3.75 2.296875,4.015625 L4.203125,4.65625 C4.03125,2.546875 3.390625,0.3125 1.390625,-1.515625 L1.6875,-1.828125 C4.828125,0.046875 5.546875,2.78125 5.6875,5.203125 L8.859375,6.390625 L8.78125,6.75 L5.734375,6.1875 L5.734375,6.4375 L5.734375,9.4375 L8.921875,9.4375 C9.234375,9.4375 9.453125,9.546875 9.53125,9.8125 C8.875,10.484375 7.796875,11.359375 7.796875,11.359375 L6.859375,10.125 L5.6875,10.125 C6.5,11.421875 7.296875,13.015625 7.78125,14.15625 C8.296875,14.140625 8.5625,14.328125 8.65625,14.609375 L6.390625,15.28125 C6.125,13.75 5.609375,11.640625 5.15625,10.125 L0.90625,10.125 L1.109375,9.4375 L4.265625,9.4375 L4.265625,6.4375 L4.265625,5.953125 C2.8125,5.71875 1.609375,5.515625 0.859375,5.421875 Z M4.265625,20.015625 L4.265625,16.375 L1.078125,16.375 L1.265625,15.671875 L8.640625,15.671875 C8.953125,15.671875 9.171875,15.796875 9.234375,16.0625 C8.5625,16.703125 7.515625,17.546875 7.515625,17.546875 L6.578125,16.375 L5.734375,16.375 L5.734375,19.171875 C6.265625,19.265625 6.453125,19.484375 6.5,19.796875 Z M17.953125,20.0625 L17.953125,16.390625 L14.828125,16.390625 L15.03125,15.671875 L22.5625,15.671875 C22.890625,15.671875 23.09375,15.796875 23.140625,16.0625 C22.46875,16.734375 21.390625,17.609375 21.390625,17.609375 L20.421875,16.390625 L19.390625,16.390625 L19.390625,19.21875 C19.921875,19.3125 20.109375,19.53125 20.15625,19.84375 Z M20.15625,15.265625 C19.875,13.703125 19.390625,11.65625 18.84375,10.109375 L14.6875,10.109375 L14.875,9.390625 L17.921875,9.390625 L17.921875,5.46875 L14.734375,5.46875 L14.921875,4.75 L17.921875,4.75 L17.921875,-1.84375 L18.171875,-1.84375 C18.90625,-1.84375 19.390625,-1.484375 19.390625,-1.390625 L19.390625,4.75 L22.625,4.75 C22.96875,4.75 23.1875,4.875 23.25,5.140625 C22.578125,5.8125 21.5,6.703125 21.5,6.703125 L20.5625,5.46875 L19.390625,5.46875 L19.390625,9.390625 L22.6875,9.390625 C23.015625,9.390625 23.203125,9.5 23.28125,9.765625 C22.625,10.4375 21.546875,11.296875 21.546875,11.296875 L20.640625,10.109375 L19.4375,10.109375 C20.28125,11.375 21.078125,12.90625 21.546875,14.046875 C22.0625,14.015625 22.34375,14.203125 22.4375,14.46875 Z M8.296875,18 L8.515625,17.28125 L10.171875,17.28125 C10.125,10.421875 10.109375,3.796875 5.734375,-1.125 L6.140625,-1.53125 C11.296875,3.28125 11.421875,9.984375 11.546875,17.28125 L13.296875,17.28125 C13.109375,6.09375 12.59375,1.75 11.71875,0.796875 C11.453125,0.53125 11.28125,0.453125 10.828125,0.453125 C10.390625,0.453125 9.59375,0.53125 8.96875,0.59375 L8.953125,0.140625 C9.53125,0.046875 10.015625,-0.140625 10.21875,-0.359375 C10.4375,-0.578125 10.484375,-0.9375 10.484375,-1.421875 C11.28125,-1.421875 12.171875,-1.109375 12.796875,-0.28125 C13.828125,1.078125 14.421875,5.28125 14.609375,17.109375 C15.171875,17.1875 15.4375,17.296875 15.625,17.5 L13.875,18.984375 L13.0625,18 Z" transform="translate(-0.0703125, 20.0625) scale(1, -1)"/>
</svg>