<svg height="21.875" viewBox="0 0 24 21.875" width="24" xmlns="http://www.w3.org/2000/svg">
<path d="M2.46875,19.5625 L2.234375,19.3125 C3.3125,18.53125 4.75,17.109375 5.1875,15.953125 C6.890625,15.078125 7.734375,18.484375 2.46875,19.5625 Z M1.46875,14.609375 L1.25,14.40625 C2.40625,13.65625 3.859375,12.34375 4.375,11.234375 C6.09375,10.421875 6.796875,13.875 1.46875,14.609375 Z M14.140625,20.046875 L14.140625,4.53125 L10.25,4.53125 L10.25,15.046875 C10.828125,15.125 11.046875,15.359375 11.109375,15.703125 L8.71875,15.953125 L8.71875,1.84375 L9,1.84375 C9.578125,1.84375 10.25,2.203125 10.25,2.40625 L10.25,3.84375 L19.828125,3.84375 L19.828125,2.140625 L20.140625,2.140625 C20.71875,2.140625 21.390625,2.46875 21.390625,2.6875 L21.390625,15.09375 C21.984375,15.140625 22.203125,15.40625 22.25,15.71875 L19.828125,16.015625 L19.828125,4.53125 L15.671875,4.53125 L15.671875,19.125 C16.265625,19.21875 16.515625,19.46875 16.5625,19.796875 Z M5.78125,7.171875 C6.40625,7.25 6.765625,7.46875 6.9375,7.609375 L4.875,9.34375 L3.9375,8.109375 L0.90625,8.109375 L1.0625,7.390625 L4.265625,7.390625 L4.265625,1.9375 C3.046875,1.21875 1.75,0.5 0.90625,0.125 L2.0625,-1.828125 C2.25,-1.703125 2.359375,-1.5625 2.328125,-1.265625 C3.171875,-0.484375 4.5625,0.90625 5.453125,1.96875 C7.15625,-0.75 9.125,-1.265625 13.53125,-1.265625 C16.21875,-1.265625 19.5625,-1.265625 21.953125,-1.265625 C22.03125,-0.546875 22.46875,-0.125 23.15625,0 L23.15625,0.359375 C20.203125,0.265625 16.375,0.265625 13.515625,0.265625 C9.34375,0.265625 7.484375,0.53125 5.78125,2.421875 Z" transform="translate(-0.03125, 20.046875) scale(1, -1)"/>
</svg>