<svg height="21.9375" viewBox="0 0 24 21.9375" width="24" xmlns="http://www.w3.org/2000/svg">
<path d="M2.609375,19.609375 L2.40625,19.390625 C3.53125,18.578125 4.9375,17.109375 5.453125,15.9375 C7.171875,15 8.046875,18.484375 2.609375,19.609375 Z M1.65625,14.609375 L1.4375,14.375 C2.640625,13.6875 4.15625,12.34375 4.734375,11.203125 C6.484375,10.390625 7.15625,13.9375 1.65625,14.609375 Z M13.9375,20.09375 L13.9375,12.71875 L7.296875,12.71875 L7.46875,12.046875 L13.9375,12.046875 L13.9375,1.390625 L14.25,1.390625 C14.859375,1.390625 15.53125,1.78125 15.53125,1.984375 L15.53125,12.046875 L22.21875,12.046875 C22.5625,12.046875 22.796875,12.140625 22.875,12.40625 C22.03125,13.171875 20.6875,14.234375 20.6875,14.234375 L19.53125,12.71875 L15.53125,12.71875 L15.53125,19.15625 C16.125,19.25 16.3125,19.484375 16.375,19.828125 Z M6.234375,7.25 C6.890625,7.3125 7.25,7.515625 7.421875,7.6875 L5.328125,9.40625 L4.390625,8.1875 L0.984375,8.1875 L1.125,7.46875 L4.75,7.46875 L4.75,2.15625 C3.34375,1.390625 1.828125,0.625 0.859375,0.21875 L2.015625,-1.84375 C2.234375,-1.734375 2.359375,-1.5625 2.328125,-1.25 C3.28125,-0.453125 4.890625,1.03125 5.90625,2.109375 C7.5625,-0.703125 9.5,-1.25 13.828125,-1.25 C16.4375,-1.25 19.65625,-1.25 21.984375,-1.25 C22.078125,-0.5 22.484375,-0.046875 23.1875,0.078125 L23.1875,0.40625 C20.359375,0.3125 16.609375,0.3125 13.828125,0.3125 C9.71875,0.3125 7.890625,0.625 6.234375,2.5625 Z" transform="translate(-0.0234375, 20.09375) scale(1, -1)"/>
</svg>