<svg height="21.984375" viewBox="0 0 24 21.984375" width="24" xmlns="http://www.w3.org/2000/svg">
<path d="M16.9375,20.109375 C12.90625,18.234375 7.796875,16.9375 3.40625,16.15625 L3.546875,15.671875 C8.234375,16.171875 13.3125,17.140625 17.5625,18.640625 C18.078125,18.4375 18.359375,18.4375 18.546875,18.625 Z M17.78125,16.796875 C13.78125,14.875 8.78125,13.65625 4.421875,12.9375 L4.5625,12.453125 C9.1875,12.90625 14.15625,13.796875 18.390625,15.34375 C18.859375,15.125 19.125,15.125 19.375,15.3125 Z M20.203125,13.515625 C14.765625,11.09375 8.40625,9.984375 2.40625,9.3125 L2.5,8.8125 C5.421875,8.96875 8.328125,9.234375 11.203125,9.671875 L11.203125,0.546875 C9.359375,1.15625 8.046875,2.28125 7.03125,4.296875 C7.4375,5.140625 7.75,5.96875 7.984375,6.796875 C8.5,6.765625 8.78125,6.9375 8.90625,7.265625 L6.484375,7.890625 C5.828125,4.5625 4.21875,0.75 0.90625,-1.578125 L1.171875,-1.875 C3.890625,-0.453125 5.640625,1.578125 6.765625,3.75 C8.6875,-0.640625 11.640625,-1.65625 17.015625,-1.65625 C18.28125,-1.65625 20.96875,-1.65625 22.109375,-1.65625 C22.15625,-1.015625 22.46875,-0.5 23.09375,-0.390625 L23.09375,-0.078125 C21.546875,-0.09375 18.5,-0.09375 17.15625,-0.09375 C15.484375,-0.09375 14.046875,-0.03125 12.796875,0.171875 L12.796875,5.40625 L19.9375,5.40625 C20.28125,5.40625 20.515625,5.515625 20.5625,5.765625 C19.796875,6.53125 18.453125,7.5625 18.453125,7.5625 L17.296875,6.09375 L12.796875,6.09375 L12.796875,9.9375 C15.484375,10.421875 18.09375,11.046875 20.65625,11.921875 C21.171875,11.71875 21.484375,11.6875 21.71875,11.859375 Z" transform="translate(0, 20.109375) scale(1, -1)"/>
</svg>