<svg height="21.78125" viewBox="0 0 24 21.78125" width="24" xmlns="http://www.w3.org/2000/svg">
<path d="M1.65625,19.390625 L1.390625,19.203125 C2.609375,18.140625 4.03125,16.296875 4.34375,14.8125 C6.140625,13.515625 7.46875,17.46875 1.65625,19.390625 Z M14.140625,19.984375 L14.140625,4.484375 L10.25,4.484375 L10.25,15.390625 C10.828125,15.453125 11.046875,15.71875 11.109375,16.0625 L8.71875,16.3125 L8.71875,1.703125 L9,1.703125 C9.578125,1.703125 10.25,2.046875 10.25,2.234375 L10.25,3.796875 L19.828125,3.796875 L19.828125,1.984375 L20.140625,1.984375 C20.71875,1.984375 21.390625,2.328125 21.390625,2.515625 L21.390625,15.4375 C21.984375,15.5 22.203125,15.75 22.25,16.078125 L19.828125,16.34375 L19.828125,4.484375 L15.671875,4.484375 L15.671875,19.0625 C16.265625,19.15625 16.515625,19.390625 16.5625,19.734375 Z M5.78125,8.921875 C6.4375,9.03125 6.796875,9.21875 6.9375,9.390625 L4.875,11.109375 L3.9375,9.890625 L1.015625,9.890625 L1.15625,9.171875 L4.265625,9.171875 L4.265625,2.015625 C3.03125,1.265625 1.734375,0.53125 0.890625,0.140625 L2.046875,-1.796875 C2.25,-1.6875 2.359375,-1.53125 2.296875,-1.25 C3.171875,-0.484375 4.5625,0.953125 5.46875,2.015625 C7.171875,-0.71875 9.140625,-1.265625 13.5625,-1.265625 C16.25,-1.265625 19.578125,-1.265625 21.984375,-1.265625 C22.078125,-0.53125 22.484375,-0.09375 23.203125,0.046875 L23.203125,0.390625 C20.25,0.28125 16.421875,0.28125 13.53125,0.28125 C9.34375,0.28125 7.484375,0.578125 5.78125,2.515625 Z" transform="translate(-0.046875, 19.984375) scale(1, -1)"/>
</svg>