<svg height="21.390625" viewBox="0 0 24 21.390625" width="24" xmlns="http://www.w3.org/2000/svg">
<path d="M6.234375,14.015625 L6.4375,13.3125 L20.421875,13.3125 C20.765625,13.3125 21,13.4375 21.078125,13.703125 C20.203125,14.5 18.796875,15.578125 18.796875,15.578125 L17.5625,14.015625 Z M3.671875,17.96875 L3.671875,12.765625 C3.671875,8.046875 3.390625,2.734375 0.796875,-1.609375 L1.15625,-1.828125 C3.984375,1.34375 4.875,5.546875 5.140625,9.265625 L7.9375,9.265625 L7.9375,0.671875 C6.578125,0.40625 5.46875,0.1875 4.734375,0.078125 L5.953125,-1.875 C6.171875,-1.78125 6.390625,-1.578125 6.453125,-1.265625 C10.578125,0.078125 13.515625,1.125 15.578125,1.96875 L15.5,2.359375 L9.484375,1.015625 L9.484375,9.265625 L12.546875,9.265625 C13.84375,3.671875 16.828125,0.3125 21.53125,-1.625 C21.796875,-0.84375 22.390625,-0.359375 23.109375,-0.28125 L23.15625,0 C20.15625,0.859375 17.609375,2.328125 15.75,4.4375 C17.46875,5.328125 19.390625,6.40625 20.59375,7.15625 C21.09375,7.015625 21.328125,7.078125 21.5,7.296875 L19.421875,8.78125 C18.5,7.75 16.828125,6.125 15.390625,4.890625 C14.375,6.125 13.578125,7.578125 13.0625,9.265625 L22.25,9.265625 C22.578125,9.265625 22.796875,9.390625 22.875,9.640625 C22.015625,10.421875 20.6875,11.421875 20.6875,11.421875 L19.484375,9.984375 L5.15625,9.984375 C5.234375,10.96875 5.234375,11.921875 5.234375,12.796875 L5.234375,17.25 L21.53125,17.25 C21.84375,17.25 22.109375,17.375 22.171875,17.640625 C21.3125,18.4375 19.890625,19.515625 19.890625,19.515625 L18.671875,17.96875 L5.515625,17.96875 L3.671875,18.8125 Z" transform="translate(0.0234375, 19.515625) scale(1, -1)"/>
</svg>