<svg height="21.234375" viewBox="0 0 24 21.234375" width="24" xmlns="http://www.w3.org/2000/svg">
<path d="M2.25,19.375 L1.984375,19.171875 C3.1875,18.125 4.625,16.265625 5.015625,14.8125 C6.8125,13.578125 8.0625,17.421875 2.25,19.375 Z M7.6875,18.390625 L7.890625,17.6875 L18.578125,17.6875 C18.5,11.46875 18.546875,4.609375 20.734375,2.234375 C21.390625,1.4375 22.265625,1.015625 22.796875,1.484375 C23.0625,1.75 22.9375,2.203125 22.515625,2.96875 L22.84375,6.40625 L22.5625,6.453125 C22.34375,5.609375 22.125,4.796875 21.84375,4.015625 C21.75,3.71875 21.671875,3.671875 21.484375,3.90625 C20.015625,5.71875 19.921875,12.765625 20.109375,17.375 C20.640625,17.453125 20.96875,17.609375 21.125,17.78125 L19.25,19.390625 L18.34375,18.390625 Z M11.96875,17.0625 L11.96875,10.875 L7.515625,10.875 L7.703125,10.171875 L11.96875,10.171875 L11.96875,1.421875 L12.265625,1.421875 C12.859375,1.421875 13.515625,1.75 13.515625,1.96875 L13.515625,10.171875 L17.515625,10.171875 C17.859375,10.171875 18.09375,10.296875 18.171875,10.5625 C17.40625,11.25 16.21875,12.234375 16.21875,12.234375 L15.171875,10.875 L13.515625,10.875 L13.515625,16.15625 C14.109375,16.25 14.328125,16.484375 14.375,16.796875 Z M6.125,8.921875 C6.765625,9.03125 7.125,9.21875 7.296875,9.390625 L5.203125,11.09375 L4.296875,9.890625 L0.953125,9.890625 L1.109375,9.171875 L4.625,9.171875 L4.625,2.09375 C3.265625,1.3125 1.828125,0.578125 0.890625,0.171875 L2.015625,-1.84375 C2.234375,-1.734375 2.359375,-1.578125 2.28125,-1.265625 C3.234375,-0.484375 4.796875,0.953125 5.78125,2.046875 C7.46875,-0.71875 9.390625,-1.265625 13.734375,-1.265625 C16.390625,-1.265625 19.625,-1.265625 21.953125,-1.265625 C22.0625,-0.53125 22.46875,-0.078125 23.15625,0.046875 L23.15625,0.390625 C20.28125,0.28125 16.515625,0.28125 13.734375,0.28125 C9.59375,0.28125 7.78125,0.578125 6.125,2.5 Z" transform="translate(-0.0234375, 19.390625) scale(1, -1)"/>
</svg>