<svg height="22.078125" viewBox="0 0 24 22.078125" width="24" xmlns="http://www.w3.org/2000/svg">
<path d="M1.828125,19.375 L1.578125,19.171875 C2.8125,18.125 4.3125,16.265625 4.734375,14.828125 C6.546875,13.609375 7.75,17.46875 1.828125,19.375 Z M10.9375,20.234375 C10.078125,16.796875 8.421875,13.625 6.703125,11.65625 L7.03125,11.40625 C8.5,12.5 9.859375,14.015625 10.96875,15.859375 L21.765625,15.859375 C22.109375,15.859375 22.34375,15.984375 22.390625,16.25 C21.578125,16.984375 20.25,18.046875 20.25,18.046875 L19.109375,16.5625 L11.375,16.5625 C11.78125,17.296875 12.171875,18.09375 12.5,18.9375 C13.03125,18.90625 13.3125,19.125 13.4375,19.390625 Z M9.90625,13.03125 L10.125,12.34375 L16.828125,12.34375 C12.171875,8.359375 8.65625,6.359375 8.875,4.53125 C9.03125,3.09375 10.34375,2.515625 13.15625,2.515625 L18.34375,2.515625 C21.125,2.515625 22.578125,2.90625 22.578125,3.625 C22.578125,3.953125 22.390625,4.0625 21.75,4.25 L21.8125,7.125 L21.484375,7.15625 C21.234375,5.875 21,4.890625 20.71875,4.375 C20.5,4.0625 20.15625,3.9375 18.265625,3.9375 L13.296875,3.9375 C11.546875,3.9375 10.625,4.125 10.5625,4.75 C10.421875,5.78125 13.21875,7.921875 18.859375,12.078125 C19.4375,12.09375 19.734375,12.1875 19.921875,12.390625 L18.140625,13.875 L17.375,13.03125 Z M6.125,8.921875 C6.765625,9.03125 7.125,9.21875 7.296875,9.390625 L5.203125,11.09375 L4.296875,9.890625 L0.953125,9.890625 L1.109375,9.171875 L4.625,9.171875 L4.625,2.09375 C3.265625,1.3125 1.828125,0.578125 0.890625,0.171875 L2.015625,-1.84375 C2.234375,-1.734375 2.359375,-1.578125 2.28125,-1.265625 C3.234375,-0.484375 4.796875,0.953125 5.78125,2.046875 C7.46875,-0.71875 9.40625,-1.265625 13.75,-1.265625 C16.4375,-1.265625 19.6875,-1.265625 22.03125,-1.265625 C22.15625,-0.53125 22.53125,-0.09375 23.234375,0.046875 L23.234375,0.390625 C20.359375,0.28125 16.5625,0.28125 13.75,0.28125 C9.59375,0.28125 7.78125,0.578125 6.125,2.5 Z" transform="translate(-0.0625, 20.234375) scale(1, -1)"/>
</svg>