<svg height="21.390625" viewBox="0 0 24 21.390625" width="24" xmlns="http://www.w3.org/2000/svg">
<path d="M2.59375,19.5625 L2.375,19.3125 C3.5,18.546875 4.921875,17.109375 5.421875,15.953125 C7.125,15.078125 7.921875,18.5 2.59375,19.5625 Z M1.609375,14.609375 L1.375,14.375 C2.5625,13.65625 4.078125,12.3125 4.625,11.203125 C6.390625,10.390625 7.0625,13.890625 1.609375,14.609375 Z M7.734375,18.390625 L7.9375,17.6875 L18.578125,17.6875 C18.5,11.46875 18.546875,4.625 20.6875,2.234375 C21.328125,1.4375 22.21875,1.015625 22.75,1.484375 C23.015625,1.75 22.875,2.203125 22.46875,2.96875 L22.796875,6.40625 L22.515625,6.453125 C22.296875,5.609375 22.078125,4.796875 21.8125,4.03125 C21.703125,3.75 21.625,3.703125 21.4375,3.90625 C20.015625,5.734375 19.921875,12.796875 20.109375,17.375 C20.640625,17.453125 20.96875,17.609375 21.125,17.78125 L19.25,19.390625 L18.34375,18.390625 Z M12,17.0625 L12,10.875 L7.53125,10.875 L7.734375,10.171875 L12,10.171875 L12,1.421875 L12.3125,1.421875 C12.890625,1.421875 13.515625,1.75 13.515625,1.96875 L13.515625,10.171875 L17.5,10.171875 C17.828125,10.171875 18.046875,10.296875 18.125,10.5625 C17.40625,11.25 16.25,12.234375 16.25,12.234375 L15.1875,10.875 L13.515625,10.875 L13.515625,16.15625 C14.109375,16.25 14.328125,16.484375 14.40625,16.796875 Z M6.125,7.171875 C6.765625,7.25 7.125,7.46875 7.296875,7.609375 L5.234375,9.34375 L4.296875,8.109375 L0.953125,8.109375 L1.109375,7.390625 L4.625,7.390625 L4.625,2.046875 C3.28125,1.3125 1.84375,0.578125 0.90625,0.171875 L2.015625,-1.828125 C2.234375,-1.734375 2.359375,-1.5625 2.296875,-1.25 C3.265625,-0.484375 4.796875,0.953125 5.78125,1.984375 C7.46875,-0.703125 9.390625,-1.25 13.734375,-1.25 C16.390625,-1.25 19.65625,-1.25 21.984375,-1.25 C22.109375,-0.53125 22.515625,-0.078125 23.1875,0.046875 L23.1875,0.390625 C20.328125,0.28125 16.53125,0.28125 13.734375,0.28125 C9.59375,0.28125 7.78125,0.578125 6.125,2.453125 Z" transform="translate(-0.046875, 19.5625) scale(1, -1)"/>
</svg>