<svg height="21.40625" viewBox="0 0 24 21.40625" width="24" xmlns="http://www.w3.org/2000/svg">
<path d="M1.796875,19.375 L1.5625,19.171875 C2.78125,18.125 4.296875,16.265625 4.734375,14.828125 C6.578125,13.578125 7.78125,17.5 1.796875,19.375 Z M8.421875,18.140625 L8.609375,17.421875 L14.375,17.421875 L14.375,11.65625 L7.578125,11.65625 L7.78125,10.9375 L14.375,10.9375 L14.375,4.109375 C14.375,3.703125 14.25,3.578125 13.75,3.578125 C13.15625,3.578125 10.15625,3.765625 10.15625,3.765625 L10.15625,3.40625 C11.453125,3.234375 12.171875,3.046875 12.59375,2.78125 C12.984375,2.515625 13.15625,2.109375 13.203125,1.609375 C15.625,1.875 15.953125,2.765625 15.953125,4.03125 L15.953125,10.9375 L22.46875,10.9375 C22.828125,10.9375 23.046875,11.0625 23.109375,11.328125 C22.265625,12.09375 20.953125,13.125 20.953125,13.125 L19.78125,11.65625 L15.953125,11.65625 L15.953125,17.421875 L21.578125,17.421875 C21.90625,17.421875 22.15625,17.546875 22.21875,17.8125 C21.40625,18.546875 20.09375,19.5625 20.09375,19.5625 L18.953125,18.140625 Z M6.140625,8.921875 C6.796875,9.03125 7.15625,9.21875 7.3125,9.390625 L5.25,11.109375 L4.296875,9.890625 L0.953125,9.890625 L1.109375,9.171875 L4.65625,9.171875 L4.65625,2.09375 C3.28125,1.34375 1.828125,0.578125 0.859375,0.171875 L1.984375,-1.84375 C2.203125,-1.734375 2.328125,-1.578125 2.28125,-1.265625 C3.234375,-0.484375 4.796875,0.953125 5.828125,2.046875 C7.484375,-0.71875 9.40625,-1.265625 13.75,-1.265625 C16.421875,-1.265625 19.65625,-1.265625 21.984375,-1.265625 C22.109375,-0.53125 22.484375,-0.078125 23.1875,0.046875 L23.1875,0.390625 C20.328125,0.28125 16.5625,0.28125 13.75,0.28125 C9.625,0.28125 7.796875,0.578125 6.140625,2.5 Z" transform="translate(-0.0234375, 19.5625) scale(1, -1)"/>
</svg>