<svg height="21.9375" viewBox="0 0 24 21.9375" width="24" xmlns="http://www.w3.org/2000/svg">
<path d="M2.140625,19.390625 L1.875,19.203125 C3.078125,18.140625 4.484375,16.296875 4.796875,14.8125 C6.578125,13.484375 7.875,17.453125 2.140625,19.390625 Z M5.734375,8.921875 C6.390625,9.03125 6.75,9.21875 6.890625,9.390625 L4.84375,11.109375 L3.90625,9.859375 L0.984375,9.859375 L1.125,9.171875 L4.21875,9.171875 L4.21875,1.96875 C3,1.21875 1.734375,0.5 0.890625,0.125 L2.046875,-1.796875 C2.25,-1.703125 2.359375,-1.53125 2.296875,-1.25 C3.171875,-0.484375 4.53125,0.953125 5.421875,2.015625 C7.125,-0.71875 9.09375,-1.265625 13.53125,-1.265625 C16.25,-1.265625 19.5625,-1.265625 21.984375,-1.265625 C22.078125,-0.546875 22.484375,-0.125 23.1875,0.03125 L23.1875,0.359375 C20.234375,0.265625 16.390625,0.265625 13.515625,0.265625 C9.3125,0.265625 7.46875,0.546875 5.734375,2.515625 Z M14.640625,17.6875 L14.640625,1.25 L14.875,1.25 C15.625,1.25 16.125,1.6875 16.125,1.796875 L16.125,16.984375 L20.234375,16.984375 L20.234375,6.390625 C20.234375,6.078125 20.140625,5.953125 19.78125,5.953125 C19.390625,5.953125 17.65625,6.078125 17.65625,6.078125 L17.65625,5.71875 C18.484375,5.59375 18.9375,5.40625 19.203125,5.15625 C19.46875,4.921875 19.5625,4.484375 19.578125,4.015625 C21.53125,4.21875 21.71875,4.96875 21.71875,6.21875 L21.71875,16.703125 C22.203125,16.796875 22.578125,16.984375 22.734375,17.1875 L20.765625,18.640625 L19.984375,17.6875 L16.421875,17.6875 L14.640625,18.453125 Z M12.9375,20.140625 C12.265625,19.515625 11.25,18.59375 10.34375,17.859375 L8.5625,18.5 L8.5625,5.546875 L6.453125,4.984375 L7.65625,3.234375 C7.875,3.34375 8.0625,3.546875 8.109375,3.84375 C10.78125,5.0625 12.75,6.09375 14.109375,6.8125 L13.984375,7.171875 L10.0625,5.96875 L10.0625,17.015625 C11.296875,17.515625 12.9375,18.1875 13.84375,18.640625 C14.296875,18.5 14.515625,18.578125 14.640625,18.765625 Z" transform="translate(-0.0390625, 20.140625) scale(1, -1)"/>
</svg>