<svg height="21.890625" viewBox="0 0 24 21.890625" width="24" xmlns="http://www.w3.org/2000/svg">
<path d="M2.46875,19.5625 L2.234375,19.3125 C3.3125,18.53125 4.75,17.109375 5.1875,15.953125 C6.890625,15.078125 7.734375,18.484375 2.46875,19.5625 Z M1.46875,14.609375 L1.25,14.40625 C2.40625,13.65625 3.859375,12.34375 4.375,11.234375 C6.09375,10.421875 6.796875,13.875 1.46875,14.609375 Z M14.78125,17.421875 L14.78125,1.078125 L15.03125,1.078125 C15.765625,1.078125 16.265625,1.46875 16.265625,1.578125 L16.265625,16.703125 L20.328125,16.703125 L20.328125,6.09375 C20.328125,5.765625 20.234375,5.609375 19.875,5.609375 C19.46875,5.609375 17.765625,5.78125 17.765625,5.78125 L17.765625,5.375 C18.546875,5.28125 19.015625,5.09375 19.296875,4.84375 C19.53125,4.609375 19.625,4.203125 19.6875,3.75 C21.59375,3.953125 21.8125,4.6875 21.8125,5.90625 L21.8125,16.46875 C22.265625,16.5625 22.65625,16.734375 22.828125,16.921875 L20.859375,18.359375 L20.09375,17.421875 L16.5625,17.421875 L14.78125,18.1875 Z M13.078125,20.09375 C12.4375,19.46875 11.421875,18.5 10.515625,17.734375 L8.765625,18.390625 L8.765625,5.5625 L6.859375,5.140625 L7.9375,3.359375 C8.1875,3.4375 8.359375,3.625 8.421875,3.90625 C11.015625,5.046875 12.9375,6 14.25,6.640625 L14.15625,7.015625 L10.21875,5.953125 L10.21875,16.84375 C11.546875,17.421875 13.21875,18.21875 14.1875,18.71875 C14.6875,18.578125 14.90625,18.640625 15.03125,18.859375 Z M5.765625,7.171875 C6.390625,7.25 6.75,7.46875 6.90625,7.609375 L4.84375,9.34375 L3.90625,8.109375 L0.890625,8.109375 L1.03125,7.390625 L4.25,7.390625 L4.25,1.96875 C3.03125,1.25 1.734375,0.53125 0.890625,0.140625 L2.015625,-1.796875 C2.234375,-1.6875 2.328125,-1.53125 2.28125,-1.21875 C3.140625,-0.453125 4.53125,0.9375 5.421875,1.96875 C7.15625,-0.703125 9.09375,-1.25 13.515625,-1.25 C16.21875,-1.25 19.5625,-1.25 21.953125,-1.25 C22.03125,-0.53125 22.46875,-0.078125 23.15625,0.046875 L23.15625,0.390625 C20.203125,0.28125 16.34375,0.28125 13.484375,0.28125 C9.28125,0.28125 7.46875,0.578125 5.765625,2.453125 Z" transform="translate(-0.0234375, 20.09375) scale(1, -1)"/>
</svg>