<svg height="21.96875" viewBox="0 0 24 21.96875" width="24" xmlns="http://www.w3.org/2000/svg">
<path d="M2.5,19.5625 L2.25,19.3125 C3.359375,18.53125 4.78125,17.109375 5.234375,15.953125 C6.90625,15.078125 7.75,18.484375 2.5,19.5625 Z M1.515625,14.609375 L1.265625,14.40625 C2.453125,13.65625 3.90625,12.34375 4.390625,11.234375 C6.125,10.421875 6.84375,13.875 1.515625,14.609375 Z M11.15625,20.140625 C10.203125,16.984375 8.546875,14.109375 6.859375,12.359375 L7.171875,12.09375 C8.515625,13.015625 9.8125,14.28125 10.921875,15.84375 L22.0625,15.84375 C22.390625,15.84375 22.65625,15.953125 22.734375,16.21875 C21.890625,16.984375 20.5625,18 20.5625,18.03125 L19.421875,16.5625 L11.421875,16.5625 C11.875,17.28125 12.3125,18.03125 12.703125,18.8125 C13.203125,18.765625 13.515625,18.984375 13.609375,19.265625 Z M9.21875,12.890625 L9.4375,12.1875 L16.109375,12.1875 C11.609375,8.375 8.203125,6.484375 8.453125,4.65625 C8.59375,3.1875 9.890625,2.59375 12.75,2.59375 L18.234375,2.59375 C21.09375,2.59375 22.5625,2.96875 22.5625,3.765625 C22.5625,4.125 22.375,4.21875 21.671875,4.421875 L21.75,7.265625 L21.40625,7.296875 C21.171875,6.046875 20.921875,5.0625 20.609375,4.515625 C20.40625,4.21875 20.046875,4.109375 18.21875,4.109375 L12.890625,4.109375 C11.203125,4.109375 10.3125,4.265625 10.21875,4.890625 C10.109375,5.859375 12.84375,7.9375 18.3125,11.90625 C18.859375,11.921875 19.171875,12.03125 19.390625,12.21875 L17.5,13.78125 L16.6875,12.890625 Z M5.828125,7.171875 C6.484375,7.25 6.84375,7.46875 6.984375,7.609375 L4.921875,9.34375 L3.984375,8.109375 L0.953125,8.109375 L1.109375,7.390625 L4.34375,7.390625 L4.34375,1.96875 C3.125,1.25 1.796875,0.5 0.953125,0.125 L2.109375,-1.828125 C2.296875,-1.703125 2.40625,-1.5625 2.375,-1.265625 C3.234375,-0.484375 4.609375,0.90625 5.515625,1.96875 C7.21875,-0.75 9.171875,-1.265625 13.578125,-1.265625 C16.265625,-1.265625 19.609375,-1.265625 22.015625,-1.265625 C22.109375,-0.546875 22.515625,-0.125 23.203125,0 L23.203125,0.359375 C20.28125,0.265625 16.421875,0.265625 13.5625,0.265625 C9.390625,0.265625 7.515625,0.53125 5.828125,2.421875 Z" transform="translate(-0.078125, 20.140625) scale(1, -1)"/>
</svg>