<svg height="21.953125" viewBox="0 0 24 21.953125" width="24" xmlns="http://www.w3.org/2000/svg">
<path d="M2.46875,19.5625 L2.234375,19.3125 C3.3125,18.53125 4.75,17.109375 5.1875,15.953125 C6.890625,15.078125 7.734375,18.484375 2.46875,19.5625 Z M1.46875,14.609375 L1.25,14.40625 C2.40625,13.65625 3.859375,12.34375 4.375,11.234375 C6.09375,10.421875 6.796875,13.875 1.46875,14.609375 Z M19.65625,20.15625 C17.953125,19.375 14.828125,18.390625 12.046875,17.734375 L10.265625,18.3125 L10.265625,12.640625 C10.265625,8.96875 9.984375,5.09375 7.421875,1.890625 L7.734375,1.609375 C11.375,4.578125 11.8125,8.921875 11.828125,12.28125 L16.75,12.28125 L16.75,1.5625 L16.984375,1.5625 C17.8125,1.5625 18.3125,1.921875 18.3125,2.015625 L18.3125,12.28125 L22.4375,12.28125 C22.78125,12.28125 23.015625,12.40625 23.0625,12.671875 C22.25,13.4375 20.953125,14.453125 20.953125,14.453125 L19.796875,13.015625 L11.828125,13.015625 L11.828125,17.140625 C14.828125,17.375 18.09375,17.953125 20.25,18.453125 C20.828125,18.21875 21.265625,18.21875 21.484375,18.40625 Z M5.78125,7.171875 C6.40625,7.25 6.765625,7.46875 6.9375,7.609375 L4.875,9.34375 L3.9375,8.109375 L0.90625,8.109375 L1.0625,7.390625 L4.265625,7.390625 L4.265625,1.96875 C3.046875,1.25 1.75,0.53125 0.90625,0.140625 L2.046875,-1.796875 C2.25,-1.6875 2.359375,-1.53125 2.296875,-1.21875 C3.171875,-0.453125 4.5625,0.9375 5.453125,1.96875 C7.171875,-0.703125 9.125,-1.25 13.53125,-1.25 C16.21875,-1.25 19.53125,-1.25 21.9375,-1.25 C22.03125,-0.53125 22.4375,-0.078125 23.15625,0.046875 L23.15625,0.390625 C20.203125,0.28125 16.34375,0.28125 13.484375,0.28125 C9.3125,0.28125 7.484375,0.578125 5.78125,2.453125 Z" transform="translate(-0.03125, 20.15625) scale(1, -1)"/>
</svg>