<svg height="21.71875" viewBox="0 0 24 21.71875" width="24" xmlns="http://www.w3.org/2000/svg">
<path d="M2.421875,19.5625 L2.1875,19.3125 C3.265625,18.546875 4.6875,17.109375 5.140625,15.953125 C6.8125,15.046875 7.6875,18.484375 2.421875,19.5625 Z M1.4375,14.609375 L1.21875,14.40625 C2.375,13.65625 3.84375,12.34375 4.34375,11.234375 C6.09375,10.421875 6.8125,13.875 1.4375,14.609375 Z M5.78125,2.546875 L5.78125,7.15625 C6.4375,7.25 6.796875,7.46875 6.953125,7.609375 L4.875,9.359375 L3.9375,8.109375 L0.890625,8.109375 L1.03125,7.390625 L4.265625,7.390625 L4.265625,1.96875 C3.046875,1.25 1.75,0.53125 0.890625,0.140625 L2.015625,-1.828125 C2.234375,-1.703125 2.359375,-1.5625 2.296875,-1.25 C3.171875,-0.484375 4.5625,0.90625 5.453125,1.96875 C7.171875,-0.703125 9.140625,-1.265625 13.53125,-1.265625 C16.21875,-1.265625 19.5625,-1.265625 21.953125,-1.265625 C22.0625,-0.53125 22.484375,-0.078125 23.1875,0.046875 L23.1875,0.390625 C20.25,0.28125 16.375,0.28125 13.515625,0.28125 C9.34375,0.28125 7.484375,0.546875 5.78125,2.421875 Z M20.296875,19.890625 L19.109375,18.40625 L11.65625,18.40625 L9.796875,19.21875 L9.796875,13.9375 C9.796875,10.0625 9.5,5.8125 7.078125,2.328125 L7.421875,2.046875 C10.6875,5.109375 11.28125,9.390625 11.359375,12.796875 L18.859375,12.796875 C18.359375,11.1875 17.65625,9.671875 16.75,8.28125 C15.5,9.09375 13.984375,9.9375 12.140625,10.78125 L11.859375,10.53125 C13.109375,9.640625 14.546875,8.453125 15.9375,7.171875 C14.28125,5.140625 12.046875,3.453125 9.1875,2.234375 L9.40625,1.875 C12.625,2.90625 15.03125,4.421875 16.875,6.28125 C18.359375,4.828125 19.625,3.28125 20.296875,1.984375 C22.0625,1.03125 22.734375,3.859375 17.90625,7.46875 C19.125,9 20.015625,10.703125 20.6875,12.578125 C21.234375,12.59375 21.484375,12.640625 21.640625,12.890625 L19.84375,14.515625 L18.8125,13.484375 L11.375,13.484375 L11.375,13.9375 L11.375,17.6875 L21.859375,17.6875 C22.203125,17.6875 22.46875,17.8125 22.53125,18.078125 C21.671875,18.84375 20.296875,19.890625 20.296875,19.890625 Z" transform="translate(-0.0390625, 19.890625) scale(1, -1)"/>
</svg>