<svg height="22" viewBox="0 0 24 22" width="24" xmlns="http://www.w3.org/2000/svg">
<path d="M1.796875,19.375 L1.5625,19.171875 C2.78125,18.125 4.296875,16.265625 4.734375,14.828125 C6.578125,13.578125 7.78125,17.5 1.796875,19.375 Z M19.65625,20.15625 C17.953125,19.375 14.828125,18.390625 12.046875,17.734375 L10.265625,18.3125 L10.265625,12.640625 C10.265625,8.96875 9.984375,5.09375 7.421875,1.890625 L7.734375,1.609375 C11.1875,4.421875 11.765625,8.46875 11.828125,11.765625 L16.75,11.765625 L16.75,1.109375 L16.984375,1.109375 C17.8125,1.109375 18.3125,1.4375 18.3125,1.5625 L18.3125,11.765625 L22.421875,11.765625 C22.75,11.765625 22.984375,11.875 23.0625,12.125 C22.25,12.890625 20.921875,13.875 20.921875,13.875 L19.78125,12.4375 L11.828125,12.4375 L11.828125,12.625 L11.828125,17.140625 C14.828125,17.375 18.09375,17.953125 20.25,18.453125 C20.828125,18.21875 21.265625,18.21875 21.484375,18.40625 Z M6.140625,8.921875 C6.796875,9.03125 7.15625,9.21875 7.3125,9.390625 L5.25,11.109375 L4.296875,9.890625 L0.953125,9.890625 L1.109375,9.171875 L4.65625,9.171875 L4.65625,2.09375 C3.28125,1.34375 1.828125,0.578125 0.859375,0.171875 L1.984375,-1.84375 C2.203125,-1.734375 2.328125,-1.578125 2.28125,-1.265625 C3.234375,-0.484375 4.796875,0.953125 5.828125,2.046875 C7.484375,-0.71875 9.40625,-1.265625 13.75,-1.265625 C16.421875,-1.265625 19.6875,-1.265625 22.015625,-1.265625 C22.109375,-0.53125 22.515625,-0.078125 23.203125,0.046875 L23.203125,0.390625 C20.328125,0.28125 16.5625,0.28125 13.75,0.28125 C9.625,0.28125 7.828125,0.578125 6.140625,2.5 Z" transform="translate(-0.03125, 20.15625) scale(1, -1)"/>
</svg>