<svg height="21.9375" viewBox="0 0 24 21.9375" width="24" xmlns="http://www.w3.org/2000/svg">
<path d="M18.3125,12.265625 L18,12.125 C19.4375,10.15625 21.046875,7.0625 21.171875,4.65625 C22.9375,3 24.4375,7.734375 18.3125,12.265625 Z M11.140625,12.3125 C10.296875,9.265625 8.90625,6.234375 7.53125,4.3125 L7.890625,4.078125 C9.75,5.71875 11.40625,8.25 12.53125,11.015625 C13.0625,10.984375 13.34375,11.1875 13.46875,11.453125 Z M2.453125,19.375 L2.203125,19.171875 C3.390625,18.125 4.828125,16.265625 5.203125,14.8125 C6.984375,13.5625 8.25,17.421875 2.453125,19.375 Z M14.765625,15.125 L14.765625,3.75 C14.765625,3.390625 14.640625,3.234375 14.203125,3.234375 C13.703125,3.234375 11.28125,3.4375 11.28125,3.4375 L11.28125,3.046875 C12.34375,2.921875 12.9375,2.734375 13.296875,2.46875 C13.609375,2.203125 13.75,1.796875 13.828125,1.3125 C16.0625,1.53125 16.3125,2.328125 16.3125,3.625 L16.3125,14.234375 C16.890625,14.328125 17.09375,14.515625 17.15625,14.859375 Z M11.25,20.09375 C10.421875,16.625 8.828125,13.4375 7.15625,11.421875 L7.484375,11.15625 C8.921875,12.28125 10.25,13.796875 11.328125,15.640625 L22.15625,15.640625 C22.484375,15.640625 22.703125,15.765625 22.78125,16.03125 C21.953125,16.796875 20.640625,17.828125 20.640625,17.828125 L19.46875,16.375 L11.734375,16.375 C12.140625,17.140625 12.5,17.953125 12.84375,18.796875 C13.375,18.765625 13.65625,18.984375 13.75,19.265625 Z M6.125,8.921875 C6.765625,9.03125 7.125,9.21875 7.296875,9.390625 L5.203125,11.09375 L4.296875,9.890625 L0.953125,9.890625 L1.109375,9.171875 L4.625,9.171875 L4.625,2.09375 C3.265625,1.3125 1.828125,0.578125 0.890625,0.171875 L2.015625,-1.84375 C2.234375,-1.734375 2.359375,-1.578125 2.28125,-1.265625 C3.234375,-0.484375 4.796875,0.953125 5.78125,2.046875 C7.46875,-0.71875 9.390625,-1.265625 13.734375,-1.265625 C16.390625,-1.265625 19.625,-1.265625 21.953125,-1.265625 C22.0625,-0.53125 22.46875,-0.078125 23.15625,0.046875 L23.15625,0.390625 C20.28125,0.28125 16.515625,0.28125 13.734375,0.28125 C9.59375,0.28125 7.78125,0.578125 6.125,2.5 Z" transform="translate(-0.6640625, 20.09375) scale(1, -1)"/>
</svg>