<svg height="21.953125" viewBox="0 0 24 21.953125" width="24" xmlns="http://www.w3.org/2000/svg">
<path d="M2.421875,19.375 L2.1875,19.171875 C3.390625,18.125 4.84375,16.3125 5.234375,14.875 C7.03125,13.625 8.25,17.46875 2.421875,19.375 Z M19.578125,9.546875 L19.578125,4.109375 L10.796875,4.109375 L10.796875,9.546875 Z M19.578125,10.265625 L10.796875,10.265625 L10.796875,15.5 L19.578125,15.5 Z M14.015625,20.109375 C13.84375,18.953125 13.578125,17.359375 13.375,16.21875 L10.921875,16.21875 L9.234375,16.984375 L9.234375,1.96875 L9.5,1.96875 C10.203125,1.96875 10.796875,2.359375 10.796875,2.546875 L10.796875,3.390625 L19.578125,3.390625 L19.578125,2.15625 L19.796875,2.15625 C20.328125,2.15625 21.09375,2.546875 21.125,2.6875 L21.125,15.21875 C21.59375,15.3125 21.984375,15.5 22.15625,15.703125 L20.203125,17.203125 L19.34375,16.21875 L14.203125,16.21875 C14.765625,17.109375 15.40625,18.21875 15.84375,19.03125 C16.375,19.03125 16.65625,19.25 16.75,19.578125 Z M6.125,8.921875 C6.765625,9.03125 7.125,9.21875 7.296875,9.390625 L5.203125,11.09375 L4.296875,9.890625 L0.953125,9.890625 L1.109375,9.171875 L4.625,9.171875 L4.625,2.09375 C3.265625,1.3125 1.828125,0.578125 0.890625,0.171875 L2.015625,-1.84375 C2.234375,-1.734375 2.359375,-1.578125 2.28125,-1.265625 C3.234375,-0.484375 4.796875,0.953125 5.78125,2.046875 C7.46875,-0.71875 9.40625,-1.265625 13.75,-1.265625 C16.421875,-1.265625 19.6875,-1.265625 22.03125,-1.265625 C22.125,-0.53125 22.53125,-0.09375 23.203125,0.046875 L23.203125,0.390625 C20.359375,0.28125 16.5625,0.28125 13.75,0.28125 C9.59375,0.28125 7.78125,0.578125 6.125,2.5 Z" transform="translate(-0.046875, 20.109375) scale(1, -1)"/>
</svg>