<svg height="21.890625" viewBox="0 0 24 21.890625" width="24" xmlns="http://www.w3.org/2000/svg">
<path d="M2.140625,19.390625 L1.875,19.203125 C3.09375,18.140625 4.515625,16.296875 4.828125,14.8125 C6.625,13.515625 7.921875,17.46875 2.140625,19.390625 Z M19.734375,9.34375 L19.734375,3.953125 L15.546875,3.953125 L15.546875,9.34375 Z M19.734375,10.0625 L15.546875,10.0625 L15.546875,14.921875 L19.734375,14.921875 Z M14.015625,20.09375 L14.015625,15.625 L10.171875,15.625 L8.515625,16.390625 L8.515625,1.625 L8.765625,1.625 C9.4375,1.625 10.03125,1.984375 10.03125,2.1875 L10.03125,3.234375 L19.734375,3.234375 L19.734375,1.921875 L19.9375,1.921875 C20.5,1.921875 21.265625,2.296875 21.28125,2.453125 L21.28125,14.609375 C21.75,14.71875 22.125,14.921875 22.296875,15.125 L20.375,16.609375 L19.515625,15.625 L15.546875,15.625 L15.546875,19.171875 C16.125,19.265625 16.375,19.515625 16.421875,19.84375 Z M10.03125,9.34375 L14.015625,9.34375 L14.015625,3.953125 L10.03125,3.953125 Z M10.03125,10.0625 L10.03125,14.921875 L14.015625,14.921875 L14.015625,10.0625 Z M5.78125,8.921875 C6.4375,9.03125 6.796875,9.21875 6.9375,9.390625 L4.875,11.109375 L3.9375,9.890625 L1.015625,9.890625 L1.15625,9.171875 L4.265625,9.171875 L4.265625,2.015625 C3.03125,1.265625 1.734375,0.53125 0.890625,0.140625 L2.046875,-1.796875 C2.25,-1.6875 2.359375,-1.53125 2.296875,-1.25 C3.171875,-0.484375 4.5625,0.953125 5.46875,2.015625 C7.171875,-0.71875 9.140625,-1.265625 13.5625,-1.265625 C16.25,-1.265625 19.578125,-1.265625 21.984375,-1.265625 C22.078125,-0.53125 22.484375,-0.09375 23.203125,0.046875 L23.203125,0.390625 C20.25,0.28125 16.421875,0.28125 13.53125,0.28125 C9.34375,0.28125 7.484375,0.578125 5.78125,2.515625 Z" transform="translate(-0.046875, 20.09375) scale(1, -1)"/>
</svg>