<svg height="21.859375" viewBox="0 0 24 21.859375" width="24" xmlns="http://www.w3.org/2000/svg">
<path d="M1.78125,19.375 L1.53125,19.171875 C2.765625,18.125 4.265625,16.265625 4.6875,14.828125 C6.5,13.609375 7.703125,17.46875 1.78125,19.375 Z M14.546875,20.015625 L14.546875,15.390625 L10.984375,15.390625 C11.40625,16.265625 11.765625,17.203125 12.046875,18.171875 C12.546875,18.140625 12.84375,18.359375 12.9375,18.640625 L10.515625,19.3125 C10.03125,16.296875 9,13.3125 7.84375,11.359375 L8.203125,11.140625 C9.140625,12.078125 9.984375,13.296875 10.6875,14.71875 L14.515625,14.71875 C14.5,13.296875 14.40625,11.96875 14.203125,10.75 L7.3125,10.75 L7.515625,10.078125 L14.09375,10.078125 C13.421875,6.59375 11.71875,3.953125 7.515625,1.9375 L7.796875,1.53125 C11.765625,3.078125 13.796875,5.09375 14.875,7.65625 C17.09375,6.171875 19.625,3.859375 20.546875,1.96875 C22.65625,0.859375 23.1875,5.328125 15.09375,8.15625 C15.3125,8.78125 15.484375,9.40625 15.625,10.078125 L22.421875,10.078125 C22.734375,10.078125 22.96875,10.203125 23.046875,10.46875 C22.21875,11.1875 20.921875,12.21875 20.921875,12.21875 L19.78125,10.75 L15.75,10.75 C15.9375,11.96875 16.03125,13.296875 16.078125,14.71875 L21.453125,14.71875 C21.765625,14.71875 22.015625,14.828125 22.078125,15.09375 C21.28125,15.8125 19.984375,16.828125 19.984375,16.828125 L18.859375,15.390625 L16.109375,15.390625 L16.15625,19.125 C16.734375,19.203125 16.921875,19.4375 16.984375,19.78125 Z M6.125,8.921875 C6.765625,9.03125 7.125,9.21875 7.296875,9.390625 L5.203125,11.09375 L4.296875,9.890625 L0.953125,9.890625 L1.109375,9.171875 L4.625,9.171875 L4.625,2.09375 C3.265625,1.3125 1.828125,0.578125 0.890625,0.171875 L2.015625,-1.84375 C2.234375,-1.734375 2.359375,-1.578125 2.28125,-1.265625 C3.234375,-0.484375 4.796875,0.953125 5.78125,2.046875 C7.46875,-0.71875 9.390625,-1.265625 13.734375,-1.265625 C16.390625,-1.265625 19.625,-1.265625 21.953125,-1.265625 C22.0625,-0.53125 22.46875,-0.078125 23.15625,0.046875 L23.15625,0.390625 C20.28125,0.28125 16.515625,0.28125 13.734375,0.28125 C9.59375,0.28125 7.78125,0.578125 6.125,2.5 Z" transform="translate(-0.0390625, 20.015625) scale(1, -1)"/>
</svg>