<svg height="22" viewBox="0 0 24 22" width="24" xmlns="http://www.w3.org/2000/svg">
<path d="M8.546875,18.75 L8.234375,18.59375 C9.140625,17.234375 10.21875,15.046875 10.390625,13.390625 C11.953125,11.921875 13.46875,15.578125 8.546875,18.75 Z M19.65625,19.15625 C18.90625,16.984375 17.859375,14.640625 16.984375,13.203125 L17.359375,12.953125 C18.640625,14.15625 20.0625,16.03125 21.171875,17.8125 C21.640625,17.78125 21.953125,17.96875 22.0625,18.21875 Z M2.421875,19.53125 L2.1875,19.3125 C3.265625,18.5 4.6875,17.09375 5.140625,15.953125 C6.8125,15.078125 7.65625,18.453125 2.421875,19.53125 Z M1.421875,14.59375 L1.203125,14.375 C2.359375,13.65625 3.796875,12.34375 4.296875,11.234375 C6,10.421875 6.71875,13.84375 1.421875,14.59375 Z M13.96875,20.203125 L13.96875,11.859375 L7.21875,11.859375 L7.390625,11.15625 L12.625,11.15625 C11.5,8.203125 9.578125,5.359375 7.0625,3.28125 L7.3125,2.921875 C10.25,4.75 12.53125,7.15625 13.96875,10.015625 L13.96875,1.171875 L14.296875,1.171875 C14.875,1.171875 15.53125,1.53125 15.53125,1.78125 L15.53125,11.15625 L15.546875,11.15625 C16.6875,7.78125 18.90625,4.84375 21.484375,3.046875 C21.71875,3.8125 22.21875,4.265625 22.890625,4.34375 L22.9375,4.609375 C20.28125,5.90625 17.5,8.328125 16.125,11.15625 L22.3125,11.15625 C22.65625,11.15625 22.890625,11.28125 22.9375,11.546875 C22.15625,12.265625 20.859375,13.25 20.859375,13.25 L19.734375,11.859375 L15.53125,11.859375 L15.53125,19.265625 C16.125,19.375 16.34375,19.609375 16.421875,19.9375 Z M5.6875,7.171875 C6.34375,7.25 6.703125,7.4375 6.84375,7.609375 L4.796875,9.3125 L3.859375,8.09375 L0.90625,8.09375 L1.0625,7.390625 L4.203125,7.390625 L4.203125,1.9375 C3,1.21875 1.734375,0.5 0.90625,0.125 L2.046875,-1.796875 C2.234375,-1.703125 2.328125,-1.53125 2.28125,-1.25 C3.140625,-0.484375 4.484375,0.90625 5.375,1.9375 C7.109375,-0.71875 9.046875,-1.265625 13.484375,-1.265625 C16.203125,-1.265625 19.53125,-1.265625 21.953125,-1.265625 C22.03125,-0.546875 22.46875,-0.125 23.15625,0 L23.15625,0.359375 C20.203125,0.265625 16.3125,0.265625 13.46875,0.265625 C9.265625,0.265625 7.421875,0.53125 5.6875,2.421875 Z" transform="translate(-0.03125, 20.203125) scale(1, -1)"/>
</svg>