<svg height="21.890625" viewBox="0 0 24 21.890625" width="24" xmlns="http://www.w3.org/2000/svg">
<path d="M17.421875,19.921875 L17.15625,19.734375 C17.96875,19.03125 18.9375,17.8125 19.203125,16.796875 C20.71875,15.765625 21.953125,18.84375 17.421875,19.921875 Z M2.46875,19.53125 L2.234375,19.3125 C3.3125,18.5 4.734375,17.09375 5.1875,15.953125 C6.859375,15.078125 7.703125,18.453125 2.46875,19.53125 Z M1.46875,14.59375 L1.25,14.375 C2.40625,13.65625 3.84375,12.34375 4.34375,11.234375 C6.046875,10.421875 6.765625,13.84375 1.46875,14.59375 Z M17.96875,12.53125 L17.96875,5.734375 C17.96875,4.125 18.234375,3.71875 19.578125,3.71875 L21.046875,3.71875 C22.265625,3.71875 22.75,4.15625 22.75,4.78125 C22.75,5.046875 22.6875,5.140625 22.203125,5.359375 L22.15625,7.21875 L21.8125,7.21875 C21.671875,6.28125 21.5,5.609375 21.40625,5.375 C21.3125,5.140625 21.1875,5.140625 21.046875,5.140625 L19.75,5.140625 C19.4375,5.140625 19.4375,5.1875 19.4375,5.734375 L19.4375,11.6875 C19.84375,11.765625 20.109375,11.96875 20.140625,12.265625 Z M10.125,12.53125 C10.0625,9.3125 9.671875,5.65625 7.21875,3.4375 L7.53125,3.09375 C10.875,5.1875 11.421875,8.71875 11.65625,11.734375 C12.171875,11.8125 12.34375,12.046875 12.359375,12.3125 Z M13.9375,20.09375 L13.9375,15.359375 L7.515625,15.359375 L7.703125,14.65625 L13.9375,14.65625 L13.9375,1.390625 L14.234375,1.390625 C14.828125,1.390625 15.453125,1.75 15.453125,1.96875 L15.453125,14.65625 L22.3125,14.65625 C22.65625,14.65625 22.890625,14.78125 22.96875,15.046875 C22.15625,15.765625 20.90625,16.75 20.90625,16.75 L19.75,15.359375 L15.453125,15.359375 L15.453125,19.171875 C16.078125,19.265625 16.296875,19.515625 16.34375,19.84375 Z M5.734375,7.171875 C6.390625,7.25 6.75,7.4375 6.90625,7.609375 L4.84375,9.3125 L3.90625,8.09375 L0.953125,8.09375 L1.109375,7.390625 L4.265625,7.390625 L4.265625,1.96875 C3.046875,1.25 1.75,0.5 0.9375,0.125 L2.0625,-1.796875 C2.25,-1.6875 2.359375,-1.53125 2.328125,-1.21875 C3.171875,-0.453125 4.53125,0.9375 5.421875,1.96875 C7.15625,-0.71875 9.09375,-1.25 13.515625,-1.25 C16.21875,-1.25 19.5625,-1.25 21.953125,-1.25 C22.0625,-0.53125 22.46875,-0.09375 23.15625,0.03125 L23.15625,0.359375 C20.234375,0.265625 16.34375,0.265625 13.484375,0.265625 C9.3125,0.265625 7.46875,0.546875 5.734375,2.453125 Z" transform="translate(-0.046875, 20.09375) scale(1, -1)"/>
</svg>