<svg height="21.9375" viewBox="0 0 24 21.9375" width="24" xmlns="http://www.w3.org/2000/svg">
<path d="M17.734375,12.125 L17.40625,11.921875 C18.953125,9.890625 20.859375,6.625 21.125,4.171875 C22.984375,2.546875 24.328125,7.296875 17.734375,12.125 Z M10.53125,12.21875 C9.84375,8.859375 8.453125,5.6875 6.890625,3.640625 L7.21875,3.40625 C9.265625,5.109375 10.96875,7.796875 12.078125,10.96875 C12.578125,10.9375 12.84375,11.15625 12.9375,11.453125 Z M17.359375,19.5625 L17.109375,19.34375 C18.03125,18.671875 19.15625,17.421875 19.484375,16.4375 C21.078125,15.484375 22.15625,18.625 17.359375,19.5625 Z M2.25,19.375 L1.984375,19.203125 C3.125,18.09375 4.421875,16.265625 4.703125,14.8125 C6.484375,13.515625 7.828125,17.328125 2.25,19.375 Z M14.28125,20.09375 L14.28125,15.1875 L7.3125,15.1875 L7.515625,14.5 L14.28125,14.5 L14.28125,1.390625 L14.59375,1.390625 C15.1875,1.390625 15.84375,1.75 15.84375,1.984375 L15.84375,14.5 L22.4375,14.5 C22.78125,14.5 23.046875,14.609375 23.09375,14.875 C22.265625,15.578125 21.03125,16.578125 21.03125,16.578125 L19.890625,15.1875 L15.84375,15.1875 L15.84375,19.171875 C16.46875,19.265625 16.65625,19.515625 16.703125,19.84375 Z M6.125,8.921875 C6.765625,9.03125 7.125,9.21875 7.296875,9.390625 L5.203125,11.09375 L4.296875,9.890625 L0.953125,9.890625 L1.109375,9.171875 L4.625,9.171875 L4.625,2.09375 C3.265625,1.3125 1.828125,0.578125 0.890625,0.171875 L2.015625,-1.84375 C2.234375,-1.734375 2.359375,-1.578125 2.28125,-1.265625 C3.234375,-0.484375 4.796875,0.953125 5.78125,2.046875 C7.46875,-0.71875 9.390625,-1.265625 13.75,-1.265625 C16.421875,-1.265625 19.65625,-1.265625 22.015625,-1.265625 C22.109375,-0.53125 22.515625,-0.078125 23.203125,0.046875 L23.203125,0.390625 C20.328125,0.28125 16.53125,0.28125 13.734375,0.28125 C9.59375,0.28125 7.78125,0.578125 6.125,2.5 Z" transform="translate(-0.609375, 20.09375) scale(1, -1)"/>
</svg>