<svg height="21.421875" viewBox="0 0 24 21.421875" width="24" xmlns="http://www.w3.org/2000/svg">
<path d="M2.46875,19.375 L2.25,19.171875 C3.484375,18.09375 5.015625,16.25 5.40625,14.765625 C7.25,13.515625 8.453125,17.421875 2.46875,19.375 Z M18.59375,14.25 L18.59375,11.1875 L11.46875,11.1875 L11.46875,14.25 Z M18.59375,14.96875 L11.46875,14.96875 L11.46875,17.921875 L18.59375,17.921875 Z M7.609375,3.1875 L8.6875,1.21875 C8.875,1.296875 9.078125,1.515625 9.171875,1.828125 C12.53125,3.09375 15,4.171875 16.78125,4.96875 L16.6875,5.328125 L11.46875,4.0625 L11.46875,10.484375 L18.59375,10.484375 L18.59375,9.59375 L18.84375,9.59375 C19.375,9.59375 20.109375,10.015625 20.140625,10.15625 L20.140625,17.609375 C20.609375,17.71875 21,17.90625 21.171875,18.09375 L19.25,19.578125 L18.359375,18.59375 L11.59375,18.59375 L9.9375,19.421875 L9.9375,3.703125 Z M20.453125,9.859375 C19.828125,9.03125 18.75,7.703125 17.859375,6.703125 C16.65625,7.4375 15.125,8.203125 13.171875,8.90625 L12.90625,8.640625 C15.484375,7.078125 19.078125,4.203125 20.234375,1.9375 C21.8125,1.171875 22.34375,3.640625 18.34375,6.390625 C19.4375,7.015625 20.765625,7.828125 21.546875,8.359375 C22.03125,8.203125 22.25,8.28125 22.375,8.46875 Z M6.125,8.96875 C6.765625,9.078125 7.125,9.265625 7.296875,9.4375 L5.203125,11.140625 L4.296875,9.9375 L0.953125,9.9375 L1.109375,9.21875 L4.625,9.21875 L4.625,2.09375 C3.265625,1.3125 1.828125,0.578125 0.890625,0.171875 L2.015625,-1.84375 C2.234375,-1.734375 2.359375,-1.578125 2.28125,-1.265625 C3.234375,-0.484375 4.796875,0.953125 5.78125,2.046875 C7.46875,-0.71875 9.390625,-1.265625 13.734375,-1.265625 C16.390625,-1.265625 19.625,-1.265625 21.953125,-1.265625 C22.0625,-0.53125 22.46875,-0.078125 23.15625,0.046875 L23.15625,0.390625 C20.28125,0.28125 16.515625,0.28125 13.734375,0.28125 C9.59375,0.28125 7.78125,0.578125 6.125,2.5 Z" transform="translate(-0.0234375, 19.578125) scale(1, -1)"/>
</svg>