<svg height="22" viewBox="0 0 24 22" width="24" xmlns="http://www.w3.org/2000/svg">
<path d="M10.265625,19.984375 L10.03125,19.84375 C10.890625,18.8125 11.828125,17.140625 11.953125,15.8125 C13.5625,14.515625 15.09375,17.953125 10.265625,19.984375 Z M1.890625,19.375 L1.65625,19.171875 C2.875,18.125 4.390625,16.265625 4.796875,14.828125 C6.625,13.609375 7.828125,17.46875 1.890625,19.375 Z M18.21875,20.15625 C17.59375,18.3125 16.703125,16.265625 15.984375,14.90625 L7.84375,14.90625 L8.046875,14.1875 L14.046875,14.1875 C14.015625,12.796875 13.984375,11.5 13.84375,10.296875 L7.5625,10.296875 L7.75,9.578125 L13.75,9.578125 C13.265625,6.40625 11.828125,3.890625 7.484375,1.890625 L7.78125,1.484375 C11.78125,2.921875 13.75,4.796875 14.734375,7.15625 C16.875,5.8125 19.484375,3.59375 20.40625,1.734375 C22.53125,0.71875 22.984375,5.1875 14.90625,7.5625 C15.140625,8.203125 15.3125,8.875 15.4375,9.578125 L22.375,9.578125 C22.734375,9.578125 22.96875,9.703125 23.015625,9.953125 C22.203125,10.6875 20.921875,11.71875 20.921875,11.71875 L19.78125,10.296875 L15.546875,10.296875 C15.703125,11.5 15.75,12.796875 15.796875,14.1875 L22.015625,14.1875 C22.34375,14.1875 22.578125,14.296875 22.625,14.5625 C21.84375,15.28125 20.59375,16.265625 20.59375,16.265625 L19.484375,14.90625 L16.703125,14.90625 C17.765625,15.984375 18.859375,17.421875 19.78125,18.796875 C20.25,18.765625 20.5625,18.953125 20.6875,19.203125 Z M6.125,8.921875 C6.765625,9.03125 7.125,9.21875 7.296875,9.390625 L5.203125,11.09375 L4.296875,9.890625 L0.953125,9.890625 L1.109375,9.171875 L4.625,9.171875 L4.625,2.09375 C3.265625,1.3125 1.828125,0.578125 0.890625,0.171875 L2.015625,-1.84375 C2.234375,-1.734375 2.359375,-1.578125 2.28125,-1.265625 C3.234375,-0.484375 4.796875,0.953125 5.78125,2.046875 C7.46875,-0.71875 9.390625,-1.265625 13.734375,-1.265625 C16.390625,-1.265625 19.625,-1.265625 21.953125,-1.265625 C22.0625,-0.53125 22.46875,-0.078125 23.15625,0.046875 L23.15625,0.390625 C20.28125,0.28125 16.515625,0.28125 13.734375,0.28125 C9.59375,0.28125 7.78125,0.578125 6.125,2.5 Z" transform="translate(-0.0234375, 20.15625) scale(1, -1)"/>
</svg>