<svg height="21.84375" viewBox="0 0 24 21.84375" width="24" xmlns="http://www.w3.org/2000/svg">
<path d="M2.46875,19.5625 L2.234375,19.3125 C3.3125,18.53125 4.75,17.109375 5.1875,15.953125 C6.890625,15.078125 7.734375,18.484375 2.46875,19.5625 Z M1.46875,14.609375 L1.25,14.40625 C2.40625,13.65625 3.859375,12.34375 4.375,11.234375 C6.09375,10.421875 6.796875,13.875 1.46875,14.609375 Z M11.1875,18.859375 C10.484375,16.53125 8.90625,13.65625 7.015625,11.71875 L7.265625,11.375 C9.59375,13.03125 11.609375,15.578125 12.546875,17.71875 C13.015625,17.640625 13.265625,17.71875 13.375,17.96875 Z M10.625,13.6875 L10.828125,12.984375 L13.921875,12.984375 C13.890625,11.71875 13.84375,10.515625 13.65625,9.359375 L7.6875,9.359375 L7.875,8.65625 L13.53125,8.65625 C12.984375,6 11.515625,3.71875 7.6875,1.875 L7.984375,1.46875 C11.828125,2.921875 13.734375,4.78125 14.6875,7.015625 C16.734375,5.640625 19.375,3.453125 20.375,1.78125 C22.4375,0.84375 22.9375,4.9375 14.828125,7.375 C15,7.796875 15.125,8.234375 15.21875,8.65625 L21.90625,8.65625 C22.25,8.65625 22.484375,8.78125 22.5625,9.03125 C21.75,9.765625 20.453125,10.78125 20.453125,10.78125 L19.3125,9.359375 L15.359375,9.359375 C15.546875,10.484375 15.640625,11.71875 15.703125,12.984375 L18.953125,12.984375 C19.296875,12.984375 19.515625,13.109375 19.578125,13.375 C18.8125,14.0625 17.609375,15.046875 17.609375,15.046875 L16.53125,13.6875 Z M5.78125,7.171875 C6.40625,7.25 6.765625,7.46875 6.9375,7.609375 L4.875,9.34375 L3.9375,8.109375 L0.90625,8.109375 L1.0625,7.390625 L4.265625,7.390625 L4.265625,1.96875 C3.046875,1.25 1.75,0.53125 0.90625,0.140625 L2.046875,-1.796875 C2.25,-1.6875 2.359375,-1.53125 2.296875,-1.21875 C3.171875,-0.453125 4.5625,0.9375 5.453125,1.96875 C7.171875,-0.703125 9.125,-1.25 13.53125,-1.25 C16.21875,-1.25 19.53125,-1.25 21.9375,-1.25 C22.03125,-0.53125 22.4375,-0.078125 23.15625,0.046875 L23.15625,0.390625 C20.203125,0.28125 16.34375,0.28125 13.484375,0.28125 C9.3125,0.28125 7.484375,0.578125 5.78125,2.453125 Z M13.65625,18.984375 L13.875,18.28125 L17.25,18.28125 C18.03125,15.59375 19.75,13.296875 22.078125,11.71875 C22.25,12.28125 22.828125,12.765625 23.40625,12.90625 L23.46875,13.203125 C20.875,14.296875 18.765625,16.25 17.90625,18.234375 C18.59375,18.265625 19.171875,18.40625 19.421875,18.703125 L17.453125,20.046875 L16.734375,18.984375 Z" transform="translate(-0.1875, 20.046875) scale(1, -1)"/>
</svg>