<svg height="21.375" viewBox="0 0 24 21.375" width="24" xmlns="http://www.w3.org/2000/svg">
<path d="M2.59375,19.515625 L2.359375,19.296875 C3.453125,18.484375 4.875,17.0625 5.328125,15.90625 C7.015625,15.03125 7.84375,18.4375 2.59375,19.515625 Z M1.5625,14.78125 L1.34375,14.5625 C2.5,13.84375 3.953125,12.5 4.46875,11.421875 C6.1875,10.578125 6.890625,14.046875 1.5625,14.78125 Z M18.75,14.296875 L18.75,11.28125 L11.40625,11.28125 L11.40625,14.296875 Z M18.75,15 L11.40625,15 L11.40625,17.921875 L18.75,17.921875 Z M7.515625,3.28125 L8.515625,1.265625 C8.734375,1.375 8.953125,1.5625 9.046875,1.84375 C12.71875,3.046875 15.4375,4.0625 17.359375,4.796875 L17.25,5.1875 L11.40625,3.984375 L11.40625,10.578125 L18.75,10.578125 L18.75,9.59375 L18.984375,9.59375 C19.484375,9.59375 20.25,10.015625 20.28125,10.15625 L20.28125,17.609375 C20.765625,17.71875 21.140625,17.90625 21.3125,18.09375 L19.375,19.578125 L18.5,18.59375 L11.515625,18.59375 L9.859375,19.421875 L9.859375,3.703125 Z M21.03125,10.5625 C20.1875,9.640625 18.75,8.15625 17.640625,7.15625 C16.515625,7.75 15.1875,8.359375 13.578125,8.921875 L13.3125,8.640625 C16.0625,7.015625 19.9375,4.0625 21.234375,1.734375 C22.96875,0.890625 23.421875,3.8125 18.140625,6.859375 C19.46875,7.5625 21.125,8.421875 22.0625,9 C22.53125,8.859375 22.78125,8.921875 22.890625,9.125 Z M5.859375,7.34375 C6.5,7.4375 6.859375,7.625 7.03125,7.796875 L4.96875,9.5 L4.03125,8.296875 L1.015625,8.296875 L1.15625,7.578125 L4.375,7.578125 L4.375,1.984375 C3.140625,1.265625 1.84375,0.53125 0.984375,0.140625 L2.140625,-1.796875 C2.359375,-1.6875 2.453125,-1.53125 2.40625,-1.25 C3.265625,-0.484375 4.65625,0.90625 5.546875,1.96875 C7.265625,-0.71875 9.21875,-1.25 13.625,-1.25 C16.3125,-1.25 19.625,-1.25 22.03125,-1.25 C22.125,-0.53125 22.53125,-0.078125 23.25,0.046875 L23.25,0.390625 C20.296875,0.28125 16.4375,0.28125 13.578125,0.28125 C9.40625,0.28125 7.5625,0.578125 5.859375,2.453125 Z" transform="translate(-0.203125, 19.578125) scale(1, -1)"/>
</svg>