<svg height="21.984375" viewBox="0 0 24 21.984375" width="24" xmlns="http://www.w3.org/2000/svg">
<path d="M10.125,20.0625 L9.84375,19.921875 C10.703125,18.9375 11.6875,17.296875 11.8125,16.015625 C13.375,14.765625 14.8125,18.09375 10.125,20.0625 Z M18.125,20.1875 C17.609375,18.640625 16.9375,16.984375 16.4375,15.984375 L16.796875,15.75 C17.71875,16.5625 18.765625,17.734375 19.625,18.84375 C20.109375,18.796875 20.40625,18.984375 20.515625,19.25 Z M2.65625,19.5625 L2.421875,19.3125 C3.53125,18.53125 4.9375,17.109375 5.40625,15.953125 C7.078125,15.078125 7.921875,18.484375 2.65625,19.5625 Z M1.6875,14.609375 L1.4375,14.40625 C2.59375,13.65625 4.0625,12.34375 4.5625,11.234375 C6.28125,10.421875 7.015625,13.875 1.6875,14.609375 Z M19.578125,13.484375 L19.578125,7.828125 L15.671875,7.828125 L15.703125,8.90625 L15.703125,15.03125 L22.390625,15.03125 C22.734375,15.03125 22.9375,15.140625 23.015625,15.390625 C22.21875,16.125 20.953125,17.109375 20.953125,17.109375 L19.796875,15.71875 L7.3125,15.71875 L7.515625,15.03125 L14.15625,15.03125 L14.15625,8.875 L14.140625,7.828125 L10.421875,7.828125 L10.421875,12.578125 C11.015625,12.671875 11.234375,12.890625 11.28125,13.21875 L8.875,13.484375 L8.875,5.5 L9.140625,5.5 C9.75,5.5 10.421875,5.8125 10.421875,6 L10.421875,7.125 L14.09375,7.125 C13.84375,4.6875 12.953125,2.65625 10.078125,1.125 L10.375,0.8125 C14.25,2.28125 15.359375,4.515625 15.625,7.125 L19.578125,7.125 L19.578125,5.765625 L19.84375,5.765625 C20.453125,5.765625 21.09375,6.09375 21.09375,6.265625 L21.09375,12.578125 C21.703125,12.671875 21.9375,12.890625 21.984375,13.25 Z M5.78125,7.171875 C6.40625,7.25 6.765625,7.46875 6.9375,7.609375 L4.875,9.34375 L3.9375,8.109375 L0.90625,8.109375 L1.0625,7.390625 L4.265625,7.390625 L4.265625,1.96875 C3.046875,1.25 1.75,0.53125 0.90625,0.140625 L2.046875,-1.796875 C2.25,-1.6875 2.359375,-1.53125 2.296875,-1.21875 C3.171875,-0.453125 4.5625,0.9375 5.453125,1.96875 C7.171875,-0.703125 9.125,-1.25 13.53125,-1.25 C16.21875,-1.25 19.53125,-1.25 21.9375,-1.25 C22.03125,-0.53125 22.4375,-0.078125 23.15625,0.046875 L23.15625,0.390625 C20.203125,0.28125 16.34375,0.28125 13.484375,0.28125 C9.3125,0.28125 7.484375,0.578125 5.78125,2.453125 Z" transform="translate(-0.03125, 20.1875) scale(1, -1)"/>
</svg>