<svg height="21.984375" viewBox="0 0 24 21.984375" width="24" xmlns="http://www.w3.org/2000/svg">
<path d="M1.890625,19.390625 L1.625,19.203125 C2.828125,18.140625 4.25,16.296875 4.5625,14.8125 C6.34375,13.484375 7.65625,17.453125 1.890625,19.390625 Z M5.765625,8.921875 C6.21875,9 6.53125,9.125 6.71875,9.234375 L6.890625,8.921875 C9.859375,10.15625 12.265625,11.859375 13.828125,14.09375 L13.828125,10.25 L14.0625,10.25 C14.859375,10.25 15.359375,10.578125 15.359375,10.65625 L15.359375,14.546875 L15.578125,14.546875 C16.96875,12.046875 19.265625,10.171875 21.75,9.09375 C21.90625,9.8125 22.390625,10.265625 22.984375,10.390625 L23.015625,10.65625 C20.546875,11.28125 17.8125,12.703125 16.203125,14.546875 L22.21875,14.546875 C22.5625,14.546875 22.796875,14.65625 22.875,14.921875 C22.0625,15.640625 20.78125,16.65625 20.78125,16.65625 L19.65625,15.234375 L15.359375,15.234375 L15.359375,17.875 C16.984375,18.09375 18.484375,18.34375 19.703125,18.578125 C20.25,18.34375 20.65625,18.359375 20.875,18.546875 L19.171875,20.15625 C16.625,19.25 11.765625,18.140625 7.828125,17.65625 L7.890625,17.234375 C9.8125,17.28125 11.875,17.453125 13.828125,17.6875 L13.828125,15.234375 L6.8125,15.234375 L7.015625,14.546875 L12.234375,14.546875 C11.015625,12.53125 9.125,10.75 6.84375,9.453125 L4.84375,11.109375 L3.9375,9.859375 L0.984375,9.859375 L1.125,9.171875 L4.25,9.171875 L4.25,1.984375 C3.03125,1.25 1.75,0.5 0.890625,0.125 L2.0625,-1.828125 C2.25,-1.703125 2.375,-1.53125 2.296875,-1.25 C3.171875,-0.484375 4.53125,0.953125 5.453125,2.015625 C7.15625,-0.71875 9.125,-1.265625 13.53125,-1.265625 C16.25,-1.265625 19.5625,-1.265625 21.984375,-1.265625 C22.0625,-0.546875 22.484375,-0.125 23.1875,0.03125 L23.1875,0.359375 C20.234375,0.265625 16.390625,0.265625 13.515625,0.265625 C9.34375,0.265625 7.46875,0.546875 5.765625,2.515625 Z M8.90625,9.625 L9.125,8.90625 L11.953125,8.90625 C11.5,5.765625 10.125,3.5 7.03125,1.78125 L7.203125,1.421875 C10.984375,2.875 12.890625,5.203125 13.609375,8.90625 L16.34375,8.90625 C16.109375,7.875 15.75,6.5 15.40625,5.421875 C16.109375,5.25 16.53125,5.296875 16.921875,5.453125 L17.15625,6.265625 L19.609375,6.265625 C19.390625,4.5625 19.03125,3.40625 18.625,3.125 C18.453125,3 18.234375,2.953125 17.859375,2.953125 C17.40625,2.953125 15.8125,3.078125 14.953125,3.140625 L14.921875,2.765625 C15.71875,2.640625 16.578125,2.421875 16.875,2.203125 C17.1875,1.96875 17.28125,1.578125 17.28125,1.203125 C18.140625,1.171875 18.9375,1.390625 19.46875,1.734375 C20.296875,2.328125 20.828125,3.84375 21.09375,6.125 C21.578125,6.171875 21.84375,6.265625 21.984375,6.4375 L20.28125,7.828125 L19.4375,6.984375 L17.375,6.984375 L17.828125,8.640625 C18.3125,8.71875 18.703125,8.828125 18.859375,9.03125 L17.046875,10.515625 L16.296875,9.625 Z" transform="translate(-0.0390625, 20.15625) scale(1, -1)"/>
</svg>