<svg height="21.90625" viewBox="0 0 24 21.90625" width="24" xmlns="http://www.w3.org/2000/svg">
<path d="M7.984375,17.65625 L7.6875,17.515625 C8.546875,16.296875 9.453125,14.375 9.53125,12.859375 C11.015625,11.46875 12.59375,14.921875 7.984375,17.65625 Z M17.328125,11.234375 L17.109375,10.984375 C18.453125,10.15625 20.234375,8.59375 20.859375,7.34375 C22.609375,6.4375 23.359375,9.984375 17.328125,11.234375 Z M15.546875,20.09375 L15.546875,3.953125 C15.546875,2.765625 15.9375,2.296875 17.5625,2.296875 L19.390625,2.296875 C22.296875,2.296875 23.0625,2.5625 23.0625,3.234375 C23.0625,3.546875 22.890625,3.71875 22.375,3.90625 L22.265625,6.234375 L21.984375,6.234375 C21.796875,5.296875 21.53125,4.203125 21.390625,3.953125 C21.28125,3.84375 21.171875,3.796875 20.96875,3.765625 C20.734375,3.75 20.140625,3.71875 19.4375,3.71875 L17.875,3.71875 C17.15625,3.71875 17.0625,3.90625 17.0625,4.375 L17.0625,19.203125 C17.59375,19.296875 17.8125,19.53125 17.859375,19.84375 Z M19.984375,17.765625 C19.421875,15.953125 18.578125,14.046875 17.90625,12.84375 L18.28125,12.625 C19.375,13.5625 20.515625,15 21.453125,16.390625 C21.9375,16.34375 22.25,16.53125 22.375,16.78125 Z M2.40625,19.5625 L2.15625,19.34375 C3.265625,18.53125 4.6875,17.109375 5.140625,15.953125 C6.8125,15.09375 7.65625,18.5 2.40625,19.5625 Z M1.46875,14.609375 L1.25,14.40625 C2.40625,13.65625 3.859375,12.34375 4.375,11.234375 C6.09375,10.421875 6.796875,13.875 1.46875,14.609375 Z M12,20.109375 L12,11.515625 L12,11.015625 C9.859375,9.859375 7.78125,8.78125 6.8125,8.328125 L8.234375,6.671875 C8.421875,6.796875 8.546875,7.03125 8.546875,7.3125 C9.984375,8.546875 11.140625,9.59375 11.96875,10.390625 C11.78125,6.890625 10.65625,4.0625 7.21875,1.984375 L7.484375,1.6875 C12.234375,3.890625 13.46875,7.3125 13.484375,11.515625 L13.484375,19.21875 C14.046875,19.296875 14.234375,19.53125 14.296875,19.875 Z M5.78125,7.171875 C6.40625,7.25 6.765625,7.46875 6.9375,7.609375 L4.875,9.34375 L3.9375,8.109375 L0.90625,8.109375 L1.0625,7.390625 L4.265625,7.390625 L4.265625,1.96875 C3.046875,1.25 1.75,0.53125 0.90625,0.140625 L2.046875,-1.796875 C2.25,-1.6875 2.359375,-1.53125 2.296875,-1.21875 C3.171875,-0.453125 4.5625,0.9375 5.453125,1.96875 C7.15625,-0.703125 9.09375,-1.25 13.515625,-1.25 C16.203125,-1.25 19.515625,-1.25 21.90625,-1.25 C21.984375,-0.53125 22.421875,-0.078125 23.109375,0.046875 L23.109375,0.390625 C20.1875,0.28125 16.3125,0.28125 13.484375,0.28125 C9.3125,0.28125 7.46875,0.578125 5.78125,2.453125 Z" transform="translate(-0.1328125, 20.109375) scale(1, -1)"/>
</svg>