<svg height="21.953125" viewBox="0 0 24 21.953125" width="24" xmlns="http://www.w3.org/2000/svg">
<path d="M2.609375,19.5625 L2.40625,19.3125 C3.5,18.53125 4.921875,17.109375 5.375,15.953125 C7.0625,15.078125 7.875,18.484375 2.609375,19.5625 Z M1.625,14.609375 L1.421875,14.40625 C2.5625,13.65625 4.015625,12.34375 4.53125,11.234375 C6.265625,10.421875 6.953125,13.875 1.625,14.609375 Z M19.171875,20.15625 C16.65625,19.25 11.78125,18.125 7.84375,17.59375 L7.9375,17.15625 C9.859375,17.234375 11.875,17.40625 13.828125,17.640625 L13.828125,15.546875 L6.9375,15.546875 L7.125,14.859375 L12.234375,14.859375 C10.921875,12.890625 8.90625,11.140625 6.53125,9.859375 L6.765625,9.453125 C9.703125,10.609375 12.171875,12.234375 13.828125,14.359375 L13.828125,10.4375 L14.0625,10.4375 C14.859375,10.4375 15.359375,10.78125 15.359375,10.875 L15.359375,14.859375 L15.5,14.859375 C16.890625,12.5 19.203125,10.734375 21.640625,9.765625 C21.84375,10.484375 22.3125,10.921875 22.9375,11.046875 L22.96875,11.296875 C20.5,11.875 17.78125,13.15625 16.171875,14.859375 L22.203125,14.859375 C22.53125,14.859375 22.78125,14.96875 22.828125,15.21875 C22.03125,15.9375 20.78125,16.921875 20.78125,16.921875 L19.625,15.546875 L15.359375,15.546875 L15.359375,17.828125 C16.96875,18.078125 18.453125,18.3125 19.6875,18.578125 C20.234375,18.34375 20.640625,18.34375 20.859375,18.546875 Z M8.953125,9.796875 L9.171875,9.09375 L12.046875,9.09375 C11.5625,5.953125 10.21875,3.625 7.203125,1.84375 L7.375,1.484375 C11.09375,3.03125 13.015625,5.40625 13.734375,9.09375 L16.203125,9.09375 C15.953125,8.046875 15.59375,6.625 15.265625,5.546875 C15.953125,5.375 16.421875,5.40625 16.796875,5.5625 L17.0625,6.453125 L19.53125,6.453125 C19.296875,4.703125 18.90625,3.578125 18.53125,3.28125 C18.34375,3.140625 18.140625,3.09375 17.765625,3.09375 C17.296875,3.09375 15.796875,3.234375 14.953125,3.28125 L14.921875,2.90625 C15.71875,2.78125 16.515625,2.59375 16.796875,2.375 C17.109375,2.140625 17.203125,1.734375 17.203125,1.34375 C18.046875,1.3125 18.84375,1.53125 19.375,1.875 C20.203125,2.5 20.765625,3.984375 21,6.28125 C21.484375,6.359375 21.75,6.453125 21.90625,6.625 L20.1875,8.015625 L19.375,7.171875 L17.25,7.171875 L17.71875,8.828125 C18.1875,8.859375 18.578125,9 18.75,9.1875 L16.890625,10.65625 L16.15625,9.796875 Z M5.78125,7.171875 C6.40625,7.25 6.765625,7.46875 6.9375,7.609375 L4.875,9.34375 L3.9375,8.109375 L0.90625,8.109375 L1.0625,7.390625 L4.265625,7.390625 L4.265625,1.96875 C3.046875,1.25 1.75,0.53125 0.90625,0.140625 L2.046875,-1.796875 C2.25,-1.6875 2.359375,-1.53125 2.296875,-1.21875 C3.171875,-0.453125 4.5625,0.9375 5.453125,1.96875 C7.171875,-0.703125 9.125,-1.25 13.53125,-1.25 C16.21875,-1.25 19.53125,-1.25 21.9375,-1.25 C22.03125,-0.53125 22.4375,-0.078125 23.15625,0.046875 L23.15625,0.390625 C20.203125,0.28125 16.34375,0.28125 13.484375,0.28125 C9.3125,0.28125 7.484375,0.578125 5.78125,2.453125 Z" transform="translate(-0.03125, 20.15625) scale(1, -1)"/>
</svg>