<svg height="21.859375" viewBox="0 0 24 21.859375" width="24" xmlns="http://www.w3.org/2000/svg">
<path d="M2.421875,19.53125 L2.1875,19.3125 C3.265625,18.5 4.6875,17.09375 5.140625,15.953125 C6.8125,15.078125 7.65625,18.453125 2.421875,19.53125 Z M1.421875,14.59375 L1.203125,14.375 C2.359375,13.65625 3.796875,12.34375 4.296875,11.234375 C6,10.421875 6.71875,13.84375 1.421875,14.59375 Z M20.734375,20.0625 C19.796875,19.46875 18.03125,18.640625 16.390625,18.046875 L14.609375,18.625 L14.609375,12.140625 C14.609375,8.46875 14.328125,4.703125 11.90625,1.6875 L12.234375,1.375 C15.796875,4.3125 16.078125,8.6875 16.078125,12.140625 L16.078125,12.21875 L18.796875,12.21875 L18.796875,1.3125 L19.03125,1.3125 C19.796875,1.3125 20.28125,1.6875 20.28125,1.78125 L20.28125,12.21875 L22.5625,12.21875 C22.890625,12.21875 23.109375,12.34375 23.15625,12.59375 C22.4375,13.3125 21.234375,14.25 21.234375,14.25 L20.1875,12.90625 L16.078125,12.90625 L16.078125,17.375 C18,17.609375 20.0625,18.09375 21.4375,18.484375 C21.9375,18.28125 22.375,18.28125 22.578125,18.5 Z M6.5,9 L7.578125,7.25 C7.796875,7.3125 7.96875,7.53125 8.046875,7.828125 L9.640625,8.609375 L9.640625,3.625 C9.640625,3.28125 9.546875,3.1875 9.1875,3.1875 C8.8125,3.1875 7.0625,3.34375 7.0625,3.34375 L7.0625,2.953125 C7.84375,2.859375 8.328125,2.65625 8.59375,2.453125 C8.859375,2.1875 8.921875,1.796875 8.96875,1.34375 C10.890625,1.5625 11.109375,2.28125 11.109375,3.5 L11.109375,9.390625 L14.109375,10.984375 L13.984375,11.328125 L11.109375,10.390625 L11.109375,14.46875 L13.609375,14.46875 C13.921875,14.46875 14.140625,14.59375 14.1875,14.859375 C13.625,15.5 12.625,16.390625 12.625,16.390625 L11.78125,15.140625 L11.109375,15.140625 L11.109375,19.171875 C11.6875,19.25 11.921875,19.46875 12,19.828125 L9.640625,20.0625 L9.640625,15.140625 L6.578125,15.140625 L6.765625,14.46875 L9.640625,14.46875 L9.640625,9.9375 C8.296875,9.5 7.171875,9.171875 6.5,9 Z M5.6875,7.171875 C6.34375,7.25 6.703125,7.4375 6.84375,7.609375 L4.796875,9.3125 L3.859375,8.09375 L0.90625,8.09375 L1.0625,7.390625 L4.203125,7.390625 L4.203125,1.9375 C3,1.21875 1.734375,0.5 0.90625,0.125 L2.046875,-1.796875 C2.234375,-1.703125 2.328125,-1.53125 2.28125,-1.25 C3.140625,-0.484375 4.484375,0.90625 5.375,1.9375 C7.109375,-0.71875 9.046875,-1.265625 13.484375,-1.265625 C16.203125,-1.265625 19.53125,-1.265625 21.953125,-1.265625 C22.03125,-0.546875 22.46875,-0.125 23.15625,0 L23.15625,0.359375 C20.203125,0.265625 16.3125,0.265625 13.46875,0.265625 C9.265625,0.265625 7.421875,0.53125 5.6875,2.421875 Z" transform="translate(-0.03125, 20.0625) scale(1, -1)"/>
</svg>