<svg height="22" viewBox="0 0 24 22" width="24" xmlns="http://www.w3.org/2000/svg">
<path d="M15.171875,18.9375 C16.609375,16.15625 19.15625,13.84375 22.125,12.3125 C22.265625,12.90625 22.65625,13.515625 23.25,13.703125 L23.296875,14.046875 C20.109375,15.03125 17.25,16.96875 15.5,19.171875 C16.109375,19.25 16.34375,19.375 16.390625,19.625 L13.96875,20.203125 C12.765625,17.5 9.765625,14.15625 6.671875,12.265625 L6.8125,11.953125 C10.34375,13.53125 13.5625,16.390625 15.171875,18.9375 Z M10.46875,8.359375 C9.859375,6.703125 8.46875,4.375 6.90625,2.90625 L7.171875,2.609375 C9.125,3.765625 10.796875,5.640625 11.734375,7.109375 C12.265625,7.03125 12.453125,7.125 12.59375,7.34375 Z M17.5,8.140625 L17.234375,7.921875 C18.59375,6.71875 20.359375,4.65625 20.8125,3.046875 C22.53125,1.875 23.609375,5.6875 17.5,8.140625 Z M2.5,19.53125 L2.25,19.3125 C3.359375,18.5 4.78125,17.09375 5.234375,15.9375 C6.90625,15.046875 7.75,18.453125 2.5,19.53125 Z M1.4375,14.59375 L1.21875,14.375 C2.375,13.65625 3.8125,12.34375 4.3125,11.25 C6.03125,10.421875 6.75,13.84375 1.4375,14.59375 Z M10.296875,13.390625 L10.46875,12.671875 L14.046875,12.671875 L14.046875,9.953125 L7.578125,9.953125 L7.78125,9.265625 L14.046875,9.265625 L14.046875,3.5 C14.046875,3.171875 13.9375,3.046875 13.5625,3.046875 C13.125,3.046875 11.109375,3.21875 11.109375,3.21875 L11.109375,2.859375 C12.046875,2.734375 12.578125,2.5625 12.859375,2.296875 C13.15625,2.0625 13.25,1.65625 13.265625,1.21875 C15.34375,1.4375 15.578125,2.25 15.578125,3.453125 L15.578125,9.265625 L22.0625,9.265625 C22.390625,9.265625 22.625,9.390625 22.703125,9.640625 C21.9375,10.34375 20.71875,11.28125 20.71875,11.28125 L19.65625,9.953125 L15.578125,9.953125 L15.578125,12.671875 L18.765625,12.671875 C19.109375,12.671875 19.3125,12.796875 19.390625,13.0625 C18.703125,13.6875 17.640625,14.46875 17.640625,14.46875 L16.703125,13.390625 Z M5.734375,7.171875 C6.359375,7.25 6.71875,7.46875 6.890625,7.609375 L4.828125,9.34375 L3.90625,8.109375 L0.953125,8.109375 L1.109375,7.390625 L4.25,7.390625 L4.25,1.96875 C3.03125,1.25 1.734375,0.5 0.90625,0.125 L2.046875,-1.796875 C2.25,-1.6875 2.359375,-1.53125 2.296875,-1.21875 C3.140625,-0.453125 4.515625,0.9375 5.40625,1.96875 C7.125,-0.71875 9.09375,-1.25 13.515625,-1.25 C16.21875,-1.25 19.5625,-1.25 21.984375,-1.25 C22.078125,-0.53125 22.484375,-0.09375 23.1875,0.03125 L23.1875,0.359375 C20.234375,0.265625 16.375,0.265625 13.484375,0.265625 C9.28125,0.265625 7.4375,0.546875 5.734375,2.453125 Z" transform="translate(-0.2578125, 20.203125) scale(1, -1)"/>
</svg>