<svg height="21.734375" viewBox="0 0 24 21.734375" width="24" xmlns="http://www.w3.org/2000/svg">
<path d="M9.640625,10.34375 L9.84375,9.625 L20.453125,9.625 C20.78125,9.625 21.03125,9.75 21.078125,10.015625 C20.359375,10.6875 19.15625,11.609375 19.15625,11.609375 L18.125,10.34375 Z M9.640625,13.109375 L9.84375,12.390625 L20.453125,12.390625 C20.78125,12.390625 21.03125,12.5 21.078125,12.765625 C20.359375,13.46875 19.15625,14.375 19.15625,14.375 L18.125,13.109375 Z M7.609375,15.859375 L7.796875,15.140625 L22.375,15.140625 C22.703125,15.140625 22.9375,15.265625 23.015625,15.53125 C22.21875,16.265625 20.96875,17.234375 20.96875,17.234375 L19.875,15.859375 Z M2.46875,19.5625 L2.234375,19.3125 C3.34375,18.5 4.78125,17.0625 5.25,15.890625 C6.9375,15 7.796875,18.4375 2.46875,19.5625 Z M1.46875,14.609375 L1.25,14.40625 C2.40625,13.65625 3.859375,12.34375 4.375,11.234375 C6.09375,10.421875 6.796875,13.875 1.46875,14.609375 Z M9.53125,18.59375 L9.71875,17.921875 L20.515625,17.921875 C20.859375,17.921875 21.09375,18.046875 21.171875,18.28125 C20.375,18.984375 19.171875,19.921875 19.171875,19.9375 L18.078125,18.59375 Z M9.859375,7.515625 L9.859375,1.25 L10.109375,1.25 C10.734375,1.25 11.40625,1.609375 11.40625,1.75 L11.40625,2.78125 L18.8125,2.78125 L18.8125,1.4375 L19.0625,1.4375 C19.5625,1.4375 20.328125,1.78125 20.359375,1.921875 L20.359375,6.53125 C20.8125,6.625 21.21875,6.8125 21.390625,7.015625 L19.4375,8.5 L18.578125,7.515625 L11.515625,7.515625 L9.859375,8.28125 Z M18.8125,3.484375 L11.40625,3.484375 L11.40625,6.84375 L18.8125,6.84375 Z M5.78125,7.171875 C6.4375,7.25 6.796875,7.46875 6.953125,7.609375 L4.875,9.34375 L3.953125,8.109375 L0.9375,8.109375 L1.078125,7.390625 L4.296875,7.390625 L4.296875,1.984375 C3.078125,1.265625 1.75,0.53125 0.90625,0.140625 L2.0625,-1.796875 C2.28125,-1.6875 2.359375,-1.53125 2.328125,-1.25 C3.1875,-0.453125 4.5625,0.9375 5.46875,1.96875 C7.171875,-0.71875 9.125,-1.25 13.5625,-1.25 C16.21875,-1.25 19.5625,-1.25 21.953125,-1.25 C22.0625,-0.53125 22.46875,-0.078125 23.1875,0.046875 L23.1875,0.390625 C20.234375,0.28125 16.375,0.28125 13.515625,0.28125 C9.34375,0.28125 7.484375,0.578125 5.78125,2.453125 Z" transform="translate(-0.046875, 19.9375) scale(1, -1)"/>
</svg>