<svg height="21.734375" viewBox="0 0 24 21.734375" width="24" xmlns="http://www.w3.org/2000/svg">
<path d="M2.734375,19.5625 L2.5,19.34375 C3.578125,18.546875 4.84375,17.140625 5.203125,15.984375 C6.8125,15.046875 7.734375,18.453125 2.734375,19.5625 Z M1.78125,14.65625 L1.53125,14.453125 C2.65625,13.703125 4.03125,12.3125 4.421875,11.15625 C6.09375,10.265625 6.890625,13.734375 1.78125,14.65625 Z M10.25,10.03125 L14.203125,10.03125 L14.203125,7.125 L10.25,7.125 Z M10.25,10.734375 L10.25,13.5625 L14.203125,13.5625 L14.203125,10.734375 Z M11.203125,17.359375 L11.0625,16.9375 C13.34375,16.21875 14.875,15.265625 15.765625,14.375 L16.015625,14.234375 L10.375,14.234375 L8.734375,15.03125 L8.734375,1.53125 L8.953125,1.53125 C9.625,1.53125 10.25,1.921875 10.25,2.09375 L10.25,6.40625 L14.203125,6.40625 L14.203125,1.734375 L14.453125,1.734375 C15.21875,1.734375 15.703125,2.09375 15.703125,2.1875 L15.703125,6.40625 L19.796875,6.40625 L19.796875,3.8125 C19.796875,3.484375 19.703125,3.359375 19.34375,3.359375 C18.90625,3.359375 17.1875,3.5 17.1875,3.5 L17.1875,3.125 C18.03125,3.03125 18.484375,2.828125 18.75,2.609375 C19.015625,2.375 19.109375,1.984375 19.15625,1.53125 C21.125,1.75 21.328125,2.46875 21.328125,3.671875 L21.328125,13.25 C21.8125,13.3125 22.21875,13.53125 22.375,13.703125 L20.359375,15.234375 L19.578125,14.234375 L16.921875,14.234375 C17.421875,14.515625 17.5,15.3125 16.171875,16.0625 C17.78125,16.5625 19.78125,17.359375 20.859375,18.03125 C21.390625,18.046875 21.671875,18.09375 21.859375,18.234375 L20.09375,19.9375 L19.0625,18.953125 L8.328125,18.953125 L8.546875,18.265625 L18.53125,18.265625 C17.6875,17.609375 16.53125,16.875 15.625,16.3125 C14.65625,16.734375 13.25,17.109375 11.203125,17.359375 Z M15.703125,13.5625 L19.796875,13.5625 L19.796875,10.734375 L15.703125,10.734375 Z M15.703125,10.03125 L19.796875,10.03125 L19.796875,7.125 L15.703125,7.125 Z M5.421875,7.171875 C6.078125,7.25 6.4375,7.4375 6.59375,7.609375 L4.515625,9.34375 L3.59375,8.109375 L0.953125,8.109375 L1.109375,7.390625 L3.953125,7.390625 L3.953125,1.890625 C2.859375,1.171875 1.6875,0.5 0.90625,0.125 L2.046875,-1.796875 C2.25,-1.65625 2.359375,-1.515625 2.296875,-1.21875 C3.078125,-0.453125 4.34375,0.90625 5.140625,1.9375 C6.890625,-0.703125 8.859375,-1.265625 13.34375,-1.265625 C16.109375,-1.265625 19.515625,-1.265625 21.953125,-1.265625 C22.0625,-0.53125 22.484375,-0.09375 23.1875,0.03125 L23.1875,0.390625 C20.1875,0.28125 16.21875,0.28125 13.3125,0.28125 C9.078125,0.28125 7.171875,0.546875 5.421875,2.421875 Z" transform="translate(-0.046875, 19.9375) scale(1, -1)"/>
</svg>