<svg height="21.375" viewBox="0 0 24 21.375" width="24" xmlns="http://www.w3.org/2000/svg">
<path d="M2.421875,19.53125 L2.1875,19.3125 C3.265625,18.5 4.6875,17.09375 5.140625,15.953125 C6.8125,15.078125 7.65625,18.453125 2.421875,19.53125 Z M1.421875,14.59375 L1.203125,14.375 C2.359375,13.65625 3.796875,12.34375 4.296875,11.234375 C6,10.421875 6.71875,13.84375 1.421875,14.59375 Z M20.296875,16.015625 C19.53125,14.71875 18,12.71875 16.65625,11.28125 C15.984375,12.625 15.03125,13.921875 13.6875,15.03125 C14.65625,15.765625 15.53125,16.5625 16.265625,17.421875 L22.390625,17.421875 C22.734375,17.421875 22.96875,17.546875 23.046875,17.8125 C22.203125,18.546875 20.90625,19.578125 20.90625,19.578125 L19.734375,18.140625 L6.953125,18.140625 L7.15625,17.421875 L14.046875,17.421875 C12.390625,15.4375 9.953125,13.515625 7.25,12.21875 L7.46875,11.859375 C9.578125,12.59375 11.5625,13.5625 13.265625,14.734375 C13.625,14.359375 13.9375,13.921875 14.234375,13.484375 C12.640625,11.46875 9.890625,9.390625 7.390625,8.203125 L7.609375,7.828125 C10.21875,8.8125 13.15625,10.4375 15.046875,12.078125 C15.3125,11.515625 15.53125,10.96875 15.703125,10.421875 C13.734375,7.734375 10.265625,5.140625 7.078125,3.640625 L7.25,3.265625 C10.484375,4.421875 13.84375,6.390625 16.125,8.453125 C16.421875,6.1875 15.953125,4.21875 15.046875,3.390625 C14.90625,3.171875 14.65625,3.140625 14.296875,3.140625 C13.6875,3.140625 11.765625,3.265625 10.75,3.359375 L10.75,3 C11.65625,2.8125 12.625,2.5625 12.9375,2.359375 C13.25,2.140625 13.421875,1.796875 13.421875,1.3125 C14.8125,1.3125 15.640625,1.5625 16.203125,2.109375 C17.6875,3.40625 18.28125,6.578125 17.234375,9.8125 C18.9375,8.1875 20.8125,5.953125 21.484375,4.25 C23.453125,3.03125 24.328125,7.203125 16.890625,10.703125 L16.84375,10.828125 C18.578125,11.921875 20.453125,13.46875 21.546875,14.546875 C22.078125,14.375 22.296875,14.5 22.4375,14.734375 Z M5.6875,7.171875 C6.34375,7.25 6.703125,7.4375 6.84375,7.609375 L4.796875,9.3125 L3.859375,8.09375 L0.90625,8.09375 L1.0625,7.390625 L4.203125,7.390625 L4.203125,1.9375 C3,1.21875 1.734375,0.5 0.90625,0.125 L2.046875,-1.796875 C2.234375,-1.703125 2.328125,-1.53125 2.28125,-1.25 C3.140625,-0.484375 4.484375,0.90625 5.375,1.9375 C7.109375,-0.71875 9.046875,-1.265625 13.484375,-1.265625 C16.203125,-1.265625 19.53125,-1.265625 21.953125,-1.265625 C22.03125,-0.546875 22.46875,-0.125 23.15625,0 L23.15625,0.359375 C20.203125,0.265625 16.3125,0.265625 13.46875,0.265625 C9.265625,0.265625 7.421875,0.53125 5.6875,2.421875 Z" transform="translate(-0.6171875, 19.578125) scale(1, -1)"/>
</svg>