<svg height="21.984375" viewBox="0 0 24 21.984375" width="24" xmlns="http://www.w3.org/2000/svg">
<path d="M10.421875,8.0625 C9.796875,6.453125 8.40625,4.21875 6.859375,2.8125 L7.125,2.515625 C9.03125,3.625 10.703125,5.40625 11.65625,6.8125 C12.21875,6.75 12.40625,6.84375 12.53125,7.078125 Z M17.515625,7.828125 L17.25,7.625 C18.59375,6.453125 20.328125,4.390625 20.78125,2.8125 C22.515625,1.65625 23.515625,5.421875 17.515625,7.828125 Z M2.25,19.390625 L1.984375,19.203125 C3.234375,18.125 4.65625,16.265625 4.96875,14.734375 C6.796875,13.4375 8.0625,17.421875 2.25,19.390625 Z M15.3125,18.9375 C16.578125,16.203125 19.171875,13.625 22.0625,12.140625 C22.171875,12.75 22.6875,13.296875 23.328125,13.46875 L23.375,13.78125 C20.40625,14.875 17.28125,16.9375 15.703125,19.203125 C16.25,19.25 16.515625,19.375 16.578125,19.609375 L13.921875,20.1875 C12.984375,17.5625 9.5,13.9375 6.5,12.1875 L6.671875,11.875 C10.125,13.390625 13.6875,16.21875 15.3125,18.9375 Z M10.25,13.484375 L10.4375,12.765625 L14.046875,12.765625 L14.046875,9.703125 L7.5625,9.703125 L7.75,9 L14.046875,9 L14.046875,3.40625 C14.046875,3.09375 13.9375,2.96875 13.5625,2.96875 C13.125,2.96875 11.046875,3.140625 11.046875,3.140625 L11.046875,2.78125 C12,2.65625 12.53125,2.5 12.84375,2.234375 C13.125,2.015625 13.21875,1.578125 13.265625,1.15625 C15.3125,1.375 15.578125,2.203125 15.578125,3.390625 L15.578125,9 L21.859375,9 C22.203125,9 22.4375,9.09375 22.515625,9.359375 C21.75,10.078125 20.515625,11.015625 20.515625,11.015625 L19.484375,9.703125 L15.578125,9.703125 L15.578125,12.765625 L18.75,12.765625 C19.078125,12.765625 19.296875,12.890625 19.34375,13.15625 C18.671875,13.78125 17.640625,14.5625 17.640625,14.5625 L16.734375,13.484375 Z M5.78125,8.921875 C6.4375,9.03125 6.796875,9.21875 6.9375,9.390625 L4.875,11.109375 L3.9375,9.890625 L1.015625,9.890625 L1.15625,9.171875 L4.265625,9.171875 L4.265625,2.015625 C3.03125,1.265625 1.734375,0.53125 0.890625,0.140625 L2.046875,-1.796875 C2.25,-1.6875 2.359375,-1.53125 2.296875,-1.25 C3.171875,-0.484375 4.5625,0.953125 5.46875,2.015625 C7.171875,-0.71875 9.140625,-1.265625 13.578125,-1.265625 C16.265625,-1.265625 19.578125,-1.265625 22.015625,-1.265625 C22.078125,-0.53125 22.515625,-0.09375 23.203125,0.046875 L23.203125,0.390625 C20.25,0.28125 16.421875,0.28125 13.53125,0.28125 C9.34375,0.28125 7.484375,0.578125 5.78125,2.515625 Z" transform="translate(-0.203125, 20.1875) scale(1, -1)"/>
</svg>