<svg height="21.90625" viewBox="0 0 24 21.90625" width="24" xmlns="http://www.w3.org/2000/svg">
<path d="M1.734375,19.390625 L1.46875,19.203125 C2.65625,18.140625 4.078125,16.296875 4.390625,14.8125 C6.171875,13.484375 7.484375,17.453125 1.734375,19.390625 Z M20.234375,20.109375 C17.921875,19.34375 13.75,18.4375 10.109375,17.921875 L8.28125,18.578125 L8.28125,12.9375 C8.28125,9.484375 8.1875,5.65625 6.359375,2.546875 L6.71875,2.234375 C9.28125,4.96875 9.71875,8.6875 9.796875,11.734375 L15.03125,11.734375 L15.03125,9.484375 L11.921875,9.484375 L10.34375,10.203125 L10.34375,2.234375 L10.5625,2.234375 C11.1875,2.234375 11.8125,2.59375 11.8125,2.71875 L11.8125,8.78125 L15.03125,8.78125 L15.03125,1.125 L15.265625,1.125 C16.03125,1.125 16.53125,1.53125 16.53125,1.6875 L16.53125,8.78125 L19.96875,8.78125 L19.96875,4.375 C19.96875,4.078125 19.890625,3.953125 19.578125,3.953125 C19.203125,3.953125 17.875,4.0625 17.875,4.0625 L17.875,3.703125 C18.546875,3.59375 18.9375,3.4375 19.171875,3.234375 C19.375,3.03125 19.4375,2.65625 19.484375,2.28125 C21.234375,2.453125 21.453125,3.09375 21.453125,4.25 L21.453125,8.5 C21.9375,8.5625 22.34375,8.78125 22.484375,8.921875 L20.5,10.390625 L19.734375,9.484375 L16.53125,9.484375 L16.53125,11.734375 L22.53125,11.734375 C22.875,11.734375 23.09375,11.859375 23.15625,12.09375 C22.390625,12.8125 21.171875,13.75 21.171875,13.75 L20.046875,12.4375 L16.53125,12.4375 L16.53125,14.59375 L22.109375,14.59375 C22.46875,14.59375 22.6875,14.71875 22.75,14.96875 C21.984375,15.640625 20.78125,16.609375 20.78125,16.609375 L19.703125,15.28125 L16.53125,15.28125 L16.53125,17.875 C18.09375,18.078125 19.5625,18.265625 20.765625,18.484375 C21.3125,18.21875 21.75,18.21875 21.984375,18.4375 Z M5.734375,8.921875 C6.390625,9.03125 6.75,9.21875 6.890625,9.390625 L4.84375,11.109375 L3.90625,9.859375 L0.984375,9.859375 L1.125,9.171875 L4.21875,9.171875 L4.21875,1.96875 C3,1.21875 1.734375,0.5 0.890625,0.125 L2.046875,-1.796875 C2.25,-1.703125 2.359375,-1.53125 2.296875,-1.25 C3.171875,-0.484375 4.53125,0.953125 5.421875,2.015625 C7.125,-0.71875 9.09375,-1.265625 13.515625,-1.265625 C16.203125,-1.265625 19.53125,-1.265625 21.9375,-1.265625 C22.03125,-0.546875 22.4375,-0.125 23.140625,0.03125 L23.140625,0.359375 C20.203125,0.265625 16.34375,0.265625 13.484375,0.265625 C9.3125,0.265625 7.46875,0.546875 5.734375,2.515625 Z M9.796875,17.375 C11.515625,17.421875 13.296875,17.5625 15.03125,17.734375 L15.03125,15.28125 L9.796875,15.28125 Z M9.796875,14.59375 L15.03125,14.59375 L15.03125,12.4375 L9.796875,12.4375 L9.796875,12.9375 Z" transform="translate(-0.0234375, 20.109375) scale(1, -1)"/>
</svg>