<svg height="22.046875" viewBox="0 0 24 22.046875" width="24" xmlns="http://www.w3.org/2000/svg">
<path d="M2.109375,19.375 L1.875,19.171875 C3.09375,18.125 4.609375,16.265625 5.015625,14.828125 C6.84375,13.609375 8.046875,17.46875 2.109375,19.375 Z M14.140625,20.203125 L14.140625,16.984375 L7.578125,16.984375 L7.78125,16.3125 L14.140625,16.3125 L14.140625,13.9375 L10.515625,13.9375 L8.859375,14.6875 L8.859375,7.828125 L9.078125,7.828125 C9.71875,7.828125 10.390625,8.15625 10.390625,8.296875 L10.390625,9.09375 L13.109375,9.09375 C11.71875,6.71875 9.53125,4.484375 6.90625,2.921875 L7.171875,2.546875 C10.015625,3.84375 12.4375,5.5625 14.140625,7.734375 L14.140625,0.984375 L14.453125,0.984375 C15.03125,0.984375 15.671875,1.34375 15.671875,1.5625 L15.671875,7.375 C17.515625,6.28125 20.046875,4.4375 21.03125,3 C22.96875,2.234375 23.25,6 15.671875,7.828125 L15.671875,9.09375 L19.53125,9.09375 L19.53125,8.0625 L19.75,8.0625 C20.28125,8.0625 21.046875,8.421875 21.078125,8.5625 L21.078125,12.9375 C21.53125,13.03125 21.90625,13.25 22.078125,13.4375 L20.15625,14.90625 L19.296875,13.9375 L15.671875,13.9375 L15.671875,16.3125 L22.15625,16.3125 C22.484375,16.3125 22.75,16.4375 22.796875,16.703125 C21.984375,17.421875 20.6875,18.4375 20.6875,18.4375 L19.515625,16.984375 L15.671875,16.984375 L15.671875,19.265625 C16.296875,19.375 16.484375,19.578125 16.5625,19.921875 Z M19.53125,9.8125 L15.671875,9.8125 L15.671875,13.25 L19.53125,13.25 Z M10.390625,9.8125 L10.390625,13.25 L14.140625,13.25 L14.140625,9.8125 Z M6.125,8.921875 C6.765625,9.03125 7.125,9.21875 7.296875,9.390625 L5.203125,11.09375 L4.296875,9.890625 L0.953125,9.890625 L1.109375,9.171875 L4.625,9.171875 L4.625,2.09375 C3.265625,1.3125 1.828125,0.578125 0.890625,0.171875 L2.015625,-1.84375 C2.234375,-1.734375 2.359375,-1.578125 2.28125,-1.265625 C3.234375,-0.484375 4.796875,0.953125 5.78125,2.046875 C7.46875,-0.71875 9.40625,-1.265625 13.75,-1.265625 C16.421875,-1.265625 19.6875,-1.265625 22.03125,-1.265625 C22.125,-0.53125 22.53125,-0.09375 23.203125,0.046875 L23.203125,0.390625 C20.359375,0.28125 16.5625,0.28125 13.75,0.28125 C9.59375,0.28125 7.78125,0.578125 6.125,2.5 Z" transform="translate(-0.0703125, 20.203125) scale(1, -1)"/>
</svg>