<svg height="21.78125" viewBox="0 0 24 21.78125" width="24" xmlns="http://www.w3.org/2000/svg">
<path d="M9.640625,10.375 L9.84375,9.640625 L20.46875,9.640625 C20.8125,9.640625 21.046875,9.765625 21.09375,10.03125 C20.359375,10.703125 19.171875,11.640625 19.171875,11.640625 L18.140625,10.375 Z M9.640625,13.125 L9.84375,12.40625 L20.46875,12.40625 C20.8125,12.40625 21.046875,12.53125 21.09375,12.796875 C20.359375,13.484375 19.171875,14.40625 19.171875,14.40625 L18.140625,13.125 Z M9.453125,18.59375 L9.640625,17.90625 L20.546875,17.90625 C20.875,17.90625 21.125,18.03125 21.171875,18.28125 C20.40625,18.984375 19.171875,19.9375 19.171875,19.9375 L18.09375,18.59375 Z M7.609375,15.890625 L7.796875,15.171875 L22.390625,15.171875 C22.734375,15.171875 22.96875,15.28125 23.046875,15.546875 C22.25,16.296875 20.96875,17.25 20.96875,17.25 L19.84375,15.890625 Z M1.78125,19.375 L1.53125,19.171875 C2.765625,18.125 4.265625,16.265625 4.6875,14.828125 C6.5,13.609375 7.703125,17.46875 1.78125,19.375 Z M9.671875,7.53125 L9.671875,1.25 L9.90625,1.25 C10.53125,1.25 11.203125,1.609375 11.203125,1.75 L11.203125,2.46875 L18.984375,2.46875 L18.984375,1.390625 L19.21875,1.390625 C19.734375,1.390625 20.5,1.734375 20.515625,1.890625 L20.515625,6.546875 C21,6.640625 21.40625,6.84375 21.546875,7.03125 L19.609375,8.515625 L18.75,7.53125 L11.328125,7.53125 L9.671875,8.296875 Z M18.984375,3.171875 L11.203125,3.171875 L11.203125,6.859375 L18.984375,6.859375 Z M6.125,8.921875 C6.765625,9.03125 7.125,9.21875 7.296875,9.390625 L5.203125,11.09375 L4.296875,9.890625 L0.953125,9.890625 L1.109375,9.171875 L4.625,9.171875 L4.625,2.09375 C3.265625,1.3125 1.828125,0.578125 0.890625,0.171875 L2.015625,-1.84375 C2.234375,-1.734375 2.359375,-1.578125 2.28125,-1.265625 C3.234375,-0.484375 4.796875,0.953125 5.78125,2.046875 C7.46875,-0.71875 9.390625,-1.265625 13.734375,-1.265625 C16.390625,-1.265625 19.625,-1.265625 21.953125,-1.265625 C22.0625,-0.53125 22.46875,-0.078125 23.15625,0.046875 L23.15625,0.390625 C20.28125,0.28125 16.515625,0.28125 13.734375,0.28125 C9.59375,0.28125 7.78125,0.578125 6.125,2.5 Z" transform="translate(-0.0234375, 19.9375) scale(1, -1)"/>
</svg>