<svg height="22.046875" viewBox="0 0 24 22.046875" width="24" xmlns="http://www.w3.org/2000/svg">
<path d="M1.65625,19.390625 L1.390625,19.203125 C2.59375,18.140625 4.015625,16.296875 4.3125,14.8125 C6.09375,13.484375 7.421875,17.453125 1.65625,19.390625 Z M11.609375,16.875 L17.828125,16.875 C17.0625,15.859375 16.0625,14.921875 14.875,14.109375 C13.484375,14.8125 12.3125,15.671875 11.453125,16.703125 Z M12.265625,20.25 C11.09375,17.875 8.765625,15.21875 6.40625,13.703125 L6.640625,13.390625 C8.234375,14.109375 9.765625,15.1875 11.0625,16.375 C11.8125,15.234375 12.765625,14.296875 13.890625,13.484375 C11.765625,12.1875 9.1875,11.203125 6.40625,10.515625 L6.59375,10.125 C9.765625,10.65625 12.59375,11.546875 14.953125,12.8125 C16.921875,11.640625 19.296875,10.828125 21.890625,10.296875 C22.0625,10.984375 22.515625,11.453125 23.109375,11.59375 L23.140625,11.859375 C20.65625,12.140625 18.234375,12.671875 16.171875,13.53125 C17.5625,14.421875 18.765625,15.484375 19.734375,16.6875 C20.328125,16.703125 20.59375,16.78125 20.78125,16.96875 L19.125,18.5 L18.046875,17.5625 L12.3125,17.5625 C12.84375,18.140625 13.3125,18.71875 13.703125,19.265625 C14.28125,19.171875 14.46875,19.25 14.5625,19.484375 Z M8.25,6.640625 L8.453125,5.953125 L13.890625,5.953125 L13.890625,3.953125 L7.390625,3.953125 L7.578125,3.234375 L13.890625,3.234375 L13.890625,0.8125 L14.203125,0.8125 C14.78125,0.8125 15.4375,1.15625 15.4375,1.3125 L15.4375,3.234375 L21.859375,3.234375 C22.203125,3.234375 22.4375,3.359375 22.484375,3.625 C21.75,4.3125 20.546875,5.28125 20.546875,5.28125 L19.46875,3.953125 L15.4375,3.953125 L15.4375,5.953125 L20.859375,5.953125 C21.171875,5.953125 21.390625,6.078125 21.453125,6.34375 C20.765625,7.015625 19.625,7.875 19.625,7.875 L18.625,6.640625 L15.4375,6.640625 L15.4375,8.5625 L19.890625,8.5625 C20.234375,8.5625 20.46875,8.6875 20.546875,8.921875 C19.84375,9.578125 18.796875,10.375 18.796875,10.375 L17.875,9.265625 L15.4375,9.265625 L15.4375,10.796875 C15.890625,10.875 16.078125,11.0625 16.125,11.359375 L13.890625,11.59375 L13.890625,9.265625 L8.765625,9.265625 L8.953125,8.5625 L13.890625,8.5625 L13.890625,6.640625 Z M5.734375,8.921875 C6.390625,9.03125 6.75,9.21875 6.890625,9.390625 L4.84375,11.109375 L3.90625,9.859375 L0.984375,9.859375 L1.125,9.171875 L4.21875,9.171875 L4.21875,1.96875 C3,1.21875 1.734375,0.5 0.890625,0.125 L2.046875,-1.796875 C2.25,-1.703125 2.359375,-1.53125 2.296875,-1.25 C3.171875,-0.484375 4.53125,0.953125 5.421875,2.015625 C7.125,-0.71875 9.09375,-1.265625 13.515625,-1.265625 C16.203125,-1.265625 19.53125,-1.265625 21.9375,-1.265625 C22.03125,-0.546875 22.4375,-0.125 23.140625,0.03125 L23.140625,0.359375 C20.203125,0.265625 16.34375,0.265625 13.484375,0.265625 C9.3125,0.265625 7.46875,0.546875 5.734375,2.515625 Z" transform="translate(-0.015625, 20.25) scale(1, -1)"/>
</svg>