<svg height="21.890625" viewBox="0 0 24 21.890625" width="24" xmlns="http://www.w3.org/2000/svg">
<path d="M7.9375,9.984375 L7.734375,9.765625 C8.8125,9.125 10.15625,7.875 10.578125,6.8125 C12.265625,5.953125 13.078125,9.3125 7.9375,9.984375 Z M1.703125,19.390625 L1.4375,19.203125 C2.640625,18.140625 4.0625,16.296875 4.375,14.8125 C6.140625,13.484375 7.46875,17.453125 1.703125,19.390625 Z M18.71875,16.734375 L18.71875,14.59375 L15.078125,14.59375 L15.078125,16.734375 Z M13.5625,20.09375 L13.5625,17.421875 L7.796875,17.421875 L8.015625,16.734375 L13.5625,16.734375 L13.5625,14.59375 L6.4375,14.59375 L6.625,13.890625 L13.5625,13.890625 L13.5625,11.6875 L7.65625,11.6875 L7.875,10.96875 L13.5625,10.96875 L13.5625,6.71875 L13.53125,6.765625 C10.625,5.515625 7.703125,4.34375 6.453125,3.9375 L7.703125,2.1875 C7.921875,2.296875 8.0625,2.515625 8.109375,2.8125 C10.484375,4.25 12.28125,5.5 13.5625,6.359375 L13.5625,3.1875 C13.5625,2.859375 13.4375,2.734375 13.0625,2.734375 C12.625,2.734375 10.65625,2.90625 10.65625,2.90625 L10.65625,2.515625 C11.5625,2.40625 12.078125,2.234375 12.359375,2.015625 C12.640625,1.78125 12.75,1.421875 12.796875,1.015625 C14.828125,1.203125 15.078125,1.890625 15.078125,3.125 L15.078125,6.390625 C16.890625,5.375 19.25,3.640625 20.15625,2.203125 C21.984375,1.484375 22.34375,4.75 16.65625,6.4375 C17.859375,7.21875 19.484375,8.328125 20.328125,9 C20.859375,8.90625 21.09375,8.96875 21.1875,9.171875 L19.46875,10.265625 C19.84375,10.390625 20.203125,10.609375 20.234375,10.6875 L20.234375,13.890625 L22.78125,13.890625 C23.09375,13.890625 23.296875,14.015625 23.375,14.28125 C22.734375,14.921875 21.671875,15.796875 21.671875,15.796875 L20.765625,14.59375 L20.234375,14.59375 L20.234375,16.4375 C20.6875,16.53125 21.078125,16.734375 21.234375,16.890625 L19.34375,18.359375 L18.484375,17.421875 L15.078125,17.421875 L15.078125,19.203125 C15.640625,19.296875 15.859375,19.515625 15.9375,19.84375 Z M18.71875,10.96875 L18.71875,10.171875 L18.953125,10.171875 C18.1875,9.125 17.046875,7.53125 16.203125,6.546875 L15.078125,6.8125 L15.078125,10.96875 Z M18.71875,11.6875 L15.078125,11.6875 L15.078125,13.890625 L18.71875,13.890625 Z M5.71875,8.921875 C6.359375,9.03125 6.71875,9.21875 6.859375,9.390625 L4.828125,11.09375 L3.90625,9.859375 L0.984375,9.859375 L1.125,9.171875 L4.21875,9.171875 L4.21875,1.984375 C3,1.25 1.703125,0.5 0.859375,0.125 L2.046875,-1.796875 C2.234375,-1.703125 2.359375,-1.53125 2.28125,-1.25 C3.140625,-0.484375 4.515625,0.953125 5.40625,2.015625 C7.125,-0.71875 9.078125,-1.265625 13.515625,-1.265625 C16.21875,-1.265625 19.5625,-1.265625 21.984375,-1.265625 C22.0625,-0.546875 22.484375,-0.125 23.1875,0.03125 L23.1875,0.359375 C20.234375,0.265625 16.375,0.265625 13.484375,0.265625 C9.28125,0.265625 7.4375,0.546875 5.71875,2.515625 Z" transform="translate(-0.1171875, 20.09375) scale(1, -1)"/>
</svg>