<svg height="21.90625" viewBox="0 0 24 21.90625" width="24" xmlns="http://www.w3.org/2000/svg">
<path d="M2.46875,19.5625 L2.234375,19.3125 C3.3125,18.53125 4.75,17.109375 5.1875,15.953125 C6.890625,15.078125 7.734375,18.484375 2.46875,19.5625 Z M1.46875,14.609375 L1.25,14.40625 C2.40625,13.65625 3.859375,12.34375 4.375,11.234375 C6.09375,10.421875 6.796875,13.875 1.46875,14.609375 Z M14.328125,20.109375 L14.328125,16.65625 L11.453125,16.65625 C11.71875,17.203125 11.953125,17.765625 12.171875,18.34375 C12.671875,18.359375 12.9375,18.546875 13.015625,18.859375 L10.578125,19.53125 C10.171875,17.140625 9.390625,14.765625 8.515625,13.171875 L8.875,12.9375 C9.71875,13.734375 10.4375,14.765625 11.09375,15.9375 L14.328125,15.9375 L14.328125,12.34375 L7.171875,12.34375 L7.375,11.640625 L14.328125,11.640625 L14.328125,9.359375 L14.609375,9.359375 C15.21875,9.359375 15.890625,9.703125 15.890625,9.859375 L15.890625,11.640625 L22.375,11.640625 C22.734375,11.640625 22.96875,11.765625 23.015625,12.03125 C22.203125,12.765625 20.921875,13.796875 20.921875,13.796875 L19.78125,12.34375 L15.890625,12.34375 L15.890625,15.9375 L21.359375,15.9375 C21.703125,15.9375 21.9375,16.0625 22.015625,16.3125 C21.1875,17.0625 19.890625,18.078125 19.890625,18.078125 L18.765625,16.65625 L15.890625,16.65625 L15.890625,19.203125 C16.515625,19.265625 16.734375,19.53125 16.78125,19.875 Z M9.890625,8.5 L9.890625,1.375 L10.109375,1.375 C10.75,1.375 11.421875,1.734375 11.421875,1.875 L11.421875,2.71875 L18.9375,2.71875 L18.9375,1.53125 L19.171875,1.53125 C19.703125,1.53125 20.46875,1.921875 20.5,2.0625 L20.5,7.53125 C20.921875,7.609375 21.28125,7.796875 21.4375,7.984375 L19.5625,9.40625 L18.71875,8.5 L11.546875,8.5 L9.890625,9.21875 Z M11.421875,3.40625 L11.421875,7.78125 L18.9375,7.78125 L18.9375,3.40625 Z M5.78125,7.171875 C6.40625,7.25 6.765625,7.46875 6.9375,7.609375 L4.875,9.34375 L3.9375,8.109375 L0.90625,8.109375 L1.0625,7.390625 L4.265625,7.390625 L4.265625,1.96875 C3.046875,1.25 1.75,0.53125 0.90625,0.140625 L2.046875,-1.796875 C2.25,-1.6875 2.359375,-1.53125 2.296875,-1.21875 C3.171875,-0.453125 4.5625,0.9375 5.453125,1.96875 C7.171875,-0.703125 9.125,-1.25 13.53125,-1.25 C16.21875,-1.25 19.53125,-1.25 21.9375,-1.25 C22.03125,-0.53125 22.4375,-0.078125 23.15625,0.046875 L23.15625,0.390625 C20.203125,0.28125 16.34375,0.28125 13.484375,0.28125 C9.3125,0.28125 7.484375,0.578125 5.78125,2.453125 Z" transform="translate(-0.03125, 20.109375) scale(1, -1)"/>
</svg>