<svg height="22.078125" viewBox="0 0 24 22.078125" width="24" xmlns="http://www.w3.org/2000/svg">
<path d="M2.46875,19.5625 L2.234375,19.3125 C3.34375,18.5 4.78125,17.0625 5.25,15.890625 C6.9375,15 7.796875,18.4375 2.46875,19.5625 Z M1.46875,14.609375 L1.25,14.40625 C2.40625,13.65625 3.859375,12.34375 4.375,11.234375 C6.09375,10.421875 6.796875,13.875 1.46875,14.609375 Z M11.859375,16.9375 L17.328125,16.9375 C16.578125,15.9375 15.625,15 14.515625,14.140625 C13.296875,14.8125 12.21875,15.59375 11.40625,16.484375 Z M12.40625,20.25 C11.234375,17.90625 8.859375,15.09375 6.640625,13.484375 L6.90625,13.171875 C8.359375,13.921875 9.75,14.96875 11.015625,16.125 C11.734375,15.140625 12.625,14.25 13.65625,13.484375 C11.59375,12.046875 9.125,10.875 6.5,10.0625 L6.71875,9.640625 C9.71875,10.34375 12.4375,11.421875 14.65625,12.796875 C16.75,11.46875 19.25,10.515625 21.859375,9.890625 C22.03125,10.609375 22.484375,11.046875 23.109375,11.15625 L23.140625,11.421875 C20.59375,11.8125 18,12.5 15.765625,13.515625 C17.140625,14.46875 18.3125,15.546875 19.25,16.75 C19.828125,16.796875 20.09375,16.84375 20.28125,17.046875 L18.625,18.578125 L17.5625,17.640625 L12.53125,17.640625 C13.03125,18.1875 13.484375,18.765625 13.875,19.296875 C14.421875,19.203125 14.640625,19.296875 14.734375,19.53125 Z M8.328125,6.796875 L8.515625,6.078125 L13.703125,6.078125 L13.703125,4.15625 L7.390625,4.15625 L7.578125,3.4375 L13.703125,3.4375 L13.703125,0.8125 L14.015625,0.8125 C14.59375,0.8125 15.265625,1.15625 15.265625,1.3125 L15.265625,3.4375 L21.703125,3.4375 C22.03125,3.4375 22.25,3.546875 22.3125,3.8125 C21.546875,4.515625 20.359375,5.46875 20.359375,5.46875 L19.296875,4.15625 L15.265625,4.15625 L15.265625,6.078125 L20.546875,6.078125 C20.875,6.078125 21.09375,6.1875 21.171875,6.453125 C20.453125,7.15625 19.3125,8.015625 19.3125,8.015625 L18.34375,6.796875 L15.265625,6.796875 L15.265625,8.640625 L19.5625,8.640625 C19.890625,8.640625 20.09375,8.765625 20.140625,9 C19.484375,9.625 18.40625,10.4375 18.40625,10.4375 L17.5,9.3125 L15.265625,9.3125 L15.265625,10.796875 C15.71875,10.875 15.890625,11.0625 15.9375,11.359375 L13.703125,11.59375 L13.703125,9.3125 L9.046875,9.3125 L9.234375,8.640625 L13.703125,8.640625 L13.703125,6.796875 Z M5.78125,7.171875 C6.40625,7.25 6.765625,7.46875 6.9375,7.609375 L4.875,9.34375 L3.9375,8.109375 L0.90625,8.109375 L1.0625,7.390625 L4.265625,7.390625 L4.265625,1.9375 C3.046875,1.21875 1.75,0.5 0.90625,0.125 L2.0625,-1.828125 C2.25,-1.703125 2.359375,-1.5625 2.328125,-1.265625 C3.171875,-0.484375 4.5625,0.90625 5.453125,1.96875 C7.15625,-0.75 9.125,-1.265625 13.53125,-1.265625 C16.21875,-1.265625 19.5625,-1.265625 21.953125,-1.265625 C22.03125,-0.546875 22.46875,-0.125 23.15625,0 L23.15625,0.359375 C20.203125,0.265625 16.375,0.265625 13.515625,0.265625 C9.34375,0.265625 7.484375,0.53125 5.78125,2.421875 Z" transform="translate(-0.03125, 20.25) scale(1, -1)"/>
</svg>