<svg height="21.90625" viewBox="0 0 24 21.90625" width="24" xmlns="http://www.w3.org/2000/svg">
<path d="M8.109375,10.203125 L7.84375,9.984375 C8.78125,9.21875 10.078125,7.890625 10.515625,6.9375 C12.125,6.046875 13.109375,9.125 8.109375,10.203125 Z M2.421875,19.53125 L2.1875,19.3125 C3.265625,18.5 4.6875,17.09375 5.140625,15.953125 C6.8125,15.078125 7.65625,18.453125 2.421875,19.53125 Z M1.421875,14.59375 L1.203125,14.375 C2.359375,13.65625 3.796875,12.34375 4.296875,11.234375 C6,10.421875 6.71875,13.84375 1.421875,14.59375 Z M18.578125,17.0625 L18.578125,14.8125 L15.125,14.8125 L15.125,17.0625 Z M13.578125,20.109375 L13.578125,17.765625 L8.359375,17.765625 L8.5625,17.0625 L13.578125,17.0625 L13.578125,14.8125 L6.4375,14.8125 L6.625,14.109375 L13.578125,14.109375 L13.578125,11.734375 L8.1875,11.734375 L8.40625,11.015625 L13.578125,11.015625 L13.578125,7.015625 L13.5625,7.0625 C10.6875,5.6875 7.828125,4.421875 6.625,3.953125 L7.890625,2.25 C8.109375,2.359375 8.25,2.59375 8.28125,2.875 C10.5625,4.421875 12.34375,5.734375 13.578125,6.625 L13.578125,3.21875 C13.578125,2.875 13.46875,2.765625 13.078125,2.765625 C12.671875,2.765625 10.6875,2.921875 10.6875,2.921875 L10.6875,2.546875 C11.609375,2.421875 12.09375,2.25 12.40625,2.046875 C12.703125,1.796875 12.796875,1.4375 12.84375,1.015625 C14.875,1.203125 15.125,1.921875 15.125,3.140625 L15.125,6.671875 C17.046875,5.640625 19.484375,3.859375 20.421875,2.375 C22.21875,1.625 22.609375,4.84375 16.9375,6.625 C18.078125,7.375 19.53125,8.40625 20.328125,9.03125 C20.828125,8.921875 21.046875,8.96875 21.171875,9.171875 L19.46875,10.375 C19.796875,10.484375 20.09375,10.65625 20.109375,10.75 L20.109375,14.109375 L22.78125,14.109375 C23.09375,14.109375 23.296875,14.234375 23.375,14.5 C22.734375,15.140625 21.671875,15.984375 21.671875,15.984375 L20.765625,14.8125 L20.109375,14.8125 L20.109375,16.78125 C20.59375,16.875 20.953125,17.0625 21.125,17.234375 L19.203125,18.703125 L18.34375,17.765625 L15.125,17.765625 L15.125,19.21875 C15.703125,19.3125 15.9375,19.53125 15.984375,19.875 Z M18.578125,11.015625 L18.578125,10.25 L18.8125,10.25 L19.015625,10.265625 C18.34375,9.234375 17.28125,7.75 16.46875,6.765625 L15.125,7.078125 L15.125,11.015625 Z M18.578125,11.734375 L15.125,11.734375 L15.125,14.109375 L18.578125,14.109375 Z M5.6875,7.171875 C6.34375,7.25 6.703125,7.4375 6.84375,7.609375 L4.796875,9.3125 L3.859375,8.09375 L0.90625,8.09375 L1.0625,7.390625 L4.203125,7.390625 L4.203125,1.9375 C3,1.21875 1.734375,0.5 0.90625,0.125 L2.046875,-1.796875 C2.234375,-1.703125 2.328125,-1.53125 2.28125,-1.25 C3.140625,-0.484375 4.484375,0.90625 5.375,1.9375 C7.109375,-0.71875 9.046875,-1.265625 13.484375,-1.265625 C16.203125,-1.265625 19.53125,-1.265625 21.953125,-1.265625 C22.03125,-0.546875 22.46875,-0.125 23.15625,0 L23.15625,0.359375 C20.203125,0.265625 16.3125,0.265625 13.46875,0.265625 C9.265625,0.265625 7.421875,0.53125 5.6875,2.421875 Z" transform="translate(-0.140625, 20.109375) scale(1, -1)"/>
</svg>