<svg height="21.765625" viewBox="0 0 24 21.765625" width="24" xmlns="http://www.w3.org/2000/svg">
<path d="M7.296875,18.578125 L7.484375,17.875 L22.015625,17.875 C22.34375,17.875 22.578125,18 22.625,18.265625 C21.84375,18.984375 20.5625,19.96875 20.5625,19.96875 L19.46875,18.578125 Z M2.0625,19.3125 L1.796875,19.125 C3,18.078125 4.421875,16.21875 4.734375,14.734375 C6.5,13.421875 7.796875,17.375 2.0625,19.3125 Z M8.328125,9.8125 L8.328125,1.4375 L8.5625,1.4375 C9.171875,1.4375 9.8125,1.796875 9.8125,1.96875 L9.8125,2.59375 L19.875,2.59375 L19.875,1.625 L20.09375,1.625 C20.59375,1.625 21.390625,1.984375 21.40625,2.140625 L21.40625,8.859375 C21.84375,8.921875 22.21875,9.125 22.390625,9.3125 L20.5,10.75 L19.625,9.8125 L9.953125,9.8125 L8.328125,10.578125 Z M19.875,3.265625 L15.5,3.265625 L15.5,5.90625 L19.875,5.90625 Z M19.875,6.625 L15.5,6.625 L15.5,9.125 L19.875,9.125 Z M9.8125,3.265625 L9.8125,5.90625 L14.015625,5.90625 L14.015625,3.265625 Z M9.8125,6.625 L9.8125,9.125 L14.015625,9.125 L14.015625,6.625 Z M9.484375,16.03125 L9.484375,10.921875 L9.71875,10.921875 C10.34375,10.921875 11.015625,11.28125 11.015625,11.40625 L11.015625,11.953125 L18.53125,11.953125 L18.53125,11.1875 L18.765625,11.1875 C19.296875,11.1875 20.0625,11.515625 20.0625,11.65625 L20.0625,15.046875 C20.546875,15.125 20.953125,15.3125 21.125,15.5 L19.15625,16.96875 L18.28125,16.03125 L11.140625,16.03125 L9.484375,16.78125 Z M18.53125,12.640625 L11.015625,12.640625 L11.015625,15.34375 L18.53125,15.34375 Z M5.734375,8.921875 C6.390625,9.03125 6.75,9.21875 6.890625,9.390625 L4.84375,11.109375 L3.90625,9.859375 L0.984375,9.859375 L1.125,9.171875 L4.21875,9.171875 L4.21875,1.96875 C3,1.21875 1.734375,0.5 0.890625,0.125 L2.046875,-1.796875 C2.25,-1.703125 2.359375,-1.53125 2.296875,-1.25 C3.171875,-0.484375 4.53125,0.953125 5.421875,2.015625 C7.15625,-0.71875 9.125,-1.265625 13.5625,-1.265625 C16.265625,-1.265625 19.609375,-1.265625 22.03125,-1.265625 C22.109375,-0.546875 22.53125,-0.125 23.234375,0.03125 L23.234375,0.359375 C20.28125,0.265625 16.421875,0.265625 13.53125,0.265625 C9.3125,0.265625 7.46875,0.546875 5.734375,2.515625 Z" transform="translate(-0.0625, 19.96875) scale(1, -1)"/>
</svg>