<svg height="21.53125" viewBox="0 0 24 21.53125" width="24" xmlns="http://www.w3.org/2000/svg">
<path d="M1.890625,19.390625 L1.625,19.203125 C2.859375,18.140625 4.265625,16.296875 4.5625,14.8125 C6.34375,13.515625 7.65625,17.453125 1.890625,19.390625 Z M5.6875,8.921875 C6.34375,9.03125 6.703125,9.21875 6.84375,9.390625 L4.796875,11.09375 L3.859375,9.859375 L1.015625,9.859375 L1.15625,9.171875 L4.203125,9.171875 L4.203125,1.984375 C3,1.25 1.703125,0.5 0.890625,0.125 L2.046875,-1.796875 C2.234375,-1.6875 2.359375,-1.53125 2.28125,-1.25 C3.125,-0.484375 4.484375,0.953125 5.375,2.015625 C7.078125,-0.71875 9.046875,-1.265625 13.515625,-1.265625 C16.21875,-1.265625 19.5625,-1.265625 21.984375,-1.265625 C22.078125,-0.546875 22.484375,-0.125 23.203125,0 L23.203125,0.359375 C20.234375,0.265625 16.375,0.234375 13.484375,0.265625 C9.265625,0.265625 7.421875,0.546875 5.6875,2.515625 Z M8.453125,18.765625 L8.453125,12.640625 C8.453125,8.90625 8.328125,4.96875 6.453125,1.84375 L6.8125,1.578125 C9.75,4.6875 9.90625,9.140625 9.90625,12.640625 L9.90625,18.078125 L19.78125,18.078125 L19.78125,3.640625 C19.78125,3.28125 19.65625,3.140625 19.25,3.140625 C18.75,3.140625 16.53125,3.3125 16.53125,3.3125 L16.53125,2.921875 C17.546875,2.828125 18.078125,2.640625 18.4375,2.40625 C18.75,2.1875 18.859375,1.796875 18.9375,1.390625 C21.03125,1.578125 21.28125,2.328125 21.28125,3.53125 L21.28125,17.78125 C21.75,17.859375 22.15625,18.078125 22.3125,18.234375 L20.328125,19.734375 L19.5625,18.765625 L10.203125,18.765625 L8.453125,19.53125 Z M11.40625,9.640625 L11.40625,3.1875 L11.59375,3.1875 C12.1875,3.1875 12.765625,3.53125 12.765625,3.640625 L12.765625,4.921875 L16.390625,4.921875 L16.390625,3.8125 L16.578125,3.8125 C17.046875,3.8125 17.765625,4.171875 17.78125,4.3125 L17.78125,8.828125 C18.140625,8.875 18.4375,9.03125 18.546875,9.1875 L16.921875,10.421875 L16.203125,9.640625 L12.859375,9.640625 L11.40625,10.3125 Z M16.390625,5.640625 L12.765625,5.640625 L12.765625,8.953125 L16.390625,8.953125 Z M13.875,17.421875 L13.875,15.1875 L10.828125,15.1875 L11.015625,14.46875 L13.875,14.46875 L13.875,12.171875 L10.515625,12.171875 L10.703125,11.46875 L18.796875,11.46875 C19.109375,11.46875 19.3125,11.59375 19.390625,11.859375 C18.765625,12.453125 17.8125,13.25 17.8125,13.25 L16.9375,12.171875 L15.3125,12.171875 L15.3125,14.46875 L18.359375,14.46875 C18.671875,14.46875 18.890625,14.59375 18.953125,14.859375 C18.359375,15.4375 17.421875,16.203125 17.421875,16.203125 L16.625,15.1875 L15.3125,15.1875 L15.3125,16.65625 C15.75,16.734375 15.9375,16.890625 15.984375,17.1875 Z" transform="translate(-0.046875, 19.734375) scale(1, -1)"/>
</svg>