<svg height="21.546875" viewBox="0 0 24 21.546875" width="24" xmlns="http://www.w3.org/2000/svg">
<path d="M2.421875,19.53125 L2.1875,19.3125 C3.265625,18.5 4.6875,17.09375 5.140625,15.953125 C6.8125,15.078125 7.65625,18.453125 2.421875,19.53125 Z M1.421875,14.59375 L1.203125,14.375 C2.359375,13.65625 3.796875,12.34375 4.296875,11.234375 C6,10.421875 6.71875,13.84375 1.421875,14.59375 Z M8.453125,18.765625 L8.453125,12.359375 C8.453125,8.640625 8.328125,4.828125 6.453125,1.796875 L6.84375,1.5625 C9.765625,4.53125 9.9375,8.828125 9.9375,12.359375 L9.9375,18.078125 L19.75,18.078125 L19.75,3.59375 C19.75,3.265625 19.65625,3.09375 19.25,3.09375 C18.75,3.09375 16.515625,3.265625 16.515625,3.265625 L16.515625,2.90625 C17.515625,2.78125 18.078125,2.59375 18.4375,2.359375 C18.71875,2.140625 18.84375,1.75 18.90625,1.34375 C21.03125,1.53125 21.28125,2.28125 21.28125,3.484375 L21.28125,17.78125 C21.75,17.859375 22.15625,18.078125 22.3125,18.234375 L20.328125,19.75 L19.53125,18.765625 L10.21875,18.765625 L8.453125,19.5625 Z M11.453125,9.3125 L11.453125,3.453125 L11.640625,3.453125 C12.21875,3.453125 12.8125,3.796875 12.8125,3.90625 L12.8125,4.921875 L16.390625,4.921875 L16.390625,3.9375 L16.578125,3.9375 C17.046875,3.9375 17.765625,4.265625 17.78125,4.421875 L17.78125,8.5 C18.140625,8.546875 18.4375,8.71875 18.546875,8.859375 L16.921875,10.078125 L16.203125,9.3125 L12.90625,9.3125 L11.453125,9.984375 Z M16.390625,5.640625 L12.8125,5.640625 L12.8125,8.609375 L16.390625,8.609375 Z M13.875,17.609375 L13.875,15.40625 L11.015625,15.40625 L11.203125,14.734375 L13.875,14.734375 L13.875,12.59375 L10.921875,12.59375 L11.109375,11.90625 L13.875,11.90625 L13.875,10.203125 L14.15625,10.203125 C14.6875,10.203125 15.3125,10.515625 15.3125,10.6875 L15.3125,11.90625 L18.265625,11.90625 C18.546875,11.90625 18.765625,12.03125 18.84375,12.28125 C18.234375,12.890625 17.25,13.6875 17.25,13.6875 L16.4375,12.59375 L15.3125,12.59375 L15.3125,14.734375 L18.1875,14.734375 C18.5,14.734375 18.71875,14.859375 18.796875,15.125 C18.1875,15.703125 17.28125,16.46875 17.28125,16.46875 L16.46875,15.40625 L15.3125,15.40625 L15.3125,16.796875 C15.8125,16.875 16.015625,17.09375 16.0625,17.375 Z M5.6875,7.171875 C6.34375,7.25 6.703125,7.4375 6.84375,7.609375 L4.796875,9.3125 L3.859375,8.09375 L0.90625,8.09375 L1.0625,7.390625 L4.203125,7.390625 L4.203125,1.9375 C3,1.21875 1.734375,0.5 0.90625,0.125 L2.046875,-1.796875 C2.234375,-1.703125 2.328125,-1.53125 2.28125,-1.25 C3.140625,-0.484375 4.484375,0.90625 5.375,1.9375 C7.109375,-0.71875 9.046875,-1.265625 13.484375,-1.265625 C16.203125,-1.265625 19.53125,-1.265625 21.953125,-1.265625 C22.03125,-0.546875 22.46875,-0.125 23.15625,0 L23.15625,0.359375 C20.203125,0.265625 16.3125,0.265625 13.46875,0.265625 C9.265625,0.265625 7.421875,0.53125 5.6875,2.421875 Z" transform="translate(-0.03125, 19.75) scale(1, -1)"/>
</svg>