<svg height="21.796875" viewBox="0 0 24 21.796875" width="24" xmlns="http://www.w3.org/2000/svg">
<path d="M7.625,18.578125 L7.828125,17.875 L22.25,17.875 C22.609375,17.875 22.84375,18 22.890625,18.234375 C22.109375,18.984375 20.859375,19.96875 20.859375,19.96875 L19.734375,18.578125 Z M2.46875,19.5625 L2.234375,19.3125 C3.3125,18.53125 4.75,17.109375 5.1875,15.953125 C6.890625,15.078125 7.734375,18.484375 2.46875,19.5625 Z M1.46875,14.609375 L1.25,14.40625 C2.40625,13.65625 3.859375,12.34375 4.375,11.234375 C6.09375,10.421875 6.796875,13.875 1.46875,14.609375 Z M8.515625,9.75 L8.515625,1.15625 L8.765625,1.15625 C9.359375,1.15625 10.03125,1.515625 10.03125,1.65625 L10.03125,2.546875 L19.875,2.546875 L19.875,1.34375 L20.109375,1.34375 C20.609375,1.34375 21.390625,1.703125 21.40625,1.875 L21.40625,8.78125 C21.859375,8.859375 22.25,9.046875 22.421875,9.234375 L20.5,10.6875 L19.625,9.75 L10.15625,9.75 L8.515625,10.53125 Z M19.875,3.21875 L15.625,3.21875 L15.625,5.859375 L19.875,5.859375 Z M19.875,6.546875 L15.625,6.546875 L15.625,9.046875 L19.875,9.046875 Z M10.03125,3.21875 L10.03125,5.859375 L14.140625,5.859375 L14.140625,3.21875 Z M10.03125,6.546875 L10.03125,9.046875 L14.140625,9.046875 L14.140625,6.546875 Z M9.8125,16.015625 L9.8125,10.703125 L10.03125,10.703125 C10.625,10.703125 11.328125,11.0625 11.328125,11.1875 L11.328125,11.875 L18.59375,11.875 L18.59375,10.890625 L18.84375,10.890625 C19.34375,10.890625 20.109375,11.234375 20.140625,11.40625 L20.140625,15 C20.59375,15.09375 21,15.28125 21.171875,15.484375 L19.21875,16.921875 L18.359375,16.015625 L11.453125,16.015625 L9.8125,16.75 Z M18.59375,12.578125 L11.328125,12.578125 L11.328125,15.28125 L18.59375,15.28125 Z M5.78125,7.171875 C6.40625,7.25 6.765625,7.46875 6.9375,7.609375 L4.875,9.34375 L3.9375,8.109375 L0.90625,8.109375 L1.0625,7.390625 L4.265625,7.390625 L4.265625,1.9375 C3.046875,1.21875 1.75,0.5 0.90625,0.125 L2.0625,-1.828125 C2.25,-1.703125 2.359375,-1.5625 2.328125,-1.265625 C3.171875,-0.484375 4.5625,0.90625 5.453125,1.96875 C7.15625,-0.75 9.125,-1.265625 13.53125,-1.265625 C16.21875,-1.265625 19.5625,-1.265625 21.953125,-1.265625 C22.03125,-0.546875 22.46875,-0.125 23.15625,0 L23.15625,0.359375 C20.203125,0.265625 16.375,0.265625 13.515625,0.265625 C9.34375,0.265625 7.484375,0.53125 5.78125,2.421875 Z" transform="translate(-0.03125, 19.96875) scale(1, -1)"/>
</svg>