<svg height="21.9375" viewBox="0 0 24 21.9375" width="24" xmlns="http://www.w3.org/2000/svg">
<path d="M2.40625,19.5625 L2.15625,19.34375 C3.171875,18.578125 4.421875,17.234375 4.734375,16.078125 C6.359375,15.140625 7.265625,18.53125 2.40625,19.5625 Z M1.421875,14.640625 L1.171875,14.421875 C2.28125,13.703125 3.578125,12.40625 3.953125,11.296875 C5.59375,10.421875 6.359375,13.796875 1.421875,14.640625 Z M10.625,14.90625 L14.71875,14.90625 L14.71875,11.734375 L10.625,11.734375 Z M10.9375,20.140625 C9.8125,16.578125 7.921875,13.109375 6.140625,10.96875 L6.484375,10.6875 C7.375,11.40625 8.25,12.28125 9.078125,13.296875 L9.078125,1.3125 L9.34375,1.3125 C10.125,1.3125 10.625,1.734375 10.625,1.84375 L10.625,3.078125 L22.21875,3.078125 C22.5625,3.078125 22.828125,3.1875 22.875,3.453125 C22.0625,4.203125 20.78125,5.203125 20.78125,5.203125 L19.625,3.796875 L16.21875,3.796875 L16.21875,7.078125 L21.28125,7.078125 C21.578125,7.078125 21.84375,7.203125 21.890625,7.4375 C21.140625,8.15625 19.9375,9.078125 19.9375,9.078125 L18.890625,7.78125 L16.21875,7.78125 L16.21875,11.015625 L21.28125,11.015625 C21.578125,11.015625 21.84375,11.140625 21.890625,11.40625 C21.140625,12.09375 19.9375,13.0625 19.9375,13.0625 L18.890625,11.734375 L16.21875,11.734375 L16.21875,14.90625 L21.84375,14.90625 C22.171875,14.90625 22.390625,15.03125 22.46875,15.265625 C21.703125,16.015625 20.421875,16.984375 20.421875,16.984375 L19.3125,15.59375 L15.28125,15.59375 C16.109375,16.609375 16.875,17.8125 17.40625,18.703125 C17.875,18.640625 18.1875,18.84375 18.28125,19.125 L15.703125,19.9375 C15.484375,18.640625 15.09375,16.890625 14.65625,15.59375 L10.921875,15.59375 L10.75,15.671875 C11.375,16.65625 11.953125,17.71875 12.4375,18.8125 C12.953125,18.796875 13.25,18.984375 13.375,19.25 Z M10.625,11.015625 L14.71875,11.015625 L14.71875,7.78125 L10.625,7.78125 Z M10.625,7.078125 L14.71875,7.078125 L14.71875,3.796875 L10.625,3.796875 Z M5.359375,7.15625 C6,7.21875 6.359375,7.421875 6.5,7.578125 L4.46875,9.28125 L3.546875,8.09375 L0.953125,8.09375 L1.109375,7.375 L3.890625,7.375 L3.890625,1.84375 C2.78125,1.15625 1.65625,0.453125 0.90625,0.078125 L2.046875,-1.796875 C2.234375,-1.6875 2.328125,-1.53125 2.28125,-1.21875 C3.046875,-0.484375 4.265625,0.890625 5.0625,1.921875 C6.8125,-0.71875 8.8125,-1.265625 13.296875,-1.265625 C16.078125,-1.265625 19.484375,-1.265625 21.953125,-1.265625 C22.078125,-0.578125 22.484375,-0.140625 23.1875,0 L23.1875,0.34375 C20.1875,0.234375 16.203125,0.234375 13.265625,0.234375 C9.03125,0.234375 7.109375,0.53125 5.359375,2.40625 Z" transform="translate(-0.046875, 20.140625) scale(1, -1)"/>
</svg>