<svg height="21.953125" viewBox="0 0 24 21.953125" width="24" xmlns="http://www.w3.org/2000/svg">
<path d="M1.703125,19.390625 L1.4375,19.203125 C2.65625,18.140625 4.078125,16.296875 4.390625,14.8125 C6.171875,13.484375 7.484375,17.453125 1.703125,19.390625 Z M10.578125,15.234375 L14.6875,15.234375 L14.6875,12.03125 L10.578125,12.03125 Z M10.84375,20.15625 C9.75,16.75 7.875,13.46875 6.140625,11.421875 L6.453125,11.1875 C7.34375,11.859375 8.203125,12.703125 9.03125,13.65625 L9.03125,1.578125 L9.28125,1.578125 C10.078125,1.578125 10.578125,1.984375 10.578125,2.109375 L10.578125,3.21875 L22.171875,3.21875 C22.515625,3.21875 22.78125,3.34375 22.828125,3.59375 C22.015625,4.3125 20.734375,5.359375 20.734375,5.359375 L19.578125,3.9375 L16.21875,3.9375 L16.21875,7.34375 L21.28125,7.34375 C21.578125,7.34375 21.8125,7.46875 21.859375,7.734375 C21.140625,8.453125 19.9375,9.359375 19.9375,9.359375 L18.890625,8.0625 L16.21875,8.0625 L16.21875,11.359375 L21.28125,11.359375 C21.578125,11.359375 21.8125,11.46875 21.859375,11.734375 C21.140625,12.40625 19.9375,13.375 19.9375,13.375 L18.890625,12.03125 L16.21875,12.03125 L16.21875,15.234375 L21.765625,15.234375 C22.109375,15.234375 22.3125,15.359375 22.390625,15.625 C21.625,16.34375 20.359375,17.296875 20.359375,17.296875 L19.265625,15.9375 L15.453125,15.9375 C16.21875,16.875 16.9375,17.96875 17.421875,18.859375 C17.953125,18.859375 18.21875,19.078125 18.28125,19.375 L15.71875,19.921875 C15.53125,18.71875 15.125,17.109375 14.734375,15.9375 L10.875,15.9375 L10.75,15.984375 C11.328125,16.875 11.859375,17.8125 12.3125,18.796875 C12.859375,18.75 13.15625,18.9375 13.265625,19.21875 Z M10.578125,11.359375 L14.6875,11.359375 L14.6875,8.0625 L10.578125,8.0625 Z M10.578125,7.34375 L14.6875,7.34375 L14.6875,3.9375 L10.578125,3.9375 Z M5.734375,8.921875 C6.390625,9.03125 6.75,9.21875 6.890625,9.390625 L4.84375,11.109375 L3.90625,9.859375 L0.984375,9.859375 L1.125,9.171875 L4.21875,9.171875 L4.21875,1.96875 C3,1.21875 1.734375,0.5 0.890625,0.125 L2.046875,-1.796875 C2.25,-1.703125 2.359375,-1.53125 2.296875,-1.25 C3.171875,-0.484375 4.53125,0.953125 5.421875,2.015625 C7.125,-0.71875 9.09375,-1.265625 13.515625,-1.265625 C16.203125,-1.265625 19.53125,-1.265625 21.9375,-1.265625 C22.03125,-0.546875 22.4375,-0.125 23.140625,0.03125 L23.140625,0.359375 C20.203125,0.265625 16.34375,0.265625 13.484375,0.265625 C9.3125,0.265625 7.46875,0.546875 5.734375,2.515625 Z" transform="translate(-0.015625, 20.15625) scale(1, -1)"/>
</svg>