<svg height="21.8125" viewBox="0 0 24 21.8125" width="24" xmlns="http://www.w3.org/2000/svg">
<path d="M2.90625,19.53125 L2.65625,19.3125 C3.765625,18.5 5.1875,17.09375 5.609375,15.953125 C7.3125,15.078125 8.140625,18.453125 2.90625,19.53125 Z M1.4375,14.59375 L1.21875,14.375 C2.375,13.65625 3.8125,12.34375 4.3125,11.234375 C6.03125,10.421875 6.75,13.84375 1.4375,14.59375 Z M10.84375,19.015625 C10.0625,17.046875 8.296875,14.71875 6.4375,13.21875 L6.671875,12.890625 C8.921875,14.0625 11.109375,16.0625 12.171875,17.8125 C12.59375,17.734375 12.859375,17.78125 12.984375,18.03125 Z M19.578125,12.265625 C18.90625,11.296875 17.5625,9.796875 16.421875,8.734375 C15.890625,9.984375 15.046875,11.1875 13.796875,12.1875 C14.328125,12.59375 14.828125,13.0625 15.234375,13.53125 L19.0625,13.53125 C19.390625,13.53125 19.625,13.625 19.703125,13.890625 C18.90625,14.609375 17.6875,15.59375 17.6875,15.59375 L16.578125,14.203125 L9.640625,14.203125 L9.84375,13.53125 L13.21875,13.53125 C11.765625,11.921875 9.640625,10.46875 7.3125,9.390625 L7.53125,8.96875 C9.703125,9.703125 11.734375,10.6875 13.390625,11.875 L13.96875,11.140625 C12.40625,9.265625 9.796875,7.390625 7.421875,6.3125 L7.609375,5.921875 C10.125,6.84375 12.890625,8.359375 14.734375,9.859375 C14.90625,9.5 15.046875,9.140625 15.171875,8.78125 C13.3125,6.390625 10.078125,4.109375 7.03125,2.8125 L7.203125,2.421875 C10.21875,3.40625 13.390625,5.109375 15.59375,6.9375 C15.796875,5.15625 15.40625,3.625 14.6875,2.953125 C14.515625,2.765625 14.328125,2.765625 14.015625,2.765625 C13.46875,2.765625 11.71875,2.859375 10.828125,2.921875 L10.828125,2.515625 C11.609375,2.375 12.484375,2.15625 12.75,1.984375 C13.03125,1.78125 13.171875,1.484375 13.203125,1.03125 C14.5,1.03125 15.265625,1.25 15.75,1.703125 C16.984375,2.765625 17.546875,5.359375 16.734375,7.96875 C18.5,6.625 20.515625,4.65625 21.265625,3.140625 C23.140625,2.1875 23.734375,5.96875 16.984375,8.5 C18.359375,9.234375 19.78125,10.15625 20.640625,10.84375 C21.171875,10.6875 21.390625,10.78125 21.53125,10.984375 Z M5.6875,7.171875 C6.34375,7.25 6.703125,7.4375 6.84375,7.609375 L4.796875,9.3125 L3.859375,8.09375 L0.90625,8.09375 L1.0625,7.390625 L4.203125,7.390625 L4.203125,1.9375 C3,1.21875 1.734375,0.5 0.90625,0.125 L2.046875,-1.796875 C2.234375,-1.703125 2.328125,-1.53125 2.28125,-1.25 C3.140625,-0.484375 4.484375,0.90625 5.375,1.9375 C7.109375,-0.71875 9.046875,-1.265625 13.484375,-1.265625 C16.203125,-1.265625 19.53125,-1.265625 21.953125,-1.265625 C22.03125,-0.546875 22.46875,-0.125 23.15625,0 L23.15625,0.359375 C20.203125,0.265625 16.3125,0.265625 13.46875,0.265625 C9.265625,0.265625 7.421875,0.53125 5.6875,2.421875 Z M13.4375,18.984375 L13.625,18.28125 L17.1875,18.28125 C17.96875,16.125 19.703125,14.25 21.859375,13.015625 C22.03125,13.609375 22.578125,14.0625 23.1875,14.203125 L23.234375,14.46875 C20.828125,15.28125 18.703125,16.75 17.828125,18.265625 C18.53125,18.28125 19.0625,18.4375 19.3125,18.71875 L17.359375,20.015625 L16.6875,18.984375 Z" transform="translate(-0.3203125, 20.015625) scale(1, -1)"/>
</svg>