<svg height="21.546875" viewBox="0 0 24 21.546875" width="24" xmlns="http://www.w3.org/2000/svg">
<path d="M2.6875,19.5625 L2.453125,19.34375 C3.53125,18.546875 4.828125,17.109375 5.15625,15.90625 C6.796875,14.96875 7.703125,18.40625 2.6875,19.5625 Z M1.703125,14.640625 L1.46875,14.421875 C2.609375,13.65625 3.984375,12.28125 4.390625,11.140625 C6.03125,10.25 6.8125,13.6875 1.703125,14.640625 Z M10.15625,6.1875 L11.140625,4.375 C11.375,4.4375 11.5625,4.5625 11.71875,4.875 C14.421875,5.359375 16.46875,5.765625 17.921875,6.078125 C18.140625,5.5625 18.28125,5.09375 18.34375,4.625 C19.625,3.53125 20.921875,6.40625 16.78125,8.375 L16.515625,8.203125 C16.921875,7.78125 17.359375,7.171875 17.6875,6.546875 L15.546875,6.4375 L15.546875,9.03125 L20.203125,9.03125 L20.203125,3.484375 C20.203125,3.140625 20.109375,3 19.6875,3 C19.171875,3 16.921875,3.171875 16.921875,3.171875 L16.921875,2.8125 C17.921875,2.71875 18.5,2.5 18.84375,2.28125 C19.15625,2.046875 19.265625,1.6875 19.34375,1.25 C21.484375,1.46875 21.71875,2.1875 21.71875,3.3125 L21.71875,8.765625 C22.203125,8.828125 22.609375,9.03125 22.75,9.1875 L20.765625,10.703125 L19.96875,9.75 L15.546875,9.75 L15.546875,12.03125 L18.890625,12.03125 L18.890625,11.046875 L19.109375,11.046875 C19.625,11.046875 20.375,11.40625 20.40625,11.5625 L20.40625,17.8125 C20.875,17.90625 21.265625,18.09375 21.4375,18.265625 L19.515625,19.75 L18.640625,18.796875 L10.921875,18.796875 L9.3125,19.53125 L9.3125,10.796875 L9.53125,10.796875 C10.171875,10.796875 10.796875,11.140625 10.796875,11.296875 L10.796875,12.03125 L14.046875,12.03125 L14.046875,9.75 L9.703125,9.75 L8.09375,10.515625 L8.09375,1.34375 L8.328125,1.34375 C8.953125,1.34375 9.578125,1.703125 9.578125,1.84375 L9.578125,9.03125 L14.046875,9.03125 L14.046875,6.34375 C12.390625,6.265625 10.984375,6.21875 10.15625,6.1875 Z M14.046875,15.046875 L14.046875,12.71875 L10.796875,12.71875 L10.796875,15.046875 Z M14.046875,15.71875 L10.796875,15.71875 L10.796875,18.09375 L14.046875,18.09375 Z M15.546875,15.046875 L18.890625,15.046875 L18.890625,12.71875 L15.546875,12.71875 Z M15.546875,15.71875 L15.546875,18.09375 L18.890625,18.09375 L18.890625,15.71875 Z M5.359375,7.15625 C6,7.21875 6.359375,7.421875 6.5,7.578125 L4.46875,9.28125 L3.546875,8.09375 L0.953125,8.09375 L1.109375,7.375 L3.890625,7.375 L3.890625,1.84375 C2.78125,1.15625 1.65625,0.453125 0.90625,0.078125 L2.046875,-1.796875 C2.234375,-1.6875 2.328125,-1.53125 2.28125,-1.21875 C3.046875,-0.484375 4.265625,0.890625 5.0625,1.921875 C6.8125,-0.71875 8.8125,-1.265625 13.296875,-1.265625 C16.078125,-1.265625 19.484375,-1.265625 21.953125,-1.265625 C22.078125,-0.578125 22.484375,-0.140625 23.1875,0 L23.1875,0.34375 C20.1875,0.234375 16.203125,0.234375 13.265625,0.234375 C9.03125,0.234375 7.109375,0.53125 5.359375,2.40625 Z" transform="translate(-0.046875, 19.75) scale(1, -1)"/>
</svg>