<svg height="21.625" viewBox="0 0 24 21.625" width="24" xmlns="http://www.w3.org/2000/svg">
<path d="M1.6875,19.203125 L1.421875,19.015625 C2.609375,17.8125 4.03125,15.796875 4.25,14.15625 C6,12.8125 7.390625,16.796875 1.6875,19.203125 Z M8.71875,19.796875 C8.78125,18.703125 8.09375,17.609375 7.34375,17.234375 C6.8125,16.96875 6.484375,16.515625 6.671875,15.984375 C6.9375,15.40625 7.703125,15.40625 8.25,15.71875 C8.828125,16.078125 9.34375,16.84375 9.390625,17.96875 L20.59375,17.96875 C20.453125,17.375 20.25,16.6875 20.109375,16.171875 L19.734375,16.484375 L18.703125,15.21875 L15.265625,15.21875 L15.265625,16.390625 C15.84375,16.484375 16.0625,16.734375 16.125,17.046875 L13.703125,17.328125 L13.703125,15.21875 L7.78125,15.21875 L7.96875,14.515625 L13.703125,14.515625 L13.703125,12.640625 L10.203125,12.640625 L8.5625,13.390625 L8.5625,5.296875 L8.78125,5.296875 C9.40625,5.296875 10.078125,5.65625 10.078125,5.828125 L10.078125,6.3125 L13.703125,6.3125 L13.703125,3.984375 L6.75,3.984375 L6.9375,3.28125 L13.703125,3.28125 L13.703125,0.671875 L14.015625,0.671875 C14.59375,0.671875 15.265625,1.03125 15.265625,1.21875 L15.265625,3.28125 L22.265625,3.28125 C22.578125,3.28125 22.84375,3.40625 22.890625,3.671875 C22.125,4.375 20.90625,5.328125 20.90625,5.328125 L19.828125,3.984375 L15.265625,3.984375 L15.265625,6.3125 L18.953125,6.3125 L18.953125,5.546875 L19.203125,5.546875 C19.703125,5.546875 20.46875,5.875 20.46875,6.03125 L20.46875,11.65625 C20.96875,11.765625 21.359375,11.953125 21.53125,12.125 L19.578125,13.609375 L18.71875,12.640625 L15.265625,12.640625 L15.265625,14.515625 L21.03125,14.515625 C21.359375,14.515625 21.59375,14.640625 21.625,14.90625 C21.28125,15.234375 20.828125,15.59375 20.46875,15.90625 C21.09375,16.375 21.859375,17.140625 22.3125,17.71875 C22.78125,17.734375 23.0625,17.78125 23.203125,17.953125 L21.4375,19.6875 L20.46875,18.671875 L9.359375,18.671875 C9.3125,19.03125 9.234375,19.421875 9.125,19.828125 Z M18.953125,7.03125 L15.265625,7.03125 L15.265625,9.21875 L18.953125,9.21875 Z M18.953125,9.90625 L15.265625,9.90625 L15.265625,11.953125 L18.953125,11.953125 Z M10.078125,7.03125 L10.078125,9.21875 L13.703125,9.21875 L13.703125,7.03125 Z M10.078125,9.90625 L10.078125,11.953125 L13.703125,11.953125 L13.703125,9.90625 Z M5.734375,8.921875 C6.390625,9.03125 6.75,9.21875 6.890625,9.390625 L4.84375,11.109375 L3.90625,9.859375 L0.984375,9.859375 L1.125,9.171875 L4.21875,9.171875 L4.21875,1.96875 C3,1.21875 1.734375,0.5 0.890625,0.125 L2.046875,-1.796875 C2.25,-1.703125 2.359375,-1.53125 2.296875,-1.25 C3.171875,-0.484375 4.53125,0.953125 5.421875,2.015625 C7.125,-0.71875 9.09375,-1.265625 13.53125,-1.265625 C16.25,-1.265625 19.5625,-1.265625 21.984375,-1.265625 C22.078125,-0.546875 22.484375,-0.125 23.1875,0.03125 L23.1875,0.359375 C20.234375,0.265625 16.390625,0.265625 13.515625,0.265625 C9.3125,0.265625 7.46875,0.546875 5.734375,2.515625 Z" transform="translate(-0.046875, 19.828125) scale(1, -1)"/>
</svg>