<svg height="21.625" viewBox="0 0 24 21.625" width="24" xmlns="http://www.w3.org/2000/svg">
<path d="M2.375,19.53125 L2.140625,19.3125 C3.171875,18.53125 4.421875,17.09375 4.75,15.90625 C6.3125,14.90625 7.3125,18.28125 2.375,19.53125 Z M1.46875,14.65625 L1.21875,14.453125 C2.375,13.6875 3.71875,12.28125 4.0625,11.140625 C5.734375,10.203125 6.578125,13.625 1.46875,14.65625 Z M5.421875,7.171875 C6.078125,7.25 6.4375,7.4375 6.59375,7.609375 L4.515625,9.34375 L3.59375,8.109375 L0.953125,8.109375 L1.109375,7.390625 L3.953125,7.390625 L3.953125,1.890625 C2.859375,1.171875 1.6875,0.5 0.90625,0.125 L2.046875,-1.796875 C2.25,-1.65625 2.359375,-1.515625 2.296875,-1.21875 C3.078125,-0.453125 4.34375,0.90625 5.140625,1.9375 C6.890625,-0.703125 8.859375,-1.265625 13.34375,-1.265625 C16.109375,-1.265625 19.515625,-1.265625 21.953125,-1.265625 C22.0625,-0.53125 22.484375,-0.09375 23.1875,0.03125 L23.1875,0.390625 C20.1875,0.28125 16.21875,0.28125 13.3125,0.28125 C9.078125,0.28125 7.171875,0.546875 5.421875,2.421875 Z M8.8125,19.828125 C8.90625,18.71875 8.296875,17.609375 7.5625,17.203125 C7.0625,16.9375 6.71875,16.46875 6.9375,15.9375 C7.171875,15.390625 7.9375,15.390625 8.5,15.71875 C9.03125,16.078125 9.484375,16.84375 9.5,17.96875 L20.40625,17.96875 C20.25,17.40625 20.0625,16.734375 19.875,16.21875 L19.703125,16.375 L18.640625,15.125 L15.265625,15.125 L15.265625,16.390625 C15.84375,16.484375 16.0625,16.734375 16.125,17.046875 L13.703125,17.328125 L13.703125,15.125 L7.828125,15.125 L8.015625,14.421875 L13.703125,14.421875 L13.703125,12.546875 L10.265625,12.546875 L8.640625,13.3125 L8.640625,5.46875 L8.859375,5.46875 C9.484375,5.46875 10.15625,5.8125 10.15625,5.96875 L10.15625,6.484375 L13.703125,6.484375 L13.703125,4.46875 L6.796875,4.46875 L6.984375,3.796875 L13.703125,3.796875 L13.703125,0.859375 L14.015625,0.859375 C14.59375,0.859375 15.265625,1.203125 15.265625,1.421875 L15.265625,3.796875 L22.21875,3.796875 C22.5625,3.796875 22.796875,3.90625 22.84375,4.171875 C22.078125,4.875 20.859375,5.828125 20.859375,5.828125 L19.78125,4.46875 L15.265625,4.46875 L15.265625,6.484375 L18.890625,6.484375 L18.890625,5.6875 L19.125,5.6875 C19.65625,5.6875 20.40625,6.046875 20.421875,6.21875 L20.421875,11.5625 C20.90625,11.65625 21.28125,11.859375 21.453125,12.046875 L19.53125,13.515625 L18.640625,12.546875 L15.265625,12.546875 L15.265625,14.421875 L21,14.421875 C21.3125,14.421875 21.546875,14.546875 21.578125,14.8125 C21.171875,15.171875 20.640625,15.625 20.25,15.9375 C20.90625,16.390625 21.703125,17.140625 22.15625,17.71875 C22.609375,17.734375 22.890625,17.78125 23.0625,17.953125 L21.265625,19.6875 L20.296875,18.671875 L9.484375,18.671875 C9.4375,19.03125 9.359375,19.421875 9.21875,19.828125 Z M18.890625,7.171875 L15.265625,7.171875 L15.265625,9.21875 L18.890625,9.21875 Z M18.890625,9.9375 L15.265625,9.9375 L15.265625,11.875 L18.890625,11.875 Z M10.15625,7.171875 L10.15625,9.21875 L13.703125,9.21875 L13.703125,7.171875 Z M10.15625,9.9375 L10.15625,11.875 L13.703125,11.875 L13.703125,9.9375 Z" transform="translate(-0.046875, 19.828125) scale(1, -1)"/>
</svg>