<svg height="21.953125" viewBox="0 0 24 21.953125" width="24" xmlns="http://www.w3.org/2000/svg">
<path d="M2.421875,19.53125 L2.1875,19.3125 C3.171875,18.578125 4.390625,17.234375 4.6875,16.109375 C6.28125,15.140625 7.25,18.5 2.421875,19.53125 Z M1.46875,14.65625 L1.21875,14.421875 C2.296875,13.703125 3.53125,12.40625 3.90625,11.296875 C5.546875,10.375 6.40625,13.78125 1.46875,14.65625 Z M17.421875,11.203125 L17.421875,8.296875 L13.609375,8.296875 L13.78125,7.578125 L17.421875,7.578125 L17.421875,3.359375 C17.421875,3.046875 17.359375,2.953125 16.984375,2.953125 C16.65625,2.953125 14.953125,3.078125 14.953125,3.078125 L14.953125,2.71875 C15.71875,2.59375 16.171875,2.421875 16.4375,2.1875 C16.6875,1.9375 16.75,1.515625 16.796875,1.078125 C18.703125,1.265625 18.90625,1.984375 18.90625,3.234375 L18.90625,7.578125 L22.53125,7.578125 C22.875,7.578125 23.09375,7.703125 23.15625,7.96875 C22.421875,8.6875 21.234375,9.640625 21.234375,9.640625 L20.1875,8.296875 L18.90625,8.296875 L18.90625,10.375 C19.46875,10.4375 19.703125,10.609375 19.75,10.9375 L19.3125,10.984375 C20.28125,11.515625 21.28125,12.28125 21.953125,12.84375 C22.421875,12.859375 22.734375,12.890625 22.921875,13.0625 L21.28125,14.5625 L20.375,13.6875 L14.8125,13.6875 L15.03125,12.984375 L20.234375,12.984375 C19.828125,12.359375 19.265625,11.609375 18.765625,11.0625 Z M9.171875,20.109375 L9.171875,16.3125 L6.046875,16.3125 L6.234375,15.625 L8.71875,15.625 C8.65625,11.09375 8.5625,6.1875 6.09375,1.9375 L6.453125,1.65625 C9.03125,4.46875 9.8125,7.890625 10.078125,11.515625 L12.046875,11.515625 C11.921875,6.125 11.6875,3.546875 11.203125,2.96875 C11.09375,2.828125 10.984375,2.8125 10.75,2.8125 C10.4375,2.8125 9.5,2.859375 8.921875,2.921875 L8.921875,2.515625 C9.484375,2.40625 10.0625,2.234375 10.296875,2.015625 C10.515625,1.828125 10.609375,1.421875 10.609375,1.078125 C11.234375,1.125 11.78125,1.3125 12.21875,1.734375 C13.109375,2.640625 13.34375,5.375 13.515625,11.359375 C13.96875,11.421875 14.25,11.546875 14.421875,11.734375 L12.671875,13.15625 L11.859375,12.21875 L10.125,12.21875 C10.203125,13.34375 10.21875,14.46875 10.25,15.625 L13.875,15.625 C14.203125,15.625 14.453125,15.75 14.5,16.015625 C13.84375,16.65625 12.796875,17.515625 12.796875,17.515625 L11.875,16.3125 L10.703125,16.3125 L10.703125,19.265625 C11.234375,19.375 11.453125,19.578125 11.46875,19.890625 Z M15.703125,20.15625 C15.234375,17.609375 14.375,15 13.4375,13.25 L13.796875,13.03125 C14.640625,13.875 15.4375,14.96875 16.078125,16.21875 L22.421875,16.21875 C22.75,16.21875 22.984375,16.34375 23.046875,16.609375 C22.296875,17.296875 21.078125,18.28125 21.078125,18.28125 L19.984375,16.890625 L16.421875,16.890625 C16.734375,17.5625 17.046875,18.28125 17.28125,19.015625 C17.8125,19.015625 18.046875,19.21875 18.140625,19.53125 Z M5.296875,7.171875 C5.953125,7.25 6.3125,7.4375 6.484375,7.609375 L4.4375,9.3125 L3.53125,8.09375 L0.953125,8.09375 L1.109375,7.390625 L3.859375,7.390625 L3.859375,1.84375 C2.78125,1.125 1.65625,0.4375 0.90625,0.046875 L2.015625,-1.796875 C2.234375,-1.6875 2.296875,-1.515625 2.25,-1.21875 C3.03125,-0.484375 4.25,0.890625 5.046875,1.921875 C6.765625,-0.71875 8.78125,-1.265625 13.296875,-1.265625 C16.078125,-1.265625 19.515625,-1.265625 22.015625,-1.265625 C22.109375,-0.578125 22.515625,-0.171875 23.1875,-0.046875 L23.1875,0.28125 C20.1875,0.1875 16.21875,0.1875 13.265625,0.1875 C9,0.1875 7.078125,0.5 5.296875,2.421875 Z" transform="translate(-0.046875, 20.15625) scale(1, -1)"/>
</svg>