<svg height="21.90625" viewBox="0 0 24 21.90625" width="24" xmlns="http://www.w3.org/2000/svg">
<path d="M1.734375,19.390625 L1.46875,19.203125 C2.6875,18.140625 4.109375,16.296875 4.421875,14.8125 C6.1875,13.484375 7.515625,17.453125 1.734375,19.390625 Z M19.6875,8.234375 L19.6875,6.1875 L12.75,6.1875 L12.75,8.234375 Z M19.6875,8.953125 L12.75,8.953125 L12.75,10.96875 L19.6875,10.96875 Z M19.6875,5.5 L19.6875,3.34375 L12.75,3.34375 L12.75,5.5 Z M15.234375,17.546875 L15.234375,14.765625 L10.015625,14.765625 L10.015625,17.421875 C13.75,17.515625 17.90625,18 20.6875,18.453125 C21.234375,18.21875 21.671875,18.21875 21.90625,18.40625 L20.1875,20.109375 C17.90625,19.34375 13.6875,18.40625 10.109375,17.90625 L8.5,18.484375 L8.5,12.71875 C8.5,9.1875 8.375,5.296875 6.53125,2.09375 L6.890625,1.796875 C9.8125,4.9375 10.015625,9.4375 10.015625,12.75 L10.015625,14.140625 L10.03125,14.046875 L15.234375,14.046875 L15.21875,11.6875 L12.859375,11.6875 L11.28125,12.40625 L11.28125,1.296875 L11.515625,1.296875 C12.171875,1.296875 12.75,1.65625 12.75,1.796875 L12.75,2.65625 L19.6875,2.65625 L19.6875,1.578125 L19.921875,1.578125 C20.421875,1.578125 21.1875,1.96875 21.21875,2.109375 L21.21875,10.75 C21.625,10.828125 21.984375,11.015625 22.109375,11.1875 L20.296875,12.578125 L19.484375,11.6875 L16.421875,11.6875 L16.6875,14.046875 L22.46875,14.046875 C22.796875,14.046875 23.015625,14.15625 23.09375,14.421875 C22.3125,15.171875 21.046875,16.125 21.046875,16.125 L19.9375,14.765625 L16.75,14.765625 L16.921875,16.6875 C17.40625,16.734375 17.6875,16.984375 17.734375,17.359375 Z M5.734375,8.921875 C6.390625,9.03125 6.75,9.21875 6.890625,9.390625 L4.84375,11.109375 L3.90625,9.859375 L0.984375,9.859375 L1.125,9.171875 L4.21875,9.171875 L4.21875,1.96875 C3,1.21875 1.734375,0.5 0.890625,0.125 L2.046875,-1.796875 C2.25,-1.703125 2.359375,-1.53125 2.296875,-1.25 C3.171875,-0.484375 4.53125,0.953125 5.421875,2.015625 C7.15625,-0.71875 9.09375,-1.265625 13.53125,-1.265625 C16.25,-1.265625 19.578125,-1.265625 22.015625,-1.265625 C22.078125,-0.546875 22.515625,-0.125 23.203125,0.03125 L23.203125,0.359375 C20.25,0.265625 16.390625,0.265625 13.515625,0.265625 C9.3125,0.265625 7.46875,0.546875 5.734375,2.515625 Z" transform="translate(-0.046875, 20.109375) scale(1, -1)"/>
</svg>