<svg height="21.890625" viewBox="0 0 24 21.890625" width="24" xmlns="http://www.w3.org/2000/svg">
<path d="M6.796875,18.71875 L6.984375,18.03125 L22.34375,18.03125 C22.6875,18.03125 22.921875,18.140625 22.984375,18.390625 C22.171875,19.109375 20.921875,20.09375 20.921875,20.09375 L19.796875,18.71875 Z M1.734375,19.390625 L1.4375,19.203125 C2.65625,18.140625 4.078125,16.296875 4.375,14.8125 C6.171875,13.515625 7.46875,17.453125 1.734375,19.390625 Z M19.5625,15.390625 L19.5625,12.71875 L10.015625,12.71875 L10.015625,13.421875 L10.015625,15.390625 Z M8.546875,16.109375 L8.546875,13.390625 C8.546875,9.953125 8.296875,5.859375 6.140625,2.421875 L6.453125,2.140625 C8.546875,4.265625 9.40625,7.015625 9.765625,9.5 L9.765625,1.15625 L9.984375,1.15625 C10.5625,1.15625 11.15625,1.484375 11.15625,1.625 L11.15625,5.609375 L13.296875,5.609375 L13.296875,1.421875 L13.484375,1.421875 C14.15625,1.421875 14.609375,1.75 14.609375,1.84375 L14.609375,5.609375 L16.828125,5.609375 L16.828125,1.421875 L17.015625,1.421875 C17.71875,1.421875 18.171875,1.75 18.171875,1.84375 L18.171875,5.609375 L20.40625,5.609375 L20.40625,3.21875 C20.40625,2.921875 20.328125,2.828125 20.0625,2.828125 C19.75,2.828125 18.8125,2.90625 18.8125,2.90625 L18.8125,2.546875 C19.375,2.453125 19.65625,2.28125 19.796875,2.09375 C20.015625,1.875 20.046875,1.484375 20.0625,1.109375 C21.640625,1.265625 21.859375,1.921875 21.859375,3.046875 L21.859375,8.875 C22.34375,8.921875 22.75,9.171875 22.890625,9.34375 L20.921875,10.78125 L20.15625,9.859375 L11.28125,9.859375 L9.890625,10.53125 L9.984375,12.03125 L19.5625,12.03125 L19.5625,11.328125 L19.796875,11.328125 C20.296875,11.328125 21.078125,11.6875 21.09375,11.828125 L21.09375,15.171875 C21.5,15.234375 21.84375,15.4375 21.984375,15.59375 L20.15625,16.96875 L19.375,16.109375 L10.296875,16.109375 L8.546875,16.875 Z M20.40625,6.3125 L18.171875,6.3125 L18.171875,9.171875 L20.40625,9.171875 Z M11.15625,6.3125 L11.15625,9.171875 L13.296875,9.171875 L13.296875,6.3125 Z M14.609375,6.3125 L14.609375,9.171875 L16.828125,9.171875 L16.828125,6.3125 Z M5.6875,8.921875 C6.34375,9.03125 6.703125,9.21875 6.84375,9.390625 L4.796875,11.09375 L3.859375,9.859375 L1.015625,9.859375 L1.15625,9.171875 L4.203125,9.171875 L4.203125,1.984375 C3,1.25 1.703125,0.5 0.890625,0.125 L2.046875,-1.796875 C2.234375,-1.6875 2.359375,-1.53125 2.28125,-1.25 C3.125,-0.484375 4.484375,0.953125 5.375,2.015625 C7.078125,-0.71875 9.046875,-1.265625 13.484375,-1.265625 C16.171875,-1.265625 19.515625,-1.265625 21.9375,-1.265625 C22.015625,-0.546875 22.4375,-0.125 23.140625,0 L23.140625,0.359375 C20.1875,0.265625 16.3125,0.234375 13.46875,0.265625 C9.265625,0.265625 7.390625,0.546875 5.6875,2.515625 Z" transform="translate(-0.015625, 20.09375) scale(1, -1)"/>
</svg>