<svg height="21.546875" viewBox="0 0 24 21.546875" width="24" xmlns="http://www.w3.org/2000/svg">
<path d="M2.140625,19.390625 L1.875,19.203125 C3.09375,18.140625 4.515625,16.296875 4.828125,14.8125 C6.59375,13.484375 7.890625,17.453125 2.140625,19.390625 Z M10.109375,5.90625 L11.09375,4.078125 C11.296875,4.125 11.515625,4.265625 11.640625,4.578125 C14.453125,5.0625 16.53125,5.46875 18.046875,5.765625 C18.234375,5.28125 18.359375,4.796875 18.359375,4.34375 C19.609375,3.1875 21,6.03125 17.046875,8.109375 L16.78125,7.9375 C17.15625,7.515625 17.546875,6.90625 17.828125,6.265625 L15.703125,6.140625 L15.703125,8.96875 L20.5,8.96875 L20.5,3.453125 C20.5,3.125 20.375,2.96875 19.9375,2.96875 C19.421875,2.96875 17.0625,3.140625 17.0625,3.140625 L17.0625,2.8125 C18.09375,2.6875 18.703125,2.46875 19.0625,2.25 C19.375,2.046875 19.515625,1.6875 19.5625,1.265625 C21.71875,1.46875 21.984375,2.1875 21.984375,3.3125 L21.984375,8.6875 C22.46875,8.78125 22.875,8.96875 23.015625,9.140625 L21.03125,10.65625 L20.25,9.703125 L15.703125,9.703125 L15.703125,11.90625 L19.375,11.90625 L19.375,10.890625 L19.578125,10.890625 C20.09375,10.890625 20.859375,11.28125 20.875,11.421875 L20.875,17.8125 C21.359375,17.90625 21.75,18.09375 21.890625,18.265625 L19.96875,19.75 L19.125,18.796875 L10.828125,18.796875 L9.21875,19.53125 L9.21875,10.6875 L9.453125,10.6875 C10.078125,10.6875 10.703125,11.046875 10.703125,11.1875 L10.703125,11.90625 L14.203125,11.90625 L14.203125,9.703125 L9.765625,9.703125 L8.15625,10.4375 L8.15625,1.34375 L8.40625,1.34375 C9,1.34375 9.640625,1.703125 9.640625,1.875 L9.640625,8.96875 L14.203125,8.96875 L14.203125,6.078125 C12.453125,5.96875 10.984375,5.921875 10.109375,5.90625 Z M14.203125,15.046875 L14.203125,12.59375 L10.703125,12.59375 L10.703125,15.046875 Z M14.203125,15.71875 L10.703125,15.71875 L10.703125,18.09375 L14.203125,18.09375 Z M15.703125,15.046875 L19.375,15.046875 L19.375,12.59375 L15.703125,12.59375 Z M15.703125,15.71875 L15.703125,18.09375 L19.375,18.09375 L19.375,15.71875 Z M5.734375,8.921875 C6.390625,9.03125 6.75,9.21875 6.890625,9.390625 L4.84375,11.109375 L3.90625,9.859375 L0.984375,9.859375 L1.125,9.171875 L4.21875,9.171875 L4.21875,1.96875 C3,1.21875 1.734375,0.5 0.890625,0.125 L2.046875,-1.796875 C2.25,-1.703125 2.359375,-1.53125 2.296875,-1.25 C3.171875,-0.484375 4.53125,0.953125 5.421875,2.015625 C7.125,-0.71875 9.09375,-1.265625 13.515625,-1.265625 C16.203125,-1.265625 19.53125,-1.265625 21.9375,-1.265625 C22.03125,-0.546875 22.4375,-0.125 23.140625,0.03125 L23.140625,0.359375 C20.203125,0.265625 16.34375,0.265625 13.484375,0.265625 C9.3125,0.265625 7.46875,0.546875 5.734375,2.515625 Z" transform="translate(-0.015625, 19.75) scale(1, -1)"/>
</svg>