<svg height="21.6875" viewBox="0 0 24 21.6875" width="24" xmlns="http://www.w3.org/2000/svg">
<path d="M2.421875,18.984375 L2.15625,18.796875 C3.390625,17.734375 4.78125,15.890625 5.09375,14.40625 C6.859375,13.109375 8.1875,17.046875 2.421875,18.984375 Z M10.03125,18.84375 L10.03125,11.90625 L9.625,11.90625 L8.046875,12.640625 L8.046875,1.65625 L8.28125,1.65625 C8.90625,1.65625 9.5,1.984375 9.5,2.15625 L9.5,11.1875 L20.203125,11.1875 L20.203125,3.21875 C20.203125,2.953125 20.109375,2.78125 19.78125,2.78125 C19.390625,2.78125 17.8125,2.921875 17.8125,2.921875 L17.8125,2.5625 C18.578125,2.453125 18.984375,2.328125 19.25,2.109375 C19.515625,1.9375 19.578125,1.625 19.609375,1.265625 C21.453125,1.4375 21.671875,2.046875 21.671875,3.125 L21.671875,10.984375 C22.078125,11.0625 22.4375,11.25 22.5625,11.421875 L20.71875,12.765625 L19.984375,11.90625 L19.4375,11.90625 L19.4375,17.953125 C20.0625,18.03125 20.359375,18.140625 20.546875,18.390625 L18.5,19.890625 L17.6875,18.84375 L11.765625,18.84375 L10.03125,19.609375 Z M14.015625,15.703125 L14.015625,11.90625 L11.46875,11.90625 L11.46875,18.140625 L17.96875,18.140625 L17.96875,15.703125 L15.640625,15.703125 L14.015625,16.4375 Z M17.96875,11.90625 L15.359375,11.90625 L15.359375,15.03125 L17.96875,15.03125 Z M11.828125,9.28125 L11.828125,3.359375 L12.046875,3.359375 C12.59375,3.359375 13.171875,3.671875 13.171875,3.796875 L13.171875,4.78125 L16.578125,4.78125 L16.578125,3.671875 L16.78125,3.671875 C17.234375,3.671875 17.921875,4.015625 17.953125,4.171875 L17.953125,8.46875 C18.28125,8.515625 18.59375,8.6875 18.703125,8.859375 L17.140625,10.0625 L16.421875,9.28125 L13.296875,9.28125 L11.828125,9.953125 Z M13.171875,5.5 L13.171875,8.59375 L16.578125,8.59375 L16.578125,5.5 Z M5.734375,8.921875 C6.390625,9.03125 6.75,9.21875 6.890625,9.390625 L4.84375,11.109375 L3.90625,9.859375 L0.984375,9.859375 L1.125,9.171875 L4.21875,9.171875 L4.21875,1.96875 C3,1.21875 1.734375,0.5 0.890625,0.125 L2.046875,-1.796875 C2.25,-1.703125 2.359375,-1.53125 2.296875,-1.25 C3.171875,-0.484375 4.53125,0.953125 5.421875,2.015625 C7.125,-0.71875 9.09375,-1.265625 13.53125,-1.265625 C16.21875,-1.265625 19.5625,-1.265625 21.953125,-1.265625 C22.0625,-0.546875 22.46875,-0.125 23.15625,0.03125 L23.15625,0.359375 C20.234375,0.265625 16.375,0.265625 13.515625,0.265625 C9.3125,0.265625 7.46875,0.546875 5.734375,2.515625 Z" transform="translate(-0.0234375, 19.890625) scale(1, -1)"/>
</svg>