<svg height="21.953125" viewBox="0 0 24 21.953125" width="24" xmlns="http://www.w3.org/2000/svg">
<path d="M1.734375,19.390625 L1.46875,19.203125 C2.65625,18.140625 4.078125,16.296875 4.390625,14.8125 C6.171875,13.484375 7.484375,17.453125 1.734375,19.390625 Z M19.96875,14.40625 C19.25,13.296875 17.765625,11.5 16.53125,10.265625 C15.953125,11.515625 15.09375,12.75 13.875,13.796875 C14.5,14.28125 15.046875,14.78125 15.546875,15.3125 L22.34375,15.3125 C22.6875,15.3125 22.921875,15.4375 22.984375,15.703125 C22.171875,16.46875 20.875,17.453125 20.875,17.453125 L19.734375,16.03125 L16.46875,16.03125 C17.421875,16.984375 18.390625,18.09375 19.015625,18.984375 C19.515625,18.953125 19.828125,19.15625 19.921875,19.421875 L17.40625,20.15625 C17.015625,18.9375 16.375,17.28125 15.71875,16.03125 L12.484375,16.03125 C13.265625,16.5625 13.171875,18.671875 9.84375,20.0625 L9.546875,19.921875 C10.375,18.953125 11.28125,17.40625 11.40625,16.171875 L11.609375,16.03125 L6.9375,16.03125 L7.125,15.3125 L13.34375,15.3125 C11.859375,13.65625 9.71875,12.09375 7.34375,11.015625 L7.578125,10.609375 C9.765625,11.328125 11.78125,12.28125 13.46875,13.484375 C13.703125,13.203125 13.921875,12.890625 14.109375,12.59375 C12.53125,10.515625 9.796875,8.453125 7.265625,7.265625 L7.4375,6.890625 C10.125,7.828125 13.03125,9.453125 14.921875,11.109375 C15.125,10.703125 15.265625,10.296875 15.390625,9.859375 C13.484375,7.21875 10.03125,4.75 6.75,3.390625 L6.9375,2.96875 C10.125,4.03125 13.515625,5.875 15.796875,7.890625 C15.984375,5.875 15.546875,4.125 14.765625,3.390625 C14.5625,3.1875 14.359375,3.171875 14.046875,3.171875 C13.46875,3.171875 11.640625,3.265625 10.65625,3.34375 L10.65625,2.96875 C11.546875,2.828125 12.4375,2.59375 12.71875,2.40625 C13.015625,2.15625 13.125,1.84375 13.15625,1.375 C14.5,1.375 15.34375,1.609375 15.84375,2.109375 C17.25,3.28125 17.875,6.3125 16.890625,9.34375 C18.71875,7.84375 20.8125,5.6875 21.5,4.015625 C23.46875,2.828125 24.265625,6.984375 16.96875,9.984375 C18.5,10.84375 20.15625,12.03125 21.1875,12.890625 C21.703125,12.765625 21.90625,12.84375 22.0625,13.078125 Z M5.734375,8.921875 C6.390625,9.03125 6.75,9.21875 6.890625,9.390625 L4.84375,11.109375 L3.90625,9.859375 L0.984375,9.859375 L1.125,9.171875 L4.21875,9.171875 L4.21875,1.96875 C3,1.21875 1.734375,0.5 0.890625,0.125 L2.046875,-1.796875 C2.25,-1.703125 2.359375,-1.53125 2.296875,-1.25 C3.171875,-0.484375 4.53125,0.953125 5.421875,2.015625 C7.125,-0.71875 9.09375,-1.265625 13.515625,-1.265625 C16.203125,-1.265625 19.53125,-1.265625 21.9375,-1.265625 C22.03125,-0.546875 22.4375,-0.125 23.140625,0.03125 L23.140625,0.359375 C20.203125,0.265625 16.34375,0.265625 13.484375,0.265625 C9.3125,0.265625 7.46875,0.546875 5.734375,2.515625 Z" transform="translate(-0.578125, 20.15625) scale(1, -1)"/>
</svg>