<svg height="21.921875" viewBox="0 0 24 21.921875" width="24" xmlns="http://www.w3.org/2000/svg">
<path d="M1.578125,19.4375 L1.3125,19.25 C2.421875,18.171875 3.71875,16.34375 3.984375,14.875 C5.734375,13.609375 7.078125,17.359375 1.578125,19.4375 Z M9.140625,20.109375 L9.140625,16.3125 L6.125,16.3125 L6.3125,15.625 L8.375,15.625 C8.46875,10.375 8.25,5.96875 5.78125,2.09375 L5.96875,1.875 C5.765625,2.046875 5.546875,2.25 5.328125,2.5 L5.328125,8.921875 C5.953125,9.03125 6.3125,9.21875 6.484375,9.40625 L4.4375,11.09375 L3.53125,9.859375 L0.90625,9.859375 L1.0625,9.171875 L3.84375,9.171875 L3.84375,1.890625 C2.765625,1.171875 1.609375,0.484375 0.859375,0.09375 L2.015625,-1.78125 C2.1875,-1.6875 2.296875,-1.515625 2.234375,-1.21875 C3,-0.453125 4.25,0.9375 5.046875,1.984375 C6.765625,-0.703125 8.78125,-1.265625 13.296875,-1.265625 C16.109375,-1.265625 19.515625,-1.265625 22.015625,-1.265625 C22.109375,-0.546875 22.53125,-0.125 23.203125,0 L23.203125,0.359375 C20.203125,0.265625 16.21875,0.234375 13.296875,0.265625 C9.578125,0.265625 7.65625,0.484375 6.078125,1.796875 C8.5625,4.578125 9.4375,7.828125 9.71875,11.71875 L12.125,11.71875 C12,6.40625 11.78125,3.90625 11.328125,3.34375 C11.1875,3.1875 11.09375,3.140625 10.875,3.140625 C10.5625,3.140625 9.625,3.21875 9.078125,3.28125 L9.046875,2.875 C9.625,2.78125 10.203125,2.5625 10.421875,2.40625 C10.625,2.1875 10.75,1.78125 10.75,1.46875 C11.375,1.515625 11.90625,1.6875 12.34375,2.09375 C13.203125,2.953125 13.4375,5.65625 13.578125,11.546875 C14.046875,11.609375 14.328125,11.734375 14.5,11.921875 L12.75,13.34375 L11.90625,12.40625 L9.765625,12.40625 C9.8125,13.4375 9.84375,14.5 9.859375,15.625 L13.890625,15.625 C14.203125,15.625 14.453125,15.75 14.515625,16.015625 C13.84375,16.65625 12.796875,17.515625 12.796875,17.515625 L11.875,16.3125 L10.6875,16.3125 L10.6875,19.265625 C11.1875,19.375 11.40625,19.578125 11.453125,19.890625 Z M17.375,11.328125 L17.375,8.5625 L13.625,8.5625 L13.796875,7.84375 L17.375,7.84375 L17.375,3.578125 C17.375,3.265625 17.296875,3.140625 16.9375,3.140625 C16.578125,3.140625 14.875,3.28125 14.875,3.28125 L14.875,2.921875 C15.640625,2.8125 16.109375,2.640625 16.390625,2.40625 C16.625,2.15625 16.703125,1.75 16.75,1.3125 C18.640625,1.515625 18.859375,2.234375 18.859375,3.484375 L18.859375,7.84375 L22.484375,7.84375 C22.828125,7.84375 23.0625,7.96875 23.140625,8.234375 C22.390625,8.953125 21.21875,9.90625 21.21875,9.90625 L20.15625,8.5625 L18.859375,8.5625 L18.859375,10.46875 C19.390625,10.53125 19.625,10.734375 19.6875,11.0625 L18.984375,11.140625 C19.96875,11.6875 21.03125,12.453125 21.71875,13.03125 C22.171875,13.0625 22.515625,13.078125 22.6875,13.25 L21.046875,14.765625 L20.140625,13.84375 L14.859375,13.84375 L15.078125,13.171875 L19.96875,13.171875 C19.53125,12.53125 18.953125,11.78125 18.40625,11.203125 Z M15.890625,20.140625 C15.5,17.6875 14.640625,15.34375 13.609375,13.78125 L13.96875,13.53125 C14.8125,14.234375 15.546875,15.171875 16.203125,16.25 L22.3125,16.25 C22.65625,16.25 22.890625,16.375 22.9375,16.625 C22.203125,17.328125 20.96875,18.3125 20.96875,18.3125 L19.890625,16.921875 L16.5625,16.921875 C16.890625,17.5625 17.203125,18.265625 17.453125,19.015625 C17.96875,19.015625 18.234375,19.21875 18.34375,19.515625 Z" transform="translate(-0.03125, 20.140625) scale(1, -1)"/>
</svg>