<svg height="21.9375" viewBox="0 0 24 21.9375" width="24" xmlns="http://www.w3.org/2000/svg">
<path d="M2.453125,19.515625 L2.203125,19.296875 C3.1875,18.546875 4.421875,17.234375 4.703125,16.109375 C6.28125,15.171875 7.21875,18.453125 2.453125,19.515625 Z M1.4375,14.609375 L1.203125,14.40625 C2.25,13.6875 3.5,12.40625 3.890625,11.296875 C5.46875,10.390625 6.28125,13.734375 1.4375,14.609375 Z M19.609375,15.34375 L19.609375,12.75 L10.109375,12.75 L10.109375,13.828125 L10.109375,15.34375 Z M19.421875,20.140625 C17.328125,19.4375 13.609375,18.625 10.296875,18.21875 L8.609375,18.75 L8.609375,13.84375 C8.609375,10.15625 8.40625,5.921875 6.21875,2.375 L6.578125,2.109375 C8.5625,4.171875 9.4375,6.796875 9.8125,9.265625 L9.8125,1.203125 L10.0625,1.203125 C10.625,1.203125 11.25,1.53125 11.25,1.6875 L11.25,5.71875 L13.34375,5.71875 L13.34375,1.4375 L13.5625,1.4375 C14.234375,1.4375 14.6875,1.78125 14.6875,1.875 L14.6875,5.71875 L16.84375,5.71875 L16.84375,1.4375 L17.0625,1.4375 C17.765625,1.4375 18.21875,1.78125 18.21875,1.875 L18.21875,5.71875 L20.421875,5.71875 L20.421875,3.21875 C20.421875,2.953125 20.359375,2.828125 20.09375,2.828125 C19.78125,2.828125 18.84375,2.921875 18.84375,2.921875 L18.84375,2.546875 C19.375,2.453125 19.65625,2.296875 19.828125,2.109375 C20.015625,1.875 20.0625,1.515625 20.09375,1.109375 C21.671875,1.296875 21.859375,1.921875 21.859375,3.078125 L21.859375,8.921875 C22.34375,8.96875 22.75,9.1875 22.890625,9.359375 L20.921875,10.828125 L20.1875,9.90625 L11.375,9.90625 L9.984375,10.5625 L10.078125,12.046875 L19.609375,12.046875 L19.609375,11.375 L19.84375,11.375 C20.328125,11.375 21.09375,11.71875 21.125,11.875 L21.125,15.125 C21.546875,15.1875 21.890625,15.390625 22.03125,15.546875 L20.203125,16.921875 L19.390625,16.0625 L10.109375,16.0625 L10.109375,17.640625 C13.578125,17.734375 17.328125,18.125 19.875,18.53125 C20.421875,18.28125 20.859375,18.28125 21.078125,18.484375 Z M20.421875,6.40625 L18.21875,6.40625 L18.21875,9.1875 L20.421875,9.1875 Z M11.25,6.40625 L11.25,9.1875 L13.34375,9.1875 L13.34375,6.40625 Z M14.6875,6.40625 L14.6875,9.1875 L16.84375,9.1875 L16.84375,6.40625 Z M5.296875,7.125 C5.953125,7.203125 6.3125,7.421875 6.484375,7.5625 L4.4375,9.265625 L3.53125,8.0625 L0.953125,8.0625 L1.109375,7.34375 L3.859375,7.34375 L3.859375,1.84375 C2.78125,1.125 1.65625,0.4375 0.90625,0.046875 L2.015625,-1.796875 C2.234375,-1.6875 2.296875,-1.515625 2.25,-1.21875 C3.03125,-0.484375 4.25,0.890625 5.046875,1.921875 C6.765625,-0.71875 8.78125,-1.265625 13.296875,-1.265625 C16.078125,-1.265625 19.515625,-1.265625 22.015625,-1.265625 C22.109375,-0.578125 22.515625,-0.171875 23.1875,-0.046875 L23.1875,0.28125 C20.1875,0.1875 16.21875,0.1875 13.265625,0.1875 C9,0.1875 7.078125,0.5 5.296875,2.421875 Z" transform="translate(-0.046875, 20.140625) scale(1, -1)"/>
</svg>