<svg height="21.8125" viewBox="0 0 24 21.8125" width="24" xmlns="http://www.w3.org/2000/svg">
<path d="M19.6875,7.375 L19.390625,7.203125 C20.234375,6.03125 21.265625,4.171875 21.453125,2.734375 C22.890625,1.484375 24.3125,4.6875 19.6875,7.375 Z M14.515625,7.421875 C13.921875,5.421875 12.984375,3.5 12.03125,2.28125 L12.390625,2.015625 C13.6875,2.96875 14.90625,4.484375 15.796875,6.234375 C16.265625,6.1875 16.5625,6.390625 16.65625,6.671875 Z M2.40625,19.5625 L2.15625,19.34375 C3.171875,18.59375 4.421875,17.234375 4.734375,16.109375 C6.359375,15.171875 7.265625,18.53125 2.40625,19.5625 Z M1.421875,14.65625 L1.171875,14.453125 C2.28125,13.703125 3.578125,12.40625 3.953125,11.296875 C5.59375,10.421875 6.359375,13.828125 1.421875,14.65625 Z M20.71875,20.015625 C19.21875,19.15625 16.265625,17.90625 13.84375,17.28125 L13.984375,16.875 C14.953125,16.96875 15.984375,17.15625 16.96875,17.359375 C16.53125,16.21875 15.984375,15.09375 15.5,14.234375 C14.96875,14.515625 14.234375,14.78125 13.265625,14.953125 L13.03125,14.734375 C14.015625,14.0625 15.265625,12.84375 15.640625,11.875 C16.78125,11.234375 17.515625,12.703125 16.078125,13.84375 C16.890625,14.546875 17.734375,15.453125 18.453125,16.375 C18.90625,16.296875 19.21875,16.484375 19.34375,16.734375 L17.5625,17.46875 C19.015625,17.8125 20.375,18.1875 21.390625,18.53125 C21.890625,18.34375 22.296875,18.34375 22.515625,18.578125 Z M19.890625,15.453125 C18.84375,13.734375 17.15625,11.421875 15.59375,9.71875 L12.71875,9.671875 L13.578125,7.875 C13.796875,7.921875 14.015625,8.046875 14.15625,8.359375 L17.0625,8.765625 L17.0625,1.265625 L17.296875,1.265625 C18.046875,1.265625 18.546875,1.578125 18.546875,1.6875 L18.546875,8.953125 L21.03125,9.34375 C21.28125,8.875 21.5,8.40625 21.578125,7.96875 C23.015625,6.890625 24.28125,9.890625 19.828125,11.359375 L19.578125,11.140625 C19.9375,10.796875 20.359375,10.34375 20.6875,9.859375 L16.46875,9.75 C18.1875,11.09375 19.96875,12.84375 21.09375,14.203125 C21.625,14.140625 21.9375,14.28125 22.078125,14.5625 Z M6.078125,10.03125 L7.109375,8.296875 C7.3125,8.40625 7.484375,8.609375 7.53125,8.875 L9.34375,9.75 L9.34375,3.59375 C9.34375,3.3125 9.234375,3.1875 8.875,3.1875 C8.5625,3.1875 6.90625,3.34375 6.90625,3.34375 L6.90625,2.96875 C7.65625,2.859375 8.09375,2.6875 8.375,2.453125 C8.609375,2.203125 8.6875,1.796875 8.734375,1.375 C10.609375,1.5625 10.796875,2.28125 10.796875,3.5 L10.796875,10.484375 L13.9375,12.125 L13.796875,12.484375 L10.796875,11.46875 L10.796875,14.359375 C11.375,14.453125 11.59375,14.640625 11.65625,14.96875 L11.0625,15.046875 C12.03125,15.9375 12.984375,17.15625 13.625,17.953125 C14.0625,17.96875 14.375,18.03125 14.546875,18.1875 L12.90625,19.734375 L11.96875,18.796875 L6.75,18.796875 L6.953125,18.09375 L11.953125,18.09375 C11.5625,17.203125 10.96875,16.03125 10.390625,15.125 L9.34375,15.234375 L9.34375,11.015625 C7.921875,10.5625 6.765625,10.203125 6.078125,10.03125 Z M5.359375,7.15625 C6,7.21875 6.359375,7.4375 6.5,7.578125 L4.46875,9.3125 L3.546875,8.09375 L0.953125,8.09375 L1.109375,7.375 L3.890625,7.375 L3.890625,1.84375 C2.78125,1.15625 1.65625,0.453125 0.90625,0.078125 L2.046875,-1.796875 C2.234375,-1.65625 2.328125,-1.515625 2.28125,-1.21875 C3.046875,-0.453125 4.265625,0.90625 5.0625,1.921875 C6.8125,-0.71875 8.8125,-1.265625 13.296875,-1.265625 C16.078125,-1.265625 19.484375,-1.265625 21.953125,-1.265625 C22.078125,-0.546875 22.484375,-0.125 23.1875,0 L23.1875,0.34375 C20.1875,0.234375 16.203125,0.234375 13.265625,0.234375 C9.03125,0.234375 7.109375,0.53125 5.359375,2.421875 Z" transform="translate(-0.609375, 20.015625) scale(1, -1)"/>
</svg>