<svg height="21.953125" viewBox="0 0 24 21.953125" width="24" xmlns="http://www.w3.org/2000/svg">
<path d="M2.015625,19.390625 L1.75,19.203125 C2.953125,18.140625 4.375,16.296875 4.6875,14.8125 C6.453125,13.484375 7.75,17.453125 2.015625,19.390625 Z M5.734375,8.921875 C6.390625,9.03125 6.75,9.21875 6.890625,9.390625 L4.84375,11.109375 L3.90625,9.859375 L0.984375,9.859375 L1.125,9.171875 L4.21875,9.171875 L4.21875,1.96875 C3,1.21875 1.734375,0.5 0.890625,0.125 L2.046875,-1.796875 C2.25,-1.703125 2.359375,-1.53125 2.296875,-1.25 C3.171875,-0.484375 4.53125,0.953125 5.421875,2.015625 C7.125,-0.71875 9.09375,-1.265625 13.515625,-1.265625 C16.203125,-1.265625 19.53125,-1.265625 21.9375,-1.265625 C22.03125,-0.546875 22.4375,-0.125 23.140625,0.03125 L23.140625,0.359375 C20.203125,0.265625 16.34375,0.265625 13.484375,0.265625 C9.3125,0.265625 7.46875,0.546875 5.734375,2.515625 Z M7.46875,10.390625 L7.65625,9.703125 L13.734375,9.703125 L13.734375,7.390625 L8.109375,7.390625 L8.296875,6.703125 L13.734375,6.703125 L13.734375,4.390625 L7.015625,4.390625 L7.203125,3.703125 L13.734375,3.703125 L13.734375,0.796875 L13.984375,0.796875 C14.78125,0.796875 15.3125,1.15625 15.3125,1.265625 L15.3125,3.703125 L22.078125,3.703125 C22.4375,3.703125 22.65625,3.8125 22.734375,4.078125 C21.953125,4.75 20.765625,5.6875 20.765625,5.6875 L19.703125,4.390625 L15.3125,4.390625 L15.3125,6.703125 L20.8125,6.703125 C21.140625,6.703125 21.359375,6.8125 21.40625,7.078125 C20.6875,7.734375 19.5625,8.609375 19.5625,8.609375 L18.578125,7.390625 L15.3125,7.390625 L15.3125,9.703125 L21.40625,9.703125 C21.71875,9.703125 21.953125,9.8125 22.015625,10.078125 C21.28125,10.734375 20.109375,11.640625 20.109375,11.640625 L19.125,10.390625 L16.5625,10.390625 C17.375,11.1875 18.21875,12.171875 18.765625,12.984375 C19.265625,12.953125 19.5625,13.15625 19.6875,13.4375 L17.828125,13.921875 L22.34375,13.921875 C22.6875,13.921875 22.890625,14.046875 22.96875,14.296875 C22.21875,15 21,15.90625 21,15.90625 L19.921875,14.609375 L15.3125,14.609375 L15.3125,16.9375 L20.734375,16.9375 C21.078125,16.9375 21.3125,17.0625 21.390625,17.328125 C20.640625,18.03125 19.46875,18.90625 19.46875,18.90625 L18.4375,17.65625 L15.3125,17.65625 L15.3125,19.390625 C15.75,19.46875 15.9375,19.65625 15.984375,19.921875 L13.734375,20.15625 L13.734375,17.65625 L8.015625,17.65625 L8.203125,16.9375 L13.734375,16.9375 L13.734375,14.609375 L6.765625,14.609375 L6.953125,13.921875 L10.3125,13.921875 L10.203125,13.84375 C10.796875,13.109375 11.375,11.828125 11.421875,10.796875 C12.71875,9.59375 14.28125,12.28125 10.6875,13.921875 L17.234375,13.921875 C16.921875,12.84375 16.421875,11.40625 15.9375,10.390625 Z" transform="translate(-0.015625, 20.15625) scale(1, -1)"/>
</svg>