<svg height="21.90625" viewBox="0 0 24 21.90625" width="24" xmlns="http://www.w3.org/2000/svg">
<path d="M2.65625,19.515625 L2.421875,19.296875 C3.53125,18.484375 4.9375,17.0625 5.40625,15.90625 C7.078125,15.046875 7.921875,18.453125 2.65625,19.515625 Z M1.625,14.640625 L1.421875,14.421875 C2.5625,13.703125 4.015625,12.359375 4.53125,11.28125 C6.265625,10.4375 6.953125,13.890625 1.625,14.640625 Z M9.71875,13.15625 L9.71875,1.5625 L9.984375,1.5625 C10.65625,1.5625 11.28125,1.921875 11.28125,2.109375 L11.28125,3.046875 L18.890625,3.046875 L18.890625,1.734375 L19.125,1.734375 C19.625,1.734375 20.40625,2.109375 20.421875,2.25 L20.421875,12.171875 C20.90625,12.265625 21.28125,12.453125 21.4375,12.625 L19.515625,14.109375 L18.640625,13.15625 L14.28125,13.15625 C14.6875,13.84375 15.125,14.78125 15.453125,15.578125 L22.390625,15.578125 C22.734375,15.578125 22.96875,15.703125 23.046875,15.953125 C22.21875,16.734375 20.953125,17.71875 20.953125,17.71875 L19.796875,16.296875 L16.828125,16.296875 C17.6875,17.140625 18.546875,18.1875 19.109375,18.984375 C19.609375,18.953125 19.890625,19.15625 19.984375,19.4375 L17.453125,20.109375 C17.15625,18.953125 16.6875,17.421875 16.171875,16.296875 L12.75,16.296875 C13.78125,16.609375 13.9375,18.90625 10.25,20.109375 L9.984375,19.9375 C10.796875,19.109375 11.6875,17.71875 11.78125,16.53125 C11.953125,16.421875 12.125,16.3125 12.265625,16.296875 L7.390625,16.296875 L7.578125,15.578125 L13.625,15.578125 C13.5625,14.8125 13.484375,13.875 13.390625,13.15625 L11.40625,13.15625 L9.71875,13.921875 Z M18.890625,9.359375 L18.890625,6.953125 L11.28125,6.953125 L11.28125,9.359375 Z M18.890625,10.078125 L11.28125,10.078125 L11.28125,12.4375 L18.890625,12.4375 Z M18.890625,6.234375 L18.890625,3.765625 L11.28125,3.765625 L11.28125,6.234375 Z M5.78125,7.171875 C6.40625,7.25 6.765625,7.46875 6.9375,7.609375 L4.875,9.34375 L3.9375,8.109375 L0.90625,8.109375 L1.0625,7.390625 L4.265625,7.390625 L4.265625,1.96875 C3.046875,1.25 1.75,0.53125 0.90625,0.140625 L2.046875,-1.796875 C2.25,-1.6875 2.359375,-1.53125 2.296875,-1.21875 C3.171875,-0.453125 4.5625,0.9375 5.453125,1.96875 C7.171875,-0.703125 9.125,-1.25 13.53125,-1.25 C16.21875,-1.25 19.53125,-1.25 21.9375,-1.25 C22.03125,-0.53125 22.4375,-0.078125 23.15625,0.046875 L23.15625,0.390625 C20.203125,0.28125 16.34375,0.28125 13.484375,0.28125 C9.3125,0.28125 7.484375,0.578125 5.78125,2.453125 Z" transform="translate(-0.03125, 20.109375) scale(1, -1)"/>
</svg>