<svg height="21.71875" viewBox="0 0 24 21.71875" width="24" xmlns="http://www.w3.org/2000/svg">
<path d="M1.578125,19.4375 L1.3125,19.25 C2.421875,18.171875 3.71875,16.34375 4.015625,14.875 C5.734375,13.609375 7.078125,17.359375 1.578125,19.4375 Z M19.6875,7.375 L19.390625,7.21875 C20.234375,6.046875 21.265625,4.21875 21.4375,2.78125 C22.875,1.53125 24.28125,4.703125 19.6875,7.375 Z M14.515625,7.46875 C13.9375,5.46875 13.015625,3.578125 12.078125,2.328125 L12.40625,2.09375 C13.703125,3.03125 14.921875,4.5625 15.796875,6.28125 C16.265625,6.265625 16.5625,6.453125 16.65625,6.71875 Z M5.328125,8.921875 C5.96875,9.03125 6.34375,9.21875 6.484375,9.40625 L4.4375,11.09375 L3.53125,9.859375 L0.90625,9.859375 L1.0625,9.171875 L3.859375,9.171875 L3.859375,1.921875 C2.765625,1.203125 1.625,0.484375 0.890625,0.09375 L2.015625,-1.78125 C2.1875,-1.6875 2.296875,-1.515625 2.25,-1.21875 C3.03125,-0.453125 4.25,0.9375 5.046875,1.984375 C6.765625,-0.703125 8.78125,-1.265625 13.265625,-1.265625 C16.0625,-1.265625 19.46875,-1.265625 21.9375,-1.265625 C22.03125,-0.546875 22.4375,-0.125 23.140625,0 L23.140625,0.359375 C20.140625,0.265625 16.171875,0.234375 13.265625,0.265625 C9,0.265625 7.078125,0.546875 5.328125,2.5 Z M20.296875,19.9375 C18.8125,19.0625 15.859375,17.8125 13.46875,17.1875 L13.578125,16.78125 C14.71875,16.890625 15.90625,17.109375 17.0625,17.375 C16.578125,16.203125 16.03125,15.078125 15.5,14.203125 C14.96875,14.5 14.28125,14.71875 13.390625,14.859375 L13.15625,14.640625 C14.09375,14.015625 15.234375,12.859375 15.625,11.953125 C16.734375,11.328125 17.46875,12.75 16.0625,13.84375 C16.921875,14.546875 17.8125,15.484375 18.546875,16.421875 C19.03125,16.34375 19.34375,16.53125 19.46875,16.78125 L17.765625,17.515625 C18.984375,17.8125 20.109375,18.140625 20.96875,18.4375 C21.5,18.234375 21.890625,18.234375 22.109375,18.484375 Z M19.921875,15.53125 C18.890625,13.78125 17.1875,11.453125 15.625,9.765625 L12.671875,9.71875 L13.515625,7.921875 C13.75,7.96875 13.9375,8.09375 14.09375,8.40625 L17.0625,8.8125 L17.0625,1.265625 L17.28125,1.265625 C18.046875,1.265625 18.546875,1.578125 18.546875,1.6875 L18.546875,9.03125 L20.96875,9.40625 C21.265625,8.921875 21.5,8.421875 21.578125,7.96875 C23.015625,6.859375 24.28125,9.859375 19.828125,11.328125 L19.5625,11.140625 C19.921875,10.796875 20.296875,10.375 20.640625,9.90625 L16.46875,9.796875 C18.1875,11.140625 19.96875,12.859375 21.078125,14.203125 C21.578125,14.109375 21.90625,14.25 22.0625,14.515625 Z M6.28125,10.078125 L7.3125,8.359375 C7.515625,8.453125 7.703125,8.65625 7.75,8.921875 L9.265625,9.671875 L9.265625,3.5 C9.265625,3.1875 9.171875,3.09375 8.828125,3.09375 C8.5,3.09375 6.84375,3.21875 6.84375,3.21875 L6.84375,2.859375 C7.609375,2.734375 8.046875,2.59375 8.296875,2.328125 C8.546875,2.09375 8.640625,1.6875 8.6875,1.25 C10.53125,1.4375 10.75,2.15625 10.75,3.40625 L10.75,10.4375 L13.875,12.09375 L13.75,12.40625 L10.75,11.421875 L10.75,14.609375 C11.296875,14.71875 11.546875,14.90625 11.59375,15.21875 L10.796875,15.3125 C11.828125,16.078125 12.84375,17.203125 13.5625,17.96875 C14.015625,18 14.296875,18.03125 14.5,18.1875 L12.84375,19.734375 L11.90625,18.796875 L6.59375,18.796875 L6.8125,18.09375 L11.859375,18.09375 C11.421875,17.25 10.796875,16.171875 10.171875,15.390625 L9.265625,15.484375 L9.265625,10.9375 C7.984375,10.5625 6.90625,10.21875 6.28125,10.078125 Z" transform="translate(-0.5859375, 19.9375) scale(1, -1)"/>
</svg>