<svg height="21.953125" viewBox="0 0 24 21.953125" width="24" xmlns="http://www.w3.org/2000/svg">
<path d="M2.71875,19.5625 L2.46875,19.34375 C3.5,18.578125 4.75,17.234375 5.0625,16.078125 C6.703125,15.140625 7.609375,18.53125 2.71875,19.5625 Z M1.75,14.640625 L1.515625,14.421875 C2.59375,13.703125 3.890625,12.40625 4.296875,11.296875 C5.921875,10.421875 6.703125,13.796875 1.75,14.640625 Z M16.46875,20.15625 L16.46875,17.96875 L12.71875,17.96875 L12.71875,19.3125 C13.25,19.421875 13.46875,19.625 13.515625,19.921875 L11.234375,20.15625 L11.234375,17.96875 L7.421875,17.96875 L7.609375,17.25 L11.234375,17.25 L11.234375,15.625 L7.875,15.625 L8.0625,14.953125 L11.234375,14.953125 L11.234375,13.203125 L7.03125,13.203125 L7.21875,12.484375 L13.875,12.484375 L13.875,10.78125 L10.515625,10.78125 L8.90625,11.515625 L8.90625,5.640625 L6.453125,5.640625 L6.640625,4.921875 L8.90625,4.921875 L8.90625,1.03125 L9.140625,1.03125 C9.765625,1.03125 10.390625,1.34375 10.390625,1.515625 L10.390625,4.921875 L18.9375,4.921875 L18.9375,3.234375 C18.9375,2.953125 18.8125,2.8125 18.40625,2.8125 C17.90625,2.8125 15.71875,2.953125 15.71875,2.953125 L15.71875,2.5625 C16.703125,2.453125 17.25,2.25 17.59375,2.015625 C17.90625,1.75 18.03125,1.375 18.078125,0.9375 C20.15625,1.125 20.40625,1.890625 20.40625,3.078125 L20.40625,4.921875 L22.5625,4.921875 C22.875,4.921875 23.09375,5.046875 23.140625,5.296875 C22.578125,5.953125 21.578125,6.890625 21.578125,6.890625 L20.734375,5.640625 L20.40625,5.640625 L20.40625,9.796875 C20.90625,9.859375 21.3125,10.078125 21.453125,10.25 L19.46875,11.734375 L18.703125,10.78125 L15.359375,10.78125 L15.359375,12.484375 L22.25,12.484375 C22.578125,12.484375 22.796875,12.59375 22.875,12.859375 C22.125,13.53125 21.03125,14.375 21.03125,14.375 L20.015625,13.203125 L17.953125,13.203125 L17.953125,14.953125 L21.40625,14.953125 C21.75,14.953125 21.953125,15.078125 22.015625,15.3125 C21.390625,15.9375 20.296875,16.734375 20.296875,16.734375 L19.421875,15.625 L17.953125,15.625 L17.953125,17.25 L21.59375,17.25 C21.90625,17.25 22.15625,17.375 22.203125,17.640625 C21.53125,18.34375 20.375,19.203125 20.375,19.203125 L19.375,17.96875 L17.953125,17.96875 L17.953125,19.3125 C18.484375,19.421875 18.671875,19.625 18.71875,19.921875 Z M10.390625,5.640625 L10.390625,7.53125 L13.875,7.53125 L13.875,5.640625 Z M13.875,10.078125 L13.875,8.234375 L10.390625,8.234375 L10.390625,10.078125 Z M15.359375,10.078125 L18.9375,10.078125 L18.9375,8.234375 L15.359375,8.234375 Z M12.71875,17.25 L16.46875,17.25 L16.46875,15.625 L12.71875,15.625 Z M12.71875,14.953125 L16.46875,14.953125 L16.46875,13.203125 L12.71875,13.203125 Z M15.359375,5.640625 L15.359375,7.53125 L18.9375,7.53125 L18.9375,5.640625 Z M5.359375,7.15625 C6,7.21875 6.359375,7.421875 6.5,7.578125 L4.46875,9.28125 L3.546875,8.09375 L0.953125,8.09375 L1.109375,7.375 L3.890625,7.375 L3.890625,1.84375 C2.78125,1.15625 1.65625,0.453125 0.90625,0.078125 L2.046875,-1.796875 C2.234375,-1.6875 2.328125,-1.53125 2.28125,-1.21875 C3.046875,-0.484375 4.265625,0.890625 5.0625,1.921875 C6.8125,-0.71875 8.8125,-1.265625 13.296875,-1.265625 C16.078125,-1.265625 19.484375,-1.265625 21.953125,-1.265625 C22.078125,-0.578125 22.484375,-0.140625 23.1875,0 L23.1875,0.34375 C20.1875,0.234375 16.203125,0.234375 13.265625,0.234375 C9.03125,0.234375 7.109375,0.53125 5.359375,2.40625 Z" transform="translate(-0.046875, 20.15625) scale(1, -1)"/>
</svg>