<svg height="21.984375" viewBox="0 0 24 21.984375" width="24" xmlns="http://www.w3.org/2000/svg">
<path d="M13.75,6.140625 L13.421875,6.046875 C13.65625,5.046875 13.75,3.484375 13.515625,2.25 C14.546875,0.90625 16.296875,3.390625 13.75,6.140625 Z M16.53125,6.21875 L16.21875,6.125 C16.734375,5.0625 17.28125,3.4375 17.25,2.1875 C18.484375,0.9375 20.046875,3.703125 16.53125,6.21875 Z M19.5625,6.40625 L19.265625,6.234375 C20.203125,5.15625 21.328125,3.3125 21.53125,1.921875 C23.0625,0.703125 24.390625,4.109375 19.5625,6.40625 Z M11.25,6.265625 C11.234375,4.84375 10.3125,3.53125 9.40625,3.03125 C8.953125,2.734375 8.6875,2.28125 8.859375,1.828125 C9.125,1.34375 9.9375,1.421875 10.484375,1.796875 C11.328125,2.40625 12.21875,3.9375 11.6875,6.265625 Z M2.421875,19.53125 L2.1875,19.3125 C3.265625,18.5 4.6875,17.09375 5.140625,15.953125 C6.8125,15.078125 7.65625,18.453125 2.421875,19.53125 Z M1.421875,14.59375 L1.203125,14.375 C2.359375,13.65625 3.796875,12.34375 4.296875,11.234375 C6,10.421875 6.71875,13.84375 1.421875,14.59375 Z M17.875,16.03125 L17.875,13.15625 L14.0625,13.15625 L14.0625,15.234375 C14.59375,15.28125 14.78125,15.5 14.828125,15.8125 L12.59375,16.03125 L12.59375,13.15625 L9.9375,13.15625 L10.125,12.453125 L12.59375,12.453125 L12.59375,6.765625 L12.890625,6.765625 C13.4375,6.765625 14.0625,7.109375 14.0625,7.265625 L14.0625,8.234375 L17.875,8.234375 L17.875,6.984375 L18.140625,6.984375 C18.71875,6.984375 19.375,7.3125 19.375,7.484375 L19.375,12.453125 L22.296875,12.453125 C22.609375,12.453125 22.84375,12.578125 22.921875,12.84375 C22.203125,13.515625 21.046875,14.453125 21.046875,14.453125 L20.015625,13.15625 L19.375,13.15625 L19.375,15.234375 C19.890625,15.28125 20.0625,15.5 20.109375,15.796875 Z M14.0625,8.921875 L14.0625,12.453125 L17.875,12.453125 L17.875,8.921875 Z M8.40625,17.359375 L8.40625,12.9375 C8.40625,9.53125 8.28125,5.8125 6.53125,2.734375 L6.859375,2.46875 C9.71875,5.5 9.890625,9.8125 9.890625,12.9375 L9.890625,16.65625 L22.390625,16.65625 C22.734375,16.65625 22.9375,16.78125 23.015625,17.015625 C22.25,17.78125 20.953125,18.765625 20.953125,18.765625 L19.828125,17.359375 L15.796875,17.359375 L15.796875,19.34375 C16.3125,19.4375 16.53125,19.65625 16.578125,19.9375 L14.28125,20.1875 L14.28125,17.359375 L10.171875,17.359375 L8.40625,18.140625 Z M5.6875,7.171875 C6.34375,7.25 6.703125,7.4375 6.84375,7.609375 L4.796875,9.3125 L3.859375,8.09375 L0.90625,8.09375 L1.0625,7.390625 L4.203125,7.390625 L4.203125,1.9375 C3,1.21875 1.734375,0.5 0.90625,0.125 L2.046875,-1.796875 C2.234375,-1.703125 2.328125,-1.53125 2.28125,-1.25 C3.140625,-0.484375 4.484375,0.90625 5.375,1.9375 C7.109375,-0.71875 9.046875,-1.265625 13.484375,-1.265625 C16.203125,-1.265625 19.53125,-1.265625 21.953125,-1.265625 C22.03125,-0.546875 22.46875,-0.125 23.15625,0 L23.15625,0.359375 C20.203125,0.265625 16.3125,0.265625 13.46875,0.265625 C9.265625,0.265625 7.421875,0.53125 5.6875,2.421875 Z" transform="translate(-0.6484375, 20.1875) scale(1, -1)"/>
</svg>