<svg height="21.984375" viewBox="0 0 24 21.984375" width="24" xmlns="http://www.w3.org/2000/svg">
<path d="M9.5,18.859375 L9.703125,18.171875 L19.5625,18.171875 C19.890625,18.171875 20.09375,18.28125 20.15625,18.53125 C19.421875,19.25 18.171875,20.1875 18.171875,20.1875 L17.0625,18.859375 Z M2.40625,19.5625 L2.15625,19.34375 C3.171875,18.578125 4.421875,17.234375 4.734375,16.078125 C6.359375,15.140625 7.265625,18.53125 2.40625,19.5625 Z M1.421875,14.640625 L1.171875,14.421875 C2.28125,13.703125 3.578125,12.40625 3.953125,11.296875 C5.59375,10.421875 6.359375,13.796875 1.421875,14.640625 Z M6.953125,16.65625 L7.15625,15.953125 L10.828125,15.953125 C11.25,15.34375 11.765625,14.28125 11.828125,13.46875 C13.03125,12.40625 14.515625,14.640625 11.46875,15.953125 L17.1875,15.953125 C16.9375,15.078125 16.609375,13.984375 16.25,13.15625 L9.703125,13.15625 L8.09375,13.890625 L8.09375,1.015625 L8.359375,1.015625 C9,1.015625 9.546875,1.34375 9.546875,1.515625 L9.546875,12.4375 L20.15625,12.4375 L20.15625,2.921875 C20.15625,2.609375 20.046875,2.46875 19.65625,2.46875 C19.203125,2.46875 17.234375,2.609375 17.234375,2.609375 L17.234375,2.234375 C18.140625,2.140625 18.640625,1.96875 18.953125,1.78125 C19.25,1.609375 19.34375,1.265625 19.390625,0.90625 C21.390625,1.078125 21.625,1.734375 21.625,2.828125 L21.625,12.140625 C22.125,12.21875 22.53125,12.4375 22.6875,12.59375 L20.6875,14.09375 L19.921875,13.15625 L16.96875,13.15625 C17.640625,13.78125 18.265625,14.46875 18.671875,15.09375 C19.171875,15.046875 19.484375,15.21875 19.5625,15.5 L18.09375,15.953125 L22.375,15.953125 C22.703125,15.953125 22.9375,16.078125 22.984375,16.34375 C22.203125,17.0625 20.921875,18.03125 20.921875,18.03125 L19.796875,16.65625 Z M14.109375,12.140625 L14.109375,10.078125 L10.3125,10.078125 L10.515625,9.359375 L14.109375,9.359375 L14.109375,7.65625 L13.0625,7.65625 L11.65625,8.296875 L11.65625,2.953125 L11.859375,2.953125 C12.359375,2.953125 12.9375,3.234375 12.9375,3.359375 L12.9375,4.109375 L16.703125,4.109375 L16.703125,3.265625 L16.890625,3.265625 C17.328125,3.265625 17.96875,3.59375 18,3.75 L18,6.859375 C18.3125,6.90625 18.625,7.109375 18.75,7.21875 L17.234375,8.375 L16.53125,7.65625 L15.40625,7.65625 L15.40625,9.359375 L19.03125,9.359375 C19.34375,9.359375 19.578125,9.484375 19.625,9.75 C19.03125,10.34375 18.078125,11.109375 18.078125,11.109375 L17.25,10.078125 L15.40625,10.078125 L15.40625,11.40625 C15.859375,11.46875 16.03125,11.65625 16.078125,11.921875 Z M12.9375,4.796875 L12.9375,6.953125 L16.703125,6.953125 L16.703125,4.796875 Z M5.359375,7.15625 C6,7.21875 6.359375,7.421875 6.5,7.578125 L4.46875,9.28125 L3.546875,8.09375 L0.953125,8.09375 L1.109375,7.375 L3.890625,7.375 L3.890625,1.84375 C2.78125,1.15625 1.65625,0.453125 0.90625,0.078125 L2.046875,-1.796875 C2.234375,-1.6875 2.328125,-1.53125 2.28125,-1.21875 C3.046875,-0.484375 4.265625,0.890625 5.0625,1.921875 C6.8125,-0.71875 8.8125,-1.265625 13.296875,-1.265625 C16.078125,-1.265625 19.484375,-1.265625 21.953125,-1.265625 C22.078125,-0.578125 22.484375,-0.140625 23.1875,0 L23.1875,0.34375 C20.1875,0.234375 16.203125,0.234375 13.265625,0.234375 C9.03125,0.234375 7.109375,0.53125 5.359375,2.40625 Z" transform="translate(-0.046875, 20.1875) scale(1, -1)"/>
</svg>