<svg height="21.984375" viewBox="0 0 24 21.984375" width="24" xmlns="http://www.w3.org/2000/svg">
<path d="M1.984375,19.390625 L1.734375,19.203125 C2.953125,18.140625 4.375,16.296875 4.6875,14.8125 C6.453125,13.515625 7.75,17.453125 1.984375,19.390625 Z M20.109375,12.28125 L20.109375,10.4375 L17.546875,10.4375 L17.546875,12.28125 Z M20.109375,13.015625 L17.546875,13.015625 L17.546875,14.8125 L20.109375,14.8125 Z M9.625,12.28125 L12.09375,12.28125 L12.09375,10.4375 L9.625,10.4375 Z M9.625,13.015625 L9.625,14.8125 L12.09375,14.8125 L12.09375,13.015625 Z M13.5625,12.28125 L16.109375,12.28125 L16.109375,10.4375 L13.5625,10.4375 Z M13.5625,13.015625 L13.5625,14.8125 L16.109375,14.8125 L16.109375,13.015625 Z M16.109375,20.1875 L16.109375,17.921875 L13.5625,17.921875 L13.5625,19.375 C14.0625,19.46875 14.25,19.65625 14.296875,19.9375 L12.09375,20.1875 L12.09375,17.921875 L6.765625,17.921875 L6.953125,17.203125 L12.09375,17.203125 L12.09375,15.484375 L9.75,15.484375 L8.15625,16.21875 L8.15625,8.5625 L8.375,8.5625 C8.65625,8.5625 8.96875,8.640625 9.21875,8.734375 L9.21875,0.9375 L9.4375,0.9375 C10.078125,0.9375 10.75,1.265625 10.75,1.4375 L10.75,2.140625 L19.03125,2.140625 L19.03125,1.0625 L19.265625,1.0625 C19.75,1.0625 20.546875,1.421875 20.5625,1.5625 L20.5625,7.265625 C20.953125,7.34375 21.28125,7.515625 21.4375,7.65625 L19.625,9.046875 L18.8125,8.15625 L10.84375,8.15625 L9.390625,8.828125 C9.53125,8.90625 9.625,8.96875 9.625,9.03125 L9.625,9.75 L20.109375,9.75 L20.109375,8.78125 L20.359375,8.78125 C20.828125,8.78125 21.59375,9.125 21.59375,9.28125 L21.59375,14.5625 C22.015625,14.640625 22.375,14.828125 22.515625,15 L20.71875,16.375 L19.890625,15.484375 L17.546875,15.484375 L17.546875,17.203125 L22.3125,17.203125 C22.625,17.203125 22.875,17.328125 22.9375,17.59375 C22.15625,18.34375 20.90625,19.265625 20.90625,19.265625 L19.796875,17.921875 L17.546875,17.921875 L17.546875,19.375 C18.078125,19.46875 18.265625,19.65625 18.3125,19.9375 Z M13.5625,15.484375 L13.5625,17.203125 L16.109375,17.203125 L16.109375,15.484375 Z M19.03125,2.828125 L10.75,2.828125 L10.75,4.84375 L19.03125,4.84375 Z M19.03125,5.5625 L10.75,5.5625 L10.75,7.4375 L19.03125,7.4375 Z M5.734375,8.921875 C6.390625,9.03125 6.75,9.21875 6.890625,9.390625 L4.84375,11.109375 L3.90625,9.859375 L0.984375,9.859375 L1.125,9.171875 L4.21875,9.171875 L4.21875,1.96875 C3,1.21875 1.734375,0.5 0.890625,0.125 L2.046875,-1.796875 C2.25,-1.703125 2.359375,-1.53125 2.296875,-1.25 C3.171875,-0.484375 4.53125,0.953125 5.421875,2.015625 C7.125,-0.71875 9.09375,-1.265625 13.515625,-1.265625 C16.203125,-1.265625 19.53125,-1.265625 21.9375,-1.265625 C22.03125,-0.546875 22.4375,-0.125 23.140625,0.03125 L23.140625,0.359375 C20.203125,0.265625 16.34375,0.265625 13.484375,0.265625 C9.3125,0.265625 7.46875,0.546875 5.734375,2.515625 Z" transform="translate(-0.015625, 20.1875) scale(1, -1)"/>
</svg>