<svg height="22.03125" viewBox="0 0 24 22.03125" width="24" xmlns="http://www.w3.org/2000/svg">
<path d="M2.09375,19.390625 L1.828125,19.203125 C3.03125,18.140625 4.4375,16.296875 4.75,14.8125 C6.53125,13.484375 7.828125,17.453125 2.09375,19.390625 Z M8.875,11.0625 L8.875,1.03125 L9.125,1.03125 C9.765625,1.03125 10.421875,1.375 10.421875,1.53125 L10.421875,2.1875 L19.109375,2.1875 L19.109375,1.25 L19.34375,1.25 C19.84375,1.25 20.609375,1.609375 20.609375,1.75 L20.609375,4.984375 C21.046875,5.09375 21.40625,5.28125 21.546875,5.453125 L19.703125,6.8125 L18.890625,5.921875 L10.421875,5.921875 L10.421875,7.53125 L18.453125,7.53125 L18.453125,6.859375 L18.703125,6.859375 C19.203125,6.859375 19.96875,7.203125 19.984375,7.375 L19.984375,10.15625 C20.40625,10.21875 20.765625,10.421875 20.90625,10.5625 L19.0625,11.953125 L18.234375,11.0625 L10.53125,11.0625 L8.875,11.828125 Z M18.453125,8.25 L10.421875,8.25 L10.421875,10.375 L18.453125,10.375 Z M19.109375,5.234375 L19.109375,2.875 L10.421875,2.875 L10.421875,5.234375 Z M13.625,20.234375 L13.625,18.21875 L10.03125,18.21875 L8.421875,18.9375 L8.421875,13.9375 L8.640625,13.9375 C9.234375,13.9375 9.90625,14.25 9.90625,14.421875 L9.90625,14.875 L13.625,14.875 L13.625,13.265625 L6.625,13.265625 L6.8125,12.546875 L22.375,12.546875 C22.703125,12.546875 22.9375,12.671875 23.015625,12.9375 C22.21875,13.625 21.03125,14.59375 21.03125,14.59375 L19.9375,13.265625 L15.1875,13.265625 L15.1875,14.875 L19.015625,14.875 L19.015625,14.203125 L19.25,14.203125 C19.734375,14.203125 20.46875,14.5625 20.5,14.734375 L20.5,17.28125 C20.921875,17.359375 21.28125,17.546875 21.4375,17.71875 L19.609375,19.078125 L18.796875,18.21875 L15.1875,18.21875 L15.1875,19.375 C15.71875,19.484375 15.90625,19.6875 15.953125,19.984375 Z M19.015625,15.578125 L15.1875,15.578125 L15.1875,17.5 L19.015625,17.5 Z M9.90625,15.578125 L9.90625,17.5 L13.625,17.5 L13.625,15.578125 Z M5.734375,8.921875 C6.390625,9.03125 6.75,9.21875 6.890625,9.390625 L4.84375,11.109375 L3.90625,9.859375 L0.984375,9.859375 L1.125,9.171875 L4.21875,9.171875 L4.21875,1.96875 C3,1.21875 1.734375,0.5 0.890625,0.125 L2.046875,-1.796875 C2.25,-1.703125 2.359375,-1.53125 2.296875,-1.25 C3.171875,-0.484375 4.53125,0.953125 5.421875,2.015625 C7.125,-0.71875 9.09375,-1.265625 13.515625,-1.265625 C16.203125,-1.265625 19.53125,-1.265625 21.9375,-1.265625 C22.03125,-0.546875 22.4375,-0.125 23.140625,0.03125 L23.140625,0.359375 C20.203125,0.265625 16.34375,0.265625 13.484375,0.265625 C9.3125,0.265625 7.46875,0.546875 5.734375,2.515625 Z" transform="translate(-0.015625, 20.234375) scale(1, -1)"/>
</svg>