<svg height="21.890625" viewBox="0 0 24 21.890625" width="24" xmlns="http://www.w3.org/2000/svg">
<path d="M9.078125,16.921875 L8.8125,16.75 C9.53125,16.015625 10.296875,14.71875 10.390625,13.65625 C11.859375,12.484375 13.296875,15.5 9.078125,16.921875 Z M13.078125,17.453125 L12.796875,17.296875 C13.4375,16.484375 14.0625,15.09375 14.0625,14.015625 C15.453125,12.75 17.109375,15.71875 13.078125,17.453125 Z M19.921875,20.09375 C17.09375,19.265625 11.78125,18.265625 7.53125,17.875 L7.625,17.453125 C12,17.46875 17.015625,17.953125 20.375,18.453125 C20.921875,18.1875 21.390625,18.1875 21.578125,18.359375 Z M1.78125,19.375 L1.53125,19.171875 C2.734375,18.125 4.15625,16.265625 4.46875,14.78125 C6.234375,13.484375 7.5625,17.421875 1.78125,19.375 Z M19.109375,17.5625 C18.40625,15.859375 17.46875,14.09375 16.6875,13.015625 L16.875,12.859375 L7.6875,12.859375 L7.875,12.171875 L14.09375,12.171875 L14.09375,9.578125 L7.4375,9.578125 L7.625,8.875 L14.09375,8.875 L14.09375,3.703125 L10.4375,3.703125 L10.4375,6.8125 C10.96875,6.890625 11.15625,7.109375 11.203125,7.421875 L8.921875,7.625 L8.921875,1.21875 L9.21875,1.21875 C9.796875,1.21875 10.4375,1.53125 10.4375,1.734375 L10.4375,3 L19.484375,3 L19.484375,1.46875 L19.75,1.46875 C20.328125,1.46875 21,1.75 21,1.9375 L21,6.8125 C21.53125,6.890625 21.71875,7.109375 21.765625,7.421875 L19.484375,7.625 L19.484375,3.703125 L15.59375,3.703125 L15.59375,8.875 L22.203125,8.875 C22.53125,8.875 22.75,8.96875 22.828125,9.234375 C22.0625,9.984375 20.8125,10.921875 20.8125,10.921875 L19.703125,9.578125 L15.59375,9.578125 L15.59375,12.171875 L22.125,12.171875 C22.46875,12.171875 22.6875,12.28125 22.75,12.546875 C22.015625,13.25 20.828125,14.140625 20.828125,14.140625 L19.796875,12.859375 L17.1875,12.859375 C18.265625,13.703125 19.4375,14.96875 20.40625,16.21875 C20.875,16.15625 21.1875,16.3125 21.3125,16.5625 Z M5.734375,8.921875 C6.390625,9.03125 6.75,9.21875 6.890625,9.390625 L4.84375,11.109375 L3.90625,9.859375 L0.984375,9.859375 L1.125,9.171875 L4.21875,9.171875 L4.21875,1.96875 C3,1.21875 1.734375,0.5 0.890625,0.125 L2.046875,-1.796875 C2.25,-1.703125 2.359375,-1.53125 2.296875,-1.25 C3.171875,-0.484375 4.53125,0.953125 5.421875,2.015625 C7.125,-0.71875 9.09375,-1.265625 13.515625,-1.265625 C16.203125,-1.265625 19.53125,-1.265625 21.9375,-1.265625 C22.03125,-0.546875 22.4375,-0.125 23.140625,0.03125 L23.140625,0.359375 C20.203125,0.265625 16.34375,0.265625 13.484375,0.265625 C9.3125,0.265625 7.46875,0.546875 5.734375,2.515625 Z" transform="translate(-0.015625, 20.09375) scale(1, -1)"/>
</svg>