<svg height="21.9375" viewBox="0 0 24 21.9375" width="24" xmlns="http://www.w3.org/2000/svg">
<path d="M1.625,19.4375 L1.375,19.25 C2.46875,18.171875 3.796875,16.34375 4.0625,14.875 C5.78125,13.609375 7.109375,17.328125 1.625,19.4375 Z M15.671875,15.75 L15.34375,15.625 C15.796875,14.59375 16.265625,12.953125 16.21875,11.71875 C17.328125,10.484375 18.8125,13.0625 15.671875,15.75 Z M5.25,8.921875 C5.875,9.03125 6.234375,9.21875 6.40625,9.40625 L4.375,11.09375 L3.453125,9.859375 L0.90625,9.859375 L1.0625,9.171875 L3.796875,9.171875 L3.796875,1.875 C2.734375,1.15625 1.609375,0.453125 0.890625,0.078125 L2.015625,-1.796875 C2.1875,-1.6875 2.296875,-1.515625 2.234375,-1.21875 C2.96875,-0.453125 4.203125,0.9375 4.96875,1.96875 C6.703125,-0.71875 8.71875,-1.265625 13.21875,-1.265625 C16.03125,-1.265625 19.46875,-1.265625 21.9375,-1.265625 C22.0625,-0.546875 22.46875,-0.140625 23.140625,-0.03125 L23.140625,0.34375 C20.140625,0.234375 16.15625,0.234375 13.21875,0.234375 C8.921875,0.234375 7.015625,0.53125 5.25,2.46875 Z M7.515625,18.5 L7.515625,15.390625 C7.515625,11.5625 7.390625,7.015625 5.71875,3.078125 L6.046875,2.8125 C7.125,4.3125 7.796875,6.046875 8.234375,7.796875 L8.234375,1.265625 L8.453125,1.265625 C9.03125,1.265625 9.625,1.609375 9.625,1.75 L9.625,3.09375 L12.359375,3.09375 L12.359375,1.84375 L12.578125,1.84375 C13.0625,1.84375 13.78125,2.1875 13.796875,2.359375 L13.796875,8.65625 C14.15625,8.71875 14.46875,8.875 14.59375,9.03125 L12.9375,10.34375 L12.140625,9.5 L9.75,9.5 L8.640625,10.03125 C8.78125,10.96875 8.859375,11.90625 8.90625,12.796875 L12.046875,12.796875 L12.046875,11.953125 L12.265625,11.953125 C12.75,11.953125 13.484375,12.265625 13.515625,12.4375 L13.515625,17.59375 C13.921875,17.65625 14.28125,17.875 14.421875,18.046875 L12.640625,19.390625 L11.828125,18.5 L9.21875,18.5 L7.515625,19.296875 Z M9.625,3.8125 L9.625,8.8125 L12.359375,8.8125 L12.359375,3.8125 Z M17.515625,20.140625 L17.515625,16.703125 L14.1875,16.703125 L14.375,15.984375 L22.171875,15.984375 C22.484375,15.984375 22.734375,16.109375 22.78125,16.375 C22.125,17.046875 21.046875,17.90625 21.046875,17.90625 L20.09375,16.703125 L19.015625,16.703125 L19.015625,19.375 C19.46875,19.46875 19.65625,19.65625 19.703125,19.921875 Z M19.75,15.796875 C19.609375,14.453125 19.25,12.625 18.890625,11.25 L13.921875,11.25 L14.109375,10.53125 L17.515625,10.53125 L17.515625,7.015625 L14.25,7.015625 L14.453125,6.28125 L17.515625,6.28125 L17.515625,1.265625 L17.765625,1.265625 C18.5,1.265625 19.015625,1.65625 19.015625,1.78125 L19.015625,6.28125 L22.296875,6.28125 C22.625,6.28125 22.84375,6.40625 22.921875,6.671875 C22.265625,7.34375 21.1875,8.1875 21.1875,8.1875 L20.25,7.015625 L19.015625,7.015625 L19.015625,10.53125 L22.515625,10.53125 C22.84375,10.53125 23.09375,10.65625 23.140625,10.921875 C22.484375,11.5625 21.4375,12.4375 21.4375,12.4375 L20.5,11.25 L19.46875,11.25 C20.09375,12.390625 20.6875,13.734375 21.046875,14.734375 C21.578125,14.734375 21.8125,14.96875 21.90625,15.234375 Z M12.046875,17.8125 L12.046875,13.484375 L8.921875,13.484375 L8.953125,15.390625 L8.953125,17.8125 Z" transform="translate(-0.015625, 20.140625) scale(1, -1)"/>
</svg>