<svg height="21.84375" viewBox="0 0 24 21.84375" width="24" xmlns="http://www.w3.org/2000/svg">
<path d="M1.734375,19.390625 L1.4375,19.203125 C2.65625,18.140625 4.0625,16.296875 4.34375,14.8125 C6.09375,13.484375 7.4375,17.40625 1.734375,19.390625 Z M9.75,5.875 L9.75,3.03125 C9.75,1.890625 10.109375,1.609375 12.265625,1.609375 L15.75,1.609375 C20.421875,1.609375 21.21875,1.828125 21.21875,2.546875 C21.21875,2.8125 21.03125,2.953125 20.46875,3.125 L20.40625,4.921875 L20.140625,4.921875 C19.890625,4.109375 19.6875,3.4375 19.484375,3.140625 C19.375,2.96875 19.25,2.921875 18.90625,2.921875 C18.5,2.90625 17.25,2.875 15.796875,2.875 L12.40625,2.875 C11.296875,2.875 11.203125,2.921875 11.203125,3.21875 L11.203125,5.140625 L16.625,5.140625 L16.625,4.421875 L16.875,4.421875 C17.359375,4.421875 18.09375,4.75 18.125,4.890625 L18.125,7.5625 C18.390625,7.609375 18.59375,7.734375 18.71875,7.84375 C19.6875,6.90625 20.8125,6.09375 21.984375,5.515625 C22.15625,6.21875 22.578125,6.640625 23.109375,6.75 L23.15625,7.015625 C21.21875,7.5625 18.984375,8.6875 17.6875,10.078125 L22.34375,10.078125 C22.6875,10.078125 22.890625,10.203125 22.96875,10.46875 C22.25,11.140625 21.125,12.03125 21.125,12.03125 L20.109375,10.78125 L12.796875,10.78125 C13.125,11.234375 13.421875,11.6875 13.65625,12.171875 C14.234375,12.09375 14.421875,12.1875 14.515625,12.4375 L13.96875,12.59375 L19.53125,12.59375 L19.53125,11.78125 L19.75,11.78125 C20.25,11.78125 21.03125,12.140625 21.046875,12.28125 L21.046875,15.265625 C21.453125,15.34375 21.796875,15.53125 21.9375,15.703125 L20.109375,17.046875 L19.3125,16.171875 L16.9375,16.171875 L16.9375,18.078125 L21.890625,18.078125 C22.21875,18.078125 22.4375,18.1875 22.515625,18.4375 C21.71875,19.125 20.515625,20.046875 20.515625,20.046875 L19.4375,18.75 L6.75,18.75 L6.9375,18.078125 L11.515625,18.078125 L11.515625,16.171875 L9.171875,16.171875 L7.5625,16.921875 L7.5625,11.640625 L7.78125,11.640625 C8.375,11.640625 9.046875,11.953125 9.046875,12.09375 L9.046875,12.59375 L12.140625,12.59375 C11.875,11.96875 11.546875,11.375 11.15625,10.78125 L6.59375,10.78125 L6.796875,10.078125 L10.6875,10.078125 C9.40625,8.359375 7.6875,6.859375 5.765625,5.875 L6,5.546875 C7.53125,6.125 8.921875,6.953125 10.125,7.9375 L10.21875,7.65625 L16.625,7.65625 L16.625,5.828125 L11.203125,5.828125 L11.203125,5.875 L11.5,5.875 L9.75,6.625 Z M16.46875,8.375 L10.625,8.375 C11.234375,8.90625 11.78125,9.484375 12.265625,10.078125 L16.984375,10.078125 C17.328125,9.484375 17.765625,8.90625 18.21875,8.375 L17.203125,9.140625 Z M19.53125,13.3125 L16.9375,13.3125 L16.9375,15.484375 L19.53125,15.484375 Z M9.046875,13.3125 L9.046875,15.484375 L11.515625,15.484375 L11.515625,13.3125 Z M12.90625,13.3125 L12.90625,15.484375 L15.546875,15.484375 L15.546875,13.3125 Z M12.90625,16.171875 L12.90625,18.078125 L15.546875,18.078125 L15.546875,16.171875 Z M5.6875,8.921875 C6.34375,9.03125 6.703125,9.21875 6.84375,9.390625 L4.796875,11.09375 L3.859375,9.859375 L1.015625,9.859375 L1.15625,9.171875 L4.203125,9.171875 L4.203125,1.984375 C3,1.25 1.703125,0.5 0.890625,0.125 L2.046875,-1.796875 C2.234375,-1.6875 2.359375,-1.53125 2.28125,-1.25 C3.125,-0.484375 4.484375,0.953125 5.375,2.015625 C7.078125,-0.71875 9.046875,-1.265625 13.515625,-1.265625 C16.21875,-1.265625 19.5625,-1.265625 21.984375,-1.265625 C22.078125,-0.546875 22.484375,-0.125 23.203125,0 L23.203125,0.359375 C20.234375,0.265625 16.375,0.234375 13.484375,0.265625 C9.265625,0.265625 7.421875,0.546875 5.6875,2.515625 Z" transform="translate(-0.046875, 20.046875) scale(1, -1)"/>
</svg>