<svg height="21.625" viewBox="0 0 24 21.625" width="24" xmlns="http://www.w3.org/2000/svg">
<path d="M1.65625,19.390625 L1.375,19.203125 C2.59375,18.140625 3.984375,16.296875 4.265625,14.8125 C6.03125,13.484375 7.375,17.40625 1.65625,19.390625 Z M11.953125,5.328125 C11.0625,4.125 9.046875,2.46875 7.171875,1.5625 L7.34375,1.203125 C9.5,1.796875 11.765625,2.96875 12.984375,3.953125 C13.5625,3.890625 13.921875,3.9375 14.0625,4.171875 Z M15.765625,4.984375 L15.59375,4.609375 C17.765625,3.625 19.265625,2.421875 20.046875,1.421875 C21.53125,0 24.28125,3.390625 15.765625,4.984375 Z M5.6875,8.921875 C6.34375,9.03125 6.703125,9.21875 6.84375,9.390625 L4.796875,11.09375 L3.859375,9.859375 L1.015625,9.859375 L1.15625,9.171875 L4.203125,9.171875 L4.203125,1.984375 C3,1.25 1.703125,0.5 0.890625,0.125 L2.046875,-1.796875 C2.234375,-1.6875 2.359375,-1.53125 2.28125,-1.25 C3.125,-0.484375 4.484375,0.953125 5.375,2.015625 C7.109375,-0.71875 9.078125,-1.265625 13.53125,-1.265625 C16.25,-1.265625 19.578125,-1.265625 22.015625,-1.265625 C22.109375,-0.546875 22.53125,-0.125 23.234375,0 L23.234375,0.359375 C20.25,0.265625 16.390625,0.234375 13.484375,0.265625 C9.28125,0.265625 7.421875,0.546875 5.6875,2.515625 Z M7.703125,16.53125 L7.703125,13.734375 C7.703125,12.765625 7.9375,12.453125 9.40625,12.453125 L11.203125,12.453125 C13.921875,12.453125 14.515625,12.640625 14.515625,13.25 C14.515625,13.515625 14.40625,13.65625 13.9375,13.796875 L13.84375,15.046875 L13.609375,15.046875 C13.4375,14.46875 13.21875,13.9375 13.109375,13.796875 C13.015625,13.6875 12.890625,13.65625 12.71875,13.65625 C12.53125,13.625 11.953125,13.625 11.25,13.625 L9.71875,13.625 C9.125,13.625 9.09375,13.6875 9.09375,13.921875 L9.09375,15.8125 L12.125,15.8125 L12.125,15.09375 L12.359375,15.09375 C12.8125,15.09375 13.5625,15.40625 13.578125,15.578125 L13.578125,18.140625 C13.9375,18.234375 14.25,18.390625 14.375,18.53125 L12.703125,19.828125 L11.921875,19.015625 L7.421875,19.015625 L7.625,18.3125 L12.125,18.3125 L12.125,16.53125 L9.359375,16.53125 L7.703125,17.25 Z M15.078125,19.015625 L15.265625,18.3125 L19.890625,18.3125 L19.890625,16.53125 L17.09375,16.53125 L15.4375,17.25 L15.4375,13.734375 C15.4375,12.765625 15.671875,12.453125 17.15625,12.453125 L19.078125,12.453125 C21.90625,12.453125 22.53125,12.640625 22.53125,13.25 C22.53125,13.515625 22.390625,13.65625 21.953125,13.796875 L21.890625,15.1875 L21.59375,15.1875 C21.4375,14.5625 21.234375,13.984375 21.078125,13.796875 C21,13.6875 20.90625,13.65625 20.71875,13.65625 C20.5,13.625 19.875,13.625 19.15625,13.625 L17.46875,13.625 C16.84375,13.625 16.796875,13.6875 16.796875,13.921875 L16.796875,15.8125 L19.890625,15.8125 L19.890625,15.09375 L20.140625,15.09375 C20.609375,15.09375 21.328125,15.40625 21.359375,15.578125 L21.359375,18.140625 C21.75,18.21875 22.0625,18.390625 22.171875,18.53125 L20.46875,19.828125 L19.703125,19.015625 Z M16.3125,12.125 L16.3125,9.890625 L12.75,9.890625 L12.75,11.375 C13.15625,11.46875 13.3125,11.640625 13.375,11.90625 L11.25,12.125 L11.25,9.890625 L7.78125,9.890625 L7.96875,9.1875 L11.25,9.1875 L11.25,6.34375 L6.796875,6.34375 L6.984375,5.640625 L22.390625,5.640625 C22.734375,5.640625 22.9375,5.734375 23.015625,6 C22.21875,6.75 20.96875,7.703125 20.96875,7.703125 L19.875,6.34375 L17.828125,6.34375 L17.828125,9.1875 L21.359375,9.1875 C21.640625,9.1875 21.890625,9.3125 21.9375,9.578125 C21.234375,10.25 20.0625,11.140625 20.0625,11.140625 L19.078125,9.890625 L17.828125,9.890625 L17.828125,11.375 C18.234375,11.46875 18.40625,11.640625 18.4375,11.90625 Z M12.75,9.1875 L16.3125,9.1875 L16.3125,6.34375 L12.75,6.34375 Z" transform="translate(-0.5859375, 19.828125) scale(1, -1)"/>
</svg>