<svg height="21.984375" viewBox="0 0 24 21.984375" width="24" xmlns="http://www.w3.org/2000/svg">
<path d="M15.75,4.015625 L15.578125,3.625 C17.59375,2.8125 19.078125,1.796875 19.875,0.9375 C21.359375,-0.390625 24.140625,2.765625 15.75,4.015625 Z M2.40625,19.5625 L2.15625,19.34375 C3.171875,18.578125 4.421875,17.234375 4.734375,16.078125 C6.359375,15.140625 7.265625,18.53125 2.40625,19.5625 Z M1.421875,14.640625 L1.171875,14.421875 C2.28125,13.703125 3.578125,12.40625 3.953125,11.296875 C5.59375,10.421875 6.359375,13.796875 1.421875,14.640625 Z M13.796875,20.1875 L13.796875,18.3125 L10.125,18.3125 L8.515625,19.0625 L8.515625,14.421875 L8.734375,14.421875 C9.3125,14.421875 10.015625,14.765625 10.015625,14.90625 L10.015625,15.359375 L13.796875,15.359375 L13.796875,13.734375 L6.796875,13.734375 L6.984375,13.03125 L22.4375,13.03125 C22.78125,13.03125 23.015625,13.15625 23.09375,13.421875 C22.296875,14.109375 21.09375,15.078125 21.09375,15.078125 L20.015625,13.734375 L15.359375,13.734375 L15.359375,15.359375 L19.125,15.359375 L19.125,14.5625 L19.375,14.5625 C19.84375,14.5625 20.609375,14.90625 20.640625,15.046875 L20.640625,17.40625 C21.046875,17.46875 21.40625,17.65625 21.546875,17.828125 L19.703125,19.203125 L18.90625,18.3125 L15.359375,18.3125 L15.359375,19.34375 C15.859375,19.4375 16.078125,19.65625 16.125,19.9375 Z M19.125,16.0625 L15.359375,16.0625 L15.359375,17.609375 L19.125,17.609375 Z M10.015625,16.0625 L10.015625,17.609375 L13.796875,17.609375 L13.796875,16.0625 Z M18.8125,8.859375 L18.8125,7.390625 L10.5625,7.390625 L10.5625,8.859375 Z M18.8125,9.546875 L10.5625,9.546875 L10.5625,10.984375 L18.8125,10.984375 Z M18.8125,6.703125 L18.8125,5.203125 L10.5625,5.203125 L10.5625,6.703125 Z M9.03125,11.71875 L9.03125,3.484375 L9.265625,3.484375 C9.890625,3.484375 10.5625,3.84375 10.5625,4.015625 L10.5625,4.484375 L18.8125,4.484375 L18.8125,3.671875 L19.03125,3.671875 C19.5625,3.671875 20.328125,4.015625 20.359375,4.15625 L20.359375,10.75 C20.765625,10.84375 21.125,11.046875 21.265625,11.203125 L19.421875,12.59375 L18.578125,11.71875 L10.6875,11.71875 L9.03125,12.4375 Z M5.359375,7.15625 C6,7.21875 6.359375,7.421875 6.5,7.578125 L4.46875,9.28125 L3.546875,8.09375 L0.953125,8.09375 L1.109375,7.375 L3.890625,7.375 L3.890625,1.84375 C2.78125,1.15625 1.65625,0.453125 0.90625,0.078125 L2.046875,-1.796875 C2.234375,-1.6875 2.328125,-1.53125 2.28125,-1.21875 C3.046875,-0.484375 4.265625,0.890625 5.0625,1.921875 C6.8125,-0.71875 8.8125,-1.265625 13.296875,-1.265625 C16.078125,-1.265625 19.484375,-1.265625 21.953125,-1.265625 C22.078125,-0.578125 22.484375,-0.140625 23.1875,0 L23.1875,0.34375 C20.1875,0.234375 16.203125,0.234375 13.265625,0.234375 C11.15625,0.234375 9.625,0.3125 8.375,0.625 C10.3125,1.15625 12.21875,2.0625 13.296875,2.875 C13.84375,2.78125 14.203125,2.859375 14.359375,3.078125 L12.28125,4.21875 C11.40625,3.125 9.5,1.6875 7.65625,0.84375 C6.765625,1.171875 6.046875,1.65625 5.359375,2.40625 Z" transform="translate(-0.5234375, 20.1875) scale(1, -1)"/>
</svg>