<svg height="21.9375" viewBox="0 0 24 21.9375" width="24" xmlns="http://www.w3.org/2000/svg">
<path d="M15.625,16.109375 L15.28125,15.984375 C15.765625,14.953125 16.21875,13.296875 16.203125,12.046875 C17.296875,10.828125 18.8125,13.421875 15.625,16.109375 Z M2.421875,19.515625 L2.15625,19.296875 C3.171875,18.546875 4.375,17.234375 4.65625,16.109375 C6.234375,15.171875 7.171875,18.453125 2.421875,19.515625 Z M1.390625,14.609375 L1.15625,14.40625 C2.203125,13.6875 3.453125,12.40625 3.84375,11.296875 C5.421875,10.390625 6.265625,13.734375 1.390625,14.609375 Z M7.5625,18.5 L7.5625,15.390625 C7.5625,11.5625 7.4375,7.015625 5.734375,3.078125 L6.09375,2.8125 C7.203125,4.34375 7.875,6.125 8.296875,7.921875 L8.296875,1.3125 L8.515625,1.3125 C9.125,1.3125 9.71875,1.65625 9.71875,1.828125 L9.71875,3.140625 L12.40625,3.140625 L12.40625,1.890625 L12.625,1.890625 C13.109375,1.890625 13.828125,2.25 13.84375,2.421875 L13.84375,8.65625 C14.203125,8.71875 14.515625,8.875 14.65625,9.03125 L12.984375,10.3125 L12.21875,9.5 L9.84375,9.5 L8.6875,10.03125 C8.828125,10.96875 8.90625,11.90625 8.953125,12.796875 L12.078125,12.796875 L12.078125,11.953125 L12.28125,11.953125 C12.765625,11.953125 13.484375,12.265625 13.515625,12.4375 L13.515625,17.59375 C13.921875,17.65625 14.28125,17.875 14.421875,18.046875 L12.640625,19.390625 L11.828125,18.5 L9.265625,18.5 L7.5625,19.296875 Z M9.71875,3.84375 L9.71875,8.8125 L12.40625,8.8125 L12.40625,3.84375 Z M17.515625,20.140625 L17.515625,17.046875 L14.203125,17.046875 L14.40625,16.34375 L22.203125,16.34375 C22.515625,16.34375 22.75,16.46875 22.796875,16.734375 C22.15625,17.375 21.046875,18.265625 21.046875,18.265625 L20.109375,17.046875 L19.015625,17.046875 L19.015625,19.375 C19.46875,19.46875 19.625,19.65625 19.6875,19.921875 Z M19.84375,16.15625 C19.6875,14.8125 19.34375,12.953125 19.015625,11.609375 L13.921875,11.609375 L14.109375,10.921875 L17.515625,10.921875 L17.515625,7.375 L14.40625,7.375 L14.59375,6.703125 L17.515625,6.703125 L17.515625,1.21875 L17.734375,1.21875 C18.5,1.21875 18.984375,1.578125 19.015625,1.703125 L19.015625,6.703125 L22.171875,6.703125 C22.515625,6.703125 22.734375,6.8125 22.796875,7.078125 C22.15625,7.734375 21.078125,8.59375 21.078125,8.59375 L20.140625,7.375 L19.015625,7.375 L19.015625,10.921875 L22.515625,10.921875 C22.84375,10.921875 23.09375,11.046875 23.140625,11.296875 C22.484375,11.953125 21.4375,12.796875 21.4375,12.796875 L20.5,11.609375 L19.5625,11.609375 C20.1875,12.75 20.78125,14.109375 21.171875,15.140625 C21.671875,15.140625 21.9375,15.34375 22.015625,15.625 Z M12.078125,17.8125 L12.078125,13.484375 L8.96875,13.484375 L9,15.390625 L9,17.8125 Z M5.296875,7.125 C5.953125,7.203125 6.3125,7.421875 6.484375,7.5625 L4.4375,9.265625 L3.53125,8.0625 L0.953125,8.0625 L1.109375,7.34375 L3.859375,7.34375 L3.859375,1.84375 C2.78125,1.125 1.65625,0.4375 0.90625,0.046875 L2.015625,-1.796875 C2.234375,-1.6875 2.296875,-1.515625 2.25,-1.21875 C3.03125,-0.484375 4.25,0.890625 5.046875,1.921875 C6.765625,-0.71875 8.78125,-1.265625 13.296875,-1.265625 C16.078125,-1.265625 19.515625,-1.265625 22.015625,-1.265625 C22.109375,-0.578125 22.515625,-0.171875 23.1875,-0.046875 L23.1875,0.28125 C20.1875,0.1875 16.21875,0.1875 13.265625,0.1875 C9,0.1875 7.078125,0.5 5.296875,2.421875 Z" transform="translate(-0.046875, 20.140625) scale(1, -1)"/>
</svg>