<svg height="21.640625" viewBox="0 0 24 21.640625" width="24" xmlns="http://www.w3.org/2000/svg">
<path d="M11.953125,5.109375 C11.0625,3.953125 9.03125,2.359375 7.15625,1.515625 L7.3125,1.15625 C9.484375,1.703125 11.734375,2.828125 12.953125,3.796875 C13.53125,3.703125 13.875,3.765625 14.015625,4.015625 Z M16.125,4.734375 L15.953125,4.34375 C18.125,3.484375 19.625,2.375 20.453125,1.421875 C21.953125,0.09375 24.71875,3.40625 16.125,4.734375 Z M2.359375,19.5625 L2.109375,19.34375 C3.125,18.578125 4.375,17.234375 4.6875,16.078125 C6.3125,15.140625 7.21875,18.53125 2.359375,19.5625 Z M1.421875,14.640625 L1.171875,14.421875 C2.28125,13.703125 3.578125,12.40625 3.953125,11.296875 C5.59375,10.421875 6.359375,13.796875 1.421875,14.640625 Z M15.3125,19.03125 L15.3125,13.46875 C15.3125,12.484375 15.578125,12.140625 17.09375,12.140625 L18.984375,12.140625 C21.84375,12.140625 22.46875,12.359375 22.46875,12.953125 C22.46875,13.21875 22.34375,13.375 21.890625,13.484375 L21.796875,14.96875 L21.546875,14.96875 C21.359375,14.328125 21.171875,13.703125 21,13.515625 C20.921875,13.390625 20.828125,13.375 20.640625,13.34375 C20.40625,13.34375 19.796875,13.3125 19.0625,13.3125 L17.359375,13.3125 C16.75,13.3125 16.65625,13.421875 16.65625,13.703125 L16.65625,15.578125 L19.875,15.578125 L19.875,14.953125 L20.09375,14.953125 C20.5625,14.953125 21.28125,15.28125 21.3125,15.453125 L21.3125,18.171875 C21.671875,18.265625 22.015625,18.40625 22.125,18.546875 L20.453125,19.84375 L19.6875,19.03125 L16.9375,19.03125 L15.3125,19.78125 Z M16.65625,16.265625 L16.65625,18.34375 L19.875,18.34375 L19.875,16.265625 Z M16.484375,11.875 L16.484375,9.53125 L12.625,9.53125 L12.625,11.140625 C13.015625,11.234375 13.171875,11.40625 13.21875,11.65625 L11.109375,11.875 L11.109375,9.53125 L7.796875,9.53125 L7.984375,8.828125 L11.109375,8.828125 L11.109375,5.953125 L6.8125,5.953125 L7.015625,5.25 L22.390625,5.25 C22.734375,5.25 22.9375,5.375 23.015625,5.640625 C22.21875,6.34375 21,7.3125 21,7.3125 L19.890625,5.953125 L18,5.953125 L18,8.828125 L21.328125,8.828125 C21.671875,8.828125 21.890625,8.953125 21.9375,9.21875 C21.234375,9.90625 20.0625,10.78125 20.0625,10.78125 L19.0625,9.53125 L18,9.53125 L18,11.140625 C18.40625,11.234375 18.546875,11.40625 18.59375,11.65625 Z M12.625,8.828125 L16.484375,8.828125 L16.484375,5.953125 L12.625,5.953125 Z M7.703125,19.03125 L7.703125,13.46875 C7.703125,12.5 7.96875,12.140625 9.40625,12.140625 L11.1875,12.140625 C13.921875,12.140625 14.546875,12.359375 14.546875,12.953125 C14.546875,13.21875 14.375,13.34375 13.921875,13.484375 L13.84375,14.828125 L13.578125,14.828125 C13.421875,14.234375 13.21875,13.65625 13.109375,13.484375 C12.984375,13.375 12.890625,13.375 12.71875,13.34375 C12.5,13.34375 11.921875,13.3125 11.25,13.3125 L9.703125,13.3125 C9.09375,13.3125 9.03125,13.421875 9.03125,13.703125 L9.03125,15.578125 L12.140625,15.578125 L12.140625,14.953125 L12.359375,14.953125 C12.84375,14.953125 13.5625,15.28125 13.578125,15.4375 L13.578125,18.1875 C13.9375,18.265625 14.25,18.40625 14.375,18.546875 L12.71875,19.84375 L11.953125,19.03125 L9.3125,19.03125 L7.703125,19.78125 Z M9.03125,16.265625 L9.03125,18.34375 L12.140625,18.34375 L12.140625,16.265625 Z M5.359375,7.15625 C6,7.21875 6.359375,7.421875 6.5,7.578125 L4.46875,9.28125 L3.546875,8.09375 L0.953125,8.09375 L1.109375,7.375 L3.890625,7.375 L3.890625,1.84375 C2.78125,1.15625 1.65625,0.453125 0.90625,0.078125 L2.046875,-1.796875 C2.234375,-1.6875 2.328125,-1.53125 2.28125,-1.21875 C3.046875,-0.484375 4.265625,0.890625 5.0625,1.921875 C6.8125,-0.71875 8.8125,-1.265625 13.296875,-1.265625 C16.078125,-1.265625 19.484375,-1.265625 21.953125,-1.265625 C22.078125,-0.578125 22.484375,-0.140625 23.1875,0 L23.1875,0.34375 C20.1875,0.234375 16.203125,0.234375 13.265625,0.234375 C9.03125,0.234375 7.109375,0.53125 5.359375,2.40625 Z" transform="translate(-0.8125, 19.84375) scale(1, -1)"/>
</svg>