<svg height="21.75" viewBox="0 0 24 21.75" width="24" xmlns="http://www.w3.org/2000/svg">
<path d="M2.59375,19.5625 L2.375,19.34375 C3.359375,18.578125 4.578125,17.1875 4.9375,16.078125 C6.546875,15.171875 7.46875,18.453125 2.59375,19.5625 Z M1.625,14.640625 L1.375,14.421875 C2.421875,13.703125 3.75,12.359375 4.15625,11.296875 C5.78125,10.4375 6.578125,13.734375 1.625,14.640625 Z M6.796875,13.515625 L6.984375,12.8125 L22.296875,12.8125 C22.625,12.8125 22.84375,12.9375 22.921875,13.203125 C22.171875,13.84375 21.03125,14.765625 21.03125,14.765625 L19.984375,13.515625 Z M5.6875,7.15625 C6.34375,7.21875 6.703125,7.421875 6.859375,7.578125 L4.796875,9.28125 L3.859375,8.09375 L1.3125,8.09375 L1.46875,7.375 L4.21875,7.375 L4.21875,1.9375 C3.03125,1.203125 1.734375,0.484375 0.890625,0.09375 L2.015625,-1.828125 C2.234375,-1.703125 2.328125,-1.5625 2.28125,-1.265625 C3.140625,-0.5 4.484375,0.890625 5.375,1.9375 C7.125,-0.71875 9.046875,-1.265625 13.484375,-1.265625 C16.21875,-1.265625 19.578125,-1.265625 21.984375,-1.265625 C22.078125,-0.578125 22.484375,-0.140625 23.1875,0 L23.1875,0.34375 C20.234375,0.234375 16.34375,0.234375 13.46875,0.234375 C9.28125,0.234375 7.421875,0.53125 5.6875,2.40625 Z M18.53125,7.484375 L18.53125,6.859375 L18.765625,6.859375 C19.125,6.859375 19.578125,7.03125 19.84375,7.203125 C19.265625,6.359375 18.640625,5.609375 18.125,5.015625 C17.296875,5.296875 16.34375,5.59375 15.171875,5.8125 L15.171875,6.90625 L15.71875,7.484375 Z M18.53125,8.1875 L10.375,8.1875 L10.375,10.609375 L18.53125,10.609375 Z M20.375,7.96875 L20.0625,7.515625 L20.0625,10.390625 C20.46875,10.484375 20.828125,10.65625 20.96875,10.828125 L19.125,12.21875 L18.3125,11.328125 L10.484375,11.328125 L8.828125,12.078125 L8.828125,6.40625 L9.046875,6.40625 C9.671875,6.40625 10.375,6.75 10.375,6.859375 L10.375,7.484375 L13.65625,7.484375 C12.03125,5.6875 9.625,4.015625 7.078125,2.78125 L7.296875,2.40625 C9.59375,3.1875 11.8125,4.296875 13.609375,5.609375 L13.609375,0.984375 L13.84375,0.984375 C14.609375,0.984375 15.171875,1.375 15.171875,1.515625 L15.171875,5.328125 C17.71875,4.109375 19.75,2.59375 20.5625,1.625 C21.90625,1.03125 22.734375,3.09375 18.8125,4.75 C19.609375,5.25 20.46875,5.90625 21.234375,6.546875 C21.703125,6.40625 22.0625,6.578125 22.203125,6.765625 Z M7.984375,19.0625 L7.984375,14.140625 L8.203125,14.140625 C8.828125,14.140625 9.484375,14.46875 9.484375,14.59375 L9.484375,15.046875 L19.46875,15.046875 L19.46875,14.375 L19.6875,14.375 C20.15625,14.375 20.921875,14.734375 20.953125,14.875 L20.953125,18.140625 C21.359375,18.21875 21.703125,18.390625 21.84375,18.546875 L20.046875,19.921875 L19.21875,19.0625 L9.59375,19.0625 L7.984375,19.78125 Z M19.46875,15.71875 L17.015625,15.71875 L17.015625,18.34375 L19.46875,18.34375 Z M9.484375,15.71875 L9.484375,18.34375 L11.828125,18.34375 L11.828125,15.71875 Z M13.203125,15.71875 L13.203125,18.34375 L15.640625,18.34375 L15.640625,15.71875 Z" transform="translate(-0.0390625, 19.921875) scale(1, -1)"/>
</svg>