<svg height="21.578125" viewBox="0 0 24 21.578125" width="24" xmlns="http://www.w3.org/2000/svg">
<path d="M6.546875,13.515625 L6.75,12.8125 L22.21875,12.8125 C22.578125,12.8125 22.796875,12.9375 22.875,13.203125 C22.109375,13.84375 20.953125,14.765625 20.953125,14.765625 L19.9375,13.515625 Z M1.734375,19.390625 L1.46875,19.203125 C2.65625,18.140625 4.078125,16.296875 4.390625,14.8125 C6.171875,13.484375 7.484375,17.453125 1.734375,19.390625 Z M18.53125,7.625 L18.53125,7.109375 L18.75,7.109375 C19.078125,7.109375 19.484375,7.25 19.75,7.390625 C19.15625,6.546875 18.53125,5.78125 17.96875,5.203125 C17.15625,5.5 16.171875,5.734375 15,5.953125 L15,7.03125 L15.546875,7.625 Z M18.53125,8.359375 L10.125,8.359375 L10.125,10.609375 L18.53125,10.609375 Z M20.1875,7.984375 L20.0625,7.828125 L20.0625,10.390625 C20.453125,10.484375 20.828125,10.65625 20.953125,10.828125 L19.125,12.21875 L18.28125,11.328125 L10.25,11.328125 L8.609375,12.078125 L8.609375,6.484375 L8.828125,6.484375 C9.4375,6.484375 10.125,6.8125 10.125,6.953125 L10.125,7.625 L13.515625,7.625 C11.875,5.734375 9.484375,4.03125 6.8125,2.8125 L7.0625,2.40625 C9.453125,3.21875 11.65625,4.3125 13.46875,5.6875 L13.46875,0.90625 L13.703125,0.90625 C14.46875,0.90625 15,1.296875 15,1.46875 L15,5.46875 C17.59375,4.296875 19.703125,2.78125 20.5625,1.84375 C21.90625,1.265625 22.734375,3.359375 18.71875,4.9375 C19.484375,5.40625 20.296875,5.953125 21.03125,6.53125 C21.484375,6.390625 21.8125,6.53125 21.953125,6.71875 Z M7.96875,18.890625 L7.96875,14.140625 L8.1875,14.140625 C8.78125,14.140625 9.453125,14.46875 9.453125,14.59375 L9.453125,15.046875 L19.3125,15.046875 L19.3125,14.375 L19.53125,14.375 C20.015625,14.375 20.78125,14.734375 20.8125,14.875 L20.8125,17.96875 C21.21875,18.046875 21.578125,18.265625 21.703125,18.40625 L19.890625,19.78125 L19.109375,18.890625 L9.578125,18.890625 L7.96875,19.625 Z M19.3125,15.75 L16.921875,15.75 L16.921875,18.21875 L19.3125,18.21875 Z M9.453125,15.75 L9.453125,18.21875 L11.734375,18.21875 L11.734375,15.75 Z M13.109375,15.75 L13.109375,18.21875 L15.53125,18.21875 L15.53125,15.75 Z M5.734375,8.921875 C6.390625,9.03125 6.75,9.21875 6.890625,9.390625 L4.84375,11.109375 L3.90625,9.859375 L0.984375,9.859375 L1.125,9.171875 L4.21875,9.171875 L4.21875,1.96875 C3,1.21875 1.734375,0.5 0.890625,0.125 L2.046875,-1.796875 C2.25,-1.703125 2.359375,-1.53125 2.296875,-1.25 C3.171875,-0.484375 4.53125,0.953125 5.421875,2.015625 C7.125,-0.71875 9.09375,-1.265625 13.53125,-1.265625 C16.25,-1.265625 19.5625,-1.265625 21.984375,-1.265625 C22.078125,-0.546875 22.484375,-0.125 23.1875,0.03125 L23.1875,0.359375 C20.234375,0.265625 16.390625,0.265625 13.515625,0.265625 C9.3125,0.265625 7.46875,0.546875 5.734375,2.515625 Z" transform="translate(-0.0390625, 19.78125) scale(1, -1)"/>
</svg>