<svg height="21.890625" viewBox="0 0 24 21.890625" width="24" xmlns="http://www.w3.org/2000/svg">
<path d="M2.421875,19.515625 L2.15625,19.296875 C3.171875,18.546875 4.375,17.234375 4.65625,16.109375 C6.234375,15.171875 7.171875,18.453125 2.421875,19.515625 Z M1.390625,14.609375 L1.15625,14.40625 C2.203125,13.6875 3.453125,12.40625 3.84375,11.296875 C5.421875,10.390625 6.265625,13.734375 1.390625,14.609375 Z M12.21875,12.71875 C12.078125,12.359375 11.859375,11.921875 11.609375,11.5 C11.25,11.6875 10.84375,11.859375 10.34375,12.03125 L10.078125,11.78125 C10.4375,11.546875 10.84375,11.203125 11.234375,10.828125 C10.828125,10.203125 10.375,9.59375 9.90625,9.125 L10.21875,8.8125 C10.796875,9.1875 11.328125,9.703125 11.78125,10.21875 C12.046875,9.9375 12.234375,9.640625 12.359375,9.390625 C13.125,8.953125 13.625,9.9375 12.40625,10.96875 L12.953125,11.78125 C13.484375,11.6875 13.65625,11.78125 13.796875,12.03125 Z M17.15625,17.40625 L16.984375,17.015625 C18.28125,16.390625 19.421875,15.625 20.296875,14.90625 L19.625,14.0625 L15.40625,14.0625 L15.40625,18.046875 L22.34375,18.046875 C22.6875,18.046875 22.890625,18.171875 22.96875,18.40625 C22.171875,19.125 20.96875,20.09375 20.96875,20.09375 L19.875,18.75 L7.078125,18.75 L7.265625,18.046875 L13.921875,18.046875 L13.921875,14.0625 L9.8125,14.0625 L9.09375,14.375 C10.109375,15.078125 10.984375,15.796875 11.59375,16.46875 C12.125,16.34375 12.3125,16.46875 12.453125,16.65625 L10.484375,17.765625 C9.578125,16.265625 7.65625,14.25 5.828125,13.0625 L6.09375,12.71875 C6.796875,13.015625 7.484375,13.375 8.15625,13.78125 L8.15625,1.265625 L8.375,1.265625 C9.046875,1.265625 9.53125,1.65625 9.53125,1.78125 L9.53125,13.390625 L13.96875,13.390625 L13.96875,1.4375 L14.1875,1.4375 C14.875,1.4375 15.3125,1.796875 15.3125,1.921875 L15.3125,13.390625 L19.84375,13.390625 L19.84375,3.3125 C19.84375,3 19.78125,2.859375 19.421875,2.859375 C18.984375,2.859375 17.109375,3 17.109375,3 L17.109375,2.640625 C17.96875,2.546875 18.453125,2.359375 18.75,2.140625 C19.015625,1.9375 19.109375,1.5625 19.15625,1.171875 C21.078125,1.375 21.265625,2.0625 21.265625,3.1875 L21.265625,13.109375 C21.5,13.125 21.71875,13.203125 21.890625,13.265625 L21.9375,13.21875 C23.46875,12.5 24.3125,15.75 17.15625,17.40625 Z M12.21875,8.25 C12.078125,7.84375 11.859375,7.390625 11.609375,6.90625 C11.234375,7.125 10.78125,7.3125 10.21875,7.515625 L9.953125,7.296875 C10.375,7.015625 10.828125,6.640625 11.234375,6.21875 C10.828125,5.515625 10.34375,4.84375 9.84375,4.3125 L10.171875,4.015625 C10.75,4.46875 11.296875,5.015625 11.78125,5.59375 C12.046875,5.28125 12.28125,4.9375 12.40625,4.65625 C13.21875,4.171875 13.75,5.25 12.390625,6.390625 L12.984375,7.296875 C13.515625,7.203125 13.703125,7.265625 13.84375,7.515625 Z M18.03125,12.71875 C17.859375,12.34375 17.640625,11.875 17.375,11.421875 C16.984375,11.640625 16.515625,11.828125 15.953125,12 L15.703125,11.765625 C16.109375,11.515625 16.5625,11.1875 16.96875,10.796875 C16.5625,10.171875 16.078125,9.546875 15.59375,9.078125 L15.890625,8.765625 C16.484375,9.171875 17.0625,9.703125 17.546875,10.21875 C17.859375,9.90625 18.125,9.578125 18.265625,9.28125 C19.03125,8.828125 19.53125,9.859375 18.140625,10.9375 C18.390625,11.234375 18.578125,11.515625 18.75,11.78125 C19.265625,11.65625 19.46875,11.78125 19.609375,12.03125 Z M18.03125,8.28125 C17.859375,7.875 17.640625,7.390625 17.359375,6.890625 C16.9375,7.109375 16.4375,7.3125 15.84375,7.515625 L15.578125,7.265625 C16.015625,6.984375 16.515625,6.625 16.9375,6.21875 C16.515625,5.5 15.953125,4.796875 15.40625,4.25 L15.71875,3.9375 C16.390625,4.390625 17.015625,4.984375 17.546875,5.609375 C17.875,5.234375 18.171875,4.875 18.3125,4.53125 C19.171875,4.078125 19.6875,5.203125 18.171875,6.359375 C18.40625,6.703125 18.625,7.015625 18.796875,7.296875 C19.34375,7.21875 19.515625,7.3125 19.6875,7.5625 Z M5.296875,7.125 C5.953125,7.203125 6.3125,7.421875 6.484375,7.5625 L4.4375,9.265625 L3.53125,8.0625 L0.953125,8.0625 L1.109375,7.34375 L3.859375,7.34375 L3.859375,1.84375 C2.78125,1.125 1.65625,0.4375 0.90625,0.046875 L2.015625,-1.796875 C2.234375,-1.6875 2.296875,-1.515625 2.25,-1.21875 C3.03125,-0.484375 4.25,0.890625 5.046875,1.921875 C6.765625,-0.71875 8.78125,-1.265625 13.296875,-1.265625 C16.078125,-1.265625 19.515625,-1.265625 22.015625,-1.265625 C22.109375,-0.578125 22.515625,-0.171875 23.1875,-0.046875 L23.1875,0.28125 C20.1875,0.1875 16.21875,0.1875 13.265625,0.1875 C9,0.1875 7.078125,0.5 5.296875,2.421875 Z" transform="translate(-0.609375, 20.09375) scale(1, -1)"/>
</svg>