<svg height="21.859375" viewBox="0 0 24 21.859375" width="24" xmlns="http://www.w3.org/2000/svg">
<path d="M6.53125,19.921875 L6.53125,16.109375 L1.390625,16.109375 L1.578125,15.40625 L6.53125,15.40625 L6.53125,11.328125 L1.84375,11.328125 L2.046875,10.625 L6.53125,10.625 L6.53125,8.421875 C6.53125,7.625 6.5,6.890625 6.40625,6.1875 L0.984375,6.1875 L1.171875,5.5 L6.3125,5.5 C5.828125,2.453125 4.46875,0.1875 1.609375,-1.625 L1.890625,-1.9375 C5.546875,-0.171875 7.25,2.25 7.828125,5.5 L13.515625,5.5 C13.84375,5.5 14.09375,5.609375 14.15625,5.875 C13.375,6.640625 12.046875,7.65625 12.046875,7.65625 L10.921875,6.1875 L7.921875,6.1875 C8.015625,6.890625 8.0625,7.625 8.0625,8.421875 L8.0625,10.625 L12.890625,10.625 C13.21875,10.625 13.4375,10.75 13.515625,11.015625 C12.765625,11.734375 11.546875,12.703125 11.546875,12.703125 L10.46875,11.328125 L8.0625,11.328125 L8.0625,15.40625 L13.34375,15.40625 C13.65625,15.40625 13.890625,15.53125 13.96875,15.796875 C13.203125,16.53125 11.90625,17.546875 11.90625,17.546875 L10.78125,16.109375 L8.0625,16.109375 L8.0625,19.015625 C8.65625,19.109375 8.859375,19.34375 8.90625,19.6875 Z M14.640625,18.234375 L14.640625,-1.890625 L14.90625,-1.890625 C15.671875,-1.890625 16.203125,-1.46875 16.203125,-1.34375 L16.203125,17.546875 L20.46875,17.546875 C19.828125,15.484375 18.765625,12.4375 18.125,10.828125 C20.1875,8.859375 20.96875,6.890625 20.96875,5.046875 C20.96875,4.03125 20.71875,3.484375 20.1875,3.21875 C19.96875,3.09375 19.828125,3.078125 19.5625,3.078125 C19.078125,3.078125 17.96875,3.078125 17.328125,3.078125 L17.328125,2.6875 C18,2.609375 18.546875,2.46875 18.765625,2.296875 C18.984375,2.09375 19.109375,1.609375 19.109375,1.0625 C21.640625,1.171875 22.5625,2.359375 22.5625,4.703125 C22.5625,6.671875 21.5,8.875 18.703125,10.890625 C19.796875,12.453125 21.40625,15.5 22.25,17.109375 C22.796875,17.109375 23.15625,17.1875 23.328125,17.40625 L21.453125,19.25 L20.421875,18.234375 L16.484375,18.234375 L14.640625,19.203125 Z" transform="translate(-0.15625, 19.921875) scale(1, -1)"/>
</svg>