<svg height="21.9375" viewBox="0 0 24 21.9375" width="24" xmlns="http://www.w3.org/2000/svg">
<path d="M0.984375,5.5 L1.921875,3.5 C2.15625,3.578125 2.375,3.796875 2.46875,4.0625 L6.21875,5.140625 C5.6875,2.28125 4.34375,0.140625 1.625,-1.578125 L1.9375,-1.921875 C5.59375,-0.125 7.25,2.328125 7.796875,5.609375 C10.03125,6.3125 11.875,6.90625 13.421875,7.421875 L13.3125,7.796875 L7.9375,6.71875 C7.984375,7.296875 8.015625,7.875 8.015625,8.5 L8.015625,10.828125 L12.578125,10.828125 C12.90625,10.828125 13.15625,10.9375 13.21875,11.203125 C12.453125,11.921875 11.25,12.890625 11.25,12.890625 L10.15625,11.515625 L8.015625,11.515625 L8.015625,15.59375 C9.578125,15.90625 10.96875,16.296875 12.078125,16.703125 C12.640625,16.515625 13.0625,16.515625 13.265625,16.734375 L11.40625,18.34375 C10.5625,17.828125 9.390625,17.296875 8.015625,16.828125 L8.015625,19.109375 C8.640625,19.203125 8.828125,19.4375 8.875,19.78125 L6.484375,20.015625 L6.484375,16.3125 C4.78125,15.796875 2.921875,15.359375 1.171875,15.09375 L1.296875,14.6875 C3.046875,14.78125 4.828125,15 6.484375,15.28125 L6.484375,11.515625 L1.796875,11.515625 L1.984375,10.828125 L6.484375,10.828125 L6.484375,8.5 C6.484375,7.78125 6.453125,7.078125 6.390625,6.4375 C4.03125,6 2.109375,5.640625 0.984375,5.5 Z M14.609375,18.234375 L14.609375,-1.890625 L14.875,-1.890625 C15.640625,-1.890625 16.171875,-1.46875 16.171875,-1.34375 L16.171875,17.546875 L20.46875,17.546875 C19.796875,15.5 18.765625,12.484375 18.078125,10.875 C20.1875,8.90625 20.96875,6.953125 20.96875,5.109375 C20.96875,4.109375 20.6875,3.546875 20.1875,3.28125 C19.96875,3.171875 19.828125,3.140625 19.5625,3.140625 C19.078125,3.140625 17.953125,3.140625 17.296875,3.140625 L17.296875,2.765625 C17.96875,2.6875 18.546875,2.546875 18.75,2.375 C18.984375,2.15625 19.109375,1.6875 19.109375,1.125 C21.625,1.25 22.5625,2.40625 22.5625,4.78125 C22.5625,6.71875 21.5,8.921875 18.671875,10.9375 C19.78125,12.484375 21.40625,15.5 22.25,17.109375 C22.796875,17.109375 23.15625,17.1875 23.328125,17.40625 L21.453125,19.25 L20.421875,18.234375 L16.46875,18.234375 L14.609375,19.203125 Z" transform="translate(-0.15625, 20.015625) scale(1, -1)"/>
</svg>