<svg height="21.234375" viewBox="0 0 24 21.234375" width="24" xmlns="http://www.w3.org/2000/svg">
<path d="M9.4375,17.234375 L9.4375,10.34375 L5.515625,10.34375 L5.515625,17.234375 Z M1.0625,10.34375 L1.25,9.640625 L8.1875,9.640625 C6.625,6.21875 3.953125,2.8125 0.703125,0.5 L0.9375,0.140625 C4.578125,2.140625 7.515625,4.921875 9.4375,8.203125 L9.4375,0.671875 C9.4375,0.28125 9.3125,0.140625 8.828125,0.140625 C8.328125,0.140625 5.828125,0.34375 5.828125,0.34375 L5.828125,-0.03125 C6.953125,-0.171875 7.5625,-0.390625 7.9375,-0.640625 C8.25,-0.890625 8.40625,-1.3125 8.453125,-1.796875 C10.6875,-1.5625 10.9375,-0.625 10.9375,0.59375 L10.9375,9.640625 L13.828125,9.640625 C14.15625,9.640625 14.375,9.765625 14.453125,10.03125 C13.703125,10.78125 12.453125,11.8125 12.453125,11.8125 L11.375,10.34375 L10.9375,10.34375 L10.9375,17.234375 L13.578125,17.234375 C13.890625,17.234375 14.15625,17.359375 14.234375,17.609375 C13.4375,18.34375 12.140625,19.34375 12.140625,19.34375 L11.046875,17.921875 L1.3125,17.921875 L1.515625,17.234375 L4.015625,17.234375 L4.015625,10.34375 Z M14.875,18.234375 L14.875,-1.890625 L15.09375,-1.890625 C15.890625,-1.890625 16.421875,-1.46875 16.421875,-1.34375 L16.421875,17.546875 L20.453125,17.546875 C19.796875,15.5 18.765625,12.453125 18.125,10.875 C20.234375,8.90625 21.078125,6.984375 21.078125,5.109375 C21.078125,4.078125 20.8125,3.546875 20.296875,3.28125 C20.09375,3.171875 19.921875,3.140625 19.6875,3.140625 C19.171875,3.140625 18.046875,3.140625 17.375,3.140625 L17.375,2.765625 C18.078125,2.6875 18.625,2.5625 18.84375,2.375 C19.0625,2.15625 19.171875,1.625 19.171875,1.125 C21.765625,1.25 22.6875,2.40625 22.6875,4.78125 C22.6875,6.75 21.578125,8.921875 18.71875,10.9375 C19.796875,12.484375 21.390625,15.5 22.21875,17.109375 C22.78125,17.140625 23.140625,17.1875 23.296875,17.40625 L21.4375,19.25 L20.40625,18.234375 L16.703125,18.234375 L14.875,19.203125 Z" transform="translate(0, 19.34375) scale(1, -1)"/>
</svg>