<svg height="21.234375" viewBox="0 0 24 21.234375" width="24" xmlns="http://www.w3.org/2000/svg">
<path d="M10.078125,17.546875 L10.03125,12.90625 L6.765625,12.90625 C6.84375,14.421875 6.890625,15.984375 6.90625,17.546875 Z M1.265625,7.46875 L1.46875,6.8125 L4.625,6.8125 C4.03125,3.796875 2.921875,0.9375 0.84375,-1.53125 L1.25,-1.921875 C3.890625,0.578125 5.28125,3.546875 6.03125,6.8125 L9.859375,6.8125 C9.703125,3.21875 9.4375,1.203125 8.921875,0.671875 C8.6875,0.390625 8.515625,0.34375 8.0625,0.34375 C7.578125,0.34375 6.3125,0.453125 5.453125,0.53125 L5.421875,0.09375 C6.234375,-0.046875 6.984375,-0.265625 7.3125,-0.546875 C7.609375,-0.796875 7.65625,-1.21875 7.65625,-1.75 C8.640625,-1.75 9.59375,-1.390625 10.21875,-0.53125 C10.84375,0.359375 11.1875,2.640625 11.375,6.8125 L14.140625,6.8125 C14.453125,6.8125 14.65625,6.9375 14.734375,7.203125 C14.015625,7.890625 12.859375,8.859375 12.859375,8.859375 L11.828125,7.46875 L11.40625,7.46875 C11.453125,8.828125 11.5,10.421875 11.515625,12.1875 L14.046875,12.1875 C14.375,12.1875 14.59375,12.3125 14.65625,12.578125 C13.9375,13.296875 12.765625,14.28125 12.765625,14.28125 L11.734375,12.90625 L11.546875,12.90625 L11.59375,17.328125 C12.125,17.40625 12.40625,17.546875 12.59375,17.734375 L10.734375,19.3125 L9.8125,18.265625 L1.265625,18.265625 L1.484375,17.546875 L5.328125,17.546875 C5.296875,15.984375 5.296875,14.453125 5.25,12.90625 L1.265625,12.90625 L1.46875,12.1875 L5.234375,12.1875 C5.140625,10.578125 4.984375,9 4.75,7.46875 Z M14.90625,18.234375 L14.90625,-1.890625 L15.125,-1.890625 C15.90625,-1.890625 16.4375,-1.46875 16.4375,-1.34375 L16.4375,17.546875 L20.453125,17.546875 C19.796875,15.40625 18.75,12.21875 18.046875,10.578125 C20.234375,8.546875 21.125,6.5 21.125,4.5625 C21.125,3.484375 20.828125,2.921875 20.296875,2.65625 C20.109375,2.546875 19.9375,2.515625 19.6875,2.515625 C19.15625,2.515625 17.96875,2.515625 17.28125,2.515625 L17.28125,2.140625 C18,2.0625 18.578125,1.890625 18.796875,1.734375 C19.03125,1.53125 19.15625,1.015625 19.15625,0.5 C21.796875,0.625 22.703125,1.796875 22.703125,4.203125 C22.703125,6.28125 21.578125,8.546875 18.640625,10.65625 C19.75,12.28125 21.390625,15.4375 22.21875,17.109375 C22.796875,17.109375 23.140625,17.1875 23.296875,17.40625 L21.4375,19.25 L20.40625,18.234375 L16.734375,18.234375 L14.90625,19.171875 Z M10.015625,12.1875 C9.984375,10.421875 9.9375,8.828125 9.890625,7.46875 L6.140625,7.46875 C6.453125,8.96875 6.625,10.5625 6.71875,12.1875 Z" transform="translate(-0.0703125, 19.3125) scale(1, -1)"/>
</svg>