<svg height="21.859375" viewBox="0 0 24 21.859375" width="24" xmlns="http://www.w3.org/2000/svg">
<path d="M2.859375,16.578125 L2.859375,1.4375 L0.703125,1.015625 L1.796875,-1.125 C2.046875,-1.03125 2.25,-0.84375 2.359375,-0.546875 C5.71875,0.71875 8.28125,1.78125 10.125,2.59375 C10.625,1.625 10.96875,0.671875 11.046875,-0.21875 C12.8125,-1.703125 14.203125,2.953125 7.734375,6.3125 L7.4375,6.125 C8.28125,5.296875 9.1875,4.203125 9.859375,3.046875 L4.375,1.78125 L4.375,8.234375 L10.421875,8.234375 L10.421875,6.578125 L10.65625,6.578125 C11.15625,6.578125 11.953125,6.9375 11.96875,7.109375 L11.96875,15.578125 C12.453125,15.671875 12.84375,15.890625 12.984375,16.078125 L11.0625,17.546875 L10.171875,16.578125 L8.09375,16.578125 L8.09375,19.109375 C8.6875,19.171875 8.921875,19.421875 8.96875,19.75 L6.546875,19.984375 L6.546875,16.578125 L4.484375,16.578125 L2.859375,17.359375 Z M10.421875,12.125 L10.421875,8.921875 L4.375,8.921875 L4.375,12.125 Z M10.421875,12.8125 L4.375,12.8125 L4.375,15.890625 L10.421875,15.890625 Z M14.203125,17.875 L14.203125,-1.875 L14.46875,-1.875 C15.1875,-1.875 15.71875,-1.46875 15.71875,-1.25 L15.71875,17.1875 L20.296875,17.1875 C19.65625,15.09375 18.59375,11.953125 17.90625,10.375 C20.046875,8.328125 20.90625,6.359375 20.90625,4.46875 C20.90625,3.40625 20.609375,2.859375 20.109375,2.609375 C19.890625,2.5 19.734375,2.46875 19.4375,2.46875 C18.953125,2.46875 17.8125,2.46875 17.15625,2.46875 L17.15625,2.09375 C17.828125,1.984375 18.40625,1.875 18.625,1.6875 C18.859375,1.46875 18.953125,0.9375 18.953125,0.40625 C21.59375,0.53125 22.53125,1.703125 22.53125,4.109375 C22.515625,6.125 21.4375,8.375 18.5,10.421875 C19.609375,12 21.265625,15.09375 22.109375,16.734375 C22.703125,16.75 23.015625,16.828125 23.203125,17.015625 L21.265625,18.90625 L20.25,17.875 L15.84375,17.875 L14.203125,18.671875 Z" transform="translate(0.046875, 19.984375) scale(1, -1)"/>
</svg>