<svg height="21.96875" viewBox="0 0 24 21.96875" width="24" xmlns="http://www.w3.org/2000/svg">
<path d="M16.609375,18.34375 L16.609375,-1.875 L16.875,-1.875 C17.5625,-1.875 18.078125,-1.484375 18.078125,-1.265625 L18.078125,17.640625 L20.765625,17.640625 C20.296875,15.59375 19.53125,12.53125 19.0625,10.9375 C20.609375,9 21.1875,7.0625 21.1875,5.140625 C21.1875,4.109375 21,3.53125 20.609375,3.28125 C20.453125,3.171875 20.328125,3.140625 20.0625,3.140625 C19.734375,3.140625 18.859375,3.140625 18.40625,3.140625 L18.40625,2.734375 C18.90625,2.6875 19.34375,2.5625 19.53125,2.421875 C19.703125,2.203125 19.796875,1.703125 19.796875,1.21875 C22.015625,1.34375 22.734375,2.359375 22.734375,4.828125 C22.734375,6.859375 21.859375,8.953125 19.625,11.015625 C20.515625,12.59375 21.796875,15.671875 22.4375,17.25 C22.96875,17.28125 23.28125,17.359375 23.453125,17.515625 L21.625,19.3125 L20.65625,18.34375 L18.171875,18.34375 L16.609375,19.109375 Z M13.515625,13.484375 L13.515625,9.9375 L10.390625,9.9375 L10.390625,13.484375 Z M13.515625,14.15625 L10.390625,14.15625 L10.390625,17.640625 L13.515625,17.640625 Z M8.953125,18.34375 L8.953125,1.890625 L6.796875,1.265625 L7.984375,-0.703125 C8.203125,-0.59375 8.40625,-0.359375 8.453125,-0.078125 C10.703125,1.125 12.453125,2.140625 13.734375,2.90625 C14.0625,2.046875 14.296875,1.203125 14.375,0.453125 C15.890625,-0.953125 17.15625,2.6875 12.234375,6.796875 L11.921875,6.671875 C12.453125,5.734375 13.078125,4.5625 13.5625,3.359375 L10.390625,2.359375 L10.390625,9.21875 L13.515625,9.21875 L13.515625,7.65625 L13.734375,7.65625 C14.203125,7.65625 14.921875,8.015625 14.953125,8.15625 L14.953125,17.375 C15.40625,17.46875 15.796875,17.65625 15.953125,17.828125 L14.109375,19.25 L13.265625,18.34375 L10.515625,18.34375 L8.953125,19.078125 Z M6.125,15.453125 C5.09375,12.640625 3.703125,9.390625 2.640625,7.21875 L0.890625,6.984375 L1.875,4.984375 C2.09375,5.0625 2.296875,5.234375 2.40625,5.515625 C3.890625,6.1875 5.09375,6.75 6.03125,7.203125 C5.28125,3.21875 3.53125,0.40625 0.953125,-1.53125 L1.265625,-1.875 C4.890625,0.03125 7.0625,3.4375 7.875,9.046875 C8.40625,9.078125 8.65625,9.3125 8.734375,9.640625 L6.359375,10.03125 C6.3125,9.265625 6.234375,8.546875 6.125,7.84375 L3.34375,7.34375 C4.75,9.28125 6.234375,11.859375 7.46875,14.15625 C7.96875,14.140625 8.28125,14.328125 8.375,14.59375 Z M4.65625,20.09375 C4.15625,18.359375 3.53125,16.375 2.96875,14.90625 C2.515625,15.234375 1.921875,15.546875 1.171875,15.8125 L0.953125,15.546875 C2.234375,14.59375 2.859375,12.9375 3.171875,11.921875 C4.171875,10.984375 5.1875,12.859375 3.453125,14.5 C4.375,15.75 5.359375,17.375 6.140625,18.84375 C6.640625,18.8125 6.9375,19.015625 7.03125,19.296875 Z" transform="translate(-0.171875, 20.09375) scale(1, -1)"/>
</svg>