<svg height="22.109375" viewBox="0 0 24 22.109375" width="24" xmlns="http://www.w3.org/2000/svg">
<path d="M3.546875,8.8125 L12.234375,8.8125 L12.234375,7.375 L3.546875,7.375 Z M3.546875,9.53125 L3.546875,13.53125 L5.734375,13.53125 C5.609375,12.390625 5.15625,11.328125 3.671875,10.390625 L3.90625,10.0625 C6.21875,10.890625 6.84375,12.21875 7.015625,13.53125 L8.59375,13.53125 L8.59375,11.875 C8.59375,11.0625 8.765625,10.75 9.84375,10.75 L10.78125,10.75 C11.421875,10.75 11.90625,10.78125 12.234375,10.828125 L12.234375,9.53125 Z M3.546875,20.046875 L3.359375,19.78125 C4.4375,19.0625 5.0625,17.734375 5.359375,16.890625 C5.46875,16.796875 5.609375,16.75 5.71875,16.734375 L1.0625,16.734375 L1.25,16.03125 L5.78125,16.03125 L5.78125,14.5 L5.78125,14.203125 L3.8125,14.203125 L2.1875,14.921875 L2.1875,5.65625 L2.40625,5.65625 C3.09375,5.65625 3.546875,6 3.546875,6.125 L3.546875,6.703125 L6.9375,6.703125 C6.890625,5.953125 6.8125,5.28125 6.703125,4.65625 L1.0625,4.65625 L1.25,3.984375 L6.546875,3.984375 C5.921875,1.46875 4.421875,-0.125 0.984375,-1.46875 L1.109375,-1.875 C4.46875,-0.953125 6.390625,0.28125 7.421875,2.375 C9.21875,1.578125 11.46875,0.09375 12.359375,-1.21875 C14.234375,-1.921875 14.25,1.796875 7.609375,2.765625 C7.78125,3.140625 7.890625,3.546875 8.015625,3.984375 L14.28125,3.984375 C14.609375,3.984375 14.828125,4.078125 14.90625,4.34375 C14.1875,5.046875 13.03125,5.921875 13.03125,5.921875 L12.03125,4.65625 L8.1875,4.65625 C8.296875,5.28125 8.375,5.953125 8.453125,6.703125 L12.234375,6.703125 L12.234375,5.953125 L12.484375,5.953125 C13.078125,5.953125 13.625,6.3125 13.625,6.40625 L13.625,13.421875 C14.109375,13.515625 14.359375,13.625 14.515625,13.796875 L12.890625,15.09375 L12.171875,14.203125 L9.796875,14.203125 L9.796875,16.03125 L14.15625,16.03125 C14.5,16.03125 14.71875,16.15625 14.78125,16.421875 C14.046875,17.09375 12.890625,18.046875 12.890625,18.046875 L11.828125,16.734375 L9.140625,16.734375 C9.984375,17.421875 10.875,18.28125 11.453125,18.953125 C11.96875,18.90625 12.234375,19.109375 12.359375,19.390625 L9.90625,20.1875 C9.578125,19.171875 9,17.734375 8.5,16.734375 L6.078125,16.734375 C6.984375,17.015625 7.0625,19.46875 3.546875,20.046875 Z M7.0625,16.03125 L8.59375,16.03125 L8.59375,14.203125 L7.0625,14.203125 L7.0625,14.5 Z M9.796875,13.53125 L12.234375,13.53125 L12.234375,11.921875 L12.125,11.921875 C12.03125,11.90625 11.859375,11.859375 11.765625,11.859375 C11.734375,11.859375 11.609375,11.859375 11.546875,11.859375 C11.421875,11.859375 11.140625,11.859375 10.84375,11.859375 L10.15625,11.859375 C9.859375,11.859375 9.796875,11.921875 9.796875,12.140625 Z M15.484375,18.34375 L15.484375,-1.875 L15.71875,-1.875 C16.484375,-1.875 16.96875,-1.46875 16.96875,-1.3125 L16.96875,17.640625 L20.5,17.640625 C19.96875,15.625 19.109375,12.546875 18.53125,10.96875 C20.359375,9 21.09375,7.078125 21.09375,5.1875 C21.09375,4.15625 20.859375,3.625 20.421875,3.359375 C20.234375,3.234375 20.109375,3.21875 19.828125,3.21875 C19.421875,3.21875 18.390625,3.21875 17.859375,3.21875 L17.859375,2.828125 C18.4375,2.78125 18.953125,2.640625 19.15625,2.46875 C19.375,2.25 19.46875,1.734375 19.46875,1.21875 C21.859375,1.34375 22.703125,2.421875 22.703125,4.828125 C22.6875,6.890625 21.671875,9 19.125,11.046875 C20.09375,12.59375 21.53125,15.625 22.265625,17.234375 C22.828125,17.234375 23.15625,17.296875 23.296875,17.5 L21.4375,19.375 L20.421875,18.34375 L17.25,18.34375 L15.484375,19.265625 Z" transform="translate(-0.140625, 20.1875) scale(1, -1)"/>
</svg>