<svg height="21.9375" viewBox="0 0 24 21.9375" width="24" xmlns="http://www.w3.org/2000/svg">
<path d="M3.90625,8.59375 L12.125,8.59375 L12.125,7.25 L3.90625,7.25 Z M3.90625,9.265625 L3.90625,13.109375 L5.828125,13.109375 C5.734375,11.96875 5.375,10.875 4.109375,9.953125 L4.34375,9.59375 C6.4375,10.515625 6.984375,11.828125 7.125,13.109375 L8.609375,13.109375 L8.609375,11.5625 C8.609375,10.75 8.8125,10.390625 9.84375,10.390625 L10.6875,10.390625 C11.328125,10.390625 11.78125,10.421875 12.125,10.484375 L12.125,9.265625 Z M4.15625,18.625 C3.484375,16.796875 2.1875,15 0.8125,13.96875 L1.078125,13.65625 C1.578125,13.875 2.0625,14.140625 2.515625,14.421875 L2.515625,5.234375 L2.734375,5.234375 C3.453125,5.234375 3.90625,5.5625 3.90625,5.6875 L3.90625,6.546875 L7.171875,6.546875 C7.15625,5.734375 7.125,4.96875 7.03125,4.265625 L1.125,4.265625 L1.3125,3.578125 L6.90625,3.578125 C6.453125,1.421875 5.09375,-0.1875 0.8125,-1.46875 L1.109375,-1.875 C5.140625,-0.9375 7.015625,0.3125 7.921875,1.984375 C9.546875,1.265625 11.453125,0.078125 12.265625,-1.078125 C14.109375,-1.65625 14.109375,1.75 8.15625,2.515625 C8.28125,2.859375 8.40625,3.21875 8.46875,3.578125 L14.5625,3.578125 C14.90625,3.578125 15.125,3.703125 15.1875,3.953125 C14.421875,4.6875 13.15625,5.6875 13.15625,5.6875 L12.046875,4.265625 L8.59375,4.265625 C8.71875,4.96875 8.734375,5.734375 8.78125,6.546875 L12.125,6.546875 L12.125,5.6875 L12.34375,5.6875 C13.015625,5.6875 13.5625,6 13.5625,6.125 L13.5625,13.015625 C14.015625,13.078125 14.28125,13.21875 14.453125,13.390625 L12.765625,14.65625 L12.046875,13.796875 L9.90625,13.796875 L9.90625,15.40625 L11.8125,15.40625 C12,15.40625 12.171875,15.453125 12.265625,15.578125 C12.84375,14.96875 13.53125,14.453125 14.359375,13.984375 C14.5,14.59375 15.046875,15.03125 15.59375,15.1875 L15.640625,15.4375 C13.609375,16.0625 11.921875,17.140625 11.203125,18.34375 C11.90625,18.390625 12.4375,18.53125 12.671875,18.8125 L10.796875,20.0625 L10.15625,19.078125 L5.640625,19.078125 L5.859375,18.359375 L10.625,18.359375 C10.828125,17.765625 11.09375,17.1875 11.421875,16.65625 L10.65625,17.25 L9.75,16.125 L4.53125,16.125 C4.875,16.515625 5.1875,16.890625 5.453125,17.296875 C5.90625,17.234375 6.21875,17.40625 6.34375,17.640625 Z M5.859375,15.40625 L5.859375,14.046875 L5.859375,13.796875 L4.203125,13.796875 L2.609375,14.46875 C3.125,14.8125 3.578125,15.1875 4.015625,15.59375 L4.0625,15.40625 Z M7.171875,15.40625 L8.609375,15.40625 L8.609375,13.796875 L7.171875,13.796875 L7.171875,14.046875 Z M9.90625,13.109375 L12.125,13.109375 L12.125,11.640625 L11.953125,11.640625 C11.859375,11.59375 11.71875,11.5625 11.609375,11.5625 C11.546875,11.5625 11.453125,11.5625 11.375,11.5625 C11.25,11.546875 11.015625,11.546875 10.796875,11.546875 L10.21875,11.546875 C9.953125,11.546875 9.90625,11.640625 9.90625,11.875 Z M15.703125,18.34375 L15.703125,-1.875 L15.90625,-1.875 C16.6875,-1.875 17.140625,-1.46875 17.140625,-1.3125 L17.140625,17.640625 L20.546875,17.640625 C19.921875,15.546875 18.984375,12.359375 18.359375,10.703125 C20.296875,8.65625 21.046875,6.671875 21.046875,4.703125 C21.046875,3.625 20.8125,3.046875 20.328125,2.78125 C20.140625,2.6875 19.984375,2.65625 19.734375,2.65625 C19.296875,2.65625 18.234375,2.65625 17.640625,2.65625 L17.640625,2.25 C18.265625,2.1875 18.765625,2.0625 18.984375,1.875 C19.203125,1.6875 19.296875,1.171875 19.296875,0.671875 C21.765625,0.796875 22.625,1.890625 22.625,4.375 C22.625,6.4375 21.59375,8.65625 18.953125,10.78125 C19.984375,12.40625 21.5,15.578125 22.265625,17.234375 C22.828125,17.25 23.15625,17.296875 23.328125,17.515625 L21.453125,19.34375 L20.453125,18.34375 L17.453125,18.34375 L15.703125,19.25 Z" transform="translate(-0.0703125, 20.0625) scale(1, -1)"/>
</svg>