<svg height="21.96875" viewBox="0 0 24 21.96875" width="24" xmlns="http://www.w3.org/2000/svg">
<path d="M5.828125,20.09375 L5.5625,19.921875 C6.625,18.9375 7.875,17.328125 8.203125,16.0625 C9.9375,14.90625 11.140625,18.484375 5.828125,20.09375 Z M15.34375,20.140625 C14.875,18.796875 14.0625,16.984375 13.3125,15.71875 L0.984375,15.71875 L1.203125,15.03125 L8.59375,15.03125 L8.59375,12.40625 L5.046875,12.40625 L3.265625,13.171875 L3.265625,-1.828125 L3.5,-1.828125 C4.265625,-1.828125 4.75,-1.484375 4.75,-1.34375 L4.75,-0.546875 L19.015625,-0.546875 L19.015625,-1.703125 L19.25,-1.703125 C19.96875,-1.703125 20.546875,-1.3125 20.546875,-1.21875 L20.546875,11.59375 C21.078125,11.65625 21.359375,11.8125 21.53125,11.96875 L19.734375,13.421875 L18.90625,12.40625 L14.296875,12.40625 L14.296875,15.03125 L22.375,15.03125 C22.734375,15.03125 22.9375,15.125 23.015625,15.390625 C22.15625,16.171875 20.765625,17.234375 20.765625,17.234375 L19.53125,15.71875 L13.9375,15.71875 C15.09375,16.703125 16.265625,18 16.984375,19.015625 C17.515625,18.984375 17.8125,19.171875 17.90625,19.46875 Z M10.0625,15.03125 L12.8125,15.03125 L12.8125,12.40625 L10.0625,12.40625 Z M4.75,0.140625 L4.75,3.046875 L19.015625,3.046875 L19.015625,0.140625 Z M4.75,3.75 L4.75,11.734375 L8.59375,11.734375 C8.515625,9.484375 7.984375,7.171875 5.375,5.359375 L5.640625,4.984375 C9.3125,6.71875 9.953125,9.390625 10.03125,11.734375 L12.8125,11.734375 L12.8125,7.46875 C12.8125,6.453125 13.0625,6.078125 14.375,6.078125 L15.625,6.078125 C17.8125,6.078125 18.359375,6.359375 18.359375,6.984375 C18.359375,7.25 18.265625,7.4375 17.859375,7.609375 L17.765625,10.34375 L17.453125,10.34375 C17.25,9.234375 17.015625,7.984375 16.875,7.6875 C16.78125,7.515625 16.703125,7.484375 16.5625,7.46875 C16.421875,7.46875 16.109375,7.46875 15.671875,7.46875 L14.78125,7.46875 C14.359375,7.46875 14.296875,7.53125 14.296875,7.828125 L14.296875,11.734375 L19.015625,11.734375 L19.015625,3.75 Z" transform="translate(0, 20.140625) scale(1, -1)"/>
</svg>