<svg height="21.25" viewBox="0 0 24 21.25" width="24" xmlns="http://www.w3.org/2000/svg">
<path d="M3.03125,13.75 L3.03125,-1.828125 L3.265625,-1.828125 C4.0625,-1.828125 4.53125,-1.4375 4.53125,-1.296875 L4.53125,0.09375 L19.421875,0.09375 L19.421875,-1.609375 L19.65625,-1.609375 C20.375,-1.609375 20.96875,-1.21875 20.96875,-1.109375 L20.96875,12.90625 C21.53125,12.984375 21.796875,13.15625 21.953125,13.34375 L20.140625,14.765625 L19.3125,13.75 L14.546875,13.75 L14.546875,17.203125 L22.296875,17.203125 C22.625,17.203125 22.875,17.328125 22.921875,17.59375 C22.0625,18.359375 20.6875,19.421875 20.6875,19.421875 L19.46875,17.90625 L1.078125,17.90625 L1.296875,17.203125 L8.609375,17.203125 L8.609375,13.75 L4.828125,13.75 L3.03125,14.515625 Z M10.15625,17.203125 L13.078125,17.203125 L13.078125,13.75 L10.15625,13.75 Z M4.53125,0.8125 L4.53125,3.75 L19.421875,3.75 L19.421875,0.8125 Z M4.53125,4.4375 L4.53125,13.0625 L8.609375,13.0625 C8.59375,10.375 8.09375,7.875 5.0625,5.921875 L5.328125,5.59375 C9.53125,7.421875 10.109375,10.296875 10.15625,13.0625 L13.078125,13.0625 L13.078125,8.453125 C13.078125,7.4375 13.3125,7.03125 14.65625,7.03125 L15.9375,7.03125 C18.140625,7.03125 18.703125,7.3125 18.703125,7.921875 C18.703125,8.234375 18.59375,8.40625 18.171875,8.5625 L18.078125,11.046875 L17.78125,11.046875 C17.59375,10.078125 17.328125,8.90625 17.203125,8.640625 C17.109375,8.46875 17.046875,8.453125 16.890625,8.453125 C16.734375,8.421875 16.390625,8.421875 15.953125,8.421875 L15.046875,8.421875 C14.59375,8.421875 14.546875,8.515625 14.546875,8.828125 L14.546875,13.0625 L19.421875,13.0625 L19.421875,4.4375 Z" transform="translate(0, 19.421875) scale(1, -1)"/>
</svg>