<svg height="21.875" viewBox="0 0 24 21.875" width="24" xmlns="http://www.w3.org/2000/svg">
<path d="M15.84375,10.203125 L15.84375,5.859375 L11.5625,5.859375 L11.765625,5.15625 L15.84375,5.15625 L15.84375,-1.828125 L16.125,-1.828125 C16.6875,-1.828125 17.296875,-1.484375 17.296875,-1.296875 L17.296875,5.15625 L22.375,5.15625 C22.703125,5.15625 22.9375,5.28125 22.984375,5.546875 C22.25,6.265625 21.03125,7.265625 21.03125,7.265625 L19.9375,5.859375 L17.296875,5.859375 L17.296875,9.28125 C17.90625,9.359375 18.09375,9.59375 18.171875,9.9375 Z M1.578125,14.421875 L1.578125,-1.734375 L1.828125,-1.734375 C2.46875,-1.734375 2.96875,-1.375 2.96875,-1.203125 L2.96875,0.390625 L9.75,0.390625 L9.75,-1.3125 L9.9375,-1.3125 C10.4375,-1.3125 11.109375,-0.953125 11.140625,-0.765625 L11.140625,8.953125 L11.359375,8.71875 C14.859375,10.734375 15.8125,13.4375 16.15625,16.25 L18.40625,16.25 L18.40625,11.1875 C18.40625,10.296875 18.59375,9.90625 19.78125,9.90625 L20.8125,9.90625 C22.609375,9.90625 23.1875,10.21875 23.1875,10.796875 C23.1875,11.09375 23.09375,11.28125 22.65625,11.421875 L22.578125,13.53125 L22.296875,13.53125 C22.109375,12.640625 21.890625,11.71875 21.765625,11.46875 C21.703125,11.328125 21.625,11.28125 21.484375,11.28125 C21.40625,11.28125 21.171875,11.28125 20.875,11.28125 L20.1875,11.28125 C19.890625,11.28125 19.84375,11.328125 19.84375,11.59375 L19.84375,16.03125 C20.25,16.078125 20.5,16.203125 20.640625,16.375 L19.03125,17.78125 L18.1875,16.921875 L16.21875,16.921875 C16.296875,17.6875 16.3125,18.453125 16.34375,19.21875 C16.875,19.265625 17.046875,19.53125 17.09375,19.828125 L14.828125,20.046875 C14.8125,18.984375 14.8125,17.953125 14.734375,16.921875 L11.5625,16.921875 L11.78125,16.25 L14.6875,16.25 C14.453125,13.609375 13.65625,11.140625 11.140625,9.171875 L11.140625,13.46875 C11.609375,13.53125 12.03125,13.734375 12.140625,13.921875 L10.3125,15.34375 L9.5,14.421875 L8.1875,14.421875 L8.1875,17.78125 L11.6875,17.78125 C12.03125,17.78125 12.265625,17.90625 12.3125,18.171875 C11.5625,18.859375 10.296875,19.84375 10.296875,19.84375 L9.21875,18.453125 L0.953125,18.453125 L1.15625,17.78125 L4.265625,17.78125 L4.265625,14.421875 L3.09375,14.421875 L1.578125,15.171875 Z M6.90625,17.78125 L6.90625,14.421875 L5.546875,14.421875 L5.546875,17.78125 Z M9.75,4.34375 L9.75,1.078125 L2.96875,1.078125 L2.96875,4.34375 Z M9.75,5.0625 L2.96875,5.0625 L2.96875,6.8125 L3.125,6.640625 C5.375,8.375 5.546875,10.96875 5.546875,12.703125 L5.546875,13.703125 L6.90625,13.703125 L6.90625,9.03125 C6.90625,8.28125 7.078125,7.9375 8.015625,7.9375 L8.71875,7.9375 C9.140625,7.9375 9.484375,7.96875 9.75,8.015625 Z M9.75,9.171875 C9.640625,9.125 9.5,9.09375 9.40625,9.09375 C9.359375,9.09375 9.265625,9.09375 9.1875,9.09375 C9.125,9.09375 8.953125,9.09375 8.78125,9.09375 L8.359375,9.09375 C8.140625,9.09375 8.0625,9.171875 8.0625,9.40625 L8.0625,13.703125 L9.75,13.703125 Z M2.96875,7.21875 L2.96875,13.703125 L4.375,13.703125 L4.375,12.703125 C4.375,11.0625 4.296875,9 2.96875,7.21875 Z" transform="translate(-0.0703125, 20.046875) scale(1, -1)"/>
</svg>