<svg height="21.859375" viewBox="0 0 24 21.859375" width="24" xmlns="http://www.w3.org/2000/svg">
<path d="M16.390625,20.0625 L16.390625,15.9375 L14.25,15.9375 C14.546875,16.65625 14.78125,17.40625 14.96875,18.140625 C15.484375,18.171875 15.71875,18.40625 15.8125,18.703125 L13.4375,19.21875 C13.171875,16.703125 12.5,14.0625 11.71875,12.234375 L12.09375,12.03125 C12.8125,12.890625 13.4375,13.984375 13.96875,15.21875 L16.390625,15.21875 L16.390625,11.25 L11.40625,11.25 L11.59375,10.5625 L16.390625,10.5625 L16.390625,7.65625 L16.6875,7.65625 C17.25,7.65625 17.875,7.984375 17.875,8.203125 L17.875,10.5625 L22.796875,10.5625 C23.140625,10.5625 23.359375,10.6875 23.421875,10.9375 C22.703125,11.65625 21.484375,12.625 21.484375,12.625 L20.453125,11.25 L17.875,11.25 L17.875,15.21875 L22.078125,15.21875 C22.421875,15.21875 22.65625,15.34375 22.734375,15.59375 C21.953125,16.3125 20.734375,17.296875 20.734375,17.296875 L19.6875,15.9375 L17.875,15.9375 L17.875,19.171875 C18.5,19.25 18.703125,19.484375 18.75,19.828125 Z M6.640625,17.78125 L6.640625,14.421875 L5.328125,14.421875 L5.328125,17.78125 Z M1.5625,14.421875 L1.5625,-1.75 L1.796875,-1.75 C2.421875,-1.75 2.921875,-1.390625 2.921875,-1.21875 L2.921875,0.390625 L9.359375,0.390625 L9.359375,-1.46875 L9.578125,-1.46875 C10.078125,-1.46875 10.734375,-1.078125 10.78125,-0.90625 L10.78125,13.46875 C11.234375,13.53125 11.640625,13.734375 11.78125,13.921875 L9.953125,15.34375 L9.140625,14.421875 L7.890625,14.421875 L7.890625,17.78125 L11.25,17.78125 C11.59375,17.78125 11.828125,17.90625 11.90625,18.171875 C11.140625,18.859375 9.890625,19.84375 9.890625,19.84375 L8.78125,18.453125 L0.953125,18.453125 L1.15625,17.78125 L4.078125,17.78125 L4.078125,14.421875 L3.046875,14.421875 L1.5625,15.171875 Z M9.359375,4.34375 L9.359375,1.078125 L2.921875,1.078125 L2.921875,4.34375 Z M9.359375,5.0625 L2.921875,5.0625 L2.921875,6.75 L3,6.640625 C5.1875,8.40625 5.328125,10.96875 5.328125,12.703125 L5.328125,13.703125 L6.640625,13.703125 L6.640625,9.03125 C6.640625,8.296875 6.796875,7.9375 7.703125,7.9375 L8.328125,7.9375 C8.765625,7.9375 9.09375,7.96875 9.359375,8.015625 Z M9.359375,9.171875 L9.3125,9.171875 C9.21875,9.125 9.078125,9.09375 8.96875,9.09375 C8.921875,9.09375 8.859375,9.09375 8.78125,9.09375 C8.71875,9.09375 8.5625,9.09375 8.421875,9.09375 L8.015625,9.09375 C7.84375,9.09375 7.796875,9.171875 7.796875,9.40625 L7.796875,13.703125 L9.359375,13.703125 Z M2.921875,7.265625 L2.921875,13.703125 L4.171875,13.703125 L4.171875,12.703125 C4.171875,11.0625 4.15625,9.078125 2.921875,7.265625 Z M12.9375,7.171875 L12.9375,-1.796875 L13.171875,-1.796875 C13.890625,-1.796875 14.375,-1.46875 14.375,-1.34375 L14.375,0.140625 L20.046875,0.140625 L20.046875,-1.65625 L20.28125,-1.65625 C20.96875,-1.65625 21.546875,-1.3125 21.546875,-1.203125 L21.546875,6.359375 C22.015625,6.4375 22.265625,6.578125 22.4375,6.765625 L20.734375,8.0625 L19.96875,7.171875 L14.65625,7.171875 L12.9375,7.890625 Z M14.375,0.84375 L14.375,6.453125 L20.046875,6.453125 L20.046875,0.84375 Z" transform="translate(-0.1875, 20.0625) scale(1, -1)"/>
</svg>