<svg height="21.84375" viewBox="0 0 24 21.84375" width="24" xmlns="http://www.w3.org/2000/svg">
<path d="M1.5625,14.421875 L1.5625,-1.75 L1.796875,-1.75 C2.421875,-1.75 2.921875,-1.390625 2.921875,-1.21875 L2.921875,0.390625 L9.359375,0.390625 L9.359375,-1.421875 L9.578125,-1.421875 C10.078125,-1.421875 10.734375,-1.03125 10.78125,-0.890625 L10.78125,10.078125 L10.84375,10.015625 C11.375,10.375 11.859375,10.78125 12.28125,11.203125 L12.40625,10.796875 L13.890625,10.796875 L13.890625,7.421875 L13.890625,6.984375 L11.0625,6.984375 L11.25,6.28125 L13.875,6.28125 C13.78125,3.640625 13.171875,0.796875 10.609375,-1.5625 L10.921875,-1.875 C14.40625,0.34375 15.140625,3.5 15.28125,6.28125 L17.5,6.28125 L17.5,0.078125 C17.5,-0.90625 17.734375,-1.3125 19.078125,-1.3125 L20.359375,-1.3125 C22.609375,-1.3125 23.1875,-1.03125 23.1875,-0.4375 C23.1875,-0.140625 23.09375,0.046875 22.625,0.21875 L22.5625,3.359375 L22.25,3.359375 C22.0625,2.140625 21.796875,0.625 21.640625,0.3125 C21.578125,0.125 21.484375,0.078125 21.359375,0.078125 C21.1875,0.046875 20.828125,0.046875 20.359375,0.046875 L19.390625,0.046875 C18.90625,0.046875 18.859375,0.140625 18.859375,0.484375 L18.859375,6.28125 L22.078125,6.28125 C22.390625,6.28125 22.625,6.40625 22.703125,6.671875 C21.984375,7.34375 20.828125,8.296875 20.828125,8.296875 L19.84375,6.984375 L18.859375,6.984375 L18.859375,10.796875 L20.609375,10.796875 C20.921875,10.796875 21.140625,10.921875 21.21875,11.1875 C20.546875,11.828125 19.484375,12.703125 19.484375,12.703125 L18.53125,11.5 L12.578125,11.5 C14.421875,13.390625 15.546875,15.796875 16.203125,18.09375 C16.734375,18.125 16.921875,18.171875 17.109375,18.359375 L15.5,19.828125 L14.59375,18.890625 L11.96875,18.890625 L12.171875,18.1875 L14.65625,18.1875 C14.453125,17.234375 14.15625,16.21875 13.78125,15.265625 C13.5625,15.84375 12.796875,16.5625 10.984375,16.921875 L10.75,16.734375 C11.5,16.171875 12.359375,15.1875 12.640625,14.453125 C12.90625,14.28125 13.15625,14.25 13.34375,14.296875 C12.671875,12.90625 11.828125,11.59375 10.78125,10.5625 L10.78125,13.46875 C11.234375,13.53125 11.640625,13.734375 11.78125,13.921875 L9.953125,15.34375 L9.140625,14.421875 L7.890625,14.421875 L7.890625,17.78125 L11.25,17.78125 C11.59375,17.78125 11.828125,17.90625 11.90625,18.171875 C11.140625,18.859375 9.890625,19.84375 9.890625,19.84375 L8.78125,18.453125 L0.953125,18.453125 L1.15625,17.78125 L4.078125,17.78125 L4.078125,14.421875 L3.046875,14.421875 L1.5625,15.171875 Z M15.3125,10.796875 L17.5,10.796875 L17.5,6.984375 L15.3125,6.984375 L15.3125,7.4375 Z M21.703125,16.9375 C21.390625,16.515625 20.71875,15.71875 20.09375,15.078125 C19.703125,15.578125 19.34375,16.125 19.03125,16.6875 C19.921875,17.09375 20.8125,17.609375 21.28125,17.921875 C21.59375,17.828125 21.765625,17.875 21.890625,18 L20.421875,19.109375 C20.09375,18.640625 19.421875,17.8125 18.796875,17.15625 C18.34375,18.046875 17.96875,18.984375 17.6875,19.96875 L17.25,19.84375 C18.078125,15.71875 19.578125,12.578125 22.03125,10.734375 C22.25,11.421875 22.703125,11.875 23.28125,11.96875 L23.328125,12.21875 C22.265625,12.765625 21.28125,13.609375 20.453125,14.609375 C21.265625,15 22.078125,15.484375 22.53125,15.765625 C22.84375,15.671875 23.046875,15.703125 23.15625,15.84375 Z M6.640625,17.78125 L6.640625,14.421875 L5.328125,14.421875 L5.328125,17.78125 Z M9.359375,4.34375 L9.359375,1.078125 L2.921875,1.078125 L2.921875,4.34375 Z M9.359375,5.0625 L2.921875,5.0625 L2.921875,6.75 L3,6.640625 C5.1875,8.40625 5.328125,10.96875 5.328125,12.703125 L5.328125,13.703125 L6.640625,13.703125 L6.640625,9.03125 C6.640625,8.296875 6.796875,7.9375 7.703125,7.9375 L8.328125,7.9375 C8.765625,7.9375 9.09375,7.96875 9.359375,8.015625 Z M9.359375,9.171875 L9.3125,9.171875 C9.21875,9.125 9.078125,9.09375 8.96875,9.09375 C8.921875,9.09375 8.859375,9.09375 8.78125,9.09375 C8.71875,9.09375 8.5625,9.09375 8.421875,9.09375 L8.015625,9.09375 C7.84375,9.09375 7.796875,9.171875 7.796875,9.40625 L7.796875,13.703125 L9.359375,13.703125 Z M2.921875,7.265625 L2.921875,13.703125 L4.171875,13.703125 L4.171875,12.703125 C4.171875,11.0625 4.15625,9.078125 2.921875,7.265625 Z" transform="translate(-0.140625, 19.96875) scale(1, -1)"/>
</svg>