<svg height="22.15625" viewBox="0 0 24 22.15625" width="24" xmlns="http://www.w3.org/2000/svg">
<path d="M11.71875,12.890625 L11.5,12.671875 C12.21875,12.171875 13.0625,11.25 13.34375,10.46875 C14.765625,9.640625 15.703125,12.390625 11.71875,12.890625 Z M12.859375,7.78125 L12.859375,6.390625 L10.5625,6.390625 C10.609375,6.8125 10.625,7.265625 10.65625,7.78125 Z M3.890625,6.390625 L3.890625,-1.875 L4.125,-1.875 C4.75,-1.875 5.421875,-1.515625 5.421875,-1.375 L5.421875,-0.8125 L18.546875,-0.8125 L18.546875,-1.875 L18.796875,-1.875 C19.296875,-1.875 20.0625,-1.515625 20.09375,-1.375 L20.09375,5.453125 C20.515625,5.515625 20.875,5.71875 21.03125,5.875 L19.171875,7.296875 L18.34375,6.390625 L14.25,6.390625 L14.25,7.78125 L22.34375,7.78125 C22.6875,7.78125 22.921875,7.890625 22.984375,8.15625 C22.203125,8.859375 20.953125,9.8125 20.953125,9.8125 L19.84375,8.46875 L1.0625,8.46875 L1.265625,7.78125 L9.1875,7.78125 C9.1875,7.265625 9.1875,6.8125 9.140625,6.390625 L5.59375,6.390625 L3.890625,7.15625 Z M18.546875,-0.125 L5.421875,-0.125 L5.421875,1.375 L18.546875,1.375 Z M18.546875,2.0625 L5.421875,2.0625 L5.421875,5.65625 L9.046875,5.65625 C8.78125,4.4375 8.046875,3.625 5.96875,3 L6.28125,2.59375 C9.140625,3.234375 10.109375,4.171875 10.46875,5.65625 L12.859375,5.65625 L12.859375,4.875 C12.859375,3.234375 12.953125,3.140625 14.46875,3.140625 L16.25,3.140625 C17.6875,3.140625 18.046875,3.390625 18.046875,3.890625 C18.046875,4.109375 17.953125,4.15625 17.453125,4.3125 L17.359375,5.375 L17.140625,5.375 C16.921875,4.75 16.75,4.421875 16.65625,4.3125 C16.53125,4.25 16.421875,4.25 16.3125,4.25 L14.65625,4.25 C14.25,4.25 14.25,4.265625 14.25,4.875 L14.25,5.65625 L18.546875,5.65625 Z M1.15625,13.890625 L1.375,13.203125 L4.15625,13.203125 C4.0625,11.6875 3.703125,10.34375 1.75,9.1875 L2.09375,8.8125 C4.828125,9.90625 5.46875,11.453125 5.65625,13.203125 L7.265625,13.203125 L7.265625,8.90625 L7.5625,8.90625 C8.109375,8.90625 8.765625,9.21875 8.765625,9.4375 L8.765625,19.21875 C9.34375,19.3125 9.546875,19.53125 9.59375,19.875 L7.265625,20.109375 L7.265625,16.5625 L4.578125,16.5625 L4.578125,18.84375 C5.15625,18.9375 5.375,19.15625 5.453125,19.484375 L3.171875,19.734375 L3.171875,14.65625 L3.4375,14.65625 C3.984375,14.65625 4.578125,14.96875 4.578125,15.125 L4.578125,15.84375 L7.265625,15.84375 L7.265625,13.890625 Z M8.875,13.625 L9.046875,12.9375 L17.828125,12.9375 L17.828125,10.9375 C17.828125,10.625 17.734375,10.53125 17.359375,10.53125 C16.921875,10.53125 15.03125,10.65625 15.03125,10.65625 L15.03125,10.296875 C15.890625,10.203125 16.390625,10.03125 16.6875,9.84375 C16.9375,9.625 17.046875,9.28125 17.09375,8.875 C19.0625,9.046875 19.3125,9.71875 19.3125,10.890625 L19.3125,12.9375 L22.4375,12.9375 C22.78125,12.9375 22.984375,13.0625 23.0625,13.3125 C22.3125,13.984375 21.1875,14.921875 21.1875,14.921875 L20.1875,13.625 L19.3125,13.625 L19.3125,15.03125 C19.875,15.09375 20.0625,15.265625 20.140625,15.625 L17.828125,15.859375 L17.828125,13.625 Z M16.03125,19.296875 C16.6875,19.265625 16.96875,19.390625 17.0625,19.609375 L14.828125,20.28125 C13.875,19.109375 11.875,17.640625 9.765625,16.828125 L9.984375,16.46875 C10.65625,16.609375 11.328125,16.828125 11.953125,17.0625 C12.390625,16.65625 12.8125,16.078125 12.953125,15.59375 C13.96875,14.90625 14.90625,16.625 12.640625,17.328125 C13.0625,17.5 13.46875,17.6875 13.828125,17.875 C14.421875,17.546875 14.96875,16.984375 15.1875,16.484375 C16.3125,15.859375 17.046875,17.8125 14.40625,18.1875 L14.546875,18.28125 L18.71875,18.28125 C16.5625,16.15625 13.484375,15 9.3125,14.1875 L9.5,13.75 C14.828125,14.40625 18.234375,15.671875 20.765625,18.125 C21.28125,18.140625 21.625,18.21875 21.796875,18.390625 L20.0625,19.84375 L19.203125,18.984375 L15.625,18.984375 Z" transform="translate(-0.0625, 20.28125) scale(1, -1)"/>
</svg>