<svg height="21.859375" viewBox="0 0 24 21.859375" width="24" xmlns="http://www.w3.org/2000/svg">
<path d="M17.6875,16.421875 L17.5,16.125 C18.859375,15.5 20.8125,14.28125 21.640625,13.421875 C23.25,12.953125 23.453125,15.90625 17.6875,16.421875 Z M15.625,20.015625 L15.625,17.59375 L10.78125,17.59375 L10.96875,16.875 L22.421875,16.875 C22.75,16.875 22.984375,16.984375 23.046875,17.25 C22.296875,17.96875 21.078125,18.9375 21.078125,18.9375 L19.984375,17.59375 L17.09375,17.59375 L17.09375,19.125 C17.65625,19.21875 17.90625,19.4375 17.953125,19.78125 Z M1.53125,14.421875 L1.53125,-1.75 L1.78125,-1.75 C2.40625,-1.75 2.875,-1.421875 2.875,-1.21875 L2.875,0.390625 L8.875,0.390625 L8.875,-1.46875 L9.09375,-1.46875 C9.578125,-1.46875 10.25,-1.078125 10.265625,-0.9375 L10.265625,2.515625 L10.484375,2.140625 C11.609375,2.5625 12.71875,3.09375 13.703125,3.703125 L13.703125,0.40625 C12.671875,0.1875 11.828125,0.03125 11.28125,-0.046875 L12.171875,-1.84375 C12.40625,-1.75 12.578125,-1.578125 12.671875,-1.296875 C15.359375,-0.34375 17.359375,0.484375 18.75,1.0625 L18.640625,1.421875 L15.09375,0.671875 L15.09375,4.6875 C15.703125,5.140625 16.21875,5.640625 16.6875,6.171875 L17.109375,6.171875 C17.921875,2.40625 19.421875,-0.234375 22.296875,-1.734375 C22.46875,-0.984375 22.890625,-0.546875 23.5,-0.40625 L23.515625,-0.171875 C21.765625,0.40625 20.328125,1.515625 19.265625,2.96875 C20.421875,3.453125 21.671875,4.15625 22.34375,4.578125 C22.6875,4.484375 22.890625,4.53125 22.984375,4.6875 L21.359375,5.828125 C20.90625,5.234375 19.875,4.125 19.015625,3.34375 C18.4375,4.203125 17.96875,5.140625 17.640625,6.171875 L22.5625,6.171875 C22.890625,6.171875 23.109375,6.28125 23.15625,6.546875 C22.484375,7.21875 21.359375,8.09375 21.359375,8.09375 L20.375,6.859375 L19.25,6.859375 L19.25,8.765625 L21.9375,8.765625 C22.25,8.765625 22.46875,8.859375 22.53125,9.125 C21.859375,9.75 20.859375,10.5625 20.859375,10.5625 L19.96875,9.453125 L19.25,9.453125 L19.25,11.234375 L22.015625,11.234375 C22.34375,11.234375 22.5625,11.359375 22.609375,11.609375 C21.953125,12.234375 20.90625,13.109375 20.90625,13.109375 L19.984375,11.953125 L19.25,11.953125 L19.25,13.25 C19.65625,13.3125 19.84375,13.515625 19.890625,13.75 L17.859375,13.984375 L17.859375,11.953125 L15.140625,11.953125 L15.140625,13.265625 C15.546875,13.34375 15.75,13.515625 15.765625,13.78125 L13.734375,13.984375 L13.734375,11.953125 L10.984375,11.953125 L11.1875,11.234375 L13.734375,11.234375 L13.734375,9.453125 L11.515625,9.453125 L11.71875,8.765625 L13.734375,8.765625 L13.734375,6.859375 L10.4375,6.859375 L10.625,6.171875 L14.765625,6.171875 C13.625,4.78125 12.03125,3.53125 10.265625,2.59375 L10.265625,13.46875 L10.65625,13.5625 L10.5625,13.515625 L10.828125,13.171875 C12.578125,13.6875 14.5,14.609375 15.53125,15.4375 C16.03125,15.3125 16.21875,15.40625 16.390625,15.625 L14.515625,16.625 C13.828125,15.796875 12.484375,14.6875 11.234375,13.890625 L11.25,13.921875 L9.484375,15.34375 L8.65625,14.421875 L7.578125,14.421875 L7.578125,17.78125 L10.625,17.78125 C10.96875,17.78125 11.203125,17.90625 11.28125,18.171875 C10.515625,18.859375 9.28125,19.875 9.28125,19.875 L8.203125,18.453125 L0.984375,18.453125 L1.171875,17.78125 L3.84375,17.78125 L3.84375,14.421875 L3,14.421875 L1.53125,15.140625 Z M15.140625,11.234375 L17.859375,11.234375 L17.859375,9.453125 L15.140625,9.453125 Z M15.140625,8.765625 L17.859375,8.765625 L17.859375,6.859375 L15.140625,6.859375 Z M6.3125,17.78125 L6.3125,14.421875 L5.09375,14.421875 L5.09375,17.78125 Z M8.875,4.34375 L8.875,1.078125 L2.875,1.078125 L2.875,4.34375 Z M8.875,5.0625 L2.875,5.0625 L2.875,6.75 C4.921875,8.46875 5.09375,10.96875 5.09375,12.703125 L5.09375,13.703125 L6.3125,13.703125 L6.3125,9.03125 C6.3125,8.296875 6.484375,7.96875 7.390625,7.96875 L8.015625,7.96875 L8.875,7.984375 Z M8.875,9.140625 L8.6875,9.09375 C8.640625,9.09375 8.546875,9.09375 8.46875,9.09375 C8.40625,9.09375 8.234375,9.09375 8.109375,9.09375 L7.703125,9.09375 C7.515625,9.09375 7.46875,9.171875 7.46875,9.40625 L7.46875,13.703125 L8.875,13.703125 Z M2.875,7.578125 L2.875,13.703125 L3.953125,13.703125 L3.953125,12.703125 C3.953125,11.15625 3.90625,9.28125 2.875,7.578125 Z" transform="translate(-0.25, 20.015625) scale(1, -1)"/>
</svg>