<svg height="22.03125" viewBox="0 0 24 22.03125" width="24" xmlns="http://www.w3.org/2000/svg">
<path d="M16.46875,17.40625 L16.21875,17.1875 C17.875,16.015625 19.84375,13.875 20.296875,12.078125 C22.203125,10.84375 23.15625,15.28125 16.46875,17.40625 Z M10.21875,16.96875 L9.953125,16.78125 C10.875,15.765625 11.828125,14.046875 11.875,12.625 C13.53125,11.234375 15.21875,14.921875 10.21875,16.96875 Z M17.765625,20.15625 C15.53125,19.3125 11.546875,18.390625 7.890625,17.8125 L5.640625,18.671875 C5.0625,16.21875 3.671875,12.859375 1.6875,10.734375 L1.9375,10.4375 C4.421875,12.1875 6.1875,14.921875 7.171875,17.1875 C11.1875,17.296875 15.546875,17.828125 18.40625,18.4375 C19.015625,18.1875 19.46875,18.1875 19.703125,18.40625 Z M11.140625,11.25 L11.140625,8.734375 L1.203125,8.734375 L1.421875,8.046875 L9.484375,8.046875 C7.625,4.828125 4.515625,1.65625 0.90625,-0.453125 L1.15625,-0.8125 C5.40625,1.109375 8.921875,3.984375 11.140625,7.46875 L11.140625,-1.875 L11.453125,-1.875 C12.046875,-1.875 12.71875,-1.515625 12.71875,-1.3125 L12.71875,8.046875 L12.75,8.046875 C14.609375,4.3125 18.046875,1.0625 21.71875,-0.71875 C21.859375,-0.03125 22.34375,0.453125 23.109375,0.671875 L23.140625,0.9375 C19.578125,2.234375 15.40625,4.890625 13.421875,8.046875 L22.21875,8.046875 C22.5625,8.046875 22.78125,8.15625 22.84375,8.421875 C21.984375,9.21875 20.609375,10.265625 20.609375,10.265625 L19.390625,8.734375 L12.71875,8.734375 L12.71875,10.34375 C13.34375,10.421875 13.5625,10.65625 13.609375,10.984375 Z" transform="translate(-0.03125, 20.15625) scale(1, -1)"/>
</svg>