<svg height="21.859375" viewBox="0 0 24 21.859375" width="24" xmlns="http://www.w3.org/2000/svg">
<path d="M12.671875,8.828125 L12.40625,8.65625 C12.953125,8.046875 13.515625,6.9375 13.5625,6.046875 C14.859375,4.96875 16.296875,7.578125 12.671875,8.828125 Z M2.109375,16.078125 L1.78125,15.984375 C2.1875,14.921875 2.5625,13.3125 2.546875,12.09375 C3.71875,10.828125 5.28125,13.4375 2.109375,16.078125 Z M8.0625,16.796875 C7.890625,15.71875 7.4375,13.515625 7.0625,12.140625 L7.34375,12 C8.15625,13.21875 9,14.734375 9.4375,15.625 C9.90625,15.59375 10.171875,15.859375 10.21875,16.0625 Z M13.96875,15.21875 L12.03125,15.21875 L12.03125,18.171875 L13.96875,18.171875 Z M15.28125,15.21875 L15.28125,18.171875 L17.328125,18.171875 L17.328125,15.21875 Z M18.625,15.21875 L18.625,18.171875 L20.71875,18.171875 L20.71875,15.21875 Z M10.65625,18.84375 L10.65625,13.515625 L10.84375,13.515625 C11.421875,13.515625 12.03125,13.828125 12.03125,13.9375 L12.03125,14.515625 L20.71875,14.515625 L20.71875,13.6875 L20.921875,13.6875 C21.40625,13.6875 22.109375,14.015625 22.125,14.15625 L22.125,17.953125 C22.53125,18.03125 22.890625,18.21875 23.046875,18.359375 L21.28125,19.6875 L20.5,18.84375 L12.171875,18.84375 L10.65625,19.53125 Z M9.640625,9.59375 L9.84375,8.875 L22.6875,8.875 C23.015625,8.875 23.203125,9 23.28125,9.265625 C22.515625,9.953125 21.328125,10.78125 21.328125,10.78125 L20.28125,9.59375 L16.984375,9.59375 L16.984375,11.46875 L21.625,11.46875 C21.9375,11.46875 22.171875,11.59375 22.21875,11.859375 C21.5,12.484375 20.375,13.3125 20.375,13.3125 L19.421875,12.171875 L16.984375,12.171875 L16.984375,13.421875 C17.40625,13.515625 17.59375,13.703125 17.640625,13.96875 L15.484375,14.1875 L15.484375,12.171875 L10.96875,12.171875 L11.15625,11.46875 L15.484375,11.46875 L15.484375,9.59375 Z M18.453125,8.859375 C18.21875,7.921875 17.765625,6.671875 17.359375,5.78125 L10.0625,5.78125 L10.25,5.09375 L15.5,5.09375 L15.5,2.953125 L10.421875,2.953125 L10.578125,2.25 L15.5,2.25 L15.5,-1.875 L15.75,-1.875 C16.515625,-1.875 17.015625,-1.53125 17.015625,-1.390625 L17.015625,2.25 L21.8125,2.25 C22.125,2.25 22.375,2.375 22.421875,2.609375 C21.703125,3.265625 20.5625,4.078125 20.5625,4.078125 L19.578125,2.953125 L17.015625,2.953125 L17.015625,5.09375 L22.4375,5.09375 C22.75,5.09375 22.984375,5.203125 23.0625,5.46875 C22.34375,6.09375 21.21875,6.90625 21.21875,6.90625 L20.234375,5.78125 L18,5.78125 C18.640625,6.40625 19.296875,7.171875 19.75,7.78125 C20.25,7.78125 20.546875,7.96875 20.640625,8.234375 Z M0.984375,10.984375 L1.171875,10.296875 L4.171875,10.296875 C3.53125,7.203125 2.375,4.078125 0.71875,1.6875 L1.03125,1.34375 C2.78125,3.21875 4.0625,5.421875 4.96875,7.84375 L4.96875,-1.875 L5.203125,-1.875 C5.859375,-1.875 6.359375,-1.53125 6.359375,-1.390625 L6.359375,8.921875 C7.21875,7.984375 8.140625,6.640625 8.40625,5.546875 C9.90625,4.4375 11.15625,7.5625 6.359375,9.40625 L6.359375,10.296875 L9.953125,10.296875 C10.296875,10.296875 10.53125,10.390625 10.609375,10.65625 C9.890625,11.359375 8.78125,12.234375 8.78125,12.234375 L7.796875,10.984375 L6.359375,10.984375 L6.359375,17.78125 C7.421875,18 8.375,18.265625 9.171875,18.5 C9.71875,18.28125 10.125,18.28125 10.3125,18.484375 L8.609375,19.984375 C6.953125,19.109375 3.703125,17.953125 0.984375,17.40625 L1.109375,16.984375 C2.375,17.09375 3.703125,17.28125 4.96875,17.5 L4.96875,10.984375 Z" transform="translate(0, 19.984375) scale(1, -1)"/>
</svg>