<svg height="21.4375" viewBox="0 0 24 21.4375" width="24" xmlns="http://www.w3.org/2000/svg">
<path d="M5.46875,5.875 L5.15625,5.734375 C6.03125,4.4375 7.015625,2.46875 7.109375,0.890625 C8.640625,-0.578125 10.296875,2.96875 5.46875,5.875 Z M16.9375,6 C16.203125,4.03125 15.21875,1.875 14.453125,0.53125 L14.8125,0.3125 C15.984375,1.390625 17.328125,3.078125 18.40625,4.65625 C18.890625,4.578125 19.171875,4.78125 19.296875,5.046875 Z M12.4375,18.84375 C14.1875,15.453125 17.859375,12.3125 21.75,10.375 C21.890625,10.96875 22.484375,11.546875 23.203125,11.6875 L23.25,12.046875 C19.078125,13.703125 15.046875,16.203125 12.890625,19.15625 C13.484375,19.203125 13.796875,19.3125 13.84375,19.609375 L10.984375,20.28125 C9.671875,16.921875 4.734375,12.140625 0.71875,9.890625 L0.890625,9.546875 C5.375,11.59375 10.125,15.484375 12.4375,18.84375 Z M1.375,-0.453125 L1.5625,-1.15625 L22.0625,-1.15625 C22.390625,-1.15625 22.625,-1.03125 22.703125,-0.765625 C21.84375,0 20.453125,1.109375 20.453125,1.109375 L19.25,-0.453125 L12.671875,-0.453125 L12.671875,6.84375 L21.078125,6.84375 C21.40625,6.84375 21.625,6.953125 21.703125,7.21875 C20.875,7.96875 19.5625,8.96875 19.5625,8.96875 L18.390625,7.53125 L12.671875,7.53125 L12.671875,11.375 L17.109375,11.375 C17.453125,11.375 17.65625,11.5 17.734375,11.765625 C16.9375,12.453125 15.71875,13.34375 15.71875,13.375 L14.640625,12.078125 L5.921875,12.078125 L6.125,11.375 L11.0625,11.375 L11.0625,7.53125 L2.5,7.53125 L2.6875,6.84375 L11.0625,6.84375 L11.0625,-0.453125 Z" transform="translate(0.015625, 20.28125) scale(1, -1)"/>
</svg>