<svg height="21.9375" viewBox="0 0 24 21.9375" width="24" xmlns="http://www.w3.org/2000/svg">
<path d="M8.140625,7.53125 C7.921875,5.921875 7.578125,4.0625 7.265625,2.78125 L7.65625,2.640625 C8.359375,3.671875 9,5.15625 9.5,6.40625 C9.984375,6.40625 10.25,6.625 10.34375,6.90625 Z M2.1875,7.390625 L1.828125,7.296875 C2.25,5.96875 2.6875,4.03125 2.515625,2.515625 C3.71875,1.15625 5.296875,4.109375 2.1875,7.390625 Z M12.578125,19.015625 C12.234375,15.84375 11.359375,12.765625 10.171875,10.65625 L10.53125,10.421875 C11.453125,11.421875 12.234375,12.75 12.859375,14.234375 L15.625,14.234375 C15.59375,12.453125 15.53125,10.828125 15.34375,9.28125 L10.796875,9.28125 L10.984375,8.59375 L15.234375,8.59375 C14.609375,4.375 12.9375,1.078125 8.640625,-1.421875 L8.921875,-1.84375 C14.109375,0.671875 16.03125,4.109375 16.75,8.59375 L16.796875,8.59375 C17.515625,3.765625 19.25,0.09375 22.125,-1.875 C22.25,-1.15625 22.796875,-0.640625 23.515625,-0.40625 L23.5625,-0.125 C20.46875,1.3125 18.234375,4.265625 17.359375,8.59375 L22.484375,8.59375 C22.828125,8.59375 23.0625,8.71875 23.140625,8.96875 C22.375,9.703125 21.125,10.65625 21.125,10.65625 L20.015625,9.28125 L16.84375,9.28125 C17.046875,10.828125 17.140625,12.453125 17.1875,14.234375 L21.671875,14.234375 C22.015625,14.234375 22.21875,14.359375 22.296875,14.609375 C21.546875,15.34375 20.28125,16.34375 20.28125,16.34375 L19.171875,14.921875 L17.1875,14.921875 L17.234375,18.953125 C17.8125,19.0625 18,19.296875 18.078125,19.625 L15.625,19.890625 L15.625,14.921875 L13.15625,14.921875 C13.515625,15.890625 13.828125,16.890625 14.0625,17.953125 C14.609375,17.96875 14.859375,18.1875 14.921875,18.5 Z M6.4375,18.84375 C7.03125,18.84375 7.25,19.03125 7.3125,19.265625 L5.015625,20.0625 C4.265625,17.546875 2.296875,13.65625 0.3125,11.515625 L0.640625,11.28125 C2.953125,13.109375 4.984375,16.03125 6.1875,18.4375 C7.609375,17.1875 8.6875,15.71875 9.140625,14.6875 C10.515625,13.703125 12.234375,16.5625 6.4375,18.84375 Z M0.90625,0.1875 L2.046875,-1.828125 C2.28125,-1.734375 2.5,-1.53125 2.5625,-1.21875 C6.28125,0.09375 9.03125,1.203125 10.921875,2.015625 L10.84375,2.359375 L6.453125,1.34375 L6.453125,8.6875 L9.859375,8.6875 C10.203125,8.6875 10.421875,8.8125 10.484375,9.046875 C9.796875,9.765625 8.640625,10.734375 8.640625,10.734375 L7.609375,9.390625 L6.453125,9.390625 L6.453125,12.4375 L9.265625,12.4375 C9.59375,12.4375 9.8125,12.546875 9.890625,12.8125 C9.1875,13.515625 8.0625,14.421875 8.0625,14.421875 L7.078125,13.15625 L2.765625,13.15625 L2.953125,12.4375 L5.015625,12.4375 L5.015625,9.390625 L1.15625,9.390625 L1.34375,8.6875 L5.015625,8.6875 L5.015625,1.015625 C3.265625,0.625 1.796875,0.34375 0.90625,0.1875 Z" transform="translate(0.0625, 20.0625) scale(1, -1)"/>
</svg>