<svg height="21.90625" viewBox="0 0 24 21.90625" width="24" xmlns="http://www.w3.org/2000/svg">
<path d="M13.84375,19.703125 C13.4375,15.578125 12.234375,11.8125 10.578125,9.21875 L10.9375,9 C13.15625,11.1875 14.640625,14.5625 15.453125,18.59375 C15.984375,18.625 16.265625,18.859375 16.34375,19.171875 Z M18.546875,19.828125 L18.171875,19.6875 C18.796875,15.265625 19.96875,11.71875 21.953125,9.484375 C22.21875,10.265625 22.734375,10.734375 23.359375,10.828125 L23.40625,11.0625 C21.234375,12.703125 19.421875,16.171875 18.546875,19.828125 Z M8.359375,7.4375 C8.109375,5.78125 7.703125,3.859375 7.375,2.609375 L7.75,2.421875 C8.5,3.484375 9.171875,4.96875 9.71875,6.28125 C10.21875,6.265625 10.484375,6.484375 10.578125,6.765625 Z M2.234375,7.21875 L1.890625,7.109375 C2.359375,5.828125 2.828125,3.859375 2.734375,2.359375 C3.953125,1.015625 5.5,3.953125 2.234375,7.21875 Z M11.921875,7.984375 L11.921875,-1.84375 L12.140625,-1.84375 C12.890625,-1.84375 13.375,-1.515625 13.375,-1.390625 L13.375,-0.171875 L20.09375,-0.171875 L20.09375,-1.703125 L20.328125,-1.703125 C21.03125,-1.703125 21.578125,-1.34375 21.578125,-1.25 L21.578125,7.171875 C22.0625,7.25 22.3125,7.375 22.484375,7.5625 L20.78125,8.90625 L20.015625,7.984375 L13.65625,7.984375 L11.921875,8.734375 Z M13.375,0.53125 L13.375,7.265625 L20.09375,7.265625 L20.09375,0.53125 Z M6.59375,18.84375 C7.171875,18.84375 7.421875,19.03125 7.484375,19.265625 L5.1875,20.0625 C4.4375,17.5625 2.46875,13.6875 0.484375,11.5625 L0.8125,11.328125 C3.125,13.125 5.15625,16.0625 6.359375,18.4375 C7.78125,17.15625 8.859375,15.703125 9.359375,14.65625 C10.734375,13.6875 12.484375,16.53125 6.59375,18.84375 Z M0.9375,0.1875 L2.09375,-1.796875 C2.296875,-1.703125 2.515625,-1.515625 2.59375,-1.203125 C6.28125,0.125 8.96875,1.21875 10.875,2.046875 L10.78125,2.40625 L6.625,1.421875 L6.625,8.546875 L10.25,8.546875 C10.578125,8.546875 10.796875,8.65625 10.875,8.921875 C10.15625,9.625 9,10.578125 9,10.578125 L7.984375,9.234375 L6.625,9.234375 L6.625,12.453125 L9.546875,12.453125 C9.890625,12.453125 10.125,12.578125 10.171875,12.84375 C9.453125,13.53125 8.359375,14.453125 8.359375,14.453125 L7.34375,13.171875 L2.828125,13.171875 L3.03125,12.453125 L5.15625,12.453125 L5.15625,9.234375 L1.109375,9.234375 L1.296875,8.546875 L5.15625,8.546875 L5.15625,1.078125 C3.34375,0.671875 1.828125,0.359375 0.9375,0.1875 Z" transform="translate(0.0546875, 20.0625) scale(1, -1)"/>
</svg>