<svg height="22.359375" viewBox="0 0 24 22.359375" width="24" xmlns="http://www.w3.org/2000/svg">
<path d="M8.140625,7.5625 C7.890625,5.953125 7.5625,4.078125 7.265625,2.828125 L7.65625,2.65625 C8.359375,3.703125 9,5.1875 9.5,6.4375 C9.984375,6.4375 10.25,6.640625 10.34375,6.9375 Z M2.1875,7.390625 L1.828125,7.296875 C2.25,5.96875 2.6875,4.03125 2.515625,2.515625 C3.71875,1.15625 5.296875,4.109375 2.1875,7.390625 Z M10.65625,7.375 L10.9375,6.703125 L15.171875,7.296875 C15.578125,5.734375 16.109375,4.296875 16.78125,3.046875 C14.65625,1.296875 12.21875,0.125 9.4375,-0.8125 L9.59375,-1.265625 C12.59375,-0.578125 15.171875,0.40625 17.453125,1.921875 C18.1875,0.8125 19.078125,-0.09375 20.140625,-0.84375 C21.21875,-1.6875 22.65625,-2.296875 23.1875,-1.53125 C23.40625,-1.25 23.328125,-0.890625 22.609375,-0.03125 L23.015625,3.59375 L22.703125,3.640625 C22.421875,2.6875 21.953125,1.484375 21.671875,0.9375 C21.453125,0.453125 21.328125,0.4375 20.921875,0.765625 C20.09375,1.3125 19.390625,2.046875 18.796875,2.875 C19.828125,3.71875 20.78125,4.6875 21.703125,5.8125 C22.265625,5.71875 22.515625,5.765625 22.6875,6 L20.46875,7.203125 C19.703125,6.046875 18.890625,5.046875 18,4.15625 C17.46875,5.15625 17.0625,6.28125 16.75,7.53125 L22.515625,8.359375 C22.828125,8.40625 23.0625,8.5625 23.09375,8.828125 C22.25,9.390625 20.875,10.171875 20.875,10.171875 L19.984375,8.71875 L16.5625,8.203125 C16.375,9.140625 16.203125,10.125 16.0625,11.140625 L21.796875,11.90625 C22.109375,11.921875 22.3125,12.09375 22.375,12.359375 C21.53125,12.9375 20.1875,13.734375 20.1875,13.734375 L19.296875,12.265625 L15.984375,11.8125 C15.890625,12.671875 15.8125,13.53125 15.765625,14.421875 L21.640625,15.140625 C21.953125,15.171875 22.171875,15.34375 22.203125,15.59375 C21.53125,16.078125 20.46875,16.703125 20.15625,16.890625 C21.125,17.1875 21.03125,19.296875 17.15625,19.609375 L16.9375,19.375 C17.859375,18.84375 18.984375,17.828125 19.421875,16.984375 C19.609375,16.890625 19.796875,16.84375 19.96875,16.875 L19.15625,15.546875 L15.75,15.140625 C15.703125,16.390625 15.703125,17.6875 15.703125,18.984375 C16.3125,19.078125 16.53125,19.34375 16.5625,19.65625 L13.984375,19.9375 C13.984375,18.21875 14.046875,16.53125 14.140625,14.953125 L10.46875,14.5 L10.75,13.828125 L14.15625,14.234375 C14.234375,13.34375 14.296875,12.453125 14.40625,11.609375 L10.703125,11.109375 L10.984375,10.46875 L14.5,10.921875 C14.640625,9.90625 14.8125,8.921875 15,7.984375 Z M6.4375,18.84375 C7.015625,18.84375 7.25,19.03125 7.3125,19.265625 L5.015625,20.0625 C4.265625,17.546875 2.296875,13.65625 0.3125,11.515625 L0.640625,11.28125 C2.96875,13.109375 4.984375,16.0625 6.1875,18.4375 C7.625,17.15625 8.734375,15.671875 9.21875,14.609375 C10.578125,13.65625 12.34375,16.484375 6.4375,18.84375 Z M0.90625,0.1875 L2.046875,-1.828125 C2.28125,-1.734375 2.5,-1.53125 2.5625,-1.21875 C6.28125,0.09375 9.03125,1.203125 10.921875,2.015625 L10.84375,2.359375 L6.453125,1.34375 L6.453125,8.6875 L10.0625,8.6875 C10.390625,8.6875 10.578125,8.8125 10.625,9.046875 C9.953125,9.765625 8.78125,10.734375 8.78125,10.734375 L7.78125,9.390625 L6.453125,9.390625 L6.453125,12.4375 L9.265625,12.4375 C9.59375,12.4375 9.8125,12.546875 9.890625,12.8125 C9.1875,13.515625 8.0625,14.421875 8.0625,14.421875 L7.078125,13.15625 L2.765625,13.15625 L2.953125,12.4375 L5.015625,12.4375 L5.015625,9.390625 L1.15625,9.390625 L1.34375,8.6875 L5.015625,8.6875 L5.015625,1.015625 C3.265625,0.625 1.796875,0.34375 0.90625,0.1875 Z" transform="translate(0.140625, 20.0625) scale(1, -1)"/>
</svg>