<svg height="22.09375" viewBox="0 0 24 22.09375" width="24" xmlns="http://www.w3.org/2000/svg">
<path d="M7.796875,7.5625 C7.609375,5.953125 7.265625,4.109375 6.953125,2.828125 L7.390625,2.6875 C8.046875,3.71875 8.6875,5.1875 9.171875,6.4375 C9.640625,6.453125 9.90625,6.671875 10.015625,6.9375 Z M2.109375,7.390625 L1.75,7.296875 C2.1875,5.96875 2.59375,4.03125 2.453125,2.515625 C3.59375,1.15625 5.15625,4.109375 2.109375,7.390625 Z M10.828125,14.28125 L10.828125,5.609375 L11.0625,5.609375 C11.6875,5.609375 12.28125,5.953125 12.28125,6.09375 L12.28125,6.9375 L14.765625,6.9375 C13.390625,4.015625 11.09375,1.34375 8.09375,-0.546875 L8.375,-0.90625 C11.421875,0.59375 13.875,2.65625 15.53125,5.203125 L15.53125,-1.9375 L15.84375,-1.9375 C16.390625,-1.9375 17.015625,-1.5625 17.015625,-1.3125 L17.015625,6.53125 C18.171875,3.5 20.046875,1.03125 21.984375,-0.5 C22.21875,0.265625 22.734375,0.71875 23.359375,0.8125 L23.40625,1.0625 C21.234375,2.1875 18.765625,4.390625 17.375,6.9375 L20.28125,6.9375 L20.28125,5.921875 L20.5,5.921875 C20.96875,5.921875 21.71875,6.28125 21.75,6.4375 L21.75,13.265625 C22.25,13.375 22.65625,13.5625 22.828125,13.75 L20.90625,15.234375 L20.046875,14.28125 L17.015625,14.28125 L17.015625,16.4375 L22.4375,16.4375 C22.78125,16.4375 23.015625,16.5625 23.09375,16.796875 C22.3125,17.515625 21.09375,18.53125 21.09375,18.53125 L20.015625,17.109375 L17.015625,17.109375 L17.015625,19.21875 C17.640625,19.3125 17.828125,19.53125 17.90625,19.890625 L15.53125,20.15625 L15.53125,17.109375 L10.125,17.109375 L10.3125,16.4375 L15.53125,16.4375 L15.53125,14.28125 L12.40625,14.28125 L10.828125,15 Z M15.53125,10.3125 L15.53125,7.625 L12.28125,7.625 L12.28125,10.3125 Z M15.53125,11.015625 L12.28125,11.015625 L12.28125,13.578125 L15.53125,13.578125 Z M17.015625,10.3125 L20.28125,10.3125 L20.28125,7.625 L17.015625,7.625 Z M17.015625,11.015625 L17.015625,13.578125 L20.28125,13.578125 L20.28125,11.015625 Z M6.21875,18.84375 C6.765625,18.890625 6.984375,19.03125 7.0625,19.296875 L4.75,20.0625 C4.0625,17.59375 2.25,13.796875 0.4375,11.71875 L0.765625,11.46875 C2.953125,13.25 4.84375,16.125 5.953125,18.453125 C7.34375,17.1875 8.375,15.75 8.828125,14.6875 C10.171875,13.6875 11.921875,16.515625 6.21875,18.84375 Z M0.859375,0.1875 L2.09375,-1.78125 C2.28125,-1.6875 2.5,-1.46875 2.5625,-1.171875 C6.078125,0.234375 8.640625,1.421875 10.46875,2.28125 L10.34375,2.640625 L6.234375,1.515625 L6.234375,8.6875 L9.703125,8.6875 C10.03125,8.6875 10.25,8.8125 10.296875,9.046875 C9.625,9.765625 8.5,10.703125 8.5,10.703125 L7.484375,9.390625 L6.234375,9.390625 L6.234375,12.4375 L8.875,12.4375 C9.1875,12.4375 9.40625,12.546875 9.484375,12.8125 C8.8125,13.484375 7.6875,14.40625 7.6875,14.40625 L6.71875,13.15625 L2.65625,13.15625 L2.859375,12.4375 L4.828125,12.4375 L4.828125,9.390625 L1.125,9.390625 L1.3125,8.6875 L4.828125,8.6875 L4.828125,1.15625 C3.125,0.703125 1.703125,0.359375 0.859375,0.1875 Z" transform="translate(0.078125, 20.15625) scale(1, -1)"/>
</svg>