<svg height="21.9375" viewBox="0 0 24 21.9375" width="24" xmlns="http://www.w3.org/2000/svg">
<path d="M10.984375,9.640625 L10.703125,9.484375 C11.515625,8.59375 12.5,7.109375 12.75,5.953125 C14.15625,4.84375 15.484375,7.78125 10.984375,9.640625 Z M7.828125,7.5625 C7.625,5.953125 7.296875,4.078125 6.984375,2.8125 L7.390625,2.65625 C8.0625,3.703125 8.734375,5.1875 9.21875,6.4375 C9.703125,6.4375 9.953125,6.640625 10.0625,6.9375 Z M2.109375,7.390625 L1.75,7.296875 C2.1875,5.96875 2.59375,4.03125 2.453125,2.515625 C3.59375,1.15625 5.15625,4.109375 2.109375,7.390625 Z M21.078125,9.859375 C20.546875,8.921875 19.421875,7.265625 18.453125,6.078125 C17.828125,7.25 17.359375,8.6875 17.046875,10.421875 L17.046875,10.9375 L22.53125,10.9375 C22.875,10.9375 23.09375,11.0625 23.140625,11.328125 C22.53125,12.03125 21.453125,12.953125 21.453125,12.953125 L20.515625,11.65625 L20.296875,11.65625 L20.296875,17.6875 C20.71875,17.78125 21.078125,17.953125 21.21875,18.125 L19.4375,19.515625 L18.578125,18.59375 L11.328125,18.59375 L11.546875,17.90625 L18.796875,17.90625 L18.796875,15.1875 L11.921875,15.1875 L12.125,14.5 L18.796875,14.5 L18.796875,11.65625 L10.015625,11.65625 L10.203125,10.9375 L15.484375,10.9375 L15.484375,5.59375 C12.8125,3.765625 10.15625,2.015625 9.03125,1.390625 L10.53125,-0.140625 C10.703125,0 10.828125,0.28125 10.796875,0.546875 C12.796875,2.40625 14.375,3.953125 15.484375,5.0625 L15.484375,0.484375 C15.484375,0.171875 15.390625,0.046875 15.03125,0.046875 C14.609375,0.046875 12.796875,0.171875 12.796875,0.171875 L12.796875,-0.1875 C13.65625,-0.28125 14.140625,-0.453125 14.421875,-0.75 C14.6875,-0.984375 14.78125,-1.421875 14.8125,-1.875 C16.78125,-1.6875 17.046875,-0.796875 17.046875,0.4375 L17.046875,8.546875 C17.90625,4.03125 19.53125,1.625 21.9375,-0.3125 C22.125,0.40625 22.609375,0.90625 23.1875,1.03125 L23.234375,1.265625 C21.53125,2.203125 19.890625,3.53125 18.671875,5.640625 C19.96875,6.546875 21.359375,7.734375 22.109375,8.5 C22.578125,8.328125 22.9375,8.515625 23.046875,8.71875 Z M6.21875,18.84375 C6.765625,18.890625 6.984375,19.03125 7.0625,19.296875 L4.75,20.0625 C4.0625,17.59375 2.25,13.796875 0.4375,11.71875 L0.765625,11.46875 C2.953125,13.25 4.84375,16.125 5.953125,18.453125 C7.34375,17.1875 8.375,15.75 8.828125,14.6875 C10.171875,13.6875 11.921875,16.515625 6.21875,18.84375 Z M0.859375,0.1875 L2.15625,-1.703125 C2.375,-1.609375 2.546875,-1.375 2.609375,-1.078125 C6,0.484375 8.5,1.75 10.21875,2.65625 L10.109375,3 L6.234375,1.78125 L6.234375,8.6875 L9.703125,8.6875 C10.03125,8.6875 10.25,8.8125 10.296875,9.046875 C9.625,9.765625 8.5,10.703125 8.5,10.703125 L7.484375,9.390625 L6.234375,9.390625 L6.234375,12.4375 L8.875,12.4375 C9.1875,12.4375 9.40625,12.546875 9.484375,12.8125 C8.8125,13.484375 7.6875,14.40625 7.6875,14.40625 L6.71875,13.15625 L2.65625,13.15625 L2.859375,12.4375 L4.828125,12.4375 L4.828125,9.390625 L1.125,9.390625 L1.3125,8.6875 L4.828125,8.6875 L4.828125,1.3125 C3.125,0.796875 1.703125,0.390625 0.859375,0.1875 Z" transform="translate(0.1640625, 20.0625) scale(1, -1)"/>
</svg>