<svg height="22.125" viewBox="0 0 24 22.125" width="24" xmlns="http://www.w3.org/2000/svg">
<path d="M13.0625,12.578125 L12.703125,12.484375 C13.125,11.546875 13.625,10.0625 13.6875,8.921875 C14.65625,7.9375 15.84375,10.15625 13.0625,12.578125 Z M7.796875,7.5625 C7.609375,5.953125 7.265625,4.109375 6.953125,2.828125 L7.390625,2.6875 C8.046875,3.71875 8.6875,5.1875 9.171875,6.4375 C9.640625,6.453125 9.90625,6.671875 10.015625,6.9375 Z M2.109375,7.390625 L1.75,7.296875 C2.1875,5.96875 2.59375,4.03125 2.453125,2.515625 C3.59375,1.15625 5.15625,4.109375 2.109375,7.390625 Z M10.84375,14.1875 L10.84375,5.71875 L11.0625,5.71875 C11.65625,5.71875 12.265625,6.046875 12.265625,6.1875 L12.265625,7.078125 L14.734375,7.078125 C13.3125,4.296875 11.0625,1.703125 8.25,-0.171875 L8.515625,-0.546875 C11.453125,0.953125 13.875,3.03125 15.546875,5.46875 L15.546875,-1.9375 L15.859375,-1.9375 C16.421875,-1.9375 17.015625,-1.5625 17.015625,-1.3125 L17.015625,7.078125 L17.0625,7.078125 C18.171875,3.859375 20.09375,1.296875 22.109375,-0.34375 C22.3125,0.453125 22.828125,0.90625 23.453125,1.015625 L23.5,1.25 C21.390625,2.359375 18.9375,4.5625 17.5625,7.078125 L20.375,7.078125 L20.375,6.046875 L20.59375,6.046875 C21.078125,6.046875 21.796875,6.390625 21.8125,6.53125 L21.8125,13.171875 C22.3125,13.265625 22.734375,13.484375 22.890625,13.65625 L20.96875,15.125 L20.140625,14.1875 L17.015625,14.1875 L17.015625,16.4375 L22.578125,16.4375 C22.921875,16.4375 23.140625,16.5625 23.1875,16.796875 C22.4375,17.546875 21.21875,18.5 21.21875,18.5 L20.109375,17.140625 L17.015625,17.140625 L17.015625,19.25 C17.640625,19.34375 17.828125,19.578125 17.90625,19.921875 L15.546875,20.1875 L15.546875,17.140625 L10.078125,17.140625 L10.265625,16.4375 L15.546875,16.4375 L15.546875,14.1875 L12.390625,14.1875 L10.84375,14.90625 Z M15.546875,7.75 L12.265625,7.75 L12.265625,13.484375 L15.546875,13.484375 Z M18.8125,12.75 C18.546875,11.78125 17.953125,9.84375 17.453125,8.65625 L17.734375,8.5 C18.546875,9.5 19.375,10.75 19.828125,11.546875 C20.0625,11.5 20.25,11.5625 20.375,11.65625 L20.375,7.75 L17.015625,7.75 L17.015625,13.484375 L20.375,13.484375 L20.375,12 Z M6.21875,18.84375 C6.765625,18.890625 6.984375,19.03125 7.0625,19.296875 L4.75,20.0625 C4.0625,17.59375 2.25,13.796875 0.4375,11.71875 L0.765625,11.46875 C2.953125,13.25 4.84375,16.125 5.953125,18.453125 C7.34375,17.1875 8.375,15.75 8.828125,14.6875 C10.171875,13.6875 11.921875,16.515625 6.21875,18.84375 Z M0.859375,0.1875 L2.09375,-1.78125 C2.28125,-1.6875 2.5,-1.46875 2.5625,-1.171875 C6.078125,0.234375 8.640625,1.421875 10.46875,2.28125 L10.34375,2.640625 L6.234375,1.515625 L6.234375,8.6875 L9.703125,8.6875 C10.03125,8.6875 10.25,8.8125 10.296875,9.046875 C9.625,9.765625 8.5,10.703125 8.5,10.703125 L7.484375,9.390625 L6.234375,9.390625 L6.234375,12.4375 L8.875,12.4375 C9.1875,12.4375 9.40625,12.546875 9.484375,12.8125 C8.8125,13.484375 7.6875,14.40625 7.6875,14.40625 L6.71875,13.15625 L2.65625,13.15625 L2.859375,12.4375 L4.828125,12.4375 L4.828125,9.390625 L1.125,9.390625 L1.3125,8.6875 L4.828125,8.6875 L4.828125,1.15625 C3.125,0.703125 1.703125,0.359375 0.859375,0.1875 Z" transform="translate(0.03125, 20.1875) scale(1, -1)"/>
</svg>