<svg height="22.0625" viewBox="0 0 24 22.0625" width="24" xmlns="http://www.w3.org/2000/svg">
<path d="M1.703125,8.25 L1.375,8.140625 C1.84375,6.859375 2.359375,4.921875 2.25,3.453125 C3.453125,2.15625 4.9375,5.046875 1.703125,8.25 Z M12.234375,14.5625 L12.4375,13.875 L16.15625,13.875 L16.15625,11.25 L14.0625,11.25 L12.4375,12.703125 L11.5625,11.8125 L10.296875,11.8125 C11.15625,13.78125 12.140625,16.078125 12.640625,17.453125 C13.125,17.5 13.515625,17.5625 13.734375,17.734375 L13.921875,17.09375 L16.15625,17.09375 L16.15625,14.5625 Z M17.59375,17.09375 L19.703125,17.09375 L19.703125,14.5625 L17.59375,14.5625 Z M7.015625,8.5 C6.84375,6.765625 6.546875,4.796875 6.265625,3.453125 L6.671875,3.28125 C7.34375,4.390625 7.921875,6 8.375,7.375 L9.3125,6.453125 C9.40625,6.546875 9.4375,6.703125 9.34375,6.84375 L9.890625,8.09375 C10.109375,6.765625 10.390625,5.609375 10.703125,4.625 C9.9375,2.203125 8.640625,0.09375 6.40625,-1.5625 L6.640625,-1.921875 C8.921875,-0.625 10.375,1.078125 11.328125,2.96875 C12.90625,-0.390625 15.359375,-1.3125 19.03125,-1.3125 C19.890625,-1.3125 21.71875,-1.3125 22.515625,-1.3125 C22.5625,-0.671875 22.84375,-0.171875 23.375,-0.09375 L23.375,0.265625 C22.296875,0.234375 20.15625,0.234375 19.171875,0.234375 C15.671875,0.234375 13.34375,0.984375 11.765625,3.9375 C12.640625,6.09375 12.984375,8.46875 13.21875,10.890625 C13.578125,10.921875 13.78125,10.984375 13.921875,11.109375 L14.09375,10.53125 L16.15625,10.53125 L16.15625,7.9375 L13.21875,7.9375 L13.421875,7.265625 L16.15625,7.265625 L16.15625,4.84375 L12.671875,4.84375 L12.859375,4.15625 L16.15625,4.15625 L16.15625,0.859375 L16.4375,0.859375 C16.96875,0.859375 17.59375,1.21875 17.59375,1.421875 L17.59375,4.15625 L21.671875,4.15625 C22.015625,4.15625 22.25,4.25 22.296875,4.515625 C21.640625,5.203125 20.546875,6.140625 20.546875,6.140625 L19.609375,4.84375 L17.59375,4.84375 L17.59375,7.265625 L21.140625,7.265625 C21.453125,7.265625 21.640625,7.375 21.71875,7.625 C21.125,8.296875 20.046875,9.1875 20.046875,9.1875 L19.15625,7.9375 L17.59375,7.9375 L17.59375,10.53125 L19.703125,10.53125 L19.703125,9.890625 L19.921875,9.890625 C20.375,9.890625 21.09375,10.25 21.125,10.390625 L21.125,13.875 L22.78125,13.875 C23.09375,13.875 23.28125,13.984375 23.328125,14.25 C22.890625,14.859375 22.03125,15.71875 22.03125,15.71875 L21.328125,14.5625 L21.125,14.5625 L21.125,16.9375 C21.484375,16.984375 21.796875,17.15625 21.90625,17.328125 L20.25,18.59375 L19.515625,17.8125 L17.59375,17.8125 L17.59375,19.25 C18.1875,19.34375 18.390625,19.578125 18.4375,19.890625 L16.15625,20.140625 L16.15625,17.8125 L13.78125,17.8125 L12.078125,19.265625 L11.28125,18.40625 L8.546875,18.40625 L8.765625,17.71875 L11.25,17.71875 C10.53125,15.765625 9.40625,12.90625 8.40625,10.734375 C9,10.515625 9.40625,10.515625 9.765625,10.609375 L9.984375,11.09375 L11.765625,11.09375 C11.640625,9.21875 11.421875,7.390625 11.015625,5.6875 C10.703125,6.578125 10.421875,7.609375 10.171875,8.78125 L10.203125,8.859375 L10.875,9.90625 L9.9375,10.109375 L9.796875,8.953125 L8.78125,7.984375 Z M17.59375,11.25 L17.59375,13.875 L19.703125,13.875 L19.703125,11.25 Z M1.015625,0.8125 L1.796875,-1.15625 C2.046875,-1.078125 2.234375,-0.84375 2.328125,-0.578125 C5.359375,0.71875 7.65625,1.828125 9.3125,2.609375 L9.21875,2.953125 L5.71875,1.984375 L5.71875,9.390625 L8.453125,9.390625 C8.78125,9.390625 9,9.5 9.046875,9.765625 C8.375,10.46875 7.21875,11.40625 7.21875,11.40625 L6.234375,10.078125 L5.71875,10.078125 L5.71875,13.65625 L7.984375,13.65625 C8.328125,13.65625 8.546875,13.78125 8.609375,14.046875 C7.890625,14.71875 6.796875,15.578125 6.796875,15.578125 L5.828125,14.375 L2.765625,14.375 C3.953125,15.84375 4.96875,17.515625 5.640625,18.984375 C6.546875,17.859375 7.265625,16.578125 7.65625,15.75 C8.828125,14.6875 10.890625,16.984375 5.78125,19.3125 C6.390625,19.375 6.625,19.53125 6.671875,19.796875 L4.109375,20.109375 C3.578125,17.875 2.15625,14.65625 0.640625,12.75 L0.9375,12.5 C1.4375,12.9375 1.9375,13.421875 2.40625,13.9375 L2.46875,13.65625 L4.25,13.65625 L4.25,10.078125 L1.109375,10.078125 L1.296875,9.390625 L4.25,9.390625 L4.25,1.578125 C2.859375,1.21875 1.703125,0.9375 1.015625,0.8125 Z" transform="translate(-0.0078125, 20.140625) scale(1, -1)"/>
</svg>