<svg height="22.078125" viewBox="0 0 24 22.078125" width="24" xmlns="http://www.w3.org/2000/svg">
<path d="M7.484375,7.5625 C7.296875,5.953125 6.984375,4.109375 6.640625,2.828125 L7.078125,2.6875 C7.734375,3.703125 8.359375,5.1875 8.859375,6.4375 C9.3125,6.453125 9.578125,6.671875 9.671875,6.9375 Z M1.96875,7.390625 L1.609375,7.296875 C2.046875,5.96875 2.453125,4.03125 2.296875,2.515625 C3.4375,1.171875 4.9375,4.109375 1.96875,7.390625 Z M17.59375,20.234375 C17.28125,19.171875 16.734375,17.734375 16.265625,16.734375 L13.421875,16.734375 C14.15625,17.203125 14.0625,19.0625 11.0625,20.0625 L10.78125,19.921875 C11.5,19.15625 12.265625,17.875 12.40625,16.828125 L12.578125,16.734375 L9.3125,16.734375 L9.5,16.015625 L12.546875,16.015625 L12.546875,13.921875 L9.59375,13.921875 L9.8125,13.21875 L12.546875,13.21875 L12.546875,10.75 L9.09375,10.75 L9.28125,10.0625 L12.546875,10.0625 L12.546875,7.5625 L9.71875,7.5625 L9.9375,6.859375 L12.234375,6.859375 C11.203125,3.9375 9.390625,1.265625 6.859375,-0.71875 L7.171875,-1.0625 C9.453125,0.3125 11.25,2.0625 12.546875,4.125 L12.546875,-1.84375 L12.765625,-1.84375 C13.515625,-1.84375 13.96875,-1.484375 13.96875,-1.375 L13.96875,6.859375 L15.984375,6.859375 L15.984375,-1.84375 L16.203125,-1.84375 C16.921875,-1.84375 17.40625,-1.484375 17.40625,-1.375 L17.40625,6.171875 C18.3125,3.046875 19.875,0.59375 21.859375,-0.90625 C22.078125,-0.171875 22.5625,0.3125 23.1875,0.40625 L23.234375,0.671875 C20.96875,1.75 18.765625,4.078125 17.6875,6.859375 L19.46875,6.859375 L19.46875,5.96875 L19.6875,5.96875 C20.109375,5.96875 20.828125,6.34375 20.859375,6.484375 L20.859375,10.0625 L22.890625,10.0625 C23.1875,10.0625 23.40625,10.171875 23.46875,10.4375 C22.984375,11.09375 22.0625,12.03125 22.0625,12.03125 L21.265625,10.75 L20.859375,10.75 L20.859375,12.953125 C21.3125,13.0625 21.671875,13.25 21.84375,13.4375 L20.046875,14.828125 L19.21875,13.921875 L17.40625,13.921875 L17.40625,16.015625 L22.46875,16.015625 C22.78125,16.015625 23.015625,16.125 23.0625,16.390625 C22.3125,17.109375 21.09375,18.078125 21.09375,18.078125 L19.984375,16.734375 L16.875,16.734375 C17.6875,17.46875 18.53125,18.390625 19.078125,19.109375 C19.609375,19.109375 19.890625,19.296875 20.015625,19.5625 Z M13.96875,16.015625 L15.984375,16.015625 L15.984375,13.921875 L13.96875,13.921875 Z M19.46875,10.0625 L19.46875,7.5625 L17.40625,7.5625 L17.40625,10.0625 Z M19.46875,10.75 L17.40625,10.75 L17.40625,13.21875 L19.46875,13.21875 Z M13.96875,10.0625 L15.984375,10.0625 L15.984375,7.5625 L13.96875,7.5625 Z M13.96875,10.75 L13.96875,13.21875 L15.984375,13.21875 L15.984375,10.75 Z M5.953125,18.84375 C6.546875,18.859375 6.796875,19.03125 6.890625,19.296875 L4.5625,20.046875 C3.90625,17.5625 2.1875,13.828125 0.40625,11.734375 L0.75,11.5 C2.859375,13.25 4.6875,16.078125 5.765625,18.40625 C6.9375,17.09375 7.78125,15.640625 8.15625,14.640625 C9.40625,13.5625 11.328125,16.21875 5.953125,18.84375 Z M0.765625,0.1875 L1.9375,-1.703125 C2.1875,-1.609375 2.375,-1.421875 2.421875,-1.125 C5.6875,0.359375 8.0625,1.5625 9.75,2.453125 L9.625,2.78125 L5.96875,1.65625 L5.96875,8.6875 L9.234375,8.6875 C9.546875,8.6875 9.796875,8.8125 9.84375,9.046875 C9.171875,9.75 8.0625,10.65625 8.0625,10.65625 L7.109375,9.390625 L5.96875,9.390625 L5.96875,12.4375 L8.5,12.4375 C8.828125,12.4375 9.03125,12.546875 9.078125,12.8125 C8.421875,13.484375 7.296875,14.40625 7.296875,14.40625 L6.34375,13.15625 L2.5,13.15625 L2.65625,12.4375 L4.578125,12.4375 L4.578125,9.390625 L1.03125,9.390625 L1.21875,8.6875 L4.578125,8.6875 L4.578125,1.25 C2.953125,0.765625 1.578125,0.390625 0.765625,0.1875 Z" transform="translate(0.0625, 20.234375) scale(1, -1)"/>
</svg>