<svg height="21.9375" viewBox="0 0 24 21.9375" width="24" xmlns="http://www.w3.org/2000/svg">
<path d="M7.578125,7.5625 C7.375,5.953125 7.078125,4.109375 6.75,2.828125 L7.171875,2.6875 C7.796875,3.703125 8.453125,5.1875 8.921875,6.4375 C9.40625,6.453125 9.671875,6.671875 9.765625,6.9375 Z M2.0625,7.390625 L1.703125,7.296875 C2.140625,5.96875 2.546875,4.03125 2.40625,2.515625 C3.53125,1.171875 5.046875,4.109375 2.0625,7.390625 Z M0.859375,0.1875 L2.046875,-1.703125 C2.28125,-1.609375 2.46875,-1.421875 2.515625,-1.125 C5.78125,0.359375 8.15625,1.5625 9.84375,2.453125 L9.703125,2.78125 L6.078125,1.65625 L6.078125,8.640625 L9.359375,8.640625 C9.671875,8.640625 9.90625,8.765625 9.953125,9 L9.765625,9.1875 L12.75,9.1875 L12.75,6.84375 L10.078125,6.84375 L10.296875,6.140625 L12.3125,6.140625 C11.296875,3.546875 9.640625,1.125 7.390625,-0.671875 L7.65625,-1.03125 C9.796875,0.265625 11.5,1.875 12.75,3.796875 L12.75,-1.828125 L13.03125,-1.828125 C13.53125,-1.828125 14.15625,-1.46875 14.15625,-1.25 L14.15625,6.140625 L16.265625,6.140625 L16.265625,-1.828125 L16.5625,-1.828125 C17.0625,-1.828125 17.6875,-1.46875 17.6875,-1.25 L17.6875,5.046875 C18.671875,2.453125 20.109375,0.4375 21.953125,-0.84375 C22.171875,-0.078125 22.65625,0.390625 23.25,0.484375 L23.296875,0.75 C21.140625,1.6875 19.03125,3.71875 17.875,6.140625 L19.734375,6.140625 L19.734375,5.09375 L19.9375,5.09375 C20.40625,5.09375 21.125,5.40625 21.140625,5.546875 L21.140625,9.1875 L22.84375,9.1875 C23.15625,9.1875 23.375,9.3125 23.453125,9.578125 C22.96875,10.21875 22.03125,11.15625 22.03125,11.15625 L21.234375,9.890625 L21.140625,9.890625 L21.140625,12.03125 C21.59375,12.125 21.9375,12.28125 22.109375,12.484375 L20.296875,13.828125 L19.515625,12.984375 L17.6875,12.984375 L17.6875,14.71875 L22.390625,14.71875 C22.734375,14.71875 22.96875,14.828125 23.046875,15.078125 C22.25,15.796875 21,16.796875 21,16.796875 L19.890625,15.40625 L17.6875,15.40625 L17.6875,16.625 C18.234375,16.703125 18.4375,16.921875 18.484375,17.25 L17.25,17.40625 C18.484375,17.765625 19.609375,18.234375 20.359375,18.640625 C20.875,18.53125 21.265625,18.53125 21.453125,18.765625 L19.5625,20.046875 C18.671875,19.15625 16.828125,17.953125 15.140625,17.296875 L15.3125,16.921875 L16.265625,17.140625 L16.265625,15.40625 L14.15625,15.40625 L14.15625,16.734375 C14.71875,16.828125 14.90625,17.046875 14.953125,17.375 L13.15625,17.5625 C14.09375,17.96875 14.921875,18.40625 15.53125,18.796875 C16.078125,18.703125 16.4375,18.75 16.609375,18.984375 L14.609375,20.109375 C13.6875,19.109375 11.71875,17.6875 9.9375,16.890625 L10.109375,16.53125 C10.96875,16.75 11.875,17.0625 12.75,17.40625 L12.75,15.40625 L9.859375,15.40625 C9.8125,16.265625 8.90625,17.609375 6,18.84375 C6.578125,18.859375 6.796875,19.03125 6.890625,19.296875 L4.5625,20.046875 C3.90625,17.5625 2.1875,13.828125 0.40625,11.734375 L0.75,11.5 C2.875,13.265625 4.703125,16.125 5.78125,18.4375 C7.078125,17.15625 8.09375,15.71875 8.515625,14.6875 C8.921875,14.375 9.40625,14.453125 9.625,14.78125 L9.640625,14.71875 L12.75,14.71875 L12.75,12.984375 L10.109375,12.984375 L10.296875,12.265625 L12.75,12.265625 L12.75,9.890625 L9.234375,9.890625 L9.3125,9.59375 L8.140625,10.625 L7.15625,9.3125 L6.078125,9.3125 L6.078125,12.4375 L8.59375,12.4375 C8.921875,12.4375 9.125,12.546875 9.171875,12.8125 C8.515625,13.484375 7.390625,14.40625 7.390625,14.40625 L6.4375,13.15625 L2.5625,13.15625 L2.765625,12.4375 L4.6875,12.4375 L4.6875,9.3125 L1.125,9.3125 L1.3125,8.640625 L4.6875,8.640625 L4.6875,1.25 C3.046875,0.765625 1.6875,0.390625 0.859375,0.1875 Z M14.15625,14.71875 L16.265625,14.71875 L16.265625,12.984375 L14.15625,12.984375 Z M19.734375,9.1875 L19.734375,6.84375 L17.6875,6.84375 L17.6875,9.1875 Z M19.734375,9.890625 L17.6875,9.890625 L17.6875,12.265625 L19.734375,12.265625 Z M14.15625,9.1875 L16.265625,9.1875 L16.265625,6.84375 L14.15625,6.84375 Z M14.15625,9.890625 L14.15625,12.265625 L16.265625,12.265625 L16.265625,9.890625 Z" transform="translate(0.0703125, 20.109375) scale(1, -1)"/>
</svg>