<svg height="21.796875" viewBox="0 0 24 21.796875" width="24" xmlns="http://www.w3.org/2000/svg">
<path d="M10.421875,19.703125 L10.203125,19.484375 C11.0625,18.796875 12.046875,17.546875 12.28125,16.515625 C13.828125,15.484375 15.03125,18.625 10.421875,19.703125 Z M10.078125,14.515625 L9.84375,14.328125 C10.65625,13.6875 11.609375,12.453125 11.78125,11.5 C13.34375,10.4375 14.546875,13.53125 10.078125,14.515625 Z M7.609375,7.53125 C7.421875,5.921875 7.109375,4.078125 6.765625,2.8125 L7.203125,2.65625 C7.84375,3.671875 8.46875,5.15625 8.96875,6.40625 C9.4375,6.4375 9.703125,6.640625 9.796875,6.90625 Z M2.0625,7.390625 L1.703125,7.296875 C2.140625,5.96875 2.546875,4.03125 2.40625,2.515625 C3.53125,1.171875 5.046875,4.109375 2.0625,7.390625 Z M17.15625,20.015625 L16.6875,16.6875 L16.203125,16.6875 L14.640625,17.421875 L14.640625,1.46875 L14.875,1.46875 C15.53125,1.46875 16.078125,1.828125 16.078125,2.015625 L16.078125,3 L20.40625,3 L20.40625,1.84375 L20.609375,1.84375 C21.125,1.84375 21.890625,2.1875 21.90625,2.359375 L21.90625,7.734375 C22.3125,7.796875 22.6875,7.984375 22.828125,8.15625 L21,9.546875 L20.1875,8.65625 L16.078125,8.65625 L16.078125,11.046875 L19.921875,11.046875 L19.921875,10.25 L20.140625,10.25 C20.640625,10.25 21.390625,10.5625 21.40625,10.734375 L21.40625,15.75 C21.8125,15.8125 22.171875,16.015625 22.3125,16.171875 L20.5,17.5625 L19.6875,16.6875 L17.28125,16.6875 C17.734375,17.375 18.359375,18.34375 18.71875,19.03125 C19.25,19.0625 19.53125,19.25 19.609375,19.609375 Z M16.078125,11.734375 L16.078125,15.984375 L19.921875,15.984375 L19.921875,11.734375 Z M16.078125,3.703125 L16.078125,7.9375 L20.40625,7.9375 L20.40625,3.703125 Z M12.984375,2.09375 L12.984375,7.609375 C13.390625,7.6875 13.734375,7.875 13.875,8.046875 L12.140625,9.359375 L11.359375,8.515625 L9.4375,8.515625 L9.640625,7.796875 L11.5625,7.796875 L11.5625,1.703125 C10.46875,1.078125 9.28125,0.453125 8.515625,0.125 L9.546875,-1.75 C9.765625,-1.625 9.859375,-1.484375 9.8125,-1.203125 C10.578125,-0.5 11.875,0.75 12.703125,1.6875 C13.65625,-0.71875 14.921875,-1.21875 17.546875,-1.21875 C19.15625,-1.21875 20.859375,-1.21875 22.3125,-1.21875 C22.375,-0.546875 22.6875,-0.078125 23.203125,0.03125 L23.203125,0.359375 C21.53125,0.3125 19.3125,0.3125 17.5625,0.3125 C15.1875,0.3125 14.046875,0.546875 12.984375,2.09375 Z M6,18.84375 C6.578125,18.859375 6.796875,19.03125 6.890625,19.296875 L4.5625,20.046875 C3.90625,17.5625 2.1875,13.828125 0.40625,11.734375 L0.75,11.5 C2.875,13.265625 4.703125,16.125 5.78125,18.4375 C7.078125,17.15625 8.09375,15.71875 8.515625,14.6875 C9.84375,13.703125 11.59375,16.46875 6,18.84375 Z M0.859375,0.1875 L2.0625,-1.734375 C2.296875,-1.65625 2.46875,-1.4375 2.5625,-1.125 C5.90625,0.3125 8.359375,1.484375 10.109375,2.359375 L10.015625,2.71875 L6.078125,1.578125 L6.078125,8.6875 L9.359375,8.6875 C9.671875,8.6875 9.90625,8.8125 9.953125,9.046875 C9.265625,9.765625 8.140625,10.703125 8.140625,10.703125 L7.15625,9.390625 L6.078125,9.390625 L6.078125,12.4375 L8.59375,12.4375 C8.921875,12.4375 9.125,12.546875 9.171875,12.8125 C8.515625,13.484375 7.390625,14.40625 7.390625,14.40625 L6.4375,13.15625 L2.5625,13.15625 L2.765625,12.4375 L4.6875,12.4375 L4.6875,9.390625 L1.125,9.390625 L1.3125,8.6875 L4.6875,8.6875 L4.6875,1.171875 C3.03125,0.71875 1.6875,0.359375 0.859375,0.1875 Z" transform="translate(0.1953125, 20.046875) scale(1, -1)"/>
</svg>