<svg height="22.65625" viewBox="0 0 24 22.65625" width="24" xmlns="http://www.w3.org/2000/svg">
<path d="M13.609375,3.125 C12.546875,1.5625 10.15625,-0.40625 7.6875,-1.484375 L7.875,-1.84375 C10.6875,-1.078125 13.375,0.40625 14.828125,1.78125 C15.4375,1.703125 15.765625,1.78125 15.90625,2.046875 Z M9.390625,4.109375 L9.578125,3.40625 L22.703125,3.40625 C23.015625,3.40625 23.25,3.53125 23.296875,3.796875 C22.53125,4.484375 21.3125,5.359375 21.3125,5.359375 L20.234375,4.109375 Z M16.984375,2.765625 L16.78125,2.515625 C18.4375,1.515625 20.734375,-0.3125 21.59375,-1.734375 C23.5625,-2.5625 24.046875,1.296875 16.984375,2.765625 Z M7.796875,7.5625 C7.609375,5.953125 7.265625,4.109375 6.953125,2.828125 L7.390625,2.6875 C8.046875,3.71875 8.6875,5.1875 9.171875,6.4375 C9.640625,6.453125 9.90625,6.671875 10.015625,6.9375 Z M2.109375,7.390625 L1.75,7.296875 C2.1875,5.96875 2.59375,4.03125 2.453125,2.515625 C3.59375,1.15625 5.15625,4.109375 2.109375,7.390625 Z M15.21875,20.09375 L15.21875,17.640625 L9.84375,17.640625 L10.03125,16.921875 L15.21875,16.921875 L15.21875,14.953125 L13.21875,14.953125 L11.46875,15.703125 L11.46875,4.875 L11.6875,4.875 C12.453125,4.875 12.953125,5.234375 12.953125,5.359375 L12.953125,6.046875 L19.4375,6.046875 L19.4375,5.234375 L19.65625,5.234375 C20.375,5.234375 20.953125,5.59375 20.953125,5.71875 L20.953125,14.140625 C21.453125,14.203125 21.703125,14.359375 21.84375,14.546875 L20.109375,15.859375 L19.34375,14.953125 L16.796875,14.953125 L16.796875,16.921875 L22.4375,16.921875 C22.78125,16.921875 22.984375,17.046875 23.0625,17.296875 C22.296875,18.046875 21.046875,19.015625 21.046875,19.015625 L19.9375,17.640625 L16.796875,17.640625 L16.796875,19.25 C17.328125,19.34375 17.515625,19.5625 17.5625,19.875 Z M12.953125,11.515625 L19.4375,11.515625 L19.4375,9.5 L12.953125,9.5 Z M12.953125,12.21875 L12.953125,14.234375 L19.4375,14.234375 L19.4375,12.21875 Z M12.953125,8.828125 L19.4375,8.828125 L19.4375,6.765625 L12.953125,6.765625 Z M6.21875,18.84375 C6.765625,18.890625 6.984375,19.03125 7.0625,19.296875 L4.75,20.0625 C4.0625,17.59375 2.25,13.796875 0.4375,11.71875 L0.765625,11.46875 C2.953125,13.25 4.84375,16.125 5.953125,18.453125 C7.34375,17.1875 8.375,15.75 8.828125,14.6875 C10.171875,13.6875 11.921875,16.515625 6.21875,18.84375 Z M0.859375,0.1875 L2.09375,-1.78125 C2.28125,-1.6875 2.5,-1.46875 2.5625,-1.171875 C6.078125,0.234375 8.640625,1.421875 10.46875,2.28125 L10.34375,2.640625 L6.234375,1.515625 L6.234375,8.6875 L9.703125,8.6875 C10.03125,8.6875 10.25,8.8125 10.296875,9.046875 C9.625,9.765625 8.5,10.703125 8.5,10.703125 L7.484375,9.390625 L6.234375,9.390625 L6.234375,12.4375 L8.875,12.4375 C9.1875,12.4375 9.40625,12.546875 9.484375,12.8125 C8.8125,13.484375 7.6875,14.40625 7.6875,14.40625 L6.71875,13.15625 L2.65625,13.15625 L2.859375,12.4375 L4.828125,12.4375 L4.828125,9.390625 L1.125,9.390625 L1.3125,8.6875 L4.828125,8.6875 L4.828125,1.15625 C3.125,0.703125 1.703125,0.359375 0.859375,0.1875 Z" transform="translate(-0.2421875, 20.09375) scale(1, -1)"/>
</svg>