<svg height="22.34375" viewBox="0 0 24 22.34375" width="24" xmlns="http://www.w3.org/2000/svg">
<path d="M1.6875,7.75 L1.3125,7.625 C1.828125,6.4375 2.28125,4.53125 2.203125,3.09375 C3.359375,1.828125 4.828125,4.65625 1.6875,7.75 Z M7.03125,7.890625 C6.859375,6.1875 6.53125,4.34375 6.140625,3.046875 L6.546875,2.875 C7.296875,3.90625 7.96875,5.453125 8.421875,6.84375 C8.921875,6.859375 9.140625,7.078125 9.21875,7.34375 Z M8.46875,1.109375 L9.484375,-0.671875 C9.703125,-0.59375 9.890625,-0.4375 9.984375,-0.140625 C12.984375,0.8125 15.171875,1.609375 16.734375,2.15625 L16.625,2.546875 L13.46875,1.9375 L13.46875,3.890625 L16.15625,3.890625 C16.484375,3.890625 16.703125,4.015625 16.75,4.265625 C16.109375,4.875 15.125,5.59375 15.125,5.59375 L14.234375,4.578125 L13.46875,4.578125 L13.46875,6.625 L16.25,6.625 C16.578125,6.625 16.796875,6.75 16.84375,7.015625 C16.171875,7.609375 15.125,8.421875 15.125,8.421875 L14.1875,7.3125 L9.21875,7.3125 L9.40625,6.625 L12,6.625 L12,4.578125 L9.390625,4.578125 L9.578125,3.890625 L12,3.890625 L12,1.6875 C10.484375,1.421875 9.234375,1.203125 8.46875,1.109375 Z M17.234375,20.109375 C17.234375,18.28125 17.234375,16.515625 17.28125,14.8125 L13.484375,14.8125 L13.484375,16.78125 L16.25,16.78125 C16.578125,16.78125 16.78125,16.890625 16.84375,17.15625 C16.203125,17.8125 15.125,18.625 15.125,18.625 L14.203125,17.46875 L13.484375,17.46875 L13.484375,19.078125 C13.984375,19.171875 14.203125,19.390625 14.25,19.703125 L12,19.9375 L12,17.46875 L9.3125,17.46875 L9.5,16.78125 L12,16.78125 L12,14.8125 L8.296875,14.8125 L8.5,14.09375 L17.296875,14.09375 C17.40625,10.265625 17.6875,6.859375 18.4375,4.109375 C17.203125,1.921875 15.546875,-0.03125 13.265625,-1.4375 L13.515625,-1.75 C15.796875,-0.625 17.515625,0.953125 18.84375,2.734375 C19.296875,1.484375 19.875,0.40625 20.59375,-0.5 C21.265625,-1.4375 22.53125,-2.234375 23.109375,-1.578125 C23.359375,-1.34375 23.28125,-0.9375 22.734375,0 L23.109375,3.703125 L22.796875,3.75 C22.5625,2.78125 22.203125,1.6875 21.953125,1.109375 C21.75,0.59375 21.671875,0.578125 21.40625,0.984375 C20.734375,1.84375 20.203125,2.953125 19.828125,4.25 C21.03125,6.265625 21.765625,8.46875 22.25,10.578125 C22.890625,10.578125 23.109375,10.75 23.203125,11.046875 L20.859375,11.609375 C20.5625,9.765625 20.109375,7.890625 19.390625,6.125 C18.9375,8.453125 18.796875,11.1875 18.765625,14.09375 L22.75,14.09375 C23.09375,14.09375 23.296875,14.203125 23.375,14.46875 C22.6875,15.125 21.625,16.015625 21.5,16.109375 C22.375,16.296875 22.609375,18.046875 19.75,19.078125 L19.484375,18.9375 C19.984375,18.265625 20.59375,17.1875 20.71875,16.3125 C20.921875,16.125 21.171875,16.0625 21.390625,16.078125 L20.375,14.8125 L18.75,14.8125 C18.75,16.21875 18.765625,17.6875 18.796875,19.15625 C19.390625,19.21875 19.609375,19.515625 19.65625,19.828125 Z M9.703125,12.75 L9.703125,8.140625 L9.90625,8.140625 C10.46875,8.140625 11.109375,8.453125 11.109375,8.5625 L11.109375,9.125 L14.546875,9.125 L14.546875,8.375 L14.765625,8.375 C15.21875,8.375 15.9375,8.6875 15.953125,8.828125 L15.953125,11.90625 C16.34375,11.921875 16.6875,12.125 16.796875,12.28125 L15.09375,13.5625 L14.328125,12.75 L11.203125,12.75 L9.703125,13.4375 Z M14.546875,9.84375 L11.109375,9.84375 L11.109375,12.046875 L14.546875,12.046875 Z M1.03125,0.546875 L1.84375,-1.46875 C2.0625,-1.390625 2.28125,-1.171875 2.375,-0.890625 C5.25,0.265625 7.4375,1.25 8.96875,1.96875 L8.875,2.328125 L5.6875,1.5625 L5.6875,9.140625 L8.640625,9.140625 C8.953125,9.140625 9.171875,9.265625 9.234375,9.53125 C8.546875,10.21875 7.421875,11.140625 7.421875,11.140625 L6.4375,9.859375 L5.6875,9.859375 L5.6875,13.015625 L8.328125,13.015625 C8.65625,13.015625 8.859375,13.125 8.921875,13.390625 C8.28125,14.0625 7.171875,14.96875 7.171875,14.96875 L6.21875,13.703125 L2.5625,13.703125 C3.84375,15.3125 4.921875,17.203125 5.609375,18.796875 C6.59375,17.640625 7.25,16.296875 7.46875,15.3125 C8.59375,14.109375 10.796875,16.65625 5.734375,19.109375 C6.34375,19.15625 6.546875,19.3125 6.625,19.578125 L4.109375,20.0625 C3.578125,17.6875 2.0625,14.140625 0.5,12.078125 L0.8125,11.828125 C1.375,12.3125 1.890625,12.859375 2.40625,13.484375 L2.515625,13.015625 L4.25,13.015625 L4.25,9.859375 L1.109375,9.859375 L1.296875,9.140625 L4.25,9.140625 L4.25,1.21875 C2.859375,0.90625 1.703125,0.671875 1.03125,0.546875 Z" transform="translate(0.0625, 20.109375) scale(1, -1)"/>
</svg>