<svg height="22.34375" viewBox="0 0 24 22.34375" width="24" xmlns="http://www.w3.org/2000/svg">
<path d="M14.90625,1.9375 C13.984375,0.84375 12,-0.640625 10.109375,-1.4375 L10.265625,-1.796875 C12.40625,-1.34375 14.640625,-0.34375 15.859375,0.578125 C16.4375,0.484375 16.796875,0.5 16.96875,0.765625 Z M17.859375,1.703125 L17.640625,1.4375 C19.015625,0.75 20.859375,-0.625 21.578125,-1.65625 C23.25,-2.25 23.5625,0.90625 17.859375,1.703125 Z M1.96875,7.703125 L1.625,7.578125 C2.140625,6.34375 2.65625,4.390625 2.5625,2.90625 C3.796875,1.625 5.25,4.53125 1.96875,7.703125 Z M7.484375,7.796875 C7.3125,6.171875 7.0625,4.296875 6.71875,3.078125 L7.125,2.875 C7.796875,3.9375 8.40625,5.453125 8.859375,6.765625 C9.34375,6.796875 9.578125,7.015625 9.671875,7.296875 Z M1.03125,0.3125 L1.96875,-1.65625 C2.203125,-1.578125 2.40625,-1.375 2.5,-1.078125 C5.328125,0.078125 7.53125,1.0625 9.21875,1.828125 C8.828125,0.625 8.296875,-0.5 7.5625,-1.5625 L7.9375,-1.828125 C11.140625,1.3125 11.609375,5.78125 11.6875,9.625 L16.171875,9.625 L16.171875,8.328125 L14.015625,8.328125 L12.53125,9 L12.53125,1.515625 L12.75,1.515625 C13.3125,1.515625 13.890625,1.796875 13.890625,1.9375 L13.890625,2.515625 L19.9375,2.515625 L19.9375,1.734375 L20.15625,1.734375 C20.640625,1.734375 21.390625,2.0625 21.40625,2.203125 L21.40625,7.46875 C21.75,7.515625 22.078125,7.6875 22.203125,7.84375 L20.515625,9.09375 L19.75,8.328125 L17.5625,8.328125 L17.5625,9.625 L22.625,9.625 C22.96875,9.625 23.15625,9.75 23.234375,10.015625 C22.53125,10.703125 21.359375,11.609375 21.359375,11.609375 L20.328125,10.34375 L11.6875,10.34375 L11.6875,10.703125 L11.6875,14.015625 L13.984375,14.015625 L13.984375,10.65625 L14.25,10.65625 C14.78125,10.65625 15.390625,10.96875 15.390625,11.140625 L15.390625,11.765625 L18.390625,11.765625 L18.390625,10.84375 L18.640625,10.84375 C19.171875,10.84375 19.78125,11.15625 19.78125,11.328125 L19.78125,14.015625 L22.53125,14.015625 C22.875,14.015625 23.09375,14.140625 23.140625,14.40625 C22.515625,15 21.5,15.796875 21.5,15.796875 L20.640625,14.71875 L19.78125,14.71875 L19.78125,15.75 C20.234375,15.84375 20.421875,16.03125 20.453125,16.296875 L18.390625,16.53125 L18.390625,14.71875 L15.390625,14.71875 L15.390625,15.71875 C15.8125,15.796875 16.015625,15.984375 16.0625,16.25 L13.984375,16.484375 L13.984375,14.71875 L11.6875,14.71875 L11.6875,16.875 L22.625,16.875 C22.9375,16.875 23.1875,16.984375 23.25,17.25 C22.53125,17.96875 21.328125,18.890625 21.328125,18.890625 L20.296875,17.5625 L17.5,17.5625 L17.5,19.171875 C18.03125,19.265625 18.265625,19.484375 18.28125,19.796875 L15.984375,20.015625 L15.984375,17.5625 L11.96875,17.5625 L10.25,18.359375 L10.25,10.6875 C10.25,7.84375 10.15625,4.984375 9.390625,2.375 L6.125,1.515625 L6.125,9.125 L9.1875,9.125 C9.53125,9.125 9.75,9.234375 9.8125,9.5 C9.125,10.203125 7.984375,11.140625 7.984375,11.140625 L6.984375,9.84375 L6.125,9.84375 L6.125,12.953125 L8.71875,12.953125 C9.03125,12.953125 9.265625,13.078125 9.3125,13.34375 C8.640625,13.984375 7.515625,14.90625 7.515625,14.90625 L6.546875,13.65625 L2.609375,13.65625 C4.0625,15.28125 5.25,17.25 6.03125,18.90625 C7.203125,17.65625 7.9375,16.171875 8.25,15.171875 C9.4375,13.984375 11.5625,16.703125 6.140625,19.203125 L6.171875,19.25 C6.796875,19.296875 7.03125,19.4375 7.078125,19.734375 L4.53125,20.09375 C3.90625,17.71875 2.375,14.328125 0.671875,12.265625 L0.953125,12.03125 C1.46875,12.4375 1.9375,12.890625 2.40625,13.390625 L2.5,12.953125 L4.6875,12.953125 L4.6875,9.84375 L1.171875,9.84375 L1.375,9.125 L4.6875,9.125 L4.6875,1.15625 C3.09375,0.765625 1.796875,0.453125 1.03125,0.3125 Z M16.171875,3.21875 L13.890625,3.21875 L13.890625,5.140625 L16.171875,5.140625 Z M17.5625,3.21875 L17.5625,5.140625 L19.9375,5.140625 L19.9375,3.21875 Z M16.171875,5.828125 L13.890625,5.828125 L13.890625,7.609375 L16.171875,7.609375 Z M17.5625,5.828125 L17.5625,7.609375 L19.9375,7.609375 L19.9375,5.828125 Z M15.390625,12.453125 L15.390625,14.015625 L18.390625,14.015625 L18.390625,12.453125 Z" transform="translate(-0.1171875, 20.09375) scale(1, -1)"/>
</svg>