<svg height="21.4375" viewBox="0 0 24 21.4375" width="24" xmlns="http://www.w3.org/2000/svg">
<path d="M8.859375,17.828125 L8.859375,15.09375 L3.90625,15.09375 L3.90625,17.828125 Z M2.375,18.53125 L2.375,-1.875 L2.640625,-1.875 C3.390625,-1.875 3.90625,-1.46875 3.90625,-1.21875 L3.90625,10.84375 L8.859375,10.84375 L8.859375,9.546875 L9.09375,9.546875 C9.59375,9.546875 10.375,9.90625 10.390625,10.0625 L10.390625,17.609375 C10.78125,17.6875 11.140625,17.875 11.28125,18.046875 L9.484375,19.4375 L8.640625,18.53125 L4.03125,18.53125 L2.375,19.34375 Z M3.90625,14.40625 L8.859375,14.40625 L8.859375,11.5625 L3.90625,11.5625 Z M20.015625,17.828125 L20.015625,15.09375 L14.859375,15.09375 L14.859375,17.828125 Z M13.34375,18.53125 L13.34375,9.671875 L13.578125,9.671875 C14.234375,9.671875 14.859375,10.03125 14.859375,10.171875 L14.859375,10.84375 L20.015625,10.84375 L20.015625,0.703125 C20.015625,0.28125 19.875,0.125 19.34375,0.125 C18.71875,0.125 15.59375,0.34375 15.59375,0.34375 L15.59375,-0.03125 C16.890625,-0.21875 17.65625,-0.40625 18.09375,-0.703125 C18.5,-0.9375 18.703125,-1.34375 18.765625,-1.875 C21.3125,-1.609375 21.59375,-0.75 21.59375,0.5 L21.59375,17.515625 C22.078125,17.609375 22.484375,17.828125 22.625,18.03125 L20.59375,19.5625 L19.78125,18.53125 L14.96875,18.53125 L13.34375,19.265625 Z M14.859375,14.40625 L20.015625,14.40625 L20.015625,11.5625 L14.859375,11.5625 Z" transform="translate(-0.5, 19.5625) scale(1, -1)"/>
</svg>