<svg height="21.453125" viewBox="0 0 24 21.453125" width="24" xmlns="http://www.w3.org/2000/svg">
<path d="M13.34375,18.578125 L13.34375,11.09375 L13.5625,11.09375 C14.1875,11.09375 14.859375,11.453125 14.859375,11.609375 L14.859375,12.046875 L20.046875,12.046875 L20.046875,0.578125 C20.046875,0.234375 19.921875,0.125 19.5625,0.125 L17.515625,0.234375 L17.859375,0.28125 L17.875,0.578125 C14.875,1.46875 13.46875,2.828125 12.765625,4.21875 L17.8125,4.21875 C18.140625,4.21875 18.359375,4.34375 18.4375,4.609375 C17.765625,5.25 16.6875,6.09375 16.6875,6.09375 L15.75,4.9375 L12.234375,4.9375 C12.359375,5.65625 12.40625,6.4375 12.453125,7.25 L17.25,7.25 C17.59375,7.25 17.828125,7.375 17.875,7.625 C17.234375,8.28125 16.203125,9.03125 16.203125,9.03125 L15.28125,7.96875 L13.53125,7.96875 C14.234375,8.59375 14.921875,9.34375 15.390625,9.953125 C15.90625,9.9375 16.203125,10.109375 16.3125,10.375 L14.203125,11.046875 C13.875,10.078125 13.296875,8.875 12.796875,7.96875 L9.9375,7.96875 C10.796875,8.140625 10.984375,10.015625 7.96875,11.015625 L7.6875,10.84375 C8.359375,10.203125 9.09375,9.078125 9.21875,8.1875 C9.359375,8.0625 9.5,7.984375 9.640625,7.96875 L6.046875,7.96875 L6.234375,7.25 L10.921875,7.25 C10.890625,6.4375 10.875,5.65625 10.75,4.9375 L5.65625,4.9375 L5.828125,4.21875 L10.609375,4.21875 C10.109375,2.296875 8.8125,0.765625 5.375,-0.484375 L5.6875,-0.84375 C9.9375,0.359375 11.46875,2.015625 12.078125,4.21875 L12.234375,4.21875 C12.71875,2.46875 13.84375,0.390625 16.65625,-0.71875 C16.78125,-0.171875 16.984375,0.078125 17.40625,0.1875 L17.40625,-0.140625 C18.21875,-0.265625 18.703125,-0.4375 18.984375,-0.703125 C19.21875,-0.9375 19.34375,-1.375 19.390625,-1.875 C21.390625,-1.65625 21.578125,-0.890625 21.578125,0.390625 L21.578125,17.5625 C22.078125,17.65625 22.46875,17.875 22.625,18.078125 L20.609375,19.578125 L19.796875,18.578125 L14.953125,18.578125 L13.34375,19.3125 Z M8.875,17.875 L8.875,15.71875 L3.90625,15.71875 L3.90625,17.875 Z M2.375,18.578125 L2.375,-1.875 L2.640625,-1.875 C3.390625,-1.875 3.90625,-1.46875 3.90625,-1.21875 L3.90625,12.046875 L8.875,12.046875 L8.875,11.015625 L9.09375,11.015625 C9.625,11.015625 10.375,11.375 10.390625,11.5625 L10.390625,17.65625 C10.78125,17.734375 11.140625,17.921875 11.28125,18.09375 L9.484375,19.46875 L8.65625,18.578125 L4.03125,18.578125 L2.375,19.390625 Z M3.90625,15.03125 L8.875,15.03125 L8.875,12.765625 L3.90625,12.765625 Z M20.046875,17.875 L20.046875,15.71875 L14.859375,15.71875 L14.859375,17.875 Z M14.859375,15.03125 L20.046875,15.03125 L20.046875,12.765625 L14.859375,12.765625 Z" transform="translate(-0.5, 19.578125) scale(1, -1)"/>
</svg>