<svg height="21.453125" viewBox="0 0 24 21.453125" width="24" xmlns="http://www.w3.org/2000/svg">
<path d="M14.765625,7.34375 L14.765625,5.015625 L8.90625,5.015625 L8.90625,7.34375 Z M13.34375,18.578125 L13.34375,11.46875 L13.5625,11.46875 L13.78125,11.5 L13.421875,10.921875 L10.3125,10.921875 L10.515625,10.21875 L13.890625,10.21875 C14.140625,9.59375 14.515625,9.03125 15,8.5 L14.5625,8.046875 L9.03125,8.046875 L8.515625,8.28125 C9.078125,8.734375 9.53125,9.234375 9.84375,9.75 C10.265625,9.671875 10.53125,9.71875 10.65625,9.9375 L8.546875,10.921875 C7.9375,9.453125 6.671875,7.78125 5.25,6.703125 L5.5,6.34375 C6.171875,6.640625 6.859375,7.03125 7.484375,7.46875 L7.484375,3.359375 L7.6875,3.359375 C8.25,3.359375 8.90625,3.671875 8.90625,3.796875 L8.90625,4.3125 L9.75,4.3125 C9.390625,1.984375 8.28125,0.640625 5.453125,-0.40625 L5.5625,-0.796875 C8.96875,0 10.75,1.375 11.328125,4.3125 L12.53125,4.3125 L12.53125,0.84375 C12.53125,-0.09375 12.75,-0.484375 14.046875,-0.484375 L15.3125,-0.484375 C17.046875,-0.484375 17.765625,-0.3125 17.96875,0.078125 L17.96875,-0.1875 C18.640625,-0.3125 19.03125,-0.453125 19.25,-0.703125 C19.46875,-0.9375 19.5625,-1.375 19.578125,-1.84375 C21.390625,-1.65625 21.59375,-0.9375 21.59375,0.34375 L21.59375,17.5625 C22.078125,17.65625 22.484375,17.875 22.65625,18.078125 L20.609375,19.578125 L19.828125,18.578125 L14.96875,18.578125 L13.34375,19.296875 Z M14.765625,4.3125 L14.765625,3.59375 L14.96875,3.59375 C15.453125,3.59375 16.171875,3.9375 16.171875,4.109375 L16.171875,7.203125 L16.46875,7.265625 C16.78125,7.0625 17.09375,6.859375 17.453125,6.703125 C17.5625,7.21875 18.078125,7.578125 18.578125,7.6875 L18.625,7.96875 C16.796875,8.453125 15.171875,9.234375 14.5,10.203125 C15.140625,10.21875 15.640625,10.375 15.859375,10.609375 L14.375,11.640625 C14.65625,11.765625 14.859375,11.90625 14.859375,12 L14.859375,12.640625 L20.0625,12.640625 L20.0625,0.5 C20.0625,0.1875 19.96875,0.09375 19.65625,0.09375 L18.046875,0.1875 L18.078125,0.40625 C18.078125,0.71875 17.96875,0.890625 17.546875,1.03125 L17.46875,2.953125 L17.15625,2.953125 C16.984375,2.140625 16.78125,1.296875 16.625,1.0625 C16.5625,0.9375 16.484375,0.90625 16.3125,0.890625 C16.203125,0.890625 15.8125,0.890625 15.390625,0.890625 L14.421875,0.890625 C13.984375,0.890625 13.9375,0.90625 13.9375,1.171875 L13.9375,4.3125 Z M8.859375,17.875 L8.859375,16.015625 L3.890625,16.015625 L3.890625,17.875 Z M2.375,18.578125 L2.375,-1.875 L2.640625,-1.875 C3.359375,-1.875 3.890625,-1.46875 3.890625,-1.25 L3.890625,12.625 L8.859375,12.625 L8.859375,11.421875 L9.09375,11.421875 C9.59375,11.421875 10.34375,11.78125 10.375,11.953125 L10.375,17.65625 C10.78125,17.734375 11.140625,17.921875 11.28125,18.09375 L9.484375,19.46875 L8.640625,18.578125 L4.015625,18.578125 L2.375,19.375 Z M3.890625,15.28125 L8.859375,15.28125 L8.859375,13.34375 L3.890625,13.34375 Z M20.0625,17.875 L20.0625,16.015625 L14.859375,16.015625 L14.859375,17.875 Z M14.859375,15.28125 L20.0625,15.28125 L20.0625,13.34375 L14.859375,13.34375 Z" transform="translate(-0.515625, 19.578125) scale(1, -1)"/>
</svg>