<svg height="21.46875" viewBox="0 0 24 21.46875" width="24" xmlns="http://www.w3.org/2000/svg">
<path d="M5.015625,10.6875 L5.203125,9.984375 L12.09375,9.984375 C12.4375,9.984375 12.671875,10.109375 12.75,10.375 C12.078125,10.984375 11.0625,11.8125 11.0625,11.8125 L10.171875,10.6875 Z M6.671875,4.15625 L6.34375,4.03125 C6.71875,3.390625 7.0625,2.328125 7.078125,1.515625 C8.015625,0.546875 9.34375,2.46875 6.671875,4.15625 Z M13.078125,6.796875 L12.765625,6.625 C13.34375,5.78125 13.921875,4.34375 13.921875,3.234375 C14.96875,2.1875 16.3125,4.609375 13.078125,6.796875 Z M10.296875,7.734375 L10.296875,5.5 L7.015625,5.5 L7.015625,7.734375 Z M5.71875,8.453125 L5.71875,4.171875 L5.90625,4.171875 C6.4375,4.171875 7.015625,4.46875 7.015625,4.609375 L7.015625,4.796875 L10.296875,4.796875 L10.296875,4.296875 L10.515625,4.296875 C10.9375,4.296875 11.609375,4.609375 11.640625,4.75 L11.640625,7.65625 C11.953125,7.703125 12.234375,7.875 12.34375,7.984375 L10.84375,9.125 L10.15625,8.453125 L7.125,8.453125 L5.71875,9.078125 Z M16.015625,11.640625 L16.015625,8.5 L12.28125,8.5 L12.484375,7.796875 L16.015625,7.796875 L16.015625,1.171875 C16.015625,0.859375 15.90625,0.75 15.578125,0.75 C15.1875,0.75 13.484375,0.890625 13.484375,0.890625 L13.484375,0.5 C14.28125,0.390625 14.71875,0.234375 14.96875,0 C15.21875,-0.21875 15.3125,-0.578125 15.359375,-0.953125 C17.140625,-0.765625 17.359375,-0.125 17.359375,1.078125 L17.359375,7.796875 L19.203125,7.796875 C19.515625,7.796875 19.734375,7.921875 19.78125,8.1875 C19.25,8.78125 18.34375,9.625 18.34375,9.625 L17.5625,8.5 L17.359375,8.5 L17.359375,10.78125 C17.90625,10.84375 18.140625,11.046875 18.21875,11.375 Z M4.734375,0.640625 L5.71875,-0.953125 C5.90625,-0.890625 6.09375,-0.765625 6.1875,-0.453125 C9.171875,0.34375 11.375,0.984375 12.890625,1.4375 L12.84375,1.84375 L9.71875,1.34375 C10.203125,1.984375 10.65625,2.6875 10.9375,3.171875 C11.40625,3.125 11.65625,3.390625 11.6875,3.578125 L9.859375,4.25 C9.75,3.53125 9.40625,2.1875 9.140625,1.25 C7.25,0.953125 5.640625,0.75 4.734375,0.640625 Z M8.921875,17.875 L8.921875,16.078125 L3.890625,16.078125 L3.890625,17.875 Z M2.375,18.578125 L2.375,-1.875 L2.640625,-1.875 C3.359375,-1.875 3.890625,-1.46875 3.890625,-1.25 L3.890625,12.75 L8.921875,12.75 L8.921875,11.90625 L9.140625,11.90625 C9.640625,11.90625 10.421875,12.265625 10.4375,12.40625 L10.4375,17.65625 C10.828125,17.734375 11.1875,17.921875 11.328125,18.09375 L9.53125,19.46875 L8.71875,18.578125 L4.015625,18.578125 L2.375,19.375 Z M3.890625,15.359375 L8.921875,15.359375 L8.921875,13.46875 L3.890625,13.46875 Z M20.0625,17.875 L20.0625,16.078125 L14.8125,16.078125 L14.8125,17.875 Z M13.296875,18.578125 L13.296875,12.03125 L13.515625,12.03125 C14.140625,12.03125 14.8125,12.359375 14.8125,12.5 L14.8125,12.75 L20.0625,12.75 L20.0625,0.546875 C20.0625,0.21875 19.9375,0.09375 19.578125,0.09375 C19.21875,0.09375 17.40625,0.21875 17.40625,0.21875 L17.40625,-0.171875 C18.21875,-0.28125 18.703125,-0.453125 18.984375,-0.703125 C19.25,-0.953125 19.34375,-1.390625 19.390625,-1.890625 C21.390625,-1.6875 21.59375,-0.90625 21.59375,0.359375 L21.59375,17.5625 C22.078125,17.65625 22.484375,17.875 22.65625,18.078125 L20.609375,19.578125 L19.828125,18.578125 L14.921875,18.578125 L13.296875,19.296875 Z M14.8125,15.359375 L20.0625,15.359375 L20.0625,13.46875 L14.8125,13.46875 Z" transform="translate(-0.515625, 19.578125) scale(1, -1)"/>
</svg>