<svg height="21.9375" viewBox="0 0 24 21.9375" width="24" xmlns="http://www.w3.org/2000/svg">
<path d="M16.734375,16.703125 L16.734375,13.828125 L6.4375,13.828125 L6.4375,16.703125 Z M10.84375,20.109375 C10.625,19.34375 10.3125,18.234375 10.03125,17.421875 L6.578125,17.421875 L4.875,18.21875 L4.875,5.0625 L5.140625,5.0625 C5.8125,5.0625 6.4375,5.453125 6.4375,5.609375 L6.4375,6.640625 L11.203125,6.640625 L11.203125,3.890625 L0.9375,3.890625 L1.15625,3.171875 L11.203125,3.171875 L11.203125,-1.828125 L11.453125,-1.828125 C12.234375,-1.828125 12.765625,-1.46875 12.796875,-1.375 L12.796875,3.171875 L22.4375,3.171875 C22.78125,3.171875 23.046875,3.28125 23.109375,3.546875 C22.203125,4.3125 20.78125,5.421875 20.78125,5.421875 L19.53125,3.890625 L12.796875,3.890625 L12.796875,6.640625 L18.28125,6.640625 L18.28125,5.59375 L18.546875,5.59375 C19.0625,5.59375 19.84375,5.953125 19.875,6.09375 L19.875,10.15625 C20.28125,10.21875 20.640625,10.390625 20.78125,10.5625 L18.90625,11.96875 L18.078125,11.0625 L6.4375,11.0625 L6.4375,13.125 L16.734375,13.125 L16.734375,12.234375 L16.984375,12.234375 C17.5,12.234375 18.28125,12.59375 18.3125,12.765625 L18.3125,16.484375 C18.71875,16.5625 19.078125,16.75 19.21875,16.921875 L17.359375,18.34375 L16.515625,17.421875 L11.234375,17.421875 C11.6875,17.953125 12.1875,18.578125 12.53125,19.0625 C13.03125,19.0625 13.375,19.21875 13.46875,19.5625 Z M6.4375,10.375 L18.28125,10.375 L18.28125,7.34375 L6.4375,7.34375 Z" transform="translate(-0.0234375, 20.109375) scale(1, -1)"/>
</svg>