<svg height="22.03125" viewBox="0 0 24 22.03125" width="24" xmlns="http://www.w3.org/2000/svg">
<path d="M15.078125,5.65625 L20.546875,5.65625 L20.546875,0.765625 L15.078125,0.765625 Z M15.078125,6.359375 L15.078125,10.9375 L20.546875,10.9375 L20.546875,6.359375 Z M13.609375,11.65625 L13.609375,-1.84375 L13.84375,-1.84375 C14.59375,-1.84375 15.078125,-1.484375 15.078125,-1.34375 L15.078125,0.078125 L20.546875,0.078125 L20.546875,-1.6875 L20.765625,-1.6875 C21.453125,-1.6875 22.015625,-1.3125 22.015625,-1.203125 L22.015625,10.828125 C22.515625,10.890625 22.796875,11.046875 22.96875,11.234375 L21.21875,12.59375 L20.421875,11.65625 L15.359375,11.65625 L13.609375,12.390625 Z M13.0625,20.140625 C11.921875,16.515625 9.9375,13.34375 7.828125,11.453125 L8.140625,11.15625 C8.59375,11.421875 9.046875,11.734375 9.484375,12.09375 L9.484375,-1.84375 L9.765625,-1.84375 C10.3125,-1.84375 10.9375,-1.515625 10.9375,-1.3125 L10.9375,11.28125 C11.515625,11.359375 11.734375,11.59375 11.78125,11.90625 L9.578125,12.171875 C11.09375,13.375 12.453125,14.953125 13.578125,16.875 L18,16.875 C17.421875,15.484375 16.421875,13.5625 15.671875,12.40625 L15.953125,12.21875 C17.328125,13.34375 19.078125,15.21875 19.984375,16.5625 C20.46875,16.609375 20.765625,16.625 20.953125,16.796875 L19.078125,18.625 L18,17.5625 L13.96875,17.5625 L14.546875,18.796875 C15.09375,18.71875 15.390625,18.9375 15.484375,19.203125 Z M1.984375,18.625 L1.984375,-1.890625 L2.234375,-1.890625 C2.96875,-1.890625 3.484375,-1.484375 3.484375,-1.375 L3.484375,17.921875 L6.53125,17.921875 C5.96875,16.078125 5.0625,13.375 4.4375,11.921875 C6.046875,10.171875 6.59375,8.421875 6.59375,6.796875 C6.59375,5.875 6.359375,5.40625 5.96875,5.1875 C5.78125,5.0625 5.609375,5.046875 5.359375,5.046875 C5.046875,5.046875 4.21875,5.046875 3.71875,5.046875 L3.71875,4.6875 C4.265625,4.578125 4.703125,4.46875 4.890625,4.296875 C5.09375,4.078125 5.1875,3.59375 5.1875,3.078125 C7.421875,3.171875 8.203125,4.21875 8.203125,6.4375 C8.203125,8.234375 7.375,10.21875 5.0625,12 C6.046875,13.421875 7.53125,16.078125 8.296875,17.5 C8.859375,17.515625 9.21875,17.59375 9.390625,17.78125 L7.484375,19.625 L6.453125,18.625 L3.765625,18.625 L1.984375,19.421875 Z" transform="translate(-0.4765625, 20.140625) scale(1, -1)"/>
</svg>