<svg height="22" viewBox="0 0 24 22" width="24" xmlns="http://www.w3.org/2000/svg">
<path d="M15.75,18.859375 C16.9375,16.15625 19.390625,13.9375 22.078125,12.53125 C22.21875,13.15625 22.703125,13.703125 23.375,13.875 L23.40625,14.1875 C20.515625,15.21875 17.609375,16.875 16.125,19.15625 C16.6875,19.203125 16.921875,19.3125 16.96875,19.5625 L14.296875,20.109375 C13.46875,17.46875 10.25,13.890625 7.3125,12.125 L7.484375,11.78125 C10.875,13.296875 14.15625,16.078125 15.75,18.859375 Z M11.15625,13.75 L11.359375,13.0625 L14.65625,13.0625 L14.65625,10.625 L11.40625,10.625 L9.703125,11.375 L9.703125,4.203125 L9.9375,4.203125 C10.6875,4.203125 11.140625,4.53125 11.140625,4.65625 L11.140625,5.6875 L14.40625,5.6875 C13.796875,2.921875 12.03125,0.5 7.4375,-1.515625 L7.6875,-1.890625 C13.21875,-0.125 15.21875,2.5625 15.890625,5.5 C16.484375,2.734375 17.875,-0.21875 21.90625,-1.796875 C22.0625,-0.90625 22.53125,-0.640625 23.328125,-0.53125 L23.359375,-0.234375 C18.890625,1.109375 17.0625,3.28125 16.34375,5.6875 L19.734375,5.6875 L19.734375,4.484375 L19.96875,4.484375 C20.65625,4.484375 21.234375,4.796875 21.234375,4.921875 L21.234375,9.859375 C21.671875,9.9375 21.90625,10.0625 22.078125,10.25 L20.40625,11.515625 L19.65625,10.625 L16.203125,10.625 L16.203125,13.0625 L19.171875,13.0625 C19.484375,13.0625 19.703125,13.171875 19.78125,13.4375 C19.109375,14.0625 18.046875,14.953125 18.046875,14.953125 L17.09375,13.75 Z M14.515625,6.40625 L11.140625,6.40625 L11.140625,9.9375 L14.65625,9.9375 L14.65625,8.546875 C14.65625,7.828125 14.609375,7.109375 14.515625,6.40625 Z M16.0625,6.40625 C16.15625,7.125 16.203125,7.84375 16.203125,8.5625 L16.203125,9.9375 L19.734375,9.9375 L19.734375,6.40625 Z M1.96875,18.703125 L1.96875,-1.890625 L2.234375,-1.890625 C2.96875,-1.890625 3.5,-1.484375 3.5,-1.34375 L3.5,18.03125 L6.625,18.03125 C6.09375,16.125 5.203125,13.3125 4.609375,11.8125 C6.21875,9.953125 6.765625,8.15625 6.765625,6.453125 C6.765625,5.515625 6.546875,4.984375 6.140625,4.78125 C5.953125,4.65625 5.78125,4.625 5.546875,4.625 C5.203125,4.625 4.375,4.625 3.890625,4.625 L3.890625,4.265625 C4.390625,4.203125 4.875,4.0625 5.046875,3.890625 C5.234375,3.671875 5.328125,3.171875 5.328125,2.640625 C7.578125,2.734375 8.40625,3.8125 8.375,6.078125 C8.375,7.921875 7.515625,9.984375 5.203125,11.875 C6.1875,13.3125 7.65625,16.109375 8.40625,17.5625 C8.96875,17.59375 9.28125,17.65625 9.484375,17.859375 L7.578125,19.734375 L6.546875,18.703125 L3.796875,18.703125 L1.96875,19.484375 Z" transform="translate(-0.6875, 20.109375) scale(1, -1)"/>
</svg>