<svg height="22.015625" viewBox="0 0 24 22.015625" width="24" xmlns="http://www.w3.org/2000/svg">
<path d="M13.34375,20.09375 C12.4375,16.15625 10.515625,12.84375 8.328125,10.78125 L8.640625,10.484375 C10.828125,11.859375 12.671875,13.9375 14.015625,16.75 L20.015625,16.75 C19.65625,14.734375 19.109375,13.296875 18.578125,12.9375 C18.34375,12.765625 18.140625,12.71875 17.71875,12.71875 C17.25,12.71875 15.640625,12.859375 14.78125,12.9375 L14.78125,12.5 C15.59375,12.390625 16.390625,12.1875 16.734375,11.953125 C17.015625,11.734375 17.09375,11.328125 17.09375,10.890625 C18.03125,10.890625 18.84375,11.109375 19.4375,11.5 C20.421875,12.171875 21.1875,14.015625 21.53125,16.609375 C22.015625,16.625 22.3125,16.75 22.46875,16.921875 L20.734375,18.359375 L19.84375,17.46875 L14.359375,17.46875 C14.546875,17.921875 14.71875,18.390625 14.875,18.859375 C15.40625,18.84375 15.671875,19.0625 15.765625,19.34375 Z M14.96875,10.828125 C14.328125,10.3125 13.21875,9.484375 12.140625,8.8125 L10.078125,9.4375 L10.078125,-1.84375 L10.296875,-1.84375 C11.109375,-1.84375 11.515625,-1.515625 11.5625,-1.375 L11.5625,-0.140625 L20.0625,-0.140625 L20.0625,-1.5625 L20.296875,-1.5625 C20.8125,-1.5625 21.578125,-1.25 21.59375,-1.125 L21.59375,7.890625 C22.0625,7.984375 22.46875,8.1875 22.625,8.375 L20.6875,9.859375 L19.828125,8.875 L16.65625,8.875 L16.84375,8.28125 L20.0625,8.28125 L20.0625,4.875 L16.734375,4.875 L16.921875,4.15625 L20.0625,4.15625 L20.0625,0.578125 L11.5625,0.578125 L11.5625,4.078125 L15.125,4.078125 C15.4375,4.078125 15.640625,4.203125 15.703125,4.46875 C15.09375,5.140625 14.0625,5.96875 14.0625,5.96875 L13.203125,4.796875 L11.5625,4.796875 L11.5625,8.015625 C13.203125,8.40625 14.96875,9.046875 15.953125,9.5 C16.296875,9.390625 16.53125,9.4375 16.6875,9.578125 Z M2.0625,18.59375 L2.0625,-1.921875 L2.296875,-1.921875 C3.046875,-1.921875 3.578125,-1.484375 3.578125,-1.375 L3.578125,17.921875 L6.984375,17.921875 C6.390625,16.078125 5.359375,13.34375 4.703125,11.90625 C6.546875,10.109375 7.171875,8.328125 7.171875,6.71875 C7.171875,5.8125 6.953125,5.328125 6.5,5.09375 C6.28125,4.96875 6.125,4.9375 5.828125,4.9375 C5.453125,4.9375 4.515625,4.9375 3.953125,4.9375 L3.953125,4.5625 C4.53125,4.484375 5.046875,4.375 5.234375,4.203125 C5.421875,4.015625 5.546875,3.5 5.546875,2.953125 C7.921875,3.078125 8.828125,4.15625 8.8125,6.34375 C8.8125,8.109375 7.875,10.15625 5.296875,11.953125 C6.390625,13.375 7.9375,16.03125 8.8125,17.5 C9.34375,17.5 9.703125,17.546875 9.890625,17.734375 L7.984375,19.625 L6.953125,18.59375 L3.859375,18.59375 L2.0625,19.390625 Z" transform="translate(-0.34375, 20.09375) scale(1, -1)"/>
</svg>