<svg height="21.859375" viewBox="0 0 24 21.859375" width="24" xmlns="http://www.w3.org/2000/svg">
<path d="M11.65625,18.3125 C11.046875,16.53125 9.59375,14.1875 7.921875,12.75 L8.1875,12.4375 C10.296875,13.53125 12.078125,15.40625 13.0625,16.96875 C13.609375,16.890625 13.796875,17.015625 13.921875,17.25 Z M21.40625,11.65625 C20.8125,10.796875 19.375,9.09375 18.234375,7.984375 C17.5625,9.546875 17.109375,11.296875 16.828125,13.21875 L20.046875,13.21875 C20.375,13.21875 20.609375,13.34375 20.65625,13.578125 C19.96875,14.28125 18.84375,15.171875 18.84375,15.1875 L17.859375,13.921875 L10.4375,13.921875 L10.609375,13.21875 L13.734375,13.21875 C12.53125,11.46875 10.78125,9.796875 8.828125,8.5625 L9.078125,8.1875 C10.5625,8.859375 11.921875,9.671875 13.15625,10.609375 C13.4375,10.265625 13.703125,9.9375 13.9375,9.578125 C12.765625,7.734375 10.65625,5.78125 8.78125,4.65625 L8.96875,4.296875 C11.015625,5.203125 13.265625,6.671875 14.8125,8.046875 C15.046875,7.53125 15.21875,7.015625 15.390625,6.5 C13.46875,4.03125 10.375,1.484375 7.46875,0.140625 L7.609375,-0.234375 C10.6875,0.765625 13.78125,2.734375 15.75,4.609375 C15.953125,2.65625 15.59375,0.984375 14.875,0.234375 C14.71875,0.046875 14.5,0.03125 14.1875,0.03125 C13.578125,0.03125 11.8125,0.140625 10.84375,0.21875 L10.84375,-0.171875 C11.71875,-0.34375 12.59375,-0.546875 12.890625,-0.765625 C13.171875,-0.984375 13.34375,-1.3125 13.375,-1.828125 C14.765625,-1.84375 15.578125,-1.578125 16.109375,-1.03125 C18.140625,0.890625 18.1875,7.15625 13.515625,10.921875 C14.359375,11.609375 15.09375,12.390625 15.703125,13.21875 L16.296875,13.21875 C16.890625,7.421875 18.4375,3.265625 21.71875,0.59375 C22.015625,1.296875 22.578125,1.703125 23.234375,1.734375 L23.296875,1.96875 C21.1875,3.234375 19.5625,5.15625 18.4375,7.578125 C19.890625,8.359375 21.59375,9.5 22.375,10.109375 C22.703125,10.015625 22.921875,10.015625 23.046875,10.15625 Z M1.921875,18.625 L1.921875,-1.890625 L2.15625,-1.890625 C2.90625,-1.890625 3.40625,-1.484375 3.40625,-1.375 L3.40625,17.921875 L6.59375,17.921875 C6.09375,16.015625 5.234375,13.171875 4.6875,11.65625 C6.3125,9.8125 6.90625,7.984375 6.90625,6.265625 C6.90625,5.296875 6.703125,4.78125 6.28125,4.5625 C6.09375,4.4375 5.953125,4.421875 5.6875,4.421875 C5.359375,4.421875 4.4375,4.421875 3.953125,4.421875 L3.953125,4.0625 C4.484375,3.984375 4.96875,3.859375 5.140625,3.671875 C5.359375,3.453125 5.453125,2.921875 5.453125,2.421875 C7.734375,2.546875 8.546875,3.59375 8.515625,5.875 C8.515625,7.75 7.65625,9.84375 5.28125,11.734375 C6.234375,13.21875 7.625,16.015625 8.375,17.515625 C8.921875,17.515625 9.234375,17.59375 9.4375,17.78125 L7.53125,19.625 L6.53125,18.625 L3.703125,18.625 L1.921875,19.421875 Z M13.25,18.9375 L13.421875,18.359375 L17.78125,18.359375 C18.453125,16.21875 19.96875,14.203125 21.890625,12.8125 C22.078125,13.4375 22.65625,13.890625 23.25,14.046875 L23.296875,14.328125 C21.21875,15.21875 19.296875,16.734375 18.4375,18.1875 C19.125,18.265625 19.734375,18.390625 19.9375,18.671875 L18,19.96875 L17.328125,18.9375 Z" transform="translate(-0.609375, 19.96875) scale(1, -1)"/>
</svg>