<svg height="22.03125" viewBox="0 0 24 22.03125" width="24" xmlns="http://www.w3.org/2000/svg">
<path d="M15.796875,20.140625 C15.578125,19.0625 15.28125,17.96875 14.953125,16.9375 L11.28125,16.9375 L11.46875,16.25 L14.71875,16.25 C13.84375,13.921875 12.71875,11.828125 11.40625,10.421875 L11.734375,10.203125 C12.625,10.875 13.4375,11.71875 14.15625,12.671875 L14.15625,1.4375 L14.40625,1.4375 C15.125,1.4375 15.578125,1.875 15.578125,1.984375 L15.578125,6.484375 L19.875,6.484375 L19.875,3.859375 C19.875,3.546875 19.796875,3.4375 19.484375,3.4375 C19.078125,3.4375 17.59375,3.546875 17.59375,3.546875 L17.59375,3.171875 C18.34375,3.078125 18.71875,2.875 18.984375,2.65625 C19.203125,2.421875 19.296875,2.015625 19.34375,1.578125 C21.140625,1.75 21.359375,2.5 21.359375,3.671875 L21.359375,12.671875 C21.8125,12.75 22.21875,12.953125 22.375,13.125 L20.40625,14.59375 L19.65625,13.65625 L15.859375,13.65625 L15.078125,14.015625 C15.5,14.71875 15.890625,15.484375 16.25,16.25 L22.578125,16.25 C22.921875,16.25 23.140625,16.375 23.1875,16.625 C22.4375,17.359375 21.21875,18.34375 21.21875,18.34375 L20.109375,16.9375 L16.53125,16.9375 C16.828125,17.609375 17.0625,18.3125 17.28125,19.015625 C17.8125,19.015625 18.09375,19.21875 18.171875,19.515625 Z M15.578125,12.953125 L19.875,12.953125 L19.875,10.484375 L15.578125,10.484375 Z M15.578125,9.796875 L19.875,9.796875 L19.875,7.171875 L15.578125,7.171875 Z M1.9375,18.703125 L1.9375,-1.890625 L2.1875,-1.890625 C2.921875,-1.890625 3.4375,-1.484375 3.4375,-1.34375 L3.4375,18 L6.078125,18 C5.59375,16.15625 4.796875,13.421875 4.265625,11.953125 C5.734375,10.21875 6.21875,8.46875 6.21875,6.765625 C6.21875,5.859375 6.03125,5.375 5.6875,5.15625 C5.5,5.046875 5.359375,5.015625 5.0625,5.015625 C4.78125,5.015625 4.015625,5.015625 3.546875,5.015625 L3.546875,4.625 C4.0625,4.5625 4.46875,4.4375 4.625,4.265625 C4.828125,4.078125 4.921875,3.578125 4.921875,3.078125 C7.078125,3.171875 7.796875,4.171875 7.796875,6.4375 C7.78125,8.25 7.015625,10.21875 4.84375,12.03125 C5.78125,13.46875 7.109375,16.15625 7.796875,17.59375 C8.328125,17.59375 8.65625,17.65625 8.859375,17.828125 C9.34375,16.734375 9.796875,15.28125 9.8125,14.140625 C11.203125,12.765625 12.859375,15.859375 8.875,18.53125 L8.59375,18.4375 L8.828125,17.90625 L7.03125,19.6875 L6,18.703125 L3.71875,18.703125 L1.9375,19.46875 Z M11.234375,2.828125 L11.234375,9.046875 C11.90625,9.140625 12.234375,9.34375 12.40625,9.53125 L10.390625,11.1875 L9.453125,10.015625 L7.515625,10.015625 L7.65625,9.28125 L9.796875,9.28125 L9.796875,2.234375 C8.59375,1.375 7.265625,0.5 6.453125,0.046875 L7.609375,-1.828125 C7.828125,-1.6875 7.921875,-1.515625 7.84375,-1.25 C8.71875,-0.390625 10.078125,1.203125 10.921875,2.359375 C12.046875,-0.703125 13.578125,-1.265625 16.703125,-1.265625 C18.53125,-1.265625 20.609375,-1.265625 22.296875,-1.265625 C22.375,-0.59375 22.6875,-0.140625 23.25,-0.046875 L23.25,0.28125 C21.265625,0.234375 18.71875,0.234375 16.734375,0.234375 C13.84375,0.234375 12.453125,0.59375 11.234375,2.828125 Z" transform="translate(-0.59375, 20.140625) scale(1, -1)"/>
</svg>