<svg height="21.90625" viewBox="0 0 24 21.90625" width="24" xmlns="http://www.w3.org/2000/svg">
<path d="M9.078125,18.53125 L9.265625,17.828125 L21.984375,17.828125 C22.296875,17.828125 22.53125,17.953125 22.609375,18.21875 C21.8125,18.9375 20.5625,19.9375 20.5625,19.9375 L19.4375,18.53125 Z M10.6875,15.859375 L10.6875,10.578125 L10.890625,10.578125 C11.515625,10.578125 12.1875,10.9375 12.1875,11.0625 L12.1875,11.78125 L18.890625,11.78125 L18.890625,10.796875 L19.125,10.796875 C19.625,10.796875 20.40625,11.15625 20.421875,11.296875 L20.421875,14.953125 C20.828125,15.03125 21.1875,15.21875 21.328125,15.390625 L19.484375,16.75 L18.671875,15.859375 L12.3125,15.859375 L10.6875,16.609375 Z M12.1875,12.484375 L12.1875,15.171875 L18.890625,15.171875 L18.890625,12.484375 Z M9.125,9.625 L9.125,-1.875 L9.34375,-1.875 C10.109375,-1.875 10.578125,-1.484375 10.578125,-1.375 L10.578125,8.90625 L20.546875,8.90625 L20.546875,0.390625 C20.546875,0.046875 20.421875,-0.078125 20.046875,-0.078125 C19.609375,-0.078125 17.71875,0.078125 17.71875,0.078125 L17.71875,-0.3125 C18.578125,-0.40625 19.109375,-0.625 19.390625,-0.84375 C19.65625,-1.109375 19.75,-1.484375 19.796875,-1.96875 C21.796875,-1.75 22.03125,-0.984375 22.03125,0.21875 L22.03125,8.609375 C22.515625,8.71875 22.921875,8.90625 23.0625,9.078125 L21.078125,10.5625 L20.296875,9.625 L10.890625,9.625 L9.125,10.390625 Z M12.3125,7.890625 L12.140625,7.5625 C12.890625,7.25 13.796875,6.8125 14.65625,6.3125 C13.703125,5.546875 12.640625,4.84375 11.6875,4.296875 L11.921875,3.953125 C13.125,4.421875 14.453125,5.046875 15.59375,5.734375 C16.484375,5.1875 17.25,4.609375 17.734375,4.125 C18.890625,3.8125 19.171875,5.203125 16.796875,6.5 C17.40625,6.90625 17.953125,7.3125 18.359375,7.734375 C18.765625,7.609375 19.0625,7.625 19.203125,7.84375 L17.375,8.90625 C16.921875,8.296875 16.265625,7.6875 15.546875,7.0625 C14.71875,7.375 13.625,7.65625 12.3125,7.890625 Z M11.25,3.578125 L11.453125,2.875 L14.859375,2.875 L14.859375,-1.578125 L15.078125,-1.578125 C15.765625,-1.578125 16.25,-1.25 16.25,-1.15625 L16.25,2.875 L19.609375,2.875 C19.890625,2.875 20.140625,3 20.1875,3.265625 C19.65625,3.84375 18.75,4.5625 18.75,4.5625 L17.96875,3.578125 Z M2.0625,18.625 L2.0625,-1.890625 L2.328125,-1.890625 C3.046875,-1.890625 3.546875,-1.484375 3.546875,-1.375 L3.546875,17.921875 L6.5,17.921875 C6,16.015625 5.1875,13.171875 4.625,11.6875 C6.171875,9.84375 6.703125,8.046875 6.703125,6.265625 C6.703125,5.328125 6.484375,4.796875 6.09375,4.5625 C5.921875,4.46875 5.78125,4.4375 5.546875,4.4375 C5.203125,4.4375 4.421875,4.4375 3.953125,4.4375 L3.953125,4.078125 C4.4375,4.015625 4.890625,3.859375 5.0625,3.703125 C5.25,3.5 5.359375,2.96875 5.359375,2.46875 C7.515625,2.5625 8.28125,3.640625 8.28125,5.921875 C8.28125,7.828125 7.46875,9.859375 5.234375,11.765625 C6.171875,13.21875 7.53125,16.03125 8.234375,17.515625 C8.78125,17.546875 9.125,17.609375 9.28125,17.78125 L7.421875,19.625 L6.40625,18.625 L3.84375,18.625 L2.0625,19.421875 Z" transform="translate(-0.5625, 19.9375) scale(1, -1)"/>
</svg>