<svg height="21.875" viewBox="0 0 24 21.875" width="24" xmlns="http://www.w3.org/2000/svg">
<path d="M9.234375,18.546875 L9.4375,17.859375 L21.984375,17.859375 C22.3125,17.859375 22.578125,17.96875 22.65625,18.234375 C21.84375,18.953125 20.59375,19.9375 20.59375,19.9375 L19.484375,18.546875 Z M10.625,15.890625 L10.625,10.609375 L10.875,10.609375 C11.46875,10.609375 12.140625,10.9375 12.140625,11.09375 L12.140625,11.8125 L18.90625,11.8125 L18.90625,10.796875 L19.15625,10.796875 C19.625,10.796875 20.40625,11.140625 20.421875,11.28125 L20.421875,14.96875 C20.859375,15.046875 21.1875,15.21875 21.359375,15.390625 L19.515625,16.78125 L18.703125,15.890625 L12.28125,15.890625 L10.625,16.625 Z M12.140625,12.5 L12.140625,15.171875 L18.90625,15.171875 L18.90625,12.5 Z M8.953125,9.640625 L8.953125,-1.84375 L9.1875,-1.84375 C9.9375,-1.84375 10.4375,-1.46875 10.4375,-1.34375 L10.4375,8.921875 L13.3125,8.921875 C13.171875,7.53125 12.71875,6.125 10.78125,4.875 L11.109375,4.515625 C13.734375,5.6875 14.453125,7.296875 14.6875,8.921875 L16.46875,8.921875 L16.46875,6.640625 C16.46875,5.828125 16.65625,5.546875 17.78125,5.546875 L18.90625,5.546875 C19.6875,5.546875 20.203125,5.5625 20.59375,5.609375 L20.59375,0.390625 C20.59375,0.046875 20.46875,-0.078125 20.09375,-0.078125 C19.65625,-0.078125 17.78125,0.078125 17.78125,0.078125 L17.78125,-0.3125 C18.640625,-0.40625 19.15625,-0.59375 19.4375,-0.84375 C19.703125,-1.078125 19.796875,-1.484375 19.84375,-1.9375 C21.8125,-1.734375 22.0625,-0.984375 22.0625,0.21875 L22.0625,8.65625 C22.53125,8.734375 22.9375,8.921875 23.09375,9.09375 L21.125,10.5625 L20.359375,9.640625 L10.734375,9.640625 L8.953125,10.421875 Z M17.6875,8.921875 L20.59375,8.921875 L20.59375,6.75 L20.5,6.75 C20.40625,6.71875 20.234375,6.671875 20.140625,6.671875 C20.09375,6.671875 19.9375,6.671875 19.84375,6.671875 C19.703125,6.640625 19.390625,6.640625 19.015625,6.640625 L18.09375,6.640625 C17.734375,6.640625 17.6875,6.71875 17.6875,6.953125 Z M12.046875,4.21875 L12.21875,3.53125 L14.859375,3.53125 L14.859375,-1.375 L15.078125,-1.375 C15.765625,-1.375 16.21875,-1.03125 16.25,-0.9375 L16.25,3.53125 L18.9375,3.53125 C19.25,3.53125 19.46875,3.640625 19.53125,3.90625 C18.984375,4.46875 18.09375,5.203125 18.09375,5.203125 L17.328125,4.21875 Z M2.015625,18.59375 L2.015625,-1.921875 L2.28125,-1.921875 C3.03125,-1.921875 3.53125,-1.484375 3.53125,-1.375 L3.53125,17.90625 L6.40625,17.90625 C5.859375,16.03125 5.015625,13.3125 4.421875,11.8125 C6,10.03125 6.546875,8.25 6.546875,6.546875 C6.546875,5.640625 6.34375,5.140625 5.921875,4.921875 C5.734375,4.796875 5.609375,4.78125 5.359375,4.78125 C4.984375,4.78125 4.203125,4.78125 3.71875,4.78125 L3.71875,4.390625 C4.21875,4.3125 4.6875,4.21875 4.84375,4.03125 C5.046875,3.84375 5.140625,3.34375 5.140625,2.828125 C7.34375,2.921875 8.140625,3.953125 8.140625,6.21875 C8.109375,8.015625 7.3125,10.03125 5.015625,11.875 C6,13.3125 7.421875,16.03125 8.140625,17.5 C8.6875,17.5 9.03125,17.5625 9.21875,17.765625 L7.34375,19.578125 L6.34375,18.59375 L3.8125,18.59375 L2.015625,19.375 Z" transform="translate(-0.5546875, 19.9375) scale(1, -1)"/>
</svg>