<svg height="21.953125" viewBox="0 0 24 21.953125" width="24" xmlns="http://www.w3.org/2000/svg">
<path d="M10.125,17.296875 L9.84375,17.15625 C10.4375,16.375 11.109375,15.03125 11.25,13.96875 C12.53125,12.84375 13.96875,15.53125 10.125,17.296875 Z M13.890625,17.640625 L13.609375,17.515625 C14.109375,16.609375 14.71875,15.171875 14.734375,14.046875 C16.015625,12.84375 17.5625,15.53125 13.890625,17.640625 Z M13.21875,5.96875 L13.03125,5.6875 C14.28125,5.203125 15.859375,4.109375 16.515625,3.140625 C18.234375,2.515625 18.578125,5.875 13.21875,5.96875 Z M19.515625,4.484375 L19.25,4.296875 C20.296875,3.21875 21.5,1.375 21.640625,-0.125 C23.25,-1.375 24.625,2.28125 19.515625,4.484375 Z M11.90625,4.65625 L11.90625,0 C11.90625,-1.0625 12.140625,-1.390625 13.828125,-1.390625 L16.015625,-1.390625 C19.203125,-1.390625 19.875,-1.109375 19.875,-0.484375 C19.875,-0.1875 19.75,-0.03125 19.25,0.171875 L19.203125,2.296875 L18.890625,2.296875 C18.671875,1.34375 18.4375,0.484375 18.28125,0.1875 C18.1875,0.03125 18.125,0 17.875,-0.03125 C17.640625,-0.046875 16.921875,-0.046875 16.0625,-0.046875 L14.109375,-0.046875 C13.421875,-0.046875 13.34375,0 13.34375,0.3125 L13.34375,3.859375 C13.75,3.90625 13.96875,4.15625 14.015625,4.390625 Z M9.640625,4.296875 C9.53125,2.78125 8.546875,1.34375 7.6875,0.8125 C7.21875,0.484375 6.953125,0 7.171875,-0.4375 C7.46875,-0.90625 8.25,-0.796875 8.8125,-0.390625 C9.625,0.265625 10.515625,1.921875 10.078125,4.296875 Z M2.046875,18.625 L2.046875,-1.890625 L2.296875,-1.890625 C3.03125,-1.890625 3.53125,-1.484375 3.53125,-1.375 L3.53125,17.921875 L6.5,17.921875 C5.953125,16.0625 5.015625,13.34375 4.390625,11.859375 C6.09375,10.0625 6.671875,8.25 6.671875,6.59375 C6.671875,5.71875 6.453125,5.1875 6.03125,4.96875 C5.828125,4.84375 5.6875,4.828125 5.421875,4.828125 C5.0625,4.828125 4.203125,4.828125 3.671875,4.828125 L3.671875,4.4375 C4.21875,4.375 4.6875,4.25 4.875,4.078125 C5.0625,3.859375 5.1875,3.359375 5.1875,2.828125 C7.484375,2.953125 8.296875,4.015625 8.28125,6.234375 C8.28125,8.046875 7.421875,10.078125 5.015625,11.921875 C6.03125,13.34375 7.515625,16.0625 8.28125,17.5 C8.765625,17.515625 9.046875,17.5625 9.234375,17.6875 L9.265625,17.59375 C13.3125,17.609375 17.953125,18 21.046875,18.453125 C21.578125,18.21875 22.015625,18.1875 22.25,18.390625 L20.609375,20.0625 C18,19.296875 13.109375,18.390625 9.1875,18.046875 L9.21875,17.90625 L7.46875,19.625 L6.453125,18.625 L3.8125,18.625 L2.046875,19.421875 Z M19.125,17.765625 C18.671875,16.390625 17.859375,14.59375 17.09375,13.296875 L9.125,13.296875 L9.34375,12.578125 L19.78125,12.578125 L19.78125,10.46875 L9.5,10.46875 L9.71875,9.765625 L19.78125,9.765625 L19.78125,7.515625 L9.171875,7.515625 L9.390625,6.8125 L19.78125,6.8125 L19.78125,5.609375 L20.0625,5.609375 C20.609375,5.609375 21.234375,5.953125 21.28125,6.046875 L21.28125,12.3125 C21.671875,12.390625 21.984375,12.578125 22.15625,12.75 L20.609375,14.140625 L19.828125,13.296875 L17.765625,13.296875 C18.8125,14.296875 19.890625,15.546875 20.5625,16.53125 C21.078125,16.515625 21.390625,16.6875 21.484375,16.96875 Z" transform="translate(-1.3359375, 20.0625) scale(1, -1)"/>
</svg>