<svg height="21.953125" viewBox="0 0 24 21.953125" width="24" xmlns="http://www.w3.org/2000/svg">
<path d="M8.765625,19.109375 L8.46875,18.984375 C9.125,18 10.015625,16.4375 10.21875,15.28125 C11.640625,14.109375 13.0625,17.046875 8.765625,19.109375 Z M7.46875,14.234375 L7.203125,14.0625 C7.984375,13.203125 9.03125,11.765625 9.359375,10.65625 C10.84375,9.625 12.125,12.546875 7.46875,14.234375 Z M14.921875,7.515625 L19.78125,7.515625 L19.78125,5.828125 L14.921875,5.828125 Z M14.921875,8.203125 L14.921875,9.90625 L19.78125,9.90625 L19.78125,8.203125 Z M13.484375,10.5625 L13.484375,1.296875 L13.734375,1.296875 C14.328125,1.296875 14.921875,1.625 14.921875,1.796875 L14.921875,5.109375 L19.78125,5.109375 L19.78125,3.28125 C19.78125,3 19.703125,2.90625 19.375,2.90625 C18.9375,2.90625 17.296875,3 17.296875,3 L17.296875,2.640625 C18.125,2.546875 18.546875,2.328125 18.796875,2.140625 C19.0625,1.890625 19.125,1.515625 19.203125,1.109375 C21.09375,1.265625 21.328125,1.984375 21.328125,3.140625 L21.328125,9.578125 C21.796875,9.640625 22.203125,9.859375 22.34375,10.03125 L20.328125,11.546875 L19.5625,10.5625 L15.046875,10.5625 L13.484375,11.28125 Z M11.15625,2.859375 L11.15625,7.21875 C11.828125,7.3125 12.1875,7.515625 12.34375,7.6875 L10.296875,9.390625 L9.359375,8.1875 L7.796875,8.1875 L7.9375,7.46875 L9.703125,7.46875 L9.703125,2.25 C8.515625,1.421875 7.21875,0.578125 6.4375,0.125 L7.609375,-1.78125 C7.78125,-1.625 7.875,-1.46875 7.828125,-1.171875 C8.6875,-0.34375 10.03125,1.21875 10.875,2.375 C12,-0.625 13.515625,-1.21875 16.625,-1.21875 C18.484375,-1.21875 20.5625,-1.21875 22.21875,-1.21875 C22.296875,-0.53125 22.609375,-0.078125 23.1875,0.046875 L23.1875,0.390625 C21.1875,0.3125 18.640625,0.3125 16.625,0.3125 C13.78125,0.3125 12.40625,0.671875 11.15625,2.859375 Z M15,20.0625 C14.875,19.3125 14.71875,18.578125 14.5,17.859375 L11.609375,17.859375 L11.8125,17.140625 L14.25,17.140625 C13.578125,15.21875 12.53125,13.484375 11.09375,12.3125 L11.375,12.046875 C12.625,12.765625 13.625,13.734375 14.46875,14.828125 L16.609375,14.828125 L16.609375,12.765625 L12.984375,12.765625 L13.171875,12.046875 L22.078125,12.046875 C22.390625,12.046875 22.625,12.171875 22.703125,12.4375 C22.03125,13.078125 20.96875,13.921875 20.96875,13.921875 L20.046875,12.765625 L18,12.765625 L18,14.828125 L21.28125,14.828125 C21.625,14.828125 21.84375,14.953125 21.890625,15.1875 C21.234375,15.8125 20.1875,16.65625 20.1875,16.65625 L19.296875,15.53125 L14.953125,15.53125 C15.28125,16.03125 15.578125,16.578125 15.8125,17.140625 L22.3125,17.140625 C22.65625,17.140625 22.875,17.25 22.9375,17.515625 C22.171875,18.265625 20.96875,19.21875 20.96875,19.21875 L19.890625,17.859375 L16.125,17.859375 C16.296875,18.3125 16.46875,18.765625 16.578125,19.21875 C17.1875,19.203125 17.359375,19.3125 17.421875,19.5625 Z M1.96875,18.625 L1.96875,-1.890625 L2.234375,-1.890625 C2.953125,-1.890625 3.453125,-1.484375 3.453125,-1.375 L3.453125,17.921875 L5.90625,17.921875 C5.5,16.109375 4.75,13.390625 4.265625,11.921875 C5.609375,10.21875 6.046875,8.5 6.046875,6.796875 C6.046875,5.875 5.859375,5.40625 5.546875,5.1875 C5.375,5.09375 5.234375,5.0625 4.984375,5.0625 C4.703125,5.0625 4.03125,5.0625 3.59375,5.0625 L3.59375,4.6875 C4.078125,4.609375 4.4375,4.484375 4.609375,4.296875 C4.796875,4.109375 4.875,3.59375 4.875,3.09375 C6.9375,3.21875 7.625,4.171875 7.625,6.4375 C7.625,8.25 6.859375,10.21875 4.875,12 C5.734375,13.4375 6.984375,16.125 7.625,17.515625 C8.15625,17.546875 8.5,17.609375 8.6875,17.78125 L6.84375,19.609375 L5.8125,18.625 L3.75,18.625 L1.96875,19.421875 Z" transform="translate(-0.578125, 20.0625) scale(1, -1)"/>
</svg>