<svg height="21.96875" viewBox="0 0 24 21.96875" width="24" xmlns="http://www.w3.org/2000/svg">
<path d="M9.890625,19.4375 L9.625,19.25 C10.421875,18.453125 11.40625,17.15625 11.71875,16.125 C13.171875,15.09375 14.359375,18.046875 9.890625,19.4375 Z M18.984375,19.625 C18.28125,18.3125 17.375,17.046875 16.65625,16.296875 L16.9375,15.953125 C17.96875,16.46875 19.15625,17.28125 20.140625,18.171875 C20.59375,18.046875 20.921875,18.21875 21.078125,18.40625 Z M14.1875,20.046875 L14.1875,15.453125 L7.84375,15.453125 L8.046875,14.765625 L12.84375,14.765625 C11.5,13.078125 9.53125,11.46875 7.390625,10.3125 L7.65625,9.90625 C10.15625,10.921875 12.5,12.3125 14.1875,14.015625 L14.1875,9.4375 L14.5,9.4375 C15.078125,9.4375 15.671875,9.71875 15.671875,9.90625 L15.671875,14.71875 C17.0625,12.578125 19.34375,11.0625 21.890625,10.21875 C22.0625,10.96875 22.53125,11.453125 23.15625,11.59375 L23.1875,11.859375 C20.6875,12.265625 18.03125,13.265625 16.375,14.765625 L22.21875,14.765625 C22.5625,14.765625 22.78125,14.875 22.84375,15.125 C22.125,15.8125 20.921875,16.75 20.921875,16.75 L19.890625,15.453125 L15.671875,15.453125 L15.671875,19.15625 C16.265625,19.25 16.484375,19.46875 16.53125,19.796875 Z M18.34375,10.296875 L18.34375,7.921875 L14.96875,7.921875 L13.75,9 L12.8125,8.0625 L10.9375,8.0625 C11.109375,8.46875 11.28125,8.90625 11.453125,9.34375 C11.96875,9.3125 12.234375,9.53125 12.34375,9.796875 L10.109375,10.46875 C9.453125,7.53125 8.15625,4.9375 6.640625,3.3125 L6.984375,3.03125 C7.84375,3.625 8.609375,4.390625 9.34375,5.328125 C9.8125,4.75 10.3125,3.953125 10.46875,3.34375 C10.78125,3.09375 11.09375,3.078125 11.328125,3.1875 C10.203125,1.265625 8.546875,-0.3125 6.171875,-1.484375 L6.390625,-1.875 C11.25,-0.046875 13.4375,3.1875 14.515625,7.203125 L14.8125,7.21875 L15.453125,7.21875 L15.453125,3.21875 L13.296875,3.21875 L13.484375,2.5 L18.34375,2.5 L18.34375,-1.921875 L18.625,-1.921875 C19.15625,-1.921875 19.75,-1.625 19.75,-1.4375 L19.75,2.5 L22.5625,2.5 C22.890625,2.5 23.109375,2.609375 23.1875,2.875 C22.5625,3.53125 21.578125,4.34375 21.578125,4.34375 L20.6875,3.21875 L19.75,3.21875 L19.75,7.21875 L22.25,7.21875 C22.578125,7.21875 22.796875,7.34375 22.875,7.609375 C22.21875,8.234375 21.234375,9.078125 21.234375,9.078125 L20.359375,7.921875 L19.75,7.921875 L19.75,9.453125 C20.28125,9.53125 20.5,9.75 20.546875,10.0625 Z M16.75,3.21875 L16.75,7.21875 L18.34375,7.21875 L18.34375,3.21875 Z M12.90625,7.375 C12.640625,6.140625 12.234375,4.984375 11.71875,3.9375 C11.6875,4.515625 11.15625,5.28125 9.671875,5.8125 C10.015625,6.28125 10.3125,6.8125 10.609375,7.375 Z M1.96875,18.625 L1.96875,-1.890625 L2.234375,-1.890625 C2.953125,-1.890625 3.453125,-1.484375 3.453125,-1.375 L3.453125,17.921875 L6.171875,17.921875 C5.640625,16.203125 4.84375,13.65625 4.265625,12.28125 C5.765625,10.625 6.28125,9 6.28125,7.421875 C6.28125,6.578125 6.09375,6.09375 5.71875,5.90625 C5.5625,5.8125 5.40625,5.78125 5.140625,5.78125 C4.796875,5.78125 4.0625,5.78125 3.59375,5.78125 L3.59375,5.40625 C4.109375,5.328125 4.515625,5.203125 4.6875,5.046875 C4.875,4.84375 4.96875,4.375 4.96875,3.90625 C7.0625,3.984375 7.828125,4.96875 7.796875,7.109375 C7.796875,8.8125 7.015625,10.65625 4.84375,12.359375 C5.78125,13.6875 7.109375,16.203125 7.828125,17.546875 C8.375,17.546875 8.6875,17.609375 8.875,17.8125 L7.109375,19.578125 L6.09375,18.625 L3.75,18.625 L1.96875,19.421875 Z" transform="translate(-0.578125, 20.046875) scale(1, -1)"/>
</svg>