<svg height="21.984375" viewBox="0 0 24 21.984375" width="24" xmlns="http://www.w3.org/2000/svg">
<path d="M3.9375,9.234375 L3.703125,9.03125 C4.890625,8.1875 6.390625,6.625 6.84375,5.40625 C8.546875,4.390625 9.484375,7.890625 3.9375,9.234375 Z M17.921875,13.5625 L17.921875,10.796875 L12.71875,10.796875 L12.71875,13.5625 Z M1.125,1.296875 L2.5625,-0.5 C2.734375,-0.390625 2.90625,-0.140625 2.921875,0.140625 C6.578125,2.234375 9.234375,3.953125 11.15625,5.203125 L11.15625,0.625 C11.15625,0.234375 11.046875,0.125 10.578125,0.125 C10.0625,0.125 7.515625,0.28125 7.515625,0.28125 L7.515625,-0.09375 C8.609375,-0.234375 9.265625,-0.40625 9.625,-0.703125 C9.984375,-0.953125 10.125,-1.390625 10.203125,-1.890625 C12.453125,-1.65625 12.71875,-0.8125 12.71875,0.484375 L12.71875,9.234375 C14.421875,3.9375 17.71875,1.15625 21.625,-0.71875 C21.84375,0.03125 22.3125,0.53125 22.984375,0.640625 L23.046875,0.890625 C20.6875,1.703125 18.1875,2.90625 16.15625,4.828125 C17.875,5.71875 19.6875,6.9375 20.71875,7.828125 C21.265625,7.6875 21.453125,7.75 21.625,7.984375 L19.625,9.21875 C18.8125,8.09375 17.203125,6.390625 15.796875,5.1875 C14.515625,6.484375 13.4375,8.09375 12.75,10.109375 L17.921875,10.109375 L17.921875,9.171875 L18.171875,9.171875 C18.703125,9.171875 19.484375,9.546875 19.515625,9.71875 L19.515625,13.5625 L22.578125,13.5625 C22.921875,13.5625 23.140625,13.65625 23.1875,13.921875 C22.484375,14.609375 21.3125,15.59375 21.3125,15.59375 L20.25,14.234375 L19.515625,14.234375 L19.515625,16.515625 C19.96875,16.609375 20.328125,16.796875 20.5,16.984375 L18.578125,18.453125 L17.71875,17.5 L12.71875,17.5 L12.71875,19.171875 C13.34375,19.265625 13.515625,19.484375 13.578125,19.828125 L11.15625,20.09375 L11.15625,17.5 L4.15625,17.5 L4.375,16.796875 L11.15625,16.796875 L11.15625,14.234375 L0.953125,14.234375 L1.171875,13.5625 L11.15625,13.5625 L11.15625,10.796875 L3.890625,10.796875 L4.109375,10.109375 L11.15625,10.109375 L11.15625,5.546875 L11.140625,5.59375 C6.9375,3.703125 2.828125,1.875 1.125,1.296875 Z M17.921875,14.234375 L12.71875,14.234375 L12.71875,16.796875 L17.921875,16.796875 Z" transform="translate(-0.0703125, 20.09375) scale(1, -1)"/>
</svg>