<svg height="22.015625" viewBox="0 0 24 22.015625" width="24" xmlns="http://www.w3.org/2000/svg">
<path d="M16.21875,4.84375 C15.1875,3.765625 13.84375,2.828125 12.3125,2.015625 C10.515625,2.765625 8.96875,3.671875 7.828125,4.84375 Z M2.046875,5.546875 L2.25,4.84375 L7.15625,4.84375 C8.140625,3.4375 9.453125,2.296875 10.984375,1.375 C8.09375,0.046875 4.609375,-0.890625 0.984375,-1.46875 L1.109375,-1.875 C5.296875,-1.484375 9.125,-0.671875 12.34375,0.640625 C14.96875,-0.625 18.171875,-1.421875 21.640625,-1.875 C21.8125,-1.078125 22.296875,-0.546875 23.015625,-0.390625 L23.046875,-0.125 C19.84375,0.09375 16.734375,0.578125 14.015625,1.421875 C15.71875,2.28125 17.203125,3.34375 18.4375,4.5625 C19.078125,4.609375 19.34375,4.65625 19.5625,4.875 L17.8125,6.546875 L16.5625,5.546875 Z M11.5,16.078125 L11.5,13.9375 L6.40625,13.9375 L6.40625,16.078125 Z M6.28125,20.140625 C4.9375,16.703125 2.765625,13.515625 0.796875,11.640625 L1.078125,11.328125 C2.375,12.171875 3.671875,13.296875 4.84375,14.609375 L4.84375,6.390625 L5.109375,6.390625 C5.90625,6.390625 6.40625,6.765625 6.40625,6.90625 L6.40625,7.484375 L21.03125,7.484375 C21.359375,7.484375 21.578125,7.609375 21.640625,7.875 C20.875,8.609375 19.609375,9.578125 19.609375,9.578125 L18.484375,8.203125 L13.078125,8.203125 L13.078125,10.421875 L19.421875,10.421875 C19.75,10.421875 19.984375,10.53125 20.046875,10.796875 C19.3125,11.46875 18.140625,12.359375 18.140625,12.359375 L17.109375,11.109375 L13.078125,11.109375 L13.078125,13.265625 L19.421875,13.265625 C19.75,13.265625 19.96875,13.390625 20.015625,13.625 C19.3125,14.328125 18.140625,15.21875 18.140625,15.21875 L17.109375,13.9375 L13.078125,13.9375 L13.078125,16.078125 L20.40625,16.078125 C20.734375,16.078125 20.953125,16.203125 21.03125,16.46875 C20.25,17.1875 18.984375,18.171875 18.984375,18.171875 L17.90625,16.75 L11.859375,16.75 C12.546875,17.453125 13.265625,18.265625 13.703125,18.890625 C14.203125,18.90625 14.515625,19.109375 14.59375,19.390625 L12.046875,20.046875 C11.859375,19.078125 11.5,17.765625 11.140625,16.75 L6.703125,16.75 L6.546875,16.828125 C6.953125,17.453125 7.375,18.09375 7.734375,18.765625 C8.234375,18.703125 8.546875,18.890625 8.65625,19.125 Z M11.5,8.203125 L6.40625,8.203125 L6.40625,10.421875 L11.5,10.421875 Z M11.5,13.265625 L11.5,11.109375 L6.40625,11.109375 L6.40625,13.265625 Z" transform="translate(0.078125, 20.140625) scale(1, -1)"/>
</svg>