<svg height="22" viewBox="0 0 24 22" width="24" xmlns="http://www.w3.org/2000/svg">
<path d="M9.53125,3.484375 C9.5,2.28125 8.6875,1.109375 7.921875,0.640625 C7.484375,0.359375 7.25,-0.09375 7.4375,-0.5 C7.703125,-0.953125 8.515625,-0.859375 8.96875,-0.5 C9.671875,0.09375 10.375,1.4375 9.953125,3.453125 Z M14.109375,17.90625 L13.828125,17.765625 C14.203125,17.09375 14.6875,16.078125 14.765625,15.234375 C15.890625,14.15625 17.46875,16.34375 14.109375,17.90625 Z M13.84375,4.390625 L13.609375,4.203125 C14.46875,3.484375 15.59375,2.25 16.015625,1.3125 C17.453125,0.546875 18.234375,3.359375 13.84375,4.390625 Z M18.671875,18.21875 L18.40625,18.03125 C19.578125,17.09375 21.125,15.453125 21.578125,14.203125 C23.140625,13.296875 24,16.46875 18.671875,18.21875 Z M19.265625,3.75 L18.984375,3.546875 C20.015625,2.609375 21.265625,1.0625 21.546875,-0.171875 C23.09375,-1.21875 24.1875,1.9375 19.265625,3.75 Z M11.359375,3.796875 L11.359375,-0.125 C11.359375,-1.171875 11.65625,-1.484375 13.421875,-1.484375 L15.9375,-1.484375 C19.515625,-1.484375 20.15625,-1.25 20.15625,-0.59375 C20.15625,-0.3125 20.015625,-0.171875 19.5625,0 L19.46875,1.78125 L19.171875,1.78125 C18.984375,1.015625 18.75,0.265625 18.59375,0.03125 C18.5,-0.140625 18.390625,-0.171875 18.140625,-0.1875 C17.875,-0.21875 16.984375,-0.21875 16.015625,-0.21875 L13.6875,-0.21875 C12.84375,-0.21875 12.765625,-0.171875 12.765625,0.140625 L12.765625,2.96875 C13.171875,3.046875 13.390625,3.265625 13.4375,3.546875 Z M1.96875,18.625 L1.96875,-1.890625 L2.234375,-1.890625 C2.953125,-1.890625 3.453125,-1.484375 3.453125,-1.375 L3.453125,17.921875 L6.453125,17.921875 C5.921875,16.125 5.0625,13.46875 4.46875,12.046875 C6.09375,10.3125 6.671875,8.59375 6.671875,6.953125 C6.671875,6.09375 6.453125,5.59375 6.046875,5.40625 C5.859375,5.25 5.6875,5.234375 5.453125,5.234375 C5.09375,5.234375 4.25,5.234375 3.765625,5.234375 L3.765625,4.875 C4.265625,4.796875 4.734375,4.65625 4.921875,4.484375 C5.109375,4.296875 5.203125,3.796875 5.203125,3.3125 C7.4375,3.40625 8.25,4.4375 8.25,6.625 C8.234375,8.359375 7.421875,10.3125 5.0625,12.125 C6.046875,13.484375 7.4375,16.125 8.1875,17.546875 C8.765625,17.546875 9.078125,17.59375 9.234375,17.78125 L7.421875,19.609375 L6.40625,18.625 L3.75,18.625 L1.96875,19.421875 Z M9.890625,5.640625 L10.109375,4.9375 L18.984375,4.9375 L18.984375,4.109375 L19.21875,4.109375 C19.703125,4.109375 20.453125,4.421875 20.46875,4.578125 L20.46875,7.21875 L22.75,7.21875 C23.09375,7.21875 23.296875,7.3125 23.359375,7.578125 C22.703125,8.234375 21.578125,9.09375 21.578125,9.09375 L20.65625,7.921875 L20.46875,7.921875 L20.46875,9.234375 C20.90625,9.34375 21.265625,9.5 21.4375,9.671875 L19.609375,11.0625 L18.765625,10.171875 L9.90625,10.171875 L10.125,9.484375 L18.984375,9.484375 L18.984375,7.921875 L8.8125,7.921875 L8.96875,7.21875 L18.984375,7.21875 L18.984375,5.640625 Z M9.171875,12.171875 L9.359375,11.5 L21.8125,11.5 C22.15625,11.5 22.375,11.609375 22.4375,11.875 C21.765625,12.5 20.734375,13.3125 20.734375,13.3125 L19.796875,12.171875 L16.203125,12.171875 L16.203125,13.84375 L20.40625,13.84375 C20.71875,13.84375 20.921875,13.96875 21,14.234375 C20.359375,14.859375 19.34375,15.640625 19.34375,15.640625 L18.453125,14.5625 L10.296875,14.5625 L10.484375,13.84375 L14.71875,13.84375 L14.71875,12.171875 Z M19.21875,20.109375 C17.65625,19.53125 14.90625,18.8125 12.34375,18.359375 L10.578125,19.078125 C9.859375,16.921875 8.765625,14.8125 7.65625,13.515625 L8.015625,13.265625 C9.4375,14.296875 10.84375,15.9375 11.921875,17.78125 C12.171875,17.734375 12.390625,17.78125 12.53125,17.859375 C15.390625,17.96875 18.265625,18.359375 20.0625,18.703125 C20.46875,18.546875 20.8125,18.546875 20.953125,18.71875 Z" transform="translate(-1.078125, 20.109375) scale(1, -1)"/>
</svg>