<svg height="22.140625" viewBox="0 0 24 22.140625" width="24" xmlns="http://www.w3.org/2000/svg">
<path d="M7.984375,4.4375 L8.375,4.84375 L16.515625,4.84375 C15.390625,3.703125 13.921875,2.71875 12.234375,1.84375 C10.484375,2.5 9,3.34375 7.9375,4.390625 Z M2.25,5.546875 L2.46875,4.84375 L7.625,4.84375 L7.5625,4.625 C6.859375,4.078125 5.5625,3.140625 4.796875,2.6875 L5.953125,1.125 C6.125,1.265625 6.21875,1.484375 6.078125,1.75 C6.5,2.296875 7.171875,3.265625 7.6875,3.984375 C8.5625,2.90625 9.703125,2.015625 10.984375,1.265625 C8.0625,0 4.609375,-0.90625 1.03125,-1.484375 L1.171875,-1.890625 C5.359375,-1.515625 9.171875,-0.71875 12.359375,0.546875 C15.09375,-0.703125 18.4375,-1.4375 22.015625,-1.84375 C22.15625,-1.0625 22.625,-0.53125 23.296875,-0.359375 L23.296875,-0.09375 C20.0625,0.046875 16.796875,0.484375 13.984375,1.265625 C15.8125,2.1875 17.40625,3.265625 18.703125,4.5625 C19.34375,4.609375 19.625,4.65625 19.84375,4.84375 L18.078125,6.546875 L16.84375,5.546875 Z M11.546875,16.015625 L11.546875,13.921875 L6.125,13.921875 L6.125,16.015625 Z M6.03125,20.25 C4.75,16.84375 2.65625,13.609375 0.75,11.65625 L1.0625,11.421875 C2.28125,12.234375 3.453125,13.3125 4.5625,14.59375 L4.5625,6.390625 L4.828125,6.390625 C5.609375,6.390625 6.125,6.796875 6.125,6.90625 L6.125,7.484375 L21.21875,7.484375 C21.53125,7.484375 21.765625,7.609375 21.8125,7.875 C21.046875,8.59375 19.78125,9.578125 19.78125,9.578125 L18.640625,8.1875 L13.109375,8.1875 L13.109375,10.390625 L19.84375,10.390625 C20.15625,10.390625 20.375,10.484375 20.453125,10.75 C19.734375,11.453125 18.53125,12.34375 18.53125,12.34375 L17.515625,11.09375 L13.109375,11.09375 L13.109375,13.21875 L19.828125,13.21875 C20.140625,13.21875 20.375,13.34375 20.421875,13.578125 C19.703125,14.28125 18.53125,15.1875 18.53125,15.1875 L17.515625,13.921875 L13.109375,13.921875 L13.109375,16.015625 L20.765625,16.015625 C21.09375,16.015625 21.3125,16.125 21.390625,16.390625 C20.609375,17.109375 19.34375,18.09375 19.34375,18.09375 L18.234375,16.703125 L11.640625,16.703125 C12.34375,17.40625 13.0625,18.234375 13.5625,18.890625 C14.046875,18.859375 14.328125,19.0625 14.421875,19.34375 L11.90625,20.0625 C11.71875,19.0625 11.328125,17.71875 10.96875,16.703125 L6.40625,16.703125 L6.234375,16.78125 C6.671875,17.453125 7.078125,18.140625 7.46875,18.859375 C7.96875,18.796875 8.28125,18.984375 8.40625,19.25 Z M11.546875,8.1875 L6.125,8.1875 L6.125,10.390625 L11.546875,10.390625 Z M11.546875,13.21875 L11.546875,11.09375 L6.125,11.09375 L6.125,13.21875 Z" transform="translate(-0.0234375, 20.25) scale(1, -1)"/>
</svg>