<svg height="21.984375" viewBox="0 0 24 21.984375" width="24" xmlns="http://www.w3.org/2000/svg">
<path d="M17.46875,19.875 C17.25,18.5 16.828125,16.6875 16.421875,15.3125 L13.6875,15.3125 L13.53125,15.390625 C13.984375,16.515625 14.40625,17.71875 14.734375,18.953125 C15.265625,18.953125 15.53125,19.171875 15.625,19.46875 L13.109375,20.109375 C12.578125,17.0625 11.640625,14.015625 10.53125,11.5 C9.984375,12.03125 9.4375,12.5 9.4375,12.5 L8.515625,11.25 L8.328125,11.25 L8.328125,17.359375 L10.984375,17.359375 C11.296875,17.359375 11.546875,17.46875 11.59375,17.734375 C10.84375,18.4375 9.640625,19.421875 9.640625,19.421875 L8.5625,18.078125 L1.375,18.078125 L1.5625,17.359375 L6.859375,17.359375 L6.859375,11.25 L3.453125,11.25 C3.796875,12.796875 4.109375,14.5 4.25,15.40625 C4.84375,15.484375 5.09375,15.71875 5.15625,16.0625 L2.953125,16.3125 C2.78125,14.6875 2.09375,10.921875 1.5625,9.359375 C2.1875,9.1875 2.765625,9.21875 3.046875,9.453125 L3.3125,10.53125 L6.1875,10.53125 C5.015625,7.203125 3.03125,3.8125 0.53125,1.34375 L0.84375,1.015625 C3.359375,2.875 5.40625,5.296875 6.859375,8.015625 L6.859375,0.546875 C6.859375,0.171875 6.75,0.03125 6.28125,0.03125 C5.765625,0.03125 3.359375,0.21875 3.359375,0.21875 L3.359375,-0.140625 C4.4375,-0.28125 5.046875,-0.453125 5.453125,-0.71875 C5.71875,-0.984375 5.859375,-1.421875 5.90625,-1.875 C8.0625,-1.65625 8.328125,-0.703125 8.328125,0.484375 L8.328125,10.53125 L10.078125,10.53125 C9.796875,9.9375 9.484375,9.359375 9.171875,8.859375 L9.53125,8.609375 C10.375,9.53125 11.15625,10.609375 11.859375,11.828125 L11.859375,-1.84375 L12.09375,-1.84375 C12.859375,-1.84375 13.390625,-1.46875 13.390625,-1.3125 L13.390625,-0.359375 L22.609375,-0.359375 C22.9375,-0.359375 23.15625,-0.234375 23.203125,0.03125 C22.46875,0.765625 21.265625,1.734375 21.265625,1.734375 L20.15625,0.359375 L17.96875,0.359375 L17.96875,5.015625 L21.859375,5.015625 C22.171875,5.015625 22.421875,5.140625 22.46875,5.40625 C21.796875,6.078125 20.65625,7.015625 20.65625,7.015625 L19.6875,5.6875 L17.96875,5.6875 L17.96875,9.90625 L21.703125,9.90625 C22.03125,9.90625 22.25,10.03125 22.3125,10.296875 C21.625,10.96875 20.546875,11.875 20.546875,11.875 L19.578125,10.609375 L17.96875,10.609375 L17.96875,14.609375 L22.125,14.609375 C22.46875,14.609375 22.703125,14.734375 22.75,15 C22.015625,15.71875 20.8125,16.6875 20.8125,16.6875 L19.75,15.3125 L17.015625,15.3125 C17.8125,16.421875 18.59375,17.734375 19.078125,18.75 C19.609375,18.71875 19.875,18.9375 19.96875,19.21875 Z M16.484375,14.609375 L16.484375,10.609375 L13.390625,10.609375 L13.390625,14.609375 Z M16.484375,9.90625 L16.484375,5.6875 L13.390625,5.6875 L13.390625,9.90625 Z M16.484375,5.015625 L16.484375,0.359375 L13.390625,0.359375 L13.390625,5.015625 Z" transform="translate(0.1328125, 20.109375) scale(1, -1)"/>
</svg>