<svg height="22.109375" viewBox="0 0 24 22.109375" width="24" xmlns="http://www.w3.org/2000/svg">
<path d="M8.5625,8.15625 L13.265625,8.15625 L13.265625,6 L8.5625,6 Z M19.296875,20.1875 C16.015625,19.390625 10.03125,18.453125 5.140625,18.046875 L3.640625,18.703125 L3.640625,13.0625 C3.640625,8.359375 3.34375,3.03125 0.765625,-1.34375 L1.125,-1.578125 C2.6875,0.171875 3.640625,2.234375 4.21875,4.375 L4.4375,4.171875 C5.328125,4.78125 6.21875,5.546875 7.0625,6.4375 L7.0625,-1.921875 L7.3125,-1.921875 C8.0625,-1.921875 8.5625,-1.515625 8.5625,-1.390625 L8.5625,-0.59375 L22.078125,-0.59375 C22.421875,-0.59375 22.6875,-0.484375 22.734375,-0.21875 C21.90625,0.5 20.6875,1.484375 20.6875,1.484375 L19.5625,0.125 L14.8125,0.125 L14.8125,2.375 L20.6875,2.375 C21.03125,2.375 21.265625,2.46875 21.3125,2.734375 C20.59375,3.40625 19.4375,4.296875 19.4375,4.296875 L18.4375,3.078125 L14.8125,3.078125 L14.8125,5.296875 L20.640625,5.296875 C20.96875,5.296875 21.1875,5.421875 21.265625,5.65625 C20.546875,6.34375 19.421875,7.25 19.421875,7.25 L18.40625,6 L14.8125,6 L14.8125,8.15625 L21.359375,8.15625 C21.671875,8.15625 21.890625,8.28125 21.953125,8.546875 C21.1875,9.265625 19.96875,10.21875 19.96875,10.21875 L18.890625,8.859375 L13.796875,8.859375 C14.296875,9.359375 14.78125,9.9375 15.140625,10.421875 C15.640625,10.390625 15.90625,10.609375 16.015625,10.875 L13.6875,11.5625 C13.5625,10.75 13.3125,9.640625 13.078125,8.859375 L8.953125,8.859375 C9.265625,9.359375 9.578125,9.859375 9.859375,10.390625 C10.390625,10.296875 10.6875,10.484375 10.796875,10.75 L8.640625,11.71875 C7.5625,8.875 5.90625,6.265625 4.296875,4.65625 C4.96875,7.15625 5.140625,9.703125 5.1875,11.875 L19.15625,11.875 L19.15625,10.84375 L19.421875,10.84375 C19.9375,10.84375 20.71875,11.234375 20.734375,11.375 L20.734375,14.921875 C21.140625,15 21.5,15.1875 21.640625,15.359375 L19.796875,16.75 L18.9375,15.859375 L5.1875,15.859375 L5.1875,17.546875 C10.21875,17.5625 15.859375,18.03125 19.734375,18.484375 C20.296875,18.1875 20.78125,18.1875 21.03125,18.390625 Z M8.5625,5.296875 L13.265625,5.296875 L13.265625,3.078125 L8.5625,3.078125 Z M8.5625,2.375 L13.265625,2.375 L13.265625,0.125 L8.5625,0.125 Z M19.15625,15.140625 L19.15625,12.578125 L5.1875,12.578125 L5.1875,13.0625 L5.1875,15.140625 Z" transform="translate(0.25, 20.1875) scale(1, -1)"/>
</svg>