<svg height="21.953125" viewBox="0 0 24 21.953125" width="24" xmlns="http://www.w3.org/2000/svg">
<path d="M5.6875,20.046875 L5.6875,16.9375 L1.078125,16.9375 L1.265625,16.25 L11.59375,16.25 C11.921875,16.25 12.125,16.375 12.1875,16.625 C11.46875,17.328125 10.265625,18.28125 10.265625,18.28125 L9.1875,16.9375 L7.21875,16.9375 L7.21875,19.125 C7.796875,19.21875 8.046875,19.46875 8.09375,19.796875 Z M5.734375,9.578125 L5.734375,7.03125 L1.15625,7.03125 L1.34375,6.3125 L5.109375,6.3125 C4.171875,4.03125 2.6875,1.875 0.796875,0.265625 L1.0625,-0.125 C2.953125,1.03125 4.53125,2.515625 5.734375,4.21875 L5.734375,-1.84375 L6.046875,-1.84375 C6.59375,-1.84375 7.265625,-1.515625 7.265625,-1.296875 L7.265625,4.65625 C8.46875,3.796875 9.890625,2.375 10.34375,1.203125 C12,0.234375 12.859375,3.671875 7.265625,5.0625 L7.265625,6.3125 L11.453125,6.3125 C11.78125,6.3125 12.03125,6.4375 12.078125,6.703125 C11.328125,7.375 10.15625,8.328125 10.15625,8.328125 L9.09375,7.03125 L7.265625,7.03125 L7.265625,8.6875 C7.84375,8.765625 8.0625,8.96875 8.109375,9.3125 Z M3.59375,15.671875 C3.125,13.15625 2.15625,10.828125 0.9375,9.3125 L1.296875,9.078125 C2.40625,9.90625 3.359375,11.140625 4.109375,12.625 C4.609375,12.046875 5.09375,11.296875 5.1875,10.625 C6.359375,9.75 7.46875,12.03125 4.3125,13.109375 C4.5625,13.578125 4.75,14.0625 4.921875,14.59375 C5.421875,14.59375 5.6875,14.8125 5.78125,15.09375 Z M18.171875,19.875 C17.921875,18.5 17.46875,16.65625 17.046875,15.28125 L14.65625,15.28125 L14.25,15.453125 C14.8125,16.53125 15.28125,17.71875 15.703125,18.9375 C16.21875,18.90625 16.484375,19.125 16.609375,19.421875 L14.15625,20.109375 C13.5625,16.921875 12.359375,13.796875 11.015625,11.6875 C10.65625,12.140625 10.015625,12.578125 9.046875,12.90625 C9.3125,13.4375 9.546875,13.984375 9.765625,14.59375 C10.265625,14.59375 10.53125,14.8125 10.625,15.078125 L8.453125,15.671875 C8.046875,13.421875 7.15625,11.328125 6.09375,9.953125 L6.4375,9.703125 C7.3125,10.375 8.109375,11.296875 8.78125,12.4375 C9.4375,11.765625 10.078125,10.828125 10.25,10.03125 C11.09375,9.453125 11.828125,10.296875 11.28125,11.296875 C11.859375,11.859375 12.390625,12.484375 12.890625,13.203125 L12.890625,-1.84375 L13.15625,-1.84375 C13.875,-1.84375 14.375,-1.46875 14.375,-1.3125 L14.375,-0.390625 L22.78125,-0.390625 C23.109375,-0.390625 23.296875,-0.265625 23.375,0 C22.65625,0.71875 21.40625,1.6875 21.40625,1.6875 L20.359375,0.34375 L18.59375,0.34375 L18.59375,4.984375 L21.984375,4.984375 C22.3125,4.984375 22.53125,5.109375 22.609375,5.375 C21.90625,6.046875 20.8125,6.953125 20.8125,6.953125 L19.84375,5.65625 L18.59375,5.65625 L18.59375,9.890625 L21.84375,9.890625 C22.171875,9.890625 22.390625,10.015625 22.46875,10.265625 C21.796875,10.921875 20.71875,11.828125 20.71875,11.828125 L19.75,10.578125 L18.59375,10.578125 L18.59375,14.59375 L22.296875,14.59375 C22.625,14.59375 22.84375,14.71875 22.921875,14.96875 C22.171875,15.671875 20.96875,16.625 20.96875,16.625 L19.921875,15.28125 L17.609375,15.28125 C18.4375,16.390625 19.21875,17.734375 19.734375,18.75 C20.203125,18.71875 20.5,18.9375 20.59375,19.21875 Z M17.140625,14.59375 L17.140625,10.578125 L14.375,10.578125 L14.375,14.59375 Z M17.140625,9.890625 L17.140625,5.65625 L14.375,5.65625 L14.375,9.890625 Z M17.140625,4.984375 L17.140625,0.34375 L14.375,0.34375 L14.375,4.984375 Z" transform="translate(-0.0859375, 20.109375) scale(1, -1)"/>
</svg>