<svg height="21.953125" viewBox="0 0 24 21.953125" width="24" xmlns="http://www.w3.org/2000/svg">
<path d="M17.859375,19.875 C17.609375,18.53125 17.203125,16.703125 16.78125,15.34375 L14.15625,15.34375 L13.984375,15.40625 C14.453125,16.53125 14.859375,17.734375 15.1875,18.953125 C15.71875,18.953125 15.984375,19.203125 16.078125,19.484375 L13.53125,20.109375 C13.109375,17.453125 12.359375,14.78125 11.46875,12.5 L11.15625,12.671875 L11.09375,14.421875 L10.796875,14.421875 C10.609375,13.6875 10.4375,12.890625 10.3125,12.671875 C10.25,12.53125 10.171875,12.53125 10.0625,12.53125 C9.984375,12.5 9.84375,12.5 9.671875,12.5 L9.234375,12.5 C9.046875,12.5 9,12.546875 9,12.796875 L9,16.125 C9.390625,16.171875 9.625,16.296875 9.765625,16.4375 L8.15625,17.875 L7.3125,17.015625 L5.828125,17.015625 C5.90625,17.765625 5.953125,18.5 5.96875,19.25 C6.5,19.3125 6.703125,19.5625 6.75,19.84375 L4.375,20.0625 C4.375,19.03125 4.375,18 4.265625,17.015625 L1.21875,17.015625 L1.4375,16.3125 L4.203125,16.3125 C3.90625,13.984375 3.09375,11.859375 0.703125,10.125 L1.015625,9.765625 C4.390625,11.5 5.40625,13.84375 5.765625,16.3125 L7.53125,16.3125 L7.53125,12.546875 C7.53125,11.6875 7.6875,11.296875 8.8125,11.296875 L9.625,11.296875 C10.25,11.296875 10.703125,11.328125 11.015625,11.421875 C10.703125,10.703125 10.375,10.0625 10.03125,9.453125 L10.390625,9.234375 C11.09375,10.03125 11.734375,10.9375 12.34375,11.96875 L12.34375,-1.84375 L12.59375,-1.84375 C13.375,-1.84375 13.875,-1.4375 13.875,-1.3125 L13.875,-0.359375 L22.703125,-0.359375 C23.015625,-0.359375 23.234375,-0.234375 23.28125,0.03125 C22.53125,0.765625 21.328125,1.734375 21.328125,1.734375 L20.25,0.359375 L18.1875,0.359375 L18.1875,5.015625 L21.90625,5.015625 C22.25,5.015625 22.46875,5.140625 22.515625,5.40625 C21.84375,6.078125 20.71875,7.015625 20.71875,7.015625 L19.734375,5.71875 L18.1875,5.71875 L18.1875,9.9375 L21.75,9.9375 C22.078125,9.9375 22.3125,10.0625 22.375,10.3125 C21.703125,10.96875 20.609375,11.875 20.609375,11.875 L19.65625,10.609375 L18.1875,10.609375 L18.1875,14.640625 L22.203125,14.640625 C22.53125,14.640625 22.78125,14.765625 22.84375,15.03125 C22.078125,15.71875 20.875,16.6875 20.875,16.6875 L19.828125,15.34375 L17.40625,15.34375 C18.21875,16.4375 19.015625,17.765625 19.484375,18.765625 C20.015625,18.75 20.28125,18.984375 20.375,19.265625 Z M5.6875,10.921875 L5.6875,7.5625 L1.15625,7.5625 L1.34375,6.859375 L4.96875,6.859375 C4.0625,4.390625 2.59375,1.984375 0.671875,0.171875 L0.9375,-0.1875 C2.90625,1.125 4.515625,2.734375 5.6875,4.625 L5.6875,-1.84375 L6,-1.84375 C6.546875,-1.84375 7.203125,-1.484375 7.203125,-1.296875 L7.203125,4.9375 C8.25,4.015625 9.4375,2.6875 9.890625,1.6875 C11.515625,0.671875 12.546875,3.9375 7.203125,5.421875 L7.203125,6.859375 L11.203125,6.859375 C11.546875,6.859375 11.78125,6.984375 11.828125,7.25 C11.109375,7.9375 9.90625,8.90625 9.90625,8.90625 L8.875,7.5625 L7.203125,7.5625 L7.203125,10.03125 C7.78125,10.125 7.984375,10.34375 8.046875,10.6875 Z M16.703125,14.640625 L16.703125,10.609375 L13.875,10.609375 L13.875,14.640625 Z M16.703125,9.9375 L16.703125,5.71875 L13.875,5.71875 L13.875,9.9375 Z M16.703125,5.015625 L16.703125,0.359375 L13.875,0.359375 L13.875,5.015625 Z" transform="translate(0.0234375, 20.109375) scale(1, -1)"/>
</svg>