<svg height="21.953125" viewBox="0 0 24 21.953125" width="24" xmlns="http://www.w3.org/2000/svg">
<path d="M0.984375,17.203125 L1.15625,16.515625 L3.71875,16.515625 L3.71875,14.5 L3.953125,14.5 C4.6875,14.5 5.140625,14.734375 5.140625,14.875 L5.140625,16.515625 L7.484375,16.515625 L7.484375,14.546875 L7.75,14.546875 C8.5625,14.546875 8.921875,14.859375 8.921875,14.953125 L8.921875,16.515625 L11.765625,16.515625 C12.078125,16.515625 12.265625,16.625 12.34375,16.890625 C11.765625,17.5 10.734375,18.359375 10.734375,18.359375 L9.890625,17.203125 L8.921875,17.203125 L8.921875,19.171875 C9.40625,19.25 9.640625,19.53125 9.671875,19.828125 L7.484375,20.015625 L7.484375,17.203125 L5.140625,17.203125 L5.140625,19.171875 C5.65625,19.25 5.828125,19.515625 5.859375,19.828125 L3.71875,20.015625 L3.71875,17.203125 Z M1.9375,13.78125 L1.9375,8.296875 L2.140625,8.296875 C2.6875,8.296875 3.3125,8.609375 3.3125,8.734375 L3.3125,9.390625 L5.59375,9.390625 L5.59375,8.25 L5.5625,7.34375 L1.75,7.34375 L1.9375,6.640625 L5.546875,6.640625 C5.5,6 5.40625,5.359375 5.28125,4.703125 L1.0625,4.703125 L1.25,4.03125 L5.109375,4.03125 C4.53125,2.015625 3.34375,0.140625 0.9375,-1.46875 L1.21875,-1.796875 C3.71875,-0.578125 5.15625,0.953125 5.96875,2.65625 C7.375,1.828125 8.90625,0.453125 9.4375,-0.75 C11.1875,-1.609375 11.765625,1.921875 6.171875,3.046875 C6.28125,3.390625 6.40625,3.703125 6.5,4.03125 L11.328125,4.03125 C11.65625,4.03125 11.875,4.125 11.953125,4.390625 C11.25,5.046875 10.171875,5.875 10.171875,5.875 L9.21875,4.703125 L6.671875,4.703125 C6.84375,5.359375 6.90625,6 6.953125,6.640625 L10.875,6.640625 C11.1875,6.640625 11.421875,6.765625 11.5,7.03125 C10.828125,7.65625 9.796875,8.46875 9.796875,8.46875 L8.859375,7.34375 L7.015625,7.34375 L7.03125,8.28125 L7.03125,9.390625 L9.359375,9.390625 L9.359375,8.65625 L9.578125,8.65625 C10.03125,8.65625 10.734375,9 10.734375,9.140625 L10.734375,12.984375 C11.0625,13.0625 11.328125,13.203125 11.453125,13.34375 L9.90625,14.515625 L9.1875,13.78125 L3.4375,13.78125 L1.9375,14.453125 Z M5.59375,10.078125 L3.3125,10.078125 L3.3125,13.078125 L5.59375,13.078125 Z M7.03125,10.078125 L7.03125,13.078125 L9.359375,13.078125 L9.359375,10.078125 Z M17.140625,14.59375 L17.140625,10.578125 L14.375,10.578125 L14.375,14.59375 Z M18.171875,19.875 C17.921875,18.5 17.46875,16.65625 17.046875,15.28125 L14.65625,15.28125 L14.375,15.40625 C14.859375,16.53125 15.28125,17.734375 15.640625,18.953125 C16.171875,18.984375 16.421875,19.203125 16.515625,19.484375 L14.0625,20.109375 C13.515625,16.75 12.40625,13.3125 11.1875,11.015625 L11.5625,10.796875 C12.03125,11.328125 12.484375,11.921875 12.890625,12.59375 L12.890625,-1.84375 L13.15625,-1.84375 C13.875,-1.84375 14.375,-1.46875 14.375,-1.3125 L14.375,-0.390625 L22.78125,-0.390625 C23.109375,-0.390625 23.296875,-0.265625 23.375,0 C22.65625,0.71875 21.40625,1.6875 21.40625,1.6875 L20.359375,0.34375 L18.59375,0.34375 L18.59375,4.984375 L21.984375,4.984375 C22.3125,4.984375 22.53125,5.109375 22.609375,5.375 C21.90625,6.046875 20.8125,6.953125 20.8125,6.953125 L19.84375,5.65625 L18.59375,5.65625 L18.59375,9.890625 L21.84375,9.890625 C22.171875,9.890625 22.390625,10.015625 22.46875,10.265625 C21.796875,10.921875 20.71875,11.828125 20.71875,11.828125 L19.75,10.578125 L18.59375,10.578125 L18.59375,14.59375 L22.296875,14.59375 C22.625,14.59375 22.84375,14.71875 22.921875,14.96875 C22.171875,15.671875 20.96875,16.625 20.96875,16.625 L19.921875,15.28125 L17.609375,15.28125 C18.4375,16.390625 19.21875,17.734375 19.734375,18.75 C20.203125,18.71875 20.5,18.9375 20.59375,19.21875 Z M17.140625,9.890625 L17.140625,5.65625 L14.375,5.65625 L14.375,9.890625 Z M17.140625,4.984375 L17.140625,0.34375 L14.375,0.34375 L14.375,4.984375 Z" transform="translate(-0.15625, 20.109375) scale(1, -1)"/>
</svg>