<svg height="21.90625" viewBox="0 0 24 21.90625" width="24" xmlns="http://www.w3.org/2000/svg">
<path d="M4.703125,12.84375 L4.890625,12.125 L9.546875,12.125 C9.859375,12.125 10.078125,12.234375 10.15625,12.5 C9.53125,13.078125 8.609375,13.75 8.609375,13.75 L7.78125,12.84375 Z M3.90625,10.109375 L4.078125,9.390625 L9.640625,9.390625 C9.953125,9.390625 10.171875,9.5 10.25,9.765625 C9.625,10.375 8.640625,11.0625 8.640625,11.0625 L7.828125,10.109375 Z M13.734375,12.84375 L13.921875,12.125 L18.640625,12.125 C18.953125,12.125 19.203125,12.234375 19.265625,12.5 C18.625,13.078125 17.65625,13.78125 17.65625,13.78125 L16.828125,12.84375 Z M13.734375,10.109375 L13.921875,9.390625 L19.4375,9.390625 C19.78125,9.390625 19.984375,9.5 20.0625,9.765625 C19.390625,10.375 18.359375,11.09375 18.359375,11.09375 L17.5,10.109375 Z M1.296875,3.640625 L1.484375,2.953125 L17.375,2.953125 L17.375,0.125 L4.015625,0.125 L4.203125,-0.59375 L17.375,-0.59375 L17.375,-1.921875 L17.609375,-1.921875 C18.171875,-1.921875 18.9375,-1.515625 18.953125,-1.34375 L18.953125,2.953125 L22.171875,2.953125 C22.515625,2.953125 22.75,3.078125 22.828125,3.34375 C22.03125,4.0625 20.8125,4.96875 20.8125,4.96875 L19.734375,3.640625 L18.953125,3.640625 L18.953125,5.96875 C19.4375,6.078125 19.828125,6.28125 19.96875,6.484375 L18.046875,7.9375 L17.140625,6.984375 L4.25,6.984375 L4.46875,6.28125 L17.375,6.28125 L17.375,3.640625 Z M3.484375,18.625 L3.671875,17.953125 L11.15625,17.953125 L11.15625,15.703125 L3.90625,15.703125 C3.84375,16.03125 3.75,16.390625 3.625,16.78125 L3.1875,16.75 C3.359375,15.234375 2.640625,13.84375 1.734375,13.34375 C1.25,13.0625 0.90625,12.578125 1.125,12.078125 C1.390625,11.546875 2.203125,11.5625 2.78125,11.921875 C3.484375,12.390625 4.078125,13.4375 3.984375,15.03125 L11.15625,15.03125 L11.15625,8.1875 L11.40625,8.1875 C12.1875,8.1875 12.703125,8.546875 12.703125,8.65625 L12.703125,15.03125 L20.328125,15.03125 C20.09375,14.140625 19.734375,12.953125 19.4375,12.21875 L19.75,12.078125 C20.59375,12.75 21.625,13.890625 22.203125,14.71875 C22.65625,14.734375 22.9375,14.78125 23.109375,14.96875 L21.265625,16.78125 L20.234375,15.703125 L12.703125,15.703125 L12.703125,17.953125 L20.140625,17.953125 C20.453125,17.953125 20.71875,18.078125 20.78125,18.34375 C19.9375,19.03125 18.671875,19.984375 18.671875,19.984375 L17.546875,18.625 Z" transform="translate(-0.0078125, 19.984375) scale(1, -1)"/>
</svg>