<svg height="21.3125" viewBox="0 0 24 21.3125" width="24" xmlns="http://www.w3.org/2000/svg">
<path d="M5.6875,11.40625 L5.46875,11.15625 C6.625,10.421875 8.0625,9.046875 8.46875,7.921875 C10.0625,6.953125 10.9375,10.203125 5.6875,11.40625 Z M5.546875,6.4375 L5.296875,6.21875 C6.484375,5.375 7.921875,3.890625 8.328125,2.640625 C9.9375,1.609375 10.9375,4.984375 5.546875,6.4375 Z M13.921875,11.40625 L13.703125,11.1875 C14.921875,10.390625 16.484375,9 17.015625,7.84375 C18.625,6.953125 19.4375,10.203125 13.921875,11.40625 Z M13.9375,6.5 L13.703125,6.28125 C14.921875,5.453125 16.421875,3.890625 16.796875,2.640625 C18.4375,1.578125 19.46875,4.9375 13.9375,6.5 Z M2.640625,13.84375 L2.640625,-1.84375 L2.90625,-1.84375 C3.59375,-1.84375 4.203125,-1.4375 4.203125,-1.25 L4.203125,13.15625 L11.140625,13.15625 L11.140625,-1.5625 L11.375,-1.5625 C12.171875,-1.5625 12.703125,-1.15625 12.703125,-1.03125 L12.703125,13.15625 L19.6875,13.15625 L19.6875,0.59375 C19.6875,0.21875 19.5625,0.078125 19.15625,0.078125 C18.59375,0.078125 16.15625,0.265625 16.15625,0.265625 L16.15625,-0.125 C17.234375,-0.234375 17.859375,-0.453125 18.21875,-0.71875 C18.546875,-0.953125 18.671875,-1.375 18.75,-1.84375 C21,-1.625 21.265625,-0.84375 21.265625,0.40625 L21.265625,12.84375 C21.75,12.9375 22.15625,13.15625 22.3125,13.3125 L20.28125,14.859375 L19.46875,13.84375 L12.703125,13.84375 L12.703125,17.28125 L22.375,17.28125 C22.703125,17.28125 22.9375,17.40625 22.984375,17.65625 C22.15625,18.453125 20.765625,19.46875 20.765625,19.46875 L19.5625,18 L1.015625,18 L1.21875,17.28125 L11.140625,17.28125 L11.140625,13.84375 L4.375,13.84375 L2.640625,14.65625 Z" transform="translate(0, 19.46875) scale(1, -1)"/>
</svg>