<svg height="21.828125" viewBox="0 0 24 21.828125" width="24" xmlns="http://www.w3.org/2000/svg">
<path d="M14.859375,9.546875 L14.453125,9.3125 C15.890625,6.84375 18.8125,4.796875 21.71875,3.625 C21.90625,4.34375 22.34375,4.796875 22.96875,4.921875 L22.984375,5.1875 C19.984375,5.90625 16.390625,7.515625 14.859375,9.546875 Z M4.484375,13.375 L4.6875,12.640625 L9.671875,12.640625 C10.015625,12.640625 10.203125,12.765625 10.265625,13.03125 C9.671875,13.609375 8.765625,14.25 8.765625,14.25 L7.96875,13.375 Z M4.03125,10.78125 L4.21875,10.078125 L9.796875,10.078125 C10.109375,10.078125 10.3125,10.203125 10.390625,10.46875 C9.765625,11.046875 8.828125,11.71875 8.828125,11.71875 L7.984375,10.78125 Z M13.625,13.375 L13.828125,12.640625 L18.9375,12.640625 C19.265625,12.640625 19.484375,12.765625 19.53125,13.03125 C18.9375,13.609375 18,14.28125 18,14.28125 L17.15625,13.375 Z M13.609375,10.78125 L13.796875,10.078125 L19.5625,10.078125 C19.890625,10.078125 20.109375,10.203125 20.15625,10.46875 C19.53125,11.0625 18.53125,11.765625 18.53125,11.765625 L17.65625,10.78125 Z M8.140625,9.796875 C6.84375,7.53125 3.984375,5.109375 0.890625,3.8125 L1.0625,3.4375 C2.59375,3.84375 4.0625,4.46875 5.359375,5.203125 L5.453125,4.875 L9.625,4.875 C8.765625,1.609375 6.4375,-0.21875 1.921875,-1.484375 L2.046875,-1.84375 C7.3125,-0.890625 10.3125,0.953125 11.453125,4.875 L16.15625,4.875 C15.90625,2.328125 15.5,0.640625 15,0.234375 C14.828125,0.09375 14.609375,0.046875 14.203125,0.046875 C13.734375,0.046875 12.09375,0.1875 11.1875,0.265625 L11.15625,-0.171875 C12,-0.28125 12.90625,-0.484375 13.21875,-0.71875 C13.5625,-0.953125 13.625,-1.390625 13.625,-1.828125 C14.5625,-1.828125 15.390625,-1.609375 15.953125,-1.15625 C16.890625,-0.484375 17.453125,1.5625 17.6875,4.703125 C18.171875,4.75 18.453125,4.875 18.59375,5.046875 L16.828125,6.5 L15.953125,5.59375 L5.96875,5.59375 C7.390625,6.484375 8.5625,7.515625 9.359375,8.515625 C9.90625,8.421875 10.125,8.515625 10.25,8.765625 Z M3.390625,18.640625 L3.578125,17.96875 L11.140625,17.96875 L11.140625,15.9375 L3.90625,15.9375 C3.859375,16.25 3.796875,16.578125 3.671875,16.9375 L3.234375,16.9375 C3.390625,15.53125 2.609375,14.25 1.703125,13.828125 C1.203125,13.53125 0.890625,13.0625 1.078125,12.546875 C1.3125,11.96875 2.1875,12 2.765625,12.390625 C3.4375,12.8125 4.03125,13.78125 3.984375,15.265625 L11.140625,15.265625 L11.140625,9.234375 L11.375,9.234375 C12.171875,9.234375 12.703125,9.578125 12.703125,9.703125 L12.703125,15.265625 L20.46875,15.265625 C20.234375,14.453125 19.875,13.421875 19.609375,12.75 L19.921875,12.578125 C20.71875,13.203125 21.671875,14.234375 22.203125,14.96875 C22.6875,15 22.9375,15.078125 23.140625,15.21875 L21.359375,16.9375 L20.40625,15.9375 L12.703125,15.9375 L12.703125,17.96875 L20.5,17.96875 C20.828125,17.96875 21.078125,18.09375 21.140625,18.359375 C20.328125,19.0625 19.0625,19.984375 19.0625,19.984375 L17.953125,18.640625 Z" transform="translate(-0.015625, 19.984375) scale(1, -1)"/>
</svg>