<svg height="21.9375" viewBox="0 0 24 21.9375" width="24" xmlns="http://www.w3.org/2000/svg">
<path d="M4.125,14.328125 L4.3125,13.609375 L9.140625,13.609375 C9.453125,13.609375 9.671875,13.734375 9.71875,13.984375 C9.140625,14.5625 8.28125,15.21875 8.28125,15.21875 L7.484375,14.328125 Z M3.796875,12.34375 L3.984375,11.640625 L9.34375,11.640625 C9.640625,11.640625 9.859375,11.765625 9.9375,12.03125 C9.3125,12.578125 8.453125,13.21875 8.453125,13.21875 L7.65625,12.34375 Z M14.015625,14.328125 L14.203125,13.609375 L19.25,13.609375 C19.5625,13.609375 19.78125,13.734375 19.828125,13.984375 C19.21875,14.5625 18.3125,15.21875 18.3125,15.21875 L17.515625,14.328125 Z M13.9375,12.34375 L14.140625,11.640625 L19.78125,11.640625 C20.09375,11.640625 20.328125,11.765625 20.375,12.03125 C19.75,12.578125 18.8125,13.265625 18.8125,13.265625 L18,12.34375 Z M11.15625,1.609375 L11.15625,0 L5.96875,0 L5.96875,1.609375 Z M11.15625,2.328125 L5.96875,2.328125 L5.96875,3.90625 L11.15625,3.90625 Z M12.671875,1.609375 L18.03125,1.609375 L18.03125,0 L12.671875,0 Z M12.671875,2.328125 L12.671875,3.90625 L18.03125,3.90625 L18.03125,2.328125 Z M9.046875,9.5 L9.046875,7.9375 L9.03125,7.625 L5.046875,7.21875 L5.046875,9.359375 C6.796875,9.546875 8.78125,9.890625 10.0625,10.171875 C10.515625,9.984375 10.921875,9.9375 11.109375,10.125 L9.703125,11.5 C8.6875,11.046875 6.953125,10.4375 5.375,10.015625 L3.59375,10.6875 L3.59375,7.078125 L1.125,6.90625 L2.0625,5.1875 C2.28125,5.234375 2.46875,5.40625 2.5625,5.65625 C5.328125,6.265625 7.421875,6.765625 8.953125,7.125 C8.765625,6.3125 8.1875,5.46875 6.765625,4.84375 L6.984375,4.578125 L6.09375,4.578125 L4.4375,5.359375 L4.4375,-1.875 L4.65625,-1.875 C5.296875,-1.875 5.96875,-1.53125 5.96875,-1.390625 L5.96875,-0.703125 L18.03125,-0.703125 L18.03125,-1.625 L18.234375,-1.625 C18.765625,-1.625 19.53125,-1.265625 19.5625,-1.125 L19.5625,3.671875 C19.984375,3.75 20.328125,3.9375 20.46875,4.109375 L18.625,5.5 L17.8125,4.578125 L7.203125,4.578125 C9.9375,5.421875 10.515625,6.796875 10.53125,7.890625 L10.53125,8.71875 C11.09375,8.78125 11.25,8.96875 11.296875,9.265625 Z M13.15625,10.171875 L13.15625,4.84375 L13.390625,4.84375 C13.96875,4.84375 14.640625,5.203125 14.640625,5.328125 L14.640625,9.453125 L19.3125,9.453125 L19.3125,7.703125 C19.3125,7.390625 19.21875,7.296875 18.84375,7.296875 C18.359375,7.296875 16.46875,7.421875 16.46875,7.421875 L16.46875,7.03125 C17.359375,6.9375 17.828125,6.75 18.171875,6.546875 C18.40625,6.34375 18.5,5.96875 18.578125,5.5625 C20.515625,5.765625 20.78125,6.453125 20.78125,7.5625 L20.78125,9.171875 C21.265625,9.234375 21.671875,9.453125 21.8125,9.640625 L19.828125,11.09375 L19.078125,10.171875 L14.765625,10.171875 L13.15625,10.875 Z M3.1875,18.75 L3.40625,18.078125 L11.15625,18.078125 L11.15625,16.484375 L3.59375,16.484375 C3.546875,16.75 3.484375,17.046875 3.359375,17.328125 L2.921875,17.296875 C3.078125,16.296875 2.5625,15.3125 1.828125,14.953125 C1.34375,14.71875 1.015625,14.28125 1.171875,13.75 C1.390625,13.25 2.140625,13.203125 2.65625,13.484375 C3.265625,13.828125 3.75,14.609375 3.703125,15.796875 L11.15625,15.796875 L11.15625,10.515625 L11.40625,10.515625 C12.171875,10.515625 12.703125,10.875 12.703125,10.984375 L12.703125,15.796875 L20.6875,15.796875 C20.515625,15.125 20.296875,14.359375 20.140625,13.828125 L20.5,13.65625 C21.09375,14.140625 21.859375,14.953125 22.3125,15.546875 C22.75,15.578125 23.046875,15.59375 23.1875,15.796875 L21.484375,17.453125 L20.5625,16.484375 L12.703125,16.484375 L12.703125,18.078125 L20.28125,18.078125 C20.609375,18.078125 20.859375,18.1875 20.90625,18.4375 C20.109375,19.125 18.890625,20.0625 18.890625,20.0625 L17.78125,18.75 Z" transform="translate(-0.1015625, 20.0625) scale(1, -1)"/>
</svg>