<svg height="21.3125" viewBox="0 0 24 21.3125" width="24" xmlns="http://www.w3.org/2000/svg">
<path d="M4.484375,14.46875 L4.6875,13.78125 L9.390625,13.78125 C9.71875,13.78125 9.9375,13.890625 10.015625,14.15625 C9.390625,14.71875 8.515625,15.34375 8.515625,15.34375 L7.75,14.46875 Z M4.078125,12.53125 L4.265625,11.828125 L9.5,11.828125 C9.84375,11.828125 10.0625,11.953125 10.125,12.21875 C9.53125,12.765625 8.609375,13.421875 8.609375,13.421875 L7.84375,12.53125 Z M13.9375,14.46875 L14.140625,13.78125 L19.0625,13.78125 C19.375,13.78125 19.609375,13.890625 19.65625,14.15625 C19.0625,14.71875 18.171875,15.359375 18.171875,15.359375 L17.359375,14.46875 Z M13.890625,12.53125 L14.09375,11.828125 L19.65625,11.828125 C19.9375,11.828125 20.15625,11.953125 20.203125,12.21875 C19.625,12.765625 18.671875,13.46875 18.671875,13.46875 L17.859375,12.53125 Z M15.890625,10.53125 L15.890625,6.171875 L16.078125,6.171875 C16.625,6.171875 17.234375,6.484375 17.234375,6.625 L17.234375,7.265625 L19.5625,7.265625 L19.5625,6.34375 L19.609375,6.34375 L18.953125,5.609375 L2.375,5.609375 L2.5625,4.921875 L11.15625,4.921875 L11.15625,-0.59375 L1.15625,-0.59375 L1.375,-1.296875 L22.3125,-1.296875 C22.65625,-1.296875 22.875,-1.171875 22.9375,-0.90625 C22.171875,-0.21875 21,0.71875 21,0.71875 L19.921875,-0.59375 L12.671875,-0.59375 L12.671875,4.921875 L21.21875,4.921875 C21.53125,4.921875 21.765625,5.046875 21.84375,5.296875 C21.359375,5.71875 20.71875,6.171875 20.296875,6.453125 C20.609375,6.578125 20.875,6.71875 20.90625,6.8125 L20.90625,9.703125 C21.28125,9.765625 21.59375,9.9375 21.71875,10.078125 L20.09375,11.296875 L19.375,10.53125 L17.328125,10.53125 L15.890625,11.203125 Z M6.640625,4.875 C6.03125,2.6875 4.828125,0.9375 3.453125,-0.078125 L3.765625,-0.40625 C4.984375,0.171875 6.09375,1.078125 6.953125,2.359375 C7.734375,1.734375 8.5,0.8125 8.734375,0.046875 C10.03125,-0.796875 10.96875,1.734375 7.25,2.765625 C7.421875,3.078125 7.578125,3.390625 7.75,3.71875 C8.25,3.671875 8.546875,3.859375 8.65625,4.109375 Z M3.046875,10.53125 L3.046875,6.078125 L3.234375,6.078125 C3.796875,6.078125 4.375,6.359375 4.375,6.484375 L4.375,7.265625 L6.578125,7.265625 L6.578125,6.40625 L6.765625,6.40625 C7.21875,6.40625 7.890625,6.71875 7.921875,6.859375 L7.921875,9.71875 C8.25,9.765625 8.59375,9.953125 8.6875,10.109375 L7.125,11.296875 L6.390625,10.53125 L4.46875,10.53125 L3.046875,11.1875 Z M6.578125,7.96875 L4.375,7.96875 L4.375,9.84375 L6.578125,9.84375 Z M9.40625,10.53125 L9.40625,6.171875 L9.59375,6.171875 C10.15625,6.171875 10.734375,6.484375 10.734375,6.59375 L10.734375,7.265625 L13.03125,7.265625 L13.03125,6.40625 L13.21875,6.40625 C13.65625,6.40625 14.359375,6.75 14.375,6.890625 L14.375,9.71875 C14.71875,9.765625 15.046875,9.953125 15.140625,10.109375 L13.5625,11.296875 L12.84375,10.53125 L10.828125,10.53125 L9.40625,11.1875 Z M13.03125,7.96875 L10.734375,7.96875 L10.734375,9.84375 L13.03125,9.84375 Z M19.5625,7.96875 L17.234375,7.96875 L17.234375,9.84375 L19.5625,9.84375 Z M16.46875,4.875 C15.890625,2.765625 14.765625,1.0625 13.46875,0.03125 L13.78125,-0.28125 C14.953125,0.28125 16.015625,1.15625 16.828125,2.359375 C17.640625,1.734375 18.4375,0.84375 18.703125,0.078125 C20.046875,-0.765625 20.953125,1.78125 17.109375,2.765625 C17.28125,3.078125 17.46875,3.40625 17.609375,3.75 C18.125,3.671875 18.40625,3.890625 18.484375,4.125 Z M3.21875,18.71875 L3.4375,18.03125 L11.15625,18.03125 L11.15625,16.515625 L3.578125,16.515625 C3.53125,16.75 3.453125,17.015625 3.359375,17.296875 L2.921875,17.28125 C3.078125,16.15625 2.5,15.078125 1.6875,14.6875 C1.203125,14.453125 0.859375,14.015625 1.0625,13.515625 C1.265625,12.984375 2.046875,12.953125 2.59375,13.296875 C3.21875,13.625 3.75,14.5 3.671875,15.796875 L11.15625,15.796875 L11.15625,11.46875 L11.40625,11.46875 C12.171875,11.46875 12.703125,11.828125 12.703125,11.921875 L12.703125,15.796875 L20.65625,15.796875 C20.46875,15.125 20.234375,14.296875 20.015625,13.78125 L20.359375,13.578125 C21.03125,14.09375 21.84375,14.953125 22.3125,15.578125 C22.78125,15.59375 23.0625,15.625 23.203125,15.796875 L21.5,17.453125 L20.59375,16.515625 L12.703125,16.515625 L12.703125,18.03125 L20.28125,18.03125 C20.609375,18.03125 20.875,18.140625 20.921875,18.390625 C20.140625,19.109375 18.890625,20.015625 18.890625,20.015625 L17.8125,18.71875 Z" transform="translate(-0.03125, 20.015625) scale(1, -1)"/>
</svg>