<svg height="21.984375" viewBox="0 0 24 21.984375" width="24" xmlns="http://www.w3.org/2000/svg">
<path d="M7.375,6.03125 L16.890625,6.03125 L16.890625,3.578125 L7.375,3.578125 Z M7.375,6.71875 L7.375,9.125 L16.890625,9.125 L16.890625,6.71875 Z M5.8125,9.8125 L5.8125,-1.84375 L6.078125,-1.84375 C6.71875,-1.84375 7.375,-1.46875 7.375,-1.296875 L7.375,2.875 L16.890625,2.875 L16.890625,0.5 C16.890625,0.125 16.78125,-0.03125 16.34375,-0.03125 C15.765625,-0.03125 13.203125,0.171875 13.203125,0.171875 L13.203125,-0.1875 C14.359375,-0.34375 14.953125,-0.53125 15.359375,-0.765625 C15.703125,-1.015625 15.84375,-1.421875 15.90625,-1.875 C18.1875,-1.65625 18.453125,-0.859375 18.453125,0.34375 L18.453125,8.8125 C18.953125,8.875 19.34375,9.09375 19.484375,9.265625 L17.46875,10.78125 L16.65625,9.8125 L7.515625,9.8125 L5.8125,10.578125 Z M3.8125,15.265625 L3.984375,14.5625 L11.1875,14.5625 L11.1875,12.4375 L1.375,12.4375 L1.578125,11.734375 L22.21875,11.734375 C22.578125,11.734375 22.828125,11.859375 22.875,12.09375 C22.078125,12.84375 20.8125,13.828125 20.8125,13.828125 L19.6875,12.4375 L12.75,12.4375 L12.75,14.5625 L19.84375,14.5625 C20.15625,14.5625 20.40625,14.6875 20.46875,14.953125 C19.703125,15.640625 18.484375,16.609375 18.484375,16.609375 L17.40625,15.265625 L12.75,15.265625 L12.75,17.296875 L21.09375,17.296875 C21.4375,17.296875 21.640625,17.421875 21.703125,17.6875 C20.921875,18.390625 19.65625,19.390625 19.65625,19.390625 L18.53125,18 L12.75,18 L12.75,19.21875 C13.34375,19.296875 13.578125,19.53125 13.625,19.875 L11.1875,20.109375 L11.1875,18 L2.6875,18 L2.90625,17.296875 L11.1875,17.296875 L11.1875,15.265625 Z" transform="translate(-0.125, 20.109375) scale(1, -1)"/>
</svg>