<svg height="21.96875" viewBox="0 0 24 21.96875" width="24" xmlns="http://www.w3.org/2000/svg">
<path d="M5.40625,9.625 L5.40625,-1.796875 L5.640625,-1.796875 C6.3125,-1.796875 6.953125,-1.390625 6.953125,-1.25 L6.953125,4.46875 L17.140625,4.46875 L17.140625,0.578125 C17.140625,0.21875 17.046875,0.078125 16.578125,0.078125 C16.03125,0.078125 13.5625,0.234375 13.5625,0.265625 L13.5625,-0.125 C14.65625,-0.265625 15.265625,-0.453125 15.640625,-0.703125 C15.984375,-0.9375 16.109375,-1.34375 16.171875,-1.828125 C18.4375,-1.609375 18.71875,-0.8125 18.71875,0.40625 L18.71875,8.640625 C19.203125,8.71875 19.609375,8.90625 19.75,9.078125 L17.71875,10.578125 L16.890625,9.625 L7.109375,9.625 L5.40625,10.421875 Z M6.953125,5.15625 L6.953125,8.921875 L11.1875,8.921875 L11.1875,5.15625 Z M17.140625,8.921875 L17.140625,5.15625 L12.703125,5.15625 L12.703125,8.921875 Z M3.53125,15.125 L3.71875,14.421875 L11.15625,14.421875 L11.15625,12.265625 L1.265625,12.265625 L1.484375,11.5625 L22.078125,11.5625 C22.421875,11.5625 22.65625,11.6875 22.734375,11.953125 C21.90625,12.671875 20.640625,13.65625 20.640625,13.65625 L19.515625,12.265625 L12.71875,12.265625 L12.71875,14.421875 L20.109375,14.421875 C20.453125,14.421875 20.65625,14.546875 20.734375,14.8125 C19.96875,15.484375 18.75,16.4375 18.75,16.4375 L17.6875,15.125 L12.71875,15.125 L12.71875,17.140625 L20.921875,17.140625 C21.265625,17.140625 21.5,17.25 21.578125,17.515625 C20.765625,18.234375 19.515625,19.21875 19.515625,19.21875 L18.390625,17.828125 L12.71875,17.828125 L12.71875,19.21875 C13.3125,19.3125 13.5625,19.5625 13.609375,19.890625 L11.15625,20.140625 L11.15625,17.828125 L2.6875,17.828125 L2.90625,17.140625 L11.15625,17.140625 L11.15625,15.125 Z" transform="translate(0, 20.140625) scale(1, -1)"/>
</svg>