<svg height="21.953125" viewBox="0 0 24 21.953125" width="24" xmlns="http://www.w3.org/2000/svg">
<path d="M5.40625,19.984375 L5.40625,17.515625 L1.421875,17.515625 L1.609375,16.796875 L5.40625,16.796875 L5.40625,14.921875 L1.84375,14.921875 L2.046875,14.234375 L5.40625,14.234375 L5.40625,12.046875 L1.015625,12.046875 L1.203125,11.375 L11.359375,11.375 C11.71875,11.375 11.921875,11.5 12,11.765625 C11.25,12.453125 10.0625,13.390625 10.0625,13.390625 L9.03125,12.046875 L6.953125,12.046875 L6.953125,14.234375 L10.609375,14.234375 C10.9375,14.234375 11.15625,14.359375 11.234375,14.609375 C10.53125,15.265625 9.4375,16.125 9.4375,16.125 L8.5,14.921875 L6.953125,14.921875 L6.953125,16.796875 L10.96875,16.796875 C11.296875,16.796875 11.515625,16.921875 11.59375,17.1875 C10.84375,17.875 9.703125,18.796875 9.703125,18.796875 L8.6875,17.515625 L6.953125,17.515625 L6.953125,19.15625 C7.484375,19.25 7.6875,19.4375 7.734375,19.78125 Z M19.703125,13.390625 L19.625,13.375 L16.78125,13.375 C17.921875,14.296875 19.15625,15.703125 19.96875,16.578125 C20.421875,16.625 20.71875,16.6875 20.90625,16.828125 L19.125,18.484375 L18.125,17.46875 L15.234375,17.46875 C15.625,18.046875 15.953125,18.625 16.25,19.171875 C16.84375,19.109375 17.046875,19.21875 17.109375,19.46875 L14.71875,20.109375 C13.96875,17.828125 12.453125,15.03125 10.890625,13.375 L11.203125,13.125 C12.53125,14.0625 13.78125,15.390625 14.765625,16.78125 L18.09375,16.78125 C17.59375,15.75 16.84375,14.328125 16.15625,13.375 L11.90625,13.375 L12.09375,12.671875 L15.28125,12.671875 L15.28125,9.453125 L10.84375,9.453125 L10.9375,9.09375 L9.078125,10.484375 L8.296875,9.546875 L4.203125,9.546875 L2.5625,10.296875 L2.5625,-1.84375 L2.828125,-1.84375 C3.453125,-1.84375 4.078125,-1.46875 4.078125,-1.296875 L4.078125,3.3125 L8.546875,3.3125 L8.546875,0.53125 C8.546875,0.1875 8.453125,0.078125 8.0625,0.078125 C7.625,0.078125 5.71875,0.21875 5.71875,0.21875 L5.71875,-0.171875 C6.59375,-0.28125 7.109375,-0.484375 7.390625,-0.71875 C7.625,-0.9375 7.75,-1.375 7.796875,-1.828125 C9.8125,-1.625 10.03125,-0.859375 10.03125,0.3125 L10.03125,8.5625 C10.46875,8.65625 10.828125,8.8125 10.96875,8.96875 L11.046875,8.765625 L15.28125,8.765625 L15.28125,5.453125 L11.5625,5.453125 L11.78125,4.734375 L15.28125,4.734375 L15.28125,0.578125 C15.28125,0.234375 15.171875,0.125 14.78125,0.125 C14.328125,0.125 12.140625,0.265625 12.140625,0.265625 L12.140625,-0.09375 C13.15625,-0.234375 13.703125,-0.4375 14.015625,-0.671875 C14.296875,-0.90625 14.421875,-1.375 14.46875,-1.828125 C16.515625,-1.578125 16.796875,-0.703125 16.796875,0.53125 L16.796875,4.734375 L19.625,4.734375 L19.625,3.453125 L19.921875,3.453125 C20.5,3.453125 21.078125,3.8125 21.125,3.90625 L21.125,8.765625 L22.890625,8.765625 C23.1875,8.765625 23.40625,8.859375 23.46875,9.125 C22.984375,9.75 22.109375,10.609375 22.109375,10.609375 L21.359375,9.453125 L21.125,9.453125 L21.125,12.4375 C21.5,12.5 21.8125,12.671875 22.015625,12.84375 L20.5,14.234375 Z M16.796875,8.765625 L19.625,8.765625 L19.625,5.453125 L16.796875,5.453125 Z M16.796875,9.453125 L16.796875,12.671875 L19.625,12.671875 L19.625,9.453125 Z M8.546875,8.859375 L8.546875,6.84375 L4.078125,6.84375 L4.078125,8.859375 Z M4.078125,6.140625 L8.546875,6.140625 L8.546875,4.015625 L4.078125,4.015625 Z" transform="translate(-0.2421875, 20.109375) scale(1, -1)"/>
</svg>