<svg height="21.9375" viewBox="0 0 24 21.9375" width="24" xmlns="http://www.w3.org/2000/svg">
<path d="M2.546875,13.609375 L2.15625,13.484375 C3.125,11.0625 3.265625,7.46875 3.21875,5.71875 C4.171875,4.0625 6.21875,8.046875 2.546875,13.609375 Z M15.046875,20.109375 L15.046875,17.765625 L9.71875,17.765625 L9.90625,17.046875 L15.046875,17.046875 L15.046875,15.03125 L10.3125,15.03125 L10.484375,14.328125 L15.046875,14.328125 L15.046875,12.046875 L9.234375,12.046875 L9.4375,11.359375 L22.53125,11.359375 C22.875,11.359375 23.109375,11.46875 23.15625,11.734375 C22.4375,12.4375 21.265625,13.375 21.265625,13.375 L20.203125,12.046875 L16.625,12.046875 L16.625,14.328125 L21.953125,14.328125 C22.296875,14.328125 22.515625,14.453125 22.578125,14.71875 C21.859375,15.390625 20.71875,16.34375 20.71875,16.34375 L19.6875,15.03125 L16.625,15.03125 L16.625,17.046875 L22.203125,17.046875 C22.53125,17.046875 22.75,17.15625 22.828125,17.421875 C22.078125,18.125 20.90625,19.0625 20.90625,19.0625 L19.875,17.765625 L16.625,17.765625 L16.625,19.171875 C17.203125,19.296875 17.453125,19.53125 17.5,19.875 Z M19.515625,6 L19.515625,3.765625 L12.453125,3.765625 L12.453125,6 Z M19.515625,6.71875 L12.453125,6.71875 L12.453125,8.8125 L19.515625,8.8125 Z M10.96875,9.5 L10.96875,-1.828125 L11.234375,-1.828125 C11.859375,-1.828125 12.453125,-1.4375 12.453125,-1.265625 L12.453125,3.046875 L19.515625,3.046875 L19.515625,0.59375 C19.515625,0.234375 19.390625,0.09375 18.953125,0.09375 C18.484375,0.09375 16.203125,0.28125 16.203125,0.28125 L16.203125,-0.09375 C17.203125,-0.234375 17.78125,-0.40625 18.140625,-0.671875 C18.4375,-0.9375 18.546875,-1.34375 18.59375,-1.828125 C20.78125,-1.609375 21.03125,-0.8125 21.03125,0.390625 L21.03125,8.46875 C21.53125,8.59375 21.90625,8.78125 22.078125,8.953125 L20.046875,10.46875 L19.265625,9.5 L12.578125,9.5 L10.96875,10.25 Z M4.484375,19.875 L4.484375,15.34375 L0.953125,15.34375 L1.15625,14.640625 L9.4375,14.640625 C9.765625,14.640625 10.015625,14.765625 10.078125,15.03125 C9.3125,15.75 8.109375,16.734375 8.109375,16.734375 L7.03125,15.34375 L6,15.34375 L6,19.03125 C6.53125,19.125 6.75,19.34375 6.796875,19.65625 Z M6.75,13.796875 C6.484375,11.015625 6,7.21875 5.546875,4.296875 C3.546875,3.625 1.84375,3.09375 0.8125,2.828125 L1.984375,0.796875 C2.234375,0.90625 2.40625,1.125 2.46875,1.421875 C5.90625,3.046875 8.46875,4.515625 10.375,5.65625 L10.25,6 C8.875,5.46875 7.484375,4.96875 6.171875,4.515625 C7.03125,7.21875 7.828125,10.421875 8.28125,12.703125 C8.828125,12.71875 9.09375,12.953125 9.171875,13.265625 Z" transform="translate(0.015625, 20.109375) scale(1, -1)"/>
</svg>