<svg height="22.078125" viewBox="0 0 24 22.078125" width="24" xmlns="http://www.w3.org/2000/svg">
<path d="M4.484375,13.15625 L4.484375,8.65625 L4.703125,8.65625 C5.328125,8.65625 6.046875,9 6.046875,9.125 L6.046875,9.765625 L17.921875,9.765625 L17.921875,8.921875 L18.171875,8.921875 C18.671875,8.921875 19.46875,9.234375 19.484375,9.359375 L19.484375,12.171875 C19.9375,12.265625 20.328125,12.453125 20.5,12.640625 L18.546875,14.09375 L17.71875,13.15625 L6.171875,13.15625 L4.484375,13.890625 Z M6.046875,10.46875 L6.046875,12.453125 L17.921875,12.453125 L17.921875,10.46875 Z M6,19.796875 C5.5,18.4375 4.515625,16.734375 3.53125,15.71875 L3.8125,15.484375 C4.578125,15.890625 5.328125,16.484375 6,17.109375 L11.1875,17.109375 L11.1875,15.390625 L1.4375,15.390625 L1.65625,14.71875 L11.1875,14.71875 L11.1875,13.65625 L11.46875,13.65625 C12.046875,13.65625 12.71875,13.96875 12.71875,14.140625 L12.71875,14.71875 L21.984375,14.71875 C22.3125,14.71875 22.5625,14.828125 22.625,15.09375 C21.84375,15.796875 20.59375,16.75 20.59375,16.75 L19.515625,15.390625 L12.71875,15.390625 L12.71875,17.109375 L19.96875,17.109375 C20.28125,17.109375 20.515625,17.234375 20.59375,17.5 C19.796875,18.265625 18.546875,19.171875 18.546875,19.171875 L17.46875,17.828125 L12.71875,17.828125 L12.71875,19.265625 C13.34375,19.375 13.5625,19.578125 13.625,19.9375 L11.1875,20.15625 L11.1875,17.828125 L6.703125,17.828125 C7.015625,18.1875 7.296875,18.546875 7.53125,18.890625 C8.109375,18.84375 8.28125,18.9375 8.375,19.171875 Z M13.390625,9.09375 L13.390625,-1.875 L13.65625,-1.875 C14.25,-1.875 14.921875,-1.515625 14.921875,-1.3125 L14.921875,1.265625 L22.390625,1.265625 C22.734375,1.265625 22.96875,1.390625 23.046875,1.65625 C22.265625,2.375 21.046875,3.3125 21.046875,3.3125 L19.96875,1.96875 L14.921875,1.96875 L14.921875,4.03125 L21.03125,4.03125 C21.359375,4.03125 21.578125,4.125 21.640625,4.390625 C20.921875,5.0625 19.828125,5.921875 19.828125,5.921875 L18.84375,4.703125 L14.921875,4.703125 L14.921875,6.640625 L21.4375,6.640625 C21.75,6.640625 21.984375,6.765625 22.03125,7.03125 C21.3125,7.734375 20.109375,8.640625 20.109375,8.640625 L19.0625,7.34375 L14.921875,7.34375 L14.921875,8.28125 C15.453125,8.359375 15.640625,8.5625 15.703125,8.875 Z M1.203125,1.984375 L2.25,0.234375 C2.46875,0.3125 2.65625,0.453125 2.765625,0.75 C5.1875,1.34375 7.078125,1.875 8.515625,2.28125 C7.875,0.703125 6.28125,-0.625 2.859375,-1.53125 L3.046875,-1.921875 C9.09375,-0.640625 10.421875,1.65625 10.4375,4.515625 L10.4375,8.203125 C11.015625,8.296875 11.1875,8.515625 11.234375,8.828125 L8.90625,9.078125 L8.90625,7.34375 L2.15625,7.34375 L2.375,6.640625 L8.90625,6.640625 L8.90625,4.75 L2.640625,4.75 L2.859375,4.078125 L8.875,4.078125 C8.875,3.671875 8.8125,3.265625 8.71875,2.859375 C5.59375,2.46875 2.609375,2.09375 1.203125,1.984375 Z" transform="translate(-0.125, 20.15625) scale(1, -1)"/>
</svg>