<svg height="21.984375" viewBox="0 0 24 21.984375" width="24" xmlns="http://www.w3.org/2000/svg">
<path d="M11.640625,12.625 L11.375,12.359375 C12.40625,11.78125 13.578125,10.96875 14.65625,10.078125 C14.1875,5.90625 12.953125,1.921875 9.75,-1.421875 L10.125,-1.828125 C13.75,1.203125 15.28125,4.875 15.984375,8.875 C16.828125,8.046875 17.515625,7.203125 17.90625,6.40625 C19.53125,5.609375 20.140625,8.234375 16.25,10.65625 C16.484375,12.8125 16.5625,15.078125 16.578125,17.328125 L20.515625,17.328125 C20.46875,7.703125 20.328125,1.53125 19.46875,0.625 C19.25,0.34375 19.078125,0.28125 18.578125,0.28125 C18.046875,0.28125 16.4375,0.4375 15.390625,0.546875 L15.390625,0.09375 C16.34375,-0.046875 17.296875,-0.3125 17.6875,-0.578125 C18,-0.84375 18.078125,-1.296875 18.078125,-1.796875 C19.203125,-1.796875 20.140625,-1.421875 20.765625,-0.546875 C21.796875,0.90625 21.953125,6.75 22.015625,17.09375 C22.5625,17.1875 22.875,17.296875 23.046875,17.5 L21.1875,19.109375 L20.234375,18.03125 L11.734375,18.03125 L11.921875,17.328125 L14.96875,17.328125 C14.953125,15.390625 14.921875,13.390625 14.78125,11.453125 C13.890625,11.859375 12.859375,12.265625 11.640625,12.625 Z M0.953125,3.703125 L1.15625,3 L5.421875,3 L5.421875,-1.890625 L5.640625,-1.890625 C6.40625,-1.890625 6.90625,-1.53125 6.90625,-1.421875 L6.90625,3 L11.09375,3 C11.421875,3 11.65625,3.125 11.734375,3.390625 C11.015625,4.03125 9.90625,4.890625 9.90625,4.890625 L8.953125,3.703125 L6.90625,3.703125 L6.90625,6.390625 L9.046875,6.390625 L9.046875,5.453125 L9.265625,5.453125 C9.71875,5.453125 10.46875,5.734375 10.484375,5.875 L10.484375,10.375 C10.875,10.4375 11.234375,10.625 11.375,10.796875 L9.625,12.125 L8.828125,11.28125 L6.9375,11.28125 L6.9375,13.515625 L7.78125,13.515625 L7.78125,12.765625 L8.0625,12.765625 C8.609375,12.765625 9.21875,13.078125 9.21875,13.265625 L9.21875,16.515625 L11.5,16.515625 C11.8125,16.515625 12.046875,16.625 12.078125,16.875 C11.46875,17.515625 10.4375,18.390625 10.4375,18.390625 L9.546875,17.1875 L9.21875,17.1875 L9.21875,19.25 C9.75,19.3125 9.953125,19.53125 10.015625,19.84375 L7.78125,20.0625 L7.78125,17.1875 L4.703125,17.1875 L4.703125,19.265625 C5.234375,19.34375 5.453125,19.5625 5.5,19.875 L3.265625,20.09375 L3.265625,17.1875 L0.953125,17.1875 L1.15625,16.515625 L3.265625,16.515625 L3.265625,12.546875 L3.546875,12.546875 C4.078125,12.546875 4.703125,12.890625 4.703125,13.0625 L4.703125,13.515625 L5.421875,13.515625 L5.421875,11.28125 L3.4375,11.28125 L1.890625,11.96875 L1.890625,5.109375 L2.109375,5.109375 C2.6875,5.109375 3.3125,5.453125 3.3125,5.5625 L3.3125,6.390625 L5.421875,6.390625 L5.421875,3.703125 Z M4.703125,16.515625 L7.78125,16.515625 L7.78125,14.203125 L4.703125,14.203125 Z M3.3125,7.109375 L3.3125,10.5625 L5.46875,10.5625 L5.46875,7.109375 Z M9.046875,7.109375 L6.859375,7.109375 L6.859375,10.5625 L9.046875,10.5625 Z" transform="translate(0, 20.09375) scale(1, -1)"/>
</svg>