<svg height="21.96875" viewBox="0 0 24 21.96875" width="24" xmlns="http://www.w3.org/2000/svg">
<path d="M13.46875,19.9375 C12.953125,15.8125 11.734375,11.28125 10.109375,8.609375 L10.484375,8.40625 C11.25,9.28125 11.921875,10.34375 12.53125,11.546875 L12.53125,-1.828125 L12.796875,-1.828125 C13.375,-1.828125 13.9375,-1.421875 13.96875,-1.265625 L13.96875,12.71875 C14.40625,12.765625 14.609375,12.9375 14.71875,13.15625 L13.46875,13.625 C14.140625,15.34375 14.65625,17.140625 15.046875,18.859375 C15.53125,18.890625 15.8125,19.125 15.890625,19.4375 Z M21.21875,15.28125 C20.546875,14.109375 19.125,12.046875 17.875,10.4375 L17.875,18.859375 C18.484375,18.953125 18.671875,19.21875 18.71875,19.53125 L16.390625,19.828125 L16.390625,0.34375 C16.390625,-0.8125 16.75,-1.296875 18.28125,-1.296875 L19.84375,-1.296875 C22.515625,-1.296875 23.203125,-1.0625 23.203125,-0.40625 C23.203125,-0.09375 23.0625,0.078125 22.5625,0.265625 L22.484375,3.71875 L22.171875,3.71875 C21.953125,2.375 21.640625,0.703125 21.5,0.390625 C21.390625,0.1875 21.3125,0.140625 21.140625,0.125 C20.921875,0.09375 20.46875,0.09375 19.875,0.09375 L18.59375,0.09375 C17.96875,0.09375 17.875,0.28125 17.875,0.75 L17.875,9.71875 C19.53125,10.984375 21.28125,12.625 22.203125,13.625 C22.65625,13.46875 23.015625,13.625 23.140625,13.828125 Z M0.859375,3.703125 L1.03125,3 L5.140625,3 L5.140625,-1.875 L5.359375,-1.875 C6.078125,-1.875 6.578125,-1.484375 6.578125,-1.390625 L6.578125,3 L10.734375,3 C11.046875,3 11.28125,3.125 11.328125,3.390625 C10.625,4.0625 9.53125,4.9375 9.53125,4.9375 L8.5625,3.703125 L6.578125,3.703125 L6.578125,6.390625 L8.515625,6.390625 L8.515625,5.421875 L8.71875,5.421875 C9.171875,5.421875 9.90625,5.71875 9.9375,5.859375 L9.9375,10.421875 C10.3125,10.484375 10.625,10.625 10.78125,10.796875 L9.078125,12.09375 L8.296875,11.28125 L6.546875,11.28125 L6.546875,13.484375 L7.34375,13.484375 L7.34375,12.890625 L7.609375,12.890625 C8.140625,12.890625 8.765625,13.203125 8.765625,13.375 L8.765625,16.515625 L11.09375,16.515625 C11.421875,16.515625 11.640625,16.625 11.6875,16.875 C11.0625,17.515625 10.03125,18.40625 10.03125,18.40625 L9.09375,17.1875 L8.765625,17.1875 L8.765625,19.296875 C9.265625,19.375 9.453125,19.5625 9.5,19.875 L7.34375,20.0625 L7.34375,17.1875 L4.4375,17.1875 L4.4375,19.296875 C4.9375,19.375 5.140625,19.578125 5.1875,19.875 L3.046875,20.09375 L3.046875,17.1875 L0.953125,17.1875 L1.15625,16.515625 L3.046875,16.515625 L3.046875,12.578125 L3.3125,12.578125 C3.84375,12.578125 4.4375,12.890625 4.4375,13.078125 L4.4375,13.484375 L5.140625,13.484375 L5.140625,11.28125 L3.265625,11.28125 L1.75,11.953125 L1.75,5.1875 L1.96875,5.1875 C2.546875,5.1875 3.140625,5.5 3.140625,5.640625 L3.140625,6.390625 L5.140625,6.390625 L5.140625,3.703125 Z M4.4375,16.515625 L7.34375,16.515625 L7.34375,14.1875 L4.4375,14.1875 Z M3.140625,7.109375 L3.140625,10.5625 L5.1875,10.5625 L5.1875,7.109375 Z M8.515625,7.109375 L6.5,7.109375 L6.5,10.5625 L8.515625,10.5625 Z" transform="translate(-0.03125, 20.09375) scale(1, -1)"/>
</svg>