<svg height="22.03125" viewBox="0 0 24 22.03125" width="24" xmlns="http://www.w3.org/2000/svg">
<path d="M23.109375,17.546875 L20.953125,18.765625 C20.515625,17.515625 19.609375,15.265625 18.8125,13.703125 L19.171875,13.4375 C20.28125,14.6875 21.484375,16.296875 22.203125,17.296875 C22.75,17.203125 22.96875,17.296875 23.109375,17.546875 Z M12.125,18.40625 L11.8125,18.234375 C12.796875,17.234375 13.796875,15.5 13.890625,14.140625 C15.3125,12.90625 16.65625,16.21875 12.125,18.40625 Z M20.359375,4.828125 L13.921875,4.828125 L13.921875,8.015625 L20.359375,8.015625 Z M13.921875,-1.375 L13.921875,4.109375 L20.359375,4.109375 L20.359375,0.5 C20.359375,0.140625 20.234375,0.03125 19.828125,0.03125 C19.34375,0.03125 17.203125,0.1875 17.203125,0.1875 L17.203125,-0.21875 C18.171875,-0.3125 18.703125,-0.53125 19.0625,-0.765625 C19.34375,-1.015625 19.46875,-1.4375 19.515625,-1.890625 C21.59375,-1.6875 21.859375,-0.9375 21.859375,0.34375 L21.859375,11.6875 C22.34375,11.765625 22.75,11.96875 22.921875,12.140625 L20.921875,13.65625 L20.109375,12.671875 L17.8125,12.671875 L17.8125,19.265625 C18.34375,19.34375 18.546875,19.5625 18.59375,19.875 L16.3125,20.109375 L16.3125,12.671875 L14.046875,12.671875 L12.40625,13.46875 L12.40625,-1.921875 L12.671875,-1.921875 C13.375,-1.921875 13.921875,-1.5625 13.921875,-1.375 Z M20.359375,8.71875 L13.921875,8.71875 L13.921875,11.96875 L20.359375,11.96875 Z M10.4375,18.484375 L9.59375,17.28125 L9.390625,17.28125 L9.390625,19.265625 C9.90625,19.3125 10.125,19.53125 10.15625,19.828125 L7.96875,20.0625 L7.96875,17.28125 L4.5625,17.28125 L4.5625,19.265625 C5.0625,19.34375 5.28125,19.53125 5.296875,19.84375 L3.140625,20.09375 L3.140625,17.28125 L1.03125,17.28125 L1.21875,16.578125 L3.140625,16.578125 L3.140625,12.546875 L3.40625,12.546875 C3.953125,12.546875 4.5625,12.890625 4.5625,13.03125 L4.5625,13.390625 L5.5625,13.390625 L5.5625,11.28125 L3.40625,11.28125 L1.890625,11.96875 L1.890625,5.015625 L2.109375,5.015625 C2.71875,5.015625 3.28125,5.359375 3.28125,5.46875 L3.28125,6.09375 L5.5625,6.09375 L5.5625,3.546875 L0.90625,3.546875 L1.109375,2.859375 L5.5625,2.859375 L5.5625,-1.84375 L5.78125,-1.84375 C6.53125,-1.84375 6.984375,-1.46875 6.984375,-1.375 L6.984375,2.859375 L11.15625,2.859375 C11.46875,2.859375 11.71875,2.96875 11.765625,3.234375 C11.0625,3.90625 9.953125,4.78125 9.953125,4.78125 L8.96875,3.546875 L6.984375,3.546875 L6.984375,6.09375 L9.125,6.09375 L9.125,5.421875 L9.34375,5.421875 C9.796875,5.421875 10.515625,5.71875 10.53125,5.859375 L10.53125,10.390625 C10.921875,10.4375 11.25,10.625 11.40625,10.78125 L9.703125,12.09375 L8.90625,11.28125 L6.984375,11.28125 L6.984375,13.390625 L7.96875,13.390625 L7.96875,12.796875 L8.25,12.796875 C8.78125,12.796875 9.390625,13.078125 9.390625,13.265625 L9.390625,16.578125 L11.421875,16.578125 C11.734375,16.578125 11.953125,16.703125 12.03125,16.96875 C11.453125,17.609375 10.4375,18.484375 10.4375,18.484375 Z M5.640625,10.5625 L5.640625,6.8125 L3.28125,6.8125 L3.28125,10.5625 Z M6.9375,10.5625 L9.125,10.5625 L9.125,6.8125 L6.9375,6.8125 Z M7.96875,14.109375 L4.5625,14.109375 L4.5625,16.578125 L7.96875,16.578125 Z" transform="translate(-0.0078125, 20.109375) scale(1, -1)"/>
</svg>