<svg height="21.984375" viewBox="0 0 24 21.984375" width="24" xmlns="http://www.w3.org/2000/svg">
<path d="M19.21875,18.359375 L18.9375,18.1875 C19.984375,17.046875 21.359375,15.171875 21.703125,13.75 C23.234375,12.59375 24.40625,15.9375 19.21875,18.359375 Z M13.53125,18.40625 C12.796875,16.390625 11.640625,14.453125 10.53125,13.296875 L10.875,13.015625 C12.3125,13.890625 13.75,15.359375 14.828125,17.09375 C15.34375,17.015625 15.625,17.203125 15.75,17.46875 Z M13.921875,8.1875 L20.328125,8.1875 L20.328125,5.015625 L13.921875,5.015625 Z M13.921875,8.875 L13.921875,11.875 L20.328125,11.875 L20.328125,8.875 Z M12.40625,12.578125 L12.40625,-1.875 L12.671875,-1.875 C13.34375,-1.875 13.921875,-1.515625 13.921875,-1.34375 L13.921875,4.296875 L20.328125,4.296875 L20.328125,0.546875 C20.328125,0.1875 20.203125,0.046875 19.796875,0.046875 C19.3125,0.046875 17.09375,0.234375 17.09375,0.234375 L17.09375,-0.171875 C18.09375,-0.28125 18.640625,-0.453125 18.984375,-0.75 C19.265625,-0.984375 19.421875,-1.390625 19.484375,-1.890625 C21.59375,-1.6875 21.84375,-0.859375 21.84375,0.359375 L21.84375,11.515625 C22.375,11.609375 22.828125,11.859375 22.984375,12.046875 L20.875,13.609375 L20.0625,12.578125 L17.828125,12.578125 L17.828125,19.109375 C18.390625,19.171875 18.59375,19.421875 18.640625,19.734375 L16.34375,19.96875 L16.34375,12.578125 L14.015625,12.578125 L12.40625,13.34375 Z M0.953125,3.703125 L1.15625,3 L5.421875,3 L5.421875,-1.890625 L5.640625,-1.890625 C6.40625,-1.890625 6.90625,-1.53125 6.90625,-1.421875 L6.90625,3 L11.09375,3 C11.421875,3 11.65625,3.125 11.734375,3.390625 C11.015625,4.03125 9.90625,4.890625 9.90625,4.890625 L8.953125,3.703125 L6.90625,3.703125 L6.90625,6.390625 L9.046875,6.390625 L9.046875,5.453125 L9.265625,5.453125 C9.71875,5.453125 10.46875,5.734375 10.484375,5.875 L10.484375,10.375 C10.875,10.4375 11.234375,10.625 11.375,10.796875 L9.625,12.125 L8.828125,11.28125 L6.9375,11.28125 L6.9375,13.515625 L7.78125,13.515625 L7.78125,12.765625 L8.0625,12.765625 C8.609375,12.765625 9.21875,13.078125 9.21875,13.265625 L9.21875,16.515625 L11.5,16.515625 C11.8125,16.515625 12.046875,16.625 12.078125,16.875 C11.46875,17.515625 10.4375,18.390625 10.4375,18.390625 L9.546875,17.1875 L9.21875,17.1875 L9.21875,19.25 C9.75,19.3125 9.953125,19.53125 10.015625,19.84375 L7.78125,20.0625 L7.78125,17.1875 L4.703125,17.1875 L4.703125,19.265625 C5.234375,19.34375 5.453125,19.5625 5.5,19.875 L3.265625,20.09375 L3.265625,17.1875 L0.953125,17.1875 L1.15625,16.515625 L3.265625,16.515625 L3.265625,12.546875 L3.546875,12.546875 C4.078125,12.546875 4.703125,12.890625 4.703125,13.0625 L4.703125,13.515625 L5.421875,13.515625 L5.421875,11.28125 L3.4375,11.28125 L1.890625,11.96875 L1.890625,5.109375 L2.109375,5.109375 C2.6875,5.109375 3.3125,5.453125 3.3125,5.5625 L3.3125,6.390625 L5.421875,6.390625 L5.421875,3.703125 Z M4.703125,16.515625 L7.78125,16.515625 L7.78125,14.203125 L4.703125,14.203125 Z M3.3125,7.109375 L3.3125,10.5625 L5.46875,10.5625 L5.46875,7.109375 Z M9.046875,7.109375 L6.859375,7.109375 L6.859375,10.5625 L9.046875,10.5625 Z" transform="translate(-0.6796875, 20.09375) scale(1, -1)"/>
</svg>