<svg height="21.9375" viewBox="0 0 24 21.9375" width="24" xmlns="http://www.w3.org/2000/svg">
<path d="M0.9375,3.703125 L1.125,3 L4.734375,3 L4.734375,-1.828125 L4.9375,-1.828125 C5.6875,-1.828125 6.140625,-1.46875 6.140625,-1.34375 L6.140625,3 L9.640625,3 C9.984375,3 10.203125,3.125 10.265625,3.390625 C9.546875,4.0625 8.46875,4.890625 8.46875,4.890625 L7.484375,3.703125 L6.140625,3.703125 L6.140625,6.21875 L7.75,6.21875 L7.75,5.25 L7.9375,5.25 C8.40625,5.25 9.09375,5.5625 9.125,5.71875 L9.125,10.390625 C9.53125,10.46875 9.890625,10.625 10.03125,10.796875 L9.625,11.109375 C9.9375,11.46875 10.25,11.859375 10.5625,12.265625 L10.5625,-1.84375 L10.796875,-1.84375 C11.328125,-1.84375 11.875,-1.46875 11.90625,-1.34375 L11.90625,13.171875 C12.3125,13.21875 12.53125,13.390625 12.59375,13.578125 L11.65625,13.9375 C12.34375,15.09375 12.90625,16.375 13.421875,17.734375 L13.484375,17.453125 L16.9375,17.453125 L16.9375,14.8125 L14.96875,14.8125 L13.46875,15.5 L13.46875,6.09375 L13.65625,6.09375 C14.25,6.09375 14.859375,6.4375 14.859375,6.546875 L14.859375,7.25 L16.921875,7.25 L16.921875,7.125 C16.921875,6.03125 16.796875,4.625 16.265625,3.140625 C15.671875,3.84375 15.28125,4.5625 15.046875,5.28125 L15.859375,6.125 L15.09375,6.5 L14.65625,5.46875 C14.109375,5.046875 13.203125,4.46875 12.703125,4.171875 L13.5625,3.03125 C13.6875,3.125 13.734375,3.234375 13.65625,3.4375 L14.71875,4.84375 C14.953125,3.984375 15.3125,3.09375 15.859375,2.234375 C15.265625,0.953125 14.296875,-0.3125 12.8125,-1.484375 L13.109375,-1.84375 C14.734375,-0.9375 15.859375,0.125 16.625,1.21875 C17.71875,0.03125 19.34375,-1.0625 21.765625,-1.828125 C21.890625,-0.984375 22.375,-0.75 23.15625,-0.625 L23.1875,-0.34375 C20.421875,0.34375 18.53125,1.21875 17.25,2.234375 C18.1875,4.03125 18.34375,5.859375 18.359375,7.125 L18.359375,7.25 L20.5625,7.25 L20.5625,6.171875 L20.78125,6.171875 C21.265625,6.171875 21.984375,6.53125 22.015625,6.671875 L22.015625,13.984375 C22.3125,14.046875 22.609375,14.203125 22.734375,14.328125 L21.140625,15.578125 L20.40625,14.8125 L18.34375,14.8125 L18.34375,17.453125 L22.6875,17.453125 C23.015625,17.453125 23.234375,17.5625 23.296875,17.828125 C22.53125,18.546875 21.28125,19.5625 21.28125,19.5625 L20.15625,18.171875 L13.5625,18.171875 L13.828125,18.9375 C14.359375,18.953125 14.640625,19.171875 14.734375,19.4375 L12.4375,20.0625 C11.765625,16.84375 10.515625,13.734375 9.125,11.5 L8.296875,12.09375 L7.53125,11.28125 L6.140625,11.28125 L6.140625,13.515625 L6.671875,13.515625 L6.671875,12.890625 L6.9375,12.890625 C7.4375,12.890625 8.09375,13.203125 8.09375,13.375 L8.09375,16.515625 L10.125,16.515625 C10.4375,16.515625 10.625,16.625 10.703125,16.890625 C10.15625,17.546875 9.1875,18.453125 9.1875,18.453125 L8.359375,17.203125 L8.09375,17.203125 L8.09375,19.296875 C8.59375,19.375 8.78125,19.5625 8.828125,19.875 L6.671875,20.0625 L6.671875,17.203125 L4.296875,17.203125 L4.296875,19.296875 C4.796875,19.375 4.984375,19.5625 5.046875,19.875 L2.90625,20.09375 L2.90625,17.203125 L0.984375,17.203125 L1.171875,16.515625 L2.90625,16.515625 L2.90625,12.546875 L3.171875,12.546875 C3.703125,12.546875 4.296875,12.890625 4.296875,13.0625 L4.296875,13.515625 L4.734375,13.515625 L4.734375,11.28125 L3.171875,11.28125 L1.6875,11.953125 L1.6875,5.015625 L1.890625,5.015625 C2.46875,5.015625 3.046875,5.359375 3.046875,5.46875 L3.046875,6.21875 L4.734375,6.21875 L4.734375,3.703125 Z M16.984375,10.609375 L16.984375,7.9375 L14.859375,7.9375 L14.859375,10.609375 Z M18.28125,10.609375 L20.5625,10.609375 L20.5625,7.9375 L18.28125,7.9375 Z M16.984375,11.328125 L14.859375,11.328125 L14.859375,14.09375 L16.984375,14.09375 Z M18.28125,11.328125 L18.28125,14.09375 L20.5625,14.09375 L20.5625,11.328125 Z M4.296875,16.515625 L6.671875,16.515625 L6.671875,14.203125 L4.296875,14.203125 Z M3.046875,6.9375 L3.046875,10.5625 L4.796875,10.5625 L4.796875,6.9375 Z M7.75,6.9375 L6.046875,6.9375 L6.046875,10.5625 L7.75,10.5625 Z" transform="translate(-0.1171875, 20.09375) scale(1, -1)"/>
</svg>