<svg height="22.03125" viewBox="0 0 24 22.03125" width="24" xmlns="http://www.w3.org/2000/svg">
<path d="M18.765625,14.515625 L15.03125,14.515625 L15.578125,17.0625 L18.765625,17.0625 Z M14.65625,20.09375 L14.234375,17.78125 L11.734375,17.78125 L11.953125,17.0625 L14.09375,17.0625 L13.5625,14.515625 L10.3125,14.515625 L10.484375,13.796875 L22.5625,13.796875 C22.890625,13.796875 23.109375,13.921875 23.1875,14.1875 C22.53125,14.859375 21.453125,15.765625 21.453125,15.765625 L20.515625,14.515625 L20.234375,14.515625 L20.234375,16.875 C20.640625,16.9375 21,17.140625 21.140625,17.28125 L19.390625,18.625 L18.546875,17.78125 L15.75,17.78125 L16.03125,19.203125 C16.515625,19.21875 16.796875,19.46875 16.875,19.796875 Z M12.078125,12.359375 L12.078125,7.34375 L12.28125,7.34375 C12.90625,7.34375 13.578125,7.65625 13.578125,7.796875 L13.578125,8.515625 L19.34375,8.515625 L19.34375,7.6875 L19.578125,7.6875 C20.0625,7.6875 20.828125,8.015625 20.859375,8.1875 L20.859375,11.40625 C21.328125,11.5 21.703125,11.6875 21.84375,11.859375 L19.9375,13.265625 L19.125,12.359375 L13.703125,12.359375 L12.078125,13.078125 Z M19.34375,9.1875 L13.578125,9.1875 L13.578125,11.65625 L19.34375,11.65625 Z M16.515625,5.140625 L16.515625,2.5625 L12.953125,2.5625 L13.4375,5.140625 Z M16.515625,7.921875 L16.515625,5.828125 L13.875,5.828125 L12.171875,6.640625 C11.953125,5.234375 11.46875,2.71875 11.015625,0.9375 C11.828125,0.765625 12.234375,0.796875 12.625,1.015625 L12.8125,1.875 L16.515625,1.875 L16.515625,-1.921875 L16.78125,-1.921875 C17.359375,-1.921875 18,-1.5625 18,-1.390625 L18,1.875 L22.53125,1.875 C22.875,1.875 23.109375,1.984375 23.15625,2.25 C22.4375,2.921875 21.28125,3.859375 21.28125,3.859375 L20.28125,2.5625 L18,2.5625 L18,5.140625 L21.640625,5.140625 C21.953125,5.140625 22.171875,5.25 22.21875,5.515625 C21.578125,6.171875 20.46875,7.015625 20.46875,7.015625 L19.5625,5.828125 L18,5.828125 L18,7.171875 C18.453125,7.25 18.59375,7.421875 18.640625,7.6875 Z M1.984375,13.625 L1.984375,5.8125 L2.234375,5.8125 C2.8125,5.8125 3.4375,6.140625 3.4375,6.28125 L3.4375,6.640625 L5.0625,6.640625 L5.0625,3.84375 L0.90625,3.84375 L1.109375,3.140625 L5.0625,3.140625 L5.0625,-1.921875 L5.296875,-1.921875 C6.046875,-1.921875 6.546875,-1.5625 6.546875,-1.46875 L6.546875,3.140625 L10.296875,3.140625 C10.609375,3.140625 10.84375,3.265625 10.921875,3.53125 C10.21875,4.203125 9.046875,5.15625 9.046875,5.15625 L8.046875,3.84375 L6.546875,3.84375 L6.546875,6.640625 L8.203125,6.640625 L8.203125,6.140625 L8.421875,6.140625 C8.90625,6.140625 9.640625,6.5 9.671875,6.640625 L9.671875,12.640625 C10.15625,12.75 10.53125,12.953125 10.6875,13.15625 L8.8125,14.5625 L7.96875,13.625 L6.578125,13.625 L6.578125,16.109375 L10.4375,16.109375 C10.75,16.109375 10.96875,16.21875 11.046875,16.484375 C10.296875,17.1875 9.046875,18.171875 9.046875,18.171875 L7.984375,16.78125 L6.578125,16.78125 L6.578125,19.265625 C7.15625,19.375 7.34375,19.578125 7.390625,19.890625 L5.0625,20.109375 L5.0625,16.78125 L1.03125,16.78125 L1.21875,16.109375 L5.0625,16.109375 L5.0625,13.625 L3.546875,13.625 L1.984375,14.359375 Z M8.203125,7.3125 L3.4375,7.3125 L3.4375,9.75 L8.203125,9.75 Z M8.203125,10.4375 L3.4375,10.4375 L3.4375,12.9375 L8.203125,12.9375 Z" transform="translate(-0.046875, 20.109375) scale(1, -1)"/>
</svg>