<svg height="22.015625" viewBox="0 0 24 22.015625" width="24" xmlns="http://www.w3.org/2000/svg">
<path d="M20.203125,18.125 L18.984375,16.578125 L12.625,16.578125 L12.625,19.15625 C13.25,19.25 13.421875,19.46875 13.484375,19.796875 L11.015625,20.09375 L11.015625,16.578125 L1.828125,16.578125 L2.046875,15.890625 L11.015625,15.890625 L11.015625,12.40625 L3.625,12.40625 L3.8125,11.71875 L11.015625,11.71875 L11.015625,8.1875 L1.53125,8.1875 L1.75,7.46875 L11.015625,7.46875 L11.015625,-1.921875 L11.328125,-1.921875 C11.953125,-1.921875 12.625,-1.515625 12.625,-1.265625 L12.625,7.46875 L19.75,7.46875 C19.625,4.890625 19.421875,2.921875 19.015625,2.546875 C18.84375,2.375 18.59375,2.328125 18.171875,2.328125 C17.640625,2.328125 15.53125,2.5 14.375,2.609375 L14.359375,2.203125 C15.390625,2.046875 16.625,1.796875 17.015625,1.53125 C17.421875,1.296875 17.515625,0.9375 17.515625,0.484375 C18.5,0.484375 19.4375,0.71875 19.984375,1.15625 C20.828125,1.890625 21.171875,4.171875 21.265625,7.296875 C21.75,7.34375 22.03125,7.46875 22.171875,7.625 L20.421875,9.09375 L19.515625,8.1875 L12.625,8.1875 L12.625,11.71875 L20.234375,11.71875 C20.5625,11.71875 20.8125,11.828125 20.875,12.09375 C20.046875,12.84375 18.71875,13.875 18.71875,13.875 L17.546875,12.40625 L12.625,12.40625 L12.625,15.890625 L21.796875,15.890625 C22.125,15.890625 22.375,16.015625 22.4375,16.265625 C21.59375,17.0625 20.203125,18.125 20.203125,18.125 Z" transform="translate(0.015625, 20.09375) scale(1, -1)"/>
</svg>