<svg height="21.921875" viewBox="0 0 24 21.921875" width="24" xmlns="http://www.w3.org/2000/svg">
<path d="M6.890625,16.296875 L6.578125,16.171875 C7.25,15.09375 8.015625,13.421875 8.09375,12.078125 C9.53125,10.703125 11.15625,13.9375 6.890625,16.296875 Z M6.90625,3.890625 L17.15625,3.890625 L17.15625,0.578125 L6.90625,0.578125 Z M6.90625,4.5625 L6.90625,7.734375 L17.15625,7.734375 L17.15625,4.5625 Z M5.359375,8.453125 L5.359375,-1.875 L5.609375,-1.875 C6.265625,-1.875 6.90625,-1.515625 6.90625,-1.34375 L6.90625,-0.140625 L17.15625,-0.140625 L17.15625,-1.828125 L17.40625,-1.828125 C17.96875,-1.828125 18.75,-1.421875 18.765625,-1.21875 L18.765625,7.46875 C19.203125,7.5625 19.578125,7.75 19.734375,7.921875 L17.8125,9.390625 L16.9375,8.453125 L7.0625,8.453125 L5.359375,9.21875 Z M1.25,11.6875 L1.46875,10.984375 L22.171875,10.984375 C22.515625,10.984375 22.75,11.109375 22.828125,11.375 C21.984375,12.125 20.609375,13.203125 20.609375,13.203125 L19.421875,11.6875 L14.5,11.6875 C15.546875,12.796875 16.609375,14.15625 17.25,15.1875 C17.765625,15.171875 18.078125,15.359375 18.171875,15.625 L15.84375,16.421875 L21.234375,16.421875 C21.578125,16.421875 21.796875,16.53125 21.859375,16.796875 C21.078125,17.546875 19.75,18.546875 19.75,18.546875 L18.625,17.109375 L12.75,17.109375 L12.75,19.203125 C13.265625,19.296875 13.484375,19.515625 13.515625,19.828125 L11.140625,20.046875 L11.140625,17.109375 L2.375,17.109375 L2.5625,16.421875 L15.671875,16.421875 C15.265625,15 14.515625,13.078125 13.84375,11.6875 Z" transform="translate(-0.0390625, 20.046875) scale(1, -1)"/>
</svg>