<svg height="22.203125" viewBox="0 0 24 22.203125" width="24" xmlns="http://www.w3.org/2000/svg">
<path d="M2.296875,16.125 L2.5,15.4375 L21.265625,15.4375 C21.578125,15.4375 21.8125,15.546875 21.890625,15.8125 C21.078125,16.53125 19.78125,17.546875 19.78125,17.546875 L18.640625,16.125 Z M6.671875,15.3125 L6.390625,15.171875 C7.0625,14.203125 7.828125,12.59375 7.921875,11.375 C9.34375,10.109375 10.96875,13.171875 6.671875,15.3125 Z M6.046875,18.984375 L6.234375,18.28125 L17.5625,18.28125 C17.90625,18.28125 18.140625,18.40625 18.1875,18.671875 C17.40625,19.390625 16.109375,20.359375 16.109375,20.359375 L15,18.984375 Z M7.0625,3.453125 L16.96875,3.453125 L16.96875,0.40625 L7.0625,0.40625 Z M7.0625,4.15625 L7.0625,7.125 L16.96875,7.125 L16.96875,4.15625 Z M5.46875,7.796875 L5.46875,-1.84375 L5.734375,-1.84375 C6.40625,-1.84375 7.0625,-1.46875 7.0625,-1.296875 L7.0625,-0.3125 L16.96875,-0.3125 L16.96875,-1.703125 L17.234375,-1.703125 C17.78125,-1.703125 18.546875,-1.265625 18.578125,-1.109375 L18.578125,6.859375 C19.03125,6.9375 19.390625,7.125 19.53125,7.296875 L17.640625,8.78125 L16.75,7.796875 L7.203125,7.796875 L5.46875,8.59375 Z M15.671875,15.359375 C15.265625,14.015625 14.5625,12.234375 13.921875,10.890625 L1.03125,10.890625 L1.21875,10.203125 L22.265625,10.203125 C22.625,10.203125 22.875,10.3125 22.9375,10.5625 C22.078125,11.359375 20.71875,12.40625 20.71875,12.40625 L19.515625,10.890625 L14.59375,10.890625 C15.578125,11.921875 16.5625,13.125 17.1875,14.0625 C17.6875,14.015625 18,14.203125 18.125,14.5 Z" transform="translate(0.015625, 20.359375) scale(1, -1)"/>
</svg>