<svg height="22.3125" viewBox="0 0 24 22.3125" width="24" xmlns="http://www.w3.org/2000/svg">
<path d="M17.71875,2.546875 L17.5,2.296875 C18.9375,1.390625 20.90625,-0.28125 21.578125,-1.609375 C23.46875,-2.515625 24.125,1.21875 17.71875,2.546875 Z M14.96875,2.640625 C13.875,1.15625 11.6875,-0.5 9.765625,-1.46875 L9.984375,-1.828125 C12.21875,-1.15625 14.78125,0.125 16.109375,1.375 C16.515625,1.25 16.78125,1.296875 16.921875,1.484375 Z M9.84375,18.03125 C9.078125,17.640625 8.015625,17.203125 6.796875,16.828125 L6.796875,18.859375 C7.375,18.953125 7.5625,19.21875 7.578125,19.53125 L5.375,19.796875 L5.375,16.390625 C3.90625,16.015625 2.359375,15.671875 0.890625,15.453125 L0.984375,15.046875 C2.453125,15.09375 3.953125,15.234375 5.375,15.453125 L5.375,6.703125 L3.234375,6.703125 L3.234375,12.84375 C3.8125,12.9375 4.03125,13.15625 4.078125,13.46875 L1.828125,13.703125 L1.828125,3.21875 L2.109375,3.21875 C2.609375,3.21875 3.234375,3.53125 3.234375,3.71875 L3.234375,6 L5.375,6 L5.375,1.84375 C5.375,0.796875 5.65625,0.3125 7.078125,0.3125 L8.40625,0.3125 C10.75,0.3125 11.40625,0.59375 11.40625,1.203125 C11.40625,1.515625 11.234375,1.6875 10.78125,1.84375 L10.65625,4.15625 L10.390625,4.15625 C10.203125,3.265625 9.953125,2.109375 9.8125,1.921875 C9.75,1.78125 9.625,1.75 9.484375,1.734375 C9.3125,1.703125 8.90625,1.703125 8.421875,1.703125 L7.390625,1.703125 C6.859375,1.703125 6.796875,1.84375 6.796875,2.28125 L6.796875,6 L8.875,6 L8.875,4.796875 L9.171875,4.796875 C9.703125,4.796875 10.3125,5.109375 10.3125,5.28125 L10.3125,12.890625 C10.890625,12.984375 11.109375,13.203125 11.15625,13.515625 L8.875,13.75 L8.875,6.703125 L6.796875,6.703125 L6.796875,15.703125 C8.15625,15.9375 9.390625,16.25 10.375,16.53125 C10.890625,16.34375 11.296875,16.34375 11.515625,16.515625 Z M12.453125,14.90625 L12.453125,2.234375 L12.703125,2.234375 C13.375,2.234375 13.96875,2.59375 13.96875,2.734375 L13.96875,3.5 L19.9375,3.5 L19.9375,2.5 L20.1875,2.5 C20.71875,2.5 21.453125,2.859375 21.484375,3.03125 L21.484375,13.984375 C21.859375,14.0625 22.203125,14.234375 22.34375,14.40625 L20.59375,15.796875 L19.734375,14.90625 L16.390625,14.90625 C16.890625,15.640625 17.453125,16.65625 17.90625,17.59375 L22.265625,17.59375 C22.609375,17.59375 22.84375,17.71875 22.890625,17.96875 C22.109375,18.703125 20.8125,19.734375 20.8125,19.734375 L19.625,18.265625 L11.234375,18.265625 L11.421875,17.59375 L16.0625,17.59375 C15.953125,16.703125 15.796875,15.640625 15.640625,14.90625 L14.0625,14.90625 L12.453125,15.640625 Z M19.9375,10.734375 L19.9375,7.84375 L13.96875,7.84375 L13.96875,10.734375 Z M19.9375,11.421875 L13.96875,11.421875 L13.96875,14.1875 L19.9375,14.1875 Z M19.9375,7.15625 L19.9375,4.203125 L13.96875,4.203125 L13.96875,7.15625 Z" transform="translate(-0.5078125, 19.796875) scale(1, -1)"/>
</svg>