<svg height="22.421875" viewBox="0 0 24 22.421875" width="24" xmlns="http://www.w3.org/2000/svg">
<path d="M17.71875,2.546875 L17.5,2.296875 C18.9375,1.375 20.875,-0.359375 21.546875,-1.703125 C23.40625,-2.640625 24.125,1.109375 17.71875,2.546875 Z M14.90625,2.640625 C13.796875,1.15625 11.640625,-0.5 9.71875,-1.46875 L9.9375,-1.828125 C12.140625,-1.15625 14.734375,0.125 16.03125,1.375 C16.4375,1.25 16.734375,1.296875 16.875,1.484375 Z M1.984375,13.796875 L1.984375,3.28125 L2.28125,3.28125 C2.78125,3.28125 3.40625,3.59375 3.40625,3.796875 L3.40625,6.140625 L5.46875,6.140625 L5.46875,1.421875 L4.171875,1.15625 L5.203125,-0.859375 C5.453125,-0.796875 5.640625,-0.578125 5.71875,-0.28125 C8.046875,0.84375 9.765625,1.78125 10.9375,2.421875 L10.84375,2.734375 L6.890625,1.734375 L6.890625,6.140625 L9.09375,6.140625 L9.09375,4.890625 L9.359375,4.890625 C9.90625,4.890625 10.515625,5.234375 10.515625,5.40625 L10.515625,13.03125 C11.09375,13.125 11.296875,13.34375 11.359375,13.625 L9.09375,13.890625 L9.09375,6.84375 L6.890625,6.84375 L6.890625,15.890625 C8.203125,16.109375 9.390625,16.34375 10.375,16.609375 C10.890625,16.421875 11.28125,16.421875 11.5,16.578125 L9.84375,18.125 C9.09375,17.765625 8.0625,17.375 6.890625,17.046875 L6.890625,18.84375 C7.46875,18.9375 7.6875,19.171875 7.734375,19.515625 L5.46875,19.78125 L5.46875,16.625 C3.984375,16.25 2.359375,15.9375 0.859375,15.75 L0.984375,15.28125 C2.46875,15.34375 4.015625,15.484375 5.46875,15.671875 L5.46875,6.84375 L3.40625,6.84375 L3.40625,12.9375 C3.984375,13.015625 4.203125,13.25 4.21875,13.5625 Z M12.390625,14.90625 L12.390625,2.453125 L12.625,2.453125 C13.296875,2.453125 13.875,2.8125 13.875,2.96875 L13.875,3.5 L19.875,3.5 L19.875,2.71875 L20.109375,2.71875 C20.640625,2.71875 21.390625,3.09375 21.40625,3.234375 L21.40625,13.984375 C21.796875,14.0625 22.125,14.234375 22.265625,14.40625 L20.5,15.796875 L19.65625,14.90625 L16.34375,14.90625 C16.828125,15.640625 17.375,16.65625 17.8125,17.59375 L22.171875,17.59375 C22.53125,17.59375 22.78125,17.71875 22.828125,17.96875 C22.03125,18.703125 20.71875,19.734375 20.71875,19.734375 L19.578125,18.265625 L11.140625,18.265625 L11.328125,17.59375 L15.984375,17.59375 C15.859375,16.703125 15.703125,15.640625 15.546875,14.90625 L13.984375,14.90625 L12.390625,15.640625 Z M19.875,10.734375 L19.875,7.84375 L13.875,7.84375 L13.875,10.734375 Z M19.875,11.421875 L13.875,11.421875 L13.875,14.1875 L19.875,14.1875 Z M19.875,7.15625 L19.875,4.203125 L13.875,4.203125 L13.875,7.15625 Z" transform="translate(-0.4921875, 19.78125) scale(1, -1)"/>
</svg>