<svg height="22.484375" viewBox="0 0 24 22.484375" width="24" xmlns="http://www.w3.org/2000/svg">
<path d="M2.40625,13.96875 L2.0625,13.828125 C2.640625,12.625 3.21875,10.734375 3.09375,9.265625 C4.375,7.875 6,10.984375 2.40625,13.96875 Z M9.265625,13.96875 C9.03125,12.8125 8.421875,10.46875 7.921875,8.953125 L8.203125,8.828125 C9.140625,10.078125 10.15625,11.734375 10.6875,12.703125 C11.15625,12.640625 11.421875,12.90625 11.5,13.109375 Z M17.71875,2.546875 L17.5,2.296875 C18.9375,1.375 20.875,-0.359375 21.546875,-1.703125 C23.40625,-2.640625 24.125,1.109375 17.71875,2.546875 Z M14.90625,2.640625 C13.796875,1.15625 11.640625,-0.5 9.71875,-1.46875 L9.9375,-1.828125 C12.140625,-1.15625 14.734375,0.125 16.03125,1.375 C16.4375,1.25 16.734375,1.296875 16.875,1.484375 Z M5.609375,19.84375 L5.609375,15.796875 L1.4375,15.796875 L1.625,15.09375 L5.609375,15.09375 L5.609375,10.96875 C5.609375,9.953125 5.59375,8.953125 5.5,7.96875 L0.890625,7.96875 L1.0625,7.25 L5.421875,7.25 C4.984375,3.84375 3.84375,0.796875 1.0625,-1.5625 L1.390625,-1.890625 C4.25,-0.046875 5.734375,2.453125 6.484375,5.25 C7.828125,4.078125 9.3125,2.359375 9.75,0.90625 C11.515625,-0.265625 12.53125,3.484375 6.59375,5.78125 C6.71875,6.265625 6.8125,6.75 6.890625,7.25 L11.71875,7.25 C12.046875,7.25 12.265625,7.375 12.3125,7.625 C11.59375,8.375 10.375,9.3125 10.375,9.3125 L9.3125,7.96875 L6.953125,7.96875 C7.078125,8.953125 7.125,9.953125 7.125,10.96875 L7.125,15.09375 L11.328125,15.09375 C11.65625,15.09375 11.90625,15.1875 11.96875,15.453125 C11.203125,16.171875 10.015625,17.140625 10.015625,17.140625 L8.921875,15.796875 L7.125,15.796875 L7.125,18.90625 C7.703125,19.015625 7.890625,19.25 7.9375,19.578125 Z M12.390625,14.90625 L12.390625,2.421875 L12.625,2.421875 C13.296875,2.421875 13.875,2.765625 13.875,2.953125 L13.875,3.53125 L19.875,3.53125 L19.875,2.6875 L20.109375,2.6875 C20.640625,2.6875 21.390625,3.078125 21.40625,3.21875 L21.40625,13.984375 C21.796875,14.0625 22.125,14.25 22.265625,14.421875 L20.5,15.796875 L19.65625,14.90625 L16.3125,14.90625 C16.828125,15.640625 17.359375,16.6875 17.8125,17.59375 L22.171875,17.59375 C22.53125,17.59375 22.78125,17.71875 22.828125,17.96875 C22.03125,18.703125 20.71875,19.734375 20.71875,19.734375 L19.578125,18.265625 L11.140625,18.265625 L11.328125,17.59375 L15.984375,17.59375 C15.859375,16.703125 15.703125,15.640625 15.546875,14.90625 L13.984375,14.90625 L12.390625,15.640625 Z M19.875,10.734375 L19.875,7.875 L13.875,7.875 L13.875,10.734375 Z M19.875,11.453125 L13.875,11.453125 L13.875,14.203125 L19.875,14.203125 Z M19.875,7.171875 L19.875,4.21875 L13.875,4.21875 L13.875,7.171875 Z" transform="translate(-0.5078125, 19.84375) scale(1, -1)"/>
</svg>