<svg height="22.46875" viewBox="0 0 24 22.46875" width="24" xmlns="http://www.w3.org/2000/svg">
<path d="M17.71875,2.546875 L17.5,2.296875 C18.9375,1.375 20.875,-0.359375 21.546875,-1.703125 C23.40625,-2.640625 24.125,1.109375 17.71875,2.546875 Z M14.90625,2.640625 C13.796875,1.15625 11.640625,-0.5 9.71875,-1.46875 L9.9375,-1.828125 C12.140625,-1.15625 14.734375,0.125 16.03125,1.375 C16.4375,1.25 16.734375,1.296875 16.875,1.484375 Z M5.59375,19.828125 L5.59375,15.84375 L1.0625,15.84375 L1.25,15.171875 L5.59375,15.171875 L5.59375,11.09375 C5.59375,6.1875 4.828125,1.609375 1.03125,-1.578125 L1.34375,-1.921875 C4.203125,-0.078125 5.6875,2.46875 6.4375,5.296875 C7.78125,4.078125 9.28125,2.296875 9.71875,0.890625 C11.46875,-0.28125 12.453125,3.4375 6.546875,5.8125 C6.9375,7.515625 7.078125,9.28125 7.078125,11.09375 L7.078125,15.171875 L11.375,15.171875 C11.71875,15.171875 11.953125,15.265625 12.03125,15.53125 C11.25,16.25 10.0625,17.1875 10.0625,17.1875 L8.96875,15.84375 L7.078125,15.84375 L7.078125,18.90625 C7.6875,19.015625 7.875,19.25 7.921875,19.578125 Z M2.5,14.15625 C2.46875,11.859375 2.09375,8.65625 0.953125,6.234375 L1.21875,5.90625 C2.109375,7.15625 2.734375,8.640625 3.1875,10.078125 C3.578125,9.34375 3.9375,8.5 4.015625,7.828125 C5.09375,6.90625 6.1875,8.953125 3.40625,10.796875 C3.625,11.640625 3.796875,12.453125 3.890625,13.203125 C4.34375,13.171875 4.609375,13.265625 4.6875,13.515625 Z M8.828125,14.109375 C8.6875,11.921875 8.1875,8.859375 7.078125,6.578125 L7.375,6.234375 C8.1875,7.390625 8.828125,8.765625 9.3125,10.078125 C9.9375,9.1875 10.484375,8.0625 10.609375,7.15625 C11.828125,6.140625 12.984375,8.65625 9.53125,10.703125 C9.8125,11.5625 10.03125,12.390625 10.171875,13.125 C10.625,13.078125 10.890625,13.15625 10.96875,13.421875 Z M12.390625,14.921875 L12.390625,2.28125 L12.625,2.28125 C13.296875,2.28125 13.875,2.609375 13.875,2.78125 L13.875,3.53125 L19.875,3.53125 L19.875,2.59375 L20.109375,2.59375 C20.640625,2.59375 21.390625,2.953125 21.40625,3.125 L21.40625,14.015625 C21.796875,14.09375 22.125,14.25 22.265625,14.421875 L20.5,15.796875 L19.65625,14.921875 L16.34375,14.921875 C16.828125,15.671875 17.375,16.6875 17.8125,17.59375 L22.171875,17.59375 C22.53125,17.59375 22.78125,17.71875 22.828125,17.96875 C22.03125,18.703125 20.71875,19.734375 20.71875,19.734375 L19.578125,18.265625 L11.140625,18.265625 L11.328125,17.59375 L15.984375,17.59375 C15.859375,16.734375 15.703125,15.671875 15.546875,14.921875 L13.984375,14.921875 L12.390625,15.671875 Z M19.875,10.75 L19.875,7.875 L13.875,7.875 L13.875,10.75 Z M19.875,11.453125 L13.875,11.453125 L13.875,14.203125 L19.875,14.203125 Z M19.875,7.171875 L19.875,4.21875 L13.875,4.21875 L13.875,7.171875 Z" transform="translate(-0.5390625, 19.828125) scale(1, -1)"/>
</svg>