<svg height="22.609375" viewBox="0 0 24 22.609375" width="24" xmlns="http://www.w3.org/2000/svg">
<path d="M8.875,10.828125 L8.609375,10.65625 C9.484375,9.84375 10.4375,8.453125 10.609375,7.34375 C12.078125,6.1875 13.34375,9.3125 8.875,10.828125 Z M3.484375,10.96875 C2.953125,8.6875 2.015625,6.5 0.953125,5.109375 L1.296875,4.84375 C2.734375,5.96875 3.984375,7.78125 4.828125,9.84375 C5.328125,9.8125 5.59375,10.03125 5.6875,10.296875 Z M9.546875,7.0625 C7.75,2.8125 5.203125,0.3125 1.484375,-1.46875 L1.6875,-1.890625 C5.875,-0.453125 8.765625,1.875 10.875,5.8125 C11.453125,5.734375 11.65625,5.859375 11.8125,6.125 Z M18.078125,2.6875 L17.828125,2.46875 C19.109375,1.46875 20.78125,-0.28125 21.28125,-1.6875 C23.046875,-2.6875 23.90625,0.953125 18.078125,2.6875 Z M15.140625,2.8125 C13.984375,1.25 11.640625,-0.546875 9.59375,-1.578125 L9.8125,-1.9375 C12.21875,-1.21875 15,0.140625 16.421875,1.484375 C16.828125,1.34375 17.09375,1.390625 17.234375,1.609375 Z M6.234375,12.09375 L6.234375,6.59375 C6.234375,6.28125 6.171875,6.1875 5.859375,6.1875 C5.515625,6.1875 3.984375,6.3125 3.984375,6.3125 L3.984375,5.921875 C4.703125,5.8125 5.109375,5.640625 5.359375,5.359375 C5.59375,5.0625 5.65625,4.578125 5.71875,4.078125 C7.484375,4.265625 7.6875,5.09375 7.6875,6.40625 L7.6875,11.25 C8.203125,11.328125 8.421875,11.5 8.5,11.828125 Z M6.234375,19.921875 L6.234375,13.078125 L4.375,13.078125 L4.375,17.1875 C4.890625,17.28125 5.09375,17.5 5.140625,17.8125 L3.03125,18.046875 L3.03125,13.078125 L0.90625,13.078125 L1.109375,12.390625 L11.953125,12.390625 C12.28125,12.390625 12.5,12.5 12.578125,12.765625 C11.859375,13.46875 10.6875,14.40625 10.6875,14.40625 L9.625,13.078125 L7.6875,13.078125 L7.6875,15.8125 L11.375,15.8125 C11.6875,15.8125 11.921875,15.9375 11.96875,16.203125 C11.28125,16.875 10.125,17.828125 10.125,17.828125 L9.078125,16.53125 L7.6875,16.53125 L7.6875,19.03125 C8.25,19.109375 8.5,19.34375 8.546875,19.65625 Z M12.796875,14.734375 L12.796875,2.28125 L13.03125,2.28125 C13.703125,2.28125 14.28125,2.609375 14.28125,2.78125 L14.28125,3.4375 L20.0625,3.4375 L20.0625,2.515625 L20.28125,2.515625 C20.8125,2.515625 21.546875,2.90625 21.578125,3.078125 L21.578125,13.828125 C21.984375,13.890625 22.3125,14.0625 22.46875,14.234375 L20.65625,15.625 L19.84375,14.734375 L16.53125,14.734375 C17.015625,15.5 17.5625,16.578125 18.03125,17.5625 L22.578125,17.5625 C22.9375,17.5625 23.15625,17.6875 23.203125,17.953125 C22.4375,18.671875 21.125,19.703125 21.125,19.703125 L19.984375,18.265625 L11.875,18.265625 L12.078125,17.5625 L16.203125,17.5625 C16.078125,16.625 15.90625,15.53125 15.765625,14.734375 L14.40625,14.734375 L12.796875,15.484375 Z M20.0625,10.578125 L20.0625,7.75 L14.28125,7.75 L14.28125,10.578125 Z M20.0625,11.28125 L14.28125,11.28125 L14.28125,14.015625 L20.0625,14.015625 Z M20.0625,7.0625 L20.0625,4.125 L14.28125,4.125 L14.28125,7.0625 Z" transform="translate(-0.40625, 19.921875) scale(1, -1)"/>
</svg>