<svg height="22.625" viewBox="0 0 24 22.625" width="24" xmlns="http://www.w3.org/2000/svg">
<path d="M18.078125,2.6875 L17.828125,2.46875 C19.109375,1.46875 20.78125,-0.28125 21.28125,-1.6875 C23.046875,-2.6875 23.90625,0.953125 18.078125,2.6875 Z M15.140625,2.8125 C13.984375,1.25 11.640625,-0.546875 9.59375,-1.578125 L9.8125,-1.9375 C12.21875,-1.21875 15,0.140625 16.421875,1.484375 C16.828125,1.34375 17.09375,1.390625 17.234375,1.609375 Z M8.71875,11.359375 C7.4375,9.796875 5.640625,8.296875 3.9375,7.296875 L4.25,6.859375 C6.1875,7.609375 8.28125,8.828125 9.75,10.03125 C10.203125,9.953125 10.421875,10.015625 10.578125,10.21875 Z M9.03125,7.9375 C7.609375,6.171875 5.640625,4.5625 3.671875,3.4375 L3.984375,3 C6.171875,3.890625 8.46875,5.203125 10.078125,6.640625 C10.578125,6.546875 10.78125,6.59375 10.921875,6.8125 Z M9.703125,4.484375 C7.84375,1.84375 5.421875,0.03125 2.5625,-1.25 L2.78125,-1.703125 C5.96875,-0.71875 8.78125,0.84375 10.921875,3.140625 C11.453125,3.046875 11.65625,3.125 11.8125,3.359375 Z M2.09375,12.140625 L2.09375,9.53125 C2.09375,6.234375 2.0625,2.28125 0.640625,-1.125 L0.984375,-1.421875 C3.390625,1.96875 3.53125,6.625 3.53125,9.53125 L3.53125,11.453125 L11.421875,11.453125 C11.765625,11.453125 11.96875,11.5625 12.03125,11.828125 C11.359375,12.5 10.25,13.421875 10.25,13.421875 L9.265625,12.140625 L3.8125,12.140625 L3.28125,12.390625 C4.46875,12.75 5.65625,13.21875 6.75,13.796875 C7.390625,13.34375 7.96875,12.890625 8.359375,12.484375 C9.40625,12.171875 9.75,13.375 8.015625,14.546875 C8.46875,14.828125 8.90625,15.140625 9.28125,15.453125 C9.796875,15.359375 9.984375,15.40625 10.125,15.625 L8.828125,16.390625 L11.6875,16.390625 C12.03125,16.390625 12.234375,16.515625 12.3125,16.75 C11.5625,17.46875 10.375,18.4375 10.375,18.4375 L9.3125,17.09375 L7.078125,17.09375 L7.078125,19.03125 C7.65625,19.125 7.890625,19.375 7.9375,19.6875 L5.546875,19.9375 L5.546875,17.09375 L1.21875,17.09375 L1.421875,16.390625 L8.140625,16.390625 C7.734375,15.953125 7.296875,15.546875 6.8125,15.171875 C5.96875,15.53125 4.875,15.84375 3.484375,16.078125 L3.265625,15.765625 C4.03125,15.4375 4.9375,14.953125 5.8125,14.421875 C4.890625,13.78125 3.90625,13.25 2.921875,12.8125 L3.171875,12.4375 L2.09375,12.90625 Z M12.796875,14.734375 L12.796875,2.296875 L13.03125,2.296875 C13.703125,2.296875 14.28125,2.640625 14.28125,2.828125 L14.28125,3.453125 L20.0625,3.453125 L20.0625,2.609375 L20.28125,2.609375 C20.8125,2.609375 21.546875,2.96875 21.578125,3.140625 L21.578125,13.828125 C21.984375,13.890625 22.3125,14.09375 22.46875,14.25 L20.65625,15.625 L19.84375,14.734375 L16.53125,14.734375 C17.015625,15.5 17.5625,16.578125 18.03125,17.5625 L22.578125,17.5625 C22.9375,17.5625 23.15625,17.6875 23.203125,17.953125 C22.4375,18.671875 21.125,19.703125 21.125,19.703125 L19.984375,18.265625 L11.875,18.265625 L12.078125,17.5625 L16.203125,17.5625 C16.078125,16.625 15.90625,15.53125 15.765625,14.734375 L14.40625,14.734375 L12.796875,15.484375 Z M20.0625,10.578125 L20.0625,7.75 L14.28125,7.75 L14.28125,10.578125 Z M20.0625,11.296875 L14.28125,11.296875 L14.28125,14.046875 L20.0625,14.046875 Z M20.0625,7.0625 L20.0625,4.15625 L14.28125,4.15625 L14.28125,7.0625 Z" transform="translate(-0.2734375, 19.9375) scale(1, -1)"/>
</svg>