<svg height="22.453125" viewBox="0 0 24 22.453125" width="24" xmlns="http://www.w3.org/2000/svg">
<path d="M2.09375,19.125 L1.796875,18.953125 C2.40625,18.234375 3.078125,16.921875 3.09375,15.90625 C4.34375,14.78125 5.8125,17.453125 2.09375,19.125 Z M17.828125,2.5625 L17.609375,2.328125 C19.0625,1.390625 20.953125,-0.34375 21.625,-1.6875 C23.453125,-2.5625 24.125,1.078125 17.828125,2.5625 Z M9.34375,19.203125 C8.921875,17.96875 8.46875,16.625 8.09375,15.796875 L8.5,15.578125 C9.171875,16.203125 9.953125,17.109375 10.609375,17.921875 C11.09375,17.90625 11.375,18.09375 11.46875,18.34375 Z M14.875,2.640625 C13.796875,1.0625 11.59375,-0.578125 9.578125,-1.53125 L9.796875,-1.890625 C12.125,-1.265625 14.765625,0.046875 16.078125,1.390625 C16.484375,1.265625 16.75,1.296875 16.890625,1.53125 Z M5.5,8.359375 C5.5,7.484375 5.46875,6.671875 5.421875,5.859375 L0.984375,5.859375 L1.171875,5.15625 L5.359375,5.15625 C5.046875,2.65625 4.078125,0.453125 0.84375,-1.3125 L1.125,-1.703125 C4.53125,-0.3125 5.921875,1.515625 6.546875,3.53125 C7.78125,2.640625 9.140625,1.34375 9.640625,0.234375 C11.40625,-0.671875 12.171875,2.828125 6.671875,4.015625 C6.765625,4.390625 6.84375,4.78125 6.890625,5.15625 L11.296875,5.15625 C11.640625,5.15625 11.859375,5.28125 11.921875,5.546875 C11.1875,6.234375 10.015625,7.21875 10.015625,7.21875 L8.96875,5.859375 L6.984375,5.859375 L7.078125,7.53125 C7.578125,7.609375 7.78125,7.84375 7.828125,8.140625 Z M5.6875,19.890625 L5.6875,14.90625 L1.015625,14.90625 L1.203125,14.1875 L4.921875,14.1875 C4.015625,12.1875 2.609375,10.375 0.8125,8.96875 L1.078125,8.59375 C2.953125,9.625 4.515625,10.890625 5.6875,12.453125 L5.6875,8.78125 L5.96875,8.78125 C6.484375,8.78125 7.109375,9.125 7.109375,9.3125 L7.109375,12.984375 C8.203125,12.171875 9.59375,10.828125 10.078125,9.765625 C11.71875,8.859375 12.546875,12.125 7.109375,13.390625 L7.109375,14.1875 L11.40625,14.1875 C11.734375,14.1875 11.953125,14.296875 12,14.5625 C11.328125,15.21875 10.25,16.03125 10.25,16.03125 L9.3125,14.90625 L7.109375,14.90625 L7.109375,19.0625 C7.65625,19.15625 7.84375,19.34375 7.890625,19.65625 Z M12.53125,15 L12.53125,2.40625 L12.765625,2.40625 C13.4375,2.40625 14.015625,2.765625 14.015625,2.921875 L14.015625,3.703125 L20.0625,3.703125 L20.0625,2.640625 L20.296875,2.640625 C20.828125,2.640625 21.546875,3.03125 21.578125,3.1875 L21.578125,14.09375 C21.984375,14.15625 22.3125,14.359375 22.46875,14.515625 L20.6875,15.890625 L19.84375,15 L16.421875,15 C16.84375,15.703125 17.359375,16.703125 17.765625,17.640625 L22.375,17.640625 C22.703125,17.640625 22.9375,17.765625 23.015625,18.03125 C22.203125,18.75 20.90625,19.78125 20.90625,19.78125 L19.75,18.34375 L11.78125,18.34375 L11.96875,17.640625 L15.953125,17.640625 C15.90625,16.75 15.8125,15.703125 15.71875,15 L14.140625,15 L12.53125,15.75 Z M20.0625,10.828125 L20.0625,7.984375 L14.015625,7.984375 L14.015625,10.828125 Z M20.0625,11.515625 L14.015625,11.515625 L14.015625,14.296875 L20.0625,14.296875 Z M20.0625,7.265625 L20.0625,4.390625 L14.015625,4.390625 L14.015625,7.265625 Z" transform="translate(-0.46875, 19.890625) scale(1, -1)"/>
</svg>