<svg height="22.703125" viewBox="0 0 24 22.703125" width="24" xmlns="http://www.w3.org/2000/svg">
<path d="M0.953125,4.265625 L1.15625,3.578125 L12.140625,3.578125 C12.484375,3.578125 12.71875,3.703125 12.796875,3.953125 C12.03125,4.65625 10.828125,5.59375 10.828125,5.59375 L9.796875,4.265625 Z M7.984375,3 L7.75,2.78125 C8.734375,2.140625 9.90625,0.859375 10.25,-0.1875 C11.90625,-1.109375 12.84375,2.1875 7.984375,3 Z M4.53125,3.21875 C3.84375,1.734375 2.40625,-0.171875 0.953125,-1.375 L1.203125,-1.703125 C3,-0.796875 4.96875,0.671875 5.921875,1.9375 C6.34375,1.84375 6.59375,1.890625 6.71875,2.109375 Z M18.234375,2.6875 L18.03125,2.5 C19.34375,1.46875 21.078125,-0.28125 21.59375,-1.6875 C23.359375,-2.65625 24.21875,0.984375 18.234375,2.6875 Z M15.125,2.8125 C14.109375,1.3125 12.03125,-0.4375 10.203125,-1.46875 L10.421875,-1.84375 C12.59375,-1.109375 15.140625,0.234375 16.421875,1.46875 C16.796875,1.34375 17.0625,1.390625 17.203125,1.609375 Z M2.734375,14.609375 L2.734375,5.046875 L2.96875,5.046875 C3.59375,5.046875 4.203125,5.375 4.203125,5.546875 L4.203125,6.21875 L9.5,6.21875 L9.5,5.375 L9.71875,5.375 C10.21875,5.375 10.9375,5.765625 10.96875,5.90625 L10.96875,13.75 C11.359375,13.828125 11.65625,13.984375 11.78125,14.140625 L10.109375,15.453125 L9.3125,14.609375 L7.484375,14.609375 L7.484375,16.609375 L11.921875,16.609375 C12.234375,16.609375 12.453125,16.734375 12.53125,16.96875 C11.828125,17.65625 10.65625,18.578125 10.65625,18.578125 L9.625,17.296875 L7.484375,17.296875 L7.484375,19.15625 C8.0625,19.25 8.296875,19.46875 8.359375,19.796875 L6.03125,20.046875 L6.03125,17.296875 L1.515625,17.296875 L1.703125,16.609375 L6.03125,16.609375 L6.03125,14.609375 L4.296875,14.609375 L2.734375,15.34375 Z M9.5,11.328125 L9.5,9.5 L4.203125,9.5 L4.203125,11.328125 Z M9.5,12.046875 L4.203125,12.046875 L4.203125,13.921875 L9.5,13.921875 Z M9.5,8.8125 L9.5,6.90625 L4.203125,6.90625 L4.203125,8.8125 Z M12.9375,15.03125 L12.9375,2.546875 L13.203125,2.546875 C13.84375,2.546875 14.453125,2.90625 14.453125,3.09375 L14.453125,3.75 L20.1875,3.75 L20.1875,2.765625 L20.421875,2.765625 C20.953125,2.765625 21.671875,3.140625 21.703125,3.28125 L21.703125,14.109375 C22.109375,14.1875 22.4375,14.375 22.578125,14.546875 L20.8125,15.90625 L19.96875,15.03125 L16.53125,15.03125 C17.015625,15.796875 17.5625,16.875 18,17.734375 L22.609375,17.734375 C22.9375,17.734375 23.15625,17.859375 23.203125,18.125 C22.4375,18.84375 21.140625,19.875 21.140625,19.875 L20.015625,18.4375 L11.90625,18.4375 L12.09375,17.734375 L16.203125,17.734375 C16.078125,16.890625 15.9375,15.84375 15.796875,15.03125 L14.5625,15.03125 L12.9375,15.796875 Z M20.1875,10.84375 L20.1875,8.046875 L14.453125,8.046875 L14.453125,10.84375 Z M20.1875,11.5625 L14.453125,11.5625 L14.453125,14.328125 L20.1875,14.328125 Z M20.1875,7.3125 L20.1875,4.4375 L14.453125,4.4375 L14.453125,7.3125 Z" transform="translate(-0.5859375, 20.046875) scale(1, -1)"/>
</svg>