<svg height="22.65625" viewBox="0 0 24 22.65625" width="24" xmlns="http://www.w3.org/2000/svg">
<path d="M18.625,2.6875 L18.359375,2.515625 C19.5625,1.46875 21.125,-0.34375 21.59375,-1.6875 C23.328125,-2.734375 24.359375,0.8125 18.625,2.6875 Z M15.359375,2.8125 C14.46875,1.3125 12.671875,-0.4375 10.984375,-1.5625 L11.234375,-1.890625 C13.21875,-1.109375 15.4375,0.3125 16.5625,1.578125 C16.96875,1.484375 17.203125,1.53125 17.328125,1.75 Z M5.296875,2.5625 C4.4375,1.171875 2.65625,-0.484375 1.0625,-1.484375 L1.296875,-1.84375 C3.21875,-1.109375 5.375,0.171875 6.484375,1.34375 C6.890625,1.21875 7.15625,1.265625 7.265625,1.484375 Z M8.5,2.453125 L8.25,2.203125 C9.28125,1.578125 10.578125,0.4375 11.0625,-0.53125 C12.75,-1.265625 13.484375,1.96875 8.5,2.453125 Z M10.21875,19.703125 C8.828125,19.03125 6.234375,18.140625 4.078125,17.59375 L4.078125,19.078125 C4.484375,19.15625 4.734375,19.375 4.75,19.625 L2.640625,19.890625 L2.640625,16.109375 C2.640625,15 2.96875,14.6875 4.9375,14.6875 L7.921875,14.6875 C12.078125,14.6875 12.8125,14.875 12.8125,15.578125 C12.8125,15.84375 12.625,15.984375 12.078125,16.15625 L12,17.375 L11.765625,17.375 C11.5625,16.828125 11.328125,16.3125 11.15625,16.125 C11.046875,16.015625 10.890625,15.984375 10.625,15.953125 C10.265625,15.9375 9.21875,15.9375 8.015625,15.9375 L5.15625,15.9375 C4.15625,15.9375 4.078125,16.015625 4.078125,16.3125 L4.078125,17.109375 C6.453125,17.375 9.265625,17.921875 10.875,18.390625 C11.359375,18.171875 11.546875,18.21875 11.78125,18.40625 Z M1.796875,12.890625 L1.796875,1.65625 L2.09375,1.65625 C2.609375,1.65625 3.234375,1.984375 3.234375,2.1875 L3.234375,2.96875 L12.859375,2.96875 C13.203125,2.96875 13.421875,3.09375 13.484375,3.359375 C12.765625,4.03125 11.640625,4.875 11.640625,4.875 L10.625,3.671875 L3.234375,3.671875 L3.234375,12.046875 C3.765625,12.140625 3.953125,12.359375 4.015625,12.671875 Z M6.21875,12.546875 L10.25,12.546875 L10.25,10.875 L6.21875,10.875 Z M4.828125,13.265625 L4.828125,4.421875 L5.046875,4.421875 C5.765625,4.421875 6.21875,4.78125 6.21875,4.890625 L6.21875,5.546875 L10.25,5.546875 L10.25,4.796875 L10.46875,4.796875 C10.9375,4.796875 11.6875,5.15625 11.71875,5.328125 L11.71875,12.359375 C12.125,12.4375 12.453125,12.59375 12.578125,12.765625 L10.828125,14.109375 L10.0625,13.265625 L6.5,13.265625 L4.828125,13.984375 Z M6.21875,10.171875 L10.25,10.171875 L10.25,8.515625 L6.21875,8.515625 Z M6.21875,7.828125 L10.25,7.828125 L10.25,6.234375 L6.21875,6.234375 Z M13.515625,15 L13.515625,2.5625 L13.734375,2.5625 C14.375,2.5625 14.953125,2.90625 14.953125,3.09375 L14.953125,3.71875 L20.296875,3.71875 L20.296875,2.734375 L20.515625,2.734375 C21.046875,2.734375 21.75,3.125 21.765625,3.265625 L21.765625,14.09375 C22.171875,14.1875 22.53125,14.359375 22.65625,14.515625 L20.921875,15.859375 L20.09375,15 L17.25,15 C17.6875,15.8125 18.171875,16.921875 18.53125,17.828125 L22.578125,17.828125 C22.890625,17.828125 23.140625,17.953125 23.1875,18.21875 C22.421875,18.9375 21.171875,19.921875 21.171875,19.921875 L20.09375,18.53125 L12.546875,18.53125 L12.75,17.828125 L16.78125,17.828125 C16.734375,16.96875 16.609375,15.859375 16.484375,15 L15.078125,15 L13.515625,15.71875 Z M20.296875,10.828125 L20.296875,8.015625 L14.953125,8.015625 L14.953125,10.828125 Z M20.296875,11.546875 L14.953125,11.546875 L14.953125,14.28125 L20.296875,14.28125 Z M20.296875,7.3125 L20.296875,4.421875 L14.953125,4.421875 L14.953125,7.3125 Z" transform="translate(-0.7109375, 19.921875) scale(1, -1)"/>
</svg>