<svg height="22.4375" viewBox="0 0 24 22.4375" width="24" xmlns="http://www.w3.org/2000/svg">
<path d="M1.609375,8.15625 L1.265625,8.046875 C1.84375,6.8125 2.421875,4.921875 2.328125,3.453125 C3.578125,2.140625 5.109375,5.15625 1.609375,8.15625 Z M10.078125,8.421875 C9.84375,7.296875 9.234375,4.96875 8.765625,3.5 L9.046875,3.359375 C9.953125,4.578125 10.9375,6.140625 11.453125,7.0625 C11.921875,7.015625 12.21875,7.21875 12.265625,7.421875 Z M18.03125,2.640625 L17.78125,2.421875 C19.171875,1.4375 21.03125,-0.28125 21.640625,-1.65625 C23.453125,-2.59375 24.1875,1.078125 18.03125,2.640625 Z M15,2.859375 C13.78125,1.265625 11.359375,-0.5 9.234375,-1.53125 L9.453125,-1.890625 C11.921875,-1.171875 14.765625,0.1875 16.21875,1.515625 C16.625,1.390625 16.921875,1.4375 17.015625,1.65625 Z M9.4375,14.203125 L9.4375,11.515625 L3.640625,11.515625 L3.640625,14.203125 Z M9.4375,14.921875 L3.640625,14.921875 L3.640625,17.59375 L9.4375,17.59375 Z M12.640625,15.046875 L12.640625,2.546875 L12.90625,2.546875 C13.578125,2.546875 14.140625,2.90625 14.140625,3.09375 L14.140625,3.671875 L20.15625,3.671875 L20.15625,2.828125 L20.375,2.828125 C20.90625,2.828125 21.625,3.21875 21.640625,3.359375 L21.640625,14.140625 C22.078125,14.203125 22.421875,14.40625 22.5625,14.5625 L20.765625,15.9375 L19.9375,15.046875 L16.53125,15.046875 C17.046875,15.765625 17.59375,16.796875 18.03125,17.71875 L22.4375,17.71875 C22.78125,17.71875 23.015625,17.828125 23.0625,18.09375 C22.265625,18.84375 20.96875,19.84375 20.96875,19.84375 L19.828125,18.40625 L11.5,18.40625 L11.609375,17.96875 L10.03125,19.171875 L9.1875,18.28125 L3.765625,18.28125 L2.15625,19.03125 L2.15625,9.75 L2.421875,9.75 C3,9.75 3.640625,10.109375 3.640625,10.25 L3.640625,10.796875 L9.4375,10.796875 L9.4375,9.984375 L9.640625,9.984375 C10.15625,9.984375 10.921875,10.3125 10.9375,10.4375 L10.9375,17.359375 C11.296875,17.421875 11.609375,17.5625 11.765625,17.71875 L16.21875,17.71875 C16.109375,16.828125 15.9375,15.796875 15.796875,15.046875 L14.25,15.046875 L12.640625,15.796875 Z M0.953125,0.4375 L2.0625,-1.625 C2.28125,-1.578125 2.5,-1.34375 2.59375,-1.0625 C6.8125,0.453125 9.890625,1.734375 12.078125,2.640625 L12,3 L8.46875,2.140625 L8.46875,9.03125 C8.96875,9.125 9.140625,9.28125 9.1875,9.59375 L7.125,9.8125 L7.125,1.796875 L5.65625,1.46875 L5.65625,9 C6.09375,9.09375 6.28125,9.28125 6.3125,9.53125 L4.3125,9.765625 L4.3125,1.15625 C2.875,0.8125 1.703125,0.578125 0.953125,0.4375 Z M20.15625,10.875 L20.15625,8.015625 L14.140625,8.015625 L14.140625,10.875 Z M20.15625,11.59375 L14.140625,11.59375 L14.140625,14.359375 L20.15625,14.359375 Z M20.15625,7.296875 L20.15625,4.375 L14.140625,4.375 L14.140625,7.296875 Z" transform="translate(-0.5703125, 19.84375) scale(1, -1)"/>
</svg>