<svg height="22.609375" viewBox="0 0 24 22.609375" width="24" xmlns="http://www.w3.org/2000/svg">
<path d="M3.578125,16.03125 L3.28125,15.90625 C3.84375,15.078125 4.375,13.6875 4.34375,12.59375 C5.609375,11.359375 7.25,14.09375 3.578125,16.03125 Z M8.90625,11.328125 C7.578125,9.765625 5.71875,8.328125 3.953125,7.3125 L4.25,6.890625 C6.265625,7.625 8.421875,8.78125 9.9375,10.015625 C10.421875,9.9375 10.609375,9.953125 10.75,10.203125 Z M9.3125,7.9375 C7.796875,6.171875 5.71875,4.53125 3.671875,3.4375 L3.953125,3 C6.265625,3.859375 8.640625,5.1875 10.34375,6.640625 C10.828125,6.546875 11.046875,6.578125 11.1875,6.8125 Z M9.90625,4.46875 C7.9375,1.734375 5.328125,-0.140625 2.296875,-1.421875 L2.515625,-1.84375 C5.875,-0.859375 8.828125,0.71875 11.109375,3.125 C11.640625,3 11.859375,3.078125 12.03125,3.34375 Z M18.078125,2.6875 L17.828125,2.46875 C19.109375,1.46875 20.78125,-0.28125 21.28125,-1.6875 C23.046875,-2.6875 23.90625,0.953125 18.078125,2.6875 Z M15.140625,2.8125 C13.984375,1.25 11.640625,-0.546875 9.59375,-1.578125 L9.8125,-1.9375 C12.21875,-1.21875 15,0.140625 16.421875,1.484375 C16.828125,1.34375 17.09375,1.390625 17.234375,1.609375 Z M5.546875,19.921875 L5.546875,16.9375 L1.109375,16.9375 L1.296875,16.25 L11.734375,16.25 C12.078125,16.25 12.28125,16.375 12.359375,16.625 C11.609375,17.328125 10.421875,18.3125 10.421875,18.3125 L9.390625,16.9375 L7.078125,16.9375 L7.078125,19.015625 C7.65625,19.109375 7.890625,19.34375 7.9375,19.65625 Z M2.09375,12.125 L2.09375,9.5 C2.09375,6.21875 2.0625,2.25 0.640625,-1.15625 L0.984375,-1.4375 C3.390625,1.9375 3.53125,6.59375 3.53125,9.5 L3.53125,11.421875 L11.421875,11.421875 C11.765625,11.421875 12,11.546875 12.046875,11.8125 C11.359375,12.484375 10.203125,13.390625 10.203125,13.390625 L9.21875,12.125 L7.703125,12.125 C8.46875,13.078125 9.1875,14.1875 9.671875,15.078125 C10.171875,15.046875 10.484375,15.21875 10.578125,15.484375 L8.328125,16.203125 C8.0625,14.96875 7.5625,13.34375 7.078125,12.125 L3.8125,12.125 L2.09375,12.890625 Z M12.765625,14.78125 L12.765625,2.359375 L13.015625,2.359375 C13.6875,2.359375 14.25,2.6875 14.25,2.859375 L14.25,3.5 L20.046875,3.5 L20.046875,2.609375 L20.28125,2.609375 C20.8125,2.609375 21.53125,2.96875 21.546875,3.140625 L21.546875,13.875 C21.953125,13.9375 22.296875,14.109375 22.4375,14.28125 L20.640625,15.671875 L19.828125,14.78125 L16.53125,14.78125 C17.015625,15.546875 17.5625,16.609375 18.03125,17.5625 L22.578125,17.5625 C22.9375,17.5625 23.15625,17.6875 23.203125,17.953125 C22.4375,18.671875 21.125,19.703125 21.125,19.703125 L19.984375,18.265625 L11.875,18.265625 L12.078125,17.5625 L16.203125,17.5625 C16.078125,16.65625 15.90625,15.578125 15.765625,14.78125 L14.375,14.78125 L12.765625,15.53125 Z M20.046875,10.625 L20.046875,7.796875 L14.25,7.796875 L14.25,10.625 Z M20.046875,11.328125 L14.25,11.328125 L14.25,14.09375 L20.046875,14.09375 Z M20.046875,7.109375 L20.046875,4.203125 L14.25,4.203125 L14.25,7.109375 Z" transform="translate(-0.2734375, 19.921875) scale(1, -1)"/>
</svg>