<svg height="23.0625" viewBox="0 0 24 23.0625" width="24" xmlns="http://www.w3.org/2000/svg">
<path d="M3.078125,2.8125 C2.90625,1.0625 2.15625,-0.078125 1.25,-0.546875 C-0.046875,-2.328125 4.46875,-3.140625 3.453125,2.78125 Z M5.0625,2.921875 L4.734375,2.828125 C5.109375,1.96875 5.140625,0.484375 4.984375,-0.265625 C5.046875,-1.46875 6.40625,-1.15625 6.4375,0.03125 C6.4375,0.984375 5.921875,2.0625 5.0625,2.921875 Z M7.375,3.078125 L7.109375,2.921875 C7.609375,2.15625 7.875,0.890625 7.890625,0.171875 C8.1875,-0.984375 9.453125,-0.484375 9.265625,0.625 C9.09375,1.515625 8.40625,2.40625 7.375,3.078125 Z M9.484375,3.5 L9.265625,3.28125 C10.109375,2.609375 10.703125,1.4375 10.84375,0.703125 C11.40625,-0.4375 12.625,0.390625 12.171875,1.46875 C11.8125,2.328125 10.796875,3.03125 9.484375,3.5 Z M18.625,2.6875 L18.359375,2.515625 C19.5625,1.46875 21.125,-0.34375 21.59375,-1.6875 C23.328125,-2.734375 24.359375,0.8125 18.625,2.6875 Z M15.359375,2.8125 C14.46875,1.3125 12.671875,-0.4375 10.984375,-1.5625 L11.234375,-1.890625 C13.21875,-1.109375 15.4375,0.3125 16.5625,1.578125 C16.96875,1.484375 17.203125,1.53125 17.328125,1.75 Z M10.3125,15.234375 L10.3125,13.53125 L3.703125,13.53125 L3.703125,15.234375 Z M10.3125,15.9375 L3.703125,15.9375 L3.703125,17.640625 L10.3125,17.640625 Z M2.25,18.359375 L2.25,11.765625 L2.453125,11.765625 C3,11.765625 3.578125,12.03125 3.640625,12.171875 C3.34375,11.25 2.90625,10.125 2.546875,9.28125 C2.203125,9.484375 1.75,9.640625 1.203125,9.796875 L0.9375,9.59375 C1.609375,9.078125 2.328125,8.109375 2.46875,7.3125 C3.4375,6.625 4.3125,7.96875 3,9 C3.625,9.640625 4.3125,10.5625 4.84375,11.25 C5.28125,11.25 5.546875,11.421875 5.640625,11.6875 L3.71875,12.359375 L3.703125,12.28125 L3.703125,12.859375 L10.3125,12.859375 L10.3125,11.90625 L10.53125,11.90625 C11.046875,11.90625 11.78125,12.234375 11.828125,12.390625 L11.828125,17.453125 C12.1875,17.546875 12.5,17.71875 12.625,17.859375 L10.921875,19.171875 L10.109375,18.359375 L3.8125,18.359375 L2.25,19.0625 Z M4.75,9.59375 C4.125,8.203125 3.1875,6.4375 2.421875,5.1875 L0.984375,5.15625 L1.6875,3.40625 C1.890625,3.4375 2.109375,3.546875 2.25,3.859375 L5.65625,4.890625 C5.765625,4.5625 5.828125,4.25 5.828125,3.9375 C6.4375,3.359375 7.125,3.8125 7.078125,4.5625 L7.484375,3.53125 C7.734375,3.578125 7.9375,3.703125 8.09375,4.015625 L11.46875,4.921875 C11.5625,4.5625 11.640625,4.203125 11.640625,3.890625 C12.796875,2.828125 14.140625,5.234375 10.84375,6.8125 L10.5625,6.640625 C10.796875,6.3125 11.0625,5.875 11.25,5.421875 L8.71875,5.296875 C9.578125,6.28125 10.484375,7.484375 11.15625,8.46875 C11.609375,8.421875 11.90625,8.59375 12,8.828125 L10.125,9.625 C9.546875,8.25 8.6875,6.484375 7.9375,5.28125 L6.84375,5.25 C6.578125,5.6875 6.078125,6.171875 5.203125,6.578125 L4.921875,6.4375 C5.140625,6.140625 5.359375,5.765625 5.5,5.359375 L3.171875,5.234375 C4.109375,6.21875 5.046875,7.4375 5.734375,8.421875 C6.171875,8.40625 6.484375,8.546875 6.59375,8.78125 Z M8.859375,12.28125 C8.59375,11.421875 8.140625,10.25 7.78125,9.390625 C7.421875,9.59375 6.9375,9.765625 6.34375,9.90625 L6.078125,9.71875 C6.8125,9.171875 7.609375,8.203125 7.828125,7.390625 C8.765625,6.75 9.546875,8.046875 8.28125,9.078125 C8.875,9.703125 9.53125,10.5625 10.015625,11.1875 C10.4375,11.203125 10.6875,11.359375 10.78125,11.609375 Z M13.515625,15.140625 L13.515625,2.71875 L13.734375,2.71875 C14.375,2.71875 14.953125,3.078125 14.953125,3.234375 L14.953125,3.75 L20.296875,3.75 L20.296875,2.921875 L20.515625,2.921875 C21.046875,2.921875 21.75,3.28125 21.765625,3.453125 L21.765625,14.234375 C22.171875,14.328125 22.53125,14.5 22.65625,14.65625 L20.921875,16.03125 L20.09375,15.140625 L17.234375,15.140625 C17.65625,15.90625 18.140625,16.96875 18.5,17.828125 L22.578125,17.828125 C22.890625,17.828125 23.140625,17.953125 23.1875,18.21875 C22.421875,18.9375 21.171875,19.921875 21.171875,19.921875 L20.09375,18.53125 L12.546875,18.53125 L12.75,17.828125 L16.78125,17.828125 C16.734375,17.015625 16.625,15.953125 16.515625,15.140625 L15.078125,15.140625 L13.515625,15.890625 Z M20.296875,10.96875 L20.296875,8.09375 L14.953125,8.09375 L14.953125,10.96875 Z M20.296875,11.65625 L14.953125,11.65625 L14.953125,14.453125 L20.296875,14.453125 Z M20.296875,7.375 L20.296875,4.4375 L14.953125,4.4375 L14.953125,7.375 Z" transform="translate(-0.15625, 19.921875) scale(1, -1)"/>
</svg>