<svg height="21.234375" viewBox="0 0 24 21.234375" width="24" xmlns="http://www.w3.org/2000/svg">
<path d="M22.203125,15.8125 L20.203125,17.40625 C18.90625,15.640625 16.53125,12.703125 14.78125,10.78125 L13.421875,11.15625 C13.375,12.984375 13.4375,15 13.515625,17.1875 C14.0625,17.25 14.40625,17.421875 14.5625,17.59375 L12.59375,19.34375 L11.59375,18.265625 L1.5625,18.265625 L1.78125,17.5625 L11.8125,17.5625 C11.609375,6.1875 11.859375,-0.265625 20.15625,-1.5625 C22.03125,-1.890625 23.015625,-1.828125 23.296875,-1.15625 C23.421875,-0.796875 23.296875,-0.453125 22.515625,0.078125 L22.625,3.640625 L22.34375,3.671875 C22.078125,2.5625 21.8125,1.515625 21.5,0.71875 C21.328125,0.34375 21.1875,0.21875 20.46875,0.34375 C15.078125,1.078125 13.65625,4.75 13.4375,10.625 C15.90625,9.3125 18.984375,7.015625 20.203125,5.15625 C22.296875,4.390625 22.515625,8.28125 15.28125,10.625 C17.296875,12.171875 19.890625,14.359375 21.328125,15.703125 C21.796875,15.546875 22.078125,15.625 22.203125,15.8125 Z" transform="translate(-0.4921875, 19.34375) scale(1, -1)"/>
</svg>