<svg height="22.078125" viewBox="0 0 24 22.078125" width="24" xmlns="http://www.w3.org/2000/svg">
<path d="M2.5625,17.234375 L2.28125,17.09375 C2.8125,16.421875 3.40625,15.234375 3.5,14.375 C4.625,13.390625 5.90625,15.640625 2.5625,17.234375 Z M8.71875,17.609375 C8.46875,16.78125 7.84375,15.171875 7.34375,14.140625 L7.625,13.984375 C8.46875,14.828125 9.3125,15.8125 9.8125,16.46875 C10.265625,16.390625 10.53125,16.625 10.578125,16.828125 Z M21.578125,18.578125 C21.265625,17.953125 20.515625,16.78125 19.9375,15.984375 C19.890625,16.65625 19.890625,17.375 19.921875,18.046875 C20.328125,18.125 20.640625,18.234375 20.8125,18.40625 L19.109375,19.796875 L18.28125,18.9375 L11.28125,18.9375 L11.5,18.234375 L18.484375,18.234375 C18.578125,14.5 18.90625,11.328125 21.046875,10.171875 C21.765625,9.765625 22.6875,9.640625 22.96875,10.21875 C23.109375,10.53125 22.984375,10.78125 22.53125,11.203125 L22.734375,13.578125 L22.4375,13.625 C22.25,12.9375 22.03125,12.265625 21.84375,11.78125 C21.75,11.546875 21.640625,11.5 21.453125,11.59375 C20.546875,12.140625 20.140625,13.734375 19.984375,15.484375 C20.8125,15.046875 21.703125,14.375 22.109375,13.828125 C23.28125,13.3125 23.765625,15.390625 20.46875,15.859375 C21.1875,16.34375 21.890625,16.84375 22.3125,17.203125 C22.75,17.0625 23.09375,17.234375 23.15625,17.40625 Z M13.625,17.65625 C12.765625,16.125 11.5625,14.859375 10.4375,14.09375 L9.671875,14.734375 L8.78125,13.625 L6.890625,13.625 L6.890625,17.96875 C7.84375,18.125 8.71875,18.265625 9.453125,18.40625 C9.984375,18.1875 10.390625,18.171875 10.609375,18.359375 L8.953125,19.984375 C7.25,19.21875 3.953125,18.28125 1.265625,17.875 L1.390625,17.453125 C2.71875,17.5 4.109375,17.609375 5.453125,17.78125 L5.453125,13.625 L0.953125,13.625 L1.15625,12.9375 L4.609375,12.9375 C3.671875,11.109375 2.28125,9.390625 0.625,8.046875 L0.890625,7.65625 C2.6875,8.6875 4.265625,10.03125 5.453125,11.59375 L5.453125,8.046875 L5.6875,8.046875 C6.390625,8.046875 6.890625,8.375 6.890625,8.5 L6.890625,12.234375 C7.75,11.453125 8.828125,10.265625 9.265625,9.40625 C10.6875,8.59375 11.59375,11.25 6.890625,12.671875 L6.890625,12.9375 L10.703125,12.9375 C11.015625,12.9375 11.234375,13.0625 11.296875,13.3125 L10.875,13.734375 C11.421875,13.9375 12,14.203125 12.546875,14.546875 L12.546875,9.9375 L10.625,9.9375 L10.84375,9.21875 L12.546875,9.21875 L12.546875,8.421875 C12.546875,4.703125 12.3125,1.0625 9.703125,-1.734375 L10.0625,-2.015625 C13.578125,0.640625 13.921875,4.6875 13.921875,8.453125 L13.921875,9.21875 L15.53125,9.21875 L15.53125,-1.875 L15.8125,-1.875 C16.3125,-1.875 16.921875,-1.53125 16.921875,-1.3125 L16.921875,9.21875 L18.484375,9.21875 C18.5,4.578125 18.796875,0.21875 21.03125,-1.34375 C21.75,-1.875 22.65625,-2.09375 23.015625,-1.515625 C23.1875,-1.21875 23.0625,-0.890625 22.625,-0.390625 L22.84375,2.359375 L22.5625,2.40625 C22.375,1.65625 22.15625,0.953125 21.9375,0.359375 C21.8125,0.09375 21.75,0.046875 21.53125,0.21875 C20.59375,0.953125 20.15625,3.171875 20.015625,5.515625 C20.828125,4.9375 21.671875,4.125 22.03125,3.484375 C23.28125,2.8125 23.90625,5.046875 20.453125,6 C21.1875,6.5 21.9375,7.0625 22.375,7.4375 C22.796875,7.296875 23.140625,7.46875 23.203125,7.625 L21.640625,8.828125 C21.328125,8.1875 20.5625,6.953125 19.984375,6.140625 C19.9375,7.125 19.9375,8.109375 19.984375,9 C20.421875,9.078125 20.765625,9.21875 20.90625,9.390625 L19.125,10.84375 L18.234375,9.9375 L16.921875,9.9375 L16.921875,16.421875 C17.46875,16.515625 17.640625,16.734375 17.71875,17.015625 L15.53125,17.28125 L15.53125,16.390625 Z M15.53125,9.9375 L13.921875,9.9375 L13.921875,15.5 C14.15625,15.703125 14.40625,15.90625 14.609375,16.15625 C15.046875,16.03125 15.390625,16.125 15.53125,16.296875 Z M5.5,3.53125 L5.5,0.640625 L3.59375,0.640625 L3.59375,3.53125 Z M6.8125,3.53125 L8.6875,3.53125 L8.6875,0.640625 L6.8125,0.640625 Z M5.5,4.203125 L3.59375,4.203125 L3.59375,7.015625 L5.5,7.015625 Z M6.8125,4.203125 L6.8125,7.015625 L8.6875,7.015625 L8.6875,4.203125 Z M2.25,7.703125 L2.25,-1.609375 L2.46875,-1.609375 C3.046875,-1.609375 3.59375,-1.265625 3.59375,-1.125 L3.59375,-0.078125 L8.6875,-0.078125 L8.6875,-1.21875 L8.90625,-1.21875 C9.359375,-1.21875 10.078125,-0.859375 10.109375,-0.71875 L10.109375,6.8125 C10.484375,6.890625 10.84375,7.078125 10.96875,7.21875 L9.265625,8.546875 L8.5,7.703125 L3.71875,7.703125 L2.25,8.40625 Z" transform="translate(-0.265625, 19.984375) scale(1, -1)"/>
</svg>