<svg height="22.046875" viewBox="0 0 24 22.046875" width="24" xmlns="http://www.w3.org/2000/svg">
<path d="M2.765625,12.359375 L2.765625,-1.890625 L3.03125,-1.890625 C3.671875,-1.890625 4.25,-1.53125 4.25,-1.375 L4.25,0.640625 L10.46875,0.640625 L10.609375,0.671875 C10.109375,-0.125 9.484375,-0.859375 8.71875,-1.5625 L9.03125,-1.828125 C13.625,1.078125 14.140625,5.640625 14.140625,10.109375 L14.140625,17.859375 L18.3125,17.859375 L18.3125,0.1875 C18.3125,-0.84375 18.546875,-1.34375 19.84375,-1.34375 L20.8125,-1.34375 C22.734375,-1.34375 23.328125,-1.015625 23.328125,-0.390625 C23.328125,-0.03125 23.203125,0.140625 22.75,0.34375 L22.65625,3.71875 L22.375,3.71875 C22.125,2.5 21.859375,0.765625 21.71875,0.453125 C21.625,0.265625 21.546875,0.234375 21.4375,0.21875 C21.3125,0.1875 21.09375,0.1875 20.828125,0.1875 L20.28125,0.1875 C19.9375,0.1875 19.890625,0.34375 19.890625,0.703125 L19.890625,17.5 C20.453125,17.59375 20.765625,17.71875 20.953125,17.921875 L18.984375,19.609375 L18.046875,18.546875 L14.421875,18.546875 L12.625,19.34375 L12.625,10.078125 C12.625,6.75 12.34375,3.71875 10.890625,1.15625 C10.21875,1.796875 9.28125,2.5625 9.28125,2.5625 L8.328125,1.34375 L4.25,1.34375 L4.25,3.578125 L10.171875,3.578125 C10.515625,3.578125 10.734375,3.703125 10.78125,3.953125 C10.125,4.578125 9.046875,5.453125 9.046875,5.453125 L8.109375,4.25 L4.25,4.25 L4.25,6.40625 L8.65625,6.40625 L8.65625,5.609375 L8.875,5.609375 C9.390625,5.609375 10.109375,5.96875 10.125,6.171875 L10.125,11.5 C10.484375,11.5625 10.796875,11.734375 10.921875,11.90625 L9.234375,13.15625 L8.46875,12.359375 L4.375,12.359375 L2.765625,13.109375 Z M8.65625,9 L8.65625,7.109375 L4.25,7.109375 L4.25,9 Z M8.65625,9.71875 L4.25,9.71875 L4.25,11.65625 L8.65625,11.65625 Z M3.859375,14.640625 L4.03125,14.0625 L9.125,14.0625 C9.453125,14.0625 9.703125,14.1875 9.765625,14.453125 C9.09375,15.078125 8.046875,15.9375 8.046875,15.9375 L7.078125,14.765625 L3.984375,14.765625 C5.15625,16.03125 6.1875,17.421875 6.9375,18.640625 C8.25,17.421875 9.28125,16.015625 9.765625,15.046875 C11.109375,14.046875 12.9375,16.734375 7.375,18.890625 C7.75,18.9375 7.96875,19.078125 8.015625,19.296875 L5.765625,20.15625 C4.890625,17.859375 2.65625,14.28125 0.59375,12.34375 L0.859375,12.078125 C1.921875,12.765625 2.953125,13.6875 3.859375,14.640625 Z" transform="translate(0.0390625, 20.15625) scale(1, -1)"/>
</svg>