<svg height="22.03125" viewBox="0 0 24 22.03125" width="24" xmlns="http://www.w3.org/2000/svg">
<path d="M13.375,19.9375 C12.8125,16.390625 11.609375,12.953125 10.203125,10.6875 L10.53125,10.4375 C11.15625,11.0625 11.71875,11.78125 12.234375,12.578125 L12.234375,0.53125 C12.234375,-0.84375 12.796875,-1.25 14.875,-1.25 L17.921875,-1.25 C22.21875,-1.25 23.109375,-1.015625 23.109375,-0.265625 C23.109375,0.046875 22.9375,0.1875 22.375,0.40625 L22.296875,3.4375 L21.984375,3.4375 C21.703125,2.09375 21.40625,0.84375 21.234375,0.484375 C21.125,0.28125 21,0.21875 20.65625,0.171875 C20.28125,0.140625 19.265625,0.125 17.953125,0.125 L15.078125,0.125 C13.921875,0.125 13.78125,0.3125 13.78125,0.84375 L13.78125,7.0625 L16.828125,7.0625 L16.828125,5.90625 L17.046875,5.90625 C17.5625,5.90625 18.265625,6.3125 18.28125,6.5 L18.28125,12.046875 C18.625,12.09375 18.9375,12.265625 19.0625,12.4375 L17.40625,13.703125 L16.625,12.890625 L14.046875,12.890625 L12.765625,13.46875 C13.171875,14.15625 13.53125,14.90625 13.84375,15.703125 L20.609375,15.703125 C20.515625,8.96875 20.359375,5.5 19.78125,4.84375 C19.609375,4.625 19.421875,4.578125 19.015625,4.578125 C18.578125,4.578125 17.296875,4.703125 16.515625,4.78125 L16.515625,4.375 C17.203125,4.25 18,4.0625 18.234375,3.8125 C18.546875,3.578125 18.625,3.140625 18.625,2.6875 C19.484375,2.6875 20.328125,2.96875 20.859375,3.625 C21.75,4.65625 21.984375,8.109375 22.0625,15.53125 C22.5625,15.59375 22.828125,15.703125 23.015625,15.90625 L21.234375,17.375 L20.375,16.421875 L14.140625,16.421875 C14.453125,17.1875 14.71875,18 14.921875,18.8125 C15.453125,18.8125 15.703125,19.0625 15.796875,19.34375 Z M16.828125,7.75 L13.78125,7.75 L13.78125,12.1875 L16.828125,12.1875 Z M8.296875,9.03125 L8.296875,7.125 L4.21875,7.125 L4.21875,9.03125 Z M8.296875,9.75 L4.21875,9.75 L4.21875,11.6875 L8.296875,11.6875 Z M2.734375,12.359375 L2.734375,-1.890625 L3,-1.890625 C3.640625,-1.890625 4.21875,-1.53125 4.21875,-1.375 L4.21875,0.640625 L10.109375,0.640625 C10.4375,0.640625 10.625,0.765625 10.703125,1.03125 C10.03125,1.703125 8.921875,2.5625 8.921875,2.5625 L7.96875,1.34375 L4.21875,1.34375 L4.21875,3.578125 L9.765625,3.578125 C10.109375,3.578125 10.34375,3.703125 10.421875,3.953125 C9.71875,4.609375 8.640625,5.453125 8.640625,5.453125 L7.703125,4.265625 L4.21875,4.265625 L4.21875,6.4375 L8.296875,6.4375 L8.296875,5.640625 L8.515625,5.640625 C9,5.640625 9.71875,6 9.75,6.1875 L9.75,11.515625 C10.109375,11.59375 10.4375,11.765625 10.53125,11.921875 L8.859375,13.171875 L8.109375,12.359375 L4.34375,12.359375 L2.734375,13.125 Z M3.84375,14.71875 L4.015625,14.109375 L8.765625,14.109375 C9.046875,14.109375 9.28125,14.234375 9.34375,14.5 C8.6875,15.125 7.625,15.984375 7.625,15.984375 L6.703125,14.8125 L3.9375,14.8125 C5.0625,16.078125 6.046875,17.46875 6.71875,18.671875 C7.96875,17.515625 8.953125,16.15625 9.4375,15.1875 C10.734375,14.234375 12.484375,16.796875 7.125,18.90625 C7.515625,18.953125 7.703125,19.109375 7.78125,19.34375 L5.5,20.140625 C4.703125,17.859375 2.59375,14.28125 0.625,12.34375 L0.90625,12.078125 C1.9375,12.796875 2.953125,13.703125 3.84375,14.71875 Z" transform="translate(0.1328125, 20.140625) scale(1, -1)"/>
</svg>