<svg height="22.046875" viewBox="0 0 24 22.046875" width="24" xmlns="http://www.w3.org/2000/svg">
<path d="M12.453125,7.828125 L12.453125,-1.75 L12.703125,-1.75 C13.484375,-1.75 13.96875,-1.390625 13.96875,-1.265625 L13.96875,0.21875 L19.96875,0.21875 L19.96875,-1.5625 L20.234375,-1.5625 C20.953125,-1.5625 21.546875,-1.21875 21.546875,-1.109375 L21.546875,7.03125 C22.015625,7.109375 22.265625,7.203125 22.4375,7.421875 L20.6875,8.765625 L19.890625,7.828125 L14.234375,7.828125 L12.453125,8.59375 Z M13.96875,0.90625 L13.96875,7.125 L19.96875,7.125 L19.96875,0.90625 Z M2.765625,12.3125 L2.765625,-1.890625 L3.03125,-1.890625 C3.671875,-1.890625 4.25,-1.53125 4.25,-1.34375 L4.25,0.578125 L10.46875,0.578125 C10.78125,0.578125 10.984375,0.703125 11.0625,0.9375 C10.375,1.609375 9.28125,2.5 9.28125,2.5 L8.328125,1.265625 L4.25,1.265625 L4.25,3.53125 L10.125,3.53125 C10.46875,3.53125 10.6875,3.640625 10.734375,3.90625 C10.078125,4.53125 9,5.40625 9,5.40625 L8.0625,4.21875 L4.25,4.21875 L4.25,6.390625 L8.640625,6.390625 L8.640625,5.59375 L8.859375,5.59375 C9.359375,5.59375 10.109375,5.953125 10.109375,6.140625 L10.109375,11.46875 C10.46875,11.546875 10.734375,11.6875 10.84375,11.8125 L11.828125,9.8125 C12.078125,9.859375 12.28125,10.03125 12.40625,10.296875 C15.984375,10.921875 18.671875,11.421875 20.71875,11.828125 C21.03125,11.109375 21.265625,10.421875 21.359375,9.765625 C23.109375,8.328125 24.453125,12.453125 18.453125,15.90625 L18.171875,15.75 C18.9375,14.828125 19.796875,13.625 20.421875,12.390625 L14.046875,12 C15.21875,13.9375 16.296875,16.484375 17.109375,18.890625 C17.640625,18.890625 17.90625,19.125 17.96875,19.421875 L15.390625,20.09375 C14.875,17.328125 14.0625,14.234375 13.296875,11.953125 L10.890625,11.859375 L9.21875,13.125 L8.46875,12.3125 L4.375,12.3125 L2.765625,13.078125 Z M8.640625,8.96875 L8.640625,7.109375 L4.25,7.109375 L4.25,8.96875 Z M8.640625,9.703125 L4.25,9.703125 L4.25,11.609375 L8.640625,11.609375 Z M3.859375,14.640625 L4.03125,14.0625 L9.125,14.0625 C9.453125,14.0625 9.703125,14.1875 9.765625,14.453125 C9.09375,15.078125 8.046875,15.9375 8.046875,15.9375 L7.078125,14.765625 L3.984375,14.765625 C5.15625,16.03125 6.1875,17.421875 6.9375,18.640625 C8.25,17.421875 9.28125,16.015625 9.765625,15.046875 C11.109375,14.046875 12.9375,16.734375 7.375,18.890625 C7.75,18.9375 7.96875,19.078125 8.015625,19.296875 L5.765625,20.15625 C4.890625,17.859375 2.65625,14.28125 0.59375,12.34375 L0.859375,12.078125 C1.921875,12.765625 2.953125,13.6875 3.859375,14.640625 Z" transform="translate(-0.5234375, 20.15625) scale(1, -1)"/>
</svg>