<svg height="22" viewBox="0 0 24 22" width="24" xmlns="http://www.w3.org/2000/svg">
<path d="M13.578125,20.140625 C13.03125,16.890625 11.875,13.84375 10.515625,11.859375 L10.875,11.609375 C12,12.625 12.953125,14.015625 13.75,15.59375 L16.15625,15.59375 L16.15625,12.09375 L13.6875,12.09375 L12.046875,12.796875 L11.96875,12.640625 L11.96875,0.71875 L12.1875,0.71875 C12.90625,0.71875 13.390625,1.078125 13.390625,1.21875 L13.390625,11.40625 L16.15625,11.40625 L16.15625,-1.84375 L16.390625,-1.84375 C17.0625,-1.84375 17.609375,-1.4375 17.609375,-1.265625 L17.609375,11.40625 L20.5625,11.40625 L20.5625,3.21875 C20.5625,2.921875 20.5,2.8125 20.1875,2.8125 C19.828125,2.8125 18.484375,2.921875 18.484375,2.921875 L18.484375,2.546875 C19.15625,2.453125 19.53125,2.25 19.75,2.015625 C19.96875,1.78125 20.0625,1.375 20.0625,0.90625 C21.84375,1.109375 22.03125,1.828125 22.03125,3.046875 L22.03125,11.15625 C22.46875,11.234375 22.828125,11.421875 22.96875,11.609375 L21.09375,12.984375 L20.359375,12.09375 L17.609375,12.09375 L17.609375,15.59375 L22.53125,15.59375 C22.875,15.59375 23.109375,15.71875 23.15625,15.984375 C22.375,16.75 21.078125,17.78125 21.078125,17.78125 L19.890625,16.3125 L14.09375,16.3125 C14.46875,17.15625 14.8125,18.046875 15.078125,18.984375 C15.59375,18.984375 15.84375,19.21875 15.9375,19.515625 Z M2.953125,13.21875 L2.953125,0.75 C2.15625,0.5 1.484375,0.3125 1.03125,0.1875 L2.15625,-1.78125 C2.375,-1.6875 2.5625,-1.46875 2.640625,-1.171875 C5.140625,0.125 7.0625,1.203125 8.515625,2.015625 C8.921875,1.3125 9.28125,0.625 9.453125,0 C10.96875,-1.125 12.125,2.140625 7.015625,4.609375 L6.703125,4.4375 C7.203125,3.890625 7.75,3.1875 8.234375,2.453125 L4.390625,1.203125 L4.390625,6.171875 L8.46875,6.171875 L8.46875,5.25 L8.734375,5.25 C9.28125,5.25 9.84375,5.5625 9.890625,5.640625 L9.890625,12.265625 C10.265625,12.34375 10.578125,12.53125 10.75,12.703125 L9.234375,14.046875 L8.515625,13.21875 L7.078125,13.21875 L7.078125,15.234375 C7.515625,15.3125 7.6875,15.5 7.734375,15.796875 L5.640625,16.015625 L5.640625,13.21875 L4.515625,13.21875 L3.046875,13.890625 C4.53125,15.40625 5.828125,17.15625 6.703125,18.640625 C7.96875,17.421875 8.96875,16.015625 9.40625,15.03125 C10.703125,14.046875 12.53125,16.625 7.078125,18.90625 C7.484375,18.9375 7.703125,19.078125 7.78125,19.3125 L5.5,20.15625 C4.6875,17.859375 2.5625,14.28125 0.578125,12.3125 L0.859375,12.046875 C1.578125,12.546875 2.28125,13.15625 2.953125,13.796875 Z M4.390625,9.390625 L8.46875,9.390625 L8.46875,6.890625 L4.390625,6.890625 Z M4.390625,10.109375 L4.390625,12.5 L8.46875,12.5 L8.46875,10.109375 Z" transform="translate(0.1328125, 20.15625) scale(1, -1)"/>
</svg>