<svg height="22.046875" viewBox="0 0 24 22.046875" width="24" xmlns="http://www.w3.org/2000/svg">
<path d="M11.421875,14.859375 L11.609375,14.15625 L18.390625,14.15625 C18.71875,14.15625 18.9375,14.28125 19.015625,14.546875 C18.28125,15.21875 17.1875,16.078125 17.1875,16.078125 L16.171875,14.859375 Z M12.03125,11.421875 L12.03125,2.296875 L12.265625,2.296875 C12.859375,2.296875 13.421875,2.640625 13.421875,2.765625 L13.421875,4.921875 L16.390625,4.921875 L16.390625,3.390625 L16.578125,3.390625 C17.0625,3.390625 17.765625,3.796875 17.78125,4.015625 L17.78125,10.578125 C18.140625,10.625 18.4375,10.796875 18.53125,10.96875 L16.921875,12.1875 L16.203125,11.421875 L13.53125,11.421875 L12.03125,12.125 Z M16.390625,5.609375 L13.421875,5.609375 L13.421875,10.703125 L16.390625,10.703125 Z M10.890625,18.40625 L11.109375,17.71875 L20.25,17.71875 L20.25,0.640625 C20.25,0.21875 20.109375,0.046875 19.578125,0.046875 C19.015625,0.046875 15.984375,0.28125 15.984375,0.28125 L15.984375,-0.09375 C17.25,-0.265625 17.96875,-0.453125 18.4375,-0.71875 C18.8125,-0.984375 18.984375,-1.390625 19.0625,-1.890625 C21.5,-1.65625 21.765625,-0.796875 21.765625,0.453125 L21.765625,17.296875 C22.3125,17.40625 22.796875,17.609375 22.984375,17.859375 L20.828125,19.484375 L19.96875,18.40625 Z M3,13.21875 L3,0.765625 L1.015625,0.21875 L2.15625,-1.78125 C2.359375,-1.6875 2.546875,-1.46875 2.609375,-1.171875 C5.1875,0.125 7.125,1.21875 8.609375,2.0625 C9.078125,1.34375 9.4375,0.625 9.59375,0 C11.1875,-1.125 12.3125,2.234375 7.03125,4.6875 L6.75,4.515625 C7.25,3.953125 7.84375,3.21875 8.359375,2.46875 L4.4375,1.21875 L4.4375,6.1875 L8.5625,6.1875 L8.5625,5.28125 L8.828125,5.28125 C9.359375,5.28125 9.9375,5.59375 9.984375,5.65625 L9.984375,12.265625 C10.375,12.34375 10.6875,12.53125 10.84375,12.703125 L9.34375,14.046875 L8.5625,13.21875 L7.125,13.21875 L7.125,15.234375 C7.5625,15.3125 7.734375,15.5 7.78125,15.796875 L5.6875,16.015625 L5.6875,13.21875 L4.5625,13.21875 L3.078125,13.921875 C4.578125,15.40625 5.875,17.140625 6.75,18.625 C8.015625,17.40625 9,15.984375 9.484375,15.03125 C10.78125,13.984375 12.59375,16.609375 7.15625,18.890625 C7.5625,18.90625 7.78125,19.078125 7.84375,19.296875 L5.5625,20.15625 C4.75,17.859375 2.59375,14.28125 0.578125,12.3125 L0.84375,12.046875 C1.578125,12.546875 2.296875,13.171875 3,13.84375 Z M4.4375,9.40625 L8.5625,9.40625 L8.5625,6.90625 L4.4375,6.90625 Z M4.4375,10.109375 L4.4375,12.5 L8.5625,12.5 L8.5625,10.109375 Z" transform="translate(0.21875, 20.15625) scale(1, -1)"/>
</svg>