<svg height="22.046875" viewBox="0 0 24 22.046875" width="24" xmlns="http://www.w3.org/2000/svg">
<path d="M19.171875,12.84375 L19.171875,8.734375 L14.1875,8.734375 L14.1875,12.84375 Z M19.171875,13.53125 L14.1875,13.53125 L14.1875,17.5 L19.171875,17.5 Z M19.171875,8.046875 L19.171875,4.109375 L14.1875,3.484375 L14.1875,8.046875 Z M10.4375,3 L10.734375,2.328125 L19.171875,3.40625 L19.171875,-1.875 L19.421875,-1.875 C20.1875,-1.875 20.6875,-1.484375 20.6875,-1.375 L20.6875,3.59375 L22.890625,3.890625 C23.234375,3.9375 23.421875,4.0625 23.453125,4.3125 C22.75,4.96875 21.484375,5.859375 21.484375,5.859375 L20.6875,4.296875 L20.6875,17.5 L22.734375,17.5 C23.0625,17.5 23.28125,17.609375 23.359375,17.875 C22.578125,18.59375 21.3125,19.625 21.3125,19.625 L20.203125,18.1875 L10.578125,18.1875 L10.78125,17.5 L12.703125,17.5 L12.703125,3.28125 Z M8.6875,9 L8.6875,7.109375 L4.265625,7.109375 L4.265625,9 Z M8.6875,9.703125 L4.265625,9.703125 L4.265625,11.65625 L8.6875,11.65625 Z M2.765625,12.34375 L2.765625,-1.890625 L3.03125,-1.890625 C3.671875,-1.890625 4.265625,-1.53125 4.265625,-1.34375 L4.265625,0.625 L10.515625,0.625 C10.84375,0.625 11.09375,0.75 11.140625,0.984375 C10.46875,1.65625 9.390625,2.546875 9.390625,2.546875 L8.421875,1.3125 L4.265625,1.3125 L4.265625,3.53125 L10.203125,3.53125 C10.515625,3.53125 10.75,3.640625 10.796875,3.90625 C10.15625,4.5625 9.078125,5.40625 9.078125,5.40625 L8.140625,4.21875 L4.265625,4.21875 L4.265625,6.390625 L8.6875,6.390625 L8.6875,5.59375 L8.90625,5.59375 C9.40625,5.59375 10.125,5.953125 10.15625,6.140625 L10.15625,11.5 C10.484375,11.5625 10.828125,11.734375 10.9375,11.875 L9.265625,13.15625 L8.5,12.34375 L4.375,12.34375 L2.765625,13.109375 Z M3.8125,14.65625 L3.984375,14.0625 L9,14.0625 C9.34375,14.0625 9.546875,14.1875 9.625,14.453125 C8.96875,15.078125 7.96875,15.90625 7.96875,15.90625 L7.03125,14.78125 L3.9375,14.78125 C5.09375,16.03125 6.09375,17.40625 6.84375,18.59375 C8.1875,17.375 9.234375,15.9375 9.75,14.953125 C11.046875,14.015625 12.796875,16.609375 7.21875,18.859375 C7.65625,18.90625 7.84375,19.078125 7.921875,19.296875 L5.65625,20.15625 C4.828125,17.859375 2.59375,14.25 0.546875,12.3125 L0.84375,12.046875 C1.890625,12.765625 2.90625,13.6875 3.8125,14.65625 Z" transform="translate(0, 20.15625) scale(1, -1)"/>
</svg>