<svg height="22.046875" viewBox="0 0 24 22.046875" width="24" xmlns="http://www.w3.org/2000/svg">
<path d="M12.3125,19.875 L12.03125,19.703125 C12.90625,18.546875 13.921875,16.75 14.046875,15.3125 C15.59375,13.984375 17.109375,17.546875 12.3125,19.875 Z M19.0625,19.984375 C18.59375,18.21875 17.90625,16.296875 17.28125,15.078125 L17.640625,14.875 C18.703125,15.796875 19.796875,17.234375 20.609375,18.671875 C21.09375,18.640625 21.40625,18.84375 21.5,19.125 Z M18.078125,13.9375 L18.078125,8.734375 L15.03125,8.734375 C15.078125,10.296875 15.078125,12.03125 15.09375,13.9375 Z M10.421875,8.734375 L10.609375,8.046875 L13.390625,8.046875 C13.21875,3.671875 12.453125,0.71875 9.359375,-1.4375 L9.71875,-1.84375 C13.734375,0.265625 14.71875,3.3125 14.96875,8.046875 L18.078125,8.046875 L18.078125,-1.828125 L18.34375,-1.828125 C19.125,-1.828125 19.65625,-1.4375 19.65625,-1.3125 L19.65625,8.046875 L22.703125,8.046875 C23.046875,8.046875 23.234375,8.15625 23.296875,8.421875 C22.609375,9.140625 21.4375,10.171875 21.4375,10.171875 L20.40625,8.734375 L19.65625,8.734375 L19.65625,13.9375 L22.21875,13.9375 C22.5625,13.9375 22.796875,14.0625 22.875,14.328125 C22.125,15.046875 20.90625,15.984375 20.90625,15.984375 L19.84375,14.65625 L11.09375,14.65625 L11.28125,13.9375 L13.4375,13.9375 C13.4375,12.03125 13.46875,10.296875 13.421875,8.734375 Z M2.96875,13.5625 L2.96875,1.21875 L1.015625,0.671875 L2.140625,-1.296875 C2.375,-1.203125 2.546875,-1.015625 2.59375,-0.71875 C5.28125,0.625 7.265625,1.75 8.6875,2.546875 C9.03125,1.9375 9.28125,1.375 9.40625,0.8125 C11.046875,-0.390625 12.234375,3.140625 6.8125,5.5625 L6.546875,5.375 C7.171875,4.703125 7.890625,3.84375 8.46875,2.90625 L4.46875,1.65625 L4.46875,6.671875 L8.5625,6.671875 L8.5625,5.59375 L8.859375,5.59375 C9.40625,5.59375 10.015625,5.90625 10.078125,6 L10.078125,12.625 C10.46875,12.703125 10.75,12.890625 10.921875,13.0625 L9.390625,14.421875 L8.5625,13.5625 L7.25,13.5625 L7.25,15.453125 C7.6875,15.53125 7.84375,15.71875 7.890625,15.984375 L5.8125,16.21875 L5.8125,13.5625 L4.5625,13.5625 L3.359375,14.15625 C4.78125,15.625 6.03125,17.296875 6.859375,18.765625 C8.25,17.453125 9.40625,15.9375 9.984375,14.96875 C11.359375,13.96875 13.296875,16.578125 7.0625,19.078125 C7.65625,19.109375 7.921875,19.265625 7.984375,19.53125 L5.546875,20.203125 C4.734375,17.90625 2.65625,14.359375 0.671875,12.34375 L0.953125,12.09375 C1.65625,12.578125 2.328125,13.15625 2.96875,13.796875 Z M4.46875,9.8125 L8.5625,9.8125 L8.5625,7.375 L4.46875,7.375 Z M4.46875,10.515625 L4.46875,12.890625 L8.5625,12.890625 L8.5625,10.515625 Z" transform="translate(0.015625, 20.203125) scale(1, -1)"/>
</svg>