<svg height="22.03125" viewBox="0 0 24 22.03125" width="24" xmlns="http://www.w3.org/2000/svg">
<path d="M8.828125,9.9375 L9,9.21875 L14.421875,9.21875 C14.734375,9.21875 14.953125,9.34375 15.03125,9.59375 C14.375,10.171875 13.375,10.890625 13.375,10.890625 L12.5,9.9375 Z M13.6875,16.828125 L13.46875,16.53125 C14.546875,16.0625 15.84375,15.34375 17.0625,14.546875 C16.203125,13.6875 15.171875,12.9375 13.96875,12.34375 C13.53125,12.640625 13.125,12.984375 12.765625,13.34375 C13.390625,13.390625 13.6875,13.484375 13.734375,13.75 L11.0625,14.296875 C9.71875,11.640625 4.921875,8.140625 0.765625,6.578125 L0.90625,6.1875 C2.640625,6.71875 4.375,7.46875 6,8.328125 L6,0.34375 L2.65625,0.09375 L3.75,-1.84375 C3.984375,-1.796875 4.171875,-1.625 4.296875,-1.3125 C8.109375,-0.578125 10.828125,0.046875 12.703125,0.5 L12.640625,0.90625 L7.515625,0.453125 L7.515625,3.234375 L11.546875,3.234375 C13.5625,0.40625 17.0625,-0.953125 21.640625,-1.65625 C21.796875,-0.90625 22.21875,-0.4375 22.875,-0.28125 L22.84375,-0.03125 C20.546875,0.125 18.359375,0.4375 16.484375,1.015625 C17.921875,1.515625 19.421875,2.15625 20.328125,2.6875 C20.828125,2.515625 21.046875,2.59375 21.234375,2.828125 L19.390625,4.078125 C18.53125,3.28125 16.984375,2.140625 15.59375,1.296875 C14.28125,1.78125 13.125,2.421875 12.265625,3.234375 L15.84375,3.234375 L15.84375,2.78125 L16.078125,2.78125 C16.578125,2.78125 17.328125,3.140625 17.359375,3.34375 L17.359375,7.265625 C17.71875,7.3125 18.03125,7.484375 18.140625,7.625 L16.4375,8.90625 L15.640625,8.109375 L7.796875,8.109375 L6.546875,8.640625 C8.953125,9.984375 11.046875,11.546875 12.3125,13.0625 C14.1875,10.4375 17.90625,8.234375 21.765625,6.953125 C21.890625,7.484375 22.46875,8.015625 23.109375,8.140625 L23.140625,8.5 C19.921875,9.265625 16.703125,10.484375 14.421875,12.03125 C15.796875,12.53125 16.96875,13.15625 18,13.921875 C19.390625,12.9375 20.59375,11.859375 21.234375,10.875 C22.796875,10.34375 23.015625,12.703125 19.078125,14.828125 C19.984375,15.71875 20.6875,16.703125 21.1875,17.765625 C21.71875,17.8125 21.953125,17.859375 22.125,18.078125 L20.375,19.5625 L19.34375,18.59375 L13.171875,18.59375 L13.390625,17.90625 L19.3125,17.90625 C18.953125,17.046875 18.484375,16.21875 17.859375,15.453125 C16.734375,15.9375 15.359375,16.421875 13.6875,16.828125 Z M15.84375,7.421875 L15.84375,6.046875 L7.515625,6.046875 L7.515625,7.421875 Z M15.84375,5.375 L15.84375,3.953125 L7.515625,3.953125 L7.515625,5.375 Z M4.6875,17.15625 C3.90625,15.796875 2.5,14.25 1.125,13.375 L1.34375,13.015625 C2.40625,13.390625 3.4375,14.015625 4.3125,14.6875 C4.984375,14.296875 5.65625,13.625 5.90625,13.0625 C6.171875,12.90625 6.4375,12.90625 6.625,12.953125 C5.046875,11.71875 3.09375,10.703125 0.9375,10.015625 L1.109375,9.59375 C5.71875,10.703125 9.125,12.8125 11.0625,15.71875 C11.609375,15.75 11.90625,15.8125 12.078125,16.015625 L10.4375,17.46875 L9.4375,16.578125 L8.046875,16.578125 L8.046875,17.8125 L11.6875,17.8125 C12.03125,17.8125 12.21875,17.921875 12.28125,18.1875 C11.609375,18.796875 10.53125,19.578125 10.53125,19.578125 L9.640625,18.484375 L8.046875,18.484375 L8.046875,19.375 C8.546875,19.46875 8.734375,19.6875 8.78125,19.9375 L6.59375,20.1875 L6.59375,16.578125 L6.234375,16.578125 Z M9.265625,15.859375 C8.65625,14.90625 7.875,14.015625 6.9375,13.21875 C7.375,13.75 7.015625,14.921875 4.828125,15.078125 C5.140625,15.34375 5.421875,15.59375 5.6875,15.859375 Z" transform="translate(0.046875, 20.1875) scale(1, -1)"/>
</svg>