<svg height="22.03125" viewBox="0 0 24 22.03125" width="24" xmlns="http://www.w3.org/2000/svg">
<path d="M4.734375,17.15625 C3.9375,15.8125 2.515625,14.296875 1.125,13.4375 L1.34375,13.078125 C2.375,13.46875 3.40625,14.0625 4.3125,14.71875 C4.984375,14.296875 5.65625,13.625 5.921875,13.015625 C6.140625,12.890625 6.359375,12.859375 6.53125,12.890625 C4.96875,11.71875 3.078125,10.734375 1.03125,10.03125 L1.21875,9.640625 C5.71875,10.78125 9.171875,12.9375 11.15625,15.765625 C11.734375,15.765625 12,15.84375 12.1875,16.03125 L10.5625,17.46875 L9.578125,16.578125 L8.046875,16.578125 L8.046875,17.8125 L11.6875,17.8125 C12.03125,17.8125 12.21875,17.921875 12.28125,18.1875 C11.609375,18.796875 10.53125,19.578125 10.53125,19.578125 L9.640625,18.484375 L8.046875,18.484375 L8.046875,19.375 C8.546875,19.46875 8.734375,19.6875 8.78125,19.9375 L6.59375,20.1875 L6.59375,16.578125 L6.265625,16.578125 Z M12.34375,12.984375 C13.296875,11.71875 14.734375,10.515625 16.421875,9.453125 L15.984375,9 L12.71875,9 L12.71875,10.265625 C13.15625,10.34375 13.3125,10.515625 13.34375,10.78125 L11.203125,10.984375 L11.203125,9 L8.140625,9 L7.515625,9.265625 C9.484375,10.4375 11.203125,11.765625 12.34375,12.984375 Z M19.421875,4.078125 C18.53125,3.28125 16.84375,2.203125 15.390625,1.515625 C14.15625,2.015625 13.125,2.65625 12.34375,3.484375 L16.171875,3.484375 L16.171875,3.03125 L16.421875,3.03125 C16.921875,3.03125 17.71875,3.390625 17.71875,3.546875 L17.71875,8.1875 C17.953125,8.203125 18.171875,8.296875 18.3125,8.40625 C19.421875,7.84375 20.59375,7.34375 21.765625,6.953125 C21.90625,7.484375 22.4375,7.984375 23.140625,8.140625 L23.15625,8.5 C19.828125,9.28125 16.46875,10.609375 14.109375,12.21875 C15.5,12.703125 16.75,13.296875 17.828125,13.984375 C19.265625,12.953125 20.5625,11.828125 21.234375,10.828125 C22.75,10.3125 22.96875,12.625 18.953125,14.859375 C19.9375,15.703125 20.765625,16.6875 21.328125,17.765625 C21.859375,17.8125 22.109375,17.859375 22.296875,18.046875 L20.546875,19.5625 L19.484375,18.59375 L13.203125,18.59375 L13.421875,17.90625 L19.4375,17.90625 C19.015625,17.046875 18.4375,16.21875 17.734375,15.453125 C16.609375,15.953125 15.234375,16.46875 13.578125,16.890625 L13.375,16.578125 C14.453125,16.109375 15.703125,15.40625 16.890625,14.640625 C15.953125,13.796875 14.859375,13.109375 13.625,12.546875 C13.3125,12.796875 13.03125,13.03125 12.765625,13.265625 C13.390625,13.296875 13.65625,13.4375 13.75,13.65625 L11.046875,14.234375 C9.703125,11.6875 4.796875,8.1875 0.765625,6.625 L0.90625,6.28125 C2.734375,6.859375 4.609375,7.6875 6.34375,8.609375 L6.34375,0.40625 C4.875,0.265625 3.703125,0.140625 2.90625,0.09375 L3.890625,-1.84375 C4.125,-1.796875 4.34375,-1.609375 4.4375,-1.3125 C8.359375,-0.453125 11.1875,0.234375 13.203125,0.796875 L13.15625,1.15625 L7.828125,0.578125 L7.828125,3.484375 L11.640625,3.484375 C13.625,0.484375 17.15625,-0.984375 21.703125,-1.75 C21.84375,-1.015625 22.265625,-0.53125 22.9375,-0.359375 L22.9375,-0.09375 C20.5,0.09375 18.171875,0.5 16.203125,1.203125 C17.8125,1.5625 19.515625,2.140625 20.546875,2.65625 C21.046875,2.515625 21.234375,2.5625 21.40625,2.8125 Z M9.40625,15.890625 C8.8125,14.96875 8.015625,14.140625 7.078125,13.34375 C7.296875,13.9375 6.796875,14.921875 4.796875,15.078125 C5.140625,15.34375 5.453125,15.625 5.71875,15.890625 Z M16.171875,8.296875 L16.171875,6.59375 L7.828125,6.59375 L7.828125,8.296875 Z M16.171875,5.90625 L16.171875,4.171875 L7.828125,4.171875 L7.828125,5.90625 Z" transform="translate(0.0390625, 20.1875) scale(1, -1)"/>
</svg>