<svg height="22.34375" viewBox="0 0 24 22.34375" width="24" xmlns="http://www.w3.org/2000/svg">
<path d="M19.203125,18.140625 L18.9375,17.96875 C19.703125,17.203125 20.640625,15.9375 20.921875,14.953125 C22.46875,13.890625 23.6875,16.890625 19.203125,18.140625 Z M20.59375,10.109375 C20.28125,8.65625 19.75,7.109375 19.03125,5.609375 C18.59375,7.515625 18.40625,9.75 18.3125,12.125 L22.6875,12.125 C23.015625,12.125 23.25,12.234375 23.296875,12.5 C22.5625,13.21875 21.328125,14.203125 21.328125,14.203125 L20.25,12.84375 L18.28125,12.84375 C18.21875,14.8125 18.234375,16.890625 18.265625,18.984375 C18.84375,19.078125 19.0625,19.34375 19.109375,19.65625 L16.6875,19.9375 L16.6875,18.859375 L14.734375,19.875 C13.84375,18.703125 11.875,16.921875 10.21875,15.953125 L10.390625,15.625 C11.1875,15.890625 12.03125,16.25 12.8125,16.625 L12.8125,12.84375 L9.90625,12.84375 L10.109375,12.125 L12.8125,12.125 L12.8125,7.125 C11.5,6.703125 10.390625,6.359375 9.75,6.1875 L10.921875,4.171875 C11.15625,4.265625 11.328125,4.515625 11.375,4.796875 L12.8125,5.640625 L12.8125,0.453125 C12.8125,0.125 12.71875,-0.03125 12.34375,-0.03125 C11.921875,-0.03125 10.078125,0.140625 10.078125,0.140625 L10.078125,-0.234375 C10.96875,-0.34375 11.421875,-0.53125 11.734375,-0.765625 C11.953125,-0.984375 12.078125,-1.390625 12.09375,-1.828125 C14.015625,-1.625 14.28125,-0.765625 14.28125,0.40625 L14.28125,6.5 C15.34375,7.15625 16.171875,7.703125 16.84375,8.140625 L16.75,8.46875 L14.28125,7.625 L14.28125,12.125 L16.828125,12.125 C16.984375,8.953125 17.359375,6.125 18.046875,3.765625 C17.15625,2.25 16.03125,0.84375 14.734375,-0.3125 L14.953125,-0.640625 C16.3125,0.265625 17.46875,1.375 18.484375,2.5625 C18.9375,1.34375 19.53125,0.28125 20.296875,-0.578125 C21.046875,-1.4375 22.296875,-2.203125 22.875,-1.5625 C23.09375,-1.3125 23.015625,-0.9375 22.46875,0 L22.84375,3.640625 L22.53125,3.703125 C22.265625,2.734375 21.90625,1.625 21.671875,1.0625 C21.484375,0.578125 21.390625,0.546875 21.09375,0.9375 C20.421875,1.703125 19.890625,2.734375 19.484375,3.9375 C20.609375,5.59375 21.4375,7.375 21.953125,9.03125 C22.46875,8.96875 22.734375,9.046875 22.828125,9.34375 Z M16.796875,12.84375 L14.28125,12.84375 L14.28125,17.421875 C14.90625,17.78125 15.453125,18.140625 15.859375,18.453125 C16.25,18.40625 16.515625,18.40625 16.6875,18.5 C16.6875,16.515625 16.734375,14.640625 16.796875,12.84375 Z M7.796875,9.1875 L7.796875,7.265625 L4.15625,7.265625 L4.15625,9.1875 Z M7.796875,9.890625 L4.15625,9.890625 L4.15625,11.859375 L7.796875,11.859375 Z M2.65625,12.546875 L2.65625,-1.84375 L2.90625,-1.84375 C3.578125,-1.84375 4.15625,-1.484375 4.15625,-1.3125 L4.15625,0.75 L9.453125,0.75 C9.796875,0.75 10.015625,0.859375 10.0625,1.125 C9.390625,1.796875 8.296875,2.640625 8.296875,2.640625 L7.34375,1.4375 L4.15625,1.4375 L4.15625,3.671875 L8.953125,3.671875 C9.28125,3.671875 9.5,3.796875 9.578125,4.03125 C8.90625,4.703125 7.828125,5.5625 7.828125,5.5625 L6.890625,4.34375 L4.15625,4.34375 L4.15625,6.578125 L7.796875,6.578125 L7.828125,5.5625 L8.015625,5.5625 C8.5,5.5625 9.21875,5.90625 9.234375,6.046875 L9.234375,11.71875 C9.59375,11.765625 9.90625,11.921875 10.03125,12.09375 L8.375,13.390625 L7.609375,12.546875 L4.25,12.546875 L2.65625,13.3125 Z M6.546875,14.765625 L3.640625,14.765625 L3.84375,14.0625 L8.59375,14.0625 C8.90625,14.0625 9.125,14.1875 9.1875,14.453125 C8.5625,15.09375 7.46875,15.953125 7.46875,15.953125 Z M3.640625,14.765625 C4.78125,16.03125 5.71875,17.421875 6.390625,18.640625 C7.484375,17.5625 8.375,16.34375 8.734375,15.4375 C10.03125,14.46875 11.8125,16.984375 6.796875,18.9375 C7.21875,18.953125 7.390625,19.125 7.46875,19.34375 L5.1875,20.140625 C4.4375,17.859375 2.453125,14.359375 0.578125,12.4375 L0.859375,12.171875 C1.84375,12.859375 2.8125,13.78125 3.640625,14.765625 Z" transform="translate(-0.1328125, 20.140625) scale(1, -1)"/>
</svg>