<svg height="22.03125" viewBox="0 0 24 22.03125" width="24" xmlns="http://www.w3.org/2000/svg">
<path d="M12.140625,18.3125 C12.171875,17.28125 11.5625,16.015625 11.0625,15.5 C10.609375,15.171875 10.375,14.65625 10.625,14.234375 C10.9375,13.734375 11.734375,13.890625 12.125,14.328125 C12.453125,14.71875 12.71875,15.40625 12.765625,16.34375 L20.78125,16.34375 L20.375,14.46875 L20.71875,14.328125 C21.265625,14.765625 22.078125,15.546875 22.5625,16.078125 C23.046875,16.109375 23.28125,16.125 23.46875,16.3125 L21.640625,18.078125 L20.65625,17.046875 L17.328125,17.046875 L17.328125,19.21875 C17.859375,19.296875 18.078125,19.515625 18.125,19.828125 L15.765625,20.046875 L15.765625,17.046875 L12.75,17.046875 C12.71875,17.453125 12.671875,17.859375 12.546875,18.3125 Z M12.5,13.6875 L12.5,-1.875 L12.765625,-1.875 C13.4375,-1.875 13.96875,-1.515625 13.96875,-1.3125 L13.96875,0.09375 L20.0625,0.09375 L20.0625,-1.53125 L20.28125,-1.53125 C20.8125,-1.53125 21.546875,-1.171875 21.578125,-1.015625 L21.578125,4.890625 C21.984375,4.96875 22.34375,5.15625 22.484375,5.328125 L20.65625,6.71875 L19.84375,5.8125 L13.96875,5.8125 L13.96875,8.421875 L19.390625,8.421875 L19.390625,7.265625 L19.609375,7.265625 C20.09375,7.265625 20.859375,7.609375 20.875,7.75 L20.875,12.765625 C21.3125,12.84375 21.671875,13.03125 21.8125,13.203125 L19.96875,14.59375 L19.15625,13.6875 L14.09375,13.6875 L12.5,14.453125 Z M19.390625,9.09375 L13.96875,9.09375 L13.96875,12.984375 L19.390625,12.984375 Z M20.0625,5.109375 L20.0625,0.796875 L13.96875,0.796875 L13.96875,5.109375 Z M2.71875,13.21875 L2.71875,0.8125 L0.953125,0.40625 L2.015625,-1.625 C2.25,-1.5625 2.421875,-1.34375 2.515625,-1.03125 C5.09375,0.09375 7.078125,1.078125 8.59375,1.84375 C9.125,1.109375 9.546875,0.390625 9.75,-0.265625 C11.375,-1.34375 12.390625,2.0625 6.765625,4.515625 L6.484375,4.3125 C7.03125,3.765625 7.6875,3.046875 8.25,2.28125 L4.171875,1.171875 L4.171875,5.96875 L8.59375,5.96875 L8.59375,5.09375 L8.859375,5.09375 C9.390625,5.09375 9.953125,5.421875 10.015625,5.546875 L10.015625,12.265625 C10.390625,12.34375 10.703125,12.5 10.875,12.703125 L9.359375,14.046875 L8.59375,13.21875 L7.21875,13.21875 L7.21875,15.234375 C7.625,15.3125 7.828125,15.5 7.875,15.796875 L5.78125,16.015625 L5.78125,13.21875 L4.265625,13.21875 L3.03125,13.796875 C4.53125,15.3125 5.875,17.109375 6.765625,18.625 C7.828125,17.515625 8.640625,16.265625 9,15.359375 C10.21875,14.359375 12.078125,16.828125 7.21875,18.890625 C7.609375,18.9375 7.796875,19.078125 7.875,19.296875 L5.59375,20.15625 C4.75,17.828125 2.515625,14.1875 0.5,12.171875 L0.8125,11.953125 C1.46875,12.390625 2.109375,12.90625 2.71875,13.515625 Z M4.171875,9.28125 L8.59375,9.28125 L8.59375,6.671875 L4.171875,6.671875 Z M4.171875,9.984375 L4.171875,12.5 L8.59375,12.5 L8.59375,9.984375 Z" transform="translate(0.015625, 20.15625) scale(1, -1)"/>
</svg>