<svg height="22.640625" viewBox="0 0 24 22.640625" width="24" xmlns="http://www.w3.org/2000/svg">
<path d="M9.1875,8.28125 L9.390625,7.578125 L14.140625,7.578125 C14.453125,7.578125 14.65625,7.703125 14.71875,7.96875 C14.140625,8.46875 13.34375,9.046875 13.34375,9.046875 L12.59375,8.28125 Z M2.640625,0 L3.59375,-1.84375 C3.84375,-1.796875 4.0625,-1.65625 4.203125,-1.34375 C8.5625,-0.703125 11.6875,-0.1875 13.875,0.234375 L13.828125,0.640625 L7.890625,0.265625 L7.890625,2.453125 L15.75,2.453125 L15.75,1.78125 L15.984375,1.78125 C16.46875,1.78125 17.203125,2.109375 17.234375,2.28125 L17.234375,5.96875 C17.5625,6.03125 17.859375,6.1875 17.96875,6.34375 L16.34375,7.5625 L15.578125,6.796875 L8.203125,6.796875 L6.8125,7.390625 C9.03125,8.203125 10.9375,9.171875 12.234375,10.078125 C14.359375,8.234375 18.078125,6.90625 22.078125,6.125 C22.203125,6.671875 22.625,7.15625 23.28125,7.34375 L23.296875,7.6875 C19.203125,8.015625 15.125,8.96875 12.671875,10.3125 C13.3125,10.375 13.5625,10.484375 13.609375,10.75 L11.328125,11.328125 C9.453125,9.3125 5.015625,7.203125 0.796875,6.140625 L0.890625,5.71875 C2.8125,6.078125 4.703125,6.625 6.4375,7.25 L6.4375,0.171875 C4.84375,0.09375 3.5,0.03125 2.640625,0 Z M15.75,4.21875 L15.75,3.125 L7.890625,3.125 L7.890625,4.21875 Z M15.75,4.921875 L7.890625,4.921875 L7.890625,6.09375 L15.75,6.09375 Z M11.1875,1.828125 L11.09375,1.390625 C15.234375,0.625 18.234375,-0.453125 20.09375,-1.609375 C21.578125,-2.453125 23.25,-0.4375 17.5625,0.9375 C18.703125,1.34375 19.78125,1.875 20.46875,2.328125 C20.96875,2.1875 21.171875,2.25 21.359375,2.46875 L19.5625,3.59375 C18.890625,2.90625 17.65625,1.875 16.53125,1.15625 C15.125,1.4375 13.375,1.65625 11.1875,1.828125 Z M16.5625,18.90625 L16.5625,9.09375 L16.78125,9.09375 C17.359375,9.09375 17.90625,9.4375 17.90625,9.578125 L17.90625,18.21875 L20.375,18.21875 C20.015625,17.25 19.515625,15.984375 19.109375,15.234375 C20.375,14.328125 21.03125,13.5625 21.03125,12.53125 C21.03125,12.171875 20.90625,12.03125 20.71875,11.875 C20.546875,11.765625 20.375,11.734375 20.09375,11.734375 C19.796875,11.734375 19.078125,11.734375 18.671875,11.734375 L18.671875,11.375 C19.125,11.328125 19.484375,11.234375 19.625,11.09375 C19.828125,10.9375 19.890625,10.53125 19.890625,10.203125 C21.71875,10.296875 22.421875,10.921875 22.390625,12.28125 C22.390625,13.46875 21.546875,14.421875 19.734375,15.28125 C20.40625,15.953125 21.28125,17.15625 21.8125,17.875 C22.34375,17.90625 22.65625,17.921875 22.84375,18.125 L21.28125,19.78125 L20.359375,18.90625 L18.03125,18.90625 L16.5625,19.609375 Z M14.015625,16.34375 L14.015625,15.453125 L10.25,15.453125 L10.25,16.34375 Z M14.015625,17.046875 L10.25,17.046875 L10.25,17.90625 L14.015625,17.90625 Z M14.015625,14.78125 L14.015625,14.359375 L14.203125,14.359375 L14.25,14.359375 L13.6875,13.75 L10.25,13.75 L10.25,14.78125 Z M11.546875,20.1875 C11.46875,19.703125 11.328125,19.078125 11.1875,18.578125 L10.375,18.578125 L8.875,19.265625 L8.875,14.203125 L7.0625,14.765625 C6.90625,14.203125 6.703125,13.65625 6.453125,13.109375 L3.9375,12.859375 C5.140625,13.890625 6.4375,15.21875 7.515625,16.5625 C7.984375,16.4375 8.328125,16.609375 8.46875,16.828125 L6.703125,17.859375 C5.59375,15.953125 4.171875,14.0625 3,12.765625 L1.171875,12.640625 L1.984375,11.046875 C2.234375,11.09375 2.421875,11.234375 2.515625,11.546875 C4.0625,11.953125 5.25,12.28125 6.171875,12.546875 C5.234375,10.796875 3.671875,9.1875 1.203125,8.140625 L1.4375,7.796875 C5.375,9.140625 7.203125,11.5 8.109375,13.75 C8.515625,13.734375 8.78125,13.828125 8.875,14.046875 L8.875,10.21875 L9.125,10.21875 C9.671875,10.21875 10.25,10.5625 10.25,10.6875 L10.25,11.421875 L15.4375,11.421875 C15.75,11.421875 15.953125,11.546875 16.03125,11.8125 C15.453125,12.3125 14.609375,12.90625 14.609375,12.90625 L13.875,12.125 L10.25,12.125 L10.25,13.078125 L15.21875,13.078125 C15.53125,13.078125 15.75,13.203125 15.796875,13.46875 L14.59375,14.421875 C14.96875,14.5 15.34375,14.71875 15.359375,14.828125 L15.359375,17.78125 C15.71875,17.828125 16.015625,18.03125 16.125,18.140625 L14.5625,19.34375 L13.828125,18.578125 L11.96875,18.578125 C12.1875,18.796875 12.359375,19.03125 12.5,19.265625 C13.015625,19.265625 13.296875,19.484375 13.375,19.78125 Z M4.890625,20.0625 C4.484375,19.03125 3.984375,17.96875 3.546875,17.1875 C3.125,17.40625 2.515625,17.5625 1.734375,17.609375 L1.5625,17.328125 C2.5625,16.796875 3.1875,15.8125 3.578125,15.171875 C4.515625,14.59375 5.140625,15.890625 4.125,16.796875 C4.734375,17.40625 5.421875,18.140625 5.953125,18.84375 C6.453125,18.765625 6.75,18.953125 6.859375,19.203125 Z" transform="translate(-0.046875, 20.1875) scale(1, -1)"/>
</svg>