<svg height="21.890625" viewBox="0 0 24 21.890625" width="24" xmlns="http://www.w3.org/2000/svg">
<path d="M6.09375,19.984375 L5.828125,19.828125 C6.8125,18.859375 7.921875,17.28125 8.15625,15.984375 C9.84375,14.78125 11.203125,18.3125 6.09375,19.984375 Z M4.921875,12.046875 L4.921875,-1.796875 L5.1875,-1.796875 C5.875,-1.796875 6.5,-1.421875 6.5,-1.21875 L6.5,-0.140625 L17.40625,-0.140625 L17.40625,-1.703125 L17.640625,-1.703125 C18.1875,-1.703125 18.984375,-1.296875 19.015625,-1.15625 L19.015625,11.046875 C19.484375,11.140625 19.875,11.328125 20.015625,11.515625 L18.078125,13.0625 L17.15625,12.046875 L11.15625,12.046875 C11.734375,12.84375 12.359375,13.921875 12.90625,14.90625 L22.296875,14.90625 C22.625,14.90625 22.890625,15.03125 22.9375,15.265625 C22.078125,16.0625 20.65625,17.109375 20.65625,17.109375 L19.4375,15.578125 L14.609375,15.578125 C15.796875,16.609375 16.984375,17.90625 17.765625,18.9375 C18.28125,18.90625 18.578125,19.109375 18.671875,19.390625 L16.125,20.09375 C15.59375,18.75 14.71875,16.921875 13.875,15.578125 L0.953125,15.578125 L1.171875,14.90625 L10.703125,14.90625 C10.609375,13.96875 10.46875,12.859375 10.34375,12.046875 L6.640625,12.046875 L4.921875,12.84375 Z M17.40625,11.359375 L17.40625,8.28125 L6.5,8.28125 L6.5,11.359375 Z M6.5,0.546875 L6.5,3.765625 L17.40625,3.765625 L17.40625,0.546875 Z M6.5,4.46875 L6.5,7.5625 L17.40625,7.5625 L17.40625,4.46875 Z" transform="translate(0.0546875, 20.09375) scale(1, -1)"/>
</svg>