<svg height="21.5" viewBox="0 0 24 21.5" width="24" xmlns="http://www.w3.org/2000/svg">
<path d="M3.90625,5.234375 C3.953125,3.34375 2.875,1.6875 1.828125,1.0625 C1.3125,0.75 0.984375,0.265625 1.21875,-0.234375 C1.515625,-0.796875 2.40625,-0.71875 3,-0.265625 C4.015625,0.4375 5.09375,2.296875 4.296875,5.234375 Z M7.265625,5.203125 L6.9375,5.140625 C7.3125,3.859375 7.625,1.9375 7.421875,0.453125 C8.640625,-1.03125 10.421875,1.984375 7.265625,5.203125 Z M10.625,5.421875 L10.3125,5.25 C11.109375,4.203125 11.96875,2.5 12.046875,1.15625 C13.46875,-0.09375 14.921875,3.078125 10.625,5.421875 Z M14.203125,5.90625 L13.9375,5.71875 C14.953125,4.9375 16.25,3.53125 16.578125,2.421875 C18.140625,1.484375 19.078125,4.65625 14.203125,5.90625 Z M6.1875,17.515625 L11.515625,17.515625 L11.515625,14.640625 L6.1875,14.640625 Z M4.625,18.234375 L4.625,5.734375 L4.890625,5.734375 C5.6875,5.734375 6.1875,6.140625 6.1875,6.265625 L6.1875,6.890625 L20.359375,6.890625 C20.046875,3.3125 19.390625,0.8125 18.703125,0.265625 C18.4375,0.046875 18.1875,0 17.78125,0 C17.25,0 15.53125,0.171875 14.546875,0.265625 L14.546875,-0.171875 C15.40625,-0.3125 16.375,-0.5 16.703125,-0.765625 C17.046875,-1.015625 17.140625,-1.390625 17.140625,-1.84375 C18.171875,-1.84375 19.0625,-1.609375 19.703125,-1.078125 C20.78125,-0.21875 21.578125,2.5625 21.90625,6.671875 C22.421875,6.75 22.703125,6.859375 22.875,7.03125 L21.078125,8.546875 L20.15625,7.578125 L13.078125,7.578125 L13.078125,10.4375 L19.84375,10.4375 C20.140625,10.4375 20.375,10.5625 20.453125,10.828125 C19.65625,11.546875 18.390625,12.53125 18.390625,12.53125 L17.28125,11.140625 L13.078125,11.140625 L13.078125,13.9375 L19.78125,13.9375 C20.109375,13.9375 20.359375,14.0625 20.40625,14.328125 C19.625,15.046875 18.390625,16.015625 18.390625,16.015625 L17.28125,14.640625 L13.078125,14.640625 L13.078125,17.515625 L20.375,17.515625 C20.71875,17.515625 20.953125,17.640625 21.03125,17.90625 C20.1875,18.640625 18.859375,19.65625 18.859375,19.65625 L17.71875,18.234375 L6.5,18.234375 L4.625,19.03125 Z M6.1875,13.9375 L11.515625,13.9375 L11.515625,11.140625 L6.1875,11.140625 Z M6.1875,10.4375 L11.515625,10.4375 L11.515625,7.578125 L6.1875,7.578125 Z" transform="translate(0.0703125, 19.65625) scale(1, -1)"/>
</svg>