<svg height="21.859375" viewBox="0 0 24 21.859375" width="24" xmlns="http://www.w3.org/2000/svg">
<path d="M3.84375,5.921875 L3.484375,5.828125 C3.765625,4.6875 3.953125,2.859375 3.703125,1.515625 C4.6875,0.28125 6.125,2.828125 3.84375,5.921875 Z M5.25,6.34375 L4.921875,6.21875 C5.453125,5.28125 6.03125,3.765625 6.046875,2.609375 C7.109375,1.578125 8.328125,3.984375 5.25,6.34375 Z M6.75,6.859375 L6.484375,6.671875 C7.125,6.078125 7.828125,4.984375 7.96875,4.15625 C9.078125,3.28125 10.109375,5.6875 6.75,6.859375 Z M2.046875,5.71875 C2.015625,3.75 1.625,2.1875 0.9375,1.421875 C-0.21875,-0.4375 3.859375,-1.15625 2.421875,5.71875 Z M12.484375,18.359375 L12.484375,-1.828125 L12.703125,-1.828125 C13.46875,-1.828125 13.921875,-1.4375 13.921875,-1.296875 L13.921875,-0.046875 L22.6875,-0.046875 C23.015625,-0.046875 23.25,0.078125 23.296875,0.34375 C22.53125,1.0625 21.28125,2.0625 21.28125,2.0625 L20.15625,0.640625 L13.921875,0.640625 L13.921875,17.65625 L22.25,17.65625 C22.578125,17.65625 22.796875,17.78125 22.875,18.046875 C22.078125,18.765625 20.859375,19.75 20.859375,19.75 L19.734375,18.359375 L14.234375,18.359375 L12.484375,19.21875 Z M19.203125,16.53125 C18.984375,14.859375 18.625,12.984375 18.125,11.109375 C17.140625,12.21875 15.9375,13.421875 14.421875,14.640625 L14.0625,14.453125 C15.1875,13.078125 16.515625,11.328125 17.640625,9.5 C16.78125,6.8125 15.546875,4.203125 13.9375,2.1875 L14.28125,1.9375 C16.078125,3.703125 17.40625,5.90625 18.40625,8.1875 C19.3125,6.546875 20.046875,4.890625 20.28125,3.484375 C21.8125,2.203125 22.6875,5.203125 19.109375,9.90625 C19.796875,11.859375 20.296875,13.78125 20.640625,15.453125 C21.3125,15.4375 21.53125,15.578125 21.640625,15.890625 Z M3.671875,18.03125 L5.96875,18.03125 L5.96875,15.390625 L3.671875,15.390625 Z M2.28125,18.71875 L2.28125,6.53125 L2.5,6.53125 C3.1875,6.53125 3.671875,6.90625 3.671875,7.03125 L3.671875,7.875 L9.703125,7.875 C9.4375,3.234375 8.875,0.71875 8.234375,0.140625 C7.984375,-0.078125 7.796875,-0.125 7.421875,-0.125 C6.984375,-0.125 5.828125,0 5.140625,0.046875 L5.109375,-0.390625 C5.734375,-0.453125 6.390625,-0.625 6.625,-0.859375 C6.90625,-1.0625 6.984375,-1.46875 6.984375,-1.875 C7.75,-1.875 8.546875,-1.65625 9.125,-1.109375 C10.109375,-0.21875 10.78125,2.453125 11.0625,7.703125 C11.546875,7.78125 11.828125,7.875 12,8.0625 L10.296875,9.453125 L9.484375,8.5625 L7.390625,8.5625 L7.390625,11.328125 L10.890625,11.328125 C11.234375,11.328125 11.453125,11.453125 11.515625,11.71875 C10.84375,12.359375 9.796875,13.203125 9.796875,13.203125 L8.859375,12.03125 L7.390625,12.03125 L7.390625,14.6875 L10.984375,14.6875 C11.296875,14.6875 11.546875,14.8125 11.59375,15.078125 C10.9375,15.71875 9.859375,16.5625 9.859375,16.5625 L8.953125,15.390625 L7.390625,15.390625 L7.390625,18.03125 L11.375,18.03125 C11.71875,18.03125 11.921875,18.140625 12,18.40625 C11.25,19.109375 10.0625,19.984375 10.0625,19.984375 L9.03125,18.71875 L3.953125,18.71875 L2.28125,19.515625 Z M3.671875,14.6875 L5.96875,14.6875 L5.96875,12.03125 L3.671875,12.03125 Z M3.671875,11.328125 L5.96875,11.328125 L5.96875,8.5625 L3.671875,8.5625 Z" transform="translate(0.4609375, 19.984375) scale(1, -1)"/>
</svg>