<svg height="21.53125" viewBox="0 0 24 21.53125" width="24" xmlns="http://www.w3.org/2000/svg">
<path d="M3.84375,5.90625 L3.484375,5.828125 C3.765625,4.6875 3.953125,2.859375 3.703125,1.484375 C4.6875,0.265625 6.125,2.828125 3.84375,5.90625 Z M5.25,6.34375 L4.921875,6.1875 C5.453125,5.25 6.03125,3.75 6.046875,2.609375 C7.109375,1.578125 8.328125,3.984375 5.25,6.34375 Z M6.75,6.84375 L6.484375,6.640625 C7.125,6.046875 7.828125,4.96875 7.96875,4.125 C9.078125,3.28125 10.109375,5.6875 6.75,6.84375 Z M2.046875,5.6875 C2.015625,3.75 1.625,2.1875 0.9375,1.421875 C-0.21875,-0.4375 3.859375,-1.15625 2.421875,5.6875 Z M13.15625,18.34375 L13.15625,11.140625 C13.15625,6.546875 12.796875,1.96875 10.015625,-1.625 L10.390625,-1.875 C13.96875,1.34375 14.5625,5.96875 14.640625,10.0625 L16.15625,10.0625 C16.96875,4.609375 18.578125,0.5 21.90625,-1.84375 C22.125,-1.0625 22.65625,-0.578125 23.25,-0.453125 L23.296875,-0.1875 C19.875,1.484375 17.65625,5.5625 16.625,10.0625 L20.421875,10.0625 L20.421875,8.6875 L20.65625,8.6875 C21.171875,8.6875 21.90625,9.078125 21.9375,9.21875 L21.9375,17.375 C22.421875,17.453125 22.828125,17.640625 22.96875,17.828125 L21.046875,19.3125 L20.1875,18.34375 L14.953125,18.34375 L13.15625,19.125 Z M14.640625,10.75 L14.640625,11.15625 L14.640625,17.65625 L20.421875,17.65625 L20.421875,10.75 Z M3.671875,17.6875 L5.96875,17.6875 L5.96875,15.125 L3.671875,15.125 Z M2.28125,18.390625 L2.28125,6.53125 L2.5,6.53125 C3.1875,6.53125 3.671875,6.890625 3.671875,7.015625 L3.671875,7.796875 L9.671875,7.796875 C9.453125,3.671875 8.953125,1.4375 8.375,0.90625 C8.15625,0.75 7.96875,0.703125 7.5625,0.703125 C7.125,0.703125 6,0.796875 5.296875,0.84375 L5.296875,0.4375 C5.90625,0.3125 6.546875,0.140625 6.8125,-0.078125 C7.078125,-0.3125 7.15625,-0.671875 7.15625,-1.078125 C7.921875,-1.078125 8.71875,-0.859375 9.265625,-0.390625 C10.21875,0.453125 10.828125,2.875 11.09375,7.625 C11.5625,7.6875 11.859375,7.796875 12.03125,7.984375 L10.3125,9.390625 L9.484375,8.5 L7.390625,8.5 L7.390625,11.140625 L10.9375,11.140625 C11.28125,11.140625 11.5,11.25 11.5625,11.515625 C10.890625,12.171875 9.84375,13.015625 9.84375,13.015625 L8.90625,11.859375 L7.390625,11.859375 L7.390625,14.453125 L11.046875,14.453125 C11.359375,14.453125 11.59375,14.5625 11.640625,14.828125 C10.984375,15.453125 9.90625,16.3125 9.90625,16.3125 L9,15.125 L7.390625,15.125 L7.390625,17.6875 L11.421875,17.6875 C11.765625,17.6875 11.96875,17.8125 12.046875,18.078125 C11.296875,18.765625 10.125,19.65625 10.125,19.65625 L9.078125,18.390625 L3.953125,18.390625 L2.28125,19.125 Z M3.671875,14.453125 L5.96875,14.453125 L5.96875,11.859375 L3.671875,11.859375 Z M3.671875,11.140625 L5.96875,11.140625 L5.96875,8.5 L3.671875,8.5 Z" transform="translate(0.4609375, 19.65625) scale(1, -1)"/>
</svg>