<svg height="21.890625" viewBox="0 0 24 21.890625" width="24" xmlns="http://www.w3.org/2000/svg">
<path d="M3.71875,5.953125 L3.34375,5.859375 C3.671875,4.703125 3.890625,2.90625 3.625,1.515625 C4.609375,0.265625 6.125,2.875 3.71875,5.953125 Z M5.1875,6.4375 L4.84375,6.28125 C5.40625,5.296875 5.96875,3.75 5.96875,2.546875 C7.0625,1.46875 8.296875,3.984375 5.1875,6.4375 Z M6.703125,6.8125 L6.4375,6.625 C7.125,6.03125 7.84375,4.9375 7.921875,4.0625 C9.09375,3.140625 10.171875,5.71875 6.703125,6.8125 Z M2.140625,5.6875 C2.140625,3.484375 1.734375,2.0625 0.9375,1.421875 C-0.359375,-0.40625 3.984375,-1.375 2.515625,5.6875 Z M14.296875,9.484375 L15.171875,10.78125 L14.140625,11.046875 L13.84375,9.578125 C13.25,8.875 12.21875,7.921875 11.609375,7.390625 L12.9375,6.125 C13.078125,6.265625 13.125,6.453125 12.984375,6.671875 L13.984375,8.78125 C14.453125,6.796875 15.140625,5.046875 16.0625,3.53125 C14.40625,1.421875 12.125,-0.3125 9.09375,-1.46875 L9.265625,-1.796875 C12.484375,-0.890625 14.921875,0.59375 16.78125,2.453125 C18.125,0.625 19.828125,-0.8125 21.890625,-1.875 C22.171875,-1.15625 22.734375,-0.671875 23.40625,-0.625 L23.453125,-0.390625 C21.1875,0.4375 19.21875,1.734375 17.640625,3.40625 C19.25,5.328125 20.296875,7.5625 20.953125,9.890625 C21.578125,9.890625 21.765625,10.03125 21.859375,10.34375 L19.421875,10.96875 C18.9375,8.609375 18.078125,6.40625 16.75,4.46875 C15.640625,5.90625 14.8125,7.578125 14.296875,9.484375 Z M12.3125,18.28125 L12.140625,17.875 C13.875,17.1875 15.40625,16.375 16.703125,15.53125 C15.125,13.734375 13.15625,12.03125 11.015625,10.828125 L11.234375,10.484375 C13.75,11.546875 16.015625,13.109375 17.78125,14.8125 C19.3125,13.703125 20.453125,12.578125 21.078125,11.6875 C22.5625,10.9375 23.328125,13.34375 18.8125,15.859375 C19.6875,16.796875 20.421875,17.765625 20.96875,18.703125 C21.546875,18.59375 21.765625,18.71875 21.90625,18.953125 L19.703125,20.015625 C19.171875,18.890625 18.4375,17.6875 17.515625,16.515625 C16.15625,17.140625 14.453125,17.734375 12.3125,18.28125 Z M3.640625,17.6875 L5.90625,17.6875 L5.90625,15.125 L3.640625,15.125 Z M2.234375,18.390625 L2.234375,6.53125 L2.453125,6.53125 C3.140625,6.53125 3.640625,6.90625 3.640625,7.015625 L3.640625,7.890625 L9.640625,7.890625 C9.4375,3.640625 8.96875,1.21875 8.40625,0.703125 C8.1875,0.5 7.984375,0.453125 7.578125,0.453125 C7.15625,0.453125 5.828125,0.578125 5.0625,0.640625 L5.0625,0.21875 C5.765625,0.09375 6.5,-0.09375 6.765625,-0.3125 C7.0625,-0.546875 7.15625,-0.90625 7.15625,-1.3125 C7.96875,-1.3125 8.78125,-1.109375 9.34375,-0.59375 C10.296875,0.234375 10.828125,2.859375 11.046875,7.734375 C11.515625,7.796875 11.828125,7.890625 12,8.09375 L10.265625,9.484375 L9.4375,8.609375 L7.34375,8.609375 L7.34375,11.140625 L10.609375,11.140625 C10.9375,11.140625 11.15625,11.25 11.203125,11.515625 C10.5625,12.171875 9.5,13.03125 9.5,13.03125 L8.5625,11.859375 L7.34375,11.859375 L7.34375,14.453125 L10.609375,14.453125 C10.9375,14.453125 11.15625,14.5625 11.203125,14.828125 C10.5625,15.453125 9.5,16.3125 9.5,16.3125 L8.5625,15.125 L7.34375,15.125 L7.34375,17.6875 L11.09375,17.6875 C11.421875,17.6875 11.65625,17.8125 11.71875,18.078125 C10.96875,18.765625 9.765625,19.6875 9.765625,19.6875 L8.734375,18.390625 L3.9375,18.390625 L2.234375,19.15625 Z M3.640625,14.453125 L5.90625,14.453125 L5.90625,11.859375 L3.640625,11.859375 Z M3.640625,11.140625 L5.90625,11.140625 L5.90625,8.609375 L3.640625,8.609375 Z" transform="translate(0.453125, 20.015625) scale(1, -1)"/>
</svg>