<svg height="21.546875" viewBox="0 0 24 21.546875" width="24" xmlns="http://www.w3.org/2000/svg">
<path d="M3.703125,5.640625 L3.3125,5.546875 C3.640625,4.375 3.859375,2.5625 3.59375,1.171875 C4.578125,-0.078125 6.09375,2.5625 3.703125,5.640625 Z M5.15625,6.078125 L4.828125,5.953125 C5.375,4.96875 5.953125,3.40625 5.953125,2.203125 C7.03125,1.125 8.28125,3.640625 5.15625,6.078125 Z M6.71875,6.453125 L6.4375,6.265625 C7.125,5.6875 7.84375,4.578125 7.9375,3.703125 C9.125,2.78125 10.171875,5.359375 6.71875,6.453125 Z M2.109375,5.375 C2.109375,3.140625 1.703125,1.734375 0.90625,1.109375 C-0.390625,-0.71875 3.953125,-1.703125 2.5,5.375 Z M3.59375,17.6875 L5.859375,17.6875 L5.859375,15.125 L3.59375,15.125 Z M2.1875,18.390625 L2.1875,6.53125 L2.40625,6.53125 C3.125,6.53125 3.59375,6.90625 3.59375,7.015625 L3.59375,7.796875 L9.5,7.796875 C9.3125,3.265625 8.953125,0.796875 8.375,0.234375 C8.1875,0.046875 7.984375,0 7.609375,0 C7.15625,0 5.859375,0.09375 5.09375,0.171875 L5.09375,-0.234375 C5.765625,-0.34375 6.5,-0.53125 6.796875,-0.765625 C7.078125,-0.953125 7.15625,-1.375 7.15625,-1.796875 C7.984375,-1.796875 8.78125,-1.5625 9.34375,-1.03125 C10.265625,-0.171875 10.734375,2.46875 10.921875,7.625 C11.40625,7.703125 11.6875,7.796875 11.859375,7.984375 L10.125,9.40625 L9.28125,8.5 L7.296875,8.5 L7.296875,11.140625 L10.421875,11.140625 C10.703125,11.140625 10.921875,11.25 10.984375,11.515625 C10.34375,12.171875 9.265625,13.03125 9.265625,13.03125 L8.359375,11.859375 L7.296875,11.859375 L7.296875,14.453125 L10.421875,14.453125 C10.703125,14.453125 10.921875,14.5625 10.984375,14.828125 C10.34375,15.453125 9.265625,16.3125 9.265625,16.3125 L8.359375,15.125 L7.296875,15.125 L7.296875,17.6875 L10.984375,17.6875 C11.328125,17.6875 11.5625,17.8125 11.640625,18.078125 C10.875,18.765625 9.671875,19.6875 9.671875,19.6875 L8.640625,18.390625 L3.890625,18.390625 L2.1875,19.15625 Z M3.59375,14.453125 L5.859375,14.453125 L5.859375,11.859375 L3.59375,11.859375 Z M3.59375,11.140625 L5.859375,11.140625 L5.859375,8.5 L3.59375,8.5 Z M15.953125,19.75 L15.953125,15.234375 L11.359375,15.234375 L11.546875,14.546875 L15.953125,14.546875 L15.953125,8.203125 L11.90625,8.203125 L12.09375,7.484375 L15.953125,7.484375 L15.953125,-0.09375 L10.65625,-0.09375 L10.84375,-0.765625 L22.6875,-0.765625 C23.015625,-0.765625 23.234375,-0.671875 23.28125,-0.40625 C22.515625,0.34375 21.265625,1.34375 21.265625,1.34375 L20.140625,-0.09375 L17.5,-0.09375 L17.5,7.484375 L21.765625,7.484375 C22.109375,7.484375 22.34375,7.609375 22.390625,7.875 C21.640625,8.609375 20.421875,9.59375 20.421875,9.59375 L19.34375,8.203125 L17.5,8.203125 L17.5,13.6875 C18.09375,13.78125 18.34375,14.015625 18.390625,14.359375 L16.625,14.546875 L22.375,14.546875 C22.703125,14.546875 22.9375,14.65625 23.015625,14.921875 C22.21875,15.640625 20.96875,16.625 20.96875,16.625 L19.875,15.234375 L17.5,15.234375 L17.5,18.84375 C18.09375,18.9375 18.34375,19.171875 18.390625,19.515625 Z" transform="translate(0.5546875, 19.75) scale(1, -1)"/>
</svg>