<svg height="21.53125" viewBox="0 0 24 21.53125" width="24" xmlns="http://www.w3.org/2000/svg">
<path d="M13.578125,19.921875 L13.375,19.703125 C14.609375,18.8125 16.109375,17.234375 16.46875,15.9375 C18.1875,14.828125 19.203125,18.484375 13.578125,19.921875 Z M3.84375,5.8125 L3.484375,5.71875 C3.765625,4.5625 3.953125,2.734375 3.703125,1.375 C4.6875,0.171875 6.125,2.71875 3.84375,5.8125 Z M5.25,6.21875 L4.921875,6.078125 C5.453125,5.15625 6.03125,3.640625 6.046875,2.515625 C7.109375,1.46875 8.328125,3.859375 5.25,6.21875 Z M6.75,6.75 L6.484375,6.546875 C7.125,5.953125 7.828125,4.875 7.96875,4.03125 C9.078125,3.171875 10.109375,5.5625 6.75,6.75 Z M2.046875,5.5625 C2.015625,3.59375 1.625,2.0625 0.9375,1.296875 C-0.21875,-0.546875 3.859375,-1.265625 2.421875,5.5625 Z M2.28125,18.359375 L2.28125,6.5 L2.5,6.5 C3.1875,6.5 3.671875,6.890625 3.671875,6.984375 L3.671875,7.703125 L9.703125,7.703125 C9.453125,3.3125 8.90625,0.9375 8.296875,0.390625 C8.0625,0.1875 7.890625,0.140625 7.484375,0.140625 C7.0625,0.140625 5.90625,0.234375 5.203125,0.3125 L5.203125,-0.125 C5.828125,-0.21875 6.453125,-0.40625 6.71875,-0.59375 C6.984375,-0.8125 7.0625,-1.203125 7.03125,-1.609375 C7.828125,-1.609375 8.609375,-1.390625 9.171875,-0.859375 C10.15625,0 10.78125,2.515625 11.0625,7.53125 C11.546875,7.609375 11.828125,7.703125 12,7.890625 L10.296875,9.265625 L9.484375,8.40625 L7.390625,8.40625 L7.390625,11.0625 L10.890625,11.0625 C11.234375,11.0625 11.453125,11.1875 11.515625,11.453125 C10.84375,12.09375 9.796875,12.9375 9.796875,12.9375 L8.859375,11.78125 L7.390625,11.78125 L7.390625,14.40625 L10.984375,14.40625 C11.25,14.40625 11.46875,14.5 11.546875,14.71875 L11.59375,14.515625 L15.984375,14.515625 L15.984375,8.5 L11.953125,8.5 L12.125,7.78125 L15.984375,7.78125 L15.984375,-0.09375 L10.375,-0.09375 L10.53125,-0.796875 L22.703125,-0.796875 C23.046875,-0.796875 23.234375,-0.703125 23.296875,-0.4375 C22.5625,0.3125 21.28125,1.3125 21.28125,1.3125 L20.15625,-0.09375 L17.515625,-0.09375 L17.515625,7.78125 L21.984375,7.78125 C22.3125,7.78125 22.53125,7.890625 22.609375,8.15625 C21.859375,8.875 20.640625,9.859375 20.640625,9.859375 L19.578125,8.5 L17.515625,8.5 L17.515625,14.515625 L22.4375,14.515625 C22.78125,14.515625 22.984375,14.640625 23.0625,14.90625 C22.265625,15.625 21.03125,16.609375 21.03125,16.609375 L19.921875,15.21875 L11.40625,15.21875 L11.5,14.875 C10.84375,15.5 9.859375,16.265625 9.859375,16.265625 L8.953125,15.125 L7.390625,15.125 L7.390625,17.6875 L11.375,17.6875 C11.71875,17.6875 11.921875,17.8125 12,18.078125 C11.25,18.75 10.0625,19.625 10.0625,19.625 L9.03125,18.359375 L3.953125,18.359375 L2.28125,19.125 Z M3.671875,17.6875 L5.96875,17.6875 L5.96875,15.125 L3.671875,15.125 Z M3.671875,14.40625 L5.96875,14.40625 L5.96875,11.78125 L3.671875,11.78125 Z M3.671875,11.0625 L5.96875,11.0625 L5.96875,8.40625 L3.671875,8.40625 Z" transform="translate(0.4609375, 19.921875) scale(1, -1)"/>
</svg>