<svg height="21.5" viewBox="0 0 24 21.5" width="24" xmlns="http://www.w3.org/2000/svg">
<path d="M7.296875,2.875 L7.015625,2.78125 C7.265625,1.921875 7.484375,0.546875 7.375,-0.53125 C8.515625,-1.875 10.421875,0.578125 7.296875,2.875 Z M10.796875,3.140625 L10.484375,2.96875 C11.1875,2.203125 11.859375,0.90625 11.90625,-0.140625 C13.203125,-1.265625 14.609375,1.515625 10.796875,3.140625 Z M14.65625,3.265625 L14.40625,3.078125 C15.125,2.421875 15.953125,1.265625 16.125,0.390625 C17.421875,-0.578125 18.546875,2.0625 14.65625,3.265625 Z M4.421875,2.859375 C4.21875,1.5625 3.03125,0.53125 2.046875,0.171875 C1.53125,-0.09375 1.21875,-0.53125 1.390625,-1.015625 C1.609375,-1.5625 2.453125,-1.5625 3.078125,-1.25 C4.0625,-0.765625 5.1875,0.625 4.84375,2.828125 Z M13.265625,18.71875 L13.265625,13.125 L13.484375,13.125 C14.09375,13.125 14.78125,13.484375 14.78125,13.609375 L14.78125,14.25 L19.609375,14.25 L19.609375,13.4375 L19.84375,13.4375 C20.359375,13.4375 21.140625,13.796875 21.171875,13.9375 L21.171875,17.8125 C21.59375,17.875 21.9375,18.078125 22.078125,18.21875 L20.234375,19.625 L19.421875,18.71875 L14.90625,18.71875 L13.265625,19.46875 Z M19.609375,14.953125 L14.78125,14.953125 L14.78125,18.03125 L19.609375,18.03125 Z M2.8125,18.71875 L2.8125,13.03125 L3.03125,13.03125 C3.640625,13.03125 4.34375,13.375 4.34375,13.515625 L4.34375,14.25 L8.875,14.25 L8.875,13.34375 L9.125,13.34375 C9.625,13.34375 10.390625,13.6875 10.421875,13.84375 L10.421875,17.8125 C10.828125,17.875 11.1875,18.078125 11.328125,18.21875 L9.484375,19.609375 L8.65625,18.71875 L4.4375,18.71875 L2.8125,19.4375 Z M8.875,14.953125 L4.34375,14.953125 L4.34375,18.03125 L8.875,18.03125 Z M4.734375,12.3125 L4.734375,2.859375 L4.96875,2.859375 C5.765625,2.859375 6.265625,3.265625 6.265625,3.390625 L6.265625,4.0625 L19.984375,4.0625 C19.78125,1.796875 19.390625,0.453125 18.953125,0.125 C18.765625,-0.03125 18.578125,-0.078125 18.21875,-0.078125 C17.8125,-0.078125 16.578125,0.03125 15.859375,0.078125 L15.859375,-0.34375 C16.53125,-0.40625 17.15625,-0.59375 17.421875,-0.8125 C17.6875,-1.0625 17.78125,-1.46875 17.765625,-1.875 C18.578125,-1.875 19.3125,-1.703125 19.875,-1.296875 C20.734375,-0.671875 21.28125,0.984375 21.53125,3.90625 C21.984375,3.953125 22.296875,4.03125 22.4375,4.21875 L20.71875,5.65625 L19.828125,4.75 L12.75,4.75 L12.75,6.671875 L19.0625,6.671875 C19.390625,6.671875 19.609375,6.796875 19.6875,7.0625 C18.953125,7.65625 17.90625,8.46875 17.90625,8.46875 L16.96875,7.34375 L12.75,7.34375 L12.75,9.140625 L19.015625,9.140625 C19.34375,9.140625 19.578125,9.265625 19.625,9.53125 C18.953125,10.125 17.90625,10.921875 17.90625,10.921875 L16.96875,9.84375 L12.75,9.84375 L12.75,11.609375 L20.015625,11.609375 C20.359375,11.609375 20.5625,11.734375 20.640625,11.96875 C19.875,12.640625 18.71875,13.484375 18.71875,13.484375 L17.734375,12.3125 L6.546875,12.3125 L4.734375,13.109375 Z M6.265625,4.75 L6.265625,6.671875 L11.203125,6.671875 L11.203125,4.75 Z M6.265625,11.609375 L11.203125,11.609375 L11.203125,9.84375 L6.265625,9.84375 Z M6.265625,9.140625 L11.203125,9.140625 L11.203125,7.34375 L6.265625,7.34375 Z" transform="translate(0.171875, 19.625) scale(1, -1)"/>
</svg>