<svg height="21.9375" viewBox="0 0 24 21.9375" width="24" xmlns="http://www.w3.org/2000/svg">
<path d="M3.75,5.8125 L3.390625,5.71875 C3.671875,4.5625 3.859375,2.734375 3.59375,1.375 C4.5625,0.171875 6.03125,2.71875 3.75,5.8125 Z M5.109375,6.21875 L4.78125,6.078125 C5.296875,5.15625 5.875,3.640625 5.875,2.515625 C6.953125,1.46875 8.15625,3.859375 5.109375,6.21875 Z M6.546875,6.75 L6.265625,6.546875 C6.9375,5.953125 7.625,4.875 7.75,4.03125 C8.875,3.171875 9.90625,5.5625 6.546875,6.75 Z M1.984375,5.5625 C1.96875,3.59375 1.578125,2.0625 0.90625,1.296875 C-0.265625,-0.546875 3.8125,-1.265625 2.375,5.5625 Z M17.046875,18.890625 C18.03125,16.375 19.96875,14.25 22.15625,12.859375 C22.296875,13.484375 22.75,13.984375 23.359375,14.15625 L23.40625,14.46875 C21.046875,15.453125 18.625,17.09375 17.375,19.15625 C17.90625,19.203125 18.140625,19.296875 18.1875,19.53125 L15.625,20.0625 C14.953125,17.65625 12.34375,14.28125 9.984375,12.578125 L10.21875,12.265625 C12.953125,13.703125 15.71875,16.296875 17.046875,18.890625 Z M12.546875,13.53125 L12.75,12.84375 L15.765625,12.84375 L15.765625,10.5625 L13.296875,10.5625 L11.609375,11.296875 L11.609375,4.21875 L11.828125,4.21875 C12.546875,4.21875 13.015625,4.53125 13.015625,4.6875 L13.015625,5.5 L15.546875,5.5 C15.046875,2.8125 13.515625,0.484375 9.359375,-1.46875 L9.59375,-1.828125 C14.765625,-0.046875 16.484375,2.59375 17.015625,5.5 L17.09375,5.5 C17.953125,1.984375 19.421875,-0.484375 22.109375,-1.875 C22.265625,-1.125 22.703125,-0.671875 23.296875,-0.546875 L23.328125,-0.28125 C20.609375,0.59375 18.640625,2.734375 17.609375,5.5 L20.46875,5.5 L20.46875,4.484375 L20.71875,4.484375 C21.359375,4.484375 21.90625,4.796875 21.90625,4.890625 L21.90625,9.796875 C22.375,9.859375 22.609375,9.984375 22.75,10.171875 L21.125,11.421875 L20.40625,10.5625 L17.203125,10.5625 L17.203125,12.84375 L20.15625,12.84375 C20.5,12.84375 20.71875,12.953125 20.78125,13.21875 C20.109375,13.828125 19.109375,14.640625 19.109375,14.640625 L18.21875,13.53125 Z M13.015625,6.1875 L13.015625,9.859375 L15.765625,9.859375 L15.765625,8.09375 C15.765625,7.4375 15.75,6.8125 15.671875,6.1875 Z M20.46875,6.1875 L17.109375,6.1875 C17.1875,6.8125 17.203125,7.46875 17.203125,8.109375 L17.203125,9.859375 L20.46875,9.859375 Z M3.578125,17.6875 L5.734375,17.6875 L5.734375,15.125 L3.578125,15.125 Z M2.1875,18.359375 L2.1875,6.5 L2.40625,6.5 C3.09375,6.5 3.578125,6.890625 3.578125,6.984375 L3.578125,7.703125 L9.09375,7.703125 C8.859375,3.28125 8.359375,0.90625 7.703125,0.359375 C7.484375,0.171875 7.296875,0.125 6.9375,0.125 C6.484375,0.125 5.359375,0.21875 4.65625,0.28125 L4.625,-0.140625 C5.25,-0.234375 5.875,-0.4375 6.125,-0.625 C6.40625,-0.84375 6.484375,-1.21875 6.453125,-1.609375 C7.25,-1.609375 8.015625,-1.390625 8.59375,-0.859375 C9.546875,-0.03125 10.203125,2.515625 10.46875,7.5625 C10.921875,7.609375 11.203125,7.703125 11.375,7.890625 L9.703125,9.265625 L8.875,8.40625 L7.125,8.40625 L7.125,11.0625 L10.34375,11.0625 C10.65625,11.0625 10.890625,11.1875 10.9375,11.453125 C10.296875,12.09375 9.234375,12.9375 9.234375,12.9375 L8.296875,11.78125 L7.125,11.78125 L7.125,14.40625 L10.4375,14.40625 C10.75,14.40625 10.96875,14.515625 11.015625,14.78125 C10.390625,15.4375 9.3125,16.265625 9.3125,16.265625 L8.40625,15.125 L7.125,15.125 L7.125,17.6875 L10.78125,17.6875 C11.09375,17.6875 11.328125,17.8125 11.375,18.078125 C10.625,18.75 9.484375,19.625 9.484375,19.625 L8.453125,18.359375 L3.859375,18.359375 L2.1875,19.125 Z M3.578125,14.40625 L5.734375,14.40625 L5.734375,11.78125 L3.578125,11.78125 Z M3.578125,11.0625 L5.734375,11.0625 L5.734375,8.40625 L3.578125,8.40625 Z" transform="translate(0.4296875, 20.0625) scale(1, -1)"/>
</svg>