<svg height="21.8125" viewBox="0 0 24 21.8125" width="24" xmlns="http://www.w3.org/2000/svg">
<path d="M3.59375,5.46875 L3.21875,5.375 C3.53125,4.21875 3.703125,2.46875 3.4375,1.109375 C4.375,-0.078125 5.8125,2.453125 3.59375,5.46875 Z M4.875,5.828125 L4.53125,5.71875 C5.0625,4.78125 5.640625,3.28125 5.609375,2.1875 C6.640625,1.15625 7.84375,3.5 4.875,5.828125 Z M2.0625,5.28125 C2.015625,3.34375 1.609375,1.890625 0.890625,1.15625 C-0.28125,-0.640625 3.8125,-1.390625 2.453125,5.25 Z M19.015625,12.53125 L19.015625,9.859375 L17.015625,9.859375 L17.015625,12.765625 L22.515625,12.765625 C22.84375,12.765625 23.0625,12.890625 23.140625,13.15625 C22.421875,13.828125 21.3125,14.734375 21.3125,14.734375 L20.328125,13.484375 L10.3125,13.484375 L10.484375,12.765625 L15.546875,12.765625 L15.546875,9.859375 L13.578125,9.859375 L13.578125,11.71875 C14.09375,11.78125 14.328125,12 14.375,12.28125 L12.1875,12.53125 L12.1875,9.859375 L9.84375,9.859375 L10.03125,9.140625 L12.1875,9.140625 L12.1875,6.40625 L12.453125,6.40625 C12.984375,6.40625 13.578125,6.71875 13.578125,6.890625 L13.578125,9.140625 L15.546875,9.140625 L15.546875,6.09375 L10.421875,6.09375 L10.578125,5.40625 L15.546875,5.40625 L15.546875,2.875 L10.4375,2.875 L10.609375,2.1875 L15.546875,2.1875 L15.546875,-1.84375 L15.765625,-1.84375 C16.53125,-1.84375 17.015625,-1.484375 17.015625,-1.375 L17.015625,2.1875 L22.53125,2.1875 C22.875,2.1875 23.09375,2.296875 23.15625,2.5625 C22.4375,3.265625 21.265625,4.21875 21.265625,4.21875 L20.203125,2.875 L17.015625,2.875 L17.015625,5.40625 L22.703125,5.40625 C23.046875,5.40625 23.234375,5.515625 23.296875,5.765625 C22.65625,6.4375 21.578125,7.3125 21.578125,7.3125 L20.65625,6.09375 L17.015625,6.09375 L17.015625,9.140625 L19.015625,9.140625 L19.015625,6.40625 L19.265625,6.40625 C19.796875,6.40625 20.375,6.71875 20.375,6.890625 L20.375,9.140625 L22.984375,9.140625 C23.296875,9.140625 23.546875,9.265625 23.59375,9.53125 C22.984375,10.203125 21.890625,11.09375 21.890625,11.09375 L20.96875,9.859375 L20.375,9.859375 L20.375,11.71875 C20.90625,11.78125 21.140625,12 21.1875,12.28125 Z M3.3125,17.6875 L5.296875,17.6875 L5.296875,15.125 L3.3125,15.125 Z M6.1875,6.34375 L5.921875,6.140625 C6.578125,5.5625 7.265625,4.46875 7.390625,3.640625 C7.796875,3.34375 8.1875,3.453125 8.359375,3.765625 C8.109375,1.734375 7.78125,0.546875 7.390625,0.1875 C7.15625,0 6.984375,-0.046875 6.59375,-0.046875 C6.140625,-0.046875 4.96875,0.046875 4.265625,0.125 L4.25,-0.3125 C4.890625,-0.40625 5.5625,-0.578125 5.8125,-0.796875 C6.09375,-1.015625 6.171875,-1.421875 6.171875,-1.796875 C6.984375,-1.828125 7.75,-1.578125 8.328125,-1.0625 C9.234375,-0.21875 9.8125,2.40625 10.03125,7.578125 C10.515625,7.65625 10.796875,7.75 10.96875,7.9375 L9.234375,9.34375 L8.453125,8.453125 L6.671875,8.453125 L6.671875,11.140625 L9.4375,11.140625 C9.765625,11.140625 9.984375,11.25 10.0625,11.515625 C9.390625,12.171875 8.359375,13.015625 8.359375,13.015625 L7.421875,11.859375 L6.671875,11.859375 L6.671875,14.421875 L9.53125,14.421875 C9.859375,14.421875 10.078125,14.546875 10.125,14.8125 C9.484375,15.453125 8.453125,16.296875 8.453125,16.296875 L7.515625,15.125 L6.671875,15.125 L6.671875,17.6875 L9.953125,17.6875 C10.296875,17.6875 10.484375,17.8125 10.5625,18.078125 C9.84375,18.75 8.6875,19.625 8.6875,19.625 L7.65625,18.390625 L3.59375,18.390625 L1.921875,19.125 L1.921875,6.5 L2.140625,6.5 C2.828125,6.5 3.3125,6.859375 3.3125,6.984375 L3.3125,7.75 L8.640625,7.75 C8.59375,6.5 8.515625,5.40625 8.421875,4.46875 C8.28125,5.0625 7.65625,5.8125 6.1875,6.34375 Z M3.3125,14.421875 L5.296875,14.421875 L5.296875,11.859375 L3.3125,11.859375 Z M3.3125,11.140625 L5.296875,11.140625 L5.296875,8.453125 L3.3125,8.453125 Z M10.015625,17.09375 L10.203125,16.390625 L13.015625,16.390625 L13.015625,14.25 L13.265625,14.25 C13.796875,14.25 14.40625,14.5625 14.40625,14.734375 L14.40625,16.390625 L16.296875,16.390625 C16.609375,16.390625 16.828125,16.515625 16.890625,16.78125 C16.25,17.40625 15.28125,18.234375 15.28125,18.234375 L14.453125,17.09375 L14.40625,17.09375 L14.40625,19.15625 C14.921875,19.21875 15.140625,19.4375 15.1875,19.75 L13.015625,19.96875 L13.015625,17.09375 Z M16.796875,17.09375 L16.890625,16.78125 L16.984375,16.390625 L18.078125,16.390625 L18.078125,14.25 L18.34375,14.25 C18.859375,14.25 19.484375,14.5625 19.484375,14.734375 L19.484375,16.390625 L22.609375,16.390625 C22.921875,16.390625 23.109375,16.515625 23.1875,16.78125 C22.5625,17.40625 21.484375,18.28125 21.484375,18.28125 L20.5625,17.09375 L19.484375,17.09375 L19.484375,19.15625 C20.015625,19.21875 20.203125,19.4375 20.25,19.75 L18.078125,19.96875 L18.078125,17.09375 Z" transform="translate(0.34375, 19.96875) scale(1, -1)"/>
</svg>