<svg height="21.484375" viewBox="0 0 24 21.484375" width="24" xmlns="http://www.w3.org/2000/svg">
<path d="M3.625,5.515625 L3.265625,5.421875 C3.578125,4.25 3.765625,2.421875 3.484375,1.03125 C4.46875,-0.21875 5.921875,2.421875 3.625,5.515625 Z M4.875,5.921875 L4.53125,5.78125 C5.09375,4.875 5.640625,3.34375 5.640625,2.203125 C6.71875,1.125 7.9375,3.578125 4.875,5.921875 Z M6.234375,6.4375 L5.96875,6.234375 C6.640625,5.65625 7.3125,4.578125 7.4375,3.75 C8.59375,2.859375 9.625,5.28125 6.234375,6.4375 Z M2.0625,5.40625 C2.015625,3.359375 1.609375,1.84375 0.859375,1.125 C-0.34375,-0.71875 3.84375,-1.484375 2.453125,5.375 Z M3.484375,17.6875 L5.515625,17.6875 L5.515625,15.125 L3.484375,15.125 Z M10.875,18.8125 L10.875,18.09375 C10.125,18.796875 8.953125,19.65625 8.953125,19.65625 L7.921875,18.390625 L3.765625,18.390625 L2.09375,19.125 L2.09375,6.53125 L2.296875,6.53125 C3,6.53125 3.484375,6.890625 3.484375,7.015625 L3.484375,7.796875 L8.734375,7.796875 C8.609375,3.21875 8.25,0.75 7.703125,0.21875 C7.515625,0.03125 7.3125,-0.03125 6.9375,-0.03125 C6.484375,-0.03125 5.234375,0.078125 4.484375,0.140625 L4.484375,-0.28125 C5.15625,-0.390625 5.875,-0.546875 6.140625,-0.765625 C6.4375,-0.984375 6.5,-1.390625 6.5,-1.796875 C7.3125,-1.796875 8.09375,-1.5625 8.640625,-1.03125 C9.53125,-0.21875 9.984375,2.40625 10.15625,7.609375 C10.625,7.6875 10.890625,7.796875 11.0625,7.984375 L9.359375,9.390625 L8.546875,8.5 L6.90625,8.5 L6.90625,11.140625 L9.71875,11.140625 C10.03125,11.140625 10.265625,11.25 10.34375,11.515625 C9.671875,12.171875 8.609375,13.015625 8.609375,13.015625 L7.65625,11.859375 L6.90625,11.859375 L6.90625,14.453125 L9.8125,14.453125 C10.125,14.453125 10.375,14.5625 10.421875,14.828125 C9.765625,15.453125 8.71875,16.3125 8.71875,16.3125 L7.75,15.125 L6.90625,15.125 L6.90625,17.6875 L10.296875,17.6875 C10.609375,17.6875 10.796875,17.78125 10.875,18.046875 L10.875,13.421875 L11.0625,13.421875 C11.609375,13.421875 12.1875,13.703125 12.1875,13.828125 L12.1875,14.65625 L14.765625,14.65625 L14.765625,13.65625 L14.953125,13.65625 C15.390625,13.65625 16.0625,13.984375 16.078125,14.140625 L16.078125,17.953125 C16.46875,18.03125 16.828125,18.1875 16.9375,18.34375 L15.28125,19.609375 L14.546875,18.8125 L12.3125,18.8125 L10.875,19.46875 Z M3.484375,14.453125 L5.515625,14.453125 L5.515625,11.859375 L3.484375,11.859375 Z M3.484375,11.140625 L5.515625,11.140625 L5.515625,8.5 L3.484375,8.5 Z M15.9375,8.5625 L15.9375,6.28125 L13.03125,6.28125 L13.03125,8.5625 Z M17.375,8.5625 L20.453125,8.5625 L20.453125,6.28125 L17.375,6.28125 Z M15.9375,9.265625 L13.03125,9.265625 L13.03125,11.453125 L15.9375,11.453125 Z M17.375,9.265625 L17.375,11.453125 L20.453125,11.453125 L20.453125,9.265625 Z M11.609375,12.140625 L11.609375,4.34375 L11.828125,4.34375 C12.40625,4.34375 13.03125,4.6875 13.03125,4.828125 L13.03125,5.59375 L15.9375,5.59375 L15.9375,3.171875 L10.421875,3.171875 L10.578125,2.46875 L15.9375,2.46875 L15.9375,-1.828125 L16.171875,-1.828125 C16.921875,-1.828125 17.375,-1.46875 17.375,-1.34375 L17.375,2.46875 L22.796875,2.46875 C23.109375,2.46875 23.328125,2.59375 23.40625,2.859375 C22.703125,3.53125 21.578125,4.375 21.578125,4.375 L20.59375,3.171875 L17.375,3.171875 L17.375,5.59375 L20.453125,5.59375 L20.453125,4.625 L20.65625,4.625 C21.171875,4.625 21.859375,5.046875 21.859375,5.234375 L21.859375,11.234375 C22.296875,11.296875 22.65625,11.5 22.796875,11.65625 L21.046875,13.03125 L20.234375,12.140625 L13.15625,12.140625 L11.609375,12.859375 Z M14.765625,15.359375 L12.1875,15.359375 L12.1875,18.125 L14.765625,18.125 Z M17.15625,18.8125 L17.15625,13.46875 L17.359375,13.46875 C17.90625,13.46875 18.5,13.75 18.5,13.875 L18.5,14.65625 L21.21875,14.65625 L21.21875,13.6875 L21.40625,13.6875 C21.859375,13.6875 22.5625,14.015625 22.578125,14.15625 L22.578125,18 C22.921875,18.046875 23.234375,18.21875 23.359375,18.359375 L21.765625,19.578125 L21.03125,18.8125 L18.59375,18.8125 L17.15625,19.46875 Z M21.21875,15.359375 L18.5,15.359375 L18.5,18.125 L21.21875,18.125 Z" transform="translate(0.46875, 19.65625) scale(1, -1)"/>
</svg>