<svg height="21.828125" viewBox="0 0 24 21.828125" width="24" xmlns="http://www.w3.org/2000/svg">
<path d="M7.75,6.078125 L16.15625,6.078125 L16.15625,3.640625 L7.75,3.640625 Z M7.75,6.765625 L7.75,9.046875 L16.15625,9.046875 L16.15625,6.765625 Z M6.21875,9.75 L6.21875,-1.828125 L6.453125,-1.828125 C7.125,-1.828125 7.75,-1.4375 7.75,-1.265625 L7.75,2.953125 L16.15625,2.953125 L16.15625,0.5 C16.15625,0.171875 16.0625,0.03125 15.578125,0.03125 C15.03125,0.03125 12.546875,0.1875 12.546875,0.1875 L12.546875,-0.1875 C13.625,-0.3125 14.28125,-0.5 14.640625,-0.765625 C14.953125,-0.984375 15.09375,-1.390625 15.171875,-1.84375 C17.453125,-1.625 17.734375,-0.84375 17.734375,0.359375 L17.734375,8.734375 C18.21875,8.8125 18.59375,9.03125 18.75,9.1875 L16.703125,10.703125 L15.90625,9.75 L7.890625,9.75 L6.21875,10.515625 Z M11.140625,16.0625 L11.140625,12.671875 L7.734375,12.671875 L7.734375,18.3125 L16.21875,18.3125 L16.21875,16.0625 L12.859375,16.0625 L11.140625,16.796875 Z M3.484375,14.046875 C3.59375,12.578125 2.90625,10.9375 2.234375,10.34375 C1.734375,9.953125 1.4375,9.4375 1.734375,8.921875 C2.0625,8.375 2.921875,8.515625 3.40625,9.03125 C3.90625,9.546875 4.296875,10.5625 4.25,11.953125 L19.96875,11.953125 C19.734375,11.109375 19.34375,10.0625 19.078125,9.40625 L19.421875,9.234375 C20.140625,9.859375 21.1875,10.96875 21.765625,11.71875 C22.21875,11.734375 22.515625,11.78125 22.6875,11.921875 L20.90625,13.65625 L19.921875,12.671875 L17.765625,12.671875 L17.765625,18.046875 C18.234375,18.140625 18.625,18.3125 18.796875,18.5 L16.875,19.984375 L15.984375,19.015625 L8.046875,19.015625 L6.21875,19.796875 L6.21875,12.671875 L4.203125,12.671875 C4.125,13.109375 4.03125,13.5625 3.890625,14.046875 Z M12.59375,12.671875 L12.59375,15.34375 L16.21875,15.34375 L16.21875,12.671875 Z" transform="translate(-0.0625, 19.984375) scale(1, -1)"/>
</svg>