<svg height="21.9375" viewBox="0 0 24 21.9375" width="24" xmlns="http://www.w3.org/2000/svg">
<path d="M11.140625,20.0625 L11.140625,17.40625 L1.34375,17.40625 L1.5625,16.703125 L22.15625,16.703125 C22.515625,16.703125 22.734375,16.828125 22.796875,17.09375 C21.90625,17.875 20.515625,18.90625 20.515625,18.90625 L19.296875,17.40625 L12.71875,17.40625 L12.71875,19.171875 C13.296875,19.25 13.53125,19.484375 13.578125,19.828125 Z M2.640625,8.5 L2.640625,-1.84375 L2.90625,-1.84375 C3.546875,-1.84375 4.203125,-1.46875 4.203125,-1.296875 L4.203125,7.78125 L19.796875,7.78125 L19.796875,0.453125 C19.796875,0.125 19.6875,-0.03125 19.265625,-0.03125 C18.75,-0.03125 16.46875,0.140625 16.46875,0.140625 L16.46875,-0.234375 C17.5,-0.359375 18.078125,-0.546875 18.40625,-0.796875 C18.71875,-1.03125 18.84375,-1.421875 18.90625,-1.875 C21.125,-1.6875 21.390625,-0.890625 21.390625,0.3125 L21.390625,7.46875 C21.859375,7.5625 22.25,7.78125 22.390625,7.9375 L20.375,9.453125 L19.578125,8.5 L4.375,8.5 L2.640625,9.265625 Z M16.25,14.140625 L16.25,11.328125 L7.703125,11.328125 L7.703125,14.140625 Z M6.171875,14.859375 L6.171875,9.4375 L6.40625,9.4375 C7.0625,9.4375 7.703125,9.796875 7.703125,9.9375 L7.703125,10.625 L16.25,10.625 L16.25,9.578125 L16.484375,9.578125 C16.96875,9.578125 17.78125,9.90625 17.8125,10.0625 L17.8125,13.828125 C18.265625,13.921875 18.640625,14.140625 18.8125,14.328125 L16.84375,15.796875 L16.015625,14.859375 L7.828125,14.859375 L6.171875,15.578125 Z M15,5.1875 L15,2.1875 L8.90625,2.1875 L8.90625,5.1875 Z M7.421875,5.875 L7.421875,0.078125 L7.625,0.078125 C8.25,0.078125 8.90625,0.40625 8.90625,0.546875 L8.90625,1.484375 L15,1.484375 L15,0.453125 L15.234375,0.453125 C15.75,0.453125 16.484375,0.8125 16.515625,0.953125 L16.515625,4.96875 C16.890625,5.046875 17.28125,5.234375 17.40625,5.40625 L15.59375,6.765625 L14.78125,5.875 L9.03125,5.875 L7.421875,6.59375 Z" transform="translate(-0.0703125, 20.0625) scale(1, -1)"/>
</svg>