<svg height="21.9375" viewBox="0 0 24 21.9375" width="24" xmlns="http://www.w3.org/2000/svg">
<path d="M20.140625,20.09375 C18.265625,18.71875 15.640625,17.46875 13.515625,16.65625 L13.78125,16.21875 C16.203125,16.78125 19.015625,17.734375 21.046875,18.765625 C21.5,18.640625 21.71875,18.671875 21.890625,18.890625 Z M20.46875,16.78125 C18.703125,15.359375 16.25,14.234375 14.0625,13.53125 L14.328125,13.109375 C16.75,13.53125 19.4375,14.375 21.4375,15.453125 C21.859375,15.34375 22.109375,15.359375 22.265625,15.59375 Z M21.03125,13.390625 C18.9375,11.46875 16.34375,10.21875 13.515625,9.4375 L13.703125,9 C16.796875,9.5 19.703125,10.421875 22.0625,12.078125 C22.5625,11.96875 22.78125,12.03125 22.96875,12.265625 Z M16.375,5.5 C15.59375,4.21875 14.46875,3.078125 13.078125,2.0625 C11.765625,2.734375 10.65625,3.640625 9.84375,4.78125 L10.34375,5.65625 L22.421875,5.65625 C22.75,5.65625 22.984375,5.78125 23.0625,6.046875 C22.25,6.796875 20.953125,7.78125 20.953125,7.78125 L19.796875,6.359375 L18.640625,6.359375 C19.3125,6.953125 18.765625,8.765625 15.125,8.765625 L14.90625,8.515625 C15.859375,8.0625 17.09375,7.15625 17.609375,6.359375 L10.703125,6.359375 C10.9375,6.890625 11.15625,7.421875 11.359375,7.9375 C11.859375,7.921875 12.140625,8.0625 12.265625,8.40625 L9.90625,9.078125 C9.671875,8.1875 9.359375,7.265625 8.953125,6.359375 L1.15625,6.359375 L1.375,5.65625 L8.609375,5.65625 C7.203125,2.859375 4.890625,0.21875 1.265625,-1.53125 L1.484375,-1.84375 C5.375,-0.390625 7.890625,1.84375 9.546875,4.296875 C10.21875,3.140625 11.09375,2.1875 12.09375,1.390625 C10.015625,0.09375 7.4375,-0.890625 4.6875,-1.421875 L4.796875,-1.828125 C7.96875,-1.484375 10.84375,-0.578125 13.15625,0.671875 C15.359375,-0.671875 18.21875,-1.421875 21.703125,-1.84375 C21.859375,-1.0625 22.34375,-0.53125 23.046875,-0.359375 L23.046875,-0.09375 C19.75,0.078125 16.828125,0.5 14.453125,1.4375 C15.703125,2.25 16.75,3.1875 17.5,4.203125 C18.046875,4.078125 18.265625,4.15625 18.40625,4.390625 Z M9.453125,11.828125 L9.21875,11.59375 C9.703125,11.328125 10.21875,10.921875 10.6875,10.484375 L5.546875,10.171875 C6.078125,10.734375 6.640625,11.40625 7.15625,12.078125 L13.421875,12.078125 C13.734375,12.078125 13.96875,12.1875 14.015625,12.453125 C13.3125,13.078125 12.234375,13.84375 12.234375,13.84375 L11.296875,12.796875 L5.734375,12.796875 L5.734375,14.140625 L11.90625,14.140625 C12.1875,14.140625 12.40625,14.25 12.484375,14.515625 C11.875,15.09375 10.9375,15.75 10.9375,15.75 L10.15625,14.859375 L5.734375,14.859375 L5.734375,16.15625 L11.78125,16.15625 C12.125,16.15625 12.3125,16.265625 12.359375,16.53125 C11.78125,17.09375 10.84375,17.765625 10.84375,17.765625 L10.0625,16.84375 L5.734375,16.84375 L5.734375,18.140625 L12.625,18.140625 C12.953125,18.140625 13.171875,18.265625 13.21875,18.53125 C12.546875,19.15625 11.46875,19.96875 11.46875,19.96875 L10.515625,18.84375 L6.03125,18.84375 L4.21875,19.625 L4.21875,12.796875 L1.25,12.796875 L1.4375,12.078125 L5.375,12.078125 C5.15625,11.421875 4.875,10.703125 4.609375,10.125 L1.96875,10.03125 L3.078125,8.234375 C3.28125,8.28125 3.484375,8.453125 3.625,8.71875 C6.953125,9.234375 9.4375,9.671875 11.1875,10.015625 C11.515625,9.640625 11.8125,9.234375 11.96875,8.875 C13.515625,8.15625 14.15625,11.1875 9.453125,11.828125 Z" transform="translate(-0.109375, 20.09375) scale(1, -1)"/>
</svg>