<svg height="21.984375" viewBox="0 0 24 21.984375" width="24" xmlns="http://www.w3.org/2000/svg">
<path d="M20.140625,20.09375 C18.265625,18.71875 15.640625,17.46875 13.515625,16.65625 L13.78125,16.21875 C16.203125,16.78125 19.015625,17.734375 21.046875,18.765625 C21.5,18.640625 21.71875,18.671875 21.890625,18.890625 Z M20.46875,16.78125 C18.703125,15.359375 16.25,14.234375 14.0625,13.53125 L14.328125,13.109375 C16.75,13.53125 19.4375,14.375 21.4375,15.453125 C21.859375,15.34375 22.109375,15.359375 22.265625,15.59375 Z M21.03125,13.390625 C18.9375,11.453125 16.3125,10.171875 13.484375,9.390625 L13.703125,8.921875 C16.796875,9.453125 19.703125,10.390625 22.0625,12.078125 C22.5625,11.96875 22.796875,12.03125 22.96875,12.265625 Z M9.234375,9.40625 C9.09375,8.65625 8.921875,7.921875 8.6875,7.171875 L1.390625,7.171875 L1.609375,6.484375 L8.453125,6.484375 C7.296875,3.28125 5.046875,0.34375 0.953125,-1.5625 L1.171875,-1.875 C4.9375,-0.53125 7.296875,1.515625 8.8125,3.84375 C9.625,2.640625 10.65625,1.6875 11.875,0.90625 C9.71875,-0.125 7.171875,-0.90625 4.484375,-1.4375 L4.625,-1.84375 C7.78125,-1.46875 10.609375,-0.765625 12.984375,0.28125 C15.359375,-0.890625 18.3125,-1.53125 21.796875,-1.890625 C21.9375,-1.125 22.390625,-0.59375 23.09375,-0.4375 L23.09375,-0.171875 C19.890625,-0.046875 16.96875,0.28125 14.546875,1.03125 C15.953125,1.828125 17.203125,2.78125 18.21875,3.890625 C18.796875,3.90625 19.0625,3.953125 19.265625,4.15625 L17.640625,5.6875 L16.53125,4.75 L9.359375,4.75 C9.671875,5.328125 9.90625,5.90625 10.15625,6.484375 L22.015625,6.484375 C22.34375,6.484375 22.578125,6.59375 22.625,6.859375 C21.84375,7.578125 20.546875,8.59375 20.546875,8.59375 L19.390625,7.171875 L10.390625,7.171875 L10.75,8.359375 C11.25,8.359375 11.5625,8.5 11.65625,8.828125 Z M9.3125,4.0625 L16.25,4.0625 C15.40625,3.125 14.359375,2.28125 13.078125,1.5625 C11.5625,2.15625 10.296875,2.96875 9.3125,4.0625 Z M9.453125,11.828125 L9.21875,11.59375 C9.703125,11.328125 10.21875,10.921875 10.6875,10.484375 L5.546875,10.171875 C6.078125,10.734375 6.640625,11.40625 7.15625,12.078125 L13.421875,12.078125 C13.734375,12.078125 13.96875,12.1875 14.015625,12.453125 C13.3125,13.078125 12.234375,13.84375 12.234375,13.84375 L11.296875,12.796875 L5.734375,12.796875 L5.734375,14.140625 L11.90625,14.140625 C12.1875,14.140625 12.40625,14.25 12.484375,14.515625 C11.875,15.09375 10.9375,15.75 10.9375,15.75 L10.15625,14.859375 L5.734375,14.859375 L5.734375,16.15625 L11.78125,16.15625 C12.125,16.15625 12.3125,16.265625 12.359375,16.53125 C11.78125,17.09375 10.84375,17.765625 10.84375,17.765625 L10.0625,16.84375 L5.734375,16.84375 L5.734375,18.140625 L12.625,18.140625 C12.953125,18.140625 13.171875,18.265625 13.21875,18.53125 C12.546875,19.15625 11.46875,19.96875 11.46875,19.96875 L10.515625,18.84375 L6.03125,18.84375 L4.21875,19.625 L4.21875,12.796875 L1.25,12.796875 L1.4375,12.078125 L5.375,12.078125 C5.15625,11.421875 4.875,10.703125 4.609375,10.125 L1.96875,10.03125 L3.078125,8.234375 C3.28125,8.28125 3.484375,8.453125 3.625,8.71875 C6.953125,9.234375 9.4375,9.671875 11.1875,10.015625 C11.515625,9.640625 11.8125,9.234375 11.96875,8.875 C13.515625,8.15625 14.15625,11.1875 9.453125,11.828125 Z" transform="translate(-0.0234375, 20.09375) scale(1, -1)"/>
</svg>