<svg height="21.65625" viewBox="0 0 24 21.65625" width="24" xmlns="http://www.w3.org/2000/svg">
<path d="M2.328125,19.78125 L2.328125,-1.875 L2.640625,-1.875 C3.21875,-1.875 3.890625,-1.46875 3.890625,-1.25 L3.890625,18.890625 C4.4375,18.953125 4.578125,19.203125 4.625,19.515625 Z M20.09375,19.78125 L20.09375,0.765625 C20.09375,0.34375 19.921875,0.1875 19.421875,0.1875 C18.765625,0.1875 15.59375,0.4375 15.59375,0.4375 L15.59375,0.046875 C16.9375,-0.125 17.71875,-0.359375 18.140625,-0.640625 C18.546875,-0.90625 18.71875,-1.34375 18.8125,-1.875 C21.390625,-1.609375 21.640625,-0.71875 21.640625,0.59375 L21.640625,18.84375 C22.21875,18.90625 22.46875,19.15625 22.53125,19.484375 Z M4.78125,15.484375 L4.96875,14.78125 L6.9375,14.78125 L6.9375,12.34375 L4.34375,12.34375 L4.53125,11.65625 L10.984375,11.65625 C11.328125,11.65625 11.546875,11.78125 11.609375,12.03125 C11.015625,12.640625 10.0625,13.4375 10.0625,13.4375 L9.234375,12.34375 L8.328125,12.34375 L8.328125,14.78125 L10.46875,14.78125 C10.78125,14.78125 10.984375,14.90625 11.0625,15.140625 C10.515625,15.71875 9.625,16.46875 9.625,16.46875 L8.875,15.484375 L8.328125,15.484375 L8.328125,17.609375 L10.78125,17.609375 C11.09375,17.609375 11.296875,17.734375 11.375,18 C10.75,18.59375 9.796875,19.421875 9.796875,19.421875 L8.921875,18.3125 L4.515625,18.3125 L4.703125,17.609375 L6.9375,17.609375 L6.9375,15.484375 Z M12.59375,15.484375 L12.796875,14.78125 L14.953125,14.78125 L14.953125,12.34375 L12.171875,12.34375 L12.359375,11.65625 L19.171875,11.65625 C19.484375,11.65625 19.734375,11.78125 19.78125,12.03125 C19.15625,12.640625 18.171875,13.484375 18.171875,13.484375 L17.328125,12.34375 L16.390625,12.34375 L16.390625,14.78125 L18.796875,14.78125 C19.109375,14.78125 19.3125,14.90625 19.375,15.140625 C18.8125,15.71875 17.953125,16.46875 17.953125,16.46875 L17.140625,15.484375 L16.390625,15.484375 L16.390625,17.609375 L18.953125,17.609375 C19.265625,17.609375 19.484375,17.734375 19.5625,18 C18.90625,18.59375 17.953125,19.421875 17.953125,19.421875 L17.09375,18.3125 L12.3125,18.3125 L12.5,17.609375 L14.953125,17.609375 L14.953125,15.484375 Z" transform="translate(-0.4296875, 19.78125) scale(1, -1)"/>
</svg>