<svg height="22.140625" viewBox="0 0 24 22.140625" width="24" xmlns="http://www.w3.org/2000/svg">
<path d="M11.109375,20.25 C10.890625,19.34375 10.515625,18.078125 10.25,17.15625 L5.875,17.15625 L4.171875,17.921875 L4.171875,6.75 L4.4375,6.75 C5.09375,6.75 5.734375,7.109375 5.734375,7.265625 L5.734375,8.25 L8.140625,8.25 C7.828125,3.34375 6.234375,0.578125 1.015625,-1.515625 L1.15625,-1.890625 C7.3125,-0.234375 9.4375,2.65625 9.90625,8.25 L12.21875,8.25 L12.21875,0.1875 C12.21875,-1.078125 12.671875,-1.4375 14.765625,-1.4375 L17.828125,-1.4375 C22.171875,-1.4375 22.9375,-1.171875 22.9375,-0.453125 C22.9375,-0.140625 22.796875,0.046875 22.21875,0.21875 L22.171875,3.359375 L21.859375,3.359375 C21.578125,1.9375 21.3125,0.71875 21.125,0.3125 C21,0.09375 20.90625,0.03125 20.5625,0 C20.15625,-0.046875 19.15625,-0.078125 17.875,-0.078125 L14.953125,-0.078125 C13.875,-0.078125 13.75,0.046875 13.75,0.484375 L13.75,8.25 L18.28125,8.25 L18.28125,7.03125 L18.53125,7.03125 C19.0625,7.03125 19.84375,7.375 19.875,7.515625 L19.875,16.15625 C20.328125,16.25 20.71875,16.46875 20.875,16.65625 L18.9375,18.140625 L18.046875,17.15625 L11.203125,17.15625 C11.765625,17.78125 12.40625,18.578125 12.859375,19.15625 C13.375,19.15625 13.703125,19.34375 13.796875,19.6875 Z M5.734375,8.921875 L5.734375,12.390625 L11.203125,12.390625 L11.203125,8.921875 Z M18.28125,8.921875 L12.71875,8.921875 L12.71875,12.390625 L18.28125,12.390625 Z M5.734375,13.109375 L5.734375,16.46875 L11.203125,16.46875 L11.203125,13.109375 Z M18.28125,13.109375 L12.71875,13.109375 L12.71875,16.46875 L18.28125,16.46875 Z M18.046875,5.28125 L17.765625,5.109375 C18.09375,4.6875 18.484375,4.109375 18.765625,3.484375 L16.34375,3.21875 C16.921875,4.171875 17.40625,5.28125 17.71875,6.125 C18.234375,6.140625 18.5,6.359375 18.578125,6.640625 L16.53125,7.15625 C16.375,5.953125 16.0625,4.375 15.671875,3.140625 L14.28125,3.046875 L15.125,1.421875 C15.34375,1.46875 15.5,1.609375 15.625,1.921875 C17.015625,2.359375 18.140625,2.71875 18.984375,3 C19.15625,2.59375 19.25,2.1875 19.265625,1.828125 C20.421875,0.796875 21.671875,3.359375 18.046875,5.28125 Z" transform="translate(0.0234375, 20.25) scale(1, -1)"/>
</svg>