<svg height="21.828125" viewBox="0 0 24 21.828125" width="24" xmlns="http://www.w3.org/2000/svg">
<path d="M1.890625,18.453125 L2.09375,17.765625 L21.796875,17.765625 C22.15625,17.765625 22.390625,17.875 22.46875,18.140625 C21.59375,18.890625 20.25,19.890625 20.25,19.890625 L19.078125,18.453125 Z M6.8125,4.03125 L7.015625,3.3125 L11.1875,3.3125 L11.1875,-1.5625 L11.421875,-1.5625 C12.1875,-1.5625 12.703125,-1.25 12.703125,-1.15625 L12.703125,3.3125 L17.109375,3.3125 C17.421875,3.3125 17.640625,3.4375 17.71875,3.703125 C16.984375,4.3125 15.890625,5.109375 15.890625,5.109375 L14.90625,4.03125 Z M3,9.390625 L3,-1.890625 L3.265625,-1.890625 C3.90625,-1.890625 4.53125,-1.515625 4.53125,-1.3125 L4.53125,8.6875 L8.96875,8.6875 C8.546875,6.703125 7.4375,5.515625 4.921875,4.609375 L5.015625,4.21875 C8.140625,4.875 9.953125,6.09375 10.5625,8.6875 L12.90625,8.6875 L12.90625,6.71875 C12.90625,5.78125 13.125,5.46875 14.46875,5.46875 L15.90625,5.46875 C18.265625,5.46875 18.796875,5.6875 18.796875,6.265625 C18.796875,6.5 18.671875,6.671875 18.234375,6.8125 L18.171875,8.109375 L17.90625,8.109375 C17.734375,7.515625 17.546875,7.015625 17.40625,6.796875 C17.328125,6.71875 17.203125,6.703125 17.09375,6.671875 C16.890625,6.671875 16.46875,6.671875 15.984375,6.671875 L14.828125,6.671875 C14.40625,6.671875 14.328125,6.71875 14.328125,6.953125 L14.328125,8.6875 L19.46875,8.6875 L19.46875,0.484375 C19.46875,0.140625 19.34375,0.03125 18.9375,0.03125 C18.390625,0.03125 16.125,0.171875 16.125,0.171875 L16.125,-0.21875 C17.140625,-0.34375 17.734375,-0.53125 18.046875,-0.765625 C18.390625,-1.03125 18.484375,-1.46875 18.546875,-1.9375 C20.765625,-1.734375 21.03125,-0.9375 21.03125,0.3125 L21.03125,8.40625 C21.5,8.46875 21.890625,8.6875 22.03125,8.859375 L20.015625,10.375 L19.21875,9.390625 L4.703125,9.390625 L3,10.171875 Z M16.46875,15.140625 L16.46875,12.28125 L7.375,12.28125 L7.375,15.140625 Z M5.8125,15.84375 L5.8125,10.296875 L6.046875,10.296875 C6.671875,10.296875 7.375,10.625 7.375,10.78125 L7.375,11.59375 L16.46875,11.59375 L16.46875,10.515625 L16.734375,10.515625 C17.234375,10.515625 18.03125,10.890625 18.046875,11.046875 L18.046875,14.8125 C18.53125,14.90625 18.953125,15.125 19.125,15.28125 L17.109375,16.828125 L16.21875,15.84375 L7.515625,15.84375 L5.8125,16.609375 Z" transform="translate(-0.1796875, 19.890625) scale(1, -1)"/>
</svg>