<svg height="22.59375" viewBox="0 0 24 22.59375" width="24" xmlns="http://www.w3.org/2000/svg">
<path d="M12.703125,2.921875 L12.546875,2.546875 C15.9375,1.3125 18.625,-0.53125 19.703125,-1.734375 C21.59375,-2.453125 22.265625,1.5625 12.703125,2.921875 Z M14.609375,7.390625 L14.453125,7.03125 C16.21875,6.140625 17.59375,4.890625 18.09375,4.125 C19.6875,3.4375 20.515625,6.640625 14.609375,7.390625 Z M4.65625,3.34375 L4.3125,3.234375 C4.5625,2.1875 4.734375,0.546875 4.484375,-0.75 C5.515625,-2.0625 7.171875,0.484375 4.65625,3.34375 Z M6.578125,3.625 L6.265625,3.5 C6.796875,2.5 7.3125,0.890625 7.296875,-0.34375 C8.46875,-1.515625 9.890625,1.109375 6.578125,3.625 Z M8.65625,3.859375 L8.375,3.703125 C9.171875,2.828125 9.984375,1.375 9.984375,0.1875 C11.296875,-0.953125 12.640625,2.09375 8.65625,3.859375 Z M2.65625,3.28125 C2.734375,1.828125 2.109375,0.21875 1.421875,-0.4375 C0.984375,-0.765625 0.796875,-1.265625 1.03125,-1.6875 C1.34375,-2.109375 2.109375,-1.921875 2.546875,-1.4375 C3.1875,-0.75 3.71875,0.984375 3.09375,3.28125 Z M19.125,16.34375 C18.5,14.875 17.65625,13.4375 16.578125,12.125 C15.640625,13.125 14.90625,14.234375 14.28125,15.40625 L14.828125,16.34375 Z M4.4375,20.140625 C3.625,16.984375 2.234375,13.796875 0.84375,11.765625 L1.21875,11.546875 C1.609375,11.921875 1.984375,12.359375 2.375,12.84375 L2.375,3.859375 L2.609375,3.859375 C3.3125,3.859375 3.796875,4.21875 3.796875,4.34375 L3.796875,5.203125 L9.046875,5.203125 L9.046875,4.171875 L9.3125,4.171875 C9.84375,4.171875 10.421875,4.515625 10.46875,4.625 L10.46875,6.5 C12.9375,7.515625 15,8.828125 16.6875,10.390625 C18.046875,8.78125 19.828125,7.421875 22.125,6.359375 C22.3125,7.078125 22.78125,7.484375 23.40625,7.625 L23.46875,7.875 C21.03125,8.65625 19.0625,9.8125 17.5,11.203125 C18.9375,12.71875 20.046875,14.375 20.859375,16.15625 C21.4375,16.171875 21.671875,16.25 21.859375,16.46875 L20.15625,18 L19.125,17.046875 L15.1875,17.046875 C15.484375,17.609375 15.75,18.234375 15.984375,18.890625 C16.515625,18.859375 16.796875,19.078125 16.890625,19.34375 L14.5625,20.0625 C13.78125,16.78125 12.234375,13.796875 10.53125,11.921875 L10.875,11.71875 C12,12.53125 13.03125,13.609375 13.9375,14.90625 C14.46875,13.609375 15.125,12.4375 15.90625,11.328125 C14.421875,9.640625 12.578125,8.1875 10.46875,7.03125 L10.46875,12.890625 C10.828125,12.953125 11.15625,13.125 11.328125,13.3125 L9.8125,14.65625 L9.046875,13.828125 L6.703125,13.828125 C7.390625,14.640625 8.203125,15.8125 8.734375,16.484375 C9.1875,16.515625 9.484375,16.5625 9.640625,16.703125 L7.984375,18.3125 L7.125,17.375 L5.109375,17.375 C5.375,17.90625 5.59375,18.4375 5.8125,18.953125 C6.28125,18.9375 6.59375,19.15625 6.703125,19.4375 Z M6.125,13.828125 L4.109375,13.828125 L3.34375,14.15625 C3.84375,14.921875 4.34375,15.796875 4.78125,16.6875 L7.125,16.6875 C6.84375,15.8125 6.453125,14.65625 6.125,13.828125 Z M5.734375,13.125 L5.734375,9.984375 L3.796875,9.984375 L3.796875,13.125 Z M7.015625,13.125 L9.046875,13.125 L9.046875,9.984375 L7.015625,9.984375 Z M5.734375,9.265625 L5.734375,5.90625 L3.796875,5.90625 L3.796875,9.265625 Z M7.015625,9.265625 L9.046875,9.265625 L9.046875,5.90625 L7.015625,5.90625 Z" transform="translate(-0.1328125, 20.140625) scale(1, -1)"/>
</svg>