<svg height="22.21875" viewBox="0 0 24 22.21875" width="24" xmlns="http://www.w3.org/2000/svg">
<path d="M4.625,3.34375 L4.265625,3.234375 C4.53125,2.1875 4.6875,0.53125 4.46875,-0.75 C5.46875,-2.015625 7.078125,0.484375 4.625,3.34375 Z M6.703125,3.5 L6.359375,3.390625 C6.84375,2.453125 7.34375,0.9375 7.296875,-0.234375 C8.421875,-1.34375 9.8125,1.125 6.703125,3.5 Z M8.8125,3.796875 L8.515625,3.625 C9.21875,2.875 9.890625,1.578125 9.890625,0.546875 C11.109375,-0.546875 12.40625,2.234375 8.8125,3.796875 Z M2.609375,3.34375 C2.640625,1.84375 1.921875,0.234375 1.15625,-0.359375 C0.71875,-0.703125 0.5,-1.203125 0.71875,-1.609375 C1.03125,-2.0625 1.84375,-1.890625 2.28125,-1.4375 C3,-0.75 3.625,0.984375 3.046875,3.34375 Z M12.046875,9.140625 L12.046875,-1.84375 L12.28125,-1.84375 C12.90625,-1.84375 13.515625,-1.484375 13.515625,-1.3125 L13.515625,4.15625 L20.15625,4.15625 L20.15625,0.453125 C20.15625,0.125 20.0625,0 19.6875,0 C19.25,0 17.359375,0.125 17.359375,0.140625 L17.359375,-0.234375 C18.21875,-0.359375 18.71875,-0.53125 19.015625,-0.765625 C19.296875,-1.03125 19.390625,-1.4375 19.4375,-1.875 C21.40625,-1.65625 21.640625,-0.9375 21.640625,0.28125 L21.640625,8.15625 C22.125,8.234375 22.515625,8.453125 22.6875,8.640625 L20.6875,10.109375 L19.921875,9.140625 L13.625,9.140625 L12.046875,9.90625 Z M13.515625,4.875 L13.515625,8.46875 L16.078125,8.46875 L16.078125,4.875 Z M17.421875,8.46875 L20.15625,8.46875 L20.15625,4.875 L17.421875,4.875 Z M15.984375,19.96875 L15.984375,17.5 L11.046875,17.5 L11.234375,16.78125 L15.984375,16.78125 L15.984375,14.8125 L11.734375,14.8125 L11.921875,14.09375 L15.984375,14.09375 L15.984375,11.875 L10.828125,11.875 L11.015625,11.15625 L22.734375,11.15625 C23.046875,11.15625 23.28125,11.28125 23.328125,11.546875 C22.578125,12.234375 21.390625,13.171875 21.390625,13.171875 L20.328125,11.875 L17.5,11.875 L17.5,14.09375 L21.84375,14.09375 C22.15625,14.09375 22.390625,14.203125 22.4375,14.46875 C21.703125,15.171875 20.546875,16.0625 20.546875,16.0625 L19.515625,14.8125 L17.5,14.8125 L17.5,16.78125 L22.265625,16.78125 C22.609375,16.78125 22.84375,16.890625 22.890625,17.15625 C22.15625,17.875 20.953125,18.8125 20.953125,18.8125 L19.890625,17.5 L17.5,17.5 L17.5,19.109375 C18.046875,19.203125 18.234375,19.390625 18.28125,19.734375 Z M5.90625,13.734375 L4.015625,13.734375 L2.96875,14.1875 C3.546875,14.953125 4.109375,15.8125 4.609375,16.734375 L7.03125,16.734375 C6.71875,15.8125 6.28125,14.59375 5.90625,13.734375 Z M4.375,20.15625 C3.484375,17.046875 1.9375,13.9375 0.453125,12 L0.84375,11.765625 C1.34375,12.21875 1.84375,12.75 2.328125,13.34375 L2.328125,3.84375 L2.546875,3.84375 C3.234375,3.84375 3.703125,4.203125 3.703125,4.3125 L3.703125,5.15625 L9.046875,5.15625 L9.046875,4.15625 L9.34375,4.15625 C9.84375,4.15625 10.390625,4.515625 10.46875,4.609375 L10.46875,12.796875 C10.828125,12.859375 11.15625,13.03125 11.328125,13.21875 L9.84375,14.5625 L9.09375,13.734375 L6.4375,13.734375 C7.203125,14.546875 8.109375,15.8125 8.6875,16.53125 C9.140625,16.5625 9.4375,16.578125 9.59375,16.75 L7.921875,18.359375 L7.015625,17.40625 L4.96875,17.40625 C5.234375,17.921875 5.46875,18.453125 5.71875,18.984375 C6.234375,18.953125 6.5,19.171875 6.625,19.421875 Z M5.6875,13.03125 L5.6875,9.90625 L3.703125,9.90625 L3.703125,13.03125 Z M6.984375,13.03125 L9.046875,13.03125 L9.046875,9.90625 L6.984375,9.90625 Z M5.6875,9.1875 L5.6875,5.859375 L3.703125,5.859375 L3.703125,9.1875 Z M6.984375,9.1875 L9.046875,9.1875 L9.046875,5.859375 L6.984375,5.859375 Z" transform="translate(0.109375, 20.15625) scale(1, -1)"/>
</svg>