<svg height="22.21875" viewBox="0 0 24 22.21875" width="24" xmlns="http://www.w3.org/2000/svg">
<path d="M3.390625,3.28125 L2.953125,3.3125 C2.96875,1.84375 2.25,0.265625 1.515625,-0.359375 C1.109375,-0.703125 0.859375,-1.171875 1.078125,-1.578125 C1.421875,-2.0625 2.1875,-1.875 2.609375,-1.421875 C3.34375,-0.75 3.9375,0.953125 3.390625,3.28125 Z M8.40625,3.84375 L8.109375,3.703125 C8.609375,3.171875 9.078125,2.25 9.078125,1.515625 C10.171875,0.53125 11.46875,2.875 8.40625,3.84375 Z M6.578125,3.546875 L6.265625,3.4375 C6.703125,2.640625 7.15625,1.265625 7.15625,0.265625 C8.203125,-0.8125 9.625,1.484375 6.578125,3.546875 Z M4.796875,3.34375 L4.46875,3.234375 C4.734375,2.1875 4.921875,0.546875 4.703125,-0.71875 C5.71875,-2.015625 7.375,0.5 4.796875,3.34375 Z M8.6875,5.875 L7.0625,5.875 L7.0625,9.234375 L8.6875,9.234375 Z M4.0625,4.53125 L4.0625,5.1875 L8.6875,5.1875 L8.6875,4.390625 L8.953125,4.390625 C9.484375,4.390625 10.015625,4.734375 10.0625,4.828125 L10.0625,12.859375 C10.4375,12.9375 10.78125,13.078125 10.9375,13.265625 L9.453125,14.609375 L8.71875,13.796875 L7.03125,13.796875 C7.828125,14.640625 8.8125,15.84375 9.40625,16.515625 C9.890625,16.53125 10.171875,16.5625 10.34375,16.734375 L8.65625,18.34375 L7.734375,17.40625 L5.5,17.40625 C5.734375,17.90625 5.96875,18.4375 6.1875,18.953125 C6.71875,18.90625 7.015625,19.125 7.109375,19.375 L4.875,20.15625 C3.984375,16.984375 2.46875,13.890625 0.953125,11.921875 L1.3125,11.6875 C1.78125,12.09375 2.234375,12.578125 2.6875,13.078125 L2.6875,4.03125 L2.90625,4.03125 C3.59375,4.03125 4.0625,4.390625 4.0625,4.53125 Z M8.6875,9.953125 L7.0625,9.953125 L7.0625,13.078125 L8.6875,13.078125 Z M3.53125,14.15625 C4.109375,14.921875 4.625,15.796875 5.109375,16.6875 L7.703125,16.6875 C7.34375,15.8125 6.859375,14.640625 6.453125,13.796875 L4.375,13.796875 Z M4.0625,5.875 L4.0625,9.234375 L5.765625,9.234375 L5.765625,5.875 Z M4.0625,9.953125 L4.0625,13.078125 L5.765625,13.078125 L5.765625,9.953125 Z M11.453125,18.640625 L11.453125,10.171875 C11.453125,5.828125 11.25,1.578125 8.921875,-1.625 L9.3125,-1.875 C12.578125,1.3125 12.796875,6.078125 12.796875,10.203125 L12.796875,17.6875 L20.46875,17.6875 L20.46875,0.5 C20.46875,0.140625 20.359375,0 19.921875,0 C19.46875,0 17.25,0.171875 17.25,0.171875 L17.25,-0.21875 C18.234375,-0.34375 18.796875,-0.53125 19.15625,-0.765625 C19.4375,-1.03125 19.5625,-1.4375 19.609375,-1.875 C21.671875,-1.6875 21.90625,-0.90625 21.90625,0.34375 L21.90625,17.40625 C22.421875,17.5 22.796875,17.6875 22.96875,17.859375 L21.03125,19.375 L20.234375,18.40625 L13.0625,18.40625 L11.453125,19.125 Z M15.140625,3.796875 L15.140625,7.578125 L17.859375,7.578125 L17.859375,3.796875 Z M15.140625,2.234375 L15.140625,3.078125 L17.859375,3.078125 L17.859375,2.046875 L18.046875,2.046875 C18.484375,2.046875 19.109375,2.359375 19.125,2.5 L19.125,7.390625 C19.53125,7.484375 19.921875,7.65625 20.0625,7.828125 L18.390625,9.09375 L17.640625,8.296875 L15.265625,8.296875 L13.875,8.953125 L13.875,1.796875 L14.0625,1.796875 C14.609375,1.796875 15.140625,2.109375 15.140625,2.234375 Z M17.828125,16.9375 L15.71875,17.1875 L15.71875,14.328125 L13.390625,14.328125 L13.578125,13.609375 L15.71875,13.609375 L15.71875,10.796875 L12.9375,10.796875 L13.125,10.078125 L19.65625,10.078125 C19.96875,10.078125 20.1875,10.203125 20.25,10.46875 C19.6875,11.09375 18.75,11.859375 18.75,11.859375 L17.921875,10.796875 L17.015625,10.796875 L17.015625,13.609375 L19.265625,13.609375 C19.578125,13.609375 19.796875,13.734375 19.875,13.984375 C19.3125,14.5625 18.4375,15.34375 18.4375,15.34375 L17.640625,14.328125 L17.015625,14.328125 L17.015625,16.3125 C17.5625,16.390625 17.765625,16.609375 17.828125,16.9375 Z" transform="translate(0.0859375, 20.15625) scale(1, -1)"/>
</svg>