<svg height="22.5625" viewBox="0 0 24 22.5625" width="24" xmlns="http://www.w3.org/2000/svg">
<path d="M17.640625,10.421875 L17.375,10.21875 C18.359375,9.21875 19.5625,7.5625 19.78125,6.234375 C21.359375,5.046875 22.609375,8.421875 17.640625,10.421875 Z M17.046875,3.8125 L16.796875,3.578125 C18.28125,2.421875 20.1875,0.40625 20.65625,-1.21875 C22.484375,-2.421875 23.46875,1.65625 17.046875,3.8125 Z M4.15625,3.34375 L3.796875,3.265625 C4.0625,2.203125 4.15625,0.546875 3.9375,-0.71875 C4.921875,-1.96875 6.453125,0.453125 4.15625,3.34375 Z M5.921875,3.671875 L5.609375,3.546875 C6.078125,2.59375 6.546875,1.0625 6.53125,-0.125 C7.578125,-1.203125 8.921875,1.21875 5.921875,3.671875 Z M7.84375,4.0625 L7.5625,3.890625 C8.140625,3.140625 8.65625,1.84375 8.5625,0.84375 C9.71875,-0.28125 11.15625,2.328125 7.84375,4.0625 Z M2.15625,3.28125 C2.328125,1.875 1.890625,0.21875 1.25,-0.453125 C0.859375,-0.796875 0.703125,-1.296875 0.90625,-1.65625 C1.25,-2.09375 1.984375,-1.875 2.375,-1.390625 C2.921875,-0.671875 3.265625,1.0625 2.609375,3.28125 Z M19.5625,18.953125 C19.890625,15.5 20.8125,12.484375 22.125,10.375 C22.25,10.9375 22.6875,11.375 23.1875,11.546875 L23.234375,11.828125 C21.71875,13.4375 20.421875,16.25 19.921875,19.25 C20.359375,19.296875 20.515625,19.421875 20.59375,19.625 L18.265625,20.140625 C18.078125,17.453125 17.015625,13.921875 15.796875,11.65625 L15.125,12.21875 L14.28125,11.296875 L12.59375,11.296875 L12.59375,14.78125 L16.46875,14.78125 C16.796875,14.78125 16.984375,14.90625 17.0625,15.171875 C16.390625,15.84375 15.3125,16.796875 15.3125,16.796875 L14.328125,15.484375 L13.578125,15.484375 L13.578125,19.25 C14.09375,19.3125 14.28125,19.53125 14.328125,19.84375 L12.078125,20.0625 L12.078125,15.484375 L9.171875,15.484375 L9.359375,14.78125 L11.25,14.78125 C11.46875,8.296875 11.46875,3.234375 8.71875,-1.6875 L9.03125,-1.96875 C11.859375,1.6875 12.453125,5.6875 12.578125,10.578125 L14.546875,10.578125 C14.453125,3.625 14.25,0.71875 13.703125,0.09375 C13.53125,-0.09375 13.390625,-0.140625 13.03125,-0.140625 C12.625,-0.140625 11.71875,-0.078125 11.09375,0 L11.09375,-0.4375 C11.640625,-0.5 12.171875,-0.671875 12.40625,-0.890625 C12.640625,-1.109375 12.71875,-1.4375 12.71875,-1.875 C13.46875,-1.875 14.234375,-1.6875 14.734375,-1.0625 C15.546875,-0.125 15.8125,2.71875 15.90625,10.421875 C16.421875,10.484375 16.6875,10.609375 16.84375,10.796875 L16.25,11.296875 C17.78125,13.171875 18.984375,15.84375 19.5625,18.953125 Z M5.453125,13.828125 L3.765625,13.828125 L2.953125,14.1875 C3.484375,14.953125 3.953125,15.796875 4.390625,16.6875 L6.453125,16.6875 C6.171875,15.8125 5.78125,14.65625 5.453125,13.828125 Z M4.078125,20.140625 C3.34375,17.09375 2.046875,14.015625 0.703125,12.046875 L1.03125,11.828125 C1.421875,12.1875 1.796875,12.625 2.15625,13.078125 L2.15625,3.84375 L2.375,3.84375 C3.03125,3.84375 3.484375,4.203125 3.484375,4.296875 L3.484375,5.203125 L8.140625,5.203125 L8.140625,4.171875 L8.40625,4.171875 C8.875,4.171875 9.4375,4.515625 9.484375,4.609375 L9.484375,12.890625 C9.859375,12.953125 10.203125,13.125 10.34375,13.3125 L8.859375,14.640625 L8.140625,13.828125 L6.03125,13.828125 C6.703125,14.640625 7.515625,15.8125 8.015625,16.484375 C8.5,16.515625 8.78125,16.5625 8.953125,16.703125 L7.296875,18.28125 L6.40625,17.359375 L4.703125,17.359375 C4.96875,17.90625 5.1875,18.453125 5.40625,19.015625 C5.90625,18.984375 6.171875,19.203125 6.265625,19.484375 Z M5.15625,13.125 L5.15625,9.953125 L3.484375,9.953125 L3.484375,13.125 Z M6.359375,13.125 L8.140625,13.125 L8.140625,9.953125 L6.359375,9.953125 Z M5.15625,9.265625 L5.15625,5.90625 L3.484375,5.90625 L3.484375,9.265625 Z M6.359375,9.265625 L8.140625,9.265625 L8.140625,5.90625 L6.359375,5.90625 Z" transform="translate(-0.0859375, 20.140625) scale(1, -1)"/>
</svg>