<svg height="22.203125" viewBox="0 0 24 22.203125" width="24" xmlns="http://www.w3.org/2000/svg">
<path d="M10.890625,8.5 L10.625,8.296875 C11.296875,7.65625 11.921875,6.53125 11.953125,5.640625 C13.203125,4.578125 14.46875,7.21875 10.890625,8.5 Z M17.234375,8.5 L16.9375,8.296875 C17.609375,7.65625 18.28125,6.53125 18.40625,5.640625 C19.6875,4.609375 20.953125,7.25 17.234375,8.5 Z M4.296875,3.3125 L3.9375,3.234375 C4.15625,2.1875 4.296875,0.53125 4.03125,-0.75 C5.046875,-2.015625 6.59375,0.4375 4.296875,3.3125 Z M6.03125,3.625 L5.71875,3.5 C6.1875,2.5 6.703125,0.90625 6.640625,-0.265625 C7.75,-1.390625 9.140625,1.125 6.03125,3.625 Z M8.046875,3.859375 L7.75,3.71875 C8.40625,2.828125 8.96875,1.390625 8.875,0.21875 C10.0625,-0.9375 11.5,1.84375 8.046875,3.859375 Z M2.25,3.3125 C2.359375,1.9375 1.84375,0.28125 1.25,-0.390625 C0.859375,-0.71875 0.640625,-1.25 0.90625,-1.625 C1.265625,-2.0625 2.0625,-1.828125 2.40625,-1.3125 C2.921875,-0.578125 3.234375,1.125 2.65625,3.3125 Z M16.21875,18.9375 L16.34375,18.578125 L14.765625,19.78125 L13.96875,18.9375 L9.625,18.9375 L9.84375,18.234375 L14.1875,18.234375 L14.1875,14.78125 L12.359375,14.78125 L10.75,15.4375 C10.65625,13.828125 10.34375,10.921875 10.03125,8.875 C10.78125,8.765625 11.140625,8.8125 11.5,9 L11.640625,10.25 L14.515625,10.25 C14.46875,8.140625 14.421875,6.40625 14.359375,5.015625 C12.640625,4.125 10.921875,3.3125 10.15625,3 L11.328125,1.53125 C11.546875,1.65625 11.65625,1.875 11.6875,2.15625 C12.765625,3.046875 13.65625,3.8125 14.328125,4.390625 C14.1875,1.9375 13.9375,0.640625 13.609375,0.28125 C13.421875,0.078125 13.265625,0.03125 12.890625,0.03125 C12.453125,0.03125 11.375,0.125 10.65625,0.1875 L10.65625,-0.234375 C11.296875,-0.359375 11.921875,-0.53125 12.1875,-0.75 C12.453125,-0.953125 12.5,-1.375 12.5,-1.75 C13.3125,-1.78125 14.09375,-1.515625 14.609375,-0.90625 C15.453125,0.03125 15.765625,3.03125 15.859375,10.078125 C16.21875,10.125 16.484375,10.203125 16.625,10.3125 L16.46875,8.953125 C17.234375,8.875 17.59375,8.921875 17.96875,9.140625 L18.078125,10.25 L21,10.25 C20.96875,8.328125 20.921875,6.703125 20.875,5.359375 C18.9375,4.296875 17.015625,3.3125 16.171875,2.921875 L17.359375,1.421875 C17.546875,1.53125 17.6875,1.796875 17.6875,2.09375 C19.015625,3.171875 20.0625,4.125 20.859375,4.796875 C20.734375,2.09375 20.515625,0.640625 20.15625,0.265625 C19.96875,0.078125 19.828125,0.03125 19.4375,0.03125 C19.03125,0.03125 17.953125,0.125 17.25,0.1875 L17.234375,-0.265625 C17.875,-0.359375 18.5,-0.53125 18.765625,-0.75 C19.03125,-0.953125 19.109375,-1.375 19.109375,-1.78125 C19.875,-1.78125 20.65625,-1.515625 21.171875,-0.9375 C22.015625,0.03125 22.265625,3 22.34375,10.078125 C22.84375,10.15625 23.140625,10.25 23.296875,10.4375 L21.578125,11.859375 L20.765625,10.921875 L18.140625,10.921875 L18.359375,14.09375 L20.90625,14.09375 L20.90625,12.53125 L21.125,12.53125 C21.546875,12.53125 22.265625,12.859375 22.296875,13.015625 L22.296875,18.046875 C22.734375,18.125 23.09375,18.28125 23.203125,18.453125 L21.453125,19.78125 L20.6875,18.9375 Z M5.59375,13.75 L3.84375,13.75 L3,14.140625 C3.53125,14.90625 4.03125,15.765625 4.484375,16.6875 L6.59375,16.6875 C6.3125,15.796875 5.921875,14.609375 5.59375,13.75 Z M4.125,20.140625 C3.40625,17.109375 2.140625,14.109375 0.8125,12.171875 L1.15625,11.921875 C1.515625,12.28125 1.875,12.671875 2.234375,13.109375 L2.234375,3.890625 L2.453125,3.890625 C3.09375,3.890625 3.53125,4.21875 3.53125,4.34375 L3.53125,5.1875 L7.96875,5.1875 L7.96875,4.21875 L8.234375,4.21875 C8.734375,4.21875 9.265625,4.53125 9.3125,4.65625 L9.3125,12.84375 C9.703125,12.90625 10.03125,13.078125 10.203125,13.265625 L8.71875,14.5625 L7.96875,13.75 L6.140625,13.75 C6.84375,14.5625 7.65625,15.8125 8.1875,16.484375 C8.65625,16.515625 8.921875,16.5625 9.09375,16.703125 L7.46875,18.28125 L6.546875,17.359375 L4.796875,17.359375 C5.0625,17.875 5.28125,18.4375 5.5,18.984375 C5.96875,18.984375 6.234375,19.171875 6.34375,19.46875 Z M5.109375,13.078125 L5.109375,9.9375 L3.53125,9.9375 L3.53125,13.078125 Z M6.359375,13.078125 L7.96875,13.078125 L7.96875,9.9375 L6.359375,9.9375 Z M5.109375,9.21875 L5.109375,5.875 L3.53125,5.875 L3.53125,9.21875 Z M6.359375,9.21875 L7.96875,9.21875 L7.96875,5.875 L6.359375,5.875 Z M14.1875,14.09375 L14.1875,12.640625 L14.40625,12.640625 C14.859375,12.640625 15.546875,12.984375 15.578125,13.125 L15.578125,18.046875 C15.9375,18.125 16.265625,18.234375 16.390625,18.390625 L16.4375,18.234375 L20.90625,18.234375 L20.90625,14.78125 L18.703125,14.78125 L17.0625,15.40625 C16.984375,14.234375 16.84375,12.3125 16.65625,10.578125 L15.078125,11.859375 L14.28125,10.921875 L11.71875,10.921875 L12.03125,14.09375 Z" transform="translate(0.03125, 20.140625) scale(1, -1)"/>
</svg>