<svg height="22.21875" viewBox="0 0 24 22.21875" width="24" xmlns="http://www.w3.org/2000/svg">
<path d="M4.625,3.34375 L4.265625,3.265625 C4.515625,2.1875 4.625,0.546875 4.375,-0.71875 C5.375,-2.046875 7.015625,0.453125 4.625,3.34375 Z M6.5,3.625 L6.171875,3.5 C6.671875,2.5 7.15625,0.90625 7.109375,-0.34375 C8.234375,-1.484375 9.625,1.109375 6.5,3.625 Z M8.5625,3.890625 L8.25,3.71875 C9,2.828125 9.75,1.375 9.703125,0.1875 C10.9375,-0.953125 12.359375,1.984375 8.5625,3.890625 Z M2.515625,3.3125 C2.59375,1.84375 1.921875,0.234375 1.203125,-0.40625 C0.796875,-0.71875 0.578125,-1.21875 0.84375,-1.625 C1.125,-2.0625 1.890625,-1.875 2.359375,-1.390625 C3,-0.703125 3.546875,1.015625 2.953125,3.3125 Z M11.359375,12.578125 L11.546875,11.90625 L14.90625,11.90625 C15.21875,11.90625 15.40625,12 15.453125,12.265625 C14.953125,12.8125 14.09375,13.484375 14.09375,13.484375 L13.375,12.578125 Z M10.984375,9.859375 L11.1875,9.140625 L14.875,9.140625 C15.1875,9.140625 15.390625,9.265625 15.453125,9.53125 C14.921875,10.109375 14.0625,10.78125 14.0625,10.78125 L13.3125,9.859375 Z M18.03125,9.859375 L18.21875,9.140625 L22.015625,9.140625 C22.34375,9.140625 22.5625,9.265625 22.609375,9.53125 C22.0625,10.109375 21.21875,10.78125 21.21875,10.78125 L20.453125,9.859375 Z M11.828125,3.8125 L12.046875,3.09375 L19.921875,3.09375 L19.921875,0.40625 L11.09375,0.40625 L11.296875,-0.3125 L19.921875,-0.3125 L19.921875,-1.890625 L20.15625,-1.890625 C20.65625,-1.890625 21.4375,-1.53125 21.453125,-1.390625 L21.453125,5.859375 C21.90625,5.953125 22.296875,6.171875 22.46875,6.359375 L20.546875,7.796875 L19.6875,6.859375 L11.5,6.859375 L11.71875,6.171875 L19.921875,6.171875 L19.921875,3.8125 Z M4.375,20.15625 C3.578125,16.984375 2.109375,13.921875 0.640625,11.953125 L0.984375,11.71875 C1.46875,12.140625 1.921875,12.625 2.375,13.15625 L2.375,3.8125 L2.59375,3.8125 C3.28125,3.8125 3.765625,4.171875 3.765625,4.296875 L3.765625,5.140625 L8.765625,5.140625 L8.765625,4.15625 L9.03125,4.15625 C9.53125,4.15625 10.078125,4.484375 10.125,4.578125 L10.125,12.796875 C10.390625,12.84375 10.625,12.9375 10.78125,13.0625 C10.984375,13.03125 11.25,13.078125 11.515625,13.296875 C12,13.6875 12.234375,14.296875 12.234375,15.078125 L15.84375,15.078125 L15.84375,8.140625 L16.078125,8.140625 C16.84375,8.140625 17.328125,8.5 17.328125,8.609375 L17.328125,15.078125 L21,15.078125 L20.734375,13.53125 L20.859375,13.484375 L20.109375,12.578125 L18.03125,12.578125 L18.21875,11.90625 L21.671875,11.90625 C21.984375,11.90625 22.203125,12 22.25,12.265625 C21.796875,12.75 21.078125,13.34375 20.953125,13.46875 L21.125,13.390625 C21.453125,13.734375 22.0625,14.421875 22.390625,14.875 C22.828125,14.90625 23.109375,14.921875 23.25,15.09375 L21.671875,16.65625 L20.828125,15.765625 L17.328125,15.765625 L17.328125,17.8125 L22.34375,17.8125 C22.6875,17.8125 22.921875,17.921875 22.96875,18.1875 C22.21875,18.890625 21.03125,19.84375 21.03125,19.84375 L19.9375,18.5 L10.578125,18.5 L10.78125,17.8125 L15.84375,17.8125 L15.84375,15.765625 L12.1875,15.765625 C12.171875,16.0625 12.09375,16.375 12,16.6875 L11.609375,16.6875 C11.59375,15.703125 11.046875,14.734375 10.6875,14.421875 C10.4375,14.234375 10.3125,14.046875 10.265625,13.84375 L9.5,14.546875 L8.765625,13.734375 L6.546875,13.734375 C7.265625,14.546875 8.09375,15.796875 8.59375,16.484375 C9.046875,16.53125 9.34375,16.5625 9.5,16.703125 L7.84375,18.3125 L6.953125,17.359375 L5.046875,17.359375 C5.296875,17.875 5.546875,18.4375 5.765625,18.984375 C6.234375,18.953125 6.53125,19.171875 6.640625,19.4375 Z M6,13.734375 L4.0625,13.734375 L3.125,14.140625 C3.703125,14.90625 4.21875,15.765625 4.703125,16.6875 L7.015625,16.6875 C6.71875,15.796875 6.34375,14.59375 6,13.734375 Z M5.59375,13.03125 L5.59375,9.890625 L3.765625,9.890625 L3.765625,13.03125 Z M6.84375,13.03125 L8.765625,13.03125 L8.765625,9.890625 L6.84375,9.890625 Z M5.59375,9.1875 L5.59375,5.828125 L3.765625,5.828125 L3.765625,9.1875 Z M6.84375,9.1875 L8.765625,9.1875 L8.765625,5.828125 L6.84375,5.828125 Z" transform="translate(0.0859375, 20.15625) scale(1, -1)"/>
</svg>