<svg height="22.34375" viewBox="0 0 24 22.34375" width="24" xmlns="http://www.w3.org/2000/svg">
<path d="M12.53125,3.359375 L12.234375,3.171875 C13.015625,2.5 13.78125,1.34375 13.921875,0.390625 C15.359375,-0.640625 16.609375,2.28125 12.53125,3.359375 Z M4.625,3.34375 L4.25,3.265625 C4.515625,2.1875 4.625,0.546875 4.375,-0.71875 C5.375,-2.046875 7.015625,0.453125 4.625,3.34375 Z M6.5,3.625 L6.171875,3.5 C6.671875,2.5 7.15625,0.90625 7.109375,-0.34375 C8.203125,-1.484375 9.625,1.109375 6.5,3.625 Z M8.546875,3.890625 L8.25,3.71875 C9,2.828125 9.71875,1.375 9.703125,0.1875 C10.9375,-0.953125 12.34375,1.984375 8.546875,3.890625 Z M2.65625,3.3125 C2.734375,1.84375 2.109375,0.21875 1.421875,-0.4375 C1.015625,-0.765625 0.765625,-1.25 1.03125,-1.65625 C1.375,-2.109375 2.140625,-1.890625 2.546875,-1.4375 C3.1875,-0.71875 3.75,1.015625 3.09375,3.3125 Z M17.015625,15.578125 L17.015625,13.78125 L15.765625,13.78125 L15.765625,15.578125 Z M18.28125,15.578125 L20.046875,15.578125 C20.5,15.03125 21,14.5 21.59375,14.046875 L20.875,14.59375 L20.140625,13.78125 L18.28125,13.78125 Z M12.546875,18.640625 C12.140625,17.28125 11.1875,15.34375 10.03125,14.15625 L10.296875,13.84375 C11.203125,14.375 12,15.125 12.671875,15.859375 L12.75,15.578125 L14.5,15.578125 L14.5,13.78125 L12.859375,13.78125 L11.421875,14.46875 L11.421875,5.375 L11.640625,5.375 C12.1875,5.375 12.75,5.6875 12.75,5.8125 L12.75,6.5 L20.328125,6.5 L20.328125,5.65625 L20.546875,5.65625 C21,5.65625 21.671875,5.96875 21.703125,6.125 L21.703125,12.9375 C22.078125,12.984375 22.390625,13.171875 22.53125,13.34375 L21.75,13.9375 L22.015625,13.75 C22.15625,14.359375 22.703125,14.8125 23.296875,14.953125 L23.328125,15.234375 C21.4375,15.953125 19.828125,17.1875 19.109375,18.484375 C19.796875,18.53125 20.359375,18.703125 20.5625,18.953125 L18.703125,20.234375 L18.03125,19.25 L13.890625,19.25 L14.109375,18.53125 L18.53125,18.53125 C18.625,18.171875 18.75,17.828125 18.890625,17.46875 L17.921875,16.296875 L13.03125,16.296875 C13.34375,16.6875 13.609375,17.0625 13.828125,17.421875 C14.359375,17.328125 14.546875,17.46875 14.6875,17.71875 Z M17.953125,6.359375 L17.953125,4.46875 L10.390625,4.46875 L10.5625,3.765625 L17.953125,3.765625 L17.953125,0.40625 C17.953125,0.09375 17.875,-0.03125 17.515625,-0.03125 C17.140625,-0.03125 15.28125,0.125 15.28125,0.125 L15.28125,-0.265625 C16.125,-0.390625 16.609375,-0.546875 16.890625,-0.765625 C17.140625,-1.0625 17.203125,-1.4375 17.28125,-1.890625 C19.203125,-1.6875 19.390625,-0.9375 19.390625,0.3125 L19.390625,3.765625 L22.578125,3.765625 C22.921875,3.765625 23.140625,3.890625 23.203125,4.125 C22.515625,4.78125 21.453125,5.546875 21.453125,5.546875 L20.515625,4.46875 L19.390625,4.46875 L19.390625,5.515625 C19.96875,5.609375 20.1875,5.765625 20.25,6.125 Z M20.328125,8.515625 L20.328125,7.21875 L12.75,7.21875 L12.75,8.515625 Z M20.328125,9.21875 L12.75,9.21875 L12.75,13.109375 L14.5625,13.109375 C14.546875,12.171875 14.375,10.9375 12.859375,9.90625 L13.125,9.53125 C15.390625,10.484375 15.75,12.09375 15.765625,13.109375 L17.015625,13.109375 L17.015625,11.421875 C17.015625,10.6875 17.1875,10.375 18.171875,10.375 L18.9375,10.375 C19.5625,10.375 20.015625,10.390625 20.328125,10.46875 Z M20.328125,11.515625 L20.109375,11.515625 C20.015625,11.5 19.875,11.46875 19.796875,11.46875 C19.75,11.46875 19.65625,11.46875 19.578125,11.453125 C19.484375,11.453125 19.265625,11.453125 19.0625,11.453125 L18.453125,11.453125 C18.265625,11.453125 18.21875,11.515625 18.21875,11.734375 L18.21875,13.109375 L20.328125,13.109375 Z M6,13.734375 L4.0625,13.734375 L3.125,14.140625 C3.703125,14.90625 4.21875,15.765625 4.703125,16.6875 L7.015625,16.6875 C6.71875,15.796875 6.34375,14.59375 6,13.734375 Z M4.375,20.15625 C3.578125,16.984375 2.109375,13.921875 0.640625,11.953125 L0.984375,11.71875 C1.46875,12.140625 1.921875,12.625 2.375,13.15625 L2.375,3.8125 L2.59375,3.8125 C3.28125,3.8125 3.765625,4.171875 3.765625,4.296875 L3.765625,5.140625 L8.765625,5.140625 L8.765625,4.15625 L9.03125,4.15625 C9.53125,4.15625 10.078125,4.484375 10.125,4.578125 L10.125,12.796875 C10.515625,12.859375 10.828125,13.03125 10.984375,13.21875 L9.5,14.546875 L8.765625,13.734375 L6.546875,13.734375 C7.265625,14.546875 8.09375,15.796875 8.59375,16.484375 C9.046875,16.53125 9.34375,16.5625 9.5,16.703125 L7.84375,18.3125 L6.953125,17.359375 L5.046875,17.359375 C5.296875,17.875 5.546875,18.4375 5.765625,18.984375 C6.234375,18.953125 6.53125,19.171875 6.640625,19.4375 Z M5.59375,13.03125 L5.59375,9.890625 L3.765625,9.890625 L3.765625,13.03125 Z M6.84375,13.03125 L8.765625,13.03125 L8.765625,9.890625 L6.84375,9.890625 Z M5.59375,9.1875 L5.59375,5.828125 L3.765625,5.828125 L3.765625,9.1875 Z M6.84375,9.1875 L8.765625,9.1875 L8.765625,5.828125 L6.84375,5.828125 Z" transform="translate(0.015625, 20.234375) scale(1, -1)"/>
</svg>