<svg height="22.265625" viewBox="0 0 24 22.265625" width="24" xmlns="http://www.w3.org/2000/svg">
<path d="M12.453125,3.3125 L12.1875,3.125 C12.953125,2.46875 13.78125,1.265625 13.9375,0.3125 C15.40625,-0.71875 16.609375,2.25 12.453125,3.3125 Z M4.625,3.34375 L4.25,3.265625 C4.515625,2.1875 4.625,0.546875 4.375,-0.71875 C5.375,-2.046875 7.015625,0.453125 4.625,3.34375 Z M6.5,3.625 L6.171875,3.5 C6.671875,2.5 7.15625,0.90625 7.109375,-0.34375 C8.203125,-1.484375 9.625,1.109375 6.5,3.625 Z M8.546875,3.890625 L8.25,3.71875 C9,2.828125 9.71875,1.375 9.703125,0.1875 C10.9375,-0.953125 12.34375,1.984375 8.546875,3.890625 Z M2.65625,3.3125 C2.734375,1.84375 2.109375,0.21875 1.421875,-0.4375 C1.015625,-0.765625 0.765625,-1.25 1.03125,-1.65625 C1.375,-2.109375 2.140625,-1.890625 2.546875,-1.4375 C3.1875,-0.71875 3.75,1.015625 3.09375,3.3125 Z M11.421875,14.28125 L11.421875,5.5625 L11.640625,5.5625 C12.21875,5.5625 12.765625,5.90625 12.765625,6.03125 L12.765625,6.765625 L20.28125,6.765625 L20.28125,5.8125 L20.5,5.8125 C20.96875,5.8125 21.640625,6.140625 21.671875,6.28125 L21.671875,13.375 C22.109375,13.4375 22.484375,13.609375 22.625,13.78125 L20.859375,15.140625 L20.0625,14.28125 L18.3125,14.28125 L18.3125,16.46875 L22.578125,16.46875 C22.921875,16.46875 23.140625,16.578125 23.1875,16.84375 C22.421875,17.546875 21.21875,18.484375 21.21875,18.484375 L20.140625,17.15625 L18.34375,17.15625 C18.90625,17.78125 19.515625,18.546875 19.9375,19.15625 C20.421875,19.171875 20.71875,19.390625 20.8125,19.703125 L18.5,20.109375 C18.3125,19.25 17.953125,18.046875 17.65625,17.15625 L14.859375,17.15625 C15.625,17.5 15.71875,19.15625 13.015625,20.0625 L12.75,19.9375 C13.25,19.296875 13.84375,18.21875 13.9375,17.328125 C14.046875,17.25 14.15625,17.1875 14.25,17.15625 L10.421875,17.15625 L10.578125,16.46875 L14.328125,16.46875 L14.328125,14.28125 L12.890625,14.28125 L11.421875,14.96875 Z M17.015625,16.46875 L17.015625,14.28125 L15.59375,14.28125 L15.59375,16.46875 Z M17.90625,6.171875 L17.90625,4.46875 L10.390625,4.46875 L10.5625,3.765625 L17.90625,3.765625 L17.90625,0.453125 C17.90625,0.140625 17.8125,0.046875 17.46875,0.046875 C17.09375,0.046875 15.234375,0.1875 15.234375,0.1875 L15.234375,-0.1875 C16.0625,-0.34375 16.53125,-0.5 16.828125,-0.75 C17.09375,-0.984375 17.15625,-1.390625 17.234375,-1.84375 C19.125,-1.65625 19.34375,-0.90625 19.34375,0.34375 L19.34375,3.765625 L22.578125,3.765625 C22.921875,3.765625 23.140625,3.890625 23.203125,4.125 C22.515625,4.78125 21.453125,5.5625 21.453125,5.5625 L20.515625,4.46875 L19.34375,4.46875 L19.34375,5.359375 C19.890625,5.421875 20.140625,5.59375 20.203125,5.921875 Z M20.28125,8.96875 L20.28125,7.46875 L12.765625,7.46875 L12.765625,8.96875 Z M20.28125,9.671875 L12.765625,9.671875 L12.765625,10.078125 L12.859375,9.9375 C15.171875,10.921875 15.546875,12.53125 15.59375,13.5625 L17.015625,13.5625 L17.015625,11.953125 C17.015625,11.203125 17.1875,10.890625 18.125,10.890625 L18.859375,10.890625 C19.53125,10.890625 19.984375,10.921875 20.28125,10.984375 Z M20.28125,12 L20.1875,12.03125 L19.96875,12.03125 C19.890625,12 19.75,11.96875 19.65625,11.953125 C19.609375,11.953125 19.53125,11.953125 19.4375,11.953125 C19.34375,11.953125 19.15625,11.953125 18.984375,11.953125 L18.453125,11.953125 C18.265625,11.953125 18.21875,12 18.21875,12.21875 L18.21875,13.5625 L20.28125,13.5625 Z M12.765625,10.4375 L12.765625,13.5625 L14.421875,13.5625 C14.375,12.625 14.140625,11.46875 12.765625,10.4375 Z M6,13.734375 L4.0625,13.734375 L3.125,14.140625 C3.703125,14.90625 4.21875,15.765625 4.703125,16.6875 L7.015625,16.6875 C6.71875,15.796875 6.34375,14.59375 6,13.734375 Z M4.375,20.15625 C3.578125,16.984375 2.109375,13.921875 0.640625,11.953125 L0.984375,11.71875 C1.46875,12.140625 1.921875,12.625 2.375,13.15625 L2.375,3.8125 L2.59375,3.8125 C3.28125,3.8125 3.765625,4.171875 3.765625,4.296875 L3.765625,5.140625 L8.765625,5.140625 L8.765625,4.15625 L9.03125,4.15625 C9.53125,4.15625 10.078125,4.484375 10.125,4.578125 L10.125,12.796875 C10.515625,12.859375 10.828125,13.03125 10.984375,13.21875 L9.5,14.546875 L8.765625,13.734375 L6.546875,13.734375 C7.265625,14.546875 8.09375,15.796875 8.59375,16.484375 C9.046875,16.53125 9.34375,16.5625 9.5,16.703125 L7.84375,18.3125 L6.953125,17.359375 L5.046875,17.359375 C5.296875,17.875 5.546875,18.4375 5.765625,18.984375 C6.234375,18.953125 6.53125,19.171875 6.640625,19.4375 Z M5.59375,13.03125 L5.59375,9.890625 L3.765625,9.890625 L3.765625,13.03125 Z M6.84375,13.03125 L8.765625,13.03125 L8.765625,9.890625 L6.84375,9.890625 Z M5.59375,9.1875 L5.59375,5.828125 L3.765625,5.828125 L3.765625,9.1875 Z M6.84375,9.1875 L8.765625,9.1875 L8.765625,5.828125 L6.84375,5.828125 Z" transform="translate(0.078125, 20.15625) scale(1, -1)"/>
</svg>