<svg height="21.140625" viewBox="0 0 24 21.140625" width="24" xmlns="http://www.w3.org/2000/svg">
<path d="M20.65625,1.34375 L19.34375,-0.265625 L1.171875,-0.265625 L1.375,-0.953125 L22.34375,-0.953125 C22.6875,-0.953125 22.921875,-0.84375 22.96875,-0.578125 C22.078125,0.21875 20.65625,1.34375 20.65625,1.34375 Z M12.125,13.15625 L6.3125,13.15625 L5.71875,13.421875 C6.625,14.46875 7.4375,15.578125 8.140625,16.65625 L14.8125,16.65625 C14.109375,15.59375 13.078125,14.15625 12.125,13.15625 Z M6.03125,2.046875 L6.03125,3.1875 L18.34375,3.1875 L18.34375,1.96875 L18.546875,1.96875 C19.078125,1.96875 19.875,2.359375 19.890625,2.515625 L19.890625,12.171875 C20.375,12.265625 20.765625,12.4375 20.921875,12.625 L18.984375,14.140625 L18.09375,13.15625 L12.84375,13.15625 C14.328125,14.109375 15.890625,15.53125 16.890625,16.484375 C17.40625,16.515625 17.6875,16.53125 17.875,16.734375 L16.03125,18.390625 L14.96875,17.375 L8.59375,17.375 C8.921875,17.921875 9.21875,18.453125 9.453125,18.953125 C10.015625,18.796875 10.25,18.859375 10.390625,19.078125 L7.984375,20.1875 C6.671875,16.5625 3.90625,12.21875 1.109375,9.765625 L1.421875,9.484375 C2.46875,10.171875 3.5,11.0625 4.46875,12.046875 L4.46875,1.484375 L4.734375,1.484375 C5.5,1.484375 6.03125,1.890625 6.03125,2.046875 Z M11.375,3.90625 L6.03125,3.90625 L6.03125,7.84375 L11.375,7.84375 Z M12.90625,3.90625 L12.90625,7.84375 L18.34375,7.84375 L18.34375,3.90625 Z M11.375,8.5625 L6.03125,8.5625 L6.03125,12.4375 L11.375,12.4375 Z M12.90625,8.5625 L12.90625,12.4375 L18.34375,12.4375 L18.34375,8.5625 Z" transform="translate(-0.0390625, 20.1875) scale(1, -1)"/>
</svg>