<svg height="22.140625" viewBox="0 0 24 22.140625" width="24" xmlns="http://www.w3.org/2000/svg">
<path d="M3.9375,4.171875 C3.890625,2.515625 2.78125,1.171875 1.75,0.671875 C1.25,0.390625 0.90625,-0.078125 1.109375,-0.578125 C1.34375,-1.125 2.1875,-1.109375 2.828125,-0.75 C3.84375,-0.140625 4.984375,1.515625 4.34375,4.203125 Z M7.0625,4.25 L6.71875,4.15625 C7.03125,3.03125 7.21875,1.3125 6.984375,-0.03125 C8.140625,-1.515625 10.078125,1.3125 7.0625,4.25 Z M10.296875,4.46875 L10.03125,4.296875 C10.75,3.359375 11.546875,1.828125 11.59375,0.625 C13.015625,-0.640625 14.5,2.5 10.296875,4.46875 Z M13.9375,4.796875 L13.703125,4.609375 C14.609375,3.9375 15.703125,2.65625 16.015625,1.65625 C17.515625,0.765625 18.5,3.84375 13.9375,4.796875 Z M10.921875,20.25 L10.125,17.328125 L6.546875,17.328125 L4.84375,18.125 L4.84375,4.6875 L5.109375,4.6875 C5.8125,4.6875 6.40625,5.0625 6.40625,5.234375 L6.40625,5.515625 L20.109375,5.515625 C19.84375,2.609375 19.390625,0.640625 18.8125,0.21875 C18.59375,0.03125 18.359375,-0.03125 17.96875,-0.03125 C17.46875,-0.03125 15.84375,0.125 14.921875,0.1875 L14.921875,-0.21875 C15.75,-0.34375 16.625,-0.546875 16.96875,-0.796875 C17.296875,-1.03125 17.40625,-1.46875 17.40625,-1.890625 C18.3125,-1.890625 19.171875,-1.6875 19.78125,-1.203125 C20.734375,-0.453125 21.40625,1.84375 21.671875,5.359375 C22.15625,5.40625 22.4375,5.515625 22.625,5.65625 L20.828125,7.15625 L19.921875,6.21875 L6.40625,6.21875 L6.40625,8.25 L22.578125,8.25 C22.9375,8.25 23.140625,8.375 23.203125,8.640625 C22.390625,9.390625 21.046875,10.4375 21.046875,10.4375 L19.828125,8.953125 L6.40625,8.953125 L6.40625,10.984375 L16.96875,10.984375 L16.96875,10.203125 L17.203125,10.203125 C17.734375,10.203125 18.5,10.5625 18.53125,10.703125 L18.53125,16.3125 C19.015625,16.421875 19.390625,16.625 19.5625,16.796875 L17.609375,18.3125 L16.734375,17.328125 L11.140625,17.328125 C11.609375,17.921875 12.21875,18.640625 12.625,19.203125 C13.125,19.203125 13.46875,19.390625 13.5625,19.734375 Z M6.40625,11.6875 L6.40625,13.84375 L16.96875,13.84375 L16.96875,11.6875 Z M6.40625,14.546875 L6.40625,16.625 L16.96875,16.625 L16.96875,14.546875 Z" transform="translate(-0.0546875, 20.25) scale(1, -1)"/>
</svg>