<svg height="22.515625" viewBox="0 0 24 22.515625" width="24" xmlns="http://www.w3.org/2000/svg">
<path d="M4.84375,19.75 L4.578125,19.5625 C5.421875,18.75 6.390625,17.375 6.59375,16.265625 C8.109375,15.125 9.484375,18.265625 4.84375,19.75 Z M10.015625,20.140625 L9.75,19.984375 C10.4375,19.15625 11.234375,17.71875 11.328125,16.5625 C12.796875,15.28125 14.359375,18.4375 10.015625,20.140625 Z M7.53125,2.453125 L7.171875,2.359375 C7.4375,1.4375 7.609375,0.078125 7.4375,-0.984375 C8.515625,-2.375 10.375,0.03125 7.53125,2.453125 Z M10.9375,2.640625 L10.65625,2.5 C11.28125,1.625 11.953125,0.28125 12,-0.796875 C13.296875,-1.984375 14.78125,0.8125 10.9375,2.640625 Z M4.46875,2.65625 C4.25,1.375 3.09375,0.359375 2.140625,0 C1.625,-0.265625 1.296875,-0.703125 1.484375,-1.171875 C1.703125,-1.734375 2.515625,-1.75 3.140625,-1.421875 C4.109375,-0.90625 5.234375,0.4375 4.875,2.65625 Z M14.90625,2.6875 L14.640625,2.515625 C15.265625,1.890625 15.9375,0.8125 16.03125,-0.078125 C16.265625,-0.265625 16.515625,-0.3125 16.703125,-0.28125 L16.703125,-0.4375 C17.203125,-0.5 17.65625,-0.640625 17.90625,-0.859375 C18.125,-1.078125 18.1875,-1.421875 18.1875,-1.828125 C18.90625,-1.828125 19.578125,-1.6875 20.09375,-1.3125 C20.859375,-0.75 21.265625,0.5 21.484375,3.171875 C21.90625,3.234375 22.203125,3.359375 22.375,3.53125 L20.640625,4.921875 L19.78125,4.0625 L7.3125,4.0625 L7.3125,5.609375 L22.4375,5.609375 C22.78125,5.609375 23.015625,5.734375 23.0625,5.96875 C22.296875,6.703125 21.046875,7.625 21.046875,7.625 L19.96875,6.3125 L7.3125,6.3125 L7.3125,7.84375 L16.65625,7.84375 L16.65625,7.015625 L16.890625,7.015625 C17.421875,7.015625 18.1875,7.375 18.21875,7.53125 L18.21875,12.21875 C18.59375,12.28125 18.953125,12.484375 19.078125,12.640625 L17.25,14.015625 L16.4375,13.15625 L10.609375,13.15625 C11.09375,13.578125 11.71875,14.109375 12.125,14.515625 C12.578125,14.46875 12.9375,14.640625 13.03125,14.953125 L20.5625,14.953125 C20.40625,14.140625 20.1875,13.0625 19.984375,12.40625 L20.296875,12.234375 C20.96875,12.859375 21.890625,13.9375 22.390625,14.65625 C22.84375,14.6875 23.109375,14.734375 23.28125,14.921875 L21.4375,16.703125 L20.453125,15.640625 L15.34375,15.640625 C16.578125,16.609375 17.90625,17.8125 18.703125,18.765625 C19.21875,18.71875 19.53125,18.890625 19.65625,19.15625 L17.140625,20.015625 C16.5625,18.671875 15.53125,16.921875 14.59375,15.640625 L3.984375,15.640625 C3.953125,16.015625 3.90625,16.421875 3.796875,16.828125 L3.359375,16.828125 C3.390625,15.5 2.59375,14.203125 1.75,13.75 C1.265625,13.46875 0.953125,12.953125 1.171875,12.484375 C1.4375,11.953125 2.28125,12 2.8125,12.390625 C3.390625,12.796875 3.90625,13.6875 3.984375,14.953125 L10.34375,14.953125 L9.671875,13.15625 L7.46875,13.15625 L5.765625,13.890625 L5.765625,2.453125 L6.03125,2.453125 C6.671875,2.453125 7.3125,2.78125 7.3125,2.953125 L7.3125,3.34375 L19.96875,3.34375 C19.78125,1.34375 19.484375,0.28125 19.15625,0.03125 C19.015625,-0.09375 18.84375,-0.140625 18.53125,-0.140625 L17.09375,-0.09375 C17.59375,0.4375 17.40625,1.890625 14.90625,2.6875 Z M16.65625,12.4375 L16.65625,10.84375 L7.3125,10.84375 L7.3125,12.4375 Z M7.3125,10.15625 L16.65625,10.15625 L16.65625,8.546875 L7.3125,8.546875 Z" transform="translate(-0.1171875, 20.140625) scale(1, -1)"/>
</svg>