<svg height="21.859375" viewBox="0 0 24 21.859375" width="24" xmlns="http://www.w3.org/2000/svg">
<path d="M15.578125,4.296875 L15.234375,4.203125 C15.53125,3.234375 15.75,1.734375 15.578125,0.578125 C16.46875,-0.53125 17.859375,1.6875 15.578125,4.296875 Z M17.046875,4.75 L16.703125,4.578125 C17.28125,3.84375 17.8125,2.59375 17.765625,1.578125 C18.75,0.625 19.9375,2.90625 17.046875,4.75 Z M18.5,5.234375 L18.21875,5.046875 C18.90625,4.484375 19.65625,3.53125 19.78125,2.71875 C20.828125,1.96875 21.671875,4.15625 18.5,5.234375 Z M13.703125,4.203125 C13.875,2.921875 13.53125,1.34375 12.953125,0.71875 C12.59375,0.359375 12.40625,-0.09375 12.671875,-0.4375 C12.984375,-0.796875 13.6875,-0.546875 13.96875,-0.09375 C14.46875,0.59375 14.734375,2.1875 14.15625,4.203125 Z M3.53125,17.6875 L5.234375,17.6875 L5.234375,13.109375 L3.53125,13.109375 Z M2.234375,18.390625 L2.234375,11.1875 C2.234375,6.953125 2.25,2.28125 0.84375,-1.421875 L1.25,-1.65625 C2.78125,0.8125 3.28125,3.984375 3.453125,6.984375 L5.234375,6.984375 L5.234375,0.84375 C5.234375,0.5 5.140625,0.40625 4.84375,0.40625 C4.53125,0.40625 3.234375,0.53125 3.234375,0.53125 L3.234375,0.125 C3.890625,0.046875 4.21875,-0.125 4.46875,-0.359375 C4.65625,-0.546875 4.734375,-0.984375 4.78125,-1.390625 C6.359375,-1.21875 6.546875,-0.53125 6.546875,0.640625 L6.546875,17.453125 C6.984375,17.515625 7.375,17.71875 7.515625,17.90625 L5.6875,19.265625 L4.984375,18.390625 L3.796875,18.390625 L2.234375,19.109375 Z M3.53125,12.40625 L5.234375,12.40625 L5.234375,7.6875 L3.484375,7.6875 C3.53125,8.921875 3.53125,10.109375 3.53125,11.203125 Z M9.140625,17.6875 L10.984375,17.6875 L10.984375,13.109375 L9.140625,13.109375 Z M7.828125,18.390625 L7.828125,10.375 C7.828125,6.390625 7.96875,1.921875 6.796875,-1.484375 L7.203125,-1.734375 C8.65625,0.75 9.03125,3.953125 9.125,6.984375 L10.984375,6.984375 L10.984375,0.765625 C10.984375,0.453125 10.890625,0.359375 10.609375,0.359375 C10.3125,0.359375 8.96875,0.453125 8.96875,0.453125 L8.96875,0.078125 C9.625,-0.03125 9.984375,-0.171875 10.203125,-0.4375 C10.390625,-0.640625 10.484375,-1.0625 10.515625,-1.484375 C12.140625,-1.296875 12.3125,-0.59375 12.3125,0.578125 L12.3125,17.421875 C12.765625,17.515625 13.171875,17.71875 13.3125,17.90625 L11.46875,19.296875 L10.75,18.390625 L9.40625,18.390625 L7.828125,19.125 Z M9.140625,12.40625 L10.984375,12.40625 L10.984375,7.6875 L9.140625,7.6875 L9.140625,10.375 Z M15.3125,16.78125 L19.984375,16.78125 L19.984375,14.765625 L15.3125,14.765625 Z M16.625,20.109375 C16.5625,19.375 16.375,18.265625 16.25,17.5 L15.59375,17.5 L13.921875,18.234375 L13.921875,5.015625 L14.140625,5.015625 C14.859375,5.015625 15.3125,5.40625 15.3125,5.515625 L15.3125,5.90625 L21.171875,5.90625 C21.03125,2.453125 20.71875,0.578125 20.234375,0.140625 C20.0625,-0.03125 19.875,-0.078125 19.53125,-0.078125 C19.078125,-0.078125 17.859375,0.046875 17.09375,0.09375 L17.09375,-0.3125 C17.765625,-0.40625 18.453125,-0.578125 18.75,-0.796875 C19.015625,-1.015625 19.078125,-1.390625 19.078125,-1.75 C19.875,-1.75 20.640625,-1.578125 21.140625,-1.109375 C21.984375,-0.390625 22.390625,1.65625 22.5625,5.765625 C23.015625,5.8125 23.28125,5.90625 23.453125,6.078125 L21.75,7.46875 L20.953125,6.59375 L15.3125,6.59375 L15.3125,8.5625 L22.53125,8.5625 C22.875,8.5625 23.09375,8.6875 23.140625,8.921875 C22.4375,9.59375 21.3125,10.484375 21.3125,10.484375 L20.359375,9.265625 L15.3125,9.265625 L15.3125,11.234375 L19.984375,11.234375 L19.984375,10.5625 L20.203125,10.5625 C20.6875,10.5625 21.40625,10.921875 21.4375,11.09375 L21.4375,16.53125 C21.859375,16.625 22.25,16.796875 22.421875,16.984375 L20.59375,18.359375 L19.75,17.5 L17.015625,17.5 C17.40625,18.03125 17.859375,18.671875 18.171875,19.15625 C18.671875,19.15625 18.953125,19.375 19.03125,19.703125 Z M15.3125,14.046875 L19.984375,14.046875 L19.984375,11.921875 L15.3125,11.921875 Z" transform="translate(-0.1484375, 20.109375) scale(1, -1)"/>
</svg>