<svg height="21.953125" viewBox="0 0 24 21.953125" width="24" xmlns="http://www.w3.org/2000/svg">
<path d="M15.578125,4.296875 L15.234375,4.203125 C15.53125,3.234375 15.75,1.734375 15.578125,0.578125 C16.46875,-0.53125 17.859375,1.6875 15.578125,4.296875 Z M17.046875,4.75 L16.703125,4.578125 C17.28125,3.84375 17.8125,2.59375 17.765625,1.578125 C18.75,0.625 19.9375,2.90625 17.046875,4.75 Z M18.5,5.234375 L18.21875,5.046875 C18.90625,4.484375 19.65625,3.53125 19.78125,2.71875 C20.828125,1.96875 21.671875,4.15625 18.5,5.234375 Z M13.703125,4.203125 C13.875,2.921875 13.53125,1.34375 12.953125,0.71875 C12.59375,0.359375 12.40625,-0.09375 12.671875,-0.4375 C12.984375,-0.796875 13.6875,-0.546875 13.96875,-0.09375 C14.46875,0.59375 14.734375,2.1875 14.15625,4.203125 Z M3.53125,17.65625 L5.296875,17.65625 L5.296875,12.625 C5.015625,13.078125 4.46875,13.578125 3.53125,14.015625 Z M2.25,18.390625 L2.25,11.15625 C2.25,6.953125 2.296875,2.28125 0.859375,-1.4375 L1.265625,-1.6875 C3,1.125 3.40625,4.78125 3.5,8.09375 C3.984375,7.421875 4.421875,6.53125 4.46875,5.765625 C4.78125,5.5 5.09375,5.46875 5.296875,5.640625 L5.296875,0.8125 C5.296875,0.5 5.203125,0.390625 4.921875,0.390625 C4.609375,0.390625 3.3125,0.5 3.3125,0.5 L3.3125,0.09375 C3.953125,0.03125 4.296875,-0.140625 4.53125,-0.390625 C4.734375,-0.59375 4.796875,-1.03125 4.84375,-1.46875 C6.40625,-1.265625 6.578125,-0.578125 6.578125,0.625 L6.578125,17.421875 C7.03125,17.5 7.421875,17.71875 7.5625,17.875 L5.734375,19.25 L5.0625,18.390625 L3.796875,18.390625 L2.25,19.078125 Z M3.53125,13.375 C3.984375,12.75 4.375,11.875 4.421875,11.1875 C4.75,10.890625 5.09375,10.921875 5.296875,11.140625 L5.296875,7.3125 C4.984375,7.78125 4.4375,8.25 3.5,8.640625 L3.53125,11.1875 Z M9.140625,17.65625 L11.0625,17.65625 L11.0625,12.578125 C10.75,13.078125 10.171875,13.609375 9.140625,14.046875 Z M7.875,18.390625 L7.875,10.34375 C7.875,6.359375 8.015625,1.890625 6.84375,-1.515625 L7.25,-1.75 C8.859375,1.0625 9.09375,4.828125 9.140625,8.15625 C9.671875,7.484375 10.15625,6.546875 10.203125,5.765625 C10.515625,5.46875 10.84375,5.46875 11.0625,5.6875 L11.0625,0.671875 C11.0625,0.359375 10.96875,0.265625 10.6875,0.265625 C10.375,0.265625 9.046875,0.359375 9.046875,0.359375 L9.046875,-0.03125 C9.671875,-0.140625 10.0625,-0.28125 10.265625,-0.53125 C10.46875,-0.765625 10.5625,-1.203125 10.578125,-1.625 C12.171875,-1.46875 12.34375,-0.71875 12.34375,0.453125 L12.34375,17.421875 C12.796875,17.5 13.203125,17.6875 13.375,17.875 L11.515625,19.265625 L10.828125,18.390625 L9.4375,18.390625 L7.875,19.078125 Z M9.140625,13.515625 C9.625,12.84375 10.109375,11.921875 10.171875,11.203125 C10.515625,10.921875 10.84375,10.9375 11.0625,11.15625 L11.0625,7.25 C10.75,7.75 10.15625,8.25 9.140625,8.65625 L9.140625,10.375 Z M15.3125,16.78125 L19.984375,16.78125 L19.984375,14.765625 L15.3125,14.765625 Z M16.625,20.109375 C16.5625,19.375 16.375,18.265625 16.25,17.5 L15.59375,17.5 L13.921875,18.234375 L13.921875,5.015625 L14.140625,5.015625 C14.859375,5.015625 15.3125,5.40625 15.3125,5.515625 L15.3125,5.90625 L21.171875,5.90625 C21.03125,2.40625 20.6875,0.484375 20.234375,0.046875 C20.046875,-0.125 19.875,-0.140625 19.515625,-0.140625 C19.078125,-0.140625 17.828125,-0.046875 17.09375,0 L17.0625,-0.40625 C17.765625,-0.484375 18.453125,-0.671875 18.71875,-0.890625 C19.015625,-1.109375 19.078125,-1.484375 19.078125,-1.84375 C19.84375,-1.84375 20.609375,-1.65625 21.140625,-1.203125 C21.984375,-0.484375 22.390625,1.609375 22.5625,5.765625 C23.015625,5.8125 23.28125,5.90625 23.453125,6.09375 L21.75,7.46875 L20.953125,6.59375 L15.3125,6.59375 L15.3125,8.5625 L22.53125,8.5625 C22.875,8.5625 23.09375,8.6875 23.140625,8.921875 C22.4375,9.59375 21.3125,10.484375 21.3125,10.484375 L20.359375,9.265625 L15.3125,9.265625 L15.3125,11.234375 L19.984375,11.234375 L19.984375,10.5625 L20.203125,10.5625 C20.6875,10.5625 21.40625,10.921875 21.4375,11.09375 L21.4375,16.53125 C21.859375,16.625 22.25,16.796875 22.421875,16.984375 L20.59375,18.359375 L19.75,17.5 L17.015625,17.5 C17.40625,18.03125 17.859375,18.671875 18.171875,19.15625 C18.671875,19.15625 18.953125,19.375 19.03125,19.703125 Z M15.3125,14.046875 L19.984375,14.046875 L19.984375,11.921875 L15.3125,11.921875 Z" transform="translate(-0.15625, 20.109375) scale(1, -1)"/>
</svg>