<svg height="22.359375" viewBox="0 0 24 22.359375" width="24" xmlns="http://www.w3.org/2000/svg">
<path d="M5.453125,19.125 C5.40625,18.390625 4.703125,17.6875 4.03125,17.46875 C3.640625,17.234375 3.390625,16.890625 3.546875,16.484375 C3.75,16.0625 4.421875,16.078125 4.84375,16.296875 C5.5625,16.65625 6.1875,17.640625 5.875,19.109375 Z M13.890625,19.15625 C13.875,18.4375 13.25,17.734375 12.59375,17.5 C12.171875,17.28125 11.90625,16.890625 12.078125,16.515625 C12.265625,16.078125 12.953125,16.0625 13.390625,16.296875 C14.0625,16.6875 14.6875,17.65625 14.359375,19.171875 Z M7.5625,2.015625 L7.25,1.921875 C7.484375,1.15625 7.65625,0.03125 7.515625,-0.890625 C8.59375,-2.203125 10.4375,-0.046875 7.5625,2.015625 Z M11.0625,2.09375 L10.78125,1.9375 C11.359375,1.265625 11.90625,0.171875 11.953125,-0.75 C13.21875,-1.875 14.6875,0.796875 11.0625,2.09375 Z M4.625,2.09375 C4.46875,1.0625 3.4375,0.21875 2.546875,-0.046875 C2.09375,-0.28125 1.734375,-0.71875 1.890625,-1.203125 C2.109375,-1.75 2.90625,-1.796875 3.5,-1.515625 C4.390625,-1.109375 5.40625,0.125 5.046875,2.0625 Z M10.421875,19.3125 C10.109375,18.671875 9.5,17.5625 9.078125,16.875 C8.8125,16.9375 8.5,17.015625 8.1875,17.0625 C8.421875,17.8125 8.46875,18.59375 8.515625,19.421875 C8.96875,19.484375 9.171875,19.734375 9.21875,19.984375 L7.171875,20.15625 C7.125,17.6875 7.109375,15.671875 4.078125,14.1875 L4.390625,13.796875 C6.5,14.546875 7.515625,15.5 7.984375,16.578125 C8.90625,16.015625 9.84375,15.140625 10.203125,14.421875 C11.453125,13.828125 12.078125,15.765625 9.484375,16.734375 C10.078125,17.140625 10.890625,17.71875 11.359375,18.078125 C11.859375,17.96875 12.078125,18.046875 12.140625,18.234375 Z M5.765625,11.5 L5.765625,1.84375 L6.03125,1.84375 C6.671875,1.84375 7.3125,2.203125 7.3125,2.375 L7.3125,2.59375 L19.78125,2.59375 C19.578125,1.15625 19.296875,0.265625 18.953125,0.03125 C18.796875,-0.09375 18.59375,-0.125 18.234375,-0.125 L17.25,-0.078125 C17.640625,0.484375 17.1875,1.703125 14.6875,2.09375 L14.453125,1.875 C15.09375,1.46875 15.8125,0.671875 16.125,0 L15.8125,0.03125 L15.796875,-0.390625 C16.484375,-0.453125 17.140625,-0.640625 17.421875,-0.859375 C17.71875,-1.078125 17.78125,-1.484375 17.78125,-1.890625 C18.53125,-1.890625 19.265625,-1.703125 19.78125,-1.375 C20.59375,-0.84375 21.046875,0.390625 21.265625,2.421875 C21.71875,2.46875 22.015625,2.5625 22.171875,2.765625 L20.46875,4.125 L19.625,3.28125 L7.3125,3.28125 L7.3125,4.609375 L22.375,4.609375 C22.6875,4.609375 22.921875,4.734375 22.96875,4.984375 C22.21875,5.6875 20.96875,6.640625 20.96875,6.640625 L19.890625,5.296875 L7.3125,5.296875 L7.3125,6.625 L16.734375,6.625 L16.734375,6.03125 L16.96875,6.03125 C17.5,6.03125 18.265625,6.390625 18.28125,6.546875 L18.28125,10.578125 C18.671875,10.65625 19.03125,10.84375 19.171875,11.015625 L17.359375,12.359375 L16.515625,11.5 L11.046875,11.5 L12.046875,12.265625 C12.53125,12.234375 12.859375,12.390625 12.953125,12.71875 L11.8125,13.03125 L20.359375,13.03125 C20.109375,12.234375 19.75,11.234375 19.484375,10.609375 L19.828125,10.4375 C20.5625,11.046875 21.59375,12.046875 22.15625,12.75 C22.625,12.796875 22.890625,12.8125 23.09375,13.015625 L21.3125,14.71875 L20.296875,13.734375 L3.84375,13.734375 C3.8125,14.109375 3.75,14.515625 3.625,14.96875 L3.1875,14.96875 C3.234375,13.625 2.5,12.359375 1.703125,11.875 C1.21875,11.59375 0.9375,11.109375 1.15625,10.625 C1.390625,10.15625 2.1875,10.203125 2.6875,10.5625 C3.265625,10.9375 3.765625,11.8125 3.84375,13.03125 L10.46875,13.03125 L9.953125,11.5 L7.4375,11.5 L5.765625,12.265625 Z M19.84375,19.4375 C19.421875,18.71875 18.640625,17.546875 18.09375,16.796875 C17.734375,16.921875 17.359375,17.015625 16.890625,17.09375 C17.15625,17.8125 17.234375,18.59375 17.28125,19.421875 C17.734375,19.46875 17.953125,19.734375 17.96875,19.96875 L15.890625,20.15625 C15.84375,17.59375 15.8125,15.71875 12.03125,14.375 L12.3125,13.984375 C14.90625,14.6875 16.109375,15.578125 16.6875,16.625 C17.734375,16.015625 18.90625,15 19.390625,14.1875 C20.6875,13.609375 21.265625,15.59375 18.546875,16.65625 C19.3125,17.09375 20.296875,17.6875 20.859375,18.078125 C21.359375,17.96875 21.546875,18.046875 21.640625,18.1875 Z M16.734375,10.796875 L16.734375,9.4375 L7.3125,9.4375 L7.3125,10.796875 Z M7.3125,8.734375 L16.734375,8.734375 L16.734375,7.3125 L7.3125,7.3125 Z" transform="translate(-0.015625, 20.15625) scale(1, -1)"/>
</svg>