<svg height="21.390625" viewBox="0 0 24 21.390625" width="24" xmlns="http://www.w3.org/2000/svg">
<path d="M16.375,9.40625 L16.078125,9.1875 C16.53125,8.921875 16.890625,8.453125 17.015625,7.984375 C17.859375,7.390625 18.59375,8.921875 16.375,9.40625 Z M18.75,11.328125 L18.484375,11.140625 C18.890625,10.84375 19.296875,10.3125 19.421875,9.890625 C20.234375,9.28125 21.03125,10.828125 18.75,11.328125 Z M14.09375,11.375 L13.796875,11.1875 C14.15625,10.921875 14.453125,10.4375 14.5,10.03125 C15.28125,9.390625 16.125,10.84375 14.09375,11.375 Z M3.53125,17.828125 L5.921875,17.828125 L5.921875,15.140625 L3.53125,15.140625 Z M2.140625,18.53125 L2.140625,5.90625 L2.359375,5.90625 C3.046875,5.90625 3.53125,6.3125 3.53125,6.4375 L3.53125,7.3125 L11.15625,7.3125 C11.5,7.3125 11.71875,7.4375 11.78125,7.703125 C11.0625,8.40625 9.9375,9.28125 9.9375,9.28125 L8.921875,8.046875 L7.296875,8.046875 L7.296875,10.984375 L9.140625,10.984375 L9.140625,10.34375 L9.359375,10.34375 C9.8125,10.34375 10.53125,10.65625 10.5625,10.828125 L10.5625,14.359375 C10.875,14.40625 11.1875,14.5625 11.28125,14.71875 L9.703125,15.90625 L8.953125,15.140625 L7.296875,15.140625 L7.296875,17.828125 L10.890625,17.828125 C11.234375,17.828125 11.453125,17.953125 11.515625,18.21875 C10.78125,18.890625 9.625,19.796875 9.625,19.796875 L8.640625,18.53125 L3.84375,18.53125 L2.140625,19.265625 Z M16.296875,16.96875 L16.296875,13.734375 L14.015625,13.734375 L12.390625,14.46875 L12.390625,6.140625 L12.578125,6.140625 C13.265625,6.140625 13.734375,6.5 13.734375,6.625 L13.734375,7.078125 L20.421875,7.078125 L20.421875,6.21875 L20.640625,6.21875 C21.09375,6.21875 21.765625,6.578125 21.796875,6.71875 L21.796875,12.859375 C22.171875,12.9375 22.53125,13.125 22.65625,13.265625 L20.96875,14.5625 L20.234375,13.734375 L17.71875,13.734375 L17.71875,15 L21.546875,15 C21.859375,15 22.078125,15.125 22.15625,15.359375 C21.53125,15.984375 20.515625,16.75 20.515625,16.75 L19.6875,15.703125 L17.71875,15.703125 L17.71875,16.25 C18.125,16.3125 18.28125,16.484375 18.34375,16.75 Z M3.53125,8.046875 L3.53125,10.984375 L5.921875,10.984375 L5.921875,8.046875 Z M9.140625,14.46875 L9.140625,11.6875 L3.53125,11.6875 L3.53125,14.46875 Z M20.421875,13.0625 L20.421875,7.78125 L13.734375,7.78125 L13.734375,13.0625 L15.765625,13.0625 L15.53125,12.859375 C15.953125,12.59375 16.34375,12.140625 16.515625,11.765625 C17.28125,11.1875 18.03125,12.640625 15.90625,13.0625 Z M8.8125,-0.578125 L5.71875,-0.578125 L5.71875,4.515625 L8.8125,4.515625 Z M10.3125,-0.578125 L10.3125,4.515625 L13.484375,4.515625 L13.484375,-0.578125 Z M15,-0.578125 L15,4.515625 L18.140625,4.515625 L18.140625,-0.578125 Z M4.203125,5.234375 L4.203125,-0.578125 L1.015625,-0.578125 L1.21875,-1.25 L22.390625,-1.25 C22.734375,-1.25 22.9375,-1.125 23.015625,-0.859375 C22.296875,-0.171875 21.125,0.8125 21.125,0.8125 L20.0625,-0.578125 L19.703125,-0.578125 L19.703125,4.34375 C20.296875,4.421875 20.609375,4.5625 20.78125,4.796875 L18.703125,6.3125 L17.875,5.234375 L6,5.234375 L4.203125,6 Z M13.5625,20.140625 C13.0625,17.921875 12.03125,15.40625 10.890625,13.9375 L11.28125,13.734375 C12.359375,14.5625 13.3125,15.765625 14.09375,17.0625 L22.296875,17.0625 C22.609375,17.0625 22.84375,17.1875 22.921875,17.453125 C22.15625,18.1875 21,19.078125 21,19.078125 L19.921875,17.78125 L14.5,17.78125 C14.71875,18.1875 14.90625,18.578125 15.078125,18.984375 C15.546875,18.953125 15.8125,19.171875 15.90625,19.4375 Z M14.546875,12.265625 L14.296875,11.953125 C14.953125,11.609375 15.71875,11.109375 16.46875,10.578125 C15.71875,9.84375 14.875,9.125 14.015625,8.59375 L14.296875,8.234375 C15.28125,8.71875 16.25,9.390625 17.09375,10.109375 C17.78125,9.53125 18.390625,8.921875 18.71875,8.453125 C19.578125,7.984375 19.921875,9.21875 17.765625,10.703125 C18.265625,11.1875 18.703125,11.65625 19.015625,12.125 C19.53125,12 19.734375,12.09375 19.875,12.34375 L18.359375,13.015625 C18.046875,12.4375 17.5625,11.8125 17.015625,11.15625 C16.34375,11.546875 15.546875,11.90625 14.546875,12.265625 Z" transform="translate(-0.015625, 20.140625) scale(1, -1)"/>
</svg>