<svg height="22" viewBox="0 0 24 22" width="24" xmlns="http://www.w3.org/2000/svg">
<path d="M19.625,12.5 L19.625,8.859375 L15.859375,8.859375 L15.859375,12.5 Z M3.390625,17.15625 L3.390625,11.0625 C3.390625,6.71875 3.171875,2.09375 0.859375,-1.65625 L1.21875,-1.890625 C3.890625,0.9375 4.65625,4.75 4.875,8.1875 L19.625,8.1875 L19.625,7.203125 L19.84375,7.203125 C20.375,7.203125 21.140625,7.53125 21.171875,7.703125 L21.171875,12.21875 C21.625,12.3125 22.015625,12.5 22.171875,12.703125 L20.25,14.15625 L19.390625,13.21875 L15.859375,13.21875 L15.859375,15.3125 C16.390625,15.40625 16.609375,15.625 16.65625,15.9375 L14.359375,16.171875 L14.359375,13.21875 L10.34375,13.21875 L10.34375,15.3125 C10.875,15.40625 11.0625,15.625 11.109375,15.9375 L8.828125,16.171875 L8.828125,13.21875 L4.9375,13.21875 L4.9375,16.46875 L22.265625,16.46875 C22.609375,16.46875 22.84375,16.578125 22.921875,16.84375 C22.109375,17.609375 20.765625,18.640625 20.765625,18.640625 L19.625,17.15625 L13.15625,17.15625 L13.15625,19.21875 C13.75,19.296875 13.984375,19.53125 14.015625,19.875 L11.609375,20.109375 L11.609375,17.15625 L5.234375,17.15625 L3.390625,17.96875 Z M8.828125,12.5 L8.828125,8.859375 L4.890625,8.859375 L4.9375,11.09375 L4.9375,12.5 Z M10.34375,12.5 L14.359375,12.5 L14.359375,8.859375 L10.34375,8.859375 Z M7.15625,7.703125 L7.15625,0.4375 C5.90625,0.265625 4.875,0.125 4.171875,0.046875 L5.25,-1.890625 C5.46875,-1.84375 5.6875,-1.6875 5.78125,-1.375 C9.359375,-0.34375 11.953125,0.484375 13.75,1.125 L13.6875,1.484375 L8.65625,0.671875 L8.65625,3.984375 L13.15625,3.984375 C13.46875,3.984375 13.703125,4.109375 13.75,4.375 C13.078125,5.046875 11.953125,5.921875 11.953125,5.921875 L10.9375,4.6875 L8.65625,4.6875 L8.65625,6.890625 C9.21875,6.953125 9.390625,7.171875 9.453125,7.46875 Z M20.328125,6.546875 C19.375,5.71875 17.5625,4.53125 15.984375,3.71875 L15.984375,6.859375 C16.421875,6.953125 16.65625,7.171875 16.703125,7.4375 L14.46875,7.703125 L14.46875,0.1875 C14.46875,-0.953125 14.8125,-1.3125 16.5625,-1.3125 L18.859375,-1.3125 C22.265625,-1.3125 23.015625,-1.0625 23.015625,-0.359375 C23.015625,-0.078125 22.875,0.09375 22.375,0.28125 L22.296875,3 L22.015625,3 C21.765625,1.828125 21.5,0.671875 21.328125,0.359375 C21.265625,0.171875 21.171875,0.125 20.90625,0.09375 C20.609375,0.078125 19.875,0.046875 18.9375,0.046875 L16.875,0.046875 C16.078125,0.046875 15.984375,0.140625 15.984375,0.53125 L15.984375,3.171875 C17.875,3.71875 19.984375,4.5625 21.171875,5.25 C21.671875,5.109375 21.859375,5.15625 22.0625,5.375 Z" transform="translate(0.0625, 20.109375) scale(1, -1)"/>
</svg>