<svg height="21.9375" viewBox="0 0 24 21.9375" width="24" xmlns="http://www.w3.org/2000/svg">
<path d="M13.125,19.34375 L12.84375,19.171875 C13.4375,18.484375 14.140625,17.328125 14.28125,16.4375 C15.5,15.390625 16.84375,17.921875 13.125,19.34375 Z M20.59375,19.53125 C20.328125,18.75 19.65625,17.25 19.125,16.3125 L19.390625,16.15625 C20.25,16.828125 21.1875,17.6875 21.703125,18.234375 C22.171875,18.171875 22.46875,18.359375 22.53125,18.53125 Z M7.65625,16.296875 L7.65625,13.9375 L6.046875,13.9375 L6.046875,15.53125 C6.484375,15.59375 6.640625,15.8125 6.703125,16.078125 L4.796875,16.296875 L4.796875,13.9375 L3.34375,13.9375 L3.34375,16.78125 L11.90625,16.78125 C12.21875,16.78125 12.4375,16.890625 12.484375,17.15625 C11.8125,17.859375 10.65625,18.71875 10.65625,18.71875 L9.671875,17.5 L7.78125,17.5 L7.78125,19.21875 C8.296875,19.3125 8.515625,19.53125 8.5625,19.84375 L6.3125,20.0625 L6.3125,17.5 L3.59375,17.5 L1.984375,18.234375 L1.984375,10.0625 C1.984375,6.265625 2.09375,2.15625 0.8125,-1.015625 L1.203125,-1.25 C3.21875,1.703125 3.34375,5.859375 3.34375,9.28125 L10.421875,9.28125 L10.421875,8.5625 L10.609375,8.5625 C11.0625,8.5625 11.734375,8.859375 11.765625,9.03125 L11.765625,10.484375 L11.953125,10.25 C13.84375,11.234375 15.53125,12.5 16.75,14.046875 L16.75,9.703125 L17.046875,9.703125 C17.59375,9.703125 18.21875,10.015625 18.21875,10.203125 L18.21875,14.78125 C19.15625,12.9375 20.609375,11.5 22.15625,10.625 C22.3125,11.296875 22.75,11.6875 23.28125,11.78125 L23.296875,12.046875 C21.71875,12.546875 19.921875,13.5625 18.8125,14.921875 L22.78125,14.921875 C23.09375,14.921875 23.328125,15.046875 23.375,15.28125 C22.734375,15.9375 21.671875,16.75 21.671875,16.75 L20.78125,15.625 L18.21875,15.625 L18.21875,19.15625 C18.8125,19.25 19.03125,19.46875 19.078125,19.796875 L16.75,20.046875 L16.75,15.625 L11.640625,15.625 L11.828125,14.921875 L15.703125,14.921875 C14.734375,13.375 13.34375,11.859375 11.765625,10.6875 L11.765625,13.125 C12.09375,13.203125 12.40625,13.34375 12.53125,13.515625 L10.9375,14.71875 L10.25,13.9375 L8.90625,13.9375 L8.90625,15.53125 C9.34375,15.59375 9.53125,15.8125 9.578125,16.078125 Z M13.625,10.53125 C13.15625,7.9375 12.1875,5.421875 11.109375,3.75 L11.5,3.5 C12,4.03125 12.453125,4.65625 12.890625,5.359375 C13.34375,4.890625 13.703125,4.265625 13.796875,3.75 C14.09375,3.53125 14.375,3.5 14.5625,3.625 C13.796875,1.65625 12.625,-0.125 10.828125,-1.46875 L11.046875,-1.828125 C14.765625,0.359375 16.171875,3.859375 16.828125,7.46875 L17.375,7.53125 C17.1875,5.734375 16.890625,3.1875 16.609375,1.3125 C17.28125,1.203125 17.609375,1.21875 17.953125,1.421875 L18.078125,2.421875 L19.734375,2.421875 L19.734375,-1.875 L19.984375,-1.875 C20.5,-1.875 21.078125,-1.53125 21.078125,-1.34375 L21.078125,2.421875 L23.0625,2.421875 C23.375,2.421875 23.59375,2.515625 23.65625,2.78125 C23.09375,3.390625 22.15625,4.125 22.15625,4.125 L21.328125,3.09375 L21.078125,3.09375 L21.078125,7.109375 L22.828125,7.109375 C23.109375,7.109375 23.328125,7.203125 23.375,7.46875 C22.875,8.015625 22.03125,8.65625 22.03125,8.65625 L21.328125,7.796875 L21.078125,7.796875 L21.078125,9.28125 C21.578125,9.390625 21.75,9.578125 21.796875,9.890625 L19.734375,10.109375 L19.734375,7.796875 L18.9375,7.796875 L17.46875,8.5 L17.421875,8.046875 L16.265625,9.078125 L15.453125,8.296875 L14.359375,8.296875 L14.78125,9.53125 C15.265625,9.53125 15.5,9.765625 15.59375,10.03125 Z M19.734375,3.09375 L18.171875,3.09375 L18.546875,7.109375 L19.734375,7.109375 Z M13.171875,5.78125 C13.484375,6.359375 13.796875,6.953125 14.0625,7.578125 L15.578125,7.578125 C15.40625,6.5 15.171875,5.453125 14.828125,4.421875 C14.734375,4.875 14.25,5.421875 13.171875,5.78125 Z M3.34375,13.25 L4.796875,13.25 L4.796875,9.984375 L3.34375,9.984375 L3.34375,10.0625 Z M10.6875,7.15625 C10.3125,6.640625 9.75,5.90625 9.21875,5.28125 L9.21875,7.609375 C9.625,7.6875 9.859375,7.890625 9.890625,8.1875 L7.890625,8.421875 L7.890625,5.15625 C7.5625,5.71875 6.90625,6.40625 6.90625,6.40625 L6.3125,5.421875 L5.71875,5.421875 L5.71875,7.625 C6.1875,7.734375 6.390625,7.9375 6.453125,8.234375 L4.390625,8.46875 L4.390625,0.71875 L2.640625,0.265625 L3.703125,-1.4375 C3.90625,-1.375 4.0625,-1.15625 4.15625,-0.859375 C5.71875,0.03125 6.90625,0.8125 7.6875,1.296875 L7.5625,1.625 L5.71875,1.109375 L5.71875,4.703125 L7.375,4.703125 C7.625,4.703125 7.84375,4.796875 7.890625,5.015625 L7.890625,0.9375 C7.890625,0.078125 8.09375,-0.28125 9.171875,-0.28125 L10.0625,-0.28125 C11.71875,-0.28125 12.21875,-0.046875 12.21875,0.484375 C12.21875,0.765625 12.125,0.890625 11.6875,1.0625 L11.609375,2.59375 L11.359375,2.59375 C11.1875,1.9375 10.984375,1.21875 10.875,1.0625 C10.828125,0.953125 10.734375,0.9375 10.625,0.9375 C10.515625,0.9375 10.3125,0.9375 10.109375,0.9375 L9.53125,0.9375 C9.265625,0.9375 9.21875,1.015625 9.21875,1.25 L9.21875,4.53125 L11.40625,5.828125 C11.859375,5.71875 12.078125,5.765625 12.1875,5.953125 Z M6.046875,13.25 L7.65625,13.25 L7.65625,9.984375 L6.046875,9.984375 Z M8.90625,13.25 L10.421875,13.25 L10.421875,9.984375 L8.90625,9.984375 Z" transform="translate(-0.234375, 20.0625) scale(1, -1)"/>
</svg>