<svg height="22.609375" viewBox="0 0 24 22.609375" width="24" xmlns="http://www.w3.org/2000/svg">
<path d="M11.46875,7.796875 C12.140625,7.796875 12.40625,7.9375 12.484375,8.15625 L10.203125,8.859375 C8.859375,6.5 6,3.640625 2.6875,1.96875 L2.953125,1.65625 C5.71875,2.640625 8.046875,4.296875 9.8125,6 L14.859375,6 C14.234375,5.015625 13.46875,4.109375 12.546875,3.28125 C11.375,3.703125 10.03125,4.109375 8.453125,4.484375 L8.296875,4.109375 C9.453125,3.625 10.578125,3.078125 11.609375,2.515625 C9.21875,0.71875 6.078125,-0.578125 2.421875,-1.421875 L2.59375,-1.828125 C6.765625,-1.171875 10.171875,0.046875 12.8125,1.875 C15.125,0.53125 16.921875,-0.8125 17.875,-1.78125 C19.484375,-2.5 20.5,0.09375 13.96875,2.765625 C15.046875,3.640625 15.953125,4.65625 16.734375,5.8125 C17.296875,5.8125 17.5625,5.875 17.765625,6.09375 L16.078125,7.65625 L15,6.71875 L10.53125,6.71875 C10.875,7.078125 11.1875,7.4375 11.46875,7.796875 Z M16.53125,16.4375 C16.109375,14.5625 15.34375,12.9375 14.40625,11.765625 C13.75,12.34375 13.203125,12.953125 12.75,13.625 L12.75,16.828125 L21.984375,16.828125 C22.3125,16.828125 22.5625,16.9375 22.625,17.203125 C21.765625,17.96875 20.421875,19.015625 20.421875,19.015625 L19.203125,17.515625 L12.75,17.515625 L12.75,19.21875 C13.34375,19.296875 13.578125,19.53125 13.625,19.875 L11.203125,20.109375 L11.203125,17.515625 L1.25,17.515625 L1.46875,16.828125 L11.203125,16.828125 L11.203125,14.0625 C9.1875,10.53125 5.109375,7.625 1.03125,6.09375 L1.21875,5.65625 C5.0625,6.8125 8.8125,8.953125 11.203125,11.453125 L11.203125,9.1875 L11.5,9.1875 C12.078125,9.1875 12.75,9.53125 12.75,9.71875 L12.75,12.765625 C14.640625,9.53125 17.875,7.296875 21.640625,6.125 C21.8125,6.890625 22.375,7.390625 23.015625,7.484375 L23.046875,7.734375 C20.09375,8.296875 17.09375,9.578125 14.875,11.359375 C15.578125,11.859375 16.203125,12.5 16.75,13.265625 C17.921875,12.484375 19.3125,11.234375 19.828125,10.203125 C21.484375,9.34375 22.21875,12.53125 17.046875,13.703125 C17.359375,14.1875 17.609375,14.71875 17.859375,15.28125 C18.359375,15.234375 18.640625,15.453125 18.75,15.75 Z M6.265625,16.515625 C5.40625,13.578125 3.796875,11.15625 1.984375,9.765625 L2.28125,9.4375 C3.8125,10.265625 5.203125,11.515625 6.34375,13.15625 C6.90625,12.546875 7.4375,11.765625 7.609375,11.09375 C8.921875,10.171875 10.078125,12.59375 6.640625,13.65625 C6.953125,14.15625 7.21875,14.6875 7.484375,15.265625 C7.984375,15.234375 8.28125,15.4375 8.40625,15.703125 Z" transform="translate(-0.0390625, 20.109375) scale(1, -1)"/>
</svg>