<svg height="22.03125" viewBox="0 0 24 22.03125" width="24" xmlns="http://www.w3.org/2000/svg">
<path d="M11.109375,9.546875 L11.109375,2.015625 L11.359375,2.015625 C11.828125,2.015625 12.34375,2.328125 12.34375,2.5 L12.34375,8.8125 C12.796875,8.90625 12.984375,9.046875 13.03125,9.34375 Z M6.03125,9.578125 C6,6.21875 6.125,2.921875 4.578125,0.546875 L4.96875,0.1875 C7.21875,2.46875 7.25,5.765625 7.34375,8.8125 C7.796875,8.875 7.984375,9.125 8.015625,9.390625 Z M14.375,9.578125 C14.359375,6.09375 14.421875,2.78125 12.59375,0.390625 L12.984375,0.03125 C15.546875,2.328125 15.578125,5.65625 15.671875,8.8125 C16.15625,8.875 16.34375,9.125 16.390625,9.390625 Z M19.375,9.578125 L19.375,2.453125 C19.375,0.953125 19.578125,0.59375 20.734375,0.59375 L21.71875,0.59375 C22.875,0.59375 23.25,0.984375 23.25,1.515625 C23.25,1.75 23.1875,1.84375 22.796875,2.046875 L22.75,3.984375 L22.390625,3.984375 C22.25,3 22.109375,2.328125 22.015625,2.0625 C21.90625,1.828125 21.8125,1.828125 21.703125,1.828125 L20.859375,1.828125 C20.59375,1.828125 20.609375,1.875 20.609375,2.421875 L20.609375,8.765625 C21.046875,8.828125 21.28125,9.03125 21.328125,9.3125 Z M13.484375,12.03125 L13.65625,11.328125 L16.78125,11.328125 L16.78125,-1.84375 L17.046875,-1.84375 C17.5625,-1.84375 18.1875,-1.515625 18.1875,-1.3125 L18.1875,11.328125 L22.203125,11.328125 C22.53125,11.328125 22.78125,11.453125 22.828125,11.71875 C22.109375,12.40625 20.921875,13.34375 20.921875,13.34375 L19.890625,12.03125 L18.1875,12.03125 L18.1875,14.421875 C18.765625,14.515625 18.984375,14.765625 19.03125,15.09375 L16.78125,15.34375 L16.78125,12.03125 Z M5.234375,12 L5.421875,11.28125 L8.5,11.28125 L8.5,-1.921875 L8.78125,-1.921875 C9.28125,-1.921875 9.890625,-1.578125 9.890625,-1.375 L9.890625,11.28125 L12.859375,11.28125 C13.171875,11.28125 13.390625,11.40625 13.46875,11.65625 C12.8125,12.34375 11.71875,13.25 11.71875,13.25 L10.734375,12 L9.890625,12 L9.890625,14.5625 C10.484375,14.65625 10.6875,14.875 10.75,15.21875 L8.5,15.484375 L8.5,12 Z M3.171875,16.734375 L3.171875,10.796875 C3.171875,6.59375 3.03125,2.046875 0.984375,-1.625 L1.375,-1.890625 C4.515625,1.75 4.6875,6.953125 4.6875,10.828125 L4.6875,16.03125 L22.375,16.03125 C22.703125,16.03125 22.9375,16.15625 22.984375,16.421875 C22.171875,17.15625 20.859375,18.21875 20.859375,18.21875 L19.6875,16.734375 L13.3125,16.734375 L13.3125,19.21875 C13.890625,19.296875 14.140625,19.53125 14.1875,19.875 L11.765625,20.109375 L11.765625,16.734375 L4.96875,16.734375 L3.171875,17.515625 Z" transform="translate(-0.1171875, 20.109375) scale(1, -1)"/>
</svg>