<svg height="22.03125" viewBox="0 0 24 22.03125" width="24" xmlns="http://www.w3.org/2000/svg">
<path d="M5.71875,13.703125 C4.703125,11.5 2.71875,9.265625 0.8125,7.9375 L0.984375,7.53125 C2.65625,8.46875 4.421875,9.84375 5.71875,11.203125 L5.71875,9.171875 L5.140625,9.28125 C4.34375,7.0625 2.78125,4.375 1.078125,2.828125 L1.390625,2.546875 C2.46875,3.234375 3.484375,4.21875 4.375,5.296875 C4.84375,4.078125 5.40625,3.09375 6.046875,2.28125 C4.78125,0.71875 3.078125,-0.546875 0.890625,-1.515625 L1.109375,-1.875 C3.5,-1.078125 5.359375,0.046875 6.796875,1.421875 C9.03125,-0.796875 12.140625,-1.3125 16.828125,-1.3125 C18.1875,-1.3125 21.171875,-1.3125 22.390625,-1.3125 C22.4375,-0.703125 22.78125,-0.234375 23.40625,-0.125 L23.40625,0.1875 C21.765625,0.171875 18.4375,0.171875 16.9375,0.171875 C12.640625,0.171875 9.59375,0.5 7.4375,2.09375 C8.546875,3.34375 9.359375,4.78125 9.9375,6.359375 C10.46875,6.40625 10.703125,6.453125 10.890625,6.671875 L9.265625,8.109375 L8.296875,7.203125 L5.71875,7.203125 C5.96875,7.625 6.21875,8.0625 6.4375,8.5 C7.015625,8.453125 7.171875,8.5625 7.265625,8.8125 L5.875,9.125 L6,9.125 C6.53125,9.125 7.15625,9.453125 7.15625,9.640625 L7.15625,11.828125 C8.375,10.96875 9.84375,9.625 10.375,8.546875 C11.90625,7.734375 12.53125,10.78125 7.15625,12.265625 L7.15625,17.109375 L11.328125,17.109375 C11.65625,17.109375 11.90625,17.234375 11.96875,17.5 L11.65625,17.78125 L16.109375,17.78125 C16.0625,16.921875 15.984375,15.859375 15.90625,15.125 L13.34375,15.125 L11.828125,15.8125 L11.828125,1.03125 L12.078125,1.03125 C12.671875,1.03125 13.21875,1.375 13.21875,1.53125 L13.21875,2.59375 L20.59375,2.59375 L20.59375,1.15625 L20.8125,1.15625 C21.3125,1.15625 21.984375,1.515625 22.015625,1.703125 L22.015625,14.109375 C22.484375,14.203125 22.875,14.40625 23.046875,14.59375 L21.1875,16.03125 L20.359375,15.125 L16.65625,15.125 C17.015625,15.859375 17.40625,16.875 17.71875,17.78125 L22.625,17.78125 C22.96875,17.78125 23.1875,17.90625 23.25,18.171875 C22.484375,18.859375 21.265625,19.828125 21.265625,19.828125 L20.203125,18.484375 L11.109375,18.484375 L11.1875,18.171875 L10.03125,19.109375 L9.03125,17.8125 L7.15625,17.8125 L7.15625,19.265625 C7.734375,19.34375 7.96875,19.578125 8.015625,19.921875 L5.71875,20.15625 L5.71875,17.8125 L0.984375,17.8125 L1.171875,17.109375 L5.71875,17.109375 Z M20.59375,3.265625 L18.890625,3.265625 L18.890625,14.40625 L20.59375,14.40625 Z M13.21875,3.265625 L13.21875,14.40625 L14.859375,14.40625 L14.859375,3.265625 Z M16.03125,3.265625 L16.03125,6.640625 L17.71875,6.640625 L17.71875,3.265625 Z M16.03125,10.578125 L17.71875,10.578125 L17.71875,7.34375 L16.03125,7.34375 Z M16.03125,11.296875 L16.03125,14.40625 L17.71875,14.40625 L17.71875,11.296875 Z M4.6875,5.6875 L5.28125,6.53125 L8.359375,6.53125 C7.921875,5.203125 7.3125,3.984375 6.53125,2.875 C5.8125,3.59375 5.1875,4.53125 4.6875,5.6875 Z M3.03125,16.625 C2.734375,14.515625 2.015625,12.625 0.984375,11.359375 L1.34375,11.109375 C2.28125,11.828125 3.03125,12.90625 3.578125,14.1875 C3.890625,13.734375 4.125,13.171875 4.15625,12.703125 C5.0625,11.90625 6.125,13.609375 3.8125,14.765625 L4.109375,15.671875 C4.609375,15.671875 4.84375,15.90625 4.921875,16.203125 Z M8.875,16.75 C8.609375,15.09375 7.96875,13.5625 7.21875,12.53125 L7.578125,12.265625 C8.234375,12.765625 8.8125,13.484375 9.265625,14.328125 C9.796875,13.796875 10.296875,13.078125 10.421875,12.453125 C11.515625,11.71875 12.40625,13.734375 9.484375,14.765625 C9.640625,15.09375 9.796875,15.4375 9.90625,15.796875 C10.390625,15.765625 10.65625,15.984375 10.734375,16.265625 Z" transform="translate(-0.109375, 20.15625) scale(1, -1)"/>
</svg>