<svg height="22" viewBox="0 0 24 22" width="24" xmlns="http://www.w3.org/2000/svg">
<path d="M3.3125,17.65625 L3.3125,11.953125 C3.3125,7.421875 3.09375,2.453125 0.859375,-1.578125 L1.21875,-1.84375 C3.9375,1.390625 4.609375,5.65625 4.78125,9.359375 L4.9375,9.125 C6.390625,9.984375 7.625,11.015625 8.59375,12.234375 L8.59375,8.875 L8.828125,8.875 C9.359375,8.875 9.984375,9.21875 9.984375,9.40625 L9.984375,12.859375 C10.6875,12.390625 11.375,11.640625 11.640625,10.96875 C12.90625,10.25 13.75,12.765625 9.984375,13.265625 L9.984375,13.78125 L12.640625,13.78125 C12.890625,13.78125 13.0625,13.828125 13.15625,13.984375 L13.203125,13.78125 L15.796875,13.78125 C14.90625,12.1875 13.625,10.78125 12.03125,9.671875 L12.28125,9.265625 C13.96875,10.109375 15.4375,11.15625 16.53125,12.4375 L16.53125,8.921875 L16.796875,8.921875 C17.359375,8.921875 17.96875,9.234375 17.96875,9.4375 L17.96875,13.46875 C18.9375,11.640625 20.359375,10.15625 21.75,9.21875 C21.9375,9.890625 22.3125,10.25 22.875,10.3125 L22.890625,10.578125 C21.390625,11.1875 19.609375,12.34375 18.484375,13.78125 L22.015625,13.78125 C22.34375,13.78125 22.5625,13.890625 22.625,14.15625 C21.984375,14.8125 20.921875,15.640625 20.921875,15.640625 L20.015625,14.5 L17.96875,14.5 L17.96875,15.796875 C18.546875,15.890625 18.765625,16.109375 18.8125,16.421875 L16.53125,16.6875 L16.53125,14.5 L13.015625,14.5 L13.03125,14.375 C12.40625,14.96875 11.609375,15.625 11.609375,15.625 L10.703125,14.5 L9.984375,14.5 L9.984375,15.890625 C10.5625,15.984375 10.75,16.203125 10.828125,16.515625 L8.59375,16.78125 L8.59375,14.5 L5.015625,14.5 L5.203125,13.78125 L7.96875,13.78125 C7.21875,12.234375 6.140625,10.796875 4.78125,9.640625 L4.828125,11.96875 L4.828125,16.96875 L22.109375,16.96875 C22.4375,16.96875 22.6875,17.09375 22.75,17.359375 C21.90625,18.09375 20.609375,19.125 20.609375,19.125 L19.484375,17.65625 L13.125,17.65625 L13.125,19.21875 C13.703125,19.296875 13.9375,19.53125 13.984375,19.875 L11.59375,20.109375 L11.59375,17.65625 L5.109375,17.65625 L3.3125,18.484375 Z M17.71875,7.625 L17.71875,5.640625 L9.125,5.640625 L9.125,7.625 Z M6.078125,3.265625 L6.078125,-1.890625 L6.28125,-1.890625 C6.890625,-1.890625 7.5625,-1.5625 7.5625,-1.421875 L7.5625,-0.53125 L19.25,-0.53125 L19.25,-1.734375 L19.484375,-1.734375 C19.9375,-1.734375 20.734375,-1.421875 20.765625,-1.25 L20.765625,2.28125 C21.21875,2.375 21.625,2.5625 21.765625,2.765625 L19.84375,4.203125 L19.015625,3.265625 L12.703125,3.265625 C13.078125,3.75 13.515625,4.375 13.921875,4.9375 L17.71875,4.9375 L17.71875,4.125 L17.953125,4.125 C18.40625,4.125 19.203125,4.4375 19.21875,4.609375 L19.21875,7.3125 C19.6875,7.4375 20.09375,7.625 20.234375,7.828125 L18.28125,9.234375 L17.46875,8.328125 L9.234375,8.328125 L7.625,9.046875 L7.625,3.984375 L7.84375,3.984375 C8.453125,3.984375 9.125,4.296875 9.125,4.4375 L9.125,4.9375 L12.234375,4.9375 L11.859375,3.265625 L7.703125,3.265625 L6.078125,4.015625 Z M19.25,2.5625 L19.25,0.171875 L7.5625,0.171875 L7.5625,2.5625 Z" transform="translate(0.125, 20.109375) scale(1, -1)"/>
</svg>