<svg height="21.984375" viewBox="0 0 24 21.984375" width="24" xmlns="http://www.w3.org/2000/svg">
<path d="M5.09375,10.875 L5.28125,10.171875 L8.234375,10.171875 C7.421875,6.8125 6,3.5 3.90625,0.953125 L4.21875,0.640625 C6.171875,2.421875 7.65625,4.53125 8.71875,6.90625 L8.71875,-1.84375 L9,-1.84375 C9.546875,-1.84375 10.203125,-1.484375 10.203125,-1.265625 L10.203125,7.921875 C10.984375,7.078125 11.859375,5.828125 12.09375,4.875 C13.5625,3.84375 14.8125,6.765625 10.203125,8.421875 L10.203125,10.171875 L13.171875,10.171875 C13.296875,10.171875 13.390625,10.203125 13.484375,10.21875 L16.296875,10.21875 C15.359375,6.71875 13.65625,3.390625 11.15625,0.9375 L11.46875,0.578125 C13.796875,2.359375 15.53125,4.53125 16.734375,7.0625 L16.734375,-1.84375 L17.015625,-1.84375 C17.59375,-1.84375 18.234375,-1.484375 18.234375,-1.265625 L18.234375,8.59375 C19.078125,5.296875 20.375,2.5625 21.859375,0.75 C22.109375,1.484375 22.625,1.9375 23.234375,2.015625 L23.296875,2.25 C21.40625,3.8125 19.4375,6.890625 18.359375,10.21875 L22.3125,10.21875 C22.65625,10.21875 22.875,10.34375 22.9375,10.578125 C22.203125,11.328125 21,12.265625 21,12.265625 L19.921875,10.921875 L18.234375,10.921875 L18.234375,14.15625 C18.84375,14.25 19.03125,14.5 19.109375,14.828125 L16.734375,15.09375 L16.734375,10.921875 L13.421875,10.921875 C12.765625,11.546875 11.96875,12.21875 11.96875,12.21875 L10.96875,10.875 L10.203125,10.875 L10.203125,14.296875 C10.796875,14.40625 10.984375,14.609375 11.0625,14.96875 L8.71875,15.234375 L8.71875,10.875 Z M3.21875,16.734375 L3.21875,10.828125 C3.21875,6.625 3.046875,2.0625 1.015625,-1.609375 L1.375,-1.875 C4.578125,1.75 4.75,6.953125 4.75,10.828125 L4.75,16.03125 L22.375,16.03125 C22.703125,16.03125 22.9375,16.15625 22.984375,16.421875 C22.171875,17.15625 20.859375,18.21875 20.859375,18.21875 L19.6875,16.734375 L13.3125,16.734375 L13.3125,19.21875 C13.890625,19.296875 14.140625,19.53125 14.1875,19.875 L11.765625,20.109375 L11.765625,16.734375 L5.046875,16.734375 L3.21875,17.515625 Z" transform="translate(-0.15625, 20.109375) scale(1, -1)"/>
</svg>