<svg height="21.984375" viewBox="0 0 24 21.984375" width="24" xmlns="http://www.w3.org/2000/svg">
<path d="M0.953125,11.71875 L1.15625,10.984375 L4.796875,10.984375 C4.078125,8.375 2.546875,5.28125 0.765625,3.53125 L1.0625,3.265625 C2.234375,4.109375 3.3125,5.28125 4.203125,6.546875 C4.65625,5.046875 5.1875,3.8125 5.8125,2.8125 C4.53125,1.078125 2.859375,-0.40625 0.703125,-1.515625 L0.90625,-1.875 C3.28125,-0.9375 5.109375,0.34375 6.53125,1.84375 C8.609375,-0.703125 11.640625,-1.296875 16.203125,-1.296875 C17.6875,-1.296875 20.828125,-1.296875 22.15625,-1.296875 C22.203125,-0.671875 22.53125,-0.21875 23.1875,-0.09375 L23.1875,0.234375 C21.484375,0.1875 17.921875,0.1875 16.34375,0.1875 C12.09375,0.1875 9.1875,0.59375 7.109375,2.546875 C8.40625,4.109375 9.265625,5.90625 9.890625,7.828125 C10.421875,7.875 10.65625,7.921875 10.828125,8.140625 L9.171875,9.640625 L8.203125,8.71875 L5.515625,8.71875 C5.78125,9.234375 6.03125,9.765625 6.21875,10.265625 C6.8125,10.25 6.984375,10.34375 7.078125,10.578125 L5.15625,10.984375 L10.984375,10.984375 C11.328125,10.984375 11.546875,11.109375 11.609375,11.375 C10.921875,12.078125 9.75,12.984375 9.75,12.984375 L8.734375,11.71875 L6.796875,11.71875 L6.796875,13.9375 L10.46875,13.9375 C10.796875,13.9375 11.015625,14.0625 11.0625,14.328125 C10.421875,14.953125 9.40625,15.765625 9.40625,15.765625 L8.515625,14.640625 L6.796875,14.640625 L6.796875,16.703125 L10.703125,16.703125 C11.015625,16.703125 11.25,16.796875 11.296875,17.0625 C10.609375,17.765625 9.5,18.625 9.5,18.625 L8.515625,17.40625 L6.796875,17.40625 L6.796875,19.203125 C7.390625,19.3125 7.625,19.53125 7.6875,19.890625 L5.328125,20.109375 L5.328125,17.40625 L1.34375,17.40625 L1.53125,16.703125 L5.328125,16.703125 L5.328125,14.640625 L1.734375,14.640625 L1.921875,13.9375 L5.328125,13.9375 L5.328125,11.71875 Z M4.484375,6.984375 L5.140625,8.015625 L8.28125,8.015625 C7.828125,6.390625 7.171875,4.84375 6.265625,3.484375 C5.5625,4.375 4.984375,5.515625 4.484375,6.984375 Z M11.609375,15.140625 L11.609375,1.4375 L11.859375,1.4375 C12.453125,1.4375 13.015625,1.796875 13.015625,1.9375 L13.015625,2.875 L20.375,2.875 L20.375,1.578125 L20.59375,1.578125 C21.09375,1.578125 21.765625,1.9375 21.796875,2.09375 L21.796875,14.15625 C22.265625,14.25 22.65625,14.453125 22.828125,14.640625 L20.96875,16.078125 L20.140625,15.140625 L16.421875,15.140625 C16.78125,15.890625 17.140625,16.875 17.421875,17.78125 L22.4375,17.78125 C22.78125,17.78125 22.984375,17.90625 23.0625,18.171875 C22.296875,18.859375 21.078125,19.828125 21.078125,19.828125 L19.984375,18.484375 L10.921875,18.484375 L11.109375,17.78125 L15.8125,17.78125 C15.796875,16.921875 15.71875,15.890625 15.640625,15.140625 L13.125,15.140625 L11.609375,15.859375 Z M20.375,3.59375 L18.671875,3.59375 L18.671875,14.453125 L20.375,14.453125 Z M13.015625,3.59375 L13.015625,14.453125 L14.609375,14.453125 L14.609375,3.59375 Z M15.8125,3.59375 L15.8125,7.109375 L17.46875,7.109375 L17.46875,3.59375 Z M15.8125,10.734375 L17.46875,10.734375 L17.46875,7.796875 L15.8125,7.796875 Z M15.8125,11.421875 L15.8125,14.453125 L17.46875,14.453125 L17.46875,11.421875 Z" transform="translate(0.0546875, 20.109375) scale(1, -1)"/>
</svg>