<svg height="21.984375" viewBox="0 0 24 21.984375" width="24" xmlns="http://www.w3.org/2000/svg">
<path d="M18.078125,14.234375 C17.828125,13.421875 17.1875,11.765625 16.6875,10.703125 L16.984375,10.5625 C17.78125,11.375 18.640625,12.40625 19.125,13.0625 C19.578125,13.015625 19.84375,13.21875 19.890625,13.421875 Z M4.796875,11.046875 C4.078125,8.40625 2.46875,5.296875 0.671875,3.53125 L0.953125,3.265625 C2.1875,4.125 3.28125,5.296875 4.203125,6.59375 C4.65625,5.140625 5.1875,3.9375 5.8125,2.953125 C4.53125,1.203125 2.859375,-0.34375 0.71875,-1.484375 L0.953125,-1.84375 C3.28125,-0.890625 5.109375,0.4375 6.5,1.96875 C8.65625,-0.671875 11.78125,-1.296875 16.53125,-1.296875 C17.96875,-1.296875 21.03125,-1.296875 22.3125,-1.296875 C22.375,-0.703125 22.703125,-0.21875 23.328125,-0.125 L23.328125,0.21875 C21.640625,0.171875 18.21875,0.171875 16.625,0.171875 C12.21875,0.171875 9.21875,0.59375 7.078125,2.640625 C8.328125,4.203125 9.21875,5.96875 9.8125,7.84375 C10.375,7.890625 10.609375,7.9375 10.78125,8.140625 L9.125,9.640625 L8.15625,8.734375 L5.5,8.734375 C5.734375,9.234375 5.96875,9.71875 6.171875,10.203125 C6.765625,10.171875 6.9375,10.296875 7.03125,10.53125 Z M4.484375,7.0625 L5.09375,8.015625 L8.203125,8.015625 C7.78125,6.453125 7.109375,4.96875 6.234375,3.59375 C5.546875,4.484375 4.984375,5.640625 4.484375,7.0625 Z M0.984375,11.765625 L1.171875,11.046875 L10.875,11.046875 C11.203125,11.046875 11.453125,11.15625 11.5,11.421875 C10.796875,12.09375 9.640625,13.03125 9.640625,13.03125 L8.640625,11.765625 L6.8125,11.765625 L6.8125,13.9375 L10.125,13.9375 C10.46875,13.9375 10.6875,14.0625 10.734375,14.328125 C10.109375,14.953125 9.078125,15.765625 9.078125,15.765625 L8.1875,14.640625 L6.8125,14.640625 L6.8125,16.703125 L10.53125,16.703125 C10.84375,16.703125 11.09375,16.796875 11.15625,17.0625 C10.4375,17.734375 9.34375,18.59375 9.34375,18.59375 L8.375,17.375 L6.8125,17.375 L6.8125,19.15625 C7.421875,19.25 7.625,19.484375 7.6875,19.828125 L5.359375,20.0625 L5.359375,17.375 L1.390625,17.375 L1.578125,16.703125 L5.359375,16.703125 L5.359375,14.640625 L1.796875,14.640625 L1.984375,13.9375 L5.359375,13.9375 L5.359375,11.765625 Z M14.71875,15.4375 L14.71875,9.859375 L10.84375,9.859375 L11.046875,9.140625 L13.9375,9.140625 C13.0625,6.890625 11.640625,4.828125 9.796875,3.1875 L10.0625,2.8125 C12.03125,4.109375 13.578125,5.734375 14.71875,7.625 L14.71875,1.875 L15,1.875 C15.453125,1.875 16.015625,2.1875 16.015625,2.375 L16.015625,7.65625 C16.84375,6.9375 17.78125,5.8125 18.046875,4.890625 C19.421875,3.984375 20.375,6.75 16.015625,8.09375 L16.015625,9.140625 L19.578125,9.140625 C19.890625,9.140625 20.109375,9.265625 20.15625,9.53125 C19.5625,10.125 18.546875,10.921875 18.546875,10.921875 L17.71875,9.859375 L16.015625,9.859375 L16.015625,14.59375 C16.578125,14.6875 16.78125,14.875 16.828125,15.1875 Z M12.09375,14.203125 L11.859375,14.109375 C12.34375,14.6875 12.796875,15.34375 13.203125,16.03125 L20.6875,16.03125 C20.59375,7.3125 20.40625,3.71875 19.75,3 C19.578125,2.78125 19.421875,2.71875 19.015625,2.71875 C18.59375,2.71875 17.6875,2.8125 17.015625,2.859375 L16.984375,2.421875 C17.59375,2.328125 18.140625,2.140625 18.390625,1.890625 C18.640625,1.6875 18.703125,1.265625 18.703125,0.84375 C19.515625,0.84375 20.328125,1.109375 20.859375,1.828125 C21.703125,2.921875 21.984375,6.4375 22.0625,15.859375 C22.578125,15.90625 22.875,16.0625 23.0625,16.25 L21.28125,17.71875 L20.421875,16.734375 L13.578125,16.734375 C13.96875,17.453125 14.296875,18.21875 14.59375,19.015625 C15.125,18.984375 15.359375,19.203125 15.453125,19.46875 L13.21875,20.140625 C12.625,17.359375 11.5,14.734375 10.25,13.015625 L10.578125,12.765625 C11.015625,13.125 11.421875,13.5625 11.8125,14.015625 C12.234375,13.21875 12.703125,11.921875 12.703125,10.921875 C13.75,9.84375 15.140625,12.125 12.09375,14.203125 Z" transform="translate(0, 20.140625) scale(1, -1)"/>
</svg>