<svg height="22.015625" viewBox="0 0 24 22.015625" width="24" xmlns="http://www.w3.org/2000/svg">
<path d="M6.5,6 L6.234375,5.828125 C6.984375,5.140625 7.78125,3.90625 7.890625,2.90625 C9.359375,1.796875 10.78125,4.78125 6.5,6 Z M11.203125,7.890625 L11.203125,0.34375 C11.203125,0 11.109375,-0.125 10.703125,-0.125 C10.265625,-0.125 8.1875,0.046875 8.1875,0.046875 L8.1875,-0.34375 C9.125,-0.4375 9.640625,-0.625 9.953125,-0.859375 C10.21875,-1.109375 10.34375,-1.46875 10.390625,-1.875 C12.390625,-1.6875 12.625,-0.953125 12.625,0.234375 L12.625,7.0625 C13.171875,7.125 13.390625,7.296875 13.46875,7.65625 Z M2.78125,0.71875 L4.15625,-1.078125 C4.34375,-0.984375 4.515625,-0.8125 4.609375,-0.53125 C7.125,0.640625 8.90625,1.5625 10.15625,2.203125 L10.0625,2.546875 C7.109375,1.75 4.125,1.015625 2.78125,0.71875 Z M16.25,6.28125 C15.84375,5.46875 14.90625,3.953125 14.1875,2.96875 L14.421875,2.765625 C15.5,3.4375 16.75,4.265625 17.40625,4.828125 C17.859375,4.703125 18.1875,4.890625 18.265625,5.09375 Z M13.125,2.765625 L13.03125,2.40625 C15.984375,1.484375 18.40625,0.03125 19.4375,-0.9375 C21.28125,-1.515625 21.796875,2.234375 13.125,2.765625 Z M12.1875,10.125 C14.203125,7.515625 17.8125,5.546875 21.953125,4.296875 C22.109375,4.9375 22.53125,5.546875 23.25,5.71875 L23.296875,6.09375 C18.984375,6.796875 14.953125,8.359375 12.59375,10.375 C13.296875,10.4375 13.53125,10.5625 13.609375,10.84375 L12.4375,11.15625 C12.625,11.234375 12.71875,11.359375 12.71875,11.40625 L12.71875,14.734375 L12.8125,14.734375 C14.828125,12.140625 18.171875,10.203125 21.578125,9.171875 C21.765625,9.9375 22.296875,10.421875 22.9375,10.5625 L22.96875,10.828125 C19.65625,11.40625 15.84375,12.84375 13.5625,14.734375 L22.015625,14.734375 C22.34375,14.734375 22.578125,14.859375 22.65625,15.09375 C21.8125,15.84375 20.5,16.796875 20.5,16.796875 L19.375,15.4375 L12.71875,15.4375 L12.71875,17.828125 C15.140625,18.046875 17.40625,18.265625 19.296875,18.5 C19.84375,18.21875 20.328125,18.21875 20.546875,18.40625 L18.890625,20.140625 C15.125,19.25 8.140625,18.234375 2.640625,17.828125 L2.71875,17.359375 C5.453125,17.375 8.375,17.515625 11.15625,17.734375 L11.15625,15.4375 L1.421875,15.4375 L1.625,14.734375 L9.390625,14.734375 C7.390625,12.453125 4.3125,10.375 0.890625,9 L1.109375,8.609375 C5.15625,9.796875 8.734375,11.6875 11.15625,14.1875 L11.15625,11.46875 L11.015625,11.515625 C9.3125,8.8125 5.109375,5.859375 0.71875,4.265625 L0.8125,3.90625 C5.640625,5.15625 9.953125,7.75 12.1875,10.125 Z" transform="translate(-0.0078125, 20.140625) scale(1, -1)"/>
</svg>