<svg height="22.890625" viewBox="0 0 24 22.890625" width="24" xmlns="http://www.w3.org/2000/svg">
<path d="M14.09375,1.84375 L13.984375,1.4375 C17.140625,0.625 19.390625,-0.484375 20.65625,-1.5625 C22.421875,-2.78125 24.859375,0.796875 14.09375,1.84375 Z M8.71875,2.203125 C7.078125,1.015625 3.75,-0.640625 0.859375,-1.484375 L0.984375,-1.875 C4.125,-1.375 7.515625,-0.28125 9.578125,0.671875 C10.171875,0.5 10.5625,0.546875 10.75,0.765625 Z M17.875,10.296875 L17.875,7.53125 L12.703125,7.53125 L12.703125,10.296875 Z M14.421875,20.109375 L14.421875,17.359375 L9.546875,17.359375 L9.546875,19.203125 C10.15625,19.296875 10.390625,19.53125 10.4375,19.875 L8.015625,20.109375 L8.015625,17.359375 L2.8125,17.359375 L3.03125,16.6875 L8.015625,16.6875 L8.015625,13.796875 L1.125,13.796875 L1.34375,13.109375 L11.140625,13.109375 L11.140625,10.984375 L6.265625,10.984375 L4.5625,11.765625 L4.5625,1.890625 L4.828125,1.890625 C5.5,1.890625 6.125,2.25 6.125,2.421875 L6.125,3.171875 L17.875,3.171875 L17.875,2.234375 L18.09375,2.234375 C18.625,2.234375 19.421875,2.59375 19.4375,2.71875 L19.4375,9.984375 C19.921875,10.078125 20.28125,10.265625 20.46875,10.46875 L18.5,11.96875 L17.640625,10.984375 L12.703125,10.984375 L12.703125,13.109375 L22.421875,13.109375 C22.78125,13.109375 23.015625,13.21875 23.0625,13.484375 C22.21875,14.234375 20.90625,15.265625 20.90625,15.265625 L19.703125,13.796875 L16.015625,13.796875 L16.015625,16.6875 L21,16.6875 C21.3125,16.6875 21.546875,16.78125 21.625,17.046875 C20.8125,17.78125 19.515625,18.796875 19.515625,18.796875 L18.34375,17.359375 L16.015625,17.359375 L16.015625,19.203125 C16.578125,19.296875 16.828125,19.53125 16.875,19.875 Z M6.125,3.859375 L6.125,6.84375 L11.140625,6.84375 L11.140625,3.859375 Z M6.125,7.53125 L6.125,10.296875 L11.140625,10.296875 L11.140625,7.53125 Z M17.875,3.859375 L12.703125,3.859375 L12.703125,6.84375 L17.875,6.84375 Z M9.546875,13.796875 L9.546875,16.6875 L14.421875,16.6875 L14.421875,13.796875 Z" transform="translate(-0.859375, 20.109375) scale(1, -1)"/>
</svg>