<svg height="22.953125" viewBox="0 0 24 22.953125" width="24" xmlns="http://www.w3.org/2000/svg">
<path d="M13.9375,2.046875 L13.828125,1.625 C17.046875,0.75 19.34375,-0.4375 20.65625,-1.53125 C22.46875,-2.8125 25.109375,0.859375 13.9375,2.046875 Z M8.6875,2.40625 C7.109375,1.109375 3.75,-0.59375 0.890625,-1.515625 L1.03125,-1.890625 C4.15625,-1.34375 7.609375,-0.1875 9.671875,0.796875 C10.265625,0.671875 10.65625,0.703125 10.84375,0.9375 Z M17.953125,9.140625 L17.953125,6.84375 L12.703125,6.84375 L12.703125,9.140625 Z M1.015625,12.546875 L1.21875,11.859375 L11.140625,11.859375 L11.140625,9.859375 L6.171875,9.859375 L4.46875,10.65625 L4.46875,1.6875 L4.703125,1.6875 C5.359375,1.6875 6.046875,2.046875 6.046875,2.203125 L6.046875,2.921875 L17.953125,2.921875 L17.953125,1.921875 L18.171875,1.921875 C18.703125,1.921875 19.515625,2.296875 19.53125,2.453125 L19.53125,8.859375 C20.015625,8.953125 20.375,9.140625 20.546875,9.34375 L18.578125,10.828125 L17.71875,9.859375 L12.703125,9.859375 L12.703125,11.859375 L22.421875,11.859375 C22.75,11.859375 22.96875,11.96875 23.046875,12.234375 C22.203125,13.015625 20.859375,14.015625 20.859375,14.015625 L19.65625,12.546875 Z M6.046875,3.640625 L6.046875,6.125 L11.140625,6.125 L11.140625,3.640625 Z M6.046875,6.84375 L6.046875,9.140625 L11.140625,9.140625 L11.140625,6.84375 Z M17.953125,3.640625 L12.703125,3.640625 L12.703125,6.125 L17.953125,6.125 Z M14.765625,20.140625 L14.765625,17.5 L9.140625,17.5 L9.140625,19.25 C9.71875,19.34375 9.953125,19.5625 10.03125,19.921875 L7.5625,20.140625 L7.5625,17.5 L2.109375,17.5 L2.328125,16.796875 L7.5625,16.796875 L7.5625,12.9375 L7.84375,12.9375 C8.46875,12.9375 9.140625,13.25 9.140625,13.421875 L9.140625,14.15625 L14.765625,14.15625 L14.765625,13.03125 L15.03125,13.03125 C15.640625,13.03125 16.3125,13.375 16.3125,13.53125 L16.3125,16.796875 L21.546875,16.796875 C21.859375,16.796875 22.109375,16.921875 22.171875,17.1875 C21.359375,17.921875 20.0625,18.9375 20.0625,18.9375 L18.90625,17.5 L16.3125,17.5 L16.3125,19.25 C16.921875,19.34375 17.140625,19.5625 17.203125,19.921875 Z M9.140625,16.796875 L14.765625,16.796875 L14.765625,14.859375 L9.140625,14.859375 Z" transform="translate(-1, 20.140625) scale(1, -1)"/>
</svg>