<svg height="21.96875" viewBox="0 0 24 21.96875" width="24" xmlns="http://www.w3.org/2000/svg">
<path d="M7.421875,3.9375 L7.078125,3.796875 C7.625,2.90625 8.1875,1.46875 8.1875,0.34375 C9.390625,-0.8125 10.84375,1.796875 7.421875,3.9375 Z M9.8125,4.625 L9.53125,4.46875 C10.171875,3.796875 10.828125,2.640625 10.921875,1.734375 C12.171875,0.703125 13.46875,3.28125 9.8125,4.625 Z M5.109375,3.4375 L4.75,3.359375 C5.046875,2.28125 5.234375,0.625 4.984375,-0.671875 C6.03125,-2.09375 7.875,0.546875 5.109375,3.4375 Z M3.078125,3.140625 L2.640625,3.171875 C2.65625,1.921875 1.96875,0.4375 1.34375,-0.140625 C0.890625,-0.53125 0.640625,-1.0625 0.90625,-1.53125 C1.25,-2.0625 2.140625,-1.890625 2.5625,-1.421875 C3.1875,-0.671875 3.578125,0.984375 3.078125,3.140625 Z M4.03125,16.890625 L3.703125,16.796875 C4.109375,15.8125 4.578125,14.28125 4.609375,13.109375 C5.515625,12.125 6.640625,14.28125 4.03125,16.890625 Z M18.546875,18.671875 L18.28125,18.53125 C19.03125,17.59375 19.9375,16.109375 20.15625,14.921875 C21.625,13.796875 23.015625,16.78125 18.546875,18.671875 Z M10.296875,16.375 L8.6875,16.921875 C8.546875,15.953125 8.1875,14.0625 7.84375,12.890625 L8.15625,12.765625 C8.8125,13.796875 9.40625,15.078125 9.75,15.859375 C9.984375,15.84375 10.171875,15.890625 10.296875,15.984375 L10.296875,11.765625 L7.4375,11.765625 L7.4375,18.046875 L10.296875,18.046875 Z M3.34375,10.34375 L3.34375,11.046875 L6.078125,11.046875 L6.078125,8.734375 L1.703125,8.734375 L1.890625,8.046875 L6.078125,8.046875 L6.078125,5.765625 C3.859375,5.546875 2.046875,5.375 0.984375,5.328125 L1.703125,3.453125 C1.921875,3.5 2.15625,3.703125 2.28125,3.984375 C6.796875,4.75 10.109375,5.46875 12.578125,6 L12.5,6.390625 L7.53125,5.875 L7.53125,8.046875 L11.65625,8.046875 C12,8.046875 12.21875,8.15625 12.28125,8.421875 C11.609375,9.078125 10.5625,9.890625 10.5625,9.890625 L9.625,8.734375 L7.53125,8.734375 L7.53125,11.046875 L10.296875,11.046875 L10.296875,10.265625 L10.484375,10.265625 C10.9375,10.265625 11.609375,10.625 11.609375,10.78125 L11.609375,17.859375 C12.046875,17.921875 12.4375,18.09375 12.578125,18.265625 L10.84375,19.578125 L10.078125,18.765625 L3.484375,18.765625 L2.015625,19.46875 L2.015625,9.90625 L2.234375,9.90625 C2.8125,9.90625 3.34375,10.203125 3.34375,10.34375 Z M6.171875,11.765625 L3.34375,11.765625 L3.34375,18.046875 L6.171875,18.046875 Z M21.140625,13.875 L20.140625,12.59375 L17.1875,12.59375 C17.28125,14.515625 17.296875,16.609375 17.328125,18.9375 C17.875,19.015625 18.125,19.265625 18.1875,19.609375 L15.765625,19.875 C15.75,17.15625 15.75,14.765625 15.640625,12.59375 L12.046875,12.59375 L12.234375,11.90625 L15.625,11.90625 C15.28125,5.859375 14.09375,1.796875 9.75,-1.515625 L10.109375,-1.890625 C15.390625,1.296875 16.75,5.453125 17.140625,11.65625 C17.640625,5.78125 18.859375,1.34375 21.75,-1.609375 C22.109375,-0.90625 22.65625,-0.546875 23.28125,-0.53125 L23.375,-0.28125 C20.140625,2.140625 18.28125,6.453125 17.640625,11.90625 L22.375,11.90625 C22.6875,11.90625 22.921875,12.03125 22.984375,12.28125 C22.296875,12.984375 21.140625,13.875 21.140625,13.875 Z" transform="translate(-0.0078125, 19.875) scale(1, -1)"/>
</svg>