<svg height="22.828125" viewBox="0 0 24 22.828125" width="24" xmlns="http://www.w3.org/2000/svg">
<path d="M14.96875,19.9375 L14.859375,19.578125 C16.3125,19.0625 17.640625,18.3125 18.1875,17.859375 C19.578125,17.46875 20.015625,20.15625 14.96875,19.9375 Z M5.109375,2.28125 C4.828125,0.90625 3.40625,0.03125 2.28125,-0.265625 C1.78125,-0.484375 1.390625,-0.890625 1.5625,-1.421875 C1.75,-1.96875 2.59375,-2.046875 3.28125,-1.75 C4.390625,-1.3125 5.8125,-0.046875 5.515625,2.25 Z M8.59375,2.1875 L8.25,2.0625 C8.71875,1.171875 9.140625,-0.21875 9.09375,-1.3125 C10.34375,-2.640625 12.125,0.046875 8.59375,2.1875 Z M12.953125,2.109375 L12.703125,1.9375 C13.46875,1.078125 14.40625,-0.3125 14.640625,-1.421875 C16.15625,-2.5 17.375,0.546875 12.953125,2.109375 Z M17.59375,2.25 L17.375,2.015625 C18.703125,1.125 20.453125,-0.453125 21.09375,-1.734375 C22.890625,-2.546875 23.515625,1.03125 17.59375,2.25 Z M1.46875,3.359375 L1.6875,2.640625 L22.125,2.640625 C22.46875,2.640625 22.703125,2.765625 22.75,3.03125 C21.984375,3.703125 20.78125,4.5625 20.78125,4.5625 L19.75,3.359375 L12.71875,3.359375 L12.71875,4.828125 L20.09375,4.828125 C20.421875,4.828125 20.640625,4.9375 20.71875,5.203125 C20.15625,5.65625 19.421875,6.21875 19.0625,6.484375 C19.421875,6.59375 19.734375,6.765625 19.75,6.859375 L19.75,11.25 C20.15625,11.359375 20.515625,11.546875 20.65625,11.71875 L19.203125,12.796875 L20.015625,12.625 C21.359375,12.34375 22.609375,12.265625 22.84375,13.015625 C22.9375,13.3125 22.84375,13.515625 22.109375,13.875 L22.203125,16.078125 L21.90625,16.109375 C21.703125,15.390625 21.4375,14.5625 21.21875,14.1875 C21.078125,13.921875 20.875,13.890625 20.359375,13.96875 C17.6875,14.359375 15.90625,15.265625 14.765625,16.421875 L22.15625,16.890625 C22.46875,16.921875 22.703125,17.0625 22.75,17.359375 C21.984375,17.953125 20.734375,18.796875 20.734375,18.796875 L19.75,17.453125 L14.1875,17.09375 C13.625,17.8125 13.265625,18.625 13.03125,19.4375 C13.4375,19.53125 13.625,19.75 13.6875,19.984375 L11.203125,20.15625 C11.46875,19.015625 11.875,17.921875 12.484375,16.96875 L8.015625,16.6875 L8.25,15.984375 L12.953125,16.296875 C14.140625,14.765625 15.9375,13.609375 18.640625,12.90625 L17.96875,12.1875 L6.046875,12.1875 L4.375,12.953125 L4.375,6.046875 L4.578125,6.046875 C5.234375,6.046875 5.921875,6.40625 5.921875,6.546875 L5.921875,6.953125 L11.234375,6.953125 L11.234375,5.546875 L3.484375,5.546875 L3.671875,4.828125 L11.234375,4.828125 L11.234375,3.359375 Z M6.625,20.1875 C5.5625,18.1875 3.3125,15.546875 0.953125,13.984375 L1.203125,13.65625 C2.640625,14.28125 4.03125,15.140625 5.234375,16.078125 L5.234375,12.640625 L5.5,12.640625 C6.09375,12.640625 6.75,13.015625 6.765625,13.15625 L6.765625,16.171875 C7.15625,16.25 7.421875,16.421875 7.484375,16.609375 L6.359375,17.046875 C7.03125,17.640625 7.625,18.265625 8.0625,18.84375 C8.609375,18.75 8.828125,18.84375 8.96875,19.078125 Z M18.1875,6.953125 L18.1875,6.359375 L18.40625,6.359375 L18.59375,6.390625 L17.859375,5.546875 L12.71875,5.546875 L12.71875,6.953125 Z M18.1875,7.65625 L12.71875,7.65625 L12.71875,9.234375 L18.1875,9.234375 Z M5.921875,7.65625 L5.921875,9.234375 L11.234375,9.234375 L11.234375,7.65625 Z M18.1875,9.953125 L12.71875,9.953125 L12.71875,11.5 L18.1875,11.5 Z M5.921875,9.953125 L5.921875,11.5 L11.234375,11.5 L11.234375,9.953125 Z" transform="translate(-0.234375, 20.1875) scale(1, -1)"/>
</svg>