<svg height="22.109375" viewBox="0 0 24 22.109375" width="24" xmlns="http://www.w3.org/2000/svg">
<path d="M4.15625,17.203125 L3.8125,17.109375 C4.125,16.109375 4.515625,14.546875 4.46875,13.375 C5.328125,12.390625 6.4375,14.5 4.15625,17.203125 Z M2.6875,3.234375 C2.6875,1.96875 2.015625,0.453125 1.390625,-0.125 C0.90625,-0.484375 0.703125,-1.03125 0.953125,-1.484375 C1.296875,-1.984375 2.1875,-1.828125 2.59375,-1.34375 C3.21875,-0.59375 3.640625,1.0625 3.125,3.21875 Z M4.984375,3.453125 L4.65625,3.390625 C4.96875,2.25 5.1875,0.546875 4.921875,-0.796875 C6,-2.1875 7.703125,0.5 4.984375,3.453125 Z M9.53125,4.4375 L9.234375,4.265625 C10.015625,3.4375 10.84375,1.984375 10.9375,0.890625 C12.234375,-0.1875 13.484375,2.609375 9.53125,4.4375 Z M7.15625,3.9375 L6.84375,3.796875 C7.4375,2.78125 8.0625,1.171875 8.0625,-0.03125 C9.265625,-1.203125 10.6875,1.515625 7.15625,3.9375 Z M16.25,19.921875 L16.25,8.640625 L14.59375,8.640625 L12.859375,9.359375 L12.859375,-1.78125 L13.109375,-1.78125 C13.828125,-1.78125 14.296875,-1.4375 14.296875,-1.296875 L14.296875,0.046875 L20.421875,0.046875 L20.421875,-1.65625 L20.65625,-1.65625 C21.359375,-1.65625 21.90625,-1.296875 21.90625,-1.171875 L21.90625,7.828125 C22.421875,7.890625 22.6875,8.015625 22.84375,8.203125 L21.125,9.53125 L20.359375,8.640625 L17.765625,8.640625 L17.765625,13.390625 L22.46875,13.390625 C22.796875,13.390625 23.046875,13.515625 23.09375,13.78125 C22.34375,14.5 21.140625,15.484375 21.140625,15.484375 L20.09375,14.09375 L17.765625,14.09375 L17.765625,18.984375 C18.390625,19.078125 18.578125,19.3125 18.625,19.65625 Z M14.296875,0.765625 L14.296875,7.921875 L20.421875,7.921875 L20.421875,0.765625 Z M8.453125,17.234375 C8.375,16.25 8.0625,14.359375 7.796875,13.109375 L8.140625,13.015625 C8.6875,14.09375 9.1875,15.4375 9.484375,16.25 C9.953125,16.25 10.171875,16.515625 10.21875,16.703125 L10.21875,12.078125 L7.375,12.078125 L7.375,18.078125 L10.21875,18.078125 L10.21875,16.75 Z M0.953125,5.59375 L1.75,3.71875 C1.984375,3.765625 2.203125,3.90625 2.359375,4.203125 C6.640625,4.984375 9.796875,5.65625 12.09375,6.171875 L12.046875,6.59375 L7.484375,6.125 L7.484375,8.25 L11.609375,8.25 C11.953125,8.25 12.171875,8.375 12.21875,8.640625 C11.5625,9.265625 10.484375,10.109375 10.484375,10.109375 L9.578125,8.953125 L7.484375,8.953125 L7.484375,11.375 L10.21875,11.375 L10.21875,10.46875 L10.421875,10.46875 C10.890625,10.46875 11.59375,10.796875 11.609375,10.9375 L11.609375,17.859375 C12.046875,17.921875 12.390625,18.125 12.53125,18.28125 L10.78125,19.625 L10.015625,18.765625 L3.546875,18.765625 L2.046875,19.46875 L2.046875,10.078125 L2.28125,10.078125 C2.828125,10.078125 3.4375,10.390625 3.4375,10.515625 L3.4375,11.375 L6.03125,11.375 L6.03125,8.953125 L1.6875,8.953125 L1.875,8.25 L6.03125,8.25 L6.03125,6 C3.84375,5.78125 2.046875,5.640625 0.953125,5.59375 Z M3.4375,12.078125 L3.4375,18.078125 L6.125,18.078125 L6.125,12.078125 Z" transform="translate(0.1015625, 19.921875) scale(1, -1)"/>
</svg>