<svg height="22.796875" viewBox="0 0 24 22.796875" width="24" xmlns="http://www.w3.org/2000/svg">
<path d="M7.265625,9.90625 L7.015625,9.71875 C7.53125,9.21875 8.09375,8.375 8.15625,7.625 C9.265625,6.765625 10.46875,8.96875 7.265625,9.90625 Z M4.875,1.96875 C4.609375,0.765625 3.234375,-0.03125 2.1875,-0.234375 C1.6875,-0.453125 1.296875,-0.859375 1.46875,-1.375 C1.65625,-1.9375 2.46875,-2.015625 3.140625,-1.75 C4.21875,-1.34375 5.546875,-0.1875 5.28125,1.9375 Z M8.375,1.796875 L8.0625,1.703125 C8.453125,0.9375 8.8125,-0.3125 8.734375,-1.296875 C9.9375,-2.5625 11.765625,-0.125 8.375,1.796875 Z M12.90625,1.828125 L12.640625,1.65625 C13.34375,0.890625 14.203125,-0.4375 14.40625,-1.4375 C15.859375,-2.515625 17.140625,0.4375 12.90625,1.828125 Z M17.6875,1.984375 L17.46875,1.75 C18.8125,0.953125 20.5625,-0.546875 21.21875,-1.78125 C23.046875,-2.546875 23.5625,1.0625 17.6875,1.984375 Z M3.234375,18.28125 C3.3125,16.921875 2.5625,15.546875 1.78125,15.046875 C1.3125,14.734375 1.015625,14.25 1.25,13.78125 C1.484375,13.296875 2.28125,13.375 2.8125,13.75 C3.390625,14.1875 3.90625,15.140625 3.9375,16.46875 L20.25,16.46875 C19.9375,15.640625 19.515625,14.59375 19.203125,13.9375 L19.53125,13.75 C20.296875,14.40625 21.453125,15.453125 22.109375,16.203125 C22.5625,16.21875 22.84375,16.25 23.046875,16.4375 L21.234375,18.1875 L20.234375,17.15625 L15.984375,17.15625 C16.703125,17.6875 17.453125,18.28125 17.953125,18.8125 C18.484375,18.796875 18.765625,18.953125 18.890625,19.25 L16.6875,19.9375 C16.296875,19.109375 15.703125,18 15.171875,17.15625 L12.703125,17.15625 L12.703125,19.34375 C13.265625,19.4375 13.53125,19.6875 13.578125,19.984375 L11.15625,20.234375 L11.15625,17.15625 L8.296875,17.15625 C9,17.59375 8.859375,19.265625 5.953125,19.875 L5.71875,19.6875 C6.390625,19.109375 7.15625,18.078125 7.375,17.234375 L7.515625,17.15625 L3.890625,17.15625 C3.859375,17.515625 3.796875,17.875 3.671875,18.28125 Z M18.40625,6.625 L18.40625,6.03125 L18.640625,6.03125 C18.796875,6.03125 18.9375,6.046875 19.078125,6.09375 L18.3125,5.25 L12.703125,5.25 L12.703125,6.625 Z M15.40625,9.90625 C15.09375,9.125 14.609375,8.0625 14.234375,7.3125 L12.703125,7.3125 L12.703125,10.0625 L18.40625,10.0625 L18.40625,7.3125 L14.90625,7.3125 C15.484375,7.828125 16.0625,8.40625 16.484375,8.875 C16.96875,8.859375 17.28125,9.046875 17.40625,9.34375 Z M1.015625,3.125 L1.21875,2.421875 L22.3125,2.421875 C22.65625,2.421875 22.890625,2.546875 22.96875,2.8125 C22.171875,3.453125 21.046875,4.296875 21.046875,4.296875 L19.984375,3.125 L12.703125,3.125 L12.703125,4.53125 L20.5,4.53125 C20.828125,4.53125 21.046875,4.65625 21.125,4.921875 C20.515625,5.421875 19.703125,6 19.4375,6.21875 C19.703125,6.3125 19.921875,6.453125 19.9375,6.53125 L19.9375,9.84375 C20.328125,9.90625 20.6875,10.109375 20.828125,10.265625 L19.015625,11.609375 L18.1875,10.75 L5.71875,10.75 L4.0625,11.5 L4.0625,5.6875 L4.265625,5.6875 C4.875,5.6875 5.546875,6.03125 5.546875,6.140625 L5.546875,6.625 L11.15625,6.625 L11.15625,5.25 L3.09375,5.25 L3.3125,4.53125 L11.15625,4.53125 L11.15625,3.125 Z M5.546875,7.3125 L5.546875,10.0625 L11.15625,10.0625 L11.15625,7.3125 Z M6.234375,15.1875 L6.234375,11.234375 L6.453125,11.234375 C7.0625,11.234375 7.734375,11.5625 7.734375,11.6875 L7.734375,12.078125 L16.21875,12.078125 L16.21875,11.328125 L16.4375,11.328125 C16.921875,11.328125 17.71875,11.6875 17.734375,11.828125 L17.734375,14.375 C18.09375,14.421875 18.390625,14.59375 18.5,14.734375 L16.796875,16.03125 L16.03125,15.1875 L7.84375,15.1875 L6.234375,15.90625 Z M16.21875,12.796875 L7.734375,12.796875 L7.734375,14.5 L16.21875,14.5 Z" transform="translate(-0.2890625, 20.234375) scale(1, -1)"/>
</svg>