<svg height="22.015625" viewBox="0 0 24 22.015625" width="24" xmlns="http://www.w3.org/2000/svg">
<path d="M3.578125,5.609375 L3.265625,5.5 C3.75,4.53125 4.296875,3.046875 4.34375,1.921875 C5.609375,0.71875 7.171875,3.34375 3.578125,5.609375 Z M5.5625,20.09375 L5.5625,17.234375 L1.015625,17.234375 L1.203125,16.53125 L5.5625,16.53125 L5.5625,13.921875 L1.46875,13.921875 L1.65625,13.21875 L11.28125,13.21875 C11.609375,13.21875 11.859375,13.34375 11.921875,13.609375 C11.1875,14.296875 10.0625,15.234375 10.0625,15.234375 L9.03125,13.921875 L7.125,13.921875 L7.125,16.53125 L11.6875,16.53125 C12.03125,16.53125 12.21875,16.65625 12.28125,16.890625 C11.546875,17.609375 10.375,18.578125 10.375,18.578125 L9.28125,17.234375 L7.125,17.234375 L7.125,19.25 C7.65625,19.34375 7.84375,19.5625 7.890625,19.875 Z M2.375,11.25 L2.375,5.5625 L2.609375,5.5625 C3.21875,5.5625 3.890625,5.90625 3.890625,6.03125 L3.890625,6.8125 L9.09375,6.8125 L9.09375,5.78125 L9.34375,5.78125 C9.84375,5.78125 10.609375,6.125 10.609375,6.28125 L10.609375,10.296875 C11.0625,10.390625 11.453125,10.5625 11.59375,10.75 L9.71875,12.140625 L8.859375,11.25 L4.015625,11.25 L2.375,11.96875 Z M9.09375,7.515625 L3.890625,7.515625 L3.890625,10.5625 L9.09375,10.5625 Z M1.0625,0.453125 L2.0625,-1.625 C2.28125,-1.5625 2.5,-1.375 2.609375,-1.078125 C6.90625,0.28125 10.0625,1.390625 12.3125,2.203125 L12.234375,2.609375 L7.703125,1.6875 C8.421875,2.6875 9.09375,3.84375 9.546875,4.703125 C10.0625,4.6875 10.34375,4.890625 10.4375,5.1875 L8.09375,5.828125 C7.875,4.5625 7.4375,2.828125 7.0625,1.53125 C4.4375,1.03125 2.25,0.625 1.0625,0.453125 Z M16.015625,20.09375 L16.015625,15.5 L11.234375,15.5 L11.421875,14.828125 L16.015625,14.828125 L16.015625,10.515625 L11.734375,10.515625 L11.953125,9.796875 L13.421875,9.796875 C13.9375,7.15625 14.78125,4.9375 15.953125,3.125 C14.09375,1.15625 11.59375,-0.40625 8.359375,-1.515625 L8.546875,-1.890625 C12.046875,-1.015625 14.6875,0.359375 16.6875,2.109375 C18.03125,0.40625 19.734375,-0.90625 21.8125,-1.921875 C22.109375,-1.15625 22.65625,-0.703125 23.359375,-0.625 L23.421875,-0.390625 C21.1875,0.390625 19.25,1.53125 17.6875,3.09375 C19.421875,4.921875 20.59375,7.078125 21.453125,9.546875 C21.984375,9.59375 22.25,9.671875 22.4375,9.859375 L20.65625,11.5 L19.609375,10.515625 L17.546875,10.515625 L17.546875,14.828125 L22.46875,14.828125 C22.796875,14.828125 23.046875,14.953125 23.109375,15.1875 C22.3125,15.90625 21.078125,16.9375 21.078125,16.9375 L19.96875,15.5 L17.546875,15.5 L17.546875,19.25 C18.09375,19.34375 18.28125,19.53125 18.34375,19.875 Z M16.78125,4.078125 C15.484375,5.640625 14.515625,7.5625 13.890625,9.796875 L19.6875,9.796875 C19.0625,7.65625 18.09375,5.734375 16.78125,4.078125 Z" transform="translate(-0.21875, 20.09375) scale(1, -1)"/>
</svg>