<svg height="21.984375" viewBox="0 0 24 21.984375" width="24" xmlns="http://www.w3.org/2000/svg">
<path d="M14.015625,3.984375 L13.734375,3.8125 C14.640625,2.859375 15.640625,1.21875 15.75,-0.046875 C17.1875,-1.25 18.546875,1.96875 14.015625,3.984375 Z M8.375,4.203125 C7.796875,2.359375 6.859375,0.71875 5.859375,-0.34375 L6.1875,-0.625 C7.484375,0.171875 8.734375,1.4375 9.59375,3 C10.078125,2.953125 10.375,3.140625 10.46875,3.390625 Z M11.234375,14.15625 L11.234375,9.03125 L11.5,9.03125 C12.03125,9.03125 12.640625,9.34375 12.640625,9.5 L12.640625,13.390625 C13.109375,13.46875 13.265625,13.65625 13.3125,13.921875 L12.859375,13.96875 C13.625,14.65625 14.40625,15.484375 14.90625,16.171875 C15.390625,16.109375 15.703125,16.296875 15.8125,16.578125 L14.046875,17.203125 L22.109375,17.203125 C22.4375,17.203125 22.65625,17.328125 22.734375,17.59375 C21.90625,18.359375 20.59375,19.390625 20.59375,19.390625 L19.4375,17.921875 L12.71875,17.921875 L12.71875,19.25 C13.3125,19.3125 13.5625,19.5625 13.609375,19.890625 L11.15625,20.140625 L11.15625,17.921875 L1.25,17.921875 L1.46875,17.203125 L9.125,17.203125 L8.875,17.046875 C9.53125,16.390625 10.296875,15.234375 10.484375,14.359375 C11.734375,13.4375 12.8125,15.90625 9.21875,17.203125 L13.75,17.203125 C13.375,16.21875 12.765625,14.96875 12.1875,14.046875 Z M18.09375,7.3125 L18.09375,5.6875 L6.265625,5.6875 L6.265625,5.734375 L6.265625,7.3125 Z M4.734375,9.234375 L4.734375,5.765625 C4.734375,3.3125 4.265625,0.4375 1.6875,-1.5625 L1.984375,-1.84375 C5.234375,-0.140625 6.078125,2.59375 6.234375,4.984375 L11.203125,4.984375 L11.203125,-1.703125 L11.421875,-1.703125 C12.171875,-1.703125 12.640625,-1.296875 12.671875,-1.171875 L12.671875,4.984375 L18.09375,4.984375 L18.09375,-1.84375 L18.40625,-1.84375 C18.984375,-1.84375 19.65625,-1.484375 19.65625,-1.3125 L19.65625,8.453125 C20.109375,8.546875 20.296875,8.734375 20.359375,9 L18.09375,9.234375 L18.09375,8.015625 L6.265625,8.015625 L6.265625,8.40625 C6.8125,8.46875 7.015625,8.6875 7.0625,9 Z M1.796875,15.1875 L2.015625,14.46875 L4.296875,14.46875 C4.0625,12.625 3.390625,10.734375 0.90625,9.171875 L1.25,8.828125 C4.65625,10.296875 5.421875,12.234375 5.734375,14.46875 L7.828125,14.46875 C7.78125,12.34375 7.65625,11.421875 7.4375,11.203125 C7.3125,11.09375 7.171875,11.046875 6.90625,11.046875 C6.578125,11.046875 5.8125,11.109375 5.296875,11.140625 L5.28125,10.734375 C5.71875,10.65625 6.171875,10.53125 6.390625,10.375 C6.59375,10.15625 6.640625,9.765625 6.640625,9.4375 C7.265625,9.4375 7.84375,9.578125 8.25,9.90625 C8.875,10.421875 9.078125,11.515625 9.140625,14.359375 C9.59375,14.40625 9.859375,14.5 10.03125,14.6875 L8.375,15.984375 L7.609375,15.1875 Z M13.796875,10.9375 L14.640625,9.28125 C14.875,9.359375 15.046875,9.5 15.171875,9.8125 C17.09375,10.46875 18.53125,11.015625 19.484375,11.375 L19.4375,11.765625 L16.4375,11.296875 L16.4375,14.109375 C17.109375,14.203125 17.8125,14.296875 18.484375,14.421875 C19.015625,12.078125 20.109375,10.265625 21.859375,9.046875 C22.0625,9.75 22.46875,10.171875 23.046875,10.265625 L23.0625,10.53125 C21.234375,11.25 19.703125,12.671875 18.953125,14.515625 C19.734375,14.6875 20.40625,14.859375 20.953125,15.03125 C21.4375,14.828125 21.796875,14.828125 22.015625,15.03125 L20.421875,16.421875 C19.65625,15.9375 18.34375,15.359375 16.984375,14.90625 L15.078125,15.390625 L15.078125,11.09375 Z" transform="translate(0.015625, 20.140625) scale(1, -1)"/>
</svg>