<svg height="22.078125" viewBox="0 0 24 22.078125" width="24" xmlns="http://www.w3.org/2000/svg">
<path d="M4.265625,11.765625 L3.953125,11.609375 C4.296875,10.96875 4.65625,9.890625 4.625,9.03125 C5.46875,8.140625 6.640625,9.953125 4.265625,11.765625 Z M13.84375,12.046875 L14.046875,11.375 L20.15625,11.375 C20.5,11.375 20.71875,11.5 20.765625,11.765625 C20.09375,12.40625 19.015625,13.296875 19.015625,13.296875 L18.046875,12.046875 Z M8.78125,11.875 C8.609375,11.15625 8.1875,9.8125 7.828125,8.96875 L8.109375,8.828125 C8.734375,9.5 9.3125,10.265625 9.703125,10.78125 C10.125,10.703125 10.421875,10.9375 10.46875,11.140625 Z M2.953125,18.640625 L2.953125,14.109375 L0.9375,14.109375 L1.125,13.4375 L12.765625,13.4375 C13.109375,13.4375 13.3125,13.53125 13.390625,13.796875 C12.640625,14.5 11.46875,15.4375 11.46875,15.4375 L10.421875,14.109375 L7.9375,14.109375 L7.9375,16.5625 L12.078125,16.5625 C12.390625,16.5625 12.625,16.65625 12.671875,16.921875 C11.96875,17.609375 10.84375,18.5 10.84375,18.5 L9.859375,17.25 L7.9375,17.25 L7.9375,19.265625 C8.46875,19.375 8.6875,19.578125 8.734375,19.890625 L6.453125,20.109375 L6.453125,14.109375 L4.34375,14.109375 L4.34375,17.828125 C4.875,17.90625 5.09375,18.125 5.140625,18.40625 Z M17.859375,19.0625 C18.546875,15.8125 20.140625,13.03125 22.109375,11.15625 C22.25,11.78125 22.703125,12.28125 23.296875,12.4375 L23.359375,12.71875 C21.21875,14.15625 19.171875,16.5625 18.21875,19.34375 C18.703125,19.390625 18.90625,19.484375 18.984375,19.734375 L16.4375,20.28125 C15.984375,17.453125 13.921875,13.5625 11.90625,11.375 L11.90625,12 C12.28125,12.078125 12.4375,12.234375 12.453125,12.5 L10.484375,12.71875 L10.484375,1.03125 L3.3125,1.03125 L3.3125,12 C3.765625,12.078125 3.953125,12.265625 4.015625,12.546875 L1.9375,12.796875 L1.9375,-1.625 L2.203125,-1.625 C2.71875,-1.625 3.3125,-1.296875 3.3125,-1.078125 L3.3125,0.34375 L10.484375,0.34375 L10.484375,-1.125 L10.75,-1.125 C11.296875,-1.125 11.90625,-0.796875 11.90625,-0.59375 L11.90625,10.796875 C14.453125,12.640625 16.796875,15.71875 17.859375,19.0625 Z M6.265625,12.59375 L6.265625,8.1875 L3.671875,8.1875 L3.859375,7.46875 L5.859375,7.46875 C5.296875,5.921875 4.46875,4.46875 3.40625,3.234375 L3.71875,2.859375 C4.734375,3.671875 5.5625,4.65625 6.265625,5.734375 L6.265625,1.53125 L6.5,1.53125 C6.9375,1.53125 7.421875,1.828125 7.421875,1.984375 L7.421875,6.4375 C8.046875,5.71875 8.6875,4.703125 8.859375,3.9375 C10.015625,3.09375 10.96875,5.40625 7.421875,6.953125 L7.421875,7.46875 L9.84375,7.46875 C10.171875,7.46875 10.390625,7.578125 10.4375,7.84375 C9.890625,8.40625 9.046875,9 9.046875,9 L8.296875,8.1875 L7.421875,8.1875 L7.421875,11.828125 C7.875,11.90625 8.0625,12.09375 8.109375,12.390625 Z M12.640625,8.71875 L12.859375,8.015625 L15.390625,8.015625 L15.390625,-1.796875 L15.625,-1.796875 C16.390625,-1.796875 16.890625,-1.46875 16.890625,-1.34375 L16.890625,8.015625 L20.203125,8.015625 L20.203125,2.375 C20.203125,2.0625 20.109375,1.921875 19.75,1.921875 C19.34375,1.921875 17.65625,2.0625 17.65625,2.0625 L17.65625,1.703125 C18.4375,1.5625 18.90625,1.421875 19.171875,1.203125 C19.4375,0.984375 19.515625,0.625 19.5625,0.21875 C21.453125,0.40625 21.671875,1.0625 21.671875,2.203125 L21.671875,7.796875 C22.078125,7.875 22.421875,8.0625 22.5625,8.234375 L20.71875,9.578125 L19.984375,8.71875 Z" transform="translate(-0.1484375, 20.28125) scale(1, -1)"/>
</svg>