<svg height="21.984375" viewBox="0 0 24 21.984375" width="24" xmlns="http://www.w3.org/2000/svg">
<path d="M3.71875,16.609375 L3.40625,16.46875 C3.890625,15.59375 4.390625,14.25 4.34375,13.21875 C5.59375,12 7.15625,14.609375 3.71875,16.609375 Z M5.65625,20.046875 L5.65625,17.421875 L1.265625,17.421875 L1.46875,16.734375 L8.5,16.734375 C8.1875,15.53125 7.703125,13.890625 7.296875,12.71875 L0.984375,12.71875 L1.171875,12.03125 L12.125,12.03125 C12.453125,12.03125 12.671875,12.140625 12.75,12.40625 C12,13.109375 10.828125,14.0625 10.828125,14.0625 L9.796875,12.71875 L7.875,12.71875 C8.59375,13.65625 9.359375,14.828125 9.859375,15.671875 C10.375,15.640625 10.65625,15.84375 10.75,16.125 L8.65625,16.734375 L11.828125,16.734375 C12.140625,16.734375 12.359375,16.828125 12.4375,17.09375 C11.6875,17.8125 10.484375,18.75 10.484375,18.75 L9.453125,17.421875 L7.203125,17.421875 L7.203125,19.203125 C7.734375,19.296875 7.921875,19.515625 7.96875,19.828125 Z M13.171875,11.140625 L13.171875,0.125 C13.171875,-1.171875 13.609375,-1.578125 15.578125,-1.578125 L18.34375,-1.578125 C22.34375,-1.578125 23.140625,-1.3125 23.140625,-0.578125 C23.140625,-0.28125 22.984375,-0.125 22.4375,0.078125 L22.34375,2.046875 L22.0625,2.046875 C21.8125,1.15625 21.578125,0.34375 21.390625,0.09375 C21.28125,-0.078125 21.125,-0.125 20.875,-0.125 C20.5,-0.140625 19.578125,-0.171875 18.40625,-0.171875 L15.84375,-0.171875 C14.8125,-0.171875 14.6875,-0.03125 14.6875,0.453125 L14.6875,2.375 L21.59375,2.375 C21.90625,2.375 22.15625,2.5 22.203125,2.734375 C21.53125,3.390625 20.421875,4.171875 20.421875,4.171875 L19.46875,3.078125 L14.6875,3.078125 L14.6875,5.046875 L21.09375,5.046875 C21.4375,5.046875 21.625,5.15625 21.703125,5.421875 C21.03125,6.03125 19.9375,6.8125 19.9375,6.8125 L19.03125,5.765625 L14.6875,5.765625 L14.6875,7.6875 L21.234375,7.6875 C21.578125,7.6875 21.796875,7.796875 21.84375,8.0625 C21.171875,8.6875 20.0625,9.484375 20.0625,9.484375 L19.125,8.40625 L14.6875,8.40625 L14.6875,10.4375 L19.75,10.4375 L19.75,9.890625 L19.984375,9.890625 C20.46875,9.890625 21.234375,10.21875 21.265625,10.375 L21.265625,13.34375 C21.71875,13.4375 22.125,13.625 22.296875,13.828125 L20.359375,15.265625 L19.53125,14.328125 L14.71875,14.328125 L14.71875,16.390625 L22.015625,16.390625 C22.34375,16.390625 22.578125,16.515625 22.65625,16.75 C21.859375,17.5 20.59375,18.484375 20.59375,18.484375 L19.484375,17.0625 L14.71875,17.0625 L14.71875,19.203125 C15.3125,19.296875 15.546875,19.53125 15.578125,19.875 L13.171875,20.109375 L13.171875,12.4375 L13.4375,12.4375 C14.015625,12.4375 14.71875,12.765625 14.71875,12.953125 L14.71875,13.625 L19.75,13.625 L19.75,11.140625 L14.96875,11.140625 L13.171875,11.90625 Z M9.125,6.625 L9.125,4.265625 L4.25,4.265625 L4.25,6.625 Z M9.125,7.3125 L4.25,7.3125 L4.25,9.4375 L9.125,9.4375 Z M2.734375,10.15625 L2.734375,-1.875 L2.96875,-1.875 C3.640625,-1.875 4.25,-1.515625 4.25,-1.3125 L4.25,3.578125 L9.125,3.578125 L9.125,0.28125 C9.125,-0.03125 9.046875,-0.140625 8.6875,-0.140625 C8.25,-0.140625 6.625,-0.03125 6.625,-0.03125 L6.625,-0.390625 C7.421875,-0.484375 7.84375,-0.640625 8.140625,-0.890625 C8.375,-1.078125 8.46875,-1.46875 8.5,-1.875 C10.421875,-1.703125 10.65625,-1.015625 10.65625,0.171875 L10.65625,9.140625 C11.140625,9.21875 11.546875,9.4375 11.6875,9.59375 L9.671875,11.109375 L8.875,10.15625 L4.34375,10.15625 L2.734375,10.890625 Z" transform="translate(-0.0625, 20.109375) scale(1, -1)"/>
</svg>