<svg height="22" viewBox="0 0 24 22" width="24" xmlns="http://www.w3.org/2000/svg">
<path d="M12.390625,20.109375 C11.40625,18.265625 9.453125,15.984375 7.6875,14.640625 L7.9375,14.359375 C8.421875,14.59375 8.90625,14.875 9.390625,15.1875 L9.390625,11.640625 L9.578125,11.640625 C10.21875,11.640625 10.703125,12 10.703125,12.125 L10.703125,12.265625 L13.390625,12.265625 L13.390625,9.21875 L12.28125,9.21875 L12.28125,10.25 C12.59375,10.3125 12.859375,10.4375 12.984375,10.578125 L11.5625,11.6875 L10.890625,10.984375 L8.40625,10.984375 L8.609375,10.3125 L11.0625,10.3125 L11.0625,9.21875 L7.75,9.21875 C7.375,9.8125 6.703125,10.46875 5.59375,11.0625 L5.59375,12.578125 L8.1875,12.578125 C8.515625,12.578125 8.734375,12.703125 8.8125,12.953125 C8.109375,13.625 7.03125,14.546875 7.03125,14.546875 L6.046875,13.265625 L5.59375,13.265625 L5.59375,17.90625 L7.34375,18.40625 C7.921875,18.21875 8.328125,18.234375 8.546875,18.453125 L6.625,20.015625 C5.359375,19.203125 2.8125,17.953125 0.8125,17.28125 L0.9375,16.890625 C1.96875,17.046875 3.078125,17.28125 4.125,17.515625 L4.125,13.265625 L0.953125,13.265625 L1.15625,12.578125 L3.765625,12.578125 C3.171875,9.265625 2.109375,5.90625 0.453125,3.34375 L0.8125,3 C2.203125,4.578125 3.28125,6.390625 4.125,8.359375 L4.125,-1.890625 L4.375,-1.890625 C5.0625,-1.890625 5.59375,-1.53125 5.59375,-1.390625 L5.59375,10.4375 C6.171875,9.546875 6.75,8.375 6.859375,7.4375 C7.609375,6.796875 8.375,7.4375 8.046875,8.546875 L11.0625,8.546875 L11.0625,7.390625 L8.40625,7.390625 L8.609375,6.703125 L11.0625,6.703125 L11.0625,6.390625 L11.234375,6.390625 C11.65625,6.390625 12.265625,6.703125 12.28125,6.84375 L12.28125,8.546875 L13.390625,8.546875 L13.390625,3.390625 L12.265625,3.390625 L12.265625,4.5625 C12.578125,4.609375 12.84375,4.75 12.953125,4.890625 L11.515625,6 L10.828125,5.328125 L8.25,5.328125 L8.46875,4.609375 L10.984375,4.609375 L10.984375,3.390625 L7.46875,3.390625 L7.6875,2.6875 L10.984375,2.6875 L10.984375,1.390625 L8.25,1.390625 L8.46875,0.703125 L10.984375,0.703125 L10.984375,-0.09375 L11.1875,-0.09375 C11.609375,-0.09375 12.234375,0.21875 12.265625,0.359375 L12.265625,2.6875 L13.390625,2.6875 L13.390625,0.1875 C13.390625,-1.109375 13.890625,-1.53125 15.84375,-1.53125 L18.53125,-1.5625 C22.484375,-1.5625 23.328125,-1.34375 23.328125,-0.640625 C23.328125,-0.359375 23.140625,-0.21875 22.609375,-0.046875 L22.515625,1.34375 L22.21875,1.34375 C22.015625,0.71875 21.765625,0.078125 21.59375,-0.078125 C21.484375,-0.171875 21.328125,-0.1875 21.09375,-0.21875 C20.734375,-0.265625 19.796875,-0.265625 18.59375,-0.265625 L16.015625,-0.265625 C14.90625,-0.265625 14.734375,-0.078125 14.734375,0.5 L14.734375,15.171875 L16.203125,15.171875 L16.203125,0.5 L16.421875,0.5 C17.09375,0.5 17.546875,0.859375 17.546875,0.953125 L17.546875,2.28125 L21.078125,2.28125 L21.078125,1.484375 L21.265625,1.484375 C21.671875,1.484375 22.3125,1.84375 22.34375,2.015625 L22.34375,9.625 C22.796875,9.71875 23.15625,9.890625 23.296875,10.0625 L21.59375,11.375 L20.828125,10.53125 L17.546875,10.53125 L17.546875,12.265625 L20.375,12.265625 L20.375,11.78125 L20.5625,11.78125 C21.03125,11.78125 21.703125,12.078125 21.71875,12.21875 L21.71875,14.921875 C22.15625,15 22.5625,15.171875 22.734375,15.359375 L20.921875,16.703125 L20.140625,15.859375 L15.703125,15.859375 C16.34375,16.3125 17.046875,16.890625 17.5,17.28125 C17.953125,17.296875 18.234375,17.328125 18.40625,17.5 L16.796875,19.015625 L15.9375,18.140625 L12.859375,18.140625 L13.75,19.15625 C14.296875,19.0625 14.5,19.125 14.609375,19.390625 Z M10.703125,12.984375 L10.703125,15.171875 L13.390625,15.171875 L13.390625,12.984375 Z M10.5625,16.03125 C11.109375,16.484375 11.65625,16.9375 12.140625,17.421875 L15.859375,17.421875 C15.59375,16.921875 15.28125,16.34375 15.03125,15.859375 L10.96875,15.859375 Z M20.375,12.984375 L17.546875,12.984375 L17.546875,15.171875 L20.375,15.171875 Z M17.875,8.40625 L17.5625,8.203125 C17.953125,7.734375 18.4375,7.125 18.859375,6.453125 C18.484375,5.46875 18.03125,4.578125 17.546875,3.90625 L17.921875,3.640625 C18.453125,4.203125 18.9375,4.890625 19.375,5.65625 C19.65625,5.15625 19.875,4.65625 19.984375,4.21875 C20.78125,3.625 21.40625,4.796875 19.84375,6.640625 C20.09375,7.15625 20.296875,7.703125 20.46875,8.25 C20.765625,8.25 20.953125,8.328125 21.078125,8.453125 L21.078125,2.953125 L17.546875,2.953125 L17.546875,9.84375 L21.078125,9.84375 L21.078125,8.78125 L19.6875,9.171875 C19.53125,8.546875 19.375,7.9375 19.171875,7.34375 C18.8125,7.6875 18.390625,8.046875 17.875,8.40625 Z" transform="translate(0.109375, 20.109375) scale(1, -1)"/>
</svg>