<svg height="21.25" viewBox="0 0 24 21.25" width="24" xmlns="http://www.w3.org/2000/svg">
<path d="M11.203125,12.484375 L11.203125,9 L5.734375,9 L5.734375,12.484375 Z M12.796875,12.484375 L18.484375,12.484375 L18.484375,9 L12.796875,9 Z M10.171875,19.390625 L7.796875,20.140625 C6.34375,17.09375 3.453125,13.296875 0.796875,11.140625 L1.109375,10.828125 C2.140625,11.46875 3.171875,12.28125 4.171875,13.171875 L4.171875,2.46875 L4.4375,2.46875 C5.109375,2.46875 5.734375,2.828125 5.734375,3 L5.734375,3.984375 L11.203125,3.984375 L11.203125,0.765625 C11.203125,-0.703125 11.8125,-1.109375 14.046875,-1.109375 L17.359375,-1.109375 C22.109375,-1.109375 22.984375,-0.859375 22.984375,-0.09375 C22.984375,0.265625 22.828125,0.4375 22.21875,0.625 L22.15625,3.890625 L21.859375,3.890625 C21.53125,2.40625 21.234375,1.125 21.03125,0.71875 C20.875,0.5 20.765625,0.4375 20.421875,0.40625 C19.96875,0.359375 18.859375,0.34375 17.421875,0.34375 L14.234375,0.34375 C12.984375,0.34375 12.796875,0.53125 12.796875,1.0625 L12.796875,3.984375 L18.484375,3.984375 L18.484375,2.8125 L18.71875,2.8125 C19.25,2.8125 20.015625,3.1875 20.046875,3.34375 L20.046875,12.28125 C20.46875,12.359375 20.828125,12.53125 20.953125,12.703125 L19.109375,14.140625 L18.265625,13.203125 L12.765625,13.203125 C13.96875,14.203125 15.34375,15.578125 16.203125,16.421875 C16.703125,16.421875 16.984375,16.484375 17.1875,16.625 L15.484375,18.265625 L14.46875,17.296875 L7.96875,17.296875 C8.453125,17.921875 8.90625,18.546875 9.265625,19.125 C9.859375,19.078125 10.078125,19.171875 10.171875,19.390625 Z M5.734375,4.6875 L5.734375,8.296875 L11.203125,8.296875 L11.203125,4.6875 Z M4.75,13.734375 C5.71875,14.640625 6.59375,15.625 7.421875,16.578125 L14.328125,16.578125 C13.734375,15.578125 12.84375,14.203125 12.09375,13.203125 L5.875,13.203125 Z M12.796875,4.6875 L12.796875,8.296875 L18.484375,8.296875 L18.484375,4.6875 Z" transform="translate(0.109375, 20.140625) scale(1, -1)"/>
</svg>