<svg height="22.15625" viewBox="0 0 24 22.15625" width="24" xmlns="http://www.w3.org/2000/svg">
<path d="M14.5,15.90625 L13.46875,14.71875 L7.203125,14.71875 L7.390625,14.015625 L15.8125,14.015625 C16.109375,14.015625 16.34375,14.140625 16.421875,14.40625 C15.671875,15.078125 14.5,15.90625 14.5,15.90625 Z M4.75,8.15625 L4.75,8.5625 L7.03125,8.5625 L7.03125,7.96875 L7.25,7.96875 C7.6875,7.96875 8.375,8.28125 8.40625,8.421875 L8.40625,11.46875 C8.734375,11.5 9.046875,11.6875 9.171875,11.828125 L7.578125,13.0625 L6.84375,12.28125 L4.84375,12.28125 L3.5,12.9375 C7.078125,14.5 10.625,16.828125 12.578125,18.84375 C14.46875,16.34375 18.140625,14.0625 21.890625,12.75 C22.015625,13.390625 22.609375,14.015625 23.375,14.1875 L23.40625,14.546875 C19.484375,15.53125 15.3125,17.109375 13.015625,19.109375 C13.625,19.15625 13.921875,19.265625 14.015625,19.5625 L11.046875,20.1875 C9.703125,17.6875 4.796875,14.015625 0.84375,12.3125 L1.015625,11.953125 C1.796875,12.21875 2.609375,12.53125 3.4375,12.890625 L3.4375,7.734375 L3.625,7.734375 C4.171875,7.734375 4.75,8.046875 4.75,8.15625 Z M19.296875,11.5625 L19.296875,9.265625 L17.09375,9.265625 L17.09375,11.5625 Z M17.09375,8.15625 L17.09375,8.5625 L19.296875,8.5625 L19.296875,7.890625 L19.515625,7.890625 C19.9375,7.890625 20.640625,8.234375 20.65625,8.359375 L20.65625,11.453125 C21.03125,11.5 21.359375,11.65625 21.484375,11.8125 L19.84375,13.078125 L19.109375,12.28125 L17.15625,12.28125 L15.75,12.9375 L15.75,7.75 L15.953125,7.75 C16.484375,7.75 17.09375,8.0625 17.09375,8.15625 Z M13.203125,11.5625 L13.203125,9.265625 L10.921875,9.265625 L10.921875,11.5625 Z M10.921875,8.25 L10.921875,8.5625 L13.203125,8.5625 L13.203125,7.96875 L13.421875,7.96875 C13.875,7.96875 14.546875,8.28125 14.5625,8.421875 L14.5625,11.46875 C14.921875,11.5 15.234375,11.6875 15.359375,11.828125 L13.75,13.0625 L13.015625,12.28125 L11.015625,12.28125 L9.578125,12.953125 L9.578125,7.828125 L9.796875,7.828125 C10.34375,7.828125 10.921875,8.140625 10.921875,8.25 Z M7.03125,11.5625 L7.03125,9.265625 L4.75,9.265625 L4.75,11.5625 Z M5.421875,-1.421875 L5.421875,2.640625 L8.875,2.640625 L8.875,-1.265625 L9.125,-1.265625 C9.890625,-1.265625 10.375,-0.9375 10.375,-0.84375 L10.375,2.640625 L13.734375,2.640625 L13.734375,-1.125 L13.96875,-1.125 C14.734375,-1.125 15.21875,-0.8125 15.21875,-0.71875 L15.21875,2.640625 L18.59375,2.640625 L18.59375,0.265625 C18.59375,-0.046875 18.5,-0.171875 18.171875,-0.171875 C17.765625,-0.171875 16.265625,-0.046875 16.265625,-0.046875 L16.265625,-0.40625 C17.015625,-0.5 17.421875,-0.703125 17.6875,-0.90625 C17.921875,-1.15625 17.96875,-1.53125 18.03125,-1.96875 C19.875,-1.78125 20.109375,-1.078125 20.109375,0.125 L20.109375,5.71875 C20.59375,5.78125 21,6 21.140625,6.171875 L19.15625,7.6875 L18.359375,6.71875 L5.59375,6.71875 L3.90625,7.484375 L3.90625,-1.921875 L4.171875,-1.921875 C4.796875,-1.921875 5.421875,-1.5625 5.421875,-1.421875 Z M18.59375,6 L18.59375,3.359375 L15.21875,3.359375 L15.21875,6 Z M13.734375,6 L13.734375,3.359375 L10.375,3.359375 L10.375,6 Z M8.875,6 L8.875,3.359375 L5.421875,3.359375 L5.421875,6 Z" transform="translate(-0.125, 20.1875) scale(1, -1)"/>
</svg>