<svg height="22" viewBox="0 0 24 22" width="24" xmlns="http://www.w3.org/2000/svg">
<path d="M9.75,7.625 L8.234375,5.515625 C7.5625,5.921875 6.75,6.3125 5.78125,6.703125 L5.546875,6.484375 C6.453125,5.765625 7.53125,4.75 8.453125,3.71875 L4.125,2.421875 L4.125,8.875 L9.59375,8.875 L9.59375,7.796875 L9.84375,7.796875 C10.34375,7.796875 11.109375,8.15625 11.140625,8.296875 L11.140625,15.703125 C11.609375,15.796875 12,15.984375 12.171875,16.171875 L10.21875,17.65625 L9.359375,16.6875 L7.15625,16.6875 C7.296875,17.453125 7.515625,18.453125 7.625,19.25 C8.140625,19.296875 8.40625,19.53125 8.46875,19.890625 L6.046875,20.109375 L5.859375,16.6875 L4.265625,16.6875 L2.609375,17.46875 L2.609375,1.984375 L0.90625,1.5625 L2.1875,-0.453125 C2.421875,-0.359375 2.59375,-0.171875 2.65625,0.140625 C5.328125,1.421875 7.3125,2.5 8.8125,3.3125 C9.390625,2.609375 9.859375,1.9375 10.125,1.3125 C11.5625,0.5 12.3125,2.8125 8.859375,5.140625 C9.546875,5.546875 10.3125,5.96875 10.78125,6.28125 C11.28125,6.171875 11.46875,6.265625 11.59375,6.453125 Z M9.59375,12.4375 L9.59375,9.578125 L4.125,9.578125 L4.125,12.4375 Z M9.59375,13.15625 L4.125,13.15625 L4.125,16.015625 L9.59375,16.015625 Z M20.234375,17.359375 L20.234375,12.796875 L15.09375,12.796875 L15.09375,17.359375 Z M13.578125,18.046875 L13.578125,9.9375 C13.578125,5.328125 12.953125,1.390625 9.3125,-1.609375 L9.625,-1.890625 C13.3125,0.28125 14.546875,3.40625 14.921875,6.75 L20.234375,6.75 L20.234375,0.640625 C20.234375,0.265625 20.09375,0.125 19.625,0.125 C19.15625,0.125 16.6875,0.3125 16.6875,0.3125 L16.6875,-0.078125 C17.765625,-0.21875 18.359375,-0.40625 18.75,-0.671875 C19.0625,-0.90625 19.203125,-1.34375 19.265625,-1.828125 C21.5,-1.609375 21.75,-0.796875 21.75,0.484375 L21.75,17.046875 C22.21875,17.140625 22.625,17.328125 22.796875,17.546875 L20.78125,19.0625 L19.984375,18.046875 L15.390625,18.046875 L13.578125,18.84375 Z M20.234375,12.078125 L20.234375,7.4375 L15,7.4375 C15.078125,8.28125 15.09375,9.140625 15.09375,9.984375 L15.09375,12.078125 Z" transform="translate(0.1484375, 20.109375) scale(1, -1)"/>
</svg>