<svg height="22.09375" viewBox="0 0 24 22.09375" width="24" xmlns="http://www.w3.org/2000/svg">
<path d="M12.671875,5.0625 L8.5625,5.0625 L8.5625,6.59375 L12.671875,6.59375 Z M14.140625,5.0625 L14.140625,6.59375 L18.390625,6.59375 L18.390625,5.0625 Z M12.671875,8.8125 L12.671875,7.296875 L8.5625,7.296875 L8.5625,8.8125 Z M14.140625,8.8125 L18.390625,8.8125 L18.390625,7.296875 L14.140625,7.296875 Z M5.1875,2.765625 L5.40625,2.0625 L11.59375,2.0625 C10.6875,0.703125 8.734375,-0.484375 4.3125,-1.4375 L4.5625,-1.828125 C10.265625,-0.9375 12.453125,0.34375 13.421875,2.0625 L19.515625,2.0625 C19.3125,0.984375 18.984375,0.1875 18.640625,-0.03125 C18.484375,-0.140625 18.234375,-0.1875 17.859375,-0.1875 C17.328125,-0.1875 15.453125,-0.03125 14.46875,0.046875 L14.453125,-0.359375 C15.40625,-0.484375 16.375,-0.671875 16.6875,-0.890625 C17.0625,-1.125 17.15625,-1.515625 17.15625,-1.890625 C18.078125,-1.890625 18.90625,-1.6875 19.46875,-1.375 C20.234375,-0.859375 20.765625,0.3125 21,1.890625 C21.5,1.9375 21.765625,2.0625 21.9375,2.234375 L20.234375,3.625 L19.421875,2.765625 L13.734375,2.765625 C13.921875,3.265625 14.015625,3.796875 14.109375,4.34375 L18.390625,4.34375 L18.390625,3.671875 L18.625,3.671875 C19.125,3.671875 19.890625,4.03125 19.890625,4.171875 L19.890625,6.59375 L22.625,6.59375 C22.96875,6.59375 23.1875,6.71875 23.234375,6.984375 C22.578125,7.609375 21.546875,8.453125 21.546875,8.453125 L20.609375,7.296875 L19.890625,7.296875 L19.890625,8.65625 C20.234375,8.71875 20.546875,8.859375 20.65625,9.03125 L18.984375,10.296875 L18.1875,9.484375 L8.6875,9.484375 L7.0625,10.21875 L7.0625,7.296875 L4.609375,7.296875 L4.828125,6.59375 L7.0625,6.59375 L7.0625,3.4375 L7.296875,3.4375 C7.890625,3.4375 8.5625,3.796875 8.5625,3.90625 L8.5625,4.34375 L12.359375,4.34375 C12.28125,3.796875 12.171875,3.265625 11.953125,2.765625 Z M5.453125,13.015625 L5.71875,12.3125 L10.265625,12.71875 L10.265625,12.09375 C10.265625,10.921875 10.625,10.625 12.84375,10.625 L16.375,10.625 C21.234375,10.625 21.9375,10.828125 21.9375,11.5 C21.9375,11.78125 21.765625,11.921875 21.21875,12.09375 L21.125,13.515625 L20.859375,13.515625 C20.609375,12.8125 20.375,12.28125 20.1875,12.078125 C20.046875,11.953125 19.890625,11.90625 19.609375,11.875 C19.125,11.859375 17.875,11.859375 16.4375,11.859375 L13.015625,11.859375 C11.859375,11.859375 11.765625,11.90625 11.765625,12.21875 L11.765625,12.859375 L17.65625,13.390625 C17.96875,13.421875 18.234375,13.5625 18.234375,13.828125 C17.5625,14.359375 16.53125,15.03125 16.3125,15.171875 L19.53125,15.171875 C19.21875,14.375 18.796875,13.390625 18.453125,12.796875 L18.796875,12.59375 C19.5625,13.203125 20.609375,14.234375 21.21875,14.953125 C21.671875,14.96875 21.9375,15 22.109375,15.171875 L20.421875,16.796875 L19.53125,15.859375 L12.59375,15.859375 L12.59375,17.296875 L20.359375,17.296875 C20.6875,17.296875 20.921875,17.421875 20.96875,17.6875 C20.1875,18.40625 18.890625,19.390625 18.890625,19.390625 L17.78125,18.03125 L12.59375,18.03125 L12.59375,19.375 C13.15625,19.46875 13.375,19.6875 13.421875,19.96875 L11.046875,20.203125 L11.046875,15.859375 L4.96875,15.859375 L3.140625,16.65625 L3.140625,10.515625 C3.140625,6.546875 3,2.1875 1.03125,-1.375 L1.390625,-1.625 C4.484375,1.875 4.6875,6.859375 4.6875,10.515625 L4.6875,15.171875 L10.265625,15.171875 L10.265625,13.4375 Z M11.765625,15.171875 L16.15625,15.171875 L15.265625,13.875 L11.765625,13.5625 Z" transform="translate(-0.1328125, 20.203125) scale(1, -1)"/>
</svg>