<svg height="22.1875" viewBox="0 0 24 22.1875" width="24" xmlns="http://www.w3.org/2000/svg">
<path d="M5.828125,16.0625 C5.71875,14.78125 4.6875,13.6875 3.796875,13.265625 C3.34375,13.015625 3.046875,12.578125 3.21875,12.140625 C3.453125,11.6875 4.21875,11.734375 4.796875,12.046875 C5.65625,12.546875 6.625,13.890625 6.234375,16.03125 Z M7.9375,16.21875 L7.9375,13.46875 C7.9375,11.921875 8.28125,11.640625 10.171875,11.640625 L14.734375,11.640625 C16.515625,11.640625 17.09375,11.953125 17.09375,12.546875 C17.09375,12.8125 16.984375,12.859375 16.4375,13.109375 L16.390625,14.359375 L16.078125,14.359375 C15.890625,13.65625 15.703125,13.171875 15.578125,13.03125 C15.4375,12.859375 15.1875,12.859375 14.8125,12.859375 L10.25,12.859375 C9.390625,12.859375 9.34375,12.890625 9.34375,13.4375 L9.34375,15.390625 C9.765625,15.453125 10.015625,15.671875 10.0625,15.953125 Z M10.375,16.703125 L10.171875,16.46875 C11.234375,15.890625 12.53125,14.78125 12.953125,13.828125 C14.515625,13.078125 15.171875,16.203125 10.375,16.703125 Z M16.390625,16.015625 L16.171875,15.796875 C17.421875,14.96875 18.90625,13.4375 19.3125,12.140625 C21.046875,11.15625 21.890625,14.8125 16.390625,16.015625 Z M1.109375,4.375 L1.3125,3.671875 L11.234375,3.671875 L11.234375,0.34375 C11.234375,0.046875 11.109375,-0.078125 10.6875,-0.078125 C10.125,-0.078125 7.515625,0.09375 7.515625,0.09375 L7.515625,-0.265625 C8.65625,-0.390625 9.34375,-0.578125 9.703125,-0.8125 C10.03125,-1.0625 10.15625,-1.46875 10.21875,-1.890625 C12.453125,-1.703125 12.796875,-0.890625 12.796875,0.3125 L12.796875,3.671875 L22.34375,3.671875 C22.703125,3.671875 22.9375,3.796875 22.984375,4.0625 C22.203125,4.75 20.953125,5.734375 20.953125,5.734375 L19.84375,4.375 Z M4.15625,10.25 L4.15625,5.203125 L4.375,5.203125 C4.984375,5.203125 5.65625,5.546875 5.65625,5.6875 L5.65625,6.21875 L18.078125,6.21875 L18.078125,5.375 L18.3125,5.375 C18.796875,5.375 19.578125,5.71875 19.609375,5.859375 L19.609375,9.3125 C19.984375,9.390625 20.359375,9.578125 20.5,9.75 L18.671875,11.109375 L17.875,10.25 L5.8125,10.25 L4.15625,10.96875 Z M5.65625,6.9375 L5.65625,9.53125 L8.765625,9.53125 L8.765625,6.9375 Z M18.078125,6.9375 L14.875,6.9375 L14.875,9.53125 L18.078125,9.53125 Z M10.25,6.9375 L10.25,9.53125 L13.421875,9.53125 L13.421875,6.9375 Z M3.53125,19.15625 C3.5,17.765625 2.609375,16.46875 1.734375,15.984375 C1.25,15.703125 0.953125,15.234375 1.15625,14.734375 C1.421875,14.203125 2.25,14.25 2.78125,14.65625 C3.390625,15.078125 3.984375,15.9375 4.109375,17.234375 L20.375,17.234375 C20.140625,16.5625 19.796875,15.765625 19.5625,15.265625 L19.875,15.09375 C20.609375,15.546875 21.625,16.375 22.171875,16.96875 C22.625,16.984375 22.921875,17.0625 23.0625,17.234375 L21.3125,18.9375 L20.359375,17.953125 L12.75,17.953125 L12.75,19.421875 C13.34375,19.484375 13.578125,19.734375 13.625,20.046875 L11.15625,20.296875 L11.15625,17.953125 L4.109375,17.953125 C4.109375,18.34375 4.03125,18.71875 3.9375,19.15625 Z" transform="translate(-0.0078125, 20.296875) scale(1, -1)"/>
</svg>