<svg height="21.984375" viewBox="0 0 24 21.984375" width="24" xmlns="http://www.w3.org/2000/svg">
<path d="M5.375,12.5 L5.375,8.6875 L1.078125,8.6875 L1.265625,7.984375 L4.875,7.984375 C4.03125,5.234375 2.640625,2.640625 0.640625,0.671875 L0.90625,0.3125 C2.8125,1.65625 4.265625,3.265625 5.375,5.109375 L5.375,-1.875 L5.65625,-1.875 C6.21875,-1.875 6.859375,-1.515625 6.859375,-1.296875 L6.859375,6.453125 C7.875,5.5625 9,4.21875 9.34375,3.078125 C10.9375,2.015625 12.03125,5.421875 6.859375,6.859375 L6.859375,7.984375 L10.515625,7.984375 C10.828125,7.984375 11.046875,8.109375 11.109375,8.375 C10.734375,8.765625 10.203125,9.21875 9.796875,9.546875 C9.984375,9.765625 10.078125,10.078125 9.90625,10.421875 C9.546875,11.09375 8.71875,11.5 7.625,11.6875 L7.4375,11.46875 C7.984375,11.046875 8.421875,10.296875 8.59375,9.75 C8.65625,9.59375 8.765625,9.484375 8.875,9.40625 L8.328125,8.6875 L6.859375,8.6875 L6.859375,11.609375 C7.46875,11.71875 7.65625,11.921875 7.703125,12.234375 Z M8.1875,20.109375 C7.75,19.109375 7.125,18 6.359375,16.921875 C5.203125,17.453125 3.765625,17.921875 1.96875,18.3125 L1.75,18.03125 C2.921875,17.515625 4.3125,16.75 5.59375,15.890625 C4.265625,14.234375 2.65625,12.671875 0.9375,11.546875 L1.171875,11.234375 C3.265625,12.21875 5.140625,13.625 6.640625,15.125 C7.6875,14.328125 8.5625,13.484375 9.078125,12.671875 C10.578125,12.140625 10.875,14.28125 7.6875,16.21875 C8.421875,17.09375 9.046875,17.96875 9.546875,18.796875 C10.125,18.71875 10.34375,18.8125 10.484375,19.078125 Z M19.125,8.78125 C18.453125,6.9375 17.46875,5.234375 16.171875,3.75 C14.859375,5.109375 13.875,6.796875 13.21875,8.78125 Z M10.9375,9.484375 L11.15625,8.78125 L12.703125,8.78125 C13.265625,6.4375 14.15625,4.484375 15.359375,2.875 C13.578125,1.078125 11.296875,-0.390625 8.546875,-1.46875 L8.765625,-1.84375 C11.78125,-0.953125 14.203125,0.34375 16.125,1.9375 C17.609375,0.28125 19.515625,-0.9375 21.859375,-1.84375 C22.109375,-1.125 22.625,-0.640625 23.296875,-0.59375 L23.359375,-0.34375 C20.90625,0.34375 18.796875,1.390625 17.109375,2.859375 C18.765625,4.515625 19.984375,6.4375 20.875,8.5625 C21.453125,8.609375 21.703125,8.65625 21.859375,8.875 L20.140625,10.46875 L19.109375,9.484375 Z M12.453125,18.671875 L12.453125,16.6875 C12.453125,14.640625 12.234375,12.34375 10.421875,10.421875 L10.6875,10.109375 C13.65625,11.921875 13.9375,14.765625 13.9375,16.703125 L13.9375,17.96875 L17.515625,17.96875 L17.515625,12.859375 C17.515625,11.875 17.734375,11.515625 19.03125,11.515625 L20.296875,11.515625 C22.484375,11.515625 23.09375,11.8125 23.09375,12.40625 C23.09375,12.71875 22.9375,12.859375 22.515625,13.0625 L22.4375,14.921875 L22.125,14.921875 C21.953125,14.109375 21.75,13.3125 21.59375,13.078125 C21.5,12.9375 21.40625,12.90625 21.28125,12.90625 C21.171875,12.90625 20.8125,12.90625 20.40625,12.90625 L19.4375,12.90625 C19.0625,12.90625 18.984375,12.953125 18.984375,13.21875 L18.984375,17.765625 C19.4375,17.828125 19.703125,17.953125 19.828125,18.125 L18.140625,19.5625 L17.296875,18.671875 L14.234375,18.671875 L12.453125,19.46875 Z" transform="translate(0, 20.109375) scale(1, -1)"/>
</svg>