<svg height="21.953125" viewBox="0 0 24 21.953125" width="24" xmlns="http://www.w3.org/2000/svg">
<path d="M18.671875,7.46875 L18.671875,5.609375 L15.9375,5.609375 L15.9375,7.46875 Z M18.671875,8.15625 L15.9375,8.15625 L15.9375,10.078125 L18.671875,10.078125 Z M17.953125,17.015625 C16.828125,16.375 14.609375,15.40625 12.859375,14.875 L13.015625,14.46875 L14.453125,14.65625 L14.453125,13.125 L11.65625,13.125 L11.65625,14.296875 C12.21875,14.40625 12.40625,14.640625 12.453125,14.953125 L10.796875,15.140625 C11.546875,15.34375 12.21875,15.53125 12.765625,15.71875 C13.265625,15.578125 13.625,15.59375 13.828125,15.796875 L12.1875,17.015625 L22.375,17.015625 C22.703125,17.015625 22.9375,17.140625 22.984375,17.40625 C22.171875,18.171875 20.859375,19.203125 20.859375,19.203125 L19.6875,17.71875 L13.3125,17.71875 L13.3125,19.21875 C13.890625,19.296875 14.140625,19.53125 14.1875,19.875 L11.765625,20.109375 L11.765625,17.71875 L5.046875,17.71875 L3.21875,18.5 L3.21875,11.5625 C3.21875,7.171875 3,2.5 0.8125,-1.265625 L1.15625,-1.515625 C4.53125,2.203125 4.75,7.53125 4.75,11.5625 L4.75,17.015625 L12.125,17.015625 C10.875,16.265625 8.5,15.3125 6.484375,14.8125 L6.625,14.40625 C7.75,14.515625 9,14.734375 10.15625,15 L10.15625,13.125 L5.140625,13.125 L5.359375,12.4375 L10.15625,12.4375 L10.15625,10.78125 L6.265625,10.78125 L6.484375,10.078125 L10.15625,10.078125 L10.15625,8.15625 L5.15625,8.15625 L5.359375,7.46875 L10.15625,7.46875 L10.15625,5.609375 L6.1875,5.609375 L6.40625,4.890625 L9.390625,4.890625 C7.984375,2.8125 5.90625,0.8125 3.546875,-0.625 L3.8125,-1.015625 C6.28125,0.171875 8.515625,1.703125 10.15625,3.578125 L10.15625,-1.828125 L10.46875,-1.828125 C11.015625,-1.828125 11.65625,-1.484375 11.65625,-1.296875 L11.65625,4.890625 L14.453125,4.890625 L14.453125,-1.84375 L14.78125,-1.84375 C15.28125,-1.84375 15.9375,-1.46875 15.9375,-1.265625 L15.9375,4.703125 C17.25,2.109375 19.484375,0.171875 21.84375,-0.9375 C22.03125,-0.234375 22.515625,0.21875 23.109375,0.3125 L23.140625,0.578125 C20.71875,1.296875 18.03125,2.875 16.46875,4.890625 L18.671875,4.890625 L18.671875,4.296875 L18.890625,4.296875 C19.375,4.296875 20.09375,4.625 20.109375,4.78125 L20.109375,7.46875 L22.53125,7.46875 C22.875,7.46875 23.09375,7.578125 23.140625,7.84375 C22.5625,8.515625 21.53125,9.4375 21.53125,9.4375 L20.65625,8.15625 L20.109375,8.15625 L20.109375,9.953125 C20.46875,10.015625 20.78125,10.171875 20.90625,10.3125 L19.25,11.5625 L18.484375,10.78125 L15.9375,10.78125 L15.9375,12.4375 L22.015625,12.4375 C22.34375,12.4375 22.5625,12.546875 22.625,12.8125 C21.859375,13.484375 20.640625,14.359375 20.640625,14.359375 L19.609375,13.125 L15.9375,13.125 L15.9375,14.109375 C16.515625,14.203125 16.703125,14.421875 16.78125,14.765625 L15.59375,14.875 C16.734375,15.09375 17.78125,15.359375 18.546875,15.59375 C19.078125,15.40625 19.46875,15.40625 19.6875,15.625 Z M11.65625,7.46875 L14.453125,7.46875 L14.453125,5.609375 L11.65625,5.609375 Z M11.65625,8.15625 L11.65625,10.078125 L14.453125,10.078125 L14.453125,8.15625 Z M11.65625,12.4375 L14.453125,12.4375 L14.453125,10.78125 L11.65625,10.78125 Z" transform="translate(0.0234375, 20.109375) scale(1, -1)"/>
</svg>