<svg height="22.75" viewBox="0 0 24 22.75" width="24" xmlns="http://www.w3.org/2000/svg">
<path d="M2.09375,19.21875 L1.796875,19.0625 C2.40625,18.3125 3.046875,17.0625 3.078125,16.0625 C4.296875,14.921875 5.765625,17.5625 2.09375,19.21875 Z M17.5625,2.59375 L17.328125,2.375 C18.796875,1.390625 20.71875,-0.359375 21.390625,-1.734375 C23.1875,-2.65625 23.875,1.03125 17.5625,2.59375 Z M9,19.390625 C8.609375,18.171875 8.140625,16.828125 7.75,15.984375 L8.15625,15.765625 C8.859375,16.390625 9.625,17.296875 10.265625,18.125 C10.75,18.09375 11.046875,18.28125 11.140625,18.53125 Z M14.71875,2.640625 C13.65625,1.15625 11.5625,-0.578125 9.71875,-1.625 L9.953125,-1.96875 C12.125,-1.21875 14.609375,0.125 15.890625,1.375 C16.296875,1.25 16.578125,1.296875 16.703125,1.515625 Z M7.921875,8.765625 L7.734375,8.515625 C8.546875,8.15625 9.453125,7.4375 9.890625,6.71875 L8.921875,5.515625 L6.71875,5.515625 C6.796875,6.21875 6.84375,6.90625 6.859375,7.609375 C7.375,7.6875 7.53125,7.921875 7.578125,8.203125 L5.296875,8.421875 C5.28125,7.4375 5.28125,6.453125 5.203125,5.515625 L0.953125,5.515625 L1.15625,4.796875 L5.140625,4.796875 C4.828125,2.375 3.90625,0.21875 1.125,-1.515625 L1.46875,-1.875 C4.484375,-0.453125 5.765625,1.375 6.34375,3.390625 C7.578125,2.5 8.96875,1.125 9.453125,-0.03125 C11.234375,-0.9375 12.03125,2.59375 6.453125,3.859375 L6.640625,4.796875 L11.234375,4.796875 C11.546875,4.796875 11.78125,4.921875 11.859375,5.1875 L10.515625,6.34375 C11.65625,6.359375 11.71875,8.8125 7.921875,8.765625 Z M5.453125,20.09375 L5.453125,15.234375 L1.03125,15.234375 L1.21875,14.5625 L4.734375,14.5625 C3.859375,12.75 2.546875,11.046875 0.84375,9.75 L1.078125,9.34375 C2.859375,10.25 4.3125,11.421875 5.453125,12.8125 L5.453125,8.8125 L5.71875,8.8125 C6.21875,8.8125 6.859375,9.1875 6.859375,9.390625 L6.859375,13.484375 C7.921875,12.703125 9.21875,11.453125 9.671875,10.46875 C11.296875,9.578125 12.140625,12.765625 6.859375,13.890625 L6.859375,14.5625 L11.0625,14.5625 C11.40625,14.5625 11.640625,14.6875 11.71875,14.953125 C11.015625,15.578125 9.953125,16.421875 9.953125,16.421875 L9,15.234375 L6.859375,15.234375 L6.859375,19.25 C7.421875,19.34375 7.578125,19.53125 7.625,19.84375 Z M12.40625,15 L12.40625,2.5 L12.671875,2.5 C13.3125,2.5 13.921875,2.859375 13.921875,3.03125 L13.921875,3.703125 L19.96875,3.703125 L19.96875,2.71875 L20.1875,2.71875 C20.71875,2.71875 21.453125,3.09375 21.484375,3.234375 L21.484375,14.09375 C21.890625,14.15625 22.21875,14.359375 22.375,14.515625 L20.59375,15.890625 L19.75,15 L16.625,15 C17.0625,15.703125 17.546875,16.6875 17.953125,17.5625 L22.53125,17.5625 C22.875,17.5625 23.109375,17.6875 23.15625,17.953125 C22.375,18.671875 21.078125,19.703125 21.078125,19.703125 L19.921875,18.265625 L11.5,18.265625 L11.6875,17.5625 L16.15625,17.5625 C16.109375,16.703125 16.015625,15.703125 15.90625,15 L14.015625,15 L12.40625,15.75 Z M19.96875,10.828125 L19.96875,7.984375 L13.921875,7.984375 L13.921875,10.828125 Z M19.96875,11.515625 L13.921875,11.515625 L13.921875,14.296875 L19.96875,14.296875 Z M19.96875,7.265625 L19.96875,4.390625 L13.921875,4.390625 L13.921875,7.265625 Z" transform="translate(-0.359375, 20.09375) scale(1, -1)"/>
</svg>