<svg height="21.921875" viewBox="0 0 24 21.921875" width="24" xmlns="http://www.w3.org/2000/svg">
<path d="M1.375,18.234375 L1.015625,18.140625 C1.4375,16.828125 1.9375,14.875 1.890625,13.390625 C3.078125,12.078125 4.53125,14.921875 1.375,18.234375 Z M19.46875,10.5625 L19.46875,8.140625 L16.53125,8.140625 L16.53125,10.5625 Z M15.09375,19.984375 L15.09375,17.453125 L11.1875,17.453125 L9.390625,18.265625 L9.390625,17.640625 L7.21875,18.484375 C7.0625,17.234375 6.546875,14.6875 6.09375,13.078125 L6.40625,12.953125 C7.296875,14.328125 8.203125,16.125 8.71875,17.15625 C9.078125,17.140625 9.3125,17.25 9.390625,17.421875 L9.390625,11.78125 C9.390625,7.375 9.078125,2.65625 6.484375,-1.109375 L6.84375,-1.390625 C10.25,1.984375 10.796875,6.765625 10.875,10.6875 L10.890625,10.5625 L15.078125,10.5625 L15.078125,8.140625 L11.59375,8.140625 L11.8125,7.421875 L15.078125,7.421875 L15.078125,5.875 L15.34375,5.875 C15.90625,5.875 16.53125,6.21875 16.53125,6.390625 L16.53125,7.421875 L19.46875,7.421875 L19.46875,6.53125 L19.65625,6.53125 C20.109375,6.53125 20.828125,6.859375 20.859375,7.015625 L20.859375,10.5625 L23.046875,10.5625 C23.359375,10.5625 23.5625,10.6875 23.609375,10.9375 C23.109375,11.609375 22.15625,12.53125 22.15625,12.53125 L21.328125,11.28125 L20.859375,11.28125 L20.859375,13.21875 C21.265625,13.296875 21.625,13.484375 21.75,13.625 L20.015625,14.953125 L19.25,14.109375 L16.53125,14.109375 L16.53125,15.390625 C17.109375,15.484375 17.359375,15.71875 17.40625,16.0625 L15.078125,16.296875 L15.078125,14.109375 L11.6875,14.109375 L11.90625,13.421875 L15.078125,13.421875 L15.078125,11.28125 L10.875,11.28125 L10.875,11.8125 L10.875,16.75 L22.375,16.75 C22.703125,16.75 22.921875,16.875 22.984375,17.140625 C22.21875,17.875 20.96875,18.84375 20.96875,18.84375 L19.890625,17.453125 L16.609375,17.453125 L16.609375,19.125 C17.1875,19.203125 17.421875,19.4375 17.46875,19.78125 Z M19.46875,11.28125 L16.53125,11.28125 L16.53125,13.421875 L19.46875,13.421875 Z M19.65625,4.21875 L19.65625,0.265625 L13.25,0.265625 L13.25,4.21875 Z M11.765625,4.921875 L11.765625,-1.796875 L11.96875,-1.796875 C12.59375,-1.796875 13.25,-1.46875 13.25,-1.3125 L13.25,-0.4375 L19.65625,-0.4375 L19.65625,-1.796875 L19.875,-1.796875 C20.359375,-1.796875 21.125,-1.46875 21.140625,-1.296875 L21.140625,4.03125 C21.546875,4.109375 21.890625,4.265625 22.015625,4.4375 L20.234375,5.78125 L19.4375,4.921875 L13.375,4.921875 L11.765625,5.65625 Z M0.90625,11.640625 L1.109375,10.921875 L3.703125,10.921875 C3.078125,7.75 1.984375,4.4375 0.484375,1.9375 L0.859375,1.609375 C2.1875,3.1875 3.265625,5.015625 4.109375,7.015625 L4.109375,-1.828125 L4.421875,-1.828125 C4.984375,-1.828125 5.609375,-1.484375 5.609375,-1.265625 L5.609375,8.921875 C6.359375,7.875 7.15625,6.484375 7.34375,5.40625 C8.734375,4.25 9.953125,7.203125 5.609375,9.578125 L5.609375,10.921875 L8.5625,10.921875 C8.90625,10.921875 9.125,11.046875 9.1875,11.296875 C8.5,12 7.34375,12.9375 7.34375,12.9375 L6.359375,11.640625 L5.609375,11.640625 L5.609375,19.21875 C6.140625,19.296875 6.3125,19.53125 6.359375,19.84375 L4.109375,20.09375 L4.109375,11.640625 Z" transform="translate(-0.046875, 20.09375) scale(1, -1)"/>
</svg>