<svg height="21.140625" viewBox="0 0 24 21.140625" width="24" xmlns="http://www.w3.org/2000/svg">
<path d="M7.5625,10.53125 C6.28125,8.046875 3.671875,4.84375 1.078125,2.828125 L1.3125,2.5 C4.3125,4.203125 7.34375,7.015625 8.875,9.265625 C9.046875,9.21875 9.21875,9.1875 9.34375,9.21875 L9.34375,0.671875 C9.34375,0.234375 9.171875,0.046875 8.609375,0.046875 C7.984375,0.046875 4.75,0.28125 4.75,0.28125 L4.75,-0.09375 C6.125,-0.234375 6.90625,-0.453125 7.375,-0.71875 C7.75,-0.953125 7.921875,-1.375 8.015625,-1.875 C10.5625,-1.609375 10.875,-0.75 10.875,0.484375 L10.875,17.375 C11.296875,17.453125 11.65625,17.640625 11.8125,17.8125 L9.890625,19.265625 L9.09375,18.28125 L1.375,18.28125 L1.578125,17.609375 L9.34375,17.609375 L9.34375,15.75 L7.484375,16.796875 C6.265625,14.828125 3.796875,12.390625 1.515625,10.875 L1.75,10.515625 C4.375,11.734375 7.265625,13.78125 8.734375,15.484375 C9,15.40625 9.21875,15.390625 9.34375,15.484375 L9.34375,9.640625 Z M17.921875,10.625 C16.796875,8.09375 14.40625,4.9375 11.859375,2.96875 L12.078125,2.609375 C15.09375,4.296875 17.921875,7.0625 19.3125,9.390625 C19.625,9.3125 19.84375,9.3125 19.96875,9.4375 L19.96875,0.703125 C19.96875,0.265625 19.796875,0.078125 19.21875,0.078125 C18.59375,0.078125 15.3125,0.34375 15.3125,0.34375 L15.3125,-0.046875 C16.703125,-0.234375 17.5,-0.4375 17.953125,-0.703125 C18.34375,-0.953125 18.53125,-1.375 18.625,-1.875 C21.234375,-1.609375 21.546875,-0.71875 21.546875,0.53125 L21.546875,17.375 C21.953125,17.453125 22.3125,17.609375 22.46875,17.8125 L20.515625,19.265625 L19.734375,18.28125 L12.234375,18.28125 L12.453125,17.609375 L19.96875,17.609375 L19.96875,15.75 L17.953125,16.796875 C16.84375,14.828125 14.5625,12.28125 12.453125,10.65625 L12.703125,10.34375 C15.1875,11.640625 17.90625,13.734375 19.296875,15.5 C19.609375,15.40625 19.875,15.40625 19.96875,15.578125 L19.96875,9.671875 Z" transform="translate(0.2265625, 19.265625) scale(1, -1)"/>
</svg>