<svg height="21.953125" viewBox="0 0 24 21.953125" width="24" xmlns="http://www.w3.org/2000/svg">
<path d="M16.625,11.296875 L16.390625,11.09375 C16.96875,10.609375 17.6875,9.75 17.90625,9.03125 C19.25,8.1875 20.359375,10.734375 16.625,11.296875 Z M19.125,7.5625 L19.125,4.421875 L12.671875,4.421875 L12.671875,7.5625 Z M7.015625,20.015625 C6.5,18.984375 5.765625,17.78125 4.875,16.578125 C4.078125,17.609375 3.078125,18.578125 1.78125,19.4375 L1.421875,19.109375 C2.640625,18.03125 3.53125,16.890625 4.203125,15.71875 C3.140625,14.421875 1.96875,13.171875 0.75,12.1875 L0.984375,11.90625 C2.328125,12.671875 3.59375,13.609375 4.734375,14.640625 C5.0625,13.875 5.328125,13.109375 5.5,12.3125 C4.578125,9.671875 2.78125,6.75 0.75,4.796875 L1.015625,4.515625 C3.03125,5.828125 4.875,7.75 5.921875,9.453125 C5.96875,8.65625 6,7.890625 6,7.078125 C6,4.421875 5.71875,1.46875 5.046875,0.484375 C4.84375,0.21875 4.65625,0.140625 4.25,0.140625 C3.28125,0.140625 1.46875,0.3125 1.46875,0.3125 L1.46875,-0.09375 C2.296875,-0.265625 2.90625,-0.484375 3.234375,-0.71875 C3.53125,-0.9375 3.671875,-1.296875 3.671875,-1.875 C4.84375,-1.875 5.6875,-1.578125 6.140625,-0.9375 C7.125,0.390625 7.46875,2.875 7.53125,5.453125 L7.5625,5.421875 C8.8125,5.96875 10.015625,6.59375 11.140625,7.265625 L11.140625,-1.890625 L11.375,-1.890625 C12.171875,-1.890625 12.671875,-1.515625 12.671875,-1.390625 L12.671875,-0.484375 L19.125,-0.484375 L19.125,-1.6875 L19.375,-1.6875 C19.875,-1.6875 20.640625,-1.3125 20.65625,-1.15625 L20.65625,7.3125 C21.09375,7.390625 21.453125,7.578125 21.625,7.75 L19.75,9.1875 L18.90625,8.28125 L12.90625,8.28125 L12.765625,8.328125 C14.25,9.359375 15.625,10.484375 16.84375,11.65625 L22.484375,11.65625 C22.84375,11.65625 23.0625,11.78125 23.140625,12.03125 C22.34375,12.765625 21.125,13.75 21.125,13.75 L19.984375,12.359375 L17.546875,12.359375 C19.3125,14.15625 20.78125,16.078125 21.84375,17.875 C22.4375,17.765625 22.6875,17.859375 22.84375,18.09375 L20.640625,19.21875 C20.203125,18.359375 19.6875,17.453125 19.109375,16.5625 C18.390625,17.203125 17.515625,17.875 17.515625,17.875 L16.46875,16.53125 L14.859375,16.53125 L14.859375,19.21875 C15.390625,19.3125 15.578125,19.53125 15.625,19.84375 L13.296875,20.0625 L13.296875,16.53125 L8.78125,16.53125 L8.96875,15.8125 L13.296875,15.8125 L13.296875,12.359375 L7.796875,12.359375 L7.984375,11.65625 L15.125,11.65625 C14.109375,10.625 13.015625,9.640625 11.828125,8.734375 L11.140625,9.03125 L11.140625,8.1875 C10.015625,7.34375 8.8125,6.546875 7.5625,5.875 L7.5625,7.109375 C7.515625,10.171875 7.109375,13.015625 5.609375,15.484375 C6.71875,16.5625 7.65625,17.65625 8.328125,18.625 C8.859375,18.53125 9.078125,18.625 9.234375,18.859375 Z M19.125,3.71875 L19.125,0.234375 L12.671875,0.234375 L12.671875,3.71875 Z M14.859375,15.8125 L18.59375,15.8125 C17.765625,14.640625 16.828125,13.484375 15.765625,12.359375 L14.859375,12.359375 Z" transform="translate(0.0546875, 20.0625) scale(1, -1)"/>
</svg>