<svg height="21.9375" viewBox="0 0 24 21.9375" width="24" xmlns="http://www.w3.org/2000/svg">
<path d="M1.890625,10.4375 L1.890625,7.125 C1.890625,5.140625 1.828125,2.640625 0.953125,0.796875 L1.34375,0.53125 C2.921875,2.359375 3.1875,5.0625 3.1875,7.109375 L3.1875,9.625 C3.796875,9.703125 3.953125,9.90625 4.015625,10.21875 Z M7.703125,10.484375 L7.703125,1.78125 L7.96875,1.78125 C8.46875,1.78125 9.078125,2.140625 9.078125,2.328125 L9.078125,9.671875 C9.578125,9.765625 9.765625,9.953125 9.8125,10.265625 Z M1.6875,18.28125 L1.875,17.5625 L8.953125,17.5625 C9.265625,17.5625 9.5,17.6875 9.578125,17.953125 C8.78125,18.671875 7.484375,19.625 7.484375,19.625 L6.390625,18.28125 Z M11.921875,19.96875 L11.609375,19.84375 C12.390625,18.703125 13.25,16.890625 13.375,15.484375 C14.859375,14.140625 16.390625,17.421875 11.921875,19.96875 Z M1.03125,13.265625 L1.21875,12.578125 L4.78125,12.578125 L4.78125,-1.796875 L4.984375,-1.796875 C5.765625,-1.796875 6.234375,-1.4375 6.234375,-1.3125 L6.234375,12.578125 L9.640625,12.578125 C9.953125,12.578125 10.203125,12.703125 10.25,12.953125 C9.5,13.6875 8.28125,14.6875 8.28125,14.6875 L7.21875,13.265625 Z M10.484375,14.8125 L10.6875,14.109375 L15.53125,14.109375 L15.53125,10.078125 L11.09375,10.078125 L11.28125,9.359375 L15.53125,9.359375 L15.53125,5.015625 L10.015625,5.015625 L10.203125,4.296875 L15.53125,4.296875 L15.53125,-1.875 L15.796875,-1.875 C16.578125,-1.875 17.09375,-1.484375 17.09375,-1.390625 L17.09375,4.296875 L22.515625,4.296875 C22.84375,4.296875 23.09375,4.421875 23.140625,4.6875 C22.375,5.421875 21.125,6.40625 21.125,6.40625 L19.984375,5.015625 L17.09375,5.015625 L17.09375,9.359375 L21.53125,9.359375 C21.84375,9.359375 22.078125,9.484375 22.125,9.75 C21.40625,10.421875 20.203125,11.359375 20.203125,11.359375 L19.171875,10.078125 L17.09375,10.078125 L17.09375,14.109375 L22.171875,14.109375 C22.515625,14.109375 22.75,14.234375 22.828125,14.5 C22.03125,15.1875 20.828125,16.15625 20.828125,16.15625 L19.75,14.8125 L18.09375,14.8125 C19.078125,16.109375 20.109375,17.6875 20.734375,18.8125 C21.234375,18.765625 21.546875,18.953125 21.671875,19.21875 L19.25,20.0625 C18.84375,18.5 18.140625,16.34375 17.5,14.8125 Z" transform="translate(-0.046875, 20.0625) scale(1, -1)"/>
</svg>