<svg height="21.859375" viewBox="0 0 24 21.859375" width="24" xmlns="http://www.w3.org/2000/svg">
<path d="M12.125,8.90625 L15.125,8.90625 L15.125,4.625 L12.125,4.625 Z M10.609375,9.625 L10.609375,-1.828125 L10.84375,-1.828125 C11.609375,-1.828125 12.125,-1.4375 12.125,-1.3125 L12.125,3.953125 L19.5625,3.953125 L19.5625,0.484375 C19.5625,0.140625 19.46875,0 19.0625,0 C18.59375,0 16.515625,0.171875 16.515625,0.171875 L16.515625,-0.21875 C17.421875,-0.34375 17.96875,-0.5 18.28125,-0.75 C18.578125,-1.015625 18.703125,-1.390625 18.765625,-1.84375 C20.828125,-1.625 21.078125,-0.890625 21.078125,0.28125 L21.078125,8.640625 C21.53125,8.734375 21.90625,8.90625 22.078125,9.09375 L20.09375,10.5625 L19.3125,9.625 L12.40625,9.625 L10.609375,10.390625 Z M19.5625,8.90625 L19.5625,4.625 L16.53125,4.625 L16.53125,8.90625 Z M3.3125,16.875 L6.640625,16.875 L6.640625,11.203125 L3.3125,11.203125 Z M1.828125,17.59375 L1.828125,1.125 L2.0625,1.125 C2.8125,1.125 3.3125,1.53125 3.3125,1.6875 L3.3125,3.84375 L6.640625,3.84375 L6.640625,2.1875 L6.859375,2.1875 C7.390625,2.1875 8.140625,2.5625 8.15625,2.734375 L8.15625,16.609375 C8.640625,16.703125 9.046875,16.875 9.171875,17.0625 L7.296875,18.546875 L6.40625,17.59375 L3.625,17.59375 L1.828125,18.390625 Z M3.3125,10.515625 L6.640625,10.515625 L6.640625,4.515625 L3.3125,4.515625 Z M15,20.015625 L15,17.65625 L9.53125,17.65625 L9.71875,16.96875 L15,16.96875 L15,15.078125 L9.859375,15.078125 L10.0625,14.40625 L15,14.40625 L15,12.265625 L8.875,12.265625 L9.046875,11.59375 L22.625,11.59375 C22.96875,11.59375 23.1875,11.71875 23.25,11.953125 C22.484375,12.671875 21.234375,13.65625 21.234375,13.65625 L20.140625,12.265625 L16.5625,12.265625 L16.5625,14.40625 L21.578125,14.40625 C21.890625,14.40625 22.125,14.515625 22.203125,14.78125 C21.5,15.4375 20.359375,16.34375 20.359375,16.34375 L19.375,15.078125 L16.5625,15.078125 L16.5625,16.96875 L22.15625,16.96875 C22.484375,16.96875 22.734375,17.09375 22.796875,17.359375 C22.03125,18.046875 20.78125,19.015625 20.78125,19.015625 L19.703125,17.65625 L16.5625,17.65625 L16.5625,19.109375 C17.140625,19.203125 17.375,19.4375 17.421875,19.78125 Z" transform="translate(-0.5390625, 20.015625) scale(1, -1)"/>
</svg>