<svg height="21.96875" viewBox="0 0 24 21.96875" width="24" xmlns="http://www.w3.org/2000/svg">
<path d="M2.546875,13.609375 L2.15625,13.484375 C3.125,11.0625 3.265625,7.46875 3.21875,5.71875 C4.171875,4.0625 6.21875,8.046875 2.546875,13.609375 Z M9.390625,11.96875 L9.578125,11.28125 L22.5625,11.28125 C22.890625,11.28125 23.109375,11.40625 23.15625,11.65625 C22.421875,12.359375 21.1875,13.3125 21.1875,13.3125 L20.09375,11.96875 L16.703125,11.96875 L16.703125,14.109375 L21.578125,14.109375 C21.859375,14.109375 22.109375,14.234375 22.15625,14.5 C21.5,15.171875 20.421875,16.015625 20.421875,16.015625 L19.484375,14.828125 L16.703125,14.828125 L16.703125,16.828125 L22.109375,16.828125 C22.4375,16.828125 22.6875,16.9375 22.734375,17.203125 C21.984375,17.90625 20.828125,18.8125 20.828125,18.8125 L19.796875,17.515625 L16.703125,17.515625 L16.703125,19.171875 C17.25,19.265625 17.515625,19.515625 17.5625,19.84375 L15.125,20.09375 L15.125,17.515625 L9.765625,17.515625 L9.953125,16.828125 L15.125,16.828125 L15.125,14.828125 L10.515625,14.828125 L10.703125,14.109375 L15.125,14.109375 L15.125,11.96875 Z M15.1875,4.9375 L12.390625,4.9375 L12.390625,8.6875 L15.1875,8.6875 Z M16.625,4.9375 L16.625,8.6875 L19.609375,8.6875 L19.609375,4.9375 Z M10.890625,9.359375 L10.890625,-1.84375 L11.15625,-1.84375 C11.78125,-1.84375 12.390625,-1.484375 12.390625,-1.3125 L12.390625,4.21875 L19.609375,4.21875 L19.609375,0.546875 C19.609375,0.1875 19.484375,0.078125 19.109375,0.078125 C18.625,0.078125 16.515625,0.234375 16.515625,0.234375 L16.515625,-0.140625 C17.46875,-0.28125 18.03125,-0.453125 18.3125,-0.71875 C18.625,-0.984375 18.75,-1.390625 18.796875,-1.875 C20.875,-1.65625 21.125,-0.859375 21.125,0.359375 L21.125,8.40625 C21.578125,8.5 21.9375,8.6875 22.078125,8.859375 L20.140625,10.3125 L19.375,9.359375 L12.5,9.359375 L10.890625,10.125 Z M4.484375,19.875 L4.484375,15.34375 L0.953125,15.34375 L1.15625,14.640625 L9.484375,14.640625 C9.8125,14.640625 10.0625,14.765625 10.109375,15.03125 C9.359375,15.75 8.15625,16.734375 8.15625,16.734375 L7.078125,15.34375 L6,15.34375 L6,19.03125 C6.53125,19.125 6.75,19.34375 6.796875,19.65625 Z M6.75,13.796875 C6.484375,11.015625 6,7.21875 5.546875,4.296875 C3.546875,3.625 1.84375,3.09375 0.8125,2.828125 L1.984375,0.796875 C2.234375,0.90625 2.40625,1.125 2.46875,1.421875 C5.90625,3.046875 8.46875,4.515625 10.375,5.65625 L10.25,6 C8.875,5.46875 7.484375,4.96875 6.171875,4.515625 C7.03125,7.21875 7.828125,10.421875 8.28125,12.703125 C8.828125,12.71875 9.09375,12.953125 9.171875,13.265625 Z" transform="translate(0.015625, 20.09375) scale(1, -1)"/>
</svg>