<svg height="22.015625" viewBox="0 0 24 22.015625" width="24" xmlns="http://www.w3.org/2000/svg">
<path d="M1.6875,18.234375 L1.3125,18.140625 C1.78125,16.796875 2.296875,14.8125 2.25,13.296875 C3.5,11.953125 4.96875,14.875 1.6875,18.234375 Z M8.1875,18.53125 C7.828125,16.65625 7.296875,14.453125 6.859375,13.03125 L7.25,12.859375 C8.109375,14.046875 9,15.796875 9.640625,17.328125 C10.15625,17.328125 10.4375,17.515625 10.53125,17.8125 Z M15.3125,4.875 L12.5,4.875 L12.5,8.96875 L15.3125,8.96875 Z M16.78125,4.875 L16.78125,8.96875 L19.6875,8.96875 L19.6875,4.875 Z M10.984375,9.671875 L10.984375,-1.84375 L11.234375,-1.84375 C11.875,-1.84375 12.5,-1.46875 12.5,-1.3125 L12.5,4.15625 L19.6875,4.15625 L19.6875,0.484375 C19.6875,0.140625 19.578125,0 19.171875,0 C18.71875,0 16.578125,0.171875 16.578125,0.171875 L16.578125,-0.21875 C17.5625,-0.34375 18.09375,-0.5 18.40625,-0.75 C18.703125,-0.984375 18.8125,-1.390625 18.859375,-1.828125 C20.96875,-1.625 21.21875,-0.890625 21.21875,0.28125 L21.21875,8.71875 C21.671875,8.78125 22.015625,8.96875 22.171875,9.171875 L20.234375,10.609375 L19.46875,9.671875 L12.625,9.671875 L10.984375,10.4375 Z M15.078125,19.984375 L15.078125,17.515625 L10.296875,17.515625 L10.46875,16.828125 L15.078125,16.828125 L15.078125,14.96875 L10.53125,14.96875 L10.734375,14.28125 L15.078125,14.28125 L15.078125,12.234375 L9.625,12.234375 L9.796875,11.65625 L8.28125,12.9375 L7.25,11.609375 L6.234375,11.609375 L6.234375,19.21875 C6.796875,19.296875 6.953125,19.53125 7.015625,19.84375 L4.734375,20.09375 L4.734375,11.609375 L0.984375,11.609375 L1.171875,10.921875 L4.25,10.921875 C3.53125,7.734375 2.28125,4.375 0.625,1.875 L0.953125,1.5625 C2.5,3.21875 3.765625,5.15625 4.734375,7.296875 L4.734375,-1.921875 L5.046875,-1.921875 C5.609375,-1.921875 6.234375,-1.5625 6.234375,-1.34375 L6.234375,8.875 C7.078125,7.875 7.96875,6.53125 8.234375,5.46875 C9.75,4.3125 10.9375,7.390625 6.234375,9.53125 L6.234375,10.921875 L9.546875,10.921875 C9.890625,10.921875 10.125,11.046875 10.171875,11.296875 L9.90625,11.546875 L22.625,11.546875 C22.96875,11.546875 23.1875,11.65625 23.234375,11.921875 C22.484375,12.625 21.28125,13.578125 21.28125,13.578125 L20.203125,12.234375 L16.578125,12.234375 L16.578125,14.28125 L21.59375,14.28125 C21.890625,14.28125 22.15625,14.40625 22.203125,14.65625 C21.484375,15.3125 20.296875,16.25 20.296875,16.25 L19.296875,14.96875 L16.578125,14.96875 L16.578125,16.828125 L21.953125,16.828125 C22.296875,16.828125 22.53125,16.9375 22.609375,17.203125 C21.84375,17.921875 20.640625,18.859375 20.640625,18.859375 L19.578125,17.515625 L16.578125,17.515625 L16.578125,19.109375 C17.15625,19.171875 17.421875,19.421875 17.46875,19.75 Z" transform="translate(0.0703125, 20.09375) scale(1, -1)"/>
</svg>