<svg height="21.5625" viewBox="0 0 24 21.5625" width="24" xmlns="http://www.w3.org/2000/svg">
<path d="M1.890625,10.4375 L1.890625,7.125 C1.890625,5.15625 1.828125,2.640625 0.984375,0.796875 L1.34375,0.53125 C2.875,2.375 3.125,5.09375 3.140625,7.109375 L3.140625,9.625 C3.71875,9.703125 3.890625,9.90625 3.9375,10.21875 Z M7.65625,10.484375 L7.65625,1.78125 L7.890625,1.78125 C8.40625,1.78125 8.96875,2.140625 8.96875,2.296875 L8.96875,9.671875 C9.484375,9.75 9.703125,9.953125 9.75,10.265625 Z M1.6875,18.28125 L1.875,17.5625 L8.859375,17.5625 C9.171875,17.5625 9.40625,17.6875 9.484375,17.953125 C8.6875,18.671875 7.390625,19.625 7.390625,19.625 L6.28125,18.28125 Z M10.15625,18.28125 L10.34375,17.5625 L22.390625,17.5625 C22.734375,17.5625 22.96875,17.6875 23.046875,17.953125 C22.25,18.671875 20.96875,19.6875 20.96875,19.6875 L19.84375,18.28125 Z M1.03125,13.265625 L1.21875,12.578125 L4.75,12.578125 L4.75,-1.796875 L4.96875,-1.796875 C5.71875,-1.796875 6.1875,-1.4375 6.1875,-1.34375 L6.1875,12.578125 L9.5,12.578125 C9.8125,12.578125 10.0625,12.703125 10.125,12.953125 C9.359375,13.6875 8.140625,14.6875 8.140625,14.6875 L7.078125,13.265625 Z M11.953125,15.234375 L11.953125,9.390625 L12.140625,9.390625 C12.90625,9.390625 13.421875,9.703125 13.421875,9.84375 L13.421875,10.515625 L19.171875,10.515625 L19.171875,9.546875 L19.4375,9.546875 C20.109375,9.546875 20.6875,9.90625 20.6875,10.015625 L20.6875,14.46875 C21.171875,14.546875 21.390625,14.65625 21.546875,14.859375 L19.84375,16.125 L19.125,15.234375 L13.6875,15.234375 L11.953125,15.984375 Z M13.421875,11.234375 L13.421875,14.546875 L19.171875,14.546875 L19.171875,11.234375 Z M15.53125,7.25 L15.53125,4.15625 L12.140625,4.15625 L12.140625,7.25 Z M17.015625,7.25 L20.515625,7.25 L20.515625,4.15625 L17.015625,4.15625 Z M10.6875,7.96875 L10.6875,-1.875 L10.890625,-1.875 C11.65625,-1.875 12.140625,-1.53125 12.140625,-1.390625 L12.140625,-0.546875 L20.515625,-0.546875 L20.515625,-1.609375 L20.765625,-1.609375 C21.453125,-1.609375 22.015625,-1.25 22.015625,-1.15625 L22.015625,7.171875 C22.515625,7.21875 22.78125,7.34375 22.921875,7.5625 L21.1875,8.875 L20.421875,7.96875 L12.4375,7.96875 L10.6875,8.71875 Z M12.140625,0.171875 L12.140625,3.453125 L15.53125,3.453125 L15.53125,0.171875 Z M20.515625,0.171875 L17.015625,0.171875 L17.015625,3.453125 L20.515625,3.453125 Z" transform="translate(-0.015625, 19.6875) scale(1, -1)"/>
</svg>