<svg height="21.6875" viewBox="0 0 24 21.6875" width="24" xmlns="http://www.w3.org/2000/svg">
<path d="M21.140625,11.640625 C20.5625,10.78125 19.296875,9.265625 18.1875,8.15625 C17.46875,9.71875 16.9375,11.421875 16.609375,13.296875 L22.421875,13.296875 C22.75,13.296875 22.984375,13.421875 23.046875,13.65625 C22.21875,14.421875 20.90625,15.4375 20.90625,15.4375 L19.75,13.984375 L8.859375,13.984375 L9.046875,13.296875 L13.75,13.296875 C11.96875,11.71875 9.5,10.203125 6.953125,9.09375 L7.21875,8.71875 C9.234375,9.34375 11.234375,10.203125 12.984375,11.203125 C13.25,10.84375 13.484375,10.484375 13.703125,10.109375 C12.953125,9.171875 11.953125,8.203125 10.828125,7.3125 C10.4375,7.625 9.984375,7.921875 9.484375,8.15625 L9.265625,7.96875 C9.59375,7.65625 9.90625,7.25 10.171875,6.84375 C8.859375,5.859375 7.4375,4.984375 6.09375,4.375 L6.28125,4.015625 C7.734375,4.515625 9.234375,5.203125 10.65625,5.96875 C10.921875,5.40625 11.109375,4.84375 11.1875,4.390625 C11.296875,4.078125 11.5,3.90625 11.6875,3.8125 C9.8125,2.234375 7.625,0.8125 5.515625,-0.09375 L5.6875,-0.453125 C9.28125,0.703125 12.859375,2.96875 15.28125,5.109375 C15.5,2.953125 15.140625,1.0625 14.453125,0.265625 C14.296875,0.078125 14.0625,0.046875 13.75,0.046875 C13.171875,0.046875 11.421875,0.140625 10.4375,0.21875 L10.4375,-0.171875 C11.328125,-0.34375 12.21875,-0.546875 12.484375,-0.765625 C12.796875,-1.015625 12.9375,-1.34375 12.953125,-1.84375 C14.328125,-1.84375 15.1875,-1.578125 15.671875,-1.015625 C17.546875,0.90625 17.734375,7.515625 13.390625,11.453125 C14.328125,12.03125 15.1875,12.640625 15.9375,13.296875 L16.109375,13.296875 C16.828125,7.421875 18.640625,2.96875 21.71875,0.078125 C22.109375,0.84375 22.734375,1.296875 23.453125,1.3125 L23.515625,1.53125 C21.453125,2.953125 19.703125,5.0625 18.40625,7.6875 C19.84375,8.359375 21.453125,9.234375 22.3125,9.84375 C22.78125,9.640625 23.140625,9.796875 23.28125,9.984375 Z M12.625,4.65625 C12.625,4.84375 12.59375,5.0625 12.5,5.28125 C12.34375,5.71875 12.046875,6.140625 11.65625,6.578125 C12.71875,7.203125 13.6875,7.84375 14.46875,8.515625 C14.65625,8.0625 14.8125,7.609375 14.921875,7.15625 C14.28125,6.3125 13.484375,5.46875 12.625,4.65625 Z M0.75,5.015625 L1.703125,2.96875 C1.9375,3.078125 2.109375,3.3125 2.15625,3.625 C4.96875,5.328125 7.15625,6.796875 8.65625,7.78125 L8.515625,8.109375 L5.453125,6.84375 L5.453125,13.125 L8.09375,13.125 C8.421875,13.125 8.640625,13.25 8.71875,13.515625 C8.015625,14.203125 6.890625,15.21875 6.890625,15.21875 L5.875,13.828125 L5.453125,13.828125 L5.453125,18.90625 C6.078125,19.015625 6.265625,19.25 6.34375,19.578125 L3.90625,19.84375 L3.90625,13.828125 L1.015625,13.828125 L1.203125,13.125 L3.90625,13.125 L3.90625,6.21875 C2.515625,5.65625 1.390625,5.234375 0.75,5.015625 Z M10.03125,19.578125 C9.90625,17.71875 9.21875,16.578125 8.328125,16.109375 C7.015625,14.40625 10.734375,13.46875 10.625,17.734375 L20.421875,17.734375 C20.109375,16.921875 19.65625,15.90625 19.3125,15.28125 L19.625,15.125 C20.5,15.703125 21.671875,16.734375 22.34375,17.453125 C22.828125,17.46875 23.09375,17.515625 23.25,17.6875 L21.4375,19.46875 L20.421875,18.4375 L10.578125,18.4375 C10.5625,18.765625 10.484375,19.15625 10.421875,19.5625 Z" transform="translate(-0.1328125, 19.84375) scale(1, -1)"/>
</svg>