<svg height="22.03125" viewBox="0 0 24 22.03125" width="24" xmlns="http://www.w3.org/2000/svg">
<path d="M8.453125,9.125 L8.453125,7.203125 L4.21875,7.203125 L4.21875,9.125 Z M8.453125,9.84375 L4.21875,9.84375 L4.21875,11.78125 L8.453125,11.78125 Z M2.734375,12.453125 L2.734375,-1.890625 L3,-1.890625 C3.671875,-1.890625 4.21875,-1.53125 4.21875,-1.375 L4.21875,0.765625 L9.765625,0.765625 C10.109375,0.765625 10.3125,0.859375 10.390625,1.125 C9.703125,1.796875 8.609375,2.65625 8.609375,2.65625 L7.625,1.46875 L4.21875,1.46875 L4.21875,3.671875 L9.765625,3.671875 C10.109375,3.671875 10.34375,3.796875 10.421875,4.0625 C9.71875,4.703125 8.640625,5.546875 8.640625,5.546875 L7.703125,4.375 L4.21875,4.375 L4.21875,6.53125 L8.453125,6.53125 L8.453125,5.71875 L8.640625,5.71875 C9.140625,5.71875 9.859375,6.09375 9.890625,6.28125 L9.890625,11.609375 C10.25,11.6875 10.5625,11.859375 10.6875,12 L9,13.265625 L8.25,12.453125 L4.34375,12.453125 L2.734375,13.21875 Z M3.84375,14.734375 L4.015625,14.140625 L8.765625,14.140625 C9.046875,14.140625 9.28125,14.25 9.34375,14.515625 C8.6875,15.140625 7.625,16.015625 7.625,16.015625 L6.703125,14.828125 L3.9375,14.828125 C5.09375,16.109375 6.078125,17.46875 6.765625,18.671875 C7.984375,17.546875 8.953125,16.21875 9.40625,15.28125 C10.703125,14.328125 12.453125,16.921875 7.171875,18.90625 C7.5625,18.953125 7.75,19.109375 7.828125,19.34375 L5.546875,20.140625 C4.734375,17.875 2.609375,14.328125 0.640625,12.40625 L0.9375,12.140625 C1.96875,12.84375 2.953125,13.75 3.84375,14.734375 Z M12.1875,18.09375 L12.1875,10.96875 C12.1875,6.359375 11.765625,1.921875 8.6875,-1.609375 L9.03125,-1.875 C13.25,1.5625 13.6875,6.640625 13.6875,10.984375 L13.6875,12.171875 L14.421875,12.171875 C14.859375,8.765625 15.671875,5.90625 16.9375,3.578125 C15.640625,1.609375 13.921875,-0.078125 11.59375,-1.390625 L11.828125,-1.75 C14.296875,-0.640625 16.171875,0.8125 17.5625,2.515625 C18.703125,0.765625 20.109375,-0.671875 21.84375,-1.796875 C22.15625,-1.0625 22.734375,-0.640625 23.421875,-0.625 L23.5,-0.390625 C21.5,0.59375 19.796875,1.96875 18.453125,3.703125 C20.09375,6.140625 20.96875,8.96875 21.578125,11.96875 C22.109375,12 22.3125,12.078125 22.515625,12.265625 L20.8125,13.828125 L19.875,12.890625 L13.6875,12.890625 L13.6875,17.40625 L22.375,17.40625 C22.703125,17.40625 22.921875,17.515625 22.984375,17.78125 C22.203125,18.5 20.90625,19.53125 20.90625,19.53125 L19.75,18.09375 L13.9375,18.09375 L12.1875,18.859375 Z M20.015625,12.171875 C19.578125,9.5 18.859375,7.015625 17.65625,4.796875 C16.34375,6.84375 15.4375,9.3125 14.921875,12.171875 Z" transform="translate(-0.0703125, 20.140625) scale(1, -1)"/>
</svg>