<svg height="22.109375" viewBox="0 0 24 22.109375" width="24" xmlns="http://www.w3.org/2000/svg">
<path d="M5.25,7.125 L10.390625,7.125 L10.390625,4.296875 L5.25,4.296875 Z M12.28125,19.203125 C11.90625,18.34375 11.453125,17.453125 10.921875,16.53125 C10.25,17.15625 9.4375,17.828125 9.4375,17.828125 L8.421875,16.53125 L7.203125,16.53125 L7.203125,19.171875 C7.78125,19.25 8.046875,19.484375 8.0625,19.828125 L5.6875,20.0625 L5.6875,16.53125 L1.984375,16.53125 L2.1875,15.8125 L5.6875,15.8125 L5.6875,12.390625 L0.859375,12.390625 L1.0625,11.71875 L7.5625,11.71875 C6.578125,10.515625 5.46875,9.34375 4.3125,8.28125 L3.796875,8.5 L3.796875,7.796875 C2.8125,6.9375 1.78125,6.140625 0.703125,5.421875 L0.90625,5.109375 C1.921875,5.65625 2.875,6.265625 3.796875,6.90625 L3.796875,-1.875 L4.015625,-1.875 C4.75,-1.875 5.25,-1.484375 5.25,-1.375 L5.25,-0.078125 L10.390625,-0.078125 L10.390625,-1.5625 L10.609375,-1.5625 C11.140625,-1.5625 11.875,-1.203125 11.90625,-1.0625 L11.90625,6.90625 C12.3125,6.984375 12.671875,7.171875 12.8125,7.3125 L10.984375,8.734375 L10.171875,7.828125 L5.359375,7.828125 L5.140625,7.921875 C6.1875,8.765625 7.171875,9.640625 8.09375,10.578125 C8.6875,10.03125 9.234375,9.28125 9.4375,8.65625 C10.75,7.828125 11.78125,10.203125 8.515625,11.015625 L9.140625,11.71875 L13.5625,11.71875 C13.875,11.71875 14.09375,11.828125 14.15625,12.078125 C13.46875,12.75 12.28125,13.65625 12.28125,13.65625 L11.28125,12.390625 L9.71875,12.390625 C11.296875,14.25 12.578125,16.171875 13.515625,17.953125 C14.109375,17.828125 14.328125,17.953125 14.5,18.1875 Z M5.25,3.59375 L10.390625,3.59375 L10.390625,0.640625 L5.25,0.640625 Z M7.203125,15.8125 L10.515625,15.8125 C9.796875,14.65625 9,13.515625 8.109375,12.390625 L7.203125,12.390625 Z M14.6875,18.234375 L14.6875,-2.046875 L14.921875,-2.046875 C15.703125,-2.046875 16.21875,-1.625 16.21875,-1.515625 L16.21875,17.546875 L20.453125,17.546875 C19.796875,15.5 18.796875,12.453125 18.125,10.875 C20.375,8.90625 21.3125,7.015625 21.3125,5.109375 C21.3125,4.078125 21.03125,3.546875 20.546875,3.28125 C20.296875,3.171875 20.15625,3.140625 19.875,3.140625 C19.34375,3.140625 18.125,3.140625 17.40625,3.140625 L17.40625,2.765625 C18.140625,2.6875 18.71875,2.546875 18.953125,2.375 C19.171875,2.15625 19.296875,1.625 19.296875,1.125 C21.953125,1.25 22.921875,2.40625 22.921875,4.75 C22.921875,6.796875 21.75,8.921875 18.71875,10.9375 C19.796875,12.484375 21.359375,15.5 22.21875,17.109375 C22.78125,17.140625 23.109375,17.203125 23.28125,17.40625 L21.4375,19.25 L20.40625,18.234375 L16.515625,18.234375 L14.6875,19.203125 Z" transform="translate(0.0078125, 20.0625) scale(1, -1)"/>
</svg>