<svg height="21.859375" viewBox="0 0 24 21.859375" width="24" xmlns="http://www.w3.org/2000/svg">
<path d="M1.9375,18.453125 L2.140625,17.765625 L8.5,17.765625 C8.828125,17.765625 9.03125,17.875 9.09375,18.140625 C8.40625,18.8125 7.25,19.734375 7.25,19.734375 L6.21875,18.453125 Z M2.015625,9.3125 L2.203125,8.609375 L8.65625,8.609375 C8.96875,8.609375 9.1875,8.734375 9.265625,9 C8.609375,9.640625 7.53125,10.515625 7.53125,10.515625 L6.59375,9.3125 Z M0.890625,15.4375 L1.078125,14.734375 L9.84375,14.734375 C10.15625,14.734375 10.390625,14.859375 10.4375,15.125 C9.71875,15.796875 8.546875,16.75 8.546875,16.75 L7.53125,15.4375 Z M18.640625,15.8125 C17.78125,14.5 16.828125,13.21875 15.859375,12.03125 L15.484375,12.03125 L15.484375,15.8125 Z M2.0625,6.21875 L2.0625,-1.875 L2.28125,-1.875 C2.90625,-1.875 3.53125,-1.53125 3.53125,-1.390625 L3.53125,0.28125 L7.171875,0.28125 L7.171875,-0.953125 L7.421875,-0.953125 C7.921875,-0.953125 8.65625,-0.625 8.65625,-0.453125 L8.65625,5.328125 C8.90625,5.375 9.140625,5.46875 9.3125,5.5625 L9.5,5.328125 C10.46875,5.875 11.421875,6.53125 12.359375,7.21875 L12.359375,-1.84375 L12.59375,-1.84375 C13.390625,-1.84375 13.890625,-1.484375 13.890625,-1.375 L13.890625,-0.1875 L19.65625,-0.1875 L19.65625,-1.578125 L19.921875,-1.578125 C20.640625,-1.578125 21.234375,-1.21875 21.234375,-1.109375 L21.234375,7.46875 C21.703125,7.53125 21.953125,7.65625 22.125,7.84375 L20.375,9.21875 L19.5625,8.28125 L14.15625,8.28125 L13.84375,8.40625 C14.78125,9.21875 15.71875,10.078125 16.625,11.015625 C17.140625,10.515625 17.734375,9.71875 17.90625,9.03125 C19.21875,8.140625 20.453125,10.609375 16.890625,11.328125 L22.65625,11.328125 C22.984375,11.328125 23.203125,11.453125 23.25,11.71875 C22.53125,12.40625 21.3125,13.375 21.3125,13.375 L20.234375,12.03125 L17.546875,12.03125 C19.109375,13.78125 20.5625,15.75 21.84375,17.875 C22.390625,17.765625 22.734375,17.921875 22.875,18.140625 L20.71875,19.34375 C20.234375,18.4375 19.734375,17.515625 19.171875,16.625 L17.78125,17.8125 L16.75,16.515625 L15.484375,16.515625 L15.484375,19.125 C16.03125,19.21875 16.21875,19.421875 16.265625,19.75 L13.96875,19.984375 L13.96875,16.515625 L10.421875,16.515625 L10.609375,15.8125 L13.96875,15.8125 L13.96875,12.03125 L9.234375,12.03125 C8.609375,12.71875 7.53125,13.578125 7.53125,13.578125 L6.59375,12.390625 L2.015625,12.390625 L2.203125,11.6875 L8.65625,11.6875 C8.765625,11.6875 8.859375,11.71875 8.921875,11.734375 L9.046875,11.328125 L15.265625,11.328125 C14.5,10.421875 13.703125,9.578125 12.90625,8.8125 L12.359375,9.03125 L12.359375,8.28125 C11.375,7.34375 10.390625,6.53125 9.4375,5.828125 L7.78125,7.109375 L6.984375,6.21875 L3.640625,6.21875 L2.0625,6.953125 Z M13.890625,3.75 L19.65625,3.75 L19.65625,0.5 L13.890625,0.5 Z M13.890625,4.4375 L13.890625,7.5625 L19.65625,7.5625 L19.65625,4.4375 Z M7.171875,5.546875 L7.171875,0.984375 L3.53125,0.984375 L3.53125,5.546875 Z" transform="translate(-0.0703125, 19.984375) scale(1, -1)"/>
</svg>