<svg height="21.625" viewBox="0 0 24 21.625" width="24" xmlns="http://www.w3.org/2000/svg">
<path d="M14.515625,12.625 C15.234375,12.03125 16.078125,11.0625 16.4375,10.34375 C17.875,9.53125 18.859375,12.171875 14.78125,12.953125 L14.78125,13.3125 L19.25,13.3125 L19.25,12.171875 L19.46875,12.171875 C19.96875,12.171875 20.71875,12.53125 20.734375,12.640625 L20.734375,17.640625 C21.21875,17.734375 21.625,17.921875 21.765625,18.125 L19.875,19.609375 L19.015625,18.640625 L14.90625,18.640625 L13.296875,19.34375 L13.296875,12.359375 L13.515625,12.359375 C13.890625,12.359375 14.28125,12.5 14.515625,12.625 Z M4.921875,12.078125 L4.921875,13.3125 L9.140625,13.3125 L9.140625,12.546875 L9.359375,12.546875 C9.75,12.546875 10.25,12.75 10.484375,12.90625 C10.03125,11.96875 9.4375,11.015625 8.65625,10.078125 L1.0625,10.078125 L1.265625,9.390625 L8.0625,9.390625 C6.34375,7.46875 3.90625,5.6875 0.671875,4.4375 L0.859375,4.125 C1.890625,4.4375 2.859375,4.78125 3.75,5.15625 L3.75,-2.015625 L3.953125,-2.015625 C4.578125,-2.015625 5.203125,-1.6875 5.203125,-1.53125 L5.203125,-0.28125 L9.171875,-0.28125 L9.171875,-1.375 L9.40625,-1.375 C9.90625,-1.375 10.625,-1.015625 10.65625,-0.84375 L10.65625,4.5625 C11.140625,4.65625 11.515625,4.828125 11.6875,5.015625 L9.796875,6.453125 L8.921875,5.546875 L5.328125,5.546875 L4.96875,5.71875 C7.109375,6.765625 8.765625,8.046875 10.03125,9.390625 L14.015625,9.390625 C15.21875,7.9375 16.65625,6.75 18.75,5.78125 L18.5,5.546875 L14.65625,5.546875 L13.0625,6.265625 L13.0625,-1.890625 L13.296875,-1.890625 C13.921875,-1.890625 14.546875,-1.5625 14.546875,-1.421875 L14.546875,-0.28125 L18.75,-0.28125 L18.75,-1.484375 L18.984375,-1.484375 C19.46875,-1.484375 20.234375,-1.125 20.25,-0.984375 L20.25,4.53125 C20.640625,4.609375 20.953125,4.75 21.140625,4.890625 L22.484375,4.515625 C22.609375,5.296875 22.921875,5.875 23.359375,6.046875 L23.40625,6.3125 C19.34375,6.796875 16.625,7.875 14.71875,9.390625 L22.390625,9.390625 C22.734375,9.390625 22.9375,9.5 23.015625,9.765625 C22.21875,10.515625 20.921875,11.515625 20.921875,11.515625 L19.75,10.078125 L10.625,10.078125 C11.109375,10.65625 11.546875,11.25 11.875,11.859375 C12.359375,11.8125 12.703125,11.90625 12.8125,12.1875 L10.609375,13.03125 L10.625,17.65625 C11.09375,17.765625 11.46875,17.953125 11.640625,18.125 L9.75,19.578125 L8.90625,18.640625 L5.046875,18.640625 L3.453125,19.375 L3.453125,11.5625 L3.671875,11.5625 C4.296875,11.5625 4.921875,11.921875 4.921875,12.078125 Z M18.75,4.828125 L18.75,0.4375 L14.546875,0.4375 L14.546875,4.828125 Z M9.171875,4.828125 L9.171875,0.4375 L5.203125,0.4375 L5.203125,4.828125 Z M19.25,17.921875 L19.25,14.015625 L14.78125,14.015625 L14.78125,17.921875 Z M9.140625,17.921875 L9.140625,14.015625 L4.921875,14.015625 L4.921875,17.921875 Z" transform="translate(-0.0390625, 19.609375) scale(1, -1)"/>
</svg>