<svg height="21.40625" viewBox="0 0 24 21.40625" width="24" xmlns="http://www.w3.org/2000/svg">
<path d="M6.140625,16.921875 L6.140625,8.046875 L3.3125,8.046875 L3.3125,16.921875 Z M1.875,17.609375 L1.875,4.265625 L2.109375,4.265625 C2.765625,4.265625 3.3125,4.625 3.3125,4.796875 L3.3125,7.34375 L6.140625,7.34375 L6.140625,5.6875 L6.359375,5.6875 C6.859375,5.6875 7.609375,6.046875 7.625,6.1875 L7.625,16.625 C8.109375,16.703125 8.5,16.921875 8.65625,17.109375 L6.765625,18.578125 L5.90625,17.609375 L3.4375,17.609375 L1.875,18.390625 Z M11.421875,14.71875 L19.109375,14.71875 L19.109375,12.171875 L11.421875,12.171875 Z M11.421875,15.40625 L11.421875,18 L19.109375,18 L19.109375,15.40625 Z M9.9375,18.703125 L9.9375,10.125 L10.171875,10.125 C10.9375,10.125 11.421875,10.484375 11.421875,10.578125 L11.421875,11.46875 L12.125,11.46875 C10.9375,8.8125 8.640625,5.734375 6.28125,4.015625 L6.578125,3.71875 C7.609375,4.296875 8.609375,5.015625 9.546875,5.859375 L9.546875,-0.53125 L9.84375,-0.53125 C10.421875,-0.53125 11.046875,-0.21875 11.046875,-0.03125 L11.046875,1.109375 L18.984375,1.109375 C19.3125,1.109375 19.53125,1.21875 19.578125,1.484375 C18.859375,2.15625 17.734375,3 17.734375,3 L16.734375,1.828125 L11.046875,1.828125 L11.046875,5.8125 C11.640625,5.90625 11.859375,6.125 11.921875,6.484375 L10.390625,6.625 C10.890625,7.15625 11.40625,7.6875 11.828125,8.203125 L20.640625,8.203125 C20.453125,3.671875 20.0625,0.9375 19.46875,0.359375 C19.25,0.171875 19.0625,0.125 18.625,0.125 C18.171875,0.125 16.65625,0.234375 15.796875,0.3125 L15.796875,-0.09375 C16.578125,-0.21875 17.453125,-0.453125 17.765625,-0.640625 C18.078125,-0.890625 18.171875,-1.3125 18.171875,-1.78125 C19.0625,-1.78125 19.921875,-1.515625 20.5,-0.984375 C21.484375,-0.078125 21.953125,2.828125 22.15625,8.015625 C22.625,8.09375 22.9375,8.203125 23.09375,8.40625 L21.3125,9.859375 L20.40625,8.90625 L12.40625,8.90625 C12.84375,9.484375 13.21875,10.0625 13.5625,10.609375 C14.140625,10.53125 14.328125,10.625 14.421875,10.875 L12.390625,11.46875 L19.109375,11.46875 L19.109375,10.421875 L19.34375,10.421875 C20.0625,10.421875 20.640625,10.75 20.640625,10.84375 L20.640625,17.90625 C21.125,17.96875 21.390625,18.125 21.53125,18.28125 L19.796875,19.625 L19.03125,18.703125 L11.71875,18.703125 L9.9375,19.46875 Z M14.609375,8.0625 C14.203125,6.234375 13.125,3.9375 11.5625,2.5625 L11.78125,2.203125 C13.03125,2.90625 14.0625,3.953125 14.828125,5.046875 C15.578125,4.421875 16.34375,3.578125 16.609375,2.875 C17.953125,2.0625 18.859375,4.5625 15.140625,5.5 C15.453125,6 15.71875,6.484375 15.90625,6.953125 C16.484375,6.90625 16.65625,7.0625 16.78125,7.296875 Z" transform="translate(-0.484375, 19.625) scale(1, -1)"/>
</svg>