<svg height="21.71875" viewBox="0 0 24 21.71875" width="24" xmlns="http://www.w3.org/2000/svg">
<path d="M9.59375,9.625 L9.28125,9.484375 C9.796875,8.859375 10.3125,7.796875 10.34375,7.03125 C11.40625,6.046875 12.703125,8.203125 9.59375,9.625 Z M16.296875,9.75 C16.109375,9.046875 15.59375,7.703125 15.234375,6.859375 L15.484375,6.71875 C16.203125,7.3125 16.9375,8.09375 17.359375,8.609375 C17.8125,8.546875 18.09375,8.78125 18.171875,8.953125 Z M11.375,13.734375 L11.59375,13.03125 L17.0625,13.03125 C17.421875,12.265625 17.96875,11.546875 18.703125,10.921875 L18.4375,10.625 L8.515625,10.625 L8.15625,10.796875 C9.078125,11.46875 9.90625,12.171875 10.46875,12.84375 C10.84375,12.75 11.109375,12.796875 11.234375,13.015625 L9.140625,14.109375 C8.28125,12.546875 6.53125,10.65625 4.84375,9.40625 C4.921875,10.75 4.9375,12.046875 4.9375,13.203125 L4.9375,15.03125 L19.578125,15.03125 L19.578125,14.0625 L19.828125,14.0625 C20.359375,14.0625 21.125,14.40625 21.140625,14.5625 L21.140625,17.828125 C21.625,17.921875 22.015625,18.140625 22.171875,18.3125 L20.203125,19.78125 L19.375,18.84375 L5.25,18.84375 L3.40625,19.625 L3.40625,13.171875 C3.40625,8.296875 3.140625,2.953125 0.71875,-1.4375 L1.078125,-1.6875 C3.640625,1.390625 4.515625,5.375 4.796875,9.03125 L4.875,8.921875 C5.546875,9.21875 6.234375,9.59375 6.90625,10.015625 L6.90625,4.9375 L7.125,4.9375 L7.5625,4.984375 L7.5625,-1.9375 L7.78125,-1.9375 C8.421875,-1.9375 9.078125,-1.578125 9.078125,-1.46875 L9.078125,-0.859375 L18.03125,-0.859375 L18.03125,-1.84375 L18.21875,-1.84375 C18.71875,-1.84375 19.515625,-1.515625 19.53125,-1.375 L19.53125,3.453125 C19.921875,3.53125 20.203125,3.703125 20.359375,3.859375 L18.59375,5.1875 L17.8125,4.3125 L9.21875,4.3125 L7.65625,5.015625 C8.0625,5.140625 8.375,5.328125 8.375,5.421875 L8.375,5.765625 L18.625,5.765625 L18.625,5.203125 L18.84375,5.203125 C19.34375,5.203125 20.09375,5.546875 20.109375,5.71875 L20.140625,9.8125 C20.609375,9.5 21.140625,9.234375 21.671875,8.96875 C21.8125,9.546875 22.34375,9.9375 22.890625,10.078125 L22.921875,10.34375 C20.609375,10.875 18.53125,11.90625 17.65625,13.015625 C18.3125,13.0625 18.84375,13.203125 19.0625,13.46875 L17.1875,14.71875 L16.53125,13.734375 Z M8.375,6.453125 L8.375,9.9375 L12.75,9.9375 L12.75,6.453125 Z M14.109375,6.453125 L14.109375,9.9375 L18.625,9.9375 L18.625,6.453125 Z M18.03125,1.390625 L18.03125,-0.171875 L9.078125,-0.171875 L9.078125,1.390625 Z M18.03125,2.09375 L9.078125,2.09375 L9.078125,3.625 L18.03125,3.625 Z M19.578125,18.140625 L19.578125,15.71875 L4.9375,15.71875 L4.9375,18.140625 Z" transform="translate(0.1796875, 19.78125) scale(1, -1)"/>
</svg>