<svg height="21.984375" viewBox="0 0 24 21.984375" width="24" xmlns="http://www.w3.org/2000/svg">
<path d="M3.90625,20.09375 L3.90625,-1.890625 L4.203125,-1.890625 C4.78125,-1.890625 5.421875,-1.53125 5.421875,-1.3125 L5.421875,19.171875 C6,19.265625 6.1875,19.515625 6.265625,19.84375 Z M2.140625,15.53125 C2.296875,13.921875 1.796875,11.96875 1.21875,11.1875 C0.84375,10.75 0.671875,10.203125 0.984375,9.8125 C1.375,9.390625 2.203125,9.671875 2.546875,10.265625 C3.046875,11.1875 3.265625,13.125 2.5625,15.53125 Z M9.40625,13.203125 L12.59375,13.203125 L12.59375,10.46875 L9.40625,10.46875 Z M9.40625,13.890625 L9.40625,16.5625 L12.59375,16.5625 L12.59375,13.890625 Z M5.8125,16.25 L5.5,16.125 C6.046875,15.171875 6.640625,13.578125 6.671875,12.359375 C7.25,11.78125 7.890625,12.140625 7.984375,12.90625 L7.984375,-0.859375 L8.25,-0.859375 C8.90625,-0.859375 9.40625,-0.53125 9.40625,-0.34375 L9.40625,2.921875 L14.734375,2.921875 C15.078125,2.921875 15.265625,3.046875 15.34375,3.3125 C14.71875,3.953125 13.625,4.796875 13.625,4.796875 L12.75,3.640625 L9.40625,3.640625 L9.40625,6.21875 L14.515625,6.21875 C14.828125,6.21875 15.078125,6.34375 15.140625,6.59375 C14.46875,7.21875 13.4375,8.09375 13.4375,8.09375 L12.53125,6.9375 L9.40625,6.9375 L9.40625,9.796875 L12.59375,9.796875 L12.59375,8.953125 L12.8125,8.953125 C13.296875,8.953125 13.984375,9.28125 14.015625,9.453125 L14.015625,16.375 C14.40625,16.4375 14.765625,16.625 14.90625,16.78125 L13.171875,18.125 L12.390625,17.25 L10.75,17.25 C11.1875,17.859375 11.640625,18.5 11.953125,19.0625 C12.4375,19.078125 12.71875,19.296875 12.796875,19.578125 L10.515625,20.046875 C10.390625,19.25 10.203125,18.125 10.03125,17.25 L9.53125,17.25 L7.984375,18.03125 L7.984375,13.375 C7.890625,14.15625 7.296875,15.234375 5.8125,16.25 Z M14.234375,9.703125 L14.421875,9 L18.234375,9 C17.09375,4.515625 14.546875,1.15625 9.234375,-1.5625 L9.453125,-1.875 C14.015625,-0.078125 16.75,2.234375 18.359375,5.25 L18.359375,-0.3125 C18.359375,-1.25 18.546875,-1.65625 19.796875,-1.65625 L20.828125,-1.65625 C22.734375,-1.65625 23.28125,-1.3125 23.28125,-0.71875 C23.28125,-0.4375 23.203125,-0.265625 22.78125,-0.078125 L22.703125,2.875 L22.390625,2.875 C22.171875,1.703125 21.9375,0.3125 21.796875,0 C21.71875,-0.21875 21.671875,-0.234375 21.5,-0.234375 C21.4375,-0.265625 21.1875,-0.265625 20.859375,-0.265625 L20.1875,-0.265625 C19.875,-0.265625 19.828125,-0.171875 19.828125,0.09375 L19.828125,6.640625 C20.234375,6.71875 20.453125,6.9375 20.5,7.21875 L19.265625,7.375 C19.46875,7.890625 19.625,8.421875 19.75,9 L22.65625,9 C22.984375,9 23.1875,9.125 23.25,9.390625 C22.5625,10.109375 21.390625,11.09375 21.390625,11.09375 L20.359375,9.703125 L19.921875,9.703125 C20.421875,12.09375 20.609375,14.828125 20.6875,17.921875 L22.3125,17.921875 C22.65625,17.921875 22.921875,18.046875 22.984375,18.28125 C22.171875,19.015625 20.953125,19.96875 20.953125,19.96875 L19.828125,18.625 L14.734375,18.625 L14.921875,17.921875 L15.703125,17.921875 L15.703125,9.703125 Z M17.0625,17.921875 L19.125,17.921875 C19.109375,14.828125 18.9375,12.09375 18.40625,9.703125 L17.0625,9.703125 Z" transform="translate(0.0234375, 20.09375) scale(1, -1)"/>
</svg>