<svg height="22.21875" viewBox="0 0 24 22.21875" width="24" xmlns="http://www.w3.org/2000/svg">
<path d="M0.953125,4.078125 L1.171875,3.390625 L14.109375,3.390625 L14.109375,-1.921875 L14.40625,-1.921875 C15,-1.921875 15.703125,-1.578125 15.703125,-1.390625 L15.703125,3.390625 L22.34375,3.390625 C22.6875,3.390625 22.9375,3.5 23.015625,3.765625 C22.109375,4.5625 20.6875,5.640625 20.6875,5.640625 L19.46875,4.078125 L15.703125,4.078125 L15.703125,7.03125 C16.265625,7.125 16.515625,7.3125 16.5625,7.65625 L14.109375,7.921875 L14.109375,4.078125 Z M18.5,16.734375 L18.5,13.515625 L12.703125,13.515625 C12.765625,14.5 12.796875,15.578125 12.8125,16.734375 Z M11.109375,20.296875 C10.890625,19.46875 10.53125,18.265625 10.296875,17.421875 L5.609375,17.421875 L3.90625,18.21875 L3.90625,7.125 L4.15625,7.125 C4.828125,7.125 5.46875,7.484375 5.46875,7.65625 L5.46875,8.8125 L10.0625,8.8125 C9.21875,7.109375 7.734375,5.71875 5.046875,4.578125 L5.359375,4.171875 C8.8125,5.359375 10.625,6.859375 11.609375,8.8125 L18.5,8.8125 L18.5,7.3125 L18.75,7.3125 C19.265625,7.3125 20.0625,7.734375 20.09375,7.875 L20.09375,16.4375 C20.5625,16.53125 20.953125,16.703125 21.125,16.890625 L19.15625,18.40625 L18.265625,17.421875 L11.28125,17.421875 C11.78125,18 12.390625,18.703125 12.796875,19.21875 C13.3125,19.21875 13.625,19.421875 13.734375,19.75 Z M18.5,9.5 L11.921875,9.5 C12.3125,10.484375 12.53125,11.59375 12.640625,12.8125 L18.5,12.8125 Z M5.46875,9.5 L5.46875,12.8125 L11.046875,12.8125 C10.9375,11.59375 10.734375,10.515625 10.375,9.5 Z M5.46875,13.515625 L5.46875,16.734375 L11.15625,16.734375 C11.140625,15.578125 11.140625,14.515625 11.09375,13.515625 Z" transform="translate(0.015625, 20.296875) scale(1, -1)"/>
</svg>