<svg height="20.703125" viewBox="0 0 24 20.703125" width="24" xmlns="http://www.w3.org/2000/svg">
<path d="M17.953125,16.875 L15.90625,17.875 C15.359375,16.9375 14.375,15.234375 13.65625,14.1875 L13.890625,13.96875 C14.875,14.765625 16.3125,15.90625 17.09375,16.625 C17.640625,16.53125 17.859375,16.65625 17.953125,16.875 Z M18.34375,7.484375 L18.09375,7.296875 C19.203125,6.453125 20.609375,4.984375 21.09375,3.859375 C22.703125,2.96875 23.546875,6.21875 18.34375,7.484375 Z M6.71875,17.71875 L6.4375,17.515625 C7.34375,16.703125 8.515625,15.3125 8.859375,14.25 C10.203125,13.3125 11.203125,15.9375 6.71875,17.71875 Z M13.390625,7.46875 L13.125,7.296875 C13.828125,6.578125 14.65625,5.28125 14.859375,4.296875 C16.21875,3.28125 17.453125,6 13.390625,7.46875 Z M7.703125,7.390625 L7.421875,7.265625 C7.890625,6.484375 8.46875,5.234375 8.5625,4.265625 C9.765625,3.1875 11.203125,5.546875 7.703125,7.390625 Z M4.828125,7.375 L4.390625,7.421875 C4.109375,6.34375 3,5.25 2.1875,4.875 C1.703125,4.578125 1.421875,4.109375 1.609375,3.671875 C1.875,3.171875 2.6875,3.234375 3.21875,3.546875 C4.03125,4.078125 4.96875,5.453125 4.828125,7.375 Z M5.875,12.3125 L5.875,13.015625 L11.25,13.015625 L11.25,11.015625 L3.578125,11.015625 L3.765625,10.296875 L11.25,10.296875 L11.25,8.453125 L1.4375,8.453125 L1.65625,7.734375 L21.953125,7.734375 C22.296875,7.734375 22.53125,7.84375 22.609375,8.109375 C21.84375,8.8125 20.65625,9.71875 20.65625,9.71875 L19.625,8.453125 L12.71875,8.453125 L12.71875,10.296875 L20.15625,10.296875 C20.5,10.296875 20.734375,10.421875 20.765625,10.6875 C20.046875,11.375 18.859375,12.28125 18.859375,12.28125 L17.8125,11.015625 L12.71875,11.015625 L12.71875,13.015625 L18.078125,13.015625 L18.078125,12.1875 L18.3125,12.1875 C18.8125,12.1875 19.5625,12.546875 19.578125,12.71875 L19.578125,18.28125 C19.84375,18.34375 20.0625,18.453125 20.140625,18.546875 L18.671875,19.734375 L17.953125,19.015625 L6.03125,19.015625 L4.390625,19.75 L4.390625,11.8125 L4.625,11.8125 C5.25,11.8125 5.875,12.171875 5.875,12.3125 Z M11.28125,18.28125 L11.28125,13.734375 L5.875,13.734375 L5.875,18.28125 Z M12.671875,18.28125 L18.078125,18.28125 L18.078125,13.734375 L12.671875,13.734375 Z M13.625,5.296875 L11.203125,5.546875 L11.203125,3.171875 L3.359375,3.171875 L3.546875,2.453125 L11.203125,2.453125 L11.203125,-0.234375 L0.90625,-0.234375 L1.125,-0.953125 L22.421875,-0.953125 C22.75,-0.953125 22.9375,-0.84375 23.015625,-0.578125 C22.203125,0.1875 20.859375,1.21875 20.859375,1.21875 L19.6875,-0.234375 L12.765625,-0.234375 L12.765625,2.453125 L20.1875,2.453125 C20.5,2.453125 20.734375,2.5625 20.8125,2.828125 C20.015625,3.59375 18.703125,4.609375 18.703125,4.609375 L17.5625,3.171875 L12.765625,3.171875 L12.765625,4.6875 C13.34375,4.75 13.578125,4.96875 13.625,5.296875 Z" transform="translate(-0.2265625, 19.75) scale(1, -1)"/>
</svg>