<svg height="22.875" viewBox="0 0 24 22.875" width="24" xmlns="http://www.w3.org/2000/svg">
<path d="M4.875,3.09375 C4.65625,1.390625 3.1875,0.171875 2.015625,-0.234375 C1.53125,-0.5 1.171875,-0.9375 1.375,-1.421875 C1.609375,-1.9375 2.46875,-1.921875 3.140625,-1.578125 C4.25,-1.0625 5.65625,0.4375 5.28125,3.078125 Z M8.5625,3 L8.234375,2.875 C8.65625,1.828125 9,0.171875 8.828125,-1.125 C10.078125,-2.546875 11.859375,0.3125 8.5625,3 Z M12.90625,3.125 L12.625,2.96875 C13.4375,1.890625 14.421875,0.09375 14.609375,-1.25 C16.0625,-2.46875 17.421875,0.75 12.90625,3.125 Z M17.65625,3.078125 L17.421875,2.859375 C18.890625,1.796875 20.6875,-0.140625 21.1875,-1.6875 C23.046875,-2.765625 23.921875,1.171875 17.65625,3.078125 Z M8.109375,7.296875 L17.5625,7.296875 L17.5625,5.0625 L8.109375,5.0625 Z M8.109375,7.984375 L8.109375,10.125 L17.5625,10.125 L17.5625,7.984375 Z M19.03125,19.96875 C18.40625,19.171875 17.65625,18.359375 16.828125,17.546875 C16.078125,18.1875 15.21875,18.859375 15.21875,18.859375 L14.140625,17.515625 L11.25,17.515625 L11.25,19.203125 C11.859375,19.296875 12.078125,19.53125 12.125,19.875 L9.671875,20.109375 L9.671875,17.515625 L3.453125,17.515625 L3.640625,16.796875 L9.671875,16.796875 L9.671875,14.015625 L1.0625,14.015625 L1.265625,13.3125 L11.453125,13.3125 C10.25,12.53125 8.96875,11.78125 7.6875,11.09375 L6.546875,11.59375 L6.546875,10.484375 C4.703125,9.546875 2.8125,8.734375 0.859375,8.0625 L1.03125,7.65625 C2.921875,8.1875 4.78125,8.828125 6.546875,9.546875 L6.546875,2.96875 L6.796875,2.96875 C7.421875,2.96875 8.109375,3.34375 8.109375,3.5 L8.109375,4.375 L17.5625,4.375 L17.5625,3.234375 L17.8125,3.234375 C18.3125,3.234375 19.078125,3.59375 19.109375,3.75 L19.109375,9.84375 C19.578125,9.9375 19.96875,10.125 20.109375,10.296875 L18.1875,11.78125 L17.328125,10.828125 L9.34375,10.828125 C10.75,11.515625 12.078125,12.265625 13.3125,13.0625 L13.25,12.953125 C14.015625,12.546875 15.03125,11.734375 15.40625,11.0625 C16.796875,10.421875 17.546875,12.953125 13.5625,13.203125 L13.75,13.3125 L22.390625,13.3125 C22.734375,13.3125 22.9375,13.4375 23.015625,13.703125 C22.203125,14.421875 20.90625,15.40625 20.90625,15.40625 L19.75,14.015625 L14.8125,14.015625 C16.84375,15.4375 18.59375,16.921875 19.921875,18.390625 C20.46875,18.140625 20.734375,18.1875 20.921875,18.40625 Z M11.25,16.796875 L16.015625,16.796875 C14.921875,15.84375 13.75,14.90625 12.453125,14.015625 L11.25,14.015625 Z" transform="translate(-0.390625, 20.109375) scale(1, -1)"/>
</svg>