<svg height="21.71875" viewBox="0 0 24 21.71875" width="24" xmlns="http://www.w3.org/2000/svg">
<path d="M21.234375,14.65625 C20.515625,13.6875 19.296875,12.140625 18.3125,10.984375 C17.640625,13.125 17.1875,15.4375 16.890625,17.734375 L22.4375,17.734375 C22.78125,17.734375 23.046875,17.859375 23.109375,18.125 C22.265625,18.859375 20.90625,19.921875 20.90625,19.921875 L19.703125,18.4375 L8.546875,18.4375 L8.734375,17.734375 L14.421875,17.734375 C12.859375,15.84375 10.578125,13.921875 8.140625,12.578125 L8.40625,12.1875 C9.859375,12.796875 11.296875,13.53125 12.59375,14.375 C13.078125,13.78125 13.484375,13.125 13.84375,12.453125 C13.25,11.6875 12.484375,10.875 11.640625,10.109375 C11.09375,10.6875 10.390625,11.234375 9.59375,11.734375 L9.34375,11.546875 C9.90625,10.96875 10.390625,10.171875 10.78125,9.359375 C9.671875,8.46875 8.5,7.6875 7.390625,7.109375 L7.5625,6.703125 C8.734375,7.171875 9.953125,7.78125 11.140625,8.46875 C11.296875,7.984375 11.421875,7.53125 11.46875,7.171875 C11.921875,5.734375 13.421875,6.546875 12.890625,8.109375 C12.765625,8.46875 12.59375,8.828125 12.34375,9.1875 C13.171875,9.75 13.9375,10.296875 14.59375,10.828125 C14.828125,10.21875 15.03125,9.59375 15.1875,8.96875 C13.109375,5.78125 9.28125,2.59375 5.71875,0.765625 L5.90625,0.390625 C9.484375,1.828125 13.15625,4.171875 15.625,6.546875 C15.890625,3.859375 15.4375,1.484375 14.609375,0.484375 C14.421875,0.234375 14.15625,0.21875 13.78125,0.21875 C13.15625,0.21875 11.296875,0.34375 10.21875,0.40625 L10.21875,0.03125 C11.1875,-0.171875 12.140625,-0.390625 12.453125,-0.625 C12.765625,-0.859375 12.9375,-1.265625 12.953125,-1.796875 C14.421875,-1.796875 15.34375,-1.515625 15.859375,-0.859375 C18.125,1.515625 18.265625,9.796875 12.984375,14.640625 C14.296875,15.53125 15.484375,16.53125 16.421875,17.609375 C16.9375,10.34375 18.234375,4.65625 21.984375,1.296875 C22.25,2.140625 22.796875,2.640625 23.40625,2.78125 L23.46875,3 C21.171875,4.515625 19.5625,7.25 18.484375,10.46875 C19.734375,11.234375 21.28125,12.21875 22.15625,12.859375 C22.578125,12.703125 22.828125,12.71875 22.9375,12.890625 Z M0.71875,2.515625 L1.609375,0.625 C1.828125,0.703125 2.046875,0.953125 2.0625,1.25 C5.046875,2.765625 7.4375,4.25 9.234375,5.453125 L9.09375,5.78125 C7.890625,5.25 6.671875,4.734375 5.515625,4.265625 L5.515625,10.171875 L8.421875,10.171875 C8.765625,10.171875 8.96875,10.296875 9.046875,10.53125 C8.40625,11.234375 7.296875,12.21875 7.296875,12.21875 L6.34375,10.875 L5.515625,10.875 L5.515625,16.828125 L8.5,16.828125 C8.828125,16.828125 9.046875,16.9375 9.125,17.203125 C8.40625,17.921875 7.21875,18.90625 7.21875,18.90625 L6.171875,17.546875 L1.0625,17.546875 L1.25,16.828125 L3.984375,16.828125 L3.984375,10.875 L1.15625,10.875 L1.34375,10.171875 L3.984375,10.171875 L3.984375,3.671875 C2.65625,3.171875 1.515625,2.765625 0.71875,2.515625 Z" transform="translate(-0.09375, 19.921875) scale(1, -1)"/>
</svg>