<svg height="21.96875" viewBox="0 0 24 21.96875" width="24" xmlns="http://www.w3.org/2000/svg">
<path d="M1.96875,10.96875 L1.96875,7.515625 C1.96875,5.375 1.890625,2.59375 1.015625,0.578125 L1.390625,0.3125 C2.953125,2.328125 3.21875,5.296875 3.234375,7.484375 L3.234375,10.15625 C3.8125,10.21875 3.984375,10.4375 4.0625,10.75 Z M8.25,10.984375 L8.25,3.234375 L8.5,3.234375 C9,3.234375 9.578125,3.578125 9.578125,3.765625 L9.578125,10.171875 C10.109375,10.25 10.3125,10.4375 10.375,10.75 Z M1.6875,18.28125 L1.875,17.5625 L9.8125,17.5625 C10.15625,17.5625 10.390625,17.6875 10.4375,17.953125 C9.625,18.671875 8.375,19.625 8.375,19.625 L7.25,18.28125 Z M14.09375,20.09375 C13.96875,18.546875 13.796875,16.890625 13.515625,15.1875 L9.84375,15.1875 L10.03125,14.5 L13.390625,14.5 C12.59375,9.9375 11.140625,5.109375 8.59375,1.578125 L8.921875,1.34375 C10.34375,2.859375 11.5,4.625 12.40625,6.53125 L12.40625,-1.828125 L12.640625,-1.828125 C13.421875,-1.828125 13.890625,-1.4375 13.890625,-1.3125 L13.890625,0.171875 L19.9375,0.171875 L19.9375,-1.53125 L20.203125,-1.53125 C20.953125,-1.53125 21.546875,-1.15625 21.546875,-1.015625 L21.546875,8.296875 C22.015625,8.359375 22.296875,8.546875 22.46875,8.71875 L20.515625,10.21875 L19.75,9.234375 L14.1875,9.234375 L13.625,9.484375 C14.234375,11.15625 14.6875,12.859375 15.046875,14.5 L22.390625,14.5 C22.734375,14.5 22.9375,14.609375 23.015625,14.875 C22.21875,15.59375 20.953125,16.625 20.953125,16.625 L19.828125,15.1875 L15.1875,15.1875 C15.484375,16.578125 15.703125,17.90625 15.859375,19.125 C16.609375,19.171875 16.828125,19.390625 16.890625,19.734375 Z M19.9375,0.890625 L13.890625,0.890625 L13.890625,8.546875 L19.9375,8.546875 Z M1.03125,13.78125 L1.21875,13.078125 L5.046875,13.078125 L5.046875,-1.875 L5.25,-1.875 C6.03125,-1.875 6.5,-1.46875 6.5,-1.34375 L6.5,13.078125 L10.421875,13.078125 C10.734375,13.078125 10.96875,13.203125 11.046875,13.46875 C10.265625,14.1875 9,15.1875 9,15.1875 L7.921875,13.78125 Z" transform="translate(-0.015625, 20.09375) scale(1, -1)"/>
</svg>