<svg height="21.96875" viewBox="0 0 24 21.96875" width="24" xmlns="http://www.w3.org/2000/svg">
<path d="M1.890625,10.46875 L1.890625,7.203125 C1.890625,5.15625 1.796875,2.5 0.953125,0.625 L1.3125,0.34375 C2.90625,2.234375 3.140625,5.09375 3.171875,7.15625 L3.171875,9.640625 C3.75,9.71875 3.90625,9.9375 3.984375,10.25 Z M8.203125,10.484375 L8.203125,1.609375 L8.453125,1.609375 C8.921875,1.609375 9.5,1.9375 9.5,2.140625 L9.5,9.671875 C10.0625,9.75 10.25,9.953125 10.296875,10.265625 Z M1.65625,18.28125 L1.84375,17.5625 L9.765625,17.5625 C10.109375,17.5625 10.34375,17.6875 10.421875,17.953125 C9.59375,18.671875 8.328125,19.625 8.328125,19.625 L7.21875,18.28125 Z M20.1875,20.09375 C18.671875,19.203125 15.8125,18 13.296875,17.25 L11.90625,17.734375 L11.90625,10.15625 C11.90625,5.859375 11.46875,1.703125 8.515625,-1.578125 L8.859375,-1.875 C13.015625,1.34375 13.390625,6.078125 13.390625,10.125 L13.390625,10.796875 L17.453125,10.796875 L17.453125,-1.84375 L17.71875,-1.84375 C18.53125,-1.84375 19.03125,-1.484375 19.03125,-1.34375 L19.03125,10.796875 L22.4375,10.796875 C22.78125,10.796875 22.984375,10.921875 23.0625,11.1875 C22.265625,11.90625 21,12.90625 21,12.90625 L19.890625,11.5 L13.390625,11.5 L13.390625,16.703125 C16.078125,17.09375 19.015625,17.828125 20.921875,18.4375 C21.53125,18.1875 21.9375,18.21875 22.15625,18.4375 Z M0.953125,13.296875 L1.15625,12.578125 L4.96875,12.578125 L4.96875,-1.828125 L5.203125,-1.828125 C5.953125,-1.828125 6.453125,-1.421875 6.453125,-1.296875 L6.453125,12.578125 L10.390625,12.578125 C10.703125,12.578125 10.9375,12.703125 11.015625,12.953125 C10.25,13.6875 8.96875,14.6875 8.96875,14.6875 L7.890625,13.296875 Z" transform="translate(-0.0078125, 20.09375) scale(1, -1)"/>
</svg>