<svg height="21.984375" viewBox="0 0 24 21.984375" width="24" xmlns="http://www.w3.org/2000/svg">
<path d="M6.703125,8.296875 L6.703125,8.234375 C4.734375,7.0625 2.6875,6 0.625,5.140625 L0.8125,4.75 C2.828125,5.453125 4.796875,6.28125 6.703125,7.203125 L6.703125,-1.875 L6.9375,-1.875 C7.578125,-1.875 8.234375,-1.515625 8.234375,-1.34375 L8.234375,-0.359375 L17.6875,-0.359375 L17.6875,-1.6875 L17.921875,-1.6875 C18.4375,-1.6875 19.21875,-1.296875 19.25,-1.15625 L19.25,7.296875 C19.75,7.390625 20.109375,7.578125 20.28125,7.78125 L18.3125,9.265625 L17.453125,8.296875 L8.8125,8.296875 C10.53125,9.234375 12.140625,10.265625 13.65625,11.296875 L13.515625,11.15625 C14.359375,10.625 15.28125,9.625 15.578125,8.78125 C17.109375,7.9375 18.046875,10.96875 13.75,11.375 L14.1875,11.6875 L22.296875,11.6875 C22.65625,11.6875 22.875,11.8125 22.9375,12.078125 C22.109375,12.8125 20.78125,13.84375 20.78125,13.84375 L19.609375,12.390625 L15.140625,12.390625 C17.453125,14.109375 19.390625,15.90625 20.90625,17.609375 C21.453125,17.375 21.703125,17.421875 21.90625,17.640625 L19.84375,19.265625 C19.125,18.34375 18.28125,17.40625 17.359375,16.4375 C16.578125,17.109375 15.546875,17.90625 15.546875,17.90625 L14.421875,16.484375 L11.296875,16.484375 L11.296875,19.25 C11.859375,19.34375 12.046875,19.5625 12.09375,19.875 L9.71875,20.109375 L9.71875,16.484375 L3.09375,16.484375 L3.28125,15.796875 L9.71875,15.796875 L9.71875,12.390625 L1.0625,12.390625 L1.265625,11.6875 L11.875,11.6875 C10.515625,10.65625 9.03125,9.640625 7.484375,8.71875 L6.703125,9.078125 Z M11.296875,15.796875 L16.703125,15.796875 C15.53125,14.640625 14.203125,13.484375 12.796875,12.390625 L11.296875,12.390625 Z M17.6875,7.609375 L17.6875,4.46875 L8.234375,4.46875 L8.234375,7.609375 Z M8.234375,3.765625 L17.6875,3.765625 L17.6875,0.34375 L8.234375,0.34375 Z" transform="translate(0.21875, 20.109375) scale(1, -1)"/>
</svg>