<svg height="21.515625" viewBox="0 0 24 21.515625" width="24" xmlns="http://www.w3.org/2000/svg">
<path d="M1.96875,10.46875 L1.96875,7.203125 C1.96875,5.15625 1.890625,2.5 1.0625,0.625 L1.421875,0.34375 C2.96875,2.25 3.21875,5.109375 3.234375,7.15625 L3.234375,9.640625 C3.8125,9.71875 3.984375,9.9375 4.0625,10.25 Z M8.28125,10.484375 L8.28125,1.609375 L8.515625,1.609375 C9,1.609375 9.578125,1.9375 9.578125,2.140625 L9.578125,9.671875 C10.109375,9.75 10.3125,9.953125 10.375,10.265625 Z M1.6875,18.28125 L1.875,17.5625 L9.671875,17.5625 C9.984375,17.5625 10.21875,17.6875 10.296875,17.953125 C9.5,18.671875 8.203125,19.625 8.203125,19.625 L7.109375,18.28125 Z M11.375,18.359375 L11.375,8.6875 L11.609375,8.6875 C12.234375,8.6875 12.859375,9.03125 12.859375,9.1875 L12.859375,9.984375 L14.0625,9.984375 C13.9375,4.734375 13.015625,1.296875 8.546875,-1.53125 L8.734375,-1.890625 C14.109375,0.578125 15.40625,4.109375 15.75,9.984375 L17.28125,9.984375 L17.28125,0.046875 C17.28125,-1.015625 17.515625,-1.4375 18.9375,-1.4375 L20.28125,-1.4375 C22.625,-1.4375 23.203125,-1.078125 23.203125,-0.4375 C23.203125,-0.125 23.140625,0.078125 22.6875,0.265625 L22.609375,4.125 L22.265625,4.125 C22.03125,2.59375 21.75,0.796875 21.59375,0.40625 C21.5,0.140625 21.4375,0.09375 21.28125,0.09375 C21.125,0.078125 20.78125,0.078125 20.296875,0.078125 L19.3125,0.078125 C18.84375,0.078125 18.796875,0.171875 18.796875,0.484375 L18.796875,9.984375 L20.25,9.984375 L20.25,8.953125 L20.5,8.953125 C21,8.953125 21.765625,9.265625 21.796875,9.40625 L21.796875,17.421875 C22.21875,17.515625 22.5625,17.71875 22.734375,17.875 L20.875,19.265625 L20.046875,18.359375 L12.984375,18.359375 L11.375,19.109375 Z M12.859375,10.6875 L12.859375,17.65625 L20.25,17.65625 L20.25,10.6875 Z M1.03125,13.265625 L1.21875,12.578125 L5.046875,12.578125 L5.046875,-1.828125 L5.28125,-1.828125 C6.03125,-1.828125 6.53125,-1.421875 6.53125,-1.296875 L6.53125,12.578125 L10.265625,12.578125 C10.578125,12.578125 10.828125,12.703125 10.875,12.953125 C10.125,13.6875 8.859375,14.6875 8.859375,14.6875 L7.75,13.265625 Z" transform="translate(-0.1171875, 19.625) scale(1, -1)"/>
</svg>