<svg height="22.578125" viewBox="0 0 24 22.578125" width="24" xmlns="http://www.w3.org/2000/svg">
<path d="M13.890625,2.421875 C13.015625,1.109375 11.109375,-0.578125 9.3125,-1.515625 L9.546875,-1.875 C11.71875,-1.25 13.890625,-0.03125 15.09375,1.0625 C15.59375,0.9375 15.796875,1.03125 15.953125,1.265625 Z M17.59375,2.140625 L17.375,1.875 C18.90625,1.03125 21,-0.546875 21.765625,-1.796875 C23.609375,-2.515625 24.03125,1.125 17.59375,2.140625 Z M1.96875,10.46875 L1.96875,7.203125 C1.96875,5.15625 1.890625,2.5 1.0625,0.625 L1.421875,0.34375 C2.96875,2.25 3.21875,5.109375 3.234375,7.15625 L3.234375,9.640625 C3.8125,9.71875 3.984375,9.9375 4.0625,10.25 Z M8.28125,10.484375 L8.28125,1.609375 L8.515625,1.609375 C9,1.609375 9.578125,1.9375 9.578125,2.140625 L9.578125,9.671875 C10.109375,9.75 10.3125,9.953125 10.375,10.265625 Z M1.6875,18.28125 L1.875,17.5625 L9.75,17.5625 C10.078125,17.5625 10.3125,17.6875 10.390625,17.953125 C9.578125,18.671875 8.296875,19.625 8.296875,19.625 L7.203125,18.28125 Z M11.5625,14.0625 L11.5625,1.703125 L11.8125,1.703125 C12.578125,1.703125 13.0625,2.046875 13.0625,2.1875 L13.0625,3.03125 L19.9375,3.03125 L19.9375,2.015625 L20.1875,2.015625 C20.90625,2.015625 21.5,2.40625 21.5,2.5 L21.5,13.25 C22.015625,13.3125 22.265625,13.46875 22.4375,13.625 L20.65625,15.03125 L19.84375,14.0625 L17.140625,14.0625 L17.140625,16.53125 L22.25,16.53125 C22.578125,16.53125 22.796875,16.65625 22.875,16.890625 C22.15625,17.59375 20.96875,18.5 20.96875,18.5 L19.921875,17.203125 L17.140625,17.203125 L17.140625,19.171875 C17.734375,19.25 17.96875,19.484375 18.03125,19.828125 L15.546875,20.0625 L15.546875,14.0625 L13.34375,14.0625 L11.5625,14.828125 Z M13.0625,9.953125 L19.9375,9.953125 L19.9375,7.203125 L13.0625,7.203125 Z M13.0625,10.65625 L13.0625,13.375 L19.9375,13.375 L19.9375,10.65625 Z M13.0625,6.5 L19.9375,6.5 L19.9375,3.75 L13.0625,3.75 Z M1.03125,13.265625 L1.21875,12.578125 L5.046875,12.578125 L5.046875,-1.828125 L5.28125,-1.828125 C6.03125,-1.828125 6.53125,-1.421875 6.53125,-1.296875 L6.53125,12.578125 L10.375,12.578125 C10.6875,12.578125 10.890625,12.703125 10.96875,12.953125 C10.203125,13.6875 8.953125,14.6875 8.953125,14.6875 L7.84375,13.265625 Z" transform="translate(-0.53125, 20.0625) scale(1, -1)"/>
</svg>