<svg height="21.90625" viewBox="0 0 24 21.90625" width="24" xmlns="http://www.w3.org/2000/svg">
<path d="M3.390625,10.53125 L3.578125,9.859375 L9.046875,9.859375 C9.359375,9.859375 9.578125,9.984375 9.625,10.25 C9.125,10.75 8.328125,11.453125 8.328125,11.453125 L7.609375,10.53125 Z M2.453125,13.625 C2.375,12.53125 1.703125,11.234375 1.171875,10.703125 C0.765625,10.34375 0.578125,9.84375 0.84375,9.453125 C1.125,9 1.9375,9.21875 2.28125,9.625 C2.640625,10.109375 2.921875,10.96875 2.953125,12.046875 L10.078125,12.046875 C9.953125,11.359375 9.796875,10.515625 9.625,9.984375 L9.953125,9.796875 C10.53125,10.3125 11.28125,11.1875 11.6875,11.828125 C12.140625,11.859375 12.40625,11.875 12.578125,12.046875 L10.84375,13.703125 L9.9375,12.765625 L2.953125,12.765625 L2.859375,13.578125 Z M8.828125,9.1875 C7.34375,8.609375 4.484375,7.875 2.1875,7.53125 L2.28125,7.125 C3.40625,7.125 4.609375,7.171875 5.765625,7.265625 L5.765625,5.5625 L1.015625,5.5625 L1.203125,4.84375 L4.96875,4.84375 C4.078125,2.875 2.71875,1.078125 0.953125,-0.28125 L1.203125,-0.703125 C3.09375,0.359375 4.625,1.6875 5.765625,3.265625 L5.765625,-1.828125 L5.96875,-1.828125 C6.71875,-1.828125 7.21875,-1.46875 7.21875,-1.34375 L7.21875,3.625 C8.296875,2.953125 9.53125,1.78125 9.890625,0.75 C11.46875,-0.171875 12.265625,3.125 7.21875,4.015625 L7.21875,4.84375 L11.546875,4.84375 C11.859375,4.84375 12.09375,4.96875 12.125,5.234375 C11.421875,5.90625 10.265625,6.8125 10.265625,6.8125 L9.21875,5.5625 L7.21875,5.5625 L7.21875,7.421875 C7.96875,7.484375 8.65625,7.578125 9.265625,7.703125 C9.796875,7.46875 10.171875,7.4375 10.390625,7.625 Z M5.71875,20.0625 L5.71875,17.640625 L1.15625,17.640625 L1.34375,16.921875 L5.71875,16.921875 L5.71875,14.90625 L2.0625,14.90625 L2.25,14.1875 L11.140625,14.1875 C11.46875,14.1875 11.6875,14.296875 11.765625,14.5625 C11.046875,15.234375 9.90625,16.125 9.90625,16.125 L8.875,14.90625 L7.25,14.90625 L7.25,16.921875 L11.78125,16.921875 C12.125,16.921875 12.34375,17.046875 12.40625,17.296875 C11.6875,18.03125 10.484375,18.90625 10.484375,18.90625 L9.484375,17.640625 L7.25,17.640625 L7.25,19.15625 C7.828125,19.25 8.0625,19.484375 8.109375,19.828125 Z M19.484375,8.78125 C18.953125,6.984375 18.171875,5.328125 17.09375,3.859375 C15.953125,5.234375 15.078125,6.890625 14.515625,8.78125 Z M12.59375,9.484375 L12.8125,8.78125 L13.96875,8.78125 C14.5,6.5 15.28125,4.578125 16.375,2.953125 C14.78125,1.109375 12.671875,-0.390625 9.953125,-1.484375 L10.171875,-1.84375 C13.109375,-0.953125 15.359375,0.34375 17.09375,1.96875 C18.390625,0.359375 20.015625,-0.90625 22.03125,-1.84375 C22.296875,-1.15625 22.796875,-0.71875 23.421875,-0.640625 L23.46875,-0.40625 C21.328125,0.3125 19.484375,1.421875 18,2.875 C19.46875,4.53125 20.5,6.453125 21.21875,8.59375 C21.75,8.609375 22.015625,8.65625 22.171875,8.875 L20.46875,10.46875 L19.46875,9.484375 Z M13.78125,18.671875 L13.78125,16.734375 C13.78125,14.71875 13.65625,12.40625 12.125,10.4375 L12.40625,10.15625 C14.96875,12 15.21875,14.828125 15.21875,16.734375 L15.21875,17.96875 L18.28125,17.96875 L18.28125,12.859375 C18.28125,11.953125 18.484375,11.59375 19.6875,11.59375 L20.65625,11.59375 C22.484375,11.59375 23.046875,11.875 23.046875,12.453125 C23.046875,12.75 22.9375,12.90625 22.515625,13.078125 L22.4375,15.09375 L22.15625,15.09375 C21.953125,14.234375 21.75,13.34375 21.59375,13.109375 C21.546875,12.9375 21.453125,12.9375 21.359375,12.90625 C21.234375,12.90625 21.03125,12.90625 20.765625,12.90625 L20.0625,12.90625 C19.78125,12.90625 19.734375,12.984375 19.734375,13.21875 L19.734375,17.765625 C20.140625,17.828125 20.375,17.953125 20.515625,18.125 L18.890625,19.53125 L18.09375,18.671875 L15.484375,18.671875 L13.78125,19.4375 Z" transform="translate(-0.0234375, 20.0625) scale(1, -1)"/>
</svg>