<svg height="22.0625" viewBox="0 0 24 22.0625" width="24" xmlns="http://www.w3.org/2000/svg">
<path d="M14.140625,7.421875 L13.921875,7.171875 C14.828125,6.75 15.953125,5.828125 16.421875,5.109375 C17.90625,4.46875 18.5,7.296875 14.140625,7.421875 Z M4.734375,17.78125 L4.734375,6.578125 L4.984375,6.578125 C5.640625,6.578125 6.28125,6.984375 6.28125,7.125 L6.28125,7.96875 L17.6875,7.96875 L17.6875,6.890625 L17.921875,6.890625 C18.4375,6.890625 19.21875,7.296875 19.25,7.4375 L19.25,16.78125 C19.734375,16.875 20.09375,17.0625 20.25,17.25 L18.3125,18.75 L17.453125,17.78125 L11.359375,17.78125 C11.828125,18.21875 12.390625,18.671875 12.765625,19.0625 C13.265625,19.0625 13.609375,19.21875 13.703125,19.5625 L10.96875,20.1875 L10.21875,17.78125 L6.40625,17.78125 L4.734375,18.546875 Z M10.6875,7.9375 C10.625,6.84375 10.53125,5.828125 10.265625,4.921875 L1.03125,4.921875 L1.25,4.21875 L10.0625,4.21875 C9.125,1.875 6.84375,0.140625 0.890625,-1.375 L1.078125,-1.84375 C8.546875,-0.4375 10.921875,1.515625 11.8125,4.21875 L12.453125,4.21875 C14.25,0.859375 17.5,-0.890625 21.9375,-1.875 C22.109375,-1.109375 22.5625,-0.578125 23.203125,-0.4375 L23.234375,-0.1875 C18.890625,0.34375 15.09375,1.625 13.109375,4.21875 L22.375,4.21875 C22.703125,4.21875 22.9375,4.34375 23.015625,4.609375 C22.203125,5.375 20.859375,6.390625 20.859375,6.390625 L19.703125,4.921875 L12.03125,4.921875 C12.1875,5.59375 12.28125,6.3125 12.359375,7.078125 C12.890625,7.125 13.15625,7.375 13.203125,7.6875 Z M17.6875,17.09375 L17.6875,14.8125 L6.28125,14.8125 L6.28125,17.09375 Z M6.28125,14.09375 L17.6875,14.09375 L17.6875,11.78125 L6.28125,11.78125 Z M6.28125,11.0625 L17.6875,11.0625 L17.6875,8.65625 L6.28125,8.65625 Z" transform="translate(-0.0625, 20.1875) scale(1, -1)"/>
</svg>