<svg height="22.0625" viewBox="0 0 24 22.0625" width="24" xmlns="http://www.w3.org/2000/svg">
<path d="M4.46875,11.640625 L9.953125,11.640625 L9.953125,9.640625 L4.46875,9.640625 Z M4.828125,20.140625 C3.859375,17.359375 2.296875,14.765625 0.796875,13.171875 L1.125,12.890625 C2.453125,13.828125 3.71875,15.140625 4.828125,16.703125 L6.234375,16.703125 C6.765625,16.03125 7.25,15.078125 7.3125,14.1875 L6.125,14.515625 C6.03125,13.84375 5.828125,13.015625 5.609375,12.34375 L4.78125,12.34375 L2.953125,13.125 L2.953125,-1.84375 L3.1875,-1.84375 C3.984375,-1.84375 4.46875,-1.4375 4.46875,-1.3125 L4.46875,0.484375 L11.828125,0.484375 C12.140625,0.484375 12.390625,0.59375 12.4375,0.859375 C11.734375,1.53125 10.578125,2.421875 10.578125,2.421875 L9.59375,1.15625 L4.46875,1.15625 L4.46875,3.28125 L11.453125,3.28125 C11.78125,3.28125 12,3.40625 12.078125,3.671875 C11.359375,4.3125 10.203125,5.234375 10.203125,5.234375 L9.1875,3.984375 L4.46875,3.984375 L4.46875,6.140625 L9.953125,6.140625 L9.953125,5.375 L10.171875,5.375 C10.6875,5.375 11.453125,5.71875 11.46875,5.828125 L11.46875,11.46875 C11.875,11.515625 12.1875,11.71875 12.3125,11.859375 L10.5625,13.21875 L9.765625,12.34375 L6.453125,12.34375 C6.890625,12.703125 7.21875,13.078125 7.484375,13.4375 C7.75,13.4375 7.96875,13.484375 8.09375,13.578125 C8.96875,13.703125 9.390625,15.4375 7.203125,16.703125 L11.78125,16.703125 C12.09375,16.703125 12.3125,16.796875 12.390625,17.0625 C11.71875,17.734375 10.578125,18.625 10.578125,18.625 L9.59375,17.375 L5.28125,17.375 C5.5625,17.859375 5.859375,18.34375 6.125,18.84375 C6.625,18.796875 6.90625,18.984375 7.03125,19.21875 Z M4.46875,8.921875 L9.953125,8.921875 L9.953125,6.859375 L4.46875,6.859375 Z M14.234375,20.140625 C13.4375,17.8125 12.171875,15.5 10.984375,14.09375 L11.328125,13.828125 C12.3125,14.546875 13.296875,15.546875 14.1875,16.703125 L15.84375,16.703125 C16.5625,15.90625 17.234375,14.765625 17.328125,13.734375 C18.671875,12.640625 19.984375,15.140625 16.984375,16.703125 L22.46875,16.703125 C22.796875,16.703125 23.046875,16.796875 23.09375,17.0625 C22.3125,17.78125 21.09375,18.75 21.09375,18.75 L19.984375,17.375 L14.65625,17.375 C14.96875,17.859375 15.28125,18.359375 15.546875,18.859375 C16.0625,18.796875 16.375,19.015625 16.484375,19.25 Z M13.65625,12.796875 L13.65625,-1.921875 L13.890625,-1.921875 C14.6875,-1.921875 15.1875,-1.484375 15.1875,-1.375 L15.1875,12.09375 L20.046875,12.09375 L20.046875,3.078125 C20.046875,2.765625 19.9375,2.609375 19.53125,2.609375 C19.078125,2.609375 16.890625,2.78125 16.890625,2.78125 L16.890625,2.40625 C17.875,2.28125 18.40625,2.0625 18.75,1.796875 C19.03125,1.53125 19.15625,1.125 19.21875,0.640625 C21.359375,0.859375 21.59375,1.65625 21.59375,2.859375 L21.59375,11.8125 C22.078125,11.90625 22.46875,12.078125 22.625,12.265625 L20.59375,13.78125 L19.796875,12.796875 L15.484375,12.796875 L13.65625,13.578125 Z" transform="translate(0.0546875, 20.140625) scale(1, -1)"/>
</svg>