<svg height="21.921875" viewBox="0 0 24 21.921875" width="24" xmlns="http://www.w3.org/2000/svg">
<path d="M1.84375,18.453125 L2.046875,17.78125 L8.375,17.78125 C8.71875,17.78125 8.953125,17.90625 9,18.171875 C8.28125,18.84375 7.125,19.75 7.125,19.75 L6.09375,18.453125 Z M1.890625,12.40625 L2.09375,11.71875 L8.5625,11.71875 C8.90625,11.71875 9.09375,11.828125 9.140625,12.078125 C8.5,12.71875 7.4375,13.578125 7.4375,13.578125 L6.484375,12.40625 Z M1.890625,9.34375 L2.09375,8.640625 L8.5625,8.640625 C8.90625,8.640625 9.09375,8.765625 9.140625,9 C8.5,9.671875 7.4375,10.53125 7.4375,10.53125 L6.484375,9.34375 Z M0.796875,15.453125 L0.953125,14.765625 L9.75,14.765625 C10.0625,14.765625 10.296875,14.875 10.34375,15.140625 C9.625,15.8125 8.453125,16.75 8.453125,16.75 L7.421875,15.453125 Z M17.953125,20.046875 L17.953125,17.546875 L13.9375,17.546875 L13.9375,19.203125 C14.5,19.296875 14.6875,19.515625 14.734375,19.796875 L12.484375,20.046875 L12.484375,17.546875 L9.53125,17.546875 L9.71875,16.828125 L12.484375,16.828125 L12.484375,13.53125 L12.765625,13.53125 C13.34375,13.53125 13.9375,13.796875 13.9375,13.96875 L13.9375,14.15625 L15.171875,14.15625 L15.171875,12.171875 L12.140625,12.171875 L10.53125,12.890625 L10.53125,7.203125 L10.75,7.203125 C11.359375,7.203125 12.03125,7.484375 12.03125,7.625 L12.03125,8.015625 L15.171875,8.015625 L15.171875,5.8125 L10.109375,5.8125 L10.296875,5.140625 L15.171875,5.140625 L15.171875,2.8125 L10.5625,2.8125 L10.75,2.109375 L15.171875,2.109375 L15.171875,-0.359375 L9.234375,-0.359375 L9.4375,-1.03125 L22.53125,-1.03125 C22.84375,-1.03125 23.09375,-0.90625 23.140625,-0.671875 C22.375,0.078125 21.125,1.0625 21.125,1.0625 L19.984375,-0.359375 L16.703125,-0.359375 L16.703125,2.109375 L21.234375,2.109375 C21.578125,2.109375 21.8125,2.234375 21.859375,2.5 C21.140625,3.171875 19.9375,4.109375 19.9375,4.109375 L18.9375,2.8125 L16.703125,2.8125 L16.703125,5.140625 L21.8125,5.140625 C22.125,5.140625 22.375,5.25 22.4375,5.515625 C21.703125,6.1875 20.5,7.125 20.5,7.125 L19.46875,5.8125 L16.703125,5.8125 L16.703125,8.015625 L20.015625,8.015625 L20.015625,7.484375 L20.25,7.484375 C20.734375,7.484375 21.5,7.828125 21.53125,7.96875 L21.53125,11.203125 C21.953125,11.28125 22.375,11.5 22.53125,11.65625 L20.609375,13.078125 L19.78125,12.171875 L16.703125,12.171875 L16.703125,14.15625 L17.953125,14.15625 L17.953125,13.609375 L18.21875,13.609375 C18.796875,13.609375 19.421875,13.875 19.421875,14.046875 L19.421875,16.828125 L22.421875,16.828125 C22.75,16.828125 22.96875,16.9375 23.046875,17.203125 C22.375,17.875 21.265625,18.765625 21.265625,18.765625 L20.25,17.546875 L19.421875,17.546875 L19.421875,19.203125 C19.96875,19.265625 20.140625,19.515625 20.1875,19.796875 Z M20.015625,11.46875 L20.015625,8.71875 L16.703125,8.71875 L16.703125,11.46875 Z M12.03125,8.71875 L12.03125,11.46875 L15.171875,11.46875 L15.171875,8.71875 Z M15.171875,14.875 L13.9375,14.875 L13.9375,16.828125 L17.953125,16.828125 L17.953125,14.875 Z M7.078125,5.546875 L7.078125,1.015625 L3.4375,1.015625 L3.4375,5.546875 Z M1.96875,6.234375 L1.96875,-1.875 L2.1875,-1.875 C2.78125,-1.875 3.4375,-1.515625 3.4375,-1.375 L3.4375,0.3125 L7.078125,0.3125 L7.078125,-0.953125 L7.296875,-0.953125 C7.796875,-0.953125 8.546875,-0.59375 8.5625,-0.453125 L8.5625,5.28125 C9.03125,5.375 9.40625,5.5625 9.578125,5.734375 L7.703125,7.171875 L6.859375,6.234375 L3.53125,6.234375 L1.96875,6.984375 Z" transform="translate(0.03125, 20.046875) scale(1, -1)"/>
</svg>