<svg height="21.984375" viewBox="0 0 24 21.984375" width="24" xmlns="http://www.w3.org/2000/svg">
<path d="M7.15625,14.734375 C7.015625,14.234375 6.8125,13.734375 6.578125,13.21875 L4.0625,13.03125 C5.234375,13.984375 6.5,15.234375 7.5625,16.515625 C8.0625,16.390625 8.375,16.5625 8.515625,16.75 L6.703125,17.828125 C5.609375,16.03125 4.25,14.1875 3.125,12.953125 L1.296875,12.890625 L2.09375,11.15625 C2.296875,11.203125 2.515625,11.328125 2.609375,11.65625 C4.078125,11.96875 5.28125,12.28125 6.21875,12.53125 C5.25,10.796875 3.703125,9.1875 1.296875,8.09375 L1.515625,7.75 C5.421875,9.125 7.296875,11.453125 8.25,13.609375 C8.640625,13.5625 8.90625,13.65625 9.03125,13.890625 L9.03125,9.4375 L9.265625,9.4375 C9.84375,9.4375 10.421875,9.765625 10.421875,9.890625 L10.421875,10.734375 L15.453125,10.734375 C15.765625,10.734375 15.984375,10.84375 16.0625,11.109375 C15.390625,11.6875 14.453125,12.359375 14.453125,12.359375 L13.578125,11.453125 L10.421875,11.453125 L10.421875,12.484375 L15.171875,12.484375 C15.453125,12.484375 15.671875,12.59375 15.75,12.859375 C15.28125,13.25 14.6875,13.703125 14.359375,13.921875 C14.78125,13.984375 15.28125,14.25 15.3125,14.375 L15.3125,17.65625 C15.625,17.734375 15.890625,17.875 16.015625,18 L14.5,19.15625 L13.78125,18.4375 L11.859375,18.4375 C12.140625,18.703125 12.390625,18.953125 12.578125,19.21875 C13.109375,19.25 13.375,19.484375 13.4375,19.78125 L11.296875,20.109375 C11.234375,19.625 11.109375,18.953125 10.9375,18.4375 L10.515625,18.4375 L9.03125,19.125 L9.03125,14.0625 Z M13.9375,13.890625 L13.296875,13.203125 L10.421875,13.203125 L10.421875,14.328125 L13.9375,14.328125 Z M13.9375,16.0625 L13.9375,15.046875 L10.421875,15.046875 L10.421875,16.0625 Z M13.9375,16.75 L10.421875,16.75 L10.421875,17.734375 L13.9375,17.734375 Z M5.140625,20.09375 C4.6875,19.078125 4.125,18.078125 3.640625,17.328125 C3.21875,17.515625 2.6875,17.65625 1.984375,17.71875 L1.796875,17.421875 C2.8125,16.875 3.453125,15.859375 3.8125,15.171875 C4.796875,14.5625 5.421875,16.015625 4.21875,16.96875 C4.875,17.46875 5.5625,18.140625 6.140625,18.765625 C6.625,18.703125 6.9375,18.890625 7.0625,19.109375 Z M1.15625,6 L1.375,5.296875 L22.34375,5.296875 C22.6875,5.296875 22.921875,5.421875 22.96875,5.6875 C22.203125,6.40625 20.921875,7.375 20.921875,7.375 L19.828125,6 L14.921875,6 C15.546875,6.40625 16.15625,6.859375 16.578125,7.265625 C17.0625,7.21875 17.375,7.390625 17.515625,7.65625 L16.171875,8.109375 L20.5,8.109375 C20.828125,8.109375 21.046875,8.234375 21.125,8.5 C20.375,9.140625 19.21875,9.953125 19.21875,9.953125 L18.1875,8.8125 L12.671875,8.8125 L12.671875,9.71875 C13.125,9.8125 13.296875,10.015625 13.34375,10.265625 L11.140625,10.484375 L11.140625,8.8125 L4.078125,8.8125 L4.296875,8.109375 L7.3125,8.109375 L7.25,8.0625 C7.75,7.578125 8.328125,6.75 8.46875,6.046875 L8.5625,6 Z M8.109375,8.109375 L15.1875,8.109375 C14.859375,7.421875 14.421875,6.625 14.015625,6 L9.5,6 C10.078125,6.390625 10.03125,7.5625 8.109375,8.109375 Z M5.765625,4.078125 L5.765625,-1.875 L5.96875,-1.875 C6.625,-1.875 7.3125,-1.515625 7.3125,-1.375 L7.3125,-0.75 L16.84375,-0.75 L16.84375,-1.828125 L17.09375,-1.828125 C17.59375,-1.828125 18.390625,-1.46875 18.40625,-1.296875 L18.40625,3.171875 C18.8125,3.234375 19.171875,3.4375 19.3125,3.59375 L17.453125,4.984375 L16.609375,4.078125 L7.4375,4.078125 L5.765625,4.84375 Z M7.3125,-0.046875 L7.3125,1.34375 L16.84375,1.34375 L16.84375,-0.046875 Z M7.3125,2.046875 L7.3125,3.390625 L16.84375,3.390625 L16.84375,2.046875 Z M16.578125,18.84375 L16.578125,9.40625 L16.796875,9.40625 C17.40625,9.40625 17.96875,9.71875 17.96875,9.890625 L17.96875,18.171875 L20.28125,18.171875 C19.921875,17.234375 19.421875,15.953125 19.03125,15.21875 C20.296875,14.328125 20.953125,13.5625 20.953125,12.53125 C20.953125,12.1875 20.828125,12.046875 20.640625,11.90625 C20.5,11.78125 20.296875,11.765625 20.046875,11.765625 C19.75,11.765625 19.015625,11.765625 18.59375,11.765625 L18.59375,11.40625 C19.0625,11.359375 19.390625,11.25 19.578125,11.109375 C19.75,10.9375 19.828125,10.53125 19.828125,10.203125 C21.671875,10.265625 22.375,10.921875 22.375,12.28125 C22.375,13.4375 21.484375,14.421875 19.625,15.265625 C20.328125,15.9375 21.1875,17.109375 21.75,17.8125 C22.265625,17.828125 22.578125,17.859375 22.78125,18.078125 L21.1875,19.734375 L20.234375,18.84375 L18.078125,18.84375 L16.578125,19.5625 Z" transform="translate(-0.0625, 20.109375) scale(1, -1)"/>
</svg>