<svg height="21.96875" viewBox="0 0 24 21.96875" width="24" xmlns="http://www.w3.org/2000/svg">
<path d="M2.46875,19.53125 L2.234375,19.3125 C3.3125,18.5 4.734375,17.09375 5.1875,15.953125 C6.859375,15.078125 7.703125,18.453125 2.46875,19.53125 Z M17.65625,7.984375 L17.40625,7.828125 C18.125,7.171875 18.890625,5.96875 19.0625,5.0625 C20.359375,4.03125 21.703125,6.75 17.65625,7.984375 Z M1.46875,14.59375 L1.25,14.375 C2.40625,13.65625 3.84375,12.34375 4.34375,11.234375 C6.046875,10.421875 6.765625,13.84375 1.46875,14.59375 Z M11.6875,20.140625 C10.828125,17.5 8.953125,14.40625 6.9375,12.625 L7.21875,12.359375 C7.84375,12.75 8.421875,13.171875 9,13.6875 L9,8.09375 L9.21875,8.09375 C9.953125,8.09375 10.46875,8.5 10.46875,8.609375 L10.46875,9.265625 L13.5625,9.265625 C12.796875,6.59375 11.09375,4.0625 7.15625,1.875 L7.46875,1.46875 C12.078125,3.59375 14.046875,6.234375 14.953125,9.125 L14.953125,3.53125 C14.953125,2.453125 15.265625,2.09375 16.890625,2.09375 L18.953125,2.09375 C22.078125,2.09375 22.734375,2.359375 22.734375,3.03125 C22.734375,3.3125 22.609375,3.5 22.125,3.671875 L22.0625,6.453125 L21.75,6.453125 C21.5,5.25 21.28125,4.109375 21.125,3.75 C21.03125,3.546875 20.921875,3.5 20.71875,3.484375 C20.453125,3.453125 19.796875,3.453125 19.015625,3.453125 L17.203125,3.453125 C16.53125,3.453125 16.46875,3.53125 16.46875,3.859375 L16.46875,9.265625 L19.484375,9.265625 L19.484375,8.296875 L19.703125,8.296875 C20.203125,8.296875 20.96875,8.65625 21,8.78125 L21,13.703125 C21.453125,13.796875 21.84375,13.984375 21.984375,14.1875 L20.09375,15.625 L19.25,14.71875 L15.390625,14.71875 C16.265625,15.453125 17.234375,16.484375 17.875,17.15625 C18.34375,17.1875 18.59375,17.234375 18.796875,17.40625 L17.015625,19.0625 L16.03125,18.046875 L12.59375,18.046875 C12.859375,18.453125 13.078125,18.859375 13.265625,19.265625 C13.890625,19.21875 14.0625,19.34375 14.140625,19.609375 Z M19.484375,9.953125 L15.1875,9.953125 C15.5,11.28125 15.640625,12.625 15.71875,13.984375 L19.484375,13.984375 Z M10.46875,9.953125 L10.46875,13.984375 L14.1875,13.984375 C14.140625,12.640625 14.0625,11.296875 13.75,9.953125 Z M14.71875,14.71875 L10.734375,14.71875 L10.25,14.90625 C10.96875,15.671875 11.609375,16.515625 12.171875,17.359375 L16.03125,17.359375 C15.671875,16.53125 15.1875,15.484375 14.71875,14.71875 Z M5.734375,7.171875 C6.390625,7.25 6.75,7.46875 6.90625,7.609375 L4.84375,9.34375 L3.90625,8.109375 L0.90625,8.109375 L1.0625,7.390625 L4.265625,7.390625 L4.265625,1.96875 C3.046875,1.25 1.75,0.5 0.90625,0.125 L2.046875,-1.828125 C2.234375,-1.703125 2.328125,-1.53125 2.296875,-1.25 C3.140625,-0.484375 4.53125,0.90625 5.421875,1.9375 C7.15625,-0.71875 9.09375,-1.265625 13.53125,-1.265625 C16.25,-1.265625 19.578125,-1.265625 22.015625,-1.265625 C22.078125,-0.546875 22.515625,-0.125 23.203125,0 L23.203125,0.359375 C20.25,0.265625 16.375,0.265625 13.515625,0.265625 C9.3125,0.265625 7.46875,0.53125 5.734375,2.421875 Z" transform="translate(-0.0546875, 20.140625) scale(1, -1)"/>
</svg>