<svg height="24" viewBox="0 0 24 24" width="24" xmlns="http://www.w3.org/2000/svg">
<path d="M1.171875,9.890625 L0.671875,9.765625 C0.671875,9.28125 0.703125,8.953125 0.84375,8.515625 C1.0625,7.734375 2.203125,6.5 2.875,6.5 C3.34375,6.5 3.640625,6.71875 4.21875,6.890625 C5.25,7.171875 7.34375,7.46875 8.875,7.46875 C9.546875,7.46875 10.109375,7.4375 10.515625,7.4375 C11.25,7.4375 11.453125,7.6875 11.453125,8.140625 C11.453125,8.8125 10.375,9.453125 9.8125,9.453125 C8.90625,9.453125 8.421875,9.234375 7.375,9.046875 C6.125,8.828125 4.609375,8.546875 2.90625,8.546875 C2.203125,8.546875 1.796875,9.03125 1.171875,9.890625 Z" transform="translate(5.9375, 9.890625) scale(1, -1)"/>
</svg>