<svg height="19.53125" viewBox="0 0 24 19.53125" width="24" xmlns="http://www.w3.org/2000/svg">
<path d="M13.703125,-1.265625 L13.703125,1.65625 C15.890625,1.828125 17.546875,2.828125 18.59375,4.34375 L18.171875,4.703125 C16.9375,3.453125 15.4375,2.90625 13.703125,2.90625 L13.703125,14.96875 C14.46875,14.96875 15.171875,14.859375 15.953125,14.5 L16.46875,12.8125 C16.6875,11.90625 17.046875,11.640625 17.609375,11.640625 C18.09375,11.640625 18.4375,11.921875 18.59375,12.5 C18.078125,14.453125 16.15625,15.578125 13.703125,15.703125 L13.703125,18.265625 L12.75,18.265625 L12.75,15.671875 C8.90625,15.4375 6,12.8125 6,8.71875 C6,4.3125 8.96875,1.78125 12.75,1.625 L12.75,-1.265625 Z M12.75,2.96875 C10.125,3.40625 8.203125,5.5625 8.203125,8.96875 C8.203125,12.390625 10.25,14.515625 12.75,14.90625 Z" transform="translate(-0.296875, 18.265625) scale(1, -1)"/>
</svg>