<svg height="24" viewBox="0 0 24 24" width="24" xmlns="http://www.w3.org/2000/svg">
<path d="M6.046875,8.140625 L9.125,8.140625 C9.21875,7.6875 9.28125,7.171875 9.28125,6.59375 C9.28125,4.46875 8.203125,2.96875 6.078125,1.34375 L6.078125,0 L18.71875,0 L18.71875,1.703125 L7.5625,1.703125 C9.59375,3.078125 10.703125,4.84375 10.703125,7.203125 C10.703125,7.53125 10.6875,7.84375 10.65625,8.140625 L16.25,8.140625 L16.25,9.046875 L10.484375,9.046875 C10.203125,10.484375 9.671875,11.78125 9.671875,13.625 C9.671875,16.015625 11.109375,17.5625 13.421875,17.5625 C14.234375,17.5625 14.875,17.5 15.546875,17.15625 L16.125,15.03125 C16.390625,14.046875 16.796875,13.828125 17.359375,13.796875 C17.875,13.828125 18.234375,14.09375 18.3125,14.6875 C17.859375,17.109375 15.953125,18.359375 13.15625,18.359375 C9.953125,18.359375 7.703125,16.625 7.703125,13.6875 C7.703125,11.71875 8.40625,10.484375 8.875,9.046875 L6.046875,9.046875 Z" transform="translate(-0.3828125, 18.359375) scale(1, -1)"/>
</svg>